<svg xmlns="http://www.w3.org/2000/svg" viewBox="0 0 28 28"><defs><style>.cls-1{fill:none;}.cls-2{fill:#0091ff;}</style></defs><g id="Layer_2" data-name="Layer 2"><g id="Layer_1-2" data-name="Layer 1"><rect class="cls-1" width="28" height="28"/><path class="cls-2" d="M14.62,0a3.15,3.15,0,0,1,1.47,1l5.56,5.56c.43.43.43.65,0,1.08L19.42,9.82a.56.56,0,0,1-1-.29,1.41,1.41,0,1,0-1.68,1.67.6.6,0,0,1,.52.42.59.59,0,0,1-.24.62l-2.21,2.2c-.36.37-.61.36-1,0L12,12.65A2.47,2.47,0,0,1,9.83,14,2.41,2.41,0,0,1,8,13.23a2.5,2.5,0,0,1,.66-3.91l-.18-.19L6.87,7.51a.54.54,0,0,1,0-.89l6-6A2.67,2.67,0,0,1,14,0Zm4.52,8.54L20.66,7l-.13-.14L15,1.42a.93.93,0,0,0-1.49,0L8.08,6.89l-.16.18.68.68L10.06,9.2a.53.53,0,0,1,.14.58.54.54,0,0,1-.46.35,1.86,1.86,0,0,0-.41.08,1.4,1.4,0,0,0-.91,1.55,1.41,1.41,0,0,0,2.8,0,.59.59,0,0,1,.39-.57.6.6,0,0,1,.63.23c.36.37.73.74,1.1,1.1l.9.92,1.46-1.47a2.41,2.41,0,0,1-1.07-2.64,2.28,2.28,0,0,1,1.78-1.83A2.42,2.42,0,0,1,19.14,8.54Z"/><path class="cls-2" d="M16.9,15.87a2.49,2.49,0,0,1,.74-2.43,2.4,2.4,0,0,1,1.8-.67,2.5,2.5,0,0,1,2.28,3.1h2.61a.52.52,0,0,1,.59.58c0,2.88,0,5.76,0,8.64A1.94,1.94,0,0,1,23,27c-.46,0-.93,0-1.4,0a.53.53,0,0,1-.56-.53.55.55,0,0,1,.56-.52h1.3a.9.9,0,0,0,.94-.92V17.08s0-.08,0-.16H21a.58.58,0,0,1-.56-.27.56.56,0,0,1,.06-.63,1.41,1.41,0,1,0-2.34,0,.59.59,0,0,1,.07.61.58.58,0,0,1-.58.29h-2.8v2.8a.56.56,0,0,1-.28.58.6.6,0,0,1-.66-.1A1.4,1.4,0,0,0,12,22.27a1.41,1.41,0,0,0,1.72.22.66.66,0,0,0,.17-.12.55.55,0,0,1,.94.47v3.1h2a.53.53,0,1,1,0,1q-5.62,0-11.25,0a1.93,1.93,0,0,1-1.93-1.94V16.46c0-.41.21-.59.66-.59H16.9Zm-3.14,7.78a2.47,2.47,0,0,1-2.79-1,2.26,2.26,0,0,1-.12-2.56,2.44,2.44,0,0,1,2.91-1.18v-2h-9v8a.92.92,0,0,0,1,1.05h8Z"/><path class="cls-2" d="M19.81,26.46a.52.52,0,0,1-.51.53.54.54,0,0,1-.54-.53.53.53,0,0,1,.53-.51A.51.51,0,0,1,19.81,26.46Z"/></g></g></svg>