<svg xmlns="http://www.w3.org/2000/svg" viewBox="0 0 28 28"><defs><style>.cls-1,.cls-3{fill:none;}.cls-2{fill:#0091ff;}.cls-3{stroke:#0091ff;stroke-miterlimit:10;stroke-width:0.25px;}</style></defs><g id="Layer_2" data-name="Layer 2"><g id="Layer_1-2" data-name="Layer 1"><rect class="cls-1" width="28" height="28"/><path class="cls-2" d="M25.61,22.61a.57.57,0,0,0-.83-.23.58.58,0,0,0-.11.87l.48.72H22.24V5.47a2.43,2.43,0,0,0,0-.27.55.55,0,0,0-.5-.53,2.06,2.06,0,0,0-.35,0H4.07V2.92h.06c.22.15.44.3.67.44a.57.57,0,0,0,.85-.1.56.56,0,0,0-.21-.83c-.53-.37-1.07-.73-1.61-1.09a.53.53,0,0,0-.61,0c-.61.39-1.21.8-1.8,1.21a.49.49,0,0,0-.18.58.52.52,0,0,0,.48.41.88.88,0,0,0,.44-.14c.25-.14.48-.31.75-.49V21.15a.34.34,0,0,1-.21.34A2.84,2.84,0,0,0,2,25.91a3.43,3.43,0,0,0,1.4.86h1.4l.29-.12a2.76,2.76,0,0,0,1.51-1.34.3.3,0,0,1,.31-.19H25.16l-.45.69a.63.63,0,0,0,.08,1h.6l1.34-1.93.06-.07v-.4ZM4.05,25.69a1.7,1.7,0,1,1,0-3.4A1.73,1.73,0,0,1,5.76,24,1.7,1.7,0,0,1,4.05,25.69ZM10.85,24H6.91a2.89,2.89,0,0,0-.84-2,2.92,2.92,0,0,0-2-.85V16h6.78ZM16,24H12V15.68c0-.62-.18-.79-.78-.79H4.06v-4H16Zm5.1,0H17.13V10.6c0-.11,0-.22,0-.33a.56.56,0,0,0-.54-.49H4.07v-4h17ZM19.38,7.52H18.27V8.61h1.11Zm-5.11,5.11H13.16v1.11h1.11ZM9.15,17.75H8.05v1.11h1.1Z"/><path class="cls-3" d="M25.61,22.61a.57.57,0,0,0-.83-.23.58.58,0,0,0-.11.87l.48.72H22.24V5.47a2.43,2.43,0,0,0,0-.27.55.55,0,0,0-.5-.53,2.06,2.06,0,0,0-.35,0H4.07V2.92h.06c.22.15.44.3.67.44a.57.57,0,0,0,.85-.1.56.56,0,0,0-.21-.83c-.53-.37-1.07-.73-1.61-1.09a.53.53,0,0,0-.61,0c-.61.39-1.21.8-1.8,1.21a.49.49,0,0,0-.18.58.52.52,0,0,0,.48.41.88.88,0,0,0,.44-.14c.25-.14.48-.31.75-.49V21.15a.34.34,0,0,1-.21.34A2.84,2.84,0,0,0,2,25.91a3.43,3.43,0,0,0,1.4.86h1.4l.29-.12a2.76,2.76,0,0,0,1.51-1.34.3.3,0,0,1,.31-.19H25.16l-.45.69a.63.63,0,0,0,.08,1h.6l1.34-1.93.06-.07v-.4ZM4.05,25.69a1.7,1.7,0,1,1,0-3.4A1.73,1.73,0,0,1,5.76,24,1.7,1.7,0,0,1,4.05,25.69ZM10.85,24H6.91a2.89,2.89,0,0,0-.84-2,2.92,2.92,0,0,0-2-.85V16h6.78ZM16,24H12V15.68c0-.62-.18-.79-.78-.79H4.06v-4H16Zm5.1,0H17.13V10.6c0-.11,0-.22,0-.33a.56.56,0,0,0-.54-.49H4.07v-4h17ZM19.38,7.52H18.27V8.61h1.11Zm-5.11,5.11H13.16v1.11h1.11ZM9.15,17.75H8.05v1.11h1.1Z"/></g></g></svg>