<svg xmlns="http://www.w3.org/2000/svg" viewBox="0 0 28 28"><defs><style>.cls-1{fill:none;}.cls-2,.cls-3{fill:#0091ff;}.cls-3{stroke:#0091ff;stroke-miterlimit:10;stroke-width:0.5px;}</style></defs><g id="Layer_2" data-name="Layer 2"><g id="Layer_1-2" data-name="Layer 1"><rect class="cls-1" x="7.95" y="3.56" width="14.05" height="14.05"/><path class="cls-2" d="M15,11.08a2.3,2.3,0,1,0-2.3-2.29A2.3,2.3,0,0,0,15,11.08ZM15,7.4A1.38,1.38,0,1,1,13.6,8.76,1.37,1.37,0,0,1,15,7.4Zm3.22,6.74a2.52,2.52,0,0,0-2.42-2.23H14.24a2.33,2.33,0,0,0-1.38.43A2.45,2.45,0,0,0,11.77,14a.46.46,0,1,0,.91.13A1.55,1.55,0,0,1,14,12.83c.6-.05,1.2,0,1.8,0a1.42,1.42,0,0,1,1,.43,1.66,1.66,0,0,1,.51,1.06.45.45,0,0,0,.9-.11Z"/><rect class="cls-1" width="28" height="28"/><path class="cls-3" d="M25.52,18.79H23.28l-.22,0-.24,0h-.16a1.39,1.39,0,0,1-.3,0H20.12a1.27,1.27,0,0,0-1.22.73.43.43,0,0,1-.38.25c-1.06,0-2.13,0-3.2,0l-.07,0c0-.6,0-1.21,0-1.82a.44.44,0,0,1,.42-.41h1.21a1.53,1.53,0,0,1,0-.3v0h0a.17.17,0,0,0,0-.07.09.09,0,0,0,0-.05s0-.09,0-.13v0a.19.19,0,0,1,0-.08.22.22,0,0,1,0-.08H15.7A1.24,1.24,0,0,0,14.48,18v1.55c0,.08,0,.16,0,.26h-1.8c-.07,0-.16-.09-.19-.15a1.25,1.25,0,0,0-1.07-.72,11.63,11.63,0,0,0-1.32,0,1.23,1.23,0,0,0-1.17,1.16,1.26,1.26,0,0,0,1,1.31,3.54,3.54,0,0,0,.47.07v1.1a1.21,1.21,0,0,0,1.19,1.15h1.32c.29,0,.47-.15.47-.39s-.18-.37-.48-.37-.84,0-1.27,0a.41.41,0,0,1-.46-.4c0-.36,0-.73,0-1.09l.09,0a1.35,1.35,0,0,0,1.27-.77.32.32,0,0,1,.24-.11h5.9a.46.46,0,0,1,.34.19,1.31,1.31,0,0,0,1.08.58c.29,0,.58,0,.86,0h1.51c0,.11,0,.19,0,.27-.07,1.06,0,2.12,0,3.18A1.33,1.33,0,0,1,21,26.24H9.36a1.34,1.34,0,0,1-.35,0,1.32,1.32,0,0,1-1.08-1.42V3.21a1.09,1.09,0,0,1,0-.18A1.24,1.24,0,0,1,9,1.81a9.44,9.44,0,0,1,1.41,0,.41.41,0,0,1,.4.33c0,.2.08.41.13.61A1.8,1.8,0,0,0,12.69,4.1c1.68,0,3.36,0,5,0a1.75,1.75,0,0,0,1.72-1.32c.07-.28.11-.57.17-.86,0-.06.08-.15.12-.15a11.58,11.58,0,0,1,1.67,0,1.26,1.26,0,0,1,1,1.39V14c0,.1,0,.2,0,.3a.34.34,0,0,0,.35.33.35.35,0,0,0,.38-.28,1.46,1.46,0,0,0,0-.3V9.33c0-2,0-4.1,0-6.15A2.19,2.19,0,0,0,21,1H9.36a2.32,2.32,0,0,0-.7.1A2.05,2.05,0,0,0,7.17,3.21V24.79a1.77,1.77,0,0,0,0,.23,2.05,2.05,0,0,0,1.24,1.8A4.72,4.72,0,0,0,9,27H21.44s0,0,0,0c.92.3,1.71-.86,1.71-1.82V21.31h2.31a1.26,1.26,0,1,0,0-2.52ZM11.33,20.65c-.2,0-.39,0-.59,0s-.37,0-.55,0a.5.5,0,0,1-.51-.5.48.48,0,0,1,.48-.49c.4,0,.79,0,1.19,0a.49.49,0,0,1,.48.49A.5.5,0,0,1,11.33,20.65ZM18.87,1.78a9.19,9.19,0,0,1-.22,1,.93.93,0,0,1-.88.59c-1.69,0-3.39,0-5.08,0a1,1,0,0,1-1-.61,5.72,5.72,0,0,1-.22-.95Zm6.68,18.77H20.12a.51.51,0,0,1-.56-.38.48.48,0,0,1,.4-.6,1.23,1.23,0,0,1,.27,0h5.34a.52.52,0,0,1,.54.5A.52.52,0,0,1,25.55,20.55Z"/><path class="cls-3" d="M17.26,24.57H15.69a1.26,1.26,0,1,1,0-2.52c1.06,0,2.13,0,3.19,0a1.25,1.25,0,1,1,0,2.5Zm0-.77h1.55a.49.49,0,0,0,.56-.48c0-.33-.23-.53-.63-.5a16.75,16.75,0,0,1-2.92,0c-.4,0-.66.17-.66.49a.5.5,0,0,0,.56.49Z"/><path class="cls-3" d="M20.78,3.36A.37.37,0,0,1,20.42,3a.38.38,0,1,1,.36.38Z"/></g></g></svg>