<svg xmlns="http://www.w3.org/2000/svg" viewBox="0 0 28.07 28"><defs><style>.cls-1{fill:none;}.cls-2{fill:#0091ff;}</style></defs><g id="Layer_2" data-name="Layer 2"><g id="Layer_1-2" data-name="Layer 1"><rect class="cls-1" x="0.04" width="28" height="28"/><path class="cls-2" d="M3.09,11.93a3.15,3.15,0,0,1,.36.09,1.84,1.84,0,0,1,1.32,1.83c0,1.7,0,3.4,0,5.11A1.89,1.89,0,0,1,2.41,20.9,2.77,2.77,0,0,1,.06,18.44a33.53,33.53,0,0,1,0-4,2.58,2.58,0,0,1,1.46-2.14.38.38,0,0,0,.23-.37A12.31,12.31,0,0,1,26,9.87c.16.69.2,1.4.31,2.1a.43.43,0,0,0,.18.29,2.85,2.85,0,0,1,1.54,2.6q0,1.58,0,3.15a2.85,2.85,0,0,1-1.53,2.58.32.32,0,0,0-.19.32,16.58,16.58,0,0,1-.06,2,4,4,0,0,1-3.94,3.41H20.46a.28.28,0,0,0-.29.19,2,2,0,0,1-1.88,1.16h-2a2,2,0,0,1-2-2,2,2,0,0,1,1.92-2.06c.76,0,1.53,0,2.29,0a2,2,0,0,1,1.74,1.16c0,.08.13.18.2.18a22.2,22.2,0,0,0,2.31-.05A2.64,2.64,0,0,0,25,22.4c0-.49,0-1,0-1.46l-.39-.1a1.81,1.81,0,0,1-1.3-1.69c0-1.82,0-3.63,0-5.44A1.8,1.8,0,0,1,24.73,12l.23-.06a11,11,0,0,0-21.87,0Zm21.55,4.51V19c0,.45.22.64.67.61a1.52,1.52,0,0,0,1.4-1.48c0-1.12,0-2.23,0-3.35a1.52,1.52,0,0,0-1.36-1.48c-.49,0-.71.14-.71.62Zm-21.21,0V13.86c0-.41-.22-.6-.64-.59a1.53,1.53,0,0,0-1.43,1.51c0,1.1,0,2.21,0,3.31a1.52,1.52,0,0,0,1.36,1.49c.5.05.71-.14.71-.64ZM17.3,26.34h1a.68.68,0,1,0,0-1.36h-2a.67.67,0,0,0-.7.67.68.68,0,0,0,.72.69Z"/><path class="cls-2" d="M9.74,18.29a3,3,0,0,1-1.53-.43,2.79,2.79,0,0,1-1.36-2.48c0-1.89,0-3.77,0-5.66A2.82,2.82,0,0,1,9.79,6.83h8.49a2.82,2.82,0,0,1,2.94,2.89c0,1.89,0,3.79,0,5.68a2.84,2.84,0,0,1-3,2.89H14.87a.55.55,0,0,0-.44.19l-2.34,2.32A1.39,1.39,0,0,1,9.77,20a4.09,4.09,0,0,1,0-.61Zm1.34,1.49.07,0,.22-.2c.78-.78,1.58-1.55,2.35-2.34a1.07,1.07,0,0,1,.82-.34c1.21,0,2.42,0,3.63,0a1.53,1.53,0,0,0,1.71-1.7V9.87a1.52,1.52,0,0,0-1.71-1.7H9.9a1.52,1.52,0,0,0-1.71,1.7v5.38a2.17,2.17,0,0,0,0,.36,1.44,1.44,0,0,0,1.22,1.3,5.49,5.49,0,0,0,.81,0c.62,0,.84.22.84.83Z"/><path class="cls-2" d="M14,13.65a1,1,0,1,1,1-1A1,1,0,0,1,14,13.65Z"/><path class="cls-2" d="M11.76,12.65a1,1,0,1,1-2,0,1,1,0,1,1,2,0Z"/><path class="cls-2" d="M16.31,12.67a1,1,0,1,1,2,0,1,1,0,0,1-2,0Z"/></g></g></svg>