<svg xmlns="http://www.w3.org/2000/svg" viewBox="0 0 40 40"><defs><style>.cls-1{fill:none;}.cls-2{fill:#0091ff;}</style></defs><g id="Layer_2" data-name="Layer 2"><g id="Layer_1-2" data-name="Layer 1"><rect class="cls-1" width="40" height="40"/><path class="cls-2" d="M12.93,5.81A1.46,1.46,0,0,0,11.38,4.4c-1.1,0-2.21,0-3.31,0A1.51,1.51,0,0,0,6.5,6c0,.56,0,1.11,0,1.66s0,1.16,0,1.74A1.5,1.5,0,0,0,8,10.88q1.68,0,3.36,0a1.46,1.46,0,0,0,1.53-1.41C13,8.25,13,7,12.93,5.81ZM11.4,9.32H8.05V6H11.4ZM8.13,20.15c1.07,0,2.13,0,3.2,0A1.51,1.51,0,0,0,13,18.61c0-1.13,0-2.27,0-3.4a1.51,1.51,0,0,0-1.62-1.54H8.13a1.54,1.54,0,0,0-1.64,1.64c0,.53,0,1,0,1.58s0,1.08,0,1.62A1.53,1.53,0,0,0,8.13,20.15Zm-.07-4.92H11.4v3.36H8.06ZM6.49,26.16c0,.56,0,1.13,0,1.7a1.53,1.53,0,0,0,1.6,1.56h3.24A1.51,1.51,0,0,0,13,27.88c0-1.13,0-2.27,0-3.4a1.51,1.51,0,0,0-1.62-1.54c-1.06,0-2.13,0-3.2,0a1.53,1.53,0,0,0-1.64,1.64c0,.52,0,1.05,0,1.58Zm1.57-1.67h3.33v3.36H8.06Zm8.36-4.34a2.43,2.43,0,0,0,.27,0h8.16c.11,0,.21,0,.31,0a.77.77,0,1,0,0-1.54H16.4a.77.77,0,1,0,0,1.54Zm6.08-9.26H25c.6,0,.94-.3.94-.78s-.35-.76-.92-.77H20c-.56,0-.9.31-.9.78s.35.76.92.77Zm-6.14,0a.77.77,0,0,0,0-1.53.77.77,0,0,0,0,1.53ZM37.66,5A4.51,4.51,0,0,0,33.82.28s-.06,0-.1-.05H6.28a.24.24,0,0,1-.1.05A4.55,4.55,0,0,0,2.34,5c0,9.35,0,18.71,0,28.06A2.35,2.35,0,0,0,4.9,35.6h9.6a1.79,1.79,0,0,0,.46,0,.75.75,0,0,0,0-1.47,2.74,2.74,0,0,0-.5,0H4.89c-.73,0-1-.27-1-1V4.87A2.93,2.93,0,0,1,7,1.78q11.25,0,22.51,0l.33,0a5.17,5.17,0,0,0-1.1,3.62c0,7.94,0,15.88,0,23.82a3.53,3.53,0,0,1,0,.46,1.28,1.28,0,0,1-1.85,1,1.4,1.4,0,0,1-.7-.88c-.38-1.15-.74-2.3-1.16-3.43a2.33,2.33,0,0,0-2.57-1.53,2.37,2.37,0,0,0-2.05,2.21c0,.24,0,.49,0,.77H16.51c-.58,0-.91.3-.91.77s.34.77.91.77h3.84v.47c0,1,0,2.08,0,3.12a9,9,0,0,0,.25,2.21C21,36.51,21.53,37.76,22,39a3.59,3.59,0,0,0,.59.77H23c.62-.32.73-.62.46-1.28s-.63-1.55-1-2.31a7.72,7.72,0,0,1-.62-3V27.51a1.49,1.49,0,0,1,.11-.6.77.77,0,0,1,.8-.49.87.87,0,0,1,.81.67c.36,1.1.73,2.19,1.09,3.29A2.82,2.82,0,0,0,25.87,32a2.7,2.7,0,0,0,2.82.15,2.74,2.74,0,0,0,1.56-2.51c0-.56,0-1.11,0-1.66V16.4A10.31,10.31,0,0,1,33.85,22a11.74,11.74,0,0,1,.27,2.29c0,2.87,0,5.74,0,8.61a13.76,13.76,0,0,1-1.17,5.31,2.56,2.56,0,0,0-.11.24.85.85,0,0,0,.43,1.3h.39a4.27,4.27,0,0,0,.61-.75,15.19,15.19,0,0,0,1.4-6.23c0-2.92,0-5.84,0-8.76a11,11,0,0,0-3.4-7.85c-.52-.53-1-1.08-1.58-1.58a1,1,0,0,1-.38-1.16h4.86a2.33,2.33,0,0,0,2.5-2.5C37.66,9,37.62,7,37.66,5Zm-2.32,6.89c-1.68,0-3.36,0-5.09,0V7.05c0-.78,0-1.57,0-2.35a2.93,2.93,0,1,1,5.85.09V11C36.11,11.53,35.84,11.88,35.34,11.88ZM18.17,34.06a.8.8,0,0,0-.78.75.78.78,0,0,0,.74.78.79.79,0,0,0,.78-.75A.78.78,0,0,0,18.17,34.06Z"/></g></g></svg>