<svg xmlns="http://www.w3.org/2000/svg" viewBox="0 0 28 28"><defs><style>.cls-1{fill:none;}.cls-2{fill:#0091ff;}</style></defs><g id="Layer_2" data-name="Layer 2"><g id="Layer_1-2" data-name="Layer 1"><rect class="cls-1" width="28" height="28"/><path class="cls-2" d="M15.8,23.56h6.32a.34.34,0,0,0,.37-.25,1.84,1.84,0,0,1,2.21-1.08,1.85,1.85,0,0,1-.54,3.63,1.83,1.83,0,0,1-1.7-1.18c0-.08-.15-.19-.23-.19H15.8c0,.09-.08.18-.11.27A1.8,1.8,0,0,1,14,25.87a1.75,1.75,0,0,1-1.67-1.12.37.37,0,0,0-.4-.27h-6a.33.33,0,0,0-.36.24,1.85,1.85,0,1,1,0-1.39.33.33,0,0,0,.36.24h6.08c.14,0,.26,0,.33-.18A1.82,1.82,0,0,1,14,22.17a1.87,1.87,0,0,1,1.71,1.26ZM4.73,24a.93.93,0,0,0-.93-.91.93.93,0,1,0,0,1.85A.94.94,0,0,0,4.73,24ZM14,23.1a.93.93,0,1,0,.92.93A.92.92,0,0,0,14,23.1ZM24.2,25a.93.93,0,1,0-.94-.91A.93.93,0,0,0,24.2,25Z"/><path class="cls-2" d="M4.77,8.78H8.66c.54,0,.74.27.74,1V20.25c0,.73-.2,1-.75,1H.84c-.54,0-.74-.28-.74-1V9.77c0-.73.2-1,.75-1ZM8.21,19.66v-9.3H6.49c0,.7,0,1.38,0,2.05s-.19,1-.78,1h-2c-.54,0-.73-.27-.73-1s0-1.38,0-2.07H1.28v9.29ZM5.4,12.78V10.37H4.09v2.41Z"/><path class="cls-2" d="M27.9,7.65a27.14,27.14,0,0,1-1.46,7,15.78,15.78,0,0,1-2.1,4.4,8,8,0,0,1-1.43,1.53,2.62,2.62,0,0,1-3.57,0,9.38,9.38,0,0,1-2-2.42,24.31,24.31,0,0,1-2.94-9.86A6.73,6.73,0,0,1,27.72,6.32,11.22,11.22,0,0,1,27.9,7.65Zm-11.81.6A24,24,0,0,0,18.68,17a9.35,9.35,0,0,0,1.45,2,1.24,1.24,0,0,0,2,0,7.93,7.93,0,0,0,1.28-1.72,24.21,24.21,0,0,0,2.73-8.89A5.08,5.08,0,0,0,21.4,2.7,5.16,5.16,0,0,0,16.09,8.25Z"/><path class="cls-2" d="M21.18,5a1.86,1.86,0,1,1-1.85,1.87A1.86,1.86,0,0,1,21.18,5Zm.93,1.86a.93.93,0,1,0-.92.92A.92.92,0,0,0,22.11,6.84Z"/></g></g></svg>