<svg xmlns="http://www.w3.org/2000/svg" viewBox="0 0 28 28"><defs><style>.cls-1{fill:none;}.cls-2{fill:#0091ff;}</style></defs><g id="Layer_2" data-name="Layer 2"><g id="Layer_1-2" data-name="Layer 1"><rect class="cls-1" width="28" height="28"/><path class="cls-2" d="M27.55,24.42a1.7,1.7,0,0,1-.95,1.23,2.54,2.54,0,0,1-.94.19H2.35a1.73,1.73,0,0,1-1.9-1.91V9.13a1.73,1.73,0,0,1,1.9-1.91h8.92a1.94,1.94,0,0,1,.34,0,.83.83,0,0,1,.69.84.84.84,0,0,1-.75.83H2.17V12.3h9.08a2.06,2.06,0,0,1,.35,0,.83.83,0,0,1,.7.85.85.85,0,0,1-.76.82H2.16V24.14H25.85V18.28a.85.85,0,0,1,1.64-.35l.06.09Z"/><path class="cls-2" d="M27.55,9.87,27.4,11A9.11,9.11,0,0,1,24.11,17a19.18,19.18,0,0,1-2.84,2,.86.86,0,0,1-.95,0,16,16,0,0,1-3.93-3,8.94,8.94,0,0,1-2.23-4.79A42.05,42.05,0,0,1,14,5.53a.87.87,0,0,1,.64-.84l4.59-2,1.11-.48a1,1,0,0,1,.82,0L27,4.71a1.06,1.06,0,0,1,.6.66ZM25.85,8.2c0-.79,0-1.36,0-1.92A.25.25,0,0,0,25.68,6L20.94,4a.44.44,0,0,0-.32,0L15.84,6a.28.28,0,0,0-.14.21c0,1.48,0,3,.12,4.43a6.74,6.74,0,0,0,1.46,3.69,12.11,12.11,0,0,0,3.37,2.8.31.31,0,0,0,.28,0c.72-.51,1.48-1,2.16-1.55a7.2,7.2,0,0,0,2.53-4.19A14.09,14.09,0,0,0,25.85,8.2Z"/><path class="cls-2" d="M6.35,19.08H4.79a.87.87,0,0,1-1-.84.86.86,0,0,1,.94-.86H8a.86.86,0,0,1,.94.86.87.87,0,0,1-1,.84Z"/><path class="cls-2" d="M20,10.86l1.7-2.12c.32-.4.64-.81,1-1.2a.84.84,0,0,1,1.48.35.8.8,0,0,1-.16.7c-1.13,1.41-2.25,2.83-3.39,4.23a.82.82,0,0,1-1.37-.07c-.57-.82-1.13-1.66-1.67-2.5a.83.83,0,0,1,.21-1.19A.85.85,0,0,1,19,9.31c.3.43.58.86.87,1.3Z"/></g></g></svg>