<svg xmlns="http://www.w3.org/2000/svg" viewBox="0 0 28 28"><defs><style>.cls-1,.cls-3{fill:none;}.cls-2{fill:#0091ff;}.cls-3{stroke:#0091ff;stroke-miterlimit:10;stroke-width:0.26px;}</style></defs><g id="Layer_2" data-name="Layer 2"><g id="Layer_1-2" data-name="Layer 1"><rect class="cls-1" width="28" height="28"/><path class="cls-2" d="M25.68,15c-1.33-1.57-2.74-3.08-4.15-4.58a2.07,2.07,0,0,0-3.44.7c0,.05-.05.09-.08.15a2.13,2.13,0,0,0-3.27,1.09,2.07,2.07,0,0,0-1.89-.3,2.16,2.16,0,0,0-1.38,1.44c-.11-.14-.16-.24-.24-.32-.62-.62-1.22-1.26-1.88-1.83a2.07,2.07,0,0,0-3.22,1,2.11,2.11,0,0,0,.59,2.26l7.07,7.06a1.1,1.1,0,0,0,.26.15l-.07.1-.09,0-4,.62A2.54,2.54,0,0,0,8,23.64a2,2,0,0,0-.19,2.12,1.73,1.73,0,0,0,1.16.84H20l.22-.05A5.75,5.75,0,0,0,23.48,25c.68-.63,1.34-1.28,2-2A5.89,5.89,0,0,0,25.68,15Zm-.84,7.14c-.63.7-1.31,1.35-2,2a4.86,4.86,0,0,1-3.52,1.37H14.6c-1.72,0-3.45,0-5.18,0-.71,0-.91-.42-.7-1a1.31,1.31,0,0,1,1.09-.88L15,22.82l.25-.05a.54.54,0,0,0,.29-.9l-.19-.2L7.5,13.8a1,1,0,0,1-.28-1.28,1,1,0,0,1,1.49-.32l.24.23,5.13,5.13a2,2,0,0,0,.27.23.53.53,0,0,0,.66-.06.54.54,0,0,0,.07-.68,1.71,1.71,0,0,0-.22-.25c-.67-.67-1.35-1.34-2-2a1,1,0,1,1,1.42-1.4c.67.66,1.33,1.32,2,2l.14.14a.55.55,0,0,0,.8,0,.52.52,0,0,0,0-.79c-.36-.38-.74-.73-1.09-1.11A1,1,0,0,1,16.59,12a1,1,0,0,1,.92.31l1,1a.56.56,0,0,0,.63.16.47.47,0,0,0,.33-.47,1,1,0,0,0-.24-.51,1,1,0,0,1,.46-1.59.91.91,0,0,1,1,.24c1.43,1.56,2.88,3.1,4.25,4.7A4.82,4.82,0,0,1,24.84,22.13ZM5.77,25.51H4.88a2.73,2.73,0,0,1-2.63-1.86,9.46,9.46,0,0,1-.16-2.5h8.49a1.83,1.83,0,0,0,.33,0,.5.5,0,0,0,.44-.48A.52.52,0,0,0,11,20.1a1.58,1.58,0,0,0-.38,0H2.12V5.92H15.17V9.56a.66.66,0,0,0,.22.57.5.5,0,0,0,.57.06.6.6,0,0,0,.31-.62c0-1.74,0-3.49,0-5.23A3.8,3.8,0,0,0,12.54.46c-2.6,0-5.21,0-7.81,0A3.75,3.75,0,0,0,1.25,3c-.1.28-.16.57-.24.85V23.23c.07.26.12.53.21.78a3.74,3.74,0,0,0,3.05,2.54l.11.05H6c.36-.17.48-.36.41-.66S6.17,25.52,5.77,25.51Zm-.91-24q3.78,0,7.56,0a2.75,2.75,0,0,1,2.73,3.24h-13A2.75,2.75,0,0,1,4.86,1.55ZM7.07,3.72h3.14a.54.54,0,1,0,0-1.08c-.51,0-1,0-1.55,0s-1,0-1.5,0a1,1,0,0,0-.35,0,.53.53,0,0,0-.31.61A.56.56,0,0,0,7.07,3.72Zm5.39,0A.55.55,0,0,0,13,3.17a.54.54,0,0,0-.54-.53.52.52,0,0,0-.53.53A.54.54,0,0,0,12.46,3.72Z"/><path class="cls-3" d="M25.68,15c-1.33-1.57-2.74-3.08-4.15-4.58a2.07,2.07,0,0,0-3.44.7c0,.05-.05.09-.08.15a2.13,2.13,0,0,0-3.27,1.09,2.07,2.07,0,0,0-1.89-.3,2.16,2.16,0,0,0-1.38,1.44c-.11-.14-.16-.24-.24-.32-.62-.62-1.22-1.26-1.88-1.83a2.07,2.07,0,0,0-3.22,1,2.11,2.11,0,0,0,.59,2.26l7.07,7.06a1.1,1.1,0,0,0,.26.15l-.07.1-.09,0-4,.62A2.54,2.54,0,0,0,8,23.64a2,2,0,0,0-.19,2.12,1.73,1.73,0,0,0,1.16.84H20l.22-.05A5.75,5.75,0,0,0,23.48,25c.68-.63,1.34-1.28,2-2A5.89,5.89,0,0,0,25.68,15Zm-.84,7.14c-.63.7-1.31,1.35-2,2a4.86,4.86,0,0,1-3.52,1.37H14.6c-1.72,0-3.45,0-5.18,0-.71,0-.91-.42-.7-1a1.31,1.31,0,0,1,1.09-.88L15,22.82l.25-.05a.54.54,0,0,0,.29-.9l-.19-.2L7.5,13.8a1,1,0,0,1-.28-1.28,1,1,0,0,1,1.49-.32l.24.23,5.13,5.13a2,2,0,0,0,.27.23.53.53,0,0,0,.66-.06.54.54,0,0,0,.07-.68,1.71,1.71,0,0,0-.22-.25c-.67-.67-1.35-1.34-2-2a1,1,0,1,1,1.42-1.4c.67.66,1.33,1.32,2,2l.14.14a.55.55,0,0,0,.8,0,.52.52,0,0,0,0-.79c-.36-.38-.74-.73-1.09-1.11A1,1,0,0,1,16.59,12a1,1,0,0,1,.92.31l1,1a.56.56,0,0,0,.63.16.47.47,0,0,0,.33-.47,1,1,0,0,0-.24-.51,1,1,0,0,1,.46-1.59.91.91,0,0,1,1,.24c1.43,1.56,2.88,3.1,4.25,4.7A4.82,4.82,0,0,1,24.84,22.13ZM5.77,25.51H4.88a2.73,2.73,0,0,1-2.63-1.86,9.46,9.46,0,0,1-.16-2.5h8.49a1.83,1.83,0,0,0,.33,0,.5.5,0,0,0,.44-.48A.52.52,0,0,0,11,20.1a1.58,1.58,0,0,0-.38,0H2.12V5.92H15.17V9.56a.66.66,0,0,0,.22.57.5.5,0,0,0,.57.06.6.6,0,0,0,.31-.62c0-1.74,0-3.49,0-5.23A3.8,3.8,0,0,0,12.54.46c-2.6,0-5.21,0-7.81,0A3.75,3.75,0,0,0,1.25,3c-.1.28-.16.57-.24.85V23.23c.07.26.12.53.21.78a3.74,3.74,0,0,0,3.05,2.54l.11.05H6c.36-.17.48-.36.41-.66S6.17,25.52,5.77,25.51Zm-.91-24q3.78,0,7.56,0a2.75,2.75,0,0,1,2.73,3.24h-13A2.75,2.75,0,0,1,4.86,1.55ZM7.07,3.72h3.14a.54.54,0,1,0,0-1.08c-.51,0-1,0-1.55,0s-1,0-1.5,0a1,1,0,0,0-.35,0,.53.53,0,0,0-.31.61A.56.56,0,0,0,7.07,3.72Zm5.39,0A.55.55,0,0,0,13,3.17a.54.54,0,0,0-.54-.53.52.52,0,0,0-.53.53A.54.54,0,0,0,12.46,3.72Z"/></g></g></svg>