<svg xmlns="http://www.w3.org/2000/svg" viewBox="0 0 28.05 28.05"><defs><style>.cls-1{fill:none;}.cls-2{fill:#0091ff;}</style></defs><g id="Layer_2" data-name="Layer 2"><g id="Layer_1-2" data-name="Layer 1"><rect class="cls-1" width="28.05" height="28.05"/><path class="cls-2" d="M4.82,2.47H23.24l.14,0a2.56,2.56,0,0,1,1.82,1.3,5.73,5.73,0,0,1,.38,1v9.52a1,1,0,0,1,0,.1,2.65,2.65,0,0,1-2.25,2.22,10,10,0,0,1-1.55,0,.5.5,0,0,0-.4.16l-3,3.05a.91.91,0,0,1-1.06.27.88.88,0,0,1-.56-.94c0-.76,0-1.52,0-2.28V16.7c-.56,0-1.08,0-1.61,0-.16,0-.23.05-.27.21A4.36,4.36,0,0,1,13.54,19l-.11.12,0,0,.15.09a6.2,6.2,0,0,1,3.12,5.32.9.9,0,0,1-1,1H5.19a.89.89,0,0,1-1-1A6.09,6.09,0,0,1,6.4,20c.35-.31.76-.56,1.13-.83a4.9,4.9,0,0,1-1.36-2.3A.22.22,0,0,0,6,16.71c-.31,0-.62,0-.93,0a2.71,2.71,0,0,1-2.59-2.65c0-3,0-6,0-8.92a2.61,2.61,0,0,1,1-2.1A3.38,3.38,0,0,1,4.82,2.47ZM18.48,17.16l.21-.19,1.74-1.74a1.05,1.05,0,0,1,.8-.34h1.51a.91.91,0,0,0,1-1V5.34a.93.93,0,0,0-1.06-1.07H5.23a.89.89,0,0,0-1,.9q0,4.41,0,8.82a.88.88,0,0,0,.89.89c.25,0,.51,0,.76,0s.21-.06.25-.21a4.45,4.45,0,0,1,8.64,0c0,.15.09.19.24.19h2.41a.92.92,0,0,1,1,1C18.49,16.3,18.48,16.7,18.48,17.16Zm-3.67,6.61A4.43,4.43,0,0,0,10,20.25c-1.85.15-3.91,2-3.88,3.52Zm-4.3-5.35A2.65,2.65,0,1,0,7.85,15.8,2.65,2.65,0,0,0,10.51,18.42Z"/><path class="cls-2" d="M14,6H21a1.35,1.35,0,0,1,.4,0A.89.89,0,0,1,21.3,7.8a1.36,1.36,0,0,1-.29,0H7a.91.91,0,0,1-1-1.19A.87.87,0,0,1,6.91,6H14Z"/><path class="cls-2" d="M17.58,11.37c-1.18,0-2.36,0-3.54,0a.9.9,0,0,1-.86-1.22.92.92,0,0,1,.91-.58h7a.91.91,0,0,1,1,.91.89.89,0,0,1-.89.89c-.7,0-1.41,0-2.12,0Z"/></g></g></svg>