<svg xmlns="http://www.w3.org/2000/svg" viewBox="0 0 136.33 135"><defs><style>.cls-1,.cls-3{fill:none;}.cls-2,.cls-4{fill:#0091ff;}.cls-3,.cls-4{stroke:#0091ff;stroke-miterlimit:10;}.cls-3{stroke-width:1.04px;}.cls-4{stroke-width:2px;}</style></defs><g id="Layer_2" data-name="Layer 2"><g id="Layer_1-2" data-name="Layer 1"><rect class="cls-1" x="1.33" width="135" height="135"/><rect class="cls-1" x="23.14" y="7.24" width="84.19" height="84.19"/><path class="cls-2" d="M89.45,19.4C88.68,18.18,87.8,17,87,15.86L84.23,13.1c-1.18-.83-2.31-1.71-3.52-2.49a26.8,26.8,0,0,0-29.26.67c-.79.56-1.57,1.14-2.35,1.71l-2.75,2.74-.27.44a58,58,0,0,0-3.45,5.31,26.81,26.81,0,0,0,14,36.79,27.93,27.93,0,0,0,7.64,1.81c0,2.45,0,4.87,0,7.29a.74.74,0,0,1-.38.51,7.38,7.38,0,0,0-4.76,7.34c0,5.43,0,10.87-.07,16.3,0,2.26.12,4.43,1.45,6.35l1.37,1.38c.41.23.8.5,1.22.7a7.33,7.33,0,0,0,7.43-.43c.14-.09.3-.16.45-.24l1.38-1.37c1.38-2,1.51-4.18,1.5-6.49,0-5.38,0-10.77,0-16.15a7.41,7.41,0,0,0-4.7-7.38.71.71,0,0,1-.39-.51c0-2.41,0-4.83,0-7.27l.57-.07A26.79,26.79,0,0,0,89.45,19.4ZM69.36,74.68c0,.74,0,1.49,0,2.24q0,8,0,16.08a3.31,3.31,0,0,1-.9,2.47,2.8,2.8,0,0,1-2.83.67,2.76,2.76,0,0,1-2-2.28,4.52,4.52,0,0,1,0-.82q0-9,0-18a3,3,0,0,1,1.62-2.89A2.89,2.89,0,0,1,69.36,74.68Zm13-25.48a22.3,22.3,0,1,1,.12-31.54A22.25,22.25,0,0,1,82.31,49.2ZM77.72,20.66a2.28,2.28,0,0,0-2.24,2.53c0,3.09,0,6.18,0,9.27s0,6.22,0,9.34a2.25,2.25,0,1,0,4.48,0q0-9.31,0-18.61A2.3,2.3,0,0,0,77.72,20.66ZM65,27.46a2.24,2.24,0,1,0-4.48,0c0,4.83,0,9.66,0,14.49a2.19,2.19,0,0,0,1.07,2A2.24,2.24,0,0,0,65,42c0-2.39,0-4.78,0-7.17S65,29.9,65,27.46Zm5.24.68A2.27,2.27,0,0,0,68,30.6c0,3.73,0,7.47,0,11.2a2.25,2.25,0,1,0,4.48,0c0-1.86,0-3.73,0-5.6s0-3.73,0-5.6A2.29,2.29,0,0,0,70.24,28.14Zm-15,4.49A2.25,2.25,0,0,0,53,35c0,1.15,0,2.29,0,3.44s0,2.34,0,3.5a2.24,2.24,0,1,0,4.48.06q0-3.49,0-7A2.28,2.28,0,0,0,55.23,32.63Z"/><path class="cls-3" d="M89.45,19.4C88.68,18.18,87.8,17,87,15.86L84.23,13.1c-1.18-.83-2.31-1.71-3.52-2.49a26.8,26.8,0,0,0-29.26.67c-.79.56-1.57,1.14-2.35,1.71l-2.75,2.74-.27.44a58,58,0,0,0-3.45,5.31,26.81,26.81,0,0,0,14,36.79,27.93,27.93,0,0,0,7.64,1.81c0,2.45,0,4.87,0,7.29a.74.74,0,0,1-.38.51,7.38,7.38,0,0,0-4.76,7.34c0,5.43,0,10.87-.07,16.3,0,2.26.12,4.43,1.45,6.35l1.37,1.38c.41.23.8.5,1.22.7a7.33,7.33,0,0,0,7.43-.43c.14-.09.3-.16.45-.24l1.38-1.37c1.38-2,1.51-4.18,1.5-6.49,0-5.38,0-10.77,0-16.15a7.41,7.41,0,0,0-4.7-7.38.71.71,0,0,1-.39-.51c0-2.41,0-4.83,0-7.27l.57-.07A26.79,26.79,0,0,0,89.45,19.4ZM69.36,74.68c0,.74,0,1.49,0,2.24q0,8,0,16.08a3.31,3.31,0,0,1-.9,2.47,2.8,2.8,0,0,1-2.83.67,2.76,2.76,0,0,1-2-2.28,4.52,4.52,0,0,1,0-.82q0-9,0-18a3,3,0,0,1,1.62-2.89A2.89,2.89,0,0,1,69.36,74.68Zm13-25.48a22.3,22.3,0,1,1,.12-31.54A22.25,22.25,0,0,1,82.31,49.2ZM77.72,20.66a2.28,2.28,0,0,0-2.24,2.53c0,3.09,0,6.18,0,9.27s0,6.22,0,9.34a2.25,2.25,0,1,0,4.48,0q0-9.31,0-18.61A2.3,2.3,0,0,0,77.72,20.66ZM65,27.46a2.24,2.24,0,1,0-4.48,0c0,4.83,0,9.66,0,14.49a2.19,2.19,0,0,0,1.07,2A2.24,2.24,0,0,0,65,42c0-2.39,0-4.78,0-7.17S65,29.9,65,27.46Zm5.24.68A2.27,2.27,0,0,0,68,30.6c0,3.73,0,7.47,0,11.2a2.25,2.25,0,1,0,4.48,0c0-1.86,0-3.73,0-5.6s0-3.73,0-5.6A2.29,2.29,0,0,0,70.24,28.14Zm-15,4.49A2.25,2.25,0,0,0,53,35c0,1.15,0,2.29,0,3.44s0,2.34,0,3.5a2.24,2.24,0,1,0,4.48.06q0-3.49,0-7A2.28,2.28,0,0,0,55.23,32.63Z"/><path class="cls-4" d="M28.92,77.94c.75.62,1.51,1.2,2.22,1.84,4.36,3.92,5.92,9,6.15,14.68.11,2.75.43,5.49.66,8.41.53,0,1,.06,1.55.06,4.44,0,8.89,0,13.34,0,4.9,0,8.55,3.51,8.54,8.15s-3.67,8.09-8.59,8.1c-4,0-8.1,0-12.26,0v9.17H1v-1.5q0-16.39,0-32.8c0-8.23,3.65-14.12,11.14-17.6a3.42,3.42,0,0,0,.44-.32A13.91,13.91,0,0,1,8.1,64a13.4,13.4,0,0,1,5.37-9.28A13.89,13.89,0,0,1,32.81,57.1C37,62.23,37.82,71.89,28.92,77.94ZM26.53,88.81c.59,7,1.19,13.93,1.75,20.82.25,3.13,2,4.9,5.12,4.91H52.7c2.42,0,4-1.37,4-3.43s-1.58-3.53-4.07-3.53H39c-3.92,0-5.54-1.56-5.8-5.43-.25-3.57-.52-7.14-.9-10.7A13.38,13.38,0,0,0,5.67,93c-.07,10,0,19.93,0,29.9a6.58,6.58,0,0,0,.09.79h30v-4.53H33.4A9.43,9.43,0,0,1,23.63,110c-.28-4.15-.69-8.29-1-12.43-.23-2.74-.44-5.48-.67-8.34ZM31.19,66a9.29,9.29,0,1,0-9.53,9.08A9.31,9.31,0,0,0,31.19,66Z"/><path class="cls-4" d="M135.24,128.41H95.85v-9.22H94.37c-3.68,0-7.35,0-11,0a8.13,8.13,0,1,1,0-16.25c4.45,0,8.9,0,13.34,0h1.65c.32-3.64.68-7.14.91-10.65a18.08,18.08,0,0,1,7.51-13.79,6.09,6.09,0,0,0,.55-.46.22.22,0,0,0,0-.14c-8.76-5.9-8.13-15.7-3.63-21a14,14,0,0,1,19.73-1.72c5.62,4.8,7.24,14.16.27,21.06.46.22.88.4,1.29.61,6.48,3.35,10.15,8.65,10.26,16,.19,11.6.06,23.21.06,34.82C135.29,127.84,135.26,128.07,135.24,128.41Zm-4.77-4.61a1.71,1.71,0,0,0,.15-.37c0-10.4.14-20.81-.05-31.2-.13-6.85-6.16-12.4-13-12.52a13.47,13.47,0,0,0-13.61,12.1c-.3,3.56-.61,7.13-.88,10.7-.26,3.38-2,5-5.42,5.06-4.79,0-9.58,0-14.37,0a3.48,3.48,0,1,0,0,7q10,0,20,0a4.65,4.65,0,0,0,4.72-4.4c.33-3.76.61-7.52.92-11.28.28-3.31.58-6.62.88-10l4.5.38a5.58,5.58,0,0,1,.06.61c-.57,6.94-1.11,13.88-1.75,20.81a9.3,9.3,0,0,1-9.34,8.56c-.9,0-1.8,0-2.68,0v4.62Zm-6.8-58a9.28,9.28,0,1,0-9.36,9.24A9.3,9.3,0,0,0,123.67,65.81Z"/></g></g></svg>