<svg xmlns="http://www.w3.org/2000/svg" viewBox="0 0 135 135"><defs><style>.cls-1{fill:none;}.cls-2{fill:#0091ff;}</style></defs><g id="Layer_2" data-name="Layer 2"><g id="Layer_1-2" data-name="Layer 1"><rect class="cls-1" width="135" height="135"/><path class="cls-2" d="M68.78,1a4.88,4.88,0,0,1,3.13,5.35c-.12,1.64,0,3.29,0,4.93a4.15,4.15,0,1,1-8.29,0c0-1.64.09-3.29,0-4.92A4.85,4.85,0,0,1,66.7,1Z"/><path class="cls-2" d="M83.11,110.28c1.75,3.45,1.5,7.09,1,10.61a10.09,10.09,0,0,1-10.26,8.79H72.45a20.46,20.46,0,0,1-2.4,3.34,4,4,0,0,1-2.52.77c-2.06,0-3.45-1.45-4-3.8a41,41,0,0,1-5.75-1.08,9.9,9.9,0,0,1-6.63-9.19c0-3-.45-6.16,1-9a.85.85,0,0,0-.17-.77,10.77,10.77,0,0,1-2.91-8.82c.21-2.24-.71-3.44-2.55-4.68-13.41-9-19.86-21.73-17.92-37.78,2.06-17,11.88-28.25,28.23-33.29,21.29-6.56,44.49,7.25,49.28,29A39.3,39.3,0,0,1,88.08,97a3.07,3.07,0,0,0-1.68,3.06,23,23,0,0,1-.08,3.89A10.51,10.51,0,0,1,83.11,110.28Zm-15.48-5.5h6.61c3.61,0,4-.28,3.85-3.91-.21-5.05,1.89-8.57,6.17-11.25A29.85,29.85,0,0,0,98.8,65.75,31.17,31.17,0,1,0,37.87,72.3,30.29,30.29,0,0,0,51.67,90a10.76,10.76,0,0,1,5.57,8,33.73,33.73,0,0,1,.12,4.27c0,1.85.74,2.57,2.62,2.57Zm.19,16.6c2,0,4,0,6,0A2.05,2.05,0,0,0,76,119.22c0-1.33,0-2.68,0-4a2,2,0,0,0-2.15-2.11q-6.15,0-12.32,0a2,2,0,0,0-2.11,2.13c0,1.25,0,2.51,0,3.76a2.12,2.12,0,0,0,2.41,2.38C63.84,121.4,65.83,121.38,67.82,121.38Z"/><path class="cls-2" d="M12.71,67.41c-1.08,0-2.16,0-3.24,0a4.15,4.15,0,0,1-4-4.13,4.11,4.11,0,0,1,4-4.14c2.21-.06,4.41-.06,6.62,0a4.14,4.14,0,0,1,0,8.26C15,67.46,13.84,67.41,12.71,67.41Z"/><path class="cls-2" d="M122.74,59.12c1.08,0,2.16,0,3.24,0a4.16,4.16,0,0,1,4,4.1,4.11,4.11,0,0,1-4,4.16c-2.2.08-4.41.08-6.61,0a4.13,4.13,0,0,1,.06-8.26C120.57,59.08,121.66,59.12,122.74,59.12Z"/><path class="cls-2" d="M113.19,104.29a4.56,4.56,0,0,1-2.62,3.81,3.81,3.81,0,0,1-4.37-.57c-1.72-1.57-3.38-3.23-5-5a4.12,4.12,0,0,1,5.85-5.77,65.53,65.53,0,0,1,4.84,4.88A10.61,10.61,0,0,1,113.19,104.29Z"/><path class="cls-2" d="M26.82,108.7a4.51,4.51,0,0,1-3.93-2.64,3.91,3.91,0,0,1,.69-4.47q2.27-2.4,4.67-4.67a4.12,4.12,0,0,1,5.83,5.83c-1.5,1.61-3,3.2-4.69,4.65A11.07,11.07,0,0,1,26.82,108.7Z"/><path class="cls-2" d="M22.3,22.23a4.52,4.52,0,0,1,2.62-3.8,3.82,3.82,0,0,1,4.36.58C31,20.58,32.66,22.23,34.22,24a4.12,4.12,0,0,1-5.86,5.75,65.14,65.14,0,0,1-4.83-4.86A10.29,10.29,0,0,1,22.3,22.23Z"/><path class="cls-2" d="M113,22.73a10.29,10.29,0,0,1-1.29,2.39c-1.35,1.56-2.87,3-4.37,4.41a4.13,4.13,0,0,1-5.82-5.87c1.46-1.53,3-3,4.49-4.49a4,4,0,0,1,4.44-.79C112.07,19,112.88,20.35,113,22.73Z"/><path class="cls-2" d="M68.06,40.36c9.29.54,16.38,4.92,20.55,13.72C89.78,56.56,89,59,86.72,60S82.21,60,81,57.48a14.47,14.47,0,0,0-14.86-8.61,4.18,4.18,0,0,1-4.77-3.69,4.11,4.11,0,0,1,3.73-4.58C66,40.47,66.86,40.45,68.06,40.36Z"/><path class="cls-2" d="M79.89,72.45A4.08,4.08,0,0,1,84,68.35a4.13,4.13,0,1,1,0,8.25A4.07,4.07,0,0,1,79.89,72.45Z"/></g></g></svg>