<svg xmlns="http://www.w3.org/2000/svg" viewBox="0 0 40 40"><defs><style>.cls-1{fill:none;}.cls-2{fill:#fff;}</style></defs><g id="Layer_2" data-name="Layer 2"><g id="Layer_1-2" data-name="Layer 1"><rect class="cls-1" width="40" height="40"/><path class="cls-2" d="M20.6,39a5,5,0,0,1-2.51-1.63c-1.48-1.51-3-3-4.5-4.5-.09-.1-.19-.19-.33-.32-.24.25-.46.5-.69.73a3.3,3.3,0,0,1-4.81,0l-3-3a3.29,3.29,0,0,1,0-4.83c2-2,4.05-4,6-6.05A22.72,22.72,0,0,0,16.73,8.1a.86.86,0,0,0-.12-.51,3.32,3.32,0,0,1,3-4.88,3.24,3.24,0,0,1,2.24,1q6.24,6.24,12.47,12.48a3.13,3.13,0,0,1,.77,3.49A3.16,3.16,0,0,1,32.3,21.8a3.32,3.32,0,0,1-1.85-.37,1.08,1.08,0,0,0-.61-.09,22.79,22.79,0,0,0-8.3,3.53l-.18.14.41.42a3.32,3.32,0,0,1,0,4.89c-.22.22-.47.42-.76.67.88.86,1.73,1.63,2.5,2.46a3.3,3.3,0,0,1-1.17,5.3c-.25.1-.53.17-.79.25Zm-2-29.13A25.43,25.43,0,0,1,13.31,20l4.79,4.78a25.42,25.42,0,0,1,10.07-5.29Zm-2.24,16.5-4.67-4.68-.19.18L6.39,27a1.14,1.14,0,0,0,0,1.82l2.84,2.83a1.15,1.15,0,0,0,1.88,0l5-5.05C16.23,26.5,16.31,26.4,16.35,26.37Zm16.77-7.73a1.31,1.31,0,0,0-.45-1.05q-6.12-6.1-12.23-12.23a2.62,2.62,0,0,0-.25-.22A1.05,1.05,0,0,0,19.05,5a1,1,0,0,0-.61.94,1.2,1.2,0,0,0,.44,1L31.12,19.16a2.61,2.61,0,0,0,.24.23,1.07,1.07,0,0,0,1.15.1A1,1,0,0,0,33.12,18.64ZM14.87,31l5.32,5.31.13.13a1.08,1.08,0,0,0,1.05.28,1.1,1.1,0,0,0,.42-1.92l-5.2-5.2a1,1,0,0,0-.17-.14Zm4.66-1.63c1.51-1.21,1.44-1.91,0-3L18,27.86Z"/><path class="cls-2" d="M27.23,1.3a1.31,1.31,0,0,1,.82,1.44c0,.6,0,1.2,0,1.8A1.1,1.1,0,0,1,27,5.72a1.12,1.12,0,0,1-1.11-1.18c0-.61,0-1.23,0-1.84a1.28,1.28,0,0,1,.88-1.4Z"/><path class="cls-2" d="M34.75,4.66a4.41,4.41,0,0,1-.44.77c-.69.73-1.41,1.43-2.13,2.13A1.1,1.1,0,1,1,30.62,6l2.16-2.16A1.07,1.07,0,0,1,34,3.6,1.31,1.31,0,0,1,34.75,4.66Z"/><path class="cls-2" d="M34.69,12.34H33.62a1.1,1.1,0,1,1,0-2.2h2.17a1.1,1.1,0,1,1,0,2.2Z"/><path class="cls-2" d="M12.82,26.49a1.14,1.14,0,0,0-.64-1.17,1,1,0,0,0-1.22.21c-.53.5-1,1-1.54,1.53A1.1,1.1,0,1,0,11,28.62c.5-.49,1-1,1.48-1.49A2.71,2.71,0,0,0,12.82,26.49Z"/><path class="cls-2" d="M12.82,26.49a2.71,2.71,0,0,1-.36.64c-.47.52-1,1-1.48,1.49a1.1,1.1,0,1,1-1.56-1.56c.51-.51,1-1,1.54-1.53a1,1,0,0,1,1.22-.21A1.14,1.14,0,0,1,12.82,26.49Z"/></g></g></svg>