<svg xmlns="http://www.w3.org/2000/svg" viewBox="0 0 40 40"><defs><style>.cls-1{fill:none;}.cls-2{fill:#fff;}</style></defs><g id="Layer_2" data-name="Layer 2"><g id="Layer_1-2" data-name="Layer 1"><rect class="cls-1" width="40" height="40"/><path class="cls-2" d="M38.76,6.93V20.44a6.93,6.93,0,0,1-.34,1,3.32,3.32,0,0,1-3.17,1.92c-1.6,0-3.21,0-4.82,0H30c.05.15.08.27.12.38q1.44,3.91,2.87,7.83c.37,1,.74,2,1.08,2.94a1.05,1.05,0,0,1-.56,1.37,1,1,0,0,1-1.4-.55A3,3,0,0,1,32,35c-1.38-3.76-2.76-7.51-4.13-11.28-.11-.31-.28-.33-.55-.34s-.38.11-.47.35c-1.35,3.75-2.72,7.51-4.08,11.26a4,4,0,0,1-.24.51,1,1,0,0,1-1,.51.93.93,0,0,1-.91-.72,1.79,1.79,0,0,1,.08-1c1.25-3.5,2.53-7,3.8-10.48.05-.14.09-.28.15-.45-1.25,0-2.45,0-3.65,0a.48.48,0,0,0-.32.21,2.86,2.86,0,0,1-3.56,1.07c-1.1-.48-2.15-1.05-3.23-1.58-.11-.06-.23-.1-.39-.17v11.8A1.12,1.12,0,0,1,12.23,36H5.77a1.13,1.13,0,0,1-1.29-1.3c0-1.8,0-3.59,0-5.39a.47.47,0,0,0-.34-.53,2.65,2.65,0,0,1-1.34-1.13,13.14,13.14,0,0,1-.62-1.5V21.79a2.61,2.61,0,0,0,.06-.27,6.3,6.3,0,0,1,1.64-3.68,21.8,21.8,0,0,1,1.67-1.52,5.1,5.1,0,0,1,6.72-7.67,5.14,5.14,0,0,1,.42,7.41L16,17.68v-.44c0-3.24,0-6.48,0-9.72A3.34,3.34,0,0,1,19.36,4C24.7,4,30,4,35.36,4A3.3,3.3,0,0,1,38,5.29,4.25,4.25,0,0,1,38.76,6.93ZM21.08,21.21H35.26a1.23,1.23,0,0,0,1.36-1.38V7.58a1.26,1.26,0,0,0-1.45-1.43H19.56c-1,0-1.45.45-1.45,1.47v7c0,1.29,0,2.57,0,3.86,0,.12,0,.3.09.34.43.25.88.45,1.34.68l1.64-3.29c.22-.44.43-.88.67-1.3A1,1,0,0,1,23,14.36a.92.92,0,0,1,.83.77,1.63,1.63,0,0,1-.14.92c-.78,1.61-1.6,3.21-2.4,4.82ZM11.37,33.84V21.52a4.84,4.84,0,0,1,0-.53,1,1,0,0,1,1-.9,1.68,1.68,0,0,1,.74.2c1.56.76,3.1,1.55,4.66,2.3a1.32,1.32,0,0,0,.78.1.69.69,0,0,0,0-1.32c-1.94-1-3.89-1.89-5.8-2.91a7.34,7.34,0,0,0-3.92-.83,4.67,4.67,0,0,0-4.5,4.59c0,1.16,0,2.31,0,3.47A1.2,1.2,0,0,0,5.48,27a1.1,1.1,0,0,1,1.14,1.26c0,1.75,0,3.5,0,5.25,0,.13,0,.25,0,.38Zm.56-21.15a2.93,2.93,0,1,0-3,2.78A2.91,2.91,0,0,0,11.93,12.69Z"/><path class="cls-2" d="M27.37,10.73H21.66a1.05,1.05,0,0,1-1-1.44,1,1,0,0,1,.71-.64,2.07,2.07,0,0,1,.5-.06H33.19a1.07,1.07,0,0,1,1,1.12,1.06,1.06,0,0,1-1.09,1H27.37Z"/><path class="cls-2" d="M30.23,12.62c.93,0,1.87,0,2.81,0A1.06,1.06,0,0,1,34.12,14a1,1,0,0,1-.82.72h0c-2,0-4,0-6.06,0a1,1,0,0,1-.89-.88,1,1,0,0,1,1.12-1.23C28.37,12.6,29.3,12.61,30.23,12.62Z"/><path class="cls-2" d="M30.22,16.64H33a1.07,1.07,0,0,1,1.2,1.07A1.09,1.09,0,0,1,33,18.78H27.46a1.06,1.06,0,0,1-1.14-.91A1,1,0,0,1,27,16.7a1.65,1.65,0,0,1,.49-.06Z"/></g></g></svg>