<?xml version="1.0" encoding="UTF-8"?><svg id="Layer_2" xmlns="http://www.w3.org/2000/svg" viewBox="0 0 40 40"><defs><style>.cls-1{fill:#0091ff;}.cls-2{fill:none;}</style></defs><g id="Layer_1-2"><g><rect class="cls-2" width="40" height="40"/><path class="cls-1" d="M23.75,21.69c-1,0-1.87,.62-2.37,1.5H6.64c-2.5,0-4.49-2.12-4.49-4.62s2-4.62,4.49-4.62h2.12c0-.5,.25-1,.37-1.5,.12-.12,.12-.37,.25-.5,1-1.87,3-3.12,5.24-3.12,2,0,3.75,1,4.87,2.5,.62-.25,1.25-.5,2-.62-1.37-2.37-3.87-3.87-6.87-3.87-3.37,0-6.24,2.12-7.49,5.12h-.5C3.02,11.95,.03,14.94,.03,18.69s3,6.62,6.62,6.62h14.86c.37,.87,1.25,1.5,2.37,1.5,1.37,0,2.5-1.12,2.5-2.62s-1.12-2.5-2.62-2.5Zm8.24-5.12c-1.5-3-4.62-5.12-8.11-5.12-4.37,0-7.99,3.12-8.86,7.24-2.12,.25-3.99,1.37-5.12,3h10.86c.75-1,1.87-1.5,3.12-1.5,2.25,0,3.99,1.87,3.99,4.12s-1.87,4.12-3.99,4.12c-1.25,0-2.37-.62-3.12-1.5H8.64c.5,3.5,3.5,6.24,6.99,6.24H31.86c4.49,0,8.11-3.62,8.11-8.24s-3.62-8.24-7.99-8.36Z"/></g></g></svg>