<?xml version="1.0" encoding="UTF-8"?><svg id="Layer_2" xmlns="http://www.w3.org/2000/svg" viewBox="0 0 40 40"><defs><style>.cls-1{fill:#0091ff;}.cls-2{fill:none;}</style></defs><g id="Layer_1-2"><g><rect class="cls-2" width="40" height="40"/><g><path class="cls-1" d="M11.49,.56c-2.46,0-4.46,1.99-4.46,4.46V13.32c.73-.49,1.59-.68,2.43-.59V5.01c0-1.12,.91-2.03,2.03-2.03H28.51c1.12,0,2.03,.91,2.03,2.03v7.72c.84-.09,1.7,.1,2.43,.59V5.01c0-2.46-1.99-4.46-4.46-4.46H11.49Z"/><path class="cls-1" d="M37.82,21.22c0-.67-.54-1.22-1.22-1.22h-7.6l2.79-2.79c.06-.06,.11-.12,.16-.19,.31-.47,.26-1.11-.16-1.53-.34-.34-.84-.44-1.26-.29-.17,.06-.32,.15-.45,.29l-4.86,4.86c-.47,.47-.47,1.24,0,1.72l4.86,4.86c.43,.43,1.1,.47,1.58,.12,.05-.04,.1-.08,.14-.12,.47-.47,.47-1.24,0-1.72l-2.79-2.79h7.6c.67,0,1.22-.54,1.22-1.22Z"/><path class="cls-1" d="M32.96,29.11c-.73,.49-1.59,.68-2.43,.59v5.29c0,1.12-.91,2.03-2.03,2.03H11.49c-1.12,0-2.03-.91-2.03-2.03v-5.29c-.84,.09-1.7-.1-2.43-.59v5.88c0,2.46,1.99,4.46,4.46,4.46H28.51c2.46,0,4.46-2,4.46-4.46v-5.88Z"/><path class="cls-1" d="M9.47,15.21c-.43-.15-.92-.06-1.26,.29-.47,.47-.47,1.24,0,1.72l2.79,2.79H3.39c-.67,0-1.22,.54-1.22,1.22s.54,1.22,1.22,1.22h7.6l-2.79,2.79c-.47,.47-.47,1.24,0,1.72,.04,.04,.09,.08,.14,.12,.48,.35,1.15,.31,1.58-.12l4.86-4.86c.47-.47,.47-1.24,0-1.72l-4.86-4.86c-.13-.13-.29-.23-.45-.29Z"/></g></g></g></svg>