<?xml version="1.0" encoding="UTF-8"?><svg id="Layer_2" xmlns="http://www.w3.org/2000/svg" viewBox="0 0 40 40"><defs><style>.cls-1{fill:#0091ff;}.cls-2{fill:none;}</style></defs><g id="Layer_1-2"><g><rect class="cls-2" width="40" height="40"/><g><path class="cls-1" d="M28.09,35.47h.18c-1.88-.23-2.88-.99-3.41-1.74H15.14c-.53,.76-1.53,1.51-3.41,1.74h.12c-.59,0-1.06,.48-1.06,1.06s.48,1.06,1.06,1.06H28.09c.59,0,1.06-.48,1.06-1.06s-.47-1.06-1.06-1.06Z"/><path class="cls-1" d="M27.78,14.37l-1.54-.27c-.15-.59-.38-1.15-.68-1.67l.91-1.27c.16-.23,.14-.56-.06-.76l-.54-.55-.54-.55c-.2-.2-.52-.23-.76-.06l-1.28,.9c-.52-.31-1.1-.56-1.71-.7l-.25-1.53c-.05-.29-.29-.49-.59-.5h-1.55c-.29,0-.54,.2-.59,.49l-.27,1.55c-.59,.15-1.15,.39-1.66,.69l-1.25-.92c-.23-.16-.56-.14-.76,.06l-.55,.54-.55,.54c-.2,.2-.23,.52-.06,.76l.91,1.28c-.31,.52-.53,1.07-.68,1.66l-1.53,.25c-.29,.05-.49,.29-.5,.59v1.55c0,.29,.2,.54,.49,.59l1.55,.27c.15,.59,.39,1.15,.69,1.66l-.91,1.26c-.16,.23-.14,.56,.06,.76l.54,.55,.54,.55c.2,.2,.52,.23,.76,.06l1.28-.91c.5,.3,1.05,.52,1.62,.67l.25,1.54c.05,.29,.29,.49,.59,.5h1.55c.29,0,.54-.2,.59-.49l.27-1.54c.59-.15,1.15-.38,1.67-.68l1.27,.91c.23,.16,.56,.14,.76-.06l.55-.54,.55-.54c.2-.2,.23-.52,.06-.76l-.88-1.28c.31-.52,.54-1.07,.7-1.66l1.54-.25c.29-.05,.49-.29,.5-.59v-1.55c-.02-.27-.22-.52-.5-.57Zm-6.89,5.22c-2.15,.49-4.3-.85-4.79-3s.85-4.3,3-4.79,4.3,.85,4.79,3c.49,2.14-.85,4.29-3,4.79Z"/><path class="cls-1" d="M39,25.08V5.18c0-1.53-1.24-2.76-2.76-2.76H3.76c-1.53,0-2.76,1.24-2.76,2.76V29.64H1c.05,1.3,1.12,2.34,2.43,2.34H36.56c1.31,0,2.38-1.04,2.43-2.34h0v-4.56h0Zm-16.8,4.25c0,.34-.27,.61-.61,.61h-3.2c-.34,0-.61-.27-.61-.61v-.42c0-.34,.27-.61,.61-.61h3.2c.34,0,.61,.27,.61,.61v.42Zm14.04-3.28H3.76c-.27,0-.49-.22-.49-.49V5.18c0-.27,.22-.49,.49-.49H36.23c.27,0,.49,.22,.49,.49V25.56h0c0,.27-.21,.49-.48,.49Z"/></g></g></g></svg>