<svg xmlns="http://www.w3.org/2000/svg" viewBox="0 0 32 32"><defs><style>.cls-1{fill:none;}.cls-2{fill:#b3b3b3;}.cls-3{fill:#0091ff;}</style></defs><g id="Layer_2" data-name="Layer 2"><g id="Layer_1-2" data-name="Layer 1"><rect class="cls-1" width="32" height="32"/><path class="cls-2" d="M31,24.64a7.14,7.14,0,0,1-.55.55c-.45.35-.93.67-1.39,1a.73.73,0,0,0-.29.95l.61,1.77a.72.72,0,0,1-.21.9.78.78,0,0,1-1,0l-1.55-1.12a.75.75,0,0,0-1,0l-1.53,1.1a.76.76,0,0,1-1,0,.72.72,0,0,1-.21-.92l.6-1.73a.75.75,0,0,0-.31-1l-1.53-1.1a.75.75,0,0,1-.34-.91.73.73,0,0,1,.81-.53H24c.56,0,.71-.12.88-.66s.35-1.08.53-1.62.37-.63.74-.63.59.2.73.64.36,1.1.53,1.65.31.61.83.62,1.16,0,1.74,0a1,1,0,0,1,1,.55Z"/><path class="cls-2" d="M12.24,12.22a6.46,6.46,0,1,1,8.24,0l.69.28a12.1,12.1,0,0,1,5.22,4.3,1.15,1.15,0,1,1-1.88,1.3,9.53,9.53,0,0,0-6.78-4.2,9.69,9.69,0,0,0-9.57,4.16,1.28,1.28,0,0,1-1,.64,1.1,1.1,0,0,1-1-.6,1.09,1.09,0,0,1,.07-1.21,12.21,12.21,0,0,1,6.06-4.69Zm4.13-9.15a4.17,4.17,0,1,0,4.17,4.18A4.16,4.16,0,0,0,16.37,3.07Z"/><path class="cls-3" d="M13.3,19.63c.37,0,.73,0,1.09,0a.67.67,0,0,0,.68-.53c.18-.59.38-1.18.57-1.76.14-.42.37-.61.73-.61a.74.74,0,0,1,.73.6c.19.58.37,1.16.56,1.74a.67.67,0,0,0,.77.57h1.91c.48,0,.72.16.84.53a.78.78,0,0,1-.36.93l-1.49,1.07a.76.76,0,0,0-.32,1l.6,1.72a.73.73,0,0,1-.22.9.77.77,0,0,1-.95,0l-1.55-1.12a.75.75,0,0,0-1,0l-1.53,1.1a.76.76,0,0,1-1,0,.72.72,0,0,1-.21-.92c.19-.55.37-1.1.56-1.64a.81.81,0,0,0-.36-1.15c-.49-.35-1-.69-1.46-1.05a.75.75,0,0,1-.33-.89.73.73,0,0,1,.78-.53h1Z"/><path class="cls-2" d="M3.52,23.63c.37,0,.74,0,1.11,0a.65.65,0,0,0,.66-.52c.18-.59.38-1.17.57-1.76.14-.43.38-.63.75-.62s.58.2.72.62.36,1.14.55,1.71.3.57.79.58h1.89c.48,0,.72.15.85.52a.79.79,0,0,1-.38.95L9.57,26.16a.78.78,0,0,0-.33,1.06c.2.56.4,1.13.59,1.69a.73.73,0,0,1-.22.92.77.77,0,0,1-1,0l-1.52-1.1a.77.77,0,0,0-1.07,0c-.52.38-1,.76-1.57,1.13a.73.73,0,0,1-1.09-.2,1,1,0,0,1,0-.65c.17-.59.4-1.17.6-1.75a.78.78,0,0,0-.33-1.06c-.5-.37-1-.72-1.5-1.09a.75.75,0,0,1-.34-.91.73.73,0,0,1,.8-.52h.94Z"/></g></g></svg>