<svg xmlns="http://www.w3.org/2000/svg" viewBox="0 0 28.75 28.75"><defs><style>.cls-1{fill:none;}.cls-2{fill:#0091ff;}</style></defs><g id="Layer_2" data-name="Layer 2"><g id="Layer_1-2" data-name="Layer 1"><rect class="cls-1" width="28.75" height="28.75"/><path class="cls-2" d="M13.4,22.46a1,1,0,1,0,2,0,1,1,0,0,0-2,0Zm1-15.19c.32,0,.64,0,1,0a1,1,0,0,0,.05-1.95c-.68,0-1.35,0-2,0a1,1,0,0,0,0,1.95C13.73,7.28,14.06,7.27,14.38,7.27Zm6.71-1.43c0,.45,0,.91,0,1.37a1,1,0,1,0,1.95,0c0-.47,0-.93,0-1.4a3.92,3.92,0,0,0-4-4q-4.71,0-9.41,0a4.25,4.25,0,0,0-1.32.22A3.87,3.87,0,0,0,5.7,5.85V21.6c0,.51,0,1,0,1.52a3.81,3.81,0,0,0,2.2,3.4,10.46,10.46,0,0,0,1.27.41H19.57l.14-.05A3.84,3.84,0,0,0,23,23.53,23,23,0,0,0,23,21a.78.78,0,0,0-.09-.33,1,1,0,0,0-1.06-.52,1,1,0,0,0-.79.93c0,.62,0,1.23,0,1.84a2,2,0,0,1-2,2H9.68a2,2,0,0,1-2-2V5.82a2,2,0,0,1,2-2h9.36A2,2,0,0,1,21.09,5.84ZM18.75,14Q17,11.41,15.34,8.85l-.09-.12V13l.09.05a1.36,1.36,0,1,1-1.14,0,.2.2,0,0,0,.14-.21c0-1.33,0-2.66,0-4V8.72a1.5,1.5,0,0,0-.11.17l-1.94,2.89L10.81,14a.48.48,0,0,0,0,.67l.13.14a5.37,5.37,0,0,1,1.1,1.78c.13.35.22.72.34,1.08l.07,0a2.83,2.83,0,0,1,1-.16h2.55a8,8,0,0,1,.82.11l.26.08c0-.05,0-.08,0-.12a12.5,12.5,0,0,1,1.51-2.89A.47.47,0,0,0,18.75,14Zm-.89,5.66a1.84,1.84,0,0,0-1.71-1.24H13.42a1.84,1.84,0,0,0-1.71,1.24.43.43,0,0,0,.21.55l.11,0h5.52C17.86,20.06,18,19.87,17.86,19.62Z"/></g></g></svg>