<svg xmlns="http://www.w3.org/2000/svg" viewBox="0 0 28 28"><defs><style>.cls-1{fill:none;}.cls-2{fill:#0091ff;stroke:#0091ff;stroke-miterlimit:10;stroke-width:0.4px;}</style></defs><g id="Layer_2" data-name="Layer 2"><g id="Layer_1-2" data-name="Layer 1"><rect class="cls-1" width="28" height="28"/><path class="cls-2" d="M1.85,5a1.32,1.32,0,0,1,.94-1,2.25,2.25,0,0,1,.44,0h20a1.26,1.26,0,0,1,1.37,1.37c0,2.73,0,5.46,0,8.19,0,.1,0,.23,0,.29a.77.77,0,0,1-.39.24c-.17,0-.3-.11-.34-.29a1.67,1.67,0,0,1,0-.32v-8c0-.56-.12-.69-.68-.69H3.31c-.54,0-.67.13-.67.68V16.7h8.65a1.77,1.77,0,0,1,.32,0,.36.36,0,0,1,.32.4.35.35,0,0,1-.34.36,1.37,1.37,0,0,1-.29,0H2.66c0,.47,0,.92,0,1.37a.38.38,0,0,0,.36.35,1.63,1.63,0,0,0,.31,0h8c.41,0,.59.12.59.39s-.19.4-.59.4h-.29l-.32,2.59h.71c.31,0,.49.15.49.4s-.17.39-.49.39H9.52c-.3,0-.47-.15-.48-.39s.18-.39.47-.4h.42L10.25,20H9.94c-2.14,0-4.28,0-6.42,0a1.49,1.49,0,0,1-1.67-1Z"/><path class="cls-2" d="M21.23,17.53c0,1.49,0,3,0,4.46a1.32,1.32,0,0,1-1.43,1.44c-1.85,0-3.7,0-5.55,0A1.27,1.27,0,0,1,12.84,22q0-4.49,0-9a1.33,1.33,0,0,1,1.42-1.43c1.86,0,3.72,0,5.58,0a1.25,1.25,0,0,1,1.4,1.4C21.24,14.53,21.23,16,21.23,17.53Zm-7.58-3.41v6.8h6.78v-6.8Zm6.77-.81c.08-.66,0-.91-.74-.9-1.56,0-3.13,0-4.69,0H14.1a.42.42,0,0,0-.45.4,4,4,0,0,0,0,.49Zm-6.77,8.44c-.08.66,0,.9.76.89,1.79,0,3.58,0,5.38,0a1,1,0,0,0,.24,0,.41.41,0,0,0,.4-.4,3.65,3.65,0,0,0,0-.47Z"/><path class="cls-2" d="M27.16,19.22v2.83a1.26,1.26,0,0,1-1.36,1.37H23.47a1.22,1.22,0,0,1-1.33-1.27c0-2,0-3.92,0-5.87A1.23,1.23,0,0,1,23.46,15h2.37a1.26,1.26,0,0,1,1.33,1.34Zm-.8-1.71H23v3.41h3.41Zm-3.42,4.23c0,.17,0,.32,0,.47a.42.42,0,0,0,.43.41h2.54a.43.43,0,0,0,.45-.43c0-.14,0-.29,0-.45Zm3.42-5c0-.14,0-.26,0-.38a.46.46,0,0,0-.48-.51c-.83,0-1.65,0-2.47,0a.43.43,0,0,0-.45.33,4.86,4.86,0,0,0,0,.56Z"/></g></g></svg>