<svg xmlns="http://www.w3.org/2000/svg" viewBox="0 0 140 140"><defs><style>.cls-1,.cls-3{fill:none;}.cls-2{fill:#0091ff;}.cls-3{stroke:#0091ff;stroke-miterlimit:10;stroke-width:2.59px;}</style></defs><g id="Layer_2" data-name="Layer 2"><g id="Layer_1-2" data-name="Layer 1"><rect class="cls-1" width="140" height="140"/><path class="cls-2" d="M131.92,56.71q-5.71-.57-11.41-1.29a1.76,1.76,0,0,1-1.15-.88q-1.69-3.84-3.21-7.75a1.69,1.69,0,0,1,.22-1.43c2.45-3.17,5-6.29,7.46-9.43,1.55-2,1.5-3.11-.23-4.85q-7.26-7.27-14.53-14.54c-1.73-1.72-2.9-1.77-4.84-.22-3.06,2.44-6.13,4.88-9.17,7.36a1.56,1.56,0,0,1-1.93.28c-2.38-1.09-4.81-2.07-7.25-3a1.49,1.49,0,0,1-1.17-1.42C84.35,15.74,83.88,12,83.5,8.2,83.33,6.52,83,5,81.18,4.38H57.91C56.13,5,55.77,6.53,55.6,8.2c-.38,3.78-.85,7.54-1.22,11.32a1.42,1.42,0,0,1-1.06,1.37q-3.78,1.48-7.5,3.12a1.32,1.32,0,0,1-1.6-.2Q39.56,20,34.84,16.29c-1.94-1.55-3.09-1.49-4.84.26Q22.73,23.81,15.48,31.1c-1.69,1.7-1.75,2.89-.27,4.75,2.49,3.14,5,6.28,7.51,9.39A1.42,1.42,0,0,1,23,47c-1.1,2.48-2.11,5-3.11,7.51a1.32,1.32,0,0,1-1.26,1c-3.73.37-7.44.85-11.17,1.22-3.33.33-4,1-4,4.34V80.59c0,2.92.76,3.74,3.65,4.06,3.85.41,7.7.87,11.55,1.25a1.33,1.33,0,0,1,1.25,1c1,2.51,2,5,3.12,7.5a1.43,1.43,0,0,1-.24,1.72c-2.5,3.08-5,6.18-7.43,9.29-1.55,2-1.5,3.12.21,4.85q7.26,7.29,14.53,14.56c1.74,1.73,2.9,1.78,4.84.22,3.07-2.44,6.15-4.87,9.17-7.37a1.68,1.68,0,0,1,2-.22c2.35,1.06,4.74,2,7.14,3a1.48,1.48,0,0,1,1.17,1.42c.36,3.77.84,7.54,1.22,11.31.17,1.68.52,3.17,2.31,3.82H81.18c1.79-.65,2.15-2.14,2.32-3.81q.57-5.73,1.29-11.44a1.72,1.72,0,0,1,.88-1.14q3.83-1.71,7.73-3.23a1.79,1.79,0,0,1,1.44.22c3.16,2.46,6.27,5,9.4,7.49,2,1.55,3.11,1.49,4.84-.24q7.26-7.27,14.51-14.56c1.72-1.73,1.77-2.91.22-4.85-2.44-3.07-4.87-6.14-7.35-9.19a1.57,1.57,0,0,1-.27-1.93c1.09-2.38,2.06-4.82,3-7.27a1.5,1.5,0,0,1,1.42-1.16c3.77-.36,7.52-.84,11.29-1.22,1.66-.17,3.16-.52,3.81-2.32V59C135.09,57.23,133.59,56.88,131.92,56.71Zm-1.75,22.54-6.62.76c-2,.23-4,.47-6,.68a3.16,3.16,0,0,0-2.79,2.3q-2.16,5.54-4.53,11a3.35,3.35,0,0,0,.45,3.83c2.61,3.21,5.17,6.46,7.66,9.58-4,4.06-8.06,8.06-12.16,12.16-2.65-2.11-5.5-4.4-8.35-6.68l-1.52-1.21a2.79,2.79,0,0,0-3.26-.3,53.53,53.53,0,0,1-11.42,4.73,2.73,2.73,0,0,0-2,2.56l-1.23,10.93c-.07.6-.16,1.19-.24,1.86H61c-.43-3.87-.89-7.63-1.27-11.41-.3-3-.66-3.33-3.47-4.37-3.25-1.21-6.46-2.58-9.6-4.06a3.56,3.56,0,0,0-4.27.39c-3.16,2.6-6.38,5.12-9.5,7.62-4-4.07-8-8.1-12.09-12.21,2.38-3,4.85-6.19,7.44-9.3,1.27-1.51,1.26-2.86.43-4.6-1.48-3.11-2.81-6.29-4-9.51-1-2.73-1.33-3.12-4.27-3.41-3.43-.34-6.85-.73-10.28-1.11-.37,0-.75-.14-1.18-.23V62.14l9-1,3.84-.45a2.73,2.73,0,0,0,2.52-2.09A52.24,52.24,0,0,1,29,47.25a3,3,0,0,0-.46-3.58c-2.62-3.26-5.22-6.54-7.75-9.71L32.89,21.8c3,2.42,6.2,4.86,9.26,7.44,1.59,1.34,3,1.32,4.82.43,3.08-1.5,6.28-2.79,9.5-4,2.53-.94,3-1.33,3.24-4,.38-3.64.8-7.29,1.21-10.93a7.74,7.74,0,0,1,.17-.8h17c.34,3,.67,5.95,1,8.91.15,1.37.3,2.74.48,4.11a2.6,2.6,0,0,0,2,2.33,54.88,54.88,0,0,1,11.54,4.78,2.9,2.9,0,0,0,3.45-.55c2.95-2.38,5.92-4.74,8.89-7.11.3-.24.61-.47.85-.65,4,4,8,8,12.12,12.12l-2.88,3.62c-1.61,2-3.2,4.07-4.85,6.06a3.43,3.43,0,0,0-.39,4.05c1.5,3.28,2.92,6.61,4.19,10,.93,2.47,1.31,2.94,3.88,3.2L128.75,62c.47,0,.93.15,1.42.23ZM93.55,40.46a36.46,36.46,0,0,0-21.18-8.31A38.66,38.66,0,0,0,31.07,67.8,37.89,37.89,0,0,0,35.4,88.67c1.42,2.73,3.26,3,5.47.84Q49,81.36,57.14,73.21c.33-.33.68-.64,1.1-1L64,79.87c1.76,2.36,3.31,2.47,5.41.37L85,64.68c.3-.31.63-.6,1.17-1.11v9.82h5.37c0-.42.08-.75.08-1.09,0-4.92,0-9.84,0-14.76,0-2.45-1-3.42-3.49-3.42H72.43v5.6h9.19L66.88,74.48,61.4,67.17c-1.89-2.52-3.4-2.64-5.59-.44L40.09,82.48c-.32.31-.66.6-1,.93a33,33,0,0,1,59.69-28c7.92,15.51,2,32.22-7.21,39.61v-16H86.09v1.49c0,5.91,0,11.83,0,17.74,0,.39-.06,1-.29,1.14-1.64.87-3.32,1.64-5.26,2.58V84.59H75v18.8l-5.5.49v-11H64v10.54c-1.63-.42-3.07-.82-4.53-1.15-.77-.18-1-.57-1-1.36,0-4.05,0-8.11,0-12.17,0-.46,0-.91-.06-1.38H53V99.44L48.5,96.38l-3.43,4.19a37.92,37.92,0,0,0,21.62,8.67,37.45,37.45,0,0,0,27.16-8.57A37.14,37.14,0,0,0,108,73.6C108.9,60.17,104,49,93.55,40.46Z"/><path class="cls-3" d="M131.92,56.71q-5.71-.57-11.41-1.29a1.76,1.76,0,0,1-1.15-.88q-1.69-3.84-3.21-7.75a1.69,1.69,0,0,1,.22-1.43c2.45-3.17,5-6.29,7.46-9.43,1.55-2,1.5-3.11-.23-4.85q-7.26-7.27-14.53-14.54c-1.73-1.72-2.9-1.77-4.84-.22-3.06,2.44-6.13,4.88-9.17,7.36a1.56,1.56,0,0,1-1.93.28c-2.38-1.09-4.81-2.07-7.25-3a1.49,1.49,0,0,1-1.17-1.42C84.35,15.74,83.88,12,83.5,8.2,83.33,6.52,83,5,81.18,4.38H57.91C56.13,5,55.77,6.53,55.6,8.2c-.38,3.78-.85,7.54-1.22,11.32a1.42,1.42,0,0,1-1.06,1.37q-3.78,1.48-7.5,3.12a1.32,1.32,0,0,1-1.6-.2Q39.56,20,34.84,16.29c-1.94-1.55-3.09-1.49-4.84.26Q22.73,23.81,15.48,31.1c-1.69,1.7-1.75,2.89-.27,4.75,2.49,3.14,5,6.28,7.51,9.39A1.42,1.42,0,0,1,23,47c-1.1,2.48-2.11,5-3.11,7.51a1.32,1.32,0,0,1-1.26,1c-3.73.37-7.44.85-11.17,1.22-3.33.33-4,1-4,4.34V80.59c0,2.92.76,3.74,3.65,4.06,3.85.41,7.7.87,11.55,1.25a1.33,1.33,0,0,1,1.25,1c1,2.51,2,5,3.12,7.5a1.43,1.43,0,0,1-.24,1.72c-2.5,3.08-5,6.18-7.43,9.29-1.55,2-1.5,3.12.21,4.85q7.26,7.29,14.53,14.56c1.74,1.73,2.9,1.78,4.84.22,3.07-2.44,6.15-4.87,9.17-7.37a1.68,1.68,0,0,1,2-.22c2.35,1.06,4.74,2,7.14,3a1.48,1.48,0,0,1,1.17,1.42c.36,3.77.84,7.54,1.22,11.31.17,1.68.52,3.17,2.31,3.82H81.18c1.79-.65,2.15-2.14,2.32-3.81q.57-5.73,1.29-11.44a1.72,1.72,0,0,1,.88-1.14q3.83-1.71,7.73-3.23a1.79,1.79,0,0,1,1.44.22c3.16,2.46,6.27,5,9.4,7.49,2,1.55,3.11,1.49,4.84-.24q7.26-7.27,14.51-14.56c1.72-1.73,1.77-2.91.22-4.85-2.44-3.07-4.87-6.14-7.35-9.19a1.57,1.57,0,0,1-.27-1.93c1.09-2.38,2.06-4.82,3-7.27a1.5,1.5,0,0,1,1.42-1.16c3.77-.36,7.52-.84,11.29-1.22,1.66-.17,3.16-.52,3.81-2.32V59C135.09,57.23,133.59,56.88,131.92,56.71Zm-1.75,22.54-6.62.76c-2,.23-4,.47-6,.68a3.16,3.16,0,0,0-2.79,2.3q-2.16,5.54-4.53,11a3.35,3.35,0,0,0,.45,3.83c2.61,3.21,5.17,6.46,7.66,9.58-4,4.06-8.06,8.06-12.16,12.16-2.65-2.11-5.5-4.4-8.35-6.68l-1.52-1.21a2.79,2.79,0,0,0-3.26-.3,53.53,53.53,0,0,1-11.42,4.73,2.73,2.73,0,0,0-2,2.56l-1.23,10.93c-.07.6-.16,1.19-.24,1.86H61c-.43-3.87-.89-7.63-1.27-11.41-.3-3-.66-3.33-3.47-4.37-3.25-1.21-6.46-2.58-9.6-4.06a3.56,3.56,0,0,0-4.27.39c-3.16,2.6-6.38,5.12-9.5,7.62-4-4.07-8-8.1-12.09-12.21,2.38-3,4.85-6.19,7.44-9.3,1.27-1.51,1.26-2.86.43-4.6-1.48-3.11-2.81-6.29-4-9.51-1-2.73-1.33-3.12-4.27-3.41-3.43-.34-6.85-.73-10.28-1.11-.37,0-.75-.14-1.18-.23V62.14l9-1,3.84-.45a2.73,2.73,0,0,0,2.52-2.09A52.24,52.24,0,0,1,29,47.25a3,3,0,0,0-.46-3.58c-2.62-3.26-5.22-6.54-7.75-9.71L32.89,21.8c3,2.42,6.2,4.86,9.26,7.44,1.59,1.34,3,1.32,4.82.43,3.08-1.5,6.28-2.79,9.5-4,2.53-.94,3-1.33,3.24-4,.38-3.64.8-7.29,1.21-10.93a7.74,7.74,0,0,1,.17-.8h17c.34,3,.67,5.95,1,8.91.15,1.37.3,2.74.48,4.11a2.6,2.6,0,0,0,2,2.33,54.88,54.88,0,0,1,11.54,4.78,2.9,2.9,0,0,0,3.45-.55c2.95-2.38,5.92-4.74,8.89-7.11.3-.24.61-.47.85-.65,4,4,8,8,12.12,12.12l-2.88,3.62c-1.61,2-3.2,4.07-4.85,6.06a3.43,3.43,0,0,0-.39,4.05c1.5,3.28,2.92,6.61,4.19,10,.93,2.47,1.31,2.94,3.88,3.2L128.75,62c.47,0,.93.15,1.42.23ZM93.55,40.46a36.46,36.46,0,0,0-21.18-8.31A38.66,38.66,0,0,0,31.07,67.8,37.89,37.89,0,0,0,35.4,88.67c1.42,2.73,3.26,3,5.47.84Q49,81.36,57.14,73.21c.33-.33.68-.64,1.1-1L64,79.87c1.76,2.36,3.31,2.47,5.41.37L85,64.68c.3-.31.63-.6,1.17-1.11v9.82h5.37c0-.42.08-.75.08-1.09,0-4.92,0-9.84,0-14.76,0-2.45-1-3.42-3.49-3.42H72.43v5.6h9.19L66.88,74.48,61.4,67.17c-1.89-2.52-3.4-2.64-5.59-.44L40.09,82.48c-.32.31-.66.6-1,.93a33,33,0,0,1,59.69-28c7.92,15.51,2,32.22-7.21,39.61v-16H86.09v1.49c0,5.91,0,11.83,0,17.74,0,.39-.06,1-.29,1.14-1.64.87-3.32,1.64-5.26,2.58V84.59H75v18.8l-5.5.49v-11H64v10.54c-1.63-.42-3.07-.82-4.53-1.15-.77-.18-1-.57-1-1.36,0-4.05,0-8.11,0-12.17,0-.46,0-.91-.06-1.38H53V99.44L48.5,96.38l-3.43,4.19a37.92,37.92,0,0,0,21.62,8.67,37.45,37.45,0,0,0,27.16-8.57A37.14,37.14,0,0,0,108,73.6C108.9,60.17,104,49,93.55,40.46Z"/></g></g></svg>