<?xml version="1.0" encoding="UTF-8"?><svg id="Layer_2" xmlns="http://www.w3.org/2000/svg" viewBox="0 0 40 40"><defs><style>.cls-1{fill:#0091ff;}.cls-2{fill:none;}</style></defs><g id="Layer_1-2"><g><g><rect class="cls-2" width="40" height="40"/><path class="cls-1" d="M29.81,.87c-6.65-.02-13.31-.02-19.96,0C4.74,.89,.67,4.96,.66,10.07c-.01,6.66,0,13.31,0,19.97,0,.63,.07,1.28,.2,1.9,.95,4.31,4.62,7.27,9.04,7.28,3.3,0,6.6,0,9.9,0,3.34,0,6.68,.01,10.02,0,5.08-.03,9.15-4.09,9.16-9.18,.02-6.66,.02-13.31,0-19.97-.01-5.11-4.07-9.18-9.18-9.19Zm6.63,29.07c0,3.78-2.92,6.7-6.71,6.71-3.3,0-6.6,0-9.9,0s-6.63,0-9.94,0c-3.25,0-5.92-2.21-6.55-5.4-.08-.43-.11-.87-.12-1.31,0-6.6,0-13.21,0-19.81,0-3.78,2.92-6.71,6.71-6.71,6.6,0,13.2,0,19.8,0,3.79,0,6.7,2.92,6.71,6.71,0,6.6,0,13.21,0,19.81Zm-13.97-14.99c0-.57-.32-1.03-.81-1.22-.85-.33-1.73,.28-1.74,1.22-.01,1.69,0,3.38,0,5.07,0,.99-.28,1.89-.9,2.67-1.23,1.55-3.34,1.55-4.57,.01-.62-.78-.91-1.68-.91-2.67,0-1.69,0-3.38,0-5.07,0-.75-.55-1.32-1.26-1.33-.72,0-1.29,.56-1.29,1.34,0,1.76-.02,3.52,0,5.27,.02,1.39,.45,2.67,1.27,3.8,1.86,2.55,5.16,3.13,7.61,1.33,1.46-1.07,2.32-2.54,2.51-4.33,.12-1.1,.02-2.23,.02-3.35,.03,0,.05,0,.08,0,0-.92,0-1.84,0-2.76Z"/></g><rect class="cls-1" x="26" y="13.5" width="3" height="13" rx="1.5" ry="1.5"/></g></g></svg>