<?xml version="1.0" encoding="UTF-8"?><svg id="Layer_2" xmlns="http://www.w3.org/2000/svg" viewBox="0 0 40 40"><defs><style>.cls-1{fill:#0091ff;}.cls-2{fill:none;}</style></defs><g id="Layer_1-2"><g><rect class="cls-2" width="40" height="40"/><path class="cls-1" d="M29.81,.87c-6.65-.02-13.31-.02-19.96,0C4.74,.89,.67,4.96,.66,10.07c-.01,6.66,0,13.31,0,19.97,0,.63,.07,1.28,.2,1.9,.95,4.31,4.62,7.27,9.04,7.28,3.3,0,6.6,0,9.9,0,3.34,0,6.68,.01,10.02,0,5.08-.03,9.15-4.09,9.16-9.18,.02-6.66,.02-13.31,0-19.97-.01-5.11-4.07-9.18-9.18-9.19Zm6.63,29.07c0,3.78-2.92,6.7-6.71,6.71-3.3,0-6.6,0-9.9,0s-6.63,0-9.94,0c-3.25,0-5.92-2.21-6.55-5.4-.08-.43-.11-.87-.12-1.31,0-6.6,0-13.21,0-19.81,0-3.78,2.92-6.71,6.71-6.71,6.6,0,13.2,0,19.8,0,3.79,0,6.7,2.92,6.71,6.71,0,6.6,0,13.21,0,19.81Zm-15.97-14.99c0-.57-.32-1.03-.81-1.22-.85-.33-1.73,.28-1.74,1.22-.01,1.69,0,3.38,0,5.07,0,.99-.28,1.89-.9,2.67-1.23,1.55-3.34,1.55-4.57,.01-.62-.78-.91-1.68-.91-2.67,0-1.69,0-3.38,0-5.07,0-.75-.55-1.32-1.26-1.33-.72,0-1.29,.56-1.29,1.34,0,1.76-.02,3.52,0,5.27,.02,1.39,.45,2.67,1.27,3.8,1.86,2.55,5.16,3.13,7.61,1.33,1.46-1.07,2.32-2.54,2.51-4.33,.12-1.1,.02-2.23,.02-3.35,.03,0,.05,0,.08,0,0-.92,0-1.84,0-2.76Zm7.46,5.43c-.16-.24-.17-.42-.01-.67,.85-1.32,1.69-2.65,2.49-4,.18-.3,.27-.71,.23-1.05-.06-.55-.45-.9-1-1-.55-.1-1,.11-1.3,.58-.63,.99-1.24,1.98-1.87,2.97-.07,.12-.16,.23-.25,.38-.1-.15-.18-.26-.24-.37-.61-.98-1.22-1.97-1.84-2.94-.53-.83-1.65-.86-2.16-.06-.31,.49-.28,.98,.03,1.46,.84,1.34,1.67,2.69,2.52,4.02,.16,.25,.15,.42,0,.67-.85,1.33-1.69,2.68-2.52,4.02-.41,.67-.26,1.43,.34,1.82,.62,.4,1.39,.2,1.82-.48,.61-.97,1.21-1.94,1.82-2.91,.07-.11,.14-.21,.25-.37,.11,.17,.18,.28,.25,.39,.61,.97,1.21,1.94,1.82,2.91,.33,.52,.87,.75,1.4,.62,.89-.21,1.26-1.17,.76-1.99-.83-1.35-1.67-2.69-2.52-4.02Z"/></g></g></svg>