<svg xmlns="http://www.w3.org/2000/svg" viewBox="0 0 40 40"><defs><style>.cls-1{fill:none;}.cls-2{fill:#0091ff;}</style></defs><g id="Layer_2" data-name="Layer 2"><g id="Layer_1-2" data-name="Layer 1"><rect class="cls-1" width="40" height="40"/><path class="cls-2" d="M30.38,30.08a1.41,1.41,0,0,0-1.54-.77,1.39,1.39,0,0,0-1.15,1.36c0,.9,0,1.79,0,2.68a2.86,2.86,0,0,1-2.92,2.92H11A2.84,2.84,0,0,1,8.1,33.33q0-12.48,0-25a2.85,2.85,0,0,1,3-2.95H24.71a2.86,2.86,0,0,1,3,3v2a1.43,1.43,0,1,0,2.86,0v-2a5.72,5.72,0,0,0-5.8-5.8c-4.57,0-9.15,0-13.72,0a6,6,0,0,0-1.92.32A5.65,5.65,0,0,0,5.24,8.4v23c0,.74,0,1.48,0,2.22a5.56,5.56,0,0,0,3.21,4.95,11.4,11.4,0,0,0,1.85.59H25.46a1.59,1.59,0,0,1,.2-.07,5.6,5.6,0,0,0,4.8-4.87,34,34,0,0,0,.06-3.64A1.11,1.11,0,0,0,30.38,30.08ZM15.61,20.26c1.06-.88,2.12-1.76,3.17-2.66a1.41,1.41,0,0,0,.21-2,1.38,1.38,0,0,0-2-.22c-1.27,1-2.54,2.09-3.77,3.17a3.16,3.16,0,0,0-1,2.38,3.26,3.26,0,0,0,1,2.38c.3.29.63.55.95.82l2.7,2.27a1.43,1.43,0,0,0,2.2-.29,1.41,1.41,0,0,0-.35-1.89l-3.36-2.82c-.39-.34-.39-.6,0-.94Zm19.54-1.75c-.29-.28-.6-.53-.91-.8-.88-.75-1.75-1.51-2.64-2.25a1.43,1.43,0,1,0-1.83,2.19c1.05.91,2.11,1.81,3.17,2.71.52.45.52.67,0,1.11-1.09.93-2.18,1.85-3.26,2.79a1.41,1.41,0,0,0-.18,2,1.38,1.38,0,0,0,2,.21q1.88-1.56,3.71-3.18a3.19,3.19,0,0,0,1-2.35A3.32,3.32,0,0,0,35.15,18.51Zm-9.47-4.76A1.53,1.53,0,0,0,24.55,15q-1,3.69-2.09,7.37c-.37,1.32-.76,2.63-1.09,4A1.36,1.36,0,0,0,22.69,28a1.52,1.52,0,0,0,1.5-1.15l1.92-6.75c.44-1.55.91-3.1,1.3-4.67A1.4,1.4,0,0,0,25.68,13.75ZM20.74,9.08a1.39,1.39,0,0,0-1.37-1.44q-1.49,0-3,0A1.41,1.41,0,0,0,15,9.09a1.42,1.42,0,0,0,1.44,1.39h2.82A1.41,1.41,0,0,0,20.74,9.08Zm-2.86,25a1.43,1.43,0,0,0,1.44-1.42,1.43,1.43,0,0,0-2.86,0A1.42,1.42,0,0,0,17.88,34.06Z"/></g></g></svg>