<svg xmlns="http://www.w3.org/2000/svg" viewBox="0 0 28 28"><defs><style>.cls-1{fill:none;}.cls-2{fill:#0091ff;}</style></defs><g id="Layer_2" data-name="Layer 2"><g id="Layer_1-2" data-name="Layer 1"><rect class="cls-1" width="28" height="28"/><path class="cls-2" d="M24.27,5.92c-2.21-1.27-4.43-2.54-6.63-3.82A7.74,7.74,0,0,0,14.76.87h-.85a5.71,5.71,0,0,0-2,.74L4.35,6a4.35,4.35,0,0,0-2.3,4c0,3,0,5.9,0,8.86a4.33,4.33,0,0,0,2.29,4Q8.18,25,12.05,27.21a5.52,5.52,0,0,0,1.36.54,4.26,4.26,0,0,0,3.24-.55l7.62-4.39a4.42,4.42,0,0,0,2.35-4.07V10A4.41,4.41,0,0,0,24.27,5.92Zm-1,15-7.69,4.43a2.31,2.31,0,0,1-2.49,0C10.53,23.9,8,22.43,5.4,21a2.31,2.31,0,0,1-1.24-2.16V9.94A2.31,2.31,0,0,1,5.4,7.78l7.69-4.43a2.29,2.29,0,0,1,2.49,0l7.69,4.43a2.33,2.33,0,0,1,1.24,2.16v8.85A2.33,2.33,0,0,1,23.27,21Z"/><path class="cls-2" d="M11.2,14.37,8.51,12.09a1.09,1.09,0,0,1-.46-.74,1,1,0,0,1,.5-1,.92.92,0,0,1,1.1.08c.49.4,1,.81,1.45,1.22l2.18,1.85a1,1,0,0,1,0,1.7l-3.52,3a1,1,0,0,1-1.45,0,1,1,0,0,1,.14-1.49l2.08-1.75C10.74,14.75,11,14.57,11.2,14.37Z"/><path class="cls-2" d="M17.38,16.51c.77,0,1.53,0,2.29,0a1,1,0,0,1,.94.82,1,1,0,0,1-.6,1.09,1.09,1.09,0,0,1-.39.08c-1.49,0-3,0-4.46,0a1,1,0,0,1-1-.91,1,1,0,0,1,.74-1.05,1.54,1.54,0,0,1,.37,0Z"/></g></g></svg>