<svg xmlns="http://www.w3.org/2000/svg" viewBox="0 0 40 40"><defs><style>.cls-1{fill:none;}.cls-2{fill:#0091ff;}</style></defs><g id="Layer_2" data-name="Layer 2"><g id="Layer_1-2" data-name="Layer 1"><rect class="cls-1" x="0.09" width="39.91" height="40"/><path class="cls-2" d="M37.27,20.32a1.53,1.53,0,0,0-.43,0H.87a.93.93,0,0,0-.87.42v.44a1,1,0,0,0,.91.41H36.8a1.48,1.48,0,0,0,.47-.05.56.56,0,0,0,.42-.58A.57.57,0,0,0,37.27,20.32Zm-21.71,3.1H14.05c-.65,0-.86.21-.86.86v5.8c0,1.19,0,2.38,0,3.57A2.48,2.48,0,0,1,10.25,36a2.56,2.56,0,0,1-2.08-2.55V24.23c0-.58-.22-.8-.8-.81H5.94c-.73,0-.92.19-.92.92v8.82a10.28,10.28,0,0,0,.06,1.1,5.68,5.68,0,0,0,5.05,4.88,5.76,5.76,0,0,0,6.21-5.78c0-1.47,0-2.95,0-4.43V24.21C16.34,23.65,16.11,23.43,15.56,23.42Zm-5-5a5.76,5.76,0,0,0,5.79-5.58c.05-3.15,0-6.3,0-9.45a.63.63,0,0,0-.7-.71H14.09c-.71,0-.9.18-.9.89V9c0,1.28,0,2.55,0,3.83A2.49,2.49,0,0,1,10,15.14a2.6,2.6,0,0,1-1.83-2.5V3.46c0-.59-.21-.8-.79-.81H5.94c-.74,0-.92.18-.92.91V8.17c0,1.52,0,3.05,0,4.57A5.68,5.68,0,0,0,10.54,18.39ZM20.94,5.58h3.35c.65,0,.84.19.84.83v7.78c0,.63-.21.84-.84.84H20.83a.63.63,0,0,0-.72.72c0,.57,0,1.13,0,1.7a.63.63,0,0,0,.7.71c.33,0,.66,0,1,0h10c.73,0,.91-.19.91-.92V15.81c0-.57-.22-.78-.79-.78H28.47c-.6,0-.82-.22-.82-.82q0-3.92,0-7.82c0-.61.2-.81.83-.81h3.34c.65,0,.86-.21.86-.87V3.31c0-.68-.2-.89-.87-.89H20.92c-.59,0-.81.22-.82.8V4.73C20.11,5.37,20.31,5.58,20.94,5.58ZM32.43,24.82a.76.76,0,0,0,.18-.82.74.74,0,0,0-.79-.35c-.39,0-.78,0-1.17,0a1,1,0,0,0-.93.47c-1,1.41-2,2.81-3,4.21-.47.66-.86.66-1.33,0q-1.53-2.14-3-4.27a.85.85,0,0,0-.77-.41c-.43,0-.86,0-1.29,0s-.6,0-.76.33a.78.78,0,0,0,.17.85q2.18,3,4.33,6.1c.36.5.36.67,0,1.18-1.45,2-2.89,4.07-4.33,6.1-.19.26-.34.52-.17.84s.47.35.79.34h.59a1.79,1.79,0,0,1,.33,0,1.26,1.26,0,0,0,1.31-.67c.93-1.38,1.91-2.71,2.87-4.07.43-.6.83-.6,1.27,0q1.52,2.13,3,4.27a.94.94,0,0,0,.89.46c.4,0,.79,0,1.18,0A.75.75,0,0,0,32.6,39c.17-.32,0-.58-.18-.84l-4.31-6.07c-.39-.56-.39-.67,0-1.22Z"/></g></g></svg>