<?xml version="1.0" encoding="UTF-8"?><svg id="Layer_2" xmlns="http://www.w3.org/2000/svg" viewBox="0 0 32 32"><defs><style>.cls-1{fill:#0091ff;}.cls-2{fill:none;}</style></defs><g id="Layer_1-2"><g><rect class="cls-2" width="32" height="32"/><g><path class="cls-1" d="M.32,3.81c.27-.79,.85-1.08,1.66-1.04,.56,.03,1.12,0,1.68,0,.36,0,.57,.17,.58,.46,0,.28-.21,.46-.57,.46-.63,0-1.27,0-1.9,0-.41,0-.53,.13-.53,.53,0,6.22,0,12.43,0,18.65,0,.43,.12,.54,.62,.54,7.91,0,15.82,0,23.73,0,.1,0,.2,0,.31,0,.34,.01,.53,.19,.52,.47,0,.27-.2,.44-.51,.45-.76,0-1.51,0-2.27,0-.12,0-.24,0-.42,0,0,.25,0,.49,0,.73,0,.96-.37,1.33-1.34,1.33-1.31,0-2.61,0-3.92,0-.11,0-.22,0-.38,0,.07,.14,.12,.24,.17,.34,.63,1.23,1.25,2.45,1.88,3.68,.05,.1,.14,.21,.13,.3-.03,.17-.08,.38-.2,.49-.16,.14-.39,.11-.55-.07-.08-.09-.13-.2-.19-.31-.71-1.39-1.43-2.77-2.13-4.17-.1-.2-.22-.27-.45-.27-1.49,0-2.98,0-4.47,0-.22,0-.34,.06-.45,.27-.7,1.39-1.42,2.78-2.13,4.17-.05,.09-.09,.18-.15,.27-.15,.2-.36,.24-.57,.13-.22-.11-.3-.3-.22-.54,.03-.1,.08-.19,.13-.28,.63-1.23,1.25-2.45,1.88-3.68,.05-.09,.09-.18,.15-.32-.14,0-.24-.02-.35-.02-1.33,0-2.65,0-3.98,0-.92,0-1.29-.38-1.29-1.31,0-.23,0-.47,0-.75h-.33c-.83,0-1.65-.03-2.48,0-.81,.03-1.39-.25-1.65-1.05V3.81ZM5.71,24.34c0,.23,0,.44,0,.66q0,.47,.46,.47c5.22,0,10.43,0,15.65,0,.1,0,.21,.02,.3-.01,.07-.02,.17-.11,.17-.17,.02-.31,0-.62,0-.95H5.71Z"/><path class="cls-1" d="M31.68,25c-.1,.22-.17,.46-.3,.66-.74,1.09-2.26,1.05-2.95-.08-.5-.83-.97-1.67-1.46-2.51-.36-.62-.72-1.23-1.07-1.86-.08-.15-.16-.18-.34-.15-3,.51-5.67-1-6.77-3.83-1.13-2.91,.41-6.43,3.32-7.59,3.23-1.29,6.73,.21,7.94,3.47,.77,2.08,.4,4.03-.93,5.8-.08,.11-.17,.21-.25,.31-.01,.02-.02,.04-.04,.07,.07,.13,.15,.27,.23,.41,.68,1.17,1.36,2.34,2.03,3.52,.22,.39,.4,.82,.6,1.23v.55Zm-7.25-14.91c-2.8-.02-5.05,2.24-5.08,5.11-.03,2.77,2.24,5.02,5.1,5.05,2.78,.03,5.03-2.26,5.06-5.13,.02-2.72-2.28-5-5.08-5.03Zm2.27,10.65c.04,.08,.07,.15,.11,.21,.78,1.36,1.57,2.72,2.35,4.08,.23,.4,.56,.58,.92,.5,.61-.12,.85-.73,.52-1.31-.73-1.27-1.46-2.54-2.2-3.81-.09-.16-.18-.31-.28-.49-.24,.16-.45,.31-.68,.44-.24,.14-.49,.25-.74,.38Z"/><path class="cls-1" d="M8.73,11.7c.51-.29,1.01-.56,1.5-.86,.08-.05,.14-.19,.14-.29-.01-.95,.66-1.67,1.55-1.66,.88,.01,1.53,.73,1.51,1.66,0,.1,.07,.24,.14,.28,.49,.29,.99,.57,1.49,.85,.42-.32,.87-.48,1.41-.37,.07,.01,.19-.06,.24-.13,.77-1.06,1.52-2.12,2.29-3.18,.11-.15,.05-.25-.02-.38-.27-.55-.24-1.09,.12-1.59,.36-.5,.86-.72,1.47-.62,.62,.1,1.04,.46,1.22,1.06,.33,1.07-.6,2.14-1.7,1.94-.2-.04-.29,.02-.39,.17-.73,1.03-1.47,2.06-2.21,3.09-.1,.13-.14,.23-.04,.4,.33,.58,.23,1.27-.21,1.76-.41,.46-1.1,.62-1.68,.39-.61-.24-.99-.81-.96-1.49,.01-.21-.06-.31-.23-.4-.41-.21-.8-.44-1.2-.68-.14-.09-.25-.11-.41,0-.56,.38-1.15,.38-1.72,0-.16-.1-.26-.1-.41-.01-.39,.24-.79,.47-1.2,.68-.19,.1-.25,.21-.24,.43,.03,.76-.51,1.42-1.25,1.55-.75,.13-1.5-.32-1.72-1.05-.23-.72,.1-1.5,.79-1.83,.61-.29,1.17-.18,1.71,.24Zm3.78-1.26c0-.32-.27-.61-.6-.62-.32,0-.61,.27-.62,.6,0,.32,.27,.61,.6,.61,.33,0,.61-.27,.62-.59Zm7.23-3.54c-.02,.34,.23,.62,.56,.64,.32,.02,.62-.24,.64-.57,.02-.33-.24-.62-.57-.64-.32-.02-.62,.24-.63,.57Zm-3.61,6.53c.33,0,.61-.28,.6-.61,0-.32-.29-.61-.61-.61-.32,0-.6,.29-.6,.61,0,.33,.27,.6,.61,.6Zm-8.43-1.21c-.32,0-.61,.28-.61,.6,0,.32,.27,.6,.6,.61,.33,0,.61-.27,.61-.6,0-.32-.28-.61-.6-.62Z"/><path class="cls-1" d="M16.55,2.77c.15,0,.27,0,.39,0,3.06,0,6.12,0,9.19,0,1.06,0,1.56,.5,1.56,1.55,0,1.29,0,2.57,0,3.86,0,.09,0,.19,0,.27-.04,.26-.18,.43-.47,.43-.25,0-.43-.19-.44-.49,0-.08,0-.16,0-.24,0-1.29,0-2.57,0-3.86,0-.5-.11-.61-.61-.61-6.74,0-13.47,0-20.21,0-.12,0-.25,0-.37,0-.25-.03-.39-.19-.41-.43-.01-.24,.12-.41,.36-.46,.11-.02,.22-.02,.33-.02,1.74,0,3.47,0,5.21,0h.38c0-.28,0-.54,0-.8,0-.78,.45-1.24,1.23-1.25,.88-.01,1.76-.01,2.63,0,.77,.01,1.22,.48,1.23,1.26,0,.25,0,.51,0,.79Zm-4.17-.02h3.25c0-.29,.02-.57-.01-.84-.01-.1-.16-.26-.25-.26-.91-.02-1.81-.02-2.72,0-.09,0-.24,.16-.26,.25-.04,.27-.01,.55-.01,.84Z"/><path class="cls-1" d="M10.5,17.99c0-.99,0-1.98,0-2.97,0-.51,.15-.66,.66-.66,.51,0,1.02,0,1.53,0,.43,0,.6,.17,.6,.59,0,2.05,0,4.1,0,6.15,0,.41-.17,.58-.58,.58-.54,0-1.08,0-1.62,0-.42,0-.59-.17-.59-.61,0-1.03,0-2.06,0-3.09Zm.94-2.7v5.46h.91v-5.46h-.91Z"/><path class="cls-1" d="M17.5,19.22c0,.62,0,1.24,0,1.87,0,.45-.16,.6-.61,.61-.53,0-1.06,0-1.59,0-.41,0-.58-.17-.58-.58,0-1.27,0-2.55,0-3.82,0-.4,.16-.56,.55-.57,.55,0,1.1,0,1.65,0,.42,0,.57,.16,.58,.58,0,.64,0,1.28,0,1.93Zm-.94,1.54v-3.1h-.91v3.1h.91Z"/><path class="cls-1" d="M9.07,19.22c0,.61,0,1.22,0,1.84,0,.48-.16,.64-.65,.64-.51,0-1.02,0-1.53,0-.43,0-.61-.16-.61-.58,0-1.27,0-2.55,0-3.82,0-.41,.17-.57,.58-.57,.52,0,1.04,0,1.56,0,.49,0,.64,.15,.64,.64,0,.62,0,1.24,0,1.87Zm-1.85,1.53h.91v-3.1h-.91v3.1Z"/><path class="cls-1" d="M19.86,20.77c.46,0,.87,0,1.29,0,.36,0,.56,.17,.56,.45,0,.29-.2,.46-.56,.46-.55,0-1.1,0-1.65,0-.39,0-.55-.18-.56-.57,0-.39,0-.77,0-1.16,0-.33,.18-.53,.46-.53,.27,0,.45,.2,.46,.54,0,.25,0,.51,0,.81Z"/><path class="cls-1" d="M24.22,10.81c1.13,0,1.99,.29,2.76,.83,.25,.18,.32,.44,.17,.66-.14,.22-.41,.28-.67,.1-.66-.45-1.38-.7-2.18-.67-1.8,.06-3.24,1.5-3.32,3.33-.08,1.77,1.26,3.32,3.03,3.52,2.55,.29,4.49-2.16,3.63-4.58-.04-.12-.1-.25-.12-.38-.05-.25,.05-.45,.29-.54,.25-.09,.45,.02,.56,.25,.31,.65,.46,1.33,.41,2.05-.16,2.12-1.51,3.65-3.59,4.08-2.36,.49-4.85-1.35-5.08-3.75-.22-2.27,1.03-4.11,3.22-4.75,.35-.1,.72-.13,.9-.16Z"/></g></g></g></svg>