<?xml version="1.0" encoding="UTF-8"?><svg id="Layer_2" xmlns="http://www.w3.org/2000/svg" viewBox="0 0 32 32"><defs><style>.cls-1{fill:#0091ff;}.cls-2{fill:none;}</style></defs><g id="Layer_2-2"><g><rect class="cls-2" width="32" height="32"/><g><path class="cls-1" d="M18.07,1.23c.49,.22,.65,.6,.65,1.13-.02,1.72,0,3.44,0,5.16,0,.67-.32,.99-.98,1-.28,0-.55,0-.86,0,0,.51,0,1,0,1.49,0,.08,.09,.16,.15,.23,.36,.37,.74,.73,1.09,1.11,.98,1.03,1.51,2.27,1.51,3.69,.01,2.87,0,5.75,0,8.62,0,.1,0,.2,0,.34,.08-.03,.12-.04,.16-.07,.59-.32,1.21-.45,1.88-.45,1.77,0,3.55,0,5.32,0,1.92,0,3.33,1.19,3.7,3.09,0,.04,.03,.07,.04,.1v.92s-.04,.08-.05,.13c-.2,1.11-.78,1.98-1.76,2.53-.42,.23-.9,.35-1.35,.51h-6.45c-.25-.07-.51-.1-.74-.2-.47-.22-.92-.48-1.41-.75-.39,.51-1,.77-1.65,.95H3.62s-.09-.04-.13-.05c-1.33-.27-2.22-1.34-2.23-2.7,0-4.33-.01-8.65,0-12.98,0-1.42,.53-2.66,1.51-3.7,.36-.38,.75-.75,1.11-1.13,.06-.06,.14-.15,.14-.23,.01-.48,0-.96,0-1.47-.29,0-.56,0-.82,0-.7,0-1.02-.33-1.02-1.02,0-1.7,.01-3.4,0-5.1,0-.54,.15-.93,.64-1.16h15.26ZM5.76,8.54c0,.61,0,1.2,0,1.79,0,.33-.11,.59-.34,.82-.45,.44-.9,.89-1.34,1.35-.73,.74-1.09,1.64-1.09,2.68,0,4.26,0,8.52,0,12.77,0,.71,.4,1.1,1.11,1.1,4.24,0,8.48,0,12.72,0,.7,0,1.09-.39,1.09-1.09,0-4.27,0-8.54,0-12.8,0-1.05-.38-1.95-1.12-2.69-.41-.42-.82-.84-1.24-1.24-.29-.28-.43-.59-.42-.99,.02-.55,0-1.11,0-1.68H5.76ZM23.45,29.03v-3.81c-.68,0-1.34-.02-2,0-1.01,.04-1.8,.87-1.81,1.88-.01,.98,.76,1.86,1.74,1.92,.68,.04,1.36,0,2.07,0Zm1.76,0c.65,0,1.28,0,1.91,0,.98-.01,1.78-.75,1.89-1.72,.1-.94-.5-1.88-1.45-2.03-.76-.12-1.56-.02-2.35-.02v3.77ZM7.63,2.97v3.8h1.94V2.97h-1.94Zm-3.7,0v3.8h1.93V2.97h-1.93Zm9.34,3.8V2.98h-1.93v3.79h1.93Zm1.76,0h1.94V2.98h-1.94v3.78Z"/><path class="cls-1" d="M13.21,16.99c.56,0,1.13,0,1.71,0,.69,0,1.02,.34,1.02,1.03,0,1.14,0,2.29,0,3.43,0,.64-.34,.98-.98,.98-.57,0-1.13,0-1.7,0-.02,0-.04,.01-.08,.03,0,.08-.02,.17-.02,.26,0,.52,0,1.04,0,1.56,0,.55-.34,.92-.89,.93-1.22,.01-2.44,.01-3.65,0-.55,0-.88-.37-.89-.92,0-.54,0-1.08,0-1.61,0-.19-.06-.25-.25-.25-.53,.01-1.06,0-1.58,0-.6,0-.95-.35-.95-.95,0-1.17,0-2.34,0-3.52,0-.61,.36-.97,.96-.97,.59,0,1.18,0,1.81,0,0-.63,0-1.23,0-1.83,0-.48,.23-.8,.65-.91,.1-.03,.21-.03,.31-.03,1.17,0,2.34,0,3.51,0,.61,0,.96,.35,.96,.97,0,.58,0,1.15,0,1.73,0,.02,.01,.03,.04,.08Zm.98,1.73c-.11,0-.2,0-.29,0-.53,0-1.06,0-1.58,0-.52,0-.87-.35-.88-.87,0-.47,0-.94,0-1.41,0-.16,0-.32,0-.47h-1.98c0,.13,0,.23,0,.33,0,.52,.01,1.04,0,1.56-.02,.52-.37,.85-.89,.86-.13,0-.27,0-.4,0-.49,0-.97,0-1.48,0v1.98c.52,0,1,.02,1.48,0,.93-.05,1.37,.26,1.3,1.3-.03,.49,0,.97,0,1.47h1.98c0-.58,0-1.13,0-1.69,0-.78,.3-1.08,1.08-1.08,.55,0,1.11,0,1.68,0v-1.98Z"/></g></g></g></svg>