<?xml version="1.0" encoding="UTF-8"?><svg id="Layer_2" xmlns="http://www.w3.org/2000/svg" viewBox="0 0 32 32"><defs><style>.cls-1{fill:#0091ff;}.cls-2{fill:none;}</style></defs><g id="Layer_2-2"><g><rect class="cls-2" width="32" height="32"/><g><path class="cls-1" d="M19.22,14.14c0-1.78-1.44-3.22-3.22-3.22s-3.22,1.44-3.22,3.22c0,1.35,.83,2.5,2.01,2.98v13.38h2.41v-13.38c1.18-.48,2.01-1.63,2.01-2.98Z"/><path class="cls-1" d="M12.06,22.59c-.23,0-.46-.05-.68-.15-3.25-1.51-5.35-4.8-5.35-8.39s2.1-6.88,5.35-8.39c.81-.37,1.76-.02,2.14,.78,.37,.81,.02,1.76-.78,2.14-2.12,.99-3.49,3.13-3.49,5.47s1.37,4.48,3.49,5.47c.81,.37,1.15,1.33,.78,2.14-.27,.59-.85,.93-1.46,.93Z"/><path class="cls-1" d="M19.96,22.57c-.6,0-1.18-.34-1.46-.93-.38-.8-.03-1.76,.77-2.14,2.11-.99,3.48-3.13,3.48-5.46s-1.36-4.47-3.48-5.46c-.8-.38-1.15-1.33-.77-2.14,.38-.8,1.33-1.15,2.14-.77,3.24,1.52,5.33,4.8,5.33,8.37s-2.09,6.86-5.33,8.37c-.22,.1-.45,.15-.68,.15Z"/><path class="cls-1" d="M8.76,26.6c-.23,0-.46-.05-.68-.15-2.33-1.08-4.3-2.79-5.71-4.95C.93,19.28,.16,16.7,.16,14.05s.76-5.23,2.21-7.45c1.4-2.16,3.38-3.87,5.71-4.95,.81-.37,1.76-.02,2.14,.78,.37,.81,.02,1.76-.78,2.14-3.68,1.71-6.06,5.43-6.06,9.48s2.38,7.77,6.06,9.48c.81,.37,1.15,1.33,.78,2.14-.27,.59-.85,.93-1.46,.93Z"/><path class="cls-1" d="M23.28,26.58c-.6,0-1.18-.34-1.46-.93-.38-.8-.03-1.76,.77-2.14,3.66-1.71,6.02-5.43,6.02-9.47s-2.36-7.75-6.02-9.47c-.8-.38-1.15-1.33-.77-2.14,.38-.8,1.33-1.15,2.14-.77,2.32,1.09,4.28,2.8,5.68,4.95,1.44,2.21,2.19,4.78,2.19,7.43s-.76,5.22-2.19,7.43c-1.4,2.15-3.36,3.86-5.68,4.95-.22,.1-.45,.15-.68,.15Z"/></g></g></g></svg>