<?xml version="1.0" encoding="UTF-8"?><svg id="Layer_2" xmlns="http://www.w3.org/2000/svg" viewBox="0 0 32 32"><defs><style>.cls-1{fill:#0091ff;}.cls-2{fill:none;}</style></defs><g id="Layer_1-2"><g><rect class="cls-2" width="32" height="32"/><g><path class="cls-1" d="M17.85,31.76c-1.7-.45-3.41-.9-5.11-1.35-1.29-.34-2.57-.72-3.87-1.02-.53-.12-1.1-.07-1.65-.08-.06,0-.14,.1-.18,.17-.33,.62-.83,.94-1.54,.94-.78,0-1.56,0-2.34,0-1.01,0-1.7-.69-1.71-1.7,0-2.1,0-4.21,0-6.31,0-1.01,.7-1.7,1.7-1.71,.78,0,1.56,0,2.34,0,.69,0,1.21,.3,1.52,.92,.08,.15,.16,.2,.33,.21,.58,.02,1.14-.07,1.68-.29,.86-.35,1.76-.57,2.69-.59,1.49-.04,2.76,.54,3.9,1.44,.15,.11,.31,.22,.42,.36,.32,.39,.72,.5,1.22,.47,.86-.04,1.73,0,2.59-.02,.73-.02,1.38,.16,1.92,.7,.34-.17,.68-.34,1.02-.52,1.28-.65,2.56-1.31,3.84-1.97,.7-.36,1.41-.42,2.14-.1,1.48,.67,1.69,2.69,.38,3.73-.73,.58-1.51,1.1-2.28,1.63-.29,.2-.66,.14-.85-.13-.2-.27-.15-.65,.15-.87,.68-.5,1.38-.96,2.05-1.48,.23-.18,.45-.45,.53-.72,.2-.68-.42-1.27-1.15-1.11-.16,.03-.31,.1-.46,.17-1.51,.77-3.01,1.55-4.52,2.31-.17,.08-.23,.16-.21,.37,.14,1.37-.86,2.51-2.24,2.53-1.79,.02-3.58,0-5.37,0-.42,0-.7-.26-.7-.62,0-.38,.27-.61,.73-.61,1.74,0,3.47,0,5.21,0,.61,0,1.05-.34,1.15-.87,.11-.64-.37-1.22-1.06-1.22-1.08,0-2.16-.01-3.24,0-.55,0-.99-.16-1.39-.54-.66-.64-1.4-1.18-2.28-1.49-1.14-.41-2.27-.26-3.38,.14-.82,.29-1.62,.59-2.51,.51-.04,0-.08,.02-.12,.03v4.94s.05,.04,.07,.03c1.38-.13,2.66,.32,3.95,.67,2.04,.55,4.08,1.09,6.12,1.66,.96,.27,1.85,.15,2.68-.39,.54-.35,1.07-.73,1.6-1.1,.22-.15,.46-.17,.7-.03,.22,.14,.33,.35,.28,.6-.02,.12-.08,.27-.17,.34-.96,.72-1.9,1.48-3.09,1.81-.17,.05-.33,.09-.5,.13h-.99Zm-11.9-6.19c0-1.03,0-2.07,0-3.1,0-.41-.13-.54-.56-.55-.72,0-1.44,0-2.16,0-.42,0-.56,.13-.56,.55,0,2.06,0,4.12,0,6.18,0,.4,.13,.54,.53,.54,.73,0,1.46,0,2.19,0,.45,0,.55-.11,.55-.57,0-1.01,0-2.03,0-3.04Z"/><path class="cls-1" d="M11.56,13.01c-.18-.01-.38,0-.57-.05-.61-.13-1.07-.66-1.08-1.29-.02-.75-.02-1.5,0-2.25,.02-.76,.61-1.3,1.39-1.31,.23,0,.33-.07,.41-.3,.16-.47,.37-.93,.58-1.39,.07-.16,.09-.26-.05-.4-.65-.68-.63-1.44,.04-2.11,.45-.45,.9-.9,1.35-1.35,.63-.62,1.42-.63,2.05-.02,.15,.15,.26,.15,.45,.06,.45-.22,.92-.4,1.39-.57,.19-.07,.27-.14,.28-.36,0-.88,.58-1.43,1.46-1.43,.66,0,1.32,0,1.97,0,.86,0,1.44,.56,1.45,1.41,0,.23,.09,.31,.29,.38,.47,.17,.94,.37,1.39,.58,.17,.08,.27,.09,.42-.06,.63-.62,1.42-.62,2.05,0,.48,.47,.95,.94,1.42,1.41,.6,.61,.62,1.41,.02,2.02-.14,.15-.17,.25-.08,.44,.22,.46,.41,.94,.59,1.42,.06,.16,.11,.25,.31,.25,.95,.02,1.47,.57,1.47,1.51,0,.64,0,1.27,0,1.91,0,.88-.57,1.45-1.44,1.46-.2,0-.28,.06-.35,.25-.18,.49-.38,.97-.6,1.44-.08,.17-.06,.26,.06,.4,.63,.65,.62,1.43-.01,2.07-.46,.46-.91,.92-1.37,1.37-.65,.64-1.42,.65-2.07,.02-.13-.12-.22-.15-.4-.07-.48,.22-.98,.42-1.48,.61-.15,.06-.22,.12-.23,.3-.02,.95-.57,1.47-1.51,1.48-.64,0-1.27,0-1.91,0-.88,0-1.45-.56-1.46-1.44,0-.19-.05-.28-.24-.35-.49-.18-.97-.38-1.45-.6-.17-.08-.26-.07-.4,.06-.67,.64-1.44,.63-2.1-.03-.46-.46-.92-.91-1.37-1.37-.62-.62-.62-1.42,0-2.05,.14-.14,.15-.24,.06-.42-.25-.54-.48-1.09-.72-1.66Zm11.12,4.9c.54-.27,1.02-.48,1.49-.74,.53-.29,.7-.28,1.13,.15,.1,.1,.21,.2,.3,.31,.13,.15,.25,.14,.39,0,.44-.45,.88-.89,1.33-1.33,.15-.15,.17-.26,0-.41-.16-.14-.31-.3-.46-.46-.23-.25-.27-.49-.09-.79,.46-.75,.79-1.55,1-2.4,.08-.32,.3-.48,.63-.49,.23,0,.45,0,.68,0,.17,0,.25-.06,.25-.23,0-.66,0-1.31,0-1.97,0-.18-.1-.23-.26-.23-.23,0-.45,0-.68,0-.32-.02-.54-.17-.62-.5-.21-.85-.54-1.65-1-2.4-.17-.28-.12-.55,.1-.79,.15-.16,.3-.31,.46-.46,.15-.13,.15-.24,0-.38-.35-.33-.69-.68-1.03-1.02q-.51-.51-1.01-.01c-.05,.05-.1,.1-.15,.15-.24,.22-.51,.27-.79,.1-.75-.46-1.55-.79-2.41-1-.32-.08-.48-.3-.5-.62-.01-.21,0-.43,0-.65,0-.19-.05-.28-.26-.28-.64,0-1.27,0-1.91,0-.21,0-.27,.09-.26,.28,0,.22,0,.43,0,.65-.02,.31-.16,.54-.47,.61-.88,.21-1.69,.55-2.46,1.02-.26,.16-.52,.11-.74-.09-.17-.16-.34-.33-.5-.5-.11-.12-.21-.14-.34-.01-.46,.47-.93,.93-1.4,1.39-.12,.12-.12,.22,0,.34,.16,.16,.32,.32,.48,.48,.23,.24,.28,.51,.1,.79-.46,.75-.79,1.55-1,2.4-.08,.32-.3,.48-.62,.5-.22,.01-.43,.01-.65,0-.21,0-.3,.07-.29,.29,.01,.44,0,.88,0,1.32q0,.81,.8,.82s.06,0,.09,0c.37,.01,.58,.16,.67,.52,.21,.84,.54,1.63,.99,2.37,.17,.28,.14,.55-.09,.79-.16,.16-.31,.32-.48,.48-.13,.13-.13,.23,0,.36,.46,.45,.92,.91,1.37,1.37,.12,.12,.22,.13,.34,0,.13-.13,.26-.26,.39-.39,.35-.35,.56-.38,.98-.13,.1,.06,.19,.12,.29,.17,.41,.19,.83,.38,1.28,.59,0-.84,0-1.6,0-2.36,0-.23-.06-.36-.28-.47-3.1-1.63-3.86-5.72-1.57-8.36,.49-.56,1.03-1.06,1.77-1.29,.64-.2,1.18,.13,1.31,.79,.03,.16,.05,.33,.05,.49,0,1.05-.02,2.09-.02,3.14,0,.14,.01,.29,.05,.43,.11,.52,.6,.95,1.09,.99,.43,.03,.97-.35,1.14-.84,.06-.17,.09-.36,.09-.54,0-.91,0-1.83,0-2.74,0-.31-.02-.62,.03-.92,.11-.66,.66-.98,1.31-.79,.15,.04,.29,.1,.43,.17,1.88,1.04,3,3.45,2.6,5.56-.34,1.79-1.31,3.11-2.91,3.98-.09,.05-.19,.17-.19,.27-.01,.81,0,1.62,0,2.53Zm-4.87-11.17s-.04-.02-.04-.01c-.04,.02-.07,.04-.1,.06-1.27,.92-1.91,2.17-1.8,3.73,.12,1.7,1.01,2.91,2.57,3.61,.42,.19,.6,.44,.59,.89-.01,1.43,0,2.85,0,4.28,0,.26,.08,.34,.34,.34,.56-.01,1.13-.02,1.7,0,.3,.01,.41-.07,.41-.39-.02-1.4,0-2.81-.01-4.21,0-.45,.16-.71,.59-.89,1.91-.8,2.94-2.82,2.48-4.83-.25-1.1-.87-1.96-1.84-2.6-.02,.06-.03,.08-.03,.11,0,.98,.02,1.97,0,2.95,0,.29-.03,.6-.11,.88-.29,1.05-1.39,1.89-2.37,1.83-1.05-.07-1.99-.82-2.25-1.85-.1-.38-.1-.79-.11-1.19-.01-.9,0-1.8,0-2.69Z"/><path class="cls-1" d="M24.26,28.39c-.34,0-.6-.26-.61-.59,0-.34,.27-.63,.61-.63,.33,0,.61,.27,.62,.6,.01,.34-.27,.62-.62,.62Z"/></g></g></g></svg>