<?xml version="1.0" encoding="UTF-8"?><svg id="Layer_2" xmlns="http://www.w3.org/2000/svg" viewBox="0 0 32 32"><defs><style>.cls-1{fill:#0091ff;}.cls-2{fill:none;}</style></defs><g id="Layer_2-2"><g><rect class="cls-2" width="32" height="32"/><g><path class="cls-1" d="M27.3,31.72H4.69c-.55-.2-.74-.6-.73-1.17,0-4.48,0-8.96,0-13.43,0-.13,0-.26,0-.41-.12,.03-.2,.04-.28,.06-1.12,.26-2.27-.16-2.9-1.12-.23-.36-.35-.79-.52-1.19,0-.25,0-.49,0-.74,.02-.02,.05-.05,.05-.07,.11-.74,.5-1.31,1.05-1.78C5.63,8.27,9.88,4.66,14.14,1.05c1.23-1.04,2.63-1.04,3.86,.01,1.4,1.19,2.8,2.39,4.21,3.58,.09,.07,.18,.15,.28,.23,.02-.06,.03-.08,.03-.1,0-.54,0-1.08,0-1.63,0-.68,.37-1.04,1.05-1.04,1.12,0,2.23,0,3.35,0,.79,0,1.12,.34,1.13,1.12,0,2.03,0,4.05,0,6.08,0,.26,.08,.43,.28,.59,.88,.75,1.78,1.48,2.61,2.28,.88,.84,1.03,2.14,.46,3.22-.54,1.02-1.69,1.59-2.86,1.41-.16-.02-.31-.06-.49-.09v.37c0,4.49,0,8.99,0,13.48,0,.57-.2,.97-.74,1.16Zm-1.1-1.85v-.33c0-4.64,0-9.28,0-13.91,0-.2-.06-.33-.22-.47-2.66-2.27-5.32-4.55-7.98-6.83-.64-.55-1.29-1.1-1.94-1.66-.08,.06-.15,.11-.21,.16-3.28,2.78-6.56,5.56-9.84,8.34-.17,.14-.22,.28-.22,.49,0,4.62,0,9.23,0,13.85v.34h4.62v-.38c0-2.58,0-5.16,0-7.74,0-.72,.35-1.07,1.07-1.07,3,0,6,0,9,0,.76,0,1.1,.34,1.1,1.11,0,2.58,0,5.16,0,7.74,0,.12,0,.23,0,.36h4.62ZM16.07,4.45c.28,.17,.56,.29,.77,.47,3.78,3.23,7.56,6.47,11.34,9.71,.1,.09,.2,.18,.31,.25,.5,.3,1.14,.07,1.33-.48,.14-.4,.02-.76-.39-1.1-4.19-3.59-8.38-7.18-12.57-10.77-.61-.53-.99-.53-1.62,0-2.77,2.35-5.54,4.7-8.32,7.05-1.47,1.24-2.93,2.49-4.4,3.73-.31,.26-.49,.58-.39,1,.18,.72,.97,.92,1.58,.41,1.65-1.39,3.3-2.79,4.94-4.19,2.21-1.87,4.42-3.75,6.63-5.62,.21-.18,.48-.28,.77-.45Zm3.67,18.07h-7.47v7.34h7.47v-7.34ZM24.36,3.97c0,.82,0,1.62,0,2.41,0,.06,.02,.13,.06,.16,.58,.5,1.16,.99,1.77,1.51V3.97h-1.83Z"/><path class="cls-1" d="M16.01,11.33c.9,0,1.8,0,2.7,0,.68,0,1.04,.37,1.04,1.05,0,1.76,0,3.52,0,5.28,0,.68-.37,1.04-1.05,1.04-1.8,0-3.6,0-5.4,0-.66,0-1.03-.36-1.04-1.02,0-1.78,0-3.56,0-5.34,0-.65,.37-1.01,1.01-1.01,.91,0,1.82,0,2.73,0Zm-1.89,1.85v3.66h3.77v-3.66h-3.77Z"/><path class="cls-1" d="M17.9,25.25c0,.5-.4,.93-.9,.94-.5,0-.93-.41-.93-.91,0-.5,.4-.92,.9-.93,.51,0,.93,.4,.93,.9Z"/></g></g></g></svg>