<?xml version="1.0" encoding="UTF-8"?><svg id="Layer_2" xmlns="http://www.w3.org/2000/svg" viewBox="0 0 32 31.73"><defs><style>.cls-1{fill:#0091ff;}.cls-2{fill:none;}</style></defs><g id="Layer_2-2"><g><rect class="cls-2" x=".27" width="31.73" height="31.73"/><g><path class="cls-1" d="M0,10.62c.14-.55,.36-1.05,.82-1.42,.46-.37,.98-.52,1.55-.52,.68,0,1.36-.01,2.04,0,.24,0,.33-.09,.41-.3,.42-1.13,.85-2.26,1.28-3.38,.52-1.38,1.5-2.06,2.97-2.06,4.35,0,8.71,0,13.06,0,1.47,0,2.45,.68,2.97,2.06,.43,1.13,.86,2.25,1.27,3.39,.08,.23,.2,.3,.44,.3,.8,0,1.61-.03,2.4,.04,.97,.08,1.73,.81,1.92,1.73,.2,.96-.21,1.9-1.07,2.42-.04,.03-.09,.05-.15,.09,.14,.16,.27,.3,.39,.45,.56,.68,.87,1.47,.88,2.35,.02,1.79,.03,3.57,0,5.36-.03,1.93-1.56,3.56-3.49,3.77-.09,0-.18,.03-.29,.05,0,.76,0,1.51,0,2.26,0,.38-.07,.75-.32,1.05-.27,.32-.6,.52-1.02,.53-.79,.01-1.58,.02-2.37,0-.72-.02-1.29-.57-1.33-1.29-.04-.72-.02-1.44-.02-2.16,0-.12,0-.24,0-.38H8.88c0,.11-.02,.21-.02,.32,0,.65,0,1.3,0,1.95,0,1-.57,1.56-1.57,1.57-.64,0-1.28,0-1.92,0-1.01,0-1.58-.58-1.58-1.59,0-.64,0-1.28,0-1.92,0-.11,0-.22,0-.33-.3-.05-.58-.07-.84-.15-1.6-.48-2.58-1.54-2.9-3.19,0-.05-.04-.09-.05-.14,0-2.01,0-4.02,0-6.03,.03-.14,.07-.27,.1-.41,.18-.8,.59-1.47,1.19-2.05-.13-.08-.24-.15-.34-.22-.52-.35-.78-.88-.95-1.46v-.67Zm15.58,2.56c-3.82,0-7.63,0-11.45,0-1.76,0-2.91,1.15-2.91,2.92,0,1.56,0,3.13,0,4.69,0,.29,.03,.59,.1,.87,.37,1.31,1.38,2.04,2.81,2.04,7.63,0,15.26,0,22.9,0,.28,0,.57-.02,.84-.09,1.3-.35,2.08-1.37,2.08-2.72,0-1.62,.02-3.25-.01-4.87,0-.43-.1-.9-.28-1.29-.5-1.07-1.41-1.55-2.58-1.55-3.84,0-7.67,0-11.51,0Zm10.82-1.23c-.04-.13-.07-.22-.1-.31-.78-2.08-1.57-4.15-2.36-6.23-.33-.87-.87-1.25-1.8-1.25-4.36,0-8.73,0-13.09,0-.93,0-1.47,.37-1.8,1.25-.79,2.07-1.57,4.15-2.36,6.23-.03,.09-.06,.19-.1,.31h2.85c.23-.46,.39-.94,.68-1.34,.28-.39,.68-.7,1.04-1.06-.58-1.08-.49-2.07,.28-2.77,.73-.66,1.79-.75,2.58-.2,.38,.26,.65,.61,.8,1.04,.25,.71,.1,1.37-.32,1.99,.93,.54,1.46,1.34,1.68,2.33h2.4c.22-1.02,.78-1.8,1.66-2.33-.61-1.21-.51-2.18,.29-2.86,.75-.64,1.82-.7,2.59-.14,.4,.29,.67,.67,.8,1.15,.18,.67,.03,1.28-.36,1.85,.92,.54,1.46,1.33,1.69,2.34h2.93ZM7.63,24.93h-2.61c0,.83,0,1.61,.01,2.4,0,.08,.16,.22,.25,.22,.7,.02,1.4,.02,2.1,0,.09,0,.24-.14,.25-.22,.02-.79,.01-1.58,.01-2.41Zm15.93,.02c0,.78,0,1.53,0,2.28,0,.27,.1,.36,.36,.35,.22-.01,.45,0,.67,0,.51-.02,1.02-.05,1.53-.07,.02-.5,.05-1,.06-1.51,0-.34,0-.68,0-1.04h-2.62Zm3.4-15.04c.26,.68,.49,1.31,.74,1.94,.02,.06,.14,.1,.21,.11,.34,.01,.69,.02,1.03,0,.58-.03,1.01-.45,1.02-1,.01-.54-.41-1.02-.98-1.04-.66-.03-1.32,0-2.03,0Zm-22.72,.01c-.74,0-1.44-.03-2.13,.01-.53,.03-.9,.52-.88,1.03,.02,.51,.41,.94,.94,.98,.38,.03,.77,.01,1.15,0,.06,0,.15-.04,.16-.09,.25-.64,.49-1.28,.75-1.95Zm4.8,2.02h4.05c-.17-.85-1.09-1.54-2.03-1.54-.95,0-1.88,.71-2.02,1.54Zm9.07,0h4.05c-.16-.84-1.08-1.54-2.03-1.54-.94,0-1.88,.7-2.03,1.54Zm-7.04-2.77c.48,0,.87-.4,.86-.88-.01-.48-.41-.85-.89-.84-.47,0-.85,.4-.85,.86,0,.48,.4,.86,.88,.86Zm9.07-1.72c-.48,0-.87,.39-.87,.87,0,.47,.39,.85,.85,.85,.48,0,.88-.37,.89-.85,0-.47-.39-.87-.87-.87Z"/><path class="cls-1" d="M8.85,18.47c-.03,1.4-1.18,2.52-2.54,2.5-1.39-.02-2.56-1.21-2.51-2.57,.05-1.42,1.19-2.52,2.58-2.49,1.39,.03,2.51,1.18,2.48,2.56Zm-2.53-1.33c-.71,0-1.29,.58-1.3,1.29,0,.71,.6,1.32,1.31,1.32,.71,0,1.29-.59,1.29-1.3,0-.73-.57-1.31-1.31-1.31Z"/><path class="cls-1" d="M22.34,18.44c0-1.39,1.12-2.51,2.51-2.53,1.39-.01,2.55,1.14,2.55,2.52,0,1.38-1.18,2.55-2.55,2.53-1.38-.02-2.51-1.15-2.51-2.53Zm1.22,0c0,.72,.57,1.3,1.29,1.31,.71,0,1.32-.6,1.32-1.31,0-.71-.59-1.29-1.3-1.3-.73,0-1.31,.57-1.31,1.31Z"/><path class="cls-1" d="M15.59,17.94c-1.61,0-3.23,0-4.84,0-.12,0-.25,0-.36-.02-.27-.06-.46-.29-.47-.56,0-.28,.15-.51,.43-.59,.11-.03,.24-.04,.36-.04,3.26,0,6.51,0,9.77,0,.12,0,.24,0,.36,.04,.28,.08,.44,.31,.43,.59,0,.27-.19,.51-.47,.56-.12,.02-.24,.02-.36,.02-1.61,0-3.23,0-4.84,0Z"/><path class="cls-1" d="M15.63,18.93c1.11,0,2.21,0,3.32,0,.05,0,.1,0,.15,0,.52,0,.82,.23,.81,.62,0,.39-.29,.61-.82,.61-2.33,0-4.66,0-7,0-.12,0-.24,0-.36-.03-.26-.06-.47-.32-.45-.58,.02-.27,.15-.49,.43-.57,.14-.04,.3-.05,.45-.05,1.16,0,2.31,0,3.47,0Z"/><path class="cls-1" d="M18.33,5.83c-.54,0-1.07,0-1.61,0-.44,0-.7-.22-.7-.59,0-.37,.25-.63,.7-.63,1.07,0,2.15,0,3.22,0,.44,0,.72,.27,.71,.63,0,.36-.28,.59-.74,.59-.53,0-1.05,0-1.58,0Z"/><path class="cls-1" d="M21.4,5.21c0-.34,.26-.6,.59-.6,.33,0,.59,.27,.58,.61,0,.34-.26,.59-.6,.59-.34,0-.59-.26-.58-.6Z"/></g></g></g></svg>