<svg xmlns="http://www.w3.org/2000/svg" viewBox="0 0 28 28"><defs><style>.cls-1{fill:none;}.cls-2{fill:#0091ff;}</style></defs><g id="Layer_2" data-name="Layer 2"><g id="Layer_1-2" data-name="Layer 1"><rect class="cls-1" width="28" height="28"/><path class="cls-2" d="M26.86,2.47A2.21,2.21,0,0,0,25,1.5H3.18A2.3,2.3,0,0,0,.91,2.85,2.69,2.69,0,0,0,.68,3.93c0,5.15,0,10.29,0,15.44a2.34,2.34,0,0,0,2.45,2.44c2.11,0,4.23,0,6.35,0h.32c-.08.25-.16.48-.23.71-.24.71-.49,1.42-.71,2.14a.33.33,0,0,1-.4.28c-.71,0-1.43,0-2.14,0a.79.79,0,1,0,0,1.56H21.71a.79.79,0,1,0,0-1.56c-.73,0-1.47,0-2.21,0-.17,0-.26,0-.31-.21L18.28,22a1.67,1.67,0,0,1-.06-.2h.3c2.11,0,4.23,0,6.35,0a2.32,2.32,0,0,0,2.23-1.34,4.54,4.54,0,0,0,.23-.74V3.58A6.06,6.06,0,0,0,26.86,2.47ZM10.4,24.92c.34-1,.67-2,1-3a.22.22,0,0,1,.19-.11c1.6,0,3.19,0,4.79,0a.27.27,0,0,1,.21.12c.34,1,.66,2,1,3Zm15.35-5.3a.77.77,0,0,1-.71.63H3.23c-.73,0-1-.27-1-1V18.7H25.75C25.75,19,25.78,19.32,25.75,19.62ZM9.08,12.53,8.5,12l1.12-1.12c.19.19.39.4.6.6a.81.81,0,0,0,1.08.17c.42-.19.84-.37,1.27-.53a.83.83,0,0,0,.65-.88V9.4a.41.41,0,0,1,0-.07h1.54v.88a.83.83,0,0,0,.65.88c.43.16.85.34,1.27.53a.81.81,0,0,0,1.08-.17l.58-.58L19.49,12c-.18.17-.4.37-.6.58a.8.8,0,0,0-.17,1.06q.29.64.54,1.32a.81.81,0,0,0,.86.61H21v1.55H17.84a3.87,3.87,0,0,0-1.32-3.74,3.78,3.78,0,0,0-2.77-.92,3.93,3.93,0,0,0-3.6,4.66H7V15.56h.82a.85.85,0,0,0,1-.71,11.61,11.61,0,0,1,.48-1.15A.85.85,0,0,0,9.08,12.53Zm7.19,4.4c0,.16-.11.2-.27.2H12c-.16,0-.22,0-.26-.2A2.33,2.33,0,0,1,16,15.19,2.4,2.4,0,0,1,16.27,16.93Zm9.5-.09v.27H22.59v-2c0-.11,0-.22,0-.34a.78.78,0,0,0-.82-.81c-.31,0-.63,0-.94,0a.29.29,0,0,1-.32-.23c-.18-.45-.19-.45.17-.8l.51-.52a.75.75,0,0,0,0-1.06c-.74-.76-1.5-1.52-2.26-2.26a.75.75,0,0,0-1.06,0c-.24.22-.48.46-.7.7a.28.28,0,0,1-.36.08c-.47-.2-.48-.19-.48-.72,0-.23,0-.47,0-.7a.76.76,0,0,0-.76-.76H12.43a.76.76,0,0,0-.77.76c0,.34,0,.68,0,1a.26.26,0,0,1-.19.29c-.48.2-.47.21-.85-.17-.16-.16-.32-.33-.5-.49A.75.75,0,0,0,9,9.16q-1.12,1.1-2.22,2.22a.75.75,0,0,0,0,1.1c.22.24.45.47.68.68a.28.28,0,0,1,.08.38C7.4,14,7.4,14,6.91,14H6.34a.81.81,0,0,0-.93.92v2.19H2.23V4c0-.68.28-1,1-1H24.81c.68,0,1,.29,1,1Zm-4-12.21A2.34,2.34,0,1,0,24.15,7,2.36,2.36,0,0,0,21.8,4.63Zm0,3.12a.78.78,0,1,1,0-1.56.78.78,0,0,1,0,1.56Z"/></g></g></svg>