<?xml version="1.0" encoding="UTF-8"?>
<svg id="Layer_2" data-name="Layer 2" xmlns="http://www.w3.org/2000/svg" viewBox="0 0 40 40">
  <defs>
    <style>
      .cls-1 {
        fill: #0091ff;
      }

      .cls-2 {
        fill: none;
      }
    </style>
  </defs>
  <g id="Layer_1-2" data-name="Layer 1">
    <g>
      <rect class="cls-2" width="40" height="40"/>
      <g>
        <path class="cls-1" d="m40,20.69c-.23.44-.58.58-1.05.58-5.13-.01-10.26,0-15.39,0-.06,0-.13,0-.19,0-.5-.02-.84-.35-.84-.82,0-.47.34-.81.83-.82.94,0,1.88,0,2.82,0,.14,0,.28,0,.42,0-.21-2.8-2.61-6.1-6.5-6.03-3.93.07-6.14,3.47-6.29,6.03,1.03,0,2.06,0,3.09,0,.13,0,.26,0,.38.02.35.08.6.43.6.8,0,.39-.28.73-.66.79-.13.02-.26.01-.39.01-5.13,0-10.26,0-15.39,0-.09,0-.18,0-.27,0-.45-.03-.76-.37-.77-.81,0-.46.32-.82.79-.82.82-.01,1.65,0,2.54,0,0-.58,0-1.15,0-1.71,0-1.44.1-1.54,1.44-1.54.35,0,.78.12,1.02-.05.23-.17.26-.65.39-.98.3-.74.61-1.47.93-2.2.08-.19.09-.31-.06-.46-.34-.34-.66-.69-.99-1.04-.4-.44-.4-.88,0-1.32,1.38-1.47,2.77-2.94,4.16-4.4.44-.47.86-.46,1.31.01.37.39.73.8,1.03,1.13,1.12-.46,2.16-.88,3.2-1.33.09-.04.18-.21.19-.33.02-.48,0-.96.01-1.43,0-.67.3-.97.93-.97,1.95,0,3.89,0,5.84,0,.63,0,.91.31.92.98,0,.48,0,.96,0,1.43,0,.11.08.27.16.3,1.05.45,2.1.87,3.23,1.34.3-.33.66-.74,1.03-1.13.45-.47.86-.47,1.31,0,1.38,1.45,2.76,2.91,4.13,4.37.44.47.44.91,0,1.38-.37.4-.75.78-1.07,1.1.44,1.19.84,2.31,1.26,3.42.03.08.19.16.29.16.45.02.9,0,1.35,0,.63,0,.92.31.92.98,0,.74,0,1.47,0,2.27.39,0,.77,0,1.15,0,.37,0,.75.03,1.12,0,.48-.04.82.14,1.05.58v.49ZM8.02,11.03c.34.34.68.68,1.01,1.02.41.44.45.74.15,1.27-.7,1.22-1.21,2.52-1.53,3.91-.13.58-.37.76-.93.77-.47,0-.95,0-1.42,0v1.59h6.91c.57-4.39,3.75-7.53,7.77-7.64,4.01-.12,7.69,2.96,8.23,7.65h6.9v-1.59c-.49,0-.95,0-1.41,0-.57,0-.81-.19-.94-.76-.32-1.4-.84-2.72-1.54-3.95-.29-.51-.25-.81.15-1.24.33-.35.68-.7,1-1.03-1.11-1.17-2.17-2.3-3.28-3.47-.33.36-.66.74-1,1.11-.37.38-.67.42-1.11.14-1.18-.76-2.43-1.31-3.76-1.65-.52-.13-.7-.39-.7-.96,0-.5,0-1,0-1.51h-4.6c0,.51,0,.98,0,1.46,0,.65-.17.88-.76,1.04-1.29.33-2.49.87-3.63,1.58-.55.35-.82.32-1.26-.16-.32-.35-.62-.72-.91-1.07-1.14,1.21-2.2,2.33-3.32,3.51Z"/>
        <path class="cls-1" d="m20.63,32.42c.1-.17.18-.31.25-.45,1.22-2.29,2.43-4.59,3.65-6.88.06-.12.12-.24.2-.35.22-.29.51-.37.83-.27.31.1.5.33.53.68.01.14.01.27.01.41,0,3.49,0,6.99,0,10.48,0,.03,0,.05,0,.08,0,.7-.28,1.09-.78,1.08-.49-.01-.76-.39-.76-1.07,0-2.37,0-4.75,0-7.12,0-.15,0-.29,0-.57-.13.21-.2.32-.26.43-.96,1.81-1.92,3.61-2.87,5.42-.18.34-.38.63-.78.63-.42,0-.63-.3-.81-.65-.95-1.8-1.9-3.59-2.85-5.39-.06-.12-.13-.23-.27-.34,0,.14,0,.28,0,.42,0,2.39,0,4.78,0,7.16,0,.19-.01.39-.07.56-.12.35-.46.55-.8.5-.35-.05-.62-.33-.66-.69-.01-.09,0-.19,0-.29,0-3.6,0-7.21,0-10.81,0-.6.26-.94.72-.97.39-.02.62.2.79.54.92,1.74,1.84,3.47,2.76,5.21.39.74.78,1.47,1.19,2.24Z"/>
        <path class="cls-1" d="m5.02,30.8c0-1.21-.09-2.43.02-3.64.15-1.64,1.51-2.85,3.07-2.87.81,0,1.63-.04,2.42.1,1.41.26,2.47,1.69,2.47,3.19,0,.52-.27.87-.71.9-.46.03-.78-.28-.83-.82-.12-1.17-.72-1.74-1.84-1.74-.48,0-.95,0-1.43,0-.94.02-1.66.73-1.67,1.72-.02,2.11-.02,4.23,0,6.34.01.98.72,1.67,1.64,1.7.54.02,1.08.02,1.62,0,.95-.02,1.59-.67,1.67-1.67,0-.07,0-.14.02-.2.09-.44.42-.72.83-.68.4.03.68.37.69.83.04,1.68-1.31,3.25-2.9,3.35-.64.04-1.29.03-1.93.02-1.85-.05-3.19-1.49-3.21-3.46-.01-1.02,0-2.05,0-3.07h.05Z"/>
        <path class="cls-1" d="m31.81,23.92c1.09,0,2.07.49,2.83,1.47.35.45.32.92-.03,1.24-.36.33-.81.25-1.17-.21-.56-.72-1.29-1-2.14-.79-.79.19-1.31.74-1.53,1.57-.34,1.26.46,2.57,1.69,2.76.38.06.77.06,1.15.15,1.61.38,2.76,1.88,2.81,3.65.05,1.7-1.06,3.31-2.61,3.79-1.58.49-3.29-.19-4.12-1.68-.13-.24-.23-.59-.16-.83.07-.23.35-.47.58-.56.33-.13.63.07.81.4.37.67.9,1.07,1.63,1.17,1.13.16,2.17-.73,2.32-1.99.13-1.14-.73-2.25-1.81-2.4-.61-.09-1.24-.15-1.8-.4-1.55-.71-2.38-2.5-2.05-4.21.36-1.81,1.73-3.03,3.6-3.12Z"/>
        <path class="cls-1" d="m20.21,21.26c-.41,0-.77-.36-.78-.79-.01-.44.33-.82.74-.84.43-.02.8.36.8.81,0,.44-.35.81-.76.82Z"/>
      </g>
    </g>
  </g>
</svg>