<?xml version="1.0" encoding="UTF-8"?>
<svg id="Layer_2" data-name="Layer 2" xmlns="http://www.w3.org/2000/svg" viewBox="0 0 40 40">
  <defs>
    <style>
      .cls-1 {
        fill: #0091ff;
      }

      .cls-2 {
        fill: none;
      }
    </style>
  </defs>
  <g id="Layer_1-2" data-name="Layer 1">
    <g>
      <rect class="cls-2" width="40" height="40"/>
      <path class="cls-1" d="m31.93,29.37c-.29-.61-.97-.94-1.62-.8-.7.15-1.19.71-1.21,1.43-.02.94,0,1.88,0,2.82-.03,1.77-1.3,3.06-3.07,3.06-4.81.01-9.62.01-14.42,0-1.79,0-3.08-1.3-3.08-3.09,0-8.75,0-17.5,0-26.25,0-1.81,1.3-3.1,3.11-3.1,4.78,0,9.57,0,14.35,0,1.83,0,3.1,1.3,3.12,3.13,0,.7,0,1.4,0,2.1,0,.93.63,1.59,1.48,1.6.88,0,1.51-.66,1.52-1.6,0-.71,0-1.43,0-2.14-.02-3.45-2.64-6.09-6.09-6.1-4.81-.01-9.62-.02-14.42.01-.68,0-1.38.12-2.02.33-2.51.85-4.05,3.1-4.05,5.8,0,8.05,0,16.1,0,24.15,0,.78-.03,1.55.01,2.33.13,2.37,1.26,4.13,3.38,5.2.6.3,1.29.42,1.95.63h15.93c.07-.02.13-.06.2-.07,2.65-.4,4.75-2.47,5.04-5.12.14-1.26.06-2.55.07-3.82,0-.17-.07-.34-.15-.5ZM21.8,7.3c.01-.81-.6-1.49-1.45-1.52-1.04-.03-2.08-.03-3.12,0-.84.03-1.46.71-1.44,1.53.02.81.66,1.44,1.51,1.46.5.01,1,0,1.5,0,.49,0,.98,0,1.46,0,.87-.02,1.52-.64,1.53-1.47Zm-3.01,23.26c-.81,0-1.48.67-1.49,1.48-.01.83.66,1.51,1.49,1.52.83,0,1.51-.66,1.51-1.49,0-.82-.69-1.51-1.51-1.5Zm16.85-11.82c-.08-.43-.32-.67-.75-.75-1.16-.22-1.8-1.32-1.42-2.44.14-.41.04-.75-.3-1.02-.59-.48-1.23-.85-1.94-1.12-.41-.16-.76-.07-1.04.26-.79.92-2.05.92-2.85,0-.28-.32-.63-.41-1.03-.26-.65.25-1.24.58-1.79,1-.37.29-.47.64-.32,1.08.41,1.14-.29,2.29-1.5,2.45-.42.06-.7.3-.78.7-.15.76-.18,1.52-.06,2.28.08.54.33.77.86.84.42.06.79.24,1.07.56.51.58.62,1.24.33,1.96-.16.41-.09.78.22,1.04.61.5,1.28.89,2.01,1.16.1.04.21.05.31.07.3-.02.53-.15.71-.38.78-1.02,2.14-1.03,2.94-.04.27.33.65.43,1.04.27.65-.27,1.25-.62,1.79-1.07.34-.28.43-.63.28-1.04-.43-1.14.25-2.29,1.45-2.48.39-.06.68-.33.75-.71.15-.79.16-1.58.01-2.37Zm-6.87,3.51c-1.29,0-2.33-1.04-2.33-2.33,0-1.28,1.05-2.32,2.34-2.32,1.27,0,2.31,1.05,2.31,2.32,0,1.29-1.04,2.34-2.32,2.33Z"/>
    </g>
  </g>
</svg>