<?xml version="1.0" encoding="UTF-8"?>
<svg id="Layer_2" data-name="Layer 2" xmlns="http://www.w3.org/2000/svg" viewBox="0 0 40.3 40">
  <defs>
    <style>
      .cls-1 {
        fill: #0091ff;
      }

      .cls-2 {
        fill: none;
      }
    </style>
  </defs>
  <g id="Layer_1-2" data-name="Layer 1">
    <g>
      <rect class="cls-2" width="40.3" height="40"/>
      <path class="cls-1" d="m39.01,4.32c-.72-1.04-1.81-1.4-3.06-1.4-5.48,0-10.96,0-16.44,0-5.06,0-10.12,0-15.18,0-.88,0-1.7.16-2.4.7-.97.75-1.38,1.75-1.38,2.94,0,5.31,0,10.63,0,15.94,0,1.43,0,2.86,0,4.29.01,1.71,1,3,2.64,3.42.38.1.78.11,1.17.11,3.47,0,6.93,0,10.4,0h.51v4.06h-.42c-.92,0-1.84,0-2.75,0-.63.01-1.11.51-1.12,1.12-.01.58.45,1.09,1.06,1.15.14.01.28,0,.42,0,5.12,0,10.25,0,15.37,0,.13,0,.26,0,.38,0,.63-.05,1.1-.57,1.08-1.16-.02-.61-.5-1.1-1.14-1.1-.9-.01-1.81,0-2.71,0h-.44v-4.03c.16,0,.32-.03.48-.03,3.51,0,7.01,0,10.52,0,.93,0,1.79-.21,2.51-.83.61-.52.99-1.18,1.15-1.96.01-.07.04-.14.07-.21V5.93c-.23-.54-.38-1.13-.71-1.61Zm-16.37,30.06h-5.02v-4.02h5.02v4.02Zm14.76-7.3c-.02.53-.47.91-1.01.97-.14.02-.28.02-.42.02-10.55,0-21.11,0-31.66,0-.29,0-.59-.04-.85-.15-.36-.15-.59-.48-.59-.86-.02-1.05,0-2.09,0-3.17h34.56c0,1.08.03,2.14-.01,3.2Zm.02-5.52H2.84v-.44c0-4.82,0-9.64,0-14.46,0-1.04.4-1.44,1.46-1.44,10.56,0,21.11,0,31.67,0,1.06,0,1.45.4,1.45,1.44,0,4.82,0,9.64,0,14.46v.44Zm-4.8-11.76c-2.03,0-4.05,0-6.08,0-.13,0-.27-.01-.43-.02,0-.42.02-.8,0-1.18-.03-.52-.4-.97-.92-1.01-.72-.05-1.45-.05-2.17,0-.58.04-.95.58-.92,1.16.03.56.45,1,1.02,1.05.21.02.43,0,.71,0v.48c0,1.64,0,3.29,0,4.93,0,.94.43,1.38,1.37,1.38,1.62,0,3.24,0,4.85,0,.62,0,1.05-.25,1.36-.79.76-1.37,1.56-2.73,2.34-4.09.61-1.07.12-1.93-1.12-1.93Zm-2.96,4.43c-.03.05-.12.1-.19.1-1.1,0-2.21,0-3.33,0v-2.23h4.74c-.42.74-.82,1.44-1.22,2.13Zm-11.39,1.77c-3.59,0-7.19,0-10.78,0-.09,0-.18.01-.27.02-.52.08-.9.48-.95.99-.07.74.44,1.25,1.28,1.26,1.78,0,3.57,0,5.35,0,1.63,0,3.26,0,4.9,0,.25,0,.51,0,.76-.03.7-.1,1.13-.8.9-1.47-.17-.5-.56-.77-1.19-.77Zm.07-7.26c-1.81-.01-3.62,0-5.43,0h0c-1.26,0-2.52,0-3.79,0-.6,0-1.2-.01-1.8,0-.54.02-.97.42-1.05.93-.08.54.18,1.05.68,1.23.22.08.47.1.71.1,3.48,0,6.96,0,10.44,0,.19,0,.38-.02.57-.06.36-.08.61-.31.75-.64.33-.76-.21-1.57-1.09-1.57Zm.37,3.68c-.19-.05-.4-.05-.61-.05-1.75,0-3.49,0-5.24,0-1.8,0-3.59,0-5.39,0-.83,0-1.35.64-1.19,1.4.12.54.58.87,1.27.87,3.56,0,7.11,0,10.67,0,.13,0,.26-.01.38-.04.52-.1.9-.54.91-1.07.02-.51-.32-.99-.81-1.12Zm10.16,4.66c-.67-.01-1.23.51-1.24,1.18-.01.64.52,1.19,1.17,1.21.69.02,1.26-.52,1.26-1.19,0-.64-.54-1.18-1.19-1.19Zm-3.23,0c-.67,0-1.22.53-1.22,1.19,0,.66.55,1.2,1.22,1.19.67,0,1.22-.55,1.21-1.21-.01-.65-.55-1.17-1.2-1.18Zm-4.77,7.91c-.5-.07-1.02-.07-1.51,0-.58.08-.91.62-.85,1.21.05.55.49.97,1.06,1,.19.01.38,0,.57,0,.18,0,.36,0,.53,0,.59-.03,1.04-.46,1.08-1.03.04-.59-.3-1.11-.88-1.19Z"/>
    </g>
  </g>
</svg>