<?xml version="1.0" encoding="UTF-8"?>
<svg width="2485px" height="435px" viewBox="0 0 2485 435" version="1.1" xmlns="http://www.w3.org/2000/svg" xmlns:xlink="http://www.w3.org/1999/xlink">
    <!-- Generator: Sketch 59.1 (86144) - https://sketch.com -->
    <title>Group 3 Copy</title>
    <desc>Created with Sketch.</desc>
    <defs>
        <linearGradient x1="0%" y1="22.6723584%" x2="45.878125%" y2="76.334811%" id="linearGradient-1">
            <stop stop-color="#B42EFF" offset="0%"></stop>
            <stop stop-color="#FF23F8" offset="38.7399054%"></stop>
            <stop stop-color="#FF9900" offset="100%"></stop>
        </linearGradient>
        <linearGradient x1="50%" y1="17.4347644%" x2="103.878125%" y2="79.3808879%" id="linearGradient-2">
            <stop stop-color="#00CDFF" offset="0%"></stop>
            <stop stop-color="#007DFF" offset="100%"></stop>
        </linearGradient>
        <linearGradient x1="-17.9727453%" y1="48.4671368%" x2="106.226941%" y2="53.277532%" id="linearGradient-3">
            <stop stop-color="#00CDFF" offset="0%"></stop>
            <stop stop-color="#0085FF" offset="28.8267957%"></stop>
            <stop stop-color="#FF36D1" offset="53.9227911%"></stop>
            <stop stop-color="#FF4CA3" offset="69.144784%"></stop>
            <stop stop-color="#FF7252" offset="82.7010313%"></stop>
            <stop stop-color="#FF9900" offset="100%"></stop>
        </linearGradient>
    </defs>
    <g id="Page-1" stroke="none" stroke-width="1" fill="none" fill-rule="evenodd">
        <g id="Group-3-Copy" transform="translate(-405.000000, -366.000000)">
            <rect id="Rectangle-Copy" x="0" y="0" width="3295" height="1164"></rect>
            <g id="Group-2-Copy" transform="translate(405.000000, 345.000000)">
                <g id="Group-Copy">
                    <rect id="Rectangle" stroke="#979797" fill="#D8D8D8" opacity="0" x="0.5" y="0.5" width="473" height="473"></rect>
                    <polygon id="Path" fill="url(#linearGradient-1)" points="0 377.038725 114.603078 453 114.603078 301.33339 368.980609 453 474 387.380838 0 108.999382"></polygon>
                    <path d="M359.302801,21 L474,96.9661503 L474,365 C158,179.369389 0,86.5540831 0,86.5540831 C0,86.5540831 35.0346484,64.7027221 105.103945,21 L359.713539,173.038619 L359.302801,21 Z" id="Path-2" fill="url(#linearGradient-2)"></path>
                </g>
                <path d="M660.64,455.28 C721.12,455.28 763.12,430.64 792.24,393.68 L733.44,344.96 C711.6,366.24 691.44,375.76 666.24,375.76 C633.2,375.76 609.12,358.96 600.72,325.92 L803.44,325.92 C804,318.64 804,310.8 804,304.08 C804,215.04 755.84,138.32 651.12,138.32 C561.52,138.32 498.24,208.32 498.24,296.8 L498.24,297.92 C498.24,392 565.44,455.28 660.64,455.28 Z M599.04,271.6 C604.64,238.56 623.68,216.72 651.68,216.72 C680.8,216.72 700.4,238 704.32,271.6 L599.04,271.6 Z M979.44,455.28 C1039.92,455.28 1081.92,430.64 1111.04,393.68 L1052.24,344.96 C1030.4,366.24 1010.24,375.76 985.04,375.76 C952,375.76 927.92,358.96 919.52,325.92 L1122.24,325.92 C1122.8,318.64 1122.8,310.8 1122.8,304.08 C1122.8,215.04 1074.64,138.32 969.92,138.32 C880.32,138.32 817.04,208.32 817.04,296.8 L817.04,297.92 C817.04,392 884.24,455.28 979.44,455.28 Z M917.84,271.6 C923.44,238.56 942.48,216.72 970.48,216.72 C999.6,216.72 1019.2,238 1023.12,271.6 L917.84,271.6 Z M1268.56,454.16 C1298.24,454.16 1323.44,447.44 1342.48,436.8 L1342.48,353.36 C1329.6,359.52 1316.16,363.44 1302.16,363.44 C1282.56,363.44 1273.04,354.48 1273.04,333.2 L1273.04,230.72 L1343.6,230.72 L1343.6,145.04 L1273.04,145.04 L1273.04,68.32 L1166.64,68.32 L1166.64,145.04 L1130.8,145.04 L1130.8,230.72 L1166.64,230.72 L1166.64,353.92 C1166.64,426.16 1204.72,454.16 1268.56,454.16 Z M1456.32,454.72 C1496.08,454.72 1524.64,439.6 1545.36,416.64 L1545.36,448 L1650.64,448 L1650.64,273.84 C1650.64,231.7056 1641.30945,200.54832 1618.84477,178.19469 L1618.16,177.52 C1594.08,153.44 1557.12,140.56 1502.8,140.56 C1450.72,140.56 1414.32,150.08 1380.16,164.08 L1402,239.12 C1428.88,228.48 1453.52,222.32 1485.44,222.32 C1526.32,222.32 1545.92,240.24 1545.92,271.6 L1545.92,276.64 C1528.56,270.48 1501.12,264.88 1473.12,264.88 C1402,264.88 1354.4,297.36 1354.4,360.08 L1354.4,361.2 C1354.4,421.68 1398.64,454.72 1456.32,454.72 Z M1494.4,388.08 C1472.56,388.08 1456.88,375.76 1456.88,355.04 L1456.88,353.92 C1456.88,331.52 1474.8,316.4 1505.6,316.4 C1521.28,316.4 1536.4,319.76 1547.04,324.24 L1547.04,338.24 C1547.04,368.48 1525.2,388.08 1494.4,388.08 Z M1883.76,454.72 C1955.44,454.72 2017.6,394.8 2017.6,296.24 L2017.6,295.12 C2017.6,198.24 1955.44,138.32 1883.2,138.32 C1837.84,138.32 1812.08,160.16 1791.36,185.36 L1791.36,39.2 L1684.96,39.2 L1684.96,448 L1791.36,448 L1791.36,411.04 C1810.96,434 1837.84,454.72 1883.76,454.72 Z M1850.72,365.68 C1816.56,365.68 1789.12,337.12 1789.12,296.8 L1789.12,295.68 C1789.12,255.92 1816.56,227.36 1850.72,227.36 C1885.44,227.36 1912.88,255.92 1912.88,295.68 L1912.88,296.8 C1912.88,337.68 1885.44,365.68 1850.72,365.68 Z M2045.76,448 L2152.16,448 L2152.16,39.2 L2045.76,39.2 L2045.76,448 Z M2341.6,455.28 C2402.08,455.28 2444.08,430.64 2473.2,393.68 L2414.4,344.96 C2392.56,366.24 2372.4,375.76 2347.2,375.76 C2314.16,375.76 2290.08,358.96 2281.68,325.92 L2484.4,325.92 C2484.96,318.64 2484.96,310.8 2484.96,304.08 C2484.96,215.04 2436.8,138.32 2332.08,138.32 C2242.48,138.32 2179.2,208.32 2179.2,296.8 L2179.2,297.92 C2179.2,392 2246.4,455.28 2341.6,455.28 Z M2280,271.6 C2285.6,238.56 2304.64,216.72 2332.64,216.72 C2361.76,216.72 2381.36,238 2385.28,271.6 L2280,271.6 Z" id="eetable" fill="url(#linearGradient-3)" fill-rule="nonzero"></path>
            </g>
        </g>
    </g>
</svg>