<?xml version="1.0" encoding="UTF-8"?>
<svg id="Layer_2" data-name="Layer 2" xmlns="http://www.w3.org/2000/svg" viewBox="0 0 40 40">
  <defs>
    <style>
      .cls-1 {
        fill: #fff;
      }

      .cls-2 {
        fill: #0091ff;
      }

      .cls-3 {
        fill: none;
      }
    </style>
  </defs>
  <g id="Layer_1-2" data-name="Layer 1">
    <g>
      <rect class="cls-3" width="40" height="40"/>
      <g>
        <path class="cls-1" d="m33.08,30.79c-.44-.48-.88-.85-1.17-1.31-.56-.88-1.35-.97-2.26-.86-1.7.21-2.93,1.55-2.95,3.27-.02,2.11-.01,4.22,0,6.33,0,.75.39,1.21,1.01,1.24.64.03,1.09-.45,1.11-1.22.02-1.14,0-2.27,0-3.41,0-.78,0-1.56,0-2.36h1.1v6.94h6.41v-6.95h1.01c0,.29,0,.53,0,.78,0,1.65-.01,3.29,0,4.94,0,.78.43,1.26,1.07,1.27.65,0,1.08-.46,1.08-1.24.01-2.18.03-4.36,0-6.54-.02-1.35-.96-2.58-2.25-2.92-.54-.14-1.13-.15-1.69-.14-.26,0-.56.16-.75.34-.57.56-1.1,1.17-1.7,1.82Zm-24.51.56c-.63,0-1.22-.03-1.81.02-.16.01-.34.22-.43.38-.09.15-.04.38-.13.53-.08.15-.26.24-.4.35-.03-.16-.11-.33-.08-.47.28-1.18.12-2.34-.06-3.54-.57,0-1.1-.04-1.61,0-1.62.15-2.94,1.53-2.96,3.12-.03,2.16-.01,4.31,0,6.47,0,.78.44,1.25,1.09,1.24.64-.01,1.06-.5,1.06-1.28,0-1.62,0-3.25,0-4.87,0-.27,0-.54,0-.84h1.04v6.95h6.42v-6.92h1.06c0,1.94,0,3.82,0,5.7,0,.79.42,1.27,1.06,1.27.64,0,1.06-.48,1.06-1.26,0-2.11,0-4.22,0-6.33,0-1.33-.61-2.31-1.76-2.92-.89-.47-1.84-.36-2.86-.3,0,1.19,0,2.32,0,3.45,0,.18-.06.36-.09.54-.14-.14-.33-.27-.41-.44-.1-.23-.11-.49-.18-.84Zm15.97-21.06c0,.28,0,.53,0,.78,0,1.62,0,3.24,0,4.87,0,.86.44,1.39,1.11,1.37.64-.02,1.05-.54,1.05-1.37,0-1.95.01-3.89,0-5.84-.02-2.66-1.72-4.05-4.36-3.55-.01.17-.04.35-.04.53.03,1.08-.28,1.97-1.36,2.41-.09.04-.23.15-.22.22.07.85-.29,1.74.22,2.56.24.39.21.83-.17,1.03-.26.14-.72.13-.98-.02-.38-.22-.37-.65-.13-1.04.1-.17.22-.36.23-.55.03-.69.01-1.39.01-2.11-1.56-.46-1.65-1.75-1.63-3.11-.46,0-.85-.01-1.23,0-1.71.07-3.09,1.41-3.13,3.16-.05,2.15-.03,4.31-.01,6.47,0,.72.46,1.21,1.06,1.22.63.01,1.09-.49,1.1-1.24,0-.97,0-1.95,0-2.92,0-.94,0-1.89,0-2.84h1.09v6.96h6.38v-6.97h1.04Zm-9.59,23.55c0,.75-.04,1.36.02,1.95.02.21.22.51.41.58,3.27,1.25,6.56,1.25,9.83,0,.16-.06.38-.25.39-.38.04-.68.02-1.36.02-2.16-1.74.88-3.48,1.3-5.31,1.31-1.85,0-3.6-.44-5.37-1.29Zm12.79-22.35c0,.59.03,1.14,0,1.68-.04.57.12.98.56,1.39,1.79,1.66,2.92,3.72,3.46,6.11.08.35.14.71.2.98h2.03c.13-3.29-3.26-8.84-6.24-10.17ZM20.26.5c-1.45.01-2.64,1.24-2.64,2.72,0,1.47,1.22,2.71,2.66,2.71,1.46,0,2.69-1.27,2.67-2.76-.02-1.48-1.23-2.67-2.69-2.66Zm12.8,27.59c1.51-.01,2.72-1.24,2.7-2.72-.02-1.47-1.23-2.68-2.69-2.67-1.47,0-2.64,1.2-2.64,2.7,0,1.49,1.18,2.71,2.63,2.7ZM12.83,11.37c-3.34,2.31-5.33,5.29-6.16,9.19h2.17c.62-2.5,1.88-4.63,3.81-6.35.1-.09.17-.28.18-.43.02-.74,0-1.47,0-2.42Zm-2.78,13.48c-1.6,0-3.17.01-4.74,0-.48,0-.5.28-.49.63.03,1.56,1.41,2.75,3.01,2.6,1.48-.14,2.52-1.59,2.22-3.22Zm-5.2-.6h5.26c-.04-2.05-.55-2.6-2.39-2.62-2.28-.02-2.8.44-2.87,2.62ZM19.08,6.49c.01.83-.21,1.69.65,2.1.34.16.94.12,1.26-.08.73-.47.52-1.27.49-2.01h-2.39Zm-10.32,22.17h-2.49c.03.38.06.71.08,1.04h2.28c.04-.35.08-.66.13-1.04Z"/>
        <path class="cls-2" d="m33.08,30.79c.6-.65,1.13-1.26,1.7-1.82.19-.19.5-.34.75-.34.56-.01,1.15,0,1.69.14,1.29.34,2.23,1.56,2.25,2.92.03,2.18.01,4.36,0,6.54,0,.78-.44,1.25-1.08,1.24-.64,0-1.06-.49-1.07-1.27,0-1.65,0-3.29,0-4.94,0-.25,0-.49,0-.78h-1.01v6.95h-6.41v-6.94h-1.1c0,.8,0,1.58,0,2.36,0,1.14.02,2.27,0,3.41-.01.77-.46,1.24-1.11,1.22-.62-.03-1.01-.49-1.01-1.24,0-2.11-.01-4.22,0-6.33.02-1.73,1.25-3.06,2.95-3.27.91-.11,1.7-.02,2.26.86.29.46.73.82,1.17,1.31Z"/>
        <path class="cls-2" d="m8.57,31.36c.07.35.08.62.18.84.08.17.27.29.41.44.03-.18.09-.36.09-.54,0-1.13,0-2.26,0-3.45,1.02-.06,1.97-.16,2.86.3,1.16.61,1.76,1.58,1.76,2.92,0,2.11,0,4.22,0,6.33,0,.78-.42,1.26-1.06,1.26-.64,0-1.05-.48-1.06-1.27-.01-1.88,0-3.75,0-5.7h-1.06v6.92h-6.42v-6.95h-1.04c0,.3,0,.57,0,.84,0,1.62.01,3.25,0,4.87,0,.78-.42,1.27-1.06,1.28-.65.01-1.08-.46-1.09-1.24-.01-2.16-.03-4.31,0-6.47.02-1.59,1.35-2.97,2.96-3.12.52-.05,1.04,0,1.61,0,.18,1.21.34,2.36.06,3.54-.03.14.05.31.08.47.14-.12.31-.21.4-.35.09-.15.04-.38.13-.53.1-.16.28-.37.43-.38.59-.05,1.18-.02,1.81-.02Z"/>
        <path class="cls-2" d="m24.54,10.3h-1.04v6.97h-6.38v-6.96h-1.09c0,.96,0,1.9,0,2.84,0,.97.01,1.95,0,2.92,0,.75-.47,1.25-1.1,1.24-.6-.01-1.05-.5-1.06-1.22-.01-2.16-.04-4.31.01-6.47.04-1.74,1.42-3.08,3.13-3.16.38-.02.77,0,1.23,0-.02,1.36.07,2.65,1.63,3.11,0,.72.02,1.42-.01,2.11,0,.19-.13.38-.23.55-.23.39-.25.82.13,1.04.26.15.72.16.98.02.39-.2.42-.65.17-1.03-.51-.82-.15-1.71-.22-2.56,0-.07.13-.18.22-.22,1.08-.44,1.39-1.32,1.36-2.41,0-.18.03-.36.04-.53,2.64-.5,4.34.89,4.36,3.55.02,1.95,0,3.89,0,5.84,0,.83-.41,1.35-1.05,1.37-.67.02-1.11-.51-1.11-1.37,0-1.62,0-3.24,0-4.87,0-.25,0-.5,0-.78Z"/>
        <path class="cls-2" d="m14.95,33.85c1.76.85,3.52,1.3,5.37,1.29,1.83,0,3.56-.43,5.31-1.31,0,.8.02,1.48-.02,2.16,0,.14-.23.32-.39.38-3.28,1.24-6.56,1.25-9.83,0-.19-.07-.39-.37-.41-.58-.06-.6-.02-1.2-.02-1.95Z"/>
        <path class="cls-2" d="m27.74,11.5c2.98,1.32,6.37,6.88,6.24,10.17h-2.03c-.05-.27-.12-.63-.2-.98-.54-2.39-1.67-4.46-3.46-6.11-.44-.41-.6-.82-.56-1.39.04-.54,0-1.09,0-1.68Z"/>
        <path class="cls-2" d="m20.26.5c1.46-.01,2.67,1.18,2.69,2.66.02,1.5-1.21,2.77-2.67,2.76-1.43,0-2.65-1.24-2.66-2.71,0-1.48,1.18-2.7,2.64-2.72Z"/>
        <path class="cls-2" d="m33.06,28.09c-1.45.01-2.64-1.2-2.63-2.7,0-1.5,1.17-2.69,2.64-2.7,1.45,0,2.67,1.2,2.69,2.67.02,1.49-1.19,2.71-2.7,2.72Z"/>
        <path class="cls-2" d="m12.83,11.37c0,.94,0,1.68,0,2.42,0,.15-.07.33-.18.43-1.92,1.72-3.19,3.85-3.81,6.35h-2.17c.83-3.9,2.82-6.88,6.16-9.19Z"/>
        <path class="cls-2" d="m10.05,24.85c.29,1.63-.74,3.08-2.22,3.22-1.6.16-2.98-1.04-3.01-2.6,0-.35,0-.63.49-.63,1.57.02,3.14,0,4.74,0Z"/>
        <path class="cls-2" d="m4.85,24.25c.07-2.18.59-2.64,2.87-2.62,1.84.02,2.35.57,2.39,2.62h-5.26Z"/>
        <path class="cls-2" d="m19.08,6.49h2.39c.03.74.24,1.54-.49,2.01-.32.21-.91.24-1.26.08-.85-.4-.63-1.26-.65-2.1Z"/>
        <path class="cls-2" d="m8.76,28.67c-.05.37-.08.69-.13,1.04h-2.28c-.03-.32-.05-.65-.08-1.04h2.49Z"/>
      </g>
    </g>
  </g>
</svg>