<?xml version="1.0" encoding="UTF-8"?>
<svg id="Layer_2" data-name="Layer 2" xmlns="http://www.w3.org/2000/svg" viewBox="0 0 28 28">
  <defs>
    <style>
      .cls-1, .cls-2 {
        fill: none;
        stroke: #0091ff;
        stroke-linecap: round;
        stroke-width: 2.67px;
      }

      .cls-2 {
        stroke-linejoin: round;
      }

      .cls-3 {
        fill: rgba(255, 255, 255, 0);
      }
    </style>
  </defs>
  <g id="Layer_1-2" data-name="Layer 1">
    <g id="click">
      <rect class="cls-3" width="28" height="28"/>
      <g id="_编组" data-name="编组">
        <g id="_分组" data-name="分组">
          <path id="Rectangle-2" class="cls-2" d="m8.75,15.17v-6.42c0-.97.78-1.75,1.75-1.75s1.75.78,1.75,1.75v6.42"/>
          <path id="Rectangle-4" class="cls-2" d="m22.75,14.58v3.79c0,3.7-3,6.71-6.71,6.71h-.58c-3.7,0-6.71-3-6.71-6.71v-3.79"/>
          <path id="Rectangle-3" class="cls-2" d="m12.25,16.92v-2.92c0-.97.78-1.75,1.75-1.75s1.75.78,1.75,1.75v2.92"/>
          <path id="Rectangle-3-Copy" class="cls-2" d="m15.75,16.92v-2.92c0-.97.78-1.75,1.75-1.75s1.75.78,1.75,1.75v2.92"/>
          <path id="Rectangle-3-Copy-2" class="cls-2" d="m19.25,16.92v-2.92c0-.97.78-1.75,1.75-1.75s1.75.78,1.75,1.75v2.92"/>
        </g>
        <path id="_路径" data-name="路径" class="cls-1" d="m16.33,8.75c0-.61-.09-1.2-.27-1.76-.2-.62-.49-1.2-.87-1.71-1.06-1.43-2.77-2.37-4.69-2.37s-3.63.93-4.69,2.37c-.38.51-.68,1.09-.87,1.71-.18.56-.27,1.15-.27,1.76"/>
      </g>
    </g>
  </g>
</svg>