<?xml version="1.0" encoding="UTF-8"?>
<svg id="Layer_2" data-name="Layer 2" xmlns="http://www.w3.org/2000/svg" viewBox="0 0 40 40">
  <defs>
    <style>
      .cls-1 {
        fill: #0091ff;
      }

      .cls-2 {
        fill: none;
      }
    </style>
  </defs>
  <g id="Layer_1-2" data-name="Layer 1">
    <g>
      <rect class="cls-2" width="40" height="40"/>
      <g>
        <path class="cls-1" d="m39.51,34.1c-.14.3-.33.54-.7.56-.5.03-.82-.3-.82-.87,0-1.89,0-3.78,0-5.67,0-1-.36-1.36-1.34-1.36-2.88,0-5.76,0-8.65,0-.98,0-1.35.37-1.35,1.36,0,2.63,0,5.26,0,7.88,0,.93.39,1.33,1.31,1.33,2.12,0,4.24,0,6.36,0,.63,0,.95.28.94.79-.01.37-.24.65-.61.71-.14.02-.28.02-.42.02-2.08,0-4.16,0-6.25,0-1.8,0-2.86-1.06-2.86-2.87,0-2.64.03-5.28-.01-7.92-.02-1.66,1.19-2.88,2.86-2.85,2.79.05,5.59.05,8.38,0,1.48-.03,2.66.43,3.16,2.17v6.71Z"/>
        <path class="cls-1" d="m39.51,8.42c-.05.26-.1.52-.16.78-.67,3.29-3.64,5.61-7.09,5.55-3.27-.06-6.16-2.55-6.71-5.78-.55-3.26,1.09-6.38,4.03-7.64,3.02-1.3,6.61-.4,8.51,2.12.76,1.01,1.17,2.15,1.34,3.39.02.12.05.25.08.37v1.22Zm-7.05-6.2c-3.01,0-5.48,2.46-5.49,5.43-.01,3.14,2.38,5.55,5.51,5.55,3.13,0,5.51-2.39,5.51-5.54,0-2.99-2.5-5.44-5.53-5.44Z"/>
        <path class="cls-1" d="m4.5,7.25c-.88-1.4-.91-2.88-.37-4.36.54-1.48,2.09-2.33,3.74-2.15,1.61.17,2.89,1.34,3.14,2.91.19,1.25.18,2.48-.63,3.6.22.06.4.11.57.16,1.98.6,3.33,2.37,3.4,4.44.02.76.01,1.52,0,2.28,0,.6-.29.89-.89.89-1.14,0-2.29,0-3.43,0-2.82,0-5.64,0-8.46,0-.79,0-1.04-.24-1.03-1.01,0-.93-.07-1.87.07-2.77.34-2.05,1.58-3.34,3.58-3.9.09-.03.19-.05.29-.08Zm8.32,6.23c0-.58.03-1.13,0-1.69-.11-1.73-1.5-3.05-3.23-3.07-1.43-.01-2.87,0-4.3,0-.71,0-1.35.21-1.91.65-1.36,1.06-1.42,2.27-1.25,4.1h1.49c0-.48,0-.94,0-1.4,0-.63.27-.98.75-.98.49,0,.77.34.77.96,0,.47,0,.93,0,1.4h4.63c0-.3,0-.57,0-.83,0-.27,0-.53,0-.8.04-.59.62-.92,1.12-.64.3.17.39.45.39.77,0,.5,0,1,0,1.51h1.52Zm-3.24-8.76s-.02,0-.03,0c0-.17,0-.33,0-.5-.07-1.08-.85-1.89-1.87-1.97-1.14-.09-2.06.52-2.27,1.58-.09.46-.09.96-.05,1.44.08,1.11.89,1.86,2,1.92,1.04.06,1.93-.63,2.14-1.67.05-.26.06-.53.08-.79Z"/>
        <path class="cls-1" d="m14.47,30.12c-.16.34-.31.72-.5,1.08-.09.16-.25.28-.38.42-.41.42-.42.43,0,.84.51.5.91,1.04.78,1.8-.04.23-.12.47-.23.68-.26.49-.55.97-.83,1.45-.45.76-1.17,1.06-2.05.85q-.94-.22-1.23.72c-.26.86-.88,1.33-1.77,1.33-.55,0-1.09,0-1.64,0-.88,0-1.52-.49-1.78-1.33q-.29-.94-1.22-.72c-.87.2-1.6-.1-2.05-.85-.28-.48-.56-.96-.84-1.45-.42-.76-.32-1.54.27-2.17q.68-.72,0-1.44c-.6-.63-.7-1.42-.28-2.17.27-.49.55-.97.84-1.45.45-.77,1.17-1.07,2.04-.86q.94.22,1.23-.71c.26-.86.9-1.33,1.81-1.34.55,0,1.09,0,1.64,0,.84,0,1.48.48,1.73,1.29.06.21.13.41.17.62.06.3.23.34.5.28,1.73-.39,2.07-.24,2.95,1.29.17.3.36.58.5.89.13.27.2.57.32.94Zm-10.2,5.41c.94,0,1.58.49,1.83,1.26q.32.97,1.34.97t1.34-.98c.3-.94,1.16-1.42,2.13-1.2q.97.22,1.46-.64.53-.92-.18-1.72c-.63-.72-.63-1.67.01-2.38q.7-.78.17-1.69-.5-.87-1.49-.65c-.95.21-1.8-.27-2.11-1.19-.11-.32-.14-.77-.36-.92-.25-.17-.68-.07-1.04-.08-.98,0-.98,0-1.28.95-.3.96-1.17,1.45-2.15,1.23-.96-.22-.96-.22-1.46.65-.17.31-.47.64-.45.93.02.27.4.52.63.77.63.72.63,1.67,0,2.38-.16.18-.33.36-.5.52-.17.16-.18.31-.06.5.25.41.5.83.72,1.25.13.25.29.3.56.22.34-.1.69-.16.88-.2Z"/>
        <path class="cls-1" d="m20.85,31.19c-.23-.21-.46-.42-.68-.65-.34-.36-.36-.81-.06-1.12.3-.31.77-.31,1.12.04.67.66,1.34,1.32,1.99,1.99.39.39.38.8-.02,1.2-.64.65-1.29,1.3-1.94,1.94-.37.36-.84.39-1.15.08-.32-.31-.29-.77.07-1.15.2-.21.41-.42.61-.63,0,0,0-.02.02-.07-.12,0-.22-.02-.33-.02-1.09,0-2.18,0-3.27,0-.57,0-.9-.28-.9-.75,0-.48.32-.77.88-.77,1.19,0,2.38,0,3.58,0,.02-.03.04-.06.06-.09Z"/>
        <path class="cls-1" d="m20.79,8.53c-.13,0-.27,0-.4,0-1.09,0-2.18,0-3.27,0-.49,0-.79-.31-.79-.74,0-.45.3-.75.81-.77.1,0,.2,0,.3,0,.98,0,1.95,0,2.93,0,.14,0,.28,0,.54,0-.27-.27-.47-.47-.66-.67-.4-.41-.45-.88-.11-1.2.33-.33.77-.29,1.17.11.63.63,1.26,1.25,1.88,1.88.44.45.44.83,0,1.28-.62.63-1.25,1.26-1.88,1.88-.4.39-.84.43-1.18.09-.32-.32-.28-.79.11-1.17.2-.2.41-.4.62-.6-.01-.03-.03-.06-.04-.09Z"/>
        <path class="cls-1" d="m31.51,20.48c0-.97,0-1.95,0-2.92,0-.33.09-.6.38-.78.52-.31,1.14.05,1.14.68.01,1,0,2,0,3.11.26-.26.47-.46.68-.66.4-.39.85-.43,1.18-.11.34.32.3.79-.11,1.2-.62.62-1.23,1.24-1.86,1.86-.46.45-.85.45-1.31-.01-.62-.62-1.24-1.24-1.86-1.86-.39-.4-.43-.85-.12-1.17.33-.34.79-.3,1.2.11.2.2.38.41.56.62.04-.02.07-.04.11-.06Z"/>
        <path class="cls-1" d="m8.44,20.53c.22-.23.42-.47.65-.69.33-.32.79-.32,1.09-.02.3.3.31.75-.02,1.09-.67.69-1.35,1.37-2.05,2.05-.35.34-.77.34-1.12,0-.69-.67-1.37-1.36-2.05-2.05-.33-.34-.32-.79-.02-1.09.3-.3.76-.3,1.09.02.23.23.43.49.65.73.04-.02.09-.05.13-.07,0-.2,0-.39,0-.59,0-.8,0-1.6,0-2.4,0-.5.31-.83.75-.84.43,0,.76.33.77.82.01.88,0,1.75,0,2.63,0,.12.01.24.02.37.03.01.06.03.09.04Z"/>
        <path class="cls-1" d="m32.24,29.29c.84,0,1.67,0,2.51,0,.55,0,.87.27.87.74,0,.47-.32.78-.88.78-1.7,0-3.4,0-5.1,0-.64,0-1-.48-.81-1.03.13-.36.41-.49.77-.49.88,0,1.75,0,2.63,0Z"/>
        <path class="cls-1" d="m30.95,33.17c.44,0,.89-.01,1.33,0,.48.01.78.31.79.75,0,.43-.3.75-.78.76-.91.02-1.83.02-2.74,0-.47-.01-.78-.35-.77-.77,0-.43.32-.72.8-.74.46-.01.91,0,1.37,0Z"/>
        <path class="cls-1" d="m38.19,38.35c-.42,0-.77-.37-.76-.78,0-.42.34-.73.76-.73.42,0,.75.33.74.75,0,.41-.34.76-.74.76Z"/>
        <path class="cls-1" d="m31.61,8.3c.91-.91,1.77-1.77,2.62-2.64.23-.23.49-.36.82-.29.58.13.77.82.33,1.29-.49.51-1,1.01-1.5,1.51-.55.55-1.09,1.1-1.64,1.64-.42.42-.81.42-1.23,0-.48-.47-.95-.95-1.43-1.42-.37-.37-.39-.82-.08-1.14.31-.32.78-.3,1.15.06.32.31.62.64.95.99Z"/>
        <path class="cls-1" d="m10.17,32.04c-.01,1.55-1.2,2.73-2.74,2.72-1.55-.01-2.72-1.2-2.71-2.75,0-1.47,1.26-2.71,2.74-2.7,1.49,0,2.72,1.25,2.71,2.73Zm-1.52,0c0-.68-.54-1.2-1.21-1.2-.68,0-1.2.54-1.19,1.22,0,.64.55,1.18,1.19,1.19.66,0,1.21-.55,1.21-1.21Z"/>
      </g>
    </g>
  </g>
</svg>