<?xml version="1.0" encoding="UTF-8"?><svg id="Layer_2" xmlns="http://www.w3.org/2000/svg" viewBox="0 0 28 28"><defs><style>.cls-1{fill:#0091ff;}.cls-2{fill:none;}</style></defs><g id="Layer_1-2"><g><rect class="cls-2" width="28" height="28"/><g><path class="cls-1" d="M.49,.81V.49H27.51c-.23,2.57-.46,5.15-.7,7.72-.27,2.99-.55,5.99-.82,8.98-.24,2.61-.47,5.22-.7,7.83-.02,.18-.07,.25-.26,.29-3.64,.72-7.27,1.45-10.91,2.18-.08,.02-.18,.01-.26,0-3.64-.73-7.27-1.46-10.91-2.18-.19-.04-.24-.13-.25-.29-.17-1.94-.35-3.87-.53-5.81-.25-2.81-.5-5.62-.76-8.43-.26-2.89-.52-5.78-.79-8.67-.04-.44-.1-.87-.15-1.3Zm2.47,1.95l1.87,20.62c.11,.03,.2,.05,.29,.07,2.63,.53,5.25,1.06,7.88,1.57,.42,.08,.87,.2,1.27,.13,2.43-.45,4.84-.95,7.26-1.43,.55-.11,1.1-.22,1.64-.33,.63-6.89,1.25-13.75,1.87-20.62H2.95Z"/><path class="cls-1" d="M17.4,12.89h4.46c-.06,.67-.11,1.32-.17,1.96-.15,1.67-.3,3.34-.46,5.02-.04,.48-.09,.96-.13,1.44-.01,.14-.06,.21-.21,.24-1.84,.36-3.67,.73-5.5,1.1-.08,.01-.15,.02-.25,.02v-2.27c.81-.16,1.62-.32,2.43-.49,.42-.08,.85-.16,1.26-.26,.07-.02,.16-.11,.17-.18,.13-1.4,.26-2.8,.38-4.2,0-.03,0-.07,0-.14h-4.23V5.02h7.43l-.2,2.22h-4.98v5.65Z"/><path class="cls-1" d="M6.55,17.4h2.26c.06,.67,.13,1.32,.17,1.98,.01,.19,.06,.28,.26,.31,.45,.07,.9,.17,1.37,.27V5.01h2.24V22.69c-.45-.09-.88-.17-1.3-.25-1.47-.29-2.95-.59-4.42-.89-.08-.02-.21-.12-.22-.19-.13-1.31-.25-2.62-.37-3.96Z"/></g></g></g></svg>