<?xml version="1.0" encoding="UTF-8"?><svg id="Layer_2" xmlns="http://www.w3.org/2000/svg" viewBox="0 0 28 28"><defs><style>.cls-1{fill:#0091ff;}.cls-2{stroke:#0091ff;stroke-miterlimit:10;stroke-width:.25px;}.cls-2,.cls-3{fill:none;}</style></defs><g id="Layer_1-2"><g><rect class="cls-3" width="28" height="28"/><g><path class="cls-1" d="M25.61,22.61c-.23-.33-.54-.42-.83-.24-.29,.19-.34,.53-.11,.87,.15,.23,.31,.46,.48,.72h-2.9V5.47c0-.09,0-.18,0-.27-.02-.29-.21-.49-.5-.53-.11-.01-.23-.01-.35-.01-5.65,0-11.31,0-16.96,0h-.36v-1.73s.05,0,.06,0c.22,.15,.44,.29,.67,.44,.33,.22,.67,.18,.86-.1,.19-.29,.12-.61-.21-.84-.54-.37-1.08-.73-1.62-1.09-.19-.13-.41-.17-.61-.04-.61,.4-1.21,.8-1.8,1.21-.19,.13-.25,.35-.18,.58,.07,.24,.24,.4,.48,.4,.15,0,.31-.06,.44-.13,.25-.14,.48-.31,.75-.49V21.15c0,.17-.05,.26-.2,.34-1.63,.87-2,3.05-.75,4.42,.39,.43,.88,.67,1.4,.87h1.4c.1-.04,.19-.08,.29-.12,.67-.26,1.18-.7,1.51-1.34,.07-.14,.15-.19,.3-.19,6.03,0,12.06,0,18.09,0h.2c-.17,.25-.31,.47-.46,.68-.27,.41-.25,.62,.09,.96h.6c.45-.65,.89-1.29,1.34-1.93,.02-.02,.04-.04,.06-.06v-.4c-.39-.59-.79-1.17-1.18-1.76Zm-21.56,3.08c-.95,0-1.7-.76-1.7-1.72,0-.94,.76-1.68,1.71-1.68,.92,0,1.71,.79,1.7,1.71-.01,.95-.76,1.7-1.7,1.69Zm6.8-1.72h-3.94c-.04-.77-.3-1.45-.85-2-.55-.55-1.22-.81-2-.85v-5.09h6.78v7.93Zm5.13,0h-3.97v-.29c0-2.67,0-5.33,0-8,0-.62-.17-.79-.78-.79-2.28,0-4.56,0-6.84,0h-.32v-3.95H15.98v13.03Zm5.1,0h-3.95v-.33c0-4.35,0-8.69,0-13.04,0-.11,0-.22-.01-.32-.04-.29-.24-.48-.54-.49-.09,0-.18,0-.27,0-3.97,0-7.94,0-11.91,0h-.32v-3.97H21.08V23.97Zm-1.7-16.45h-1.11v1.1h1.11v-1.1Zm-5.11,5.12h-1.11v1.11h1.11v-1.11Zm-5.12,5.11h-1.1v1.11h1.1v-1.11Z"/><path class="cls-2" d="M25.61,22.61c-.23-.33-.54-.42-.83-.24-.29,.19-.34,.53-.11,.87,.15,.23,.31,.46,.48,.72h-2.9V5.47c0-.09,0-.18,0-.27-.02-.29-.21-.49-.5-.53-.11-.01-.23-.01-.35-.01-5.65,0-11.31,0-16.96,0h-.36v-1.73s.05,0,.06,0c.22,.15,.44,.29,.67,.44,.33,.22,.67,.18,.86-.1,.19-.29,.12-.61-.21-.84-.54-.37-1.08-.73-1.62-1.09-.19-.13-.41-.17-.61-.04-.61,.4-1.21,.8-1.8,1.21-.19,.13-.25,.35-.18,.58,.07,.24,.24,.4,.48,.4,.15,0,.31-.06,.44-.13,.25-.14,.48-.31,.75-.49V21.15c0,.17-.05,.26-.2,.34-1.63,.87-2,3.05-.75,4.42,.39,.43,.88,.67,1.4,.87h1.4c.1-.04,.19-.08,.29-.12,.67-.26,1.18-.7,1.51-1.34,.07-.14,.15-.19,.3-.19,6.03,0,12.06,0,18.09,0h.2c-.17,.25-.31,.47-.46,.68-.27,.41-.25,.62,.09,.96h.6c.45-.65,.89-1.29,1.34-1.93,.02-.02,.04-.04,.06-.06v-.4c-.39-.59-.79-1.17-1.18-1.76Zm-21.56,3.08c-.95,0-1.7-.76-1.7-1.72,0-.94,.76-1.68,1.71-1.68,.92,0,1.71,.79,1.7,1.71-.01,.95-.76,1.7-1.7,1.69Zm6.8-1.72h-3.94c-.04-.77-.3-1.45-.85-2-.55-.55-1.22-.81-2-.85v-5.09h6.78v7.93Zm5.13,0h-3.97v-.29c0-2.67,0-5.33,0-8,0-.62-.17-.79-.78-.79-2.28,0-4.56,0-6.84,0h-.32v-3.95H15.98v13.03Zm5.1,0h-3.95v-.33c0-4.35,0-8.69,0-13.04,0-.11,0-.22-.01-.32-.04-.29-.24-.48-.54-.49-.09,0-.18,0-.27,0-3.97,0-7.94,0-11.91,0h-.32v-3.97H21.08V23.97Zm-1.7-16.45h-1.11v1.1h1.11v-1.1Zm-5.11,5.12h-1.11v1.11h1.11v-1.11Zm-5.12,5.11h-1.1v1.11h1.1v-1.11Z"/></g></g></g></svg>