<?xml version="1.0" encoding="UTF-8"?><svg id="Layer_2" xmlns="http://www.w3.org/2000/svg" viewBox="0 0 28 28"><defs><style>.cls-1{fill:#0091ff;stroke:#0091ff;stroke-miterlimit:10;stroke-width:.35px;}.cls-2{fill:none;}</style></defs><g id="Layer_1-2"><g><rect class="cls-2" width="28" height="28"/><g><path class="cls-1" d="M.44,4.41c.12-.21,.21-.44,.37-.63,.24-.29,.58-.42,.96-.42,.42,0,.85,0,1.27,0,7.66,0,15.33,0,22.99,0,1.02,0,1.53,.52,1.53,1.53,0,5.6,0,11.19,0,16.79,0,1-.52,1.51-1.52,1.51-1.39,0-2.77,0-4.16,0-.5,0-.73-.44-.56-.77,.13-.25,.35-.29,.61-.29,1.09,0,2.19,0,3.28,0,.28,0,.57,0,.85,0,.37,0,.43-.06,.43-.43,0-2.81,0-5.61,0-8.42v-3.25H1.51v4.89h1.69c2.15,0,4.31,0,6.46,0,1.01,0,1.53,.52,1.53,1.54,0,.82,.01,1.64,0,2.46,0,.25-.13,.5-.18,.76-.02,.08-.02,.17,0,.26,.05,.26,.14,.51,.16,.77,.03,.46,0,.93,0,1.43h.34c1.77,0,3.55,0,5.32,0,.49,0,.73,.17,.74,.52,0,.36-.24,.54-.74,.54-1.77,0-3.53,0-5.3,0h-.33c-.02,.07-.03,.13-.04,.19-.08,.78-.61,1.27-1.39,1.27-1.86,0-3.73,0-5.59,0-.69,0-1.38-.03-2.07,0-.82,.04-1.4-.26-1.67-1.06V4.41Zm1.06,4.5H26.5v-.31c0-1.23,0-2.45,0-3.68,0-.47-.04-.51-.52-.51-6.36,0-12.71,0-19.07,0-1.65,0-3.3,0-4.95,0-.4,0-.46,.06-.46,.45,0,1.08,0,2.15,0,3.23,0,.26,0,.53,0,.81Zm4.29,11.4c-1.29,0-2.58,0-3.87,0-.35,0-.42,.07-.42,.41,0,.81,0,1.62,0,2.44,0,.34,.08,.42,.42,.42,2.59,0,5.17,0,7.76,0,.35,0,.42-.07,.42-.42,0-.81,0-1.62,0-2.44,0-.36-.06-.42-.41-.42-1.3,0-2.6,0-3.89,0Zm-4.26-2.17c-.01,.06-.02,.09-.02,.11,0,.2,0,.41,0,.61,0,.31,.07,.38,.4,.38,2.61,0,5.22,0,7.83,0,.33,0,.4-.07,.4-.4,0-.79,0-1.59,0-2.38,0-.44-.05-.48-.49-.48-2.55,0-5.1,0-7.65,0-.08,0-.18-.03-.23,.01-.1,.06-.24,.15-.25,.25-.03,.27-.01,.54-.01,.84,.12,0,.21,0,.31,0,.87,0,1.75,0,2.62,0,.1,0,.21,0,.31,.03,.25,.07,.4,.28,.39,.53-.02,.26-.21,.46-.47,.49-.12,.01-.25,0-.37,0-.92,0-1.83,0-2.76,0Z"/><path class="cls-1" d="M24.41,16.09c-.02,2.78-2.26,4.99-5.03,4.97-2.76-.02-4.98-2.28-4.95-5.04,.03-2.75,2.29-4.95,5.07-4.93,2.71,.02,4.94,2.29,4.91,5.01Zm-4.47,3.83c1.42,.1,3.36-1.82,3.32-3.27-.17,0-.33,0-.5,0-.35,0-.57-.22-.57-.53,0-.31,.22-.52,.57-.53,.18,0,.36,0,.54,0-.23-1.78-2.03-3.57-3.36-3.35,0,.17,0,.35,0,.52,0,.35-.21,.58-.51,.59-.31,.01-.54-.23-.55-.59,0-.18,0-.37,0-.55-1.67,.12-3.25,1.73-3.33,3.38,.18,0,.35,0,.53,0,.34,0,.57,.23,.56,.54,0,.3-.23,.51-.55,.52-.18,0-.36,0-.55,0,.26,1.99,2.07,3.24,3.35,3.27,0-.19-.02-.39,0-.58,.03-.28,.27-.47,.53-.46,.28,0,.49,.22,.51,.51,.01,.17,0,.35,0,.52Z"/><path class="cls-1" d="M19.94,22.64c0,.3-.23,.53-.54,.52-.28,0-.52-.24-.52-.53,0-.28,.24-.52,.52-.53,.29,0,.53,.23,.53,.53Z"/><path class="cls-1" d="M4.22,6.15c.29,0,.52,.22,.52,.51,0,.3-.23,.54-.52,.55-.29,0-.54-.26-.53-.54,0-.28,.24-.51,.53-.51Z"/><path class="cls-1" d="M6.86,6.66c0,.3-.23,.54-.52,.54-.28,0-.52-.24-.53-.52,0-.29,.23-.54,.53-.54,.29,0,.52,.22,.52,.51Z"/><path class="cls-1" d="M7.94,6.66c0-.3,.25-.52,.55-.51,.29,.01,.5,.25,.5,.54,0,.29-.24,.52-.53,.52-.29,0-.53-.25-.52-.55Z"/><path class="cls-1" d="M8.81,21.41c.29,0,.53,.25,.53,.54,0,.28-.25,.51-.53,.51-.29,0-.53-.25-.53-.54,0-.28,.25-.51,.53-.51Z"/><path class="cls-1" d="M7,18.14c-.29,0-.52-.21-.53-.5,0-.3,.22-.55,.52-.55,.29,0,.54,.25,.54,.54,0,.28-.24,.51-.53,.52Z"/><path class="cls-1" d="M19.38,15.33c.38-.42,.74-.81,1.11-1.21,.28-.31,.58-.36,.83-.14,.24,.21,.23,.54-.03,.84-.46,.51-.92,1.02-1.39,1.52-.31,.33-.56,.34-.91,.04-.24-.21-.48-.41-.72-.62-.27-.24-.32-.55-.12-.79,.2-.25,.53-.25,.82,0,.13,.11,.27,.23,.42,.36Z"/></g></g></g></svg>