<?xml version="1.0" encoding="UTF-8"?>
<svg id="Layer_2" data-name="Layer 2" xmlns="http://www.w3.org/2000/svg" viewBox="0 0 40 40">
  <defs>
    <style>
      .cls-1 {
        fill: #0091ff;
      }

      .cls-2 {
        fill: none;
      }
    </style>
  </defs>
  <g id="Layer_1-2" data-name="Layer 1">
    <g>
      <rect class="cls-2" width="40" height="40"/>
      <g>
        <path class="cls-1" d="m19.97,35.49c-5.15,0-10.29,0-15.44,0-1.53,0-2.55-.77-2.94-2.15-.3-1.09,0-2.09.86-2.76.98-.77,1.95-1.57,2.96-2.29.56-.4.78-.86.77-1.6-.03-5.38-.02-10.76-.02-16.14,0-1.79.36-2.18,1.99-2.19,7.82-.02,15.64-.04,23.47-.05,1.87,0,2.18.34,2.18,2.33,0,5.38.01,10.76-.02,16.14,0,.7.18,1.13.73,1.51.96.67,1.85,1.47,2.82,2.11,1.01.67,1.31,1.61,1.09,2.77-.22,1.19-1.17,2.11-2.31,2.28-.33.05-.68.03-1.01.04-5.05,0-10.09,0-15.14,0Zm-11.83-8.58h23.61c.03-.21.08-.35.08-.49,0-4.91.01-9.83,0-14.74,0-1.14-.41-1.5-1.64-1.5-6.88,0-13.75,0-20.63,0-1.26,0-1.42.17-1.42,1.5,0,3.9,0,7.8,0,11.71,0,1.15,0,2.3,0,3.53Zm11.81,6.55c2,0,3.99,0,5.99,0,3.15,0,6.3.02,9.44-.03.39,0,.77-.41,1.16-.62-.22-.39-.35-.9-.66-1.16-.97-.79-1.98-1.51-3.02-2.19-.38-.25-.87-.42-1.31-.42-7.72-.02-15.43-.02-23.15-.01-.29,0-.65,0-.87.15-1.27.89-2.53,1.81-3.75,2.77-.19.15-.32.58-.26.82.06.25.36.52.61.61.3.11.67.07,1,.07,4.94,0,9.88,0,14.82,0Z"/>
        <path class="cls-1" d="m23.41,5.65c.23.8-.57,2.02-1.05,1.85-.11-.04-.24-.47-.17-.55.35-.44.77-.83,1.22-1.3Z"/>
        <path class="cls-1" d="m16.86,5.58c.53.53.92.9,1.27,1.31.09.1.1.33.06.47-.02.08-.22.16-.33.15-.44-.03-1.09-1.1-1-1.93Z"/>
        <path class="cls-1" d="m20.28,4.51c.06.15.18.31.17.46-.04.55-.12,1.09-.19,1.63-.14-.05-.41-.1-.41-.16-.03-.65-.02-1.29-.02-1.94.15,0,.3,0,.45.01Z"/>
        <path class="cls-1" d="m20.08,11.86c2.91,0,5.82,0,8.74,0,1.27,0,1.43.16,1.44,1.46,0,3.68,0,7.37,0,11.05,0,1.29-.16,1.47-1.33,1.47-5.86,0-11.72,0-17.58.01-.92,0-1.35-.3-1.34-1.37.04-3.76.04-7.51,0-11.27-.01-1.06.4-1.38,1.34-1.37,2.91.04,5.82.01,8.74.01Zm-.06,1.21c-.02.27-.09.5-.03.69.41,1.38-.19,2.54-.72,3.69-.46.99-1.19,1.7-2.28,1.73-1.01.03-1.75-.6-2.19-1.51-.58-1.2-1.25-2.41-.84-3.88.06-.21-.02-.47-.04-.79-.77,0-1.48-.05-2.18.03-.23.03-.6.38-.6.59-.04,3.23-.03,6.46-.03,9.69.26-.3.39-.62.5-.95.4-1.17,1.04-2.1,2.21-2.51.25-.09.5-.24.69-.44.65-.68,1-.5,1.26.38.34,1.13.76,2.23,1.22,3.57.46-1.41.84-2.53,1.2-3.65.22-.71.52-.99,1.15-.39.3.28.68.47,1.05.64,1.42.63,2.29,1.74,2.71,3.29.12.44.21.9.31,1.31h5.68v-11.51h-9.07Zm-.85-.06c-1.29,0-2.64-.03-3.98.03-.23.01-.56.4-.64.68-.42,1.39.17,2.62.82,3.72.32.54,1.14,1.11,1.68,1.05.6-.06,1.33-.7,1.67-1.3.69-1.22,1.2-2.57.45-4.18Zm.93,10.43c.38-.34.64-.57.89-.8-.27-.23-.55-.46-.82-.69.02,0,.04-.01.05-.02-.26-.3-.52-.6-.78-.9-.04.12-.08.24-.13.37-.42.48-.85.95-1.44,1.62.62.09.91.13.9.13.39.48.61.75.83,1.02.18-.28.36-.55.49-.74Z"/>
        <path class="cls-1" d="m33.41,32.1H6.61c.24-.94,1.71-2.14,2.63-2.14,7.18,0,14.37-.02,21.55.01,1.26,0,1.91,1.1,2.63,2.13Z"/>
      </g>
    </g>
  </g>
</svg>