<?xml version="1.0" encoding="UTF-8"?>
<svg id="Layer_2" data-name="Layer 2" xmlns="http://www.w3.org/2000/svg" viewBox="0 0 40 40">
  <defs>
    <style>
      .cls-1 {
        fill: #0091ff;
      }

      .cls-2 {
        fill: none;
      }
    </style>
  </defs>
  <g id="Layer_1-2" data-name="Layer 1">
    <g>
      <rect class="cls-2" width="40" height="40"/>
      <path class="cls-1" d="m31.91,22.62c-.3-.08-.33-.23-.33-.48,0-6.71,0-13.42.02-20.13,0-.73-.19-1.26-.87-1.57H2.6c-.69.26-.93.77-.93,1.49.01,11.17,0,22.34,0,33.51,0,1.07.4,1.48,1.47,1.48,6.66,0,13.32,0,19.99,0,.26,0,.45.06.64.24,1.37,1.33,3.01,2.1,4.9,2.35.1.01.19.05.29.07h1.53c.79-.2,1.61-.31,2.35-.61,3.25-1.34,5.14-3.79,5.45-7.29.37-4.28-2.27-7.93-6.39-9.05Zm-8.87,2.94c-.37.46-.65,1-1,1.49-.08.11-.27.21-.42.21-1.62.01-3.24,0-4.85.01-.62,0-1.06.29-1.24.78-.29.8.28,1.57,1.18,1.58,1.34.01,2.68,0,4.01,0h.48c-.23,1.71,0,3.34.69,4.93H4.05V2.82h25.17c0,.12.02.25.02.39,0,6.24,0,12.48,0,18.72,0,.32-.08.42-.41.45-2.37.25-4.3,1.33-5.8,3.17Zm6.68,11.65c-3.47-.02-6.26-2.82-6.25-6.28,0-3.45,2.85-6.28,6.29-6.26,3.45.02,6.26,2.85,6.25,6.3-.01,3.46-2.83,6.26-6.29,6.24Zm-3.59-16.96c.52-.2.8-.75.7-1.3-.1-.53-.56-.93-1.14-.94-1.52,0-3.03,0-4.54,0h0c-1.45,0-2.9,0-4.35,0-.79,0-1.32.48-1.32,1.17,0,.67.52,1.18,1.28,1.18,2.94,0,5.88,0,8.82,0,.19,0,.38-.04.56-.1Zm-9.41-9.18c1.48.01,2.95,0,4.43,0,.62,0,1.25,0,1.87,0,.9,0,1.81.02,2.71-.01.74-.02,1.24-.67,1.1-1.39-.11-.57-.58-.93-1.26-.93-2.94,0-5.88,0-8.82,0-.08,0-.15,0-.23.01-.47.05-.86.37-1,.82-.23.79.31,1.49,1.19,1.5Zm-8.08.71c.68.67,1.3.67,1.98-.01,1.17-1.17,2.34-2.34,3.51-3.51.09-.09.18-.18.26-.28.54-.7.15-1.71-.71-1.87-.47-.09-.84.12-1.16.44-.95.96-1.9,1.91-2.91,2.92-.28-.29-.51-.56-.77-.81-.53-.52-1.22-.54-1.71-.07-.49.47-.47,1.2.05,1.73.48.49.97.97,1.46,1.46Zm.1,9.37c.55.54,1.21.54,1.76,0,1.25-1.24,2.49-2.48,3.73-3.73.51-.52.54-1.23.08-1.71-.48-.5-1.19-.49-1.73.05-.88.87-1.75,1.74-2.62,2.62-.11.11-.17.25-.29.42-.34-.36-.58-.62-.83-.87-.53-.52-1.26-.54-1.73-.06-.47.48-.45,1.18.07,1.71.52.53,1.04,1.05,1.57,1.57Zm3.84,3.88c-.89.88-1.77,1.76-2.65,2.65-.1.1-.15.24-.26.42-.35-.37-.58-.64-.83-.89-.54-.53-1.25-.55-1.73-.06-.47.48-.45,1.18.06,1.71.51.53,1.04,1.05,1.57,1.57.57.55,1.22.54,1.79-.02,1.24-1.23,2.47-2.46,3.7-3.7.53-.53.54-1.26.06-1.73-.48-.47-1.18-.45-1.7.07Zm21,2.23c-.3.06-.62.24-.84.46-1.37,1.34-2.72,2.72-4.12,4.12-.61-.61-1.17-1.18-1.74-1.75-.11-.11-.22-.22-.34-.31-.5-.38-1.15-.35-1.56.07-.44.44-.49,1.12-.05,1.58.95.99,1.92,1.97,2.92,2.92.45.43,1.08.44,1.52,0,1.75-1.72,3.48-3.47,5.22-5.21,0,0,.02-.02.02-.03.3-.41.35-.84.11-1.29-.25-.45-.65-.68-1.14-.58Z"/>
    </g>
  </g>
</svg>