<?xml version="1.0" encoding="UTF-8"?>
<svg id="Layer_2" data-name="Layer 2" xmlns="http://www.w3.org/2000/svg" viewBox="0 0 40 40">
  <defs>
    <style>
      .cls-1 {
        fill: #0091ff;
      }

      .cls-2 {
        fill: none;
      }
    </style>
  </defs>
  <g id="Layer_1-2" data-name="Layer 1">
    <g>
      <rect class="cls-2" width="40" height="40"/>
      <path class="cls-1" d="m32.37,29.26c-.13,0-.26,0-.38,0H2.32c-.62,0-.77-.13-.77-.67,0-7.77,0-15.54,0-23.31,0-.5.16-.66.67-.66.79,0,1.58,0,2.37,0,.45,0,.71-.22.71-.58,0-.35-.26-.57-.72-.57-.7,0-1.41.03-2.1,0-1.01-.05-1.73.31-2.07,1.3v24.35c.34.99,1.05,1.35,2.07,1.31,1.03-.04,2.07,0,3.1,0h.42c0,.35,0,.65,0,.94,0,1.16.46,1.63,1.61,1.63,1.66,0,3.32,0,4.98,0,.13,0,.26.01.43.02-.08.17-.13.29-.19.4-.78,1.53-1.57,3.06-2.35,4.59-.06.11-.12.23-.16.35-.1.3,0,.54.28.68.27.13.53.09.71-.17.07-.1.13-.22.19-.33.89-1.73,1.78-3.47,2.66-5.21.13-.26.28-.34.56-.33,1.86.01,3.73.01,5.59,0,.28,0,.43.08.56.33.88,1.74,1.77,3.47,2.66,5.21.07.14.14.28.24.39.2.22.48.26.68.08.15-.13.21-.4.25-.61.02-.11-.09-.26-.16-.38-.78-1.53-1.57-3.06-2.35-4.59-.06-.12-.12-.24-.21-.42h.48c1.63,0,3.27,0,4.9,0,1.21,0,1.67-.46,1.67-1.66v-.91h.52c.94,0,1.89,0,2.83,0,.4,0,.64-.22.64-.56,0-.35-.23-.57-.65-.59Zm-4.51,2.34c0,.08-.12.18-.21.21-.12.04-.25.02-.38.02-6.52,0-13.04,0-19.56,0q-.58,0-.58-.59v-.82h20.74c0,.4.01.79-.01,1.18Zm10.99-2.57c-.83-1.48-1.69-2.94-2.54-4.41-.1-.17-.2-.35-.29-.52.02-.05.03-.07.05-.09.1-.13.21-.25.31-.39,1.67-2.21,2.13-4.65,1.17-7.25-1.52-4.08-5.88-5.95-9.92-4.34-3.63,1.45-5.56,5.85-4.14,9.49,1.37,3.53,4.72,5.43,8.46,4.79.22-.04.32,0,.42.19.44.78.89,1.55,1.33,2.32.61,1.05,1.19,2.11,1.82,3.14.87,1.42,2.77,1.47,3.69.11.17-.25.25-.55.38-.83v-.69c-.25-.51-.47-1.04-.74-1.53Zm-8.29-3.72c-3.57-.04-6.41-2.85-6.37-6.32.04-3.59,2.85-6.41,6.35-6.38,3.49.03,6.38,2.89,6.35,6.28-.03,3.59-2.85,6.46-6.32,6.42Zm7.04,6.59c-.45.09-.86-.12-1.15-.63-.98-1.7-1.96-3.4-2.94-5.09-.04-.08-.08-.16-.13-.26.31-.16.63-.3.92-.47.28-.16.55-.36.85-.56.12.21.24.41.35.61.92,1.59,1.84,3.17,2.75,4.77.42.73.11,1.49-.65,1.64Zm-12.99-21.14c.13-.18.24-.26.49-.21,1.38.25,2.54-1.09,2.12-2.43-.23-.75-.76-1.2-1.53-1.33-.76-.12-1.39.15-1.84.77-.45.62-.48,1.3-.15,1.99.08.17.16.29.02.48-.96,1.32-1.9,2.65-2.86,3.97-.06.09-.21.18-.3.16-.66-.14-1.23.05-1.76.46-.63-.36-1.25-.7-1.86-1.07-.1-.06-.18-.24-.18-.36.02-1.16-.79-2.06-1.89-2.07-1.11-.02-1.95.89-1.93,2.07,0,.12-.08.3-.18.36-.61.37-1.24.71-1.87,1.07-.68-.53-1.38-.67-2.14-.31-.86.41-1.27,1.38-.99,2.28.28.91,1.22,1.48,2.16,1.31.92-.16,1.6-.99,1.56-1.94-.01-.27.06-.41.3-.54.51-.26,1-.55,1.5-.85.19-.11.31-.11.51.02.71.47,1.44.47,2.15,0,.2-.14.33-.11.51,0,.49.29.99.58,1.5.85.22.12.31.24.29.5-.04.85.44,1.57,1.2,1.86.73.28,1.59.08,2.1-.49.55-.62.67-1.48.26-2.2-.12-.22-.07-.34.05-.5.92-1.28,1.85-2.57,2.76-3.86Zm.84-2.85c.41.03.73.39.71.8-.02.41-.39.74-.79.71-.41-.03-.73-.38-.7-.8.02-.41.39-.74.79-.72Zm-15.86,8.87c-.41,0-.76-.35-.75-.76,0-.4.37-.76.77-.75.4,0,.75.37.75.77,0,.41-.35.75-.76.74Zm5.27-2.99c-.41,0-.75-.36-.75-.77s.37-.76.77-.75c.4,0,.76.37.75.77,0,.41-.37.75-.77.74Zm5.29,2.99c-.42,0-.76-.33-.76-.75,0-.41.34-.76.75-.77.4,0,.76.36.76.76,0,.41-.35.75-.76.76ZM6.97,4.61c.15.02.31.01.46.01,8.42,0,16.84,0,25.26,0,.62,0,.76.14.76.77,0,1.61,0,3.22,0,4.82,0,.1,0,.2,0,.31.02.37.23.61.55.61.35,0,.53-.22.58-.54.02-.11.01-.23.01-.34,0-1.61,0-3.22,0-4.82,0-1.32-.63-1.94-1.95-1.94-3.83,0-7.66,0-11.48,0h-.48c0-.35,0-.67,0-.98,0-.97-.57-1.56-1.53-1.57-1.1-.02-2.19-.01-3.29,0-.98.01-1.53.58-1.54,1.56,0,.33,0,.65,0,1h-.48c-2.17,0-4.34,0-6.51,0-.14,0-.28,0-.42.03-.3.07-.47.27-.45.58.02.3.2.49.51.53Zm8.51-2.22c.02-.12.21-.31.32-.32,1.13-.02,2.27-.02,3.4,0,.11,0,.3.2.32.32.04.34.02.68.02,1.05h-4.07c0-.37-.03-.72.02-1.05Zm.37,15.56c-.64,0-1.28,0-1.91,0-.63,0-.82.2-.82.83,0,1.24,0,2.47,0,3.71s0,2.58,0,3.87c0,.54.21.75.73.76.68,0,1.35,0,2.03,0,.51,0,.72-.22.72-.73,0-2.56,0-5.13,0-7.69,0-.53-.22-.74-.75-.74Zm-.42,7.99h-1.14v-6.83h1.14v6.83Zm5.72-5.04c-.69,0-1.38,0-2.06,0-.49,0-.69.22-.69.71,0,1.59,0,3.19,0,4.78,0,.51.21.72.72.73.66,0,1.33,0,1.99,0,.56,0,.76-.2.77-.76,0-.78,0-1.56,0-2.33,0-.8,0-1.61,0-2.41,0-.52-.2-.71-.72-.72Zm-.45,5.05h-1.13v-3.87h1.13v3.87Zm-10.17-5.05c-.65,0-1.3,0-1.95,0-.52,0-.73.2-.73.71,0,1.59,0,3.19,0,4.78,0,.53.22.72.76.73.64,0,1.27,0,1.91,0,.61,0,.81-.2.81-.8,0-.76,0-1.53,0-2.29s0-1.56,0-2.33c0-.61-.19-.79-.8-.8Zm-.37,5.05h-1.14v-3.88h1.14v3.88Zm14.65-.98c-.01-.42-.23-.67-.57-.67-.34,0-.57.25-.57.67,0,.48,0,.97,0,1.45,0,.49.21.7.69.71.69,0,1.37,0,2.06,0,.45,0,.7-.22.7-.58,0-.36-.25-.56-.71-.57-.52,0-1.04,0-1.61,0,0-.37,0-.69,0-1.01Zm10.65-8.29c-.14-.29-.39-.42-.7-.31-.31.11-.43.35-.36.67.03.16.1.32.15.47,1.08,3.03-1.35,6.1-4.53,5.73-2.22-.26-3.89-2.2-3.79-4.4.1-2.28,1.9-4.09,4.15-4.16,1-.03,1.9.28,2.73.84.33.23.66.15.84-.13.18-.28.1-.6-.22-.83-.96-.68-2.04-1.03-3.45-1.04-.23.04-.69.07-1.13.2-2.74.79-4.3,3.1-4.02,5.93.29,3,3.41,5.3,6.35,4.68,2.6-.54,4.29-2.45,4.49-5.1.07-.89-.12-1.75-.51-2.56Z"/>
    </g>
  </g>
</svg>