<?xml version="1.0" encoding="UTF-8"?>
<svg id="Layer_2" data-name="Layer 2" xmlns="http://www.w3.org/2000/svg" viewBox="0 0 40 40">
  <defs>
    <style>
      .cls-1 {
        fill: #0091ff;
      }

      .cls-2 {
        stroke: #0091ff;
        stroke-miterlimit: 10;
        stroke-width: .25px;
      }

      .cls-2, .cls-3 {
        fill: none;
      }
    </style>
  </defs>
  <g id="Layer_1-2" data-name="Layer 1">
    <g>
      <rect class="cls-3" width="40" height="40"/>
      <g>
        <path class="cls-1" d="m38.98,36.61c-.02-.87.02-1.75-.12-2.59-.48-2.75-2.02-4.73-4.53-5.96-.11-.05-.22-.24-.23-.36-.02-.67,0-1.35-.01-2.03,0-1.91-1.31-3.22-3.22-3.22-1.52,0-3.03,0-4.55,0-.13,0-.26-.01-.34-.01.41-1.05.81-2.08,1.22-3.11.05-.12.15-.24.25-.32.73-.6,1.49-1.17,2.2-1.78.69-.6.93-1.39.69-2.28-.24-.87-.83-1.41-1.72-1.61-.12-.03-.23-.06-.36-.09.05-.15.09-.27.13-.39.43-1.2.9-2.38,1.29-3.59,1.25-3.9-1.55-8.05-5.63-8.19-2.7-.1-5.41-.06-8.1.15-3.04.23-5.85,1.32-8.43,2.95-.18.11-.35.42-.32.61.02.19.26.43.46.52.4.19.84.29,1.26.43,1.02.35,1.42,1.15,1.08,2.17-.27.8-.22,1.58.16,2.33.45.89.89,1.77,1.34,2.66.06.12.11.24.16.37-.07.03-.1.05-.14.05-.98.2-1.63.77-1.85,1.76-.22.99.17,1.76.95,2.37.65.51,1.3,1.03,1.94,1.55.1.08.21.17.25.28.42,1.05.82,2.1,1.24,3.18.02,0,0,0,0,0-1.68,0-3.37,0-5.05.01-1.51.01-2.78,1.04-2.99,2.54-.12.83-.07,1.68-.06,2.52,0,.35-.11.5-.42.65-2.55,1.29-4.07,3.36-4.41,6.2-.14,1.21-.07,2.44-.09,3.67,0,.8.15.95.96.95h36.04c.09,0,.18,0,.27,0,.45-.02.68-.24.69-.69,0-.56.02-1.12,0-1.68Zm-33.08,1.12h-3.66c.06-1.55-.17-3.1.37-4.6.56-1.55,1.53-2.75,2.93-3.6.1-.06.22-.11.36-.19v8.39ZM29.1,15.13c.18.43.08.88-.3,1.21-.33.29-.68.55-1.07.86.09-.94.17-1.81.26-2.68.53-.05.93.17,1.11.61Zm-17.99,1.11c-.32-.31-.38-.71-.2-1.13.18-.42.55-.62,1.11-.61.08.87.17,1.74.26,2.7-.43-.35-.82-.63-1.16-.96Zm1.09-4.63c-.36-.73-.75-1.41-1.04-2.13-.12-.31-.14-.72-.06-1.04.52-1.92.02-3.06-1.8-3.9.11-.07.19-.13.29-.18,2.64-1.34,5.45-2.05,8.41-2.11,1.87-.03,3.75-.02,5.62,0,3.49.02,5.92,3.38,4.85,6.69-.16.51-.36,1-.58,1.51-.25-1.91-1.5-3.3-2.47-4.83-.24-.38-.6-.42-.95-.15-.45.34-.88.7-1.31,1.05-.99.82-2.12,1.23-3.41,1.24-1.26.01-2.4.41-3.44,1.1-1.35.91-2.71,1.81-4.11,2.74Zm1.07.92c0-.09.09-.21.17-.26,1.29-.87,2.58-1.74,3.88-2.58.69-.44,1.46-.69,2.28-.69,1.77,0,3.29-.59,4.61-1.74.16-.14.34-.27.49-.4,1.66,1.83,2.36,3.94,1.95,6.41h-.56c-1.52,0-3.03,0-4.55,0-.78,0-.93.15-.94.94,0,.08,0,.15,0,.29h-1.22c0-.18,0-.34,0-.5-.01-.5-.23-.72-.73-.72-1.64,0-3.29,0-4.93,0h-.46c0-.27-.02-.51,0-.74Zm10.99,3.91c-.02.29-.25.48-.55.49-.43.02-.86.02-1.3,0-.35-.02-.57-.26-.58-.63-.01-.58,0-1.17,0-1.79h2.44c0,.65.02,1.29-.01,1.93Zm-6.11-.05c-.01.33-.24.53-.58.55-.42.02-.84.02-1.26,0-.35-.02-.58-.22-.59-.58-.02-.61,0-1.21,0-1.85h2.44c0,.64.02,1.26,0,1.87Zm-4.87-1.51c0-.11,0-.22,0-.37h1.21c0,.52,0,1.04,0,1.56,0,1.38.72,2.1,2.09,2.11.32,0,.64,0,.96,0,1.05-.02,1.83-.79,1.85-1.84,0-.19,0-.38,0-.59h1.23c0,.19,0,.39,0,.58.02,1.05.8,1.82,1.85,1.84.41,0,.82,0,1.22,0,1.02-.02,1.8-.8,1.82-1.83.01-.6,0-1.19,0-1.81h1.22c-.03.45-.04.9-.09,1.35-.24,2.23-.91,4.33-2.01,6.29-.13.23-.28.31-.54.31-2.73,0-5.46,0-8.19,0-.26,0-.41-.07-.54-.31-1.28-2.26-1.96-4.69-2.09-7.28Zm19.58,22.41v.44H7.14v-.44c0-3.85,0-7.7,0-11.55,0-1.35.73-2.07,2.09-2.07h21.53c1.38,0,2.09.72,2.1,2.1,0,3.84,0,7.68,0,11.51Zm4.9.47h-3.65v-8.42c.89.45,1.61,1.06,2.2,1.82.93,1.19,1.41,2.55,1.44,4.07.02.83,0,1.66,0,2.54Zm-17.77-6.73c-1.34,0-2.43,1.1-2.43,2.44,0,1.35,1.1,2.46,2.45,2.46,1.35,0,2.45-1.11,2.45-2.46,0-1.35-1.11-2.45-2.47-2.44Zm.04,3.67c-.67,0-1.22-.53-1.24-1.19-.02-.67.52-1.23,1.18-1.25.69-.02,1.26.53,1.26,1.21,0,.67-.54,1.22-1.2,1.23Zm-3.27-9.34c-.3-.3-.57-.58-.85-.86-.83.82-1.66,1.63-2.47,2.46-.22.23-.24.54-.02.76.82.83,1.66,1.65,2.47,2.45.28-.27.57-.53.89-.84-.67-.67-1.33-1.32-2.01-2,.67-.66,1.33-1.32,1.99-1.98Zm7.38-.8c-.28.25-.57.52-.9.82.67.66,1.33,1.31,2.02,1.99-.68.67-1.33,1.32-1.97,1.95.29.31.56.6.83.89.83-.83,1.66-1.64,2.47-2.46.22-.23.24-.54.02-.76-.82-.83-1.66-1.64-2.46-2.42Zm-1.81.71c-.35-.26-.65-.48-.98-.73-1.22,1.63-2.43,3.24-3.67,4.89.34.25.65.49.98.73,1.24-1.65,2.45-3.27,3.67-4.9Z"/>
        <path class="cls-2" d="m38.98,36.61c-.02-.87.02-1.75-.12-2.59-.48-2.75-2.02-4.73-4.53-5.96-.11-.05-.22-.24-.23-.36-.02-.67,0-1.35-.01-2.03,0-1.91-1.31-3.22-3.22-3.22-1.52,0-3.03,0-4.55,0-.13,0-.26-.01-.34-.01.41-1.05.81-2.08,1.22-3.11.05-.12.15-.24.25-.32.73-.6,1.49-1.17,2.2-1.78.69-.6.93-1.39.69-2.28-.24-.87-.83-1.41-1.72-1.61-.12-.03-.23-.06-.36-.09.05-.15.09-.27.13-.39.43-1.2.9-2.38,1.29-3.59,1.25-3.9-1.55-8.05-5.63-8.19-2.7-.1-5.41-.06-8.1.15-3.04.23-5.85,1.32-8.43,2.95-.18.11-.35.42-.32.61.02.19.26.43.46.52.4.19.84.29,1.26.43,1.02.35,1.42,1.15,1.08,2.17-.27.8-.22,1.58.16,2.33.45.89.89,1.77,1.34,2.66.06.12.11.24.16.37-.07.03-.1.05-.14.05-.98.2-1.63.77-1.85,1.76-.22.99.17,1.76.95,2.37.65.51,1.3,1.03,1.94,1.55.1.08.21.17.25.28.42,1.05.82,2.1,1.24,3.18.02,0,0,0,0,0-1.68,0-3.37,0-5.05.01-1.51.01-2.78,1.04-2.99,2.54-.12.83-.07,1.68-.06,2.52,0,.35-.11.5-.42.65-2.55,1.29-4.07,3.36-4.41,6.2-.14,1.21-.07,2.44-.09,3.67,0,.8.15.95.96.95h36.04c.09,0,.18,0,.27,0,.45-.02.68-.24.69-.69,0-.56.02-1.12,0-1.68Zm-33.08,1.12h-3.66c.06-1.55-.17-3.1.37-4.6.56-1.55,1.53-2.75,2.93-3.6.1-.06.22-.11.36-.19v8.39ZM29.1,15.13c.18.43.08.88-.3,1.21-.33.29-.68.55-1.07.86.09-.94.17-1.81.26-2.68.53-.05.93.17,1.11.61Zm-17.99,1.11c-.32-.31-.38-.71-.2-1.13.18-.42.55-.62,1.11-.61.08.87.17,1.74.26,2.7-.43-.35-.82-.63-1.16-.96Zm1.09-4.63c-.36-.73-.75-1.41-1.04-2.13-.12-.31-.14-.72-.06-1.04.52-1.92.02-3.06-1.8-3.9.11-.07.19-.13.29-.18,2.64-1.34,5.45-2.05,8.41-2.11,1.87-.03,3.75-.02,5.62,0,3.49.02,5.92,3.38,4.85,6.69-.16.51-.36,1-.58,1.51-.25-1.91-1.5-3.3-2.47-4.83-.24-.38-.6-.42-.95-.15-.45.34-.88.7-1.31,1.05-.99.82-2.12,1.23-3.41,1.24-1.26.01-2.4.41-3.44,1.1-1.35.91-2.71,1.81-4.11,2.74Zm1.07.92c0-.09.09-.21.17-.26,1.29-.87,2.58-1.74,3.88-2.58.69-.44,1.46-.69,2.28-.69,1.77,0,3.29-.59,4.61-1.74.16-.14.34-.27.49-.4,1.66,1.83,2.36,3.94,1.95,6.41h-.56c-1.52,0-3.03,0-4.55,0-.78,0-.93.15-.94.94,0,.08,0,.15,0,.29h-1.22c0-.18,0-.34,0-.5-.01-.5-.23-.72-.73-.72-1.64,0-3.29,0-4.93,0h-.46c0-.27-.02-.51,0-.74Zm10.99,3.91c-.02.29-.25.48-.55.49-.43.02-.86.02-1.3,0-.35-.02-.57-.26-.58-.63-.01-.58,0-1.17,0-1.79h2.44c0,.65.02,1.29-.01,1.93Zm-6.11-.05c-.01.33-.24.53-.58.55-.42.02-.84.02-1.26,0-.35-.02-.58-.22-.59-.58-.02-.61,0-1.21,0-1.85h2.44c0,.64.02,1.26,0,1.87Zm-4.87-1.51c0-.11,0-.22,0-.37h1.21c0,.52,0,1.04,0,1.56,0,1.38.72,2.1,2.09,2.11.32,0,.64,0,.96,0,1.05-.02,1.83-.79,1.85-1.84,0-.19,0-.38,0-.59h1.23c0,.19,0,.39,0,.58.02,1.05.8,1.82,1.85,1.84.41,0,.82,0,1.22,0,1.02-.02,1.8-.8,1.82-1.83.01-.6,0-1.19,0-1.81h1.22c-.03.45-.04.9-.09,1.35-.24,2.23-.91,4.33-2.01,6.29-.13.23-.28.31-.54.31-2.73,0-5.46,0-8.19,0-.26,0-.41-.07-.54-.31-1.28-2.26-1.96-4.69-2.09-7.28Zm19.58,22.41v.44H7.14v-.44c0-3.85,0-7.7,0-11.55,0-1.35.73-2.07,2.09-2.07h21.53c1.38,0,2.09.72,2.1,2.1,0,3.84,0,7.68,0,11.51Zm4.9.47h-3.65v-8.42c.89.45,1.61,1.06,2.2,1.82.93,1.19,1.41,2.55,1.44,4.07.02.83,0,1.66,0,2.54Zm-17.77-6.73c-1.34,0-2.43,1.1-2.43,2.44,0,1.35,1.1,2.46,2.45,2.46,1.35,0,2.45-1.11,2.45-2.46,0-1.35-1.11-2.45-2.47-2.44Zm.04,3.67c-.67,0-1.22-.53-1.24-1.19-.02-.67.52-1.23,1.18-1.25.69-.02,1.26.53,1.26,1.21,0,.67-.54,1.22-1.2,1.23Zm-3.27-9.34c-.3-.3-.57-.58-.85-.86-.83.82-1.66,1.63-2.47,2.46-.22.23-.24.54-.02.76.82.83,1.66,1.65,2.47,2.45.28-.27.57-.53.89-.84-.67-.67-1.33-1.32-2.01-2,.67-.66,1.33-1.32,1.99-1.98Zm7.38-.8c-.28.25-.57.52-.9.82.67.66,1.33,1.31,2.02,1.99-.68.67-1.33,1.32-1.97,1.95.29.31.56.6.83.89.83-.83,1.66-1.64,2.47-2.46.22-.23.24-.54.02-.76-.82-.83-1.66-1.64-2.46-2.42Zm-1.81.71c-.35-.26-.65-.48-.98-.73-1.22,1.63-2.43,3.24-3.67,4.89.34.25.65.49.98.73,1.24-1.65,2.45-3.27,3.67-4.9Z"/>
      </g>
    </g>
  </g>
</svg>