<?xml version="1.0" encoding="UTF-8"?>
<svg id="Layer_2" data-name="Layer 2" xmlns="http://www.w3.org/2000/svg" viewBox="0 0 28 28">
  <defs>
    <style>
      .cls-1 {
        fill: #0091ff;
      }

      .cls-2 {
        fill: none;
      }
    </style>
  </defs>
  <g id="Layer_1-2" data-name="Layer 1">
    <g>
      <rect class="cls-2" width="28" height="28"/>
      <path class="cls-1" d="m9.05,4.06c-.03-.6-.48-.97-1.08-.98-.77,0-1.55,0-2.32,0-.64,0-1.08.44-1.1,1.08-.01.39,0,.77,0,1.16,0,.41-.01.81,0,1.22.02.63.46,1.07,1.08,1.07.78.01,1.56,0,2.35,0,.6,0,1.05-.39,1.08-.99.04-.85.04-1.71,0-2.56Zm-1.07,2.46h-2.34v-2.35h2.34v2.35Zm1.09,4.12c-.02-.67-.47-1.08-1.14-1.08-.75,0-1.49,0-2.24,0-.7,0-1.14.44-1.15,1.15,0,.37,0,.74,0,1.11s0,.76,0,1.13c.01.71.45,1.14,1.15,1.15.75,0,1.49,0,2.24,0,.66,0,1.11-.41,1.14-1.08.03-.79.03-1.59,0-2.38Zm-1.09,2.36h-2.34v-2.35h2.34v2.35Zm-2.28,3.04c-.7,0-1.14.44-1.15,1.15,0,.37,0,.74,0,1.11h0c0,.4,0,.79,0,1.19.02.66.46,1.09,1.12,1.09.75,0,1.51,0,2.26,0,.66,0,1.11-.42,1.14-1.08.03-.79.03-1.58,0-2.38-.02-.67-.47-1.08-1.14-1.08-.75,0-1.49,0-2.24,0Zm2.28,3.44h-2.33v-2.35h2.33v2.35Zm3.52-5.39c.06,0,.13,0,.19,0h5.72c.07,0,.14,0,.22,0,.34-.02.55-.24.55-.55,0-.29-.21-.5-.54-.53-.06,0-.13,0-.19,0h-5.8c-.05,0-.11,0-.16,0-.34.02-.56.23-.56.53,0,.32.22.53.58.55Zm4.26-6.49c.58,0,1.17,0,1.75,0,.42,0,.66-.21.66-.55,0-.33-.24-.53-.64-.53-1.17,0-2.34,0-3.5,0-.4,0-.64.21-.63.55,0,.33.24.53.64.53.57,0,1.15,0,1.72,0Zm-4.3,0c.29,0,.53-.26.52-.54,0-.29-.26-.53-.54-.53-.29,0-.52.25-.52.54,0,.29.25.53.54.53Zm1.26,16.23c-.28,0-.54.24-.55.52,0,.28.24.54.52.55.28,0,.54-.24.55-.52,0-.28-.24-.54-.52-.55ZM26.36,3.49c.04-1.91-1.35-3.15-2.69-3.29-.02,0-.05-.02-.07-.04H4.4s-.05.03-.07.04c-1.33.15-2.7,1.37-2.69,3.27.02,6.55,0,13.1,0,19.65,0,1.13.66,1.8,1.79,1.8,2.24,0,4.48,0,6.72,0,.11,0,.22,0,.32-.02.25-.06.4-.26.41-.5,0-.26-.15-.47-.41-.53-.11-.03-.23-.02-.35-.02-2.23,0-4.46,0-6.69,0-.51,0-.7-.19-.7-.7,0-6.58,0-13.15,0-19.73,0-1.28.87-2.16,2.15-2.17,5.25,0,10.5,0,15.75,0,.06,0,.13.01.23.03-.64.75-.77,1.62-.76,2.53.01,5.56,0,11.12,0,16.67,0,.11,0,.22,0,.32-.06.64-.72,1-1.3.72-.26-.13-.4-.35-.49-.62-.27-.8-.52-1.61-.81-2.4-.28-.76-1.03-1.19-1.8-1.07-.8.12-1.37.73-1.44,1.55-.01.17-.02.34-.03.54h-.3c-.79,0-1.58,0-2.37,0-.4,0-.64.21-.64.54s.24.54.64.54c.76,0,1.53,0,2.29,0h.39v.33c0,.73-.02,1.46,0,2.19.02.52.03,1.06.18,1.55.28.9.64,1.77,1,2.65.08.2.27.36.41.54h.27c.44-.23.52-.43.33-.9-.22-.54-.44-1.08-.67-1.62-.29-.68-.44-1.39-.44-2.12,0-1.31,0-2.63,0-3.94,0-.14.02-.29.07-.42.1-.24.31-.35.56-.34.29.01.47.2.56.47.26.77.51,1.54.77,2.3.15.46.41.84.82,1.1.64.4,1.3.45,1.97.11.71-.36,1.06-.97,1.09-1.76.02-.39,0-.77,0-1.16v-8.08c1.24,1.09,2.18,2.33,2.52,3.94.11.52.18,1.07.18,1.6.02,2.01.01,4.02,0,6.02-.01,1.29-.31,2.53-.82,3.72-.02.06-.05.11-.08.17-.19.45-.12.67.3.91h.27c.15-.17.34-.33.43-.52.63-1.38.97-2.84.98-4.36.01-2.04.02-4.09,0-6.13-.03-2.16-.87-3.98-2.38-5.5-.37-.37-.72-.75-1.11-1.1-.25-.22-.35-.46-.26-.82h.27c1.04,0,2.08,0,3.13,0,1.08,0,1.75-.68,1.76-1.75,0-1.39-.02-2.77,0-4.16Zm-1.62,4.82c-1.18.01-2.35,0-3.56,0v-3.38c0-.55-.01-1.1,0-1.65.03-.92.59-1.68,1.42-1.94.86-.27,1.73,0,2.28.74.28.37.4.8.4,1.26,0,1.44,0,2.88,0,4.32,0,.4-.19.64-.54.64Z"/>
    </g>
  </g>
</svg>