<?xml version="1.0" encoding="UTF-8"?>
<svg id="Layer_2" data-name="Layer 2" xmlns="http://www.w3.org/2000/svg" viewBox="0 0 40 40">
  <defs>
    <style>
      .cls-1 {
        fill: #0091ff;
      }

      .cls-2 {
        stroke: #0091ff;
        stroke-miterlimit: 10;
        stroke-width: .32px;
      }

      .cls-2, .cls-3 {
        fill: none;
      }
    </style>
  </defs>
  <g id="Layer_1-2" data-name="Layer 1">
    <g>
      <rect class="cls-3" width="40" height="40"/>
      <g>
        <path class="cls-1" d="m38.37,33.72c-.72.03-1.43,0-2.18,0v-.49c0-4.29,0-8.58,0-12.87,0-.14,0-.28,0-.42-.04-.44-.37-.76-.79-.76-.42,0-.76.32-.81.75-.01.12,0,.25,0,.38,0,4.32,0,8.63,0,12.95v.43H5.44c0-.09-.01-.15-.01-.21,0-5.83,0-11.66,0-17.49,0-.98.7-1.65,1.69-1.66,1.81,0,3.62,0,5.43,0,.61,0,.98-.32.98-.81,0-.48-.37-.79-.95-.79-1.82,0-3.64-.01-5.46,0-.41,0-.84.07-1.22.21-1.33.49-2.07,1.66-2.07,3.2,0,5.69,0,11.38,0,17.08v.49c-.77,0-1.48.02-2.18,0-.5-.02-.86.15-1.06.61v.45c.24.43.61.57,1.1.56,1.26-.03,2.53,0,3.79,0,10.96,0,21.91,0,32.87,0,.49,0,.86-.13,1.1-.56v-.45c-.2-.47-.56-.63-1.06-.61ZM15.51,15.79c.53.12,1.06.25,1.58.38.57.14,1.14.28,1.74.42-.36.56-.16.96.24,1.34,1.83,1.81,3.65,3.64,5.48,5.46.44.44.69.48,1.28.2.03.11.06.2.08.28.24.99.48,1.98.71,2.98.08.36.25.64.63.73.36.09.65-.05.87-.32.33-.41.7-.8.99-1.24,1.38-2.1,1.9-4.45,2.05-6.92.01-.19.11-.42.24-.55,1.84-1.7,3.32-3.67,4.45-5.89,1.11-2.18,1.82-4.48,1.95-6.94.04-.76-.27-1.11-1.01-1.06-.74.05-1.49.11-2.22.26-4.19.88-7.7,2.95-10.62,6.05-.2.21-.4.29-.68.32-.99.12-1.99.2-2.96.41-1.94.42-3.71,1.22-5.18,2.61-.26.25-.39.53-.3.88.09.34.34.51.67.59Zm12.35,9.21c-.22-.91-.42-1.72-.61-2.54-.01-.06,0-.17.03-.2.68-.63,1.37-1.25,2.14-1.94-.24,1.7-.67,3.22-1.57,4.68Zm-2.07-13.58c2.65-2.64,5.83-4.34,9.54-5.01.25-.04.5-.06.85-.1-.17.82-.28,1.6-.49,2.35-1.03,3.6-2.99,6.61-5.82,9.07-1.45,1.26-2.85,2.57-4.28,3.85-.08.08-.17.15-.25.23-1.59-1.58-3.15-3.14-4.73-4.73.16-.17.33-.37.5-.56,1.55-1.71,3.05-3.48,4.68-5.11Zm-3.77,1.68c-.11.12-.22.24-.33.37-.46.52-.92,1.04-1.4,1.54-.08.09-.24.18-.34.16-.81-.17-1.61-.37-2.53-.59,1.47-.9,2.97-1.32,4.6-1.48Zm-7.42,15.73c.29-.08.58-.17.87-.27,1.69-.56,3.39-1.09,4.94-1.99,1.33-.77,1.91-2.27,1.5-3.74-.4-1.46-1.7-2.44-3.5-2.45-.95.04-1.94.51-2.56,1.58-1.06,1.85-1.69,3.88-2.29,5.9-.19.64.39,1.14,1.04.96Zm2.68-6.11c.34-.56,1.07-.83,1.72-.69.73.15,1.26.69,1.38,1.38.12.72-.14,1.44-.76,1.75-.97.47-1.98.87-2.98,1.29-.32.13-.66.23-1.06.37.51-1.45.94-2.84,1.7-4.1Z"/>
        <path class="cls-2" d="m38.37,33.72c-.72.03-1.43,0-2.18,0v-.49c0-4.29,0-8.58,0-12.87,0-.14,0-.28,0-.42-.04-.44-.37-.76-.79-.76-.42,0-.76.32-.81.75-.01.12,0,.25,0,.38,0,4.32,0,8.63,0,12.95v.43H5.44c0-.09-.01-.15-.01-.21,0-5.83,0-11.66,0-17.49,0-.98.7-1.65,1.69-1.66,1.81,0,3.62,0,5.43,0,.61,0,.98-.32.98-.81,0-.48-.37-.79-.95-.79-1.82,0-3.64-.01-5.46,0-.41,0-.84.07-1.22.21-1.33.49-2.07,1.66-2.07,3.2,0,5.69,0,11.38,0,17.08v.49c-.77,0-1.48.02-2.18,0-.5-.02-.86.15-1.06.61v.45c.24.43.61.57,1.1.56,1.26-.03,2.53,0,3.79,0,10.96,0,21.91,0,32.87,0,.49,0,.86-.13,1.1-.56v-.45c-.2-.47-.56-.63-1.06-.61ZM15.51,15.79c.53.12,1.06.25,1.58.38.57.14,1.14.28,1.74.42-.36.56-.16.96.24,1.34,1.83,1.81,3.65,3.64,5.48,5.46.44.44.69.48,1.28.2.03.11.06.2.08.28.24.99.48,1.98.71,2.98.08.36.25.64.63.73.36.09.65-.05.87-.32.33-.41.7-.8.99-1.24,1.38-2.1,1.9-4.45,2.05-6.92.01-.19.11-.42.24-.55,1.84-1.7,3.32-3.67,4.45-5.89,1.11-2.18,1.82-4.48,1.95-6.94.04-.76-.27-1.11-1.01-1.06-.74.05-1.49.11-2.22.26-4.19.88-7.7,2.95-10.62,6.05-.2.21-.4.29-.68.32-.99.12-1.99.2-2.96.41-1.94.42-3.71,1.22-5.18,2.61-.26.25-.39.53-.3.88.09.34.34.51.67.59Zm12.35,9.21c-.22-.91-.42-1.72-.61-2.54-.01-.06,0-.17.03-.2.68-.63,1.37-1.25,2.14-1.94-.24,1.7-.67,3.22-1.57,4.68Zm-2.07-13.58c2.65-2.64,5.83-4.34,9.54-5.01.25-.04.5-.06.85-.1-.17.82-.28,1.6-.49,2.35-1.03,3.6-2.99,6.61-5.82,9.07-1.45,1.26-2.85,2.57-4.28,3.85-.08.08-.17.15-.25.23-1.59-1.58-3.15-3.14-4.73-4.73.16-.17.33-.37.5-.56,1.55-1.71,3.05-3.48,4.68-5.11Zm-3.77,1.68c-.11.12-.22.24-.33.37-.46.52-.92,1.04-1.4,1.54-.08.09-.24.18-.34.16-.81-.17-1.61-.37-2.53-.59,1.47-.9,2.97-1.32,4.6-1.48Zm-7.42,15.73c.29-.08.58-.17.87-.27,1.69-.56,3.39-1.09,4.94-1.99,1.33-.77,1.91-2.27,1.5-3.74-.4-1.46-1.7-2.44-3.5-2.45-.95.04-1.94.51-2.56,1.58-1.06,1.85-1.69,3.88-2.29,5.9-.19.64.39,1.14,1.04.96Zm2.68-6.11c.34-.56,1.07-.83,1.72-.69.73.15,1.26.69,1.38,1.38.12.72-.14,1.44-.76,1.75-.97.47-1.98.87-2.98,1.29-.32.13-.66.23-1.06.37.51-1.45.94-2.84,1.7-4.1Z"/>
      </g>
    </g>
  </g>
</svg>