<?xml version="1.0" encoding="UTF-8"?>
<svg id="Layer_2" data-name="Layer 2" xmlns="http://www.w3.org/2000/svg" viewBox="0 0 40 40">
  <defs>
    <style>
      .cls-1 {
        fill: #0091ff;
      }

      .cls-2 {
        fill: none;
      }
    </style>
  </defs>
  <g id="Layer_1-2" data-name="Layer 1">
    <g>
      <rect class="cls-2" x=".23" y=".41" width="39.77" height="39.59"/>
      <g>
        <path class="cls-1" d="m5.9,5.64c-1.53,0-3.01.01-4.49,0-1.03-.01-1.65-.93-1.31-1.9.19-.56.62-.9,1.22-.91,1.94-.01,3.88-.02,5.82,0,.7,0,1.21.48,1.35,1.22.27,1.37.53,2.74.78,4.11.04.24.11.36.38.36,4.28-.02,8.56-.04,12.83-.06.03,0,.05-.02.06-.02.12-.73.19-1.46.38-2.16C23.96,2.4,27.55-.19,31.56.01c3.88.19,7.17,3.12,7.88,7,.64,3.54-1.14,7.19-4.34,8.89-.35.18-.51.4-.58.78-.69,3.53-1.38,7.06-2.12,10.57-.36,1.74-1.28,3.09-3.09,3.62-.43.13-.9.16-1.35.16-4.42.01-8.85-.05-13.27.03-2.86.05-4.31-1.92-4.69-3.9-1.34-7.02-2.66-14.04-3.99-21.06-.03-.14-.07-.28-.11-.46Zm3.98,5.65c.03.18.04.3.06.43.84,4.46,1.68,8.91,2.53,13.37.14.73.29,1.47.53,2.17.18.54.54.96,1.22.96,4.66,0,9.32,0,13.98,0,.43,0,.78-.15.96-.51.24-.48.46-.98.57-1.5.46-2.17.88-4.34,1.31-6.52.18-.91.36-1.82.54-2.75-.11,0-.17-.01-.23-.01-3.85-.05-6.55-1.85-8.11-5.35-.13-.29-.31-.29-.55-.29-4.12,0-8.23,0-12.35,0-.14,0-.29,0-.47,0Zm26.84-2.83c0-3.13-2.5-5.64-5.62-5.64-3.13,0-5.67,2.52-5.67,5.65,0,3.13,2.54,5.64,5.68,5.64,3.12,0,5.61-2.52,5.61-5.65Z"/>
        <path class="cls-1" d="m31.08,36.7c0,1.55-1.29,2.82-2.85,2.81-1.52-.01-2.8-1.31-2.8-2.83,0-1.53,1.32-2.82,2.86-2.81,1.54.02,2.79,1.29,2.78,2.83Z"/>
        <path class="cls-1" d="m16.96,36.68c0,1.56-1.27,2.83-2.83,2.83-1.52,0-2.81-1.28-2.82-2.81-.01-1.53,1.3-2.84,2.84-2.83,1.54,0,2.8,1.27,2.8,2.81Z"/>
        <path class="cls-1" d="m32.49,7.06c.5,0,.93,0,1.37,0,.89.02,1.45.58,1.45,1.43,0,.84-.56,1.38-1.43,1.39-.44,0-.88,0-1.39,0,0,.49,0,.95,0,1.42-.02,1.14-1.11,1.78-2.11,1.26-.5-.26-.69-.7-.7-1.23-.01-.47,0-.93,0-1.44-.52,0-.98,0-1.45,0-.86-.01-1.42-.56-1.44-1.39-.02-.82.56-1.4,1.41-1.43.47-.01.94,0,1.48,0,0-.48-.01-.94,0-1.4.03-1.06,1.05-1.74,1.98-1.31.52.24.82.66.84,1.24.01.47,0,.94,0,1.47Z"/>
      </g>
    </g>
  </g>
</svg>