<?xml version="1.0" encoding="UTF-8"?><svg id="Layer_2" xmlns="http://www.w3.org/2000/svg" viewBox="0 0 28 28"><defs><style>.cls-1{fill:#0091ff;}.cls-2{fill:none;}</style></defs><g id="Layer_1-2"><g><rect class="cls-2" width="28" height="28"/><path class="cls-1" d="M22.25,20.7c-.21-.43-.69-.66-1.14-.56-.49,.1-.84,.5-.85,1.01-.01,.66,0,1.32,0,1.98-.02,1.25-.91,2.15-2.16,2.15-3.38,0-6.76,0-10.14,0-1.26,0-2.17-.91-2.17-2.17,0-6.15,0-12.31,0-18.46,0-1.27,.91-2.18,2.19-2.18,3.36,0,6.73,0,10.09,0,1.29,0,2.18,.91,2.19,2.2,0,.49,0,.99,0,1.48,0,.65,.44,1.12,1.04,1.12,.62,0,1.06-.46,1.07-1.13,0-.5,0-1,0-1.51-.01-2.43-1.86-4.28-4.28-4.29-3.38,0-6.76-.01-10.14,0-.48,0-.97,.08-1.42,.23-1.76,.6-2.85,2.18-2.85,4.08,0,5.66,0,11.32,0,16.98,0,.55-.02,1.09,0,1.64,.09,1.67,.89,2.91,2.37,3.66,.42,.21,.91,.3,1.37,.44h11.2s.09-.04,.14-.05c1.86-.28,3.34-1.74,3.55-3.6,.1-.89,.04-1.79,.05-2.69,0-.12-.05-.24-.1-.35Zm-10.92-7.25c.78-.66,1.57-1.3,2.34-1.97,.47-.4,.53-1.03,.16-1.48-.36-.45-1-.54-1.46-.16-.94,.77-1.87,1.54-2.78,2.35-.51,.45-.73,1.06-.75,1.76,.02,.68,.25,1.28,.75,1.76,.22,.21,.46,.4,.7,.6,.67,.56,1.33,1.12,2,1.68,.55,.45,1.27,.36,1.62-.21,.29-.46,.19-1.01-.26-1.39-.82-.7-1.66-1.39-2.48-2.09-.29-.25-.29-.44,0-.69,.05-.05,.11-.09,.16-.14Zm14.45-1.3c-.22-.21-.45-.4-.68-.59-.65-.56-1.29-1.12-1.95-1.66-.55-.46-1.27-.37-1.62,.2-.3,.46-.19,1.02,.27,1.42,.78,.67,1.56,1.34,2.35,2.01,.38,.33,.39,.49,0,.82-.8,.69-1.61,1.37-2.4,2.06-.46,.4-.5,1.02-.14,1.47,.36,.45,1.01,.54,1.46,.16,.93-.77,1.85-1.55,2.74-2.36,.5-.45,.71-1.06,.73-1.73-.02-.69-.26-1.3-.76-1.79Zm-7-3.52c-.47,.12-.7,.45-.83,.89-.51,1.82-1.03,3.63-1.54,5.45-.28,.97-.56,1.94-.81,2.92-.17,.66,.32,1.26,.98,1.26,.52,0,.95-.32,1.1-.85,.48-1.66,.95-3.33,1.42-4.99,.33-1.15,.67-2.29,.96-3.45,.19-.75-.53-1.42-1.28-1.24Zm-3.65-3.45c0-.57-.43-1.05-1.02-1.07-.73-.02-1.46-.02-2.19,0-.59,.02-1.02,.5-1.01,1.07,.01,.57,.46,1.01,1.06,1.03,.35,0,.7,0,1.06,0,.34,0,.69,0,1.03,0,.61-.01,1.07-.45,1.08-1.04Zm-2.12,18.47c.59,0,1.06-.47,1.06-1.05,0-.58-.48-1.06-1.06-1.06-.57,0-1.04,.47-1.05,1.04,0,.58,.46,1.06,1.05,1.07Z"/></g></g></svg>