<?xml version="1.0" encoding="UTF-8"?><svg id="Layer_2" xmlns="http://www.w3.org/2000/svg" viewBox="0 0 40 40"><defs><style>.cls-1{fill:#0091ff;}.cls-2{stroke:#0091ff;stroke-miterlimit:10;stroke-width:.7px;}.cls-2,.cls-3{fill:none;}</style></defs><g id="Layer_1-2"><g><rect class="cls-3" width="40" height="40"/><g><path class="cls-1" d="M38.26,31.23c-.11-2.62-2.2-4.89-4.81-5.07-2.03-.14-4.08-.03-6.13-.04-.15,0-.35-.07-.43-.18-1.16-1.54-2.7-2.3-4.62-2.3-1.52,0-3.05,0-4.57,0-1.92,0-3.46,.76-4.61,2.31-.07,.1-.24,.18-.36,.18-1.93,0-3.86-.09-5.79-.03-2.66,.08-4.83,2.08-5.16,4.72-.12,1-.07,2.03-.07,3.04,0,2.55,1.84,4.4,4.39,4.41,1.85,0,3.71,0,5.56,0h.39v-1.23H6.57v-6.66h-1.21v6.58c-1.08-.1-2.19-1.13-2.35-2.32-.12-.95-.09-1.92-.09-2.89,0-2.59,1.84-4.44,4.43-4.45,1.5,0,3,0,4.5,0h.48c-.09,.56-.24,1.07-.24,1.58-.03,2.16-.03,4.32,0,6.48,.01,1.32,.98,2.56,2.28,2.8,.83,.16,1.71,.11,2.56,.15v-9.77h-1.19v8.49c-1.73,.23-2.5-.89-2.46-2.18,.07-1.85,.01-3.71,.02-5.56,0-2.57,1.85-4.41,4.42-4.42,1.52,0,3.05,0,4.57,0,2.57,0,4.42,1.86,4.42,4.42,0,1.92,0,3.84,0,5.75,0,1.42-1,2.24-2.45,1.96v-8.46h-1.18v9.73c.66,0,1.3,.02,1.93,0,1.55-.04,2.91-1.32,2.9-2.87-.02-2.68,.24-5.37-.21-8.06,.03,0,.09-.03,.15-.03,1.73,0,3.46-.05,5.18,.01,1.92,.07,3.52,1.43,3.92,3.3,.13,.62,.11,1.29,.12,1.93,0,.7,.03,1.4-.08,2.09-.19,1.19-1.29,2.22-2.36,2.31v-6.58h-1.21v6.7h-5.46v1.19c.08,0,.14,.02,.21,.02,2.01,0,4.01,.02,6.02,0,1.99-.02,3.79-1.56,4.03-3.54,.14-1.15,.12-2.33,.07-3.5ZM5.35,21.77v-1.13c-.52-.22-.59-.33-.59-.92,0-1.05,0-2.11,0-3.16,0-.65,.19-.85,.83-.85,.93,0,1.85,0,2.78,0,.12,0,.31-.1,.33-.19,.32-1.29,.84-2.49,1.56-3.63-.1-.11-.18-.2-.27-.29-.66-.67-1.33-1.33-1.99-2-.33-.33-.34-.65-.03-.96,.83-.84,1.66-1.68,2.51-2.51,.3-.29,.64-.29,.94,0,.4,.39,.8,.78,1.19,1.18,.36,.37,.72,.75,1.08,1.12,1.15-.73,2.32-1.25,3.57-1.54,.26-.06,.31-.18,.3-.42-.01-.94,0-1.88,0-2.82,0-.52,.22-.75,.74-.75,1.13,0,2.26,0,3.39,0,.52,0,.75,.22,.75,.74,0,.75,0,1.5,0,2.25q0,.89,.84,1.14c.1,.03,.2,.06,.29,.1,.92,.4,1.83,.8,2.81,1.22,.66-.67,1.38-1.4,2.11-2.13,.42-.42,.72-.42,1.13,0,.76,.76,1.53,1.53,2.29,2.29,.46,.46,.46,.73,0,1.18-.72,.72-1.44,1.43-2.17,2.15,.05,.1,.09,.18,.14,.26,.63,1.02,1.1,2.12,1.37,3.29,.07,.28,.19,.33,.44,.32,.93-.01,1.85,0,2.78,0,.55,0,.76,.22,.77,.76,0,1.09,0,2.18,0,3.28,0,.55-.08,.68-.6,.88v1.16c1.02,0,1.8-.78,1.81-1.8,.01-1.18,0-2.36,0-3.54,0-1.18-.77-1.94-1.96-1.95-.65,0-1.3,0-1.94,0-.11,0-.28-.05-.31-.12-.32-.77-.62-1.54-.94-2.36,.51-.5,1.05-1.02,1.57-1.56,.81-.82,.8-1.88,0-2.71-.8-.81-1.61-1.62-2.42-2.43-.84-.83-1.94-.82-2.78,0-.47,.46-.93,.94-1.41,1.39-.08,.08-.27,.11-.38,.07-.66-.26-1.31-.56-1.97-.81-.21-.08-.26-.18-.26-.39,.01-.67,0-1.35,0-2.02-.01-1.07-.77-1.86-1.84-1.88-1.21-.02-2.41-.02-3.62,0-1.07,.01-1.84,.8-1.85,1.87,0,.69,0,1.37,0,2.06,0,.2-.06,.28-.25,.35-.65,.25-1.29,.52-1.93,.81-.19,.09-.31,.08-.46-.08-.43-.45-.87-.89-1.32-1.32-.91-.91-1.98-.91-2.88-.01-.77,.77-1.55,1.54-2.32,2.32-.9,.9-.89,1.94,0,2.84,.51,.51,1.02,1.02,1.5,1.49-.32,.8-.6,1.56-.92,2.3-.04,.09-.21,.16-.32,.16-.69,.02-1.37,0-2.06,.01-1.01,.02-1.82,.75-1.85,1.71-.03,1.29-.03,2.59,0,3.89,.02,.97,.89,1.76,1.8,1.68Zm21.98-3.64h1.22c-.16-3.25-1.52-5.78-4.32-7.37-3.01-1.71-6.08-1.58-8.97,.31-2.49,1.64-3.7,4.05-3.81,7.05h1.2c.1-4.13,3.31-7.15,7.09-7.28,1.76-.06,3.36,.45,4.75,1.55,1.84,1.46,2.75,3.4,2.84,5.74Zm-10.99,1.23c0,2.02,1.63,3.66,3.64,3.66,2.02,0,3.66-1.62,3.67-3.64,0-2.01-1.63-3.66-3.64-3.67-2,0-3.66,1.64-3.67,3.65Zm6.09,.02c0,1.35-1.1,2.43-2.45,2.42-1.35,0-2.43-1.1-2.42-2.46,.01-1.32,1.11-2.41,2.43-2.42,1.34,0,2.44,1.1,2.44,2.45Zm-12.78-1.23c-2-.02-3.67,1.63-3.68,3.64-.01,2.02,1.62,3.67,3.63,3.67,2.02,0,3.67-1.61,3.68-3.63,.01-2.01-1.62-3.67-3.63-3.68Zm-.03,6.09c-1.35,0-2.44-1.1-2.43-2.45,0-1.33,1.1-2.42,2.43-2.42,1.34,0,2.45,1.1,2.45,2.44,0,1.35-1.09,2.44-2.45,2.43Zm20.72,1.22c2.02,0,3.67-1.62,3.68-3.63,0-2.01-1.63-3.67-3.64-3.68-2-.01-3.67,1.64-3.68,3.64,0,2.02,1.62,3.66,3.64,3.67Zm.04-6.09c1.33,.01,2.41,1.1,2.42,2.43,0,1.35-1.08,2.44-2.44,2.44s-2.44-1.09-2.44-2.44c0-1.34,1.12-2.44,2.46-2.43Zm-12.79,18.88h4.83v-1.17h-4.83v1.17Z"/><path class="cls-2" d="M38.26,31.23c-.11-2.62-2.2-4.89-4.81-5.07-2.03-.14-4.08-.03-6.13-.04-.15,0-.35-.07-.43-.18-1.16-1.54-2.7-2.3-4.62-2.3-1.52,0-3.05,0-4.57,0-1.92,0-3.46,.76-4.61,2.31-.07,.1-.24,.18-.36,.18-1.93,0-3.86-.09-5.79-.03-2.66,.08-4.83,2.08-5.16,4.72-.12,1-.07,2.03-.07,3.04,0,2.55,1.84,4.4,4.39,4.41,1.85,0,3.71,0,5.56,0h.39v-1.23H6.57v-6.66h-1.21v6.58c-1.08-.1-2.19-1.13-2.35-2.32-.12-.95-.09-1.92-.09-2.89,0-2.59,1.84-4.44,4.43-4.45,1.5,0,3,0,4.5,0h.48c-.09,.56-.24,1.07-.24,1.58-.03,2.16-.03,4.32,0,6.48,.01,1.32,.98,2.56,2.28,2.8,.83,.16,1.71,.11,2.56,.15v-9.77h-1.19v8.49c-1.73,.23-2.5-.89-2.46-2.18,.07-1.85,.01-3.71,.02-5.56,0-2.57,1.85-4.41,4.42-4.42,1.52,0,3.05,0,4.57,0,2.57,0,4.42,1.86,4.42,4.42,0,1.92,0,3.84,0,5.75,0,1.42-1,2.24-2.45,1.96v-8.46h-1.18v9.73c.66,0,1.3,.02,1.93,0,1.55-.04,2.91-1.32,2.9-2.87-.02-2.68,.24-5.37-.21-8.06,.03,0,.09-.03,.15-.03,1.73,0,3.46-.05,5.18,.01,1.92,.07,3.52,1.43,3.92,3.3,.13,.62,.11,1.29,.12,1.93,0,.7,.03,1.4-.08,2.09-.19,1.19-1.29,2.22-2.36,2.31v-6.58h-1.21v6.7h-5.46v1.19c.08,0,.14,.02,.21,.02,2.01,0,4.01,.02,6.02,0,1.99-.02,3.79-1.56,4.03-3.54,.14-1.15,.12-2.33,.07-3.5ZM5.35,21.77v-1.13c-.52-.22-.59-.33-.59-.92,0-1.05,0-2.11,0-3.16,0-.65,.19-.85,.83-.85,.93,0,1.85,0,2.78,0,.12,0,.31-.1,.33-.19,.32-1.29,.84-2.49,1.56-3.63-.1-.11-.18-.2-.27-.29-.66-.67-1.33-1.33-1.99-2-.33-.33-.34-.65-.03-.96,.83-.84,1.66-1.68,2.51-2.51,.3-.29,.64-.29,.94,0,.4,.39,.8,.78,1.19,1.18,.36,.37,.72,.75,1.08,1.12,1.15-.73,2.32-1.25,3.57-1.54,.26-.06,.31-.18,.3-.42-.01-.94,0-1.88,0-2.82,0-.52,.22-.75,.74-.75,1.13,0,2.26,0,3.39,0,.52,0,.75,.22,.75,.74,0,.75,0,1.5,0,2.25q0,.89,.84,1.14c.1,.03,.2,.06,.29,.1,.92,.4,1.83,.8,2.81,1.22,.66-.67,1.38-1.4,2.11-2.13,.42-.42,.72-.42,1.13,0,.76,.76,1.53,1.53,2.29,2.29,.46,.46,.46,.73,0,1.18-.72,.72-1.44,1.43-2.17,2.15,.05,.1,.09,.18,.14,.26,.63,1.02,1.1,2.12,1.37,3.29,.07,.28,.19,.33,.44,.32,.93-.01,1.85,0,2.78,0,.55,0,.76,.22,.77,.76,0,1.09,0,2.18,0,3.28,0,.55-.08,.68-.6,.88v1.16c1.02,0,1.8-.78,1.81-1.8,.01-1.18,0-2.36,0-3.54,0-1.18-.77-1.94-1.96-1.95-.65,0-1.3,0-1.94,0-.11,0-.28-.05-.31-.12-.32-.77-.62-1.54-.94-2.36,.51-.5,1.05-1.02,1.57-1.56,.81-.82,.8-1.88,0-2.71-.8-.81-1.61-1.62-2.42-2.43-.84-.83-1.94-.82-2.78,0-.47,.46-.93,.94-1.41,1.39-.08,.08-.27,.11-.38,.07-.66-.26-1.31-.56-1.97-.81-.21-.08-.26-.18-.26-.39,.01-.67,0-1.35,0-2.02-.01-1.07-.77-1.86-1.84-1.88-1.21-.02-2.41-.02-3.62,0-1.07,.01-1.84,.8-1.85,1.87,0,.69,0,1.37,0,2.06,0,.2-.06,.28-.25,.35-.65,.25-1.29,.52-1.93,.81-.19,.09-.31,.08-.46-.08-.43-.45-.87-.89-1.32-1.32-.91-.91-1.98-.91-2.88-.01-.77,.77-1.55,1.54-2.32,2.32-.9,.9-.89,1.94,0,2.84,.51,.51,1.02,1.02,1.5,1.49-.32,.8-.6,1.56-.92,2.3-.04,.09-.21,.16-.32,.16-.69,.02-1.37,0-2.06,.01-1.01,.02-1.82,.75-1.85,1.71-.03,1.29-.03,2.59,0,3.89,.02,.97,.89,1.76,1.8,1.68Zm21.98-3.64h1.22c-.16-3.25-1.52-5.78-4.32-7.37-3.01-1.71-6.08-1.58-8.97,.31-2.49,1.64-3.7,4.05-3.81,7.05h1.2c.1-4.13,3.31-7.15,7.09-7.28,1.76-.06,3.36,.45,4.75,1.55,1.84,1.46,2.75,3.4,2.84,5.74Zm-10.99,1.23c0,2.02,1.63,3.66,3.64,3.66,2.02,0,3.66-1.62,3.67-3.64,0-2.01-1.63-3.66-3.64-3.67-2,0-3.66,1.64-3.67,3.65Zm6.09,.02c0,1.35-1.1,2.43-2.45,2.42-1.35,0-2.43-1.1-2.42-2.46,.01-1.32,1.11-2.41,2.43-2.42,1.34,0,2.44,1.1,2.44,2.45Zm-12.78-1.23c-2-.02-3.67,1.63-3.68,3.64-.01,2.02,1.62,3.67,3.63,3.67,2.02,0,3.67-1.61,3.68-3.63,.01-2.01-1.62-3.67-3.63-3.68Zm-.03,6.09c-1.35,0-2.44-1.1-2.43-2.45,0-1.33,1.1-2.42,2.43-2.42,1.34,0,2.45,1.1,2.45,2.44,0,1.35-1.09,2.44-2.45,2.43Zm20.72,1.22c2.02,0,3.67-1.62,3.68-3.63,0-2.01-1.63-3.67-3.64-3.68-2-.01-3.67,1.64-3.68,3.64,0,2.02,1.62,3.66,3.64,3.67Zm.04-6.09c1.33,.01,2.41,1.1,2.42,2.43,0,1.35-1.08,2.44-2.44,2.44s-2.44-1.09-2.44-2.44c0-1.34,1.12-2.44,2.46-2.43Zm-12.79,18.88h4.83v-1.17h-4.83v1.17Z"/></g></g></g></svg>