<?xml version="1.0" encoding="UTF-8"?><svg id="Layer_2" xmlns="http://www.w3.org/2000/svg" viewBox="0 0 32 32"><defs><style>.cls-1{stroke:#0091ff;stroke-miterlimit:10;stroke-width:.38px;}.cls-1,.cls-2{fill:none;}.cls-3{fill:#0091ff;}</style></defs><g id="Layer_1-2"><g><rect class="cls-2" width="32" height="32"/><g><path class="cls-3" d="M16.15,1.74c-7.99-.03-14.5,6.48-14.55,14.53-.05,8,6.49,14.57,14.52,14.59,7.99,.03,14.49-6.47,14.55-14.53,.05-8-6.48-14.57-14.52-14.59Zm0,27.58c-7.18,.03-13.02-5.82-13.02-13.02,0-7.2,5.8-13.01,12.99-13.01,7.18,0,12.98,5.8,13,13,.02,7.19-5.77,13-12.97,13.03Zm2.83-14.8c1.69-1.69,3.38-3.38,5.07-5.07,.12-.12,.29-.23,.33-.37,.07-.25,.11-.53,.05-.77-.07-.28-.35-.46-.64-.4-.25,.05-.52,.18-.7,.36-1.8,1.78-3.59,3.58-5.4,5.4-.73-.39-1.48-.53-2.27-.33-1.73,.43-2.74,2.19-2.21,3.89,.52,1.68,2.38,2.58,4.03,1.94,1.64-.63,2.41-2.54,1.65-4.16-.1-.22-.06-.33,.09-.48Zm-2.84,3.3c-.86,0-1.53-.65-1.54-1.51,0-.86,.65-1.53,1.5-1.54,.86,0,1.53,.65,1.54,1.51,0,.86-.65,1.53-1.51,1.54Zm3.37-9.24c.55,.23,.97,.12,1.16-.31,.2-.45,0-.85-.56-1.1-1.27-.56-2.61-.83-4.28-.84-3,.09-5.68,1.39-7.68,4.02-1.29,1.7-1.92,3.64-1.98,5.77-.01,.47,.16,.77,.51,.89,.53,.18,.97-.18,1.03-.81,.07-.69,.1-1.39,.28-2.05,1.32-5.03,6.69-7.61,11.51-5.57Zm6.54,7.26c-.01-.18-.02-.31-.03-.45-.09-1.12-.38-2.19-.84-3.21-.15-.33-.39-.51-.76-.49-.31,.02-.57,.18-.65,.48-.05,.21-.02,.47,.04,.69,.21,.83,.46,1.65,.66,2.48,.08,.34,.03,.72,.08,1.07,.06,.39,.39,.64,.75,.64,.37,0,.68-.27,.74-.66,.03-.2,0-.41,0-.56Z"/><path class="cls-1" d="M16.15,1.74c-7.99-.03-14.5,6.48-14.55,14.53-.05,8,6.49,14.57,14.52,14.59,7.99,.03,14.49-6.47,14.55-14.53,.05-8-6.48-14.57-14.52-14.59Zm0,27.58c-7.18,.03-13.02-5.82-13.02-13.02,0-7.2,5.8-13.01,12.99-13.01,7.18,0,12.98,5.8,13,13,.02,7.19-5.77,13-12.97,13.03Zm2.83-14.8c1.69-1.69,3.38-3.38,5.07-5.07,.12-.12,.29-.23,.33-.37,.07-.25,.11-.53,.05-.77-.07-.28-.35-.46-.64-.4-.25,.05-.52,.18-.7,.36-1.8,1.78-3.59,3.58-5.4,5.4-.73-.39-1.48-.53-2.27-.33-1.73,.43-2.74,2.19-2.21,3.89,.52,1.68,2.38,2.58,4.03,1.94,1.64-.63,2.41-2.54,1.65-4.16-.1-.22-.06-.33,.09-.48Zm-2.84,3.3c-.86,0-1.53-.65-1.54-1.51,0-.86,.65-1.53,1.5-1.54,.86,0,1.53,.65,1.54,1.51,0,.86-.65,1.53-1.51,1.54Zm3.37-9.24c.55,.23,.97,.12,1.16-.31,.2-.45,0-.85-.56-1.1-1.27-.56-2.61-.83-4.28-.84-3,.09-5.68,1.39-7.68,4.02-1.29,1.7-1.92,3.64-1.98,5.77-.01,.47,.16,.77,.51,.89,.53,.18,.97-.18,1.03-.81,.07-.69,.1-1.39,.28-2.05,1.32-5.03,6.69-7.61,11.51-5.57Zm6.54,7.26c-.01-.18-.02-.31-.03-.45-.09-1.12-.38-2.19-.84-3.21-.15-.33-.39-.51-.76-.49-.31,.02-.57,.18-.65,.48-.05,.21-.02,.47,.04,.69,.21,.83,.46,1.65,.66,2.48,.08,.34,.03,.72,.08,1.07,.06,.39,.39,.64,.75,.64,.37,0,.68-.27,.74-.66,.03-.2,0-.41,0-.56Z"/></g></g></g></svg>