<?xml version="1.0" encoding="UTF-8"?><svg id="Layer_2" xmlns="http://www.w3.org/2000/svg" viewBox="0 0 40 40"><defs><style>.cls-1{fill:#0091ff;}.cls-2{fill:none;}</style></defs><g id="Layer_1-2"><g><rect class="cls-2" width="40" height="40"/><path class="cls-1" d="M38.39,23.95v-1.01c-.06-.23-.11-.46-.17-.69-.25-.87-.73-1.58-1.46-2.14,.34-.63,.55-1.29,.56-2.01,.01-2.34-1.83-4.2-4.17-4.2-2.24,0-4.47,0-6.71,0h-.45c.07-.16,.12-.29,.18-.41,.75-1.68,1.5-3.36,1.91-5.16,.23-1,.35-2,.16-3.02-.35-1.84-1.81-3.26-3.68-3.61-.08-.02-.16-.05-.24-.07h-1.08s-.04,.04-.06,.04c-1.88,.36-3,1.53-3.62,3.29-.4,1.13-.78,2.26-1.31,3.33-.89,1.82-2.18,3.37-3.66,4.75-1.17,1.1-2.58,1.8-4.17,2-1.15,.14-2.31,.13-3.47,.15-2.81,.03-5.17,2.16-5.29,4.96-.1,2.3-.03,4.62-.02,6.93,0,.66,.42,1.16,1.02,1.33,.98,.27,1.84-.38,1.84-1.42,0-2.14,0-4.28,0-6.42,0-1.44,1.07-2.48,2.5-2.49,.75,0,1.51,.02,2.26,0,2.94-.11,5.49-1.16,7.61-3.22,2.54-2.46,4.32-5.39,5.36-8.78,.12-.4,.34-.79,.59-1.13,.24-.34,.63-.47,1.05-.43,.83,.07,1.39,.6,1.52,1.42,.15,.97-.11,1.88-.39,2.78-.65,2.03-1.62,3.93-2.55,5.84-.57,1.18,.08,2.23,1.39,2.23,1.94,0,3.88,0,5.81,0,1.15,0,2.3,0,3.45,0,.62,0,1.08,.32,1.25,.83,.28,.87-.29,1.66-1.22,1.67-1.15,.01-2.3,0-3.45,0-.71,0-1.24,.38-1.43,.99-.3,.98,.36,1.87,1.41,1.88,1.5,.01,2.99,0,4.49,0,.63,0,1.09,.31,1.26,.82,.3,.87-.28,1.69-1.23,1.69-1.5,0-2.99,0-4.49,0-.73,0-1.27,.38-1.45,1-.28,.97,.37,1.85,1.4,1.86,1.44,.01,2.87,0,4.31,0,.62,0,1.08,.32,1.25,.83,.28,.87-.29,1.67-1.22,1.67-1.41,.01-2.82,0-4.23,.01-.28,0-.58,.06-.83,.18-.58,.27-.85,.93-.7,1.58,.16,.66,.66,1.09,1.37,1.1,.79,.02,1.58,0,2.37,0,.4,0,.73,.15,.97,.45,.35,.42,.45,.9,.21,1.4-.24,.5-.66,.73-1.21,.73-4.09,0-8.18,0-12.27,0-.71,0-1.41-.01-2.12,0-.68,.01-1.19,.41-1.36,1.02-.28,1,.4,1.84,1.5,1.84,4.77,0,9.55,0,14.32,0,1.74,0,3.22-1.03,3.86-2.66,.42-1.06,.38-2.12-.07-3.19,1.19-.59,1.93-1.52,2.24-2.8,.31-1.29,.03-2.46-.73-3.48,.23-.37,.48-.68,.64-1.03,.18-.41,.29-.85,.43-1.28Zm-17.4,.88c-.63-.57-1.51-.49-2.13,.2-2.88,3.22-5.76,6.43-8.64,9.65-.98,1.09-2.16,1.12-3.2,.07-.96-.98-1.92-1.97-2.9-2.94-.6-.6-1.48-.61-2.06-.05-.58,.57-.59,1.44,.01,2.06,1.06,1.09,2.12,2.18,3.2,3.24,.91,.89,2.04,1.3,3.33,1.33,1.4-.03,2.62-.54,3.57-1.61,2.94-3.27,5.88-6.55,8.81-9.83,.61-.68,.6-1.56-.01-2.11Z"/></g></g></svg>