<?xml version="1.0" encoding="UTF-8"?><svg id="Layer_2" xmlns="http://www.w3.org/2000/svg" viewBox="0 0 28 28"><defs><style>.cls-1{fill:#0091ff;}.cls-2{fill:none;}</style></defs><g id="Layer_1-2"><g><rect class="cls-2" width="28" height="28"/><path class="cls-1" d="M26.87,16.76v-.7c-.04-.16-.07-.32-.12-.48-.17-.61-.51-1.1-1.02-1.5,.24-.44,.39-.91,.39-1.41,0-1.64-1.28-2.94-2.92-2.94-1.56,0-3.13,0-4.69,0h-.32c.05-.11,.09-.2,.12-.29,.53-1.17,1.05-2.35,1.34-3.61,.16-.7,.25-1.4,.11-2.11-.25-1.29-1.27-2.28-2.58-2.53-.06-.01-.11-.03-.16-.05h-.75s-.03,.03-.04,.03c-1.32,.25-2.1,1.07-2.54,2.31-.28,.79-.55,1.58-.92,2.33-.62,1.28-1.53,2.36-2.56,3.33-.82,.77-1.8,1.26-2.92,1.4-.8,.1-1.62,.09-2.43,.1-1.97,.02-3.62,1.51-3.7,3.47-.07,1.61-.02,3.23-.01,4.85,0,.46,.29,.81,.71,.93,.68,.19,1.29-.27,1.29-1,0-1.5,0-3,0-4.5,0-1.01,.75-1.74,1.75-1.74,.53,0,1.06,.01,1.58,0,2.06-.08,3.85-.81,5.33-2.25,1.78-1.72,3.03-3.77,3.75-6.15,.09-.28,.24-.55,.41-.79,.17-.24,.44-.33,.74-.3,.58,.05,.97,.42,1.07,.99,.11,.68-.07,1.31-.28,1.94-.46,1.42-1.13,2.75-1.78,4.09-.4,.83,.05,1.56,.97,1.56,1.36,0,2.71,0,4.07,0,.8,0,1.61,0,2.41,0,.44,0,.76,.22,.88,.58,.2,.61-.2,1.17-.85,1.17-.8,0-1.61,0-2.41,0-.5,0-.87,.26-1,.69-.21,.69,.25,1.31,.99,1.32,1.05,0,2.09,0,3.14,0,.44,0,.76,.21,.89,.57,.21,.61-.2,1.18-.86,1.18-1.05,0-2.09,0-3.14,0-.51,0-.89,.27-1.01,.7-.2,.68,.26,1.3,.98,1.3,1,0,2.01,0,3.01,0,.44,0,.76,.22,.88,.58,.2,.61-.2,1.17-.85,1.17-.99,0-1.98,0-2.96,0-.19,0-.4,.04-.58,.13-.4,.19-.59,.65-.49,1.1,.11,.46,.46,.76,.96,.77,.55,.01,1.11,0,1.66,0,.28,0,.51,.1,.68,.32,.24,.29,.32,.63,.15,.98-.17,.35-.46,.51-.85,.51-2.86,0-5.73,0-8.59,0-.49,0-.99,0-1.48,0-.47,0-.83,.29-.95,.71-.19,.7,.28,1.29,1.05,1.29,3.34,0,6.68,0,10.02,0,1.22,0,2.26-.72,2.7-1.86,.29-.75,.27-1.49-.05-2.23,.83-.41,1.35-1.07,1.57-1.96,.22-.9,.02-1.72-.51-2.44,.16-.26,.34-.48,.45-.72,.13-.29,.2-.6,.3-.89Zm-12.18,.62c-.44-.4-1.06-.34-1.49,.14-2.02,2.25-4.03,4.5-6.05,6.75-.68,.76-1.52,.78-2.24,.05-.67-.69-1.35-1.38-2.03-2.06-.42-.42-1.03-.43-1.44-.03-.41,.4-.41,1.01,0,1.44,.74,.76,1.48,1.52,2.24,2.27,.64,.63,1.43,.91,2.33,.93,.98-.02,1.83-.38,2.5-1.12,2.06-2.29,4.11-4.59,6.17-6.88,.43-.47,.42-1.09,0-1.48Z"/></g></g></svg>