<?xml version="1.0" encoding="UTF-8"?><svg id="Layer_2" xmlns="http://www.w3.org/2000/svg" viewBox="0 0 28 28"><defs><style>.cls-1{fill:#0091ff;}.cls-2{fill:none;}</style></defs><g id="Layer_1-2"><g><rect class="cls-2" width="28" height="28"/><path class="cls-1" d="M25.19,14.62c-.15-.34-.43-.46-.79-.46-.96,0-1.93,0-2.89,0h-.29v-.36c0-3.31,0-6.62,0-9.92,0-.14,0-.28-.01-.43-.09-1.25-1.08-2.2-2.34-2.2-3.24,0-6.48,0-9.72,0-.32,0-.67,.08-.97,.22-.96,.45-1.39,1.25-1.39,2.31,0,3.35,0,6.7,0,10.05v.33c-.13,0-.22,0-.31,0-.98,0-1.96,0-2.94,0-.33,0-.58,.15-.72,.45-.13,.3-.07,.57,.14,.82,.05,.06,.1,.11,.15,.17,3.37,3.63,6.75,7.27,10.12,10.9,.17,.18,.38,.32,.57,.48h.4c.14-.1,.3-.19,.41-.31,3.46-3.72,6.91-7.44,10.36-11.15,.24-.26,.36-.55,.21-.89Zm-11.18,10.5c-2.92-3.15-5.82-6.27-8.77-9.44,.77,0,1.46,0,2.16,0,.62,0,.9-.28,.9-.91,0-3.67,0-7.33,0-11,0-.55,.23-.88,.67-.98,.1-.02,.22-.02,.32-.02,3.14,0,6.28,0,9.42,0,.67,0,1,.33,1,1.01,0,3.62,0,7.23,0,10.85,0,.09,0,.18,0,.28,.02,.48,.32,.78,.8,.78,.73,0,1.46,0,2.26,0-2.94,3.17-5.85,6.3-8.77,9.44Zm.88-14.98c-.54-.01-1.09,0-1.63,0-.35,0-.63-.14-.81-.46-.32-.59,.09-1.25,.79-1.26,.75-.01,1.51,0,2.26,0,.16,0,.34-.03,.48-.1,.3-.14,.45-.49,.38-.8-.07-.33-.34-.57-.69-.59-.3-.02-.59,0-.91,0,0-.31,0-.58,0-.84,0-.44-.34-.78-.76-.78-.42,0-.74,.34-.75,.78,0,.27,0,.53,0,.82-.1,.01-.18,.02-.26,.03-1.19,.1-2.13,1.08-2.16,2.26-.03,1.24,.83,2.3,2.04,2.43,.6,.06,1.2,.03,1.81,.04,.13,0,.27,0,.4,.04,.4,.12,.64,.51,.59,.94-.05,.41-.41,.73-.85,.74-.76,0-1.52,0-2.29,0-.54,0-.88,.29-.88,.75,0,.47,.34,.76,.89,.76,.23,0,.46,0,.72,0,0,.29,0,.56,0,.82,0,.45,.32,.78,.74,.79,.44,0,.76-.32,.76-.79,0-.27,0-.53,0-.78,.29-.06,.57-.09,.83-.18,1.07-.36,1.74-1.47,1.57-2.57-.18-1.16-1.11-2-2.28-2.03Z"/></g></g></svg>