<svg xmlns="http://www.w3.org/2000/svg" xmlns:xlink="http://www.w3.org/1999/xlink" width="707.931" height="479.468" viewBox="0 0 707.931 479.468">
  <defs>
    <clipPath id="clip-path">
      <path id="Path_28710" data-name="Path 28710" d="M300.605,249.02c-1.535,4.652-1.535,5.512-1.535,4.652l.058-133.864c0-.826-.058-.7-.058-97.628H600.116V248.95Z" transform="translate(-299.07 -22.18)" fill="none"/>
    </clipPath>
    <linearGradient id="linear-gradient" x1="-0.198" y1="0.111" x2="0.762" y2="0.898" gradientUnits="objectBoundingBox">
      <stop offset="0" stop-color="#243036"/>
      <stop offset="1" stop-color="#2f3c42"/>
    </linearGradient>
  </defs>
  <g id="Group_1274" data-name="Group 1274" transform="translate(-1072 -200.562)">
    <g id="OBJECTS" transform="translate(903.32 180.68)">
      <g id="Group_1268" data-name="Group 1268" transform="translate(367.377 1.45)" opacity="0.8">
        <g id="Group_1266" data-name="Group 1266" transform="translate(284.742 98.825)" opacity="0.5">
          <ellipse id="Ellipse_248" data-name="Ellipse 248" cx="8.71" cy="9.385" rx="8.71" ry="9.385" fill="#ced3e6"/>
        </g>
      </g>
      <rect id="Rectangle_2256" data-name="Rectangle 2256" width="42.989" height="42.948" transform="translate(461.361 342.361)" fill="#585859"/>
      <path id="Path_28601" data-name="Path 28601" d="M331.074,348.86h234.12a18.514,18.514,0,0,1,18.514,18.514v10.932H312.56V367.374A18.514,18.514,0,0,1,331.074,348.86Z" transform="translate(28.704 34.169)" fill="#39393b"/>
      <rect id="Rectangle_2257" data-name="Rectangle 2257" width="42.989" height="42.948" transform="translate(449.325 342.361)" fill="#39393b"/>
      <path id="Path_28602" data-name="Path 28602" d="M386.23,313.974l55.019-7.873.007-11.5H386.3Z" transform="translate(63.095 47.762)" fill="#585859"/>
      <rect id="Rectangle_2258" data-name="Rectangle 2258" width="445.935" height="273.718" rx="11.29" transform="translate(248.468 68.655)" fill="#ced3e6"/>
      <path id="Path_28603" data-name="Path 28603" d="M626.448,72.369v229.1h-40.6V59.24h27.457a13.141,13.141,0,0,1,13.141,13.129Z" transform="translate(67.968 9.415)" fill="#585859"/>
      <path id="Path_28604" data-name="Path 28604" d="M666.537,72.369V319.828a13.129,13.129,0,0,1-13.129,13.129H250.431a13.129,13.129,0,0,1-13.141-13.129V72.369A13.141,13.141,0,0,1,250.431,59.24H654.687l.512.058h.8A13.141,13.141,0,0,1,666.537,72.369Z" transform="translate(11.178 9.415)" fill="#39393b"/>
      <path id="Path_28605" data-name="Path 28605" d="M656.041,59.478h-.8l-.512-.058H250.471A13.141,13.141,0,0,0,237.33,72.549v229.1h429.2V72.549a13.141,13.141,0,0,0-10.49-13.071Zm-6.536,219.13a3.57,3.57,0,0,1-3.57,3.57H257.879a3.57,3.57,0,0,1-3.582-3.57V79.864a3.57,3.57,0,0,1,3.582-3.628H645.935a3.57,3.57,0,0,1,3.57,3.628Z" transform="translate(11.185 9.445)" fill="#39393b"/>
      <rect id="Rectangle_2259" data-name="Rectangle 2259" width="395.185" height="205.942" rx="3.07" transform="translate(265.494 85.681)" fill="#ced3e6"/>
      <g id="Group_1280" data-name="Group 1280">
        <path id="Path_28606" data-name="Path 28606" d="M647.127,77.508v18.7H251.93v-18.7a3.57,3.57,0,0,1,3.57-3.628H643.557a3.57,3.57,0,0,1,3.57,3.628Z" transform="translate(13.563 11.801)" fill="#fff"/>
        <path id="Path_28607" data-name="Path 28607" d="M566.29,83.644a3.035,3.035,0,1,1-3.035-3.024A3.035,3.035,0,0,1,566.29,83.644Z" transform="translate(63.792 12.899)" fill="#df615c"/>
        <circle id="Ellipse_252" data-name="Ellipse 252" cx="3.035" cy="3.035" r="3.035" transform="translate(633.838 93.507)" fill="#5392f3"/>
        <rect id="Rectangle_2260" data-name="Rectangle 2260" width="314.385" height="6.419" rx="2.43" transform="translate(300.009 93.333)" fill="#d2dcec"/>
        <path id="Path_28608" data-name="Path 28608" d="M265.074,83.712v2.977a.547.547,0,0,1-.814.477l-2.57-1.489-2.582-1.489a.547.547,0,0,1,0-.942l2.582-1.489,2.57-1.489a.547.547,0,0,1,.814.477Z" transform="translate(14.689 12.83)"/>
        <path id="Path_28609" data-name="Path 28609" d="M268.092,83.712v2.977a.547.547,0,0,0,.814.477l2.57-1.489,2.57-1.489a.547.547,0,0,0,0-.942l-2.57-1.489-2.582-1.489a.547.547,0,0,0-.814.477Z" transform="translate(16.195 12.83)"/>
        <rect id="Rectangle_2261" data-name="Rectangle 2261" width="7.292" height="1.71" rx="0.65" transform="translate(643.334 98.394) rotate(-45)" fill="#39393b"/>
        <rect id="Rectangle_2262" data-name="Rectangle 2262" width="1.71" height="7.292" rx="0.65" transform="translate(643.334 94.463) rotate(-45)" fill="#39393b"/>
      </g>
      <rect id="Rectangle_2263" data-name="Rectangle 2263" width="304.791" height="171.09" rx="6.42" transform="translate(310.173 112.544)" fill="#fff"/>
      <path id="Path_28610" data-name="Path 28610" d="M375.832,172.77H309a1.849,1.849,0,0,1-1.849-1.849h0A1.849,1.849,0,0,1,309,169.06h66.833a1.849,1.849,0,0,1,1.849,1.861h0a1.849,1.849,0,0,1-1.849,1.849Z" transform="translate(22.56 27.308)" fill="#ced3e6"/>
      <path id="Path_28611" data-name="Path 28611" d="M375.832,159.271H309a1.861,1.861,0,0,1-1.849-1.861h0A1.861,1.861,0,0,1,309,155.55h66.833a1.861,1.861,0,0,1,1.849,1.861h0a1.861,1.861,0,0,1-1.849,1.861Z" transform="translate(22.56 25.107)" fill="#ced3e6"/>
      <path id="Path_28612" data-name="Path 28612" d="M375.832,186.28H309a1.861,1.861,0,0,1-1.849-1.861h0A1.849,1.849,0,0,1,309,182.57h66.833a1.849,1.849,0,0,1,1.849,1.849h0a1.861,1.861,0,0,1-1.849,1.861Z" transform="translate(22.56 29.509)" fill="#ced3e6"/>
      <path id="Path_28613" data-name="Path 28613" d="M552.392,172.77H485.571a1.861,1.861,0,0,1-1.861-1.849h0a1.861,1.861,0,0,1,1.861-1.861h66.822a1.861,1.861,0,0,1,1.861,1.861h0a1.861,1.861,0,0,1-1.861,1.849Z" transform="translate(51.326 27.308)" fill="#ced3e6"/>
      <path id="Path_28614" data-name="Path 28614" d="M552.392,159.271H485.571a1.861,1.861,0,0,1-1.861-1.861h0a1.861,1.861,0,0,1,1.861-1.861h66.822a1.861,1.861,0,0,1,1.861,1.861h0a1.861,1.861,0,0,1-1.861,1.861Z" transform="translate(51.326 25.107)" fill="#ced3e6"/>
      <path id="Path_28615" data-name="Path 28615" d="M552.392,186.28H485.571a1.861,1.861,0,0,1-1.861-1.861h0a1.861,1.861,0,0,1,1.861-1.849h66.822a1.861,1.861,0,0,1,1.861,1.849h0A1.861,1.861,0,0,1,552.392,186.28Z" transform="translate(51.326 29.509)" fill="#ced3e6"/>
      <path id="Path_28616" data-name="Path 28616" d="M290.35,221.25H595.129v24.98a1.582,1.582,0,0,1-1.582,1.582H291.932a1.582,1.582,0,0,1-1.582-1.582Z" transform="translate(19.823 35.811)" fill="#39393b"/>
      <path id="Path_28617" data-name="Path 28617" d="M526.97,230.316V228.06h2.814v-2H525.97a.988.988,0,0,0-1,1v3.256Z" transform="translate(58.049 36.595)" fill="#fff"/>
      <path id="Path_28618" data-name="Path 28618" d="M526.965,233.16H525v3.489a1,1,0,0,0,1,1h3.814v-2H527Z" transform="translate(58.054 37.751)" fill="#fff"/>
      <path id="Path_28619" data-name="Path 28619" d="M534.535,230.316h2V227.06a.989.989,0,0,0-1-1H531.86v2h2.675Z" transform="translate(59.171 36.595)" fill="#fff"/>
      <path id="Path_28620" data-name="Path 28620" d="M534.535,233.163v2.431H531.86v2.035h3.652a1,1,0,0,0,1-1V233.14Z" transform="translate(59.171 37.748)" fill="#fff"/>
      <path id="Path_28621" data-name="Path 28621" d="M305.61,232.766V226.44L311.1,229.6l5.477,3.163-5.477,3.175L305.61,239.1Z" transform="translate(22.309 36.657)" fill="#fff"/>
      <rect id="Rectangle_2264" data-name="Rectangle 2264" width="3.396" height="11.525" rx="0.84" transform="translate(355.899 263.736)" fill="#fff"/>
      <rect id="Rectangle_2265" data-name="Rectangle 2265" width="3.396" height="11.525" rx="0.84" transform="translate(362.993 263.736)" fill="#fff"/>
      <rect id="Rectangle_2266" data-name="Rectangle 2266" width="304.791" height="5.001" transform="translate(310.173 252.06)" fill="#ced3e6"/>
      <rect id="Rectangle_2267" data-name="Rectangle 2267" width="156.39" height="5.001" transform="translate(310.173 252.06)" fill="#df615c"/>
      <path id="Path_28622" data-name="Path 28622" d="M510.53,200.24h3.489v7.524h4.652v2.663h-8.036Z" transform="translate(55.696 32.388)" fill="#39393b"/>
      <path id="Path_28623" data-name="Path 28623" d="M518.25,200.24h3.489v10.187H518.25Z" transform="translate(56.954 32.388)" fill="#39393b"/>
      <path id="Path_28624" data-name="Path 28624" d="M533.68,200.242l-4.3,10.187H526l-4.314-10.2h3.7l2.431,5.954,2.489-5.954Z" transform="translate(57.514 32.386)" fill="#39393b"/>
      <path id="Path_28625" data-name="Path 28625" d="M540.778,207.847v2.582H532.3v-10.2h8.292v2.593h-4.919v1.163h4.315v2.477h-4.315v1.349Z" transform="translate(59.243 32.386)" fill="#39393b"/>
      <path id="Path_28626" data-name="Path 28626" d="M506.836,205.138a4.2,4.2,0,1,1-4.2-4.2A4.2,4.2,0,0,1,506.836,205.138Z" transform="translate(53.726 32.502)" fill="#df615c"/>
      <path id="Path_28627" data-name="Path 28627" d="M323.865,208.214c0,2.326-2.21,3.838-5.373,3.838s-5.373-1.512-5.373-3.838a3.128,3.128,0,0,1,1.6-2.756,2.931,2.931,0,0,1-1.163-2.326c0-2.175,2.035-3.582,4.954-3.582s4.942,1.407,4.942,3.582a2.919,2.919,0,0,1-1.163,2.326,3.151,3.151,0,0,1,1.57,2.756Zm-4.059-.14a1.326,1.326,0,1,0-1.314,1.256,1.163,1.163,0,0,0,1.314-1.268Zm-2.326-4.8a.965.965,0,1,0,.965-1.035.942.942,0,0,0-.919,1.023Z" transform="translate(23.533 32.275)" fill="#39393b"/>
      <path id="Path_28628" data-name="Path 28628" d="M323,205.778c0-3.966,2.256-6.268,5.419-6.268s5.431,2.326,5.431,6.268-2.268,6.268-5.431,6.268S323,209.755,323,205.778Zm6.791,0c0-2.326-.581-3.035-1.372-3.035s-1.372.721-1.372,3.035.581,3.035,1.372,3.035,1.384-.721,1.384-3.035Z" transform="translate(25.143 32.269)" fill="#39393b"/>
      <path id="Path_28629" data-name="Path 28629" d="M308.113,202.516a3.675,3.675,0,1,1-1.076-2.61A3.686,3.686,0,0,1,308.113,202.516Z" transform="translate(21.516 32.158)" fill="#df615c"/>
      <path id="Path_28630" data-name="Path 28630" d="M311.757,210.613H298a7.117,7.117,0,0,1,6.78-4.373h.2A7.129,7.129,0,0,1,311.757,210.613Z" transform="translate(21.069 33.365)" fill="#df615c"/>
      <g id="Group_1270" data-name="Group 1270" transform="translate(320.314 25.557)" clip-path="url(#clip-path)">
        <path id="Path_28631" data-name="Path 28631" d="M345.011,133.726s-1.849,11.245-10.117,13.257c-6.687,1.616-12.978-4.8-15.118-7.326-.512-.6-.8-.988-.8-.988a10.192,10.192,0,0,1-1.233,0c-1.744,0-4.838-.384-6.059-2.524-1.721-3.059,4.57-5.14,4.57-5.14s-3.233-2.884-2.419-4.977,5.117-2.489,5.117-2.489-4.652-3.024-3.093-5.652c2.326-3.966,7.164.4,7.547.628-.314-.349-6.338-6.594-3.035-7.71,2.872-.977,7.617,2.256,10.734,5.477.5.5.779.8.779.8l.512-.361c1.558-1.047,6.338-3.838,9.4-1.291C345.418,118.562,345.011,133.726,345.011,133.726Z" transform="translate(-297.064 -7.77)" fill="#ea9b7a"/>
        <path id="Path_28632" data-name="Path 28632" d="M333.832,138.415a.686.686,0,0,1-.651,0,.663.663,0,0,1-.174-.919,5.954,5.954,0,0,0,1-4.919c-1.093-4.2-6.722-7.117-6.78-7.14a.663.663,0,0,1,.593-1.163c.256.128,6.222,3.221,7.454,7.989a7.14,7.14,0,0,1-1.163,5.977A.616.616,0,0,1,333.832,138.415Z" transform="translate(-294.525 -5.551)" fill="#d96c63"/>
        <path id="Path_28633" data-name="Path 28633" d="M329.74,122.926a2.047,2.047,0,0,1-.919,1.791,2.118,2.118,0,0,1-.43.209,4.338,4.338,0,0,1-1.163.267,5.2,5.2,0,0,1,.849.686,2.326,2.326,0,0,1,.5.779,1.71,1.71,0,0,1-.291,1.651c-1.047,1.4-3.489,1.977-5.466,2.21a6.861,6.861,0,0,1,3.058,3.105,2.035,2.035,0,0,1-.256,2,3.792,3.792,0,0,1-1.419,1.047,21.632,21.632,0,0,1-5.326,1.477c-.523-.6-.814-.988-.814-.988a10.462,10.462,0,0,1-1.244,0,.651.651,0,0,1,.349-.14c2.431-.291,6.594-1.163,7.408-2.221a.779.779,0,0,0,.07-.779c-.454-1.256-2.814-2.919-4.861-3.419a.651.651,0,0,1,.174-1.291c1.616,0,6.082-.244,7.28-1.837.174-.233.128-.349.1-.419a2.209,2.209,0,0,0-1-.907,16.282,16.282,0,0,0-3.884-1.465.651.651,0,0,1-.337-.2.64.64,0,0,1-.151-.593.663.663,0,0,1,.791-.488,6.658,6.658,0,0,1,1.279.361,14.839,14.839,0,0,0,2.977.1,2.512,2.512,0,0,0,1.1-.3.756.756,0,0,0,.337-.7,4.21,4.21,0,0,0-.709-1.989.675.675,0,0,1,0-.744h0a.64.64,0,0,1,1.058.07,5.384,5.384,0,0,1,.93,2.721Z" transform="translate(-296.178 -6.261)" fill="#d96c63"/>
        <path id="Path_28634" data-name="Path 28634" d="M325,118.91a17.444,17.444,0,0,1,3.082,2.256c.93.9,1.523,1.337,2.163,1.93h0L317.618,69.533a.651.651,0,0,0-1.268.256L325,118.91Z" transform="translate(-296.255 -14.538)" fill="#39393b"/>
        <path id="Path_28635" data-name="Path 28635" d="M334.4,139.853c-4.373,2.814-5.605.733-5.605.733L326.587,128l.174-.221a1.709,1.709,0,0,0,.291-1.651,2.326,2.326,0,0,0-.5-.779,4.832,4.832,0,0,0-.512-.442v-.279a3.873,3.873,0,0,0,.9-.233,2.118,2.118,0,0,0,.43-.209,1.942,1.942,0,0,0,.8-1.058,3.326,3.326,0,0,0,1.977.872,3.782,3.782,0,0,0,.628,0Z" transform="translate(-294.676 -5.733)" fill="#39393b"/>
        <path id="Path_28636" data-name="Path 28636" d="M338.1,121.449a21.5,21.5,0,0,1-4.3,2.884,7.419,7.419,0,0,1-3.8.919,3.3,3.3,0,0,1-2.326-1.349c-2.082-2.791-.291-6.443.954-8.373.5.5.779.8.779.8l.512-.361c-1.082,1.593-2.872,4.884-1.163,7.152a1.942,1.942,0,0,0,1.454.814c2.326.244,5.919-2.431,7.117-3.489a.64.64,0,0,1,.919,0,.663.663,0,0,1-.14,1Z" transform="translate(-294.567 -6.971)" fill="#d96c63"/>
        <path id="Path_28637" data-name="Path 28637" d="M405.891,109.44h0v.233l-.07.384-.174.849c-.07.291-.128.593-.2.9s-.128.6-.209.907c-.279,1.163-.581,2.465-.919,3.71-.674,2.489-1.4,4.989-2.244,7.454s-1.779,4.826-2.721,7.268c-.512,1.163-1.012,2.384-1.547,3.547s-1.093,2.326-1.64,3.489c-1.163,2.326-2.326,4.535-3.652,6.71-.314.558-.663,1.082-.988,1.628s-.651,1.082-1,1.6c-.7,1.035-1.384,2.1-2.117,3.117-1.419,2.058-2.989,3.989-4.547,5.919a59.985,59.985,0,0,1-5.024,5.419l-1.3,1.291-1.442,1.244-.674.616-.163.151.081-.081.116-.093a3.711,3.711,0,0,1,.512-.361,8.2,8.2,0,0,1,2.442-1.163,3.258,3.258,0,0,0,.581-.14h1.721a1.662,1.662,0,0,1,.267,0h.233c.2.07-.186,0-.756-.244a21.579,21.579,0,0,1-2.186-1.163c-.837-.5-1.756-1.1-2.686-1.768a72.651,72.651,0,0,1-5.815-4.652c-1.989-1.744-3.942-3.489-5.908-5.384s-3.931-3.826-5.815-5.815-3.884-4.012-5.815-6.082c-.965-1.023-1.919-2.047-2.861-3.093l-2.744-3-21.189,15.9.709,1.07.663.988,1.337,1.942c.907,1.279,1.826,2.547,2.745,3.8,1.861,2.5,3.768,4.977,5.745,7.419s4.035,4.849,6.187,7.222c1.07,1.163,2.163,2.326,3.291,3.547s2.326,2.326,3.489,3.489a101.977,101.977,0,0,0,7.8,6.815c1.442,1.1,2.954,2.21,4.652,3.291a47.316,47.316,0,0,0,5.57,3.14,34.051,34.051,0,0,0,7.629,2.6l.581.116.616.1,1.268.174c.43,0,.907.081,1.361.1H382a14.828,14.828,0,0,0,1.582-.151l.8-.116.826-.163c.558-.116,1.1-.233,1.663-.4a22.851,22.851,0,0,0,6.454-3.012c.477-.326.942-.674,1.4-1.023l.337-.279.3-.244.244-.221.965-.861,1.942-1.744c.64-.581,1.244-1.163,1.872-1.8,2.5-2.4,4.8-4.977,7.047-7.594a89.156,89.156,0,0,0,6.2-8.2q2.861-4.239,5.384-8.664l1.221-2.221c.4-.744.768-1.5,1.163-2.256s.756-1.5,1.1-2.326l1.07-2.326a123.087,123.087,0,0,0,6.733-18.816c.849-3.21,1.617-6.443,2.2-9.734.3-1.651.57-3.314.791-5,.058-.43.116-.849.163-1.291s.1-.849.14-1.3.093-.884.14-1.337l.116-1.616Z" transform="translate(-294.774 -7.963)" fill="#faaf3a"/>
        <path id="Path_28638" data-name="Path 28638" d="M337.4,140.758a1.826,1.826,0,1,0,.422-1.333,1.826,1.826,0,0,0-.422,1.333Z" transform="translate(-292.826 -3.184)" fill="#c77e2e"/>
        <path id="Path_28639" data-name="Path 28639" d="M370.179,169.575a.779.779,0,0,0,.756-.593,59.624,59.624,0,0,0,1.279-13.536.779.779,0,0,0-.8-.756.791.791,0,0,0-.768.8,57.971,57.971,0,0,1-1.221,13.106.791.791,0,0,0,.57.954Z" transform="translate(-287.611 -0.591)" fill="#c77e2e"/>
        <path id="Path_28640" data-name="Path 28640" d="M375.006,163.77a.767.767,0,0,0,.349-.081.791.791,0,0,0,.349-1.047,64.258,64.258,0,0,0-3.826-6.757.779.779,0,1,0-1.221.965,66.032,66.032,0,0,1,3.652,6.489A.756.756,0,0,0,375.006,163.77Z" transform="translate(-287.438 -0.449)" fill="#c77e2e"/>
        <path id="Path_28641" data-name="Path 28641" d="M332.68,156.194a.779.779,0,0,0,.57-.233c6.536-6.745,21.282-17.386,21.433-17.444a.768.768,0,0,0,.174-1.081.779.779,0,0,0-1.081-.186c-.151.116-15.025,10.838-21.654,17.688a.768.768,0,0,0,.558,1.314Z" transform="translate(-293.722 -3.455)" fill="#c77e2e"/>
        <path id="Path_28642" data-name="Path 28642" d="M339.214,150.116a.721.721,0,0,0,.5-.186.767.767,0,0,0,.1-1.093l-7.885-9.466a.779.779,0,0,0-1.1-.1.8.8,0,0,0-.1,1.1l7.9,9.466a.756.756,0,0,0,.593.279Z" transform="translate(-293.941 -3.134)" fill="#c77e2e"/>
        <path id="Path_28643" data-name="Path 28643" d="M416.743,318.411l10.571-62.426.872-5.105-30.457-10.745L396,239.518l-7.245-2.558s-.581,2.663-1.489,7.257c-.1.558-.221,1.163-.337,1.744-2.861,14.769-8.21,45.2-9.676,72.45Z" transform="translate(-286.333 12.813)" fill="#39393b"/>
        <path id="Path_28644" data-name="Path 28644" d="M406.806,316.015c4.57-24.9,10.466-61.274,10.792-63.391a.819.819,0,1,0-1.616-.267c-.081.523-6.2,38.3-10.862,63.658Z" transform="translate(-281.792 15.21)" fill="#585859"/>
        <path id="Path_28645" data-name="Path 28645" d="M476.763,222.174s2.326,21.747-2.651,33.853-68.985,5.873-85.3-5.024c-6.7-4.466,7.559-45.7,7.559-45.7Z" transform="translate(-284.741 7.655)" fill="#39393b"/>
        <path id="Path_28646" data-name="Path 28646" d="M385.57,248.234a19.154,19.154,0,0,0,2.838-.733,18.771,18.771,0,0,0,4.21-2.047,21.9,21.9,0,0,0,3.756-3.059c7.059-7.129,9.141-17.886,9.245-18.421a.826.826,0,0,0-.663-.954.837.837,0,0,0-.965.651c0,.128-2.186,11.327-9.3,18.107a19.418,19.418,0,0,1-2.919,2.326,17.98,17.98,0,0,1-4.024,1.919,17.582,17.582,0,0,1-1.791.477C385.8,247.036,385.686,247.618,385.57,248.234Z" transform="translate(-284.977 10.54)" fill="#585859"/>
        <path id="Path_28647" data-name="Path 28647" d="M419.55,255.947a.8.8,0,0,0,.768.837h0a.814.814,0,0,0,.919-.744c.14-2.965.314-6.012.512-9.059,0-.535.058-1.07.1-1.6.64-9.931,1.465-19.688,2.082-26.573,0-.558.1-1.093.151-1.616.14-1.512.256-2.849.372-3.989l-1.64-.267c-.1,1.163-.233,2.489-.36,4.024-.058.512-.1,1.058-.151,1.616-.616,6.826-1.43,16.49-2.082,26.364l-.1,1.64C419.876,249.713,419.69,252.876,419.55,255.947Z" transform="translate(-279.441 8.898)" fill="#585859"/>
        <path id="Path_28648" data-name="Path 28648" d="M417.606,245.332a22.738,22.738,0,0,0,2.872,1.093,13.33,13.33,0,0,0,1.628.407,11.629,11.629,0,0,0,1.558.209,5.652,5.652,0,0,0,2.756-.43,3.407,3.407,0,0,0,1.872-2.512c.593-3.07,1.849-15.723,2.686-24.677.058-.547.1-1.093.163-1.6.128-1.442.244-2.745.349-3.849l-1.628-.2c-.1,1.1-.233,2.43-.361,3.884-.058.512-.1,1.047-.151,1.6-.849,8.931-2.1,21.572-2.686,24.538a1.744,1.744,0,0,1-.988,1.384,5.687,5.687,0,0,1-3.489,0,14.546,14.546,0,0,1-1.628-.442,17.7,17.7,0,0,1-2.244-.884.849.849,0,0,0-1.163.361.791.791,0,0,0,.454,1.116Z" transform="translate(-279.846 9.035)" fill="#585859"/>
        <path id="Path_28649" data-name="Path 28649" d="M462.883,319.252c2.535-23.177,5.466-54.181,7.129-72.1a14.023,14.023,0,0,1,.151-1.651c.721-7.919,1.163-12.92,1.163-12.92-3.931-1.628-11.059-.512-18.607,1.64l-1.64.488a226.953,226.953,0,0,0-27.759,10.838v73.706Z" transform="translate(-278.827 11.973)" fill="#39393b"/>
        <path id="Path_28650" data-name="Path 28650" d="M454.231,316.026c2.186-25.759,4.78-62.972,4.815-63.461a.826.826,0,1,0-1.64-.116c0,.488-2.64,37.842-4.826,63.577Z" transform="translate(-274.059 15.199)" fill="#585859"/>
        <path id="Path_28651" data-name="Path 28651" d="M443.265,223.964a42.8,42.8,0,0,0,4.547,12.106,26.434,26.434,0,0,0,8.455,9.373,19.165,19.165,0,0,0,10.466,3.082,14.023,14.023,0,0,1,.151-1.651,17.735,17.735,0,0,1-9.769-2.8,24.629,24.629,0,0,1-7.7-8.478,42.735,42.735,0,0,1-4.57-11.92.826.826,0,0,0-1.617.291Z" transform="translate(-275.583 10.551)" fill="#585859"/>
        <path id="Path_28652" data-name="Path 28652" d="M386.63,239.6c17.723,16.548,59.635,25.352,91.952,9.617,3.547-9.687,7.443-44.261,8.489-54.588.209-2.058.372-4.117.512-6.175a272.055,272.055,0,0,0,0-30.341c0-.57-.058-1.163-.081-1.71-.43-8.594-1.023-17.549-1.593-26.968-1.163-18.723-7.431-30.236-18.293-31.992a44.564,44.564,0,0,1-11.99-3.617l-1.035-.512a33.131,33.131,0,0,1-5.477-3.4H424.867a18.479,18.479,0,0,1-7.571,6.3l-.942.43c-8.606,3.71-18.607,2.977-20.7,13.35-1.291,6.512,3.686,19.9,3.163,47.052,0,2-.1,4.059-.2,6.2s-.221,4.082-.384,6.233-.326,4.047-.535,6.164c-.186,1.849-.4,3.756-.628,5.71s-.512,4.047-.814,6.14C394.666,198.793,390.34,225.087,386.63,239.6Z" transform="translate(-284.804 -11.143)" fill="#faaf3a"/>
        <path id="Path_28653" data-name="Path 28653" d="M458.1,237.722a.581.581,0,0,1-.2,0,.721.721,0,0,1-.512-.884c13.455-49.331,10.745-99.477,10.711-100.012a.733.733,0,0,1,1.454-.081c0,.5,2.756,50.878-10.757,100.43A.733.733,0,0,1,458.1,237.722Z" transform="translate(-273.279 -3.614)" fill="#c77e2e"/>
        <path id="Path_28654" data-name="Path 28654" d="M395.35,174.62a.779.779,0,0,0,.779-.686c1.6-14.269,1.628-42.656,1.628-42.935a.779.779,0,1,0-1.558,0c0,.279,0,28.573-1.628,42.761a.791.791,0,0,0,.7.861Z" transform="translate(-283.511 -4.578)" fill="#c77e2e"/>
        <path id="Path_28655" data-name="Path 28655" d="M423.781,214.888a1.826,1.826,0,1,0,.422-1.333,1.826,1.826,0,0,0-.422,1.333Z" transform="translate(-278.753 8.894)" fill="#c77e2e"/>
        <path id="Path_28656" data-name="Path 28656" d="M423.531,222.476a1.826,1.826,0,1,0,1.663-1.965,1.8,1.8,0,0,0-1.663,1.965Z" transform="translate(-278.793 10.132)" fill="#c77e2e"/>
        <path id="Path_28657" data-name="Path 28657" d="M405.651,141.292c-4.756-5.524-2.977-17.816-2.9-18.339a.779.779,0,0,1,.768-.663h16.13a.779.779,0,0,1,.779.663c.07.523,1.861,12.792-2.9,18.339a7.989,7.989,0,0,1-11.885,0Zm-1.442-17.444c-.291,2.6-1.082,12.118,2.617,16.432a6.466,6.466,0,0,0,9.524,0c3.71-4.3,2.919-13.827,2.617-16.432Z" transform="translate(-282.241 -5.87)" fill="#c77e2e"/>
        <path id="Path_28658" data-name="Path 28658" d="M448.826,40.592c-4.524-2.931-18.735-4.4-18.735-4.4s-2.326-6.14-4.977-7.9c-5.989-4-6.722,4.093-6.722,4.093s-5.815-8.14-11.129-5.815,1.465,9.862,1.465,9.862-7.9-1.465-6.978,5.268,8.489,9.664,8.489,9.664a14.792,14.792,0,0,0-1.163,9.943c1.163,6.152,3.8,6.443,3.8,6.443l32.783,2.931s6.733,0,8.489-8.489-4.105-12-4.105-12S453.8,43.8,448.826,40.592Z" transform="translate(-282.353 -21.531)" fill="#39393b"/>
        <path id="Path_28659" data-name="Path 28659" d="M419.19,88.508v6.164a19.547,19.547,0,0,0,2.186,1.535c10.687,6.419,22.224-1.523,22.224-1.523V73.32L422.109,86.694Z" transform="translate(-279.499 -13.848)" fill="#ea9b7a"/>
        <path id="Path_28660" data-name="Path 28660" d="M419.19,86.97v6.338a19.547,19.547,0,0,0,2.186,1.535C430.482,91.238,437.1,81.69,437.1,81.69l-14.99,3.64Z" transform="translate(-279.499 -12.484)" fill="#39393b"/>
        <path id="Path_28661" data-name="Path 28661" d="M442.106,86.3a12.164,12.164,0,0,1,9.152,9.431c-6.978,7.338-13.211,13.7-23.259,15.56V96.557A25.98,25.98,0,0,0,442.106,86.3Z" transform="translate(-278.064 -11.733)" fill="#faaf3a"/>
        <path id="Path_28662" data-name="Path 28662" d="M420.25,88.13s-6.431,1.372-8.92,9.594c6.477,7.885,9.931,10.85,19.432,13.269V96.259S425.471,96.119,420.25,88.13Z" transform="translate(-280.78 -11.435)" fill="#faaf3a"/>
        <path id="Path_28663" data-name="Path 28663" d="M415.89,198.858l4.163,10.059h0l1.872,4.512,5.28,12.769,2.547-4.931.907-1.744,2.058-3.954.9-1.744,2.047-3.954.907-1.744,2.047-3.954h0l.907-1.744,1.919-3.71-.035-.407-.3-2.942-.686-6.687-.291-2.954-.686-6.675-.3-2.954-.675-6.675-.3-2.942-.686-6.687-.291-2.954-.686-6.675-.3-2.954-.675-6.675-.3-2.954-.675-6.675-.3-2.954-.686-6.687-.3-2.942-.7-6.908-5.105-.2-.151,1.151-.3,2.337-.709,5.3-.3,2.337-.7,5.3-.314,2.337-.7,5.3-.314,2.337-.7,5.3-.3,2.337-.7,5.3-.314,2.337-.7,5.3-.314,2.337-.7,5.3-.3,2.337-.709,5.3-.3,2.337-.7,5.3-.314,2.349-.7,5.291-.314,2.349-.7,5.291-.3,2.349Z" transform="translate(-280.037 -7.673)" fill="#39393b"/>
        <path id="Path_28664" data-name="Path 28664" d="M425.44,114.547,432,121.106l-.3-2.942-5.954-5.954Z" transform="translate(-278.481 -7.512)" fill="#585859"/>
        <path id="Path_28665" data-name="Path 28665" d="M424.57,121.117l8.559,8.559-.3-2.954-7.954-7.943Z" transform="translate(-278.623 -6.441)" fill="#585859"/>
        <path id="Path_28666" data-name="Path 28666" d="M423.7,127.687l10.548,10.548-.3-2.954-9.931-9.931Z" transform="translate(-278.765 -5.371)" fill="#585859"/>
        <path id="Path_28667" data-name="Path 28667" d="M422.83,134.257l12.536,12.536-.3-2.954-11.92-11.92Z" transform="translate(-278.906 -4.301)" fill="#585859"/>
        <path id="Path_28668" data-name="Path 28668" d="M421.97,140.827l14.513,14.525-.291-2.954-13.92-13.909Z" transform="translate(-279.047 -3.23)" fill="#585859"/>
        <path id="Path_28669" data-name="Path 28669" d="M421.1,147.4l16.514,16.514-.3-2.942-15.9-15.909Z" transform="translate(-279.188 -2.16)" fill="#585859"/>
        <path id="Path_28670" data-name="Path 28670" d="M420.23,153.967l18.5,18.5-.3-2.954L420.544,151.63Z" transform="translate(-279.33 -1.089)" fill="#585859"/>
        <path id="Path_28671" data-name="Path 28671" d="M419.37,160.537l20.479,20.491-.291-2.954L419.672,158.2Z" transform="translate(-279.47 -0.019)" fill="#585859"/>
        <path id="Path_28672" data-name="Path 28672" d="M418.5,167.107l22.479,22.479-.3-2.942L418.8,164.77Z" transform="translate(-279.612 1.052)" fill="#585859"/>
        <path id="Path_28673" data-name="Path 28673" d="M417.63,173.689l20.7,20.688.907-1.744L417.944,171.34Z" transform="translate(-279.754 2.122)" fill="#585859"/>
        <path id="Path_28674" data-name="Path 28674" d="M416.76,180.259l18.758,18.746.907-1.744L417.074,177.91Z" transform="translate(-279.895 3.192)" fill="#585859"/>
        <path id="Path_28675" data-name="Path 28675" d="M415.9,186.829l16.816,16.8.9-1.744L416.2,184.48Z" transform="translate(-280.035 4.263)" fill="#585859"/>
        <path id="Path_28676" data-name="Path 28676" d="M419.47,195.23l1.872,4.512,7.827,7.838.907-1.744Z" transform="translate(-279.454 6.014)" fill="#585859"/>
        <path id="Path_28677" data-name="Path 28677" d="M431,111.418l-2.535,3.78-2.57-3.977-.442,3.4,2.965,3.024,2.849-3.593Z" transform="translate(-278.48 -7.673)" fill="#585859"/>
        <path id="Path_28678" data-name="Path 28678" d="M435.757,107.124l-6.8,10.117-6.524-10.117,6.524-8.454Z" transform="translate(-278.972 -9.718)" fill="#39393b"/>
        <path id="Path_28679" data-name="Path 28679" d="M441.627,114.847a.744.744,0,0,0,.488-.174c6.745-5.373,12.49-19.27,12.722-19.851a.779.779,0,0,0-.419-1.023.791.791,0,0,0-1.023.43c-.058.14-5.454,13.222-11.629,18.7L431.51,98.973a.779.779,0,0,0-.686-.279.814.814,0,0,0-.628.337l-9.513,13.618c-1.465-2.64-5.3-9.641-8.536-16.141a.78.78,0,0,0-1.4.7c4.07,8.14,9.117,17.2,9.164,17.293a.791.791,0,0,0,.64.4.837.837,0,0,0,.686-.326l9.652-13.723L441,114.579a.814.814,0,0,0,.535.3Z" transform="translate(-280.888 -10.521)" fill="#c77e2e"/>
        <path id="Path_28680" data-name="Path 28680" d="M428.159,100.047a.779.779,0,0,0,.779-.779V95.779a.779.779,0,0,0-1.558,0v3.489A.779.779,0,0,0,428.159,100.047Z" transform="translate(-278.165 -10.316)" fill="#c77e2e"/>
        <path id="Path_28681" data-name="Path 28681" d="M413.464,63.178s-3.489-4.14-5.477,0-.454,12.49,4.861,11.118Z" transform="translate(-281.461 -15.8)" fill="#d96c63"/>
        <path id="Path_28682" data-name="Path 28682" d="M409.37,80.8s0,12.722,13.222,12.7,22.1-10.362,22.6-10.838h0l.151-2.675.814-13.9.4-7.431s1.686-13.362-11.013-15.8c-9.3-1.779-17.99-.233-22.375,4.652-.14.151-.279.314-.407.477a11.42,11.42,0,0,0-2.5,6.233l-.419,13.327-.093,3.268Z" transform="translate(-281.099 -18.929)" fill="#ea9b7a"/>
        <path id="Path_28683" data-name="Path 28683" d="M422.552,56.254s5.559,4.14,8.862,1.5-4.4-5.512-6.919-5.3S420.878,55.312,422.552,56.254Z" transform="translate(-279.082 -17.25)" fill="#39393b"/>
        <path id="Path_28684" data-name="Path 28684" d="M418.6,56.254s-5.547,4.14-8.861,1.5,4.4-5.512,6.978-5.3S420.247,55.312,418.6,56.254Z" transform="translate(-281.173 -17.25)" fill="#39393b"/>
        <path id="Path_28685" data-name="Path 28685" d="M421.262,77.116a5.512,5.512,0,0,0,3.78-1.163.581.581,0,1,0-.756-.884,4.07,4.07,0,0,1-4.07.628.586.586,0,1,0-.477,1.07A4.884,4.884,0,0,0,421.262,77.116Z" transform="translate(-279.467 -13.586)" fill="#d96c63"/>
        <path id="Path_28686" data-name="Path 28686" d="M427.643,69s-8.071,1.628-12.153,1.256c0,0,1.512,6.012,7.524,4.5A6.012,6.012,0,0,0,427.643,69Z" transform="translate(-280.102 -14.552)" fill="#fff"/>
        <path id="Path_28687" data-name="Path 28687" d="M412.23,47.938c2.07-.733,3.57,0,6.815,1.372,4.652,2.058,9.908.209,14.525-2.151s7.4.919,5.815,3.082-1.407,3.907.337,6.652-3.3,4.035-.512,6.187a2.861,2.861,0,0,1,.628,3.489,1.907,1.907,0,0,0,2.151,2.524h0c1.5-.384,3.628-3.047,3.628-3.047l.4-7.431S447.7,45.252,435,42.81c-9.3-1.779-17.99-.233-22.375,4.652C412.5,47.613,412.358,47.8,412.23,47.938Z" transform="translate(-280.633 -18.935)" fill="#39393b"/>
        <path id="Path_28690" data-name="Path 28690" d="M423,61.326c0,1.279.57,2.326,1.291,2.326s1.279-1.023,1.279-2.326S425,59,424.291,59,423,60.012,423,61.326Z" transform="translate(-278.879 -16.181)" fill="#39393b"/>
        <path id="Path_28691" data-name="Path 28691" d="M412,61.326c0,1.279.57,2.326,1.291,2.326s1.279-1.023,1.279-2.326S414,59,413.291,59,412,60.012,412,61.326Z" transform="translate(-280.671 -16.181)" fill="#39393b"/>
        <path id="Path_28692" data-name="Path 28692" d="M436.61,72.54c.058.14,1.733,4.024,4.14,5.163h0l.14-2.675A9.164,9.164,0,0,1,436.61,72.54Z" transform="translate(-276.661 -13.975)" fill="#39393b"/>
        <path id="Path_28693" data-name="Path 28693" d="M438.61,65.424s5.094-6.838,8.815-1.465c3.082,4.431-2.733,15.967-8.815,12.013Z" transform="translate(-276.335 -15.709)" fill="#ea9b7a"/>
        <path id="Path_28696" data-name="Path 28696" d="M420.024,68.143a.523.523,0,1,0,0-1.047,3.617,3.617,0,0,1-3.128-1.454c2.093-4.3,4.175-8.652,4.187-8.687a.523.523,0,1,0-.942-.454s-2.175,4.547-4.3,8.931a.512.512,0,0,0,0,.454A4.442,4.442,0,0,0,420.024,68.143Z" transform="translate(-280.054 -16.637)" fill="#39393b"/>
        <path id="Path_28697" data-name="Path 28697" d="M529.378,112.475s7.059,7.117,13.955,4.349c5.629-2.244,6.873-10.059,7.14-12.99.07-.7.07-1.163.07-1.163a8.867,8.867,0,0,0,.919-.6c1.233-.907,3.279-2.733,3.047-4.9-.314-3.07-5.884-1.361-5.884-1.361s.837-3.71-.8-4.791-4.942.826-4.942.826,1.791-4.547-.663-5.64c-3.71-1.651-4.942,3.931-5.094,4.3,0-.407,1.8-17.537-1.163-16.653-2.57.768-4.931,15.118-5.524,18.979-.1.616-.151.965-.151.965h-.547c-1.651,0-6.512.488-7.4,3.873C521.342,101.8,529.378,112.475,529.378,112.475Z" transform="translate(-262.707 -13.766)" fill="#ea9b7a"/>
        <path id="Path_28698" data-name="Path 28698" d="M541.661,97.4a6.187,6.187,0,0,0-.616,3.8,1.8,1.8,0,0,0,1.163,1.3,3.407,3.407,0,0,0,1.547,0,18.778,18.778,0,0,0,4.582-1.663c.07-.7.07-1.163.07-1.163a7.6,7.6,0,0,0,.919-.6.6.6,0,0,0-.314.081c-1.9,1.035-5.315,2.547-6.454,2.175a.651.651,0,0,1-.442-.512c-.314-1.163.535-3.489,1.733-4.931a.572.572,0,1,0-.767-.849c-1.163.849-4.5,2.931-6.164,2.407-.244-.081-.267-.2-.291-.256a1.988,1.988,0,0,1,.256-1.163A14.576,14.576,0,0,1,538.928,93a.581.581,0,0,0-.872-.768,15.85,15.85,0,0,0-2.082,3.012,4.647,4.647,0,0,0-.488,1.442,2.1,2.1,0,0,0,0,.814,1.523,1.523,0,0,0,1.058,1.035C538.079,99.073,540.114,98.247,541.661,97.4Z" transform="translate(-260.558 -10.795)" fill="#d96c63"/>
        <path id="Path_28699" data-name="Path 28699" d="M533.295,92.511a.558.558,0,0,1,.407.5,3.769,3.769,0,0,0,.512,1.791.64.64,0,0,0,.593.326,2.047,2.047,0,0,0,.954-.349,16.828,16.828,0,0,0,3.093-2.558.546.546,0,0,1-.14.314,14.345,14.345,0,0,0-2.047,3.035l-.349.209a4.129,4.129,0,0,1-1.047.442,1.848,1.848,0,0,1-.419.07,1.826,1.826,0,0,1-1.582-.814,4.814,4.814,0,0,1-.721-2.326.558.558,0,0,1,.721-.581Z" transform="translate(-261.031 -10.769)" fill="#d96c63"/>
        <path id="Path_28700" data-name="Path 28700" d="M526.142,99.276a19,19,0,0,0,4.57-.128,6.536,6.536,0,0,0,3.186-1.279,2.931,2.931,0,0,0,1.023-2.175c0-3.07-3.082-4.78-4.954-5.524-.1.616-.151.965-.151.965h-.547c1.582.593,4.547,2.047,4.489,4.524A1.733,1.733,0,0,1,533.131,97c-1.535,1.361-5.477,1.279-6.873,1.163a.57.57,0,0,0-.628.512A.581.581,0,0,0,526.142,99.276Z" transform="translate(-262.158 -11.103)" fill="#d96c63"/>
        <path id="Path_28701" data-name="Path 28701" d="M537.383,109.421a.593.593,0,0,0,.454-.372.581.581,0,0,0-.337-.744,5.187,5.187,0,0,1-3.233-3.012c-1.361-3.582,1.163-8.536,1.221-8.582a.581.581,0,0,0-1.023-.535c-.116.221-2.814,5.466-1.268,9.524a6.268,6.268,0,0,0,3.9,3.686A.5.5,0,0,0,537.383,109.421Z" transform="translate(-261.003 -10.166)" fill="#d96c63"/>
        <path id="Path_28702" data-name="Path 28702" d="M465.762,99.91l12.048,10.466q2.9,2.7,5.815,5.361t5.815,5.291c1.942,1.744,3.873,3.489,5.815,5.187s3.873,3.361,5.815,4.954,3.826,3.152,5.617,4.477c.884.663,1.756,1.268,2.454,1.721l.465.3.186.116a.186.186,0,0,1,.07.058l.151.163c.058.081.058.14.128.209a1.082,1.082,0,0,0,.6.093A9.3,9.3,0,0,0,514.116,137a29.216,29.216,0,0,0,4.652-3.489,61.642,61.642,0,0,0,4.756-4.78,118.163,118.163,0,0,0,8.978-11.571c2.872-4.128,4.884-7.315,7.478-11.711a19.351,19.351,0,0,0,17.56,6.71,156.317,156.317,0,0,1-6.884,15.7,122.2,122.2,0,0,1-8.966,15.188,78.731,78.731,0,0,1-5.815,7.373,54.141,54.141,0,0,1-7.559,7.059,38.608,38.608,0,0,1-4.919,3.2,32.189,32.189,0,0,1-6.105,2.535,27.469,27.469,0,0,1-7.361,1.163,26.747,26.747,0,0,1-7.8-.989,29.508,29.508,0,0,1-3.617-1.279l-.837-.384-.7-.337-.663-.349-.64-.326c-1.628-.884-3.024-1.733-4.361-2.582-2.651-1.686-5.035-3.361-7.373-5.059s-4.559-3.419-6.768-5.14-4.373-3.489-6.5-5.222-4.233-3.489-6.326-5.315-4.14-3.605-6.187-5.408-4.082-3.652-6.094-5.5l-3-2.8-1.5-1.407c-.5-.488-.989-.942-1.512-1.465Z" transform="translate(-275.123 -9.516)" fill="#faaf3a"/>
        <path id="Path_28703" data-name="Path 28703" d="M476.065,145.079a.7.7,0,0,1-.419-.14c-7.954-5.57-22.1-17.3-22.247-17.444a.745.745,0,0,1,.93-1.163c.14.116,14.246,11.815,22.1,17.351a.733.733,0,0,1-.419,1.326Z" transform="translate(-273.971 -5.237)" fill="#c77e2e"/>
        <path id="Path_28704" data-name="Path 28704" d="M459.587,131.827h-.1L453.877,131a.723.723,0,1,1,.209-1.43l5.605.814a.721.721,0,0,1,.6.826.709.709,0,0,1-.709.616Z" transform="translate(-273.949 -4.685)" fill="#c77e2e"/>
        <path id="Path_28705" data-name="Path 28705" d="M540.936,119.592a.744.744,0,0,0-.5-1.384c-10.548,2.326-15.8-7.768-15.862-7.861a.733.733,0,0,0-.988-.326h0a.733.733,0,0,0-.314.988c0,.116,5.815,11.187,17.444,8.652A.885.885,0,0,0,540.936,119.592Z" transform="translate(-262.555 -7.881)" fill="#c77e2e"/>
        <path id="Path_28706" data-name="Path 28706" d="M533.942,119.748a.814.814,0,0,0,.337-.372l3.489-8.14a.744.744,0,0,0-.4-.977.721.721,0,0,0-.965.4l-3.489,8.14a.744.744,0,0,0,.384.977A.767.767,0,0,0,533.942,119.748Z" transform="translate(-260.98 -7.84)" fill="#c77e2e"/>
        <path id="Path_28707" data-name="Path 28707" d="M528.461,111.963a1.279,1.279,0,1,0-.088-.98A1.279,1.279,0,0,0,528.461,111.963Z" transform="translate(-261.72 -7.858)" fill="#c77e2e"/>
        <path id="Path_28708" data-name="Path 28708" d="M499.784,141.946a.756.756,0,0,0,.4-.535,31.807,31.807,0,0,1,2.163-7.373.744.744,0,0,0-1.326-.674,33.189,33.189,0,0,0-2.326,7.8.756.756,0,0,0,.616.849.744.744,0,0,0,.477-.07Z" transform="translate(-266.548 -4.128)" fill="#c77e2e"/>
        <path id="Path_28709" data-name="Path 28709" d="M504.3,140.186l.128-.093a.744.744,0,0,0,.093-1.047,13.711,13.711,0,0,1-2.57-4.931.744.744,0,0,0-1.454.3A14.931,14.931,0,0,0,503.4,140a.756.756,0,0,0,.907.186Z" transform="translate(-266.253 -4.031)" fill="#c77e2e"/>
      </g>
      <path id="Path_28731" data-name="Path 28731" d="M226.183,400.143a.965.965,0,0,1-.919-.721.954.954,0,0,1,.7-1.163l3.582-.9A.946.946,0,1,1,230,399.2l-3.582.9Z" transform="translate(9.214 64.5)" fill="#fff"/>
      <path id="Path_28732" data-name="Path 28732" d="M229.836,401.5a.942.942,0,0,1-.233-1.861l3.582-.9a.948.948,0,0,1,.465,1.837l-3.593.884a.735.735,0,0,1-.221.035Z" transform="translate(9.806 64.724)" fill="#fff"/>
      <rect id="Rectangle_2279" data-name="Rectangle 2279" width="43.203" height="28.596" rx="2.29" transform="translate(178.472 131.256)" fill="#df615c"/>
      <path id="Path_28847" data-name="Path 28847" d="M211.351,133.98l-3.466,13.048-6.036-12.269Z" transform="translate(5.404 21.592)" fill="#df615c"/>
      <path id="Path_28848" data-name="Path 28848" d="M206.593,124.277c-.768,4.884-9.885,11-9.885,11s-8.792-6.129-9.3-11.013c-.535-5.3,5.745-6.978,9.676-2.931C201.255,117.346,207.442,118.986,206.593,124.277Z" transform="translate(3.045 19.166)" fill="#fff"/>
      <ellipse id="Ellipse_254" data-name="Ellipse 254" cx="64.519" cy="6.373" rx="64.519" ry="6.373" transform="translate(627.303 474.074)" fill="#ced3e6"/>
      <rect id="Rectangle_2280" data-name="Rectangle 2280" width="87.057" height="6.896" rx="2.41" transform="translate(647.073 427.464)" fill="#39393b"/>
      <rect id="Rectangle_2281" data-name="Rectangle 2281" width="84.37" height="14.571" rx="2.06" transform="translate(648.503 351.072)" fill="#585859"/>
      <path id="Path_28853" data-name="Path 28853" d="M597.31,250.025a.6.6,0,0,1-.512-.454c-8.14-24.014-5.175-53.192-5.14-53.495a.6.6,0,0,1,.663-.547.616.616,0,0,1,.547.674c0,.291-3.012,29.213,5.082,52.96a.616.616,0,0,1-.384.768A.594.594,0,0,1,597.31,250.025Z" transform="translate(68.823 31.62)" fill="#39393b"/>
      <path id="Path_28854" data-name="Path 28854" d="M598.46,253.406a.6.6,0,0,1-.593-.512,84.3,84.3,0,0,1,1.512-35.318,55.822,55.822,0,0,1,5.128-13.316.616.616,0,0,1,.837-.209.6.6,0,0,1,.209.837,56.171,56.171,0,0,0-5.012,13.071,83.37,83.37,0,0,0-1.43,34.76.616.616,0,0,1-.5.7Z" transform="translate(69.731 32.995)" fill="#39393b"/>
      <path id="Path_28871" data-name="Path 28871" d="M613.479,314.61l-2.43,7.815L577.312,431.158H570.73l21.386-106.512,2.012-10.036Z" transform="translate(65.504 51.022)" fill="#39393b"/>
      <path id="Path_28872" data-name="Path 28872" d="M670.539,431.158h-6.594L629.209,319.2l-1.419-4.594h19.328l.5,2.442h0Z" transform="translate(74.801 51.022)" fill="#39393b"/>
      <rect id="Rectangle_2282" data-name="Rectangle 2282" width="87.057" height="6.896" rx="2.41" transform="translate(647.073 412.474)" fill="#585859"/>
      <ellipse id="Ellipse_255" data-name="Ellipse 255" cx="31.539" cy="31.143" rx="31.539" ry="31.143" transform="translate(168.68 23.929)" fill="#ced3e6"/>
      <ellipse id="Ellipse_256" data-name="Ellipse 256" cx="31.539" cy="31.143" rx="31.539" ry="31.143" transform="translate(168.68 19.882)" fill="#0875f7"/>
      <ellipse id="Ellipse_257" data-name="Ellipse 257" cx="25.631" cy="25.317" rx="25.631" ry="25.317" transform="translate(174.588 25.709)" fill="#fff"/>
      <path id="Path_28873" data-name="Path 28873" d="M225.033,47.672a16.341,16.341,0,0,1-.081,2,25.666,25.666,0,0,0-51.111,0c-.058-.663-.081-1.326-.081-2a25.637,25.637,0,1,1,51.273,0Z" transform="translate(0.828 3.354)" fill="#ced3e6"/>
      <path id="Path_28874" data-name="Path 28874" d="M197.652,48.86a.651.651,0,0,1-.512-.256L184.557,31.882A.628.628,0,0,1,184.7,31a.64.64,0,0,1,.9.128l12.269,16.281,13.955-6.036a.64.64,0,0,1,.849.326.616.616,0,0,1-.326.826l-14.455,6.291a.628.628,0,0,1-.233.047Z" transform="translate(2.567 4.793)" fill="#39393b"/>
    </g>
    <g id="Group_1273" data-name="Group 1273" transform="translate(1319.501 -2219.85)">
      <path id="Path_28590" data-name="Path 28590" d="M132.85,267.47a6.31,6.31,0,1,0,0,12.62h37v-2.32h-1.16v-8h1.16v-2.32Z" transform="translate(117 2434)" fill="#037262"/>
      <path id="Path_28591" data-name="Path 28591" d="M191,268.63h0v1.16H155.17a4,4,0,0,0,0,8H191v1.16h0Z" transform="translate(117 2434)" fill="#fff"/>
      <path id="Path_28592" data-name="Path 28592" d="M155.17,277.77a4,4,0,0,1,0-8h37v-2.32h-37a6.31,6.31,0,1,0,0,12.62h37v-2.32Z" transform="translate(117 2434)" fill="#008c7b"/>
    </g>
    <g id="Group_1271" data-name="Group 1271" transform="translate(1218.08 -2185.46)">
      <path id="Path_28512" data-name="Path 28512" d="M398.64,413.6H381.25l.22-4.27,3.09-60.41.75-14.73h6.67l6.3,75.06Z" transform="translate(117 2434)" fill="#d1d3d4"/>
      <path id="Path_28513" data-name="Path 28513" d="M343.87,429.68l46.08-24.93v23.8Z" transform="translate(117 2434)" fill="#d1d3d4"/>
      <path id="Path_28514" data-name="Path 28514" d="M436.03,429.68l-37.04-.92-9.04-.22v-23.8l2.86,1.55,5.47,2.96Z" transform="translate(117 2434)" fill="#d1d3d4"/>
      <path id="Path_28515" data-name="Path 28515" d="M430.05,285.11l-71.41,53.53-32.57-4.07S361.9,242.42,373.81,213c1.51-3.73,2.63-6.45,3.25-7.86,3.76-12.46,19.66-11.93,44.19-11.15l1.08,11.15Z" transform="translate(117 2434)" fill="#243036"/>
      <path id="Path_28516" data-name="Path 28516" d="M319.29,244.45l-3.42,12.84L280,274.54v4.8h12.28s35-7.61,36-9.9,6.1-19,6.1-19Z" transform="translate(117 2434)" fill="#ff7d6f"/>
      <path id="Path_28517" data-name="Path 28517" d="M308.44,352.88l11.79,45.41-3.99.56-10.88,1.53L284.49,351.2l14.01.99Z" transform="translate(117 2434)" fill="#ffa07f"/>
      <path id="Path_28518" data-name="Path 28518" d="M308.44,352.88l11.79,45.41-3.99.56L298.5,352.19Z" transform="translate(117 2434)" fill="#ff7d6f"/>
      <path id="Path_28519" data-name="Path 28519" d="M322.78,394.76c3,5,7.4,15.24,8.32,17.38l.35,1.12,1.16,3.67L326.23,419l-2.5-3.59-1.11-1.58-.61,2.06-1.48,4.95-32.8,10.63-1.53-4.79a4.784,4.784,0,0,1-.08-.77,2.71,2.71,0,0,1,.78-2c2.41-2.39,11.52-10.36,13.55-13.79,1.57-2.67,2.11-7.45,2.27-9.46Z" transform="translate(117 2434)" fill="#985551"/>
      <path id="Path_28520" data-name="Path 28520" d="M307.07,407.61a1.853,1.853,0,0,1,.14.14c.36.35.7.95.26,1.37a1.4,1.4,0,0,1-.85.31,9.52,9.52,0,0,1-3.14-.28,7.411,7.411,0,0,1-3.23-1.33,1.19,1.19,0,0,1,.75-2.13,8.44,8.44,0,0,1,6.07,1.92Z" transform="translate(117 2434)" fill="#763231"/>
      <path id="Path_28521" data-name="Path 28521" d="M304.51,411.27l.15.14c.35.35.7.94.26,1.37a1.52,1.52,0,0,1-.85.31,9.321,9.321,0,0,1-3.15-.29,7.4,7.4,0,0,1-3.22-1.32,1.18,1.18,0,0,1,.75-2.13,8.32,8.32,0,0,1,6.06,1.92Z" transform="translate(117 2434)" fill="#763231"/>
      <path id="Path_28522" data-name="Path 28522" d="M300.9,414.31l.14.14c.36.34.7.94.26,1.36a1.34,1.34,0,0,1-.85.31,9.261,9.261,0,0,1-3.14-.28,7.509,7.509,0,0,1-3.23-1.32,1.19,1.19,0,0,1,.75-2.14A8.4,8.4,0,0,1,300.9,414.31Z" transform="translate(117 2434)" fill="#763231"/>
      <path id="Path_28523" data-name="Path 28523" d="M286.12,425.91l35.89-10-1.48,4.95-32.8,10.63-1.53-4.79a4.78,4.78,0,0,1-.08-.79Z" transform="translate(117 2434)" fill="#763231"/>
      <path id="Path_28524" data-name="Path 28524" d="M331.45,413.26l1.17,3.67L326.23,419l-2.5-3.59Z" transform="translate(117 2434)" fill="#763231"/>
      <path id="Path_28525" data-name="Path 28525" d="M331,295.23s-46.79,7-55.21,17c-5.14,9.56,21.43,75.06,21.43,75.06l20.31-5.28L305.39,331.3l41.66-8,5.68-28Z" transform="translate(117 2434)" fill="#af97a6"/>
      <path id="Path_28526" data-name="Path 28526" d="M299.28,365.47l-16.72,43.84-3.57-1.86-9.76-5.06,11.5-52.16,10.85,8.91Z" transform="translate(117 2434)" fill="#ffa07f"/>
      <path id="Path_28527" data-name="Path 28527" d="M299.28,365.47l-16.72,43.84-3.57-1.86,12.59-48.31Z" transform="translate(117 2434)" fill="#ff7d6f"/>
      <path id="Path_28528" data-name="Path 28528" d="M284.65,407.79c-.85,5.81-3.91,16.49-4.55,18.72l-.44,1.09-1.41,3.58L272,428.74l.33-4.36.15-1.92-1.78,1.2-4.28,2.9-32.13-12.51,1.85-4.68a4.679,4.679,0,0,1,.42-.64,2.69,2.69,0,0,1,1.87-1.06c3.38-.33,15.48-.74,19.23-2.12,2.9-1.07,6.34-4.43,7.73-5.88Z" transform="translate(117 2434)" fill="#985551"/>
      <path id="Path_28529" data-name="Path 28529" d="M264.35,407.81a1.226,1.226,0,0,1,0,.19c.06.5-.05,1.18-.66,1.23a1.45,1.45,0,0,1-.86-.3,9.44,9.44,0,0,1-2.25-2.21,7.51,7.51,0,0,1-1.67-3.06,1.19,1.19,0,0,1,1.94-1.18,8.39,8.39,0,0,1,3.5,5.33Z" transform="translate(117 2434)" fill="#763231"/>
      <path id="Path_28530" data-name="Path 28530" d="M260.06,409a1.5,1.5,0,0,1,0,.2c.06.5-.05,1.18-.66,1.23a1.45,1.45,0,0,1-.86-.3,9.26,9.26,0,0,1-2.25-2.21,7.549,7.549,0,0,1-1.67-3.07,1.19,1.19,0,0,1,1.94-1.17A8.41,8.41,0,0,1,260.06,409Z" transform="translate(117 2434)" fill="#763231"/>
      <path id="Path_28531" data-name="Path 28531" d="M255.34,409.09v.2c0,.49-.06,1.17-.66,1.22a1.39,1.39,0,0,1-.86-.3,9.26,9.26,0,0,1-2.26-2.2,7.48,7.48,0,0,1-1.66-3.07,1.19,1.19,0,0,1,1.94-1.18,8.46,8.46,0,0,1,3.5,5.33Z" transform="translate(117 2434)" fill="#763231"/>
      <path id="Path_28532" data-name="Path 28532" d="M236.55,408.73l34.14,14.93-4.28,2.9-32.13-12.51,1.85-4.68a4.678,4.678,0,0,1,.42-.64Z" transform="translate(117 2434)" fill="#763231"/>
      <path id="Path_28533" data-name="Path 28533" d="M279.66,427.6l-1.41,3.58-6.26-2.43.33-4.37Z" transform="translate(117 2434)" fill="#763231"/>
      <path id="Path_28534" data-name="Path 28534" d="M392.91,327.75c-1.65,5.8-75.81,7-75.81,7l-24.85,51L272,378.06s18.26-64.48,26.24-68.65,49.1-4.68,49.1-4.68l9.92-15.09,27.91-.83S394.56,321.93,392.91,327.75Z" transform="translate(117 2434)" fill="#c2adb9"/>
      <path id="Path_28535" data-name="Path 28535" d="M392.91,327.75c-1.65,5.8-75.81,7-75.81,7l-24.85,51-5.37-2.05c6.95-11.23,25.34-54.94,27.69-56,3.24-1.46,61.24-.06,65-2.16,3.38-1.92-1.81-30.69-2.8-35.95l8.41-.83S394.56,321.93,392.91,327.75Z" transform="translate(117 2434)" fill="#af97a6"/>
      <path id="Path_28536" data-name="Path 28536" d="M326.91,205.08a29.271,29.271,0,0,0-4.64,4.81c-2.12,2.82-9.63,33.66-9.63,33.66l17,7.94Z" transform="translate(117 2434)" fill="#0091ff"/>
      <path id="Path_28537" data-name="Path 28537" d="M320,241.47c2,3.1,6.47,7.23,9.71,10l6.28,21.12-5.8,22c36.24,9.24,63,7.52,63,7.52l-11.23-34.26s-8.55-67.9-8.69-68.11-12.13-1.38-12.13-1.38-4.4,12.45-12.37,12.7c-7.8.25-12.76-9.2-13.1-9.55L327,205.08S316.63,236.35,320,241.47Z" transform="translate(117 2434)" fill="#0091ff"/>
      <path id="Path_28538" data-name="Path 28538" d="M373.18,199.74s-6.82,4-8.75,11.09-13.35,31-13.35,31l28.46,11.75s7.36-34.56,6-41.74S373.18,199.74,373.18,199.74Z" transform="translate(117 2434)" fill="#0091ff"/>
      <path id="Path_28539" data-name="Path 28539" d="M362.55,212.95l-11.74,31.32,28.14,9.05-23.24-11.98Z" transform="translate(117 2434)" fill="#0091ff"/>
      <path id="Path_28540" data-name="Path 28540" d="M376.54,252.54s-5.47,18.83-8.16,20.59-63.24,4.58-63.24,4.58V267.15l47.34-10.38L356.13,246Z" transform="translate(117 2434)" fill="#ffa07f"/>
      <path id="Path_28541" data-name="Path 28541" d="M305.14,267.15s-7.51-4.22-10.68-3.29S279,269.5,279,269.5s-7.28,8.88-6.46,9.84h8.09s4.81-2.1,5.87-1.63,9.15,1.63,9.15,1.63l9.51-1.63Z" transform="translate(117 2434)" fill="#ffa07f"/>
      <path id="Path_28542" data-name="Path 28542" d="M327.19,210.36s-6,21.36-5.51,26.17,8,15,8,15-4.62-14.61-4.6-15.55S327.19,210.36,327.19,210.36Z" transform="translate(117 2434)" fill="#0374ca"/>
      <path id="Path_28550" data-name="Path 28550" d="M356.33,334.22c2.26-10.87,8.4-38.6,13.64-46.48,3-7.22,34.49-8.79,38.26-12.22,7.34-5.67,3.09-75.65,9.27-80.31s11.3,4.59,12.46,7.08,16.33,72.89,14.78,87.58c-1.5,14.27-10.76,48.65-82.92,48.83C359.74,338.71,355.15,339.32,356.33,334.22Z" transform="translate(117 2434)" fill="url(#linear-gradient)"/>
      <path id="Path_28551" data-name="Path 28551" d="M384.35,180a62.14,62.14,0,0,1-19.14,10.91,64.56,64.56,0,0,1-55.63-6c3.89-2.56,6.06-6.9,6.94-11.25s.64-8.84.66-13.26.36-9,2.28-13c.13-.28.27-.55.42-.82,5-9.17,17.5-12.23,27.68-10.47a26.41,26.41,0,0,1,14.09,6.79c3.59,3.55,5.61,8.21,7.18,12.85s2.73,9.45,5,13.86S379.52,178.08,384.35,180Z" transform="translate(117 2434)" fill="#161818"/>
      <path id="Path_28552" data-name="Path 28552" d="M362,198.27c-3.48,3.47-11.86,11.24-16.95,11.25s-7-6.69-7.63-9.88l5.91-2.69h0l12.3-.43a53.641,53.641,0,0,1,5.31,1.38A8.981,8.981,0,0,1,362,198.27Z" transform="translate(117 2434)" fill="#ffa07f"/>
      <path id="Path_28553" data-name="Path 28553" d="M345.05,208.34l10.63-11.83c-.08-1.83-.26-2.52-.58-7-.35-5-.7-9.76-.7-9.76l-14,6.12a33.79,33.79,0,0,1,2.94,11.4C344.08,205.35,345.05,208.34,345.05,208.34Z" transform="translate(117 2434)" fill="#ffa07f"/>
      <path id="Path_28554" data-name="Path 28554" d="M340.36,185.82a33.79,33.79,0,0,1,2.94,11.4c.45.17.9.33,1.32.46,1.67.51,6.82-4.38,10.48-8.22-.35-5-.7-9.76-.7-9.76Z" transform="translate(117 2434)" fill="#ff7d6f"/>
      <path id="Path_28555" data-name="Path 28555" d="M324.84,169.42a42.716,42.716,0,0,0,1.26,4.11s-.4,7.15.41,8.72,5.94,11.37,11,10.58c4.19-.66,14.26-7.17,17.71-11a4.26,4.26,0,0,0,1.18-1.87c.39-2.84,1.65-15.38,1.77-16.43.33-2.84.78-24.31-24.92-17.46a12.48,12.48,0,0,0-9.08,9.69,31.24,31.24,0,0,0,.67,13.66Z" transform="translate(117 2434)" fill="#ffa07f"/>
      <path id="Path_28556" data-name="Path 28556" d="M333.52,183.67l10.7-2.52s0,5.23-4.81,6a4.93,4.93,0,0,1-5.89-3.48Z" transform="translate(117 2434)" fill="#ffeede"/>
      <path id="Path_28557" data-name="Path 28557" d="M332.74,177.78a6,6,0,0,0,3.88-2.26,2.51,2.51,0,0,1-.16,1.88,7.74,7.74,0,0,1-1.09,1.59,3.37,3.37,0,0,1-1.92,1.42C333.28,179.6,332.92,178.6,332.74,177.78Z" transform="translate(117 2434)" fill="#ff7d6f"/>
      <path id="Path_28560" data-name="Path 28560" d="M355.19,179.67a9.9,9.9,0,0,0,6.75-4,8.179,8.179,0,0,0,.65-1c.87-1.72.94-7.57-1.5-8.84-1.71-.89-2.88.53-3.43,1.46h0a6.136,6.136,0,0,0-.35.7Z" transform="translate(117 2434)" fill="#ffbf90"/>
      <path id="Path_28561" data-name="Path 28561" d="M355.19,179.67a9.9,9.9,0,0,0,6.75-4,3.448,3.448,0,0,0,.27-.49c.87-1.71.94-7.56-1.5-8.84a2.3,2.3,0,0,0-3,.9h0a6.131,6.131,0,0,0-.35.7Z" transform="translate(117 2434)" fill="#ffa07f"/>
      <path id="Path_28562" data-name="Path 28562" d="M362,170.36a2.46,2.46,0,0,1-.06,1.42c-.58,2-2.49,3.55-4.32,5a4.88,4.88,0,0,0,.56-3.09,8,8,0,0,1-.16-1.09C358,171.13,361.2,167.62,362,170.36Z" transform="translate(117 2434)" fill="#ff7d6f"/>
      <path id="Path_28563" data-name="Path 28563" d="M356.7,177.37l.11-.06c.06-.05.17-.11.29-.19a4.179,4.179,0,0,0,.9-.87,3.83,3.83,0,0,0,.71-1.58,3.32,3.32,0,0,0-.31-2.06,1.649,1.649,0,0,0-.15-.25v-.06h0v-.05l.06-.12.12-.22a9.871,9.871,0,0,1,.54-.83c.19-.25.39-.49.58-.71a5.1,5.1,0,0,1,.57-.57,1.24,1.24,0,0,1,.6-.29.94.94,0,0,1,.52.07.5.5,0,0,1,.24.2.31.31,0,0,1,0,.09.19.19,0,0,0,0-.1.43.43,0,0,0-.2-.26,1,1,0,0,0-.6-.17,1.72,1.72,0,0,0-.79.26,4.51,4.51,0,0,0-.71.55,6.614,6.614,0,0,0-.7.7,7,7,0,0,0-.64.85c-.05.08-.1.15-.14.23l-.07.12-.09.17-.06.12a.751.751,0,0,0,.07.12l.1.16a1.551,1.551,0,0,1,.12.22,3.42,3.42,0,0,1,.37,1.81,3.941,3.941,0,0,1-.45,1.5,4.152,4.152,0,0,1-.67.93l-.24.23Z" transform="translate(117 2434)" fill="#cf4a57"/>
      <path id="Path_28564" data-name="Path 28564" d="M340.37,165.15a4,4,0,0,0,2,1.61,1.72,1.72,0,0,1,1.23-.69c1.18,0,2.2,1.48,2.27,3.39s-.85,3.48-2,3.52-2.2-1.47-2.27-3.38a5.351,5.351,0,0,1,.2-1.64,6.36,6.36,0,0,1-1.43-2.81Z" transform="translate(117 2434)" fill="#161818"/>
      <path id="Path_28566" data-name="Path 28566" d="M325.88,167.49a2.68,2.68,0,0,0,1.38,1.11,1.21,1.21,0,0,1,.83-.41c.89,0,1.66,1.11,1.71,2.55s-.64,2.63-1.53,2.66-1.66-1.11-1.71-2.55a3.611,3.611,0,0,1,.23-1.47,4.6,4.6,0,0,1-.91-1.89Z" transform="translate(117 2434)" fill="#161818"/>
      <path id="Path_28570" data-name="Path 28570" d="M322.31,164.37s3.16-4.54,5.06-2.85,1.08,1.9,1.08,1.9Z" transform="translate(117 2434)" fill="#424242"/>
      <path id="Path_28571" data-name="Path 28571" d="M348.51,164.15s-6.34-6.82-8.76-4.24c-1.4,1.51-.36,2.47-.36,2.47Z" transform="translate(117 2434)" fill="#424242"/>
      <path id="Path_28572" data-name="Path 28572" d="M337.44,199.64l2.92-4.68s5.88-2.82,17.26-2.09l3.36,5,4,.84s-12.22,24.7-15.22,27c-2.32,1.79-5.45,2.91-8.79-.26s-6.25-24.16-6.25-24.16Z" transform="translate(117 2434)" fill="#fff"/>
      <path id="Path_28574" data-name="Path 28574" d="M373.1,178.08A49.62,49.62,0,0,0,349.76,155c1.29,1.74,2.57,3.48,3.86,5.21l-21.84-7.3c.51,1.2,1,2.39,1.51,3.6A25.12,25.12,0,0,1,320.18,147a4.669,4.669,0,0,1-.3-.43,8.087,8.087,0,0,1,.62-1,18.88,18.88,0,0,1,6.4-6.07c5.94-3.56,13.82-4.55,20.66-3.36a29.64,29.64,0,0,1,7.35,2.24,22.69,22.69,0,0,1,6.74,4.55c3.59,3.55,5.61,8.21,7.18,12.85s2.73,9.45,5,13.86a23.21,23.21,0,0,0,7,8.47h.05a16.11,16.11,0,0,0,3.49,1.9,62.141,62.141,0,0,1-19.14,10.91A27.29,27.29,0,0,0,373.1,178.08Z" transform="translate(117 2434)" fill="#ff8035"/>
      <path id="Path_28575" data-name="Path 28575" d="M380.81,178.06a30.351,30.351,0,0,1-7.55-5.88c-4.64-4.88-8-10.79-12.19-16.05s-9.56-10.06-16.16-11.33l1.92,5.3-13.23-8.21v4.64q-3.33-3.54-6.69-7.08c5.94-3.56,13.82-4.55,20.66-3.36a29.64,29.64,0,0,1,7.35,2.24,22.69,22.69,0,0,1,6.74,4.55c3.59,3.55,5.61,8.21,7.18,12.85s2.73,9.45,5,13.86a23.21,23.21,0,0,0,6.97,8.47Z" transform="translate(117 2434)" fill="#ffa049"/>
      <path id="Path_28576" data-name="Path 28576" d="M364.54,161.88c-.13.42-.29.84-.46,1.26s-.38,1-.6,1.5c-.51,1.23-1.12,2.52-1.81,3.91,0,0-2.31-4.69-5.32-2.06,0,0-13-1-16.17-7.76,0,0,.89,4.8,3.32,5.53-1.31-.18-22.59-3.42-23.37-15.79a8.08,8.08,0,0,1,.05-1.48,7.42,7.42,0,0,1,.32-1.47c5.32-8.37,17.27-11.13,27.06-9.43a29.64,29.64,0,0,1,7.35,2.24,19.54,19.54,0,0,1,5.59,5C365.73,150.3,366.89,154.94,364.54,161.88Z" transform="translate(117 2434)" fill="#161818"/>
      <path id="Path_28577" data-name="Path 28577" d="M373.1,178.08A49.62,49.62,0,0,0,349.76,155c1.29,1.74,2.57,3.48,3.86,5.21l-21.84-7.3c.51,1.2,1,2.39,1.51,3.6A25.12,25.12,0,0,1,320.18,147a4.669,4.669,0,0,1-.3-.43,8.087,8.087,0,0,1,.62-1,18.88,18.88,0,0,1,6.4-6.07c5.94-3.56,13.82-4.55,20.66-3.36a29.64,29.64,0,0,1,7.35,2.24,22.69,22.69,0,0,1,6.74,4.55c3.59,3.55,5.61,8.21,7.18,12.85s2.73,9.45,5,13.86a23.21,23.21,0,0,0,7,8.47h.05a16.11,16.11,0,0,0,3.49,1.9,62.141,62.141,0,0,1-19.14,10.91A27.29,27.29,0,0,0,373.1,178.08Z" transform="translate(117 2434)" fill="#161818"/>
      <path id="Path_28578" data-name="Path 28578" d="M391,155.09l13.46-17.18,6.91,9.99Z" transform="translate(117 2434)" fill="#fff"/>
      <path id="Path_28579" data-name="Path 28579" d="M383.93,154.58l-3.8-13.17,7.54-.26Z" transform="translate(117 2434)" fill="#fff"/>
      <path id="Path_28580" data-name="Path 28580" d="M393.23,164.39l14.36-2.34.48,6.91Z" transform="translate(117 2434)" fill="#fff"/>
      <path id="Path_28581" data-name="Path 28581" d="M380.81,178.06a30.351,30.351,0,0,1-7.55-5.88c-4.64-4.88-8-10.79-12.19-16.05s-9.56-10.06-16.16-11.33l1.92,5.3-13.23-8.21v4.64q-3.33-3.54-6.69-7.08c5.94-3.56,13.82-4.55,20.66-3.36a29.64,29.64,0,0,1,7.35,2.24,22.69,22.69,0,0,1,6.74,4.55c3.59,3.55,5.61,8.21,7.18,12.85s2.73,9.45,5,13.86a23.21,23.21,0,0,0,6.97,8.47Z" transform="translate(117 2434)" fill="#161818"/>
      <path id="Path_28584" data-name="Path 28584" d="M408.23,242c0,16.16-5.35,29.26-11.94,29.26s-11.94-13.1-11.94-29.26,5.34-29.26,11.94-29.26S408.23,225.86,408.23,242Z" transform="translate(117 2434)" fill="#5b6367"/>
      <path id="Path_28585" data-name="Path 28585" d="M436.03,429.68l-37.04-.92-5.44-15.16-.45-1.25-.29-6.06-2.86-60.07-5.39,2.7.75-14.73h6.67l6.3,75.06Z" transform="translate(117 2434)" fill="#e6e7e8"/>
    </g>
    <g id="Group_1272" data-name="Group 1272" transform="translate(1319.501 -2182)">
      <path id="Path_28546" data-name="Path 28546" d="M126.35,254.86a6.31,6.31,0,1,0,0,12.61h37v-2.32h-1.16v-8h1.16v-2.31Z" transform="translate(117 2434)" fill="#ba3252"/>
      <path id="Path_28547" data-name="Path 28547" d="M184.52,256h0v1.16H148.67a4,4,0,0,0,0,8h35.85v1.16h0Z" transform="translate(117 2434)" fill="#fff"/>
      <path id="Path_28548" data-name="Path 28548" d="M148.67,265.15a4,4,0,0,1,0-8h37v-2.31h-37a6.31,6.31,0,1,0,0,12.61h37v-2.32Z" transform="translate(117 2434)" fill="#d94562"/>
      <path id="Path_28549" data-name="Path 28549" d="M148.86,261.16s3,1.74,2.61,6.19l3.19-1.65,2.44,1.65s-.37-5.37-2.4-6.19Z" transform="translate(117 2434)" fill="#92278f"/>
      <path id="Path_28586" data-name="Path 28586" d="M131.69,242.26a6.31,6.31,0,1,0,0,12.62h37v-2.32h-1.16v-8h1.16v-2.32Z" transform="translate(117 2434)" fill="#449bcc"/>
      <path id="Path_28587" data-name="Path 28587" d="M189.87,243.42h0v1.16H154a4,4,0,0,0,0,8h35.86v1.16h0Z" transform="translate(117 2434)" fill="#fff"/>
      <path id="Path_28588" data-name="Path 28588" d="M154,252.56a4,4,0,0,1,0-8h37v-2.32H154a6.31,6.31,0,1,0,0,12.62h37v-2.32Z" transform="translate(117 2434)" fill="#5ecaef"/>
      <path id="Path_28589" data-name="Path 28589" d="M160.48,250.62s3,1.74,2.61,6.19l3.18-1.64,2.44,1.64s-.37-5.36-2.39-6.19Z" transform="translate(117 2434)" fill="#ff7415"/>
      <path id="Path_28590-2" data-name="Path 28590" d="M132.85,267.47a6.31,6.31,0,1,0,0,12.62h37v-2.32h-1.16v-8h1.16v-2.32Z" transform="translate(117 2434)" fill="#037262"/>
      <path id="Path_28591-2" data-name="Path 28591" d="M191,268.63h0v1.16H155.17a4,4,0,0,0,0,8H191v1.16h0Z" transform="translate(117 2434)" fill="#fff"/>
      <path id="Path_28592-2" data-name="Path 28592" d="M155.17,277.77a4,4,0,0,1,0-8h37v-2.32h-37a6.31,6.31,0,1,0,0,12.62h37v-2.32Z" transform="translate(117 2434)" fill="#008c7b"/>
    </g>
  </g>
</svg>
