<svg xmlns="http://www.w3.org/2000/svg" viewBox="0 0 40 40"><defs><style>.cls-1,.cls-3,.cls-4{fill:none;}.cls-2{fill:#fff;}.cls-3,.cls-4{stroke:#fff;stroke-miterlimit:10;}.cls-3{stroke-width:0.6px;}.cls-4{stroke-width:0.63px;}</style></defs><g id="Layer_2" data-name="Layer 2"><g id="Layer_1-2" data-name="Layer 1"><rect class="cls-1" width="40" height="40"/><path class="cls-2" d="M36.68,17.66a.61.61,0,0,1-.25-.39c-.14-.93-.19-1.88-.4-2.8A16.44,16.44,0,0,0,3.59,17.21a.53.53,0,0,1-.3.49,3.43,3.43,0,0,0-2,2.86,43.41,43.41,0,0,0,0,5.35A3.66,3.66,0,0,0,4.47,29.2a2.53,2.53,0,0,0,3.15-2.59q0-3.42,0-6.82a2.46,2.46,0,0,0-1.76-2.45,4.8,4.8,0,0,0-.48-.12,14.64,14.64,0,0,1,29.22,0l-.31.08a2.41,2.41,0,0,0-1.9,2.3q0,3.63,0,7.26a2.42,2.42,0,0,0,1.74,2.27l.51.13c0,.65,0,1.3,0,1.94a3.55,3.55,0,0,1-3.06,3.39,28.92,28.92,0,0,1-3.09.06c-.09,0-.22-.13-.27-.23a2.59,2.59,0,0,0-2.32-1.56c-1,0-2,0-3.06,0a2.65,2.65,0,0,0-2.57,2.74A2.69,2.69,0,0,0,23,38.25h2.69a2.64,2.64,0,0,0,2.51-1.56.36.36,0,0,1,.39-.24h2.5a5.38,5.38,0,0,0,5.26-4.55,20,20,0,0,0,.09-2.68.42.42,0,0,1,.25-.43,3.8,3.8,0,0,0,2.05-3.44c0-1.41,0-2.81,0-4.22A3.84,3.84,0,0,0,36.68,17.66ZM5.83,19.8c0,1.15,0,2.29,0,3.43v3.35c0,.67-.28.93-1,.87a2.06,2.06,0,0,1-1.82-2q0-2.22,0-4.44A2,2,0,0,1,5,19C5.54,19,5.83,19.25,5.83,19.8ZM25.71,36.46H23a.9.9,0,0,1-1-.92.88.88,0,0,1,.94-.89c.91,0,1.82,0,2.73,0a.89.89,0,0,1,.94.94A.9.9,0,0,1,25.71,36.46Zm11.23-11a2,2,0,0,1-1.88,2c-.6,0-.89-.21-.89-.81,0-1.13,0-2.26,0-3.39V19.86c0-.64.3-.9.94-.84a2.06,2.06,0,0,1,1.83,2C37,22.5,37,24,36.94,25.48Z"/><path class="cls-3" d="M36.68,17.66a.61.61,0,0,1-.25-.39c-.14-.93-.19-1.88-.4-2.8A16.44,16.44,0,0,0,3.59,17.21a.53.53,0,0,1-.3.49,3.43,3.43,0,0,0-2,2.86,43.41,43.41,0,0,0,0,5.35A3.66,3.66,0,0,0,4.47,29.2a2.53,2.53,0,0,0,3.15-2.59q0-3.42,0-6.82a2.46,2.46,0,0,0-1.76-2.45,4.8,4.8,0,0,0-.48-.12,14.64,14.64,0,0,1,29.22,0l-.31.08a2.41,2.41,0,0,0-1.9,2.3q0,3.63,0,7.26a2.42,2.42,0,0,0,1.74,2.27l.51.13c0,.65,0,1.3,0,1.94a3.55,3.55,0,0,1-3.06,3.39,28.92,28.92,0,0,1-3.09.06c-.09,0-.22-.13-.27-.23a2.59,2.59,0,0,0-2.32-1.56c-1,0-2,0-3.06,0a2.65,2.65,0,0,0-2.57,2.74A2.69,2.69,0,0,0,23,38.25h2.69a2.64,2.64,0,0,0,2.51-1.56.36.36,0,0,1,.39-.24h2.5a5.38,5.38,0,0,0,5.26-4.55,20,20,0,0,0,.09-2.68.42.42,0,0,1,.25-.43,3.8,3.8,0,0,0,2.05-3.44c0-1.41,0-2.81,0-4.22A3.84,3.84,0,0,0,36.68,17.66ZM5.83,19.8c0,1.15,0,2.29,0,3.43v3.35c0,.67-.28.93-1,.87a2.06,2.06,0,0,1-1.82-2q0-2.22,0-4.44A2,2,0,0,1,5,19C5.54,19,5.83,19.25,5.83,19.8ZM25.71,36.46H23a.9.9,0,0,1-1-.92.88.88,0,0,1,.94-.89c.91,0,1.82,0,2.73,0a.89.89,0,0,1,.94.94A.9.9,0,0,1,25.71,36.46Zm11.23-11a2,2,0,0,1-1.88,2c-.6,0-.89-.21-.89-.81,0-1.13,0-2.26,0-3.39V19.86c0-.64.3-.9.94-.84a2.06,2.06,0,0,1,1.83,2C37,22.5,37,24,36.94,25.48Z"/><rect class="cls-1" x="11.78" y="10.57" width="16.81" height="16.81"/><path class="cls-2" d="M27.52,20.64l-1.36-1a.17.17,0,0,1-.09-.18c0-.34,0-.69,0-1a.21.21,0,0,1,.1-.2l1.32-.93a.5.5,0,0,0,.17-.77L26,13.81a.5.5,0,0,0-.75-.24l-1.49.66a.2.2,0,0,1-.22,0l-.92-.53a.19.19,0,0,1-.11-.16c-.05-.52-.11-1-.15-1.55a.62.62,0,0,0-.38-.58H18.34A.62.62,0,0,0,18,12c0,.52-.11,1-.15,1.55a.19.19,0,0,1-.11.16c-.32.17-.62.35-.93.53a.18.18,0,0,1-.21,0l-1.47-.66a.52.52,0,0,0-.78.25c-.54.91-1.07,1.82-1.6,2.73-.05.08-.09.16-.13.24V17a.79.79,0,0,0,.32.38c.43.29.86.6,1.28.9a.19.19,0,0,1,.1.19c0,.35,0,.69,0,1a.2.2,0,0,1-.09.19c-.43.3-.86.61-1.29.9a.79.79,0,0,0-.32.38v.2l1,1.77c.24.42.49.83.73,1.24a.49.49,0,0,0,.7.23l1.52-.67a.2.2,0,0,1,.22,0c.3.18.61.35.92.52a.2.2,0,0,1,.12.18c.05.55.11,1.11.17,1.66a.48.48,0,0,0,.5.46h3.38a.48.48,0,0,0,.51-.47c.06-.56.12-1.11.17-1.67a.17.17,0,0,1,.11-.15l.92-.53a.21.21,0,0,1,.23,0l1.5.66a.49.49,0,0,0,.72-.23c.55-.93,1.1-1.86,1.64-2.8A.5.5,0,0,0,27.52,20.64Zm-2.15,2.73L24.45,23l-.54-.24a.57.57,0,0,0-.68.08,4,4,0,0,1-1.2.69.58.58,0,0,0-.42.56c0,.49-.1,1-.15,1.46,0,0,0,0,0,.08H18.91l-.09-.89c0-.26-.05-.52-.08-.78a.45.45,0,0,0-.3-.38A5.5,5.5,0,0,1,17,22.73a.48.48,0,0,0-.53,0l-1.36.6-.15.07c-.42-.72-.84-1.43-1.26-2.16l.75-.53.59-.42a.49.49,0,0,0,.23-.51,4.91,4.91,0,0,1,0-1.53.51.51,0,0,0-.24-.53l-1.19-.84-.14-.1L15,14.59l1.43.64a.62.62,0,0,0,.73-.08,4,4,0,0,1,1.18-.67.61.61,0,0,0,.43-.59c0-.5.1-1,.15-1.51h2.54c0,.39.09.79.13,1.19,0,.15,0,.31.05.47a.44.44,0,0,0,.3.39,5.31,5.31,0,0,1,1.39.79.5.5,0,0,0,.54,0l1.51-.68,1.27,2.16-.14.1c-.39.28-.78.56-1.18.83a.52.52,0,0,0-.25.55,4.78,4.78,0,0,1,0,1.51.5.5,0,0,0,.24.53l1.33.94Z"/><path class="cls-4" d="M27.52,20.64l-1.36-1a.17.17,0,0,1-.09-.18c0-.34,0-.69,0-1a.21.21,0,0,1,.1-.2l1.32-.93a.5.5,0,0,0,.17-.77L26,13.81a.5.5,0,0,0-.75-.24l-1.49.66a.2.2,0,0,1-.22,0l-.92-.53a.19.19,0,0,1-.11-.16c-.05-.52-.11-1-.15-1.55a.62.62,0,0,0-.38-.58H18.34A.62.62,0,0,0,18,12c0,.52-.11,1-.15,1.55a.19.19,0,0,1-.11.16c-.32.17-.62.35-.93.53a.18.18,0,0,1-.21,0l-1.47-.66a.52.52,0,0,0-.78.25c-.54.91-1.07,1.82-1.6,2.73-.05.08-.09.16-.13.24V17a.79.79,0,0,0,.32.38c.43.29.86.6,1.28.9a.19.19,0,0,1,.1.19c0,.35,0,.69,0,1a.2.2,0,0,1-.09.19c-.43.3-.86.61-1.29.9a.79.79,0,0,0-.32.38v.2l1,1.77c.24.42.49.83.73,1.24a.49.49,0,0,0,.7.23l1.52-.67a.2.2,0,0,1,.22,0c.3.18.61.35.92.52a.2.2,0,0,1,.12.18c.05.55.11,1.11.17,1.66a.48.48,0,0,0,.5.46h3.38a.48.48,0,0,0,.51-.47c.06-.56.12-1.11.17-1.67a.17.17,0,0,1,.11-.15l.92-.53a.21.21,0,0,1,.23,0l1.5.66a.49.49,0,0,0,.72-.23c.55-.93,1.1-1.86,1.64-2.8A.5.5,0,0,0,27.52,20.64Zm-2.15,2.73L24.45,23l-.54-.24a.57.57,0,0,0-.68.08,4,4,0,0,1-1.2.69.58.58,0,0,0-.42.56c0,.49-.1,1-.15,1.46,0,0,0,0,0,.08H18.91l-.09-.89c0-.26-.05-.52-.08-.78a.45.45,0,0,0-.3-.38A5.5,5.5,0,0,1,17,22.73a.48.48,0,0,0-.53,0l-1.36.6-.15.07c-.42-.72-.84-1.43-1.26-2.16l.75-.53.59-.42a.49.49,0,0,0,.23-.51,4.91,4.91,0,0,1,0-1.53.51.51,0,0,0-.24-.53l-1.19-.84-.14-.1L15,14.59l1.43.64a.62.62,0,0,0,.73-.08,4,4,0,0,1,1.18-.67.61.61,0,0,0,.43-.59c0-.5.1-1,.15-1.51h2.54c0,.39.09.79.13,1.19,0,.15,0,.31.05.47a.44.44,0,0,0,.3.39,5.31,5.31,0,0,1,1.39.79.5.5,0,0,0,.54,0l1.51-.68,1.27,2.16-.14.1c-.39.28-.78.56-1.18.83a.52.52,0,0,0-.25.55,4.78,4.78,0,0,1,0,1.51.5.5,0,0,0,.24.53l1.33.94Z"/><circle class="cls-2" cx="20.18" cy="18.98" r="2.1"/></g></g></svg>