<svg xmlns="http://www.w3.org/2000/svg" viewBox="0 0 40 40"><defs><style>.cls-1{fill:none;}.cls-2{fill:#fff;}</style></defs><g id="Layer_2" data-name="Layer 2"><g id="Layer_1-2" data-name="Layer 1"><rect class="cls-1" width="40" height="40"/><path class="cls-2" d="M.78,28.2V4A7.62,7.62,0,0,1,1.26,2.7,3.71,3.71,0,0,1,4.76.79H35.6a3.67,3.67,0,0,1,3.61,3.79q0,11.51,0,23a4.14,4.14,0,0,1-.11,1,3.66,3.66,0,0,1-3.7,2.81c-2.89,0-5.78,0-8.67,0h-.47c.26,1.82.49,3.57.75,5.31a.39.39,0,0,0,.3.22c.5,0,1,0,1.5,0A1.14,1.14,0,0,1,30,38.07a1.13,1.13,0,0,1-1.23,1.14H11.2A1.13,1.13,0,0,1,10,38.07,1.16,1.16,0,0,1,11.22,37c.4,0,.8,0,1.2,0s.42-.07.46-.38c.09-.75.22-1.49.34-2.23.15-1,.29-1.92.45-2.94h-9a3.62,3.62,0,0,1-3.46-2.08A8.36,8.36,0,0,1,.78,28.2Zm18.07,1V17.26H3c0,3.54,0,7,0,10.55a1.4,1.4,0,0,0,1.41,1.34c.31,0,.63,0,.94,0s.37-.06.43-.32a4.16,4.16,0,0,1,1.09-2c.32-.34.7-.63,1-.94A3.74,3.74,0,0,1,8.67,21a3.7,3.7,0,0,1,4.64-.1c1.52,1.18,1.82,3,.83,5,0,0,0,0,0,0a5,5,0,0,1,2.18,3,.32.32,0,0,0,.24.16ZM32,25.94a4.93,4.93,0,0,1,2,2.31c.13.3.17.73.4.87s.65,0,1,0A1.46,1.46,0,0,0,37,27.51V17.25H21.15v11.9h2.43a5,5,0,0,1,2.27-3.22,3.71,3.71,0,1,1,6.11,0ZM18.85,3.07l-.31,0h-14A1.42,1.42,0,0,0,3,4.63c0,3.32,0,6.64,0,10,0,.12,0,.24,0,.37H5.73A4.92,4.92,0,0,1,8,11.77a3.76,3.76,0,0,1,.73-5,3.71,3.71,0,0,1,4.53-.11,3.65,3.65,0,0,1,1.37,2,3.69,3.69,0,0,1-.45,3,12.6,12.6,0,0,1,1.39,1.46,13.81,13.81,0,0,1,.92,1.8h2.38ZM32,11.77a4.92,4.92,0,0,1,2.25,3.17H37V4.73a1.46,1.46,0,0,0-1.67-1.68H21.55l-.4,0V15h2.44a4.89,4.89,0,0,1,2.25-3.18,3.76,3.76,0,0,1,.71-5,3.71,3.71,0,0,1,4.61-.07C32.69,7.9,33,9.67,32,11.77ZM24,31.44H16l-.86,5.49h9.67ZM14,29.13a2.32,2.32,0,0,0-1.78-1.51,11.23,11.23,0,0,0-2.39,0,2.08,2.08,0,0,0-1.44.93c-.12.17-.21.35-.35.58Zm17.86,0a2.31,2.31,0,0,0-1.78-1.52,9,9,0,0,0-2.38,0,2.25,2.25,0,0,0-1.78,1.53ZM8.07,15H14a2.41,2.41,0,0,0-2-1.55,9.08,9.08,0,0,0-1.95,0A2.45,2.45,0,0,0,8.07,15Zm17.87,0h5.93a2.41,2.41,0,0,0-2-1.54,9.08,9.08,0,0,0-1.95,0A2.39,2.39,0,0,0,25.94,14.94Zm4.41-5.29a1.45,1.45,0,1,0-2.9,0,1.45,1.45,0,0,0,2.9,0ZM28.88,25.27a1.44,1.44,0,0,0,1.47-1.43,1.45,1.45,0,1,0-1.47,1.43ZM11,25.27A1.45,1.45,0,1,0,9.6,23.81,1.45,1.45,0,0,0,11,25.27Zm0-17.07A1.44,1.44,0,0,0,9.6,9.64a1.45,1.45,0,0,0,2.9,0A1.44,1.44,0,0,0,11.07,8.2Z"/></g></g></svg>