<svg xmlns="http://www.w3.org/2000/svg" viewBox="0 0 40 40"><defs><style>.cls-1{fill:none;}.cls-2{fill:#fff;}</style></defs><g id="Layer_2" data-name="Layer 2"><g id="Layer_1-2" data-name="Layer 1"><rect class="cls-1" width="40" height="40"/><path class="cls-2" d="M23.11,1c-.51.35-.65.74-.39,1.13a.85.85,0,0,0,.84.36h13.9v22.7H2.55V2.48H16.34c.12,0,.25,0,.37,0a.71.71,0,0,0,.67-.55.69.69,0,0,0-.28-.78L16.89,1H1.56A1,1,0,0,0,1,2Q1,16.07,1,30.12c0,.79.23,1,1,1H16.15c-.41,2.14-.8,4.24-1.21,6.39H13.22c-.18,0-.37,0-.55,0a.77.77,0,0,0-.79.55.76.76,0,0,0,.38.85l.11.08H27.63a2.25,2.25,0,0,0,.44-.43.73.73,0,0,0-.69-1c-.76,0-1.53,0-2.32,0-.4-2.13-.79-4.24-1.2-6.39H38a1,1,0,0,0,1-.53V1ZM16.46,37.49c.4-2.13.79-4.23,1.19-6.34h4.71q.59,3.15,1.19,6.34Zm21-7.86H2.54V26.71H37.47ZM20,2.48A.69.69,0,0,0,20.7,2a.69.69,0,0,0-.3-.84L20.23,1h-.45l-.18.12a.72.72,0,0,0-.3.84A.71.71,0,0,0,20,2.48Zm12,8.36q-5.72-2.49-11.42-5a1.3,1.3,0,0,0-1.09,0Q13.74,8.38,8,10.87a.87.87,0,0,0-.59.91c0,1.36,0,2.72,0,4.08a.42.42,0,0,1-.26.45,2.15,2.15,0,0,0-1.23,2c0,.94,0,1.88,0,2.82A.76.76,0,0,0,6.8,22q1.35,0,2.7,0a.76.76,0,0,0,.87-.86c0-.9,0-1.8,0-2.71a2.26,2.26,0,0,0-1.29-2.16A.36.36,0,0,1,8.9,16c0-1.06,0-2.12,0-3.25l.4.16c1.24.55,2.48,1.1,3.73,1.63a.43.43,0,0,1,.32.48c0,1.55,0,3.1,0,4.64a.81.81,0,0,0,.56.83c.36.15.73.3,1.1.43a13.33,13.33,0,0,0,6.11,1A19.67,19.67,0,0,0,26,20.54a.92.92,0,0,0,.65-1c0-1.52,0-3,0-4.56a.43.43,0,0,1,.31-.46c1.66-.71,3.32-1.45,5-2.17.35-.16.64-.35.64-.77S32.31,11,32,10.84ZM7.41,20.51V19.23c0-.32,0-.64,0-1a.74.74,0,0,1,.75-.72.72.72,0,0,1,.71.71c0,.74,0,1.48,0,2.25Zm17.78-2.25c0,1,0,1.08-1,1.38s-2.11.59-3.18.8A8.69,8.69,0,0,1,17,20c-.66-.19-1.31-.42-2-.65-.09,0-.23-.15-.23-.23,0-1.24,0-2.48,0-3.78l.41.17c1.43.62,2.87,1.24,4.3,1.88a1.06,1.06,0,0,0,.95,0c1.44-.64,2.89-1.26,4.33-1.89l.38-.15Zm2.64-5.69-7.52,3.29a.78.78,0,0,1-.54,0c-3.15-1.36-6.28-2.74-9.42-4.12A1.85,1.85,0,0,1,10,11.6l.82-.36,8.88-3.89a.66.66,0,0,1,.48,0l9.51,4.16.25.13Zm7.3,3.5c-2,0-4.06,0-6.1,0H29a.74.74,0,1,0,0,1.48h6.17c.54,0,.88-.29.88-.74S35.67,16.07,35.13,16.07Zm-3,3H29c-.54,0-.88.28-.89.73s.34.75.9.75h6.07c.54,0,.87-.28.88-.73s-.34-.75-.9-.75ZM20,32.62a.74.74,0,1,0,.72.74A.74.74,0,0,0,20,32.62Z"/></g></g></svg>