<?xml version="1.0" encoding="UTF-8"?><svg id="Layer_2" xmlns="http://www.w3.org/2000/svg" viewBox="0 0 39.44 39.44"><defs><style>.cls-1{fill:#fff;}.cls-2{fill:none;}</style></defs><g id="Layer_1-2"><g><rect class="cls-2" width="39.44" height="39.44"/><g><path class="cls-1" d="M29.08,.56c.2,.07,.4,.13,.59,.21,1.08,.5,1.56,1.38,1.55,2.55,0,3.22,0,6.43,0,9.65,0,.36,.1,.58,.41,.78,1.77,1.19,3.52,2.41,5.27,3.62,1.37,.94,1.37,2.46,0,3.41-1.77,1.23-3.55,2.45-5.33,3.67-.25,.17-.36,.35-.36,.66,.01,3.68,.01,7.36,0,11.04,0,1.29-.67,2.26-1.79,2.6-.27,.08-.56,.12-.84,.12-5.91,0-11.82,0-17.74,0-1.55,0-2.63-1.1-2.63-2.69,0-2.82,0-5.64,0-8.46,0-.91,0-1.82,0-2.73,0-.23-.07-.36-.26-.49-1.81-1.24-3.62-2.49-5.42-3.73-1.37-.95-1.37-2.46,0-3.41,1.8-1.24,3.59-2.48,5.39-3.71,.21-.14,.29-.29,.29-.55,0-3.14,0-6.29,0-9.43,0-1.84,.45-2.5,2.15-3.13,6.24,0,12.48,0,18.72,0ZM9.5,7.81c0,1.55,0,3.09,0,4.64,0,.14,.08,.33,.19,.42,.41,.32,.42,.75,.04,1.11-.12,.12-.23,.32-.23,.49-.01,3.08,0,6.16-.02,9.24,0,.24,.08,.38,.28,.51,3.13,2.15,6.26,4.31,9.39,6.47,.49,.33,.63,.34,1.11,0,3.13-2.16,6.26-4.32,9.39-6.47,.21-.15,.28-.31,.28-.55,0-3.07,0-6.14-.01-9.21,0-.17-.1-.38-.23-.49-.38-.35-.37-.8,.04-1.11,.1-.07,.19-.22,.19-.34,.02-.49,0-.97,0-1.46,0-2.59,0-5.19,0-7.78,0-.94-.51-1.45-1.42-1.45-.61,0-1.22-.02-1.83,0-.17,0-.38,.1-.5,.22-.5,.5-.98,1.03-1.47,1.54-.49,.51-1.1,.77-1.81,.77-2.12,0-4.24,0-6.36,0-.71,0-1.31-.27-1.81-.77-.35-.36-.72-.7-1.02-1.1-.41-.54-.9-.8-1.59-.69-.35,.05-.72,0-1.08,0-1.06,0-1.54,.47-1.54,1.52,0,1.48,0,2.97,0,4.45Zm0,17.78c0,.2,0,.33,0,.46,0,2.27,0,4.54,0,6.81,0,1.09,.46,1.55,1.55,1.55,5.79,0,11.57,0,17.36,0,1.08,0,1.54-.46,1.54-1.55,0-2.27,0-4.54,0-6.81,0-.13,0-.26,0-.46-.19,.13-.32,.21-.44,.3-2.84,1.96-5.68,3.92-8.53,5.88-.89,.61-1.63,.61-2.52,0-2.83-1.95-5.66-3.9-8.5-5.86-.13-.09-.26-.18-.47-.32Zm20.43,9.75c-.61,.36-1.24,.35-1.86,.35-5.09,0-10.18,0-15.27-.01-1.09,0-2.21,.21-3.3-.31,0,.27,0,.48,0,.69,0,1.1,.47,1.56,1.58,1.56,5.76,0,11.53,0,17.29,0,.11,0,.22,0,.34,0,.66-.04,1.16-.49,1.22-1.14,.03-.34,0-.69,0-1.12Zm1.32-12.25c.08-.02,.1-.02,.12-.04,1.64-1.13,3.28-2.26,4.92-3.39,.5-.34,.47-.82-.04-1.18-1.59-1.1-3.18-2.19-4.76-3.29-.06-.04-.14-.07-.23-.11v8.01ZM8.2,15.04c-.15,.1-.25,.16-.34,.22-1.53,1.05-3.06,2.11-4.59,3.17-.63,.43-.63,.87,0,1.31,1.53,1.06,3.06,2.11,4.59,3.16,.1,.07,.2,.13,.34,.21V15.04ZM14.82,1.85c.22,.23,.39,.4,.53,.58,.4,.51,.91,.7,1.56,.69,1.86-.03,3.71-.06,5.57,.01,1.04,.04,1.52-.6,2.1-1.28H14.82Z"/><path class="cls-1" d="M13.96,16.2c0-.89,0-1.77,0-2.66,0-.39,.13-.65,.47-.86,1.61-.99,3.22-2,4.82-3.01,.34-.22,.63-.2,.97,0,1.59,1,3.19,2,4.79,2.99,.33,.21,.48,.46,.48,.86-.01,1.78-.01,3.57,0,5.35,0,.39-.15,.65-.48,.85-1.6,.99-3.2,1.98-4.79,2.99-.34,.21-.63,.22-.97,0-1.59-1.01-3.18-2.01-4.79-2.99-.36-.22-.51-.5-.5-.92,.02-.87,0-1.75,0-2.62Zm9.66-2.87c-1.28-.8-2.49-1.56-3.71-2.31-.09-.05-.25-.09-.33-.04-1.25,.77-2.49,1.55-3.77,2.35,1.29,.8,2.54,1.59,3.8,2.36,.07,.04,.21,0,.29-.05,.49-.29,.97-.6,1.46-.91,.74-.46,1.47-.92,2.25-1.41Zm-4.55,7.79c0-1.41,0-2.74-.01-4.06,0-.11-.13-.26-.23-.33-1.09-.7-2.19-1.38-3.29-2.06-.08-.05-.17-.09-.3-.15,0,1.39,0,2.73,.01,4.08,0,.1,.14,.22,.24,.29,.65,.42,1.31,.82,1.96,1.23,.51,.32,1.03,.64,1.62,1.01Zm1.28-.06c.09-.02,.13-.02,.15-.04,1.17-.73,2.35-1.46,3.51-2.21,.1-.06,.16-.24,.16-.37,.01-1.23,0-2.47,0-3.7,0-.07-.02-.13-.03-.22-.08,.04-.12,.06-.16,.08-1.14,.71-2.29,1.42-3.42,2.14-.12,.07-.21,.28-.21,.42-.02,1.11,0,2.22,0,3.33,0,.18,0,.36,0,.56Z"/><path class="cls-1" d="M24.55,9.1c0,.54-.47,.89-.85,.67-.52-.29-1-.64-1.48-1.01-.25-.19-.25-.57-.06-.81,.22-.27,.51-.35,.8-.18,.48,.29,.93,.62,1.38,.96,.12,.09,.17,.29,.21,.36Z"/><path class="cls-1" d="M17.48,8.34c-.15,.21-.24,.42-.39,.54-.38,.3-.79,.57-1.19,.83-.35,.23-.71,.15-.92-.16-.2-.3-.13-.65,.19-.88,.4-.29,.8-.6,1.23-.83,.18-.1,.47-.1,.66-.02,.17,.07,.27,.32,.42,.52Z"/><path class="cls-1" d="M28.24,11.65c0,.55-.5,.88-.9,.65-.48-.28-.94-.61-1.38-.95-.25-.19-.26-.56-.09-.81,.18-.27,.54-.37,.82-.19,.45,.28,.89,.59,1.32,.91,.13,.1,.19,.3,.24,.39Z"/><path class="cls-1" d="M13.69,11.02c-.06,.08-.14,.29-.29,.41-.37,.29-.77,.55-1.16,.81-.33,.21-.69,.15-.89-.14-.21-.29-.15-.66,.16-.89,.39-.29,.79-.57,1.2-.83,.46-.29,1,0,1,.64Z"/><path class="cls-1" d="M20.86,6.67c0,.45-.45,.75-.86,.57-.2-.09-.34-.11-.54,0-.29,.15-.61,.03-.78-.23-.16-.26-.13-.61,.11-.81,.2-.17,.43-.3,.64-.45,.01,0,.02,0,.03-.01,.48-.21,1.41,.42,1.4,.95Z"/></g></g></g></svg>