<?xml version="1.0" encoding="UTF-8"?><svg id="Layer_2" xmlns="http://www.w3.org/2000/svg" viewBox="0 0 39.44 39.44"><defs><style>.cls-1{fill:#fff;}.cls-2{fill:none;}</style></defs><g id="Layer_1-2"><g><rect class="cls-2" width="39.44" height="39.44"/><g><path class="cls-1" d="M20.29,39.42h-1.97c-.53-.08-1.07-.15-1.6-.26-5.79-1.2-10.02-5.85-10.65-11.72-.03-.27-.13-.38-.38-.46-2.12-.71-3.35-2.43-3.35-4.67,0-3.19,0-6.37,0-9.56,0-2.25,1.34-4.03,3.48-4.7,.11-.04,.26-.18,.28-.29,.51-3.16,3.37-6.11,7.42-5.99,.32,0,.65,0,.99,0,0-.64,.35-.98,.85-1.22h7.88c.52,.23,.85,.61,.86,1.22,.5,0,.97,0,1.43,0,3.4,.05,6.35,2.56,6.95,5.91,.04,.21,.11,.32,.33,.39,2.05,.63,3.43,2.4,3.44,4.53,.03,3.3,.03,6.6,0,9.9-.02,1.98-1.26,3.76-3.06,4.38-.52,.18-.66,.43-.72,.94-.59,5.22-4.63,9.84-9.71,11.13-.81,.21-1.65,.31-2.48,.47Zm-.98-29.27c-3.99,0-7.98,0-11.97,0-1.67,0-2.72,1.06-2.72,2.73,0,3.14,0,6.27,0,9.41,0,1.58,1.05,2.65,2.63,2.65,2.2,0,4.39,0,6.59,0,.88,0,1.62-.31,2.26-.91,1.88-1.77,4.52-1.77,6.42,0,.65,.61,1.4,.91,2.29,.91,2.18,0,4.37,0,6.55,0,1.58,0,2.63-1.07,2.63-2.65,0-3.16,0-6.32,0-9.49,0-.29-.04-.58-.12-.86-.33-1.13-1.3-1.79-2.6-1.79-3.99,0-7.98,0-11.97,0ZM8.35,27.22c.49,5.49,5.36,10.27,11.58,9.9,6.49-.38,10.09-5.8,10.3-9.9-.14,0-.27,0-.41,0-1.67,0-3.33,0-5,0-1.5,.01-2.78-.5-3.87-1.53-.99-.94-2.3-.93-3.29,0-1.08,1.02-2.35,1.53-3.84,1.53-1.68,0-3.36,0-5.04,0-.14,0-.27,0-.43,0ZM16.81,7.84h4.98V2.86h-4.98V7.84Zm7.3,0h6.06c-.72-2.75-2.99-4.15-6.06-3.75v3.75Zm-9.6-3.76c-3.62-.41-5.68,1.68-6.05,3.76h6.05v-3.76Z"/><path class="cls-1" d="M19.29,32.68c-1.33,0-2.64-.2-3.9-.62-.67-.22-1.01-.83-.81-1.44,.2-.61,.81-.93,1.46-.73,2.18,.69,4.36,.69,6.55,0,.65-.21,1.26,.12,1.46,.73,.19,.6-.13,1.22-.77,1.44-1.29,.43-2.62,.64-3.98,.63Z"/></g></g></g></svg>