<?xml version="1.0" encoding="UTF-8"?><svg xmlns="http://www.w3.org/2000/svg" viewBox="0 0 40 40"><defs><style>.d{fill:#fff;}.e{fill:none;}</style></defs><g id="a"/><g id="b"><g id="c"><g><rect class="e" width="40" height="40"/><path class="d" d="M8.14,14.07c-.36,.15-.68,.35-1.03,.41-.47,.08-.82-.17-.97-.57-.15-.38-.05-.76,.31-1.06,1.03-.84,2.06-1.68,3.09-2.52,3.82-3.1,7.64-6.2,11.46-9.3,.58-.47,1.07-.47,1.65,0,4.75,3.86,9.51,7.71,14.26,11.57,.1,.08,.2,.16,.3,.24,.42,.37,.49,.89,.18,1.3-.28,.37-.89,.48-1.32,.23-.17-.1-.33-.24-.53-.39v11.36c.47,.04,.93,.02,1.37,.12,1.17,.27,1.99,.99,2.34,2.15,.34,1.13,0,2.11-.84,2.92-3.98,3.85-8.55,6.71-13.95,8.12-1.3,.34-2.66,.53-4,.66-1.7,.16-3.33-.33-4.89-.95-1.3-.52-2.57-1.12-3.84-1.73-.54-.26-.99-.27-1.5,.06-1.07,.7-2.17,1.36-3.25,2.03-.66,.41-1.14,.27-1.51-.42-1.56-2.9-3.11-5.8-4.66-8.7-.37-.69-.22-1.16,.47-1.51,.42-.22,.84-.43,1.26-.64,1.1-.56,2.2-1.12,3.19-1.88,.66-.51,1.45-.85,2.17-1.28,.12-.07,.24-.24,.24-.36,.01-3.26,0-6.51,0-9.77,0-.03-.01-.07-.01-.07Zm19.47,15.87c.09-.05,.13-.08,.17-.1,1.85-1.12,3.69-2.24,5.54-3.34,.25-.15,.35-.3,.35-.59-.01-4.34-.01-8.68,0-13.02,0-.33-.1-.53-.35-.74-3.15-2.54-6.29-5.1-9.44-7.65-.68-.55-1.37-1.1-2.04-1.65-.06,.04-.1,.06-.13,.08-3.83,3.11-7.66,6.21-11.48,9.33-.13,.11-.23,.34-.23,.51-.01,3.45,0,6.89,0,10.34,0,.11,.01,.22,.02,.38,2.41-.65,4.73-.49,6.99,.61,0-.38,0-.7,0-1.02,.02-1.45-.05-2.92,.08-4.36,.28-2.97,3.35-4.92,6.19-4.02,2.03,.64,3.36,2.48,3.37,4.67,0,2.57,0,5.13,0,7.7,0,.14,.06,.34,.16,.42,.92,.73,1.1,1.24,.79,2.46Zm-1.64-.75l-.06-.18c-.42-.09-.83-.22-1.25-.26-1.59-.15-3.19-.26-4.73-.7-.84-.24-1.69-.5-2.28-1.18-.71-.8-1.59-1.28-2.58-1.57-3.22-.93-5.97,.19-8.59,1.93,.02,.07,.03,.11,.04,.14,1.26,2.34,2.51,4.68,3.78,7.01,.05,.1,.24,.19,.35,.18,.67-.05,1.28,.12,1.88,.42,1.03,.51,2.07,1,3.12,1.46,2.2,.96,4.45,1.29,6.85,.78,3.79-.81,7.23-2.34,10.4-4.53,1.51-1.04,2.92-2.19,4.22-3.49,.61-.61,.48-1.44-.29-1.84-.48-.25-.96-.23-1.43,.05-2.19,1.31-4.38,2.63-6.58,3.93-.57,.33-1.17,.64-1.79,.85-2.7,.93-5.48,1.05-8.3,.79-.63-.06-1.25-.25-1.86-.42-.23-.07-.46-.23-.63-.41-.26-.29-.24-.75,0-1.07,.25-.34,.65-.46,1.14-.3,1.17,.39,2.36,.56,3.59,.49,1.44-.08,2.81-.42,4.02-1.22,.36-.24,.65-.57,.98-.87Zm-1.21-2.29c.02-.06,.04-.09,.04-.13,0-2.55,.06-5.11-.02-7.65-.06-1.9-1.86-3.16-3.66-2.7-1.32,.34-2.26,1.6-2.27,3.1-.01,1.82,.02,3.65-.02,5.47,0,.48,.17,.74,.57,.92,.1,.05,.21,.1,.31,.14,1.63,.59,3.33,.71,5.04,.85ZM2.78,29.37l3.93,7.34,2.02-1.26-3.9-7.13-2.06,1.05Z"/></g></g></g></svg>