<?xml version="1.0" encoding="UTF-8"?><svg xmlns="http://www.w3.org/2000/svg" viewBox="0 0 40 40"><defs><style>.d{fill:#fff;}.e{fill:none;}</style></defs><g id="a"/><g id="b"><g id="c"><g><rect class="e" width="40" height="40"/><g><path class="d" d="M40,21.17c-.1,.77-.18,1.55-.32,2.31-.48,2.75-1.52,5.29-3.07,7.61-.5,.74-1.44,.92-2.17,.44-.72-.48-.92-1.41-.43-2.17,1.26-1.93,2.19-4,2.55-6.28,1.09-6.85-1.13-12.44-6.61-16.67-3.14-2.42-6.79-3.43-10.75-3.28-7.74,.31-14.38,6.1-15.79,13.76-1.56,8.42,3.37,16.66,11.55,19.19,4.73,1.47,9.28,.91,13.58-1.55,.41-.23,.82-.4,1.3-.3,.64,.14,1.12,.63,1.23,1.26,.11,.64-.17,1.26-.77,1.62-1.66,1.01-3.42,1.78-5.31,2.22-1.14,.26-2.3,.39-3.46,.58-.1,.02-.2,.04-.3,.07h-2.5c-.1-.02-.2-.05-.3-.07-.94-.14-1.89-.22-2.81-.42C7.88,37.88,1.6,31.3,.31,23.49,.19,22.74,.1,22,0,21.25v-2.5c.02-.11,.05-.23,.07-.34,.13-.9,.22-1.81,.4-2.7C2.08,7.91,8.67,1.6,16.51,.31,17.26,.19,18,.1,18.75,0h2.5c.1,.02,.2,.05,.3,.06,1.03,.16,2.07,.25,3.08,.49,7.7,1.76,13.76,8.21,15.07,16,.12,.73,.2,1.46,.3,2.2v2.42Z"/><path class="d" d="M20.14,31.33c-.73-.05-1.21-.42-1.47-1.1-.62-1.61-1.24-3.23-1.87-4.84-.2-.51-.29-1.13-.64-1.49-.34-.35-.95-.43-1.45-.63-1.62-.63-3.25-1.24-4.88-1.88-.88-.34-1.29-1.18-1-2.01,.17-.49,.53-.78,1-.98,2.53-1.1,5.05-2.21,7.58-3.31,3.11-1.36,6.21-2.73,9.33-4.06,.37-.16,.81-.27,1.2-.22,.99,.14,1.52,1.16,1.15,2.11-.26,.67-.56,1.32-.84,1.97-2.18,5.07-4.37,10.15-6.55,15.23-.31,.71-.77,1.16-1.57,1.2Zm4.52-15.97l-10.21,4.46c.2,.08,.31,.13,.43,.18,.99,.38,1.98,.78,2.98,1.15,.52,.2,.87,.54,1.06,1.06,.37,1,.76,1.99,1.15,2.98,.04,.11,.1,.22,.18,.4l4.41-10.23Z"/></g></g></g></g></svg>