<?xml version="1.0" encoding="UTF-8"?><svg xmlns="http://www.w3.org/2000/svg" viewBox="0 0 40 40"><defs><style>.d{fill:#fff;}.e{fill:none;}</style></defs><g id="a"/><g id="b"><g id="c"><g><rect class="e" width="40" height="40"/><g><path class="d" d="M1.95,39.93c-.3-.13-.62-.22-.88-.39-.65-.43-.98-1.07-.98-1.84,0-4.58-.01-9.16,0-13.74,0-1.19,.82-2.13,2-2.18,1.81-.07,3.63-.02,5.44,0,.48,0,.9,.23,1.24,.57,.15,.16,.27,.18,.47,.07,.47-.27,.96-.52,1.43-.79,1.31-.74,2.21-1.81,2.72-3.23,.55-1.51,1.09-3.02,1.64-4.53,.28-.77,.58-.92,1.36-.67,.53,.17,1.07,.33,1.57,.56,.9,.42,1.55,1.12,1.97,2.02,.11,.25,.24,.34,.52,.33,1.82-.01,3.63,0,5.45-.01,.41,0,.72,.13,1,.41,.77,.79,1.55,1.57,2.36,2.38,.13-.12,.24-.22,.35-.33,.69-.69,1.38-1.37,2.06-2.07,.27-.28,.58-.4,.97-.4,1.57,.01,3.14,0,4.71,0,.76,0,1.03-.27,1.03-1.04,0-4.14,0-8.28,0-12.41,0-.76-.27-1.03-1.04-1.03-10.15,0-20.31,0-30.46,0-.76,0-1.03,.27-1.03,1.03,0,4.14,0,8.28,0,12.41,0,.76,.27,1.03,1.03,1.03,.36,0,.73,0,1.09,0,.48,.02,.82,.33,.83,.76,.01,.44-.33,.77-.83,.79-.41,.01-.83,0-1.24,0-1.43-.02-2.41-1-2.42-2.43-.01-1.54,0-3.09,0-4.63,0-2.65,0-5.29,0-7.94,0-1.63,.96-2.59,2.59-2.59,10.04,0,20.07,0,30.11,0,1.76,0,2.29,.35,2.94,1.95V15.72c-.65,1.6-1.18,1.95-2.94,1.95-1.31,0-2.62,0-3.93,0-.26,0-.43,.08-.61,.26-.81,.82-1.63,1.64-2.44,2.45-.54,.54-.92,.54-1.46,.01-.83-.82-1.64-1.66-2.48-2.47-.14-.13-.37-.23-.57-.23-1.49-.02-2.98-.01-4.47-.01h-.61l.1,.07-1.19,3.99c.14,0,.28,0,.42,0,1.85,0,3.71,0,5.56,0,1.5,0,2.58,.79,2.96,2.15,.2,.73,.09,1.43-.26,2.12,1.25,.49,1.99,1.36,2.02,2.7,.03,1.34-.7,2.22-1.88,2.77,.44,.82,.51,1.63,.19,2.47-.32,.85-.97,1.38-1.78,1.72,.51,1.02,.49,1.98-.08,2.93-.46,.77-1.2,1.15-2.05,1.35H12.76c-1.2-.16-2.37-.47-3.49-.94-.07-.03-.21,.02-.25,.08-.37,.49-.9,.72-1.47,.86H1.95ZM16.34,14.84c-.49,1.36-.99,2.7-1.47,4.04-.55,1.54-1.47,2.8-2.82,3.71-.71,.47-1.47,.87-2.23,1.27-.25,.13-.34,.28-.34,.57,.01,3.66,0,7.32,0,10.97,0,.58,0,1.17,0,1.75,0,.11,.09,.28,.18,.32,1.27,.56,2.58,.92,3.98,.91,1.3-.01,2.59,0,3.89,0,2.13,0,4.25,0,6.38,0,.52,0,.94-.17,1.23-.61,.52-.81,0-1.91-.98-1.96-.93-.05-1.87,0-2.8-.03-.55-.01-.87-.33-.85-.8,.01-.45,.33-.73,.87-.74,.43-.01,.86,0,1.28,0,.93,0,1.87,0,2.8,0,.41,0,.81-.07,1.11-.38,.38-.4,.5-.88,.29-1.4-.22-.55-.66-.82-1.25-.82-1.34,0-2.67,0-4.01,0-.73,0-1.08-.24-1.09-.76,0-.53,.36-.8,1.1-.8,1.82,0,3.63,0,5.45,0,.43,0,.8-.11,1.08-.44,.35-.41,.44-.88,.22-1.38-.23-.51-.64-.77-1.2-.77-1.84,0-3.68,0-5.52,0-.18,0-.37,0-.54-.05-.53-.13-.74-.73-.43-1.17,.19-.28,.47-.33,.79-.33,1.26,0,2.52,0,3.77,0,.21,0,.42-.01,.62-.06,.65-.15,1.06-.79,.95-1.45-.12-.7-.64-1.1-1.47-1.1-2.27,0-4.54,0-6.81,0-.99,0-1.27-.39-.96-1.31,.36-1.07,.73-2.13,1.07-3.2,.59-1.84-.41-3.57-2.29-3.93ZM5.57,23.29v.55c0,2.87,0,5.73,0,8.6,0,.12,0,.23,0,.35-.03,.53-.32,.85-.77,.85-.45,0-.75-.31-.78-.83,0-.13,0-.26,0-.39,0-2.87,0-5.73,0-8.6v-.53c-.54,0-1.01,0-1.49,0-.65,0-.88,.24-.88,.9,0,4.42,0,8.85,0,13.27,0,.69,.22,.91,.91,.91,1.49,0,2.98,0,4.47,0,.71,0,.92-.22,.92-.94,0-2.34,0-4.67,0-7.01,0-2.1,0-4.2,0-6.3,0-.52-.21-.8-.67-.83-.54-.03-1.09,0-1.7,0Z"/><path class="d" d="M32.27,4.65c.5,0,.86,.25,1.09,.69,.18,.33,.32,.68,.51,1,.07,.12,.23,.23,.37,.26,.34,.08,.69,.11,1.04,.16,.51,.08,.89,.34,1.06,.85,.18,.51,.02,.94-.34,1.32-.25,.26-.53,.5-.77,.77-.09,.1-.15,.27-.13,.4,.04,.39,.13,.77,.17,1.15,.11,1.07-.83,1.73-1.81,1.28-.34-.16-.66-.36-1-.51-.12-.05-.3-.05-.42,0-.34,.15-.67,.34-1,.51-.47,.24-.94,.2-1.35-.11-.4-.31-.6-.76-.44-1.24,.3-.94,.11-1.65-.71-2.23-.43-.31-.55-.81-.37-1.33,.18-.52,.57-.84,1.1-.84,.97,0,1.54-.41,1.84-1.33,.17-.52,.6-.8,1.17-.79Zm1.36,6.21c-.39-1.1-.09-1.95,.84-2.63-1.19,.03-1.88-.53-2.22-1.63-.33,1.13-1.06,1.65-2.23,1.64,.98,.66,1.21,1.52,.87,2.61,.93-.7,1.82-.69,2.75,0Z"/><path class="d" d="M9.42,11.28c.05-.29,.09-.7,.19-1.1,.06-.24,0-.39-.18-.54-.25-.22-.49-.46-.73-.7-.38-.38-.52-.84-.33-1.35,.18-.5,.57-.81,1.09-.81,.96,0,1.55-.39,1.84-1.32,.16-.52,.59-.81,1.17-.8,.57,0,1,.3,1.16,.82,.28,.92,.88,1.29,1.81,1.3,.53,0,.94,.31,1.11,.83,.18,.53,.06,1.05-.38,1.37-.8,.57-1,1.26-.7,2.19,.16,.5-.04,.98-.48,1.3-.43,.31-.89,.3-1.36,.06-.39-.2-.78-.55-1.17-.55-.39,0-.78,.37-1.17,.56-.93,.44-1.87-.13-1.85-1.24Zm3.09-4.63c-.31,.45-.51,.93-.87,1.19-.37,.26-.89,.31-1.42,.48,1,.6,1.19,1.47,.87,2.55,.93-.75,1.81-.67,2.74-.02-.38-1.1-.08-1.94,.84-2.62-1.17,.03-1.87-.51-2.16-1.58Z"/><path class="d" d="M23.92,12.68c-.26-.12-.69-.29-1.08-.53-.35-.22-.64-.23-.98,0-.23,.16-.5,.27-.75,.4-.46,.23-.91,.18-1.32-.13-.39-.3-.54-.72-.47-1.2,.05-.36,.15-.71,.18-1.07,.01-.15-.05-.35-.15-.47-.23-.28-.51-.51-.77-.77-.36-.36-.48-.8-.32-1.29,.16-.5,.54-.84,1.05-.84,.98,0,1.6-.39,1.9-1.36,.15-.5,.59-.78,1.14-.77,.55,0,.99,.27,1.15,.77,.3,.96,.92,1.35,1.9,1.36,.5,0,.87,.33,1.04,.81,.18,.5,.05,.95-.31,1.32-.26,.27-.55,.52-.8,.8-.09,.1-.14,.27-.13,.4,.04,.45,.15,.9,.17,1.35,.03,.71-.55,1.25-1.45,1.23Zm-.28-1.83c0-.55-.11-1.05,.03-1.48,.14-.42,.53-.76,.79-1.1-.43-.14-.95-.18-1.31-.44-.36-.26-.56-.75-.81-1.11-.24,.36-.44,.84-.8,1.1-.37,.27-.9,.32-1.44,.49,1,.58,1.2,1.45,.88,2.54,.93-.7,1.82-.68,2.65,0Z"/><path class="d" d="M12.09,16.91c0,.42-.37,.77-.78,.75-.42-.01-.75-.37-.74-.79,0-.42,.37-.77,.78-.75,.42,.01,.75,.37,.74,.79Z"/><path class="d" d="M4.8,34.9c.41,0,.76,.36,.76,.78,0,.44-.35,.78-.79,.77-.42-.01-.74-.36-.73-.79,0-.42,.36-.76,.77-.76Z"/></g></g></g></g></svg>