<svg xmlns="http://www.w3.org/2000/svg" viewBox="0 0 28 28"><defs><style>.cls-1{fill:none;}.cls-2{fill:#0091ff;stroke:#fff;stroke-miterlimit:10;stroke-width:0.17px;}</style></defs><g id="Layer_2" data-name="Layer 2"><g id="Layer_1-2" data-name="Layer 1"><rect class="cls-1" width="28" height="28"/><path class="cls-2" d="M20.06,27.26H7.56l-.06-.05a.84.84,0,0,1,.38-1.62c.5,0,1,0,1.51,0a.27.27,0,0,0,.31-.23c.15-.64.33-1.27.45-1.92a9.22,9.22,0,0,0,.07-1.2H4.16a2.49,2.49,0,0,1-2.65-2.64q0-6.42,0-12.86a3.26,3.26,0,0,1,0-.54A2.46,2.46,0,0,1,4.06,4.13H10a.36.36,0,0,0,.37-.21c.41-.72.8-1.46,1.26-2.15A2.5,2.5,0,0,1,14.16.63a2.56,2.56,0,0,1,2.2,1.92,2.59,2.59,0,0,1-.05,1.58h7.56a3.63,3.63,0,0,1,.57,0,2,2,0,0,1,1.66,2q0,6.81,0,13.61a1.72,1.72,0,0,1,0,.39,2.46,2.46,0,0,1-2.54,2.08c-1.94,0-3.89,0-5.83,0h-.3a.43.43,0,0,0,0,.1,7.83,7.83,0,0,0,.58,3.1.37.37,0,0,0,.26.14h1.66a.82.82,0,0,1,.8.66.85.85,0,0,1-.43.9ZM24.44,18V6.37c0-.48-.09-.57-.57-.57h-8.2a.41.41,0,0,0-.41.23c-1.43,2.5-2.88,5-4.31,7.48a1.94,1.94,0,0,1-.88.95s0,0,0,.07h9.53a1.5,1.5,0,0,1,.67.15.78.78,0,0,1,.33.93.84.84,0,0,1-.91.58H6.94a.84.84,0,0,1-1-1q0-1.68,0-3.36a1.75,1.75,0,0,1,.19-.71c1-1.7,2-3.39,2.94-5.09l.14-.27H4.15c-.67,0-1,.29-1,1V18ZM3.2,19.68a.78.78,0,0,0,.55.86,1.58,1.58,0,0,0,.38,0q9.69,0,19.37,0a1.64,1.64,0,0,0,.38,0,.77.77,0,0,0,.54-.86ZM9.66,12.4l4-6.85-1.71-1L8,11.42Zm2.21,9.87a10.55,10.55,0,0,1-.46,3.31h4.8a10.37,10.37,0,0,1-.52-3.31Zm.89-19.14,1.68,1a1.15,1.15,0,0,0,.21-1.34.91.91,0,0,0-.91-.49C13.21,2.31,13,2.68,12.76,3.13ZM7.67,13.18v.72l.63-.36Z"/></g></g></svg>