<svg xmlns="http://www.w3.org/2000/svg" viewBox="0 0 135 135"><defs><style>.cls-1{fill:none;}.cls-2{fill:#0091ff;}</style></defs><g id="Layer_2" data-name="Layer 2"><g id="Layer_1-2" data-name="Layer 1"><rect class="cls-1" width="135" height="135"/><path class="cls-2" d="M134,70.7c-.07-5.26-2.52-9.2-7.24-11.84a2,2,0,0,1-.86-1.32c-.51-3.17-.69-6.41-1.42-9.53-7.19-30.47-39-49.33-70.33-41.77-24.51,5.92-42.31,26.7-43.74,51.1A1.7,1.7,0,0,1,9.33,59c-3.95,2.14-6.64,5.36-6.88,9.74A142.32,142.32,0,0,0,2.47,87c.44,5.83,5.09,10.11,11,11.18,6.21,1.12,11.06-2.72,11.07-8.82q0-11.61,0-23.22a8.42,8.42,0,0,0-6.18-8.34c-.53-.16-1.08-.27-1.69-.42,1.67-26.19,24.76-47.82,53.75-46.6,27.57,1.17,47.82,22.83,49,46.6-.35.09-.72.2-1.1.29a8.26,8.26,0,0,0-6.66,7.82q-.14,12.36,0,24.73a8.27,8.27,0,0,0,6.12,7.73c.57.17,1.17.28,1.81.43,0,2.24.06,4.43,0,6.62a12.22,12.22,0,0,1-10.76,11.53c-3.6.37-7.25.21-10.88.22-.32,0-.77-.45-.94-.79a9.13,9.13,0,0,0-8.17-5.3c-3.58-.13-7.18-.17-10.76,0A9.17,9.17,0,0,0,69,120c.16,5.09,4.23,8.92,9.59,9,3.15,0,6.3,0,9.45,0a9.36,9.36,0,0,0,8.84-5.31,1.3,1.3,0,0,1,1.37-.84c2.93,0,5.87.06,8.8,0,9.31-.18,17.16-6.65,18.5-15.49a65.79,65.79,0,0,0,.3-9.11,1.49,1.49,0,0,1,.89-1.49A12.8,12.8,0,0,0,134,85Q134.06,77.86,134,70.7ZM18.27,66.16c0,3.89,0,7.78,0,11.67s0,7.61,0,11.42c0,2.28-1,3.14-3.33,2.94a7.06,7.06,0,0,1-6.4-6.78q-.13-7.55,0-15.09a7.08,7.08,0,0,1,6.76-6.84C17.25,63.4,18.25,64.27,18.27,66.16Zm69.89,56.73c-1.57,0-3.15,0-4.72,0s-3.15,0-4.73,0a3.14,3.14,0,0,1-3.37-3.14,3.09,3.09,0,0,1,3.32-3q4.78-.08,9.58,0a3.07,3.07,0,0,1,3.29,3.2A3.13,3.13,0,0,1,88.16,122.89Zm39.48-37.41a7,7,0,0,1-6.59,6.72c-2.12.14-3.12-.72-3.13-2.77,0-3.85,0-7.69,0-11.54s0-7.69,0-11.54c0-2.18,1-3,3.31-2.85a7.07,7.07,0,0,1,6.43,6.76Q127.79,77.86,127.64,85.48ZM76.46,87.59c.2-1.89.41-3.78.59-5.67a.6.6,0,0,1,.38-.52c1.1-.58,2.18-1.17,3.25-1.8a.77.77,0,0,1,.8,0c1.75.77,3.51,1.52,5.27,2.28A1.8,1.8,0,0,0,89.3,81l5.77-9.52a1.66,1.66,0,0,0-.55-2.5l-4.76-3.26a.61.61,0,0,1-.31-.62c0-1.17,0-2.35,0-3.52a.66.66,0,0,1,.34-.66q2.33-1.58,4.63-3.17a1.7,1.7,0,0,0,.6-2.64l-5.68-9.39a1.83,1.83,0,0,0-2.67-.82c-1.74.75-3.48,1.49-5.22,2.26a.77.77,0,0,1-.76-.06q-1.6-.95-3.24-1.8a.62.62,0,0,1-.4-.56c-.17-1.76-.39-3.51-.53-5.27a2.13,2.13,0,0,0-1.32-2H62.27a2.11,2.11,0,0,0-1.32,2c-.14,1.76-.37,3.51-.53,5.26a.62.62,0,0,1-.4.57c-1.09.57-2.17,1.17-3.24,1.79a.74.74,0,0,1-.76.07c-1.72-.76-3.45-1.5-5.17-2.24a1.84,1.84,0,0,0-2.74.84q-2.82,4.65-5.63,9.3c-.16.26-.28.53-.43.8v.71a2.73,2.73,0,0,0,1.13,1.27c1.51,1,3,2.06,4.5,3.07a.66.66,0,0,1,.34.66c0,1.17,0,2.35,0,3.52a.66.66,0,0,1-.34.66c-1.51,1-3,2.06-4.5,3.07a2.68,2.68,0,0,0-1.13,1.27v.71c1.2,2,2.39,4,3.59,6,.84,1.41,1.7,2.81,2.55,4.22a1.75,1.75,0,0,0,2.47.77q2.67-1.12,5.32-2.29a.79.79,0,0,1,.81,0c1.05.62,2.12,1.2,3.2,1.77a.66.66,0,0,1,.43.6c.18,1.89.39,3.78.6,5.67a1.66,1.66,0,0,0,1.77,1.55q5.94,0,11.88,0A1.67,1.67,0,0,0,76.46,87.59Zm-2.72-7c-.14,1.66-.34,3.31-.51,5,0,.08,0,.16,0,.26H64.27c-.11-1-.22-2-.33-3s-.18-1.77-.29-2.66a1.55,1.55,0,0,0-1-1.29,19.58,19.58,0,0,1-4.95-2.73A1.76,1.76,0,0,0,55.8,76L51,78.08l-.52.22L46,71l2.64-1.82,2.08-1.42a1.67,1.67,0,0,0,.8-1.74,16.32,16.32,0,0,1,0-5.22A1.69,1.69,0,0,0,50.73,59c-1.4-.95-2.8-1.92-4.2-2.88L46,55.76c1.48-2.46,3-4.89,4.44-7.34,1.7.73,3.38,1.41,5,2.17a2.25,2.25,0,0,0,2.59-.29A14.12,14.12,0,0,1,62.23,48a2.07,2.07,0,0,0,1.51-2c.13-1.7.34-3.41.52-5.14H73.2c.15,1.35.29,2.7.43,4l.18,1.6a1.58,1.58,0,0,0,1.06,1.33,18.68,18.68,0,0,1,4.91,2.71,1.77,1.77,0,0,0,1.87.15L87,48.42l4.45,7.33c-.17.13-.33.25-.5.36-1.37.94-2.74,1.89-4.12,2.82a1.76,1.76,0,0,0-.89,1.89,16.28,16.28,0,0,1,0,5.12,1.73,1.73,0,0,0,.84,1.81c1.55,1,3.09,2.11,4.68,3.21L87,78.3l-3.24-1.39c-.63-.27-1.28-.52-1.9-.82a2.06,2.06,0,0,0-2.4.29,14.92,14.92,0,0,1-4.23,2.33A2,2,0,0,0,73.74,80.62Zm-5-24.41a7.16,7.16,0,1,0,7.39,7.15A7.27,7.27,0,0,0,68.73,56.21Z"/></g></g></svg>