<svg xmlns="http://www.w3.org/2000/svg" viewBox="0 0 28 28"><defs><style>.cls-1{fill:none;}.cls-2{fill:#0091ff;}</style></defs><g id="Layer_2" data-name="Layer 2"><g id="Layer_1-2" data-name="Layer 1"><rect class="cls-1" width="28" height="28"/><path class="cls-2" d="M27.16,2.53A2.18,2.18,0,0,0,24.87.77c-7.22,0-14.44,0-21.67,0A2.29,2.29,0,0,0,.84,3.11c0,5.42,0,10.85,0,16.27a2.83,2.83,0,0,0,0,.58,2.18,2.18,0,0,0,2.23,1.76h9.09v.34c0,.94,0,1.89,0,2.84a1.81,1.81,0,0,0,1.89,1.9h8A1.78,1.78,0,0,0,24,24.92c0-1,0-1.91,0-2.87v-.33h.86A2.18,2.18,0,0,0,27.2,19.4V3.11A2.74,2.74,0,0,0,27.16,2.53ZM2,2.79a1,1,0,0,1,.94-.92H24.79a1.35,1.35,0,0,1,.89.25,1,1,0,0,1,.41.79c0,.79,0,1.58,0,2.37a.41.41,0,0,1,0,.08H2C2,4.48,1.93,3.64,2,2.79ZM22.89,25.13a.59.59,0,0,1-.5.54,1.93,1.93,0,0,1-.42,0H14.25c-.69,0-.94-.25-.94-.94V23.23H22.9C22.9,23.88,22.92,24.51,22.89,25.13Zm-9.57-3V12.27H22.9V22.1Zm0-11c0-.67,0-1.32,0-2A.69.69,0,0,1,14,8.54h8c.63,0,.89.25.89.9v1.7ZM26.1,6.77c0,4.2,0,8.39,0,12.58a1.67,1.67,0,0,1-.05.5,1,1,0,0,1-1,.77c-.34,0-.69,0-1.07,0V9.44a1.83,1.83,0,0,0-2-2q-3.9,0-7.78,0a1.85,1.85,0,0,0-2,2V20.63h-9a1.14,1.14,0,0,1-1.3-1.3V6.48H26.1ZM4.2,12.22H10a.81.81,0,0,0,.88-.89V8.54A.8.8,0,0,0,10,7.67H4.33c-.75,0-1,.28-1,1s0,1.77,0,2.65A.8.8,0,0,0,4.2,12.22Zm.22-3.44H9.79v2.31H4.42ZM7.08,17h3.24a.48.48,0,0,0,.52-.33.65.65,0,0,0-.06-.53.72.72,0,0,0-.52-.23c-1,0-2,0-3.07,0H4a.57.57,0,0,0-.62.4.55.55,0,0,0,.6.7Zm3.2,1.29H3.93a.55.55,0,0,0-.62.59c0,.32.26.51.65.51h6.3a.57.57,0,0,0,.64-.46A.56.56,0,0,0,10.28,18.25Zm.12-4.77H3.88a.55.55,0,0,0-.57.56.55.55,0,0,0,.59.54h6.46A.51.51,0,0,0,10.9,14,.53.53,0,0,0,10.4,13.48Zm7.17-9.33H24a1.43,1.43,0,0,0,.36,0,.51.51,0,0,0,.43-.45.54.54,0,0,0-.59-.62H17.57a.55.55,0,0,0-.62.53C16.94,3.92,17.18,4.14,17.57,4.15ZM8,4.18A.58.58,0,0,0,8,3a.6.6,0,0,0-.57.57A.6.6,0,0,0,8,4.18Zm-4.16,0a.59.59,0,0,0,.6-.54A.6.6,0,0,0,3.89,3a.6.6,0,0,0-.58.56A.59.59,0,0,0,3.85,4.18Zm2.1,0A.57.57,0,0,0,6.5,3.6a.57.57,0,1,0-1.13,0A.59.59,0,0,0,6,4.18Zm12.17,9.1A3.84,3.84,0,1,0,22,17.12,3.85,3.85,0,0,0,18.12,13.28Zm0,6.58a2.74,2.74,0,1,1,0-5.47,2.74,2.74,0,0,1,0,5.47ZM18.4,9.34a2.66,2.66,0,0,0-.63,0,.52.52,0,0,0-.47.56.53.53,0,0,0,.51.52h.56a.55.55,0,1,0,0-1.09ZM18,23.9a.58.58,0,1,0,.58.56A.6.6,0,0,0,18,23.9Zm.7-7.66-1,.84-.1-.11a.55.55,0,1,0-.85.68l.36.49a.57.57,0,0,0,.93.11l1.37-1.19a.56.56,0,0,0,.11-.83A.57.57,0,0,0,18.67,16.24Z"/></g></g></svg>