<svg xmlns="http://www.w3.org/2000/svg" viewBox="0 0 40 40"><defs><style>.cls-1,.cls-2{fill:none;}.cls-2{stroke:#fff;stroke-miterlimit:10;stroke-width:1.95px;}.cls-3{fill:#fff;}</style></defs><g id="Layer_2" data-name="Layer 2"><g id="Layer_1-2" data-name="Layer 1"><rect class="cls-1" width="40" height="40"/><path class="cls-2" d="M2.32,15A5.29,5.29,0,0,1,3,13.51a15.89,15.89,0,0,1,2.19-2.15,2.5,2.5,0,0,1,3.44.05A9.06,9.06,0,0,1,11.26,15,2.59,2.59,0,0,1,10.67,18c-.33.35-.66.7-1,1a1.16,1.16,0,0,0-.35,1.27,7.65,7.65,0,0,0,.86,1.8,31.15,31.15,0,0,0,7.15,7.16,4.54,4.54,0,0,0,1.9.88,1.25,1.25,0,0,0,1.17-.37c.35-.35.69-.69,1.05-1a2.58,2.58,0,0,1,2.91-.57,8.74,8.74,0,0,1,3.7,2.79A2.48,2.48,0,0,1,28,34.34a25,25,0,0,1-2,2,3.09,3.09,0,0,1-2.45.68,13.73,13.73,0,0,1-6.07-1.94A34.17,34.17,0,0,1,4.89,23a17.39,17.39,0,0,1-2.38-5.75c-.08-.35-.13-.7-.19-1.05Z"/><path class="cls-3" d="M33.66,19.08c.88-.52,1.71-1,2.55-1.5a.41.41,0,0,0,.24-.5,13.66,13.66,0,0,0-3.8-7.69,13.57,13.57,0,0,0-7.61-4c-.71-.12-.71-.11-1.08.53l-1.1,1.84c-.06.1-.12.2-.21.33-.52-.87-1-1.69-1.49-2.53a.44.44,0,0,0-.51-.25,13.81,13.81,0,0,0-8.33,4.49c-.44.48-.83,1-1.24,1.52L9.34,9.68A16.32,16.32,0,1,1,30.39,33.45a4.34,4.34,0,0,0-.28-2.59c.25-.17.49-.33.73-.51A13.9,13.9,0,0,0,36.47,21a.34.34,0,0,0-.2-.4Z"/><path class="cls-3" d="M17.93,20.71h3.79V22.6H15.47a3.73,3.73,0,0,1,1.27-3.86c.56-.48,1.17-.89,1.76-1.34A4.31,4.31,0,0,0,19,17a.84.84,0,0,0,.21-1,1,1,0,0,0-1-.47,1.75,1.75,0,0,0-1.25.94l-1.63-1.08a3.2,3.2,0,0,1,1-1.24,3.66,3.66,0,0,1,4.28-.06A2.76,2.76,0,0,1,20.94,18a8.67,8.67,0,0,1-1.37,1.19c-.39.31-.84.56-1.23.86a3.81,3.81,0,0,0-.48.57Z"/><path class="cls-3" d="M28.89,13.54v5h1.05V20.4h-1v2.2H26.69V20.43h-4a3,3,0,0,1,.37-2c1-1.49,1.94-3,2.89-4.56a.62.62,0,0,1,.63-.34C27.33,13.55,28.08,13.54,28.89,13.54Zm-3.94,5H26.7V15.79Z"/></g></g></svg>