<svg xmlns="http://www.w3.org/2000/svg" viewBox="0 0 40 40"><defs><style>.cls-1{fill:none;}.cls-2{fill:#fff;}</style></defs><g id="Layer_2" data-name="Layer 2"><g id="Layer_1-2" data-name="Layer 1"><rect class="cls-1" width="40" height="40"/><path class="cls-2" d="M2.63,36.69V15.76a.61.61,0,0,0,.05-.12A3.13,3.13,0,0,1,6,13H18.08V8.54a1.08,1.08,0,0,1,1.23-1.22H23c.92,0,1.15.17,1.44,1,.37-.11.76-.21,1.12-.34a2.26,2.26,0,0,0,1.54-1.79,11.06,11.06,0,0,0,.08-1.42A3.06,3.06,0,0,1,28.9,2.07a7.61,7.61,0,0,1,1-.33h.83l.13.06a3,3,0,0,1,2.54,2.64A23.31,23.31,0,0,1,33.4,7v.38h1.2A3.81,3.81,0,0,1,38.26,11c0,2,0,4,0,6a3.69,3.69,0,0,1-3.19,3.55c-1.15.13-2.31.07-3.47.09h-.43v10.7a4.79,4.79,0,0,1,0,.66,3.12,3.12,0,0,1-3.22,2.72H8.5a1.18,1.18,0,0,0-.6.19c-1.33.85-2.63,1.73-3.95,2.6H3.39A1.62,1.62,0,0,1,2.63,36.69ZM18.08,15.15H5.83a1.05,1.05,0,0,0-1.11,1.18V34.11c0,.09,0,.19,0,.33.8-.53,1.55-1,2.29-1.54a1.85,1.85,0,0,1,1.11-.33h19.7a1.08,1.08,0,0,0,1.24-1.23V20.56a7.41,7.41,0,0,1-4.7-.9c-.34.77-.56.92-1.38.92H19.31a1.09,1.09,0,0,1-1.23-1.25Zm6.29-4.59a.89.89,0,0,0,0,.15c0,2,0,3.93,0,5.89a.64.64,0,0,0,.15.4,3.69,3.69,0,0,0,3,1.48h6.89a1.73,1.73,0,0,0,1.8-1.8c0-1.82,0-3.65,0-5.47a1.73,1.73,0,0,0-1.81-1.79H32.49a1.07,1.07,0,0,1-1.18-1.19c0-1.12,0-2.23,0-3.35a1,1,0,0,0-1-1,1.05,1.05,0,0,0-1.05,1c0,.3,0,.6,0,.91A4.51,4.51,0,0,1,26.09,10C25.52,10.23,24.94,10.39,24.37,10.56Zm-4.18,7.9h2v-9h-2Z"/><path class="cls-2" d="M16.91,25.6h-9a1,1,0,0,1-1-1.44,1,1,0,0,1,.87-.65,2.61,2.61,0,0,1,.28,0H25.75a1.88,1.88,0,0,1,.41,0A1,1,0,0,1,27,24.66a1.06,1.06,0,0,1-1.08.94h-9Z"/><path class="cls-2" d="M16.86,29.78H8.06a1.74,1.74,0,0,1-.51-.06,1,1,0,0,1-.74-1.08,1.07,1.07,0,0,1,1-.95h18a2.27,2.27,0,0,1,.45,0,1,1,0,0,1-.27,2.06h-9Z"/><path class="cls-2" d="M11.34,19.32h3.34a1.05,1.05,0,1,1,0,2.09H8a1.05,1.05,0,1,1,0-2.09Z"/></g></g></svg>