<svg xmlns="http://www.w3.org/2000/svg" viewBox="0 0 40 40"><defs><style>.cls-1{fill:none;}.cls-2{fill:#fff;}</style></defs><g id="Layer_2" data-name="Layer 2"><g id="Layer_1-2" data-name="Layer 1"><rect class="cls-1" width="40" height="40"/><path class="cls-2" d="M15.26,37.84c-.62-.16-1.26-.26-1.86-.48A6.88,6.88,0,0,1,15,24.12c1-.12,2-.06,3-.08.59,0,1.17,0,1.75,0a2.13,2.13,0,1,0,0-4.26c-1.24,0-2.49,0-3.74,0l-.3,0V17.69s0,0,0,0c1.54,0,3.09-.06,4.63.05a4.24,4.24,0,0,1,.1,8.41c-1.19.12-2.41.05-3.62.08a13.78,13.78,0,0,0-1.82.08,4.74,4.74,0,0,0,.11,9.36,6.51,6.51,0,0,0,.88.06H27.81v2.15Z"/><path class="cls-2" d="M10.76,1.26a18.71,18.71,0,0,1,1.83.43A7.85,7.85,0,0,1,15.7,14.56c-1.81,1.87-3.68,3.69-5.52,5.54l-.13.11L9.8,20,4.56,14.72A7.85,7.85,0,0,1,4.67,3.41,7.62,7.62,0,0,1,9.1,1.32a2.1,2.1,0,0,0,.24-.06ZM10,17.17l.1-.06c1.37-1.38,2.77-2.72,4.1-4.13A5.71,5.71,0,0,0,8.51,3.61,5.72,5.72,0,0,0,6,13.09c1.29,1.34,2.63,2.64,4,4Z"/><path class="cls-2" d="M32.94,37.84a3.4,3.4,0,0,0-.23-.3C31.46,36.28,30.19,35,29,33.77a5.71,5.71,0,1,1,9.69-4.88,2,2,0,0,0,.06.23v1.21c0,.07-.05.14-.06.2A5.79,5.79,0,0,1,36.89,34Q34.94,35.89,33,37.84Zm.07-3c1-1,2-2,2.9-3.05a3.15,3.15,0,0,0,.61-2.63A3.56,3.56,0,0,0,30,27.8a3.42,3.42,0,0,0,.11,4C31,32.87,32,33.81,33,34.84Z"/><path class="cls-2" d="M13.62,9.13a3.57,3.57,0,1,1-3.55-3.59A3.59,3.59,0,0,1,13.62,9.13ZM10,10.54A1.43,1.43,0,1,0,8.63,9.1,1.43,1.43,0,0,0,10,10.54Z"/></g></g></svg>