<svg xmlns="http://www.w3.org/2000/svg" width="345" height="307" viewBox="0 0 345 307">
  <g id="Group_3432" data-name="Group 3432" transform="translate(-18390 -4628)">
    <g id="Group_3425" data-name="Group 3425">
      <g id="Group_3404" data-name="Group 3404" transform="translate(3138 -298)">
        <g id="Group_903" data-name="Group 903" transform="translate(1154 674)">
          <rect id="Rectangle_1318" data-name="Rectangle 1318" width="345" height="307" transform="translate(14098 4252)" fill="#fff" opacity="0"/>
        </g>
      </g>
      <g id="Group_3415" data-name="Group 3415" transform="translate(0 354.465)">
        <g id="Scrum_board-rafiki" data-name="Scrum board-rafiki" transform="translate(18363.137 4237.465)">
          <g id="freepik--background-complete--inject-63" transform="translate(41.614 55)">
            <rect id="Rectangle_3425" data-name="Rectangle 3425" width="315.495" height="0.199" transform="translate(0 261.084)" fill="#ebebeb"/>
            <rect id="Rectangle_3426" data-name="Rectangle 3426" width="33.487" height="0.199" transform="translate(250.396 273.915)" fill="#ebebeb"/>
            <rect id="Rectangle_3427" data-name="Rectangle 3427" width="37.014" height="0.199" transform="translate(171.983 271.419)" fill="#ebebeb"/>
            <rect id="Rectangle_3428" data-name="Rectangle 3428" width="12.109" height="0.199" transform="translate(239.902 270.271)" fill="#ebebeb"/>
            <rect id="Rectangle_3429" data-name="Rectangle 3429" width="27.252" height="0.199" transform="translate(63.396 267.855)" fill="#ebebeb"/>
            <rect id="Rectangle_3430" data-name="Rectangle 3430" width="9.742" height="0.199" transform="translate(50.138 267.855)" fill="#ebebeb"/>
            <rect id="Rectangle_3431" data-name="Rectangle 3431" width="34.2" height="0.199" transform="translate(82.956 271.22)" fill="#ebebeb"/>
            <path id="Path_44375" data-name="Path 44375" d="M163.644,280.518H41.807c-1.987,0-3.6-2.042-3.6-4.553V59.514c.017-2.5,1.622-4.509,3.6-4.514H163.644c1.99,0,3.6,2.039,3.6,4.553V275.965C167.247,278.48,165.634,280.518,163.644,280.518ZM41.807,55.159c-1.9,0-3.439,1.952-3.439,4.354V275.965c0,2.4,1.539,4.35,3.439,4.354H163.644c1.9,0,3.442-1.951,3.445-4.354V59.514c0-2.4-1.544-4.35-3.445-4.354Z" transform="translate(-14.1 -55)" fill="#ebebeb"/>
            <path id="Path_44376" data-name="Path 44376" d="M379.947,280.518H258.1c-1.988,0-3.6-2.04-3.6-4.553V59.514c.021-2.5,1.627-4.509,3.6-4.514H379.947c1.973.009,3.573,2.021,3.59,4.514V275.965C383.537,278.473,381.932,280.509,379.947,280.518ZM258.1,55.159c-1.9,0-3.442,1.951-3.445,4.354V275.965c0,2.4,1.544,4.35,3.445,4.354H379.947c1.9,0,3.442-1.951,3.445-4.354V59.514c0-2.4-1.544-4.35-3.445-4.354Z" transform="translate(-93.913 -55)" fill="#ebebeb"/>
            <rect id="Rectangle_3432" data-name="Rectangle 3432" width="44.781" height="9.928" rx="4.964" transform="translate(32.565 203.174)" fill="#ebebeb"/>
            <path id="Path_44377" data-name="Path 44377" d="M63.422,322.23h-6.3L49.95,370.212h6.3Z" transform="translate(-18.432 -109.128)" fill="#e0e0e0"/>
            <path id="Path_44378" data-name="Path 44378" d="M85.491,322.23h-6.3L75.66,370.212h6.3Z" transform="translate(-27.919 -109.128)" fill="#e0e0e0"/>
            <path id="Path_44379" data-name="Path 44379" d="M102.89,322.23h6.3l7.174,47.982h-6.3Z" transform="translate(-37.967 -109.128)" fill="#e0e0e0"/>
            <rect id="Rectangle_3433" data-name="Rectangle 3433" width="147.431" height="162.32" transform="translate(124.406 12.48)" fill="#e6e6e6"/>
            <rect id="Rectangle_3434" data-name="Rectangle 3434" width="149.791" height="162.32" transform="translate(126.469 12.48)" fill="#f0f0f0"/>
            <rect id="Rectangle_3435" data-name="Rectangle 3435" width="147.431" height="3.142" transform="translate(124.406 174.809)" fill="#e6e6e6"/>
            <rect id="Rectangle_3436" data-name="Rectangle 3436" width="149.791" height="3.142" transform="translate(128.829 174.809)" fill="#f0f0f0"/>
            <rect id="Rectangle_3437" data-name="Rectangle 3437" width="152.233" height="137.404" transform="translate(270.064 17.528) rotate(90)" fill="#fafafa"/>
            <path id="Path_44380" data-name="Path 44380" d="M279.86,229.213l25.9-152.233h17.157l-25.9,152.233Z" transform="translate(-103.271 -59.452)" fill="#fff"/>
            <path id="Path_44381" data-name="Path 44381" d="M248.12,229.213l25.9-152.233h17.157l-25.9,152.233Z" transform="translate(-91.559 -59.452)" fill="#fff"/>
            <path id="Path_44382" data-name="Path 44382" d="M215.37,77.395V219.643a.466.466,0,0,0,.5.415h.669a.466.466,0,0,0,.5-.415V77.395a.466.466,0,0,0-.5-.415h-.669C215.6,77,215.37,77.163,215.37,77.395Z" transform="translate(-79.474 -59.452)" fill="#f0f0f0"/>
            <path id="Path_44383" data-name="Path 44383" d="M349.78,229.213l25.9-152.233h6.688l-25.9,152.233Z" transform="translate(-129.072 -59.452)" fill="#fff"/>
            <rect id="Rectangle_3438" data-name="Rectangle 3438" width="152.233" height="0.789" transform="translate(270.064 17.528) rotate(90)" fill="#e6e6e6"/>
            <path id="Path_44384" data-name="Path 44384" d="M353.585,83.794H206.154l-.574-4.354H353.017Z" transform="translate(-75.861 -59.95)" fill="#e0e0e0" opacity="0.5"/>
            <path id="Path_44385" data-name="Path 44385" d="M353.585,102.532H206.154l-.574-4.362H353.017Z" transform="translate(-75.861 -63.744)" fill="#e0e0e0" opacity="0.5"/>
            <path id="Path_44386" data-name="Path 44386" d="M353.585,121.264H206.154l-.574-4.354H353.017Z" transform="translate(-75.861 -67.54)" fill="#e0e0e0" opacity="0.5"/>
            <path id="Path_44387" data-name="Path 44387" d="M353.585,140H206.154l-.574-4.354H353.017Z" transform="translate(-75.861 -71.336)" fill="#e0e0e0" opacity="0.5"/>
            <path id="Path_44388" data-name="Path 44388" d="M353.585,158.734H206.154l-.574-4.354H353.017Z" transform="translate(-75.861 -75.13)" fill="#e0e0e0" opacity="0.5"/>
            <path id="Path_44389" data-name="Path 44389" d="M353.585,177.474H206.154l-.574-4.354H353.017Z" transform="translate(-75.861 -78.925)" fill="#e0e0e0" opacity="0.5"/>
            <path id="Path_44390" data-name="Path 44390" d="M353.585,93.164H206.154l-.574-4.354H353.017Z" transform="translate(-75.861 -61.848)" fill="#e0e0e0" opacity="0.5"/>
            <path id="Path_44391" data-name="Path 44391" d="M353.585,111.894H206.154l-.574-4.354H353.017Z" transform="translate(-75.861 -65.642)" fill="#e0e0e0" opacity="0.5"/>
            <path id="Path_44392" data-name="Path 44392" d="M353.585,130.634H206.154l-.574-4.354H353.017Z" transform="translate(-75.861 -69.438)" fill="#e0e0e0" opacity="0.5"/>
            <path id="Path_44393" data-name="Path 44393" d="M353.585,149.364H206.154l-.574-4.354H353.017Z" transform="translate(-75.861 -73.232)" fill="#e0e0e0" opacity="0.5"/>
            <path id="Path_44394" data-name="Path 44394" d="M353.585,168.1H206.154l-.574-4.354H353.017Z" transform="translate(-75.861 -77.028)" fill="#e0e0e0" opacity="0.5"/>
            <path id="Path_44395" data-name="Path 44395" d="M353.585,186.844H206.154l-.574-4.354H353.017Z" transform="translate(-75.861 -80.823)" fill="#e0e0e0" opacity="0.5"/>
            <rect id="Rectangle_3439" data-name="Rectangle 3439" width="19.523" height="73.971" transform="translate(252.314 187.113)" fill="#e6e6e6"/>
            <path id="Path_44396" data-name="Path 44396" d="M404.668,380.243h11.894V371.75H392.2Z" transform="translate(-144.726 -119.158)" fill="#ebebeb"/>
            <rect id="Rectangle_3440" data-name="Rectangle 3440" width="19.523" height="73.971" transform="translate(193.796 187.113)" fill="#e6e6e6"/>
            <rect id="Rectangle_3441" data-name="Rectangle 3441" width="68.891" height="72.209" transform="translate(202.945 187.113)" fill="#ebebeb"/>
            <path id="Path_44397" data-name="Path 44397" d="M333.524,380.243H321.63V371.75h24.363Z" transform="translate(-118.685 -119.158)" fill="#ebebeb"/>
            <rect id="Rectangle_3442" data-name="Rectangle 3442" width="50.441" height="37.201" transform="translate(212.17 195.438)" fill="#fafafa"/>
            <rect id="Rectangle_3443" data-name="Rectangle 3443" width="50.441" height="17.703" transform="translate(212.17 236.427)" fill="#fafafa"/>
            <path id="Path_44398" data-name="Path 44398" d="M376.589,301.589h-9.4c-1.5,0-2.707-1.538-2.707-3.429h14.841a3.931,3.931,0,0,1-.8,2.433,2.457,2.457,0,0,1-1.931,1Z" transform="translate(-134.497 -104.253)" fill="#ebebeb"/>
            <path id="Path_44399" data-name="Path 44399" d="M376.589,352.981h-9.4c-1.5,0-2.707-1.532-2.707-3.421h14.841a3.921,3.921,0,0,1-.8,2.431A2.45,2.45,0,0,1,376.589,352.981Z" transform="translate(-134.497 -114.664)" fill="#ebebeb"/>
            <rect id="Rectangle_3444" data-name="Rectangle 3444" width="19.523" height="73.971" transform="translate(178.141 187.113)" fill="#e6e6e6"/>
            <path id="Path_44400" data-name="Path 44400" d="M287.128,380.243h11.888V371.75H274.66Z" transform="translate(-101.352 -119.158)" fill="#ebebeb"/>
            <rect id="Rectangle_3445" data-name="Rectangle 3445" width="19.523" height="73.971" transform="translate(119.629 187.113)" fill="#e6e6e6"/>
            <rect id="Rectangle_3446" data-name="Rectangle 3446" width="68.891" height="72.209" transform="translate(128.779 187.113)" fill="#ebebeb"/>
            <path id="Path_44401" data-name="Path 44401" d="M215.978,380.243H204.09V371.75h24.356Z" transform="translate(-75.311 -119.158)" fill="#ebebeb"/>
            <rect id="Rectangle_3447" data-name="Rectangle 3447" width="50.441" height="37.201" transform="translate(138.004 195.438)" fill="#fafafa"/>
            <rect id="Rectangle_3448" data-name="Rectangle 3448" width="50.441" height="17.703" transform="translate(138.004 236.427)" fill="#fafafa"/>
            <path id="Path_44402" data-name="Path 44402" d="M259.039,301.589h-9.4c-1.5,0-2.71-1.537-2.713-3.429h14.822c0,1.894-1.215,3.429-2.713,3.429Z" transform="translate(-91.12 -104.253)" fill="#ebebeb"/>
            <path id="Path_44403" data-name="Path 44403" d="M259.039,352.981h-9.4c-1.5,0-2.71-1.53-2.713-3.421h14.822a3.924,3.924,0,0,1-.8,2.422,2.456,2.456,0,0,1-1.918,1Z" transform="translate(-91.12 -114.664)" fill="#ebebeb"/>
            <rect id="Rectangle_3449" data-name="Rectangle 3449" width="142.856" height="3.102" transform="translate(271.837 187.113) rotate(180)" fill="#f0f0f0"/>
            <rect id="Rectangle_3450" data-name="Rectangle 3450" width="9.351" height="3.102" transform="translate(119.629 184.003)" fill="#e0e0e0"/>
            <path id="Path_44404" data-name="Path 44404" d="M83.787,275.791c-.89-28.979-1.836-57.791.107-72.328l3.155-2.823s-.694,2.7-1.06,47.105-.814,21.451-.429,28.046Z" transform="translate(-30.538 -84.5)" fill="#e6e6e6"/>
            <path id="Path_44405" data-name="Path 44405" d="M90.05,156.348c4.878-16.061,16.242-31.571,28.584-37.919,4.846-2.488-2.133,52.289-19.706,55.821-8.581,1.723-11.257,29.506-12.7,42.823C85.734,190.837,85.173,172.408,90.05,156.348Z" transform="translate(-31.703 -67.831)" fill="#e6e6e6"/>
            <path id="Path_44406" data-name="Path 44406" d="M88.8,212.935c3.433-6.874,9.042-16.507,17.239-16.515,9.288,0,1.161,19.33-9.761,25.518-5.332,3.014-9.78,12.584-10.935,18.581C85.441,228.358,85.365,219.809,88.8,212.935Z" transform="translate(-31.491 -83.645)" fill="#e6e6e6"/>
            <path id="Path_44410" data-name="Path 44410" d="M78.373,303.363h0c-6.247,0-11.408-.574-11.762-11.252L65.57,278.1H91.182l-1.041,14.011C89.781,302.789,84.62,303.363,78.373,303.363Z" transform="translate(-24.196 -100.189)" fill="#f0f0f0"/>
            <path id="Path_44411" data-name="Path 44411" d="M90.789,283.673h-25.8l-.738-6.563H91.528Z" transform="translate(-23.709 -99.989)" fill="#f0f0f0"/>
          </g>
          <g id="freepik--Board--inject-63" transform="translate(57.056 72.663)">
            <rect id="Rectangle_3451" data-name="Rectangle 3451" width="0.797" height="16.053" transform="translate(0 16.37) rotate(-2.79)" fill="#0091ff"/>
            <rect id="Rectangle_3452" data-name="Rectangle 3452" width="0.797" height="7.887" transform="translate(1.035 37.826) rotate(-2.79)" fill="#0091ff"/>
            <path id="Path_44412" data-name="Path 44412" d="M323.422,256.233H84.132a1.419,1.419,0,0,1-1.411-1.372L74.14,78.625a1.411,1.411,0,0,1,1.411-1.475H314.857a1.419,1.419,0,0,1,1.419,1.34l8.581,176.3a1.419,1.419,0,0,1-1.435,1.443Z" transform="translate(-72.073 -77.15)" fill="#0091ff"/>
            <path id="Path_44413" data-name="Path 44413" d="M86.241,252.714,77.94,82.2a1.419,1.419,0,0,1,1.411-1.483h233.5a1.411,1.411,0,0,1,1.411,1.348l8.3,170.51a1.412,1.412,0,0,1-1.411,1.483H87.653A1.42,1.42,0,0,1,86.241,252.714Z" transform="translate(-72.842 -77.873)" fill="#fff" opacity="0.8"/>
            <path id="Path_44417" data-name="Path 44417" d="M310.1,113H88.306a.726.726,0,1,1,0-1.443H310.1a.726.726,0,1,1,0,1.443Z" transform="translate(-74.78 -84.119)" fill="#fff"/>
            <path id="Path_44418" data-name="Path 44418" d="M96.631,101.683a3.565,3.565,0,0,1,3.19.271c.8.51,1.284,1.595,2.289,1.834,1.14.231,1.491-.7,2.3-1.236,1.021-.678,2.576-.375,3.716-.287q4.537.335,9.067.8c2.982.287,6,.8,8.971.215,1.029-.2.59-1.77-.431-1.595-3.046.6-6.276-.056-9.33-.351s-6.132-.574-9.211-.8a6.882,6.882,0,0,0-3.118.335,3.756,3.756,0,0,0-1.244.893c-.128.128-.255.391-.463.359s-.439-.5-.518-.6a5.215,5.215,0,0,0-5.686-1.443c-.965.383-.55,1.954.431,1.595Z" transform="translate(-76.422 -81.731)" fill="#fff"/>
            <path id="Path_44419" data-name="Path 44419" d="M164.122,104.214c1.212-.909,3.038-2.121,4.035-.3.5.909.989,2,2.241,1.81s2.081-1.746,2.959-2.48a3.3,3.3,0,0,1,4.163-.542,10.646,10.646,0,0,0,3.987,1.778,7.329,7.329,0,0,0,4.035-.646,6.6,6.6,0,0,1,2.337-.8,24.179,24.179,0,0,1,2.6.343,20.893,20.893,0,0,0,5.534-.526c1.029-.191.59-1.762-.439-1.595a17.153,17.153,0,0,1-6.013.343,7.177,7.177,0,0,0-2.225-.159,7.631,7.631,0,0,0-2.026.662,5.906,5.906,0,0,1-5.024.3c-1.356-.6-2.392-1.707-3.923-1.93a4.88,4.88,0,0,0-3.541,1.045,14.009,14.009,0,0,0-1.595,1.451,7.288,7.288,0,0,1-.71.8c-.4.3-.431.263-.67-.175-.582-1.092-1.14-1.986-2.448-2.249-1.555-.311-2.895.534-4.083,1.427-.8.622,0,2.033.8,1.4Z" transform="translate(-90.069 -81.869)" fill="#fff"/>
            <path id="Path_44420" data-name="Path 44420" d="M240.692,103.562c.949-.447,1.914-.853,2.9-1.2a9.968,9.968,0,0,1,3.038-.8,12.463,12.463,0,0,1,2.6.718,3.19,3.19,0,0,0,2.01-.207c.574-.263,1.164-.909,1.786-1.013s1.308.718,1.922,1a3.6,3.6,0,0,0,1.97.231c.614-.072,1.515-.391,2.089,0s.694,1.085,1.268,1.427a1.7,1.7,0,0,0,1.643.064,6.76,6.76,0,0,0,1.364-1.212c.7-.59,1.515-.263,2.321-.072a6,6,0,0,0,2.225.207c.837-.112,1.81-.646,2.656-.478,1.4.279,2.129,1.762,3.692,1,.941-.463.12-1.866-.8-1.4-.4.191-1.555-.8-1.938-.989a3.541,3.541,0,0,0-2.153-.128,7.225,7.225,0,0,1-2.632.359,22.33,22.33,0,0,0-2.265-.463,2.831,2.831,0,0,0-1.9.526c-.311.231-.981,1.26-1.388,1.172-.183,0-.478-.646-.59-.8a2.584,2.584,0,0,0-.662-.622,2.966,2.966,0,0,0-1.842-.351,6.252,6.252,0,0,1-2.169.152c-.686-.2-1.14-.869-1.826-1.108-1.547-.534-2.289.734-3.612,1.124-.853.247-1.73-.359-2.536-.574a5,5,0,0,0-2.544,0,29.959,29.959,0,0,0-5.431,2.057c-.941.447-.12,1.85.8,1.4Z" transform="translate(-105.562 -81.664)" fill="#fff"/>
            <path id="Path_44421" data-name="Path 44421" d="M308.892,103.158l4.346-1.236c.686-.2,1.38-.439,2.073-.59a3.094,3.094,0,0,1,1.978.359,10.032,10.032,0,0,0,3.644.415c1.451,0,2.895,0,4.346-.056l17.783-.215a.8.8,0,0,0,0-1.595l-18.158.223c-1.427,0-2.855.048-4.282.056a10.366,10.366,0,0,1-2.105-.136c-.654-.144-1.2-.51-1.834-.686-1.188-.327-2.544.311-3.668.638l-4.529,1.292a.826.826,0,0,0,.431,1.595Z" transform="translate(-119.416 -81.699)" fill="#fff"/>
            <g id="OBJECTS" transform="translate(32.479 36.952)">
              <g id="Group_3412" data-name="Group 3412">
                <path id="Path_44479" data-name="Path 44479" d="M52.954,49.04h-.009l-7.921-6.162-7.969,6.147h-.009a32.83,32.83,0,0,0-2.412-12.4,32.322,32.322,0,0,0-6.595-10.178,31.348,31.348,0,0,0-9.83-6.941A30.439,30.439,0,0,0,6.092,16.858h-.04L0,8.421,5.624.718,4.833.1l.308,0h.613l.307,0h.026A46.367,46.367,0,0,1,24.5,4.215,47.7,47.7,0,0,1,39.37,14.806a49.163,49.163,0,0,1,9.951,15.45A49.98,49.98,0,0,1,52.954,49.04Z" transform="translate(87.092 0.604)" fill="#0091ff"/>
                <path id="Path_44480" data-name="Path 44480" d="M44.632,17.461A30.488,30.488,0,0,0,26.926,22.9a31.727,31.727,0,0,0-6.746,6.3,32.293,32.293,0,0,0-4.724,8.1L5.435,39.866,0,30.84A49.054,49.054,0,0,1,7.063,18.693,48.279,48.279,0,0,1,17.11,9.2,46.846,46.846,0,0,1,29.453,3,46.293,46.293,0,0,1,43.413.7l.791.621-5.626,7.7,6.054,8.437Z" transform="translate(48.512)" fill="#66bdff"/>
                <path id="Path_44481" data-name="Path 44481" d="M43.9,50.639l-32.141.288A49.154,49.154,0,0,1,3.144,36.263,49.548,49.548,0,0,1,.813,27.8,50.437,50.437,0,0,1,0,18.79v-.051q0-2.487.237-4.912t.7-4.772q.459-2.347,1.132-4.609T3.609.024L9.044,9.05,19.064,6.5q-.568,1.415-1.007,2.9t-.738,3.019q-.3,1.538-.454,3.126t-.155,3.217v.05A32.793,32.793,0,0,0,18.825,30.4a32.33,32.33,0,0,0,5.78,9.7,31.613,31.613,0,0,0,8.631,7.007A30.49,30.49,0,0,0,43.9,50.639Z" transform="translate(44.902 30.817)" fill="#0091ff"/>
                <path id="Path_44482" data-name="Path 44482" d="M86.755,6.387a50.5,50.5,0,0,1-.763,8.767,49.563,49.563,0,0,1-2.2,8.253,49.233,49.233,0,0,1-3.507,7.607A48.976,48.976,0,0,1,75.6,37.84a48.4,48.4,0,0,1-7.142,7.075,47.321,47.321,0,0,1-8.483,5.438,46.36,46.36,0,0,1-9.593,3.532,46.513,46.513,0,0,1-10.468,1.348v.077L0,55.881V55.83l6.2-8.563L0,38.863v-.345L35.514,38.2q.536.072,1.078.126t1.089.088q.547.035,1.1.05t1.108.01h.018q.553-.005,1.1-.03t1.093-.07q.544-.045,1.082-.108t1.068-.145A30.42,30.42,0,0,0,54.8,34.432a31.548,31.548,0,0,0,8.429-7.051,32.3,32.3,0,0,0,5.59-9.611,32.818,32.818,0,0,0,2.027-11.4h.009L78.821.226l7.921,6.162h.013Z" transform="translate(53.291 43.256)" fill="#66bdff"/>
                <path id="Path_44483" data-name="Path 44483" d="M59.494,8.8l-6.2,8.563v.051L0,18.18V.534L53.29.056V.4Z" transform="translate(0 81.719)" fill="#66bdff"/>
                <path id="Path_44484" data-name="Path 44484" d="M82.733,26.994V23.836a1.319,1.319,0,0,0-.095-.494,1.258,1.258,0,0,0-.259-.4A1.185,1.185,0,0,0,82,22.672a1.14,1.14,0,0,0-.47-.093L0,23.745v-.077A46.528,46.528,0,0,0,10.47,22.32a46.357,46.357,0,0,0,9.594-3.532,47.3,47.3,0,0,0,8.483-5.438,48.352,48.352,0,0,0,7.14-7.075l45.839-.411a1.157,1.157,0,0,0,.47-.1,1.224,1.224,0,0,0,.384-.277,1.3,1.3,0,0,0,.259-.407,1.336,1.336,0,0,0,.095-.5V1.429a1.324,1.324,0,0,1,.179-.674A1.261,1.261,0,0,1,83.366.3a1.172,1.172,0,0,1,.6-.161,1.145,1.145,0,0,1,.631.2l18.492,12.568a1.217,1.217,0,0,1,.407.469,1.327,1.327,0,0,1,.136.588,1.342,1.342,0,0,1-.136.591,1.248,1.248,0,0,1-.407.476l-18.492,13a1.168,1.168,0,0,1-.631.219,1.153,1.153,0,0,1-.6-.147,1.219,1.219,0,0,1-.454-.443,1.3,1.3,0,0,1-.179-.67Z" transform="translate(93.203 74.822)" fill="#0091ff"/>
              </g>
              <path id="Path_44485" data-name="Path 44485" d="M0,.02l0,0,0-.008L.014,0s0,0,0,0a.006.006,0,0,1,0,0,.009.009,0,0,1,0,0l-.006,0Z" transform="translate(189.672 33.783)" fill="#edad97"/>
              <g id="Group_3414" data-name="Group 3414" transform="translate(74.268 30.573)">
                <g id="Group_3413" data-name="Group 3413">
                  <path id="Rectangle_3462" data-name="Rectangle 3462" d="M3.485.024a3.4,3.4,0,0,1,1.355.29,3.512,3.512,0,0,1,1.105.774A3.621,3.621,0,0,1,6.69,2.23a3.667,3.667,0,0,1,.273,1.394V5.759A3.645,3.645,0,0,1,6.69,7.15a3.568,3.568,0,0,1-.745,1.134,3.46,3.46,0,0,1-1.105.762,3.405,3.405,0,0,1-2.71-.011,3.508,3.508,0,0,1-1.108-.772A3.617,3.617,0,0,1,.273,7.12,3.666,3.666,0,0,1,0,5.724V3.584A3.643,3.643,0,0,1,.273,2.19a3.565,3.565,0,0,1,.747-1.134A3.456,3.456,0,0,1,2.129.3,3.378,3.378,0,0,1,3.485.024Z" transform="translate(15.969)" fill="#0091ff"/>
                  <path id="Rectangle_3463" data-name="Rectangle 3463" d="M2.486,2.527a3.469,3.469,0,0,1,1.161-.784,3.44,3.44,0,0,1,2.639.014,3.511,3.511,0,0,1,1.158.795L8.922,4.075a3.606,3.606,0,0,1,.768,1.19,3.687,3.687,0,0,1,0,2.7,3.569,3.569,0,0,1-.768,1.184,3.469,3.469,0,0,1-1.157.785,3.436,3.436,0,0,1-2.636-.007,3.5,3.5,0,0,1-1.16-.793L2.486,7.611a3.609,3.609,0,0,1-.772-1.192,3.687,3.687,0,0,1,0-2.706A3.568,3.568,0,0,1,2.486,2.527Z" transform="translate(3.264 3.19)" fill="#0091ff"/>
                  <path id="Rectangle_3464" data-name="Rectangle 3464" d="M0,3.6A3.656,3.656,0,0,1,.277,2.2a3.605,3.605,0,0,1,.755-1.144A3.515,3.515,0,0,1,2.151.286,3.436,3.436,0,0,1,3.52.006l2.1,0A3.432,3.432,0,0,1,6.985.294,3.518,3.518,0,0,1,8.1,1.066a3.61,3.61,0,0,1,.751,1.143,3.686,3.686,0,0,1,0,2.8A3.6,3.6,0,0,1,8.1,6.147a3.511,3.511,0,0,1-1.115.77A3.429,3.429,0,0,1,5.619,7.2H3.52a3.438,3.438,0,0,1-1.369-.282,3.522,3.522,0,0,1-1.119-.771A3.612,3.612,0,0,1,.277,5,3.659,3.659,0,0,1,0,3.6Z" transform="translate(0 16.174)" fill="#0091ff"/>
                  <path id="Rectangle_3465" data-name="Rectangle 3465" d="M2.483,9.148a3.575,3.575,0,0,1-.772-1.187,3.687,3.687,0,0,1,0-2.706,3.6,3.6,0,0,1,.772-1.191L3.966,2.543a3.5,3.5,0,0,1,1.16-.791,3.436,3.436,0,0,1,2.636,0,3.475,3.475,0,0,1,1.157.787A3.576,3.576,0,0,1,9.688,3.72a3.687,3.687,0,0,1,0,2.7A3.6,3.6,0,0,1,8.92,7.609L7.442,9.13a3.5,3.5,0,0,1-1.159.793,3.442,3.442,0,0,1-3.8-.775Z" transform="translate(3.176 24.72)" fill="#0091ff"/>
                  <path id="Rectangle_3466" data-name="Rectangle 3466" d="M3.485,9.307a3.381,3.381,0,0,1-1.356-.274,3.463,3.463,0,0,1-1.108-.762A3.571,3.571,0,0,1,.273,7.136,3.646,3.646,0,0,1,0,5.743V3.6a3.663,3.663,0,0,1,.274-1.4,3.611,3.611,0,0,1,.748-1.141A3.5,3.5,0,0,1,2.129.294,3.406,3.406,0,0,1,4.839.287a3.466,3.466,0,0,1,1.105.764A3.575,3.575,0,0,1,6.69,2.185a3.648,3.648,0,0,1,.273,1.391V5.712A3.664,3.664,0,0,1,6.69,7.105a3.614,3.614,0,0,1-.745,1.141,3.506,3.506,0,0,1-1.105.773A3.4,3.4,0,0,1,3.485,9.307Z" transform="translate(15.846 30.364)" fill="#0091ff"/>
                  <path id="Rectangle_3467" data-name="Rectangle 3467" d="M8.806,9.064a3.455,3.455,0,0,1-1.143.788,3.372,3.372,0,0,1-2.6.01,3.427,3.427,0,0,1-1.145-.78l-1.463-1.5A3.556,3.556,0,0,1,1.691,6.4a3.685,3.685,0,0,1,0-2.689,3.58,3.58,0,0,1,.762-1.183A3.455,3.455,0,0,1,3.6,1.741a3.376,3.376,0,0,1,2.6,0,3.433,3.433,0,0,1,1.144.782l1.459,1.5A3.553,3.553,0,0,1,9.564,5.2a3.685,3.685,0,0,1,0,2.682A3.581,3.581,0,0,1,8.806,9.064Z" transform="translate(24.117 24.795)" fill="#0091ff"/>
                  <path id="Rectangle_3468" data-name="Rectangle 3468" d="M8.961,3.575a3.652,3.652,0,0,1-.27,1.385,3.574,3.574,0,0,1-.738,1.131,3.447,3.447,0,0,1-1.095.763,3.341,3.341,0,0,1-1.342.28H3.456a3.349,3.349,0,0,1-1.344-.28,3.457,3.457,0,0,1-1.1-.764A3.582,3.582,0,0,1,.272,4.958a3.684,3.684,0,0,1,0-2.778,3.576,3.576,0,0,1,.741-1.133,3.451,3.451,0,0,1,1.1-.763A3.347,3.347,0,0,1,3.456.007l2.061,0A3.344,3.344,0,0,1,6.858.292a3.453,3.453,0,0,1,1.095.765,3.58,3.58,0,0,1,.738,1.132A3.654,3.654,0,0,1,8.961,3.575Z" transform="translate(29.594 16.349)" fill="#0091ff"/>
                  <path id="Rectangle_3469" data-name="Rectangle 3469" d="M8.805,2.535a3.587,3.587,0,0,1,.758,1.183,3.685,3.685,0,0,1,0,2.682,3.547,3.547,0,0,1-.758,1.176l-1.459,1.5a3.426,3.426,0,0,1-1.144.78A3.376,3.376,0,0,1,3.6,9.85a3.461,3.461,0,0,1-1.146-.788A3.586,3.586,0,0,1,1.69,7.879a3.685,3.685,0,0,1,0-2.689,3.55,3.55,0,0,1,.762-1.178l1.463-1.5a3.42,3.42,0,0,1,1.145-.778,3.371,3.371,0,0,1,2.6.014A3.461,3.461,0,0,1,8.805,2.535Z" transform="translate(24.203 3.41)" fill="#0091ff"/>
                </g>
                <path id="Path_44486" data-name="Path 44486" d="M29.2,11.7q-.139-.585-.321-1.15t-.4-1.109Q28.259,8.892,28,8.371T27.44,7.351a15.263,15.263,0,0,0-2.167-2.819,15.124,15.124,0,0,0-1.307-1.193A14.945,14.945,0,0,0,22.53,2.309q-.478-.3-.979-.563t-1.024-.488Q20,1.033,19.461.848T18.358.52q-.418-.1-.844-.185T16.653.2q-.435-.056-.877-.086T14.883.08q-.45,0-.894.023t-.88.077q-.436.051-.864.128T11.4.484Q10.842.619,10.3.8t-1.063.4q-.522.218-1.023.475t-.981.55A14.9,14.9,0,0,0,5.777,3.238a15.114,15.114,0,0,0-2.51,2.525A15.216,15.216,0,0,0,2.244,7.241q-.3.49-.56,1T1.2,9.3q-.225.537-.41,1.1T.459,11.526q-.112.453-.2.916t-.144.936q-.058.472-.088.954T0,15.3q0,.44.024.874t.071.861q.047.427.117.847t.162.83q.13.59.305,1.161T1.07,21q.216.55.473,1.078t.55,1.032a15.337,15.337,0,0,0,2.149,2.865,15.048,15.048,0,0,0,1.3,1.215,14.741,14.741,0,0,0,1.436,1.049q.492.314,1.009.59t1.056.511q.539.235,1.1.427t1.139.338q.433.109.876.192t.894.139q.451.056.91.083t.924.026q.434,0,.861-.029t.848-.078q.421-.051.834-.126t.818-.171q.583-.143,1.147-.332t1.107-.42q.542-.231,1.062-.5t1.014-.586a14.829,14.829,0,0,0,1.435-1.032,15.055,15.055,0,0,0,1.3-1.2,15.266,15.266,0,0,0,1.16-1.344,15.439,15.439,0,0,0,1-1.479q.3-.506.561-1.037t.484-1.085q.222-.554.4-1.13t.317-1.171q.1-.42.17-.851t.123-.869q.05-.438.075-.885t.025-.9c0-.3-.009-.607-.027-.913s-.045-.613-.081-.918-.08-.609-.132-.909-.112-.6-.18-.885ZM18.8,15.314a4.126,4.126,0,0,1-.307,1.569,4.043,4.043,0,0,1-.839,1.282,3.918,3.918,0,0,1-1.246.865,3.849,3.849,0,0,1-3.06,0,3.925,3.925,0,0,1-1.249-.865,4.049,4.049,0,0,1-.842-1.284,4.159,4.159,0,0,1,0-3.146,4.047,4.047,0,0,1,.843-1.283,3.924,3.924,0,0,1,1.249-.863,3.84,3.84,0,0,1,3.056.005,3.931,3.931,0,0,1,1.246.866,4.054,4.054,0,0,1,.84,1.283A4.123,4.123,0,0,1,18.8,15.314Z" transform="translate(4.574 4.656)" fill="#66bdff"/>
                <path id="Path_44487" data-name="Path 44487" d="M24.975,9.529q-.1-.368-.227-.728t-.267-.709q-.143-.349-.3-.688t-.341-.665a13.061,13.061,0,0,0-2.121-2.869,12.817,12.817,0,0,0-1.325-1.18,12.6,12.6,0,0,0-1.477-.985q-.31-.18-.632-.341t-.653-.3Q17.3.92,16.953.8T16.262.57q-.413-.123-.838-.217T14.563.195q-.435-.065-.88-.1t-.9-.036q-.452,0-.9.028t-.881.09q-.436.061-.863.151T9.3.539q-.347.1-.685.218t-.668.257q-.33.138-.65.294t-.631.329a12.682,12.682,0,0,0-1.491.976A12.893,12.893,0,0,0,3.835,3.787,13.121,13.121,0,0,0,1.678,6.654Q1.5,6.971,1.34,7.3t-.3.669q-.143.34-.268.691t-.23.711q-.132.449-.232.91t-.169.933q-.068.472-.1.955T0,13.145q0,.443.028.878t.083.862q.055.427.137.844t.188.824q.1.371.214.733T.905,18q.137.352.294.693t.332.671a13.192,13.192,0,0,0,.95,1.54,13.059,13.059,0,0,0,1.142,1.384A12.875,12.875,0,0,0,4.937,23.5a12.646,12.646,0,0,0,1.469,1.011q.324.194.661.367t.685.326q.348.152.706.283t.725.239q.428.128.869.226t.892.164q.451.066.912.1t.93.031q.437,0,.866-.033t.85-.091q.421-.06.832-.148t.813-.2q.373-.107.737-.235t.715-.278q.352-.149.693-.319t.669-.359a12.7,12.7,0,0,0,1.472-.992A12.941,12.941,0,0,0,21.753,22.4a13.158,13.158,0,0,0,2.113-2.872q.183-.336.346-.684t.307-.707q.143-.359.266-.729t.225-.75q.113-.417.2-.846t.144-.868q.058-.439.087-.887t.029-.9c0-.3-.011-.611-.032-.918s-.053-.614-.094-.919-.093-.609-.155-.908-.133-.594-.214-.883Zm-8.269,3.622A4.126,4.126,0,0,1,16.4,14.72,4.043,4.043,0,0,1,15.561,16a3.918,3.918,0,0,1-1.246.865,3.848,3.848,0,0,1-3.06,0A3.924,3.924,0,0,1,10.006,16a4.05,4.05,0,0,1-.842-1.284,4.159,4.159,0,0,1,0-3.146,4.047,4.047,0,0,1,.843-1.283,3.923,3.923,0,0,1,1.249-.863,3.839,3.839,0,0,1,3.056.005,3.931,3.931,0,0,1,1.246.866,4.054,4.054,0,0,1,.84,1.283A4.123,4.123,0,0,1,16.707,13.151Z" transform="translate(6.666 6.819)" fill="#0091ff"/>
                <path id="Path_44488" data-name="Path 44488" d="M21.906,8.278q-.089-.307-.193-.608t-.224-.592q-.12-.292-.255-.576t-.285-.557A11.525,11.525,0,0,0,19.075,3.4,11.336,11.336,0,0,0,17.9,2.357a11.156,11.156,0,0,0-1.308-.873q-.276-.157-.561-.3T15.454.92q-.294-.124-.6-.232t-.614-.2q-.36-.107-.73-.189T12.765.164Q12.387.108,12,.078t-.78-.031q-.394,0-.78.025T9.676.151Q9.3.2,8.927.283T8.193.466q-.315.089-.624.2T6.961.894q-.3.125-.591.267t-.572.3a11.323,11.323,0,0,0-2.45,1.875,11.468,11.468,0,0,0-1.867,2.48h0q-.158.283-.3.576t-.27.6q-.127.3-.236.614t-.2.631q-.115.393-.2.8t-.148.819q-.06.415-.09.839T0,11.544q0,.391.026.777t.075.765q.05.379.123.75t.168.733q.082.313.181.618t.214.6q.115.3.246.587t.275.569a11.5,11.5,0,0,0,1.877,2.641,11.3,11.3,0,0,0,1.189,1.086,11.077,11.077,0,0,0,1.331.9q.263.153.533.291t.55.261q.279.123.566.23t.582.2q.39.122.792.215t.814.156q.412.063.833.094t.85.03q.4,0,.8-.032t.781-.088q.386-.058.764-.142t.746-.192q.291-.086.576-.188t.562-.22q.277-.118.547-.25t.53-.277a11.31,11.31,0,0,0,2.578-1.986,11.517,11.517,0,0,0,1.922-2.651q.142-.27.27-.548t.242-.565q.114-.286.213-.581t.183-.6q.107-.38.188-.769t.136-.787q.055-.4.082-.8t.028-.82c0-.276-.01-.554-.029-.832s-.049-.556-.087-.832-.087-.55-.144-.82-.124-.536-.2-.8Zm-10.686,7.31a3.822,3.822,0,0,1-1.529-.316,3.931,3.931,0,0,1-1.249-.865A4.054,4.054,0,0,1,7.6,13.122a4.155,4.155,0,0,1,0-3.146,4.047,4.047,0,0,1,.843-1.283A3.924,3.924,0,0,1,9.692,7.83a3.84,3.84,0,0,1,3.056.005,3.931,3.931,0,0,1,1.246.866,4.054,4.054,0,0,1,.84,1.283,4.159,4.159,0,0,1,0,3.139A4.043,4.043,0,0,1,14,14.4a3.918,3.918,0,0,1-1.246.865A3.826,3.826,0,0,1,11.221,15.587Z" transform="translate(8.23 8.421)" fill="#66bdff"/>
                <path id="Path_44489" data-name="Path 44489" d="M6.261.016a6.074,6.074,0,0,0-2.433.5A6.251,6.251,0,0,0,1.838,1.89,6.446,6.446,0,0,0,.494,3.933a6.6,6.6,0,0,0,0,5.008,6.458,6.458,0,0,0,1.344,2.045,6.262,6.262,0,0,0,1.99,1.377,6.106,6.106,0,0,0,4.862-.005,6.248,6.248,0,0,0,1.982-1.377,6.441,6.441,0,0,0,1.335-2.039,6.618,6.618,0,0,0,0-4.994,6.448,6.448,0,0,0-1.334-2.041A6.253,6.253,0,0,0,8.692.527,6.09,6.09,0,0,0,6.261.016Zm0,10.46a3.822,3.822,0,0,1-1.529-.316,3.931,3.931,0,0,1-1.249-.865A4.054,4.054,0,0,1,2.64,8.011a4.155,4.155,0,0,1,0-3.146,4.047,4.047,0,0,1,.843-1.283,3.924,3.924,0,0,1,1.249-.863,3.84,3.84,0,0,1,3.056.005,3.931,3.931,0,0,1,1.246.866,4.055,4.055,0,0,1,.84,1.283,4.159,4.159,0,0,1,0,3.138,4.043,4.043,0,0,1-.839,1.282,3.918,3.918,0,0,1-1.246.865A3.826,3.826,0,0,1,6.261,10.476Z" transform="translate(13.191 13.527)" fill="#0091ff"/>
              </g>
              <path id="SPRINT_BACKLOG" data-name="SPRINT BACKLOG" d="M1.613,5.7q-.433.005-.83-.106T.144,5.3l.284-.632q.232.162.549.264t.641.1q.247,0,.4-.054t.224-.139q.072-.088.072-.2,0-.144-.113-.228t-.3-.136q-.185-.052-.409-.1t-.448-.116q-.224-.07-.41-.181t-.3-.3Q.216,3.4.216,3.109q0-.309.168-.566T.889,2.13q.338-.156.848-.161.34,0,.669.072t.582.233l-.257.636q-.252-.141-.5-.208t-.494-.064q-.242,0-.4.061t-.222.149q-.067.091-.067.209,0,.139.113.223t.3.133q.185.049.409.1t.448.113q.224.064.409.176t.3.3q.116.184.116.467,0,.3-.17.558t-.507.413Q2.128,5.694,1.613,5.7Zm2.1-.087v-3.6l1.558-.017q.483-.005.832.148t.539.444q.19.291.19.7t-.19.7q-.19.3-.539.456T5.271,4.6l-1.1.013.37-.38V5.6Zm.833-1.287-.37-.392,1.049-.012q.385,0,.576-.171t.19-.46q0-.3-.19-.461t-.576-.158l-1.049.012.37-.4ZM7.424,5.568v-3.6l1.555-.017q.482-.005.831.148t.538.444q.19.291.19.7t-.19.693q-.19.293-.538.451t-.831.164L7.885,4.56l.369-.369V5.558ZM9.706,5.54l-.9-1.295.887-.01L10.6,5.53ZM8.255,4.283,7.885,3.9l1.047-.012q.385,0,.574-.174t.19-.462q0-.3-.19-.46T8.932,2.63l-1.047.012.369-.4Zm2.937,1.24v-3.6l.829-.009v3.6Zm1.679-.02V1.908l.685-.008,2.111,2.562-.332,0V1.881l.817-.009V5.463l-.679.008L13.357,2.909l.332,0V5.492Zm4.868-.059V2.531L16.6,2.544V1.867l3.111-.034v.676l-1.142.013V5.433ZM21.591,5.4V1.812l1.74-.019q.671-.007,1.009.245t.338.672q0,.281-.137.49t-.376.324q-.239.115-.549.119l.1-.211q.335,0,.595.1t.4.32q.145.213.145.525,0,.46-.361.723a1.11,1.11,0,0,1-.2.115,1.521,1.521,0,0,1-.244.084,2.186,2.186,0,0,1-.287.052,3.172,3.172,0,0,1-.329.02Zm.819-.635.961-.011q.32,0,.485-.111t.165-.337q0-.225-.165-.333t-.485-.1l-1.022.012v-.6l.88-.01q.3,0,.46-.11t.16-.322q0-.21-.16-.313t-.46-.1l-.819.009Zm2.6.593,1.584-3.6.812-.009,1.586,3.559-.861.01-1.3-3.144.325,0-1.3,3.175Zm.792-.777.218-.632,1.826-.021.223.626Zm5.2.765q-.41,0-.762-.126t-.61-.378q-.258-.247-.4-.583t-.144-.739q0-.4.144-.742t.405-.592q.261-.253.61-.392t.764-.144q.46-.005.832.152t.624.465l-.526.5q-.182-.207-.4-.309t-.486-.1q-.248,0-.455.087t-.359.239q-.152.155-.235.365t-.084.466q0,.255.084.464t.235.36q.152.151.359.231t.455.076q.263,0,.486-.11t.4-.324l.526.484q-.253.314-.624.482T31.009,5.344Zm2.745-.911-.045-.954L35.4,1.66l.908-.01L34.785,3.325l-.454.495Zm-.733.825V1.686l.813-.009V5.249Zm2.419-.029L34.184,3.689l.535-.593,1.675,2.122Zm1.317-.016V1.645l.817-.009V4.531l1.768-.021v.672Zm4.642,0q-.417.005-.772-.128t-.614-.38q-.259-.246-.4-.581T39.468,3.4q0-.4.143-.735t.405-.59q.262-.252.614-.394t.764-.146q.417,0,.767.129t.608.38q.259.246.4.578t.146.733q0,.4-.146.737t-.4.59q-.259.25-.608.391T41.4,5.218Zm-.005-.7q.236,0,.435-.087t.349-.238q.151-.154.234-.364t.083-.464q0-.254-.083-.462t-.231-.359q-.148-.151-.349-.23t-.437-.077q-.236,0-.435.086t-.35.238q-.151.154-.234.364t-.083.464q0,.249.083.46t.231.361q.148.151.35.23T41.395,4.516Zm4.233.651q-.416.005-.765-.125t-.607-.377q-.259-.246-.4-.58t-.143-.736q0-.4.143-.739t.4-.589q.261-.252.612-.391t.772-.143q.466-.005.84.148t.629.45l-.521.494q-.19-.2-.416-.3t-.491-.094q-.256,0-.466.087t-.364.238q-.153.154-.236.364t-.083.464q0,.249.083.457t.236.361q.153.153.361.232t.459.076q.241,0,.469-.084t.444-.272l.461.589q-.286.222-.664.343T45.628,5.167ZM46.3,4.6V3.263l.742-.009V4.7Z" transform="translate(2.23 86.907)" fill="#fff"/>
              <path id="PLANNING" d="M.41,5.342V1.809l1.5-.016q.464-.005.8.145t.518.435q.183.285.183.684t-.183.683q-.183.29-.518.447t-.8.163L.855,4.363,1.21,3.99V5.332Zm.8-1.261L.855,3.7l1.008-.012q.37,0,.553-.168T2.6,3.066q0-.292-.183-.452t-.553-.155L.855,2.471l.356-.392ZM3.925,5.3V1.771l.8-.009V4.624L6.452,4.6v.665Zm2.542-.031L8,1.726l.787-.009,1.538,3.5-.835.01-1.258-3.1.315,0L7.284,5.259ZM7.235,4.5l.212-.622,1.77-.021.216.616Zm3.451.714V1.7l.658-.007L13.369,4.2l-.319,0V1.67l.784-.009V5.18l-.652.008-2.031-2.51.319,0V5.208Zm3.963-.048V1.653l.656-.007,2.021,2.508-.318,0V1.627l.782-.009V5.132l-.65.008L15.113,2.632l.318,0V5.16ZM18.6,5.122V1.609l.791-.009V5.112ZM20.2,5.1V1.592l.654-.007,2.014,2.5-.317,0V1.566l.78-.009V5.065l-.648.008-2.019-2.5.317,0V5.093ZM25.787,5.1q-.4,0-.742-.124T24.456,4.6q-.251-.242-.39-.571T23.928,3.3q0-.4.139-.728T24.459,2q.253-.248.594-.385T25.8,1.47q.452,0,.815.146t.61.444l-.506.486q-.185-.2-.4-.293t-.477-.092q-.248,0-.452.085t-.353.234q-.148.152-.229.358t-.08.457q0,.245.08.45t.229.355q.148.151.35.229t.445.075q.233,0,.455-.083t.43-.268l.447.58q-.277.219-.644.338T25.787,5.1Zm.657-.559V3.22l.719-.008V4.633Z" transform="translate(71.35 86.382)" fill="#fff"/>
              <path id="DEFINITION_OF_DONE" data-name="DEFINITION OF DONE" d="M.4,5.515V2.046l1.515-.017q.543-.006.957.2t.647.594q.233.384.233.913t-.233.916q-.233.392-.647.612T1.911,5.5Zm.772-.668.705-.008q.333,0,.579-.138t.381-.378q.136-.244.136-.571t-.136-.57q-.136-.239-.381-.367t-.579-.125L1.168,2.7ZM5.037,3.39l1.6-.018V4l-1.6.019Zm.057,1.425L6.9,4.794v.643l-2.576.031V2l2.514-.028v.643l-1.748.02Zm3.134-1.3L9.822,3.5v.642L8.229,4.16Zm.057,1.9-.769.009V1.967l2.509-.028v.642L8.286,2.6Zm2.261-.027V1.934l.767-.008V5.383ZM12.1,5.374V1.917l.634-.007,1.953,2.465-.307,0V1.892l.756-.008V5.337l-.628.008L12.55,2.88l.308,0V5.365Zm3.819-.046V1.875l.765-.008V5.318ZM18.151,5.3V2.5l-1.056.012V1.862L19.97,1.83v.65l-1.055.012v2.8Zm2.229-.027V1.826l.763-.008V5.264Zm3.142.021q-.39,0-.721-.124T22.227,4.8q-.242-.238-.376-.562t-.134-.707q0-.384.134-.71t.379-.57q.245-.244.574-.38t.714-.141q.39,0,.716.125t.568.368q.242.238.378.559t.136.709q0,.384-.136.712t-.378.57q-.242.241-.568.378T23.522,5.295Zm0-.679q.221,0,.406-.084t.326-.23q.141-.149.218-.352t.077-.449q0-.246-.077-.447t-.216-.347q-.139-.146-.326-.223t-.409-.074q-.221,0-.406.083t-.327.23q-.141.149-.219.352t-.078.449q0,.241.078.445t.216.349q.139.146.327.223T23.517,4.616Zm2.371.591V1.765l.629-.007,1.936,2.455-.3,0V1.74l.749-.008V5.171l-.623.008L26.334,2.724l.3,0V5.2Zm6.7-.022q-.388,0-.717-.124t-.57-.366q-.241-.238-.374-.56t-.133-.705q0-.383.133-.708t.376-.569q.243-.243.57-.379t.71-.14q.388,0,.712.125t.565.367q.24.238.376.557t.135.707q0,.382-.135.71t-.376.568q-.24.241-.565.377T32.588,5.185Zm0-.677q.22,0,.4-.083t.325-.23q.14-.149.217-.351t.077-.447q0-.245-.077-.445t-.215-.346q-.138-.146-.325-.222t-.406-.074q-.22,0-.4.083t-.325.229q-.14.149-.217.351t-.077.448q0,.24.077.443t.215.348q.138.146.325.222T32.583,4.508ZM35.64,3.2l1.566-.018v.637l-1.566.018ZM35.7,5.088,34.94,5.1V1.666l2.466-.027v.637l-1.71.019Zm3.54-.043V1.618L40.714,1.6q.53-.006.934.2t.632.587q.228.379.228.9T42.28,4.2q-.228.387-.632.6t-.934.224Zm.753-.66.688-.008q.325,0,.565-.136t.372-.374q.132-.241.132-.564t-.132-.564q-.132-.236-.372-.363t-.565-.123l-.688.008Zm4.662.653q-.385,0-.712-.123t-.566-.365q-.239-.237-.371-.558t-.132-.7q0-.381.132-.706t.374-.567q.241-.242.566-.378t.7-.14q.385,0,.707.124t.561.365q.239.237.373.555t.134.7q0,.381-.134.707t-.373.566q-.239.24-.561.376T44.651,5.039Zm0-.674q.218,0,.4-.083t.322-.229q.139-.148.215-.349t.076-.446q0-.244-.076-.444t-.213-.345q-.137-.145-.322-.221t-.4-.074q-.218,0-.4.083t-.322.229q-.139.148-.216.35t-.077.446q0,.24.077.442t.213.347q.137.145.322.221T44.646,4.364Zm2.339.588V1.533l.62-.007,1.91,2.439-.3,0V1.508l.739-.008V4.916l-.615.007L47.425,2.485l.3,0V4.943ZM51.409,2.86l1.555-.018v.614l-1.555.018Zm.055,1.4,1.758-.021v.634l-2.5.03V1.492l2.441-.027V2.1l-1.7.019Z" transform="translate(128.828 85.514)" fill="#fff"/>
              <path id="I" d="M.355,4.015l.09-2.8.629.03-.09,2.8Z" transform="translate(98.254 7.648)" fill="#fff"/>
              <path id="M" d="M.454,4.006.83,1.237l.515.081.88,2.133-.273-.043L3.343,1.632l.511.08L3.486,4.481,2.9,4.389l.247-1.847.108.017L2.147,3.972l-.281-.044-.708-1.7.131.021L1.038,4.1Z" transform="translate(99.75 7.69)" fill="#fff"/>
              <path id="P" d="M.57,3.928,1.3,1.243l1.13.339q.35.105.572.3t.3.453q.079.26,0,.563t-.278.476q-.2.177-.482.218T1.9,3.527l-.794-.238.344-.2-.276,1.02Zm.862-.77-.189-.376L2,3.01q.28.084.451,0t.23-.3q.06-.222-.045-.386t-.384-.248L1.5,1.85l.348-.215Z" transform="translate(104.188 8.564)" fill="#fff"/>
              <path id="L" d="M.727,4.776,1.964,1.541l.728.3-1,2.624,1.577.659-.233.61Z" transform="translate(107.072 9.718)" fill="#fff"/>
              <path id="E" d="M2.358,3.1,3.8,3.89l-.278.555L2.08,3.659ZM1.774,4.4l1.633.887-.287.573L.8,4.6,2.342,1.514,4.607,2.748l-.286.572L2.745,2.463Z" transform="translate(109.6 11.012)" fill="#fff"/>
              <path id="M-2" data-name="M" d="M.81,3.444l1.53-2.278.424.308L2.63,3.766,2.4,3.6,4.411,2.67l.421.305L3.31,5.256l-.481-.349L3.845,3.386l.089.064-1.6.741L2.1,4.024l.1-1.828.108.078L1.292,3.793Z" transform="translate(112.824 12.807)" fill="#fff"/>
              <path id="E-2" data-name="E" d="M2.807,2.917,4.014,4.044l-.4.463L2.4,3.38Zm-.877,1.1L3.3,5.291,2.88,5.77.937,3.956,3.174,1.381,5.068,3.151l-.415.478L3.335,2.4Z" transform="translate(115.818 15.876)" fill="#fff"/>
              <path id="N" d="M.978,3.63,3.451,1.3l.434.5L3.443,5l-.211-.24L5.012,3.083l.518.591L3.059,6,2.628,5.51l.439-3.205.211.24L1.5,4.222Z" transform="translate(118.08 18.389)" fill="#fff"/>
              <path id="T" d="M1.426,3.874,3.592,2.189,2.944,1.3l.5-.391L5.21,3.334l-.5.392L4.06,2.834,1.895,4.52Z" transform="translate(120.553 21.65)" fill="#fff"/>
              <path id="A" d="M1.3,2.886l2.9-.393.323.542L2.887,5.545,2.544,4.97,4.032,2.822l.129.217-2.525.41Zm.8.218.486-.109.727,1.219-.31.4Z" transform="translate(122.457 23.399)" fill="#fff"/>
              <path id="T-2" data-name="T" d="M1.342,3.184,3.774,1.952,3.3.953,3.865.667,5.155,3.387l-.564.286-.473-1L1.685,3.907Z" transform="translate(123.887 27.658)" fill="#fff"/>
              <path id="I-2" data-name="I" d="M1.005,1.773,3.481.745l.232.6L1.238,2.37Z" transform="translate(125.996 30.68)" fill="#fff"/>
              <path id="O" d="M1.438,3.42q-.113-.4-.086-.768t.181-.687q.154-.313.417-.541t.62-.336q.357-.108.7-.065t.635.223q.295.179.513.475t.33.685q.113.395.084.763t-.182.681q-.154.313-.413.542t-.621.339q-.356.109-.7.064t-.636-.223q-.292-.177-.51-.47T1.438,3.42Zm.63-.2q.064.224.191.389t.305.267q.178.1.388.122t.438-.048q.228-.07.393-.205t.262-.318q.1-.182.115-.395T4.116,2.6q-.064-.224-.191-.389t-.3-.267q-.178-.1-.388-.122t-.438.048q-.224.068-.391.2t-.264.318q-.1.182-.116.395T2.068,3.223Z" transform="translate(125.691 32.524)" fill="#fff"/>
              <path id="N-2" data-name="N" d="M1,1.1l3.3-.483.092.657L2.3,3.646l-.044-.319,2.377-.349.109.785-3.3.486L1.351,3.6,3.446,1.214l.044.319-2.378.348Z" transform="translate(126.781 37.088)" fill="#fff"/>
              <path id="R" d="M3.533,4.473,1.184,2.929,1.833,1.9q.2-.319.449-.483T2.8,1.253q.27,0,.535.175t.372.422q.11.25.065.547t-.246.616l-.456.724-.084-.4.892.587Zm.952-1.511L3.259,3l.37-.588,1.23-.041Zm-1.437.414-.409.077.437-.693q.161-.255.131-.452t-.221-.323q-.195-.128-.381-.073t-.347.31l-.437.693-.1-.415Z" transform="translate(57.951 23.104)" fill="#fff"/>
              <path id="E-3" data-name="E" d="M2.991,4.084,4.025,2.753l.492.4L3.483,4.482Zm1.162.862L5.32,3.442l.507.41L4.167,5.993,1.431,3.782,3.055,1.692l.508.411L2.434,3.557Z" transform="translate(60.131 19.081)" fill="#fff"/>
              <path id="V" d="M4.351,4.878,1.522,3.753l.485-.5L4.5,4.257l-.285.3L3.194,2.017l.445-.462L4.793,4.418Z" transform="translate(61.719 16.433)" fill="#fff"/>
              <path id="I-3" data-name="I" d="M2.787,4.2,1.013,2.005l.494-.413L3.281,3.786Z" transform="translate(65.275 15.168)" fill="#fff"/>
              <path id="E-4" data-name="E" d="M2.576,4.037l1.376-.945.352.529-1.376.945ZM3.43,5.212,4.985,4.143l.363.545L3.135,6.21,1.179,3.27,3.341,1.787l.363.546L2.2,3.364Z" transform="translate(66.789 12.908)" fill="#fff"/>
              <path id="W" d="M2.6,5.356.59,3.181l.6-.285L2.956,4.829l-.3.143L2.342,2.348l.535-.254,1.768,1.93-.288.138L4.027,1.546l.552-.263.376,2.95-.62.3L2.779,2.838l.164-.078.278,2.3Z" transform="translate(69.977 10.797)" fill="#fff"/>
              <g id="Line_198" data-name="Line 198" transform="translate(48.049 30.498)" fill="none" stroke-miterlimit="10">
                <path d="M.463.342.422.278" stroke="none"/>
                <path d="M 0.04112410545349121 0.6143747568130493 L 0.0002483543066773564 0.5496510863304138 L 0.8436102867126465 0.005598870571702719 L 0.8844649195671082 0.07031267881393433 L 0.04112410545349121 0.6143747568130493 Z" stroke="none" fill="#000"/>
              </g>
              <path id="R-2" data-name="R" d="M1.162.4l2.791.18L3.879,1.807q-.023.381-.161.648t-.374.4q-.236.135-.551.115t-.527-.184q-.216-.164-.319-.447t-.08-.664L1.918.815l.266.31L1.123,1.057ZM1.053,2.2,2.11,1.56l-.042.7-1.057.652ZM2.112,1.121,2.433.849l-.05.826q-.018.3.1.462t.348.173q.231.015.368-.127t.155-.445l.05-.826.289.311Z" transform="translate(52.395 44.605)" fill="#fff"/>
              <path id="E-5" data-name="E" d="M3.1,1.216l.024,1.71L2.5,2.934l-.024-1.71ZM1.666,1.3,1.693,3.23l-.65.009L1,.488,4.5.441l.038,2.682-.649.009L3.864,1.266Z" transform="translate(51.359 48.379)" fill="#fff"/>
              <path id="T-3" data-name="T" d="M1.095,1.59l2.827-.249L3.825.209,4.482.151l.263,3.082-.656.058-.1-1.132-2.827.25Z" transform="translate(51.42 51.523)" fill="#fff"/>
              <path id="R-3" data-name="R" d="M1.042,1.013,3.8.536,4,1.747q.063.376-.012.668t-.274.48q-.2.187-.51.241T2.65,3.08Q2.4,2.971,2.239,2.72t-.226-.627L1.87,1.24l.328.24L1.15,1.661Zm.3,1.781.884-.874.116.692-.882.882Zm.788-1.3.251-.34.136.816q.05.3.2.426t.377.087q.228-.04.33-.209t.051-.47L3.339.986l.351.235Z" transform="translate(52.688 54.37)" fill="#fff"/>
              <path id="O-2" data-name="O" d="M1.477,3.458q-.112-.405-.077-.787t.2-.7q.166-.319.445-.549T2.7,1.084q.375-.107.731-.059t.661.234q.305.186.529.491t.334.7q.112.4.075.781t-.2.7q-.166.319-.442.551t-.655.341Q3.357,4.93,3,4.881t-.661-.234q-.3-.184-.526-.486T1.477,3.458Zm.662-.2q.063.229.193.4t.315.276q.185.1.4.129t.46-.045q.24-.069.415-.206t.279-.322q.1-.185.127-.4t-.04-.447q-.063-.229-.193-.4t-.315-.276q-.185-.105-.4-.129t-.46.045q-.236.068-.413.205t-.282.323q-.1.185-.128.4T2.14,3.263Z" transform="translate(52.363 57.704)" fill="#fff"/>
              <path id="S" d="M1.418,3.273q-.145-.4-.172-.805t.06-.693l.666.046q-.072.27-.062.6t.118.628q.083.228.178.352t.2.16q.1.036.207,0,.131-.05.17-.183t.027-.323q-.013-.19-.043-.413t-.04-.455q-.009-.231.032-.441t.171-.38q.13-.17.392-.269Q3.6.986,3.89,1.053t.538.326q.251.259.421.729.113.313.151.645t-.023.619l-.661-.02q.047-.282.026-.539t-.1-.48q-.081-.223-.184-.346t-.207-.154q-.1-.031-.212.01-.126.048-.166.181t-.024.322q.015.189.043.413t.042.454q.014.23-.027.44t-.171.38Q3.2,4.2,2.946,4.3q-.276.1-.563.034t-.54-.328Q1.591,3.749,1.418,3.273Z" transform="translate(53.602 61.542)" fill="#fff"/>
              <path id="P-2" data-name="P" d="M1.047,1.955,3.6.8l.486,1.122q.151.348.149.65t-.15.533q-.148.231-.436.361T3.1,3.553Q2.83,3.51,2.61,3.309t-.372-.55L1.9,1.97l.382.146-.971.439Zm1.166.191.165-.394.328.755q.12.278.3.362t.384-.01q.211-.1.269-.285t-.063-.467l-.327-.755.4.14Z" transform="translate(55.662 64.367)" fill="#fff"/>
              <path id="E-6" data-name="E" d="M3.267,2.4l.766,1.514-.558.295L2.709,2.7Zm-1.249.727.867,1.712-.576.3L1.075,2.709l3.1-1.636,1.2,2.376-.575.3L3.967,2.1Z" transform="translate(56.268 67.507)" fill="#fff"/>
              <path id="C" d="M1.663,3.557q-.164-.282-.214-.578T1.464,2.4q.065-.279.233-.516t.439-.4q.271-.164.555-.2t.556.039q.272.077.5.262t.4.469q.184.316.225.637T4.3,3.312l-.539-.161q.068-.21.049-.406t-.124-.376q-.1-.17-.237-.279t-.3-.151q-.163-.042-.337-.014t-.345.132q-.171.1-.278.247t-.149.309q-.042.167-.014.342t.127.346q.105.181.264.291t.376.148L2.676,4.3q-.31-.047-.569-.235T1.663,3.557Z" transform="translate(58.717 70.333)" fill="#fff"/>
              <path id="T-4" data-name="T" d="M1.457,3.805,3.8,2.184l-.621-.936L3.723.871,5.413,3.42,4.869,3.8l-.621-.936L1.907,4.482Z" transform="translate(59.777 73.294)" fill="#fff"/>
            </g>
          </g>
          <g id="freepik--Character--inject-63" transform="translate(229.269 105.517)">
            <path id="Path_44432" data-name="Path 44432" d="M371.022,167.28c.8.8,1.4,1.515,2.065,2.3s1.3,1.539,1.922,2.329c1.26,1.595,2.456,3.19,3.6,4.864a55.389,55.389,0,0,1,3.19,5.207,45.23,45.23,0,0,1,2.7,5.67l.3.742.072.183.1.279.175.542c.088.351.167.686.239,1.021s.112.638.152.949a23.046,23.046,0,0,1,.12,3.429,45.777,45.777,0,0,1-.694,6.172,74.293,74.293,0,0,1-3.07,11.547l-4.195-.973c.311-3.748.6-7.576.7-11.26a51.539,51.539,0,0,0-.088-5.359,15.5,15.5,0,0,0-.343-2.329l-.12-.471-.152-.343-.455-.917a62.886,62.886,0,0,0-5.7-9.075c-1.085-1.475-2.225-2.919-3.373-4.354-.574-.726-1.164-1.435-1.754-2.137l-1.754-2.033Z" transform="translate(-303.129 -128.259)" fill="#b65b52"/>
            <path id="Path_44433" data-name="Path 44433" d="M380.9,220.81l-2.9,3.118,5.678,3.349s1.962-2.608,1.2-5.279Z" transform="translate(-305.833 -139.102)" fill="#b55b52"/>
            <path id="Path_44434" data-name="Path 44434" d="M373.26,229.329l5.526,1.938,3.923-3.2-5.678-3.349Z" transform="translate(-304.873 -139.894)" fill="#b55b52"/>
            <path id="Path_44435" data-name="Path 44435" d="M383.949,235.224l-36.5-7.974a272.871,272.871,0,0,1,7.974-36.5l36.507,7.974a331.3,331.3,0,0,0-7.982,36.5Z" transform="translate(-299.646 -133.013)" fill="#0091ff"/>
            <rect id="Rectangle_3453" data-name="Rectangle 3453" width="37.36" height="37.36" transform="translate(54.251 56.804) rotate(16.58)" fill="#fff"/>
            <path id="Path_44436" data-name="Path 44436" d="M346.422,137.063c0,.463-.287.8-.59.8s-.526-.391-.5-.853.287-.8.59-.8S346.446,136.6,346.422,137.063Z" transform="translate(-299.216 -121.966)" fill="#263238"/>
            <path id="Path_44437" data-name="Path 44437" d="M345.782,138.32a16.746,16.746,0,0,1-2.392,3.868,2.64,2.64,0,0,0,2.185.5Z" transform="translate(-298.823 -122.393)" fill="#a02724"/>
            <path id="Path_44438" data-name="Path 44438" d="M348.387,133.872a.287.287,0,0,0,.167-.1.271.271,0,0,0,0-.383,2.687,2.687,0,0,0-2.392-.518.272.272,0,1,0,.167.518h0a2.113,2.113,0,0,1,1.906.431.3.3,0,0,0,.151.056Z" transform="translate(-299.346 -121.271)" fill="#263238"/>
            <path id="Path_44439" data-name="Path 44439" d="M360.847,145.6c-.877,4.2-1.443,10.016,1.451,12.815,0,0-1.2,4.258-9,4.258-8.573,0-4.075-3.732-4.075-3.732,3.581-1.108,3.6-5.167,2.831-8.429Z" transform="translate(-299.765 -123.868)" fill="#b55b52"/>
            <path id="Path_44440" data-name="Path 44440" d="M340.878,408.908c-.734,0-1.443-.1-1.683-.431a.518.518,0,0,1,0-.6.67.67,0,0,1,.431-.319c.957-.255,2.951.885,3.03.933a.136.136,0,0,1,.072.144.16.16,0,0,1-.112.112,10.249,10.249,0,0,1-1.738.159Zm-.893-1.116a1.251,1.251,0,0,0-.263,0,.439.439,0,0,0-.271.191c-.1.167-.064.255,0,.3.263.367,1.715.375,2.783.223A6.084,6.084,0,0,0,339.985,407.792Z" transform="translate(-297.954 -176.921)" fill="#0091ff"/>
            <path id="Path_44441" data-name="Path 44441" d="M343,408.4h-.056c-.694-.311-2.049-1.555-1.938-2.2,0-.152.144-.343.51-.383a.981.981,0,0,1,.8.231,3.879,3.879,0,0,1,.861,2.209.191.191,0,0,1-.056.128.152.152,0,0,1-.12.016Zm-1.372-2.329h-.088c-.239,0-.255.12-.263.152-.072.391.853,1.364,1.555,1.786a3.19,3.19,0,0,0-.734-1.762.726.726,0,0,0-.471-.175Z" transform="translate(-298.339 -176.573)" fill="#0091ff"/>
            <path id="Path_44442" data-name="Path 44442" d="M350.16,405.516h-5.742l-.4-13.286h5.742Z" transform="translate(-298.951 -173.823)" fill="#b55b52"/>
            <path id="Path_44443" data-name="Path 44443" d="M340.943,408.06h6.268a.5.5,0,0,1,.486.391l1.069,5.1a.845.845,0,0,1-.845,1.021c-2.257,0-5.518-.167-8.365-.167-3.317,0-5.415.183-9.314.183-2.352,0-2.974-2.392-1.986-2.6,4.5-.981,7.392-1.085,11.3-3.477a2.647,2.647,0,0,1,1.388-.447Z" transform="translate(-295.666 -177.03)" fill="#263238"/>
            <path id="Path_44444" data-name="Path 44444" d="M367.367,162.53c5.5.064,13.2,14.019,13.2,14.019l-8.533,8.684a20.414,20.414,0,0,1-8.692-8.955C360.087,169.643,361.745,162.474,367.367,162.53Z" transform="translate(-302.529 -127.297)" fill="#0091ff"/>
            <path id="Path_44445" data-name="Path 44445" d="M367.367,162.53c5.5.064,13.2,14.019,13.2,14.019l-8.533,8.684a20.414,20.414,0,0,1-8.692-8.955C360.087,169.643,361.745,162.474,367.367,162.53Z" transform="translate(-302.529 -127.297)" opacity="0.3"/>
            <path id="Path_44446" data-name="Path 44446" d="M335.785,168.678c-1.252,6.2-2.153,18.931.933,44.139H367.4c.239-4.083-1.738-21.906.885-41.045a8.939,8.939,0,0,0-8.365-10.12h-.343a114.745,114.745,0,0,0-13.046,0c-1.435.136-2.855.343-4.115.566a8.238,8.238,0,0,0-6.635,6.459Z" transform="translate(-297.048 -127.082)" fill="#0091ff"/>
            <path id="Path_44447" data-name="Path 44447" d="M335.785,168.678c-1.252,6.2-2.153,18.931.933,44.139H367.4c.239-4.083-1.738-21.906.885-41.045a8.939,8.939,0,0,0-8.365-10.12h-.343a114.745,114.745,0,0,0-13.046,0c-1.435.136-2.855.343-4.115.566a8.238,8.238,0,0,0-6.635,6.459Z" transform="translate(-297.048 -127.082)" opacity="0.2"/>
            <path id="Path_44448" data-name="Path 44448" d="M342.854,185.807,338.724,183c-3.987,1.3-4.195,5.175-3.987,10.774C338.165,192.912,342.113,189.659,342.854,185.807Z" transform="translate(-297.059 -131.443)" opacity="0.2"/>
            <path id="Path_44449" data-name="Path 44449" d="M344.02,392.23l.207,6.85h5.742l-.207-6.85Z" transform="translate(-298.951 -173.823)" opacity="0.2"/>
            <path id="Path_44450" data-name="Path 44450" d="M361.9,134.64c-.654,5.662-.75,9.011-3.772,11.81-4.545,4.2-11.411,1.324-12.464-4.4-.949-5.152.279-13.557,5.957-15.59A7.671,7.671,0,0,1,361.9,134.64Z" transform="translate(-299.225 -119.893)" fill="#b55b52"/>
            <path id="Path_44451" data-name="Path 44451" d="M349.5,135.519c-1.762.4-2.56-3.756-.8-5.351-1.595-.8-3.9-1.954-4.665-3.692-.885-1.994,1.507-4.386,3.573-4.282-.67-1.332.8-4.888,5.008-3.549a15.5,15.5,0,0,1,6.188,3.413s1.388-4.609,4.314-.885c2.592,3.3,1.595,6.132,1.595,6.132s3.86,3.66,2.863,6.38a6.643,6.643,0,0,1-3.19,3.692s.582,6.38-4.107,7.974-7.648-1.595-7.249-3.461C350.007,141.994,346.913,138.007,349.5,135.519Z" transform="translate(-298.917 -118.348)" fill="#263238"/>
            <path id="Path_44452" data-name="Path 44452" d="M352.335,138.716a6.587,6.587,0,0,1-1.882,3.7c-1.348,1.3-2.592.367-2.7-1.316-.1-1.515.494-3.987,2.073-4.689S352.55,137.025,352.335,138.716Z" transform="translate(-299.706 -121.968)" fill="#b55b52"/>
            <path id="Path_44453" data-name="Path 44453" d="M410.215,396.476l-5.1,1.834-5.072-13.134,5.1-1.826Z" transform="translate(-310.298 -172.025)" fill="#b55b52"/>
            <path id="Path_44454" data-name="Path 44454" d="M403.064,402.785a2.36,2.36,0,0,1-1.595.7.518.518,0,0,1-.351-.478.694.694,0,0,1,.143-.518c.6-.8,2.863-1.132,2.959-1.14a.144.144,0,0,1,.144.064.159.159,0,0,1,0,.16,10.587,10.587,0,0,1-1.3,1.212Zm-1.388-.319a.725.725,0,0,0-.191.191.431.431,0,0,0-.088.311c0,.191.1.239.16.255.431.128,1.595-.758,2.329-1.539a6.021,6.021,0,0,0-2.209.781Z" transform="translate(-310.515 -175.67)" fill="#0091ff"/>
            <path id="Path_44455" data-name="Path 44455" d="M404.394,401.287a.072.072,0,0,1-.048,0c-.734.183-2.568.048-2.879-.534-.072-.136-.1-.351.167-.614a.989.989,0,0,1,.734-.279c.933,0,1.994,1.156,2.041,1.2a.128.128,0,0,1,0,.128A.12.12,0,0,1,404.394,401.287Zm-2.512-.981a.214.214,0,0,0-.064.056c-.175.167-.128.255-.112.287.183.343,1.507.542,2.321.447a3.086,3.086,0,0,0-1.667-.941A.7.7,0,0,0,401.882,400.306Z" transform="translate(-310.577 -175.369)" fill="#0091ff"/>
            <path id="Path_44456" data-name="Path 44456" d="M404.041,399.338l4.928-3.876a.526.526,0,0,1,.638,0l4.234,3.19a.8.8,0,0,1,0,1.284c-1.8,1.364-5.279,4.171-7.4,6.053-2.48,2.209-.55.734-3.461,3.325-1.762,1.595-3.915.287-3.325-.518,2.663-3.684,3.23-5.877,3.581-8.23a1.946,1.946,0,0,1,.805-1.228Z" transform="translate(-310.2 -174.456)" fill="#263238"/>
            <path id="Path_44457" data-name="Path 44457" d="M297.951,187.145l-2.241-4.825-6.1,3.772s2.01,4.107,6.172,3.66Z" transform="translate(-287.93 -131.306)" fill="#b55b52"/>
            <path id="Path_44459" data-name="Path 44459" d="M400.04,385.176l2.616,6.77,5.1-1.826-2.616-6.77Z" transform="translate(-310.298 -172.025)" opacity="0.2"/>
            <path id="Path_44460" data-name="Path 44460" d="M350.9,225.86s9.569,44.075,13.238,60.439c3.987,17.911,25.112,72.384,25.112,72.384l9.266-5.024s-9.912-42.735-17.153-66.045C378.731,268.348,370.7,225.86,370.7,225.86Z" transform="translate(-300.344 -140.125)" fill="#263238"/>
            <path id="Path_44461" data-name="Path 44461" d="M395.72,387.931c-.048,0,1.9,3.6,1.9,3.6l11.467-4.306-.909-3.5Z" transform="translate(-309.423 -172.1)" fill="#0091ff"/>
            <path id="Path_44462" data-name="Path 44462" d="M357.7,251.472c7.225.965,8.038,26.411,7.9,41.348-.1-.47-.207-.917-.3-1.34-2-8.939-5.758-26.148-8.772-39.928A2.64,2.64,0,0,1,357.7,251.472Z" transform="translate(-301.487 -145.306)" opacity="0.3"/>
            <path id="Path_44463" data-name="Path 44463" d="M336.72,225.86s-2.44,42.9-2.041,60.4c.415,18.206,5.526,77.8,5.526,77.8h9.721s1.595-58.533,2.249-76.4c.726-19.49,4.721-61.794,4.721-61.794Z" transform="translate(-297.05 -140.125)" fill="#263238"/>
            <path id="Path_44464" data-name="Path 44464" d="M339.339,394.3c-.048,0,.494,4.035.494,4.035H351.66l.367-3.6Z" transform="translate(-298.002 -174.243)" fill="#0091ff"/>
            <path id="Path_44465" data-name="Path 44465" d="M336.893,173.142a62.548,62.548,0,0,1-4.426,6.8,70.784,70.784,0,0,1-5.175,6.132c-1.818,1.938-3.74,3.772-5.71,5.51s-4.027,3.4-5.877,4.92l-.654.542-.542.191a8.987,8.987,0,0,1-4.123.455,13.317,13.317,0,0,1-3.333-.813,21.969,21.969,0,0,1-5.016-2.959,36.127,36.127,0,0,1-3.987-3.6c-.606-.63-1.18-1.292-1.746-1.954s-1.092-1.332-1.643-2.089l3.15-2.943c1.22.909,2.536,1.9,3.852,2.743a42.817,42.817,0,0,0,3.939,2.392,17.434,17.434,0,0,0,3.8,1.547,5.312,5.312,0,0,0,1.507.183,1.435,1.435,0,0,0,.758-.207l-1.188.734c1.946-1.818,3.708-3.445,5.463-5.159s3.405-3.453,4.992-5.247a71.669,71.669,0,0,0,4.5-5.582c1.4-1.938,2.687-3.884,3.908-5.877Z" transform="translate(-288.953 -128.579)" fill="#b65b52"/>
            <path id="Path_44466" data-name="Path 44466" d="M347.077,170.612c-.55,8.254-10.016,15.152-10.016,15.152l-12.281-6.738s4.522-9.721,10.614-14.314C342.93,159.073,347.491,164.328,347.077,170.612Z" transform="translate(-295.054 -127.253)" fill="#0091ff"/>
            <path id="Path_44467" data-name="Path 44467" d="M347.077,170.612c-.55,8.254-10.016,15.152-10.016,15.152l-12.281-6.738s4.522-9.721,10.614-14.314C342.93,159.073,347.491,164.328,347.077,170.612Z" transform="translate(-295.054 -127.253)" opacity="0.2"/>
          </g>
        </g>
      </g>
    </g>
  </g>
</svg>
