<svg xmlns="http://www.w3.org/2000/svg" width="345" height="307" viewBox="0 0 345 307">
  <g id="Group_3430" data-name="Group 3430" transform="translate(-18390 -5400)">
    <g id="Group_3427" data-name="Group 3427">
      <g id="Group_3420" data-name="Group 3420">
        <g id="Group_3406" data-name="Group 3406" transform="translate(3138 474)">
          <g id="Group_903" data-name="Group 903" transform="translate(1154 674)">
            <rect id="Rectangle_1318" data-name="Rectangle 1318" width="345" height="307" transform="translate(14098 4252)" fill="#fff" opacity="0"/>
          </g>
        </g>
        <g id="Scrum_board-bro" data-name="Scrum board-bro" transform="translate(18346.738 5337.248)">
          <g id="freepik--Floor--inject-64" transform="translate(462.044 167.848)">
            <g id="Group_3419" data-name="Group 3419" transform="translate(-376 -10.977)">
              <rect id="Rectangle_3470" data-name="Rectangle 3470" width="71.914" height="89.98" transform="translate(144.857 88.693)" fill="#e6ebef"/>
              <rect id="Rectangle_3471" data-name="Rectangle 3471" width="56.193" height="89.98" transform="translate(163.377 88.693)" fill="#f1f5f8"/>
              <rect id="Rectangle_3472" data-name="Rectangle 3472" width="44.183" height="28.208" transform="translate(169.871 94.368)" fill="#fff" stroke="#e6ebef" stroke-linecap="round" stroke-linejoin="round" stroke-width="1"/>
              <rect id="Rectangle_3473" data-name="Rectangle 3473" width="22.429" height="5.397" transform="translate(180.76 105.765)" fill="#e6ebef"/>
              <rect id="Rectangle_3474" data-name="Rectangle 3474" width="44.183" height="28.208" transform="translate(169.871 133.075)" fill="#fff" stroke="#e6ebef" stroke-linecap="round" stroke-linejoin="round" stroke-width="1"/>
              <rect id="Rectangle_3475" data-name="Rectangle 3475" width="22.429" height="5.397" transform="translate(180.76 144.473)" fill="#e6ebef"/>
            </g>
          </g>
          <g id="freepik--Board--inject-64" transform="translate(96.634 66.38)">
            <rect id="Rectangle_3476" data-name="Rectangle 3476" width="240.612" height="128.838" transform="translate(0)" fill="#263238"/>
            <rect id="Rectangle_3477" data-name="Rectangle 3477" width="227.752" height="115.668" transform="translate(6.533 6.875)" fill="#fff"/>
            <line id="Line_205" data-name="Line 205" y2="91.737" transform="translate(75.237 14.799)" fill="none" stroke="#263238" stroke-linecap="round" stroke-linejoin="round" stroke-width="1"/>
            <line id="Line_206" data-name="Line 206" y2="94.876" transform="translate(152.762 14.799)" fill="none" stroke="#263238" stroke-linecap="round" stroke-linejoin="round" stroke-width="1"/>
            <line id="Line_207" data-name="Line 207" x2="180.755" transform="translate(26.419 33.438)" fill="none" stroke="#263238" stroke-linecap="round" stroke-linejoin="round" stroke-width="1"/>
            <path id="Path_44547" data-name="Path 44547" d="M147.439,90.578H144.88V89.37h6.541v1.208H148.87v6.494h-1.431Z" transform="translate(-109.527 -71.097)" fill="#263238"/>
            <path id="Path_44548" data-name="Path 44548" d="M152.939,94.531a3.132,3.132,0,1,1,3.124,3.012,2.965,2.965,0,0,1-3.124-3.012Zm4.88,0a1.749,1.749,0,1,0-1.757,1.836,1.717,1.717,0,0,0,1.757-1.836Z" transform="translate(-111.18 -71.489)" fill="#263238"/>
            <path id="Path_44549" data-name="Path 44549" d="M171.939,88.759V96.93H170.62v-.795a2.384,2.384,0,0,1-1.947.795,3.012,3.012,0,0,1,0-6.025,2.384,2.384,0,0,1,1.892.795V88.68ZM170.588,94a1.757,1.757,0,1,0-1.757,1.836A1.725,1.725,0,0,0,170.588,94Z" transform="translate(-113.791 -70.956)" fill="#263238"/>
            <path id="Path_44550" data-name="Path 44550" d="M175.229,94.531a3.132,3.132,0,1,1,3.124,3.012,2.965,2.965,0,0,1-3.124-3.012Zm4.88,0a1.749,1.749,0,1,0-1.757,1.836,1.717,1.717,0,0,0,1.757-1.836Z" transform="translate(-115.754 -71.489)" fill="#263238"/>
            <path id="Path_44551" data-name="Path 44551" d="M223.8,89.37h3.338c2.5,0,4.212,1.542,4.212,3.855s-1.709,3.847-4.212,3.847H223.8Zm3.338,6.494a2.647,2.647,0,1,0,0-5.285H225.27v5.285Z" transform="translate(-125.721 -71.097)" fill="#263238"/>
            <path id="Path_44552" data-name="Path 44552" d="M234.479,94.531a3.132,3.132,0,1,1,3.132,3.012,2.965,2.965,0,0,1-3.132-3.012Zm4.88,0a1.749,1.749,0,1,0-1.749,1.836,1.709,1.709,0,0,0,1.749-1.836Z" transform="translate(-127.912 -71.489)" fill="#263238"/>
            <path id="Path_44553" data-name="Path 44553" d="M243.8,89.2a.879.879,0,0,1,1.757,0,.882.882,0,0,1-1.757,0Zm.183,1.8h1.375v5.874h-1.4Z" transform="translate(-129.824 -70.899)" fill="#263238"/>
            <path id="Path_44554" data-name="Path 44554" d="M253.826,94.171v3.37h-1.383V94.362c0-1.049-.517-1.59-1.4-1.59a1.59,1.59,0,0,0-1.637,1.772v2.973H248v-5.85h1.311v.795a2.551,2.551,0,0,1,2.027-.795,2.3,2.3,0,0,1,2.488,2.5Z" transform="translate(-130.686 -71.567)" fill="#263238"/>
            <path id="Path_44555" data-name="Path 44555" d="M263.359,91.665v4.983c0,2.138-1.113,3.108-3.179,3.108a4.705,4.705,0,0,1-2.869-.795l.62-1.041a3.545,3.545,0,0,0,2.17.707c1.3,0,1.868-.6,1.868-1.78v-.31a2.583,2.583,0,0,1-1.971.795,2.845,2.845,0,1,1,0-5.683,2.567,2.567,0,0,1,2.043.85V91.7ZM262,94.423a1.788,1.788,0,1,0-1.82,1.685,1.653,1.653,0,0,0,1.78-1.685Z" transform="translate(-132.533 -71.564)" fill="#263238"/>
            <path id="Path_44556" data-name="Path 44556" d="M315.86,89.37h3.37c2.5,0,4.2,1.542,4.2,3.855s-1.709,3.847-4.2,3.847h-3.37Zm3.291,6.494a2.647,2.647,0,1,0,0-5.285h-1.868v5.285Z" transform="translate(-144.611 -71.097)" fill="#263238"/>
            <path id="Path_44557" data-name="Path 44557" d="M326.529,94.527a3.139,3.139,0,1,1,3.132,3.012,2.965,2.965,0,0,1-3.132-3.012Zm4.88,0a1.749,1.749,0,1,0-1.749,1.836,1.709,1.709,0,0,0,1.749-1.836Z" transform="translate(-146.799 -71.485)" fill="#263238"/>
            <path id="Path_44558" data-name="Path 44558" d="M341.874,94.172v3.37H340.5V94.363c0-1.049-.517-1.59-1.4-1.59a1.59,1.59,0,0,0-1.645,1.772v2.973H336.08v-5.85h1.311v.795a2.559,2.559,0,0,1,2.027-.795,2.3,2.3,0,0,1,2.456,2.5Z" transform="translate(-148.76 -71.568)" fill="#263238"/>
            <path id="Path_44559" data-name="Path 44559" d="M351.024,95.029h-4.618a1.78,1.78,0,0,0,1.908,1.407,2.114,2.114,0,0,0,1.59-.636l.739.85A3.306,3.306,0,0,1,345,94.592a2.925,2.925,0,0,1,3.036-3.012,2.869,2.869,0,0,1,2.973,3.044A1.354,1.354,0,0,1,351.024,95.029Zm-4.626-.914h3.37a1.685,1.685,0,0,0-3.338,0Z" transform="translate(-150.59 -71.55)" fill="#263238"/>
            <path id="Path_44560" data-name="Path 44560" d="M136.6,123.215a12.1,12.1,0,0,0,1.009,10.5l8.433-.97s-1.375-7.765-1.3-10.674Z" transform="translate(-107.676 -77.807)" fill="#0091ff" stroke="#263238" stroke-miterlimit="10" stroke-width="1"/>
            <path id="Path_44561" data-name="Path 44561" d="M136.79,122.722l8.139-.652a36.792,36.792,0,0,0,2.043,8.274l-8.242,1.033A35.384,35.384,0,0,1,136.79,122.722Z" transform="translate(-107.867 -77.807)" fill="#fff" stroke="#263238" stroke-miterlimit="10" stroke-width="1"/>
            <path id="Path_44562" data-name="Path 44562" d="M151.79,141.974l8.139-.644a36.774,36.774,0,0,0,2.043,8.266l-8.242,1.009a35.766,35.766,0,0,1-1.939-8.632Z" transform="translate(-110.945 -81.759)" fill="#0091ff" stroke="#263238" stroke-miterlimit="10" stroke-width="1"/>
            <path id="Path_44563" data-name="Path 44563" d="M154.64,162.1l8.147-.644a36.562,36.562,0,0,0,2.035,8.266l-8.242,1.033a35.768,35.768,0,0,1-1.939-8.655Z" transform="translate(-111.53 -85.89)" fill="#fff" stroke="#263238" stroke-miterlimit="10" stroke-width="1"/>
            <path id="Path_44564" data-name="Path 44564" d="M165.75,122.658l9.116-.588a28.089,28.089,0,0,0,1.55,9.721l-9.029,1.049S165.75,130.368,165.75,122.658Z" transform="translate(-113.809 -77.807)" fill="#fff" stroke="#263238" stroke-miterlimit="10" stroke-width="1"/>
            <path id="Path_44565" data-name="Path 44565" d="M167.45,120.85l9.116-.58a28.089,28.089,0,0,0,1.59,9.72l-9.029,1.049S167.45,128.536,167.45,120.85Z" transform="translate(-114.158 -77.438)" fill="#0091ff" stroke="#263238" stroke-miterlimit="10" stroke-width="1"/>
            <path id="Path_44566" data-name="Path 44566" d="M176.217,123.453a.517.517,0,0,1-.525.525.525.525,0,0,1-.533-.525.533.533,0,0,1,.533-.533.525.525,0,0,1,.525.533Z" transform="translate(-115.74 -77.982)" fill="#263238"/>
            <path id="Path_44567" data-name="Path 44567" d="M144.727,124.783a.517.517,0,0,1-.525.525.525.525,0,0,1-.533-.525.533.533,0,0,1,.533-.533.525.525,0,0,1,.525.533Z" transform="translate(-109.279 -78.254)" fill="#263238"/>
            <path id="Path_44568" data-name="Path 44568" d="M157.205,143.773a.533.533,0,1,1-.533-.533A.533.533,0,0,1,157.205,143.773Z" transform="translate(-111.837 -82.151)" fill="#263238"/>
            <path id="Path_44569" data-name="Path 44569" d="M172.459,145.4l7.8-.795a41.9,41.9,0,0,0,1.534,10.428l-7.988.707S172.355,152.073,172.459,145.4Z" transform="translate(-115.185 -82.432)" fill="#fff" stroke="#263238" stroke-miterlimit="10" stroke-width="1"/>
            <path id="Path_44570" data-name="Path 44570" d="M129.7,148.213a13.207,13.207,0,0,0,.485,12.932l8.29-.97s-2.138-7.535-.914-12.375Z" transform="translate(-106.107 -83.087)" fill="#fff" stroke="#263238" stroke-miterlimit="10" stroke-width="1"/>
            <path id="Path_44571" data-name="Path 44571" d="M130.03,148.213l7.861-.413a39.438,39.438,0,0,0,1.264,9.784l-7.908,1.073S129.211,156.177,130.03,148.213Z" transform="translate(-106.44 -83.087)" fill="#0091ff" stroke="#263238" stroke-miterlimit="10" stroke-width="1"/>
            <path id="Path_44572" data-name="Path 44572" d="M136.245,149.965a.533.533,0,1,1-.525-.525.525.525,0,0,1,.525.525Z" transform="translate(-107.537 -83.423)" fill="#263238"/>
            <path id="Path_44573" data-name="Path 44573" d="M180.227,147.045a.533.533,0,0,1-.533.533.525.525,0,0,1-.525-.533.517.517,0,0,1,.525-.525.525.525,0,0,1,.533.525Z" transform="translate(-116.563 -82.824)" fill="#263238"/>
            <path id="Path_44574" data-name="Path 44574" d="M163.316,163.8a.533.533,0,1,1-.529-.468A.533.533,0,0,1,163.316,163.8Z" transform="translate(-113.092 -86.274)" fill="#263238"/>
            <path id="Path_44575" data-name="Path 44575" d="M213.65,152.224l8.147-.644a36.292,36.292,0,0,0,2.043,8.266l-8.25,1.041A35.917,35.917,0,0,1,213.65,152.224Z" transform="translate(-123.638 -83.862)" fill="#0091ff" stroke="#263238" stroke-miterlimit="10" stroke-width="1"/>
            <path id="Path_44576" data-name="Path 44576" d="M216.27,176.314l8.139-.644a36.775,36.775,0,0,0,2.043,8.266l-8.242,1.033A35.384,35.384,0,0,1,216.27,176.314Z" transform="translate(-124.176 -88.805)" fill="#fff" stroke="#263238" stroke-miterlimit="10" stroke-width="1"/>
            <path id="Path_44577" data-name="Path 44577" d="M251.9,122.658l9.116-.588a28.088,28.088,0,0,0,1.55,9.721l-9,1.049S251.9,130.368,251.9,122.658Z" transform="translate(-131.487 -77.807)" fill="#fff" stroke="#263238" stroke-miterlimit="10" stroke-width="1"/>
            <path id="Path_44578" data-name="Path 44578" d="M253.6,120.85l9.116-.58a28.089,28.089,0,0,0,1.534,9.689l-9.029,1.049S253.6,128.536,253.6,120.85Z" transform="translate(-131.835 -77.438)" fill="#0091ff" stroke="#263238" stroke-miterlimit="10" stroke-width="1"/>
            <path id="Path_44579" data-name="Path 44579" d="M262.375,123.453a.533.533,0,1,1-.533-.533A.533.533,0,0,1,262.375,123.453Z" transform="translate(-133.417 -77.982)" fill="#263238"/>
            <path id="Path_44580" data-name="Path 44580" d="M219.067,154.023a.517.517,0,0,1-.525.525.525.525,0,0,1-.533-.525.533.533,0,0,1,.533-.533.525.525,0,0,1,.525.533Z" transform="translate(-124.533 -84.254)" fill="#263238"/>
            <path id="Path_44581" data-name="Path 44581" d="M236.489,150.025l7.805-.795a41.688,41.688,0,0,0,1.542,10.42l-8,.715S236.385,156.661,236.489,150.025Z" transform="translate(-128.323 -83.38)" fill="#fff" stroke="#263238" stroke-miterlimit="10" stroke-width="1"/>
            <path id="Path_44582" data-name="Path 44582" d="M244.255,151.653a.533.533,0,1,1-.533-.533A.533.533,0,0,1,244.255,151.653Z" transform="translate(-129.699 -83.768)" fill="#263238"/>
            <path id="Path_44583" data-name="Path 44583" d="M223.066,178.129a.533.533,0,1,1-.529-.468A.532.532,0,0,1,223.066,178.129Z" transform="translate(-125.352 -89.214)" fill="#263238"/>
            <path id="Path_44584" data-name="Path 44584" d="M315,122.722l8.139-.652a36.791,36.791,0,0,0,2.043,8.274l-8.242,1.033A35.384,35.384,0,0,1,315,122.722Z" transform="translate(-144.434 -77.807)" fill="#0091ff" stroke="#263238" stroke-miterlimit="10" stroke-width="1"/>
            <path id="Path_44585" data-name="Path 44585" d="M332.84,162.1l8.147-.644a36.289,36.289,0,0,0,2.043,8.266l-8.25,1.033a35.769,35.769,0,0,1-1.939-8.655Z" transform="translate(-148.095 -85.89)" fill="#0091ff" stroke="#263238" stroke-miterlimit="10" stroke-width="1"/>
            <path id="Path_44586" data-name="Path 44586" d="M345.66,120.85l9.116-.58a28.2,28.2,0,0,0,1.542,9.721l-9.029,1.049S345.66,128.536,345.66,120.85Z" transform="translate(-150.725 -77.438)" fill="#0091ff" stroke="#263238" stroke-miterlimit="10" stroke-width="1"/>
            <path id="Path_44587" data-name="Path 44587" d="M354.427,123.453a.525.525,0,0,1-.533.525.517.517,0,0,1-.525-.525.525.525,0,0,1,.525-.533A.533.533,0,0,1,354.427,123.453Z" transform="translate(-152.307 -77.982)" fill="#263238"/>
            <path id="Path_44588" data-name="Path 44588" d="M322.925,124.783a.533.533,0,1,1-.533-.533.533.533,0,0,1,.533.533Z" transform="translate(-145.842 -78.254)" fill="#263238"/>
            <path id="Path_44589" data-name="Path 44589" d="M308.23,148.213l7.861-.413a39.437,39.437,0,0,0,1.264,9.784l-7.908,1.073S307.411,156.177,308.23,148.213Z" transform="translate(-143.005 -83.087)" fill="#0091ff" stroke="#263238" stroke-miterlimit="10" stroke-width="1"/>
            <path id="Path_44590" data-name="Path 44590" d="M314.447,149.965a.524.524,0,0,1-.525.533.533.533,0,0,1-.533-.533.525.525,0,0,1,.533-.525.517.517,0,0,1,.525.525Z" transform="translate(-144.104 -83.423)" fill="#263238"/>
            <path id="Path_44591" data-name="Path 44591" d="M341.515,163.785a.533.533,0,1,1-.525-.525A.525.525,0,0,1,341.515,163.785Z" transform="translate(-149.656 -86.259)" fill="#263238"/>
            <path id="Path_44592" data-name="Path 44592" d="M100.4,67.23l6.541,6.2V189.1l-6.541,6.295Z" transform="translate(-100.4 -66.554)" opacity="0.2"/>
            <path id="Path_44593" data-name="Path 44593" d="M401.507,66.38V194.63l-6.327-5.707V73.255Z" transform="translate(-160.886 -66.38)" opacity="0.2"/>
            <line id="Line_208" data-name="Line 208" y1="1.216" x2="17.128" transform="translate(84.735 42.8)" fill="none" stroke="#263238" stroke-linecap="round" stroke-linejoin="round" stroke-width="1"/>
            <line id="Line_209" data-name="Line 209" y1="1.216" x2="17.128" transform="translate(84.735 45.916)" fill="none" stroke="#263238" stroke-linecap="round" stroke-linejoin="round" stroke-width="1"/>
            <line id="Line_210" data-name="Line 210" y1="1.216" x2="17.128" transform="translate(84.735 49.04)" fill="none" stroke="#263238" stroke-linecap="round" stroke-linejoin="round" stroke-width="1"/>
            <path id="Path_44594" data-name="Path 44594" d="M260,159.134c.795-2.861,3.4-4.92,6.176-5.985,5.707-2.194,11.461.111,13.512,6,1.494,4.292,1.153,9.9-2.814,12.717a13.83,13.83,0,0,1-11.708,1.717c-2.941-.97-5.429-3.839-5.111-6.923" transform="translate(-133.149 -84.017)" fill="none" stroke="#263238" stroke-linecap="round" stroke-linejoin="round" stroke-width="1"/>
            <path id="Path_44595" data-name="Path 44595" d="M280.61,135.58q-1.59,6.176-3.02,12.367" transform="translate(-136.758 -80.579)" fill="none" stroke="#263238" stroke-linecap="round" stroke-linejoin="round" stroke-width="1"/>
            <path id="Path_44596" data-name="Path 44596" d="M274.1,145.48a20,20,0,0,0,2.321,4.848,8.377,8.377,0,0,0,4.03-3.259" transform="translate(-136.042 -82.611)" fill="none" stroke="#263238" stroke-linecap="round" stroke-linejoin="round" stroke-width="1"/>
            <path id="Path_44597" data-name="Path 44597" d="M266.48,161.724l8.139-.644a36.776,36.776,0,0,0,2.043,8.266l-8.242,1.041A35.5,35.5,0,0,1,266.48,161.724Z" transform="translate(-134.478 -85.812)" fill="#0091ff" stroke="#263238" stroke-miterlimit="10" stroke-width="1"/>
            <path id="Path_44598" data-name="Path 44598" d="M271.9,163.523a.525.525,0,0,1-.533.525.517.517,0,0,1-.525-.525.525.525,0,0,1,.525-.533.533.533,0,0,1,.533.533Z" transform="translate(-135.373 -86.204)" fill="#263238"/>
          </g>
          <g id="freepik--character-1--inject-64" transform="translate(115.83 125.951)">
            <path id="Path_44599" data-name="Path 44599" d="M188.524,436.5a3.561,3.561,0,0,0,1.764,2.345c3.179,1.359,8.9-.795,12.963-1.8s12.844-4.054,13.639-7.439a2.448,2.448,0,0,0-.064-1.518c-.747-1.78-4.133-1.629-6.247-1.629-2.6,0-8.91-.684-10.714-1.47s-11.827,4.061-11.827,4.061S187.554,433.548,188.524,436.5Z" transform="translate(-137.554 -199.516)" fill="#0091ff"/>
            <path id="Path_44600" data-name="Path 44600" d="M160.089,425h0a3.179,3.179,0,0,0,2.1,2.09c2.925.906,4.507-.9,6.08-2.814s3.267-2.384,5.754-4.173,2.678-5.27,1.486-6.112a.691.691,0,0,0-.143-.087c-1.343-.676-6.422,1.129-6.422,1.129l-7.773-1.28s-.564,2.861-1.129,5.564A11.193,11.193,0,0,0,160.089,425Z" transform="translate(-131.763 -197.228)" fill="#0091ff"/>
            <path id="Path_44601" data-name="Path 44601" d="M160.19,425.068a3.179,3.179,0,0,0,2.1,2.09c2.925.906,4.507-.9,6.08-2.814s3.267-2.384,5.754-4.173,2.678-5.27,1.486-6.112a5.4,5.4,0,0,1-.938,3.974,13.2,13.2,0,0,1-3.41,3.179,22.462,22.462,0,0,0-3.64,2.949c-.5.564-1.343.731-1.963,1.16-.922.636-1.741,1.232-2.829.986a7.208,7.208,0,0,1-2.639-1.24Z" transform="translate(-131.865 -197.292)" fill="#fdfeff"/>
            <path id="Path_44602" data-name="Path 44602" d="M188.68,437.327a3.561,3.561,0,0,0,1.764,2.345c3.179,1.359,8.671.437,12.963-1.8,4.054-1.009,12.844-4.054,13.639-7.439a2.449,2.449,0,0,0-.064-1.518c-.445.97-1.661,2.384-4.721,3.974a65.211,65.211,0,0,1-17.319,5.723C192.988,438.956,190.27,438,188.68,437.327Z" transform="translate(-137.711 -200.339)" fill="#fdfeff"/>
            <path id="Path_44603" data-name="Path 44603" d="M160.577,263.12c-.374-.215-8.679,21.555-8.894,22.469a34.749,34.749,0,0,0-.795,10.833,35.115,35.115,0,0,0,7.439,18.408c3.974,5.071,12.343,12.717,9.538,19.982-1.709,4.451-13.345,24.639-10.261,48.913,0,0,3.664,6.16,10.555,0l6.541-13.337,5.134,24.639s6.843,7.527,12.653,0a147.038,147.038,0,0,1,3.767-38.874q4.769-19.822,7.7-40.019c.9-6.152,2.384-12.653,1.59-18.845-.795-6.517-7.948-25.124-10.333-31.244C195.279,266.044,187.6,278.515,160.577,263.12Z" transform="translate(-129.931 -166.32)" fill="#263238"/>
            <path id="Path_44604" data-name="Path 44604" d="M178.166,372.42c-.509,3.926.223,8.194.89,12.065" transform="translate(-135.518 -188.748)" fill="none" stroke="#fdfeff" stroke-linecap="round" stroke-linejoin="round" stroke-width="1"/>
            <path id="Path_44605" data-name="Path 44605" d="M172.48,309.81l7.455,2.9s2.766,20.76,2.766,24.711c0,2.678-2.829,10.1-4.546,16.691" transform="translate(-134.387 -175.901)" fill="none" stroke="#fdfeff" stroke-linecap="round" stroke-linejoin="round" stroke-width="1"/>
            <path id="Path_44606" data-name="Path 44606" d="M188.542,427.607s-1.2,5.46,0,8.918,3.839,3.179,6.9,3.179,14.863-4.9,18.018-6.247,4.427-4.348,3.386-5.373-1.653-1.319-6.247-1.629-9.339-.318-10.674-1.454" transform="translate(-137.573 -199.537)" fill="none" stroke="#263238" stroke-miterlimit="10" stroke-width="1"/>
            <path id="Path_44607" data-name="Path 44607" d="M188.68,437.327a11.819,11.819,0,0,0,7.861,1.009c4.212-1.025,18.869-5.444,20.442-9.426" transform="translate(-137.711 -200.339)" fill="none" stroke="#263238" stroke-miterlimit="10" stroke-width="1"/>
            <path id="Path_44608" data-name="Path 44608" d="M160.915,415.685s-1.51,5.055-1.224,7.034-.079,4.173,3.33,4.586,5.206-3.179,5.993-3.807,5.381-2.806,6.6-5.309a4.332,4.332,0,0,0,.366-3.179c-.437-1.311-1.391-1.256-2.583-1.057a34.657,34.657,0,0,0-4.467,1.129" transform="translate(-131.755 -197.248)" fill="none" stroke="#263238" stroke-miterlimit="10" stroke-width="1"/>
            <path id="Path_44609" data-name="Path 44609" d="M159.94,425.362c1.486.533,3.116,1.073,4.618.588,1.757-.564,2.79-2.337,4.244-3.465.533-.405,1.121-.731,1.693-1.089a12.6,12.6,0,0,0,3.545-3.092,5.7,5.7,0,0,0,1.478-3.895" transform="translate(-131.814 -197.364)" fill="none" stroke="#263238" stroke-miterlimit="10" stroke-width="1"/>
            <path id="Path_44610" data-name="Path 44610" d="M257.05,201.772s.747-3.283,3.179-3.974,3.314.906,4.459.087,2.249-3.974,3.179-4.705,2.321-2.059,3.179-1.971-.978,2.44-.978,2.44,1.836-.1,1.653.636a7.312,7.312,0,0,1-.691,1.59,7.765,7.765,0,0,0,2.472-1.757c1.081-1.192,2.512-2.742,4.316-1.677,0,0,1.081.533.572,1.232s-2.027,5.452-3.974,6.613-4.84,1.248-6.5,1.462-8.1,4.6-8.1,4.6l-2.718-3.179Z" transform="translate(-151.74 -151.564)" fill="#fff"/>
            <path id="Path_44611" data-name="Path 44611" d="M259.894,206.884c1.955-1.995,3.974-2.869,6.358-4.054,1.59-.795,3.537-.469,5.3-.684,2.289-.27,3.362-1.733,4.435-3.656.842-1.534,1.518-3.608,2.742-4.7a3.887,3.887,0,0,0-1.979.056c-1.2.413-2.1,1.717-2.965,2.822a6.128,6.128,0,0,1-3.33,2.225.477.477,0,0,1-.35,0c-.31-.175-.151-.739.048-1.081l1.335-2.257a.922.922,0,0,0,.183-.747c-.1-.318-.469-.334-.795-.27a7.718,7.718,0,0,0-3.648,1.939c-.906.795-1.78,1.947-2.917,1.971a6.153,6.153,0,0,1-1.59-.374,4.149,4.149,0,0,0-3.974,1.24,5.122,5.122,0,0,0-1.82,3.974" transform="translate(-151.714 -152.074)" fill="none" stroke="#263238" stroke-linecap="round" stroke-linejoin="round" stroke-width="1"/>
            <path id="Path_44612" data-name="Path 44612" d="M281.572,193.279a.865.865,0,0,0-.707-.795,2.7,2.7,0,0,0-2.186.215,6.119,6.119,0,0,0-1.264,1.224,21.079,21.079,0,0,1-3.235,2.973" transform="translate(-155.255 -151.798)" fill="none" stroke="#263238" stroke-linecap="round" stroke-linejoin="round" stroke-width="1"/>
            <path id="Path_44613" data-name="Path 44613" d="M268.08,197.071c1.272-1.741,1.987-3.974,3.7-5.238a2.846,2.846,0,0,1,1.494-.628.223.223,0,0,1,.175,0c.056.064,0,.167,0,.246-.5.978-1.009,1.939-1.534,2.909l.072-.143" transform="translate(-154.003 -151.56)" fill="none" stroke="#263238" stroke-linecap="round" stroke-linejoin="round" stroke-width="1"/>
            <path id="Path_44614" data-name="Path 44614" d="M235.815,205.928h0c-.525.93-17.271,30.783-20.164,32.5s-3.092,1.057-5.095.064S195,223.286,195,223.286L193.69,229.3l-3.076,13.869,9.005,23.2c-8.87,6.287-23.9,7.447-23.9,7.447l-3.346-13.2-6.184,11.994a37.547,37.547,0,0,1-10.976-3.759,62.175,62.175,0,0,1-7.67-4.554l8.632-20.665a15.4,15.4,0,0,1-8.584,2.5,16.516,16.516,0,0,1-9.331-3.179,118.8,118.8,0,0,1,1.884-19.075c1.59-9.291,3.672-17.295,4.332-18.757,1.1-2.448,7.59-9.792,7.59-9.792,3.092-1.844,9.808-2.885,9.808-2.885l-1.168-6.358a16.492,16.492,0,0,1,4.658-1.288,17.993,17.993,0,0,1,4.483,0,4.663,4.663,0,0,1,.795.111,26.292,26.292,0,0,1,10.269,4.125v4.586c5.969,1.1,15.141,6.509,17.343,8.306s13.4,18.773,13.4,18.773l19.958-20.244Z" transform="translate(-127.365 -150.22)" fill="#0091ff"/>
            <path id="Path_44615" data-name="Path 44615" d="M251.085,211.882c-.525.93-17.271,30.775-20.156,32.492s-3.1,1.057-5.095.064-15.554-15.157-15.554-15.157L214.5,211s11.342,17.414,13.782,24.226Z" transform="translate(-142.143 -155.626)" opacity="0.2"/>
            <path id="Path_44616" data-name="Path 44616" d="M171.129,184.854v7.829s-10.253,6.1-11.978,9.657.374,30.346,9.649,40.058l-3.974-.374-9.156,26.865a62.164,62.164,0,0,1-7.67-4.554l8.632-20.665a15.4,15.4,0,0,1-8.552,2.5c.493-1.9,4.7-19.354-7.439-22.255,1.59-9.291,3.672-17.3,4.332-18.757,1.1-2.448,7.59-9.792,7.59-9.792,3.092-1.844,9.808-2.885,9.808-2.885l-1.168-6.358a16.492,16.492,0,0,1,4.658-1.288Z" transform="translate(-127.853 -150.256)" opacity="0.2"/>
            <path id="Path_44617" data-name="Path 44617" d="M187.5,147.254s3.72,1.59,4.316,4.594,1.049,6.16,2.718,7.408,2.527,1.709,1.931,2.758a9.053,9.053,0,0,1-.874,1.359s1.534,10.333-.254,11.6-6.549-1.423-6.549-1.423a5.381,5.381,0,0,0-3.084,4.236c-.405,3.179-.056,2.17-.056,2.17s-7.257-3.537-14.648-2.313l.27-9.26S176.325,144.52,187.5,147.254Z" transform="translate(-134.083 -142.501)" fill="#fff"/>
            <path id="Path_44618" data-name="Path 44618" d="M195.834,161.243c.1.715-.087,1.335-.405,1.375s-.66-.5-.755-1.224.087-1.327.405-1.375S195.723,160.528,195.834,161.243Z" transform="translate(-138.935 -145.164)" fill="#263238"/>
            <path id="Path_44619" data-name="Path 44619" d="M187.652,144.1s7.384,4.173,7.9,8.346,1.256,5.643,3.449,6.947,0,3.378,0,3.378,1,10.452-.254,11.6-7.948-.835-11.127-5.564" transform="translate(-137.493 -141.898)" fill="none" stroke="#263238" stroke-linecap="round" stroke-linejoin="round" stroke-width="1"/>
            <path id="Path_44620" data-name="Path 44620" d="M186.2,186.81l.175,6.446s12.463,9,16.246,12.534l-1.431,33.779,8.2-35.488s-7.336-8.377-18.646-9.967v-4.586a24.838,24.838,0,0,0-4.546-2.718Z" transform="translate(-137.202 -150.662)" fill="#fff" opacity="0.6"/>
            <path id="Path_44621" data-name="Path 44621" d="M192.03,180a6.883,6.883,0,0,0-2.273,3.243,14.219,14.219,0,0,0-.556,3.044" transform="translate(-137.817 -149.265)" fill="none" stroke="#263238" stroke-linecap="round" stroke-linejoin="round" stroke-width="1"/>
            <path id="Path_44622" data-name="Path 44622" d="M185.247,165.647s-2.917-3.076-4.419-2.337-2.3,3.6-1.065,7.209,4.379,4.046,6.152,2.456" transform="translate(-135.756 -145.817)" fill="none" stroke="#263238" stroke-linecap="round" stroke-linejoin="round" stroke-width="1"/>
            <path id="Path_44623" data-name="Path 44623" d="M171.31,178.93c-.048,1.741-.127,3.267-.27,4.872" transform="translate(-134.091 -149.045)" fill="none" stroke="#263238" stroke-linecap="round" stroke-linejoin="round" stroke-width="1"/>
            <path id="Path_44624" data-name="Path 44624" d="M180.961,161.16s7.153-5.278,6.557-13.162c0,0-3.918-6.668-13.313-6.668s-13.512,3.291-14.934,10.126-2.146,16.341,3.593,19.759,11.6.795,13.059-4.054c0,0-2.79-5.564-.056-7.805C177.925,157.671,180.961,161.16,180.961,161.16Z" transform="translate(-131.47 -141.33)" fill="#263238"/>
            <path id="Path_44625" data-name="Path 44625" d="M167.445,192.008l-1.375-5.85s11.652-4.252,20.53,2.949v4.316" transform="translate(-133.071 -150.273)" fill="none"/>
            <path id="Path_44626" data-name="Path 44626" d="M192.016,244.294l9.013,24s-11.922,7.153-23.908,7.447l-3.338-13.2-6.192,11.986c-5.81-1.462-12.812-2.527-18.646-8.306l9.291-21.062L145.13,208.011l8.345-10.762s7.622-5.031,24.472-2.512S201,205.285,201,205.285Z" transform="translate(-128.775 -152.144)" fill="none"/>
            <path id="Path_44627" data-name="Path 44627" d="M201.58,257.27s-3.736,1.812-9.84,0" transform="translate(-138.339 -165.12)" fill="none" stroke="#263238" stroke-linecap="round" stroke-linejoin="round" stroke-width="1"/>
            <path id="Path_44628" data-name="Path 44628" d="M191.21,260.384A13.313,13.313,0,0,0,200.4,258" transform="translate(-138.23 -165.27)" fill="none" stroke="#263238" stroke-linecap="round" stroke-linejoin="round" stroke-width="1"/>
            <g id="Group_3417" data-name="Group 3417" transform="translate(30.074 4.517)" opacity="0.3">
              <path id="Path_44629" data-name="Path 44629" d="M162.82,150.238a9.872,9.872,0,0,1,5.142-2.551,17.787,17.787,0,0,1,7.424-.485,8.576,8.576,0,0,1,6.025,4.03" transform="translate(-162.478 -147.014)" fill="none" stroke="#fff" stroke-linecap="round" stroke-linejoin="round" stroke-width="1"/>
              <path id="Path_44630" data-name="Path 44630" d="M162.39,154.28A14.068,14.068,0,0,0,173.6,164.907" transform="translate(-162.39 -148.505)" fill="none" stroke="#fff" stroke-linecap="round" stroke-linejoin="round" stroke-width="1"/>
            </g>
            <path id="Path_44631" data-name="Path 44631" d="M215.46,208.19l12.033,17.335s2.249,6,1,11.747" transform="translate(-143.206 -155.049)" fill="none"/>
            <path id="Path_44632" data-name="Path 44632" d="M226.3,224.774l19.95-20.244,4.236,5.5s-10.452,22.255-20.18,32.516a3.585,3.585,0,0,1-5.095.064L209.66,227.4" transform="translate(-142.016 -154.298)" fill="none"/>
            <path id="Path_44633" data-name="Path 44633" d="M143.716,211.62s-5.913,24.186-5.452,36.831c0,0,8.107,7.416,18.559.318" transform="translate(-127.36 -155.753)" fill="none" stroke="#263238" stroke-linecap="round" stroke-linejoin="round" stroke-width="1"/>
            <path id="Path_44634" data-name="Path 44634" d="M155.805,244a20.792,20.792,0,0,1-2.885,7.614" transform="translate(-130.373 -162.397)" fill="none" stroke="#263238" stroke-linecap="round" stroke-linejoin="round" stroke-width="1"/>
            <path id="Path_44635" data-name="Path 44635" d="M150.763,156.441a19.274,19.274,0,0,0-1.192,6.764c-.421,10.6,1.137,21.2.89,31.792-.087,3.648-.413,7.392-1.971,10.69s-4.546,6.128-8.171,6.573a11.739,11.739,0,0,1-5.095-.668,15.3,15.3,0,0,1-6.549-4.173,16.588,16.588,0,0,1-3.72-8,22.875,22.875,0,0,1,.691-11.27c2.265-7.05,7.757-12.526,11.421-18.964a39.741,39.741,0,0,0,4.022-10.142c.691-2.853,1.224-6.049,3.521-7.885a7.741,7.741,0,0,1,5.429-1.407c1.311.1,4.61.23,4.26,2.17C154.046,153.317,151.423,154.891,150.763,156.441Z" transform="translate(-124.552 -143.048)" fill="#263238"/>
            <g id="Group_3418" data-name="Group 3418" transform="translate(4.992 9.673)" opacity="0.3">
              <path id="Path_44636" data-name="Path 44636" d="M155.451,153.5a9.315,9.315,0,0,0-5.691,3.608,15.451,15.451,0,0,0-2.273,5.333c-3.322,12.717-1.264,26.229-3.513,39.12-.684,3.91-1.908,8-4.944,10.555" transform="translate(-132.515 -153.5)" fill="none" stroke="#fff" stroke-linecap="round" stroke-linejoin="round" stroke-width="1"/>
              <path id="Path_44637" data-name="Path 44637" d="M139.05,189.375c.533-.795,1.089-1.59,1.645-2.384.342-.477.7-.97,1.033-1.47" transform="translate(-132.519 -160.07)" fill="none" stroke="#fff" stroke-linecap="round" stroke-linejoin="round" stroke-width="1"/>
              <path id="Path_44638" data-name="Path 44638" d="M132.555,217.5c-2.194-4.594-2.138-10.038-.7-14.919a33.962,33.962,0,0,1,2.814-6.676" transform="translate(-130.833 -162.202)" fill="none" stroke="#fff" stroke-linecap="round" stroke-linejoin="round" stroke-width="1"/>
            </g>
          </g>
          <g id="freepik--character-2--inject-64" transform="translate(247.592 122.366)">
            <path id="Path_44639" data-name="Path 44639" d="M325.969,214.922a11.175,11.175,0,0,0-.461-6.724,69.33,69.33,0,0,0-3.465-6.446s.294-5.007-.986-6.724-5.262-7.948-6.2-7.988-.795,4.252.795,7.106l-.262,1.939s-6.033-3.108-7.845-3.831-6.358-2.75-7.336-1.844,6.088,3.362,7.336,5.357c0,0-11.223-1.176-11.016.318s4.014,1.725,4.014,1.725-1.176.215-.85,1.145,8.552,2.8,8.552,2.8a19.759,19.759,0,0,0,9.021,7.447C323.561,211.838,325.969,214.922,325.969,214.922Z" transform="translate(-291.602 -147.125)" fill="#fff"/>
            <path id="Path_44640" data-name="Path 44640" d="M331.432,214.246c-.119-6.271-4.769-12.494-4.769-12.494s.389-5.564-1.733-7.837a15.624,15.624,0,0,1-1.041-1.232c-.326-.413-.652-.858-.978-1.311-1.5-2.074-2.885-4.252-3.434-4.332-.707-.1-.493,3.815.238,5.627a2.731,2.731,0,0,0,.3.572,1.589,1.589,0,0,1,.278.906c.056,1.375-.986,3.29.087,5.055" transform="translate(-296.222 -147.124)" fill="none" stroke="#263238" stroke-linecap="round" stroke-linejoin="round" stroke-width="1"/>
            <path id="Path_44641" data-name="Path 44641" d="M316.237,196.954s-13.385-7.463-15.7-5.278c0,0,7.153,3.426,7.853,4.96" transform="translate(-292.425 -147.994)" fill="none" stroke="#263238" stroke-linecap="round" stroke-linejoin="round" stroke-width="1"/>
            <path id="Path_44642" data-name="Path 44642" d="M310.8,202.076s-8.147-2.551-10.333-1.216,8.552,3.648,8.552,3.648,3.855,5.77,6.589,5.444" transform="translate(-292.349 -149.881)" fill="none" stroke="#263238" stroke-linecap="round" stroke-linejoin="round" stroke-width="1"/>
            <path id="Path_44643" data-name="Path 44643" d="M299.719,200.207s-3.283-.517-3.179-2.019,10.333-1.59,14.346,1.009" transform="translate(-291.604 -149.196)" fill="none" stroke="#263238" stroke-linecap="round" stroke-linejoin="round" stroke-width="1"/>
            <path id="Path_44644" data-name="Path 44644" d="M317.783,194.692a1.59,1.59,0,0,1,.278.906l-8.814,3.6a.795.795,0,0,1-.6-1.47l8.838-3.608a2.729,2.729,0,0,0,.3.572Z" transform="translate(-293.986 -148.577)" fill="#263238"/>
            <path id="Path_44645" data-name="Path 44645" d="M329.686,191.29l-4.769,1.955c-.326-.413-.652-.858-.978-1.311l5.174-2.114a.795.795,0,0,1,.6,1.47Z" transform="translate(-297.226 -147.687)" fill="#263238"/>
            <path id="Path_44646" data-name="Path 44646" d="M322.059,211.13,297.936,214l-7.606,6.6L308.563,255.8l26.411-1.788,1.868-8.711Z" transform="translate(-290.33 -152.068)" fill="#fff"/>
            <path id="Path_44647" data-name="Path 44647" d="M329.47,211.13l-3.02,6.033,15.936,36.847,1.868-8.711Z" transform="translate(-297.742 -152.068)" fill="#263238"/>
            <path id="Path_44648" data-name="Path 44648" d="M329.47,211.13l-3.02,6.033,15.936,36.847,1.868-8.711Z" transform="translate(-297.742 -152.068)" fill="#fff" opacity="0.9"/>
            <path id="Path_44649" data-name="Path 44649" d="M290.33,222.162l28.708-3.442,15.936,36.847-26.411,1.788Z" transform="translate(-290.33 -153.625)" fill="#263238"/>
            <path id="Path_44650" data-name="Path 44650" d="M290.33,222.162l28.708-3.442,15.936,36.847-26.411,1.788Z" transform="translate(-290.33 -153.625)" fill="#fff" opacity="0.6"/>
            <path id="Path_44651" data-name="Path 44651" d="M319.038,218.72l-28.708,3.442,18.233,35.194,26.411-1.788Z" transform="translate(-290.33 -153.625)" fill="none" stroke="#263238" stroke-linecap="round" stroke-linejoin="round" stroke-width="1"/>
            <line id="Line_211" data-name="Line 211" y1="6.033" x2="3.02" transform="translate(28.708 59.062)" fill="none" stroke="#263238" stroke-linecap="round" stroke-linejoin="round" stroke-width="1"/>
            <path id="Path_44652" data-name="Path 44652" d="M334.974,254.01l1.868-8.711L322.059,211.13,297.936,214l-7.606,6.6" transform="translate(-290.33 -152.068)" fill="none" stroke="#263238" stroke-linecap="round" stroke-linejoin="round" stroke-width="1"/>
            <path id="Path_44653" data-name="Path 44653" d="M309.531,247.487s-1.041-5.158-3.895-6.358-11.6-.31-11.922,1.462,3,3.72,3,3.72-.485,5.858,2.7,8.02,8.743,1.168,8.743,1.168l2.893.739,1.59-8.369Z" transform="translate(-291.02 -158.11)" fill="#fff"/>
            <path id="Path_44654" data-name="Path 44654" d="M310.625,247.3l-1.129.207s-1.176-6.088-4.379-6.621-11.755.215-11.429,2.345,2.988,3.1,2.988,3.1-.111,7.05,3.314,8.33a21.967,21.967,0,0,0,8.115.858c-.533-.238.437.119,1.55.4" transform="translate(-291.017 -158.14)" fill="none" stroke="#263238" stroke-linecap="round" stroke-linejoin="round" stroke-width="1"/>
            <path id="Path_44655" data-name="Path 44655" d="M398.016,415.44l.421,9.864s-6.978,4.268-10.221,3.179-13.718-6.629-13.718-6.629-.477-5.667,5.913-5.564,15.2,3.537,15.2,3.537Z" transform="translate(-307.599 -193.991)" fill="#0091ff"/>
            <path id="Path_44656" data-name="Path 44656" d="M398.016,415.44l.421,9.864s-6.978,4.268-10.221,3.179-13.718-6.629-13.718-6.629-.477-5.667,5.913-5.564,15.2,3.537,15.2,3.537Z" transform="translate(-307.599 -193.991)" opacity="0.2"/>
            <path id="Path_44657" data-name="Path 44657" d="M378.21,418.1a48.3,48.3,0,0,0,6.581,3.044,9.26,9.26,0,0,0,3.632.6l.993-.691,1.383-.691.477-1.526-4.046-.858S381.167,416.885,378.21,418.1Z" transform="translate(-308.362 -194.419)" fill="#fff"/>
            <path id="Path_44658" data-name="Path 44658" d="M375.1,420.61l-.6,2.3s8.028,5.691,12.606,6.359,11.334-2.9,11.334-2.9l-.064-1.486a20.921,20.921,0,0,1-7.948,2.512C386.6,427.565,375.1,420.61,375.1,420.61Z" transform="translate(-307.601 -195.051)" fill="#fff"/>
            <path id="Path_44659" data-name="Path 44659" d="M390.636,417.921s-9.721-1.311-12.987-.461a4.342,4.342,0,0,0-3.179,4.244s11.127,7.551,15.682,6.708a25.65,25.65,0,0,0,8.258-3.259V414.71" transform="translate(-307.595 -193.841)" fill="none" stroke="#263238" stroke-linecap="round" stroke-linejoin="round" stroke-width="1"/>
            <path id="Path_44660" data-name="Path 44660" d="M375.25,420.61s11.493,6.923,15.356,6.78,7.988-3.076,7.988-3.076" transform="translate(-307.755 -195.051)" fill="none" stroke="#263238" stroke-linecap="round" stroke-linejoin="round" stroke-width="1"/>
            <path id="Path_44661" data-name="Path 44661" d="M377.89,418.68c3.505.564,5.421,3.314,8.957,3.473a5.214,5.214,0,0,0,4.713-2.655" transform="translate(-308.297 -194.655)" fill="none" stroke="#263238" stroke-linecap="round" stroke-linejoin="round" stroke-width="1"/>
            <path id="Path_44662" data-name="Path 44662" d="M346.808,421.1l-.3,14.028s-7.741,1.923-12.033.31-13.122-12.979-13.122-12.979a6.515,6.515,0,0,1,8.266-2.988c5.627,2.154,13.289,5.874,13.289,5.874Z" transform="translate(-296.695 -194.71)" fill="#0091ff"/>
            <path id="Path_44663" data-name="Path 44663" d="M346.808,421.1l-.3,14.028s-7.741,1.923-12.033.31-13.122-12.979-13.122-12.979a6.515,6.515,0,0,1,8.266-2.988c5.627,2.154,13.289,5.874,13.289,5.874Z" transform="translate(-296.695 -194.71)" opacity="0.2"/>
            <path id="Path_44664" data-name="Path 44664" d="M321.36,422.9l.938-1.812s5.357,5.683,6.581,6.867,4.769,4.626,7.821,5.691,9.41-.056,9.41-.056l.405,1.979s-9.4,1.494-11.6.477S323.792,426.916,321.36,422.9Z" transform="translate(-296.697 -195.15)" fill="#fff"/>
            <path id="Path_44665" data-name="Path 44665" d="M327.21,418.728s3.577,2.933,4.769,3.974,3.235,2.655,5.214,2.607a9.267,9.267,0,0,0,4.093-1.462l-4.864-2.178S329.642,418.044,327.21,418.728Z" transform="translate(-297.897 -194.648)" fill="#fff"/>
            <path id="Path_44666" data-name="Path 44666" d="M336.263,422.423s-6.08-3.521-9.983-3.664a5.009,5.009,0,0,0-4.92,3.664s9.538,12.955,14.9,13.512a29.52,29.52,0,0,0,10.253-.866l.294-11.564" transform="translate(-296.697 -194.671)" fill="none" stroke="#263238" stroke-linecap="round" stroke-linejoin="round" stroke-width="1"/>
            <path id="Path_44667" data-name="Path 44667" d="M322.66,420.94s9.752,11.469,13.766,12.55,10.412,0,10.412,0" transform="translate(-296.964 -195.119)" fill="none" stroke="#263238" stroke-linecap="round" stroke-linejoin="round" stroke-width="1"/>
            <path id="Path_44668" data-name="Path 44668" d="M326,418.91a8.513,8.513,0,0,1,4.34,2.5,20.149,20.149,0,0,0,3.879,3.251,4.752,4.752,0,0,0,4.824.1" transform="translate(-297.649 -194.703)" fill="none" stroke="#263238" stroke-linecap="round" stroke-linejoin="round" stroke-width="1"/>
            <path id="Path_44669" data-name="Path 44669" d="M349.786,150.15s-5.564,4.928-6.08,8.282,1.272,7.28,1.121,8.743-3,4.4-2.512,5.285a15.612,15.612,0,0,0,2.225,2.5s-.342,7.2,3.974,9.784l2,.469,9.021-4.912,1.415,1.59,12.971-2.384a16.435,16.435,0,0,1-1.637-6.358c-.183-3.68,1.637-10.77,1.637-10.77l-3.648-7.582Z" transform="translate(-300.985 -139.555)" fill="#fff"/>
            <path id="Path_44670" data-name="Path 44670" d="M375.8,250.315l4.674,18.622s-3.632,1.876-8.576,4.236c-8.862,4.236-21.945,10.046-25.943,9.538-6.223-.858-20.808-16.015-20.808-16.015l8.886-19.33s-18.606.572-22.191-.628c0,0-.986-7.153,1.55-13.273l22.557,1.121.223-1.915s4.666-16.508,7.495-22.914,6.009-12.161,6.009-12.161l5.691-4.189-1.59-4.292s6.637-4.864,13.766-4.705h0a12.844,12.844,0,0,1,6.748,1.987l-1.327,4.514s12.216,14.307,14.084,19.139S380.092,240.268,375.8,250.315Z" transform="translate(-294.705 -146.584)" fill="#0091ff"/>
            <path id="Path_44671" data-name="Path 44671" d="M337.57,260.963l16.365,2.829S364.419,254.739,368.1,232c0,0-7.821,19.362-14.076,24.409l-14.672.628Z" transform="translate(-300.023 -156.35)" opacity="0.2"/>
            <path id="Path_44672" data-name="Path 44672" d="M387.082,250.318l4.673,18.622s-3.72,1.439-8.663,3.8a142.039,142.039,0,0,0-4.085-15.968,5.882,5.882,0,0,0-.914-1.971,7.3,7.3,0,0,0-1.828-1.987,18.649,18.649,0,0,1-6.08-5.429c3.632.739,7.948,2.472,11.644,2.281a1.979,1.979,0,0,0,1.3-.4,2.019,2.019,0,0,0,.469-1q2.321-8.942,4.634-17.867a22.183,22.183,0,0,0,1-6.215,22.313,22.313,0,0,0-2.106-7.646q-3.831-9.347-7.733-18.662a5.246,5.246,0,0,0-1.59-2.384,5.087,5.087,0,0,0-2.241-.731,87.235,87.235,0,0,0-8.918-1.367c3.116-2.591,7.678-3.68,11.692-4.2a14.521,14.521,0,0,0,.445-4.769h0a12.844,12.844,0,0,1,6.748,1.987l-1.327,4.515s12.216,14.307,14.084,19.139S391.374,240.271,387.082,250.318Z" transform="translate(-305.988 -146.587)" opacity="0.2"/>
            <path id="Path_44673" data-name="Path 44673" d="M350.789,167.239c.1.731-.087,1.359-.413,1.4s-.676-.509-.795-1.24.1-1.359.421-1.4S350.7,166.508,350.789,167.239Z" transform="translate(-302.481 -142.807)" fill="#263238"/>
            <path id="Path_44674" data-name="Path 44674" d="M369.168,173.545l4.459-1.224s1.121-4.769.62-7.606-4.308-3.076-5.452-2.988-.938,4.34-.938,4.34" transform="translate(-306.235 -141.928)" fill="none" stroke="#263238" stroke-linecap="round" stroke-linejoin="round" stroke-width="1"/>
            <path id="Path_44675" data-name="Path 44675" d="M347.964,151.8l-4.244,6.97a2.5,2.5,0,0,0-.318,1.812l1.439,6.963a2.52,2.52,0,0,1-.461,2.019,13.212,13.212,0,0,0-2.051,3.267c-.079.588.715,1.152,1.391,1.59a2.472,2.472,0,0,1,1.1,1.685c.382,2.265.548,4.562,2.146,7.066,2.09,3.283,4.713,2.257,4.713,2.257l7.948-4.769c.628-.405,2.488-7.026,2.488-7.026" transform="translate(-300.999 -139.894)" fill="none" stroke="#263238" stroke-linecap="round" stroke-linejoin="round" stroke-width="1"/>
            <path id="Path_44676" data-name="Path 44676" d="M347.27,162.3s2.535-3.06,4.967.2" transform="translate(-302.014 -141.782)" fill="none" stroke="#263238" stroke-linecap="round" stroke-linejoin="round" stroke-width="1"/>
            <path id="Path_44677" data-name="Path 44677" d="M349,180.538s6.494-4.228,7.463-6.358c0,0,.533,6.207-2.027,7.312S349,180.538,349,180.538Z" transform="translate(-302.369 -144.486)" fill="#263238"/>
            <path id="Path_44678" data-name="Path 44678" d="M380.818,182.046s-1.693-5.492-.707-9.156" transform="translate(-308.689 -144.221)" fill="none" stroke="#263238" stroke-linecap="round" stroke-linejoin="round" stroke-width="1"/>
            <path id="Path_44679" data-name="Path 44679" d="M332.107,291.37s-.27,24.122,1.733,54.452,4.864,52.362,4.864,52.362,6.581,5.436,11.731,0l8.87-78.686,20.029,73.25s3.974,3.505,7.392,1.788a11.5,11.5,0,0,0,4.9-4.9s-9.069-79.187-9.069-97.761c0,0-28.7,13.377-32.42,12.8S332.107,291.37,332.107,291.37Z" transform="translate(-298.9 -168.532)" fill="#263238"/>
            <path id="Path_44680" data-name="Path 44680" d="M366.33,324.509v-5.19l7.193-3.529" transform="translate(-305.925 -173.543)" fill="none" stroke="#fff" stroke-linecap="round" stroke-linejoin="round" stroke-width="1"/>
            <path id="Path_44681" data-name="Path 44681" d="M375.38,265.08s4.157,2.98,12.3,3.577" transform="translate(-307.782 -163.138)" fill="none" stroke="#263238" stroke-linecap="round" stroke-linejoin="round" stroke-width="1"/>
            <path id="Path_44682" data-name="Path 44682" d="M375.38,269.58a19.687,19.687,0,0,0,10.515,0" transform="translate(-307.782 -164.061)" fill="none" stroke="#263238" stroke-linecap="round" stroke-linejoin="round" stroke-width="1"/>
            <path id="Path_44683" data-name="Path 44683" d="M361.8,159.854c-.548-.429.588,4.34-2.527,4.562a2.186,2.186,0,0,1-1.868-.429,4.769,4.769,0,0,1-.9-1.852c-.54-1.749-1.089-3.5-1.629-5.246a5.548,5.548,0,0,0-1.741-3.028,8.409,8.409,0,0,0-2.289-.842c-1.788-.564-3.481-2-3.608-3.871,0,0-7.01.62-8.083-2.09-1.637-4.133.986-5.945,4.578-5.913s6.9,1.733,10.77.421,12.2-4.57,13.949-.572c0,0,3.02-1.335,4.824,3.68s5.953,15.1,2.178,18.209-2.893,5.015-4.681,4.769-2.321-2.949-2.321-2.949.954-6.358-3.084-7.36S361.8,159.854,361.8,159.854Z" transform="translate(-300.245 -137.281)" fill="#263238"/>
            <path id="Path_44684" data-name="Path 44684" d="M373.26,136.82a3.529,3.529,0,0,1,1.812,4.268" transform="translate(-307.347 -136.82)" fill="none" stroke="#263238" stroke-linecap="round" stroke-linejoin="round" stroke-width="1"/>
            <path id="Path_44685" data-name="Path 44685" d="M366.314,193.82l-1.3-4.189,4.26-2.281,1.081,4.5Z" transform="translate(-305.654 -147.188)" fill="#fff" opacity="0.6"/>
            <path id="Path_44686" data-name="Path 44686" d="M376.14,141.3a4.53,4.53,0,0,1,5.866.795" transform="translate(-307.938 -137.589)" fill="none" stroke="#263238" stroke-linecap="round" stroke-linejoin="round" stroke-width="1"/>
            <path id="Path_44687" data-name="Path 44687" d="M366.094,193.009l-1.494-3.974s6.358-3.974,12.8-4.626c2.79-.294,5.047,1.033,7.734,1.915l-1.327,4.514" transform="translate(-305.57 -146.576)" fill="none"/>
            <path id="Path_44688" data-name="Path 44688" d="M337.516,248.432l-8.886,19.33c4.22,5.333,18.821,15.244,20.808,16.015s34.518-13.734,34.518-13.734l-4.665-18.622s13.774-33.207,11.628-39.279S376.835,191.555,374.4,190.22s-8.616.89-8.616.89-8.7,3.426-11.779,6.5-10.332,20.554-11.795,28.128" transform="translate(-298.189 -147.69)" fill="none"/>
            <path id="Path_44689" data-name="Path 44689" d="M335.876,240.312l-22.557-1.121c-3.314,7.948-1.542,13.273-1.542,13.273,6.637,1.59,36.855,0,36.855,0,6.978-7.09,15.292-27.238,15.292-27.238a21.674,21.674,0,0,0-2.607-12.717" transform="translate(-294.634 -152.351)" fill="none"/>
            <path id="Path_44690" data-name="Path 44690" d="M361.676,204.9l-1.59,4.952s-18.122,26.133-17.669,31.236c0,0-.318-2.5,2.917-13.075a77.827,77.827,0,0,1,9.657-19.624Z" transform="translate(-301.016 -150.789)" fill="#fff" opacity="0.6"/>
            <path id="Path_44691" data-name="Path 44691" d="M343.96,245.016a11.676,11.676,0,0,1-1.661-7.511c.556-4.324,6.812-20.387,12.677-29.241l7.606-3.974" transform="translate(-300.977 -150.664)" fill="none"/>
            <line id="Line_212" data-name="Line 212" x1="1.009" y1="1.359" transform="translate(58.585 40.75)" fill="none" stroke="#263238" stroke-linecap="round" stroke-linejoin="round" stroke-width="1"/>
          </g>
        </g>
      </g>
    </g>
  </g>
</svg>
