<svg xmlns="http://www.w3.org/2000/svg" width="345" height="307" viewBox="0 0 345 307">
  <g id="Group_3429" data-name="Group 3429" transform="translate(-18390 -5786)">
    <g id="Group_3428" data-name="Group 3428">
      <g id="Group_3407" data-name="Group 3407" transform="translate(3138 860)">
        <g id="Group_903" data-name="Group 903" transform="translate(1154 674)">
          <rect id="Rectangle_1318" data-name="Rectangle 1318" width="345" height="307" transform="translate(14098 4252)" fill="#fff" opacity="0"/>
        </g>
      </g>
      <g id="Group_3423" data-name="Group 3423" transform="translate(-380.764 0)">
        <g id="Open_source-rafiki_1_" data-name="Open source-rafiki (1)" transform="translate(18748.852 5740.992)">
          <g id="freepik--background-complete--inject-57" transform="translate(0 54.95)">
            <rect id="Rectangle_3478" data-name="Rectangle 3478" width="25.787" height="0.195" transform="translate(324.504 267.48)" fill="#ebebeb"/>
            <rect id="Rectangle_3479" data-name="Rectangle 3479" width="6.766" height="0.195" transform="translate(251.121 269.598)" fill="#ebebeb"/>
            <rect id="Rectangle_3480" data-name="Rectangle 3480" width="14.941" height="0.195" transform="translate(308.784 260.254)" fill="#ebebeb"/>
            <rect id="Rectangle_3481" data-name="Rectangle 3481" width="33.628" height="0.195" transform="translate(40.845 261.562)" fill="#ebebeb"/>
            <rect id="Rectangle_3482" data-name="Rectangle 3482" width="4.929" height="0.195" transform="translate(81.41 261.562)" fill="#ebebeb"/>
            <rect id="Rectangle_3483" data-name="Rectangle 3483" width="72.939" height="0.195" transform="translate(102.362 264.848)" fill="#ebebeb"/>
            <path id="Path_44692" data-name="Path 44692" d="M192.988,275.188H42.656a4.446,4.446,0,0,1-4.446-4.446V59.407A4.446,4.446,0,0,1,42.656,55H192.988a4.446,4.446,0,0,1,4.446,4.446v211.3A4.446,4.446,0,0,1,192.988,275.188ZM42.656,55.156A4.259,4.259,0,0,0,38.4,59.407V270.742a4.259,4.259,0,0,0,4.251,4.251H192.988a4.259,4.259,0,0,0,4.251-4.251V59.407a4.259,4.259,0,0,0-4.251-4.251Z" transform="translate(-8.46 -54.961)" fill="#ebebeb"/>
            <path id="Path_44693" data-name="Path 44693" d="M409.293,275.188H258.946a4.454,4.454,0,0,1-4.446-4.446V59.407A4.454,4.454,0,0,1,258.946,55H409.293a4.446,4.446,0,0,1,4.43,4.407V270.742A4.446,4.446,0,0,1,409.293,275.188ZM258.946,55.156a4.259,4.259,0,0,0-4.251,4.251V270.742a4.259,4.259,0,0,0,4.251,4.251H409.293a4.259,4.259,0,0,0,4.251-4.251V59.407a4.259,4.259,0,0,0-4.251-4.251Z" transform="translate(-56.347 -54.961)" fill="#ebebeb"/>
            <rect id="Rectangle_3484" data-name="Rectangle 3484" width="316.531" height="0.195" transform="translate(40.846 254.952)" fill="#ebebeb"/>
            <path id="Path_44694" data-name="Path 44694" d="M213.628,330.66h2.787v40.1a.927.927,0,0,1-.927.927h-.942a.927.927,0,0,1-.927-.927v-40.1Z" transform="translate(-47.296 -115.993)" fill="#f0f0f0"/>
            <rect id="Rectangle_3485" data-name="Rectangle 3485" width="24.175" height="3.644" transform="translate(228.495 211.024)" fill="#e6e6e6"/>
            <path id="Path_44695" data-name="Path 44695" d="M235.818,330.66h2.787v40.1a.927.927,0,0,1-.927.927h-.942a.927.927,0,0,1-.927-.927v-40.1Z" transform="translate(-52.209 -115.993)" fill="#e6e6e6"/>
            <path id="Path_44696" data-name="Path 44696" d="M318.849,330.66h2.787v40.1a.927.927,0,0,1-.927.927h-.973a.927.927,0,0,1-.927-.927v-40.1Z" transform="translate(-70.585 -115.993)" fill="#e6e6e6"/>
            <rect id="Rectangle_3486" data-name="Rectangle 3486" width="70.666" height="3.644" transform="translate(164.72 211.024)" fill="#f5f5f5"/>
            <path id="Path_44697" data-name="Path 44697" d="M296.668,330.66h2.787v40.1a.927.927,0,0,1-.927.927h-.942a.927.927,0,0,1-.927-.927v-40.1Z" transform="translate(-65.681 -115.993)" fill="#f0f0f0"/>
            <path id="Path_44698" data-name="Path 44698" d="M315.966,325.284H309.55v-.568a1.946,1.946,0,0,1,2.056-1.946l2.515.132a1.947,1.947,0,0,1,1.845,1.947Z" transform="translate(-68.535 -114.245)" fill="#f0f0f0"/>
            <path id="Path_44699" data-name="Path 44699" d="M293.176,308.743a.95.95,0,0,0-.95-.9h-6.493a.942.942,0,0,0-.942.9l1.557,13.5h9.662Z" transform="translate(-63.053 -110.94)" fill="#e0e0e0"/>
            <path id="Path_44700" data-name="Path 44700" d="M316.7,282.29h-2.414L311.57,307.8h2.414a.825.825,0,0,0,.779-.724l2.562-24.059a.638.638,0,0,0-.623-.724Z" transform="translate(-68.982 -105.283)" fill="#e0e0e0"/>
            <path id="Path_44701" data-name="Path 44701" d="M302.886,307.8H266.7a.638.638,0,0,1-.646-.724l2.562-24.059a.825.825,0,0,1,.779-.724H305.58a.646.646,0,0,1,.646.724l-2.562,24.059A.825.825,0,0,1,302.886,307.8Z" transform="translate(-58.904 -105.283)" fill="#ebebeb"/>
            <path id="Path_44702" data-name="Path 44702" d="M302.635,305.675H268.509a.553.553,0,0,1-.561-.631l2.227-20.983a.716.716,0,0,1,.7-.631H305a.553.553,0,0,1,.561.631l-2.235,20.983a.709.709,0,0,1-.693.631Z" transform="translate(-59.323 -105.536)" fill="#fafafa"/>
            <path id="Path_44703" data-name="Path 44703" d="M296.139,325h-11.9a.529.529,0,0,0-.522.529h0a.522.522,0,0,0,.522.522h11.9a.522.522,0,0,0,.522-.522h0a.529.529,0,0,0-.522-.529Z" transform="translate(-62.816 -114.739)" fill="#e0e0e0"/>
            <rect id="Rectangle_3487" data-name="Rectangle 3487" width="20.173" height="1.503" transform="translate(209.552 209.521)" fill="#ebebeb"/>
            <rect id="Rectangle_3488" data-name="Rectangle 3488" width="7.864" height="7.864" transform="translate(221.582 184.05) rotate(45)" fill="#f0f0f0"/>
            <path id="Path_44704" data-name="Path 44704" d="M291.2,304.354l3.044-3.044,3.044,3.044Z" transform="translate(-64.472 -109.494)" fill="#ebebeb"/>
            <circle id="Ellipse_436" data-name="Ellipse 436" cx="3.761" cy="3.761" r="3.761" transform="translate(231.166 182.885)" fill="#e6e6e6"/>
            <rect id="Rectangle_3489" data-name="Rectangle 3489" width="29.696" height="39.514" transform="translate(170.544 216.326)" fill="#f5f5f5"/>
            <rect id="Rectangle_3490" data-name="Rectangle 3490" width="5.668" height="39.514" transform="translate(200.24 216.326)" fill="#e6e6e6"/>
            <rect id="Rectangle_3491" data-name="Rectangle 3491" width="25.686" height="9.592" transform="translate(172.623 219.261)" fill="#fafafa"/>
            <rect id="Rectangle_3492" data-name="Rectangle 3492" width="25.686" height="9.592" transform="translate(172.623 229.905)" fill="#fafafa"/>
            <rect id="Rectangle_3493" data-name="Rectangle 3493" width="25.686" height="9.6" transform="translate(172.623 240.548)" fill="#fafafa"/>
            <path id="Path_44705" data-name="Path 44705" d="M238.97,342.388a1.074,1.074,0,1,1-.507-1.006,1.074,1.074,0,0,1,.507,1.006Z" transform="translate(-52.433 -118.331)" fill="#ebebeb"/>
            <path id="Path_44706" data-name="Path 44706" d="M238.969,356.087a1.074,1.074,0,1,1-1.067-1.067A1.074,1.074,0,0,1,238.969,356.087Z" transform="translate(-52.432 -121.386)" fill="#ebebeb"/>
            <path id="Path_44707" data-name="Path 44707" d="M238.969,369.757a1.074,1.074,0,1,1-1.067-1.067A1.074,1.074,0,0,1,238.969,369.757Z" transform="translate(-52.432 -124.412)" fill="#ebebeb"/>
            <rect id="Rectangle_3494" data-name="Rectangle 3494" width="48.803" height="46.404" transform="translate(85.085 207.115)" fill="#f0f0f0"/>
            <rect id="Rectangle_3495" data-name="Rectangle 3495" width="6.657" height="46.404" transform="translate(133.888 207.115)" fill="#e6e6e6"/>
            <rect id="Rectangle_3496" data-name="Rectangle 3496" width="44.092" height="11.266" transform="translate(87.53 210.564)" fill="#fafafa"/>
            <rect id="Rectangle_3497" data-name="Rectangle 3497" width="44.092" height="11.266" transform="translate(87.53 223.061)" fill="#fafafa"/>
            <rect id="Rectangle_3498" data-name="Rectangle 3498" width="44.092" height="11.266" transform="translate(87.53 235.565)" fill="#fafafa"/>
            <path id="Path_44708" data-name="Path 44708" d="M156.512,382.88H112.786l-.366-2.32h44.092Z" transform="translate(-24.89 -127.04)" fill="#e6e6e6"/>
            <path id="Path_44709" data-name="Path 44709" d="M175.287,382.88H169.05v-2.32h6.6Z" transform="translate(-37.428 -127.04)" fill="#e0e0e0"/>
            <path id="Path_44710" data-name="Path 44710" d="M135.57,325.39l.132,1.5a.958.958,0,0,0,.958.872h5.692a.965.965,0,0,0,.958-.872l.125-1.5Z" transform="translate(-30.015 -114.826)" fill="#ebebeb"/>
            <path id="Path_44711" data-name="Path 44711" d="M135.57,341.44l.132,1.5a.958.958,0,0,0,.981.88h5.692a.965.965,0,0,0,.958-.88l.125-1.5Z" transform="translate(-30.015 -118.379)" fill="#ebebeb"/>
            <path id="Path_44712" data-name="Path 44712" d="M135.57,357.5l.132,1.5a.958.958,0,0,0,.958.872h5.692a.965.965,0,0,0,.958-.872l.125-1.5Z" transform="translate(-30.015 -121.935)" fill="#ebebeb"/>
            <path id="Path_44713" data-name="Path 44713" d="M383.758,303.918l-6.906-2.133a.452.452,0,0,1,.164-.88l7.949.42c-1.876-3.262-2.99-5.3-4.251-7.856a.444.444,0,0,1,.732-.5c1.7,1.908,3.114,3.457,5.4,5.9.545-3.161,1.176-6.073,1.962-9a.452.452,0,0,1,.88.156,63.79,63.79,0,0,0-.234,7.085l.218.07q2.873-3.262,6.011-6.276a.446.446,0,0,1,.654.607,83.669,83.669,0,0,0-5.614,8.059q4.1-1.557,8.23-3a.452.452,0,0,1,.374.818c-2.865,1.619-5.684,3.278-8.51,4.991l7.272,2.336a.452.452,0,0,1-.163.88l-7.475-.452c1.479,1.728,2.507,2.912,3.7,4.259a.452.452,0,0,1-.584.67l-4.742-3.177c.195,1.557.366,2.725.568,3.893a.452.452,0,0,1-.864.241c-.5-1.277-.95-2.546-1.557-4.236-2.172,10.394-1.6,20.462.491,30.794l-2.6-.475a80.818,80.818,0,0,1,1.222-30.482c-1.308,1.347-2.266,2.336-3.177,3.387a.445.445,0,0,1-.716-.529c.607-1.02,1.277-2.056,2.165-3.395l-5.668,1.261a.452.452,0,0,1-.3-.841C380.013,305.693,381.57,304.969,383.758,303.918Z" transform="translate(-83.367 -106.894)" fill="#ebebeb"/>
            <path id="Path_44714" data-name="Path 44714" d="M376.742,309.3l5.3-2.819a.6.6,0,0,0-.428-1.113l-6.54,1.6c1.067-3.068,1.736-5.139,2.4-7.412a.607.607,0,0,0-1.1-.475c-1.074,1.783-2.094,3.434-3.6,5.824-.919-2.445-1.853-4.711-2.889-6.945a.6.6,0,0,0-1.121.4c.452,1.767.825,3.55,1.113,5.3l-.195.109c-1.713-1.331-3.473-2.616-5.271-3.838a.6.6,0,0,0-.74.934q2.842,2.593,5.45,5.45c-2.336-.4-4.672-.779-6.968-1.152a.6.6,0,0,0-.288,1.16q3.854,1.331,7.693,2.772l-5.637,3.044a.6.6,0,0,0,.428,1.113l6.073-1.557c-.88,1.557-1.557,2.7-2.242,3.893a.6.6,0,0,0,.942.732l3.231-3.184c.062.919.1,1.705.132,2.445a.6.6,0,0,0,1.191.078c.148-.888.3-1.837.459-2.966,4.072,9.8,5.4,19.808,5.263,30.365l2.468-.942a80.787,80.787,0,0,0-6.891-29.719c.934.654,1.721,1.215,2.437,1.744a.6.6,0,0,0,.779-.9c-.483-.514-1.02-1.067-1.635-1.705l4.531.14a.6.6,0,0,0,.179-1.184C379.919,310.126,378.557,309.768,376.742,309.3Z" transform="translate(-80.026 -108.679)" fill="#f0f0f0"/>
            <path id="Path_44715" data-name="Path 44715" d="M391.916,317.5l-3.979-2.094a.42.42,0,0,1,.3-.779l4.866,1.191c-.779-2.281-1.285-3.8-1.767-5.5a.424.424,0,1,1,.779-.335c.779,1.331,1.557,2.546,2.678,4.329.685-1.83,1.386-3.519,2.164-5.185a.428.428,0,0,1,.779.288c-.35,1.339-.638,2.694-.849,4.018l.125.078q1.954-1.557,4-2.92a.428.428,0,0,1,.522.67,56.988,56.988,0,0,0-4.072,4.08q2.608-.452,5.217-.856a.421.421,0,1,1,.2.817c-1.915.662-3.823,1.347-5.738,2.063l4.2,2.273a.428.428,0,0,1-.3.779l-4.524-1.145c.662,1.16,1.16,2.024,1.682,2.9a.428.428,0,0,1-.662.522c-.74-.716-1.464-1.433-2.429-2.39-.047.716-.078,1.331-.1,1.908a.421.421,0,0,1-.841.055c-.117-.685-.226-1.409-.35-2.281a54.377,54.377,0,0,0-3.838,22.12l-1.8-.693a58.9,58.9,0,0,1,5.022-21.668c-.732.514-1.339.95-1.892,1.363a.428.428,0,0,1-.561-.638c.382-.4.779-.841,1.285-1.339l-3.41.1a.428.428,0,0,1-.125-.833C389.534,318.12,390.554,317.848,391.916,317.5Z" transform="translate(-85.842 -111.184)" fill="#f5f5f5"/>
            <path id="Path_44716" data-name="Path 44716" d="M389.685,375.924H376.223a1.775,1.775,0,0,1-1.775-1.666L373,351.032a1.791,1.791,0,0,1,1.783-1.892h16.312a1.791,1.791,0,0,1,1.783,1.892l-1.425,23.226A1.791,1.791,0,0,1,389.685,375.924Z" transform="translate(-82.582 -120.084)" fill="#ebebeb"/>
            <rect id="Rectangle_3499" data-name="Rectangle 3499" width="23.241" height="3.566" rx="1.783" transform="translate(288.665 226.876)" fill="#f5f5f5"/>
            <rect id="Rectangle_3500" data-name="Rectangle 3500" width="1.051" height="21.816" transform="translate(196.962)" fill="#e6e6e6"/>
            <path id="Path_44717" data-name="Path 44717" d="M210.88,99.487l33.3-20.127,33.293,20.127Z" transform="translate(-46.689 -60.354)" fill="#f0f0f0"/>
            <path id="Path_44718" data-name="Path 44718" d="M255.947,99.487l-2.3-20.127,14.965,20.127Z" transform="translate(-56.158 -60.354)" fill="#fafafa"/>
            <rect id="Rectangle_3501" data-name="Rectangle 3501" width="1.051" height="21.816" transform="translate(115.466)" fill="#e6e6e6"/>
            <path id="Path_44719" data-name="Path 44719" d="M106.21,99.487,139.5,79.36,172.8,99.487Z" transform="translate(-23.515 -60.354)" fill="#f0f0f0"/>
            <path id="Path_44720" data-name="Path 44720" d="M151.267,99.487l-2.3-20.127,14.965,20.127Z" transform="translate(-32.982 -60.354)" fill="#fafafa"/>
            <rect id="Rectangle_3502" data-name="Rectangle 3502" width="1.051" height="21.816" transform="translate(278.466)" fill="#e6e6e6"/>
            <path id="Path_44721" data-name="Path 44721" d="M315.56,99.487,348.853,79.36l33.293,20.127Z" transform="translate(-69.865 -60.354)" fill="#f0f0f0"/>
            <path id="Path_44722" data-name="Path 44722" d="M360.617,99.487l-2.3-20.127,14.965,20.127Z" transform="translate(-79.333 -60.354)" fill="#fafafa"/>
          </g>
          <g id="freepik--Shadow--inject-57" transform="translate(39.934 324.439)">
            <ellipse id="freepik--path--inject-57" cx="150.963" cy="8.814" rx="150.963" ry="8.814" fill="#f5f5f5" opacity="0.4"/>
          </g>
          <g id="freepik--Coding--inject-57" transform="translate(79.655 131.634)">
            <path id="Path_44723" data-name="Path 44723" d="M330.053,158.17l-171.144.039-1.292,1.168-.677,21.692h0l-.3,3.332-.724,7.895h0l-.545,6.3h0l-.311,3.535H111.329l-1.3,1.168-6.034,82.827a3.527,3.527,0,0,0,3.566,3.893H147.6l.319-3.7h-.21l.779-8.954h0l.545-6.307h0l.436-4.944h0l.553-6.307h0l.444-5.045.537-6.229h0l.218-2.484h43.944l-.779,8.689v.1h0L191.634,286.3h0l-.117,1.324v.444h0l-.171,1.931,42.644,1.183,1.292-1,1.074-12.792h0l.553-6.307h0l1.425-16.3.545-6.229h0l.218-2.484h43.975l1.2-13.711h0l.436-5.03.545-6.229h0l.553-6.307h0l1.106-12.668h40.246l2.406,1.168,1.292-1.168,3.364-39.413A4.376,4.376,0,0,0,330.053,158.17Z" transform="translate(-102.675 -154.487)" fill="#0091ff"/>
            <path id="Path_44724" data-name="Path 44724" d="M329.61,316.214h40.012a4.352,4.352,0,0,0,4.251-3.893l3.395-40.915-44.248-.156-1.331,1.036Z" transform="translate(-152.631 -179.523)" fill="#0091ff"/>
            <path id="Path_44725" data-name="Path 44725" d="M328.288,205.373,331.6,167.44H157.261l-3.317,37.933H112.281l-7.521,85.949h41.671l3.675-42.013h43.936l-3.675,42.013h43.944l3.675-42.013H281.93l-3.675,42.013h42.512l3.675-42.013H281.93l3.846-43.936Z" transform="translate(-102.849 -156.54)" fill="#0091ff"/>
            <path id="Path_44726" data-name="Path 44726" d="M328.288,205.373,331.6,167.44H157.261l-3.317,37.933H112.281l-7.521,85.949h41.671l3.675-42.013h43.936l-3.675,42.013h43.944l3.675-42.013H281.93l-3.675,42.013h42.512l3.675-42.013H281.93l3.846-43.936Z" transform="translate(-102.849 -156.54)" fill="#fff" opacity="0.8"/>
            <path id="Path_44727" data-name="Path 44727" d="M218.7,224.309H130.267a1.433,1.433,0,0,1-1.448-1.557l.28-3.114a1.767,1.767,0,0,1,1.721-1.557h88.457a1.425,1.425,0,0,1,1.44,1.557l-.272,3.114a1.767,1.767,0,0,1-1.744,1.557Z" transform="translate(-108.174 -167.751)" fill="#0091ff"/>
            <path id="Path_44728" data-name="Path 44728" d="M218.7,224.309H130.267a1.433,1.433,0,0,1-1.448-1.557l.28-3.114a1.767,1.767,0,0,1,1.721-1.557h88.457a1.425,1.425,0,0,1,1.44,1.557l-.272,3.114a1.767,1.767,0,0,1-1.744,1.557Z" transform="translate(-108.174 -167.751)" fill="#fff" opacity="0.5"/>
            <path id="Path_44729" data-name="Path 44729" d="M294.075,224.309H251.446A1.425,1.425,0,0,1,250,222.752l.273-3.114A1.767,1.767,0,0,1,252,218.08h42.628a1.425,1.425,0,0,1,1.448,1.557l-.272,3.114A1.767,1.767,0,0,1,294.075,224.309Z" transform="translate(-135.003 -167.751)" fill="#0091ff"/>
            <path id="Path_44730" data-name="Path 44730" d="M294.075,224.309H251.446A1.425,1.425,0,0,1,250,222.752l.273-3.114A1.767,1.767,0,0,1,252,218.08h42.628a1.425,1.425,0,0,1,1.448,1.557l-.272,3.114A1.767,1.767,0,0,1,294.075,224.309Z" transform="translate(-135.003 -167.751)" fill="#fff" opacity="0.5"/>
            <path id="Path_44731" data-name="Path 44731" d="M217.44,238.759H129.006a1.425,1.425,0,0,1-1.448-1.557l.273-3.114a1.767,1.767,0,0,1,1.721-1.557h88.433a1.425,1.425,0,0,1,1.448,1.557l-.273,3.114A1.767,1.767,0,0,1,217.44,238.759Z" transform="translate(-107.895 -170.951)" fill="#0091ff"/>
            <path id="Path_44732" data-name="Path 44732" d="M217.44,238.759H129.006a1.425,1.425,0,0,1-1.448-1.557l.273-3.114a1.767,1.767,0,0,1,1.721-1.557h88.433a1.425,1.425,0,0,1,1.448,1.557l-.273,3.114A1.767,1.767,0,0,1,217.44,238.759Z" transform="translate(-107.895 -170.951)" fill="#fff" opacity="0.5"/>
            <path id="Path_44733" data-name="Path 44733" d="M196.94,267.659H126.476a1.425,1.425,0,0,1-1.448-1.557l.272-3.114a1.767,1.767,0,0,1,1.728-1.557h70.455a1.425,1.425,0,0,1,1.448,1.557l-.273,3.114A1.767,1.767,0,0,1,196.94,267.659Z" transform="translate(-107.335 -177.349)" fill="#0091ff"/>
            <path id="Path_44734" data-name="Path 44734" d="M172.993,203.53h-4.15l-.553,6.3h4.119a1.767,1.767,0,0,0,1.721-1.557l.273-3.114a1.425,1.425,0,0,0-1.409-1.627Z" transform="translate(-116.915 -164.53)" fill="#0091ff"/>
            <path id="Path_44735" data-name="Path 44735" d="M220.394,189.08H170.143l-.553,6.3h50.251a1.767,1.767,0,0,0,1.721-1.557l.273-3.114a1.425,1.425,0,0,0-1.44-1.627Z" transform="translate(-117.202 -161.331)" fill="#0091ff"/>
            <path id="Path_44736" data-name="Path 44736" d="M220.394,189.08H170.143l-.553,6.3h50.251a1.767,1.767,0,0,0,1.721-1.557l.273-3.114a1.425,1.425,0,0,0-1.44-1.627Z" transform="translate(-117.202 -161.331)" fill="#fff" opacity="0.5"/>
            <path id="Path_44737" data-name="Path 44737" d="M288.449,246.88H128.291a1.767,1.767,0,0,0-1.721,1.557l-.273,3.114a1.425,1.425,0,0,0,1.44,1.557H287.9Z" transform="translate(-107.616 -174.128)" fill="#0091ff"/>
            <path id="Path_44738" data-name="Path 44738" d="M288.449,246.88H128.291a1.767,1.767,0,0,0-1.721,1.557l-.273,3.114a1.425,1.425,0,0,0,1.44,1.557H287.9Z" transform="translate(-107.616 -174.128)" fill="#fff" opacity="0.5"/>
            <path id="Path_44739" data-name="Path 44739" d="M316.539,232.43H250.731a1.767,1.767,0,0,0-1.721,1.557l-.273,3.114a1.425,1.425,0,0,0,1.44,1.557h65.807Z" transform="translate(-134.725 -170.928)" fill="#0091ff"/>
            <path id="Path_44740" data-name="Path 44740" d="M238.958,275.78H219l-.545,6.307h19.955a1.767,1.767,0,0,0,1.721-1.557l.273-3.114a1.425,1.425,0,0,0-1.44-1.635Z" transform="translate(-128.02 -180.526)" fill="#0091ff"/>
            <path id="Path_44741" data-name="Path 44741" d="M154.095,275.78H125.761a1.767,1.767,0,0,0-1.721,1.557l-.273,3.114a1.425,1.425,0,0,0,1.44,1.557h28.325Z" transform="translate(-107.056 -180.526)" fill="#0091ff"/>
            <g id="Group_3421" data-name="Group 3421" transform="translate(16.706 95.253)" opacity="0.5">
              <path id="Path_44742" data-name="Path 44742" d="M238.958,275.78H219l-.545,6.307h19.955a1.767,1.767,0,0,0,1.721-1.557l.273-3.114a1.425,1.425,0,0,0-1.44-1.635Z" transform="translate(-144.726 -275.78)" fill="#fff"/>
              <path id="Path_44743" data-name="Path 44743" d="M154.095,275.78H125.761a1.767,1.767,0,0,0-1.721,1.557l-.273,3.114a1.425,1.425,0,0,0,1.44,1.557h28.325Z" transform="translate(-123.762 -275.78)" fill="#fff"/>
            </g>
            <path id="Path_44744" data-name="Path 44744" d="M152.825,290.23H124.5a1.752,1.752,0,0,0-1.721,1.557l-.28,3.114a1.433,1.433,0,0,0,1.448,1.557h28.325Z" transform="translate(-106.775 -183.725)" fill="#0091ff"/>
            <path id="Path_44745" data-name="Path 44745" d="M152.825,290.23H124.5a1.752,1.752,0,0,0-1.721,1.557l-.28,3.114a1.433,1.433,0,0,0,1.448,1.557h28.325Z" transform="translate(-106.775 -183.725)" fill="#fff" opacity="0.5"/>
            <path id="Path_44746" data-name="Path 44746" d="M151.565,304.68H123.231a1.767,1.767,0,0,0-1.721,1.557l-.272,3.114a1.425,1.425,0,0,0,1.44,1.557h28.333Z" transform="translate(-106.496 -186.925)" fill="#0091ff"/>
            <path id="Path_44747" data-name="Path 44747" d="M222.772,304.68h-6.3l-.553,6.307h6.291a1.752,1.752,0,0,0,1.721-1.557l.28-3.114a1.425,1.425,0,0,0-1.44-1.635Z" transform="translate(-127.46 -186.925)" fill="#0091ff"/>
            <g id="Group_3422" data-name="Group 3422" transform="translate(14.736 117.755)" opacity="0.5">
              <path id="Path_44748" data-name="Path 44748" d="M151.565,304.68H123.231a1.767,1.767,0,0,0-1.721,1.557l-.272,3.114a1.425,1.425,0,0,0,1.44,1.557h28.333Z" transform="translate(-121.232 -304.68)" fill="#fff"/>
              <path id="Path_44749" data-name="Path 44749" d="M222.772,304.68h-6.3l-.553,6.307h6.291a1.752,1.752,0,0,0,1.721-1.557l.28-3.114a1.425,1.425,0,0,0-1.44-1.635Z" transform="translate(-142.196 -304.68)" fill="#fff"/>
            </g>
            <path id="Path_44750" data-name="Path 44750" d="M348.024,163.633a3.519,3.519,0,0,0-3.566-3.893H172.6l-.958,10.986H341.118a2.336,2.336,0,0,1,2.336,2.585l-2.663,30.365h3.7Z" transform="translate(-117.656 -154.835)" fill="#0091ff"/>
            <path id="Path_44751" data-name="Path 44751" d="M348.024,163.633a3.519,3.519,0,0,0-3.566-3.893H172.6l-.958,10.986H341.118a2.336,2.336,0,0,1,2.336,2.585l-2.663,30.365h3.7Z" transform="translate(-117.656 -154.835)" fill="#fff" opacity="0.3"/>
            <path id="Path_44752" data-name="Path 44752" d="M371.462,272.59l-3.293,37.692a2.881,2.881,0,0,1-2.819,2.585H327.7l-.327,3.7h40.036a4.352,4.352,0,0,0,4.251-3.893l3.5-40.035Z" transform="translate(-152.135 -179.82)" fill="#0091ff"/>
            <path id="Path_44753" data-name="Path 44753" d="M371.462,272.59l-3.293,37.692a2.881,2.881,0,0,1-2.819,2.585H327.7l-.327,3.7h40.036a4.352,4.352,0,0,0,4.251-3.893l3.5-40.035Z" transform="translate(-152.135 -179.82)" fill="#fff" opacity="0.3"/>
            <path id="Path_44754" data-name="Path 44754" d="M113.373,216.16l-7.14,81.628a2.336,2.336,0,0,0,2.336,2.585h37.653l-.327,3.7h-40a3.527,3.527,0,0,1-3.574-3.893l7.334-83.972Z" transform="translate(-102.305 -167.326)" fill="#0091ff"/>
            <path id="Path_44755" data-name="Path 44755" d="M113.373,216.16l-7.14,81.628a2.336,2.336,0,0,0,2.336,2.585h37.653l-.327,3.7h-40a3.527,3.527,0,0,1-3.574-3.893l7.334-83.972Z" transform="translate(-102.305 -167.326)" fill="#fff" opacity="0.3"/>
            <path id="Path_44756" data-name="Path 44756" d="M258.763,324.28H214.819l-.319,3.7h43.936Z" transform="translate(-127.145 -191.264)" fill="#0091ff"/>
            <path id="Path_44757" data-name="Path 44757" d="M258.763,324.28H214.819l-.319,3.7h43.936Z" transform="translate(-127.145 -191.264)" fill="#fff" opacity="0.3"/>
            <path id="Path_44758" data-name="Path 44758" d="M263.472,304.68h-31.72a1.767,1.767,0,0,0-1.721,1.557l-.273,3.114a1.425,1.425,0,0,0,1.44,1.557h31.728Z" transform="translate(-130.522 -186.925)" fill="#0091ff"/>
            <path id="Path_44759" data-name="Path 44759" d="M332.255,304.68h-2.912l-.553,6.307H331.7a1.767,1.767,0,0,0,1.721-1.557l.272-3.114a1.425,1.425,0,0,0-1.44-1.635Z" transform="translate(-152.449 -186.925)" fill="#0091ff"/>
            <path id="Path_44760" data-name="Path 44760" d="M269.883,275.78H251.811a1.767,1.767,0,0,0-1.721,1.557l-.272,3.114a1.425,1.425,0,0,0,1.448,1.557H269.33Z" transform="translate(-134.964 -180.526)" fill="#0091ff"/>
            <path id="Path_44761" data-name="Path 44761" d="M397.989,175.616h0a.381.381,0,0,1-.35-.42l1.425-16.351a3.971,3.971,0,0,0-4.018-4.407H381.809a.389.389,0,0,1-.389-.389.4.4,0,0,1,.389-.389h13.236a4.742,4.742,0,0,1,4.8,5.248l-1.433,16.351a.389.389,0,0,1-.42.358Z" transform="translate(-164.102 -153.489)" fill="#0091ff"/>
            <path id="Path_44762" data-name="Path 44762" d="M377.03,154.459h-3.34a.389.389,0,0,1-.389-.389.4.4,0,0,1,.389-.389h3.34a.389.389,0,0,1,0,.779Z" transform="translate(-162.304 -153.493)" fill="#0091ff"/>
            <path id="Path_44763" data-name="Path 44763" d="M270.338,338.079h-5a.4.4,0,0,1-.389-.389.389.389,0,0,1,.389-.389h5a.389.389,0,0,1,.389.389.4.4,0,0,1-.389.389Z" transform="translate(-138.315 -194.147)" fill="#0091ff"/>
            <path id="Path_44764" data-name="Path 44764" d="M249.822,338.079H213.889a.4.4,0,0,1-.389-.389.389.389,0,0,1,.389-.389h35.917a.389.389,0,0,1,.016.779Z" transform="translate(-126.924 -194.147)" fill="#0091ff"/>
            <path id="Path_44765" data-name="Path 44765" d="M231.663,167.962a1.8,1.8,0,0,1-.709-.74,2,2,0,0,1-.187-1.059,2.141,2.141,0,0,1,.374-1.059,2.25,2.25,0,0,1,.833-.74,2.39,2.39,0,0,1,1.129-.265,2.087,2.087,0,0,1,1.067.265,1.752,1.752,0,0,1,.709.74,1.915,1.915,0,0,1,.179,1.059,2.188,2.188,0,0,1-.366,1.059,2.25,2.25,0,0,1-.833.74,2.382,2.382,0,0,1-1.121.265A2.118,2.118,0,0,1,231.663,167.962Zm1.939-.452a1.674,1.674,0,0,0,.88-1.347,1.409,1.409,0,0,0-.132-.779,1.308,1.308,0,0,0-.514-.553,1.433,1.433,0,0,0-.779-.2,1.682,1.682,0,0,0-.825.2,1.744,1.744,0,0,0-.615.553,1.643,1.643,0,0,0-.272.779,1.5,1.5,0,0,0,.14.779,1.261,1.261,0,0,0,.514.553,1.464,1.464,0,0,0,.779.2A1.635,1.635,0,0,0,233.6,167.51Z" transform="translate(-130.745 -155.8)" fill="#fff"/>
            <path id="Path_44766" data-name="Path 44766" d="M239.741,165.557a1.254,1.254,0,0,1,.5.545,1.557,1.557,0,0,1,.132.779,1.822,1.822,0,0,1-.273.818,1.635,1.635,0,0,1-.6.553,1.775,1.775,0,0,1-.779.195,1.3,1.3,0,0,1-.592-.132,1,1,0,0,1-.436-.366l-.14,1.557H237l.366-4.173h.529l-.039.483a1.261,1.261,0,0,1,.5-.382,1.44,1.44,0,0,1,.638-.132A1.5,1.5,0,0,1,239.741,165.557Zm-.522,2.336a1.059,1.059,0,0,0,.4-.382,1.331,1.331,0,0,0,.187-.561,1.183,1.183,0,0,0-.086-.561.888.888,0,0,0-.335-.382,1.121,1.121,0,0,0-1.456.382,1.331,1.331,0,0,0-.187.561,1.1,1.1,0,0,0,.086.561.779.779,0,0,0,.335.382.942.942,0,0,0,.514.14,1.066,1.066,0,0,0,.537-.171Z" transform="translate(-132.127 -156.066)" fill="#fff"/>
            <path id="Path_44767" data-name="Path 44767" d="M244.969,167.139h-2.484a.856.856,0,0,0,.3.646,1.082,1.082,0,0,0,.732.249,1.246,1.246,0,0,0,.919-.374l.273.358a1.4,1.4,0,0,1-.553.366,1.83,1.83,0,0,1-.693.132,1.728,1.728,0,0,1-.849-.2,1.292,1.292,0,0,1-.529-.553,1.557,1.557,0,0,1-.132-.779,1.783,1.783,0,0,1,.265-.779,1.65,1.65,0,0,1,.6-.561,1.682,1.682,0,0,1,.779-.195,1.448,1.448,0,0,1,.779.195,1.215,1.215,0,0,1,.483.561,1.651,1.651,0,0,1,.125.818C244.985,167.015,244.977,167.069,244.969,167.139ZM242.89,166.1a1.09,1.09,0,0,0-.374.638h1.962a.9.9,0,0,0-.257-.638.872.872,0,0,0-.677-.226,1.028,1.028,0,0,0-.654.226Z" transform="translate(-133.221 -156.099)" fill="#fff"/>
            <path id="Path_44768" data-name="Path 44768" d="M249.475,165.717a1.23,1.23,0,0,1,.257.989l-.156,1.76h-.553l.148-1.7a.825.825,0,0,0-.156-.662.716.716,0,0,0-.592-.226,1.051,1.051,0,0,0-.732.257,1.152,1.152,0,0,0-.327.779l-.132,1.557h-.553l.265-3.052h.529v.459a1.261,1.261,0,0,1,.483-.366,1.674,1.674,0,0,1,.662-.125,1.16,1.16,0,0,1,.856.327Z" transform="translate(-134.27 -156.085)" fill="#fff"/>
            <path id="Path_44769" data-name="Path 44769" d="M254.031,168.086a1.627,1.627,0,0,1-.631-.366l.249-.452a1.635,1.635,0,0,0,.561.343,2.1,2.1,0,0,0,.732.125,1.371,1.371,0,0,0,.779-.171.568.568,0,0,0,.288-.452.4.4,0,0,0-.1-.335.9.9,0,0,0-.319-.2c-.132-.047-.311-.093-.553-.156a4.46,4.46,0,0,1-.716-.218,1.051,1.051,0,0,1-.444-.335.825.825,0,0,1-.148-.615,1.113,1.113,0,0,1,.218-.584,1.378,1.378,0,0,1,.553-.413,2.141,2.141,0,0,1,.88-.156,2.608,2.608,0,0,1,.693.093,1.557,1.557,0,0,1,.568.265l-.226.459a2.142,2.142,0,0,0-.522-.249,1.985,1.985,0,0,0-.561-.078,1.261,1.261,0,0,0-.779.179.592.592,0,0,0-.288.459.389.389,0,0,0,.109.335.864.864,0,0,0,.327.2,5.546,5.546,0,0,0,.537.156,5.082,5.082,0,0,1,.716.218,1.051,1.051,0,0,1,.444.335.779.779,0,0,1,.148.607,1.059,1.059,0,0,1-.226.576,1.215,1.215,0,0,1-.561.42,2.273,2.273,0,0,1-.872.148A2.694,2.694,0,0,1,254.031,168.086Z" transform="translate(-135.758 -155.8)" fill="#fff"/>
            <path id="Path_44770" data-name="Path 44770" d="M258.814,168.313a1.277,1.277,0,0,1-.514-.561,1.44,1.44,0,0,1-.132-.779,1.643,1.643,0,0,1,.273-.779,1.557,1.557,0,0,1,.615-.561,1.783,1.783,0,0,1,.841-.195,1.557,1.557,0,0,1,.779.195,1.254,1.254,0,0,1,.522.561,1.557,1.557,0,0,1,.132.779,1.682,1.682,0,0,1-.28.779,1.612,1.612,0,0,1-.607.561,1.814,1.814,0,0,1-.841.2,1.557,1.557,0,0,1-.786-.2Zm1.386-.42a1.114,1.114,0,0,0,.4-.382,1.222,1.222,0,0,0,.179-.561,1.1,1.1,0,0,0-.086-.561.841.841,0,0,0-.335-.382,1.012,1.012,0,0,0-.514-.132,1.144,1.144,0,0,0-.537.132,1.183,1.183,0,0,0-.4.382,1.331,1.331,0,0,0-.187.561,1.183,1.183,0,0,0,.086.561.864.864,0,0,0,.343.382.942.942,0,0,0,.514.14,1.067,1.067,0,0,0,.506-.14Z" transform="translate(-136.812 -156.097)" fill="#fff"/>
            <path id="Path_44771" data-name="Path 44771" d="M266.135,165.418l-.273,3.052h-.506l.039-.459a1.238,1.238,0,0,1-.475.366,1.44,1.44,0,0,1-.607.132,1.238,1.238,0,0,1-.934-.343,1.2,1.2,0,0,1-.265-.989l.156-1.76h.529l-.148,1.69a.9.9,0,0,0,.156.677.779.779,0,0,0,.592.226,1,1,0,0,0,.716-.265,1.184,1.184,0,0,0,.319-.779l.132-1.557Z" transform="translate(-137.905 -156.09)" fill="#fff"/>
            <path id="Path_44772" data-name="Path 44772" d="M269.246,165.52a1.6,1.6,0,0,1,.7-.14l-.047.537h-.132a1,1,0,0,0-.724.273,1.137,1.137,0,0,0-.327.779l-.132,1.557H268l.265-3.052h.529l-.039.514A1.059,1.059,0,0,1,269.246,165.52Z" transform="translate(-138.99 -156.083)" fill="#fff"/>
            <path id="Path_44773" data-name="Path 44773" d="M271.459,168.306a1.269,1.269,0,0,1-.529-.561,1.44,1.44,0,0,1-.132-.779,1.666,1.666,0,0,1,.9-1.363,1.845,1.845,0,0,1,.856-.195,1.557,1.557,0,0,1,.724.164,1.043,1.043,0,0,1,.459.491l-.444.265a.942.942,0,0,0-.327-.327,1.012,1.012,0,0,0-.467-.109,1.176,1.176,0,0,0-.545.132,1.144,1.144,0,0,0-.413.382,1.332,1.332,0,0,0-.187.561,1.113,1.113,0,0,0,.093.568.779.779,0,0,0,.335.374,1.012,1.012,0,0,0,.529.14,1.1,1.1,0,0,0,.872-.444l.4.265a1.441,1.441,0,0,1-.545.491,1.76,1.76,0,0,1-.779.171A1.635,1.635,0,0,1,271.459,168.306Z" transform="translate(-139.608 -156.09)" fill="#fff"/>
            <path id="Path_44774" data-name="Path 44774" d="M277.989,167.133h-2.484a.856.856,0,0,0,.3.646,1.082,1.082,0,0,0,.732.249,1.246,1.246,0,0,0,.919-.374l.272.358a1.4,1.4,0,0,1-.553.366,1.845,1.845,0,0,1-.7.132,1.721,1.721,0,0,1-.841-.2,1.292,1.292,0,0,1-.529-.553,1.479,1.479,0,0,1-.132-.779,1.783,1.783,0,0,1,.265-.779,1.619,1.619,0,0,1,1.4-.779,1.456,1.456,0,0,1,.779.195,1.261,1.261,0,0,1,.483.561,1.651,1.651,0,0,1,.125.818A.331.331,0,0,0,277.989,167.133ZM275.91,166.1a1.09,1.09,0,0,0-.374.638H277.5a.9.9,0,0,0-.257-.638.872.872,0,0,0-.646-.241,1.028,1.028,0,0,0-.685.241Z" transform="translate(-140.531 -156.092)" fill="#fff"/>
            <path id="Path_44775" data-name="Path 44775" d="M174.119,154.219h4.991a.389.389,0,1,0,0-.779h-4.991a.389.389,0,1,0,0,.779Z" transform="translate(-118.119 -153.44)" fill="#0091ff"/>
            <path id="Path_44776" data-name="Path 44776" d="M185.829,154.219h35.917a.389.389,0,1,0,0-.779H185.829a.389.389,0,1,0,0,.779Z" transform="translate(-120.712 -153.44)" fill="#0091ff"/>
          </g>
          <g id="freepik--character-4--inject-57" transform="translate(264.755 164.897)">
            <path id="Path_44777" data-name="Path 44777" d="M397.61,207.68l14.061,160.765h2.219l-.592-6.766h31l.592,6.766h2.219L433.036,207.68h-2.219l.592,6.758H400.421l-.592-6.758Zm3.005,8.977H431.6l1.923,21.956h-31Zm2.11,24.137h31l1.915,21.949H404.656Zm2.118,24.137h30.988l1.923,21.949H406.766Zm2.118,24.137h30.988l1.923,21.956h-31Zm2.11,24.175h31l1.915,21.949H410.994Zm35.037,46.116h-31l-1.915-21.949h30.988Z" transform="translate(-352.786 -198.712)" fill="#263238"/>
            <path id="Path_44778" data-name="Path 44778" d="M397.61,207.68l14.061,160.765h2.219l-.592-6.766h31l.592,6.766h2.219L433.036,207.68h-2.219l.592,6.758H400.421l-.592-6.758Zm3.005,8.977H431.6l1.923,21.956h-31Zm2.11,24.137h31l1.915,21.949H404.656Zm2.118,24.137h30.988l1.923,21.949H406.766Zm2.118,24.137h30.988l1.923,21.956h-31Zm2.11,24.175h31l1.915,21.949H410.994Zm35.037,46.116h-31l-1.915-21.949h30.988Z" transform="translate(-352.786 -198.712)" fill="#fff" opacity="0.3"/>
            <path id="Path_44779" data-name="Path 44779" d="M417.834,218.748l-3.948,3.722-7.576-1.752v-1.495a.631.631,0,0,0-.9-.568s-.366.257-.506.234c-.631-.086-1.939-1.651-1.939-1.651a.654.654,0,0,0-.638-.109l-.537.21a.623.623,0,0,0-.389.724l.856,3.792a.631.631,0,0,0,.506.483l2.39.42s6.828,4.2,9.3,3.628,6.167-4.041,6.167-4.041Z" transform="translate(-353.623 -200.795)" fill="#7f3e3b"/>
            <path id="Path_44780" data-name="Path 44780" d="M346.45,210.15l-1.721,1.043-2.71,43.018,42.364,1.331,1.542-.927,4.243-44.108Z" transform="translate(-340.478 -199.259)" fill="#0091ff"/>
            <path id="Path_44781" data-name="Path 44781" d="M386.772,211.887l-42.48-.4-4.251,43.944,42.48.389Z" transform="translate(-340.04 -199.555)" fill="#0091ff"/>
            <path id="Path_44782" data-name="Path 44782" d="M386.772,211.887l-42.48-.4-4.251,43.944,42.48.389Z" transform="translate(-340.04 -199.555)" fill="#fff" opacity="0.8"/>
            <path id="Path_44783" data-name="Path 44783" d="M366.4,227.94l-22.579-.21-.615,6.307,22.579.21a1.767,1.767,0,0,0,1.736-1.557l.3-3.114a1.433,1.433,0,0,0-1.425-1.635Z" transform="translate(-340.742 -203.151)" fill="#0091ff"/>
            <path id="Path_44784" data-name="Path 44784" d="M343.268,242.22h-.911l-.607,6.307h.9a1.76,1.76,0,0,0,1.736-1.557l.3-3.114a1.425,1.425,0,0,0-1.425-1.635Z" transform="translate(-340.419 -206.359)" fill="#0091ff"/>
            <path id="Path_44785" data-name="Path 44785" d="M343.268,242.22h-.911l-.607,6.307h.9a1.76,1.76,0,0,0,1.736-1.557l.3-3.114a1.425,1.425,0,0,0-1.425-1.635Z" transform="translate(-340.419 -206.359)" fill="#fff" opacity="0.5"/>
            <path id="Path_44786" data-name="Path 44786" d="M391.69,255.906l3.691.039L399.632,212l-3.691-.031Z" transform="translate(-351.475 -199.662)" fill="#0091ff"/>
            <path id="Path_44787" data-name="Path 44787" d="M391.69,255.906l3.691.039L399.632,212l-3.691-.031Z" transform="translate(-351.475 -199.662)" fill="#fff" opacity="0.3"/>
            <path id="Path_44788" data-name="Path 44788" d="M413.71,197.72s-2.857.226-2.85,2.2c0,1.254.989-.818,2.39-1.456S413.71,197.72,413.71,197.72Z" transform="translate(-355.72 -196.507)" fill="#263238"/>
            <path id="Path_44789" data-name="Path 44789" d="M428.6,282.645s1.4,4.749,2.04,6.268c3.325,8,10.052,19.59,14.3,31.6l3.418-1.324a153.375,153.375,0,0,0-5.131-18.017c-1.705-4.874-4.672-9.818-6.462-15.159a49.958,49.958,0,0,1-.973-6.229Z" transform="translate(-359.647 -214.675)" fill="#7f3e3b"/>
            <path id="Path_44790" data-name="Path 44790" d="M429.37,244.7s3.768,3.784,4.43,8.642-.779,13.01,1.479,21.8l-8.728,2.39s-7.07-24.7-7.732-30.669Z" transform="translate(-357.482 -206.908)" fill="#263238"/>
            <path id="Path_44791" data-name="Path 44791" d="M425.1,270.282l2.258-7.84,2.725-4.391a44.848,44.848,0,0,1-.779,13.174c-.74,3.278-1.355,5.972-1.783,7.864C427.039,277.313,426.12,274.05,425.1,270.282Z" transform="translate(-358.872 -209.864)" opacity="0.4"/>
            <path id="Path_44792" data-name="Path 44792" d="M417.981,336.3a1.666,1.666,0,0,1-1.129-.327.35.35,0,0,1,0-.4.467.467,0,0,1,.3-.2c.646-.164,1.978.638,2.032.677a.078.078,0,0,1,.047.093.093.093,0,0,1-.078.07,6.673,6.673,0,0,1-1.168.086Zm-.592-.779a.663.663,0,0,0-.179,0,.226.226,0,0,0-.179.117c-.078.117-.055.171,0,.2.171.257,1.145.288,1.861.218a4.22,4.22,0,0,0-1.5-.529Z" transform="translate(-357.033 -226.978)" fill="#0091ff"/>
            <path id="Path_44793" data-name="Path 44793" d="M419.446,335.959h-.039c-.452-.218-1.363-1.082-1.269-1.51,0-.109.093-.234.35-.249a.678.678,0,0,1,.5.164,2.678,2.678,0,0,1,.568,1.51.079.079,0,0,1-.109.086Zm-.9-1.557h-.055c-.163,0-.179.07-.187.093,0,.265.568.934,1.036,1.23a2.118,2.118,0,0,0-.483-1.2.459.459,0,0,0-.311-.125Z" transform="translate(-357.33 -226.723)" fill="#0091ff"/>
            <path id="Path_44794" data-name="Path 44794" d="M418.683,335.778l4.22.109a.335.335,0,0,1,.319.272l.677,3.441a.56.56,0,0,1-.436.67h-.117c-1.557-.062-2.873-.179-4.765-.218-2.227-.055-1.674.226-4.3.195-1.557,0-1.822-1.822-1.152-1.892,3.075-.311,3.418-1.23,4.633-2.336a1.323,1.323,0,0,1,.919-.241Z" transform="translate(-356.146 -227.071)" fill="#263238"/>
            <path id="Path_44795" data-name="Path 44795" d="M447.258,332.978a1.666,1.666,0,0,1-1.168.093.35.35,0,0,1-.125-.382.444.444,0,0,1,.2-.3c.553-.382,2.071-.093,2.141-.078a.086.086,0,0,1,.07.07.1.1,0,0,1-.039.1,7.1,7.1,0,0,1-1.082.49Zm-.825-.514-.164.078a.3.3,0,0,0-.125.179c0,.132,0,.179.047.195.257.179,1.176-.132,1.822-.452A4.15,4.15,0,0,0,446.433,332.464Z" transform="translate(-363.489 -226.28)" fill="#0091ff"/>
            <path id="Path_44796" data-name="Path 44796" d="M448.5,332.18h-.039c-.506-.039-1.651-.529-1.721-.965a.327.327,0,0,1,.241-.35.662.662,0,0,1,.529,0c.6.218,1.036,1.176,1.059,1.215a.1.1,0,0,1,0,.093A.07.07,0,0,1,448.5,332.18Zm-1.409-1.168h-.047c-.148.062-.14.132-.14.156.062.257.856.677,1.4.779a2.149,2.149,0,0,0-.872-.95.475.475,0,0,0-.343,0Z" transform="translate(-363.664 -225.973)" fill="#0091ff"/>
            <path id="Path_44797" data-name="Path 44797" d="M447.994,331.343l3.979-1.378a.358.358,0,0,1,.4.14l1.837,3a.561.561,0,0,1-.179.779l-.1.047c-1.448.475-2.748.841-4.539,1.464-2.11.732-1.487.779-3.955,1.69-1.487.537-2.336-1.067-1.744-1.37,2.772-1.37,2.772-2.336,3.527-3.776A1.425,1.425,0,0,1,447.994,331.343Z" transform="translate(-362.948 -225.782)" fill="#263238"/>
            <path id="Path_44798" data-name="Path 44798" d="M415.583,283.284s-.132,4.944,0,6.587c.693,8.642,3.512,21.731,3.846,34.469h3.62a154.337,154.337,0,0,0,.615-21.248c-.179-4.461-1.363-9.164-1.386-13.882a49.834,49.834,0,0,1,.989-6.229Z" transform="translate(-356.752 -215.383)" fill="#7f3e3b"/>
            <path id="Path_44799" data-name="Path 44799" d="M424.368,245.86a20.065,20.065,0,0,1,1.97,16.958c-3.4,10.161-2.546,15.152-2.546,15.152h-9.476s0-13.291-.4-17.7c-.3-3.114-1.074-6.509-.825-12.458Z" transform="translate(-356.202 -207.165)" fill="#263238"/>
            <path id="Path_44800" data-name="Path 44800" d="M424.148,284.67l.288,2.258H414.19V284.67Z" transform="translate(-356.457 -215.757)" fill="#263238"/>
            <path id="Path_44801" data-name="Path 44801" d="M424.148,284.67l.288,2.258H414.19V284.67Z" transform="translate(-356.457 -215.757)" fill="#fff" opacity="0.4"/>
            <path id="Path_44802" data-name="Path 44802" d="M437.25,281.18l-9.53,2.834.685,2.141,9.483-2.756Z" transform="translate(-359.452 -214.985)" fill="#263238"/>
            <path id="Path_44803" data-name="Path 44803" d="M437.25,281.18l-9.53,2.834.685,2.141,9.483-2.756Z" transform="translate(-359.452 -214.985)" fill="#fff" opacity="0.4"/>
            <path id="Path_44804" data-name="Path 44804" d="M421.757,214.728s-2.133-.226-2.094-4.142c0,0-1.97-.9-3.247.257s1.152,3.893-.436,5.006C416,215.833,417.374,216.768,421.757,214.728Z" transform="translate(-356.853 -199.282)" fill="#7f3e3b"/>
            <path id="Path_44805" data-name="Path 44805" d="M411.242,203.469c0-.265-.179-.467-.35-.459s-.288.241-.273.5.171.467.343.459S411.258,203.726,411.242,203.469Z" transform="translate(-355.666 -197.678)" fill="#263238"/>
            <path id="Path_44806" data-name="Path 44806" d="M410.8,204.21l-1.386,1.83a1.721,1.721,0,0,0,1.557.273Z" transform="translate(-355.399 -197.943)" fill="#a02724"/>
            <path id="Path_44807" data-name="Path 44807" d="M420.364,201.7c-.164,3.317-.156,4.726-1.806,6.455-2.538,1.767-6.54,1.674-7.373-1.627-.779-2.974-.366-7.895,2.865-9.273a4.539,4.539,0,0,1,6.314,4.446Z" transform="translate(-355.716 -196.323)" fill="#7f3e3b"/>
            <path id="Path_44808" data-name="Path 44808" d="M411.649,202.42a.179.179,0,0,1-.14,0,1.238,1.238,0,0,0-1.074-.3.154.154,0,0,1-.086-.3,1.557,1.557,0,0,1,1.363.366.148.148,0,0,1,0,.21h0A.109.109,0,0,1,411.649,202.42Z" transform="translate(-355.583 -197.407)" fill="#263238"/>
            <path id="Path_44809" data-name="Path 44809" d="M410.854,202.971l-.724-.1S410.558,203.384,410.854,202.971Z" transform="translate(-355.558 -197.647)" fill="#263238"/>
            <path id="Path_44810" data-name="Path 44810" d="M418.163,212.37A4.407,4.407,0,0,1,416.388,214a12.345,12.345,0,0,1-.288-1.277A5.987,5.987,0,0,0,418.163,212.37Z" transform="translate(-356.88 -199.75)" opacity="0.2"/>
            <path id="Path_44811" data-name="Path 44811" d="M423.035,216.044s0-2.632-3.114-2.141-5.38,1.978-5.45,3.511Z" transform="translate(-356.519 -200.076)" fill="#0091ff"/>
            <path id="Path_44812" data-name="Path 44812" d="M423.035,216.044s0-2.632-3.114-2.141-5.38,1.978-5.45,3.511Z" transform="translate(-356.519 -200.076)" opacity="0.1"/>
            <path id="Path_44813" data-name="Path 44813" d="M427.87,216.3s4.119.125,4.119,3.418a5.45,5.45,0,0,1-2.336,4.672Z" transform="translate(-359.486 -200.62)" fill="#0091ff"/>
            <path id="Path_44814" data-name="Path 44814" d="M427.87,216.3s4.119.125,4.119,3.418a5.45,5.45,0,0,1-2.336,4.672Z" transform="translate(-359.486 -200.62)" opacity="0.1"/>
            <path id="Path_44815" data-name="Path 44815" d="M428.566,238.8a26.932,26.932,0,0,1-2.468-8.892c-.413-4.858,2.554-13.5-2.717-13.664A25.317,25.317,0,0,0,412.1,218.05c-3.13,1.23-2.468,9.717-1.978,12.933s1.978,11.36,1.978,11.36S421.076,243.495,428.566,238.8Z" transform="translate(-355.464 -200.603)" fill="#0091ff"/>
            <path id="Path_44816" data-name="Path 44816" d="M409.874,230.735a33.582,33.582,0,0,1-.078-5.692l3.574-.444A21.441,21.441,0,0,1,409.874,230.735Z" transform="translate(-355.465 -202.458)" opacity="0.1"/>
            <path id="Path_44817" data-name="Path 44817" d="M401.17,223.393l-3.986,3.745-7.576-1.744v-1.612a.553.553,0,0,0-.779-.506,3.116,3.116,0,0,1-.677.109c-.646-.086-1.9-1.5-1.9-1.5a.545.545,0,0,0-.561-.093l-1.6,1.495a.646.646,0,0,0-.311.685l1.721,2.476a.981.981,0,0,0,.631.529l2.336.452s6.836,4.2,9.3,3.628,6.174-4.033,6.174-4.033Z" transform="translate(-349.721 -201.827)" fill="#7f3e3b"/>
            <path id="Path_44818" data-name="Path 44818" d="M411.064,218.57a18.135,18.135,0,0,0-6.034,3.846s.132,2.468,3.27,5.185c0,0,3.371-2.11,4.415-5.24S411.064,218.57,411.064,218.57Z" transform="translate(-354.429 -201.123)" fill="#0091ff"/>
            <path id="Path_44819" data-name="Path 44819" d="M413.891,196.729s-2.336,1.074-1.721,2.756.973,3.114.514,3.667,1.113.685,1.036-1.176c0,0,.2,2.336,1.394,2.624s2.009,3.768,1.012,5.45-1.23,5.528-.241,6.392,2.873,1.721,2.647,3.247,2.266.5,1.775-1.355a1.766,1.766,0,0,0,3.005.2c1.651-1.892-.989-3.62-.989-3.62s2,.615,2.048,1.69.709,1.6,1.487.413a2.717,2.717,0,0,0-.491-3.379s1.324-.218,1.487.709,1.682-.623.366-1.837-3.62-1.837-3.582-6.525-.864-8.689-4.446-9.514S413.891,196.729,413.891,196.729Z" transform="translate(-355.987 -196.161)" fill="#263238"/>
            <path id="Path_44820" data-name="Path 44820" d="M415.251,204.42a2.531,2.531,0,0,0-.841,1.767c0,.9.825,1.152,1.557.732s1.495-1.292,1.176-2.118a1.145,1.145,0,0,0-1.892-.382Z" transform="translate(-356.506 -197.912)" fill="#7f3e3b"/>
          </g>
          <g id="freepik--character-3--inject-57" transform="translate(217.564 220.018)">
            <path id="Path_44821" data-name="Path 44821" d="M329.578,277.367l-44.217-.187-1.3,1.028-.311,24.962-.584,6.307-.833,8.954-.164,1.775-.179,1.923,41.928.226,1.923-1.947Z" transform="translate(-279.997 -269.22)" fill="#0091ff"/>
            <path id="Path_44822" data-name="Path 44822" d="M279.66,320.482l43.921.234,3.9-42.013-43.936-.2Z" transform="translate(-279.481 -269.512)" fill="#0091ff"/>
            <path id="Path_44823" data-name="Path 44823" d="M279.66,320.482l43.921.234,3.9-42.013-43.936-.2Z" transform="translate(-279.481 -269.512)" fill="#fff" opacity="0.8"/>
            <path id="Path_44824" data-name="Path 44824" d="M305.1,281.759l-20.9-.109-.584,6.307,20.9.109a1.767,1.767,0,0,0,1.728-1.557l.288-3.114a1.433,1.433,0,0,0-1.433-1.635Z" transform="translate(-280.358 -270.209)" fill="#0091ff"/>
            <path id="Path_44825" data-name="Path 44825" d="M280.94,316.857l43.921.234.584-6.307-43.921-.234Z" transform="translate(-279.764 -276.608)" fill="#0091ff"/>
            <path id="Path_44826" data-name="Path 44826" d="M279.773,330.15l-.343,3.7,43.921.234.343-3.7Z" transform="translate(-279.43 -280.947)" fill="#0091ff"/>
            <path id="Path_44827" data-name="Path 44827" d="M279.773,330.15l-.343,3.7,43.921.234.343-3.7Z" transform="translate(-279.43 -280.947)" fill="#fff" opacity="0.3"/>
            <path id="Path_44828" data-name="Path 44828" d="M319.76,342.992s.5,10.254.724,13.664c.631,9.3,3.052,37.178,3.052,37.178h4.142a175.832,175.832,0,0,0,1.129-23.794c-.187-4.539-1.557-8.565-1.861-11.679s1.456-8.059.241-12.567C326.036,341.544,319.76,342.992,319.76,342.992Z" transform="translate(-288.359 -283.738)" fill="#ffc3bd"/>
            <path id="Path_44829" data-name="Path 44829" d="M332.41,343.28s.88,10.768,1.386,14.326c1.308,9.117,6.9,36.181,6.9,36.181l4.142-.187a186.95,186.95,0,0,0-1.97-25.079c-.631-3.7-1.635-6.891-2.032-9.522-.5-3.278.553-8.814-.872-13.236C338.623,341.552,332.41,343.28,332.41,343.28Z" transform="translate(-291.16 -283.777)" fill="#ffc3bd"/>
            <path id="Path_44830" data-name="Path 44830" d="M333.324,316.09s7.311,6.8,7.054,28.979a35.9,35.9,0,0,1-22.237,1.152s-1.97-16.28,0-28.271Z" transform="translate(-287.807 -277.834)" fill="#263238"/>
            <path id="Path_44831" data-name="Path 44831" d="M318.516,275.624c0-.257-.171-.452-.343-.444s-.288.234-.265.491.171.452.335.444S318.532,275.881,318.516,275.624Z" transform="translate(-287.949 -268.777)" fill="#263238"/>
            <path id="Path_44832" data-name="Path 44832" d="M318.129,275.169l-.709-.109S317.872,275.551,318.129,275.169Z" transform="translate(-287.841 -268.75)" fill="#263238"/>
            <path id="Path_44833" data-name="Path 44833" d="M328.875,285.866s-2.087-.21-2.048-4.049c0,0-1.931-.88-3.177.249s1.129,3.784-.42,4.9C323.23,286.964,324.608,287.882,328.875,285.866Z" transform="translate(-289.127 -270.174)" fill="#ffc3bd"/>
            <path id="Path_44834" data-name="Path 44834" d="M318.275,276.22l-1.355,1.791a1.682,1.682,0,0,0,1.495.265Z" transform="translate(-287.73 -269.007)" fill="#ed893e"/>
            <path id="Path_44835" data-name="Path 44835" d="M327.515,273.151c-.156,3.247-.148,4.633-1.767,6.314-2.484,1.736-6.4,1.643-7.218-1.557-.732-2.912-.358-7.724,2.811-9.078a4.446,4.446,0,0,1,6.174,4.352Z" transform="translate(-288.016 -267.293)" fill="#ffc3bd"/>
            <path id="Path_44836" data-name="Path 44836" d="M319.049,274.6a.132.132,0,0,1-.14,0,1.2,1.2,0,0,0-1.051-.288.148.148,0,0,1-.179-.1.163.163,0,0,1,.1-.195,1.557,1.557,0,0,1,1.331.358.148.148,0,0,1,0,.2h0a.1.1,0,0,1-.062.023Z" transform="translate(-287.897 -268.512)" fill="#263238"/>
            <path id="Path_44837" data-name="Path 44837" d="M325.357,283.59a4.259,4.259,0,0,1-1.736,1.557c-.1-.42-.226-.849-.28-1.246a6.088,6.088,0,0,0,2.017-.311Z" transform="translate(-289.152 -270.639)" opacity="0.2"/>
            <path id="Path_44838" data-name="Path 44838" d="M329.861,287.263s-1.207-2.9-4.936-1.705-4.555,3.286-4.555,3.286Z" transform="translate(-288.494 -271.01)" fill="#0091ff"/>
            <path id="Path_44839" data-name="Path 44839" d="M329.861,287.263s-1.207-2.9-4.936-1.705-4.555,3.286-4.555,3.286Z" transform="translate(-288.494 -271.01)" opacity="0.2"/>
            <path id="Path_44840" data-name="Path 44840" d="M335.4,288.63s4.82,4.454,2.741,8.814-5.583-1.791-5.583-1.791Z" transform="translate(-291.193 -271.755)" fill="#0091ff"/>
            <path id="Path_44841" data-name="Path 44841" d="M335.4,288.63s4.82,4.454,2.741,8.814-5.583-1.791-5.583-1.791Z" transform="translate(-291.193 -271.755)" opacity="0.2"/>
            <path id="Path_44842" data-name="Path 44842" d="M322.668,407.79l4.672.117a.358.358,0,0,1,.358.3l.779,3.8a.623.623,0,0,1-.483.732h-.132c-1.674-.07-3.161-.2-5.248-.249-2.453-.062-1.838.249-4.734.218-1.736,0-2.009-2.009-1.269-2.087,3.395-.343,3.768-1.355,5.1-2.53A1.5,1.5,0,0,1,322.668,407.79Z" transform="translate(-287.576 -298.137)" fill="#263238"/>
            <path id="Path_44843" data-name="Path 44843" d="M341.224,407.729H345.9a.366.366,0,0,1,.358.3l.779,3.784a.631.631,0,0,1-.475.779h-.132c-1.674-.047-3.161-.148-5.24-.164-2.46,0-1.837.28-4.734.3-1.744,0-2.048-1.978-1.308-2.063,3.387-.4,3.745-1.417,5.061-2.616a1.456,1.456,0,0,1,1.02-.311Z" transform="translate(-291.681 -298.122)" fill="#263238"/>
            <path id="Path_44844" data-name="Path 44844" d="M334.335,309.8s-6.688,4.913-17.129,2.336c0,0-3.286-15.5-1.082-20.173,1.962-4.173,5.886-4.726,9.008-4.929s8.012-.6,7.848,5.676S332.77,302.638,334.335,309.8Z" transform="translate(-287.386 -271.382)" fill="#0091ff"/>
            <path id="Path_44845" data-name="Path 44845" d="M315.783,305.68a55.431,55.431,0,0,1-.413-6.229l3.893-1.4Z" transform="translate(-287.387 -273.84)" opacity="0.2"/>
            <path id="Path_44846" data-name="Path 44846" d="M302.542,302.735l-8.938-1.557-.382-.779a1.409,1.409,0,0,0-1.557-.732l-.4.086-1.043-.779a1.4,1.4,0,0,0-1.713.055h0a1.386,1.386,0,0,0-.514,1.082v.911a1.4,1.4,0,0,0,.257.779l.708,1.012a1.4,1.4,0,0,0,1.051.6l3.037.195,9.468,2.406Z" transform="translate(-281.325 -273.986)" fill="#ffc3bd"/>
            <path id="Path_44847" data-name="Path 44847" d="M318.455,290.271a4.235,4.235,0,0,0-5.287.872,95.545,95.545,0,0,0-7.249,8.814l-1.62-.187-.21,4.617a6.229,6.229,0,0,0,4.672-.265c2.336-1.176,9.857-10.005,9.857-10.005S319.592,291.493,318.455,290.271Z" transform="translate(-284.89 -271.994)" fill="#0091ff"/>
            <path id="Path_44848" data-name="Path 44848" d="M305.311,301.72v2.554l-.716.335.716.483v2.787l-2.211-.491V301.72Z" transform="translate(-284.671 -274.653)" fill="#0091ff"/>
            <path id="Path_44849" data-name="Path 44849" d="M305.311,301.72v2.554l-.716.335.716.483v2.787l-2.211-.491V301.72Z" transform="translate(-284.671 -274.653)" fill="#fff" opacity="0.5"/>
            <path id="Path_44850" data-name="Path 44850" d="M333.342,352.089q-.911.07-1.892.093c-.389-10.745,2.725-14.692,2.725-14.692A49.449,49.449,0,0,0,333.342,352.089Z" transform="translate(-290.94 -282.572)" opacity="0.3"/>
            <path id="Path_44851" data-name="Path 44851" d="M322.959,267.255s5.224-1.814,6.167,3.5,5.676,6.665,3.052,10.207-10.184.888-10.316-2.094-.093-7.973-1.2-8.627c0,0,.662,2.056,0,2.056s-1.113-.779-1.028-1.822c0,0,0,1.308-1.557.841s.9-2.188.9-2.188a5.667,5.667,0,0,0-1.557.927c-.428.467-.545-.234,0-1.113C317.79,268.244,319.674,266.648,322.959,267.255Z" transform="translate(-287.759 -266.956)" fill="#263238"/>
            <path id="Path_44852" data-name="Path 44852" d="M322.507,275.788a2.522,2.522,0,0,0-.818,1.736c-.039.88.779,1.129,1.557.716s1.456-1.269,1.145-2.079a1.129,1.129,0,0,0-1.884-.374Z" transform="translate(-288.786 -268.832)" fill="#ffc3bd"/>
          </g>
          <g id="freepik--character-2--inject-57" transform="translate(103.034 212.977)">
            <path id="Path_44853" data-name="Path 44853" d="M161.65,300.931l4.29-.592.327-1.051a.841.841,0,0,1,1.02-.553l.491.132,1.853-.973a.825.825,0,0,1,.452-.086h0a.841.841,0,0,1,.779.856l-.047,1.69a.514.514,0,0,1,0,.109l-.195,1.277a.849.849,0,0,1-.7.7l-2.686.42-4.929,1.051Z" transform="translate(-138.823 -266.745)" fill="#ffb573"/>
            <path id="Path_44854" data-name="Path 44854" d="M161.675,299.675a45.375,45.375,0,0,1-6.657,0,4.673,4.673,0,0,1-3.114-2.165l-3.714,5.45a8.323,8.323,0,0,0,3.005,2.1c4.672,1.479,11.235-1.2,11.235-1.2A4.189,4.189,0,0,0,161.675,299.675Z" transform="translate(-135.843 -266.68)" fill="#263238"/>
            <path id="Path_44855" data-name="Path 44855" d="M161.675,299.675a45.375,45.375,0,0,1-6.657,0,4.673,4.673,0,0,1-3.114-2.165l-3.714,5.45a8.323,8.323,0,0,0,3.005,2.1c4.672,1.479,11.235-1.2,11.235-1.2A4.189,4.189,0,0,0,161.675,299.675Z" transform="translate(-135.843 -266.68)" opacity="0.3"/>
            <path id="Path_44856" data-name="Path 44856" d="M154.534,277,150.4,321.964l42.62.171,1.324-1.082L198.51,277.2Z" transform="translate(-136.332 -262.139)" fill="#0091ff"/>
            <path id="Path_44857" data-name="Path 44857" d="M148.95,320.323l43.929.164,3.831-42.013-43.929-.164Z" transform="translate(-136.011 -262.429)" fill="#0091ff"/>
            <path id="Path_44858" data-name="Path 44858" d="M148.95,320.323l43.929.164,3.831-42.013-43.929-.164Z" transform="translate(-136.011 -262.429)" fill="#fff" opacity="0.8"/>
            <path id="Path_44859" data-name="Path 44859" d="M150.21,316.707l43.921.163.576-6.307-43.929-.164Z" transform="translate(-136.29 -269.534)" fill="#0091ff"/>
            <path id="Path_44860" data-name="Path 44860" d="M150.21,316.707l43.921.163.576-6.307-43.929-.164Z" transform="translate(-136.29 -269.534)" fill="#fff" opacity="0.5"/>
            <path id="Path_44861" data-name="Path 44861" d="M184.47,296.078,152.1,296l-.576,6.307,32.374.117a1.76,1.76,0,0,0,1.728-1.557l.288-3.114a1.44,1.44,0,0,0-1.44-1.674Z" transform="translate(-136.58 -266.346)" fill="#0091ff"/>
            <path id="Path_44862" data-name="Path 44862" d="M184.47,296.078,152.1,296l-.576,6.307,32.374.117a1.76,1.76,0,0,0,1.728-1.557l.288-3.114a1.44,1.44,0,0,0-1.44-1.674Z" transform="translate(-136.58 -266.346)" fill="#fff" opacity="0.5"/>
            <path id="Path_44863" data-name="Path 44863" d="M152.84,287.807l43.929.164.576-6.307-43.929-.164Z" transform="translate(-136.873 -263.135)" fill="#0091ff"/>
            <path id="Path_44864" data-name="Path 44864" d="M152.84,287.807l43.929.164.576-6.307-43.929-.164Z" transform="translate(-136.873 -263.135)" fill="#fff" opacity="0.5"/>
            <path id="Path_44865" data-name="Path 44865" d="M149.063,330l-.343,3.7,43.929.163.335-3.7Z" transform="translate(-135.961 -273.873)" fill="#0091ff"/>
            <path id="Path_44866" data-name="Path 44866" d="M149.063,330l-.343,3.7,43.929.163.335-3.7Z" transform="translate(-135.961 -273.873)" fill="#fff" opacity="0.3"/>
            <path id="Path_44867" data-name="Path 44867" d="M145.39,282.6s2.336-.241,2.336-4.57c0,0,2.172-.989,3.574.288s-1.261,4.267.483,5.52C151.759,283.8,150.225,284.823,145.39,282.6Z" transform="translate(-135.223 -262.285)" fill="#ffb573"/>
            <path id="Path_44868" data-name="Path 44868" d="M158.609,270.148c0-.288.187-.514.382-.5s.319.257.3.553-.195.506-.382.5S158.586,270.436,158.609,270.148Z" transform="translate(-138.149 -260.511)" fill="#263238"/>
            <path id="Path_44869" data-name="Path 44869" d="M158.825,271l1.557,2.024a1.908,1.908,0,0,1-1.682.3Z" transform="translate(-138.17 -260.811)" fill="#ed893e"/>
            <path id="Path_44870" data-name="Path 44870" d="M145.748,268.2c.179,3.659.171,5.217,1.993,7.124,2.8,1.947,7.21,1.845,8.136-1.8.825-3.278.4-8.7-3.161-10.231a5.014,5.014,0,0,0-6.968,4.905Z" transform="translate(-135.301 -259.016)" fill="#ffb573"/>
            <path id="Path_44871" data-name="Path 44871" d="M157.878,268.991a.179.179,0,0,0,.156,0,1.355,1.355,0,0,1,1.183-.335.171.171,0,0,0,.21-.117.179.179,0,0,0-.117-.21,1.69,1.69,0,0,0-1.495.4.164.164,0,0,0,0,.234h0A.147.147,0,0,0,157.878,268.991Z" transform="translate(-137.964 -260.21)" fill="#263238"/>
            <path id="Path_44872" data-name="Path 44872" d="M150.52,280a4.866,4.866,0,0,0,1.954,1.783c.117-.475.257-.958.327-1.4A6.843,6.843,0,0,1,150.52,280Z" transform="translate(-136.359 -262.803)" opacity="0.2"/>
            <path id="Path_44873" data-name="Path 44873" d="M143.31,284.022a3.544,3.544,0,0,1,3.776-2.772c4.718,0,6.1,2.211,6.1,2.211Z" transform="translate(-134.763 -263.08)" fill="#263238"/>
            <path id="Path_44874" data-name="Path 44874" d="M143.31,284.022a3.544,3.544,0,0,1,3.776-2.772c4.718,0,6.1,2.211,6.1,2.211Z" transform="translate(-134.763 -263.08)" opacity="0.3"/>
            <path id="Path_44875" data-name="Path 44875" d="M141.97,403.03l.42,6.976,3.909-.14.226-6.7Z" transform="translate(-134.466 -290.042)" fill="#ffb573"/>
            <path id="Path_44876" data-name="Path 44876" d="M148.348,410.991a.1.1,0,0,1-.078-.078.109.109,0,0,1,.047-.1c.062-.039,1.487-.856,2.165-.67a.483.483,0,0,1,.3.218.366.366,0,0,1,0,.42,1.744,1.744,0,0,1-1.2.319A7.5,7.5,0,0,1,148.348,410.991Zm.311-.132c.779.093,1.791.078,1.978-.187a.238.238,0,0,0,0-.21.249.249,0,0,0-.195-.132.663.663,0,0,0-.179,0,4.594,4.594,0,0,0-1.6.53Z" transform="translate(-135.861 -291.611)" fill="#0091ff"/>
            <path id="Path_44877" data-name="Path 44877" d="M148.3,410.714a.086.086,0,0,1-.047-.086,2.78,2.78,0,0,1,.631-1.557.778.778,0,0,1,.537-.171c.265,0,.35.163.358.272.086.459-.888,1.347-1.378,1.557h-.039a.062.062,0,0,1-.062-.016Zm1.051-1.651a.506.506,0,0,0-.327.125,2.25,2.25,0,0,0-.537,1.254c.506-.3,1.145-1,1.113-1.277,0,0,0-.093-.195-.109Z" transform="translate(-135.856 -291.341)" fill="#0091ff"/>
            <path id="Path_44878" data-name="Path 44878" d="M146.248,410.508h-4.454a.35.35,0,0,0-.35.28l-.779,3.628a.584.584,0,0,0,.452.709h.125c1.6-.039,3.029-.132,5.03-.14,2.336,0,1.76.28,4.531.3,1.674,0,1.97-1.884,1.261-1.978-3.247-.389-3.589-1.37-4.843-2.523A1.409,1.409,0,0,0,146.248,410.508Z" transform="translate(-134.174 -291.697)" fill="#263238"/>
            <path id="Path_44879" data-name="Path 44879" d="M142.188,406.635h4.22l.117-3.465-4.555-.14Z" transform="translate(-134.466 -290.042)" opacity="0.2"/>
            <path id="Path_44880" data-name="Path 44880" d="M138.223,324.87s-.833,5.855,1.23,15.658c.872,4.142,2.258,12.535,2.219,16.763,0,2.8-.615,4.072-1.6,11.1s.491,19.73.491,19.73l5.668.062s3.535-23.475,4.2-31.627c.335-4.142.491-16.639.491-16.639l-2-15.043Z" transform="translate(-133.6 -272.737)" fill="#0091ff"/>
            <path id="Path_44881" data-name="Path 44881" d="M147.23,337.63a52.5,52.5,0,0,0,5.45,16.273c.164-5.084.234-11.165.234-11.165l-.047-.389-2.9-4.033Z" transform="translate(-135.631 -275.563)" opacity="0.1"/>
            <path id="Path_44882" data-name="Path 44882" d="M163.55,403.207l.709,6.961,3.9-.3-.055-6.7Z" transform="translate(-139.244 -290.071)" fill="#ffb573"/>
            <path id="Path_44883" data-name="Path 44883" d="M170.266,410.884a.1.1,0,0,1-.039-.179c.062-.039,1.44-.911,2.133-.779a.522.522,0,0,1,.311.218.366.366,0,0,1,0,.42,1.736,1.736,0,0,1-1.183.366A7.474,7.474,0,0,1,170.266,410.884Zm.3-.14c.779.055,1.791,0,1.97-.273a.273.273,0,0,0,0-.21.241.241,0,0,0-.195-.125.506.506,0,0,0-.187,0,4.508,4.508,0,0,0-1.588.623Z" transform="translate(-140.713 -291.566)" fill="#0091ff"/>
            <path id="Path_44884" data-name="Path 44884" d="M170.207,410.624a.117.117,0,0,1-.047-.086,2.787,2.787,0,0,1,.561-1.6.716.716,0,0,1,.529-.195c.273,0,.358.148.374.257.109.452-.833,1.386-1.308,1.619h-.109Zm.989-1.7a.5.5,0,0,0-.327.14,2.242,2.242,0,0,0-.483,1.269c.491-.319,1.1-1.043,1.059-1.316,0,0,0-.093-.195-.1Z" transform="translate(-140.707 -291.306)" fill="#0091ff"/>
            <path id="Path_44885" data-name="Path 44885" d="M168.176,410.448l-4.446.21a.35.35,0,0,0-.335.3l-.638,3.659a.6.6,0,0,0,.483.693h.125c1.6-.1,3.021-.257,5.022-.35,2.336-.109,1.767.2,4.539.117,1.674-.062,1.884-1.97,1.176-2.032-3.255-.257-3.636-1.215-4.944-2.336a1.471,1.471,0,0,0-.981-.257Z" transform="translate(-139.066 -291.683)" fill="#263238"/>
            <path id="Path_44886" data-name="Path 44886" d="M168.1,403.16l-4.555.047.35,3.434,4.236-.249Z" transform="translate(-139.244 -290.071)" opacity="0.2"/>
            <path id="Path_44887" data-name="Path 44887" d="M145.985,324.87A32.942,32.942,0,0,0,149.7,342c4.547,8.261,5,10.69,5.326,14.544.311,3.691.335,4.936.825,12.574s3.27,19.052,3.27,19.052l5.855-.374s0-24.175-.989-32.7c-.872-7.646-5.544-30.225-5.544-30.225Z" transform="translate(-135.344 -272.737)" fill="#0091ff"/>
            <path id="Path_44888" data-name="Path 44888" d="M140.88,283.58s-7.412.958-8.331,5.217,1.207,12.387,4.166,13.407S140.88,283.58,140.88,283.58Z" transform="translate(-132.332 -263.596)" fill="#263238"/>
            <path id="Path_44889" data-name="Path 44889" d="M138.275,288.469l-1.3-.779s-1.83,2.336-2.974,11.282c.779,2.079,1.861,3.729,3.114,4.15s2.094-2.554,2.756-6.229Z" transform="translate(-132.701 -264.506)" opacity="0.4"/>
            <path id="Path_44890" data-name="Path 44890" d="M137.169,316.746s7.669,2.126,20.524,0a121.632,121.632,0,0,1,.459-21.544c1.386-10.636-1.2-11.375-8.409-11.741s-12.341-.779-12.574,5.824C136.609,304.537,137.169,316.746,137.169,316.746Z" transform="translate(-133.348 -263.531)" fill="#263238"/>
            <path id="Path_44891" data-name="Path 44891" d="M159.9,290.189s.553,6.011,2.9,9.943h0c.109-1.44.249-2.9.436-4.329a28.972,28.972,0,0,0,.3-6.05L161.021,286Z" transform="translate(-138.436 -264.132)" opacity="0.4"/>
            <path id="Path_44892" data-name="Path 44892" d="M183.49,301.839l4.29-.561.335-1.051a.841.841,0,0,1,1.02-.561l.483.132,1.853-.965a.911.911,0,0,1,.452-.093h0a.841.841,0,0,1,.779.856V301.4l-.2,1.277a.841.841,0,0,1-.7.7l-2.678.42-4.929,1.043Z" transform="translate(-143.659 -266.952)" fill="#ffb573"/>
            <path id="Path_44893" data-name="Path 44893" d="M158.854,284.09s5.365,0,7.856,3.613c2.087,3.021,4.251,9.437,7.584,9.709a45.375,45.375,0,0,0,6.657,0,4.165,4.165,0,0,1,.779,4.166s-6.564,2.678-11.235,1.2-12.154-15.253-12.154-15.253Z" transform="translate(-138.09 -263.709)" fill="#263238"/>
            <path id="Path_44894" data-name="Path 44894" d="M151.257,269.076A9.125,9.125,0,0,0,151.9,265s3.449,1.292,3.963-.319a1.557,1.557,0,0,0-1.137-2.04s1.705-.226.732-1.386a2.938,2.938,0,0,0-2.725-.74s1.752-1.106.413-1.752-3.325,1.339-3.325,1.339,1.145-1.853-.187-2.172-2.959,3.114-2.959,3.114-3.519.35-3.6,1.6a1.121,1.121,0,0,0,1.152,1.254s-2.336.366-1.939,1.557a.849.849,0,0,0,1.386.5s-1.472,1.285-.965,2.46c.366.849,1.012.42,1.012.42s-.413,1.674.28,2.476.965-.631.965-.631a3.441,3.441,0,0,0,1.215,2.562s1.106-1.082,3.325-.343Z" transform="translate(-134.526 -257.913)" fill="#263238"/>
            <path id="Path_44895" data-name="Path 44895" d="M153.5,271.188a2.811,2.811,0,0,1,.919,1.954c0,1-.9,1.269-1.721.779s-1.651-1.425-1.3-2.336a1.277,1.277,0,0,1,2.1-.4Z" transform="translate(-136.535 -260.765)" fill="#ffb573"/>
          </g>
          <g id="freepik--character-1--inject-57" transform="translate(34.616 128.73)">
            <path id="Path_44896" data-name="Path 44896" d="M91.729,205.49l-.592,6.766H60.149l.592-6.766H58.521L44.46,366.278h2.219l.592-6.758H78.259l-.592,6.758h2.25L93.932,205.49Zm-2.7,30.934H58.039l1.915-21.972h31ZM86.909,260.56H55.921l1.923-21.949H88.832ZM84.8,284.736h-31l1.923-21.957H86.715Zm-2.118,24.137H51.693l1.915-21.949h30.98Zm-2.118,24.137H49.552L51.5,311.154H82.487ZM49.42,335.228H80.377l-1.923,21.957H47.465Z" transform="translate(-44.46 -162.06)" fill="#263238"/>
            <path id="Path_44897" data-name="Path 44897" d="M91.729,205.49l-.592,6.766H60.149l.592-6.766H58.521L44.46,366.278h2.219l.592-6.758H78.259l-.592,6.758h2.25L93.932,205.49Zm-2.7,30.934H58.039l1.915-21.972h31ZM86.909,260.56H55.921l1.923-21.949H88.832ZM84.8,284.736h-31l1.923-21.957H86.715Zm-2.118,24.137H51.693l1.915-21.949h30.98Zm-2.118,24.137H49.552L51.5,311.154H82.487ZM49.42,335.228H80.377l-1.923,21.957H47.465Z" transform="translate(-44.46 -162.06)" fill="#fff" opacity="0.3"/>
            <path id="Path_44898" data-name="Path 44898" d="M76.173,202.786l5.022,2.92,8.713-3.846.1-2.133a1,1,0,0,1,1-.958H91.9l.872-.849a1.012,1.012,0,0,1,1.557.195l.514.779a.981.981,0,0,1,.164.654l-.273,2.585a1.012,1.012,0,0,1-.654.849l-2.336.856s-7.233,5.154-9.88,5.738-7.895-2.18-7.895-2.18Z" transform="translate(-50.994 -160.322)" fill="#ff8b7b"/>
            <path id="Path_44899" data-name="Path 44899" d="M147.707,149.71l-40.106.226c-2.157,0-4.415,1.456-4.609,3.613l-2.772,40.106,42.044,1.487,1.425-1.067Z" transform="translate(-56.805 -149.71)" fill="#0091ff"/>
            <path id="Path_44900" data-name="Path 44900" d="M142.352,197.177l3.371-37.964L104.1,159.15l-3.379,37.964Z" transform="translate(-56.916 -151.8)" fill="#0091ff"/>
            <path id="Path_44901" data-name="Path 44901" d="M142.352,197.177l3.371-37.964L104.1,159.15l-3.379,37.964Z" transform="translate(-56.916 -151.8)" fill="#fff" opacity="0.8"/>
            <path id="Path_44902" data-name="Path 44902" d="M146.7,195.337l-28.271-.047a1.767,1.767,0,0,0-1.721,1.557l-.28,3.114a1.433,1.433,0,0,0,1.44,1.557h28.3Z" transform="translate(-60.393 -159.801)" fill="#0091ff"/>
            <path id="Path_44903" data-name="Path 44903" d="M147.981,180.88h-28.3a1.775,1.775,0,0,0-1.728,1.557l-.273,3.114a1.417,1.417,0,0,0,1.44,1.557l28.3.047Z" transform="translate(-60.669 -156.611)" fill="#0091ff"/>
            <path id="Path_44904" data-name="Path 44904" d="M147.981,180.88h-28.3a1.775,1.775,0,0,0-1.728,1.557l-.273,3.114a1.417,1.417,0,0,0,1.44,1.557l28.3.047Z" transform="translate(-60.669 -156.611)" fill="#fff" opacity="0.5"/>
            <path id="Path_44905" data-name="Path 44905" d="M104.185,165.007A2.873,2.873,0,0,1,107,162.422l37.614.055.981-10.994-40-.062a4.36,4.36,0,0,0-4.251,3.893L97.8,195.4h3.7Z" transform="translate(-56.27 -150.089)" fill="#0091ff"/>
            <path id="Path_44906" data-name="Path 44906" d="M104.185,165.007A2.873,2.873,0,0,1,107,162.422l37.614.055.981-10.994-40-.062a4.36,4.36,0,0,0-4.251,3.893L97.8,195.4h3.7Z" transform="translate(-56.27 -150.089)" fill="#fff" opacity="0.3"/>
            <path id="Path_44907" data-name="Path 44907" d="M137.406,157.526a2.834,2.834,0,0,1-2.764,2.538,2.289,2.289,0,0,1-2.336-2.546,2.819,2.819,0,0,1,2.764-2.538,2.289,2.289,0,0,1,2.336,2.546Z" transform="translate(-63.906 -150.877)" fill="#0091ff"/>
            <path id="Path_44908" data-name="Path 44908" d="M137.406,157.526a2.834,2.834,0,0,1-2.764,2.538,2.289,2.289,0,0,1-2.336-2.546,2.819,2.819,0,0,1,2.764-2.538,2.289,2.289,0,0,1,2.336,2.546Z" transform="translate(-63.906 -150.877)" fill="#fff" opacity="0.5"/>
            <path id="Path_44909" data-name="Path 44909" d="M125.3,157.506a2.834,2.834,0,0,1-2.764,2.538A2.289,2.289,0,0,1,120.2,157.5a2.834,2.834,0,0,1,2.764-2.538,2.289,2.289,0,0,1,2.336,2.546Z" transform="translate(-61.225 -150.872)" fill="#0091ff"/>
            <path id="Path_44910" data-name="Path 44910" d="M113.176,157.486a2.819,2.819,0,0,1-2.764,2.538,2.289,2.289,0,0,1-2.336-2.546,2.834,2.834,0,0,1,2.764-2.538,2.289,2.289,0,0,1,2.336,2.546Z" transform="translate(-58.541 -150.868)" fill="#0091ff"/>
            <path id="Path_44911" data-name="Path 44911" d="M113.176,157.486a2.819,2.819,0,0,1-2.764,2.538,2.289,2.289,0,0,1-2.336-2.546,2.834,2.834,0,0,1,2.764-2.538,2.289,2.289,0,0,1,2.336,2.546Z" transform="translate(-58.541 -150.868)" opacity="0.2"/>
            <path id="Path_44912" data-name="Path 44912" d="M112.284,158.629l-.779-.779.779-.779a.366.366,0,0,0-.514-.514l-.779.779-.779-.779a.366.366,0,0,0-.514.514l.779.779c-.273.265-.545.529-.779.779a.361.361,0,1,0,.506.514l.779-.779.779.779a.366.366,0,1,0,.522-.514Z" transform="translate(-58.88 -151.209)" fill="#fff"/>
            <path id="Path_44913" data-name="Path 44913" d="M124.476,157.77h-3.005a.366.366,0,0,0,0,.724h3.005a.366.366,0,0,0,0-.724Z" transform="translate(-61.441 -151.495)" fill="#fff"/>
            <path id="Path_44914" data-name="Path 44914" d="M133.96,159.439H135.5l-1.534-1.549Z" transform="translate(-64.275 -151.521)" fill="#fff"/>
            <path id="Path_44915" data-name="Path 44915" d="M135.28,156.59l1.542,1.549.008-1.549Z" transform="translate(-64.568 -151.233)" fill="#fff"/>
            <path id="Path_44916" data-name="Path 44916" d="M57.672,323.3l-.592,6.968,3.893.42,1.183-6.595Z" transform="translate(-47.254 -188.143)" fill="#ff8b7b"/>
            <path id="Path_44917" data-name="Path 44917" d="M62.982,332.617a.1.1,0,0,1,0-.179c.062,0,1.557-.638,2.235-.358a.529.529,0,0,1,.273.265.382.382,0,0,1-.054.42,1.721,1.721,0,0,1-1.23.14,7.339,7.339,0,0,1-1.222-.288Zm.327-.086c.74.2,1.76.335,1.985.1a.207.207,0,0,0,0-.21.249.249,0,0,0-.164-.164.778.778,0,0,0-.179-.047,4.446,4.446,0,0,0-1.682.319Z" transform="translate(-48.547 -190.071)" fill="#0091ff"/>
            <path id="Path_44918" data-name="Path 44918" d="M62.887,332.295a.086.086,0,0,1,0-.086,2.772,2.772,0,0,1,.849-1.479.724.724,0,0,1,.553-.086c.265.062.327.2.319.319,0,.467-1.074,1.207-1.557,1.347h-.078a.062.062,0,0,1-.086-.016Zm1.285-1.479a.537.537,0,0,0-.35.07,2.281,2.281,0,0,0-.709,1.168c.537-.226,1.277-.825,1.285-1.1,0,0,0-.1-.171-.14Z" transform="translate(-48.537 -189.764)" fill="#0091ff"/>
            <path id="Path_44919" data-name="Path 44919" d="M60.784,331.824l-4.415-.615a.35.35,0,0,0-.382.226l-1.3,3.5a.592.592,0,0,0,.343.779.328.328,0,0,0,.117,0c1.6.195,3.021.311,5,.592,2.336.327,1.705.522,4.446.95,1.651.249,2.219-1.557,1.557-1.775-3.114-.856-3.356-1.876-4.43-3.2A1.441,1.441,0,0,0,60.784,331.824Z" transform="translate(-46.715 -189.893)" fill="#263238"/>
            <path id="Path_44920" data-name="Path 44920" d="M62.236,324.094l-4.485-.794-.311,3.636,4.173.615Z" transform="translate(-47.334 -188.143)" fill="#263238" opacity="0.2"/>
            <path id="Path_44921" data-name="Path 44921" d="M86.062,181.562s3.153-1.479,2.85-.234-2.608,1.806-3.262,1.347S86.062,181.562,86.062,181.562Z" transform="translate(-53.532 -156.6)" fill="#263238"/>
            <path id="Path_44922" data-name="Path 44922" d="M75.8,199.247s2.336-.241,2.336-4.57c0,0,2.172-.989,3.582.288s-1.269,4.267.475,5.52C82.185,200.485,80.627,201.512,75.8,199.247Z" transform="translate(-51.399 -159.585)" fill="#ff8b7b"/>
            <path id="Path_44923" data-name="Path 44923" d="M89,186.858c0-.288.187-.514.382-.5s.319.257.3.553-.195.506-.382.5S89,187.138,89,186.858Z" transform="translate(-54.321 -157.824)" fill="#263238"/>
            <path id="Path_44924" data-name="Path 44924" d="M89.235,187.66l1.557,2.024a1.908,1.908,0,0,1-1.682.3Z" transform="translate(-54.346 -158.112)" fill="#ff5652"/>
            <path id="Path_44925" data-name="Path 44925" d="M76.146,184.9c.179,3.659.171,5.217,2,7.124,2.8,1.946,7.2,1.845,8.129-1.8.825-3.278.4-8.7-3.161-10.231a5.014,5.014,0,0,0-7.007,4.905Z" transform="translate(-51.465 -156.322)" fill="#ff8b7b"/>
            <path id="Path_44926" data-name="Path 44926" d="M88.288,185.691a.179.179,0,0,0,.156,0,1.355,1.355,0,0,1,1.183-.335.171.171,0,0,0,.21-.117.179.179,0,0,0-.117-.21,1.69,1.69,0,0,0-1.495.4.163.163,0,0,0,0,.234h0a.148.148,0,0,0,.062.031Z" transform="translate(-54.139 -157.521)" fill="#263238"/>
            <path id="Path_44927" data-name="Path 44927" d="M80.93,196.68a4.866,4.866,0,0,0,1.954,1.806c.125-.475.257-.958.327-1.4a6.844,6.844,0,0,1-2.281-.4Z" transform="translate(-52.535 -160.109)" opacity="0.2"/>
            <path id="Path_44928" data-name="Path 44928" d="M77.878,191.8s.257-.311,1.285.14c0,0,2.4-2.694,2.826-4.633a2.928,2.928,0,0,0,1.347-2.336c.093-1.612.14-2.671.779-3.044s2.414-1.985,1.113-3.652-1.207.28-1.207.28-3.823-4.391-3.278-1.479c0,0-4.337-1-2.133,1.386,0,0-4.9,1.246-3.278,5.871a6.455,6.455,0,0,0,2.546,7.467Z" transform="translate(-51.218 -155.548)" fill="#263238"/>
            <path id="Path_44929" data-name="Path 44929" d="M83.909,187.89a2.811,2.811,0,0,1,.919,1.954c.039,1-.9,1.269-1.721.779s-1.651-1.425-1.3-2.336a1.285,1.285,0,0,1,2.1-.4Z" transform="translate(-52.71 -158.077)" fill="#ff8b7b"/>
            <path id="Path_44930" data-name="Path 44930" d="M79.83,198.757a14.381,14.381,0,0,1,3.114.623,4.337,4.337,0,0,0-3.223-2.1,3.114,3.114,0,0,0-3.441,1.557A15.87,15.87,0,0,1,79.83,198.757Z" transform="translate(-51.505 -160.224)" fill="#0091ff"/>
            <path id="Path_44931" data-name="Path 44931" d="M79.83,198.757a14.381,14.381,0,0,1,3.114.623,4.337,4.337,0,0,0-3.223-2.1,3.114,3.114,0,0,0-3.441,1.557A15.87,15.87,0,0,1,79.83,198.757Z" transform="translate(-51.505 -160.224)" fill="#fff" opacity="0.5"/>
            <path id="Path_44932" data-name="Path 44932" d="M63.237,234.71s-2,4.594-1.145,17.044c0,0,1.619,14.708.623,19.465-1.8,8.565-4.812,10.122-5.855,34.578l5.357.779s7.077-24.744,8.7-33.1c1-5.185,2.336-20.9,2.336-20.9l.5-16.646Z" transform="translate(-47.205 -168.529)" fill="#263238"/>
            <path id="Path_44933" data-name="Path 44933" d="M75.15,324.97l.008,6.992,3.916.086.607-6.673Z" transform="translate(-51.255 -188.513)" fill="#ff8b7b"/>
            <path id="Path_44934" data-name="Path 44934" d="M81.04,333.322a.086.086,0,0,1-.07-.078.1.1,0,0,1,.047-.1c.07,0,1.557-.779,2.2-.545a.491.491,0,0,1,.288.241.366.366,0,0,1,0,.42,1.752,1.752,0,0,1-1.215.249A6.7,6.7,0,0,1,81.04,333.322Zm.319-.109c.779.132,1.783.179,1.985-.07a.252.252,0,0,0,0-.218.273.273,0,0,0-.179-.14.777.777,0,0,0-.187-.039A4.515,4.515,0,0,0,81.359,333.213Z" transform="translate(-52.543 -190.192)" fill="#0091ff"/>
            <path id="Path_44935" data-name="Path 44935" d="M81,333.021a.078.078,0,0,1,0-.086,2.725,2.725,0,0,1,.716-1.557.716.716,0,0,1,.545-.14c.265.039.343.179.343.3.062.459-.965,1.292-1.464,1.479h0a.07.07,0,0,1-.14.008Zm1.145-1.557a.483.483,0,0,0-.335.109,2.2,2.2,0,0,0-.607,1.215c.522-.272,1.2-.927,1.183-1.207,0,0,0-.093-.187-.117Z" transform="translate(-52.546 -189.899)" fill="#0091ff"/>
            <path id="Path_44936" data-name="Path 44936" d="M78.912,332.713l-4.446-.234a.366.366,0,0,0-.366.257l-1,3.582a.592.592,0,0,0,.4.732.35.35,0,0,0,.125,0c1.6.055,3.037.047,5.03.156,2.336.125,1.744.374,4.508.561,1.666.117,2.079-1.767,1.37-1.9-3.216-.576-3.5-1.557-4.672-2.8A1.487,1.487,0,0,0,78.912,332.713Z" transform="translate(-50.797 -190.175)" fill="#263238"/>
            <path id="Path_44937" data-name="Path 44937" d="M75.158,328.988l4.189.07.335-3.683-4.531-.4Z" transform="translate(-51.255 -188.513)" fill="#263238" opacity="0.2"/>
            <path id="Path_44938" data-name="Path 44938" d="M76.481,259.285l-1.09-2.056-2.9-2.71s-.919,11.741,2.211,21.069C75.391,270.91,76.13,263.147,76.481,259.285Z" transform="translate(-50.639 -172.915)" opacity="0.4"/>
            <path id="Path_44939" data-name="Path 44939" d="M73.254,236.25s-.927,4.438-.779,14.241,3.745,17.262,3.7,23.117c-.086,8.526-3.722,13.127-2.219,34.025h5.73s4.539-25.888,5.178-34.578c.662-8.993-.047-36.065-.047-36.065Z" transform="translate(-50.659 -168.87)" fill="#263238"/>
            <path id="Path_44940" data-name="Path 44940" d="M72.472,199.79s-4.158.327-5.084,3.192a5.59,5.59,0,0,0,.67,4.913l2.242.638Z" transform="translate(-49.472 -160.798)" fill="#0091ff"/>
            <path id="Path_44941" data-name="Path 44941" d="M72.472,199.79s-4.158.327-5.084,3.192a5.59,5.59,0,0,0,.67,4.913l2.242.638Z" transform="translate(-49.472 -160.798)" opacity="0.1"/>
            <path id="Path_44942" data-name="Path 44942" d="M77.054,199.178c2.671.241,8.136,1.479,8.7,7.007s-2.04,25.149-2.04,25.149a73.173,73.173,0,0,1-19.971-2.406,107.57,107.57,0,0,0,3.7-23.483C67.61,201.218,70.771,198.618,77.054,199.178Z" transform="translate(-48.729 -160.646)" fill="#0091ff"/>
            <path id="Path_44943" data-name="Path 44943" d="M85.44,207a31.491,31.491,0,0,0,4.9,9.016c.21-2.764.335-5.294.28-7.046Z" transform="translate(-53.533 -162.394)" opacity="0.1"/>
            <path id="Path_44944" data-name="Path 44944" d="M95.148,207.573l4.438,3.753,9.25-2.281.467-2.087a1,1,0,0,1,1.152-.779l.849.148,1.028-.662a1.012,1.012,0,0,1,1.472.452l.374.864a1.012,1.012,0,0,1,.047.677l-.716,2.5a1.02,1.02,0,0,1-.779.716l-2.46.444s-8.012,3.823-10.729,3.94-7.389-3.511-7.389-3.511Z" transform="translate(-55.019 -162.064)" fill="#ff8b7b"/>
            <path id="Path_44945" data-name="Path 44945" d="M85.883,200.56s4.454,1.121,9.592,6.019a10.2,10.2,0,0,1-5.31,5.816S81.095,203.052,85.883,200.56Z" transform="translate(-53.322 -160.968)" fill="#0091ff"/>
            <path id="Path_44946" data-name="Path 44946" d="M56.536,324.09l-.156,1.97,5.824.833.561-1.752Z" transform="translate(-47.099 -188.318)" fill="#263238"/>
            <path id="Path_44947" data-name="Path 44947" d="M56.536,324.09l-.156,1.97,5.824.833.561-1.752Z" transform="translate(-47.099 -188.318)" fill="#fff" opacity="0.3"/>
            <path id="Path_44948" data-name="Path 44948" d="M74.06,326.23l.187,1.97,5.925-.008.343-1.923Z" transform="translate(-51.013 -188.792)" fill="#263238"/>
            <path id="Path_44949" data-name="Path 44949" d="M74.06,326.23l.187,1.97,5.925-.008.343-1.923Z" transform="translate(-51.013 -188.792)" fill="#fff" opacity="0.3"/>
          </g>
        </g>
      </g>
    </g>
  </g>
</svg>
