<?xml version="1.0" encoding="UTF-8"?><svg id="Layer_2" xmlns="http://www.w3.org/2000/svg" viewBox="0 0 32 32"><defs><style>.cls-1{fill:#0091ff;}.cls-2{fill:none;}</style></defs><g id="Layer_1-2"><g><rect class="cls-2" width="32" height="32"/><path class="cls-1" d="M13.5,26.52c-.68-.17-1.37-.3-2.03-.51-5.66-1.86-9.02-8.1-7.47-13.87C5.56,6.3,11.15,2.62,17.09,3.65c4.36,.76,7.34,3.32,8.96,7.44,.29,.74,.43,1.55,.59,2.34,.14,.68,.69,1.14,1.32,1.04,.66-.1,1.08-.71,.96-1.4-.08-.47-.15-.95-.28-1.41-1.63-5.63-5.31-9.07-11.05-10.28-.5-.11-1.02-.15-1.53-.22h-1.73c-.53,.07-1.06,.13-1.59,.23-3.14,.56-5.77,2.05-7.89,4.42-1.86,2.07-2.98,4.51-3.38,7.27-.05,.37-.09,.74-.14,1.11v1.73c.02,.07,.04,.15,.05,.22,.08,1.17,.3,2.33,.71,3.43,1.9,5.08,5.53,8.14,10.84,9.19,.34,.07,.67,.04,.96-.17,.38-.28,.56-.66,.48-1.13-.08-.49-.38-.81-.87-.93Zm16.45-3.52c-.7-.2-1.31,.22-1.47,1.01-.63,3.05-3.66,4.94-6.69,4.19-2.98-.74-4.76-3.86-3.91-6.82,.77-2.69,3.61-4.57,6.69-3.77,.69,.18,1.28-.17,1.45-.82,.16-.63-.19-1.22-.86-1.4-1.09-.3-2.19-.35-3.3-.17-3.5,.57-6.16,3.48-6.48,7.09-.3,3.43,1.88,6.78,5.17,7.9,.63,.21,1.3,.31,1.95,.46h1.27c.07-.02,.15-.04,.22-.05,3.37-.36,6.18-2.97,6.78-6.3,.1-.59-.24-1.15-.81-1.32Zm-19.75-4.52c-.23,.23-.39,.49-.42,.83-.03,.48,.23,.92,.66,1.12,.46,.22,.95,.12,1.34-.27,1.4-1.41,2.79-2.83,4.18-4.24,.26-.26,.37-.57,.37-.94,0-1.4,0-2.8,0-4.21s0-2.82,0-4.24c0-.56-.3-.99-.79-1.15-.77-.26-1.51,.31-1.51,1.16,0,2.59,0,5.19,0,7.78,0,.18-.05,.32-.18,.45-1.22,1.23-2.44,2.47-3.66,3.71Zm17.68-.14c-1.5,1.49-3.01,2.99-4.52,4.48-.07,.07-.15,.14-.25,.23-.48-.48-.94-.95-1.41-1.42-.52-.52-1.21-.55-1.69-.08-.48,.47-.46,1.19,.07,1.71,.51,.51,1.02,1.02,1.53,1.53,.92,.91,2.11,.92,3.03,0,1.26-1.24,2.51-2.49,3.76-3.73,.4-.39,.8-.77,1.18-1.18,.63-.67,.3-1.72-.58-1.92-.44-.1-.8,.06-1.12,.37Z"/></g></g></svg>