<?xml version="1.0" encoding="UTF-8"?><svg id="Layer_2" xmlns="http://www.w3.org/2000/svg" viewBox="0 0 32 32"><defs><style>.cls-1{fill:#0091ff;}.cls-2{fill:none;}</style></defs><g id="Layer_1-2"><g><rect class="cls-2" width="32" height="32"/><path class="cls-1" d="M30.71,19.16v-.8c-.05-.18-.09-.37-.14-.55-.2-.69-.58-1.26-1.17-1.71,.27-.51,.44-1.04,.45-1.61,0-1.87-1.47-3.36-3.33-3.36-1.79,0-3.58,0-5.36,0h-.36c.06-.13,.1-.23,.14-.33,.6-1.34,1.2-2.69,1.53-4.13,.18-.8,.28-1.6,.13-2.42-.28-1.47-1.45-2.61-2.95-2.89-.06-.01-.13-.04-.19-.06h-.86s-.03,.03-.05,.03c-1.51,.28-2.4,1.23-2.9,2.63-.32,.9-.63,1.81-1.05,2.67-.71,1.46-1.75,2.7-2.93,3.8-.94,.88-2.06,1.44-3.34,1.6-.92,.11-1.85,.11-2.78,.12-2.25,.03-4.13,1.73-4.23,3.97-.08,1.84-.03,3.69-.02,5.54,0,.53,.34,.93,.81,1.06,.78,.22,1.47-.3,1.47-1.14,0-1.71,0-3.43,0-5.14,0-1.15,.85-1.99,2-1.99,.6,0,1.21,.01,1.81,0,2.35-.09,4.4-.93,6.09-2.57,2.03-1.97,3.46-4.31,4.29-7.02,.1-.32,.27-.63,.47-.9,.19-.27,.5-.37,.84-.34,.66,.06,1.11,.48,1.22,1.14,.12,.77-.08,1.5-.32,2.22-.52,1.63-1.29,3.14-2.04,4.67-.46,.95,.06,1.78,1.11,1.78,1.55,0,3.1,0,4.65,0,.92,0,1.84,0,2.76,0,.5,0,.87,.25,1,.67,.23,.69-.23,1.33-.97,1.34-.92,0-1.84,0-2.76,0-.57,0-.99,.3-1.14,.79-.24,.78,.29,1.5,1.13,1.51,1.2,0,2.39,0,3.59,0,.51,0,.87,.24,1.01,.65,.24,.7-.23,1.35-.98,1.35-1.2,0-2.39,0-3.59,0-.59,0-1.01,.31-1.16,.8-.23,.78,.29,1.48,1.12,1.49,1.15,.01,2.3,0,3.45,0,.5,0,.87,.25,1,.67,.23,.69-.23,1.33-.97,1.34-1.13,.01-2.26,0-3.39,0-.22,0-.46,.05-.66,.14-.46,.22-.68,.75-.56,1.26,.12,.53,.53,.87,1.09,.88,.63,.01,1.26,0,1.89,0,.32,0,.58,.12,.78,.36,.28,.34,.36,.72,.17,1.12-.19,.4-.53,.59-.97,.59-3.27,0-6.55,0-9.82,0-.56,0-1.13,0-1.69,0-.54,.01-.95,.33-1.09,.82-.22,.8,.32,1.47,1.2,1.48,3.82,0,7.64,0,11.46,0,1.39,0,2.58-.82,3.09-2.12,.33-.85,.31-1.7-.06-2.55,.95-.47,1.55-1.22,1.79-2.24,.25-1.03,.02-1.97-.58-2.78,.19-.29,.38-.54,.51-.83,.15-.33,.23-.68,.34-1.02Zm-13.92,.7c-.5-.46-1.21-.39-1.7,.16-2.3,2.57-4.61,5.14-6.91,7.72-.78,.87-1.73,.89-2.56,.05-.77-.79-1.54-1.57-2.32-2.35-.48-.48-1.18-.49-1.64-.04-.46,.45-.47,1.15,0,1.64,.85,.87,1.7,1.74,2.56,2.59,.73,.71,1.63,1.04,2.66,1.07,1.12-.03,2.09-.43,2.86-1.29,2.35-2.62,4.7-5.24,7.05-7.87,.49-.54,.48-1.24,0-1.69Z"/></g></g></svg>