<?xml version="1.0" encoding="UTF-8"?><svg id="Layer_2" xmlns="http://www.w3.org/2000/svg" viewBox="0 0 40 40"><defs><style>.cls-1{fill:#0091ff;}.cls-2{fill:none;}</style></defs><g id="Layer_1-2"><g><rect class="cls-2" width="40" height="40"/><g><g><polygon class="cls-1" points="25.05 11.21 23.22 9.22 27.98 4.85 39.39 4.85 39.39 7.56 29.04 7.56 25.05 11.21"/><polygon class="cls-1" points="12.08 35.15 .61 35.15 .61 32.44 10.9 32.44 14.65 28.45 16.62 30.3 12.08 35.15"/></g><path class="cls-1" d="M18.44,26.76c-4.19,0-7.61-3.41-7.61-7.61s3.41-7.61,7.61-7.61,7.61,3.41,7.61,7.61-3.41,7.61-7.61,7.61Zm0-12.51c-2.7,0-4.9,2.2-4.9,4.9s2.2,4.9,4.9,4.9,4.9-2.2,4.9-4.9-2.2-4.9-4.9-4.9Z"/><path class="cls-1" d="M20.59,18.82c-.54,0-.98-.44-.98-.98,0-.39,.23-.73,.56-.89-.48-.38-1.08-.6-1.73-.6-1.55,0-2.8,1.26-2.8,2.8s1.26,2.8,2.8,2.8,2.8-1.26,2.8-2.8c0-.19-.02-.37-.05-.54-.17,.13-.37,.21-.6,.21Z"/><path class="cls-1" d="M19.66,31.04l-.27-2.69c1.01-.1,1.98-.37,2.9-.79l1.13,2.46c-1.19,.54-2.45,.89-3.75,1.02Zm-2.91-.06c-1.29-.18-2.54-.58-3.71-1.17l1.22-2.41c.9,.46,1.86,.76,2.86,.9l-.38,2.68Zm9.14-2.49l-1.69-2.11c.79-.63,1.47-1.38,2.01-2.23l2.28,1.46c-.71,1.1-1.58,2.07-2.6,2.88Zm-15.27-.3c-.99-.85-1.82-1.86-2.48-2.98l2.33-1.37c.51,.87,1.16,1.65,1.92,2.31l-1.77,2.05Zm19.14-5.2l-2.56-.87c.32-.95,.49-1.95,.49-2.96v-.02s2.71,0,2.71,0v.02c0,1.31-.21,2.6-.63,3.83Zm-22.79-.45c-.32-1.09-.48-2.23-.48-3.38,0-.16,0-.32,0-.47l2.7,.11c0,.12,0,.25,0,.37,0,.89,.13,1.77,.37,2.61l-2.6,.76Zm20.43-5.64c-.25-.98-.65-1.9-1.2-2.75l2.27-1.47c.71,1.1,1.23,2.3,1.55,3.56l-2.62,.66Zm-17.84-.33l-2.6-.76c.37-1.25,.93-2.43,1.68-3.5l2.22,1.55c-.58,.83-1.02,1.74-1.3,2.71Zm15.19-4.15c-.74-.69-1.58-1.26-2.5-1.67l1.12-2.46c1.19,.54,2.27,1.27,3.22,2.16l-1.85,1.97Zm-12.38-.23l-1.78-2.04c.99-.86,2.1-1.54,3.3-2.04l1.03,2.5c-.93,.38-1.79,.91-2.55,1.58Zm7.73-2.11c-.55-.1-1.11-.15-1.67-.15h0c-.45,0-.89,.03-1.33,.1l-.39-2.68c.57-.08,1.14-.12,1.72-.12h0c.72,0,1.45,.07,2.16,.19l-.49,2.66Z"/><g><rect class="cls-1" x="32.22" y=".83" width="7.18" height="2.71"/><rect class="cls-1" x=".61" y="36.46" width="7.18" height="2.71"/><rect class="cls-1" x="32.22" y="36.46" width="7.18" height="2.71"/><rect class="cls-1" x="32.22" y="32.44" width="7.18" height="2.71"/><rect class="cls-1" x="32.22" y="28.43" width="7.18" height="2.71"/></g></g></g></g></svg>