<?xml version="1.0" encoding="UTF-8"?><svg id="Layer_2" xmlns="http://www.w3.org/2000/svg" viewBox="0 0 40 40"><defs><style>.cls-1{fill:#0091ff;}.cls-2{fill:none;}</style></defs><g id="Layer_1-2"><g><rect class="cls-2" width="40" height="40"/><path class="cls-1" d="M19.32,32.56c0-.13-.01-.26-.02-.42h-.51c-4.41,0-8.81,0-13.22,0-.69,0-.79-.11-.79-.79,0-8.7,0-17.41,0-26.11,0-.66,.1-.77,.77-.77,6.49,0,12.97,0,19.46,0,.67,0,.79,.12,.79,.79,0,1.06,0,2.13,0,3.21h3.54c.01-.07,.03-.11,.03-.16,0-1.65,.04-3.31-.01-4.96-.05-1.48-1.04-2.38-2.52-2.38-7.7,0-15.4,0-23.1,0-.4,0-.84,.08-1.2,.25-.97,.45-1.34,1.29-1.34,2.33,0,9.23,0,18.46,0,27.69,0,1.59,0,3.18,0,4.77,0,.65,.17,1.23,.61,1.72,.43,.49,.99,.69,1.6,.81H19.85c-.39-.82-.56-1.68-.54-2.59,.03-1.14,0-2.28,0-3.42Zm-4.03,4.26c-.82,0-1.47-.64-1.48-1.46-.01-.83,.64-1.5,1.47-1.5,.83,0,1.49,.67,1.48,1.49,0,.81-.67,1.46-1.48,1.46ZM36.11,11c-3.94,.03-7.88,.01-11.82,.01-.28,0-.57,0-.84,.07-1.04,.26-1.63,1.07-1.63,2.23,0,7.65,0,15.3,0,22.95,0,.1,0,.2,.01,.29,.03,.47,.2,.87,.5,1.24,.39,.47,.92,.67,1.49,.79h13c.76-.15,1.4-.49,1.76-1.23,.09-.19,.15-.41,.23-.61V12.79c-.45-1.47-1.4-1.8-2.69-1.79Zm-5.83,26.33c-.75,0-1.34-.62-1.33-1.37,.01-.74,.64-1.35,1.37-1.33,.74,.02,1.35,.65,1.33,1.38-.02,.74-.63,1.33-1.38,1.32Zm6.11-4.37c0,.63-.11,.74-.75,.74-3.56,0-7.12,0-10.68,0-.63,0-.75-.12-.75-.75,0-6.3,0-12.61,0-18.91,0-.65,.1-.75,.74-.75,3.57,0,7.15,0,10.72,0,.64,0,.72,.08,.72,.72,0,3.17,0,6.34,0,9.51s0,6.29,0,9.44Z"/></g></g></svg>