<?xml version="1.0" encoding="UTF-8"?><svg id="Layer_2" xmlns="http://www.w3.org/2000/svg" viewBox="0 0 28 28"><defs><style>.cls-1{fill:#0091ff;}.cls-2{fill:none;}</style></defs><g id="Layer_1-2"><g><rect class="cls-2" width="28" height="28"/><path class="cls-1" d="M24.8,1.82c-3.6,0-7.2,0-10.8,0s-7.22,0-10.83,0c-1.55,0-2.46,.91-2.46,2.45,0,6.48,0,12.97,0,19.45,0,1.54,.92,2.45,2.46,2.45,7.21,0,14.42,0,21.62,0,1.57,0,2.48-.91,2.48-2.47,0-6.47,0-12.95,0-19.42,0-1.56-.91-2.47-2.48-2.47ZM9.56,23.94H2.94V4.06h6.61V23.94Zm15.49,0H11.81V4.06h13.23V23.95Zm-8.83-11.07h6.62v-2.17h-6.62v2.17Zm4.39-6.6h-6.6v2.18h6.6v-2.18Zm-6.59,15.45h6.6v-2.17h-6.6v2.17Zm4.43-4.42h4.38v-2.18h-4.38v2.18ZM7.34,10.7h-2.17v2.18h2.17v-2.18Zm0,4.42h-2.17v2.17h2.17v-2.17Zm0-8.84h-2.17v2.17h2.17v-2.17Zm-2.02,15.45c.67,.01,1.33,0,2.02,0v-2.19h-2.2c0,.69,0,1.35,0,2.02,0,.06,.11,.17,.17,.17Z"/></g></g></svg>