<?xml version="1.0" encoding="UTF-8"?><svg id="Layer_2" xmlns="http://www.w3.org/2000/svg" xmlns:xlink="http://www.w3.org/1999/xlink" viewBox="0 0 28 28"><defs><style>.cls-1{fill:url(#Neetable_2);}.cls-2{fill:#0091ff;}.cls-3{fill:none;}</style><linearGradient id="Neetable_2" x1="12.81" y1="9.85" x2="13.04" y2="9.85" gradientTransform="matrix(1, 0, 0, 1, 0, 0)" gradientUnits="userSpaceOnUse"><stop offset="0" stop-color="#578ef0"/><stop offset=".42" stop-color="#886ce6"/><stop offset=".8" stop-color="#b052df"/><stop offset="1" stop-color="#bf49dd"/></linearGradient></defs><g id="Layer_1-2"><g><rect class="cls-3" width="28" height="28"/><path class="cls-2" d="M26.36,25.74c-.22,.02-.45,0-.69,0v-.34c0-3.27,0-6.54,0-9.8,0-.62-.3-.92-.93-.92-1,0-2,0-3,0-.72,0-.99,.26-.99,.98,0,3.24,0,6.48,0,9.72v.35c-.51,0-.99-.01-1.46,0-.26,.01-.34-.05-.34-.32,.01-2,0-4,0-6.01,0-.58-.31-.88-.88-.88-1.02,0-2.05,0-3.07,0-.66,0-.95,.29-.95,.95,0,1.98,0,3.95,0,5.93v.31h-1.78c0-.82,0-1.63,0-2.43,0-.57-.31-.89-.88-.9-1.05,0-2.1,0-3.15,0-.57,0-.88,.31-.88,.89,0,.72,0,1.44,0,2.16,0,.09,0,.18-.01,.28h-1.76V13.71c.11,.02,.2,.04,.3,.06,.87,.2,1.74,.21,2.61,.05,3.36-.64,5.97-3.87,5.37-7.54-.43-2.62-2.21-4.7-4.79-5.34-.47-.12-.95-.17-1.43-.25h-.68c-.43,.07-.87,.12-1.3,.21C3.05,1.51,1.12,3.62,.76,6.27c-.03,.2-.07,.41-.1,.61v.99c.07,.34,.12,.68,.2,1.01,.43,1.73,1.42,3.06,2.91,4.02,.18,.11,.24,.23,.24,.43,0,4.32,0,8.65,0,12.97,0,.73,.28,1,1.01,1,7.11,0,14.22,0,21.33,0,.48,0,.83-.14,1-.61v-.36c-.17-.45-.51-.62-.98-.59ZM2.22,7.3c0-2.78,2.28-5.07,5.04-5.07,2.9,0,5.08,2.17,5.09,5.06,0,2.89-2.18,5.07-5.08,5.07-2.76,0-5.04-2.29-5.04-5.06ZM10.69,25.72h-1.75v-1.76h1.75v1.76Zm6.7,0h-1.75v-5.62h1.75v5.62Zm6.7,0h-1.75v-9.46h1.75v9.46Zm-1.66-16.23c.12,.04,.24,.07,.41,.12-.11,.07-.19,.12-.27,.17-3.79,2.19-7.59,4.37-11.38,6.56-1.13,.65-2.27,1.31-3.4,1.96-.33,.19-.46,.47-.41,.83,.04,.3,.28,.54,.59,.62,.26,.07,.47-.03,.69-.15,4.16-2.4,8.32-4.8,12.49-7.2,.82-.47,1.64-.94,2.5-1.44-.04,.17-.08,.29-.11,.41-.11,.46,.11,.87,.52,.99,.43,.12,.86-.12,.98-.58,.21-.75,.41-1.5,.6-2.26,.11-.42-.12-.81-.53-.94-.15-.05-.3-.08-.45-.12-.6-.16-1.2-.33-1.81-.48-.48-.12-.87,.1-.99,.55-.12,.43,.11,.81,.57,.95Z"/><path class="cls-2" d="M9.27,7.45c-.54-.45-1.06-.89-1.58-1.33-.14-.12-.25-.25-.27-.44-.02-.25,.07-.45,.29-.58,.22-.13,.45-.11,.64,.05,.29,.23,.57,.47,.85,.71,.43,.36,.86,.72,1.28,1.09,.36,.3,.36,.69,0,.99-.69,.58-1.37,1.17-2.06,1.75-.29,.24-.62,.24-.85,0-.24-.25-.21-.63,.08-.88,.4-.35,.81-.69,1.22-1.03,.13-.11,.25-.21,.39-.33Z"/><path class="cls-2" d="M4.9,7.45c.53-.45,1.04-.89,1.56-1.33,.14-.12,.25-.25,.26-.44,.02-.25-.07-.45-.29-.58-.22-.13-.44-.11-.63,.05-.29,.23-.56,.47-.84,.71-.42,.36-.84,.72-1.27,1.09-.35,.3-.35,.69,0,.99,.68,.58,1.36,1.17,2.04,1.75,.29,.24,.61,.24,.84,0,.24-.25,.2-.63-.08-.88-.4-.35-.8-.69-1.2-1.03-.12-.11-.25-.21-.39-.33Z"/><path class="cls-1" d="M13.04,9.82c-.07,.03-.15,.05-.23,.05"/></g></g></svg>