<?xml version="1.0" encoding="UTF-8"?><svg id="Layer_2" xmlns="http://www.w3.org/2000/svg" viewBox="0 0 28 28"><defs><style>.cls-1{fill:#0091ff;}.cls-2{fill:none;}</style></defs><g id="Layer_2-2"><g><rect class="cls-2" width="28" height="28"/><g><path class="cls-1" d="M16.45,27.67h-4.9s-.1-.04-.14-.05c-1.4-.31-2.28-1.62-1.98-3.03,.22-1.05,.51-2.09,.77-3.13,.05-.2,.09-.4,.15-.63-.15,0-.25,0-.36,0-2.07,0-4.14,0-6.21,0-1.42,0-2.56-1.12-2.56-2.53,0-5.15,0-10.3,0-15.45,0-.94,.44-1.68,1.25-2.16,.28-.17,.62-.25,.93-.37,7.07,0,14.14,0,21.22,0,.01,.01,.02,.03,.04,.03,1.44,.36,2.15,1.27,2.15,2.76,0,4.98,0,9.96,0,14.95,0,1.7-1.07,2.77-2.75,2.77-2.02,0-4.05,0-6.07,0h-.3c.02,.1,.03,.17,.05,.24,.28,1.13,.56,2.26,.84,3.39,.36,1.45-.51,2.84-1.96,3.16-.05,.01-.1,.03-.14,.05Zm-2.45-8.55c3.36,0,6.72,0,10.07,0,.69,0,1.01-.32,1.01-1.02,0-5.02,0-10.04,0-15.06,0-.69-.32-1.01-1.01-1.01-6.72,0-13.43,0-20.15,0-.71,0-1.02,.31-1.02,1.03,0,5.01,0,10.02,0,15.03,0,.71,.32,1.03,1.02,1.03,3.36,0,6.72,0,10.07,0Zm1.89,1.73h-3.79c-.34,1.36-.68,2.7-1.01,4.05-.13,.55,.25,1.05,.82,1.06,1.39,0,2.77,0,4.16,0,.58,0,.96-.51,.83-1.08-.07-.32-.16-.64-.24-.96-.26-1.02-.51-2.05-.77-3.07Z"/><path class="cls-1" d="M6.32,10.98c.48-.44,.98-.91,1.49-1.38,.14-.13,.26-.27,.39-.4,.41-.41,.82-.44,1.28-.08,1.13,.9,2.25,1.8,3.37,2.7,.07,.06,.14,.11,.23,.18,.07-.07,.14-.13,.21-.2,.87-.87,1.75-1.75,2.62-2.62,.25-.25,.55-.35,.9-.24,.32,.11,.51,.34,.57,.67,.05,.28-.03,.53-.23,.73-1.13,1.14-2.26,2.27-3.39,3.4-.36,.36-.79,.36-1.22,.02-1.13-.9-2.26-1.81-3.39-2.72-.06-.04-.11-.09-.18-.14-.06,.05-.11,.09-.16,.14-.78,.8-1.56,1.61-2.33,2.42-.09,.09-.14,.24-.15,.37-.01,.62,0,1.24,0,1.89h.33c3.53,0,7.05,0,10.58,0,.11,0,.21,0,.32,.01,.43,.07,.74,.47,.71,.9-.03,.42-.37,.76-.8,.79-.08,0-.16,0-.24,0-3.86,0-7.71,0-11.57,0-.73,0-1.04-.31-1.04-1.03,0-3.3,0-6.6,0-9.91,0-.12,0-.23,.02-.35,.09-.42,.47-.71,.9-.68,.43,.03,.78,.39,.79,.83,.01,.7,0,1.41,0,2.11,0,.89,0,1.78,0,2.58Z"/><path class="cls-1" d="M20.85,3.75c.54,0,1.08,0,1.63,0,.52,0,.9,.36,.91,.85,0,.49-.38,.86-.89,.86-1.11,0-2.22,0-3.33,0-.52,0-.9-.38-.89-.86,0-.49,.38-.84,.91-.85,.56,0,1.12,0,1.68,0Z"/><path class="cls-1" d="M20.42,6.31c.41,0,.82,0,1.23,0,.5,0,.88,.37,.88,.85,0,.48-.37,.85-.87,.86-.84,0-1.69,0-2.53,0-.5,0-.87-.38-.87-.86,0-.48,.38-.84,.88-.85,0,0,.02,0,.03,0,.42,0,.83,0,1.25,0Z"/></g></g></g></svg>