<?xml version="1.0" encoding="UTF-8"?><svg id="Layer_2" xmlns="http://www.w3.org/2000/svg" viewBox="0 0 28.47 28.47"><defs><style>.cls-1{fill:none;}.cls-2{fill:#0091ff;stroke:#0091ff;stroke-miterlimit:10;stroke-width:.6px;}</style></defs><g id="Layer_1-2"><g><rect class="cls-1" x=".23" y=".23" width="28" height="28"/><g><path class="cls-2" d="M.3,23.71c.12-.46,.26-.9,.59-1.26,.47-.52,1.06-.78,1.76-.77,.14,0,.29,.09,.43,.14,.9,.36,1.81,.4,2.7,.03,.74-.32,1.36-.12,1.95,.31,.61,.44,.91,1.08,.92,1.82,.02,.94,.02,1.88,0,2.83-.02,.67-.38,1.11-1.02,1.32-.03,.01-.06,.03-.09,.05H1.44c-.59-.17-.97-.55-1.14-1.14v-3.32Zm4.19,3.54c.89,0,1.78,0,2.67,0,.4,0,.57-.17,.58-.56,0-.34,0-.67,0-1.01,0-.63,.02-1.25-.03-1.88-.07-.85-.87-1.33-1.66-1.05-1.07,.38-2.16,.38-3.21-.04-.34-.13-.62-.09-.9,.08-.48,.28-.7,.72-.7,1.27,0,.85,0,1.71,0,2.56,0,.46,.16,.62,.62,.63,.88,0,1.76,0,2.64,0Z"/><path class="cls-2" d="M20.93,28.17c-.35-.13-.7-.28-.88-.63-.12-.24-.23-.53-.23-.79-.02-1.01-.02-2.03,.03-3.04,.05-1.12,1.22-2.11,2.33-2.03,.08,0,.16,.04,.23,.07,1.05,.47,2.1,.47,3.16,0,.43-.19,.85-.04,1.23,.13,.74,.34,1.19,.92,1.34,1.73,0,.03,.03,.06,.04,.1v3.32c-.17,.59-.55,.97-1.14,1.14h-6.1Zm3.05-.93c.9,0,1.8,0,2.69,0,.38,0,.56-.18,.56-.55,0-.91,.01-1.81,0-2.72,0-.54-.27-.96-.74-1.21-.23-.12-.47-.2-.75-.09-1.17,.48-2.34,.46-3.52,0-.14-.05-.32-.06-.47-.02-.64,.17-1,.7-1.01,1.44,0,.84,0,1.69,0,2.53,0,.45,.17,.61,.63,.61,.87,0,1.74,0,2.61,0Z"/><path class="cls-2" d="M14.62,.3c.53,.14,1.02,.33,1.45,.7,1.22,1.03,1.28,3.03,.09,4.1-.81,.74-1.76,.98-2.8,.62-1.04-.36-1.67-1.11-1.87-2.21-.26-1.41,.75-2.85,2.19-3.16,.06-.01,.12-.04,.18-.06h.76Zm-.42,4.64c1.02,.02,1.87-.78,1.89-1.8,.03-1.02-.8-1.88-1.83-1.9-1-.02-1.86,.81-1.88,1.83-.02,1.02,.79,1.86,1.81,1.88Z"/><path class="cls-2" d="M14.22,12.84c-.87,0-1.74,0-2.61,0-1,0-1.56-.56-1.56-1.57,0-.97-.02-1.94,.05-2.91,.08-1.13,1.16-2.05,2.29-2.01,.15,0,.29,.09,.43,.14,.93,.37,1.86,.41,2.78,0,.54-.24,1.03-.15,1.51,.09,.89,.44,1.3,1.2,1.32,2.18,.01,.86,0,1.72,0,2.58,0,.91-.57,1.48-1.48,1.49-.91,.01-1.81,0-2.72,0Zm.02-.93c.89,0,1.78,0,2.66,0,.4,0,.58-.16,.58-.55,0-.89,.01-1.78,0-2.66,0-.57-.26-1.01-.78-1.27-.24-.12-.47-.17-.75-.06-1.16,.47-2.33,.45-3.49,0-.12-.05-.28-.06-.41-.03-.65,.14-1.06,.7-1.07,1.45,0,.83,0,1.67,0,2.5,0,.49,.15,.64,.65,.64,.87,0,1.74,0,2.61,0Z"/><path class="cls-2" d="M8.93,4.4c-.27-.13-.54-.25-.81-.38-.32-.15-.44-.39-.32-.65,.12-.26,.38-.34,.69-.2,.56,.25,1.12,.5,1.68,.77,.35,.16,.43,.38,.27,.73-.28,.61-.57,1.21-.87,1.81-.14,.29-.4,.39-.65,.26-.23-.12-.31-.37-.18-.66,.08-.19,.17-.38,.22-.61-.35,.24-.71,.47-1.04,.74-2.41,1.95-3.71,4.47-3.89,7.57,0,.14-.01,.29-.02,.43-.02,.3-.2,.47-.46,.47-.27,0-.46-.2-.46-.5,0-.34,.01-.69,.05-1.03,.44-3.76,2.28-6.62,5.53-8.57,.07-.04,.14-.08,.21-.13,.01,0,.02-.03,.04-.06Z"/><path class="cls-2" d="M25.34,13.17c.23-.23,.41-.42,.6-.61,.24-.23,.51-.24,.7-.05,.19,.19,.18,.47-.05,.7-.42,.43-.85,.86-1.29,1.29-.25,.25-.51,.25-.76,0-.43-.42-.86-.85-1.29-1.29-.23-.23-.23-.51-.04-.7,.19-.19,.45-.17,.68,.04,.07,.07,.14,.14,.21,.21,.07,.07,.14,.13,.27,.18-.08-.43-.14-.86-.26-1.28-.86-3.11-2.75-5.36-5.67-6.74-.09-.04-.18-.08-.27-.14-.22-.14-.28-.37-.18-.59,.1-.2,.33-.3,.55-.23,.15,.05,.28,.12,.42,.19,3.35,1.65,5.41,4.31,6.19,7.96,.07,.33,.11,.66,.17,1.06Z"/><path class="cls-2" d="M4.49,15.63c1.53,0,2.78,1.26,2.78,2.79,0,1.51-1.27,2.78-2.79,2.78-1.53,0-2.78-1.27-2.77-2.79,0-1.53,1.26-2.78,2.79-2.77Zm0,.93c-1.02,0-1.85,.82-1.85,1.84,0,1.02,.82,1.85,1.84,1.86,1.01,.01,1.88-.85,1.87-1.86,0-1.01-.84-1.84-1.86-1.84Z"/><path class="cls-2" d="M23.98,15.63c1.53,0,2.78,1.24,2.79,2.77,0,1.53-1.25,2.79-2.77,2.79-1.52,0-2.79-1.26-2.79-2.78,0-1.53,1.25-2.78,2.78-2.79Zm1.86,2.78c0-1.02-.82-1.84-1.85-1.85-1.02,0-1.85,.82-1.86,1.84,0,1.01,.85,1.88,1.87,1.87,1.02,0,1.84-.85,1.84-1.86Z"/><path class="cls-2" d="M11.04,24.94c.12,.24,.22,.43,.32,.62,.15,.31,.08,.58-.17,.7-.25,.12-.49,.03-.65-.27-.29-.54-.58-1.09-.86-1.64-.18-.36-.06-.64,.33-.76,.56-.17,1.13-.34,1.69-.49,.33-.09,.57,.03,.65,.31,.07,.26-.07,.47-.4,.58-.08,.03-.15,.05-.23,.15,.42,.07,.83,.16,1.25,.22,1.71,.21,3.38,.01,4.99-.61,.11-.04,.22-.08,.33-.11,.24-.06,.47,.06,.55,.28,.08,.22,0,.46-.24,.57-.3,.13-.6,.25-.91,.35-1.78,.55-3.58,.71-5.42,.36-.4-.07-.79-.17-1.24-.26Z"/></g></g></g></svg>