<?xml version="1.0" encoding="UTF-8"?><svg id="Layer_2" xmlns="http://www.w3.org/2000/svg" viewBox="0 0 28 28"><defs><style>.cls-1{fill:#0091ff;}.cls-2{fill:none;}</style></defs><g id="Layer_1-2"><g><rect class="cls-2" width="28" height="28"/><g><path class="cls-1" d="M18.32,1.98h-3.47V.28h-1.7V1.98h-3.47L4.15,7.16V27.72H23.85V7.16L18.32,1.98Zm3.83,24.04H5.85V7.9L10.35,3.68h2.8v4.7h1.7V3.68h2.8l4.51,4.22V26.02h0Z"/><path class="cls-1" d="M13.39,14.34c0-1.4-1.14-2.55-2.55-2.55s-2.55,1.14-2.55,2.55,1.14,2.55,2.55,2.55,2.55-1.14,2.55-2.55Zm-3.39,0c0-.47,.38-.85,.85-.85s.85,.38,.85,.85-.38,.85-.85,.85-.85-.38-.85-.85Z"/><path class="cls-1" d="M14.61,20.66c0,1.4,1.14,2.55,2.55,2.55s2.55-1.14,2.55-2.55-1.14-2.55-2.55-2.55-2.55,1.14-2.55,2.55Zm3.39,0c0,.47-.38,.85-.85,.85s-.85-.38-.85-.85,.38-.85,.85-.85,.85,.38,.85,.85Z"/><path class="cls-1" d="M10.69,22.01l-1.2-1.2,7.82-7.82,1.2,1.2-7.82,7.82Z"/></g></g></g></svg>