<?xml version="1.0" encoding="UTF-8"?><svg id="Layer_2" xmlns="http://www.w3.org/2000/svg" viewBox="0 0 28 28"><defs><style>.cls-1{fill:#0091ff;}.cls-2{fill:none;}</style></defs><g id="Layer_1-2"><g><rect class="cls-2" width="28" height="28"/><g><path class="cls-1" d="M27.46,13.32l-2.71-2.81,.55-3.87c.07-.53-.28-1.02-.8-1.11l-3.85-.67-1.83-3.45c-.25-.47-.83-.66-1.3-.42l-3.51,1.71-3.51-1.71c-.48-.23-1.05-.05-1.3,.42l-1.83,3.45-3.85,.67c-.52,.09-.88,.58-.8,1.11l.55,3.87L.54,13.32c-.37,.38-.37,.99,0,1.37l2.71,2.81-.55,3.87c-.07,.53,.28,1.02,.8,1.11l3.85,.67,1.83,3.45c.25,.47,.82,.66,1.3,.42l3.51-1.71,3.51,1.71c.14,.07,.29,.1,.43,.1,.35,0,.69-.19,.87-.52l1.83-3.45,3.85-.67c.52-.09,.88-.58,.8-1.11l-.55-3.87,2.71-2.81c.37-.38,.37-.99,0-1.37Zm-4.46,3.15c-.21,.22-.31,.52-.27,.82l.48,3.4-3.38,.59c-.3,.05-.56,.24-.7,.51l-1.61,3.03-3.08-1.51c-.14-.07-.28-.1-.43-.1s-.3,.03-.43,.1l-3.08,1.51-1.61-3.03c-.14-.27-.4-.46-.7-.51l-3.38-.59,.48-3.4c.04-.3-.06-.6-.27-.82l-2.39-2.47,2.39-2.47c.21-.22,.31-.52,.27-.82l-.48-3.4,3.38-.59c.3-.05,.56-.24,.7-.51l1.61-3.03,3.08,1.51c.27,.13,.59,.13,.86,0l3.08-1.51,1.61,3.03c.14,.27,.4,.46,.7,.51l3.38,.59-.48,3.4c-.04,.3,.06,.6,.27,.82l2.39,2.47-2.39,2.47Z"/><path class="cls-1" d="M10.87,13.26c1.31,0,2.38-1.07,2.38-2.38s-1.07-2.38-2.38-2.38-2.38,1.07-2.38,2.38c0,1.31,1.07,2.38,2.38,2.38Zm0-3.19c.45,0,.81,.36,.81,.81s-.36,.81-.81,.81-.81-.36-.81-.81,.36-.81,.81-.81Z"/><path class="cls-1" d="M18.75,9.25c-.31-.31-.81-.31-1.11,0l-8.4,8.4c-.31,.31-.31,.81,0,1.11,.15,.15,.36,.23,.56,.23s.4-.08,.56-.23l8.4-8.4c.31-.31,.31-.81,0-1.11Z"/><path class="cls-1" d="M17.13,14.74c-1.31,0-2.38,1.07-2.38,2.38s1.07,2.38,2.38,2.38,2.38-1.07,2.38-2.38c0-1.31-1.07-2.38-2.38-2.38Zm0,3.19c-.45,0-.81-.36-.81-.81s.36-.81,.81-.81,.81,.36,.81,.81c0,.45-.36,.81-.81,.81Z"/></g></g></g></svg>