<?xml version="1.0" encoding="UTF-8"?><svg id="Layer_2" xmlns="http://www.w3.org/2000/svg" viewBox="0 0 28 28"><defs><style>.cls-1{stroke-linecap:round;}.cls-1,.cls-2,.cls-3{fill:none;}.cls-1,.cls-3{stroke:#0091ff;stroke-linejoin:round;stroke-width:2.03px;}</style></defs><g id="Layer_1-2"><g><rect class="cls-2" width="28" height="28"/><g><path class="cls-1" d="M16.54,22.13h10.17l-.91-1.32c-.71-1.12-1.12-2.44-1.12-3.76h0c0-1.73-1.32-3.05-3.05-3.05h0c-1.73,0-3.05,1.32-3.05,3.05h0c0,1.32-.41,2.64-1.12,3.76l-.91,1.32Z"/><path class="cls-3" d="M23.66,24.17c0,1.12-.91,2.03-2.03,2.03s-2.03-.91-2.03-2.03"/><path class="cls-3" d="M25.69,10.95V1.8H1.29V25.18h0c2.74-2.34,5.9-4.07,9.35-5.08"/><line class="cls-1" x1="8.41" y1="8.92" x2="14.51" y2="8.92"/><line class="cls-1" x1="8.41" y1="12.98" x2="11.46" y2="12.98"/></g></g></g></svg>