<?xml version="1.0" encoding="UTF-8"?><svg id="Layer_2" xmlns="http://www.w3.org/2000/svg" viewBox="0 0 28 28"><defs><style>.cls-1{fill:#0091ff;}.cls-2{fill:none;}</style></defs><g id="Layer_1-2"><g><rect class="cls-2" width="28" height="28"/><g><path class="cls-1" d="M23.82,12.95c-.02-.61-.32-1.16-.77-1.52,.12-.26,.19-.55,.19-.85,0-1.11-.9-2.02-2.02-2.02h-2.34v-2.82c.01-.55-.2-1.07-.59-1.46-.39-.39-.91-.61-1.46-.61-.83,0-1.57,.49-1.9,1.26-.28,.66-.81,1.63-1.54,2.82-.31,.5-.87,.82-1.46,.82H4.54v11.3H20.63c1.11,0,2.02-.9,2.02-2.02,0-.3-.07-.58-.18-.84,.47-.37,.77-.94,.77-1.58,0-.3-.07-.58-.18-.84,.07-.05,.14-.11,.2-.18,.38-.39,.59-.91,.57-1.46Zm-15.15,5.31h-2.53V10.17h2.53v8.09Zm13.42-4.97s-.14,.12-.29,.12h-2.19v1.61h1.61c.22,0,.41,.18,.41,.41s-.18,.41-.41,.41h-1.61v1.61h1.02c.22,0,.41,.18,.41,.41s-.18,.41-.41,.41H10.28V10.17h1.66c1.15,0,2.23-.61,2.83-1.58,.54-.87,1.26-2.11,1.65-3.03,.07-.17,.24-.28,.42-.28,.12,0,.24,.05,.32,.13,.09,.09,.13,.2,.13,.32l-.02,4.43h3.95c.22,0,.41,.18,.41,.41s-.18,.41-.41,.41h-1.61v1.61h2.17c.23,0,.43,.18,.43,.4,0,.15-.07,.25-.12,.3Z"/><path class="cls-1" d="M.65,1V23.08H11.29l2.89,3.92,2.89-3.92h10.64V1H.65ZM26.1,21.47h-9.85l-2.08,2.82-2.08-2.82H2.26V2.61H26.1V21.47h0Z"/></g></g></g></svg>