<?xml version="1.0" encoding="UTF-8"?><svg id="Layer_2" xmlns="http://www.w3.org/2000/svg" viewBox="0 0 28 28"><defs><style>.cls-1{stroke:#0091ff;stroke-miterlimit:10;stroke-width:.6px;}.cls-1,.cls-2{fill:none;}.cls-3{fill:#0091ff;}</style></defs><g id="Layer_1-2"><g><rect class="cls-2" width="28" height="28"/><g><path class="cls-3" d="M26.38,10.94c-.93-.52-2.6-.54-3.53,.66-.72,.93-1.47,1.84-2.21,2.76-.06,.08-.15,.19-.23,.19-.44,.02-.89,0-1.35,0,0-.13,0-.22,0-.32,0-1.06,.02-2.13,0-3.19-.05-1.75-1.49-3.19-3.23-3.23-1.21-.03-2.43-.03-3.64,0-1.49,.03-2.84,1.09-3.12,2.55-.15,.79-.1,1.62-.12,2.44,0,.37,.23,.61,.55,.62,.33,0,.56-.24,.57-.62,0-.48,0-.97,0-1.45,0-.24,.02-.48,.08-.7,.29-1.09,1.13-1.71,2.29-1.72,1.05,0,2.09,0,3.14,0,.22,0,.44,.02,.65,.08,1.09,.29,1.71,1.13,1.72,2.3,0,1.02,0,2.04,0,3.06,0,.06-.01,.12-.02,.18-1.32,.18-1.76,1.02-1.67,2.25h-4.51c0-.16,0-.29,0-.42-.01-1.11-.71-1.81-1.81-1.81-.72,0-1.44,0-2.16,0-.19,0-.3-.06-.42-.2-.73-.92-1.46-1.84-2.21-2.76-.45-.55-1.02-.94-1.76-.98-.77-.04-1.51,.02-2.12,.57-.43,.38-.63,.87-.76,1.41v7.96s.04,.04,.04,.06c.18,1.3,1.42,2.41,2.92,2.37,1-.03,2,.01,3.01-.02,.33,0,.47,.1,.59,.39,.42,1.04,.87,2.07,1.32,3.1,.15,.34,.35,.48,.64,.44,.42-.06,.59-.43,.39-.89-.52-1.22-1.05-2.43-1.56-3.65-.15-.36-.38-.51-.77-.5-1.2,.01-2.39,.02-3.59,0-.3,0-.62-.05-.89-.18-.7-.32-.98-.92-.97-1.67,0-1.77,0-3.53,0-5.3,0-.59,0-1.18,0-1.77,0-.61,.33-1.08,.86-1.17,.72-.13,1.37-.05,1.86,.6,.74,.97,1.53,1.9,2.28,2.87,.24,.31,.5,.44,.89,.43,.8-.02,1.6,0,2.4,0,.42,0,.66,.18,.69,.53,.02,.19,0,.38,0,.59-.1,0-.19,.01-.27,.01-1.41,0-2.83,0-4.24,0-.19,0-.3-.06-.41-.21-.42-.58-.86-1.16-1.29-1.73-.21-.27-.43-.36-.68-.29-.4,.13-.52,.56-.23,.94,.45,.62,.92,1.22,1.37,1.84,.08,.11,.13,.27,.14,.41,.02,.55,0,1.11,0,1.66,0,.54,.21,.75,.75,.75,.66,0,1.32,0,1.98,0,.52,0,.88,.27,1.06,.76,.1,.25,.18,.51,.26,.77,.52,1.56,1.04,3.13,1.57,4.69,.06,.18,.22,.36,.38,.47,.19,.12,.41,.05,.58-.11,.2-.2,.19-.43,.11-.69-.6-1.81-1.2-3.61-1.8-5.42-.13-.4-.34-.75-.66-1.03-.47-.42-1.03-.58-1.65-.58-.47,0-.94,0-1.42,0v-1.1h15.7v1.1c-.49,0-.95,0-1.42,0-1.18,0-1.96,.57-2.33,1.68-.59,1.76-1.18,3.53-1.77,5.29-.04,.11-.06,.22-.07,.33-.01,.25,.15,.46,.38,.54,.24,.08,.51-.02,.64-.24,.06-.11,.1-.22,.14-.34,.58-1.74,1.16-3.48,1.74-5.22,.22-.66,.56-.91,1.27-.91,.62,0,1.23,0,1.85,0,.51,0,.72-.21,.72-.72,0-.55-.01-1.11,0-1.66,0-.15,.07-.33,.15-.45,.31-.44,.64-.86,.96-1.29,.15-.2,.32-.4,.45-.62,.23-.36,.05-.79-.34-.87-.28-.05-.47,.09-.63,.3-.43,.58-.87,1.15-1.29,1.73-.11,.15-.23,.21-.41,.21-1.41,0-2.83,0-4.24,0-.09,0-.17,0-.28-.01,0-.11,0-.19,0-.28,0-.68,.16-.84,.84-.84,.78,0,1.56-.01,2.35,0,.33,0,.56-.11,.76-.37,.77-.97,1.55-1.93,2.32-2.9,.37-.47,.81-.7,1.43-.67,.87,.04,1.31,.45,1.31,1.32,0,2.31,0,4.62,0,6.93,0,.21-.02,.42-.07,.62-.21,.78-.86,1.25-1.74,1.25-1.21,0-2.43,.01-3.64,0-.39,0-.62,.14-.77,.5-.5,1.21-1.03,2.41-1.54,3.61-.04,.1-.08,.2-.1,.3-.06,.32,.14,.59,.47,.64,.28,.04,.49-.09,.64-.43,.46-1.08,.93-2.16,1.38-3.24,.07-.18,.16-.25,.36-.25,1.12,.01,2.23,.01,3.35,0,.85-.01,1.55-.36,2.12-1.01,.36-.41,.52-.9,.66-1.41v-7.96c-.02-.06-.04-.12-.05-.17-.14-.65-.49-1.17-1.07-1.49ZM5.35,8.61c1.03-1.17,1.04-2.64,.03-3.82-1.06-1.24-3.13-1.21-4.17,.04-.37,.45-.58,.95-.71,1.5v.74c.14,.56,.35,1.07,.74,1.51,1.04,1.19,3.06,1.21,4.11,.03Zm-2.02-3.61c.93,0,1.67,.76,1.66,1.68,0,.92-.75,1.67-1.67,1.68-.92,.01-1.7-.77-1.7-1.69,0-.93,.77-1.69,1.7-1.68Zm24.12,1.13c-.3-1.52-1.85-2.54-3.35-2.2-2.09,.48-2.91,2.9-1.55,4.56,1.09,1.33,3.17,1.33,4.27,0,.35-.42,.54-.91,.68-1.43v-.74c-.02-.07-.04-.13-.05-.2Zm-2.75,2.24c-.92,0-1.69-.77-1.68-1.7,0-.92,.75-1.67,1.68-1.67,.93,0,1.7,.77,1.69,1.69s-.77,1.67-1.68,1.68Zm-10.69-1.69c1.54,0,2.82-1.28,2.81-2.82,0-1.56-1.28-2.81-2.83-2.8-1.54,.01-2.79,1.28-2.78,2.82,0,1.54,1.27,2.8,2.8,2.8Zm0-4.5c.92,0,1.7,.78,1.69,1.7,0,.92-.76,1.67-1.68,1.67-.92,0-1.68-.74-1.69-1.67-.01-.92,.76-1.7,1.68-1.7Zm-.54,7.89v1.1h1.09v-1.1h-1.09Zm-.02,9.28v7.3c0,.05-.01,.11,0,.16,.02,.05,.06,.12,.1,.12,.34,0,.68,0,1.01,0v-7.87h-1.11v.29Z"/><path class="cls-1" d="M26.38,10.94c-.93-.52-2.6-.54-3.53,.66-.72,.93-1.47,1.84-2.21,2.76-.06,.08-.15,.19-.23,.19-.44,.02-.89,0-1.35,0,0-.13,0-.22,0-.32,0-1.06,.02-2.13,0-3.19-.05-1.75-1.49-3.19-3.23-3.23-1.21-.03-2.43-.03-3.64,0-1.49,.03-2.84,1.09-3.12,2.55-.15,.79-.1,1.62-.12,2.44,0,.37,.23,.61,.55,.62,.33,0,.56-.24,.57-.62,0-.48,0-.97,0-1.45,0-.24,.02-.48,.08-.7,.29-1.09,1.13-1.71,2.29-1.72,1.05,0,2.09,0,3.14,0,.22,0,.44,.02,.65,.08,1.09,.29,1.71,1.13,1.72,2.3,0,1.02,0,2.04,0,3.06,0,.06-.01,.12-.02,.18-1.32,.18-1.76,1.02-1.67,2.25h-4.51c0-.16,0-.29,0-.42-.01-1.11-.71-1.81-1.81-1.81-.72,0-1.44,0-2.16,0-.19,0-.3-.06-.42-.2-.73-.92-1.46-1.84-2.21-2.76-.45-.55-1.02-.94-1.76-.98-.77-.04-1.51,.02-2.12,.57-.43,.38-.63,.87-.76,1.41v7.96s.04,.04,.04,.06c.18,1.3,1.42,2.41,2.92,2.37,1-.03,2,.01,3.01-.02,.33,0,.47,.1,.59,.39,.42,1.04,.87,2.07,1.32,3.1,.15,.34,.35,.48,.64,.44,.42-.06,.59-.43,.39-.89-.52-1.22-1.05-2.43-1.56-3.65-.15-.36-.38-.51-.77-.5-1.2,.01-2.39,.02-3.59,0-.3,0-.62-.05-.89-.18-.7-.32-.98-.92-.97-1.67,0-1.77,0-3.53,0-5.3,0-.59,0-1.18,0-1.77,0-.61,.33-1.08,.86-1.17,.72-.13,1.37-.05,1.86,.6,.74,.97,1.53,1.9,2.28,2.87,.24,.31,.5,.44,.89,.43,.8-.02,1.6,0,2.4,0,.42,0,.66,.18,.69,.53,.02,.19,0,.38,0,.59-.1,0-.19,.01-.27,.01-1.41,0-2.83,0-4.24,0-.19,0-.3-.06-.41-.21-.42-.58-.86-1.16-1.29-1.73-.21-.27-.43-.36-.68-.29-.4,.13-.52,.56-.23,.94,.45,.62,.92,1.22,1.37,1.84,.08,.11,.13,.27,.14,.41,.02,.55,0,1.11,0,1.66,0,.54,.21,.75,.75,.75,.66,0,1.32,0,1.98,0,.52,0,.88,.27,1.06,.76,.1,.25,.18,.51,.26,.77,.52,1.56,1.04,3.13,1.57,4.69,.06,.18,.22,.36,.38,.47,.19,.12,.41,.05,.58-.11,.2-.2,.19-.43,.11-.69-.6-1.81-1.2-3.61-1.8-5.42-.13-.4-.34-.75-.66-1.03-.47-.42-1.03-.58-1.65-.58-.47,0-.94,0-1.42,0v-1.1h15.7v1.1c-.49,0-.95,0-1.42,0-1.18,0-1.96,.57-2.33,1.68-.59,1.76-1.18,3.53-1.77,5.29-.04,.11-.06,.22-.07,.33-.01,.25,.15,.46,.38,.54,.24,.08,.51-.02,.64-.24,.06-.11,.1-.22,.14-.34,.58-1.74,1.16-3.48,1.74-5.22,.22-.66,.56-.91,1.27-.91,.62,0,1.23,0,1.85,0,.51,0,.72-.21,.72-.72,0-.55-.01-1.11,0-1.66,0-.15,.07-.33,.15-.45,.31-.44,.64-.86,.96-1.29,.15-.2,.32-.4,.45-.62,.23-.36,.05-.79-.34-.87-.28-.05-.47,.09-.63,.3-.43,.58-.87,1.15-1.29,1.73-.11,.15-.23,.21-.41,.21-1.41,0-2.83,0-4.24,0-.09,0-.17,0-.28-.01,0-.11,0-.19,0-.28,0-.68,.16-.84,.84-.84,.78,0,1.56-.01,2.35,0,.33,0,.56-.11,.76-.37,.77-.97,1.55-1.93,2.32-2.9,.37-.47,.81-.7,1.43-.67,.87,.04,1.31,.45,1.31,1.32,0,2.31,0,4.62,0,6.93,0,.21-.02,.42-.07,.62-.21,.78-.86,1.25-1.74,1.25-1.21,0-2.43,.01-3.64,0-.39,0-.62,.14-.77,.5-.5,1.21-1.03,2.41-1.54,3.61-.04,.1-.08,.2-.1,.3-.06,.32,.14,.59,.47,.64,.28,.04,.49-.09,.64-.43,.46-1.08,.93-2.16,1.38-3.24,.07-.18,.16-.25,.36-.25,1.12,.01,2.23,.01,3.35,0,.85-.01,1.55-.36,2.12-1.01,.36-.41,.52-.9,.66-1.41v-7.96c-.02-.06-.04-.12-.05-.17-.14-.65-.49-1.17-1.07-1.49ZM5.35,8.61c1.03-1.17,1.04-2.64,.03-3.82-1.06-1.24-3.13-1.21-4.17,.04-.37,.45-.58,.95-.71,1.5v.74c.14,.56,.35,1.07,.74,1.51,1.04,1.19,3.06,1.21,4.11,.03Zm-2.02-3.61c.93,0,1.67,.76,1.66,1.68,0,.92-.75,1.67-1.67,1.68-.92,.01-1.7-.77-1.7-1.69,0-.93,.77-1.69,1.7-1.68Zm24.12,1.13c-.3-1.52-1.85-2.54-3.35-2.2-2.09,.48-2.91,2.9-1.55,4.56,1.09,1.33,3.17,1.33,4.27,0,.35-.42,.54-.91,.68-1.43v-.74c-.02-.07-.04-.13-.05-.2Zm-2.75,2.24c-.92,0-1.69-.77-1.68-1.7,0-.92,.75-1.67,1.68-1.67,.93,0,1.7,.77,1.69,1.69s-.77,1.67-1.68,1.68Zm-10.69-1.69c1.54,0,2.82-1.28,2.81-2.82,0-1.56-1.28-2.81-2.83-2.8-1.54,.01-2.79,1.28-2.78,2.82,0,1.54,1.27,2.8,2.8,2.8Zm0-4.5c.92,0,1.7,.78,1.69,1.7,0,.92-.76,1.67-1.68,1.67-.92,0-1.68-.74-1.69-1.67-.01-.92,.76-1.7,1.68-1.7Zm-.54,7.89v1.1h1.09v-1.1h-1.09Zm-.02,9.28v7.3c0,.05-.01,.11,0,.16,.02,.05,.06,.12,.1,.12,.34,0,.68,0,1.01,0v-7.87h-1.11v.29Z"/></g></g></g></svg>