<?xml version="1.0" encoding="UTF-8"?><svg xmlns="http://www.w3.org/2000/svg" viewBox="0 0 40 40"><defs><style>.d{fill:#fff;}.e{stroke:#fff;stroke-miterlimit:10;stroke-width:.4px;}.e,.f{fill:none;}</style></defs><g id="a"/><g id="b"><g id="c"><g><rect class="f" width="40" height="40"/><g><path class="d" d="M38.9,8.89c0-.23-.01-.47-.06-.7-.22-1.18-1.24-2.02-2.43-2v1.19c.99,.28,1.24,.62,1.24,1.65,0,6.02,0,12.04,0,18.05v.47H2.36v-.46c0-3.97,0-7.95,0-11.92,0-2.13,0-4.26,0-6.39,0-.73,.36-1.17,1.07-1.34,.06-.01,.11-.04,.16-.05v-1.21c-.73,.01-1.36,.25-1.79,.79-.3,.38-.47,.87-.7,1.31V30.5c.16,.35,.27,.74,.49,1.06,.55,.8,1.37,1.07,2.31,1.07,3.88,0,7.75,0,11.63,0h.43c0,.07,.01,.1,0,.12-.47,1.58-.94,3.16-1.42,4.73-.03,.09-.19,.18-.29,.18-.39,.02-.78,0-1.16,0v1.23h13.83v-1.23c-.36,0-.71-.02-1.05,0-.26,.02-.39-.06-.46-.33-.42-1.46-.87-2.92-1.3-4.38-.03-.1-.04-.2-.07-.33h.48c3.85,0,7.7,0,11.56,0,.32,0,.64-.02,.95-.1,1.21-.32,1.89-1.28,1.89-2.62,0-7,0-14,0-21.01Zm-14.76,28.61s0,.07,.02,.15H15.84c.03-.12,.04-.22,.07-.32,.44-1.46,.88-2.92,1.31-4.38,.07-.23,.16-.34,.42-.33,1.57,.02,3.15,0,4.72,0,.17,0,.32-.02,.39,.22,.45,1.56,.93,3.11,1.39,4.66Zm13.49-7.32c-.04,.62-.48,1.07-1.1,1.15-.16,.02-.32,.03-.48,.03-10.7,0-21.41,0-32.11,0-1.14,0-1.59-.45-1.59-1.58,0-.29,0-.59,0-.92H37.64c0,.45,.02,.88,0,1.31ZM6.13,25.79V5.63c0-.63,0-1.26,0-1.88,.01-.87,.52-1.37,1.39-1.38,.05,0,.1,0,.15,0,8.22,0,16.44,0,24.66,0,.12,0,.25,0,.37,0,.59,.06,1.03,.46,1.13,1.04,.03,.19,.03,.39,.03,.59,0,7.27,0,14.55,0,21.82v.46h1.24c0-.11,.02-.19,.02-.27,0-7.42,0-14.84,0-22.26,0-.89-.32-1.65-1.07-2.16-.32-.21-.71-.33-1.06-.48H7c-1.7,.65-2.13,1.28-2.13,3.12V26.29h1.26v-.5ZM32.58,6.17H7.41v1.21h25.16v-1.21ZM9.62,11.53c-1.45,0-2.22,.77-2.22,2.2-.01,1.76,0,3.52,0,5.28,0,1.44,.77,2.21,2.21,2.22,1.19,0,2.38,0,3.58,0,1.21,0,2.42,0,3.63,0,1.44,0,2.22-.77,2.22-2.21,0-1.76,0-3.52,0-5.28,0-1.44-.77-2.21-2.21-2.22-2.4-.01-4.81-.01-7.21,0Zm7.25,7.44c0,.16-.2,.45-.31,.45-2.61,.03-5.21,.02-7.87,.02v-5.71h8.13c.02,.14,.06,.26,.06,.38,0,1.62,.01,3.24-.01,4.86Zm6.29,2.26c1.19,.01,2.38,0,3.58,0,1.25,0,2.5,.01,3.75,0,1.35-.02,2.11-.78,2.11-2.13,0-1.82,0-3.63,0-5.45,0-1.32-.74-2.11-2.06-2.12-2.5-.03-5-.03-7.49,0-1.32,.01-2.05,.8-2.06,2.12,0,1.8,0,3.59,0,5.39,0,1.42,.76,2.17,2.17,2.18Zm-.2-7.73h7.67v5.75h-7.67v-5.75ZM9.94,3.66v1.2h1.22v-1.2h-1.22Zm-2.51-.02v1.22h1.2v-1.22h-1.2Zm5.04,0v1.22h1.21v-1.22h-1.21Z"/><path class="e" d="M38.9,8.89c0-.23-.01-.47-.06-.7-.22-1.18-1.24-2.02-2.43-2v1.19c.99,.28,1.24,.62,1.24,1.65,0,6.02,0,12.04,0,18.05v.47H2.36v-.46c0-3.97,0-7.95,0-11.92,0-2.13,0-4.26,0-6.39,0-.73,.36-1.17,1.07-1.34,.06-.01,.11-.04,.16-.05v-1.21c-.73,.01-1.36,.25-1.79,.79-.3,.38-.47,.87-.7,1.31V30.5c.16,.35,.27,.74,.49,1.06,.55,.8,1.37,1.07,2.31,1.07,3.88,0,7.75,0,11.63,0h.43c0,.07,.01,.1,0,.12-.47,1.58-.94,3.16-1.42,4.73-.03,.09-.19,.18-.29,.18-.39,.02-.78,0-1.16,0v1.23h13.83v-1.23c-.36,0-.71-.02-1.05,0-.26,.02-.39-.06-.46-.33-.42-1.46-.87-2.92-1.3-4.38-.03-.1-.04-.2-.07-.33h.48c3.85,0,7.7,0,11.56,0,.32,0,.64-.02,.95-.1,1.21-.32,1.89-1.28,1.89-2.62,0-7,0-14,0-21.01Zm-14.76,28.61s0,.07,.02,.15H15.84c.03-.12,.04-.22,.07-.32,.44-1.46,.88-2.92,1.31-4.38,.07-.23,.16-.34,.42-.33,1.57,.02,3.15,0,4.72,0,.17,0,.32-.02,.39,.22,.45,1.56,.93,3.11,1.39,4.66Zm13.49-7.32c-.04,.62-.48,1.07-1.1,1.15-.16,.02-.32,.03-.48,.03-10.7,0-21.41,0-32.11,0-1.14,0-1.59-.45-1.59-1.58,0-.29,0-.59,0-.92H37.64c0,.45,.02,.88,0,1.31ZM6.13,25.79V5.63c0-.63,0-1.26,0-1.88,.01-.87,.52-1.37,1.39-1.38,.05,0,.1,0,.15,0,8.22,0,16.44,0,24.66,0,.12,0,.25,0,.37,0,.59,.06,1.03,.46,1.13,1.04,.03,.19,.03,.39,.03,.59,0,7.27,0,14.55,0,21.82v.46h1.24c0-.11,.02-.19,.02-.27,0-7.42,0-14.84,0-22.26,0-.89-.32-1.65-1.07-2.16-.32-.21-.71-.33-1.06-.48H7c-1.7,.65-2.13,1.28-2.13,3.12V26.29h1.26v-.5ZM32.58,6.17H7.41v1.21h25.16v-1.21ZM9.62,11.53c-1.45,0-2.22,.77-2.22,2.2-.01,1.76,0,3.52,0,5.28,0,1.44,.77,2.21,2.21,2.22,1.19,0,2.38,0,3.58,0,1.21,0,2.42,0,3.63,0,1.44,0,2.22-.77,2.22-2.21,0-1.76,0-3.52,0-5.28,0-1.44-.77-2.21-2.21-2.22-2.4-.01-4.81-.01-7.21,0Zm7.25,7.44c0,.16-.2,.45-.31,.45-2.61,.03-5.21,.02-7.87,.02v-5.71h8.13c.02,.14,.06,.26,.06,.38,0,1.62,.01,3.24-.01,4.86Zm6.29,2.26c1.19,.01,2.38,0,3.58,0,1.25,0,2.5,.01,3.75,0,1.35-.02,2.11-.78,2.11-2.13,0-1.82,0-3.63,0-5.45,0-1.32-.74-2.11-2.06-2.12-2.5-.03-5-.03-7.49,0-1.32,.01-2.05,.8-2.06,2.12,0,1.8,0,3.59,0,5.39,0,1.42,.76,2.17,2.17,2.18Zm-.2-7.73h7.67v5.75h-7.67v-5.75ZM9.94,3.66v1.2h1.22v-1.2h-1.22Zm-2.51-.02v1.22h1.2v-1.22h-1.2Zm5.04,0v1.22h1.21v-1.22h-1.21Z"/></g></g></g></g></svg>