<?xml version="1.0" encoding="UTF-8"?><svg xmlns="http://www.w3.org/2000/svg" viewBox="0 0 40 40"><defs><style>.d{fill:#fff;}.e{fill:none;}</style></defs><g id="a"/><g id="b"><g id="c"><g><rect class="e" width="40" height="40"/><g><path class="d" d="M39.58,8.09V31.91s-.04,.07-.05,.1c-.51,1.95-1.7,2.88-3.71,2.88-8.61,0-17.22,0-25.84,0-2.04,0-4.08,0-6.12,0-1.51,0-2.82-.96-3.28-2.36-.07-.2-.12-.41-.17-.62V8.09s.04-.07,.05-.1c.56-2.01,1.7-2.88,3.79-2.88,8.28,0,16.56,0,24.84,0,2.34,0,4.69-.02,7.03,0,1.46,.02,2.52,.72,3.15,2.03,.14,.29,.21,.62,.31,.94Zm-19.61,24.51c5.31,0,10.63,0,15.94,0,.94,0,1.37-.43,1.37-1.38,0-7.48,0-14.96,0-22.44,0-.95-.43-1.38-1.37-1.38-10.6,0-21.21,0-31.81,0-.97,0-1.39,.42-1.39,1.4,0,7.47,0,14.93,0,22.4,0,.97,.42,1.4,1.39,1.4,5.29,0,10.58,0,15.87,0Z"/><path class="d" d="M15.35,30.31c-5.72-.03-10.38-4.7-10.35-10.36,.03-5.66,4.74-10.28,10.46-10.25,5.69,.03,10.31,4.69,10.27,10.38-.04,5.67-4.7,10.26-10.38,10.23Zm6.68-5.81c2.28-3.19,1.84-7.97-1.6-10.75-3.34-2.7-8.29-2.25-11.15,1.02-2.82,3.22-2.29,7.59-.46,9.81,.81-1.16,1.87-2.04,3.14-2.66-1.96-2.47-1.08-5.16,.38-6.46,1.67-1.49,4.15-1.59,5.93-.18,.87,.69,1.43,1.59,1.64,2.67,.29,1.47-.1,2.78-1.02,3.91,.58,.4,1.17,.74,1.68,1.17,.52,.44,.97,.96,1.46,1.47Zm-1.65,1.78c-1.2-1.88-2.89-2.87-5.11-2.82-2.12,.05-3.72,1.05-4.83,2.84,2.67,2.18,6.96,2.39,9.94-.02Zm-2.67-7.43c0-1.25-1.04-2.28-2.3-2.28-1.26,0-2.29,1.03-2.29,2.28,0,1.27,1.04,2.31,2.31,2.3,1.25,0,2.28-1.05,2.27-2.3Z"/><path class="d" d="M31.51,14.28c-.75,0-1.5,0-2.25,0-.71,0-1.22-.48-1.23-1.13,0-.67,.51-1.15,1.24-1.16,1.49,0,2.98,0,4.47,0,.74,0,1.25,.48,1.25,1.15,0,.67-.52,1.13-1.26,1.14-.74,0-1.48,0-2.21,0Z"/><path class="d" d="M31.51,18.86c-.75,0-1.5,0-2.25,0-.71,0-1.22-.48-1.23-1.13,0-.67,.51-1.15,1.24-1.16,1.49,0,2.98,0,4.47,0,.74,0,1.25,.48,1.25,1.15,0,.67-.52,1.13-1.26,1.14-.74,0-1.48,0-2.21,0Z"/><path class="d" d="M31.51,23.44c-.75,0-1.5,0-2.25,0-.71,0-1.22-.48-1.23-1.13,0-.67,.51-1.15,1.24-1.16,1.49,0,2.98,0,4.47,0,.74,0,1.25,.48,1.25,1.15,0,.67-.52,1.13-1.26,1.14-.74,0-1.48,0-2.21,0Z"/><path class="d" d="M31.51,28.02c-.75,0-1.5,0-2.25,0-.71,0-1.22-.49-1.22-1.14,0-.65,.51-1.15,1.21-1.15,1.51,0,3.03,0,4.54,0,.7,0,1.21,.5,1.21,1.16,0,.64-.51,1.12-1.19,1.13-.76,0-1.53,0-2.29,0Z"/></g></g></g></g></svg>