<?xml version="1.0" encoding="UTF-8"?><svg xmlns="http://www.w3.org/2000/svg" viewBox="0 0 40 40"><defs><style>.d{fill:#fff;}.e{fill:none;}</style></defs><g id="a"/><g id="b"><g id="c"><g><rect class="e" width="40" height="40"/><path class="d" d="M.78,28.2c0-8.07,0-16.14,0-24.22,.15-.43,.25-.9,.48-1.29,.77-1.34,1.97-1.91,3.5-1.9,10.16,.01,20.32,0,30.47,0,.13,0,.25,0,.38,0,2.12,.1,3.61,1.65,3.61,3.78,0,7.67,0,15.34,0,23.01,0,.34-.03,.68-.11,1-.42,1.71-1.86,2.8-3.7,2.81-2.89,0-5.78,0-8.67,0h-.46c.25,1.82,.49,3.56,.75,5.31,.01,.09,.19,.21,.3,.22,.5,.02,1,0,1.5,.01,.71,.01,1.21,.47,1.22,1.12,.01,.66-.49,1.14-1.23,1.14-5.87,0-11.73,0-17.6,0-.73,0-1.24-.48-1.23-1.13,0-.65,.51-1.11,1.25-1.12,.4,0,.8-.02,1.2,0,.29,.02,.41-.07,.45-.38,.09-.75,.23-1.48,.34-2.23,.15-.96,.3-1.92,.45-2.94-.19,0-.33,0-.48,0-2.85,0-5.7,0-8.56,0-1.57,0-2.75-.67-3.47-2.08-.18-.35-.26-.75-.38-1.13Zm18.06,.95v-11.9H3.04c0,3.54,0,7.05,0,10.56,0,.75,.62,1.3,1.4,1.34,.31,.02,.63-.01,.94,0,.26,.02,.37-.06,.43-.33,.18-.76,.55-1.43,1.09-1.99,.33-.34,.7-.63,1.06-.94-1.19-1.94-.49-3.92,.7-4.92,1.33-1.12,3.26-1.16,4.64-.1,1.52,1.17,1.82,2.96,.83,5.02,0,.01,0,.03,.01,.03,1.1,.75,1.86,1.73,2.18,3.04,.02,.07,.16,.16,.24,.16,.75,.01,1.5,0,2.27,0Zm13.11-3.21c.91,.58,1.58,1.33,1.99,2.31,.13,.3,.17,.73,.4,.87,.24,.15,.65,.04,.99,.04,1.07,0,1.63-.57,1.63-1.66,0-3.28,0-6.57,0-9.85v-.4h-15.81v11.89h2.43c.3-1.4,1.08-2.46,2.26-3.21-1.15-1.79-.66-3.82,.66-4.94,1.37-1.16,3.38-1.17,4.76-.02,1.26,1.05,1.89,3.05,.68,4.96ZM18.85,3.07c-.12,0-.22-.02-.31-.02-4.65,0-9.3,0-13.96,0-.99,0-1.55,.58-1.55,1.58,0,3.32,0,6.64,0,9.96,0,.12,.01,.24,.02,.37h2.68c.31-1.37,1.06-2.44,2.25-3.19-1.29-2.17-.38-4.1,.73-5,1.31-1.06,3.19-1.11,4.53-.11,.68,.51,1.15,1.18,1.38,2,.3,1.1,.1,2.13-.45,3.02,.49,.51,1.02,.93,1.39,1.46,.38,.54,.61,1.18,.92,1.8h2.39V3.07Zm13.12,8.7c1.19,.75,1.93,1.81,2.24,3.17h2.75v-.4c0-3.27,0-6.54,0-9.81,0-1.14-.53-1.68-1.68-1.68-4.58,0-9.15,0-13.73,0-.13,0-.27,.01-.4,.02V14.95h2.43c.31-1.38,1.07-2.44,2.25-3.19-1.24-2.06-.47-4.01,.71-4.98,1.32-1.09,3.26-1.13,4.62-.07,1.52,1.19,1.81,2.95,.81,5.06Zm-7.98,19.67H15.95l-.86,5.49h9.67l-.77-5.49Zm-9.96-2.31c-.38-.82-.95-1.4-1.79-1.51-.78-.1-1.6-.08-2.38,0-.6,.06-1.08,.44-1.44,.93-.12,.16-.21,.35-.34,.58h5.96Zm17.86,.01c-.38-.83-.94-1.41-1.78-1.52-.78-.11-1.6-.11-2.38,0-.85,.12-1.43,.68-1.78,1.52h5.94ZM8.07,14.95h5.94c-.41-.9-1.05-1.45-1.99-1.55-.64-.07-1.3-.07-1.94,0-.94,.1-1.58,.66-2.01,1.55Zm17.86,0h5.93c-.41-.89-1.06-1.45-2-1.55-.64-.07-1.3-.07-1.95,0-.94,.11-1.58,.66-1.98,1.55Zm4.42-5.3c0-.8-.66-1.45-1.46-1.45-.8,0-1.46,.67-1.45,1.47,.01,.78,.66,1.43,1.45,1.44,.8,0,1.46-.65,1.46-1.45Zm-1.48,15.63c.81,.01,1.47-.63,1.48-1.43,0-.8-.64-1.46-1.45-1.47-.8,0-1.46,.66-1.46,1.45,0,.79,.64,1.44,1.43,1.45Zm-17.83,0c.81,0,1.45-.64,1.45-1.45,0-.81-.66-1.46-1.46-1.45-.79,0-1.43,.65-1.44,1.44-.01,.8,.64,1.46,1.45,1.46Zm.02-17.08c-.81,0-1.46,.63-1.47,1.44,0,.8,.65,1.46,1.45,1.46,.79,0,1.44-.64,1.45-1.42,.01-.81-.62-1.47-1.43-1.48Z"/></g></g></g></svg>