<?xml version="1.0" encoding="UTF-8"?><svg id="Layer_2" xmlns="http://www.w3.org/2000/svg" viewBox="0 0 69.57 69.57"><defs><style>.cls-1{fill:#0091ff;}.cls-2{fill:none;}</style></defs><g id="Layer_1-2"><g><rect class="cls-2" width="69.57" height="69.57"/><g><path class="cls-1" d="M34.25,68.91c-9.32-5.37-18.63-10.75-27.97-16.1-1.01-.58-1.42-1.34-1.42-2.49,.02-10.38,.02-20.76,0-31.14,0-1.15,.43-1.9,1.44-2.47C15.37,11.51,24.42,6.29,33.47,1.05c.91-.53,1.72-.53,2.63,0,9.07,5.24,18.14,10.47,27.22,15.69,.96,.55,1.38,1.28,1.38,2.38-.02,10.42-.02,20.85,0,31.27,0,1.12-.44,1.86-1.42,2.42-9.07,5.2-18.12,10.43-27.17,15.64-.26,.15-.53,.3-.8,.45h-1.07Zm26.43-34.09c0-4.78,0-9.56,0-14.33,0-.45-.11-.71-.53-.94-8.27-4.75-16.54-9.51-24.79-14.28-.45-.26-.77-.23-1.2,.02-8.22,4.75-16.44,9.49-24.68,14.21-.47,.27-.62,.56-.62,1.09,.02,9.44,.02,18.89,0,28.33,0,.56,.16,.86,.65,1.14,8.24,4.72,16.46,9.46,24.68,14.21,.45,.26,.76,.24,1.2-.01,8.24-4.76,16.48-9.51,24.73-14.25,.43-.25,.56-.51,.56-.99-.02-4.73-.01-9.47-.01-14.2Z"/><path class="cls-1" d="M17.6,33.58c0,.23,0,.46,0,.7,0,2.24,.02,4.49,0,6.73-.02,1.59-1.28,2.53-2.67,2.04-.71-.25-1.15-.75-1.27-1.49-.05-.28-.06-.57-.06-.86,0-3.96,0-7.91,0-11.87,0-1.8,.7-2.49,2.51-2.49,.47,0,.94,.01,1.4,0,1.1-.04,1.79,.48,2.2,1.48,1.05,2.55,2.12,5.08,3.18,7.62,.08,.2,.18,.39,.38,.56,0-1.47,0-2.95,0-4.42,0-1.04,0-2.09,0-3.13,.01-1.22,.82-2.08,1.95-2.09,1.16-.02,2.04,.85,2.05,2.08,.02,2.87,0,5.73,0,8.6,0,1.22,0,2.44,0,3.67,0,1.78-.72,2.49-2.52,2.49-.47,0-.94-.02-1.4,0-1.1,.04-1.79-.48-2.2-1.48-1.02-2.48-2.06-4.96-3.1-7.44-.1-.24-.21-.47-.32-.7-.05,0-.09,.01-.14,.02Z"/><path class="cls-1" d="M34.78,37.83c0,1.17,.02,2.28,0,3.38-.02,.79-.38,1.42-1.11,1.76-.72,.33-1.43,.27-2.09-.19-.55-.39-.79-.95-.8-1.61,0-4.29-.01-8.58,0-12.87,0-1.14,.86-1.95,2.02-1.96,2.78-.02,5.57-.01,8.35,0,1.23,0,2.05,.82,2.05,1.98,0,1.15-.81,1.98-2.04,2.01-1.67,.03-3.34,0-5.01,0-.42,0-.84,0-1.32,0v3.48c.93,0,1.87,0,2.82,0,.47,0,.94-.01,1.4,0,1.21,.05,2.03,.89,2,2.04-.02,1.12-.85,1.93-2.03,1.95-1.38,.02-2.76,0-4.25,0Z"/><path class="cls-1" d="M48.88,30.34c-.76,0-1.42,0-2.09,0-1.32-.02-2.18-.82-2.18-2.01,0-1.2,.85-1.99,2.18-1.99,2.74,0,5.48,0,8.22,0,1.3,0,2.13,.77,2.15,1.95,.02,1.2-.84,2.02-2.15,2.05-.68,.01-1.37,0-2.12,0,0,.34,0,.6,0,.86,0,3.25,0,6.49,0,9.74,0,1.42-.83,2.27-2.08,2.23-.98-.03-1.74-.69-1.87-1.66-.04-.31-.05-.62-.05-.93,0-3.11,0-6.22,0-9.34,0-.27,0-.53,0-.9Z"/></g></g></g></svg>