<?xml version="1.0" encoding="UTF-8"?><svg id="Layer_2" xmlns="http://www.w3.org/2000/svg" viewBox="0 0 32 32"><defs><style>.cls-1{fill:#0091ff;}.cls-2{fill:none;}</style></defs><g id="Layer_1-2"><g><rect class="cls-2" width="32" height="32"/><path class="cls-1" d="M29.63,1.38c-.96,.03-1.93,0-2.9,0-.64,0-.96,.32-.96,.97,0,.22,0,.44,0,.67-.09,0-.16,.01-.24,.01-2.11,0-4.23,0-6.34,0-.18,0-.26-.06-.34-.22-.46-.92-1.21-1.42-2.24-1.42s-1.78,.51-2.24,1.42c-.06,.11-.08,.23-.26,.22-2.21,0-4.41,0-6.66,0,0-.23,0-.46,0-.68,0-.65-.32-.97-.96-.97-.97,0-1.93,.02-2.9,0-.51-.01-.89,.14-1.11,.61v3.75c.22,.48,.6,.63,1.11,.61,.96-.03,1.91,0,2.87,0,.67,0,.98-.31,.99-.97,0-.23,0-.45,0-.67h3.35c-.46,.37-.92,.69-1.34,1.07-2.08,1.9-3.27,4.26-3.55,7.06-.02,.22-.09,.33-.3,.43-1.22,.56-1.77,2.09-1.18,3.26,.65,1.31,2.17,1.82,3.41,1.14,.88-.48,1.33-1.24,1.32-2.22-.01-1-.51-1.74-1.42-2.19-.15-.07-.21-.15-.18-.31,.08-.45,.12-.91,.24-1.35,.61-2.29,1.91-4.11,3.89-5.43,.83-.55,1.73-.95,2.7-1.19,.5,.87,1.23,1.36,2.23,1.36,1.01,0,1.74-.5,2.24-1.37,2.19,.6,3.93,1.82,5.22,3.66,.91,1.3,1.44,2.73,1.6,4.31,.02,.16-.02,.24-.17,.31-1.31,.63-1.8,2.16-1.11,3.42,.52,.95,1.56,1.43,2.66,1.23,1.04-.19,1.83-1.07,1.97-2.2,.12-.99-.47-2.04-1.42-2.46-.19-.08-.26-.18-.27-.38-.27-2.82-1.46-5.18-3.55-7.08-.42-.38-.89-.72-1.35-1.08h3.36c0,.24,0,.47,0,.69,0,.62,.33,.94,.96,.94,.97,0,1.93-.02,2.9,0,.51,.01,.89-.14,1.11-.61V1.99c-.22-.48-.6-.63-1.11-.61ZM5.76,4.67h-1.62v-1.63h1.62v1.63Zm.91,11.64c-.45,0-.83-.37-.83-.82,0-.45,.37-.83,.82-.83,.45,0,.83,.37,.83,.82,0,.45-.37,.83-.82,.83ZM16.6,4.69c-.45,0-.82-.38-.82-.83,0-.45,.38-.82,.83-.82,.45,0,.82,.38,.82,.83,0,.45-.38,.82-.83,.82Zm9.93,9.98c.45,0,.83,.37,.83,.82,0,.45-.37,.83-.82,.83-.45,0-.83-.37-.83-.82,0-.45,.37-.83,.82-.83Zm2.53-10h-1.63v-1.61h1.63v1.61Zm-11.67,3.92c-.48-.71-1.12-.71-1.59,0-2.13,3.18-4.25,6.37-6.38,9.55-.4,.59-.38,.89,.12,1.41,1.51,1.6,2.44,3.49,2.8,5.66,.03,.2,0,.34-.17,.48-.7,.62-1.12,1.4-1.3,2.31-.19,.94-.08,1.23,.53,1.6h10.38c.5-.23,.66-.63,.6-1.17-.12-1.08-.55-2.01-1.36-2.75-.16-.14-.2-.28-.17-.48,.35-2.16,1.27-4.04,2.78-5.64,.52-.55,.54-.83,.13-1.45-2.12-3.18-4.24-6.35-6.37-9.53Zm-.8,9.39c.45,0,.83,.37,.83,.82,0,.45-.37,.83-.82,.83-.45,0-.83-.37-.83-.82,0-.45,.37-.83,.82-.83Zm-3.95,9.96c.21-.86,1.14-1.64,2.11-1.67,1.23-.04,2.47-.04,3.7,0,.96,.04,1.81,.74,2.12,1.67h-7.93Zm6.63-3.27c-1.79-.12-3.55-.12-5.35,0-.41-2.22-1.37-4.21-2.9-5.95,1.57-2.34,3.13-4.68,4.69-7.02,.02,0,.04,0,.05,.01v.18c0,1.45,0,2.9,0,4.35,0,.17-.04,.25-.21,.33-1.04,.47-1.58,1.51-1.4,2.69,.16,1.05,1.06,1.87,2.22,2.01,1.01,.12,2.08-.52,2.5-1.5,.52-1.22-.03-2.65-1.24-3.2-.12-.05-.22-.08-.22-.26,0-1.51,0-3.01,0-4.52,0-.02,.01-.05,.03-.13,1.59,2.37,3.15,4.71,4.72,7.06-1.53,1.73-2.49,3.72-2.9,5.95Z"/></g></g></svg>