<?xml version="1.0" encoding="UTF-8"?><svg id="Layer_2" xmlns="http://www.w3.org/2000/svg" viewBox="0 0 70.18 69.57"><defs><style>.cls-1{fill:#0091ff;stroke:#0091ff;stroke-miterlimit:10;}.cls-2{fill:none;}</style></defs><g id="Layer_1-2"><g><rect class="cls-2" x=".31" width="69.57" height="69.57"/><g><path class="cls-1" d="M37.28,34.25c-.01-2-1.31-3.33-3.17-3.35-2.12-.02-4.25-.03-6.38,0-.77,.01-1.25-.25-1.63-.94-1.36-2.43-3.58-3.51-6.27-3.63-2.79-.13-5.49,.47-8.04,1.54-3.17,1.34-6.44,1.96-9.86,1.9-.9-.02-1.43-.4-1.44-1.08-.01-.68,.49-1.12,1.41-1.11,3.32,.03,6.45-.69,9.53-1.93,2.97-1.19,6.1-1.82,9.35-1.47,1.68,.18,3.21,.78,4.76,1.85-.98-4.41-.5-8.48,1.84-12.22,2.35-3.76,5.72-6.16,10.07-7.06,6.89-1.43,13.67,1.77,16.98,7.88,3.21,5.91,2.44,14.2-3.99,19.58,.18,.08,.34,.14,.5,.2,1.36,.52,2.08,1.63,1.97,3.03-.11,1.3-1.06,2.34-2.45,2.57-3.03,.51-6.07,.98-9.11,1.46-3.28,.52-6.55,1.08-9.84,1.5-.97,.13-2-.05-2.97-.24-4.7-.91-9.39-1.87-14.09-2.79-.33-.06-.71-.05-1.03,.04-3.73,.99-7.45,2.03-11.19,3-.42,.11-.97,.02-1.35-.19-.23-.13-.42-.74-.3-.98,.19-.38,.6-.79,1-.91,2.24-.67,4.51-1.25,6.76-1.86,1.65-.45,3.3-.91,4.96-1.33,.35-.09,.76-.11,1.11-.04,5.21,1.02,10.4,2.09,15.61,3.08,.77,.15,1.62-.01,2.42-.13,5.75-.89,11.5-1.82,17.26-2.72,.48-.08,.99-.16,.97-.76-.02-.67-.57-.68-1.08-.68-7.55,0-15.09,.01-22.64-.01-.66,0-1.35-.15-1.97-.37-1.51-.54-2.99-1.17-4.47-1.77-.89-.36-1.22-.93-.94-1.6,.27-.65,.94-.89,1.8-.45,3.38,1.74,6.96,2.32,10.73,2.03,1.7-.13,3.42-.02,5.18-.02Zm5.62,0c.84,0,1.69,.02,2.53-.01,.34-.01,.71-.07,1.01-.23,4.64-2.34,7.28-6.12,7.57-11.27,.48-8.76-7.13-15.37-15.79-13.89-8.7,1.49-13.61,11.48-9.47,19.23,.24,.45,.52,.61,1.02,.59,1.39-.03,2.78-.03,4.17,0,3.13,.05,5.21,1.93,5.57,5.04,.05,.42,.2,.56,.61,.55,.93-.02,1.85,0,2.78,0Z"/><path class="cls-1" d="M30.58,54.28c.07-.5,.09-.9,.18-1.29,.57-2.56,2.7-4.24,5.44-4.28,1.8-.02,3.6,.01,5.39-.02,.3,0,.72-.15,.88-.37,2.46-3.39,5.87-4.49,9.89-4.12,2.59,.24,5.1,.85,7.49,1.88,2.36,1.01,4.83,1.47,7.39,1.49,.44,0,.87,.01,1.31,.05,.7,.05,1.15,.44,1.12,1.14-.03,.7-.48,1.06-1.19,1.06-3.13,.03-6.19-.3-9.11-1.54-2.6-1.1-5.3-1.84-8.14-1.91-3.17-.08-5.73,1.01-7.35,3.92-.19,.35-.84,.61-1.28,.63-2.18,.06-4.36,.01-6.54,.03-1.86,.02-3.18,1.39-3.14,3.29,.28,.01,.58,.04,.87,.04,3.08,0,6.16,.02,9.23-.01,.53,0,1.08-.13,1.58-.31,1.45-.54,2.88-1.14,4.32-1.71,.84-.33,1.46-.13,1.71,.53,.24,.63-.06,1.2-.84,1.52-1.69,.69-3.37,1.37-5.08,2.02-.39,.15-.85,.18-1.28,.18-7.49,.01-14.98,0-22.47,0-.22,0-.47-.07-.65,.02-.3,.15-.55,.41-.82,.62,.23,.26,.42,.68,.69,.74,1.11,.25,2.25,.38,3.38,.56,5.11,.8,10.21,1.61,15.32,2.41,.4,.06,.82,.08,1.21,0,5.18-1.02,10.35-2.07,15.53-3.08,.43-.09,.93-.08,1.35,.03,3.84,1.02,7.67,2.06,11.5,3.11,.97,.26,1.34,.74,1.16,1.45-.18,.71-.76,.95-1.71,.7-3.7-1-7.4-2.01-11.1-2.99-.38-.1-.81-.11-1.19-.03-5.2,1.02-10.4,2.11-15.61,3.07-.92,.17-1.94-.12-2.9-.27-5.73-.9-11.45-1.81-17.17-2.73-1.78-.28-2.81-1.51-2.68-3.19,.11-1.52,1.36-2.61,3.1-2.62,3.08-.02,6.16,0,9.23,0,.32,0,.64,0,.98,0Z"/><path class="cls-1" d="M13.85,11.97c1.85-.02,3.4,1.51,3.4,3.34,0,1.81-1.5,3.32-3.32,3.34-1.83,.02-3.34-1.44-3.37-3.26-.03-1.88,1.44-3.4,3.29-3.42Zm1.14,3.31c-.02-.61-.5-1.06-1.11-1.05-.61,0-1.09,.48-1.09,1.08,0,.64,.51,1.12,1.16,1.09,.61-.03,1.06-.51,1.04-1.12Z"/><path class="cls-1" d="M61.86,34.32c-.92-.16-2.22,.18-2.17-1.25,.04-1.3,1.23-1.01,2.16-1.07,.13-.87-.26-2.18,1.15-2.18,1.37,0,1.03,1.26,1.14,2.14,.87,.17,2.13-.25,2.15,1.15,.01,1.38-1.22,1.07-2.1,1.18-.22,.86,.22,2.2-1.27,2.13-1.34-.06-.95-1.27-1.06-2.1Z"/><path class="cls-1" d="M63.68,13.29c.02,.63-.52,1.2-1.15,1.22-.63,.02-1.21-.52-1.23-1.15-.02-.63,.52-1.2,1.16-1.22,.63-.02,1.2,.51,1.23,1.15Z"/><path class="cls-1" d="M12.27,48.89c.63,0,1.2,.55,1.2,1.18,0,.63-.55,1.19-1.19,1.19-.64,0-1.19-.55-1.2-1.18,0-.63,.55-1.19,1.19-1.19Z"/><path class="cls-1" d="M32.84,21.34c0,1.49,.06,2.74-.03,3.97-.03,.37-.39,.87-.73,1.01-.29,.13-.81-.08-1.14-.29-.19-.12-.27-.52-.28-.8-.02-2.14-.05-4.29,.02-6.43,.01-.4,.36-.98,.69-1.12,.34-.13,.96,.06,1.28,.33,.81,.7,1.52,1.51,2.26,2.28,.06-.03,.12-.07,.19-.1,0-.48,0-.96,0-1.43,0-.7,.36-1.13,1.06-1.22,.6-.07,1.15,.41,1.16,1.1,.03,2.22,.03,4.45,0,6.67-.01,.69-.55,1.18-1.15,1.12-.65-.07-1.16-.49-1.04-1.12,.38-1.91-1.05-2.72-2.28-3.97Z"/><path class="cls-1" d="M40.71,19.78v1.12c.72,0,1.39-.01,2.06,0,.77,.02,1.25,.47,1.24,1.11,0,.64-.49,1.06-1.27,1.08-.65,.02-1.3,0-2.08,0,0,.72,0,1.38,0,2.05-.01,.77-.42,1.27-1.05,1.31-.66,.04-1.16-.47-1.16-1.28-.02-2.12-.02-4.23,0-6.35,0-.89,.42-1.27,1.32-1.29,.95-.02,1.9-.01,2.85,0,.89,.01,1.4,.44,1.38,1.14-.01,.69-.52,1.09-1.43,1.1-.62,0-1.24,0-1.87,0Z"/><path class="cls-1" d="M49.61,19.78c0,1.59,0,3.1,0,4.61,0,.27,.01,.54,0,.81-.05,.76-.5,1.25-1.14,1.24-.63,0-1.1-.5-1.11-1.26-.02-1.63,0-3.26,0-4.89,0-.13-.01-.27-.03-.52-.36,0-.7,.02-1.03,0-.69-.05-1.14-.41-1.14-1.13,0-.72,.47-1.09,1.16-1.1,1.41-.02,2.83-.02,4.24,0,.79,.01,1.23,.44,1.24,1.11,0,.67-.44,1.09-1.22,1.13-.29,.02-.58,0-.97,0Z"/></g></g></g></svg>