<svg xmlns="http://www.w3.org/2000/svg" viewBox="0 0 28 28"><defs><style>.cls-1{fill:none;}.cls-2{fill:#0091ff;stroke:#0091ff;stroke-miterlimit:10;stroke-width:0.2px;}</style></defs><g id="Layer_2" data-name="Layer 2"><g id="Layer_1-2" data-name="Layer 1"><rect class="cls-1" width="28" height="28"/><path class="cls-2" d="M24.72.24a1.28,1.28,0,0,1,.81,1.38q0,12.42,0,24.83a3.1,3.1,0,0,1,0,.43,1,1,0,0,1-1,.88H5.29A1,1,0,0,1,4.17,27a1.93,1.93,0,0,1,0-.42c0-.2,0-.39,0-.61a1.41,1.41,0,0,1-1.33-.46,1.91,1.91,0,0,1-.31-.8,1,1,0,0,1,.5-1,6.34,6.34,0,0,1,1.14-.38V21.69H3.69a1.26,1.26,0,0,1-1.22-1.25,1.28,1.28,0,0,1,1.21-1.28h.43V17.42a1.41,1.41,0,0,1-1.37-.52,1.72,1.72,0,0,1-.26-.79c0-.75.47-1.11,1.64-1.27v-1.7a1.45,1.45,0,0,1-1.36-.5,2,2,0,0,1-.28-.82,1,1,0,0,1,.52-1,6.13,6.13,0,0,1,1.12-.37V8.84a1.37,1.37,0,0,1-1.4-.54,1.53,1.53,0,0,1-.23-.83c0-.74.51-1.08,1.61-1.18V4.55A1.36,1.36,0,0,1,2.73,4a1.54,1.54,0,0,1-.24-.83C2.5,2.46,3,2.11,4.13,2c0-.72-.07-1.46.81-1.75ZM4.94,14V26.5c0,.42,0,.45.46.45H24.24c.43,0,.47,0,.47-.48V1.53c0-.44,0-.48-.47-.48H5.4c-.44,0-.46,0-.46.45ZM4.11,2.84c-.3,0-.6-.07-.75.23a.59.59,0,0,0,0,.47c.17.28.46.2.72.18Zm0,4.29c-.29,0-.58-.07-.76.22a.42.42,0,0,0,0,.5c.2.23.46.19.72.15Zm0,13.74V20c-.28,0-.58-.07-.73.21a.59.59,0,0,0,0,.47C3.53,21,3.83,20.88,4.11,20.87Zm0,3.4c-.29,0-.59-.08-.74.21a.59.59,0,0,0,0,.47c.15.28.45.23.73.21Zm0-12v-.88c-.29,0-.58-.09-.74.2a.64.64,0,0,0,0,.47C3.53,12.38,3.82,12.32,4.11,12.3Zm0,3.4c-.29,0-.56-.07-.74.2a.41.41,0,0,0,0,.5c.19.26.46.19.73.18Z"/><path class="cls-2" d="M13.59,5.94c0-.22-.05-.44-.07-.67a.87.87,0,0,1,.89-1h.88a.85.85,0,0,1,.83.88c0,.27,0,.54-.06.8A6.27,6.27,0,0,1,21,11.64h.34a.61.61,0,0,1,.64.56,6,6,0,0,1,0,1,.57.57,0,0,1-.55.5H8.25a.6.6,0,0,1-.57-.6c0-.26,0-.52,0-.78a.66.66,0,0,1,.71-.72h.29A6.27,6.27,0,0,1,13.59,5.94Zm6.5,5.7a5.28,5.28,0,0,0-10.54,0h.64a.4.4,0,0,1,.41.41.39.39,0,0,1-.42.4c-.19,0-.37,0-.56,0H8.5v.47H21.13v-.47H12.35a1.38,1.38,0,0,1-.29,0,.35.35,0,0,1-.35-.34.36.36,0,0,1,.28-.43,1.34,1.34,0,0,1,.35,0h7.75ZM15.31,5.09h-1l.08.77h.69c.05,0,.14-.06.14-.11A6.47,6.47,0,0,0,15.31,5.09Z"/><path class="cls-2" d="M14.81,17.51H8.12c-.29,0-.44-.16-.44-.4s.16-.39.44-.41H21.31a1.54,1.54,0,0,1,.37,0,.35.35,0,0,1,.28.4.36.36,0,0,1-.33.37H14.81Z"/><path class="cls-2" d="M12.72,23.74H8.29c-.1,0-.22,0-.29,0s-.29-.22-.3-.34a.62.62,0,0,1,.23-.4c.07-.06.22-.05.33-.05h8.92a1.1,1.1,0,0,1,.26,0,.37.37,0,0,1,.33.4.37.37,0,0,1-.37.38c-.23,0-.45,0-.68,0Z"/><path class="cls-2" d="M8.79,19.81c0,.61,0,1.22,0,1.82,0,.26-.11.36-.37.33a.24.24,0,0,1-.26-.27c0-1,0-1.93,0-2.9a.47.47,0,0,1,.21-.32.38.38,0,0,1,.49.17c.18.3.35.61.52.91l.17.3c.21-.39.41-.74.61-1.1a.48.48,0,0,1,.44-.3c.21,0,.34.09.35.31v3c0,.22-.17.25-.34.24s-.3-.09-.29-.29V20.08a.53.53,0,0,0-.06-.28c-.14.26-.28.53-.44.78s-.18.22-.29.23-.19-.13-.25-.23c-.16-.26-.29-.53-.44-.79Z"/><path class="cls-2" d="M16.89,20.44c0-.55,0-1.1,0-1.65,0-.22.08-.34.31-.34s.33.07.33.32c0,.93,0,1.86,0,2.79,0,.16,0,.34-.18.39a.42.42,0,0,1-.52-.23c-.26-.5-.53-1-.8-1.49a.93.93,0,0,0-.21-.29c0,.57,0,1.13,0,1.7,0,.21-.08.32-.29.33s-.34-.09-.34-.34c0-.94,0-1.88,0-2.82,0-.11.06-.29.15-.33a.4.4,0,0,1,.51.12c.08.12.15.26.22.39l.76,1.46Z"/><path class="cls-2" d="M18.64,19.9v-1c0-.33.06-.4.31-.4s.31.17.31.39c0,.62,0,1.23,0,1.85a1.67,1.67,0,0,0,0,.32.48.48,0,0,0,.52.44.47.47,0,0,0,.51-.47c0-.51,0-1,0-1.53v-.73c0-.21.13-.27.32-.27s.31.05.31.27c0,.75,0,1.51,0,2.26s-.45,1-1.18,1A1,1,0,0,1,18.64,21c0-.35,0-.7,0-1.05Z"/><path class="cls-2" d="M12.72,19v1h.59c.18,0,.33,0,.33.25s-.16.25-.34.24h-.58v1H14c.2,0,.31.07.32.27S14.21,22,14,22H12.35c-.18,0-.27-.09-.27-.29,0-1,0-2,0-2.95,0-.24.14-.28.33-.28H14c.19,0,.29.07.3.26a.27.27,0,0,1-.3.3C13.56,19,13.15,19,12.72,19Z"/><path class="cls-2" d="M20.42,23.74c-.36,0-.73,0-1.1,0s-.45-.16-.45-.39a.41.41,0,0,1,.45-.42h2.2a.41.41,0,1,1,0,.81C21.16,23.75,20.79,23.74,20.42,23.74Z"/></g></g></svg>