<svg xmlns="http://www.w3.org/2000/svg" viewBox="0 0 28 28"><defs><style>.cls-1{fill:none;}.cls-2{fill:#0091ff;}</style></defs><g id="Layer_2" data-name="Layer 2"><g id="Layer_1-2" data-name="Layer 1"><rect class="cls-1" width="28" height="28"/><path class="cls-2" d="M25.54,27.84H2.44c-.3-.16-.59-.36-.58-.73a21.67,21.67,0,0,1,.12-3A6.65,6.65,0,0,1,7.82,18.6c1-.08,1.94,0,2.91-.06H11c0-.15,0-.27,0-.39a.49.49,0,0,0-.29-.55,6,6,0,0,1-2.58-3.19C8,14,7.92,13.57,7.8,13.13H7.51A3.37,3.37,0,0,1,6,12.94a2.33,2.33,0,0,1-1.47-2.18A2.3,2.3,0,0,1,6,8.5a.3.3,0,0,0,.2-.32c0-.34,0-.67,0-1A7.84,7.84,0,0,1,11.77.49c.51-.15,1.05-.23,1.57-.33h1.3l.2,0a13.62,13.62,0,0,1,1.68.38A7.8,7.8,0,0,1,21.81,8.1a.39.39,0,0,0,.25.42,2.27,2.27,0,0,1,1.36,2.06q.06,1.5,0,3A2.89,2.89,0,0,1,21,16.32c-.67.08-1.36,0-2,.06a.69.69,0,0,0-.33.12c-.5.4-1,.8-1.49,1.21a.3.3,0,0,0-.13.2c0,.2,0,.4,0,.63h2.53A6.77,6.77,0,0,1,26,23.85a16.54,16.54,0,0,1,.16,2.9A1,1,0,0,1,25.54,27.84Zm-22-1.64h21c0-.55,0-1.09-.08-1.63a5.09,5.09,0,0,0-4.36-4.34c-1-.09-2,0-2.93-.07a.37.37,0,0,0-.43.28,2.95,2.95,0,0,1-5.17.62,7.52,7.52,0,0,1-.48-.89c-.83,0-1.69,0-2.54,0a5,5,0,0,0-3.5,1.43A5.35,5.35,0,0,0,3.49,26.2ZM7.8,8.27h3.52A6.52,6.52,0,0,0,16.05,6.4a.83.83,0,0,1,1.23-.05c.72.57,1.44,1.14,2.14,1.73a.89.89,0,0,0,.76.17,6.2,6.2,0,1,0-12.38,0ZM9.4,9.89v2.38a4.6,4.6,0,0,0,5.34,4.59,3.76,3.76,0,0,0,1.37-.48H14.66a.82.82,0,1,1,0-1.62h3a.32.32,0,0,0,.32-.18A4,4,0,0,0,18.52,13c.05-.87,0-1.75.07-2.61a1.36,1.36,0,0,0-.69-1.43A12.65,12.65,0,0,1,16.72,8a8.32,8.32,0,0,1-5.88,1.91C10.37,9.87,9.91,9.89,9.4,9.89Zm3.24,8.51v1a1.36,1.36,0,0,0,1.2,1.31,1.32,1.32,0,0,0,1.45-1,10.52,10.52,0,0,0,.07-1.28A6.4,6.4,0,0,1,12.64,18.4Zm7.11-3.66c1.36.16,2.3-.56,2-1.59H20.18Zm2-3.23C22,10,21.51,9.76,20.22,9.92v1.59Zm-14,0V9.89c-.3,0-.58,0-.85,0a.79.79,0,0,0-.75.8.81.81,0,0,0,.75.81Z"/></g></g></svg>