<svg xmlns="http://www.w3.org/2000/svg" viewBox="0 0 28 28"><defs><style>.cls-1{fill:none;}.cls-2{fill:#0091ff;}</style></defs><g id="Layer_2" data-name="Layer 2"><g id="Layer_1-2" data-name="Layer 1"><rect class="cls-1" width="28" height="28"/><path class="cls-2" d="M14,9.32h2.48a2.26,2.26,0,0,1,2.33,2.32c0,1.11,0,2.22,0,3.33a2.41,2.41,0,0,1-.33,1.23c-.09.14-.16.29-.25.42a5.26,5.26,0,0,0-1,2.89c-.05.52-.14,1-.24,1.55a2.23,2.23,0,0,1-2.16,1.81H13.29a2.26,2.26,0,0,1-2.37-2.1c-.12-.88-.25-1.75-.39-2.63a1.88,1.88,0,0,0-.2-.56c-.27-.54-.56-1.07-.85-1.6a2.58,2.58,0,0,1-.32-1.3c0-1,0-2,0-3a2.27,2.27,0,0,1,2.33-2.33Zm0,1.93H11.53c-.33,0-.43.1-.43.43s0,.62,0,.94a9.91,9.91,0,0,0,.05,2.25,10.34,10.34,0,0,0,1,1.94,3.53,3.53,0,0,1,.3,1c.16.92.29,1.85.42,2.77,0,.26.16.38.42.38.5,0,1,0,1.48,0a.38.38,0,0,0,.42-.38c.09-.68.22-1.35.29-2a4.76,4.76,0,0,1,.81-2.34,9.68,9.68,0,0,0,.52-.88.93.93,0,0,0,.12-.43c0-1.05,0-2.11,0-3.17,0-.36-.1-.45-.48-.45Z"/><path class="cls-2" d="M14,.29A4.19,4.19,0,1,1,9.81,4.48,4.18,4.18,0,0,1,14,.29Zm0,6.44a2.23,2.23,0,0,0,2.26-2.22,2.25,2.25,0,0,0-4.5-.06A2.25,2.25,0,0,0,14,6.73Z"/><path class="cls-2" d="M2.46,14.17,4.33,16a.93.93,0,0,1,.25,1,.82.82,0,0,1-.8.62A1.15,1.15,0,0,1,3,17.44c-.91-.85-1.78-1.73-2.65-2.62a.93.93,0,0,1,0-1.34Q1.69,12.18,3,10.9a1,1,0,0,1,1.37,1.35c-.54.56-1.09,1.1-1.64,1.65Z"/><path class="cls-2" d="M25.55,14.16,23.7,12.31A1,1,0,1,1,25,10.9c.5.47,1,1,1.46,1.45s.7.69,1.05,1.05a1,1,0,0,1,0,1.51l-2.48,2.48A1,1,0,1,1,23.68,16C24.29,15.4,24.91,14.8,25.55,14.16Z"/><path class="cls-2" d="M15.94,25.79A1.94,1.94,0,1,1,14,23.84,1.95,1.95,0,0,1,15.94,25.79Z"/><path class="cls-2" d="M8.82,27.06a1.29,1.29,0,1,1,1.31-1.27A1.3,1.3,0,0,1,8.82,27.06Z"/><path class="cls-2" d="M19.16,27.06a1.29,1.29,0,1,1,0-2.57,1.29,1.29,0,1,1,0,2.57Z"/></g></g></svg>