<svg xmlns="http://www.w3.org/2000/svg" viewBox="0 0 28 28"><defs><style>.cls-1{fill:none;}.cls-2{fill:#0091ff;}</style></defs><g id="Layer_2" data-name="Layer 2"><g id="Layer_1-2" data-name="Layer 1"><rect class="cls-1" width="28" height="28"/><path class="cls-2" d="M5.85,27.84c0-.1,0-.21,0-.32V.48c0-.11,0-.22,0-.32h16.3c0,.1,0,.21,0,.32v27c0,.11,0,.22,0,.32Zm14.64-1.63V1.78H17.88a.33.33,0,0,0-.21.16c-.22.42-.41.86-.65,1.27A3.27,3.27,0,0,1,14,5a3.28,3.28,0,0,1-3-1.8q-.33-.62-.63-1.26a.27.27,0,0,0-.3-.18H7.51V26.21ZM12.1,1.79a1.92,1.92,0,0,0,3.79,0Z"/><path class="cls-2" d="M14,8.08a3.71,3.71,0,0,1,3.37,5.29,10.38,10.38,0,0,1-3.24,3.69.25.25,0,0,1-.25,0,10.76,10.76,0,0,1-3.14-3.47,3.72,3.72,0,0,1,2.7-5.45C13.61,8.1,13.8,8.1,14,8.08Zm0,7a7.15,7.15,0,0,0,2-2.52,2,2,0,0,0-.48-2.21,2,2,0,0,0-2.21-.49,2.07,2.07,0,0,0-1.14,2.91A7.76,7.76,0,0,0,14,15.06Z"/><path class="cls-2" d="M16.42,23v1.58H11.58V23Z"/><path class="cls-2" d="M14.8,18.42V20H13.21V18.42Z"/><path class="cls-2" d="M11.54,20H10V18.41h1.58Z"/><path class="cls-2" d="M16.45,20V18.42H18V20Z"/><path class="cls-2" d="M14.8,12.74H13.21v-1.6H14.8Z"/></g></g></svg>