<svg xmlns="http://www.w3.org/2000/svg" viewBox="0 0 28 28"><defs><style>.cls-1{fill:none;}.cls-2{fill:#0091ff;stroke:#0091ff;stroke-miterlimit:10;stroke-width:0.44px;}</style></defs><g id="Layer_2" data-name="Layer 2"><g id="Layer_1-2" data-name="Layer 1"><rect class="cls-1" width="28" height="28"/><path class="cls-2" d="M12.7,19.14a2.53,2.53,0,0,0,2.59-.92A4.55,4.55,0,0,0,16.59,15a1.33,1.33,0,0,1,.54-1.15,1.48,1.48,0,0,1,1.34-.16,2.14,2.14,0,0,1,1.58,2.06c0,.71,0,1.42,0,2.13,0,0,0,0,0,.05h2.7a1.53,1.53,0,0,1,1.5,1,1.5,1.5,0,0,1-.54,1.71.46.46,0,0,0-.07.07,1.53,1.53,0,0,1-.44,2.16A1.58,1.58,0,0,1,23.49,24a1.49,1.49,0,0,1-.68,1,1.49,1.49,0,0,1,0,1.73,1.43,1.43,0,0,1-1.23.67q-2.73,0-5.46,0a2.39,2.39,0,0,1-1.71-.71,2,2,0,0,0-1.71-.57v.31c0,.39-.16.54-.54.54H9.25c-.07.36-.31.44-.64.44-1.46,0-2.92,0-4.38,0H4.1c-.3,0-.49-.18-.49-.43a.44.44,0,0,1,.48-.44H8.35V18.76H4.05a.43.43,0,0,1-.44-.45.42.42,0,0,1,.44-.41h4.6c.38,0,.46.06.61.44H12c.63,0,.71.08.72.71Zm0,6.11H13a2.62,2.62,0,0,1,1.93.76,1.87,1.87,0,0,0,1.4.54h5.24a.69.69,0,0,0,.65-.65.65.65,0,0,0-.6-.64l-.14,0a.41.41,0,0,1-.34-.43.41.41,0,0,1,.38-.42c.1,0,.21,0,.32,0,.47,0,.79-.25.81-.62s-.22-.61-.68-.68a.44.44,0,0,1-.4-.44.42.42,0,0,1,.44-.42h.43a.67.67,0,0,0,.64-.64.64.64,0,0,0-.6-.65h-.11a.42.42,0,0,1-.37-.43.44.44,0,0,1,.41-.43h.43a.68.68,0,0,0,.67-.68.64.64,0,0,0-.68-.62H19.75c-.42,0-.56-.15-.56-.57,0-.82,0-1.64,0-2.46a1.29,1.29,0,0,0-1.2-1.3.45.45,0,0,0-.52.48c0,.08,0,.16,0,.24A5.35,5.35,0,0,1,14.31,20a1.07,1.07,0,0,1-.47.1c-.37,0-.75,0-1.13,0ZM11,26.1h.85V19.21H9.25V26.1h.85v-.45c0-.56,0-1.12,0-1.68A.43.43,0,1,1,11,24a2.43,2.43,0,0,1,0,.27C11,24.85,11,25.47,11,26.1Z"/><path class="cls-2" d="M12.26,12.7H10.58A3.46,3.46,0,0,1,7.07,9.18V4.1A3.46,3.46,0,0,1,10.58.58h6.84a3.47,3.47,0,0,1,3.5,3.5V9.19A3.47,3.47,0,0,1,17.4,12.7c-.55,0-1.11,0-1.67,0a.52.52,0,0,0-.45.19l-2.17,2.18c-.16.16-.33.29-.57.19s-.28-.3-.28-.53C12.27,14.06,12.26,13.4,12.26,12.7Zm.87,1.1a2.58,2.58,0,0,0,.23-.22c.51-.51,1-1,1.54-1.52a.9.9,0,0,1,.52-.22c.65,0,1.31,0,2,0a2.58,2.58,0,0,0,2.66-2.66c0-1.69,0-3.37,0-5.06a2.58,2.58,0,0,0-2.66-2.66q-3.41,0-6.79,0A2.58,2.58,0,0,0,7.94,4.11c0,1.69,0,3.37,0,5.06a2.58,2.58,0,0,0,2.66,2.66h2c.37,0,.53.15.53.52Z"/><path class="cls-2" d="M6.22,24a.86.86,0,1,1-.88.84A.87.87,0,0,1,6.22,24Z"/><path class="cls-2" d="M11.72,9.1c.06-.5.13-1,.18-1.59a.48.48,0,0,0-.1-.33c-.35-.4-.72-.78-1.09-1.16a.48.48,0,0,1-.16-.51A.51.51,0,0,1,11,5.18c.5-.09,1-.18,1.51-.29a.53.53,0,0,0,.29-.22c.28-.46.53-.93.78-1.39A.48.48,0,0,1,14.05,3a.47.47,0,0,1,.43.32c.25.45.5.91.77,1.36a.49.49,0,0,0,.3.22l1.56.31a.44.44,0,0,1,.25.8c-.34.37-.68.74-1,1.1a.54.54,0,0,0-.16.51c.07.49.12,1,.18,1.47s-.25.69-.67.5-.95-.42-1.42-.65a.47.47,0,0,0-.46,0c-.47.24-1,.45-1.44.68S11.7,9.58,11.72,9.1Zm3.67-.57c-.05-.39-.07-.72-.13-1a.78.78,0,0,1,.23-.76c.24-.24.46-.5.72-.8l-1.12-.21a.66.66,0,0,1-.55-.41c-.16-.34-.33-.66-.52-1l-.57,1a.6.6,0,0,1-.46.33L11.8,5.9c.28.3.51.56.76.81a.71.71,0,0,1,.22.73c0,.33-.08.68-.13,1.06.37-.17.69-.31,1-.47a.65.65,0,0,1,.66,0C14.65,8.2,15,8.35,15.39,8.53Z"/></g></g></svg>