<svg xmlns="http://www.w3.org/2000/svg" viewBox="0 0 28 28"><defs><style>.cls-1{fill:none;}.cls-2{fill:#0091ff;}</style></defs><g id="Layer_2" data-name="Layer 2"><g id="Layer_1-2" data-name="Layer 1"><rect class="cls-1" width="28" height="28"/><path class="cls-2" d="M27.64,15.8c-.16.3-.35.56-.72.58a.83.83,0,0,1-.44-.08c-1.07-.52-2.14-1.06-3.2-1.6a.8.8,0,0,1,.44-1.51,1.47,1.47,0,0,1,.4.14c1,.48,1.91,1,2.88,1.44a1.07,1.07,0,0,1,.64.66Z"/><path class="cls-2" d="M27.64,6.14a1.25,1.25,0,0,1-.66.64c-.95.46-1.89.94-2.83,1.41a1.32,1.32,0,0,1-.42.15.76.76,0,0,1-.83-.48.78.78,0,0,1,.24-.93,2.07,2.07,0,0,1,.32-.19l2.82-1.41c.67-.33,1-.22,1.36.44Z"/><path class="cls-2" d="M27.64,10.94a.92.92,0,0,1-1,.64H23.7a.8.8,0,0,1-.86-.84.76.76,0,0,1,.71-.76h3.38c.37,0,.56.28.71.59Z"/><path class="cls-2" d="M11.59,17.79c0,.41,0,.77,0,1.13A2.43,2.43,0,0,1,9,21.22H8.16c.06.66.1,1.3.19,1.93a2.44,2.44,0,0,1-.85,2.34,2.25,2.25,0,0,1-2.38.38,2.27,2.27,0,0,1-1.51-1.93l-.72-6.76c0-.25-.06-.51-.08-.73a6.05,6.05,0,0,1-1-.29A2.3,2.3,0,0,1,.38,14c0-1.6,0-3.2,0-4.8A2.41,2.41,0,0,1,2.93,6.75H7.2a1.57,1.57,0,0,0,.52-.08l8.5-2.83a.53.53,0,0,0,.37-.36,2.39,2.39,0,0,1,4.61.66q0,.33,0,.66V18.56A2.65,2.65,0,0,1,20.9,20a2.32,2.32,0,0,1-2.35,1.2,2.28,2.28,0,0,1-2-1.51.56.56,0,0,0-.39-.37L12,17.9A2.87,2.87,0,0,0,11.59,17.79ZM16.4,5.48l-.2,0L8.61,8.06c-.19.06-.22.15-.22.32,0,2.13,0,4.25,0,6.38a.29.29,0,0,0,.24.34l7.54,2.51.23.06ZM6.77,8.38l-.13,0H2.81a.81.81,0,0,0-.84.9v4.58a.83.83,0,0,0,1,.95H6.77Zm12.85,3.2v-7a1.94,1.94,0,0,0,0-.34.78.78,0,0,0-1-.68c-.4.12-.59.43-.59,1V18.62a1.67,1.67,0,0,0,0,.39.8.8,0,0,0,1.56-.12c0-.11,0-.23,0-.34ZM4.42,16.41q.07.7.15,1.38c.21,2,.42,4,.65,6a1,1,0,0,0,.33.54.69.69,0,0,0,.82,0,.77.77,0,0,0,.4-.8c-.17-1.81-.33-3.61-.5-5.41-.06-.57-.11-1.13-.17-1.7ZM8,19.61H9.09A.83.83,0,0,0,10,18.7c0-.41,0-.83,0-1.25a.24.24,0,0,0-.2-.28l-1.87-.62-.2-.05Z"/></g></g></svg>