<svg xmlns="http://www.w3.org/2000/svg" viewBox="0 0 28 28"><defs><style>.cls-1{fill:none;}.cls-2{fill:#0091ff;}</style></defs><g id="Layer_2" data-name="Layer 2"><g id="Layer_1-2" data-name="Layer 1"><rect class="cls-1" width="28" height="28"/><path class="cls-2" d="M25.7,19.87h.91a1,1,0,0,1,1.07,1,1,1,0,0,1-1.08.95h-.9l-.76,1.81c.19.17.44.38.68.61a1,1,0,1,1-1.38,1.39L23.57,25l-1.75.75v.92a1,1,0,1,1-1.95,0c0-.32,0-.64,0-.92l-1.8-.75c-.19.2-.41.46-.66.7a.93.93,0,0,1-1.4,0,1,1,0,0,1,0-1.41c.24-.25.49-.49.7-.69L16,21.82H15a.92.92,0,0,1-1-.95.94.94,0,0,1,1-1c.35,0,.69,0,1,0l.76-1.8c-.2-.18-.47-.41-.71-.65A1,1,0,1,1,17.42,16c.24.24.46.49.66.7L19.87,16c0-.26,0-.59,0-.92a1,1,0,1,1,1.95,0V16l1.8.75c.17-.19.39-.44.63-.68a1,1,0,1,1,1.38,1.37c-.23.24-.46.46-.67.67Zm-1.92,1a2.94,2.94,0,1,0-2.93,2.93A2.92,2.92,0,0,0,23.78,20.84Z"/><path class="cls-2" d="M12.05.32A5.87,5.87,0,1,1,6.19,6.19,5.87,5.87,0,0,1,12.05.32ZM8.14,6.17a3.91,3.91,0,1,0,3.94-3.89A3.89,3.89,0,0,0,8.14,6.17Z"/><path class="cls-2" d="M2.29,23.77h9.54A1,1,0,0,1,12,25.72h-.31c-2.87,0-5.74,0-8.61,0S.29,25.88.33,23a11.13,11.13,0,0,1,.18-1.91,8.68,8.68,0,0,1,7.72-7C9.84,14,11.48,14,13.11,14A.94.94,0,0,1,14,15a1,1,0,0,1-1,1h-4a6.77,6.77,0,0,0-6.55,5.1A9,9,0,0,0,2.29,23.77Z"/></g></g></svg>