<svg xmlns="http://www.w3.org/2000/svg" viewBox="0 0 28 28"><defs><style>.cls-1{fill:none;}.cls-2{fill:#0091ff;}</style></defs><g id="Layer_2" data-name="Layer 2"><g id="Layer_2-2" data-name="Layer 2"><rect class="cls-1" width="28" height="28"/><path class="cls-2" d="M16.45,27.67h-4.9l-.15-.05a2.54,2.54,0,0,1-2-3c.23-1.05.52-2.08.77-3.13.05-.2.1-.4.15-.62H3.77a2.52,2.52,0,0,1-2.56-2.52q0-7.74,0-15.46A2.42,2.42,0,0,1,2.47.7,5.7,5.7,0,0,1,3.39.33H24.61s0,0,0,0a2.56,2.56,0,0,1,2.14,2.76v15A2.57,2.57,0,0,1,24,20.84H17.66a1.64,1.64,0,0,1,.05.23c.28,1.13.57,2.26.84,3.39a2.55,2.55,0,0,1-1.95,3.16ZM14,19.13H24.08c.69,0,1-.32,1-1V3.05a.88.88,0,0,0-1-1H3.93c-.7,0-1,.31-1,1v15c0,.71.32,1,1,1Zm1.89,1.72H12.1c-.33,1.36-.67,2.71-1,4A.83.83,0,0,0,11.92,26h4.16a.84.84,0,0,0,.82-1.08c-.07-.32-.15-.63-.23-.95C16.41,22.9,16.15,21.88,15.9,20.85Z"/><path class="cls-2" d="M6.32,11,7.82,9.6c.13-.13.25-.27.39-.4a.84.84,0,0,1,1.27-.08c1.13.89,2.25,1.8,3.38,2.7l.22.17a2,2,0,0,0,.21-.2c.88-.87,1.75-1.75,2.62-2.62a.84.84,0,0,1,.9-.24.85.85,0,0,1,.34,1.41c-1.12,1.13-2.25,2.27-3.39,3.39a.84.84,0,0,1-1.22,0L9.15,11,9,10.89,8.81,11c-.78.81-1.56,1.61-2.33,2.42a.56.56,0,0,0-.15.37c0,.62,0,1.24,0,1.89H17.24a1.74,1.74,0,0,1,.32,0,.86.86,0,0,1,.7.9.88.88,0,0,1-.79.8H5.66c-.73,0-1-.31-1-1V6.48a2.06,2.06,0,0,1,0-.35.85.85,0,0,1,1.68.16c0,.7,0,1.4,0,2.11C6.33,9.29,6.32,10.17,6.32,11Z"/><path class="cls-2" d="M20.85,3.75h1.63a.85.85,0,1,1,0,1.7H19.16a.85.85,0,1,1,0-1.7Z"/><path class="cls-2" d="M20.42,6.31h1.23a.86.86,0,1,1,0,1.71H19.13a.86.86,0,1,1,0-1.71h1.27Z"/></g></g></svg>