<?xml version="1.0" encoding="UTF-8"?><svg id="Layer_2" xmlns="http://www.w3.org/2000/svg" viewBox="0 0 28 28"><defs><style>.cls-1{fill:#0091ff;}.cls-2{fill:none;}</style></defs><g id="Layer_1-2"><g><rect class="cls-2" width="28" height="28"/><path class="cls-1" d="M1.17,24.92c.06-.25,.1-.5,.18-.75,.33-1.01,.97-1.76,1.9-2.27,.07-.04,.13-.07,.14-.08-.2-.48-.46-.93-.58-1.41-.39-1.55,.4-3.14,1.85-3.8,1.45-.66,3.17-.23,4.09,1.07,.17,.23,.3,.25,.54,.17,.85-.28,1.7-.54,2.55-.8,.13-.04,.2-.08,.22-.23,.12-.88,.59-1.5,1.39-1.88,.06-.03,.13-.12,.13-.18,0-1.06,0-2.11,0-3.2h-.29c-.99,0-1.98,0-2.96,0-.57,0-.89-.31-.87-.88,.02-.62,0-1.26,.13-1.87,.24-1.12,.95-1.94,1.96-2.49,.06-.03,.12-.06,.21-.11-.69-.93-.93-1.94-.62-3.06,.21-.75,.65-1.34,1.27-1.79,1.24-.89,2.95-.83,4.09,.15,.7,.6,1.11,1.35,1.2,2.26,.09,.9-.18,1.71-.74,2.44,.65,.31,1.17,.72,1.57,1.29,.47,.65,.71,1.38,.73,2.19,0,.33,0,.67,0,1.01,0,.55-.31,.86-.86,.87-.99,0-1.98,0-2.96,0-.09,0-.18,0-.3,0,0,.48,0,.93,0,1.38,0,.58,0,1.17,0,1.75,0,.09,.07,.21,.14,.25,.79,.38,1.24,1,1.39,1.86,.01,.08,.07,.19,.13,.21,.99,.32,1.98,.62,2.96,.93,1.23-1.9,3.47-2.01,4.85-1.02,1.37,.99,2,3.07,.67,4.86,.07,.04,.14,.08,.21,.12,1.32,.74,2.01,1.87,2.07,3.39,.01,.27-.02,.53,0,.8,.04,.48-.13,.83-.57,1.04h-8.66c-.45-.21-.61-.56-.57-1.04,.02-.26,0-.52,0-.77,.03-1.4,.64-2.48,1.8-3.26,.15-.1,.32-.19,.5-.29-.52-.67-.77-1.41-.76-2.24,0-.05-.09-.13-.15-.15-.92-.29-1.85-.58-2.78-.86-.08-.02-.21,.03-.27,.09-.99,1.05-2.51,1.06-3.48,0-.1-.11-.17-.13-.31-.09-.9,.29-1.8,.57-2.7,.84-.18,.05-.21,.14-.21,.31,0,.68-.19,1.3-.57,1.87-.06,.08-.11,.16-.18,.25,.11,.06,.19,.1,.27,.15,.93,.52,1.55,1.29,1.87,2.3,.19,.61,.14,1.24,.17,1.86,.02,.48-.13,.83-.57,1.04H1.73c-.25-.12-.44-.31-.57-.57v-1.65ZM11.03,10h6.67c.13-1.34-.88-2.52-2.21-2.56-.72-.02-1.44-.01-2.16,0-1.38,.02-2.41,1.16-2.3,2.56ZM2.73,25.57h6.67c.1-1.26-.7-2.37-1.94-2.51-.91-.1-1.86-.11-2.77,0-1.26,.14-2.08,1.27-1.96,2.51Zm23.28,0c.1-1.43-.92-2.55-2.33-2.57-.69,0-1.37,0-2.06,0-.54,0-1.03,.18-1.45,.52-.64,.53-.9,1.22-.85,2.04h6.68ZM12.56,4.1c0,.99,.82,1.8,1.82,1.79,.99,0,1.8-.82,1.79-1.82,0-.99-.82-1.8-1.82-1.79-.99,0-1.8,.82-1.79,1.81Zm-4.69,15.56c0-.99-.81-1.8-1.8-1.8-.99,0-1.8,.81-1.8,1.8,0,.99,.81,1.8,1.8,1.8,.99,0,1.8-.81,1.8-1.8Zm13,0c0,.99,.82,1.8,1.81,1.79,.99,0,1.8-.82,1.79-1.81,0-.99-.82-1.8-1.81-1.79-.99,0-1.8,.82-1.79,1.81Zm-5.73-2.58c0-.42-.34-.77-.76-.78-.42,0-.78,.33-.79,.75-.01,.43,.34,.79,.77,.79,.42,0,.77-.35,.78-.76Z"/></g></g></svg>