<svg xmlns="http://www.w3.org/2000/svg" viewBox="0 0 28 28"><defs><style>.cls-1{fill:none;}.cls-2{fill:#0091ff;}</style></defs><g id="Layer_2" data-name="Layer 2"><g id="Layer_1-2" data-name="Layer 1"><rect class="cls-1" width="28" height="28"/><path class="cls-2" d="M26.36,25.74c-.22,0-.45,0-.69,0V15.6a.8.8,0,0,0-.92-.92h-3c-.72,0-1,.26-1,1V25.74c-.51,0-1,0-1.46,0-.26,0-.34-.05-.34-.32q0-3,0-6a.79.79,0,0,0-.89-.88H15c-.66,0-.95.29-.95.95v6.24H12.28c0-.83,0-1.63,0-2.44a.8.8,0,0,0-.87-.89H8.24a.8.8,0,0,0-.88.89v2.16c0,.1,0,.19,0,.28H5.58v-12l.3.07a6.21,6.21,0,0,0,2.61,0,6.67,6.67,0,0,0,5.37-7.54A6.44,6.44,0,0,0,9.07.94C8.6.82,8.12.77,7.64.69H7c-.43.07-.87.12-1.3.21A6.37,6.37,0,0,0,.76,6.27c0,.2-.07.41-.1.61v1c.06.34.11.68.2,1a6.47,6.47,0,0,0,2.91,4,.44.44,0,0,1,.24.43q0,6.49,0,13c0,.72.28,1,1,1H26.35a.91.91,0,0,0,1-.61v-.37A.88.88,0,0,0,26.36,25.74ZM2.22,7.3a5.08,5.08,0,0,1,5-5.07,5,5,0,0,1,5.08,5.06,5,5,0,0,1-5.07,5.08A5.09,5.09,0,0,1,2.22,7.3Zm8.47,18.42H9V24h1.74Zm6.7,0H15.64V20.11h1.75Zm6.7,0H22.34V16.26h1.75ZM22.43,9.49l.41.13-.27.17L11.19,16.35l-3.41,2a.76.76,0,0,0-.4.83.77.77,0,0,0,.59.62.87.87,0,0,0,.69-.16l12.48-7.19L23.64,11l-.1.42a.78.78,0,1,0,1.5.41c.21-.75.41-1.5.6-2.26a.77.77,0,0,0-.53-.94l-.45-.12L22.85,8a.76.76,0,0,0-1,.55A.75.75,0,0,0,22.43,9.49ZM10.57,7.16a.74.74,0,0,0-.79-.64H8.08V6.19c0-.67,0-1.35,0-2a1.83,1.83,0,0,0,0-.33.77.77,0,0,0-1.52,0c0,.3,0,.61,0,.91V7.22a.78.78,0,0,0,.73.85c.87,0,1.74,0,2.6,0A.75.75,0,0,0,10.57,7.16Z"/></g></g></svg>