<svg xmlns="http://www.w3.org/2000/svg" viewBox="0 0 28 28"><defs><style>.cls-1{fill:none;}.cls-2{fill:#0091ff;}</style></defs><g id="Layer_2" data-name="Layer 2"><g id="Layer_1-2" data-name="Layer 1"><rect class="cls-1" width="28" height="28"/><path class="cls-2" d="M27.58,17.87c-.16.08-.38.13-.46.26s0,.33,0,.51c-.22.11-.35,0-.44-.18a4.57,4.57,0,0,1-.35-.7.28.28,0,0,0-.3-.21c-.43,0-.87,0-1.3,0a.27.27,0,0,0-.3.22,3.52,3.52,0,0,1-.19.51.57.57,0,0,1-.73.35.56.56,0,0,1-.3-.74c.54-1.47,1.09-2.93,1.64-4.4a.54.54,0,0,1,.54-.37.57.57,0,0,1,.54.45l1.5,4a1.63,1.63,0,0,0,.11.23Zm-2.17-2.6L25,16.43h.86Z"/><path class="cls-2" d="M23.2,7.57H2.08c0,.1,0,.19,0,.28V23.5a1.7,1.7,0,0,0,1.86,1.85H21.35a1.68,1.68,0,0,0,1.78-1.25,3.18,3.18,0,0,0,.07-.62V20.57c0-.1,0-.21,0-.31a.54.54,0,0,1,.49-.46.55.55,0,0,1,.57.36.61.61,0,0,1,0,.13c0,1.29.05,2.59-.06,3.87a2.67,2.67,0,0,1-2.6,2.29c-.25,0-.5,0-.76,0h-17a2.76,2.76,0,0,1-2.75-1.89A3.16,3.16,0,0,1,1,23.64q0-9.4,0-18.82A2.77,2.77,0,0,1,3.82,2H21.45a3.34,3.34,0,0,1,.62.06A2.74,2.74,0,0,1,24.3,4.7c0,2.22,0,4.43,0,6.65,0,.4-.22.65-.56.64s-.54-.25-.54-.65V7.57Zm0-1.14c0-.61,0-1.21,0-1.8A1.55,1.55,0,0,0,23,4.06a1.69,1.69,0,0,0-1.66-.95H3.74a1.59,1.59,0,0,0-1.6,1.27A17.17,17.17,0,0,0,2,6.43Z"/><path class="cls-2" d="M18.67,17.85c-.17.09-.38.15-.44.28s0,.33,0,.51c-.23.11-.37,0-.46-.2a5.66,5.66,0,0,1-.34-.7.25.25,0,0,0-.29-.18c-.44,0-.88,0-1.33,0a.22.22,0,0,0-.26.18,4.81,4.81,0,0,1-.2.53.56.56,0,0,1-.73.36.56.56,0,0,1-.3-.76C14.9,16.42,15.45,15,16,13.5a.53.53,0,0,1,.53-.38.54.54,0,0,1,.53.39C17.59,15,18.13,16.39,18.67,17.85Zm-2.59-1.41H17l-.43-1.17Z"/><path class="cls-2" d="M21,16.52c.36-1,.7-1.88,1-2.79a1.59,1.59,0,0,1,.18-.37.52.52,0,0,1,.64-.2.55.55,0,0,1,.34.58c0,.1-.05.2-.08.3-.52,1.38-1,2.75-1.55,4.13l0,.07a.56.56,0,0,1-.56.42.56.56,0,0,1-.54-.43C20,17.14,19.6,16.06,19.2,15c-.15-.39-.3-.79-.43-1.19a.52.52,0,0,1,.32-.61.54.54,0,0,1,.66.2,1.47,1.47,0,0,1,.14.28l1,2.57C20.88,16.3,20.92,16.38,21,16.52Z"/><path class="cls-2" d="M13.18,15.43c0,.53,0,1.07,0,1.61a1.65,1.65,0,0,1-3.15.69,2.44,2.44,0,0,1-.17-.67A.55.55,0,0,1,11,16.92c.1.47.3.67.63.63s.5-.28.5-.76v-3a.56.56,0,0,1,.47-.62.54.54,0,0,1,.63.58c0,.57,0,1.14,0,1.72Z"/><path class="cls-2" d="M3.75,4.23a.55.55,0,0,0-.56.53.57.57,0,0,0,.56.57.56.56,0,0,0,.54-.55A.55.55,0,0,0,3.75,4.23Zm1.67.54A.55.55,0,0,0,6,5.33a.57.57,0,0,0,.56-.56A.55.55,0,0,0,6,4.23.54.54,0,0,0,5.42,4.77Zm3.32,0a.56.56,0,0,0-.54-.55.55.55,0,1,0,0,1.1A.58.58,0,0,0,8.74,4.78Z"/><path class="cls-2" d="M3.75,4.23a.55.55,0,0,1,.54.55.56.56,0,0,1-.54.55.57.57,0,0,1-.56-.57A.55.55,0,0,1,3.75,4.23Z"/><path class="cls-2" d="M5.42,4.77A.54.54,0,0,1,6,4.23a.55.55,0,0,1,.55.54A.57.57,0,0,1,6,5.33.55.55,0,0,1,5.42,4.77Z"/><path class="cls-2" d="M8.74,4.78a.58.58,0,0,1-.56.55.55.55,0,1,1,0-1.1A.56.56,0,0,1,8.74,4.78Z"/></g></g></svg>