<svg xmlns="http://www.w3.org/2000/svg" viewBox="0 0 28 28"><defs><style>.cls-1{fill:none;}.cls-2{fill:#0091ff;}</style></defs><g id="Layer_2" data-name="Layer 2"><g id="Layer_1-2" data-name="Layer 1"><rect class="cls-1" width="28" height="28"/><path class="cls-2" d="M27.72,3.44V24.56a.08.08,0,0,0,0,0,2.33,2.33,0,0,1-2.45,2H2.74A2.81,2.81,0,0,1,2,26.5,2.27,2.27,0,0,1,.28,24.14V3.86A2.3,2.3,0,0,1,2.69,1.42q11.31,0,22.61,0A2.4,2.4,0,0,1,27,2.06,2.55,2.55,0,0,1,27.72,3.44ZM14,25.43H25.55a1.13,1.13,0,0,0,1-.9,3.4,3.4,0,0,0,0-.45V3.94a3,3,0,0,0,0-.42,1,1,0,0,0-.76-.88,1.85,1.85,0,0,0-.58-.07H2.44a1.09,1.09,0,0,0-1,.89,2.74,2.74,0,0,0,0,.5V20.64c0,1.16,0,2.32,0,3.48a1.72,1.72,0,0,0,.22.83,1.15,1.15,0,0,0,1.1.48Z"/><path class="cls-2" d="M14,6H25A.57.57,0,0,1,25,7.1a1.34,1.34,0,0,1-.35,0H3.31c-.48,0-.74-.21-.73-.59A.53.53,0,0,1,3,6a2.3,2.3,0,0,1,.37,0Z"/><path class="cls-2" d="M8.87,12.29A3.24,3.24,0,0,1,8.54,14a2.32,2.32,0,0,1-2.43,1.09,2.25,2.25,0,0,1-1.8-2A5.71,5.71,0,0,1,4.42,11a2.27,2.27,0,0,1,4.39.4C8.85,11.67,8.85,12,8.87,12.29Zm-3.44,0h0c0,.22,0,.44,0,.67A1.15,1.15,0,0,0,6.53,14a1.11,1.11,0,0,0,1.15-1,8.66,8.66,0,0,0,0-1.44,1.11,1.11,0,0,0-1.16-1,1.14,1.14,0,0,0-1.1,1.1C5.42,11.86,5.43,12.06,5.43,12.26Z"/><path class="cls-2" d="M19.16,12.27A3.39,3.39,0,0,1,18.83,14a2.32,2.32,0,0,1-2.43,1.08,2.26,2.26,0,0,1-1.8-2,5.94,5.94,0,0,1,.1-2.1,2.27,2.27,0,0,1,2.42-1.53,2.25,2.25,0,0,1,2,1.91C19.14,11.66,19.14,12,19.16,12.27Zm-1.14,0c0-.24,0-.49,0-.74a1.13,1.13,0,0,0-2.25.06,10,10,0,0,0,0,1.34A1.13,1.13,0,0,0,16.82,14,1.14,1.14,0,0,0,18,13C18,12.78,18,12.54,18,12.29Z"/><path class="cls-2" d="M14.59,20.27a3,3,0,0,1,.3-1.71,2.31,2.31,0,0,1,2.43-1.08,2.24,2.24,0,0,1,1.78,1.87A5.71,5.71,0,0,1,19,21.53,2.27,2.27,0,0,1,14.59,21C14.58,20.78,14.59,20.52,14.59,20.27Zm1.13,0c0,.21,0,.43,0,.64A1.12,1.12,0,0,0,16.81,22,1.08,1.08,0,0,0,18,21a7,7,0,0,0,0-1.45,1.11,1.11,0,0,0-1.13-1,1.15,1.15,0,0,0-1.12,1.09C15.71,19.87,15.72,20.07,15.72,20.28Z"/><path class="cls-2" d="M6,22V18.57H5.48a.57.57,0,1,1,0-1.14h1a.6.6,0,0,1,.68.68V22c.17,0,.33,0,.49,0,.4,0,.64.23.64.57a.57.57,0,0,1-.63.58c-.72,0-1.43,0-2.15,0a.58.58,0,0,1-.63-.58c0-.33.25-.55.65-.57C5.66,22,5.81,22,6,22Z"/><path class="cls-2" d="M11.13,22V18.57h-.5a.57.57,0,1,1,0-1.14h.94a.61.61,0,0,1,.7.7c0,1.18,0,2.36,0,3.54V22h.47c.42,0,.66.22.67.57s-.24.57-.66.58c-.71,0-1.41,0-2.12,0a.58.58,0,0,1-.63-.58c0-.33.25-.55.64-.57h.48Z"/><path class="cls-2" d="M22.58,22c.24,0,.45,0,.66.05a.55.55,0,0,1,0,1.09c-.34,0-.68,0-1,0s-.87,0-1.31,0a.57.57,0,0,1-.59-.44.52.52,0,0,1,.26-.62A1.36,1.36,0,0,1,21,22c.13,0,.27,0,.42,0V18.57h-.48a.6.6,0,0,1-.64-.58.59.59,0,0,1,.64-.56h1c.47,0,.68.22.69.7V22Z"/><path class="cls-2" d="M11.13,14V10.57h-.52A.59.59,0,0,1,10,10a.57.57,0,0,1,.6-.56h1c.51,0,.71.2.71.71,0,1.18,0,2.36,0,3.54V14h.53a.57.57,0,0,1,.61.57.56.56,0,0,1-.62.56H10.61a.57.57,0,0,1-.61-.57.58.58,0,0,1,.61-.56Z"/><path class="cls-2" d="M21.42,10.57h-.53a.58.58,0,0,1-.6-.57.57.57,0,0,1,.59-.57h1c.5,0,.7.21.71.7V14h.48a.58.58,0,0,1,.65.56.57.57,0,0,1-.63.58H20.94a.59.59,0,0,1-.65-.57.6.6,0,0,1,.65-.57h.48Z"/><path class="cls-2" d="M4,4.85a2.11,2.11,0,0,1-.35,0,.55.55,0,0,1-.47-.5.5.5,0,0,1,.38-.57,2.84,2.84,0,0,1,.92,0,.48.48,0,0,1,.39.56.54.54,0,0,1-.47.51A2.61,2.61,0,0,1,4,4.85Z"/><path class="cls-2" d="M6.85,4.85a2.3,2.3,0,0,1-.37,0A.54.54,0,0,1,6,4.32a.5.5,0,0,1,.41-.57,3.45,3.45,0,0,1,.85,0,.52.52,0,0,1,.43.56.54.54,0,0,1-.5.53,2,2,0,0,1-.35,0Z"/><path class="cls-2" d="M24,4.85a1.94,1.94,0,0,1-.34,0,.53.53,0,0,1-.49-.52.5.5,0,0,1,.42-.56,3.45,3.45,0,0,1,.85,0,.51.51,0,0,1,.42.57.56.56,0,0,1-.51.53H24Z"/></g></g></svg>