<?xml version="1.0" encoding="UTF-8"?><svg xmlns="http://www.w3.org/2000/svg" viewBox="0 0 40 40"><defs><style>.d{fill:#fff;}.e{fill:none;}</style></defs><g id="a"/><g id="b"><g id="c"><g><rect class="e" width="40" height="40"/><g><path class="d" d="M24.1,1.22c.22,.06,.44,.12,.66,.19,1.79,.54,3.03,2.16,3.05,4.08,.03,3.15,.01,6.31,0,9.46,0,.74-.51,1.28-1.18,1.28-.67,0-1.16-.53-1.16-1.28,0-3.04-.03-6.09,.01-9.13,.02-1.43-.97-2.27-2.27-2.26-5.81,.04-11.62,.02-17.43,.02-1.41,0-2.19,.78-2.19,2.2,0,7.92,0,15.84,0,23.76,0,1.42,.78,2.21,2.19,2.21,3.25,0,6.49,0,9.74,0,.93,0,1.52,.85,1.15,1.65-.23,.49-.64,.7-1.18,.7-2.54,0-5.08,0-7.61,0-1.01,0-2.03,.05-3.03-.08-2.03-.26-3.59-2.09-3.59-4.15-.01-8.13,0-16.26,0-24.39,0-2.04,1.48-3.78,3.49-4.18,.08-.02,.16-.05,.24-.07H24.1Z"/><path class="d" d="M27.76,38.78c-.7-.15-1.42-.25-2.1-.44-3.76-1.07-6.69-4.55-7.13-8.43-.61-5.38,2.71-10.06,7.98-11.25,5.52-1.25,11.24,2.65,12.1,8.26,.04,.29,.1,.58,.14,.86v1.69c-.02,.08-.05,.16-.06,.24-.61,4.25-2.93,7.12-6.97,8.56-.73,.26-1.51,.35-2.27,.51h-1.68Zm-6.97-10.19c0,4.31,3.47,7.82,7.77,7.84,4.31,.02,7.84-3.49,7.85-7.81,0-4.32-3.49-7.84-7.81-7.84-4.31,0-7.79,3.48-7.8,7.8Z"/><path class="d" d="M14.55,13.75c2.44,0,4.88,0,7.32,0,.86,0,1.42,.69,1.2,1.47-.12,.42-.39,.7-.81,.81-.17,.05-.36,.06-.54,.06-4.79,0-9.59,0-14.38,0-.23,0-.47-.03-.68-.11-.51-.2-.8-.75-.7-1.27,.1-.54,.54-.93,1.1-.96,.13,0,.27,0,.4,0,2.37,0,4.73,0,7.1,0Z"/><path class="d" d="M11.42,20c1.43,0,2.85,0,4.28,0,.62,0,1.12,.46,1.17,1.04,.05,.61-.32,1.15-.91,1.27-.13,.03-.27,.03-.4,.03-2.77,0-5.53,0-8.3,0-.77,0-1.31-.48-1.31-1.17,0-.69,.53-1.17,1.31-1.17,1.39,0,2.78,0,4.17,0Z"/><path class="d" d="M10.61,9.82c-1.12,0-2.24,0-3.37,0-.78,0-1.31-.49-1.3-1.18,0-.68,.53-1.16,1.28-1.17,2.27,0,4.54,0,6.81,0,.68,0,1.16,.39,1.27,.99,.09,.54-.22,1.1-.75,1.28-.18,.06-.38,.08-.57,.08-1.12,0-2.24,0-3.37,0Z"/><path class="d" d="M27.42,27.43c0-1.04,0-2.03,0-3.02,0-.67,.38-1.16,.95-1.26,.74-.13,1.37,.38,1.39,1.13,.02,.89,0,1.78,0,2.68,0,.13,0,.27,0,.44,.15,0,.28,.02,.41,.02,.89,0,1.78,0,2.67,0,.6,0,1.02,.33,1.18,.86,.14,.47-.02,.99-.45,1.25-.22,.13-.5,.21-.75,.22-.87,.03-1.73,.01-2.6,.01-.13,0-.26,0-.44,0,0,.16-.02,.29-.02,.42,0,.88,0,1.76,0,2.64,0,.73-.49,1.25-1.15,1.25-.68,0-1.18-.52-1.19-1.26,0-.87,0-1.73,0-2.6,0-.13,0-.27,0-.45-.16,0-.29,0-.42,0-.87,0-1.73,0-2.6,0-.76,0-1.26-.48-1.26-1.17,0-.69,.51-1.17,1.27-1.17,.85,0,1.71,0,2.56,0,.13,0,.26,0,.45,0Z"/></g></g></g></g></svg>