<?xml version="1.0" encoding="UTF-8"?><svg xmlns="http://www.w3.org/2000/svg" viewBox="0 0 40 40"><defs><style>.d{fill:#fff;}.e{fill:none;}</style></defs><g id="a"/><g id="b"><g id="c"><g><rect class="e" width="40" height="40"/><g><path class="d" d="M39.31,7.86v30.24c-.55,1.24-1.3,1.5-2.53,.87-3.49-1.8-6.98-3.6-10.47-5.41-.25-.13-.44-.13-.69,0-3.56,1.83-7.13,3.65-10.68,5.49-.6,.31-1.15,.32-1.75,.02-3.79-1.92-7.59-3.84-11.4-5.73-.77-.38-1.09-.94-1.09-1.79,.01-9.65,.01-19.3,0-28.95,0-.94,.32-1.57,1.22-1.88h.6c.19,.09,.39,.17,.58,.27,3.53,1.83,7.07,3.65,10.6,5.49,.26,.14,.46,.15,.72,.01,1.45-.77,2.92-1.51,4.38-2.26,2.29-1.17,4.58-2.34,6.87-3.5,.2,0,.4,0,.6,0,.24,.11,.48,.21,.71,.33,3.7,1.87,7.4,3.75,11.11,5.6,.56,.28,1.02,.62,1.23,1.23Zm-3.03,27.45c0-.12,.02-.18,.02-.24,0-8.56,0-17.12,0-25.68,0-.25-.11-.34-.3-.44-3.23-1.62-6.46-3.25-9.68-4.89-.25-.13-.44-.12-.69,0-3.56,1.84-7.12,3.66-10.68,5.5-.61,.32-1.17,.32-1.79,0-3.01-1.58-6.04-3.13-9.06-4.7-.11-.06-.23-.11-.39-.19v.33c0,8.52,0,17.04,0,25.56,0,.28,.12,.39,.34,.5,3.22,1.61,6.44,3.23,9.65,4.86,.26,.13,.44,.13,.69,0,3.57-1.84,7.15-3.66,10.72-5.51,.59-.3,1.14-.3,1.72,0,1.41,.74,2.83,1.47,4.25,2.2,1.72,.89,3.43,1.77,5.2,2.68Z"/><path class="d" d="M29.66,18.98c-.01,4.34-3.72,7.79-8.04,7.49-1.21-.08-2.34-.43-3.37-1.07-.23-.14-.35-.11-.54,.07-1.42,1.42-2.86,2.83-4.29,4.24-.44,.43-.95,.59-1.55,.41-.57-.17-.91-.57-1.03-1.14-.12-.58,.09-1.05,.5-1.46,1.4-1.37,2.79-2.76,4.19-4.12,.22-.21,.27-.36,.1-.65-2.77-4.61,.22-10.65,5.57-11.28,4.54-.53,8.47,2.96,8.46,7.51Zm-3.02-.04c0-2.5-2.04-4.52-4.53-4.52-2.47,0-4.51,2.04-4.51,4.51,0,2.49,2.04,4.54,4.52,4.54,2.49,0,4.53-2.03,4.52-4.53Z"/></g></g></g></g></svg>