<?xml version="1.0" encoding="UTF-8"?><svg xmlns="http://www.w3.org/2000/svg" viewBox="0 0 40 40"><defs><style>.d{fill:#fff;}.e{fill:none;}</style></defs><g id="a"/><g id="b"><g id="c"><g><rect class="e" width="40" height="40"/><g><path class="d" d="M39.28,33.1v.53c-.54,1.04-1.31,1.15-2.14,.32-1.71-1.71-3.42-3.42-5.13-5.14-.09-.1-.15-.23-.19-.31-.53,.3-.92,.58-1.35,.77-.31,.14-.37,.31-.37,.62,.02,1.71,.01,3.41,0,5.12,0,2.47-1.8,4.27-4.28,4.27-6.94,0-13.87,0-20.81,0-.36,0-.73-.03-1.08-.12-1.94-.47-3.19-2.1-3.19-4.16,0-7.46,0-14.93,0-22.39,0-2.56,0-5.12,0-7.68,0-1.46,.58-2.65,1.8-3.45,.54-.35,1.21-.51,1.82-.76,5.8,0,11.6,0,17.39,0,.21,.15,.44,.28,.62,.46,2.43,2.42,4.85,4.84,7.27,7.26,.32,.32,.47,.68,.47,1.14-.01,1.66,0,3.31-.01,4.97,0,.25,.06,.39,.31,.51,4.35,2.1,5.81,7.55,3.12,11.56-.07,.1-.13,.2-.23,.36,.12,.1,.24,.17,.34,.27,1.69,1.68,3.38,3.37,5.05,5.06,.23,.23,.4,.53,.6,.8ZM20.3,2.98h-.48c-4.89,0-9.79,0-14.68,0-1.43,0-2.16,.73-2.16,2.15,0,9.91,0,19.83,0,29.74,0,1.42,.74,2.15,2.16,2.15,6.84,0,13.68,0,20.52,0,.14,0,.28,0,.41,0,.94-.06,1.73-.82,1.74-1.76,.03-1.71,0-3.41,0-5.12,0-.02-.02-.04-.04-.06-4.92,.42-8.54-3.37-8.71-7.47-.08-2.07,.5-3.92,1.84-5.5,1.8-2.11,4.14-2.99,6.89-2.8v-3.79h-.44c-1.91,0-3.81,0-5.72,0-.91,0-1.34-.43-1.34-1.33,0-1.92,0-3.84,0-5.76v-.44Zm12.3,19.2c0-3.12-2.51-5.64-5.64-5.65-3.11-.01-5.64,2.52-5.65,5.64,0,3.1,2.52,5.64,5.6,5.65,3.15,0,5.68-2.5,5.68-5.64Zm-10.03-13.96h3.47l-3.47-3.47v3.47Z"/><path class="d" d="M12.77,12.77c2.11,0,4.21,0,6.32,0,.9,0,1.47,.82,1.11,1.59-.22,.47-.61,.67-1.12,.67-2.14,0-4.29,0-6.43,0-2.07,0-4.14,0-6.21,0-.92,0-1.48-.9-1.04-1.67,.24-.42,.62-.59,1.1-.59,2.09,0,4.19,0,6.28,0Z"/><path class="d" d="M11.23,19.55c-1.57,0-3.13,0-4.7,0-.76,0-1.28-.45-1.28-1.12,0-.67,.51-1.14,1.27-1.14,3.17,0,6.34,0,9.51,0,.76,0,1.27,.47,1.26,1.14,0,.66-.51,1.12-1.25,1.12-1.6,0-3.21,0-4.81,0Z"/><path class="d" d="M11.27,24.07c-1.58,0-3.16,0-4.74,0-.77,0-1.28-.45-1.29-1.11,0-.68,.51-1.14,1.3-1.14,3.17,0,6.34,0,9.51,0,.91,0,1.48,.79,1.14,1.57-.21,.47-.6,.69-1.11,.69-1.6,0-3.21,0-4.81,0Z"/><path class="d" d="M11.27,28.58c-1.58,0-3.16,0-4.74,0-.77,0-1.28-.45-1.29-1.12,0-.68,.51-1.14,1.3-1.14,3.17,0,6.34,0,9.51,0,.9,0,1.48,.8,1.14,1.57-.21,.47-.6,.69-1.11,.69-1.6,0-3.21,0-4.81,0Z"/></g></g></g></g></svg>