<?xml version="1.0" encoding="UTF-8"?><svg xmlns="http://www.w3.org/2000/svg" viewBox="0 0 40 40"><defs><style>.d{fill:#fff;}.e{fill:none;}</style></defs><g id="a"/><g id="b"><g id="c"><g><rect class="e" width="40" height="40"/><g><path class="d" d="M13.72,12.13c0-1.55-.01-3.1,0-4.65,.04-3.48,2.8-6.12,6.28-6.02,3.04,.09,5.68,2.64,5.73,5.67,.06,3.32,.06,6.63,0,9.95-.05,2.93-2.53,5.47-5.41,5.67-3.19,.23-5.99-1.84-6.49-4.86-.13-.79-.1-1.61-.11-2.42-.02-1.12,0-2.23,0-3.35Z"/><path class="d" d="M21.16,29.27v7.42c1.05,0,2.07,0,3.1,0,.86,0,1.46,.54,1.5,1.31,.04,.8-.52,1.44-1.33,1.46-.78,.02-1.56,0-2.35,0-2.29,0-4.58,0-6.87,0-.92,0-1.51-.6-1.49-1.44,.03-.77,.62-1.32,1.47-1.33,1.03-.01,2.06,0,3.12,0v-7.41c-.42,0-.87,0-1.31,0-2.49-.01-4.55-1.66-5.03-4.09-.13-.67-.14-1.39-.1-2.07,.04-.78,.69-1.28,1.45-1.24,.73,.03,1.27,.6,1.3,1.37,.02,.43,0,.87,.05,1.3,.16,1.12,1.09,1.94,2.22,1.95,1.88,.02,3.77,.02,5.65,0,1.28-.01,2.24-.99,2.29-2.31,.02-.35,0-.7,.01-1.04,.04-.67,.56-1.2,1.22-1.26,.72-.06,1.39,.35,1.49,1.04,.56,3.71-1.89,6.21-4.85,6.35-.51,.03-1.01,0-1.56,0Z"/><path class="d" d="M.72,12.98c.03-4.18,1.17-8.12,3.46-11.72,.34-.53,.8-.8,1.42-.72,.59,.08,.98,.42,1.14,.99,.14,.48,0,.9-.27,1.31-1.18,1.84-2.03,3.83-2.49,5.98-1.09,5.06-.3,9.81,2.38,14.24,.17,.28,.35,.58,.41,.89,.13,.68-.26,1.28-.89,1.51-.62,.22-1.28,0-1.66-.59-.98-1.51-1.76-3.12-2.34-4.83-.77-2.27-1.14-4.6-1.16-7.07Z"/><path class="d" d="M39.28,13.13c-.03,4.14-1.15,8.07-3.44,11.66-.49,.77-1.32,1-2.01,.55-.67-.43-.82-1.27-.34-2.02,2.28-3.61,3.27-7.54,2.94-11.8-.23-3.07-1.19-5.92-2.81-8.54-.16-.27-.33-.56-.39-.86-.12-.66,.24-1.26,.84-1.5,.63-.25,1.3-.03,1.7,.58,1.14,1.76,2.01,3.65,2.61,5.66,.6,2.01,.88,4.07,.9,6.27Z"/><path class="d" d="M34.01,12.72c-.03,2.44-.67,4.49-1.97,6.33-.38,.53-.93,.74-1.52,.58-.57-.15-.91-.55-1.02-1.12-.09-.46,.11-.84,.36-1.21,.97-1.44,1.42-3.03,1.35-4.76-.06-1.48-.51-2.84-1.35-4.06-.25-.37-.44-.75-.36-1.21,.1-.57,.5-1.01,1.06-1.13,.6-.13,1.09,.06,1.45,.55,1.05,1.46,1.68,3.09,1.9,4.87,.05,.44,.07,.89,.09,1.15Z"/><path class="d" d="M6.28,13.17c.03-2.54,.67-4.6,1.98-6.46,.33-.47,.79-.68,1.35-.6,.57,.08,.95,.41,1.12,.96,.15,.48,.03,.91-.25,1.31-1.12,1.63-1.57,3.43-1.36,5.39,.14,1.26,.57,2.41,1.26,3.47,.16,.25,.32,.53,.38,.81,.13,.66-.24,1.26-.84,1.5-.6,.24-1.26,.06-1.66-.5-.96-1.34-1.58-2.82-1.84-4.45-.09-.57-.12-1.15-.16-1.46Z"/></g></g></g></g></svg>