<svg xmlns="http://www.w3.org/2000/svg" viewBox="0 0 40 40"><defs><style>.cls-1{fill:none;}.cls-2{fill:#0091ff;}</style></defs><g id="Layer_2" data-name="Layer 2"><g id="Layer_1-2" data-name="Layer 1"><rect class="cls-1" width="40" height="40"/><path class="cls-2" d="M34.67,8.46,25.19,3a11,11,0,0,0-4.11-1.75H19.87A8.45,8.45,0,0,0,17,2.3L6.22,8.5a6.22,6.22,0,0,0-3.29,5.7q0,6.33,0,12.65a6.22,6.22,0,0,0,3.26,5.68q5.51,3.18,11,6.34a7.85,7.85,0,0,0,1.95.77,6.07,6.07,0,0,0,4.62-.78l10.89-6.27A6.31,6.31,0,0,0,38,26.78V14.28A6.3,6.3,0,0,0,34.67,8.46ZM33.24,29.93l-11,6.33a3.28,3.28,0,0,1-3.56,0l-11-6.33a3.28,3.28,0,0,1-1.78-3.08c0-2.11,0-4.22,0-6.33s0-4.21,0-6.32a3.3,3.3,0,0,1,1.78-3.09l11-6.33a3.32,3.32,0,0,1,3.56,0c3.65,2.12,7.31,4.22,11,6.33A3.33,3.33,0,0,1,35,14.2q0,6.32,0,12.65A3.31,3.31,0,0,1,33.24,29.93Z"/><path class="cls-2" d="M16,20.52l-3.84-3.25a1.54,1.54,0,0,1-.65-1.06,1.37,1.37,0,0,1,.72-1.4,1.32,1.32,0,0,1,1.56.12c.71.57,1.38,1.16,2.07,1.74L19,19.32a1.46,1.46,0,0,1,0,2.42L14,26a1.43,1.43,0,1,1-1.87-2.15c1-.84,2-1.67,3-2.5Z"/><path class="cls-2" d="M24.83,23.59c1.09,0,2.19,0,3.28,0a1.38,1.38,0,0,1,1.33,1.17,1.41,1.41,0,0,1-.86,1.55,1.51,1.51,0,0,1-.55.12c-2.13,0-4.25,0-6.38,0a1.42,1.42,0,0,1-.37-2.8,2.32,2.32,0,0,1,.53-.05h3Z"/></g></g></svg>