<svg xmlns="http://www.w3.org/2000/svg" viewBox="0 0 40 40"><defs><style>.cls-1{fill:none;}.cls-2{fill:#0091ff;}</style></defs><g id="Layer_2" data-name="Layer 2"><g id="Layer_1-2" data-name="Layer 1"><rect class="cls-1" width="40" height="40"/><path class="cls-2" d="M39.16,27.82c-.43-1.05-.87-2.09-1.31-3.12A1.16,1.16,0,0,0,36.17,24c-1.05.43-2.1.88-3.15,1.33a1.13,1.13,0,1,0,.89,2.07l.82-.33c-.07.17-.1.26-.14.35a15.85,15.85,0,0,1-12.72,9.43A15.58,15.58,0,0,1,9.07,33a15.87,15.87,0,0,1-4.94-8,1.13,1.13,0,1,0-2.17.6Q5.29,36.57,16.54,39c.69.15,1.41.2,2.11.3h2.26c.78-.11,1.58-.17,2.35-.33A18.34,18.34,0,0,0,36.68,28.28l.12-.23.28.64a1.13,1.13,0,1,0,2.08-.87Zm-35.44-12c1.13-.45,2.25-.93,3.36-1.41a1.11,1.11,0,0,0,.6-1.5,1.12,1.12,0,0,0-1.49-.57l-.78.32c.08-.19.12-.3.18-.41A15.8,15.8,0,0,1,18.86,3.05,15.63,15.63,0,0,1,32,8a15.88,15.88,0,0,1,3.92,7,1.13,1.13,0,1,0,2.17-.6c-.23-.77-.47-1.54-.77-2.28A18.27,18.27,0,0,0,18,.87c-6.68.85-11.5,4.46-14.5,10.5-.06.13-.13.26-.23.45-.14-.34-.25-.61-.37-.88a1.14,1.14,0,0,0-1.38-.63,1.34,1.34,0,0,0-.79.79v.6c.05.1.11.19.15.29l1.34,3.15A1.11,1.11,0,0,0,3.72,15.79Zm25.9,7.55a3.29,3.29,0,0,0,2-1.08,3.39,3.39,0,0,0-1.92-5.6.7.7,0,0,1-.5-1.1,3.33,3.33,0,0,0,.63-1.83,3.39,3.39,0,0,0-5.42-2.86.73.73,0,0,1-.26.14.92.92,0,0,1-.79-.68,3.39,3.39,0,0,0-6.68.05.7.7,0,0,1-1.07.46,3.53,3.53,0,0,0-2.24-.65A3.24,3.24,0,0,0,10.59,12a3.33,3.33,0,0,0,.26,3.56.71.71,0,0,1-.45,1.08,3.21,3.21,0,0,0-2,1,3.38,3.38,0,0,0,1.89,5.63.71.71,0,0,1,.5,1.11,3.39,3.39,0,0,0,1.17,5,3.3,3.3,0,0,0,3.62-.28.65.65,0,0,1,.29-.14.85.85,0,0,1,.77.75,1.74,1.74,0,0,0,0,.22,3.38,3.38,0,0,0,6.6-.31.7.7,0,0,1,1.12-.47,3.39,3.39,0,0,0,4.73-4.73A.69.69,0,0,1,29.62,23.34Zm-1.2-2.21a1.11,1.11,0,0,0-1,.75c-.27.67-.55,1.34-.83,2a1.1,1.1,0,0,0,.21,1.25c.13.15.28.29.42.43a1.15,1.15,0,0,1,0,1.63,1.16,1.16,0,0,1-1.65,0c-.15-.14-.28-.29-.43-.42a1.14,1.14,0,0,0-1.3-.19l-1.93.8a1.16,1.16,0,0,0-.79,1.09c0,.22,0,.45,0,.67a1.13,1.13,0,0,1-2.26,0c0-.23,0-.45,0-.68a1.15,1.15,0,0,0-.78-1.09c-.65-.25-1.3-.52-1.94-.8a1.14,1.14,0,0,0-1.32.21c-.17.15-.32.32-.49.47a1.13,1.13,0,0,1-1.58-1.61c.15-.17.32-.32.48-.48a1.13,1.13,0,0,0,.2-1.29c-.28-.65-.55-1.29-.81-1.94a1.15,1.15,0,0,0-1.12-.8h-.64A1.14,1.14,0,0,1,9.8,20a1.07,1.07,0,0,1,1.1-1.1,1.62,1.62,0,0,0,2-1.47,5.48,5.48,0,0,1,.53-1.19,1.16,1.16,0,0,0-.21-1.45c-.15-.15-.31-.3-.45-.46A1.12,1.12,0,0,1,14.3,12.7c.19.15.34.34.52.5a1.16,1.16,0,0,0,1.35.22c.63-.28,1.27-.54,1.9-.79a1.15,1.15,0,0,0,.81-1.11c0-.22,0-.43,0-.64a1.13,1.13,0,0,1,2.26,0c0,.2,0,.4,0,.61A1.15,1.15,0,0,0,22,12.64c.62.24,1.23.49,1.84.76a1.17,1.17,0,0,0,1.41-.22,6.52,6.52,0,0,1,.55-.51A1.08,1.08,0,0,1,27,12.58a1.31,1.31,0,0,1,.67,1c-.13.25-.24.51-.39.74a3.26,3.26,0,0,1-.45.46,1.17,1.17,0,0,0-.2,1.33c.27.63.54,1.26.79,1.9a1.16,1.16,0,0,0,1.1.81c.21,0,.41,0,.61,0a1.13,1.13,0,1,1,0,2.26C28.85,21.13,28.64,21.11,28.42,21.13ZM20,16.6A3.39,3.39,0,1,0,23.4,20,3.4,3.4,0,0,0,20,16.6Zm0,4.52A1.13,1.13,0,1,1,21.14,20,1.15,1.15,0,0,1,20,21.12Z"/></g></g></svg>