<svg xmlns="http://www.w3.org/2000/svg" viewBox="0 0 40 40"><defs><style>.cls-1{fill:none;}.cls-2{fill:#0091ff;stroke:#0091ff;stroke-miterlimit:10;stroke-width:0.51px;}</style></defs><g id="Layer_2" data-name="Layer 2"><g id="Layer_1-2" data-name="Layer 1"><rect class="cls-1" width="40" height="40"/><path class="cls-2" d="M39.62,29.33c-.1.2-.18.41-.3.6a1.8,1.8,0,0,1-1.45.87c-.41,0-.82,0-1.22,0H24.06a1.9,1.9,0,0,1-2-1.44A2.69,2.69,0,0,1,22,28.8c0-.69,0-1.38,0-2.06a2,2,0,0,1,1.87-2.27V23.25A1.89,1.89,0,0,1,22,21.79,3.51,3.51,0,0,1,22,21c0-.68,0-1.37,0-2.06a1.86,1.86,0,0,1,1.73-2l.13,0V15.68A1.93,1.93,0,0,1,22,14.21a2.39,2.39,0,0,1-.05-.6c0-.75,0-1.51,0-2.26a1.86,1.86,0,0,1,2-2h6.75c2.15,0,4.3,0,6.45,0a2.2,2.2,0,0,1,2.44,1.49v3.29a2,2,0,0,1-.89,1.24,8.68,8.68,0,0,1-1,.38v1.18a2,2,0,0,1,1.87,1.56v3.21a2,2,0,0,1-.82,1.2,7.69,7.69,0,0,1-1,.44v1.17A2,2,0,0,1,39.62,26ZM30.78,10.6H24c-.56,0-.79.22-.79.78q0,1.11,0,2.22c0,.56.23.8.78.8H37.56c.57,0,.79-.22.8-.79V11.47c0-.67-.2-.87-.86-.87Zm0,19h6.8c.54,0,.77-.22.77-.76,0-.75,0-1.5,0-2.25,0-.56-.23-.78-.8-.78q-6.78,0-13.55,0c-.56,0-.78.23-.79.8v2.1c0,.69.2.89.89.89Zm0-7.57h6.76c.62,0,.83-.21.84-.82V19c0-.57-.23-.8-.78-.8H24c-.58,0-.8.23-.81.82v2c0,.77.19,1,.94,1Zm-5.62-5.07H36.45V15.67H25.14Zm0,7.57H36.45V23.25H25.14Z"/><path class="cls-2" d="M28.47.5q2.49,1.56,5,3.13c.68.42.68.9,0,1.33L28.78,7.87A.72.72,0,0,1,28,8a.74.74,0,0,1-.33-.76c0-.33,0-.66,0-1H8.12V4.93H27.89c.88,0,1,.12,1,1,0,.09,0,.17,0,.35l3.2-2-3.22-2v.62c0,.55-.23.76-.78.76H6.88V2.42H27.64c0-.4,0-.74,0-1.08A.8.8,0,0,1,28.09.5Z"/><path class="cls-2" d="M11.68,39.65l-4.94-3.1c-.72-.46-.72-.92,0-1.37l4.62-2.9a.68.68,0,0,1,1.15.64c0,.33,0,.66,0,1H32v1.27H12.31c-.94,0-1.05-.1-1.06-1,0-.07,0-.15,0-.31l-3.2,2,3.19,2c0-.17,0-.29,0-.41,0-.8.15-.94,1-.94H33.29v1.23H12.52c0,.38,0,.71,0,1a.82.82,0,0,1-.46.88Z"/><path class="cls-2" d="M2.42,24.47V23.29l-.06-.05A1.92,1.92,0,0,1,.54,21.07V19.16a2,2,0,0,1,1.87-2.27V15.67l-.3,0A1.89,1.89,0,0,1,.54,13.78c0-.86,0-1.71,0-2.56a1.85,1.85,0,0,1,1.8-1.86c.5,0,1,0,1.49,0H16.12a1.88,1.88,0,0,1,2,1.41,2.21,2.21,0,0,1,.06.57c0,.73,0,1.45,0,2.18a1.94,1.94,0,0,1-1.86,2.17V16.9l.25,0a1.88,1.88,0,0,1,1.61,1.82c0,.76,0,1.53,0,2.29a2,2,0,0,1-1.86,2.21v1.21l.48.1a1.86,1.86,0,0,1,1.38,1.76q0,1.32,0,2.64a1.87,1.87,0,0,1-1.76,1.83H2.61a1.9,1.9,0,0,1-2.07-2.1V27.6c0-.38,0-.76,0-1.14a1.88,1.88,0,0,1,1.72-1.95ZM9.35,10.6H2.6c-.57,0-.79.22-.8.78,0,.75,0,1.5,0,2.26,0,.54.23.76.78.76H16.17c.53,0,.76-.24.76-.78,0-.72,0-1.43,0-2.14s-.2-.88-.86-.88Zm0,19h6.76c.6,0,.82-.22.82-.83s0-1.43,0-2.14-.22-.82-.84-.82q-6.73,0-13.47,0c-.61,0-.82.21-.82.83v2.1c0,.67.2.86.87.86Zm0-7.57h6.72c.64,0,.86-.22.86-.84s0-1.43,0-2.14-.22-.82-.8-.82H2.58c-.55,0-.77.22-.78.76,0,.71,0,1.43,0,2.14s.19.9.91.9ZM3.7,16.9H15V15.68H3.7ZM15,23.25H3.71v1.23H15Z"/><path class="cls-2" d="M4.29,6.16H3.08V5H4.29Z"/><path class="cls-2" d="M5.61,5H6.82v1.2H5.61Z"/><path class="cls-2" d="M33.33,35.2V34h1.23v1.2Z"/><path class="cls-2" d="M37.07,35.21h-1.2V34h1.2Z"/></g></g></svg>