<svg xmlns="http://www.w3.org/2000/svg" viewBox="0 0 40 40"><defs><style>.cls-1{fill:none;}.cls-2{fill:#0091ff;}</style></defs><g id="Layer_2" data-name="Layer 2"><g id="Layer_1-2" data-name="Layer 1"><rect class="cls-1" width="40" height="40"/><path class="cls-2" d="M39.26,3.36A4.42,4.42,0,0,0,36.2,1.17,1,1,0,0,1,36,1.09H5A5.74,5.74,0,0,0,2.88,2,4.37,4.37,0,0,0,1.11,5.57q0,7.47,0,15A4.52,4.52,0,0,0,5.45,25c.51,0,1,0,1.55,0a.39.39,0,0,1,.3.19A8.17,8.17,0,0,0,9.6,29c-.64.46-1.32.88-1.91,1.39a10.27,10.27,0,0,0-3.64,7.81,1.5,1.5,0,0,0,1.61,1.65H23.39A1.51,1.51,0,0,0,25,38.23a10.43,10.43,0,0,0-5.23-8.94l-.26-.15-.05-.05a1.8,1.8,0,0,1,.19-.2,7.4,7.4,0,0,0,2.12-3.56.38.38,0,0,1,.45-.36c.88,0,1.76,0,2.7,0v.44c0,1.28,0,2.56,0,3.83a1.54,1.54,0,0,0,2.72,1.12c1.7-1.71,3.42-3.41,5.11-5.12a.86.86,0,0,1,.67-.28,17.32,17.32,0,0,0,2.6,0,4.49,4.49,0,0,0,3.79-3.73,1.15,1.15,0,0,1,.06-.17V5A12,12,0,0,0,39.26,3.36ZM21.82,36.85H7.28c0-2.57,3.42-5.65,6.52-5.91A7.46,7.46,0,0,1,21.82,36.85ZM10.13,23.47a4.45,4.45,0,1,1,4.46,4.4A4.48,4.48,0,0,1,10.13,23.47ZM36.86,20.2A1.53,1.53,0,0,1,35.13,22c-.85,0-1.69,0-2.54,0a1.75,1.75,0,0,0-1.36.56c-1,1-1.94,1.95-2.91,2.92l-.34.32v-2.1a1.55,1.55,0,0,0-1.7-1.7c-1.35,0-2.7,0-4.05,0-.25,0-.34-.07-.4-.32a7.47,7.47,0,0,0-14.5,0c-.06.25-.14.36-.42.35s-.86,0-1.29,0a1.48,1.48,0,0,1-1.49-1.5V5.64a1.5,1.5,0,0,1,1.6-1.51H35.08a1.56,1.56,0,0,1,1.78,1.79ZM32.71,10.05a1.49,1.49,0,0,0,1.21-1.41,1.48,1.48,0,0,0-1.1-1.52,2.57,2.57,0,0,0-.68-.06H10.89c-.78,0-1.56,0-2.35,0a1.45,1.45,0,0,0-1.4,1,1.53,1.53,0,0,0,1.63,2H32.22A2.7,2.7,0,0,0,32.71,10.05Zm-.45,3H20.6a1.54,1.54,0,0,0-1.52,1,1.49,1.49,0,0,0,1.43,2c2,0,4,0,5.95,0h2.42c1.19,0,2.37,0,3.56,0a1.47,1.47,0,0,0,1.48-1.49A1.52,1.52,0,0,0,32.26,13Z"/></g></g></svg>