<svg xmlns="http://www.w3.org/2000/svg" viewBox="0 0 40 40"><defs><style>.cls-1{fill:none;}.cls-2{fill:#0091ff;}</style></defs><g id="Layer_2" data-name="Layer 2"><g id="Layer_1-2" data-name="Layer 1"><rect class="cls-1" width="40" height="40"/><path class="cls-2" d="M29.81.87q-10,0-20,0a9.17,9.17,0,0,0-9.19,9.2q0,10,0,20a9.36,9.36,0,0,0,.2,1.9,9.15,9.15,0,0,0,9,7.27h9.9c3.34,0,6.68,0,10,0A9.16,9.16,0,0,0,39,30q0-10,0-20A9.17,9.17,0,0,0,29.81.87ZM36.43,30a6.62,6.62,0,0,1-6.7,6.71c-3.3,0-6.6,0-9.9,0s-6.63,0-9.95,0a6.61,6.61,0,0,1-6.54-5.4A6.39,6.39,0,0,1,3.22,30q0-9.91,0-19.81a6.6,6.6,0,0,1,6.7-6.71q9.92,0,19.81,0a6.6,6.6,0,0,1,6.7,6.71Q36.44,20,36.43,30Zm-16-15a1.28,1.28,0,1,0-2.55,0c0,1.69,0,3.38,0,5.08a4.24,4.24,0,0,1-.9,2.67,2.85,2.85,0,0,1-4.58,0,4.23,4.23,0,0,1-.91-2.67c0-1.69,0-3.38,0-5.07A1.28,1.28,0,1,0,9,15c0,1.76,0,3.51,0,5.27a6.6,6.6,0,0,0,1.28,3.8,5.35,5.35,0,0,0,7.6,1.33,6.08,6.08,0,0,0,2.52-4.33,31.17,31.17,0,0,0,0-3.35h.07C20.46,16.8,20.47,15.88,20.46,15Zm7.47,5.42a.52.52,0,0,1,0-.67c.84-1.32,1.68-2.64,2.48-4a1.85,1.85,0,0,0,.24-1.05,1.12,1.12,0,0,0-1-1,1.19,1.19,0,0,0-1.3.58c-.63,1-1.24,2-1.87,3-.07.12-.15.23-.25.37L26,17.23c-.62-1-1.22-2-1.85-2.94A1.28,1.28,0,1,0,22,15.69c.84,1.34,1.67,2.69,2.52,4a.53.53,0,0,1,0,.67c-.86,1.34-1.69,2.68-2.52,4a1.27,1.27,0,1,0,2.16,1.34c.61-1,1.22-1.94,1.82-2.91l.25-.36.25.39,1.82,2.91a1.28,1.28,0,1,0,2.16-1.37Q29.21,22.39,27.93,20.38Z"/></g></g></svg>