<svg xmlns="http://www.w3.org/2000/svg" viewBox="0 0 28 28"><defs><style>.cls-1{fill:none;}.cls-2{fill:#0091ff;}</style></defs><g id="Layer_2" data-name="Layer 2"><g id="Layer_1-2" data-name="Layer 1"><rect class="cls-1" width="28" height="28"/><path class="cls-2" d="M23.83,1.91H4.23A2.09,2.09,0,0,0,2.09,3.63s0,.07,0,.11V24c0,.12.06.25.1.38a2.1,2.1,0,0,0,2,1.44c1.32,0,2.65,0,4,0H23.78a2.1,2.1,0,0,0,2.14-1.56,2.47,2.47,0,0,0,.08-.6V4.08A2.1,2.1,0,0,0,23.83,1.91Zm.77,7.28V23.53a.73.73,0,0,1-.84.84H4.3c-.59,0-.85-.26-.85-.86V8.94H24.6Zm0-1.67H3.46c0-.08,0-.16,0-.23V4.13a.72.72,0,0,1,.82-.81h19.5a.73.73,0,0,1,.83.81V7.52ZM12,22.26a.75.75,0,0,0,.66-.55l3.21-7.49L16.77,12a.71.71,0,0,0-.23-.86.66.66,0,0,0-.84,0,1,1,0,0,0-.27.4c-1.08,2.49-2.14,5-3.21,7.48-.32.73-.64,1.46-.94,2.19A.7.7,0,0,0,12,22.26ZM7.79,18.73c.52.42,1,.85,1.57,1.26a.7.7,0,0,0,1.14-.41.72.72,0,0,0-.32-.73l-2.75-2.2.24-.19,2.52-2a.7.7,0,0,0,.16-1,.71.71,0,0,0-1-.06L5.92,16.06a.71.71,0,0,0,0,1.19Zm11-3.58,1.86,1.5-.22.18-2.54,2a.72.72,0,0,0-.17,1,.7.7,0,0,0,1,.07q1.71-1.35,3.41-2.73a.7.7,0,0,0,0-1.17l-3.41-2.73a.7.7,0,1,0-.88,1.09ZM22.37,4.72H18.31a.7.7,0,1,0,0,1.4h4a.7.7,0,1,0,0-1.4ZM5.6,4.72a.71.71,0,0,0-.7.72.7.7,0,0,0,1.4,0A.71.71,0,0,0,5.6,4.72Zm2.82,0a.72.72,0,0,0-.71.69.7.7,0,1,0,1.4,0A.71.71,0,0,0,8.42,4.72Zm2.8,0a.7.7,0,0,0-.7.69.69.69,0,0,0,.7.71.7.7,0,0,0,0-1.4Z"/></g></g></svg>