<svg xmlns="http://www.w3.org/2000/svg" viewBox="0 0 135 135"><defs><style>.cls-1{fill:none;}.cls-2{fill:#0091ff;}</style></defs><g id="Layer_2" data-name="Layer 2"><g id="Layer_1-2" data-name="Layer 1"><rect class="cls-1" width="135" height="135"/><path class="cls-2" d="M67.6,133H9.29c-5,0-7.56-2.59-7.56-7.64q0-58.35,0-116.71C1.73,3.52,4.26,1,9.41,1H125.77c5.21,0,7.7,2.51,7.7,7.77V125.35c0,5.12-2.55,7.65-7.69,7.65ZM129.08,23.1H6.12V125.18c0,2.88.54,3.42,3.44,3.42H125.63c2.9,0,3.45-.54,3.45-3.43V23.1Zm-123-4.59h123V8.83c0-2.89-.54-3.43-3.45-3.43H9.58c-.41,0-.83,0-1.24,0a2.12,2.12,0,0,0-2.2,2.16C6.09,11.18,6.12,14.79,6.12,18.51Z"/><path class="cls-2" d="M48.93,80.2H18.05c-2.51,0-3.15-.64-3.15-3.17V35c0-2.53.63-3.16,3.16-3.16H79.81c2.52,0,3.16.64,3.16,3.16V77c0,2.52-.65,3.16-3.16,3.16ZM19.35,70.6c.46-.68.73-1,1-1.43q6-9,12-18.06c1.46-2.19,3.14-2.21,4.59,0,2.19,3.27,4.37,6.56,6.55,9.83.22.32.47.61.78,1,.38-.58.68-1,1-1.49Q50.8,51.51,56.34,42.6C58,40,59.65,40,61.27,42.58q8.13,13.05,16.27,26.1c.25.4.54.78.92,1.35V36.28H19.35Zm57.44,5.15L58.81,47c-6.05,9.71-12,19.18-18,28.79ZM34.66,55.56,21.2,75.8c4.84,0,9.39,0,14,0a1.42,1.42,0,0,0,.9-.65Q38.66,71,41.2,66.86a1.45,1.45,0,0,0,.14-1.2C39.19,62.33,37,59,34.66,55.56Z"/><path class="cls-2" d="M30.27,89c4.21,0,8.42,0,12.62,0,2,0,2.74.78,2.75,2.75v25.3c0,2-.78,2.74-2.75,2.75H17.64c-2,0-2.74-.78-2.74-2.75V91.75c0-2,.77-2.74,2.74-2.75C21.85,89,26.06,89,30.27,89ZM19.35,115.31H41.14V93.47H19.35Z"/><path class="cls-2" d="M83,104.4q0,6.33,0,12.65c0,2-.77,2.74-2.74,2.75H55c-2,0-2.74-.78-2.74-2.75q0-12.66,0-25.3c0-2,.77-2.75,2.74-2.75H80.22c2,0,2.74.78,2.74,2.75Q83,98.08,83,104.4ZM56.68,115.3H78.47V93.47H56.68Z"/><path class="cls-2" d="M104.79,119.8c-4.17,0-8.33,0-12.49,0-2,0-2.74-.78-2.74-2.75q0-12.64,0-25.3c0-2,.76-2.75,2.74-2.75h25.25c2,0,2.74.78,2.74,2.75q0,12.65,0,25.3c0,2-.78,2.74-2.74,2.75C113.29,119.81,109,119.8,104.79,119.8ZM94,93.46v21.83h21.79V93.46Z"/><path class="cls-2" d="M104.79,45H92.3c-1.73,0-2.74-.83-2.74-2.2s1-2.2,2.74-2.2h25.25c1.73,0,2.73.83,2.73,2.2s-1,2.19-2.73,2.2Z"/><path class="cls-2" d="M104.89,53.8c-4.25,0-8.51,0-12.76,0-1.8,0-2.94-1.29-2.49-2.76a2.19,2.19,0,0,1,2.28-1.63q13,0,26.07,0a2.16,2.16,0,0,1,2.29,2.22,2.19,2.19,0,0,1-2.35,2.16C113.58,53.81,109.24,53.8,104.89,53.8Z"/><path class="cls-2" d="M104.92,62.6H92.3c-1.73,0-2.73-.83-2.74-2.2s1-2.2,2.74-2.2h25.24c1.74,0,2.74.83,2.74,2.2s-1,2.19-2.73,2.2Z"/><path class="cls-2" d="M104.84,71.4H92.35c-1.75,0-2.75-.79-2.79-2.15s1-2.25,2.82-2.25h25.11c1.76,0,2.76.78,2.79,2.15s-1,2.24-2.82,2.25Z"/><path class="cls-2" d="M110.4,31.8c2.43,0,4.85,0,7.27,0,1.62,0,2.6.86,2.61,2.19s-1,2.2-2.59,2.2q-7.27,0-14.54,0c-1.62,0-2.6-.85-2.61-2.18s1-2.19,2.59-2.21C105.55,31.79,108,31.8,110.4,31.8Z"/><path class="cls-2" d="M99.44,80.2H92.17c-1.62,0-2.6-.86-2.61-2.19s1-2.2,2.59-2.2q7.27,0,14.54,0c1.62,0,2.61.86,2.61,2.19s-1,2.19-2.58,2.2C104.29,80.21,101.87,80.2,99.44,80.2Z"/><path class="cls-2" d="M93,36.17a8.46,8.46,0,0,1-1.51,0A2.07,2.07,0,0,1,89.58,34a2,2,0,0,1,1.91-2.15,12.93,12.93,0,0,1,2.33,0A2.19,2.19,0,0,1,96.13,34a2.24,2.24,0,0,1-2.34,2.19H93Z"/><path class="cls-2" d="M117,75.8c2.25,0,3.28.69,3.29,2.19s-1,2.21-3.27,2.21-3.29-.69-3.29-2.19S114.76,75.8,117,75.8Z"/><path class="cls-2" d="M85.16,9.8h25.39a7.2,7.2,0,0,1,1.23,0,2.09,2.09,0,0,1,1.9,2.17,2.07,2.07,0,0,1-1.9,2.16,7.82,7.82,0,0,1-1.37,0H59.5c-1.85,0-2.87-.79-2.87-2.2s1-2.2,2.87-2.2Z"/><path class="cls-2" d="M13.73,14.18a10.08,10.08,0,0,1-1.23,0,2.15,2.15,0,0,1-2-2.24,2.09,2.09,0,0,1,2-2.1,13.34,13.34,0,0,1,2.19,0,2.2,2.2,0,1,1,0,4.39c-.32,0-.64,0-1,0Z"/><path class="cls-2" d="M24.81,9.8h.68c1.6,0,2.59.89,2.57,2.23s-1,2.14-2.62,2.17c-.55,0-1.1,0-1.65,0A2.19,2.19,0,0,1,21.5,12,2.22,2.22,0,0,1,23.85,9.8C24.16,9.79,24.49,9.8,24.81,9.8Z"/><path class="cls-2" d="M35.81,9.8c.28,0,.55,0,.82,0a2.2,2.2,0,1,1,0,4.39c-.59,0-1.19,0-1.78,0a2.21,2.21,0,1,1,0-4.4C35.17,9.79,35.49,9.8,35.81,9.8Z"/><path class="cls-2" d="M121.31,14.18a7.32,7.32,0,0,1-1.24,0,2.18,2.18,0,0,1,0-4.34,16.15,16.15,0,0,1,2.2,0A2.2,2.2,0,0,1,124.67,12a2.23,2.23,0,0,1-2.4,2.25c-.32,0-.64,0-1,0Z"/></g></g></svg>