<svg xmlns="http://www.w3.org/2000/svg" viewBox="0 0 32 32"><defs><style>.cls-1{fill:none;}.cls-2{fill:#b4b7c9;}.cls-3{fill:#0091ff;}</style></defs><g id="Layer_2" data-name="Layer 2"><g id="Layer_1-2" data-name="Layer 1"><rect class="cls-1" width="32" height="32"/><path class="cls-2" d="M29.3,7.85a3,3,0,0,0-.64-1.76,3.49,3.49,0,0,0-2.77-1.38A13,13,0,0,1,18.49,2c-.46-.36-.88-.78-1.36-1.12a1.81,1.81,0,0,0-2-.17A6,6,0,0,0,14,1.59a13,13,0,0,1-2.55,1.72A13.58,13.58,0,0,1,6,4.71,3.4,3.4,0,0,0,2.63,8.19c0,1.91,0,3.83,0,5.74a23.59,23.59,0,0,0,.92,6,15.59,15.59,0,0,0,6.2,8.7,21,21,0,0,0,5.9,2.84h.61l.53-.16A22.92,22.92,0,0,0,21.65,29,15.77,15.77,0,0,0,27,23.34a20.54,20.54,0,0,0,2.28-8.42A61.77,61.77,0,0,0,29.3,7.85ZM27,17.6a14.44,14.44,0,0,1-8.36,11c-.79.38-1.61.69-2.43,1a.69.69,0,0,1-.47,0,18.53,18.53,0,0,1-6-3.22,14.13,14.13,0,0,1-4.67-7.66,29.49,29.49,0,0,1-.73-7.07c0-1.2,0-2.39.06-3.59A1.45,1.45,0,0,1,5.82,6.56c.95-.13,1.91-.2,2.85-.38a14,14,0,0,0,6.89-3.51c.41-.38.42-.38.83,0a14,14,0,0,0,6.88,3.52c.94.18,1.9.24,2.85.38a1.43,1.43,0,0,1,1.34,1.5c0,1.13,0,2.25,0,3.38A28.86,28.86,0,0,1,27,17.6Z"/><path class="cls-3" d="M23.84,16.23a7.84,7.84,0,0,1-15.68,0,7.84,7.84,0,0,1,15.68,0Zm-1.85,0a6,6,0,1,0-6,5.89A6,6,0,0,0,22,16.23Z"/><path class="cls-3" d="M14.72,17.48a2.08,2.08,0,0,1,.21-.31L18.14,14a3.08,3.08,0,0,1,.27-.24.9.9,0,0,1,1.2.07A.88.88,0,0,1,19.7,15a2.09,2.09,0,0,1-.2.22l-4,4a1,1,0,0,1-1.56,0l-1.52-1.49a.86.86,0,0,1-.22-.92.9.9,0,0,1,.74-.62.94.94,0,0,1,.83.3Z"/></g></g></svg>