<svg xmlns="http://www.w3.org/2000/svg" viewBox="0 0 507.49 293.5"><defs><style>.cls-1{fill:none;}.cls-2,.cls-5{fill:#0091ff;}.cls-3{fill:#fff;}.cls-4{fill:#04142E;}.cls-5{fill-rule:evenodd;}</style></defs><g id="Layer_2" data-name="Layer 2"><g id="Layer_1-2" data-name="Layer 1"><rect class="cls-1" x="140.64" y="167.58" width="80" height="80"/><path class="cls-2" d="M216.83,182c-.13,1-.25,2-.38,3-.41,3.25-.81,6.5-1.22,9.75l-1.35,10.66-1.08,8.69-1.23,9.78c-.19,1.48-.38,2.95-.55,4.42a.51.51,0,0,1-.29.44l-29.79,16.47a.47.47,0,0,1-.52,0Q165.77,237,151.1,228.89a.46.46,0,0,1-.28-.4c-.34-3-.69-6-1-9L148.68,210c-.36-3.16-.73-6.31-1.09-9.47q-.65-5.55-1.28-11.1c-.27-2.3-.53-4.6-.81-6.9,0-.28.09-.34.29-.41l19.06-6.78,15.56-5.54a1.06,1.06,0,0,1,.56,0l35.51,12.09Zm-58,45.28H160l4.9-.07,1.69,0a.55.55,0,0,0,.6-.41c1.36-3.44,2.74-6.87,4.1-10.3a.44.44,0,0,1,.49-.34h19a.46.46,0,0,1,.5.33q2.28,5.3,4.57,10.58a.36.36,0,0,0,.39.27l5.94.1c.52,0,1,0,1.61,0l-23-48.91Z"/><path class="cls-3" d="M158.81,227.25l21.92-48.77,23,48.91c-.57,0-1.09,0-1.61,0l-5.94-.1a.36.36,0,0,1-.39-.27q-2.28-5.28-4.57-10.58a.46.46,0,0,0-.5-.33h-19a.44.44,0,0,0-.49.34c-1.36,3.43-2.74,6.86-4.1,10.3a.55.55,0,0,1-.6.41l-1.69,0-4.9.07Zm22-33.13c-2.19,5.19-4.34,10.31-6.51,15.46h13.91C185.72,204.43,183.27,199.31,180.79,194.12Z"/><path class="cls-2" d="M180.79,194.12c2.48,5.19,4.93,10.31,7.4,15.46H174.28C176.45,204.43,178.6,199.31,180.79,194.12Z"/><path class="cls-4" d="M131.63,279.22l4.68-14.4h3l4.68,14.4h-2.17l-4.31-13.14h.54l-4.26,13.14Zm2.43-3.25v-2h7.52v2Z"/><path class="cls-4" d="M145.79,279.22v-10.8h1.87v3.12h.25v7.68Zm7.59,0v-5.31a8.41,8.41,0,0,0-.1-1.3,4.23,4.23,0,0,0-.4-1.23,2.46,2.46,0,0,0-.83-.92,2.57,2.57,0,0,0-1.4-.35,3.11,3.11,0,0,0-1.06.18,2.35,2.35,0,0,0-.87.6,2.78,2.78,0,0,0-.59,1.08,5.18,5.18,0,0,0-.22,1.63l-1.3-.49a5.81,5.81,0,0,1,.55-2.6,4.13,4.13,0,0,1,1.58-1.75,4.7,4.7,0,0,1,2.49-.63,4.38,4.38,0,0,1,1.88.36,3.49,3.49,0,0,1,1.24.94,4.63,4.63,0,0,1,.72,1.28,6.36,6.36,0,0,1,.34,1.35,8.76,8.76,0,0,1,.09,1.16v6Z"/><path class="cls-4" d="M162.39,279.52a4.47,4.47,0,0,1-2.6-.75,4.82,4.82,0,0,1-1.69-2,7.38,7.38,0,0,1,0-5.83,4.93,4.93,0,0,1,1.71-2,4.61,4.61,0,0,1,2.62-.74,4.39,4.39,0,0,1,2.58.74,4.7,4.7,0,0,1,1.58,2,7.66,7.66,0,0,1,.53,2.91,7.47,7.47,0,0,1-.54,2.91,4.65,4.65,0,0,1-1.59,2A4.3,4.3,0,0,1,162.39,279.52Zm.16,4.8a5.28,5.28,0,0,1-1.68-.27,4.87,4.87,0,0,1-1.49-.8,4.32,4.32,0,0,1-1.11-1.29l1.93-1a2.18,2.18,0,0,0,1,1,3.1,3.1,0,0,0,1.37.32,3.38,3.38,0,0,0,1.52-.32,2.13,2.13,0,0,0,1-.94,3.34,3.34,0,0,0,.31-1.56v-3h.25v-8.05h1.85v11.09c0,.28,0,.56,0,.82a7,7,0,0,1-.11.78,3.75,3.75,0,0,1-.87,1.8,4,4,0,0,1-1.64,1.06A6.92,6.92,0,0,1,162.55,284.32Zm.13-6.69a2.68,2.68,0,0,0,1.68-.49,2.84,2.84,0,0,0,.95-1.35,6.68,6.68,0,0,0,0-4,2.89,2.89,0,0,0-.94-1.34,2.64,2.64,0,0,0-1.62-.48,2.76,2.76,0,0,0-1.71.51,3,3,0,0,0-1,1.37,5.3,5.3,0,0,0-.33,1.92,5.35,5.35,0,0,0,.33,1.93,3,3,0,0,0,1,1.38A2.58,2.58,0,0,0,162.68,277.63Z"/><path class="cls-4" d="M174.33,279.51a4.38,4.38,0,0,1-1.88-.36,3.38,3.38,0,0,1-1.23-.95,4.37,4.37,0,0,1-.73-1.27,6.36,6.36,0,0,1-.34-1.35,8.76,8.76,0,0,1-.09-1.16v-6h2.12v5.31a9.58,9.58,0,0,0,.1,1.29,4.19,4.19,0,0,0,.4,1.24,2.4,2.4,0,0,0,.84.92,2.51,2.51,0,0,0,1.39.35,2.89,2.89,0,0,0,1.06-.19,2.24,2.24,0,0,0,.88-.59,2.77,2.77,0,0,0,.58-1.08,5.18,5.18,0,0,0,.22-1.63l1.3.49a5.77,5.77,0,0,1-.55,2.59,4.15,4.15,0,0,1-1.58,1.76A4.7,4.7,0,0,1,174.33,279.51Zm3.57-.29V276.1h-.25v-7.68h2.11v10.8Z"/><path class="cls-4" d="M182.76,279.22v-14.7h2.09v14.7Z"/><path class="cls-4" d="M190.9,279.52a4.09,4.09,0,0,1-2-.45,3,3,0,0,1-1.23-1.18,3.27,3.27,0,0,1-.41-1.61,3.39,3.39,0,0,1,.29-1.44,2.82,2.82,0,0,1,.86-1.06,4.7,4.7,0,0,1,1.4-.7,16,16,0,0,1,1.63-.37c.61-.11,1.24-.21,1.91-.3l2-.28-.76.42a2.7,2.7,0,0,0-.54-1.89,2.46,2.46,0,0,0-1.9-.61,3.17,3.17,0,0,0-1.56.39,2.17,2.17,0,0,0-1,1.31l-2-.6a4,4,0,0,1,1.52-2.21,5,5,0,0,1,3-.82,5.93,5.93,0,0,1,2.52.49,3.14,3.14,0,0,1,1.58,1.57,3.35,3.35,0,0,1,.32,1.12,12.59,12.59,0,0,1,.06,1.27v6.65h-1.85v-2.47l.36.32a4.57,4.57,0,0,1-1.71,1.84A4.88,4.88,0,0,1,190.9,279.52Zm.37-1.71a3.45,3.45,0,0,0,1.53-.32,2.88,2.88,0,0,0,1-.8,2.58,2.58,0,0,0,.51-1,3.58,3.58,0,0,0,.19-1.08q0-.6,0-1l.68.25-1.8.27-1.47.23a9.43,9.43,0,0,0-1.16.28,3.91,3.91,0,0,0-.77.36,1.59,1.59,0,0,0-.52.51,1.23,1.23,0,0,0-.2.73,1.46,1.46,0,0,0,.21.77,1.43,1.43,0,0,0,.64.57A2.51,2.51,0,0,0,191.27,277.81Z"/><path class="cls-4" d="M199.24,279.22v-10.8h1.86V271l-.26-.34a4,4,0,0,1,.52-1,2.93,2.93,0,0,1,.74-.71,3.2,3.2,0,0,1,.92-.47,4.47,4.47,0,0,1,1-.2,4.31,4.31,0,0,1,1,.06v2a3.45,3.45,0,0,0-1.18-.08,2.65,2.65,0,0,0-1.18.41,2.54,2.54,0,0,0-.8.8,3.31,3.31,0,0,0-.43,1,5.37,5.37,0,0,0-.13,1.22v5.45Z"/><path class="cls-4" d="M213.71,279.51a4.16,4.16,0,0,1-2.65-.84,4.25,4.25,0,0,1-1.49-2.26l2.07-.49a1.94,1.94,0,0,0,.71,1.14,2,2,0,0,0,1.29.48,2.31,2.31,0,0,0,1-.24,1.56,1.56,0,0,0,.76-.78,2.35,2.35,0,0,0,.2-.83q0-.46,0-1.08v-9.79h2.12v9.79c0,.43,0,.81,0,1.14a4,4,0,0,1-.1.94,3.08,3.08,0,0,1-.36.91,3.54,3.54,0,0,1-1.5,1.45A4.51,4.51,0,0,1,213.71,279.51Z"/><path class="cls-4" d="M224.87,279.51a5.48,5.48,0,0,1-3.21-.87,3.65,3.65,0,0,1-1.52-2.45l2.14-.33a2.11,2.11,0,0,0,.92,1.32,3.16,3.16,0,0,0,1.81.49,2.55,2.55,0,0,0,1.53-.4,1.29,1.29,0,0,0,.56-1.1,1.09,1.09,0,0,0-.2-.67,1.82,1.82,0,0,0-.81-.48q-.61-.22-1.89-.57a11,11,0,0,1-2.21-.78,2.8,2.8,0,0,1-1.16-1,2.47,2.47,0,0,1-.34-1.34,2.86,2.86,0,0,1,.52-1.71,3.35,3.35,0,0,1,1.46-1.13,5.61,5.61,0,0,1,2.22-.4,5.89,5.89,0,0,1,2.21.39,3.94,3.94,0,0,1,1.57,1.1,3.18,3.18,0,0,1,.72,1.68l-2.14.39a1.76,1.76,0,0,0-.73-1.23,2.9,2.9,0,0,0-1.61-.49,2.76,2.76,0,0,0-1.54.31,1.11,1.11,0,0,0-.59,1,.88.88,0,0,0,.22.61,2.17,2.17,0,0,0,.88.48c.43.15,1.07.34,1.92.55a9.94,9.94,0,0,1,2.16.77,2.86,2.86,0,0,1,1.14,1,2.77,2.77,0,0,1,.35,1.42,3,3,0,0,1-1.17,2.51A5,5,0,0,1,224.87,279.51Z"/><rect class="cls-1" x="289.77" y="165.58" width="80" height="80"/><rect class="cls-1" x="290.77" y="166.58" width="78" height="78"/><path class="cls-5" d="M345.57,172.11a11.52,11.52,0,0,0-3.94.62,26.59,26.59,0,0,0-8.34,4.89c-1.12.91-2.26,2-3.4,3.07-1.11-1.08-2.23-2.1-3.33-3a26.78,26.78,0,0,0-8.32-4.88,8.2,8.2,0,0,0-11.56,6.67,26.54,26.54,0,0,0,.07,9.65c.2,1.27.49,2.6.82,4-1.24.38-2.45.77-3.57,1.21a26.13,26.13,0,0,0-8.22,4.78,8.32,8.32,0,0,0,0,13.34A26.13,26.13,0,0,0,304,217.2c1.2.47,2.49.89,3.83,1.29-.48,1.8-.87,3.55-1.14,5.2a27.09,27.09,0,0,0-.06,9.67,8.23,8.23,0,0,0,11.6,6.69,26.74,26.74,0,0,0,8.34-4.88c1.11-.91,2.24-1.95,3.37-3,1.14,1.1,2.27,2.14,3.39,3.05a26.75,26.75,0,0,0,8.33,4.89,8.22,8.22,0,0,0,11.56-6.68,26.77,26.77,0,0,0-.07-9.65c-.27-1.66-.66-3.41-1.14-5.22,1.38-.4,2.72-.84,3.95-1.32a26.13,26.13,0,0,0,8.22-4.78,8.32,8.32,0,0,0,0-13.34A26.13,26.13,0,0,0,356,194.3c-1.13-.44-2.36-.84-3.62-1.23.33-1.36.63-2.7.83-4a26.63,26.63,0,0,0,.06-9.67,9.15,9.15,0,0,0-4.08-6.32A7.54,7.54,0,0,0,345.57,172.11Zm-.15,3.33a4.38,4.38,0,0,1,2.07.54c1.16.68,2,2,2.48,4.14a23.82,23.82,0,0,1-.1,8.45c-.18,1.15-.45,2.38-.76,3.63a76.08,76.08,0,0,0-10.89-1.75,78.7,78.7,0,0,0-6-7.37c1.07-1.05,2.14-2,3.18-2.87a23.86,23.86,0,0,1,7.26-4.31A8.1,8.1,0,0,1,345.42,175.44Zm-31,0a8.13,8.13,0,0,1,2.78.46,23.89,23.89,0,0,1,7.27,4.31c1,.83,2.06,1.79,3.11,2.81a78.82,78.82,0,0,0-6,7.44,77.11,77.11,0,0,0-10.85,1.76c-.3-1.25-.57-2.47-.76-3.62a24,24,0,0,1-.09-8.45c.46-2.16,1.33-3.48,2.5-4.16A4.31,4.31,0,0,1,314.45,175.45Zm15.49,10q2,2.17,4,4.73c-1.3,0-2.61-.08-3.94-.08s-2.7,0-4,.09Q327.94,187.61,329.94,185.43Zm0,7.94c2.22,0,4.38.09,6.49.25,1.45,2.08,2.86,4.28,4.21,6.62,1.18,2,2.25,4.1,3.23,6.12-1,2-2.08,4.13-3.28,6.21-1.05,1.83-2.16,3.57-3.28,5.25-2.38.19-4.84.31-7.37.31s-5.11-.12-7.54-.33c-1.1-1.65-2.19-3.37-3.23-5.17-1.2-2.07-2.28-4.14-3.26-6.19q1.47-3.09,3.28-6.23c1.34-2.32,2.75-4.52,4.19-6.59C325.55,193.47,327.74,193.37,330,193.37Zm10.69.66a68.82,68.82,0,0,1,7.57,1.36,75.62,75.62,0,0,1-2.6,7.14c-.68-1.3-1.38-2.61-2.13-3.92C342.59,197,341.63,195.51,340.67,194Zm-21.55,0c-.95,1.45-1.88,2.94-2.78,4.49q-1.14,2-2.16,4a73.7,73.7,0,0,1-2.58-7.1A70.21,70.21,0,0,1,319.12,194.05Zm32.35,2.2c1.15.35,2.27.72,3.29,1.12A23.45,23.45,0,0,1,362,201.5c1.59,1.48,2.29,2.89,2.29,4.25s-.7,2.77-2.29,4.25a23.45,23.45,0,0,1-7.19,4.13c-1.13.45-2.39.85-3.69,1.23a81.37,81.37,0,0,0-3.52-8.92A79.76,79.76,0,0,0,351.47,196.25Zm-43,0a79.33,79.33,0,0,0,3.86,10.08,84.5,84.5,0,0,0-3.54,9c-1.25-.38-2.46-.77-3.56-1.2A23.45,23.45,0,0,1,298,210c-1.59-1.48-2.29-2.88-2.29-4.25s.7-2.77,2.29-4.25a23.45,23.45,0,0,1,7.19-4.13C306.21,197,307.3,196.62,308.44,196.27Zm21.54,2a8.16,8.16,0,1,0,8.16,8.16A8.19,8.19,0,0,0,330,198.25Zm-15.76,12q1,2,2.17,4c.6,1,1.22,2,1.84,3-2.19-.3-4.27-.69-6.23-1.14C312.62,214.27,313.37,212.29,314.22,210.27Zm31.46,0c.85,2,1.6,4,2.22,5.92-2,.46-4,.84-6.25,1.14.64-1,1.26-2,1.87-3.09C344.29,212.91,345,211.59,345.68,210.27Zm-34.62,9.08a74.6,74.6,0,0,0,9.55,1.58,79.83,79.83,0,0,0,7,8.8c-1.06,1-2.11,2-3.14,2.85a24,24,0,0,1-7.27,4.3c-2.1.68-3.66.59-4.83-.08s-2-2-2.48-4.14a23.76,23.76,0,0,1,.1-8.44A46.44,46.44,0,0,1,311.06,219.35Zm37.79,0a49.79,49.79,0,0,1,1.08,4.9,24,24,0,0,1,.09,8.45c-.46,2.16-1.32,3.49-2.5,4.17s-2.75.76-4.86.08a24,24,0,0,1-7.27-4.31c-1-.84-2.1-1.82-3.17-2.87a79.68,79.68,0,0,0,7-8.84A75.09,75.09,0,0,0,348.85,219.36Zm-24,1.91c1.67.09,3.37.15,5.11.15s3.32-.06,4.95-.14a73.41,73.41,0,0,1-5,6.1A73.53,73.53,0,0,1,324.87,221.27Z"/><path class="cls-4" d="M291,277.22v-14.4h6.34a5.6,5.6,0,0,1,.59.07,4.3,4.3,0,0,1,2,.82,3.89,3.89,0,0,1,1.21,1.59,5.6,5.6,0,0,1,.4,2.12,5,5,0,0,1-.88,3A3.93,3.93,0,0,1,298,272l-.85.1H293v5.17Zm2.09-7.15h3.65l.44,0a3.31,3.31,0,0,0,.47-.07,2.07,2.07,0,0,0,1-.56,2.47,2.47,0,0,0,.56-.93,3.39,3.39,0,0,0,0-2.12,2.47,2.47,0,0,0-.56-.93,2.06,2.06,0,0,0-1-.55,2.31,2.31,0,0,0-.47-.08l-.44,0H293Zm6.33,7.15-2.84-5.86,2.11-.54,3.12,6.4Z"/><path class="cls-4" d="M308.75,277.52a5.53,5.53,0,0,1-2.83-.71,4.85,4.85,0,0,1-1.89-2,6.12,6.12,0,0,1-.67-2.93,6.71,6.71,0,0,1,.66-3.07,4.76,4.76,0,0,1,1.86-2,5.31,5.31,0,0,1,2.77-.71,5,5,0,0,1,2.81.76,4.61,4.61,0,0,1,1.73,2.18,7.49,7.49,0,0,1,.46,3.35h-2.09v-.76a4.7,4.7,0,0,0-.72-2.78,2.5,2.5,0,0,0-2.11-.9,2.82,2.82,0,0,0-2.36,1,4.47,4.47,0,0,0-.79,2.86,4.23,4.23,0,0,0,.79,2.75,2.75,2.75,0,0,0,2.28,1,3.09,3.09,0,0,0,1.69-.45,3,3,0,0,0,1.12-1.27l2.05.65a4.83,4.83,0,0,1-1.91,2.24A5.33,5.33,0,0,1,308.75,277.52Zm-3.85-5.11v-1.63h7.71v1.63Z"/><path class="cls-4" d="M318.74,277.52a4.09,4.09,0,0,1-2-.45,3,3,0,0,1-1.23-1.18,3.52,3.52,0,0,1-.12-3.05,2.82,2.82,0,0,1,.86-1.06,4.59,4.59,0,0,1,1.4-.7,16,16,0,0,1,1.63-.37c.6-.11,1.24-.21,1.91-.3l2-.28-.76.42a2.7,2.7,0,0,0-.54-1.89,2.46,2.46,0,0,0-1.9-.61,3.17,3.17,0,0,0-1.56.39,2.1,2.1,0,0,0-1,1.31l-1.95-.6a4,4,0,0,1,1.52-2.21,5,5,0,0,1,3-.82,6,6,0,0,1,2.52.49,3.18,3.18,0,0,1,1.58,1.57,3.35,3.35,0,0,1,.32,1.12,12.59,12.59,0,0,1,.06,1.27v6.65h-1.85v-2.47l.36.32a4.57,4.57,0,0,1-1.71,1.84A4.9,4.9,0,0,1,318.74,277.52Zm.37-1.71a3.45,3.45,0,0,0,1.53-.32,3,3,0,0,0,1-.8,2.58,2.58,0,0,0,.51-1,3.58,3.58,0,0,0,.19-1.08q0-.6,0-1l.68.25-1.8.27-1.47.23a9.43,9.43,0,0,0-1.16.28,3.91,3.91,0,0,0-.77.36,1.73,1.73,0,0,0-.53.51,1.3,1.3,0,0,0-.19.73,1.46,1.46,0,0,0,.21.77,1.43,1.43,0,0,0,.64.57A2.48,2.48,0,0,0,319.11,275.81Z"/><path class="cls-4" d="M331.7,277.52a5.15,5.15,0,0,1-2.82-.74,4.75,4.75,0,0,1-1.78-2,7.2,7.2,0,0,1,0-5.89,4.87,4.87,0,0,1,1.8-2,5.16,5.16,0,0,1,2.81-.73,5.08,5.08,0,0,1,3,.88,4.14,4.14,0,0,1,1.66,2.41l-2.08.6a2.83,2.83,0,0,0-1-1.42,2.74,2.74,0,0,0-1.61-.5,2.79,2.79,0,0,0-1.69.48,2.89,2.89,0,0,0-1,1.33,5.22,5.22,0,0,0-.33,1.92,4.5,4.5,0,0,0,.76,2.7,2.59,2.59,0,0,0,2.24,1,2.65,2.65,0,0,0,1.63-.47,2.86,2.86,0,0,0,1-1.33l2.12.5a4.68,4.68,0,0,1-1.75,2.42A5,5,0,0,1,331.7,277.52Z"/><path class="cls-4" d="M337.25,268.1v-1.68h7.38v1.68Zm7.38,9.12a9.17,9.17,0,0,1-2,.17,4.55,4.55,0,0,1-1.75-.38,2.34,2.34,0,0,1-1.16-1.1,3.14,3.14,0,0,1-.38-1.37c0-.46,0-1,0-1.57v-9.55h2.1v9.45c0,.43,0,.81,0,1.13a1.67,1.67,0,0,0,.21.81,1.4,1.4,0,0,0,1.14.7,7.41,7.41,0,0,0,1.85-.06Z"/><path class="cls-4" d="M353.64,277.51a4.19,4.19,0,0,1-2.66-.84,4.23,4.23,0,0,1-1.48-2.26l2.07-.49a2.11,2.11,0,0,0,2,1.62,2.31,2.31,0,0,0,1-.24,1.56,1.56,0,0,0,.76-.78,2.35,2.35,0,0,0,.2-.83q0-.46,0-1.08v-9.79h2.12v9.79c0,.43,0,.81,0,1.14a4.67,4.67,0,0,1-.1.94,3.08,3.08,0,0,1-.36.91,3.54,3.54,0,0,1-1.5,1.45A4.54,4.54,0,0,1,353.64,277.51Z"/><path class="cls-4" d="M364.8,277.51a5.44,5.44,0,0,1-3.21-.87,3.61,3.61,0,0,1-1.52-2.45l2.14-.33a2.11,2.11,0,0,0,.92,1.32,3.14,3.14,0,0,0,1.81.49,2.55,2.55,0,0,0,1.53-.4,1.29,1.29,0,0,0,.56-1.1,1.09,1.09,0,0,0-.2-.67A1.82,1.82,0,0,0,366,273q-.63-.22-1.89-.57a10.82,10.82,0,0,1-2.21-.78,2.8,2.8,0,0,1-1.16-1,2.47,2.47,0,0,1-.34-1.34,2.86,2.86,0,0,1,.52-1.71,3.29,3.29,0,0,1,1.46-1.13,5.61,5.61,0,0,1,2.22-.4,5.92,5.92,0,0,1,2.21.39,4,4,0,0,1,1.57,1.1,3.18,3.18,0,0,1,.72,1.68l-2.14.39a1.8,1.8,0,0,0-.73-1.23,2.93,2.93,0,0,0-1.61-.49,2.74,2.74,0,0,0-1.54.31,1.09,1.09,0,0,0-.59,1,.88.88,0,0,0,.22.61,2.1,2.1,0,0,0,.88.48c.43.15,1.07.34,1.92.55a10.35,10.35,0,0,1,2.16.77,2.86,2.86,0,0,1,1.14,1,2.77,2.77,0,0,1,.35,1.42A3,3,0,0,1,368,276.6,5.08,5.08,0,0,1,364.8,277.51Z"/><rect class="cls-1" x="426.49" y="1.5" width="81" height="130"/><rect class="cls-1" x="426.99" y="0.83" width="80" height="80"/><path class="cls-2" d="M466.19,3.83c-14,0-16.89,7.23-16.89,11.42v7.89h16.09v1.61h-24c-5.31,0-11.42,4.18-11.42,16.08s6.11,16.09,11.42,16.09h9.5V47.27a6.45,6.45,0,0,1,6.43-6.44h19.31A4.74,4.74,0,0,0,481.47,36V15.25C481.47,9.61,476.16,3.83,466.19,3.83ZM459,11.88a3.22,3.22,0,1,1-3.22,3.21A3.22,3.22,0,0,1,459,11.88Zm24.13,12.87V36a6.45,6.45,0,0,1-6.43,6.43H457.34a4.74,4.74,0,0,0-4.82,4.83V66.42c0,5.63,5.31,11.41,15.28,11.41,14,0,16.89-7.22,16.89-11.41V58.53H468.6V56.92h24c5.31,0,11.41-4.18,11.41-16.09s-6.1-16.08-11.41-16.08Zm-8,38.61a3.22,3.22,0,1,1-3.22,3.21A3.21,3.21,0,0,1,475,63.36Z"/><path class="cls-4" d="M433.52,112.67V98.27h6.34a5.3,5.3,0,0,1,.59.07,4.26,4.26,0,0,1,2,.82,3.89,3.89,0,0,1,1.21,1.59,5.84,5.84,0,0,1,0,4.25,3.89,3.89,0,0,1-1.21,1.59,4.26,4.26,0,0,1-2,.82,5.54,5.54,0,0,1-.6.06l-.51,0h-3.73v5.17Zm2.09-7.15h3.65l.44,0a3.31,3.31,0,0,0,.47-.07,2,2,0,0,0,1-.56,2.35,2.35,0,0,0,.56-.93,3.39,3.39,0,0,0,0-2.12,2.35,2.35,0,0,0-.56-.93,2,2,0,0,0-1-.55,2.31,2.31,0,0,0-.47-.08l-.44,0h-3.65Z"/><path class="cls-4" d="M447.52,117.47l2.09-5.69,0,1.68-4.71-11.59h2.18l3.52,8.95H450l3.36-8.95h2.12l-6,15.6Z"/><path class="cls-4" d="M456.63,103.55v-1.68H464v1.68Zm7.38,9.12a9.17,9.17,0,0,1-2,.17,4.59,4.59,0,0,1-1.75-.38,2.38,2.38,0,0,1-1.16-1.1,3.28,3.28,0,0,1-.38-1.37c0-.46,0-1,0-1.57V98.87h2.1v9.45c0,.43,0,.81,0,1.13a1.67,1.67,0,0,0,.21.81,1.4,1.4,0,0,0,1.14.7,7.4,7.4,0,0,0,1.85-.06Z"/><path class="cls-4" d="M466.27,112.67V98.27h1.87V106h.25v6.63Zm7.59,0v-5.31a8.45,8.45,0,0,0-.11-1.3,4,4,0,0,0-.4-1.23,2.3,2.3,0,0,0-.83-.92,2.51,2.51,0,0,0-1.39-.35,3.11,3.11,0,0,0-1.06.18,2.38,2.38,0,0,0-.88.6,2.92,2.92,0,0,0-.59,1.08,5.52,5.52,0,0,0-.21,1.63l-1.3-.49a5.81,5.81,0,0,1,.55-2.6,4.13,4.13,0,0,1,1.58-1.75,4.7,4.7,0,0,1,2.49-.63,4.38,4.38,0,0,1,1.88.36,3.36,3.36,0,0,1,1.23.94,4.42,4.42,0,0,1,.73,1.28,6.36,6.36,0,0,1,.34,1.35,8.76,8.76,0,0,1,.09,1.16v6Z"/><path class="cls-4" d="M483.27,113a5.23,5.23,0,0,1-2.81-.73,4.93,4.93,0,0,1-1.84-2,7.11,7.11,0,0,1,0-5.94,5,5,0,0,1,1.85-2,5.35,5.35,0,0,1,2.78-.71,5.23,5.23,0,0,1,2.81.73,5,5,0,0,1,1.84,2,6.47,6.47,0,0,1,.65,3,6.37,6.37,0,0,1-.66,3,4.84,4.84,0,0,1-1.84,2A5.22,5.22,0,0,1,483.27,113Zm0-2a2.67,2.67,0,0,0,2.31-1,4.42,4.42,0,0,0,.77-2.69,4.34,4.34,0,0,0-.78-2.71,2.72,2.72,0,0,0-2.3-1,3,3,0,0,0-1.73.47,2.89,2.89,0,0,0-1,1.31,5.29,5.29,0,0,0-.33,1.94A4.37,4.37,0,0,0,481,110,2.7,2.7,0,0,0,483.27,111Z"/><path class="cls-4" d="M490.76,112.67v-10.8h1.87V105h.25v7.68Zm7.59,0v-5.31a8.45,8.45,0,0,0-.11-1.3,4,4,0,0,0-.4-1.23,2.3,2.3,0,0,0-.83-.92,2.51,2.51,0,0,0-1.39-.35,3.11,3.11,0,0,0-1.06.18,2.3,2.3,0,0,0-.88.6,2.92,2.92,0,0,0-.59,1.08,5.52,5.52,0,0,0-.21,1.63l-1.3-.49a5.81,5.81,0,0,1,.55-2.6,4.13,4.13,0,0,1,1.58-1.75,4.65,4.65,0,0,1,2.49-.63,4.41,4.41,0,0,1,1.88.36,3.36,3.36,0,0,1,1.23.94,4.42,4.42,0,0,1,.73,1.28,6.36,6.36,0,0,1,.34,1.35,8.76,8.76,0,0,1,.09,1.16v6Z"/><path class="cls-4" d="M430.64,275.59v-14.4h2.12l7.09,10.7v-10.7H442v14.4h-2.12l-7.09-10.71v10.71Z"/><path class="cls-2" d="M449.38,191.71v3.67c0,.72-.19.83-.8.49-.86-.49-1.71-1-2.57-1.47a1,1,0,0,1-.58-1c0-1,0-2.07,0-3.1a1.15,1.15,0,0,0-.69-1.17c-1.29-.72-1.82-.7-2.91.27a1.13,1.13,0,0,0-.27.73c0,1.08,0,2.15,0,3.23a1,1,0,0,1-.6,1c-.88.47-1.75,1-2.63,1.49-.49.27-.68.17-.69-.38,0-2.57,0-5.15,0-7.73a1.12,1.12,0,0,1,.46-.77c1.63-1,3.29-1.94,5-2.85a1,1,0,0,1,.88,0c1.66.91,3.3,1.85,4.92,2.84a1.21,1.21,0,0,1,.47.87C449.41,189.17,449.38,190.44,449.38,191.71Z"/><rect class="cls-1" x="426.49" y="163.5" width="81" height="130"/><path class="cls-4" d="M449.46,275.89a5.34,5.34,0,0,1-2.81-.73,4.9,4.9,0,0,1-1.83-2,6.51,6.51,0,0,1-.65-3,6.44,6.44,0,0,1,.66-3,4.9,4.9,0,0,1,1.85-2,5.79,5.79,0,0,1,5.59,0,4.77,4.77,0,0,1,1.84,2,6.32,6.32,0,0,1,.65,2.95,6.43,6.43,0,0,1-.65,3,4.86,4.86,0,0,1-1.85,2A5.28,5.28,0,0,1,449.46,275.89Zm0-2a2.68,2.68,0,0,0,2.32-1.05,5.15,5.15,0,0,0,0-5.4,2.72,2.72,0,0,0-2.31-1,2.94,2.94,0,0,0-1.73.47,2.84,2.84,0,0,0-1,1.31,5.26,5.26,0,0,0-.33,1.94,4.37,4.37,0,0,0,.78,2.72A2.71,2.71,0,0,0,449.46,273.92Z"/><path class="cls-4" d="M461.25,275.89a4.5,4.5,0,0,1-2.6-.75,5,5,0,0,1-1.69-2.05,7.38,7.38,0,0,1,0-5.83,4.86,4.86,0,0,1,1.71-2,4.55,4.55,0,0,1,2.62-.74,4.32,4.32,0,0,1,2.58.74,4.63,4.63,0,0,1,1.58,2,8.18,8.18,0,0,1,0,5.82,4.65,4.65,0,0,1-1.59,2A4.35,4.35,0,0,1,461.25,275.89Zm.29-1.89a2.75,2.75,0,0,0,1.68-.49,2.78,2.78,0,0,0,.95-1.35,6.06,6.06,0,0,0,.3-2,6,6,0,0,0-.3-2,2.85,2.85,0,0,0-.94-1.35,2.66,2.66,0,0,0-1.62-.47,2.76,2.76,0,0,0-1.71.51,3,3,0,0,0-1,1.37,5.3,5.3,0,0,0-.33,1.92,5.39,5.39,0,0,0,.33,1.93,3.06,3.06,0,0,0,1,1.38A2.62,2.62,0,0,0,461.54,274Zm2.93,1.59v-7.77h-.24v-6.63h2.1v14.4Z"/><path class="cls-4" d="M473.92,275.89a5.52,5.52,0,0,1-2.82-.71,4.91,4.91,0,0,1-1.89-2,6.12,6.12,0,0,1-.68-2.93,6.56,6.56,0,0,1,.67-3.07,4.81,4.81,0,0,1,1.85-2,5.27,5.27,0,0,1,2.77-.71,5,5,0,0,1,2.81.76,4.57,4.57,0,0,1,1.74,2.18,7.62,7.62,0,0,1,.45,3.35h-2.09V270a4.61,4.61,0,0,0-.71-2.78,2.52,2.52,0,0,0-2.12-.9,2.85,2.85,0,0,0-2.36,1,4.53,4.53,0,0,0-.79,2.86,4.31,4.31,0,0,0,.79,2.75,2.78,2.78,0,0,0,2.28,1,3.13,3.13,0,0,0,1.7-.45,3,3,0,0,0,1.11-1.27l2.05.65a4.82,4.82,0,0,1-1.91,2.24A5.28,5.28,0,0,1,473.92,275.89Zm-3.85-5.11v-1.63h7.71v1.63Z"/><path class="cls-4" d="M487.8,275.88a4.16,4.16,0,0,1-2.65-.84,4.34,4.34,0,0,1-1.49-2.26l2.07-.49a2.07,2.07,0,0,0,.72,1.14,1.94,1.94,0,0,0,1.28.48,2.28,2.28,0,0,0,1-.24,1.52,1.52,0,0,0,.76-.78,2.16,2.16,0,0,0,.2-.83q0-.46,0-1.08v-9.79h2.12v10.93a4.75,4.75,0,0,1-.1.94,3.72,3.72,0,0,1-1.87,2.36A4.64,4.64,0,0,1,487.8,275.88Z"/><path class="cls-4" d="M499,275.88a5.48,5.48,0,0,1-3.21-.87,3.68,3.68,0,0,1-1.52-2.45l2.14-.33a2.17,2.17,0,0,0,.93,1.32,3.18,3.18,0,0,0,1.8.49,2.64,2.64,0,0,0,1.54-.4,1.29,1.29,0,0,0,.55-1.1,1.07,1.07,0,0,0-.19-.67,1.8,1.8,0,0,0-.82-.48,18.16,18.16,0,0,0-1.89-.57,10.92,10.92,0,0,1-2.2-.78,2.81,2.81,0,0,1-1.16-1,2.5,2.5,0,0,1-.35-1.34,2.89,2.89,0,0,1,.52-1.71,3.31,3.31,0,0,1,1.47-1.13,5.59,5.59,0,0,1,2.21-.4,5.85,5.85,0,0,1,2.21.39,3.84,3.84,0,0,1,1.57,1.1,3.18,3.18,0,0,1,.72,1.68l-2.14.39a1.73,1.73,0,0,0-.73-1.23,2.82,2.82,0,0,0-1.61-.49,2.69,2.69,0,0,0-1.54.31,1.1,1.1,0,0,0-.59,1,.91.91,0,0,0,.23.61,2.38,2.38,0,0,0,.87.48c.44.15,1.08.33,1.92.55a9.94,9.94,0,0,1,2.16.77,2.47,2.47,0,0,1,1.49,2.43,3,3,0,0,1-1.16,2.51A5.16,5.16,0,0,1,499,275.88Z"/><path class="cls-2" d="M466.44,242.5a64.28,64.28,0,0,1-7.05-4l.05-.23a6.69,6.69,0,0,0,1.5-.63,2.21,2.21,0,0,1,3,.18c.78.57,1.66,1,2.48,1.5a1,1,0,0,0,1.08,0q7.77-4.51,15.58-9a1,1,0,0,0,.52-.94q0-8.94,0-17.88a1,1,0,0,0-.56-1q-7.77-4.47-15.53-9a1,1,0,0,0-1.07,0l-15.53,9a1,1,0,0,0-.56,1q0,8.94,0,17.88a1,1,0,0,0,.54.93c1.35.76,2.67,1.58,4,2.3a4.25,4.25,0,0,0,1.7.51,2,2,0,0,0,2.24-2.1c0-1.29,0-2.58,0-3.87V213.38c0-1.06.05-1.1,1.08-1.11.41,0,.82,0,1.22,0s.75.25.74.75v.25c0,5.81,0,11.62,0,17.43a9.39,9.39,0,0,1-.31,2.42,4.22,4.22,0,0,1-4.23,3,7.85,7.85,0,0,1-4.23-1.17c-1.28-.71-2.54-1.46-3.81-2.19a3.43,3.43,0,0,1-1.85-3.23c0-6.06,0-12.13,0-18.2a3.5,3.5,0,0,1,1.9-3.27L465.1,199a3.55,3.55,0,0,1,3.79,0c5.19,3,10.38,6,15.58,9a3.75,3.75,0,0,1,2,3.54c0,4.91,0,9.81,0,14.71,0,1.08,0,2.16,0,3.23a3.59,3.59,0,0,1-2,3.37q-7.89,4.53-15.76,9.08a11.36,11.36,0,0,1-1.29.55Z"/><path class="cls-2" d="M472,211a14.66,14.66,0,0,1,5.26.91,5.93,5.93,0,0,1,3.67,5.33c0,.5-.19.73-.67.74-.68,0-1.37,0-2.06,0-.22,0-.59-.23-.63-.41-.52-2.53-2.35-3.23-4.59-3.28a25.47,25.47,0,0,0-3.59.24,3.21,3.21,0,0,0-1.35.57,2,2,0,0,0-.8,2c.08.76.66,1,1.27,1.2,1.11.27,2.23.48,3.35.68,1.73.31,3.47.58,5.21.88a6.5,6.5,0,0,1,.86.25c2,.62,3.49,1.77,3.71,4a5.43,5.43,0,0,1-2.57,5.52,11.22,11.22,0,0,1-5.75,1.46,14.82,14.82,0,0,1-6.81-1.07,5.71,5.71,0,0,1-3.53-5.2c0-.79.11-.95.9-1a15.42,15.42,0,0,1,1.8,0c.25,0,.65.3.68.51.32,2.37,1.91,3.22,4,3.4a16.1,16.1,0,0,0,5.45-.22,2.5,2.5,0,0,0,2.19-2.29,1.5,1.5,0,0,0-1-1.8,20.84,20.84,0,0,0-3.11-.79c-2-.34-4-.6-6-.91a5.7,5.7,0,0,1-1-.33,4.43,4.43,0,0,1-3.23-3.8,5.13,5.13,0,0,1,2.26-5.21A11.11,11.11,0,0,1,472,211Z"/><path class="cls-2" d="M476.74,185.13c0-.39,0-.61,0-.84v-7c0-.84.16-.93.9-.52s1.6.91,2.42,1.34a1,1,0,0,1,.63,1q0,7.22,0,14.44a1.08,1.08,0,0,1-.61,1c-1.59.89-3.15,1.84-4.76,2.71a1.24,1.24,0,0,1-1.05,0c-1.61-.87-3.17-1.81-4.76-2.71a1,1,0,0,1-.58-1c0-1.83,0-3.66,0-5.48a1,1,0,0,1,.58-1c1.55-.87,3.1-1.76,4.63-2.68a1.11,1.11,0,0,1,1.36,0C475.86,184.68,476.24,184.85,476.74,185.13Zm.09,5.76c-.07-.43,0-1-.24-1.22a3.09,3.09,0,0,0-1.77-.94,3.67,3.67,0,0,0-1.78,1c-.16.12-.15.55-.14.83,0,.5-.11,1.18.16,1.47a2.77,2.77,0,0,0,1.75,1,3.24,3.24,0,0,0,1.78-.94C476.82,191.82,476.76,191.27,476.83,190.89Z"/><path class="cls-2" d="M465,190.74c0,.93,0,1.85,0,2.78a.88.88,0,0,1-.49.89c-1.63.92-3.23,1.88-4.87,2.78a1.24,1.24,0,0,1-1,0c-1.64-.9-3.25-1.84-4.85-2.81a1.11,1.11,0,0,1-.49-.81c0-1.89,0-3.78,0-5.67a1.23,1.23,0,0,1,.52-.86c1.58-1,3.2-1.85,4.79-2.79a1,1,0,0,1,1.08,0c1.59.93,3.21,1.83,4.78,2.79a1.22,1.22,0,0,1,.5.86C465.07,188.85,465,189.8,465,190.74Z"/><path class="cls-2" d="M484.62,190.72c0-.9,0-1.8,0-2.7a1,1,0,0,1,.56-1q2.38-1.35,4.74-2.74a1,1,0,0,1,1.14,0q2.32,1.38,4.68,2.71a1.15,1.15,0,0,1,.59,1,2,2,0,0,1-1.35,2.36,18.89,18.89,0,0,0-1.9,1.08c-.51.29-.76.19-.67-.34.24-1.25-.42-1.83-1.42-2.3a1.07,1.07,0,0,0-1.12,0c-1.42.85-1.42.83-1.4,2.49a.86.86,0,0,0,.51.86c1.54.86,3.06,1.75,4.59,2.63.66.38.66.56,0,.94-.84.47-1.7.93-2.53,1.42a1,1,0,0,1-1.14,0c-1.58-.92-3.18-1.79-4.75-2.74a1.24,1.24,0,0,1-.49-.86C484.58,192.62,484.62,191.67,484.62,190.72Z"/><path class="cls-2" d="M489.3,190.66a1.43,1.43,0,0,1,1.17-1.19,1.38,1.38,0,0,1,1.12,1.36,1.15,1.15,0,1,1-2.29-.17Z"/><rect class="cls-1" x="140.44" y="3" width="80" height="80"/><path class="cls-2" d="M150.44,8a6,6,0,0,0-6,6V74a6,6,0,0,0,6,6h60a6,6,0,0,0,6-6V14a6,6,0,0,0-6-6Zm0,2.4h60A3.59,3.59,0,0,1,214,14V74a3.59,3.59,0,0,1-3.6,3.6h-60a3.59,3.59,0,0,1-3.6-3.6V14A3.59,3.59,0,0,1,150.44,10.4Zm3.6,6a1.2,1.2,0,1,0,1.2,1.2A1.2,1.2,0,0,0,154,16.4Zm4.8,0a1.2,1.2,0,1,0,1.2,1.2A1.2,1.2,0,0,0,158.84,16.4Zm4.8,0a1.2,1.2,0,1,0,1.2,1.2A1.2,1.2,0,0,0,163.64,16.4Zm4.8,0a1.2,1.2,0,1,0,1.2,1.2A1.2,1.2,0,0,0,168.44,16.4Zm4.8,0a1.2,1.2,0,1,0,1.2,1.2A1.2,1.2,0,0,0,173.24,16.4Zm4.8,0a1.2,1.2,0,1,0,1.2,1.2A1.2,1.2,0,0,0,178,16.4Zm4.8,0a1.2,1.2,0,1,0,1.2,1.2A1.2,1.2,0,0,0,182.84,16.4Zm4.8,0a1.2,1.2,0,1,0,1.2,1.2A1.2,1.2,0,0,0,187.64,16.4Zm4.8,0a1.2,1.2,0,1,0,1.2,1.2A1.2,1.2,0,0,0,192.44,16.4Zm4.8,0a1.2,1.2,0,1,0,1.2,1.2A1.2,1.2,0,0,0,197.24,16.4Zm4.8,0a1.2,1.2,0,1,0,1.2,1.2A1.2,1.2,0,0,0,202,16.4Zm4.8,0a1.2,1.2,0,1,0,1.2,1.2A1.2,1.2,0,0,0,206.84,16.4ZM154,21.2a1.2,1.2,0,1,0,1.2,1.2A1.2,1.2,0,0,0,154,21.2Zm52.8,0a1.2,1.2,0,1,0,1.2,1.2A1.2,1.2,0,0,0,206.84,21.2ZM154,26a1.2,1.2,0,1,0,1.2,1.2A1.2,1.2,0,0,0,154,26Zm52.8,0a1.2,1.2,0,1,0,1.2,1.2A1.2,1.2,0,0,0,206.84,26Zm-23.7,1.8s6,7.61,3,16.14c0,0-10.85-7.71-16.31-13.24,0,0,6.82,9.83,9.26,11.84,0,0-4.08-2.11-13.51-10.14,0,0,10.83,14.14,15.92,17.09,0,0-7.72,5.27-19-2.17,0,0,5.93,10.49,18.48,10.49,5.63,0,7.28-2.91,10.08-2.91s4.63,2.91,4.63,2.91c1.7-4.15-2.5-8.89-2.5-8.89S197.91,37.84,183.14,27.8Zm-29.1,3a1.2,1.2,0,1,0,1.2,1.2A1.2,1.2,0,0,0,154,30.8Zm52.8,0A1.2,1.2,0,1,0,208,32,1.2,1.2,0,0,0,206.84,30.8ZM154,35.6a1.2,1.2,0,1,0,1.2,1.2A1.2,1.2,0,0,0,154,35.6Zm52.8,0a1.2,1.2,0,1,0,1.2,1.2A1.2,1.2,0,0,0,206.84,35.6ZM154,40.4a1.2,1.2,0,1,0,1.2,1.2A1.2,1.2,0,0,0,154,40.4Zm52.8,0a1.2,1.2,0,1,0,1.2,1.2A1.2,1.2,0,0,0,206.84,40.4ZM154,45.2a1.2,1.2,0,1,0,1.2,1.2A1.2,1.2,0,0,0,154,45.2Zm52.8,0a1.2,1.2,0,1,0,1.2,1.2A1.2,1.2,0,0,0,206.84,45.2ZM154,50a1.2,1.2,0,1,0,1.2,1.2A1.2,1.2,0,0,0,154,50Zm52.8,0a1.2,1.2,0,1,0,1.2,1.2A1.2,1.2,0,0,0,206.84,50ZM154,54.8a1.2,1.2,0,1,0,1.2,1.2A1.2,1.2,0,0,0,154,54.8Zm52.8,0A1.2,1.2,0,1,0,208,56,1.2,1.2,0,0,0,206.84,54.8ZM154,59.6a1.2,1.2,0,1,0,1.2,1.2A1.2,1.2,0,0,0,154,59.6Zm52.8,0a1.2,1.2,0,1,0,1.2,1.2A1.2,1.2,0,0,0,206.84,59.6ZM154,64.4a1.2,1.2,0,1,0,1.2,1.2A1.2,1.2,0,0,0,154,64.4Zm52.8,0a1.2,1.2,0,1,0,1.2,1.2A1.2,1.2,0,0,0,206.84,64.4ZM154,69.2a1.2,1.2,0,1,0,1.2,1.2A1.2,1.2,0,0,0,154,69.2Zm4.8,0a1.2,1.2,0,1,0,1.2,1.2A1.2,1.2,0,0,0,158.84,69.2Zm4.8,0a1.2,1.2,0,1,0,1.2,1.2A1.2,1.2,0,0,0,163.64,69.2Zm4.8,0a1.2,1.2,0,1,0,1.2,1.2A1.2,1.2,0,0,0,168.44,69.2Zm4.8,0a1.2,1.2,0,1,0,1.2,1.2A1.2,1.2,0,0,0,173.24,69.2Zm4.8,0a1.2,1.2,0,1,0,1.2,1.2A1.2,1.2,0,0,0,178,69.2Zm4.8,0a1.2,1.2,0,1,0,1.2,1.2A1.2,1.2,0,0,0,182.84,69.2Zm4.8,0a1.2,1.2,0,1,0,1.2,1.2A1.2,1.2,0,0,0,187.64,69.2Zm4.8,0a1.2,1.2,0,1,0,1.2,1.2A1.2,1.2,0,0,0,192.44,69.2Zm4.8,0a1.2,1.2,0,1,0,1.2,1.2A1.2,1.2,0,0,0,197.24,69.2Zm4.8,0a1.2,1.2,0,1,0,1.2,1.2A1.2,1.2,0,0,0,202,69.2Zm4.8,0a1.2,1.2,0,1,0,1.2,1.2A1.2,1.2,0,0,0,206.84,69.2Z"/><rect class="cls-1" width="80" height="80"/><path class="cls-2" d="M45.38,3.65,10.14,38.89a1.67,1.67,0,0,0,0,2.37l9.37,9.38a1.68,1.68,0,0,0,2.38,0L66.5,6a1.68,1.68,0,0,0-1.18-2.87H46.57A1.67,1.67,0,0,0,45.38,3.65ZM66.5,39.59l-29,29L26.92,58.05a1.68,1.68,0,0,1,0-2.38L45.38,37.21a1.71,1.71,0,0,1,1.19-.49H65.32A1.68,1.68,0,0,1,66.5,39.59Zm0,34.55L54.27,61.9,37.48,68.61l7.9,7.9a1.71,1.71,0,0,0,1.19.49H65.32A1.67,1.67,0,0,0,66.5,74.14Z"/><path class="cls-4" d="M9.32,111.22V96.82h8.52v2.09H11.41V103h5.24v2.1H11.41v6.15Z"/><path class="cls-4" d="M19.84,111.22V96.52h2.1v14.7Z"/><path class="cls-4" d="M29,111.51a4.41,4.41,0,0,1-1.88-.36,3.56,3.56,0,0,1-1.23-1,4.12,4.12,0,0,1-.72-1.27,5.81,5.81,0,0,1-.34-1.35,8.76,8.76,0,0,1-.09-1.16v-6h2.12v5.31A8.19,8.19,0,0,0,27,107a3.92,3.92,0,0,0,.4,1.24,2.37,2.37,0,0,0,.83.92,2.53,2.53,0,0,0,1.39.35,2.94,2.94,0,0,0,1.07-.19,2.21,2.21,0,0,0,.87-.59,2.78,2.78,0,0,0,.59-1.08,5.49,5.49,0,0,0,.22-1.63l1.29.49a5.91,5.91,0,0,1-.54,2.59,4.22,4.22,0,0,1-1.58,1.76A4.71,4.71,0,0,1,29,111.51Zm3.58-.29V108.1h-.25v-7.68h2.11v10.8Z"/><path class="cls-4" d="M36,102.1v-1.68h7.38v1.68Zm7.38,9.12a9.17,9.17,0,0,1-2,.17,4.55,4.55,0,0,1-1.75-.38,2.36,2.36,0,0,1-1.17-1.1,3.27,3.27,0,0,1-.37-1.37c0-.46,0-1,0-1.57V97.42h2.11v9.45c0,.43,0,.81,0,1.13a1.79,1.79,0,0,0,.2.81,1.43,1.43,0,0,0,1.15.7,7.41,7.41,0,0,0,1.85-.06Zm-.13-9.12v-1.68h7.38v1.68Zm7.38,9.12a9.17,9.17,0,0,1-2,.17,4.55,4.55,0,0,1-1.75-.38,2.36,2.36,0,0,1-1.17-1.1,3.27,3.27,0,0,1-.37-1.37c0-.46,0-1,0-1.57V97.42h2.11v9.45c0,.43,0,.81,0,1.13a1.79,1.79,0,0,0,.2.81,1.43,1.43,0,0,0,1.15.7,7.41,7.41,0,0,0,1.85-.06Z"/><path class="cls-4" d="M57.71,111.52a5.52,5.52,0,0,1-2.82-.71,4.85,4.85,0,0,1-1.89-2,6.12,6.12,0,0,1-.68-2.93,6.71,6.71,0,0,1,.67-3.07,4.81,4.81,0,0,1,1.85-2,5.36,5.36,0,0,1,2.77-.71,5,5,0,0,1,2.81.76,4.57,4.57,0,0,1,1.74,2.18,7.64,7.64,0,0,1,.45,3.35H60.52v-.76a4.63,4.63,0,0,0-.71-2.78,2.51,2.51,0,0,0-2.12-.9,2.85,2.85,0,0,0-2.36,1,4.53,4.53,0,0,0-.79,2.86,4.29,4.29,0,0,0,.79,2.75,2.78,2.78,0,0,0,2.28,1,3.13,3.13,0,0,0,1.7-.45,2.88,2.88,0,0,0,1.11-1.27l2,.65a4.77,4.77,0,0,1-1.91,2.24A5.28,5.28,0,0,1,57.71,111.52Zm-3.85-5.11v-1.63h7.71v1.63Z"/><path class="cls-4" d="M64.85,111.22v-10.8h1.86V103l-.26-.34a4.42,4.42,0,0,1,.52-1,3.1,3.1,0,0,1,.74-.71,3.33,3.33,0,0,1,.92-.47,4.58,4.58,0,0,1,1-.2,4.25,4.25,0,0,1,1,.06v2a3.41,3.41,0,0,0-1.17-.08,2.66,2.66,0,0,0-2,1.21,3.31,3.31,0,0,0-.43,1,6,6,0,0,0-.13,1.22v5.45Z"/><path class="cls-4" d="M162.22,114.52a7,7,0,0,1-2.8-.54,5.15,5.15,0,0,1-2-1.53,4.93,4.93,0,0,1-1-2.36l2.18-.33a3.34,3.34,0,0,0,1.38,2,4.15,4.15,0,0,0,2.45.74,4.28,4.28,0,0,0,1.59-.28,2.77,2.77,0,0,0,1.18-.79,1.79,1.79,0,0,0,.45-1.23,1.67,1.67,0,0,0-.14-.69,1.64,1.64,0,0,0-.37-.53,2.39,2.39,0,0,0-.57-.39,4.82,4.82,0,0,0-.73-.28l-3.69-1.09a8.25,8.25,0,0,1-1.1-.42,3.88,3.88,0,0,1-1-.67,3,3,0,0,1-.75-1,3.36,3.36,0,0,1-.29-1.49,3.67,3.67,0,0,1,.68-2.26,4.28,4.28,0,0,1,1.86-1.4,7,7,0,0,1,2.62-.47,6.75,6.75,0,0,1,2.61.52,5,5,0,0,1,1.92,1.43,5.42,5.42,0,0,1,1.06,2.27l-2.25.38a3,3,0,0,0-.63-1.4,3.33,3.33,0,0,0-1.2-.9,4,4,0,0,0-1.54-.32,3.85,3.85,0,0,0-1.47.24,2.58,2.58,0,0,0-1.06.73,1.63,1.63,0,0,0-.39,1.08,1.37,1.37,0,0,0,.34,1,2.51,2.51,0,0,0,.87.58,7,7,0,0,0,1,.36l2.66.75c.33.09.71.22,1.13.37a5.66,5.66,0,0,1,1.23.66,3.33,3.33,0,0,1,1,1.11,3.68,3.68,0,0,1,.38,1.75,4,4,0,0,1-.43,1.91,4.11,4.11,0,0,1-1.21,1.38,5.62,5.62,0,0,1-1.76.84A7.68,7.68,0,0,1,162.22,114.52Z"/><path class="cls-4" d="M172.17,114.22l-3.3-10.81h2.06l2.27,7.41,2.27-7.41h1.8l2.29,7.41,2.25-7.41h2.07l-3.3,10.8h-1.69l-2.51-7.82-2.53,7.82Z"/><path class="cls-4" d="M185.87,101.65v-2H188v2Zm0,12.57v-10.8H188v10.8Z"/><path class="cls-4" d="M190.16,105.1v-1.68h6.61v1.68Zm1.79,9.12V103c0-.27,0-.57,0-.88a4.28,4.28,0,0,1,.18-.92,2.4,2.4,0,0,1,.48-.83,2.49,2.49,0,0,1,.91-.64,3.09,3.09,0,0,1,1-.22l.89,0h1.36v1.72h-1.25a1.51,1.51,0,0,0-1.11.36,1.43,1.43,0,0,0-.36,1v11.58Z"/><path class="cls-4" d="M197.18,105.1v-1.68h7.38v1.68Zm7.38,9.12a9.17,9.17,0,0,1-2,.17,4.55,4.55,0,0,1-1.75-.38,2.36,2.36,0,0,1-1.17-1.1,3.27,3.27,0,0,1-.37-1.37c0-.46,0-1,0-1.57v-9.55h2.11v9.45c0,.43,0,.81,0,1.13a1.79,1.79,0,0,0,.2.81,1.43,1.43,0,0,0,1.15.7,7.41,7.41,0,0,0,1.85-.06Z"/><path class="cls-2" d="M355.64,50.46V38.55a3,3,0,0,0-3-3h-45.7a3,3,0,0,0-3,3V50.46a11.11,11.11,0,0,1-4.34-8.67,11.57,11.57,0,0,1,7.52-10.51,3,3,0,0,0,1.79-3.56,10.56,10.56,0,0,1-.36-2.67c0-6.35,5.72-11.53,12.73-11.53A12.87,12.87,0,0,1,332.65,20a3,3,0,0,0,3.92,1.3A13.87,13.87,0,0,1,342.32,20c6.86,0,12.56,5.06,12.71,11.27a3,3,0,0,0,1,2.21,10.93,10.93,0,0,1,3.92,8.3A11,11,0,0,1,355.64,50.46Zm-6,13.19H309.93V41.57H349.6ZM366,41.81a17,17,0,0,0-5-12c-.9-9-8.86-15.87-18.68-15.87a19.46,19.46,0,0,0-5.8.88A19.11,19.11,0,0,0,321.23,7.5c-10.36,0-18.78,7.87-18.78,17.57,0,.56,0,1.14.08,1.71a17.38,17.38,0,0,0-9,15A17.46,17.46,0,0,0,303.9,57.52v9.15a3,3,0,0,0,3,3h19.83V74h-8.11a3,3,0,1,0,0,6h22.27a3,3,0,0,0,0-6H332.8V69.69h19.83a3,3,0,0,0,3-3V57.52A17.45,17.45,0,0,0,366,41.81Z"/><path d="M308.55,112.82a6.36,6.36,0,0,1-3.43-.88,5.71,5.71,0,0,1-2.19-2.44,8.94,8.94,0,0,1,0-7.26,5.76,5.76,0,0,1,2.19-2.44,6.36,6.36,0,0,1,3.43-.88,6.2,6.2,0,0,1,3.84,1.16,6,6,0,0,1,2.16,3.1l-2.25.62a4,4,0,0,0-1.32-2,3.84,3.84,0,0,0-2.43-.73,3.94,3.94,0,0,0-2.24.6,3.6,3.6,0,0,0-1.34,1.69,7.37,7.37,0,0,0,0,5.1,3.62,3.62,0,0,0,1.35,1.69,3.86,3.86,0,0,0,2.24.61A3.79,3.79,0,0,0,311,110a4,4,0,0,0,1.32-2l2.25.62a6,6,0,0,1-2.16,3.11A6.25,6.25,0,0,1,308.55,112.82Z"/><path d="M316.77,112.54V98.92H319v13.62Z"/><path d="M326.2,112.82a5,5,0,0,1-2.62-.68,4.63,4.63,0,0,1-1.73-1.86,5.91,5.91,0,0,1-.62-2.74,5.79,5.79,0,0,1,.63-2.76,4.68,4.68,0,0,1,1.75-1.86,5.47,5.47,0,0,1,5.23,0,4.76,4.76,0,0,1,1.74,1.87,5.89,5.89,0,0,1,.62,2.74,5.81,5.81,0,0,1-.63,2.75,4.66,4.66,0,0,1-1.74,1.86A5.09,5.09,0,0,1,326.2,112.82Zm0-2.09a2.32,2.32,0,0,0,2-.89,3.84,3.84,0,0,0,.65-2.3,3.72,3.72,0,0,0-.66-2.32,2.33,2.33,0,0,0-2-.87,2.57,2.57,0,0,0-1.47.4,2.4,2.4,0,0,0-.86,1.13,4.65,4.65,0,0,0-.28,1.66,3.74,3.74,0,0,0,.66,2.32A2.32,2.32,0,0,0,326.2,110.73Z"/><path d="M337,112.83a4.15,4.15,0,0,1-1.84-.37,3.28,3.28,0,0,1-1.15-.95,4.29,4.29,0,0,1-.63-1.22,6.61,6.61,0,0,1-.26-1.23c0-.38-.06-.7-.06-.94v-5.58h2.26v4.81a8.26,8.26,0,0,0,.07,1.05,3.66,3.66,0,0,0,.3,1.11,2,2,0,0,0,2,1.22,2.74,2.74,0,0,0,.84-.14,2,2,0,0,0,.75-.48,2.47,2.47,0,0,0,.55-.93,4.91,4.91,0,0,0,.2-1.5l1.32.56a5.33,5.33,0,0,1-.49,2.32,4,4,0,0,1-1.46,1.65A4.31,4.31,0,0,1,337,112.83Zm3.27-.29v-3.1H340v-6.9h2.24v10Z"/><path d="M348.84,112.82a4.14,4.14,0,0,1-2.41-.7,4.56,4.56,0,0,1-1.6-1.89,6.28,6.28,0,0,1-.56-2.69,6.2,6.2,0,0,1,.57-2.71,4.57,4.57,0,0,1,1.62-1.88,4.33,4.33,0,0,1,2.46-.69,4,4,0,0,1,2.39.69,4.25,4.25,0,0,1,1.47,1.88,7.54,7.54,0,0,1,0,5.4,4.2,4.2,0,0,1-1.49,1.89A4.12,4.12,0,0,1,348.84,112.82Zm.34-2a2.4,2.4,0,0,0,1.45-.41,2.35,2.35,0,0,0,.81-1.16,6,6,0,0,0,0-3.43,2.42,2.42,0,0,0-.8-1.15,2.25,2.25,0,0,0-1.39-.41,2.41,2.41,0,0,0-1.48.44,2.52,2.52,0,0,0-.86,1.18,5.06,5.06,0,0,0,0,3.32,2.56,2.56,0,0,0,.83,1.18A2.31,2.31,0,0,0,349.18,110.82Zm2.51,1.72v-7h-.28V99.2h2.25v13.34Z"/><path d="M286.57,135.05a6.48,6.48,0,0,1-3.43-.87,5.82,5.82,0,0,1-2.19-2.44,9.07,9.07,0,0,1,0-7.27,5.82,5.82,0,0,1,2.19-2.44,6.48,6.48,0,0,1,3.43-.87,6.19,6.19,0,0,1,3.84,1.15,6,6,0,0,1,2.16,3.11l-2.25.62a4,4,0,0,0-1.32-2,3.79,3.79,0,0,0-2.43-.74,3.94,3.94,0,0,0-2.24.6,3.72,3.72,0,0,0-1.34,1.69,6.87,6.87,0,0,0-.46,2.55,6.69,6.69,0,0,0,.45,2.56,3.67,3.67,0,0,0,1.35,1.69,3.94,3.94,0,0,0,2.24.6,3.84,3.84,0,0,0,2.43-.74,4,4,0,0,0,1.32-2l2.25.62a6,6,0,0,1-2.16,3.11A6.19,6.19,0,0,1,286.57,135.05Z"/><path d="M299,135.05a5,5,0,0,1-2.62-.67,4.62,4.62,0,0,1-1.74-1.87,5.89,5.89,0,0,1-.62-2.74,5.79,5.79,0,0,1,.63-2.76,4.61,4.61,0,0,1,1.76-1.85,4.9,4.9,0,0,1,2.59-.67,5,5,0,0,1,2.63.68A4.59,4.59,0,0,1,303.4,127a5.79,5.79,0,0,1,.62,2.74,5.93,5.93,0,0,1-.62,2.75,4.68,4.68,0,0,1-1.75,1.86A5,5,0,0,1,299,135.05Zm0-2.09a2.29,2.29,0,0,0,2-.89,3.82,3.82,0,0,0,.65-2.3,3.74,3.74,0,0,0-.66-2.32,2.31,2.31,0,0,0-2-.87,2.54,2.54,0,0,0-1.48.41,2.35,2.35,0,0,0-.85,1.12,4.48,4.48,0,0,0-.28,1.66,3.74,3.74,0,0,0,.66,2.32A2.29,2.29,0,0,0,299,133Z"/><path d="M306,134.77v-10h2v3.1h.27v6.9Zm6,0v-6.05a2.41,2.41,0,0,0-.51-1.63,1.77,1.77,0,0,0-1.39-.58,1.75,1.75,0,0,0-1.36.58,2.19,2.19,0,0,0-.52,1.52l-1-.66a3.24,3.24,0,0,1,.48-1.75,3.52,3.52,0,0,1,1.31-1.23,3.73,3.73,0,0,1,1.83-.45,3.43,3.43,0,0,1,1.88.48,3,3,0,0,1,1.13,1.29,4.43,4.43,0,0,1,.38,1.85v6.63Zm6,0V128.7a2.36,2.36,0,0,0-.51-1.61,1.73,1.73,0,0,0-1.38-.58,1.87,1.87,0,0,0-1,.25,1.67,1.67,0,0,0-.67.72,2.38,2.38,0,0,0-.25,1.13l-1-.58a3.46,3.46,0,0,1,.47-1.83,3.37,3.37,0,0,1,1.3-1.24,3.76,3.76,0,0,1,1.81-.44,3.22,3.22,0,0,1,2.54,1,3.82,3.82,0,0,1,.89,2.62v6.64Z"/><path d="M322.7,139.22V124.77h2v7H325v7.43Zm4.83-4.17a4.2,4.2,0,0,1-2.46-.69,4.28,4.28,0,0,1-1.49-1.9,7.51,7.51,0,0,1,0-5.39,4.23,4.23,0,0,1,1.47-1.89,4,4,0,0,1,2.39-.69,4.33,4.33,0,0,1,2.46.69,4.57,4.57,0,0,1,1.62,1.88,6.23,6.23,0,0,1,.57,2.71,6.36,6.36,0,0,1-.56,2.7,4.69,4.69,0,0,1-1.6,1.89A4.18,4.18,0,0,1,327.53,135.05Zm-.35-2a2.3,2.3,0,0,0,1.44-.43,2.54,2.54,0,0,0,.84-1.19,4.82,4.82,0,0,0,.27-1.66,4.61,4.61,0,0,0-.28-1.65,2.55,2.55,0,0,0-.86-1.19,2.41,2.41,0,0,0-1.48-.44,2.25,2.25,0,0,0-1.39.41,2.4,2.4,0,0,0-.79,1.15,5.82,5.82,0,0,0,0,3.44,2.42,2.42,0,0,0,.8,1.15A2.4,2.4,0,0,0,327.18,133.05Z"/><path d="M337.88,135.06a4,4,0,0,1-1.83-.37,3.27,3.27,0,0,1-1.15-.94,4.35,4.35,0,0,1-.63-1.23,5.94,5.94,0,0,1-.26-1.22c0-.39-.06-.7-.06-.94v-5.59h2.26v4.82a10.21,10.21,0,0,0,.06,1,3.59,3.59,0,0,0,.3,1.11,2.11,2.11,0,0,0,.71.88,2.14,2.14,0,0,0,1.26.34,2.69,2.69,0,0,0,.84-.14,1.88,1.88,0,0,0,.76-.48,2.43,2.43,0,0,0,.54-.93,4.54,4.54,0,0,0,.2-1.5l1.33.57a5.29,5.29,0,0,1-.5,2.31,3.91,3.91,0,0,1-1.46,1.66A4.31,4.31,0,0,1,337.88,135.06Zm3.27-.29v-3.1h-.27v-6.9h2.25v10Z"/><path d="M344.61,126.52v-1.75h7v1.75Zm7,8.25a9.2,9.2,0,0,1-1.94.17,4.56,4.56,0,0,1-1.7-.36,2.27,2.27,0,0,1-1.14-1,3,3,0,0,1-.36-1.32c0-.45,0-1,0-1.53V122h2.23v8.57c0,.4,0,.75,0,1.06a1.47,1.47,0,0,0,.19.74,1.31,1.31,0,0,0,1.07.62,6.91,6.91,0,0,0,1.66-.08Z"/><path d="M353.93,123.25v-2h2.23v2Zm0,11.52v-10h2.23v10Z"/><path d="M358.92,134.77v-10h2v3.1h.27v6.9Zm6.94,0V130a8,8,0,0,0-.07-1.05,3.66,3.66,0,0,0-.3-1.11,2.12,2.12,0,0,0-.7-.87,2.07,2.07,0,0,0-1.26-.35,2.75,2.75,0,0,0-.85.14,2,2,0,0,0-.75.48,2.33,2.33,0,0,0-.54.93,4.51,4.51,0,0,0-.21,1.5l-1.32-.56a5.33,5.33,0,0,1,.49-2.32,4,4,0,0,1,1.46-1.65,4.31,4.31,0,0,1,2.37-.62,4.15,4.15,0,0,1,1.84.37,3.39,3.39,0,0,1,1.15,1,4.29,4.29,0,0,1,.63,1.22,6.61,6.61,0,0,1,.26,1.23c0,.38.06.7.06.94v5.58Z"/><path d="M374.54,135.05a4.24,4.24,0,0,1-2.41-.69,4.67,4.67,0,0,1-1.59-1.89,6.7,6.7,0,0,1,0-5.41,4.57,4.57,0,0,1,1.62-1.88,4.38,4.38,0,0,1,2.46-.69,4,4,0,0,1,2.4.69,4.37,4.37,0,0,1,1.47,1.89,7.51,7.51,0,0,1,0,5.39,4.3,4.3,0,0,1-1.5,1.9A4.17,4.17,0,0,1,374.54,135.05Zm.19,4.45a5,5,0,0,1-1.59-.26,4.4,4.4,0,0,1-1.38-.75,3.89,3.89,0,0,1-1-1.17l2.06-1a1.77,1.77,0,0,0,.81.81,2.39,2.39,0,0,0,1.11.27,2.94,2.94,0,0,0,1.25-.25,1.85,1.85,0,0,0,.84-.72,2.13,2.13,0,0,0,.29-1.19v-2.84h.27v-7.61h2v10.49q0,.38,0,.72c0,.23-.06.46-.11.68a3.18,3.18,0,0,1-.85,1.6,3.83,3.83,0,0,1-1.56.93A6.47,6.47,0,0,1,374.73,139.5Zm.15-6.45a2.4,2.4,0,0,0,1.45-.41,2.37,2.37,0,0,0,.81-1.15,6,6,0,0,0,0-3.44,2.47,2.47,0,0,0-.79-1.15,2.27,2.27,0,0,0-1.39-.41,2.44,2.44,0,0,0-1.49.44,2.62,2.62,0,0,0-.86,1.19,5,5,0,0,0,0,3.31,2.54,2.54,0,0,0,.84,1.19A2.25,2.25,0,0,0,374.88,133.05Z"/><path d="M6.46,277.54V264.2h4.92q.49,0,1,.06A5.16,5.16,0,0,1,15,265.4a5.72,5.72,0,0,1,1.66,2.35,8.82,8.82,0,0,1,0,6.24A5.72,5.72,0,0,1,15,276.34a5.08,5.08,0,0,1-2.68,1.13,9.51,9.51,0,0,1-1,.06H6.46Zm2.27-2.1h2l.71,0a5.38,5.38,0,0,0,.76-.08,2.65,2.65,0,0,0,1.54-.85,4.21,4.21,0,0,0,.87-1.62,6.91,6.91,0,0,0,.29-2,7.13,7.13,0,0,0-.29-2,4,4,0,0,0-.89-1.6,2.65,2.65,0,0,0-1.52-.82,4.17,4.17,0,0,0-.76-.09l-.71,0h-2Z"/><path d="M24,277.82a5.29,5.29,0,0,1-2.67-.66,4.74,4.74,0,0,1-1.79-1.82,5.49,5.49,0,0,1-.64-2.69,6.11,6.11,0,0,1,.63-2.85,4.67,4.67,0,0,1,1.75-1.88,5,5,0,0,1,2.59-.66,4.63,4.63,0,0,1,2.65.73A4.26,4.26,0,0,1,28.12,270a6.84,6.84,0,0,1,.4,3.12H26.31v-.82a4,4,0,0,0-.58-2.38,2.08,2.08,0,0,0-1.78-.75,2.43,2.43,0,0,0-2,.85,3.9,3.9,0,0,0-.67,2.48,3.63,3.63,0,0,0,.67,2.35,2.32,2.32,0,0,0,1.94.84,2.68,2.68,0,0,0,1.42-.37,2.42,2.42,0,0,0,.93-1.06l2.2.67a4.45,4.45,0,0,1-1.77,2.1A4.89,4.89,0,0,1,24,277.82Zm-3.44-4.66v-1.69h6.88v1.69Z"/><path d="M32.93,277.54l-3.63-10h2.23l2.52,7.25,2.51-7.25h2.25l-3.64,10Z"/><path d="M46.11,277.82a6.35,6.35,0,0,1-3.42-.88,5.64,5.64,0,0,1-2.19-2.44,8.94,8.94,0,0,1,0-7.26,5.7,5.7,0,0,1,2.19-2.44,6.35,6.35,0,0,1,3.42-.88,6.42,6.42,0,0,1,3.44.88,5.76,5.76,0,0,1,2.19,2.44,8.94,8.94,0,0,1,0,7.26,5.71,5.71,0,0,1-2.19,2.44A6.42,6.42,0,0,1,46.11,277.82Zm0-2.1a3.91,3.91,0,0,0,2.24-.6,3.54,3.54,0,0,0,1.34-1.69,6.69,6.69,0,0,0,.45-2.56,6.59,6.59,0,0,0-.45-2.54,3.57,3.57,0,0,0-1.34-1.68,4,4,0,0,0-2.24-.62,3.82,3.82,0,0,0-2.23.59,3.67,3.67,0,0,0-1.34,1.69,6.73,6.73,0,0,0-.45,2.56,6.55,6.55,0,0,0,.45,2.54,3.64,3.64,0,0,0,1.34,1.69A4.07,4.07,0,0,0,46.11,275.72Z"/><path d="M54.34,282V267.54h2v7h.28V282Zm4.83-4.17a4.13,4.13,0,0,1-2.46-.7,4.2,4.2,0,0,1-1.49-1.89,7.54,7.54,0,0,1,0-5.4A4.25,4.25,0,0,1,56.69,268a4,4,0,0,1,2.39-.69,4.33,4.33,0,0,1,2.46.69,4.57,4.57,0,0,1,1.62,1.88,6.73,6.73,0,0,1,0,5.4,4.62,4.62,0,0,1-1.59,1.89A4.17,4.17,0,0,1,59.17,277.82Zm-.35-2a2.31,2.31,0,0,0,1.44-.44,2.51,2.51,0,0,0,.84-1.18,4.86,4.86,0,0,0,.27-1.66,4.63,4.63,0,0,0-.28-1.66,2.52,2.52,0,0,0-.86-1.18,2.41,2.41,0,0,0-1.48-.44,2.25,2.25,0,0,0-1.39.41,2.4,2.4,0,0,0-.79,1.15,5.79,5.79,0,0,0,0,3.43,2.15,2.15,0,0,0,2.25,1.57Z"/><path d="M69.4,277.82a5.08,5.08,0,0,1-3-.83A3.49,3.49,0,0,1,65,274.64l2.28-.35a2,2,0,0,0,.78,1.17,2.6,2.6,0,0,0,1.52.42,2.07,2.07,0,0,0,1.25-.32,1,1,0,0,0,.44-.87.92.92,0,0,0-.16-.55,1.64,1.64,0,0,0-.71-.41c-.37-.13-.93-.29-1.68-.49a9.55,9.55,0,0,1-2-.72,2.59,2.59,0,0,1-1.07-.91,2.45,2.45,0,0,1-.32-1.28,2.75,2.75,0,0,1,.49-1.63,3.15,3.15,0,0,1,1.37-1.07,5.29,5.29,0,0,1,2.08-.37,5.62,5.62,0,0,1,2.07.36,3.55,3.55,0,0,1,1.46,1,3.07,3.07,0,0,1,.68,1.56l-2.28.41a1.42,1.42,0,0,0-.58-1,2.35,2.35,0,0,0-1.32-.42,2.25,2.25,0,0,0-1.27.24.88.88,0,0,0-.48.79.68.68,0,0,0,.2.49,2,2,0,0,0,.78.41c.39.14,1,.3,1.76.5a8.92,8.92,0,0,1,1.91.7,2.34,2.34,0,0,1,1.36,2.27,2.87,2.87,0,0,1-1.1,2.37A4.84,4.84,0,0,1,69.4,277.82Z"/><path class="cls-2" d="M1,200.65c.13-.62.24-1.26.38-1.88a19.6,19.6,0,0,1,6.84-11.05A17.44,17.44,0,0,1,16,183.93a19.27,19.27,0,0,1,17.91,5.27,34.57,34.57,0,0,1,2.84,3.29,3.78,3.78,0,0,1-1,5.45,3.84,3.84,0,0,1-5.26-1.21,13,13,0,0,0-6.13-4.88A11.07,11.07,0,0,0,12,194.59a11.91,11.91,0,0,0-3.25,6.12,10.2,10.2,0,0,0,.93,6,11.81,11.81,0,0,0,4.8,5.64A9.23,9.23,0,0,0,23,213a18.85,18.85,0,0,0,6-4.12,93.82,93.82,0,0,0,7.73-8.82,87.11,87.11,0,0,1,8.84-9.77c3.33-3,7-5.46,11.52-6.35a19.49,19.49,0,0,1,14.08,2,14.75,14.75,0,0,1,5.23,5.38,20.65,20.65,0,0,1,2.56,8.76,3.41,3.41,0,0,0,.1.54v3.12c-.25,1.21-.44,2.44-.76,3.64A19.41,19.41,0,0,1,73,216.65a15.3,15.3,0,0,1-11.12,4.2,21.43,21.43,0,0,1-11.71-3.45,27.42,27.42,0,0,1-6.12-5.61A4.56,4.56,0,0,1,42.76,209a3.82,3.82,0,0,1,2.63-3.75,3.92,3.92,0,0,1,4.32,1.44,19.87,19.87,0,0,0,4.21,4,13.73,13.73,0,0,0,9.8,2.39,7.26,7.26,0,0,0,5.44-3.66,14.42,14.42,0,0,0,1.42-12.61A8,8,0,0,0,64,191.3a13.71,13.71,0,0,0-11,2.62,46.18,46.18,0,0,0-8.23,8.18c-2.49,3-4.9,6-7.44,8.93a34,34,0,0,1-9.59,8.11,17.36,17.36,0,0,1-22.3-4.79,20.62,20.62,0,0,1-4.34-10.11c0-.2-.09-.4-.14-.6Z"/></g></g></svg>