<svg xmlns="http://www.w3.org/2000/svg" viewBox="0 0 28 28"><defs><style>.cls-1{fill:none;}.cls-2{fill:#0091ff;}</style></defs><g id="Layer_2" data-name="Layer 2"><g id="Layer_1-2" data-name="Layer 1"><rect class="cls-1" width="28" height="28"/><rect class="cls-1" width="28" height="28"/><path class="cls-2" d="M19.18,27.81c-.52-.12-1.06-.2-1.56-.37a6.14,6.14,0,0,1-3.56-3.15.4.4,0,0,0-.42-.26H3c-.77,0-1-.28-1-1.06V16a4.59,4.59,0,0,1,3.44-4.68l1-.29a.83.83,0,0,1,1.15.58C8,13,8.48,14.38,9,15.76a1.36,1.36,0,0,0,.2.4c.13-.55.23-1.11.4-1.64A1.55,1.55,0,0,0,9.34,13a7.75,7.75,0,0,1-.46-.79.67.67,0,0,1,.61-1.06h1.75a.68.68,0,0,1,.6,1.08c-.25.44-.51.88-.76,1.33a.45.45,0,0,0-.07.29c.16.76.34,1.51.52,2.26,0,0,0,0,.05.1l.11-.26c.52-1.42,1-2.84,1.55-4.25a.85.85,0,0,1,1.22-.61,9,9,0,0,1,2.16.82,4.51,4.51,0,0,1,2.08,3,2,2,0,0,0,.05.24.41.41,0,0,0,0,.08c.29,0,.57,0,.86,0A6.34,6.34,0,0,1,21,27.69l-.72.12Zm.56-1.63A4.71,4.71,0,1,0,15,21.49,4.71,4.71,0,0,0,19.74,26.18ZM3.59,22.38H9.68L6.16,12.8,5.6,13a2.86,2.86,0,0,0-2,2.69c0,2.2,0,4.4,0,6.6C3.57,22.3,3.59,22.33,3.59,22.38Zm11-9.57-3.52,9.57h2.38a2,2,0,0,0,0-.26,6.38,6.38,0,0,1,3.37-6.27c.42-.22.42-.22.31-.69A3,3,0,0,0,14.57,12.81Z"/><path class="cls-2" d="M10.36,9.43A4.62,4.62,0,1,1,15,4.83,4.63,4.63,0,0,1,10.36,9.43Zm0-1.63a3,3,0,1,0-3-3A3,3,0,0,0,10.36,7.8Z"/><path class="cls-2" d="M19,21.94c.14-.16.24-.29.36-.41.72-.73,1.44-1.46,2.17-2.18a.82.82,0,1,1,1.16,1.15l-3.09,3.09a.81.81,0,0,1-1.24,0L16.82,22.1a.83.83,0,0,1-.05-1.2.8.8,0,0,1,1.2,0C18.29,21.25,18.59,21.58,19,21.94Z"/></g></g></svg>