<svg xmlns="http://www.w3.org/2000/svg" viewBox="0 0 28 28"><defs><style>.cls-1{fill:none;}.cls-2{fill:#0091ff;}</style></defs><g id="Layer_2" data-name="Layer 2"><g id="Layer_1-2" data-name="Layer 1"><rect class="cls-1" width="28" height="28"/><path class="cls-2" d="M.09,8.46V6.89L2.06,1A1.08,1.08,0,0,1,3.29.1H24.71A1.08,1.08,0,0,1,25.93,1c.55,1.64,1.08,3.3,1.65,4.93A5.52,5.52,0,0,1,27.9,8a4.9,4.9,0,0,1-1.76,3.75.6.6,0,0,0-.23.51V24.62c0,.16,0,.31,0,.46a3,3,0,0,1-2.1,2.69l-.46.13H4.65a6.37,6.37,0,0,1-1-.38,2.94,2.94,0,0,1-1.54-2.76V12.28a.51.51,0,0,0-.2-.46A4.24,4.24,0,0,1,.51,10C.33,9.48.23,9,.09,8.46Zm4,4.54V24.81a1,1,0,0,0,1.09,1.1c1.56,0,3.11,0,4.67,0l.21,0V17.17c0-.81.36-1.18,1.17-1.18h5.6c.8,0,1.17.37,1.17,1.18V25.9h4.8a1,1,0,0,0,1.16-1.17V13.21c0-.1,0-.19,0-.3A5,5,0,0,1,20,12l-.1.06a4.94,4.94,0,0,1-5.71,0,.27.27,0,0,0-.33,0,4.94,4.94,0,0,1-5.6,0,.29.29,0,0,0-.38,0,4.17,4.17,0,0,1-2,.8C5.29,13,4.7,13,4.06,13Zm-2-4.95c0,.08,0,.12,0,.17a3,3,0,0,0,5.06,1.92,1.07,1.07,0,0,1,1.75,0,3,3,0,0,0,4.24,0,1.06,1.06,0,0,1,1.7,0,3,3,0,0,0,4.28,0,1,1,0,0,1,1.68,0,3,3,0,0,0,4.58-.36,2.73,2.73,0,0,0,.52-1.69ZM12,18v7.91H16V18ZM13,2.11H9.05V6H13Zm6,3.94V2.11H15V6.05ZM2.47,6H7V2.09c-1,0-2.06,0-3.08,0a.31.31,0,0,0-.21.18c-.17.48-.33,1-.49,1.46Zm23,0V6c-.41-1.23-.83-2.46-1.23-3.7-.05-.15-.14-.17-.28-.17H21.17l-.2,0V6.05Z"/></g></g></svg>