<svg xmlns="http://www.w3.org/2000/svg" viewBox="0 0 28 28"><defs><style>.cls-1{fill:none;}.cls-2{fill:#0091ff;}</style></defs><g id="Layer_2" data-name="Layer 2"><g id="Layer_1-2" data-name="Layer 1"><rect class="cls-1" width="28" height="28"/><path class="cls-2" d="M6.48,8.6A7.55,7.55,0,0,1,13.66.52,7.27,7.27,0,0,1,19.39,2.8a7.47,7.47,0,0,1,2.12,5.8H23a19.41,19.41,0,0,1,2.16.06,2.62,2.62,0,0,1,2.25,2.58c0,1.14,0,2.28,0,3.42V24.72A2.67,2.67,0,0,1,25.4,27.4a3.05,3.05,0,0,1-.74.08H3.35a2.69,2.69,0,0,1-2.81-2.8V11.41A2.7,2.7,0,0,1,3.35,8.6H6.48ZM14,25.69H24.63a.92.92,0,0,0,1-1V11.41a.91.91,0,0,0-1-1H21.43a.33.33,0,0,0-.38.26,7.44,7.44,0,0,1-7.86,4.89,7.34,7.34,0,0,1-6.25-4.91.32.32,0,0,0-.36-.24H3.44c-.78,0-1.11.33-1.11,1.11V24.58c0,.78.33,1.11,1.11,1.11ZM18.77,11.2a5.72,5.72,0,1,0-9.53,0A7,7,0,0,1,18.77,11.2Zm-1.24,1.35a5.09,5.09,0,0,0-7.06,0A5.63,5.63,0,0,0,17.53,12.55Z"/><path class="cls-2" d="M14,16.4h6a2.44,2.44,0,0,1,2.5,2.33,2.47,2.47,0,0,1-2.22,2.58H8a2.46,2.46,0,0,1-.2-4.91c2.06,0,4.11,0,6.17,0Zm0,3.12h5.8c.6,0,.92-.23.91-.67s-.32-.65-.9-.65H7.87a.64.64,0,0,0-.56.78c.07.35.32.53.75.53Z"/><path class="cls-2" d="M14,22.37h2.91a.9.9,0,0,1,1,.9.91.91,0,0,1-1,.9H11a.91.91,0,0,1-.95-.78.88.88,0,0,1,.65-1,1.47,1.47,0,0,1,.36,0Z"/><path class="cls-2" d="M14,3.31A2.7,2.7,0,1,1,11.3,6,2.69,2.69,0,0,1,14,3.31ZM14.9,6a.9.9,0,1,0-.9.9A.9.9,0,0,0,14.9,6Z"/></g></g></svg>