<svg xmlns="http://www.w3.org/2000/svg" viewBox="0 0 40 40"><defs><style>.cls-1{fill:none;}.cls-2{fill:#fff;}</style></defs><g id="Layer_2" data-name="Layer 2"><g id="Layer_1-2" data-name="Layer 1"><rect class="cls-1" width="40" height="40"/><path class="cls-2" d="M31.79,29.57a1.5,1.5,0,0,0-1.63-.81,1.49,1.49,0,0,0-1.22,1.44c0,.94,0,1.89,0,2.83a3,3,0,0,1-3.08,3.08H11.36A3,3,0,0,1,8.26,33q0-13.18,0-26.37a3,3,0,0,1,3.13-3.12q7.2,0,14.41,0a3,3,0,0,1,3.13,3.15c0,.7,0,1.41,0,2.11a1.51,1.51,0,1,0,3,0c0-.72,0-1.44,0-2.15A6,6,0,0,0,25.83.5q-7.24,0-14.49,0a6.7,6.7,0,0,0-2,.34A6,6,0,0,0,5.24,6.68V30.94c0,.78,0,1.56,0,2.34A5.87,5.87,0,0,0,8.64,38.5a11.79,11.79,0,0,0,2,.63h16a1.18,1.18,0,0,1,.2-.07,5.93,5.93,0,0,0,5.07-5.15,37.75,37.75,0,0,0,.07-3.84A1.31,1.31,0,0,0,31.79,29.57ZM16.19,19.21c1.12-.94,2.24-1.86,3.35-2.81a1.49,1.49,0,0,0,.22-2.12A1.45,1.45,0,0,0,17.68,14c-1.35,1.1-2.68,2.21-4,3.35a3.34,3.34,0,0,0-1.07,2.51,3.54,3.54,0,0,0,1.07,2.52c.31.3.66.58,1,.86,1,.8,1.9,1.6,2.86,2.39a1.5,1.5,0,0,0,2.31-.3,1.48,1.48,0,0,0-.36-2l-3.55-3c-.42-.35-.41-.63,0-1Zm20.64-1.85c-.31-.3-.64-.57-1-.84-.92-.8-1.84-1.6-2.78-2.38a1.51,1.51,0,1,0-1.94,2.3l3.35,2.87c.55.47.55.7,0,1.17-1.15,1-2.3,2-3.44,2.95A1.5,1.5,0,0,0,33,25.76c1.32-1.1,2.63-2.22,3.91-3.37a3.31,3.31,0,0,0,1.05-2.48A3.51,3.51,0,0,0,36.83,17.36Zm-10-5a1.59,1.59,0,0,0-1.18,1.28q-1.11,3.9-2.21,7.78c-.39,1.39-.81,2.77-1.16,4.17a1.43,1.43,0,0,0,1.4,1.8,1.59,1.59,0,0,0,1.58-1.21c.68-2.37,1.36-4.75,2-7.12.46-1.65.95-3.28,1.38-4.93A1.5,1.5,0,0,0,26.82,12.33ZM21.61,7.4a1.48,1.48,0,0,0-1.45-1.53c-1.05,0-2.09,0-3.13,0a1.47,1.47,0,0,0-1.45,1.53,1.5,1.5,0,0,0,1.51,1.47h3A1.5,1.5,0,0,0,21.61,7.4Zm-3,26.38a1.51,1.51,0,1,0-1.49-1.53A1.51,1.51,0,0,0,18.58,33.78Z"/></g></g></svg>