<svg xmlns="http://www.w3.org/2000/svg" viewBox="0 0 40 40"><defs><style>.cls-1{fill:none;}.cls-2{fill:#fff;}</style></defs><g id="Layer_2" data-name="Layer 2"><g id="Layer_1-2" data-name="Layer 1"><rect class="cls-1" width="40" height="40"/><path class="cls-2" d="M39.41,37.14v2.27H.59V37.14h2.6V9c0-.28,0-.42.37-.46.75-.1,1.49-.25,2.26-.38V.59H18.56a1.13,1.13,0,0,0,0,.18v5a1.32,1.32,0,0,0,0,.26l2.56-.42V11H36.81v26.1Zm-23.5,0h2.93V8.29L5.49,10.52v26.6H8.42V31.94h7.49Zm5.24,0H34.5V13.34H21.15ZM8.1,7.78l8.13-1.36V2.88H8.1ZM10.72,34.2v2.92h2.89V34.2Z"/><path class="cls-2" d="M13.66,11.05h2.23v2.23H13.66Z"/><path class="cls-2" d="M8.43,26.7h2.22v2.24H8.43Z"/><path class="cls-2" d="M13.66,26.71h2.23v2.22H13.66Z"/><path class="cls-2" d="M10.67,18.51H8.44V16.29h2.23Z"/><path class="cls-2" d="M13.66,16.28h2.23V18.5H13.66Z"/><path class="cls-2" d="M10.66,21.5v2.22H8.44V21.5Z"/><path class="cls-2" d="M13.65,23.71V21.5h2.24v2.21Z"/><path class="cls-2" d="M24.11,26.71h2.23v2.23H24.11Z"/><path class="cls-2" d="M31.57,26.72v2.22H29.33V26.72Z"/><path class="cls-2" d="M26.33,34.18H24.12V31.94h2.21Z"/><path class="cls-2" d="M31.56,34.18H29.34V31.94h2.22Z"/><path class="cls-2" d="M24.11,18.5V16.28h2.23V18.5Z"/><path class="cls-2" d="M29.33,18.5V16.28h2.23V18.5Z"/><path class="cls-2" d="M24.11,21.49h2.23v2.23H24.11Z"/><path class="cls-2" d="M31.57,21.5v2.22H29.34V21.5Z"/></g></g></svg>