<svg xmlns="http://www.w3.org/2000/svg" width="335" height="287.479" viewBox="0 0 335 287.479">
  <g id="Group_1586" data-name="Group 1586" transform="translate(-16782 -4626.521)">
    <rect id="Rectangle_2853" data-name="Rectangle 2853" width="335" height="285" transform="translate(16782 4629)" fill="none"/>
    <g id="Prototyping_process-pana" data-name="Prototyping process-pana" transform="translate(16777.535 4593.721)">
      <g id="freepik--background-complete--inject-29" transform="translate(106.878 32.8)">
        <rect id="Rectangle_2436" data-name="Rectangle 2436" width="51.377" height="53.562" transform="translate(145.324 11.115)" fill="#e0e0e0"/>
        <rect id="Rectangle_2437" data-name="Rectangle 2437" width="51.377" height="53.562" transform="translate(141.844 11.115)" fill="#fafafa"/>
        <path id="Path_29715" data-name="Path 29715" d="M418.99,103.518H367.58V49.93h51.41Zm-51.377-.032h51.345V49.975H367.612Z" transform="translate(-225.749 -38.827)" fill="#e0e0e0"/>
        <rect id="Rectangle_2438" data-name="Rectangle 2438" width="37.566" height="39.16" transform="translate(148.753 18.316)" fill="#fafafa"/>
        <path id="Path_29716" data-name="Path 29716" d="M374.537,121.88a6.139,6.139,0,0,1-.927,1.076c-.6.648-1.445,1.491-2.385,2.424s-1.815,1.756-2.456,2.346a6.04,6.04,0,0,1-1.089.907,6.063,6.063,0,0,1,.927-1.076c.6-.648,1.445-1.491,2.392-2.424s1.815-1.763,2.456-2.353A5.9,5.9,0,0,1,374.537,121.88Z" transform="translate(-225.785 -64.144)" fill="#e0e0e0"/>
        <path id="Path_29717" data-name="Path 29717" d="M436.22,121.73a6.521,6.521,0,0,1,1.076.927c.648.6,1.491,1.445,2.424,2.392s1.756,1.808,2.346,2.45a6.039,6.039,0,0,1,.907,1.089,6.061,6.061,0,0,1-1.076-.927c-.648-.6-1.491-1.445-2.424-2.392s-1.763-1.815-2.353-2.456a5.9,5.9,0,0,1-.9-1.082Z" transform="translate(-249.902 -64.092)" fill="#e0e0e0"/>
        <path id="Path_29718" data-name="Path 29718" d="M436.06,57.554a6.522,6.522,0,0,1,.927-1.076c.6-.648,1.445-1.491,2.392-2.424s1.828-1.756,2.476-2.346a6.038,6.038,0,0,1,1.089-.907,6.061,6.061,0,0,1-.927,1.076c-.6.648-1.439,1.491-2.392,2.424s-1.815,1.763-2.456,2.353a5.905,5.905,0,0,1-1.108.9Z" transform="translate(-249.845 -39.134)" fill="#e0e0e0"/>
        <path id="Path_29719" data-name="Path 29719" d="M374.434,57.647a6.521,6.521,0,0,1-1.076-.927c-.648-.6-1.491-1.445-2.424-2.392s-1.756-1.808-2.346-2.45a6.041,6.041,0,0,1-.907-1.089,6.061,6.061,0,0,1,1.076.927c.648.6,1.491,1.445,2.424,2.392s1.763,1.815,2.353,2.456a5.581,5.581,0,0,1,.9,1.082Z" transform="translate(-225.785 -39.13)" fill="#e0e0e0"/>
        <path id="Path_29720" data-name="Path 29720" d="M415.631,100.129V97.277c0-1.854,0-4.537-.039-7.979,0-6.864-.045-16.631-.071-28.33l.143.143H378.207l.169-.169V100.1l-.143-.143,27.124.071,7.622.039h2.534a.8.8,0,0,1,.181,0h-2.638l-7.59.039-27.222.071H378V60.8h37.78v.143c0,11.738-.052,21.537-.071,28.421,0,3.409,0,6.1-.039,7.946v2.618a.714.714,0,0,1-.039.2Z" transform="translate(-229.416 -42.652)" fill="#e0e0e0"/>
        <rect id="Rectangle_2439" data-name="Rectangle 2439" width="12.535" height="12.535" transform="translate(161.268 31.629)" fill="#ebebeb"/>
        <rect id="Rectangle_2440" data-name="Rectangle 2440" width="37.371" height="38.959" transform="translate(83.564 0.013)" fill="#e0e0e0"/>
        <rect id="Rectangle_2441" data-name="Rectangle 2441" width="37.371" height="38.959" transform="translate(81.036 0.013)" fill="#fafafa"/>
        <path id="Path_29721" data-name="Path 29721" d="M311.157,71.818h-37.4V32.8h37.4Zm-37.371,0h37.352V32.826H273.786Z" transform="translate(-192.737 -32.8)" fill="#e0e0e0"/>
        <rect id="Rectangle_2442" data-name="Rectangle 2442" width="27.325" height="28.485" transform="translate(86.059 5.25)" fill="#fafafa"/>
        <path id="Path_29722" data-name="Path 29722" d="M278.838,85.14a4.659,4.659,0,0,1-.648.784c-.434.46-1.05,1.089-1.737,1.763s-1.3,1.3-1.782,1.711a4.311,4.311,0,0,1-.791.648,4.181,4.181,0,0,1,.648-.778c.441-.46,1.05-1.089,1.743-1.769s1.3-1.3,1.789-1.711A4.433,4.433,0,0,1,278.838,85.14Z" transform="translate(-192.779 -51.217)" fill="#e0e0e0"/>
        <path id="Path_29723" data-name="Path 29723" d="M323.69,85a3.994,3.994,0,0,1,.784.648c.46.434,1.082,1.05,1.763,1.737s1.3,1.3,1.711,1.782a4.07,4.07,0,0,1,.648.791,4.42,4.42,0,0,1-.778-.648c-.46-.434-1.089-1.05-1.769-1.737s-1.3-1.3-1.711-1.789A4.434,4.434,0,0,1,323.69,85Z" transform="translate(-210.306 -51.168)" fill="#e0e0e0"/>
        <path id="Path_29724" data-name="Path 29724" d="M323.58,38.34a3.993,3.993,0,0,1,.648-.784c.434-.46,1.05-1.082,1.737-1.763s1.3-1.3,1.782-1.7a3.985,3.985,0,0,1,.791-.648,4.317,4.317,0,0,1-.648.784c-.441.46-1.056,1.082-1.743,1.763s-1.3,1.3-1.789,1.711a4.434,4.434,0,0,1-.778.642Z" transform="translate(-210.267 -33.025)" fill="#e0e0e0"/>
        <path id="Path_29725" data-name="Path 29725" d="M278.756,38.435a4.659,4.659,0,0,1-.784-.648c-.46-.441-1.089-1.05-1.763-1.737s-1.3-1.3-1.711-1.789a4.07,4.07,0,0,1-.648-.791,4.712,4.712,0,0,1,.778.648c.46.434,1.089,1.05,1.763,1.737s1.3,1.3,1.718,1.789A4.4,4.4,0,0,1,278.756,38.435Z" transform="translate(-192.769 -33.036)" fill="#e0e0e0"/>
        <path id="Path_29726" data-name="Path 29726" d="M308.728,69.315a.433.433,0,0,1,0-.136V61.408c0-4.984-.032-12.094-.058-20.6l.11.1H281.558l.123-.123V69.27l-.1-.1,19.729.052h.052l-19.885.194h-.1V40.7h27.455v.1c0,8.536-.039,15.672-.052,20.675,0,2.482,0,4.44-.032,5.781v1.906A.678.678,0,0,1,308.728,69.315Z" transform="translate(-195.415 -35.58)" fill="#e0e0e0"/>
        <rect id="Rectangle_2443" data-name="Rectangle 2443" width="9.119" height="9.119" transform="translate(95.165 14.933)" fill="#ebebeb"/>
        <path id="Path_29727" data-name="Path 29727" d="M454.6,377.768a17.688,17.688,0,0,1,10.973-1.335,9.147,9.147,0,0,1,5.418,2.418c1.355,1.491,1.607,4.129.058,5.412a5.215,5.215,0,0,1-3.422.868c-2.9,0-6.118-.544-8.426,1.2-1.3,1-2.2,2.651-3.785,3.143a3.708,3.708,0,0,1-4.116-1.828,6.417,6.417,0,0,1-.46-4.718A7.181,7.181,0,0,1,454.6,377.768Z" transform="translate(-254.958 -153.605)" fill="#ebebeb"/>
        <path id="Path_29728" data-name="Path 29728" d="M443.951,339.46c2.042,2.917,6.008,1.944,7.842.169s2.593-4.355,3.325-6.812c1.62-5.619,3.241-11.517,2.048-17.234a9.56,9.56,0,0,0-2.2-4.686,4.991,4.991,0,0,0-4.738-1.581c-2,.531-3.241,2.489-4.142,4.355A41.083,41.083,0,0,0,442.02,331.3c0,2.839.331,5.833,1.944,8.16" transform="translate(-251.942 -130.061)" fill="#ebebeb"/>
        <path id="Path_29729" data-name="Path 29729" d="M423.568,348.727a10.614,10.614,0,0,0,1.653-9.761,19.087,19.087,0,0,0-5.781-8.38,31.285,31.285,0,0,0-10.37-6.112,11.1,11.1,0,0,0-4.66-.791,4.893,4.893,0,0,0-3.889,2.366c-1.089,2.081-.045,4.6,1.089,6.656a79.107,79.107,0,0,0,6.8,10.37c2.035,2.625,4.368,5.217,7.479,6.41s6.332,1.043,7.978-1.108" transform="translate(-237.178 -135.148)" fill="#ebebeb"/>
        <path id="Path_29730" data-name="Path 29730" d="M444.712,409.181a5.985,5.985,0,0,0,.188-1.3c.091-.966.214-2.178.35-3.617a51.06,51.06,0,0,1,.817-5.3,40.608,40.608,0,0,1,1.944-6.254,22.933,22.933,0,0,1,3.2-5.665,11.913,11.913,0,0,1,4.038-3.357,11.452,11.452,0,0,1,3.4-1.063,6.185,6.185,0,0,0,1.3-.188,5.955,5.955,0,0,0-1.342,0,10.319,10.319,0,0,0-3.552.92,11.964,11.964,0,0,0-4.258,3.39,22.326,22.326,0,0,0-3.331,5.762,38.04,38.04,0,0,0-1.944,6.358,44.1,44.1,0,0,0-.706,5.373c-.117,1.536-.162,2.774-.181,3.636A6.708,6.708,0,0,0,444.712,409.181Z" transform="translate(-252.859 -155.814)" fill="#e0e0e0"/>
        <path id="Path_29731" data-name="Path 29731" d="M445.01,386.991a2.4,2.4,0,0,0,.032-.616v-1.756c0-1.523,0-3.733.078-6.481.136-5.451.6-11.316,1.51-19.593.856-7.778,2.009-16.851,3.241-22.685q.389-2.009.771-3.6c.233-1.056.434-1.944.648-2.709s.3-1.257.408-1.7a2.5,2.5,0,0,0,.11-.609,2.727,2.727,0,0,0-.214.577l-.512,1.685c-.227.732-.46,1.64-.719,2.69s-.57,2.249-.856,3.591a199.969,199.969,0,0,0-3.39,21.071c-.907,8.29-1.3,15.834-1.355,21.3-.032,2.729,0,4.939.1,6.481.045.713.078,1.3.1,1.756a2.528,2.528,0,0,0,.045.6Z" transform="translate(-252.903 -136.404)" fill="#e0e0e0"/>
        <path id="Path_29732" data-name="Path 29732" d="M434.639,374.882a11.322,11.322,0,0,0,0-1.834c-.065-1.18-.227-2.884-.557-4.971a66.649,66.649,0,0,0-1.62-7.246,59.628,59.628,0,0,0-3.027-8.575,45.59,45.59,0,0,0-8.905-13.864,23.08,23.08,0,0,0-2.093-1.944c-.318-.272-.6-.544-.894-.758l-.81-.557a12.256,12.256,0,0,0-1.543-.992,55.463,55.463,0,0,1,5.062,4.537,48.034,48.034,0,0,1,8.679,13.805,67.108,67.108,0,0,1,3.046,8.5c.8,2.664,1.3,5.114,1.724,7.175s.6,3.753.732,4.926a13.349,13.349,0,0,0,.207,1.8Z" transform="translate(-242.5 -138.832)" fill="#e0e0e0"/>
        <path id="Path_29733" data-name="Path 29733" d="M423.5,436.59l1.458,19.982h25.666l1.465-19.982Z" transform="translate(-245.426 -174.881)" fill="#e0e0e0"/>
        <rect id="Rectangle_2444" data-name="Rectangle 2444" width="34.131" height="7.875" transform="translate(175.592 253.834)" fill="#e0e0e0"/>
        <path id="Path_29734" data-name="Path 29734" d="M419.67,466.24v2.184h33.567V466.24Z" transform="translate(-244.078 -185.314)" fill="#ebebeb"/>
        <path id="Path_29735" data-name="Path 29735" d="M423.718,473.453l-1.568-3.843h30.734l-1.834,3.843Z" transform="translate(-244.951 -186.5)" fill="#e0e0e0"/>
        <path id="Path_29736" data-name="Path 29736" d="M451.845,445.14a1.07,1.07,0,0,1-.123.188c-.091.117-.227.3-.382.506l-1.491,1.944-.071.084-.065-.091-3.668-5.081h.207c-1.089,1.549-2.307,3.273-3.617,5.12l-.11.162-.13-.149-4.291-5.107h.246l-.233.292c-1.329,1.672-2.593,3.286-3.837,4.809l-.13.162-.117-.169-3.617-5.12h.207l-4.453,5.075-.084.091-.058-.1-1.393-2.346c-.149-.253-.266-.46-.356-.648a.739.739,0,0,1-.11-.227,1.2,1.2,0,0,1,.149.2l.4.6,1.465,2.307h-.143l4.388-5.14.11-.13.1.136,3.649,5.1h-.246l3.824-4.816.24-.3.123-.156.123.156c1.5,1.789,2.949,3.519,4.278,5.114h-.24c1.3-1.841,2.547-3.558,3.655-5.094l.1-.149.1.149,3.6,5.133h-.13l1.555-1.867.415-.486A1.371,1.371,0,0,1,451.845,445.14Z" transform="translate(-245.662 -176.904)" fill="#f5f5f5"/>
        <path id="Path_29737" data-name="Path 29737" d="M452.562,436.3c0,.084-6.436.156-14.369.156s-14.363-.071-14.363-.156,6.429-.162,14.363-.162S452.562,436.211,452.562,436.3Z" transform="translate(-245.542 -174.723)" fill="#f5f5f5"/>
        <path id="Path_29738" data-name="Path 29738" d="M453.207,469.852c0,.091-6.993.162-15.613.162s-15.613-.071-15.613-.162,6.987-.162,15.613-.162S453.207,469.761,453.207,469.852Z" transform="translate(-244.891 -186.528)" fill="#f5f5f5"/>
        <path id="Path_29739" data-name="Path 29739" d="M151.68,452.21v14.713h45.246V452.21Z" transform="translate(-149.781 -180.377)" fill="#f5f5f5"/>
        <path id="Path_29740" data-name="Path 29740" d="M148.75,445.86v4.116h48.727V445.86H148.75Z" transform="translate(-148.75 -178.143)" fill="#e0e0e0"/>
        <path id="Path_29741" data-name="Path 29741" d="M185.826,464.688h22.782V449.976h1.581V445.86H184.88v3.733Z" transform="translate(-161.463 -178.143)" fill="#ebebeb"/>
        <rect id="Rectangle_2445" data-name="Rectangle 2445" width="9.178" height="2.217" transform="translate(8.231 274.205)" fill="#e0e0e0"/>
        <rect id="Rectangle_2446" data-name="Rectangle 2446" width="11.783" height="4.68" transform="translate(7.045 279.189)" fill="#fff"/>
        <path id="Path_29742" data-name="Path 29742" d="M210.5,445.99v19.152h58.9V445.99Z" transform="translate(-170.478 -178.188)" fill="#f5f5f5"/>
        <path id="Path_29743" data-name="Path 29743" d="M206.69,437.72v5.36h63.433v-5.36H206.69Z" transform="translate(-169.137 -175.278)" fill="#e0e0e0"/>
        <path id="Path_29744" data-name="Path 29744" d="M254.951,462.232H284.61V443.08h2.061v-5.36H253.72v4.861Z" transform="translate(-185.686 -175.278)" fill="#e0e0e0"/>
        <rect id="Rectangle_2447" data-name="Rectangle 2447" width="11.945" height="2.884" transform="translate(48.26 270.887)" fill="#e0e0e0"/>
        <rect id="Rectangle_2448" data-name="Rectangle 2448" width="15.335" height="6.086" transform="translate(46.724 277.375)" fill="#fff"/>
        <path id="Path_29745" data-name="Path 29745" d="M220.94,415.02v14.713h45.24V415.02Z" transform="translate(-174.151 -167.291)" fill="#f5f5f5"/>
        <path id="Path_29746" data-name="Path 29746" d="M218.01,408.68v4.109h48.72V408.68H218.01Z" transform="translate(-173.12 -165.06)" fill="#e0e0e0"/>
        <path id="Path_29747" data-name="Path 29747" d="M255.076,427.5h22.782V412.789h1.581V408.68H254.13v3.733Z" transform="translate(-185.83 -165.06)" fill="#ebebeb"/>
        <rect id="Rectangle_2449" data-name="Rectangle 2449" width="9.178" height="2.217" transform="translate(53.114 250.101)" fill="#e0e0e0"/>
        <rect id="Rectangle_2450" data-name="Rectangle 2450" width="11.783" height="4.68" transform="translate(51.935 255.085)" fill="#fff"/>
      </g>
      <g id="freepik--Device--inject-29" transform="translate(197.655 69.458)">
        <path id="Path_29748" data-name="Path 29748" d="M364.266,271.738,302.3,271.7a13.5,13.5,0,0,1-13.494-13.5l.032-155.344A13.494,13.494,0,0,1,302.35,89.36h61.961a13.5,13.5,0,0,1,13.494,13.5L377.773,258.2a13.5,13.5,0,0,1-13.507,13.533Z" transform="translate(-288.81 -89.36)" fill="#455a64"/>
        <path id="Path_29749" data-name="Path 29749" d="M366.477,97.886h-12.01a2.988,2.988,0,0,0-2.923,3.046v2.178a2.988,2.988,0,0,1-2.917,3.053H325.21a2.994,2.994,0,0,1-2.917-3.053v-2.178a2.988,2.988,0,0,0-2.917-3.053H304.639a9.456,9.456,0,0,0-9.456,9.456L295.15,258.96a9.45,9.45,0,0,0,9.45,9.456l61.838.039a9.456,9.456,0,0,0,9.456-9.45V107.375a9.456,9.456,0,0,0-9.417-9.489Z" transform="translate(-291.041 -92.358)" fill="#fff"/>
        <path id="Path_29750" data-name="Path 29750" d="M366.457,97.986h.324a7.129,7.129,0,0,1,.966.071,9.074,9.074,0,0,1,3.558,1.231,8.873,8.873,0,0,1,2.158,1.756,9.333,9.333,0,0,1,1.808,2.826,9.891,9.891,0,0,1,.713,3.85v4.472c0,12.639,0,30.916.032,53.51s0,49.485,0,79.351v14.214a9.981,9.981,0,0,1-.363,2.9,9.722,9.722,0,0,1-1.205,2.67,10.423,10.423,0,0,1-1.977,2.191,9.586,9.586,0,0,1-5.477,2.126c-1.99.058-3.967,0-5.963,0H305.1a10.027,10.027,0,0,1-6.17-1.7,9.722,9.722,0,0,1-3.766-5.185,10.578,10.578,0,0,1-.4-3.241V107.546c0-.382.032-.771.052-1.154a5.55,5.55,0,0,1,.194-1.128,9.592,9.592,0,0,1,5.509-6.65,10.04,10.04,0,0,1,4.219-.8h14.194a3.04,3.04,0,0,1,1.867.519,3.24,3.24,0,0,1,1.16,1.523,5.146,5.146,0,0,1,.188,1.873v.927a6.9,6.9,0,0,0,.032.9,2.962,2.962,0,0,0,.706,1.588,2.768,2.768,0,0,0,1.452.9,3.1,3.1,0,0,0,.849.084H348.8a2.923,2.923,0,0,0,1.16-.408,3.027,3.027,0,0,0,1.329-1.912,5.289,5.289,0,0,0,.071-1.154v-1.134a6.252,6.252,0,0,1,.045-1.1,3.39,3.39,0,0,1,.357-1.018,3.014,3.014,0,0,1,1.517-1.342,4.855,4.855,0,0,1,1.886-.2h0a4.634,4.634,0,0,0-1.854.2,2.884,2.884,0,0,0-1.465,1.3,3.02,3.02,0,0,0-.344.985,6.046,6.046,0,0,0-.045,1.089v1.134a5.54,5.54,0,0,1-.071,1.173,3.144,3.144,0,0,1-1.374,1.983,2.955,2.955,0,0,1-1.206.428c-.441.039-.868,0-1.3,0H325.255a3.468,3.468,0,0,1-.888-.084,2.981,2.981,0,0,1-1.536-.953,3.156,3.156,0,0,1-.745-1.666,6.391,6.391,0,0,1-.032-.927V101.6a4.873,4.873,0,0,0-.188-1.815,2.968,2.968,0,0,0-1.1-1.439A2.871,2.871,0,0,0,319,97.857H304.806a9.4,9.4,0,0,0-9.534,7.3c-.091.363-.123.739-.188,1.108a7.225,7.225,0,0,0-.052,1.128V258.865a10.17,10.17,0,0,0,.382,3.13,9.43,9.43,0,0,0,3.655,5.049,9.774,9.774,0,0,0,6.021,1.659h55.934c1.99,0,3.986.032,5.943,0a9.4,9.4,0,0,0,5.334-2.068,10.247,10.247,0,0,0,1.944-2.139,9.411,9.411,0,0,0,1.18-2.593,9.85,9.85,0,0,0,.35-2.826c0-.959,0-1.944,0-2.871V245.06c0-29.866.032-56.763.045-79.351s.039-40.871.052-53.51v-4.472a9.721,9.721,0,0,0-.687-3.817A9.546,9.546,0,0,0,373.4,101.1a9.268,9.268,0,0,0-2.145-1.756,8.977,8.977,0,0,0-3.532-1.244,7.715,7.715,0,0,0-.959-.091Z" transform="translate(-290.904 -92.334)" fill="#263238"/>
        <path id="Path_29751" data-name="Path 29751" d="M404.41,121.742c0,.045-1.568.091-3.5.1s-3.5,0-3.5-.045,1.569-.084,3.5-.1S404.41,121.7,404.41,121.742Z" transform="translate(-327.023 -100.736)" fill="#263238"/>
        <path id="Path_29752" data-name="Path 29752" d="M404.43,124.513c0,.039-1.562.084-3.5.1s-3.5,0-3.5-.045,1.568-.091,3.5-.1S404.43,124.467,404.43,124.513Z" transform="translate(-327.03 -101.712)" fill="#263238"/>
        <path id="Path_29753" data-name="Path 29753" d="M404.456,127.272c0,.039-1.568.084-3.5.1s-3.506,0-3.506-.045,1.568-.084,3.506-.1S404.456,127.233,404.456,127.272Z" transform="translate(-327.037 -102.682)" fill="#263238"/>
        <path id="Path_29754" data-name="Path 29754" d="M310,127.309a.647.647,0,0,1,.143,0h1.9l-.039.039v-1.082a5.143,5.143,0,0,1,0-.648.577.577,0,0,1,.5-.46h.713a.583.583,0,0,1,.493.577v1.581l-.071-.071h1.886l-.071.078v-2.949a.609.609,0,0,0-.266-.447l-.823-.81-.8-.791-.389-.376a.856.856,0,0,0-.389-.292.518.518,0,0,0-.434.084c-.11.091-.233.233-.35.344l-.648.648c-.428.441-.869.849-1.193,1.231a1.347,1.347,0,0,0-.1.7v2.651a.877.877,0,0,1,0-.227v-2.755a.8.8,0,0,1,.1-.4c.35-.421.765-.8,1.193-1.257l.648-.687c.123-.123.22-.24.363-.363a.648.648,0,0,1,.551-.1.991.991,0,0,1,.447.318l.389.382.8.784c.272.266.551.531.83.81a1.8,1.8,0,0,1,.207.227.57.57,0,0,1,.1.318v3.027h-2.029v-1.653a.46.46,0,0,0-.382-.46H312.6a.46.46,0,0,0-.408.369v1.724H310Z" transform="translate(-296.266 -100.671)" fill="#263238"/>
        <rect id="Rectangle_2451" data-name="Rectangle 2451" width="53.38" height="10.902" transform="translate(17.363 95.956)" fill="#ebebeb"/>
        <rect id="Rectangle_2452" data-name="Rectangle 2452" width="53.38" height="10.902" transform="translate(17.363 111.777)" fill="#ebebeb"/>
        <path id="Path_29755" data-name="Path 29755" d="M361.48,306.618h-26.82a5.451,5.451,0,0,1-5.451-5.457h0a5.451,5.451,0,0,1,5.451-5.451h26.82a5.457,5.457,0,0,1,5.451,5.451h0a5.457,5.457,0,0,1-5.451,5.457Z" transform="translate(-303.025 -161.968)" fill="#0091ff"/>
        <path id="Path_29756" data-name="Path 29756" d="M325.494,248.44h-2.359a.415.415,0,0,1-.415-.415h0a1.568,1.568,0,0,1,1.568-1.575h.052a1.575,1.575,0,0,1,1.575,1.575h0a.421.421,0,0,1-.421.415Z" transform="translate(-300.742 -144.635)" fill="#e0e0e0"/>
        <path id="Path_29757" data-name="Path 29757" d="M325.58,244.67a.94.94,0,1,1-.94-.94A.94.94,0,0,1,325.58,244.67Z" transform="translate(-301.087 -143.678)" fill="#e0e0e0"/>
        <rect id="Rectangle_2453" data-name="Rectangle 2453" width="2.813" height="1.99" transform="translate(22.147 117.403)" fill="#e0e0e0"/>
        <path id="Path_29758" data-name="Path 29758" d="M325.92,269.927h-.946v-.616a.8.8,0,0,0-1.594,0v.616h-.94v-.616a1.743,1.743,0,0,1,3.48,0Z" transform="translate(-300.643 -152.103)" fill="#e0e0e0"/>
        <path id="Path_29759" data-name="Path 29759" d="M334.863,322.72v.946H336.1v.22h-1.238V324.9h-.253v-2.4h1.646v.22Z" transform="translate(-304.926 -171.395)" fill="#e0e0e0"/>
        <path id="Path_29760" data-name="Path 29760" d="M337.49,324.314a.888.888,0,0,1,.92-.914.92.92,0,0,1,0,1.834.894.894,0,0,1-.92-.92Zm1.588,0a.671.671,0,1,0-.671.671A.671.671,0,0,0,339.078,324.314Z" transform="translate(-305.939 -171.711)" fill="#e0e0e0"/>
        <path id="Path_29761" data-name="Path 29761" d="M342,323.4v.24h-.058a.575.575,0,0,0-.6.648v.92h-.246V323.4h.233v.389A.687.687,0,0,1,342,323.4Z" transform="translate(-307.206 -171.71)" fill="#e0e0e0"/>
        <path id="Path_29762" data-name="Path 29762" d="M344.721,323.416V325a.791.791,0,0,1-.9.9,1.245,1.245,0,0,1-.843-.279l.123-.181a1.115,1.115,0,0,0,.713.246c.46,0,.648-.214.648-.648v-.233a.81.81,0,0,1-.706.35.875.875,0,0,1,0-1.75.8.8,0,0,1,.713.363v-.35Zm-.233.862a.687.687,0,1,0-.687.648.648.648,0,0,0,.687-.648Z" transform="translate(-307.836 -171.714)" fill="#e0e0e0"/>
        <path id="Path_29763" data-name="Path 29763" d="M346.49,324.31a.92.92,0,1,1,.92.92.888.888,0,0,1-.92-.92Zm1.594,0a.281.281,0,1,0,.032,0Z" transform="translate(-309.105 -171.708)" fill="#e0e0e0"/>
        <path id="Path_29764" data-name="Path 29764" d="M350.891,324.863a.59.59,0,0,1-.382.123.473.473,0,0,1-.525-.525v-1.089h-.324v-.207h.324v-.4h.24v.4h.551v.207h-.551v1.076a.292.292,0,0,0,.318.331.428.428,0,0,0,.266-.091Z" transform="translate(-310.221 -171.49)" fill="#e0e0e0"/>
        <path id="Path_29765" data-name="Path 29765" d="M355.458,324.321a.868.868,0,0,1-.894.92.784.784,0,0,1-.687-.356v1h-.246V323.42h.24v.376a.8.8,0,0,1,.7-.369.869.869,0,0,1,.888.894Zm-.24,0a.648.648,0,1,0-.168.5.648.648,0,0,0,.168-.5Z" transform="translate(-311.618 -171.718)" fill="#e0e0e0"/>
        <path id="Path_29766" data-name="Path 29766" d="M358.5,324.1v1.121h-.2v-.285a.648.648,0,0,1-.648.3c-.408,0-.648-.207-.648-.525s.181-.506.7-.506h.57v-.11c0-.311-.175-.48-.512-.48a.933.933,0,0,0-.6.214l-.11-.181a1.153,1.153,0,0,1,.739-.246.648.648,0,0,1,.713.7Zm-.246.577v-.292h-.564c-.35,0-.467.136-.467.318s.169.344.46.344a.577.577,0,0,0,.57-.369Z" transform="translate(-312.804 -171.709)" fill="#e0e0e0"/>
        <path id="Path_29767" data-name="Path 29767" d="M359.94,325.014l.11-.194a1.069,1.069,0,0,0,.648.207c.344,0,.486-.117.486-.3,0-.473-1.173-.1-1.173-.81,0-.3.253-.518.713-.518a1.238,1.238,0,0,1,.648.169l-.11.194a.914.914,0,0,0-.531-.156c-.324,0-.467.13-.467.3,0,.493,1.167.123,1.167.817,0,.311-.272.512-.745.512a1.186,1.186,0,0,1-.745-.22Z" transform="translate(-313.838 -171.711)" fill="#e0e0e0"/>
        <path id="Path_29768" data-name="Path 29768" d="M362.53,325.014l.11-.194a1.069,1.069,0,0,0,.648.207c.344,0,.486-.117.486-.3,0-.473-1.173-.1-1.173-.81,0-.3.253-.518.713-.518a1.238,1.238,0,0,1,.648.169l-.11.194a.914.914,0,0,0-.531-.156c-.324,0-.467.13-.467.3,0,.493,1.167.123,1.167.817,0,.311-.272.512-.745.512a1.186,1.186,0,0,1-.745-.22Z" transform="translate(-314.75 -171.711)" fill="#e0e0e0"/>
        <path id="Path_29769" data-name="Path 29769" d="M367.943,323.42l-.687,1.808h-.227l-.57-1.478-.57,1.478h-.24L365,323.42h.233l.564,1.536.583-1.536h.207l.577,1.536.57-1.536Z" transform="translate(-315.619 -171.718)" fill="#e0e0e0"/>
        <path id="Path_29770" data-name="Path 29770" d="M369.74,324.31a.92.92,0,1,1,.92.92.888.888,0,0,1-.92-.92Zm1.588,0a.648.648,0,0,0-.648-.7.706.706,0,0,0,0,1.406.648.648,0,0,0,.648-.707Z" transform="translate(-317.286 -171.708)" fill="#e0e0e0"/>
        <path id="Path_29771" data-name="Path 29771" d="M374.254,323.4v.24H374.2a.583.583,0,0,0-.609.648v.92h-.246V323.4h.233v.389A.687.687,0,0,1,374.254,323.4Z" transform="translate(-318.553 -171.71)" fill="#e0e0e0"/>
        <path id="Path_29772" data-name="Path 29772" d="M376.976,322.28v2.547h-.233v-.356a.8.8,0,0,1-.7.369.92.92,0,0,1,0-1.834.784.784,0,0,1,.687.356V322.28Zm-.24,1.64a.648.648,0,1,0-.168.5A.648.648,0,0,0,376.736,323.92Z" transform="translate(-319.208 -171.317)" fill="#e0e0e0"/>
        <path id="Path_29773" data-name="Path 29773" d="M379.921,323.1c0-.246-.2-.421-.551-.421a.8.8,0,0,0-.648.279l-.181-.136a1.056,1.056,0,0,1,.856-.356c.48,0,.791.227.791.6,0,.59-.648.616-.648,1.108h-.253C379.3,323.6,379.921,323.551,379.921,323.1Zm-.648,1.627a.181.181,0,1,1,.175.175.175.175,0,0,1-.2-.149Z" transform="translate(-320.383 -171.383)" fill="#e0e0e0"/>
        <path id="Path_29774" data-name="Path 29774" d="M335.406,219.59v4.479h-.525l-2.683-3.338v3.338h-.648V219.59h.525l2.683,3.338V219.59Z" transform="translate(-303.849 -135.184)" fill="#263238"/>
        <path id="Path_29775" data-name="Path 29775" d="M339.27,219.425a.415.415,0,0,1,.83,0,.4.4,0,0,1-.415.408.4.4,0,0,1-.415-.408Zm.11,1.05h.609v3.39h-.609Z" transform="translate(-306.565 -134.98)" fill="#263238"/>
        <path id="Path_29776" data-name="Path 29776" d="M341.7,222.942a1.692,1.692,0,0,1,1.8-1.724,1.5,1.5,0,0,1,1.381.719l-.467.3a1.05,1.05,0,0,0-.92-.486,1.193,1.193,0,1,0,0,2.385,1.063,1.063,0,0,0,.92-.486l.467.292a1.51,1.51,0,0,1-1.381.732,1.7,1.7,0,0,1-1.8-1.737Z" transform="translate(-307.42 -135.756)" fill="#263238"/>
        <path id="Path_29777" data-name="Path 29777" d="M349.072,222.336l-.706.648v.927h-.616V219.16h.616v3.046l1.854-1.685h.739l-1.426,1.4,1.568,1.99h-.758Z" transform="translate(-309.549 -135.033)" fill="#263238"/>
        <path id="Path_29778" data-name="Path 29778" d="M357.012,222.7v1.944h-.447v-1.906a.94.94,0,0,0-1.011-1.076,1.108,1.108,0,0,0-1.18,1.212v1.769h-.454V221.28h.434v.616a1.419,1.419,0,0,1,1.3-.648,1.3,1.3,0,0,1,1.361,1.452Z" transform="translate(-311.72 -135.766)" fill="#263238"/>
        <path id="Path_29779" data-name="Path 29779" d="M362.979,222.566v2.087h-.434v-.525a1.257,1.257,0,0,1-1.154.557c-.765,0-1.231-.4-1.231-.979s.331-.953,1.3-.953h1.069v-.207c0-.577-.324-.888-.953-.888a1.743,1.743,0,0,0-1.121.4l-.2-.337a2.107,2.107,0,0,1,1.368-.454,1.193,1.193,0,0,1,1.361,1.3Zm-.454,1.076v-.551h-1.056c-.648,0-.862.259-.862.6s.318.648.849.648A1.076,1.076,0,0,0,362.526,223.642Z" transform="translate(-313.916 -135.768)" fill="#263238"/>
        <path id="Path_29780" data-name="Path 29780" d="M371.984,222.7v1.944h-.454v-1.905c0-.713-.363-1.076-.966-1.076a1.082,1.082,0,0,0-1.128,1.212v1.769h-.454v-1.906c0-.713-.363-1.076-.972-1.076a1.082,1.082,0,0,0-1.128,1.212v1.769h-.454v-3.364h.434v.609a1.355,1.355,0,0,1,1.231-.648,1.206,1.206,0,0,1,1.2.706,1.471,1.471,0,0,1,1.335-.706,1.3,1.3,0,0,1,1.355,1.458Z" transform="translate(-316.122 -135.762)" fill="#263238"/>
        <path id="Path_29781" data-name="Path 29781" d="M379.641,223.1h-2.813a1.244,1.244,0,0,0,1.3,1.173,1.335,1.335,0,0,0,1.031-.441l.253.292a1.776,1.776,0,0,1-3.059-1.167,1.64,1.64,0,1,1,3.273,0A.256.256,0,0,1,379.641,223.1Zm-2.813-.337h2.385a1.193,1.193,0,1,0-2.385,0Z" transform="translate(-319.611 -135.754)" fill="#263238"/>
        <path id="Path_29782" data-name="Path 29782" d="M349.71,333.267l.117-.24a1.147,1.147,0,0,0,.719.246c.376,0,.538-.143.538-.331,0-.531-1.3-.194-1.3-1,0-.337.259-.648.83-.648a1.3,1.3,0,0,1,.7.194l-.123.266a1.153,1.153,0,0,0-.6-.175c-.369,0-.531.156-.531.344,0,.531,1.3.2,1.3,1,0,.331-.272.616-.843.616A1.3,1.3,0,0,1,349.71,333.267Z" transform="translate(-310.239 -174.487)" fill="#0091ff"/>
        <path id="Path_29783" data-name="Path 29783" d="M352.85,331.291a.2.2,0,1,1,.2.2.194.194,0,0,1-.2-.2Zm.052.506h.3v1.646h-.3Z" transform="translate(-311.344 -174.417)" fill="#0091ff"/>
        <path id="Path_29784" data-name="Path 29784" d="M355.792,332.173V333.6a.745.745,0,0,1-.856.843,1.219,1.219,0,0,1-.784-.246l.143-.227a1.011,1.011,0,0,0,.648.214c.389,0,.564-.181.564-.551v-.13a.758.758,0,0,1-.59.253.8.8,0,1,1,0-1.594.739.739,0,0,1,.6.272v-.259Zm-.292.784a.525.525,0,0,0-.564-.538.538.538,0,1,0,.564.538Z" transform="translate(-311.791 -174.793)" fill="#0091ff"/>
        <path id="Path_29785" data-name="Path 29785" d="M359.152,332.872v.946h-.3v-.907c0-.324-.162-.486-.441-.486a.493.493,0,0,0-.525.551v.843h-.3v-1.646h.266v.253a.707.707,0,0,1,.6-.266.648.648,0,0,1,.7.713Z" transform="translate(-313.012 -174.792)" fill="#0091ff"/>
        <path id="Path_29786" data-name="Path 29786" d="M363.667,332.18v1.646h-.285v-.246a.695.695,0,0,1-1.264-.447v-.953h.3v.914c0,.324.156.486.441.486a.486.486,0,0,0,.512-.544v-.856Z" transform="translate(-314.604 -174.801)" fill="#0091ff"/>
        <path id="Path_29787" data-name="Path 29787" d="M367.075,333a.8.8,0,0,1-.836.843.7.7,0,0,1-.57-.266v.849h-.3v-2.249h.285v.266a.681.681,0,0,1,.583-.279.8.8,0,0,1,.836.836Zm-.3,0a.557.557,0,1,0-.551.583.544.544,0,0,0,.564-.583Z" transform="translate(-315.749 -174.793)" fill="#0091ff"/>
        <path id="Path_29788" data-name="Path 29788" d="M350.06,304.107l.143-.318a1.167,1.167,0,0,0,.713.24c.337,0,.48-.117.48-.279,0-.473-1.3-.162-1.3-.972,0-.35.279-.648.875-.648a1.374,1.374,0,0,1,.726.194l-.13.311a1.245,1.245,0,0,0-.6-.168c-.337,0-.473.13-.473.292,0,.467,1.3.162,1.3.966,0,.344-.285.648-.881.648a1.4,1.4,0,0,1-.856-.266Z" transform="translate(-310.362 -164.227)" fill="#fff"/>
        <path id="Path_29789" data-name="Path 29789" d="M353.22,302.075a.253.253,0,0,1,.5,0,.24.24,0,0,1-.253.24.233.233,0,0,1-.246-.24Zm.052.506h.389v1.659h-.389Z" transform="translate(-311.474 -164.133)" fill="#fff"/>
        <path id="Path_29790" data-name="Path 29790" d="M356.262,302.992V304.4a.784.784,0,0,1-.894.875,1.336,1.336,0,0,1-.81-.24l.175-.292a1,1,0,0,0,.616.2c.363,0,.525-.168.525-.506v-.084a.726.726,0,0,1-.557.22.8.8,0,1,1,0-1.6.726.726,0,0,1,.577.233v-.22Zm-.382.784a.506.506,0,1,0-.506.473.473.473,0,0,0,.506-.493Z" transform="translate(-311.917 -164.525)" fill="#fff"/>
        <path id="Path_29791" data-name="Path 29791" d="M359.646,303.685v.946h-.389v-.9c0-.292-.149-.434-.4-.434a.441.441,0,0,0-.46.5v.836H358v-1.64h.369v.22a.707.707,0,0,1,.57-.233.648.648,0,0,1,.706.706Z" transform="translate(-313.156 -164.525)" fill="#fff"/>
        <path id="Path_29792" data-name="Path 29792" d="M362.55,302.075a.253.253,0,0,1,.5,0,.24.24,0,0,1-.253.24.233.233,0,0,1-.246-.24Zm.052.506h.389v1.659H362.6Z" transform="translate(-314.757 -164.133)" fill="#fff"/>
        <path id="Path_29793" data-name="Path 29793" d="M365.646,303.685v.946h-.389v-.9c0-.292-.149-.434-.4-.434a.441.441,0,0,0-.467.5v.836H364v-1.64h.369v.22a.7.7,0,0,1,.57-.233.648.648,0,0,1,.706.706Z" transform="translate(-315.267 -164.525)" fill="#fff"/>
      </g>
      <g id="freepik--Prototyping--inject-29" transform="translate(45.389 52.296)">
        <path id="Path_29794" data-name="Path 29794" d="M194.074,115H182.907a2.774,2.774,0,0,0-2.716,2.839v2.022a2.78,2.78,0,0,1-2.716,2.839H155.7a2.78,2.78,0,0,1-2.716-2.839v-2.029a2.78,2.78,0,0,0-2.709-2.839H136.565a8.789,8.789,0,0,0-8.8,8.789V264.8a8.8,8.8,0,0,0,8.789,8.8l57.515.032a8.8,8.8,0,0,0,8.8-8.789V123.818a8.8,8.8,0,0,0-8.8-8.821Z" transform="translate(-79.88 -81.216)" fill="#fff"/>
        <path id="Path_29795" data-name="Path 29795" d="M193.987,114.91h.3a6.773,6.773,0,0,1,.888.065,8.387,8.387,0,0,1,3.3,1.141,8.49,8.49,0,0,1,2.009,1.627,8.814,8.814,0,0,1,1.672,2.593,9.112,9.112,0,0,1,.648,3.571v4.142c0,11.718,0,28.66.032,49.608s0,45.875,0,73.563v13.177a9.644,9.644,0,0,1-.337,2.683,8.984,8.984,0,0,1-1.121,2.476,9.457,9.457,0,0,1-1.834,2.035,8.879,8.879,0,0,1-5.075,1.944c-1.847.052-3.675,0-5.529,0H137.107a9.294,9.294,0,0,1-5.723-1.581,8.964,8.964,0,0,1-3.487-4.816,9.638,9.638,0,0,1-.369-2.975v-140.4a7.388,7.388,0,0,1,.052-1.069,8.923,8.923,0,0,1,5.269-7.207,9.184,9.184,0,0,1,3.889-.739h13.157a2.793,2.793,0,0,1,1.731.486,2.942,2.942,0,0,1,1.076,1.413,4.672,4.672,0,0,1,.175,1.737v.856a7.136,7.136,0,0,0,0,.836,2.806,2.806,0,0,0,.648,1.471,2.592,2.592,0,0,0,1.342.836,3.241,3.241,0,0,0,.791.078h21.887a2.638,2.638,0,0,0,1.076-.376,2.8,2.8,0,0,0,1.231-1.776,5.3,5.3,0,0,0,.071-1.063v-1.056a6.02,6.02,0,0,1,.045-1.024,2.949,2.949,0,0,1,.331-.94,2.748,2.748,0,0,1,1.406-1.238,4.394,4.394,0,0,1,1.743-.188h.123a4.336,4.336,0,0,0-1.718.188,2.716,2.716,0,0,0-1.355,1.206,2.936,2.936,0,0,0-.324.92,5.715,5.715,0,0,0-.039,1v1.056a5.184,5.184,0,0,1-.065,1.089,2.91,2.91,0,0,1-1.3,1.834,2.677,2.677,0,0,1-1.115.4c-.408.039-.8,0-1.212,0H155.792a3.3,3.3,0,0,1-.83-.078,2.755,2.755,0,0,1-1.419-.881,2.968,2.968,0,0,1-.693-1.439,6.352,6.352,0,0,1,0-.856v-.83a4.718,4.718,0,0,0-.175-1.685,2.742,2.742,0,0,0-1.018-1.335,2.593,2.593,0,0,0-1.64-.454H136.86a8.694,8.694,0,0,0-8.886,6.766,9.347,9.347,0,0,0-.175,1.024,7.255,7.255,0,0,0-.052,1.05V264.2a9.528,9.528,0,0,0,.363,2.9,8.724,8.724,0,0,0,3.383,4.68,9.074,9.074,0,0,0,5.587,1.543h57.405a8.64,8.64,0,0,0,4.939-1.912,9.262,9.262,0,0,0,1.782-1.983,8.529,8.529,0,0,0,1.1-2.411,9.132,9.132,0,0,0,.331-2.593V251.251c0-27.688,0-52.622.039-73.563s.039-37.89.045-49.608v-4.161a8.782,8.782,0,0,0-2.288-6.157,8.548,8.548,0,0,0-1.99-1.62,8.426,8.426,0,0,0-3.273-1.16,6.268,6.268,0,0,0-.888-.078Z" transform="translate(-79.792 -81.129)" fill="#263238"/>
        <path id="Path_29796" data-name="Path 29796" d="M227.327,135.238a50.9,50.9,0,0,1-8.277,0,50.9,50.9,0,0,1,8.277,0Z" transform="translate(-111.998 -88.274)" fill="#263238"/>
        <path id="Path_29797" data-name="Path 29797" d="M226.013,137.346a50.976,50.976,0,0,1-8.283,0,50.976,50.976,0,0,1,8.283,0Z" transform="translate(-111.534 -89.015)" fill="#263238"/>
        <path id="Path_29798" data-name="Path 29798" d="M226.667,139.318a50.9,50.9,0,0,1-8.277,0,50.9,50.9,0,0,1,8.277,0Z" transform="translate(-111.766 -89.71)" fill="#263238"/>
        <path id="Path_29799" data-name="Path 29799" d="M180.878,155.424l.311.091.9.318c.382.156.862.363,1.413.648a19.4,19.4,0,0,1,1.828,1.056,19.975,19.975,0,0,1,4.336,3.824,20.286,20.286,0,0,1,2.068,2.968c.344.544.609,1.154.914,1.756a11.6,11.6,0,0,1,.739,1.944,18.589,18.589,0,0,1,.583,9.216,20.656,20.656,0,0,1-4.537,9.579,19.107,19.107,0,0,1-4.349,3.811,20.04,20.04,0,0,1-5.522,2.424,21.291,21.291,0,0,1-12.522-.467,20.533,20.533,0,0,1-9.89-7.693,21.434,21.434,0,0,1-3.837-11.051,18.692,18.692,0,0,1,2.411-10.305,16.852,16.852,0,0,1,6.734-6.3,22.277,22.277,0,0,1,7.285-2.327,30.37,30.37,0,0,1,5.781-.259,32.893,32.893,0,0,1,4.893.564l-.324-.032-.94-.117c-.83-.091-2.055-.227-3.636-.285a31.565,31.565,0,0,0-5.742.311,22.2,22.2,0,0,0-7.194,2.359,16.631,16.631,0,0,0-6.611,6.229,18.42,18.42,0,0,0-2.34,10.143,21.129,21.129,0,0,0,3.8,10.85,20.183,20.183,0,0,0,9.722,7.557,20.961,20.961,0,0,0,12.315.473,19.126,19.126,0,0,0,9.722-6.118,20.513,20.513,0,0,0,4.5-9.43,18.42,18.42,0,0,0-.538-9.074c-.194-.648-.473-1.3-.719-1.944a10.466,10.466,0,0,0-.888-1.743,20.092,20.092,0,0,0-8.1-7.862c-.544-.266-1.011-.486-1.393-.648l-.888-.337Z" transform="translate(-88.857 -95.16)" fill="#263238"/>
        <path id="Path_29800" data-name="Path 29800" d="M191.867,190.445a1.3,1.3,0,0,1-.156-.331l-.389-.966c-.331-.836-.8-2.061-1.51-3.5a15.185,15.185,0,0,0-3.286-4.537,10.124,10.124,0,0,0-2.748-1.8,7.551,7.551,0,0,0-3.435-.6A9.683,9.683,0,0,0,174.3,181.6a13.721,13.721,0,0,0-2.975,4.718,22.853,22.853,0,0,0-1.063,3.655c-.084.408-.149.745-.207,1.018a1.764,1.764,0,0,1-.084.35,1.3,1.3,0,0,1,0-.363,8.52,8.52,0,0,1,.143-1.031,19.951,19.951,0,0,1,.972-3.714,13.611,13.611,0,0,1,2.975-4.855,9.929,9.929,0,0,1,6.235-2.994,7.778,7.778,0,0,1,3.591.648,10.078,10.078,0,0,1,2.826,1.873,14.907,14.907,0,0,1,3.292,4.647,33.929,33.929,0,0,1,1.419,3.558c.136.4.24.726.331.992a2.732,2.732,0,0,1,.11.343Z" transform="translate(-94.725 -103.517)" fill="#263238"/>
        <path id="Path_29801" data-name="Path 29801" d="M184.178,164.536h.246a2.593,2.593,0,0,1,.648.188,3.992,3.992,0,0,1,2.366,3.416,3.513,3.513,0,0,1-.525,1.983,4.148,4.148,0,0,1-4.051,1.944,4.265,4.265,0,0,1-3.3-3.079,3.779,3.779,0,0,1,0-2.048,4.258,4.258,0,0,1,.881-1.536,4.342,4.342,0,0,1,2.139-1.361,2.741,2.741,0,0,1,.687-.1h.24a5.713,5.713,0,0,0-.888.227,4.258,4.258,0,0,0-1.99,1.387,4.057,4.057,0,0,0-.771,1.478,3.48,3.48,0,0,0,0,1.893,3.96,3.96,0,0,0,3.046,2.832,3.889,3.889,0,0,0,3.74-1.789,3.24,3.24,0,0,0,.506-1.808,3.713,3.713,0,0,0-.428-1.607,3.889,3.889,0,0,0-1.718-1.7C184.508,164.627,184.171,164.575,184.178,164.536Z" transform="translate(-98.054 -98.44)" fill="#263238"/>
        <path id="Path_29802" data-name="Path 29802" d="M196.24,232.385a1.945,1.945,0,0,1-.454-.156c-.292-.11-.732-.259-1.3-.415a12.5,12.5,0,0,0-4.958-.292,11.88,11.88,0,0,0-3.3.966c-.564.253-1.134.564-1.769.81a3.448,3.448,0,0,1-2.106.24c-1.594-.415-1.828-2.5-3.241-2.774a2.147,2.147,0,0,0-1.86.92,12.769,12.769,0,0,1-1.743,1.7,2.826,2.826,0,0,1-1.2.46,2.774,2.774,0,0,1-1.244-.188,8.043,8.043,0,0,1-2.009-1.3,17.117,17.117,0,0,0-1.8-1.3,2.878,2.878,0,0,0-1.944-.467,2.735,2.735,0,0,0-1.62,1.011c-.434.493-.791,1.031-1.193,1.523a4.375,4.375,0,0,1-1.413,1.2,3.727,3.727,0,0,1-1.679.363,3.461,3.461,0,0,1-2.593-1.206,3.636,3.636,0,0,1-.81-2.035,3.241,3.241,0,0,1,.175-1.368,1.692,1.692,0,0,1,.207-.434,3.844,3.844,0,0,0-.253,1.789,3.578,3.578,0,0,0,.823,1.944,3.3,3.3,0,0,0,2.469,1.089,3.448,3.448,0,0,0,1.556-.356,3.973,3.973,0,0,0,1.3-1.147c.389-.473.745-1.024,1.186-1.536a3.027,3.027,0,0,1,1.8-1.121,3.143,3.143,0,0,1,2.165.493,15.949,15.949,0,0,1,1.834,1.335,7.544,7.544,0,0,0,1.944,1.219,2.417,2.417,0,0,0,1.089.169,2.489,2.489,0,0,0,1.044-.4,12.756,12.756,0,0,0,1.7-1.653,4.576,4.576,0,0,1,.933-.784,1.834,1.834,0,0,1,1.225-.233,1.944,1.944,0,0,1,1.069.583,6.779,6.779,0,0,1,.706.894,2.962,2.962,0,0,0,1.517,1.329,3.137,3.137,0,0,0,1.912-.22c.648-.227,1.186-.531,1.763-.791a11.776,11.776,0,0,1,3.383-.94,12.152,12.152,0,0,1,5.029.4,10.842,10.842,0,0,1,1.3.48,3.828,3.828,0,0,1,.363.2Z" transform="translate(-90.517 -121.561)" fill="#263238"/>
        <path id="Path_29803" data-name="Path 29803" d="M191.6,242.769c0,.1-4.18.169-9.34.169s-9.333-.071-9.333-.169,4.174-.169,9.333-.169S191.6,242.678,191.6,242.769Z" transform="translate(-95.77 -126.118)" fill="#263238"/>
        <path id="Path_29804" data-name="Path 29804" d="M141.419,271.822a50.3,50.3,0,0,1-.078-5.911,52.191,52.191,0,0,1,.266-5.911,53.3,53.3,0,0,1,.071,5.917,53.143,53.143,0,0,1-.259,5.9Z" transform="translate(-84.637 -132.24)" fill="#263238"/>
        <path id="Path_29805" data-name="Path 29805" d="M197.184,278.528c0,.091-12.865-.039-28.725-.292s-28.725-.531-28.719-.648,12.859.039,28.725.292S197.184,278.431,197.184,278.528Z" transform="translate(-84.091 -138.415)" fill="#263238"/>
        <path id="Path_29806" data-name="Path 29806" d="M197.841,258.663c0,.1-12.438.363-27.772.6s-27.779.344-27.779.253,12.431-.356,27.772-.59S197.841,258.573,197.841,258.663Z" transform="translate(-84.989 -131.759)" fill="#263238"/>
        <path id="Path_29807" data-name="Path 29807" d="M227.537,271.573a61.462,61.462,0,0,1-.169-6.481,61.463,61.463,0,0,1,.169-6.481,63.64,63.64,0,0,1,.169,6.481A63.639,63.639,0,0,1,227.537,271.573Z" transform="translate(-114.917 -131.751)" fill="#263238"/>
        <path id="Path_29808" data-name="Path 29808" d="M150.768,266.631a.649.649,0,0,1,.4.032,1.737,1.737,0,0,1,.862.648,1.906,1.906,0,0,1,.318,1.581,1.886,1.886,0,0,1-3.325.421,1.944,1.944,0,0,1-.091-1.614,1.731,1.731,0,0,1,.681-.843c.22-.13.369-.143.369-.123a2.113,2.113,0,0,0-.823,1.05,1.717,1.717,0,0,0,.13,1.368,1.588,1.588,0,0,0,2.755-.344,1.692,1.692,0,0,0-.207-1.361A2.126,2.126,0,0,0,150.768,266.631Z" transform="translate(-87.277 -134.567)" fill="#263238"/>
        <path id="Path_29809" data-name="Path 29809" d="M143.638,300.3a47,47,0,0,1-.894-5.529,47.5,47.5,0,0,1-.564-5.574,47.76,47.76,0,0,1,.9,5.529,45.14,45.14,0,0,1,.557,5.574Z" transform="translate(-84.95 -142.515)" fill="#263238"/>
        <path id="Path_29810" data-name="Path 29810" d="M195.52,289.579c0,.091-11.744.169-26.23.169s-26.23-.078-26.23-.169,11.744-.169,26.23-.169S195.52,289.481,195.52,289.579Z" transform="translate(-85.26 -142.589)" fill="#263238"/>
        <path id="Path_29811" data-name="Path 29811" d="M226.806,300.1a66.419,66.419,0,0,1,0-9.456,66.419,66.419,0,0,1,0,9.456Z" transform="translate(-114.66 -143.021)" fill="#263238"/>
        <path id="Path_29812" data-name="Path 29812" d="M198.787,306.118c0,.1-11.906.169-26.573.169s-26.573-.071-26.573-.169,11.9-.169,26.573-.169S198.787,306.028,198.787,306.118Z" transform="translate(-86.167 -148.409)" fill="#263238"/>
        <path id="Path_29813" data-name="Path 29813" d="M150.048,296.731a.6.6,0,0,1,.344-.181,1.3,1.3,0,0,1,1.031.233,1.335,1.335,0,0,1,.486.583,1.244,1.244,0,0,1,.039.881,1.62,1.62,0,0,1-1.543,1.134,1.763,1.763,0,0,1-1.53-1.16,1.711,1.711,0,0,1,.2-1.555,1.879,1.879,0,0,1,.791-.687c.227-.1.369-.1.376-.084a2.748,2.748,0,0,0-.966.894,1.517,1.517,0,0,0-.11,1.3,1.478,1.478,0,0,0,1.251.933,1.3,1.3,0,0,0,1.231-.888,1.044,1.044,0,0,0-.369-1.186,1.3,1.3,0,0,0-.868-.292C150.216,296.692,150.061,296.757,150.048,296.731Z" transform="translate(-87.269 -144.868)" fill="#263238"/>
        <path id="Path_29814" data-name="Path 29814" d="M159.354,334.295a.72.72,0,0,1-.2.052,4.284,4.284,0,0,1-.6.071,5.678,5.678,0,0,1-2.184-.331,6.766,6.766,0,0,1-2.742-1.789,5.879,5.879,0,0,1-.694-7.5,6.824,6.824,0,0,1,2.372-2.262,5.606,5.606,0,0,1,2.087-.719,3.1,3.1,0,0,1,.6-.039h.207a7.706,7.706,0,0,0-2.768.953,6.734,6.734,0,0,0-2.23,2.223,5.665,5.665,0,0,0,.648,7.129,6.838,6.838,0,0,0,2.593,1.776A7.779,7.779,0,0,0,159.354,334.295Z" transform="translate(-88.37 -153.978)" fill="#0091ff"/>
        <path id="Path_29815" data-name="Path 29815" d="M200.68,340.518c0,.1-7.356.175-16.43.175s-16.43-.078-16.43-.175,7.356-.169,16.43-.169S200.68,340.428,200.68,340.518Z" transform="translate(-93.972 -160.513)" fill="#0091ff"/>
        <path id="Path_29816" data-name="Path 29816" d="M198.712,332.766a7.435,7.435,0,0,0,1.821-.94,5.963,5.963,0,0,0,1.594-1.763,5.5,5.5,0,0,0,.752-3.02,5.762,5.762,0,0,0-1.342-3.5,7.071,7.071,0,0,0-3.74-2.145,19.781,19.781,0,0,0-4.874-.447l-5.308.065-18.647.162h-7.181a4.388,4.388,0,0,1-.538,0,3.239,3.239,0,0,1,.538-.045l1.536-.045,5.645-.123,18.64-.259,5.315-.058a20.235,20.235,0,0,1,4.952.473,7.324,7.324,0,0,1,3.889,2.275,6,6,0,0,1,1.368,3.662,5.7,5.7,0,0,1-.83,3.13,6.111,6.111,0,0,1-1.679,1.776,5.477,5.477,0,0,1-1.381.7c-.169.058-.3.084-.382.11Z" transform="translate(-91.66 -153.577)" fill="#0091ff"/>
        <path id="Path_29817" data-name="Path 29817" d="M197.367,332.043a1.794,1.794,0,0,1-.382.052l-1.108.084-4.077.246-13.462.648a11.666,11.666,0,0,1-4.44-.356c-.681-.246-1.3-.577-1.944-.784a2.754,2.754,0,0,0-1.834-.071c-1.134.421-1.944,1.471-3.092,1.737-1.128.389-2.4-.681-2.016-1.672l.1.136a1.517,1.517,0,0,0-1.3,1.769H163.7v-1.089a1.3,1.3,0,0,1,.032-.376,2.465,2.465,0,0,1,0,.376,9.908,9.908,0,0,0,.045,1.082v.577l-.149-.557a1.53,1.53,0,0,1,.181-1.173,1.653,1.653,0,0,1,1.251-.836h.169l-.065.156a1,1,0,0,0,.4,1.1,1.458,1.458,0,0,0,1.361.246,4.368,4.368,0,0,0,1.452-.784,6.482,6.482,0,0,1,1.607-.985,3.072,3.072,0,0,1,2.029.052c.648.22,1.3.544,1.944.778a11.516,11.516,0,0,0,4.31.331l13.468-.583,4.083-.136h1.108A1.478,1.478,0,0,1,197.367,332.043Z" transform="translate(-92.48 -157.372)" fill="#263238"/>
        <path id="Path_29818" data-name="Path 29818" d="M198.363,349c0,.1-9.916.169-22.147.169S154.07,349.1,154.07,349s9.91-.169,22.147-.169S198.363,348.94,198.363,349Z" transform="translate(-89.134 -163.497)" fill="#0091ff"/>
        <path id="Path_29819" data-name="Path 29819" d="M143.9,134.548a6.082,6.082,0,0,1,.162,1.206c.071.765.156,1.854.246,3.15v.143h-.149l-3.461.408-2.424.259h-.169v-.175c-.058-1.568-.1-2.923-.11-3.889a8,8,0,0,1,.039-1.53,8.056,8.056,0,0,1,.162,1.517c.071.959.149,2.314.227,3.889l-.175-.149,2.424-.279,3.461-.369-.13.156c-.065-1.3-.11-2.385-.13-3.15a6.041,6.041,0,0,1,.026-1.186Z" transform="translate(-83.472 -87.947)" fill="#263238"/>
        <path id="Path_29820" data-name="Path 29820" d="M139.5,130.11a30.6,30.6,0,0,1-2.716,2.275A31.674,31.674,0,0,1,134,134.576a22.8,22.8,0,0,1,5.5-4.466Z" transform="translate(-82.072 -86.536)" fill="#263238"/>
        <path id="Path_29821" data-name="Path 29821" d="M147.717,134.446a34.378,34.378,0,0,1-5.237-4.336,34.555,34.555,0,0,1,5.237,4.336Z" transform="translate(-85.056 -86.536)" fill="#263238"/>
        <rect id="Rectangle_2454" data-name="Rectangle 2454" width="12.386" height="12.386" transform="matrix(0.996, 0.093, -0.093, 0.996, 77.686, 9.028)" fill="#0091ff"/>
        <path id="Path_29822" data-name="Path 29822" d="M181.122,88.093a5.49,5.49,0,0,1,0-1.342V86.1a1.07,1.07,0,0,1,.11-.421.914.914,0,0,1,.337-.331,7.776,7.776,0,0,0,.739-.4,1.419,1.419,0,0,0,.486-.648,1.251,1.251,0,0,0-.4-1.419,1.556,1.556,0,0,0-1.238-.376,2.32,2.32,0,0,0-1.141.544.76.76,0,0,1,.2-.318,1.815,1.815,0,0,1,.907-.467,1.8,1.8,0,0,1,1.471.376,1.646,1.646,0,0,1,.538.765,1.51,1.51,0,0,1,0,1.011,1.75,1.75,0,0,1-.609.8,7.206,7.206,0,0,1-.778.389.583.583,0,0,0-.324.512l-.071.648A5.575,5.575,0,0,1,181.122,88.093Z" transform="translate(-98.265 -69.693)" fill="#263238"/>
        <path id="Path_29823" data-name="Path 29823" d="M181.292,92.317v.143c0,.045,0,0,.058,0h0a.582.582,0,0,1-.039-.143c0-.045.084-.11.214,0a.272.272,0,0,1,.1.266.331.331,0,0,1-.59.117.285.285,0,0,1,0-.285C181.169,92.246,181.286,92.272,181.292,92.317Z" transform="translate(-98.61 -73.217)" fill="#263238"/>
        <rect id="Rectangle_2455" data-name="Rectangle 2455" width="11.874" height="11.874" transform="translate(7.386 1.752) rotate(-7.53)" fill="#0091ff"/>
        <rect id="Rectangle_2456" data-name="Rectangle 2456" width="11.922" height="11.922" transform="translate(22.354 16.08) rotate(5.143)" fill="#0091ff"/>
        <rect id="Rectangle_2457" data-name="Rectangle 2457" width="11.874" height="11.874" transform="matrix(0.996, 0.093, -0.093, 0.996, 43.095, 14.587)" fill="#263238"/>
        <rect id="Rectangle_2458" data-name="Rectangle 2458" width="11.874" height="11.874" transform="translate(35.382 0)" fill="#0091ff"/>
        <rect id="Rectangle_2459" data-name="Rectangle 2459" width="11.874" height="11.874" transform="translate(51.429 0)" fill="#0091ff"/>
        <rect id="Rectangle_2460" data-name="Rectangle 2460" width="11.874" height="11.874" transform="translate(21.9 0.201)" fill="#455a64"/>
        <path id="Path_29824" data-name="Path 29824" d="M112.715,100.576a10.137,10.137,0,0,1-2.593.169,10.137,10.137,0,0,1-2.593-.169,9.793,9.793,0,0,1,2.593-.169A9.793,9.793,0,0,1,112.715,100.576Z" transform="translate(-72.758 -76.077)" fill="#263238"/>
        <path id="Path_29825" data-name="Path 29825" d="M112.56,98.816c.058-.078.856.48,2,.817l.292.084-.227.2-.084.071a7.888,7.888,0,0,1-1.828,1.406,7.732,7.732,0,0,1,1.607-1.653l.084-.078.058.285a3.539,3.539,0,0,1-1.9-1.134Z" transform="translate(-74.528 -75.522)" fill="#263238"/>
        <path id="Path_29826" data-name="Path 29826" d="M105.5,130.337a7.59,7.59,0,0,1-1.134.058l-3.092.071c-.648,0-1.355.091-2.139.084a7.46,7.46,0,0,1-2.456-.4,4.122,4.122,0,0,1-2.165-1.711,7.058,7.058,0,0,1-.868-2.826c-.408-3.973-.713-7.564-.933-10.163-.1-1.264-.181-2.3-.246-3.085a7.129,7.129,0,0,1-.039-1.134,6.909,6.909,0,0,1,.175,1.147c.084.784.2,1.815.344,3.072.272,2.651.648,6.209,1.037,10.143a6.7,6.7,0,0,0,.817,2.7,3.8,3.8,0,0,0,1.99,1.588,7.265,7.265,0,0,0,2.353.415c.752,0,1.471-.052,2.126-.045,1.3,0,2.366,0,3.1.032A7.706,7.706,0,0,1,105.5,130.337Z" transform="translate(-67.441 -79.893)" fill="#263238"/>
        <path id="Path_29827" data-name="Path 29827" d="M110.8,141.674a5.885,5.885,0,0,1,1.718-1.763l.117-.091v.285a4.278,4.278,0,0,1-1.808-1.458c.065-.071.83.6,1.944,1.154l.246.123-.22.162-.11.091a20.252,20.252,0,0,1-1.886,1.5Z" transform="translate(-73.908 -89.538)" fill="#263238"/>
        <rect id="Rectangle_2461" data-name="Rectangle 2461" width="11.44" height="11.44" transform="matrix(0.996, 0.093, -0.093, 0.996, 14.678, 115.474)" fill="#0091ff"/>
        <rect id="Rectangle_2462" data-name="Rectangle 2462" width="11.44" height="11.44" transform="translate(0 82.566)" fill="#455a64"/>
        <rect id="Rectangle_2463" data-name="Rectangle 2463" width="11.44" height="11.44" transform="translate(14.79 66.388)" fill="#0091ff"/>
        <rect id="Rectangle_2464" data-name="Rectangle 2464" width="11.468" height="11.468" transform="translate(15.102 82.074) rotate(-4.004)" fill="#e0e0e0"/>
        <rect id="Rectangle_2465" data-name="Rectangle 2465" width="11.44" height="11.44" transform="matrix(0.996, 0.093, -0.093, 0.996, 15.348, 97.492)" fill="#263238"/>
        <path id="Path_29828" data-name="Path 29828" d="M97.345,232.971s.46-.337,1.3-.953a22.191,22.191,0,0,0,3.137-2.943,22.593,22.593,0,0,0,3.468-5.334,21.22,21.22,0,0,0,1.938-7.525,16.281,16.281,0,0,0-1.3-7.59,11.627,11.627,0,0,0-3.96-4.861,10.15,10.15,0,0,0-3.889-1.679c-1-.181-1.575-.156-1.568-.194a1.628,1.628,0,0,1,.408,0,6.767,6.767,0,0,1,1.18.084,9.955,9.955,0,0,1,4.025,1.607,11.718,11.718,0,0,1,4.1,4.932,16.359,16.359,0,0,1,1.3,7.778,20.967,20.967,0,0,1-1.99,7.622,22.127,22.127,0,0,1-3.565,5.354,20.093,20.093,0,0,1-3.241,2.891c-.408.311-.758.5-.985.648a1.658,1.658,0,0,1-.356.162Z" transform="translate(-68.866 -111.79)" fill="#263238"/>
        <path id="Path_29829" data-name="Path 29829" d="M101.264,249.167a24.549,24.549,0,0,1-4.083.4h-.2v-.2a24.565,24.565,0,0,1,.648-4.038,25.128,25.128,0,0,1-.337,4.077l-.175-.188h0a25.278,25.278,0,0,1,4.148-.052Z" transform="translate(-69.046 -127.078)" fill="#263238"/>
        <path id="Path_29830" data-name="Path 29830" d="M129.452,179.119c0,.091-6.611.169-14.758.169s-14.764-.078-14.764-.169,6.611-.169,14.764-.169S129.452,179.028,129.452,179.119Z" transform="translate(-70.084 -103.721)" fill="#263238"/>
        <path id="Path_29831" data-name="Path 29831" d="M143.028,180.432a12.82,12.82,0,0,1,1.737-2.333l.078-.1.039.253a11.984,11.984,0,0,1-2.281-1.594,12.1,12.1,0,0,1,2.456,1.3l.169.1-.123.149-.078.091A12.361,12.361,0,0,1,143.028,180.432Z" transform="translate(-85.098 -102.916)" fill="#263238"/>
        <path id="Path_29832" data-name="Path 29832" d="M243.188,298.893a57,57,0,0,1-6.151.169,57.078,57.078,0,0,1-6.157-.169,54.118,54.118,0,0,1,6.157-.175,54.04,54.04,0,0,1,6.151.175Z" transform="translate(-116.161 -145.856)" fill="#263238"/>
        <path id="Path_29833" data-name="Path 29833" d="M248.232,300.591c-.045,0,0-.35.162-.894a6.63,6.63,0,0,1,1.011-2v.181l-.149-.285a27.953,27.953,0,0,0-1.886-2.819,6.6,6.6,0,0,1,2.184,2.657l.149.292.052.1-.065.084a18.269,18.269,0,0,0-1.458,2.683Z" transform="translate(-121.963 -144.476)" fill="#263238"/>
        <rect id="Rectangle_2466" data-name="Rectangle 2466" width="16.826" height="16.826" transform="translate(129.579 146.731) rotate(-3.75)" fill="#0091ff"/>
        <path id="Path_29834" data-name="Path 29834" d="M268.781,299.283a2.528,2.528,0,1,0-3.921-.6h0l-.512.48.123.856-.8-.227-.648.6.123.856-.8-.227-.557.518.078.518-.486-.136-.324.3-.045.791,1.18.292,3.824-3.571A2.521,2.521,0,0,0,268.781,299.283Zm-.369-3.111a13.249,13.249,0,1,0-.019,0Z" transform="translate(-126.762 -144.522)" fill="none"/>
        <path id="Path_29835" data-name="Path 29835" d="M271.629,296.67a1.3,1.3,0,0,0-.59-.11.648.648,0,0,0-.447.344.577.577,0,0,0,.726.784.6.6,0,0,0,.376-.421c.084-.35-.11-.57-.065-.6s.331.13.3.648a.83.83,0,0,1-.486.648.875.875,0,0,1-1.128-1.212.836.836,0,0,1,.7-.434C271.519,296.326,271.668,296.664,271.629,296.67Z" transform="translate(-130 -145.02)" fill="#fff"/>
        <path id="Path_29836" data-name="Path 29836" d="M268.693,299.206a1.116,1.116,0,0,1-.13.149,2.716,2.716,0,0,1-.486.337,2.593,2.593,0,0,1-2.184.065H266l-3.792,3.591-.058.052h-.084l-1.18-.292h-.13v-.13c0-.246.032-.519.045-.791v-.065l.045-.045.324-.3.065-.065h.091l.486.136-.207.181-.078-.518v-.091l.065-.058.551-.518.071-.058h.091l.8.227-.214.188c-.039-.272-.078-.564-.123-.856v-.091l.065-.058.175-.162.473-.441.065-.065h.091l.8.227-.214.188c-.039-.292-.084-.577-.123-.856V299l.065-.058.518-.48-.032.207a2.7,2.7,0,0,1-.117-2.4,2.637,2.637,0,0,1,4.8-.078,2.593,2.593,0,0,1-.071,2.366,1.808,1.808,0,0,1-.57.648,5.666,5.666,0,0,0,.467-.713,2.489,2.489,0,0,0,0-2.21,2.4,2.4,0,0,0-4.342.123,2.366,2.366,0,0,0,.117,2.113l.065.117-.1.091-.512.48.052-.149c.039.285.084.57.123.856l.039.259-.246-.071-.8-.227.162-.039-.473.447-.169.156.052-.149c.039.3.084.583.123.856v.259l-.246-.071-.8-.227.156-.039-.551.518.052-.149a4.278,4.278,0,0,0,.071.525l.039.246-.246-.065-.486-.143.156-.032-.324.3.052-.11c0,.272-.032.544-.052.791l-.117-.162,1.173.3-.136.032,3.889-3.532.045-.045H266a2.515,2.515,0,0,0,2.055,0,6.114,6.114,0,0,0,.642-.33Z" transform="translate(-126.674 -144.445)" fill="#fff"/>
        <path id="Path_29837" data-name="Path 29837" d="M268.781,299.283a2.528,2.528,0,1,0-3.921-.6h0l-.512.48.123.856-.8-.227-.648.6.123.856-.8-.227-.557.518.078.518-.486-.136-.324.3-.045.791,1.18.292,3.824-3.571A2.521,2.521,0,0,0,268.781,299.283Zm-.369-3.111a13.249,13.249,0,1,0-.019,0Z" transform="translate(-126.762 -144.522)" fill="none"/>
        <path id="Path_29838" data-name="Path 29838" d="M271.629,296.67a1.3,1.3,0,0,0-.59-.11.648.648,0,0,0-.447.344.577.577,0,0,0,.726.784.6.6,0,0,0,.376-.421c.084-.35-.11-.57-.065-.6s.331.13.3.648a.83.83,0,0,1-.486.648.875.875,0,0,1-1.128-1.212.836.836,0,0,1,.7-.434C271.519,296.326,271.668,296.664,271.629,296.67Z" transform="translate(-130 -145.02)" fill="#fff"/>
        <path id="Path_29839" data-name="Path 29839" d="M268.693,299.206a1.116,1.116,0,0,1-.13.149,2.716,2.716,0,0,1-.486.337,2.593,2.593,0,0,1-2.184.065H266l-3.792,3.591-.058.052h-.084l-1.18-.292h-.13v-.13c0-.246.032-.519.045-.791v-.065l.045-.045.324-.3.065-.065h.091l.486.136-.207.181-.078-.518v-.091l.065-.058.551-.518.071-.058h.091l.8.227-.214.188c-.039-.272-.078-.564-.123-.856v-.091l.065-.058.175-.162.473-.441.065-.065h.091l.8.227-.214.188c-.039-.292-.084-.577-.123-.856V299l.065-.058.518-.48-.032.207a2.7,2.7,0,0,1-.117-2.4,2.637,2.637,0,0,1,4.8-.078,2.593,2.593,0,0,1-.071,2.366,1.808,1.808,0,0,1-.57.648,5.666,5.666,0,0,0,.467-.713,2.489,2.489,0,0,0,0-2.21,2.4,2.4,0,0,0-4.342.123,2.366,2.366,0,0,0,.117,2.113l.065.117-.1.091-.512.48.052-.149c.039.285.084.57.123.856l.039.259-.246-.071-.8-.227.162-.039-.473.447-.169.156.052-.149c.039.3.084.583.123.856v.259l-.246-.071-.8-.227.156-.039-.551.518.052-.149a4.278,4.278,0,0,0,.071.525l.039.246-.246-.065-.486-.143.156-.032-.324.3.052-.11c0,.272-.032.544-.052.791l-.117-.162,1.173.3-.136.032,3.889-3.532.045-.045H266a2.515,2.515,0,0,0,2.055,0,6.114,6.114,0,0,0,.642-.33Z" transform="translate(-126.674 -144.445)" fill="#fff"/>
        <path id="Path_29840" data-name="Path 29840" d="M258.47,314.2a1.943,1.943,0,0,1,.045.415c0,.311.045.706.078,1.2.052,1.043.11,2.56.156,4.427s.065,4.09.052,6.566c0,1.231,0,2.528-.058,3.889a11.967,11.967,0,0,1-.156,2.068,2.936,2.936,0,0,1-1.089,1.886,4.414,4.414,0,0,1-2.042.726c-.7.1-1.374.175-2.048.246q-2,.2-3.889.3c-2.469.13-4.7.13-6.566.071s-3.383-.181-4.42-.285c-.525-.045-.927-.1-1.2-.136a1.687,1.687,0,0,1-.415-.071,2.085,2.085,0,0,1,.421,0l1.2.071c1.044.065,2.554.143,4.414.175s4.09,0,6.553-.143c1.225-.071,2.515-.181,3.85-.324.648-.071,1.348-.149,2.029-.246a4.271,4.271,0,0,0,1.893-.648,2.638,2.638,0,0,0,.966-1.685,12.31,12.31,0,0,0,.149-2.016q.039-2.016.078-3.889c.032-2.469.032-4.692,0-6.559s-.039-3.331-.052-4.42v-1.206A1.7,1.7,0,0,1,258.47,314.2Z" transform="translate(-118.286 -151.312)" fill="#263238"/>
        <path id="Path_29841" data-name="Path 29841" d="M239.926,348.68a13.4,13.4,0,0,1-1.471-.849,35.271,35.271,0,0,0-3.675-1.944l-.24-.1.194-.175.344-.3c1.3-1.16,2.508-2.2,3.383-2.936a10.41,10.41,0,0,1,1.465-1.147,9.5,9.5,0,0,1-1.3,1.3c-.836.784-2.009,1.847-3.318,3.007l-.344.311-.045-.279a25.409,25.409,0,0,1,3.662,2.029A6.651,6.651,0,0,1,239.926,348.68Z" transform="translate(-117.449 -160.819)" fill="#263238"/>
        <path id="Path_29842" data-name="Path 29842" d="M218.877,127.369a4.673,4.673,0,0,1,1.808,0,6.818,6.818,0,0,1,4.161,2.541,6.274,6.274,0,0,1,1.3,3.156,6.9,6.9,0,0,1-.071,1.944,7.641,7.641,0,0,1-3.6,5.114,7.427,7.427,0,0,1-4.537.907,8.464,8.464,0,0,1-4.3-1.782,7.868,7.868,0,0,1-2.5-3.539,7.583,7.583,0,0,1-.318-3.889,5.976,5.976,0,0,1,1.575-3.04,6.267,6.267,0,0,1,2.366-1.536,5.58,5.58,0,0,1,2.106-.356,4.855,4.855,0,0,1,1.329.214,2.236,2.236,0,0,1,.428.181,6.429,6.429,0,0,0-1.763-.266,5.717,5.717,0,0,0-2.029.4,6.222,6.222,0,0,0-2.268,1.523,5.742,5.742,0,0,0-1.465,2.93,7.35,7.35,0,0,0,.331,3.759,7.667,7.667,0,0,0,2.418,3.39,8.179,8.179,0,0,0,4.135,1.7,7.129,7.129,0,0,0,4.355-.856,7.207,7.207,0,0,0,2.839-3.033,7.432,7.432,0,0,0,.648-1.847,6.825,6.825,0,0,0,.084-1.841,6.1,6.1,0,0,0-1.225-3.046,6.831,6.831,0,0,0-3.992-2.554A9.723,9.723,0,0,0,218.877,127.369Z" transform="translate(-109.058 -85.402)" fill="#0091ff"/>
        <path id="Path_29843" data-name="Path 29843" d="M242.175,114.39a2.411,2.411,0,0,1-.071.694,10.009,10.009,0,0,1-.531,1.828,11.375,11.375,0,0,1-9.586,7.2,9.6,9.6,0,0,1-1.9,0A2.541,2.541,0,0,1,229.4,124c0-.065.992.078,2.56-.123a11.757,11.757,0,0,0,9.391-7.052C241.974,115.369,242.1,114.377,242.175,114.39Z" transform="translate(-115.64 -81.005)" fill="#0091ff"/>
        <path id="Path_29844" data-name="Path 29844" d="M249.49,114.988a7.019,7.019,0,0,1-1.3-1.679h.259l-.078.078a7.485,7.485,0,0,1-1.666,1.484,7.265,7.265,0,0,1,1.426-1.718l.078-.078.149-.156.11.181a6.883,6.883,0,0,1,1.018,1.886Z" transform="translate(-121.731 -80.487)" fill="#0091ff"/>
        <rect id="Rectangle_2467" data-name="Rectangle 2467" width="10.649" height="10.649" transform="translate(134.027 42.077)" fill="#0091ff"/>
        <rect id="Rectangle_2468" data-name="Rectangle 2468" width="10.649" height="10.649" transform="translate(133.564 31.281) rotate(-7.53)" fill="#0091ff"/>
        <rect id="Rectangle_2469" data-name="Rectangle 2469" width="10.649" height="10.649" transform="translate(131.904 19.833) rotate(-7.53)" fill="#455a64"/>
        <rect id="Rectangle_2470" data-name="Rectangle 2470" width="10.649" height="10.649" transform="translate(117.316 18.409) rotate(8.05)" fill="#0091ff"/>
        <path id="Path_29845" data-name="Path 29845" d="M255.406,102.123a11.413,11.413,0,0,1-2.742.24,11.186,11.186,0,0,1-2.755-.1,11.5,11.5,0,0,1,2.748-.24A11.083,11.083,0,0,1,255.406,102.123Z" transform="translate(-122.857 -76.639)" fill="#0091ff"/>
        <path id="Path_29846" data-name="Path 29846" d="M139.456,129.1a3.008,3.008,0,0,1,.428.1,4.537,4.537,0,0,1,1.121.557,6.047,6.047,0,0,1,2.191,7,7.68,7.68,0,0,1-2.055,3.04,8.244,8.244,0,0,1-3.565,1.944,7.991,7.991,0,0,1-4.342-.1,6.164,6.164,0,0,1-3.422-2.651,7.129,7.129,0,0,1-1.024-3.921,6.98,6.98,0,0,1,1.037-3.513,7.279,7.279,0,0,1,2.262-2.255,8.354,8.354,0,0,1,4.375-1.329,6.688,6.688,0,0,1,1.251.084,1.769,1.769,0,0,1,.428.091c0,.039-.6-.091-1.672-.045a8.426,8.426,0,0,0-4.252,1.4,7.129,7.129,0,0,0-2.152,2.2,6.721,6.721,0,0,0-.966,3.37,6.831,6.831,0,0,0,.992,3.74,5.833,5.833,0,0,0,3.241,2.5,7.648,7.648,0,0,0,4.161.1,8.011,8.011,0,0,0,3.435-1.834,7.389,7.389,0,0,0,2-2.9,5.833,5.833,0,0,0,.292-3.046,5.9,5.9,0,0,0-2.294-3.753A6.838,6.838,0,0,0,139.456,129.1Z" transform="translate(-80.236 -85.782)" fill="#0091ff"/>
        <path id="Path_29847" data-name="Path 29847" d="M171.774,104.7a1.3,1.3,0,0,1,.045.344c0,.22.045.551.039.972a18.426,18.426,0,0,1-.337,3.578,19.7,19.7,0,0,1-1.679,5.055,19.373,19.373,0,0,1-9.074,9.074,20.157,20.157,0,0,1-5.055,1.685,17.824,17.824,0,0,1-3.578.331,9.223,9.223,0,0,1-.979-.039,1.562,1.562,0,0,1-.337-.039c0-.032.473,0,1.3-.052A20.023,20.023,0,0,0,171.3,109.548a21.584,21.584,0,0,0,.441-3.532A12.664,12.664,0,0,1,171.774,104.7Z" transform="translate(-87.99 -77.595)" fill="#0091ff"/>
        <path id="Path_29848" data-name="Path 29848" d="M184.832,106.65a28.362,28.362,0,0,1-2.683-3.37h.279l-.123.227a29.9,29.9,0,0,1-2.424,3.889,32.167,32.167,0,0,1,2.126-4.038l.13-.227.13-.22.156.207a29.308,29.308,0,0,1,2.411,3.532Z" transform="translate(-98.215 -76.965)" fill="#0091ff"/>
      </g>
      <g id="freepik--Character--inject-29" transform="translate(212.181 84.989)">
        <circle id="Ellipse_309" data-name="Ellipse 309" cx="19.275" cy="19.275" r="19.275" transform="translate(0 52.111) rotate(-69.45)" fill="#0091ff"/>
        <path id="Path_29849" data-name="Path 29849" d="M349.738,185.063l-12.878-3.007.369-1.581a6.611,6.611,0,0,1,7.94-4.939h0a6.617,6.617,0,0,1,4.939,7.946Z" transform="translate(-320.243 -135.152)" fill="#fff"/>
        <path id="Path_29850" data-name="Path 29850" d="M352.552,169.261a3.889,3.889,0,1,1-2.9-4.667A3.889,3.889,0,0,1,352.552,169.261Z" transform="translate(-323.063 -131.327)" fill="#fff"/>
        <path id="Path_29851" data-name="Path 29851" d="M331.924,197.79s-.933-3.753-1.653-4.388a10.722,10.722,0,0,1-2.845-3.934c-.259-.966-.992-.784-.992-.784l.648,3.72-6.248-5.354a2.353,2.353,0,0,0,0,2.145c.59,1.193.35,1.05.35,1.05s-.92.363-.648,1.18a17.168,17.168,0,0,0,.843,1.854,2.2,2.2,0,0,0-.771,1.743,3.83,3.83,0,0,0-.428,1.815c0,1.1,1.575,3.461,1.575,3.461l8.834,6.235,4.77-6.1Z" transform="translate(-314.374 -139.265)" fill="#b78876"/>
        <path id="Path_29852" data-name="Path 29852" d="M327.6,192.54a12.257,12.257,0,0,0,1.769,1.724,12.964,12.964,0,0,0,1.944,1.549,24.631,24.631,0,0,0-3.7-3.273Z" transform="translate(-316.985 -141.196)" fill="#aa6550"/>
        <path id="Path_29853" data-name="Path 29853" d="M321.68,191.316a15.469,15.469,0,0,0,1.465,2.249,15.06,15.06,0,0,0,1.659,2.074,28.13,28.13,0,0,0-3.124-4.349Z" transform="translate(-314.902 -140.757)" fill="#aa6550"/>
        <path id="Path_29854" data-name="Path 29854" d="M321.69,196a4.336,4.336,0,0,0,.648,1.3,4.536,4.536,0,0,0,.849,1.2,4.336,4.336,0,0,0-.648-1.3,4.4,4.4,0,0,0-.849-1.2Z" transform="translate(-314.905 -142.414)" fill="#aa6550"/>
        <path id="Path_29855" data-name="Path 29855" d="M320.882,199.077c-.065.039.1.4.3.836s.382.784.447.758,0-.421-.22-.868S320.953,199.025,320.882,199.077Z" transform="translate(-314.616 -143.495)" fill="#aa6550"/>
        <path id="Path_29856" data-name="Path 29856" d="M381.147,139.843a15.783,15.783,0,0,1,.486-2.333,2.281,2.281,0,0,1,.6-.966c.292-.279.648-.1.914.3a7.285,7.285,0,0,1,0,6.008c-.246.4-.648.57-.914.3a2.32,2.32,0,0,1-.6-.966,15.559,15.559,0,0,1-.486-2.34,1.894,1.894,0,0,0-.052.648,6.481,6.481,0,0,0,.279,1.776,2.541,2.541,0,0,0,.648,1.121.8.8,0,0,0,.784.181,1.3,1.3,0,0,0,.648-.531,7.233,7.233,0,0,0,0-6.4,1.3,1.3,0,0,0-.648-.531.784.784,0,0,0-.784.181,2.541,2.541,0,0,0-.648,1.121,6.481,6.481,0,0,0-.279,1.776,1.808,1.808,0,0,0,.052.655Z" transform="translate(-335.804 -121.327)" fill="#263238"/>
        <path id="Path_29857" data-name="Path 29857" d="M398.909,164.225h0a7.266,7.266,0,0,1-7.829-6.929c-.162-3.954-.3-7.953-.3-7.953s-6-.538-6.449-6.481-.292-19.625-.292-19.625h0a20.656,20.656,0,0,1,20.889,1.3l-.311,20.876.032,11.226C404.619,160.389,402.675,163.927,398.909,164.225Z" transform="translate(-336.832 -116.025)" fill="#b78876"/>
        <path id="Path_29858" data-name="Path 29858" d="M395.218,147.657a.561.561,0,0,0,.084.259.907.907,0,0,0,.648.331,1.64,1.64,0,0,0,1.536-1.646,1.73,1.73,0,0,0-.441-1.251,1.776,1.776,0,0,0-.933-.531c-.609-.13-.959.1-.933.136a7.337,7.337,0,0,1,.856.149,1.491,1.491,0,0,1,1.024,1.478,1.374,1.374,0,0,1-1.108,1.361A1.141,1.141,0,0,1,395.218,147.657Z" transform="translate(-340.763 -124.391)" fill="#aa6550"/>
        <path id="Path_29859" data-name="Path 29859" d="M381.16,141.444a22.354,22.354,0,0,0,3.993.849,21.764,21.764,0,0,0,4.051.467,21.7,21.7,0,0,0-3.993-.849A21.074,21.074,0,0,0,381.16,141.444Z" transform="translate(-335.831 -123.207)" fill="#263238"/>
        <path id="Path_29860" data-name="Path 29860" d="M413.858,132.979a5.444,5.444,0,0,0-3.85-5.3,3.241,3.241,0,0,0-2.113-5.042,5.588,5.588,0,0,0-.648-.065,2.407,2.407,0,0,0-.331-.35c-1.847-1.646-2.029-4.187-4.155-5.457a6.579,6.579,0,0,0-6.812-.039c-1.4-.7-2.7-1.607-4.1-2.314-1.944-.979-4.284-1.562-6.209-.583-1.38.7-2.307,2.081-3.649,2.852-1.944,1.1-4.537.856-5.451,3.681a4.8,4.8,0,0,0,.039,3.014c1.3,3.837,6.073,5.367,9.489,3.7.071.648-.564,2.093.123,4.148.22.648.3,1.653,1.3,1.672a3.019,3.019,0,0,1,4.051-.9,3.455,3.455,0,0,1,1.16,4.31,4.537,4.537,0,0,1-2.9,2.21,2.268,2.268,0,0,0-1.776,2.456c.175,1.491,2.651,2.042,3.772,3.241,1.743,1.912,5.561,2.716,8.134,3.007,2.184.253,2.255.3,3.176-1.031a6.17,6.17,0,0,0,2.029-.311,7,7,0,0,0,4.4-7.979,5.425,5.425,0,0,0,4.329-4.919Z" transform="translate(-334.126 -113.322)" fill="#263238"/>
        <path id="Path_29861" data-name="Path 29861" d="M408.5,141.053a3.6,3.6,0,0,1-.8.175,4.537,4.537,0,0,1-2.217-.311,4.381,4.381,0,0,1-2.4-2.249,4.705,4.705,0,0,1,.039-3.992l.058-.117.065.1a10.934,10.934,0,0,1-4.025-.266,5.062,5.062,0,0,1-2.709-1.808,3.8,3.8,0,0,1-.8-2.048,2.4,2.4,0,0,1,.058-.81,5.485,5.485,0,0,0,0,.8,3.889,3.889,0,0,0,.823,2,5.023,5.023,0,0,0,2.67,1.75,11.109,11.109,0,0,0,3.98.246h.117l-.052.11-.052.11a4.576,4.576,0,0,0-.045,3.889,4.323,4.323,0,0,0,2.314,2.217,4.706,4.706,0,0,0,2.178.343C408.206,141.131,408.491,141.033,408.5,141.053Z" transform="translate(-340.944 -119.096)" fill="#455a64"/>
        <path id="Path_29862" data-name="Path 29862" d="M416.9,133.408a8.229,8.229,0,0,0,.531-.648,4.77,4.77,0,0,0,.784-2.145,4.44,4.44,0,0,0-.843-3.208,4.673,4.673,0,0,0-3.623-1.75,4.362,4.362,0,0,0-1.672.311l-.078.039v-.091a4.407,4.407,0,0,0-1.769-2.962,4.232,4.232,0,0,0-2.677-.8,4.583,4.583,0,0,0-1.834.473c-.4.2-.59.356-.6.343a3.239,3.239,0,0,1,.577-.389,4.388,4.388,0,0,1,1.847-.512,4.258,4.258,0,0,1,2.755.791,4.537,4.537,0,0,1,1.828,3.046l-.091-.058a4.486,4.486,0,0,1,1.724-.324,4.77,4.77,0,0,1,3.72,1.808,4.537,4.537,0,0,1,.843,3.3,4.706,4.706,0,0,1-.836,2.158,3.171,3.171,0,0,1-.59.622Z" transform="translate(-344.262 -116.396)" fill="#455a64"/>
        <path id="Path_29863" data-name="Path 29863" d="M409.259,153.025a1.617,1.617,0,0,1-.24.169,2.145,2.145,0,0,1-.771.246,2.483,2.483,0,0,1-1.225-.149,2.275,2.275,0,0,1-1.193-1h.1a4.012,4.012,0,0,1-3.448.888,3.921,3.921,0,0,1-2.366-1.575,2.229,2.229,0,0,1-.214-.369,4.648,4.648,0,0,0,1.076,1.134,3.973,3.973,0,0,0,1.53.687,3.889,3.889,0,0,0,2.042-.13,3.947,3.947,0,0,0,1.3-.732l.058-.052.039.071a2.21,2.21,0,0,0,1.121.959,2.5,2.5,0,0,0,1.18.175,2.723,2.723,0,0,0,1.018-.318Z" transform="translate(-342.425 -126.661)" fill="#455a64"/>
        <path id="Path_29864" data-name="Path 29864" d="M423.713,141.9a3.6,3.6,0,0,0-2.592-2.009c-1.115-.207-3.13.953-3.13.953a1.3,1.3,0,0,0-.784-.6,2.7,2.7,0,0,0-2.418,4.492,2.716,2.716,0,1,0,3.811,3.532,2.852,2.852,0,0,0,4.537-3.377A2.5,2.5,0,0,0,423.713,141.9Z" transform="translate(-347.189 -122.661)" fill="#0091ff"/>
        <path id="Path_29865" data-name="Path 29865" d="M417.505,145.148a5.961,5.961,0,0,0-1.3-1.231,3.318,3.318,0,0,0-1.141-.48c-.318-.058-.518-.039-.518-.065a1.115,1.115,0,0,1,.531,0,2.845,2.845,0,0,1,1.206.46,3.732,3.732,0,0,1,.933.875A1.554,1.554,0,0,1,417.505,145.148Z" transform="translate(-347.58 -123.885)" fill="#fff"/>
        <path id="Path_29866" data-name="Path 29866" d="M419,140.47a1.445,1.445,0,0,1,.356.4,4.536,4.536,0,0,1,.583,1.154,2.825,2.825,0,0,1,.1,1.808,5.115,5.115,0,0,0-.22-1.763A8.718,8.718,0,0,0,419,140.47Z" transform="translate(-349.145 -122.875)" fill="#fff"/>
        <path id="Path_29867" data-name="Path 29867" d="M422.776,140.15a1.828,1.828,0,0,1,.181,1.419,1.944,1.944,0,0,1-.778,1.212,3.642,3.642,0,0,0,.648-1.238A3.28,3.28,0,0,0,422.776,140.15Z" transform="translate(-350.264 -122.762)" fill="#fff"/>
        <path id="Path_29868" data-name="Path 29868" d="M425.821,140.25a2.191,2.191,0,0,1-.136,1.607,1.99,1.99,0,0,1-.791.849.953.953,0,0,1-.454.156,2.463,2.463,0,0,0,1.121-1.063,3.423,3.423,0,0,0,.253-1.082C425.833,140.431,425.8,140.256,425.821,140.25Z" transform="translate(-351.06 -122.797)" fill="#fff"/>
        <path id="Path_29869" data-name="Path 29869" d="M414.11,148.54a1.808,1.808,0,0,1,1.225-.376,2.385,2.385,0,0,1,1.264.227,9.071,9.071,0,0,0-1.264-.091A4.089,4.089,0,0,0,414.11,148.54Z" transform="translate(-347.425 -125.578)" fill="#fff"/>
        <path id="Path_29870" data-name="Path 29870" d="M414.11,152.28a.972.972,0,0,1,.123-.434,2.242,2.242,0,0,1,.648-.888,1.75,1.75,0,0,1,1.5-.272,2.761,2.761,0,0,0-1.419.382,2.45,2.45,0,0,0-.648.817A3.152,3.152,0,0,1,414.11,152.28Z" transform="translate(-347.425 -126.447)" fill="#fff"/>
        <path id="Path_29871" data-name="Path 29871" d="M434.232,147.272a4.085,4.085,0,0,0,.648-.136A2.748,2.748,0,0,0,436.319,146a2.93,2.93,0,0,0,.331-2.638,4.167,4.167,0,0,0-2.268-2.385,6.164,6.164,0,0,0-3.344-.35,10.564,10.564,0,0,0-2.67.817c-.732.318-1.3.616-1.7.823l-.46.227-.162.078a1.02,1.02,0,0,1,.149-.1l.447-.259c.4-.214.959-.525,1.692-.862a10.778,10.778,0,0,1,2.69-.849,6.125,6.125,0,0,1,3.416.35,4.245,4.245,0,0,1,2.333,2.469,3.131,3.131,0,0,1,.136,1.51,3.046,3.046,0,0,1-.506,1.218,2.78,2.78,0,0,1-1.5,1.134A1.782,1.782,0,0,1,434.232,147.272Z" transform="translate(-351.623 -122.851)" fill="#455a64"/>
        <path id="Path_29872" data-name="Path 29872" d="M430.766,147.388c1.88-.382,2.748-2.9,1.867-4.6a5.045,5.045,0,0,0-4.887-2.353,11.923,11.923,0,0,0-5.289,2.1,2.962,2.962,0,0,0-3.753,1.426,2.975,2.975,0,0,0-1.128,5.833,4.971,4.971,0,1,0,7.706,5.781,4.939,4.939,0,0,0,5.483-8.186Z" transform="translate(-347.851 -122.858)" fill="#263238"/>
        <path id="Path_29873" data-name="Path 29873" d="M432.578,153.092a1.413,1.413,0,0,1,0,.687,2.255,2.255,0,0,1-1.219,1.426,4.446,4.446,0,0,1-2.9.35,4.9,4.9,0,0,1-3.1-2.048l.117-.032a3.059,3.059,0,0,1-1.607,2.489,3.37,3.37,0,0,1-3.208,0,4.329,4.329,0,0,1-1.944-1.944,3.112,3.112,0,0,1-.292-1.3,1.815,1.815,0,0,1,.473-1.206l.058.1a2.949,2.949,0,0,1-2.761-4.913,3.027,3.027,0,0,1,1.893-.888,1.944,1.944,0,0,1,.752.045,3.889,3.889,0,0,0-.752,0,3.007,3.007,0,0,0-1.834.9,2.852,2.852,0,0,0,2.677,4.738l.2-.039-.143.149a2.145,2.145,0,0,0-.149,2.372,4.187,4.187,0,0,0,1.9,1.906,3.241,3.241,0,0,0,3.085,0,2.949,2.949,0,0,0,1.549-2.379v-.194l.1.162a4.835,4.835,0,0,0,3.02,2.016,4.427,4.427,0,0,0,2.839-.318,2.262,2.262,0,0,0,1.212-1.374A2.118,2.118,0,0,0,432.578,153.092Z" transform="translate(-347.875 -124.751)" fill="#455a64"/>
        <path id="Path_29874" data-name="Path 29874" d="M433.121,147.736a1.549,1.549,0,0,0,.279-.648,1.905,1.905,0,0,0-.694-1.718,4.226,4.226,0,0,0-6.429,1.141l-.11.207v-.233a3.2,3.2,0,0,0-1.6-2.56,2.936,2.936,0,0,0-2.45-.207,3.241,3.241,0,0,0-1.4.933c-.266.3-.363.506-.376.5a2.079,2.079,0,0,1,.337-.531,3.24,3.24,0,0,1,1.406-.985,3.014,3.014,0,0,1,2.541.188,3.279,3.279,0,0,1,1.672,2.657l-.123-.032a4.537,4.537,0,0,1,.648-.875,4.291,4.291,0,0,1,5.969-.272,1.944,1.944,0,0,1,.68,1.8,1.3,1.3,0,0,1-.207.5A.649.649,0,0,1,433.121,147.736Z" transform="translate(-349.617 -123.919)" fill="#455a64"/>
        <path id="Path_29875" data-name="Path 29875" d="M431.226,157.759a2.589,2.589,0,0,1-.071.564,3.779,3.779,0,0,1-.648,1.439,3.714,3.714,0,0,1-1.99,1.387,3.889,3.889,0,0,1-3.072-.447h.084a5.71,5.71,0,0,1-4.893,3.046,5.626,5.626,0,0,1-4.608-2.392,4.822,4.822,0,0,1-.784-4.187,2.994,2.994,0,0,1,2.029-2,2.2,2.2,0,0,1,.8-.071,1.154,1.154,0,0,1,.279.045,2.592,2.592,0,0,0-1.056.078,2.929,2.929,0,0,0-1.944,1.983,4.725,4.725,0,0,0,.8,4.077,5.5,5.5,0,0,0,4.537,2.333,5.593,5.593,0,0,0,4.79-2.962v-.065l.058.039a3.8,3.8,0,0,0,2.981.454,3.662,3.662,0,0,0,1.944-1.335,3.94,3.94,0,0,0,.68-1.406C431.175,157.953,431.181,157.759,431.226,157.759Z" transform="translate(-347.761 -128.017)" fill="#455a64"/>
        <path id="Path_29876" data-name="Path 29876" d="M429.3,150.452a1.665,1.665,0,0,1-.272.376,2.891,2.891,0,0,1-1.044.719,2.793,2.793,0,0,1-1.873.084,2.968,2.968,0,0,1-1.763-1.478l.091.032-.285.1a3.305,3.305,0,0,1-2.4-.194,3.111,3.111,0,0,1-1.387-1.406,3.241,3.241,0,0,1-.331-1.3,2,2,0,0,1,.039-.493,3.629,3.629,0,0,0,.376,1.743,3.079,3.079,0,0,0,1.361,1.335,3.163,3.163,0,0,0,2.3.175.894.894,0,0,0,.279-.1h.058v.058a2.865,2.865,0,0,0,1.679,1.419,2.683,2.683,0,0,0,1.8-.058A3.124,3.124,0,0,0,429.3,150.452Z" transform="translate(-349.507 -125.137)" fill="#455a64"/>
        <path id="Path_29877" data-name="Path 29877" d="M438.068,408.28l1.88,34.824-12.613,3.046-2.515-34.014Z" transform="translate(-351.193 -217.108)" fill="#b78876"/>
        <path id="Path_29878" data-name="Path 29878" d="M441.689,461.55l2.145,9.45H429.322l-.622-6.151Z" transform="translate(-352.559 -235.852)" fill="#0091ff"/>
        <path id="Path_29879" data-name="Path 29879" d="M429.2,473.736a10.307,10.307,0,0,0,2.113.123c1.3,0,3.117,0,5.107-.1l5.088-.214a12.189,12.189,0,0,0,2.113-.168,10.118,10.118,0,0,0-2.119-.117c-1.3,0-3.111,0-5.1.1l-5.088.214A11.88,11.88,0,0,0,429.2,473.736Z" transform="translate(-352.734 -239.969)" fill="#263238"/>
        <path id="Path_29880" data-name="Path 29880" d="M438.645,464.39a23.245,23.245,0,0,0,.4,6.092,23.244,23.244,0,0,0-.4-6.092Z" transform="translate(-356.029 -236.852)" fill="#263238"/>
        <g id="Group_1306" data-name="Group 1306" transform="translate(76.628 233.417)" opacity="0.6">
          <path id="Path_29881" data-name="Path 29881" d="M444.1,475.191H429.586l-.136-1.374,14.389-.356.259,1.568" transform="translate(-429.45 -473.46)" fill="#fff"/>
        </g>
        <path id="Path_29882" data-name="Path 29882" d="M363.646,434.4l-3.059,23.074L349.42,456.7l2.346-21.149Z" transform="translate(-324.662 -226.299)" fill="#b78876"/>
        <path id="Path_29883" data-name="Path 29883" d="M342.319,464.94h0s-12.541,4.239-12.749,6.527l23.981.694.214-6.267-.888.175a17.85,17.85,0,0,1-10.558-1.128Z" transform="translate(-317.678 -237.045)" fill="#0091ff"/>
        <g id="Group_1307" data-name="Group 1307" transform="translate(32.138 229.916)" opacity="0.6">
          <path id="Path_29884" data-name="Path 29884" d="M361.956,468.086a.972.972,0,0,1,.648,1.134.933.933,0,0,1-1.121.648,1.031,1.031,0,0,1-.648-1.206.979.979,0,0,1,1.238-.544" transform="translate(-360.807 -468.059)" fill="#fff"/>
        </g>
        <g id="Group_1308" data-name="Group 1308" transform="translate(11.899 233.177)" opacity="0.6">
          <path id="Path_29885" data-name="Path 29885" d="M353.561,475.034V473.09l-22.989.058s-1.082.434-.985,1.193Z" transform="translate(-329.58 -473.09)" fill="#fff"/>
        </g>
        <path id="Path_29886" data-name="Path 29886" d="M348.65,464.679c0,.117.583.188,1.147.583s.862.894.966.849-.045-.726-.732-1.186S348.624,464.569,348.65,464.679Z" transform="translate(-324.391 -236.92)" fill="#263238"/>
        <path id="Path_29887" data-name="Path 29887" d="M344.719,466.194c-.032.117.473.331.856.836s.48,1.037.6,1.031.214-.648-.272-1.3S344.726,466.083,344.719,466.194Z" transform="translate(-323.008 -237.469)" fill="#263238"/>
        <path id="Path_29888" data-name="Path 29888" d="M341.9,469.7c.1,0,.285-.557,0-1.206s-.823-.92-.875-.823.272.447.5.985S341.785,469.679,341.9,469.7Z" transform="translate(-321.707 -237.999)" fill="#263238"/>
        <path id="Path_29889" data-name="Path 29889" d="M349.05,463.612a2.275,2.275,0,0,0,1.206,0,5.064,5.064,0,0,0,1.264-.35,4.984,4.984,0,0,0,.7-.343,1.432,1.432,0,0,0,.376-.272.518.518,0,0,0,.071-.648.648.648,0,0,0-.505-.279,1.608,1.608,0,0,0-.454.045,5.106,5.106,0,0,0-.752.233,4.089,4.089,0,0,0-1.134.7c-.57.5-.771.927-.732.953s.337-.318.914-.726a4.609,4.609,0,0,1,1.089-.577,4.348,4.348,0,0,1,.694-.188c.259-.065.473-.058.538.058s0,.058-.032.13a1.055,1.055,0,0,1-.272.2,5.221,5.221,0,0,1-.648.344,7.167,7.167,0,0,1-1.173.415,7.693,7.693,0,0,0-1.147.3Z" transform="translate(-324.532 -235.911)" fill="#263238"/>
        <path id="Path_29890" data-name="Path 29890" d="M348.474,462.82a1.906,1.906,0,0,0,.35-1.147,3.888,3.888,0,0,0-.123-1.3,4.016,4.016,0,0,0-.285-.739,1,1,0,0,0-.752-.648.564.564,0,0,0-.506.324,1.581,1.581,0,0,0-.136.434,2.45,2.45,0,0,0,0,.81,2.735,2.735,0,0,0,.473,1.257c.454.648.94.791.946.745a5.082,5.082,0,0,1-.7-.9,2.852,2.852,0,0,1-.35-1.141,2.536,2.536,0,0,1,.045-.694c.045-.253.149-.454.24-.428a.867.867,0,0,1,.408.408,4.161,4.161,0,0,1,.48,1.867C348.551,462.367,348.409,462.8,348.474,462.82Z" transform="translate(-323.807 -234.952)" fill="#263238"/>
        <path id="Path_29891" data-name="Path 29891" d="M401.63,254.21s8.853,14.79,8.853,23.637l2.184,107.758-13.993,3.331L388,283.635s-25.822,105.574-26.671,105.574-13.559-2.268-13.559-2.268l19.3-132.219Z" transform="translate(-324.082 -162.896)" fill="#263238"/>
        <path id="Path_29892" data-name="Path 29892" d="M422.366,295.14a1.241,1.241,0,0,0,0,.272,6.458,6.458,0,0,0,.117.791c.11.719.272,1.737.48,3.04.434,2.638,1.037,6.481,1.743,11.174,1.426,9.424,3.2,22.5,4.692,37.021s2.392,27.669,2.91,37.2c.259,4.77.447,8.627.557,11.3.058,1.3.11,2.346.143,3.072,0,.337.032.6.045.8a1.3,1.3,0,0,0,.032.272,1.717,1.717,0,0,0,0-.272v-.8c0-.726-.039-1.763-.071-3.079-.065-2.67-.207-6.533-.434-11.3-.447-9.547-1.3-22.724-2.8-37.229s-3.305-27.584-4.8-37.021c-.745-4.718-1.387-8.529-1.867-11.161-.233-1.3-.421-2.314-.551-3.027l-.156-.784A1.9,1.9,0,0,0,422.366,295.14Z" transform="translate(-350.327 -177.298)" fill="#455a64"/>
        <path id="Path_29893" data-name="Path 29893" d="M378.065,297.89c-.11,0-4.375,23.631-9.534,52.816s-9.255,52.9-9.152,52.9,4.368-23.624,9.534-52.823S378.168,297.909,378.065,297.89Z" transform="translate(-328.166 -178.266)" fill="#455a64"/>
        <path id="Path_29894" data-name="Path 29894" d="M409.811,283.587a1.3,1.3,0,0,0,.149-.272c.084-.181.207-.447.356-.8a28.824,28.824,0,0,0,1.044-3.033,30.987,30.987,0,0,0,1-10.519c-.071-1.037-.207-2.035-.369-3a27.841,27.841,0,0,0-.648-2.742c-.493-1.724-1-3.241-1.445-4.537s-.823-2.307-1.1-3.014l-.324-.81a1.042,1.042,0,0,0-.136-.272,1.69,1.69,0,0,0,.071.3c.078.227.162.5.266.83.253.771.583,1.8.992,3.046s.9,2.819,1.368,4.537c.24.856.473,1.763.648,2.709a26.476,26.476,0,0,1,.363,2.975,32.459,32.459,0,0,1-.894,10.435c-.324,1.3-.687,2.34-.927,3.053a8.023,8.023,0,0,0-.415,1.115Z" transform="translate(-345.394 -163.03)" fill="#455a64"/>
        <path id="Path_29895" data-name="Path 29895" d="M398.342,271.347a1.293,1.293,0,0,0,0,.207v.57c0,.531-.058,1.244-.091,2.126-.065,1.854-.156,4.42-.266,7.5l.091-.13-5.386,2.191h.149l-4.375-2.664-.285-.169.084.13c-.331-3.558-.648-6.9-.907-9.787l-.149.162,8.05-.078,2.294-.039h.843a6.748,6.748,0,0,0-.778,0l-2.262-.039-8.147-.078H387v.162c.259,2.891.551,6.229.868,9.787v.091l.071.039.285.175,4.381,2.651.071.045h.071l5.373-2.23.091-.032v-.1c.045-3.117.084-5.723.117-7.6v-2.093C398.329,271.632,398.349,271.341,398.342,271.347Z" transform="translate(-337.886 -168.892)" fill="#455a64"/>
        <path id="Path_29896" data-name="Path 29896" d="M430.117,267a4.176,4.176,0,0,0,.091.726c.091.46.181,1.154.3,1.944l1.121,6.929.058-.143-4.07,3.02h.143l-4.945-1.381-.253-.065.117.11-2.593-8.86-.11.181,7.3-1.737,2.081-.519c.486-.123.752-.194.758-.207a5.747,5.747,0,0,0-.713.13l-2.061.428-7.434,1.627-.156.032.045.149c.752,2.593,1.627,5.652,2.56,8.879v.091h.091l.253.071,4.945,1.361h.078l.065-.052,4.044-3.046.078-.052v-.084c-.525-2.871-.966-5.269-1.3-7-.156-.8-.279-1.439-.376-1.944a5.364,5.364,0,0,0-.13-.59Z" transform="translate(-349.413 -167.397)" fill="#455a64"/>
        <path id="Path_29897" data-name="Path 29897" d="M392.14,296.1a56.2,56.2,0,0,0,5.956,1.465,55.262,55.262,0,0,0,6.021,1.134,56.318,56.318,0,0,0-5.95-1.465,55.508,55.508,0,0,0-6.028-1.134Z" transform="translate(-339.694 -177.636)" fill="#455a64"/>
        <path id="Path_29898" data-name="Path 29898" d="M419,295.574a5.241,5.241,0,0,0,1.523,0,25.15,25.15,0,0,0,3.643-.57,24.258,24.258,0,0,0,3.519-1.076,5.392,5.392,0,0,0,1.374-.648,9.486,9.486,0,0,0-1.452.441c-.888.292-2.126.648-3.519.972a36.265,36.265,0,0,1-3.591.648,8.692,8.692,0,0,0-1.5.233Z" transform="translate(-349.145 -176.644)" fill="#455a64"/>
        <path id="Path_29899" data-name="Path 29899" d="M392.2,171.255l1.543-3.169,13.4-.506,2.1,4.122H392.42" transform="translate(-339.715 -132.414)" fill="#0091ff"/>
        <path id="Path_29900" data-name="Path 29900" d="M337.787,205.27l-6.617,6.384,16.949,15.16,4.958-11.692Z" transform="translate(-318.241 -145.676)" fill="#0091ff"/>
        <path id="Path_29901" data-name="Path 29901" d="M436.158,226.418l-12.9-5.12,2.878-10.688,10.513,3.578Z" transform="translate(-350.644 -147.555)" fill="#0091ff"/>
        <path id="Path_29902" data-name="Path 29902" d="M357.067,215.98c-3.241-1.594-4.038-5.431-2.469-8.659l13.365-28.576a5.25,5.25,0,0,1,1.348-1.841,15.1,15.1,0,0,1,11.018-3.785l13.941-.369s10.947,0,15.056,8.633c.3.648,6.669,13.254,10.863,21.57a7.2,7.2,0,0,1-3.947,10h0a7.2,7.2,0,0,1-9.074-3.811l-4.537-10.163-2.871,14.557,4.135,12-34.565.473,2.664-16.048.836-11.446-7.006,14.453a6.54,6.54,0,0,1-8.8,3Z" transform="translate(-326.211 -134.233)" fill="#0091ff"/>
        <g id="Group_1309" data-name="Group 1309" transform="translate(52.763 68.53)" opacity="0.2">
          <path id="Path_29903" data-name="Path 29903" d="M412.313,229.565c-2.593,1.944-6.481,1.3-9.69.771a14.006,14.006,0,0,1-8.426-4.576,5.652,5.652,0,0,1-1.568-3.993,2.86,2.86,0,0,1,2.878-2.7c1.672.2,2.476,2.074,3.28,3.552a12.963,12.963,0,0,0,13.494,6.332A.336.336,0,0,1,412.313,229.565Z" transform="translate(-392.629 -219.057)"/>
        </g>
        <g id="Group_1310" data-name="Group 1310" transform="translate(45.543 56.548)" opacity="0.2">
          <path id="Path_29904" data-name="Path 29904" d="M387.006,200.57c-.817,6.572-.454,6.073-1.821,12.554-.648,3.189-1.5,6.514-3.694,8.918l1.089-13.727Z" transform="translate(-381.49 -200.57)"/>
        </g>
        <path id="Path_29905" data-name="Path 29905" d="M411.854,250.294l.992-2.884-2.58-1.718-31.7-2.612-2.236,4.2.959,3.487Z" transform="translate(-334.131 -158.98)" fill="#0091ff"/>
        <path id="Path_29906" data-name="Path 29906" d="M429.32,215.39a8.428,8.428,0,0,0,.706,1.62c.48.979,1.18,2.314,2.029,3.746s1.685,2.7,2.314,3.591a8.653,8.653,0,0,0,1.082,1.393,10.251,10.251,0,0,0-.888-1.53c-.57-.92-1.368-2.2-2.217-3.623s-1.575-2.742-2.113-3.688a9.017,9.017,0,0,0-.914-1.51Z" transform="translate(-352.777 -149.237)" fill="#263238"/>
        <path id="Path_29907" data-name="Path 29907" d="M433.957,223.85a4.278,4.278,0,0,0,.22,2.385,4.2,4.2,0,0,0,1.212,2.074c.084-.052-.5-.946-.888-2.171S434.068,223.844,433.957,223.85Z" transform="translate(-354.381 -152.213)" fill="#263238"/>
        <path id="Path_29908" data-name="Path 29908" d="M381.3,179.49c0,.052.577.266,1.439.8a9.152,9.152,0,0,1,2.806,2.722,9.287,9.287,0,0,1,1.387,3.662c.149,1,.1,1.64.162,1.64a4.239,4.239,0,0,0,.071-1.672,8.354,8.354,0,0,0-4.3-6.559,4.316,4.316,0,0,0-1.562-.6Z" transform="translate(-335.88 -136.605)" fill="#263238"/>
        <path id="Path_29909" data-name="Path 29909" d="M424.827,219.822c.091,0,1.64-6.6,3.467-14.79s3.241-14.842,3.143-14.862-1.646,6.6-3.474,14.79S424.73,219.8,424.827,219.822Z" transform="translate(-351.194 -140.362)" fill="#263238"/>
        <path id="Path_29910" data-name="Path 29910" d="M354,221.143a11.272,11.272,0,0,0,1.523-1.432,11.022,11.022,0,0,0,1.484-1.491,4.848,4.848,0,0,0-1.718,1.244,4.667,4.667,0,0,0-1.29,1.679Z" transform="translate(-326.274 -150.232)" fill="#263238"/>
        <path id="Path_29911" data-name="Path 29911" d="M372,223.071a5.833,5.833,0,0,0,.531-.875c.324-.57.771-1.413,1.3-2.456,1.089-2.087,2.547-4.991,4.135-8.212s3.053-6.118,4.135-8.212l1.3-2.469a5.69,5.69,0,0,0,.441-.927,5.237,5.237,0,0,0-.557.862c-.337.564-.81,1.393-1.374,2.424-1.141,2.061-2.638,4.952-4.226,8.173l-4.051,8.251c-.5,1.018-.914,1.86-1.225,2.508a6.484,6.484,0,0,0-.4.933Z" transform="translate(-332.608 -143.793)" fill="#263238"/>
        <path id="Path_29912" data-name="Path 29912" d="M391.17,222v.227a4.452,4.452,0,0,0,.1.648,8.426,8.426,0,0,0,.862,2.236,12.658,12.658,0,0,0,5.833,5.185,25.362,25.362,0,0,0,7.622,1.9c1,.117,1.808.181,2.366.214a4.724,4.724,0,0,0,.875,0,4.129,4.129,0,0,0-.862-.156l-2.353-.318a27.871,27.871,0,0,1-7.505-1.944,12.963,12.963,0,0,1-5.768-4.984A12.315,12.315,0,0,1,391.17,222Z" transform="translate(-339.353 -151.562)" fill="#263238"/>
        <path id="Path_29913" data-name="Path 29913" d="M401.9,247.859c0,.091,4.278.473,9.573.843s9.592.6,9.6.5-4.278-.467-9.573-.836S401.906,247.768,401.9,247.859Z" transform="translate(-343.129 -160.654)" fill="#263238"/>
        <path id="Path_29914" data-name="Path 29914" d="M392.945,243.9a15.555,15.555,0,0,0-.694,6.546c.1,0,.143-1.478.331-3.28S393.035,243.926,392.945,243.9Z" transform="translate(-339.702 -159.268)" fill="#263238"/>
        <path id="Path_29915" data-name="Path 29915" d="M389.712,240.71a4.136,4.136,0,0,0-.292,1.3,16.307,16.307,0,0,0-.084,3.241,15.852,15.852,0,0,0,.538,3.189,4.162,4.162,0,0,0,.467,1.257c.1,0-.506-1.977-.648-4.466S389.816,240.729,389.712,240.71Z" transform="translate(-338.692 -158.146)" fill="#263238"/>
        <path id="Path_29916" data-name="Path 29916" d="M392.15,173.174a68.508,68.508,0,0,0,6.916-.214c3.811-.22,6.9-.467,6.89-.557a68.4,68.4,0,0,0-6.909.214C395.229,172.831,392.144,173.083,392.15,173.174Z" transform="translate(-339.698 -134.106)" fill="#263238"/>
        <path id="Path_29917" data-name="Path 29917" d="M379.9,173.253a3.754,3.754,0,0,1-.454.071l-1.3.194-2.035.363a8.963,8.963,0,0,0-2.593.791,13.237,13.237,0,0,0-2.742,1.8,10.862,10.862,0,0,0-2.346,2.91c-1.186,2.385-2.4,5.088-3.74,7.881L357.911,201.6c-.862,1.8-1.575,3.241-2.081,4.33-.246.486-.434.875-.583,1.173a1.847,1.847,0,0,1-.227.4,2.326,2.326,0,0,1,.162-.428c.136-.3.311-.7.525-1.193l1.99-4.381c1.692-3.694,4.064-8.776,6.708-14.376,1.335-2.8,2.554-5.477,3.772-7.888a11.019,11.019,0,0,1,2.437-2.975,13.169,13.169,0,0,1,2.819-1.8,9.074,9.074,0,0,1,2.651-.758c.8-.13,1.484-.227,2.048-.3s1-.117,1.3-.136A1.673,1.673,0,0,1,379.9,173.253Z" transform="translate(-326.633 -134.405)" fill="#263238"/>
        <path id="Path_29918" data-name="Path 29918" d="M371.377,223.169h-.143l-.4-.058c-.356-.052-.862-.13-1.484-.246a20.565,20.565,0,0,1-4.757-1.406,10.02,10.02,0,0,1-3.889-3.046,5.833,5.833,0,0,1-.953-1.821s.084.181.24.5a7.58,7.58,0,0,0,.791,1.264,10.241,10.241,0,0,0,3.889,2.981,22.109,22.109,0,0,0,4.718,1.432l1.471.292.4.084a.414.414,0,0,1,.117.026Z" transform="translate(-328.297 -149.659)" fill="#fafafa"/>
        <path id="Path_29919" data-name="Path 29919" d="M350.586,214.92a1.7,1.7,0,0,1-.376.117c-.24.058-.583.162-1,.311a11.3,11.3,0,0,0-5.438,4.148,9.726,9.726,0,0,0-.57.888,1.666,1.666,0,0,1-.207.331,2.629,2.629,0,0,1,.162-.356,6.557,6.557,0,0,1,.538-.914,10.506,10.506,0,0,1,2.392-2.554,10.661,10.661,0,0,1,3.092-1.633,6.85,6.85,0,0,1,1.024-.272A2.464,2.464,0,0,1,350.586,214.92Z" transform="translate(-322.4 -149.071)" fill="#fafafa"/>
        <path id="Path_29920" data-name="Path 29920" d="M382.126,199.509H382l-.363-.032a10.3,10.3,0,0,1-1.342-.175,21.485,21.485,0,0,1-8.244-3.273c-.473-.318-.849-.59-1.1-.791l-.292-.227a.95.95,0,0,1-.091-.091l.11.065.3.214c.259.188.648.447,1.121.752a24.119,24.119,0,0,0,3.947,2.022A23.856,23.856,0,0,0,380.3,199.2c.564.1,1.018.181,1.335.22l.363.052A.324.324,0,0,1,382.126,199.509Z" transform="translate(-332.104 -142.034)" fill="#fafafa"/>
        <path id="Path_29921" data-name="Path 29921" d="M416.958,179.474a10.41,10.41,0,0,0-1.212-.117,15.172,15.172,0,0,0-3.312.22c-1.387.22-3.007.648-4.829,1.018a23.681,23.681,0,0,1-6.034.48c-2.145-.084-4.18-.337-6.034-.512a40.531,40.531,0,0,0-4.926-.233,20.408,20.408,0,0,0-3.3.35l-.881.207-.311.065s.1-.039.3-.091l.875-.233a18.472,18.472,0,0,1,3.312-.389,38.891,38.891,0,0,1,4.939.2c1.854.169,3.889.415,6.028.5a23.76,23.76,0,0,0,6-.467c1.815-.369,3.448-.784,4.842-.985a14.454,14.454,0,0,1,3.325-.181,7.349,7.349,0,0,1,.9.11C416.854,179.448,416.958,179.474,416.958,179.474Z" transform="translate(-337.576 -136.53)" fill="#fafafa"/>
        <path id="Path_29922" data-name="Path 29922" d="M416.107,204.849h-.279l-.823.065-3.007.207c-2.541.162-6.047.447-9.936.525a51.2,51.2,0,0,1-9.923-.648,27.69,27.69,0,0,1-4-1l.279.065.791.207c.687.181,1.692.408,2.943.648a53.582,53.582,0,0,0,9.91.609c3.889-.084,7.389-.356,9.929-.486l3.014-.169.817-.039Z" transform="translate(-338.287 -145.229)" fill="#fafafa"/>
        <path id="Path_29923" data-name="Path 29923" d="M443.624,207.75s0,.039-.084.11l-.272.3A10.318,10.318,0,0,1,442.2,209.2a20.04,20.04,0,0,1-8.575,4.537c-.6.149-1.1.246-1.452.3l-.4.052a.475.475,0,0,1-.143,0,.416.416,0,0,1,.136-.039l.4-.078c.344-.065.836-.181,1.439-.337a21.524,21.524,0,0,0,8.529-4.537c.473-.408.843-.752,1.089-1l.292-.279Z" transform="translate(-353.593 -146.548)" fill="#fafafa"/>
        <path id="Path_29924" data-name="Path 29924" d="M438.439,192.249a1.042,1.042,0,0,1-.156.175,5.693,5.693,0,0,1-.48.415,8.737,8.737,0,0,1-1.776,1.108,8.425,8.425,0,0,1-2,.648,6.136,6.136,0,0,1-.648.1h-.233s.324-.071.843-.194a10.544,10.544,0,0,0,1.944-.687,10.76,10.76,0,0,0,1.776-1.056C438.18,192.45,438.426,192.23,438.439,192.249Z" transform="translate(-354.124 -141.094)" fill="#fafafa"/>
        <path id="Path_29925" data-name="Path 29925" d="M450.676,223.91a9.721,9.721,0,0,1-1.3,1.51,12.85,12.85,0,0,1-1.685,1.368,12.71,12.71,0,0,1-4.893,1.99,12.548,12.548,0,0,1-2.158.207,9.633,9.633,0,0,1-1.983-.175h.143l.389.032a11.493,11.493,0,0,0,1.452.045,13.261,13.261,0,0,0,8.672-3.539,12.4,12.4,0,0,0,1-1.043l.259-.3C450.638,223.968,450.67,223.9,450.676,223.91Z" transform="translate(-356.063 -152.234)" fill="#fafafa"/>
        <path id="Path_29926" data-name="Path 29926" d="M408.572,169.5a.6.6,0,0,1-.156,0h-.454l-1.646-.071c-1.387-.045-3.312-.045-5.431.084s-4.031.369-5.405.583l-1.627.272-.441.078a.6.6,0,0,1-.162,0l.156-.045.434-.1c.382-.084.933-.194,1.62-.311a49.952,49.952,0,0,1,5.412-.648,52.094,52.094,0,0,1,5.451-.045c.694.039,1.257.078,1.646.11l.447.045Z" transform="translate(-340.085 -133.002)" fill="#fafafa"/>
        <path id="Path_29927" data-name="Path 29927" d="M388.211,225.2h-.246a3.932,3.932,0,0,1-.648-.1,9.878,9.878,0,0,1-2.106-.648,10.2,10.2,0,0,1-1.944-1.056,5.906,5.906,0,0,1-.531-.408c-.117-.1-.181-.162-.175-.169s.285.194.758.493a12.489,12.489,0,0,0,1.944,1.018,12.665,12.665,0,0,0,2.074.648C387.874,225.127,388.218,225.179,388.211,225.2Z" transform="translate(-336.323 -151.851)" fill="#fafafa"/>
        <path id="Path_29928" data-name="Path 29928" d="M415.312,230.438l-.188.032-.557.065c-.48.058-1.18.13-2.048.2-1.724.156-4.122.3-6.766.369s-5.049,0-6.786-.058c-.868,0-1.568-.071-2.055-.1l-.557-.039h.564l2.048.065c1.737.045,4.135.071,6.779,0s5.036-.2,6.767-.331l2.048-.156.557-.039A.647.647,0,0,1,415.312,230.438Z" transform="translate(-341.109 -154.53)" fill="#fafafa"/>
        <path id="Path_29929" data-name="Path 29929" d="M384.6,249.582a1.167,1.167,0,0,1-.318.084l-.894.149a20.838,20.838,0,0,1-5.956-.039c-.376-.058-.648-.117-.888-.162a1.769,1.769,0,0,1-.324-.084,1.55,1.55,0,0,1,.331.032l.894.117a24.929,24.929,0,0,0,2.968.194,25.932,25.932,0,0,0,2.962-.156l.894-.1A1.576,1.576,0,0,1,384.6,249.582Z" transform="translate(-334.092 -161.249)" fill="#fafafa"/>
        <path id="Path_29930" data-name="Path 29930" d="M391.366,247.174a3.429,3.429,0,0,0-.881-.538,3.183,3.183,0,0,0-1.024-.117,1.329,1.329,0,0,1,1.069,0A1.361,1.361,0,0,1,391.366,247.174Z" transform="translate(-338.751 -160.15)" fill="#fafafa"/>
        <path id="Path_29931" data-name="Path 29931" d="M413.232,249.989l-.207.045-.6.117c-.525.1-1.3.233-2.223.369a72.59,72.59,0,0,1-14.81.648c-.946-.052-1.718-.11-2.243-.169l-.609-.058a1.6,1.6,0,0,1-.214-.032.785.785,0,0,1,.214,0h.616c.525.039,1.3.084,2.243.13,1.893.084,4.537.13,7.408,0s5.5-.415,7.382-.648c.94-.13,1.7-.246,2.223-.331l.609-.091A.836.836,0,0,1,413.232,249.989Z" transform="translate(-339.761 -161.404)" fill="#fafafa"/>
      </g>
      <g id="freepik--Plant--inject-29" transform="translate(33.247 216.735)">
        <path id="Path_29932" data-name="Path 29932" d="M121.18,403.428a7.243,7.243,0,0,1,3.707-4.738c1.9-.849,4.278-.363,6.3.369s4.018,1.724,6.17,1.854,4.582-.888,5.224-2.943c.609-1.944-.557-4-2.016-5.405a12.755,12.755,0,0,0-20.9,5.017" transform="translate(-64.887 -342.071)" fill="#0091ff"/>
        <g id="Group_1311" data-name="Group 1311" transform="translate(54.783 46.931)" opacity="0.5">
          <path id="Path_29933" data-name="Path 29933" d="M121.18,403.428a7.243,7.243,0,0,1,3.707-4.738c1.9-.849,4.278-.363,6.3.369s4.018,1.724,6.17,1.854,4.582-.888,5.224-2.943c.609-1.944-.557-4-2.016-5.405a12.755,12.755,0,0,0-20.9,5.017" transform="translate(-119.67 -389.002)"/>
        </g>
        <path id="Path_29934" data-name="Path 29934" d="M94.351,411.159c-3.163-3-3-8.218-1.426-12.314s5.01-7.175,8.847-9.229a28.025,28.025,0,0,1,24.435-.791,11.589,11.589,0,0,0-9.372,5.5c-1.73,2.871-2.119,6.365-3.545,9.4a14.79,14.79,0,0,1-18.938,7.434" transform="translate(-55.091 -341.155)" fill="#0091ff"/>
        <path id="Path_29935" data-name="Path 29935" d="M90.767,368.577c-3.493-4.129-3.96-10.753-3.442-16.132s1.763-10.8.914-16.145c-.506-3.163-1.731-6.183-2.145-9.366s.169-6.767,2.631-8.815c2.832-2.359,7.285-1.8,10.228.408s4.647,5.691,5.9,9.158c2.735,7.609,3.74,16.054,1.491,23.825s-7.525,14.719-15.27,17.065" transform="translate(-53.03 -316.592)" fill="#0091ff"/>
        <path id="Path_29936" data-name="Path 29936" d="M90.776,428.461a3.778,3.778,0,0,1,0-.473c0-.311,0-.771,0-1.361.045-1.186.162-2.9.428-5a66.5,66.5,0,0,1,1.342-7.324,33.884,33.884,0,0,1,3.338-8.471,35.6,35.6,0,0,1,5.457-7.3,35.185,35.185,0,0,1,5.723-4.757c.875-.6,1.718-1.063,2.443-1.484s1.4-.713,1.944-.972l1.257-.525a2.791,2.791,0,0,1,.447-.169,4.032,4.032,0,0,1-.421.22l-1.238.577c-.519.272-1.16.609-1.9,1.011a23.325,23.325,0,0,0-2.4,1.517,35.127,35.127,0,0,0-5.645,4.77,35.648,35.648,0,0,0-5.4,7.253c-3.241,5.619-4.09,11.53-4.731,15.678-.292,2.093-.434,3.8-.512,4.978,0,.564-.058,1.018-.084,1.355a2.47,2.47,0,0,1-.045.473Z" transform="translate(-54.718 -342.644)" fill="#263238"/>
        <path id="Path_29937" data-name="Path 29937" d="M41.053,371.68c-6.481,3.889-6.442,7.453-5.367,10.811s5.049,5.678,8.341,4.427a10.247,10.247,0,0,0,4.362-3.954,18.41,18.41,0,0,1,3.843-4.537c1.614-1.173,3.954-1.614,5.574-.46" transform="translate(-35.146 -335.976)" fill="#0091ff"/>
        <g id="Group_1312" data-name="Group 1312" transform="translate(0 35.704)" opacity="0.5">
          <path id="Path_29938" data-name="Path 29938" d="M41.053,371.68c-6.481,3.889-6.442,7.453-5.367,10.811s5.049,5.678,8.341,4.427a10.247,10.247,0,0,0,4.362-3.954,18.41,18.41,0,0,1,3.843-4.537c1.614-1.173,3.954-1.614,5.574-.46" transform="translate(-35.146 -371.68)"/>
        </g>
        <path id="Path_29939" data-name="Path 29939" d="M36.79,373.521c1.692-2.333,5.872-3.014,8.51-1.847s4.537,3.48,6.3,5.788,3.416,4.744,5.833,6.352,5.742,2.191,8.134.57a6.987,6.987,0,0,0,2.761-4.783,15.924,15.924,0,0,0-.382-5.639c-.57-2.709-1.5-5.548-3.675-7.266-2.418-1.944-5.775-2.016-8.86-1.912a33.313,33.313,0,0,0-10.461,1.607c-3.331,1.225-6.721,3.889-8.134,7.129" transform="translate(-35.724 -333.539)" fill="#0091ff"/>
        <path id="Path_29940" data-name="Path 29940" d="M73.451,414.575v-.557c0-.389-.032-.927-.058-1.607-.039-1.419-.1-3.429-.169-5.9s-.175-5.457-.356-8.75-.428-6.9-.927-10.668a33.7,33.7,0,0,0-1.076-5.418A28.453,28.453,0,0,0,66.386,373,25.5,25.5,0,0,0,63.651,370a20.04,20.04,0,0,0-4.835-3.3c-.318-.149-.6-.292-.843-.389l-.648-.246-.4-.1-.13-.065.136.039.4.13.648.22c.253.091.531.227.856.363a19.444,19.444,0,0,1,4.932,3.241,25.331,25.331,0,0,1,2.78,3.007,27.408,27.408,0,0,1,2.547,3.947,27.968,27.968,0,0,1,2.016,4.783,34.119,34.119,0,0,1,1.089,5.464c.5,3.779.739,7.4.907,10.694s.246,6.267.3,8.763.071,4.537.078,5.9v2.022C73.489,414.588,73.457,414.575,73.451,414.575Z" transform="translate(-42.765 -333.942)" fill="#263238"/>
        <path id="Path_29941" data-name="Path 29941" d="M85.466,406.83a18.245,18.245,0,0,1-.7-2.774,29.231,29.231,0,0,1-.3-7.778,52.154,52.154,0,0,1,2.463-11.323c1.3-4.161,3.13-8.614,4.673-13.4a60.2,60.2,0,0,0,1.854-7.084,62.61,62.61,0,0,0,.92-6.76,99.161,99.161,0,0,0,.207-11.563c-.117-3.3-.292-5.956-.4-7.778-.052-.907-.091-1.62-.123-2.126v-.739a.649.649,0,0,1,0,.188,2.364,2.364,0,0,0,.052.551c.045.5.1,1.212.181,2.113.143,1.841.35,4.537.486,7.778a95.607,95.607,0,0,1-.143,11.589,61.254,61.254,0,0,1-.907,6.792,60.836,60.836,0,0,1-1.86,7.129c-1.543,4.8-3.351,9.242-4.686,13.384A52.564,52.564,0,0,0,84.669,396.3a30.313,30.313,0,0,0,.2,7.778c.156.9.3,1.607.434,2.074.052.22.1.4.13.531A.829.829,0,0,1,85.466,406.83Z" transform="translate(-52.454 -323.249)" fill="#263238"/>
        <path id="Path_29942" data-name="Path 29942" d="M93.958,446.886H63.594L62.9,441.04H93.958Z" transform="translate(-44.912 -360.381)" fill="#455a64"/>
        <path id="Path_29943" data-name="Path 29943" d="M68.99,449.03l3.8,17.538h16.5l3.552-17.538Z" transform="translate(-47.054 -363.193)" fill="#455a64"/>
        <path id="Path_29944" data-name="Path 29944" d="M94.634,449.956c0,.078-6.676.123-14.907.1s-14.907-.11-14.907-.188,6.676-.123,14.907-.1S94.634,449.878,94.634,449.956Z" transform="translate(-45.587 -363.451)" fill="#455a64"/>
        <path id="Path_29945" data-name="Path 29945" d="M91.851,462.073a12.477,12.477,0,0,0-2.677-1.53,9.553,9.553,0,0,0-3.241-.648,11.478,11.478,0,0,0-3.992.732,39.211,39.211,0,0,1-3.941,1.3,9.377,9.377,0,0,1-3.4.1,7.255,7.255,0,0,1-2.191-.693,4.475,4.475,0,0,1-.525-.337.791.791,0,0,1-.169-.143s.259.149.745.376a7.485,7.485,0,0,0,2.165.59,9.469,9.469,0,0,0,3.312-.156c1.218-.3,2.508-.856,3.889-1.329a11.368,11.368,0,0,1,4.1-.726,9.3,9.3,0,0,1,3.318.732,8.458,8.458,0,0,1,1.983,1.154,3.807,3.807,0,0,1,.467.408C91.806,462.014,91.857,462.066,91.851,462.073Z" transform="translate(-48.015 -366.915)" fill="#263238"/>
        <path id="Path_29946" data-name="Path 29946" d="M91.853,463.914a13,13,0,0,0-2.593-1.51,8.782,8.782,0,0,0-3.137-.648,11.348,11.348,0,0,0-3.889.694c-1.335.447-2.593.966-3.792,1.3a9.721,9.721,0,0,1-3.241.369,5.438,5.438,0,0,1-2.145-.577,4.275,4.275,0,0,1-.506-.318c-.11-.084-.169-.136-.162-.143s.253.149.719.363a5.982,5.982,0,0,0,2.106.467,9.922,9.922,0,0,0,3.182-.415c1.173-.331,2.424-.856,3.772-1.3a11.147,11.147,0,0,1,3.967-.687,8.574,8.574,0,0,1,3.241.726,8.341,8.341,0,0,1,1.9,1.147,5.01,5.01,0,0,1,.454.4Q91.866,463.908,91.853,463.914Z" transform="translate(-48.251 -367.584)" fill="#fff"/>
        <path id="Path_29947" data-name="Path 29947" d="M91.966,460.153a13.877,13.877,0,0,0-2.742-1.62,10.182,10.182,0,0,0-3.338-.8,10.785,10.785,0,0,0-4.122.719,36.65,36.65,0,0,1-4.077,1.329,10.279,10.279,0,0,1-3.513,0,7.776,7.776,0,0,1-2.256-.713,3.887,3.887,0,0,1-.551-.344c-.117-.084-.175-.136-.169-.143s.266.156.765.382a8.671,8.671,0,0,0,2.243.616,10.61,10.61,0,0,0,3.429-.065,42.477,42.477,0,0,0,4.031-1.342,10.758,10.758,0,0,1,4.239-.719,10.137,10.137,0,0,1,5.425,2.1,5.028,5.028,0,0,1,.486.415C91.921,460.088,91.972,460.147,91.966,460.153Z" transform="translate(-47.832 -366.156)" fill="#fff"/>
        <path id="Path_29948" data-name="Path 29948" d="M94.674,450.023c0,.078-6.831.143-15.257.143s-15.257-.065-15.257-.143,6.825-.143,15.257-.143S94.674,449.958,94.674,450.023Z" transform="translate(-45.355 -363.492)" fill="#263238"/>
      </g>
      <g id="freepik--Floor--inject-29" transform="translate(29.75 319.942)">
        <path id="Path_29949" data-name="Path 29949" d="M315.252,476c0,.091-63.919.169-142.745.169S29.75,476.089,29.75,476s63.906-.169,142.758-.169S315.252,475.9,315.252,476Z" transform="translate(-29.75 -475.83)" fill="#263238"/>
      </g>
    </g>
  </g>
</svg>
