<svg xmlns="http://www.w3.org/2000/svg" width="335" height="298" viewBox="0 0 335 298">
  <g id="Group_1587" data-name="Group 1587" transform="translate(-16787 -4975)">
    <rect id="Rectangle_2854" data-name="Rectangle 2854" width="335" height="285" transform="translate(16787 4977)" fill="none"/>
    <g id="Group_1561" data-name="Group 1561" transform="translate(1535 414.899)">
      <g id="Group_902" data-name="Group 902" transform="translate(15252 4560)" opacity="0">
        <rect id="Rectangle_1318" data-name="Rectangle 1318" width="335" height="298" transform="translate(0 0.102)" fill="#fff"/>
      </g>
      <g id="Product_iteration-rafiki" data-name="Product iteration-rafiki" transform="translate(15272.241 4571.243)">
        <g id="freepik--Shadow--inject-1" transform="translate(0 258.42)">
          <ellipse id="freepik--path--inject-1" cx="147.259" cy="8.597" rx="147.259" ry="8.597" fill="#f5f5f5"/>
        </g>
        <g id="freepik--character-2--inject-1" transform="translate(128.518 44.843)">
          <path id="Path_23240" data-name="Path 23240" d="M274.856,182.082l-.934,1.238c-.3.395-.623.759-.934,1.147-.615.76-1.276,1.519-1.929,2.218a58.277,58.277,0,0,1-4.246,4.192c-.759.676-1.519,1.337-2.362,1.982s-1.7,1.261-2.628,1.868a21.061,21.061,0,0,1-6.835,3.038l-.266.061a3.867,3.867,0,0,1-.759.1,8.879,8.879,0,0,1-3.623-.638,11.219,11.219,0,0,1-2.279-1.223,19.969,19.969,0,0,1-3.038-2.635,39.1,39.1,0,0,1-4.223-5.37,63.4,63.4,0,0,1-3.251-5.537,60.564,60.564,0,0,1-2.673-5.772,3.038,3.038,0,0,1,5.111-3.144l.068.076,3.911,4.42c1.314,1.458,2.628,2.894,3.965,4.238a39.788,39.788,0,0,0,3.965,3.585,9.319,9.319,0,0,0,1.724,1.086.889.889,0,0,0,.41.106,1.067,1.067,0,0,0-.646-.144l-1.041.167a15.492,15.492,0,0,0,2.871-1.884,45.425,45.425,0,0,0,3.425-3.137c1.132-1.162,2.278-2.377,3.395-3.638l1.656-1.906,1.58-1.861.19-.22a6.076,6.076,0,0,1,9.471,7.595Z" transform="translate(-227.566 -135.427)" fill="#263238"/>
          <path id="Path_23241" data-name="Path 23241" d="M233.79,171.512c-2.932.456-5.719-4.3-5.719-4.3l-2.195-2.613a2.37,2.37,0,0,1,0-3.038l1.891-2.2a2.37,2.37,0,0,1,3.372-.22l2.514,2.278a4.23,4.23,0,0,1,1.048,1.451l.98,2.279a5.446,5.446,0,0,1-.9,5.749l-.182.213A1.45,1.45,0,0,1,233.79,171.512Z" transform="translate(-225.325 -132.087)" fill="#ffc3bd"/>
          <path id="Path_23242" data-name="Path 23242" d="M320.785,300.518c-3.714-27.509-5.18-43.831-7.595-57.509l-23.4-.349s10.5,43.868,15.5,61.777,33.266,62.385,33.266,62.385l6.213-3.691S327.469,321.351,320.785,300.518Z" transform="translate(-240.829 -152.319)" fill="#263238"/>
          <path id="Path_23243" data-name="Path 23243" d="M348.5,411.854s4.679-5.719,4.6-7.656l5.149-3.038,2.833,5.658-2.484,1.519-.759-.235-.539,1c-2.567,1.519-6.7,3.843-8.62,4.2A1.519,1.519,0,0,1,348.5,411.854Z" transform="translate(-254.922 -190.439)" fill="#263238"/>
          <path id="Path_23244" data-name="Path 23244" d="M307.678,169.981a109.326,109.326,0,0,0-28.025.441,9.6,9.6,0,0,0-7.785,8.073c-1.671,11.97-.235,32.894.835,53.924,18.1,6.2,37.215-.084,37.215-.084.661-4.253-.82-18.175-1.823-25.6,1.519-7.679,4.663-16.466,6.759-26.658a8.354,8.354,0,0,0-7.177-10.094Z" transform="translate(-236.335 -134.673)" fill="#263238"/>
          <path id="Path_23245" data-name="Path 23245" d="M290.447,169.412a8.5,8.5,0,0,0-2.013,4.595c-.851,4.861.114,12.357,2.673,20.947,2.453-6.919,7.732-16.079,10.982-21.4,1.519-2.522,2.605-4.185,2.7-4.337h0A29.856,29.856,0,0,0,290.447,169.412Z" transform="translate(-240.43 -134.469)" fill="#0091ff"/>
          <path id="Path_23246" data-name="Path 23246" d="M304.2,149.39l-9.418,7.724c1.215,3.243,1.6,6.615-3.722,7.914-1.329,1.762,1.018,3.8,3.22,4.694,3.554-.441,8.559-1.625,10.724-4.557C304.318,162.765,303.285,154.182,304.2,149.39Z" transform="translate(-241.041 -129.887)" fill="#ffc3bd"/>
          <path id="Path_23247" data-name="Path 23247" d="M292.46,173.143a7.1,7.1,0,0,0,1.952,2.947c1.435,0,3.539-1.618,3.539-1.618s-.813-2.278-1.952-2.742C293.083,172.444,292.46,173.143,292.46,173.143Z" transform="translate(-241.471 -135.26)" fill="#fff"/>
          <path id="Path_23248" data-name="Path 23248" d="M294.933,176.025a2.1,2.1,0,0,0-1.587-.4c-1.884,2.681-3.084,6.835-4.246,11.636a79.846,79.846,0,0,0,2.241,9.418A75.681,75.681,0,0,1,295,188.321a49.831,49.831,0,0,1-.068-12.3Z" transform="translate(-240.663 -136.19)" fill="#fff"/>
          <path id="Path_23249" data-name="Path 23249" d="M301.571,153.63l-5.491,4.5a12.052,12.052,0,0,1,.661,2.324c2.127.152,5.089-2,5.225-3.942a7.991,7.991,0,0,0-.395-2.878Z" transform="translate(-242.342 -130.907)" opacity="0.2"/>
          <path id="Path_23250" data-name="Path 23250" d="M289.287,132.56c-3.038,1.762-1.466,3.516-1.466,3.516s-1.3,3.494.425,5.9C296.328,132.3,289.287,132.56,289.287,132.56Z" transform="translate(-240.243 -125.839)" fill="#263238"/>
          <path id="Path_23251" data-name="Path 23251" d="M304.739,139.44c-.858,5.909-1.063,9.41-4.314,12.19-4.906,4.17-12.015.76-12.911-5.316-.835-5.453.706-14.2,6.729-16.033a8.233,8.233,0,0,1,10.5,9.16Z" transform="translate(-240.231 -125.208)" fill="#ffc3bd"/>
          <path id="Path_23252" data-name="Path 23252" d="M302.932,141.634c-3.8.395-3.091-5.856-1.792-7.086-3.706.068-2.992-2.408-2.537-3.319-6.175,1.3-10.542,1.572-13.329-1.519-2.066-2.278-4.261.273-4.914-2.111,1.519.813,4.261-3.251,6.114-1.565s3.7-4.208,6.5-1.686c3.8,3.38,13.762-5.825,12.851,4.322,5.2,4.382-1.792,7.154-1.337,11.81C303.061,142.614,302.932,141.634,302.932,141.634Z" transform="translate(-238.561 -123.711)" fill="#263238"/>
          <path id="Path_23253" data-name="Path 23253" d="M311.139,130.156a.387.387,0,0,1-.38-.327.38.38,0,0,1,.327-.425,5.415,5.415,0,0,0,3.038-2.111,2.529,2.529,0,0,0,.372-2.157.387.387,0,0,1,.266-.471.372.372,0,0,1,.463.258,3.327,3.327,0,0,1-.463,2.78,6.076,6.076,0,0,1-3.585,2.453Z" transform="translate(-245.871 -123.937)" fill="#263238"/>
          <path id="Path_23254" data-name="Path 23254" d="M311.213,147.409a5.18,5.18,0,0,1-2.871,2.719c-1.7.638-2.727-.851-2.392-2.544.3-1.519,1.519-3.676,3.327-3.585a2.347,2.347,0,0,1,1.937,3.41Z" transform="translate(-244.7 -128.59)" fill="#ffc3bd"/>
          <path id="Path_23255" data-name="Path 23255" d="M298.225,142.436c-.046.486-.334.858-.646.828s-.547-.448-.5-.934.327-.851.646-.82S298.263,141.958,298.225,142.436Z" transform="translate(-242.58 -127.991)" fill="#263238"/>
          <path id="Path_23256" data-name="Path 23256" d="M290.635,142.254c-.046.486-.334.851-.646.82s-.547-.441-.5-.927.327-.851.646-.828S290.635,141.768,290.635,142.254Z" transform="translate(-240.755 -127.946)" fill="#263238"/>
          <path id="Path_23257" data-name="Path 23257" d="M292.418,143.4a16.913,16.913,0,0,1-2.658,3.927,2.818,2.818,0,0,0,2.278.653Z" transform="translate(-240.822 -128.447)" fill="#ed847e"/>
          <path id="Path_23258" data-name="Path 23258" d="M300.567,140.142a.3.3,0,0,0,.144,0,.289.289,0,0,0,.159-.372,2.871,2.871,0,0,0-1.929-1.762.281.281,0,0,0-.334.22.289.289,0,0,0,.22.342h0a2.279,2.279,0,0,1,1.519,1.413.3.3,0,0,0,.22.16Z" transform="translate(-242.948 -127.148)" fill="#263238"/>
          <path id="Path_23259" data-name="Path 23259" d="M288.109,139.772a.289.289,0,0,0,.266-.046,2.225,2.225,0,0,1,2.013-.395.281.281,0,0,0,.365-.175.289.289,0,0,0-.167-.365,2.825,2.825,0,0,0-2.552.478.289.289,0,0,0-.061.4.349.349,0,0,0,.137.1Z" transform="translate(-240.378 -127.31)" fill="#263238"/>
          <path id="Path_23260" data-name="Path 23260" d="M306.97,169.46h0c-.1.152-1.177,1.815-2.7,4.337a12.007,12.007,0,0,1-5.506,2.886c.311-1.018-.6-4.451-1.61-5.506A26.932,26.932,0,0,0,306.97,169.46Z" transform="translate(-242.599 -134.714)" fill="#0091ff"/>
          <path id="Path_23261" data-name="Path 23261" d="M306.97,169.46h0c-.1.152-1.177,1.815-2.7,4.337a12.007,12.007,0,0,1-5.506,2.886c.311-1.018-.6-4.451-1.61-5.506A26.932,26.932,0,0,0,306.97,169.46Z" transform="translate(-242.599 -134.714)" fill="#fff" opacity="0.3"/>
          <path id="Path_23262" data-name="Path 23262" d="M295.054,171.247a8.765,8.765,0,0,0-4.732,5.035,3.243,3.243,0,0,1-1.792-1.967,8.5,8.5,0,0,1,2.013-4.595C291.09,170.419,292.593,171.11,295.054,171.247Z" transform="translate(-240.526 -134.777)" fill="#0091ff"/>
          <path id="Path_23263" data-name="Path 23263" d="M295.054,171.247a8.765,8.765,0,0,0-4.732,5.035,3.243,3.243,0,0,1-1.792-1.967,8.5,8.5,0,0,1,2.013-4.595C291.09,170.419,292.593,171.11,295.054,171.247Z" transform="translate(-240.526 -134.777)" fill="#fff" opacity="0.3"/>
          <path id="Path_23264" data-name="Path 23264" d="M323.428,174.142c1.519,1.732,2.818,3.395,4.139,5.165s2.567,3.554,3.752,5.446a59.1,59.1,0,0,1,3.387,5.962,35.786,35.786,0,0,1,1.481,3.387,21.136,21.136,0,0,1,1.132,4.2l.061.372a4.557,4.557,0,0,1-.22,2.279,22.222,22.222,0,0,1-3.676,6.319,28.5,28.5,0,0,1-2.195,2.446c-.759.759-1.519,1.519-2.279,2.165a48.729,48.729,0,0,1-4.914,3.684,43.837,43.837,0,0,1-5.316,3.038,3.038,3.038,0,0,1-3.592-4.846l.137-.144c1.177-1.276,2.476-2.651,3.646-3.995s2.339-2.711,3.38-4.094a34.848,34.848,0,0,0,2.765-4.116,13.778,13.778,0,0,0,1.519-3.744l-.159,2.62a14.28,14.28,0,0,0-.76-1.785,24.845,24.845,0,0,0-1.261-2.279c-.5-.759-.98-1.572-1.519-2.362s-1.078-1.595-1.648-2.392c-1.147-1.587-2.332-3.2-3.554-4.785l-3.646-4.7-.076-.1a6.075,6.075,0,1,1,9.373-7.732Z" transform="translate(-246.32 -135.31)" fill="#263238"/>
          <path id="Path_23265" data-name="Path 23265" d="M315.673,230.514a1.382,1.382,0,0,0-.281-.911l-1.656-2.279a1.413,1.413,0,0,0-1.413-.562l-2.354.441a16.215,16.215,0,0,0-6.342,2.7l-.623.441a2.362,2.362,0,0,0-.532,3.334l1.724,2.332a2.362,2.362,0,0,0,2.977.7l3.038-1.565S315.5,233.476,315.673,230.514Z" transform="translate(-243.767 -148.489)" fill="#ffc3bd"/>
          <path id="Path_23266" data-name="Path 23266" d="M317.207,225.7a11.027,11.027,0,0,0-3.319.068c-.676,1.739,2.195,6.972,3.668,7.884a13.1,13.1,0,0,0,3.084-2.058C319.379,229.916,318.073,226.984,317.207,225.7Z" transform="translate(-246.6 -148.218)" fill="#0091ff"/>
          <path id="Path_23267" data-name="Path 23267" d="M239.291,172.944a10.922,10.922,0,0,0-.433-3.289c-1.8-.478-6.684,2.947-7.428,4.511a13.039,13.039,0,0,0,2.385,2.841C235.349,175.564,238.114,173.939,239.291,172.944Z" transform="translate(-226.793 -134.75)" fill="#0091ff"/>
          <path id="Path_23268" data-name="Path 23268" d="M352.885,404.046l7.018-3.911-1.6-4.344-7.8,5.286Z" transform="translate(-255.43 -189.147)" fill="#0091ff"/>
          <path id="Path_23269" data-name="Path 23269" d="M294.05,302.99c1.671-27.752,4.876-46.329,3.539-60l-23.37-.349s2.37,44.051,3.8,62.37,9.327,63.615,9.327,63.615h7.23S296.587,324.468,294.05,302.99Z" transform="translate(-237.084 -152.314)" fill="#263238"/>
          <path id="Path_23270" data-name="Path 23270" d="M275.914,412.238S287.663,409.7,288.407,408H294.4l.19,6.319h-4.884l-.592-.577-.911.577c-2.985,0-10.815-.114-12.714-.759A1.337,1.337,0,0,1,275.914,412.238Z" transform="translate(-237.38 -192.084)" fill="#263238"/>
          <path id="Path_23271" data-name="Path 23271" d="M290.729,407.437l8.051.22.372-4.557-9.342.562Z" transform="translate(-240.834 -190.905)" fill="#0091ff"/>
          <path id="Path_23272" data-name="Path 23272" d="M295.366,151.2a5.607,5.607,0,0,1-.927-.046.152.152,0,0,1-.121-.19.167.167,0,0,1,.19-.137,4.7,4.7,0,0,0,3.866-1.208.159.159,0,1,1,.228.213A4.906,4.906,0,0,1,295.366,151.2Z" transform="translate(-241.917 -129.923)" fill="#263238"/>
        </g>
        <g id="freepik--Graphic--inject-1" transform="translate(35.613 0)">
          <rect id="Rectangle_1507" data-name="Rectangle 1507" width="6.289" height="0.759" transform="translate(186.426 186.914)" fill="#0091ff"/>
          <rect id="Rectangle_1508" data-name="Rectangle 1508" width="14.127" height="0.759" transform="translate(197.37 186.914)" fill="#0091ff"/>
          <path id="Path_23273" data-name="Path 23273" d="M355.058,270.25h-88.1l-14.2,26.241a1.747,1.747,0,0,0,1.519,2.575H355.058l7.2-14.43Z" transform="translate(-138.966 -114.111)" fill="#0091ff"/>
          <path id="Path_23274" data-name="Path 23274" d="M255.147,93.689a63.8,63.8,0,0,1,57.858,59.947,1.739,1.739,0,0,0,2.522,1.473l10.7-5.316a2.8,2.8,0,0,1,2.575,0l10.5,5.248a1.747,1.747,0,0,0,2.529-1.641,92.605,92.605,0,0,0-86.909-88.61L247.81,79.023Z" transform="translate(-137.827 -64.697)" fill="#0091ff"/>
          <path id="Path_23275" data-name="Path 23275" d="M255.147,93.689a63.8,63.8,0,0,1,57.858,59.947,1.739,1.739,0,0,0,2.522,1.473l10.7-5.316a2.8,2.8,0,0,1,2.575,0l10.5,5.248a1.747,1.747,0,0,0,2.529-1.641,92.605,92.605,0,0,0-86.909-88.61L247.81,79.023Z" transform="translate(-137.827 -64.697)" fill="#fff" opacity="0.6"/>
          <path id="Path_23276" data-name="Path 23276" d="M157.2,151.358A63.8,63.8,0,0,1,217.151,93.5a1.747,1.747,0,0,0,1.466-2.522l-5.354-10.7a2.909,2.909,0,0,1,0-2.582l5.256-10.5a1.754,1.754,0,0,0-1.648-2.529,92.659,92.659,0,0,0-88.58,86.894l14.21,7.117Z" transform="translate(-109.082 -64.668)" fill="#0091ff"/>
          <path id="Path_23277" data-name="Path 23277" d="M157.2,151.358A63.8,63.8,0,0,1,217.151,93.5a1.747,1.747,0,0,0,1.466-2.522l-5.354-10.7a2.909,2.909,0,0,1,0-2.582l5.256-10.5a1.754,1.754,0,0,0-1.648-2.529,92.659,92.659,0,0,0-88.58,86.894l14.21,7.117Z" transform="translate(-109.082 -64.668)" fill="#fff" opacity="0.4"/>
          <path id="Path_23278" data-name="Path 23278" d="M208.813,250.415h0a63.8,63.8,0,0,1-57.866-59.939A1.739,1.739,0,0,0,148.433,189l-10.694,5.316a2.893,2.893,0,0,1-1.3.311,2.856,2.856,0,0,1-1.284-.311l-10.511-5.248a1.754,1.754,0,0,0-2.529,1.641,92.2,92.2,0,0,0,25.405,59.932H103l7.291,14.59-7.033,14.1H209.026l7.139-14.256Z" transform="translate(-103 -94.527)" fill="#0091ff"/>
          <path id="Path_23279" data-name="Path 23279" d="M208.813,250.415h0a63.8,63.8,0,0,1-57.866-59.939A1.739,1.739,0,0,0,148.433,189l-10.694,5.316a2.893,2.893,0,0,1-1.3.311,2.856,2.856,0,0,1-1.284-.311l-10.511-5.248a1.754,1.754,0,0,0-2.529,1.641,92.2,92.2,0,0,0,25.405,59.932H103l7.291,14.59-7.033,14.1H209.026l7.139-14.256Z" transform="translate(-103 -94.527)" fill="#fff" opacity="0.2"/>
          <path id="Path_23280" data-name="Path 23280" d="M313.933,191.619h0a63.8,63.8,0,0,1-59.947,57.851,1.747,1.747,0,0,0-1.473,2.522l5.316,10.7a2.894,2.894,0,0,1,0,2.575l-5.248,10.5a1.747,1.747,0,0,0,1.641,2.529,92.605,92.605,0,0,0,88.61-86.894L328.6,184.29Z" transform="translate(-138.914 -93.437)" fill="#0091ff"/>
          <path id="Path_23281" data-name="Path 23281" d="M313.933,191.619h0a63.8,63.8,0,0,1-59.947,57.851,1.747,1.747,0,0,0-1.473,2.522l5.316,10.7a2.894,2.894,0,0,1,0,2.575l-5.248,10.5a1.747,1.747,0,0,0,1.641,2.529,92.605,92.605,0,0,0,88.61-86.894L328.6,184.29Z" transform="translate(-138.914 -93.437)" fill="#fff" opacity="0.8"/>
        </g>
        <g id="freepik--character-1--inject-1" transform="translate(41.721 53.993)">
          <path id="Path_23282" data-name="Path 23282" d="M226.5,174.9l-4.154-11.886-6.319.585a30.067,30.067,0,0,0-5.316-5.962l1.3-6.213-11.37-5.468-4.056,4.884a29.834,29.834,0,0,0-7.99-.456l-3.471-5.316-11.886,4.154.585,6.319a30.067,30.067,0,0,0-5.962,5.316l-6.22-1.3-5.468,11.347,4.891,4.056a29.834,29.834,0,0,0-.456,7.99l-5.316,3.471,4.154,11.886,6.311-.585a30.175,30.175,0,0,0,5.316,5.97l-1.3,6.213,11.347,5.468,4.056-4.891a29.781,29.781,0,0,0,7.982.456l3.478,5.316,11.886-4.154-.585-6.311a30.381,30.381,0,0,0,5.962-5.316l6.213,1.3,5.468-11.347-4.884-4.048a29.848,29.848,0,0,0,.456-7.99Zm-31.018,18.866A13.868,13.868,0,1,1,204,176.1,13.868,13.868,0,0,1,195.483,193.769Z" transform="translate(-121.684 -137.998)" fill="#0091ff"/>
          <path id="Path_23283" data-name="Path 23283" d="M143.42,192.589c-.357.562-.76,1.3-1.208,1.959s-.805,1.382-1.192,2.089c-.76,1.405-1.519,2.833-2.233,4.284a86.586,86.586,0,0,0-3.8,8.9c-.479,1.2,0,.486-.554-.266-.258-.311-.425-.3-.334-.251a1.64,1.64,0,0,0,.547.19,16.708,16.708,0,0,0,4.276.152c3.152-.19,6.486-.668,9.722-1.192h.015a1.7,1.7,0,0,1,.911,3.258,54.685,54.685,0,0,1-10.025,3.091c-.881.167-1.785.311-2.734.4a14.732,14.732,0,0,1-3.038,0,8.246,8.246,0,0,1-1.9-.433,5.073,5.073,0,0,1-2.347-1.716,4.557,4.557,0,0,1-.759-1.671,5.157,5.157,0,0,1-.106-1.6,6.373,6.373,0,0,1,.228-1.2l.182-.638a69.187,69.187,0,0,1,3.585-9.911c.714-1.6,1.519-3.182,2.347-4.724q.638-1.162,1.322-2.278a26.962,26.962,0,0,1,1.519-2.278,3.418,3.418,0,0,1,5.673,3.8Z" transform="translate(-115.275 -148.173)" fill="#7f3e3b"/>
          <path id="Path_23284" data-name="Path 23284" d="M161.74,217.673l-1.587,1.314a2.377,2.377,0,0,1-2.142.478l-3.5-.919a4.473,4.473,0,0,1-3.038-2.749l-.311-.835c2.476-2.362,6.889-3.1,6.889-3.1l1.238-.342a1.99,1.99,0,0,1,2.506,1.329l.759,2.438A2.279,2.279,0,0,1,161.74,217.673Z" transform="translate(-120.691 -153.958)" fill="#7f3e3b"/>
          <path id="Path_23285" data-name="Path 23285" d="M153.769,161.07c1.094,4.033,2.43,11.392-.19,14.111,0,0-2.013,3.8,9.873,3.167,8.354-.425,2.651-3.167,2.651-3.167-4.557-1.078-4.709-4.413-4.154-7.542Z" transform="translate(-121.242 -141.846)" fill="#7f3e3b"/>
          <path id="Path_23286" data-name="Path 23286" d="M127.37,382.251l-7.709-2.841a134.327,134.327,0,0,1-3.091,15.046l5.408,2.278S125.578,385.873,127.37,382.251Z" transform="translate(-112.372 -194.358)" fill="#7f3e3b"/>
          <path id="Path_23287" data-name="Path 23287" d="M121.909,409.868c-4.124-3.038-3.8-2.871-6.076-4.648-1.937-1.519-2.575-1.618-4.147-2.825-1.314-1-.425-2.279.957-3.554.524-.479,1.185-1.01,1.937-1.7a1.23,1.23,0,0,1,1.565-.076l4.83,3.532a1.413,1.413,0,0,1,.57,1.132,8.635,8.635,0,0,0,2.825,6.205C126.42,409.868,123.557,411.075,121.909,409.868Z" transform="translate(-111.043 -198.545)" fill="#263238"/>
          <path id="Path_23288" data-name="Path 23288" d="M161.39,236s-8.119,41.81-14.43,61.291c-6.608,20.506-16.268,43.238-20.651,56.567-1.36.175-5.241-1.443-7.139-3.038,0,0,2.894-34.937,12.8-53.013C130.98,245.068,141.006,236,141.006,236Z" transform="translate(-112.997 -159.867)" fill="#0091ff"/>
          <path id="Path_23289" data-name="Path 23289" d="M161.39,236s-8.119,41.81-14.43,61.291c-6.608,20.506-16.268,43.238-20.651,56.567-1.36.175-5.241-1.443-7.139-3.038,0,0,2.894-34.937,12.8-53.013C130.98,245.068,141.006,236,141.006,236Z" transform="translate(-112.997 -159.867)" opacity="0.3"/>
          <path id="Path_23290" data-name="Path 23290" d="M154.532,256.6l8.354,15.949c-1.914,8.354-4.041,17.066-6.076,24.144C150.757,279.689,154.532,256.6,154.532,256.6Z" transform="translate(-121.222 -164.822)" opacity="0.2"/>
          <path id="Path_23291" data-name="Path 23291" d="M127.7,386.493a17.469,17.469,0,0,0-.547,2.78.532.532,0,0,1-.706.448,36.672,36.672,0,0,1-8.1-3.8.683.683,0,0,1-.334-.661l.342-2.673a.539.539,0,0,1,.759-.395l8.142,3.524a.691.691,0,0,1,.448.775Z" transform="translate(-112.717 -195.015)" fill="#263238"/>
          <path id="Path_23292" data-name="Path 23292" d="M181.305,387.86l-7.405.547c1.215,5.909,2.484,15.235,2.484,15.235h5.879S181.214,391.908,181.305,387.86Z" transform="translate(-126.16 -196.39)" fill="#7f3e3b"/>
          <path id="Path_23293" data-name="Path 23293" d="M188.662,414.124c-5.111,0-4.747-.076-7.595-.175-2.461-.083-3.038.22-5.028.175-1.648,0-1.587-1.61-1.071-3.433.19-.7.471-1.519.759-2.514a1.329,1.329,0,0,1,1.284-.987H183a1.284,1.284,0,0,1,1.086.57,7.853,7.853,0,0,0,5.7,3.334C192.5,411.466,190.7,414.124,188.662,414.124Z" transform="translate(-126.339 -201.039)" fill="#263238"/>
          <path id="Path_23294" data-name="Path 23294" d="M175.443,236s.927,36.456,1.754,59.127-.949,62.8-.949,62.8c-.167,1.1-5.947.661-6.927,0,0,0-11.051-32.506-6.835-60.631-14.795-36.456-10.527-60.4-10.527-60.4Z" transform="translate(-120.746 -159.867)" fill="#0091ff"/>
          <path id="Path_23295" data-name="Path 23295" d="M175.443,236s.927,36.456,1.754,59.127-.949,62.8-.949,62.8c-.167,1.1-5.947.661-6.927,0,0,0-11.051-32.506-6.835-60.631-14.795-36.456-10.527-60.4-10.527-60.4Z" transform="translate(-120.746 -159.867)" opacity="0.3"/>
          <path id="Path_23296" data-name="Path 23296" d="M182.281,392.277c0,.759.068,2.089.137,3.038a.623.623,0,0,1-.547.653,41.174,41.174,0,0,1-7.648-.084.554.554,0,0,1-.5-.456l-.516-2.681a.623.623,0,0,1,.592-.759l7.891-.319a.562.562,0,0,1,.592.608Z" transform="translate(-125.989 -197.306)" fill="#263238"/>
          <path id="Path_23297" data-name="Path 23297" d="M149.56,227.376a53.242,53.242,0,0,1-.76,6.357h25.747l.273-6.554S154.952,226.055,149.56,227.376Z" transform="translate(-120.123 -157.638)" fill="#7f3e3b"/>
          <path id="Path_23298" data-name="Path 23298" d="M175.324,189.216a109.358,109.358,0,0,1-.182,11.879c-.213,5.165.759,6.425,0,14.886-2.825,1.648-21.41,1.587-30.547.4.554-7.314,1.23-12.243-3.722-28.7a6.1,6.1,0,0,1,5.506-7.876c1.094-.1,2.278-.19,3.441-.243a93.271,93.271,0,0,1,12.539,0c1.359.114,2.772.281,4.124.456C171.329,180.657,175.172,184.644,175.324,189.216Z" transform="translate(-118.151 -146.243)" fill="#263238"/>
          <path id="Path_23299" data-name="Path 23299" d="M232.4,216.535l-1.025-1.785a2.423,2.423,0,0,0-1.853-1.185l-3.6-.342a4.473,4.473,0,0,0-3.8,1.519l-.585.684c1.519,3.038,5.408,5.316,5.408,5.316l1.041.759a2,2,0,0,0,2.81-.38l1.519-2.043a2.278,2.278,0,0,0,.084-2.544Z" transform="translate(-137.618 -154.385)" fill="#7f3e3b"/>
          <path id="Path_23300" data-name="Path 23300" d="M187.332,194.148l.334.516c.144.22.281.448.448.676.319.456.676.9,1.04,1.352a34.83,34.83,0,0,0,2.4,2.6c.858.828,1.762,1.633,2.711,2.4s1.944,1.519,2.954,2.187l-.592-.273a43.962,43.962,0,0,0,4.268,1.306c1.519.387,3.038.759,4.557,1.139l4.656,1.109c1.557.38,3.122.76,4.671,1.132h0a1.7,1.7,0,0,1-.418,3.357c-1.648,0-3.266-.076-4.891-.152s-3.251-.22-4.884-.372-3.258-.349-4.9-.608a37.918,37.918,0,0,1-5.089-1.071,2.066,2.066,0,0,1-.441-.182l-.16-.091c-.615-.357-1.238-.7-1.853-1.063s-1.223-.76-1.808-1.177a32.817,32.817,0,0,1-3.433-2.673,29.817,29.817,0,0,1-3.1-3.167c-.478-.577-.942-1.17-1.382-1.808-.22-.311-.441-.646-.646-.987-.106-.175-.205-.342-.311-.539s-.19-.334-.349-.668a3.4,3.4,0,0,1,5.939-3.3Z" transform="translate(-127.812 -149.329)" fill="#7f3e3b"/>
          <path id="Path_23301" data-name="Path 23301" d="M175.3,180.72c5.013,1.329,9.311,5.628,15.19,14.111-.82,3.463-8.354,7.466-8.354,7.466S166.446,186.667,175.3,180.72Z" transform="translate(-125.846 -146.572)" fill="#263238"/>
          <path id="Path_23302" data-name="Path 23302" d="M171.122,150.847c.182.524.615.866.957.76s.463-.6.273-1.124-.615-.873-.957-.759S170.932,150.323,171.122,150.847Z" transform="translate(-125.47 -139.112)" fill="#263238"/>
          <path id="Path_23303" data-name="Path 23303" d="M171.33,149.594l1.116-.714S172.158,150.042,171.33,149.594Z" transform="translate(-125.542 -138.915)" fill="#263238"/>
          <path id="Path_23304" data-name="Path 23304" d="M171.67,152.5a16.4,16.4,0,0,0,3.038,2.818,2.2,2.2,0,0,1-1.732.873Z" transform="translate(-125.624 -139.785)" fill="#630f0f"/>
          <path id="Path_23305" data-name="Path 23305" d="M169.116,145.129a.281.281,0,0,0,.19-.129.327.327,0,0,0-.122-.441,3.441,3.441,0,0,0-3-.342.3.3,0,0,0-.137.418.349.349,0,0,0,.441.16,2.727,2.727,0,0,1,2.37.3.349.349,0,0,0,.258.038Z" transform="translate(-124.262 -137.745)" fill="#263238"/>
          <path id="Path_23306" data-name="Path 23306" d="M147.232,151.348c2.506,6.137,3.433,8.78,7.7,11.1,6.418,3.478,13.443-.494,12.828-7.147-.547-5.985-4.557-15.008-11.56-15.775a8.491,8.491,0,0,0-8.97,11.825Z" transform="translate(-119.573 -136.644)" fill="#7f3e3b"/>
          <path id="Path_23307" data-name="Path 23307" d="M160.038,150.319c2.058,4.511,1.792,17.3-9.7,13.337s-10.686-10.2-7.595-15.19c-6.235-5.582,1.823-10.01,9.228-12.023S165.878,136.238,160.038,150.319Z" transform="translate(-118.131 -135.759)" fill="#263238"/>
          <path id="Path_23308" data-name="Path 23308" d="M148.326,153.176a4.906,4.906,0,1,1-5.787-3.8A4.906,4.906,0,0,1,148.326,153.176Z" transform="translate(-117.675 -139.011)" fill="#0091ff"/>
          <path id="Path_23309" data-name="Path 23309" d="M139.345,159.391c2.278-4.557.425-10.223-3.106-13.884-6.684-6.934-15.949-2.377-13.367,4.481,3.038,8.18-12.972,16.587-3.638,21.433,9.114,4.747,24.3-3.623,20.035-11.863C139.291,159.482,139.322,159.482,139.345,159.391Z" transform="translate(-112.301 -137.273)" fill="#263238"/>
          <path id="Path_23310" data-name="Path 23310" d="M162.692,154.069a4.557,4.557,0,0,0,3.038,2.127c1.519.243,2.02-1.519,1.344-3.22-.615-1.519-2.157-3.456-3.592-2.924S161.781,152.626,162.692,154.069Z" transform="translate(-123.337 -139.175)" fill="#7f3e3b"/>
          <path id="Path_23311" data-name="Path 23311" d="M144.685,180c-4.5.691-6.3,2.058-9.965,11.089,1.663,3.365,9.463,6.592,9.463,6.592S149.363,186.015,144.685,180Z" transform="translate(-116.737 -146.399)" fill="#263238"/>
          <path id="Path_23312" data-name="Path 23312" d="M174.175,237.631a123.867,123.867,0,0,1-27.714-.061.63.63,0,0,1-.479-.881c.228-.532.448-1.063.668-1.595a.592.592,0,0,1,.6-.365,121.589,121.589,0,0,0,26.643,0,.6.6,0,0,1,.646.554c.053.554.114,1.1.167,1.656a.623.623,0,0,1-.532.691Z" transform="translate(-119.432 -159.561)" fill="#263238"/>
        </g>
      </g>
    </g>
  </g>
</svg>
