<svg xmlns="http://www.w3.org/2000/svg" width="335" height="293" viewBox="0 0 335 293">
  <g id="Group_1591" data-name="Group 1591" transform="translate(-16782 -6383)">
    <rect id="Rectangle_2859" data-name="Rectangle 2859" width="335" height="285" transform="translate(16782 6383)" fill="#fff" opacity="0"/>
    <g id="Group_1584" data-name="Group 1584" transform="translate(-855.24 110)">
      <g id="Group_1582" data-name="Group 1582" transform="translate(17725.197 6273)">
        <g id="Group_904" data-name="Group 904" transform="translate(0)" opacity="0">
          <rect id="Rectangle_1318" data-name="Rectangle 1318" width="234" height="293" transform="translate(0.042 0)" fill="#fff"/>
        </g>
        <g id="Software_engineer-rafiki_1_" data-name="Software engineer-rafiki (1)" transform="translate(100.526 17.541)">
          <g id="freepik--App--inject-7" transform="translate(0 0)">
            <path id="Path_23315" data-name="Path 23315" d="M136.872,161.984a.892.892,0,0,1-.892-.892V89.462a.892.892,0,1,1,1.784,0v71.63a.892.892,0,0,1-.892.892Z" transform="translate(-112.763 -76.62)" fill="#0091ff"/>
            <path id="Path_23316" data-name="Path 23316" d="M167.391,161.959a.892.892,0,0,1-.892-.892V89.436a.9.9,0,1,1,1.792,0v71.63A.9.9,0,0,1,167.391,161.959Z" transform="translate(-119.405 -76.594)" fill="#0091ff"/>
            <path id="Path_23317" data-name="Path 23317" d="M160.739,114.22a.9.9,0,0,1-.634-.258l-11.3-11.3L137.5,113.93a.9.9,0,0,1-1.267-1.267l11.3-11.25-11.3-11.328a.9.9,0,0,1,.634-1.565h23.877a.9.9,0,0,1,.634,1.533l-11.3,11.359,11.3,11.3a.892.892,0,0,1-.634,1.565ZM139.021,90.343l9.779,9.779,9.779-9.779Z" transform="translate(-112.753 -76.609)" fill="#0091ff"/>
            <path id="Path_23318" data-name="Path 23318" d="M136.87,87.03a.892.892,0,0,1-.634-1.526l11.938-11.938a.892.892,0,0,1,1.267,0L161.381,85.5a.892.892,0,0,1,0,1.267.907.907,0,0,1-1.267,0l-11.3-11.3-11.3,11.3A.9.9,0,0,1,136.87,87.03Z" transform="translate(-112.761 -73.297)" fill="#0091ff"/>
            <path id="Path_23319" data-name="Path 23319" d="M191.267,87.03a.915.915,0,0,1-.634-.258l-11.3-11.3-11.3,11.3a.908.908,0,0,1-1.267,0,.892.892,0,0,1,0-1.267l11.938-11.938a.892.892,0,0,1,1.267,0L191.924,85.5a.892.892,0,0,1-.634,1.526Z" transform="translate(-119.404 -73.297)" fill="#0091ff"/>
            <path id="Path_23320" data-name="Path 23320" d="M197.91,87.03a.915.915,0,0,1-.634-.258.892.892,0,0,1,0-1.267l11.938-11.938a.892.892,0,0,1,1.267,0L222.421,85.5a.892.892,0,0,1,0,1.267.908.908,0,0,1-1.267,0l-11.3-11.3-11.281,11.3A.9.9,0,0,1,197.91,87.03Z" transform="translate(-126.047 -73.297)" fill="#0091ff"/>
            <path id="Path_23321" data-name="Path 23321" d="M136.87,144.764a.892.892,0,0,1-.634-1.526l23.877-23.877a.9.9,0,0,1,1.267,1.267L137.5,144.506A.9.9,0,0,1,136.87,144.764Z" transform="translate(-112.761 -83.276)" fill="#0091ff"/>
            <path id="Path_23322" data-name="Path 23322" d="M160.762,144.755a.9.9,0,0,1-.634-.258l-23.877-23.908a.9.9,0,0,1,1.267-1.267L161.4,143.2a.892.892,0,0,1-.634,1.526Z" transform="translate(-112.776 -83.268)" fill="#0091ff"/>
            <path id="Path_23323" data-name="Path 23323" d="M160.748,175.282H136.871a.892.892,0,0,1-.829-.548.907.907,0,0,1,.2-.978l11.3-11.313-11.3-11.3a.9.9,0,0,1,1.267-1.267l11.3,11.3,11.3-11.3a.9.9,0,0,1,1.267,1.267l-11.3,11.3,11.3,11.3a.892.892,0,0,1-.634,1.526ZM139.03,173.5h19.558l-9.779-9.779Z" transform="translate(-112.762 -89.917)" fill="#263238"/>
            <path id="Path_23324" data-name="Path 23324" d="M122.892,102.6H110.14l1.6-12.893h9.537Z" transform="translate(-107.138 -76.868)" fill="#0091ff"/>
            <path id="Path_23325" data-name="Path 23325" d="M122.642,103.247H109.89a.915.915,0,0,1-.673-.3.931.931,0,0,1-.219-.7l1.612-12.893a.892.892,0,0,1,.884-.782h9.537a.9.9,0,0,1,.892.782l1.565,12.893a.892.892,0,0,1-.884,1Zm-11.735-1.792h10.718l-1.385-11.1h-7.949Z" transform="translate(-106.888 -76.62)" fill="#0091ff"/>
            <path id="Path_23326" data-name="Path 23326" d="M202.043,90.35H107.286a.9.9,0,1,1,0-1.792h94.756a.9.9,0,1,1,0,1.792Z" transform="translate(-106.303 -76.617)" fill="#263238"/>
            <path id="Path_23327" data-name="Path 23327" d="M199.915,75.09H152.193a.9.9,0,0,1,0-1.792h47.722a.9.9,0,1,1,0,1.792Z" transform="translate(-116.114 -73.295)" fill="#0091ff"/>
            <rect id="Rectangle_1509" data-name="Rectangle 1509" width="109.691" height="211.738" rx="11.27" transform="translate(7.406 52.929)" fill="#0091ff"/>
            <rect id="Rectangle_1510" data-name="Rectangle 1510" width="109.691" height="211.738" rx="11.27" transform="translate(7.406 52.929)" opacity="0.2"/>
            <rect id="Rectangle_1511" data-name="Rectangle 1511" width="109.691" height="211.738" rx="11.27" transform="translate(18.672 52.929)" fill="#0091ff"/>
            <rect id="Rectangle_1512" data-name="Rectangle 1512" width="204.392" height="102.345" rx="6.57" transform="translate(124.686 56.598) rotate(90)" fill="#fff"/>
            <rect id="Rectangle_1513" data-name="Rectangle 1513" width="99.669" height="87.981" rx="8.14" transform="matrix(0.049, 0.999, -0.999, 0.049, 118.695, 81.237)" opacity="0.1"/>
            <rect id="Rectangle_1514" data-name="Rectangle 1514" width="10.53" height="96.47" rx="4.38" transform="translate(121.752 59.539) rotate(90)" fill="#0091ff"/>
            <path id="Path_23328" data-name="Path 23328" d="M150.972,157.907h0a2.472,2.472,0,0,1-2.472-2.464h0a2.48,2.48,0,0,1,2.472-2.472h0a2.48,2.48,0,0,1,2.472,2.472h0a2.472,2.472,0,0,1-2.472,2.464Z" transform="translate(-115.488 -90.638)" fill="#fff"/>
            <path id="Path_23329" data-name="Path 23329" d="M160.362,157.907h0a2.472,2.472,0,0,1-2.472-2.464h0a2.48,2.48,0,0,1,2.472-2.472h0a2.472,2.472,0,0,1,2.464,2.472h0A2.472,2.472,0,0,1,160.362,157.907Z" transform="translate(-117.532 -90.638)" fill="#fff"/>
            <path id="Path_23330" data-name="Path 23330" d="M169.752,157.907h0a2.472,2.472,0,0,1-2.472-2.464h0a2.48,2.48,0,0,1,2.472-2.472h0a2.472,2.472,0,0,1,2.464,2.472h0a2.472,2.472,0,0,1-2.464,2.464Z" transform="translate(-119.576 -90.638)" fill="#fff"/>
            <rect id="Rectangle_1515" data-name="Rectangle 1515" width="6.118" height="6.118" rx="1.72" transform="translate(110.103 61.738)" fill="#fff"/>
            <circle id="Ellipse_129" data-name="Ellipse 129" cx="17.141" cy="17.141" r="17.141" transform="translate(26.967 194.253) rotate(-22.5)" fill="#0091ff"/>
            <path id="Path_23331" data-name="Path 23331" d="M237.715,322.3H204.294a2.151,2.151,0,0,1-2.144-2.144h0a2.151,2.151,0,0,1,2.144-2.144h33.421a2.144,2.144,0,0,1,2.144,2.144h0A2.144,2.144,0,0,1,237.715,322.3Z" transform="translate(-127.166 -126.561)" fill="#0091ff"/>
            <path id="Path_23332" data-name="Path 23332" d="M237.715,335H204.294a2.151,2.151,0,0,1-2.144-2.144h0a2.151,2.151,0,0,1,2.144-2.144h33.421a2.144,2.144,0,0,1,2.144,2.144h0A2.144,2.144,0,0,1,237.715,335Z" transform="translate(-127.166 -129.326)" fill="#0091ff"/>
            <rect id="Rectangle_1516" data-name="Rectangle 1516" width="37.708" height="4.287" rx="2.144" transform="translate(74.984 211.32)" fill="#0091ff"/>
            <rect id="Rectangle_1517" data-name="Rectangle 1517" width="82.599" height="24.917" rx="9.82" transform="translate(32.222 230.292)" fill="#e0e0e0"/>
            <rect id="Rectangle_1518" data-name="Rectangle 1518" width="99.669" height="87.981" rx="8.14" transform="translate(125.22 75.126) rotate(85.54)" fill="#fff"/>
            <path id="Path_23333" data-name="Path 23333" d="M167.852,275.49a6.759,6.759,0,0,1-6.728-6.259l-6.759-86.675a6.767,6.767,0,0,1,6.212-7.26l75.026-5.852a6.767,6.767,0,0,1,7.26,6.212l6.759,86.675a6.767,6.767,0,0,1-6.212,7.268l-75.026,5.844A2.043,2.043,0,0,1,167.852,275.49Zm-5.946-6.259a5.977,5.977,0,0,0,6.415,5.476l75.026-5.852a5.985,5.985,0,0,0,5.476-6.423l-6.759-86.675a5.977,5.977,0,0,0-6.423-5.476l-75.018,5.852a5.985,5.985,0,0,0-5.476,6.423Z" transform="translate(-116.76 -94.219)" fill="#0091ff"/>
            <rect id="Rectangle_1519" data-name="Rectangle 1519" width="29.33" height="81.723" rx="6.43" transform="translate(127.324 142.383) rotate(85.54)" fill="#0091ff"/>
            <rect id="Rectangle_1520" data-name="Rectangle 1520" width="61.147" height="41.73" rx="6.51" transform="translate(82.475 81.597) rotate(85.54)" fill="#0091ff" opacity="0.2"/>
            <rect id="Rectangle_1521" data-name="Rectangle 1521" width="16.828" height="35.213" rx="5.23" transform="translate(122.081 78.508) rotate(85.54)" fill="#0091ff" opacity="0.2"/>
            <rect id="Rectangle_1522" data-name="Rectangle 1522" width="16.828" height="35.213" rx="5.23" transform="translate(123.799 100.601) rotate(85.54)" fill="#0091ff" opacity="0.4"/>
            <rect id="Rectangle_1523" data-name="Rectangle 1523" width="16.828" height="35.213" rx="5.23" transform="translate(125.526 122.693) rotate(85.54)" fill="#0091ff" opacity="0.6"/>
            <path id="Path_23334" data-name="Path 23334" d="M226.137,141.939a.4.4,0,0,1-.4-.4V89.577a.4.4,0,1,1,.782,0V141.54A.4.4,0,0,1,226.137,141.939Z" transform="translate(-132.298 -76.735)" fill="#263238"/>
            <path id="Path_23335" data-name="Path 23335" d="M228.732,163.961H218.8a1.838,1.838,0,0,1-1.76-1.314l-2.136-7.26a1.839,1.839,0,0,1,1.76-2.347h14.207a1.838,1.838,0,0,1,1.76,2.347l-2.136,7.26a1.831,1.831,0,0,1-1.76,1.314Z" transform="translate(-129.925 -90.653)" fill="#263238"/>
            <path id="Path_23336" data-name="Path 23336" d="M226,178.023a.892.892,0,0,1,0-1.784,3.129,3.129,0,1,0,0-6.259.892.892,0,0,1-.892-.892v-2.316a.9.9,0,0,1,1.792,0v1.494a4.913,4.913,0,0,1-.9,9.74Z" transform="translate(-132.163 -93.464)" fill="#263238"/>
          </g>
        </g>
      </g>
      <g id="Group_1583" data-name="Group 1583" transform="translate(17651.461 6334.402)">
        <g id="Group_903" data-name="Group 903" transform="translate(0.24 0.843)" opacity="0">
          <rect id="Rectangle_1318-2" data-name="Rectangle 1318" width="246" height="231" transform="translate(-0.46 -0.244)" fill="#fff"/>
        </g>
        <g id="Working-rafiki" transform="translate(5.119 14.966)">
          <g id="freepik--background-simple--inject-25" transform="translate(0.002)" opacity="0">
            <path id="Path_23530" data-name="Path 23530" d="M281.877,269.269c-6.3,12.464-26.536,17.025-37.252,16.238-12.328-.915-22.263-9.754-30.87-18.444-10.862-10.931-17.723-16.791-33.337-13.847-13.753,2.589-26.8,8.222-40.762,9.222-28.548,2.128-61.491-2.972-69.461-36.973-7.31-31.177,8.752-62.425,40.4-62.3,26.724.121,26.669,39.016,55.963,26.545,27.275-11.641,31.518-56.573,65.382-53.139,33.664,3.426,11.807,49.805,12.729,74.988.606,16.16,16.6,8.874,27.185,15.514C284.641,235.141,289.848,253.5,281.877,269.269Z" transform="translate(-68.45 -136.387)" fill="#0091ff"/>
            <path id="Path_23531" data-name="Path 23531" d="M281.877,269.269c-6.3,12.464-26.536,17.025-37.252,16.238-12.328-.915-22.263-9.754-30.87-18.444-10.862-10.931-17.723-16.791-33.337-13.847-13.753,2.589-26.8,8.222-40.762,9.222-28.548,2.128-61.491-2.972-69.461-36.973-7.31-31.177,8.752-62.425,40.4-62.3,26.724.121,26.669,39.016,55.963,26.545,27.275-11.641,31.518-56.573,65.382-53.139,33.664,3.426,11.807,49.805,12.729,74.988.606,16.16,16.6,8.874,27.185,15.514C284.641,235.141,289.848,253.5,281.877,269.269Z" transform="translate(-68.45 -136.387)" fill="#fff" opacity="0.9"/>
          </g>
          <g id="freepik--Shadow--inject-25" transform="translate(6.378 190.49)">
            <ellipse id="freepik--path--inject-25" cx="78.571" cy="8.03" rx="78.571" ry="8.03" transform="translate(0 0)" fill="#f5f5f5"/>
          </g>
          <g id="freepik--Desk--inject-25" transform="translate(0 74.603)">
            <rect id="Rectangle_1558" data-name="Rectangle 1558" width="164.248" height="2.632" transform="translate(0 31.865)" fill="#0091ff"/>
            <rect id="Rectangle_1559" data-name="Rectangle 1559" width="35.639" height="2.632" transform="translate(157.996 34.497) rotate(180)" fill="#0091ff"/>
            <rect id="Rectangle_1560" data-name="Rectangle 1560" width="35.639" height="2.632" transform="translate(157.996 34.497) rotate(180)" opacity="0.2"/>
            <path id="Path_23547" data-name="Path 23547" d="M245.643,293.036H114.689l-4.379-2.816H250.022Z" transform="translate(-98.042 -255.723)" fill="#0091ff"/>
            <path id="Path_23548" data-name="Path 23548" d="M245.643,293.036H114.689l-4.379-2.816H250.022Z" transform="translate(-98.042 -255.723)" fill="#fff" opacity="0.6"/>
            <path id="Path_23549" data-name="Path 23549" d="M126.11,294.19v83.947h2.256L131.2,294.19Z" transform="translate(-102.634 -256.877)" fill="#0091ff"/>
            <path id="Path_23550" data-name="Path 23550" d="M163.65,294.19v83.947h2.256l2.837-83.947Z" transform="translate(-124.382 -256.877)" fill="#0091ff"/>
            <path id="Path_23551" data-name="Path 23551" d="M364.743,294.19v83.947h-2.249L359.65,294.19Z" transform="translate(-218.651 -256.877)" fill="#0091ff"/>
            <path id="Path_23552" data-name="Path 23552" d="M327.213,294.19v83.947h-2.256L322.12,294.19Z" transform="translate(-198.222 -256.877)" fill="#0091ff"/>
            <path id="Path_23553" data-name="Path 23553" d="M250.619,241.59l-7.413,30.2h0L243,273.455h51.132l.213-1.667,7.406-30.2Z" transform="translate(-170.765 -241.59)" fill="#0091ff"/>
            <path id="Path_23554" data-name="Path 23554" d="M250.619,241.59l-7.413,30.2h0L243,273.455h51.132l.213-1.667,7.406-30.2Z" transform="translate(-170.765 -241.59)" opacity="0.3"/>
            <path id="Path_23555" data-name="Path 23555" d="M299.625,241.59H248.486l-7.406,30.2h51.132Z" transform="translate(-169.694 -241.59)" fill="#0091ff"/>
            <path id="Path_23556" data-name="Path 23556" d="M291.847,270.971l6.739-27.431H250.292l-6.732,27.431Z" transform="translate(-170.182 -242.157)" fill="#fff"/>
            <path id="Path_23557" data-name="Path 23557" d="M271.226,284.16l-.213,1.667h-56.3l.206-1.667Z" transform="translate(-155.272 -253.962)" fill="#0091ff"/>
            <path id="Path_23558" data-name="Path 23558" d="M271.226,284.16l-.213,1.667h-56.3l.206-1.667Z" transform="translate(-155.272 -253.962)" fill="#fff" opacity="0.6"/>
            <path id="Path_23559" data-name="Path 23559" d="M139.36,276.52a4.5,4.5,0,0,0-3.994-4.327v-.816a.355.355,0,0,0-.369-.348h-7.661a.362.362,0,0,0-.376.348v10.641h8.406v-1.163A4.5,4.5,0,0,0,139.36,276.52Zm-3.994,2.958v-5.909a2.986,2.986,0,0,1,0,5.909Z" transform="translate(-102.881 -250.146)" fill="#0091ff"/>
            <path id="Path_23560" data-name="Path 23560" d="M346.56,280.119h7.122l-2.107-15.6H346.56Z" transform="translate(-214.846 -248.254)" fill="#263238"/>
            <path id="Path_23561" data-name="Path 23561" d="M331.84,279.029h13.492l2.5-18.259H334.351Z" transform="translate(-210.568 -247.164)" fill="#0091ff"/>
            <path id="Path_23562" data-name="Path 23562" d="M331.84,279.029h13.492l2.5-18.259H334.351Z" transform="translate(-210.568 -247.164)" opacity="0.3"/>
            <path id="Path_23563" data-name="Path 23563" d="M329.3,279.029h14.039l2.511-18.259H331.811Z" transform="translate(-209.83 -247.164)" fill="#0091ff"/>
            <path id="Path_23564" data-name="Path 23564" d="M342.768,278.179l2.114-15.379H333.724l-2.114,15.379Z" transform="translate(-210.502 -247.754)" fill="#fff" opacity="0.4"/>
          </g>
          <g id="freepik--Character--inject-25" transform="translate(38.061 34.241)">
            <path id="Path_23565" data-name="Path 23565" d="M190.776,246.179l-.582.624-.624.709c-.419.482-.837.972-1.234,1.475-.795,1.007-1.561,2.036-2.277,3.093a33.064,33.064,0,0,0-3.547,6.555,20.277,20.277,0,0,0-1.007,3.391c-.113.653-.184.936-.22,1.213a1.9,1.9,0,0,0,0,.667,2.766,2.766,0,0,0,1.419,1.6,9.923,9.923,0,0,0,1.5.759q.411.17.851.319c.27.1.61.2.823.284v3.909c-.5.071-.858.128-1.277.156a8.054,8.054,0,0,1-1.241,0,12.06,12.06,0,0,1-2.554-.326,9.571,9.571,0,0,1-2.681-1.078,7.76,7.76,0,0,1-2.469-2.291,8.278,8.278,0,0,1-1.291-3.306,7.011,7.011,0,0,1-.092-.837,7.774,7.774,0,0,1,0-.809v-.4a2.129,2.129,0,0,1,0-.319l.057-.624a24.616,24.616,0,0,1,1.022-4.774,35.427,35.427,0,0,1,4.022-8.456,40.88,40.88,0,0,1,2.674-3.724c.475-.6.965-1.178,1.475-1.752.248-.291.511-.575.78-.858s.518-.532.887-.887Z" transform="translate(-174.265 -200.883)" fill="#b55b52"/>
            <path id="Path_23566" data-name="Path 23566" d="M188.65,276.556l3.306-2.426,1.88,6.8s-2.93,1.085-5.164-.376Z" transform="translate(-178.446 -210.66)" fill="#b55b52"/>
            <path id="Path_23567" data-name="Path 23567" d="M197.9,271.83l1.291,5.689-4,2.738-1.88-6.8Z" transform="translate(-179.8 -209.991)" fill="#b55b52"/>
            <path id="Path_23568" data-name="Path 23568" d="M229.222,211.5c-.149.419-.043.837.234.929s.617-.163.759-.582.043-.844-.227-.936S229.371,211.075,229.222,211.5Z" transform="translate(-190.217 -192.281)" fill="#263238"/>
            <path id="Path_23569" data-name="Path 23569" d="M228.579,212.91a15.989,15.989,0,0,0,.759,4.3,2.575,2.575,0,0,1-2.128-.326Z" transform="translate(-189.652 -192.867)" fill="#a02724"/>
            <path id="Path_23570" data-name="Path 23570" d="M228.223,207.472a.255.255,0,0,0,.163,0,2.071,2.071,0,0,1,1.866.284.262.262,0,0,0,.341-.4,2.6,2.6,0,0,0-2.355-.39.262.262,0,0,0,0,.5Z" transform="translate(-189.899 -191.104)" fill="#263238"/>
            <path id="Path_23571" data-name="Path 23571" d="M206.811,213.93c.794,4.036,1.582,11.435-1.241,14.131,0,0,1.107,4.093,8.612,4.093,8.25,0,3.944-4.093,3.944-4.093-4.5-1.078-4.391-4.419-3.6-7.555Z" transform="translate(-183.363 -193.164)" fill="#b55b52"/>
            <path id="Path_23572" data-name="Path 23572" d="M203.767,234.251c-.6-1.3-1.241-2.781.1-3.242,1.483-.511,9.6-1.036,12.393-.078a2.88,2.88,0,0,1,2.008,3.589Z" transform="translate(-182.639 -197.95)" fill="#263238"/>
            <path id="Path_23573" data-name="Path 23573" d="M241.137,245.59c1.738,3.128,3.6,6.349,5.491,9.442s3.866,6.172,5.98,8.981c.525.709,1.071,1.383,1.61,2.057.27.348.553.631.83.951l.411.468.106.121.05.057h0l.05.064a3.107,3.107,0,0,0,1.163.709,11.134,11.134,0,0,0,2.064.5,46.269,46.269,0,0,0,10.364-.121l1.078,3.76c-.958.426-1.851.709-2.8,1.064a26.757,26.757,0,0,1-2.837.83,27.565,27.565,0,0,1-6.157.823,15.06,15.06,0,0,1-3.469-.348,9.569,9.569,0,0,1-3.859-1.717l-.475-.39-.114-.1-.071-.071-.135-.135-.553-.546c-.362-.362-.759-.709-1.085-1.092-.709-.745-1.376-1.49-1.993-2.256a92.175,92.175,0,0,1-6.845-9.428q-1.554-2.426-2.994-4.9c-.965-1.667-1.894-3.3-2.795-5.058Z" transform="translate(-191.669 -202.365)" fill="#b55b52"/>
            <path id="Path_23574" data-name="Path 23574" d="M187.089,235.541c-5.178,1.185-11.109,15.294-11.109,15.294l10.392,7.094a87.411,87.411,0,0,0,6.86-11.669C196.3,239.833,192.381,234.328,187.089,235.541Z" transform="translate(-174.764 -199.395)" fill="#0091ff"/>
            <path id="Path_23575" data-name="Path 23575" d="M194.849,248.29l-4.909,13.081.482.341s2.128-2.987,4.426-7.016Z" transform="translate(-178.821 -203.15)" opacity="0.2"/>
            <path id="Path_23576" data-name="Path 23576" d="M222.569,235.3s5.874,6.64.326,47.713H193.364c-.2-4.533,2.646-26.637-1.724-48a77.218,77.218,0,0,1,9.882-1.248,107.383,107.383,0,0,1,12.556,0,55.238,55.238,0,0,1,8.491,1.532Z" transform="translate(-179.315 -198.875)" fill="#0091ff"/>
            <path id="Path_23577" data-name="Path 23577" d="M230.61,252.75a26.247,26.247,0,0,0,5.831,12.641c.121-2.646.17-5.022.163-7.143Z" transform="translate(-190.64 -204.446)" opacity="0.2"/>
            <path id="Path_23578" data-name="Path 23578" d="M226.986,240.448c-.709,5.228,9.577,18.578,9.577,18.578l10.35-7.094s-2.873-7.356-7.7-12.18C233.7,234.22,227.794,234.759,226.986,240.448Z" transform="translate(-189.577 -199.543)" fill="#0091ff"/>
            <path id="Path_23579" data-name="Path 23579" d="M282,277.681l4.214-1.731,4.334,3.277s-4.136,3.66-7.9,2.235Z" transform="translate(-205.576 -211.188)" fill="#b55b52"/>
            <path id="Path_23580" data-name="Path 23580" d="M290.712,275.71l3.178,2.27-1.646,1.178-4.334-3.277Z" transform="translate(-207.293 -211.119)" fill="#b55b52"/>
            <path id="Path_23581" data-name="Path 23581" d="M209.187,201.34c-1.475,5.278-2.61,8.293-.922,11.847,2.532,5.356,9.733,5.207,12.769.482,2.724-4.256,4.682-12.173.34-15.982a7.477,7.477,0,0,0-12.187,3.653Z" transform="translate(-183.902 -187.895)" fill="#b55b52"/>
            <path id="Path_23582" data-name="Path 23582" d="M218.7,198.158c-2.128,6.058-4.632,12.712-10.747,11.449-3.944-.816-4.256-7.165-5.675-10.052-1.256-2.532-1.178-7.626,1.419-7.69-1.163-1.688,4.717-7.867,8.732-4.6,1.029-1.419,8.442-5.6,13.932,1.036C231.531,194.569,229,199.8,218.7,198.158Z" transform="translate(-182.176 -184.656)" fill="#263238"/>
            <path id="Path_23583" data-name="Path 23583" d="M218.986,208.334a6.242,6.242,0,0,0,.865,3.88c.943,1.518,2.327.936,2.837-.617.454-1.419.5-3.866-.809-4.852S219.185,206.7,218.986,208.334Z" transform="translate(-187.252 -190.959)" fill="#b55b52"/>
            <path id="Path_23584" data-name="Path 23584" d="M282.149,406.333c.709,0,1.419-.1,1.624-.419a.5.5,0,0,0,0-.575.71.71,0,0,0-.411-.305c-.922-.248-2.837.851-2.93.9a.121.121,0,0,0-.064.135.135.135,0,0,0,.1.106A9.65,9.65,0,0,0,282.149,406.333Zm.88-1.071a.889.889,0,0,1,.248,0,.369.369,0,0,1,.255.184c.092.163.064.241,0,.284-.255.362-1.653.369-2.681.22A5.923,5.923,0,0,1,283.029,405.262Z" transform="translate(-205.101 -248.693)" fill="#0091ff"/>
            <path id="Path_23585" data-name="Path 23585" d="M280.483,405.635h.057c.667-.3,1.986-1.49,1.88-2.128,0-.149-.128-.326-.482-.369a.965.965,0,0,0-.709.227,3.689,3.689,0,0,0-.858,2.128.135.135,0,0,0,.05.121.163.163,0,0,0,.064.021Zm1.348-2.235h.078c.234,0,.248.121.255.149.064.376-.837,1.312-1.518,1.717a3.05,3.05,0,0,1,.709-1.7.709.709,0,0,1,.475-.17Z" transform="translate(-205.102 -248.152)" fill="#0091ff"/>
            <path id="Path_23586" data-name="Path 23586" d="M271.48,401.24H277l1.256-12.79h-5.519Z" transform="translate(-202.518 -243.884)" fill="#b55b52"/>
            <path id="Path_23587" data-name="Path 23587" d="M276.581,405.58h-6.023a.489.489,0,0,0-.475.383l-1.092,4.881a.8.8,0,0,0,.795.986c2.171-.035,5.313-.163,8.044-.163,3.2,0,5.959.17,9.7.17,2.27,0,2.9-2.291,1.951-2.5-4.32-.943-7.846-1.043-11.577-3.348a2.561,2.561,0,0,0-1.326-.411Z" transform="translate(-201.789 -248.862)" fill="#263238"/>
            <path id="Path_23588" data-name="Path 23588" d="M278.494,388.46l-.638,6.59H272.33l.646-6.59Z" transform="translate(-202.765 -243.887)" opacity="0.2"/>
            <path id="Path_23589" data-name="Path 23589" d="M251.059,406.334a1.78,1.78,0,0,0,1.327-.362.525.525,0,0,0,0-.617.6.6,0,0,0-.411-.305c-.809-.192-2.334.851-2.4.894a.149.149,0,0,0-.057.135.128.128,0,0,0,.1.1,6.8,6.8,0,0,0,1.44.156Zm.709-1.05a.551.551,0,0,1,.156,0,.326.326,0,0,1,.241.17c.121.22.05.305,0,.341-.234.305-1.362.312-2.192.177a4.257,4.257,0,0,1,1.781-.688Z" transform="translate(-196.136 -248.702)" fill="#0091ff"/>
            <path id="Path_23590" data-name="Path 23590" d="M249.655,405.644h.057c.575-.312,1.681-1.518,1.561-2.128a.426.426,0,0,0-.419-.348.709.709,0,0,0-.553.17c-.638.525-.773,2.128-.78,2.185a.142.142,0,0,0,.064.121A.121.121,0,0,0,249.655,405.644Zm1.114-2.235h.057c.17,0,.184.1.192.135.071.362-.638,1.277-1.206,1.71a3.128,3.128,0,0,1,.653-1.731A.468.468,0,0,1,250.769,403.409Z" transform="translate(-196.136 -248.16)" fill="#0091ff"/>
            <path id="Path_23591" data-name="Path 23591" d="M240.79,401.24h5.519l2.774-12.79h-5.519Z" transform="translate(-193.599 -243.884)" fill="#b55b52"/>
            <path id="Path_23592" data-name="Path 23592" d="M245.933,405.58h-6.2a.482.482,0,0,0-.468.383l-1.092,4.88a.816.816,0,0,0,.809.986c2.164-.036,3.221-.163,5.945-.163,1.681,0,3.831.17,6.15.17s2.618-2.291,1.667-2.5c-4.256-.929-4.547-2.213-5.909-3.44a1.348,1.348,0,0,0-.9-.319Z" transform="translate(-192.833 -248.862)" fill="#263238"/>
            <g id="Group_930" data-name="Group 930" transform="translate(48.532 144.573)" opacity="0.2">
              <path id="Path_23593" data-name="Path 23593" d="M244.113,388.46h5.519l-1.433,6.59H242.68Z" transform="translate(-242.68 -388.46)"/>
            </g>
            <path id="Path_23594" data-name="Path 23594" d="M224.845,303.27s41.357,4.377,40.9,25.474a116.7,116.7,0,0,1-7.534,38.746h-8.2s.419-13.386.142-34.986c-.085-6.477-13.159-8.612-25.935-9.364a29.084,29.084,0,0,1-25-17.784l-.873-2.086Z" transform="translate(-181.265 -219.128)" fill="#263238"/>
            <path id="Path_23595" data-name="Path 23595" d="M280.574,390.7c.043,0-.532,3.88-.532,3.88h-11.35l-.312-3.462Z" transform="translate(-201.617 -244.538)" fill="#0091ff"/>
            <path id="Path_23596" data-name="Path 23596" d="M214.281,303.27s29.978,9.931,30.737,22.246c1.419,22.657-9.726,41.974-9.726,41.974h-8.278s3.143-9.577,4.256-30.106c1.419-25.786-46.7-.043-37.682-34.114Z" transform="translate(-179.554 -219.128)" fill="#263238"/>
            <path id="Path_23597" data-name="Path 23597" d="M251.293,390.7c.043,0-1.043,3.88-1.043,3.88H238.9l.206-3.462Z" transform="translate(-193.05 -244.538)" fill="#0091ff"/>
            <path id="Path_23598" data-name="Path 23598" d="M234.809,331.734H188.7a5.264,5.264,0,0,1,5.264-5.264h35.582A5.264,5.264,0,0,1,234.809,331.734Z" transform="translate(-178.46 -225.871)" fill="#0091ff"/>
            <path id="Path_23599" data-name="Path 23599" d="M188.862,333.88l-6.952,58.282h1.49l8.818-58.282Z" transform="translate(-176.487 -228.024)" fill="#0091ff"/>
            <path id="Path_23600" data-name="Path 23600" d="M188.862,333.88l-6.952,58.282h1.49l8.818-58.282Z" transform="translate(-176.487 -228.024)" opacity="0.4"/>
            <path id="Path_23601" data-name="Path 23601" d="M204.765,333.88l-.135,58.282h1.483l2.008-58.282Z" transform="translate(-183.09 -228.024)" fill="#0091ff"/>
            <path id="Path_23602" data-name="Path 23602" d="M204.765,333.88l-.135,58.282h1.483l2.008-58.282Z" transform="translate(-183.09 -228.024)" opacity="0.4"/>
            <path id="Path_23603" data-name="Path 23603" d="M249.318,333.88l6.952,58.282h-1.49l-8.81-58.282Z" transform="translate(-195.104 -228.024)" fill="#0091ff"/>
            <path id="Path_23604" data-name="Path 23604" d="M249.318,333.88l6.952,58.282h-1.49l-8.81-58.282Z" transform="translate(-195.104 -228.024)" opacity="0.4"/>
            <path id="Path_23605" data-name="Path 23605" d="M236.205,333.88l.135,58.282h-1.483L232.85,333.88Z" transform="translate(-191.291 -228.024)" fill="#0091ff"/>
            <path id="Path_23606" data-name="Path 23606" d="M236.205,333.88l.135,58.282h-1.483L232.85,333.88Z" transform="translate(-191.291 -228.024)" opacity="0.4"/>
          </g>
        </g>
      </g>
    </g>
  </g>
</svg>
