<svg xmlns="http://www.w3.org/2000/svg" width="335" height="285" viewBox="0 0 335 285">
  <g id="Group_1589" data-name="Group 1589" transform="translate(-16782 -5667)">
    <rect id="Rectangle_2856" data-name="Rectangle 2856" width="335" height="285" transform="translate(16782 5667)" fill="#fff" opacity="0"/>
    <g id="Rising-cuate" transform="translate(16729.23 5662.967)">
      <g id="freepik--background-complete--inject-125" transform="translate(62.376 54.861)">
        <rect id="Rectangle_2860" data-name="Rectangle 2860" width="13.698" height="5.789" transform="translate(7.64 134.378)" fill="#ebebeb"/>
        <rect id="Rectangle_2861" data-name="Rectangle 2861" width="13.698" height="5.789" transform="translate(0 141.677)" fill="#ebebeb"/>
        <rect id="Rectangle_2862" data-name="Rectangle 2862" width="13.698" height="5.789" transform="translate(183.889 79.535)" fill="#ebebeb"/>
        <rect id="Rectangle_2863" data-name="Rectangle 2863" width="13.698" height="5.789" transform="translate(176.248 86.834)" fill="#ebebeb"/>
        <rect id="Rectangle_2864" data-name="Rectangle 2864" width="13.698" height="5.789" transform="translate(168.639 79.535)" fill="#ebebeb"/>
        <rect id="Rectangle_2865" data-name="Rectangle 2865" width="13.698" height="5.789" transform="translate(300.467 141.677)" fill="#ebebeb"/>
        <rect id="Rectangle_2866" data-name="Rectangle 2866" width="13.698" height="5.789" transform="translate(292.827)" fill="#ebebeb"/>
        <rect id="Rectangle_2867" data-name="Rectangle 2867" width="13.698" height="5.789" transform="translate(300.467 7.299)" fill="#ebebeb"/>
        <rect id="Rectangle_2868" data-name="Rectangle 2868" width="13.698" height="5.789" transform="translate(7.64)" fill="#ebebeb"/>
        <path id="Path_32018" data-name="Path 32018" d="M210.111,224.806l-3.331,7.335,2.25,1.035a1.919,1.919,0,0,1,1.112,1.671,11.637,11.637,0,0,0,.119,1.2,1.919,1.919,0,0,1-.766,1.852l-2.007,1.438,4.692,6.549,2.007-1.433a1.914,1.914,0,0,1,2-.135,10.962,10.962,0,0,0,1.1.517,1.919,1.919,0,0,1,1.226,1.593l.238,2.457,8.018-.791-.243-2.462a1.919,1.919,0,0,1,.895-1.8c.166-.1.331-.217.491-.331s.321-.233.476-.357a1.9,1.9,0,0,1,1.981-.274l2.261,1.035,3.326-7.335-2.25-1.035a1.919,1.919,0,0,1-1.112-1.671,11.665,11.665,0,0,0-.114-1.195,1.919,1.919,0,0,1,.766-1.852l2.007-1.438-4.7-6.549-2,1.438a1.924,1.924,0,0,1-2,.129,9.794,9.794,0,0,0-1.091-.491,1.914,1.914,0,0,1-1.226-1.593l-.243-2.462-8.018.791.243,2.462a1.919,1.919,0,0,1-.895,1.79c-.171.109-.336.222-.517.336l-.476.357a1.914,1.914,0,0,1-1.992.274Zm7.413,4.138a28.525,28.525,0,1,0,0,.026Z" transform="translate(-136.717 -138.629)" fill="#ebebeb"/>
        <path id="Path_32019" data-name="Path 32019" d="M641.1,109.71l-3.373,1.95.595,1.035a.926.926,0,0,1-.031.973,4.467,4.467,0,0,0-.295.517.921.921,0,0,1-.823.517H636v3.9h1.19a.921.921,0,0,1,.823.517,4.9,4.9,0,0,0,.295.517.926.926,0,0,1,.031.973l-.595,1.035,3.373,1.945.595-1.035a.931.931,0,0,1,.864-.45h.569a.916.916,0,0,1,.859.45l.6,1.035,3.373-1.945-.595-1.035a.921.921,0,0,1,.031-.967,5.476,5.476,0,0,0,.29-.517.926.926,0,0,1,.828-.517h1.19v-3.9h-1.19a.936.936,0,0,1-.828-.517,4.348,4.348,0,0,0-.29-.517.926.926,0,0,1-.031-.973l.595-1.035-3.373-1.95-.6,1.035a.926.926,0,0,1-.854.45h-.574a.926.926,0,0,1-.864-.455Zm1.743,3.725a3.186,3.186,0,1,1-2.258.933A3.192,3.192,0,0,1,642.839,113.435Z" transform="translate(-343.903 -85.464)" fill="#ebebeb"/>
        <path id="Path_32020" data-name="Path 32020" d="M87.97,133.494l2.364,3.1.947-.729a.921.921,0,0,1,.967-.088c.176.083.357.155.517.222a.921.921,0,0,1,.616.75l.155,1.179,3.864-.517-.155-1.179a.931.931,0,0,1,.4-.885,5.227,5.227,0,0,0,.466-.352.926.926,0,0,1,.957-.16l1.117.45,1.495-3.621-1.107-.455a.931.931,0,0,1-.559-.8.907.907,0,0,0-.031-.285,1.8,1.8,0,0,1-.041-.285.91.91,0,0,1,.336-.905l.941-.688-2.364-3.1-.952.724a.931.931,0,0,1-.967.093,5.271,5.271,0,0,0-.517-.222.931.931,0,0,1-.616-.75l-.155-1.185-3.864.517.155,1.185a.921.921,0,0,1-.4.879,5.194,5.194,0,0,0-.46.357.931.931,0,0,1-.962.155l-1.1-.455-1.495,3.6,1.1.46a.916.916,0,0,1,.559.791l.031.285a.6.6,0,0,0,.047.285.926.926,0,0,1-.341.91Zm3.466-2.209a3.192,3.192,0,1,1,3.575,2.757,3.192,3.192,0,0,1-3.575-2.757Z" transform="translate(-79.15 -92.27)" fill="#ebebeb"/>
        <rect id="Rectangle_2869" data-name="Rectangle 2869" width="41.927" height="50.856" transform="translate(77.352 6.88)" fill="#ebebeb"/>
        <rect id="Rectangle_2870" data-name="Rectangle 2870" width="32.347" height="41.575" transform="translate(82.142 11.52)" fill="#fff"/>
        <rect id="Rectangle_2871" data-name="Rectangle 2871" width="1.262" height="41.575" transform="translate(82.142 11.52)" fill="#dbdbdb"/>
        <rect id="Rectangle_2872" data-name="Rectangle 2872" width="1.262" height="50.856" transform="translate(119.279 6.88)" fill="#dbdbdb"/>
        <rect id="Rectangle_2873" data-name="Rectangle 2873" width="7.625" height="22.725" transform="translate(92.984 17.252)" fill="#dbdbdb"/>
        <rect id="Rectangle_2874" data-name="Rectangle 2874" width="20.335" height="11.132" transform="translate(89.653 32.724)" fill="none" stroke="#ebebeb" stroke-miterlimit="10" stroke-width="1"/>
        <rect id="Rectangle_2875" data-name="Rectangle 2875" width="41.927" height="50.856" transform="translate(193.625 6.88)" fill="#ebebeb"/>
        <rect id="Rectangle_2876" data-name="Rectangle 2876" width="32.347" height="41.575" transform="translate(198.415 11.52)" fill="#fff"/>
        <rect id="Rectangle_2877" data-name="Rectangle 2877" width="1.262" height="41.575" transform="translate(198.415 11.52)" fill="#dbdbdb"/>
        <rect id="Rectangle_2878" data-name="Rectangle 2878" width="1.262" height="50.856" transform="translate(235.552 6.88)" fill="#dbdbdb"/>
        <rect id="Rectangle_2879" data-name="Rectangle 2879" width="7.625" height="22.725" transform="translate(209.257 17.252)" fill="#dbdbdb"/>
        <rect id="Rectangle_2880" data-name="Rectangle 2880" width="20.335" height="11.132" transform="translate(205.926 32.724)" fill="none" stroke="#ebebeb" stroke-miterlimit="10" stroke-width="1"/>
        <rect id="Rectangle_2881" data-name="Rectangle 2881" width="41.927" height="50.856" transform="translate(135.485 6.88)" fill="#ebebeb"/>
        <rect id="Rectangle_2882" data-name="Rectangle 2882" width="32.347" height="41.575" transform="translate(140.281 11.52)" fill="#fff"/>
        <rect id="Rectangle_2883" data-name="Rectangle 2883" width="1.262" height="41.575" transform="translate(140.281 11.52)" fill="#dbdbdb"/>
        <rect id="Rectangle_2884" data-name="Rectangle 2884" width="1.262" height="50.856" transform="translate(177.418 6.88)" fill="#dbdbdb"/>
        <rect id="Rectangle_2885" data-name="Rectangle 2885" width="6.533" height="16.522" transform="translate(153.322 22.264)" fill="#ebebeb"/>
        <rect id="Rectangle_2886" data-name="Rectangle 2886" width="17.552" height="11.391" transform="translate(149.183 32.305)" fill="none" stroke="#dbdbdb" stroke-miterlimit="10" stroke-width="1"/>
      </g>
      <g id="freepik--Shadow--inject-125" transform="translate(57.183 234.001)">
        <ellipse id="Ellipse_368" data-name="Ellipse 368" cx="162.276" cy="12.772" rx="162.276" ry="12.772" transform="translate(0)" fill="#ebebeb"/>
      </g>
      <g id="freepik--Chart--inject-125" transform="translate(96.968 137.675)">
        <rect id="Rectangle_2887" data-name="Rectangle 2887" width="16.372" height="35.373" transform="translate(27.329 41.389)" fill="#0091ff"/>
        <g id="Group_1574" data-name="Group 1574" transform="translate(39.956 41.389)" opacity="0.1">
          <rect id="Rectangle_2888" data-name="Rectangle 2888" width="3.75" height="35.373"/>
        </g>
        <rect id="Rectangle_2889" data-name="Rectangle 2889" width="16.372" height="48.745" transform="translate(48.9 28.017)" fill="#0091ff"/>
        <g id="Group_1575" data-name="Group 1575" transform="translate(61.527 28.017)" opacity="0.1">
          <rect id="Rectangle_2890" data-name="Rectangle 2890" width="3.75" height="48.745"/>
        </g>
        <rect id="Rectangle_2891" data-name="Rectangle 2891" width="16.372" height="27.406" transform="translate(5.804 49.355)" fill="#0091ff"/>
        <g id="Group_1576" data-name="Group 1576" transform="translate(18.426 49.355)" opacity="0.1">
          <rect id="Rectangle_2892" data-name="Rectangle 2892" width="3.75" height="27.406"/>
        </g>
        <rect id="Rectangle_2893" data-name="Rectangle 2893" width="16.372" height="66.545" transform="translate(70.477 10.217)" fill="#0091ff"/>
        <g id="Group_1577" data-name="Group 1577" transform="translate(83.099 10.217)" opacity="0.1">
          <rect id="Rectangle_2894" data-name="Rectangle 2894" width="3.75" height="66.545"/>
        </g>
        <path id="Path_32021" data-name="Path 32021" d="M138.21,293.29v-6.823s59.639-3.926,83.74-54.787l2.4.476S208.345,284.3,138.21,293.29Z" transform="translate(-138.21 -227.154)" fill="#37474f"/>
        <path id="Path_32022" data-name="Path 32022" d="M302.012,229.645l-7.532-1.924,6.244-4.79Z" transform="translate(-213.642 -222.93)" fill="#37474f"/>
      </g>
      <g id="freepik--Floor--inject-125" transform="translate(52.77 214.07)">
        <path id="Path_32023" data-name="Path 32023" d="M52.77,370.869l41.674-.124,41.674-.047,83.342-.088,83.342.088,41.673.047,41.673.124L344.474,371l-41.673.041-83.342.088-83.342-.088L94.443,371Z" transform="translate(-52.77 -370.61)" fill="#263238"/>
      </g>
      <g id="freepik--Plant--inject-125" transform="translate(338.236 130.785)">
        <path id="Path_32024" data-name="Path 32024" d="M656.32,277.906s4.837-17.35,8.7-23.242S676.07,242.3,676.07,242.3,675.9,269.044,656.32,277.906Z" transform="translate(-629.57 -225.39)" fill="#0091ff"/>
        <path id="Path_32025" data-name="Path 32025" d="M656.967,284.171a83.176,83.176,0,0,0,4.407-8.406,58.852,58.852,0,0,1,2.4-9.12c0-.057.1-.026.088.031-.641,2.737-1.392,5.457-2.069,8.189,1.955-4.221,3.807-8.5,6.13-12.493a26.928,26.928,0,0,1,2.24-5.551c0-.052.114,0,.088.031a36.142,36.142,0,0,0-1.51,4.164,42.566,42.566,0,0,1,3.673-5.075c.088-.1.253,0,.171.119a61.342,61.342,0,0,0-7.294,13.046,69.449,69.449,0,0,0,6.068-7.584s.057,0,.041.031a62.074,62.074,0,0,1-6.5,8.422c-1.485,3.347-2.949,6.725-4.723,9.891,3.544-3,6.27-6.875,8.97-10.615a.083.083,0,0,1,.135.093c-2.7,4.1-5.494,7.966-9.379,11.008a42.68,42.68,0,0,1-2.586,4.05.211.211,0,0,1-.352-.233Z" transform="translate(-629.866 -231.955)" fill="#263238"/>
        <path id="Path_32026" data-name="Path 32026" d="M646.243,262.147s8.691-15.995,6.166-31.5-5.225-21.033-5.225-21.033A61.711,61.711,0,0,0,646.243,262.147Z" transform="translate(-622.09 -209.61)" fill="#0091ff"/>
        <path id="Path_32027" data-name="Path 32027" d="M644.313,244.087a75.816,75.816,0,0,0,3.352,12.932c.026-5.69.134-11.381.284-17.071a44.282,44.282,0,0,1-1.64-10.636c0-.1.155-.1.16,0A60.218,60.218,0,0,0,648,238.438q.2-7.046.455-14.086a.062.062,0,0,1,.124,0c0,7.33,0,14.665-.052,22a58.926,58.926,0,0,0,2.509-8.711c0-.031.052,0,.047,0a33.346,33.346,0,0,1-2.587,9.917c-.036,4.692-.088,9.379-.191,14.065,1.469-4.982,3.042-9.829,3.466-15.079a.057.057,0,0,1,.109,0,56.054,56.054,0,0,1-3.528,17.164.31.31,0,0,1-.1.14c-.041,1.712-.088,3.424-.15,5.137a.191.191,0,0,1-.378,0q-.1-5.261-.088-10.517a47.13,47.13,0,0,1-3.424-14.4.052.052,0,1,1,.1.016Z" transform="translate(-623.725 -216.696)" fill="#263238"/>
        <path id="Path_32028" data-name="Path 32028" d="M645.381,257.712a29.81,29.81,0,0,1,.605,4.226c0,.047-.072.052-.083,0a30.463,30.463,0,0,1-.714-4.211C645.179,257.625,645.36,257.6,645.381,257.712Z" transform="translate(-624.198 -232.794)" fill="#263238"/>
        <path id="Path_32029" data-name="Path 32029" d="M654.938,235.143c0-.047.083-.031.083,0a10.937,10.937,0,0,1-.435,2.912.062.062,0,1,1-.119-.036C654.654,237.072,654.773,236.089,654.938,235.143Z" transform="translate(-628.675 -221.92)" fill="#263238"/>
        <path id="Path_32030" data-name="Path 32030" d="M626.538,280.289s-1.831-16.6-7.666-24.2A35.965,35.965,0,0,0,604.61,245.33S611.625,274.092,626.538,280.289Z" transform="translate(-604.61 -226.852)" fill="#0091ff"/>
        <path id="Path_32031" data-name="Path 32031" d="M621.049,272.237a61.7,61.7,0,0,0,7.5,7.3q-2.069-4.889-4.6-9.549c-2.969-1.986-5.928-4.056-7.982-7.035a.047.047,0,0,1,.072-.057,33.825,33.825,0,0,0,7.532,6.4,129.423,129.423,0,0,0-8.51-13.527.109.109,0,0,1,.171-.129,79.029,79.029,0,0,1,5.137,7.009c-.678-1.707-1.267-3.471-1.955-5.173a.041.041,0,0,1,.072-.031,30.2,30.2,0,0,1,2.871,6.766,84.9,84.9,0,0,1,5.69,10.775c-.45-2.462-.931-4.914-1.51-7.356,0-.047.067-.067.083,0a40.873,40.873,0,0,1,1.821,8.225q1.511,3.569,2.711,7.242c0,.067-.078.109-.1.041q-.595-1.552-1.236-3.031h-.057a33.756,33.756,0,0,1-7.708-7.853C621.013,272.237,621.033,272.222,621.049,272.237Z" transform="translate(-609.648 -231.816)" fill="#263238"/>
        <path id="Path_32032" data-name="Path 32032" d="M612.492,263.092c.605.517,1.169,1.035,1.759,1.552a13.283,13.283,0,0,1,1.552,1.417s0,.052-.031.041a8.107,8.107,0,0,1-1.785-1.35,13.286,13.286,0,0,1-1.588-1.6C612.389,263.118,612.451,263.035,612.492,263.092Z" transform="translate(-608.369 -235.416)" fill="#263238"/>
        <path id="Path_32033" data-name="Path 32033" d="M653.358,309.6l-.605,7.909-1.821,23.909H635.066l-1.821-23.909-.605-7.909Z" transform="translate(-618.14 -257.875)" fill="#455a64"/>
        <path id="Path_32034" data-name="Path 32034" d="M653.358,309.6l-.605,7.909H633.245l-.605-7.909Z" transform="translate(-618.14 -257.875)" fill="#37474f"/>
        <rect id="Rectangle_2895" data-name="Rectangle 2895" width="23.537" height="6.063" transform="translate(36.625 53.908) rotate(180)" fill="#455a64"/>
      </g>
      <g id="freepik--character-1--inject-125" transform="translate(62.775 49.207)">
        <path id="Path_32035" data-name="Path 32035" d="M205.472,388.24c-1.035.341-31.405.078-32.559-.667-.435-.279-.657-4.7-.766-10.051-.026-1.154-2.317-19.771-2.317-19.771l20.288.119,1.593,19.771s11.572,5.3,12.746,6.244S206.537,387.883,205.472,388.24Z" transform="translate(-119.28 -199.54)" fill="#eb9481"/>
        <path id="Path_32036" data-name="Path 32036" d="M207.712,409.507c-1.035.341-31.405.078-32.559-.667-.341-.222-.554-3.016-.683-6.818,5.173.781,22.761,3.388,26.662,3.005,2.643-.259.941-1.888-.957-3.218a68.81,68.81,0,0,1,6.523,3.342C207.851,406.1,208.777,409.15,207.712,409.507Z" transform="translate(-121.519 -220.808)" fill="#263238"/>
        <path id="Path_32037" data-name="Path 32037" d="M114,212.42s23.061,40.349,23.656,43.184c.921,4.335,6.264,51.585,6.264,51.585l22.7-.14s-4.511-42.186-8.349-54.637c-2.1-6.8-13.15-25.223-18.328-34.323-.46-.812-.326-4.532-.326-4.532Z" transform="translate(-92.33 -129.389)" fill="#455a64"/>
        <path id="Path_32038" data-name="Path 32038" d="M193.861,387.835c-3.523-.067-14.174-.362-18.866,0-.036,0-.036.062,0,.067,1.609.248,15.343.083,18.866,0a.052.052,0,1,0,0-.067Z" transform="translate(-121.76 -213.976)" fill="#263238"/>
        <path id="Path_32039" data-name="Path 32039" d="M121.593,219.6c1.516,2.442,3.1,4.832,4.656,7.242s3.1,4.842,4.614,7.278q4.563,7.309,8.913,14.743a44.809,44.809,0,0,1,3.585,7.19,43.6,43.6,0,0,1,1.981,7.713c.45,2.638.735,5.3,1,7.956q.429,4.252.843,8.494c.574,5.794,1.878,16.078,2.457,21.871.067.709.135,1.423.2,2.131a.093.093,0,0,1-.186,0c-.652-5.758-1.909-16.036-2.493-21.789q-.44-4.3-.874-8.608c-.269-2.669-.517-5.339-.905-8a52.719,52.719,0,0,0-1.635-7.759,36.851,36.851,0,0,0-3.3-7.542c-2.778-4.935-5.727-9.787-8.675-14.629s-5.97-9.746-9.084-14.546c-.383-.595-.771-1.179-1.174-1.764C121.489,219.594,121.567,219.552,121.593,219.6Z" transform="translate(-95.955 -132.843)" fill="#263238"/>
        <path id="Path_32040" data-name="Path 32040" d="M103.019,383.132c-1.117-.083-29.827-12.125-30.619-13.248a.4.4,0,0,1-.041-.212c0-.993,2.069-4.438,3.787-8.975.109-.29,9.963-16.936,9.963-16.936l18.768,7.723L94.235,368.14s8.742,9.254,9.472,10.574S104.131,383.2,103.019,383.132Z" transform="translate(-72.229 -192.787)" fill="#eb9481"/>
        <path id="Path_32041" data-name="Path 32041" d="M103.019,401.291c-1.117-.083-29.827-12.125-30.619-13.248a.4.4,0,0,1-.041-.212c0-.8,1.34-3.187,2.757-6.451,5.173,3.812,21.385,13.889,24.437,14.107,1.609.114.274-2.545-.786-4.319a73.605,73.605,0,0,1,4.94,5.69C104.431,398.192,104.131,401.358,103.019,401.291Z" transform="translate(-72.229 -210.946)" fill="#263238"/>
        <path id="Path_32042" data-name="Path 32042" d="M98.322,297.448l-21-8.794s27.867-42.579,28.094-45.439c.2-2.535-11.024-24.758-11.381-31.2a19.207,19.207,0,0,1,6.725-15.576l21.173,9.394a14.792,14.792,0,0,1-5.494,5.783s10.863,25.658,10.124,33.5S98.322,297.448,98.322,297.448Z" transform="translate(-74.625 -121.675)" fill="#455a64"/>
        <path id="Path_32043" data-name="Path 32043" d="M103.022,376.962c-3.037-1.35-2.147-1-5.173-2.323-1.49-.641-11.308-4.868-12.808-5.22-.031,0-.052.041,0,.062,1.3.817,11.194,4.868,12.7,5.483,3.1,1.257,2.209.864,5.3,2.069a.052.052,0,0,0-.016-.072Z" transform="translate(-78.336 -205.173)" fill="#263238"/>
        <path id="Path_32044" data-name="Path 32044" d="M153.608,224.991a41.384,41.384,0,0,0-6.642,2.069.072.072,0,0,0,.047.135c2.235-.626,4.506-1.205,6.7-1.945a.139.139,0,0,0-.1-.259Z" transform="translate(-108.226 -135.452)" fill="#263238"/>
        <path id="Path_32045" data-name="Path 32045" d="M154.049,223.089a9.249,9.249,0,0,0-.569,1.159,2.535,2.535,0,0,0-.3.973c0,.067.088.083.129.047a3.684,3.684,0,0,0,.559-.916c.186-.357.388-.714.564-1.076C154.551,223.037,154.189,222.856,154.049,223.089Z" transform="translate(-111.243 -134.486)" fill="#263238"/>
        <path id="Path_32046" data-name="Path 32046" d="M154.747,217.318c.14-.331.279-.662.424-.993s.321-.683.445-1.035c0-.052.109,0,.083.041-.135.336-.228.693-.336,1.035s-.228.688-.347,1.035c-.222.641-.491,1.273-.776,1.888a2.343,2.343,0,0,0,1.035-.171,1.909,1.909,0,0,0,.75-.874c.2-.372.378-.755.579-1.123a8.1,8.1,0,0,0,.621-1.257c0-.057.1,0,.083.036a14.716,14.716,0,0,1-1.195,2.674c-.2.331-.372.672-.74.8a2.979,2.979,0,0,1-1.247.067c-.052,0-.114,0-.1-.078C154.25,218.673,154.478,217.98,154.747,217.318Z" transform="translate(-111.651 -130.763)" fill="#263238"/>
        <path id="Path_32047" data-name="Path 32047" d="M153.427,227.372c.755,1.65,1.417,3.3,2.121,4.94s1.329,3.228,1.95,4.863c1.257,3.3,2.38,6.652,3.362,10.046q.724,2.514,1.324,5.07a36.537,36.537,0,0,1,.947,5.173,13.651,13.651,0,0,1-.517,5.173c-.517,1.712-3.311,7.516-4.1,9.115-.486.978-.647.843-.414.347.667-1.4,4.516-9.461,4.718-12.8.1-1.728-.626-4.175-.993-5.861s-.807-3.425-1.278-5.126c-.926-3.342-2.033-6.621-3.176-9.9-.641-1.836-1.329-3.652-1.981-5.483s-1.329-3.507-2.069-5.525a.056.056,0,0,1,.109-.031Z" transform="translate(-111.308 -136.586)" fill="#263238"/>
        <path id="Path_32048" data-name="Path 32048" d="M122.589,212.4c.383-.134.905.1,1.288.176a11.2,11.2,0,0,0,1.495.166,10.923,10.923,0,0,0,1.485-.031,3.259,3.259,0,0,0,1.428-.357,7.128,7.128,0,0,0,1.831-1.9,10.708,10.708,0,0,0,1.438-2.473c0-.052.1,0,.083.036a11.452,11.452,0,0,1-.517,1.505,9.42,9.42,0,0,1-.709,1.335,5.84,5.84,0,0,1-1.909,2.105,5.443,5.443,0,0,1-2.985.378,10.792,10.792,0,0,1-1.681-.243c-.4-.088-1.071-.16-1.319-.517a.124.124,0,0,1,.072-.176Z" transform="translate(-96.435 -127.235)" fill="#263238"/>
        <path id="Path_32049" data-name="Path 32049" d="M89.054,286.47c3.533-5.2,18.411-30.81,21.727-36.185a22.528,22.528,0,0,0,2.224-3.994,7.021,7.021,0,0,0-.2-4.6,77.964,77.964,0,0,0-3.14-8.235c-1.185-2.7-2.462-5.354-3.719-8.018a76.858,76.858,0,0,1-3.512-8.07,13.713,13.713,0,0,1-.471-8.111,23.655,23.655,0,0,1,3.921-7.382c.429-.595.864-1.179,1.293-1.774.031-.047.1,0,.067.057a31.606,31.606,0,0,0-4.594,7.6,13.264,13.264,0,0,0-.926,4.283,13.967,13.967,0,0,0,.631,4.4,58.065,58.065,0,0,0,3.362,8.013c1.226,2.612,2.535,5.318,3.745,8.008a84.743,84.743,0,0,1,3.264,8.277,11.529,11.529,0,0,1,.828,3.906,8.536,8.536,0,0,1-1.505,4.009c-3.223,5.344-18.023,30.764-21.54,35.952q-.657.983-1.329,1.961C89.116,286.651,89.023,286.553,89.054,286.47Z" transform="translate(-80.286 -123.434)" fill="#263238"/>
        <path id="Path_32050" data-name="Path 32050" d="M112.754,116.821c-4.459,3.823-3.218,9.394-5.08,12.415-1.138,1.847-4.847,3.8-5.582,5.933-1.216,3.5,1.754,4.759,1.091,6.658-.941,2.7-4.552,2.488-5.173,6.9s4.2,9.1,15.716,10.372,17.847-2.949,18.261-6.689-3.419-4.987-3.683-7.759c-.166-1.79,2.2-3.031,2.323-6.316s-3.1-4.356-3.543-7.144,1.035-9.575-3.1-13.036S114.957,114.933,112.754,116.821Z" transform="translate(-84.587 -82.586)" fill="#263238"/>
        <path id="Path_32051" data-name="Path 32051" d="M112.391,118.274a9.56,9.56,0,0,0-2.959,3.414,20.8,20.8,0,0,0-1.645,4.526,12.621,12.621,0,0,1-.895,2.711,6.973,6.973,0,0,1-1.552,1.909,46.346,46.346,0,0,0-3.854,3.249,4.884,4.884,0,0,0-1.459,4.438,16.887,16.887,0,0,0,1.179,2.447,2.051,2.051,0,0,1-.191,2.411,14.681,14.681,0,0,1-2.069,1.273,7.289,7.289,0,0,0-1.681,1.629,5.659,5.659,0,0,0-1.035,4.428c.678,3.585,4.04,5.623,7.144,6.906l1.3.517c.067.026.124-.072.057-.1-3.1-1.392-6.725-3.031-7.925-6.513a5.266,5.266,0,0,1,.517-4.619,6.657,6.657,0,0,1,1.65-1.733c.626-.46,1.345-.745,1.986-1.185a2.126,2.126,0,0,0,.978-1.893,5.2,5.2,0,0,0-.859-2.292,4.242,4.242,0,0,1-.735-2.411,4.656,4.656,0,0,1,.921-2.3,18.025,18.025,0,0,1,3.694-3.311,7.832,7.832,0,0,0,2.8-3.88c.238-.822.383-1.666.59-2.493a21.726,21.726,0,0,1,.688-2.276,10.863,10.863,0,0,1,2.436-4.014,5.974,5.974,0,0,1,.952-.781C112.469,118.31,112.433,118.248,112.391,118.274Z" transform="translate(-83.707 -83.941)" fill="#263238"/>
        <path id="Path_32052" data-name="Path 32052" d="M157.707,153.756a4.335,4.335,0,0,0-.8-1.676,18.911,18.911,0,0,0-1.324-1.4,3.223,3.223,0,0,1-.941-1.552,3.1,3.1,0,0,1,.517-2.069,15.294,15.294,0,0,0,1.035-2.007,7.2,7.2,0,0,0-.719-6.43c-.393-.641-.838-1.252-1.236-1.893a9.311,9.311,0,0,1-1.035-2.24c-.517-1.733-.631-3.559-1.035-5.318a27.578,27.578,0,0,0-1.867-5.225c0-.041-.083,0-.062.041a24.019,24.019,0,0,1,1.635,4.718c.367,1.552.517,3.1.781,4.656a11.2,11.2,0,0,0,.564,2.245,11.7,11.7,0,0,0,1,1.924,10.73,10.73,0,0,1,1.8,4.025,7.082,7.082,0,0,1-.74,4.314c-.605,1.143-1.454,2.405-.926,3.745.45,1.138,1.552,1.816,2.25,2.757a4.532,4.532,0,0,1,.776,3.621c-.616,3.223-3.849,4.821-6.875,4.982a.078.078,0,0,0,0,.15c2.628-.031,5.489-1.19,6.725-3.652a5.623,5.623,0,0,0,.486-3.714Z" transform="translate(-109.82 -86.673)" fill="#263238"/>
        <path id="Path_32053" data-name="Path 32053" d="M148.086,154.756c7.242,6.565,16.693,13.481,21.644,12.11,4.48-1.236,10.677-6.942,17.448-13.1,1.345-1.221-8.716-11.179-10.015-9.736-2.586,2.85-7.759,10.041-9.787,10.92-.874.378-11.189-4.019-17.914-6.125C141.341,146.262,145.21,152.143,148.086,154.756Z" transform="translate(-107.101 -96.306)" fill="#eb9481"/>
        <path id="Path_32054" data-name="Path 32054" d="M222.845,144.979c-2.359,1.733-6.208,4.066-7.951,4.34-1.64.259-8.618-10.31-7.573-11.655,3.243-4.2,9.741-7.242,12.726-7.118S225.287,143.195,222.845,144.979Z" transform="translate(-137.325 -89.866)" fill="#eb9481"/>
        <path id="Path_32055" data-name="Path 32055" d="M80.847,200.271a19,19,0,0,1-8.737-2.23l.248-.455c3.1,1.681,8.06,2.98,12.638,1.552a11.944,11.944,0,0,0,7.242-6.27c3.135-6.1,10.16-31.322,14.355-46.391,2.374-8.53,3.528-12.648,3.792-13.02.874-1.252,47.9-42.651,48.848-43.008S298.443,53.467,304.325,51.91l.134.517C303.021,52.81,160.713,90.5,159.414,90.95c-1.288.678-47.638,41.508-48.626,42.822-.243.4-1.852,6.177-3.714,12.86-4.5,16.057-11.225,40.339-14.412,46.484a12.443,12.443,0,0,1-7.537,6.528,14.536,14.536,0,0,1-4.278.626Z" transform="translate(-72.11 -51.91)" fill="#263238"/>
        <path id="Path_32056" data-name="Path 32056" d="M221.631,129.667c-.59,1.428,1.438,1.309,1.438,1.309s-2.881.879-2.923,2.586,2.411,1.417,2.586,1.407c-.155.047-2.778.921-2.638,2.649s2.555,1.138,2.711,1.1c-.129.088-1.816,1.309-1.417,2.586.693,2.214,5.1-.786,6.921-.357,0,0,.564,2.447.574,2.54,0,0,3.311-2.033,3.75-4.532a1.614,1.614,0,0,0-.947-1.79,2.541,2.541,0,0,0,1.4-2.105c-.036-.7-1.185-1.262-1.185-1.262a2.033,2.033,0,0,0,1.035-1.852c-.1-.967-1.242-1.381-1.242-1.381a2.4,2.4,0,0,0,.4-2.069C231.227,126.563,222.909,126.563,221.631,129.667Z" transform="translate(-143.54 -88.236)" fill="#eb9481"/>
        <path id="Path_32057" data-name="Path 32057" d="M234.138,133.113v-.041a14.484,14.484,0,0,0-8.566.517c-.083.036-.062.191.036.171a29.688,29.688,0,0,1,8.53-.647Z" transform="translate(-146.162 -90.886)" fill="#263238"/>
        <path id="Path_32058" data-name="Path 32058" d="M234.231,139.555a.029.029,0,0,0,0-.057,13.532,13.532,0,0,0-9.311,1.164c-.1.052-.129.2,0,.145C226.906,139.891,231.557,139.333,234.231,139.555Z" transform="translate(-145.83 -94.017)" fill="#263238"/>
        <path id="Path_32059" data-name="Path 32059" d="M224.939,147.866a18.525,18.525,0,0,1,8.923-1.759c.041,0,.041-.057,0-.067a12.259,12.259,0,0,0-5.059,0,8.24,8.24,0,0,0-3.921,1.723C224.856,147.8,224.892,147.9,224.939,147.866Z" transform="translate(-145.849 -97.218)" fill="#263238"/>
        <path id="Path_32060" data-name="Path 32060" d="M222.727,134.5a9.265,9.265,0,0,0-1.552.8,3.2,3.2,0,0,0-1.159,1.179,1.035,1.035,0,0,0-.072.745,1.6,1.6,0,0,0,.4.662,1.883,1.883,0,0,0,1.459.4l1.262-.14-1.138.569a5.173,5.173,0,0,0-1.376.973,1.852,1.852,0,0,0-.631,1.386,1.035,1.035,0,0,0,.848,1.035,3.217,3.217,0,0,0,1.6-.109l1.443-.429-1.216.874a4.588,4.588,0,0,0-.916.848,1.976,1.976,0,0,0-.517,1.035.952.952,0,0,0,.435.905,2.131,2.131,0,0,0,1.174.16,16.106,16.106,0,0,0,2.555-.548c.424-.109.854-.222,1.288-.316a3.155,3.155,0,0,1,1.319-.067,3.316,3.316,0,0,0-1.288.186c-.424.124-.838.269-1.257.409a13.806,13.806,0,0,1-2.586.7,2.468,2.468,0,0,1-1.417-.145,1.376,1.376,0,0,1-.7-1.319,2.5,2.5,0,0,1,.585-1.319,5.328,5.328,0,0,1,1-.957l.228.445a3.73,3.73,0,0,1-1.9.15,1.552,1.552,0,0,1-.885-.553,1.707,1.707,0,0,1-.341-.973,2.343,2.343,0,0,1,.8-1.754A5.691,5.691,0,0,1,221.7,138.3l.124.429a2.188,2.188,0,0,1-1.769-.59,1.868,1.868,0,0,1-.45-.838,1.355,1.355,0,0,1,.124-.947,3.29,3.29,0,0,1,1.335-1.195A7.9,7.9,0,0,1,222.727,134.5Z" transform="translate(-143.198 -91.776)" fill="#263238"/>
        <path id="Path_32061" data-name="Path 32061" d="M209.08,134.894s7.082-11.463,10.051-6.947c.885,1.34,2.912,7.9,1.6,8.334-1.692.559-3.047-2.023-3.621-3.776,0,0-1.635,3.942-4.718,3.621A7.242,7.242,0,0,1,209.08,134.894Z" transform="translate(-138.226 -88.105)" fill="#eb9481"/>
        <path id="Path_32062" data-name="Path 32062" d="M222.584,128.23a6.539,6.539,0,0,1,1,1.609,15.687,15.687,0,0,1,.683,1.774,22.33,22.33,0,0,1,.859,3.709,3.657,3.657,0,0,1,0,1.009,1.288,1.288,0,0,1-.212.517.828.828,0,0,1-.217.233,1.035,1.035,0,0,1-.279.145,1.619,1.619,0,0,1-1.107-.057,3.036,3.036,0,0,1-.859-.585,5.834,5.834,0,0,1-1.123-1.6,13.8,13.8,0,0,1-.724-1.78h.414a7.574,7.574,0,0,1-.729,1.262,6.8,6.8,0,0,1-.941,1.1,5,5,0,0,1-1.19.812,3.709,3.709,0,0,1-1.376.372,4.247,4.247,0,0,0,1.3-.517,5.105,5.105,0,0,0,1.066-.879,6.674,6.674,0,0,0,.848-1.029,7.547,7.547,0,0,0,.616-1.226l.2-.517.212.517a14.2,14.2,0,0,0,.745,1.692,5.633,5.633,0,0,0,1.035,1.454,1.552,1.552,0,0,0,1.433.517c.414-.1.435-.791.383-1.381s-.166-1.221-.279-1.831-.243-1.226-.4-1.831A12.043,12.043,0,0,0,222.584,128.23Z" transform="translate(-141.943 -88.75)" fill="#263238"/>
        <path id="Path_32063" data-name="Path 32063" d="M159.571,168.591l3.885-11.241s-9.513-4.35-14.96-5.52-6.766,1.128-1.909,6.151S159.571,168.591,159.571,168.591Z" transform="translate(-106.61 -99.997)" fill="#0091ff"/>
        <path id="Path_32064" data-name="Path 32064" d="M175.067,162.245c-.693,1.454-1.257,2.98-1.821,4.49s-1.076,3.011-1.516,4.547c0,.026.041.047.052,0,.621-1.49,1.195-3,1.748-4.516s1.128-2.99,1.593-4.516C175.134,162.235,175.082,162.214,175.067,162.245Z" transform="translate(-120.197 -105.161)" fill="#263238"/>
        <path id="Path_32065" data-name="Path 32065" d="M161.668,164.927l-2,5.768a108.451,108.451,0,0,1-12.984-10.63,10.848,10.848,0,0,1-2.9-4.175Z" transform="translate(-106.705 -102.101)" opacity="0.1"/>
        <path id="Path_32066" data-name="Path 32066" d="M138.745,184.288l-27.355-4.744s6.621-19.383,12.415-26.33c2.835-3.409,7.009-2.023,8.716-.543.543.471,5.877,7.837,6.4,10.9.455,2.711-1.392,5.6-1.392,5.6Z" transform="translate(-91.071 -99.787)" fill="#0091ff"/>
        <path id="Path_32067" data-name="Path 32067" d="M146.649,183.994a25.347,25.347,0,0,0-3.683.61c-.6.155-1.185.336-1.774.517-.295.1-.59.186-.885.269a3.979,3.979,0,0,1-.947.181v.047a7.728,7.728,0,0,0,.916,0,6.275,6.275,0,0,0,.869-.166c.61-.15,1.21-.331,1.821-.486,1.226-.321,2.452-.636,3.7-.869C146.721,184.062,146.711,183.963,146.649,183.994Z" transform="translate(-104.572 -115.665)" fill="#263238"/>
        <path id="Path_32068" data-name="Path 32068" d="M153.618,185.938a26.647,26.647,0,0,0-3.078-.14c-.517,0-1.035.041-1.552.093l-.735.083c-.269.036-.517.109-.8.135-.026,0-.026.052,0,.047h1.531l1.552-.036c1.035-.036,2.069-.062,3.073-.067C153.675,186.02,153.67,185.943,153.618,185.938Z" transform="translate(-108.468 -116.537)" fill="#263238"/>
        <path id="Path_32069" data-name="Path 32069" d="M113.4,155.456c-10.444,8.794-20.418,28.384-16.14,30.81,3.906,2.214,17.1,2.069,22.59,1.386,1.614-.2-.181-12.731-1.909-12.519-2.069.253-7.361.414-7.568.378-.445-.083,6.161-13.822,8.277-18.876C121.591,149.6,117.328,152.156,113.4,155.456Z" transform="translate(-83.761 -100.297)" fill="#eb9481"/>
        <path id="Path_32070" data-name="Path 32070" d="M154.19,192.638a1.935,1.935,0,0,1-.409,2.173A2.892,2.892,0,0,1,155,196.363c.321,1.138-1.324,2.142-1.324,2.142a3.538,3.538,0,0,1,1.035,1.821c.2,1.123-1.319,2.369-1.319,2.369a3.1,3.1,0,0,1-.109,2.167c-.864,1.8-3.89,2.136-5.814,2.374s-7.594-.9-8.7-1l-1.619-12.327s8.323-3.507,10.62-3.466C149.7,190.46,153.517,191.283,154.19,192.638Z" transform="translate(-103.505 -118.778)" fill="#eb9481"/>
        <path id="Path_32071" data-name="Path 32071" d="M163.23,198.11a26.058,26.058,0,0,0-6.244-.45.036.036,0,0,0,0,.072c2.069,0,4.138.4,6.208.476a.052.052,0,1,0,.036-.1Z" transform="translate(-113.062 -122.264)" fill="#263238"/>
        <path id="Path_32072" data-name="Path 32072" d="M163.32,205.628a5.607,5.607,0,0,0-1.443-.036c-.517,0-1.035.052-1.552.088-1.035.078-2.043.176-3.057.305-.047,0-.047.078,0,.072,1.035-.072,2.038-.134,3.057-.166l1.552-.036a6.41,6.41,0,0,0,1.443-.067.08.08,0,0,0,0-.16Z" transform="translate(-113.199 -126.078)" fill="#263238"/>
        <path id="Path_32073" data-name="Path 32073" d="M163.28,214.063a3.947,3.947,0,0,0-1.3.031l-1.392.129c-.931.078-1.862.155-2.8.2a.036.036,0,1,0,0,.072c.952-.041,1.9-.072,2.845-.124l1.4-.083a3.564,3.564,0,0,0,1.257-.181Z" transform="translate(-113.449 -130.162)" fill="#263238"/>
        <path id="Path_32074" data-name="Path 32074" d="M107.72,166.2l10.936,4.7s5.013-9.177,6.575-14.526-.641-6.87-5.98-2.364A108.541,108.541,0,0,0,107.72,166.2Z" transform="translate(-89.299 -99.909)" fill="#0091ff"/>
        <path id="Path_32075" data-name="Path 32075" d="M121.4,180.893c-1.4-.791-2.881-1.469-4.345-2.136s-2.928-1.288-4.428-1.836a.026.026,0,0,0,0,.052c1.438.724,2.9,1.407,4.376,2.069s2.907,1.335,4.392,1.909C121.4,180.96,121.425,180.914,121.4,180.893Z" transform="translate(-91.655 -112.253)" fill="#263238"/>
        <path id="Path_32076" data-name="Path 32076" d="M133.283,168.82c-.7,1.826-1.5,3.621-2.338,5.364-.424.879-.859,1.754-1.314,2.618s-.921,1.723-1.443,2.55v.047h-.041c-.264-.129-.517-.259-.776-.393l.817.29-.072.026,1.242-2.649,1.267-2.633c.429-.874.859-1.748,1.309-2.612S132.8,169.674,133.283,168.82Z" transform="translate(-98.784 -108.343)" fill="#263238"/>
        <path id="Path_32077" data-name="Path 32077" d="M134.8,174.931a8.915,8.915,0,0,1,.771-1.355,8.407,8.407,0,0,1,.983-1.205,7.868,7.868,0,0,1-.771,1.36A8.384,8.384,0,0,1,134.8,174.931Z" transform="translate(-102.371 -110.056)" fill="#263238"/>
        <path id="Path_32078" data-name="Path 32078" d="M137.611,146.929c.253.419,3.409,2.638,5.447,1.847.667-.259-.585-3.947-.585-3.947l-.031-.295-.419-4.107-5.457-1.381-.776-.166s.191,1.117.44,2.5a1.509,1.509,0,0,0,.036.2.668.668,0,0,0,.036.222c.036.212.072.424.114.631s.057.316.1.486.067.331.1.517a26.037,26.037,0,0,0,.993,3.487Z" transform="translate(-102.848 -93.891)" fill="#eb9481"/>
        <path id="Path_32079" data-name="Path 32079" d="M136.225,141.384a8.277,8.277,0,0,0,6.208,3.15l-.419-4.107-5.457-1.381-.776-.166S135.977,139.977,136.225,141.384Z" transform="translate(-102.844 -93.891)" fill="#263238"/>
        <path id="Path_32080" data-name="Path 32080" d="M142.578,120.61c3.068,6.57-.517,9.151-1.94,9.829-1.288.6-5.742,2.473-9.472-3.745s-1.64-9.72,1.231-11.241S139.516,114.04,142.578,120.61Z" transform="translate(-99.648 -82.195)" fill="#eb9481"/>
        <path id="Path_32081" data-name="Path 32081" d="M148.8,122.826c-.16.052-.321.078-.486.114a.822.822,0,0,1-.517,0,.259.259,0,0,1-.129-.285.631.631,0,0,1,.517-.4.916.916,0,0,1,.672.052.274.274,0,0,1-.057.522Z" transform="translate(-108.577 -85.844)" fill="#263238"/>
        <path id="Path_32082" data-name="Path 32082" d="M142.774,128.988a4.565,4.565,0,0,0,.466-.181.791.791,0,0,0,.44-.279.253.253,0,0,0-.052-.31.641.641,0,0,0-.647-.041.921.921,0,0,0-.517.424.274.274,0,0,0,.31.388Z" transform="translate(-106.056 -88.691)" fill="#263238"/>
        <path id="Path_32083" data-name="Path 32083" d="M145.789,130.53s-.026.036,0,.057c.233.435.429.973.1,1.319h0C146.343,131.616,146.079,130.908,145.789,130.53Z" transform="translate(-107.67 -89.86)" fill="#263238"/>
        <path id="Path_32084" data-name="Path 32084" d="M144.288,129.974c-.735.3-.083,1.754.6,1.474S144.909,129.731,144.288,129.974Z" transform="translate(-106.794 -89.578)" fill="#263238"/>
        <path id="Path_32085" data-name="Path 32085" d="M143.308,130.39c-.093.14-.15.341-.295.424s-.372,0-.554-.088c0,0-.026,0,0,.026.124.285.357.517.678.429a.6.6,0,0,0,.316-.729C143.421,130.39,143.344,130.339,143.308,130.39Z" transform="translate(-106.062 -89.782)" fill="#263238"/>
        <path id="Path_32086" data-name="Path 32086" d="M150.45,128h.052c.181.455.471.952.947.921v.026C150.926,129.117,150.548,128.455,150.45,128Z" transform="translate(-109.925 -88.639)" fill="#263238"/>
        <path id="Path_32087" data-name="Path 32087" d="M150.622,126.672c.7-.372,1.4,1.035.75,1.407S150.032,126.988,150.622,126.672Z" transform="translate(-109.9 -87.968)" fill="#263238"/>
        <path id="Path_32088" data-name="Path 32088" d="M151.445,126.234c.15,0,.331.109.471.052s.2-.279.233-.476h.026c.14.269.191.6-.047.776s-.517,0-.7-.222C151.383,126.322,151.388,126.229,151.445,126.234Z" transform="translate(-110.382 -87.582)" fill="#263238"/>
        <path id="Path_32089" data-name="Path 32089" d="M148.771,137.467a.771.771,0,0,0,.517.114,1.257,1.257,0,0,0,.445-.31h.031a.672.672,0,0,1-.486.481.517.517,0,0,1-.517-.264C148.72,137.477,148.751,137.456,148.771,137.467Z" transform="translate(-109.1 -93.113)" fill="#263238"/>
        <path id="Path_32090" data-name="Path 32090" d="M148.923,128.841s.4.626.548.941c0,.031-.057.078-.16.134h0a1.645,1.645,0,0,1-1.717.114c-.036,0,0-.067.031-.062a2.483,2.483,0,0,0,1.552-.243c0-.1-.729-1.035-.678-1.076a3.135,3.135,0,0,1,.791-.171c-.8-1.329-1.805-2.519-2.586-3.854a.047.047,0,0,1,.072-.057,25.171,25.171,0,0,1,2.959,4.035C149.824,128.774,149.063,128.836,148.923,128.841Z" transform="translate(-108.114 -86.976)" fill="#263238"/>
        <path id="Path_32091" data-name="Path 32091" d="M149.863,135a1.852,1.852,0,0,1-.445.828.807.807,0,0,1-.445.233c-.372.062-.517-.238-.574-.517a2.069,2.069,0,0,1-.031-.471,2.4,2.4,0,0,0,1.495-.072Z" transform="translate(-108.919 -92.018)" fill="#263238"/>
        <path id="Path_32092" data-name="Path 32092" d="M149.449,136.222a.807.807,0,0,1-.445.233c-.372.062-.517-.238-.574-.517A.848.848,0,0,1,149.449,136.222Z" transform="translate(-108.95 -92.438)" fill="#ff9cbd"/>
        <path id="Path_32093" data-name="Path 32093" d="M129.828,126.028c1.552-.895-.517-6.073-.8-6.725a12.994,12.994,0,0,0,1.386,2.452,1.583,1.583,0,0,0,.455-.357h0a5.33,5.33,0,0,1-.321-.76c-.047-.119.171.222.46.631l.253-.238a6.633,6.633,0,0,1-.652-1.624c-.052-.217.45.621,1.035,1.278a21.79,21.79,0,0,1,3.823-2.933,9.12,9.12,0,0,1,1.035-.517c-.316-.605-.714-1.205-.6-1.091a6.581,6.581,0,0,1,.833.983c.171-.078.331-.145.476-.2-.4-.869-1.511-2.012-1.267-1.878a6.844,6.844,0,0,1,1.909,1.661c.636-.186.854-.16.791-.316a7.242,7.242,0,0,0-4.242-3.621,6.826,6.826,0,0,0-8.184,5.173s-1.888,2.871-1.159,4.976S128.918,126.545,129.828,126.028Z" transform="translate(-97.59 -81.194)" fill="#263238"/>
        <path id="Path_32094" data-name="Path 32094" d="M132.534,137.025s-2.261-1.583-3.031-.7,1.469,3.554,2.757,3.564a1.226,1.226,0,0,0,1.319-1.185Z" transform="translate(-99.738 -92.527)" fill="#eb9481"/>
        <path id="Path_32095" data-name="Path 32095" d="M130.93,137.958v.031a3.1,3.1,0,0,1,2.167,1.273.678.678,0,0,0-1.035.176s0,.047.036.036a.745.745,0,0,1,.869-.041,3.518,3.518,0,0,1,.605.517c.062.057.176-.026.119-.1h0C133.356,138.8,132.053,137.674,130.93,137.958Z" transform="translate(-100.503 -93.424)" fill="#263238"/>
        <path id="Path_32096" data-name="Path 32096" d="M142.9,150.38l-.476,3.538-5.028-3.052-.8,1.593s5.551,5.468,5.5,5.173l.621-3.1,2.4,1.443-1.381-4.8Z" transform="translate(-103.235 -99.442)" fill="#ebebeb"/>
        <path id="Path_32097" data-name="Path 32097" d="M144.491,154.3c-.253-.786-.491-1.583-.781-2.354,0-.031-.057-.031-.057,0,.036.812,1.035,3.807,1.21,4.537h0c-.1-.062-2.2-1.247-2.214-1.216-.176.517-.636,2.778-.657,2.974-.874-.869-4.526-4.247-5.5-5.033a.031.031,0,0,0-.041.041c.822.947,5.566,5.421,5.613,5.4a32.973,32.973,0,0,0,.641-3.28,21.824,21.824,0,0,0,2.519,1.552A26.324,26.324,0,0,0,144.491,154.3Z" transform="translate(-103.164 -100.187)" fill="#263238"/>
      </g>
      <g id="freepik--speech-bubble--inject-125" transform="translate(109.238 69.278)">
        <path id="Path_32098" data-name="Path 32098" d="M163.518,103.275a6.922,6.922,0,0,1-1.179-3.818c0-4.832,5.3-8.747,11.846-8.747s11.841,3.916,11.841,8.747-5.3,8.753-11.841,8.753a14.251,14.251,0,0,1-8.173-2.421l-4.081,1.035Z" transform="translate(-161.93 -90.71)" fill="#0091ff"/>
        <path id="Path_32099" data-name="Path 32099" d="M193.87,106.5a1.231,1.231,0,1,0,1.231-1.226,1.231,1.231,0,0,0-1.231,1.226Z" transform="translate(-177.347 -97.738)" fill="#263238"/>
        <circle id="Ellipse_369" data-name="Ellipse 369" cx="1.226" cy="1.226" r="1.226" transform="translate(11.039 7.532)" fill="#263238"/>
        <circle id="Ellipse_370" data-name="Ellipse 370" cx="1.226" cy="1.226" r="1.226" transform="translate(5.545 7.532)" fill="#263238"/>
      </g>
      <g id="freepik--Arrow--inject-125" transform="translate(60.452 46.31)">
        <path id="Path_32100" data-name="Path 32100" d="M197.426,388.31l-41.741,7.547c-22.446,3.756-49.242,4.8-88.065.823l41.958-7.015C143.518,392.469,174.98,392.06,197.426,388.31Z" transform="translate(-67.62 -211.394)" fill="#0091ff"/>
        <path id="Path_32101" data-name="Path 32101" d="M281.788,283.365,237,290.737c15.219-2.545,31.11-6.921,42.356-12.457,62.386-30.164,88.618-134.637,88.975-135.63h50.24c-.372.993-6.29,18.105-31.343,65.821-15.493,28.358-38.394,49.247-65.919,62.795C310.053,276.811,297.007,280.82,281.788,283.365Z" transform="translate(-149.38 -92.814)" fill="#0091ff"/>
        <g id="Group_1578" data-name="Group 1578" transform="translate(87.62 49.836)" opacity="0.3">
          <path id="Path_32102" data-name="Path 32102" d="M281.788,283.365,237,290.737c15.219-2.545,31.11-6.921,42.356-12.457,62.386-30.164,88.618-134.637,88.975-135.63h50.24c-.372.993-6.29,18.105-31.343,65.821-15.493,28.358-38.394,49.247-65.919,62.795C310.053,276.811,297.007,280.82,281.788,283.365Z" transform="translate(-237 -142.65)" fill="#fff"/>
        </g>
        <path id="Path_32103" data-name="Path 32103" d="M274.926,132.52l11.67,5.24c-.378.993-25.089,103.687-88.975,135.63-38.947,19.471-72.256,18.3-129.557,13.569l-.4-13.75c55.666,4.6,98.38,1.231,125.015-12.71C252.759,229.037,274.838,132.768,274.926,132.52Z" transform="translate(-67.639 -87.924)" fill="#0091ff"/>
        <g id="Group_1579" data-name="Group 1579" transform="translate(0.021 44.596)" opacity="0.1">
          <path id="Path_32104" data-name="Path 32104" d="M274.926,132.52l11.67,5.24c-.378.993-25.089,103.687-88.975,135.63-38.947,19.471-72.256,18.3-129.557,13.569l-.4-13.75c55.666,4.6,98.38,1.231,125.015-12.71C252.759,229.037,274.838,132.768,274.926,132.52Z" transform="translate(-67.66 -132.52)"/>
        </g>
        <path id="Path_32105" data-name="Path 32105" d="M468.33,132.52h54.135l7.759,5.24H480Z" transform="translate(-261.044 -87.924)" fill="#0091ff"/>
        <path id="Path_32106" data-name="Path 32106" d="M503.467,67.47l35.2,44.658-82.959-.222Z" transform="translate(-254.952 -56.524)" fill="#0091ff"/>
        <g id="Group_1580" data-name="Group 1580" transform="translate(200.758 10.946)" opacity="0.3">
          <path id="Path_32107" data-name="Path 32107" d="M503.467,67.47l35.2,44.658-82.959-.222Z" transform="translate(-455.71 -67.47)" fill="#fff"/>
        </g>
        <path id="Path_32108" data-name="Path 32108" d="M442.4,101.692,428.13,90.746,475.887,46.31l14.267,10.946Z" transform="translate(-241.639 -46.31)" fill="#0091ff"/>
        <g id="Group_1581" data-name="Group 1581" transform="translate(186.491)" opacity="0.1">
          <path id="Path_32109" data-name="Path 32109" d="M442.4,101.692,428.13,90.746,475.887,46.31l14.267,10.946Z" transform="translate(-428.13 -46.31)"/>
        </g>
      </g>
      <g id="freepik--character-2--inject-125" transform="translate(281.5 70.39)">
        <path id="Path_32110" data-name="Path 32110" d="M499.184,405.86c1.035.336,30.521-.047,31.622-.776.424-.269.621-4.568.709-9.767v-.166c0-1.071-2.721-19.042-2.721-19.042l-19.719.2,3.419,18.881v.321s-11.22,5.173-12.358,6.125S498.15,405.539,499.184,405.86Z" transform="translate(-496.759 -229.586)" fill="#ad6359"/>
        <path id="Path_32111" data-name="Path 32111" d="M499.186,423.633c.517.171,8.541.15,16.367,0,1.552-.031,3.14-.067,4.656-.109,5.582-.155,10.191-.383,10.62-.662s.621-4.449.7-9.549v-.383h0l-19,.036v.321s-11.22,5.173-12.353,6.12S498.157,423.312,499.186,423.633Z" transform="translate(-496.767 -247.359)" fill="#a6a6a6"/>
        <path id="Path_32112" data-name="Path 32112" d="M500.153,431.084c4.966-.186,25.017-.466,29.941-.274.041,0,.041.031,0,.031-4.919.295-24.975.414-29.941.326C500.029,431.167,500.029,431.089,500.153,431.084Z" transform="translate(-497.407 -255.958)" fill="#263238"/>
        <path id="Path_32113" data-name="Path 32113" d="M521.149,413a6.916,6.916,0,0,1,5.861,1.252c.057.052,0,.135-.083.114a27.674,27.674,0,0,0-5.768-1.117.124.124,0,1,1-.01-.248Z" transform="translate(-507.53 -247.311)" fill="#263238"/>
        <path id="Path_32114" data-name="Path 32114" d="M518.472,414.676a6.9,6.9,0,0,1,5.856,1.252c.057.052,0,.135-.083.114a27.93,27.93,0,0,0-5.763-1.123.124.124,0,0,1-.01-.243Z" transform="translate(-506.249 -248.122)" fill="#263238"/>
        <path id="Path_32115" data-name="Path 32115" d="M515.736,416.356a6.9,6.9,0,0,1,5.856,1.252c.062.052,0,.134-.078.114a28.022,28.022,0,0,0-5.768-1.112.127.127,0,1,1-.01-.253Z" transform="translate(-504.916 -248.933)" fill="#263238"/>
        <path id="Path_32116" data-name="Path 32116" d="M517.7,329.892h20.035s-6.725-42.217-6.544-43.081c.088-.445,25.9-46.112,25.9-46.112H534.46s-20.966,32.662-23.842,40.867C508.512,287.567,517.7,329.892,517.7,329.892Z" transform="translate(-502.352 -164.223)" fill="#263238"/>
        <path id="Path_32117" data-name="Path 32117" d="M523.646,405.175c1.211-.1,2.416-.2,3.621-.248s2.411-.067,3.621-.093c2.411-.052,4.821-.083,7.242-.114H540.2a19.713,19.713,0,0,0,2.069,0,.039.039,0,0,1,0,.078c-.605,0-1.211.129-1.811.171s-1.205.1-1.811.145c-1.205.078-2.411.134-3.621.186-2.411.1-4.821.129-7.242.145-1.381,0-2.752-.1-4.138-.2A.052.052,0,0,1,523.646,405.175Z" transform="translate(-508.785 -243.396)" fill="#455a64"/>
        <path id="Path_32118" data-name="Path 32118" d="M545.259,286.6a13.243,13.243,0,0,1,1.712-3.512q2.271-3.756,4.537-7.511,4.6-7.615,9.244-15.2c1.552-2.5,3.1-5,4.619-7.5,1.423-2.307,4.656-8.479,5.018-9.073,0-.047.1-.026.072,0-1.035,2.173-2.4,4.888-3.668,7.154-1.4,2.488-2.9,4.925-4.356,7.382-2.985,5.054-6.016,10.051-9.042,15.038q-2.286,3.792-4.588,7.578c-.735,1.21-1.495,2.416-2.2,3.621a7.365,7.365,0,0,0-1.107,3.906,41.541,41.541,0,0,0,.466,4.309c.191,1.443.378,2.881.574,4.325q.585,4.325,1.216,8.634,1.262,8.675,2.633,17.329c.114.719.233,1.433.347,2.152,0,.067-.093.093-.1.026-1.035-5.773-2.038-11.546-2.912-17.345s-1.671-11.613-2.442-17.428a10.548,10.548,0,0,1-.016-3.885Z" transform="translate(-519.142 -165.708)" fill="#455a64"/>
        <path id="Path_32119" data-name="Path 32119" d="M648.258,408.612c-1.035.321-30.521-.362-31.612-1.1-.424-.274-.574-4.573-.605-9.777v-.16c0-1.071-7.811-19.083-7.811-19.083l19.264.393,7.563,18.918v.326s11.163,5.3,12.3,6.244S649.3,408.292,648.258,408.612Z" transform="translate(-549.621 -230.734)" fill="#ad6359"/>
        <path id="Path_32120" data-name="Path 32120" d="M654.312,422.91c-1.035.321-30.521-.362-31.612-1.1-.424-.274-.574-4.573-.605-9.777v-.16s-1.319-3.621-1.324-3.761l19.021.336,1.319,3.652v.326s11.163,5.3,12.3,6.244S655.351,422.589,654.312,422.91Z" transform="translate(-555.674 -245.032)" fill="#ebebeb"/>
        <path id="Path_32121" data-name="Path 32121" d="M655.547,426.419c-1.035.321-30.521-.362-31.612-1.1-.424-.274-.574-4.573-.605-9.777v-.16l19.016.228v.326s11.163,5.3,12.3,6.244S656.587,426.1,655.547,426.419Z" transform="translate(-556.91 -248.541)" fill="#a6a6a6"/>
        <path id="Path_32122" data-name="Path 32122" d="M657.036,433.925c-4.966-.238-25.011-.724-29.941-.579-.036,0-.036.026,0,.031,4.92.341,24.97.667,29.941.631C657.15,434.007,657.15,433.93,657.036,433.925Z" transform="translate(-558.714 -257.2)" fill="#263238"/>
        <path id="Path_32123" data-name="Path 32123" d="M658.68,415.832a6.926,6.926,0,0,0-5.871,1.195c-.057.052,0,.135.083.114a27.625,27.625,0,0,1,5.773-1.06.124.124,0,0,0,.016-.248Z" transform="translate(-571.128 -248.673)" fill="#263238"/>
        <path id="Path_32124" data-name="Path 32124" d="M661.37,417.562a6.941,6.941,0,0,0-5.871,1.19c-.057.057,0,.14.083.119a27.3,27.3,0,0,1,5.773-1.06.124.124,0,1,0,.016-.248Z" transform="translate(-572.427 -249.508)" fill="#263238"/>
        <path id="Path_32125" data-name="Path 32125" d="M664.06,419.27a6.924,6.924,0,0,0-5.871,1.19c-.057.052,0,.135.083.119a27.635,27.635,0,0,1,5.773-1.066.124.124,0,0,0,.016-.243Z" transform="translate(-573.725 -250.331)" fill="#263238"/>
        <path id="Path_32126" data-name="Path 32126" d="M561.57,240.7s2.716,16.554,2.9,17.071c0,0,1.035.481,2.83,1.319l21.98,72.453,24.313.083L584.735,240.7Z" transform="translate(-527.099 -164.223)" fill="#263238"/>
        <path id="Path_32127" data-name="Path 32127" d="M565.285,272.706a39.6,39.6,0,0,1,6.068,3.176.072.072,0,0,1-.067.124c-2.069-.993-4.138-1.95-6.125-3.057a.137.137,0,0,1,.124-.243Z" transform="translate(-528.796 -179.665)" fill="#455a64"/>
        <path id="Path_32128" data-name="Path 32128" d="M566.913,254.361c.331,1.981.517,3.988.74,5.985.057.476.114.957.166,1.433a2.805,2.805,0,0,0,.341,1.262,3.968,3.968,0,0,0,1.9,1.283c.083.036.052.166-.041.134A4.656,4.656,0,0,1,568,263.393a4.232,4.232,0,0,1-.714-2.561,55.046,55.046,0,0,1-.466-6.461.047.047,0,0,1,.093-.01Z" transform="translate(-529.632 -170.797)" fill="#455a64"/>
        <path id="Path_32129" data-name="Path 32129" d="M571.562,255.531c.072,1.428.228,2.855.347,4.278.062.7.109,1.4.155,2.105s.124,1.448.1,2.167a.047.047,0,0,1-.088,0c-.119-.678-.135-1.381-.191-2.069s-.109-1.443-.145-2.162c-.083-1.443-.124-2.892-.253-4.33a.037.037,0,1,1,.072.01Z" transform="translate(-531.887 -171.362)" fill="#455a64"/>
        <path id="Path_32130" data-name="Path 32130" d="M577.575,282.113c1.686,4.107,19.688,62.991,19.885,63.5,0,.041-.052.067-.072.026-2.405-4.707-17.774-57.829-19.306-61.967l-.574-1.552C577.492,282.1,577.56,282.077,577.575,282.113Z" transform="translate(-534.791 -184.204)" fill="#455a64"/>
        <path id="Path_32131" data-name="Path 32131" d="M614.745,408.116c.7-.1,1.433-.093,2.142-.145s1.428-.062,2.142-.078q2.142-.047,4.283-.067c2.835-.036,5.69-.047,8.5-.047,1.619,0,3.233.088,4.852.119.052,0,.052.078,0,.083-1.423.057-2.85.145-4.278.2s-2.855.062-4.283.083c-2.876.041-5.752.088-8.629.083-.8,0-1.6,0-2.4-.031a22.136,22.136,0,0,1-2.343-.114C614.688,408.194,614.7,408.121,614.745,408.116Z" transform="translate(-552.748 -244.873)" fill="#455a64"/>
        <path id="Path_32132" data-name="Path 32132" d="M551.026,158.938c-4.837-3.435-12.131-11.789-13.574-15.084-1.852-4.237-5.116-18.866-3.647-20.573.812-.941,11.381.455,11.97,1.635s.89,14.06,1.035,15.038,4.987,10.222,7.687,14.624C557.684,159.714,554.177,161.173,551.026,158.938Z" transform="translate(-513.518 -107.395)" fill="#ad6359"/>
        <path id="Path_32133" data-name="Path 32133" d="M533.592,112.223a4.572,4.572,0,0,1-.517-2.809c.295-1.552,1.35-3.192,1.035-4.138-.471-1.485-1.9-3.869-1.34-4.407,1.154-1.112,2.587-.347,4.263,2.385.435.709,1.076,2.5,1.609,2.586.936.16,1.329-1.479,1.438-2.98.212-2.9-.067-7.154,1.852-7.7.724-.212,1.071.843,1.226,2.147.073-1.893.357-3.766,1.154-4.03a.848.848,0,0,1,1.035.517,1.117,1.117,0,0,1,.931-.916c.745-.124,1.267.517,1.624,1.474a.616.616,0,0,1,.517-.212c2.012.036,2.887,7.315,2.183,9.146a42.491,42.491,0,0,1-5.835,10.051C542.06,114.142,533.592,112.228,533.592,112.223Z" transform="translate(-513.134 -92.86)" fill="#ad6359"/>
        <path id="Path_32134" data-name="Path 32134" d="M552.431,109.718a9.118,9.118,0,0,0,.921-3.906,46.993,46.993,0,0,0-.59-4.718c0-.041-.072-.031-.067,0,.114.766.15,1.552.233,2.323s.186,1.511.217,2.266a9.166,9.166,0,0,1-.735,4.019S552.426,109.733,552.431,109.718Z" transform="translate(-522.677 -96.822)" fill="#263238"/>
        <path id="Path_32135" data-name="Path 32135" d="M557.346,107.18a22.478,22.478,0,0,0,1.216-4.449,14.579,14.579,0,0,0-.517-4.971c-.207-.978-.429-1.95-.678-2.918,0-.041-.078-.036-.067,0,.362,1.661.678,3.337.936,5.023a12.073,12.073,0,0,1-.171,4.7c-.212.874-.517,1.738-.766,2.586C557.32,107.186,557.34,107.2,557.346,107.18Z" transform="translate(-525.036 -93.803)" fill="#263238"/>
        <path id="Path_32136" data-name="Path 32136" d="M562.285,107.484a11.606,11.606,0,0,0,1.143-4.009,20.479,20.479,0,0,0-.569-5.08c-.2-.9-.429-1.79-.672-2.68,0-.036-.072,0-.067,0a47.167,47.167,0,0,1,1.112,6.052,9.352,9.352,0,0,1-.067,2.918,16.816,16.816,0,0,1-.89,2.773S562.28,107.489,562.285,107.484Z" transform="translate(-527.364 -94.231)" fill="#263238"/>
        <path id="Path_32137" data-name="Path 32137" d="M546.672,135,533.3,137.83s2.835,10.475,3.988,12.932,10.408,13.01,14.014,14.9,5.99-.047,3.735-4.883-7.185-14.065-7.5-15.095S546.672,135,546.672,135Z" transform="translate(-513.453 -113.201)" fill="#455a64"/>
        <path id="Path_32138" data-name="Path 32138" d="M555.949,165.369a5.009,5.009,0,0,0-.838.786,5.053,5.053,0,0,0,.983-.59,4.784,4.784,0,0,0,.833-.786A5.175,5.175,0,0,0,555.949,165.369Zm-3.1-5.318a5.421,5.421,0,0,0-.31,2.25A5.421,5.421,0,0,0,552.845,160.052Zm-13.274-13.5a4.975,4.975,0,0,0-.781-.838,4.587,4.587,0,0,0,.59.983,4.75,4.75,0,0,0,.781.833,5.173,5.173,0,0,0-.579-.978Zm-2.468-8.37-.254.052a4.692,4.692,0,0,0,.776.828,4.536,4.536,0,0,0-.512-.879Zm12.058,18.793a4.971,4.971,0,0,0-.781-.838,4.588,4.588,0,0,0,.59.983,4.749,4.749,0,0,0,.781.833,5.172,5.172,0,0,0-.579-.978Zm-2.783-9.244a4.752,4.752,0,0,0-.833.781,4.917,4.917,0,0,0,.978-.59,4.754,4.754,0,0,0,.833-.781,4.916,4.916,0,0,0-.967.59Zm-2.354-11.013-.078.088.274-.129ZM550.6,151.33a4.96,4.96,0,0,0-1.143-.036,5.421,5.421,0,0,0,2.25.31A4.952,4.952,0,0,0,550.6,151.33Zm-9.249-10.056a4.961,4.961,0,0,0-1.143-.036,5.312,5.312,0,0,0,2.25.316,4.966,4.966,0,0,0-1.107-.279Zm1.552,10.186a5.422,5.422,0,0,0-.31,2.25A5.42,5.42,0,0,0,542.9,151.459Zm5.22-11.862a5.353,5.353,0,0,0-.316,2.255,5.582,5.582,0,0,0,.315-2.255Z" transform="translate(-515.166 -114.012)" fill="#fff"/>
        <path id="Path_32139" data-name="Path 32139" d="M547.339,142.145c-1.888.517-9.694,2.245-11.381,2.509-.119,0-.155-.052-.036-.083a105.3,105.3,0,0,1,11.386-2.5.042.042,0,1,1,.031.078Z" transform="translate(-514.683 -116.611)" fill="#263238"/>
        <path id="Path_32140" data-name="Path 32140" d="M557.48,183.721c-2.586-1.355-8.054-7.159-11.38-11.241l13.01,2.069c.8,1.583,1.552,3.1,2.111,4.309C563.471,183.674,561.091,185.619,557.48,183.721Z" transform="translate(-519.631 -131.293)" fill="#263238"/>
        <path id="Path_32141" data-name="Path 32141" d="M579.872,211.348s-31.24,4.314-31.307,4.257c-.46-.367,1.159-33.764,2.4-36.63,1.329-3.073,5.468-4.656,7.8-3.373,5.84,3.264,13.248,16.595,15,20.733C576.685,203.148,579.675,209.485,579.872,211.348Z" transform="translate(-520.782 -132.584)" fill="#455a64"/>
        <path id="Path_32142" data-name="Path 32142" d="M555.021,175.92h0a1.728,1.728,0,0,0-.228.088l.047.067a4.752,4.752,0,0,0,.781.833,5.172,5.172,0,0,0-.6-.988Zm-.745,32.848a5.352,5.352,0,0,0-.316,2.255A5.583,5.583,0,0,0,554.276,208.768Zm10.863-20.878a5.353,5.353,0,0,0-.315,2.255,5.581,5.581,0,0,0,.315-2.255Zm-6.414-8.9a5.421,5.421,0,0,0-.31,2.25A5.421,5.421,0,0,0,558.724,178.993Zm8.215,34.447a.743.743,0,0,0-.036.1h.041a.563.563,0,0,0-.026-.1Zm-7.04-13.683a5.421,5.421,0,0,0-.31,2.25A5.421,5.421,0,0,0,559.9,199.757Zm-8.277-9.311a5.457,5.457,0,0,0-.31,2.255A5.458,5.458,0,0,0,551.622,190.446Zm21.116,11.236a4.655,4.655,0,0,0-.279,1.112,4.952,4.952,0,0,0-.036,1.143,4.923,4.923,0,0,0,.274-1.112,4.686,4.686,0,0,0,.047-1.148Zm-5.447-16.76a3.509,3.509,0,0,0-.4,0,4.137,4.137,0,0,0,.517.166Zm-8.944,4.656a4.961,4.961,0,0,0-1.143-.036,5.313,5.313,0,0,0,2.25.316,4.965,4.965,0,0,0-1.1-.295Zm9.286,9.829a4.961,4.961,0,0,0-1.143-.036,5.421,5.421,0,0,0,2.25.31,4.951,4.951,0,0,0-1.1-.295Zm-17.5-1.779a6.433,6.433,0,0,0-.714-.057v.155a6.584,6.584,0,0,0,.693.14,4.961,4.961,0,0,0,1.143.036,4.924,4.924,0,0,0-1.117-.295ZM569.158,210.3a4.962,4.962,0,0,0-1.143-.036,5.458,5.458,0,0,0,2.255.31A5.063,5.063,0,0,0,569.158,210.3Zm-9.684-3.062a4.962,4.962,0,0,0-1.143-.036,5.458,5.458,0,0,0,2.255.31,5.066,5.066,0,0,0-1.107-.274Zm-9.684-.931a7.239,7.239,0,0,0-.823-.057,1.143,1.143,0,0,0,0,.129,5.975,5.975,0,0,0,.792.166,4.686,4.686,0,0,0,1.143.036,4.951,4.951,0,0,0-1.107-.274Zm12-22a5.007,5.007,0,0,0-.838.786,5.055,5.055,0,0,0,.983-.59,4.786,4.786,0,0,0,.833-.786,5.172,5.172,0,0,0-.973.59Zm10.894,12.457a4.752,4.752,0,0,0-.833.781,4.915,4.915,0,0,0,.978-.59,4.754,4.754,0,0,0,.833-.781,4.917,4.917,0,0,0-.973.59Zm-9.575-1.6a4.755,4.755,0,0,0-.833.781,4.914,4.914,0,0,0,.978-.59,4.754,4.754,0,0,0,.833-.781,4.917,4.917,0,0,0-.973.59Zm12.638,14.267a4.567,4.567,0,0,0-.833.781,5.52,5.52,0,0,0,1.816-1.371,4.588,4.588,0,0,0-.978.59Zm-13.967,2.3a4.569,4.569,0,0,0-.833.781,5.518,5.518,0,0,0,1.816-1.371,4.587,4.587,0,0,0-.973.59Zm-8.034-9.7a4.571,4.571,0,0,0-.833.781,5.519,5.519,0,0,0,1.816-1.371,4.589,4.589,0,0,0-.973.59Zm9.829-21.975a1.675,1.675,0,0,0-.119-.15h0q-.207-.243-.419-.466h0a2.6,2.6,0,0,0-.217-.191,4.813,4.813,0,0,0,.59.983,4.755,4.755,0,0,0,.781.833,4.913,4.913,0,0,0-.616-1.009Zm5.856,11.975a4.974,4.974,0,0,0-.781-.838,4.81,4.81,0,0,0,.59.983,4.752,4.752,0,0,0,.781.833A4.914,4.914,0,0,0,569.433,192.023ZM577.627,205h0a4.066,4.066,0,0,0-.559-.559,4.591,4.591,0,0,0,.59.983c.1.129.2.253.31.378Zm-20.175,9.244a3.664,3.664,0,0,0,.29.548l.228-.031a3.765,3.765,0,0,0-.538-.517Zm-7.522-.869a4.969,4.969,0,0,0-.781-.838,4.589,4.589,0,0,0,.59.983,4.751,4.751,0,0,0,.781.833,5.179,5.179,0,0,0-.61-.978Zm16.264-8.1a4.969,4.969,0,0,0-.781-.838,4.586,4.586,0,0,0,.59.983,4.752,4.752,0,0,0,.781.833,5.171,5.171,0,0,0-.61-.978ZM554.757,184.58a4.972,4.972,0,0,0-.781-.838,4.591,4.591,0,0,0,.59.983,4.752,4.752,0,0,0,.781.833,5.174,5.174,0,0,0-.611-.993Zm1.847,10.284a4.975,4.975,0,0,0-.781-.838,4.589,4.589,0,0,0,.59.983,4.755,4.755,0,0,0,.781.833,5.171,5.171,0,0,0-.61-.993Z" transform="translate(-521.015 -132.953)" fill="#fff"/>
        <path id="Path_32143" data-name="Path 32143" d="M553.319,174.446c1.464.243,5.235-2.649,5.9-4.982.041-.16-.517-1.614-1.117-3.409-.357-1.091-.729-2.312-.993-3.456l-6.756,3.373a18.776,18.776,0,0,1,1.692,4.221,2.641,2.641,0,0,1,.057.481.457.457,0,0,0,0,.078C552.166,171.673,551.633,174.187,553.319,174.446Z" transform="translate(-521.683 -126.524)" fill="#ad6359"/>
        <path id="Path_32144" data-name="Path 32144" d="M556.769,162.93c.1,1.6.135,6.833-3.911,7.853a4.437,4.437,0,0,1-.75.134.506.506,0,0,1,0-.083,3.276,3.276,0,0,0-.057-.481,18.511,18.511,0,0,0-1.692-4.221Z" transform="translate(-521.687 -126.683)" fill="#263238"/>
        <path id="Path_32145" data-name="Path 32145" d="M546.123,140.16a5.219,5.219,0,0,0-3.621,2.762,9.612,9.612,0,0,0-.843,5.173C541.85,148.287,546.123,140.16,546.123,140.16Z" transform="translate(-517.44 -115.692)" fill="#263238"/>
        <path id="Path_32146" data-name="Path 32146" d="M554.289,144.8c.2,2.716-2.824,9.736-5,10.956-3.156,1.769-7.49,1.035-8.794-2.586-1.252-3.492,2.845-12.57,5.173-13.595C549.173,138.065,554,140.791,554.289,144.8Z" transform="translate(-516.812 -115.206)" fill="#ad6359"/>
        <path id="Path_32147" data-name="Path 32147" d="M550.6,156.08s.026.036,0,.057c-.222.466-.4,1.035-.047,1.376v.026C550.065,157.234,550.308,156.483,550.6,156.08Z" transform="translate(-521.646 -123.377)" fill="#263238"/>
        <path id="Path_32148" data-name="Path 32148" d="M551.307,155.464c.781.279.166,1.826-.559,1.552S550.65,155.21,551.307,155.464Z" transform="translate(-521.718 -123.065)" fill="#263238"/>
        <path id="Path_32149" data-name="Path 32149" d="M544.849,153.84H544.8c-.176.481-.46,1.035-.957.993v.031C544.393,155.025,544.761,154.326,544.849,153.84Z" transform="translate(-518.54 -122.295)" fill="#263238"/>
        <path id="Path_32150" data-name="Path 32150" d="M544.4,152.487c-.745-.367-1.423,1.154-.729,1.49S545.026,152.792,544.4,152.487Z" transform="translate(-518.319 -121.615)" fill="#263238"/>
        <path id="Path_32151" data-name="Path 32151" d="M553.305,152.068c-.228-.047-.435-.124-.657-.191a1.092,1.092,0,0,1-.631-.321.352.352,0,0,1,.031-.424.859.859,0,0,1,.874-.14,1.262,1.262,0,0,1,.766.517.378.378,0,0,1-.383.559Z" transform="translate(-522.46 -120.891)" fill="#263238"/>
        <path id="Path_32152" data-name="Path 32152" d="M544.191,150.311a5.99,5.99,0,0,0,.517.424,1.122,1.122,0,0,0,.626.331.347.347,0,0,0,.331-.274.859.859,0,0,0-.393-.791,1.257,1.257,0,0,0-.859-.331.372.372,0,0,0-.223.641Z" transform="translate(-518.654 -120.282)" fill="#263238"/>
        <path id="Path_32153" data-name="Path 32153" d="M548.174,164.057a.771.771,0,0,1-.517.119,1.314,1.314,0,0,1-.466-.326h-.031a.7.7,0,0,0,.517.517.559.559,0,0,0,.543-.274.031.031,0,0,0-.047-.036Z" transform="translate(-520.143 -127.127)" fill="#263238"/>
        <path id="Path_32154" data-name="Path 32154" d="M546.69,155.478a1.764,1.764,0,0,1-1.376.29,2.462,2.462,0,0,1-.595-.207,1.185,1.185,0,0,1-.109-.062l-.119-.072a.129.129,0,0,1-.052-.145h0v-.047h0v-.041c.135-.372.393-.921.393-.921-.16,0-.967.052-.879-.14a26.345,26.345,0,0,1,2.586-4.656.047.047,0,0,1,.083.047c-.647,1.521-1.552,2.918-2.224,4.438a2.866,2.866,0,0,1,.864.072c.047.036-.517,1.035-.569,1.216a2.426,2.426,0,0,0,1.893.15C546.711,155.426,546.737,155.452,546.69,155.478Z" transform="translate(-518.592 -120.178)" fill="#263238"/>
        <path id="Path_32155" data-name="Path 32155" d="M546,161.06a2.069,2.069,0,0,0,.517.91.968.968,0,0,0,.517.243c.419.052.569-.295.621-.621a2.2,2.2,0,0,0,0-.517A2.674,2.674,0,0,1,546,161.06Z" transform="translate(-519.583 -125.78)" fill="#263238"/>
        <path id="Path_32156" data-name="Path 32156" d="M547,162.413a.968.968,0,0,0,.517.243c.419.052.569-.295.621-.621A.967.967,0,0,0,547,162.413Z" transform="translate(-520.065 -126.223)" fill="#ff9cbd"/>
        <path id="Path_32157" data-name="Path 32157" d="M555.317,149.511c-.859-.062-.848-2.726-.755-3.714.088-.869.8-3.461.828-3.621s-4.216.9-5.939-.424-2.343-3.564-2.069-4.392,3.5-1.95,5.633-1.247,3.921,4.449,3.921,4.449a10.565,10.565,0,0,1-.445-1.6A2.447,2.447,0,0,1,557.578,141s.2-1.309.31-1.293.76,1.459.217,2.147a4.411,4.411,0,0,1,.471,2.716C558.24,145.766,556.331,149.583,555.317,149.511Z" transform="translate(-520.22 -113.631)" fill="#263238"/>
        <path id="Path_32158" data-name="Path 32158" d="M549.06,145.359a7.025,7.025,0,0,0,1.583,1.371,4.7,4.7,0,0,0,2.224.476,7.164,7.164,0,0,0,2.261-.372c.636-.212,1.257-.517,1.914-.683.166-.041.243.207.114.295a7.5,7.5,0,0,1-4.526,1.226,4.3,4.3,0,0,1-3.58-2.3S549.055,145.354,549.06,145.359Z" transform="translate(-521.055 -118.201)" fill="#263238"/>
        <path id="Path_32159" data-name="Path 32159" d="M560.846,159.878s2.24-1.95,3.161-1.092-1.174,3.963-2.545,4.138a1.319,1.319,0,0,1-1.552-1.117Z" transform="translate(-526.297 -124.577)" fill="#ad6359"/>
        <path id="Path_32160" data-name="Path 32160" d="M564.036,160.664v.036a3.33,3.33,0,0,0-2.173,1.6.724.724,0,0,1,1.1.072s0,.052-.036.041a.8.8,0,0,0-.931.057,3.565,3.565,0,0,0-.59.595c-.062.067-.191,0-.14-.093h0C561.533,161.828,562.8,160.478,564.036,160.664Z" transform="translate(-526.947 -125.581)" fill="#263238"/>
        <path id="Path_32161" data-name="Path 32161" d="M526.727,169.647c-6.259-1.221-18.436-6.611-20.335-8.008-3.978-2.933-12.069-17.293-11.381-19.59.383-1.267,11.256-1.676,12.369-.8s5.918,11.639,6.508,12.513,12.87,9.161,15.565,11.52C534.331,169.559,530.8,170.443,526.727,169.647Z" transform="translate(-494.951 -115.993)" fill="#ad6359"/>
        <path id="Path_32162" data-name="Path 32162" d="M506.617,127.731s2.3-4.1,3.673-6.859a18.959,18.959,0,0,0,1.893-5.69c.072-2.069-.957-10.8-3.078-10.594-1.919.186-.083,7.568-.083,7.568s-1.195-7.615-3.466-6.968.916,8.711.916,8.711-1.4-7.79-3.621-6.756c-1.692.786.781,8.277.781,8.277s-1.252-6.689-3.026-5.959c-1.955.812-.109,7.847-.109,7.847-4.19,2.618-5.871,4.454-5.52,7.759C495.019,125.594,506.617,127.731,506.617,127.731Z" transform="translate(-494.932 -98.519)" fill="#ad6359"/>
        <path id="Path_32163" data-name="Path 32163" d="M521.426,117.5c-.109-.9-.212-1.811-.4-2.7s-.4-1.769-.672-2.633A15.588,15.588,0,0,0,519,108.9a33.718,33.718,0,0,1,1.805,5.959c.186.885.414,1.764.605,2.649C521.4,117.529,521.431,117.518,521.426,117.5Z" transform="translate(-506.55 -100.603)" fill="#263238"/>
        <path id="Path_32164" data-name="Path 32164" d="M515.993,120.137c-.186-1.143-.331-2.281-.569-3.414s-.626-2.7-.936-3.812c0-.083-.16-.088-.14,0,.269,1.123.59,2.742.848,3.864s.553,2.24.771,3.368C515.967,120.168,515.993,120.168,515.993,120.137Z" transform="translate(-504.304 -102.508)" fill="#263238"/>
        <path id="Path_32165" data-name="Path 32165" d="M511.222,124.25a25.739,25.739,0,0,0-1.273-5.173c-.026-.083-.072,0-.047.062.455,1.707.823,3.042,1.257,5.106C511.165,124.292,511.222,124.287,511.222,124.25Z" transform="translate(-502.155 -105.499)" fill="#263238"/>
        <path id="Path_32166" data-name="Path 32166" d="M497.49,151.8l14.2-1.459s2.954,6.839,3.543,7.656,13.9,9.591,16.554,11.794,2.193,6.3-3.518,5.173c-4.93-.967-18.261-6.492-20.775-8.178S497.49,151.8,497.49,151.8Z" transform="translate(-496.167 -120.606)" fill="#455a64"/>
        <path id="Path_32167" data-name="Path 32167" d="M533.335,172.95a4.972,4.972,0,0,0-.781-.838,4.589,4.589,0,0,0,.59.983,4.752,4.752,0,0,0,.781.833,5.173,5.173,0,0,0-.59-.978Zm-5.69-.248a4.756,4.756,0,0,0-.833.781,4.918,4.918,0,0,0,.978-.59,4.756,4.756,0,0,0,.828-.786,4.914,4.914,0,0,0-.967.595Zm.61-5.618a4.961,4.961,0,0,0-1.143-.036,5.313,5.313,0,0,0,2.25.316,4.966,4.966,0,0,0-1.1-.279Zm-5.07,2.586a5.457,5.457,0,0,0-.31,2.255A5.457,5.457,0,0,0,523.185,169.671Zm-17.774-15.307a4.969,4.969,0,0,0-.781-.838,4.591,4.591,0,0,0,.59.983,4.752,4.752,0,0,0,.781.833,5.174,5.174,0,0,0-.59-.978Zm14.7,7.144a4.972,4.972,0,0,0-.781-.838,4.807,4.807,0,0,0,.59.983,4.752,4.752,0,0,0,.781.833A4.914,4.914,0,0,0,520.108,161.508Zm-6.316,1.805a4.755,4.755,0,0,0-.833.781,4.913,4.913,0,0,0,.978-.59,4.754,4.754,0,0,0,.833-.781A4.915,4.915,0,0,0,513.791,163.313Zm9.575,1.6a4.756,4.756,0,0,0-.833.781,4.913,4.913,0,0,0,.978-.59,4.753,4.753,0,0,0,.833-.781,4.915,4.915,0,0,0-.978.595ZM512.472,152.45a5.007,5.007,0,0,0-.838.786,5.053,5.053,0,0,0,.983-.59,4.787,4.787,0,0,0,.833-.786A5.175,5.175,0,0,0,512.472,152.45Zm5.116,15.245a4.96,4.96,0,0,0-1.143-.036,5.422,5.422,0,0,0,2.25.31,4.949,4.949,0,0,0-1.107-.259Zm-8.173-8.929a4.961,4.961,0,0,0-1.143-.036,5.312,5.312,0,0,0,2.25.316,4.965,4.965,0,0,0-1.107-.264Zm2.788,8.6a4.325,4.325,0,0,0-.212.745l.207.109a4.272,4.272,0,0,0,.005-.838Zm3.59-11.293a5.354,5.354,0,0,0-.316,2.255A5.582,5.582,0,0,0,515.793,156.071Z" transform="translate(-499.613 -121.34)" fill="#fff"/>
        <path id="Path_32168" data-name="Path 32168" d="M503.169,158.283c1.95-.15,9.9-1.035,11.6-1.35.119,0,.135-.1,0-.093a105.63,105.63,0,0,0-11.613,1.366.041.041,0,0,0,.01.078Z" transform="translate(-498.892 -123.743)" fill="#263238"/>
        <path id="Path_32169" data-name="Path 32169" d="M555.982,197.416a24.369,24.369,0,0,1-3.419-1.464,29.268,29.268,0,0,1-3.212-1.862,32.646,32.646,0,0,1,3.388,1.505c.548.285,1.1.569,1.635.869S555.449,197.1,555.982,197.416Z" transform="translate(-521.2 -141.724)" fill="#263238"/>
        <path id="Path_32170" data-name="Path 32170" d="M553.391,196.579a4.877,4.877,0,0,1-1.169-.228,4.976,4.976,0,0,1-1.091-.481,4.882,4.882,0,0,1,1.169.233A5.1,5.1,0,0,1,553.391,196.579Z" transform="translate(-522.059 -142.583)" fill="#263238"/>
        <path id="Path_32171" data-name="Path 32171" d="M561.154,185.58a8.273,8.273,0,0,1-1.552-1.123,8.061,8.061,0,0,1-1.273-1.407,8.279,8.279,0,0,1,1.552,1.123,8.067,8.067,0,0,1,1.273,1.407Z" transform="translate(-525.535 -136.395)" fill="#263238"/>
      </g>
    </g>
  </g>
</svg>
