<?xml version="1.0" encoding="UTF-8"?><svg xmlns="http://www.w3.org/2000/svg" viewBox="0 0 28 28"><defs><style>.d{fill:#0091ff;stroke:#0091ff;stroke-miterlimit:10;stroke-width:.39px;}.e{fill:none;}</style></defs><g id="a"/><g id="b"><g id="c"><g><rect class="e" width="28" height="28"/><g><path class="d" d="M20.37,21.69c1.46-.84,2.88-1.66,4.3-2.48,.48-.28,.98-.39,1.51-.22,.71,.23,1.15,.71,1.26,1.44,.12,.79-.18,1.43-.88,1.84-1.11,.66-2.23,1.29-3.34,1.93-1.38,.8-2.77,1.59-4.15,2.39-.55,.32-1.14,.48-1.77,.47-2.11,0-4.22-.01-6.32,0-.72,0-1.4-.13-2.03-.48-.08-.04-.17-.08-.3-.14,0,.2,0,.37,0,.55,0,.36-.18,.52-.55,.52-1.13,0-2.26,0-3.39,0-.42,0-.57-.16-.57-.58,0-.09,0-.19,0-.32h-.31c-.9,0-1.81,0-2.71,0-.44,0-.59-.15-.59-.59,0-2.01,0-4.02,0-6.03,0-.44,.15-.59,.59-.59,1,0,1.99,0,3.02,0,0-.16,0-.3,0-.43,.01-.29,.18-.46,.46-.47,1.19,0,2.39,0,3.58,0,.3,0,.46,.18,.47,.49,0,.23,0,.47,0,.73,.57-.14,1.13-.24,1.66-.42,1.01-.33,2-.27,3.02,.02,1.92,.56,3.86,1.04,5.8,1.55,.5,.13,.93,.35,1.24,.8Zm-11.72-1.03v.33c0,1.35,.01,2.7,0,4.06,0,.31,.09,.46,.37,.59,.56,.25,1.08,.55,1.72,.55,2.21-.01,4.42,0,6.63-.02,.38,0,.8-.1,1.13-.28,2.54-1.44,5.07-2.9,7.6-4.36,.46-.27,.61-.81,.35-1.24-.25-.43-.8-.58-1.25-.32-1.46,.83-2.92,1.67-4.37,2.52-.07,.04-.15,.16-.14,.23,.03,1.04-1.01,2.07-2.33,1.72-1.75-.47-3.5-.94-5.25-1.41-.32-.09-.46-.3-.39-.57,.07-.26,.31-.38,.63-.29,.76,.2,1.52,.4,2.29,.61,.99,.26,1.98,.54,2.97,.79,.67,.17,1.24-.3,1.18-.95-.04-.39-.29-.67-.76-.8-2-.54-4.01-1.07-6.01-1.61-.51-.14-1.02-.33-1.55-.21-.93,.21-1.86,.45-2.8,.68Zm-.93,5.96v-7.19h-2.67v7.19h2.67Zm-3.61-.91v-5.37H1.44v5.37h2.68Z"/><path class="d" d="M4.57,9.95C4.51,4.87,8.76,.47,14.09,.48c5.36,0,9.55,4.44,9.49,9.44,.45,.02,.9,0,1.34,.08,1.38,.22,2.35,1.47,2.24,2.86-.1,1.37-1.25,2.46-2.64,2.49-.31,0-.62,0-.97,0,0,.39,0,.78,0,1.16,0,1.02-.53,1.55-1.54,1.55-.94,0-1.88,0-2.82,0-.15,0-.25,.03-.33,.19-.24,.46-.65,.7-1.16,.71-.32,.01-.64,.01-.96,0-.74-.02-1.31-.62-1.31-1.35,0-.73,.58-1.33,1.32-1.35,.32,0,.64-.01,.96,0,.52,.02,.92,.26,1.16,.72,.08,.16,.17,.18,.33,.18,.96,0,1.92,0,2.88,0,.42,0,.58-.15,.58-.58,0-.39,0-.79,0-1.23-.15,0-.28,0-.42,0-.3-.01-.48-.18-.48-.47,0-1.48,0-2.97,0-4.45,0-.31,.18-.47,.5-.48,.12,0,.24,0,.41,0-.09-2.88-1.2-5.24-3.54-6.9-2.93-2.07-6.08-2.28-9.22-.55-2.89,1.58-4.28,4.15-4.43,7.46,.18,0,.32,0,.45,0,.28,.01,.46,.18,.47,.46,0,1.49,0,2.99,0,4.48,0,.26-.15,.46-.4,.46-.93,0-1.87,.05-2.79-.06-1.35-.16-2.3-1.44-2.22-2.82,.08-1.34,1.21-2.46,2.55-2.52,.34-.01,.68,0,1.03,0Zm-.9,.92c-.97-.05-1.81,.81-1.79,1.81,.01,.97,.88,1.82,1.79,1.75v-3.56Zm20.8,3.57c1.04,0,1.86-.88,1.79-1.92-.06-.94-.95-1.76-1.79-1.64v3.56ZM4.61,10.86v3.58h.87v-3.58h-.87Zm18.06,0v3.57h.88c0-1.17,0-2.31,0-3.45,0-.04,0-.07-.01-.12h-.87Zm-5.42,6.3c-.16,0-.32,0-.48,0-.27,.02-.44,.21-.44,.46,0,.23,.18,.42,.43,.44,.31,.01,.62,.01,.93,0,.26-.01,.45-.21,.44-.46,0-.23-.18-.42-.43-.44-.15-.01-.3,0-.45,0Z"/><path class="d" d="M7.3,9.03c0-.42,0-.84,0-1.27,0-.35,.17-.52,.52-.52,.48,0,.96,0,1.44,0,.08,0,.18-.05,.22-.11,.02-.03-.04-.15-.09-.2-.33-.34-.67-.66-1-1-.28-.28-.28-.5,0-.78,.59-.59,1.18-1.18,1.78-1.77,.29-.28,.5-.28,.8,.01,.31,.31,.62,.63,.94,.93,.07,.07,.18,.09,.27,.14,.03-.09,.08-.18,.08-.27,0-.46,0-.92,0-1.38,0-.35,.17-.52,.52-.52,.86,0,1.71,0,2.57,0,.36,0,.53,.17,.53,.54,0,.44,0,.88,0,1.32,0,.11,.06,.21,.1,.32,.09-.05,.2-.08,.27-.15,.32-.31,.62-.62,.94-.93,.28-.28,.5-.28,.78,0,.6,.59,1.2,1.19,1.79,1.79,.26,.26,.26,.49,0,.76-.32,.32-.64,.63-.96,.96-.07,.07-.09,.18-.14,.27,.1,.03,.2,.08,.3,.08,.44,0,.88,0,1.33,0,.39,0,.56,.16,.56,.54,0,.84,0,1.69,0,2.53,0,.36-.17,.53-.54,.53-.45,0-.9,0-1.35,0-.1,0-.19,.06-.29,.1,.05,.09,.08,.2,.15,.27,.3,.31,.61,.61,.92,.92,.3,.31,.31,.52,0,.82-.58,.58-1.15,1.16-1.74,1.73-.31,.31-.53,.3-.84-.01-.32-.32-.63-.64-.96-.95-.06-.05-.16-.09-.23-.08-.04,0-.08,.13-.08,.2,0,.47,0,.94,0,1.41,0,.39-.16,.55-.55,.55-.84,0-1.67,0-2.51,0-.39,0-.55-.16-.55-.55,0-.47,0-.94,0-1.41,0-.08-.05-.18-.11-.22-.03-.02-.15,.04-.2,.09-.33,.32-.65,.65-.98,.97-.3,.3-.52,.3-.82,0-.58-.58-1.16-1.15-1.74-1.73-.3-.3-.3-.52,0-.82,.32-.33,.66-.65,.98-.98,.05-.06,.09-.16,.08-.23,0-.04-.13-.08-.21-.08-.47,0-.94,0-1.41,0-.39,0-.55-.16-.55-.55,0-.42,0-.84,0-1.27Zm10.26-4.74c-.28,.28-.57,.57-.86,.86-.42,.43-.44,.43-1,.18-.09-.04-.17-.07-.26-.11-.41-.15-.46-.23-.46-.66,0-.46,0-.91,0-1.37h-1.81c0,.45,0,.89,0,1.33,0,.48-.04,.54-.48,.7-.11,.04-.23,.09-.34,.14-.4,.19-.51,.17-.82-.14-.32-.32-.65-.64-.95-.94l-1.28,1.27c.28,.27,.57,.56,.85,.84q.45,.45,.2,1.02c-.03,.08-.07,.15-.1,.23-.17,.44-.23,.49-.7,.49-.45,0-.89,0-1.34,0v1.8c.38,0,.75,.03,1.11,0,.54-.06,.9,.11,1,.67,0,.04,.04,.09,.06,.13,.21,.44,.19,.53-.14,.86-.32,.31-.64,.63-.93,.92l1.27,1.28c.27-.27,.56-.56,.84-.84q.45-.45,1.02-.2c.08,.03,.16,.07,.23,.1,.45,.17,.49,.23,.49,.7,0,.45,0,.89,0,1.34h1.81c0-.46,0-.91,0-1.36,0-.44,.06-.51,.46-.66,.12-.05,.24-.1,.36-.15,.4-.19,.51-.17,.82,.14,.32,.32,.65,.64,.95,.94l1.29-1.28c-.28-.27-.58-.56-.87-.85-.43-.43-.43-.43-.18-1,.04-.09,.07-.17,.11-.26,.15-.41,.23-.46,.66-.46,.46,0,.91,0,1.37,0v-1.8c-.45,0-.89,0-1.33,0-.48,0-.54-.04-.7-.48-.04-.11-.09-.23-.15-.34-.19-.4-.18-.51,.14-.82,.32-.32,.65-.64,.95-.94l-1.28-1.28Z"/><path class="d" d="M6.84,25.52c0,.09,.02,.19,0,.28-.05,.23-.2,.37-.43,.37-.25,0-.41-.14-.45-.38-.03-.17-.02-.36,0-.53,.02-.25,.2-.42,.44-.43,.23,0,.43,.17,.45,.41,.01,.09,0,.19,0,.28h0Z"/><path class="d" d="M11.37,9.05c0-1.49,1.21-2.71,2.7-2.71,1.49,0,2.72,1.21,2.72,2.7,0,1.5-1.22,2.72-2.73,2.71-1.47,0-2.68-1.22-2.69-2.7Zm2.71-1.81c-1,0-1.81,.81-1.81,1.8,0,1,.81,1.8,1.81,1.8,.98,0,1.79-.81,1.8-1.79,0-1-.8-1.81-1.8-1.81Z"/></g></g></g></g></svg>