<svg xmlns="http://www.w3.org/2000/svg" width="335" height="285" viewBox="0 0 335 285">
  <g id="Group_1588" data-name="Group 1588" transform="translate(-16782 -5321)">
    <rect id="Rectangle_2855" data-name="Rectangle 2855" width="335" height="285" transform="translate(16782 5321)" fill="#fff" opacity="0"/>
    <g id="Group_1562" data-name="Group 1562" transform="translate(439 -346)">
      <rect id="Rectangle_2501" data-name="Rectangle 2501" width="335" height="285" transform="translate(16343 5667)" fill="none"/>
      <g id="Hand_coding-rafiki" data-name="Hand coding-rafiki" transform="translate(16303.517 5594.179)">
        <g id="freepik--background-simple--inject-5" transform="translate(69.342 77.771)">
          <path id="Path_20195" data-name="Path 20195" d="M212.059,84.392c-58.64,27.881-6.536,75.061-40.559,101.754s-124.948-2.084-91.168,65.278c39.686,79.127,219.073,65.183,259.27-33.3S270.691,56.512,212.059,84.392Z" transform="translate(-72.934 -77.771)" fill="#f5f5f5"/>
        </g>
        <g id="freepik--Shadow--inject-5" transform="translate(56.11 335.066)">
          <ellipse id="freepik--path--inject-5" cx="152.49" cy="8.903" rx="152.49" ry="8.903" fill="#f5f5f5"/>
        </g>
        <g id="freepik--program-icons--inject-5" transform="translate(252.834 113.43)">
          <rect id="Rectangle_1194" data-name="Rectangle 1194" width="27.031" height="27.031" rx="2.27" transform="translate(0.071 0)" fill="#0091ff"/>
          <g id="Group_748" data-name="Group 748" transform="translate(0.071 0)" opacity="0.4">
            <rect id="Rectangle_1195" data-name="Rectangle 1195" width="27.031" height="27.031" rx="2.27" fill="#fff"/>
          </g>
          <path id="Path_20197" data-name="Path 20197" d="M304.581,107.91l-4.719,1.722,4.719,1.707v1.777l-6.7-2.556v-1.825l6.7-2.556Z" transform="translate(-294.624 -95.822)" fill="#fff"/>
          <path id="Path_20198" data-name="Path 20198" d="M311.556,101.76h1.958l-4.656,13.268H306.9Z" transform="translate(-296.55 -94.878)" fill="#fff"/>
          <path id="Path_20199" data-name="Path 20199" d="M322.331,108.72v1.825l-6.7,2.572v-1.762l4.719-1.707-4.719-1.722V106.18Z" transform="translate(-298.414 -95.822)" fill="#fff"/>
          <path id="Path_20200" data-name="Path 20200" d="M299.764,133.658v6.559h-1.518v-2.7h-2.989v2.7H293.74V133.65h1.518v2.635h2.989V133.7Z" transform="translate(-293.74 -101.688)" fill="#263238"/>
          <path id="Path_20201" data-name="Path 20201" d="M304.548,134.895H302.44V133.66h5.726v1.235h-2.1v5.324h-1.518Z" transform="translate(-295.598 -101.69)" fill="#263238"/>
          <path id="Path_20202" data-name="Path 20202" d="M316.741,140.217v-3.932l-1.935,3.248h-.716l-1.927-3.146v3.83H310.74V133.65H312l2.454,4.082,2.422-4.082h1.25v6.567Z" transform="translate(-297.37 -101.688)" fill="#263238"/>
          <path id="Path_20203" data-name="Path 20203" d="M322.17,133.66h1.518v5.324h3.3v1.235H322.17Z" transform="translate(-299.811 -101.69)" fill="#263238"/>
          <g id="Group_749" data-name="Group 749" transform="translate(0 31.962)" opacity="0.6">
            <path id="Path_20204" data-name="Path 20204" d="M299.764,133.658v6.559h-1.518v-2.7h-2.989v2.7H293.74V133.65h1.518v2.635h2.989V133.7Z" transform="translate(-293.74 -133.65)" fill="#fff"/>
            <path id="Path_20205" data-name="Path 20205" d="M304.548,134.895H302.44V133.66h5.726v1.235h-2.1v5.324h-1.518Z" transform="translate(-295.598 -133.652)" fill="#fff"/>
            <path id="Path_20206" data-name="Path 20206" d="M316.741,140.217v-3.932l-1.935,3.248h-.716l-1.927-3.146v3.83H310.74V133.65H312l2.454,4.082,2.422-4.082h1.25v6.567Z" transform="translate(-297.37 -133.65)" fill="#fff"/>
            <path id="Path_20207" data-name="Path 20207" d="M322.17,133.66h1.518v5.324h3.3v1.235H322.17Z" transform="translate(-299.811 -133.652)" fill="#fff"/>
          </g>
          <rect id="Rectangle_1196" data-name="Rectangle 1196" width="27.031" height="27.031" rx="2.27" transform="translate(57.885 14.408)" fill="#0091ff"/>
          <g id="Group_750" data-name="Group 750" transform="translate(57.885 14.408)" opacity="0.4">
            <rect id="Rectangle_1197" data-name="Rectangle 1197" width="27.031" height="27.031" rx="2.27" fill="#fff"/>
          </g>
          <path id="Path_20208" data-name="Path 20208" d="M378.264,126.719c.645.2.944.606.944,1.573v2.257a.928.928,0,0,0,1.03,1.038h.252v1.722H379.7c-1.762,0-2.658-.9-2.658-2.525v-2.548a.582.582,0,0,0-.621-.661h-.464v-1.722h.464a.582.582,0,0,0,.621-.661v-2.548c0-1.62.9-2.525,2.658-2.525h.786v1.722h-.252a.928.928,0,0,0-1.03,1.038v2.257C379.208,126.113,378.909,126.522,378.264,126.719Z" transform="translate(-311.296 -98.799)" fill="#fff"/>
          <path id="Path_20209" data-name="Path 20209" d="M391.9,125.866v1.722h-.464a.582.582,0,0,0-.621.661V130.8c0,1.62-.9,2.525-2.658,2.525h-.786V131.6h.252a.928.928,0,0,0,1.03-1.038V128.3c0-.975.291-1.384.944-1.573-.653-.2-.944-.606-.944-1.573V122.9a.928.928,0,0,0-1.03-1.038h-.252V120.14h.786c1.754,0,2.658.9,2.658,2.525v2.548a.582.582,0,0,0,.621.661Z" transform="translate(-313.732 -98.803)" fill="#fff"/>
          <path id="Path_20210" data-name="Path 20210" d="M373,155.351a3.618,3.618,0,0,1,6.292-2.234l-.975.9a2.1,2.1,0,1,0,0,2.635l.975.9A3.61,3.61,0,0,1,373,155.328Z" transform="translate(-310.664 -105.591)" fill="#263238"/>
          <path id="Path_20211" data-name="Path 20211" d="M381.52,158l.511-1.148a3.932,3.932,0,0,0,2.171.684c.9,0,1.266-.3,1.266-.7,0-1.235-3.822-.385-3.822-2.823,0-1.117.9-2.053,2.768-2.053a4.467,4.467,0,0,1,2.281.582l-.464,1.156a3.736,3.736,0,0,0-1.825-.511c-.9,0-1.25.33-1.25.747,0,1.211,3.822.378,3.822,2.784,0,1.1-.912,2.037-2.784,2.037A4.719,4.719,0,0,1,381.52,158Z" transform="translate(-312.483 -105.597)" fill="#263238"/>
          <path id="Path_20212" data-name="Path 20212" d="M389.13,158l.519-1.148a3.87,3.87,0,0,0,2.171.684c.9,0,1.266-.3,1.266-.7,0-1.235-3.822-.385-3.822-2.823,0-1.117.9-2.053,2.768-2.053a4.491,4.491,0,0,1,2.281.582l-.472,1.156a3.689,3.689,0,0,0-1.817-.511c-.9,0-1.251.33-1.251.747,0,1.211,3.822.377,3.822,2.784,0,1.1-.912,2.037-2.792,2.037A4.719,4.719,0,0,1,389.13,158Z" transform="translate(-314.108 -105.597)" fill="#263238"/>
          <g id="Group_751" data-name="Group 751" transform="translate(62.336 46.34)" opacity="0.6">
            <path id="Path_20213" data-name="Path 20213" d="M373,155.351a3.618,3.618,0,0,1,6.292-2.234l-.975.9a2.1,2.1,0,1,0,0,2.635l.975.9A3.61,3.61,0,0,1,373,155.328Z" transform="translate(-373 -151.931)" fill="#fff"/>
            <path id="Path_20214" data-name="Path 20214" d="M381.52,158l.511-1.148a3.932,3.932,0,0,0,2.171.684c.9,0,1.266-.3,1.266-.7,0-1.235-3.822-.385-3.822-2.823,0-1.117.9-2.053,2.768-2.053a4.467,4.467,0,0,1,2.281.582l-.464,1.156a3.736,3.736,0,0,0-1.825-.511c-.9,0-1.25.33-1.25.747,0,1.211,3.822.378,3.822,2.784,0,1.1-.912,2.037-2.784,2.037A4.719,4.719,0,0,1,381.52,158Z" transform="translate(-374.819 -151.937)" fill="#fff"/>
            <path id="Path_20215" data-name="Path 20215" d="M389.13,158l.519-1.148a3.87,3.87,0,0,0,2.171.684c.9,0,1.266-.3,1.266-.7,0-1.235-3.822-.385-3.822-2.823,0-1.117.9-2.053,2.768-2.053a4.491,4.491,0,0,1,2.281.582l-.472,1.156a3.689,3.689,0,0,0-1.817-.511c-.9,0-1.251.33-1.251.747,0,1.211,3.822.377,3.822,2.784,0,1.1-.912,2.037-2.792,2.037A4.719,4.719,0,0,1,389.13,158Z" transform="translate(-376.444 -151.937)" fill="#fff"/>
          </g>
        </g>
        <g id="freepik--Tabs--inject-5" transform="translate(195.058 163.221)">
          <rect id="Rectangle_1198" data-name="Rectangle 1198" width="96.351" height="69.745"/>
          <rect id="Rectangle_1199" data-name="Rectangle 1199" width="96.351" height="69.745" fill="#fff" opacity="0.9"/>
          <rect id="Rectangle_1200" data-name="Rectangle 1200" width="13.417" height="69.745" opacity="0.1"/>
          <rect id="Rectangle_1201" data-name="Rectangle 1201" width="96.351" height="6.52" fill="#0091ff"/>
          <g id="Group_752" data-name="Group 752" transform="translate(20.299 14.786)" opacity="0.2">
            <path id="Path_20216" data-name="Path 20216" d="M192.733,128.353H175.186a.786.786,0,0,1,0-1.573h17.546a.786.786,0,0,1,0,1.573Z" transform="translate(-174.369 -126.78)"/>
            <path id="Path_20217" data-name="Path 20217" d="M237.53,128.353H203.436a.786.786,0,0,1,0-1.573H237.53a.786.786,0,0,1,0,1.573Z" transform="translate(-180.401 -126.78)"/>
            <path id="Path_20218" data-name="Path 20218" d="M224.022,134.883H178.186a.786.786,0,1,1,0-1.573h45.836a.786.786,0,1,1,0,1.573Z" transform="translate(-175.009 -128.174)"/>
            <path id="Path_20219" data-name="Path 20219" d="M204.711,141.4H175.186a.786.786,0,0,1,0-1.573h29.524a.786.786,0,0,1,0,1.573Z" transform="translate(-174.369 -129.566)"/>
            <path id="Path_20220" data-name="Path 20220" d="M241.043,141.4H219.887a.786.786,0,0,1,0-1.573h21.156a.786.786,0,1,1,0,1.573Z" transform="translate(-183.913 -129.566)"/>
            <path id="Path_20221" data-name="Path 20221" d="M191.49,147.933h-16.3a.786.786,0,0,1,0-1.573h16.3a.786.786,0,1,1,0,1.573Z" transform="translate(-174.369 -130.961)"/>
            <path id="Path_20222" data-name="Path 20222" d="M228.307,147.933H202.637a.786.786,0,1,1,0-1.573h25.671a.786.786,0,1,1,0,1.573Z" transform="translate(-180.23 -130.961)"/>
            <path id="Path_20223" data-name="Path 20223" d="M200.121,154.463H178.186a.786.786,0,1,1,0-1.573h21.935a.786.786,0,1,1,0,1.573Z" transform="translate(-175.009 -132.355)"/>
            <path id="Path_20224" data-name="Path 20224" d="M202.866,160.993h-24.68a.786.786,0,1,1,0-1.573h24.68a.786.786,0,0,1,0,1.573Z" transform="translate(-175.009 -133.749)"/>
            <path id="Path_20225" data-name="Path 20225" d="M239.954,160.993H214.786a.786.786,0,0,1,0-1.573h25.167a.786.786,0,1,1,0,1.573Z" transform="translate(-182.824 -133.749)"/>
            <path id="Path_20226" data-name="Path 20226" d="M189.3,167.513H175.146a.786.786,0,0,1,0-1.573H189.3a.786.786,0,1,1,0,1.573Z" transform="translate(-174.36 -135.142)"/>
            <path id="Path_20227" data-name="Path 20227" d="M236.642,167.513H199.277a.786.786,0,1,1,0-1.573h37.366a.786.786,0,1,1,0,1.573Z" transform="translate(-179.512 -135.142)"/>
            <path id="Path_20228" data-name="Path 20228" d="M202.709,174.043H178.186a.786.786,0,0,1,0-1.573h24.522a.786.786,0,0,1,0,1.573Z" transform="translate(-175.009 -136.536)"/>
            <path id="Path_20229" data-name="Path 20229" d="M229.588,174.043H213.716a.786.786,0,0,1,0-1.573h15.871a.786.786,0,0,1,0,1.573Z" transform="translate(-182.596 -136.536)"/>
            <path id="Path_20230" data-name="Path 20230" d="M206.413,180.573H178.186a.786.786,0,0,1,0-1.573h28.227a.786.786,0,0,1,0,1.573Z" transform="translate(-175.009 -137.93)"/>
          </g>
          <circle id="Ellipse_58" data-name="Ellipse 58" cx="1.345" cy="1.345" r="1.345" transform="translate(90.862 1.958)" fill="#fff" opacity="0.4"/>
          <circle id="Ellipse_59" data-name="Ellipse 59" cx="1.345" cy="1.345" r="1.345" transform="translate(86.135 1.958)" fill="#fff" opacity="0.4"/>
          <circle id="Ellipse_60" data-name="Ellipse 60" cx="1.345" cy="1.345" r="1.345" transform="translate(81.416 1.958)" fill="#fff" opacity="0.4"/>
          <g id="Group_753" data-name="Group 753" transform="translate(6.158 14.786)" opacity="0.2">
            <path id="Path_20231" data-name="Path 20231" d="M157.167,128.353h0a.786.786,0,1,1,.786-.786A.786.786,0,0,1,157.167,128.353Z" transform="translate(-156.38 -126.78)"/>
            <path id="Path_20232" data-name="Path 20232" d="M157.167,134.883h0a.786.786,0,1,1,.786-.786A.786.786,0,0,1,157.167,134.883Z" transform="translate(-156.38 -128.174)"/>
            <path id="Path_20233" data-name="Path 20233" d="M157.167,141.4h0a.786.786,0,1,1,.786-.786A.786.786,0,0,1,157.167,141.4Z" transform="translate(-156.38 -129.566)"/>
            <path id="Path_20234" data-name="Path 20234" d="M157.167,147.933h0a.786.786,0,1,1,.786-.786A.786.786,0,0,1,157.167,147.933Z" transform="translate(-156.38 -130.961)"/>
            <path id="Path_20235" data-name="Path 20235" d="M157.167,154.463h0a.786.786,0,1,1,.786-.786A.786.786,0,0,1,157.167,154.463Z" transform="translate(-156.38 -132.355)"/>
            <path id="Path_20236" data-name="Path 20236" d="M157.167,160.993h0a.786.786,0,1,1,.786-.786A.786.786,0,0,1,157.167,160.993Z" transform="translate(-156.38 -133.749)"/>
            <path id="Path_20237" data-name="Path 20237" d="M157.167,167.513h0a.786.786,0,1,1,.786-.786A.786.786,0,0,1,157.167,167.513Z" transform="translate(-156.38 -135.142)"/>
            <path id="Path_20238" data-name="Path 20238" d="M157.167,174.043h0a.786.786,0,1,1,.786-.787A.787.787,0,0,1,157.167,174.043Z" transform="translate(-156.38 -136.536)"/>
            <path id="Path_20239" data-name="Path 20239" d="M157.167,180.573h0a.786.786,0,1,1,.786-.786A.786.786,0,0,1,157.167,180.573Z" transform="translate(-156.38 -137.93)"/>
          </g>
        </g>
        <g id="freepik--speech-bubble--inject-5" transform="translate(71.509 163.221)">
          <path id="Path_20275" data-name="Path 20275" d="M105.238,186.42H82.65a6.952,6.952,0,0,0-6.96,6.952v19.662a6.952,6.952,0,0,0,6.952,6.96H98.663l4.719,6.205v-6.205h1.848a6.96,6.96,0,0,0,6.96-6.96V193.372a6.952,6.952,0,0,0-6.952-6.952Z" transform="translate(-75.69 -186.42)" fill="#0091ff"/>
          <path id="Path_20276" data-name="Path 20276" d="M105.238,186.42H82.65a6.952,6.952,0,0,0-6.96,6.952v19.662a6.952,6.952,0,0,0,6.952,6.96H98.663l4.719,6.205v-6.205h1.848a6.96,6.96,0,0,0,6.96-6.96V193.372a6.952,6.952,0,0,0-6.952-6.952Z" transform="translate(-75.69 -186.42)" fill="#fff" opacity="0.7"/>
          <path id="Path_20277" data-name="Path 20277" d="M95.926,211.3a1.046,1.046,0,0,1-.786-.362l-4.4-5.144a1.032,1.032,0,1,1,1.573-1.337l3.61,4.263,5.969-7.031a1.03,1.03,0,0,1,1.573,1.329l-6.756,7.936A1.03,1.03,0,0,1,95.926,211.3Z" transform="translate(-78.852 -189.608)" fill="#fff"/>
          <circle id="Ellipse_63" data-name="Ellipse 63" cx="11.215" cy="11.215" r="11.215" transform="translate(2.389 16.695) rotate(-45)" fill="#0091ff"/>
        </g>
        <g id="freepik--Character--inject-5" transform="translate(65.167 194.158)">
          <path id="Path_20278" data-name="Path 20278" d="M204.257,363.256l16.886-.826L219.5,377.114s-11.719,2.234-16.949-6.1Z" transform="translate(-96.435 -254.939)" fill="#ebb376"/>
          <path id="Path_20279" data-name="Path 20279" d="M236.629,367.55,232.783,378.2l-8.683-1.085,1.644-14.684Z" transform="translate(-101.037 -254.939)" fill="#ebb376"/>
          <path id="Path_20280" data-name="Path 20280" d="M175.381,381.016a69.03,69.03,0,0,0,17.365-12.89l-1.156-10.94c-15.958,2.359-25.167,5.733-25.167,5.733s5.914-21.2.5-28.919l-14.857,2.69S136.286,369.5,146.9,381.016Z" transform="translate(-83.769 -248.868)" fill="#0091ff"/>
          <path id="Path_20281" data-name="Path 20281" d="M175.354,381.013a69.209,69.209,0,0,0,17.381-12.883l-1.148-10.956c-15.446,2.265-24.577,5.505-25.167,5.718.2-.786,5.788-21.321.488-28.9l-14.857,2.69a115.319,115.319,0,0,0-7.243,20.5c-2.123,8.958-2.745,18.608,2.084,23.838Z" transform="translate(-83.765 -248.866)" fill="#fff" opacity="0.7"/>
          <path id="Path_20282" data-name="Path 20282" d="M163.155,382.463c5.246-33.237.6-41.683.6-41.683l-18.875,17.829c-2.124,8.958-2.745,18.608,2.084,23.838Z" transform="translate(-83.78 -250.316)" opacity="0.2"/>
          <path id="Path_20283" data-name="Path 20283" d="M147.907,375.937c3.539-16.8,7.511-43.1,7.078-47.016-.629-5.694-31.6-30.091-58.482-12.332C91,320.216,88.19,359.327,87.23,375.937Z" transform="translate(-71.812 -243.79)" fill="#0091ff"/>
          <path id="Path_20284" data-name="Path 20284" d="M147.907,375.938c3.539-16.8,7.511-43.107,7.078-47.023-.629-5.686-31.608-30.083-58.49-12.316-1.99,1.329-3.626,7.33-4.978,15.258-1.793,10.79-3.036,25.12-3.775,35.926-.2,3.059-.378,5.828-.511,8.156Z" transform="translate(-71.812 -243.791)" fill="#fff" opacity="0.7"/>
          <path id="Path_20285" data-name="Path 20285" d="M138.435,226.38c-9.32-3.767-31.294,9.752-33.221,33.858s10.295,17.428,10.295,17.428,2.179,9.194,11.081,6.355c0,0,7.354,8.329,14.2,4.939,0,0,8.518,8.871,13.087,4.192,0,0,4.971,5.671,9.508,1.376s17.507-48.132-2.839-58.27S138.435,226.38,138.435,226.38Z" transform="translate(-75.608 -225.756)" fill="#263238"/>
          <path id="Path_20286" data-name="Path 20286" d="M146.86,347.307l-.9-.079c1.038-11.608-1.518-16.744-1.573-16.791l.786-.417C145.326,330.2,147.921,335.368,146.86,347.307Z" transform="translate(-84.017 -248.019)" fill="#263238"/>
          <path id="Path_20287" data-name="Path 20287" d="M152.2,347.219c-6.174-14.542.786-17.932,1.07-18.089l.37.786-.189-.409.189.409c-.063,0-6.418,3.217-.613,16.9Z" transform="translate(-85.141 -247.829)" fill="#263238"/>
          <path id="Path_20288" data-name="Path 20288" d="M134.547,325.618a96.14,96.14,0,0,0-30.413-14.754L98.2,313.648s-9.957-12.324,6.638-16.359,39.167,7.078,44.829,16.595-9.847,12.584-9.847,12.584S138.393,324.533,134.547,325.618Z" transform="translate(-73.521 -240.848)" fill="#0091ff"/>
          <path id="Path_20289" data-name="Path 20289" d="M134.547,325.618a96.14,96.14,0,0,0-30.413-14.754L98.2,313.648s-9.957-12.324,6.638-16.359,39.167,7.078,44.829,16.595-9.847,12.584-9.847,12.584S138.393,324.533,134.547,325.618Z" transform="translate(-73.521 -240.848)" fill="#fff" opacity="0.6"/>
          <path id="Path_20290" data-name="Path 20290" d="M153.933,351.7a.786.786,0,1,1-.786-.786A.786.786,0,0,1,153.933,351.7Z" transform="translate(-85.719 -252.479)" fill="#fff"/>
          <path id="Path_20291" data-name="Path 20291" d="M147.443,351.7a.786.786,0,1,1-.786-.786A.786.786,0,0,1,147.443,351.7Z" transform="translate(-84.333 -252.479)" fill="#fff"/>
          <path id="Path_20292" data-name="Path 20292" d="M134.407,277c-.724,8.439-3.311,23.461-10.177,26.74,0,0,7.676,1.573,19.662,16.76,6.819-4.782,4.239-8.046,4.239-8.046-7.975-5.23-5.906-11.679-2.682-17.3Z" transform="translate(-79.712 -236.698)" fill="#ebb376"/>
          <path id="Path_20293" data-name="Path 20293" d="M142.485,286.41l6.536,10.775a25.052,25.052,0,0,0-1.974,4.09c-3.146-1.683-6.591-7.015-5.938-10.665A12.4,12.4,0,0,1,142.485,286.41Z" transform="translate(-83.299 -238.707)" opacity="0.2"/>
          <path id="Path_20294" data-name="Path 20294" d="M135.481,250.274c-2.194,13.26-3.405,18.813,1.51,27.346,7.385,12.843,23.752,13.449,29.768,1.306,5.411-10.932,8.093-30.783-3.2-39.544C152.414,230.746,137.659,237.006,135.481,250.274Z" transform="translate(-81.706 -227.817)" fill="#ebb376"/>
          <path id="Path_20295" data-name="Path 20295" d="M160.78,230.006c8.6,4.766,16.783,19.662,4.554,15.942-1.848,3.578-8.431.3-12.261-4-.645,2.981-7.692,5.969-12.883,1.353,2.509,3.618-1.762,12.749-6.205,11.176s-14.416-3.641-5.584-17.719S151.6,224.9,160.78,230.006Z" transform="translate(-79.848 -225.826)" fill="#263238"/>
          <path id="Path_20296" data-name="Path 20296" d="M166.1,270.22s.787,5.262,2.281,8.116c-1.675.967-3.932-.322-3.932-.322Z" transform="translate(-88.3 -235.25)" fill="#d58745"/>
          <path id="Path_20297" data-name="Path 20297" d="M154.335,281.616a10.218,10.218,0,0,0,1.738.661.3.3,0,0,0,.377-.236.338.338,0,0,0-.244-.409,9.39,9.39,0,0,1-6.1-5.356.323.323,0,0,0-.409-.22.33.33,0,0,0-.181.425,9.87,9.87,0,0,0,4.821,5.136Z" transform="translate(-85.106 -236.493)" fill="#263238"/>
          <path id="Path_20298" data-name="Path 20298" d="M127.426,264.53a10.782,10.782,0,0,0,5.018,6.536c3.2,1.754,5.505-1.25,5.269-4.986-.244-3.374-2.21-8.345-5.718-8.541S126.474,261.046,127.426,264.53Z" transform="translate(-80.344 -232.54)" fill="#ebb376"/>
          <path id="Path_20299" data-name="Path 20299" d="M154.381,254.234a.6.6,0,0,0,.5,0,4.868,4.868,0,0,1,4.577-.079.6.6,0,0,0,.857-.236.716.716,0,0,0-.26-.92,6.025,6.025,0,0,0-5.788,0,.676.676,0,0,0-.252.9A.716.716,0,0,0,154.381,254.234Z" transform="translate(-86.056 -231.415)" fill="#263238"/>
          <path id="Path_20300" data-name="Path 20300" d="M180.276,259.893a.581.581,0,0,0,.472.047.645.645,0,0,0,.4-.834,6.9,6.9,0,0,0-4.1-4.546.6.6,0,0,0-.786.448.708.708,0,0,0,.456.834,5.505,5.505,0,0,1,3.209,3.641A.692.692,0,0,0,180.276,259.893Z" transform="translate(-90.819 -231.899)" fill="#263238"/>
          <path id="Path_20301" data-name="Path 20301" d="M159.143,265.144c-.385,1.054-1.266,1.691-1.966,1.431s-.952-1.313-.566-2.359,1.266-1.691,1.958-1.431S159.521,264.1,159.143,265.144Z" transform="translate(-86.588 -233.65)" fill="#263238"/>
          <path id="Path_20302" data-name="Path 20302" d="M158.76,262.715l2.611-.055S159.531,264.154,158.76,262.715Z" transform="translate(-87.085 -233.636)" fill="#263238"/>
          <path id="Path_20303" data-name="Path 20303" d="M175.934,270.475c-.385,1.046-1.266,1.683-1.958,1.431s-.96-1.321-.574-2.359,1.266-1.683,1.966-1.431S176.32,269.421,175.934,270.475Z" transform="translate(-90.174 -234.789)" fill="#263238"/>
          <path id="Path_20304" data-name="Path 20304" d="M175.56,268.035l2.6-.055S176.323,269.482,175.56,268.035Z" transform="translate(-90.672 -234.772)" fill="#263238"/>
          <path id="Path_20305" data-name="Path 20305" d="M156.694,271.384a5.779,5.779,0,0,1-2.359-.5,5.969,5.969,0,0,1-3.256-3.807,7.967,7.967,0,0,1,4.16-9.32,5.867,5.867,0,0,1,8.282,3.7,7.747,7.747,0,0,1-.4,5.411h0a7.739,7.739,0,0,1-3.767,3.932A6.292,6.292,0,0,1,156.694,271.384Zm1.235-13.331a5.505,5.505,0,0,0-2.257.55,7.078,7.078,0,0,0-3.681,8.242,4.955,4.955,0,0,0,7.039,3.146,6.85,6.85,0,0,0,3.327-3.453l.409.181-.409-.181a6.858,6.858,0,0,0,.354-4.79,5.065,5.065,0,0,0-2.768-3.248A4.719,4.719,0,0,0,157.928,258.053Z" transform="translate(-85.381 -232.458)" fill="#263238"/>
          <path id="Path_20306" data-name="Path 20306" d="M173.333,276.483a5.631,5.631,0,0,1-2.359-.5,6,6,0,0,1-3.264-3.807,7.983,7.983,0,0,1,4.168-9.32,5.851,5.851,0,0,1,8.274,3.7,7.7,7.7,0,0,1-.393,5.411h0a7.314,7.314,0,0,1-6.426,4.514Zm1.251-13.37a5.506,5.506,0,0,0-2.3.519,6.9,6.9,0,0,0-3.327,3.46,6.788,6.788,0,0,0-.354,4.782,5.081,5.081,0,0,0,2.768,3.256c2.753,1.235,6.166-.37,7.6-3.563h0a6.9,6.9,0,0,0,.354-4.79,5.088,5.088,0,0,0-2.768-3.248,4.916,4.916,0,0,0-1.974-.378Z" transform="translate(-88.933 -233.546)" fill="#263238"/>
          <path id="Path_20307" data-name="Path 20307" d="M167.356,269.607a.4.4,0,0,0-.228-.252,1.636,1.636,0,0,0-1.015.149l-.393-.786a2.415,2.415,0,0,1,1.73-.181,1.29,1.29,0,0,1,.786.786Z" transform="translate(-88.571 -234.873)" fill="#263238"/>
          <rect id="Rectangle_1206" data-name="Rectangle 1206" width="0.902" height="11.153" transform="translate(57.007 27.179) rotate(-72.646)" fill="#263238"/>
          <path id="Path_20308" data-name="Path 20308" d="M126.732,357.871S106.04,373.726,87.88,372.814c.739-10.806,1.982-25.167,3.775-35.926,1.856-2.045,3.075-3.287,3.075-3.287l11.011,8.234-2.682,3.366s16.665-.849,22.47,0Z" transform="translate(-71.951 -248.783)" opacity="0.2"/>
          <path id="Path_20309" data-name="Path 20309" d="M139.859,347.382,156.422,344l.59,14.77s-11.239,3.98-17.672-3.468Z" transform="translate(-82.939 -251.004)" fill="#ebb376"/>
          <path id="Path_20310" data-name="Path 20310" d="M172.59,347.431,170.4,358.536l-8.753.244-.59-14.77Z" transform="translate(-87.576 -251.006)" fill="#ebb376"/>
          <path id="Path_20311" data-name="Path 20311" d="M138.623,348.3l.81,11.4-4.121,1.848L133.55,348.3Z" transform="translate(-81.702 -251.922)" fill="#0091ff"/>
          <path id="Path_20312" data-name="Path 20312" d="M138.623,348.3l.81,11.4-4.121,1.848L133.55,348.3Z" transform="translate(-81.702 -251.922)" fill="#fff" opacity="0.6"/>
          <path id="Path_20313" data-name="Path 20313" d="M98.239,314.78a19.158,19.158,0,0,0-11.365,6.575c-4.994,5.867-22.6,23.3-18.687,37.523s41.55,3.641,53.048-4.491l-1.762-13.244L93.4,343.054l8.038-5.293C106.953,322.425,98.239,314.78,98.239,314.78Z" transform="translate(-67.626 -244.764)" fill="#0091ff"/>
          <path id="Path_20314" data-name="Path 20314" d="M98.239,314.78a19.158,19.158,0,0,0-11.365,6.575c-4.994,5.867-22.6,23.3-18.687,37.523s41.55,3.641,53.048-4.491l-1.762-13.244L93.4,343.054l8.038-5.293C106.953,322.425,98.239,314.78,98.239,314.78Z" transform="translate(-67.626 -244.764)" fill="#fff" opacity="0.7"/>
          <path id="Path_20315" data-name="Path 20315" d="M202.56,363.584l4.742-.794V375.5l-3.759.613Z" transform="translate(-96.438 -255.016)" fill="#0091ff"/>
          <path id="Path_20316" data-name="Path 20316" d="M202.56,363.584l4.742-.794V375.5l-3.759.613Z" transform="translate(-96.438 -255.016)" fill="#fff" opacity="0.6"/>
          <path id="Path_20317" data-name="Path 20317" d="M187.336,377.127a15.289,15.289,0,0,1,.1-2.084L187.58,374l-1.015.6-.606.362a4.856,4.856,0,0,1-.613.228,1.824,1.824,0,0,1-1.1,0,2.021,2.021,0,0,1-.881-.637,3.689,3.689,0,0,1-.621-1.07L181.854,371l-.629,2.627c-.063.259-.1.527-.149.786a7.212,7.212,0,0,1-.228.731,2.36,2.36,0,0,1-.731,1,1.573,1.573,0,0,1-1.188.1,4.9,4.9,0,0,1-1.4-.613l-1.368-.857.551,1.392a11.707,11.707,0,0,1,.566,1.825,5.539,5.539,0,0,1,.126.944,1.494,1.494,0,0,1-.2.928,1.51,1.51,0,0,0,.535-.881,4.23,4.23,0,0,0,.142-1.038,7.176,7.176,0,0,0,0-.826,6.545,6.545,0,0,0,.708.346,2.792,2.792,0,0,0,2.241-.055,3.366,3.366,0,0,0,1.471-1.667v-.1a3,3,0,0,0,3.5.747,5.409,5.409,0,0,0,.669-.362s0,.055,0,.086a10.525,10.525,0,0,0,.228,1.1,5.739,5.739,0,0,0,.393,1.062,2.446,2.446,0,0,0,.684.881,2.737,2.737,0,0,1-.338-1A7.722,7.722,0,0,1,187.336,377.127Z" transform="translate(-90.801 -256.769)" fill="#0091ff"/>
          <path id="Path_20318" data-name="Path 20318" d="M221.795,354.708a4.5,4.5,0,0,1-1.817-.2,6.591,6.591,0,0,1-1.707-.786,5.112,5.112,0,0,1-1.266-1.361,7.078,7.078,0,0,1-.842-1.691l-.519-1.573-.881,1.392a7.566,7.566,0,0,1-1.353,1.573,2.533,2.533,0,0,1-1.573.724h-.189l-.236-.047a2.2,2.2,0,0,1-.488-.118,5.883,5.883,0,0,1-.952-.409,8.151,8.151,0,0,1-1.691-1.258l-1.368-1.313.283,1.8a14.436,14.436,0,0,1,.181,2.91,4.044,4.044,0,0,1-.275,1.337.889.889,0,0,1-.96.551h-.354l.11.291q.346.889.708,1.77c-.071-.527-.157-1.054-.252-1.573h.149a2.5,2.5,0,0,0,.464-.079,3.662,3.662,0,0,0,.417-.252c.1-.11.212-.228.307-.346a4.144,4.144,0,0,0,.59-1.573,10.012,10.012,0,0,0,.173-1.573h0a8.961,8.961,0,0,0,.786.582,6.967,6.967,0,0,0,1.164.574,4.074,4.074,0,0,0,1.361.307,3.987,3.987,0,0,0,2.627-1.038,7.294,7.294,0,0,0,.857-.849,8.975,8.975,0,0,0,.5.786,6.513,6.513,0,0,0,1.73,1.644,6.747,6.747,0,0,0,2.179.849,6.354,6.354,0,0,0,1.5.11c-.063.157-.134.315-.189.48a10.686,10.686,0,0,0-.322,1.384,5.414,5.414,0,0,0-.063,1.424,2.816,2.816,0,0,0,.417,1.337,2.941,2.941,0,0,1-.1-1.329,6.759,6.759,0,0,1,.307-1.3,13.368,13.368,0,0,1,1.14-2.359l.5-.842Z" transform="translate(-97.127 -252.093)" fill="#0091ff"/>
        </g>
        <g id="freepik--Table--inject-5" transform="translate(58.556 326.069)">
          <path id="Path_20319" data-name="Path 20319" d="M3.492,0H279.309A3.492,3.492,0,0,1,282.8,3.492v8.494H0V3.492A3.492,3.492,0,0,1,3.492,0Z" transform="translate(292.113 17.185) rotate(180)" fill="#0091ff"/>
          <rect id="Rectangle_1207" data-name="Rectangle 1207" width="282.809" height="5.993" transform="translate(292.113 11.184) rotate(180)" opacity="0.2"/>
          <path id="Path_20320" data-name="Path 20320" d="M62.6,400.236H357.263a3.382,3.382,0,0,0,3.382-3.374h0a3.382,3.382,0,0,0-3.382-3.382H62.6a3.382,3.382,0,0,0-3.382,3.382h0A3.382,3.382,0,0,0,62.6,400.236Z" transform="translate(-59.22 -393.48)" fill="#0091ff"/>
        </g>
        <g id="freepik--device-2--inject-5" transform="translate(253.712 282.936)">
          <path id="Path_20321" data-name="Path 20321" d="M396.435,340.5l-8.6,39.025a2.934,2.934,0,0,1-2.792,2.218h-47a1.9,1.9,0,0,1-1.762-2.454l8.588-38.726a2.69,2.69,0,0,1,2.792-1.911h47C395.916,338.679,396.71,339.253,396.435,340.5Z" transform="translate(-313.516 -338.637)" fill="#263238"/>
          <path id="Path_20322" data-name="Path 20322" d="M396.866,340.5l-8.6,39.025a2.934,2.934,0,0,1-2.792,2.218h-45.4a1.9,1.9,0,0,1-1.77-2.454l8.6-38.726a2.666,2.666,0,0,1,2.792-1.911h45.4C396.347,338.679,397.141,339.253,396.866,340.5Z" transform="translate(-313.948 -338.637)" fill="#fff" opacity="0.4"/>
          <path id="Path_20323" data-name="Path 20323" d="M389.659,380.866l8.557-38.82c.283-1.274-.511-1.848-1.777-1.848h-45.4a2.682,2.682,0,0,0-2.792,1.911l-8.691,39.269Z" transform="translate(-314.235 -338.968)" fill="#0091ff"/>
          <path id="Path_20324" data-name="Path 20324" d="M398.218,342.038,393.7,362.549l-4.05,18.317-26.819.275-23.264.228,8.651-39.261a2.666,2.666,0,0,1,2.784-1.911h45.451C397.714,340.2,398.5,340.779,398.218,342.038Z" transform="translate(-314.238 -338.968)" fill="#fff" opacity="0.4"/>
          <path id="Path_20325" data-name="Path 20325" d="M393.972,368.62l-4.05,18.317-26.819.275H340.83l3.641-16.752a2.359,2.359,0,0,1,2.281-1.84Z" transform="translate(-314.507 -345.039)" opacity="0.2"/>
          <path id="Path_20326" data-name="Path 20326" d="M394.472,371.34a2.666,2.666,0,0,0-2.792-1.9h-45.4c-1.258,0-2.053.566-1.777,1.84l3.445,15.619h-7.668a.724.724,0,1,0,0,1.447H396.2a1.644,1.644,0,0,0,1.573-2.006Z" transform="translate(-314.235 -345.211)" fill="#0091ff"/>
          <path id="Path_20327" data-name="Path 20327" d="M394.472,371.34a2.666,2.666,0,0,0-2.792-1.9h-45.4c-1.258,0-2.053.566-1.777,1.84l3.445,15.619h-7.668a.724.724,0,1,0,0,1.447H396.2a1.644,1.644,0,0,0,1.573-2.006Z" transform="translate(-314.235 -345.211)" fill="#fff" opacity="0.4"/>
          <path id="Path_20328" data-name="Path 20328" d="M337.945,383.91H335.31l-.33,1.424h2.564Z" transform="translate(-313.257 -348.304)"/>
          <path id="Path_20329" data-name="Path 20329" d="M315.4,391.688h-7.59a.44.44,0,0,1-.448-.448.448.448,0,0,1,.448-.448h7.59a8.3,8.3,0,0,0,6.488-3.107,9.186,9.186,0,0,1,7.2-3.445h1.337a.456.456,0,0,1,.448.448.448.448,0,0,1-.448.448H329.1a8.3,8.3,0,0,0-6.488,3.107A9.194,9.194,0,0,1,315.4,391.688Z" transform="translate(-307.36 -348.374)"/>
        </g>
        <g id="freepik--device-1--inject-5" transform="translate(135.285 255.365)">
          <path id="Path_20330" data-name="Path 20330" d="M156.78,386.65v3.28c0,1.479,1.785,2.092,3.264,2.092H275.326c1.463,0,3.2-.613,3.2-2.092v-3.28Z" transform="translate(-156.78 -321.317)" fill="#263238"/>
          <path id="Path_20331" data-name="Path 20331" d="M156.78,386.65v3.28c0,1.479,1.785,2.092,3.264,2.092H275.326c1.463,0,3.2-.613,3.2-2.092v-3.28Z" transform="translate(-156.78 -321.317)" fill="#fff" opacity="0.4"/>
          <path id="Path_20332" data-name="Path 20332" d="M206.72,386.65v3.28c0,1.479,1.754,2.092,3.232,2.092h76.037c1.463,0,3.2-.613,3.2-2.092v-3.28Z" transform="translate(-167.443 -321.317)" opacity="0.2"/>
          <path id="Path_20333" data-name="Path 20333" d="M310.03,306.529l-13.724,62.25a4.672,4.672,0,0,1-4.452,3.555H216.88a3.035,3.035,0,0,1-2.816-3.932l13.708-61.778c.464-2.029,2.446-3.044,4.459-3.044H307.2C309.212,303.588,310.479,304.5,310.03,306.529Z" transform="translate(-168.991 -303.58)" fill="#263238"/>
          <path id="Path_20334" data-name="Path 20334" d="M310.719,306.529l-13.724,62.25a4.672,4.672,0,0,1-4.452,3.555H220.117a3.04,3.04,0,0,1-2.831-3.932l13.724-61.778c.448-2.029,2.446-3.044,4.459-3.044h72.419C309.9,303.588,311.167,304.5,310.719,306.529Z" transform="translate(-169.68 -303.58)" fill="#fff" opacity="0.4"/>
          <path id="Path_20335" data-name="Path 20335" d="M284.849,344.942h0c0,5.332-5.71,9.666-9.9,9.666s-6.669-4.334-5.505-9.666,5.356-9.477,9.438-9.642c-1.2,5.332,1.361,9.642,5.505,9.642A2.455,2.455,0,0,0,284.849,344.942Z" transform="translate(-180.775 -310.353)" opacity="0.2"/>
        </g>
      </g>
    </g>
  </g>
</svg>
