<svg xmlns="http://www.w3.org/2000/svg" width="761.764" height="551.105" viewBox="0 0 761.764 551.105">
  <g id="Group_1931" data-name="Group 1931" transform="translate(-1088.37 -113.223)">
    <g id="b" transform="translate(1205.602 231.47)">
      <g id="c" transform="translate(-0.01)">
        <g id="Group_1929" data-name="Group 1929">
          <g id="Group_1913" data-name="Group 1913" transform="translate(82.312 0.164)">
            <path id="Path_43084" data-name="Path 43084" d="M70.16.14V186.559h30.358V.14ZM85.339,14.51A5.666,5.666,0,1,1,91,8.844,5.662,5.662,0,0,1,85.339,14.51Z" transform="translate(-70.16 -0.14)" fill="#f5b400"/>
            <rect id="Rectangle_3162" data-name="Rectangle 3162" width="9.373" height="3.12" transform="translate(20.974 23.355)" fill="#0d3f72"/>
            <rect id="Rectangle_3163" data-name="Rectangle 3163" width="9.373" height="3.12" transform="translate(20.974 62.405)" fill="#0d3f72"/>
            <rect id="Rectangle_3164" data-name="Rectangle 3164" width="4.68" height="3.12" transform="translate(25.666 31.168)" fill="#0d3f72"/>
            <rect id="Rectangle_3165" data-name="Rectangle 3165" width="4.68" height="3.12" transform="translate(25.666 38.98)" fill="#0d3f72"/>
            <rect id="Rectangle_3166" data-name="Rectangle 3166" width="4.68" height="3.12" transform="translate(25.666 46.781)" fill="#0d3f72"/>
            <rect id="Rectangle_3167" data-name="Rectangle 3167" width="4.68" height="3.12" transform="translate(25.666 54.593)" fill="#0d3f72"/>
            <rect id="Rectangle_3168" data-name="Rectangle 3168" width="4.68" height="3.12" transform="translate(25.666 70.218)" fill="#0d3f72"/>
            <rect id="Rectangle_3169" data-name="Rectangle 3169" width="4.68" height="3.12" transform="translate(25.666 78.03)" fill="#0d3f72"/>
            <rect id="Rectangle_3170" data-name="Rectangle 3170" width="4.68" height="3.12" transform="translate(25.666 85.831)" fill="#0d3f72"/>
            <rect id="Rectangle_3171" data-name="Rectangle 3171" width="4.68" height="3.12" transform="translate(25.666 93.643)" fill="#0d3f72"/>
            <rect id="Rectangle_3172" data-name="Rectangle 3172" width="9.373" height="3.12" transform="translate(20.974 101.456)" fill="#0d3f72"/>
            <rect id="Rectangle_3173" data-name="Rectangle 3173" width="4.68" height="3.12" transform="translate(25.666 109.268)" fill="#0d3f72"/>
            <rect id="Rectangle_3174" data-name="Rectangle 3174" width="4.68" height="3.12" transform="translate(25.666 117.081)" fill="#0d3f72"/>
            <rect id="Rectangle_3175" data-name="Rectangle 3175" width="4.68" height="3.12" transform="translate(25.666 124.881)" fill="#0d3f72"/>
            <rect id="Rectangle_3176" data-name="Rectangle 3176" width="4.68" height="3.12" transform="translate(25.666 132.694)" fill="#0d3f72"/>
            <rect id="Rectangle_3177" data-name="Rectangle 3177" width="9.373" height="3.12" transform="translate(20.974 140.506)" fill="#0d3f72"/>
            <rect id="Rectangle_3178" data-name="Rectangle 3178" width="4.68" height="3.12" transform="translate(25.666 148.319)" fill="#0d3f72"/>
            <rect id="Rectangle_3179" data-name="Rectangle 3179" width="4.68" height="3.12" transform="translate(25.666 156.119)" fill="#0d3f72"/>
            <rect id="Rectangle_3180" data-name="Rectangle 3180" width="4.68" height="3.12" transform="translate(25.666 163.932)" fill="#0d3f72"/>
            <rect id="Rectangle_3181" data-name="Rectangle 3181" width="4.68" height="3.12" transform="translate(25.666 171.744)" fill="#0d3f72"/>
            <rect id="Rectangle_3182" data-name="Rectangle 3182" width="9.373" height="3.12" transform="translate(20.974 179.556)" fill="#0d3f72"/>
          </g>
          <g id="Group_1914" data-name="Group 1914" transform="translate(72.071 138.43)">
            <path id="Path_43085" data-name="Path 43085" d="M245.9,352.035H161.32l4.856-35.965h74.851Z" transform="translate(-44.146 -83.739)" fill="#abc8cc"/>
            <rect id="Rectangle_3183" data-name="Rectangle 3183" width="318.08" height="234.279" rx="5.84" fill="#0d3f72"/>
            <path id="Path_43086" data-name="Path 43086" d="M61.43,289.55v27.414a5.637,5.637,0,0,0,5.642,5.642H373.88a5.645,5.645,0,0,0,5.642-5.642V289.55Z" transform="translate(-61.43 -88.328)" fill="#fff"/>
            <rect id="Rectangle_3184" data-name="Rectangle 3184" width="296.496" height="179.838" transform="translate(10.241 10.686)" fill="#0095e0"/>
            <path id="Path_43087" data-name="Path 43087" d="M205.733,306.786a7.3,7.3,0,1,1-7.3-7.3A7.3,7.3,0,0,1,205.733,306.786Z" transform="translate(-38.986 -86.608)" fill="#dce0e2"/>
            <path id="Path_43088" data-name="Path 43088" d="M255.239,353.964H152.2v-1.021a8.7,8.7,0,0,1,8.7-8.7h85.632a8.7,8.7,0,0,1,8.7,8.7Z" transform="translate(-45.724 -78.864)" fill="#fff"/>
          </g>
          <rect id="Rectangle_3185" data-name="Rectangle 3185" width="227.862" height="274.584" transform="translate(116.142 54.382)" fill="#c4e2f2"/>
          <rect id="Rectangle_3186" data-name="Rectangle 3186" width="227.862" height="94.758" transform="translate(116.142 186.818)" fill="#fff"/>
          <rect id="Rectangle_3187" data-name="Rectangle 3187" width="227.862" height="34.241" transform="translate(116.142 152.577)" fill="#f26229"/>
          <rect id="Rectangle_3188" data-name="Rectangle 3188" width="227.862" height="84.787" transform="translate(116.142 67.79)" fill="#ffbd38"/>
          <rect id="Rectangle_3189" data-name="Rectangle 3189" width="228.519" height="287.171" transform="translate(116.142 40.481)" fill="#fff"/>
          <rect id="Rectangle_3190" data-name="Rectangle 3190" width="228.519" height="25.772" transform="translate(116.142 40.481)" fill="#0d3f72"/>
          <rect id="Rectangle_3191" data-name="Rectangle 3191" width="228.519" height="22.229" transform="translate(116.142 66.253)" fill="#eb5a49"/>
          <rect id="Rectangle_3192" data-name="Rectangle 3192" width="192.436" height="11.12" transform="translate(134.183 98.957)" fill="#f5b400"/>
          <rect id="Rectangle_3193" data-name="Rectangle 3193" width="36.657" height="36.657" transform="translate(152.225 122.84)" fill="#eb5a49"/>
          <rect id="Rectangle_3194" data-name="Rectangle 3194" width="36.657" height="36.657" transform="translate(209.504 122.84)" fill="#eb5a49"/>
          <rect id="Rectangle_3195" data-name="Rectangle 3195" width="36.657" height="36.657" transform="translate(266.783 122.84)" fill="#eb5a49"/>
          <rect id="Rectangle_3196" data-name="Rectangle 3196" width="228.519" height="80.189" transform="translate(116.142 185.844)" fill="#f5b400"/>
          <path id="Path_43089" data-name="Path 43089" d="M262.057,46.3a5.513,5.513,0,1,1-5.513-5.513A5.514,5.514,0,0,1,262.057,46.3Z" transform="translate(43.449 7.058)" fill="#fff"/>
          <path id="Path_43090" data-name="Path 43090" d="M276.707,46.3a5.513,5.513,0,1,1-5.513-5.513A5.514,5.514,0,0,1,276.707,46.3Z" transform="translate(45.984 7.058)" fill="#fff"/>
          <path id="Path_43091" data-name="Path 43091" d="M291.357,46.3a5.513,5.513,0,1,1-5.513-5.513A5.514,5.514,0,0,1,291.357,46.3Z" transform="translate(48.519 7.058)" fill="#fff"/>
          <rect id="Rectangle_3197" data-name="Rectangle 3197" width="60.716" height="60.716" transform="translate(128.178 195.58)" fill="#fff"/>
          <rect id="Rectangle_3198" data-name="Rectangle 3198" width="36.657" height="4.012" transform="translate(152.225 164.659)" fill="#0d3f72"/>
          <rect id="Rectangle_3199" data-name="Rectangle 3199" width="15.93" height="4.012" transform="translate(152.225 170.383)" fill="#0d3f72"/>
          <rect id="Rectangle_3200" data-name="Rectangle 3200" width="15.93" height="4.012" transform="translate(172.964 170.383)" fill="#0d3f72"/>
          <rect id="Rectangle_3201" data-name="Rectangle 3201" width="11.918" height="4.012" transform="translate(152.225 176.108)" fill="#0d3f72"/>
          <rect id="Rectangle_3202" data-name="Rectangle 3202" width="18.499" height="4.012" transform="translate(167.122 176.108)" fill="#0d3f72"/>
          <rect id="Rectangle_3203" data-name="Rectangle 3203" width="36.657" height="4.012" transform="translate(209.504 164.659)" fill="#0d3f72"/>
          <rect id="Rectangle_3204" data-name="Rectangle 3204" width="15.93" height="4.012" transform="translate(209.504 170.383)" fill="#0d3f72"/>
          <rect id="Rectangle_3205" data-name="Rectangle 3205" width="15.93" height="4.012" transform="translate(230.232 170.383)" fill="#0d3f72"/>
          <rect id="Rectangle_3206" data-name="Rectangle 3206" width="11.918" height="4.012" transform="translate(209.504 176.108)" fill="#0d3f72"/>
          <rect id="Rectangle_3207" data-name="Rectangle 3207" width="18.499" height="4.012" transform="translate(224.402 176.108)" fill="#0d3f72"/>
          <rect id="Rectangle_3208" data-name="Rectangle 3208" width="36.657" height="4.012" transform="translate(266.783 164.659)" fill="#0d3f72"/>
          <rect id="Rectangle_3209" data-name="Rectangle 3209" width="15.93" height="4.012" transform="translate(266.783 170.383)" fill="#0d3f72"/>
          <rect id="Rectangle_3210" data-name="Rectangle 3210" width="15.93" height="4.012" transform="translate(287.511 170.383)" fill="#0d3f72"/>
          <rect id="Rectangle_3211" data-name="Rectangle 3211" width="11.918" height="4.012" transform="translate(266.783 176.108)" fill="#0d3f72"/>
          <rect id="Rectangle_3212" data-name="Rectangle 3212" width="18.499" height="4.012" transform="translate(281.669 176.108)" fill="#0d3f72"/>
          <rect id="Rectangle_3213" data-name="Rectangle 3213" width="85.561" height="7.449" transform="translate(201.95 195.58)" fill="#0d3f72"/>
          <rect id="Rectangle_3214" data-name="Rectangle 3214" width="34.37" height="3.719" transform="translate(201.95 210.759)" fill="#fff"/>
          <rect id="Rectangle_3215" data-name="Rectangle 3215" width="61.854" height="3.719" transform="translate(249.493 210.759)" fill="#fff"/>
          <rect id="Rectangle_3216" data-name="Rectangle 3216" width="63.004" height="3.719" transform="translate(201.95 217.633)" fill="#fff"/>
          <rect id="Rectangle_3217" data-name="Rectangle 3217" width="38.605" height="3.719" transform="translate(272.742 217.633)" fill="#fff"/>
          <rect id="Rectangle_3218" data-name="Rectangle 3218" width="20.329" height="3.719" transform="translate(201.95 224.507)" fill="#fff"/>
          <rect id="Rectangle_3219" data-name="Rectangle 3219" width="83.508" height="3.719" transform="translate(227.839 224.507)" fill="#fff"/>
          <rect id="Rectangle_3220" data-name="Rectangle 3220" width="15.519" height="3.719" transform="translate(201.95 231.381)" fill="#fff"/>
          <rect id="Rectangle_3221" data-name="Rectangle 3221" width="52.118" height="3.719" transform="translate(222.396 231.381)" fill="#fff"/>
          <rect id="Rectangle_3222" data-name="Rectangle 3222" width="30.241" height="3.719" transform="translate(280.355 231.381)" fill="#fff"/>
          <rect id="Rectangle_3223" data-name="Rectangle 3223" width="20.446" height="3.719" transform="translate(201.95 238.255)" fill="#fff"/>
          <rect id="Rectangle_3224" data-name="Rectangle 3224" width="84.482" height="3.719" transform="translate(226.865 238.255)" fill="#fff"/>
          <rect id="Rectangle_3225" data-name="Rectangle 3225" width="12.024" height="3.719" transform="translate(201.95 245.129)" fill="#fff"/>
          <rect id="Rectangle_3226" data-name="Rectangle 3226" width="52.118" height="3.719" transform="translate(216.836 245.129)" fill="#fff"/>
          <rect id="Rectangle_3227" data-name="Rectangle 3227" width="38.605" height="3.719" transform="translate(272.742 245.129)" fill="#fff"/>
          <rect id="Rectangle_3228" data-name="Rectangle 3228" width="19.472" height="3.719" transform="translate(201.95 252.003)" fill="#fff"/>
          <rect id="Rectangle_3229" data-name="Rectangle 3229" width="28.728" height="4.293" transform="translate(226.208 252.003)" fill="#fff"/>
          <rect id="Rectangle_3230" data-name="Rectangle 3230" width="39.238" height="3.719" transform="translate(259.229 252.003)" fill="#fff"/>
          <rect id="Rectangle_3231" data-name="Rectangle 3231" width="208.753" height="41.244" transform="translate(128.178 276.344)" fill="#86cccc"/>
          <rect id="Rectangle_3232" data-name="Rectangle 3232" width="113.691" height="6.44" transform="translate(134.758 281.352)" fill="#0d3f72"/>
          <rect id="Rectangle_3233" data-name="Rectangle 3233" width="43.132" height="3.719" transform="translate(134.758 292.813)" fill="#fff"/>
          <rect id="Rectangle_3234" data-name="Rectangle 3234" width="69.127" height="3.719" transform="translate(175.029 292.813)" fill="#fff"/>
          <rect id="Rectangle_3235" data-name="Rectangle 3235" width="34.37" height="3.719" transform="translate(249.317 292.813)" fill="#fff"/>
          <rect id="Rectangle_3236" data-name="Rectangle 3236" width="42.452" height="3.719" transform="translate(287.511 292.813)" fill="#fff"/>
          <rect id="Rectangle_3237" data-name="Rectangle 3237" width="43.132" height="3.719" transform="translate(134.758 300.825)" fill="#fff"/>
          <rect id="Rectangle_3238" data-name="Rectangle 3238" width="61.854" height="3.719" transform="translate(182.301 300.825)" fill="#fff"/>
          <rect id="Rectangle_3239" data-name="Rectangle 3239" width="55.848" height="3.719" transform="translate(238.032 300.825)" fill="#fff"/>
          <rect id="Rectangle_3240" data-name="Rectangle 3240" width="31.496" height="3.719" transform="translate(298.455 300.825)" fill="#fff"/>
          <rect id="Rectangle_3241" data-name="Rectangle 3241" width="43.132" height="3.719" transform="translate(134.758 308.848)" fill="#fff"/>
          <rect id="Rectangle_3242" data-name="Rectangle 3242" width="61.854" height="3.719" transform="translate(171.592 308.848)" fill="#fff"/>
          <rect id="Rectangle_3243" data-name="Rectangle 3243" width="31.555" height="4.153" transform="translate(238.032 308.414)" fill="#fff"/>
          <rect id="Rectangle_3244" data-name="Rectangle 3244" width="55.449" height="3.719" transform="translate(274.514 308.848)" fill="#fff"/>
          <g id="Group_1915" data-name="Group 1915" transform="translate(82.863)">
            <rect id="Rectangle_3245" data-name="Rectangle 3245" width="146.207" height="14.44" fill="#f6ba04"/>
            <rect id="Rectangle_3246" data-name="Rectangle 3246" width="146.207" height="7.214" fill="#f9c543"/>
            <path id="Path_43092" data-name="Path 43092" d="M195.744,0,211.65,7.214,195.744,14.44l-3.026-1.795,2.663-2.311-2.663-2.311,3.015-1.959-3.2-1.243L195.2,2.944l-2.487-1.677Z" transform="translate(-49.537)" fill="#fff"/>
            <path id="Path_43093" data-name="Path 43093" d="M209.716,6.551,203.71,9.285V3.83Z" transform="translate(-47.603 0.663)" fill="#4a5259"/>
          </g>
          <path id="Path_43094" data-name="Path 43094" d="M141.664,63.052l-1.114-1.537L217.079,5.527a.957.957,0,0,1,1.22.082l45.455,43.672-1.314,1.372L217.56,7.533Z" transform="translate(24.332 0.925)" fill="#4a5259"/>
          <g id="Group_1916" data-name="Group 1916" transform="translate(216.613 67.731)">
            <path id="Path_43095" data-name="Path 43095" d="M290.859,74.807h-.95a.469.469,0,0,1,0-.938h.469V73.4a.469.469,0,1,1,.938,0v.95a.471.471,0,0,1-.469.469Z" transform="translate(-166.518 -55.112)" fill="#e7edf2"/>
            <path id="Path_43096" data-name="Path 43096" d="M301.233,74.668H299.3a.469.469,0,0,1,0-.938h1.936a.469.469,0,0,1,0,.938Zm-7.742,0h-1.936a.469.469,0,0,1,0-.938h1.936a.469.469,0,0,1,0,.938Zm-7.742,0h-1.936a.469.469,0,0,1,0-.938h1.936a.469.469,0,0,1,0,.938Zm-7.742,0h-1.935a.469.469,0,0,1,0-.938h1.935a.469.469,0,0,1,0,.938Zm-7.742,0H268.33a.469.469,0,0,1,0-.938h1.935a.469.469,0,0,1,0,.938Zm-7.742,0h-1.935a.469.469,0,0,1,0-.938h1.935a.469.469,0,0,1,0,.938Zm-7.742,0h-1.935a.469.469,0,0,1,0-.938h1.935a.469.469,0,0,1,0,.938Zm-7.742,0H245.1a.469.469,0,0,1,0-.938h1.936a.469.469,0,0,1,0,.938Zm-7.742,0h-1.936a.469.469,0,0,1,0-.938H239.3a.469.469,0,0,1,0,.938Zm-7.742,0h-1.936a.469.469,0,0,1,0-.938h1.936a.469.469,0,0,1,0,.938Zm-7.742,0h-1.935a.469.469,0,0,1,0-.938h1.935a.469.469,0,0,1,0,.938Zm-7.742,0h-1.936a.469.469,0,0,1,0-.938h1.936a.469.469,0,0,1,0,.938Zm-7.742,0h-1.936a.469.469,0,0,1,0-.938h1.936a.469.469,0,0,1,0,.938Zm-7.742,0h-1.936a.469.469,0,0,1,0-.938h1.936a.469.469,0,0,1,0,.938Zm-7.742,0h-1.936a.469.469,0,0,1,0-.938h1.936a.469.469,0,0,1,0,.938Z" transform="translate(-183.648 -54.973)" fill="#e7edf2"/>
            <path id="Path_43097" data-name="Path 43097" d="M186.069,74.809h-.95a.471.471,0,0,1-.469-.469v-.95a.469.469,0,1,1,.938,0v.469h.469a.469.469,0,0,1,0,.938Z" transform="translate(-184.65 -55.113)" fill="#e7edf2"/>
            <path id="Path_43098" data-name="Path 43098" d="M185.119,71.068a.471.471,0,0,1-.469-.469V69.062a.469.469,0,1,1,.938,0V70.6A.471.471,0,0,1,185.119,71.068Zm0-6.123a.471.471,0,0,1-.469-.469V62.939a.469.469,0,1,1,.938,0v1.537A.471.471,0,0,1,185.119,64.945Z" transform="translate(-184.65 -56.922)" fill="#e7edf2"/>
            <path id="Path_43099" data-name="Path 43099" d="M185.119,59.629a.471.471,0,0,1-.469-.469v-.95a.471.471,0,0,1,.469-.469h.95a.469.469,0,0,1,0,.938H185.6v.469a.471.471,0,0,1-.469.469Z" transform="translate(-184.65 -57.74)" fill="#e7edf2"/>
            <path id="Path_43100" data-name="Path 43100" d="M301.233,58.688H299.3a.469.469,0,0,1,0-.938h1.936a.469.469,0,0,1,0,.938Zm-7.742,0h-1.936a.469.469,0,0,1,0-.938h1.936a.469.469,0,0,1,0,.938Zm-7.742,0h-1.936a.469.469,0,0,1,0-.938h1.936a.469.469,0,0,1,0,.938Zm-7.742,0h-1.935a.469.469,0,0,1,0-.938h1.935a.469.469,0,0,1,0,.938Zm-7.742,0H268.33a.469.469,0,0,1,0-.938h1.935a.469.469,0,0,1,0,.938Zm-7.742,0h-1.935a.469.469,0,0,1,0-.938h1.935a.469.469,0,0,1,0,.938Zm-7.742,0h-1.935a.469.469,0,0,1,0-.938h1.935a.469.469,0,0,1,0,.938Zm-7.742,0H245.1a.469.469,0,0,1,0-.938h1.936a.469.469,0,0,1,0,.938Zm-7.742,0h-1.936a.469.469,0,0,1,0-.938H239.3a.469.469,0,0,1,0,.938Zm-7.742,0h-1.936a.469.469,0,0,1,0-.938h1.936a.469.469,0,0,1,0,.938Zm-7.742,0h-1.935a.469.469,0,0,1,0-.938h1.935a.469.469,0,0,1,0,.938Zm-7.742,0h-1.936a.469.469,0,0,1,0-.938h1.936a.469.469,0,0,1,0,.938Zm-7.742,0h-1.936a.469.469,0,0,1,0-.938h1.936a.469.469,0,0,1,0,.938Zm-7.742,0h-1.936a.469.469,0,0,1,0-.938h1.936a.469.469,0,0,1,0,.938Zm-7.742,0h-1.936a.469.469,0,0,1,0-.938h1.936a.469.469,0,0,1,0,.938Z" transform="translate(-183.648 -57.738)" fill="#e7edf2"/>
            <path id="Path_43101" data-name="Path 43101" d="M290.858,59.627a.471.471,0,0,1-.469-.469v-.469h-.469a.469.469,0,0,1,0-.938h.95a.471.471,0,0,1,.469.469v.95a.471.471,0,0,1-.469.469Z" transform="translate(-166.516 -57.738)" fill="#e7edf2"/>
            <path id="Path_43102" data-name="Path 43102" d="M290.719,71.068a.471.471,0,0,1-.469-.469V69.062a.469.469,0,1,1,.938,0V70.6A.471.471,0,0,1,290.719,71.068Zm0-6.123a.471.471,0,0,1-.469-.469V62.939a.469.469,0,1,1,.938,0v1.537A.471.471,0,0,1,290.719,64.945Z" transform="translate(-166.378 -56.922)" fill="#e7edf2"/>
          </g>
          <g id="Group_1917" data-name="Group 1917" transform="translate(163.919 48.709)">
            <rect id="Rectangle_3247" data-name="Rectangle 3247" width="126.207" height="21.994" transform="translate(0 13.214) rotate(-6.01)" fill="#86cccc"/>
            <rect id="Rectangle_3248" data-name="Rectangle 3248" width="101.796" height="16.997" transform="translate(3.902 15.329) rotate(-6.01)" fill="#fff"/>
            <path id="Path_43103" data-name="Path 43103" d="M239.174,46.319a4.846,4.846,0,1,0,.223,7.331l8.141,6.592,1-1.232L240.371,52.4a4.843,4.843,0,0,0-1.208-6.088Zm.023,6.252a3.953,3.953,0,1,1-.587-5.56A3.951,3.951,0,0,1,239.2,52.571Z" transform="translate(-123.887 -40.881)" fill="#efedee"/>
            <rect id="Rectangle_3249" data-name="Rectangle 3249" width="1.49" height="13.384" transform="translate(6.516 16.793) rotate(-6.01)" fill="#c5cfd1"/>
          </g>
          <g id="Group_1926" data-name="Group 1926" transform="translate(273.786 219.123)">
            <path id="Path_43104" data-name="Path 43104" d="M407.6,361.961H401.91a.95.95,0,1,1,0-1.9H407.6a.95.95,0,1,1,0,1.9Zm-11.39,0H390.52a.95.95,0,1,1,0-1.9h5.689a.95.95,0,1,1,0,1.9Zm-11.39,0H379.13a.95.95,0,1,1,0-1.9h5.689a.95.95,0,0,1,0,1.9Zm-11.39,0h-5.689a.95.95,0,0,1,0-1.9h5.689a.95.95,0,1,1,0,1.9Zm-11.39,0h-5.689a.95.95,0,0,1,0-1.9h5.689a.95.95,0,1,1,0,1.9Zm-11.39,0h-5.689a.95.95,0,1,1,0-1.9h5.689a.95.95,0,1,1,0,1.9Zm-11.39,0h-5.689a.95.95,0,1,1,0-1.9h5.689a.95.95,0,1,1,0,1.9Zm-11.39,0h-5.689a.95.95,0,1,1,0-1.9h5.689a.95.95,0,0,1,0,1.9Zm-11.39,0h-5.689a.95.95,0,0,1,0-1.9h5.689a.95.95,0,1,1,0,1.9Zm-11.39,0H299.4a.95.95,0,0,1,0-1.9h5.689a.95.95,0,1,1,0,1.9Zm-11.39,0h-5.689a.95.95,0,1,1,0-1.9H293.7a.95.95,0,1,1,0,1.9Zm-11.39,0h-5.689a.95.95,0,1,1,0-1.9h5.689a.95.95,0,1,1,0,1.9Zm-11.39,0h-5.689a.95.95,0,1,1,0-1.9h5.689a.95.95,0,0,1,0,1.9Zm-11.39,0h-5.689a.95.95,0,1,1,0-1.9h5.689a.95.95,0,0,1,0,1.9Zm-11.39,0h-5.689a.95.95,0,1,1,0-1.9h5.689a.95.95,0,1,1,0,1.9Zm-7.977-3.4a.946.946,0,0,1-.95-.95V351.92a.95.95,0,1,1,1.9,0v5.689A.946.946,0,0,1,240.16,358.559Zm167.392-.059a.946.946,0,0,1-.95-.95v-5.689a.95.95,0,0,1,1.9,0v5.689A.946.946,0,0,1,407.552,358.5ZM240.16,347.169a.946.946,0,0,1-.95-.95V340.53a.95.95,0,0,1,1.9,0v5.689A.946.946,0,0,1,240.16,347.169Zm167.392-.059a.946.946,0,0,1-.95-.95v-5.689a.95.95,0,0,1,1.9,0v5.689A.946.946,0,0,1,407.552,347.111ZM240.16,335.779a.946.946,0,0,1-.95-.95V329.14a.95.95,0,1,1,1.9,0v5.689A.946.946,0,0,1,240.16,335.779Zm167.392-.059a.946.946,0,0,1-.95-.95v-5.689a.95.95,0,1,1,1.9,0v5.689A.946.946,0,0,1,407.552,335.72ZM240.16,324.389a.946.946,0,0,1-.95-.95v-5.689a.95.95,0,1,1,1.9,0v5.689A.946.946,0,0,1,240.16,324.389Zm167.392-.059a.946.946,0,0,1-.95-.95v-5.689a.95.95,0,0,1,1.9,0v5.689A.946.946,0,0,1,407.552,324.33ZM240.16,313a.946.946,0,0,1-.95-.95v-5.689a.95.95,0,0,1,1.9,0v5.689A.946.946,0,0,1,240.16,313Zm167.392-.059a.946.946,0,0,1-.95-.95V306.3a.95.95,0,0,1,1.9,0v5.689A.946.946,0,0,1,407.552,312.94ZM240.16,301.608a.946.946,0,0,1-.95-.95v-5.689a.95.95,0,0,1,1.9,0v5.689A.946.946,0,0,1,240.16,301.608Zm167.392-.059a.946.946,0,0,1-.95-.95V294.91a.95.95,0,1,1,1.9,0V300.6A.946.946,0,0,1,407.552,301.55ZM240.16,290.218a.946.946,0,0,1-.95-.95v-5.689a.95.95,0,0,1,1.9,0v5.689A.946.946,0,0,1,240.16,290.218Zm167.392-.059a.946.946,0,0,1-.95-.95V283.52a.95.95,0,0,1,1.9,0v5.689A.946.946,0,0,1,407.552,290.16ZM240.16,278.828a.946.946,0,0,1-.95-.95v-5.689a.95.95,0,1,1,1.9,0v5.689A.946.946,0,0,1,240.16,278.828Zm167.392-.059a.946.946,0,0,1-.95-.95V272.13a.95.95,0,0,1,1.9,0v5.689A.946.946,0,0,1,407.552,278.77ZM240.16,267.438a.946.946,0,0,1-.95-.95V260.8a.95.95,0,0,1,1.9,0v5.689A.946.946,0,0,1,240.16,267.438Zm167.392-.059a.946.946,0,0,1-.95-.95V260.74a.95.95,0,0,1,1.9,0v5.689A.946.946,0,0,1,407.552,267.379ZM240.16,256.048a.946.946,0,0,1-.95-.95v-5.689a.95.95,0,0,1,1.9,0V255.1A.946.946,0,0,1,240.16,256.048Zm167.392-.059a.946.946,0,0,1-.95-.95V249.35a.95.95,0,0,1,1.9,0v5.689A.946.946,0,0,1,407.552,255.989ZM240.16,244.658a.946.946,0,0,1-.95-.95v-5.689a.95.95,0,1,1,1.9,0v5.689A.946.946,0,0,1,240.16,244.658Zm167.392-.059a.946.946,0,0,1-.95-.95V237.96a.95.95,0,1,1,1.9,0v5.689A.946.946,0,0,1,407.552,244.6ZM240.16,233.267a.946.946,0,0,1-.95-.95v-5.689a.95.95,0,0,1,1.9,0v5.689A.946.946,0,0,1,240.16,233.267Zm167.392-.059a.946.946,0,0,1-.95-.95v-5.689a.95.95,0,1,1,1.9,0v5.689A.946.946,0,0,1,407.552,233.209ZM240.16,221.877a.946.946,0,0,1-.95-.95v-5.689a.95.95,0,0,1,1.9,0v5.689A.946.946,0,0,1,240.16,221.877Zm167.392-.059a.946.946,0,0,1-.95-.95v-5.689a.95.95,0,0,1,1.9,0v5.689A.946.946,0,0,1,407.552,221.819ZM240.16,210.487a.946.946,0,0,1-.95-.95v-5.689a.95.95,0,1,1,1.9,0v5.689A.946.946,0,0,1,240.16,210.487Zm167.392-.059a.946.946,0,0,1-.95-.95v-5.689a.95.95,0,1,1,1.9,0v5.689A.946.946,0,0,1,407.552,210.428ZM240.16,199.1a.946.946,0,0,1-.95-.95v-4.575a.946.946,0,0,1,.95-.95h1.114a.95.95,0,1,1,0,1.9h-.164v3.625A.946.946,0,0,1,240.16,199.1Zm167.392-.059a.946.946,0,0,1-.95-.95V194.51h-.223a.95.95,0,1,1,0-1.9h1.173a.946.946,0,0,1,.95.95v4.516a.946.946,0,0,1-.95.95Zm-6.862-4.516H395a.95.95,0,1,1,0-1.9h5.689a.95.95,0,1,1,0,1.9Zm-11.39,0h-5.689a.95.95,0,1,1,0-1.9H389.3a.95.95,0,1,1,0,1.9Zm-11.39,0h-5.689a.95.95,0,1,1,0-1.9h5.689a.95.95,0,0,1,0,1.9Zm-11.39,0H360.83a.95.95,0,0,1,0-1.9h5.689a.95.95,0,1,1,0,1.9Zm-11.39,0H349.44a.95.95,0,0,1,0-1.9h5.689a.95.95,0,1,1,0,1.9Zm-11.39,0H338.05a.95.95,0,1,1,0-1.9h5.689a.95.95,0,1,1,0,1.9Zm-11.39,0H326.66a.95.95,0,1,1,0-1.9h5.689a.95.95,0,1,1,0,1.9Zm-11.39,0H315.27a.95.95,0,1,1,0-1.9h5.689a.95.95,0,0,1,0,1.9Zm-11.39,0H303.88a.95.95,0,0,1,0-1.9h5.689a.95.95,0,1,1,0,1.9Zm-11.39,0h-5.689a.95.95,0,0,1,0-1.9h5.689a.95.95,0,1,1,0,1.9Zm-11.39,0H281.1a.95.95,0,1,1,0-1.9h5.689a.95.95,0,1,1,0,1.9Zm-11.39,0h-5.689a.95.95,0,1,1,0-1.9H275.4a.95.95,0,1,1,0,1.9Zm-11.39,0h-5.689a.95.95,0,1,1,0-1.9h5.689a.95.95,0,0,1,0,1.9Zm-11.39,0h-5.689a.95.95,0,1,1,0-1.9h5.689a.95.95,0,1,1,0,1.9Z" transform="translate(-232.383 -185.795)" fill="#0d3f72"/>
            <g id="Group_1918" data-name="Group 1918" transform="translate(167.38 83.825)">
              <rect id="Rectangle_3250" data-name="Rectangle 3250" width="13.748" height="13.748" transform="translate(0.962 0.95)" fill="#fdfeff"/>
              <path id="Path_43105" data-name="Path 43105" d="M390.778,273.908H377.03a.946.946,0,0,1-.95-.95V259.21a.946.946,0,0,1,.95-.95h13.748a.946.946,0,0,1,.95.95v13.748A.946.946,0,0,1,390.778,273.908Zm-12.8-1.9h11.848V260.16H377.98Z" transform="translate(-376.08 -258.26)" fill="#0d3f72"/>
            </g>
            <g id="Group_1919" data-name="Group 1919" transform="translate(0 83.825)">
              <rect id="Rectangle_3251" data-name="Rectangle 3251" width="13.748" height="13.748" transform="translate(0.95 0.95)" fill="#fdfeff"/>
              <path id="Path_43106" data-name="Path 43106" d="M248.088,273.908H234.34a.946.946,0,0,1-.95-.95V259.21a.946.946,0,0,1,.95-.95h13.748a.946.946,0,0,1,.95.95v13.748A.946.946,0,0,1,248.088,273.908Zm-12.8-1.9h11.848V260.16H235.29Z" transform="translate(-233.39 -258.26)" fill="#0d3f72"/>
            </g>
            <g id="Group_1920" data-name="Group 1920" transform="translate(167.38)">
              <rect id="Rectangle_3252" data-name="Rectangle 3252" width="13.748" height="13.748" transform="translate(0.962 0.962)" fill="#fdfeff"/>
              <path id="Path_43107" data-name="Path 43107" d="M390.778,202.448H377.03a.946.946,0,0,1-.95-.95V187.75a.946.946,0,0,1,.95-.95h13.748a.946.946,0,0,1,.95.95V201.5A.946.946,0,0,1,390.778,202.448Zm-12.8-1.9h11.848V188.7H377.98Z" transform="translate(-376.08 -186.8)" fill="#0d3f72"/>
            </g>
            <g id="Group_1921" data-name="Group 1921">
              <rect id="Rectangle_3253" data-name="Rectangle 3253" width="13.748" height="13.748" transform="translate(0.95 0.962)" fill="#fdfeff"/>
              <path id="Path_43108" data-name="Path 43108" d="M248.088,202.448H234.34a.946.946,0,0,1-.95-.95V187.75a.946.946,0,0,1,.95-.95h13.748a.946.946,0,0,1,.95.95V201.5A.946.946,0,0,1,248.088,202.448Zm-12.8-1.9h11.848V188.7H235.29Z" transform="translate(-233.39 -186.8)" fill="#0d3f72"/>
            </g>
            <g id="Group_1922" data-name="Group 1922" transform="translate(167.38 167.392)">
              <rect id="Rectangle_3254" data-name="Rectangle 3254" width="13.748" height="13.748" transform="translate(0.962 0.95)" fill="#fdfeff"/>
              <path id="Path_43109" data-name="Path 43109" d="M390.778,345.148H377.03a.946.946,0,0,1-.95-.95V330.45a.946.946,0,0,1,.95-.95h13.748a.946.946,0,0,1,.95.95V344.2A.946.946,0,0,1,390.778,345.148Zm-12.8-1.9h11.848V331.4H377.98Z" transform="translate(-376.08 -329.5)" fill="#0d3f72"/>
            </g>
            <g id="Group_1923" data-name="Group 1923" transform="translate(0 167.392)">
              <rect id="Rectangle_3255" data-name="Rectangle 3255" width="13.748" height="13.748" transform="translate(0.95 0.95)" fill="#fdfeff"/>
              <path id="Path_43110" data-name="Path 43110" d="M248.088,345.148H234.34a.946.946,0,0,1-.95-.95V330.45a.946.946,0,0,1,.95-.95h13.748a.946.946,0,0,1,.95.95V344.2A.946.946,0,0,1,248.088,345.148Zm-12.8-1.9h11.848V331.4H235.29Z" transform="translate(-233.39 -329.5)" fill="#0d3f72"/>
            </g>
            <g id="Group_1924" data-name="Group 1924" transform="translate(83.696 167.521)">
              <rect id="Rectangle_3256" data-name="Rectangle 3256" width="13.748" height="13.748" transform="translate(14.698 0.95) rotate(90)" fill="#fdfeff"/>
              <path id="Path_43111" data-name="Path 43111" d="M319.438,345.258H305.69a.946.946,0,0,1-.95-.95V330.56a.946.946,0,0,1,.95-.95h13.748a.946.946,0,0,1,.95.95v13.748A.946.946,0,0,1,319.438,345.258Zm-12.8-1.9h11.848V331.51H306.64Z" transform="translate(-304.74 -329.61)" fill="#0d3f72"/>
            </g>
            <g id="Group_1925" data-name="Group 1925" transform="translate(83.696 0.129)">
              <rect id="Rectangle_3257" data-name="Rectangle 3257" width="13.748" height="13.748" transform="translate(14.698 0.962) rotate(90)" fill="#fdfeff"/>
              <path id="Path_43112" data-name="Path 43112" d="M319.438,202.558H305.69a.946.946,0,0,1-.95-.95V187.86a.946.946,0,0,1,.95-.95h13.748a.946.946,0,0,1,.95.95v13.748A.946.946,0,0,1,319.438,202.558Zm-12.8-1.9h11.848V188.81H306.64Z" transform="translate(-304.74 -186.91)" fill="#0d3f72"/>
            </g>
          </g>
          <path id="Path_43113" data-name="Path 43113" d="M272.677,206.206,238.94,192.88l14.98,32.083,6.252-6.252,11.918,11.918,6.252-6.252-11.918-11.918Z" transform="translate(41.357 33.375)" fill="#0d3f72"/>
          <g id="Group_1927" data-name="Group 1927" transform="translate(338.829 47.496)">
            <path id="Path_43114" data-name="Path 43114" d="M361.193,99.706c7.824,7.062,14.722,14.464,18.569,21.3,3.507,6.217-3.765,13.5-9.994,9.994-6.827-3.859-14.241-10.745-21.3-18.569-10.78-9.771-22.123-24.247-34.206-41.537l1.947-1.947,1.5-1.5,1.947-1.947c17.291,12.082,31.766,23.437,41.525,34.206Z" transform="translate(-284.439 -36.162)" fill="#0d3f72"/>
            <path id="Path_43115" data-name="Path 43115" d="M321.163,67,308.541,56.78,305.62,59.7l10.147,12.692Z" transform="translate(-285.934 -37.671)" fill="#f5b400"/>
            <path id="Path_43116" data-name="Path 43116" d="M311.445,59.6s.774-12.141-7.531-12.458-14.076-.68-14.569-6.651c0,0-5.419,22.323,19.179,22.018l2.921-2.921Z" transform="translate(-288.838 -40.49)" fill="#eb5a49"/>
            <path id="Path_43117" data-name="Path 43117" d="M304.266,47.175a13.66,13.66,0,0,0-7.859,3.906,9.548,9.548,0,0,0-2.733,6.944c-7.015-6.44-4.328-17.525-4.328-17.525.493,5.959,6.264,6.334,14.569,6.651C304.031,47.151,304.148,47.175,304.266,47.175Z" transform="translate(-288.838 -40.488)" fill="#eb5a49"/>
          </g>
          <g id="Group_1928" data-name="Group 1928" transform="translate(11.109 274.53)">
            <rect id="Rectangle_3258" data-name="Rectangle 3258" width="61.162" height="5.466" transform="translate(88.312 46.11) rotate(-33.12)" fill="#0d3f72"/>
            <rect id="Rectangle_3259" data-name="Rectangle 3259" width="19.132" height="19.132" transform="translate(82.868 64.336) rotate(-123.12)" fill="#fe9122"/>
            <rect id="Rectangle_3260" data-name="Rectangle 3260" width="92.001" height="27.332" rx="10.43" transform="translate(0 90.652) rotate(-33.12)" fill="#f5b400"/>
            <path id="Path_43118" data-name="Path 43118" d="M2.452,0h59.6a2.451,2.451,0,0,1,2.452,2.452v.575a2.451,2.451,0,0,1-2.452,2.452H2.452A2.451,2.451,0,0,1,0,3.026V2.452A2.451,2.451,0,0,1,2.452,0Z" transform="translate(23.539 101.415) rotate(-33.12)" fill="#fe9122"/>
            <path id="Path_43119" data-name="Path 43119" d="M2.452,0h59.6a2.458,2.458,0,0,1,2.452,2.452v.575a2.451,2.451,0,0,1-2.452,2.452H2.452A2.451,2.451,0,0,1,0,3.026V2.452A2.451,2.451,0,0,1,2.452,0Z" transform="translate(17.533 92.278) rotate(-33.12)" fill="#fe9122"/>
            <path id="Path_43120" data-name="Path 43120" d="M2.452,0h59.6a2.451,2.451,0,0,1,2.452,2.452v.575a2.451,2.451,0,0,1-2.452,2.452H2.452A2.451,2.451,0,0,1,0,3.026V2.452A2.451,2.451,0,0,1,2.452,0Z" transform="translate(11.958 83.669) rotate(-33.12)" fill="#fe9122"/>
            <path id="Path_43121" data-name="Path 43121" d="M124.991,251.939l.7,1.079a5.522,5.522,0,0,0,7.625,1.607l15.766-10.276-6.721-10.3L126.6,244.326a5.522,5.522,0,0,0-1.607,7.625Z" transform="translate(10.376 -234.031)" fill="#0d3f72"/>
            <rect id="Rectangle_3261" data-name="Rectangle 3261" width="6.534" height="12.305" transform="translate(147.26 3.57) rotate(-33.12)" fill="#f5b400"/>
          </g>
        </g>
      </g>
    </g>
    <g id="Group_1559" data-name="Group 1559" transform="translate(-49 -20.002)">
      <g id="Group_1557" data-name="Group 1557" transform="translate(1079 173.447)">
        <g id="b-2" data-name="b">
          <g id="c-2" data-name="c">
            <rect id="Rectangle_2836" data-name="Rectangle 2836" width="48.831" height="0.369" transform="translate(771.303 506.504)" fill="#ebebeb"/>
            <rect id="Rectangle_2837" data-name="Rectangle 2837" width="12.812" height="0.369" transform="translate(578.473 510.514)" fill="#ebebeb"/>
            <rect id="Rectangle_2838" data-name="Rectangle 2838" width="28.293" height="0.369" transform="translate(699.618 492.822)" fill="#ebebeb"/>
            <rect id="Rectangle_2839" data-name="Rectangle 2839" width="63.678" height="0.369" transform="translate(77.345 495.299)" fill="#ebebeb"/>
            <rect id="Rectangle_2840" data-name="Rectangle 2840" width="9.333" height="0.369" transform="translate(187.374 495.299)" fill="#ebebeb"/>
            <rect id="Rectangle_2841" data-name="Rectangle 2841" width="138.119" height="0.369" transform="translate(244.575 501.521)" fill="#ebebeb"/>
            <g id="Group_1466" data-name="Group 1466" transform="translate(58.37)">
              <path id="Path_31645" data-name="Path 31645" d="M209.315,417.025H44.465c-2.689,0-4.875-3.774-4.875-8.419V8.419C39.59,3.774,41.775,0,44.465,0h164.85c2.689,0,4.875,3.774,4.875,8.419V408.606C214.189,413.25,212,417.025,209.315,417.025ZM44.465.369c-2.57,0-4.661,3.612-4.661,8.05V408.606c0,4.438,2.092,8.05,4.661,8.05h164.85c2.57,0,4.661-3.612,4.661-8.05V8.419c0-4.438-2.092-8.05-4.661-8.05Z" transform="translate(-39.59)" fill="#ebebeb"/>
            </g>
            <g id="Group_1476" data-name="Group 1476" transform="translate(75.26 24.645)">
              <g id="Group_1472" data-name="Group 1472" transform="translate(468.775 2.858)">
                <circle id="Ellipse_357" data-name="Ellipse 357" cx="28.824" cy="28.824" r="28.824" transform="translate(0.56 0.649)" fill="#f0f0f0"/>
                <g id="Group_1471" data-name="Group 1471">
                  <path id="Path_31647" data-name="Path 31647" d="M439.633,293.605a29.473,29.473,0,0,1,0-58.945v1.3a28.175,28.175,0,0,0,0,56.35Z" transform="translate(-410.16 -234.66)" fill="#fff"/>
                  <g id="Group_1469" data-name="Group 1469" transform="translate(14.405)">
                    <path id="Path_31648" data-name="Path 31648" d="M430.15,293.605v-1.3a28.175,28.175,0,0,0,0-56.35v-1.3a29.473,29.473,0,0,1,0,58.945Z" transform="translate(-415.082 -234.66)" fill="#fff"/>
                    <g id="Group_1467" data-name="Group 1467" transform="translate(14.714 0.103)">
                      <path id="Path_31649" data-name="Path 31649" d="M445.317,264.1h-1.3c0-9.554-4.851-22.337-14.11-28.278l.693-1.091C440.26,240.922,445.317,254.192,445.317,264.1Z" transform="translate(-429.91 -234.73)" fill="#fff"/>
                      <path id="Path_31650" data-name="Path 31650" d="M430.613,283.419l-.693-1.091c9.259-5.942,14.11-18.724,14.11-28.278h1.3c0,9.908-5.057,23.177-14.714,29.369Z" transform="translate(-429.905 -225.565)" fill="#fff"/>
                    </g>
                    <g id="Group_1468" data-name="Group 1468" transform="translate(0 0.103)">
                      <path id="Path_31651" data-name="Path 31651" d="M421.237,264.1h-1.3c0-9.908,5.057-23.177,14.714-29.369l.708,1.091c-9.259,5.942-14.11,18.724-14.11,28.278Z" transform="translate(-419.925 -234.73)" fill="#fff"/>
                      <path id="Path_31652" data-name="Path 31652" d="M434.644,283.419c-9.657-6.192-14.714-19.462-14.714-29.369h1.3c0,9.554,4.851,22.337,14.11,28.278l-.708,1.091Z" transform="translate(-419.93 -225.565)" fill="#fff"/>
                    </g>
                    <rect id="Rectangle_2842" data-name="Rectangle 2842" width="1.297" height="57.648" transform="translate(14.419 0.649)" fill="#fff"/>
                  </g>
                  <g id="Group_1470" data-name="Group 1470" transform="translate(0.663 13.461)">
                    <rect id="Rectangle_2843" data-name="Rectangle 2843" width="48.787" height="1.297" transform="translate(4.408)" fill="#fff"/>
                    <rect id="Rectangle_2844" data-name="Rectangle 2844" width="57.618" height="1.297" transform="translate(0 15.849)" fill="#fff"/>
                    <rect id="Rectangle_2845" data-name="Rectangle 2845" width="47.504" height="1.297" transform="translate(5.057 31.684)" fill="#fff"/>
                  </g>
                </g>
              </g>
              <g id="Group_1475" data-name="Group 1475">
                <g id="Group_1474" data-name="Group 1474" transform="translate(570.043 114.354)">
                  <path id="Path_31656" data-name="Path 31656" d="M447.629,32.506a16.251,16.251,0,0,0-1.371-1.121L447.511,26a20.6,20.6,0,0,0-2.049-1.047l-3.642,4.158a15.825,15.825,0,0,0-3.465-.752l-1.607-5.293a20.028,20.028,0,0,0-2.3.118l-1.076,5.426A16.355,16.355,0,0,0,430,29.69l-4.04-3.789c-.664.383-1.312.8-1.931,1.238l1.769,5.234a16.916,16.916,0,0,0-1.268,1.253A13.812,13.812,0,0,0,423.405,35l-5.381-1.253a20.6,20.6,0,0,0-1.047,2.049l4.158,3.642a16.729,16.729,0,0,0-.752,3.465l-5.293,1.607a20.02,20.02,0,0,0,.118,2.3l5.426,1.076a16.352,16.352,0,0,0,1.076,3.376l-3.789,4.04c.383.663.8,1.312,1.238,1.931l5.234-1.769a16.917,16.917,0,0,0,1.253,1.268,16.261,16.261,0,0,0,1.371,1.121l-1.253,5.381a20.6,20.6,0,0,0,2.049,1.047l3.642-4.158a15.824,15.824,0,0,0,3.465.752l1.607,5.293a20.029,20.029,0,0,0,2.3-.118l1.076-5.426a16.355,16.355,0,0,0,3.376-1.076l4.04,3.789c.663-.383,1.312-.8,1.931-1.238l-1.769-5.234a16.926,16.926,0,0,0,1.268-1.253,16.275,16.275,0,0,0,1.12-1.371l5.381,1.253a20.594,20.594,0,0,0,1.047-2.049L452.141,49.8a15.825,15.825,0,0,0,.752-3.465l5.293-1.607a20.034,20.034,0,0,0-.118-2.3l-5.426-1.076a16.352,16.352,0,0,0-1.076-3.376l3.789-4.04c-.383-.663-.8-1.312-1.238-1.931l-5.234,1.769a16.907,16.907,0,0,0-1.253-1.268ZM443.8,51.1a9.655,9.655,0,1,1-.664-13.638A9.653,9.653,0,0,1,443.8,51.1Z" transform="translate(-415.09 -23.07)" fill="#f0f0f0"/>
                  <path id="Path_31657" data-name="Path 31657" d="M447.629,32.506a16.251,16.251,0,0,0-1.371-1.121L447.511,26a20.6,20.6,0,0,0-2.049-1.047l-3.642,4.158a15.825,15.825,0,0,0-3.465-.752l-1.607-5.293a20.028,20.028,0,0,0-2.3.118l-1.076,5.426A16.355,16.355,0,0,0,430,29.69l-4.04-3.789c-.664.383-1.312.8-1.931,1.238l1.769,5.234a16.916,16.916,0,0,0-1.268,1.253A13.812,13.812,0,0,0,423.405,35l-5.381-1.253a20.6,20.6,0,0,0-1.047,2.049l4.158,3.642a16.729,16.729,0,0,0-.752,3.465l-5.293,1.607a20.02,20.02,0,0,0,.118,2.3l5.426,1.076a16.352,16.352,0,0,0,1.076,3.376l-3.789,4.04c.383.663.8,1.312,1.238,1.931l5.234-1.769a16.917,16.917,0,0,0,1.253,1.268,16.261,16.261,0,0,0,1.371,1.121l-1.253,5.381a20.6,20.6,0,0,0,2.049,1.047l3.642-4.158a15.824,15.824,0,0,0,3.465.752l1.607,5.293a20.029,20.029,0,0,0,2.3-.118l1.076-5.426a16.355,16.355,0,0,0,3.376-1.076l4.04,3.789c.663-.383,1.312-.8,1.931-1.238l-1.769-5.234a16.926,16.926,0,0,0,1.268-1.253,16.275,16.275,0,0,0,1.12-1.371l5.381,1.253a20.594,20.594,0,0,0,1.047-2.049L452.141,49.8a15.825,15.825,0,0,0,.752-3.465l5.293-1.607a20.034,20.034,0,0,0-.118-2.3l-5.426-1.076a16.352,16.352,0,0,0-1.076-3.376l3.789-4.04c-.383-.663-.8-1.312-1.238-1.931l-5.234,1.769a16.907,16.907,0,0,0-1.253-1.268ZM443.8,51.1a9.655,9.655,0,1,1-.664-13.638A9.653,9.653,0,0,1,443.8,51.1Z" transform="translate(-415.09 -23.07)" fill="#f0f0f0" opacity="0.5"/>
                  <path id="Path_43122" data-name="Path 43122" d="M447.629,32.506a16.251,16.251,0,0,0-1.371-1.121L447.511,26a20.6,20.6,0,0,0-2.049-1.047l-3.642,4.158a15.825,15.825,0,0,0-3.465-.752l-1.607-5.293a20.028,20.028,0,0,0-2.3.118l-1.076,5.426A16.355,16.355,0,0,0,430,29.69l-4.04-3.789c-.664.383-1.312.8-1.931,1.238l1.769,5.234a16.916,16.916,0,0,0-1.268,1.253A13.812,13.812,0,0,0,423.405,35l-5.381-1.253a20.6,20.6,0,0,0-1.047,2.049l4.158,3.642a16.729,16.729,0,0,0-.752,3.465l-5.293,1.607a20.02,20.02,0,0,0,.118,2.3l5.426,1.076a16.352,16.352,0,0,0,1.076,3.376l-3.789,4.04c.383.663.8,1.312,1.238,1.931l5.234-1.769a16.917,16.917,0,0,0,1.253,1.268,16.261,16.261,0,0,0,1.371,1.121l-1.253,5.381a20.6,20.6,0,0,0,2.049,1.047l3.642-4.158a15.824,15.824,0,0,0,3.465.752l1.607,5.293a20.029,20.029,0,0,0,2.3-.118l1.076-5.426a16.355,16.355,0,0,0,3.376-1.076l4.04,3.789c.663-.383,1.312-.8,1.931-1.238l-1.769-5.234a16.926,16.926,0,0,0,1.268-1.253,16.275,16.275,0,0,0,1.12-1.371l5.381,1.253a20.594,20.594,0,0,0,1.047-2.049L452.141,49.8a15.825,15.825,0,0,0,.752-3.465l5.293-1.607a20.034,20.034,0,0,0-.118-2.3l-5.426-1.076a16.352,16.352,0,0,0-1.076-3.376l3.789-4.04c-.383-.663-.8-1.312-1.238-1.931l-5.234,1.769a16.907,16.907,0,0,0-1.253-1.268ZM443.8,51.1a9.655,9.655,0,1,1-.664-13.638A9.653,9.653,0,0,1,443.8,51.1Z" transform="translate(-885.09 -44.618)" fill="#f0f0f0" opacity="0.5"/>
                </g>
              </g>
            </g>
          </g>
          <g id="f" transform="translate(385.456 -43.314) rotate(13)">
            <g id="Group_1505" data-name="Group 1505">
              <g id="Group_1477" data-name="Group 1477" transform="translate(0 22.948)">
                <path id="Path_31658" data-name="Path 31658" d="M144.932,88.646l5.648-48.06a.957.957,0,0,0-1.342-.988l-44.02,20.115a.952.952,0,0,0-.162,1.637L143.428,89.3a.965.965,0,0,0,1.519-.664Z" transform="translate(-104.663 -39.511)" fill="#0091ff"/>
                <path id="Path_31659" data-name="Path 31659" d="M144.932,88.646l5.648-48.06a.957.957,0,0,0-1.342-.988l-44.02,20.115a.952.952,0,0,0-.162,1.637L143.428,89.3a.965.965,0,0,0,1.519-.664Z" transform="translate(-104.663 -39.511)"/>
              </g>
              <g id="Group_1492" data-name="Group 1492" transform="translate(2.163 14.732)">
                <g id="Group_1484" data-name="Group 1484" transform="translate(22.813 16.62)">
                  <g id="Group_1478" data-name="Group 1478" transform="translate(0 36.012)">
                    <path id="Path_31660" data-name="Path 31660" d="M121.6,72.781l3.716-3.141,3.362,2.448-1.858,4.5a8.385,8.385,0,0,1-5.22-3.8Z" transform="translate(-121.6 -69.625)" fill="#263238"/>
                    <path id="Path_31661" data-name="Path 31661" d="M127.758,72.078s-.28.678-.428,1.047a8.4,8.4,0,0,1-3.79-2.758l.87-.737,3.362,2.448Z" transform="translate(-120.679 -69.63)" fill="#fff" opacity="0.2"/>
                    <path id="Path_31662" data-name="Path 31662" d="M127.39,73.772l-.354.841a9.63,9.63,0,0,1-4.616-3.362l.693-.59a13.675,13.675,0,0,0,4.262,3.112Z" transform="translate(-121.211 -69.141)" fill="#fff" opacity="0.4"/>
                  </g>
                  <g id="Group_1483" data-name="Group 1483" transform="translate(2.05)">
                    <path id="Path_31663" data-name="Path 31663" d="M122.99,79.6a11.413,11.413,0,0,0,7.093,5.161l20.69-28.4a14.907,14.907,0,0,0,2.684-11.149,14.922,14.922,0,0,0-9.777,5.973l-20.69,28.4Z" transform="translate(-122.99 -45.21)" fill="#0091ff"/>
                    <g id="Group_1479" data-name="Group 1479" transform="translate(1.195 0.015)">
                      <path id="Path_31664" data-name="Path 31664" d="M150.389,56.354S133,80.229,130.893,83.134a13.388,13.388,0,0,1-7.093-5.161c2.109-2.89,19.5-26.78,19.5-26.78a14.9,14.9,0,0,1,9.777-5.972,14.972,14.972,0,0,1-2.684,11.149Z" transform="translate(-123.8 -45.22)" fill="#0091ff"/>
                      <path id="Path_31665" data-name="Path 31665" d="M150.389,56.354S133,80.229,130.893,83.134a13.388,13.388,0,0,1-7.093-5.161c2.109-2.89,19.5-26.78,19.5-26.78a14.9,14.9,0,0,1,9.777-5.972,14.972,14.972,0,0,1-2.684,11.149Z" transform="translate(-123.8 -45.22)" fill="#fff" opacity="0.4"/>
                    </g>
                    <g id="Group_1480" data-name="Group 1480" transform="translate(6.046 0.015)">
                      <path id="Path_31666" data-name="Path 31666" d="M148.827,56.354,134.183,76.469a15.952,15.952,0,0,1-7.093-5.161l14.644-20.115a14.9,14.9,0,0,1,9.777-5.973,14.972,14.972,0,0,1-2.684,11.149Z" transform="translate(-127.09 -45.22)" fill="#0091ff"/>
                      <path id="Path_31667" data-name="Path 31667" d="M148.827,56.354,134.183,76.469a15.952,15.952,0,0,1-7.093-5.161l14.644-20.115a14.9,14.9,0,0,1,9.777-5.973,14.972,14.972,0,0,1-2.684,11.149Z" transform="translate(-127.09 -45.22)" fill="#fff" opacity="0.6"/>
                    </g>
                    <g id="Group_1481" data-name="Group 1481" transform="translate(13.022 0.015)">
                      <path id="Path_31668" data-name="Path 31668" d="M146.582,56.354s-3.569,4.9-7.668,10.529a15.952,15.952,0,0,1-7.093-5.161c4.1-5.633,7.668-10.529,7.668-10.529a14.9,14.9,0,0,1,9.777-5.972,14.972,14.972,0,0,1-2.684,11.149Z" transform="translate(-131.82 -45.22)" fill="#0091ff"/>
                      <path id="Path_31669" data-name="Path 31669" d="M146.582,56.354s-3.569,4.9-7.668,10.529a15.952,15.952,0,0,1-7.093-5.161c4.1-5.633,7.668-10.529,7.668-10.529a14.9,14.9,0,0,1,9.777-5.972,14.972,14.972,0,0,1-2.684,11.149Z" transform="translate(-131.82 -45.22)" fill="#fff" opacity="0.8"/>
                    </g>
                    <g id="Group_1482" data-name="Group 1482" transform="translate(19.79 0.015)">
                      <path id="Path_31670" data-name="Path 31670" d="M144.4,56.354l-.9,1.224a15.953,15.953,0,0,1-7.093-5.161l.9-1.224a14.9,14.9,0,0,1,9.777-5.972A14.972,14.972,0,0,1,144.4,56.369Z" transform="translate(-136.41 -45.22)" fill="#0091ff"/>
                      <path id="Path_31671" data-name="Path 31671" d="M144.4,56.354l-.9,1.224a15.953,15.953,0,0,1-7.093-5.161l.9-1.224a14.9,14.9,0,0,1,9.777-5.972A14.972,14.972,0,0,1,144.4,56.369Z" transform="translate(-136.41 -45.22)" fill="#fff" opacity="0.4"/>
                    </g>
                  </g>
                </g>
                <g id="Group_1491" data-name="Group 1491">
                  <g id="Group_1485" data-name="Group 1485" transform="translate(0 36.012)">
                    <path id="Path_31672" data-name="Path 31672" d="M106.13,61.511l3.716-3.141,3.362,2.448-1.858,4.5a8.385,8.385,0,0,1-5.22-3.8Z" transform="translate(-106.13 -58.355)" fill="#263238"/>
                    <path id="Path_31673" data-name="Path 31673" d="M112.288,60.808s-.28.678-.428,1.047a8.4,8.4,0,0,1-3.79-2.758l.87-.737,3.362,2.448Z" transform="translate(-105.209 -58.36)" fill="#fff" opacity="0.2"/>
                    <path id="Path_31674" data-name="Path 31674" d="M111.92,62.512l-.354.841a9.63,9.63,0,0,1-4.616-3.362l.693-.59a13.675,13.675,0,0,0,4.262,3.112Z" transform="translate(-105.741 -57.866)" fill="#fff" opacity="0.4"/>
                  </g>
                  <g id="Group_1490" data-name="Group 1490" transform="translate(2.05)">
                    <path id="Path_31675" data-name="Path 31675" d="M107.52,68.33a11.413,11.413,0,0,0,7.093,5.161l20.69-28.4a14.907,14.907,0,0,0,2.684-11.149,14.923,14.923,0,0,0-9.777,5.973l-20.69,28.4Z" transform="translate(-107.52 -33.94)" fill="#0091ff"/>
                    <g id="Group_1486" data-name="Group 1486" transform="translate(1.195 0.015)">
                      <path id="Path_31676" data-name="Path 31676" d="M134.919,45.084s-17.387,23.875-19.5,26.78A13.388,13.388,0,0,1,108.33,66.7c2.109-2.89,19.5-26.78,19.5-26.78A14.9,14.9,0,0,1,137.6,33.95,14.972,14.972,0,0,1,134.919,45.1Z" transform="translate(-108.33 -33.95)" fill="#0091ff"/>
                      <path id="Path_31677" data-name="Path 31677" d="M134.919,45.084s-17.387,23.875-19.5,26.78A13.388,13.388,0,0,1,108.33,66.7c2.109-2.89,19.5-26.78,19.5-26.78A14.9,14.9,0,0,1,137.6,33.95,14.972,14.972,0,0,1,134.919,45.1Z" transform="translate(-108.33 -33.95)" fill="#fff" opacity="0.4"/>
                    </g>
                    <g id="Group_1487" data-name="Group 1487" transform="translate(6.046 0.015)">
                      <path id="Path_31678" data-name="Path 31678" d="M133.357,45.084,118.713,65.2a15.953,15.953,0,0,1-7.093-5.161l14.644-20.115a14.9,14.9,0,0,1,9.777-5.973A14.972,14.972,0,0,1,133.357,45.1Z" transform="translate(-111.62 -33.95)" fill="#0091ff"/>
                      <path id="Path_31679" data-name="Path 31679" d="M133.357,45.084,118.713,65.2a15.953,15.953,0,0,1-7.093-5.161l14.644-20.115a14.9,14.9,0,0,1,9.777-5.973A14.972,14.972,0,0,1,133.357,45.1Z" transform="translate(-111.62 -33.95)" fill="#fff" opacity="0.6"/>
                    </g>
                    <g id="Group_1488" data-name="Group 1488" transform="translate(13.022 0.015)">
                      <path id="Path_31680" data-name="Path 31680" d="M131.112,45.084s-3.569,4.9-7.668,10.529a15.953,15.953,0,0,1-7.093-5.161c4.1-5.633,7.668-10.529,7.668-10.529A14.9,14.9,0,0,1,133.8,33.95,14.972,14.972,0,0,1,131.112,45.1Z" transform="translate(-116.35 -33.95)" fill="#0091ff"/>
                      <path id="Path_31681" data-name="Path 31681" d="M131.112,45.084s-3.569,4.9-7.668,10.529a15.953,15.953,0,0,1-7.093-5.161c4.1-5.633,7.668-10.529,7.668-10.529A14.9,14.9,0,0,1,133.8,33.95,14.972,14.972,0,0,1,131.112,45.1Z" transform="translate(-116.35 -33.95)" fill="#fff" opacity="0.8"/>
                    </g>
                    <g id="Group_1489" data-name="Group 1489" transform="translate(19.79 0.015)">
                      <path id="Path_31682" data-name="Path 31682" d="M128.933,45.084l-.9,1.224a15.953,15.953,0,0,1-7.093-5.161l.9-1.224a14.9,14.9,0,0,1,9.777-5.973A14.972,14.972,0,0,1,128.933,45.1Z" transform="translate(-120.94 -33.95)" fill="#0091ff"/>
                      <path id="Path_31683" data-name="Path 31683" d="M128.933,45.084l-.9,1.224a15.953,15.953,0,0,1-7.093-5.161l.9-1.224a14.9,14.9,0,0,1,9.777-5.973A14.972,14.972,0,0,1,128.933,45.1Z" transform="translate(-120.94 -33.95)" fill="#fff" opacity="0.4"/>
                    </g>
                  </g>
                </g>
              </g>
              <g id="Group_1504" data-name="Group 1504" transform="translate(10.377)">
                <g id="Group_1493" data-name="Group 1493" transform="translate(0 58.147)">
                  <path id="Path_31684" data-name="Path 31684" d="M111.7,68.463l6-5.073,5.427,3.952-2.994,7.27a13.591,13.591,0,0,1-8.435-6.135Z" transform="translate(-111.7 -63.375)" fill="#263238"/>
                  <path id="Path_31685" data-name="Path 31685" d="M121.638,67.332s-.442,1.091-.708,1.7a13.492,13.492,0,0,1-6.12-4.454l1.4-1.195,5.427,3.952Z" transform="translate(-110.224 -63.38)" fill="#fff" opacity="0.2"/>
                  <path id="Path_31686" data-name="Path 31686" d="M121.038,70.074c-.192.457-.383.929-.56,1.371a15.534,15.534,0,0,1-7.447-5.427l1.121-.959A22,22,0,0,0,121.038,70.074Z" transform="translate(-111.069 -62.583)" fill="#fff" opacity="0.4"/>
                </g>
                <g id="Group_1498" data-name="Group 1498" transform="translate(3.303)">
                  <path id="Path_31687" data-name="Path 31687" d="M113.94,79.467A18.41,18.41,0,0,0,125.384,87.8l33.4-45.848a24.014,24.014,0,0,0,4.336-17.991,24.055,24.055,0,0,0-15.794,9.659Z" transform="translate(-113.94 -23.945)" fill="#0091ff"/>
                  <g id="Group_1494" data-name="Group 1494" transform="translate(1.902 0.015)">
                    <path id="Path_31688" data-name="Path 31688" d="M158.173,41.951S130.095,80.5,126.688,85.174a21.624,21.624,0,0,1-11.458-8.332c3.407-4.675,31.485-43.223,31.485-43.223a24.169,24.169,0,0,1,15.794-9.659,24.143,24.143,0,0,1-4.336,17.991Z" transform="translate(-115.23 -23.96)" fill="#0091ff"/>
                    <path id="Path_31689" data-name="Path 31689" d="M158.173,41.951S130.095,80.5,126.688,85.174a21.624,21.624,0,0,1-11.458-8.332c3.407-4.675,31.485-43.223,31.485-43.223a24.169,24.169,0,0,1,15.794-9.659,24.143,24.143,0,0,1-4.336,17.991Z" transform="translate(-115.23 -23.96)" fill="#fff" opacity="0.4"/>
                  </g>
                  <g id="Group_1495" data-name="Group 1495" transform="translate(9.748 0.015)">
                    <path id="Path_31690" data-name="Path 31690" d="M155.648,41.951s-14.216,19.525-23.639,32.458a25.884,25.884,0,0,1-11.458-8.332c9.423-12.948,23.639-32.458,23.639-32.458a24.169,24.169,0,0,1,15.794-9.659,24.143,24.143,0,0,1-4.336,17.991Z" transform="translate(-120.55 -23.96)" fill="#0091ff"/>
                    <path id="Path_31691" data-name="Path 31691" d="M155.648,41.951s-14.216,19.525-23.639,32.458a25.884,25.884,0,0,1-11.458-8.332c9.423-12.948,23.639-32.458,23.639-32.458a24.169,24.169,0,0,1,15.794-9.659,24.143,24.143,0,0,1-4.336,17.991Z" transform="translate(-120.55 -23.96)" fill="#fff" opacity="0.6"/>
                  </g>
                  <g id="Group_1496" data-name="Group 1496" transform="translate(21 0.015)">
                    <path id="Path_31692" data-name="Path 31692" d="M152.026,41.951s-5.766,7.9-12.387,17a25.885,25.885,0,0,1-11.458-8.332c6.621-9.084,12.387-17,12.387-17a24.169,24.169,0,0,1,15.794-9.659A24.143,24.143,0,0,1,152.026,41.951Z" transform="translate(-128.18 -23.96)" fill="#0091ff"/>
                    <path id="Path_31693" data-name="Path 31693" d="M152.026,41.951s-5.766,7.9-12.387,17a25.885,25.885,0,0,1-11.458-8.332c6.621-9.084,12.387-17,12.387-17a24.169,24.169,0,0,1,15.794-9.659A24.143,24.143,0,0,1,152.026,41.951Z" transform="translate(-128.18 -23.96)" fill="#fff" opacity="0.8"/>
                  </g>
                  <g id="Group_1497" data-name="Group 1497" transform="translate(31.942)">
                    <path id="Path_31694" data-name="Path 31694" d="M148.5,41.956s-.531.723-1.445,1.976A25.884,25.884,0,0,1,135.6,35.6c.914-1.253,1.445-1.991,1.445-1.991a24.169,24.169,0,0,1,15.794-9.659A24.143,24.143,0,0,1,148.5,41.941Z" transform="translate(-135.6 -23.95)" fill="#0091ff"/>
                    <path id="Path_31695" data-name="Path 31695" d="M148.5,41.956s-.531.723-1.445,1.976A25.884,25.884,0,0,1,135.6,35.6c.914-1.253,1.445-1.991,1.445-1.991a24.169,24.169,0,0,1,15.794-9.659A24.143,24.143,0,0,1,148.5,41.941Z" transform="translate(-135.6 -23.95)" fill="#fff" opacity="0.1"/>
                  </g>
                </g>
                <g id="Group_1503" data-name="Group 1503" transform="translate(31.251 18.897)">
                  <path id="Path_31696" data-name="Path 31696" d="M133.924,38.454a4.127,4.127,0,1,0,5.766-.9A4.138,4.138,0,0,0,133.924,38.454Z" transform="translate(-132.776 -36.764)" fill="#0091ff"/>
                  <g id="Group_1499" data-name="Group 1499" transform="translate(0 1.955)">
                    <path id="Path_31697" data-name="Path 31697" d="M134.954,43.591a4.136,4.136,0,0,0,5.574-.664,2.772,2.772,0,0,1-.177.265,4.127,4.127,0,1,1-6.666-4.866c.059-.088.133-.162.192-.236A4.13,4.13,0,0,0,134.954,43.591Z" transform="translate(-132.892 -38.09)" fill="#0091ff"/>
                    <path id="Path_31698" data-name="Path 31698" d="M134.954,43.591a4.136,4.136,0,0,0,5.574-.664,2.772,2.772,0,0,1-.177.265,4.127,4.127,0,1,1-6.666-4.866c.059-.088.133-.162.192-.236A4.13,4.13,0,0,0,134.954,43.591Z" transform="translate(-132.892 -38.09)"/>
                  </g>
                  <path id="Path_31699" data-name="Path 31699" d="M134.52,38.774a2.913,2.913,0,1,0,4.07-.634A2.918,2.918,0,0,0,134.52,38.774Z" transform="translate(-132.384 -36.377)" fill="#fff"/>
                  <g id="Group_1502" data-name="Group 1502" transform="translate(2.106 1.215)">
                    <g id="Group_1500" data-name="Group 1500">
                      <path id="Path_31700" data-name="Path 31700" d="M134.86,42.9l2.345-5.25a3.1,3.1,0,0,1,.9.413l-2.33,5.235a3.053,3.053,0,0,1-.9-.4Z" transform="translate(-134.064 -37.559)" fill="#0091ff"/>
                      <path id="Path_31701" data-name="Path 31701" d="M134.32,42.162l2.035-4.557a2.252,2.252,0,0,1,.546,0l-2.227,4.984a3.086,3.086,0,0,1-.354-.413Z" transform="translate(-134.32 -37.588)" fill="#0091ff"/>
                    </g>
                    <g id="Group_1501" data-name="Group 1501" opacity="0.7">
                      <path id="Path_31702" data-name="Path 31702" d="M134.86,42.9l2.345-5.25a3.1,3.1,0,0,1,.9.413l-2.33,5.235a3.053,3.053,0,0,1-.9-.4Z" transform="translate(-134.064 -37.559)" fill="#fff"/>
                      <path id="Path_31703" data-name="Path 31703" d="M134.32,42.162l2.035-4.557a2.252,2.252,0,0,1,.546,0l-2.227,4.984a3.086,3.086,0,0,1-.354-.413Z" transform="translate(-134.32 -37.588)" fill="#fff"/>
                    </g>
                  </g>
                </g>
              </g>
            </g>
          </g>
          <g id="g" transform="matrix(0.883, 0.469, -0.469, 0.883, 180.722, -8.265)">
            <g id="Group_1509" data-name="Group 1509">
              <circle id="Ellipse_358" data-name="Ellipse 358" cx="22.808" cy="22.808" r="22.808" transform="translate(5.324 14.633) rotate(-18.71)" opacity="0.1"/>
              <g id="Group_1507" data-name="Group 1507" transform="translate(0 4.059)">
                <path id="Path_31704" data-name="Path 31704" d="M103.67,141.388l-21.7,42-3.6-1.858,21.7-42Z" transform="translate(-77.025 -97.5)" fill="#0091ff"/>
                <path id="Path_31705" data-name="Path 31705" d="M100.073,139.53l3.6,1.858-21.7,42-3.6-1.858" transform="translate(-77.025 -97.5)" opacity="0.5"/>
                <g id="Group_1506" data-name="Group 1506" transform="translate(0 57.413)">
                  <path id="Path_31706" data-name="Path 31706" d="M97,156.283l-10.674,20.6a3.2,3.2,0,0,1-4.305,1.371l-2.831-1.46a3.2,3.2,0,0,1-1.371-4.305l10.674-20.6a3.548,3.548,0,0,1,4.806-1.519l2.182,1.135A3.548,3.548,0,0,1,97,156.313Z" transform="translate(-77.458 -149.964)" fill="#0091ff"/>
                  <path id="Path_31707" data-name="Path 31707" d="M97,156.283l-10.674,20.6a3.2,3.2,0,0,1-4.305,1.371l-2.831-1.46a3.2,3.2,0,0,1-1.371-4.305l10.674-20.6a3.548,3.548,0,0,1,4.806-1.519l2.182,1.135A3.548,3.548,0,0,1,97,156.313Z" transform="translate(-77.458 -149.964)" fill="#fff" opacity="0.5"/>
                </g>
                <path id="Path_31708" data-name="Path 31708" d="M116.875,159.348l-.663.221a24.892,24.892,0,1,1,.663-.221Zm-15.009-42.993a20.483,20.483,0,0,0-11.544,10.011,20.68,20.68,0,1,0,12.1-10.188C102.234,116.238,102.057,116.3,101.866,116.356Z" transform="translate(-74.44 -111.023)" fill="#0091ff"/>
              </g>
              <path id="Path_31709" data-name="Path 31709" d="M97.122,116.931c-6.708,4.113-11.78,15.26-8.61,24.209,1,1.828,1.651,2.978,2.551,4.408a.5.5,0,0,0,.914-.265A45.082,45.082,0,0,1,102.533,115.9a.492.492,0,0,0-.531-.781c-1.651.531-2.89,1-4.865,1.813Z" transform="translate(-72.674 -105.033)" fill="#fff" opacity="0.5"/>
              <g id="Group_1508" data-name="Group 1508" transform="translate(35.572 15.006)" opacity="0.5">
                <path id="Path_31710" data-name="Path 31710" d="M115.982,120.618A62.672,62.672,0,0,1,104.7,151.506a.479.479,0,0,1-.236.177c-.914.339-1.548.56-2.256.811a.467.467,0,0,1-.56-.678,103.974,103.974,0,0,0,11.883-32.7.807.807,0,0,1,1.474-.295c.251.4.516.8.84,1.312a.76.76,0,0,1,.133.5Z" transform="translate(-101.585 -118.448)" fill="#fff"/>
              </g>
            </g>
          </g>
          <g id="h" transform="translate(624.476 171.287)">
            <g id="Group_1519" data-name="Group 1519">
              <g id="Group_1515" data-name="Group 1515" transform="translate(40.504 117.338)">
                <g id="Group_1511" data-name="Group 1511" transform="translate(0 190.931)">
                  <path id="Path_31711" data-name="Path 31711" d="M340.716,343.083,338.74,361.5l-10.04-1.062.988-20.066Z" transform="translate(-312.249 -340.37)" fill="#dd8c6a"/>
                  <g id="Group_1510" data-name="Group 1510" transform="translate(0 15.421)">
                    <path id="Path_31712" data-name="Path 31712" d="M326.464,354.946c-1.268-.088-2.551-.428-2.934-1a.911.911,0,0,1,.088-1.047,1.331,1.331,0,0,1,.8-.516c1.74-.339,5.131,1.946,5.293,2.049a.262.262,0,0,1,.1.265.219.219,0,0,1-.206.177,17.2,17.2,0,0,1-3.14.059Zm-1.474-2.094a2.542,2.542,0,0,0-.472.029.662.662,0,0,0-.5.31c-.206.28-.147.442-.088.531.428.693,2.993.9,4.895.811a10.884,10.884,0,0,0-3.848-1.651Z" transform="translate(-314.761 -350.11)" fill="#407bff"/>
                    <path id="Path_31713" data-name="Path 31713" d="M328.638,355.607a.332.332,0,0,1-.1-.015c-1.179-.634-3.465-3.022-3.155-4.143.044-.28.28-.59.944-.619a1.766,1.766,0,0,1,1.312.516c1.224,1.165,1.283,3.922,1.3,4.055a.236.236,0,0,1-.118.206.3.3,0,0,1-.162,0Zm-2.182-4.305-.133-.029c-.442,0-.472.177-.5.236-.118.693,1.371,2.536,2.565,3.376a5.617,5.617,0,0,0-1.121-3.214,1.292,1.292,0,0,0-.811-.369h0Z" transform="translate(-313.838 -350.829)" fill="#407bff"/>
                    <path id="Path_31714" data-name="Path 31714" d="M333.521,353.177l11.117.811a.909.909,0,0,1,.826.767l1.342,9.185a1.485,1.485,0,0,1-1.253,1.7,1.092,1.092,0,0,1-.31,0c-4-.369-7.549-.84-12.532-1.209-5.883-.428-4.438.383-11.367-.029-4.172-.251-4.585-5.042-2.8-5.146,8.168-.428,9.185-2.8,12.517-5.47a3.619,3.619,0,0,1,2.477-.634Z" transform="translate(-317.542 -349.741)" fill="#263238"/>
                  </g>
                  <path id="Path_31715" data-name="Path 31715" d="M329.076,348.025l7.49-.295L339.647,349l-2.624,3.715-8.183-.427Z" transform="translate(-312.183 -336.879)" opacity="0.2"/>
                </g>
                <g id="Group_1514" data-name="Group 1514" transform="translate(13.717)">
                  <path id="Path_31716" data-name="Path 31716" d="M366.763,219.126,348.982,326.682l-5.839,90.29-15.083-1.858s-2.654-45.175-.118-92.59c2.285-42.816,9.7-87.518,10.778-101.79l5.573-9.863,11.1,1.371,11.382,6.885Z" transform="translate(-326.846 -210.87)" fill="#50bfa5"/>
                  <g id="Group_1513" data-name="Group 1513" transform="translate(23.375 7.195)">
                    <path id="Path_31717" data-name="Path 31717" d="M404.752,348.695l-7.681,3.937s-1.755-3.081-4.556-8.065c-.619-1.106-1.312-2.315-2.035-3.6l9.171-4.01.118-.059c.088.206.177.413.265.6.457,1.091.885,2.094,1.3,3.052,2.123,5.013,3.435,8.138,3.435,8.138Z" transform="translate(-320.035 -158.281)" fill="#dd8c6a"/>
                    <g id="Group_1512" data-name="Group 1512" transform="translate(64.579 186.809)">
                      <path id="Path_31718" data-name="Path 31718" d="M392.347,348.056c-1.165.531-2.447.855-3.067.531a.913.913,0,0,1-.413-.973,1.293,1.293,0,0,1,.457-.826c1.356-1.135,5.455-.737,5.632-.722a.221.221,0,0,1,.206.177.238.238,0,0,1-.1.265,18.509,18.509,0,0,1-2.728,1.548Zm-2.3-1.15a1.4,1.4,0,0,0-.4.251.645.645,0,0,0-.295.5c-.044.354.074.457.177.5.708.413,3.067-.634,4.7-1.637A11.477,11.477,0,0,0,390.047,346.906Z" transform="translate(-385.39 -340.779)" fill="#407bff"/>
                      <path id="Path_31719" data-name="Path 31719" d="M394.622,347.415a.3.3,0,0,1-.088.029c-1.342,0-4.5-1-4.762-2.138-.088-.265-.044-.663.546-.988a1.794,1.794,0,0,1,1.4-.177c1.622.442,3.008,2.846,3.081,2.949a.254.254,0,0,1,0,.251.2.2,0,0,1-.147.074Zm-3.981-2.742-.133.044c-.383.206-.339.383-.324.442.221.664,2.418,1.578,3.878,1.74a5.719,5.719,0,0,0-2.536-2.3,1.227,1.227,0,0,0-.885.074Z" transform="translate(-384.967 -341.687)" fill="#407bff"/>
                      <path id="Path_31720" data-name="Path 31720" d="M397.2,346.266l8.05-3.73a.894.894,0,0,1,1.091.28l5.573,7.445a1.5,1.5,0,0,1-.28,2.094,2.543,2.543,0,0,1-.265.162c-3.7,1.592-4.924,1.99-9.48,4.069-5.381,2.433-3.73,2.462-10.026,5.411-3.789,1.769-6.458-2.256-4.924-3.2,6.988-4.276,9.465-12.208,10.291-12.547Z" transform="translate(-386.501 -342.455)" fill="#263238"/>
                    </g>
                    <path id="Path_31721" data-name="Path 31721" d="M401.331,340.537l-8.817,4.01c-.619-1.106-1.312-2.315-2.035-3.6l9.171-4.01.383.546C400.491,338.577,400.919,339.579,401.331,340.537Z" transform="translate(-320.035 -158.262)" opacity="0.2"/>
                    <path id="Path_31722" data-name="Path 31722" d="M342.7,216.178s18.562,90.158,27.467,111.742c7.9,19.167,42.948,73.114,42.948,73.114l10.94-5.47s-12.178-34.441-23.855-56.557c-4.084-7.711-8.33-13.638-10.144-17.81-2.4-5.5-1.666-96.468-15.3-105.447l-32.038.428Z" transform="translate(-342.7 -215.75)" fill="#50bfa5"/>
                  </g>
                  <path id="Path_31723" data-name="Path 31723" d="M350.629,253.184,344.5,291.754c-1.578-22.057,1.474-56.144,1.474-56.144Z" transform="translate(-318.688 -199.134)" opacity="0.2"/>
                </g>
              </g>
              <path id="Path_31724" data-name="Path 31724" d="M334.645,228.7a65.647,65.647,0,0,0,.31-11.6c-3.14-36.785-3.185-40.383-2.875-46.855A2.842,2.842,0,0,1,334,167.69c25.448-8.714,47.652-4.6,53.4-1.371,7.667,4.305,4.615,8.92,4.526,10.247-.722,10.9-7.755,32.5-7.858,50.2-.015,2.595.28,8.846.457,12.3A2.849,2.849,0,0,1,382.253,242c-5.706,1.194-33.144,1.533-37.847,1.386a92.264,92.264,0,0,1-9.318-.663A2.84,2.84,0,0,1,332.7,239.3c.693-3.214,1.74-8.286,1.961-10.586Z" transform="translate(-270.201 -116.492)" fill="#ffc727"/>
              <g id="Group_1516" data-name="Group 1516" transform="translate(72.679)">
                <path id="Path_31725" data-name="Path 31725" d="M360.471,152.23c-.958,5.706-1.843,14.051,2.226,17.737,0,0-.059,5.809-15.982,12.488-6.015-8.153-1.755-12.016-1.755-12.016,6.325-1.681,6.074-4.261,4.865-8.64l10.645-9.554Z" transform="translate(-337.405 -121.349)" fill="#dd8c6a"/>
                <path id="Path_31726" data-name="Path 31726" d="M354.091,154.84l-6.251,5.706a17.343,17.343,0,0,1,.619,3.111c2.433-.413,6.178-2.565,6.635-5.219A7.666,7.666,0,0,0,354.091,154.84Z" transform="translate(-335.345 -120.11)" opacity="0.2"/>
                <path id="Path_31727" data-name="Path 31727" d="M369.17,150.783c-2.3,9.377-3.081,13.387-8.758,17.383-8.537,6.015-19.565,1.121-20.11-8.758-.472-8.89,3.391-22.794,13.372-24.814a13.169,13.169,0,0,1,15.5,16.189Z" transform="translate(-338.939 -129.853)" fill="#dd8c6a"/>
                <path id="Path_31728" data-name="Path 31728" d="M349.438,145.186c-.147.767-.678,1.327-1.165,1.238s-.8-.8-.664-1.563.678-1.327,1.165-1.238S349.542,144.449,349.438,145.186Z" transform="translate(-335.469 -125.436)" fill="#263238"/>
                <path id="Path_31729" data-name="Path 31729" d="M343.568,144.162c-.147.781-.678,1.327-1.165,1.238s-.8-.8-.663-1.563.678-1.327,1.165-1.224.8.781.663,1.563Z" transform="translate(-338.254 -125.916)" fill="#263238"/>
                <path id="Path_31730" data-name="Path 31730" d="M347.282,152.453a6.089,6.089,0,0,1-1.15-.118.229.229,0,0,1-.192-.251h0a.247.247,0,0,1,.28-.192,6.236,6.236,0,0,0,5.426-1.489.229.229,0,0,1,.324.324,6.438,6.438,0,0,1-4.688,1.74Z" transform="translate(-336.247 -122.249)" fill="#263238"/>
                <path id="Path_31731" data-name="Path 31731" d="M353.082,145.024a.465.465,0,0,1-.487-.251,5.463,5.463,0,0,0-3.656-2.388.487.487,0,0,1-.4-.531.461.461,0,0,1,.516-.383h.015a6.279,6.279,0,0,1,4.349,2.9.465.465,0,0,1-.221.6h0a.446.446,0,0,1-.133.044Z" transform="translate(-335.014 -126.454)" fill="#263238"/>
                <path id="Path_31732" data-name="Path 31732" d="M342.117,142.318a.489.489,0,0,1-.457-.147.45.45,0,0,1,.029-.649,4.523,4.523,0,0,1,4.069-1.224.438.438,0,0,1,.339.516v.029a.447.447,0,0,1-.56.324h0a3.68,3.68,0,0,0-3.185,1,.679.679,0,0,1-.251.133Z" transform="translate(-338.336 -127.05)" fill="#263238"/>
                <path id="Path_31733" data-name="Path 31733" d="M365.291,162.5l-1.666-.28-9.318,5.087-2.89.118-5.544-4.688-1.843.442h0a32.749,32.749,0,0,0-.944,16.528l3.17,15.732,3.3,17.206h.074l.693-1.592,2.595-5.942,3.553-6.767,6.473-16.542,1.828-6.812a28.8,28.8,0,0,0,.546-12.488h0Z" transform="translate(-337.905 -116.61)" fill="#263238"/>
                <path id="Path_31734" data-name="Path 31734" d="M354.847,167.188c-10,.1-11.117-3.568-11.117-3.568v-.87s-2.993,5.676,5.691,6.664,14.449-3.126,15.687-5.6h0C364.136,165.124,361.541,167.114,354.847,167.188Z" transform="translate(-337.531 -116.358)" opacity="0.1"/>
                <path id="Path_31735" data-name="Path 31735" d="M367.337,161.842c2.551-2.005,2.256-5.381,3.76-8.242,2.61-4.969.029-7.033.029-7.033,2.212-3.081.369-7.4-3.819-6.9-1.489-2.4-3.037-4.865-5.322-6.517a11.1,11.1,0,0,0-13.343.781,2.782,2.782,0,1,0-3.1,4.526,11.383,11.383,0,0,0,5.676,4.084c2.993,1.062,8.124,1.312,11.235,1.917a63.554,63.554,0,0,1-1.047,7.622,62.339,62.339,0,0,0-.044,15.23c2.153-1.666,5.588-2.772,5.956-5.47Z" transform="translate(-337.179 -131.284)" fill="#263238"/>
                <path id="Path_31736" data-name="Path 31736" d="M361.779,151.543a6.585,6.585,0,0,1-3.907,3.052c-2.212.575-3.288-1.4-2.654-3.48.59-1.872,2.433-4.423,4.63-4.128a2.928,2.928,0,0,1,2.4,3.376A3.055,3.055,0,0,1,361.779,151.543Z" transform="translate(-331.931 -123.847)" fill="#dd8c6a"/>
                <path id="Path_31737" data-name="Path 31737" d="M365,147.231l-6.4-1.076c-.546-1.637-2.846-2.035-3.819-2.2-1.017-.177-3.465-.575-4.453.988l-2.226-.383c-.413-1.8-2.86-2.226-3.878-2.4-1.194-.206-4.349-.737-4.806,1.976a4.445,4.445,0,0,0,8.714,1.474c.029-.147.029-.295.044-.428l1.9.324a3.038,3.038,0,0,0-.1.428,4.445,4.445,0,0,0,8.714,1.474,2.314,2.314,0,0,0,.029-.634l6.192,1.047a3.741,3.741,0,0,1,2.182,1.224l.457-.4a4.359,4.359,0,0,0-2.536-1.43Zm-21.791.973a3.605,3.605,0,0,1-3.2-3.937c.251-1.489,1.474-1.931,4.113-1.489s3.656,1.268,3.406,2.757a3.621,3.621,0,0,1-4.32,2.683Zm10.556,1.784a3.605,3.605,0,0,1-3.2-3.937c.251-1.489,1.474-1.931,4.114-1.489s3.656,1.268,3.406,2.757a3.621,3.621,0,0,1-4.32,2.683Z" transform="translate(-339.365 -126.213)" fill="#fff"/>
                <path id="Path_31738" data-name="Path 31738" d="M343.6,162.136l-.029,3.686s1.121,3.686,11.117,3.568,10.837-4.512,10.837-4.512l.029-2.683a3.043,3.043,0,0,0-3.627-3.022c-2.875.546-7.622.9-14.906-.044a3.046,3.046,0,0,0-3.421,3.008Z" transform="translate(-337.371 -118.088)" fill="#263238"/>
                <path id="Path_31739" data-name="Path 31739" d="M346.908,144.45a27.391,27.391,0,0,1-4.718,5.706,4.453,4.453,0,0,0,3.435,1.312l1.283-7.018Z" transform="translate(-338.025 -125.039)" fill="#b16e52"/>
              </g>
              <g id="Group_1517" data-name="Group 1517" transform="translate(0 20.062)">
                <path id="Path_31740" data-name="Path 31740" d="M306.2,159.559a9.581,9.581,0,0,0-5.249-7.844s-.737-5.485-3.745-6.679-7.136,5.367-7.136,5.367.929,7.637,6.753,9.569l6.355,3.538,3.022-3.966Z" transform="translate(-290.07 -144.891)" fill="#dd8c6a"/>
                <path id="Path_31741" data-name="Path 31741" d="M306.614,158.077l-1.74-4.217a14.669,14.669,0,0,0-8.964,5.942l4.069,3.362,6.635-5.087Z" transform="translate(-287.3 -140.637)" fill="#263238" stroke="#263238" stroke-width="1"/>
                <path id="Path_31742" data-name="Path 31742" d="M305.616,156.13a80.113,80.113,0,0,0,21.673,19.86c16.41-6.325,30.048-5.087,30.048-5.087l-5.676,12.93s-19.24,6.679-28.573,4.29c-7.4-1.9-20.169-19.314-25.167-26.465a21.038,21.038,0,0,1,7.7-5.529Z" transform="translate(-286.346 -139.56)" fill="#ffc727"/>
              </g>
              <g id="Group_1518" data-name="Group 1518" transform="translate(104.707 47.93)">
                <path id="Path_31743" data-name="Path 31743" d="M384.609,206.994a9.564,9.564,0,0,0-.826,9.392s-2.86,4.733-1.268,7.549,8.92.295,8.92.295,4.069-6.531.737-11.692l-2.728-6.738-4.836,1.194Z" transform="translate(-351.153 -143.867)" fill="#dd8c6a"/>
                <path id="Path_31744" data-name="Path 31744" d="M383.7,203.78l-1.3,4.379a14.7,14.7,0,0,0,10.719.988l-1.062-5.16-8.36-.192Z" transform="translate(-350.979 -144.825)" fill="#263238" stroke="#263238" stroke-width="1"/>
                <path id="Path_31745" data-name="Path 31745" d="M393.291,223.456a80,80,0,0,0-4.453-29.06s-19.594-11.662-25.654-17.928a7.478,7.478,0,0,1,1.931-11.824h0a7.47,7.47,0,0,1,7.829.56c7.151,5.175,22.4,16.513,26.775,22.366,4.571,6.119,3.627,27.689,3.037,36.4a21.176,21.176,0,0,1-9.451-.5Z" transform="translate(-361.088 -163.793)" fill="#263238"/>
                <path id="Path_31746" data-name="Path 31746" d="M393.291,223.456a80,80,0,0,0-4.453-29.06s-19.594-11.662-25.654-17.928a7.478,7.478,0,0,1,1.931-11.824h0a7.47,7.47,0,0,1,7.829.56c7.151,5.175,22.4,16.513,26.775,22.366,4.571,6.119,3.627,27.689,3.037,36.4a21.176,21.176,0,0,1-9.451-.5Z" transform="translate(-361.088 -163.793)" fill="#ffc727"/>
              </g>
            </g>
          </g>
          <g id="j" transform="translate(104.249 276.024)">
            <g id="Group_1555" data-name="Group 1555">
              <g id="Group_1552" data-name="Group 1552">
                <g id="Group_1545" data-name="Group 1545">
                  <g id="Group_1544" data-name="Group 1544">
                    <path id="Path_31806" data-name="Path 31806" d="M248.705,64.509a37.377,37.377,0,0,0-.559-6.173c-2.756-16.33-16.877-28.927-33.8-28.826-18.868.112-34.074,15.965-33.965,35.408.079,14.1,11.023,23.585,17.972,34.709,2.153,3.448,9.2,0,9.2,0h16.716s4.749,3.275,6.862-.2C237.95,88.221,248.79,78.607,248.71,64.5Z" transform="translate(-180.379 -29.509)" fill="#0091ff"/>
                    <path id="Path_31807" data-name="Path 31807" d="M247.091,51.2c-.109-11.593-13.761-30.453-32.63-30.386s-31.962,18.21-31.853,29.8c.079,8.409,2.018,15.685,12.623,25.494,2.153,2.056,5.111,4.966,5.111,4.966l28.981-.1s-3.378,2.174-1.264.1C244.774,70.29,247.175,59.61,247.1,51.2Z" transform="translate(-180.379 -19.243)" fill="#fff" opacity="0.5"/>
                  </g>
                  <path id="Path_31809" data-name="Path 31809" d="M249.342,107.958A19.366,19.366,0,1,1,229.958,88.61,19.365,19.365,0,0,1,249.342,107.958Z" transform="translate(-195.546 -70.035)" fill="#fff" opacity="0.4"/>
                  <path id="Path_31810" data-name="Path 31810" d="M249.159,127.707c0,7.514-6.083,9.805-13.6,9.81s-13.607-2.272-13.612-9.786,6.083-9.7,13.6-9.711S249.154,120.193,249.159,127.707Z" transform="translate(-201.373 -85.948)" fill="#fff" opacity="0.4"/>
                  <circle id="Ellipse_359" data-name="Ellipse 359" cx="29.04" cy="29.04" r="29.04" transform="translate(5.39 7.012)" fill="#fff"/>
                </g>
                <g id="Group_1551" data-name="Group 1551" transform="translate(16.152 56.532)">
                  <g id="Group_1546" data-name="Group 1546" transform="translate(5.276 24.407)">
                    <path id="Path_31811" data-name="Path 31811" d="M244.489,243.6H228.194l-4.524-5.92h25.348Z" transform="translate(-223.67 -237.68)" fill="#0091ff"/>
                    <path id="Path_31812" data-name="Path 31812" d="M244.489,243.6H228.194l-4.524-5.92h25.348Z" transform="translate(-223.67 -237.68)" fill="#fff" opacity="0.5"/>
                  </g>
                  <path id="Path_31813" data-name="Path 31813" d="M217.75,189.6h0a1.073,1.073,0,0,1,1.069-1.079l28.961-.153a1.076,1.076,0,0,1,1.079,1.069h0a1.073,1.073,0,0,1-1.069,1.079l-28.961.153a1.076,1.076,0,0,1-1.079-1.069Z" transform="translate(-215.404 -188.37)" fill="#0091ff"/>
                  <g id="Group_1548" data-name="Group 1548" transform="translate(0 1.792)">
                    <path id="Path_31814" data-name="Path 31814" d="M249.034,195.93a3.953,3.953,0,0,1-3.945,3.95h-4.014a3.346,3.346,0,0,1-.9.119l-23.209.04a3.945,3.945,0,0,1-.1-7.89h.089l4.014-.01a3.644,3.644,0,0,1,.807-.109h.089l23.209-.04a3.956,3.956,0,0,1,3.96,3.945Z" transform="translate(-213.01 -191.99)" fill="#0091ff"/>
                    <path id="Path_31815" data-name="Path 31815" d="M249.034,195.93a3.953,3.953,0,0,1-3.945,3.95h-4.014a3.346,3.346,0,0,1-.9.119l-23.209.04a3.945,3.945,0,0,1-.1-7.89h.089l4.014-.01a3.644,3.644,0,0,1,.807-.109h.089l23.209-.04a3.956,3.956,0,0,1,3.96,3.945Z" transform="translate(-213.01 -191.99)" fill="#0091ff"/>
                    <g id="Group_1547" data-name="Group 1547" opacity="0.2">
                      <path id="Path_31816" data-name="Path 31816" d="M249.034,195.93a3.953,3.953,0,0,1-3.945,3.95h-4.014a3.346,3.346,0,0,1-.9.119l-23.209.04a3.945,3.945,0,0,1-.1-7.89h.089l4.014-.01a3.644,3.644,0,0,1,.807-.109h.089l23.209-.04a3.956,3.956,0,0,1,3.96,3.945Z" transform="translate(-213.01 -191.99)" fill="#fff"/>
                    </g>
                  </g>
                  <g id="Group_1549" data-name="Group 1549" transform="translate(1.143 9.474)">
                    <path id="Path_31817" data-name="Path 31817" d="M248.825,211.465a3.8,3.8,0,0,1-3.663,3.94h-3.737a3.311,3.311,0,0,1-.836.109H219.008a3.961,3.961,0,0,1-.109-7.895h3.816a3.137,3.137,0,0,1,.752-.109h21.665a3.836,3.836,0,0,1,3.688,3.95Z" transform="translate(-215.32 -207.51)" fill="#0091ff"/>
                    <path id="Path_31818" data-name="Path 31818" d="M248.825,211.465a3.8,3.8,0,0,1-3.663,3.94h-3.737a3.311,3.311,0,0,1-.836.109H219.008a3.961,3.961,0,0,1-.109-7.895h3.816a3.137,3.137,0,0,1,.752-.109h21.665a3.836,3.836,0,0,1,3.688,3.95Z" transform="translate(-215.32 -207.51)" fill="#fff"/>
                  </g>
                  <g id="Group_1550" data-name="Group 1550" transform="translate(2.287 16.923)">
                    <path id="Path_31819" data-name="Path 31819" d="M248.61,226.559a3.678,3.678,0,0,1-3.381,3.935h-3.455a2.823,2.823,0,0,1-.772.1l-19.957-.04a3.734,3.734,0,0,1-3.415-3.96,3.692,3.692,0,0,1,3.3-3.935h3.529a2.963,2.963,0,0,1,.693-.1h.074l19.957.04a3.734,3.734,0,0,1,3.415,3.96Z" transform="translate(-217.63 -222.56)" fill="#0091ff"/>
                    <path id="Path_31820" data-name="Path 31820" d="M248.61,226.559a3.678,3.678,0,0,1-3.381,3.935h-3.455a2.823,2.823,0,0,1-.772.1l-19.957-.04a3.734,3.734,0,0,1-3.415-3.96,3.692,3.692,0,0,1,3.3-3.935h3.529a2.963,2.963,0,0,1,.693-.1h.074l19.957.04a3.734,3.734,0,0,1,3.415,3.96Z" transform="translate(-217.63 -222.56)" fill="#fff" opacity="0.4"/>
                  </g>
                  <path id="Path_31821" data-name="Path 31821" d="M222.25,239.7h0a1.073,1.073,0,0,1,1.069-1.079l24.506-.049a1.072,1.072,0,0,1,1.074,1.069h0a1.073,1.073,0,0,1-1.069,1.079l-24.506.05a1.072,1.072,0,0,1-1.074-1.069Z" transform="translate(-217.676 -213.722)" fill="#0091ff"/>
                </g>
              </g>
              <g id="Group_1554" data-name="Group 1554" transform="translate(20.78 20.864)">
                <path id="Path_31822" data-name="Path 31822" d="M234.852,71.958l-1.522.846a10.4,10.4,0,0,0,.381,1.424l1.74-.029a9.087,9.087,0,0,0,1.221,2.111l-.894,1.493a10.864,10.864,0,0,0,1.043,1.043l1.493-.894a9.107,9.107,0,0,0,2.111,1.221l-.029,1.74a10.4,10.4,0,0,0,1.424.381l.846-1.522a8.958,8.958,0,0,0,2.441,0l.846,1.522a10.4,10.4,0,0,0,1.424-.381l-.029-1.74a9.088,9.088,0,0,0,2.111-1.221l1.493.894A10.867,10.867,0,0,0,252,77.8L251.1,76.31a9.107,9.107,0,0,0,1.221-2.111l1.74.029a10.4,10.4,0,0,0,.381-1.424l-1.522-.846a8.956,8.956,0,0,0,0-2.441l1.522-.846a10.4,10.4,0,0,0-.381-1.424l-1.74.029a9.087,9.087,0,0,0-1.221-2.111L252,63.671a10.867,10.867,0,0,0-1.043-1.043l-1.493.894a9.108,9.108,0,0,0-2.111-1.221l.029-1.74a10.4,10.4,0,0,0-1.424-.381l-.846,1.522a8.957,8.957,0,0,0-2.441,0l-.846-1.522a10.4,10.4,0,0,0-1.424.381l.029,1.74a9.087,9.087,0,0,0-2.111,1.221l-1.493-.894a10.863,10.863,0,0,0-1.043,1.043l.894,1.493a9.107,9.107,0,0,0-1.221,2.111l-1.74-.029a10.4,10.4,0,0,0-.381,1.424l1.522.846a8.956,8.956,0,0,0,0,2.441Zm4.145-1a4.959,4.959,0,1,1,4.959,4.959A4.958,4.958,0,0,1,239,70.955Z" transform="translate(-225.494 -60.18)" fill="#0091ff"/>
                <g id="Group_1553" data-name="Group 1553" transform="translate(0 16.904)">
                  <path id="Path_31823" data-name="Path 31823" d="M213.442,114.662l-1.682.934a6.87,6.87,0,0,0,.207.77l1.925-.033a5.562,5.562,0,0,0,.618,1.068l-.988,1.649a6.953,6.953,0,0,0,.567.567l1.649-.988a5.673,5.673,0,0,0,1.068.618l-.033,1.925a6.87,6.87,0,0,0,.77.207l.934-1.682a5.85,5.85,0,0,0,1.235,0l.934,1.682a6.867,6.867,0,0,0,.77-.207l-.033-1.925a5.562,5.562,0,0,0,1.068-.618l1.649.988a6.951,6.951,0,0,0,.567-.567l-.988-1.649a5.676,5.676,0,0,0,.618-1.068l1.925.033a6.87,6.87,0,0,0,.207-.77l-1.682-.934a5.851,5.851,0,0,0,0-1.235l1.682-.934a6.863,6.863,0,0,0-.207-.77l-1.925.033a5.564,5.564,0,0,0-.618-1.068l.988-1.649a6.949,6.949,0,0,0-.567-.567l-1.649.988a5.675,5.675,0,0,0-1.068-.618l.033-1.925a6.865,6.865,0,0,0-.77-.207l-.934,1.682a5.85,5.85,0,0,0-1.235,0l-.934-1.682a6.867,6.867,0,0,0-.77.207l.033,1.925a5.562,5.562,0,0,0-1.068.618l-1.649-.988a6.953,6.953,0,0,0-.567.567l.988,1.649a5.674,5.674,0,0,0-.618,1.068l-1.925-.033a6.876,6.876,0,0,0-.207.77l1.682.934a5.851,5.851,0,0,0,0,1.235Zm2.292-.618a3.36,3.36,0,1,1,3.36,3.36A3.36,3.36,0,0,1,215.734,114.045Z" transform="translate(-211.76 -106.71)" fill="#263238"/>
                  <path id="Path_31824" data-name="Path 31824" d="M213.442,114.662l-1.682.934a6.87,6.87,0,0,0,.207.77l1.925-.033a5.562,5.562,0,0,0,.618,1.068l-.988,1.649a6.953,6.953,0,0,0,.567.567l1.649-.988a5.673,5.673,0,0,0,1.068.618l-.033,1.925a6.87,6.87,0,0,0,.77.207l.934-1.682a5.85,5.85,0,0,0,1.235,0l.934,1.682a6.867,6.867,0,0,0,.77-.207l-.033-1.925a5.562,5.562,0,0,0,1.068-.618l1.649.988a6.951,6.951,0,0,0,.567-.567l-.988-1.649a5.676,5.676,0,0,0,.618-1.068l1.925.033a6.87,6.87,0,0,0,.207-.77l-1.682-.934a5.851,5.851,0,0,0,0-1.235l1.682-.934a6.863,6.863,0,0,0-.207-.77l-1.925.033a5.564,5.564,0,0,0-.618-1.068l.988-1.649a6.949,6.949,0,0,0-.567-.567l-1.649.988a5.675,5.675,0,0,0-1.068-.618l.033-1.925a6.865,6.865,0,0,0-.77-.207l-.934,1.682a5.85,5.85,0,0,0-1.235,0l-.934-1.682a6.867,6.867,0,0,0-.77.207l.033,1.925a5.562,5.562,0,0,0-1.068.618l-1.649-.988a6.953,6.953,0,0,0-.567.567l.988,1.649a5.674,5.674,0,0,0-.618,1.068l-1.925-.033a6.876,6.876,0,0,0-.207.77l1.682.934a5.851,5.851,0,0,0,0,1.235Zm2.292-.618a3.36,3.36,0,1,1,3.36,3.36A3.36,3.36,0,0,1,215.734,114.045Z" transform="translate(-211.76 -106.71)" fill="#0091ff" opacity="0.5"/>
                </g>
              </g>
            </g>
          </g>
        </g>
        <g id="Group_1556" data-name="Group 1556" transform="translate(661.211 42.115)">
          <ellipse id="Ellipse_255" data-name="Ellipse 255" cx="31.539" cy="31.143" rx="31.539" ry="31.143" transform="translate(0 4.047)" fill="#ced3e6"/>
          <ellipse id="Ellipse_256" data-name="Ellipse 256" cx="31.539" cy="31.143" rx="31.539" ry="31.143" fill="#0875f7"/>
          <ellipse id="Ellipse_257" data-name="Ellipse 257" cx="25.631" cy="25.317" rx="25.631" ry="25.317" transform="translate(5.908 5.826)" fill="#fff"/>
          <path id="Path_28873" data-name="Path 28873" d="M225.033,47.672a16.341,16.341,0,0,1-.081,2,25.666,25.666,0,0,0-51.111,0c-.058-.663-.081-1.326-.081-2a25.637,25.637,0,1,1,51.273,0Z" transform="translate(-167.852 -16.529)" fill="#ced3e6"/>
          <path id="Path_28874" data-name="Path 28874" d="M197.652,48.86a.651.651,0,0,1-.512-.256L184.557,31.882A.628.628,0,0,1,184.7,31a.64.64,0,0,1,.9.128l12.269,16.281,13.955-6.036a.64.64,0,0,1,.849.326.616.616,0,0,1-.326.826l-14.455,6.291a.628.628,0,0,1-.233.047Z" transform="translate(-166.113 -15.089)" fill="#39393b"/>
        </g>
      </g>
      <g id="Group_1558" data-name="Group 1558" transform="translate(1821.078 330.118)">
        <path id="Path_30415" data-name="Path 30415" d="M166.219,142.1H117.591a9.921,9.921,0,0,0-9.921,9.921v27.193a9.921,9.921,0,0,0,9.921,9.921h4.122l-2.35,7.2a2.583,2.583,0,0,0,3.944,2.9l14.139-10.1h28.745a9.921,9.921,0,0,0,9.921-9.921V152.021a9.921,9.921,0,0,0-9.893-9.921Z" transform="translate(-107.67 -142.1)" fill="#79b2e2"/>
        <circle id="Ellipse_336" data-name="Ellipse 336" cx="4.809" cy="4.809" r="4.809" transform="translate(8.066 17.492)" fill="#fff"/>
        <circle id="Ellipse_337" data-name="Ellipse 337" cx="4.809" cy="4.809" r="4.809" transform="translate(28.91 17.492)" fill="#fff"/>
        <circle id="Ellipse_338" data-name="Ellipse 338" cx="4.809" cy="4.809" r="4.809" transform="translate(49.865 17.492)" fill="#fff"/>
      </g>
    </g>
  </g>
</svg>
