<svg xmlns="http://www.w3.org/2000/svg" viewBox="0 0 40 40"><defs><style>.cls-1{fill:none;}.cls-2{fill:#fff;}</style></defs><g id="Layer_2" data-name="Layer 2"><g id="Layer_1-2" data-name="Layer 1"><rect class="cls-1" width="40" height="40"/><path class="cls-2" d="M6.27,6.07H1.83A1.36,1.36,0,0,1,.53,4.19,1.23,1.23,0,0,1,1.74,3.3q2.88,0,5.76,0A1.34,1.34,0,0,1,8.83,4.5c.27,1.35.53,2.7.78,4.06,0,.24.1.35.37.35l12.69-.06.06,0c.13-.72.19-1.44.38-2.13a8.36,8.36,0,1,1,12,9.5,1,1,0,0,0-.58.77c-.68,3.48-1.37,7-2.09,10.44A4.32,4.32,0,0,1,29.41,31a4.89,4.89,0,0,1-1.33.15c-4.37,0-8.75-.05-13.12,0a4.46,4.46,0,0,1-4.64-3.85q-2-10.39-3.94-20.79C6.35,6.39,6.31,6.25,6.27,6.07Zm3.94,5.58c0,.17,0,.3.06.42q1.25,6.6,2.5,13.2a17.12,17.12,0,0,0,.52,2.14,1.21,1.21,0,0,0,1.21.95H28.32a1,1,0,0,0,.95-.5,6.2,6.2,0,0,0,.57-1.48c.46-2.14.87-4.29,1.29-6.44.18-.89.36-1.8.54-2.71l-.23,0a8.26,8.26,0,0,1-8-5.28c-.13-.29-.3-.28-.54-.28H10.21Zm26.54-2.8a5.58,5.58,0,1,0-5.54,5.58A5.54,5.54,0,0,0,36.75,8.85Z"/><path class="cls-2" d="M31.18,36.73a2.79,2.79,0,1,1-2.75-2.79A2.81,2.81,0,0,1,31.18,36.73Z"/><path class="cls-2" d="M17.22,36.71a2.79,2.79,0,1,1-2.78-2.77A2.81,2.81,0,0,1,17.22,36.71Z"/><path class="cls-2" d="M32.57,7.47h1.35a1.35,1.35,0,0,1,1.44,1.41,1.33,1.33,0,0,1-1.42,1.37H32.57c0,.48,0,.94,0,1.39a1.38,1.38,0,0,1-2.09,1.24,1.29,1.29,0,0,1-.7-1.21c0-.46,0-.92,0-1.42H28.35a1.35,1.35,0,0,1-1.43-1.38,1.35,1.35,0,0,1,1.4-1.41h1.46c0-.47,0-.93,0-1.39a1.4,1.4,0,0,1,2-1.29A1.3,1.3,0,0,1,32.57,6C32.58,6.47,32.57,6.94,32.57,7.47Z"/></g></g></svg>