<svg xmlns="http://www.w3.org/2000/svg" viewBox="0 0 40 40"><defs><style>.cls-1{fill:none;}.cls-2{fill:#fff;}</style></defs><g id="Layer_2" data-name="Layer 2"><g id="Layer_1-2" data-name="Layer 1"><rect class="cls-1" width="40" height="40"/><path class="cls-2" d="M32,13.2c-1.4.24-2.74.49-4.09.71a1.48,1.48,0,0,1-1.57-.65,1.45,1.45,0,0,1-.09-1.55,1.53,1.53,0,0,1,1.29-.83,16.74,16.74,0,0,0,3.9-.83l.24-.1c0-.42-.07-.85-.14-1.28a.41.41,0,0,0-.29-.21l-5.46-.55-5.61-.58a3.27,3.27,0,0,0-2.84,1L4.62,21A3.05,3.05,0,0,0,4,24.9a3.76,3.76,0,0,0,.61.77l9.71,9.72a3.06,3.06,0,0,0,3.85.64,4.54,4.54,0,0,0,.7-.52,1.52,1.52,0,0,1,2,2.28,6.06,6.06,0,0,1-7.22.91,7.72,7.72,0,0,1-1.47-1.14Q7.28,32.7,2.41,27.8a6.1,6.1,0,0,1,0-8.89L15.2,6.17A6.25,6.25,0,0,1,20.57,4.3c2.29.26,4.58.47,6.87.7.2,0,.4.08.55-.18a8.24,8.24,0,0,1,4.6-3.62A9.66,9.66,0,0,1,36.12.5,3.38,3.38,0,0,1,39,2.17a3.31,3.31,0,0,1,.52,1.88,8.22,8.22,0,0,1-4.14,7.49.68.68,0,0,0-.34.77c.27,2.57.56,5.13.77,7.7A5.76,5.76,0,0,1,34,24.73q-3.63,3.61-7.31,7.21a1.52,1.52,0,0,1-2.61-.59,1.43,1.43,0,0,1,.32-1.42c.22-.24.47-.47.7-.7,2.1-2.07,4.17-4.18,6.32-6.2a4,4,0,0,0,1.31-3.69c-.26-1.95-.42-3.92-.62-5.88A2.08,2.08,0,0,0,32,13.2Zm2.58-4.94A5.12,5.12,0,0,0,36.49,4a.57.57,0,0,0-.71-.51c-.77.18-1.54.35-2.28.6A5.24,5.24,0,0,0,31.39,5.4l1.48.15a1.57,1.57,0,0,1,1.62,1.5C34.54,7.45,34.58,7.85,34.62,8.26Z"/><path class="cls-2" d="M22.39,15.75l.56-.56a1.52,1.52,0,1,1,2.19,2.11c-.2.22-.4.43-.54.56a13.84,13.84,0,0,1,.56,1.86,3.36,3.36,0,0,1-1,3,1.5,1.5,0,0,1-2.13.13,1.53,1.53,0,0,1-.15-2.13.78.78,0,0,0-.06-1.21c-.29-.3-.58-.6-.89-.88a1.2,1.2,0,0,0-1.79.07,1.31,1.31,0,0,0-.22,1.9c.37.41.78.77,1.14,1.18a4.32,4.32,0,0,1-2.3,7.15,4,4,0,0,1-3-.5c-.15-.08-.28-.17-.45-.28-.21.2-.42.4-.64.59a1.52,1.52,0,1,1-2.09-2.2c.16-.18.35-.33.47-.45a15.08,15.08,0,0,1-.77-1.57,3.54,3.54,0,0,1,.89-3.69,1.48,1.48,0,0,1,2.06-.12,1.5,1.5,0,0,1,.25,2.06c-.47.66-.45.85.13,1.43.43.43.86.87,1.29,1.29a1.2,1.2,0,0,0,1.85.09,1.22,1.22,0,0,0-.06-1.88c-.33-.33-.67-.65-1-1a4.33,4.33,0,0,1,0-5.89,4.25,4.25,0,0,1,3.78-1.56A15.9,15.9,0,0,1,22.39,15.75Z"/></g></g></svg>