<svg xmlns="http://www.w3.org/2000/svg" width="345" height="307" viewBox="0 0 345 307">
  <g id="Group_931" data-name="Group 931" transform="translate(-14679 -4193)">
    <g id="Group_898" data-name="Group 898" transform="translate(581 -59)" opacity="0">
      <rect id="Rectangle_1318" data-name="Rectangle 1318" width="345" height="307" transform="translate(14098 4252)" fill="#fff"/>
    </g>
    <g id="Analysis-pana" transform="translate(14634.486 4173.52)">
      <g id="freepik--background-simple--inject-36" transform="translate(118.937 59.694)">
        <path id="Path_22888" data-name="Path 22888" d="M416.627,92.737c-6.977-15.192-22.588-26.745-39.292-26.4-19.1.384-34.716,15.035-46.624,29.972S307.7,128.1,290.454,136.325c-15.844,7.558-34.239,6.547-51.781,5.855s-36.216-.581-51.118,8.669c-13.733,8.547-20.262,21.774-19.727,37.943s14.425,36.7,28.693,44.315c34.193,20.4,81.247,22.867,152.749,4.651,27.012-8.8,36.67-24.489,49.42-37.158,11.861-11.768,24.245-35.809,25.85-58.543C425.7,125.784,423.58,107.923,416.627,92.737Z" transform="translate(-167.798 -66.327)" fill="#ebebeb"/>
      </g>
      <g id="freepik--Analysis--inject-36" transform="translate(153.579 50.48)">
        <rect id="Rectangle_1485" data-name="Rectangle 1485" width="154.697" height="101.468" transform="translate(0.11 0.122)" fill="#fafafa"/>
        <path id="Path_22890" data-name="Path 22890" d="M382.193,152.07c0-.977-.047-39.583-.122-101.468l.122.122L227.5,50.782h0l.151-.151V152.1l-.14-.14,154.7.14-154.7.14h-.134V50.48H382.35V50.6C382.24,112.488,382.193,151.094,382.193,152.07Z" transform="translate(-227.38 -50.48)" fill="#263238"/>
        <path id="Path_22891" data-name="Path 22891" d="M308.827,147.06l15.216.215a15.15,15.15,0,0,1-15.216,14.716h-.087Z" transform="translate(-261.436 -90.907)" fill="#455a64"/>
        <path id="Path_22892" data-name="Path 22892" d="M337.828,174.174a1.279,1.279,0,0,1-.326,0l-.93.029-3.4.035h-.041l-.029-.035c-1.355-1.715-3.1-3.919-5.018-6.326l-4.07-5.163.076.041-4.477-.041-1.25-.029a2.606,2.606,0,0,1-.442,0,2.18,2.18,0,0,1,.442-.035h1.25l4.477-.041h.052v.035l4.07,5.14,4.983,6.355-.076-.029,3.4.035h.93A1.418,1.418,0,0,1,337.828,174.174Z" transform="translate(-265.279 -97.416)" fill="#263238"/>
        <path id="Path_22893" data-name="Path 22893" d="M354.459,185.436c0,.064-2.2.116-4.925.116s-4.925-.052-4.925-.116,2.2-.116,4.925-.116S354.459,185.372,354.459,185.436Z" transform="translate(-276.451 -106.922)" fill="#263238"/>
        <path id="Path_22894" data-name="Path 22894" d="M354.459,188.566c0,.064-2.2.116-4.925.116s-4.925-.052-4.925-.116,2.2-.116,4.925-.116S354.459,188.5,354.459,188.566Z" transform="translate(-276.451 -108.232)" fill="#263238"/>
        <path id="Path_22895" data-name="Path 22895" d="M293.8,132.591l-.215,14.919a14.93,14.93,0,1,1,15.431-14.925Z" transform="translate(-248.812 -78.601)" fill="#0091ff"/>
        <path id="Path_22896" data-name="Path 22896" d="M284.639,128.234a.768.768,0,0,1-.262.064l-.762.122-2.733.384h-.041l-.035-.035-3.645-3.547c-1.744-1.744-3.332-3.279-4.459-4.425l-1.337-1.355a4.143,4.143,0,0,1-.465-.523,3.95,3.95,0,0,1,.529.459l1.384,1.3c1.163,1.11,2.762,2.657,4.512,4.378l3.616,3.576h-.081l2.744-.3.762-.07A1.383,1.383,0,0,1,284.639,128.234Z" transform="translate(-245.597 -79.128)" fill="#263238"/>
        <path id="Path_22897" data-name="Path 22897" d="M257.183,117.716c0,.064-2.2.116-4.925.116s-4.919-.052-4.919-.116,2.2-.116,4.919-.116S257.183,117.652,257.183,117.716Z" transform="translate(-235.735 -78.576)" fill="#263238"/>
        <path id="Path_22898" data-name="Path 22898" d="M257.183,120.856c0,.064-2.2.116-4.925.116s-4.919-.052-4.919-.116,2.2-.116,4.919-.116S257.183,120.792,257.183,120.856Z" transform="translate(-235.735 -79.89)" fill="#263238"/>
        <path id="Path_22899" data-name="Path 22899" d="M388.027,85.923l-.064-9.3a11.82,11.82,0,0,0-7.675,3.012,10.983,10.983,0,0,0-3.686,9.6,12.714,12.714,0,0,0,.215,1.349.076.076,0,0,1,0,.035h0l11.175-2.512Z" transform="translate(-289.809 -61.422)" fill="#0091ff"/>
        <g id="Group_911" data-name="Group 911" transform="translate(86.713 15.198)" opacity="0.3">
          <path id="Path_22900" data-name="Path 22900" d="M388.027,85.923l-.064-9.3a11.82,11.82,0,0,0-7.675,3.012,10.983,10.983,0,0,0-3.686,9.6,12.714,12.714,0,0,0,.215,1.349.076.076,0,0,1,0,.035h0l11.175-2.512Z" transform="translate(-376.522 -76.62)" fill="#fff"/>
        </g>
        <path id="Path_22901" data-name="Path 22901" d="M408.682,83.139a11,11,0,0,0-9.018-6.314l-.355-.035h-.959l.058,9.3v2.18l11.175,2.442h0a11.376,11.376,0,0,0,.25-2.4A12.03,12.03,0,0,0,408.682,83.139Z" transform="translate(-298.946 -61.493)" fill="#0091ff"/>
        <g id="Group_912" data-name="Group 912" transform="translate(99.404 15.297)" opacity="0.3">
          <path id="Path_22902" data-name="Path 22902" d="M408.682,83.139a11,11,0,0,0-9.018-6.314l-.355-.035h-.959l.058,9.3v2.18l11.175,2.442h0a11.376,11.376,0,0,0,.25-2.4A12.03,12.03,0,0,0,408.682,83.139Z" transform="translate(-398.35 -76.79)"/>
        </g>
        <path id="Path_22903" data-name="Path 22903" d="M389.295,98.36l-11.175,2.518a11.454,11.454,0,0,0,22.367-.076L389.306,98.36" transform="translate(-290.478 -70.522)" fill="#0091ff"/>
        <path id="Path_22904" data-name="Path 22904" d="M453.585,95.381c0,.081-5.779.151-12.907.151s-12.907-.07-12.907-.151,5.779-.151,12.907-.151S453.585,95.3,453.585,95.381Z" transform="translate(-311.261 -69.212)" fill="#263238"/>
        <path id="Path_22905" data-name="Path 22905" d="M453.585,90.321c0,.081-5.779.151-12.907.151s-12.907-.07-12.907-.151,5.779-.151,12.907-.151S453.585,90.24,453.585,90.321Z" transform="translate(-311.261 -67.094)" fill="#263238"/>
        <path id="Path_22906" data-name="Path 22906" d="M453.585,85.261c0,.081-5.779.151-12.907.151s-12.907-.07-12.907-.151,5.779-.151,12.907-.151S453.585,85.18,453.585,85.261Z" transform="translate(-311.261 -64.976)" fill="#263238"/>
        <path id="Path_22907" data-name="Path 22907" d="M453.585,100.091c0,.081-5.779.151-12.907.151s-12.907-.07-12.907-.151,5.779-.151,12.907-.151S453.585,100,453.585,100.091Z" transform="translate(-311.261 -71.183)" fill="#263238"/>
        <path id="Path_22908" data-name="Path 22908" d="M445.657,105.211c0,.081-3.971.151-8.867.151s-8.861-.07-8.861-.151,3.965-.151,8.861-.151S445.657,105.13,445.657,105.211Z" transform="translate(-311.328 -73.326)" fill="#263238"/>
        <rect id="Rectangle_1486" data-name="Rectangle 1486" width="2.657" height="29.693" transform="translate(89.439 53.182)" fill="#0091ff"/>
        <rect id="Rectangle_1487" data-name="Rectangle 1487" width="2.657" height="19.605" transform="translate(94.573 63.264)" fill="#0091ff"/>
        <rect id="Rectangle_1488" data-name="Rectangle 1488" width="2.657" height="26.152" transform="translate(99.707 56.874)" fill="#0091ff"/>
        <rect id="Rectangle_1489" data-name="Rectangle 1489" width="2.657" height="28.547" transform="translate(104.841 54.327)" fill="#0091ff"/>
        <rect id="Rectangle_1490" data-name="Rectangle 1490" width="2.657" height="19.001" transform="translate(109.974 63.868)" fill="#0091ff"/>
        <rect id="Rectangle_1491" data-name="Rectangle 1491" width="2.657" height="15.274" transform="translate(115.102 67.595)" fill="#0091ff"/>
        <rect id="Rectangle_1492" data-name="Rectangle 1492" width="2.657" height="26.646" transform="translate(120.236 56.229)" fill="#0091ff"/>
        <rect id="Rectangle_1493" data-name="Rectangle 1493" width="2.657" height="21.838" transform="translate(125.37 61.031)" fill="#0091ff"/>
        <rect id="Rectangle_1494" data-name="Rectangle 1494" width="2.657" height="25.681" transform="translate(130.504 57.194)" fill="#0091ff"/>
        <rect id="Rectangle_1495" data-name="Rectangle 1495" width="2.657" height="17.495" transform="translate(135.638 65.38)" fill="#0091ff"/>
        <rect id="Rectangle_1496" data-name="Rectangle 1496" width="2.657" height="20.826" transform="translate(140.766 62.048)" fill="#0091ff"/>
        <path id="Path_22909" data-name="Path 22909" d="M435.377,196.495c0,.064-12.611.11-28.164.11s-28.164-.047-28.164-.11,12.605-.1,28.164-.1S435.377,196.437,435.377,196.495Z" transform="translate(-290.867 -111.556)" fill="#263238"/>
        <path id="Path_22910" data-name="Path 22910" d="M384.9,200.515a17.692,17.692,0,0,1-3.948,0,18.669,18.669,0,0,1,3.948,0Z" transform="translate(-291.662 -113.239)" fill="#263238"/>
        <path id="Path_22911" data-name="Path 22911" d="M395.605,200.72a25.216,25.216,0,0,1-4.715,0A25.216,25.216,0,0,1,395.605,200.72Z" transform="translate(-295.823 -113.322)" fill="#263238"/>
        <path id="Path_22912" data-name="Path 22912" d="M405.2,200.72a25.216,25.216,0,0,1-4.715,0,25.216,25.216,0,0,1,4.715,0Z" transform="translate(-299.837 -113.322)" fill="#263238"/>
        <path id="Path_22913" data-name="Path 22913" d="M414.8,200.72a25.215,25.215,0,0,1-4.715,0A25.215,25.215,0,0,1,414.8,200.72Z" transform="translate(-303.856 -113.322)" fill="#263238"/>
        <path id="Path_22914" data-name="Path 22914" d="M424.4,200.72a25.274,25.274,0,0,1-4.721,0,25.27,25.27,0,0,1,4.721,0Z" transform="translate(-307.874 -113.322)" fill="#263238"/>
        <path id="Path_22915" data-name="Path 22915" d="M434.005,200.72a25.216,25.216,0,0,1-4.715,0,25.216,25.216,0,0,1,4.715,0Z" transform="translate(-311.897 -113.322)" fill="#263238"/>
        <path id="Path_22916" data-name="Path 22916" d="M443.605,200.72a25.216,25.216,0,0,1-4.715,0A25.216,25.216,0,0,1,443.605,200.72Z" transform="translate(-315.915 -113.322)" fill="#263238"/>
        <path id="Path_22917" data-name="Path 22917" d="M453.205,200.72a25.216,25.216,0,0,1-4.715,0A25.216,25.216,0,0,1,453.205,200.72Z" transform="translate(-319.934 -113.322)" fill="#263238"/>
        <path id="Path_22918" data-name="Path 22918" d="M462.805,200.72a25.215,25.215,0,0,1-4.715,0A25.215,25.215,0,0,1,462.805,200.72Z" transform="translate(-323.952 -113.322)" fill="#263238"/>
        <path id="Path_22919" data-name="Path 22919" d="M472.405,200.72a25.216,25.216,0,0,1-4.715,0,25.216,25.216,0,0,1,4.715,0Z" transform="translate(-327.97 -113.322)" fill="#263238"/>
        <g id="Group_913" data-name="Group 913" transform="translate(94.573 63.264)" opacity="0.3">
          <rect id="Rectangle_1497" data-name="Rectangle 1497" width="2.657" height="19.605" fill="#fff"/>
        </g>
        <g id="Group_914" data-name="Group 914" transform="translate(104.841 54.327)" opacity="0.3">
          <rect id="Rectangle_1498" data-name="Rectangle 1498" width="2.657" height="28.547" fill="#fff"/>
        </g>
        <g id="Group_915" data-name="Group 915" transform="translate(115.102 67.595)" opacity="0.3">
          <rect id="Rectangle_1499" data-name="Rectangle 1499" width="2.657" height="15.274" fill="#fff"/>
        </g>
        <g id="Group_916" data-name="Group 916" transform="translate(125.37 61.031)" opacity="0.3">
          <rect id="Rectangle_1500" data-name="Rectangle 1500" width="2.657" height="21.838" fill="#fff"/>
        </g>
        <g id="Group_917" data-name="Group 917" transform="translate(135.638 65.38)" opacity="0.3">
          <rect id="Rectangle_1501" data-name="Rectangle 1501" width="2.657" height="17.495" fill="#fff"/>
        </g>
        <circle id="Ellipse_128" data-name="Ellipse 128" cx="2.558" cy="2.558" r="2.558" transform="translate(13.791 16.634)" fill="#0091ff"/>
        <path id="Path_22920" data-name="Path 22920" d="M307.822,79.891c0,.081-8.628.151-19.268.151s-19.274-.07-19.274-.151,8.628-.151,19.274-.151S307.822,79.821,307.822,79.891Z" transform="translate(-244.919 -62.728)" fill="#0091ff"/>
        <path id="Path_22921" data-name="Path 22921" d="M284.973,85.231a2.122,2.122,0,0,1-.581.058l-1.628.052c-1.378,0-3.273.041-5.372.041s-3.994,0-5.372-.041l-1.628-.052a2.122,2.122,0,0,1-.581-.058,2.442,2.442,0,0,1,.581-.058c.384,0,.942-.035,1.628-.047,1.378,0,3.273-.047,5.372-.047s3.994,0,5.372.047a15.742,15.742,0,0,1,1.628.047A2.442,2.442,0,0,1,284.973,85.231Z" transform="translate(-245.141 -64.963)" fill="#0091ff"/>
      </g>
      <g id="freepik--character-2--inject-36" transform="translate(238.774 126.078)">
        <path id="Path_22922" data-name="Path 22922" d="M465.456,252.611a6.134,6.134,0,0,1,.128-2.907,6.023,6.023,0,0,1,1.244-2.7c.081.047-.581,1.163-.948,2.733S465.549,252.6,465.456,252.611Z" transform="translate(-412.181 -208.339)" fill="#eb996e"/>
        <path id="Path_22923" data-name="Path 22923" d="M445.87,228.963,429.707,210.77a3.149,3.149,0,0,1-1.3-1.791,5.2,5.2,0,0,1,.122-1.744,8.141,8.141,0,0,1,.715-2,.651.651,0,0,0-.692-1.035,5.413,5.413,0,0,0-2.256,3.814.872.872,0,0,1-1.209.529c-1.39-.488-6.1-2.413-6.948-2.628-.75-.186-1.651-.157-1.163.4a28.607,28.607,0,0,0,3.332,2.279c-1.25-.756-3.954-2.326-4.25-1.8-.169.3.163.872,1.273,1.663a5.762,5.762,0,0,0-1.8-.767c-1.442.145,3,2.988,3,2.988-3.134-1.965-2.983-2.087-3.332-1.744-.262.273.285.913,1.82,2.215,1.25,1.052,7.4,6.471,7.4,6.471l12.39,20.349a11.628,11.628,0,0,0,8.721,4.907l25.321-.541,2.832-14.21Z" transform="translate(-391.165 -190.412)" fill="#ffbe9d"/>
        <path id="Path_22924" data-name="Path 22924" d="M421.135,215.431a9.592,9.592,0,0,1-2.2-1.256,9.708,9.708,0,0,1-2.017-1.535,9.831,9.831,0,0,1,2.2,1.256A9.727,9.727,0,0,1,421.135,215.431Z" transform="translate(-391.913 -193.956)" fill="#eb996e"/>
        <path id="Path_22925" data-name="Path 22925" d="M422.325,213.564a10.848,10.848,0,0,1-2.419-1.2,11.122,11.122,0,0,1-2.256-1.5,10.982,10.982,0,0,1,2.419,1.2A11.122,11.122,0,0,1,422.325,213.564Z" transform="translate(-392.219 -193.211)" fill="#eb996e"/>
        <path id="Path_22926" data-name="Path 22926" d="M424.031,211.7a9.709,9.709,0,0,1-2.326-1.1,9.814,9.814,0,0,1-2.145-1.4,9.936,9.936,0,0,1,2.326,1.1A9.709,9.709,0,0,1,424.031,211.7Z" transform="translate(-393.018 -192.516)" fill="#eb996e"/>
        <path id="Path_22927" data-name="Path 22927" d="M389.172,430.09l-3.25,9.977s-11.233.047-12.012,1.831l19.117,6.977,5.7-15.338Z" transform="translate(-373.91 -284.978)" fill="#0091ff"/>
        <path id="Path_22928" data-name="Path 22928" d="M404.385,449.445a.831.831,0,0,1,.215,1.087.8.8,0,0,1-1.081.221.884.884,0,0,1-.221-1.163.837.837,0,0,1,1.163-.1" transform="translate(-386.157 -293.018)" fill="#e0e0e0"/>
        <path id="Path_22929" data-name="Path 22929" d="M393.039,456.9l.581-1.529-18.57-6.163s-.988.058-1.111.692Z" transform="translate(-373.923 -292.981)" fill="#e0e0e0"/>
        <path id="Path_22930" data-name="Path 22930" d="M394.1,446.865c-.035.093.419.308.767.773s.453.954.552.948.157-.581-.279-1.163S394.11,446.772,394.1,446.865Z" transform="translate(-382.36 -291.986)" fill="#263238"/>
        <path id="Path_22931" data-name="Path 22931" d="M390.125,447.038c-.058.081.291.39.465.9s.11.959.2.988.349-.471.122-1.1S390.16,446.95,390.125,447.038Z" transform="translate(-380.695 -292.065)" fill="#263238"/>
        <path id="Path_22932" data-name="Path 22932" d="M386.536,449.111c.076.052.378-.366.326-.965s-.419-.965-.483-.9.1.436.134.93S386.443,449.07,386.536,449.111Z" transform="translate(-379.123 -292.156)" fill="#263238"/>
        <path id="Path_22933" data-name="Path 22933" d="M395.81,443.04c0,.1.483.128.994.355s.866.547.942.483-.192-.541-.8-.8S395.786,442.971,395.81,443.04Z" transform="translate(-383.077 -290.352)" fill="#263238"/>
        <path id="Path_22934" data-name="Path 22934" d="M397,439.142a1.965,1.965,0,0,0,.959.343,4.448,4.448,0,0,0,1.11.058,4.338,4.338,0,0,0,.657-.087,1.384,1.384,0,0,0,.372-.122.436.436,0,0,0,.227-.483.541.541,0,0,0-.331-.36,1.232,1.232,0,0,0-.378-.081,3.718,3.718,0,0,0-.669,0,3.635,3.635,0,0,0-1.093.262c-.581.244-.878.541-.849.581s.355-.169.93-.343a4.175,4.175,0,0,1,1.029-.169,3.686,3.686,0,0,1,.61.035c.221,0,.4.081.413.192s0,.052-.058.1a1.516,1.516,0,0,1-.273.087,6.113,6.113,0,0,1-.61.1,5.923,5.923,0,0,1-1.058,0A6.585,6.585,0,0,0,397,439.142Z" transform="translate(-383.575 -288.454)" fill="#263238"/>
        <path id="Path_22935" data-name="Path 22935" d="M396.658,437.62a1.718,1.718,0,0,0,.581-.831,3.2,3.2,0,0,0,.221-1.744.843.843,0,0,0-.43-.7.483.483,0,0,0-.5.116,1.484,1.484,0,0,0-.227.32,2.326,2.326,0,0,0-.192,1.779c.192.634.541.89.581.861a7.415,7.415,0,0,1-.326-.919,2.378,2.378,0,0,1,.029-1.006,2,2,0,0,1,.221-.547c.1-.2.238-.331.308-.285a.763.763,0,0,1,.221.436,3.692,3.692,0,0,1,.047.581,3.488,3.488,0,0,1-.169,1.023C396.844,437.266,396.588,437.579,396.658,437.62Z" transform="translate(-383.163 -286.746)" fill="#263238"/>
        <path id="Path_22936" data-name="Path 22936" d="M453.8,308.129c-3.988-1.3-19.768-6.157-31.292-8.994a16.728,16.728,0,0,0-13.053,2.518h0a14.622,14.622,0,0,0-6.151,14.977l4.715,29.146,16.28-1.331-2.523-28.059,27.745,8.483,24.757-7.169-.07-1.2-20.425-8.372" transform="translate(-386.096 -229.996)" fill="#263238"/>
        <path id="Path_22937" data-name="Path 22937" d="M455.111,323.71l-34.978,7.558a15.634,15.634,0,0,0-11.309,9.739L391.65,388.416l14.239,4.39,19.349-43.4L453.4,345.92A30.675,30.675,0,0,0,472.455,336l4.925-5.465Z" transform="translate(-381.336 -240.449)" fill="#263238"/>
        <path id="Path_22938" data-name="Path 22938" d="M457.455,325.873l-.145.047-.436.1-1.68.39L449,327.791l-9.186,2.006-5.425,1.163c-1.878.413-3.843.791-5.814,1.3a17.9,17.9,0,0,0-5.43,2.279,14.227,14.227,0,0,0-3.814,3.907,34.8,34.8,0,0,0-3.773,8.541c-.866,2.529-1.512,4.6-2.111,5.983-.291.692-.547,1.215-.721,1.564l-.215.4a.483.483,0,0,1-.081.128.314.314,0,0,1,.058-.145l.18-.407c.163-.36.4-.89.669-1.587.581-1.384,1.227-3.442,2.018-6a31.312,31.312,0,0,1,3.75-8.628,14.315,14.315,0,0,1,3.878-4.006,18.105,18.105,0,0,1,5.512-2.326c1.988-.517,3.948-.89,5.814-1.3l5.43-1.163,9.2-1.942,6.209-1.279,1.692-.337.442-.076A.5.5,0,0,1,457.455,325.873Z" transform="translate(-390.034 -241.349)" fill="#455a64"/>
        <path id="Path_22939" data-name="Path 22939" d="M535.33,305.45a14.618,14.618,0,0,1-2.674,1.163,13.853,13.853,0,0,1-2.785.866,14.379,14.379,0,0,1,2.675-1.163A14.609,14.609,0,0,1,535.33,305.45Z" transform="translate(-439.193 -232.805)" fill="#eb996e"/>
        <path id="Path_22940" data-name="Path 22940" d="M505.737,240.46l-7.994,31.978-8.692,10.146,30.123,12.46L530,271.275l8.651-26.39A11.542,11.542,0,0,0,530.1,239.2l-12.425-.878Z" transform="translate(-422.106 -204.706)" fill="#0091ff"/>
        <path id="Path_22941" data-name="Path 22941" d="M502.421,241.96l-21.291,2.058,1.465,16.7,16.175-1.343,2.8-13.518Z" transform="translate(-418.791 -206.229)" fill="#0091ff"/>
        <path id="Path_22942" data-name="Path 22942" d="M510.244,253.43a7.034,7.034,0,0,1-.186,1.012c-.163.692-.372,1.611-.622,2.727-.541,2.3-1.308,5.471-2.169,8.971s-1.657,6.663-2.25,8.948l-.715,2.7a6.8,6.8,0,0,1-.3.971,6.122,6.122,0,0,1,.186-1.012c.163-.692.372-1.611.622-2.727.541-2.3,1.3-5.471,2.169-8.971s1.674-6.651,2.256-8.936l.715-2.7A5.976,5.976,0,0,1,510.244,253.43Z" transform="translate(-428.364 -211.03)" fill="#263238"/>
        <path id="Path_22943" data-name="Path 22943" d="M513.884,298.893c-.035.041-.477-.343-1.3-.773a11.007,11.007,0,0,0-3.43-1.07,21.512,21.512,0,0,0-3.628-.186,7.966,7.966,0,0,1-1.529-.041,7.081,7.081,0,0,1,1.512-.186,16.173,16.173,0,0,1,3.674.1,9.616,9.616,0,0,1,3.488,1.163A3.727,3.727,0,0,1,513.884,298.893Z" transform="translate(-428.364 -229.092)" fill="#263238"/>
        <path id="Path_22944" data-name="Path 22944" d="M527.4,243.027a4.954,4.954,0,0,0,.18.581,4.071,4.071,0,0,0,.855,1.361,2.587,2.587,0,0,0,2.215.488,7.446,7.446,0,0,0,1.326-.512c.453-.209.93-.43,1.407-.663l4.925-2.4,1.5-.715a2.129,2.129,0,0,1,.581-.227,2.685,2.685,0,0,1-.517.331c-.337.2-.837.471-1.454.8-1.238.663-2.959,1.558-4.89,2.483-.483.233-.959.454-1.424.657a6.918,6.918,0,0,1-1.39.517,2.75,2.75,0,0,1-2.413-.581,3.612,3.612,0,0,1-.82-1.477,1.268,1.268,0,0,1-.081-.645Z" transform="translate(-438.155 -205.802)" fill="#263238"/>
        <g id="Group_918" data-name="Group 918" transform="translate(75.636 67.034)" opacity="0.3">
          <path id="Path_22945" data-name="Path 22945" d="M504,296.5a26.641,26.641,0,0,1,9.57-.465,3.733,3.733,0,0,1,2.035.738,1.425,1.425,0,0,1,.244,1.954A1.471,1.471,0,0,1,514.4,299c-.5-.145-1.11-.913-1.552-1.163-2.459-1.552-5.552-1.634-8.646-1.32" transform="translate(-504 -295.8)"/>
        </g>
        <g id="Group_919" data-name="Group 919" transform="translate(100.906 40.835)" opacity="0.3">
          <path id="Path_22946" data-name="Path 22946" d="M548.136,252.053c-2.535,7.186,2.57,15.239,7.361,21.163l1.227-3.663S550.682,244.855,548.136,252.053Z" transform="translate(-547.463 -250.738)"/>
        </g>
        <path id="Path_22947" data-name="Path 22947" d="M539.286,283.5a6.043,6.043,0,0,0-.849-1.081,5.814,5.814,0,0,0-3.349-1.506,11.628,11.628,0,0,0-5.407.983c-1.954.733-4.07,1.843-6.535,2.134a11.949,11.949,0,0,1-6.744-1.2,11.552,11.552,0,0,1-4.25-3.663,11.43,11.43,0,0,1-1.657-3.407,9.118,9.118,0,0,1-.244-1,1.643,1.643,0,0,1-.041-.361c.029,0,.116.483.4,1.326a12.167,12.167,0,0,0,1.744,3.314,11.512,11.512,0,0,0,4.2,3.541,11.791,11.791,0,0,0,6.587,1.163c2.4-.279,4.494-1.366,6.471-2.093a11.936,11.936,0,0,1,5.529-.93,5.814,5.814,0,0,1,3.4,1.634,4.3,4.3,0,0,1,.616.831,1.742,1.742,0,0,1,.14.314Z" transform="translate(-430.963 -219.808)" fill="#fafafa"/>
        <path id="Path_22948" data-name="Path 22948" d="M513.05,259.095a.756.756,0,0,1,.064-.256,2.126,2.126,0,0,1,.384-.651,3.2,3.2,0,0,1,2.529-1.012,7.583,7.583,0,0,1,3.756,1.558c1.256.855,2.611,1.884,4.07,2.849a14.844,14.844,0,0,0,4.413,2.128,8.838,8.838,0,0,0,3.965.134,6,6,0,0,0,2.442-1.087l.331-.267.227-.221a.993.993,0,0,1,.2-.169,2.022,2.022,0,0,1-.151.215l-.209.238-.32.291a5.767,5.767,0,0,1-2.471,1.209,8.849,8.849,0,0,1-4.07-.07,14.85,14.85,0,0,1-4.512-2.145c-1.477-.983-2.8-2.017-4.07-2.872a7.739,7.739,0,0,0-3.616-1.576,3.116,3.116,0,0,0-2.43.878A3.382,3.382,0,0,0,513.05,259.095Z" transform="translate(-432.152 -212.596)" fill="#fafafa"/>
        <path id="Path_22949" data-name="Path 22949" d="M494.919,261a2.035,2.035,0,0,1-.506-.5,5.169,5.169,0,0,1-.884-1.744,5.285,5.285,0,0,1-.029-2.907,20.525,20.525,0,0,1,1.512-3.163,6.4,6.4,0,0,0,.547-3.326,7.012,7.012,0,0,0-.808-2.663,8.773,8.773,0,0,0-1.611-2.029.277.277,0,0,1,.163.093,3.021,3.021,0,0,1,.413.326,6.024,6.024,0,0,1,1.227,1.506,7.134,7.134,0,0,1,.9,2.738,6.553,6.553,0,0,1-.552,3.488,22.616,22.616,0,0,0-1.517,3.111,5.2,5.2,0,0,0-.029,2.75,6.4,6.4,0,0,0,1.18,2.32Z" transform="translate(-423.818 -207.364)" fill="#fafafa"/>
        <path id="Path_22950" data-name="Path 22950" d="M512.8,242.57a8.761,8.761,0,0,1-.907,1.744,25.032,25.032,0,0,0-2.221,4.145,7.077,7.077,0,0,0-.471,2.5,5.321,5.321,0,0,0,.407,2.023,5.657,5.657,0,0,0,1.1,1.576,1.273,1.273,0,0,1-.436-.308,3.884,3.884,0,0,1-.861-1.163,5.175,5.175,0,0,1-.494-2.1,7.087,7.087,0,0,1,.465-2.611,20.559,20.559,0,0,1,2.326-4.151C512.385,243.2,512.757,242.546,512.8,242.57Z" transform="translate(-430.423 -206.484)" fill="#fafafa"/>
        <path id="Path_22951" data-name="Path 22951" d="M510.526,311.241c-.052.035-.506-.692-1.465-1.657a13.093,13.093,0,0,0-1.837-1.523,14.206,14.206,0,0,0-2.564-1.384,14.533,14.533,0,0,0-2.808-.8,13.445,13.445,0,0,0-2.378-.186c-1.361,0-2.192.227-2.2.163a2.452,2.452,0,0,1,.581-.163,5.053,5.053,0,0,1,.692-.122,7.04,7.04,0,0,1,.93-.087,12.051,12.051,0,0,1,2.43.122,13.9,13.9,0,0,1,2.878.791,14.223,14.223,0,0,1,2.611,1.436,12.071,12.071,0,0,1,1.826,1.611,7.618,7.618,0,0,1,.581.709,5.609,5.609,0,0,1,.413.581,2.2,2.2,0,0,1,.314.512Z" transform="translate(-425.547 -232.811)" fill="#fafafa"/>
        <path id="Path_22952" data-name="Path 22952" d="M488.7,372.56l-.581,44.856-18.471,7.053,42.362-.2-18.692-7.116-.174-44.589Z" transform="translate(-413.986 -260.897)" fill="#455a64"/>
        <path id="Path_22953" data-name="Path 22953" d="M479.268,343.329c5.3,2.07,10.785,3.948,16.477,4.14s11.675-1.506,15.553-5.675c3.1-3.332,4.552-7.837,5.913-12.21l2.948-9.407c.814-2.6,2.041-5.646.581-7.041-2.087-1.965-7.669-2.721-9.768-.773-3.134,2.907-3.273,4.122-4.692,6.616-3.268,5.733-6.1,10.965-12.25,13.373-2.959,1.163-6.256,1.256-9.233,2.378s-6.006,5.43-5.506,8.576" transform="translate(-417.998 -235.224)" fill="#455a64"/>
        <path id="Path_22954" data-name="Path 22954" d="M537.283,219.954l-9.227,4.547a2.552,2.552,0,0,1-3.593-2.541l.64-7.483s-5-.738-5.1-5.733.68-16.466.68-16.466h0a17.344,17.344,0,0,1,17.442,2.064l.744.581Z" transform="translate(-435.059 -184.823)" fill="#ffbe9d"/>
        <path id="Path_22955" data-name="Path 22955" d="M528.766,230.021a11.628,11.628,0,0,0,6.494-1.9s-1.512,3.6-6.5,3.192Z" transform="translate(-438.728 -200.436)" fill="#eb996e"/>
        <path id="Path_22956" data-name="Path 22956" d="M551.385,206.632c.087-.035,3.424-1.041,3.343,2.378s-3.489,2.622-3.489,2.523S551.385,206.632,551.385,206.632Z" transform="translate(-448.138 -191.372)" fill="#ffbe9d"/>
        <path id="Path_22957" data-name="Path 22957" d="M553.067,211.05a.857.857,0,0,0,.157.093.611.611,0,0,0,.442,0,1.477,1.477,0,0,0,.715-1.308,1.947,1.947,0,0,0-.145-.855.686.686,0,0,0-.436-.465.3.3,0,0,0-.355.151c-.047.093-.029.163-.047.169s-.07-.058-.041-.2a.384.384,0,0,1,.14-.209.447.447,0,0,1,.331-.081.825.825,0,0,1,.581.547,1.959,1.959,0,0,1,.186.954,1.541,1.541,0,0,1-.9,1.454.628.628,0,0,1-.547-.1C553.067,211.137,553.056,211.05,553.067,211.05Z" transform="translate(-448.901 -192.157)" fill="#eb996e"/>
        <path id="Path_22958" data-name="Path 22958" d="M523.17,205.94a.721.721,0,0,0,.7.715.68.68,0,0,0,.727-.651.715.715,0,0,0-.692-.715.686.686,0,0,0-.733.651Z" transform="translate(-436.388 -190.878)" fill="#263238"/>
        <path id="Path_22959" data-name="Path 22959" d="M522.892,204.851c.087.093.622-.308,1.39-.314s1.337.378,1.419.279-.052-.209-.3-.384a2.018,2.018,0,0,0-1.163-.343,1.872,1.872,0,0,0-1.11.372C522.95,204.619,522.846,204.811,522.892,204.851Z" transform="translate(-436.267 -190.377)" fill="#263238"/>
        <path id="Path_22960" data-name="Path 22960" d="M536.1,206.09a.709.709,0,0,0,.692.709.68.68,0,0,0,.733-.645.715.715,0,0,0-.692-.715.686.686,0,0,0-.733.651Z" transform="translate(-441.801 -190.941)" fill="#263238"/>
        <path id="Path_22961" data-name="Path 22961" d="M535.862,205c.093.093.628-.308,1.4-.314s1.331.378,1.413.279-.047-.209-.3-.384a1.971,1.971,0,0,0-1.163-.343,1.872,1.872,0,0,0-1.1.366C535.9,204.792,535.822,204.96,535.862,205Z" transform="translate(-441.697 -190.44)" fill="#263238"/>
        <path id="Path_22962" data-name="Path 22962" d="M529.753,210.771a4.651,4.651,0,0,0-1.25-.221c-.2,0-.384-.052-.419-.186a1.006,1.006,0,0,1,.128-.581l.581-1.5a26.663,26.663,0,0,0,1.273-3.913,25.907,25.907,0,0,0-1.587,3.8c-.192.529-.372,1.029-.541,1.506a1.128,1.128,0,0,0-.1.767.465.465,0,0,0,.326.285,1.221,1.221,0,0,0,.331.047A5.292,5.292,0,0,0,529.753,210.771Z" transform="translate(-438.331 -190.495)" fill="#263238"/>
        <path id="Path_22963" data-name="Path 22963" d="M533.3,216.26c-.128,0-.122.826-.831,1.424s-1.593.512-1.6.628.2.157.581.169a2.11,2.11,0,0,0,1.337-.477,1.82,1.82,0,0,0,.645-1.2C533.451,216.458,533.353,216.254,533.3,216.26Z" transform="translate(-439.611 -195.471)" fill="#263238"/>
        <path id="Path_22964" data-name="Path 22964" d="M535.487,199.958c.076.209.843.1,1.744.2s1.634.343,1.744.157c.052-.093-.076-.285-.372-.488a3.058,3.058,0,0,0-2.657-.273C535.62,199.7,535.452,199.859,535.487,199.958Z" transform="translate(-441.542 -188.402)" fill="#263238"/>
        <path id="Path_22965" data-name="Path 22965" d="M523.336,201.018c.14.174.663,0,1.3,0s1.163.1,1.3-.076c.052-.093-.035-.267-.267-.43a1.9,1.9,0,0,0-2.093.081C523.348,200.75,523.278,200.931,523.336,201.018Z" transform="translate(-436.45 -188.765)" fill="#263238"/>
        <path id="Path_22966" data-name="Path 22966" d="M516.99,184.828a1.843,1.843,0,0,1,.669-1.651,1.314,1.314,0,0,1,1.7.116,1.523,1.523,0,0,1,1.3-1.861c.814-.058,1.512.581,2.326.762a3.733,3.733,0,0,0,2.326-.291c.733-.3,1.424-.715,2.169-.994a6.4,6.4,0,0,1,8.2,3.686,2.837,2.837,0,0,1,3.012,1.116,4.651,4.651,0,0,1,.738,3.273,10.731,10.731,0,0,1-.581,2.244v.192c-.046,2.744-.337,5.971-1.5,6-2.041.047-1.587-3.808-1.587-3.808-2.512-.948-1.6-4.709-2.238-5.273s-1.948-1.878-7.175.843a10.192,10.192,0,0,1-6.221.721h-.2a4.651,4.651,0,0,1-1.349-.581,2.7,2.7,0,0,1-1.122-1.227,1.454,1.454,0,0,1,.279-1.564A3.18,3.18,0,0,1,516.99,184.828Z" transform="translate(-433.796 -180.505)" fill="#263238"/>
        <path id="Path_22967" data-name="Path 22967" d="M540.838,256.242l8.367,17.733-13.291,5.715-2.634-.808a6.448,6.448,0,0,0-6.169,1.331L523,283.865h38.373a23.64,23.64,0,0,0,.07-15.46l-6.587-16.657c-1.866-4.523-6.721-8.21-11.186-6.209h0C539.32,247.486,538.942,251.882,540.838,256.242Z" transform="translate(-436.317 -207.494)" fill="#ffbe9d"/>
        <path id="Path_22968" data-name="Path 22968" d="M551.053,255.774c2.483,4.2,6.349,10.715,6.349,10.715l14.309-5.93s-6.169-11.7-8.14-14.669c-.808-1.209-2.587-3.686-7.843-4.32a11.1,11.1,0,0,0-1.628.419,6.977,6.977,0,0,0-4.832,5.308l-.122.628A13.476,13.476,0,0,0,551.053,255.774Z" transform="translate(-447.236 -206.066)" fill="#0091ff"/>
        <path id="Path_22969" data-name="Path 22969" d="M557.309,267.6a6.8,6.8,0,0,1-.581-.849l-1.512-2.361c-.64-1.017-1.39-2.215-2.221-3.529s-1.744-2.773-2.616-4.39a14.134,14.134,0,0,1-1.023-2.459,11.478,11.478,0,0,1-.43-2.448,12.673,12.673,0,0,1,.279-4.18,5.6,5.6,0,0,1,1.3-2.5l.32-.314.267-.186a1.043,1.043,0,0,1,.227-.145,1.519,1.519,0,0,1-.192.192l-.238.209-.3.32a5.774,5.774,0,0,0-1.163,2.477,12.653,12.653,0,0,0-.209,4.1,11.39,11.39,0,0,0,.436,2.39,14.2,14.2,0,0,0,1.006,2.407c.837,1.593,1.785,3.041,2.587,4.384l2.163,3.558c.581.988,1.07,1.808,1.436,2.419A6.835,6.835,0,0,1,557.309,267.6Z" transform="translate(-447.143 -207.184)" fill="#263238"/>
        <path id="Path_22970" data-name="Path 22970" d="M566.93,257.258a6.5,6.5,0,0,0-.61-.4,4.517,4.517,0,0,0-1.866-.581,7.186,7.186,0,0,0-2.907.372,22.627,22.627,0,0,0-3.268,1.535,13.862,13.862,0,0,1-3.4,1.39,6.233,6.233,0,0,1-3.006-.058,3.867,3.867,0,0,1-1.744-1.012,2.617,2.617,0,0,1-.337-.436c-.064-.1-.1-.163-.087-.169s.169.209.512.523a3.989,3.989,0,0,0,1.744.89,6.262,6.262,0,0,0,2.907,0,14.242,14.242,0,0,0,3.314-1.384,21.276,21.276,0,0,1,3.326-1.535,7.2,7.2,0,0,1,2.988-.32,4.268,4.268,0,0,1,1.907.68,2.435,2.435,0,0,1,.419.355A.376.376,0,0,1,566.93,257.258Z" transform="translate(-447.496 -212.12)" fill="#fafafa"/>
        <path id="Path_22971" data-name="Path 22971" d="M568.3,277.477c-.047.035-.407-.407-1.122-.948a8.1,8.1,0,0,0-1.337-.826,8.372,8.372,0,0,0-3.727-.837,8,8,0,0,0-1.564.169c-.878.186-1.4.424-1.419.372s.116-.087.343-.2a5.315,5.315,0,0,1,1.029-.378,7.146,7.146,0,0,1,1.6-.238,8.241,8.241,0,0,1,1.983.186,8.631,8.631,0,0,1,1.872.68,7.23,7.23,0,0,1,1.349.907,5.491,5.491,0,0,1,.767.779C568.233,277.344,568.315,277.46,568.3,277.477Z" transform="translate(-451.439 -219.885)" fill="#fafafa"/>
        <path id="Path_22972" data-name="Path 22972" d="M577.024,298.663c-.047,0-.308-.547-.936-1.326a7.832,7.832,0,0,0-6.843-2.907c-.994.087-1.587.3-1.6.244a1.163,1.163,0,0,1,.407-.18,5.814,5.814,0,0,1,1.163-.273,7.523,7.523,0,0,1,3.93.523,7.6,7.6,0,0,1,3.1,2.471,6.4,6.4,0,0,1,.616,1.035A1.162,1.162,0,0,1,577.024,298.663Z" transform="translate(-455.003 -228.077)" fill="#eb996e"/>
      </g>
      <g id="freepik--character-1--inject-36" transform="translate(58.05 68.648)">
        <path id="Path_22973" data-name="Path 22973" d="M72.514,426.4,69.09,439.982l-5.814,9.965a1.43,1.43,0,0,0,.581,2.006h0a1.419,1.419,0,0,0,1.314,0c2.611-1.407,12.169-6.628,12.367-7.634.227-1.163,4.558-14.088,4.558-14.088Z" transform="translate(-63.075 -226.003)" fill="#0091ff"/>
        <path id="Path_22974" data-name="Path 22974" d="M64.47,464.184l13.954-8.564-.157.581a2.186,2.186,0,0,1-.866,1.215c-1.163.767-4.32,2.831-11.553,6.773a1.436,1.436,0,0,1-1.355,0Z" transform="translate(-63.659 -238.234)" fill="#fff" opacity="0.6"/>
        <g id="Group_920" data-name="Group 920" transform="translate(12.615 212.231)" opacity="0.6">
          <path id="Path_22975" data-name="Path 22975" d="M85.335,446.786a.866.866,0,0,0-.535,1.029.837.837,0,0,0,1.017.535.913.913,0,0,0,.581-1.093.866.866,0,0,0-1.122-.436" transform="translate(-84.772 -446.753)" fill="#fff"/>
        </g>
        <path id="Path_22976" data-name="Path 22976" d="M70.886,460.115a4.32,4.32,0,0,0-.9-1.378,4.378,4.378,0,0,0-1.471-.727c0-.041.2-.1.523-.052a2.227,2.227,0,0,1,1.163.547,2.274,2.274,0,0,1,.68,1.081C70.956,459.905,70.921,460.109,70.886,460.115Z" transform="translate(-65.354 -239.205)" fill="#263238"/>
        <path id="Path_22977" data-name="Path 22977" d="M68.412,463.24c-.081.041-.39-.517-1.035-.913s-1.273-.442-1.267-.535a1.576,1.576,0,0,1,1.43.273C68.273,462.519,68.494,463.222,68.412,463.24Z" transform="translate(-64.345 -240.79)" fill="#263238"/>
        <path id="Path_22978" data-name="Path 22978" d="M74.355,456.715a14.42,14.42,0,0,0-1.506-1.512A14.873,14.873,0,0,0,71,454.18a3.925,3.925,0,0,1,3.378,2.535Z" transform="translate(-66.392 -237.631)" fill="#263238"/>
        <path id="Path_22979" data-name="Path 22979" d="M76.647,450.688c-.058.07-.721-.448-1.68-.75s-1.791-.285-1.8-.372a2.721,2.721,0,0,1,1.89.081,2.762,2.762,0,0,1,1.587,1.041Z" transform="translate(-67.3 -235.645)" fill="#263238"/>
        <path id="Path_22980" data-name="Path 22980" d="M78.417,443.906a6.86,6.86,0,0,0-1.744-.831,7.471,7.471,0,0,0-1.913-.047,1.365,1.365,0,0,1,.541-.256,3.145,3.145,0,0,1,2.733.657C78.33,443.679,78.446,443.876,78.417,443.906Z" transform="translate(-67.966 -232.822)" fill="#263238"/>
        <path id="Path_22981" data-name="Path 22981" d="M77.223,440.148a1.163,1.163,0,0,1,.122-.517,3.7,3.7,0,0,1,.762-1.227,1.64,1.64,0,0,1,.878-.581.581.581,0,0,1,.581.3.954.954,0,0,1,.047.669,2.023,2.023,0,0,1-2.215,1.337,2.366,2.366,0,0,1-1.9-1.8.814.814,0,0,1,.145-.663.581.581,0,0,1,.651-.134,1.971,1.971,0,0,1,.762.709,4.2,4.2,0,0,1,.634,1.3,1.285,1.285,0,0,1,.076.523,6.6,6.6,0,0,0-.855-1.7,1.826,1.826,0,0,0-.68-.581.3.3,0,0,0-.355.07.547.547,0,0,0-.064.442,2.1,2.1,0,0,0,1.663,1.547,1.744,1.744,0,0,0,1.9-1.11.669.669,0,0,0,0-.465.308.308,0,0,0-.326-.169,1.442,1.442,0,0,0-.756.465,5.426,5.426,0,0,0-1.064,1.587Z" transform="translate(-68.266 -230.64)" fill="#263238"/>
        <path id="Path_22982" data-name="Path 22982" d="M145.061,432.416l-.727,10.465s10.4,4.256,10.465,6.2l-20.349-.68.465-16.355Z" transform="translate(-92.951 -228.368)" fill="#0091ff"/>
        <path id="Path_22983" data-name="Path 22983" d="M140.254,448.8a.826.826,0,0,0-.581.924.8.8,0,0,0,.919.61.878.878,0,0,0,.634-.988.831.831,0,0,0-1.023-.529" transform="translate(-95.133 -235.371)" fill="#e0e0e0"/>
        <path id="Path_22984" data-name="Path 22984" d="M134.43,459l.11-1.645,19.472,1.262s.89.424.767,1.064Z" transform="translate(-92.943 -238.958)" fill="#e0e0e0"/>
        <path id="Path_22985" data-name="Path 22985" d="M150.635,450.449c0,.1-.506.128-1.006.43s-.773.715-.866.674.081-.616.692-.971S150.676,450.362,150.635,450.449Z" transform="translate(-98.933 -236.028)" fill="#263238"/>
        <path id="Path_22986" data-name="Path 22986" d="M154.626,452.131c0,.1-.419.256-.767.663s-.465.849-.581.843-.145-.581.3-1.07S154.626,452.038,154.626,452.131Z" transform="translate(-100.801 -236.757)" fill="#263238"/>
        <path id="Path_22987" data-name="Path 22987" d="M157.511,455.412c-.093,0-.215-.483.058-1.023s.744-.733.785-.651-.256.366-.477.808S157.61,455.4,157.511,455.412Z" transform="translate(-102.559 -237.438)" fill="#263238"/>
        <path id="Path_22988" data-name="Path 22988" d="M150.334,446.109c-.047.087-.5-.064-1.058-.047s-1.012.186-1.058.1.384-.43,1.047-.442S150.415,446.034,150.334,446.109Z" transform="translate(-98.713 -234.09)" fill="#263238"/>
        <path id="Path_22989" data-name="Path 22989" d="M149.793,441.507a1.861,1.861,0,0,1-1.017-.041,4.559,4.559,0,0,1-1.058-.36,4.811,4.811,0,0,1-.581-.331,1.25,1.25,0,0,1-.3-.25A.43.43,0,0,1,146.8,440a.581.581,0,0,1,.442-.215,1.221,1.221,0,0,1,.384.07,3.49,3.49,0,0,1,.628.238,3.75,3.75,0,0,1,.919.645,2.241,2.241,0,0,1,.581.849c0,.017-.267-.285-.733-.663a4.012,4.012,0,0,0-.9-.547,4.182,4.182,0,0,0-.581-.2c-.215-.064-.4-.07-.459,0s0,.052,0,.116a.943.943,0,0,0,.221.18,5.132,5.132,0,0,0,.523.326,5.926,5.926,0,0,0,.977.413A7.044,7.044,0,0,1,149.793,441.507Z" transform="translate(-98.09 -231.604)" fill="#263238"/>
        <path id="Path_22990" data-name="Path 22990" d="M151.638,440.689a1.628,1.628,0,0,1-.233-.994,3.111,3.111,0,0,1,.174-1.11,3.559,3.559,0,0,1,.279-.61.849.849,0,0,1,.669-.494.477.477,0,0,1,.413.3,1.244,1.244,0,0,1,.093.372,2.226,2.226,0,0,1,0,.686,2.274,2.274,0,0,1-.471,1.041c-.413.512-.831.622-.837.581a4.534,4.534,0,0,0,.64-.733,2.326,2.326,0,0,0,.355-.942,2.03,2.03,0,0,0,0-.581c0-.215-.1-.4-.18-.372a.749.749,0,0,0-.366.32,4,4,0,0,0-.273.547,3.57,3.57,0,0,0-.227,1.006C151.6,440.294,151.69,440.689,151.638,440.689Z" transform="translate(-100.046 -230.641)" fill="#263238"/>
        <path id="Path_22991" data-name="Path 22991" d="M114.882,96.7a24.638,24.638,0,0,1-1.419-3.756,6.708,6.708,0,0,1-.174-3.4,2.384,2.384,0,0,1,2.535-1.628,5.75,5.75,0,0,1,3.209-4.587,14.634,14.634,0,0,1,5.471-1.57,4.651,4.651,0,0,1,2.07.209,2.651,2.651,0,0,1,1.279,1.3,4.564,4.564,0,0,1,4.029-.75c1.523.378,3.273,1.163,3.971,2.558a4.425,4.425,0,0,1,.209,3.355c-.273.93-1.215,2.407-2.134,2.093" transform="translate(-84.023 -81.728)" fill="#263238"/>
        <path id="Path_22992" data-name="Path 22992" d="M117.734,126.351l13.663-.628c.081-1.448-.663-10.419-.663-10.419s5.169-.8,5.233-5.965-.831-17.018-.831-17.018h0a17.954,17.954,0,0,0-18.024,2.262l-.762.581Z" transform="translate(-85.375 -85.552)" fill="#b78876"/>
        <path id="Path_22993" data-name="Path 22993" d="M136.263,131.393a12,12,0,0,1-6.733-1.913s1.593,3.715,6.744,3.25Z" transform="translate(-90.892 -101.716)" fill="#aa6550"/>
        <path id="Path_22994" data-name="Path 22994" d="M114.944,107.361c-.087-.041-3.547-1.052-3.436,2.477s3.634,2.692,3.64,2.587S114.944,107.361,114.944,107.361Z" transform="translate(-83.347 -92.389)" fill="#b78876"/>
        <path id="Path_22995" data-name="Path 22995" d="M114.673,111.987a1,1,0,0,1-.163.1.628.628,0,0,1-.459,0,1.535,1.535,0,0,1-.75-1.343,2.1,2.1,0,0,1,.145-.89.692.692,0,0,1,.448-.483.308.308,0,0,1,.366.157c.052.093.035.169.052.174s.076-.064.041-.209a.407.407,0,0,0-.145-.215.459.459,0,0,0-.343-.081.866.866,0,0,0-.628.581,2.1,2.1,0,0,0-.18.988,1.6,1.6,0,0,0,.948,1.5.669.669,0,0,0,.581-.116C114.668,112.045,114.685,111.987,114.673,111.987Z" transform="translate(-83.995 -93.223)" fill="#aa6550"/>
        <path id="Path_22996" data-name="Path 22996" d="M145.641,106.8a.738.738,0,0,1-.709.744.7.7,0,0,1-.762-.663.733.733,0,0,1,.709-.744.7.7,0,0,1,.762.663Z" transform="translate(-97.02 -91.945)" fill="#263238"/>
        <path id="Path_22997" data-name="Path 22997" d="M144.888,105.3c-.093.093-.651-.32-1.448-.314s-1.372.4-1.459.3.052-.221.3-.407a2.064,2.064,0,0,1,1.163-.36,1.971,1.971,0,0,1,1.163.372C144.836,105.078,144.917,105.253,144.888,105.3Z" transform="translate(-96.093 -91.268)" fill="#263238"/>
        <path id="Path_22998" data-name="Path 22998" d="M132.271,107.121a.733.733,0,0,1-.709.744.7.7,0,0,1-.762-.663.744.744,0,0,1,.709-.744.7.7,0,0,1,.762.663Z" transform="translate(-91.424 -92.079)" fill="#263238"/>
        <path id="Path_22999" data-name="Path 22999" d="M131.448,105.553c-.093.1-.651-.314-1.442-.314s-1.378.4-1.465.3.052-.215.308-.4a2.018,2.018,0,0,1,1.163-.36,1.948,1.948,0,0,1,1.163.372C131.408,105.338,131.495,105.489,131.448,105.553Z" transform="translate(-90.467 -91.377)" fill="#263238"/>
        <path id="Path_23000" data-name="Path 23000" d="M138.263,111.483a5.815,5.815,0,0,1,1.291-.233c.2,0,.4-.058.43-.2a1.035,1.035,0,0,0-.14-.581c-.186-.494-.39-1.006-.581-1.547a26.339,26.339,0,0,1-1.343-4.035,26.8,26.8,0,0,1,1.669,3.919l.581,1.552a1.163,1.163,0,0,1,.11.8.518.518,0,0,1-.337.3,1.3,1.3,0,0,1-.343.047,4.878,4.878,0,0,1-1.337-.017Z" transform="translate(-94.404 -91.423)" fill="#263238"/>
        <path id="Path_23001" data-name="Path 23001" d="M134.412,117.18c.128,0,.128.855.866,1.465s1.651.517,1.663.634-.209.169-.581.18a2.169,2.169,0,0,1-1.39-.483,1.884,1.884,0,0,1-.669-1.227C134.255,117.389,134.354,117.174,134.412,117.18Z" transform="translate(-92.884 -96.568)" fill="#263238"/>
        <path id="Path_23002" data-name="Path 23002" d="M131.305,100.336c-.076.221-.866.116-1.8.227s-1.68.366-1.8.174c-.058-.093.076-.3.378-.506a3.186,3.186,0,0,1,2.75-.3C131.166,100.069,131.358,100.237,131.305,100.336Z" transform="translate(-90.121 -89.27)" fill="#263238"/>
        <path id="Path_23003" data-name="Path 23003" d="M144.526,101.332c-.14.18-.686,0-1.343,0s-1.209.122-1.343-.064c-.052-.093.035-.273.279-.448a1.959,1.959,0,0,1,2.163.07C144.514,101.058,144.59,101.244,144.526,101.332Z" transform="translate(-96.038 -89.597)" fill="#263238"/>
        <path id="Path_23004" data-name="Path 23004" d="M115.775,93.523a36.517,36.517,0,0,0,0,4.651c.035.227.616.82.669,1.041.3,1.308.843,1.872,1.622.523a11.791,11.791,0,0,0,.581-2.547c.308-1.593.622-3.18.936-4.773a8.256,8.256,0,0,0,3.925.936,4.018,4.018,0,0,0,3.4-1.977,4.169,4.169,0,0,0,6.465.849,1.744,1.744,0,0,0,2.3.488,2.058,2.058,0,0,0,.837-2.279c-.355-1.256-1.7-1.942-2.959-2.326-4.9-1.43-10.355-.3-14.78,2.291a7.616,7.616,0,0,0-1.744,1.343c-.506.581-1.2,1.2-1.227,1.948" transform="translate(-85.09 -84.138)" fill="#263238"/>
        <path id="Path_23005" data-name="Path 23005" d="M118.626,98.035a2.413,2.413,0,0,0-.8.145,2.686,2.686,0,0,0-.727.494c-.244.227-.488.517-.779.808a2.587,2.587,0,0,1-.988.657,1.826,1.826,0,0,1-.977.035c-.581-.14-.779-.436-.75-.453a5.592,5.592,0,0,0,.785.244,1.709,1.709,0,0,0,.849-.093,2.61,2.61,0,0,0,.866-.581c.279-.273.529-.581.808-.8a2.5,2.5,0,0,1,.837-.483C118.3,97.8,118.649,98.006,118.626,98.035Z" transform="translate(-84.226 -88.504)" fill="#455a64"/>
        <path id="Path_23006" data-name="Path 23006" d="M118.453,100.745a1.488,1.488,0,0,0-.581.262,2.651,2.651,0,0,0-.436.523,2.465,2.465,0,0,1-.657.64,2.407,2.407,0,0,1-1.6.378c-.424-.052-.651-.2-.64-.233a3.948,3.948,0,0,1,.651,0,2.675,2.675,0,0,0,1.419-.424c.5-.3.738-.837,1.134-1.081S118.476,100.7,118.453,100.745Z" transform="translate(-84.617 -89.656)" fill="#455a64"/>
        <path id="Path_23007" data-name="Path 23007" d="M142.7,82.985a1.147,1.147,0,0,1,.454,0,1.988,1.988,0,0,1,1.012.721,4.746,4.746,0,0,1,.39,3.977,5.581,5.581,0,0,1-2.454,3.169,4.89,4.89,0,0,1-1.116.512,1.163,1.163,0,0,1-.442.087,14.114,14.114,0,0,0,1.43-.779,5.756,5.756,0,0,0,2.273-3.081,4.744,4.744,0,0,0-.273-3.756,2.041,2.041,0,0,0-.837-.738A1.364,1.364,0,0,0,142.7,82.985Z" transform="translate(-95.501 -82.245)" fill="#455a64"/>
        <path id="Path_23008" data-name="Path 23008" d="M149.225,86.45a2.2,2.2,0,0,1,0,.994,6.012,6.012,0,0,1-.878,2.233,6.093,6.093,0,0,1-1.657,1.744,2.134,2.134,0,0,1-.89.448,9.93,9.93,0,0,0,2.291-2.326A10.076,10.076,0,0,0,149.225,86.45Z" transform="translate(-97.702 -83.704)" fill="#455a64"/>
        <path id="Path_23009" data-name="Path 23009" d="M123.622,234.91l-3.273,121.818-16.047-.483,1.233-104.55L85.08,359.152l-14.5-3.785L89.3,235.143Z" transform="translate(-66.216 -145.848)" fill="#263238"/>
        <path id="Path_23010" data-name="Path 23010" d="M238.588,143.336l.767-.279s6.587.994,6.239-.192c-.459-1.57-6.4-2.093-6.93-2.029-.913.11-6.215,1.5-6.919,2.029s-4.6,5.686-4.6,5.686l6.64,5.134s1.576-.07,3.366-2.134c.913-1.047,2.221-2.855,2.221-2.855s-.14-.436,0-.628c.337-.581,0-.843,0-.843a1.058,1.058,0,0,0,.651-.936.779.779,0,0,0-.233-.581c-.413-.279-.581-.2-.581-.2a1.558,1.558,0,0,0,.86-1.163c.047-.744-1.052-.924-1.052-.924" transform="translate(-131.75 -106.468)" fill="#b78876"/>
        <path id="Path_23011" data-name="Path 23011" d="M252.034,144.544a3.378,3.378,0,0,1-1.366.355,8.223,8.223,0,0,1-1.547.041c-.581-.076-1.163-.174-1.849-.279l-1.4-.227h.087a19.81,19.81,0,0,1-3.244.959,19.976,19.976,0,0,1,3.134-1.273h.087l1.384.215,1.826.3a9.488,9.488,0,0,0,1.494.035C251.5,144.632,252.023,144.492,252.034,144.544Z" transform="translate(-138.272 -107.844)" fill="#aa6550"/>
        <path id="Path_23012" data-name="Path 23012" d="M244.493,145.81l-1.779,1.93a2.239,2.239,0,0,0-.517.738.773.773,0,0,0,.157.837.738.738,0,0,0,.686.122,1.936,1.936,0,0,0,.634-.349,22.259,22.259,0,0,0,2.2-1.779" transform="translate(-138.027 -108.552)" fill="#b78876"/>
        <path id="Path_23013" data-name="Path 23013" d="M245.832,147.039a5.862,5.862,0,0,1-.942.994,8.9,8.9,0,0,1-1.163.948,4.07,4.07,0,0,1-.808.413,1.256,1.256,0,0,1-.517.07.7.7,0,0,1-.512-.279.971.971,0,0,1,0-1.047,4.282,4.282,0,0,1,.552-.715c.372-.419.721-.785,1.017-1.087a4.773,4.773,0,0,1,1.041-.9,9.986,9.986,0,0,1-.884,1.047l-.959,1.116a4.649,4.649,0,0,0-.506.674.686.686,0,0,0,0,.727.581.581,0,0,0,.692.11,3.755,3.755,0,0,0,.75-.372,9.686,9.686,0,0,0,1.163-.872,6.33,6.33,0,0,1,1.076-.831Z" transform="translate(-137.86 -108.397)" fill="#aa6550"/>
        <path id="Path_23014" data-name="Path 23014" d="M247.66,148.829s.529-.709.8-.709a.831.831,0,0,1,.9.459c.2.413.047.581-.581,1.541" transform="translate(-140.34 -109.513)" fill="#b78876"/>
        <path id="Path_23015" data-name="Path 23015" d="M246.273,149.35l-1.454,1.657a1.93,1.93,0,0,0-.424.634.7.7,0,0,0,.128.721.581.581,0,0,0,.581.1,1.657,1.657,0,0,0,.517-.3,19.557,19.557,0,0,0,1.791-1.529" transform="translate(-138.952 -110.034)" fill="#b78876"/>
        <path id="Path_23016" data-name="Path 23016" d="M247.877,149.413a2.64,2.64,0,0,1-.61,1.163,6.815,6.815,0,0,1-1,1.029,7.228,7.228,0,0,1-.686.506,2.111,2.111,0,0,1-.884.378.645.645,0,0,1-.535-.186.709.709,0,0,1-.192-.512,1.355,1.355,0,0,1,.378-.831c.337-.419.657-.773.936-1.07a4.233,4.233,0,0,1,.971-.89,8.586,8.586,0,0,1-.808,1.023c-.256.314-.581.686-.878,1.1a1.163,1.163,0,0,0-.3.663.355.355,0,0,0,.407.4,1.966,1.966,0,0,0,.75-.326c.238-.151.459-.314.669-.471a8.181,8.181,0,0,0,1.012-.954C247.633,149.855,247.83,149.4,247.877,149.413Z" transform="translate(-138.795 -109.887)" fill="#aa6550"/>
        <path id="Path_23017" data-name="Path 23017" d="M231.12,152.786a1.5,1.5,0,0,0,1.744,0c.541-.314.959-.8,1.471-1.163,1.541-1.047,3.733-.756,5.233-1.872.2-.157.413-.419.3-.651s-.4-.25-.634-.25l-6.169.047" transform="translate(-133.416 -109.824)" fill="#b78876"/>
        <path id="Path_23018" data-name="Path 23018" d="M233.054,148.845a2.617,2.617,0,0,1,.669-.07c.43,0,1.052-.047,1.82-.07l2.7-.058h.779a1.2,1.2,0,0,1,.9.2.517.517,0,0,1,.087.581,1.064,1.064,0,0,1-.314.4,4.037,4.037,0,0,1-.779.459,21.853,21.853,0,0,1-3.209.86,4.755,4.755,0,0,0-1.279.581c-.36.238-.663.529-.971.767a2.175,2.175,0,0,1-1.744.581.816.816,0,0,1-.581-.343,1.744,1.744,0,0,0,.581.209,2.093,2.093,0,0,0,1.564-.64c.291-.244.581-.547.971-.82a4.866,4.866,0,0,1,1.349-.622,26.752,26.752,0,0,0,3.151-.872,3.662,3.662,0,0,0,.709-.413c.2-.157.308-.372.2-.459a1.245,1.245,0,0,0-.651-.1h-3.477c-.767,0-1.39-.029-1.82-.047A2.226,2.226,0,0,1,233.054,148.845Z" transform="translate(-133.42 -109.732)" fill="#aa6550"/>
        <path id="Path_23019" data-name="Path 23019" d="M248.91,152.085s.4-.523.581-.523a.611.611,0,0,1,.669.337c.145.3.035.436-.436,1.163" transform="translate(-140.863 -110.955)" fill="#b78876"/>
        <path id="Path_23020" data-name="Path 23020" d="M247.885,152.47l-1.076,1.227a1.518,1.518,0,0,0-.314.471.523.523,0,0,0,.1.535.436.436,0,0,0,.413.076,1.163,1.163,0,0,0,.384-.221,13.637,13.637,0,0,0,1.326-1.134" transform="translate(-139.838 -111.34)" fill="#b78876"/>
        <path id="Path_23021" data-name="Path 23021" d="M249.05,152.525a1.692,1.692,0,0,1-.43.884,4.726,4.726,0,0,1-.738.773,5.065,5.065,0,0,1-.512.378,1.564,1.564,0,0,1-.674.291.523.523,0,0,1-.424-.151.581.581,0,0,1-.151-.407,1.07,1.07,0,0,1,.285-.64c.267-.3.517-.581.727-.773.419-.43.686-.68.715-.651a3.1,3.1,0,0,1-.581.8l-.634.814a.8.8,0,0,0-.209.465c0,.169.087.267.256.256a1.419,1.419,0,0,0,.541-.238c.174-.11.337-.227.488-.343a5.662,5.662,0,0,0,.756-.7C248.853,152.839,249,152.5,249.05,152.525Z" transform="translate(-139.695 -111.237)" fill="#aa6550"/>
        <path id="Path_23022" data-name="Path 23022" d="M240.448,155.752a8.007,8.007,0,0,0-.39-1.355c-.337-.7-.907-1.041-.86-1.116s.738.18,1.163.977A1.593,1.593,0,0,1,240.448,155.752Z" transform="translate(-136.796 -111.674)" fill="#aa6550"/>
        <path id="Path_23023" data-name="Path 23023" d="M133.671,200.673s-1.128-32.931-1.454-37.792c8.14,4.529,20.71,10.32,22.094,10.611,2.442.512,24.117-18.762,24.117-18.762l-7.768-6.087-17.925,10.1-23.495-14.024h0a12.21,12.21,0,0,0-5.733-2.279h-.163c-.837-.1-1.244-.215-1.744-.279h0c-3.715,2.791-10.064,2.971-13.71.093h0s-2.768.622-4.419.942c-5.233.994-8.942,4.785-9.983,8.279l6.483,15.012,1.25,14.262-3.291,18.338,35.739,1.6" transform="translate(-75.806 -107.024)" fill="#0091ff"/>
        <g id="Group_921" data-name="Group 921" transform="translate(23.986 67.889)" opacity="0.3">
          <path id="Path_23024" data-name="Path 23024" d="M104.493,210.637a6.093,6.093,0,0,0,5.3,1.517c1.331-.267,2.6-.994,3.959-.907,1.488.1,2.721,1.163,4.07,1.744,2.535,1.163,5.494.779,8.18.064a6.127,6.127,0,0,0,3.331-1.779,5.989,5.989,0,0,0,1.023-2.762,28.821,28.821,0,0,0,.4-5.477,5.266,5.266,0,0,0-.884-3.268,3.785,3.785,0,0,0-2.454-1.238,9.664,9.664,0,0,0-2.8.157,46.3,46.3,0,0,0-20.291,8.721" transform="translate(-104.33 -198.493)"/>
        </g>
        <path id="Path_23025" data-name="Path 23025" d="M105.77,187.263s-17.064,7.634-18.8,8.012c-5.762,1.267-12.349-4.175-10.518-10.378.68-2.326,9.884-27.826,9.884-27.826l8.721,12.076-3.7,12.355,9.7-.634Z" transform="translate(-68.545 -113.265)" fill="#0091ff"/>
        <path id="Path_23026" data-name="Path 23026" d="M118.63,141.8Z" transform="translate(-86.329 -106.873)" fill="#0091ff"/>
        <path id="Path_23027" data-name="Path 23027" d="M111.053,189.606a3.176,3.176,0,0,1-.674.093l-1.866.157c-1.587.128-3.808.279-6.337.442h-.215l.064-.2c.18-.616.372-1.256.581-1.913.866-2.907,1.663-5.494,2.256-7.372l.715-2.227a4.2,4.2,0,0,1,.3-.8,4.651,4.651,0,0,1-.192.837l-.622,2.25c-.541,1.9-1.3,4.518-2.169,7.4-.192.651-.39,1.291-.581,1.907l-.157-.186c2.535-.151,4.756-.267,6.349-.337l1.872-.07A3.227,3.227,0,0,1,111.053,189.606Z" transform="translate(-79.351 -121.934)" fill="#263238"/>
        <path id="Path_23028" data-name="Path 23028" d="M96.14,203.091a1.8,1.8,0,0,1,.186-.837,5.425,5.425,0,0,1,1.1-1.744,5.337,5.337,0,0,1,1.669-1.215,1.744,1.744,0,0,1,.82-.244,7.615,7.615,0,0,0-3.779,4.041Z" transform="translate(-76.915 -130.837)" fill="#263238"/>
        <path id="Path_23029" data-name="Path 23029" d="M111.7,210.668c0,.081-3.715,1.7-8.367,3.616s-8.454,3.407-8.483,3.331,3.709-1.7,8.367-3.616S111.664,210.592,111.7,210.668Z" transform="translate(-76.375 -135.699)" fill="#263238"/>
        <path id="Path_23030" data-name="Path 23030" d="M160.316,195.9a1.7,1.7,0,0,1-.035-.273,5.592,5.592,0,0,0-.041-.773c-.029-.721-.064-1.686-.11-2.849-.093-2.407-.227-5.733-.442-9.4s-.477-6.977-.738-9.372c-.128-1.2-.262-2.157-.355-2.826a8.1,8.1,0,0,1-.145-1.035,1.494,1.494,0,0,1,.081.256c.041.169.11.459.18.756.128.663.3,1.628.454,2.826.314,2.39.581,5.709.826,9.378s.314,6.977.355,9.413v3.628a.779.779,0,0,1-.029.273Z" transform="translate(-102.997 -118.414)" fill="#263238"/>
        <path id="Path_23031" data-name="Path 23031" d="M105.024,158c0,.047-.477.267-1.128.826a5.814,5.814,0,0,0-1.8,2.762l-.081.285-.186-.244-.116-.151a4.372,4.372,0,0,0-2.948-1.611,10.187,10.187,0,0,0-1.448,0,1.575,1.575,0,0,1,.372-.145,3.762,3.762,0,0,1,1.093-.093,4.349,4.349,0,0,1,3.169,1.64l.128.169-.3.052a5.6,5.6,0,0,1,1.954-2.837,3.128,3.128,0,0,1,1.285-.651Z" transform="translate(-77.409 -113.654)" fill="#fafafa"/>
        <path id="Path_23032" data-name="Path 23032" d="M124.034,170.1c0,.047-.477.262-1.128.82a5.843,5.843,0,0,0-1.8,2.762l-.081.291-.186-.244-.122-.157a4.407,4.407,0,0,0-2.942-1.611,10.584,10.584,0,0,0-1.448,0,1.575,1.575,0,0,1,.372-.145,3.761,3.761,0,0,1,1.093-.093,4.349,4.349,0,0,1,3.163,1.634l.128.169-.267.047a5.611,5.611,0,0,1,1.954-2.843A3.064,3.064,0,0,1,124.034,170.1Z" transform="translate(-85.367 -118.719)" fill="#fafafa"/>
        <path id="Path_23033" data-name="Path 23033" d="M98.26,179.857c0,.052-.535.093-1.337.4a5.855,5.855,0,0,0-2.616,2l-.18.238-.093-.291-.058-.186a4.4,4.4,0,0,0-2.227-2.506,8.72,8.72,0,0,0-1.378-.459,1.2,1.2,0,0,1,.4,0,3.645,3.645,0,0,1,1.064.279,4.361,4.361,0,0,1,2.43,2.593,1.582,1.582,0,0,0,.064.2l-.273-.047a5.6,5.6,0,0,1,2.8-2.017A3.163,3.163,0,0,1,98.26,179.857Z" transform="translate(-74.5 -122.459)" fill="#fafafa"/>
        <path id="Path_23034" data-name="Path 23034" d="M91.95,194.976c0,.052-.535.087-1.337.4a5.849,5.849,0,0,0-2.622,1.994l-.174.244-.093-.291-.058-.186a4.372,4.372,0,0,0-2.233-2.483,9.3,9.3,0,0,0-1.372-.465.994.994,0,0,1,.4,0,3.693,3.693,0,0,1,1.064.279,4.355,4.355,0,0,1,2.424,2.6.828.828,0,0,0,.064.2l-.267-.047a5.576,5.576,0,0,1,2.8-2.018A3.058,3.058,0,0,1,91.95,194.976Z" transform="translate(-71.859 -128.792)" fill="#fafafa"/>
        <path id="Path_23035" data-name="Path 23035" d="M90.78,210.4c0,.052-.535.087-1.337.4a5.849,5.849,0,0,0-2.622,1.994l-.174.244-.093-.3-.058-.18a4.4,4.4,0,0,0-2.233-2.512,9.927,9.927,0,0,0-1.372-.459.977.977,0,0,1,.4,0,3.662,3.662,0,0,1,1.058.279,4.349,4.349,0,0,1,2.43,2.6l.064.2-.267-.052A5.593,5.593,0,0,1,89.35,210.6,3.052,3.052,0,0,1,90.78,210.4Z" transform="translate(-71.369 -135.238)" fill="#fafafa"/>
        <path id="Path_23036" data-name="Path 23036" d="M133.454,155c0,.047-.471.262-1.122.82a5.814,5.814,0,0,0-1.8,2.762l-.087.291-.186-.244-.116-.157a4.4,4.4,0,0,0-2.942-1.611,9.635,9.635,0,0,0-1.454.029,1.718,1.718,0,0,1,.378-.145,3.728,3.728,0,0,1,1.093-.1,4.39,4.39,0,0,1,3.163,1.64l.128.169-.267.047a5.553,5.553,0,0,1,1.954-2.843A3.064,3.064,0,0,1,133.454,155Z" transform="translate(-89.31 -112.399)" fill="#fafafa"/>
        <path id="Path_23037" data-name="Path 23037" d="M148.276,148.862c0,.052-.541.052-1.361.308A5.89,5.89,0,0,0,144.171,151l-.192.233-.07-.3a1.74,1.74,0,0,1-.047-.186,4.407,4.407,0,0,0-2.07-2.645,9.716,9.716,0,0,0-1.343-.547.93.93,0,0,1,.4,0,3.663,3.663,0,0,1,1.041.349,4.355,4.355,0,0,1,2.262,2.75l.052.209-.267-.07a5.57,5.57,0,0,1,2.907-1.831,3.052,3.052,0,0,1,1.43-.1Z" transform="translate(-95.463 -109.273)" fill="#fafafa"/>
        <path id="Path_23038" data-name="Path 23038" d="M117.454,146.58c0,.047-.471.262-1.122.82a5.843,5.843,0,0,0-1.8,2.762l-.087.291-.186-.244-.116-.157a4.419,4.419,0,0,0-2.942-1.611,9.635,9.635,0,0,0-1.454.029,1.717,1.717,0,0,1,.378-.145,3.762,3.762,0,0,1,1.093-.093,4.361,4.361,0,0,1,3.163,1.634l.128.169-.267.047a5.576,5.576,0,0,1,1.954-2.843,3.064,3.064,0,0,1,1.256-.657Z" transform="translate(-82.612 -108.874)" fill="#fafafa"/>
        <path id="Path_23039" data-name="Path 23039" d="M148.814,173.15c0,.047-.477.262-1.128.82a5.861,5.861,0,0,0-1.8,2.762l-.081.285-.186-.244-.122-.151a4.384,4.384,0,0,0-2.942-1.611,8.669,8.669,0,0,0-1.448.029,1.312,1.312,0,0,1,.372-.145,3.727,3.727,0,0,1,1.093-.1,4.39,4.39,0,0,1,3.169,1.64l.122.169-.267.041a5.6,5.6,0,0,1,1.954-2.837A3.064,3.064,0,0,1,148.814,173.15Z" transform="translate(-95.739 -119.996)" fill="#fafafa"/>
        <path id="Path_23040" data-name="Path 23040" d="M120.824,213.94c0,.047-.477.262-1.128.82a5.861,5.861,0,0,0-1.8,2.762l-.081.285-.186-.244-.116-.151a4.4,4.4,0,0,0-2.948-1.611,8.721,8.721,0,0,0-1.448.029,1.311,1.311,0,0,1,.372-.145,3.727,3.727,0,0,1,1.093-.1,4.39,4.39,0,0,1,3.169,1.64l.128.169-.273.041a5.6,5.6,0,0,1,1.954-2.837A3.064,3.064,0,0,1,120.824,213.94Z" transform="translate(-84.023 -137.07)" fill="#fafafa"/>
        <path id="Path_23041" data-name="Path 23041" d="M109.888,204.19c0,.047-.471.262-1.122.82a5.814,5.814,0,0,0-1.8,2.762l-.087.291-.186-.244-.116-.157a4.4,4.4,0,0,0-2.942-1.611,9.531,9.531,0,0,0-1.448.029,1.575,1.575,0,0,1,.372-.145,3.564,3.564,0,0,1,1.093-.093,4.349,4.349,0,0,1,3.163,1.634l.128.169-.267.047a5.587,5.587,0,0,1,1.954-2.843A3.1,3.1,0,0,1,109.888,204.19Z" transform="translate(-79.448 -132.989)" fill="#fafafa"/>
        <path id="Path_23042" data-name="Path 23042" d="M154.484,207.243a12.468,12.468,0,0,0-1.372.238,5.866,5.866,0,0,0-2.837,1.674l-.2.221-.058-.3-.035-.192a4.407,4.407,0,0,0-1.924-2.75,9.768,9.768,0,0,0-1.314-.622.959.959,0,0,1,.4.041,3.656,3.656,0,0,1,1.023.4,4.4,4.4,0,0,1,2.111,2.872l.035.209-.262-.081a5.6,5.6,0,0,1,3.018-1.674A3.134,3.134,0,0,1,154.484,207.243Z" transform="translate(-98.096 -133.541)" fill="#fafafa"/>
        <path id="Path_23043" data-name="Path 23043" d="M133.54,228.39c0,.052-.523.151-1.285.581a5.855,5.855,0,0,0-2.366,2.291l-.145.262-.128-.279-.076-.18a4.407,4.407,0,0,0-2.512-2.221,9.3,9.3,0,0,0-1.419-.3,1.317,1.317,0,0,1,.4-.058,3.518,3.518,0,0,1,1.087.151,4.366,4.366,0,0,1,2.721,2.326l.087.192h-.273a5.564,5.564,0,0,1,2.541-2.326A3.117,3.117,0,0,1,133.54,228.39Z" transform="translate(-89.251 -143.119)" fill="#fafafa"/>
        <path id="Path_23044" data-name="Path 23044" d="M147.019,219.333a12.468,12.468,0,0,0-1.372.238,5.866,5.866,0,0,0-2.837,1.674l-.2.221-.058-.3-.035-.192a4.384,4.384,0,0,0-1.924-2.75,10.366,10.366,0,0,0-1.308-.622.965.965,0,0,1,.4.041,3.7,3.7,0,0,1,1.017.4,4.355,4.355,0,0,1,2.111,2.872,1.112,1.112,0,0,0,.041.209l-.262-.081a5.57,5.57,0,0,1,3.012-1.674,3.128,3.128,0,0,1,1.419-.035Z" transform="translate(-94.973 -138.602)" fill="#fafafa"/>
        <path id="Path_23045" data-name="Path 23045" d="M113.349,231.752a12.47,12.47,0,0,0-1.372.238,5.867,5.867,0,0,0-2.837,1.674l-.2.221-.058-.3-.035-.186a4.407,4.407,0,0,0-1.924-2.75,10.367,10.367,0,0,0-1.308-.622.977.977,0,0,1,.4.035,3.9,3.9,0,0,1,1.023.4,4.378,4.378,0,0,1,2.111,2.872.377.377,0,0,0,.041.209l-.262-.081a5.57,5.57,0,0,1,3.012-1.674,3.029,3.029,0,0,1,1.419-.035Z" transform="translate(-80.879 -143.8)" fill="#fafafa"/>
        <path id="Path_23046" data-name="Path 23046" d="M153.721,231.3c0,.047-.488.238-1.163.762a5.814,5.814,0,0,0-1.936,2.663l-.1.285-.174-.25-.11-.163a4.4,4.4,0,0,0-2.855-1.744,10.527,10.527,0,0,0-1.454-.047,1.012,1.012,0,0,1,.384-.122,3.732,3.732,0,0,1,1.1-.041,4.355,4.355,0,0,1,3.076,1.8l.116.174-.267.029a5.57,5.57,0,0,1,2.093-2.733,3.087,3.087,0,0,1,1.291-.61Z" transform="translate(-97.757 -144.337)" fill="#fafafa"/>
        <path id="Path_23047" data-name="Path 23047" d="M149.466,189.87c.029.047-.471.267-1.122.826a5.814,5.814,0,0,0-1.785,2.738l-.081.291-.186-.244-.122-.157a4.384,4.384,0,0,0-2.942-1.6,10.134,10.134,0,0,0-1.448,0,1.574,1.574,0,0,1,.372-.145,3.762,3.762,0,0,1,1.093-.093,4.337,4.337,0,0,1,3.163,1.64l.128.163-.267.047a5.57,5.57,0,0,1,1.954-2.837A3.076,3.076,0,0,1,149.466,189.87Z" transform="translate(-96.02 -126.995)" fill="#fafafa"/>
        <path id="Path_23048" data-name="Path 23048" d="M161.854,157.07c0,.047-.477.262-1.128.82a5.861,5.861,0,0,0-1.8,2.762l-.081.291-.186-.244-.122-.157a4.372,4.372,0,0,0-2.942-1.611,9.526,9.526,0,0,0-1.448,0,1.575,1.575,0,0,1,.372-.145,3.727,3.727,0,0,1,1.093-.1,4.39,4.39,0,0,1,3.169,1.64l.122.169-.267.047a5.622,5.622,0,0,1,1.954-2.843A3.064,3.064,0,0,1,161.854,157.07Z" transform="translate(-101.198 -113.265)" fill="#fafafa"/>
        <path id="Path_23049" data-name="Path 23049" d="M191.654,173.54c0,.047-.477.262-1.128.82a5.89,5.89,0,0,0-1.8,2.762l-.081.291-.186-.244-.116-.157A4.4,4.4,0,0,0,185.4,175.4a9.584,9.584,0,0,0-1.448,0,1.573,1.573,0,0,1,.372-.145,3.565,3.565,0,0,1,1.093-.093,4.361,4.361,0,0,1,3.169,1.634l.128.169-.273.047a5.622,5.622,0,0,1,1.954-2.843,3.064,3.064,0,0,1,1.262-.628Z" transform="translate(-113.671 -120.159)" fill="#fafafa"/>
        <path id="Path_23050" data-name="Path 23050" d="M214.224,170.59c0,.047-.477.262-1.128.82a5.9,5.9,0,0,0-1.8,2.762l-.081.291-.186-.244-.116-.157a4.4,4.4,0,0,0-2.942-1.611,9.633,9.633,0,0,0-1.454.029,1.416,1.416,0,0,1,.378-.145,3.7,3.7,0,0,1,1.093-.1,4.39,4.39,0,0,1,3.163,1.64l.128.169-.273.047a5.593,5.593,0,0,1,1.959-2.843A3.064,3.064,0,0,1,214.224,170.59Z" transform="translate(-123.119 -118.924)" fill="#fafafa"/>
        <path id="Path_23051" data-name="Path 23051" d="M224.564,158c0,.047-.471.267-1.122.826a5.814,5.814,0,0,0-1.8,2.762l-.087.285-.186-.244-.116-.151a4.372,4.372,0,0,0-2.942-1.611,10.247,10.247,0,0,0-1.454,0,1.718,1.718,0,0,1,.378-.145,3.762,3.762,0,0,1,1.093-.093,4.349,4.349,0,0,1,3.163,1.64l.128.169-.267.041a5.535,5.535,0,0,1,1.954-2.837,3.134,3.134,0,0,1,1.256-.64Z" transform="translate(-127.447 -113.654)" fill="#fafafa"/>
        <path id="Path_23052" data-name="Path 23052" d="M172.11,173.43c0,.047-.506.192-1.233.657a5.814,5.814,0,0,0-2.163,2.477l-.128.273-.145-.267-.1-.169a4.378,4.378,0,0,0-2.686-2.006,9.3,9.3,0,0,0-1.436-.18,1.491,1.491,0,0,1,.39-.087,3.535,3.535,0,0,1,1.093.058,4.355,4.355,0,0,1,2.907,2.064l.1.186h-.273a5.576,5.576,0,0,1,2.326-2.535A3,3,0,0,1,172.11,173.43Z" transform="translate(-105.413 -120.113)" fill="#fafafa"/>
        <path id="Path_23053" data-name="Path 23053" d="M199.25,186.26c0,.052-.506.192-1.227.657a5.814,5.814,0,0,0-2.169,2.477l-.122.273-.151-.267-.093-.169a4.407,4.407,0,0,0-2.692-2.006,10.221,10.221,0,0,0-1.436-.18,1.492,1.492,0,0,1,.39-.087,3.773,3.773,0,0,1,1.1.058,4.361,4.361,0,0,1,2.907,2.064l.1.186h-.273a5.6,5.6,0,0,1,2.326-2.535A3.087,3.087,0,0,1,199.25,186.26Z" transform="translate(-116.773 -125.484)" fill="#fafafa"/>
        <path id="Path_23054" data-name="Path 23054" d="M195.326,176.366a7.744,7.744,0,0,1-.424-5.866c.093,0-.192,1.326-.064,2.954S195.413,176.337,195.326,176.366Z" transform="translate(-118.094 -118.887)" fill="#263238"/>
        <g id="Group_922" data-name="Group 922" transform="translate(24.481 57.236)" opacity="0.3">
          <path id="Path_23055" data-name="Path 23055" d="M105.907,191.17a9.454,9.454,0,0,0,.965-11c.035.215-1.692,5.925-1.692,5.925l.442,4.884" transform="translate(-105.18 -180.17)"/>
        </g>
        <path id="Path_23056" data-name="Path 23056" d="M119.313,191.7l-1.326-6.553a.843.843,0,0,1,.831-1.012l16.96.076a.843.843,0,0,1,.831.942l-1.744,15.012A1.163,1.163,0,0,1,133.7,201.2l-11.047-.087a1.163,1.163,0,0,1-1.122-.884Z" transform="translate(-86.053 -124.596)" fill="#455a64"/>
        <path id="Path_23057" data-name="Path 23057" d="M117.71,191.21h0a1.779,1.779,0,0,1,1.663,1.163,3.7,3.7,0,0,0,1.163,1.814,4.008,4.008,0,0,0,3.023.448c.756-.372,3.791-3.1,4.32-2.8s.983.988.453,1.593-3.331,2.424-2.8,3.029,6.436-2.064,7.343-1.826,1.442.791.907,1.163-4.541,1.878-4.768,2.407c0,0,6.058-1.587,6.285-1.209s.581.983,0,1.209-5.814,1.593-6.285,1.82a10.948,10.948,0,0,1-2.326.68,24.757,24.757,0,0,0-2.436.773,5.355,5.355,0,0,1-3.768-.1l-.581-.25a2.4,2.4,0,0,1-1.494-2.372l.122-2.064-.663-1.7Z" transform="translate(-85.944 -127.556)" fill="#b78876"/>
        <path id="Path_23058" data-name="Path 23058" d="M134.323,188.036a.616.616,0,1,1-.616-.616A.616.616,0,0,1,134.323,188.036Z" transform="translate(-92.382 -125.969)" fill="#fafafa"/>
      </g>
      <g id="freepik--Plant--inject-36" transform="translate(156.284 195.362)">
        <path id="Path_23059" data-name="Path 23059" d="M306.85,365.414c4.866,1.7,11.216.18,15.378-2.861s7.163-7.4,9.82-11.82a17.539,17.539,0,0,0,2.6-6.023,6.5,6.5,0,0,0-1.855-6.029c-2.616-2.2-6.628-1.081-9.6.61a33.1,33.1,0,0,0-16.344,26.123" transform="translate(-263.35 -315.487)" fill="#0091ff"/>
        <path id="Path_23060" data-name="Path 23060" d="M315.84,400.033c2.907,3.855,7.942,5.576,12.791,5.814s9.611-1.111,14.128-2.849c1.64-.628,3.436-1.488,3.994-3.151a3.994,3.994,0,0,0-.855-3.721,8.361,8.361,0,0,0-3.262-2.227,22.3,22.3,0,0,0-14.221-.767c-4.68,1.215-8.768,3.925-12.564,6.919" transform="translate(-267.113 -338.455)" fill="#0091ff"/>
        <path id="Path_23061" data-name="Path 23061" d="M305.268,328.74c4.029.081,7.082-3.448,8.907-7.041a26.164,26.164,0,0,0,2.4-16.28c-.372-2.058-1.163-4.279-2.994-5.273s-4.308-.343-5.878,1.093a12.155,12.155,0,0,0-3.058,5.512,36.831,36.831,0,0,0,.622,21.989" transform="translate(-261.844 -299.668)" fill="#0091ff"/>
        <path id="Path_23062" data-name="Path 23062" d="M279.294,356.6c6.866-11.7,8.012-26,3.954-38.955-.657-2.1-1.9-4.506-4.07-4.651-2.43-.157-3.954,2.552-4.651,4.9-2.355,8.221-1.855,16.948-1.331,25.478.32,5.233,2.122,9.75,6.1,13.21" transform="translate(-249.079 -305.244)" fill="#0091ff"/>
        <path id="Path_23063" data-name="Path 23063" d="M255.078,383.1a28.094,28.094,0,0,0-16.669-17.681c-1.826-.686-4.14-1.081-5.506.314s-.919,3.663-.064,5.372a26.949,26.949,0,0,0,5.866,7.111,24.374,24.374,0,0,0,6.721,5.006c2.57,1.128,7.3,1.413,9.657-.122" transform="translate(-232.032 -326.93)" fill="#0091ff"/>
        <path id="Path_23064" data-name="Path 23064" d="M322.208,344.61a.892.892,0,0,1-.116.1l-.372.285-1.442,1.081-1.041.767c-.378.291-.767.628-1.2.977-.855.709-1.855,1.477-2.866,2.436l-1.645,1.477c-.581.512-1.1,1.093-1.68,1.669-1.163,1.163-2.326,2.465-3.564,3.837a75.891,75.891,0,0,0-12.559,20.315c-.674,1.744-1.349,3.331-1.837,4.9-.256.779-.535,1.517-.744,2.25s-.4,1.436-.581,2.1c-.407,1.337-.64,2.581-.9,3.657-.122.541-.244,1.041-.337,1.506s-.157.9-.221,1.279c-.14.75-.244,1.343-.32,1.773-.041.186-.07.337-.093.459a.716.716,0,0,1-.041.151.458.458,0,0,1,0-.157c0-.122.041-.279.064-.465.058-.43.145-1.029.256-1.779.058-.39.128-.82.2-1.291s.2-.971.308-1.512c.244-1.087.459-2.326.855-3.68.186-.674.378-1.384.581-2.116s.477-1.483.727-2.268c.483-1.576,1.163-3.2,1.82-4.93a73.706,73.706,0,0,1,12.622-20.4c1.238-1.372,2.4-2.7,3.593-3.832.581-.581,1.134-1.163,1.7-1.663l1.634-1.459c1.029-.954,2.047-1.709,2.907-2.407.436-.343.837-.674,1.221-.959l1.064-.75,1.477-1.029.39-.262Z" transform="translate(-256.568 -318.48)" fill="#263238"/>
        <path id="Path_23065" data-name="Path 23065" d="M331.526,399.464a2.614,2.614,0,0,1-.471-.081c-.308-.052-.75-.174-1.337-.267a37.422,37.422,0,0,0-4.971-.61,36.3,36.3,0,0,0-29.478,12.262,38.542,38.542,0,0,0-3.07,3.959c-.343.483-.581.884-.75,1.163a2.493,2.493,0,0,1-.279.39,2.781,2.781,0,0,1,.221-.424c.163-.267.372-.68.7-1.163a33.177,33.177,0,0,1,3.006-4.041,35.716,35.716,0,0,1,29.652-12.338,33.772,33.772,0,0,1,4.983.709c.581.116,1.029.256,1.331.331A2.578,2.578,0,0,1,331.526,399.464Z" transform="translate(-256.786 -340.921)" fill="#263238"/>
        <path id="Path_23066" data-name="Path 23066" d="M305.951,308.52a.854.854,0,0,1-.029.186,3.91,3.91,0,0,1-.1.523c-.11.483-.262,1.163-.454,2.012-.4,1.744-1,4.268-1.744,7.378-1.517,6.227-3.715,14.8-6.006,24.3-1.163,4.75-2.169,9.3-3.058,13.431s-1.616,7.884-2.169,11.047c-.3,1.576-.517,3.006-.733,4.262s-.384,2.326-.512,3.221l-.314,2.035c-.041.221-.07.4-.093.529a.869.869,0,0,1-.041.18.645.645,0,0,1,0-.186c0-.134.035-.314.058-.529.064-.494.151-1.163.262-2.047s.256-1.977.454-3.233.407-2.692.686-4.273c.523-3.157,1.244-6.907,2.1-11.047s1.9-8.692,3.035-13.448c2.291-9.5,4.523-18.065,6.093-24.274.785-3.087,1.413-5.593,1.861-7.355.215-.849.39-1.517.512-2,.058-.209.1-.384.14-.517A.935.935,0,0,1,305.951,308.52Z" transform="translate(-256.585 -303.374)" fill="#263238"/>
        <path id="Path_23067" data-name="Path 23067" d="M286.35,384.889a1.43,1.43,0,0,1-.041-.139l-.1-.424c-.081-.4-.192-.942-.337-1.628-.291-1.413-.674-3.488-1.116-6.012-.878-5.087-1.924-12.152-2.57-20.006-.308-3.93-.483-7.686-.581-11.1s-.029-6.494.081-9.076c.029-1.291.116-2.454.169-3.488s.128-1.9.192-2.622.116-1.25.157-1.657a3.607,3.607,0,0,1,.047-.43.459.459,0,0,1,0-.145.645.645,0,0,1,0,.151v.43c0,.407-.052.959-.093,1.663s-.1,1.6-.134,2.622-.11,2.192-.128,3.488c-.076,2.581-.081,5.651,0,9.064s.279,7.151.581,11.076c.64,7.843,1.651,14.907,2.471,20,.413,2.547.762,4.6,1.017,6.023.116.692.209,1.238.273,1.64.029.174.052.314.07.43A.4.4,0,0,1,286.35,384.889Z" transform="translate(-252.763 -311.595)" fill="#263238"/>
        <path id="Path_23068" data-name="Path 23068" d="M270.709,405.171a2.2,2.2,0,0,1-.18-.407l-.453-1.163-.32-.849-.442-.988c-.157-.36-.326-.738-.506-1.163s-.407-.808-.622-1.244l-.7-1.331-.837-1.442c-.552-1.006-1.262-2.006-1.954-3.1a72.947,72.947,0,0,0-5.175-6.616,82.9,82.9,0,0,0-5.936-5.942c-.988-.831-1.9-1.663-2.808-2.366l-1.3-1.035-1.256-.924c-.779-.581-1.512-1.087-2.157-1.517s-1.2-.814-1.663-1.093l-1.07-.674a3.71,3.71,0,0,1-.36-.256,1.926,1.926,0,0,1,.4.2l1.1.622c.477.267,1.047.622,1.7,1.052s1.4.9,2.192,1.483l1.25.9,1.32,1.023c.924.692,1.837,1.523,2.837,2.355a77.63,77.63,0,0,1,5.983,5.948,71.591,71.591,0,0,1,5.18,6.663c.686,1.1,1.39,2.116,1.936,3.134l.826,1.454c.238.483.465.942.686,1.378a11.384,11.384,0,0,1,.581,1.262c.145.407.331.791.488,1.163s.285.692.413,1.006l.3.861c.163.5.291.9.4,1.2A2.01,2.01,0,0,1,270.709,405.171Z" transform="translate(-236.611 -330.389)" fill="#263238"/>
        <path id="Path_23069" data-name="Path 23069" d="M330.127,367.859c0,.052-.831.052-2.169.128a41.018,41.018,0,0,0-5.186.628,40.241,40.241,0,0,0-5.058,1.32c-1.273.419-2.047.721-2.064.674a2.185,2.185,0,0,1,.518-.279c.337-.163.843-.372,1.471-.61a31.007,31.007,0,0,1,5.07-1.424,30.5,30.5,0,0,1,5.233-.535c.674,0,1.221,0,1.6.029A2.249,2.249,0,0,1,330.127,367.859Z" transform="translate(-267.033 -328.171)" fill="#263238"/>
        <path id="Path_23070" data-name="Path 23070" d="M344.5,406.151a19.657,19.657,0,0,0-2.831-4.268,19.218,19.218,0,0,0-4.07-3.134,4.686,4.686,0,0,1,1.4.616,12.384,12.384,0,0,1,4.965,5.343A4.854,4.854,0,0,1,344.5,406.151Z" transform="translate(-276.221 -341.143)" fill="#263238"/>
        <path id="Path_23071" data-name="Path 23071" d="M315.453,324.85c.064.07-1.2,1.326-2.581,3.023s-2.361,3.186-2.442,3.134A19.4,19.4,0,0,1,315.453,324.85Z" transform="translate(-264.848 -310.209)" fill="#263238"/>
        <path id="Path_23072" data-name="Path 23072" d="M311.93,312.52a24.244,24.244,0,0,1,.93,5.477,12.251,12.251,0,0,1-.628-2.709,11.693,11.693,0,0,1-.3-2.768Z" transform="translate(-265.476 -305.048)" fill="#263238"/>
        <path id="Path_23073" data-name="Path 23073" d="M286.718,351.2a33.449,33.449,0,0,1-2.012,4.233,34.421,34.421,0,0,1-2.3,4.07,69.187,69.187,0,0,1,4.308-8.314Z" transform="translate(-253.12 -321.235)" fill="#263238"/>
        <path id="Path_23074" data-name="Path 23074" d="M276.66,338.08a18.941,18.941,0,0,1,1.7,3.058,19.247,19.247,0,0,1,1.419,3.209A37.5,37.5,0,0,1,276.66,338.08Z" transform="translate(-250.713 -315.747)" fill="#263238"/>
        <path id="Path_23075" data-name="Path 23075" d="M252.87,382.512c0,.093-1.384-.169-3.081-.291s-3.093-.052-3.1-.145a12.4,12.4,0,0,1,6.18.436Z" transform="translate(-238.168 -334.062)" fill="#263238"/>
        <path id="Path_23076" data-name="Path 23076" d="M270.53,422.72l3.826,20.117a2.814,2.814,0,0,0,2.768,2.291h11.3a2.814,2.814,0,0,0,2.779-2.355l3.326-20.053Z" transform="translate(-248.147 -351.176)" fill="#263238"/>
        <path id="Path_23077" data-name="Path 23077" d="M271.774,429.255h21.611l1.145-6.535h-24Z" transform="translate(-248.147 -351.176)" fill="#455a64"/>
        <path id="Path_23078" data-name="Path 23078" d="M272.67,433.96l.454,2.384H293.95l.331-2.384Z" transform="translate(-249.043 -355.881)" fill="#fafafa"/>
      </g>
    </g>
  </g>
</svg>
