<svg xmlns="http://www.w3.org/2000/svg" viewBox="0 0 28 28"><defs><style>.cls-1{fill:none;}.cls-2{fill:#0091ff;}</style></defs><g id="Layer_2" data-name="Layer 2"><g id="Layer_2-2" data-name="Layer 2"><rect class="cls-1" width="28" height="28"/><path class="cls-2" d="M4.6,1.85v-1c0-.25.09-.41.34-.44s.37.16.37.45v1h3c0-.33,0-.65,0-1S8.42.42,8.69.4s.36.16.37.46v1h3c0-.32,0-.65,0-1s.07-.44.34-.46.37.16.37.46,0,.63,0,1h3v-1c0-.31.14-.49.37-.46s.35.21.34.46v1h2.23A2.14,2.14,0,0,1,20.89,4V17.35l.81-.52c1-.63,1.93-1.28,2.91-1.9a1.85,1.85,0,1,1,1.92,3.17L22.11,21l-.25.16c-.32.22-.76.37-.92.67A2.53,2.53,0,0,0,20.89,23v2.41a2.17,2.17,0,0,1-2.25,2.25H2.76a2.14,2.14,0,0,1-2.2-2.2Q.55,14.72.56,4A2.11,2.11,0,0,1,2.7,1.85Zm0,.72H2.69A1.39,1.39,0,0,0,1.27,4V25.41a1.42,1.42,0,0,0,1.48,1.48H18.66a1.45,1.45,0,0,0,1.52-1.51V22.29l-.25.14c-1,.63-1.91,1.27-2.88,1.89a.89.89,0,0,1-.43.17c-1,0-1.9.06-2.85.08-.39,0-.53-.25-.36-.6s.23-.45.37-.71H9.6c-.1,0-.23,0-.29,0S9,23,9,22.92s.16-.26.28-.35.17,0,.26,0h4.19c.46,0,.48,0,.6-.48H9.57c-.09,0-.21,0-.26,0S9,21.83,9,21.7s.16-.24.28-.32.17,0,.26,0h5a1,1,0,0,0,.44-.13c.6-.38,1.19-.78,1.79-1.17.2-.13.4-.14.54.08a.35.35,0,0,1-.14.51l-.24.16-1.4.92.43.65,9-5.9-.43-.65-.27.17-4.94,3.24c-.26.17-.48.15-.59,0s0-.41.19-.54.72-.46,1.06-.71a.42.42,0,0,0,.18-.32q0-6.81,0-13.62A1.36,1.36,0,0,0,19,2.59c-.81,0-1.62,0-2.46,0,0,.12,0,.23,0,.33a.61.61,0,0,0,.36.7,1.29,1.29,0,0,1,.51,1.64,1.35,1.35,0,0,1-2.58-.41,1.37,1.37,0,0,1,.79-1.35c.08,0,.19-.13.2-.2,0-.23,0-.47,0-.7h-3c0,.14,0,.26,0,.38a.52.52,0,0,0,.34.61,1.26,1.26,0,0,1,.56,1.61,1.33,1.33,0,0,1-2.57-.28,1.35,1.35,0,0,1,.74-1.4c.08,0,.2-.12.21-.2a5.77,5.77,0,0,0,0-.72h-3v.32a.6.6,0,0,0,.35.7,1.3,1.3,0,0,1,.52,1.64A1.35,1.35,0,1,1,8.11,3.5c.09,0,.21-.13.22-.21a5.45,5.45,0,0,0,0-.7h-3c0,.21,0,.4,0,.58a.29.29,0,0,0,.21.33A1.3,1.3,0,0,1,6.27,5,1.33,1.33,0,0,1,5,6.06a1.35,1.35,0,0,1-1.35-.91,1.27,1.27,0,0,1,.55-1.53A.61.61,0,0,0,4.6,2.9C4.59,2.81,4.6,2.71,4.6,2.57ZM25.36,17.08l-9,5.9.44.65,9-5.9Zm-.2-1.61,1.21,1.85a1.14,1.14,0,0,0,.13-1.5A1.08,1.08,0,0,0,25.16,15.47Zm-9.1,8.34-1-1.48-.78,1.48ZM8.69,4.1a.61.61,0,0,0-.64.6.63.63,0,1,0,1.25,0A.6.6,0,0,0,8.69,4.1Zm7.44,0a.62.62,0,0,0-.65.62.65.65,0,0,0,.63.63.64.64,0,0,0,.63-.62A.61.61,0,0,0,16.13,4.1ZM5,4.1a.6.6,0,0,0-.63.6A.62.62,0,0,0,5,5.35a.64.64,0,0,0,.63-.62A.62.62,0,0,0,5,4.1Zm6.8.63a.63.63,0,0,0,1.26,0,.63.63,0,0,0-.65-.62A.62.62,0,0,0,11.77,4.73Z"/><path class="cls-2" d="M5.19,12.93a2.42,2.42,0,1,1,2.44-2.4A2.42,2.42,0,0,1,5.19,12.93Zm0-.71A1.71,1.71,0,1,0,3.5,10.5,1.71,1.71,0,0,0,5.18,12.22Z"/><path class="cls-2" d="M5.2,18.88a2.42,2.42,0,1,1,2.43-2.41A2.43,2.43,0,0,1,5.2,18.88Zm0-.72a1.7,1.7,0,1,0-1.7-1.7A1.7,1.7,0,0,0,5.2,18.16Z"/><path class="cls-2" d="M5.2,24.82a2.42,2.42,0,1,1,2.43-2.41A2.41,2.41,0,0,1,5.2,24.82Zm0-.71A1.71,1.71,0,1,0,3.5,22.42,1.7,1.7,0,0,0,5.21,24.11Z"/><path class="cls-2" d="M13.83,10.18H9.58c-.09,0-.22,0-.29,0S9,9.94,9,9.82s.15-.24.26-.34.17,0,.26,0h8.56c.08,0,.19,0,.23,0s.27.23.27.36-.15.24-.26.32-.18,0-.27,0Z"/><path class="cls-2" d="M13.82,15.41h4.49a.35.35,0,0,1,0,.7H9.56c-.09,0-.2,0-.26,0S9,15.89,9,15.78s.16-.26.28-.35.17,0,.26,0Z"/><path class="cls-2" d="M11.73,11.37H9.51c-.32,0-.49-.12-.5-.35s.17-.36.5-.36H14c.21,0,.4,0,.46.28s-.11.44-.41.44Z"/><path class="cls-2" d="M11.73,17.32H9.51c-.32,0-.49-.12-.5-.35s.17-.37.5-.37H14c.21,0,.4,0,.46.27s-.11.44-.41.45Z"/><path class="cls-2" d="M2.63,8c0,.52,0,1,0,1.57,0,.25-.07.44-.35.46s-.37-.15-.37-.46V6.32c0-.29.14-.46.36-.46s.35.17.35.46C2.64,6.87,2.63,7.43,2.63,8Z"/><path class="cls-2" d="M2.68,4.9a1.62,1.62,0,0,1-.17.44.32.32,0,0,1-.48,0,.82.82,0,0,1,0-.88.3.3,0,0,1,.47,0A1.68,1.68,0,0,1,2.68,4.9Z"/><path class="cls-2" d="M4.92,16.51c-.09-.13-.16-.24-.24-.34a.36.36,0,1,0-.5.51l.48.49a.38.38,0,0,0,.6,0c.31-.3.63-.59.94-.9s.23-.41,0-.56-.37-.12-.54,0Z"/><path class="cls-2" d="M4.91,22.46a2.41,2.41,0,0,0-.25-.35.33.33,0,0,0-.52,0,.33.33,0,0,0,0,.5c.16.18.33.34.5.51a.37.37,0,0,0,.61,0l.92-.88c.22-.21.24-.41.07-.57s-.39-.11-.57.06S5.22,22.17,4.91,22.46Z"/><path class="cls-2" d="M4.92,16.51l.79-.75c.17-.17.35-.23.54,0s.16.36,0,.56-.63.6-.94.9a.38.38,0,0,1-.6,0l-.48-.49a.36.36,0,1,1,.5-.51C4.76,16.27,4.83,16.38,4.92,16.51Z"/><path class="cls-2" d="M4.91,22.46c.31-.29.55-.51.78-.74s.36-.25.57-.06.15.36-.07.57l-.92.88a.37.37,0,0,1-.61,0c-.17-.17-.34-.33-.5-.51a.33.33,0,0,1,0-.5.33.33,0,0,1,.52,0A2.41,2.41,0,0,1,4.91,22.46Z"/></g></g></svg>