<svg xmlns="http://www.w3.org/2000/svg" viewBox="0 0 28 28"><defs><style>.cls-1{fill:none;}.cls-2{fill:#0091ff;}</style></defs><g id="Layer_2" data-name="Layer 2"><g id="Layer_1-2" data-name="Layer 1"><rect class="cls-1" width="28" height="28"/><path class="cls-2" d="M15.82,27.69a2.29,2.29,0,0,1-.41-.53c-.35-.86-.71-1.72-1-2.61A6.06,6.06,0,0,1,14.25,23c0-.72,0-1.44,0-2.16v-.32H11.58c-.39,0-.63-.2-.63-.53s.23-.53.63-.53c.78,0,1.57,0,2.35,0h.3c0-.2,0-.37,0-.53a1.65,1.65,0,0,1,3.2-.48c.29.79.54,1.58.8,2.38a1,1,0,0,0,.48.61A.89.89,0,0,0,20,20.73c0-.11,0-.22,0-.32,0-5.5,0-11,0-16.5a3.64,3.64,0,0,1,.75-2.51l-.22,0H5A2,2,0,0,0,2.84,3.52V23c0,.51.19.69.7.69h6.62a1.94,1.94,0,0,1,.34,0,.51.51,0,0,1,.41.52.51.51,0,0,1-.4.5,1.77,1.77,0,0,1-.32,0H3.54A1.63,1.63,0,0,1,1.77,23c0-6.48,0-13,0-19.44A3.14,3.14,0,0,1,4.43.34l.07,0h19l.07,0A3.12,3.12,0,0,1,26.23,3.6c0,1.38,0,2.75,0,4.12a1.62,1.62,0,0,1-1.74,1.73c-1,0-2.06,0-3.09,0h-.27a.73.73,0,0,0,.26.81c.38.34.73.72,1.1,1.09a7.68,7.68,0,0,1,2.35,5.44c0,2,0,4.05,0,6.07a10.17,10.17,0,0,1-1,4.31,2.59,2.59,0,0,1-.42.52h-.27c-.41-.23-.49-.45-.3-.9a.89.89,0,0,0,.08-.17A9.47,9.47,0,0,0,23.77,23c0-2,0-4,0-6a8.51,8.51,0,0,0-.18-1.59,7.27,7.27,0,0,0-2.5-3.9v8c0,.38,0,.76,0,1.15A1.92,1.92,0,0,1,20,22.39a1.87,1.87,0,0,1-2-.11,2,2,0,0,1-.81-1.09l-.75-2.28a.6.6,0,0,0-.56-.46.55.55,0,0,0-.56.33,1.2,1.2,0,0,0-.07.42v3.9a5.23,5.23,0,0,0,.43,2.1c.23.54.45,1.07.67,1.61s.11.66-.33.88ZM21.1,8.38h3.53c.34,0,.53-.25.53-.64V3.46a2,2,0,0,0-.4-1.25A2,2,0,0,0,21.11,3.4c0,.54,0,1.09,0,1.63Z"/><path class="cls-2" d="M4.64,5.42c0-.38,0-.77,0-1.15A1,1,0,0,1,5.74,3.2c.76,0,1.53,0,2.29,0a1,1,0,0,1,1.07,1c0,.84,0,1.69,0,2.54A1,1,0,0,1,8,7.69H5.72A1.05,1.05,0,0,1,4.65,6.62C4.63,6.22,4.64,5.82,4.64,5.42ZM5.72,6.6H8V4.28H5.72Z"/><path class="cls-2" d="M4.64,11.85v-1.1A1.08,1.08,0,0,1,5.78,9.61H8a1,1,0,0,1,1.12,1.06c0,.79,0,1.57,0,2.36A1.05,1.05,0,0,1,8,14.11H5.78A1.08,1.08,0,0,1,4.64,13ZM8,13V10.7H5.73V13Z"/><path class="cls-2" d="M4.64,18.27v-1.1A1.08,1.08,0,0,1,5.78,16H8A1.05,1.05,0,0,1,9.12,17.1c0,.79,0,1.57,0,2.36A1,1,0,0,1,8,20.52c-.74,0-1.49,0-2.24,0a1,1,0,0,1-1.1-1.08c0-.39,0-.78,0-1.17Zm1.09-1.16v2.33H8V17.11Z"/><path class="cls-2" d="M14.51,14.11h-3a.54.54,0,0,1-.57-.54.53.53,0,0,1,.56-.53h6.08a.53.53,0,0,1,.53.53.54.54,0,0,1-.54.54H14.51Z"/><path class="cls-2" d="M15.73,7.69H14c-.4,0-.63-.2-.64-.53s.23-.54.63-.54h3.46c.4,0,.64.2.64.53s-.24.54-.65.54Z"/><path class="cls-2" d="M11.47,6.62a.53.53,0,0,1,0,1.06A.52.52,0,0,1,11,7.16.54.54,0,0,1,11.47,6.62Z"/><path class="cls-2" d="M12.73,23.74a.55.55,0,0,1,.52.54.53.53,0,0,1-1.06,0A.55.55,0,0,1,12.73,23.74Z"/></g></g></svg>