<svg xmlns="http://www.w3.org/2000/svg" viewBox="0 0 28 28"><defs><style>.cls-1{fill:none;}.cls-2{fill:#0091ff;}</style></defs><g id="Layer_2" data-name="Layer 2"><g id="Layer_2-2" data-name="Layer 2"><rect class="cls-1" width="28" height="28"/><path class="cls-2" d="M6.27,11a6,6,0,0,1,7.8-9.19,5.84,5.84,0,0,1,2.14,4.58A6,6,0,0,1,14.14,11l.74.29a1,1,0,0,1,.5,1.22.91.91,0,0,1-1.22.53,7.78,7.78,0,0,0-3.37-.56,29.07,29.07,0,0,0-3,.11,6.53,6.53,0,0,0-5.46,5.61c-.1.82-.08,1.66-.11,2.52H10.2a1,1,0,1,1,.11,1.9H1.52c-.78,0-1.14-.35-1.13-1.12A27.69,27.69,0,0,1,.47,18a8.35,8.35,0,0,1,5.55-7Zm8-4.53a4.11,4.11,0,1,0-4.15,4.09A4.1,4.1,0,0,0,14.31,6.43Z"/><path class="cls-2" d="M20.33,27.63a7.28,7.28,0,1,1,7.29-7.24A7.29,7.29,0,0,1,20.33,27.63Zm5.39-7.27a5.38,5.38,0,1,0-5.36,5.37A5.38,5.38,0,0,0,25.72,20.36Z"/><path class="cls-2" d="M20,18.77h-.4a1,1,0,0,1-.86-1,.93.93,0,0,1,.87-.92,11.21,11.21,0,0,1,1.42,0,.89.89,0,0,1,.86.87q0,2.61,0,5.22a.9.9,0,0,1-.84.86.93.93,0,0,1-1-.73,1.84,1.84,0,0,1,0-.41V18.77Z"/></g></g></svg>