<svg xmlns="http://www.w3.org/2000/svg" xmlns:xlink="http://www.w3.org/1999/xlink" width="748.6" height="647.153" viewBox="0 0 748.6 647.153">
  <defs>
    <linearGradient id="linear-gradient" y1="0.5" x2="1" y2="0.5" gradientUnits="objectBoundingBox">
      <stop offset="0" stop-color="#0091ff"/>
      <stop offset="1" stop-color="#31a7ff"/>
    </linearGradient>
    <linearGradient id="linear-gradient-2" y1="0.5" x2="1" y2="0.5" gradientUnits="objectBoundingBox">
      <stop offset="0" stop-color="#0091ff"/>
      <stop offset="1" stop-color="#0091ff"/>
    </linearGradient>
    <linearGradient id="linear-gradient-3" x1="1.342" y1="0.453" x2="0.57" y2="0.498" gradientUnits="objectBoundingBox">
      <stop offset="0" stop-color="#0091ff"/>
      <stop offset="1" stop-color="#3dacff"/>
    </linearGradient>
  </defs>
  <g id="Group_703" data-name="Group 703" transform="translate(-1020 -207.145)">
    <g id="Group_701" data-name="Group 701" transform="translate(33 -6)">
      <text id="OPS" transform="translate(1388 346)" fill="#2a2b3d" font-size="37" font-family="Montserrat-ExtraBold, Montserrat" font-weight="800"><tspan x="0" y="0">OPS</tspan></text>
      <g id="Layer_2" data-name="Layer 2" transform="translate(1057.779 213.148)">
        <g id="Isolation_Mode" data-name="Isolation Mode" transform="translate(0.02 -0.003)">
          <path id="Path_17383" data-name="Path 17383" d="M1756.278,238.73a119.064,119.064,0,0,0,0-238.129s-39.058-1.326-67.483,18.756c-25.016,15.82-64.194,64.516-64.194,64.516,1.187,0,57.336-17.126,97.243-31.939a110.4,110.4,0,0,1,39.741-6.345,74.266,74.266,0,0,1-5.307,148.341Z" transform="translate(-1373.192 -0.493)" fill="url(#linear-gradient)"/>
          <path id="Path_17384" data-name="Path 17384" d="M1036.49,238.4h.091s38.721,3.63,77.5-27.187c54.228-51.82,46.523-110.25,29.2-145.969-16.382-33.781-44.1-47.179-44.1-47.179-.514,0,63.559,39.569,32,117.549-12.391,26.608-43.8,42.215-60.453,49.914-18.632,8.618-38.379,7.937-38.951,7.892-12.078-.783-30.022-4.29-38.467-11.945l-1.111-1.007-1.238-.851c-13.494-9.285-38.679-36.522-65.727-71.095l-6.726-8.6h-.549c-17.727-22.481-41.2-51.33-72.335-76.884-25.5-21.989-66.938-22.7-72.1-22.7h-.088l.036,22.414-.026,22.385c11.607.048,33.617,3.381,43.266,12.12l1.111,1.007,1.238.85c14.237,9.788,41.8,39.965,70.21,76.875l6.726,8.737h.76c18.454,23.058,46.564,55.993,67.646,70.985C989.886,237.694,1031.322,238.4,1036.49,238.4Z" transform="translate(-653.743 -0.287)" fill="url(#linear-gradient-2)"/>
          <path id="Path_17385" data-name="Path 17385" d="M123.335,238.235v-44.8a74.265,74.265,0,0,1,0-148.53s11.3-.1,27.317,4.078c3.494.911,18.713,6.746,41.926,32.989C221.992,110.4,260.74,152.3,295.953,173.653c55.788,33.829,96.544,18.994,96.544,18.994a101.915,101.915,0,0,1-38.357-4.757c-16.43-8.4-38.041-28.115-61.079-57.429C264.074,91.015,205.419,27.183,185.779,15.756,154.914-2.361,122.3.109,122.011.112a119.065,119.065,0,0,0,1.325,238.123Z" transform="translate(-3.612 0.003)" fill="#0091ff"/>
          <path id="Path_17386" data-name="Path 17386" d="M119.8,238.443c.687,0,2.021-.012,3.869-.087,12.054-.48,46.126-3.55,68.223-22.594,23-16.364,79.614-85.5,79.614-85.5,27.048-34.573,52.232-61.816,65.727-71.095l1.238-.851,1.111-1.007c10.121-9.168,33.36-12.117,43.12-12.117h.08l.074-44.8h-.09c-5.159,0-46.6.706-72.1,22.687C289.584,38.071,261.473,71.01,243.019,94.06l-7.485,8.739c-28.411,36.912-55.973,67.087-70.21,76.875l-1.238.85-1.113,1.009c-10.122,9.168-33.362,12.119-43.12,12.119h-.08s-54.287-2.631-79.667-34.51C-11.017,77.09,41.559,29.785,41.559,29.785S16.5,49.156,5.78,84.99C-5.244,121.872-5.9,175.974,54.366,220.156,83.29,240.681,119.783,238.443,119.8,238.443Z" transform="translate(-0.02 -0.329)" fill="#0091ff"/>
          <path id="Path_17387" data-name="Path 17387" d="M919.388,45.463q1.817.128,3.609.345v-45Q918.58.481,914.082.476S875.024-1.314,846.6,18.768C813.212,43.736,782.4,83.748,782.4,83.748c-14.536,16.453-53.679,69.793-78.121,89.6-29.51,29.149-76.073,16.973-76.073,16.973.464,0,45.945,23.937,118.654-25.584,58.25-38.094,108.715-103.994,132.778-112.926A110.451,110.451,0,0,1,919.388,45.463Z" transform="translate(-530.996 -0.367)" fill="url(#linear-gradient-3)"/>
        </g>
      </g>
      <path id="Path_16720" data-name="Path 16720" d="M247.022,71.507V183.092a5.193,5.193,0,0,1-5.193,5.193H71.683a5.193,5.193,0,0,1-5.193-5.193V71.507a12,12,0,0,1,12-12H235.025A12,12,0,0,1,247.022,71.507Z" transform="translate(1242.509 411.255)" fill="#263238" stroke="#a6a4f7" stroke-miterlimit="10" stroke-width="1"/>
      <g id="Group_683" data-name="Group 683" transform="translate(1359.162 497.481)">
        <path id="Path_17092" data-name="Path 17092" d="M299.023,246.143l-5.616-3.744a1.011,1.011,0,0,1,0-1.7l5.616-3.744a.936.936,0,0,1,1.292.262h0a.936.936,0,0,1-.262,1.273l-4.661,3.089,4.661,3.089a.936.936,0,0,1,.262,1.273h0A.955.955,0,0,1,299.023,246.143Z" transform="translate(-292.902 -234.361)" fill="#fff"/>
        <path id="Path_17093" data-name="Path 17093" d="M302.882,245.907h0a.917.917,0,0,1,.318-1.217l4.661-3.089-4.661-3.145a.917.917,0,0,1-.243-1.273h0a.917.917,0,0,1,1.273-.262l5.616,3.744a1.011,1.011,0,0,1,0,1.7l-5.616,3.744a.936.936,0,0,1-1.348-.206Z" transform="translate(-284.33 -234.386)" fill="#fff"/>
        <path id="Path_17094" data-name="Path 17094" d="M299.02,249.544h0a.917.917,0,0,1-.6-1.161L302.3,236.14a.9.9,0,0,1,1.142-.6h0a.9.9,0,0,1,.6,1.142l-3.856,12.262a.917.917,0,0,1-1.161.6Z" transform="translate(-288.162 -235.496)" fill="#fff"/>
        <path id="Path_17095" data-name="Path 17095" d="M335.565,248.907h-41.69a.955.955,0,0,1-.955-.974h0a.955.955,0,0,1,.955-.973h41.69a.973.973,0,0,1,.973.973h0A.973.973,0,0,1,335.565,248.907Z" transform="translate(-292.92 -225.499)" fill="#fff"/>
        <path id="Path_17096" data-name="Path 17096" d="M361.163,248.872H319.454a.973.973,0,0,1-.973-.973h0a.973.973,0,0,1,.973-.9h41.672a.973.973,0,0,1,.973.973h0a.974.974,0,0,1-.936.9Z" transform="translate(-270.631 -225.464)" fill="#fff"/>
        <path id="Path_17097" data-name="Path 17097" d="M317.706,253.478H293.875a.955.955,0,0,1-.955-.973h0a.955.955,0,0,1,.955-.955h23.831a.974.974,0,0,1,.974.955h0A.973.973,0,0,1,317.706,253.478Z" transform="translate(-292.92 -221.496)" fill="#fff"/>
        <path id="Path_17098" data-name="Path 17098" d="M348.947,253.478H309.915a.955.955,0,0,1-.955-.973h0a.955.955,0,0,1,.955-.955h39.032a.955.955,0,0,1,.955.955h0a.955.955,0,0,1-.955.974Z" transform="translate(-278.932 -221.496)" fill="#fff"/>
        <path id="Path_17099" data-name="Path 17099" d="M357.374,258.077h-63.5a.974.974,0,0,1-.955-.973h0a.955.955,0,0,1,.955-.973h63.5a.973.973,0,0,1,.973.973h0a.974.974,0,0,1-.973.973Z" transform="translate(-292.92 -217.503)" fill="#fff"/>
        <path id="Path_17100" data-name="Path 17100" d="M344.378,258.077H331.124a.973.973,0,0,1-.973-.973h0a.974.974,0,0,1,.973-.973h13.254a.973.973,0,0,1,.973.973h0a.973.973,0,0,1-.973.973Z" transform="translate(-260.454 -217.503)" fill="#fff"/>
        <path id="Path_17101" data-name="Path 17101" d="M323.528,262.657H293.875a.955.955,0,0,1-.955-.973h0a.955.955,0,0,1,.955-.973h29.653a.973.973,0,0,1,.973.973h0A.973.973,0,0,1,323.528,262.657Z" transform="translate(-292.92 -213.509)" fill="#fff"/>
        <path id="Path_17102" data-name="Path 17102" d="M349.941,262.657h-36.9a.973.973,0,0,1-.973-.973h0a.973.973,0,0,1,.973-.973h36.9a.973.973,0,0,1,.973.973h0A.973.973,0,0,1,349.941,262.657Z" transform="translate(-276.22 -213.509)" fill="#fff"/>
        <path id="Path_17103" data-name="Path 17103" d="M348.9,267.228H319.454a.973.973,0,0,1-.973-.973h0a.955.955,0,0,1,.973-.955h29.41a.955.955,0,0,1,.955.955h0a.955.955,0,0,1-.917.973Z" transform="translate(-270.631 -209.506)" fill="#fff"/>
      </g>
      <g id="Layer_2-2" data-name="Layer 2" transform="translate(987 196.588)">
        <g id="OBJECTS">
          <path id="Path_17108" data-name="Path 17108" d="M739.37,663.71H9.23A9.22,9.22,0,0,1,0,654.49H0a9.23,9.23,0,0,1,9.23-9.23H739.37a9.23,9.23,0,0,1,9.23,9.23h0a9.22,9.22,0,0,1-9.23,9.22Z" fill="#b6b9d1"/>
          <rect id="Rectangle_907" data-name="Rectangle 907" width="454.15" height="17.98" transform="translate(86.44 409.91)" fill="#c46c3b"/>
          <rect id="Rectangle_908" data-name="Rectangle 908" width="20.13" height="228.14" transform="translate(124.27 426.34)" fill="#c46c3b"/>
          <rect id="Rectangle_909" data-name="Rectangle 909" width="20.13" height="228.14" transform="translate(484.42 426.34)" fill="#c46c3b"/>
          <rect id="Rectangle_910" data-name="Rectangle 910" width="20.13" height="22.81" transform="translate(124.27 426.34)" fill="#aa5327"/>
          <rect id="Rectangle_911" data-name="Rectangle 911" width="20.13" height="22.81" transform="translate(484.42 426.34)" fill="#aa5327"/>
          <path id="Path_17110" data-name="Path 17110" d="M422.69,409.21H346.23a9.28,9.28,0,0,1,9.28-9.28h57.9a9.29,9.29,0,0,1,9.28,9.28Z" fill="#2a2b3d"/>
          <path id="Path_17115" data-name="Path 17115" d="M376,623.34c-2,18.86-4.74,27.25,0,29.95s31.59,0,37.41,0,5.82-12.27-3.88-17.38-11.65-23.42-11.65-23.42Z" fill="#2a2b3d"/>
          <path id="Path_17116" data-name="Path 17116" d="M254.16,623.34c-2,18.86-4.74,27.25,0,29.95s31.59,0,37.41,0,5.82-12.27-3.88-17.38-11.64-23.42-11.64-23.42Z" fill="#2a2b3d"/>
          <path id="Path_17117" data-name="Path 17117" d="M286.06,550.58c-.53,20.24-2,39.25-4.54,51.06H244.07L230.13,520l-1.43-8.39a14.39,14.39,0,0,1-14.42-14.35V497c.26-16.17,3.06-41.29,17-50.94,15.51-10.74,46.62,11.89,49.39,17.48,2.7,5.43,4.56,24.09,5.29,46.48C286.37,522.87,286.42,537,286.06,550.58Z" fill="#171923"/>
          <path id="Path_17118" data-name="Path 17118" d="M286.06,550.58c-13.22,5.7-24,40.95-26.87,51.06H244.07L230.13,520a19,19,0,0,1,5.57-6.31c6.8-4.25,46.06-3.74,50.24-3.67C286.37,522.87,286.42,537,286.06,550.58Z" fill="#263238"/>
          <path id="Path_17119" data-name="Path 17119" d="M409.11,395.38c11.93-4.5,20.24.73,22.4,4.43s3.38,7.08,2.46,8.92-4,0-4,0-10.47,1.95-18.47.83S409.11,395.38,409.11,395.38Z" fill="#f4b8ab"/>
          <path id="Path_17120" data-name="Path 17120" d="M411.12,398.85c6.48,3.48,17.8,8.4,17.74,9.24s-10.14,3.14-16.57,1.35S411.12,398.85,411.12,398.85Z" fill="#dd6595" opacity="0.53"/>
          <path id="Path_17121" data-name="Path 17121" d="M295.72,253.19c4.52,18.51,1.23,40.34-14.64,42.08l.07,6.52a8.75,8.75,0,0,1-8.65,8.82h0a8.74,8.74,0,0,1-8.83-8.65l-.06-6.51s-12.77-5.28-15.39-13.19,0-1.27,0-1.27l-1.45-32.4,49.32-.49Z" fill="#f4b8ab"/>
          <path id="Path_17122" data-name="Path 17122" d="M281.08,295.27a145.85,145.85,0,0,1-15.19.53l15.26,6Z" fill="#dd6595" opacity="0.53"/>
          <path id="Path_17123" data-name="Path 17123" d="M296.49,256.77c14-8.84,11.36-27.09,1.43-20.62,0,0-15.65-16.1-39.91-7.31s-27.3,29.09-22.18,41.74,36.55,19.23,36.55,19.23L286.9,274.4Z" fill="#6d3744"/>
          <path id="Path_17124" data-name="Path 17124" d="M297.92,236.15c2.42-7.05-3.66-16-9.33-16s-5.35,9.74-5.35,9.74l9.68,12.81Z" fill="#6d3744"/>
          <path id="Path_17125" data-name="Path 17125" d="M287.46,268.85c-.16,2.2-1.84,22.07-6.38,26.42l-19.55.27s-21.58-4.4-25.19-22.33a57.1,57.1,0,0,1-.88-5.85c6.37,13,33.29,15.14,47.81-1.21C283.27,266.15,285.1,267.29,287.46,268.85Z" fill="#542633"/>
          <path id="Path_17126" data-name="Path 17126" d="M292.94,265c-4.07-7.25-8.74-4.15-9.64.09s7.67,14.46,9.75,10.82S292.94,265,292.94,265Z" fill="#f4b8ab"/>
          <path id="Path_17127" data-name="Path 17127" d="M292.53,266.93c-3.6-3.71-5.33-2.15-5,1.73s5,6.62,6.49,5.49S292.53,266.93,292.53,266.93Z" fill="#dd6595" opacity="0.53"/>
          <path id="Path_17128" data-name="Path 17128" d="M412.29,409.44c-1.9,3.77-51.1,11.34-63.7,8.83s-22.71-20.82-22.71-20.82V446H231.26s-9.19-44.64-14.31-74.48c-2.11-12.28-3.54-22-3.35-25.18.37-6.3,1.62-9.77,2.59-11.57h0a5.89,5.89,0,0,1,1.2-1.66,51.92,51.92,0,0,1,38.47-24l.63-8.2c22.07-4.4,37.84,0,38.47,3.8a25.211,25.211,0,0,1,0,7.49s26.5-6.88,45.43,20.25S366.88,381,366.88,381s35.95,7.58,40.37,12a20.51,20.51,0,0,1,4.31,6.78C413,403.44,413.4,407.2,412.29,409.44Z" fill="#0091ff"/>
          <path id="Path_17129" data-name="Path 17129" d="M412.29,409.44c-1.9,3.77-51.1,11.34-63.7,8.83s-22.71-20.82-22.71-20.82V446H231.26s-9.19-44.64-14.31-74.48l-.76-36.75h0s23.1.77,58.48,1S312,357.91,321.6,371.15s15.88,35.62,33,35.86,52.94,3.13,56.55-7.09l.43-.1C413,403.44,413.4,407.2,412.29,409.44Z" fill="#5355b7" opacity="0.38"/>
          <path id="Path_17130" data-name="Path 17130" d="M404,598.77c-.18,1-.37,2-.58,2.87H365.94l-15.37-90.08H283.24l-19.11-24.1L231.26,446h94.62c1.44,0,2.93,0,4.46.05,25.8.46,66,5,72.18,17.43,2.22,4.49,3.88,18.05,4.78,35.29C409,530.83,408.22,575.62,404,598.77Z" fill="#171923"/>
          <path id="Path_17131" data-name="Path 17131" d="M404,598.77l-3.28,2.87H365.94l-15.37-90.08H283.24l-19.11-24.1,1.76-27.63L278.72,446h47.16c1.44,0,2.93,0,4.46.05-5.33,45.56,27.8,57.45,49,56.29a197.073,197.073,0,0,0,28-3.57C409,530.83,408.22,575.62,404,598.77Z" fill="#263238"/>
          <path id="Path_17132" data-name="Path 17132" d="M403.1,623.34H365.82l-3.42-21.7h44.12Z" fill="#263238"/>
          <path id="Path_17133" data-name="Path 17133" d="M281.23,623.34H243.95l-3.41-21.7h44.11Z" fill="#263238"/>
          <rect id="Rectangle_924" data-name="Rectangle 924" width="3.39" height="12.75" transform="translate(214.73 636.82)" fill="#55597c"/>
          <rect id="Rectangle_925" data-name="Rectangle 925" width="3.39" height="12.75" transform="translate(238.84 636.82)" fill="#55597c"/>
          <rect id="Rectangle_926" data-name="Rectangle 926" width="3.39" height="12.75" transform="translate(262.95 636.82)" fill="#55597c"/>
          <path id="Path_17134" data-name="Path 17134" d="M215.42,344.22h73.53a24.31,24.31,0,0,1,24.31,24.31v136a7,7,0,0,1-7,7H198.15a7,7,0,0,1-7-7v-136a24.31,24.31,0,0,1,24.27-24.31Z" fill="#ffc55a"/>
          <path id="Path_17135" data-name="Path 17135" d="M215.42,344.22h73.53a24.31,24.31,0,0,1,24.31,24.31v136a7,7,0,0,1-7,7H198.15a7,7,0,0,1-7-7v-136a24.31,24.31,0,0,1,24.27-24.31Z" fill="#f49947"/>
          <path id="Path_17136" data-name="Path 17136" d="M194.52,344.22H268a24.31,24.31,0,0,1,24.31,24.31v136a7,7,0,0,1-7,7H177.25a7,7,0,0,1-7-7v-136a24.31,24.31,0,0,1,24.27-24.31Z" fill="#ffc55a"/>
          <rect id="Rectangle_927" data-name="Rectangle 927" width="130.57" height="24.46" rx="7.16" transform="translate(202.47 511.56)" fill="#f49947"/>
          <rect id="Rectangle_928" data-name="Rectangle 928" width="130.57" height="24.46" rx="7.16" transform="translate(171.35 511.56)" fill="#ffc55a"/>
          <rect id="Rectangle_929" data-name="Rectangle 929" width="9.87" height="87.02" transform="translate(235.86 545.92)" fill="#14161e"/>
          <path id="Path_17137" data-name="Path 17137" d="M222,536h36.48v7.74a2.17,2.17,0,0,1-2.17,2.17H224.14a2.17,2.17,0,0,1-2.17-2.17V536Z" fill="#1f202d"/>
          <rect id="Rectangle_930" data-name="Rectangle 930" width="58.17" height="8.66" transform="translate(211.13 630.75)" fill="#1f202d"/>
          <rect id="Rectangle_931" data-name="Rectangle 931" width="12.92" height="95.4" transform="translate(222.79 440.62)" fill="#2a2b3d"/>
          <rect id="Rectangle_932" data-name="Rectangle 932" width="29.94" height="33.28" rx="4.02" transform="translate(214.28 422.74)" fill="#1f202d"/>
          <rect id="Rectangle_933" data-name="Rectangle 933" width="14.99" height="16.66" rx="4.02" transform="translate(221.75 431.04)" fill="#2a2b3d"/>
          <path id="Path_17138" data-name="Path 17138" d="M221.72,650.43a5.29,5.29,0,1,1-1.549-3.751,5.3,5.3,0,0,1,1.549,3.751Z" fill="#14161e"/>
          <path id="Path_17139" data-name="Path 17139" d="M245.83,650.43a5.29,5.29,0,1,1-1.546-3.747,5.3,5.3,0,0,1,1.546,3.747Z" fill="#14161e"/>
          <path id="Path_17140" data-name="Path 17140" d="M270,650.43a5.3,5.3,0,1,1-5.3-5.3,5.3,5.3,0,0,1,5.3,5.3Z" fill="#14161e"/>
          <path id="Path_17141" data-name="Path 17141" d="M138.11,404.88,86.44,298.52l56.51-53.69" fill="none" stroke="#61648a" stroke-miterlimit="10" stroke-width="6.83"/>
          <path id="Path_17142" data-name="Path 17142" d="M96.33,298.52a9.89,9.89,0,1,1-9.89-9.88,9.89,9.89,0,0,1,9.89,9.88Z" fill="#61648a" stroke="#2a2b3d" stroke-miterlimit="10" stroke-width="6.83"/>
          <path id="Path_17143" data-name="Path 17143" d="M140.36,226h0a9.5,9.5,0,0,1,13.47,2.79l2,3.26L140.48,242.2,138.6,240a9.51,9.51,0,0,1,1.76-14Z" fill="#61648a"/>
          <path id="Path_17144" data-name="Path 17144" d="M184.45,275.56a8.33,8.33,0,1,1-2.44-5.9,8.34,8.34,0,0,1,2.44,5.9Z" fill="#ffc55a"/>
          <path id="Path_17145" data-name="Path 17145" d="M140.48,242.2l15.57,39.72a5.12,5.12,0,0,0,6.81,2.85c6.68-2.89,18.52-8.76,24.71-16.21a5.15,5.15,0,0,0-.43-7L155.86,232Z" fill="#2a2b3d"/>
          <rect id="Rectangle_934" data-name="Rectangle 934" width="50.41" height="8.13" transform="translate(112.91 400.81)" fill="#2a2b3d"/>
          <g id="Group_700" data-name="Group 700" transform="translate(-34.115 -9.23)">
            <path id="Path_17149" data-name="Path 17149" d="M503.79,612.49c2,18.87,4.1,38.1-.64,40.8s-31.59,0-37.41,0-5.82-12.27,3.88-17.38,11.65-23.42,11.65-23.42Z" transform="translate(119.66)" fill="#2a2b3d"/>
            <path id="Path_17150" data-name="Path 17150" d="M620.77,623.34c2.05,18.86,4.74,27.25,0,29.95s-31.59,0-37.41,0-5.82-12.27,3.88-17.38A17.65,17.65,0,0,0,597,621.32Z" transform="translate(119.66)" fill="#2a2b3d"/>
            <path id="Path_17151" data-name="Path 17151" d="M464.78,157.88c-7.93,15.9-7,32.11,8.88,32.78S464.78,157.88,464.78,157.88Z" transform="translate(119.66)" fill="#542633"/>
            <path id="Path_17152" data-name="Path 17152" d="M467.28,174.5c5,19.53,18.89,38.28,34.58,32l3.17,6.11a9.23,9.23,0,0,0,12.46,3.94h0a9.24,9.24,0,0,0,3.94-12.46L518.25,198s9.3-11.26,7.81-20-.62-1.19-.62-1.19l-14.74-31-46.29,24Z" transform="translate(119.66)" fill="#f4b8ab"/>
            <path id="Path_17153" data-name="Path 17153" d="M501.86,206.52a156.6,156.6,0,0,0,14.44-7.06L505,212.63Z" transform="translate(119.66)" fill="#dd6595" opacity="0.53"/>
            <path id="Path_17154" data-name="Path 17154" d="M526.52,172.75c-.51,9.86-3,18.4-4.93,20.47-4.1,4.42-18.13,9.32-18.13,9.32-6.39-.85-17.12-5.5-25.81-12.77-9.23-7.71-16.16-18.35-13.24-30.56,5-20.76,35.53-30.63,51.9-17.77C525.06,148.32,527.12,161.41,526.52,172.75Z" transform="translate(119.66)" fill="#6d3744"/>
            <path id="Path_17155" data-name="Path 17155" d="M526.52,172.75c-.51,9.86-3,18.4-4.93,20.47-4.1,4.42-18.13,9.32-18.13,9.32-6.39-.85-17.12-5.5-25.81-12.77.26-3.16,1.13-6.17,3.19-8,6.07-5.44,23.83,7.33,27.85-13.23l3.74-1.29S520.6,170.41,526.52,172.75Z" transform="translate(119.66)" fill="#542633"/>
            <path id="Path_17156" data-name="Path 17156" d="M475.73,184.12c.2-8.78,6.1-8.21,9-4.7s0,17.3-3.72,14.94S475.73,184.12,475.73,184.12Z" transform="translate(119.66)" fill="#f4b8ab"/>
            <path id="Path_17157" data-name="Path 17157" d="M477.08,185.75c1.52-5.25,3.91-4.66,5.58-.9s-1.37,8.66-3.33,8.36S477.08,185.75,477.08,185.75Z" transform="translate(119.66)" fill="#dd6595" opacity="0.53"/>
            <path id="Path_17158" data-name="Path 17158" d="M513.86,147.36a14,14,0,0,0-5.17,21.16c4,5.13,11.2,2.78,11.2,2.78Z" transform="translate(119.66)" fill="#ffc55a"/>
            <path id="Path_17159" data-name="Path 17159" d="M510.05,159.37c-2.37-11.63,9.67-21.5,20.2-16a12.7,12.7,0,0,1,6.06,6.51c4,9.87,3.7,22.67,15.79,24.41,0,0-14.55,15.56-29.11,6.18C514.84,175.2,511.45,166.24,510.05,159.37Z" transform="translate(119.66)" fill="#6d3744"/>
            <path id="Path_17160" data-name="Path 17160" d="M553.51,204.46c23.52.41,48.89,30.53,56,50.29s-11.71,43.77-11.71,43.77Z" transform="translate(119.66)" fill="#0091ff"/>
            <path id="Path_17161" data-name="Path 17161" d="M411.12,314.73c-10.12-13-14.77-13.69-18-11.19s-15.37,9.51-17.51,11.19.36,4.18,4.29,3.46l3.93-.71s-1.79,9.29,2.85,13.57,19.3-1.78,19.3-1.78Z" transform="translate(119.66)" fill="#f4b8ab"/>
            <path id="Path_17162" data-name="Path 17162" d="M597.2,400.81c-2.28,10.08-8.58,28.39-16.83,50.4C554.52,520.08,509.54,625,509.54,625l-38.25-3.65,57.06-283.51,1.21-6.05s25.36-37.43,45.1-29c4,1.69,7.61,4.95,10.82,9.44,4.32,6,7.89,14.12,10.45,23.53a140,140,0,0,1,1.27,65.05Z" transform="translate(119.66)" fill="#263238"/>
            <path id="Path_17163" data-name="Path 17163" d="M625.84,623.8,593,625,580.37,451.21l-5.71-78.65V312.23h37.5c6.05,7.81,11.28,18.61,15.58,32h0C646.26,401.58,647.93,506.14,625.84,623.8Z" transform="translate(119.66)" fill="#263238"/>
            <path id="Path_17164" data-name="Path 17164" d="M579.39,453.82l31.79-58.13-28.46,88.05Z" transform="translate(119.66)" fill="#171923"/>
            <path id="Path_17165" data-name="Path 17165" d="M627.74,344.21c-.51-.25-11.72-5.55-31.81-8.45A180.873,180.873,0,0,0,574.66,334a219.881,219.881,0,0,0-46.31,3.83l1.21-6.05s25.36-37.43,45.1-29c4,1.69,7.61,4.95,10.82,9.44h26.68C618.21,320,623.44,330.84,627.74,344.21Z" transform="translate(119.66)" fill="#171923"/>
            <path id="Path_17166" data-name="Path 17166" d="M612.16,312.23l-82.6,19.53-27.48-36.49s-14.85,35.19-24.7,40.4-72.15-3.26-72.15-3.26c-1.62-1.84-1.77-5.42-1.28-9.26h0a75.14,75.14,0,0,1,3.81-14.74l48.86-4.63s14.79-39.84,20.74-58.95,18.51-21.89,18.51-21.89a35.774,35.774,0,0,0-.12-6.06c-.37-1.37,20-16.44,33.79-16.44l3.22,2.92s13-5.65,29.93,6.07c8.9,6.15,22.1,34.22,32.62,59.48h0C604.83,291.74,612.16,312.23,612.16,312.23Z" transform="translate(119.66)" fill="#0091ff"/>
            <path id="Path_17167" data-name="Path 17167" d="M612.16,312.23l-82.6,19.53-27.48-36.49s-14.85,35.19-24.7,40.4-72.15-3.26-72.15-3.26c-1.62-1.84-1.77-5.42-1.28-9.26h0c17.27-7.87,60.27,11.65,71-2.12s22-52.61,27.17-41.7,15.75,27.39,28.83,30.21,66.9-11,64.4-40.61C604.83,291.74,612.16,312.23,612.16,312.23Z" transform="translate(119.66)" fill="#383952" opacity="0.36"/>
          </g>
        </g>
      </g>
      <text id="DEV" transform="translate(1141 346)" fill="#2a2b3d" font-size="37" font-family="Montserrat-ExtraBold, Montserrat" font-weight="800"><tspan x="0" y="0">DEV</tspan></text>
    </g>
  </g>
</svg>
