<svg xmlns="http://www.w3.org/2000/svg" width="714.664" height="391.762" viewBox="0 0 714.664 391.762">
  <g id="Group_792" data-name="Group 792" transform="translate(-11787.056 1945.231)">
    <g id="Layer_2" data-name="Layer 2" transform="translate(10768.74 -2610.522)">
      <g id="Layer_1" data-name="Layer 1" transform="translate(1018.315 498)">
        <g id="Group_791" data-name="Group 791" transform="translate(-204 -56.045)">
          <path id="Path_20898" data-name="Path 20898" d="M2843.722,1115.215a1.786,1.786,0,0,1-1.782-1.786v-12.6a1.786,1.786,0,0,1,3.567,0v12.581a1.79,1.79,0,0,1-1.786,1.786Z" transform="translate(-2041.676 -835.337)" fill="#fcfcfc"/>
          <path id="Path_20899" data-name="Path 20899" d="M2841.9,1116.875h-12.586a1.786,1.786,0,1,1,0-3.568H2841.9a1.786,1.786,0,0,1,0,3.568Z" transform="translate(-2033.538 -843.29)" fill="#fcfcfc"/>
        </g>
        <g id="Group_788" data-name="Group 788" transform="matrix(0.574, 0.819, -0.819, 0.574, 282.801, 161.692)">
          <path id="Path_20902" data-name="Path 20902" d="M.6,2.058,0,1.029.426.789C.568.707.709.625.846.534L1.674,0l.652,1-.851.551c-.142.094-.289.178-.435.262L.6,2.051Z" transform="translate(9.321 202.294)" fill="#3d3c3b" fill-rule="evenodd"/>
          <path id="Path_20903" data-name="Path 20903" d="M.834,2.265,0,1.412.356,1.07.7.714,1.383,0l.866.82-.7.729L1.2,1.914l-.363.351Z" transform="translate(17.708 195.439)" fill="#3d3c3b" fill-rule="evenodd"/>
          <path id="Path_20904" data-name="Path 20904" d="M.77,2.212,0,1.3C.5.868,1,.443,1.486,0l.8.88c-.5.452-1.015.887-1.52,1.332Z" transform="translate(15.09 197.932)" fill="#3d3c3b" fill-rule="evenodd"/>
          <path id="Path_20905" data-name="Path 20905" d="M.69,2.138,0,1.176.8.6c.135-.094.262-.2.392-.3L1.577,0l.736.938-.4.313c-.132.106-.265.212-.4.308L.69,2.15Z" transform="translate(12.305 200.222)" fill="#3d3c3b" fill-rule="evenodd"/>
          <path id="Path_20906" data-name="Path 20906" d="M.981,2.32,0,1.645C.188,1.375.373,1.109.543.83S.9.281,1.065,0l1.02.616c-.171.293-.358.575-.539.861S1.174,2.042.981,2.32Z" transform="translate(24.557 187.061)" fill="#3d3c3b" fill-rule="evenodd"/>
          <path id="Path_20907" data-name="Path 20907" d="M.935,2.318,0,1.58c.212-.24.406-.519.6-.786L1.2,0l.962.707-.6.81c-.2.269-.4.541-.616.8Z" transform="translate(22.443 189.975)" fill="#3d3c3b" fill-rule="evenodd"/>
          <path id="Path_20908" data-name="Path 20908" d="M.89,2.292,0,1.5.654.755.981.385,1.294,0,2.21.76l-.32.394-.332.378-.669.76Z" transform="translate(20.168 192.767)" fill="#3d3c3b" fill-rule="evenodd"/>
          <path id="Path_20909" data-name="Path 20909" d="M1.154,2.224,0,1.924l.125-.481.1-.481C.3.644.375.327.428,0L1.6.224c-.055.334-.135.664-.207,1l-.111.5L1.154,2.2Z" transform="translate(28.95 177.264)" fill="#3d3c3b" fill-rule="evenodd"/>
          <path id="Path_20910" data-name="Path 20910" d="M1.111,2.277,0,1.842c.118-.305.24-.606.344-.916S.563.313.656,0L1.792.361c-.1.325-.216.642-.325.962s-.24.635-.356.962Z" transform="translate(27.868 180.674)" fill="#3d3c3b" fill-rule="evenodd"/>
          <path id="Path_20911" data-name="Path 20911" d="M1.051,2.316,0,1.751C.315,1.181.592.592.871,0L1.955.5C1.666,1.109,1.376,1.722,1.051,2.316Z" transform="translate(26.401 183.937)" fill="#3d3c3b" fill-rule="evenodd"/>
          <path id="Path_20912" data-name="Path 20912" d="M1.371,2.018.183,2.1.1,1.116C.077.789.034.462,0,.137L1.183,0c.036.337.079.671.106,1.008Z" transform="translate(29.66 166.616)" fill="#3d3c3b" fill-rule="evenodd"/>
          <path id="Path_20913" data-name="Path 20913" d="M1.2,2.03,0,2C.014,1.342.022.688,0,.034L1.2,0c.022.676.014,1.351,0,2.03Z" transform="translate(29.905 170.24)" fill="#3d3c3b" fill-rule="evenodd"/>
          <path id="Path_20914" data-name="Path 20914" d="M1.181,2.085,0,1.924C.053,1.6.079,1.277.118.962.132.8.154.637.168.481L.2,0,1.392.089,1.354.6C1.339.765,1.32.933,1.3,1.1c-.036.334-.065.673-.12,1.008Z" transform="translate(29.631 173.801)" fill="#3d3c3b" fill-rule="evenodd"/>
          <path id="Path_20915" data-name="Path 20915" d="M1.71,1.936l-1.147.32C.38,1.621.2.984,0,.351L1.14,0c.2.642.385,1.289.57,1.924Z" transform="translate(27.375 156.006)" fill="#3d3c3b" fill-rule="evenodd"/>
          <path id="Path_20916" data-name="Path 20916" d="M1.626,1.962.462,2.22C.313,1.575.166.931,0,.3L1.154,0c.171.652.32,1.308.481,1.965Z" transform="translate(28.344 159.483)" fill="#3d3c3b" fill-rule="evenodd"/>
          <path id="Path_20917" data-name="Path 20917" d="M1.515,1.97.337,2.147.178,1.186C.125.861.06.536,0,.224L1.171,0c.06.329.127.661.183.993l.161,1Z" transform="translate(29.116 163.028)" fill="#3d3c3b" fill-rule="evenodd"/>
          <path id="Path_20918" data-name="Path 20918" d="M1.868,1.859.762,2.306C.522,1.69.26,1.075,0,.462L1.1,0C1.361.618,1.614,1.238,1.868,1.859Z" transform="translate(23.653 145.83)" fill="#3d3c3b" fill-rule="evenodd"/>
          <path id="Path_20919" data-name="Path 20919" d="M1.84,1.883.721,2.3Q.361,1.362,0,.433L1.111,0c.24.625.481,1.251.721,1.883Z" transform="translate(24.987 149.172)" fill="#3d3c3b" fill-rule="evenodd"/>
          <path id="Path_20920" data-name="Path 20920" d="M1.777,1.9.644,2.28c-.1-.317-.209-.63-.317-.943S.115.709,0,.4L1.125,0c.113.315.221.632.329.962s.219.635.322.962Z" transform="translate(26.243 152.546)" fill="#3d3c3b" fill-rule="evenodd"/>
          <path id="Path_20921" data-name="Path 20921" d="M1.929,1.818l-1.08.5L0,.507,1.077,0l.851,1.818Z" transform="translate(19.235 135.958)" fill="#3d3c3b" fill-rule="evenodd"/>
          <path id="Path_20922" data-name="Path 20922" d="M1.917,1.83.83,2.318,0,.5,1.082,0l.834,1.83Z" transform="translate(20.75 139.221)" fill="#3d3c3b" fill-rule="evenodd"/>
          <path id="Path_20923" data-name="Path 20923" d="M1.895,1.832.8,2.313C.539,1.7.269,1.092,0,.481L1.089,0q.406.916.806,1.84Z" transform="translate(22.222 142.504)" fill="#3d3c3b" fill-rule="evenodd"/>
          <path id="Path_20924" data-name="Path 20924" d="M1.938,1.808.863,2.323,0,.51,1.077,0l.861,1.808Z" transform="translate(14.585 126.202)" fill="#3d3c3b" fill-rule="evenodd"/>
          <path id="Path_20925" data-name="Path 20925" d="M1.941,1.811.866,2.323,0,.515,1.075,0l.866,1.811Z" transform="translate(16.136 129.446)" fill="#3d3c3b" fill-rule="evenodd"/>
          <path id="Path_20926" data-name="Path 20926" d="M1.938,1.811.863,2.323,0,.512,1.077,0l.861,1.811Z" transform="translate(17.682 132.683)" fill="#3d3c3b" fill-rule="evenodd"/>
          <path id="Path_20927" data-name="Path 20927" d="M1.9,1.83.82,2.321,0,.481,1.089,0,1.9,1.83Z" transform="translate(10.049 116.398)" fill="#3d3c3b" fill-rule="evenodd"/>
          <path id="Path_20928" data-name="Path 20928" d="M1.919,1.82l-1.08.5L0,.5,1.085,0l.834,1.82Z" transform="translate(11.528 119.676)" fill="#3d3c3b" fill-rule="evenodd"/>
          <path id="Path_20929" data-name="Path 20929" d="M1.933,1.813l-1.08.51L0,.505,1.08,0l.854,1.813Z" transform="translate(13.036 122.927)" fill="#3d3c3b" fill-rule="evenodd"/>
          <path id="Path_20930" data-name="Path 20930" d="M1.837,1.871.721,2.3C.481,1.676.24,1.044,0,.414L1.118,0c.24.625.464,1.25.709,1.871Z" transform="translate(5.937 106.419)" fill="#3d3c3b" fill-rule="evenodd"/>
          <path id="Path_20931" data-name="Path 20931" d="M1.856,1.856l-1.1.454C.5,1.69.248,1.065,0,.442L1.106,0C1.347.623,1.6,1.241,1.856,1.856Z" transform="translate(7.245 109.766)" fill="#3d3c3b" fill-rule="evenodd"/>
          <path id="Path_20932" data-name="Path 20932" d="M1.885,1.835.791,2.316C.527,1.7.26,1.082,0,.464L1.1,0c.257.616.522,1.229.786,1.842Z" transform="translate(8.621 113.085)" fill="#3d3c3b" fill-rule="evenodd"/>
          <path id="Path_20933" data-name="Path 20933" d="M1.683,1.924.536,2.253C.356,1.6.168.957,0,.3L1.152,0C1.32.644,1.5,1.284,1.683,1.924Z" transform="translate(2.633 96.17)" fill="#3d3c3b" fill-rule="evenodd"/>
          <path id="Path_20934" data-name="Path 20934" d="M1.741,1.9.606,2.268C.4,1.628.2.984,0,.344L1.14,0c.2.635.392,1.272.6,1.9Z" transform="translate(3.624 99.621)" fill="#3d3c3b" fill-rule="evenodd"/>
          <path id="Path_20935" data-name="Path 20935" d="M1.784,1.888l-1.123.4C.44,1.654.212,1.02,0,.382L1.128,0C1.339.632,1.563,1.26,1.784,1.888Z" transform="translate(4.73 103.016)" fill="#3d3c3b" fill-rule="evenodd"/>
          <path id="Path_20936" data-name="Path 20936" d="M1.457,1.974l-1.178.18-.149-1C.082.82.043.483,0,.147L1.183,0c.043.329.079.659.127.988Z" transform="translate(0.524 85.63)" fill="#3d3c3b" fill-rule="evenodd"/>
          <path id="Path_20937" data-name="Path 20937" d="M1.544,1.955.375,2.2C.3,1.866.248,1.534.183,1.2S.053.539,0,.2L1.174,0c.053.327.12.654.18.981s.12.654.19.979Z" transform="translate(1.063 89.172)" fill="#3d3c3b" fill-rule="evenodd"/>
          <path id="Path_20938" data-name="Path 20938" d="M1.618,1.943.462,2.229l-.24-.984L0,.257,1.164,0l.219.974.236.969Z" transform="translate(1.77 92.666)" fill="#3d3c3b" fill-rule="evenodd"/>
          <path id="Path_20939" data-name="Path 20939" d="M1.19,2.046,0,2.032C0,1.354.034.678.055,0l1.2.058C1.234.719,1.2,1.383,1.2,2.046Z" transform="translate(0.012 74.857)" fill="#3d3c3b" fill-rule="evenodd"/>
          <path id="Path_20940" data-name="Path 20940" d="M1.26,1.991l-1.2.055C.034,1.371,0,.695,0,.017L1.2,0c0,.666.031,1.327.055,1.991Z" transform="translate(0 78.488)" fill="#3d3c3b" fill-rule="evenodd"/>
          <path id="Path_20941" data-name="Path 20941" d="M1.361,1.986l-1.186.12C.137,1.77.108,1.433.082,1.1L0,.084,1.188,0,1.27.993c.026.332.055.664.091.993Z" transform="translate(0.164 82.047)" fill="#3d3c3b" fill-rule="evenodd"/>
          <path id="Path_20942" data-name="Path 20942" d="M1.166,2.227,0,1.986c.063-.332.137-.664.214-.993L.442,0,1.6.284l-.224.962c-.072.322-.149.647-.209.962Z" transform="translate(1.176 64.034)" fill="#3d3c3b" fill-rule="evenodd"/>
          <path id="Path_20943" data-name="Path 20943" d="M1.181,2.174,0,2.008.147,1,.317,0,1.491.207l-.168.981-.142.986Z" transform="translate(0.555 67.605)" fill="#3d3c3b" fill-rule="evenodd"/>
          <path id="Path_20944" data-name="Path 20944" d="M1.188,2.111,0,2.022.089,1.01.135.5.192,0,1.375.127l-.055.5-.043.5-.089.993Z" transform="translate(0.166 71.204)" fill="#3d3c3b" fill-rule="evenodd"/>
          <path id="Path_20945" data-name="Path 20945" d="M1.1,2.321,0,1.864C.252,1.234.534.618.81,0L1.895.5C1.623,1.1,1.347,1.7,1.1,2.321Z" transform="translate(4.405 53.708)" fill="#3d3c3b" fill-rule="evenodd"/>
          <path id="Path_20946" data-name="Path 20946" d="M1.125,2.3,0,1.909.337.95.7,0,1.808.428l-.353.931-.329.94Z" transform="translate(3.109 57.067)" fill="#3d3c3b" fill-rule="evenodd"/>
          <path id="Path_20947" data-name="Path 20947" d="M1.149,2.265,0,1.95.281.971.423.486.58,0,1.715.356,1.565.83l-.139.479-.277.957Z" transform="translate(2.03 60.499)" fill="#3d3c3b" fill-rule="evenodd"/>
          <path id="Path_20948" data-name="Path 20948" d="M1.008,2.337,0,1.7c.176-.289.361-.57.546-.851L1.1,0l.991.664L1.546,1.5c-.183.279-.366.555-.539.839Z" transform="translate(9.46 44.185)" fill="#3d3c3b" fill-rule="evenodd"/>
          <path id="Path_20949" data-name="Path 20949" d="M1.039,2.342,0,1.758c.159-.3.332-.592.5-.883L1.015,0,2.037.613l-.5.858c-.168.289-.339.572-.5.866Z" transform="translate(7.599 47.251)" fill="#3d3c3b" fill-rule="evenodd"/>
          <path id="Path_20950" data-name="Path 20950" d="M1.07,2.333,0,1.811l.219-.457L.452.9.916,0,1.972.556l-.457.887-.228.442-.216.447Z" transform="translate(5.916 50.416)" fill="#3d3c3b" fill-rule="evenodd"/>
          <path id="Path_20951" data-name="Path 20951" d="M.909,2.3,0,1.532C.435,1.017.868.5,1.32,0l.895.789C1.767,1.282,1.342,1.791.909,2.3Z" transform="translate(15.926 35.576)" fill="#3d3c3b" fill-rule="evenodd"/>
          <path id="Path_20952" data-name="Path 20952" d="M.943,2.309,0,1.587c.207-.267.406-.539.62-.8L1.258,0l.923.753-.635.767c-.209.257-.406.527-.611.789Z" transform="translate(13.652 38.351)" fill="#3d3c3b" fill-rule="evenodd"/>
          <path id="Path_20953" data-name="Path 20953" d="M.974,2.33,0,1.642l.289-.416.3-.409L1.186,0l.957.712-.589.8-.3.4L.974,2.33Z" transform="translate(11.492 41.198)" fill="#3d3c3b" fill-rule="evenodd"/>
          <path id="Path_20954" data-name="Path 20954" d="M.822,2.241,0,1.38C.481.919.962.447,1.472,0L2.28.875C1.784,1.32,1.306,1.787.822,2.241Z" transform="translate(23.403 27.816)" fill="#3d3c3b" fill-rule="evenodd"/>
          <path id="Path_20955" data-name="Path 20955" d="M.851,2.277,0,1.443.721.721,1.443,0l.834.851-.721.7c-.24.24-.481.469-.7.709Z" transform="translate(20.82 30.296)" fill="#3d3c3b" fill-rule="evenodd"/>
          <path id="Path_20956" data-name="Path 20956" d="M.878,2.28,0,1.477C.459,1,.914.488,1.375,0l.866.82C1.782,1.3,1.332,1.782.878,2.28Z" transform="translate(18.336 32.883)" fill="#3d3c3b" fill-rule="evenodd"/>
          <path id="Path_20957" data-name="Path 20957" d="M.748,2.179,0,1.25C.524.83,1.056.418,1.582,0l.736.94C1.794,1.354,1.267,1.763.748,2.179Z" transform="translate(31.588 20.797)" fill="#3d3c3b" fill-rule="evenodd"/>
          <path id="Path_20958" data-name="Path 20958" d="M.77,2.2,0,1.294C.512.858,1.024.421,1.546,0L2.3.921C1.784,1.337,1.279,1.772.77,2.2Z" transform="translate(28.801 23.06)" fill="#3d3c3b" fill-rule="evenodd"/>
          <path id="Path_20959" data-name="Path 20959" d="M.8,2.222,0,1.332,1.515,0,2.3.9.8,2.222Z" transform="translate(26.077 25.385)" fill="#3d3c3b" fill-rule="evenodd"/>
          <path id="Path_20960" data-name="Path 20960" d="M.683,2.119,0,1.14,1.662,0l.671.986L.683,2.119Z" transform="translate(40.284 14.405)" fill="#3d3c3b" fill-rule="evenodd"/>
          <path id="Path_20961" data-name="Path 20961" d="M.7,2.138,0,1.176c.272-.2.541-.4.813-.594L1.635,0l.69.962-.815.58c-.272.192-.539.394-.808.589Z" transform="translate(37.345 16.473)" fill="#3d3c3b" fill-rule="evenodd"/>
          <path id="Path_20962" data-name="Path 20962" d="M.721,2.15,0,1.2C.536.8,1.068.387,1.609,0L2.33.962c-.536.4-1.063.806-1.6,1.2Z" transform="translate(34.459 18.601)" fill="#3d3c3b" fill-rule="evenodd"/>
          <path id="Path_20963" data-name="Path 20963" d="M0,6.018,5.05,2.572,4.713.119a12.891,12.891,0,0,0-2.8-.038C1.784.283.885,3.156.729,3.659S.007,6.018.007,6.018Z" transform="translate(43.984 11.699)" fill="#25124c"/>
          <path id="Path_20964" data-name="Path 20964" d="M30.376.22A.455.455,0,0,0,29.931,0L.394,3.743a.45.45,0,0,0-.221.8l4.365,3.4a1.361,1.361,0,0,1,.519,1.111l-.265,8.263a.45.45,0,0,0,.284.433.459.459,0,0,0,.5-.12L9.155,13.58a.438.438,0,0,1,.38-.152.455.455,0,0,1,.346.224l4.646,8.01a.464.464,0,0,0,.289.214h.079a.457.457,0,0,0,.39-.185L30.355.7a.452.452,0,0,0,.022-.481Z" transform="translate(38.509 0)" fill="#43299d"/>
          <path id="Path_20965" data-name="Path 20965" d="M25.416,0,.077,8.277A1.346,1.346,0,0,1,.265,9L0,17.261a.45.45,0,0,0,.284.433.459.459,0,0,0,.505-.12l3.573-4.047.089-.063v-.019L25.574.164a.45.45,0,0,0-.166-.156Z" transform="translate(43.301 0.061)" fill="#31185e"/>
        </g>
        <g id="Group_787" data-name="Group 787" transform="translate(322.345 183.045)">
          <path id="Path_20966" data-name="Path 20966" d="M1476.062,587.479a1.786,1.786,0,0,1-1.781-1.786V573.129a1.786,1.786,0,0,1,3.568,0v12.594a1.791,1.791,0,0,1-1.786,1.786Z" transform="translate(-1467.894 -571.431)" fill="#31185e"/>
          <path id="Path_20967" data-name="Path 20967" d="M1474.193,589.135H1461.6a1.786,1.786,0,1,1,0-3.568h12.586a1.786,1.786,0,0,1,0,3.568Z" transform="translate(-1459.728 -579.363)" fill="#31185e"/>
        </g>
        <g id="Group_790" data-name="Group 790" transform="translate(-14.092)">
          <path id="Path_20968" data-name="Path 20968" d="M2661.518,1612.309l-19.168-15.758,9.062-9.861,19.5,17.461-9.145,9.1-.246-.944Z" transform="translate(-1950.622 -1108.938)" fill="#f8bd8c"/>
          <path id="Path_20969" data-name="Path 20969" d="M2689.31,1618.725l-7.9-2.523a2.326,2.326,0,0,0-2.852,1.408c-1.093,2.949-3.691,8.066-8.777,9.014a2.247,2.247,0,0,0-1.786,1.918l-3.511,25.452a2.309,2.309,0,0,0,.974,2.194h0a2.3,2.3,0,0,0,3.208-.584l22.709-32.755a2.308,2.308,0,0,0-.583-3.212l-.878-.614A2.387,2.387,0,0,0,2689.31,1618.725Z" transform="translate(-1963.032 -1125.443)" fill="#263238"/>
          <path id="Path_20970" data-name="Path 20970" d="M2564.149,1277.049s-13.31,84.629-11.752,88.161l41.325,49.022-14.236,19.1-48.271-45.713c-19.748-16.175-2.023-111.437-2.023-111.437l34.961.878Z" transform="translate(-1883.019 -934.69)" fill="#263238"/>
          <path id="Path_20971" data-name="Path 20971" d="M2578.432,1715.036l1.883-24.746,13.279,1.751-3.094,25.988-12.7-2.251.632-.742Z" transform="translate(-1914.398 -1167.076)" fill="#f8bd8c"/>
          <path id="Path_20972" data-name="Path 20972" d="M2561.484,1746.719l-2.475-7.9a2.3,2.3,0,0,0-2.782-1.549c-3.037.8-8.715,1.619-12.415-1.984a2.278,2.278,0,0,0-2.633-.364l-22.784,11.734a2.3,2.3,0,0,0-1.255,2.071h0a2.317,2.317,0,0,0,2.326,2.3l39.846-.233a2.317,2.317,0,0,0,2.3-2.33v-1.075A2.218,2.218,0,0,0,2561.484,1746.719Z" transform="translate(-1880.357 -1191.975)" fill="#263238"/>
          <path id="Path_20973" data-name="Path 20973" d="M2596.757,1274.278s14.223,21.77,12.134,50.619l-15.754,141.049-20.647-1.962.237-195.315Z" transform="translate(-1911.419 -930.476)" fill="#263238"/>
          <path id="Path_20974" data-name="Path 20974" d="M2560.129,1356.031a.223.223,0,0,1-.175-.088,39.937,39.937,0,0,0-5.784-5.639c-1.225-1.044-2.488-2.119-3.643-3.26a.215.215,0,0,1,0-.307.219.219,0,0,1,.312,0c1.146,1.128,2.405,2.194,3.621,3.239a40.585,40.585,0,0,1,5.845,5.7.217.217,0,0,1-.176.351Z" transform="translate(-1899.058 -974.248)" fill="#232729"/>
          <path id="Path_20975" data-name="Path 20975" d="M2571.24,1043.46s.957,6.446,2.813,13.573,6.332,30.854,5.349,37.09l-49.9-1.931s-1.027-25.8.276-32.219a94.165,94.165,0,0,0,1.6-16.285Z" transform="translate(-1887.077 -804.095)" fill="#090329"/>
          <path id="Path_20976" data-name="Path 20976" d="M2563.32,1092.819l.825,15.091c.281,4.573,3.251,6.846,7.75,6.53h0c3.84-.268,7.311-2.5,7.522-6.341l-2.286-22.5Z" transform="translate(-1906.272 -827.743)" fill="#f8bd8c"/>
          <path id="Path_20977" data-name="Path 20977" d="M2563.74,1110.949l14.218-12.38-14.9.193.68,12.186Z" transform="translate(-1906.127 -835.021)" fill="#eab186"/>
          <path id="Path_20978" data-name="Path 20978" d="M2555.3,1061.8h0c-7.1,0-12.968-5.573-13.165-11.375l-.439-13.687c-.268-7.267,4.388-13.437,11.629-13.946h0c7.429-.513,16.088,5,16.6,12.428l.219,11.015c.167,8.513-7.315,13.964-14.85,15.565Z" transform="translate(-1894.132 -792.476)" fill="#f8bd8c"/>
          <path id="Path_20979" data-name="Path 20979" d="M2561.36,1074.467h0l-1.369-.083a.715.715,0,0,1-.54-.307,1.138,1.138,0,0,1-.189-.926l.553-2.5a.11.11,0,0,1,.136-.088.114.114,0,0,1,.088.136l-.553,2.5a.944.944,0,0,0,.145.742.512.512,0,0,0,.373.215l1.369.079a.118.118,0,0,1,.11.123.114.114,0,0,1-.123.11Z" transform="translate(-1903.979 -819.304)" fill="#090329"/>
          <path id="Path_20980" data-name="Path 20980" d="M2576.073,1055.433s-3.239-.3-3.282,1.018c0,0,0,.878,2.817,1.1s3.563,0,3.831-.829S2577.6,1055.455,2576.073,1055.433Z" transform="translate(-1911.587 -810.797)" fill="#090329"/>
          <path id="Path_20981" data-name="Path 20981" d="M2545.328,1055.974s2.677-.25,2.883.992c0,0,.118.838-2.225,1.005s-3.107-.136-3.318-.816C2542.422,1056.382,2544.051,1055.982,2545.328,1055.974Z" transform="translate(-1894.669 -811.106)" fill="#090329"/>
          <path id="Path_20982" data-name="Path 20982" d="M2560.378,1091.051a4.388,4.388,0,0,1-2.923-1.2.221.221,0,1,1,.294-.329,3.84,3.84,0,0,0,3.072,1.066,2.92,2.92,0,0,0,2.519-1.694.22.22,0,0,1,.277-.136.215.215,0,0,1,.14.276,3.26,3.26,0,0,1-2.883,1.988A3.739,3.739,0,0,1,2560.378,1091.051Z" transform="translate(-1902.94 -829.507)" fill="#090329"/>
          <path id="Path_20983" data-name="Path 20983" d="M2600.922,1054.219s-6.582-8.448-5.656-18.839c0,0,12.726,1.488,11.006,3.366s-4.862,11.848-4.862,11.848Z" transform="translate(-1924.149 -799.561)" fill="#090329"/>
          <path id="Path_20984" data-name="Path 20984" d="M2563.109,1029.47s-8.413-4.042-28.849-5.643c0,0,.439-14.135,16.719-15.618,17.6-1.6,26.418,10.532,22.244,24l-7.649,2.01-1.909-13.077Z" transform="translate(-1889.965 -784.233)" fill="#090329"/>
          <path id="Path_20985" data-name="Path 20985" d="M2605.472,1067.826a3.73,3.73,0,1,1-3.98-3.458A3.73,3.73,0,0,1,2605.472,1067.826Z" transform="translate(-1925.746 -815.823)" fill="#f8bd8c"/>
          <path id="Path_20986" data-name="Path 20986" d="M2544.482,1067.826a3.721,3.721,0,1,1-1.271-2.554A3.726,3.726,0,0,1,2544.482,1067.826Z" transform="translate(-1891.524 -815.823)" fill="#f8bd8c"/>
          <path id="Path_20987" data-name="Path 20987" d="M2548.6,1066.531a1.383,1.383,0,1,1-.472-.95,1.383,1.383,0,0,1,.472.95Z" transform="translate(-1896.462 -816.318)" fill="#090329"/>
          <path id="Path_20988" data-name="Path 20988" d="M2574.188,1065.8a1.387,1.387,0,1,1-1.479-1.286,1.387,1.387,0,0,1,1.479,1.286Z" transform="translate(-1910.816 -815.909)" fill="#090329"/>
          <path id="Path_20989" data-name="Path 20989" d="M2406.719,1213.4l-3.217,4.27a4.352,4.352,0,0,1-1.417-.281c-.6-.162-1.181-.342-1.316-.377l-2.633-.654-2.659-.68c-.737-.189-1.47-.386-2.194-.579-1.97-.527-3.949-1.058-5.906-1.615a32.057,32.057,0,0,0-5.345-1.194,3.781,3.781,0,0,1-.768-.149c-.123-.044-.237-.105-.355-.14a.664.664,0,0,1-.294-.132.47.47,0,0,1-.123-.4.6.6,0,0,1,.439-.627,9.946,9.946,0,0,1,3.453-.338c.606,0,1.211.057,1.821.066h.816a1.819,1.819,0,0,0,1.048-.241c.417-.241-1.316-.654-3.128-1.014-.935-.193-1.892-.364-2.563-.491-.983-.189-2.5-.241-3.484-.439-.671-.123-1.057-.123-1.25-.821-.3-1.075.32-1.387,1.435-1.413h.636l8.776-.105-9.158-4.388c-.72-.382-1.15-.7-.878-1.466.325-.917,1.093-.689,1.97-.285,2.708,1.242,8.158,2.9,8.829,2.8s-3.792-3.151-6.034-4.647a1.382,1.382,0,0,1-.333-1.975c.439-.579,1.852.149,2.462.544l14.043,7.688-1.317-4.358,4.055,2.444c2.813,4.454,4,7.144,4.463,8.75C2407.114,1212.988,2406.719,1213.4,2406.719,1213.4Z" transform="translate(-1802.033 -889.622)" fill="#f8bd8c"/>
          <path id="Path_20990" data-name="Path 20990" d="M2532.843,1162.83s-4.05,26.08-11.682,46.955a10.563,10.563,0,0,1-13.213,6.455h0c-4.941-1.624-5.113-7.789-4.244-12.923l7.965-39.732,21.174-.746Z" transform="translate(-1872.592 -871.082)" fill="#3470b4"/>
          <path id="Path_20991" data-name="Path 20991" d="M2476.639,1228.856l-45.551-9.566-1.128,11.532,37.134,17.11,9.545-19.076Z" transform="translate(-1831.436 -902.765)" fill="#0091ff"/>
          <path id="Path_20992" data-name="Path 20992" d="M2560.222,1135.07s4.037-.2,16.724,7.715l-8.36,55.433-39.859-.667-6.179-46.749a7.605,7.605,0,0,1,3.12-8.29l9.518-5.266,6.732-3.537h4.546l5.955-.579,7.8,1.918Z" transform="translate(-1883.247 -854.415)" fill="#0091ff"/>
          <path id="Path_20993" data-name="Path 20993" d="M2629.718,1173.283c0,19.945-2.536,36.546-8.175,36.546-10.2,0-10.2-16.171-10.2-36.116s4.568-22.323,10.2-22.323S2629.718,1153.338,2629.718,1173.283Z" transform="translate(-1933.22 -864.662)" fill="#3470b4"/>
          <path id="Path_20994" data-name="Path 20994" d="M2519.864,1218.937s1.194-1.589-6.718-10.488c-.514-.575-1.2-2.541-1.72-1.97a1.668,1.668,0,0,0-.307,1.79l1.891,4.156-12.1-4.665c-.531-.255-1.755-.685-2.036-.171a1.115,1.115,0,0,0,.483,1.549c1.957.961,5.88,2.931,5.341,3.072a33.854,33.854,0,0,1-7.39-1.316c-.746-.228-1.391-.329-1.549.439-.136.645.246.878.878,1.084l7.824,2.554-7.552,1.106c-.877.14-1.365.461-1,1.286.232.54.54.5,1.1.527.812.04,2.032-.079,2.839-.035,1.619.088,5.2.237,4.731.6-.18.255-1.027.338-1.475.391s-.979.1-1.47.145a8.027,8.027,0,0,0-2.734.641.487.487,0,0,0-.285.549.4.4,0,0,0,.141.316.63.63,0,0,0,.25.07,1.827,1.827,0,0,1,.3.07,2.827,2.827,0,0,0,.636.04,26.132,26.132,0,0,1,4.419.386q2.458.347,4.915.663,2.023.255,4.042.487l2.194.246a12.668,12.668,0,0,0,2.264.233Z" transform="translate(-1868.342 -895.518)" fill="#f8bd8c"/>
          <path id="Path_20995" data-name="Path 20995" d="M2590.5,1228.856l-45.551-9.566-1.128,11.532,38.327,16.978,8.351-18.944Z" transform="translate(-1895.33 -902.765)" fill="#3470b4"/>
          <path id="Path_20996" data-name="Path 20996" d="M2569.789,1132.72l9.786,3.375s-6.719,9.944-19.146,8.9c-11.2-.935-11.778-7.228-11.778-7.228l8.061-4.27,13.077-.781Z" transform="translate(-1898.04 -854.185)" fill="#f8bd8c"/>
          <path id="Path_20997" data-name="Path 20997" d="M2401.946,1200.045l-2.317,3.212-4.507,6.24-.408.57a1.426,1.426,0,0,1-1.874.325l-4.323-2.607-8.465-5.1h0l-2.076-1.255-5.227-3.155-6.982-4.208a1.168,1.168,0,0,1-.412-1.694l7.236-10.032a1.426,1.426,0,0,1,1.869-.316l16.654,10.04,4.055,2.444,6.363,3.84a1.167,1.167,0,0,1,.412,1.7Z" transform="translate(-1795.065 -881.729)" fill="#090329"/>
          <path id="Path_20998" data-name="Path 20998" d="M2419.966,1204.614l-4.059-2.444-1.058.206a2.067,2.067,0,0,0-1.584,1.593c-.2.93,2.269.211,3.212.316C2417.746,1204.421,2418.9,1204.527,2419.966,1204.614Z" transform="translate(-1822.06 -893.158)" fill="#f8bd8c"/>
        </g>
        <g id="Group_789" data-name="Group 789" transform="translate(-9.092)">
          <path id="Path_20999" data-name="Path 20999" d="M2122.28,1691.739l-1.882-24.759-13.288,1.747,3.094,26.01,12.708-2.256-.632-.742Z" transform="translate(-1650.262 -1153.995)" fill="#f8bd8c"/>
          <path id="Path_21000" data-name="Path 21000" d="M2223.521,1696.489l-1.883-24.759-13.288,1.747,3.089,26.01,12.713-2.256-.632-.742Z" transform="translate(-1707.075 -1156.66)" fill="#f8bd8c"/>
          <path id="Path_21001" data-name="Path 21001" d="M2203.546,1735.018l2.633-9.931c.395-1.474,1.632-2.321,2.817-1.909,3.019,1.062,8.684,2.194,12.463-2.3a1.94,1.94,0,0,1,2.633-.417l22.564,15.192a3.072,3.072,0,0,1,1.211,2.633h0c-.035,1.615-1.1,2.892-2.378,2.861l-39.859-.952a2.688,2.688,0,0,1-2.251-2.98l.031-1.356A3.47,3.47,0,0,1,2203.546,1735.018Z" transform="translate(-1704.284 -1183.819)" fill="#263238"/>
          <path id="Path_21002" data-name="Path 21002" d="M2204.32,1120.411l11.6,45.95a11.41,11.41,0,0,0,11.471,8.518h0a10.738,10.738,0,0,0,10.378-12.287l-8.816-46.551-24.636,4.388Z" transform="translate(-1704.813 -844.825)" fill="#f8bd8c"/>
          <path id="Path_21003" data-name="Path 21003" d="M2197.731,1082.955l7.46,21.656,31.828-11.55-11.976-21.56c-3.023-5.78-9.145-8.562-16.952-8.338l1.08.623a14.859,14.859,0,0,0-11.432,19.177Z" transform="translate(-1700.717 -815.145)" fill="#0e417c"/>
          <path id="Path_21004" data-name="Path 21004" d="M2235.34,1168.034c19-11.633,45.555-24.9,45.555-24.9l9.935,9.373-41.307,35.058a12.1,12.1,0,0,1-18.47-3.392h0A12.1,12.1,0,0,1,2235.34,1168.034Z" transform="translate(-1718.978 -860.027)" fill="#f8bd8c"/>
          <path id="Path_21005" data-name="Path 21005" d="M2211.835,976.827a4.933,4.933,0,0,0,4.709,5.117,4.88,4.88,0,0,0,4.941-4.827,4.932,4.932,0,0,0-4.708-5.117,4.88,4.88,0,0,0-4.941,4.827Z" transform="translate(-1709.028 -763.993)" fill="#f8bd8c"/>
          <path id="Path_21006" data-name="Path 21006" d="M2180.344,1009.8l.829,16.518c.285,5.578-3.454,8.066-9.619,8.237h0c-5.266.149-11.146-1.839-11.164-6.767l.114-25.04Z" transform="translate(-1680.161 -781.25)" fill="#f8bd8c"/>
          <path id="Path_21007" data-name="Path 21007" d="M2161.11,1038.392l19.747-14.043c.281-4.757-20.1-3.37-20.1-3.37l-.075,16.5Z" transform="translate(-1680.323 -791.374)" fill="#eab186"/>
          <path id="Path_21008" data-name="Path 21008" d="M2178.9,934.365l.219,16.136v.513c.061,7.956-4.169,15.521-13.6,15.9-11.309-.32-23.552-8.338-23.837-20.028l-.211-8.228-.123-4.744c.228-9.654,9.167-17.365,18.519-17.909a12.169,12.169,0,0,1,1.549,0C2171.08,916.259,2178.807,924.395,2178.9,934.365Z" transform="translate(-1669.471 -732.559)" fill="#f8bd8c"/>
          <path id="Path_21009" data-name="Path 21009" d="M2174.84,962.145s5.095-.979,5.266.5c0,0,.1,1.005-2.962,1.523s-5.477.68-5.858-.233,1.883-1.615,3.537-1.795Z" transform="translate(-1686.251 -758.286)" fill="#090329"/>
          <path id="Path_21010" data-name="Path 21010" d="M2211.468,961.621s4.147.171,4,1.654c0,0,.189,1-2.536.843-3.1-.18-4.283-.5-4.45-1.474S2209.8,961.428,2211.468,961.621Z" transform="translate(-1707.143 -758.135)" fill="#090329"/>
          <path id="Path_21011" data-name="Path 21011" d="M2213.52,975.68a1.553,1.553,0,1,0,1.527-1.58A1.554,1.554,0,0,0,2213.52,975.68Z" transform="translate(-1709.976 -765.172)" fill="#090329"/>
          <path id="Path_21012" data-name="Path 21012" d="M2180.425,977.429a1.553,1.553,0,1,0,1.659-1.444,1.553,1.553,0,0,0-1.659,1.444Z" transform="translate(-1691.402 -766.228)" fill="#090329"/>
          <path id="Path_21013" data-name="Path 21013" d="M2205.716,989.228a.219.219,0,0,1-.193-.119.215.215,0,0,1,.092-.294l1.316-.706a.413.413,0,0,0,.066-.518l-1.553-2.791a.221.221,0,1,1,.386-.215l1.545,2.778a.846.846,0,0,1-.176,1.093.07.07,0,0,1-.035.026l-1.317.72A.232.232,0,0,1,2205.716,989.228Zm1.339-.939Z" transform="translate(-1705.429 -770.992)" fill="#090329"/>
          <path id="Path_21014" data-name="Path 21014" d="M2101.32,1736.932V1732.6c0-5,5.02-14.043,5.02-17.391,0-2.716,9.215.786,12.621,2.194a2.229,2.229,0,0,1,1.391,1.654,16.3,16.3,0,0,0,4.639,8.557,11.847,11.847,0,0,1,3.339,6.872,2.277,2.277,0,0,1-2.374,2.462Z" transform="translate(-1647.013 -1180.494)" fill="#263238"/>
          <path id="Path_21015" data-name="Path 21015" d="M2166.135,913.688c-.8-.913-7.245-3.2-7.96-3.375a28.374,28.374,0,0,0-9.654-.632c-6.17.658-12.638,3.1-13.832,9.9-.689,3.923-1.352,8.044-1.672,10.971a1.206,1.206,0,0,1-.439.79c-1.009.878-2.256,3.792,2.067,13.165.5,1.088-1.883,2.519-2.909,1.9-3.291-1.975-8.338-7.5-10.453-22.929-2.418-17.65,6.889-20.02,9.654-20.331a1.242,1.242,0,0,0,1-.737c.952-2.273,4.888-9.435,16.838-10.466,6.069-.527,12.524,1.316,16.755,5.845a13.349,13.349,0,0,1,3.449,6.486c.645,3.361-1.088,6.666-2.383,9.694C2166.684,913.864,2166.28,913.837,2166.135,913.688Z" transform="translate(-1657.992 -719.022)" fill="#090329"/>
          <path id="Path_21016" data-name="Path 21016" d="M2206.773,1286.222s8.184,14.666,10.005,79.428c1.825,65-.843,104.67-.843,104.67l-28.963.031-12.6-180.294,7.829-6.3,24.574,2.444Z" transform="translate(-1688.006 -938.944)" fill="#d6d6d7"/>
          <path id="Path_21017" data-name="Path 21017" d="M2094.315,1288.261s-4.788,5.332-4.191,36.278c.742,38.178,2.633,141.778,2.633,141.778l28.463,1.755,22.38-179.8-23.056-4.994Z" transform="translate(-1640.701 -938.674)" fill="#c7c7c9"/>
          <path id="Path_21018" data-name="Path 21018" d="M2135.517,981.275a3.633,3.633,0,0,0,3.471,3.77,3.594,3.594,0,0,0,3.642-3.572,3.558,3.558,0,1,0-7.114-.2Z" transform="translate(-1666.201 -767.257)" fill="#f8bd8c"/>
          <path id="Path_21019" data-name="Path 21019" d="M2193.434,1009.049a2.5,2.5,0,0,1-2.1-.878c-1.04-1.343-.272-3.726-.237-3.831a.215.215,0,0,1,.276-.136h0a.26.26,0,0,1,.1,0,.224.224,0,0,1,.193.162,7.123,7.123,0,0,0,7.271.878.215.215,0,0,1,.246.039.211.211,0,0,1,.053.241,6.416,6.416,0,0,1-5.481,3.511Zm-1.992-4.3c-.162.623-.474,2.238.241,3.164a2.257,2.257,0,0,0,2.054.693,6.056,6.056,0,0,0,4.8-2.694,7.751,7.751,0,0,1-6.776-.917,3.431,3.431,0,0,1-.321-.246Z" transform="translate(-1697.222 -782.059)" fill="#090329"/>
          <path id="Path_21020" data-name="Path 21020" d="M2143.22,1063.16h-41.75c-6.144,0-1.049,4.656-1.694,10.778l-11.906,98.654,75.571.487-8.237-98.93a12.028,12.028,0,0,0-11.985-10.971Z" transform="translate(-1639.465 -815.15)" fill="#0e417c"/>
          <path id="Path_21021" data-name="Path 21021" d="M2146.87,1104.69a39.037,39.037,0,0,1,.711-6.679c.693-2.308,4.27-6.67,4.27-6.67s.474-.312.829.557c.549,1.347-2.08,3.2-1.044,5.025S2146.87,1104.69,2146.87,1104.69Z" transform="translate(-1672.574 -830.934)" fill="#f8bd8c"/>
          <path id="Path_21022" data-name="Path 21022" d="M2151.1,1111.694s-9.382-4.094-9.628-7.7c0,0,3.708-8.491,4.472-11.208.843-2.975,7.122-11.028,9.422-11.589,6.082-1.5,6.1-1.15,6.311.3s-4.138,1.571-5.2,2.633a21.28,21.28,0,0,0-1.663,3.923c.834-1.251,2.8-2.8,4.656-2.664,2.3.167,4.388.105,4.827,1.207.878,1.992-4.489,1.505-4.946,2.765-.167.439-1.536,3.138-1.536,3.138.878-.439,1.8-1.641,2.708-1.865,1.167-.29,5.591-.263,5.626.847.061,1.733-3.95,1.571-4.735,2.672-.316.439-1.264,2.633-1.264,2.633a10.556,10.556,0,0,1,2.633-1.1c.922-.079,4.485.518,4.226,1.242-.685,1.9-3.8.7-5.665,2.8-1.549,1.755-3.735,6.749-6.192,7.855a10.482,10.482,0,0,0-4.063,4.1Z" transform="translate(-1669.544 -824.729)" fill="#f8bd8c"/>
          <path id="Path_21023" data-name="Path 21023" d="M2352.42,1110.723a66.981,66.981,0,0,1-4.428,8.057c-1.795,2.444-5.086,9.839,1.163,13.165s19.054-5.507,19.054-5.507a9.183,9.183,0,0,0,2.747-8.777c2-1.79.759-6.144.759-6.144l2.159-4.1c-4.63-2.282-4.222,2.572-9.492,6.907-1.273,1.049-4.783,1.817-6.473,2.488h0a34.641,34.641,0,0,1-4.34,1.4h0a42.088,42.088,0,0,0,.285-6.381c-.206-2.12-1.435-1.066-1.435-1.066Z" transform="translate(-1784.043 -839.656)" fill="#f8bd8c"/>
          <path id="Path_21024" data-name="Path 21024" d="M2177.613,931.847c.18.592-2.6,2.589-14.789,2.589s-17.826,6.995-20.187,8.232-3.51-6.205,0-9.926,13.328-9.251,18.453-8.575S2175.138,923.847,2177.613,931.847Z" transform="translate(-1668.952 -737.12)" fill="#090329"/>
          <path id="Path_21025" data-name="Path 21025" d="M2149.553,1051.15l10.607,5.428v5.547l-18.87-5.49Z" transform="translate(-1669.442 -808.41)" fill="#0e417c"/>
          <path id="Path_21026" data-name="Path 21026" d="M2193.731,1051.15l-11.221,5.968v6.1l19.958-6.038Z" transform="translate(-1692.574 -808.41)" fill="#0e417c"/>
          <path id="Path_21027" data-name="Path 21027" d="M2068.751,1119.968l-4.266,34.435c0,4.968-.72,15.859,3.269,18.716l3.511,2.4c5.806-7.328,7.631-4.954,9.654-10.887l6.174-42.79-17.724-6.482Z" transform="translate(-1626.313 -844.443)" fill="#f8bd8c"/>
          <path id="Path_21028" data-name="Path 21028" d="M2075.748,1070.818l-9.7,21.038,30.6,10.492,5.472-18.075a14.849,14.849,0,0,0-4.357-17.114h0a14.859,14.859,0,0,0-22.021,3.651Z" transform="translate(-1627.22 -815.511)" fill="#0e417c"/>
          <path id="Path_21029" data-name="Path 21029" d="M2067.917,1172.968c10.466-14.31,31.227-38.578,31.227-38.578l10.8,6.144-25.843,42.659a9.514,9.514,0,0,1-14.538,3.024h0a9.733,9.733,0,0,1-1.65-13.231Z" transform="translate(-1627.218 -855.122)" fill="#f8bd8c"/>
          <path id="Path_21095" data-name="Path 21095" d="M2354.341,899.082H2320.2V881.813a2.589,2.589,0,0,1,2.589-2.593h31.552a2.589,2.589,0,0,1,2.589,2.593v14.679A2.589,2.589,0,0,1,2354.341,899.082Z" transform="translate(-1769.841 -711.929)" fill="#fff"/>
          <path id="Path_21096" data-name="Path 21096" d="M2320.186,915.12l-.026,8.777,7.5-8.755-7.469-.022Z" transform="translate(-1769.819 -732.075)" fill="#fff"/>
          <path id="Path_21097" data-name="Path 21097" d="M2375.84,899.23a1.654,1.654,0,1,0,1.659-1.65A1.655,1.655,0,0,0,2375.84,899.23Z" transform="translate(-1801.064 -722.232)" fill="#090329"/>
          <path id="Path_21098" data-name="Path 21098" d="M2359.68,899.18a1.646,1.646,0,1,0,.485-1.171A1.654,1.654,0,0,0,2359.68,899.18Z" transform="translate(-1791.996 -722.204)" fill="#090329"/>
          <path id="Path_21099" data-name="Path 21099" d="M2343.52,899.13a1.654,1.654,0,1,0,1.659-1.65A1.654,1.654,0,0,0,2343.52,899.13Z" transform="translate(-1782.928 -722.176)" fill="#090329"/>
        </g>
        <g id="Group_786" data-name="Group 786" transform="translate(117.203 226.688)">
          <path id="Path_21100" data-name="Path 21100" d="M1330.776,973.936H1289.6c-1.15,0-2.08-1.611-2.08-3.6v-23.78c0-1.988.93-3.6,2.08-3.6h41.176c1.15,0,2.08,1.615,2.08,3.6v23.78C1332.856,972.325,1331.925,973.936,1330.776,973.936Z" transform="translate(-1287.52 -942.95)" fill="#fff"/>
          <path id="Path_21101" data-name="Path 21101" d="M1309.23,1004.17v14.012l15.412-14.012Z" transform="translate(-1299.703 -977.305)" fill="#fff"/>
          <path id="Path_21102" data-name="Path 21102" d="M1301.443,970a.439.439,0,0,1-.241-.8c.141-.1.439-.294,32.061-.075a.439.439,0,0,1,0,.878h0c-12.191-.083-30.609-.158-31.684,0A.439.439,0,0,1,1301.443,970Z" transform="translate(-1295.089 -957.581)" fill="#31185e"/>
          <path id="Path_21103" data-name="Path 21103" d="M1335.214,987.878h-13.275a.439.439,0,0,1,0-.878h13.275a.439.439,0,1,1,0,.878Z" transform="translate(-1306.589 -967.669)" fill="#31185e"/>
        </g>
        <path id="Path_21133" data-name="Path 21133" d="M1366.955,1655.14l-3.445-.68,16.184-82.29a22.437,22.437,0,0,1,2.949-7.46l2.98,1.856a18.865,18.865,0,0,0-2.484,6.271Z" transform="translate(-1212.028 -1096.604)" fill="#263238"/>
        <path id="Path_21134" data-name="Path 21134" d="M1509.3,1659.279l-17.839-82.667a18.93,18.93,0,0,0-1.018-3.221l3.234-1.36a22.323,22.323,0,0,1,1.216,3.831l17.839,82.676Z" transform="translate(-1283.257 -1100.712)" fill="#263238"/>
        <path id="Path_21135" data-name="Path 21135" d="M1688.672,1704.552l-9.215-29.266-14.657-.777,9.194,31.4,14.135.092.544-1.452Z" transform="translate(-1381.102 -1158.22)" fill="#f8bd8c"/>
        <path id="Path_21136" data-name="Path 21136" d="M1601.54,1483.09l12.726.807a21.147,21.147,0,0,1,19.023,15.416l19.962,76.9-27.646-2.576-22.306-67.545-1.755-23Z" transform="translate(-1345.603 -1050.801)" fill="#263238"/>
        <path id="Path_21137" data-name="Path 21137" d="M1578.153,1705.046l-.426-28.88-14.657-.777.4,31.017,14.135.092.544-1.453Z" transform="translate(-1324.015 -1158.714)" fill="#f8bd8c"/>
        <path id="Path_21138" data-name="Path 21138" d="M1435.454,1444.63l28.814,17.114,29.762.61c8.684,0,15.763,5.24,15.894,13.924.4,26.7-1.667,82.2-2.927,81.952-1.694-.338-26.089,0-26.089,0l-2.479-60.638-19.115,2.054c-4.713.04-18.475.926-22.679-1.2-8.7-4.388-15.359-9.132-7.8-32.719Z" transform="translate(-1246.838 -1029.219)" fill="#263238"/>
        <path id="Path_21139" data-name="Path 21139" d="M1675.85,1369.465l16.017-8.009s13.068-.965,21.007.764a1.506,1.506,0,0,1,1.163,1.826h0a1.492,1.492,0,0,1-1.619,1.137l-7.333-.8,3.949,2.686a1.681,1.681,0,0,1-.215,2.9h0a1.672,1.672,0,0,1-1.527-.035c-2.194-1.216-9.088-4.388-15.8-.593l6.267,2.817a1.984,1.984,0,0,1,.658,3.151h0a2,2,0,0,1-1.725.636l-5.837-.759s-6.863,2.8-13.218-.254l-1.782-5.464Z" transform="translate(-1387.303 -982.394)" fill="#f8bd8c"/>
        <path id="Path_21140" data-name="Path 21140" d="M1645.843,1468.38h48.627v-5.49h-48.627a2.747,2.747,0,0,0-2.743,2.743h0a2.743,2.743,0,0,0,2.743,2.747Z" transform="translate(-1368.925 -1039.466)" fill="#c46c3b"/>
        <path id="Path_21141" data-name="Path 21141" d="M1745.58,1399.783h69.809a8.26,8.26,0,0,0,7.961-6.053l13.77-49.467a2.848,2.848,0,0,0-2.743-3.612h-70.621a3.4,3.4,0,0,0-3.282,2.536L1745.6,1399.8Z" transform="translate(-1426.433 -970.869)" fill="#ffc55a"/>
        <rect id="Rectangle_1305" data-name="Rectangle 1305" width="3.511" height="122.772" transform="translate(338.503 435.426)" fill="#263238"/>
        <rect id="Rectangle_1306" data-name="Rectangle 1306" width="3.511" height="122.772" transform="translate(420.929 435.426)" fill="#263238"/>
        <rect id="Rectangle_1307" data-name="Rectangle 1307" width="3.511" height="122.772" transform="translate(286.792 435.426)" fill="#263238"/>
        <path id="Path_21142" data-name="Path 21142" d="M1546.85,1488.425h214.619V1475.4H1546.85v13.025Z" transform="translate(-1314.912 -1046.486)" fill="#0b0635"/>
        <path id="Path_21143" data-name="Path 21143" d="M1495.443,1184.049l-18.04,1.075c.711-2.857,1.426-5.7,1.861-8.632.439-2.848.408-5.608,1.58-8.307.439-1.009,1.729-2.7,1.659-3.827-.075-1.242-.689-1.119-1.975-1.4a24.054,24.054,0,0,0-6.337-.614,29.934,29.934,0,0,0-8.562,1.913c-10.493,3.792-14.161,16.978-19.875,25.365-1.755,2.6-3.467,5.266-5,8.022-8.571,15.407.553,35.8.553,35.8l41.865,1.834C1496.483,1212.279,1495.443,1184.049,1495.443,1184.049Z" transform="translate(-1253.316 -870.798)" fill="#31185e"/>
        <path id="Path_21144" data-name="Path 21144" d="M1547.17,1321.46c5.073,12.423,11.717,38.661,11.717,38.661l40.083-18.87,5.3,13.762-34.005,23.223-37.2-1.553-2.756-29.095,16.237-24.627Z" transform="translate(-1305.631 -960.1)" fill="#3470b4"/>
        <path id="Path_21145" data-name="Path 21145" d="M1481.022,1295.856a20.479,20.479,0,0,1,6.692,8.1l2.409,69.436s-42.615,8.97-65.763-1.369c0,0,.654-58.154,13.836-73.544,0,0,4.156-8.171,25.281-8.21a29.12,29.12,0,0,1,17.553,5.586Z" transform="translate(-1246.175 -942.597)" fill="#0091ff"/>
        <path id="Path_21146" data-name="Path 21146" d="M1549.218,1228.653a3.9,3.9,0,1,0,4.388-3.3A3.9,3.9,0,0,0,1549.218,1228.653Z" transform="translate(-1316.218 -906.147)" fill="#f8bd8c"/>
        <path id="Path_21147" data-name="Path 21147" d="M1510.309,1255.564l-1.843,13.371c-.641,4.7-3.875,6.815-8.491,6.144h0c-3.949-.566-7.355-3.133-7.276-7.118l3.91-20.9,13.7,8.5Z" transform="translate(-1284.523 -918.349)" fill="#f8bd8c"/>
        <path id="Path_21148" data-name="Path 21148" d="M1512.426,1271.618c-8.013,1.189-13.226-11.638-13.226-11.638l14.92,2.15-1.672,10.093Z" transform="translate(-1288.173 -925.599)" fill="#eab186"/>
        <path id="Path_21149" data-name="Path 21149" d="M1503.468,1214.873h0c6.469-.509,14.951-5.161,15.662-11.625l1.593-15.258a15.1,15.1,0,0,0-12.862-16.614h0c-8.259-1.185-17.365,4.336-18.554,12.594l-1.145,12.287C1487.284,1205.758,1493.3,1213.854,1503.468,1214.873Z" transform="translate(-1281.931 -875.787)" fill="#f8bd8c"/>
        <path id="Path_21150" data-name="Path 21150" d="M1517.158,1212.354s3.375-.706,3.546.391c0,0,.088.742-2.861,1.317s-3.743.509-4.1-.149S1515.561,1212.595,1517.158,1212.354Z" transform="translate(-1296.31 -898.747)" fill="#31185e"/>
        <path id="Path_21151" data-name="Path 21151" d="M1549.156,1214.349s-2.844,0-3.006,1.066c0,0-.088.715,2.4.663s3.274-.364,3.471-.952C1552.245,1214.459,1550.5,1214.249,1549.156,1214.349Z" transform="translate(-1314.519 -899.979)" fill="#31185e"/>
        <path id="Path_21152" data-name="Path 21152" d="M1523.151,1223.093a1.374,1.374,0,1,1-.948-1.69,1.374,1.374,0,0,1,.948,1.69Z" transform="translate(-1300.1 -903.921)" fill="#31185e"/>
        <path id="Path_21153" data-name="Path 21153" d="M1552.023,1223.4a1.369,1.369,0,1,1-.948-1.689A1.369,1.369,0,0,1,1552.023,1223.4Z" transform="translate(-1316.307 -904.097)" fill="#31185e"/>
        <path id="Path_21154" data-name="Path 21154" d="M1534.922,1232.566a.836.836,0,0,1-.18-.022l-1.755-.382a.115.115,0,0,1,.053-.224l1.755.382a.693.693,0,0,0,.575-.145,1.26,1.26,0,0,0,.439-.908l.193-3.348a.11.11,0,0,1,.123-.11.118.118,0,0,1,.11.123l-.2,3.348a1.439,1.439,0,0,1-.549,1.075A.944.944,0,0,1,1534.922,1232.566Z" transform="translate(-1307.083 -907.545)" fill="#31185e"/>
        <path id="Path_21155" data-name="Path 21155" d="M1525.792,1249.141h0a7.461,7.461,0,0,1-4.52-2.352l-.145-.141a.108.108,0,0,1-.058-.063.11.11,0,0,1,.005-.086.123.123,0,0,1,.158-.053c.04,0,.079.057.2.184a7.241,7.241,0,0,0,4.388,2.282.115.115,0,1,1-.031.228Z" transform="translate(-1300.442 -917.998)" fill="#31185e"/>
        <path id="Path_21156" data-name="Path 21156" d="M1477.879,1223.727a3.9,3.9,0,1,0,4.388-3.3A3.9,3.9,0,0,0,1477.879,1223.727Z" transform="translate(-1276.186 -903.38)" fill="#f8bd8c"/>
        <path id="Path_21157" data-name="Path 21157" d="M1488.509,1188.923c-1.233.513.571-16.123,4.432-19.282,1.755-1.426,14.78-6.982,17.961-5.082,3.484,2.076-3.107,11.524-3.107,11.524S1502.815,1182.964,1488.509,1188.923Z" transform="translate(-1281.958 -871.832)" fill="#31185e"/>
        <path id="Path_21158" data-name="Path 21158" d="M1526.09,1174.678l12.682,10.163,3.432-.369s5.349-14.969-12.608-21.016S1526.09,1174.678,1526.09,1174.678Z" transform="translate(-1300.178 -870.713)" fill="#31185e"/>
        <path id="Path_21159" data-name="Path 21159" d="M1636.32,1440.016l10.532-5.7s9.887-.987,12.028,2.286c1.571,2.4,1.786,6.512,1.04,9.215a1.887,1.887,0,0,1-2.817,1.132c-1.755-1.106-4.687-2.633-7.228-2.8,0,0-7.267,6.635-12.322,5.972-2.572-.342-9.483-7.337-9.483-7.337l8.25-2.743Z" transform="translate(-1360.491 -1023.35)" fill="#f8bd8c"/>
        <path id="Path_21160" data-name="Path 21160" d="M1488.32,1275.39c.579.211,20.489,1.049,20.555,1.681s.6,10.391.6,10.391l-2.831,6.508s-8.434,1.154-9.128.943-8.145-2.1-8.145-2.1Z" transform="translate(-1282.067 -934.247)" fill="#0091ff"/>
        <path id="Path_21161" data-name="Path 21161" d="M1476.841,1341.011l5.652,28.445a4.827,4.827,0,0,0,4.573,4.081l49.149,2.133a4.827,4.827,0,0,1,4.63,4.827v10.835a4.827,4.827,0,0,1-4.959,4.827l-57-1.378h-.285a6.74,6.74,0,0,1-4.976-1.637.729.729,0,0,0-.794-.11.689.689,0,0,1-.4.066c-1.962-.206-16.276-3.453-21.024-53.713-.878-9.272,12.318-13.534,19.085-9.343,2.37,1.47,4.638,3.888,5.09,6.74Z" transform="translate(-1261.329 -964.01)" fill="#3470b4"/>
        <path id="Path_21162" data-name="Path 21162" d="M1418.793,1451.484h-39.754a46.816,46.816,0,0,1-17.15-3.1c-14.13-5.534-23.859-18.356-26.694-35.172l-9.865-58.558a2.2,2.2,0,1,1,4.331-.729l9.861,58.558c2.633,15.482,11.124,26.769,23.969,31.815a42.461,42.461,0,0,0,15.548,2.8h39.754a2.194,2.194,0,0,1,0,4.388Z" transform="translate(-1190.586 -977.291)" fill="#10071a"/>
        <path id="Path_21163" data-name="Path 21163" d="M1556.372,1744.38l1.641-8.114a2.317,2.317,0,0,1,2.607-1.834c3.1.483,8.834.706,12.142-3.256a2.286,2.286,0,0,1,2.58-.641l23.894,9.308a2.308,2.308,0,0,1,1.461,1.931h0a2.308,2.308,0,0,1-2.076,2.528l-39.653,3.906a2.308,2.308,0,0,1-2.528-2.076l-.105-1.066a2.389,2.389,0,0,1,.035-.684Z" transform="translate(-1320.23 -1189.569)" fill="#263238"/>
        <path id="Path_21164" data-name="Path 21164" d="M1982.112,1423.67H1967.63a.676.676,0,0,0-.68.68v21.336a.68.68,0,0,0,.68.685h14.481a.685.685,0,0,0,.68-.685v-3.353a.68.68,0,0,1,.549-.667,6.78,6.78,0,0,0,0-13.292.684.684,0,0,1-.549-.667v-3.357A.68.68,0,0,0,1982.112,1423.67Zm1.659,14.771a.676.676,0,0,1-.979-.614v-5.617a.68.68,0,0,1,.979-.614,3.848,3.848,0,0,1,0,6.846Z" transform="translate(-1550.659 -1017.457)" fill="#0091ff"/>
        <path id="Path_21165" data-name="Path 21165" d="M1672.071,1745.065l2.475-7.9a2.313,2.313,0,0,1,2.782-1.549c3.037.8,8.715,1.619,12.415-1.979a2.278,2.278,0,0,1,2.633-.364l22.819,11.734a2.308,2.308,0,0,1,1.255,2.071h0a2.313,2.313,0,0,1-2.326,2.3l-39.846-.233a2.313,2.313,0,0,1-2.3-2.33v-1.071a2.217,2.217,0,0,1,.092-.68Z" transform="translate(-1385.131 -1191.049)" fill="#263238"/>
        <g id="Group_785" data-name="Group 785" transform="translate(0 178.532)">
          <path id="Path_21063" data-name="Path 21063" d="M752.193,1712.921l-5.463-30.231-16.68,2.194,3.879,32.649,15.956-2.83-.794-.935Z" transform="translate(-640.294 -1351.905)" fill="#f8bd8c"/>
          <path id="Path_21064" data-name="Path 21064" d="M901.207,1662.038l17.457-25.277-13.371-10.212-20.283,25.874,13.305,9.25.092-1.22Z" transform="translate(-874.766 -1320.401)" fill="#f8bd8c"/>
          <path id="Path_21065" data-name="Path 21065" d="M893.935,1676.917l9.215-4.827a2.9,2.9,0,0,1,3.849,1.088c2,3.4,6.323,9.163,12.809,9.215a2.866,2.866,0,0,1,2.668,2.01l9.891,30.652a2.918,2.918,0,0,1-.72,2.958h0a2.914,2.914,0,0,1-4.112,0l-35.26-35.519a2.909,2.909,0,0,1,0-4.116l.957-.944A2.8,2.8,0,0,1,893.935,1676.917Z" transform="translate(-891.423 -1345.767)" fill="#263238"/>
          <path id="Path_21066" data-name="Path 21066" d="M836.616,1323.51c4.906,46.516-6.85,83.378-6.85,83.378l-50.119,82.575-30.1-25.312,45.639-76.111,6.758-64.508Z" transform="translate(-734.472 -1150.344)" fill="#263238"/>
          <path id="Path_21067" data-name="Path 21067" d="M717.006,1323.51s-.509,17.588,7.987,45.02S757.9,1501.285,757.9,1501.285l35.51-2.1L760.621,1323.51Z" transform="translate(-675.789 -1150.344)" fill="#263238"/>
          <path id="Path_21068" data-name="Path 21068" d="M722.523,1082.91s12.485.79,20.814,39.934L715.98,1132.1l6.543-49.18Z" transform="translate(-625.263 -1015.327)" fill="#c7c7c9"/>
          <path id="Path_21069" data-name="Path 21069" d="M792.231,1066.45l22.17,7.223,4.884,105.583-62.744.654-4.261-42.488,6.078-63.749,24-7.223Z" transform="translate(-717.141 -1006.09)" fill="#c7c7c9"/>
          <path id="Path_21070" data-name="Path 21070" d="M805.474,1024.334l.268,17.882c.079,6.038,3.726,8.526,9.483,8.377h0c4.915-.123,10.277-2.589,9.983-7.9l-1.676-27.045-18.058,8.7Z" transform="translate(-746.419 -977.583)" fill="#f8bd8c"/>
          <path id="Path_21071" data-name="Path 21071" d="M825.457,1050.723l-19.664-15.916c-.263-5.147,18.773-3.647,18.773-3.647l.878,18.058Z" transform="translate(-746.794 -986.172)" fill="#eab186"/>
          <path id="Path_21072" data-name="Path 21072" d="M786.106,995.4h0c9.106,2.194,18.383-3.454,20.467-11.072l4.283-15.965a18.131,18.131,0,0,0-11.726-22.271h0c-9.369-2.936-21.029,2.019-24.013,11.708l-3.19,12.48C769.048,981.513,775.39,992.045,786.106,995.4Z" transform="translate(-717.712 -938.079)" fill="#f8bd8c"/>
          <path id="Path_21073" data-name="Path 21073" d="M814.138,989.113s5.112.557,4.884,1.962c0,0-.184.948-3.243.549s-5.393-.939-5.5-1.883S812.515,988.806,814.138,989.113Z" transform="translate(-742.335 -962.587)" fill="#221344"/>
          <path id="Path_21074" data-name="Path 21074" d="M781.531,992.246s4.094.47,3.844,1.931c0,0,.114,1-2.576.649-3.072-.408-4.208-.8-4.3-1.786S779.908,991.934,781.531,992.246Z" transform="translate(-694.746 -964.364)" fill="#221344"/>
          <path id="Path_21075" data-name="Path 21075" d="M760.6,959.839l3.756-14.337s6.582,6.016,11.313,3.212,11.677,2.58,11.677,2.58,11.963,7.9,15.486,1.72,1.11-18.87-12.594-22.626c-11.291-3.072-25.351-1.022-32.961,2.87-2.22,1.137-4.485,3.59-5.191,7.877-1.417,8.575.781,17,3.726,20.923l4.788-2.22Z" transform="translate(-701.859 -928.903)" fill="#221344"/>
          <path id="Path_21076" data-name="Path 21076" d="M849.125,998.089a4.735,4.735,0,0,0,3.01,5.955,4.682,4.682,0,0,0,5.832-3.181,4.744,4.744,0,0,0-3.01-5.959,4.687,4.687,0,0,0-5.832,3.186Z" transform="translate(-798.451 -965.832)" fill="#f8bd8c"/>
          <path id="Path_21077" data-name="Path 21077" d="M773.125,1013.158a4.678,4.678,0,1,0,2.25-2.807A4.634,4.634,0,0,0,773.125,1013.158Z" transform="translate(-689.153 -974.287)" fill="#f8bd8c"/>
          <path id="Path_21078" data-name="Path 21078" d="M892.766,1162.458l-2.9,31.135c-.439,4.827-2.124,15.359,1.5,18.479l3.208,2.633c6.293-6.582,10.721-12.818,13.209-18.4l6.969-32.346-21.1-7.9Z" transform="translate(-872.639 -1056.376)" fill="#f8bd8c"/>
          <path id="Path_21079" data-name="Path 21079" d="M822.429,1229.233c15.846-6.951,45.257-17.233,45.257-17.233l6.117,10.462-42.712,23.328a9.29,9.29,0,0,1-13.757-4.573h0a9.5,9.5,0,0,1,5.095-11.971Z" transform="translate(-799.95 -1087.768)" fill="#f8bd8c"/>
          <path id="Path_21080" data-name="Path 21080" d="M906.978,1082.91s-16.834,3.752-22.648,36.629l24.873,9.093.755-17.681Z" transform="translate(-865.761 -1015.327)" fill="#c6c6c6"/>
          <path id="Path_21081" data-name="Path 21081" d="M783.458,1203.826l10.532-5.7s9.887-.987,12.028,2.291c1.571,2.4,1.786,6.512,1.04,9.215a1.887,1.887,0,0,1-2.817,1.132c-1.755-1.1-4.687-2.633-7.228-2.8,0,0-7.267,6.631-12.322,5.968-2.572-.338-9.483-7.333-9.483-7.333l8.25-2.747Z" transform="translate(-715.389 -1079.902)" fill="#f8bd8c"/>
          <path id="Path_21082" data-name="Path 21082" d="M780.783,1232.13h34.668v-3.91H780.783a1.957,1.957,0,0,0-1.953,1.957h0a1.953,1.953,0,0,0,1.953,1.953Z" transform="translate(-724.957 -1096.87)" fill="#3c2a91"/>
          <path id="Path_21083" data-name="Path 21083" d="M785.657,1004.855a1.514,1.514,0,1,0,.649-.965,1.514,1.514,0,0,0-.649.965Z" transform="translate(-701.145 -970.842)" fill="#221344"/>
          <path id="Path_21084" data-name="Path 21084" d="M817.606,999.552a1.518,1.518,0,1,0,1.887-1.022,1.519,1.519,0,0,0-1.887,1.022Z" transform="translate(-747.076 -967.94)" fill="#221344"/>
          <path id="Path_21085" data-name="Path 21085" d="M799,1015.811l1.426-.4h.044a.834.834,0,0,0,.395-1.009l-.878-2.971a.228.228,0,1,0-.439.123l.878,2.984a.4.4,0,0,1-.167.478l-1.4.395a.219.219,0,1,0,0,.439A.289.289,0,0,0,799,1015.811Zm1.369-.614Z" transform="translate(-719.118 -975.12)" fill="#221344"/>
          <path id="Path_21086" data-name="Path 21086" d="M808.944,1041.238a16.2,16.2,0,0,1-3.4-1.172.224.224,0,0,1-.105-.294c.053-.11.171-.1.294-.105,5.994-.333,6.583.544,6.723,1.374v.272a.215.215,0,0,1-.2.237,11.7,11.7,0,0,1-3.313-.312Z" transform="translate(-733.63 -991.02)" fill="#221344"/>
          <path id="Path_21087" data-name="Path 21087" d="M756.028,1237.13h-15.8s2.155,3.195,13.942,1.891Z" transform="translate(-648.596 -1101.87)" fill="#f8bd8c"/>
          <path id="Path_21088" data-name="Path 21088" d="M690.18,1186.249h46.955a5.564,5.564,0,0,0,5.358-4.067l2.809-10.094,1.36-4.884,1.369-4.924.075-.272,1.479-5.319,2.172-7.8a1.918,1.918,0,0,0-1.843-2.431H702.4a2.286,2.286,0,0,0-2.194,1.707Z" transform="translate(-622.432 -1050.989)" fill="#3470b4"/>
          <path id="Path_21089" data-name="Path 21089" d="M659.532,1753l3.111-9.926a2.9,2.9,0,0,1,3.511-1.944c3.813,1.005,10.944,2.032,15.6-2.488a2.87,2.87,0,0,1,3.309-.461l28.634,14.745a2.9,2.9,0,0,1,1.575,2.6h0a2.905,2.905,0,0,1-2.923,2.887l-50.027-.294a2.9,2.9,0,0,1-2.888-2.927v-1.343A2.946,2.946,0,0,1,659.532,1753Z" transform="translate(-572.378 -1382.86)" fill="#263238"/>
        </g>
      </g>
    </g>
  </g>
</svg>
