<svg xmlns="http://www.w3.org/2000/svg" viewBox="0 0 28 28"><defs><style>.cls-1,.cls-3{fill:none;}.cls-2{fill:#0091ff;}.cls-3{stroke:#0091ff;stroke-miterlimit:10;stroke-width:0.65px;}</style></defs><g id="Layer_2" data-name="Layer 2"><g id="Layer_1-2" data-name="Layer 1"><rect class="cls-1" width="28" height="28"/><path class="cls-2" d="M13.17,3.85q-1.58,0-3.15,0A1.33,1.33,0,0,0,8.64,5.18,1.36,1.36,0,0,0,10,6.52h3.16a1.33,1.33,0,0,0,1.35-1.33A1.32,1.32,0,0,0,13.17,3.85Zm0,2.13h-3.1a.8.8,0,1,1,0-1.6h3.1a.8.8,0,1,1,0,1.6ZM19.3,1.71H8.7A2,2,0,0,0,6.5,3.89V24.11a2,2,0,0,0,2.2,2.18H19.28a2,2,0,0,0,2.22-2.2V3.91A2,2,0,0,0,19.3,1.71Zm1.62,22.85a1.44,1.44,0,0,1-1.52,1.2H8.64A1.5,1.5,0,0,1,7,24.16V23.1H20.93A10.15,10.15,0,0,1,20.92,24.56Zm0-2H7V3.87A1.5,1.5,0,0,1,8.67,2.24H19.33A1.51,1.51,0,0,1,21,3.87V22.54Z"/><path class="cls-3" d="M13.17,3.85q-1.58,0-3.15,0A1.33,1.33,0,0,0,8.64,5.18,1.36,1.36,0,0,0,10,6.52h3.16a1.33,1.33,0,0,0,1.35-1.33A1.32,1.32,0,0,0,13.17,3.85Zm0,2.13h-3.1a.8.8,0,1,1,0-1.6h3.1a.8.8,0,1,1,0,1.6ZM19.3,1.71H8.7A2,2,0,0,0,6.5,3.89V24.11a2,2,0,0,0,2.2,2.18H19.28a2,2,0,0,0,2.22-2.2V3.91A2,2,0,0,0,19.3,1.71Zm1.62,22.85a1.44,1.44,0,0,1-1.52,1.2H8.64A1.5,1.5,0,0,1,7,24.16V23.1H20.93A10.15,10.15,0,0,1,20.92,24.56Zm0-2H7V3.87A1.5,1.5,0,0,1,8.67,2.24H19.33A1.51,1.51,0,0,1,21,3.87V22.54Z"/><path class="cls-2" d="M14.22,16.45h-.28v.87a.69.69,0,1,1-1.38,0c0-.25,0-.51,0-.76v-.11h-.71a0,0,0,0,1,0,0V13.21s0,0,0,0h4.45a0,0,0,0,1,0,0v3.22s0,0,0,0H15.6v.11c0,.28,0,.56,0,.84a.67.67,0,0,1-.67.64.68.68,0,0,1-.69-.57,1.21,1.21,0,0,1,0-.19Z"/><path class="cls-2" d="M15.85,11.21a2.22,2.22,0,0,1,.47,1.36.23.23,0,0,1-.23.24h-4a.24.24,0,0,1-.24-.24,2.26,2.26,0,0,1,.59-1.49.24.24,0,0,0,0-.29l-.17-.23a.23.23,0,0,1,0-.33h0a.24.24,0,0,1,.32,0l.16.22a.23.23,0,0,0,.3.07,2.26,2.26,0,0,1,2.14.08.23.23,0,0,0,.3-.06l.22-.31a.25.25,0,0,1,.33,0h0a.25.25,0,0,1,.05.33l-.27.36A.24.24,0,0,0,15.85,11.21ZM13.44,12a.27.27,0,0,0,.26-.27.26.26,0,0,0-.27-.27.27.27,0,0,0-.27.27A.28.28,0,0,0,13.44,12Zm1.26,0a.28.28,0,0,0,.28-.27.27.27,0,1,0-.54,0A.25.25,0,0,0,14.7,12Z"/><path class="cls-2" d="M18.05,14.61c0,.3,0,.6,0,.91a.66.66,0,0,1-.7.59.67.67,0,0,1-.66-.71c0-.53,0-1.07,0-1.6A.68.68,0,0,1,18,13.69c0,.3,0,.61,0,.92Z"/><path class="cls-2" d="M11.49,14.6v.81a.7.7,0,0,1-.5.68.68.68,0,0,1-.87-.6c0-.23,0-.46,0-.69v-1a.69.69,0,0,1,1.37-.07c0,.29,0,.58,0,.87Z"/></g></g></svg>