<svg xmlns="http://www.w3.org/2000/svg" viewBox="0 0 28 28"><defs><style>.cls-1{fill:none;}.cls-2{fill:#0091ff;stroke:#0091ff;stroke-miterlimit:10;stroke-width:0.65px;}</style></defs><g id="Layer_2" data-name="Layer 2"><g id="Layer_1-2" data-name="Layer 1"><rect class="cls-1" width="28" height="28"/><path class="cls-2" d="M6.66,27.07a6,6,0,0,1-.46-.4L.8,21.24c-.38-.39-.38-.62,0-1L3,18a1.68,1.68,0,0,1,1.31-.54.32.32,0,0,0,.24-.13,6.69,6.69,0,0,1,8.12-2.7,1.49,1.49,0,0,0,.42.08c1.76,0,3.52,0,5.27,0a2.28,2.28,0,0,1,1.9.85,1.13,1.13,0,0,1,.13-.27l2.94-3a2.06,2.06,0,0,1,3.28.47,2.27,2.27,0,0,1-.27,2.33l-2.85,3.41c-.49.59-1,1.17-1.47,1.76a4.45,4.45,0,0,1-3.59,1.69c-2.22,0-4.44,0-6.65,0a2.22,2.22,0,0,0-1.7.91s0,.12,0,.18a1.6,1.6,0,0,1-.48,1.55L7.26,26.84c-.09.08-.2.15-.3.23Zm2.75-5a2,2,0,0,0,.21-.2A2.94,2.94,0,0,1,12,20.88c2.13,0,4.26,0,6.39,0a3.53,3.53,0,0,0,2.92-1.35c.45-.57.92-1.11,1.38-1.66,1-1.16,1.95-2.32,2.92-3.49a1,1,0,0,0-.08-1.46,1,1,0,0,0-1.43.06l-3.3,3.39a.49.49,0,0,0-.1.22,2.07,2.07,0,0,1-2.27,2.23H14.65a1.56,1.56,0,0,1-.31,0,.49.49,0,0,1-.44-.52.5.5,0,0,1,.48-.48h4a1.88,1.88,0,0,0,.34,0,1,1,0,0,0,.14-2,1.67,1.67,0,0,0-.5,0H13a1.38,1.38,0,0,1-.5-.08A5.91,5.91,0,0,0,9,15.36,5.11,5.11,0,0,0,5.49,17.8a.25.25,0,0,0,0,.37c.37.34.71.69,1.06,1C7.53,20.15,8.47,21.08,9.41,22Zm-2.48,3.8,2-2.11a.52.52,0,0,0-.08-.78L4.64,18.71a.53.53,0,0,0-.87,0c-.45.46-.9.92-1.36,1.37l-.69.65Z"/><path class="cls-2" d="M15.85,12a5.67,5.67,0,1,1,5.67-5.65A5.66,5.66,0,0,1,15.85,12Zm0-1a4.64,4.64,0,1,0-4.63-4.65A4.64,4.64,0,0,0,15.86,11Z"/><path class="cls-2" d="M12.78,18.24a.52.52,0,0,1-.51.5.53.53,0,0,1-.52-.53.52.52,0,0,1,1,0Z"/><path class="cls-2" d="M15.24,3.86V3.3a.53.53,0,0,1,.51-.54.5.5,0,0,1,.51.53c0,.39,0,.68.46.82a1.09,1.09,0,0,1,.3.24.5.5,0,0,1,0,.71.51.51,0,0,1-.7.06A3.46,3.46,0,0,0,16,4.9a.5.5,0,0,0-.62.06.47.47,0,0,0-.15.53.51.51,0,0,0,.5.36,1.55,1.55,0,0,1,.64,3,.31.31,0,0,0-.14.21,3.53,3.53,0,0,0,0,.46.49.49,0,0,1-.52.49.47.47,0,0,1-.5-.5.72.72,0,0,0-.49-.86,1.59,1.59,0,0,1-.47-.43.51.51,0,0,1,.76-.68,3.17,3.17,0,0,0,.34.3.53.53,0,0,0,.67,0,.46.46,0,0,0,.18-.54.52.52,0,0,0-.55-.38,1.54,1.54,0,0,1-1.32-2.23A1.8,1.8,0,0,1,15.24,3.86Z"/></g></g></svg>