<svg xmlns="http://www.w3.org/2000/svg" viewBox="0 0 28 28"><defs><style>.cls-1{fill:none;}.cls-2{fill:#0091ff;}</style></defs><g id="Layer_2" data-name="Layer 2"><g id="Layer_1-2" data-name="Layer 1"><rect class="cls-1" width="28" height="28"/><path class="cls-2" d="M1,23.35c0-.17.09-.34.13-.51a3.57,3.57,0,0,1,5.16-2.16l.16.09,4.12-4.13-.07-.14a4.28,4.28,0,0,1,0-4.65c0-.1.14-.17,0-.29L7.32,8.37a2.81,2.81,0,0,1-4.1-3A2.79,2.79,0,0,1,6.35,3.17,2.76,2.76,0,0,1,8.73,6.08a7.49,7.49,0,0,1-.25,1c0,.07,0,.19,0,.22,1.06,1.08,2.13,2.14,3.2,3.22a4.42,4.42,0,0,1,5,0l4.09-4.09a3.42,3.42,0,0,1-.37-2.91,3.48,3.48,0,0,1,2.82-2.48L23.35,1h.88c.25.07.51.12.76.21a3.57,3.57,0,1,1-2.9,6.49l-.17-.09-4.05,4A13.89,13.89,0,0,1,18.41,13a4.18,4.18,0,0,1-.48,3.46c-.09.16-.11.25,0,.39l2.82,2.82a.25.25,0,0,0,.35.06,2.79,2.79,0,1,1-1.58,3.08A2.74,2.74,0,0,1,19.82,21L16.67,17.8a4.37,4.37,0,0,1-4.92,0L7.62,21.94a3.69,3.69,0,0,1,.5,1.54,3.57,3.57,0,0,1-7,1.17c0-.14-.07-.28-.1-.42Zm13.21-12A2.84,2.84,0,1,0,17,14.17,2.86,2.86,0,0,0,14.21,11.33Zm9.6-8.78a2,2,0,1,0,2,2A2,2,0,0,0,23.81,2.55ZM4.56,25.82a2,2,0,0,0,0-4.05,2,2,0,0,0,0,4.05ZM6,4.69A1.24,1.24,0,0,0,4.72,5.93a1.24,1.24,0,1,0,2.48,0A1.23,1.23,0,0,0,6,4.69ZM23.53,22.25a1.24,1.24,0,0,0-2.48,0,1.24,1.24,0,1,0,2.48,0Z"/><path class="cls-2" d="M14.2,13.14a1,1,0,0,1,1,1,1,1,0,0,1-1,1,1,1,0,0,1-1-1A1,1,0,0,1,14.2,13.14Z"/></g></g></svg>