<?xml version="1.0" encoding="UTF-8"?><svg id="Layer_2" xmlns="http://www.w3.org/2000/svg" viewBox="0 0 40 40"><defs><style>.cls-1{stroke:#0091ff;stroke-miterlimit:10;stroke-width:.39px;}.cls-1,.cls-2{fill:none;}.cls-3{fill:#0091ff;}</style></defs><g id="Layer_1-2"><g><rect class="cls-2" width="40" height="40"/><g><path class="cls-3" d="M26.33,28.61c.43-.18,.85-.46,1.3-.5,1.18-.1,2.39,0,3.56-.15,3.64-.45,6.76-3.54,7.35-7.17,.04-.26,.09-.52,.14-.79v-1.61c-.02-.08-.06-.16-.07-.24-.44-3.94-3.61-7.19-7.53-7.72-.24-.03-.32-.12-.38-.34-.31-1.17-.79-2.27-1.44-3.3-.22-.35-.54-.45-.83-.26-.28,.18-.33,.48-.11,.83,.69,1.1,1.18,2.29,1.45,3.56,.07,.33,.26,.51,.6,.53,.24,.01,.49,.04,.72,.08,4.48,.79,7.32,5.08,6.25,9.5-.91,3.77-4.34,6.47-9.04,5.9v-.62c0-1.52-.01-3.05,0-4.57,0-.66-.25-1.15-.74-1.55-.11-.09-.22-.18-.36-.28,.09-.07,.15-.12,.22-.17,.62-.44,.91-1.02,.89-1.81-.04-1.45-.03-2.9,0-4.35,.02-.78-.29-1.37-.92-1.75-.57-.34-1.17-.66-1.81-.84-3.55-1.01-7.12-1-10.7-.15-.87,.2-1.7,.51-2.42,1.07-.53,.41-.82,.93-.8,1.63,.03,1.38,.05,2.76,0,4.13-.04,.96,.25,1.69,1.06,2.2,.01,0,0,.04,.02,.09-.84,.48-1.11,1.21-1.08,2.17,.05,1.6,.01,3.2,.01,4.84-.91,0-1.82,0-2.73,0-1.35,.02-2.6-.29-3.73-1.04-.36-.24-.68-.19-.86,.1-.18,.28-.08,.6,.27,.83,1.1,.72,2.31,1.15,3.63,1.18,1.37,.03,2.75-.02,4.12,.05,.44,.02,.87,.32,1.29,.51,.04,.02,.05,.11,.05,.16,0,.63,0,1.26,0,1.95-.86-.15-1.25,.2-1.08,1.07h-.53c-3.32,0-6.64,0-9.96,0-.57,0-.83,.17-.84,.53-.01,.38,.26,.56,.84,.56,3.33,0,6.66,0,10,0h.48c0,.22-.01,.38,0,.53,.03,.34,.21,.55,.55,.56,.73,.01,1.46,.01,2.19,0,.33,0,.53-.2,.53-.53,.01-.73,0-1.46,0-2.19,0-.33-.19-.52-.52-.54-.18-.01-.36,0-.54,0v-1.69c.99,.17,1.95,.34,2.95,.51v.39c0,1.32-.07,2.64,.02,3.95,.07,1.02-.17,1.83-1.03,2.41-.17,.11-.38,.22-.57,.23-3.75,.01-7.49,0-11.24,0h-.39c0-.14,0-.25,0-.35,0-.57-.18-.74-.74-.74-.63,0-1.26,0-1.9,0-.44,0-.64,.2-.64,.65,0,.62,.01,1.24,0,1.86-.01,.34,.08,.59,.37,.77h2.55c.44-.24,.36-.67,.37-1.1h.45c3.83,0,7.66,0,11.48,0,.34,0,.6-.1,.84-.35,.36-.39,.74-.77,1.13-1.14,.28-.26,.4-.54,.39-.93-.02-1.73,0-3.46,0-5.19v-.42h2.21v.38c0,1.74,0,3.48,0,5.22,0,.39,.11,.67,.39,.93,.39,.36,.77,.74,1.13,1.14,.23,.25,.49,.35,.83,.35,3.82,0,7.63,0,11.45,0h.47c.04,.4-.09,.86,.38,1.1h2.92v-2.92c-.18-.29-.43-.38-.77-.37-.57,.02-1.14,0-1.71,0-.64,0-.79,.15-.8,.79,0,.08,0,.17,0,.3h-.37c-3.76,0-7.51,0-11.27,0-.18,0-.38-.1-.54-.21-.86-.59-1.12-1.39-1.05-2.44,.1-1.31,.02-2.63,.02-3.95v-.38c1-.17,1.97-.34,2.95-.5v1.66c-.18,0-.35,.01-.53,.02-.35,.03-.54,.21-.54,.56,0,.72,0,1.44,0,2.16,0,.33,.18,.54,.51,.55,.74,.02,1.48,.01,2.22,0,.33,0,.51-.21,.54-.53,.02-.17,0-.34,0-.55h.49c3.33,0,6.66,0,9.99,0,.33,0,.62-.05,.83-.33v-.44c-.21-.28-.49-.34-.83-.34-3.33,0-6.66,0-9.99,0h-.46q-.17-1-1.14-1.13c0-.64,0-1.29,0-1.95,0-.04,.03-.11,.06-.12ZM3.49,37.59h-1.04v-1.06h1.04v1.06Zm33.03-1.04h1.06v1.05h-1.06v-1.05ZM13.15,12.8c.64-.49,1.4-.72,2.16-.92,2.12-.53,4.27-.61,6.44-.46,1.32,.09,2.63,.28,3.88,.75,.43,.16,.85,.37,1.22,.63,.49,.34,.5,.69-.01,.99-.59,.35-1.23,.65-1.88,.84-1.62,.49-3.29,.61-5.36,.61-1.52-.01-3.42-.17-5.24-.82-.43-.15-.85-.37-1.22-.63-.49-.34-.47-.64,0-1Zm1.66,20.08h-1.04v-1.03h1.04v1.03Zm11.44,0h-1.05v-1.03h1.05v1.03Zm-1.49-4.92c-2.38,.62-4.81,.7-7.24,.4-1.07-.13-2.11-.43-3.16-.67-.26-.06-.49-.2-.74-.31-.59-.27-.91-.67-.86-1.4,.07-.92,.02-1.84,.02-2.77,.52,.21,.99,.42,1.48,.6,.42,.16,.74,.03,.84-.3,.1-.32-.08-.56-.47-.74-.5-.22-1.01-.43-1.47-.71-.5-.31-.5-.65-.03-1,.24-.18,.51-.33,.78-.46,.1-.05,.26-.04,.38,0,1.81,.58,3.69,.74,5.57,.78,.42,0,.67-.21,.67-.55,0-.35-.23-.54-.67-.54-1.68-.04-3.36-.15-4.97-.66-.59-.19-1.16-.49-1.72-.77-.3-.15-.42-.43-.41-.79,.02-1.02,0-2.04,0-3.1,2.29,1.15,4.73,1.4,7.21,1.4,2.48,0,4.92-.24,7.23-1.41v1.88c0,.39-.03,.78,0,1.17,.05,.46-.19,.73-.53,.96-.76,.48-1.61,.72-2.48,.91-.5,.11-1.01,.15-1.5,.28-.18,.05-.39,.24-.44,.4-.05,.15,.05,.41,.18,.53,.1,.1,.34,.13,.5,.1,.91-.17,1.81-.36,2.71-.57,.43-.1,1.47,.41,1.53,.85,.02,.17-.12,.45-.27,.53-.52,.3-1.05,.61-1.62,.79-2.03,.65-4.12,.77-6.24,.69-.58-.02-1.16-.09-1.75-.13-.38-.03-.62,.15-.66,.47-.03,.32,.16,.57,.54,.61,3.02,.32,6.02,.25,8.93-.76,.36-.13,.71-.31,1.09-.48,0,.11,.02,.22,.02,.32,0,.9-.02,1.8,.01,2.7,.02,.46-.16,.78-.53,.95-.63,.3-1.27,.62-1.95,.79ZM2.64,24.91c.16,.31,.49,.36,.75,.2,.28-.17,.34-.48,.15-.8-.04-.06-.08-.12-.12-.18-2.49-3.88-.14-8.99,4.43-9.62,.5-.07,.61-.24,.63-.75,.04-.9,.04-1.81,.21-2.68C10.12,3.68,18.61,.02,24.96,4.05c.66,.42,1.25,.97,1.86,1.46,.25,.2,.5,.26,.76,.06,.21-.17,.27-.41,.14-.66-.05-.11-.14-.19-.23-.28-1.43-1.39-3.11-2.37-5.03-2.89-.73-.2-1.49-.3-2.24-.45h-1.9c-.27,.04-.55,.1-.82,.13-5.32,.76-9.55,5.19-10.06,10.53-.05,.5-.07,1.01-.1,1.52-.07,.01-.11,.02-.16,.03C2.92,14.48,.43,18.61,1.64,22.77c.22,.75,.64,1.44,1.01,2.13Zm14.55-7.38c-.3,0-.55,.25-.55,.56,0,.29,.24,.53,.53,.53,.31,0,.56-.25,.56-.55,0-.28-.26-.53-.54-.54Zm.04,8.24c-.3-.02-.55,.18-.59,.47-.04,.3,.19,.58,.49,.61,.29,.03,.57-.22,.59-.52,.02-.28-.21-.54-.5-.57Zm5.53,0c-.3,.01-.52,.24-.51,.54,0,.29,.24,.53,.52,.54,.29,0,.56-.26,.56-.55,0-.3-.26-.54-.57-.53Zm0-7.15c.31,.02,.57-.22,.58-.53,0-.3-.25-.56-.55-.56-.29,0-.53,.24-.53,.53,0,.3,.21,.54,.5,.56Zm-2.73-.91c-.31-.01-.56,.22-.56,.53,0,.3,.21,.53,.51,.55,.31,.01,.56-.22,.56-.53,0-.3-.22-.53-.51-.55Zm-.01,8.22c-.29,0-.53,.22-.55,.51-.02,.31,.21,.57,.52,.58,.29,0,.53-.21,.55-.51,.02-.31-.22-.57-.52-.58Z"/><path class="cls-1" d="M26.33,28.61c.43-.18,.85-.46,1.3-.5,1.18-.1,2.39,0,3.56-.15,3.64-.45,6.76-3.54,7.35-7.17,.04-.26,.09-.52,.14-.79v-1.61c-.02-.08-.06-.16-.07-.24-.44-3.94-3.61-7.19-7.53-7.72-.24-.03-.32-.12-.38-.34-.31-1.17-.79-2.27-1.44-3.3-.22-.35-.54-.45-.83-.26-.28,.18-.33,.48-.11,.83,.69,1.1,1.18,2.29,1.45,3.56,.07,.33,.26,.51,.6,.53,.24,.01,.49,.04,.72,.08,4.48,.79,7.32,5.08,6.25,9.5-.91,3.77-4.34,6.47-9.04,5.9v-.62c0-1.52-.01-3.05,0-4.57,0-.66-.25-1.15-.74-1.55-.11-.09-.22-.18-.36-.28,.09-.07,.15-.12,.22-.17,.62-.44,.91-1.02,.89-1.81-.04-1.45-.03-2.9,0-4.35,.02-.78-.29-1.37-.92-1.75-.57-.34-1.17-.66-1.81-.84-3.55-1.01-7.12-1-10.7-.15-.87,.2-1.7,.51-2.42,1.07-.53,.41-.82,.93-.8,1.63,.03,1.38,.05,2.76,0,4.13-.04,.96,.25,1.69,1.06,2.2,.01,0,0,.04,.02,.09-.84,.48-1.11,1.21-1.08,2.17,.05,1.6,.01,3.2,.01,4.84-.91,0-1.82,0-2.73,0-1.35,.02-2.6-.29-3.73-1.04-.36-.24-.68-.19-.86,.1-.18,.28-.08,.6,.27,.83,1.1,.72,2.31,1.15,3.63,1.18,1.37,.03,2.75-.02,4.12,.05,.44,.02,.87,.32,1.29,.51,.04,.02,.05,.11,.05,.16,0,.63,0,1.26,0,1.95-.86-.15-1.25,.2-1.08,1.07h-.53c-3.32,0-6.64,0-9.96,0-.57,0-.83,.17-.84,.53-.01,.38,.26,.56,.84,.56,3.33,0,6.66,0,10,0h.48c0,.22-.01,.38,0,.53,.03,.34,.21,.55,.55,.56,.73,.01,1.46,.01,2.19,0,.33,0,.53-.2,.53-.53,.01-.73,0-1.46,0-2.19,0-.33-.19-.52-.52-.54-.18-.01-.36,0-.54,0v-1.69c.99,.17,1.95,.34,2.95,.51v.39c0,1.32-.07,2.64,.02,3.95,.07,1.02-.17,1.83-1.03,2.41-.17,.11-.38,.22-.57,.23-3.75,.01-7.49,0-11.24,0h-.39c0-.14,0-.25,0-.35,0-.57-.18-.74-.74-.74-.63,0-1.26,0-1.9,0-.44,0-.64,.2-.64,.65,0,.62,.01,1.24,0,1.86-.01,.34,.08,.59,.37,.77h2.55c.44-.24,.36-.67,.37-1.1h.45c3.83,0,7.66,0,11.48,0,.34,0,.6-.1,.84-.35,.36-.39,.74-.77,1.13-1.14,.28-.26,.4-.54,.39-.93-.02-1.73,0-3.46,0-5.19v-.42h2.21v.38c0,1.74,0,3.48,0,5.22,0,.39,.11,.67,.39,.93,.39,.36,.77,.74,1.13,1.14,.23,.25,.49,.35,.83,.35,3.82,0,7.63,0,11.45,0h.47c.04,.4-.09,.86,.38,1.1h2.92v-2.92c-.18-.29-.43-.38-.77-.37-.57,.02-1.14,0-1.71,0-.64,0-.79,.15-.8,.79,0,.08,0,.17,0,.3h-.37c-3.76,0-7.51,0-11.27,0-.18,0-.38-.1-.54-.21-.86-.59-1.12-1.39-1.05-2.44,.1-1.31,.02-2.63,.02-3.95v-.38c1-.17,1.97-.34,2.95-.5v1.66c-.18,0-.35,.01-.53,.02-.35,.03-.54,.21-.54,.56,0,.72,0,1.44,0,2.16,0,.33,.18,.54,.51,.55,.74,.02,1.48,.01,2.22,0,.33,0,.51-.21,.54-.53,.02-.17,0-.34,0-.55h.49c3.33,0,6.66,0,9.99,0,.33,0,.62-.05,.83-.33v-.44c-.21-.28-.49-.34-.83-.34-3.33,0-6.66,0-9.99,0h-.46q-.17-1-1.14-1.13c0-.64,0-1.29,0-1.95,0-.04,.03-.11,.06-.12ZM3.49,37.59h-1.04v-1.06h1.04v1.06Zm33.03-1.04h1.06v1.05h-1.06v-1.05ZM13.15,12.8c.64-.49,1.4-.72,2.16-.92,2.12-.53,4.27-.61,6.44-.46,1.32,.09,2.63,.28,3.88,.75,.43,.16,.85,.37,1.22,.63,.49,.34,.5,.69-.01,.99-.59,.35-1.23,.65-1.88,.84-1.62,.49-3.29,.61-5.36,.61-1.52-.01-3.42-.17-5.24-.82-.43-.15-.85-.37-1.22-.63-.49-.34-.47-.64,0-1Zm1.66,20.08h-1.04v-1.03h1.04v1.03Zm11.44,0h-1.05v-1.03h1.05v1.03Zm-1.49-4.92c-2.38,.62-4.81,.7-7.24,.4-1.07-.13-2.11-.43-3.16-.67-.26-.06-.49-.2-.74-.31-.59-.27-.91-.67-.86-1.4,.07-.92,.02-1.84,.02-2.77,.52,.21,.99,.42,1.48,.6,.42,.16,.74,.03,.84-.3,.1-.32-.08-.56-.47-.74-.5-.22-1.01-.43-1.47-.71-.5-.31-.5-.65-.03-1,.24-.18,.51-.33,.78-.46,.1-.05,.26-.04,.38,0,1.81,.58,3.69,.74,5.57,.78,.42,0,.67-.21,.67-.55,0-.35-.23-.54-.67-.54-1.68-.04-3.36-.15-4.97-.66-.59-.19-1.16-.49-1.72-.77-.3-.15-.42-.43-.41-.79,.02-1.02,0-2.04,0-3.1,2.29,1.15,4.73,1.4,7.21,1.4,2.48,0,4.92-.24,7.23-1.41v1.88c0,.39-.03,.78,0,1.17,.05,.46-.19,.73-.53,.96-.76,.48-1.61,.72-2.48,.91-.5,.11-1.01,.15-1.5,.28-.18,.05-.39,.24-.44,.4-.05,.15,.05,.41,.18,.53,.1,.1,.34,.13,.5,.1,.91-.17,1.81-.36,2.71-.57,.43-.1,1.47,.41,1.53,.85,.02,.17-.12,.45-.27,.53-.52,.3-1.05,.61-1.62,.79-2.03,.65-4.12,.77-6.24,.69-.58-.02-1.16-.09-1.75-.13-.38-.03-.62,.15-.66,.47-.03,.32,.16,.57,.54,.61,3.02,.32,6.02,.25,8.93-.76,.36-.13,.71-.31,1.09-.48,0,.11,.02,.22,.02,.32,0,.9-.02,1.8,.01,2.7,.02,.46-.16,.78-.53,.95-.63,.3-1.27,.62-1.95,.79ZM2.64,24.91c.16,.31,.49,.36,.75,.2,.28-.17,.34-.48,.15-.8-.04-.06-.08-.12-.12-.18-2.49-3.88-.14-8.99,4.43-9.62,.5-.07,.61-.24,.63-.75,.04-.9,.04-1.81,.21-2.68C10.12,3.68,18.61,.02,24.96,4.05c.66,.42,1.25,.97,1.86,1.46,.25,.2,.5,.26,.76,.06,.21-.17,.27-.41,.14-.66-.05-.11-.14-.19-.23-.28-1.43-1.39-3.11-2.37-5.03-2.89-.73-.2-1.49-.3-2.24-.45h-1.9c-.27,.04-.55,.1-.82,.13-5.32,.76-9.55,5.19-10.06,10.53-.05,.5-.07,1.01-.1,1.52-.07,.01-.11,.02-.16,.03C2.92,14.48,.43,18.61,1.64,22.77c.22,.75,.64,1.44,1.01,2.13Zm14.55-7.38c-.3,0-.55,.25-.55,.56,0,.29,.24,.53,.53,.53,.31,0,.56-.25,.56-.55,0-.28-.26-.53-.54-.54Zm.04,8.24c-.3-.02-.55,.18-.59,.47-.04,.3,.19,.58,.49,.61,.29,.03,.57-.22,.59-.52,.02-.28-.21-.54-.5-.57Zm5.53,0c-.3,.01-.52,.24-.51,.54,0,.29,.24,.53,.52,.54,.29,0,.56-.26,.56-.55,0-.3-.26-.54-.57-.53Zm0-7.15c.31,.02,.57-.22,.58-.53,0-.3-.25-.56-.55-.56-.29,0-.53,.24-.53,.53,0,.3,.21,.54,.5,.56Zm-2.73-.91c-.31-.01-.56,.22-.56,.53,0,.3,.21,.53,.51,.55,.31,.01,.56-.22,.56-.53,0-.3-.22-.53-.51-.55Zm-.01,8.22c-.29,0-.53,.22-.55,.51-.02,.31,.21,.57,.52,.58,.29,0,.53-.21,.55-.51,.02-.31-.22-.57-.52-.58Z"/></g></g></g></svg>