<?xml version="1.0" encoding="UTF-8"?><svg id="Layer_2" xmlns="http://www.w3.org/2000/svg" viewBox="0 0 40 40"><defs><style>.cls-1{fill:#0091ff;}.cls-2{fill:none;}</style></defs><g id="Layer_1-2"><g><rect class="cls-2" width="40" height="40"/><g><path class="cls-1" d="M.32,39c0-1.64-.02-3.25,0-4.86,.02-.93,.38-1.65,1.17-2.67-.16-.39-.37-.76-.46-1.16-.28-1.25,.09-2.31,1.05-3.14,.69-.59,1.21-1.28,1.33-2.2,.06-.49,.02-.99,.04-1.49,.04-1.16-.03-2.35,.17-3.49,.41-2.4,1.8-4.14,3.95-5.28,.23-.12,.33-.23,.32-.53-.16-2.56,1.6-4.81,4.11-5.26,.26-.05,.31-.16,.34-.38,.51-3.75,3.08-6.47,6.77-7.15,1.3-.24,2.59-.13,3.85,.29,.25,.08,.41,.05,.58-.14,.24-.27,.54-.51,.77-.79,.21-.25,.4-.29,.66-.11,.12,.08,.26,.12,.38,.17,.04-.03,.06-.04,.07-.06Q25.75,0,26.56,0c.72,0,1.44,.02,2.17,0,.3-.01,.46,.07,.52,.37,.03,.15,.11,.29,.18,.45l.8-.35c.76,.76,1.52,1.52,2.27,2.28,.06,.06,.06,.21,.03,.3-.06,.2-.16,.38-.25,.56,.03,.04,.04,.08,.06,.08,.68,.09,.85,.51,.74,1.13-.12,.71,.12,1.18,.75,1.64,1.53,1.12,2.28,2.73,2.39,4.62,0,.09,.01,.18,.08,.19,.58,.32,1.21,.56,1.72,.97,1.26,1,1.67,2.66,1.13,4.16-.54,1.49-1.93,2.48-3.54,2.48-3.61,.01-7.22,0-10.83,0-.16,0-.31,0-.49,0-.01,.09-.03,.16-.04,.24,0,1.35,0,2.7,0,4.05,0,.45,.2,.73,.59,.74,1.47,.02,2.94,0,4.43,0v-2.48h7.55v6.24h-7.52v-2.47h-2.54v.39c0,2.92,0,5.85,0,8.77,0,.69,.19,.88,.89,.88,.52,0,1.05,0,1.63,0v-2.49h10.07v6.24h-10.05v-2.49c-.31,0-.59,0-.87,0-.33,0-.66,0-.98,0-1.13-.01-1.94-.81-1.94-1.94,0-2.98,0-5.95,0-8.93,0-.14,0-.28,0-.46-.23,0-.43,0-.62,0-1.08-.02-1.89-.82-1.9-1.9-.01-1.31,0-2.62,0-3.93,0-.14,0-.28,0-.44h-4.8c.11,.51,.28,1,.3,1.5,.06,1.27,.1,2.54,.08,3.81-.02,1.17,.42,2.1,1.29,2.87,1.34,1.17,1.59,2.6,.76,4.16-.05,.09-.03,.28,.03,.36,.76,.9,1.09,1.95,1.08,3.12-.02,1.41,0,2.83,0,4.27H.32ZM9.14,14.06c.54-.07,1.03-.18,1.53-.19,2.88-.07,5.12,1.11,6.73,3.5,.12,.18,.23,.27,.46,.27,5.92,0,11.84,0,17.76-.01,1.41,0,2.52-1.15,2.51-2.54-.01-1.37-1.13-2.47-2.53-2.48-.23,0-.46,0-.72,0,.02-.23,.03-.42,.05-.6,.19-1.6-.27-2.98-1.37-4.14-.5-.53-.6-.54-1.27-.14l.34,.78c-.62,.61-1.21,1.2-1.81,1.79q-.56,.56-1.28,.27s-.07,0-.12,0c-.05,.13-.12,.24-.14,.37-.06,.36-.27,.43-.61,.42-.69-.03-1.39-.05-2.09,0-.6,.04-1.05-.04-1.14-.74,0-.02-.03-.04-.07-.07l-.78,.33c-.6-.6-1.15-1.22-1.77-1.77-.46-.41-.72-.79-.29-1.36,.01-.01,0-.05-.01-.09-.19-.07-.39-.13-.57-.22-.08-.04-.19-.16-.19-.24-.01-1.07,0-2.15,0-3.22l.82-.32c-.11-.24-.23-.44-.29-.66-.05-.21-.16-.28-.35-.32-3.71-.82-7.48,1.62-8.21,5.34-.13,.66-.15,1.34-.22,2.06-1.13-.07-2.19,.16-3.07,.96-.89,.8-1.3,1.81-1.27,3.03ZM2.53,30.59c.5-.16,.97-.34,1.45-.45,1.31-.32,2.63-.61,3.94-.92,.58-.14,.83-.89,.43-1.29-1.72-1.73-2.45-3.82-2.38-6.23,.04-1.28,.58-2.2,1.71-2.79,.24-.12,.38-.1,.57,.1,.82,.86,1.8,1.48,2.98,1.63,1.06,.14,2.14,.12,3.22,.14,1,.02,1.64,.64,1.61,1.63-.05,2.1-.81,3.9-2.26,5.41-.12,.12-.23,.3-.24,.45-.05,.67,.1,.83,.76,1,1.72,.44,3.5,.66,5.21,1.35,.07-.16,.18-.32,.23-.51,.23-.8,0-1.48-.64-2.01-1.24-1.05-1.87-2.36-1.8-4,.04-.89,.03-1.78,0-2.67-.01-.49-.06-1-.17-1.48-.67-2.95-3.43-5-6.51-4.84-2.96,.15-5.51,2.47-5.84,5.43-.14,1.27-.06,2.56-.09,3.85-.01,.39-.04,.79-.13,1.17-.24,1.05-.86,1.86-1.67,2.55-.81,.69-.95,1.69-.38,2.48Zm14.17,7.16v-3.73h1.27v3.72h2.5c0-1.2,.07-2.38-.02-3.56-.09-1.27-.78-2.24-2-2.62-1.35-.43-2.76-.69-4.18-1.04l-1.81,7.22h4.24Zm-8.93-7.21c-1.32,.31-2.61,.58-3.89,.91-1.4,.36-2.3,1.57-2.32,3.01,0,.9,0,1.81,0,2.71,0,.19,0,.38,0,.57h2.53v-3.73h1.27v3.73h4.22l-1.8-7.21Zm-.02-10.27c-.16,.31-.38,.56-.43,.85-.08,.43-.09,.88-.07,1.32,.12,2.49,1.28,4.37,3.43,5.64,.27,.16,.47,.13,.72-.02,2.04-1.2,3.17-2.99,3.4-5.34,.07-.68,.03-.68-.7-.71-1.07-.04-2.15-.03-3.21-.18-1.16-.17-2.16-.76-3.13-1.57Zm22.82,17.46h7.53v-3.71h-7.53v3.71Zm-5.67-28.39c.13-.06,.29-.13,.44-.2,.39-.18,.93-.01,1.03,.39,.13,.52,.44,.61,.88,.55,.12-.02,.24-.02,.35,0,.46,.08,.73-.07,.83-.55,.07-.32,.66-.61,.91-.43,.48,.34,.8,.16,1.1-.23,.07-.09,.16-.18,.25-.25,.36-.25,.42-.53,.18-.92-.2-.32,0-.9,.35-.97,.58-.13,.66-.48,.59-.97-.01-.1-.02-.21,0-.31,.08-.45-.09-.69-.54-.8-.35-.08-.61-.66-.43-.94,.29-.45,.18-.76-.21-1.04-.12-.08-.22-.19-.3-.31-.25-.35-.52-.38-.89-.16-.32,.2-.9,.01-.98-.33-.13-.61-.51-.66-1-.6-.1,.01-.21,.02-.31,0-.45-.09-.66,.11-.77,.53-.08,.33-.65,.63-.9,.45-.52-.36-.85-.13-1.16,.27-.06,.08-.14,.16-.22,.22-.35,.24-.39,.51-.17,.88,.22,.36,.01,.91-.39,1.02-.47,.13-.62,.39-.54,.84,.03,.17,.02,.34,0,.51-.05,.37,.08,.56,.45,.67,.5,.14,.69,.64,.47,1.11-.07,.14-.13,.28-.18,.39l1.16,1.18Zm10.68,13.35h-4.99v3.73h4.99v-3.73Zm-23.37,6.33c-.77,.73-1.64,.67-2.4,.01-.28,.37-.51,.68-.73,.99-.05,.06-.09,.17-.07,.23,.2,.82,.41,1.64,.61,2.45h2.8c.21-.82,.41-1.63,.61-2.44,.02-.07-.02-.17-.06-.24-.23-.32-.47-.64-.75-1.01Zm-.12,4.98h-2.15c.3,1.21,.6,2.38,.9,3.56,.02,.08,.12,.13,.19,.19,.06-.07,.15-.13,.18-.21,.1-.33,.17-.66,.26-.99,.21-.85,.42-1.69,.63-2.56Z"/><path class="cls-1" d="M23,14.48c0,1.04-.86,1.9-1.91,1.89-1.03,0-1.87-.86-1.87-1.88,0-1.04,.86-1.9,1.91-1.89,1.03,0,1.87,.85,1.87,1.88Zm-1.92,.63c.34,.02,.64-.26,.66-.6,.02-.34-.26-.64-.6-.66-.34-.02-.64,.26-.66,.6-.02,.34,.26,.64,.6,.66Z"/><path class="cls-1" d="M28.04,14.47c0,1.04-.85,1.9-1.89,1.9-1.03,0-1.88-.85-1.89-1.87,0-1.05,.85-1.9,1.89-1.9,1.03,0,1.88,.84,1.89,1.87Zm-1.26,.01c0-.34-.29-.62-.63-.62-.34,0-.63,.29-.62,.63,0,.34,.29,.62,.63,.62,.34,0,.63-.29,.62-.63Z"/><path class="cls-1" d="M33.08,14.47c0,1.04-.85,1.9-1.9,1.9-1.03,0-1.88-.85-1.88-1.87,0-1.04,.85-1.9,1.9-1.9,1.03,0,1.88,.85,1.88,1.87Zm-1.26,.03c0-.34-.27-.63-.61-.64-.34,0-.63,.27-.64,.61,0,.34,.27,.63,.61,.64,.34,0,.63-.27,.64-.61Z"/><path class="cls-1" d="M30.56,5.7c-.01,1.73-1.45,3.13-3.19,3.12-1.73-.02-3.13-1.45-3.11-3.19,.02-1.71,1.45-3.1,3.17-3.1,1.74,0,3.14,1.43,3.13,3.17Zm-3.16-1.92c-1.03,0-1.88,.85-1.88,1.87,0,1.04,.85,1.9,1.9,1.9,1.03,0,1.88-.85,1.88-1.87,0-1.05-.85-1.9-1.9-1.9Z"/></g></g></g></svg>