<?xml version="1.0" encoding="UTF-8"?><svg id="Layer_2" xmlns="http://www.w3.org/2000/svg" viewBox="0 0 40 40"><defs><style>.cls-1{stroke:#0091ff;stroke-miterlimit:10;stroke-width:.56px;}.cls-1,.cls-2{fill:none;}.cls-3{fill:#0091ff;}</style></defs><g id="Layer_1-2"><g><rect class="cls-2" width="40" height="40"/><g><path class="cls-3" d="M34.44,11.28c-.8-.41-1.65-.62-2.56-.61-.63,0-1.26,0-1.88,0-.46-5.32-4.6-9.05-9.43-9.31-2.44-.13-4.66,.53-6.61,2.03-2.38,1.83-3.66,4.28-3.94,7.29-.72,0-1.41,0-2.1,0-3.45,.06-5.96,3.47-4.99,6.8,.54,1.85,2.25,3.75,5.11,3.88v.52c0,3.96,0,7.91,0,11.87,0,.73,.18,.92,.9,.92,2.33,0,4.65,0,6.98,0h.49c-.2,.6-.37,1.16-.55,1.71-.09,.29-.11,.68-.31,.84-.2,.16-.59,.09-.9,.12-.46,.04-.73,.41-.61,.85,.12,.41,.43,.49,.81,.49,3.44,0,6.87,0,10.3,0,.07,0,.14,0,.21,0,.38-.04,.61-.28,.62-.65,0-.39-.23-.65-.64-.67-.22-.01-.45,.01-.66-.01-.1-.01-.24-.09-.27-.17-.28-.81-.54-1.63-.82-2.49h.5c2.3,0,4.6,0,6.9,0,.81,0,.98-.16,.98-.97,0-3.96,0-7.91,0-11.87v-.46c.32-.04,.59-.07,.85-.1,2.18-.32,4.04-2.15,4.39-4.32,.38-2.34-.74-4.62-2.77-5.66Zm-17.48,26.01c.27-.84,.53-1.64,.8-2.44,.03-.09,.19-.19,.29-.19,1.3-.01,2.6-.01,3.9,0,.1,0,.26,.1,.29,.19,.28,.8,.53,1.6,.8,2.44h-6.1Zm13.66-4H9.4v-15.94H30.62v15.94Zm2.1-13.37c-.23,.04-.46,.06-.75,.1,0-1.09,0-2.12,0-3.14,0-.67-.19-.87-.86-.87-7.41,0-14.81,0-22.22,0-.66,0-.85,.2-.85,.88,0,1.02,0,2.05,0,3.12-1.33-.05-2.39-.55-3.16-1.59-.95-1.28-1.11-2.68-.42-4.12,.69-1.45,1.89-2.21,3.5-2.28,.86-.04,1.72,0,2.57,0,.62,0,.83-.2,.84-.81,.13-4.97,4.15-8.73,9.1-8.51,4.44,.19,8.08,3.93,8.18,8.39,.02,.76,.18,.92,.94,.93,1.04,.02,2.08-.04,3.11,.09,1.85,.24,3.27,1.98,3.27,3.89,0,1.91-1.4,3.62-3.24,3.94Zm-21.3,6.08c.76,.08,1.26,.61,1.27,1.38,0,.46-.01,.92,0,1.37,.04,1.02,.8,1.82,1.8,1.9,.5,.04,.8-.17,.85-.58,.04-.42-.19-.67-.69-.75-.44-.06-.62-.27-.63-.72,0-.35-.01-.69,0-1.04,.03-.86-.22-1.61-.92-2.23,.95-.78,.96-1.84,.92-2.92,0-.1,0-.19,0-.29,0-.53,.16-.71,.7-.78,.43-.06,.66-.33,.63-.73-.03-.38-.29-.6-.71-.6-1.03-.01-1.9,.83-1.94,1.89-.02,.47,0,.94,0,1.41-.02,.75-.51,1.28-1.25,1.36-.51,.05-.73,.25-.74,.66,0,.41,.22,.63,.72,.68Zm13.89,3.33c-.46,.06-.69,.33-.65,.75,.04,.39,.32,.6,.77,.58,1.02-.03,1.84-.86,1.88-1.91,.02-.47,0-.94,0-1.41,.02-.72,.52-1.26,1.23-1.34,.54-.06,.77-.26,.76-.68,0-.41-.23-.6-.74-.66-.73-.08-1.23-.62-1.25-1.36,0-.47,.01-.94,0-1.41-.04-1-.79-1.78-1.78-1.88-.5-.05-.81,.15-.87,.56-.06,.43,.18,.69,.71,.77,.41,.06,.6,.27,.61,.7,.01,.33,.01,.67,0,1-.04,.89,.2,1.67,.93,2.3-.71,.67-.98,1.47-.93,2.4,.02,.28,0,.55,0,.83,0,.51-.18,.7-.68,.76Zm-8.5-.67c2.13,0,4.26,0,6.39,0,.53,0,.81-.24,.8-.68,0-.42-.28-.65-.79-.65-1.05,0-2.1,0-3.15,0s-2.16,0-3.24,0c-.53,0-.81,.24-.8,.68,0,.42,.27,.65,.79,.65Zm-.08-5.33c.52,.01,1.05,0,1.57,0,.55,0,1.11,0,1.66,0,.46,0,.72-.27,.71-.68-.01-.4-.26-.64-.71-.64-1.08,0-2.16,0-3.23,0-.45,0-.7,.25-.71,.64-.01,.41,.25,.68,.71,.68Zm6.56,1.34c-1.08,0-2.16,0-3.23,0-.45,0-.7,.24-.71,.64-.01,.41,.25,.68,.71,.68,.52,.01,1.05,0,1.57,0,.55,0,1.11,0,1.66,0,.46,0,.72-.27,.71-.68-.01-.4-.26-.64-.71-.64Zm-.55-1.34c.21,0,.41,.01,.62,0,.4-.03,.64-.29,.64-.67,0-.38-.25-.63-.65-.65-.11,0-.22,0-.33,0h0c-.1,0-.19,0-.29,0-.46,.02-.72,.26-.72,.67,0,.41,.26,.64,.73,.66Zm-5.73,2.67c.72,0,1.01-.2,1-.68-.01-.47-.29-.65-.99-.65s-1.01,.2-1,.68c.01,.47,.28,.65,.99,.65Z"/><path class="cls-1" d="M34.44,11.28c-.8-.41-1.65-.62-2.56-.61-.63,0-1.26,0-1.88,0-.46-5.32-4.6-9.05-9.43-9.31-2.44-.13-4.66,.53-6.61,2.03-2.38,1.83-3.66,4.28-3.94,7.29-.72,0-1.41,0-2.1,0-3.45,.06-5.96,3.47-4.99,6.8,.54,1.85,2.25,3.75,5.11,3.88v.52c0,3.96,0,7.91,0,11.87,0,.73,.18,.92,.9,.92,2.33,0,4.65,0,6.98,0h.49c-.2,.6-.37,1.16-.55,1.71-.09,.29-.11,.68-.31,.84-.2,.16-.59,.09-.9,.12-.46,.04-.73,.41-.61,.85,.12,.41,.43,.49,.81,.49,3.44,0,6.87,0,10.3,0,.07,0,.14,0,.21,0,.38-.04,.61-.28,.62-.65,0-.39-.23-.65-.64-.67-.22-.01-.45,.01-.66-.01-.1-.01-.24-.09-.27-.17-.28-.81-.54-1.63-.82-2.49h.5c2.3,0,4.6,0,6.9,0,.81,0,.98-.16,.98-.97,0-3.96,0-7.91,0-11.87v-.46c.32-.04,.59-.07,.85-.1,2.18-.32,4.04-2.15,4.39-4.32,.38-2.34-.74-4.62-2.77-5.66Zm-17.48,26.01c.27-.84,.53-1.64,.8-2.44,.03-.09,.19-.19,.29-.19,1.3-.01,2.6-.01,3.9,0,.1,0,.26,.1,.29,.19,.28,.8,.53,1.6,.8,2.44h-6.1Zm13.66-4H9.4v-15.94H30.62v15.94Zm2.1-13.37c-.23,.04-.46,.06-.75,.1,0-1.09,0-2.12,0-3.14,0-.67-.19-.87-.86-.87-7.41,0-14.81,0-22.22,0-.66,0-.85,.2-.85,.88,0,1.02,0,2.05,0,3.12-1.33-.05-2.39-.55-3.16-1.59-.95-1.28-1.11-2.68-.42-4.12,.69-1.45,1.89-2.21,3.5-2.28,.86-.04,1.72,0,2.57,0,.62,0,.83-.2,.84-.81,.13-4.97,4.15-8.73,9.1-8.51,4.44,.19,8.08,3.93,8.18,8.39,.02,.76,.18,.92,.94,.93,1.04,.02,2.08-.04,3.11,.09,1.85,.24,3.27,1.98,3.27,3.89,0,1.91-1.4,3.62-3.24,3.94Zm-21.3,6.08c.76,.08,1.26,.61,1.27,1.38,0,.46-.01,.92,0,1.37,.04,1.02,.8,1.82,1.8,1.9,.5,.04,.8-.17,.85-.58,.04-.42-.19-.67-.69-.75-.44-.06-.62-.27-.63-.72,0-.35-.01-.69,0-1.04,.03-.86-.22-1.61-.92-2.23,.95-.78,.96-1.84,.92-2.92,0-.1,0-.19,0-.29,0-.53,.16-.71,.7-.78,.43-.06,.66-.33,.63-.73-.03-.38-.29-.6-.71-.6-1.03-.01-1.9,.83-1.94,1.89-.02,.47,0,.94,0,1.41-.02,.75-.51,1.28-1.25,1.36-.51,.05-.73,.25-.74,.66,0,.41,.22,.63,.72,.68Zm13.89,3.33c-.46,.06-.69,.33-.65,.75,.04,.39,.32,.6,.77,.58,1.02-.03,1.84-.86,1.88-1.91,.02-.47,0-.94,0-1.41,.02-.72,.52-1.26,1.23-1.34,.54-.06,.77-.26,.76-.68,0-.41-.23-.6-.74-.66-.73-.08-1.23-.62-1.25-1.36,0-.47,.01-.94,0-1.41-.04-1-.79-1.78-1.78-1.88-.5-.05-.81,.15-.87,.56-.06,.43,.18,.69,.71,.77,.41,.06,.6,.27,.61,.7,.01,.33,.01,.67,0,1-.04,.89,.2,1.67,.93,2.3-.71,.67-.98,1.47-.93,2.4,.02,.28,0,.55,0,.83,0,.51-.18,.7-.68,.76Zm-8.5-.67c2.13,0,4.26,0,6.39,0,.53,0,.81-.24,.8-.68,0-.42-.28-.65-.79-.65-1.05,0-2.1,0-3.15,0s-2.16,0-3.24,0c-.53,0-.81,.24-.8,.68,0,.42,.27,.65,.79,.65Zm-.08-5.33c.52,.01,1.05,0,1.57,0,.55,0,1.11,0,1.66,0,.46,0,.72-.27,.71-.68-.01-.4-.26-.64-.71-.64-1.08,0-2.16,0-3.23,0-.45,0-.7,.25-.71,.64-.01,.41,.25,.68,.71,.68Zm6.56,1.34c-1.08,0-2.16,0-3.23,0-.45,0-.7,.24-.71,.64-.01,.41,.25,.68,.71,.68,.52,.01,1.05,0,1.57,0,.55,0,1.11,0,1.66,0,.46,0,.72-.27,.71-.68-.01-.4-.26-.64-.71-.64Zm-.55-1.34c.21,0,.41,.01,.62,0,.4-.03,.64-.29,.64-.67,0-.38-.25-.63-.65-.65-.11,0-.22,0-.33,0h0c-.1,0-.19,0-.29,0-.46,.02-.72,.26-.72,.67,0,.41,.26,.64,.73,.66Zm-5.73,2.67c.72,0,1.01-.2,1-.68-.01-.47-.29-.65-.99-.65s-1.01,.2-1,.68c.01,.47,.28,.65,.99,.65Z"/></g></g></g></svg>