<?xml version="1.0" encoding="UTF-8"?><svg id="Layer_2" xmlns="http://www.w3.org/2000/svg" viewBox="0 0 40 40"><defs><style>.cls-1{fill:#0091ff;}.cls-2{fill:none;}</style></defs><g id="Layer_1-2"><g><rect class="cls-2" width="40" height="40"/><g><path class="cls-1" d="M28.52,0h9.68c.78,.25,1.3,.76,1.55,1.55v7.13c-.38,1.19-1.22,1.65-2.43,1.56-.46-.03-.92,0-1.37,0v1.3h1.23v1.26h-3.18v7.67h-2.97l.4,1.3h3.86v6.34c.1,.01,.16,.03,.22,.03,1.42,0,2.84-.01,4.26-.02v11.54h-10.2v-11.54h4.43v-5.1h-2.57c-.09,.32-.15,.63-.26,.91-.75,1.87-2.33,2.93-4.36,2.94-3.15,0-6.3,0-9.45,0-1.46,0-2.92,0-4.38,0-2.01-.02-3.69-1.21-4.31-3.06-.15-.45-.2-.93-.3-1.4h-1.19v5.72c1.2,0,2.38,0,3.55,0,1.39,0,2.16,.77,2.16,2.15,0,1.69,0,3.38,0,5.07,0,.14,0,.28,0,.46h1.29c0,.6,0,1.16,0,1.71-.01,1.33-.8,2.12-2.13,2.12-1.41,0-2.81,0-4.22,0-1.91,0-3.82,0-5.73,0-.99,0-1.8-.58-1.93-1.51-.1-.75-.02-1.53-.02-2.34H1.38c0-.19,0-.34,0-.49,0-1.68,0-3.36,0-5.03,0-1.37,.78-2.13,2.14-2.14,.65,0,1.29,0,1.94,0,.12,0,.25,0,.4,0v-7.02c.17,0,.31,0,.45,0,.67,0,1.34,0,2.01,0,.11,0,.27-.02,.3-.09,.2-.38,.37-.77,.57-1.21H4.57v-3.17c-.79,0-1.54,0-2.3,0-1.38,0-2.17-.78-2.17-2.15,0-4.12,0-8.23,0-12.35,0-.22,.01-.44,.06-.65C.34,.68,.92,.26,1.65,0h7.13c1.19,.38,1.6,1.22,1.57,2.43-.05,1.73-.01,3.46-.01,5.19,0,2.31,0,4.62,0,6.93,0,1.28-.79,2.07-2.07,2.09-.61,0-1.21,0-1.82,0-.19,0-.37,0-.56,0v1.91c1.03,0,2.03,0,3.04,0,.88,0,1.77,.08,2.6-.38,.28-.15,.5-.27,.65-.58,1.09-2.31,3.86-3.45,6.27-2.57,.32,.12,.46,.04,.66-.2,1.32-1.64,3.04-2.32,5.11-1.9,2.35,.48,3.93,2.42,4.03,4.84,0,.23,.07,.35,.3,.46,.48,.24,.93,.54,1.39,.82,.09,.05,.17,.15,.26,.15,.83,.01,1.67,0,2.52,0v-6.41h-3.14v-1.26h1.22v-1.29c-.58,0-1.13,0-1.68,0-1.34,0-2.11-.77-2.12-2.11,0-2,0-4,0-6,0-.22,.01-.44,.06-.65,.19-.8,.76-1.22,1.49-1.47Zm-9.17,16.94c-.18-.11-.32-.19-.46-.28-2.35-1.43-5.03-.45-5.87,2.17-.09,.27-.22,.35-.48,.38-2.37,.32-3.59,2.78-2.37,4.83,.63,1.06,1.63,1.53,2.86,1.53,4.6,0,9.19,0,13.79,0,.08,0,.15,0,.23,0,1.67-.09,2.93-1.28,3.08-2.91,.15-1.58-.91-3-2.51-3.38-.26-.06-.52-.11-.78-.16,.1-1.85,.05-2.24-.32-2.96-.49-.94-1.24-1.57-2.24-1.89-.86-.28-1.7-.24-2.54,.08-1.2,.46-1.92,1.4-2.38,2.6Zm-7.76,18.85c0-.14,.02-.25,.02-.36,0-1.7,0-3.4,0-5.11,0-.69-.21-.89-.91-.89-2.39,0-4.77,0-7.16,0-.69,0-.89,.2-.9,.9,0,1.69,0,3.38,0,5.07v.39H11.6ZM38.44,6.38c.01-.12,.03-.22,.03-.32,0-1.32,0-2.63,0-3.95,0-.62-.21-.83-.85-.83-2.84,0-5.68,0-8.51,0-.66,0-.87,.22-.87,.89,0,1.29,0,2.58,0,3.87,0,.11,.02,.22,.03,.34h10.18ZM1.41,3.87v6.34h7.62c0-.13,.02-.24,.02-.36,0-1.87,0-3.74,0-5.61,0-.33-.1-.41-.41-.41-2.3,.01-4.59,0-6.89,0-.11,0-.23,.01-.35,.02Zm-.03,7.68c0,1.08-.01,2.11,0,3.14,0,.46,.26,.66,.77,.66,2.03,0,4.05,0,6.08,0,.59,0,.81-.22,.82-.82,0-.59,0-1.19,0-1.78,0-.4,0-.79,0-1.2H1.39Zm29.43,21.69h7.62v-3.79h-7.62v3.79Zm0,1.33c0,.13-.02,.24-.02,.35,0,1.02,.01,2.04,0,3.06,0,.32,.09,.41,.41,.41,2.3-.01,4.59,0,6.89,0,.12,0,.24-.01,.36-.02v-3.79h-7.62Zm-17.93,2.57H1.41c-.1,1.05,.08,1.24,1.09,1.24,3.11,0,6.22,0,9.32,0,.14,0,.28,0,.43,0,.4-.04,.61-.25,.63-.64,.01-.19,0-.38,0-.6ZM38.46,7.71h-10.2c-.08,1.05,.1,1.26,1.11,1.26,2.7,0,5.39,0,8.09,0,.14,0,.28,0,.42-.02,.35-.05,.56-.25,.58-.61,.01-.2,0-.41,0-.63ZM1.41,2.53h7.61c.17-1.12-.24-1.27-1.02-1.26-1.83,.03-3.66,0-5.49,0-.19,0-.39,0-.58,.02-.29,.03-.48,.21-.51,.49-.03,.24,0,.48,0,.73Zm30.7,8.96h2.51v-1.23h-2.51v1.23Z"/><path class="cls-1" d="M37.18,30.71h-2.52v1.24h2.52v-1.24Zm-3.85,1.25v-1.24h-1.22v1.24h1.22Z"/><path class="cls-1" d="M6.48,12.81v1.25H3.97v-1.25h2.51Z"/><path class="cls-1" d="M37.18,30.71v1.24h-2.52v-1.24h2.52Z"/><path class="cls-1" d="M33.33,31.97h-1.22v-1.24h1.22v1.24Z"/><path class="cls-1" d="M34.62,35.84v1.24h-2.51v-1.24h2.51Z"/><path class="cls-1" d="M35.91,37.08c0-.36-.01-.7,.01-1.04,0-.08,.14-.2,.23-.21,.33-.02,.66,0,1.02,0v1.26h-1.26Z"/></g></g></g></svg>