<?xml version="1.0" encoding="UTF-8"?><svg xmlns="http://www.w3.org/2000/svg" viewBox="0 0 28 28"><defs><style>.d{fill:#0091ff;stroke:#0091ff;stroke-miterlimit:10;stroke-width:.2px;}.e{fill:none;}</style></defs><g id="a"/><g id="b"><g id="c"><g><rect class="e" width="28" height="28"/><g><path class="d" d="M19.2,.75c.4,.13,.81,.23,1.14,.56l-.57,.65c-.37-.32-.8-.34-1.25-.34-3.07,0-6.14,0-9.21,0-.73,0-1.26,.37-1.41,1.01-.05,.23-.04,.48-.06,.74h7.05v.89H7.87v2.36c.24-.03,.49-.06,.73-.11,.06-.01,.12-.13,.13-.2,.01-.38,0-.75,0-1.15h.88v1.32c.29,.05,.55,.09,.81,.15,2.34,.5,4.17,2.51,4.43,4.9,.02,.19,.08,.25,.27,.24,.36-.01,.72,0,1.1,0v.88c-.36,0-.72,.01-1.08,0-.21-.01-.28,.07-.3,.27-.22,2.32-2.1,4.41-4.39,4.88-.27,.06-.54,.09-.84,.14v1.31h-.89c0-.38,0-.76,0-1.13,0-.14-.04-.2-.19-.21-2.67-.27-4.82-2.41-5.08-5.14,0-.03-.01-.05-.02-.11h-1.31v-.89h1.28c.11-.46,.18-.9,.32-1.32,.51-1.57,1.53-2.71,3.02-3.43,.16-.08,.22-.17,.22-.35,0-1.2,0-2.4,0-3.6,0-.95,.39-1.68,1.26-2.11,.21-.11,.45-.15,.68-.23h10.3ZM7.73,13.03c-1.11-1.08-.87-2.49-.13-3.24,.8-.81,2.1-.87,2.98-.14,.47,.39,.73,.89,.78,1.49,.07,.74-.22,1.36-.77,1.88,.55,.3,.96,.7,1.26,1.22,.3,.52,.4,1.08,.41,1.72,1.02-.9,1.59-1.97,1.72-3.3h-.83v-.89h.81c-.11-2.37-2.33-4.32-4.36-4.34v.79h-.89v-.81c-2.23,.11-4.24,2.11-4.35,4.36h.81v.88h-.84c.14,1.33,.7,2.39,1.73,3.3,.01-1.33,.55-2.3,1.66-2.95Zm1.89,4.03c.61-.05,1.15-.21,1.66-.46,.05-.03,.1-.12,.1-.18,0-.32,0-.64-.04-.95-.13-.91-.65-1.53-1.53-1.79-.87-.26-1.63-.04-2.26,.62-.5,.53-.58,1.18-.59,1.87,0,.32,.09,.48,.39,.58,.45,.14,.89,.3,1.4,.31v-.81h.88v.83Zm-.45-4.39c.73,0,1.32-.58,1.33-1.3,.01-.72-.61-1.34-1.33-1.34-.72,0-1.31,.6-1.31,1.32,0,.73,.58,1.31,1.31,1.32Z"/><path class="d" d="M27.22,11.46c-.67,.8-1.32,1.6-2.01,2.38-1.46,1.68-2.94,3.34-4.41,5.01-.09,.1-.16,.25-.18,.38-.26,1.62-1.47,2.68-3.12,2.71-.97,.01-1.93,0-2.9,0-.25,0-.47-.05-.55-.32-.08-.28,.08-.44,.29-.57,.4-.25,.56-.61,.56-1.07,0-.57-.03-1.14,.17-1.69,.45-1.2,1.31-1.88,2.57-2.08,.1-.01,.2-.05,.27-.11,.78-.68,1.55-1.37,2.31-2.03v-4.48h.85v3.72c.14-.11,.22-.18,.3-.25,1.12-.99,2.27-1.94,3.35-2.97,.76-.72,1.96-.72,2.48,.43v.93Zm-7.02,6.74c.05-.06,.09-.1,.13-.14,1.95-2.2,3.89-4.41,5.83-6.61,.07-.08,.14-.18,.19-.28,.09-.2,.04-.39-.11-.55-.15-.16-.35-.2-.55-.11-.11,.05-.2,.13-.29,.21-1.7,1.5-3.4,3-5.1,4.5-.54,.48-1.08,.96-1.64,1.45,.45,.45,.88,.88,1.31,1.31,.07,.07,.15,.14,.24,.23Zm-4.65,2.84c.09,0,.13,.02,.17,.02,.67,0,1.34,.01,2.01-.03,1.04-.06,1.86-.84,2-1.86,.01-.08-.02-.19-.08-.24-.57-.58-1.14-1.15-1.72-1.72-.06-.06-.17-.1-.24-.09-.57,.08-1.04,.35-1.4,.79-.37,.45-.5,.97-.5,1.54,0,.53,.05,1.07-.24,1.6Z"/><path class="d" d="M21.09,8.7c-1.54,0-3.09,0-4.63,0-.54,0-.67-.13-.67-.67,0-1.61,0-3.22,0-4.84,0-.55,.13-.68,.67-.68,3.09,0,6.19,0,9.28,0,.52,0,.65,.13,.65,.66,0,1.63,0,3.26,0,4.89,0,.5-.14,.64-.65,.64-1.55,0-3.1,0-4.65,0Zm4.41-5.29h-8.81V7.8h8.81V3.42Z"/><path class="d" d="M6.96,20.62v-2.19h.88v2.19h.31c.88,0,1.76,0,2.64,0,.44,0,.6,.15,.6,.59,0,1.08,0,2.16,0,3.23,0,.44-.15,.59-.59,.59-3.14,0-6.28,0-9.42,0-.44,0-.59-.15-.59-.59,0-1.08,0-2.16,0-3.23,0-.44,.15-.59,.59-.59,1.76,0,3.52,0,5.28,0h.31Zm3.53,.9H1.68v2.6H10.49v-2.6Z"/><path class="d" d="M7.26,26.14l.76-.44c.25,.36,.57,.6,1.01,.64,.11,.01,.22,.02,.34,.02,3.11,0,6.23,0,9.34,0,.97,0,1.5-.53,1.51-1.5,0-.37,0-.74,0-1.14h-7.93v-.88h7.93v-1.75h.88c0,.07,.02,.14,.02,.21,0,1.21,0,2.41,0,3.62,0,1.14-.61,1.96-1.66,2.25-.21,.06-.44,.08-.66,.08-3.17,0-6.35,0-9.52,0-.72,0-1.33-.27-1.79-.82-.07-.08-.12-.18-.2-.28Z"/><path class="d" d="M3.44,2.52c.68,0,1.36,0,2.04,0,.44,0,.59,.15,.59,.59,0,1.08,0,2.16,0,3.23,0,.45-.14,.59-.59,.59-1.37,0-2.74,0-4.11,0-.44,0-.59-.15-.59-.59,0-1.08,0-2.16,0-3.23,0-.44,.16-.59,.59-.59,.69,0,1.38,0,2.07,0Zm-1.77,.9v2.62h3.5V3.41H1.68Z"/><path class="d" d="M14.46,25.47h-.85v-.85h.85v.85Z"/><path class="d" d="M17.56,6.06h7.05v.86c-.09,0-.18,.01-.26,.01-2.16,0-4.33,0-6.49,0-.23,0-.33-.06-.3-.3,.02-.18,0-.36,0-.57Z"/><path class="d" d="M24.62,4.3v.85h-4.38v-.85h4.38Z"/><path class="d" d="M19.31,4.3v.84h-1.74v-.84h1.74Z"/><path class="d" d="M9.59,23.26h-3.93v-.86h3.93v.86Z"/><path class="d" d="M2.56,22.4h2.19v.85H2.56v-.85Z"/><path class="d" d="M2.55,5.15v-.85h1.74v.85h-1.74Z"/></g></g></g></g></svg>