<?xml version="1.0" encoding="UTF-8"?><svg xmlns="http://www.w3.org/2000/svg" viewBox="0 0 28 28"><defs><style>.d{fill:#0091ff;}.e{fill:none;}</style></defs><g id="a"/><g id="b"><g id="c"><g><rect class="e" width="28" height="28"/><g><path class="d" d="M27.45,7.48c-.2,.51-.58,.68-1.12,.67-1.17-.02-2.35,0-3.52,0-.7,0-1.01-.31-1.04-1-.02-.49-.4-.87-.94-.93-.1-.01-.21,0-.31,0-4.35,0-8.71,0-13.06,0-.22,0-.46,.03-.66,.11-.38,.15-.59,.44-.59,.87,0,4.53,0,9.06,0,13.58,0,.53,.37,.92,.93,.98,.07,0,.14,0,.21,0,4.42,0,8.85,0,13.27,0,.13,0,.26-.01,.39-.04,.51-.13,.76-.46,.76-.98,0-3.64,0-7.29,0-10.93,0-.16,0-.32,.05-.47,.1-.35,.44-.6,.81-.6,.36,0,.71,.24,.81,.6,.04,.15,.05,.31,.05,.47,0,3.23,0,6.46,0,9.69v.34h.41c.81,0,1.61,.02,2.42,0,.53-.01,.92,.16,1.12,.67v.42c-.22,.5-.6,.66-1.13,.64-.89-.03-1.79,0-2.68-.01-.16,0-.25,.03-.31,.2-.28,.73-.8,1.23-1.51,1.51-.2,.08-.25,.18-.25,.38,.01,.82,0,1.65,0,2.47,0,.39-.25,.69-.6,.8-.35,.1-.74,0-.93-.31-.11-.19-.17-.42-.18-.64-.02-.72,0-1.44,0-2.15,0-.09,0-.19,0-.3h-1.63c0,.09,0,.18,0,.27,0,.78,0,1.56,0,2.34,0,.39-.25,.69-.61,.79-.35,.1-.75-.01-.92-.32-.11-.19-.16-.43-.17-.64-.02-.71,0-1.42,0-2.13,0-.1,0-.19,0-.31h-1.64c0,.1,0,.2,0,.3,0,.78,0,1.56-.01,2.34,0,.39-.27,.67-.64,.77-.35,.09-.74-.05-.91-.36-.09-.17-.14-.38-.14-.57-.02-.73,0-1.45,0-2.18,0-.09,0-.19,0-.3h-1.64c0,.12,0,.23,0,.34,0,.78,0,1.56-.02,2.34,0,.35-.23,.58-.55,.7-.32,.12-.62,.05-.88-.18-.2-.18-.28-.42-.27-.68,0-.74,0-1.49,0-2.23,0-.09,0-.19,0-.3h-1.63c0,.1,0,.19,0,.28,0,.74,0,1.49,0,2.23-.01,.65-.52,1.06-1.09,.9-.38-.1-.62-.42-.63-.84,0-.82,0-1.65,0-2.47,0-.19-.06-.27-.23-.34-.73-.29-1.25-.79-1.53-1.53-.06-.15-.14-.19-.29-.19-.99,0-1.98,0-2.97,0-.44,0-.78-.29-.85-.71-.07-.38,.15-.79,.52-.93,.15-.06,.32-.07,.49-.08,.87,0,1.73,0,2.6,0,.1,0,.19,0,.3,0V8.15c-.1,0-.19,0-.29,0-.89,0-1.79,0-2.68,0-.69,0-1.11-.55-.91-1.14,.12-.36,.43-.57,.85-.58,.96,0,1.93,0,2.89,0,.18,0,.27-.03,.35-.22,.27-.72,.8-1.21,1.5-1.49,.21-.08,.25-.18,.25-.38,0-.82,0-1.65,0-2.47,0-.43,.31-.76,.73-.83,.37-.06,.77,.16,.91,.52,.06,.15,.07,.32,.08,.49,0,.71,0,1.42,0,2.13,0,.09,0,.19,0,.3h1.63c0-.09,0-.18,0-.28,0-.79,0-1.58,0-2.36,0-.43,.33-.75,.76-.8,.37-.05,.76,.19,.88,.56,.05,.15,.06,.31,.06,.47,0,.7,0,1.4,0,2.1,0,.1,0,.19,0,.31h1.64c0-.1,0-.2,0-.31,0-.78,0-1.56,.01-2.34,0-.43,.34-.75,.77-.79,.38-.04,.78,.21,.89,.59,.04,.13,.04,.28,.04,.41,0,.71,0,1.42,0,2.13v.3h1.64c0-.12,0-.23,0-.34,0-.78,0-1.56,.02-2.34,.02-.43,.37-.74,.8-.76,.38-.02,.77,.25,.87,.63,.03,.12,.03,.24,.03,.36,0,.72,0,1.44,0,2.15,0,.09,0,.19,0,.3h1.62c0-.09,.01-.18,.01-.27,0-.74,0-1.49,0-2.23,0-.66,.53-1.07,1.11-.9,.37,.11,.6,.43,.61,.85,0,.81,0,1.61,0,2.42,0,.2,.05,.3,.25,.38,.71,.28,1.24,.79,1.51,1.51,.06,.17,.15,.2,.31,.2,.89,0,1.79,.02,2.68-.01,.53-.02,.91,.15,1.14,.64v.42Z"/><path class="d" d="M27.45,10.85c-.2,.51-.59,.69-1.12,.66-.51-.03-1.02,.01-1.52-.03-.55-.04-.88-.6-.7-1.12,.12-.34,.37-.56,.74-.57,.6-.02,1.21-.01,1.81,0,.41,0,.62,.3,.79,.63v.42Z"/><path class="d" d="M27.45,17.57c-.21,.5-.6,.68-1.13,.65-.45-.03-.91,0-1.36,0-.52,0-.88-.35-.89-.83-.01-.48,.33-.86,.85-.87,.56-.02,1.12,0,1.68,0,.44,0,.69,.28,.86,.65v.42Z"/><path class="d" d="M27.45,14.21c-.21,.5-.59,.68-1.12,.65-.49-.03-.98,0-1.47-.02-.42-.02-.73-.32-.78-.72-.06-.42,.16-.79,.55-.93,.09-.03,.19-.05,.28-.05,.56,0,1.12,0,1.68,0,.45,0,.69,.28,.86,.64v.42Z"/><path class="d" d="M2.25,9.79c.29,0,.58-.01,.86,0,.46,.02,.8,.37,.81,.83,.01,.46-.31,.84-.77,.86-.61,.03-1.22,.03-1.83,0-.46-.02-.79-.41-.78-.86,0-.46,.36-.82,.84-.84,.29-.01,.58,0,.86,0h0Z"/><path class="d" d="M2.24,18.21c-.29,0-.58,0-.86,0-.47-.02-.83-.38-.83-.84,0-.45,.32-.83,.79-.85,.61-.03,1.22-.03,1.83,0,.46,.02,.78,.41,.76,.87-.02,.45-.36,.8-.82,.82-.29,.01-.58,0-.86,0Z"/><path class="d" d="M2.24,14.85c-.28,0-.56,0-.84,0-.5-.02-.85-.38-.86-.84,0-.47,.35-.84,.84-.86,.57-.02,1.14-.01,1.7,0,.5,.01,.84,.38,.84,.86,0,.48-.35,.83-.85,.85-.28,.01-.56,0-.84,0Z"/><path class="d" d="M7.5,17.63c.04-.14,.07-.29,.12-.42,.91-2.35,1.84-4.69,2.74-7.04,.29-.76,1.09-.83,1.48-.39,.1,.11,.17,.25,.22,.38,.93,2.36,1.85,4.72,2.77,7.08,.2,.53,0,1.02-.46,1.2-.46,.18-.92-.05-1.14-.56-.06-.14-.11-.28-.16-.42q-.26-.68-.98-.68c-.73,0-1.45,0-2.18,0-.21,0-.31,.05-.38,.25-.11,.34-.25,.67-.4,1-.18,.37-.58,.53-.97,.43-.38-.1-.64-.43-.65-.84Zm3.75-4.83h-.06l-.88,2.26h1.82l-.88-2.26Z"/><path class="d" d="M16.79,16.78v-5.57c-.14,0-.26,0-.38,0-.45-.03-.78-.38-.8-.82-.02-.43,.27-.8,.71-.88,.1-.02,.21-.02,.31-.02,.7,0,1.4,0,2.1,0,.61,0,1,.34,1,.87,0,.52-.38,.85-.98,.86-.06,0-.12,0-.2,0v5.57c.12,0,.24,0,.36,0,.45,.03,.8,.37,.82,.8,.03,.45-.26,.82-.71,.9-.09,.02-.17,.02-.26,.02-.73,0-1.45,0-2.18,0-.59,0-.98-.36-.97-.87,0-.51,.38-.84,.96-.85,.07,0,.14,0,.22,0Z"/></g></g></g></g></svg>