<?xml version="1.0" encoding="UTF-8"?><svg xmlns="http://www.w3.org/2000/svg" viewBox="0 0 28 28"><defs><style>.d{fill:#0091ff;stroke:#0091ff;stroke-miterlimit:10;stroke-width:.45px;}.e{fill:none;}</style></defs><g id="a"/><g id="b"><g id="c"><g><rect class="e" width="28" height="28"/><g><path class="d" d="M19.46,18.77c-.05,.61-.43,.71-.94,.63v5.42c.11,0,.23,0,.35,0,.32,.02,.51,.23,.46,.54-.06,.4-.13,.8-.22,1.19-.12,.53-.65,.94-1.22,.97-.08,0-.17,0-.25,0-5.13,0-10.27,0-15.4,0-.77,0-1.48-.45-1.55-1.33-.02-.24-.08-.48-.13-.72-.08-.45,.08-.66,.54-.66,.08,0,.16,0,.27,0v-.36c0-2.68,0-5.35,0-8.03,0-.99,.54-1.53,1.53-1.53,3.58,0,7.15,0,10.73,0h.3l.21-.9h-.19c-1.14,0-2.27-.03-3.41,0-1.97,.06-3.27-1.76-2.75-3.47,.01-.04,.01-.07,.02-.14-.11,0-.21,0-.31,0-1.45,0-2.91,.01-4.36,0-1.51-.02-2.7-1.26-2.67-2.77,.03-1.41,1.19-2.59,2.6-2.63,.18,0,.36,0,.55,0,.3-2.05,1.35-3.52,3.31-4.21,1.95-.69,3.69-.2,5.14,1.13,.51-.17,.98-.39,1.46-.48,1.65-.3,3.29,.92,3.55,2.58,.03,.19,.09,.29,.28,.35,.76,.23,1.4,.66,1.97,1.22,1.14-.73,2.32-.83,3.48-.13,1.16,.7,1.61,1.78,1.52,3.12,.31,.02,.62,.02,.92,.07,1.38,.23,2.35,1.47,2.24,2.86-.1,1.37-1.25,2.46-2.63,2.49-.5,.01-.99,0-1.49,0-.5,0-.99,0-1.43,0,.05,.26,.12,.51,.14,.77,.02,.43,0,.86,0,1.3,0,.45-.06,.53-.49,.66-.04,.01-.09,.03-.14,.06,.04,.07,.08,.14,.11,.2,.14,.23,.11,.44-.08,.64-.4,.4-.8,.79-1.19,1.2-.29,.3-.56,.14-.86-.05Zm-1.88,6.05v-5.42c-.5,.07-.9,0-.93-.63-.31,.18-.58,.35-.87,.05-.39-.4-.79-.8-1.19-1.19-.19-.19-.22-.4-.08-.64,.04-.06,.07-.13,.14-.24-.66,0-.68-.45-.65-.94h-.33c-3.58,0-7.15,0-10.73,0-.53,0-.66,.13-.66,.67,0,2.68,0,5.35,0,8.03v.32h.33c1.93,0,3.87,0,5.8,0,.42,0,.5,.05,.65,.44h1.76c.07-.38,.34-.45,.69-.45,1.24,.01,2.48,0,3.72,0h2.35Zm1.89-12.9q.58-.29,1.05,.17c.29,.29,.58,.59,.88,.87,.07,.07,.19,.13,.29,.13,1.06,0,2.12,.02,3.18,0,.91-.01,1.66-.74,1.74-1.65,.07-.9-.52-1.73-1.41-1.9-.4-.07-.82-.07-1.23-.05-.54,.03-.75-.3-.6-.78,.29-.94-.12-1.94-.94-2.48-.82-.53-1.89-.47-2.65,.15-.46,.38-.57,.37-.97-.07-1.14-1.26-2.91-1.7-4.48-1.05-1.61,.66-2.46,1.9-2.58,3.63-.03,.44-.16,.58-.6,.58-.24,0-.49,0-.73,0-1.02,.01-1.82,.79-1.82,1.79,0,1.01,.79,1.81,1.83,1.81,1.31,0,2.63,0,3.94,0,.12,0,.27-.07,.36-.16,.34-.31,.65-.65,.98-.97,.31-.3,.42-.32,.79-.11,.04,.02,.08,.04,.14,.07,.03-.09,.05-.17,.07-.25,.07-.25,.23-.38,.49-.38,.57,0,1.15,0,1.72,0,.26,0,.42,.13,.49,.38,.02,.08,.05,.16,.07,.24Zm-3.29-7.86s0-.08-.02-.12c-.43-1.57-2.33-2.17-3.59-1.14-.47,.38-.57,.37-.97-.07-1.17-1.28-2.96-1.71-4.55-1.03-1.58,.68-2.4,1.91-2.51,3.62-.03,.42-.16,.56-.6,.56-.23,0-.47,0-.7,0-1.06,0-1.86,.79-1.86,1.81,0,1.01,.8,1.79,1.85,1.79,1.64,0,3.28,0,4.93,0,.13,0,.26-.09,.39-.16,.38-.21,.74-.48,1.15-.62,.35-.12,.75-.11,1.13-.16,.58-2.91,2.36-4.42,5.36-4.5Zm5.02,10.75c-.15-.04-.29-.08-.42-.11-.46-.12-.58-.39-.34-.79q.23-.4-.09-.72l-.02-.02q-.4-.4-.9-.15c-.32,.16-.59,.04-.69-.31-.05-.16-.08-.32-.13-.5h-1.07c-.15,.31-.06,.7-.43,.85-.37,.16-.59-.22-.95-.3-.1,.11-.21,.26-.33,.38-.13,.12-.28,.22-.39,.31q.51,1.02-.52,1.39v1.05c.29,.16,.7,.06,.85,.44,.15,.37-.23,.58-.3,.94,.1,.09,.23,.19,.34,.3q.39,.39,.88,.14c.32-.16,.6-.05,.7,.29,.05,.17,.09,.34,.13,.51h1.08q.33-1,1.37-.52c.09-.12,.2-.26,.32-.39,.37-.38,.37-.37,.12-.83-.19-.35-.07-.62,.32-.73,.16-.04,.32-.09,.48-.13v-1.09Zm-13.08,10.93H1.56c.04,.82,.18,.89,.86,.89,5.05,0,10.1,0,15.15,0,.1,0,.23,.03,.31-.01,.14-.08,.31-.18,.38-.32,.08-.16,.07-.36,.1-.56h-6.58c-.16,.38-.24,.44-.65,.44-.78,0-1.56,0-2.34,0-.34,0-.59-.08-.66-.44Z"/><path class="d" d="M19.42,22.57v-.9h.31c1.06,0,2.12,0,3.18,0,.9,0,1.46-.56,1.46-1.46,0-1.65,0-3.3,0-4.96v-.33h.89c0,.09,.01,.18,.01,.27,0,1.66,0,3.32,0,4.98,0,1.43-.96,2.38-2.38,2.38-1.14,0-2.29,0-3.46,0Z"/><path class="d" d="M8.58,19.88v.87h-.87v-.87h.87Z"/><path class="d" d="M10.37,20.76h-.86v-.88h.86v.88Z"/><path class="d" d="M12.18,19.88v.86h-.87v-.86h.87Z"/><path class="d" d="M19.86,15.36c0,.99-.82,1.81-1.81,1.8-.98,0-1.79-.81-1.79-1.79,0-1,.8-1.81,1.8-1.81,1,0,1.81,.81,1.81,1.8Zm-1.79,.9c.49,0,.89-.42,.88-.91,0-.49-.41-.89-.9-.89-.5,0-.91,.42-.9,.92,.01,.49,.42,.88,.92,.88Z"/></g></g></g></g></svg>