<?xml version="1.0" encoding="UTF-8"?><svg xmlns="http://www.w3.org/2000/svg" viewBox="0 0 28 28"><defs><style>.d{fill:#0091ff;}.e{fill:none;}</style></defs><g id="a"/><g id="b"><g id="c"><g><rect class="e" width="28" height="28"/><g><path class="d" d="M23.95,21.56h-5.03v-.89h.27c1.62,0,3.25,0,4.87,0,.33,0,.53,.11,.66,.42,.84,1.98,1.69,3.95,2.53,5.92,.22,.52,.05,.78-.52,.78-8.49,0-16.99,0-25.48,0-.58,0-.75-.26-.52-.79,.84-1.96,1.69-3.93,2.52-5.89,.13-.31,.31-.44,.65-.43,1.62,.01,3.25,0,4.87,0h.29v.89h-.28c-1.5,0-3.01,0-4.51,0-.15,0-.25,0-.32,.18-.71,1.67-1.43,3.33-2.14,5-.02,.04-.03,.09-.05,.15H26.24l-2.28-5.32Z"/><path class="d" d="M8.2,22.01v.89h-.29c-.9,0-1.8,0-2.7,0-.2,0-.29,.07-.35,.25-.26,.71-.53,1.42-.8,2.13-.03,.08-.06,.17-.09,.28H24.01s0-.07,0-.1c-.3-.8-.6-1.59-.89-2.39-.06-.17-.17-.16-.3-.16-.99,0-1.99,0-3,0v-.87c.07,0,.15-.01,.23-.01,1.06,0,2.12,0,3.17,0,.32,0,.49,.12,.6,.42,.41,1.11,.83,2.22,1.25,3.33,.16,.44-.02,.71-.49,.71-7.05,0-14.11,0-21.16,0-.47,0-.65-.27-.49-.71,.42-1.11,.84-2.21,1.25-3.33,.1-.28,.27-.41,.58-.41,1.08,0,2.15,0,3.23,0h.22Z"/><path class="d" d="M13.98,15.34c-.24,0-.48,0-.72,0-.33,0-.49-.16-.51-.49,0-.05,0-.09,0-.14,0-.35-.2-.57-.55-.59-.05,0-.12,.04-.16,.07-.1,.08-.18,.19-.28,.27-.23,.2-.44,.2-.66,0-.37-.35-.73-.72-1.08-1.08-.23-.24-.23-.46,0-.7,.02-.02,.04-.04,.06-.06,.29-.3,.31-.49,.07-.82-.04-.05-.12-.07-.19-.08-.11-.01-.22,0-.33,0-.35-.01-.51-.17-.51-.52,0-.49,0-.98,0-1.47,0-.35,.16-.5,.51-.52,.03,0,.06,0,.08,0,.39,0,.58-.17,.63-.54,0-.05-.03-.12-.07-.17-.08-.09-.17-.17-.25-.26-.23-.25-.24-.46,0-.7,.35-.36,.7-.71,1.06-1.06,.24-.24,.46-.24,.71-.01,.03,.03,.07,.06,.1,.1,.24,.24,.55,.26,.81,.03,.04-.04,.06-.11,.06-.17,0-.13,0-.26,0-.39,.02-.3,.18-.46,.48-.46,.52,0,1.04,0,1.56,0,.28,0,.44,.16,.47,.45,0,.05,0,.09,0,.14,0,.4,.15,.58,.53,.63,.05,0,.12-.02,.17-.06,.09-.08,.17-.17,.26-.25,.25-.24,.47-.24,.73,0,.34,.34,.69,.68,1.02,1.02,.27,.27,.27,.49,0,.77-.03,.03-.06,.05-.08,.08-.08,.1-.22,.21-.21,.3,.02,.18,.12,.34,.21,.51,.02,.03,.1,.04,.15,.05,.11,0,.22,0,.33,0,.37,.01,.53,.17,.53,.53,0,.48,0,.96,0,1.44,0,.36-.16,.52-.53,.53-.04,0-.07,0-.11,0-.33,0-.58,.23-.59,.56,0,.05,.04,.12,.08,.16,.09,.1,.19,.18,.27,.28,.19,.22,.2,.44,0,.64-.37,.38-.74,.75-1.12,1.12-.22,.21-.44,.2-.67,0-.03-.02-.05-.05-.08-.08-.29-.28-.52-.3-.82-.07-.05,.04-.07,.12-.07,.19-.01,.12,0,.24,0,.36-.02,.32-.18,.47-.5,.48,0,0-.02,0-.03,0-.25,0-.5,0-.75,0Zm-.31-8.89c-.16,.64-.24,.78-.57,.92-.12,.05-.25,.08-.36,.14-.47,.26-.92,.29-1.31-.14l-.48,.48c.1,.19,.22,.36,.28,.55,.11,.38-.32,1.38-.67,1.56-.17,.09-.37,.11-.57,.17,0,.14,0,.3,0,.46,0,.06,0,.13,.01,.19,.63,.15,.78,.24,.92,.57,.05,.12,.08,.25,.14,.36,.27,.47,.29,.91-.14,1.3l.51,.51c.39-.42,.82-.41,1.29-.15,.12,.07,.28,.07,.38,.16,.18,.16,.35,.34,.49,.54,.07,.09,.05,.25,.07,.38h.7c0-.42,.14-.75,.54-.92,.12-.05,.25-.08,.36-.14,.47-.27,.91-.29,1.31,.14l.5-.49c-.08-.11-.17-.21-.23-.32-.27-.5,.2-1.67,.75-1.84,.13-.04,.27-.05,.41-.07v-.69c-.41,0-.75-.14-.92-.54-.05-.12-.08-.25-.14-.36-.27-.47-.29-.91,.12-1.29l-.44-.48c-.25,.1-.48,.28-.7,.27-.5-.03-.99-.21-1.34-.58-.15-.15-.18-.43-.28-.67h-.62Z"/><path class="d" d="M24.25,3.32c.73,0,1.41,0,2.1,0,.42,0,.58,.15,.58,.56,0,1.11,0,2.22,0,3.33,0,.39-.16,.55-.56,.55-.69,0-1.39,0-2.11,0,0,.29,0,.56,0,.82,0,.35-.17,.51-.52,.51-.7,0-1.39,0-2.09,0-.35,0-.51-.17-.51-.51,0-.69,0-1.39,0-2.08,0-.35,.17-.51,.51-.51,.26,0,.52,0,.8,0v-.89c-.39,0-.78,0-1.18,0-.43,0-.58-.15-.58-.59,0-.81,0-1.61,0-2.42,0-.4,.16-.55,.56-.55,.82,0,1.63,0,2.45,0,.4,0,.55,.16,.56,.55,0,.4,0,.79,0,1.22Zm1.77,3.55v-2.64h-2.63v2.64h2.63Zm-3.62-2.68c.07-.27,.07-.58,.22-.73,.15-.15,.46-.15,.72-.21v-.81h-1.74v1.74h.8Zm-.37,4h1.31v-.36c-.27-.07-.58-.07-.73-.23-.15-.15-.14-.46-.21-.71h-.37v1.3Z"/><path class="d" d="M4.64,11.78c0,.43,0,.83,0,1.22,0,.4-.16,.56-.55,.56-.82,0-1.63,0-2.45,0-.4,0-.56-.15-.56-.55,0-.81,0-1.63,0-2.44,0-.41,.15-.56,.58-.56,.39,0,.78,0,1.21,0,0-.33,0-.65,0-.97,0-.4,0-.8,0-1.19,0-.33,.17-.5,.5-.5,1.15,0,2.3,0,3.45,0,.33,0,.5,.17,.5,.49,0,1.15,0,2.3,0,3.44,0,.34-.17,.51-.52,.51-.7,0-1.41,0-2.15,0Zm-.88-.91h2.65v-2.63H3.76v2.63Zm-1.78,.03v1.75h1.74v-.86q-.77-.04-.9-.89h-.84Z"/><path class="d" d="M15.78,2c0,.41,0,.82,0,1.22,0,.38-.16,.55-.54,.55-.84,0-1.67,0-2.51,0-.36,0-.52-.17-.52-.53,0-.83,0-1.67,0-2.5,0-.36,.17-.52,.53-.52,.84,0,1.67,0,2.51,0,.36,0,.52,.17,.52,.53,0,.42,0,.83,0,1.25Zm-2.65-.88v1.74h1.75V1.11h-1.75Z"/><path class="d" d="M6.87,4.46c0,.34,0,.69,0,1.03,0,.33-.17,.5-.5,.5-.71,0-1.41,0-2.12,0-.33,0-.5-.17-.5-.5,0-.7,0-1.41,0-2.11,0-.33,.17-.5,.5-.5,.71,0,1.41,0,2.12,0,.33,0,.49,.17,.5,.5,0,.36,0,.72,0,1.08Zm-.91,.63v-1.3h-1.3v1.3h1.3Z"/><path class="d" d="M21.59,13.56c.28,0,.56,0,.84,0,.31,0,.48,.17,.49,.48,0,.57,0,1.13,0,1.7,0,.31-.17,.48-.49,.49-.57,0-1.13,0-1.7,0-.31,0-.48-.17-.49-.48,0-.57,0-1.13,0-1.7,0-.31,.17-.48,.48-.49,.29,0,.58,0,.86,0Zm-.45,1.77h.86v-.86h-.86v.86Z"/><path class="d" d="M10.9,17.13h.86v4.41h-.86v-4.41Z"/><path class="d" d="M16.25,17.57h.86v3.97h-.86v-3.97Z"/><path class="d" d="M14.46,20.69h.86v3.52h-.86v-3.52Z"/><path class="d" d="M15.32,19.77h-.86v-3.08h.86v3.08Z"/><path class="d" d="M12.68,16.68h.86v2.63h-.86v-2.63Z"/><path class="d" d="M13.53,24.22h-.85v-2.2h.85v2.2Z"/><path class="d" d="M13.54,21.11h-.85v-.87h.85v.87Z"/><path class="d" d="M10.89,23.32v-.86h.86v.86h-.86Z"/><path class="d" d="M17.1,23.33h-.85v-.87h.85v.87Z"/><path class="d" d="M11.33,10.45c0-1.47,1.19-2.68,2.66-2.68,1.48,0,2.68,1.19,2.69,2.66,0,1.47-1.19,2.68-2.66,2.68-1.48,0-2.68-1.19-2.68-2.66Zm4.45-.01c0-.98-.8-1.78-1.79-1.78-.97,0-1.77,.79-1.78,1.76,0,.98,.79,1.79,1.77,1.79,.98,0,1.79-.8,1.79-1.78Z"/></g></g></g></g></svg>