<svg xmlns="http://www.w3.org/2000/svg" width="345" height="307" viewBox="0 0 345 307">
  <g id="Group_1768" data-name="Group 1768" transform="translate(-17703 -5560)">
    <rect id="Rectangle_2932" data-name="Rectangle 2932" width="345" height="307" transform="translate(17703 5560)" fill="#fff" opacity="0"/>
    <g id="Rising-rafiki" transform="translate(17703 5520.024)">
      <g id="freepik--background-complete--inject-350" transform="translate(0 55)">
        <rect id="Rectangle_2965" data-name="Rectangle 2965" width="341.209" height="0.186" transform="translate(0 243.381)" fill="#ebebeb"/>
        <rect id="Rectangle_2966" data-name="Rectangle 2966" width="18.488" height="0.186" transform="translate(67.246 250.458)" fill="#ebebeb"/>
        <rect id="Rectangle_2967" data-name="Rectangle 2967" width="20.443" height="0.186" transform="translate(113.238 248.443)" fill="#ebebeb"/>
        <rect id="Rectangle_2968" data-name="Rectangle 2968" width="43.198" height="0.186" transform="translate(35.437 257.364)" fill="#ebebeb"/>
        <rect id="Rectangle_2969" data-name="Rectangle 2969" width="16.057" height="0.186" transform="translate(318.388 256.115)" fill="#ebebeb"/>
        <rect id="Rectangle_2970" data-name="Rectangle 2970" width="20.762" height="0.186" transform="translate(159.67 249.878)" fill="#ebebeb"/>
        <rect id="Rectangle_2971" data-name="Rectangle 2971" width="52.2" height="0.186" transform="translate(223.511 252.978)" fill="#ebebeb"/>
        <path id="Path_32512" data-name="Path 32512" d="M185.986,265.226H42.447a4.245,4.245,0,0,1-4.237-4.245V59.208A4.245,4.245,0,0,1,42.447,55H185.986a4.245,4.245,0,0,1,4.245,4.245V260.982A4.245,4.245,0,0,1,185.986,265.226ZM42.447,55.149A4.059,4.059,0,0,0,38.4,59.208V260.982a4.059,4.059,0,0,0,4.051,4.059H185.986a4.066,4.066,0,0,0,4.059-4.059V59.208a4.066,4.066,0,0,0-4.059-4.059Z" transform="translate(-9.806 -55)" fill="#ebebeb"/>
        <path id="Path_32513" data-name="Path 32513" d="M402.29,265.226H258.745a4.252,4.252,0,0,1-4.245-4.245V59.208A4.252,4.252,0,0,1,258.745,55H402.29a4.245,4.245,0,0,1,4.23,4.208V260.982A4.245,4.245,0,0,1,402.29,265.226ZM258.745,55.149a4.066,4.066,0,0,0-4.059,4.059V260.982a4.066,4.066,0,0,0,4.059,4.059H402.29a4.066,4.066,0,0,0,4.059-4.059V59.208a4.066,4.066,0,0,0-4.059-4.059Z" transform="translate(-65.311 -55)" fill="#ebebeb"/>
        <rect id="Rectangle_2972" data-name="Rectangle 2972" width="113.246" height="141.048" transform="translate(44.35 21.194)" fill="#e6e6e6"/>
        <rect id="Rectangle_2973" data-name="Rectangle 2973" width="114.576" height="141.048" transform="translate(45.517 21.194)" fill="#f5f5f5"/>
        <path id="Path_32514" data-name="Path 32514" d="M61.419,80.235H174.59a1,1,0,0,0,1-1h0a1,1,0,0,0-1-.989H61.419a1,1,0,0,0-.989.989h0a1,1,0,0,0,.989,1Z" transform="translate(-15.508 -60.967)" fill="#e6e6e6"/>
        <rect id="Rectangle_2974" data-name="Rectangle 2974" width="113.246" height="1.963" transform="translate(44.35 162.242)" fill="#e6e6e6"/>
        <rect id="Rectangle_2975" data-name="Rectangle 2975" width="109.083" height="1.963" transform="translate(62.488 162.242)" fill="#f5f5f5"/>
        <rect id="Rectangle_2976" data-name="Rectangle 2976" width="131.919" height="107.551" transform="translate(156.585 25.758) rotate(90)" fill="#fafafa"/>
        <path id="Path_32515" data-name="Path 32515" d="M116.21,221.569l8.3-131.919h14.92l-8.3,131.919Z" transform="translate(-29.822 -63.892)" fill="#fff"/>
        <path id="Path_32516" data-name="Path 32516" d="M141.96,221.569l8.3-131.919h6.921l-8.3,131.919Z" transform="translate(-36.43 -63.892)" fill="#fff"/>
        <rect id="Rectangle_2977" data-name="Rectangle 2977" width="88.796" height="0.446" transform="translate(156.585 25.141) rotate(90)" fill="#e6e6e6"/>
        <g id="Group_1678" data-name="Group 1678" transform="translate(41.711 15.276)" opacity="0.4">
          <path id="Path_32517" data-name="Path 32517" d="M56.11,85.8V213.067h0c6.594,0,12.548-6.118,15.247-15.611,5.717-20.019,14.526-52.78,17.246-112.361.416-9.2-1.487-9.545-4-9.545H58.868C57.344,75.572,56.11,80.151,56.11,85.8Z" transform="translate(-56.11 -75.55)" fill="#e6e6e6"/>
        </g>
        <g id="Group_1679" data-name="Group 1679" transform="translate(130.42 15.276)" opacity="0.4">
          <path id="Path_32518" data-name="Path 32518" d="M207.993,85.8V213.067h0c-6.586,0-12.541-6.118-15.247-15.611-5.709-20.019-14.518-52.78-17.246-112.361-.416-9.2,1.487-9.545,4-9.545h25.736C206.759,75.572,207.993,80.151,207.993,85.8Z" transform="translate(-175.443 -75.55)" fill="#e6e6e6"/>
        </g>
        <rect id="Rectangle_2978" data-name="Rectangle 2978" width="13.135" height="57.441" transform="translate(120.546 185.933)" fill="#e6e6e6"/>
        <path id="Path_32519" data-name="Path 32519" d="M172.134,379.11h5.687v-9.53H172Z" transform="translate(-44.139 -135.729)" fill="#f5f5f5"/>
        <rect id="Rectangle_2979" data-name="Rectangle 2979" width="13.135" height="57.441" transform="translate(44.833 185.933)" fill="#e6e6e6"/>
        <rect id="Rectangle_2980" data-name="Rectangle 2980" width="80.678" height="54.162" transform="translate(53.003 185.933)" fill="#f5f5f5"/>
        <path id="Path_32520" data-name="Path 32520" d="M76.987,379.11H71.3v-9.53h5.828Z" transform="translate(-18.297 -135.729)" fill="#f5f5f5"/>
        <rect id="Rectangle_2981" data-name="Rectangle 2981" width="71.855" height="19.974" transform="translate(57.418 190.49)" fill="#f0f0f0"/>
        <path id="Path_32521" data-name="Path 32521" d="M123.553,325.261a5.835,5.835,0,1,1,5.828-5.828A5.835,5.835,0,0,1,123.553,325.261Zm0-11.047a5.2,5.2,0,1,0,5.2,5.2,5.2,5.2,0,0,0-5.2-5.2Z" transform="translate(-30.207 -121.361)" fill="#fff"/>
        <rect id="Rectangle_2982" data-name="Rectangle 2982" width="71.855" height="19.974" transform="translate(57.418 215.296)" fill="#f0f0f0"/>
        <path id="Path_32522" data-name="Path 32522" d="M123.553,358.631a5.835,5.835,0,1,1,5.828-5.835A5.835,5.835,0,0,1,123.553,358.631Zm0-11.054a5.2,5.2,0,1,0,5.2,5.2A5.2,5.2,0,0,0,123.553,347.577Z" transform="translate(-30.207 -129.924)" fill="#fff"/>
        <rect id="Rectangle_2983" data-name="Rectangle 2983" width="44.826" height="66.435" transform="translate(266.396 243.381) rotate(180)" fill="#e6e6e6"/>
        <rect id="Rectangle_2984" data-name="Rectangle 2984" width="58.912" height="66.435" transform="translate(266.396 176.938)" fill="#f0f0f0"/>
        <rect id="Rectangle_2985" data-name="Rectangle 2985" width="103.731" height="6.884" transform="translate(325.308 178.165) rotate(180)" fill="#e6e6e6" opacity="0.7"/>
        <rect id="Rectangle_2986" data-name="Rectangle 2986" width="47.085" height="6.363" transform="translate(266.396 176.938) rotate(180)" fill="#e6e6e6"/>
        <rect id="Rectangle_2987" data-name="Rectangle 2987" width="61.172" height="6.363" transform="translate(266.396 170.582)" fill="#f0f0f0"/>
        <rect id="Rectangle_2988" data-name="Rectangle 2988" width="36.671" height="41.005" transform="translate(204.48 243.381) rotate(180)" fill="#ebebeb"/>
        <rect id="Rectangle_2989" data-name="Rectangle 2989" width="48.193" height="41.005" transform="translate(204.48 202.369)" fill="#f5f5f5"/>
        <rect id="Rectangle_2990" data-name="Rectangle 2990" width="84.864" height="5.627" transform="translate(252.673 203.373) rotate(180)" fill="#e6e6e6" opacity="0.7"/>
        <rect id="Rectangle_2991" data-name="Rectangle 2991" width="38.522" height="5.204" transform="translate(204.48 202.369) rotate(180)" fill="#ebebeb"/>
        <rect id="Rectangle_2992" data-name="Rectangle 2992" width="50.044" height="5.204" transform="translate(204.48 197.165)" fill="#f5f5f5"/>
        <rect id="Rectangle_2993" data-name="Rectangle 2993" width="74.754" height="115.647" transform="translate(231.97 31.757)" fill="#e6e6e6"/>
        <rect id="Rectangle_2994" data-name="Rectangle 2994" width="80.061" height="115.647" transform="translate(233.055 31.757)" fill="#f5f5f5"/>
        <rect id="Rectangle_2995" data-name="Rectangle 2995" width="105.44" height="69.855" rx="5.4" transform="translate(308.017 36.864) rotate(90)" fill="#fff"/>
        <rect id="Rectangle_2996" data-name="Rectangle 2996" width="5.917" height="36.269" transform="translate(283.819 74.665) rotate(45)" fill="#f5f5f5"/>
        <rect id="Rectangle_2997" data-name="Rectangle 2997" width="5.917" height="36.269" transform="translate(273.271 64.119) rotate(45)" fill="#f5f5f5"/>
        <rect id="Rectangle_2998" data-name="Rectangle 2998" width="5.917" height="36.269" transform="translate(294.368 85.22) rotate(45)" fill="#f5f5f5"/>
      </g>
      <g id="freepik--Shadow--inject-350" transform="translate(41.711 315.122)">
        <ellipse id="freepik--path--inject-350" cx="144.133" cy="8.415" rx="144.133" ry="8.415" fill="#f5f5f5"/>
      </g>
      <g id="freepik--Character--inject-350" transform="translate(111.27 76.355)">
        <path id="Path_32523" data-name="Path 32523" d="M232.516,344.487l.84-2.877H192.47l-15.41,52.5h7.434l7.434-25.275H201.8l7.434,25.275h8.742l7.434-25.275h9.813l7.434,25.275h4.46Zm-40.008,22.376,4.349-14.808,4.341,14.808Zm19.558,21.87-5.828-19.863H217.9Zm6.423-21.87H205.643l-6.564-22.376.253-.87h26Zm7.434,0,4.349-14.808,4.341,14.808Z" transform="translate(-156.708 -149.907)" fill="#0091ff"/>
        <path id="Path_32524" data-name="Path 32524" d="M232.516,344.487l.84-2.877H192.47l-15.41,52.5h7.434l7.434-25.275H201.8l7.434,25.275h8.742l7.434-25.275h9.813l7.434,25.275h4.46Zm-40.008,22.376,4.349-14.808,4.341,14.808Zm19.558,21.87-5.828-19.863H217.9Zm6.423-21.87H205.643l-6.564-22.376.253-.87h26Zm7.434,0,4.349-14.808,4.341,14.808Z" transform="translate(-156.708 -149.907)" opacity="0.2"/>
        <path id="Path_32525" data-name="Path 32525" d="M241.775,341.61H203.9l15.41,52.5h4.46l-7.434-25.275h28.992l7.434,25.275h4.46Zm-26.018,25.275-6.824-23.245h28.992l6.817,23.245Z" transform="translate(-163.596 -149.907)" fill="#0091ff"/>
        <path id="Path_32526" data-name="Path 32526" d="M241.775,341.61H203.9l15.41,52.5h4.46l-7.434-25.275h28.992l7.434,25.275h4.46m-41.428-27.252-6.824-23.245h28.992l6.817,23.245Z" transform="translate(-163.596 -149.907)" fill="#fff" opacity="0.4"/>
        <path id="Path_32527" data-name="Path 32527" d="M251.925,86.844s1.643-3.9,10.593-2.974c6.5.676,10.459,7.679,9.969,17.588s-4.557,14.184-4.557,14.184l-21.335-11.091S245.138,88.145,251.925,86.844Z" transform="translate(-174.519 -83.728)" fill="#263238"/>
        <path id="Path_32528" data-name="Path 32528" d="M279.67,102v15.366C283.015,103.531,279.67,102,279.67,102Z" transform="translate(-183.041 -88.417)" fill="#263238"/>
        <path id="Path_32529" data-name="Path 32529" d="M278.161,93.28l3.479,14.964C280.867,91.488,277.261,90.715,278.161,93.28Z" transform="translate(-182.617 -85.896)" fill="#263238"/>
        <path id="Path_32530" data-name="Path 32530" d="M275.487,144.19c.543,1.442,1.115,2.973,1.725,4.46s1.219,2.973,1.881,4.46,1.368,2.869,2.1,4.237c.379.676.743,1.338,1.16,1.977.193.342.409.617.617.937l.275.4a1.341,1.341,0,0,0,.134.171,2.973,2.973,0,0,0,1.137.669,8.689,8.689,0,0,0,1.881.409,23.045,23.045,0,0,0,4.46,0,45.5,45.5,0,0,0,4.728-.617c1.583-.26,3.2-.61,4.735-.959l1,2.8a46.559,46.559,0,0,1-9.827,3.211,25.215,25.215,0,0,1-5.441.535,13.5,13.5,0,0,1-3.026-.416,8.133,8.133,0,0,1-3.234-1.621,7.487,7.487,0,0,1-.743-.743c-.134-.149-.186-.223-.26-.312l-.216-.268c-.275-.364-.587-.743-.833-1.093L277,161.325l-.743-1.122a52.027,52.027,0,0,1-2.535-4.564c-.743-1.554-1.487-3.107-2.141-4.683s-1.264-3.144-1.814-4.832Z" transform="translate(-180.5 -99.244)" fill="#ffc3bd"/>
        <path id="Path_32531" data-name="Path 32531" d="M309.929,169.031l3.717.959.632-5.04s-3.769-.045-5.568,1.613Z" transform="translate(-190.493 -104.571)" fill="#ffc3bd"/>
        <path id="Path_32532" data-name="Path 32532" d="M319.941,170.28l-.528-3.717-3.479-1.613-.624,5.04Z" transform="translate(-192.187 -104.571)" fill="#ffc3bd"/>
        <path id="Path_32533" data-name="Path 32533" d="M320.157,170.583l-.528-3.717-1.583-.736-1.9,4.2Z" transform="translate(-192.402 -104.874)" opacity="0.2"/>
        <path id="Path_32534" data-name="Path 32534" d="M263.542,136.8c.23,1.933,1.635,5.657,2.78,8.445.833,2.007,1.487,3.516,1.487,3.516l1.108-.416,9.2-3.472c-.468-5-1.345-10.452-6.609-13.2C268.24,129.937,263.133,133.342,263.542,136.8Z" transform="translate(-178.896 -95.911)" fill="#0091ff"/>
        <path id="Path_32535" data-name="Path 32535" d="M267.29,148.91c.833,2.007,1.487,3.516,1.487,3.516l1.108-.416c-.059-1.963-.3-5.07-1.286-6.519A8.5,8.5,0,0,0,267.29,148.91Z" transform="translate(-179.864 -99.577)" opacity="0.3"/>
        <path id="Path_32536" data-name="Path 32536" d="M220.68,328.842l5.962.565,1.6-13.752-5.954-.565Z" transform="translate(-167.902 -143.101)" fill="#ffc3bd"/>
        <path id="Path_32537" data-name="Path 32537" d="M154.67,308.423l4.8,3.62,9.552-10.08-4.8-3.613Z" transform="translate(-150.963 -138.805)" fill="#ffc3bd"/>
        <path id="Path_32538" data-name="Path 32538" d="M159.136,314.01l-3.442-5.821A.468.468,0,0,0,155.1,308l-4.869,2.148a1,1,0,0,0-.409,1.4c1.241,2,1.933,2.907,3.449,5.464.929,1.576,2.765,5.2,4.051,7.367s3.449.974,3.1-.052c-1.554-4.587-1.39-7.188-1.085-9.255A1.569,1.569,0,0,0,159.136,314.01Z" transform="translate(-149.683 -141.27)" fill="#263238"/>
        <path id="Path_32539" data-name="Path 32539" d="M226.593,332h-7.1a.565.565,0,0,0-.543.431l-1.39,5.612a.914.914,0,0,0,.9,1.13c2.5,0,3.717-.178,6.809-.178,1.918,0,6.884.186,9.537.186s3.063-2.624,1.985-2.862c-4.847-1.063-7.657-2.527-9.181-3.932A1.487,1.487,0,0,0,226.593,332Z" transform="translate(-167.095 -147.44)" fill="#263238"/>
        <path id="Path_32540" data-name="Path 32540" d="M228.484,315.655l-.825,7.092H221.63l.892-7.657Z" transform="translate(-168.146 -143.101)" opacity="0.2"/>
        <path id="Path_32541" data-name="Path 32541" d="M165.819,298.35l4.795,3.62-4.921,5.189-4.8-3.62Z" transform="translate(-152.559 -138.805)" opacity="0.2"/>
        <path id="Path_32542" data-name="Path 32542" d="M225.5,152.792l22.621,8.921C265.4,130.826,263.2,129,263.2,129s-3.568-2.379-7.307-4.408c-.565-.3-1.137-.6-1.7-.892a78.152,78.152,0,0,0-10.266-4.051c-.52-.178-1.033-.342-1.554-.506a72.644,72.644,0,0,0-8.519-2.007c-.535,4.4-1.041,8.118-1.561,11.344-.669,4.208-1.338,7.568-2.052,10.467A90.815,90.815,0,0,1,225.5,152.792Z" transform="translate(-169.139 -92.302)" fill="#0091ff"/>
        <path id="Path_32543" data-name="Path 32543" d="M231.88,141.949c2.349-3.033,4.78-10.244,4.349-13.039l-2.3,2.572C233.263,135.667,232.594,139.05,231.88,141.949Z" transform="translate(-170.777 -95.323)" opacity="0.3"/>
        <path id="Path_32544" data-name="Path 32544" d="M264.58,124.969c-.944-5.04-16.22-8.779-16.22-8.779l8.653,15.016,1.368.55S265.19,128.322,264.58,124.969Z" transform="translate(-175.006 -92.058)" fill="#0091ff"/>
        <path id="Path_32545" data-name="Path 32545" d="M264.58,124.969c-.944-5.04-16.22-8.779-16.22-8.779l8.653,15.016,1.368.55S265.19,128.322,264.58,124.969Z" transform="translate(-175.006 -92.058)" opacity="0.3"/>
        <path id="Path_32546" data-name="Path 32546" d="M254.43,111.3c-.877,2.862-2.23,5.657-4.17,6.482,0,0-1.048,7.434,5.806,14.548,7.753-4.7,4.46-10.5,4.46-10.5-3.367-2.342-2.542-4.839-.052-8.564l-2.527-2.29a1.9,1.9,0,0,0-3.516.32Z" transform="translate(-175.479 -90.456)" fill="#ffc3bd"/>
        <path id="Path_32547" data-name="Path 32547" d="M247.49,118.792l.424-2.6a13.065,13.065,0,0,1,5,4.981c1.464,3.078-.8,8.876-.8,8.876l-5.486-5.241Z" transform="translate(-174.559 -92.058)" fill="#0091ff"/>
        <path id="Path_32548" data-name="Path 32548" d="M259.447,110.973a1.91,1.91,0,0,0-3.427.067,12.481,12.481,0,0,0,3.858,6.482,12.845,12.845,0,0,1,2.089-4.252Z" transform="translate(-176.972 -90.454)" opacity="0.2"/>
        <path id="Path_32549" data-name="Path 32549" d="M252.626,95.126c.164,5.992.112,8.527,2.973,11.753,4.312,4.862,11.5,3.509,13.1-2.379,1.435-5.293.922-14.2-4.743-16.9a7.88,7.88,0,0,0-11.329,7.523Z" transform="translate(-176.097 -84.517)" fill="#ffc3bd"/>
        <path id="Path_32550" data-name="Path 32550" d="M253.3,89.586c4.46,4.713,12.95,1.858,12.95,1.858l4.46,2.7-2.364-5.367-5.2-3.055S251.019,87.17,253.3,89.586Z" transform="translate(-176.2 -84.239)" fill="#263238"/>
        <path id="Path_32551" data-name="Path 32551" d="M253.1,88.42a14.3,14.3,0,0,1,3.591,5.449c1.487,3.717-4.46,6.564-4.46,6.564S247.4,95.356,253.1,88.42Z" transform="translate(-175.508 -84.932)" fill="#263238"/>
        <path id="Path_32552" data-name="Path 32552" d="M250.583,104.469a4.46,4.46,0,0,0,1.858,2.8c1.271.855,2.342-.171,2.357-1.628,0-1.308-.632-3.33-2.081-3.6A1.9,1.9,0,0,0,250.583,104.469Z" transform="translate(-175.564 -88.417)" fill="#ffc3bd"/>
        <path id="Path_32553" data-name="Path 32553" d="M246.784,174.58s-4.007,30.2-6.936,53.419c-2.327,18.458-10.853,54.036-10.853,54.036l-8.7-.862s3.635-40.373,6.973-53.33c-2.059-26.65-7.434-52.453,1.346-60.563Z" transform="translate(-167.802 -105.169)" fill="#263238"/>
        <path id="Path_32554" data-name="Path 32554" d="M218.42,317.64l11.478.349-.624,3.918-10.742-.164Z" transform="translate(-167.322 -143.755)" fill="#0091ff"/>
        <path id="Path_32555" data-name="Path 32555" d="M233.7,195.59l-8.712-7.24c-.3,9.314,1.219,21.357,2.505,34.2C231.9,213.313,234.955,203.433,233.7,195.59Z" transform="translate(-168.997 -110.576)" opacity="0.3"/>
        <path id="Path_32556" data-name="Path 32556" d="M227.2,172.152s-16.116,33.593-22.569,56c-8.058,17.715-35.132,43.116-35.132,43.116l-6.17-5.508s21.64-36.284,28.992-42.439c3.524-25.951,6.282-50.869,17.217-58.2Z" transform="translate(-153.185 -104.615)" fill="#263238"/>
        <path id="Path_32557" data-name="Path 32557" d="M168.466,307.041,160.46,300.4l2.081-3.583,8.779,7.709Z" transform="translate(-152.448 -138.412)" fill="#0091ff"/>
        <path id="Path_32558" data-name="Path 32558" d="M225.074,163.095l-1.762,1.643c-.134.126,0,.364.253.461l23.721,9.359c.208.082.409.052.468-.074l.952-1.963c.059-.134-.074-.327-.3-.416l-22.9-9.039a.431.431,0,0,0-.431.03Z" transform="translate(-168.564 -104.076)" fill="#0091ff"/>
        <path id="Path_32559" data-name="Path 32559" d="M225.074,163.095l-1.762,1.643c-.134.126,0,.364.253.461l23.721,9.359c.208.082.409.052.468-.074l.952-1.963c.059-.134-.074-.327-.3-.416l-22.9-9.039a.431.431,0,0,0-.431.03Z" transform="translate(-168.564 -104.076)" fill="#fff" opacity="0.2"/>
        <path id="Path_32560" data-name="Path 32560" d="M228.311,167.167l-.617-.245c-.119-.045-.186-.149-.156-.223l1.256-2.535c.037-.074.164-.1.282-.052l.617.245c.119.045.193.149.156.223l-1.227,2.542A.271.271,0,0,1,228.311,167.167Z" transform="translate(-169.66 -104.35)" fill="#263238"/>
        <path id="Path_32561" data-name="Path 32561" d="M252.89,176.865l-.617-.245c-.119-.045-.193-.149-.156-.223l1.249-2.542c0-.074.171-.1.29-.045l.617.238c.119.052.193.149.156.223l-1.256,2.542C253.135,176.918,253.009,176.918,252.89,176.865Z" transform="translate(-175.967 -106.838)" fill="#263238"/>
        <path id="Path_32562" data-name="Path 32562" d="M240.6,172.015l-.617-.245c-.119-.045-.193-.149-.156-.223L241.076,169c.037-.074.171-.1.29-.045l.617.245c.119.045.193.141.156.223l-1.249,2.527C240.853,172.038,240.7,172.06,240.6,172.015Z" transform="translate(-172.813 -105.593)" fill="#263238"/>
        <path id="Path_32563" data-name="Path 32563" d="M264.18,100.587c0,.491.23.9.543.914s.58-.364.595-.847-.23-.9-.543-.914S264.2,100.1,264.18,100.587Z" transform="translate(-179.066 -87.837)" fill="#263238"/>
        <path id="Path_32564" data-name="Path 32564" d="M271.45,101c0,.483.23.892.543.914s.572-.364.595-.855-.23-.892-.543-.907S271.472,100.514,271.45,101Z" transform="translate(-180.931 -87.942)" fill="#263238"/>
        <path id="Path_32565" data-name="Path 32565" d="M272.07,100.078l1.16-.268S272.605,100.695,272.07,100.078Z" transform="translate(-181.09 -87.855)" fill="#263238"/>
        <path id="Path_32566" data-name="Path 32566" d="M270.592,102.21a13.462,13.462,0,0,0,1.606,3.2,2.015,2.015,0,0,1-1.717.23Z" transform="translate(-180.682 -88.471)" fill="#ed847e"/>
        <path id="Path_32567" data-name="Path 32567" d="M266.274,108.639a.178.178,0,0,0,.089-.134.156.156,0,0,0-.141-.149,3.866,3.866,0,0,1-3.033-1.68.149.149,0,0,0-.193-.052.156.156,0,0,0-.052.2,4.141,4.141,0,0,0,3.271,1.821Z" transform="translate(-178.744 -89.599)" fill="#263238"/>
        <path id="Path_32568" data-name="Path 32568" d="M263.419,97.817a.23.23,0,0,0,.119-.089,2.185,2.185,0,0,1,1.829-.847.29.29,0,0,0,.312-.253.3.3,0,0,0-.253-.32,2.706,2.706,0,0,0-2.327,1.056.29.29,0,0,0,.32.453Z" transform="translate(-178.773 -86.955)" fill="#263238"/>
        <path id="Path_32569" data-name="Path 32569" d="M275.078,97.925a.3.3,0,0,0-.1-.394,2.751,2.751,0,0,0-2.565-.208.288.288,0,0,0,.26.513,2.23,2.23,0,0,1,2.029.186.268.268,0,0,0,.379-.1Z" transform="translate(-181.139 -87.159)" fill="#263238"/>
        <path id="Path_32570" data-name="Path 32570" d="M163.165,319.43l.089.037a.781.781,0,0,0,.743-.2.483.483,0,0,0,.193-.453c-.1-.743-2.015-1.717-2.23-1.821a.126.126,0,0,0-.149,0,.141.141,0,0,0-.045.149C162.006,317.9,162.489,319.14,163.165,319.43Zm-1.011-2.029c.743.409,1.717,1.048,1.762,1.45a.2.2,0,0,1-.089.2.535.535,0,0,1-.5.141C162.942,319.073,162.511,318.411,162.155,317.4Z" transform="translate(-152.783 -143.583)" fill="#0091ff"/>
        <path id="Path_32571" data-name="Path 32571" d="M161.986,317.068c.654.29,2.1.476,2.565.037a.5.5,0,0,0,.089-.617.743.743,0,0,0-.468-.424c-.818-.253-2.275.647-2.334.691a.142.142,0,0,0,.007.245Zm2.163-.706a.476.476,0,0,1,.238.245.354.354,0,0,1,0,.29,2.907,2.907,0,0,1-2.141-.037,3.167,3.167,0,0,1,1.866-.52Z" transform="translate(-152.785 -143.34)" fill="#0091ff"/>
        <path id="Path_32572" data-name="Path 32572" d="M233.288,333.011a2.32,2.32,0,0,0,1.375-.335.862.862,0,0,0,.342-.684.424.424,0,0,0-.186-.387c-.662-.431-3.048.662-3.516.892a.126.126,0,0,0-.074.141.149.149,0,0,0,.111.126,9.791,9.791,0,0,0,1.948.245Zm1.093-1.227a.483.483,0,0,1,.282.059.141.141,0,0,1,.059.134.587.587,0,0,1-.238.476,3.916,3.916,0,0,1-2.661.119A8.631,8.631,0,0,1,234.381,331.784Z" transform="translate(-170.609 -147.314)" fill="#0091ff"/>
        <path id="Path_32573" data-name="Path 32573" d="M231.359,332.276h.052c.8-.335,2.371-1.628,2.23-2.3,0-.149-.126-.327-.491-.372-1.42-.171-1.94,2.394-1.963,2.505a.119.119,0,0,0,.052.134A.134.134,0,0,0,231.359,332.276Zm1.695-2.379h.1c.149,0,.23.059.245.126.059.394-1.026,1.412-1.829,1.858C231.739,331.25,232.207,329.9,233.054,329.9Z" transform="translate(-170.598 -146.824)" fill="#0091ff"/>
        <path id="Path_32574" data-name="Path 32574" d="M264.8,99.675l1.16-.275S265.335,100.277,264.8,99.675Z" transform="translate(-179.225 -87.75)" fill="#263238"/>
        <path id="Path_32575" data-name="Path 32575" d="M229.979,128.66c-2.4,2.23-4.825,4.542-7.144,6.861-1.16,1.167-2.282,2.357-3.353,3.553a33.02,33.02,0,0,0-2.892,3.605,6.5,6.5,0,0,0-.743,1.383h0a1.7,1.7,0,0,0,0,.275,3.189,3.189,0,0,0,.119.6,6.951,6.951,0,0,0,2.275,2.825,33.764,33.764,0,0,0,8.207,4.527l-.743,2.892c-.929-.134-1.762-.312-2.632-.52a26.623,26.623,0,0,1-2.572-.743,23.883,23.883,0,0,1-5.025-2.3,13.939,13.939,0,0,1-2.394-1.844,9.664,9.664,0,0,1-2.007-2.773,7.433,7.433,0,0,1-.587-1.829,7.207,7.207,0,0,1-.112-.981,4.825,4.825,0,0,1,0-.647,3.161,3.161,0,0,1,.089-.617,8.258,8.258,0,0,1,.61-1.821,12.1,12.1,0,0,1,.743-1.383,37.7,37.7,0,0,1,3.226-4.46c1.13-1.36,2.3-2.646,3.494-3.9,2.379-2.527,4.825-4.884,7.434-7.2Z" transform="translate(-165.255 -94.106)" fill="#ffc3bd"/>
        <path id="Path_32576" data-name="Path 32576" d="M228.84,164.2l2.973,3.9,2.973-4.1s-2.788-2.527-5.2-2.475Z" transform="translate(-169.996 -103.691)" fill="#ffc3bd"/>
        <path id="Path_32577" data-name="Path 32577" d="M235.263,171.488l2.067-3.13-1.539-3.509-2.981,4.1Z" transform="translate(-171.015 -104.546)" fill="#ffc3bd"/>
        <path id="Path_32578" data-name="Path 32578" d="M233.576,117.106c-2.973-.342-9.166,6.69-9.166,6.69l5.553,9.805s8.229-5.821,7.924-9.545C237.62,120.786,237.36,117.537,233.576,117.106Z" transform="translate(-168.86 -92.29)" fill="#0091ff"/>
      </g>
      <g id="freepik--Arrow--inject-350" transform="translate(80.285 108.04)">
        <rect id="Rectangle_2999" data-name="Rectangle 2999" width="3.568" height="0.743" transform="matrix(0.5, -0.866, 0.866, 0.5, 162.35, 88.553)" fill="#0091ff"/>
        <rect id="Rectangle_3000" data-name="Rectangle 3000" width="12.92" height="0.743" transform="matrix(0.5, -0.866, 0.866, 0.5, 165.971, 82.313)" fill="#0091ff"/>
        <path id="Path_32579" data-name="Path 32579" d="M333.43,126.35l-51.7,23.513h20.019L233.26,268.4h36.195l68.487-118.539h20.019Z" transform="translate(-140.145 -126.35)" fill="#0091ff"/>
        <path id="Path_32580" data-name="Path 32580" d="M260.956,302.725H224.761L200.14,260.1h36.188Z" transform="translate(-131.645 -160.674)" fill="#0091ff"/>
        <path id="Path_32581" data-name="Path 32581" d="M260.956,302.725H224.761L200.14,260.1h36.188Z" transform="translate(-131.645 -160.674)" opacity="0.3"/>
        <path id="Path_32582" data-name="Path 32582" d="M212.689,260.1h-36.2L108,378.646h36.195Z" transform="translate(-108 -160.674)" fill="#0091ff"/>
      </g>
    </g>
  </g>
</svg>
