<svg xmlns="http://www.w3.org/2000/svg" width="345" height="307" viewBox="0 0 345 307">
  <g id="Group_1767" data-name="Group 1767" transform="translate(-17703 -5993)">
    <rect id="Rectangle_2933" data-name="Rectangle 2933" width="345" height="307" transform="translate(17703 5993)" fill="#fff" opacity="0"/>
    <g id="Group_1685" data-name="Group 1685" transform="translate(-394 12.188)">
      <g id="Mobile_feed-pana" data-name="Mobile feed-pana" transform="translate(18095.496 5972.138)">
        <g id="freepik--background-complete--inject-25" transform="translate(77.463 38.718)">
          <path id="Path_32583" data-name="Path 32583" d="M222.5,64.147a8.539,8.539,0,0,0,2.755-8.928c-1.275-4.534-5.739-7.257-9.974-6.084a8.279,8.279,0,0,0-5.427,10.337,8.5,8.5,0,0,0,7.053,6.275c-11.332,5.1-7.181,17.818-7.181,17.818L237.743,75.8S234.726,62.623,222.5,64.147Z" transform="translate(-139.446 -48.863)" fill="#ebebeb"/>
          <path id="Path_32836" data-name="Path 32836" d="M222.5,64.147a8.539,8.539,0,0,0,2.755-8.928c-1.275-4.534-5.739-7.257-9.974-6.084a8.279,8.279,0,0,0-5.427,10.337,8.5,8.5,0,0,0,7.053,6.275c-11.332,5.1-7.181,17.818-7.181,17.818L237.743,75.8S234.726,62.623,222.5,64.147Z" transform="translate(-215.327 -91.013) rotate(17)" fill="#ebebeb"/>
          <rect id="Rectangle_3001" data-name="Rectangle 3001" width="14.195" height="5.28" transform="translate(171.941 84.971) rotate(-79.33)" fill="#e0e0e0"/>
          <rect id="Rectangle_3002" data-name="Rectangle 3002" width="14.195" height="5.28" transform="translate(173.344 85.235) rotate(-79.33)" fill="#ebebeb"/>
          <path id="Path_32584" data-name="Path 32584" d="M377.3,165.838a1.186,1.186,0,1,0,.5-.765A1.192,1.192,0,0,0,377.3,165.838Z" transform="translate(-200.417 -90.89)" fill="#fff"/>
          <path id="Path_32585" data-name="Path 32585" d="M373.06,163.51a3.762,3.762,0,0,1,.606,1.1,3.545,3.545,0,0,1,.408,1.18,3.763,3.763,0,0,1-.606-1.1,3.545,3.545,0,0,1-.408-1.18Z" transform="translate(-198.889 -90.398)" fill="#ebebeb"/>
          <path id="Path_32586" data-name="Path 32586" d="M372.6,165.93a3.761,3.761,0,0,1,.606,1.1,3.825,3.825,0,0,1,.414,1.18,3.6,3.6,0,0,1-.606-1.1A3.828,3.828,0,0,1,372.6,165.93Z" transform="translate(-198.722 -91.275)" fill="#ebebeb"/>
          <path id="Path_32587" data-name="Path 32587" d="M372.14,168.35a3.694,3.694,0,0,1,.638,1.1,3.546,3.546,0,0,1,.408,1.18,3.762,3.762,0,0,1-.606-1.1A3.828,3.828,0,0,1,372.14,168.35Z" transform="translate(-198.556 -92.152)" fill="#ebebeb"/>
          <path id="Path_32588" data-name="Path 32588" d="M371.69,170.77a3.76,3.76,0,0,1,.606,1.1,3.827,3.827,0,0,1,.415,1.18,3.69,3.69,0,0,1-.638-1.1,3.544,3.544,0,0,1-.383-1.18Z" transform="translate(-198.393 -93.029)" fill="#ebebeb"/>
          <path id="Path_32589" data-name="Path 32589" d="M371.23,173.19a3.6,3.6,0,0,1,.606,1.1,3.826,3.826,0,0,1,.415,1.18,3.763,3.763,0,0,1-.606-1.1A3.826,3.826,0,0,1,371.23,173.19Z" transform="translate(-198.226 -93.905)" fill="#ebebeb"/>
          <path id="Path_32590" data-name="Path 32590" d="M370.78,175.61a3.761,3.761,0,0,1,.638,1.1,3.545,3.545,0,0,1,.408,1.18,3.762,3.762,0,0,1-.606-1.1,3.546,3.546,0,0,1-.44-1.18Z" transform="translate(-198.063 -94.782)" fill="#ebebeb"/>
          <path id="Path_32591" data-name="Path 32591" d="M370.32,178a3.761,3.761,0,0,1,.606,1.1,3.826,3.826,0,0,1,.415,1.18,3.6,3.6,0,0,1-.606-1.1A3.826,3.826,0,0,1,370.32,178Z" transform="translate(-197.896 -95.648)" fill="#ebebeb"/>
          <path id="Path_32592" data-name="Path 32592" d="M373.48,161.38a3.763,3.763,0,0,1,.606,1.1,3.827,3.827,0,0,1,.414,1.18,3.6,3.6,0,0,1-.606-1.1A3.826,3.826,0,0,1,373.48,161.38Z" transform="translate(-199.041 -89.627)" fill="#ebebeb"/>
          <path id="Path_32593" data-name="Path 32593" d="M374.521,160.38a1.562,1.562,0,0,1,.4.638c.166.383.261.689.2.714s-.23-.255-.4-.638S374.463,160.406,374.521,160.38Z" transform="translate(-199.412 -89.264)" fill="#ebebeb"/>
          <path id="Path_32594" data-name="Path 32594" d="M356.332,165.418l2.041-12.378s-2.64-1.052-4.387-5.242c-1.154-2.774-.064-5.28-.172-6.422-.064-.7-1.652-.861-2.353-.906a2.7,2.7,0,0,0-2.442,1.052c-1.193,1.747-.886,6.517-.886,6.517s.338,1.02-.963.778l-4.623-.874a2.551,2.551,0,0,0-1.76.281,1.913,1.913,0,0,0-.982,1.5c-.2,1.792.58,2.755.517,3.125a3.469,3.469,0,0,0-.536,2.06c.172,1.135.421,1.084.325,1.594a8.4,8.4,0,0,0-.07,2.672,3.826,3.826,0,0,0,.472,1.275,5.664,5.664,0,0,0-.172,2.7c.446,1.365,3.348,2.761,4.719,2.423.638-.159,3.52-.3,4.878-.376S355.216,164.583,356.332,165.418Z" transform="translate(-186.823 -82.046)" fill="#e0e0e0"/>
          <path id="Path_32595" data-name="Path 32595" d="M359.069,166.055l2.353-12.467s-2.64-1.052-4.387-5.242a21.172,21.172,0,0,1-1.613-6.045,1.441,1.441,0,0,0-1.314-1.32,2.2,2.2,0,0,0-2.136,1.008c-1.193,1.741-.791,6.6-.791,6.6s.338,1.02-.957.778l-4.63-.874a2.6,2.6,0,0,0-1.76.281,1.913,1.913,0,0,0-.982,1.511c-.2,1.786.587,2.749.517,3.118a3.422,3.422,0,0,0-.536,2.06c.172,1.135.421,1.084.325,1.594a8.437,8.437,0,0,0-.07,2.678,3.827,3.827,0,0,0,.472,1.275,6.524,6.524,0,0,0-.172,2.7c.281,1.059,2.13,1.913,2.78,2.06s5.459.064,6.817,0S357.934,165.219,359.069,166.055Z" transform="translate(-187.928 -82.23)" fill="#ebebeb"/>
          <path id="Path_32596" data-name="Path 32596" d="M353,148.32a8.033,8.033,0,0,1,.976,1.32,8.8,8.8,0,0,1,.88,1.384,4.917,4.917,0,0,1-1.052-1.275A5.566,5.566,0,0,1,353,148.32Z" transform="translate(-191.622 -84.895)" fill="#ebebeb"/>
          <path id="Path_32597" data-name="Path 32597" d="M353.05,145.63a9.053,9.053,0,0,1,.944,1.154,4.911,4.911,0,0,1,.848,1.231,5.741,5.741,0,0,1-1.014-1.1A3.762,3.762,0,0,1,353.05,145.63Z" transform="translate(-191.64 -83.921)" fill="#ebebeb"/>
          <path id="Path_32598" data-name="Path 32598" d="M353.7,143.309c.057-.032.351.421.8.9a2.722,2.722,0,0,1,.714.988,5.1,5.1,0,0,1-.874-.842A2.188,2.188,0,0,1,353.7,143.309Z" transform="translate(-191.875 -83.079)" fill="#ebebeb"/>
          <path id="Path_32599" data-name="Path 32599" d="M354.866,141.489c.045-.032.332.249.638.638s.523.727.478.759-.332-.242-.638-.638S354.815,141.527,354.866,141.489Z" transform="translate(-192.295 -82.419)" fill="#ebebeb"/>
          <path id="Path_32600" data-name="Path 32600" d="M356.556,140.605c.038-.045.242.089.453.287s.344.4.3.446-.242-.089-.453-.293S356.518,140.65,356.556,140.605Z" transform="translate(-192.907 -82.097)" fill="#ebebeb"/>
          <path id="Path_32601" data-name="Path 32601" d="M352.867,151.868c.045-.038.351.261.676.638s.555.765.5.8-.344-.261-.67-.67S352.822,151.906,352.867,151.868Z" transform="translate(-191.571 -86.179)" fill="#ebebeb"/>
          <path id="Path_32602" data-name="Path 32602" d="M339.77,156.46a7.174,7.174,0,0,1,1.314,1.167,7.653,7.653,0,0,1,1.161,1.307,7.013,7.013,0,0,1-1.314-1.161A7.277,7.277,0,0,1,339.77,156.46Z" transform="translate(-186.828 -87.844)" fill="#ebebeb"/>
          <path id="Path_32603" data-name="Path 32603" d="M340.51,153.167c.045-.045.408.255.81.638s.7.772.638.816-.408-.255-.81-.638a2.749,2.749,0,0,1-.638-.816Z" transform="translate(-187.096 -86.65)" fill="#ebebeb"/>
          <path id="Path_32604" data-name="Path 32604" d="M340,161.41a3.424,3.424,0,0,1,1.027.8,3.259,3.259,0,0,1,.8,1.027,5.565,5.565,0,0,1-.95-.874A5.31,5.31,0,0,1,340,161.41Z" transform="translate(-186.912 -89.638)" fill="#ebebeb"/>
          <path id="Path_32605" data-name="Path 32605" d="M340.34,165.38a3.953,3.953,0,0,1,.944.874,4.1,4.1,0,0,1,.784,1.014,3.953,3.953,0,0,1-.944-.874A3.825,3.825,0,0,1,340.34,165.38Z" transform="translate(-187.035 -91.076)" fill="#ebebeb"/>
          <path id="Path_32606" data-name="Path 32606" d="M340.35,170a7.534,7.534,0,0,1,1.059,1.046,7.889,7.889,0,0,1,.995,1.1,4.1,4.1,0,0,1-1.148-.957A4.183,4.183,0,0,1,340.35,170Z" transform="translate(-187.039 -92.75)" fill="#ebebeb"/>
          <path id="Path_32607" data-name="Path 32607" d="M340.57,173.92a33.459,33.459,0,0,1,2.4,2.513,5.453,5.453,0,0,1-1.32-1.141A5.638,5.638,0,0,1,340.57,173.92Z" transform="translate(-187.118 -94.17)" fill="#ebebeb"/>
          <path id="Path_32608" data-name="Path 32608" d="M402.575,323.532a16.267,16.267,0,0,0-10.095-1.224,8.338,8.338,0,0,0-4.987,2.226c-1.244,1.377-1.486,3.826-.051,4.974a4.738,4.738,0,0,0,3.144.8c2.666,0,5.625-.5,7.761,1.11,1.212.912,2.022,2.436,3.476,2.889a3.45,3.45,0,0,0,3.788-1.684,5.886,5.886,0,0,0,.427-4.336,6.619,6.619,0,0,0-3.463-4.751Z" transform="translate(-203.744 -147.825)" fill="#ebebeb"/>
          <path id="Path_32609" data-name="Path 32609" d="M415.635,287.284c-1.881,2.685-5.529,1.8-7.219.159s-2.411-4.011-3.061-6.269c-1.486-5.172-2.984-10.592-1.881-15.86A8.839,8.839,0,0,1,405.5,261a4.592,4.592,0,0,1,4.362-1.448c1.837.485,2.978,2.289,3.826,4a37.785,37.785,0,0,1,3.737,16.217c0,2.615-.3,5.35-1.773,7.506" transform="translate(-209.77 -125.161)" fill="#ebebeb"/>
          <path id="Path_32610" data-name="Path 32610" d="M429.716,296.034a9.777,9.777,0,0,1-1.518-8.979,17.324,17.324,0,0,1,5.319-7.716,28.66,28.66,0,0,1,9.521-5.618,10.135,10.135,0,0,1,4.285-.727,4.5,4.5,0,0,1,3.6,2.175c1,1.913.038,4.228-1,6.122a72.256,72.256,0,0,1-6.256,9.521c-1.875,2.417-4.018,4.8-6.875,5.9s-5.829.963-7.34-1.02" transform="translate(-218.698 -130.059)" fill="#ebebeb"/>
          <path id="Path_32611" data-name="Path 32611" d="M415.037,352.524a5.44,5.44,0,0,1-.172-1.218c-.089-.886-.191-2-.325-3.329a47.688,47.688,0,0,0-.746-4.878,37.852,37.852,0,0,0-1.773-5.739,21.351,21.351,0,0,0-2.94-5.21,10.963,10.963,0,0,0-3.718-3.093,10.584,10.584,0,0,0-3.131-.976,5.933,5.933,0,0,1-1.212-.172,5.138,5.138,0,0,1,1.237,0,9.528,9.528,0,0,1,3.265.848,10.886,10.886,0,0,1,3.916,3.118,20.68,20.68,0,0,1,3.048,5.312,35.256,35.256,0,0,1,1.76,5.854,40.63,40.63,0,0,1,.638,4.936c.1,1.416.147,2.551.166,3.348a6.428,6.428,0,0,1-.013,1.2Z" transform="translate(-209.019 -149.945)" fill="#e0e0e0"/>
          <path id="Path_32612" data-name="Path 32612" d="M419.064,331.284a2.007,2.007,0,0,1-.032-.561V329.1c0-1.4,0-3.431-.07-5.937-.121-5.019-.555-10.414-1.39-18.022-.791-7.155-1.849-15.484-2.965-20.9-.242-1.231-.485-2.34-.714-3.31s-.4-1.811-.58-2.487-.274-1.161-.376-1.575a1.99,1.99,0,0,1-.1-.555,2.551,2.551,0,0,1,.191.529c.128.408.281.918.472,1.55s.421,1.505.638,2.474.523,2.073.784,3.3a183.085,183.085,0,0,1,3.118,19.367c.842,7.652,1.218,14.565,1.275,19.6,0,2.513,0,4.547-.089,5.95-.038.638-.07,1.193-.1,1.613A2.691,2.691,0,0,1,419.064,331.284Z" transform="translate(-213.301 -131.268)" fill="#e0e0e0"/>
          <path id="Path_32613" data-name="Path 32613" d="M422.523,320.221a11.848,11.848,0,0,1,0-1.69c.064-1.084.21-2.653.517-4.579a60.234,60.234,0,0,1,1.492-6.664,54.31,54.31,0,0,1,2.787-7.888,41.978,41.978,0,0,1,8.188-12.754,19.969,19.969,0,0,1,1.913-1.792c.293-.249.555-.5.823-.7l.746-.517a10.87,10.87,0,0,1,1.422-.912,51,51,0,0,0-4.662,4.158,44.41,44.41,0,0,0-7.984,12.7,62.538,62.538,0,0,0-2.8,7.818c-.733,2.449-1.218,4.7-1.588,6.6s-.548,3.456-.67,4.528A10.383,10.383,0,0,1,422.523,320.221Z" transform="translate(-216.798 -133.591)" fill="#e0e0e0"/>
          <path id="Path_32614" data-name="Path 32614" d="M427.9,378.56l-1.339,18.379H402.939L401.6,378.56Z" transform="translate(-209.229 -168.309)" fill="#e0e0e0"/>
          <rect id="Rectangle_3003" data-name="Rectangle 3003" width="31.401" height="7.244" transform="translate(189.552 203.006)" fill="#e0e0e0"/>
          <path id="Path_32615" data-name="Path 32615" d="M428.878,406.28v2.009H398V406.28Z" transform="translate(-207.925 -178.352)" fill="#ebebeb"/>
          <path id="Path_32616" data-name="Path 32616" d="M426.595,412.963l1.441-3.533H399.76l1.684,3.533Z" transform="translate(-208.562 -179.493)" fill="#e0e0e0"/>
          <path id="Path_32617" data-name="Path 32617" d="M402.29,386.536a.954.954,0,0,0,.108.166l.351.472,1.377,1.76.064.077.057-.083c.867-1.193,2.022-2.793,3.38-4.674h-.191l3.322,4.713.108.147.115-.14,3.947-4.694h-.23l.217.268,3.533,4.426.115.147.108-.153L422,384.26h-.191c1.639,1.868,3.029,3.456,4.1,4.668l.07.089.057-.1,1.275-2.155c.134-.236.242-.427.332-.574a.818.818,0,0,0,.1-.21s-.051.064-.134.185l-.363.555c-.332.51-.784,1.224-1.352,2.117h.134l-4.037-4.725-.115-.128-.089.128-3.361,4.687h.261l-3.52-4.426c-.07-.1-.147-.191-.217-.274l-.108-.14-.115.14-3.941,4.7h.223l-3.361-4.694-.1-.134-.1.134-3.31,4.725h.121l-1.435-1.715-.383-.446A.852.852,0,0,0,402.29,386.536Z" transform="translate(-209.479 -170.266)" fill="#f5f5f5"/>
          <path id="Path_32618" data-name="Path 32618" d="M401.09,378.287c0,.077,5.911.147,13.213.147s13.213-.07,13.213-.147-5.912-.147-13.213-.147S401.09,378.2,401.09,378.287Z" transform="translate(-209.044 -168.157)" fill="#f5f5f5"/>
          <path id="Path_32619" data-name="Path 32619" d="M399.21,409.657c0,.083,6.435.147,14.368.147s14.361-.064,14.361-.147-6.428-.147-14.361-.147S399.21,409.574,399.21,409.657Z" transform="translate(-208.363 -179.522)" fill="#f5f5f5"/>
          <path id="Path_32620" data-name="Path 32620" d="M99.94,416.15c16.421,19.38,40.852,31.095,66.016,34.564s48.032,2.136,71.838-6.709c6.575-2.436,14.667-7.755,21.6-12.569a28.505,28.505,0,0,0,11.555-17.046Z" transform="translate(-99.94 -181.29)" fill="#ebebeb"/>
        </g>
        <g id="freepik--Floor--inject-25" transform="translate(37.9 272.041)">
          <path id="Path_32621" data-name="Path 32621" d="M305.865,414.906c0,.1-59.989.166-133.976.166S37.9,414.982,37.9,414.906s59.945-.166,133.989-.166S305.865,414.8,305.865,414.906Z" transform="translate(-37.9 -414.74)" fill="#263238"/>
        </g>
        <g id="freepik--Icons--inject-25" transform="translate(245.228 69.179)">
          <rect id="Rectangle_3014" data-name="Rectangle 3014" width="8.749" height="23.515" transform="translate(2.655 83.656) rotate(-16.809)" fill="#0091ff"/>
          <g id="Group_1680" data-name="Group 1680" transform="translate(2.655 81.126)" opacity="0.3">
            <rect id="Rectangle_3015" data-name="Rectangle 3015" width="8.749" height="23.515" transform="translate(0 2.53) rotate(-16.809)"/>
          </g>
          <rect id="Rectangle_3016" data-name="Rectangle 3016" width="8.724" height="23.449" transform="translate(0 82.698) rotate(-17.12)" fill="#0091ff"/>
          <path id="Path_32701" data-name="Path 32701" d="M372.615,231.224a1.971,1.971,0,1,1-2.461-1.275A1.971,1.971,0,0,1,372.615,231.224Z" transform="translate(-365.1 -144.897)" fill="#fff"/>
          <path id="Path_32702" data-name="Path 32702" d="M380.53,226.46a7.444,7.444,0,0,1-.485,2,7.347,7.347,0,0,1-.765,1.913,7.408,7.408,0,0,1,.485-2.009A7.237,7.237,0,0,1,380.53,226.46Z" transform="translate(-368.907 -143.666)" fill="#0091ff"/>
          <path id="Path_32703" data-name="Path 32703" d="M381.715,230.34a14.5,14.5,0,0,1-1.275,3.928A14.5,14.5,0,0,1,381.715,230.34Z" transform="translate(-369.328 -145.072)" fill="#0091ff"/>
          <path id="Path_32704" data-name="Path 32704" d="M382.915,234.23a14.974,14.974,0,0,1-1.275,3.922,7.441,7.441,0,0,1,.485-2,7.345,7.345,0,0,1,.791-1.919Z" transform="translate(-369.763 -146.481)" fill="#0091ff"/>
          <path id="Path_32705" data-name="Path 32705" d="M384.124,238.12a7.341,7.341,0,0,1-.485,2,7.473,7.473,0,0,1-.759,1.913,7.39,7.39,0,0,1,.485-2,7.475,7.475,0,0,1,.759-1.913Z" transform="translate(-370.212 -147.89)" fill="#0091ff"/>
          <path id="Path_32706" data-name="Path 32706" d="M385.29,242a7.443,7.443,0,0,1-.485,2,7.348,7.348,0,0,1-.765,1.913,14.973,14.973,0,0,1,1.275-3.922Z" transform="translate(-370.632 -149.292)" fill="#0091ff"/>
          <path id="Path_32707" data-name="Path 32707" d="M386.505,245.89a14.5,14.5,0,0,1-1.275,3.928A14.5,14.5,0,0,1,386.505,245.89Z" transform="translate(-371.063 -150.705)" fill="#0091ff"/>
          <path id="Path_32708" data-name="Path 32708" d="M387.72,249.78a7.41,7.41,0,0,1-.485,2.009,7.235,7.235,0,0,1-.765,1.913,7.443,7.443,0,0,1,.485-2A7.344,7.344,0,0,1,387.72,249.78Z" transform="translate(-371.512 -152.115)" fill="#0091ff"/>
          <path id="Path_32709" data-name="Path 32709" d="M379.425,223a14.553,14.553,0,0,1-1.275,3.922A14.369,14.369,0,0,1,379.425,223Z" transform="translate(-368.498 -142.412)" fill="#0091ff"/>
          <path id="Path_32710" data-name="Path 32710" d="M377.819,221.589a2.659,2.659,0,0,1-.23,1.205c-.2.638-.434,1.141-.51,1.116a2.729,2.729,0,0,1,.236-1.205C377.519,222.068,377.742,221.564,377.819,221.589Z" transform="translate(-368.11 -141.901)" fill="#0091ff"/>
          <path id="Path_32711" data-name="Path 32711" d="M393.01,227.681l-5.65-19.941s4.145-2.213,6.224-9.419c1.384-4.764-.874-8.673-.912-10.567,0-1.161,2.551-1.722,3.692-1.913a4.528,4.528,0,0,1,4.215,1.275c2.283,2.646,2.659,10.535,2.659,10.535s-.363,1.741,1.722,1.1l7.436-2.289a4.241,4.241,0,0,1,2.94.128,3.15,3.15,0,0,1,1.913,2.3c.638,2.9-.453,4.623-.268,5.216s1.326,1.384,1.275,3.284-.485,1.862-.236,2.678a14.03,14.03,0,0,1,.638,4.375,6.434,6.434,0,0,1-.542,2.206s1.148,2.627.784,4.407c-.478,2.328-4.981,5.159-7.3,4.853-1.078-.14-5.829.166-8.073.287S394.719,226.081,393.01,227.681Z" transform="translate(-371.835 -128.913)" fill="#0091ff"/>
          <g id="Group_1681" data-name="Group 1681" transform="translate(15.525 56.825)" opacity="0.3">
            <path id="Path_32712" data-name="Path 32712" d="M393.01,227.681l-5.65-19.941s4.145-2.213,6.224-9.419c1.384-4.764-.874-8.673-.912-10.567,0-1.161,2.551-1.722,3.692-1.913a4.528,4.528,0,0,1,4.215,1.275c2.283,2.646,2.659,10.535,2.659,10.535s-.363,1.741,1.722,1.1l7.436-2.289a4.241,4.241,0,0,1,2.94.128,3.15,3.15,0,0,1,1.913,2.3c.638,2.9-.453,4.623-.268,5.216s1.326,1.384,1.275,3.284-.485,1.862-.236,2.678a14.03,14.03,0,0,1,.638,4.375,6.434,6.434,0,0,1-.542,2.206s1.148,2.627.784,4.407c-.478,2.328-4.981,5.159-7.3,4.853-1.078-.14-5.829.166-8.073.287S394.719,226.081,393.01,227.681Z" transform="translate(-387.36 -185.738)"/>
          </g>
          <path id="Path_32713" data-name="Path 32713" d="M388.643,229.2,382.47,209.18s4.151-2.219,6.23-9.419a34.927,34.927,0,0,0,1.524-10.2,2.385,2.385,0,0,1,1.913-2.4,3.622,3.622,0,0,1,3.686,1.275c2.283,2.64,2.519,10.688,2.519,10.688s-.357,1.741,1.728,1.1l7.436-2.3a4.26,4.26,0,0,1,2.933.134,3.144,3.144,0,0,1,1.913,2.289c.638,2.9-.453,4.623-.268,5.223s1.32,1.384,1.275,3.278-.485,1.862-.236,2.685a13.807,13.807,0,0,1,.638,4.375,6.32,6.32,0,0,1-.542,2.206,10.765,10.765,0,0,1,.791,4.4c-.261,1.792-3.138,3.578-4.183,3.9s-8.928,1.129-11.192,1.275S390.358,227.616,388.643,229.2Z" transform="translate(-370.063 -129.389)" fill="#0091ff"/>
          <path id="Path_32714" data-name="Path 32714" d="M409.972,197.78a9.743,9.743,0,0,1-1.071,2.5,10.061,10.061,0,0,1-1.46,2.289,17.752,17.752,0,0,1,1.205-2.423,18.492,18.492,0,0,1,1.326-2.366Z" transform="translate(-379.11 -133.275)" fill="#0091ff"/>
          <path id="Path_32715" data-name="Path 32715" d="M409.33,193.39a6.952,6.952,0,0,1-1.059,2.238,11.613,11.613,0,0,1-1.441,2.009,9.463,9.463,0,0,1,1.192-2.162,23.361,23.361,0,0,1,1.307-2.085Z" transform="translate(-378.889 -131.685)" fill="#0091ff"/>
          <path id="Path_32716" data-name="Path 32716" d="M408.032,189.7a4.037,4.037,0,0,1-.886,1.817,11.113,11.113,0,0,1-1.275,1.569,5.1,5.1,0,0,1,1.02-1.741C407.56,190.471,407.949,189.661,408.032,189.7Z" transform="translate(-378.541 -130.347)" fill="#0091ff"/>
          <path id="Path_32717" data-name="Path 32717" d="M406.12,186.94a3.869,3.869,0,0,1-.638,1.32c-.434.689-.842,1.212-.912,1.167a7.774,7.774,0,0,1,1.575-2.487Z" transform="translate(-378.07 -129.348)" fill="#0091ff"/>
          <path id="Path_32718" data-name="Path 32718" d="M403.445,185.8c.064.057-.134.4-.44.765s-.6.638-.638.58.134-.389.44-.765S403.406,185.745,403.445,185.8Z" transform="translate(-377.27 -128.931)" fill="#0091ff"/>
          <path id="Path_32719" data-name="Path 32719" d="M411.264,203.6a4.215,4.215,0,0,1-.708,1.4,4.464,4.464,0,0,1-.957,1.237,4.343,4.343,0,0,1,.708-1.4A4.183,4.183,0,0,1,411.264,203.6Z" transform="translate(-379.892 -135.384)" fill="#0091ff"/>
          <path id="Path_32720" data-name="Path 32720" d="M432.517,208.7a28.38,28.38,0,0,1-3.6,4.521,15.352,15.352,0,0,1,1.684-2.347A14.525,14.525,0,0,1,432.517,208.7Z" transform="translate(-386.892 -137.232)" fill="#0091ff"/>
          <path id="Path_32721" data-name="Path 32721" d="M431.523,203.43a5.515,5.515,0,0,1-.957,1.441,5.247,5.247,0,0,1-1.186,1.275,5.146,5.146,0,0,1,.957-1.441A5.408,5.408,0,0,1,431.523,203.43Z" transform="translate(-387.058 -135.322)" fill="#0091ff"/>
          <path id="Path_32722" data-name="Path 32722" d="M433.617,216.87a10.878,10.878,0,0,1-1.275,1.7,11.345,11.345,0,0,1-1.371,1.633,6.173,6.173,0,0,1,1.141-1.811,6.238,6.238,0,0,1,1.5-1.518Z" transform="translate(-387.634 -140.191)" fill="#0091ff"/>
          <path id="Path_32723" data-name="Path 32723" d="M433.877,223.45a15.849,15.849,0,0,1-2.487,3.418,7.835,7.835,0,0,1,1.122-1.8,7.449,7.449,0,0,1,1.365-1.62Z" transform="translate(-387.787 -142.575)" fill="#0091ff"/>
          <path id="Path_32724" data-name="Path 32724" d="M434.449,231a7.849,7.849,0,0,1-1.275,2.111,8.029,8.029,0,0,1-1.684,1.811,15.569,15.569,0,0,1,1.454-1.99A17.047,17.047,0,0,1,434.449,231Z" transform="translate(-387.823 -145.311)" fill="#0091ff"/>
          <path id="Path_32725" data-name="Path 32725" d="M434.519,237.51a16.823,16.823,0,0,1-3.469,4.566,23.549,23.549,0,0,1,1.7-2.309,22.007,22.007,0,0,1,1.766-2.257Z" transform="translate(-387.663 -147.669)" fill="#0091ff"/>
          <rect id="Rectangle_3017" data-name="Rectangle 3017" width="16.695" height="6.211" transform="translate(44.025 24.97) rotate(-63.09)" fill="#263238"/>
          <rect id="Rectangle_3018" data-name="Rectangle 3018" width="16.695" height="6.211" transform="translate(45.521 25.725) rotate(-63.09)" fill="#455a64"/>
          <path id="Path_32726" data-name="Path 32726" d="M439.8,132.241a1.4,1.4,0,1,1-.087,1.092,1.4,1.4,0,0,1,.087-1.092Z" transform="translate(-390.776 -109.257)" fill="#fff"/>
          <path id="Path_32727" data-name="Path 32727" d="M433.87,131.51a5.282,5.282,0,0,1,1.243-.784,4.95,4.95,0,0,1,1.339-.606,5.279,5.279,0,0,1-1.243.784A5.408,5.408,0,0,1,433.87,131.51Z" transform="translate(-388.685 -108.763)" fill="#455a64"/>
          <path id="Path_32728" data-name="Path 32728" d="M435.18,128.93a5.422,5.422,0,0,1,1.243-.791,5.045,5.045,0,0,1,1.339-.6,5.281,5.281,0,0,1-1.275.784A5.407,5.407,0,0,1,435.18,128.93Z" transform="translate(-389.16 -107.828)" fill="#455a64"/>
          <path id="Path_32729" data-name="Path 32729" d="M436.49,126.322a12.487,12.487,0,0,1,2.583-1.422,14.047,14.047,0,0,1-2.583,1.422Z" transform="translate(-389.634 -106.872)" fill="#455a64"/>
          <path id="Path_32730" data-name="Path 32730" d="M437.8,123.76a5.28,5.28,0,0,1,1.243-.784,5.409,5.409,0,0,1,1.339-.606,5.419,5.419,0,0,1-1.275.791A5.236,5.236,0,0,1,437.8,123.76Z" transform="translate(-390.109 -105.955)" fill="#455a64"/>
          <path id="Path_32731" data-name="Path 32731" d="M439.11,121.21a5.28,5.28,0,0,1,1.243-.784,5.134,5.134,0,0,1,1.339-.606A10.668,10.668,0,0,1,439.11,121.21Z" transform="translate(-390.583 -105.031)" fill="#455a64"/>
          <path id="Path_32732" data-name="Path 32732" d="M440.42,118.6a5.42,5.42,0,0,1,1.244-.791,5.237,5.237,0,0,1,1.339-.6,5.281,5.281,0,0,1-1.275.784A5.2,5.2,0,0,1,440.42,118.6Z" transform="translate(-391.058 -104.085)" fill="#455a64"/>
          <path id="Path_32733" data-name="Path 32733" d="M441.73,116.01a5.535,5.535,0,0,1,1.244-.784,5.739,5.739,0,0,1,1.339-.606,5.222,5.222,0,0,1-1.237.791,5.1,5.1,0,0,1-1.346.6Z" transform="translate(-391.533 -103.147)" fill="#455a64"/>
          <path id="Path_32734" data-name="Path 32734" d="M432.74,133.8a10.472,10.472,0,0,1,2.551-1.39,5.15,5.15,0,0,1-1.237.784A5.407,5.407,0,0,1,432.74,133.8Z" transform="translate(-388.276 -109.592)" fill="#455a64"/>
          <path id="Path_32735" data-name="Path 32735" d="M433,135.8a2.251,2.251,0,0,1,.721-.5c.427-.23.784-.37.81-.319s-.293.274-.714.5A1.972,1.972,0,0,1,433,135.8Z" transform="translate(-388.37 -110.517)" fill="#455a64"/>
          <path id="Path_32736" data-name="Path 32736" d="M423.24,106.47l-6.977,13s-3.189-.918-7.85,1.741c-3.061,1.754-3.826,4.872-4.764,5.861-.561.6-2.155-.389-2.844-.842a3.189,3.189,0,0,1-1.524-2.736c.14-2.481,3.826-6.709,3.826-6.709s1.046-.714-.338-1.416l-4.936-2.506a3.01,3.01,0,0,1-1.441-1.518,2.258,2.258,0,0,1,.166-2.117c1.1-1.8,2.519-2.143,2.717-2.551s0-1.358.982-2.3,1.173-.714,1.448-1.275a9.827,9.827,0,0,1,1.849-2.551,4.56,4.56,0,0,1,1.371-.861,6.674,6.674,0,0,1,1.779-2.646c1.4-.95,5.1-.172,6.135,1.129.485.606,3.067,2.8,4.273,3.826S421.582,106.431,423.24,106.47Z" transform="translate(-375.039 -96.629)" fill="#263238"/>
          <path id="Path_32737" data-name="Path 32737" d="M426.261,107.846l-6.753,13.3s-3.22-.918-7.85,1.735a24.826,24.826,0,0,0-5.841,4.464,1.7,1.7,0,0,1-2.168.281,2.551,2.551,0,0,1-1.275-2.462c.14-2.487,4-6.721,4-6.721s1.046-.714-.338-1.416l-4.968-2.487a3.01,3.01,0,0,1-1.435-1.524,2.238,2.238,0,0,1,.159-2.136c1.1-1.8,2.519-2.143,2.723-2.551s0-1.365.982-2.3,1.167-.708,1.441-1.275A10.089,10.089,0,0,1,406.8,102.2a4.464,4.464,0,0,1,1.365-.855A7.755,7.755,0,0,1,410,98.765c1.02-.784,3.373-.274,4.069.077s5.134,3.826,6.345,4.9S424.6,107.808,426.261,107.846Z" transform="translate(-376.211 -97.253)" fill="#455a64"/>
          <path id="Path_32738" data-name="Path 32738" d="M404.24,131.319a7.213,7.213,0,0,1,1.779-.746,7.309,7.309,0,0,1,1.913-.453,12.121,12.121,0,0,1-1.818.638A12.268,12.268,0,0,1,404.24,131.319Z" transform="translate(-377.95 -108.763)" fill="#455a64"/>
          <path id="Path_32739" data-name="Path 32739" d="M402.4,134.08a4.949,4.949,0,0,1,1.652-.638,8.239,8.239,0,0,1,1.735-.312,7.2,7.2,0,0,1-1.684.517A16.194,16.194,0,0,1,402.4,134.08Z" transform="translate(-377.284 -109.853)" fill="#455a64"/>
          <path id="Path_32740" data-name="Path 32740" d="M401.34,136.86a2.978,2.978,0,0,1,1.352-.491,8.289,8.289,0,0,1,1.422-.179,3.68,3.68,0,0,1-1.384.383A13.107,13.107,0,0,1,401.34,136.86Z" transform="translate(-376.9 -110.962)" fill="#455a64"/>
          <path id="Path_32741" data-name="Path 32741" d="M401.13,139.488a2.786,2.786,0,0,1,.995-.344,2.6,2.6,0,0,1,1.039-.147,2.653,2.653,0,0,1-.995.344A2.6,2.6,0,0,1,401.13,139.488Z" transform="translate(-376.824 -111.977)" fill="#455a64"/>
          <path id="Path_32742" data-name="Path 32742" d="M402.07,141.7c0-.057.268-.134.606-.172a1.345,1.345,0,0,1,.638.032,1.288,1.288,0,0,1-.606.172C402.363,141.773,402.076,141.76,402.07,141.7Z" transform="translate(-377.164 -112.891)" fill="#455a64"/>
          <path id="Path_32743" data-name="Path 32743" d="M406.71,128.371a3.074,3.074,0,0,1,1.052-.363,2.946,2.946,0,0,1,1.1-.159,3.24,3.24,0,0,1-1.052.363A3.112,3.112,0,0,1,406.71,128.371Z" transform="translate(-378.845 -107.938)" fill="#455a64"/>
          <path id="Path_32744" data-name="Path 32744" d="M397.79,114.694a10.2,10.2,0,0,1,2.028-.37,9.853,9.853,0,0,1,2.053-.166,10.2,10.2,0,0,1-2.028.37,10.357,10.357,0,0,1-2.053.166Z" transform="translate(-375.614 -102.979)" fill="#455a64"/>
          <path id="Path_32745" data-name="Path 32745" d="M396.12,118.412a7.167,7.167,0,0,1,2.43-.325,3.68,3.68,0,0,1-1.2.261A3.826,3.826,0,0,1,396.12,118.412Z" transform="translate(-375.008 -104.401)" fill="#455a64"/>
          <path id="Path_32746" data-name="Path 32746" d="M401.55,110.319a7.559,7.559,0,0,1,1.5-.236,8.358,8.358,0,0,1,1.5-.153,4.3,4.3,0,0,1-1.479.363,4.464,4.464,0,0,1-1.524.026Z" transform="translate(-376.976 -101.448)" fill="#455a64"/>
          <path id="Path_32747" data-name="Path 32747" d="M404.72,106.8a10.694,10.694,0,0,1,2.965-.517,5.9,5.9,0,0,1-1.467.357A5.382,5.382,0,0,1,404.72,106.8Z" transform="translate(-378.124 -100.126)" fill="#455a64"/>
          <path id="Path_32748" data-name="Path 32748" d="M408,102.489a8.571,8.571,0,0,1,3.456-.536q-1.718.332-3.456.536Z" transform="translate(-379.313 -98.554)" fill="#455a64"/>
          <path id="Path_32749" data-name="Path 32749" d="M411.06,98.935a7.225,7.225,0,0,1,2-.485,6.888,6.888,0,0,1,2.041-.134,17.454,17.454,0,0,1-2.015.338A16.45,16.45,0,0,1,411.06,98.935Z" transform="translate(-380.421 -97.232)" fill="#455a64"/>
        </g>
        <g id="freepik--Icons--inject-25-2" data-name="freepik--Icons--inject-25" transform="translate(48.155 55.179)">
          <rect id="Rectangle_3014-2" data-name="Rectangle 3014" width="8.749" height="23.515" transform="translate(2.655 83.656) rotate(-16.809)" fill="#0091ff"/>
          <g id="Group_1680-2" data-name="Group 1680" transform="translate(2.655 81.126)" opacity="0.3">
            <rect id="Rectangle_3015-2" data-name="Rectangle 3015" width="8.749" height="23.515" transform="translate(0 2.53) rotate(-16.809)"/>
          </g>
          <rect id="Rectangle_3016-2" data-name="Rectangle 3016" width="8.724" height="23.449" transform="translate(0 82.698) rotate(-17.12)" fill="#0091ff"/>
          <path id="Path_32701-2" data-name="Path 32701" d="M372.615,231.224a1.971,1.971,0,1,1-2.461-1.275A1.971,1.971,0,0,1,372.615,231.224Z" transform="translate(-365.1 -144.897)" fill="#fff"/>
          <path id="Path_32702-2" data-name="Path 32702" d="M380.53,226.46a7.444,7.444,0,0,1-.485,2,7.347,7.347,0,0,1-.765,1.913,7.408,7.408,0,0,1,.485-2.009A7.237,7.237,0,0,1,380.53,226.46Z" transform="translate(-368.907 -143.666)" fill="#0091ff"/>
          <path id="Path_32703-2" data-name="Path 32703" d="M381.715,230.34a14.5,14.5,0,0,1-1.275,3.928A14.5,14.5,0,0,1,381.715,230.34Z" transform="translate(-369.328 -145.072)" fill="#0091ff"/>
          <path id="Path_32704-2" data-name="Path 32704" d="M382.915,234.23a14.974,14.974,0,0,1-1.275,3.922,7.441,7.441,0,0,1,.485-2,7.345,7.345,0,0,1,.791-1.919Z" transform="translate(-369.763 -146.481)" fill="#0091ff"/>
          <path id="Path_32705-2" data-name="Path 32705" d="M384.124,238.12a7.341,7.341,0,0,1-.485,2,7.473,7.473,0,0,1-.759,1.913,7.39,7.39,0,0,1,.485-2,7.475,7.475,0,0,1,.759-1.913Z" transform="translate(-370.212 -147.89)" fill="#0091ff"/>
          <path id="Path_32706-2" data-name="Path 32706" d="M385.29,242a7.443,7.443,0,0,1-.485,2,7.348,7.348,0,0,1-.765,1.913,14.973,14.973,0,0,1,1.275-3.922Z" transform="translate(-370.632 -149.292)" fill="#0091ff"/>
          <path id="Path_32707-2" data-name="Path 32707" d="M386.505,245.89a14.5,14.5,0,0,1-1.275,3.928A14.5,14.5,0,0,1,386.505,245.89Z" transform="translate(-371.063 -150.705)" fill="#0091ff"/>
          <path id="Path_32708-2" data-name="Path 32708" d="M387.72,249.78a7.41,7.41,0,0,1-.485,2.009,7.235,7.235,0,0,1-.765,1.913,7.443,7.443,0,0,1,.485-2A7.344,7.344,0,0,1,387.72,249.78Z" transform="translate(-371.512 -152.115)" fill="#0091ff"/>
          <path id="Path_32709-2" data-name="Path 32709" d="M379.425,223a14.553,14.553,0,0,1-1.275,3.922A14.369,14.369,0,0,1,379.425,223Z" transform="translate(-368.498 -142.412)" fill="#0091ff"/>
          <path id="Path_32710-2" data-name="Path 32710" d="M377.819,221.589a2.659,2.659,0,0,1-.23,1.205c-.2.638-.434,1.141-.51,1.116a2.729,2.729,0,0,1,.236-1.205C377.519,222.068,377.742,221.564,377.819,221.589Z" transform="translate(-368.11 -141.901)" fill="#0091ff"/>
          <path id="Path_32711-2" data-name="Path 32711" d="M393.01,227.681l-5.65-19.941s4.145-2.213,6.224-9.419c1.384-4.764-.874-8.673-.912-10.567,0-1.161,2.551-1.722,3.692-1.913a4.528,4.528,0,0,1,4.215,1.275c2.283,2.646,2.659,10.535,2.659,10.535s-.363,1.741,1.722,1.1l7.436-2.289a4.241,4.241,0,0,1,2.94.128,3.15,3.15,0,0,1,1.913,2.3c.638,2.9-.453,4.623-.268,5.216s1.326,1.384,1.275,3.284-.485,1.862-.236,2.678a14.03,14.03,0,0,1,.638,4.375,6.434,6.434,0,0,1-.542,2.206s1.148,2.627.784,4.407c-.478,2.328-4.981,5.159-7.3,4.853-1.078-.14-5.829.166-8.073.287S394.719,226.081,393.01,227.681Z" transform="translate(-371.835 -128.913)" fill="#0091ff"/>
          <g id="Group_1681-2" data-name="Group 1681" transform="translate(15.525 56.825)" opacity="0.3">
            <path id="Path_32712-2" data-name="Path 32712" d="M393.01,227.681l-5.65-19.941s4.145-2.213,6.224-9.419c1.384-4.764-.874-8.673-.912-10.567,0-1.161,2.551-1.722,3.692-1.913a4.528,4.528,0,0,1,4.215,1.275c2.283,2.646,2.659,10.535,2.659,10.535s-.363,1.741,1.722,1.1l7.436-2.289a4.241,4.241,0,0,1,2.94.128,3.15,3.15,0,0,1,1.913,2.3c.638,2.9-.453,4.623-.268,5.216s1.326,1.384,1.275,3.284-.485,1.862-.236,2.678a14.03,14.03,0,0,1,.638,4.375,6.434,6.434,0,0,1-.542,2.206s1.148,2.627.784,4.407c-.478,2.328-4.981,5.159-7.3,4.853-1.078-.14-5.829.166-8.073.287S394.719,226.081,393.01,227.681Z" transform="translate(-387.36 -185.738)"/>
          </g>
          <path id="Path_32713-2" data-name="Path 32713" d="M388.643,229.2,382.47,209.18s4.151-2.219,6.23-9.419a34.927,34.927,0,0,0,1.524-10.2,2.385,2.385,0,0,1,1.913-2.4,3.622,3.622,0,0,1,3.686,1.275c2.283,2.64,2.519,10.688,2.519,10.688s-.357,1.741,1.728,1.1l7.436-2.3a4.26,4.26,0,0,1,2.933.134,3.144,3.144,0,0,1,1.913,2.289c.638,2.9-.453,4.623-.268,5.223s1.32,1.384,1.275,3.278-.485,1.862-.236,2.685a13.807,13.807,0,0,1,.638,4.375,6.32,6.32,0,0,1-.542,2.206,10.765,10.765,0,0,1,.791,4.4c-.261,1.792-3.138,3.578-4.183,3.9s-8.928,1.129-11.192,1.275S390.358,227.616,388.643,229.2Z" transform="translate(-370.063 -129.389)" fill="#0091ff"/>
          <path id="Path_32714-2" data-name="Path 32714" d="M409.972,197.78a9.743,9.743,0,0,1-1.071,2.5,10.061,10.061,0,0,1-1.46,2.289,17.752,17.752,0,0,1,1.205-2.423,18.492,18.492,0,0,1,1.326-2.366Z" transform="translate(-379.11 -133.275)" fill="#0091ff"/>
          <path id="Path_32715-2" data-name="Path 32715" d="M409.33,193.39a6.952,6.952,0,0,1-1.059,2.238,11.613,11.613,0,0,1-1.441,2.009,9.463,9.463,0,0,1,1.192-2.162,23.361,23.361,0,0,1,1.307-2.085Z" transform="translate(-378.889 -131.685)" fill="#0091ff"/>
          <path id="Path_32716-2" data-name="Path 32716" d="M408.032,189.7a4.037,4.037,0,0,1-.886,1.817,11.113,11.113,0,0,1-1.275,1.569,5.1,5.1,0,0,1,1.02-1.741C407.56,190.471,407.949,189.661,408.032,189.7Z" transform="translate(-378.541 -130.347)" fill="#0091ff"/>
          <path id="Path_32717-2" data-name="Path 32717" d="M406.12,186.94a3.869,3.869,0,0,1-.638,1.32c-.434.689-.842,1.212-.912,1.167a7.774,7.774,0,0,1,1.575-2.487Z" transform="translate(-378.07 -129.348)" fill="#0091ff"/>
          <path id="Path_32718-2" data-name="Path 32718" d="M403.445,185.8c.064.057-.134.4-.44.765s-.6.638-.638.58.134-.389.44-.765S403.406,185.745,403.445,185.8Z" transform="translate(-377.27 -128.931)" fill="#0091ff"/>
          <path id="Path_32719-2" data-name="Path 32719" d="M411.264,203.6a4.215,4.215,0,0,1-.708,1.4,4.464,4.464,0,0,1-.957,1.237,4.343,4.343,0,0,1,.708-1.4A4.183,4.183,0,0,1,411.264,203.6Z" transform="translate(-379.892 -135.384)" fill="#0091ff"/>
          <path id="Path_32720-2" data-name="Path 32720" d="M432.517,208.7a28.38,28.38,0,0,1-3.6,4.521,15.352,15.352,0,0,1,1.684-2.347A14.525,14.525,0,0,1,432.517,208.7Z" transform="translate(-386.892 -137.232)" fill="#0091ff"/>
          <path id="Path_32721-2" data-name="Path 32721" d="M431.523,203.43a5.515,5.515,0,0,1-.957,1.441,5.247,5.247,0,0,1-1.186,1.275,5.146,5.146,0,0,1,.957-1.441A5.408,5.408,0,0,1,431.523,203.43Z" transform="translate(-387.058 -135.322)" fill="#0091ff"/>
          <path id="Path_32722-2" data-name="Path 32722" d="M433.617,216.87a10.878,10.878,0,0,1-1.275,1.7,11.345,11.345,0,0,1-1.371,1.633,6.173,6.173,0,0,1,1.141-1.811,6.238,6.238,0,0,1,1.5-1.518Z" transform="translate(-387.634 -140.191)" fill="#0091ff"/>
          <path id="Path_32723-2" data-name="Path 32723" d="M433.877,223.45a15.849,15.849,0,0,1-2.487,3.418,7.835,7.835,0,0,1,1.122-1.8,7.449,7.449,0,0,1,1.365-1.62Z" transform="translate(-387.787 -142.575)" fill="#0091ff"/>
          <path id="Path_32724-2" data-name="Path 32724" d="M434.449,231a7.849,7.849,0,0,1-1.275,2.111,8.029,8.029,0,0,1-1.684,1.811,15.569,15.569,0,0,1,1.454-1.99A17.047,17.047,0,0,1,434.449,231Z" transform="translate(-387.823 -145.311)" fill="#0091ff"/>
          <path id="Path_32725-2" data-name="Path 32725" d="M434.519,237.51a16.823,16.823,0,0,1-3.469,4.566,23.549,23.549,0,0,1,1.7-2.309,22.007,22.007,0,0,1,1.766-2.257Z" transform="translate(-387.663 -147.669)" fill="#0091ff"/>
        </g>
        <g id="freepik--speech-bubble--inject-25" transform="translate(209.572 20.862)">
          <circle id="Ellipse_408" data-name="Ellipse 408" cx="25.757" cy="25.757" r="25.757" transform="translate(2.907 1.097) rotate(-1.22)" fill="#fff"/>
          <path id="Path_32750" data-name="Path 32750" d="M310.519,94.52a2.373,2.373,0,0,1,.753.179,3.4,3.4,0,0,1,1.658,1.212,3.291,3.291,0,0,1,.574,1.275,2.781,2.781,0,0,1-.159,1.594,3.087,3.087,0,0,1-5.79.089,2.838,2.838,0,0,1-.21-1.588,3.311,3.311,0,0,1,.536-1.275,3.425,3.425,0,0,1,1.62-1.275c.466-.166.746-.172.746-.2a.829.829,0,0,0-.2,0,.983.983,0,0,0-.249,0,1.951,1.951,0,0,0-.325.077,3.373,3.373,0,0,0-1.722,1.275,3.431,3.431,0,0,0-.6,1.377,3.029,3.029,0,0,0,.2,1.709,3.527,3.527,0,0,0,1.2,1.479,3.1,3.1,0,0,0,3.858-.057,3.507,3.507,0,0,0,1.141-1.518,2.978,2.978,0,0,0,.153-1.715,3.444,3.444,0,0,0-2.4-2.551,2.079,2.079,0,0,0-.332-.07,1.307,1.307,0,0,0-.249,0Z" transform="translate(-307.102 -47.548)" fill="#263238"/>
          <path id="Path_32751" data-name="Path 32751" d="M312.463,51.316a4.2,4.2,0,0,0-.032-.421c-.032-.281-.064-.7-.115-1.231,0-.268-.057-.568-.089-.9s0-.7,0-1.1V46.393a5.374,5.374,0,0,1,.038-.708q.038-.351.077-.746a24.87,24.87,0,0,1,1.786-7.232,25.9,25.9,0,0,1,5.382-8.29l.976-.995c.351-.312.721-.606,1.09-.918l.555-.466a4.38,4.38,0,0,1,.58-.446l1.224-.842.638-.427.638-.37c.453-.242.9-.491,1.358-.746s.957-.415,1.441-.638l.74-.312.37-.159.383-.115a23.278,23.278,0,0,1,3.189-.874c.548-.108,1.09-.242,1.652-.325l1.7-.172c.287,0,.574-.07.861-.077h2.634a27.371,27.371,0,0,1,3.558.478l.9.179c.147.032.3.057.446.1l.44.134,1.773.542c.58.2,1.154.466,1.735.7.287.128.587.23.867.376l.835.446a30.157,30.157,0,0,1,3.278,2.015l1.518,1.231.383.306.351.344.708.7.708.7.638.759.638.765.319.383c.1.134.191.274.287.415l1.148,1.664.982,1.786A27.383,27.383,0,0,1,363.6,43.4a27.767,27.767,0,0,1-.07,8.29l-.4,2-.593,1.913-.147.478-.191.466-.383.925-.389.918-.465.874-.434.9-.23.434-.274.408c-.357.548-.721,1.09-1.078,1.633a29.79,29.79,0,0,1-2.513,2.908l-.67.676c-.217.23-.472.415-.708.638-.485.4-.95.816-1.448,1.193L352.083,69.1l-.383.255c-.128.083-.268.153-.4.23l-.8.44a28.369,28.369,0,0,1-3.252,1.524c-.548.2-1.122.357-1.671.542l-.835.261c-.274.083-.561.121-.842.185l-1.677.351c-.561.089-1.122.121-1.677.191a24.751,24.751,0,0,1-3.284.121h-.81l-.791-.083c-.529-.057-1.059-.083-1.569-.172l-1.518-.3-.746-.147-.727-.217-1.422-.434a4.929,4.929,0,0,1-.689-.255l-.67-.274c-.446-.191-.886-.357-1.314-.555l-1.231-.638a25.916,25.916,0,0,1-7.621-6.256c-.23-.281-.466-.548-.689-.823l-.587-.855-.574-.886c-.089-.14-.191-.268-.274-.4l-.23-.415-.867-1.575c-.268-.5-.453-1.014-.67-1.486l-.293-.682a4.367,4.367,0,0,1-.255-.638c-.134-.434-.268-.842-.389-1.218s-.236-.727-.325-1.046-.128-.638-.185-.893c-.115-.523-.2-.925-.261-1.205l-.1-.408a1.887,1.887,0,0,0,.07.415c.07.274.134.682.236,1.212.057.268.115.568.179.893s.2.676.319,1.052.242.791.376,1.224a4.408,4.408,0,0,0,.249.638l.293.7c.21.472.4.988.638,1.5l.867,1.582.23.415c.077.14.179.268.268.408.185.268.37.548.568.829l.587.861c.217.274.459.548.689.829a25.788,25.788,0,0,0,7.653,6.32l1.237.638c.427.2.874.37,1.32.561l.676.281a5.243,5.243,0,0,0,.689.255l1.435.44.727.217.759.153,1.524.306c.517.089,1.052.115,1.582.179l.8.083h.81a24.1,24.1,0,0,0,3.31-.115c.561-.064,1.129-.1,1.69-.191l1.69-.351c.281-.057.574-.1.854-.185l.835-.261c.561-.185,1.135-.338,1.69-.548a27.271,27.271,0,0,0,3.284-1.531l.8-.44c.134-.077.274-.147.408-.23l.383-.261,1.537-1.059c.5-.376.969-.8,1.46-1.205a8.329,8.329,0,0,0,.721-.638l.67-.682a29.656,29.656,0,0,0,2.551-2.933c.357-.542.721-1.09,1.091-1.639l.268-.415.236-.44.472-.88.472-.88.389-.931.383-.931.2-.466.153-.485.593-1.951c.134-.67.268-1.346.408-2.022a28.061,28.061,0,0,0,.077-8.335,27.822,27.822,0,0,0-2.589-7.92l-.988-1.8c-.389-.568-.772-1.129-1.161-1.684-.1-.14-.185-.281-.287-.415l-.325-.389-.638-.772-.638-.772-.714-.7-.714-.7c-.115-.115-.236-.236-.357-.344l-.383-.312-1.562-1.161a29.763,29.763,0,0,0-3.3-2.034l-.848-.446c-.281-.153-.58-.255-.874-.383-.587-.236-1.161-.5-1.747-.708l-1.792-.542-.44-.134-.453-.1-.906-.185a28.99,28.99,0,0,0-3.59-.472h-2.627c-.293,0-.58.051-.867.077l-1.722.179c-.561.077-1.116.223-1.664.325a24.535,24.535,0,0,0-3.189.886l-.389.121c-.128.045-.249.108-.376.159l-.74.319c-.485.217-.982.4-1.448.638l-1.365.759-.676.37c-.217.14-.421.287-.638.427l-1.231.855a5.684,5.684,0,0,0-.587.446l-.555.472c-.37.319-.74.638-1.09.931l-.982,1.008a25.757,25.757,0,0,0-5.382,8.29,24.577,24.577,0,0,0-1.754,7.289c0,.255-.051.51-.07.752a4.463,4.463,0,0,0-.038.7v2.372a8.611,8.611,0,0,0,.1.906c.064.536.108.944.14,1.231S312.463,51.316,312.463,51.316Z" transform="translate(-308.937 -21.039)" fill="#263238"/>
          <path id="Path_32752" data-name="Path 32752" d="M349.109,67.211s5.771-5.312,6.83-6.549c2.768-3.259,2.13-7.072-1.352-8.022a5.873,5.873,0,0,0-5.771,1.741l-.1.089-.1-.089a5.867,5.867,0,0,0-5.739-1.741c-3.488.95-4.126,4.764-1.352,8.022,1.059,1.237,6.945,6.549,6.945,6.549l.364.274Z" transform="translate(-318.946 -32.311)" fill="#0091ff"/>
        </g>
        <g id="freepik--Character--inject-25" transform="translate(84.12 77.482)">
          <path id="Path_32753" data-name="Path 32753" d="M160.6,377.875l23.85-7.085,76.015-1.39,13.169,10.261-29.577,24.073-50.4-.995Z" transform="translate(-128.573 -203.755)" fill="#263238"/>
          <path id="Path_32754" data-name="Path 32754" d="M223.866,407.6l31.758,8.545L245.21,455.683c-3.718-1.231-5.918-23.691-5.918-23.691l-20.572-4.63Z" transform="translate(-149.63 -217.594)" fill="#455a64"/>
          <g id="Group_1682" data-name="Group 1682" transform="translate(90.959 200.94)" opacity="0.6">
            <path id="Path_32755" data-name="Path 32755" d="M253.221,425.546a1.664,1.664,0,0,1,2.136-.638,1.6,1.6,0,0,1,.638,2.111,1.754,1.754,0,0,1-2.264.638,1.658,1.658,0,0,1-.427-2.27" transform="translate(-253.012 -424.747)" fill="#fff"/>
          </g>
          <path id="Path_32756" data-name="Path 32756" d="M269.779,420.511l-3.189-.861-8.8,38.333s.306,1.964,1.594,2.092Z" transform="translate(-163.784 -221.96)" fill="#263238"/>
          <path id="Path_32757" data-name="Path 32757" d="M250.355,445.039c.191.045.536-.9,1.409-1.684s1.817-1.078,1.786-1.275-1.224-.2-2.258.765S250.163,445.033,250.355,445.039Z" transform="translate(-161.062 -230.048)" fill="#263238"/>
          <path id="Path_32758" data-name="Path 32758" d="M251.355,452.856c.172.089.721-.638,1.715-1.1s1.913-.408,1.945-.6-1.02-.606-2.238,0S251.17,452.8,251.355,452.856Z" transform="translate(-161.437 -233.261)" fill="#263238"/>
          <path id="Path_32759" data-name="Path 32759" d="M256.078,459.443c.089-.166-.8-.689-2-.472s-1.843,1.014-1.7,1.135.848-.287,1.83-.446S256.008,459.608,256.078,459.443Z" transform="translate(-161.817 -236.187)" fill="#263238"/>
          <path id="Path_32760" data-name="Path 32760" d="M243.052,442.006c.2-.032.166-.988.529-2.06s.925-1.837.791-1.977-1.046.491-1.454,1.76S242.905,442.063,243.052,442.006Z" transform="translate(-158.331 -228.59)" fill="#263238"/>
          <path id="Path_32761" data-name="Path 32761" d="M235.162,437.136a3.945,3.945,0,0,0,.51-1.983,9.178,9.178,0,0,0-.089-2.245,9.455,9.455,0,0,0-.306-1.275,2.551,2.551,0,0,0-.306-.721.874.874,0,0,0-1.008-.357,1.1,1.1,0,0,0-.638.727,2.709,2.709,0,0,0-.1.772,7.655,7.655,0,0,0,.1,1.346,7.11,7.11,0,0,0,.721,2.136,4.359,4.359,0,0,0,1.275,1.594c0-.051-.4-.682-.855-1.8a8.13,8.13,0,0,1-.536-2.028,8.583,8.583,0,0,1-.051-1.231c0-.446.1-.8.306-.861.083,0,.115,0,.21.1a1.8,1.8,0,0,1,.223.529,10.2,10.2,0,0,1,.325,1.2,11.284,11.284,0,0,1,.23,2.111A13.516,13.516,0,0,0,235.162,437.136Z" transform="translate(-154.886 -225.895)" fill="#263238"/>
          <path id="Path_32762" data-name="Path 32762" d="M232.985,439.863c.045-.064-.542-.638-1.779-1.027a6.542,6.542,0,0,0-2.238-.3,6.624,6.624,0,0,0-1.333.185,1.7,1.7,0,0,0-1.339,1,.969.969,0,0,0,.338.976,3.035,3.035,0,0,0,.676.4,4.688,4.688,0,0,0,1.333.351,4.763,4.763,0,0,0,2.27-.306c1.224-.5,1.671-1.275,1.607-1.275a6.979,6.979,0,0,1-1.773.823,4.714,4.714,0,0,1-2.022.134,4.2,4.2,0,0,1-1.135-.338c-.408-.172-.7-.421-.638-.561a1.419,1.419,0,0,1,.829-.523,6.379,6.379,0,0,1,1.205-.21,7.6,7.6,0,0,1,2.079.134C232.258,439.564,232.928,439.959,232.985,439.863Z" transform="translate(-152.365 -228.801)" fill="#263238"/>
          <g id="Group_1683" data-name="Group 1683" transform="translate(69.09 190.006)" opacity="0.3">
            <path id="Path_32763" data-name="Path 32763" d="M223.866,407.6l31.758,8.545L245.21,455.683c-3.718-1.231-5.918-23.691-5.918-23.691l-20.572-4.63Z" transform="translate(-218.72 -407.6)"/>
          </g>
          <path id="Path_32764" data-name="Path 32764" d="M274.445,400.81l-26.835,19,23.474,33.505c3.061-2.442-2.653-24.278-2.653-24.278l17.69-11.479Z" transform="translate(-160.096 -215.134)" fill="#455a64"/>
          <g id="Group_1684" data-name="Group 1684" transform="translate(99.924 202.176)" opacity="0.6">
            <path id="Path_32765" data-name="Path 32765" d="M269.672,427.039a1.677,1.677,0,0,0-2.226.147,1.613,1.613,0,0,0,.128,2.206,1.767,1.767,0,0,0,2.353-.166,1.668,1.668,0,0,0-.383-2.283" transform="translate(-267.07 -426.685)" fill="#fff"/>
          </g>
          <path id="Path_32766" data-name="Path 32766" d="M247.61,429.523l2.71-1.913,21.535,32.906s.4,1.951-.772,2.519Z" transform="translate(-160.096 -224.844)" fill="#263238"/>
          <path id="Path_32767" data-name="Path 32767" d="M278.83,444.6c-.166.108-.816-.638-1.913-1.1s-2.079-.383-2.117-.58,1.078-.638,2.385-.057S279,444.53,278.83,444.6Z" transform="translate(-169.946 -230.266)" fill="#263238"/>
          <path id="Path_32768" data-name="Path 32768" d="M280.412,452.2c-.134.153-.906-.363-1.99-.434s-1.913.281-2.028.115.74-.918,2.085-.81S280.565,452.094,280.412,452.2Z" transform="translate(-170.521 -233.341)" fill="#263238"/>
          <path id="Path_32769" data-name="Path 32769" d="M278.289,459.932c-.14-.121.517-.925,1.709-1.129s2.079.306,2,.472-.9,0-1.875.21S278.417,460.085,278.289,459.932Z" transform="translate(-171.204 -236.128)" fill="#263238"/>
          <path id="Path_32770" data-name="Path 32770" d="M285.5,439.075c-.2.032-.5-.874-1.212-1.754s-1.505-1.4-1.422-1.582,1.148.1,1.971,1.148S285.679,439.031,285.5,439.075Z" transform="translate(-172.867 -227.77)" fill="#263238"/>
          <path id="Path_32771" data-name="Path 32771" d="M291.185,431.577c-.064.051-.638-.529-1.167-1.684a9.565,9.565,0,0,1-.689-2.136,9.451,9.451,0,0,1-.166-1.32,2.635,2.635,0,0,1,.045-.784.867.867,0,0,1,.816-.682,1.084,1.084,0,0,1,.874.453,2.647,2.647,0,0,1,.357.689,6.973,6.973,0,0,1,.37,1.275,7.223,7.223,0,0,1,.07,2.258,3.463,3.463,0,0,1-.67,1.945c-.07-.032.14-.772.179-1.983a7.838,7.838,0,0,0-.58-3.259c-.159-.421-.363-.721-.587-.7-.083,0-.108,0-.166.166a2.3,2.3,0,0,0,0,.574,10.854,10.854,0,0,0,.115,1.243,11.4,11.4,0,0,0,.517,2.06A16.106,16.106,0,0,1,291.185,431.577Z" transform="translate(-175.147 -223.887)" fill="#263238"/>
          <path id="Path_32772" data-name="Path 32772" d="M291.736,433.566c-.064-.038.293-.772,1.314-1.575a6.58,6.58,0,0,1,2-1.059,6.446,6.446,0,0,1,1.32-.287,1.677,1.677,0,0,1,1.594.478.963.963,0,0,1,0,1.027,3.08,3.08,0,0,1-.5.638,4.578,4.578,0,0,1-1.129.791,4.687,4.687,0,0,1-2.232.5,2.684,2.684,0,0,1-1.958-.638,8.084,8.084,0,0,0,1.945.153,4.757,4.757,0,0,0,1.913-.574,4.191,4.191,0,0,0,.95-.708c.319-.306.517-.638.383-.746a1.148,1.148,0,0,0-.957-.2,7.079,7.079,0,0,0-1.205.223,7.426,7.426,0,0,0-1.913.848C292.316,433.037,291.825,433.636,291.736,433.566Z" transform="translate(-176.08 -225.928)" fill="#263238"/>
          <path id="Path_32773" data-name="Path 32773" d="M131.181,360.069s-12.167-.95-16.906,5.07-4.094,18.181-3.456,21.51,11.434,11.657,11.434,11.657,14.98,6.658,24.233,8.7,35.112,3.826,35.112,3.826l7.691-20.407S137.559,359.833,131.181,360.069Z" transform="translate(-110.378 -200.354)" fill="#263238"/>
          <path id="Path_32774" data-name="Path 32774" d="M319.864,354.916s12.582-11.759,14.476-11.479a24.616,24.616,0,0,1,9.508,2.755c4.12,2.264,9.47,12.754,9.055,18.207s-17.161,17.537-23.13,20.209S295.8,400.754,295.8,400.754l-15.2-18.124,29.768-25.17Z" transform="translate(-172.048 -194.347)" fill="#263238"/>
          <path id="Path_32775" data-name="Path 32775" d="M224.517,400.066a6.8,6.8,0,0,1-.638-.848c-.383-.561-.957-1.358-1.664-2.34A39.042,39.042,0,0,0,215.767,390a71.629,71.629,0,0,0-7.812-5.331l-2.455-1.5a6.278,6.278,0,0,1-.88-.593,6.437,6.437,0,0,1,.944.478c.593.325,1.448.816,2.5,1.422a61.98,61.98,0,0,1,7.9,5.28,35.571,35.571,0,0,1,6.422,7.015c.7,1,1.237,1.818,1.588,2.4a6.212,6.212,0,0,1,.542.886Z" transform="translate(-144.521 -208.53)" fill="#455a64"/>
          <path id="Path_32776" data-name="Path 32776" d="M246.939,404.9a2.035,2.035,0,0,1-.268-.542c-.153-.357-.351-.88-.58-1.531a32.051,32.051,0,0,1-1.314-5.248,31.392,31.392,0,0,1-.37-5.4c0-.7.045-1.275.077-1.639a2.231,2.231,0,0,1,.083-.593,19.756,19.756,0,0,1,.077,2.232,38.454,38.454,0,0,0,1.671,10.554,21.887,21.887,0,0,1,.625,2.162Z" transform="translate(-158.934 -211.2)" fill="#455a64"/>
          <path id="Path_32777" data-name="Path 32777" d="M279.789,382.61a2.479,2.479,0,0,1-.255.179l-.765.446c-.332.179-.727.434-1.186.721l-.74.466-.8.555a52.094,52.094,0,0,0-8.061,6.983,56.541,56.541,0,0,0-3.826,4.464c-.529.733-1.052,1.416-1.486,2.092l-.638.963-.561.918c-.363.58-.638,1.122-.918,1.6a11.089,11.089,0,0,0-.638,1.231l-.4.791a1.171,1.171,0,0,1-.159.261.75.75,0,0,1,.1-.293c.1-.191.21-.491.344-.816a11.165,11.165,0,0,1,.638-1.275c.287-.5.529-1.039.886-1.633.172-.293.357-.638.542-.931l.638-.982c.427-.689.944-1.377,1.473-2.124a53.192,53.192,0,0,1,3.826-4.528,47.086,47.086,0,0,1,8.118-6.926l.816-.542.759-.446c.466-.274.874-.51,1.224-.676l.791-.4a1.085,1.085,0,0,1,.287-.1Z" transform="translate(-164.35 -208.541)" fill="#455a64"/>
          <path id="Path_32778" data-name="Path 32778" d="M310.15,372.36c.057.077-6.377,4.719-14.4,10.369s-14.54,10.171-14.591,10.095,6.377-4.719,14.4-10.369S310.1,372.289,310.15,372.36Z" transform="translate(-172.251 -204.827)" fill="#455a64"/>
          <path id="Path_32779" data-name="Path 32779" d="M155.82,371.25a2.771,2.771,0,0,1,.529.185l1.492.593c1.275.523,3.157,1.275,5.446,2.27,4.585,1.945,10.892,4.713,17.792,7.895s13.092,6.211,17.518,8.494c2.219,1.142,4,2.092,5.216,2.768l1.4.784a4.455,4.455,0,0,1,.478.293,3.136,3.136,0,0,1-.51-.236l-1.416-.727c-1.237-.638-3.029-1.562-5.255-2.672-4.464-2.232-10.656-5.21-17.556-8.4s-13.181-5.988-17.747-7.984l-5.4-2.366-1.467-.638A5.267,5.267,0,0,1,155.82,371.25Z" transform="translate(-126.842 -204.425)" fill="#455a64"/>
          <path id="Path_32780" data-name="Path 32780" d="M168.958,237.42s-3.75.746-5.255,2.627S142.882,268.4,142.882,268.4s-5.07,5.44-4.878,8.443,3.916,7.3,3.916,7.3l-.746,3.189s-10.318,7.691-9.948,14.444,5.1,13.137,9.2,14.82,21.765,11.638,24.954,12.945,20.451-1.307,20.451-1.307l-3.731-21.567-7.506-.376-7.13-2.06-4.91-9.381,7.161-13.692.376-25.706Z" transform="translate(-117.927 -155.94)" fill="#455a64"/>
          <path id="Path_32781" data-name="Path 32781" d="M182.75,251.054l5.306,29.137,1.824,17.767s.753,18.576,2.251,22.141,23.264,10.5,30.208,11.071,38.652-13.513,41.088-15.943,5.44-10.694,5.44-10.694l-4.5-50.66.937-20.636-10.694-3.756-66.959,5.07Z" transform="translate(-136.598 -153.063)" fill="#455a64"/>
          <path id="Path_32782" data-name="Path 32782" d="M299.9,235.36a38.621,38.621,0,0,1,9.279,9.9c4.394,6.588,15.554,29.092,18.851,35.31s8.966,13.36,7.5,21.956c0,0-16.651,14.457-21.956,17.569s-17.754,6.721-21.956,4.757l-12.078.561a14.757,14.757,0,0,0,4.757-10.988c0-7.136-6.039-13-6.039-13l8.418.733s6.377-4.394,10.248-2.742l5.739-1.639,1.913-6.045-3.4-10.49-7.818-24.431Z" transform="translate(-171.201 -155.193)" fill="#455a64"/>
          <path id="Path_32783" data-name="Path 32783" d="M296.464,362.8a10.839,10.839,0,0,1,.689-.95,21.4,21.4,0,0,0,1.684-2.7,27.139,27.139,0,0,0,1.773-4.368,15.872,15.872,0,0,0,.7-5.682,10.777,10.777,0,0,0-1.849-5.35,8.118,8.118,0,0,0-3.578-2.908,7.468,7.468,0,0,0-3.08-.587,11.1,11.1,0,0,0-1.167.1,1.082,1.082,0,0,1,.293-.1,4.614,4.614,0,0,1,.867-.134,7.13,7.13,0,0,1,3.189.5,8.226,8.226,0,0,1,3.737,2.946,10.994,10.994,0,0,1,1.913,5.5,15.694,15.694,0,0,1-.733,5.8,25.325,25.325,0,0,1-1.862,4.387,17.162,17.162,0,0,1-1.786,2.672,6.057,6.057,0,0,1-.574.638A1.105,1.105,0,0,1,296.464,362.8Z" transform="translate(-176.044 -193.14)" fill="#263238"/>
          <path id="Path_32784" data-name="Path 32784" d="M326.136,343.5c-.051,0-.357-.727-.982-1.862a21.407,21.407,0,0,0-6.734-7.436c-1.071-.733-1.786-1.11-1.76-1.161a2,2,0,0,1,.529.21,12.681,12.681,0,0,1,1.358.752,18.711,18.711,0,0,1,6.817,7.525A13.886,13.886,0,0,1,326,342.95,2.163,2.163,0,0,1,326.136,343.5Z" transform="translate(-185.112 -190.582)" fill="#263238"/>
          <path id="Path_32785" data-name="Path 32785" d="M330.575,316.5a11.066,11.066,0,0,1-1.652.689c-1.027.4-2.442.963-3.979,1.639s-2.908,1.346-3.865,1.817a12.338,12.338,0,0,1-1.62.759,7.952,7.952,0,0,1,1.511-.963,40.674,40.674,0,0,1,3.871-1.913c1.55-.67,2.978-1.212,4.03-1.556a8.723,8.723,0,0,1,1.7-.472Z" transform="translate(-186.127 -184.59)" fill="#263238"/>
          <path id="Path_32786" data-name="Path 32786" d="M332.225,282.72a3.714,3.714,0,0,1-.74.319c-.491.179-1.193.446-2.053.791a43.767,43.767,0,0,0-12.4,7.359c-.714.587-1.275,1.078-1.677,1.416a4.083,4.083,0,0,1-.638.5,4.192,4.192,0,0,1,.548-.6c.37-.37.918-.886,1.613-1.5a38.218,38.218,0,0,1,12.467-7.391c.874-.312,1.594-.548,2.092-.689A4.263,4.263,0,0,1,332.225,282.72Z" transform="translate(-184.41 -172.351)" fill="#263238"/>
          <path id="Path_32787" data-name="Path 32787" d="M300.013,358.884a52.5,52.5,0,0,1-5.873.319,53.314,53.314,0,0,1-5.88,0,52.162,52.162,0,0,1,5.867-.319A53.521,53.521,0,0,1,300.013,358.884Z" transform="translate(-174.823 -199.916)" fill="#263238"/>
          <path id="Path_32788" data-name="Path 32788" d="M299.818,355.223a53.073,53.073,0,0,1-6.026.459,56.788,56.788,0,0,1-6.052.128,53.269,53.269,0,0,1,6.033-.459,56.677,56.677,0,0,1,6.045-.128Z" transform="translate(-174.635 -198.608)" fill="#263238"/>
          <path id="Path_32789" data-name="Path 32789" d="M298.567,350.291a57.667,57.667,0,0,1-6.09.357,54.127,54.127,0,0,1-6.1,0,57.831,57.831,0,0,1,6.09-.357,54.114,54.114,0,0,1,6.1,0Z" transform="translate(-174.142 -196.801)" fill="#263238"/>
          <path id="Path_32790" data-name="Path 32790" d="M258.9,299.768a1.276,1.276,0,0,1-.344.083l-1.014.179c-.88.153-2.162.332-3.75.523a109.656,109.656,0,0,1-24.934.083c-1.588-.179-2.87-.351-3.75-.5l-1.014-.172a1.538,1.538,0,0,1-.351-.083,1.385,1.385,0,0,1,.357,0l1.027.115c.886.1,2.168.242,3.756.389,3.189.306,7.576.587,12.442.574s9.266-.332,12.442-.638c1.588-.159,2.87-.306,3.756-.415l1.02-.115a1.276,1.276,0,0,1,.357-.026Z" transform="translate(-151.448 -178.527)" fill="#263238"/>
          <path id="Path_32791" data-name="Path 32791" d="M174.081,302.913c-.038.083-6.307-2.646-14-6.1s-13.9-6.313-13.864-6.377,6.307,2.646,14.03,6.1S174.139,302.8,174.081,302.913Z" transform="translate(-123.363 -175.148)" fill="#263238"/>
          <path id="Path_32792" data-name="Path 32792" d="M168.63,317.505a7.253,7.253,0,0,1-.638-.886c-.191-.293-.421-.638-.708-1.052s-.6-.874-.982-1.365a43.015,43.015,0,0,0-2.78-3.367,42.371,42.371,0,0,0-8.131-6.9c-1.384-.886-2.666-1.633-3.775-2.194-.548-.3-1.065-.529-1.5-.746s-.835-.389-1.154-.523A6.26,6.26,0,0,1,148,300a7.573,7.573,0,0,1,1.033.351c.325.115.727.274,1.18.478s.976.415,1.53.7a39.9,39.9,0,0,1,3.826,2.149,42.851,42.851,0,0,1,4.33,3.189,43.63,43.63,0,0,1,3.865,3.756,38.262,38.262,0,0,1,2.742,3.431c.376.5.67.988.944,1.4a9.519,9.519,0,0,1,.638,1.084,6.769,6.769,0,0,1,.542.963Z" transform="translate(-124.008 -178.612)" fill="#263238"/>
          <path id="Path_32793" data-name="Path 32793" d="M185.633,338.646a2.554,2.554,0,0,1-.415,0l-1.18-.1-4.375-.421h0l-7.978-2.417h-.057v-.057A23.2,23.2,0,0,0,165.22,329a25.643,25.643,0,0,0-8.2-4.12,20.178,20.178,0,0,0-7.417-.529,20.7,20.7,0,0,0-4.9,1.148c-.561.21-.995.383-1.275.517a3.472,3.472,0,0,1-.453.172,2.514,2.514,0,0,1,.421-.236c.281-.153.708-.338,1.275-.574A19.867,19.867,0,0,1,149.6,324.1a20.067,20.067,0,0,1,7.519.472,25.508,25.508,0,0,1,8.252,4.126,23.207,23.207,0,0,1,6.485,6.76l-.089-.07,7.946,2.462h0l4.362.523,1.173.159A1.816,1.816,0,0,1,185.633,338.646Z" transform="translate(-122.186 -187.285)" fill="#263238"/>
          <path id="Path_32794" data-name="Path 32794" d="M164.562,340.061a5.213,5.213,0,0,1-.886.051c-.287,0-.638,0-1.039.038s-.867.032-1.371.1a30.544,30.544,0,0,0-3.539.523,32.958,32.958,0,0,0-4.209,1.186,30.612,30.612,0,0,0-7.028,3.622c-.434.281-.791.568-1.122.8s-.6.453-.823.638a4.592,4.592,0,0,1-.714.529,4.331,4.331,0,0,1,.638-.638c.21-.2.472-.434.791-.682s.676-.555,1.1-.848a29.2,29.2,0,0,1,3.048-1.913,28.754,28.754,0,0,1,8.29-2.985,26.444,26.444,0,0,1,3.578-.459c.51-.045.976-.038,1.384-.045s.759,0,1.046,0A4.319,4.319,0,0,1,164.562,340.061Z" transform="translate(-122.498 -193.095)" fill="#263238"/>
          <path id="Path_32795" data-name="Path 32795" d="M190.094,369.166a1.086,1.086,0,0,1-.344,0,6.873,6.873,0,0,1-.969-.21,9,9,0,0,1-3.189-1.735,10.643,10.643,0,0,1-3.125-4.394,13.768,13.768,0,0,1-.708-6.556,16.332,16.332,0,0,1,2.053-6.281,9.681,9.681,0,0,1,3.826-3.756,7.545,7.545,0,0,1,3.533-.855,6.669,6.669,0,0,1,.988.108,1.115,1.115,0,0,1,.332.1,8.084,8.084,0,0,0-1.32-.077,7.7,7.7,0,0,0-3.418.937,9.566,9.566,0,0,0-3.705,3.705,16.344,16.344,0,0,0-1.99,6.16,13.845,13.845,0,0,0,.638,6.415,10.675,10.675,0,0,0,2.984,4.317,9.463,9.463,0,0,0,3.087,1.792C189.629,369.077,190.1,369.135,190.094,369.166Z" transform="translate(-136.194 -195.053)" fill="#263238"/>
          <path id="Path_32796" data-name="Path 32796" d="M228.051,346.322l1.333-8.692a3.265,3.265,0,0,1,3.361-2.761l20.56.835s1.161.988,1.014,1.62c-.128.529-5.338,20.3-6.9,26.229a2.162,2.162,0,0,1-2.155,1.607l-17.5-.568a2.162,2.162,0,0,1-2.066-2.468C226.412,357.156,228.051,346.322,228.051,346.322Z" transform="translate(-152.15 -191.243)" fill="#0091ff"/>
          <path id="Path_32797" data-name="Path 32797" d="M246.451,349.792s9.113.281,10.025,0,8.437-2.487,8.437-2.487-10.79,1.8-11.44,1.4-1.837-1.154-.778-2.245c1.39-1.428,4.917-2.749,5.669-3.271l1.033-4.521a32.98,32.98,0,0,1,4.464,0c.829.2,4.464,4.745,5.605,8.341s2.9,8.858,2.9,8.858l-3.189,5.1-2.315.466s-12.289,2.015-13.328,1.684-8.673-1.951-8.673-1.951l-5.134-3.335.517-2.729-.517-4.209Z" transform="translate(-157.241 -192.59)" fill="#ffbe9d"/>
          <path id="Path_32798" data-name="Path 32798" d="M203.684,348.8s3.4-2.991,4.26-3.737a15.615,15.615,0,0,1,3.75-1.62l8.577,2.111-.593,3.877s11.829-1.588,13.309-.638.8,1.913,0,2.755-11.479,3.641-11.479,3.641l5.561-.74,9.234,2.136-7.939,3.393,6.524,1.518a50.529,50.529,0,0,1-5.548,2.073,46.717,46.717,0,0,1-5.44.434s-3.826,2.391-4.789,2.391-12.512-2.717-13.813-2.933a2.761,2.761,0,0,0-2.175.542,38.348,38.348,0,0,1-.548-7.417A39.482,39.482,0,0,1,203.684,348.8Z" transform="translate(-143.776 -194.35)" fill="#ffbe9d"/>
          <path id="Path_32799" data-name="Path 32799" d="M239.6,369.4a16.537,16.537,0,0,1-3.667.8,16.106,16.106,0,0,1-3.743.255,32.35,32.35,0,0,1,3.692-.587A29.644,29.644,0,0,1,239.6,369.4Z" transform="translate(-154.51 -203.755)" fill="#eb996e"/>
          <path id="Path_32800" data-name="Path 32800" d="M225.649,351.585a10.151,10.151,0,0,1-2.022.37,17.221,17.221,0,0,1-4.961,0c-1.913-.453-3.533-1.039-4.764-1.275s-2-.332-2-.383a1.653,1.653,0,0,1,.555,0,10.748,10.748,0,0,1,1.492.179c1.275.2,2.933.765,4.783,1.2a19.816,19.816,0,0,0,4.878.076A15.507,15.507,0,0,1,225.649,351.585Z" transform="translate(-147.159 -196.825)" fill="#eb996e"/>
          <path id="Path_32801" data-name="Path 32801" d="M241.6,356.158a2.4,2.4,0,0,1-.529.332,13.908,13.908,0,0,1-1.556.689,44.948,44.948,0,0,1-5.363,1.639c-2.13.517-4.075.893-5.5,1.1a7.756,7.756,0,0,1-2.321.147,3.668,3.668,0,0,1,.638-.1c.4-.057.963-.153,1.664-.287,1.4-.255,3.335-.67,5.459-1.186s4.011-1.071,5.357-1.53S241.571,356.106,241.6,356.158Z" transform="translate(-152.387 -198.956)" fill="#eb996e"/>
          <path id="Path_32802" data-name="Path 32802" d="M243.513,372a9.571,9.571,0,0,1-1.441.638c-.918.37-2.226.874-3.756,1.454h0a21.467,21.467,0,0,1-2.819.427c-2.328.21-4.432.293-5.943.44-.759.077-1.365.147-1.786.223a3.145,3.145,0,0,1-.638.1,2.307,2.307,0,0,1,.638-.223,14.51,14.51,0,0,1,1.786-.325c1.518-.21,3.629-.332,5.937-.542a22.489,22.489,0,0,0,2.774-.4h0c1.537-.561,2.857-1.027,3.794-1.346a10.315,10.315,0,0,1,1.454-.446Z" transform="translate(-152.677 -204.697)" fill="#eb996e"/>
          <path id="Path_32803" data-name="Path 32803" d="M269.337,362.577a1.989,1.989,0,0,1-.529.281,13.111,13.111,0,0,1-1.524.6,21.115,21.115,0,0,1-5.3,1.052,21.541,21.541,0,0,1-5.389-.332,15.591,15.591,0,0,1-1.594-.4,1.912,1.912,0,0,1-.561-.21c0-.051.835.166,2.194.37a24.06,24.06,0,0,0,10.58-.708C268.527,362.845,269.318,362.526,269.337,362.577Z" transform="translate(-162.571 -201.281)" fill="#eb996e"/>
          <path id="Path_32804" data-name="Path 32804" d="M263.774,369.738a3.586,3.586,0,0,1-.765.249l-2.13.555-3.189.778a16.153,16.153,0,0,1-3.986.593c-5.656-.746-10.038-2.283-9.936-2.513,0,0,.261.108.753.261s1.218.351,2.117.574,1.977.459,3.189.7a38.16,38.16,0,0,0,3.909.638,17.032,17.032,0,0,0,3.9-.561l3.189-.708,2.149-.453a4.465,4.465,0,0,1,.8-.115Z" transform="translate(-158.704 -203.755)" fill="#eb996e"/>
          <path id="Path_32805" data-name="Path 32805" d="M274.779,342.7a25.129,25.129,0,0,1-2.908,1.008,28.739,28.739,0,0,1-2.921.976,9.878,9.878,0,0,1,2.812-1.275A10.12,10.12,0,0,1,274.779,342.7Z" transform="translate(-167.828 -194.082)" fill="#eb996e"/>
          <path id="Path_32806" data-name="Path 32806" d="M243.3,367.487a105.388,105.388,0,0,1,7.385-3.227,19.255,19.255,0,0,1-3.59,1.849,19.514,19.514,0,0,1-3.794,1.378Z" transform="translate(-158.535 -201.893)" fill="#eb996e"/>
          <path id="Path_32807" data-name="Path 32807" d="M249.834,362.822a5.229,5.229,0,0,1-1.409-.083,29.183,29.183,0,0,1-6.741-1.613,5.368,5.368,0,0,1-1.314-.6c.038-.089,2.092.638,4.713,1.275S249.84,362.739,249.834,362.822Z" transform="translate(-157.473 -200.537)" fill="#eb996e"/>
          <path id="Path_32808" data-name="Path 32808" d="M191.388,315.1c-.089,0-1.365-11.37-2.838-25.413s-2.6-25.451-2.513-25.457,1.365,11.332,2.844,25.362S191.477,315.062,191.388,315.1Z" transform="translate(-137.787 -165.653)" fill="#263238"/>
          <path id="Path_32809" data-name="Path 32809" d="M305.31,266.24a2.16,2.16,0,0,1,.153.414l.376,1.212c.338,1.046.733,2.551,1.212,4.464.925,3.826,2,9.145,2.908,15.063s1.575,11.313,1.983,15.216c.2,1.951.357,3.533.44,4.63.038.517.07.937.089,1.275a2.874,2.874,0,0,1,0,.44,2.119,2.119,0,0,1-.076-.434c-.038-.325-.089-.74-.153-1.275-.134-1.129-.319-2.7-.542-4.617-.472-3.9-1.161-9.272-2.079-15.19s-1.913-11.236-2.806-15.063c-.459-1.913-.816-3.45-1.116-4.509-.128-.5-.23-.912-.312-1.224A2.55,2.55,0,0,1,305.31,266.24Z" transform="translate(-181 -166.381)" fill="#263238"/>
          <path id="Path_32810" data-name="Path 32810" d="M300.79,300.84a1.783,1.783,0,0,1,.115.274l.281.8,1.02,3.01c.861,2.615,2.06,6.25,3.45,10.484v.1l-.963,2.851c-.159.5-.319,1-.485,1.505-.077.255-.153.51-.236.772l-.1.383-.051.191v.14h0s.038-.07-.147-.121l-.032.325c-.389-.064-.8-.14-1.231-.191a16.8,16.8,0,0,0-8.654.829,19.686,19.686,0,0,0-3.278,2,9.622,9.622,0,0,1-3.074,1.473,13.036,13.036,0,0,1-4.9.064c-.568-.083-1.014-.166-1.314-.223a3.752,3.752,0,0,1-.453-.1,2.1,2.1,0,0,1,.466.038l1.32.159a13.475,13.475,0,0,0,4.821-.166,9.472,9.472,0,0,0,2.972-1.467,20.266,20.266,0,0,1,3.316-2.06,17.176,17.176,0,0,1,8.82-.88c.427.057.855.128,1.244.2l1.212.217-1.244.115a.185.185,0,0,1-.153-.1.284.284,0,0,1,0-.07.178.178,0,0,1,0-.051v-.179l.045-.21.115-.4c.077-.261.153-.517.236-.772.166-.51.325-1.014.491-1.511.332-.982.638-1.913.976-2.851v.1c-1.352-4.247-2.506-7.895-3.342-10.522-.389-1.275-.708-2.3-.931-3.035-.1-.332-.179-.6-.236-.816A.949.949,0,0,1,300.79,300.84Z" transform="translate(-172.099 -178.916)" fill="#263238"/>
          <rect id="Rectangle_3019" data-name="Rectangle 3019" width="42.975" height="7.104" transform="translate(68.848 127.268)" fill="#fff"/>
          <path id="Path_32811" data-name="Path 32811" d="M207.369,212.34s-13.7,2.436-15.573,5.44-.931,8.067-.931,8.067l1.5,1.129,18.015,10.5s10.5,12.008,16.134,11.262,14.635-11.632,17.071-14.259,13.883-12.576,13.883-12.576,5.255-1.875,3.941-6.562-17.824-6.753-17.824-6.753Z" transform="translate(-139.452 -145.495)" fill="#455a64"/>
          <path id="Path_32812" data-name="Path 32812" d="M282.444,158.492A9.8,9.8,0,0,0,279.53,145.1c-2.334-1.409-5.293-1.824-7.168-3.794s-2.136-5.063-2.468-7.837a21.885,21.885,0,0,0-2.551-8.692,10.213,10.213,0,0,0-7.149-5.153c-2.251-.293-4.617.383-6.76-.363-2.442-.848-3.9-3.265-5.695-5.1a15.184,15.184,0,0,0-13.079-4.336c-3.259.529-6.46,2.309-7.971,5.242s-.835,7.015,1.951,8.807l-8.947,18.321a20.968,20.968,0,0,0,11.842,29.373c2.551.88,5.408,1.326,7.429,3.131,1.55,1.371,2.391,3.354,3.6,5.032s3.138,3.189,5.165,2.787c1.556-.3,2.793-1.645,4.375-1.754s2.921,1.046,4.343,1.741a8.29,8.29,0,0,0,10.1-2.608c1.1-1.575,1.741-3.654,3.463-4.515s3.826-.108,5.739-.217a6.629,6.629,0,0,0,5.669-8.226c-.453-1.422-1.416-2.742-1.314-4.234C280.2,161.075,281.551,159.837,282.444,158.492Z" transform="translate(-149.149 -109.649)" fill="#0091ff"/>
          <path id="Path_32813" data-name="Path 32813" d="M261.269,148.225c-.714-7.85-6.2-17.346-14.03-16.3l-24.29,6.881a4.617,4.617,0,0,0-3.992,4.8l2.468,58.076,14.706,13.87h0l14.259-14.827c-.14-5.95-.268-11.447-.268-11.428s10-1.951,11.708-15.12C262.7,167.656,262.072,156.949,261.269,148.225Z" transform="translate(-149.714 -117.691)" fill="#ffbe9d"/>
          <path id="Path_32814" data-name="Path 32814" d="M276.567,176.1a1.683,1.683,0,0,1-1.575,1.741,1.607,1.607,0,0,1-1.773-1.467,1.677,1.677,0,0,1,1.569-1.741,1.613,1.613,0,0,1,1.779,1.467Z" transform="translate(-169.374 -133.19)" fill="#263238"/>
          <path id="Path_32815" data-name="Path 32815" d="M278.145,165.392c-.2.23-1.5-.676-3.31-.638s-3.106,1-3.31.784c-.1-.1.1-.5.638-.931a4.547,4.547,0,0,1,2.64-.9,4.464,4.464,0,0,1,2.646.772C278.049,164.9,278.247,165.3,278.145,165.392Z" transform="translate(-168.751 -129.234)" fill="#263238"/>
          <path id="Path_32816" data-name="Path 32816" d="M249.587,176.1a1.684,1.684,0,0,1-1.575,1.741,1.607,1.607,0,0,1-1.773-1.467,1.684,1.684,0,0,1,1.569-1.741,1.613,1.613,0,0,1,1.779,1.467Z" transform="translate(-159.599 -133.19)" fill="#263238"/>
          <path id="Path_32817" data-name="Path 32817" d="M250.283,166.709c-.2.23-1.505-.676-3.316-.638s-3.106.995-3.31.778c-.1-.1.1-.5.67-.931a4.566,4.566,0,0,1,2.64-.9,4.464,4.464,0,0,1,2.646.772C250.181,166.218,250.378,166.613,250.283,166.709Z" transform="translate(-158.656 -129.709)" fill="#263238"/>
          <path id="Path_32818" data-name="Path 32818" d="M264.276,179.855a12.692,12.692,0,0,1,2.921-.638c.466-.064.9-.166.963-.485a2.289,2.289,0,0,0-.344-1.358c-.466-1.11-.957-2.264-1.467-3.482-2.041-4.955-3.527-9.03-3.329-9.113s2.015,3.871,4.056,8.826q.74,1.824,1.409,3.5a2.691,2.691,0,0,1,.255,1.843,1.135,1.135,0,0,1-.746.7,2.928,2.928,0,0,1-.778.134A11.632,11.632,0,0,1,264.276,179.855Z" transform="translate(-165.673 -129.622)" fill="#263238"/>
          <path id="Path_32819" data-name="Path 32819" d="M257.814,219.553a33.378,33.378,0,0,1-17.684-4.183s4.674,8.928,17.76,7.366Z" transform="translate(-157.386 -147.951)" fill="#eb996e"/>
          <path id="Path_32820" data-name="Path 32820" d="M261.059,194.132a4.464,4.464,0,0,0-3.718-1.843,2.9,2.9,0,0,0-2.347,1.365,2.653,2.653,0,0,0,3.093,3.89,6.594,6.594,0,0,0,2.621-1.722,2.066,2.066,0,0,0,.548-.689.912.912,0,0,0-.1-.918" transform="translate(-162.634 -139.589)" fill="#eb996e"/>
          <path id="Path_32821" data-name="Path 32821" d="M256.507,190.62c.293,0,.351,1.913,2.073,3.284s3.826,1.071,3.826,1.346c0,.121-.453.389-1.339.44a4.859,4.859,0,0,1-3.189-1.008,4.266,4.266,0,0,1-1.613-2.761C256.163,191.1,256.373,190.614,256.507,190.62Z" transform="translate(-163.222 -138.984)" fill="#263238"/>
          <path id="Path_32822" data-name="Path 32822" d="M250.323,155.291c-.166.5-1.977.319-4.094.638s-3.826.944-4.107.51c-.134-.2.153-.676.829-1.173a7.206,7.206,0,0,1,6.25-.867C249.978,154.653,250.38,155.03,250.323,155.291Z" transform="translate(-158.096 -125.733)" fill="#0091ff"/>
          <path id="Path_32823" data-name="Path 32823" d="M277.145,155.6c-.306.421-1.562,0-3.067.051s-2.755.357-3.061-.064c-.134-.21.057-.638.6-1.027a4.426,4.426,0,0,1,4.936,0C277.094,154.977,277.279,155.4,277.145,155.6Z" transform="translate(-168.561 -125.649)" fill="#0091ff"/>
          <path id="Path_32824" data-name="Path 32824" d="M276.2,141.689a9,9,0,0,0-3.456-4.955c-.944-.638-2.041-.995-2.921-1.7-1.913-1.531-2.334-4.19-3.5-6.326a9.9,9.9,0,0,0-7.544-5.006c-2.6-.268-5.274.51-7.806-.128-1.868-.472-3.5-1.684-5.4-2.047-3.692-.7-7.123,1.951-9.8,4.585,0,2.646,2.1,4.413,4.126,6.109a9.151,9.151,0,0,0,7.423,1.958c2.015-.37,4.228-1.384,5.969-.312s1.913,3.9,3.546,5.312c2.328,2.022,6.026.128,8.979,1,2.283.676,3.711,2.857,5.223,4.694s3.788,3.578,6.071,2.9A26.787,26.787,0,0,0,276.2,141.689Z" transform="translate(-155.807 -113.91)" fill="#0091ff"/>
          <path id="Path_32825" data-name="Path 32825" d="M230.519,131.125c-1.652-.478-5.038-1.55-5.924-2.984a10.1,10.1,0,0,0-8.807-5.057,8.36,8.36,0,0,0-7.519,6.6,12,12,0,0,0-10.318,6.645,13.1,13.1,0,0,0-.638,1.537,9.145,9.145,0,0,0-.638,7.652c.568,1.492,1.543,3.157.778,4.56s-2.761,1.479-4.3,2.009a6.071,6.071,0,0,0-3.826,6.772,7.411,7.411,0,0,1,.485,2.984,6.4,6.4,0,0,1-1.786,2.551,7.544,7.544,0,0,0,4.432,12.333,9.852,9.852,0,0,1,3.476.791c1.167.721,1.677,2.13,2.506,3.227a6.5,6.5,0,0,0,7.066,2.226,5.906,5.906,0,0,0,1.416-.714c.791,1.1,1.684,4.949,3.826,4.949l-.14-30.75a2.27,2.27,0,0,0,1.677,1.314c4.432,1,5.1-8.137,4.094-10.618a25.82,25.82,0,0,0,4.464-4.681c1.224-1.8,2.3-6.741,2.041-8.966C224.435,133.58,231.245,131.316,230.519,131.125Z" transform="translate(-137.852 -114.512)" fill="#0091ff"/>
          <path id="Path_32826" data-name="Path 32826" d="M221.64,177.366c-.14-2.812-3.578-3.412-6.014-2-1.333.772-2.353,2.321-2.232,5.306.325,7.952,8.246,5.982,8.246,5.739S221.806,180.65,221.64,177.366Z" transform="translate(-147.697 -133.192)" fill="#ffbe9d"/>
          <path id="Path_32827" data-name="Path 32827" d="M220.24,185.018c-.038,0-.134.1-.363.217a1.365,1.365,0,0,1-1.033.064c-.855-.274-1.62-1.575-1.715-3.01a4.509,4.509,0,0,1,.306-2,1.613,1.613,0,0,1,.995-1.11.708.708,0,0,1,.835.344c.115.223.07.383.115.4s.166-.14.089-.466a.893.893,0,0,0-.332-.491,1.052,1.052,0,0,0-.778-.166,1.913,1.913,0,0,0-1.4,1.275,4.745,4.745,0,0,0-.389,2.238c.115,1.6,1,3.067,2.162,3.354a1.5,1.5,0,0,0,1.275-.268C220.234,185.21,220.266,185.031,220.24,185.018Z" transform="translate(-148.848 -134.696)" fill="#eb996e"/>
          <path id="Path_32828" data-name="Path 32828" d="M225.164,258.655a1.636,1.636,0,0,1-.357-.153l-.982-.5c-.848-.44-2.066-1.1-3.558-1.913-2.984-1.677-7.047-4.107-11.389-7.015s-8.15-5.739-10.841-7.837c-1.346-1.052-2.423-1.913-3.15-2.551-.344-.287-.638-.523-.842-.714s-.287-.255-.274-.268a2.469,2.469,0,0,1,.319.217l.874.638,3.22,2.455c2.723,2.066,6.543,4.853,10.879,7.748s8.373,5.357,11.319,7.079l3.507,2.028.95.561A1.818,1.818,0,0,1,225.164,258.655Z" transform="translate(-140.59 -156.041)" fill="#263238"/>
          <path id="Path_32829" data-name="Path 32829" d="M280.046,229.539a1.481,1.481,0,0,1-.23.3l-.7.835c-.638.721-1.53,1.741-2.678,2.991-2.3,2.487-5.561,5.848-9.355,9.362s-7.385,6.524-10.044,8.622c-1.326,1.052-2.417,1.913-3.189,2.442l-.88.638a1.627,1.627,0,0,1-.319.2,1.848,1.848,0,0,1,.281-.255l.842-.7,3.112-2.519c2.621-2.149,6.179-5.178,9.967-8.686s7.072-6.836,9.406-9.285l2.755-2.914.752-.791A1.83,1.83,0,0,1,280.046,229.539Z" transform="translate(-161.922 -153.084)" fill="#263238"/>
          <path id="Path_32830" data-name="Path 32830" d="M230.119,248.876c-.064.07-6.377-5.478-14.03-12.391s-13.864-12.544-13.8-12.646,6.339,5.478,14.03,12.4S230.164,248.812,230.119,248.876Z" transform="translate(-143.677 -151.019)" fill="#263238"/>
          <path id="Path_32831" data-name="Path 32831" d="M267.506,228.06a1.277,1.277,0,0,1-.191.242l-.593.638-2.232,2.4c-1.913,2.009-4.515,4.776-7.436,7.812s-5.58,5.778-7.512,7.748l-2.3,2.321-.638.638c-.153.14-.23.2-.242.2a1.277,1.277,0,0,1,.191-.242c.159-.185.357-.4.593-.638l2.226-2.4c1.913-2.009,4.521-4.776,7.442-7.812s5.574-5.778,7.512-7.748l2.3-2.321.638-.638C267.417,228.117,267.494,228.053,267.506,228.06Z" transform="translate(-159.643 -152.548)" fill="#263238"/>
          <path id="Path_32832" data-name="Path 32832" d="M238.475,265.981a1.484,1.484,0,0,1-.287.1,6.16,6.16,0,0,1-.842.217,10.932,10.932,0,0,1-3.189.179,12.512,12.512,0,0,1-4.56-1.32,11.216,11.216,0,0,1-2.347-1.562,5.742,5.742,0,0,1-.542-.5,6.014,6.014,0,0,1-.523-.542c-.166-.2-.338-.37-.5-.593a1.091,1.091,0,0,1-.185-.408.638.638,0,0,1,.108-.491,1.116,1.116,0,0,1,.791-.376,6.328,6.328,0,0,1,.778,0,14.171,14.171,0,0,1,1.486.1,14.84,14.84,0,0,1,2.755.574A15.942,15.942,0,0,1,235.7,263.4a14.185,14.185,0,0,1,2.436,2.073,7.882,7.882,0,0,1,.568.638c.128.153.185.236.179.249a21.122,21.122,0,0,0-3.31-2.787,16.632,16.632,0,0,0-4.241-1.945,15.254,15.254,0,0,0-2.7-.548,13.594,13.594,0,0,0-1.454-.089,6.965,6.965,0,0,0-.733,0,.861.861,0,0,0-.561.236c-.23.293.255.727.555,1.078a6.661,6.661,0,0,0,.5.536,5.41,5.41,0,0,0,.529.485,11.164,11.164,0,0,0,2.27,1.543,12.753,12.753,0,0,0,4.464,1.352,11.871,11.871,0,0,0,3.15-.07A10.088,10.088,0,0,1,238.475,265.981Z" transform="translate(-152.083 -164.362)" fill="#fff"/>
          <path id="Path_32833" data-name="Path 32833" d="M246.453,264.327a.931.931,0,0,1,0-.293,6.168,6.168,0,0,1,.159-.829,9.087,9.087,0,0,1,1.333-2.793,14.488,14.488,0,0,1,3.22-3.271c.689-.529,1.435-1.039,2.219-1.556.4-.255.784-.517,1.212-.772a2.424,2.424,0,0,1,.721-.3,1.173,1.173,0,0,1,.835.115,1.365,1.365,0,0,1,.529,1.479,3.4,3.4,0,0,1-.721,1.275,18.776,18.776,0,0,1-1.817,2.022,19.211,19.211,0,0,1-3.667,2.761,17.4,17.4,0,0,1-2.8,1.314c-.344.128-.638.21-.8.261a.774.774,0,0,1-.287.064,11.256,11.256,0,0,1,1.039-.446,20.9,20.9,0,0,0,2.723-1.39,19.99,19.99,0,0,0,3.571-2.787,18.825,18.825,0,0,0,1.779-2,3.232,3.232,0,0,0,.638-1.18,1.039,1.039,0,0,0-.383-1.116,1.224,1.224,0,0,0-1.218.185c-.4.236-.81.51-1.2.759-.784.51-1.531,1.008-2.207,1.524a14.759,14.759,0,0,0-3.189,3.189,9.655,9.655,0,0,0-1.4,2.7C246.536,263.931,246.479,264.333,246.453,264.327Z" transform="translate(-159.673 -162.121)" fill="#fff"/>
          <path id="Path_32834" data-name="Path 32834" d="M246.325,288.541a4.265,4.265,0,0,1-.2-.752c-.115-.485-.249-1.192-.383-2.073a51.1,51.1,0,0,1-.249-13.9c.108-.886.217-1.594.313-2.085a3.894,3.894,0,0,1,.172-.759,3.258,3.258,0,0,1-.045.778c-.057.491-.128,1.205-.2,2.092a63.821,63.821,0,0,0,.242,13.838c.108.886.2,1.594.281,2.092A3.457,3.457,0,0,1,246.325,288.541Z" transform="translate(-159.2 -167.37)" fill="#fff"/>
          <path id="Path_32835" data-name="Path 32835" d="M250.625,285.821a2.78,2.78,0,0,1-.281-.606c-.159-.4-.376-.982-.638-1.709-.51-1.454-1.148-3.488-1.722-5.739s-.988-4.368-1.237-5.892c-.121-.759-.21-1.377-.255-1.8a2.78,2.78,0,0,1-.045-.67,2.55,2.55,0,0,1,.172.638c.1.491.217,1.084.364,1.786.3,1.5.746,3.578,1.32,5.848s1.173,4.3,1.626,5.739c.2.682.383,1.275.529,1.741A2.239,2.239,0,0,1,250.625,285.821Z" transform="translate(-159.674 -167.526)" fill="#fff"/>
        </g>
      </g>
    </g>
  </g>
</svg>
