<svg xmlns="http://www.w3.org/2000/svg" viewBox="0 0 48 48"><defs><style>.cls-1{fill:none;}.cls-2{fill:#b3b3b3;}</style></defs><g id="Layer_2" data-name="Layer 2"><g id="Layer_1-2" data-name="Layer 1"><rect class="cls-1" width="48" height="48"/><rect class="cls-1" x="0.92" y="0.92" width="46.17" height="46.17"/><path class="cls-2" d="M43.74,24.58H35.55c-.24-1-.46-1.95-.7-3h8.9c1.11,0,1.58-.49,1.56-1.61A17.46,17.46,0,0,0,39.7,7.17,17.24,17.24,0,0,0,29.09,2.43c-.12,0-.24-.05-.36-.07H27.21a1.7,1.7,0,0,0-.93,1.76c0,2.89,0,5.78,0,8.66v.51l-2.88-.6V9.43c0-.47,0-.93,0-1.4A1.28,1.28,0,0,0,22,6.68,19.09,19.09,0,0,0,9.5,11.36,18.81,18.81,0,0,0,3,23.07,19,19,0,0,0,7.29,38.72a18.89,18.89,0,0,0,11,6.52c.74.16,1.5.22,2.25.33.12,0,.24,0,.36.07h2.53c.93-.14,1.86-.24,2.78-.43a18.88,18.88,0,0,0,7.68-3.51,1.28,1.28,0,0,0,.24-1.9c-.81-1.07-1.65-2.14-2.47-3.21l-.36-.46,2.27-2.72c.75,1,1.51,2,2.27,2.94.44.56.86,1.12,1.3,1.67a1.26,1.26,0,0,0,1.89.23,15.67,15.67,0,0,0,6.16-12.2A1.28,1.28,0,0,0,43.74,24.58ZM31.32,40.35a16.9,16.9,0,1,1-10.47-31c0,.11,0,.22,0,.32v3c-6.21,1.05-10.41,4.41-11.81,10.59a12.6,12.6,0,0,0,5,13.6c4.78,3.61,9.92,3.6,15.17.79Zm-9.18-3.26A10.93,10.93,0,1,1,33,26.16,10.94,10.94,0,0,1,22.14,37.09ZM33.37,18.78a13.74,13.74,0,0,0-4.22-4.13.62.62,0,0,1-.3-.43c0-3,0-6,0-9a.76.76,0,0,1,0-.16A15.07,15.07,0,0,1,42.71,19l-.44,0H34A.59.59,0,0,1,33.37,18.78Zm5,16.69L38,35c-1-1.28-2-2.57-3-3.84a.66.66,0,0,1-.13-.65c.29-1.09.53-2.18.8-3.33h6.9A13.28,13.28,0,0,1,38.37,35.47ZM23.66,24.19l-2.49,0a1.88,1.88,0,0,1-.63-.08A1,1,0,0,1,19.9,23a1,1,0,0,1,.93-.88c.71,0,1.41,0,2.12,0a2,2,0,0,1,1.54.57A1.13,1.13,0,0,0,26,21,3.94,3.94,0,0,0,25,20.2a12.88,12.88,0,0,0-1.69-.54c0-.25,0-.56,0-.88a1.15,1.15,0,0,0-1.15-1.15A1.13,1.13,0,0,0,21,18.78c0,.31,0,.62,0,.92-.05,0-.07.05-.09.05l-.37.05a3.24,3.24,0,0,0-2.48,1.59A3.34,3.34,0,0,0,21,26.44c.75,0,1.51,0,2.26,0a1.51,1.51,0,0,1,.82.29.93.93,0,0,1,.28,1.1,1,1,0,0,1-1,.7c-.66,0-1.33,0-2,0a2.73,2.73,0,0,1-1.55-.36,1.08,1.08,0,0,0-1.48.39,1.1,1.1,0,0,0,.32,1.53,5.33,5.33,0,0,0,1.26.58,6.55,6.55,0,0,0,1.12.18v.92a1.14,1.14,0,1,0,2.27,0c0-.3,0-.6,0-.94l.49-.06a3.32,3.32,0,0,0-.12-6.61Z"/></g></g></svg>