<svg xmlns="http://www.w3.org/2000/svg" viewBox="0 0 48 48"><defs><style>.cls-1,.cls-3{fill:none;}.cls-2{fill:#b3b3b3;}.cls-3{stroke:#b3b3b3;stroke-miterlimit:10;stroke-width:0.84px;}</style></defs><g id="Layer_2" data-name="Layer 2"><g id="Layer_1-2" data-name="Layer 1"><rect class="cls-1" width="48" height="48"/><path class="cls-2" d="M45.92,37.48a6.4,6.4,0,0,0-5.77-6.09c-2.44-.17-4.9,0-7.35,0a.73.73,0,0,1-.52-.22,6.62,6.62,0,0,0-5.55-2.76H21.25a6.56,6.56,0,0,0-5.54,2.77.62.62,0,0,1-.43.22c-2.32,0-4.64-.1-6.95,0A6.43,6.43,0,0,0,2.14,37a29.56,29.56,0,0,0-.09,3.65,5.11,5.11,0,0,0,5.26,5.29h7.14V44.45H7.88v-8H6.44v7.89a3.37,3.37,0,0,1-2.82-2.78,28.44,28.44,0,0,1-.11-3.46,5.13,5.13,0,0,1,5.32-5.34h6a12.18,12.18,0,0,0-.29,1.9q-.06,3.89,0,7.77a3.48,3.48,0,0,0,2.73,3.36A24,24,0,0,0,20.3,46V34.25H18.87V44.44a2.38,2.38,0,0,1-2.94-2.62c.08-2.23,0-4.45,0-6.68a5.12,5.12,0,0,1,5.3-5.3h5.49A5.13,5.13,0,0,1,32,35.14v6.91A2.27,2.27,0,0,1,29.1,44.4V34.25H27.69V45.92c.79,0,1.55,0,2.31,0a3.54,3.54,0,0,0,3.48-3.45c0-3.22.29-6.45-.26-9.67a.74.74,0,0,1,.18,0c2.08,0,4.15-.06,6.22,0a5,5,0,0,1,4.71,4,11.91,11.91,0,0,1,.14,2.32,14.9,14.9,0,0,1-.1,2.5,3.4,3.4,0,0,1-2.83,2.77v-7.9H40.09v8H33.53v1.43l.25,0c2.41,0,4.81,0,7.22,0a5,5,0,0,0,4.83-4.24A25.6,25.6,0,0,0,45.92,37.48ZM6.42,26.13V24.77c-.63-.26-.71-.4-.72-1.1V19.88c0-.78.24-1,1-1,1.11,0,2.22,0,3.33,0,.14,0,.37-.12.4-.23a14.84,14.84,0,0,1,1.87-4.35L12,13.92l-2.4-2.39a.73.73,0,0,1,0-1.16l3-3a.74.74,0,0,1,1.13,0c.49.46,1,.94,1.43,1.42l1.29,1.35a13.62,13.62,0,0,1,4.29-1.85c.31-.08.37-.22.36-.5q0-1.69,0-3.39c0-.62.26-.9.88-.9H26c.63,0,.9.27.9.89v2.7c0,1.06,0,1.06,1,1.37a2,2,0,0,1,.35.11L31.64,10l2.54-2.56c.5-.5.86-.5,1.36,0l2.74,2.75c.55.55.55.87,0,1.42-.86.87-1.73,1.72-2.6,2.59.07.12.11.22.16.3a13.19,13.19,0,0,1,1.65,4c.08.33.23.39.54.39,1.11,0,2.22,0,3.33,0,.66,0,.92.27.92.92,0,1.31,0,2.62,0,3.93,0,.66-.1.81-.71,1.06v1.38A2.14,2.14,0,0,0,43.74,24c0-1.42,0-2.84,0-4.25a2.22,2.22,0,0,0-2.36-2.34H39.06c-.13,0-.34-.06-.38-.15-.38-.92-.74-1.85-1.13-2.83.62-.6,1.26-1.22,1.89-1.86a2.17,2.17,0,0,0,0-3.25Q38,7.83,36.52,6.39a2.23,2.23,0,0,0-3.33,0c-.56.56-1.11,1.13-1.69,1.67a.51.51,0,0,1-.45.08c-.79-.31-1.57-.67-2.36-1-.26-.09-.31-.21-.31-.46,0-.8,0-1.61,0-2.42A2.18,2.18,0,0,0,26.17,2c-1.45,0-2.9,0-4.34,0a2.18,2.18,0,0,0-2.22,2.24c0,.82,0,1.65,0,2.47a.38.38,0,0,1-.3.42c-.78.3-1.55.63-2.31,1a.41.41,0,0,1-.55-.09c-.52-.54-1-1.06-1.58-1.59a2.25,2.25,0,0,0-3.46,0L8.63,9.23a2.2,2.2,0,0,0,0,3.41l1.8,1.79c-.38,1-.73,1.87-1.11,2.76a.53.53,0,0,1-.38.2c-.82,0-1.65,0-2.47,0a2.16,2.16,0,0,0-2.21,2.05c0,1.56,0,3.11,0,4.67A2.08,2.08,0,0,0,6.42,26.13Zm26.37-4.36h1.47a10,10,0,0,0-5.19-8.84,9.75,9.75,0,0,0-10.76.37,10,10,0,0,0-4.57,8.46h1.44A8.84,8.84,0,0,1,23.69,13a8.49,8.49,0,0,1,5.7,1.86A8.76,8.76,0,0,1,32.79,21.77ZM19.61,23.24A4.39,4.39,0,1,0,24,18.86,4.39,4.39,0,0,0,19.61,23.24Zm7.31,0A2.93,2.93,0,1,1,24,20.33,2.92,2.92,0,0,1,26.92,23.26ZM11.58,21.79A4.39,4.39,0,1,0,16,26.21,4.41,4.41,0,0,0,11.58,21.79Zm0,7.31a2.93,2.93,0,1,1,2.93-2.92A2.92,2.92,0,0,1,11.55,29.1Zm24.86,1.46A4.39,4.39,0,1,0,32,26.16,4.39,4.39,0,0,0,36.41,30.56Zm0-7.31a3,3,0,0,1,2.91,2.92,2.93,2.93,0,1,1-2.91-2.92ZM21.11,45.91H26.9V44.5H21.11Z"/><path class="cls-3" d="M45.92,37.48a6.4,6.4,0,0,0-5.77-6.09c-2.44-.17-4.9,0-7.35,0a.73.73,0,0,1-.52-.22,6.62,6.62,0,0,0-5.55-2.76H21.25a6.56,6.56,0,0,0-5.54,2.77.62.62,0,0,1-.43.22c-2.32,0-4.64-.1-6.95,0A6.43,6.43,0,0,0,2.14,37a29.56,29.56,0,0,0-.09,3.65,5.11,5.11,0,0,0,5.26,5.29h7.14V44.45H7.88v-8H6.44v7.89a3.37,3.37,0,0,1-2.82-2.78,28.44,28.44,0,0,1-.11-3.46,5.13,5.13,0,0,1,5.32-5.34h6a12.18,12.18,0,0,0-.29,1.9q-.06,3.89,0,7.77a3.48,3.48,0,0,0,2.73,3.36A24,24,0,0,0,20.3,46V34.25H18.87V44.44a2.38,2.38,0,0,1-2.94-2.62c.08-2.23,0-4.45,0-6.68a5.12,5.12,0,0,1,5.3-5.3h5.49A5.13,5.13,0,0,1,32,35.14v6.91A2.27,2.27,0,0,1,29.1,44.4V34.25H27.69V45.92c.79,0,1.55,0,2.31,0a3.54,3.54,0,0,0,3.48-3.45c0-3.22.29-6.45-.26-9.67a.74.74,0,0,1,.18,0c2.08,0,4.15-.06,6.22,0a5,5,0,0,1,4.71,4,11.91,11.91,0,0,1,.14,2.32,14.9,14.9,0,0,1-.1,2.5,3.4,3.4,0,0,1-2.83,2.77v-7.9H40.09v8H33.53v1.43l.25,0c2.41,0,4.81,0,7.22,0a5,5,0,0,0,4.83-4.24A25.6,25.6,0,0,0,45.92,37.48ZM6.42,26.13V24.77c-.63-.26-.71-.4-.72-1.1V19.88c0-.78.24-1,1-1,1.11,0,2.22,0,3.33,0,.14,0,.37-.12.4-.23a14.84,14.84,0,0,1,1.87-4.35L12,13.92l-2.4-2.39a.73.73,0,0,1,0-1.16l3-3a.74.74,0,0,1,1.13,0c.49.46,1,.94,1.43,1.42l1.29,1.35a13.62,13.62,0,0,1,4.29-1.85c.31-.08.37-.22.36-.5q0-1.69,0-3.39c0-.62.26-.9.88-.9H26c.63,0,.9.27.9.89v2.7c0,1.06,0,1.06,1,1.37a2,2,0,0,1,.35.11L31.64,10l2.54-2.56c.5-.5.86-.5,1.36,0l2.74,2.75c.55.55.55.87,0,1.42-.86.87-1.73,1.72-2.6,2.59.07.12.11.22.16.3a13.19,13.19,0,0,1,1.65,4c.08.33.23.39.54.39,1.11,0,2.22,0,3.33,0,.66,0,.92.27.92.92,0,1.31,0,2.62,0,3.93,0,.66-.1.81-.71,1.06v1.38A2.14,2.14,0,0,0,43.74,24c0-1.42,0-2.84,0-4.25a2.22,2.22,0,0,0-2.36-2.34H39.06c-.13,0-.34-.06-.38-.15-.38-.92-.74-1.85-1.13-2.83.62-.6,1.26-1.22,1.89-1.86a2.17,2.17,0,0,0,0-3.25Q38,7.83,36.52,6.39a2.23,2.23,0,0,0-3.33,0c-.56.56-1.11,1.13-1.69,1.67a.51.51,0,0,1-.45.08c-.79-.31-1.57-.67-2.36-1-.26-.09-.31-.21-.31-.46,0-.8,0-1.61,0-2.42A2.18,2.18,0,0,0,26.17,2c-1.45,0-2.9,0-4.34,0a2.18,2.18,0,0,0-2.22,2.24c0,.82,0,1.65,0,2.47a.38.38,0,0,1-.3.42c-.78.3-1.55.63-2.31,1a.41.41,0,0,1-.55-.09c-.52-.54-1-1.06-1.58-1.59a2.25,2.25,0,0,0-3.46,0L8.63,9.23a2.2,2.2,0,0,0,0,3.41l1.8,1.79c-.38,1-.73,1.87-1.11,2.76a.53.53,0,0,1-.38.2c-.82,0-1.65,0-2.47,0a2.16,2.16,0,0,0-2.21,2.05c0,1.56,0,3.11,0,4.67A2.08,2.08,0,0,0,6.42,26.13Zm26.37-4.36h1.47a10,10,0,0,0-5.19-8.84,9.75,9.75,0,0,0-10.76.37,10,10,0,0,0-4.57,8.46h1.44A8.84,8.84,0,0,1,23.69,13a8.49,8.49,0,0,1,5.7,1.86A8.76,8.76,0,0,1,32.79,21.77ZM19.61,23.24A4.39,4.39,0,1,0,24,18.86,4.39,4.39,0,0,0,19.61,23.24Zm7.31,0A2.93,2.93,0,1,1,24,20.33,2.92,2.92,0,0,1,26.92,23.26ZM11.58,21.79A4.39,4.39,0,1,0,16,26.21,4.41,4.41,0,0,0,11.58,21.79Zm0,7.31a2.93,2.93,0,1,1,2.93-2.92A2.92,2.92,0,0,1,11.55,29.1Zm24.86,1.46A4.39,4.39,0,1,0,32,26.16,4.39,4.39,0,0,0,36.41,30.56Zm0-7.31a3,3,0,0,1,2.91,2.92,2.93,2.93,0,1,1-2.91-2.92ZM21.11,45.91H26.9V44.5H21.11Z"/></g></g></svg>