<svg xmlns="http://www.w3.org/2000/svg" viewBox="0 0 28 28"><defs><style>.cls-1{fill:none;}.cls-2{fill:#0091ff;}</style></defs><g id="Layer_2" data-name="Layer 2"><g id="Layer_1-2" data-name="Layer 1"><rect class="cls-1" width="28" height="28"/><path class="cls-2" d="M27.41,19.47c-.3-.73-.61-1.46-.92-2.18a.81.81,0,0,0-1.17-.49l-2.21.94a.79.79,0,0,0-.48,1.06.81.81,0,0,0,1.11.39l.57-.23c0,.11-.07.18-.1.24a11.07,11.07,0,0,1-8.9,6.6,10.89,10.89,0,0,1-9-2.74,11.09,11.09,0,0,1-3.46-5.58.8.8,0,0,0-1-.63.81.81,0,0,0-.51,1,12.75,12.75,0,0,0,10.21,9.38c.48.11,1,.15,1.48.22h1.58c.55-.08,1.1-.12,1.64-.24a12.82,12.82,0,0,0,9.4-7.47l.08-.15c.08.17.13.31.19.44a.8.8,0,0,0,1.06.51A.79.79,0,0,0,27.41,19.47ZM2.6,11.06c.79-.32,1.58-.66,2.36-1A.78.78,0,0,0,5.38,9a.8.8,0,0,0-1-.39l-.54.22c0-.13.08-.21.12-.29A11.05,11.05,0,0,1,13.2,2.14a10.92,10.92,0,0,1,9.19,3.48,11.11,11.11,0,0,1,2.74,4.92.78.78,0,0,0,1,.6.8.8,0,0,0,.53-1c-.17-.54-.33-1.08-.54-1.59A12.77,12.77,0,0,0,12.6.61,12.59,12.59,0,0,0,2.44,8c0,.09-.09.18-.16.31C2.18,8,2.11,7.85,2,7.66a.81.81,0,0,0-1-.45,1,1,0,0,0-.56.56v.42a2,2,0,0,1,.11.2c.31.74.62,1.48.94,2.21A.77.77,0,0,0,2.6,11.06Zm18.13,5.28a2.35,2.35,0,0,0,1.39-.76,2.37,2.37,0,0,0-1.35-3.92.49.49,0,0,1-.35-.77,2.36,2.36,0,0,0,.45-1.28,2.38,2.38,0,0,0-3.8-2,.38.38,0,0,1-.18.09.63.63,0,0,1-.55-.47,2.37,2.37,0,0,0-4.67,0,.5.5,0,0,1-.76.32,2.45,2.45,0,0,0-1.56-.46A2.38,2.38,0,0,0,7.6,10.9a.49.49,0,0,1-.32.75,2.34,2.34,0,0,0-1.37.73,2.38,2.38,0,0,0,1.33,3.95.49.49,0,0,1,.35.77,2.38,2.38,0,0,0,.82,3.48,2.28,2.28,0,0,0,2.53-.2c.06,0,.14-.1.2-.09a.58.58,0,0,1,.54.52.83.83,0,0,0,0,.15,2.37,2.37,0,0,0,4.62-.21.49.49,0,0,1,.78-.33,2.37,2.37,0,0,0,3.31-3.31A.49.49,0,0,1,20.73,16.34Zm-.83-1.55a.78.78,0,0,0-.72.52l-.59,1.41a.78.78,0,0,0,.15.88l.29.3A.79.79,0,1,1,17.91,19l-.3-.3a.79.79,0,0,0-.9-.13l-1.36.56a.79.79,0,0,0-.55.76c0,.16,0,.32,0,.48a.79.79,0,0,1-1.57,0c0-.16,0-.32,0-.47a.79.79,0,0,0-.54-.76c-.46-.19-.91-.37-1.36-.57a.81.81,0,0,0-.92.15l-.35.33a.79.79,0,0,1-1.1-1.13c.11-.12.23-.22.33-.34a.77.77,0,0,0,.14-.9c-.19-.45-.38-.9-.56-1.36a.81.81,0,0,0-.78-.55H7.62A.79.79,0,0,1,6.86,14a.75.75,0,0,1,.77-.77,1.14,1.14,0,0,0,1.38-1,4.14,4.14,0,0,1,.37-.84.81.81,0,0,0-.15-1c-.1-.11-.22-.21-.31-.32A.79.79,0,0,1,10,8.89c.13.11.24.23.36.35a.82.82,0,0,0,1,.15l1.33-.55a.8.8,0,0,0,.56-.78c0-.15,0-.3,0-.45A.78.78,0,0,1,14,6.85a.8.8,0,0,1,.8.76V8a.81.81,0,0,0,.58.82c.43.16.86.34,1.29.53a.81.81,0,0,0,1-.16A3.15,3.15,0,0,1,18,8.87a.75.75,0,0,1,.82-.07.9.9,0,0,1,.47.73,4.25,4.25,0,0,1-.27.52,2.42,2.42,0,0,1-.31.33.81.81,0,0,0-.15.92c.2.44.38.89.56,1.33a.8.8,0,0,0,.77.57c.14,0,.28,0,.42,0a.8.8,0,0,1,.8.79.79.79,0,0,1-.81.79ZM14,11.62A2.38,2.38,0,1,0,16.38,14,2.39,2.39,0,0,0,14,11.62Zm0,3.16a.79.79,0,0,1-.8-.79A.8.8,0,0,1,14,13.2a.81.81,0,0,1,.8.78A.8.8,0,0,1,14,14.78Z"/></g></g></svg>