<svg xmlns="http://www.w3.org/2000/svg" viewBox="0 0 32 32"><defs><style>.cls-1{fill:none;}.cls-2{fill:#b3b3b3;}.cls-3{fill:#0091ff;}</style></defs><g id="Layer_2" data-name="Layer 2"><g id="Layer_1-2" data-name="Layer 1"><rect class="cls-1" width="32" height="32"/><path class="cls-2" d="M23.46,22.8c-1.06-.61-2.11-1.23-3.18-1.82a2.41,2.41,0,0,0-.89-.3,2.18,2.18,0,0,0-2.24,1.21,1.34,1.34,0,0,1-2.12.42c-.49-.38-1-.77-1.43-1.17a27,27,0,0,1-3.93-4.2,1.34,1.34,0,0,1,.41-2.07l.25-.15a2.17,2.17,0,0,0,.77-2.87q-1-1.76-2-3.48A2.11,2.11,0,0,0,6.55,7.5c-.84.31-1.66.67-2.48,1a3.15,3.15,0,0,0-1.78,2.14c-.09.3-.14.61-.21.92v1.14l.09.47a13.51,13.51,0,0,0,1.65,4.52A27.43,27.43,0,0,0,10,25.2a22.16,22.16,0,0,0,6.25,3.94,8.51,8.51,0,0,0,4.34.72,3.37,3.37,0,0,0,2.87-2c.32-.73.64-1.46.93-2.2A2.18,2.18,0,0,0,23.46,22.8Zm-.6,2.09c-.35.84-.7,1.69-1.09,2.51a1.43,1.43,0,0,1-1,.67,5,5,0,0,1-2.62-.15,16,16,0,0,1-5.22-2.67,26.42,26.42,0,0,1-7.54-8.31A11.93,11.93,0,0,1,3.91,13.1c-.05-.3-.07-.61-.11-1s.07-.61.14-.92a1.58,1.58,0,0,1,.95-1.15L7,9.16a.45.45,0,0,1,.64.23l1.83,3.18c.19.32.11.56-.24.76a3,3,0,0,0-1.59,2.09,3,3,0,0,0,.55,2.5,29.06,29.06,0,0,0,5.86,5.86,3.08,3.08,0,0,0,4.48-.86c0-.07.08-.15.12-.21a.48.48,0,0,1,.77-.2l3.11,1.79a.53.53,0,0,1,.29.59Zm6.9-13.36A11.32,11.32,0,0,0,21,2.35c-.56-.12-1.14-.18-1.71-.27H17.8c-.39.06-.77.1-1.15.17a11.19,11.19,0,0,0-6,3.14.86.86,0,0,0-.18,1,.91.91,0,0,0,1.49.16A9.52,9.52,0,0,1,22.67,4.73a9.6,9.6,0,0,1,2.78,15.39,1.22,1.22,0,0,0-.3.56.81.81,0,0,0,.48.91.89.89,0,0,0,1-.23A11.16,11.16,0,0,0,29.76,11.53Z"/><path class="cls-3" d="M15.45,14.85h2.44a.9.9,0,0,1,1,.88.88.88,0,0,1-1,.86H13.77A.87.87,0,0,1,13,15.25a7.3,7.3,0,0,1,1.94-2.2c.51-.42,1-.83,1.54-1.26a1.07,1.07,0,0,0,.42-.79,1,1,0,0,0-.54-1.1,1.42,1.42,0,0,0-1.51.13,1,1,0,0,0-.24.83.87.87,0,0,1-1,.9.89.89,0,0,1-.78-.88A2.64,2.64,0,0,1,15.37,8,3.3,3.3,0,0,1,17,8.29a2.84,2.84,0,0,1,1,4.31,10.6,10.6,0,0,1-1.25,1.16C16.38,14.12,15.94,14.45,15.45,14.85Z"/><path class="cls-3" d="M22.66,14.77h-3.1a.87.87,0,0,1-.91-.5.89.89,0,0,1,.19-1l4-4.85a.88.88,0,0,1,1-.35.89.89,0,0,1,.58.94c0,1.24,0,2.47,0,3.7V13a.94.94,0,0,1,.86.38,1.17,1.17,0,0,1,.16.54c0,.47-.28.71-1,.87,0,.31,0,.63,0,.94a.87.87,0,0,1-.66.83.85.85,0,0,1-1-.41,1.14,1.14,0,0,1-.12-.49c0-.27,0-.54,0-.82C22.7,14.85,22.68,14.83,22.66,14.77Zm0-1.75v-1.7L21.29,13Z"/></g></g></svg>