<svg xmlns="http://www.w3.org/2000/svg" viewBox="0 0 127.14 126.65"><defs><style>.cls-1{fill:#0091ff;}</style></defs><g id="Layer_2" data-name="Layer 2"><g id="Layer_1-2" data-name="Layer 1"><path class="cls-1" d="M115.6,0h-104C5.78,0,1.57,3.4.21,9.11A5.71,5.71,0,0,1,0,9.69V117c.19.67.35,1.35.57,2a11.19,11.19,0,0,0,10.64,7.66c7,0,14.07,0,21.1,0h83c5.66,0,10-3.17,11.38-8.31a12.65,12.65,0,0,0,.39-3.18q0-51.83,0-103.65A11.12,11.12,0,0,0,115.6,0Zm4.09,38.62v76.09c0,3.07-1.4,4.48-4.46,4.48H12c-3.13,0-4.5-1.39-4.5-4.56V37.3H119.69Zm0-8.87H7.51c0-.43-.06-.83-.06-1.23V11.77c0-2.89,1.45-4.32,4.36-4.32H115.33q4.36,0,4.36,4.33v18ZM52.61,108c1.74-.1,2.8-1.24,3.53-3q8.47-19.87,17-39.74c1.66-3.87,3.34-7.74,5-11.62a3.69,3.69,0,0,0-1.19-4.55,3.53,3.53,0,0,0-4.47.12A6.27,6.27,0,0,0,71,51.39Q62.47,71.25,54,91.13c-1.66,3.87-3.35,7.73-5,11.62A3.73,3.73,0,0,0,52.61,108Zm-32-26.63c3.29,2.65,6.59,5.27,9.88,7.91,2.78,2.22,5.52,4.48,8.34,6.65a3.7,3.7,0,0,0,6.06-2.17,3.85,3.85,0,0,0-1.69-3.87c-4.82-3.83-9.62-7.68-14.6-11.67l1.27-1L43.21,66.51c1.95-1.57,2.29-3.82.88-5.55s-3.61-1.81-5.52-.28q-9,7.2-18,14.41C18.26,76.94,18.28,79.52,20.59,81.38ZM83.9,90C82,91.5,81.65,93.7,83,95.43s3.61,1.9,5.51.38q9.08-7.22,18.12-14.48a3.73,3.73,0,0,0,0-6.23q-9-7.26-18.12-14.48a3.73,3.73,0,1,0-4.67,5.79c1.6,1.3,3.23,2.58,4.84,3.88l9.9,7.92-1.2,1Q90.63,84.59,83.9,90Zm24-75.08H86.31c-2.41,0-4.09,1.53-4.11,3.69s1.68,3.75,4.17,3.76h21.44c2.5,0,4.19-1.54,4.18-3.75S110.29,14.91,107.88,14.9Zm-89,0a3.72,3.72,0,1,0,3.7,3.7A3.76,3.76,0,0,0,18.89,14.91Zm14.93,0a3.72,3.72,0,1,0,3.67,3.73A3.76,3.76,0,0,0,33.82,14.91Zm14.89,0a3.72,3.72,0,1,0,3.68,3.72A3.76,3.76,0,0,0,48.71,14.91Z"/></g></g></svg>