<svg xmlns="http://www.w3.org/2000/svg" viewBox="0 0 32 32"><defs><style>.cls-1{fill:none;}.cls-2{fill:#b4b7c9;}.cls-3{fill:#0091ff;}</style></defs><g id="Layer_2" data-name="Layer 2"><g id="Layer_1-2" data-name="Layer 1"><rect class="cls-1" width="32" height="32"/><path class="cls-2" d="M29.68,16.4H24c-.16-.69-.31-1.35-.48-2.06h6.17c.77,0,1.09-.34,1.08-1.11a12.1,12.1,0,0,0-3.89-8.89,11.93,11.93,0,0,0-7.35-3.29L19.28,1H18.22a1.2,1.2,0,0,0-.64,1.22c0,2,0,4,0,6v.35l-2-.42V4.93a.89.89,0,0,0-1-.94A13.23,13.23,0,0,0,6,7.24a13,13,0,0,0-4.54,8.12,13.15,13.15,0,0,0,3,10.84A13,13,0,0,0,12,30.72c.51.11,1,.15,1.56.23l.25.05h1.75c.65-.1,1.29-.17,1.93-.3a13.1,13.1,0,0,0,5.32-2.43A.89.89,0,0,0,23,27l-1.72-2.22c-.08-.12-.17-.23-.24-.32l1.57-1.89,1.58,2c.29.39.59.78.89,1.16a.88.88,0,0,0,1.31.16,10.88,10.88,0,0,0,4.28-8.46A.9.9,0,0,0,29.68,16.4Zm-8.6,10.93A11.72,11.72,0,1,1,13.82,5.82c0,.08,0,.15,0,.23v2.1c-4.3.73-7.22,3.06-8.19,7.34a8.74,8.74,0,0,0,3.48,9.43c3.31,2.5,6.87,2.5,10.52.55Zm-6.37-2.26a7.58,7.58,0,1,1,7.55-7.57A7.57,7.57,0,0,1,14.71,25.07Zm7.78-12.69a9.6,9.6,0,0,0-2.92-2.86.44.44,0,0,1-.21-.3q0-3.14,0-6.27s0-.07,0-.11A10.46,10.46,0,0,1,29,12.56l-.31,0H22.9A.42.42,0,0,1,22.49,12.38ZM26,24a4,4,0,0,1-.28-.36c-.69-.88-1.37-1.77-2.06-2.66a.43.43,0,0,1-.09-.45c.2-.75.36-1.51.55-2.31h4.78A9.22,9.22,0,0,1,26,24Z"/><path class="cls-3" d="M15.76,16.13a2.3,2.3,0,0,1,.09,4.58l-.34.05c0,.23,0,.44,0,.65a.8.8,0,0,1-.79.81.79.79,0,0,1-.78-.81c0-.21,0-.42,0-.64a4.7,4.7,0,0,1-.78-.13,4,4,0,0,1-.87-.4.78.78,0,0,1,.8-1.33,1.86,1.86,0,0,0,1.08.25c.46,0,.92,0,1.38,0a.71.71,0,0,0,.7-.49.62.62,0,0,0-.19-.76,1.13,1.13,0,0,0-.57-.21c-.52,0-1,0-1.56,0a2.31,2.31,0,0,1-2-3.5,2.19,2.19,0,0,1,1.71-1.1l.26,0,.07,0c0-.2,0-.42,0-.64a.79.79,0,0,1,.77-.8.81.81,0,0,1,.8.8c0,.22,0,.44,0,.61a11.49,11.49,0,0,1,1.17.37,2.94,2.94,0,0,1,.73.54.76.76,0,0,1,0,1.1.75.75,0,0,1-1.1,0,1.43,1.43,0,0,0-1.07-.39c-.49,0-1,0-1.47,0a.68.68,0,0,0-.64.61.69.69,0,0,0,.44.78,1.61,1.61,0,0,0,.44.06"/></g></g></svg>