<svg xmlns="http://www.w3.org/2000/svg" viewBox="0 0 28 28"><defs><style>.cls-1{fill:none;}.cls-2{fill:#0091ff;}</style></defs><g id="Layer_2" data-name="Layer 2"><g id="Layer_1-2" data-name="Layer 1"><rect class="cls-1" width="28" height="28"/><path class="cls-2" d="M25.27,3.42A2.75,2.75,0,0,0,22.8,2H5a2.93,2.93,0,0,0-2.9,2.9q0,8.92,0,17.84a3,3,0,0,0,2.46,2.88l.13.05H23.13l.29-.08a2.92,2.92,0,0,0,2.26-2.41l0-.1V4.59A7.46,7.46,0,0,0,25.27,3.42Zm-.94,4.77V22.57a1.58,1.58,0,0,1-1.7,1.72H5.13A1.58,1.58,0,0,1,3.44,22.6V7.93H24.33Zm0-1.67H3.44c0-.57,0-1.13,0-1.68A1.56,1.56,0,0,1,4.93,3.39H22.59a1.58,1.58,0,0,1,1.74,1.75ZM8.59,18.27a2.24,2.24,0,0,0,3.12,3.1c.45,1.25,1.15,1.82,2.2,1.81s1.74-.57,2.19-1.81a2.24,2.24,0,0,0,3.1-3.1,2.24,2.24,0,0,0,0-4.39,2.24,2.24,0,0,0-.2-2.76c-.72-.78-1.63-.9-2.89-.36a2.23,2.23,0,0,0-4.38,0A2.26,2.26,0,0,0,8.93,11a2.09,2.09,0,0,0-.66,1.17,2.21,2.21,0,0,0,.35,1.71c-1.3.5-1.87,1.22-1.84,2.26A2.26,2.26,0,0,0,8.59,18.27Zm.35-3h.67a.7.7,0,0,0,.71-.49l.12-.3a.7.7,0,0,0-.16-.84c-.14-.14-.29-.28-.42-.43A.82.82,0,1,1,11,12.05c.13.12.25.25.37.38a.71.71,0,0,0,.9.18l.3-.12a.68.68,0,0,0,.46-.65c0-.21,0-.42,0-.63a.82.82,0,1,1,1.64,0c0,.19,0,.38,0,.58a.69.69,0,0,0,.45.68l.35.14a.69.69,0,0,0,.77-.14l.42-.42a.83.83,0,0,1,1.22,0,.82.82,0,0,1,0,1.19c-.14.15-.29.28-.43.43a.68.68,0,0,0-.14.79c0,.11.09.22.14.34a.69.69,0,0,0,.65.46h.65a.82.82,0,1,1,0,1.64h-.57a.72.72,0,0,0-.72.48c0,.11-.09.22-.13.32a.69.69,0,0,0,.16.79,5.93,5.93,0,0,1,.43.44,4,4,0,0,1,.28.48.89.89,0,0,1-.48.86.79.79,0,0,1-.89-.11c-.17-.15-.33-.32-.49-.48a.69.69,0,0,0-.83-.16l-.3.12a.73.73,0,0,0-.49.74c0,.2,0,.41,0,.62a.82.82,0,0,1-1.63.07c0-.23,0-.46,0-.7a.71.71,0,0,0-.5-.72l-.32-.13a.69.69,0,0,0-.79.15c-.15.13-.28.28-.43.42a.83.83,0,1,1-1.17-1.16l.42-.43a.67.67,0,0,0,.15-.8c0-.11-.09-.22-.13-.32a.7.7,0,0,0-.69-.48H9a.84.84,0,0,1-.81-.82A.82.82,0,0,1,8.94,15.26ZM22.67,4.32H11.23a.69.69,0,0,0-.66.93.72.72,0,0,0,.76.45H22.7a.68.68,0,0,0,.65-.41A.69.69,0,0,0,22.67,4.32Zm-16.6,0c-.18,0-.36,0-.53,0s-.36,0-.53,0A.7.7,0,0,0,4.33,5,.71.71,0,0,0,5,5.7H6.07A.69.69,0,0,0,6.73,5,.67.67,0,0,0,6.07,4.32Zm3.07,0q-.51,0-1,0A.69.69,0,0,0,7.43,5a.7.7,0,0,0,.69.7h1a.69.69,0,0,0,.7-.7A.68.68,0,0,0,9.14,4.32Zm4.74,14.06a2.31,2.31,0,1,0-2.3-2.31A2.31,2.31,0,0,0,13.88,18.38Zm0-3.22a.92.92,0,1,1,0,1.84.92.92,0,1,1,0-1.84Z"/></g></g></svg>