<svg xmlns="http://www.w3.org/2000/svg" viewBox="0 0 28 28"><defs><style>.cls-1,.cls-3{fill:none;}.cls-2{fill:#0091ff;}.cls-3{stroke:#0091ff;stroke-miterlimit:10;stroke-width:0.42px;}</style></defs><g id="Layer_2" data-name="Layer 2"><g id="Layer_1-2" data-name="Layer 1"><rect class="cls-1" width="28" height="28"/><path class="cls-2" d="M24.28,18.22a.92.92,0,0,1-.2-.59V7a1.87,1.87,0,0,0-2-2h-.68V4.67c0-.65,0-1.3,0-1.95A1.36,1.36,0,0,0,20,1.3c-1.73,0-3.47,0-5.2,0a2.45,2.45,0,0,0-2.35,1.56,4.46,4.46,0,0,0-.22,1.22,6.85,6.85,0,0,0,0,.91H6a2.93,2.93,0,0,0-.67.07A1.86,1.86,0,0,0,3.92,7q0,5.36,0,10.71a.78.78,0,0,1-.16.47C2.81,19.45,1.85,20.74.89,22a1,1,0,0,0-.19.8A2.6,2.6,0,0,0,3.38,25H24.6a2.51,2.51,0,0,0,2.16-1,6.83,6.83,0,0,0,.56-1.19V22.3ZM13.08,4.05A1.78,1.78,0,0,1,15,2.13h4.84c.54,0,.73.18.73.73s0,1.38,0,2.08a1.76,1.76,0,0,1-1.89,1.88H14.53a.65.65,0,0,0-.66.39c-.23.43-.48.85-.77,1.34,0-.16,0-.25,0-.33ZM4.75,17.37V7A1,1,0,0,1,5.93,5.82h6.32V8.65a.78.78,0,0,0,.9.86.74.74,0,0,0,.59-.41c.25-.43.49-.84.73-1.27a.31.31,0,0,1,.32-.19h3.93A2.59,2.59,0,0,0,21.25,6a.31.31,0,0,1,.21-.16,5.08,5.08,0,0,1,.78,0,1,1,0,0,1,1,1V17.51s0,.09,0,.14H14a4,4,0,0,0-8,0H4.75Zm8.34.29H6.92a3.11,3.11,0,0,1,6.17,0Zm-11,4.16c.77-1.05,1.55-2.11,2.34-3.15a.41.41,0,0,1,.31-.16q9.25,0,18.51,0a.42.42,0,0,1,.29.11L26,21.94s0,0,0,.08H2A1.74,1.74,0,0,1,2.09,21.82Zm22.74,2.34h-.26q-10.57,0-21.15,0a1.78,1.78,0,0,1-1.71-1A1.63,1.63,0,0,1,1.62,23a1.3,1.3,0,0,1,0-.15H26.4A1.66,1.66,0,0,1,24.83,24.16ZM10,13.21a1.75,1.75,0,0,0,1.77-1.48,5,5,0,0,0,0-.77h0c0-.2,0-.4,0-.6a1.76,1.76,0,0,0-1.67-1.68,1.72,1.72,0,0,0-1.81,1.48,6.83,6.83,0,0,0,0,1.5A1.71,1.71,0,0,0,10,13.21Zm-.87-3a.89.89,0,0,1,1-.75.94.94,0,0,1,.86.89v1.09a.92.92,0,0,1-.83.88.88.88,0,0,1-1-.74A7,7,0,0,1,9.1,10.26Zm9.45,9.6H9.37a.42.42,0,0,0-.46.4.43.43,0,0,0,.46.43.75.75,0,0,0,.15,0h9a1.19,1.19,0,0,0,.33,0A.39.39,0,0,0,19,20,.66.66,0,0,0,18.55,19.86ZM14.87,4H18.8c.32,0,.51-.16.51-.42s-.19-.41-.5-.41H14.86c-.31,0-.5.16-.5.41S14.54,4,14.87,4Zm0,1.7h2.86c.32,0,.52-.17.51-.42s-.18-.4-.5-.41H14.88c-.33,0-.52.15-.52.41S14.54,5.74,14.87,5.74Z"/><path class="cls-3" d="M24.28,18.22a.92.92,0,0,1-.2-.59V7a1.87,1.87,0,0,0-2-2h-.68V4.67c0-.65,0-1.3,0-1.95A1.36,1.36,0,0,0,20,1.3c-1.73,0-3.47,0-5.2,0a2.45,2.45,0,0,0-2.35,1.56,4.46,4.46,0,0,0-.22,1.22,6.85,6.85,0,0,0,0,.91H6a2.93,2.93,0,0,0-.67.07A1.86,1.86,0,0,0,3.92,7q0,5.36,0,10.71a.78.78,0,0,1-.16.47C2.81,19.45,1.85,20.74.89,22a1,1,0,0,0-.19.8A2.6,2.6,0,0,0,3.38,25H24.6a2.51,2.51,0,0,0,2.16-1,6.83,6.83,0,0,0,.56-1.19V22.3ZM13.08,4.05A1.78,1.78,0,0,1,15,2.13h4.84c.54,0,.73.18.73.73s0,1.38,0,2.08a1.76,1.76,0,0,1-1.89,1.88H14.53a.65.65,0,0,0-.66.39c-.23.43-.48.85-.77,1.34,0-.16,0-.25,0-.33ZM4.75,17.37V7A1,1,0,0,1,5.93,5.82h6.32V8.65a.78.78,0,0,0,.9.86.74.74,0,0,0,.59-.41c.25-.43.49-.84.73-1.27a.31.31,0,0,1,.32-.19h3.93A2.59,2.59,0,0,0,21.25,6a.31.31,0,0,1,.21-.16,5.08,5.08,0,0,1,.78,0,1,1,0,0,1,1,1V17.51s0,.09,0,.14H14a4,4,0,0,0-8,0H4.75Zm8.34.29H6.92a3.11,3.11,0,0,1,6.17,0Zm-11,4.16c.77-1.05,1.55-2.11,2.34-3.15a.41.41,0,0,1,.31-.16q9.25,0,18.51,0a.42.42,0,0,1,.29.11L26,21.94s0,0,0,.08H2A1.74,1.74,0,0,1,2.09,21.82Zm22.74,2.34h-.26q-10.57,0-21.15,0a1.78,1.78,0,0,1-1.71-1A1.63,1.63,0,0,1,1.62,23a1.3,1.3,0,0,1,0-.15H26.4A1.66,1.66,0,0,1,24.83,24.16ZM10,13.21a1.75,1.75,0,0,0,1.77-1.48,5,5,0,0,0,0-.77h0c0-.2,0-.4,0-.6a1.76,1.76,0,0,0-1.67-1.68,1.72,1.72,0,0,0-1.81,1.48,6.83,6.83,0,0,0,0,1.5A1.71,1.71,0,0,0,10,13.21Zm-.87-3a.89.89,0,0,1,1-.75.94.94,0,0,1,.86.89v1.09a.92.92,0,0,1-.83.88.88.88,0,0,1-1-.74A7,7,0,0,1,9.1,10.26Zm9.45,9.6H9.37a.42.42,0,0,0-.46.4.43.43,0,0,0,.46.43.75.75,0,0,0,.15,0h9a1.19,1.19,0,0,0,.33,0A.39.39,0,0,0,19,20,.66.66,0,0,0,18.55,19.86ZM14.87,4H18.8c.32,0,.51-.16.51-.42s-.19-.41-.5-.41H14.86c-.31,0-.5.16-.5.41S14.54,4,14.87,4Zm0,1.7h2.86c.32,0,.52-.17.51-.42s-.18-.4-.5-.41H14.88c-.33,0-.52.15-.52.41S14.54,5.74,14.87,5.74Z"/></g></g></svg>