<svg xmlns="http://www.w3.org/2000/svg" viewBox="0 0 28.02 28.02"><defs><style>.cls-1{fill:none;}.cls-2{fill:#0091ff;}</style></defs><g id="Layer_2" data-name="Layer 2"><g id="Layer_1-2" data-name="Layer 1"><rect class="cls-1" width="28.02" height="28.02"/><path class="cls-2" d="M25.3,13.66a.83.83,0,0,0-.27,0H3a.55.55,0,0,0-.53.26v.27A.59.59,0,0,0,3,14.4H25a.92.92,0,0,0,.29,0,.35.35,0,0,0,.26-.36A.34.34,0,0,0,25.3,13.66ZM12,15.55h-.93c-.4,0-.52.13-.52.53v3.54c0,.73,0,1.45,0,2.18a1.52,1.52,0,0,1-1.8,1.42,1.58,1.58,0,0,1-1.27-1.56V16.05c0-.36-.13-.5-.49-.5H6.11c-.45,0-.57.11-.57.56,0,1.8,0,3.59,0,5.39,0,.22,0,.45,0,.67a3.45,3.45,0,0,0,3.1,3,3.52,3.52,0,0,0,3.8-3.53V16C12.48,15.69,12.34,15.55,12,15.55ZM8.92,12.47a3.51,3.51,0,0,0,3.55-3.41c0-1.92,0-3.84,0-5.77a.38.38,0,0,0-.43-.43h-1c-.44,0-.55.12-.55.55V6.73c0,.79,0,1.57,0,2.35a1.52,1.52,0,0,1-1.95,1.41A1.6,1.6,0,0,1,7.47,9V3.35c0-.36-.13-.49-.48-.49H6.11c-.46,0-.57.11-.57.56V6.23c0,.93,0,1.86,0,2.79A3.46,3.46,0,0,0,8.92,12.47ZM22,23.25H19.91c-.37,0-.51-.13-.51-.5V18c0-.37.13-.49.51-.49H22c.4,0,.52-.13.52-.53v-.86c0-.41-.12-.54-.53-.54H15.28c-.36,0-.5.13-.5.49V17c0,.39.13.52.51.52h2.05c.4,0,.52.11.52.5v4.76c0,.39-.13.51-.52.51H15.23a.41.41,0,0,0-.45.45v1a.39.39,0,0,0,.43.44h6.72c.44,0,.55-.11.55-.56,0-.29,0-.59,0-.88S22.35,23.25,22,23.25Zm-7.45-11.5a.46.46,0,0,0-.1.52c.1.2.29.21.48.21h.57a.76.76,0,0,0,.8-.41c.57-.84,1.17-1.66,1.75-2.48.27-.37.52-.37.78,0l1.85,2.61a.59.59,0,0,0,.55.28H22a.48.48,0,0,0,.49-.22.45.45,0,0,0-.12-.51L19.69,8c-.25-.34-.25-.41,0-.74l2.65-3.73c.11-.16.2-.31.11-.5s-.28-.22-.48-.22h-.72a.61.61,0,0,0-.57.29c-.6.86-1.21,1.72-1.82,2.57-.29.41-.53.4-.82,0L16.18,3.1a.54.54,0,0,0-.48-.25h-.79a.45.45,0,0,0-.46.21c-.1.19,0,.35.1.52L17.21,7.3c.22.31.22.41,0,.73Z"/></g></g></svg>