<svg xmlns="http://www.w3.org/2000/svg" viewBox="0 0 28.05 28.05"><defs><style>.cls-1{fill:none;}.cls-2{fill:#0091ff;}</style></defs><g id="Layer_2" data-name="Layer 2"><g id="Layer_1-2" data-name="Layer 1"><rect class="cls-1" width="28.05" height="28.05"/><path class="cls-2" d="M7,17.48a3.21,3.21,0,0,0-.76-.16c-.87,0-1.76-.07-2.63,0A3.42,3.42,0,0,0,.83,18.94a8.28,8.28,0,0,0-.59,1.4v.54s0,0,0,0a.94.94,0,0,0,1,.65.94.94,0,0,0,.8-.91,1.79,1.79,0,0,1,1.77-1.57c.59,0,1.18,0,1.77,0a3.67,3.67,0,0,1,.87.14.93.93,0,0,0,1.16-.6A.9.9,0,0,0,7,17.48ZM14,15a4.59,4.59,0,1,0-4.6-4.57A4.59,4.59,0,0,0,14,15Zm0-7.34a2.76,2.76,0,1,1-2.75,2.73A2.75,2.75,0,0,1,14,7.67ZM4.88,15.93a3.68,3.68,0,1,0-3.72-3.65A3.67,3.67,0,0,0,4.88,15.93Zm-.07-5.5a1.83,1.83,0,1,1,0,3.66,1.83,1.83,0,1,1,0-3.66Zm18.44,5.5a3.68,3.68,0,1,0-3.71-3.67A3.67,3.67,0,0,0,23.25,15.93Zm-.05-5.5a1.83,1.83,0,1,1,0,3.66,1.83,1.83,0,0,1,0-3.66Zm-7.58,6.25c-1,0-2,0-3.07,0a4.81,4.81,0,0,0-2.76.85,4.93,4.93,0,0,0-2.16,3.39.92.92,0,0,0,.71,1.14.94.94,0,0,0,1.11-.86,3.06,3.06,0,0,1,2.69-2.68,33.23,33.23,0,0,1,3.6,0,2.9,2.9,0,0,1,1.9.85,3.37,3.37,0,0,1,1,2.11.91.91,0,0,0,1.8-.2v-.11A5,5,0,0,0,15.62,16.68Zm9.75.8a5.85,5.85,0,0,0-2.12-.2v-.07c-.7.08-1.41.13-2.1.24a.9.9,0,0,0-.75,1.15.94.94,0,0,0,1.25.61,2.41,2.41,0,0,1,.65-.12q.91,0,1.83,0A1.78,1.78,0,0,1,26,20.71a.94.94,0,0,0,1,.86.92.92,0,0,0,.79-1.09A3.62,3.62,0,0,0,25.37,17.48Z"/></g></g></svg>