<svg xmlns="http://www.w3.org/2000/svg" viewBox="0 0 135 135"><defs><style>.cls-1{fill:none;}.cls-2{fill:#0091ff;}</style></defs><g id="Layer_2" data-name="Layer 2"><g id="Layer_1-2" data-name="Layer 1"><rect class="cls-1" width="135" height="135"/><path class="cls-2" d="M117.76,25.54Q101.67,16.26,85.56,7c-4.42-2.56-8.74-5.31-14-6H67.5a28.52,28.52,0,0,0-9.88,3.59c-12.16,7.05-24.36,14-36.51,21.08C13.7,30,10,36.46,9.94,45q0,21.48,0,43c0,8.52,3.72,15,11.09,19.27q18.66,10.85,37.42,21.55a26.4,26.4,0,0,0,6.61,2.61c5.56,1.37,10.79.21,15.71-2.64q18.48-10.66,37-21.32,11.4-6.57,11.42-19.73,0-21.22,0-42.46Q129.17,32.11,117.76,25.54Zm-4.87,72.92Q94.23,109.2,75.59,120a11.25,11.25,0,0,1-12.09,0q-18.63-10.78-37.29-21.5A11.24,11.24,0,0,1,20.15,88c0-7.16,0-14.33,0-21.49s0-14.32,0-21.48A11.25,11.25,0,0,1,26.2,34.53Q44.86,23.81,63.49,13a11.24,11.24,0,0,1,12.1,0q18.63,10.77,37.29,21.5A11.25,11.25,0,0,1,118.93,45q0,21.48,0,43A11.24,11.24,0,0,1,112.89,98.46ZM64.17,62.16,53,52.66c-2.48-2.09-4.92-4.22-7.45-6.24A4.74,4.74,0,0,0,39.88,46a4.91,4.91,0,0,0-2.57,5,5.66,5.66,0,0,0,2.34,3.81c4.56,3.83,9.11,7.69,13.8,11.66L50,69.41c-3.55,3-7.11,6-10.63,9-2.53,2.17-2.81,5.44-.72,7.66s4.9,2.18,7.44,0q9-7.61,18.06-15.27C67.28,68.21,67.28,64.79,64.17,62.16ZM97,77.51c-3.92-.06-7.84,0-11.76,0h0c-3.62,0-7.25,0-10.87,0a7.92,7.92,0,0,0-1.89.18,5.1,5.1,0,0,0,1.35,10c7.63,0,15.26,0,22.89,0a5.65,5.65,0,0,0,2-.41A5.07,5.07,0,0,0,97,77.51Z"/></g></g></svg>