<svg xmlns="http://www.w3.org/2000/svg" viewBox="0 0 28.05 28.05"><defs><style>.cls-1{fill:none;}.cls-2{fill:#0091ff;stroke:#0091ff;stroke-miterlimit:10;stroke-width:0.56px;}</style></defs><g id="Layer_2" data-name="Layer 2"><g id="Layer_1-2" data-name="Layer 1"><rect class="cls-1" width="28.05" height="28.05"/><path class="cls-2" d="M14.61,2.46c.47.08.94.13,1.4.23a8.87,8.87,0,0,1,6.72,7.12c.11.64.13,1.29.19,1.95a6.25,6.25,0,0,1,.72.07,2.19,2.19,0,0,1,1.63,1.51A6.11,6.11,0,0,1,25.55,16a5.84,5.84,0,0,1-.15,1,2.35,2.35,0,0,1-2.53,2v.25a20.63,20.63,0,0,1-.05,2.08,3.34,3.34,0,0,1-3.23,2.88c-.7,0-1.4,0-2.1,0a.25.25,0,0,0-.27.17,2,2,0,0,1-1.86,1.19,11.84,11.84,0,0,1-1.69,0A2,2,0,0,1,12,23.4a2,2,0,0,1,2-1.88,12.64,12.64,0,0,1,1.74,0,1.85,1.85,0,0,1,1.52,1.16.24.24,0,0,0,.25.16h2a2,2,0,0,0,2-2v-.67h-2a.68.68,0,0,1-.75-.74v-8a.69.69,0,0,1,.76-.75h1.89a7.46,7.46,0,0,0-14.87,0c.64,0,1.28,0,1.91,0a.76.76,0,0,1,.49.18.81.81,0,0,1,.24.52q0,4.07,0,8.11a.68.68,0,0,1-.71.71q-1.32,0-2.64,0a.66.66,0,0,1-.71-.7c0-.15,0-.29,0-.44C5,19,4.73,19,4.52,19a2.07,2.07,0,0,1-1.64-1.33,11.24,11.24,0,0,1-.37-1.41,2.07,2.07,0,0,1,0-.22V14.74a1.55,1.55,0,0,1,0-.21,11.24,11.24,0,0,1,.37-1.41A2,2,0,0,1,4.4,11.83c.25-.05.5-.05.78-.08,0-.1,0-.22,0-.34a13.12,13.12,0,0,1,.24-2.08,8.69,8.69,0,0,1,6.51-6.6c.49-.14,1-.18,1.51-.27ZM7.87,18.8V12H6.54V18.8ZM20.18,12v6.79h1.33V12Zm-15,1.17a.8.8,0,0,0-1,.43,2.15,2.15,0,0,0-.19.5,5.53,5.53,0,0,0-.06,2.22,3.48,3.48,0,0,0,.3.93.76.76,0,0,0,1,.35Zm17.71,4.45a.85.85,0,0,0,1.05-.51,2,2,0,0,0,.16-.47,5.48,5.48,0,0,0,.06-2.21,3.47,3.47,0,0,0-.3-.91.74.74,0,0,0-1-.33ZM14.7,22.87H14a.68.68,0,0,0-.68.67.66.66,0,0,0,.66.68q.69,0,1.38,0a.66.66,0,0,0,.66-.67.68.68,0,0,0-.67-.68Z"/></g></g></svg>