<svg xmlns="http://www.w3.org/2000/svg" viewBox="0 0 28.05 28.05"><defs><style>.cls-1{fill:none;}.cls-2{fill:#0091ff;}</style></defs><g id="Layer_2" data-name="Layer 2"><g id="Layer_1-2" data-name="Layer 1"><rect class="cls-1" width="28.05" height="28.05"/><path class="cls-2" d="M6.35,26.43A8.31,8.31,0,0,1,5.1,26a3.77,3.77,0,0,1-2.18-3.35,1.62,1.62,0,0,1,0-.22V5.6A3.86,3.86,0,0,1,5.55,1.84a4.23,4.23,0,0,1,1.28-.2q5.91,0,11.81,0a3.85,3.85,0,0,1,3.93,3.86c0,3.41,0,6.81,0,10.22a1,1,0,1,1-1.93,0c0-3.35,0-6.7,0-10a1.9,1.9,0,0,0-1.09-1.87,2.33,2.33,0,0,0-.91-.21H6.84a1.92,1.92,0,0,0-2,2V22.48a1.94,1.94,0,0,0,2,2h5.37a1,1,0,0,1,.81.31,1,1,0,0,1-.29,1.53l-.22.1Z"/><path class="cls-2" d="M17.93,26.43A3.47,3.47,0,0,1,16,25.28c-.83-.83-1.7-1.63-2.54-2.45a1,1,0,0,1-.23-1.25,1,1,0,0,1,1.41-.28,2.18,2.18,0,0,1,.28.25l2.78,2.67c.41.39.72.36,1-.11,1.52-2.12,3-4.25,4.57-6.37a1,1,0,0,1,1.14-.47A1,1,0,0,1,25,18.65a2.68,2.68,0,0,1-.18.28c-1.51,2.11-3,4.21-4.52,6.32a2.62,2.62,0,0,1-1.75,1.14l-.06,0Z"/><path class="cls-2" d="M12.72,9.38H7.83a1,1,0,0,1-1-.87,1,1,0,0,1,.87-1.06h10a1,1,0,0,1,1,.67,1,1,0,0,1-.94,1.26h-5Z"/><path class="cls-2" d="M12.72,11.31h4.94a1,1,0,0,1,.15,1.93H7.86a1,1,0,0,1-1.07-.84,1,1,0,0,1,1-1.09h4.92Z"/><path class="cls-2" d="M10.81,15.19h3a1,1,0,0,1,.85,1.47.9.9,0,0,1-.8.46H7.73a.94.94,0,0,1-.94-1,1,1,0,0,1,1-1Z"/></g></g></svg>