<svg xmlns="http://www.w3.org/2000/svg" width="345" height="307" viewBox="0 0 345 307">
  <g id="Group_806" data-name="Group 806" transform="translate(-14098 -5136)">
    <rect id="Rectangle_1320" data-name="Rectangle 1320" width="345" height="307" transform="translate(14098 5136)" fill="none"/>
    <g id="Hand_coding-rafiki" data-name="Hand coding-rafiki" transform="translate(14064.449 5081.237)">
      <g id="freepik--background-simple--inject-5" transform="translate(68.677 77.771)">
        <path id="Path_20195" data-name="Path 20195" d="M205.072,84.06c-55.7,26.481-6.207,71.292-38.522,96.645s-118.673-1.98-86.59,62c37.693,75.154,208.072,61.91,246.25-31.627S260.76,57.579,205.072,84.06Z" transform="translate(-72.934 -77.771)" fill="#f5f5f5"/>
      </g>
      <g id="freepik--Shadow--inject-5" transform="translate(56.11 322.146)">
        <ellipse id="freepik--path--inject-5" cx="144.833" cy="8.456" rx="144.833" ry="8.456" fill="#f5f5f5"/>
      </g>
      <g id="freepik--program-icons--inject-5" transform="translate(242.956 111.639)">
        <rect id="Rectangle_1194" data-name="Rectangle 1194" width="25.674" height="25.674" rx="2.27" transform="translate(0.067 0)" fill="#0091ff"/>
        <g id="Group_748" data-name="Group 748" transform="translate(0.067 0)" opacity="0.4">
          <rect id="Rectangle_1195" data-name="Rectangle 1195" width="25.674" height="25.674" rx="2.27" fill="#fff"/>
        </g>
        <path id="Path_20197" data-name="Path 20197" d="M304.244,107.823l-4.482,1.636,4.482,1.621v1.688l-6.364-2.428v-1.733l6.364-2.428Z" transform="translate(-294.788 -96.342)" fill="#fff"/>
        <path id="Path_20198" data-name="Path 20198" d="M311.322,101.76h1.86l-4.422,12.6H306.9Z" transform="translate(-297.07 -95.224)" fill="#fff"/>
        <path id="Path_20199" data-name="Path 20199" d="M321.994,108.593v1.733l-6.364,2.443V111.1l4.482-1.621-4.482-1.636V106.18Z" transform="translate(-299.279 -96.342)" fill="#fff"/>
        <rect id="Rectangle_1196" data-name="Rectangle 1196" width="25.674" height="25.674" rx="2.27" transform="translate(54.978 13.685)" fill="#0091ff"/>
        <g id="Group_750" data-name="Group 750" transform="translate(54.978 13.685)" opacity="0.4">
          <rect id="Rectangle_1197" data-name="Rectangle 1197" width="25.674" height="25.674" rx="2.27" fill="#fff"/>
        </g>
        <path id="Path_20208" data-name="Path 20208" d="M378.149,126.387c.613.187.9.575.9,1.494v2.144a.881.881,0,0,0,.979.986h.239v1.636h-.747a2.206,2.206,0,0,1-2.525-2.4v-2.42a.553.553,0,0,0-.59-.627h-.441v-1.636h.441a.553.553,0,0,0,.59-.627v-2.42a2.206,2.206,0,0,1,2.525-2.4h.747v1.636h-.239a.881.881,0,0,0-.979.986v2.144C379.045,125.812,378.761,126.2,378.149,126.387Z" transform="translate(-314.543 -99.869)" fill="#fff"/>
        <path id="Path_20209" data-name="Path 20209" d="M391.673,125.578v1.636h-.441a.553.553,0,0,0-.59.627v2.42a2.209,2.209,0,0,1-2.525,2.4h-.747v-1.636h.239a.881.881,0,0,0,.979-.986v-2.144c0-.926.276-1.315.9-1.494-.62-.187-.9-.575-.9-1.494v-2.144a.881.881,0,0,0-.979-.986h-.239V120.14h.747a2.209,2.209,0,0,1,2.525,2.4v2.42a.553.553,0,0,0,.59.627Z" transform="translate(-317.43 -99.874)" fill="#fff"/>
      </g>
      <g id="freepik--Tabs--inject-5" transform="translate(188.08 158.93)">
        <rect id="Rectangle_1198" data-name="Rectangle 1198" width="91.513" height="66.242"/>
        <rect id="Rectangle_1199" data-name="Rectangle 1199" width="91.513" height="66.242" fill="#fff" opacity="0.9"/>
        <rect id="Rectangle_1200" data-name="Rectangle 1200" width="12.744" height="66.242" opacity="0.1"/>
        <rect id="Rectangle_1201" data-name="Rectangle 1201" width="91.513" height="6.192" fill="#0091ff"/>
        <g id="Group_752" data-name="Group 752" transform="translate(19.28 14.043)" opacity="0.2">
          <path id="Path_20216" data-name="Path 20216" d="M191.812,128.274H175.147a.747.747,0,0,1,0-1.494h16.665a.747.747,0,0,1,0,1.494Z" transform="translate(-174.37 -126.78)"/>
          <path id="Path_20217" data-name="Path 20217" d="M235.779,128.274H203.4a.747.747,0,0,1,0-1.494h32.382a.747.747,0,0,1,0,1.494Z" transform="translate(-181.518 -126.78)"/>
          <path id="Path_20218" data-name="Path 20218" d="M221.681,134.8H178.147a.747.747,0,0,1,0-1.494h43.534a.747.747,0,0,1,0,1.494Z" transform="translate(-175.129 -128.432)"/>
          <path id="Path_20219" data-name="Path 20219" d="M203.189,141.324H175.147a.747.747,0,1,1,0-1.494h28.042a.747.747,0,0,1,0,1.494Z" transform="translate(-174.37 -130.082)"/>
          <path id="Path_20220" data-name="Path 20220" d="M239.941,141.324H219.847a.747.747,0,1,1,0-1.494h20.094a.747.747,0,1,1,0,1.494Z" transform="translate(-185.68 -130.082)"/>
          <path id="Path_20221" data-name="Path 20221" d="M190.632,147.854H175.147a.747.747,0,0,1,0-1.494h15.485a.747.747,0,1,1,0,1.494Z" transform="translate(-174.37 -131.734)"/>
          <path id="Path_20222" data-name="Path 20222" d="M226.979,147.854H202.6a.747.747,0,1,1,0-1.494h24.382a.747.747,0,1,1,0,1.494Z" transform="translate(-181.315 -131.734)"/>
          <path id="Path_20223" data-name="Path 20223" d="M198.98,154.384H178.147a.747.747,0,0,1,0-1.494H198.98a.747.747,0,1,1,0,1.494Z" transform="translate(-175.129 -133.386)"/>
          <path id="Path_20224" data-name="Path 20224" d="M201.587,160.914h-23.44a.747.747,0,0,1,0-1.494h23.44a.747.747,0,0,1,0,1.494Z" transform="translate(-175.129 -135.038)"/>
          <path id="Path_20225" data-name="Path 20225" d="M238.65,160.914h-23.9a.747.747,0,0,1,0-1.494h23.9a.747.747,0,1,1,0,1.494Z" transform="translate(-184.39 -135.038)"/>
          <path id="Path_20226" data-name="Path 20226" d="M188.553,167.434H175.107a.747.747,0,0,1,0-1.494h13.446a.747.747,0,0,1,0,1.494Z" transform="translate(-174.36 -136.688)"/>
          <path id="Path_20227" data-name="Path 20227" d="M234.726,167.434H199.237a.747.747,0,0,1,0-1.494h35.489a.747.747,0,1,1,0,1.494Z" transform="translate(-180.465 -136.688)"/>
          <path id="Path_20228" data-name="Path 20228" d="M201.438,173.964H178.147a.747.747,0,0,1,0-1.494h23.291a.747.747,0,0,1,0,1.494Z" transform="translate(-175.129 -138.34)"/>
          <path id="Path_20229" data-name="Path 20229" d="M228.751,173.964H213.677a.747.747,0,0,1,0-1.494h15.074a.747.747,0,0,1,0,1.494Z" transform="translate(-184.119 -138.34)"/>
          <path id="Path_20230" data-name="Path 20230" d="M204.956,180.494H178.147a.747.747,0,0,1,0-1.494h26.809a.747.747,0,0,1,0,1.494Z" transform="translate(-175.129 -139.993)"/>
        </g>
        <circle id="Ellipse_58" data-name="Ellipse 58" cx="1.277" cy="1.277" r="1.277" transform="translate(86.299 1.86)" fill="#fff" opacity="0.4"/>
        <circle id="Ellipse_59" data-name="Ellipse 59" cx="1.277" cy="1.277" r="1.277" transform="translate(81.81 1.86)" fill="#fff" opacity="0.4"/>
        <circle id="Ellipse_60" data-name="Ellipse 60" cx="1.277" cy="1.277" r="1.277" transform="translate(77.328 1.86)" fill="#fff" opacity="0.4"/>
        <g id="Group_753" data-name="Group 753" transform="translate(5.849 14.043)" opacity="0.2">
          <path id="Path_20231" data-name="Path 20231" d="M157.127,128.274h0a.747.747,0,1,1,.747-.747A.747.747,0,0,1,157.127,128.274Z" transform="translate(-156.38 -126.78)"/>
          <path id="Path_20232" data-name="Path 20232" d="M157.127,134.8h0a.747.747,0,1,1,.747-.747A.747.747,0,0,1,157.127,134.8Z" transform="translate(-156.38 -128.432)"/>
          <path id="Path_20233" data-name="Path 20233" d="M157.127,141.324h0a.747.747,0,1,1,.747-.747A.747.747,0,0,1,157.127,141.324Z" transform="translate(-156.38 -130.082)"/>
          <path id="Path_20234" data-name="Path 20234" d="M157.127,147.854h0a.747.747,0,1,1,.747-.747A.747.747,0,0,1,157.127,147.854Z" transform="translate(-156.38 -131.734)"/>
          <path id="Path_20235" data-name="Path 20235" d="M157.127,154.384h0a.747.747,0,1,1,.747-.747A.747.747,0,0,1,157.127,154.384Z" transform="translate(-156.38 -133.386)"/>
          <path id="Path_20236" data-name="Path 20236" d="M157.127,160.914h0a.747.747,0,1,1,.747-.747A.747.747,0,0,1,157.127,160.914Z" transform="translate(-156.38 -135.038)"/>
          <path id="Path_20237" data-name="Path 20237" d="M157.127,167.434h0a.747.747,0,1,1,.747-.747A.747.747,0,0,1,157.127,167.434Z" transform="translate(-156.38 -136.688)"/>
          <path id="Path_20238" data-name="Path 20238" d="M157.127,173.964h0a.747.747,0,1,1,.747-.747A.747.747,0,0,1,157.127,173.964Z" transform="translate(-156.38 -138.34)"/>
          <path id="Path_20239" data-name="Path 20239" d="M157.127,180.494h0a.747.747,0,1,1,.747-.747A.747.747,0,0,1,157.127,180.494Z" transform="translate(-156.38 -139.993)"/>
        </g>
      </g>
      <g id="freepik--speech-bubble--inject-5" transform="translate(70.736 158.93)">
        <path id="Path_20275" data-name="Path 20275" d="M103.754,186.42H82.3a6.6,6.6,0,0,0-6.611,6.6V211.7a6.6,6.6,0,0,0,6.6,6.611H97.509l4.482,5.894v-5.894h1.755a6.611,6.611,0,0,0,6.611-6.611V193.023a6.6,6.6,0,0,0-6.6-6.6Z" transform="translate(-75.69 -186.42)" fill="#0091ff"/>
        <path id="Path_20276" data-name="Path 20276" d="M103.754,186.42H82.3a6.6,6.6,0,0,0-6.611,6.6V211.7a6.6,6.6,0,0,0,6.6,6.611H97.509l4.482,5.894v-5.894h1.755a6.611,6.611,0,0,0,6.611-6.611V193.023a6.6,6.6,0,0,0-6.6-6.6Z" transform="translate(-75.69 -186.42)" fill="#fff" opacity="0.7"/>
        <path id="Path_20277" data-name="Path 20277" d="M95.654,210.8a.993.993,0,0,1-.747-.344l-4.176-4.885a.98.98,0,1,1,1.494-1.27l3.429,4.049,5.67-6.678a.979.979,0,0,1,1.494,1.262L96.4,210.471A.979.979,0,0,1,95.654,210.8Z" transform="translate(-79.437 -190.197)" fill="#fff"/>
        <circle id="Ellipse_63" data-name="Ellipse 63" cx="10.652" cy="10.652" r="10.652" transform="translate(2.269 15.857) rotate(-45)" fill="#0091ff"/>
      </g>
      <g id="freepik--Character--inject-5" transform="translate(64.712 188.313)">
        <path id="Path_20278" data-name="Path 20278" d="M204.171,363.214l16.038-.784-1.561,13.946s-11.13,2.121-16.1-5.8Z" transform="translate(-101.764 -260.337)" fill="#ebb376"/>
        <path id="Path_20279" data-name="Path 20279" d="M236,367.293l-3.653,10.114-8.247-1.031,1.561-13.946Z" transform="translate(-107.217 -260.337)" fill="#ebb376"/>
        <path id="Path_20280" data-name="Path 20280" d="M173.767,378.655a65.563,65.563,0,0,0,16.493-12.243l-1.1-10.391c-15.156,2.241-23.9,5.445-23.9,5.445s5.617-20.131.478-27.467l-14.111,2.555s-14.992,31.164-4.908,42.1Z" transform="translate(-86.755 -253.143)" fill="#0091ff"/>
        <path id="Path_20281" data-name="Path 20281" d="M173.74,378.652a65.733,65.733,0,0,0,16.508-12.236l-1.091-10.405c-14.671,2.151-23.343,5.229-23.9,5.431.187-.747,5.5-20.251.463-27.452l-14.111,2.555a109.53,109.53,0,0,0-6.88,19.466c-2.017,8.508-2.607,17.674,1.979,22.641Z" transform="translate(-86.751 -253.141)" fill="#fff" opacity="0.7"/>
        <path id="Path_20282" data-name="Path 20282" d="M162.157,380.37c4.982-31.568.568-39.59.568-39.59L144.8,357.714c-2.017,8.508-2.607,17.674,1.979,22.641Z" transform="translate(-86.768 -254.859)" opacity="0.2"/>
        <path id="Path_20283" data-name="Path 20283" d="M144.86,372.637c3.361-15.956,7.134-40.935,6.723-44.655-.6-5.408-30.014-28.58-55.546-11.713-5.229,3.444-7.9,40.591-8.807,56.367Z" transform="translate(-72.586 -247.126)" fill="#0091ff"/>
        <path id="Path_20284" data-name="Path 20284" d="M144.86,372.638c3.361-15.956,7.134-40.942,6.723-44.662-.6-5.4-30.021-28.572-55.553-11.7-1.89,1.262-3.444,6.962-4.728,14.491-1.7,10.249-2.883,23.859-3.586,34.122-.194,2.906-.359,5.535-.486,7.746Z" transform="translate(-72.586 -247.127)" fill="#fff" opacity="0.7"/>
        <path id="Path_20285" data-name="Path 20285" d="M136.756,226.349c-8.852-3.578-29.722,9.263-31.553,32.158s9.778,16.553,9.778,16.553,2.069,8.732,10.525,6.036c0,0,6.984,7.911,13.483,4.691,0,0,8.09,8.426,12.43,3.981,0,0,4.721,5.386,9.031,1.307s16.628-45.715-2.7-55.344S136.756,226.349,136.756,226.349Z" transform="translate(-77.084 -225.756)" fill="#263238"/>
        <path id="Path_20286" data-name="Path 20286" d="M146.736,346.439l-.852-.075c.986-11.025-1.442-15.9-1.494-15.948l.747-.4C145.279,330.192,147.744,335.1,146.736,346.439Z" transform="translate(-87.049 -252.136)" fill="#263238"/>
        <path id="Path_20287" data-name="Path 20287" d="M152.071,346.311c-5.864-13.812.747-17.031,1.016-17.181l.351.747-.179-.388.179.388c-.06,0-6.1,3.055-.583,16.053Z" transform="translate(-88.38 -251.911)" fill="#263238"/>
        <path id="Path_20288" data-name="Path 20288" d="M132.573,324.153a91.312,91.312,0,0,0-28.886-14.013l-5.64,2.644s-9.457-11.705,6.3-15.537,37.2,6.723,42.578,15.761-9.352,11.952-9.352,11.952S136.225,323.122,132.573,324.153Z" transform="translate(-74.611 -243.64)" fill="#0091ff"/>
        <path id="Path_20289" data-name="Path 20289" d="M132.573,324.153a91.312,91.312,0,0,0-28.886-14.013l-5.64,2.644s-9.457-11.705,6.3-15.537,37.2,6.723,42.578,15.761-9.352,11.952-9.352,11.952S136.225,323.122,132.573,324.153Z" transform="translate(-74.611 -243.64)" fill="#fff" opacity="0.6"/>
        <path id="Path_20290" data-name="Path 20290" d="M153.854,351.657a.747.747,0,1,1-.747-.747A.747.747,0,0,1,153.854,351.657Z" transform="translate(-89.065 -257.422)" fill="#fff"/>
        <path id="Path_20291" data-name="Path 20291" d="M147.364,351.657a.747.747,0,1,1-.747-.747A.747.747,0,0,1,147.364,351.657Z" transform="translate(-87.423 -257.422)" fill="#fff"/>
        <path id="Path_20292" data-name="Path 20292" d="M133.9,277c-.687,8.015-3.145,22.282-9.666,25.4,0,0,7.291,1.494,18.675,15.918,6.476-4.542,4.026-7.642,4.026-7.642-7.574-4.967-5.61-11.093-2.547-16.434Z" transform="translate(-81.948 -238.721)" fill="#ebb376"/>
        <path id="Path_20293" data-name="Path 20293" d="M142.411,286.41l6.207,10.234a23.793,23.793,0,0,0-1.875,3.884c-2.988-1.6-6.26-6.663-5.64-10.129A11.772,11.772,0,0,1,142.411,286.41Z" transform="translate(-86.198 -241.102)" opacity="0.2"/>
        <path id="Path_20294" data-name="Path 20294" d="M135.385,249.528c-2.084,12.594-3.234,17.868,1.434,25.973,7.014,12.2,22.559,12.773,28.273,1.24,5.139-10.383,7.686-29.237-3.04-37.558C151.467,230.98,137.454,236.926,135.385,249.528Z" transform="translate(-84.311 -228.198)" fill="#ebb376"/>
        <path id="Path_20295" data-name="Path 20295" d="M158.977,229.809c8.165,4.527,15.941,18.675,4.325,15.141-1.755,3.4-8.008.284-11.645-3.795-.613,2.831-7.306,5.67-12.236,1.285,2.383,3.436-1.673,12.109-5.894,10.615s-13.692-3.459-5.3-16.83S150.259,224.961,158.977,229.809Z" transform="translate(-82.109 -225.84)" fill="#263238"/>
        <path id="Path_20296" data-name="Path 20296" d="M166.019,270.22s.747,5,2.166,7.709c-1.591.919-3.735-.306-3.735-.306Z" transform="translate(-92.124 -237.006)" fill="#d58745"/>
        <path id="Path_20297" data-name="Path 20297" d="M154.092,281.336a9.705,9.705,0,0,0,1.651.628.284.284,0,0,0,.359-.224.321.321,0,0,0-.232-.388,8.919,8.919,0,0,1-5.8-5.087.306.306,0,0,0-.388-.209.314.314,0,0,0-.172.4,9.375,9.375,0,0,0,4.579,4.878Z" transform="translate(-88.339 -238.479)" fill="#263238"/>
        <path id="Path_20298" data-name="Path 20298" d="M127.414,264.178a10.241,10.241,0,0,0,4.766,6.207c3.04,1.666,5.229-1.188,5-4.736-.232-3.2-2.1-7.926-5.431-8.112S126.51,260.869,127.414,264.178Z" transform="translate(-82.697 -233.795)" fill="#ebb376"/>
        <path id="Path_20299" data-name="Path 20299" d="M154.358,254.134a.568.568,0,0,0,.478,0,4.624,4.624,0,0,1,4.347-.075.568.568,0,0,0,.814-.224.68.68,0,0,0-.247-.874,5.722,5.722,0,0,0-5.5,0,.642.642,0,0,0-.239.852A.68.68,0,0,0,154.358,254.134Z" transform="translate(-89.465 -232.461)" fill="#263238"/>
        <path id="Path_20300" data-name="Path 20300" d="M180.073,259.623a.553.553,0,0,0,.448.045.612.612,0,0,0,.381-.792,6.551,6.551,0,0,0-3.892-4.318.568.568,0,0,0-.747.426.672.672,0,0,0,.433.792,5.229,5.229,0,0,1,3.048,3.459A.657.657,0,0,0,180.073,259.623Z" transform="translate(-95.108 -233.035)" fill="#263238"/>
        <path id="Path_20301" data-name="Path 20301" d="M159.007,265.022c-.366,1-1.2,1.606-1.867,1.36s-.9-1.247-.538-2.241,1.2-1.606,1.86-1.36S159.366,264.029,159.007,265.022Z" transform="translate(-90.095 -235.11)" fill="#263238"/>
        <path id="Path_20302" data-name="Path 20302" d="M158.76,262.712l2.48-.052S159.492,264.079,158.76,262.712Z" transform="translate(-90.684 -235.093)" fill="#263238"/>
        <path id="Path_20303" data-name="Path 20303" d="M175.8,270.353c-.366.993-1.2,1.6-1.86,1.359s-.911-1.255-.545-2.241,1.2-1.6,1.867-1.359S176.164,269.352,175.8,270.353Z" transform="translate(-94.344 -236.46)" fill="#263238"/>
        <path id="Path_20304" data-name="Path 20304" d="M175.56,268.032l2.473-.052S176.285,269.407,175.56,268.032Z" transform="translate(-94.935 -236.439)" fill="#263238"/>
        <path id="Path_20305" data-name="Path 20305" d="M156.4,270.669a5.489,5.489,0,0,1-2.241-.471,5.67,5.67,0,0,1-3.093-3.615,7.567,7.567,0,0,1,3.952-8.852,5.572,5.572,0,0,1,7.866,3.511,7.358,7.358,0,0,1-.381,5.139h0a7.351,7.351,0,0,1-3.578,3.735A5.976,5.976,0,0,1,156.4,270.669Zm1.173-12.661a5.229,5.229,0,0,0-2.144.523,6.723,6.723,0,0,0-3.5,7.828,4.706,4.706,0,0,0,6.686,2.988,6.506,6.506,0,0,0,3.16-3.279l.388.172-.388-.172a6.514,6.514,0,0,0,.336-4.549,4.811,4.811,0,0,0-2.629-3.085A4.483,4.483,0,0,0,157.569,258.007Z" transform="translate(-88.665 -233.697)" fill="#263238"/>
        <path id="Path_20306" data-name="Path 20306" d="M173.035,275.767a5.348,5.348,0,0,1-2.241-.471,5.7,5.7,0,0,1-3.1-3.615,7.582,7.582,0,0,1,3.959-8.852,5.558,5.558,0,0,1,7.858,3.511,7.313,7.313,0,0,1-.373,5.139h0a6.947,6.947,0,0,1-6.1,4.288Zm1.188-12.7a5.229,5.229,0,0,0-2.181.493,6.551,6.551,0,0,0-3.16,3.287,6.447,6.447,0,0,0-.336,4.542,4.826,4.826,0,0,0,2.629,3.092c2.614,1.173,5.856-.351,7.216-3.384h0a6.551,6.551,0,0,0,.336-4.549,4.833,4.833,0,0,0-2.629-3.085,4.669,4.669,0,0,0-1.875-.359Z" transform="translate(-92.874 -234.986)" fill="#263238"/>
        <path id="Path_20307" data-name="Path 20307" d="M167.274,269.549a.381.381,0,0,0-.217-.239,1.554,1.554,0,0,0-.964.142l-.374-.747a2.293,2.293,0,0,1,1.643-.172,1.225,1.225,0,0,1,.747.747Z" transform="translate(-92.445 -236.559)" fill="#263238"/>
        <rect id="Rectangle_1206" data-name="Rectangle 1206" width="0.856" height="10.593" transform="translate(54.144 25.814) rotate(-72.646)" fill="#263238"/>
        <path id="Path_20308" data-name="Path 20308" d="M124.781,356.652s-19.653,15.059-36.9,14.193c.7-10.264,1.882-23.9,3.586-34.122,1.763-1.942,2.921-3.122,2.921-3.122l10.458,7.821-2.547,3.2s15.829-.807,21.341,0Z" transform="translate(-72.751 -253.042)" opacity="0.2"/>
        <path id="Path_20309" data-name="Path 20309" d="M139.833,347.212,155.564,344l.56,14.028s-10.674,3.78-16.785-3.294Z" transform="translate(-85.771 -255.674)" fill="#ebb376"/>
        <path id="Path_20310" data-name="Path 20310" d="M172.011,347.259l-2.077,10.547-8.314.232-.56-14.028Z" transform="translate(-91.266 -255.676)" fill="#ebb376"/>
        <path id="Path_20311" data-name="Path 20311" d="M138.368,348.3l.769,10.824-3.914,1.755L133.55,348.3Z" transform="translate(-84.306 -256.762)" fill="#0091ff"/>
        <path id="Path_20312" data-name="Path 20312" d="M138.368,348.3l.769,10.824-3.914,1.755L133.55,348.3Z" transform="translate(-84.306 -256.762)" fill="#fff" opacity="0.6"/>
        <path id="Path_20313" data-name="Path 20313" d="M96.7,314.78a18.2,18.2,0,0,0-10.794,6.245c-4.743,5.572-21.461,22.126-17.748,35.639s39.463,3.459,50.384-4.265l-1.673-12.579-24.762,1.815,7.634-5.027C104.978,322.041,96.7,314.78,96.7,314.78Z" transform="translate(-67.626 -248.28)" fill="#0091ff"/>
        <path id="Path_20314" data-name="Path 20314" d="M96.7,314.78a18.2,18.2,0,0,0-10.794,6.245c-4.743,5.572-21.461,22.126-17.748,35.639s39.463,3.459,50.384-4.265l-1.673-12.579-24.762,1.815,7.634-5.027C104.978,322.041,96.7,314.78,96.7,314.78Z" transform="translate(-67.626 -248.28)" fill="#fff" opacity="0.7"/>
        <path id="Path_20315" data-name="Path 20315" d="M202.56,363.544l4.5-.754v12.071l-3.571.583Z" transform="translate(-101.767 -260.428)" fill="#0091ff"/>
        <path id="Path_20316" data-name="Path 20316" d="M202.56,363.544l4.5-.754v12.071l-3.571.583Z" transform="translate(-101.767 -260.428)" fill="#fff" opacity="0.6"/>
        <path id="Path_20317" data-name="Path 20317" d="M186.775,376.819a14.525,14.525,0,0,1,.1-1.979l.134-.993-.964.568-.575.344a4.61,4.61,0,0,1-.583.217,1.733,1.733,0,0,1-1.046,0,1.92,1.92,0,0,1-.837-.605,3.5,3.5,0,0,1-.59-1.016L181.568,371l-.6,2.495c-.06.246-.1.5-.142.747a6.845,6.845,0,0,1-.217.695,2.241,2.241,0,0,1-.695.949,1.494,1.494,0,0,1-1.128.1,4.656,4.656,0,0,1-1.33-.583l-1.3-.814.523,1.322a11.118,11.118,0,0,1,.538,1.733,5.264,5.264,0,0,1,.12.9,1.419,1.419,0,0,1-.194.881,1.434,1.434,0,0,0,.508-.837,4.019,4.019,0,0,0,.134-.986,6.821,6.821,0,0,0,0-.784,6.223,6.223,0,0,0,.672.329,2.652,2.652,0,0,0,2.129-.052,3.2,3.2,0,0,0,1.4-1.584v-.1a2.846,2.846,0,0,0,3.324.71,5.135,5.135,0,0,0,.635-.344s0,.052,0,.082a9.991,9.991,0,0,0,.217,1.046,5.453,5.453,0,0,0,.373,1.008,2.323,2.323,0,0,0,.65.837,2.6,2.6,0,0,1-.321-.949A7.338,7.338,0,0,1,186.775,376.819Z" transform="translate(-95.087 -262.505)" fill="#0091ff"/>
        <path id="Path_20318" data-name="Path 20318" d="M220.991,354.426a4.273,4.273,0,0,1-1.726-.187,6.261,6.261,0,0,1-1.621-.747,4.855,4.855,0,0,1-1.2-1.292,6.723,6.723,0,0,1-.8-1.606l-.493-1.494-.837,1.322a7.186,7.186,0,0,1-1.285,1.494,2.406,2.406,0,0,1-1.494.687h-.179l-.224-.045a2.093,2.093,0,0,1-.463-.112,5.588,5.588,0,0,1-.9-.388,7.744,7.744,0,0,1-1.606-1.2l-1.3-1.247.269,1.711a13.713,13.713,0,0,1,.172,2.764,3.841,3.841,0,0,1-.261,1.27.844.844,0,0,1-.911.523h-.336l.1.276q.329.844.672,1.681c-.067-.5-.149-1-.239-1.494h.142a2.368,2.368,0,0,0,.441-.075,3.478,3.478,0,0,0,.4-.239c.1-.1.2-.217.291-.329a3.936,3.936,0,0,0,.56-1.494,9.507,9.507,0,0,0,.164-1.494h0a8.511,8.511,0,0,0,.747.553,6.616,6.616,0,0,0,1.106.545,3.87,3.87,0,0,0,1.292.291,3.787,3.787,0,0,0,2.495-.986,6.93,6.93,0,0,0,.814-.807,8.525,8.525,0,0,0,.478.747,6.185,6.185,0,0,0,1.643,1.561,6.408,6.408,0,0,0,2.069.807,6.035,6.035,0,0,0,1.427.1c-.06.149-.127.3-.179.456a10.151,10.151,0,0,0-.306,1.315,5.142,5.142,0,0,0-.06,1.352,2.674,2.674,0,0,0,.4,1.27,2.793,2.793,0,0,1-.1-1.262,6.421,6.421,0,0,1,.291-1.233,12.7,12.7,0,0,1,1.083-2.241l.471-.8Z" transform="translate(-102.584 -256.964)" fill="#0091ff"/>
      </g>
      <g id="freepik--Table--inject-5" transform="translate(58.433 313.6)">
        <path id="Path_20319" data-name="Path 20319" d="M3.317,0H265.284A3.317,3.317,0,0,1,268.6,3.317v8.067H0V3.317A3.317,3.317,0,0,1,3.317,0Z" transform="translate(277.444 16.322) rotate(180)" fill="#0091ff"/>
        <rect id="Rectangle_1207" data-name="Rectangle 1207" width="268.608" height="5.692" transform="translate(277.444 10.622) rotate(180)" opacity="0.2"/>
        <path id="Path_20320" data-name="Path 20320" d="M62.432,399.9H342.3a3.212,3.212,0,0,0,3.212-3.2h0a3.212,3.212,0,0,0-3.212-3.212H62.432a3.212,3.212,0,0,0-3.212,3.212h0A3.212,3.212,0,0,0,62.432,399.9Z" transform="translate(-59.22 -393.48)" fill="#0091ff"/>
      </g>
      <g id="freepik--device-2--inject-5" transform="translate(243.789 272.633)">
        <path id="Path_20321" data-name="Path 20321" d="M393.41,340.4l-8.172,37.065a2.786,2.786,0,0,1-2.652,2.107h-44.64a1.8,1.8,0,0,1-1.673-2.331l8.157-36.781a2.555,2.555,0,0,1,2.652-1.815h44.64C392.917,338.677,393.671,339.222,393.41,340.4Z" transform="translate(-314.655 -338.638)" fill="#263238"/>
        <path id="Path_20322" data-name="Path 20322" d="M393.921,340.4l-8.172,37.065a2.786,2.786,0,0,1-2.652,2.106H339.974a1.8,1.8,0,0,1-1.681-2.331l8.172-36.781a2.532,2.532,0,0,1,2.652-1.815h43.116C393.428,338.677,394.182,339.222,393.921,340.4Z" transform="translate(-315.166 -338.637)" fill="#fff" opacity="0.4"/>
        <path id="Path_20323" data-name="Path 20323" d="M387.143,378.824l8.127-36.871c.269-1.21-.486-1.755-1.688-1.755H350.466a2.547,2.547,0,0,0-2.652,1.815l-8.254,37.3Z" transform="translate(-315.507 -339.03)" fill="#0091ff"/>
        <path id="Path_20324" data-name="Path 20324" d="M395.273,341.945l-4.288,19.481-3.847,17.4-25.472.261-22.1.217,8.217-37.289a2.532,2.532,0,0,1,2.644-1.815H393.6C394.794,340.2,395.541,340.75,395.273,341.945Z" transform="translate(-315.51 -339.029)" fill="#fff" opacity="0.4"/>
        <path id="Path_20325" data-name="Path 20325" d="M391.3,368.62l-3.847,17.4-25.472.261H340.83l3.459-15.911a2.241,2.241,0,0,1,2.166-1.748Z" transform="translate(-315.828 -346.223)" opacity="0.2"/>
        <path id="Path_20326" data-name="Path 20326" d="M391.714,371.244a2.532,2.532,0,0,0-2.652-1.808H345.947c-1.2,0-1.95.538-1.688,1.748l3.272,14.835h-7.283a.687.687,0,1,0,0,1.374h53.111a1.561,1.561,0,0,0,1.494-1.9Z" transform="translate(-315.507 -346.427)" fill="#0091ff"/>
        <path id="Path_20327" data-name="Path 20327" d="M391.714,371.244a2.532,2.532,0,0,0-2.652-1.808H345.947c-1.2,0-1.95.538-1.688,1.748l3.272,14.835h-7.283a.687.687,0,1,0,0,1.374h53.111a1.561,1.561,0,0,0,1.494-1.9Z" transform="translate(-315.507 -346.427)" fill="#fff" opacity="0.4"/>
        <path id="Path_20328" data-name="Path 20328" d="M337.8,383.91h-2.5l-.314,1.352h2.435Z" transform="translate(-314.348 -350.092)"/>
        <path id="Path_20329" data-name="Path 20329" d="M314.994,391.314h-7.208a.418.418,0,0,1-.426-.426.426.426,0,0,1,.426-.426h7.208a7.881,7.881,0,0,0,6.163-2.951,8.725,8.725,0,0,1,6.835-3.272h1.27a.433.433,0,0,1,.426.426.426.426,0,0,1-.426.426h-1.255a7.88,7.88,0,0,0-6.163,2.951A8.732,8.732,0,0,1,314.994,391.314Z" transform="translate(-307.36 -350.175)"/>
      </g>
      <g id="freepik--device-1--inject-5" transform="translate(131.309 246.447)">
        <path id="Path_20330" data-name="Path 20330" d="M156.78,386.65v3.115c0,1.4,1.7,1.987,3.1,1.987H269.373c1.389,0,3.04-.583,3.04-1.987V386.65Z" transform="translate(-156.78 -324.598)" fill="#263238"/>
        <path id="Path_20331" data-name="Path 20331" d="M156.78,386.65v3.115c0,1.4,1.7,1.987,3.1,1.987H269.373c1.389,0,3.04-.583,3.04-1.987V386.65Z" transform="translate(-156.78 -324.598)" fill="#fff" opacity="0.4"/>
        <path id="Path_20332" data-name="Path 20332" d="M206.72,386.65v3.115c0,1.4,1.666,1.987,3.07,1.987h72.218c1.389,0,3.04-.583,3.04-1.987V386.65Z" transform="translate(-169.416 -324.598)" opacity="0.2"/>
        <path id="Path_20333" data-name="Path 20333" d="M305.206,306.381,292.172,365.5a4.437,4.437,0,0,1-4.228,3.376h-71.21a2.882,2.882,0,0,1-2.674-3.735l13.02-58.675a4.073,4.073,0,0,1,4.235-2.891h71.2C304.43,303.587,305.632,304.454,305.206,306.381Z" transform="translate(-171.25 -303.58)" fill="#263238"/>
        <path id="Path_20334" data-name="Path 20334" d="M306.023,306.381,292.988,365.5a4.437,4.437,0,0,1-4.228,3.376H219.97a2.888,2.888,0,0,1-2.689-3.735l13.035-58.675c.426-1.927,2.323-2.891,4.235-2.891h68.782C305.246,303.587,306.448,304.454,306.023,306.381Z" transform="translate(-172.066 -303.58)" fill="#fff" opacity="0.4"/>
        <path id="Path_20335" data-name="Path 20335" d="M284.061,344.458h0c0,5.064-5.423,9.18-9.4,9.18s-6.334-4.116-5.229-9.18,5.087-9,8.964-9.158c-1.135,5.065,1.292,9.158,5.229,9.158A2.332,2.332,0,0,0,284.061,344.458Z" transform="translate(-185.213 -311.606)" opacity="0.2"/>
      </g>
    </g>
  </g>
</svg>
