<svg xmlns="http://www.w3.org/2000/svg" viewBox="0 0 810.67 116.44"><defs><style>.cls-1{fill:none;}.cls-2,.cls-4{fill:#0091ff;}.cls-3{fill:#fff;}.cls-4{fill-rule:evenodd;}.cls-5{fill:#04142E;}</style></defs><g id="Layer_2" data-name="Layer 2"><g id="Layer_1-2" data-name="Layer 1"><rect class="cls-1" x="436.5" width="80" height="80"/><path class="cls-2" d="M476,77.65c-20.6.33-37.37-17.27-37.36-37.29C438.65,20,455.68,3,476,3s37.31,17,37.33,37.34C513.36,60.37,496.59,78,476,77.65Zm-2.18-31.78c-1.48,0-2.89,0-4.29,0-.12,0-.29.28-.35.46a5.63,5.63,0,0,1-2.06,3,8.36,8.36,0,0,1-5.83,1.51,7.79,7.79,0,0,1-7.45-6,16.27,16.27,0,0,1-.33-2.51c-.08-.88-.05-.88.85-.88h19.27c.42,0,.68,0,.67-.57A18.77,18.77,0,0,0,472.2,32a11,11,0,0,0-6.63-5.64c-6.23-1.76-12.64.67-15.46,6.93-2.37,5.25-1.89,10.49.63,15.57a9.75,9.75,0,0,0,4.37,4.38,14.26,14.26,0,0,0,13,.25A9.85,9.85,0,0,0,473.82,45.87Zm29.55,9c-.27-.38-.42-.61-.59-.83q-5.13-7.17-10.28-14.34a.69.69,0,0,1,0-1c3.07-4.07,6.11-8.15,9.17-12.23l.42-.6c-.29,0-.47,0-.64,0-1.49,0-3,0-4.47,0a1,1,0,0,0-.95.48c-2.13,3-4.29,6.05-6.44,9.06-.12.18-.26.34-.44.57l-.45-.63q-3.07-4.48-6.14-9a1,1,0,0,0-.93-.5c-1.61,0-3.22,0-4.83,0-.19,0-.38,0-.69,0l.48.68q4.57,6.24,9.17,12.46a.83.83,0,0,1,0,1.18c-3.34,4.65-6.65,9.31-10,14-.14.19-.26.38-.44.65l.69,0c1.45,0,2.9,0,4.35,0a1.17,1.17,0,0,0,1.13-.59q3.6-5.41,7.24-10.79l.42-.57.41.59c2.43,3.61,4.87,7.21,7.28,10.83a1,1,0,0,0,1,.53c.72,0,1.45,0,2.17,0Z"/><path class="cls-3" d="M473.82,45.87a9.85,9.85,0,0,1-5.67,7.63,14.26,14.26,0,0,1-13-.25,9.75,9.75,0,0,1-4.37-4.38c-2.52-5.08-3-10.32-.63-15.57,2.82-6.26,9.23-8.69,15.46-6.93A11,11,0,0,1,472.2,32a18.77,18.77,0,0,1,2.1,8.91c0,.53-.25.57-.67.57H454.36c-.9,0-.93,0-.85.88a16.27,16.27,0,0,0,.33,2.51,7.79,7.79,0,0,0,7.45,6,8.36,8.36,0,0,0,5.83-1.51,5.63,5.63,0,0,0,2.06-3c.06-.18.23-.46.35-.46C470.93,45.86,472.34,45.87,473.82,45.87Zm-20.27-8.22h15.77a7.84,7.84,0,0,0-7.76-7.76C457.18,29.78,453.37,33.47,453.55,37.65Z"/><path class="cls-3" d="M503.37,54.88H500c-.72,0-1.45,0-2.17,0a1,1,0,0,1-1-.53c-2.41-3.62-4.85-7.22-7.28-10.83l-.41-.59-.42.57q-3.63,5.39-7.24,10.79a1.17,1.17,0,0,1-1.13.59c-1.45,0-2.9,0-4.35,0l-.69,0c.18-.27.3-.46.44-.65,3.32-4.66,6.63-9.32,10-14a.83.83,0,0,0,0-1.18q-4.61-6.21-9.17-12.46l-.48-.68c.31,0,.5,0,.69,0,1.61,0,3.22,0,4.83,0a1,1,0,0,1,.93.5q3.06,4.5,6.14,9l.45.63c.18-.23.32-.39.44-.57,2.15-3,4.31-6,6.44-9.06a1,1,0,0,1,.95-.48c1.49,0,3,0,4.47,0,.17,0,.35,0,.64,0l-.42.6c-3.06,4.08-6.1,8.16-9.17,12.23a.69.69,0,0,0,0,1q5.16,7.15,10.28,14.34C503,54.27,503.1,54.5,503.37,54.88Z"/><path class="cls-2" d="M453.55,37.65c-.18-4.18,3.63-7.87,8-7.76a7.84,7.84,0,0,1,7.76,7.76Z"/><rect class="cls-1" x="719.71" width="80" height="80"/><path class="cls-2" d="M727.71,5.91,728,9.15l5.17,58.51.19,2,1.94.55,23.48,6.57.74.18.83-.18,23.48-6.48,1.94-.55.18-2,5.27-58.61L791.49,6h-3.23l-57.32-.1Zm6.47,5.92,50.84.09-4.81,53.25L759.6,70.9l-20.71-5.73Zm7.12,8.88,1.94,22.09h25.33l-.84,9.52-8.13,2.22h-.09l-8.14-2.22-.46-6.1h-7.39l1,11.74,15,4.16h.09l15-4.16,2-22.46H749.89L749.25,28h28l.64-7.3Z"/><rect class="cls-1" x="297.03" width="80" height="80"/><polygon class="cls-2" points="336.88 26.2 327.59 10.29 299.73 10.29 336.88 73.94 374.03 10.29 346.17 10.29 336.88 26.2"/><polygon class="cls-2" points="346.17 10.29 336.88 26.2 327.59 10.29 314.18 10.29 336.88 49.18 359.58 10.29 346.17 10.29"/><rect class="cls-1" x="156.35" width="80" height="80"/><rect class="cls-1" x="157.35" y="1" width="78" height="78"/><path class="cls-4" d="M212.16,6.53a11.72,11.72,0,0,0-3.94.61A27,27,0,0,0,199.88,12c-1.13.92-2.27,2-3.41,3.08-1.11-1.09-2.22-2.1-3.32-3a27,27,0,0,0-8.33-4.89,9.14,9.14,0,0,0-7.49.37,9.16,9.16,0,0,0-4.07,6.3,26.82,26.82,0,0,0,.07,9.66c.2,1.27.49,2.6.82,4-1.24.37-2.45.77-3.57,1.21a26.13,26.13,0,0,0-8.22,4.78A9.24,9.24,0,0,0,159,40.17a9.24,9.24,0,0,0,3.35,6.66,26.14,26.14,0,0,0,8.22,4.79c1.2.47,2.5.89,3.84,1.29a48.53,48.53,0,0,0-1.14,5.2,26.82,26.82,0,0,0-.07,9.66,8.24,8.24,0,0,0,11.6,6.7,26.67,26.67,0,0,0,8.34-4.89c1.12-.9,2.25-1.94,3.38-3,1.13,1.11,2.26,2.15,3.38,3.06a26.81,26.81,0,0,0,8.33,4.88,8.2,8.2,0,0,0,11.56-6.67,26.77,26.77,0,0,0-.07-9.65,52,52,0,0,0-1.14-5.22c1.38-.41,2.72-.84,4-1.32a26,26,0,0,0,8.21-4.79,9.21,9.21,0,0,0,3.36-6.66,9.22,9.22,0,0,0-3.36-6.67,26,26,0,0,0-8.21-4.78c-1.14-.45-2.37-.85-3.63-1.23.33-1.36.63-2.7.83-4a26.88,26.88,0,0,0,.07-9.67,9.2,9.2,0,0,0-4.08-6.33A7.59,7.59,0,0,0,212.16,6.53ZM212,9.85a4.2,4.2,0,0,1,2.06.55c1.17.67,2,2,2.49,4.14a24,24,0,0,1-.1,8.44c-.19,1.16-.46,2.38-.76,3.64a76.22,76.22,0,0,0-10.9-1.75,80.28,80.28,0,0,0-6-7.37c1.07-1.05,2.13-2,3.17-2.88a24.25,24.25,0,0,1,7.26-4.3A8.41,8.41,0,0,1,212,9.85Zm-31,0a8.41,8.41,0,0,1,2.77.47,23.89,23.89,0,0,1,7.27,4.31c1,.83,2.07,1.79,3.12,2.81a77.28,77.28,0,0,0-6,7.44,73.87,73.87,0,0,0-10.85,1.76c-.31-1.25-.58-2.47-.76-3.62a24.06,24.06,0,0,1-.1-8.45c.46-2.16,1.33-3.48,2.51-4.16A4.28,4.28,0,0,1,181,9.86Zm15.49,10c1.33,1.44,2.66,3,4,4.73-1.29,0-2.6-.09-3.94-.09s-2.69,0-4,.09C193.87,22.88,195.2,21.29,196.53,19.85Zm0,7.94c2.22,0,4.39.09,6.49.25,1.45,2.07,2.86,4.28,4.21,6.62,1.19,2.05,2.26,4.1,3.23,6.12-1,2-2.07,4.13-3.27,6.21-1.06,1.83-2.16,3.57-3.29,5.24-2.37.2-4.84.31-7.37.31s-5.11-.12-7.53-.32c-1.11-1.66-2.19-3.37-3.23-5.17-1.2-2.08-2.29-4.15-3.27-6.19,1-2.06,2.08-4.15,3.28-6.23,1.34-2.33,2.75-4.52,4.19-6.59C192.13,27.88,194.32,27.79,196.56,27.79Zm10.69.65a73.89,73.89,0,0,1,7.57,1.36,73.65,73.65,0,0,1-2.6,7.14c-.67-1.3-1.37-2.61-2.13-3.92C209.17,31.44,208.22,29.92,207.25,28.44Zm-21.55,0c-.94,1.45-1.87,2.93-2.77,4.49-.77,1.33-1.48,2.65-2.17,4a75.45,75.45,0,0,1-2.58-7.1A70.73,70.73,0,0,1,185.7,28.47Zm32.35,2.2c1.16.35,2.27.72,3.3,1.12a23.18,23.18,0,0,1,7.18,4.13c1.6,1.48,2.29,2.88,2.29,4.25s-.69,2.77-2.29,4.24a23.18,23.18,0,0,1-7.18,4.14c-1.14.44-2.39.85-3.69,1.23a80.72,80.72,0,0,0-3.53-8.92A78.85,78.85,0,0,0,218.05,30.67Zm-43,0a77.85,77.85,0,0,0,3.86,10.08,80.31,80.31,0,0,0-3.54,9c-1.26-.37-2.47-.76-3.57-1.19a23.18,23.18,0,0,1-7.18-4.14c-1.6-1.47-2.29-2.88-2.29-4.24s.69-2.77,2.29-4.25a23.18,23.18,0,0,1,7.18-4.13C172.79,31.39,173.89,31,175,30.69Zm21.53,2a8.16,8.16,0,1,0,8.16,8.16A8.19,8.19,0,0,0,196.56,32.67Zm-15.76,12c.69,1.33,1.4,2.66,2.17,4,.6,1,1.22,2.06,1.84,3.06q-3.28-.47-6.23-1.15C179.2,48.69,180,46.71,180.8,44.69Zm31.46,0c.86,2,1.6,4,2.23,5.92-2,.45-4.05.84-6.25,1.14.63-1,1.26-2,1.87-3.1C210.87,47.33,211.58,46,212.26,44.69Zm-34.62,9.07a75.15,75.15,0,0,0,9.55,1.59,80.82,80.82,0,0,0,7,8.8c-1.07,1-2.12,2-3.15,2.84a23.89,23.89,0,0,1-7.27,4.31c-2.09.68-3.66.59-4.82-.08s-2-2-2.48-4.14a24,24,0,0,1,.09-8.44C176.82,57.1,177.19,55.46,177.64,53.76Zm37.79,0a49.17,49.17,0,0,1,1.08,4.9,23.78,23.78,0,0,1,.09,8.45c-.46,2.16-1.32,3.48-2.49,4.16s-2.76.77-4.86.09A24,24,0,0,1,202,67.07c-1-.85-2.09-1.83-3.16-2.87a82.82,82.82,0,0,0,7.05-8.84A77,77,0,0,0,215.43,53.78Zm-24,1.91c1.68.09,3.37.15,5.11.15s3.33-.06,4.95-.15a75.63,75.63,0,0,1-5,6.11C194.8,60,193.11,57.92,191.45,55.69Z"/><rect class="cls-1" x="12.6" width="80" height="80"/><path class="cls-2" d="M88.78,14.39c-.12,1-.25,2-.37,3l-1.23,9.76q-.66,5.32-1.34,10.66-.54,4.34-1.09,8.69l-1.23,9.78c-.18,1.47-.37,3-.55,4.42a.49.49,0,0,1-.28.43L52.89,77.59a.45.45,0,0,1-.51,0L23.05,61.31a.48.48,0,0,1-.27-.41c-.34-3-.69-6-1-8.94l-1.11-9.59q-.55-4.74-1.09-9.47L18.26,21.8c-.26-2.3-.52-4.61-.8-6.91,0-.27.09-.33.29-.4L36.81,7.7,52.37,2.17a.89.89,0,0,1,.56,0L88.44,14.26Zm-58,45.28h1.16l4.9-.06c.56,0,1.12,0,1.69,0a.55.55,0,0,0,.6-.42c1.36-3.43,2.74-6.86,4.1-10.29a.44.44,0,0,1,.49-.34h19a.46.46,0,0,1,.5.33c1.52,3.53,3,7,4.56,10.58a.38.38,0,0,0,.39.27c2,0,4,.07,5.94.1h1.61l-23-48.91Z"/><path class="cls-3" d="M30.77,59.67,52.69,10.9l23,48.91H74.06c-2,0-4-.08-5.94-.1a.38.38,0,0,1-.39-.27c-1.51-3.53-3-7-4.56-10.58a.46.46,0,0,0-.5-.33h-19a.44.44,0,0,0-.49.34c-1.36,3.43-2.74,6.86-4.1,10.29a.55.55,0,0,1-.6.42c-.57,0-1.13,0-1.69,0l-4.9.06Zm22-33.13C50.56,31.73,48.41,36.85,46.24,42h13.9Z"/><path class="cls-2" d="M52.75,26.54,60.14,42H46.24C48.41,36.85,50.56,31.73,52.75,26.54Z"/><rect class="cls-1" x="581.05" width="80" height="80"/><path class="cls-2" d="M621.22,5h36.63C659,5,659,5,659,6.15q0,33.87,0,67.75c0,1.39,0,1.39-1.38,1.39h-68c-1.75,0-3.5-.07-5.25,0-.79,0-1-.24-1-1q0-17,0-34.05V6.15c0-1.15,0-1.15,1.15-1.15Zm0,65h31.63c1.21,0,1.22,0,1.22-1.19V11.17c0-1.23,0-1.23-1.2-1.23H589.61c-1.22,0-1.22,0-1.22,1.21V68.74c0,1.22,0,1.22,1.19,1.22Z"/><path class="cls-2" d="M650.3,40.42a9.48,9.48,0,0,0-1.49-.68c-1.24-.35-2.5-.63-3.75-.93a11.51,11.51,0,0,0-3.75,0,5,5,0,0,0-4.08,2.32A4.12,4.12,0,0,0,638.84,47c2.18,1.24,4.47,2.31,6.66,3.54a13.1,13.1,0,0,1,5.17,4.71c2.26,3.92.84,9.48-3.67,11.3a17.25,17.25,0,0,1-9.33,1.17c-1.74-.28-3.47-.69-5.2-1.07a1.17,1.17,0,0,1-1-1.42c.09-1.2,0-2.42,0-3.63,1.3.55,2.46,1.13,3.69,1.54a12.79,12.79,0,0,0,8.63.12,4.06,4.06,0,0,0,2.67-3.61c.17-2.86-1.71-4-3.68-5.15-2.18-1.26-4.5-2.29-6.68-3.57a9.54,9.54,0,0,1-4.57-5.82,8.11,8.11,0,0,1,2.74-7.65,11.72,11.72,0,0,1,6.65-2.55,23,23,0,0,1,2.94-.27c1.82.14,3.62.43,5.42.72a1.15,1.15,0,0,1,1.06,1.4C650.23,37.91,650.3,39.11,650.3,40.42Z"/><path class="cls-2" d="M613.39,53.43c0-4.26,0-8.52,0-12.78,0-.86-.24-1.17-1.14-1.15-2.34.06-4.67,0-7,0-.74,0-1.07-.17-1-1a20,20,0,0,0,0-2.45c0-.65.23-.86.87-.86,2.1,0,4.2,0,6.31,0h15.06c1.19,0,1.19,0,1.19,1.23,0,.72,0,1.46,0,2.18s-.22.87-.86.86c-2.4,0-4.79,0-7.19,0-1.27,0-1.28,0-1.28,1.25V65.89c0,1.35,0,1.35-1.4,1.36-.88,0-1.75,0-2.63,0s-1-.25-1-1C613.41,62,613.39,57.72,613.39,53.43Z"/><path class="cls-5" d="M157.53,111.64V97.24h6.34a3.66,3.66,0,0,1,.59.07,4.24,4.24,0,0,1,2,.82,4,4,0,0,1,1.2,1.59,5.38,5.38,0,0,1,.4,2.12,5,5,0,0,1-.88,3,3.93,3.93,0,0,1-2.64,1.56l-.85.1h-4.08v5.17Zm2.09-7.15h3.65l.45,0,.46-.07a2,2,0,0,0,1-.56,2.31,2.31,0,0,0,.56-.94,3.36,3.36,0,0,0,0-2.11,2.35,2.35,0,0,0-.56-.93,1.94,1.94,0,0,0-1-.55,2.33,2.33,0,0,0-.46-.08,3.7,3.7,0,0,0-.45,0h-3.65Zm6.33,7.15-2.84-5.86,2.11-.54,3.12,6.4Z"/><path class="cls-5" d="M175.33,111.94a5.52,5.52,0,0,1-2.82-.71,4.91,4.91,0,0,1-1.89-2,6.12,6.12,0,0,1-.68-2.93,6.56,6.56,0,0,1,.67-3.07,4.81,4.81,0,0,1,1.85-2,5.24,5.24,0,0,1,2.77-.71,5,5,0,0,1,2.81.76,4.69,4.69,0,0,1,1.74,2.18,7.62,7.62,0,0,1,.45,3.35h-2.09v-.76a4.61,4.61,0,0,0-.71-2.78,2.52,2.52,0,0,0-2.12-.9,2.84,2.84,0,0,0-2.36,1,4.47,4.47,0,0,0-.79,2.86A4.25,4.25,0,0,0,173,109a2.78,2.78,0,0,0,2.28,1,3.15,3.15,0,0,0,1.7-.45,3.07,3.07,0,0,0,1.11-1.27l2.05.65a4.88,4.88,0,0,1-1.91,2.24A5.28,5.28,0,0,1,175.33,111.94Zm-3.85-5.11v-1.64h7.71v1.64Z"/><path class="cls-5" d="M185.32,111.94a4.09,4.09,0,0,1-2-.45,3,3,0,0,1-1.22-1.18,3.21,3.21,0,0,1-.42-1.62,3.38,3.38,0,0,1,.29-1.43,2.75,2.75,0,0,1,.86-1.06,4.7,4.7,0,0,1,1.4-.7,13.71,13.71,0,0,1,1.63-.37q.92-.16,1.92-.3l2-.28L189,105a2.7,2.7,0,0,0-.53-1.89,2.49,2.49,0,0,0-1.91-.61,3.17,3.17,0,0,0-1.56.39,2.15,2.15,0,0,0-1,1.31l-1.95-.6a4,4,0,0,1,1.53-2.21,4.93,4.93,0,0,1,3-.82,6,6,0,0,1,2.53.49,3.12,3.12,0,0,1,1.57,1.57,3.29,3.29,0,0,1,.32,1.12,12.44,12.44,0,0,1,.06,1.27v6.65h-1.85v-2.47l.36.32a4.61,4.61,0,0,1-1.7,1.84A5,5,0,0,1,185.32,111.94Zm.37-1.71a3.45,3.45,0,0,0,1.53-.32,3,3,0,0,0,1-.8,2.58,2.58,0,0,0,.51-1A4,4,0,0,0,189,107c0-.4,0-.72,0-1l.68.25-1.8.27c-.54.08-1,.15-1.46.23a9.18,9.18,0,0,0-1.17.28,3.57,3.57,0,0,0-.76.36,1.7,1.7,0,0,0-.53.5,1.36,1.36,0,0,0-.2.74,1.49,1.49,0,0,0,.21.77,1.43,1.43,0,0,0,.64.57A2.66,2.66,0,0,0,185.69,110.23Z"/><path class="cls-5" d="M198.28,111.94a5.07,5.07,0,0,1-2.82-.75,4.77,4.77,0,0,1-1.77-2,6.89,6.89,0,0,1-.63-2.93,6.78,6.78,0,0,1,.64-3,4.75,4.75,0,0,1,1.8-2,5.71,5.71,0,0,1,5.84.15,4.13,4.13,0,0,1,1.65,2.41l-2.08.6a2.81,2.81,0,0,0-1-1.42,2.68,2.68,0,0,0-1.62-.5,2.79,2.79,0,0,0-1.69.48,2.84,2.84,0,0,0-1,1.33,5.67,5.67,0,0,0-.33,1.92,4.5,4.5,0,0,0,.77,2.7,2.59,2.59,0,0,0,2.23,1,2.7,2.7,0,0,0,1.64-.47,2.91,2.91,0,0,0,1-1.33l2.12.5a4.62,4.62,0,0,1-1.75,2.42A5.09,5.09,0,0,1,198.28,111.94Z"/><path class="cls-5" d="M203.83,102.52v-1.68h7.38v1.68Zm7.38,9.12a9.17,9.17,0,0,1-2,.17,4.59,4.59,0,0,1-1.75-.38,2.43,2.43,0,0,1-1.16-1.1,3.16,3.16,0,0,1-.37-1.37c0-.46,0-1,0-1.57V97.84H208v9.45c0,.43,0,.81,0,1.13a1.67,1.67,0,0,0,.2.81,1.43,1.43,0,0,0,1.15.7,7.33,7.33,0,0,0,1.84-.06Z"/><path class="cls-5" d="M220.22,111.93a4.16,4.16,0,0,1-2.65-.84,4.28,4.28,0,0,1-1.49-2.26l2.07-.49a2,2,0,0,0,.72,1.14,1.94,1.94,0,0,0,1.28.48,2.31,2.31,0,0,0,1-.24,1.56,1.56,0,0,0,.76-.78,2.41,2.41,0,0,0,.2-.83q0-.47,0-1.08V97.24h2.12v10.93a4.74,4.74,0,0,1-.11.94,3.18,3.18,0,0,1-.36.91,3.54,3.54,0,0,1-1.5,1.45A4.64,4.64,0,0,1,220.22,111.93Z"/><path class="cls-5" d="M231.38,111.93a5.48,5.48,0,0,1-3.21-.87,3.65,3.65,0,0,1-1.52-2.45l2.14-.33a2.11,2.11,0,0,0,.92,1.32,3.24,3.24,0,0,0,1.81.49,2.62,2.62,0,0,0,1.53-.4,1.3,1.3,0,0,0,.56-1.1,1.07,1.07,0,0,0-.2-.67,1.82,1.82,0,0,0-.81-.48,18.16,18.16,0,0,0-1.89-.57,11,11,0,0,1-2.21-.78,2.87,2.87,0,0,1-1.16-1,2.5,2.5,0,0,1-.34-1.34,2.82,2.82,0,0,1,.52-1.71,3.28,3.28,0,0,1,1.46-1.13,5.61,5.61,0,0,1,2.22-.4,5.89,5.89,0,0,1,2.21.39A3.84,3.84,0,0,1,235,102a3.18,3.18,0,0,1,.72,1.68l-2.14.39a1.76,1.76,0,0,0-.73-1.23,2.82,2.82,0,0,0-1.61-.49,2.68,2.68,0,0,0-1.54.31,1.1,1.1,0,0,0-.59,1,.9.9,0,0,0,.22.61,2.44,2.44,0,0,0,.88.48c.43.15,1.07.33,1.92.55a9.94,9.94,0,0,1,2.16.77,2.79,2.79,0,0,1,1.14,1,2.74,2.74,0,0,1,.35,1.42,3,3,0,0,1-1.17,2.51A5.11,5.11,0,0,1,231.38,111.93Z"/><path class="cls-5" d="M312.93,111.64l-4.68-14.4h2.17l4,12.29,4-12.29h2.17l-4.68,14.4Z"/><path class="cls-5" d="M325.59,111.93a4.38,4.38,0,0,1-1.88-.36,3.51,3.51,0,0,1-1.24-.95,4.57,4.57,0,0,1-.72-1.27,6.36,6.36,0,0,1-.34-1.35,8.76,8.76,0,0,1-.09-1.16v-6h2.12v5.31a8.19,8.19,0,0,0,.1,1.29,4.29,4.29,0,0,0,.4,1.24,2.53,2.53,0,0,0,.83.92,2.57,2.57,0,0,0,1.4.34,3.11,3.11,0,0,0,1.06-.18,2.21,2.21,0,0,0,.87-.59,2.94,2.94,0,0,0,.59-1.08,5.18,5.18,0,0,0,.22-1.63l1.3.48a5.78,5.78,0,0,1-.55,2.6,4.15,4.15,0,0,1-1.58,1.76A4.7,4.7,0,0,1,325.59,111.93Zm3.57-.29v-3.12h-.25v-7.68H331v10.8Z"/><path class="cls-5" d="M338.61,111.94a5.56,5.56,0,0,1-2.83-.71,4.91,4.91,0,0,1-1.89-2,6.12,6.12,0,0,1-.67-2.93,6.68,6.68,0,0,1,.66-3.07,4.89,4.89,0,0,1,1.86-2,5.24,5.24,0,0,1,2.77-.71,5,5,0,0,1,2.81.76,4.61,4.61,0,0,1,1.73,2.18,7.47,7.47,0,0,1,.46,3.35h-2.09v-.76a4.54,4.54,0,0,0-.72-2.78,2.49,2.49,0,0,0-2.11-.9,2.84,2.84,0,0,0-2.36,1,4.47,4.47,0,0,0-.79,2.86,4.25,4.25,0,0,0,.79,2.75,2.78,2.78,0,0,0,2.28,1,3.09,3.09,0,0,0,1.69-.45,3,3,0,0,0,1.12-1.27l2.05.65a4.88,4.88,0,0,1-1.91,2.24A5.28,5.28,0,0,1,338.61,111.94Zm-3.85-5.11v-1.64h7.71v1.64Z"/><path class="cls-5" d="M345.71,111.64v-2.21h2.21v2.21Z"/><path class="cls-5" d="M349.48,116.44v-2H350a1.67,1.67,0,0,0,1.22-.4,1.76,1.76,0,0,0,.38-1.23v-12h2.1v12.84a2.72,2.72,0,0,1-.73,2,2.84,2.84,0,0,1-2.07.72Zm2.15-17.37V97h2.1v2Z"/><path class="cls-5" d="M360.72,111.93a5.48,5.48,0,0,1-3.21-.87,3.65,3.65,0,0,1-1.52-2.45l2.14-.33a2.11,2.11,0,0,0,.92,1.32,3.24,3.24,0,0,0,1.81.49,2.62,2.62,0,0,0,1.53-.4,1.3,1.3,0,0,0,.56-1.1,1.07,1.07,0,0,0-.2-.67,1.82,1.82,0,0,0-.81-.48,18.16,18.16,0,0,0-1.89-.57,11,11,0,0,1-2.21-.78,2.87,2.87,0,0,1-1.16-1,2.5,2.5,0,0,1-.34-1.34,2.82,2.82,0,0,1,.52-1.71,3.28,3.28,0,0,1,1.46-1.13,5.61,5.61,0,0,1,2.22-.4,5.89,5.89,0,0,1,2.21.39,3.84,3.84,0,0,1,1.57,1.1,3.18,3.18,0,0,1,.72,1.68l-2.14.39a1.76,1.76,0,0,0-.73-1.23,2.82,2.82,0,0,0-1.61-.49,2.68,2.68,0,0,0-1.54.31,1.1,1.1,0,0,0-.59,1,.9.9,0,0,0,.22.61,2.44,2.44,0,0,0,.88.48c.43.15,1.07.33,1.92.55a9.94,9.94,0,0,1,2.16.77,2.79,2.79,0,0,1,1.14,1,2.74,2.74,0,0,1,.35,1.42,3,3,0,0,1-1.17,2.51A5.11,5.11,0,0,1,360.72,111.93Z"/><path class="cls-5" d="M429.88,111.64V97.24h9.2v2H432v4h5.91v2H432v4.45h7.11v2Z"/><path class="cls-5" d="M440.28,111.64l4-5.46-3.95-5.34h2.48l2.69,3.71,2.66-3.71h2.48l-3.95,5.34,4,5.46h-2.49l-2.75-3.83-2.77,3.83Z"/><path class="cls-5" d="M452.37,116.44v-15.6h1.86v7.77h.24v7.83Zm5.08-4.5a4.35,4.35,0,0,1-2.6-.76,4.65,4.65,0,0,1-1.59-2,7.47,7.47,0,0,1-.54-2.91,7.66,7.66,0,0,1,.53-2.91,4.7,4.7,0,0,1,1.58-2,4.32,4.32,0,0,1,2.58-.74,4.53,4.53,0,0,1,2.62.74,4.86,4.86,0,0,1,1.71,2,7.38,7.38,0,0,1,0,5.83,4.88,4.88,0,0,1-1.69,2A4.5,4.5,0,0,1,457.45,111.94Zm-.29-1.89a2.6,2.6,0,0,0,1.65-.51,3,3,0,0,0,1-1.38,5.39,5.39,0,0,0,.33-1.93,5.3,5.3,0,0,0-.33-1.92,3,3,0,0,0-1-1.37,2.76,2.76,0,0,0-1.71-.51,2.68,2.68,0,0,0-1.62.47,2.92,2.92,0,0,0-.94,1.35,6,6,0,0,0-.3,2,6.06,6.06,0,0,0,.3,2,2.78,2.78,0,0,0,1,1.35A2.75,2.75,0,0,0,457.16,110.05Z"/><path class="cls-5" d="M464.54,111.64v-10.8h1.86v2.62l-.26-.34a3.71,3.71,0,0,1,.52-1,3,3,0,0,1,.74-.72,3.38,3.38,0,0,1,.91-.46,4.07,4.07,0,0,1,1-.2,4.31,4.31,0,0,1,1,.06v2a3.25,3.25,0,0,0-1.18-.08,2.49,2.49,0,0,0-1.18.41,2.58,2.58,0,0,0-.81.8,3.08,3.08,0,0,0-.42,1,5.31,5.31,0,0,0-.13,1.22v5.45Z"/><path class="cls-5" d="M476.86,111.94a5.53,5.53,0,0,1-2.83-.71,4.91,4.91,0,0,1-1.89-2,6.12,6.12,0,0,1-.67-2.93,6.68,6.68,0,0,1,.66-3.07,4.83,4.83,0,0,1,1.86-2,5.22,5.22,0,0,1,2.77-.71,5,5,0,0,1,2.81.76,4.61,4.61,0,0,1,1.73,2.18,7.47,7.47,0,0,1,.46,3.35h-2.09v-.76a4.67,4.67,0,0,0-.72-2.78,2.5,2.5,0,0,0-2.11-.9,2.82,2.82,0,0,0-2.36,1,4.47,4.47,0,0,0-.79,2.86,4.25,4.25,0,0,0,.79,2.75,2.75,2.75,0,0,0,2.28,1,3.09,3.09,0,0,0,1.69-.45,3,3,0,0,0,1.12-1.27l2.05.65a4.88,4.88,0,0,1-1.91,2.24A5.33,5.33,0,0,1,476.86,111.94ZM473,106.83v-1.64h7.71v1.64Z"/><path class="cls-5" d="M488.13,111.93a5.44,5.44,0,0,1-3.21-.87,3.61,3.61,0,0,1-1.52-2.45l2.14-.33a2.11,2.11,0,0,0,.92,1.32,3.24,3.24,0,0,0,1.81.49,2.62,2.62,0,0,0,1.53-.4,1.3,1.3,0,0,0,.56-1.1,1.07,1.07,0,0,0-.2-.67,1.82,1.82,0,0,0-.81-.48q-.63-.24-1.89-.57a10.82,10.82,0,0,1-2.21-.78,2.87,2.87,0,0,1-1.16-1,2.5,2.5,0,0,1-.34-1.34,2.82,2.82,0,0,1,.52-1.71,3.22,3.22,0,0,1,1.46-1.13,5.61,5.61,0,0,1,2.22-.4,5.92,5.92,0,0,1,2.21.39,3.91,3.91,0,0,1,1.57,1.1,3.18,3.18,0,0,1,.72,1.68l-2.14.39a1.8,1.8,0,0,0-.73-1.23,2.85,2.85,0,0,0-1.61-.49,2.66,2.66,0,0,0-1.54.31,1.08,1.08,0,0,0-.59,1,.9.9,0,0,0,.22.61,2.35,2.35,0,0,0,.88.48c.43.15,1.07.33,1.92.55a10.35,10.35,0,0,1,2.16.77,2.79,2.79,0,0,1,1.14,1,2.74,2.74,0,0,1,.35,1.42,3,3,0,0,1-1.17,2.51A5.13,5.13,0,0,1,488.13,111.93Z"/><path class="cls-5" d="M498.85,111.93a5.44,5.44,0,0,1-3.21-.87,3.61,3.61,0,0,1-1.52-2.45l2.14-.33a2.11,2.11,0,0,0,.92,1.32,3.21,3.21,0,0,0,1.81.49,2.62,2.62,0,0,0,1.53-.4,1.3,1.3,0,0,0,.56-1.1,1.07,1.07,0,0,0-.2-.67,1.82,1.82,0,0,0-.81-.48q-.63-.24-1.89-.57a10.82,10.82,0,0,1-2.21-.78,2.87,2.87,0,0,1-1.16-1,2.5,2.5,0,0,1-.34-1.34,2.82,2.82,0,0,1,.52-1.71,3.22,3.22,0,0,1,1.46-1.13,5.61,5.61,0,0,1,2.22-.4,5.92,5.92,0,0,1,2.21.39,3.91,3.91,0,0,1,1.57,1.1,3.18,3.18,0,0,1,.72,1.68l-2.14.39a1.8,1.8,0,0,0-.73-1.23,2.85,2.85,0,0,0-1.61-.49,2.66,2.66,0,0,0-1.54.31,1.08,1.08,0,0,0-.59,1,.9.9,0,0,0,.22.61,2.35,2.35,0,0,0,.88.48c.43.15,1.07.33,1.92.55a10.35,10.35,0,0,1,2.16.77,2.79,2.79,0,0,1,1.14,1,2.74,2.74,0,0,1,.35,1.42,3,3,0,0,1-1.17,2.51A5.13,5.13,0,0,1,498.85,111.93Z"/><path class="cls-5" d="M508.18,111.93a4.19,4.19,0,0,1-2.66-.84,4.27,4.27,0,0,1-1.48-2.26l2.07-.49a2,2,0,0,0,.71,1.14,2,2,0,0,0,1.29.48,2.31,2.31,0,0,0,1-.24,1.56,1.56,0,0,0,.76-.78,2.41,2.41,0,0,0,.2-.83q0-.47,0-1.08V97.24h2.12V107c0,.42,0,.8,0,1.14a4.75,4.75,0,0,1-.1.94,3.18,3.18,0,0,1-.36.91,3.54,3.54,0,0,1-1.5,1.45A4.67,4.67,0,0,1,508.18,111.93Z"/><path class="cls-5" d="M519.34,111.93a5.44,5.44,0,0,1-3.21-.87,3.61,3.61,0,0,1-1.52-2.45l2.14-.33a2.11,2.11,0,0,0,.92,1.32,3.24,3.24,0,0,0,1.81.49,2.62,2.62,0,0,0,1.53-.4,1.3,1.3,0,0,0,.56-1.1,1.07,1.07,0,0,0-.2-.67,1.82,1.82,0,0,0-.81-.48q-.63-.24-1.89-.57a10.82,10.82,0,0,1-2.21-.78,2.87,2.87,0,0,1-1.16-1,2.5,2.5,0,0,1-.34-1.34,2.82,2.82,0,0,1,.52-1.71,3.22,3.22,0,0,1,1.46-1.13,5.61,5.61,0,0,1,2.22-.4,5.92,5.92,0,0,1,2.21.39,3.91,3.91,0,0,1,1.57,1.1,3.18,3.18,0,0,1,.72,1.68l-2.14.39a1.8,1.8,0,0,0-.73-1.23,2.85,2.85,0,0,0-1.61-.49,2.66,2.66,0,0,0-1.54.31,1.08,1.08,0,0,0-.59,1,.9.9,0,0,0,.22.61,2.35,2.35,0,0,0,.88.48c.43.15,1.07.33,1.92.55a10.35,10.35,0,0,1,2.16.77,2.79,2.79,0,0,1,1.14,1,2.74,2.74,0,0,1,.35,1.42,3,3,0,0,1-1.17,2.51A5.13,5.13,0,0,1,519.34,111.93Z"/><path class="cls-5" d="M574.24,111.64V99.21h-4.79v-2h11.67v2h-4.79v12.43Z"/><path class="cls-5" d="M582.78,116.44l2.09-5.69,0,1.68-4.71-11.59h2.18l3.52,9h-.64l3.36-9h2.12l-6,15.6Z"/><path class="cls-5" d="M592.28,116.44v-15.6h1.86v7.77h.24v7.83Zm5.08-4.5a4.37,4.37,0,0,1-2.6-.76,4.65,4.65,0,0,1-1.59-2,7.47,7.47,0,0,1-.54-2.91,7.66,7.66,0,0,1,.53-2.91,4.65,4.65,0,0,1,1.59-2,4.27,4.27,0,0,1,2.57-.74,4.53,4.53,0,0,1,2.62.74,4.86,4.86,0,0,1,1.71,2,7.38,7.38,0,0,1,0,5.83,4.88,4.88,0,0,1-1.69,2A4.47,4.47,0,0,1,597.36,111.94Zm-.29-1.89a2.58,2.58,0,0,0,1.65-.51,3.13,3.13,0,0,0,1-1.38,5.62,5.62,0,0,0,.32-1.93,5.52,5.52,0,0,0-.32-1.92,3,3,0,0,0-1-1.37,2.76,2.76,0,0,0-1.71-.51,2.7,2.7,0,0,0-1.62.47,2.92,2.92,0,0,0-.94,1.35,6,6,0,0,0-.3,2,6.06,6.06,0,0,0,.3,2,2.84,2.84,0,0,0,.95,1.35A2.75,2.75,0,0,0,597.07,110.05Z"/><path class="cls-5" d="M609.24,111.94a5.56,5.56,0,0,1-2.83-.71,4.91,4.91,0,0,1-1.89-2,6.24,6.24,0,0,1-.67-2.93,6.68,6.68,0,0,1,.66-3.07,4.89,4.89,0,0,1,1.86-2,5.24,5.24,0,0,1,2.77-.71,5,5,0,0,1,2.81.76,4.61,4.61,0,0,1,1.73,2.18,7.47,7.47,0,0,1,.46,3.35h-2.09v-.76a4.54,4.54,0,0,0-.72-2.78,2.49,2.49,0,0,0-2.11-.9,2.84,2.84,0,0,0-2.36,1,4.47,4.47,0,0,0-.79,2.86,4.25,4.25,0,0,0,.79,2.75,2.78,2.78,0,0,0,2.28,1,3.09,3.09,0,0,0,1.69-.45,3,3,0,0,0,1.12-1.27l2,.65a4.88,4.88,0,0,1-1.91,2.24A5.28,5.28,0,0,1,609.24,111.94Zm-3.85-5.11v-1.64h7.71v1.64Z"/><path class="cls-5" d="M621.6,111.94a7,7,0,0,1-2.8-.54,5.35,5.35,0,0,1-2-1.53,5.13,5.13,0,0,1-1-2.36l2.18-.33a3.42,3.42,0,0,0,1.38,2,4.18,4.18,0,0,0,2.45.74,4.59,4.59,0,0,0,1.6-.28,2.76,2.76,0,0,0,1.17-.79,1.79,1.79,0,0,0,.45-1.23,1.66,1.66,0,0,0-.51-1.22,2,2,0,0,0-.57-.39,4.44,4.44,0,0,0-.73-.28l-3.69-1.09a8.81,8.81,0,0,1-1.1-.42,4.05,4.05,0,0,1-1-.67,3.15,3.15,0,0,1-.75-1,3.53,3.53,0,0,1-.29-1.49,3.74,3.74,0,0,1,.68-2.26,4.26,4.26,0,0,1,1.86-1.4,6.83,6.83,0,0,1,2.62-.48,6.75,6.75,0,0,1,2.61.53A5,5,0,0,1,626,98.9a5.25,5.25,0,0,1,1.06,2.27l-2.24.38a3,3,0,0,0-.64-1.4,3.33,3.33,0,0,0-1.2-.9,3.76,3.76,0,0,0-1.54-.32,3.55,3.55,0,0,0-1.47.24,2.55,2.55,0,0,0-1.06.73,1.63,1.63,0,0,0-.39,1.08,1.33,1.33,0,0,0,.35,1,2.4,2.4,0,0,0,.86.59c.35.14.69.26,1,.36l2.66.75c.33.09.71.21,1.13.37a5.23,5.23,0,0,1,1.23.66,3.23,3.23,0,0,1,1,1.11,3.54,3.54,0,0,1,.39,1.75,4,4,0,0,1-.44,1.91,4,4,0,0,1-1.21,1.38,5.3,5.3,0,0,1-1.76.83A7.68,7.68,0,0,1,621.6,111.94Z"/><path class="cls-5" d="M633.87,111.94a5.07,5.07,0,0,1-2.82-.75,4.79,4.79,0,0,1-1.78-2,6.89,6.89,0,0,1-.62-2.93,6.78,6.78,0,0,1,.64-3,4.75,4.75,0,0,1,1.8-2,5.18,5.18,0,0,1,2.81-.73,5.08,5.08,0,0,1,3,.88,4.1,4.1,0,0,1,1.66,2.41l-2.08.6a2.77,2.77,0,0,0-1-1.42,2.65,2.65,0,0,0-1.61-.5,2.79,2.79,0,0,0-1.69.48,2.84,2.84,0,0,0-1,1.33,5.67,5.67,0,0,0-.33,1.92,4.57,4.57,0,0,0,.76,2.7,3,3,0,0,0,3.87.56,2.86,2.86,0,0,0,1-1.33l2.12.5a4.62,4.62,0,0,1-1.75,2.42A5.09,5.09,0,0,1,633.87,111.94Z"/><path class="cls-5" d="M640.62,111.64v-10.8h1.86v2.62l-.26-.34a4,4,0,0,1,.52-1,3,3,0,0,1,.74-.72,3.54,3.54,0,0,1,.91-.46,4.16,4.16,0,0,1,1-.2,4.31,4.31,0,0,1,1,.06v2a3.23,3.23,0,0,0-1.18-.08,2.49,2.49,0,0,0-1.18.41,2.58,2.58,0,0,0-.81.8,3.55,3.55,0,0,0-.42,1,5.31,5.31,0,0,0-.13,1.22v5.45Z"/><path class="cls-5" d="M648.55,99.07V97h2.09v2Zm0,12.57v-10.8h2.09v10.8Z"/><path class="cls-5" d="M653.63,116.44v-15.6h1.86v7.77h.24v7.83Zm5.08-4.5a4.37,4.37,0,0,1-2.6-.76,4.65,4.65,0,0,1-1.59-2,7.47,7.47,0,0,1-.54-2.91,7.66,7.66,0,0,1,.53-2.91,4.7,4.7,0,0,1,1.58-2,4.32,4.32,0,0,1,2.58-.74,4.53,4.53,0,0,1,2.62.74,4.86,4.86,0,0,1,1.71,2,7.38,7.38,0,0,1,0,5.83,4.88,4.88,0,0,1-1.69,2A4.47,4.47,0,0,1,658.71,111.94Zm-.29-1.89a2.58,2.58,0,0,0,1.65-.51,3,3,0,0,0,1-1.38,5.39,5.39,0,0,0,.33-1.93,5.3,5.3,0,0,0-.33-1.92,2.9,2.9,0,0,0-1-1.37,2.76,2.76,0,0,0-1.71-.51,2.7,2.7,0,0,0-1.62.47,2.92,2.92,0,0,0-.94,1.35,6,6,0,0,0-.3,2,6.06,6.06,0,0,0,.3,2,2.84,2.84,0,0,0,1,1.35A2.75,2.75,0,0,0,658.42,110.05Z"/><path class="cls-5" d="M664.6,102.52v-1.68H672v1.68Zm7.38,9.12a9.17,9.17,0,0,1-2,.17,4.59,4.59,0,0,1-1.75-.38,2.39,2.39,0,0,1-1.16-1.1,3.18,3.18,0,0,1-.38-1.37c0-.46,0-1,0-1.57V97.84h2.1v9.45c0,.43,0,.81,0,1.13a1.67,1.67,0,0,0,.21.81,1.42,1.42,0,0,0,1.14.7,7.4,7.4,0,0,0,1.85-.06Z"/><path class="cls-5" d="M709.42,111.64V97.24h2.09v6.2h7.2v-6.2h2.1v14.4h-2.1v-6.22h-7.2v6.22Z"/><path class="cls-5" d="M727.2,111.64V99.21h-4.79v-2h11.67v2h-4.79v12.43Z"/><path class="cls-5" d="M735.68,111.64V97.24h1.89l5.22,10.83L748,97.24h1.91v14.39h-2v-9.85l-4.65,9.86h-1l-4.66-9.86v9.86Z"/><path class="cls-5" d="M752.89,111.64V97.24H755v12.43h6.52v2Z"/><path class="cls-5" d="M766.84,97.24H769l-3.84,14.4H763Z"/><path class="cls-5" d="M777.56,111.94a6.83,6.83,0,0,1-3.68-1,6.12,6.12,0,0,1-2.32-2.63,9.89,9.89,0,0,1,0-7.84,6.09,6.09,0,0,1,2.32-2.64,6.83,6.83,0,0,1,3.68-.94,6.23,6.23,0,0,1,6.4,4.65l-2.12.56a4.48,4.48,0,0,0-1.49-2.36,4.3,4.3,0,0,0-2.79-.86,4.38,4.38,0,0,0-2.55.69,4.16,4.16,0,0,0-1.53,1.93,7.35,7.35,0,0,0-.52,2.89,7.21,7.21,0,0,0,.51,2.89,4.17,4.17,0,0,0,1.54,1.93,4.45,4.45,0,0,0,2.55.68,4.3,4.3,0,0,0,2.79-.86,4.52,4.52,0,0,0,1.49-2.36l2.12.57a6.25,6.25,0,0,1-6.4,4.65Z"/><path class="cls-5" d="M792,111.94a6.94,6.94,0,0,1-2.79-.54,5.27,5.27,0,0,1-2.05-1.53,5,5,0,0,1-1-2.36l2.18-.33a3.42,3.42,0,0,0,1.38,2,4.18,4.18,0,0,0,2.45.74,4.59,4.59,0,0,0,1.6-.28,2.76,2.76,0,0,0,1.17-.79,1.79,1.79,0,0,0,.45-1.23,1.63,1.63,0,0,0-.13-.69,1.8,1.8,0,0,0-.37-.53,2.39,2.39,0,0,0-.57-.39,5,5,0,0,0-.74-.28l-3.69-1.09a8.81,8.81,0,0,1-1.1-.42,3.83,3.83,0,0,1-1-.67,3.17,3.17,0,0,1-.76-1,3.53,3.53,0,0,1-.29-1.49,3.74,3.74,0,0,1,.68-2.26,4.26,4.26,0,0,1,1.86-1.4,7,7,0,0,1,5.24,0,5.07,5.07,0,0,1,1.92,1.43,5.23,5.23,0,0,1,1,2.27l-2.24.38a3,3,0,0,0-.64-1.4,3.33,3.33,0,0,0-1.2-.9,3.76,3.76,0,0,0-1.54-.32,3.48,3.48,0,0,0-1.46.24,2.52,2.52,0,0,0-1.07.73,1.63,1.63,0,0,0-.39,1.08,1.33,1.33,0,0,0,.35,1,2.35,2.35,0,0,0,.87.59,10.35,10.35,0,0,0,1,.36l2.66.75c.33.09.71.21,1.14.37a5.37,5.37,0,0,1,1.22.66,3.23,3.23,0,0,1,1,1.11,3.54,3.54,0,0,1,.39,1.75,4,4,0,0,1-.44,1.91,4,4,0,0,1-1.2,1.38,5.35,5.35,0,0,1-1.77.83A7.68,7.68,0,0,1,792,111.94Z"/><path class="cls-5" d="M805.15,111.94a6.94,6.94,0,0,1-2.79-.54,5.27,5.27,0,0,1-2.05-1.53,5,5,0,0,1-1-2.36l2.18-.33a3.42,3.42,0,0,0,1.38,2,4.18,4.18,0,0,0,2.45.74,4.59,4.59,0,0,0,1.6-.28,2.76,2.76,0,0,0,1.17-.79,1.79,1.79,0,0,0,.45-1.23,1.63,1.63,0,0,0-.13-.69,1.8,1.8,0,0,0-.37-.53,2.26,2.26,0,0,0-.58-.39,4.44,4.44,0,0,0-.73-.28L803,104.69a8.81,8.81,0,0,1-1.1-.42,3.83,3.83,0,0,1-1-.67,3.17,3.17,0,0,1-.76-1,3.53,3.53,0,0,1-.29-1.49,3.74,3.74,0,0,1,.68-2.26,4.26,4.26,0,0,1,1.86-1.4,7,7,0,0,1,5.24,0,5.07,5.07,0,0,1,1.92,1.43,5.23,5.23,0,0,1,1.05,2.27l-2.24.38a3,3,0,0,0-.64-1.4,3.33,3.33,0,0,0-1.2-.9,3.76,3.76,0,0,0-1.54-.32,3.48,3.48,0,0,0-1.46.24,2.52,2.52,0,0,0-1.07.73A1.63,1.63,0,0,0,802,101a1.33,1.33,0,0,0,.35,1,2.35,2.35,0,0,0,.87.59,10.35,10.35,0,0,0,1,.36l2.66.75c.33.09.71.21,1.14.37a5.37,5.37,0,0,1,1.22.66,3.23,3.23,0,0,1,1,1.11,3.54,3.54,0,0,1,.39,1.75,4,4,0,0,1-.44,1.91,4,4,0,0,1-1.2,1.38,5.35,5.35,0,0,1-1.77.83A7.68,7.68,0,0,1,805.15,111.94Z"/><path class="cls-5" d="M0,110.64l4.68-14.4h3l4.68,14.4H10.2L5.89,97.5h.54L2.17,110.64Zm2.43-3.25v-2H10v2Z"/><path class="cls-5" d="M14.16,110.64V99.84H16V103h.25v7.68Zm7.59,0v-5.31a8.25,8.25,0,0,0-.11-1.3,4,4,0,0,0-.4-1.23,2.3,2.3,0,0,0-.83-.92,2.43,2.43,0,0,0-1.39-.35,3.11,3.11,0,0,0-1.06.18,2.17,2.17,0,0,0-.88.6,2.92,2.92,0,0,0-.59,1.08,5.47,5.47,0,0,0-.21,1.63l-1.3-.49a5.81,5.81,0,0,1,.55-2.6,4.13,4.13,0,0,1,1.58-1.75,4.7,4.7,0,0,1,2.49-.63,4.54,4.54,0,0,1,1.88.35,3.49,3.49,0,0,1,1.23.95,4.42,4.42,0,0,1,.73,1.28,6.36,6.36,0,0,1,.34,1.35,8.63,8.63,0,0,1,.09,1.16v6Z"/><path class="cls-5" d="M30.76,110.94a4.51,4.51,0,0,1-2.61-.75,5,5,0,0,1-1.69-2,7,7,0,0,1-.59-2.91,6.83,6.83,0,0,1,.6-2.92,4.92,4.92,0,0,1,1.7-2,4.59,4.59,0,0,1,2.63-.74,4.27,4.27,0,0,1,2.57.74,4.56,4.56,0,0,1,1.58,2,8.11,8.11,0,0,1,0,5.82,4.65,4.65,0,0,1-1.59,2A4.37,4.37,0,0,1,30.76,110.94Zm.16,4.8a5.38,5.38,0,0,1-1.69-.27,4.94,4.94,0,0,1-1.48-.8,4.32,4.32,0,0,1-1.11-1.29l1.93-1a2.15,2.15,0,0,0,1,1,3,3,0,0,0,1.37.33,3.38,3.38,0,0,0,1.52-.32,2.06,2.06,0,0,0,.95-.94,3.23,3.23,0,0,0,.32-1.57v-3H34v-8h1.85v11.09c0,.28,0,.56,0,.82a7,7,0,0,1-.11.78,3.81,3.81,0,0,1-.88,1.8,4,4,0,0,1-1.64,1.06A6.81,6.81,0,0,1,30.92,115.74Zm.13-6.69a2.75,2.75,0,0,0,1.68-.49,2.84,2.84,0,0,0,1-1.35,6.06,6.06,0,0,0,.3-2,5.72,5.72,0,0,0-.31-2,2.78,2.78,0,0,0-.94-1.35,2.65,2.65,0,0,0-1.61-.47,2.76,2.76,0,0,0-1.71.51,3,3,0,0,0-1,1.37,5.52,5.52,0,0,0-.32,1.92,5.62,5.62,0,0,0,.32,1.93,3.19,3.19,0,0,0,1,1.38A2.63,2.63,0,0,0,31.05,109.05Z"/><path class="cls-5" d="M42.7,110.93a4.38,4.38,0,0,1-1.88-.36,3.51,3.51,0,0,1-1.24-.95,4.57,4.57,0,0,1-.72-1.27,6.36,6.36,0,0,1-.34-1.35,8.76,8.76,0,0,1-.09-1.16v-6h2.12v5.31a8.19,8.19,0,0,0,.1,1.29,4.29,4.29,0,0,0,.4,1.24,2.53,2.53,0,0,0,.83.92,2.57,2.57,0,0,0,1.4.34,3.15,3.15,0,0,0,1.06-.18,2.21,2.21,0,0,0,.87-.59,2.94,2.94,0,0,0,.59-1.08,5.18,5.18,0,0,0,.22-1.63l1.3.48a5.92,5.92,0,0,1-.55,2.6,4.15,4.15,0,0,1-1.58,1.76A4.7,4.7,0,0,1,42.7,110.93Zm3.57-.29v-3.12H46V99.84h2.11v10.8Z"/><path class="cls-5" d="M51.13,110.64V95.94h2.09v14.7Z"/><path class="cls-5" d="M59.27,110.94a4.09,4.09,0,0,1-2-.45A3.11,3.11,0,0,1,56,109.31a3.3,3.3,0,0,1-.41-1.62,3.23,3.23,0,0,1,.29-1.43,2.75,2.75,0,0,1,.86-1.06,4.7,4.7,0,0,1,1.4-.7,13.71,13.71,0,0,1,1.63-.37c.61-.11,1.24-.21,1.91-.3l2-.28L63,104a2.7,2.7,0,0,0-.54-1.89,2.46,2.46,0,0,0-1.9-.61,3.17,3.17,0,0,0-1.56.39,2.08,2.08,0,0,0-1,1.31l-2-.6a4,4,0,0,1,1.52-2.21,5,5,0,0,1,3-.82,5.93,5.93,0,0,1,2.52.49,3.14,3.14,0,0,1,1.58,1.57,3.29,3.29,0,0,1,.32,1.12A12.44,12.44,0,0,1,65,104v6.65H63.16v-2.47l.36.32a4.63,4.63,0,0,1-1.71,1.84A5,5,0,0,1,59.27,110.94Zm.37-1.71a3.45,3.45,0,0,0,1.53-.32,3.1,3.1,0,0,0,1-.8,2.58,2.58,0,0,0,.51-1A3.64,3.64,0,0,0,62.9,106q0-.6,0-1l.68.25-1.8.27c-.54.08-1,.15-1.47.23a9.43,9.43,0,0,0-1.16.28,3.91,3.91,0,0,0-.77.36,1.82,1.82,0,0,0-.53.5,1.36,1.36,0,0,0-.19.74,1.49,1.49,0,0,0,.21.77,1.43,1.43,0,0,0,.64.57A2.66,2.66,0,0,0,59.64,109.23Z"/><path class="cls-5" d="M67.61,110.64V99.84h1.86v2.62l-.26-.34a4,4,0,0,1,.52-1,3,3,0,0,1,.74-.72,3.54,3.54,0,0,1,.91-.46,4.16,4.16,0,0,1,1-.2,4.31,4.31,0,0,1,1,.06v2a3.23,3.23,0,0,0-1.18-.08,2.49,2.49,0,0,0-1.18.41,2.58,2.58,0,0,0-.81.8,3.55,3.55,0,0,0-.42,1,5.31,5.31,0,0,0-.13,1.22v5.45Z"/><path class="cls-5" d="M82.08,110.93a4.21,4.21,0,0,1-2.66-.84,4.33,4.33,0,0,1-1.48-2.26l2.07-.49A2.11,2.11,0,0,0,82,109a2.31,2.31,0,0,0,1-.24,1.56,1.56,0,0,0,.76-.78,2.41,2.41,0,0,0,.2-.83q0-.47,0-1.08V96.24H86.1V106c0,.42,0,.8,0,1.14a4.11,4.11,0,0,1-.1.94,3.18,3.18,0,0,1-.36.91,3.54,3.54,0,0,1-1.5,1.45A4.64,4.64,0,0,1,82.08,110.93Z"/><path class="cls-5" d="M93.24,110.93a5.44,5.44,0,0,1-3.21-.87,3.61,3.61,0,0,1-1.52-2.45l2.14-.33a2.11,2.11,0,0,0,.92,1.32,3.24,3.24,0,0,0,1.81.49,2.62,2.62,0,0,0,1.53-.4,1.3,1.3,0,0,0,.56-1.1,1.07,1.07,0,0,0-.2-.67,1.82,1.82,0,0,0-.81-.48,19,19,0,0,0-1.89-.57,11,11,0,0,1-2.21-.78,2.87,2.87,0,0,1-1.16-1,2.5,2.5,0,0,1-.34-1.34,2.82,2.82,0,0,1,.52-1.71,3.22,3.22,0,0,1,1.46-1.13,5.61,5.61,0,0,1,2.22-.4,5.92,5.92,0,0,1,2.21.39,3.84,3.84,0,0,1,1.57,1.1,3.18,3.18,0,0,1,.72,1.68l-2.14.39a1.8,1.8,0,0,0-.73-1.23,2.85,2.85,0,0,0-1.61-.49,2.66,2.66,0,0,0-1.54.31,1.08,1.08,0,0,0-.59,1,.9.9,0,0,0,.22.61,2.35,2.35,0,0,0,.88.48c.43.15,1.07.33,1.92.55a10.14,10.14,0,0,1,2.16.77,2.79,2.79,0,0,1,1.14,1,2.74,2.74,0,0,1,.35,1.42A3,3,0,0,1,96.45,110,5.13,5.13,0,0,1,93.24,110.93Z"/></g></g></svg>