<svg xmlns="http://www.w3.org/2000/svg" width="345" height="307" viewBox="0 0 345 307">
  <g id="Group_810" data-name="Group 810" transform="translate(-14098 -4656)">
    <g id="Group_805" data-name="Group 805">
      <rect id="Rectangle_1319" data-name="Rectangle 1319" width="345" height="307" transform="translate(14098 4656)" fill="none"/>
      <g id="Content_team-pana" data-name="Content team-pana" transform="translate(14068.241 4668.163)">
        <g id="freepik--background-simple--inject-8" transform="translate(45.759 31.837)">
          <path id="Path_19983" data-name="Path 19983" d="M358.845,80.065l-1.016-1.681c-8.58-14.14-24.1-22.663-40.435-21.628a42.9,42.9,0,0,0-6.263.859,46.549,46.549,0,0,0-33.175,28.83c-3.153,8.471-4.036,18.228-10.023,24.951-7.792,8.751-21.015,9.021-32.643,8.661s-24.866-.052-32.619,8.732c-4.857,5.5-6.4,13.328-6.006,20.7,1.035,19.505,14.629,36.95,31.917,45.62s37.624,9.444,56.526,5.631c26.5-5.342,51.711-20.013,66.863-42.676S370.967,104.522,358.845,80.065Z" transform="translate(-124.983 -44.88)" fill="#f5f5f5"/>
          <circle id="Ellipse_54" data-name="Ellipse 54" cx="16.096" cy="16.096" r="16.096" transform="translate(0 135.525) rotate(-45)" fill="#f5f5f5"/>
          <circle id="Ellipse_55" data-name="Ellipse 55" cx="15.711" cy="15.711" r="15.711" transform="translate(274.288 30.606) rotate(-76.91)" fill="#f5f5f5"/>
        </g>
        <g id="freepik--Video--inject-8" transform="translate(319.344 89.827)">
          <path id="Path_19985" data-name="Path 19985" d="M655.809,177.63V171.2c0-4.1,0-9.971-.038-17.131l.071.071h-33.8l.09-.09v23.56l-.081-.081,24.358.038h.033l-24.41.043h-.076V153.984h33.958v.071c0,7.17-.029,13.067-.038,17.174v5.983A.957.957,0,0,1,655.809,177.63Z" transform="translate(-621.96 -153.97)" fill="#0091ff"/>
          <circle id="Ellipse_56" data-name="Ellipse 56" cx="4.905" cy="4.905" r="4.905" transform="translate(11.101 15.602) rotate(-77.47)" fill="#0091ff"/>
          <path id="Path_19986" data-name="Path 19986" d="M655.11,176.548V174.34l1.914,1.1,1.913,1.106-1.913,1.106-1.914,1.106Z" transform="translate(-639.37 -164.668)" fill="#fff"/>
        </g>
        <g id="freepik--Chart--inject-8" transform="translate(222.464 62.369)">
          <path id="Path_19987" data-name="Path 19987" d="M465.376,133.782H417.99V96.31l47.414-.09Z" transform="translate(-417.957 -96.182)" fill="#fafafa"/>
          <path id="Path_19988" data-name="Path 19988" d="M465.339,133.74V96.178l.047.043-47.343.095h-.085l.062-.047V133.74l-.052-.043,47.391.043-47.391.043h-.047V96.221h.133L465.4,96.14h.043v.038C465.372,118.708,465.339,133.389,465.339,133.74Z" transform="translate(-417.92 -96.14)" fill="#263238"/>
          <path id="Path_19989" data-name="Path 19989" d="M465.42,143.609h-2.474l-6.766.024h-32v-.062c0-6.377,0-11.87.024-15.754v15.754l-.062-.062h31.94l6.766.024h2.312Z" transform="translate(-421.187 -109.527)" fill="#263238"/>
          <rect id="Rectangle_1185" data-name="Rectangle 1185" width="4.159" height="4.159" transform="translate(6.396 28.664)" fill="#0091ff"/>
          <rect id="Rectangle_1186" data-name="Rectangle 1186" width="4.159" height="7.136" transform="translate(12.497 25.687)" fill="#0091ff"/>
          <rect id="Rectangle_1187" data-name="Rectangle 1187" width="4.159" height="10.512" transform="translate(18.622 22.311)" fill="#0091ff"/>
          <rect id="Rectangle_1188" data-name="Rectangle 1188" width="4.159" height="14.273" transform="translate(24.557 18.551)" fill="#0091ff"/>
          <rect id="Rectangle_1189" data-name="Rectangle 1189" width="4.159" height="19.087" transform="translate(30.63 13.731)" fill="#0091ff"/>
          <rect id="Rectangle_1190" data-name="Rectangle 1190" width="4.159" height="22.563" transform="translate(36.66 10.061)" fill="#0091ff"/>
          <g id="Group_725" data-name="Group 725" transform="translate(12.497 25.687)" opacity="0.5">
            <rect id="Rectangle_1191" data-name="Rectangle 1191" width="4.159" height="7.136" fill="#fff"/>
          </g>
          <g id="Group_726" data-name="Group 726" transform="translate(36.66 10.061)" opacity="0.5">
            <rect id="Rectangle_1192" data-name="Rectangle 1192" width="4.159" height="22.563" fill="#fff"/>
          </g>
          <path id="Path_19990" data-name="Path 19990" d="M431.39,126.859l.057-.038.161-.114.631-.423,2.374-1.572,8.257-5.4.095-.062v1.975l-.095-.052L446.123,119l11.481-7.673,3.485-2.308.95-.627.247-.157a.428.428,0,0,1,.09-.052l-.081.062-.242.171-.935.631-3.466,2.374-11.457,7.7-3.252,2.179-.1.066v-1.985l.095.052c-3.324,2.165-6.225,4.031-8.281,5.356l-2.4,1.543-.646.408-.166.1C431.414,126.849,431.395,126.864,431.39,126.859Z" transform="translate(-424.994 -102.463)" fill="#263238"/>
          <path id="Path_19991" data-name="Path 19991" d="M494.39,109.9a2.052,2.052,0,0,1-.047-.513v-1.258l.066.066h-1.524a2.478,2.478,0,0,1-.565-.047,2.478,2.478,0,0,1,.565-.047h1.586v1.32A2.637,2.637,0,0,1,494.39,109.9Z" transform="translate(-456.994 -102.42)" fill="#263238"/>
          <path id="Path_19992" data-name="Path 19992" d="M447.613,106.636c0,.038-3.637.066-8.124.066s-8.129-.028-8.129-.066,3.637-.066,8.129-.066S447.613,106.6,447.613,106.636Z" transform="translate(-424.979 -101.618)" fill="#263238"/>
          <path id="Path_19993" data-name="Path 19993" d="M437.192,109.756c0,.038-1.363.066-3.048.066s-3.044-.028-3.044-.066,1.363-.066,3.044-.066S437.192,109.723,437.192,109.756Z" transform="translate(-424.842 -103.256)" fill="#263238"/>
          <path id="Path_19994" data-name="Path 19994" d="M448.15,109.756a10.422,10.422,0,0,1-2.35,0,10.422,10.422,0,0,1,2.35,0Z" transform="translate(-432.562 -103.256)" fill="#263238"/>
          <g id="Group_727" data-name="Group 727" transform="translate(24.557 18.551)" opacity="0.3">
            <rect id="Rectangle_1193" data-name="Rectangle 1193" width="4.159" height="14.273" fill="#fff"/>
          </g>
        </g>
        <g id="freepik--speech-bubble--inject-8" transform="translate(150.773 66.628)">
          <path id="Path_19995" data-name="Path 19995" d="M293.66,129.629l-2.735-4.819a12.92,12.92,0,1,0-3.091,3.438h0Z" transform="translate(-266.971 -105.11)" fill="#fafafa"/>
          <path id="Path_19996" data-name="Path 19996" d="M293.619,129.639l-5.84-1.334h-.057l.033-.047h0l.057.057a13.294,13.294,0,0,1-2.649,1.6,12.82,12.82,0,0,1-3.537,1.007,11.54,11.54,0,0,1-2.042.1c-.351,0-.707-.028-1.068-.057l-1.087-.166a13,13,0,0,1-8.072-5.171,12.863,12.863,0,0,1-2.179-4.981,13.1,13.1,0,0,1,.152-5.736,12.7,12.7,0,0,1,2.763-5.3l.527-.579c.171-.195.38-.356.565-.537a5.394,5.394,0,0,1,.584-.508l.622-.475a5.727,5.727,0,0,1,.636-.427l.655-.394.684-.332a5.609,5.609,0,0,1,.693-.309,13.138,13.138,0,0,1,5.778-.888,12.749,12.749,0,0,1,5.308,1.567,13.072,13.072,0,0,1,6.116,7.53,13.913,13.913,0,0,1,.56,4.193,12.82,12.82,0,0,1-1.923,6.4v-.038l2.7,4.838-2.768-4.8h0a13.23,13.23,0,0,0,1.272-2.763,12.867,12.867,0,0,0,.608-3.594,13.771,13.771,0,0,0-.57-4.155,13.058,13.058,0,0,0-6.068-7.459,12.611,12.611,0,0,0-5.247-1.543,13.052,13.052,0,0,0-5.7.883,5.8,5.8,0,0,0-.679.3l-.679.328-.646.394a5.378,5.378,0,0,0-.632.418l-.612.475c-.209.147-.38.337-.575.5a5.883,5.883,0,0,0-.56.527l-.522.575a12.578,12.578,0,0,0-2.73,5.223,12.781,12.781,0,0,0,9.957,15.726l1.078.166c.356.033.712.043,1.059.062a11.357,11.357,0,0,0,2.023-.095,12.791,12.791,0,0,0,3.509-.988,13.376,13.376,0,0,0,2.645-1.572l.237-.185-.18.242h0l-.024-.062Z" transform="translate(-266.931 -105.12)" fill="#263238"/>
          <path id="Path_19997" data-name="Path 19997" d="M283.711,130.93a1.31,1.31,0,1,1-1.31-1.31A1.31,1.31,0,0,1,283.711,130.93Z" transform="translate(-274.367 -117.982)" fill="#263238"/>
          <path id="Path_19998" data-name="Path 19998" d="M294.741,130.93a1.306,1.306,0,1,1-.382-.928A1.31,1.31,0,0,1,294.741,130.93Z" transform="translate(-280.16 -117.982)" fill="#263238"/>
          <path id="Path_19999" data-name="Path 19999" d="M305.947,130.277a1.306,1.306,0,1,1-.8-.61A1.31,1.31,0,0,1,305.947,130.277Z" transform="translate(-286.139 -117.984)" fill="#263238"/>
        </g>
        <g id="freepik--character-3--inject-8" transform="translate(243.606 75.086)">
          <path id="Path_20000" data-name="Path 20000" d="M544.2,377.49l7.269,38.844s4.164,2.4,6.272,1.448l-1.481-39.518Z" transform="translate(-505.383 -256.62)" fill="#ba7e6d"/>
          <path id="Path_20001" data-name="Path 20001" d="M550.314,458.911v.475s-8.276,3.585-8.314,5.175l16.618-.475-.394-5.527A9.5,9.5,0,0,1,550.314,458.911Z" transform="translate(-504.227 -299.197)" fill="#0091ff"/>
          <g id="Group_728" data-name="Group 728" transform="translate(51.556 161.152)" opacity="0.6">
            <path id="Path_20002" data-name="Path 20002" d="M571.832,462.338a.688.688,0,0,1,.475.76.66.66,0,0,1-.75.5.722.722,0,0,1-.518-.812.674.674,0,0,1,.836-.427" transform="translate(-571.03 -462.327)" fill="#fff"/>
          </g>
          <g id="Group_729" data-name="Group 729" transform="translate(37.763 163.541)" opacity="0.6">
            <path id="Path_20003" data-name="Path 20003" d="M558.608,468.689l-.095-1.329-15.892.95s-.731.342-.631.859Z" transform="translate(-541.98 -467.36)" fill="#fff"/>
          </g>
          <path id="Path_20004" data-name="Path 20004" d="M559.419,460.337c0,.081.408.1.817.351s.631.584.7.551-.062-.475-.56-.793S559.4,460.261,559.419,460.337Z" transform="translate(-513.375 -300.081)" fill="#263238"/>
          <path id="Path_20005" data-name="Path 20005" d="M555.79,462.03c0,.076.337.2.627.541s.375.693.475.688.119-.475-.247-.878S555.79,461.949,555.79,462.03Z" transform="translate(-511.47 -301)" fill="#263238"/>
          <path id="Path_20006" data-name="Path 20006" d="M553.075,464.992c.071,0,.171-.394-.047-.831s-.608-.6-.641-.537.209.3.389.665S552.994,464.987,553.075,464.992Z" transform="translate(-509.681 -301.849)" fill="#263238"/>
          <path id="Path_20007" data-name="Path 20007" d="M578.143,375.88a52.729,52.729,0,0,1,.9,9.3c-.19,2.407-4.335,34.566-4.335,34.566l-6.434.152-3.737-43.288Z" transform="translate(-516.065 -255.774)" fill="#ba7e6d"/>
          <path id="Path_20008" data-name="Path 20008" d="M565.078,382.89a2.449,2.449,0,0,1,.067.375c.033.271.081.631.138,1.087.114.95.271,2.322.475,3.988.37,3.371.84,8.039,1.292,13.195s.788,9.833,1.007,13.219c.095,1.671.176,3.039.233,4.007.024.475.038.821.047,1.092a3.369,3.369,0,0,1,0,.385,1.94,1.94,0,0,1-.052-.38c0-.271-.057-.636-.1-1.087-.076-.95-.185-2.336-.313-4.007-.261-3.381-.631-8.072-1.078-13.209s-.893-9.819-1.216-13.195c-.161-1.671-.29-3.029-.385-4-.038-.475-.071-.817-.1-1.087A1.96,1.96,0,0,1,565.078,382.89Z" transform="translate(-516.347 -259.456)" fill="#875149"/>
          <path id="Path_20009" data-name="Path 20009" d="M576.716,462.36s-4.24,3.366-6.5.779l-.475,1.344-2,9.5a1.249,1.249,0,0,0,.783,1.462,1.2,1.2,0,0,0,1.268-.313c1.724-1.818,8.02-8.547,7.91-9.415l-.152-2.293a1.163,1.163,0,0,0-.8-1.035Z" transform="translate(-517.729 -301.193)" fill="#0091ff"/>
          <path id="Path_20010" data-name="Path 20010" d="M569.784,478.3,578.7,467.72v.5a1.387,1.387,0,0,1-.385,1.13,88.632,88.632,0,0,1-7.469,8.585,1.206,1.206,0,0,1-1.087.366Z" transform="translate(-518.807 -304.008)" fill="#fff"/>
          <path id="Path_20011" data-name="Path 20011" d="M585.217,464.531a.736.736,0,0,0-.157.95.707.707,0,0,0,.95.161.779.779,0,0,0,.157-1.03.736.736,0,0,0-1.016-.057" transform="translate(-526.785 -302.253)" fill="#fff"/>
          <path id="Path_20012" data-name="Path 20012" d="M572.28,477.4a2.626,2.626,0,0,0-2.46-1.064c0-.029.133-.128.408-.18a1.951,1.951,0,0,1,1.073.133,1.9,1.9,0,0,1,.831.689A.843.843,0,0,1,572.28,477.4Z" transform="translate(-518.838 -308.424)" fill="#263238"/>
          <path id="Path_20013" data-name="Path 20013" d="M570.886,481.328a11.045,11.045,0,0,0-1.073-.475,9.839,9.839,0,0,0-1.163-.09,1.344,1.344,0,0,1,1.225-.161C570.582,480.791,570.948,481.295,570.886,481.328Z" transform="translate(-518.224 -310.731)" fill="#263238"/>
          <path id="Path_20014" data-name="Path 20014" d="M574.325,472.987a12.077,12.077,0,0,0-1.61-.821,13.008,13.008,0,0,0-1.776-.323A3.324,3.324,0,0,1,574.325,472.987Z" transform="translate(-519.426 -306.122)" fill="#263238"/>
          <path id="Path_20015" data-name="Path 20015" d="M574.766,467.869c-.029.071-.7-.171-1.548-.157s-1.519.247-1.548.176a2.336,2.336,0,0,1,1.543-.437A2.374,2.374,0,0,1,574.766,467.869Z" transform="translate(-519.81 -303.862)" fill="#263238"/>
          <path id="Path_20016" data-name="Path 20016" d="M572.05,465.607a1.073,1.073,0,0,1,.043-.446,3.247,3.247,0,0,1,.508-1.121,1.425,1.425,0,0,1,.674-.575.475.475,0,0,1,.532.18.778.778,0,0,1,.114.556,1.714,1.714,0,0,1-1.7,1.377,1.989,1.989,0,0,1-1.8-1.292.674.674,0,0,1,.043-.57.475.475,0,0,1,.527-.185,1.676,1.676,0,0,1,.722.5,3.561,3.561,0,0,1,.684,1.016,1.025,1.025,0,0,1,.123.432,5.353,5.353,0,0,0-.95-1.32,1.609,1.609,0,0,0-.641-.423.252.252,0,0,0-.29.1.475.475,0,0,0,0,.38,1.785,1.785,0,0,0,1.576,1.1,1.491,1.491,0,0,0,1.458-1.149.551.551,0,0,0-.062-.389.271.271,0,0,0-.294-.1,1.234,1.234,0,0,0-.579.475A4.713,4.713,0,0,0,572.05,465.607Z" transform="translate(-519.131 -301.762)" fill="#263238"/>
          <path id="Path_20017" data-name="Path 20017" d="M557.131,152.87l-22.383.233c.266,6.946.907,12.9-1.424,18.826a46.343,46.343,0,0,0-1.809,4.5,6.084,6.084,0,0,0,.356,4.71l4.539-1.291c0-.475,0-.95-.038-1.424a2.084,2.084,0,0,0,1.239,1.386,5.294,5.294,0,0,0,2.445.195,69.589,69.589,0,0,0,14.069-2.687,20.368,20.368,0,0,1,3.5.071C559.282,170.253,558.717,160.054,557.131,152.87Z" transform="translate(-498.562 -138.651)" fill="#263238"/>
          <path id="Path_20018" data-name="Path 20018" d="M477.751,228.6a2.664,2.664,0,0,0-1.054-1.367c-.7-.328-3.713-.043-4.354,0s-2.721-.627-3.613.176a.617.617,0,0,0,.513.774,12.806,12.806,0,0,1,3.1.636c-.085.161-3.6-.043-4.311.237l-5.2.152s-.869.893,0,1.182l.038.688a2.408,2.408,0,0,0,.916.356c.693.166,0,.613.893.769a8.03,8.03,0,0,0,1.837.062l.109.4a3.082,3.082,0,0,0,.907.233c.731.123,8.808-.475,8.808-.475l4.193,1.087.38-4.1Z" transform="translate(-462.447 -177.591)" fill="#ba7e6d"/>
          <path id="Path_20019" data-name="Path 20019" d="M487.416,230.121a11.3,11.3,0,0,0-1.97.859,3.666,3.666,0,0,0-1.068,1.04c-.218.318-.3.551-.337.541a1.2,1.2,0,0,1,.209-.617,3.257,3.257,0,0,1,1.083-1.14,4.471,4.471,0,0,1,1.424-.608A1.529,1.529,0,0,1,487.416,230.121Z" transform="translate(-473.787 -179.218)" fill="#875149"/>
          <path id="Path_20020" data-name="Path 20020" d="M474.624,236.728a7.89,7.89,0,0,1-1.8.218,3.989,3.989,0,0,0-1.23.152,1.125,1.125,0,0,0-.38.323c-.028,0,0-.261.309-.475a3.105,3.105,0,0,1,1.287-.228A8.071,8.071,0,0,1,474.624,236.728Z" transform="translate(-467.045 -182.663)" fill="#875149"/>
          <path id="Path_20021" data-name="Path 20021" d="M471.623,234.4a3.477,3.477,0,0,1-.831.218,9.358,9.358,0,0,1-2.065.2,5.3,5.3,0,0,0-2,.2,1.249,1.249,0,0,0-.508.294c-.09.1-.076.19-.095.195s-.062-.095.028-.242a1.169,1.169,0,0,1,.518-.385,3,3,0,0,1,.921-.237,8.918,8.918,0,0,1,1.144-.033,13.822,13.822,0,0,0,2.037-.142,3.451,3.451,0,0,1,.855-.071Z" transform="translate(-464.362 -181.467)" fill="#875149"/>
          <path id="Path_20022" data-name="Path 20022" d="M469.48,232.563a3.883,3.883,0,0,1-.9.119c-.556.047-1.329.1-2.179.147-.427.033-.836,0-1.2.033a5.7,5.7,0,0,0-.95.109,1.538,1.538,0,0,0-.593.218c-.119.09-.147.176-.166.166s0-.1.109-.228a1.425,1.425,0,0,1,.613-.3,4.609,4.609,0,0,1,.983-.161c.375-.033.779,0,1.206-.048.845-.047,1.614-.076,2.175-.085A3.9,3.9,0,0,1,469.48,232.563Z" transform="translate(-462.993 -180.483)" fill="#875149"/>
          <path id="Path_20023" data-name="Path 20023" d="M550.359,188.243l-3.7,5.061,1,1.951,4.686.1,4.743-1.045,2.611-1.1,1.477-4.492-.717-3.442-1.861.18Z" transform="translate(-506.675 -155.673)" fill="#ba7e6d"/>
          <path id="Path_20024" data-name="Path 20024" d="M536.225,200.665s-.233,1.591,2.626,1.529S548.978,200,548.978,200l6.567,10.246-2.887,28.835-23.683,3.931.926-21.547s-1.79-1.087-2.17-4.715a15.224,15.224,0,0,1,.579-6.229Z" transform="translate(-496.681 -163.404)" fill="#fff"/>
          <path id="Path_20025" data-name="Path 20025" d="M560.576,269.7s5.009,11.025,3.765,19.073-4.349,33.327-4.349,33.327l-23.209,1.244s-6.557-31.812-6.79-37.771-.874-10.3-.874-10.3Z" transform="translate(-497.463 -200.009)" fill="#263238"/>
          <path id="Path_20026" data-name="Path 20026" d="M563.537,310.63c.071,0-.475,5.7-1.234,12.687s-1.4,12.654-1.481,12.654.475-5.7,1.234-12.687S563.471,310.62,563.537,310.63Z" transform="translate(-514.108 -221.506)" fill="#455a64"/>
          <path id="Path_20027" data-name="Path 20027" d="M560.693,258.5s-.028-.1-.09-.261a1.139,1.139,0,0,0-.451-.556,1.068,1.068,0,0,0-1.007-.081,1.045,1.045,0,0,0,.1,1.956,1.068,1.068,0,0,0,.992-.185,1.111,1.111,0,0,0,.389-.6c.043-.171.043-.275.062-.275a.535.535,0,0,1,0,.29,1.135,1.135,0,0,1-.375.7,1.2,1.2,0,0,1-1.14.256,1.227,1.227,0,1,1,1.04-2.184,1.12,1.12,0,0,1,.442.655A.474.474,0,0,1,560.693,258.5Z" transform="translate(-512.784 -193.517)" fill="#263238"/>
          <path id="Path_20028" data-name="Path 20028" d="M520.459,188.091s-5.413,1.23-6.078,1.61a16.862,16.862,0,0,0-3.974,5.778,47.741,47.741,0,0,0-1.225,7.431s-1.971,3.186-1.947,3.7l.076,1.367a25.97,25.97,0,0,0-1.477,2.816v.256l-10.446-4.653-2.849,5.427s8.428,7.326,12.991,9.781a2.574,2.574,0,0,0,3.376-.869h0l-1.116,21.993,5.342,1.424-.807-26.243-.185-3.457a7.022,7.022,0,0,1-1.007-8.5c.95-1.762,3.675-6.533,5.171-8.926s5.3-7.573,5.3-7.573l-.124-2.664Z" transform="translate(-478.251 -156.466)" fill="#0091ff"/>
          <path id="Path_20029" data-name="Path 20029" d="M522.5,245.236a10.6,10.6,0,0,1,0-1.159,12.294,12.294,0,0,0-.309-2.754,7.12,7.12,0,0,0-1.026-2.545,3.638,3.638,0,0,0-.826-.779.636.636,0,0,1,.294.119,2.421,2.421,0,0,1,.65.57,6.5,6.5,0,0,1,1.111,2.588,10.256,10.256,0,0,1,.252,2.806A4,4,0,0,1,522.5,245.236Z" transform="translate(-492.852 -183.361)" fill="#263238"/>
          <path id="Path_20030" data-name="Path 20030" d="M528.95,213.69a1.293,1.293,0,0,1-.171-.218,4.456,4.456,0,0,1-.37-.712,5.987,5.987,0,0,1-.361-2.92,15.92,15.92,0,0,1,1.23-4.188c.612-1.524,1.22-3.219,2.023-4.948a16.524,16.524,0,0,1,1.382-2.412,25.645,25.645,0,0,1,1.648-1.989,20.89,20.89,0,0,0,2.46-3.571c.655-1.054,1.249-1.871,1.667-2.426q.318-.413.475-.627a1.573,1.573,0,0,1,.185-.209,1.119,1.119,0,0,1-.152.233l-.475.651c-.4.57-.95,1.4-1.6,2.455a20.214,20.214,0,0,1-2.441,3.623c-.536.622-1.116,1.258-1.624,1.98a15.883,15.883,0,0,0-1.363,2.374c-.793,1.709-1.424,3.409-2.037,4.929a16.363,16.363,0,0,0-1.258,4.136,6.11,6.11,0,0,0,.29,2.849,7.881,7.881,0,0,0,.5.992Z" transform="translate(-496.875 -157.873)" fill="#263238"/>
          <path id="Path_20031" data-name="Path 20031" d="M526.324,252.074a1.987,1.987,0,0,1,0-.475c.029-.29.085-.712.157-1.235.166-1.083.385-2.493.622-4.05a27.66,27.66,0,0,0,.323-4.069c0-1.045-.09-1.69-.057-1.7a1.945,1.945,0,0,1,.095.451c.024.142.043.323.062.532s.038.446.047.707a22.369,22.369,0,0,1-.266,4.1c-.228,1.591-.5,3.015-.679,4.045-.085.475-.161.893-.223,1.225A1.9,1.9,0,0,1,526.324,252.074Z" transform="translate(-495.987 -184.7)" fill="#263238"/>
          <g id="Group_730" data-name="Group 730" transform="translate(27.559 54.582)" opacity="0.3">
            <path id="Path_20032" data-name="Path 20032" d="M520.528,237.88a3.262,3.262,0,0,1,2.122,1.638,8.071,8.071,0,0,1,.888,2.716,2.54,2.54,0,0,1-.109,1.681c-.138.242-.475.432-.665.223a.474.474,0,0,1-.09-.214c-.261-1.116-.375-2.265-.684-3.366a4.4,4.4,0,0,0-1.5-2.668" transform="translate(-520.49 -237.88)"/>
          </g>
          <path id="Path_20033" data-name="Path 20033" d="M564.82,183.6l2.721.3,1.344,1.462s7.711,1.515,8.675,2.635-3.8,16.333-3.8,16.333l-2.217,12.274s5.593,11.87,6.258,17.772L557.19,241.46s-1.728-20.469-1.3-24.191a108.936,108.936,0,0,1,3.941-17.345c1.5-4.05,5.351-12.82,5.337-13.1S564.82,183.6,564.82,183.6Z" transform="translate(-511.488 -154.79)" fill="#0091ff"/>
          <g id="Group_731" data-name="Group 731" transform="translate(44.676 59.381)" opacity="0.3">
            <path id="Path_20034" data-name="Path 20034" d="M572.285,251.659a1.505,1.505,0,0,0-.712-.541c-2.07-.95-4.439-.95-6.619-1.61-2.065-.632-4.126-1.875-6.234-1.424-.826.185-1.239.2-2.065.4l-.114.688c1.329.612,3.523-.152,4.786.589a13.374,13.374,0,0,1,1.177.95,7.124,7.124,0,0,0,1.657.85c1.173.475,2.374.912,3.547,1.329a5.753,5.753,0,0,0,3.5.446,1.8,1.8,0,0,0,.95-.617A1.03,1.03,0,0,0,572.285,251.659Z" transform="translate(-556.54 -247.987)"/>
          </g>
          <path id="Path_20035" data-name="Path 20035" d="M581.649,190.4a41.941,41.941,0,0,0-3.927,9.9c-.6,3.257,3.651,12.7,3.651,12.7l-11.547-.152-.826,5.74s10.807,3.248,14.358,3.917,7.094,1.03,8.029-.427a7.455,7.455,0,0,0,1.092-2.953l-2.189-11.861-1.9-7.478a21.038,21.038,0,0,0-1.22-5.251C586.288,192.609,582.793,189.87,581.649,190.4Z" transform="translate(-518.408 -158.325)" fill="#0091ff"/>
          <path id="Path_20036" data-name="Path 20036" d="M571.235,187.71a1.45,1.45,0,0,1,0,.3c0,.2,0,.475-.033.859a28.417,28.417,0,0,1-.356,3.134,30.447,30.447,0,0,1-1.14,4.539c-.28.836-.612,1.7-1,2.578a5.422,5.422,0,0,1-.328.669,1.121,1.121,0,0,1-.66.418l-1.424.446-.475.142.029-.185,1.771,1.159.09.057-.057.09-4.872,7.108-1.453,2.089-.4.556a1.114,1.114,0,0,1-.147.185.979.979,0,0,1,.119-.209l.37-.575,1.424-2.122,4.819-7.151.028.147-1.776-1.159-.19-.123.214-.066.475-.142,1.424-.446a.95.95,0,0,0,.56-.337,5.275,5.275,0,0,0,.3-.636c.385-.869.717-1.728,1-2.554a31.755,31.755,0,0,0,1.178-4.506c.242-1.3.356-2.374.423-3.11q.043-.532.071-.855A1.9,1.9,0,0,1,571.235,187.71Z" transform="translate(-514.091 -156.949)" fill="#263238"/>
          <path id="Path_20037" data-name="Path 20037" d="M591.406,190.73a3.42,3.42,0,0,0-.874.19,4.06,4.06,0,0,0-1.814,1.572,8.6,8.6,0,0,0-.8,1.491,13.864,13.864,0,0,0-.636,1.838,14.376,14.376,0,0,0-.518,4.411,20.215,20.215,0,0,0,.907,4.364c.332,1.339.712,2.521,1.011,3.518s.57,1.8.769,2.35c.1.271.18.475.247.622a1.606,1.606,0,0,1,.081.218,1.026,1.026,0,0,1-.119-.2c-.081-.138-.166-.347-.285-.613-.228-.541-.513-1.339-.836-2.331s-.679-2.189-1.054-3.518c-.18-.665-.375-1.363-.575-2.089a10.7,10.7,0,0,1-.356-2.312,14.277,14.277,0,0,1,.541-4.473,12.688,12.688,0,0,1,.665-1.857,8.339,8.339,0,0,1,.831-1.505,4.055,4.055,0,0,1,1.9-1.562,2.175,2.175,0,0,1,.669-.128.741.741,0,0,1,.242.014Z" transform="translate(-527.624 -158.525)" fill="#263238"/>
          <path id="Path_20038" data-name="Path 20038" d="M579.038,246.185a.774.774,0,0,1-.195-.038l-.56-.142-2.1-.575-7.279-2.042-.085-.024v-.085l.859-5.674v-.166h.085c4.477-.152,8.547-.048,11.457.133,1.462.09,2.64.185,3.457.261l.95.095a1.785,1.785,0,0,1,.328.052,2.128,2.128,0,0,1-.328,0l-.95-.057c-.817-.052-2-.123-3.461-.195-2.925-.142-6.97-.223-11.438-.071l.1-.09v.081c-.3,2-.6,3.922-.869,5.674l-.071-.109,7.274,2.118,2.08.627.556.171A.951.951,0,0,1,579.038,246.185Z" transform="translate(-518.313 -183.028)" fill="#263238"/>
          <path id="Path_20039" data-name="Path 20039" d="M599.163,236.272c0,.062-1.026.18-2.279.432s-2.255.522-2.274.475a8.5,8.5,0,0,1,2.232-.669,8.114,8.114,0,0,1,2.322-.237Z" transform="translate(-531.858 -182.449)" fill="#263238"/>
          <path id="Path_20040" data-name="Path 20040" d="M562.35,280.527s-.029-.1-.09-.266a1.111,1.111,0,0,0-.446-.551,1.073,1.073,0,0,0-1.007-.081,1.045,1.045,0,0,0,.1,1.956,1.073,1.073,0,0,0,.992-.185,1.135,1.135,0,0,0,.385-.6c.047-.166.043-.271.062-.271a.475.475,0,0,1,0,.29,1.145,1.145,0,0,1-.37.7,1.216,1.216,0,0,1-1.144.256,1.234,1.234,0,0,1-.123-2.322,1.2,1.2,0,0,1,1.163.138,1.125,1.125,0,0,1,.446.65A.509.509,0,0,1,562.35,280.527Z" transform="translate(-513.656 -205.081)" fill="#263238"/>
          <g id="Group_732" data-name="Group 732" transform="translate(46.756 38.03)" opacity="0.3">
            <path id="Path_20041" data-name="Path 20041" d="M560.92,219.724c2.873-1.386,4.919-4.2,6.5-6.965.342-.6.679-1.2,1.016-1.8a2.375,2.375,0,0,0,.38-1.068.807.807,0,0,0-.622-.84,1.14,1.14,0,0,0,1.234-.56,3.325,3.325,0,0,0,.38-1.391c.142-1.178.332-2.9.475-4.074-.28.855-.9,2.284-1.177,3.138a4.165,4.165,0,0,1-.836,1.743c-.731.7-1.515.513-2.374.836a5.438,5.438,0,0,1,1.776,1.159c-2.065,3.29-6.728,9.829-6.728,9.829" transform="translate(-560.92 -203.02)"/>
          </g>
          <path id="Path_20042" data-name="Path 20042" d="M519.822,221.59s16.618,17.715,16.884,17.687c.593-.066-12.345,13.185-12.345,13.185L507.52,233.256Z" transform="translate(-486.119 -174.742)" fill="#455a64"/>
          <path id="Path_20043" data-name="Path 20043" d="M547.45,236.475l-6.7-2.635-4.511.7-1.985,2.64s.038.745.475.608a3.015,3.015,0,0,0,.95-.627l.157,1.9s.731.769,1.149-.062l.537,1.424s.551.6.916-.047l.779,1.629a1.268,1.268,0,0,0,.774-.617,1.291,1.291,0,0,0,.067-.869s2.26.28,3.2.518a38.007,38.007,0,0,0,5.46-.119l1.928.442.779-4.976Z" transform="translate(-500.157 -181.176)" fill="#ba7e6d"/>
          <path id="Path_20044" data-name="Path 20044" d="M541.414,235.275a2.422,2.422,0,0,0-.812.052c-.242.062-.527.171-.85.285s-.674.242-1.03.4a5.869,5.869,0,0,0-.95.522.522.522,0,0,0-.247.328c-.033.133-.052.28-.076.4-.081.508-.1.826-.119.826a1.928,1.928,0,0,1-.029-.845,2.547,2.547,0,0,1,.052-.427.717.717,0,0,1,.3-.442,5.3,5.3,0,0,1,.988-.556,10.82,10.82,0,0,1,1.049-.389,6.646,6.646,0,0,1,.888-.252A1.059,1.059,0,0,1,541.414,235.275Z" transform="translate(-501.743 -181.856)" fill="#875149"/>
          <path id="Path_20045" data-name="Path 20045" d="M543.014,238.15a1.984,1.984,0,0,1-.717.356c-.475.171-1.13.313-1.823.56a1.159,1.159,0,0,0-.442.218,2.7,2.7,0,0,0-.375,1.215,3,3,0,0,0,.109.56.671.671,0,0,1,0,.218,1.37,1.37,0,0,1-.086-.2,2.88,2.88,0,0,1-.18-.56,1.771,1.771,0,0,1,.138-.883,1.621,1.621,0,0,1,.233-.475,1.268,1.268,0,0,1,.522-.275c.717-.256,1.382-.375,1.852-.508A6.849,6.849,0,0,1,543.014,238.15Z" transform="translate(-502.91 -183.44)" fill="#875149"/>
          <path id="Path_20046" data-name="Path 20046" d="M542.675,245.669a1.582,1.582,0,0,1-.366-.475,1.054,1.054,0,0,1-.114-.669.888.888,0,0,1,.546-.632,2.308,2.308,0,0,1,.8-.142h.636a2.883,2.883,0,0,1,.432,0c.114,0,.152.095.138.1a1.2,1.2,0,0,1-.142,0c-.09,0-.242.033-.423.052l-.632.057a2.284,2.284,0,0,0-.722.138.717.717,0,0,0-.442.475,1.031,1.031,0,0,0,.057.57A3.241,3.241,0,0,1,542.675,245.669Z" transform="translate(-504.323 -186.377)" fill="#875149"/>
          <path id="Path_20047" data-name="Path 20047" d="M559.958,133.6c-1-3.409-2.018-6.951-4.99-8.893a12.226,12.226,0,0,0-8.651-1.624,11.215,11.215,0,0,0-4.516,1.942c-1.761,1.211-2.374,3.4-3.086,5.408-1.458,4.022-.779,9.235.56,10.588l16.894,7.122c2.73-1.733,4.582-2.592,5.071-5.793C561.567,140.186,560.58,135.713,559.958,133.6Z" transform="translate(-502.072 -122.924)" fill="#263238"/>
          <path id="Path_20048" data-name="Path 20048" d="M556.179,131.105l-10.446-2.122c-3.324-.195-5.323,3.974-5.375,7.293a57.957,57.957,0,0,0,.575,10.921c1.144,5.484,5.418,6.006,5.418,6.006s0,.081.123,1.719l.166,3.694c1.6,4.4,6.106,3.618,11.652.992L558,133.019A1.951,1.951,0,0,0,556.179,131.105Z" transform="translate(-503.355 -126.102)" fill="#ba7e6d"/>
          <path id="Path_20049" data-name="Path 20049" d="M544.05,152.564a.707.707,0,0,0,.712.684.679.679,0,0,0,.7-.674.712.712,0,0,0-.717-.684.679.679,0,0,0-.7.674Z" transform="translate(-505.304 -138.136)" fill="#263238"/>
          <path id="Path_20050" data-name="Path 20050" d="M542.755,149.494c.09.09.608-.332,1.372-.366s1.339.323,1.424.223-.057-.2-.309-.37a1.942,1.942,0,0,0-1.14-.294,1.866,1.866,0,0,0-1.087.408C542.784,149.309,542.708,149.456,542.755,149.494Z" transform="translate(-504.617 -136.453)" fill="#263238"/>
          <path id="Path_20051" data-name="Path 20051" d="M558.55,151.789a.712.712,0,0,0,.717.684.674.674,0,0,0,.7-.669.707.707,0,0,0-.712-.684.679.679,0,0,0-.7.669Z" transform="translate(-512.919 -137.732)" fill="#263238"/>
          <path id="Path_20052" data-name="Path 20052" d="M558.4,148.334c.095.085.612-.332,1.372-.366s1.339.318,1.424.223-.062-.209-.313-.37a1.942,1.942,0,0,0-1.14-.294,1.866,1.866,0,0,0-1.087.408C558.425,148.125,558.354,148.3,558.4,148.334Z" transform="translate(-512.833 -135.844)" fill="#263238"/>
          <path id="Path_20053" data-name="Path 20053" d="M551.066,153.882a5.27,5.27,0,0,0-1.249-.161c-.195,0-.385-.043-.423-.176a.949.949,0,0,1,.1-.579c.161-.475.328-.983.5-1.51a24.689,24.689,0,0,0,1.111-3.936,25.372,25.372,0,0,0-1.424,3.836c-.166.532-.328,1.035-.475,1.515a1.135,1.135,0,0,0-.066.769.5.5,0,0,0,.332.271,1.226,1.226,0,0,0,.332.029,4.591,4.591,0,0,0,1.253-.057Z" transform="translate(-507.961 -135.841)" fill="#263238"/>
          <path id="Path_20054" data-name="Path 20054" d="M553,177.432a14.078,14.078,0,0,0,7.3-2.322s-1.648,3.95-7.193,3.694Z" transform="translate(-510.004 -150.332)" fill="#875149"/>
          <path id="Path_20055" data-name="Path 20055" d="M555.108,163.982a1.016,1.016,0,0,0-.864-.423,1.32,1.32,0,0,0-1.173.655.811.811,0,0,0-.029.594c.047.1,0,.052.095.114.294.237.475.608.859.679a1.282,1.282,0,0,0,1.14-.57A1.016,1.016,0,0,0,555.108,163.982Z" transform="translate(-510.004 -144.265)" fill="#875149"/>
          <path id="Path_20056" data-name="Path 20056" d="M557.445,143.606c.071.209.836.119,1.728.233s1.614.37,1.738.185c.052-.085-.071-.285-.361-.475a2.892,2.892,0,0,0-1.282-.475,2.953,2.953,0,0,0-1.358.147C557.583,143.345,557.412,143.5,557.445,143.606Z" transform="translate(-512.337 -133.495)" fill="#263238"/>
          <path id="Path_20057" data-name="Path 20057" d="M542.526,145.578c.185.133.717-.176,1.4-.342s1.3-.185,1.391-.394c.038-.095-.095-.247-.385-.347a2.175,2.175,0,0,0-1.206,0,2.122,2.122,0,0,0-1.04.6C542.484,145.317,542.446,145.512,542.526,145.578Z" transform="translate(-504.483 -134.208)" fill="#263238"/>
          <path id="Path_20058" data-name="Path 20058" d="M551.417,126.613a12.24,12.24,0,0,0,1.424,6.491,4.469,4.469,0,0,0,1.139,1.477,2.018,2.018,0,0,0,1.766.408,7.445,7.445,0,0,1-1.866-4.145,16.14,16.14,0,0,0,2.8,4.235,5.486,5.486,0,0,0,4.606,1.714l-.2-1.125a3.964,3.964,0,0,0,1.51,2,2.013,2.013,0,0,0,2.374-.138c-.793-2.711.65-5.845-.622-8.366-.883-1.747-2.849-2.673-4.748-3.11a15.612,15.612,0,0,0-8.148.337" transform="translate(-509.162 -124.364)" fill="#263238"/>
          <path id="Path_20059" data-name="Path 20059" d="M551.93,127.72v.123h0A1.067,1.067,0,0,0,551.93,127.72Z" transform="translate(-509.443 -125.443)" fill="#263238"/>
          <path id="Path_20060" data-name="Path 20060" d="M544.554,127.346l-.347-.114c-1.083-.451-1.814-1.007-3.324.556a10.018,10.018,0,0,0-1.961,3.324,12.86,12.86,0,0,0-.95,3.457,14.75,14.75,0,0,0,.228,4.235,4.753,4.753,0,0,0,1.481-2.944,14.125,14.125,0,0,1,.764-3.276,8.4,8.4,0,0,0,.062,2.8,1.145,1.145,0,0,0,.356.669.475.475,0,0,0,.684-.057,6.055,6.055,0,0,1-.261-3.324,16.964,16.964,0,0,1,.992-3.21,16.455,16.455,0,0,0,.669,5.584,1.425,1.425,0,0,0,.375.707,1.33,1.33,0,0,0,1.159.142,2.716,2.716,0,0,1,1.192-.147A15.825,15.825,0,0,1,544.554,127.346Z" transform="translate(-502.081 -124.936)" fill="#263238"/>
          <path id="Path_20061" data-name="Path 20061" d="M563.537,167.614c.874-1.486,1.9-3,1.951-4.72.028-1.453-.674-2.849-.632-4.311.047-1.543.921-2.934,1.2-4.454.674-3.684-2.232-7.412-1.292-11.039l4.833.256,3.509,18.741a22.733,22.733,0,0,1-2.412,11.752l-.475-.394c.29-.883.536-1.785.741-2.692a11.429,11.429,0,0,1-3.561,3.965,23.582,23.582,0,0,1-4.919-2.213C561.918,170.885,562.668,169.1,563.537,167.614Z" transform="translate(-514.882 -133.515)" fill="#263238"/>
          <path id="Path_20062" data-name="Path 20062" d="M552.22,164.921c0-.142.845-.109,1.69-.584s1.282-1.163,1.424-1.1.028.252-.152.57a2.716,2.716,0,0,1-2.374,1.3C552.414,165.083,552.21,164.983,552.22,164.921Z" transform="translate(-509.594 -144.093)" fill="#263238"/>
        </g>
        <g id="freepik--character-2--inject-8" transform="translate(161.698 74.443)">
          <path id="Path_20063" data-name="Path 20063" d="M341.437,421.989l3.181-35.919-10.992.323-.347,36.389,2.958,1.757Z" transform="translate(-312.701 -260.483)" fill="#ffbe9d"/>
          <path id="Path_20064" data-name="Path 20064" d="M322.911,460.8v.532s-8.964,3.8-9.021,5.494l17.929-.394-.375-5.964a10.251,10.251,0,0,1-8.532.332Z" transform="translate(-302.518 -299.558)" fill="#0091ff"/>
          <g id="Group_733" data-name="Group 733" transform="translate(26.293 162.832)" opacity="0.6">
            <path id="Path_20065" data-name="Path 20065" d="M346.168,464.545a.726.726,0,0,1,.522.821.7.7,0,0,1-.812.527.769.769,0,0,1-.551-.874.731.731,0,0,1,.907-.475" transform="translate(-345.315 -464.514)" fill="#fff"/>
          </g>
          <g id="Group_734" data-name="Group 734" transform="translate(11.354 165.437)" opacity="0.6">
            <path id="Path_20066" data-name="Path 20066" d="M331.789,471.424,331.7,470l-17.15.9s-.788.366-.688.926Z" transform="translate(-313.852 -470)" fill="#fff"/>
          </g>
          <path id="Path_20067" data-name="Path 20067" d="M332.769,462.305c0,.085.446.119.883.389s.674.636.755.6-.062-.541-.6-.859S332.75,462.225,332.769,462.305Z" transform="translate(-312.433 -300.477)" fill="#263238"/>
          <path id="Path_20068" data-name="Path 20068" d="M328.85,464.091c0,.085.366.228.669.594s.4.75.475.745.128-.5-.256-.95S328.85,464.034,328.85,464.091Z" transform="translate(-310.375 -301.446)" fill="#263238"/>
          <path id="Path_20069" data-name="Path 20069" d="M325.892,467.258c.081,0,.195-.423-.043-.9s-.646-.655-.684-.579.223.323.413.717S325.807,467.253,325.892,467.258Z" transform="translate(-308.438 -302.338)" fill="#263238"/>
          <path id="Path_20070" data-name="Path 20070" d="M388.825,375.45l-5.6,45.487-7.189-.755-.4-44.347Z" transform="translate(-334.948 -254.906)" fill="#ffbe9d"/>
          <path id="Path_20071" data-name="Path 20071" d="M375.051,463.65s4.914,3.452,7.516.736l.57,1.391,2.374,9.824a1.282,1.282,0,0,1-.893,1.524,1.5,1.5,0,0,1-1.462-.313c-2-1.875-9.311-8.8-9.188-9.7l.152-2.374a1.239,1.239,0,0,1,.912-1.083Z" transform="translate(-334.07 -301.228)" fill="#0091ff"/>
          <g id="Group_735" data-name="Group 735" transform="translate(39.939 165.057)" opacity="0.6">
            <path id="Path_20072" data-name="Path 20072" d="M384.432,480.1l-10.36-10.9v.522c-.085.565.176.8.475,1.168.826,1.106,3.143,3.6,8.675,8.836a1.5,1.5,0,0,0,1.254.37Z" transform="translate(-374.055 -469.2)" fill="#fff"/>
          </g>
          <g id="Group_736" data-name="Group 736" transform="translate(40.383 163.439)" opacity="0.6">
            <path id="Path_20073" data-name="Path 20073" d="M376.238,465.924a.707.707,0,0,1,.185,1,.878.878,0,0,1-1.1.18.75.75,0,0,1-.19-1.064.907.907,0,0,1,1.168-.071" transform="translate(-374.989 -465.792)" fill="#fff"/>
          </g>
          <path id="Path_20074" data-name="Path 20074" d="M389.857,479.126a4.273,4.273,0,0,1,1.239-.912,4.52,4.52,0,0,1,1.586-.214c0-.033-.157-.133-.475-.185a2.412,2.412,0,0,0-1.23.152,2.165,2.165,0,0,0-.95.722C389.852,478.936,389.823,479.116,389.857,479.126Z" transform="translate(-342.409 -308.655)" fill="#263238"/>
          <path id="Path_20075" data-name="Path 20075" d="M391.751,483.226a12.51,12.51,0,0,1,1.23-.475,13.229,13.229,0,0,1,1.339-.109,1.709,1.709,0,0,0-1.424-.152C392.1,482.685,391.68,483.193,391.751,483.226Z" transform="translate(-343.406 -311.075)" fill="#263238"/>
          <path id="Path_20076" data-name="Path 20076" d="M386.266,474.514a14.963,14.963,0,0,1,1.847-.864,15.185,15.185,0,0,1,2.042-.351,3.419,3.419,0,0,0-2.141.1A3.206,3.206,0,0,0,386.266,474.514Z" transform="translate(-340.527 -306.228)" fill="#263238"/>
          <path id="Path_20077" data-name="Path 20077" d="M386.078,469.271c.033.071.8-.185,1.781-.18s1.752.242,1.781.166a2.93,2.93,0,0,0-1.781-.437A2.894,2.894,0,0,0,386.078,469.271Z" transform="translate(-340.43 -303.938)" fill="#263238"/>
          <path id="Path_20078" data-name="Path 20078" d="M388.59,466.91a.908.908,0,0,0-.052-.475,3.069,3.069,0,0,0-.594-1.159,1.552,1.552,0,0,0-.783-.589.593.593,0,0,0-.608.19.74.74,0,0,0-.128.579,1.932,1.932,0,0,0,1.97,1.424,2.279,2.279,0,0,0,2.061-1.353.66.66,0,0,0-.052-.6.579.579,0,0,0-.613-.185,1.961,1.961,0,0,0-.821.556,3.543,3.543,0,0,0-.774,1.064c-.133.275-.161.442-.142.446a5.761,5.761,0,0,1,1.068-1.377,1.866,1.866,0,0,1,.731-.446.3.3,0,0,1,.332.1.432.432,0,0,1,0,.394,2.042,2.042,0,0,1-1.8,1.154,1.686,1.686,0,0,1-1.7-1.178.546.546,0,0,1,.071-.4.318.318,0,0,1,.337-.109,1.425,1.425,0,0,1,.669.475A4.567,4.567,0,0,1,388.59,466.91Z" transform="translate(-340.605 -301.762)" fill="#263238"/>
          <path id="Path_20079" data-name="Path 20079" d="M374.166,256.57a27.7,27.7,0,0,1,4.026,5.74c1.32,2.806,2.127,9.5,2.127,9.5s2.616,8.167,2.013,12.454-3.542,33.816-3.542,33.816-1.942,30.26-4.691,35.326h0l-9.648-1.03h0L362.576,294.8,356,256.693Z" transform="translate(-324.634 -192.471)" fill="#263238"/>
          <path id="Path_20080" data-name="Path 20080" d="M382.877,268.026a1.772,1.772,0,0,0,.076-.446c.033-.285.057-.707.066-1.225a36.612,36.612,0,0,0-.214-4.036c-.166-1.529-.318-2.906-.437-4.012a13.384,13.384,0,0,0-.2-1.657,8.553,8.553,0,0,0,0,1.676c.062,1.03.2,2.455.361,4.017s.266,2.987.29,4.012A13.038,13.038,0,0,0,382.877,268.026Z" transform="translate(-338.353 -192.513)" fill="#455a64"/>
          <path id="Path_20081" data-name="Path 20081" d="M379.53,261.291a7.359,7.359,0,0,0,.565-2.265,7.257,7.257,0,0,0,.076-2.336,18.186,18.186,0,0,0-.342,2.3A17.719,17.719,0,0,0,379.53,261.291Z" transform="translate(-336.991 -192.534)" fill="#455a64"/>
          <path id="Path_20082" data-name="Path 20082" d="M364.7,260.443a1.222,1.222,0,0,1,.427-.627.8.8,0,0,1,.75-.071.774.774,0,0,1-.038,1.453.8.8,0,0,1-.745-.1c-.38-.29-.347-.665-.394-.65s-.043.081-.029.233a.874.874,0,0,0,.3.56.983.983,0,0,0,.95.195,1.016,1.016,0,0,0,.047-1.9.983.983,0,0,0-.95.147.912.912,0,0,0-.332.546C364.655,260.362,364.683,260.443,364.7,260.443Z" transform="translate(-329.181 -193.994)" fill="#455a64"/>
          <path id="Path_20083" data-name="Path 20083" d="M333.69,264.449s-5.655,36.665-6.277,42.923,1.7,44.319,1.7,44.319l9.415.038,4.064-37.448,7.056-32.733L343.2,257.26l-7.393.565Z" transform="translate(-309.564 -192.834)" fill="#263238"/>
          <path id="Path_20084" data-name="Path 20084" d="M404.705,200.91a1.276,1.276,0,0,0,0,.294v1.448c0,.218-.038.475-.052.722-.047.518-.066,1.106-.171,1.752-.043.328-.086.665-.133,1.016s-.123.717-.19,1.1c-.119.76-.309,1.557-.475,2.4-.389,1.681-.878,3.518-1.424,5.446s-1,3.775-1.363,5.47c-.166.85-.342,1.652-.442,2.422-.057.38-.123.745-.166,1.1s-.066.7-.1,1.026c-.081.65-.081,1.244-.1,1.766v.726a4.076,4.076,0,0,0,.029.608c0,.351.033.632.043.845a1.224,1.224,0,0,0,.033.29,1.975,1.975,0,0,0,0-.294V227.6c0-.218.024-.475.038-.722.028-.518.038-1.111.128-1.757.038-.323.076-.665.114-1.021s.114-.717.176-1.1c.109-.76.29-1.562.475-2.407.38-1.686.855-3.528,1.382-5.451s1.007-3.77,1.391-5.46c.176-.85.356-1.652.475-2.417.062-.38.133-.745.18-1.1s.081-.693.119-1.021c.095-.65.1-1.244.138-1.766,0-.256.033-.5.038-.722s0-.427,0-.613v-.84A1.752,1.752,0,0,0,404.705,200.91Z" transform="translate(-347.789 -163.239)" fill="#263238"/>
          <path id="Path_20085" data-name="Path 20085" d="M314.916,214.139l-4.131-14.719-5.095.95a5.045,5.045,0,0,1,1.22,2.668c0,1.277.826,13.3.826,13.3s5.066,1.481,7.122-1.942" transform="translate(-298.211 -162.456)" fill="#ffbe9d"/>
          <path id="Path_20086" data-name="Path 20086" d="M302.512,189.942a4.914,4.914,0,0,0,.114-2.849c-.446-1.325-1.975-2.374-1.9-3.153s-.712-2.706-1.424-2.559-1.272.874-.651,2.1a15.919,15.919,0,0,1,.95,2.5s-7.6-3.96-8.224-4.045-1.244-.171-1.424.323,1.358,1.13,1.358,1.13l2.042,2.659a11.746,11.746,0,0,0,1.424,2.849,7.816,7.816,0,0,0,2.607,1.98l2.217,2.668S303,192.387,302.512,189.942Z" transform="translate(-289.939 -152.978)" fill="#ffbe9d"/>
          <path id="Path_20087" data-name="Path 20087" d="M293.188,185.446a1.889,1.889,0,0,1,.185-.1.888.888,0,0,1,.541-.066,2.986,2.986,0,0,1,1.529,1.04,8.038,8.038,0,0,1,1.03,1.614,3.2,3.2,0,0,0,.394.707,2.882,2.882,0,0,0-.261-.769,6.42,6.42,0,0,0-1-1.69,2.887,2.887,0,0,0-1.671-1.049.878.878,0,0,0-.6.142C293.212,185.36,293.179,185.441,293.188,185.446Z" transform="translate(-291.645 -154.949)" fill="#eb996e"/>
          <path id="Path_20088" data-name="Path 20088" d="M299.06,187.9a4.312,4.312,0,0,0,1.092.745,4.118,4.118,0,0,0,1.2.565,4.273,4.273,0,0,0-1.1-.745,4.216,4.216,0,0,0-1.2-.565Z" transform="translate(-294.729 -156.406)" fill="#eb996e"/>
          <path id="Path_20089" data-name="Path 20089" d="M305.013,191.348a1.562,1.562,0,0,0-1.282,0,1.6,1.6,0,0,0-1.011.783,6.9,6.9,0,0,1,1.078-.584,6.608,6.608,0,0,1,1.216-.2Z" transform="translate(-296.651 -158.145)" fill="#eb996e"/>
          <path id="Path_20090" data-name="Path 20090" d="M324.042,210.782c.038.218-5.759,8.043-7.64,9.5-4.61,3.6-8.005-1.268-7.668-5.389S321.08,191.41,321.08,191.41l3.879,9.14Z" transform="translate(-299.798 -158.25)" fill="#455a64"/>
          <path id="Path_20091" data-name="Path 20091" d="M369.938,182.469,359.4,179.991l-1-1.681-10.574.171-2.455,2.63-7.051,3.457,5.916,24.837,19.847,1.021Z" transform="translate(-315.348 -151.37)" fill="#fff"/>
          <path id="Path_20092" data-name="Path 20092" d="M373.523,177.63l3.946,2.45,8.29,1.8-2.626,33.279s7.644,13.328,6.8,29.215l-21.817-.95s1.064-16.7,1.268-23.408.081-18.413.081-18.413l5.4-20.165Z" transform="translate(-330.999 -151.013)" fill="#455a64"/>
          <path id="Path_20093" data-name="Path 20093" d="M343.992,180.3l.741-2.27-2.754,2.768-1.985.7c-2.74,1.026-6.476,2.9-6.476,2.9l4.672,29.581s-5.356,18.518-5.759,29.657c0,0,14.32.242,19.989,0l-1.529-42.472s-4.971-5.869-5.8-11.752S343.992,180.3,343.992,180.3Z" transform="translate(-312.255 -151.223)" fill="#455a64"/>
          <path id="Path_20094" data-name="Path 20094" d="M371.84,208.345a1.165,1.165,0,0,0,.185-.176l.5-.546,1.842-2.042,6.234-7.008.038-.043v-.057c-.313-1.14-.646-2.341-.988-3.571-.152-.532-.3-1.059-.442-1.576l-.1.138,4.136-.161h.142l-.052-.133-2.768-7.459-.817-2.137-.223-.565c-.052-.128-.081-.195-.09-.19a1.041,1.041,0,0,0,.057.2l.195.579.76,2.156,2.7,7.488.09-.138-4.136.147h-.138l.038.133c.142.518.29,1.045.442,1.576.342,1.23.674,2.431.992,3.571v-.1c-2.464,2.825-4.62,5.289-6.173,7.07l-1.795,2.094-.475.565A1.9,1.9,0,0,1,371.84,208.345Z" transform="translate(-332.952 -153.738)" fill="#263238"/>
          <path id="Path_20095" data-name="Path 20095" d="M350.857,183.63a2,2,0,0,0-.048.237c-.024.176-.057.4-.1.688-.081.627-.195,1.491-.337,2.569-.271,2.213-.651,5.275-1.083,8.779v.142l.142-.024,2.293-.394-.119-.152c-.138.309-.29.641-.437.978l-.859,1.923-.028.062.043.052,6.358,7.364,1.9,2.175c.218.237.389.432.522.579a10.99,10.99,0,0,0,.912.717s-.769-.608-.883-.745l-.475-.6-1.852-2.213-6.3-7.417v.114c.275-.613.565-1.263.864-1.923.147-.332.294-.665.437-.95l.081-.19-.2.038-2.293.4.123.114c.4-3.509.755-6.571,1.011-8.784.114-1.083.209-1.951.275-2.578.024-.285.047-.518.062-.693a.854.854,0,0,0-.01-.266Z" transform="translate(-321.11 -154.164)" fill="#263238"/>
          <path id="Path_20096" data-name="Path 20096" d="M375.638,263.3c.418-.556,1.272-.9,1.7-.356h0a1.339,1.339,0,0,1,.475,1.453,1.291,1.291,0,0,1-1.719.7,1.244,1.244,0,0,1-.461-1.795Z" transform="translate(-334.837 -195.676)" fill="#263238"/>
          <g id="Group_737" data-name="Group 737" transform="translate(38.883 39.456)" opacity="0.3">
            <path id="Path_20097" data-name="Path 20097" d="M383.221,204.67c-.071.223-1.553.475-1.814,1.078a3.063,3.063,0,0,0,.052,1.994,6.054,6.054,0,0,1,.38,1.989,4.882,4.882,0,0,1-1.937,2.987c-2.5,2.3-5.56,4.8-8.072,7.122,2.222-2.849,5.114-5.759,7.564-8.385a2.611,2.611,0,0,0,.707-3.267l-.755-2.54c-.062-.218-.2-.584-.237-.707a5.343,5.343,0,0,1,.95-.114,23.376,23.376,0,0,1,3.176-.138" transform="translate(-371.83 -204.67)"/>
          </g>
          <path id="Path_20098" data-name="Path 20098" d="M335.54,202a1.621,1.621,0,0,0,.029.252c.029.19.066.427.109.722.109.646.261,1.543.442,2.635.38,2.251.893,5.313,1.458,8.694s1.111,6.472,1.524,8.689c.2,1.111.38,2.008.5,2.626.062.294.114.527.152.712a1.168,1.168,0,0,0,.066.247,1.273,1.273,0,0,0-.024-.256l-.114-.717c-.109-.646-.256-1.543-.442-2.635-.375-2.251-.888-5.313-1.458-8.7s-1.106-6.467-1.519-8.684c-.209-1.111-.38-2.008-.508-2.626-.062-.294-.109-.527-.152-.712a.893.893,0,0,0-.067-.247Z" transform="translate(-313.888 -163.811)" fill="#263238"/>
          <path id="Path_20099" data-name="Path 20099" d="M391.608,186.51a7.374,7.374,0,0,1,3.8,2.925c1.747,2.592,4.786,27.724,4.667,29.467s-1.624,6.173-5.7,5.579-14.876-8.133-14.876-8.133l3.718-7.208,7.882,3.718-1.073-12.449Z" transform="translate(-336.976 -155.676)" fill="#455a64"/>
          <g id="Group_738" data-name="Group 738" transform="translate(30.624 62.375)" opacity="0.3">
            <path id="Path_20100" data-name="Path 20100" d="M354.457,256.957c.256-1.13,1.657-1.5,2.806-1.643L376,252.94l1.629,5.27a12.306,12.306,0,0,1-.85,3.542,4.159,4.159,0,0,1-2.616,2.374,6.179,6.179,0,0,1-3.172-.356l-13.769-4.083a5.65,5.65,0,0,1-1.956-.855A1.937,1.937,0,0,1,354.457,256.957Z" transform="translate(-354.436 -252.94)"/>
          </g>
          <g id="Group_739" data-name="Group 739" transform="translate(51.066 42.318)" opacity="0.3">
            <path id="Path_20101" data-name="Path 20101" d="M400.144,213.025c.223-.893.565-1.9,1.424-2.236a2.047,2.047,0,0,1,2.374,1.2,5.235,5.235,0,0,1,.176,2.892,61.2,61.2,0,0,1-2.782,10.327l-3.846-1.424A107.989,107.989,0,0,1,400.144,213.025Z" transform="translate(-397.49 -210.698)"/>
          </g>
          <path id="Path_20102" data-name="Path 20102" d="M312.214,209.13l3.8,11.4L311.1,224.1l-3.969,1.591s-.741-5.7-.556-3.713l-.883-11.709Z" transform="translate(-298.211 -167.556)" fill="#455a64"/>
          <path id="Path_20103" data-name="Path 20103" d="M319.43,209.13a3.584,3.584,0,0,0,.09.508c.066.323.176.788.323,1.363.3,1.144.8,2.7,1.424,4.392s1.121,3.243,1.424,4.378c.161.565.29,1.026.37,1.344a2.559,2.559,0,0,0,.152.475,3.728,3.728,0,0,0-.09-.508c-.066-.323-.18-.788-.328-1.358-.294-1.144-.8-2.7-1.424-4.4s-1.121-3.243-1.424-4.373c-.161-.57-.29-1.03-.37-1.348A3.805,3.805,0,0,0,319.43,209.13Z" transform="translate(-305.427 -167.556)" fill="#263238"/>
          <path id="Path_20104" data-name="Path 20104" d="M322,240.231a3.471,3.471,0,0,0,.475-.608,15.393,15.393,0,0,0,.95-1.581,16.26,16.26,0,0,0,.774-1.676,3.1,3.1,0,0,0,.237-.726,4.6,4.6,0,0,0-.332.684c-.2.427-.475,1.016-.812,1.648s-.665,1.192-.912,1.6A4.609,4.609,0,0,0,322,240.231Z" transform="translate(-306.777 -181.479)" fill="#263238"/>
          <path id="Path_20105" data-name="Path 20105" d="M405,239.484a7.274,7.274,0,0,0,1.2-.389,7.123,7.123,0,0,0,1.173-.475,4.1,4.1,0,0,0-1.225.309A4.2,4.2,0,0,0,405,239.484Z" transform="translate(-350.368 -183.044)" fill="#263238"/>
          <path id="Path_20106" data-name="Path 20106" d="M402.438,198.712a.949.949,0,0,0,.119-.252c.066-.166.152-.408.252-.717a16.231,16.231,0,0,0,.56-2.436,16.436,16.436,0,0,0,.195-2.493,6.705,6.705,0,0,0-.024-.76,1,1,0,0,0-.038-.275,9.538,9.538,0,0,0-.047,1.03,21.993,21.993,0,0,1-.233,2.474,22.488,22.488,0,0,1-.518,2.431C402.538,198.328,402.419,198.707,402.438,198.712Z" transform="translate(-349.021 -158.444)" fill="#263238"/>
          <g id="Group_740" data-name="Group 740" transform="translate(27.881 41.655)" opacity="0.3">
            <path id="Path_20107" data-name="Path 20107" d="M350.046,210.236l-1.386.095a2.621,2.621,0,0,1,2.6-.978c-.028.831-.9,1.486-.845,2.317a2.2,2.2,0,0,0,.6,1.173l2.569,3.172-.18,1.6c-1.054-1.51-2.118-2.911-3.172-4.416a4.078,4.078,0,0,1-.76-1.491A1.372,1.372,0,0,1,350.046,210.236Z" transform="translate(-348.66 -209.3)"/>
          </g>
          <g id="Group_741" data-name="Group 741" transform="translate(15.123 45.581)" opacity="0.3">
            <path id="Path_20108" data-name="Path 20108" d="M322.208,218.8l-.418-1.234c.7,2.118,3.1,3.737,3.884,5.826a5.489,5.489,0,0,1-.864,5.3c-.271.332-.741.655-1.1.413a.731.731,0,0,1-.342-.8c.114-.285.95-1.994,1.083-2.265s-.138-.793-.475-1.9C323.414,222.209,322.787,220.742,322.208,218.8Z" transform="translate(-321.79 -217.57)"/>
          </g>
          <path id="Path_20109" data-name="Path 20109" d="M379.712,206.9l-4.929,25.92a1.9,1.9,0,0,1-2.236,1.519L353.611,230.7a1.9,1.9,0,0,1-1.515-2.251l5.223-26.361a1.9,1.9,0,0,1,2.284-1.5l18.646,4.088A1.9,1.9,0,0,1,379.712,206.9Z" transform="translate(-322.563 -163.046)" fill="#e0e0e0"/>
          <circle id="Ellipse_57" data-name="Ellipse 57" cx="3.119" cy="3.119" r="3.119" transform="translate(40.663 49.413)" fill="#fff"/>
          <path id="Path_20110" data-name="Path 20110" d="M370.16,224.219l-1.572-.783a10.733,10.733,0,0,0-1.344-3.656,17.934,17.934,0,0,1-2.046-2.3c.01-.256-.385-2.042-.385-2.042s-.736-.636-.878.641a9.318,9.318,0,0,0,0,2.241L359,217.087c-.508-.128-1.149-.076-1.083.432a1.576,1.576,0,0,0,.731,1.1,1.657,1.657,0,0,0,.475.275,2.583,2.583,0,0,0-.817,1.5c0,.745-.845,2.469-.076,3.3s4.273,3.324,6.139,3.647a4.093,4.093,0,0,1,3.172,1.97Z" transform="translate(-325.636 -170.784)" fill="#ffbe9d"/>
          <path id="Path_20111" data-name="Path 20111" d="M369.729,221.48c-.024.038.565.38,1.225.888s1.149.978,1.182.95a4.377,4.377,0,0,0-1.092-1.068A4.273,4.273,0,0,0,369.729,221.48Z" transform="translate(-331.844 -174.042)" fill="#eb996e"/>
          <path id="Path_20112" data-name="Path 20112" d="M359.84,222.58a4.244,4.244,0,0,0,1.182.475,7.631,7.631,0,0,0,1.23.337,4.17,4.17,0,0,0-1.182-.475A7.632,7.632,0,0,0,359.84,222.58Z" transform="translate(-326.65 -174.62)" fill="#eb996e"/>
          <path id="Path_20113" data-name="Path 20113" d="M390.338,236.811l-10.859-4.6-4.069,8.119,14.928,7.611Z" transform="translate(-334.828 -179.677)" fill="#455a64"/>
          <path id="Path_20114" data-name="Path 20114" d="M384.42,232.729c0,.043,2.92,1.249,6.552,2.7s6.6,2.6,6.609,2.559-2.915-1.249-6.552-2.7S384.434,232.691,384.42,232.729Z" transform="translate(-339.56 -179.95)" fill="#263238"/>
          <g id="Group_742" data-name="Group 742" transform="translate(54.684 56.63)" opacity="0.3">
            <path id="Path_20115" data-name="Path 20115" d="M405.224,240.84A21.463,21.463,0,0,1,409.079,242a5.279,5.279,0,0,1,1.424.8,2.084,2.084,0,0,1,.769,1.424,4.705,4.705,0,0,1-1-.6c-1.23-1.239-3.357-1.956-5.161-2.645Z" transform="translate(-405.11 -240.84)"/>
          </g>
          <path id="Path_20116" data-name="Path 20116" d="M372.313,291.4c-.066,0-.123-5.223-.123-11.695s.057-11.69.123-11.69.123,5.223.123,11.69S372.38,291.4,372.313,291.4Z" transform="translate(-333.137 -198.485)" fill="#263238"/>
          <path id="Path_20117" data-name="Path 20117" d="M343.056,132.458c.29-2.645.726-5.375,2.184-7.6s4.207-3.8,6.78-3.138l3.229,1.576a94.913,94.913,0,0,1-2.873,21.528,4.606,4.606,0,0,1-.831,1.947c-.95,1.087-2.578,1.111-4.012,1.045-1.733-.076-3.761-.328-4.606-1.837a5,5,0,0,1-.442-2.436,94.015,94.015,0,0,1,.57-11.087Z" transform="translate(-317.53 -121.571)" fill="#0091ff"/>
          <path id="Path_20118" data-name="Path 20118" d="M362.677,129.345l-9.772-2.5c-3.129-.337-5.223,3.514-5.427,6.647a55.911,55.911,0,0,0,.043,10.37c.817,5.223,4.834,5.916,4.834,5.916a12.545,12.545,0,0,0-.029,3.988c.5,3.575,2.882,4.335,4.786,4.335h0c3.015.1,6.068-1.064,6.2-4.079l1.011-22.819a1.837,1.837,0,0,0-1.648-1.861Z" transform="translate(-320.043 -124.331)" fill="#ffbe9d"/>
          <path id="Path_20119" data-name="Path 20119" d="M352.52,149.325a.674.674,0,0,0,.646.679.646.646,0,0,0,.693-.608.674.674,0,0,0-.646-.679.641.641,0,0,0-.693.608Z" transform="translate(-322.806 -135.827)" fill="#263238"/>
          <path id="Path_20120" data-name="Path 20120" d="M350.287,145.693c.081.09.589-.29,1.315-.285s1.249.366,1.329.28-.047-.2-.275-.366a1.843,1.843,0,0,0-1.087-.323,1.747,1.747,0,0,0-1.045.337C350.321,145.474,350.245,145.655,350.287,145.693Z" transform="translate(-321.627 -133.875)" fill="#263238"/>
          <path id="Path_20121" data-name="Path 20121" d="M367.67,149.311a.674.674,0,0,0,.631.665.651.651,0,0,0,.7-.608.679.679,0,0,0-.646-.679.65.65,0,0,0-.684.622Z" transform="translate(-330.763 -135.813)" fill="#263238"/>
          <path id="Path_20122" data-name="Path 20122" d="M365.53,146.143c.085.085.594-.29,1.32-.285s1.249.366,1.329.28-.047-.2-.275-.37a1.9,1.9,0,0,0-1.068-.328,1.771,1.771,0,0,0-1.045.332C365.568,145.943,365.492,146.1,365.53,146.143Z" transform="translate(-329.634 -134.107)" fill="#263238"/>
          <path id="Path_20123" data-name="Path 20123" d="M357.685,150.484a5.006,5.006,0,0,0-1.173-.214c-.185,0-.361-.057-.389-.18a.949.949,0,0,1,.123-.551c.176-.446.356-.912.551-1.424a24.6,24.6,0,0,0,1.234-3.675,24.465,24.465,0,0,0-1.529,3.566q-.278.712-.527,1.424a1.049,1.049,0,0,0-.095.722.475.475,0,0,0,.3.271,1.144,1.144,0,0,0,.313.043A4.53,4.53,0,0,0,357.685,150.484Z" transform="translate(-324.558 -133.581)" fill="#263238"/>
          <path id="Path_20124" data-name="Path 20124" d="M358,173.137a14.145,14.145,0,0,0,7.317-1.857A7.521,7.521,0,0,1,358,174.471Z" transform="translate(-325.684 -147.678)" fill="#eb996e"/>
          <path id="Path_20125" data-name="Path 20125" d="M364.476,141.7c.071.195.793.1,1.643.209s1.534.337,1.643.161c.052-.085-.066-.271-.342-.475a2.877,2.877,0,0,0-2.507-.285C364.6,141.449,364.448,141.6,364.476,141.7Z" transform="translate(-329.084 -131.849)" fill="#0091ff"/>
          <path id="Path_20126" data-name="Path 20126" d="M349.864,141.184c.157.166.774,0,1.519,0s1.372.109,1.515-.062c.066-.081-.033-.247-.309-.4a2.545,2.545,0,0,0-1.234-.271,2.475,2.475,0,0,0-1.211.328C349.883,140.909,349.793,141.08,349.864,141.184Z" transform="translate(-321.399 -131.484)" fill="#0091ff"/>
          <path id="Path_20127" data-name="Path 20127" d="M356.6,125.457a8.039,8.039,0,0,0,1.6,1.657l2.811,2.407a21.272,21.272,0,0,0,2.084,1.624,20.916,20.916,0,0,0,2.042,1.14c.722.37,1.154,1.424,1.875,1.795.166.085.665,0,.84.095.052,1.173.294,4.886.389,6.367.142,2.336-.252,8.608-.252,8.608l1.985-.142a5.043,5.043,0,0,0,3.276-3.8,36.081,36.081,0,0,0,0-4.648c.033-3.048-.779-6.073-1.192-9.093a12.6,12.6,0,0,0-.85-3.575,9.97,9.97,0,0,0-3.509-3.8,13.3,13.3,0,0,0-5.456-2.374,7.464,7.464,0,0,0-5.7,1.3,1.258,1.258,0,0,0-.537.736C355.8,124.5,356.17,124.811,356.6,125.457Zm11.286,8.76C367.969,134.354,367.936,134.72,367.883,134.217Z" transform="translate(-324.609 -121.587)" fill="#0091ff"/>
          <path id="Path_20128" data-name="Path 20128" d="M380.4,149.548a1.529,1.529,0,0,1,2.236-1.3,2.071,2.071,0,0,1,.888,2.108c-.128,3.153-3.271,2.374-3.271,2.284S380.335,150.854,380.4,149.548Z" transform="translate(-337.37 -135.49)" fill="#ffbe9d"/>
          <path id="Path_20129" data-name="Path 20129" d="M382.377,152.533a.861.861,0,0,0,.147.09.57.57,0,0,0,.408.024,1.363,1.363,0,0,0,.688-1.182,1.871,1.871,0,0,0-.119-.793.641.641,0,0,0-.4-.437.266.266,0,0,0-.328.138c-.047.085-.029.147-.047.152s-.066-.052-.033-.185a.318.318,0,0,1,.133-.19.408.408,0,0,1,.3-.066.76.76,0,0,1,.556.513,1.847,1.847,0,0,1,.152.883,1.424,1.424,0,0,1-.855,1.334.6.6,0,0,1-.5-.1C382.382,152.609,382.368,152.538,382.377,152.533Z" transform="translate(-338.485 -136.542)" fill="#eb996e"/>
          <path id="Path_20130" data-name="Path 20130" d="M383.254,157.447a.622.622,0,1,1-.617-.617A.622.622,0,0,1,383.254,157.447Z" transform="translate(-338.294 -140.089)" fill="#263238"/>
          <path id="Path_20131" data-name="Path 20131" d="M361.45,159.879a1.424,1.424,0,0,1-.717,2.246.845.845,0,0,1-.541,0,1.206,1.206,0,0,1-.579-.75l-.3-.75a.255.255,0,0,1,.218-.408l1.861-.446" transform="translate(-326.351 -141.633)" fill="#eb996e"/>
          <path id="Path_20132" data-name="Path 20132" d="M360.077,161.868a1.639,1.639,0,0,0,.845-.109,1.325,1.325,0,0,0,.745-.6,1.02,1.02,0,0,0,.114-.574,1.661,1.661,0,0,0-.152-.594,1.524,1.524,0,0,0-.347-.475l-.052-.043h-.062c-1.23.437-2.2.655-2.189.712a7.625,7.625,0,0,0,2.26-.5h-.109a1.423,1.423,0,0,1,.3.418,1.215,1.215,0,0,1,.052.983,1.2,1.2,0,0,1-.594.541C360.414,161.8,360.067,161.825,360.077,161.868Z" transform="translate(-326.199 -141.475)" fill="#263238"/>
          <path id="Path_20133" data-name="Path 20133" d="M363.882,129.353a18.447,18.447,0,0,1,5.289,4.9l-1.491,2.991c-2.892-.066-3.252-.337-5.427-2.251s-6.486-5.726-6.913-8.589A27.981,27.981,0,0,1,363.882,129.353Z" transform="translate(-324.287 -124.107)" fill="#0091ff"/>
          <path id="Path_20134" data-name="Path 20134" d="M372.265,151.191a1.6,1.6,0,0,1,.114-.309c.09-.2.209-.475.361-.874a22.45,22.45,0,0,0,1.007-3.324,21.083,21.083,0,0,0,.475-5.1,13.763,13.763,0,0,0-.375-3,5.285,5.285,0,0,0-1.581-2.73,10.219,10.219,0,0,0-2.849-1.543,20.117,20.117,0,0,1-2.763-1.325,19.466,19.466,0,0,1-4.079-3.191,21.725,21.725,0,0,1-2.251-2.673c-.237-.332-.413-.6-.527-.788a1.243,1.243,0,0,1-.166-.285,2.374,2.374,0,0,1,.209.256c.123.176.313.437.565.76a24.333,24.333,0,0,0,2.293,2.607,19.941,19.941,0,0,0,4.069,3.119,20.6,20.6,0,0,0,2.74,1.3,10.161,10.161,0,0,1,2.9,1.581,5.508,5.508,0,0,1,1.657,2.849,14.116,14.116,0,0,1,.366,3.048,20.72,20.72,0,0,1-.527,5.152,20.032,20.032,0,0,1-1.087,3.324c-.166.38-.3.669-.4.859a1.955,1.955,0,0,1-.147.29Z" transform="translate(-326.54 -123.923)" fill="#fff"/>
          <path id="Path_20135" data-name="Path 20135" d="M373.811,133.809a5.222,5.222,0,0,0-1.154-2.113,7.332,7.332,0,0,0-2.084-1.576,26.281,26.281,0,0,0-2.991-1.258,19.681,19.681,0,0,1-5.223-2.849,15.382,15.382,0,0,1-1.367-1.178,2.762,2.762,0,0,1-.451-.475,3.98,3.98,0,0,1,.513.408c.328.275.8.665,1.424,1.106a21.4,21.4,0,0,0,5.185,2.773,23.784,23.784,0,0,1,3.015,1.282,7.193,7.193,0,0,1,2.108,1.667,4.572,4.572,0,0,1,.9,1.572,3.26,3.26,0,0,1,.114.475C373.816,133.747,373.82,133.8,373.811,133.809Z" transform="translate(-327.018 -123.036)" fill="#fff"/>
          <path id="Path_20136" data-name="Path 20136" d="M344.814,148.887a.97.97,0,0,1-.029-.266,6.493,6.493,0,0,0-.033-.76c-.028-.665-.057-1.624-.076-2.806-.043-2.374-.076-5.65.166-9.264a23.97,23.97,0,0,1,.717-5.047,9.232,9.232,0,0,1,1.937-3.689,6.482,6.482,0,0,1,2.265-1.676,4.4,4.4,0,0,1,.726-.242,1.1,1.1,0,0,1,.261-.047,6.782,6.782,0,0,0-.95.38,6.6,6.6,0,0,0-2.17,1.7,9.235,9.235,0,0,0-1.852,3.637,24.643,24.643,0,0,0-.7,5.014c-.242,3.6-.237,6.88-.242,9.245V148.6A1.161,1.161,0,0,1,344.814,148.887Z" transform="translate(-318.671 -123.419)" fill="#fff"/>
        </g>
        <g id="freepik--character-1--inject-8" transform="translate(92.995 63)">
          <path id="Path_20137" data-name="Path 20137" d="M192.5,433.337l-2.73,9.283s9.245,5.7,8.917,7.44l-19.576-4.235,3.623-14.624Z" transform="translate(-163.03 -272.742)" fill="#0091ff"/>
          <path id="Path_20138" data-name="Path 20138" d="M188.379,450.829a.8.8,0,0,0-.769.726.764.764,0,0,0,.769.712c.4,0,.855-.4.807-.774a.807.807,0,0,0-.888-.66" transform="translate(-167.494 -283.05)" fill="#e0e0e0"/>
          <g id="Group_743" data-name="Group 743" transform="translate(16.08 171.62)" opacity="0.6">
            <path id="Path_20139" data-name="Path 20139" d="M179.11,460.382l.427-1.462,18.613,4.61s.783.541.537,1.092Z" transform="translate(-179.11 -458.92)" fill="#fff"/>
          </g>
          <path id="Path_20140" data-name="Path 20140" d="M200.049,455c-.028.09-.518.024-1.059.209s-.888.5-.95.446.195-.537.855-.745S200.087,454.9,200.049,455Z" transform="translate(-172.967 -285.146)" fill="#263238"/>
          <path id="Path_20141" data-name="Path 20141" d="M204.391,457.728c0,.09-.475.152-.874.475s-.613.679-.707.655-.028-.536.5-.907S204.41,457.643,204.391,457.728Z" transform="translate(-175.458 -286.64)" fill="#263238"/>
          <path id="Path_20142" data-name="Path 20142" d="M207.358,461.608c-.09,0-.114-.475.256-.9s.864-.532.888-.446-.323.28-.622.641S207.453,461.622,207.358,461.608Z" transform="translate(-177.836 -287.989)" fill="#263238"/>
          <path id="Path_20143" data-name="Path 20143" d="M200.779,449.98c-.062.071-.475-.142-1.021-.228s-1.007,0-1.04-.1.475-.313,1.1-.209S200.841,449.923,200.779,449.98Z" transform="translate(-173.327 -282.305)" fill="#263238"/>
          <path id="Path_20144" data-name="Path 20144" d="M181.887,440.91l-.309,9.61s10.446,3.5,10.56,5.285l-20.108.147-.19-14.994Z" transform="translate(-159.212 -277.841)" fill="#0091ff"/>
          <path id="Path_20145" data-name="Path 20145" d="M178.591,459.527a.76.76,0,0,0-.565.874.788.788,0,0,0,1.519-.4.836.836,0,0,0-1.03-.446" transform="translate(-162.454 -287.608)" fill="#e0e0e0"/>
          <g id="Group_744" data-name="Group 744" transform="translate(12.809 176.601)" opacity="0.6">
            <path id="Path_20146" data-name="Path 20146" d="M172.22,470.92l.043-1.51,19.268.423s.9.356.8.95Z" transform="translate(-172.22 -469.41)" fill="#fff"/>
          </g>
          <path id="Path_20147" data-name="Path 20147" d="M190.982,460.9c0,.09-.475.138-.973.432s-.736.684-.826.646.052-.56.641-.912S191.011,460.79,190.982,460.9Z" transform="translate(-168.307 -288.291)" fill="#263238"/>
          <path id="Path_20148" data-name="Path 20148" d="M196,462.581c.024.09-.4.247-.731.636s-.423.793-.522.793-.161-.522.256-1S196,462.5,196,462.581Z" transform="translate(-171.205 -289.204)" fill="#263238"/>
          <path id="Path_20149" data-name="Path 20149" d="M199.862,465.765c-.09.024-.228-.432,0-.95s.707-.7.75-.631-.242.347-.437.76S199.976,465.755,199.862,465.765Z" transform="translate(-173.863 -290.057)" fill="#263238"/>
          <path id="Path_20150" data-name="Path 20150" d="M190.3,455.964c-.038.085-.475-.038-1.045,0s-.988.2-1.04.128.366-.408,1.016-.446S190.347,455.893,190.3,455.964Z" transform="translate(-167.809 -285.579)" fill="#263238"/>
          <path id="Path_20151" data-name="Path 20151" d="M192.216,455.36a4.165,4.165,0,0,0-.047.75v2.061l.062.024c1.04.37,2.308.826,3.661,1.348,1.757.679,3.324,1.367,4.42,1.9l1.306.646a2.544,2.544,0,0,0,.475.218,2.713,2.713,0,0,0-.442-.294c-.29-.176-.726-.423-1.272-.707a46.881,46.881,0,0,0-4.406-1.961c-1.358-.527-2.635-.95-3.68-1.31l.062.081c0-.831-.043-1.519-.062-2A3.9,3.9,0,0,0,192.216,455.36Z" transform="translate(-169.887 -285.43)" fill="#263238"/>
          <path id="Path_20152" data-name="Path 20152" d="M164.52,291.533l.095,6.211,2.654,29.562S166.12,341.683,165.4,349.8c-.622,7.046.76,19.287.76,19.287l12.82-.19,3.95-40.938,2.455-25.535,4.748-11.671Z" transform="translate(-155.367 -198.978)" fill="#263238"/>
          <path id="Path_20153" data-name="Path 20153" d="M209.051,290.161l-.285,41.793-12.478,31.1-.565,1.871-7.673-1.6,4.568-73.23Z" transform="translate(-167.725 -198.632)" fill="#263238"/>
          <path id="Path_20154" data-name="Path 20154" d="M201.339,316a.67.67,0,0,1,0,.171v.5c0,.475,0,1.106-.033,1.937-.029,1.681-.119,4.112-.256,7.122-.294,6.006-.888,14.3-1.871,23.432s-2.061,17.388-2.849,23.356c-.408,2.972-.736,5.384-.95,7.065-.119.821-.209,1.467-.275,1.9-.033.209-.057.375-.076.5a.992.992,0,0,1-.033.166.951.951,0,0,1,0-.171c0-.123.029-.29.052-.5.057-.451.133-1.1.233-1.928.209-1.681.513-4.093.893-7.07.755-5.973,1.823-14.244,2.792-23.356s1.6-17.416,1.937-23.422c.161-3,.28-5.432.332-7.122.038-.831.062-1.481.081-1.932a2.489,2.489,0,0,1,.028-.5A.784.784,0,0,1,201.339,316Z" transform="translate(-171.371 -212.24)" fill="#455a64"/>
          <path id="Path_20155" data-name="Path 20155" d="M206.72,301.941a.132.132,0,0,0,.043.085.285.285,0,0,0,.294,0,.5.5,0,0,0,.209-.38,3.59,3.59,0,0,1,.076-.518c.1-.769.237-1.833.366-3.01s.233-2.241.3-3.01a6.647,6.647,0,0,0,.052-1.258,6.8,6.8,0,0,0-.223,1.239c-.1.769-.237,1.833-.366,3.01s-.233,2.241-.3,3.01c-.043.38,0,.731-.161.845a.233.233,0,0,1-.218.024C206.744,301.993,206.73,301.936,206.72,301.941Z" transform="translate(-177.53 -200.607)" fill="#455a64"/>
          <path id="Path_20156" data-name="Path 20156" d="M202.731,295.074a.3.3,0,0,0-.195,0,.816.816,0,0,0-.475.261.7.7,0,0,0-.138.741.95.95,0,0,0,.812.532.874.874,0,0,0,.817-.518.7.7,0,0,0-.546-1c-.133,0-.195.033-.19.043a.779.779,0,0,1,.518.3.56.56,0,0,1,0,.574.679.679,0,0,1-.608.38.731.731,0,0,1-.617-.389.551.551,0,0,1,.071-.57A1.087,1.087,0,0,1,202.731,295.074Z" transform="translate(-174.985 -201.241)" fill="#455a64"/>
          <path id="Path_20157" data-name="Path 20157" d="M220.212,294.461a1.581,1.581,0,0,0,.323-.864,1.458,1.458,0,0,0-.033-.916c-.066,0-.119.4-.2.883S220.145,294.442,220.212,294.461Z" transform="translate(-184.603 -199.992)" fill="#455a64"/>
          <path id="Path_20158" data-name="Path 20158" d="M217.23,294.4a3.991,3.991,0,0,0,.37-1.866,2.107,2.107,0,0,0-.3.916C217.192,293.964,217.164,294.387,217.23,294.4Z" transform="translate(-183.032 -199.913)" fill="#455a64"/>
          <path id="Path_20159" data-name="Path 20159" d="M187.335,295.367c.062,0,.18-.261.261-.617s.09-.646.028-.66-.185.266-.261.617S187.269,295.352,187.335,295.367Z" transform="translate(-167.328 -200.732)" fill="#455a64"/>
          <path id="Path_20160" data-name="Path 20160" d="M184.45,295.087a2.436,2.436,0,0,0,.385-1.182,2.341,2.341,0,0,0-.033-1.235,5.493,5.493,0,0,0-.2,1.206A5.357,5.357,0,0,0,184.45,295.087Z" transform="translate(-165.834 -199.987)" fill="#455a64"/>
          <path id="Path_20161" data-name="Path 20161" d="M164.29,300.937a1.187,1.187,0,0,0,.389.133,3.693,3.693,0,0,0,1.125.095,5.223,5.223,0,0,0,3.3-1.5,7.056,7.056,0,0,0,1.728-3.034,9.271,9.271,0,0,0,.228-1.016c.038-.247.047-.38.028-.385s-.138.527-.418,1.358a7.507,7.507,0,0,1-1.738,2.925,5.318,5.318,0,0,1-3.139,1.5A6.941,6.941,0,0,1,164.29,300.937Z" transform="translate(-155.247 -201.331)" fill="#455a64"/>
          <path id="Path_20162" data-name="Path 20162" d="M195.531,108.11a2.2,2.2,0,0,0,.669-4.335,2.293,2.293,0,0,0-2.236-3.737,2.735,2.735,0,0,0-4.273-1.989,3.082,3.082,0,0,0-3.8.157,2.194,2.194,0,0,0-1.7,3.832" transform="translate(-165.301 -97.469)" fill="#263238"/>
          <path id="Path_20163" data-name="Path 20163" d="M190.542,111.595a9.349,9.349,0,0,0-9.824-8.024l-.475.028c-5.19.641-7.564,5.389-6.813,10.55l1.8,17.312.138,5.156,12.25,2.849-.4-9.89s4.966-1.083,4.724-6.1C191.824,121.048,191.2,116.082,190.542,111.595Z" transform="translate(-159.976 -100.664)" fill="#9f7362"/>
          <path id="Path_20164" data-name="Path 20164" d="M195.311,156.624a12.136,12.136,0,0,1-6.681-1.524s1.762,3.514,6.733,2.759Z" transform="translate(-168.03 -127.736)" fill="#65463c"/>
          <path id="Path_20165" data-name="Path 20165" d="M206.422,128.126a.717.717,0,0,1-.65.76.684.684,0,0,1-.774-.6.717.717,0,0,1,.646-.764.688.688,0,0,1,.779.6Z" transform="translate(-176.625 -113.249)" fill="#263238"/>
          <path id="Path_20166" data-name="Path 20166" d="M204.51,125.04c-.081.1-.646-.266-1.424-.218s-1.31.475-1.4.38.033-.214.271-.408a1.928,1.928,0,0,1,1.111-.418,1.9,1.9,0,0,1,1.14.29C204.462,124.836,204.552,125,204.51,125.04Z" transform="translate(-174.874 -111.598)" fill="#263238"/>
          <path id="Path_20167" data-name="Path 20167" d="M191.078,129.746a.717.717,0,0,1-.646.764.684.684,0,0,1-.774-.6.717.717,0,0,1,.646-.764.688.688,0,0,1,.774.6Z" transform="translate(-168.569 -114.101)" fill="#263238"/>
          <path id="Path_20168" data-name="Path 20168" d="M188.59,126.305c-.081.1-.65-.271-1.424-.223s-1.31.475-1.4.38.033-.214.271-.408a1.961,1.961,0,0,1,1.111-.418,1.9,1.9,0,0,1,1.14.294C188.542,126.1,188.632,126.282,188.59,126.305Z" transform="translate(-166.513 -112.26)" fill="#263238"/>
          <path id="Path_20169" data-name="Path 20169" d="M197.507,131.645a5.222,5.222,0,0,1,1.239-.3c.195-.028.38-.081.4-.218a1,1,0,0,0-.166-.575l-.693-1.462a23.556,23.556,0,0,1-1.538-3.836,25.732,25.732,0,0,1,1.847,3.7c.223.518.442,1.007.646,1.477a1.1,1.1,0,0,1,.147.764.475.475,0,0,1-.3.3,1.178,1.178,0,0,1-.332.066A5.1,5.1,0,0,1,197.507,131.645Z" transform="translate(-172.291 -112.059)" fill="#263238"/>
          <path id="Path_20170" data-name="Path 20170" d="M193.537,140.13c.123,0,.176.821.926,1.367s1.638.408,1.648.522-.185.176-.56.209a2.1,2.1,0,0,1-1.377-.389,1.814,1.814,0,0,1-.722-1.154C193.4,140.339,193.48,140.125,193.537,140.13Z" transform="translate(-170.553 -119.874)" fill="#263238"/>
          <path id="Path_20171" data-name="Path 20171" d="M187.915,120.112c-.066.214-.84.161-1.733.323s-1.614.475-1.747.275c-.057-.09.057-.294.342-.513a3.086,3.086,0,0,1,2.649-.475C187.763,119.856,187.938,120.012,187.915,120.112Z" transform="translate(-165.819 -109.096)" fill="#263238"/>
          <path id="Path_20172" data-name="Path 20172" d="M203.872,120.318c-.123.18-.665.033-1.3.062s-1.173.19-1.306,0c-.062-.085,0-.266.237-.446a1.9,1.9,0,0,1,2.1-.062C203.843,120.052,203.929,120.228,203.872,120.318Z" transform="translate(-174.654 -109.083)" fill="#263238"/>
          <path id="Path_20173" data-name="Path 20173" d="M188.542,108.6s-1.51-3.058-3.067-3.7c-1.9-.779-2.55,1.282-4.326.9s-3.575-1.125-5.275.328c-1.866,1.6-.888,2.578-.874,4.81.052,9.021-1.424,11.69-2.165,7.469-.076-.475-1.391-.75-1.7-2.706-.4-2.531-.688-5.622-.228-7.464a7.181,7.181,0,0,1,2.683-3.912c2.374-1.98,5.726-2.222,8.034-2.132S188.514,104.661,188.542,108.6Z" transform="translate(-158.598 -99.941)" fill="#263238"/>
          <path id="Path_20174" data-name="Path 20174" d="M172.211,134.63a1.363,1.363,0,0,0-1.548-1.225c-.95.147-1.937.741-1.757,2.668.313,3.419,3.68,2.374,3.68,2.3S172.353,136.078,172.211,134.63Z" transform="translate(-157.66 -116.335)" fill="#9f7362"/>
          <path id="Path_20175" data-name="Path 20175" d="M173.033,138.421a1.322,1.322,0,0,1-.152.1.6.6,0,0,1-.446.047,1.477,1.477,0,0,1-.8-1.258,1.937,1.937,0,0,1,.09-.869.7.7,0,0,1,.4-.5.309.309,0,0,1,.366.133c.057.09.038.161.057.166s.071-.066.029-.2a.366.366,0,0,0-.152-.2.427.427,0,0,0-.337-.057.826.826,0,0,0-.575.589,2.023,2.023,0,0,0-.119.95,1.548,1.548,0,0,0,1.007,1.4.636.636,0,0,0,.537-.138C173.033,138.507,173.048,138.426,173.033,138.421Z" transform="translate(-158.971 -117.586)" fill="#65463c"/>
          <path id="Path_20176" data-name="Path 20176" d="M171.367,110.32a3.186,3.186,0,0,0,1.491.584,1.121,1.121,0,0,0,1.192-.859,1.173,1.173,0,0,1,.095-.707c.142-.19.522-.185.812-.171a2.194,2.194,0,0,0,2.175-1.7.921.921,0,0,0,1.239.043,4.942,4.942,0,0,0,.874-1.054,1.424,1.424,0,0,1,1.14-.66,3.513,3.513,0,0,0,.755.119c.446-.066.636-.608.674-1.059a1.651,1.651,0,0,1,.432-1.239c.366-.29.8-.142,1.22-.109s.95-.09,1.03-.5a.826.826,0,0,0-.19-.613,2.222,2.222,0,0,0-2.673-.679,3.006,3.006,0,0,0-5.555-.252,3.063,3.063,0,0,0-4.815,1.424,2.217,2.217,0,0,0-2.3,3.366,2.113,2.113,0,0,0-1.054,1.743,1.2,1.2,0,0,0,1.424,1.149,1.225,1.225,0,0,0,2.194,1.092" transform="translate(-157.148 -98.649)" fill="#263238"/>
          <path id="Path_20177" data-name="Path 20177" d="M182.339,106a.194.194,0,0,1,0,.062,1.479,1.479,0,0,1,0,.185,2.117,2.117,0,0,1-.209.674,2.517,2.517,0,0,1-.707.855,2.317,2.317,0,0,1-1.382.475l.052-.081a1.244,1.244,0,0,1,0,.95,3.438,3.438,0,0,1-.537.878,2.609,2.609,0,0,1-.361.418,1.2,1.2,0,0,1-.527.233,1.249,1.249,0,0,1-1.13-.328l.128-.043a2.583,2.583,0,0,1-.983,1.842,1.9,1.9,0,0,1-1.1.437,3.49,3.49,0,0,1-1.125-.176l.09-.047a2.687,2.687,0,0,1-.745,1.106,1.424,1.424,0,0,1-1.173.394,1.9,1.9,0,0,1-1.543-1.386l.081.033a1.766,1.766,0,0,1-1.168.242,1.942,1.942,0,0,1-.845-.318,1.709,1.709,0,0,1-.408-.394,1.037,1.037,0,0,1-.095-.171,2,2,0,0,0,.537.518,1.9,1.9,0,0,0,.821.285,1.719,1.719,0,0,0,1.1-.252l.062-.038v.071a1.781,1.781,0,0,0,1.458,1.282,1.3,1.3,0,0,0,1.064-.37,2.559,2.559,0,0,0,.7-1.049v-.066h.066a3.3,3.3,0,0,0,1.073.171,1.747,1.747,0,0,0,1.021-.408,2.441,2.441,0,0,0,.926-1.738v-.161l.114.119a1.1,1.1,0,0,0,.992.29,1.054,1.054,0,0,0,.475-.2,2.478,2.478,0,0,0,.342-.389,3.461,3.461,0,0,0,.522-.84,1.106,1.106,0,0,0,0-.859l-.033-.081h.085a2.227,2.227,0,0,0,1.325-.442,2.478,2.478,0,0,0,.707-.812A2.692,2.692,0,0,0,182.339,106Z" transform="translate(-157.536 -101.949)" fill="#455a64"/>
          <path id="Path_20178" data-name="Path 20178" d="M204.756,175.7s2.573,1.32,3.238,1.795,6.173,16.69,6.173,16.69l-.043,21.039,7.2,24.457-4.359,2.341-3.191-13.475L204.4,178.487Z" transform="translate(-176.312 -138.555)" fill="#0091ff"/>
          <path id="Path_20179" data-name="Path 20179" d="M161.666,156.89l-2.255,4.326-9.971,7.758,6.875,40.425L152.659,236.9l28.821-.3s4.748-11.552,3.8-20.312-5.66-32.13-5.66-32.13a107.031,107.031,0,0,0-17.952-27.268Z" transform="translate(-147.447 -128.676)" fill="#0091ff"/>
          <path id="Path_20180" data-name="Path 20180" d="M175.56,155.167l.271-1.937,11.524,9.458,1.6-2.749.65,3.96-.356,2.787s4.919,12.245,5.489,14.866,2.227,19.738,2.227,19.738l-9.8-27.088Z" transform="translate(-161.165 -126.754)" fill="#e0e0e0"/>
          <path id="Path_20181" data-name="Path 20181" d="M187.529,165.98c.024,0-.185.351-.437,1a7.122,7.122,0,0,0-.475,2.811v.309l-.185-.247c-.893-1.206-2.013-2.654-3.324-4.15-1.667-1.951-3.3-3.613-4.5-4.791l-1.424-1.377a4.32,4.32,0,0,1-.518-.522,5.093,5.093,0,0,1,.575.475c.361.3.874.755,1.5,1.325a58.969,58.969,0,0,1,4.563,4.748c1.291,1.505,2.407,2.968,3.281,4.188l-.176.062a6.771,6.771,0,0,1,.556-2.849,6.017,6.017,0,0,1,.37-.722A1.259,1.259,0,0,1,187.529,165.98Z" transform="translate(-161.748 -129.79)" fill="#263238"/>
          <path id="Path_20182" data-name="Path 20182" d="M202.578,177.665a11.556,11.556,0,0,1-1.068-3.115,5.974,5.974,0,0,1,.641,1.519A5.8,5.8,0,0,1,202.578,177.665Z" transform="translate(-174.794 -137.951)" fill="#263238"/>
          <path id="Path_20183" data-name="Path 20183" d="M209.725,212.324a1.964,1.964,0,0,1-.123-.38c-.076-.271-.18-.641-.309-1.106l-1.1-4.069c-.9-3.461-2.146-8.209-3.523-13.456s-2.564-10.009-3.457-13.475c-.427-1.709-.774-3.105-1.021-4.088-.114-.475-.2-.84-.266-1.116a2.675,2.675,0,0,1-.081-.394,2.137,2.137,0,0,1,.123.38c.076.271.18.641.309,1.106l1.1,4.069c.907,3.461,2.146,8.209,3.523,13.461s2.569,10,3.457,13.47l1.021,4.093c.114.475.2.84.266,1.111A3,3,0,0,1,209.725,212.324Z" transform="translate(-173.922 -137.788)" fill="#263238"/>
          <path id="Path_20184" data-name="Path 20184" d="M193.986,205.419a.747.747,0,0,1-.076-.095l-.2-.294c-.185-.271-.442-.65-.764-1.135l-2.782-4.221-9.207-14.1-.028-.047v-.057l.446-1.32.826-2.417.171.133-2.374,1.6-.119.081-.052-.133c-2.075-5.247-4.174-9.715-5.75-12.863-.788-1.572-1.424-2.82-1.9-3.675l-.513-.988-.133-.256a.141.141,0,0,0-.038-.09.379.379,0,0,1,.057.081l.147.247.551.95c.475.845,1.144,2.08,1.951,3.647,1.61,3.134,3.741,7.6,5.826,12.848l-.166-.052,2.374-1.6.285-.195-.109.328-.821,2.417c-.157.451-.309.9-.451,1.32v-.1l9.145,14.14L193,203.843,193.73,205l.185.3Z" transform="translate(-159.028 -133.219)" fill="#263238"/>
          <path id="Path_20185" data-name="Path 20185" d="M188.39,281.739a1.473,1.473,0,0,1-.052.252c-.043.195-.1.446-.18.764-.171.707-.408,1.7-.712,2.939v.047h-.057c-3.3.209-8.485.513-14.3.836h-.537l.071-.171c.475-1.187.95-2.341,1.424-3.442l.128.152c-.043-.446,0-.123-.028-.223h.375l.38-.033.745-.062,1.448-.133,2.716-.237,4.52-.389,2.987-.237.8-.057a1.707,1.707,0,0,1,.275,0,1.13,1.13,0,0,1-.275.047l-.8.09-2.982.309-4.511.437-2.716.256-1.448.138-.745.066-.38.038h-.38c0-.1,0,.223-.033-.228l.128.157L172.83,286.5l-.114-.161h.356c5.816-.323,11-.589,14.3-.745l-.062.052c.328-1.211.594-2.175.783-2.849.09-.323.161-.579.218-.774S188.385,281.744,188.39,281.739Z" transform="translate(-159.585 -194.246)" fill="#263238"/>
          <path id="Path_20186" data-name="Path 20186" d="M220.28,251.63a4.751,4.751,0,0,1,.19.736c.109.475.256,1.168.423,2.027.328,1.714.731,4.093,1.064,6.738s.537,5.052.641,6.794c.052.874.085,1.576.1,2.065a5.517,5.517,0,0,1,0,.76,4.711,4.711,0,0,1-.085-.755c-.047-.527-.1-1.22-.171-2.061-.147-1.738-.38-4.136-.707-6.776s-.707-5.019-1-6.738c-.138-.831-.256-1.519-.342-2.037a5.27,5.27,0,0,1-.109-.755Z" transform="translate(-184.652 -178.433)" fill="#263238"/>
          <g id="Group_745" data-name="Group 745" transform="translate(8.906 74.607)" opacity="0.3">
            <path id="Path_20187" data-name="Path 20187" d="M164,261.285c2.255,1.591,5.052,1.363,7.673.508q6.41-2.08,12.7-4.5c1.367-.527,2.915-1.268,3.233-2.7C179.536,257.093,172.024,258.793,164,261.285Z" transform="translate(-164 -254.6)"/>
          </g>
          <g id="Group_746" data-name="Group 746" transform="translate(13.825 88.51)" opacity="0.3">
            <path id="Path_20188" data-name="Path 20188" d="M174.93,287.65l-.57,1.078,13.959-.541.788-4.307-.788,2.849Z" transform="translate(-174.36 -283.88)"/>
          </g>
          <g id="Group_747" data-name="Group 747" transform="translate(15.98 38.792)" opacity="0.3">
            <path id="Path_20189" data-name="Path 20189" d="M178.9,179.17l4.24,13.466,1.709-1.752-.679,3.1,8.276,10.536-7.407-11.908,1.068-3.708-2.151,1.591Z" transform="translate(-178.9 -179.17)"/>
          </g>
          <path id="Path_20190" data-name="Path 20190" d="M214.392,217.4l-3.077,4.345-.66,2.488L207.93,225.8l2.441,6.258,1.771-1.762,10.261-4.439,3.509-4.273s-.418-.65-.95-.593a15.6,15.6,0,0,0-2.849,1.932l-1.534.845,3.67-2.977s.047-.475-.878-.5-3.742,1.633-3.742,1.633-2.5,1.572-3.067,1.524-2.63-.537-2.588-1.258,1.116-1.424,1.263-2.274S215.631,217.956,214.392,217.4Z" transform="translate(-178.166 -160.456)" fill="#9f7362"/>
          <path id="Path_20191" data-name="Path 20191" d="M149.14,180.178a4.169,4.169,0,0,0-3.248,3.086,22.188,22.188,0,0,0-.646,5.7c.028,2.6,1.966,27.8,2.512,29.381.575,1.667,2.146,3.874,4.373,4.121,1.842.2,26.589-7.07,26.589-7.07l-4.017-10.3-14.2.95s-1.424-19.31-2.645-21.9C156.875,182.111,152.725,179.532,149.14,180.178Z" transform="translate(-145.243 -140.854)" fill="#0091ff"/>
          <path id="Path_20192" data-name="Path 20192" d="M161.319,185.047c-.038,0-.347-.522-1.016-1.268a9.829,9.829,0,0,0-1.291-1.206,10.727,10.727,0,0,0-1.828-1.106,10.919,10.919,0,0,0-2.027-.693,9.886,9.886,0,0,0-1.738-.228c-1-.038-1.619.076-1.629.028a1.962,1.962,0,0,1,.432-.1,3.3,3.3,0,0,1,.513-.062,5.943,5.943,0,0,1,.684-.033,9.114,9.114,0,0,1,1.781.185,9.387,9.387,0,0,1,3.946,1.842,8.727,8.727,0,0,1,1.282,1.249,6.734,6.734,0,0,1,.418.541,4.577,4.577,0,0,1,.28.437A1.609,1.609,0,0,1,161.319,185.047Z" transform="translate(-148.682 -141.013)" fill="#263238"/>
          <path id="Path_20193" data-name="Path 20193" d="M164,232.4l.119-.043.351-.1,1.372-.4,5.123-1.453,17.568-4.91-.076.147c-.95-2.441-1.966-5.047-3.015-7.725-.337-.869-.674-1.728-1-2.578l.114.076-14.3.783h-.081V216.1c-.513-4.981-.95-9.135-1.239-12.06-.138-1.424-.252-2.588-.328-3.381-.033-.38-.062-.674-.081-.888v-.233l.033.228c.024.214.062.508.109.888.09.793.218,1.928.385,3.371.318,2.925.774,7.075,1.32,12.055l-.1-.09,14.3-.817h.085l.028.076q.475,1.272,1.007,2.578c1.045,2.683,2.056,5.285,3.01,7.73l.043.114-.119.033-17.639,4.834-5.142,1.391-1.382.366-.356.085A.474.474,0,0,1,164,232.4Z" transform="translate(-155.094 -151.034)" fill="#263238"/>
          <path id="Path_20194" data-name="Path 20194" d="M174.214,234.81c.057.043-.665,1.049-1.477,2.331s-1.315,2.412-1.367,2.374A7.364,7.364,0,0,1,172.538,237,11.4,11.4,0,0,1,174.214,234.81Z" transform="translate(-158.965 -169.599)" fill="#263238"/>
        </g>
      </g>
    </g>
  </g>
</svg>
