<svg xmlns="http://www.w3.org/2000/svg" width="751" height="751" viewBox="0 0 751 751">
  <g id="Group_4738" data-name="Group 4738" transform="translate(15995 -4282)">
    <rect id="Rectangle_4925" data-name="Rectangle 4925" width="751" height="751" transform="translate(-15995 4282)" fill="#fff" opacity="0"/>
    <g id="Collaboration-pana" transform="translate(-15987.861 4295.92)">
      <g id="freepik--background-complete--inject-182" transform="translate(63.059 62.41)">
        <rect id="Rectangle_4691" data-name="Rectangle 4691" width="167.123" height="292.391" transform="translate(15.501 11.126)" fill="#fafafa"/>
        <path id="Path_50036" data-name="Path 50036" d="M112.465,366.125s-18.342-131.552-27.889-146c0,0,54.741-41.119,56.424-152.525H57.92V366.125Z" transform="translate(-44.915 -59.797)" fill="#ebebeb"/>
        <path id="Path_50037" data-name="Path 50037" d="M145.64,365.735s18.312-131.552,27.9-146c0,0-54.756-41.1-56.424-152.525H200.2V365.735Z" transform="translate(-15.111 -59.993)" fill="#ebebeb"/>
        <path id="Path_50038" data-name="Path 50038" d="M236.284,62.41H49.27V375.594H244.027V62.41ZM98.358,225.128v74.466H64.771V225.128Zm-33.587-5.4V142.649H98.358v77.082Zm84.719,0V142.649H191.5v77.082Zm42.006,5.4v74.466H149.49V225.128Zm-91.71-5.4V142.649h44.262v77.082Zm44.262,5.4v74.466h-44.2V225.128Zm-44.2-83.8V73.536h44.262v67.791Zm44.262,159.606v65.024H99.846V300.932Zm5.382,0H191.5v65.024H149.49Zm0-159.606V73.536H191.5v67.791Zm43.51,83.8h35.542v74.466H193Zm0-5.4V142.649h35.542v77.082Zm35.542-78.4H193V73.536h35.542ZM98.358,73.536v67.791H64.771V73.536Zm-33.587,227.4H98.358v65.024H64.771ZM193,365.956V300.932h35.542v65.024Z" transform="translate(-49.27 -62.41)" fill="#e0e0e0"/>
        <rect id="Rectangle_4692" data-name="Rectangle 4692" width="167.123" height="292.391" transform="translate(439.052 11.126)" fill="#fafafa"/>
        <path id="Path_50039" data-name="Path 50039" d="M394.2,366.125s-18.312-131.552-27.9-146c0,0,54.756-41.119,56.424-152.525H339.64V366.125Z" transform="translate(96.917 -59.797)" fill="#ebebeb"/>
        <path id="Path_50040" data-name="Path 50040" d="M427.375,365.735s18.3-131.552,27.889-146c0,0-54.741-41.1-56.424-152.525h83.081V365.735Z" transform="translate(126.721 -59.993)" fill="#ebebeb"/>
        <path id="Path_50041" data-name="Path 50041" d="M518.014,62.41H331V375.594H525.757V62.41ZM380.088,225.128v74.466h-33.6V225.128Zm-33.6-5.4V142.649h33.6v77.082Zm84.719,0V142.649h42.1v77.082Zm42.1,5.4v74.466H431.2V225.128Zm-91.71-5.4V142.649h44.246v77.082Zm44.246,5.4v74.466H381.576V225.128Zm-44.262-83.8V73.536h44.247v67.791Zm44.247,159.606v65.024H381.576V300.932Zm5.382,0h42.1v65.024H431.2Zm0-159.606V73.536h42.1v67.791Zm43.51,83.8h35.542v74.466H474.715Zm0-5.4V142.649h35.542v77.082Zm35.542-78.4H474.715V73.536h35.542ZM380.088,73.536v67.791h-33.6V73.536Zm-33.6,227.4h33.6v65.024h-33.6Zm128.229,65.024V300.932h35.542v65.024Z" transform="translate(92.567 -62.41)" fill="#e0e0e0"/>
        <rect id="Rectangle_4693" data-name="Rectangle 4693" width="40.638" height="51.298" transform="translate(239.935 81.697)" fill="#ebebeb"/>
        <rect id="Rectangle_4694" data-name="Rectangle 4694" width="5.638" height="1.368" transform="translate(257.691 131.837)" fill="#e0e0e0"/>
        <path id="Path_50042" data-name="Path 50042" d="M226.679,128.49l-7.487,1.1-2.781,7.036,4.691,5.924,7.472-1.1,2.8-7.021Z" transform="translate(34.877 -29.142)" fill="#e0e0e0"/>
        <path id="Path_50043" data-name="Path 50043" d="M229.014,131.51l-7.487,1.1-2.8,7.036,4.691,5.924,7.487-1.082,2.8-7.036Z" transform="translate(36.044 -27.622)" fill="#fafafa"/>
        <rect id="Rectangle_4695" data-name="Rectangle 4695" width="5.638" height="1.173" transform="translate(258.488 80.991)" fill="#e0e0e0"/>
        <rect id="Rectangle_4696" data-name="Rectangle 4696" width="67.851" height="85.651" transform="translate(311.334 13.215)" fill="#ebebeb"/>
        <rect id="Rectangle_4697" data-name="Rectangle 4697" width="9.412" height="2.285" transform="translate(340.982 96.957)" fill="#e0e0e0"/>
        <path id="Path_50044" data-name="Path 50044" d="M286.109,90.82,273.6,92.639l-4.661,11.742,7.833,9.908,12.494-1.819,4.661-11.742Z" transform="translate(61.323 -48.107)" fill="#e0e0e0"/>
        <path id="Path_50045" data-name="Path 50045" d="M289.989,95.86,277.5,97.694l-4.676,11.742,7.848,9.908,12.494-1.834,4.661-11.727Z" transform="translate(63.276 -45.57)" fill="#fafafa"/>
        <rect id="Rectangle_4698" data-name="Rectangle 4698" width="9.412" height="1.954" transform="translate(342.305 12.058)" fill="#e0e0e0"/>
        <path id="Path_50046" data-name="Path 50046" d="M232.636,308.811c-9.2,1.5-13.306,12.779-12.509,22.071s4.631,18.357,3.608,27.618c-1.308,11.772-10.193,21.71-11.231,33.5-1.218,13.907,8.615,26.235,11.546,39.886,1.428,6.63,1.233,13.651,3.7,19.981a24.987,24.987,0,0,0,48.261-8.615c.2-10.674-6.39-20.733-5.593-31.377.586-7.878,5.2-15.335,4.225-23.168-1.188-9.306-9.818-15.922-12.854-24.807s-.12-18.673-1.173-28.009c-1.894-16.748-11.171-28.43-27.979-27.062" transform="translate(32.858 61.593)" fill="#f5f5f5"/>
        <path id="Path_50047" data-name="Path 50047" d="M194.68,362.71c-1.5,15.516,5.292,33.767,13.275,47.163A74,74,0,0,0,242.7,440.017c1.609.677,3.638,1.248,5.006.15a5.052,5.052,0,0,0,1.263-3.984,76.195,76.195,0,0,0-54.29-73.474" transform="translate(23.831 88.776)" fill="#ebebeb"/>
        <path id="Path_50048" data-name="Path 50048" d="M255.575,463.093a3.969,3.969,0,0,1-.451-.857c-.286-.677-.647-1.5-1.1-2.541-.932-2.225-2.33-5.412-4.1-9.321a331.161,331.161,0,0,0-15.41-29.828,330.427,330.427,0,0,0-18.417-28.069c-2.541-3.458-4.646-6.239-6.119-8.149l-1.669-2.21a3.5,3.5,0,0,1-.526-.8,5.915,5.915,0,0,1,.662.692l1.8,2.1c1.5,1.834,3.729,4.51,6.345,8a283.747,283.747,0,0,1,18.688,27.979,286.287,286.287,0,0,1,15.215,30.069c1.7,3.954,3.007,7.186,3.849,9.442.391,1.052.707,1.924.947,2.6A4.181,4.181,0,0,1,255.575,463.093Z" transform="translate(30.532 98.145)" fill="#e0e0e0"/>
        <path id="Path_50049" data-name="Path 50049" d="M232.947,337.33a9.862,9.862,0,0,1,.18,1.5c.075,1.052.18,2.481.3,4.27.241,3.8.586,9.141,1.022,15.726.827,13.275,2.015,31.572,3.428,51.854s2.826,38.578,3.864,51.839c.5,6.57.917,11.922,1.2,15.711.12,1.789.21,3.217.286,4.27a9.461,9.461,0,0,1,0,1.5,10.068,10.068,0,0,1-.226-1.5c-.105-1.037-.256-2.466-.451-4.255-.361-3.789-.857-9.126-1.5-15.681-1.188-13.26-2.691-31.572-4.119-51.839s-2.511-38.594-3.187-51.884c-.3-6.585-.556-11.937-.737-15.741,0-1.789-.105-3.217-.135-4.27A9.474,9.474,0,0,1,232.947,337.33Z" transform="translate(43.162 75.998)" fill="#e0e0e0"/>
        <path id="Path_50050" data-name="Path 50050" d="M223.43,421h38.864v28.566a18.658,18.658,0,0,1-18.658,18.658h0a18.657,18.657,0,0,1-18.628-17.662Z" transform="translate(38.411 118.122)" fill="#e0e0e0"/>
      </g>
      <g id="freepik--Floor--inject-182" transform="translate(21.88 648.845)">
        <path id="Path_50051" data-name="Path 50051" d="M701.439,452.861c0,.211-152.134.391-339.78.391s-339.779-.18-339.779-.391,152.1-.391,339.779-.391S701.439,452.65,701.439,452.861Z" transform="translate(-21.88 -452.47)" fill="#263238"/>
      </g>
      <g id="freepik--character-2--inject-182" transform="translate(362.411 192.215)">
        <path id="Path_50052" data-name="Path 50052" d="M338.9,253.951l-6.014-1.248c-5.367-1.609-8.4-2.3-9.652-4.059-1.654-2.36,1.5-3.714,1.5-3.714s-3.7-2.15-2.842-4.51a2.421,2.421,0,0,1,2.481-1.413s-3.217-2.06-3.623-3.653c-.556-2.165,2.12-2.736,2.12-2.736-4.18-3.879-3.172-6.705-2.015-6.765s4.51,2.36,4.51,2.36c3.007,1.5,11.005,5.818,8.765.466s-1.954-10.3-.947-11.592a1.819,1.819,0,0,1,3.112,1.5,21.53,21.53,0,0,0,1.188,5.728,13.877,13.877,0,0,0,2.15,4.165,45.664,45.664,0,0,0,3.007,3.653l4.345,6.224Z" transform="translate(-212.4 -114.623)" fill="#ffbe9d"/>
        <path id="Path_50053" data-name="Path 50053" d="M322.5,452.385l5.172-10.915,20.507,9.562-7.4,16.042-1.308-.511c-5.8-2.33-29.347-12.223-32.595-15.14C303.259,448.175,322.5,452.385,322.5,452.385Z" transform="translate(-219.156 -1.377)" fill="#0091ff"/>
        <g id="Group_4681" data-name="Group 4681" transform="translate(114.262 458.694)" opacity="0.3">
          <path id="Path_50054" data-name="Path 50054" d="M324.38,457.207a7.863,7.863,0,0,1,4.661-3.142,7.517,7.517,0,0,1,5.488.737l-2.676,5.728Z" transform="translate(-324.38 -453.842)" fill="#fff"/>
        </g>
        <g id="Group_4682" data-name="Group 4682" transform="translate(87.161 448.842)" opacity="0.3">
          <path id="Path_50055" data-name="Path 50055" d="M312.993,447.7s-6.916-1.082-6.63.286,23.709,12.253,34.459,16.162l.18-.481-27.423-12.479S314.166,448.358,312.993,447.7Z" transform="translate(-306.354 -447.29)" fill="#fff"/>
        </g>
        <path id="Path_50056" data-name="Path 50056" d="M341.265,463.682l-.361-.12-1.037-.406-3.8-1.579c-3.2-1.353-7.607-3.278-12.4-5.518s-9.126-4.345-12.223-5.924l-3.653-1.894-.977-.526-.346-.2a1.338,1.338,0,0,1,.361.15l1.007.481,3.7,1.819c3.112,1.5,7.442,3.608,12.238,5.848s9.186,4.18,12.373,5.578l3.759,1.654,1.022.451Z" transform="translate(-219.14 1.668)" fill="#263238"/>
        <path id="Path_50057" data-name="Path 50057" d="M311.231,451.469a9.732,9.732,0,0,0,.12-2.09,9.44,9.44,0,0,0-.6-2.03A3.713,3.713,0,0,1,311.231,451.469Z" transform="translate(-216.98 1.583)" fill="#263238"/>
        <path id="Path_50058" data-name="Path 50058" d="M316.118,450.67a2.6,2.6,0,0,1-.286-1.1,2.332,2.332,0,0,1,0-1.113,4.508,4.508,0,0,1,.271,1.082A2.3,2.3,0,0,1,316.118,450.67Z" transform="translate(-214.455 2.142)" fill="#263238"/>
        <path id="Path_50059" data-name="Path 50059" d="M317.68,450.445a2.005,2.005,0,0,1-.511-.827c-.21-.481-.316-.887-.241-.917s.3.331.5.812A1.894,1.894,0,0,1,317.68,450.445Z" transform="translate(-213.882 2.262)" fill="#263238"/>
        <path id="Path_50060" data-name="Path 50060" d="M319.43,449.218c0,.075-.526-.09-1.128-.361a2.841,2.841,0,0,1-1.022-.6c0-.075.541.09,1.128.361A2.842,2.842,0,0,1,319.43,449.218Z" transform="translate(-213.692 2.03)" fill="#263238"/>
        <path id="Path_50061" data-name="Path 50061" d="M320.221,448.417a2.329,2.329,0,0,1-1.368-.211,2.285,2.285,0,0,1-1.143-.737,7.024,7.024,0,0,1,1.248.481,7.91,7.91,0,0,1,1.263.466Z" transform="translate(-213.476 1.643)" fill="#263238"/>
        <path id="Path_50062" data-name="Path 50062" d="M317.25,449.618a4.3,4.3,0,0,1-1.308-.616,8.044,8.044,0,0,1-1.263-.962,4.257,4.257,0,0,1-.632-.707.782.782,0,0,1-.135-.556.541.541,0,0,1,.436-.436,2.706,2.706,0,0,1,2.691,3.172.946.946,0,0,1-.135.376,4.508,4.508,0,0,0-.075-1.413,2.706,2.706,0,0,0-.782-1.248,2.255,2.255,0,0,0-1.624-.631c-.286,0-.316.346-.15.6a4.135,4.135,0,0,0,.6.662,10.382,10.382,0,0,0,1.188.977C316.769,449.347,317.265,449.572,317.25,449.618Z" transform="translate(-215.391 1.074)" fill="#263238"/>
        <path id="Path_50063" data-name="Path 50063" d="M315.881,449.147a1.5,1.5,0,0,1,.286-.992,2.511,2.511,0,0,1,.8-.8,1.5,1.5,0,0,1,1.413-.15.586.586,0,0,1,.12.8,1.5,1.5,0,0,1-.5.481,4.166,4.166,0,0,1-.992.511,2.121,2.121,0,0,1-1.007.18s.376-.12.932-.361a4.287,4.287,0,0,0,.917-.541c.316-.2.677-.631.376-.842s-.812,0-1.128.15a2.526,2.526,0,0,0-.782.677,8.5,8.5,0,0,0-.436.887Z" transform="translate(-214.398 1.455)" fill="#263238"/>
        <path id="Path_50064" data-name="Path 50064" d="M334.4,454.839a8.429,8.429,0,0,0-1.5-.646,7.307,7.307,0,0,0-3.939-.18,7.518,7.518,0,0,0-3.428,1.955c-.722.737-1.022,1.308-1.068,1.293a1.173,1.173,0,0,1,.2-.421,5.462,5.462,0,0,1,.737-1.007,7.021,7.021,0,0,1,3.5-2.09,6.93,6.93,0,0,1,4.059.271,5.911,5.911,0,0,1,1.112.541C334.293,454.719,334.413,454.824,334.4,454.839Z" transform="translate(-210.078 4.708)" fill="#263238"/>
        <path id="Path_50065" data-name="Path 50065" d="M333.579,448.08a36.752,36.752,0,0,1-1.774,4.285,40.508,40.508,0,0,1-2.045,4.195,41.915,41.915,0,0,1,1.789-4.3,41.126,41.126,0,0,1,2.03-4.18Z" transform="translate(-207.409 1.95)" fill="#263238"/>
        <path id="Path_50066" data-name="Path 50066" d="M325.294,454.918a13.955,13.955,0,0,1-3.127-1.1,13.651,13.651,0,0,1-2.887-1.639c0-.075,1.338.631,3.007,1.383A22.372,22.372,0,0,1,325.294,454.918Z" transform="translate(-212.685 4.013)" fill="#263238"/>
        <path id="Path_50067" data-name="Path 50067" d="M326.364,455.211s-.241.225-.526.466-.481.481-.541.451,0-.376.361-.662S326.364,455.136,326.364,455.211Z" transform="translate(-209.667 5.524)" fill="#263238"/>
        <path id="Path_50068" data-name="Path 50068" d="M327.928,454.421a1.59,1.59,0,0,1-.511.346c-.3.12-.586.15-.616.075s.211-.225.511-.331S327.9,454.346,327.928,454.421Z" transform="translate(-208.9 5.126)" fill="#263238"/>
        <path id="Path_50069" data-name="Path 50069" d="M329.709,454.623a5.116,5.116,0,0,0-.677-.105,4.177,4.177,0,0,0-.661,0,.838.838,0,0,1,.692-.225C329.483,454.337,329.754,454.562,329.709,454.623Z" transform="translate(-208.11 5.075)" fill="#263238"/>
        <path id="Path_50070" data-name="Path 50070" d="M330.652,454.776a.627.627,0,0,1-.376.105c-.21-.015-.361-.09-.346-.165s.165-.12.376-.105S330.652,454.7,330.652,454.776Z" transform="translate(-207.324 5.237)" fill="#263238"/>
        <path id="Path_50071" data-name="Path 50071" d="M436.06,459.6l-5.112-10.945L451.38,439l7.653,15.922-1.233.692c-5.488,3.007-28.114,14.809-32.429,15.455C420.559,471.745,436.06,459.6,436.06,459.6Z" transform="translate(-159.741 -2.621)" fill="#0091ff"/>
        <g id="Group_4683" data-name="Group 4683" transform="translate(291.515 446.272)" opacity="0.3">
          <path id="Path_50072" data-name="Path 50072" d="M442.567,454.916a7.758,7.758,0,0,1,.541-5.593,7.607,7.607,0,0,1,4.059-3.744l2.721,5.7Z" transform="translate(-442.277 -445.58)" fill="#fff"/>
        </g>
        <g id="Group_4684" data-name="Group 4684" transform="translate(264.69 451.819)" opacity="0.3">
          <path id="Path_50073" data-name="Path 50073" d="M428.637,460.666s-5.247,4.646-4.014,5.292,24.551-10.524,34.414-16.252l-.256-.436-27.062,13.17S429.795,460.155,428.637,460.666Z" transform="translate(-424.435 -449.27)" fill="#fff"/>
        </g>
        <path id="Path_50074" data-name="Path 50074" d="M459.089,449.16l-.331.2-.977.541-3.638,1.924c-3.082,1.609-7.367,3.774-12.163,6.014s-9.156,4.24-12.343,5.623l-3.789,1.624-1.037.421-.361.12.346-.18,1.007-.466,3.759-1.684c3.157-1.428,7.517-3.428,12.313-5.713s9.021-4.405,12.178-6.014l3.668-1.849,1.007-.5a1.605,1.605,0,0,1,.361-.06Z" transform="translate(-159.738 2.494)" fill="#263238"/>
        <path id="Path_50075" data-name="Path 50075" d="M430.523,459.02a5.572,5.572,0,0,0-3.443-2.33,3.729,3.729,0,0,1,3.488,2.27Z" transform="translate(-158.414 6.285)" fill="#263238"/>
        <path id="Path_50076" data-name="Path 50076" d="M433.046,454.7a4.731,4.731,0,0,1-1.022-.481c-.526-.331-.917-.647-.872-.707s.5.15,1.022.481S433.076,454.641,433.046,454.7Z" transform="translate(-156.366 4.681)" fill="#263238"/>
        <path id="Path_50077" data-name="Path 50077" d="M433.839,453.374c0,.075-.451,0-.947-.135s-.887-.331-.872-.406a1.986,1.986,0,0,1,.947.15C433.494,453.088,433.854,453.3,433.839,453.374Z" transform="translate(-155.927 4.339)" fill="#263238"/>
        <path id="Path_50078" data-name="Path 50078" d="M434.035,451.586a2.961,2.961,0,0,1-1.007.646c-.586.286-1.082.466-1.128.391a2.842,2.842,0,0,1,1.007-.646C433.554,451.691,433.99,451.511,434.035,451.586Z" transform="translate(-155.987 3.707)" fill="#263238"/>
        <path id="Path_50079" data-name="Path 50079" d="M433.9,450.56a3.081,3.081,0,0,1-1.022.917,2.466,2.466,0,0,1-1.308.421q1.175-.651,2.33-1.338Z" transform="translate(-156.153 3.199)" fill="#263238"/>
        <path id="Path_50080" data-name="Path 50080" d="M432.845,453.632a3.925,3.925,0,0,1-1.308.616,7.854,7.854,0,0,1-1.5.361,3.981,3.981,0,0,1-.962,0,.721.721,0,0,1-.511-.256.572.572,0,0,1,0-.616,2.676,2.676,0,0,1,3.323-.707,2.768,2.768,0,0,1,.842.677.886.886,0,0,1,.2.331,4.105,4.105,0,0,0-1.128-.827,2.526,2.526,0,0,0-1.5-.2,2.225,2.225,0,0,0-1.5.842c-.135.256,0,.466.361.5a4.4,4.4,0,0,0,.887,0,9.141,9.141,0,0,0,1.5-.286C432.274,453.827,432.83,453.6,432.845,453.632Z" transform="translate(-157.714 4.292)" fill="#263238"/>
        <path id="Path_50081" data-name="Path 50081" d="M431.42,454.542a1.513,1.513,0,0,1-.586-.842,2.436,2.436,0,0,1-.105-1.128,1.5,1.5,0,0,1,.782-1.188.586.586,0,0,1,.691.421,1.593,1.593,0,0,1,0,.692,4.088,4.088,0,0,1-.256,1.083c-.211.6-.466.917-.5.887s.15-.361.316-.947a4.783,4.783,0,0,0,.18-1.037c0-.376-.075-.932-.421-.827s-.526.616-.6.962a2.361,2.361,0,0,0,0,1.037,4.209,4.209,0,0,0,.5.887Z" transform="translate(-156.589 3.607)" fill="#263238"/>
        <path id="Path_50082" data-name="Path 50082" d="M447.135,445.574a9.687,9.687,0,0,0-1.5.782,7.051,7.051,0,0,0-2.616,2.872,7.292,7.292,0,0,0-.677,3.879c.105,1.037.346,1.639.3,1.654a1.5,1.5,0,0,1-.2-.421,5.517,5.517,0,0,1-.3-1.2,7.035,7.035,0,0,1,.616-4.029,6.886,6.886,0,0,1,2.8-3.007,5.642,5.642,0,0,1,1.143-.511,1.337,1.337,0,0,1,.436-.015Z" transform="translate(-150.866 0.683)" fill="#263238"/>
        <path id="Path_50083" data-name="Path 50083" d="M441.35,440.59a41.654,41.654,0,0,1,2.165,4.1,39.734,39.734,0,0,1,1.924,4.24,40.932,40.932,0,0,1-2.165-4.119,35.614,35.614,0,0,1-1.924-4.225Z" transform="translate(-151.229 -1.82)" fill="#263238"/>
        <path id="Path_50084" data-name="Path 50084" d="M442.119,451.281A12.819,12.819,0,0,1,439.277,453a12.6,12.6,0,0,1-3.1,1.188s1.338-.632,3.007-1.428S442.074,451.221,442.119,451.281Z" transform="translate(-153.832 3.56)" fill="#263238"/>
        <path id="Path_50085" data-name="Path 50085" d="M442.881,450v.707c0,.361.075.677,0,.707s-.271-.271-.271-.692S442.805,450,442.881,450Z" transform="translate(-150.595 2.917)" fill="#263238"/>
        <path id="Path_50086" data-name="Path 50086" d="M443.34,448.291c.075,0,0,.3-.075.616s-.256.541-.316.526,0-.3,0-.616S443.265,448.261,443.34,448.291Z" transform="translate(-150.438 2.055)" fill="#263238"/>
        <path id="Path_50087" data-name="Path 50087" d="M444.691,447c0,.075-.256.21-.5.451s-.391.511-.466.5,0-.391.271-.692A.88.88,0,0,1,444.691,447Z" transform="translate(-150.046 1.406)" fill="#263238"/>
        <path id="Path_50088" data-name="Path 50088" d="M445.439,446.287a.56.56,0,0,1-.15.361c-.15.15-.3.21-.361.165s0-.21.15-.361S445.379,446.227,445.439,446.287Z" transform="translate(-149.44 1.037)" fill="#263238"/>
        <path id="Path_50089" data-name="Path 50089" d="M484.147,515.177l-33.076,15.38L391.595,424.67c-7.743-27.934-15.215-126.29-15.215-126.29l43.029,3.278s6.63,70.662,17.019,106.985Z" transform="translate(-183.938 -73.416)" fill="#263238"/>
        <path id="Path_50090" data-name="Path 50090" d="M422.54,451.136a10.236,10.236,0,0,1,1.248-.752c.827-.436,2.045-1.052,3.548-1.789,3.007-1.5,7.2-3.473,11.847-5.638s8.855-4.074,11.922-5.412c1.5-.677,2.8-1.218,3.653-1.5a5.413,5.413,0,0,1,1.383-.481,5.1,5.1,0,0,1-1.248.752c-.842.436-2.045,1.052-3.548,1.789-3.007,1.5-7.2,3.473-11.832,5.638s-8.855,4.059-11.937,5.412c-1.5.677-2.781,1.218-3.653,1.5a5.218,5.218,0,0,1-1.383.481Z" transform="translate(-160.699 -4.353)" fill="#455a64"/>
        <path id="Path_50091" data-name="Path 50091" d="M470.238,272.05c.812,0,9.607,26.055,1.143,43.329-.857,1.729-7.517,11.246-7.517,11.246-23.424,27.633-47.148,81.186-53.763,95.3-13.531,28.881-63.686,123.884-63.686,123.884L314.24,527.4l47.043-120.952,42.7-109.15Z" transform="translate(-215.223 -86.672)" fill="#263238"/>
        <path id="Path_50092" data-name="Path 50092" d="M389.413,348.706s-2.27,10.99-3.443,10.359c-3.353-1.819-26.4-10.4-26.4-10.4l6.224-6.9Z" transform="translate(-192.401 -51.576)" fill="#455a64"/>
        <path id="Path_50093" data-name="Path 50093" d="M383.942,354.577s-4.315,17.726-9.863,16.763-17.139-6.8-17.139-6.8l6.991-17.485Z" transform="translate(-193.726 -48.908)" fill="#455a64"/>
        <path id="Path_50094" data-name="Path 50094" d="M385.744,356.714,360.02,346.43l1.233,3.774,20.372,7.457Z" transform="translate(-192.175 -49.225)" fill="#263238"/>
        <path id="Path_50095" data-name="Path 50095" d="M419.094,317.6a2.817,2.817,0,0,1-.421.661l-1.323,1.789c-1.143,1.5-2.766,3.849-4.646,6.75-3.774,5.8-8.525,14.1-13.381,23.484s-9.021,18.041-11.952,24.266l-3.533,7.412-.977,2a3.34,3.34,0,0,1-.391.677,3.006,3.006,0,0,1,.241-.737l.857-2.06c.752-1.789,1.879-4.36,3.293-7.517,2.857-6.314,6.886-15.034,11.772-24.4A241.552,241.552,0,0,1,412.163,326.5c1.954-2.872,3.638-5.127,4.871-6.63.571-.692,1.052-1.248,1.5-1.7A3.16,3.16,0,0,1,419.094,317.6Z" transform="translate(-180.872 -63.74)" fill="#455a64"/>
        <path id="Path_50096" data-name="Path 50096" d="M315.87,438.142c.09-.18,7.683,3.428,16.959,8.074s16.7,8.585,16.538,8.78-7.683-3.428-16.959-8.074S315.78,438.338,315.87,438.142Z" transform="translate(-214.403 -3.056)" fill="#455a64"/>
        <path id="Path_50097" data-name="Path 50097" d="M345.5,230.63a108.5,108.5,0,0,1-5.924,11.471,103.323,103.323,0,0,1-6.615,11.1,110.2,110.2,0,0,1,5.924-11.486,108.352,108.352,0,0,1,6.615-11.08Z" transform="translate(-205.798 -107.525)" fill="#263238"/>
        <path id="Path_50098" data-name="Path 50098" d="M407.627,200.2c1.759,0,3.849,12.779,5.623,35.737,2.015,26.04,1.834,52.32-5.367,68.843a14.343,14.343,0,0,1-7.517,8.013c-18.643,7.7-70.076-47.449-70.076-47.449l12.659-22.206,36.218,29.242s3.608-29.588,2.917-43.224C381.528,218.813,391.856,200.32,407.627,200.2Z" transform="translate(-207.142 -122.845)" fill="#455a64"/>
        <path id="Path_50099" data-name="Path 50099" d="M404.866,200.481s31.452,4.6,39.586,16.959S448.466,338.8,448.466,338.8l-80.856,4.781s6.525-138.738,10.524-140.317C388.177,199.323,403.663,200.09,404.866,200.481Z" transform="translate(-188.354 -122.87)" fill="#455a64"/>
        <path id="Path_50100" data-name="Path 50100" d="M335.445,187.1a19.411,19.411,0,0,1,1.789-9.622,9.578,9.578,0,0,0,.962-4.119V169.71H291.063a7.232,7.232,0,0,0-7.232,7.232v46.938h-3.187a9.682,9.682,0,0,1-4.24-1.022,19.545,19.545,0,1,0-.6,35.5,9.713,9.713,0,0,1,3.954-.872h4.134v45.765a7.232,7.232,0,0,0,7.232,7.247H418.45a5.894,5.894,0,0,0,5.894-5.894v-129a5.879,5.879,0,0,0-5.894-5.894H372.445v5.217a9.11,9.11,0,0,0,.692,3.518,19.545,19.545,0,1,1-37.586,8.66Z" transform="translate(-248.38 -138.195)" fill="#0091ff"/>
        <path id="Path_50101" data-name="Path 50101" d="M372.423,215.79a6.206,6.206,0,0,1,.075.9v2.6c0,2.36,0,5.608.12,9.562,0,8.074.135,19.229-.12,31.572s-.932,23.484-1.759,31.572c-.421,4.029-.827,7.262-1.158,9.5-.165,1.052-.3,1.894-.421,2.571a3.144,3.144,0,0,1-.2.887,6.752,6.752,0,0,1,0-.9c.075-.677.15-1.5.271-2.586.225-2.255.556-5.5.9-9.517.692-8.043,1.308-19.169,1.5-31.482s.241-23.454.346-31.572c0-3.954.105-7.2.135-9.562a25.978,25.978,0,0,1,.075-2.6,3.627,3.627,0,0,1,.226-.947Z" transform="translate(-187.679 -114.996)" fill="#263238"/>
        <path id="Path_50102" data-name="Path 50102" d="M406.689,166.19c-1.293,8.209-1.218,15.41,2.8,20.763a31.217,31.217,0,0,1,2.406,3.247,4.946,4.946,0,0,1,.616,3.879,3.428,3.428,0,0,1-5.863,1.188,4.721,4.721,0,0,1-2.3,4.736,3.007,3.007,0,0,1-4.21-2.165s1.067,4.165-3.714,3.518l3.368-28.566Z" transform="translate(-173.849 -139.967)" fill="#263238"/>
        <path id="Path_50103" data-name="Path 50103" d="M396.725,232.387h0a13.306,13.306,0,0,1-13.23-14.7c.436-4.27.827-7.743.827-7.743S373.8,208.3,373.662,197.778s1.7-34.685,1.7-34.685h0a36.579,36.579,0,0,1,36.744,4.631l1.5,1.188-3.653,51.117A13.306,13.306,0,0,1,396.725,232.387Z" transform="translate(-185.31 -143.019)" fill="#ffbe9d"/>
        <path id="Path_50104" data-name="Path 50104" d="M377.436,175.612a1.5,1.5,0,1,0-1.1.4A1.5,1.5,0,0,0,377.436,175.612Z" transform="translate(-184.679 -136.535)" fill="#263238"/>
        <path id="Path_50105" data-name="Path 50105" d="M374.656,173.029c.165.18,1.2-.616,2.646-.616s2.511.737,2.661.556-.075-.406-.541-.767a3.488,3.488,0,0,0-2.12-.662,3.594,3.594,0,0,0-2.12.692C374.731,172.623,374.581,172.953,374.656,173.029Z" transform="translate(-184.816 -137.274)" fill="#263238"/>
        <path id="Path_50106" data-name="Path 50106" d="M386.007,174.078a1.5,1.5,0,1,0,1.149-.191A1.5,1.5,0,0,0,386.007,174.078Z" transform="translate(-179.464 -136.113)" fill="#263238"/>
        <path id="Path_50107" data-name="Path 50107" d="M385.126,173.879c.165.18,1.2-.616,2.646-.616s2.511.737,2.661.556-.09-.406-.541-.767a3.5,3.5,0,0,0-2.135-.662,3.443,3.443,0,0,0-2.1.722C385.2,173.473,385.051,173.8,385.126,173.879Z" transform="translate(-179.545 -136.846)" fill="#263238"/>
        <path id="Path_50108" data-name="Path 50108" d="M382.516,185.569a7.715,7.715,0,0,0-2.345-.5c-.376,0-.676-.12-.707-.331a1.97,1.97,0,0,1,.271-1.082l1.143-3.007a39.421,39.421,0,0,0,2.481-7.743,40.788,40.788,0,0,0-3.247,7.517c-.376,1.022-.737,2-1.082,3.007a2.345,2.345,0,0,0-.211,1.579.977.977,0,0,0,.646.6,2.872,2.872,0,0,0,.647.09A7.052,7.052,0,0,0,382.516,185.569Z" transform="translate(-182.738 -136.584)" fill="#263238"/>
        <path id="Path_50109" data-name="Path 50109" d="M386.771,182.455c1.5-.9-4.165,2.21-7.111,2.06a4,4,0,0,0,4.721,1.594C387.538,184.951,386.771,182.455,386.771,182.455Z" transform="translate(-182.287 -131.861)" fill="#fff"/>
        <path id="Path_50110" data-name="Path 50110" d="M380.7,194.469a24.416,24.416,0,0,0,13.711-3.909s-3.247,7.517-13.742,6.63Z" transform="translate(-181.779 -127.698)" fill="#eb996e"/>
        <path id="Path_50111" data-name="Path 50111" d="M401.3,172.76c.226-.075,7.848-.6,6.585,8.269s-9.8,4.661-9.787,4.405S401.3,172.76,401.3,172.76Z" transform="translate(-173.004 -136.675)" fill="#ffbe9d"/>
        <path id="Path_50112" data-name="Path 50112" d="M400.2,181.647a2.113,2.113,0,0,0,.391.286,1.5,1.5,0,0,0,1.143.2,3.864,3.864,0,0,0,2.255-3.187,4.962,4.962,0,0,0-.105-2.27,1.819,1.819,0,0,0-.992-1.353.782.782,0,0,0-.977.3c-.15.226-.12.406-.18.421s-.165-.18,0-.526a.933.933,0,0,1,.436-.511,1.113,1.113,0,0,1,.887-.105,2.18,2.18,0,0,1,1.353,1.684,5.1,5.1,0,0,1,.18,2.541,4.044,4.044,0,0,1-2.8,3.518,1.7,1.7,0,0,1-1.383-.436C400.189,181.857,400.174,181.662,400.2,181.647Z" transform="translate(-171.95 -135.608)" fill="#eb996e"/>
        <path id="Path_50113" data-name="Path 50113" d="M372.918,167.815a3.458,3.458,0,0,1,3.939-2.826,3.954,3.954,0,1,1,2.616-7.171,11.774,11.774,0,0,1-2.766-3.954,3.969,3.969,0,0,1,1.022-4.51,4.511,4.511,0,0,1,4.51,0c2.165,1.1,3.8,3.082,6.014,4.014s4.811.707,7.262.962a12.945,12.945,0,0,1,7.382,3.082,8.705,8.705,0,0,1,3.007,7.247c3.323-.2,6.961,0,9.532,2.06a7.638,7.638,0,0,1,2.887-7.141,9.742,9.742,0,0,1,9.457-.932,5.488,5.488,0,0,1,3.263,3.007c.677,2.03-.6,4.21-2.21,5.623a12.614,12.614,0,0,1-11.05,2.661,11.47,11.47,0,0,1,.752,4.931c-.165,2.9-2.5,5.909-3.518,8.63h0l-.225,1.789-1.744,7.442-4.661-.376,1.278-15.636s.872-6.57-4.841-6.345-13.817,6.164-24.762,3.864a12.178,12.178,0,0,1-5.052-1.789,5.112,5.112,0,0,1-2.09-4.631Z" transform="translate(-185.693 -148.748)" fill="#263238"/>
        <path id="Path_50114" data-name="Path 50114" d="M419.465,168.845a6.675,6.675,0,0,1-3.007,1.293,11.907,11.907,0,0,1-13.441-6.6,6.661,6.661,0,0,1-.827-3.187c.135,0,.376,1.218,1.323,3.007a12.268,12.268,0,0,0,12.839,6.3C418.277,169.265,419.4,168.694,419.465,168.845Z" transform="translate(-170.944 -142.907)" fill="#263238"/>
        <path id="Path_50115" data-name="Path 50115" d="M408.229,176.674c-.12,0,0-.932-.271-2.315a16.086,16.086,0,0,0-2.18-5.082,42.823,42.823,0,0,1-2.857-4.961,4.841,4.841,0,0,1-.6-2.315,14.738,14.738,0,0,1,1.1,2.075c.677,1.263,1.834,2.887,3.007,4.8a13.35,13.35,0,0,1,2.075,5.4,3.789,3.789,0,0,1-.271,2.405Z" transform="translate(-170.879 -142.076)" fill="#263238"/>
        <path id="Path_50116" data-name="Path 50116" d="M361.239,240.324a167.217,167.217,0,0,1-15.14-10.389c-5.818-4.916-5.4-5.458-4.721-6.014,1.8-1.609,10.524,8.269,9.878,5.022s-12.028-10.795-10.1-12.388c2.556-2.09,11.516,8.419,12.343,9.246s2.03-.361,1.248-1.067c-1.128-1.022-12.674-12.028-10.193-14.1,1.383-1.158,3.157,1.579,3.157,1.579s10.073,11.141,11.216,10.118-4.51-7.773-6.615-9.908-1.909-3.954-.241-4.119c1.128-.105,7.638,6.269,9.652,8.419s7.4,8.179,7.1,3.007,1.353-9.291,2.556-10.088,2.721.646,2.15,2.15a19.1,19.1,0,0,0-.662,5.2,12.632,12.632,0,0,0,.571,4.165c.361,1.158.722,2.18,1.067,3.082l3.533,9.727-8.87,11.231Z" transform="translate(-201.784 -118.767)" fill="#ffbe9d"/>
        <path id="Path_50117" data-name="Path 50117" d="M442.54,207.7c1.864.466,12.96,6.209,13.14,31.362.135,20-1.4,64.378-15.034,70.978-6.179,3.007-15.561,3.007-23.709-2.33-22.973-14.839-63.656-62.679-63.656-62.679l18.207-19.394s47.268,48.11,49.283,46.336c3.007-2.676-1.609-25.649.977-48.351C423.521,207.473,431.038,204.826,442.54,207.7Z" transform="translate(-195.568 -119.578)" fill="#455a64"/>
        <path id="Path_50118" data-name="Path 50118" d="M371.442,219.75a1.773,1.773,0,0,1-.316.331l-.977.962c-.857.827-2.12,2.06-3.714,3.714a127.815,127.815,0,0,0-12.479,15.035v-.346c12.84,13.1,31.572,32.144,52.365,53.327a41.074,41.074,0,0,0,17.44,9.848,21.048,21.048,0,0,0,9.457.421,18.3,18.3,0,0,0,8.074-4.074,31.452,31.452,0,0,0,8.915-14.268,76.468,76.468,0,0,0,2.887-14.644c1.218-9.021,1.864-16.538,2.15-21.6.15-2.556.225-4.51.286-5.894v-1.5a2.167,2.167,0,0,1,0-.511,2.033,2.033,0,0,1,0,.526c0,.376,0,.887,0,1.5,0,1.353,0,3.338-.135,5.909-.2,5.127-.752,12.554-1.909,21.665a76.5,76.5,0,0,1-2.811,14.779,32.129,32.129,0,0,1-9.021,14.614,18.945,18.945,0,0,1-8.389,4.255,21.815,21.815,0,0,1-9.787-.421,41.675,41.675,0,0,1-17.8-10.013c-20.868-21.214-39.451-40.4-52.2-53.523l-.165-.165.135-.18a122.094,122.094,0,0,1,12.689-14.929c1.639-1.609,3.007-2.811,3.834-3.623l1.022-.887Z" transform="translate(-195.553 -113.002)" fill="#263238"/>
        <path id="Path_50119" data-name="Path 50119" d="M365.381,225.681s.105,0,.256.21l.707.707,2.691,2.721c2.33,2.375,5.743,5.773,10.028,9.938s9.457,9.126,15.29,14.568l9.2,8.525c3.232,2.917,6.57,6.014,10.148,8.931l-.616.3c.105-1.774.211-3.653.316-5.548.6-9.938,1.158-19.41,1.669-28.024.316-4.3.391-8.4.857-12.238a30.07,30.07,0,0,1,2.917-10.314,17.215,17.215,0,0,1,5.773-6.675,13.4,13.4,0,0,1,6.315-2.15,10.358,10.358,0,0,1,4.18.511,5.383,5.383,0,0,1,1.338.6,12.96,12.96,0,0,0-1.383-.451,10.944,10.944,0,0,0-4.12-.361,13.351,13.351,0,0,0-6.089,2.21,17.336,17.336,0,0,0-5.533,6.57,30.235,30.235,0,0,0-2.766,10.133c-.421,3.789-.466,7.893-.767,12.193l-1.609,28.024c-.105,1.894-.226,3.789-.316,5.548v.767l-.586-.466c-3.668-3.007-6.946-6.014-10.178-9.021s-6.269-5.833-9.186-8.57c-5.8-5.488-10.945-10.524-15.185-14.689s-7.592-7.7-9.863-10.133c-1.158-1.2-2-2.165-2.586-2.826l-.646-.737C365.441,225.771,365.366,225.681,365.381,225.681Z" transform="translate(-189.477 -119.624)" fill="#263238"/>
        <path id="Path_50120" data-name="Path 50120" d="M358.62,244.332a18.286,18.286,0,0,1,2.3-3.217c1.5-1.909,3.638-4.51,6.089-7.322s4.721-5.292,6.4-7.051a19.186,19.186,0,0,1,2.872-2.721,20.584,20.584,0,0,1-2.466,3.1L367.6,234.3l-6.254,7.171a20.855,20.855,0,0,1-2.721,2.857Z" transform="translate(-192.88 -110.852)" fill="#263238"/>
        <path id="Path_50121" data-name="Path 50121" d="M401.7,261.2a34.821,34.821,0,0,1-2.285-5.728,35.558,35.558,0,0,1-2.045-5.818A29.917,29.917,0,0,1,401.7,261.2Z" transform="translate(-173.371 -97.949)" fill="#263238"/>
        <path id="Path_50122" data-name="Path 50122" d="M406.066,258.014a24.869,24.869,0,0,1-4.841-3.894,25.831,25.831,0,0,1-4.315-4.51A48.9,48.9,0,0,1,406.066,258.014Z" transform="translate(-173.603 -97.969)" fill="#263238"/>
      </g>
      <g id="freepik--character-1--inject-182" transform="translate(76.921 192.269)">
        <path id="Path_50123" data-name="Path 50123" d="M124.081,412.8,75.79,456.384,62.56,439.455l42.322-52.425Z" transform="translate(-56.441 -28.839)" fill="#ffbe9d"/>
        <path id="Path_50124" data-name="Path 50124" d="M78.952,441.021l1.654-1.5L65.361,420.8l-6.871,6.014.917,1.173c4.1,5.217,21.259,26.235,25.2,28.671C88.995,459.363,78.952,441.021,78.952,441.021Z" transform="translate(-58.49 -11.838)" fill="#0091ff"/>
        <g id="Group_4685" data-name="Group 4685" transform="translate(0.271 410.33)" opacity="0.5">
          <path id="Path_50125" data-name="Path 50125" d="M64.308,432.76a8.269,8.269,0,0,0,1.8-5.683,8,8,0,0,0-2.406-5.367l-5.037,4.51Z" transform="translate(-58.67 -421.71)" fill="#fff"/>
        </g>
        <path id="Path_50126" data-name="Path 50126" d="M83.6,448.319s3.187,6.736,1.7,6.841S65.752,434.683,58.49,424.911l.436-.331L79.869,448.77S82.62,447.312,83.6,448.319Z" transform="translate(-58.49 -9.935)" fill="#fff" opacity="0.5"/>
        <path id="Path_50127" data-name="Path 50127" d="M58.62,424.39a1.879,1.879,0,0,0,.241.331l.722.947,2.751,3.4c2.33,2.857,5.623,6.75,9.336,10.975s7.171,7.983,9.712,10.675l3.007,3.157.827.842a1.989,1.989,0,0,0,.316.286l-.271-.331-.8-.872c-.8-.887-1.789-1.954-3.007-3.217-2.5-2.721-5.924-6.495-9.637-10.72s-7.021-8.1-9.412-10.93L59.6,425.593l-.767-.9a1.715,1.715,0,0,0-.211-.3Z" transform="translate(-58.425 -10.03)" fill="#263238"/>
        <path id="Path_50128" data-name="Path 50128" d="M72.52,441.218a9.23,9.23,0,0,1,2.1-.767,9.859,9.859,0,0,1,2.24,0,3.187,3.187,0,0,0-2.285-.3,3.247,3.247,0,0,0-2.06,1.067Z" transform="translate(-51.427 -2.141)" fill="#263238"/>
        <path id="Path_50129" data-name="Path 50129" d="M71.2,435.827a2.571,2.571,0,0,0,1.188,0c.647-.09,1.158-.24,1.143-.331a4.887,4.887,0,0,0-2.33.376Z" transform="translate(-52.091 -4.448)" fill="#263238"/>
        <path id="Path_50130" data-name="Path 50130" d="M70.86,434.309a3.448,3.448,0,0,0,.977.256,4.892,4.892,0,0,0,1.022,0,3.455,3.455,0,0,0-.992-.256C71.311,434.249,70.86,434.219,70.86,434.309Z" transform="translate(-52.262 -5.065)" fill="#263238"/>
        <path id="Path_50131" data-name="Path 50131" d="M71.45,432.682a5.721,5.721,0,0,0,.707,1.037c.451.526.872.917.932.857s-.256-.511-.722-1.037S71.51,432.622,71.45,432.682Z" transform="translate(-51.965 -5.859)" fill="#263238"/>
        <path id="Path_50132" data-name="Path 50132" d="M72.06,431.76a2.36,2.36,0,0,0,.616,1.323c.5.647,1.052,1.022,1.1.962a10.607,10.607,0,0,0-.857-1.143,9.021,9.021,0,0,0-.857-1.143Z" transform="translate(-51.658 -6.32)" fill="#263238"/>
        <path id="Path_50133" data-name="Path 50133" d="M72.655,435.226a4.405,4.405,0,0,0,1.037,1.143,8.108,8.108,0,0,0,1.353.992,3.474,3.474,0,0,0,.917.451.842.842,0,0,0,.6,0,.6.6,0,0,0,.316-.586,2.872,2.872,0,0,0-4.044-1.774,1.068,1.068,0,0,0-.346.256,4.044,4.044,0,0,1,1.5-.346,2.782,2.782,0,0,1,1.5.421,2.36,2.36,0,0,1,1.113,1.5c0,.3-.241.421-.541.331a5.592,5.592,0,0,1-.857-.406,11.326,11.326,0,0,1-1.368-.917A15.264,15.264,0,0,0,72.655,435.226Z" transform="translate(-51.442 -4.614)" fill="#263238"/>
        <path id="Path_50134" data-name="Path 50134" d="M72.809,436.521a1.5,1.5,0,0,0,.917-.571,2.5,2.5,0,0,0,.571-1.067,1.5,1.5,0,0,0-.256-1.5.631.631,0,0,0-.857.12,1.8,1.8,0,0,0-.346.647,4.616,4.616,0,0,0-.21,1.173,2.12,2.12,0,0,0,.105,1.067,7.324,7.324,0,0,0,.09-1.052,6.435,6.435,0,0,1,.271-1.1c.105-.376.451-.872.767-.632a1.5,1.5,0,0,1,.18,1.2,2.541,2.541,0,0,1-.466.992A6.3,6.3,0,0,1,72.809,436.521Z" transform="translate(-51.385 -5.563)" fill="#263238"/>
        <path id="Path_50135" data-name="Path 50135" d="M62.11,421.741a8.45,8.45,0,0,1,1.128,1.368,7.728,7.728,0,0,1,1.368,3.969,7.878,7.878,0,0,1-.962,4.074c-.541.947-1.037,1.5-.992,1.5s.15-.09.361-.316a5.893,5.893,0,0,0,.8-1.052,7.322,7.322,0,0,0,1.082-4.195,7.427,7.427,0,0,0-1.5-4.074,5.783,5.783,0,0,0-.9-.962C62.275,421.816,62.125,421.726,62.11,421.741Z" transform="translate(-56.668 -11.365)" fill="#263238"/>
        <path id="Path_50136" data-name="Path 50136" d="M64.9,429.55a13.681,13.681,0,0,0,2.09,2.842,13.533,13.533,0,0,0,2.571,2.436s-1.052-1.173-2.33-2.631A23.687,23.687,0,0,0,64.9,429.55Z" transform="translate(-55.263 -7.433)" fill="#263238"/>
        <path id="Path_50137" data-name="Path 50137" d="M63.06,427.19c-.09,0-.165.316-.331.662s-.346.646-.286.707.361-.165.556-.586S63.136,427.19,63.06,427.19Z" transform="translate(-56.505 -8.621)" fill="#263238"/>
        <path id="Path_50138" data-name="Path 50138" d="M63.239,425.33c-.075,0-.165.271-.2.631s0,.647.105.647.165-.271.2-.632S63.314,425.33,63.239,425.33Z" transform="translate(-56.203 -9.557)" fill="#263238"/>
        <path id="Path_50139" data-name="Path 50139" d="M62.56,423.625a6.215,6.215,0,0,1,.3.646c.135.346.165.661.256.677s.2-.361,0-.782S62.59,423.55,62.56,423.625Z" transform="translate(-56.441 -10.423)" fill="#263238"/>
        <path id="Path_50140" data-name="Path 50140" d="M62,422.512v.406c0,.2.2.346.271.316s0-.211,0-.421S62.075,422.481,62,422.512Z" transform="translate(-56.723 -10.978)" fill="#263238"/>
        <path id="Path_50141" data-name="Path 50141" d="M170.669,403.87l5.818,65.836H151.605L140.63,403.87Z" transform="translate(-17.137 -20.361)" fill="#ffbe9d"/>
        <path id="Path_50142" data-name="Path 50142" d="M172.09,448.845v-2.21l-24.16-.105.286,9.126h1.5c6.645.12,33.767.18,38.142-1.323C192.582,452.709,172.09,448.845,172.09,448.845Z" transform="translate(-13.462 1.116)" fill="#0091ff"/>
        <g id="Group_4686" data-name="Group 4686" transform="translate(134.378 449.702)" opacity="0.5">
          <path id="Path_50143" data-name="Path 50143" d="M156.785,454.456a8.3,8.3,0,0,0-3.247-5.006,8.118,8.118,0,0,0-5.668-1.5l.241,6.72Z" transform="translate(-147.87 -447.897)" fill="#fff"/>
        </g>
        <path id="Path_50144" data-name="Path 50144" d="M182.043,449.56s7.217,1.8,6.375,3.007-28.265,2.18-40.4,1.5v-.541l31.993-.857S180.645,449.68,182.043,449.56Z" transform="translate(-13.416 2.641)" fill="#fff" opacity="0.5"/>
        <path id="Path_50145" data-name="Path 50145" d="M147.78,452.723h5.969c3.7,0,8.8,0,14.418-.256s10.72-.481,14.4-.737l4.36-.331,1.188-.12H186.93l-4.375.241c-3.683.211-8.765.466-14.388.662s-10.72.286-14.418.331H148.2Z" transform="translate(-13.537 3.507)" fill="#263238"/>
        <path id="Path_50146" data-name="Path 50146" d="M169.318,453.2a10,10,0,0,1,.737-2.12,9.883,9.883,0,0,1,1.5-1.714,3.112,3.112,0,0,0-1.684,1.579,3.247,3.247,0,0,0-.556,2.255Z" transform="translate(-2.706 2.546)" fill="#263238"/>
        <path id="Path_50147" data-name="Path 50147" d="M164.51,450.375a2.794,2.794,0,0,0,.737-.947c.331-.571.541-1.052.466-1.1a2.842,2.842,0,0,0-.722.962,2.766,2.766,0,0,0-.481,1.082Z" transform="translate(-5.114 2.022)" fill="#263238"/>
        <path id="Path_50148" data-name="Path 50148" d="M163.2,449.53a3.771,3.771,0,0,0,.827-.6c.406-.391.677-.752.616-.8s-.421.2-.827.586S163.143,449.44,163.2,449.53Z" transform="translate(-5.777 1.92)" fill="#263238"/>
        <path id="Path_50149" data-name="Path 50149" d="M162.33,447.649a2.722,2.722,0,0,0,1.248.105,3.008,3.008,0,0,0,1.263-.165,2.737,2.737,0,0,0-1.263-.12C162.886,447.484,162.33,447.559,162.33,447.649Z" transform="translate(-6.212 1.575)" fill="#263238"/>
        <path id="Path_50150" data-name="Path 50150" d="M162,446.52a3.674,3.674,0,0,0,2.917.12,6.694,6.694,0,0,0-1.413,0,8.824,8.824,0,0,0-1.5-.12Z" transform="translate(-6.378 1.111)" fill="#263238"/>
        <path id="Path_50151" data-name="Path 50151" d="M165,449.015a4.33,4.33,0,0,0,1.5,0,9.414,9.414,0,0,0,1.639-.421,4.5,4.5,0,0,0,.917-.421.872.872,0,0,0,.376-.5.616.616,0,0,0-.256-.6,2.811,2.811,0,0,0-3.473.947,2.645,2.645,0,0,0-.466,1.052.782.782,0,0,0,0,.406,4.976,4.976,0,0,1,.662-1.338,2.841,2.841,0,0,1,1.278-.9,2.391,2.391,0,0,1,1.849,0c.256.18.165.466-.105.646a5.361,5.361,0,0,1-.842.391,9.829,9.829,0,0,1-1.579.466C165.6,448.939,165,448.97,165,449.015Z" transform="translate(-4.868 1.262)" fill="#263238"/>
        <path id="Path_50152" data-name="Path 50152" d="M165.984,449.3a1.593,1.593,0,0,0,.135-1.067,2.421,2.421,0,0,0-.466-1.113,1.5,1.5,0,0,0-1.308-.752.631.631,0,0,0-.451.737,1.5,1.5,0,0,0,.286.677,4.3,4.3,0,0,0,.767.9,2.135,2.135,0,0,0,.9.6s-.316-.271-.767-.737a7.025,7.025,0,0,1-.677-.9c-.225-.331-.391-.9,0-.992s.8.331,1.037.616a2.465,2.465,0,0,1,.466.992A6.434,6.434,0,0,1,165.984,449.3Z" transform="translate(-5.431 1.035)" fill="#263238"/>
        <path id="Path_50153" data-name="Path 50153" d="M148,447.925a9.223,9.223,0,0,1,1.774,0,7.608,7.608,0,0,1,3.924,1.5,7.728,7.728,0,0,1,2.541,3.323c.406,1.022.466,1.714.526,1.7a1.669,1.669,0,0,0,0-.481,7.022,7.022,0,0,0-.316-1.278,7.306,7.306,0,0,0-2.556-3.5,7.516,7.516,0,0,0-4.089-1.428,7.812,7.812,0,0,0-1.323,0A1.5,1.5,0,0,0,148,447.925Z" transform="translate(-13.426 1.721)" fill="#263238"/>
        <path id="Path_50154" data-name="Path 50154" d="M155.76,450.734a13.241,13.241,0,0,0,3.518.2,13.951,13.951,0,0,0,3.5-.421c0-.09-1.579.075-3.518.135S155.76,450.659,155.76,450.734Z" transform="translate(-9.519 3.106)" fill="#263238"/>
        <path id="Path_50155" data-name="Path 50155" d="M152.63,450.743s.135.331.316.677.271.677.346.677.12-.391-.09-.8S152.675,450.683,152.63,450.743Z" transform="translate(-11.095 3.232)" fill="#263238"/>
        <path id="Path_50156" data-name="Path 50156" d="M151.4,449.324a1.523,1.523,0,0,0,.361.541c.256.241.511.391.571.331s-.105-.3-.376-.541S151.445,449.264,151.4,449.324Z" transform="translate(-11.715 2.516)" fill="#263238"/>
        <path id="Path_50157" data-name="Path 50157" d="M149.691,448.745c0,.09.331.075.692.18s.616.3.677.241-.15-.391-.6-.511S149.661,448.685,149.691,448.745Z" transform="translate(-12.576 2.163)" fill="#263238"/>
        <path id="Path_50158" data-name="Path 50158" d="M148.47,448.449c0,.075.12.2.316.271a.734.734,0,0,0,.421,0c.03,0-.12-.2-.316-.271S148.5,448.374,148.47,448.449Z" transform="translate(-13.19 2.054)" fill="#263238"/>
        <path id="Path_50159" data-name="Path 50159" d="M155.947,278.834s19.47,129.3,16.643,135.6-65.9,70.813-65.9,70.813L83,444.709s41.736-46.231,41.134-48.622S94.065,268.43,94.065,268.43Z" transform="translate(-46.15 -88.548)" fill="#263238"/>
        <path id="Path_50160" data-name="Path 50160" d="M141.456,323.1c-.2-1.383-15.907-36.7-15.907-36.7l7.623-10.765,1.353-.286Z" transform="translate(-24.729 -85.064)" fill="#263238"/>
        <path id="Path_50161" data-name="Path 50161" d="M83.933,267.25l-1.188,4.8a56.545,56.545,0,0,0,6.014,41.691L141.5,405.191A72.993,72.993,0,0,1,149.589,426l13.155,59.176h43.3s-5.352-40.593-10.118-70.2c-3.608-22.356-33.527-91.71-48.02-124.546l9.021-11.05-15.591-2.6Z" transform="translate(-47.084 -89.142)" fill="#263238"/>
        <path id="Path_50162" data-name="Path 50162" d="M126.31,282.53a45.511,45.511,0,0,0,2.21,5.788c1.5,3.533,3.428,8.419,5.533,13.847s3.954,10.389,5.277,13.967a47.406,47.406,0,0,0,2.285,5.758,6.571,6.571,0,0,0-.376-1.639c-.286-1.022-.737-2.511-1.323-4.33-1.188-3.638-3.007-8.615-5.052-14.072s-4.195-10.3-5.788-13.772c-.8-1.744-1.5-3.142-1.939-4.089a6.315,6.315,0,0,0-.827-1.458Z" transform="translate(-24.346 -81.45)" fill="#455a64"/>
        <path id="Path_50163" data-name="Path 50163" d="M143.5,415.158a5.221,5.221,0,0,0,0-1.022c-.09-.767-.2-1.729-.331-2.932a44.474,44.474,0,0,0-.692-4.616c-.346-1.774-.677-3.834-1.263-6.014-.271-1.113-.556-2.285-.857-3.488s-.722-2.451-1.113-3.744c-.722-2.6-1.744-5.292-2.736-8.149a184.681,184.681,0,0,0-8.043-18.041,314.3,314.3,0,0,0-18.432-30.625c-2.541-3.789-4.646-6.841-6.119-8.93l-1.7-2.33a5.657,5.657,0,0,0-.646-.8,4.42,4.42,0,0,0,.5.9l1.579,2.481c1.5,2.24,3.458,5.307,5.894,9.021,4.946,7.668,11.772,18.312,18.177,30.67A195.236,195.236,0,0,1,135.7,385.4c1.007,2.827,2.06,5.5,2.811,8.074.391,1.278.8,2.511,1.143,3.713s.616,2.345.9,3.458c.631,2.2.992,4.225,1.383,6.014s.662,3.308.842,4.51.361,2.15.5,2.9a4.84,4.84,0,0,0,.226,1.083Z" transform="translate(-36.801 -60.335)" fill="#455a64"/>
        <path id="Path_50164" data-name="Path 50164" d="M88.148,297.564a4.558,4.558,0,0,1-.331-.451l-.917-1.5h0a9.953,9.953,0,0,1,6.465-4.42,15.818,15.818,0,0,1,6.014-.18,39.952,39.952,0,0,1,6.886,1.849,50.1,50.1,0,0,1,7.517,3.007,12.809,12.809,0,0,1,6.119,6.555,8.148,8.148,0,0,1,.286,4.871,24.417,24.417,0,0,1-1.939,4.51,9.442,9.442,0,0,0-1.278,4.6,6.45,6.45,0,0,0,2.09,4.255c2.887,2.872,7.156,3.4,10.69,5.187a18.357,18.357,0,0,1,8.028,7.968,18.763,18.763,0,0,1,2.255,9.983,17.185,17.185,0,0,1-2.826,8.479,19.275,19.275,0,0,1-10.118,7.788,17.141,17.141,0,0,1-3.443.707,8.242,8.242,0,0,1-1.218,0,27.567,27.567,0,0,0,4.51-1.053,19.273,19.273,0,0,0,9.742-7.788,16.7,16.7,0,0,0,2.646-8.209,18.463,18.463,0,0,0-2.24-9.622,17.816,17.816,0,0,0-7.743-7.623c-1.7-.842-3.608-1.413-5.518-2.135a14.688,14.688,0,0,1-5.382-3.172,7.216,7.216,0,0,1-2.315-4.781,10.314,10.314,0,0,1,1.368-4.976,24.142,24.142,0,0,0,1.909-4.39,7.322,7.322,0,0,0-.271-4.435,12.028,12.028,0,0,0-5.743-6.209,49.95,49.95,0,0,0-7.4-3.082,37.465,37.465,0,0,0-6.75-1.894,15.035,15.035,0,0,0-5.818.075,9.923,9.923,0,0,0-6.375,4.135h0l.827,1.5a2.345,2.345,0,0,1,.271.451Z" transform="translate(-44.187 -77.284)" fill="#fafafa"/>
        <path id="Path_50165" data-name="Path 50165" d="M171.705,412.514a13.533,13.533,0,0,0-3.563-2.255A21.278,21.278,0,0,0,163.331,409c-1.909-.316-4.134-.511-6.57-.9a22.161,22.161,0,0,1-7.683-2.6,21.514,21.514,0,0,1-9.487-26.731c1.428-3.533,3.578-6.6,4.18-10.013a19.545,19.545,0,0,0-1.413-9.817,79.133,79.133,0,0,1-2.917-8.8,17.125,17.125,0,0,1,0-8.1,18.222,18.222,0,0,1,6.194-9.8,12.674,12.674,0,0,1,3.7-2.18,27.845,27.845,0,0,0-3.5,2.405,18.387,18.387,0,0,0-5.848,9.7,16.7,16.7,0,0,0,0,7.848,80.688,80.688,0,0,0,3.007,8.69,20.131,20.131,0,0,1,1.5,10.178c-.631,3.653-2.842,6.766-4.195,10.193a20.883,20.883,0,0,0,9.021,25.859,21.9,21.9,0,0,0,7.517,2.631c2.406.421,4.631.646,6.555,1.007a20.4,20.4,0,0,1,4.856,1.5,10.989,10.989,0,0,1,2.691,1.714C171.465,412.214,171.735,412.484,171.705,412.514Z" transform="translate(-18.429 -57.526)" fill="#fafafa"/>
        <path id="Path_50166" data-name="Path 50166" d="M153.837,422.129c-.15,0-.2-1.954-.977-4.976a28.174,28.174,0,0,0-1.879-5.127,32.219,32.219,0,0,0-3.563-5.653,31.81,31.81,0,0,0-4.751-4.706,28.569,28.569,0,0,0-4.6-3.007c-2.781-1.413-4.691-1.879-4.646-2.03a3.955,3.955,0,0,1,1.353.256,10.05,10.05,0,0,1,1.5.466,16.337,16.337,0,0,1,1.985.812,26.063,26.063,0,0,1,4.811,2.872,27.8,27.8,0,0,1,8.51,10.614,26.113,26.113,0,0,1,1.774,5.307,16.053,16.053,0,0,1,.361,2.12,9.427,9.427,0,0,1,.12,1.609A4.165,4.165,0,0,1,153.837,422.129Z" transform="translate(-20.767 -24.006)" fill="#fafafa"/>
        <path id="Path_50167" data-name="Path 50167" d="M141.571,314.1a2.262,2.262,0,0,0-.586.12,16.023,16.023,0,0,1-1.729.15,22.774,22.774,0,0,1-6.314-.677,25.707,25.707,0,0,1-8.6-3.849,24.055,24.055,0,0,1-10.689-19.7,25.964,25.964,0,0,1,1.5-9.306,23.154,23.154,0,0,1,2.887-5.668,13.19,13.19,0,0,1,1.052-1.353c.256-.3.406-.451.421-.436a33.255,33.255,0,0,0-3.834,7.638,26.325,26.325,0,0,0-1.263,9.111A23.875,23.875,0,0,0,124.7,309.263a26.386,26.386,0,0,0,8.314,3.909,32.759,32.759,0,0,0,8.555.932Z" transform="translate(-30.722 -86.052)" fill="#fafafa"/>
        <path id="Path_50168" data-name="Path 50168" d="M115.34,356.58a5.317,5.317,0,0,1,.842.376c.556.256,1.338.692,2.33,1.278a28.069,28.069,0,0,1,7.352,6.45,19.393,19.393,0,0,1,3.217,6.014,16.658,16.658,0,0,1,.511,7.8,13.531,13.531,0,0,1-3.969,7.668c-2.225,2.165-5.488,2.887-7.382,5.262s-2.315,5.488-2.6,8.389a30.07,30.07,0,0,1-1.5,8.479,11.412,11.412,0,0,1-5.247,5.758,16.449,16.449,0,0,1-6.525,1.954,32.024,32.024,0,0,1-9.742-.962c-1.128-.271-1.985-.5-2.571-.662a3.606,3.606,0,0,1-.872-.286,4.7,4.7,0,0,1,.917.135l2.586.511a33.585,33.585,0,0,0,9.622.707,15.968,15.968,0,0,0,6.254-1.954,10.915,10.915,0,0,0,4.916-5.473,30.506,30.506,0,0,0,1.4-8.284,28.719,28.719,0,0,1,.692-4.51,10.524,10.524,0,0,1,2.075-4.3c2.165-2.6,5.442-3.308,7.517-5.322a12.809,12.809,0,0,0,3.774-7.217,16.358,16.358,0,0,0-.421-7.517,19.379,19.379,0,0,0-3.007-5.848,29.365,29.365,0,0,0-7.081-6.525c-.947-.632-1.714-1.1-2.24-1.4A4.008,4.008,0,0,1,115.34,356.58Z" transform="translate(-43.039 -44.169)" fill="#fafafa"/>
        <path id="Path_50169" data-name="Path 50169" d="M119.31,149.813c-8.344-2.075-17.32,3.142-21.469,10.659s-4.195,16.733-2.24,25.093c.827,3.5,1.985,7.126,1.173,10.644-.872,3.774-3.879,6.705-5.322,10.314-2.751,6.961.752,14.674,4.18,21.319,1.5,3.007,3.563,6.39,6.9,7.051,3.744.737,7.036-2.255,10.193-4.405a26.807,26.807,0,0,1,19-4.285c7.517,1.158,14.313,5.473,21.86,5.608a20.432,20.432,0,0,0,17.245-9.246c2.24-3.5,3.007-8.78-.225-11.366-2.135-1.7-5.4-1.639-7.277-3.623-2.285-2.421-1.293-6.314-.12-9.412s2.345-6.886.256-9.472c-2.33-2.917-7.382-2.36-9.607-5.352s.12-7.517,0-11.486a11.652,11.652,0,0,0-5.157-8.72c-2.826-2.06-3.217-2.721-7.111-9.8" transform="translate(-42.394 -148.496)" fill="#263238"/>
        <path id="Path_50170" data-name="Path 50170" d="M114.472,195.543l30.069,2.571s21.905-3.2,30.294,52.35l33.286-1.368,1.5,22.131-45.78,2.255-5.4-3.232.541,45.509L83.26,310.181c1.714-10.329,9.787-23.92,12.494-32.64C93,270.655,77.787,242.586,77.036,228.167c-2.045-39.481,37.436-32.625,37.436-32.625" transform="translate(-49.192 -125.473)" fill="#0091ff"/>
        <path id="Path_50171" data-name="Path 50171" d="M134,222.48s5.322,6.014,5.412,11.08c.135,8.119-1.909,12.283.631,21.154l-7.247,1.744s-1.113-2.165-.165-6.8,2.781-10.269,3.593-15.305A17.184,17.184,0,0,0,134,222.48Z" transform="translate(-21.358 -111.682)" opacity="0.3"/>
        <path id="Path_50172" data-name="Path 50172" d="M134.713,259.227a7.516,7.516,0,0,1-.451-1.774,19.544,19.544,0,0,1,0-4.991,49.4,49.4,0,0,1,1.5-7.2,66.734,66.734,0,0,0,1.985-8.69,17,17,0,0,0-.917-8.63,22.264,22.264,0,0,0-3.879-6.014c-2.736-3.112-4.676-4.841-4.51-4.946a9.021,9.021,0,0,1,1.428,1.128,43.594,43.594,0,0,1,3.563,3.458,21.7,21.7,0,0,1,4.135,6.149,17.154,17.154,0,0,1,1.007,9.021,58.033,58.033,0,0,1-2.06,8.78,59,59,0,0,0-1.7,7.081,23.846,23.846,0,0,0-.256,4.886A8.422,8.422,0,0,1,134.713,259.227Z" transform="translate(-23.277 -114.451)" fill="#263238"/>
        <g id="Group_4687" data-name="Group 4687" transform="translate(68.708 118.586)" opacity="0.2">
          <path id="Path_50173" data-name="Path 50173" d="M147.91,253.279l-22.431.511a12.659,12.659,0,0,1-5.262-.616c-2.36-.992-3.879-3.293-5.2-5.488q-5.909-9.742-10.825-20.026s5.924,18.838,9.637,27.062a4.285,4.285,0,0,0,5.247,2.706A100.987,100.987,0,0,0,147.91,253.279Z" transform="translate(-104.19 -227.66)"/>
        </g>
        <path id="Path_50174" data-name="Path 50174" d="M272.128,240.863a19.409,19.409,0,0,1,9.622,1.789,9.5,9.5,0,0,0,4.1.962h3.668V196.481a7.232,7.232,0,0,0-7.247-7.232H235.339v-3.187a9.787,9.787,0,0,1,1.022-4.255,19.275,19.275,0,0,0,1.654-11.817,19.545,19.545,0,1,0-37.134,11.233,9.952,9.952,0,0,1,.871,3.937v4.089h-45.78a7.232,7.232,0,0,0-7.232,7.232V323.808a5.894,5.894,0,0,0,5.894,5.894h129a5.909,5.909,0,0,0,5.893-5.894V277.788h-5.217a9.352,9.352,0,0,0-3.518.692,19.261,19.261,0,0,1-7.277,1.428,19.557,19.557,0,0,1-1.383-39.09Z" transform="translate(-13.054 -146.272)" fill="#0091ff"/>
        <path id="Path_50175" data-name="Path 50175" d="M272.128,240.863a19.409,19.409,0,0,1,9.622,1.789,9.5,9.5,0,0,0,4.1.962h3.668V196.481a7.232,7.232,0,0,0-7.247-7.232H235.339v-3.187a9.787,9.787,0,0,1,1.022-4.255,19.275,19.275,0,0,0,1.654-11.817,19.545,19.545,0,1,0-37.134,11.233,9.952,9.952,0,0,1,.871,3.937v4.089h-45.78a7.232,7.232,0,0,0-7.232,7.232V323.808a5.894,5.894,0,0,0,5.894,5.894h129a5.909,5.909,0,0,0,5.893-5.894V277.788h-5.217a9.352,9.352,0,0,0-3.518.692,19.261,19.261,0,0,1-7.277,1.428,19.557,19.557,0,0,1-1.383-39.09Z" transform="translate(-13.054 -146.272)" fill="#fff" opacity="0.2"/>
        <path id="Path_50176" data-name="Path 50176" d="M102.42,219.208l-2.33-53.072,21.048-15.967,19.154,9.366s.646,24.055,0,34.489-11.156,11.546-11.156,11.546.256,6.1.5,12.524a13.636,13.636,0,0,1-13.757,14.147h0A13.636,13.636,0,0,1,102.42,219.208Z" transform="translate(-37.547 -148.086)" fill="#ffbe9d"/>
        <path id="Path_50177" data-name="Path 50177" d="M126.366,168.508a1.338,1.338,0,1,1-1.338-1.338,1.338,1.338,0,0,1,1.338,1.338Z" transform="translate(-25.665 -139.528)" fill="#263238"/>
        <path id="Path_50178" data-name="Path 50178" d="M128.107,167.631c-.18.18-1.158-.662-2.6-.737s-2.511.616-2.661.421.105-.406.571-.722a3.5,3.5,0,0,1,4.195.256C128.046,167.225,128.182,167.5,128.107,167.631Z" transform="translate(-26.113 -140.109)" fill="#263238"/>
        <path id="Path_50179" data-name="Path 50179" d="M116.076,168.508a1.338,1.338,0,1,1-1.338-1.338,1.338,1.338,0,0,1,1.338,1.338Z" transform="translate(-30.846 -139.528)" fill="#263238"/>
        <path id="Path_50180" data-name="Path 50180" d="M117.507,167.639c-.18.18-1.158-.662-2.6-.737s-2.511.616-2.661.421.105-.406.571-.722a3.518,3.518,0,0,1,2.09-.6,3.563,3.563,0,0,1,2.06.827C117.446,167.234,117.582,167.5,117.507,167.639Z" transform="translate(-31.449 -140.117)" fill="#263238"/>
        <path id="Path_50181" data-name="Path 50181" d="M124.067,188.566a26.04,26.04,0,0,1-13.817-4.676s3.458,7.8,13.922,7.382Z" transform="translate(-32.431 -131.11)" fill="#eb996e"/>
        <path id="Path_50182" data-name="Path 50182" d="M119.261,179.379a10.526,10.526,0,0,1,2.345-.3c.361,0,.722,0,.812-.331a2.15,2.15,0,0,0-.211-1.173q-.466-1.4-.992-3.007c-.677-2.12-1.263-4.044-1.669-5.442a10.071,10.071,0,0,1-.526-2.315,9.579,9.579,0,0,1,.917,2.18c.5,1.383,1.158,3.277,1.834,5.4l.947,3.007a2.255,2.255,0,0,1,.135,1.5.9.9,0,0,1-.6.526,3.418,3.418,0,0,1-.631,0A9.862,9.862,0,0,1,119.261,179.379Z" transform="translate(-28.016 -139.709)" fill="#263238"/>
        <path id="Path_50183" data-name="Path 50183" d="M119.139,176a3.443,3.443,0,0,0-1.5.842,1.4,1.4,0,0,0,1.5,2.33,1.97,1.97,0,0,0,1.308-.977,1.5,1.5,0,0,0-.18-1.609,1.218,1.218,0,0,0-1.5-.226" transform="translate(-28.963 -135.082)" fill="#eb996e"/>
        <path id="Path_50184" data-name="Path 50184" d="M121.028,178.116c0,.21-1.188.541-2.466-.2s-1.624-1.954-1.413-2,.752.752,1.8,1.323S121,177.89,121.028,178.116Z" transform="translate(-28.987 -135.123)" fill="#263238"/>
        <path id="Path_50185" data-name="Path 50185" d="M120.2,148.793a15.035,15.035,0,0,0-11.757,5.037,17.109,17.109,0,0,0-4.134,12.208,7.517,7.517,0,0,0,1.5,4.646c1.5,1.729,4.044,2.075,6.345,2.3a15.125,15.125,0,0,0,7.021-.361c2.225-.857,4.074-3.157,3.578-5.473-1.1,1.5-.18,3.729,1.383,4.676a9.893,9.893,0,0,0,5.337.962h7.878a4.33,4.33,0,0,0,2.586-.556,4.51,4.51,0,0,0,1.293-3.247c.421-4.195.812-8.66-1.113-12.4a14.854,14.854,0,0,0-8.7-6.841c-3.593-1.188-7.517-.646-11.261-.887" transform="translate(-35.437 -148.784)" fill="#263238"/>
        <path id="Path_50186" data-name="Path 50186" d="M100.488,216.607c2.872,1.5,8.314-4.42,10.088-7.141a14.087,14.087,0,0,0,1.5-9.412c-.376-3.232-1.233-6.4-1.308-9.652-.105-5.262,1.879-10.3,2.811-15.486a39.451,39.451,0,0,0-.707-16.974c-.571-2.15-1.5-4.51-3.608-5.322a5.262,5.262,0,0,0-5.172,1.068,12.6,12.6,0,0,0-3.127,4.51L99.3,170.858l1.248,17.726Z" transform="translate(-37.944 -146.989)" fill="#263238"/>
        <path id="Path_50187" data-name="Path 50187" d="M186.442,261.585l7.668,26.16s-40.127,14.6-61.852,14.328c-20.372-.241-26.205-2.556-33.362-19s-15.335-35.331-17-46.2c0,0-16.373-45.434,27.468-40.954l6.014,34.579s4.856,16.042,5.2,16.974c3.278,8.66,7.517,21.349,11.622,22.883S186.442,261.585,186.442,261.585Z" transform="translate(-48.215 -125.213)" fill="#0091ff"/>
        <path id="Path_50188" data-name="Path 50188" d="M176.071,258.561a5.029,5.029,0,0,1-1.052.271l-3.007.646c-2.676.556-6.555,1.383-11.366,2.5s-10.524,2.481-17.079,3.683a105.021,105.021,0,0,1-21.62,2h-.256l-.09-.241c-.827-2.15-1.7-4.42-2.526-6.735-5.773-16.222-10.163-31.136-13.711-41.811-1.759-5.352-3.232-9.667-4.285-12.629-.5-1.5-.9-2.571-1.2-3.413a6.8,6.8,0,0,1-.376-1.218s.2.391.526,1.158.782,1.894,1.338,3.368c1.143,2.932,2.691,7.217,4.51,12.554,3.7,10.644,8.179,25.559,13.937,41.721.827,2.315,1.684,4.51,2.511,6.72l-.361-.241A107.6,107.6,0,0,0,143.446,265c6.495-1.173,12.253-2.511,17.094-3.518s8.72-1.789,11.426-2.27l3.1-.5a9.512,9.512,0,0,1,1.007-.15Z" transform="translate(-37.844 -122.189)" fill="#263238"/>
        <path id="Path_50189" data-name="Path 50189" d="M190.354,265.363a6.926,6.926,0,0,1-1.173.541c-.782.331-1.939.782-3.443,1.338-3.007,1.112-7.427,2.586-12.945,4.195s-12.118,3.368-19.47,5.232a124.918,124.918,0,0,1-24.341,4.255,44.824,44.824,0,0,1-6.525-.165,27.733,27.733,0,0,1-6.239-1.308,29.933,29.933,0,0,1-10.208-6.239,61.341,61.341,0,0,1-12.028-16.222c-2.706-5.067-4.51-9.336-5.8-12.3-.616-1.5-1.082-2.631-1.383-3.428a6.99,6.99,0,0,1-.436-1.2,6.148,6.148,0,0,1,.571,1.143c.376.842.887,1.954,1.5,3.368,1.338,2.917,3.247,7.141,6.014,12.163a61.748,61.748,0,0,0,12.028,15.937,29.572,29.572,0,0,0,9.968,6.014,26.9,26.9,0,0,0,6.014,1.248,43.333,43.333,0,0,0,6.42.165,126.03,126.03,0,0,0,24.191-4.18c7.367-1.819,13.982-3.5,19.545-5.052s9.953-3.007,12.99-3.954l3.488-1.2A8.493,8.493,0,0,1,190.354,265.363Z" transform="translate(-44.459 -102.831)" fill="#263238"/>
        <path id="Path_50190" data-name="Path 50190" d="M91.2,251.14s7.517,28.866,27.062,28.28,37.9-8.946,37.9-8.946l-.872-.9s-33.076,7.126-42.262,2.646C95.575,263.739,91.2,251.14,91.2,251.14Z" transform="translate(-42.022 -97.253)" opacity="0.2"/>
        <path id="Path_50191" data-name="Path 50191" d="M155.356,266.858h6.149c5.578-.541,8.69-.632,10.254-2.1,2.09-2-.782-3.939-.782-3.939s4.029-1.4,3.653-3.849c-.256-1.684-2.165-1.864-2.165-1.864s3.563-1.4,4.27-2.887c.947-2.015-1.5-3.1-1.5-3.1,4.856-3.007,4.42-6.014,3.293-6.254s-4.9,1.5-4.9,1.5c-3.2.917-11.937,3.578-8.7-1.233s3.909-9.727,3.172-11.186a1.819,1.819,0,0,0-3.338.827,20.717,20.717,0,0,1-2.27,5.382,14.147,14.147,0,0,1-2.917,3.683c-1.368,1.218-2.586,2.2-3.623,3.007l-5.473,5.262Z" transform="translate(-12.183 -107.333)" fill="#ffbe9d"/>
      </g>
    </g>
  </g>
</svg>
