<svg xmlns="http://www.w3.org/2000/svg" width="751" height="751" viewBox="0 0 751 751">
  <g id="Group_4737" data-name="Group 4737" transform="translate(15995 -3297)">
    <rect id="Rectangle_4924" data-name="Rectangle 4924" width="751" height="751" transform="translate(-15995 3297)" fill="#fff" opacity="0"/>
    <g id="Icon_design-rafiki" data-name="Icon design-rafiki" transform="translate(-15995 3327.145)">
      <g id="freepik--background-complete--inject-127" transform="translate(0 55)">
        <rect id="Rectangle_4823" data-name="Rectangle 4823" width="49.746" height="0.375" transform="translate(626.004 515.922)" fill="#ebebeb"/>
        <rect id="Rectangle_4824" data-name="Rectangle 4824" width="13.052" height="0.375" transform="translate(484.44 520.007)" fill="#ebebeb"/>
        <rect id="Rectangle_4825" data-name="Rectangle 4825" width="28.823" height="0.375" transform="translate(595.678 501.983)" fill="#ebebeb"/>
        <rect id="Rectangle_4826" data-name="Rectangle 4826" width="64.871" height="0.375" transform="translate(78.795 504.507)" fill="#ebebeb"/>
        <rect id="Rectangle_4827" data-name="Rectangle 4827" width="9.508" height="0.375" transform="translate(157.049 504.507)" fill="#ebebeb"/>
        <rect id="Rectangle_4828" data-name="Rectangle 4828" width="140.707" height="0.375" transform="translate(197.468 510.845)" fill="#ebebeb"/>
        <path id="Path_50480" data-name="Path 50480" d="M336.793,479.766H46.786a8.576,8.576,0,0,1-8.576-8.576V63.5A8.576,8.576,0,0,1,46.786,55H336.793a8.576,8.576,0,0,1,8.576,8.576V471.189A8.576,8.576,0,0,1,336.793,479.766ZM46.786,55.3a8.216,8.216,0,0,0-8.2,8.2V471.189a8.216,8.216,0,0,0,8.2,8.2H336.793a8.216,8.216,0,0,0,8.2-8.2V63.5a8.216,8.216,0,0,0-8.2-8.2Z" transform="translate(19.181 -55)" fill="#ebebeb"/>
        <path id="Path_50481" data-name="Path 50481" d="M553.113,479.766H263.076a8.591,8.591,0,0,1-8.576-8.576V63.5a8.591,8.591,0,0,1,8.576-8.5H553.113a8.576,8.576,0,0,1,8.546,8.5V471.189A8.576,8.576,0,0,1,553.113,479.766ZM263.076,55.3a8.216,8.216,0,0,0-8.2,8.2V471.189a8.216,8.216,0,0,0,8.2,8.2H553.113a8.216,8.216,0,0,0,8.2-8.2V63.5a8.216,8.216,0,0,0-8.2-8.2Z" transform="translate(127.759 -55)" fill="#ebebeb"/>
        <rect id="Rectangle_4829" data-name="Rectangle 4829" width="751" height="0.375" transform="translate(0 491.755)" fill="#ebebeb"/>
        <path id="Path_50482" data-name="Path 50482" d="M140.57,414.659V298.81h47.073V414.659a9.748,9.748,0,0,1-9.733,9.733H150.3a9.748,9.748,0,0,1-9.733-9.733Zm6.008-109.841V414.659a3.725,3.725,0,0,0,3.725,3.725H177.91a3.74,3.74,0,0,0,3.725-3.725V304.818Z" transform="translate(70.566 67.393)" fill="#ebebeb"/>
        <path id="Path_50483" data-name="Path 50483" d="M70.89,414.659V298.81h47.058V414.659a9.748,9.748,0,0,1-9.733,9.733H80.623a9.748,9.748,0,0,1-9.733-9.733ZM76.9,304.818V414.659a3.74,3.74,0,0,0,3.725,3.725H108.23a3.725,3.725,0,0,0,3.725-3.725V304.818Z" transform="translate(35.587 67.393)" fill="#ebebeb"/>
        <rect id="Rectangle_4830" data-name="Rectangle 4830" width="114.708" height="43.092" transform="translate(219.562 375.455) rotate(180)" fill="#f5f5f5"/>
        <rect id="Rectangle_4831" data-name="Rectangle 4831" width="47.013" height="43.092" transform="translate(259.095 375.455) rotate(180)" fill="#e6e6e6"/>
        <rect id="Rectangle_4832" data-name="Rectangle 4832" width="112.034" height="12.557" transform="translate(211.076 335.051) rotate(180)" fill="#ebebeb"/>
        <rect id="Rectangle_4833" data-name="Rectangle 4833" width="55.589" height="12.557" transform="translate(264.923 335.051) rotate(180)" fill="#e6e6e6"/>
        <rect id="Rectangle_4834" data-name="Rectangle 4834" width="88.798" height="24.783" transform="translate(202.875 367.014) rotate(180)" fill="#ebebeb"/>
        <circle id="Ellipse_716" data-name="Ellipse 716" cx="4.927" cy="4.927" r="4.927" transform="translate(153.549 349.696)" fill="#fafafa"/>
        <rect id="Rectangle_4835" data-name="Rectangle 4835" width="38.091" height="319.941" transform="translate(647.708 491.785) rotate(180)" fill="#e6e6e6"/>
        <rect id="Rectangle_4836" data-name="Rectangle 4836" width="106.927" height="319.941" transform="translate(613.762 491.785) rotate(180)" fill="#f0f0f0"/>
        <rect id="Rectangle_4837" data-name="Rectangle 4837" width="85.133" height="85.133" transform="translate(602.873 267.882) rotate(180)" fill="#fafafa"/>
        <path id="Path_50484" data-name="Path 50484" d="M358.478,202.561h46.066a2.328,2.328,0,0,0,2.343-2.328h0a2.343,2.343,0,0,0-2.343-2.343H358.478a2.328,2.328,0,0,0-2.328,2.343h0a2.313,2.313,0,0,0,2.328,2.328Z" transform="translate(178.787 16.731)" fill="#e0e0e0"/>
        <path id="Path_50485" data-name="Path 50485" d="M358.478,208.8h46.066a2.328,2.328,0,0,0,2.343-2.328h0a2.343,2.343,0,0,0-2.343-2.343H358.478a2.328,2.328,0,0,0-2.328,2.343h0a2.313,2.313,0,0,0,2.328,2.328Z" transform="translate(178.787 19.863)" fill="#e0e0e0"/>
        <rect id="Rectangle_4838" data-name="Rectangle 4838" width="50.738" height="4.671" rx="1.56" transform="translate(585.675 238.022) rotate(180)" fill="#e0e0e0"/>
        <path id="Path_50486" data-name="Path 50486" d="M372.912,181.452h9.523a11.01,11.01,0,0,0,9.088-4.793H363.81A11.025,11.025,0,0,0,372.912,181.452Z" transform="translate(182.633 6.073)" fill="#e0e0e0"/>
        <rect id="Rectangle_4839" data-name="Rectangle 4839" width="85.133" height="85.133" transform="translate(602.873 361.171) rotate(180)" fill="#fafafa"/>
        <path id="Path_50487" data-name="Path 50487" d="M358.478,264.681h46.066a2.328,2.328,0,0,0,2.343-2.328h0a2.343,2.343,0,0,0-2.343-2.343H358.478a2.328,2.328,0,0,0-2.328,2.343h0a2.313,2.313,0,0,0,2.328,2.328Z" transform="translate(178.787 47.915)" fill="#e0e0e0"/>
        <path id="Path_50488" data-name="Path 50488" d="M358.478,270.911h46.066a2.328,2.328,0,0,0,2.343-2.328h0a2.343,2.343,0,0,0-2.343-2.343H358.478a2.328,2.328,0,0,0-2.328,2.343h0a2.313,2.313,0,0,0,2.328,2.328Z" transform="translate(178.787 51.042)" fill="#e0e0e0"/>
        <path id="Path_50489" data-name="Path 50489" d="M358.478,277.141h46.066a2.328,2.328,0,0,0,2.343-2.328h0a2.343,2.343,0,0,0-2.343-2.343H358.478a2.328,2.328,0,0,0-2.328,2.343h0a2.313,2.313,0,0,0,2.328,2.328Z" transform="translate(178.787 54.17)" fill="#e0e0e0"/>
        <rect id="Rectangle_4840" data-name="Rectangle 4840" width="85.133" height="85.133" transform="translate(602.873 454.46) rotate(180)" fill="#fafafa"/>
        <path id="Path_50490" data-name="Path 50490" d="M358.478,326.791h46.066a2.328,2.328,0,0,0,2.343-2.328h0a2.343,2.343,0,0,0-2.343-2.343H358.478a2.328,2.328,0,0,0-2.328,2.343h0a2.313,2.313,0,0,0,2.328,2.328Z" transform="translate(178.787 79.094)" fill="#e0e0e0"/>
        <path id="Path_50491" data-name="Path 50491" d="M358.478,333.021h46.066a2.328,2.328,0,0,0,2.343-2.328h0a2.343,2.343,0,0,0-2.343-2.343H358.478a2.328,2.328,0,0,0-2.328,2.343h0a2.313,2.313,0,0,0,2.328,2.328Z" transform="translate(178.787 82.222)" fill="#e0e0e0"/>
        <path id="Path_50492" data-name="Path 50492" d="M358.478,339.251h46.066a2.328,2.328,0,0,0,2.343-2.328h0a2.343,2.343,0,0,0-2.343-2.343H358.478a2.328,2.328,0,0,0-2.328,2.343h0a2.313,2.313,0,0,0,2.328,2.328Z" transform="translate(178.787 85.349)" fill="#e0e0e0"/>
        <path id="Path_50493" data-name="Path 50493" d="M372.912,243.6h9.523a11.01,11.01,0,0,0,9.088-4.793H363.81a11.025,11.025,0,0,0,9.1,4.791Z" transform="translate(182.633 37.272)" fill="#e0e0e0"/>
        <path id="Path_50494" data-name="Path 50494" d="M372.912,305.672h9.523a11.011,11.011,0,0,0,9.088-4.793H363.81a11.025,11.025,0,0,0,9.1,4.791Z" transform="translate(182.633 68.431)" fill="#e0e0e0"/>
      </g>
      <g id="freepik--Shadow--inject-127" transform="translate(77.038 574.797)">
        <ellipse id="freepik--path--inject-127" cx="291.223" cy="17.003" rx="291.223" ry="17.003" fill="#f5f5f5"/>
      </g>
      <g id="freepik--Graphics--inject-127" transform="translate(104.719 259.437)">
        <path id="Path_50495" data-name="Path 50495" d="M187.218,267.019H184.71a34.452,34.452,0,1,0-68.9,0H113.32a36.949,36.949,0,1,1,73.9,0Z" transform="translate(-47.833 -171.552)" fill="#263238"/>
        <g id="Group_4696" data-name="Group 4696" transform="translate(65.487 58.518)" opacity="0.4">
          <path id="Path_50496" data-name="Path 50496" d="M187.218,267.019H184.71a34.452,34.452,0,1,0-68.9,0H113.32a36.949,36.949,0,1,1,73.9,0Z" transform="translate(-113.32 -230.07)" fill="#fff"/>
        </g>
        <rect id="Rectangle_4841" data-name="Rectangle 4841" width="9.327" height="9.327" transform="translate(97.765 55.093)" fill="#263238"/>
        <rect id="Rectangle_4842" data-name="Rectangle 4842" width="9.327" height="9.327" transform="translate(62.063 89.459)" fill="#263238"/>
        <rect id="Rectangle_4843" data-name="Rectangle 4843" width="9.327" height="9.327" transform="translate(133.468 89.459)" fill="#263238"/>
        <path id="Path_50497" data-name="Path 50497" d="M159.266,256.967,144.652,236.45v16.988a3.755,3.755,0,1,1-2,0V236.45l-14.614,20.517a8.381,8.381,0,0,0,1.983,11.7l5.437,3.845v6.519h16.387v-6.519l5.452-3.845a8.381,8.381,0,0,0,1.968-11.7Z" transform="translate(-41.224 -168.349)" fill="#0091ff"/>
        <path id="Path_50498" data-name="Path 50498" d="M159.266,256.967,144.652,236.45v16.988a3.755,3.755,0,1,1-2,0V236.45l-14.614,20.517a8.381,8.381,0,0,0,1.983,11.7l5.437,3.845v6.519h16.387v-6.519l5.452-3.845a8.381,8.381,0,0,0,1.968-11.7Z" transform="translate(-41.224 -168.349)" fill="#fff" opacity="0.5"/>
        <rect id="Rectangle_4844" data-name="Rectangle 4844" width="13.984" height="10.829" transform="translate(22.139 39.488)" fill="#0091ff"/>
        <rect id="Rectangle_4845" data-name="Rectangle 4845" width="13.984" height="10.829" transform="translate(22.139 39.488)" fill="#fff" opacity="0.3"/>
        <rect id="Rectangle_4846" data-name="Rectangle 4846" width="58.233" height="42.401" rx="4.01" fill="#0091ff"/>
        <rect id="Rectangle_4847" data-name="Rectangle 4847" width="58.233" height="42.401" rx="4.01" fill="#fff" opacity="0.5"/>
        <rect id="Rectangle_4848" data-name="Rectangle 4848" width="49.851" height="29.815" rx="0.94" transform="translate(4.206 4.191)" opacity="0.2"/>
        <rect id="Rectangle_4849" data-name="Rectangle 4849" width="28.298" height="5.663" rx="1.82" transform="translate(14.975 48.53)" fill="#0091ff"/>
        <rect id="Rectangle_4850" data-name="Rectangle 4850" width="28.298" height="5.663" rx="1.82" transform="translate(14.975 48.53)" fill="#fff" opacity="0.5"/>
      </g>
      <g id="freepik--Desk--inject-127" transform="translate(197.468 380.529)">
        <rect id="Rectangle_4851" data-name="Rectangle 4851" width="317.718" height="6.278" transform="translate(8.126 6.293)" fill="#263238"/>
        <rect id="Rectangle_4852" data-name="Rectangle 4852" width="317.718" height="6.278" transform="translate(8.126 6.293)" fill="#fff" opacity="0.3"/>
        <rect id="Rectangle_4853" data-name="Rectangle 4853" width="173.241" height="6.278" transform="translate(152.603 6.293)" opacity="0.2"/>
        <rect id="Rectangle_4854" data-name="Rectangle 4854" width="9.943" height="202.109" transform="translate(17.138 12.572)" fill="#263238"/>
        <rect id="Rectangle_4855" data-name="Rectangle 4855" width="9.943" height="202.109" transform="translate(17.138 12.572)" fill="#fff" opacity="0.5"/>
        <rect id="Rectangle_4856" data-name="Rectangle 4856" width="9.943" height="13.218" transform="translate(17.138 12.572)" opacity="0.2"/>
        <rect id="Rectangle_4857" data-name="Rectangle 4857" width="9.943" height="202.109" transform="translate(133.393 12.572)" fill="#263238"/>
        <rect id="Rectangle_4858" data-name="Rectangle 4858" width="9.943" height="202.109" transform="translate(133.393 12.572)" fill="#fff" opacity="0.5"/>
        <rect id="Rectangle_4859" data-name="Rectangle 4859" width="9.943" height="13.218" transform="translate(133.393 12.572)" opacity="0.2"/>
        <rect id="Rectangle_4860" data-name="Rectangle 4860" width="9.943" height="202.109" transform="translate(190.589 12.572)" fill="#263238"/>
        <rect id="Rectangle_4861" data-name="Rectangle 4861" width="9.943" height="202.109" transform="translate(190.589 12.572)" fill="#fff" opacity="0.5"/>
        <rect id="Rectangle_4862" data-name="Rectangle 4862" width="9.943" height="13.218" transform="translate(190.589 12.572)" opacity="0.2"/>
        <rect id="Rectangle_4863" data-name="Rectangle 4863" width="9.943" height="202.109" transform="translate(306.844 12.572)" fill="#263238"/>
        <rect id="Rectangle_4864" data-name="Rectangle 4864" width="9.943" height="202.109" transform="translate(306.844 12.572)" fill="#fff" opacity="0.5"/>
        <rect id="Rectangle_4865" data-name="Rectangle 4865" width="9.943" height="13.218" transform="translate(306.844 12.572)" opacity="0.2"/>
        <rect id="Rectangle_4866" data-name="Rectangle 4866" width="333.985" height="6.278" fill="#0091ff"/>
        <rect id="Rectangle_4867" data-name="Rectangle 4867" width="181.096" height="6.278" transform="translate(152.874)" opacity="0.3"/>
      </g>
      <g id="freepik--Plant--inject-127" transform="translate(190.228 473.289)">
        <path id="Path_50499" data-name="Path 50499" d="M169.779,398.4l-1.172-.075c2.358-34.8-2.824-46.111-7.585-49.476a5.692,5.692,0,0,0-5.287-.916l-.466-1.081a6.879,6.879,0,0,1,6.429,1.051C166.7,351.436,172.168,363.061,169.779,398.4Z" transform="translate(-112.283 -326.965)" fill="#0091ff"/>
        <path id="Path_50500" data-name="Path 50500" d="M160.585,394.389c-1.157-29.62,3.98-40.659,8.486-44.715a7.1,7.1,0,0,1,5.362-2.193l-.165,1.157a6.008,6.008,0,0,0-4.506,1.968c-4.3,3.92-9.177,14.69-8.051,43.738Z" transform="translate(-109.697 -326.465)" fill="#0091ff"/>
        <path id="Path_50501" data-name="Path 50501" d="M172.52,389.524l-1.172-.075c1.217-17.8-.991-28.373-6.338-30.611-7-3-17.453,8.772-17.558,8.892l-.871-.781c.451-.511,11.1-12.437,18.865-9.192C171.408,360.235,173.781,370.929,172.52,389.524Z" transform="translate(-116.645 -321.585)" fill="#0091ff"/>
        <path id="Path_50502" data-name="Path 50502" d="M161.89,386.474c0-10.935,2.253-17.678,6.744-20.037,5.062-2.659,10.9,1.277,11.145,1.5l-.661.961s-5.512-3.71-9.943-1.367c-4.07,2.148-6.128,8.546-6.113,19Z" transform="translate(-108.96 -317.409)" fill="#0091ff"/>
        <g id="Group_4697" data-name="Group 4697" transform="translate(29.935 19.516)" opacity="0.2">
          <path id="Path_50503" data-name="Path 50503" d="M169.779,398.4l-1.172-.075c2.358-34.8-2.824-46.111-7.585-49.476a5.692,5.692,0,0,0-5.287-.916l-.466-1.081a6.879,6.879,0,0,1,6.429,1.051C166.7,351.436,172.168,363.061,169.779,398.4Z" transform="translate(-142.218 -346.481)"/>
          <path id="Path_50504" data-name="Path 50504" d="M160.585,394.389c-1.157-29.62,3.98-40.659,8.486-44.715a7.1,7.1,0,0,1,5.362-2.193l-.165,1.157a6.008,6.008,0,0,0-4.506,1.968c-4.3,3.92-9.177,14.69-8.051,43.738Z" transform="translate(-139.632 -345.981)"/>
          <path id="Path_50505" data-name="Path 50505" d="M172.52,389.524l-1.172-.075c1.217-17.8-.991-28.373-6.338-30.611-7-3-17.453,8.772-17.558,8.892l-.871-.781c.451-.511,11.1-12.437,18.865-9.192C171.408,360.235,173.781,370.929,172.52,389.524Z" transform="translate(-146.58 -341.101)"/>
          <path id="Path_50506" data-name="Path 50506" d="M161.89,386.474c0-10.935,2.253-17.678,6.744-20.037,5.062-2.659,10.9,1.277,11.145,1.5l-.661.961s-5.512-3.71-9.943-1.367c-4.07,2.148-6.128,8.546-6.113,19Z" transform="translate(-138.894 -336.925)"/>
        </g>
        <path id="Path_50507" data-name="Path 50507" d="M144.3,377.38l7.014,56.535h42.9l7.014-56.535Z" transform="translate(-117.79 -311.454)" fill="#263238"/>
        <path id="Path_50508" data-name="Path 50508" d="M172.236,353.693s11.851-19.9-9.012-20.2S126.65,354.97,126.65,354.97s28.343,27.231,47.553,20.7S172.236,353.693,172.236,353.693Z" transform="translate(-126.65 -333.488)" fill="#0091ff"/>
        <path id="Path_50509" data-name="Path 50509" d="M172.236,353.693s11.851-19.9-9.012-20.2S126.65,354.97,126.65,354.97s28.343,27.231,47.553,20.7S172.236,353.693,172.236,353.693Z" transform="translate(-126.65 -333.488)" fill="#fff" opacity="0.4"/>
        <path id="Path_50510" data-name="Path 50510" d="M165.23,351.865s1.727-15.591-1.367-15.02-1.727,12.467-1.727,12.467-12.016-12.6-14.074-10.514,10.514,11.7,10.514,11.7-27.366-1.5-27.4,1.577,27.622,1.1,27.622,1.1S147.357,362,148.558,364.347s14.419-10.409,14.419-10.409,5.092,14.374,8.156,13.623S165.23,351.865,165.23,351.865Z" transform="translate(-124.376 -331.81)" fill="#fff" opacity="0.5"/>
        <path id="Path_50511" data-name="Path 50511" d="M170.334,353.682s-13.833-12.467,3.98-16.011,35.642,11.535,35.642,11.535-18.9,26.51-36.664,24.287S170.334,353.682,170.334,353.682Z" transform="translate(-107.625 -331.659)" fill="#0091ff"/>
        <path id="Path_50512" data-name="Path 50512" d="M170.334,353.682s-13.833-12.467,3.98-16.011,35.642,11.535,35.642,11.535-18.9,26.51-36.664,24.287S170.334,353.682,170.334,353.682Z" transform="translate(-107.625 -331.659)" fill="#fff" opacity="0.3"/>
        <path id="Path_50513" data-name="Path 50513" d="M173.995,351.29s-6.4-10.919-3.289-10.3,6.4,7.8,6.4,7.8,7.315-10.259,9.388-8.2-5.873,9.342-5.873,9.342,21.524-3.89,21.554-.751-21.779,3.425-21.779,3.425,10.274,7.675,9.012,10.018-13.248-9.237-13.248-9.237S171.066,367.752,168,367,173.995,351.29,173.995,351.29Z" transform="translate(-106.209 -330.064)" fill="#fff" opacity="0.5"/>
        <path id="Path_50514" data-name="Path 50514" d="M176.844,373.462s-23.416,5.648-8.306,20.007,41.44,9.012,41.44,9.012-2.328-39.232-20.878-47.463S176.844,373.462,176.844,373.462Z" transform="translate(-108.172 -323.472)" fill="#0091ff"/>
        <path id="Path_50515" data-name="Path 50515" d="M179.936,373.092S164,382.224,166.7,383.862s13.848-6.834,13.848-6.834,2,18.024,4.912,17.859-1.5-16.357-1.5-16.357,17.273,20.142,19.391,17.829-17.8-19.962-17.8-19.962,11.7.27,12.376-2.268-14.945-1.1-14.945-1.1,4.9-13.368,2.118-14.87S179.936,373.092,179.936,373.092Z" transform="translate(-106.698 -321.15)" fill="#fff" opacity="0.5"/>
        <path id="Path_50516" data-name="Path 50516" d="M156.543,366.294S144,345.551,134.779,364.251s3.71,42.251,3.71,42.251,36.754-13.909,39.052-34.065S156.543,366.294,156.543,366.294Z" transform="translate(-124.235 -321.967)" fill="#0091ff"/>
        <path id="Path_50517" data-name="Path 50517" d="M152.131,367.7s-12.557-10.6-13.443-7.51,9.793,9.177,9.793,9.177-14.6,6.008-13.728,8.742,13.143-5.092,13.143-5.092-11.836,24.693-9.012,26.15,11.535-25.129,11.535-25.129,7.165,12.422,9.793,12.422-7.195-15.786-7.195-15.786,15.02,1.172,15.816-1.893S152.131,367.7,152.131,367.7Z" transform="translate(-122.601 -320.368)" fill="#fff" opacity="0.5"/>
      </g>
      <g id="freepik--Device--inject-127" transform="translate(295.191 259.24)">
        <path id="Path_50518" data-name="Path 50518" d="M213.291,191h-6.879a9.718,9.718,0,0,0-9.823,10.769l5.873,67.109a12.016,12.016,0,0,0,11.7,10.769h6.879Z" transform="translate(-196.532 -190.969)" fill="#263238"/>
        <path id="Path_50519" data-name="Path 50519" d="M258.452,282.087H237.86l3.755-42.927h20.607Z" transform="translate(-175.785 -166.792)" fill="#263238"/>
        <path id="Path_50520" data-name="Path 50520" d="M329.342,279.629H217.293a12.016,12.016,0,0,1-11.7-10.769L199.72,201.75a9.7,9.7,0,0,1,9.823-10.769H321.607a12.016,12.016,0,0,1,11.7,10.769l5.873,67.109a9.7,9.7,0,0,1-9.838,10.769Z" transform="translate(-194.961 -190.979)" fill="#0091ff"/>
        <path id="Path_50521" data-name="Path 50521" d="M320.528,193.91H208.464a5.813,5.813,0,0,0-5.873,6.429l5.873,67.109a7.18,7.18,0,0,0,7,6.429H327.527a5.8,5.8,0,0,0,5.873-6.429l-5.873-67.109a7.179,7.179,0,0,0-7-6.429Z" transform="translate(-193.507 -189.508)" fill="#fff" opacity="0.7"/>
        <path id="Path_50522" data-name="Path 50522" d="M241.493,252.29,239.45,275.5h18.2L259.7,252.29Z" transform="translate(-174.987 -160.201)" fill="#fff" opacity="0.4"/>
        <path id="Path_50523" data-name="Path 50523" d="M283.2,274.606H247.426a4.266,4.266,0,0,1-4.266-4.266h0A4.281,4.281,0,0,1,247.426,266h35.733a4.281,4.281,0,0,1,4.266,4.281h0a4.266,4.266,0,0,1-4.221,4.326Z" transform="translate(-173.125 -153.318)" fill="#0091ff"/>
        <path id="Path_50524" data-name="Path 50524" d="M260.868,274.586H225.136a4.266,4.266,0,0,1-4.266-4.266h0a4.281,4.281,0,0,1,4.266-4.281h35.732a4.281,4.281,0,0,1,4.266,4.281h0A4.266,4.266,0,0,1,260.868,274.586Z" transform="translate(-184.314 -153.298)" fill="#0091ff"/>
        <g id="Group_4698" data-name="Group 4698" transform="translate(36.556 112.742)" opacity="0.5">
          <path id="Path_50525" data-name="Path 50525" d="M260.868,274.586H225.136a4.266,4.266,0,0,1-4.266-4.266h0a4.281,4.281,0,0,1,4.266-4.281h35.732a4.281,4.281,0,0,1,4.266,4.281h0A4.266,4.266,0,0,1,260.868,274.586Z" transform="translate(-220.87 -266.04)" fill="#fff"/>
        </g>
        <path id="Path_50526" data-name="Path 50526" d="M286.926,252.7H262.549A14.179,14.179,0,0,1,248.7,239.98L246.583,215.6a11.475,11.475,0,0,1,11.61-12.722h24.362A14.164,14.164,0,0,1,296.4,215.6l2.133,24.377a11.475,11.475,0,0,1-11.61,12.722Z" transform="translate(-171.441 -185.005)" fill="#fff" opacity="0.8"/>
        <path id="Path_50527" data-name="Path 50527" d="M251.927,252.7H227.564a14.179,14.179,0,0,1-13.848-12.722L211.583,215.6a11.475,11.475,0,0,1,11.626-12.722h24.362A14.179,14.179,0,0,1,261.419,215.6l2.133,24.377A11.475,11.475,0,0,1,251.927,252.7Z" transform="translate(-189.011 -185.005)" fill="#263238"/>
        <path id="Path_50528" data-name="Path 50528" d="M328.6,274.589H301.839a3.2,3.2,0,0,1-3.2-3.2h0a3.2,3.2,0,0,1,3.2-3.2H328.6a3.2,3.2,0,0,1,3.2,3.2h0A3.2,3.2,0,0,1,328.6,274.589Z" transform="translate(-145.274 -152.219)" fill="#0091ff"/>
        <path id="Path_50529" data-name="Path 50529" d="M328.6,274.589H301.839a3.2,3.2,0,0,1-3.2-3.2h0a3.2,3.2,0,0,1,3.2-3.2H328.6a3.2,3.2,0,0,1,3.2,3.2h0A3.2,3.2,0,0,1,328.6,274.589Z" transform="translate(-145.274 -152.219)" fill="#fff" opacity="0.3"/>
        <path id="Path_50530" data-name="Path 50530" d="M311.885,274.589H285.119a3.2,3.2,0,0,1-3.2-3.2h0a3.2,3.2,0,0,1,3.2-3.2h26.766a3.2,3.2,0,0,1,3.2,3.2h0A3.2,3.2,0,0,1,311.885,274.589Z" transform="translate(-153.667 -152.219)" fill="#0091ff"/>
        <path id="Path_50531" data-name="Path 50531" d="M311.885,274.589H285.119a3.2,3.2,0,0,1-3.2-3.2h0a3.2,3.2,0,0,1,3.2-3.2h26.766a3.2,3.2,0,0,1,3.2,3.2h0A3.2,3.2,0,0,1,311.885,274.589Z" transform="translate(-153.667 -152.219)" fill="#fff" opacity="0.5"/>
        <path id="Path_50532" data-name="Path 50532" d="M281.747,275.638a1.817,1.817,0,0,1-1.8-2.028c.616-5.017,3.695-7.51,9.358-7.51s11.716,2.328,13.263,7.089a1.817,1.817,0,0,1-1.712,2.388Z" transform="translate(-154.665 -153.268)" fill="#263238"/>
        <path id="Path_50533" data-name="Path 50533" d="M281.747,275.638a1.817,1.817,0,0,1-1.8-2.028c.616-5.017,3.695-7.51,9.358-7.51s11.716,2.328,13.263,7.089a1.817,1.817,0,0,1-1.712,2.388Z" transform="translate(-154.665 -153.268)" fill="#fff" opacity="0.5"/>
        <path id="Path_50534" data-name="Path 50534" d="M274.577,215.925l2.313-7.645-7.39,2.989Z" transform="translate(-159.902 -182.294)" fill="#263238"/>
        <path id="Path_50535" data-name="Path 50535" d="M256.625,225.3l-2.493,2.749a2.568,2.568,0,0,0,.315,3.62l1.5,1.322a2.538,2.538,0,0,0,3.62,0l2.508-2.734Z" transform="translate(-167.919 -173.75)" fill="#263238"/>
        <path id="Path_50536" data-name="Path 50536" d="M259.24,219.176c1.157,1.277,2.809,2.914,5.167,5.062,9.778,9.012,18.73,15.185,19.977,13.818s-5.678-9.763-15.456-18.775c-2.343-2.148-4.115-3.665-5.482-4.7Z" transform="translate(-165.052 -179.131)" fill="#263238"/>
        <path id="Path_50537" data-name="Path 50537" d="M265.423,222.268c-.946-.886-1.8-1.682-2.553-2.418l-6.879,7.51,5.392,4.957,6.864-7.51C267.315,223.981,266.369,223.079,265.423,222.268Z" transform="translate(-166.684 -176.486)" fill="#263238"/>
        <path id="Path_50538" data-name="Path 50538" d="M266.969,220.613c.946.871,1.878,1.742,2.764,2.613l6.984-7.66-5.392-4.957-6.984,7.66C265.151,218.961,266.007,219.742,266.969,220.613Z" transform="translate(-162.492 -181.124)" fill="#263238"/>
        <path id="Path_50539" data-name="Path 50539" d="M257.68,216.359a6.984,6.984,0,0,0,1.7,2.764l4.055-4.431a6.8,6.8,0,0,0-2.9-1.5Z" transform="translate(-165.836 -179.829)" fill="#263238"/>
        <path id="Path_50540" data-name="Path 50540" d="M263.175,214.157a5.318,5.318,0,0,0-1.021-1.682c-1.968-2.283-10.093-3.6-10.093-3.6a72.1,72.1,0,0,0,4.746,8.066,4.356,4.356,0,0,0,2.463,1.5Z" transform="translate(-168.657 -181.998)" fill="#263238"/>
        <path id="Path_50541" data-name="Path 50541" d="M239.367,215.925l2.313-7.645-7.39,2.989Z" transform="translate(-177.577 -182.294)" fill="#fff"/>
        <path id="Path_50542" data-name="Path 50542" d="M221.415,225.3l-2.493,2.749a2.568,2.568,0,0,0,.315,3.62l1.5,1.322a2.538,2.538,0,0,0,3.62,0l2.493-2.734Z" transform="translate(-185.595 -173.75)" fill="#fff"/>
        <path id="Path_50543" data-name="Path 50543" d="M224,219.176c1.157,1.277,2.809,2.914,5.167,5.062,9.778,9.012,18.73,15.185,19.977,13.818s-5.678-9.763-15.456-18.775c-2.343-2.148-4.13-3.665-5.482-4.7Z" transform="translate(-182.743 -179.131)" fill="#fff"/>
        <path id="Path_50544" data-name="Path 50544" d="M230.213,222.268c-.946-.886-1.8-1.682-2.553-2.418l-6.879,7.51,5.392,4.957,6.864-7.51C232.105,223.981,231.159,223.079,230.213,222.268Z" transform="translate(-184.359 -176.486)" fill="#fff"/>
        <path id="Path_50545" data-name="Path 50545" d="M231.758,220.613c.946.871,1.862,1.742,2.764,2.613l6.984-7.66-5.392-4.957-6.984,7.66C229.941,218.961,230.8,219.742,231.758,220.613Z" transform="translate(-180.168 -181.124)" fill="#fff"/>
        <path id="Path_50546" data-name="Path 50546" d="M222.47,216.359a6.985,6.985,0,0,0,1.7,2.764l4.055-4.431a6.8,6.8,0,0,0-2.9-1.5Z" transform="translate(-183.511 -179.829)" fill="#fff"/>
        <path id="Path_50547" data-name="Path 50547" d="M227.965,214.157a5.317,5.317,0,0,0-1.021-1.682c-1.968-2.283-10.093-3.6-10.093-3.6a72.094,72.094,0,0,0,4.746,8.066,4.356,4.356,0,0,0,2.463,1.5Z" transform="translate(-186.332 -181.998)" fill="#fff"/>
      </g>
      <g id="freepik--Character--inject-127" transform="translate(417.049 247.695)">
        <path id="Path_50548" data-name="Path 50548" d="M363.343,264.393l-29.244,4-11.866-6.338L310.082,266.9l-1.622,6.879,9.853-.646,7.555,3.124,8.291-.33,32.083,1.908Z" transform="translate(-262.202 -143.756)" fill="#b97964"/>
        <path id="Path_50549" data-name="Path 50549" d="M345.084,296.317a20.878,20.878,0,0,0,7.63-.871c6.444-2.914,22.891-27.667,30.446-40.449,3.124-5.287,4.791-15.7-4.6-26.856a1.923,1.923,0,0,0-3,0c-4.085,4.761-10.394,14.269-29.559,49.13l-4.161.886Z" transform="translate(-245.445 -161.141)" fill="#0091ff"/>
        <path id="Path_50550" data-name="Path 50550" d="M340.2,261.567l5.317-1.277a54.763,54.763,0,0,0,4.912,20.352h-7.255A36.048,36.048,0,0,1,340.2,261.567Z" transform="translate(-246.39 -144.639)" fill="#0091ff"/>
        <path id="Path_50551" data-name="Path 50551" d="M340.2,261.567l5.317-1.277a54.763,54.763,0,0,0,4.912,20.352h-7.255A36.048,36.048,0,0,1,340.2,261.567Z" transform="translate(-246.39 -144.639)" fill="#fff" opacity="0.4"/>
        <path id="Path_50552" data-name="Path 50552" d="M338.941,203.87l-4.371,6.879a6.113,6.113,0,0,0,5.467.541Z" transform="translate(-249.095 -172.962)" fill="#a24e3f"/>
        <path id="Path_50553" data-name="Path 50553" d="M335.73,203.052c0,.886.436,1.607,1.021,1.622s1.1-.751,1.081-1.607-.436-1.607-1.021-1.607S335.745,202.166,335.73,203.052Z" transform="translate(-248.513 -174.172)" fill="#1a2e35"/>
        <path id="Path_50554" data-name="Path 50554" d="M339.887,201.383a.5.5,0,0,1-.421-.165,3.635,3.635,0,0,0-3-1.367.461.461,0,0,1-.105-.916,4.506,4.506,0,0,1,3.86,1.682.481.481,0,0,1,0,.661h0a.5.5,0,0,1-.33.105Z" transform="translate(-248.404 -175.446)" fill="#1a2e35"/>
        <path id="Path_50555" data-name="Path 50555" d="M369.585,204.815c.391,11.791.811,16.777-4.506,23.356-8.471,6.969-22.635,7.8-26.54-3.65-3.515-10.289-3.56-27.8,7.51-33.615a16.116,16.116,0,0,1,23.6,13.909Z" transform="translate(-248.152 -180.396)" fill="#b97964"/>
        <path id="Path_50556" data-name="Path 50556" d="M350.025,219.248l-.09-.586a2.148,2.148,0,0,0-2.689-1.757l-4.806,1.307a15.621,15.621,0,0,0,7.585,1.036Z" transform="translate(-245.144 -166.457)" opacity="0.2"/>
        <path id="Path_50557" data-name="Path 50557" d="M347.19,217.6l2.583,17.513,14.629-3.034-4.686-17.919Z" transform="translate(-242.76 -167.797)" fill="#b97964"/>
        <path id="Path_50558" data-name="Path 50558" d="M350.73,218.105l-7.059-4.04a82.623,82.623,0,0,0,1.111-9.222c0-1.5,0-5.032-1.111-6.158-2.223-2.328-7.63-1.727-6.489-11.1s6.894,0,6.894,0,1.787-5.122,4.927-4.176a10.844,10.844,0,0,1,5.167,3.965S380.3,190,373.35,204.527c0,0,7.4,8.186-7.78,28.042,0,0-1.307-3.59-7.765,0Z" transform="translate(-247.862 -183.292)" fill="#263238"/>
        <path id="Path_50559" data-name="Path 50559" d="M359.94,202.394s10.664-5.783,9.177-9.688S359.94,202.394,359.94,202.394Z" transform="translate(-236.359 -178.921)" fill="#263238"/>
        <path id="Path_50560" data-name="Path 50560" d="M342.348,205.343a9.012,9.012,0,0,0,1.5,6.789c1.847,2.6,4.806,1.5,6.008-1.337,1.081-2.523,1.382-6.894-1.307-8.516a4.1,4.1,0,0,0-6.2,3.064Z" transform="translate(-245.262 -174.06)" fill="#b97964"/>
        <path id="Path_50561" data-name="Path 50561" d="M344.4,192.646s-4.836,6.534-9.688,0S340.889,195.214,344.4,192.646Z" transform="translate(-249.631 -179.807)" fill="#263238"/>
        <path id="Path_50562" data-name="Path 50562" d="M372.307,229.887l-2.719-8.306a2.809,2.809,0,0,0-2.148-1.8c-3.124-.766-10.108-1.817-21.809,1.337-2.689.721-5.407,3-4.581,3.98l3.74,4.791Z" transform="translate(-245.917 -165.38)" fill="#0091ff"/>
        <path id="Path_50563" data-name="Path 50563" d="M370.293,223.109c-10.109-2.343-21.028-.511-28.823,1.4l3,3.86h27.532Z" transform="translate(-245.631 -163.858)" opacity="0.1"/>
        <path id="Path_50564" data-name="Path 50564" d="M335.31,383.8l5.858,28.4,11.565-1.712-2.779-27.652Z" transform="translate(-248.723 -83.119)" fill="#b97964"/>
        <path id="Path_50565" data-name="Path 50565" d="M351.787,401.059l-1.832-18.219-14.644.961,3.665,17.754Z" transform="translate(-248.723 -83.119)" opacity="0.2"/>
        <path id="Path_50566" data-name="Path 50566" d="M337.047,404.483A5.167,5.167,0,0,1,333.4,404a1.1,1.1,0,0,1-.12-1.247,1.5,1.5,0,0,1,.811-.781c1.953-.8,6.444,1.112,6.639,1.187a.315.315,0,0,1,.18.285.285.285,0,0,1-.21.255,19.983,19.983,0,0,1-3.65.781Zm-2.193-2.1a1.791,1.791,0,0,0-.541.135.781.781,0,0,0-.511.466c-.165.376-.075.541,0,.631.646.721,3.68.376,5.9-.18A13.009,13.009,0,0,0,334.854,402.38Z" transform="translate(-249.815 -73.611)" fill="#0091ff"/>
        <path id="Path_50567" data-name="Path 50567" d="M339.727,404.766h-.12c-1.5-.466-4.731-2.734-4.626-4.131,0-.33.18-.751.961-.916a2.132,2.132,0,0,1,1.652.285c1.682,1.081,2.388,4.3,2.433,4.506a.331.331,0,0,1-.105.27.285.285,0,0,1-.2-.015Zm-3.53-4.506h-.165c-.511.105-.511.315-.526.391,0,.826,2.163,2.644,3.77,3.349a6.744,6.744,0,0,0-2.058-3.5,1.5,1.5,0,0,0-1.021-.24Z" transform="translate(-248.89 -74.675)" fill="#0091ff"/>
        <path id="Path_50568" data-name="Path 50568" d="M344.548,402.345l13.142-1.5a1.066,1.066,0,0,1,1.141.706l3.65,10.409a1.742,1.742,0,0,1-1.066,2.268,1.576,1.576,0,0,1-.36.09c-4.746.5-9.012.736-14.9,1.5-6.969.826-5.092,1.5-13.278,2.553-4.927.661-6.5-4.836-4.506-5.377,9.433-2.343,10.078-5.362,13.368-9.222a4.251,4.251,0,0,1,2.809-1.427Z" transform="translate(-252.629 -74.086)" fill="#263238"/>
        <path id="Path_50569" data-name="Path 50569" d="M370.264,298.845s-41.605,6.368-49.3,22.65c-5.467,11.565,22.245,116.765,22.245,116.765l16.687-.706c-1.712-93.214-9.418-102.316-9.418-102.316s28.538-3.8,48.575-3.8,15.02-23.732,14.239-32.593c-.165-1.938,0-7.765,0-7.765H369.919Z" transform="translate(-256.281 -129.183)" fill="#263238"/>
        <g id="Group_4699" data-name="Group 4699" transform="translate(63.973 161.897)" opacity="0.1">
          <path id="Path_50570" data-name="Path 50570" d="M370.264,298.845s-41.605,6.368-49.3,22.65c-5.467,11.565,22.245,116.765,22.245,116.765l16.687-.706c-1.712-93.214-9.418-102.316-9.418-102.316s28.538-3.8,48.575-3.8,15.02-23.732,14.239-32.593c-.165-1.938,0-7.765,0-7.765H369.919Z" transform="translate(-320.254 -291.08)"/>
        </g>
        <path id="Path_50571" data-name="Path 50571" d="M334.28,386.541l19.271-.571.976,9.418-19.03.811Z" transform="translate(-249.24 -81.548)" fill="#263238"/>
        <path id="Path_50572" data-name="Path 50572" d="M334.28,386.541l19.271-.571.976,9.418-19.03.811Z" transform="translate(-249.24 -81.548)" fill="#fff" opacity="0.3"/>
        <path id="Path_50573" data-name="Path 50573" d="M307.11,388.039l9.357,27.667,10.95-1.457-5.572-29.319Z" transform="translate(-262.88 -82.07)" fill="#b97964"/>
        <path id="Path_50574" data-name="Path 50574" d="M325.57,404.486l-3.725-19.556-14.735,3.109,6.083,17.994Z" transform="translate(-262.88 -82.07)" opacity="0.2"/>
        <path id="Path_50575" data-name="Path 50575" d="M372.554,291.571a4.266,4.266,0,0,1-3.319,4.506c-15.426,3.455-75.4,21.283-83.151,35.252-6.308,11.4,32.158,111.553,32.158,111.553L336.265,440c-10.018-88.483-19.166-94.3-19.166-94.3s66.088-16.717,86.62-15.4,16.522-32.2,16.522-32.2V291H372.509Z" transform="translate(-273.786 -129.223)" fill="#263238"/>
        <path id="Path_50576" data-name="Path 50576" d="M305.64,391.049l21.328-3.139,1.622,8.847-20.472,3.334Z" transform="translate(-263.618 -80.574)" fill="#263238"/>
        <path id="Path_50577" data-name="Path 50577" d="M305.64,391.049l21.328-3.139,1.622,8.847-20.472,3.334Z" transform="translate(-263.618 -80.574)" fill="#fff" opacity="0.3"/>
        <path id="Path_50578" data-name="Path 50578" d="M310.137,406.962a5.242,5.242,0,0,1-3.68-.736,1.112,1.112,0,0,1,0-1.277,1.5,1.5,0,0,1,.886-.736c2.028-.676,6.474,1.5,6.669,1.637a.315.315,0,0,1,.165.3.331.331,0,0,1-.225.255A21.138,21.138,0,0,1,310.137,406.962Zm-2.088-2.3a2.269,2.269,0,0,0-.556.105.842.842,0,0,0-.556.451c-.2.376-.105.541,0,.646.616.766,3.725.616,6.008.2a13.817,13.817,0,0,0-4.9-1.472Z" transform="translate(-263.309 -72.455)" fill="#0091ff"/>
        <path id="Path_50579" data-name="Path 50579" d="M312.872,407.393h-.135c-1.5-.586-4.626-3.094-4.506-4.506,0-.345.24-.766,1.036-.886a2.1,2.1,0,0,1,1.652.405c1.652,1.2,2.163,4.506,2.193,4.671a.27.27,0,0,1-.12.27.226.226,0,0,1-.12.045Zm-3.3-4.836h-.18c-.526.075-.541.285-.571.36,0,.841,2.043,2.824,3.62,3.65a6.879,6.879,0,0,0-1.847-3.695,1.5,1.5,0,0,0-1.036-.315Z" transform="translate(-262.319 -73.517)" fill="#0091ff"/>
        <path id="Path_50580" data-name="Path 50580" d="M318.156,404.626l13.518-.736a1.1,1.1,0,0,1,1.112.781l3,10.844a1.8,1.8,0,0,1-1.232,2.238,1.637,1.637,0,0,1-.375,0c-4.866.18-9.207.165-15.26.5-7.135.406-5.272,1.157-13.668,1.742-5.047.345-6.293-5.362-4.161-5.753,9.748-1.787,10.6-4.806,14.194-8.531a4.31,4.31,0,0,1,2.869-1.082Z" transform="translate(-266.401 -72.553)" fill="#263238"/>
        <path id="Path_50581" data-name="Path 50581" d="M331.19,229.866a4.221,4.221,0,0,1,4.311-4.251s26.03-2.4,37.926-.18c8.817,1.652,17.108,5.077,21.494,12.827,8.516,15.02,13.638,29.079,13.518,87.116l-58.863-.15s-1.292-10.514-4.957-29.109C340.487,275.452,331.385,249.8,331.19,229.866Z" transform="translate(-250.792 -162.61)" fill="#0091ff"/>
        <path id="Path_50582" data-name="Path 50582" d="M332.76,238.679c1.142,8.336,3,17.183,4.942,25.924,11.55-21.914,3.109-32.473,3.109-32.473Z" transform="translate(-250.004 -158.776)" opacity="0.2"/>
        <path id="Path_50583" data-name="Path 50583" d="M331.31,258.39,302.7,264.954l-11.866-6.008-10.95,4.371a2.313,2.313,0,0,0-1.5,1.742l-.676,3.6a2.343,2.343,0,0,0,3,2.674l4.371-1.322,9.342,3.139,8.291-.345,32.068,1.923Z" transform="translate(-277.662 -145.593)" fill="#b97964"/>
        <path id="Path_50584" data-name="Path 50584" d="M313.844,291.758a21.028,21.028,0,0,0,7.63-.856c6.444-3,22.89-27.667,30.445-40.464,2.734-4.611,4.341-13.158-1.5-22.7a5.467,5.467,0,0,0-9.012-.18c-4.356,6.1-11.475,17.859-26.465,45.135l-4.161.886Z" transform="translate(-261.037 -162.214)" fill="#0091ff"/>
        <path id="Path_50585" data-name="Path 50585" d="M309,257.827l5.317-1.277a54.912,54.912,0,0,0,4.9,20.352h-7.24A35.853,35.853,0,0,1,309,257.827Z" transform="translate(-262.054 -146.517)" fill="#0091ff"/>
        <path id="Path_50586" data-name="Path 50586" d="M309,257.827l5.317-1.277a54.912,54.912,0,0,0,4.9,20.352h-7.24A35.853,35.853,0,0,1,309,257.827Z" transform="translate(-262.054 -146.517)" fill="#fff" opacity="0.3"/>
        <path id="Path_50587" data-name="Path 50587" d="M425.345,424.045,380.12,407.4,334.4,424.06a2.418,2.418,0,0,1-3.259-2.268h0a2.418,2.418,0,0,1,1.412-2.193L380.12,397.52,427.208,419.6a2.388,2.388,0,0,1,1.4,2.178h0a2.418,2.418,0,0,1-3.259,2.268Z" transform="translate(-250.817 -75.75)" fill="#263238"/>
        <path id="Path_50588" data-name="Path 50588" d="M425.345,424.045,380.12,407.4,334.4,424.06a2.418,2.418,0,0,1-3.259-2.268h0a2.418,2.418,0,0,1,1.412-2.193L380.12,397.52,427.208,419.6a2.388,2.388,0,0,1,1.4,2.178h0a2.418,2.418,0,0,1-3.259,2.268Z" transform="translate(-250.817 -75.75)" fill="#fff" opacity="0.5"/>
        <path id="Path_50589" data-name="Path 50589" d="M356.65,411.278l10.664-3.875,10.169,3.74V402.3l-10.169-4.776-10.664,4.957Z" transform="translate(-238.011 -75.75)" opacity="0.2"/>
        <path id="Path_50590" data-name="Path 50590" d="M365.357,458.331h0a4.025,4.025,0,0,1-4.01-3.635l-1.277-13.413V330h10.514V441.268l-1.277,13.413A4.025,4.025,0,0,1,365.357,458.331Z" transform="translate(-236.294 -109.645)" fill="#263238"/>
        <path id="Path_50591" data-name="Path 50591" d="M365.357,458.331h0a4.025,4.025,0,0,1-4.01-3.635l-1.277-13.413V330h10.514V441.268l-1.277,13.413A4.025,4.025,0,0,1,365.357,458.331Z" transform="translate(-236.294 -109.645)" fill="#fff" opacity="0.5"/>
        <rect id="Rectangle_4868" data-name="Rectangle 4868" width="10.544" height="12.962" transform="translate(123.776 220.37)" opacity="0.2"/>
        <path id="Path_50592" data-name="Path 50592" d="M463.846,322.6a164.6,164.6,0,0,0-36.5-5.017c-12.677-.33-60.08,0-71.39,0a164.738,164.738,0,0,0-40.719,5.077c-8.366,2.133-5.8,14.209,1.757,14.344H461.608C469.508,337.3,472.392,324.774,463.846,322.6Z" transform="translate(-261.41 -115.954)" fill="#0091ff"/>
        <path id="Path_50593" data-name="Path 50593" d="M463.846,322.6a164.6,164.6,0,0,0-36.5-5.017c-12.677-.33-60.08,0-71.39,0a164.738,164.738,0,0,0-40.719,5.077c-8.366,2.133-5.8,14.209,1.757,14.344H461.608C469.508,337.3,472.392,324.774,463.846,322.6Z" transform="translate(-261.41 -115.954)" opacity="0.5"/>
        <path id="Path_50594" data-name="Path 50594" d="M319.112,336.66a149.674,149.674,0,0,1,73.7,0c9.1,2.328,12.992-11.761,3.875-14.089a165.431,165.431,0,0,0-81.453,0c-9.1,2.328-5.257,16.417,3.875,14.089Z" transform="translate(-261.409 -115.93)" fill="#0091ff"/>
        <g id="Group_4700" data-name="Group 4700" transform="translate(48.63 201.55)" opacity="0.2">
          <path id="Path_50595" data-name="Path 50595" d="M319.112,336.66a149.674,149.674,0,0,1,73.7,0c9.1,2.328,12.992-11.761,3.875-14.089a165.431,165.431,0,0,0-81.453,0c-9.1,2.328-5.257,16.417,3.875,14.089Z" transform="translate(-310.039 -317.48)"/>
        </g>
        <path id="Path_50596" data-name="Path 50596" d="M416.581,252.09h0c-18.55,0-35.417,15.02-37.7,33.585l-8.862,71.24a7.765,7.765,0,0,0,7.705,8.712h59.885a10.514,10.514,0,0,0,10.514-9.282l8.667-70.669c2.283-18.55-10.9-33.585-29.439-33.585H416.581Z" transform="translate(-231.328 -148.756)" fill="#0091ff"/>
        <path id="Path_50597" data-name="Path 50597" d="M416.581,252.09h0c-18.55,0-35.417,15.02-37.7,33.585l-8.862,71.24a7.765,7.765,0,0,0,7.705,8.712h59.885a10.514,10.514,0,0,0,10.514-9.282l8.667-70.669c2.283-18.55-10.9-33.585-29.439-33.585H416.581Z" transform="translate(-231.328 -148.756)" opacity="0.2"/>
        <path id="Path_50598" data-name="Path 50598" d="M433.994,365.626H384.939a7.78,7.78,0,0,1-7.72-8.712l8.712-71.24c2.268-18.55,19.15-33.585,37.685-33.585h0c18.55,0,31.737,15.02,29.454,33.585l-8.561,70.669a10.514,10.514,0,0,1-10.514,9.282Z" transform="translate(-227.713 -148.756)" fill="#0091ff"/>
        <path id="Path_50599" data-name="Path 50599" d="M433.994,365.626H384.939a7.78,7.78,0,0,1-7.72-8.712l8.712-71.24c2.268-18.55,19.15-33.585,37.685-33.585h0c18.55,0,31.737,15.02,29.454,33.585l-8.561,70.669a10.514,10.514,0,0,1-10.514,9.282Z" transform="translate(-227.713 -148.756)" opacity="0.4"/>
      </g>
      <g id="freepik--icon-3--inject-127" transform="translate(420.395 99.835)">
        <rect id="Rectangle_4869" data-name="Rectangle 4869" width="119.529" height="130.419" fill="#0091ff"/>
        <rect id="Rectangle_4870" data-name="Rectangle 4870" width="119.529" height="130.419" fill="#fff" opacity="0.7"/>
        <path id="Path_50600" data-name="Path 50600" d="M354.515,117.153,364.053,92.7,339.6,102.238Z" transform="translate(-249.916 -80.909)" fill="#fff"/>
        <path id="Path_50601" data-name="Path 50601" d="M294.629,147.13l-8.757,8.817a8.186,8.186,0,0,0,0,11.58l4.266,4.281a8.216,8.216,0,0,0,11.58,0l8.757-8.757Z" transform="translate(-278.092 -53.585)" fill="#0091ff"/>
        <path id="Path_50602" data-name="Path 50602" d="M304.73,127.535c3.334,4.07,8.171,9.327,15.02,16.207,28.778,28.778,55.649,48.56,60.08,44.189s-15.411-31.257-44.189-60.08c-6.894-6.894-12.136-11.716-16.207-15.02Z" transform="translate(-267.42 -70.804)" fill="#0091ff"/>
        <path id="Path_50603" data-name="Path 50603" d="M323.892,137.41c-2.809-2.809-5.3-5.362-7.51-7.72L292.35,153.722,308.2,169.568l24.032-24.032C329.449,142.908,326.671,140.189,323.892,137.41Z" transform="translate(-273.635 -62.34)" fill="#263238"/>
        <path id="Path_50604" data-name="Path 50604" d="M329.315,132.138q4.161,4.16,8.126,8.321l24.453-24.453L346.048,100.16,321.58,124.613C323.953,126.851,326.507,129.329,329.315,132.138Z" transform="translate(-258.962 -77.164)" fill="#263238"/>
        <path id="Path_50605" data-name="Path 50605" d="M300.4,118.473c.18,1.938,1.5,4.656,4.626,8.862l14.209-14.194c-4.206-3.2-6.924-4.506-8.862-4.641Z" transform="translate(-269.594 -72.978)" fill="#fff"/>
        <path id="Path_50606" data-name="Path 50606" d="M318.27,111.467a15.35,15.35,0,0,0-2.809-5.377C309.8,98.836,284.22,94.57,284.22,94.57s8.862,20.607,12.917,25.8a12.347,12.347,0,0,0,7.51,4.761Z" transform="translate(-277.716 -79.971)" fill="#263238"/>
      </g>
      <g id="freepik--icon-2--inject-127" transform="translate(294.783 99.835)">
        <rect id="Rectangle_4871" data-name="Rectangle 4871" width="119.529" height="130.419" fill="#0091ff"/>
        <rect id="Rectangle_4872" data-name="Rectangle 4872" width="119.529" height="130.419" fill="#fff" opacity="0.7"/>
        <path id="Path_50607" data-name="Path 50607" d="M223.727,99.205l-16.161,16.162a.571.571,0,0,0,.8.8L224.523,100a.571.571,0,0,0-.8-.8Z" transform="translate(-190.638 -77.697)" fill="#263238"/>
        <path id="Path_50608" data-name="Path 50608" d="M270.8,146.275l-16.161,16.162a.571.571,0,0,0,.8.8q8.066-8.1,16.162-16.162a.571.571,0,0,0-.8-.8Z" transform="translate(-167.009 -54.068)" fill="#263238"/>
        <path id="Path_50609" data-name="Path 50609" d="M270.163,116.057,254,99.9a.571.571,0,0,0-.8.8l16.161,16.162a.571.571,0,0,0,.8-.8Z" transform="translate(-167.727 -77.35)" fill="#263238"/>
        <path id="Path_50610" data-name="Path 50610" d="M223.093,163.127l-16.162-16.161a.571.571,0,0,0-.8.8L222.3,163.923a.571.571,0,0,0,.8-.8Z" transform="translate(-191.356 -53.721)" fill="#263238"/>
        <g id="Group_4701" data-name="Group 4701" transform="translate(16.822 21.403)" opacity="0.5">
          <path id="Path_50611" data-name="Path 50611" d="M223.727,99.205l-16.161,16.162a.571.571,0,0,0,.8.8L224.523,100a.571.571,0,0,0-.8-.8Z" transform="translate(-207.459 -99.099)" fill="#fff"/>
        </g>
        <g id="Group_4702" data-name="Group 4702" transform="translate(87.521 92.102)" opacity="0.5">
          <path id="Path_50612" data-name="Path 50612" d="M270.8,146.275l-16.161,16.162a.571.571,0,0,0,.8.8q8.066-8.1,16.162-16.162a.571.571,0,0,0-.8-.8Z" transform="translate(-254.529 -146.169)" fill="#fff"/>
        </g>
        <g id="Group_4703" data-name="Group 4703" transform="translate(85.373 22.439)" opacity="0.5">
          <path id="Path_50613" data-name="Path 50613" d="M270.163,116.057,254,99.9a.571.571,0,0,0-.8.8l16.161,16.162a.571.571,0,0,0,.8-.8Z" transform="translate(-253.099 -99.789)" fill="#fff"/>
        </g>
        <g id="Group_4704" data-name="Group 4704" transform="translate(14.674 93.138)" opacity="0.5">
          <path id="Path_50614" data-name="Path 50614" d="M223.093,163.127l-16.162-16.161a.571.571,0,0,0-.8.8L222.3,163.923a.571.571,0,0,0,.8-.8Z" transform="translate(-206.029 -146.859)" fill="#fff"/>
        </g>
        <path id="Path_50615" data-name="Path 50615" d="M271.394,147.548l24.032-24.032L307.442,111.5a.571.571,0,0,0-.8-.8L270.6,146.752l-15.365-15.365,29.394-29.394,12.016-12.016a.571.571,0,0,0-.8-.8l-41.44,41.44-29.755-29.74L212.937,89.165a.571.571,0,0,0-.8.8l41.47,41.455-15.365,15.365-24.993-24.993-12.016-12.016a.571.571,0,0,0-.8.8q18.475,18.49,36.979,36.979L212.471,172.5l-12.016,12.016c-.511.511.285,1.322.8.8l36.979-36.979L253.6,163.695l-30.3,30.3-12.016,12.016a.571.571,0,0,0,.8.8l42.326-42.326,30.34,30.34,12.016,12.016a.571.571,0,0,0,.8-.8q-21.178-21.148-42.326-42.326L270.6,148.344l24.287,24.3L306.6,184.362c.526.511,1.322-.285.8-.8Zm-16.958,15.365-15.365-15.365,15.365-15.365L269.8,147.548Z" transform="translate(-194.237 -82.737)" fill="#263238"/>
        <path id="Path_50616" data-name="Path 50616" d="M271.394,147.548l24.032-24.032L307.442,111.5a.571.571,0,0,0-.8-.8L270.6,146.752l-15.365-15.365,29.394-29.394,12.016-12.016a.571.571,0,0,0-.8-.8l-41.44,41.44-29.755-29.74L212.937,89.165a.571.571,0,0,0-.8.8l41.47,41.455-15.365,15.365-24.993-24.993-12.016-12.016a.571.571,0,0,0-.8.8q18.475,18.49,36.979,36.979L212.471,172.5l-12.016,12.016c-.511.511.285,1.322.8.8l36.979-36.979L253.6,163.695l-30.3,30.3-12.016,12.016a.571.571,0,0,0,.8.8l42.326-42.326,30.34,30.34,12.016,12.016a.571.571,0,0,0,.8-.8q-21.178-21.148-42.326-42.326L270.6,148.344l24.287,24.3L306.6,184.362c.526.511,1.322-.285.8-.8Zm-16.958,15.365-15.365-15.365,15.365-15.365L269.8,147.548Z" transform="translate(-194.237 -82.737)" fill="#fff" opacity="0.6"/>
        <path id="Path_50617" data-name="Path 50617" d="M282.166,91.49,255.04,102l16.522,16.522Zm-24.438,11.13,21.794-8.486-8.5,21.779Z" transform="translate(-166.752 -81.517)" fill="#263238"/>
        <path id="Path_50618" data-name="Path 50618" d="M201.923,155.372a9.012,9.012,0,0,0,0,12.632l4.266,4.266a8.922,8.922,0,0,0,12.647,0L228.1,163l-16.9-16.913Zm15.846,15.846a7.435,7.435,0,0,1-10.514,0l-4.266-4.236a7.51,7.51,0,0,1,0-10.514l8.216-8.216,14.78,14.795Z" transform="translate(-194.714 -54.107)" fill="#263238"/>
        <path id="Path_50619" data-name="Path 50619" d="M267.75,142.623l26.6-26.6L277.438,99.11l-26.6,26.615c-3-2.824-5.663-5.182-8.006-7.089l-.526-.436-15.651,15.666.421.526q2.884,3.515,7.089,7.991L207.94,168.608l16.913,16.913,26.21-26.21c20.652,19.526,42.056,36.318,49.957,36.318a3.079,3.079,0,0,0,2.268-.781c2.478-2.478-.736-9.838-9.583-21.839a331.933,331.933,0,0,0-25.955-30.385Zm9.688-41.38,14.795,14.78L266.7,141.557q-3.695-3.875-7.615-7.78t-7.165-7Zm-11.791,41.35-14.6,14.614q-3.83-3.65-7.8-7.615t-7-7.089l14.614-14.614c2.193,2.088,4.506,4.4,7.18,7s5.137,5.122,7.6,7.705Zm-36.964-8.621,13.728-13.743q3.274,2.7,7.36,6.549l-14.539,14.554q-3.845-4.115-6.549-7.36Zm-3.83,49.431-14.78-14.795L235.2,143.479c2.088,2.208,4.4,4.6,7,7.18s5.167,5.107,7.78,7.6Zm77.368,10.379c-3.139,3.154-23.807-10.514-50.092-35.537l14.554-14.554a328.033,328.033,0,0,1,25.8,30.205C301.755,186.466,303.587,192.414,302.221,193.781Z" transform="translate(-190.397 -77.691)" fill="#263238"/>
        <path id="Path_50620" data-name="Path 50620" d="M226.7,107.65,216.19,118.164v.345c.21,2.283,1.727,5.227,4.776,9.252l.526.676,15.441-15.456-.691-.526c-4.025-3-6.969-4.506-9.252-4.776Zm8.006,5.482L221.732,126.11a19.435,19.435,0,0,1-3.92-7.51l9.448-9.448a19.646,19.646,0,0,1,7.45,3.98Z" transform="translate(-186.255 -73.404)" fill="#263238"/>
        <path id="Path_50621" data-name="Path 50621" d="M213.308,120.846a13.278,13.278,0,0,0,7.931,5.047h.39l14.254-14.269-.12-.421a16.026,16.026,0,0,0-3-5.632c-5.768-7.4-30.641-11.625-31.707-11.806L199.7,93.54l.541,1.262C200.661,95.733,209.238,115.634,213.308,120.846Zm18.324-14.284a14.8,14.8,0,0,1,2.553,4.7l-13.007,13.007a11.761,11.761,0,0,1-6.639-4.4c-3.364-4.326-10.244-19.781-12.256-24.362,5.377,1.066,24.678,5.062,29.409,11.055Z" transform="translate(-194.533 -80.488)" fill="#263238"/>
      </g>
      <g id="freepik--icon-1--inject-127" transform="translate(169.185 99.835)">
        <rect id="Rectangle_4873" data-name="Rectangle 4873" width="119.529" height="130.419" fill="#0091ff"/>
        <rect id="Rectangle_4874" data-name="Rectangle 4874" width="119.529" height="130.419" fill="#fff" opacity="0.7"/>
        <path id="Path_50622" data-name="Path 50622" d="M140.1,99.205l-16.162,16.162a.571.571,0,0,0,.8.8L140.893,100a.571.571,0,0,0-.8-.8Z" transform="translate(-107.023 -77.697)" fill="#263238"/>
        <path id="Path_50623" data-name="Path 50623" d="M187.152,146.275q-8.066,8.1-16.116,16.161a.571.571,0,0,0,.8.8l16.162-16.162a.571.571,0,0,0-.8-.8Z" transform="translate(-83.379 -54.068)" fill="#263238"/>
        <path id="Path_50624" data-name="Path 50624" d="M186.528,116.057,170.381,99.9a.571.571,0,0,0-.8.8l16.147,16.162a.571.571,0,0,0,.8-.8Z" transform="translate(-84.107 -77.35)" fill="#263238"/>
        <path id="Path_50625" data-name="Path 50625" d="M139.463,163.127,123.3,146.965a.571.571,0,0,0-.8.8l16.147,16.162a.571.571,0,0,0,.8-.8Z" transform="translate(-107.741 -53.721)" fill="#263238"/>
        <g id="Group_4705" data-name="Group 4705" transform="translate(16.807 21.403)" opacity="0.5">
          <path id="Path_50626" data-name="Path 50626" d="M140.1,99.205l-16.162,16.162a.571.571,0,0,0,.8.8L140.893,100a.571.571,0,0,0-.8-.8Z" transform="translate(-123.829 -99.099)" fill="#fff"/>
        </g>
        <g id="Group_4706" data-name="Group 4706" transform="translate(87.551 92.102)" opacity="0.5">
          <path id="Path_50627" data-name="Path 50627" d="M187.152,146.275q-8.066,8.1-16.116,16.161a.571.571,0,0,0,.8.8l16.162-16.162a.571.571,0,0,0-.8-.8Z" transform="translate(-170.929 -146.169)" fill="#fff"/>
        </g>
        <g id="Group_4707" data-name="Group 4707" transform="translate(85.373 22.439)" opacity="0.5">
          <path id="Path_50628" data-name="Path 50628" d="M186.528,116.057,170.381,99.9a.571.571,0,0,0-.8.8l16.147,16.162a.571.571,0,0,0,.8-.8Z" transform="translate(-169.479 -99.789)" fill="#fff"/>
        </g>
        <g id="Group_4708" data-name="Group 4708" transform="translate(14.659 93.138)" opacity="0.5">
          <path id="Path_50629" data-name="Path 50629" d="M139.463,163.127,123.3,146.965a.571.571,0,0,0-.8.8l16.147,16.162a.571.571,0,0,0,.8-.8Z" transform="translate(-122.399 -146.859)" fill="#fff"/>
        </g>
        <path id="Path_50630" data-name="Path 50630" d="M187.724,147.548l24.032-24.032L223.772,111.5a.571.571,0,0,0-.8-.8l-36.048,36.048-15.365-15.365,29.409-29.394,12.016-12.016a.571.571,0,0,0-.8-.8q-20.7,20.728-41.44,41.44l-29.74-29.74L129.3,89.165a.571.571,0,0,0-.8.8l41.455,41.455L154.68,146.722Q142.2,134.21,129.687,121.729l-12.016-12.016a.571.571,0,0,0-.8.8q18.5,18.49,36.979,36.979l-24.933,24.948L116.9,184.452c-.511.511.285,1.322.8.8q18.5-18.475,36.979-36.979l15.365,15.365-30.385,30.34-12.016,12.016c-.526.511.285,1.307.8.8l42.311-42.326,30.34,30.34,12.016,12.016c.511.511,1.322-.285.8-.8l-42.326-42.326,15.365-15.365,24.3,24.3,11.716,11.716a.571.571,0,0,0,.811-.751Zm-16.958,15.365L155.4,147.548l15.365-15.365,15.365,15.365Z" transform="translate(-110.582 -82.737)" fill="#263238"/>
        <path id="Path_50631" data-name="Path 50631" d="M187.724,147.548l24.032-24.032L223.772,111.5a.571.571,0,0,0-.8-.8l-36.048,36.048-15.365-15.365,29.409-29.394,12.016-12.016a.571.571,0,0,0-.8-.8q-20.7,20.728-41.44,41.44l-29.74-29.74L129.3,89.165a.571.571,0,0,0-.8.8l41.455,41.455L154.68,146.722Q142.2,134.21,129.687,121.729l-12.016-12.016a.571.571,0,0,0-.8.8q18.5,18.49,36.979,36.979l-24.933,24.948L116.9,184.452c-.511.511.285,1.322.8.8q18.5-18.475,36.979-36.979l15.365,15.365-30.385,30.34-12.016,12.016c-.526.511.285,1.307.8.8l42.311-42.326,30.34,30.34,12.016,12.016c.511.511,1.322-.285.8-.8l-42.326-42.326,15.365-15.365,24.3,24.3,11.716,11.716a.571.571,0,0,0,.811-.751Zm-16.958,15.365L155.4,147.548l15.365-15.365,15.365,15.365Z" transform="translate(-110.582 -82.737)" fill="#fff" opacity="0.6"/>
      </g>
      <g id="freepik--Cursor--inject-127" transform="translate(237.661 228.391)">
        <rect id="Rectangle_4875" data-name="Rectangle 4875" width="13.728" height="13.728" transform="translate(25.504 30.926)" fill="#0091ff"/>
        <rect id="Rectangle_4876" data-name="Rectangle 4876" width="13.728" height="13.728" transform="translate(25.504 30.926)" fill="#fff" opacity="0.9"/>
        <path id="Path_50632" data-name="Path 50632" d="M189.79,205.61H174.77V190.59h15.02Zm-13.728-1.277h12.452V191.882H176.062Z" transform="translate(-149.927 -160.325)" fill="#263238"/>
        <path id="Path_50633" data-name="Path 50633" d="M186.173,196.24h-3.845v-3.83H180.42v3.83h-3.83v1.908h3.83v3.83h1.908v-3.83h3.845Z" transform="translate(-149.013 -159.411)" fill="#263238"/>
        <g id="Group_4709" data-name="Group 4709" transform="translate(24.843 30.265)" opacity="0.2">
          <path id="Path_50634" data-name="Path 50634" d="M189.79,205.61H174.77V190.59h15.02Zm-13.728-1.277h12.452V191.882H176.062Z" transform="translate(-174.77 -190.59)" fill="#fff"/>
          <path id="Path_50635" data-name="Path 50635" d="M186.173,196.24h-3.845v-3.83H180.42v3.83h-3.83v1.908h3.83v3.83h1.908v-3.83h3.845Z" transform="translate(-173.856 -189.676)" fill="#fff"/>
        </g>
        <path id="Path_50636" data-name="Path 50636" d="M184.485,181.269,158.23,170.44l10.829,26.255,3.785-8.937L183.584,198.5l2.7-2.7-10.739-10.739Z" transform="translate(-158.23 -170.44)" fill="#263238"/>
        <path id="Path_50637" data-name="Path 50637" d="M184.485,181.269,158.23,170.44l10.829,26.255,3.785-8.937L183.584,198.5l2.7-2.7-10.739-10.739Z" transform="translate(-158.23 -170.44)" fill="#fff" opacity="0.2"/>
      </g>
    </g>
  </g>
</svg>
