<?xml version="1.0" encoding="UTF-8"?><svg id="Layer_2" xmlns="http://www.w3.org/2000/svg" viewBox="0 0 28 28"><defs><style>.cls-1{fill:#0091ff;}.cls-2{fill:none;}</style></defs><g id="Layer_1-2"><g><rect class="cls-2" width="28" height="28"/><g><path class="cls-1" d="M27.71,20.21v6.91c-.2,.2-.39,.39-.59,.59h-6.91c-.46-.21-.63-.58-.59-1.08,.02-.28,0-.56,0-.86-4.01,1.77-7.94,1.66-11.83-.3-.58,.58-1.16,1.17-1.75,1.74-.19,.18-.41,.33-.62,.49h-.37c-.14-.08-.29-.14-.4-.25-1.37-1.36-2.74-2.73-4.11-4.11-.35-.35-.34-.81,0-1.17,.07-.08,.15-.15,.23-.23,.59-.59,1.17-1.17,1.75-1.75-1.97-3.91-2.07-7.85-.3-11.82C-.11,6.71-.27,3.61,1.45,1.73,2.28,.83,3.32,.33,4.54,.29c1.62-.05,2.89,.64,3.84,1.92,4.21-1.84,8.31-1.66,12.32,.58,.39-.66,.81-1.29,1.15-1.97,.35-.69,1.2-.73,1.59,0,.52,.98,1.12,1.92,1.69,2.89,.86,1.48,1.72,2.96,2.59,4.43v.37c-.3,.78-1,.57-1.61,.61,1.33,3.55,1.23,7.03-.33,10.48,.31,0,.59,.02,.87,0,.5-.04,.86,.13,1.08,.59Zm-18.71,4.04c.07,.04,.1,.07,.13,.08,3.49,1.55,6.93,1.46,10.33-.29,.15-.08,.17-.18,.17-.32,0-1.06,0-2.12,0-3.19,0-.59,.32-.91,.91-.91,1.04,0,2.09,0,3.13,0,.22,0,.33-.07,.42-.26,1.65-3.26,1.77-6.57,.38-9.95-.09-.21-.2-.29-.43-.29-1.82,.01-3.64,0-5.46,0-.15,0-.31,0-.45-.04-.51-.15-.7-.72-.41-1.22,.66-1.14,1.34-2.27,2.01-3.41,.05-.08,.09-.17,.13-.25-3.23-2.06-7.71-2.12-10.81-.48,.65,3.22-2.09,5.97-5.31,5.32-1.51,2.23-1.5,7.74,.02,9.94,.29-.29,.57-.59,.87-.88,.38-.37,.84-.37,1.21,0,1.35,1.35,2.7,2.7,4.05,4.05,.38,.38,.38,.84,0,1.23-.28,.29-.57,.56-.88,.86ZM7.53,4.72c0-1.55-1.25-2.81-2.8-2.82-1.56,0-2.83,1.26-2.84,2.81,0,1.55,1.25,2.81,2.8,2.82,1.57,0,2.83-1.24,2.83-2.81Zm13.71,21.36h4.84v-4.84h-4.84v4.84Zm-16.01-.39c.98-.98,1.97-1.97,2.93-2.93-.97-.97-1.95-1.96-2.93-2.94-.98,.98-1.97,1.96-2.93,2.93,.97,.98,1.96,1.96,2.93,2.94ZM22.64,2.67c-.96,1.63-1.9,3.22-2.85,4.84h5.69c-.95-1.62-1.89-3.21-2.85-4.84Z"/><path class="cls-1" d="M16.41,13.09c.74,.32,1.35,.76,1.83,1.37,.62,.79,.92,1.7,.94,2.7,0,.26,0,.52,0,.78-.01,.54-.34,.88-.87,.88-2.87,0-5.74,0-8.62,0-.47,0-.83-.27-.86-.71-.07-1.01-.02-2.02,.48-2.94,.48-.89,1.17-1.56,2.1-1.98,.05-.02,.09-.05,.16-.08-.04-.08-.08-.16-.12-.24-.56-1.03-.55-3.17,.64-4.13,.94-.75,1.97-.95,3.07-.47,1.09,.48,1.66,1.37,1.73,2.56,.04,.78,.01,1.56-.48,2.27Zm1.14,4.1s.02-.06,.02-.09c-.01-1.37-1.11-2.58-2.47-2.68-.71-.05-1.43-.05-2.14,0-.97,.06-1.69,.57-2.18,1.4-.25,.42-.36,.88-.34,1.37h7.11Zm-4.83-6.05c0,.17,0,.28,0,.4,.02,.7,.58,1.24,1.28,1.24,.7,0,1.26-.54,1.29-1.24,0-.23,.01-.46,0-.7-.04-.55-.31-.94-.83-1.14-.51-.2-.96-.09-1.36,.28-.35,.33-.42,.75-.39,1.15Z"/></g></g></g></svg>