<?xml version="1.0" encoding="UTF-8"?><svg id="Layer_2" xmlns="http://www.w3.org/2000/svg" viewBox="0 0 28 28"><defs><style>.cls-1{fill:#0091ff;}.cls-2{fill:none;}</style></defs><g id="Layer_1-2"><g><rect class="cls-2" width="28" height="28"/><g><path class="cls-1" d="M.15,13.13c.07-.52,.13-1.03,.21-1.55C1.28,6.05,5.78,1.46,11.29,.41c2.51-.47,4.97-.31,7.37,.55,.19,.07,.32,.06,.44-.1,.11-.13,.23-.25,.36-.36,.33-.3,.82-.29,1.13,.01,.3,.3,.31,.79,.02,1.13-.05,.06-.11,.12-.17,.17C14.23,8.03,8.02,14.24,1.8,20.45c-.15,.15-.35,.29-.56,.35-.34,.1-.68-.08-.85-.37-.18-.31-.14-.68,.1-.95,.14-.15,.3-.29,.43-.45,.05-.06,.1-.18,.07-.25-.45-1.24-.73-2.5-.81-3.82,0-.05-.03-.1-.04-.15,0-.56,0-1.12,0-1.68Zm2.12,4.44s.06,.02,.09,.04c.55-.55,1.11-1.11,1.65-1.67,.06-.06,.08-.2,.06-.29-.19-1.13-.18-2.26,.02-3.39,.94-5.43,6.15-9.12,11.56-8.19,.11,.02,.26-.04,.35-.11,.34-.32,.67-.66,1-.99,.21-.2,.43-.4,.64-.6-.02-.03-.04-.07-.06-.1-4.62-1.19-8.77-.31-12.19,3.09-3.42,3.42-4.3,7.58-3.11,12.21Zm3.3-3.29c2.9-2.9,5.81-5.81,8.7-8.7-4.5-.29-8.91,3.59-8.7,8.7Z"/><path class="cls-1" d="M13.19,27.85c-.51-.07-1.02-.1-1.52-.21-.78-.17-1.55-.38-2.32-.61-.2-.06-.33-.05-.47,.12-.1,.13-.22,.24-.34,.34-.34,.31-.84,.3-1.15-.02-.3-.31-.29-.79,0-1.13,.05-.05,.1-.1,.15-.15,6.21-6.21,12.42-12.42,18.64-18.62,.17-.17,.42-.32,.65-.38,.34-.08,.61,.09,.78,.4,.16,.29,.12,.65-.1,.91-.12,.14-.25,.28-.4,.4-.15,.13-.16,.25-.09,.42,.59,1.61,.84,3.27,.82,4.98-.08,6.3-4.71,11.93-10.88,13.21-.62,.13-1.26,.19-1.9,.28-.07,.01-.14,.03-.21,.05h-1.68Zm-2.82-2.19c4.17,1.35,9.51,.34,13.02-3.83,3.16-3.76,3.32-8.55,2.26-11.43-.55,.55-1.1,1.09-1.64,1.65-.06,.07-.09,.21-.07,.31,.26,1.62,.15,3.22-.37,4.78-1.6,4.77-6.25,7.57-11.23,6.79-.09-.01-.21,0-.27,.06-.56,.54-1.12,1.1-1.7,1.68Zm3.28-3.22c2.73,.03,5-.92,6.77-2.97,1.44-1.66,2.08-3.61,2.03-5.83-2.94,2.94-5.84,5.84-8.79,8.79Z"/><path class="cls-1" d="M9.73,17.87c.48,.48,.9,.9,1.32,1.32,.15,.15,.2,.32,.08,.52-.1,.17-.26,.23-.44,.18-.08-.02-.16-.08-.23-.14-.74-.74-1.48-1.48-2.22-2.21-.15-.15-.2-.32-.1-.51,.11-.2,.3-.24,.51-.2,.82,.15,1.64,.3,2.54,.47-.1-.11-.16-.17-.22-.23-.38-.37-.76-.74-1.14-1.12-.21-.21-.22-.44-.04-.62,.17-.16,.41-.15,.6,.04,.73,.71,1.45,1.42,2.18,2.14,.16,.16,.24,.35,.12,.56-.12,.22-.32,.27-.55,.22-.7-.13-1.4-.26-2.1-.39-.08-.01-.16-.02-.32-.04Z"/><path class="cls-1" d="M22.99,2.8c1.24,0,2.41,1.37,2.15,2.55-.06,.25-.2,.5-.36,.71-.19,.26-.44,.48-.67,.7-.22,.21-.42,.22-.64,0-.76-.74-1.51-1.5-2.26-2.25-.17-.17-.19-.38-.02-.56,.29-.3,.57-.61,.9-.85,.25-.18,.58-.25,.87-.37,0,.02,.02,.05,.03,.07Zm.8,3.11c.31-.3,.68-.56,.57-1.08-.11-.53-.68-1.11-1.19-1.21-.53-.1-.79,.27-1.06,.56,.57,.58,1.12,1.14,1.68,1.72Z"/><path class="cls-1" d="M6.68,18.7s.13,.03,.21,.06c1,.45,2,.9,3,1.35,.18,.08,.3,.2,.29,.41,0,.26-.25,.44-.51,.38-.03,0-.07-.02-.1-.04-.37-.28-.65-.15-.88,.19-.03,.04-.06,.07-.1,.1-.37,.28-.58,.57-.26,1.04,.12,.18-.01,.43-.21,.51-.21,.09-.43,0-.54-.23-.25-.54-.49-1.08-.73-1.62-.22-.48-.44-.96-.65-1.45-.15-.35,.06-.69,.46-.69Zm.71,1.18s-.03,.03-.05,.04c.13,.3,.27,.59,.4,.9,.19-.18,.36-.35,.55-.53-.32-.14-.61-.28-.9-.41Z"/><path class="cls-1" d="M13.4,16.61c-1,0-1.86-.75-1.99-1.71-.14-1.04,.47-1.99,1.46-2.26,.33-.09,.54,0,.62,.24,.08,.25-.05,.43-.39,.53-.53,.16-.87,.58-.9,1.09-.03,.52,.25,.99,.72,1.19,.45,.2,1.02,.12,1.34-.26,.15-.18,.24-.44,.28-.67,.05-.3,.18-.5,.43-.49,.24,0,.39,.19,.39,.49,.02,1.01-.87,1.85-1.96,1.84Z"/><path class="cls-1" d="M5.18,24.9c-1.04-.03-1.88-.79-2.03-1.84-.13-.94,.52-1.9,1.45-2.17,.3-.09,.51-.03,.61,.18,.12,.25,0,.49-.32,.59-.52,.15-.83,.48-.93,1.01-.1,.54,.24,1.11,.77,1.31,.54,.2,1.17,0,1.44-.48,.08-.15,.12-.34,.14-.51,.03-.29,.16-.44,.4-.44,.24,0,.39,.16,.41,.44,.05,.7-.45,1.45-1.19,1.73-.24,.09-.5,.13-.75,.19Z"/><path class="cls-1" d="M14.51,11.74c.22,.21,.39,.38,.61,.59,.17-.18,.34-.37,.53-.55,.21-.21,.44-.22,.62-.05,.17,.17,.16,.41-.05,.62-.18,.18-.37,.35-.57,.54,.21,.19,.4,.37,.63,.58,.17-.18,.37-.4,.57-.6,.22-.22,.47-.23,.64-.06,.17,.18,.15,.4-.06,.62-.28,.29-.57,.58-.86,.86-.24,.23-.44,.23-.68,0-.73-.72-1.46-1.45-2.18-2.18-.24-.24-.24-.44,0-.68,.28-.29,.57-.58,.86-.86,.22-.21,.44-.23,.62-.06,.18,.17,.16,.42-.05,.64-.2,.2-.4,.39-.62,.59Z"/><path class="cls-1" d="M20.04,6.19c.23,.22,.41,.39,.66,.62,.13-.16,.27-.33,.42-.49,.28-.29,.5-.33,.69-.14,.2,.2,.17,.42-.13,.71-.15,.15-.32,.29-.48,.43,.06,.08,.08,.11,.11,.13,.15,.16,.3,.31,.5,.52,.21-.22,.39-.44,.59-.64,.23-.23,.45-.26,.64-.08,.18,.17,.16,.42-.06,.64-.28,.28-.56,.56-.84,.84-.26,.25-.45,.25-.7,0-.73-.72-1.45-1.45-2.18-2.18-.24-.24-.24-.44,0-.68,.28-.29,.57-.58,.86-.86,.21-.21,.45-.22,.62-.06,.19,.18,.17,.41-.06,.64-.2,.2-.42,.39-.64,.59Z"/><path class="cls-1" d="M20,9.76c.17-.18,.31-.36,.47-.51,.2-.19,.43-.19,.6-.02,.16,.16,.16,.39-.02,.58-.25,.26-.5,.52-.76,.76-.21,.2-.41,.2-.62,0-.75-.74-1.49-1.49-2.24-2.24-.19-.19-.19-.43-.03-.6,.17-.17,.4-.16,.6,.03,.65,.65,1.3,1.3,1.99,1.99Z"/><path class="cls-1" d="M18.24,11.51c.17-.18,.31-.34,.46-.49,.2-.19,.43-.21,.6-.04,.17,.16,.17,.41-.01,.6-.24,.25-.49,.5-.74,.74-.23,.22-.43,.21-.66-.02-.73-.73-1.47-1.46-2.2-2.2-.21-.21-.22-.44-.04-.62,.18-.17,.41-.16,.62,.06,.65,.64,1.29,1.28,1.97,1.97Z"/></g></g></g></svg>