<?xml version="1.0" encoding="UTF-8"?><svg id="Layer_2" xmlns="http://www.w3.org/2000/svg" viewBox="0 0 28 28"><defs><style>.cls-1{fill:#0091ff;}.cls-2{fill:none;}</style></defs><g id="Layer_1-2"><g><rect class="cls-2" width="28" height="28"/><path class="cls-1" d="M26.86,2.47c-.44-.66-1.11-.94-1.89-.97-.05,0-.1,0-.16,0-7.21,0-14.42,0-21.64,0-1.03,0-1.83,.41-2.27,1.35-.15,.33-.23,.72-.23,1.08-.01,5.15-.01,10.29,0,15.44,0,1.43,1.01,2.44,2.45,2.44,2.12,0,4.24,0,6.35,0h.32c-.08,.25-.15,.48-.23,.7-.24,.72-.49,1.43-.71,2.15-.07,.22-.17,.29-.4,.28-.71-.02-1.42,0-2.13,0-.55,0-.91,.32-.9,.79,0,.46,.36,.77,.89,.77,5.14,0,10.28,0,15.41,0,.53,0,.88-.32,.88-.79,0-.46-.36-.77-.89-.78-.74,0-1.48,0-2.21,0-.17,0-.26-.04-.31-.22-.29-.91-.6-1.81-.9-2.71-.02-.06-.03-.11-.05-.2h.3c2.12,0,4.24,0,6.35,0,1.01,0,1.77-.43,2.23-1.34,.11-.23,.16-.49,.24-.74V3.58c-.15-.37-.25-.78-.47-1.11ZM10.4,24.92c.34-1.01,.66-2,1-2.99,.02-.05,.13-.11,.19-.11,1.6,0,3.19,0,4.79,0,.07,0,.19,.06,.21,.12,.34,.98,.66,1.97,1,2.98h-7.19Zm15.34-5.29c-.04,.35-.35,.59-.71,.62-.09,0-.17,0-.26,0H3.23c-.73,0-1-.27-1-1.01,0-.17,0-.35,0-.54H25.75c0,.31,.03,.62,0,.93ZM9.08,12.53c-.2-.2-.4-.38-.58-.56,.38-.38,.74-.74,1.12-1.12,.19,.19,.39,.4,.6,.61,.35,.34,.63,.37,1.08,.17,.42-.19,.84-.37,1.27-.53,.46-.17,.64-.4,.65-.88,0-.27,0-.54,0-.81,0-.02,0-.03,.01-.07h1.55c0,.29,0,.58,0,.88,0,.48,.19,.71,.65,.88,.43,.16,.85,.34,1.27,.53,.44,.21,.73,.18,1.08-.17,.2-.2,.4-.41,.58-.59,.38,.38,.74,.74,1.13,1.12-.18,.17-.39,.37-.6,.58-.34,.34-.37,.63-.17,1.06,.2,.43,.38,.87,.55,1.32,.16,.42,.4,.61,.86,.62,.29,0,.59,0,.9,0v1.55h-3.18c.22-1.49-.19-2.75-1.33-3.74-.79-.68-1.72-.98-2.77-.92-2.16,.12-4.06,2.17-3.6,4.66h-3.16v-1.54c.27,0,.54,0,.81,0,.56,0,.78-.18,.97-.72,.14-.39,.3-.78,.48-1.15,.24-.5,.21-.78-.17-1.17Zm7.19,4.4c-.04,.16-.1,.2-.26,.2-.67,0-1.34,0-2,0s-1.34,0-2,0c-.16,0-.22-.04-.26-.2-.29-1.1,.31-2.33,1.38-2.75,1.1-.44,2.36,0,2.92,1.02,.3,.55,.38,1.12,.23,1.73Zm9.51-.09v.27h-3.18v-1.96c0-.11,0-.23,0-.34-.01-.49-.33-.81-.83-.81-.31,0-.63-.01-.94,0-.18,.01-.26-.06-.32-.22-.18-.45-.19-.45,.17-.8,.17-.17,.35-.34,.51-.52,.29-.32,.31-.75,.01-1.06-.74-.77-1.5-1.52-2.26-2.26-.31-.3-.74-.27-1.06,.02-.24,.22-.47,.46-.7,.7-.11,.12-.2,.15-.36,.08-.47-.2-.47-.19-.47-.72,0-.23,0-.47,0-.7-.02-.43-.33-.76-.77-.76-1.05-.01-2.1-.01-3.15,0-.43,0-.75,.33-.76,.76-.01,.34-.01,.68,0,1.02,0,.15-.05,.23-.19,.29-.48,.2-.48,.2-.85-.17-.17-.17-.33-.34-.5-.49-.33-.3-.76-.31-1.08,0-.75,.73-1.5,1.48-2.23,2.23-.32,.33-.3,.76,.01,1.1,.22,.23,.44,.46,.68,.68,.13,.12,.15,.22,.08,.38-.2,.45-.19,.46-.68,.46-.19,0-.38,0-.57,0-.63,0-.93,.29-.93,.92,0,.64,0,1.28,0,1.93v.27H2.23v-.27c0-4.27,0-8.54,0-12.81,0-.68,.28-.96,.96-.96,7.2,0,14.41,0,21.61,0,.68,0,.96,.28,.96,.96,0,4.27,0,8.54,0,12.81Zm-3.97-12.21c-1.28,.01-2.34,1.07-2.33,2.35,0,1.29,1.09,2.36,2.36,2.34,1.28-.02,2.33-1.09,2.32-2.36-.02-1.28-1.08-2.34-2.35-2.33Zm.02,3.12c-.42,0-.78-.35-.79-.77,0-.42,.35-.78,.77-.79,.42,0,.78,.35,.79,.77,0,.42-.35,.78-.77,.79Z"/></g></g></svg>