<?xml version="1.0" encoding="UTF-8"?><svg id="Layer_2" xmlns="http://www.w3.org/2000/svg" viewBox="0 0 28.3 28"><defs><style>.cls-1{fill:#0091ff;}.cls-2{fill:none;}</style></defs><g id="Layer_1-2"><g><rect class="cls-2" width="28.3" height="28"/><g><path class="cls-1" d="M.54,15.01c.14-.35,.22-.73,.42-1.03,.24-.36,.59-.65,.9-.99-.48-.81-.32-1.75-.25-2.67,.06-.78,.77-1.4,1.56-1.5,.62-.08,1.25-.11,1.83,.25,1.79-3.24,4.48-5.09,8.22-5.08,3.73,0,6.4,1.87,8.19,5.14,.45-.33,.98-.35,1.53-.34,1.09,.01,1.8,.64,1.88,1.72,.04,.55,.03,1.12,0,1.67-.02,.3-.14,.6-.23,.94,.39,.26,.79,.61,.99,1.11,.13,.33,.24,.7,.26,1.05,.04,.81,.02,1.62,.02,2.43,0,.48-.2,.68-.68,.68-1,0-2,0-3.01,0-.09,0-.19,0-.35,0,.1,.11,.16,.18,.22,.24,1.65,1.65,3.3,3.3,4.95,4.95,.43,.43,.43,.67,0,1.1-.75,.75-1.5,1.5-2.25,2.26-.43,.43-.67,.44-1.1,0-1.93-1.93-3.87-3.87-5.8-5.81-.14-.14-.24-.16-.42-.07-3.95,2.05-8.64,1.03-11.39-2.47-.13-.16-.26-.22-.46-.22-1.42,0-2.84,0-4.26,0-.34,0-.61-.08-.78-.4,0-.99,0-1.99,0-2.98Zm25.46,9.08c-.09-.07-.17-.12-.24-.18-1.84-1.84-3.67-3.67-5.51-5.51-.59-.59-.59-.61-.17-1.33,1.02-1.75,1.32-3.64,.92-5.62-.34-1.72-1.17-3.18-2.5-4.33-2.26-1.96-4.86-2.57-7.7-1.65-3.06,.98-4.92,3.15-5.46,6.33-.45,2.66,.34,5,2.24,6.9,2.59,2.6,6.5,3.06,9.67,1.21,.48-.28,.64-.26,1.03,.13,1.89,1.89,3.78,3.78,5.67,5.68,.07,.07,.1,.18,.14,.25,.67-.67,1.26-1.25,1.89-1.88ZM5.15,17.27c-.14-.32-.28-.61-.39-.9-.29-.74-.49-1.5-.57-2.29-.02-.17-.08-.24-.26-.23-.29,.02-.59,0-.89,.02-.68,.05-1.28,.52-1.35,1.2-.07,.73-.02,1.47-.02,2.21h3.47Zm17.09-3.46c-.12,1.25-.45,2.38-1.01,3.46h3.51c0-.71,.04-1.39-.01-2.08-.05-.62-.42-1.09-1.03-1.25-.46-.12-.96-.09-1.46-.13Zm1.49-2.49c0-.25,0-.5,0-.76,0-.25-.12-.45-.34-.58-.29-.17-1.11-.12-1.38,.08-.13,.1-.17,.21-.13,.38,.13,.54,.23,1.09,.34,1.63,.04,.21,0,.53,.13,.62,.16,.11,.45,.06,.69,.05,.43,0,.68-.26,.69-.68,0-.24,0-.49,0-.73ZM3.74,9.86s0,.02,0,.04c-.05,0-.1,0-.16,0-.61,0-.91,.3-.91,.91,0,.24,.01,.49,0,.73-.07,1.05,.37,1.25,1.25,1.2,0,0,.02,0,.03,0,.14,.01,.18-.05,.21-.19,.12-.73,.24-1.45,.39-2.17,.04-.2,0-.32-.17-.38-.2-.07-.42-.09-.63-.14Z"/><path class="cls-1" d="M18.41,4.14c-.4-.05-.68-.41-.53-.75,.17-.38,.39-.74,.62-1.08,.16-.23,.44-.27,.68-.14,.23,.13,.35,.42,.23,.67-.18,.36-.37,.71-.6,1.04-.08,.12-.26,.17-.4,.26Z"/><path class="cls-1" d="M7.97,4.15c-.15-.11-.33-.19-.43-.33-.2-.27-.36-.58-.51-.88-.16-.31-.07-.62,.19-.77,.26-.15,.56-.07,.74,.21,.19,.29,.37,.59,.52,.9,.19,.39-.06,.8-.51,.86Z"/><path class="cls-1" d="M12.66,1.65c0-.2-.02-.4,0-.6,.03-.28,.24-.46,.51-.47,.27-.01,.52,.15,.54,.42,.03,.42,.03,.85,0,1.27-.02,.26-.28,.45-.53,.44-.26,0-.48-.2-.51-.47-.02-.2,0-.4,0-.6,0,0,0,0,0,0Z"/><path class="cls-1" d="M13.21,6.44c3.64,.02,6.61,3,6.58,6.62-.02,3.64-2.96,6.57-6.59,6.58-3.63,.01-6.63-3-6.6-6.63,.03-3.63,3-6.59,6.61-6.57Zm-4.94,9.02c.65-1.05,1.63-1.49,2.77-1.66-.08-.17-.15-.32-.21-.47-.27-.68-.21-1.39-.19-2.09,.04-1.47,.96-2.45,2.28-2.54,1.53-.11,2.63,.74,2.78,2.22,.1,.97,.17,1.97-.37,2.88,1.17,.18,2.15,.63,2.78,1.66,1.03-1.98,.72-4.81-1.36-6.61-1.96-1.69-4.87-1.74-6.99-.1-1.99,1.54-2.64,4.41-1.49,6.71Zm4.8,3.08c1.58-.02,2.83-.52,3.89-1.5,.44-.4,.46-.65,.11-1.15,0-.01-.02-.03-.03-.04-.4-.55-.98-.78-1.62-.92-.16-.03-.23,0-.32,.14-.43,.69-.9,1.37-1.31,2.08-.38,.66-.91,.58-1.22,.01-.33-.59-.72-1.15-1.09-1.72-.38-.6-.38-.61-1.06-.36-.66,.24-1.18,.63-1.36,1.35-.02,.1,.01,.26,.09,.34,1.09,1.17,2.44,1.75,3.9,1.78Zm1.63-6.76s-.03,0-.05,0c0-.21,.01-.42,0-.63-.05-.8-.5-1.28-1.25-1.35-.88-.08-1.5,.3-1.6,1.08-.07,.59-.07,1.2,0,1.79,.08,.7,.58,1.07,1.29,1.08,.1,0,.19,0,.29,0,.57-.02,1-.29,1.16-.84,.11-.36,.12-.75,.17-1.13Zm-1.5,4.26c.26-.42,.5-.79,.74-1.18h-1.49c.25,.4,.49,.77,.75,1.18Z"/></g></g></g></svg>