<?xml version="1.0" encoding="UTF-8"?><svg id="Layer_2" xmlns="http://www.w3.org/2000/svg" viewBox="0 0 31.91 29.02"><defs><style>.cls-1{fill:none;stroke:#0091ff;stroke-width:2.13px;}</style></defs><g id="Layer_1-2"><g><path class="cls-1" d="M30.85,14.51c0,3.53-6.67,6.38-14.89,6.38S1.06,18.04,1.06,14.51s6.67-6.38,14.89-6.38,14.89,2.86,14.89,6.38Z"/><path class="cls-1" d="M8.86,27.61c3.1,1.68,8.79-2.82,12.71-10.06,3.92-7.23,4.58-14.46,1.48-16.14-3.1-1.68-8.79,2.82-12.71,10.06-3.92,7.23-4.58,14.46-1.48,16.14Z"/><path class="cls-1" d="M23.05,27.61c-3.1,1.68-8.79-2.82-12.71-10.06C6.43,10.32,5.76,3.09,8.86,1.42c3.1-1.68,8.79,2.82,12.71,10.06,3.92,7.23,4.58,14.46,1.48,16.14Z"/><path class="cls-1" d="M13.83,14.51c0,1.18,.95,2.13,2.13,2.13s2.13-.95,2.13-2.13-.95-2.13-2.13-2.13-2.13,.95-2.13,2.13Z"/></g></g></svg>