<?xml version="1.0" encoding="UTF-8"?><svg id="Layer_2" xmlns="http://www.w3.org/2000/svg" viewBox="0 0 28 28"><defs><style>.cls-1{stroke:#0091ff;stroke-miterlimit:10;stroke-width:.34px;}.cls-1,.cls-2{fill:none;}.cls-3{fill:#0091ff;}</style></defs><g id="Layer_1-2"><g><rect class="cls-2" width="28" height="28"/><g><path class="cls-3" d="M15.28,16.63c-.85,0-1.7,0-2.55,0-.55,0-.92,.36-.93,.91,0,.26,0,.53,0,.8,.01,.56,.36,.91,.92,.92,.42,0,.84,0,1.26,0h1.26s.03,0,.05,0c.53-.02,.88-.35,.91-.88,.01-.28,.01-.56,0-.85-.02-.54-.38-.89-.92-.9Zm.02,1.73h-2.61v-.85h2.61v.85Zm-2.58-2.61c.43,0,.86,0,1.29,0s.86,0,1.29,0c.52,0,.88-.34,.9-.86,.02-.3,.02-.6,0-.9-.03-.53-.39-.87-.92-.87-.86,0-1.71,0-2.57,0-.52,0-.88,.34-.9,.86-.02,.3-.01,.6,0,.9,.02,.53,.39,.86,.92,.87Zm-.03-1.74h2.61v.85h-2.61v-.85Zm-1.56-5.71c.21,0,.41,0,.66,0v.31c0,.89,0,1.78,0,2.67,0,.62,.36,.97,.98,.97,.81,0,1.61,0,2.42,0,.65,0,1-.35,1-1,0-.88,0-1.76,0-2.65v-.3c.25,0,.47,0,.69,0,.62-.01,1.18-.39,1.39-.96,.22-.61,.1-1.14-.37-1.59-.93-.89-1.85-1.78-2.79-2.67-.67-.64-1.59-.63-2.26,0-.93,.88-1.85,1.76-2.77,2.65-.48,.46-.61,1.05-.38,1.62,.24,.58,.78,.95,1.43,.96Zm-.41-1.97c.91-.86,1.81-1.73,2.71-2.59,.37-.35,.74-.35,1.11,0,.9,.86,1.8,1.73,2.71,2.59,.21,.2,.31,.41,.2,.69-.11,.27-.33,.4-.63,.4-.33,0-.65,0-.98,0-.38,0-.53,.15-.53,.53,0,1.04,0,2.07,0,3.11v.3h-2.64v-.31c0-1.01,0-2.02,0-3.03,0-.46-.13-.6-.59-.6-.3,0-.6,0-.9,0-.32,0-.56-.15-.65-.41-.1-.28,0-.49,.2-.69Zm15.57,15.56v-.32c0-4.97,0-9.95,0-14.92,0-1.11-.66-1.98-1.69-2.23-.21-.05-.42-.06-.64-.07-.7,0-1.41,0-2.11-.01-.12,0-.28-.07-.37-.16-1.61-1.75-3.58-2.81-5.92-3.21-.3-.05-.61-.08-.91-.13h-1.34c-.43,.07-.86,.12-1.29,.2-2.14,.43-3.96,1.44-5.44,3.04-.17,.18-.34,.27-.59,.26-.81,0-1.62-.04-2.42,.04-1.07,.1-1.86,1.02-1.89,2.1,0,.34,0,.68,0,1.03,0,4.68,0,9.36,0,14.05v.32c-.46,.04-.73,.29-.88,.7v1.9c.1,.31,.17,.63,.31,.92,.56,1.13,1.49,1.75,2.75,1.75,6.75,.02,13.5,.01,20.24,0,1.47,0,2.72-1.05,3-2.5,.01-.06,.03-.11,.05-.17v-1.9c-.15-.39-.4-.66-.88-.69ZM14.01,1.72c5.1,0,9.23,4.14,9.21,9.23-.02,5.09-4.14,9.2-9.23,9.19-5.11-.01-9.23-4.14-9.21-9.22,.01-5.08,4.15-9.19,9.23-9.19ZM2.58,21.6c0-4.97,0-9.95,0-14.92,0-.91,.54-1.45,1.46-1.45,.52,0,1.05,0,1.63,0-1.69,2.59-2.18,5.36-1.42,8.31,.56,2.17,1.75,3.97,3.54,5.34,3.66,2.82,8.68,2.87,12.29,.13,2.14-1.63,3.46-3.77,3.9-6.42,.44-2.64-.13-5.08-1.6-7.31,.7,0,1.37-.05,2.04,.01,.56,.05,.98,.6,1.02,1.19,0,.09,0,.17,0,.26,0,4.95,0,9.9,0,14.85v.3H2.58v-.27Zm14.38,2.49c-1.94-.02-3.87-.03-5.81,0-.85,.01-1.22-.53-1.08-1.31h7.84c.21,.86-.35,1.31-.96,1.31Zm9.24,.59c-.2,.93-1.05,1.55-2,1.6-.06,0-.12,0-.18,0-6.67,0-13.35,0-20.02,0-1.11,0-2.04-.67-2.22-1.69-.1-.58-.07-1.19-.1-1.8h7.49c0,.13,0,.27,0,.4,.02,1,.75,1.76,1.76,1.77,2.05,.01,4.1,.01,6.15,0,1.01,0,1.74-.76,1.76-1.76,0-.13,0-.25,0-.4h7.51c-.04,.64-.02,1.28-.15,1.89Zm-18.35-1.03c-.21,0-.43,0-.64,0-.21,0-.43,0-.64,0-.27,0-.45,.17-.46,.42,0,.24,.17,.44,.43,.45,.45,.01,.89,.01,1.34,0,.26,0,.43-.22,.42-.46-.01-.23-.18-.4-.44-.41Zm-4.84,0c-.23,0-.42,.2-.42,.43,0,.24,.21,.44,.44,.44,.24,0,.43-.21,.43-.45,0-.25-.2-.43-.45-.42Zm1.77,0c-.23,0-.43,.19-.43,.42,0,.23,.2,.45,.43,.45,.24,0,.44-.19,.44-.44,0-.25-.19-.44-.44-.43Z"/><path class="cls-1" d="M15.28,16.63c-.85,0-1.7,0-2.55,0-.55,0-.92,.36-.93,.91,0,.26,0,.53,0,.8,.01,.56,.36,.91,.92,.92,.42,0,.84,0,1.26,0h1.26s.03,0,.05,0c.53-.02,.88-.35,.91-.88,.01-.28,.01-.56,0-.85-.02-.54-.38-.89-.92-.9Zm.02,1.73h-2.61v-.85h2.61v.85Zm-2.58-2.61c.43,0,.86,0,1.29,0s.86,0,1.29,0c.52,0,.88-.34,.9-.86,.02-.3,.02-.6,0-.9-.03-.53-.39-.87-.92-.87-.86,0-1.71,0-2.57,0-.52,0-.88,.34-.9,.86-.02,.3-.01,.6,0,.9,.02,.53,.39,.86,.92,.87Zm-.03-1.74h2.61v.85h-2.61v-.85Zm-1.56-5.71c.21,0,.41,0,.66,0v.31c0,.89,0,1.78,0,2.67,0,.62,.36,.97,.98,.97,.81,0,1.61,0,2.42,0,.65,0,1-.35,1-1,0-.88,0-1.76,0-2.65v-.3c.25,0,.47,0,.69,0,.62-.01,1.18-.39,1.39-.96,.22-.61,.1-1.14-.37-1.59-.93-.89-1.85-1.78-2.79-2.67-.67-.64-1.59-.63-2.26,0-.93,.88-1.85,1.76-2.77,2.65-.48,.46-.61,1.05-.38,1.62,.24,.58,.78,.95,1.43,.96Zm-.41-1.97c.91-.86,1.81-1.73,2.71-2.59,.37-.35,.74-.35,1.11,0,.9,.86,1.8,1.73,2.71,2.59,.21,.2,.31,.41,.2,.69-.11,.27-.33,.4-.63,.4-.33,0-.65,0-.98,0-.38,0-.53,.15-.53,.53,0,1.04,0,2.07,0,3.11v.3h-2.64v-.31c0-1.01,0-2.02,0-3.03,0-.46-.13-.6-.59-.6-.3,0-.6,0-.9,0-.32,0-.56-.15-.65-.41-.1-.28,0-.49,.2-.69Zm15.57,15.56v-.32c0-4.97,0-9.95,0-14.92,0-1.11-.66-1.98-1.69-2.23-.21-.05-.42-.06-.64-.07-.7,0-1.41,0-2.11-.01-.12,0-.28-.07-.37-.16-1.61-1.75-3.58-2.81-5.92-3.21-.3-.05-.61-.08-.91-.13h-1.34c-.43,.07-.86,.12-1.29,.2-2.14,.43-3.96,1.44-5.44,3.04-.17,.18-.34,.27-.59,.26-.81,0-1.62-.04-2.42,.04-1.07,.1-1.86,1.02-1.89,2.1,0,.34,0,.68,0,1.03,0,4.68,0,9.36,0,14.05v.32c-.46,.04-.73,.29-.88,.7v1.9c.1,.31,.17,.63,.31,.92,.56,1.13,1.49,1.75,2.75,1.75,6.75,.02,13.5,.01,20.24,0,1.47,0,2.72-1.05,3-2.5,.01-.06,.03-.11,.05-.17v-1.9c-.15-.39-.4-.66-.88-.69ZM14.01,1.72c5.1,0,9.23,4.14,9.21,9.23-.02,5.09-4.14,9.2-9.23,9.19-5.11-.01-9.23-4.14-9.21-9.22,.01-5.08,4.15-9.19,9.23-9.19ZM2.58,21.6c0-4.97,0-9.95,0-14.92,0-.91,.54-1.45,1.46-1.45,.52,0,1.05,0,1.63,0-1.69,2.59-2.18,5.36-1.42,8.31,.56,2.17,1.75,3.97,3.54,5.34,3.66,2.82,8.68,2.87,12.29,.13,2.14-1.63,3.46-3.77,3.9-6.42,.44-2.64-.13-5.08-1.6-7.31,.7,0,1.37-.05,2.04,.01,.56,.05,.98,.6,1.02,1.19,0,.09,0,.17,0,.26,0,4.95,0,9.9,0,14.85v.3H2.58v-.27Zm14.38,2.49c-1.94-.02-3.87-.03-5.81,0-.85,.01-1.22-.53-1.08-1.31h7.84c.21,.86-.35,1.31-.96,1.31Zm9.24,.59c-.2,.93-1.05,1.55-2,1.6-.06,0-.12,0-.18,0-6.67,0-13.35,0-20.02,0-1.11,0-2.04-.67-2.22-1.69-.1-.58-.07-1.19-.1-1.8h7.49c0,.13,0,.27,0,.4,.02,1,.75,1.76,1.76,1.77,2.05,.01,4.1,.01,6.15,0,1.01,0,1.74-.76,1.76-1.76,0-.13,0-.25,0-.4h7.51c-.04,.64-.02,1.28-.15,1.89Zm-18.35-1.03c-.21,0-.43,0-.64,0-.21,0-.43,0-.64,0-.27,0-.45,.17-.46,.42,0,.24,.17,.44,.43,.45,.45,.01,.89,.01,1.34,0,.26,0,.43-.22,.42-.46-.01-.23-.18-.4-.44-.41Zm-4.84,0c-.23,0-.42,.2-.42,.43,0,.24,.21,.44,.44,.44,.24,0,.43-.21,.43-.45,0-.25-.2-.43-.45-.42Zm1.77,0c-.23,0-.43,.19-.43,.42,0,.23,.2,.45,.43,.45,.24,0,.44-.19,.44-.44,0-.25-.19-.44-.44-.43Z"/></g></g></g></svg>