<?xml version="1.0" encoding="UTF-8"?><svg id="Layer_2" xmlns="http://www.w3.org/2000/svg" viewBox="0 0 28 28"><defs><style>.cls-1{fill:#0091ff;}.cls-2{fill:none;}</style></defs><g id="Layer_1-2"><g><rect class="cls-2" width="28" height="28"/><rect class="cls-2" x=".36" y=".36" width="27.28" height="27.28"/><path class="cls-1" d="M25.34,7.06c-.02-.55-.21-1.06-.54-1.5-.58-.78-1.4-1.12-2.36-1.18-2.33-.15-4.46-.83-6.31-2.27-.4-.31-.76-.67-1.16-.96-.53-.38-1.12-.45-1.7-.15-.35,.18-.65,.46-.95,.72-.67,.57-1.39,1.07-2.18,1.46-1.46,.74-3.02,1.11-4.65,1.19-1.75,.09-2.91,1.39-2.89,2.97,.02,1.63-.03,3.26,.02,4.89,.05,1.74,.29,3.45,.78,5.13,.9,3.06,2.62,5.56,5.29,7.41,1.54,1.07,3.22,1.87,5.03,2.42h.52c.15-.04,.3-.08,.45-.13,1.45-.51,2.84-1.15,4.13-1.98,1.92-1.24,3.44-2.83,4.54-4.82,1.24-2.24,1.74-4.67,1.94-7.18,.16-2.01,.11-4.01,.05-6.02Zm-1.93,8.31c-.79,4.28-3.13,7.43-7.13,9.35-.67,.32-1.38,.58-2.07,.86-.12,.05-.28,.06-.4,.02-1.85-.63-3.58-1.49-5.08-2.75-2.08-1.73-3.34-3.94-3.98-6.52-.49-1.98-.62-4-.62-6.03,0-1.02,.03-2.04,.05-3.06,.01-.71,.42-1.18,1.14-1.28,.81-.12,1.63-.17,2.43-.33,2.24-.44,4.2-1.45,5.87-2.99,.35-.32,.36-.32,.71,0,1.67,1.54,3.62,2.55,5.86,2.99,.8,.16,1.62,.21,2.43,.33,.72,.1,1.14,.57,1.14,1.28,0,.96,0,1.92,0,2.88,.05,1.76-.04,3.52-.36,5.25Z"/><path class="cls-1" d="M20.68,14.19c0,3.61-2.98,6.55-6.68,6.57-3.66,.02-6.72-2.99-6.69-6.58,.03-3.63,3.03-6.57,6.69-6.56,3.68,.01,6.67,2.96,6.68,6.57Zm-1.58,0c0-2.77-2.32-5.04-5.12-5.02-2.82,.02-5.08,2.25-5.1,5.02-.02,2.75,2.29,5.03,5.11,5.03,2.81,0,5.12-2.27,5.11-5.03Z"/><path class="cls-1" d="M12.91,15.26c.07-.11,.11-.2,.18-.26,.91-.9,1.82-1.8,2.74-2.69,.07-.07,.15-.15,.23-.21,.32-.24,.74-.21,1.03,.06,.28,.27,.31,.7,.08,1.01-.05,.07-.12,.13-.18,.19-1.15,1.13-2.29,2.26-3.44,3.38-.46,.45-.87,.46-1.33,0-.43-.42-.86-.85-1.29-1.28-.22-.22-.28-.49-.19-.78,.1-.3,.32-.47,.62-.52,.28-.05,.51,.06,.71,.25,.26,.26,.52,.52,.85,.84Z"/></g></g></svg>