<?xml version="1.0" encoding="UTF-8"?><svg id="Layer_2" xmlns="http://www.w3.org/2000/svg" viewBox="0 0 48 48"><defs><style>.cls-1{fill:none;}.cls-2{fill:#b3b3b3;}</style></defs><g id="Layer_1-2"><g><rect class="cls-1" width="48" height="48"/><path class="cls-2" d="M46.07,18.85c-.05-.9-.74-1.62-1.63-1.69-.89-.07-1.7,.53-1.87,1.41-.04,.21-.03,.44-.03,.66,0,5.42,0,10.84,0,16.26v.5c-.09-.01-.15,0-.2-.03-.94-.41-1.92-.52-2.93-.51-10.64,0-21.28,0-31.91,0-1.82,0-3.14-1.32-3.14-3.1,0-1.77,1.32-3.07,3.12-3.08,.97,0,1.95,0,2.92,0,1.31,0,2.01-.7,2.01-2.02,0-4.95,0-9.9,0-14.85v-.54h.58c3.74,0,7.48,0,11.23,0,.97,0,1.72-.68,1.8-1.6,.08-.9-.53-1.72-1.43-1.9-.2-.04-.41-.03-.62-.03-3.67,0-7.34,0-11.01,0h-.55c0-1.27,0-2.49,0-3.71,0-1.11-.75-1.85-1.86-1.86-1.08,0-2.15,0-3.23,0-2.96,.02-5.54,2.04-6.29,4.9-.07,.28-.14,.56-.21,.85v24.75c.07,.3,.14,.59,.22,.89,.79,2.9,3.35,4.85,6.4,4.86,8.65,0,17.29,0,25.94,0h.58v.49c0,2.11,.03,4.21-.01,6.32-.02,1.1,.37,1.85,1.43,2.2h5.22c.05-.02,.1-.06,.16-.07,3.28-.59,5.32-3.03,5.32-6.37,0-7.44,0-14.88,0-22.32,0-.13,0-.27,0-.4ZM4.34,25.94c0-5.46,0-10.92,0-16.38,0-2.03,1.24-3.27,3.27-3.27,.39,0,.79,0,1.22,0V25.73c-1.53-.03-3.05-.06-4.49,.74v-.54Zm38.16,16.25c-.21,1.31-1.27,2.25-2.59,2.27-.79,.01-1.58,0-2.41,0v-5.48c1.08,.07,2.17-.18,3.23,.16,1.26,.4,1.99,1.71,1.77,3.05ZM25.18,23.41c.56,.58,1.24,.63,2,.42,1.84-.53,3.67-1.08,5.53-1.52,1.24-.29,2.21-.87,3.1-1.78,2.83-2.91,5.73-5.76,8.62-8.63,1.08-1.07,1.62-2.36,1.65-3.67,0-2.34-1.27-4.28-3.28-5.06-2.12-.83-4.09-.49-5.71,1.1-3.26,3.18-6.46,6.41-9.67,9.64-.27,.27-.48,.64-.59,1.01-.68,2.17-1.32,4.36-2,6.53-.23,.74-.19,1.4,.36,1.97ZM42.01,6.8c.8,.8,.68,1.92-.29,2.78-.85-.84-1.67-1.65-2.49-2.47,.85-.97,1.98-1.11,2.78-.31Zm-12.39,10.98c.24-1.12,.81-1.98,1.64-2.77,1.82-1.73,3.56-3.55,5.3-5.3,.86,.85,1.68,1.68,2.51,2.51-1.33,1.33-2.71,2.72-4.09,4.11-.54,.54-1.11,1.06-1.62,1.63-.47,.53-1.03,.83-1.71,.98-.84,.19-1.67,.45-2.58,.7,.2-.66,.42-1.25,.54-1.85Z"/></g></g></svg>