<?xml version="1.0" encoding="UTF-8"?><svg id="Layer_2" xmlns="http://www.w3.org/2000/svg" viewBox="0 0 40 40"><defs><style>.cls-1{fill:#fff;}.cls-2{fill:none;}</style></defs><g id="Layer_1-2"><g><rect class="cls-2" width="40" height="40"/><path class="cls-1" d="M37.03,1.72c-1.21,.03-2.41,0-3.62,.01-.8,0-1.2,.4-1.2,1.21,0,.27,0,.55,0,.84-.12,0-.21,.01-.29,.01-2.64,0-5.29,0-7.93,0-.23,0-.33-.07-.43-.28-.57-1.15-1.52-1.78-2.8-1.78s-2.22,.63-2.81,1.78c-.07,.14-.1,.28-.32,.28-2.76,0-5.52,0-8.33,0,0-.29,0-.57,0-.85,0-.81-.4-1.21-1.2-1.21-1.21,0-2.41,.02-3.62-.01-.64-.02-1.11,.17-1.39,.77V7.18c.28,.6,.75,.78,1.39,.77,1.2-.03,2.39,0,3.59-.01,.84,0,1.23-.39,1.23-1.22,0-.28,0-.56,0-.83h4.18c-.57,.46-1.15,.87-1.68,1.34-2.6,2.37-4.09,5.32-4.43,8.83-.03,.27-.11,.42-.37,.53-1.52,.69-2.21,2.61-1.48,4.08,.81,1.63,2.71,2.27,4.26,1.43,1.1-.6,1.66-1.55,1.65-2.78-.02-1.25-.64-2.18-1.77-2.74-.19-.09-.26-.19-.22-.39,.1-.56,.16-1.14,.3-1.69,.77-2.86,2.39-5.13,4.86-6.79,1.04-.69,2.16-1.19,3.38-1.49,.63,1.09,1.54,1.7,2.78,1.7,1.26,0,2.17-.63,2.8-1.71,2.74,.75,4.91,2.27,6.52,4.58,1.13,1.62,1.8,3.42,2.01,5.39,.02,.2-.03,.3-.22,.39-1.64,.79-2.26,2.69-1.39,4.28,.65,1.18,1.96,1.79,3.33,1.54,1.3-.24,2.28-1.34,2.46-2.75,.16-1.23-.59-2.55-1.77-3.07-.23-.1-.32-.23-.34-.48-.34-3.52-1.82-6.48-4.44-8.86-.53-.48-1.12-.9-1.69-1.35h4.2c0,.3,0,.58,0,.87,0,.78,.41,1.18,1.2,1.18,1.21,0,2.42-.02,3.62,.01,.64,.02,1.12-.17,1.39-.77V2.49c-.28-.6-.75-.78-1.39-.77ZM7.2,5.84h-2.02V3.81h2.02v2.03Zm1.14,14.56c-.56,0-1.04-.46-1.04-1.02,0-.56,.46-1.03,1.03-1.04,.56,0,1.04,.46,1.04,1.02,0,.56-.46,1.03-1.03,1.04ZM20.75,5.86c-.56,0-1.03-.47-1.03-1.03,0-.56,.47-1.03,1.04-1.03,.56,0,1.03,.47,1.03,1.03,0,.56-.47,1.03-1.04,1.03Zm12.42,12.47c.56,0,1.04,.46,1.04,1.02,0,.56-.46,1.03-1.02,1.04-.56,0-1.04-.46-1.04-1.02,0-.56,.46-1.03,1.02-1.04Zm3.16-12.5h-2.04V3.82h2.04v2.02Zm-14.58,4.89c-.6-.89-1.4-.89-1.99,0-2.66,3.98-5.32,7.96-7.98,11.94-.49,.74-.47,1.11,.15,1.76,1.89,2,3.05,4.36,3.49,7.08,.04,.25,0,.42-.21,.6-.87,.77-1.4,1.75-1.62,2.89-.23,1.18-.11,1.54,.67,2h12.97c.63-.29,.82-.79,.75-1.46-.15-1.35-.68-2.52-1.7-3.43-.2-.18-.25-.35-.21-.6,.44-2.7,1.59-5.06,3.47-7.05,.65-.69,.68-1.04,.16-1.82-2.65-3.97-5.3-7.94-7.96-11.91Zm-1.01,11.74c.56,0,1.04,.46,1.04,1.02,0,.56-.46,1.03-1.02,1.04-.56,0-1.04-.46-1.04-1.02,0-.56,.46-1.03,1.02-1.04Zm-4.94,12.45c.26-1.08,1.42-2.05,2.64-2.09,1.54-.05,3.08-.06,4.62,0,1.21,.04,2.26,.93,2.65,2.09H15.81Zm8.29-4.09c-2.24-.15-4.44-.15-6.68,0-.51-2.77-1.71-5.27-3.62-7.43,1.96-2.93,3.91-5.85,5.86-8.78l.07,.02v.22c0,1.81,0,3.63,0,5.44,0,.21-.06,.32-.26,.41-1.3,.59-1.97,1.89-1.75,3.37,.2,1.31,1.33,2.34,2.78,2.51,1.26,.15,2.6-.65,3.12-1.88,.65-1.53-.04-3.31-1.55-4.01-.15-.07-.28-.1-.28-.33,.01-1.88,0-3.77,0-5.65,0-.03,.01-.06,.03-.16,1.98,2.97,3.93,5.89,5.89,8.82-1.91,2.16-3.11,4.65-3.62,7.44Z"/></g></g></svg>