<?xml version="1.0" encoding="UTF-8"?><svg id="Layer_2" xmlns="http://www.w3.org/2000/svg" viewBox="0 0 40 40"><defs><style>.cls-1{fill:#fff;}.cls-2{fill:none;}</style></defs><g id="Layer_1-2"><g><rect class="cls-2" width="40" height="40"/><g><path class="cls-1" d="M1.57,36.25V4.83c.13,0,.27,.02,.4,.02,12.31,0,24.62,0,36.94,0,.13,0,.27-.01,.4-.02v31.42c-.15,0-.29-.02-.44-.02-12.29,0-24.58,0-36.86,0-.15,0-.29,0-.44,.02Zm35.22-2.52V7.37H4.1v26.36H36.79Z"/><path class="cls-1" d="M21.85,14.91l2.36,.79-5.17,15.5-2.37-.78,5.17-15.51Z"/><path class="cls-1" d="M14.87,17.63l1.88,1.64-4.01,3.84,3.95,3.78-1.72,1.8-5.84-5.58,5.73-5.48Z"/><path class="cls-1" d="M24.18,19.32l1.72-1.8,5.84,5.58-5.75,5.49-1.87-1.66,4.01-3.83-3.95-3.78Z"/><path class="cls-1" d="M9.07,9.89v2.47c-.78,0-1.53,0-2.29,0-.06,0-.17-.14-.17-.22-.01-.67-.01-1.34,0-2.02,0-.08,.13-.22,.2-.22,.74-.02,1.49-.01,2.26-.01Z"/><path class="cls-1" d="M11.67,12.36v-2.44h2.47c0,.76,0,1.51,0,2.27,0,.06-.12,.17-.18,.17-.75,.01-1.49,0-2.28,0Z"/><path class="cls-1" d="M16.71,9.91h2.45v2.43h-2.45v-2.43Z"/></g></g></g></svg>