<svg xmlns="http://www.w3.org/2000/svg" width="751.003" height="538.148" viewBox="0 0 751.003 538.148">
  <g id="_лой_1" transform="translate(-30.444 -10.203)">
    <g id="Group_4187" data-name="Group 4187" transform="translate(0 0.002)">
      <path id="Path_46726" data-name="Path 46726" d="M810.123,237.406a15.9,15.9,0,0,1,9.869-3.106c8.286,0,12.672,4.509,12.672,10.843,0,3.654-1.767,7.373-5.36,11.088-4.57,4.812-7.86,7.189-9.931,7.189a3.4,3.4,0,0,1-3.474-3.474c0-1.706,1.584-3.412,4.325-5.909a2.637,2.637,0,0,1,.487-.426c3.106-2.864,4.083-4.448,4.083-6.4,0-2.438-1.645-3.777-4.022-3.777a13.069,13.069,0,0,0-3.9.732,12.53,12.53,0,0,1-3.29.732,3.8,3.8,0,0,1-3.654-3.9,4.6,4.6,0,0,1,2.193-3.593Zm8.347,40.635a6.053,6.053,0,0,1-6.215-6.215,5.958,5.958,0,0,1,6.215-5.728,5.841,5.841,0,0,1,5.728,5.728C824.2,275.177,821.821,278.041,818.47,278.041Z" transform="translate(-560.452 -162.532)" fill="#fff"/>
      <path id="Path_46727" data-name="Path 46727" d="M2170.554,767.535a12.457,12.457,0,0,1,7.734-2.435c6.494,0,9.931,3.535,9.931,8.5,0,2.864-1.385,5.777-4.2,8.69-3.581,3.771-6.16,5.633-7.783,5.633a2.662,2.662,0,0,1-2.723-2.723c0-1.339,1.241-2.674,3.391-4.631a2.029,2.029,0,0,1,.383-.334c2.435-2.245,3.2-3.486,3.2-5.014a2.837,2.837,0,0,0-3.152-2.962,10.2,10.2,0,0,0-3.057.573,9.762,9.762,0,0,1-2.579.573,2.978,2.978,0,0,1-2.864-3.057,3.615,3.615,0,0,1,1.718-2.818Zm6.543,31.85a4.743,4.743,0,0,1-4.87-4.87,4.669,4.669,0,0,1,4.87-4.487,4.576,4.576,0,0,1,4.487,4.487A4.636,4.636,0,0,1,2177.1,799.385Z" transform="translate(-1504.494 -530.742)" fill="#fff"/>
      <g id="Group_4155" data-name="Group 4155" transform="translate(459.518 180.38)">
        <path id="Path_46728" data-name="Path 46728" d="M1602.885,680.923h-99.529a3.187,3.187,0,0,1-3.186-3.186V592.066a3.186,3.186,0,1,1,6.371,0v82.486h96.341a3.186,3.186,0,0,1,0,6.371Z" transform="translate(-1500.17 -588.88)" fill="#cae8ff"/>
        <g id="Group_4154" data-name="Group 4154" transform="translate(7.535 13.741)">
          <path id="Path_46729" data-name="Path 46729" d="M1527.954,710a3.186,3.186,0,0,1-2.291-5.4l32.169-33.275a3.189,3.189,0,0,1,4.025-.459l15.212,9.866,16.041-18.639a3.186,3.186,0,0,1,4.831,4.157l-17.855,20.746a3.186,3.186,0,0,1-4.147.594l-15.346-9.952-30.343,31.388a3.178,3.178,0,0,1-2.291.971Z" transform="translate(-1524.768 -652.638)" fill="#f5a3b7"/>
          <path id="Path_46730" data-name="Path 46730" d="M1731.468,656.857l-4.537-9.2-9.771-3.118,21.751-10.8Z" transform="translate(-1658.229 -633.74)" fill="#f5a3b7"/>
        </g>
      </g>
      <path id="Path_46731" data-name="Path 46731" d="M552.821,312.972a17.561,17.561,0,1,1,17.561-17.561A17.581,17.581,0,0,1,552.821,312.972Zm0-30.285a12.724,12.724,0,1,0,12.724,12.724A12.737,12.737,0,0,0,552.821,282.687Z" transform="translate(-371.304 -192.742)" fill="#fff"/>
      <path id="Path_46732" data-name="Path 46732" d="M2432.78,1016.117a15.188,15.188,0,1,1,15.187-15.19A15.207,15.207,0,0,1,2432.78,1016.117Zm0-26.193a11.006,11.006,0,1,0,11.006,11.006A11.019,11.019,0,0,0,2432.78,989.924Z" transform="translate(-1677.056 -683.798)" fill="#fff"/>
      <path id="Path_46733" data-name="Path 46733" d="M110.941,1026.722a11.551,11.551,0,1,1,11.551-11.551A11.563,11.563,0,0,1,110.941,1026.722Zm0-19.919a8.368,8.368,0,1,0,8.368,8.368A8.379,8.379,0,0,0,110.941,1006.8Z" transform="translate(-68.946 -696.201)" fill="#fff"/>
      <path id="Path_46734" data-name="Path 46734" d="M2356.8,750.61a8.01,8.01,0,1,1,8.007-8.01A8.019,8.019,0,0,1,2356.8,750.61Zm0-13.812a5.8,5.8,0,1,0,5.8,5.8A5.81,5.81,0,0,0,2356.8,736.8Z" transform="translate(-1629.33 -509.578)" fill="#e3eaff"/>
      <circle id="Ellipse_598" data-name="Ellipse 598" cx="12.357" cy="12.357" r="12.357" transform="translate(81.857 178.656) rotate(-22.5)" fill="#e3eaff"/>
      <path id="Path_46735" data-name="Path 46735" d="M1556.393,165.757a12.357,12.357,0,1,1-12.356-12.357A12.356,12.356,0,0,1,1556.393,165.757Z" transform="translate(-1062.51 -106.413)" fill="#e3eaff"/>
      <path id="Path_46736" data-name="Path 46736" d="M1906.17,596.84a7.97,7.97,0,1,1-7.97-7.97A7.97,7.97,0,0,1,1906.17,596.84Z" transform="translate(-1311.232 -408.493)" fill="#fff"/>
      <path id="Path_46737" data-name="Path 46737" d="M2515.06,1133.88a7.97,7.97,0,1,1-7.97-7.97A7.97,7.97,0,0,1,2515.06,1133.88Z" transform="translate(-1733.613 -781.032)" fill="#fff"/>
      <path id="Path_46738" data-name="Path 46738" d="M2326.893,653.006a12.357,12.357,0,1,1-12.356-12.357A12.356,12.356,0,0,1,2326.893,653.006Z" transform="translate(-1596.998 -444.413)" fill="#e3eaff"/>
      <path id="Path_46739" data-name="Path 46739" d="M675.711,221.236a10.026,10.026,0,1,1-10.026-10.026A10.024,10.024,0,0,1,675.711,221.236Z" transform="translate(-454.824 -146.515)" fill="#fff"/>
      <path id="Path_46740" data-name="Path 46740" d="M962.071,933.066a10.026,10.026,0,1,1-10.026-10.026A10.026,10.026,0,0,1,962.071,933.066Z" transform="translate(-653.469 -640.304)" fill="#fff"/>
      <g id="Group_4177" data-name="Group 4177" transform="translate(77.932 230.5)">
        <path id="Path_46741" data-name="Path 46741" d="M735.722,1452.954,724,1452.892l30.827-138.412,11.208,2.362Z" transform="translate(-580.163 -1142.341)" fill="#0091ff"/>
        <path id="Path_46742" data-name="Path 46742" d="M1621.432,1452.954l11.719-.061-30.824-138.412-11.208,2.362Z" transform="translate(-1181.674 -1142.341)" fill="#0091ff"/>
        <path id="Path_46743" data-name="Path 46743" d="M1447.606,1516.322h0a4.126,4.126,0,0,1-4.126-4.126V1438.17h8.249V1512.2a4.126,4.126,0,0,1-4.126,4.126Z" transform="translate(-1079.258 -1228.143)" fill="#aa5327"/>
        <path id="Path_46744" data-name="Path 46744" d="M1123.106,1516.322h0a4.126,4.126,0,0,1-4.126-4.126V1438.17h8.249V1512.2a4.126,4.126,0,0,1-4.126,4.126Z" transform="translate(-854.156 -1228.143)" fill="#aa5327"/>
        <rect id="Rectangle_3730" data-name="Rectangle 3730" width="123.734" height="14.559" rx="7.279" transform="translate(255.923 195.615)" fill="#cc7d51"/>
        <g id="Group_4160" data-name="Group 4160" transform="translate(212.92 1.746)">
          <path id="Path_46745" data-name="Path 46745" d="M1410.714,993.05c7.544,2.2,36.589,33.354,43.542,56.4-3.768,20.728-36.672,31.489-36.672,31.489l-.548-16.06s10.8-7.2,15.747-15.429c-7.872-5.676-23.384-24.768-23.384-24.768Z" transform="translate(-1268.537 -921.114)" fill="#201d40"/>
          <path id="Path_46746" data-name="Path 46746" d="M1019.246,993.05c-7.545,2.2-26.251,32.144-33.918,59.213a313.2,313.2,0,0,0-35.8,27.393l18.636,1.228s24.45-6.025,37.4-20.075c5.394-11,15-36.126,15-36.126l-1.314-31.633Z" transform="translate(-949.53 -921.114)" fill="#201d40"/>
          <path id="Path_46747" data-name="Path 46747" d="M1272.165,974.25l-25.384,1.127-2.561,24.836,2.769,70.877,26.769-.334,7-79.344Z" transform="translate(-1153.953 -908.073)" fill="#cae8ff"/>
          <path id="Path_46748" data-name="Path 46748" d="M1209.056,786.852c3.535-4.062,6.322-.123,11.364-5.152s9.085-8.65,13.4-3.342,6.537,6.053,9.676,5.749,3.121,12.611,3.121,12.611a11.806,11.806,0,0,0,8.292-10.626c.72-10.139-3.976-8.617-6.521-16.718s-12.366-12.669-16.859-10.724c-4.739,2.049-7.226,4.307-14.127,2.628s-12.847.355-12.834,9.3-10.51,6.276-7.143,17.451c1.308,4.334,4.969,8.322,6.668,7.976,2.279-.466,2.683-6.534,4.962-9.153Z" transform="translate(-1121.031 -758.204)" fill="#2c2858"/>
          <g id="Group_4156" data-name="Group 4156" transform="translate(122.631 33.719)">
            <path id="Path_46749" data-name="Path 46749" d="M1350.89,871.854c-1.694,3.265-1.21,7.3,1.078,9.018s5.514.459,7.208-2.8,1.21-7.3-1.078-9.018S1352.584,868.592,1350.89,871.854Z" transform="translate(-1349.879 -868.284)" fill="#f4b8ab"/>
            <path id="Path_46750" data-name="Path 46750" d="M1361.432,886.287a.486.486,0,0,0,.187-.018.827.827,0,0,0,.505-.937c-.337-2.114-.159-3.676.515-4.515a2.757,2.757,0,0,1,2.542-.79.686.686,0,0,0,.76-.631.759.759,0,0,0-.487-.907,3.872,3.872,0,0,0-3.706,1.241c-1.017,1.256-1.314,3.259-.882,5.955a.666.666,0,0,0,.561.6Z" transform="translate(-1357.366 -875.31)" fill="#e09a8b"/>
          </g>
          <path id="Path_46751" data-name="Path 46751" d="M1263.458,955.991l8.831,6.987,8.966-6.987,1.185-17.071H1262.27Z" transform="translate(-1166.474 -883.565)" fill="#e09a8b"/>
          <g id="Group_4157" data-name="Group 4157" transform="translate(69.434 68.959)">
            <path id="Path_46752" data-name="Path 46752" d="M1176.21,986.307l.459,91.081c8.641,7.094,25.583,9.033,25.583,9.033l-3.078-103.092-22.961,2.977Z" transform="translate(-1176.21 -983.33)" fill="#2c2858"/>
            <path id="Path_46753" data-name="Path 46753" d="M1359.024,986.307l-.459,91.081c-8.641,7.094-24.805,9.226-24.805,9.226l2.3-103.285Z" transform="translate(-1285.501 -983.33)" fill="#2c2858"/>
          </g>
          <path id="Path_46754" data-name="Path 46754" d="M1210.67,995.414l14.59,62.95-2.215-78.663Z" transform="translate(-1130.68 -911.853)" fill="#494c7f"/>
          <path id="Path_46755" data-name="Path 46755" d="M1350.41,993.573l-14.96,68.032,1.783-78.275Z" transform="translate(-1217.238 -914.371)" fill="#494c7f"/>
          <path id="Path_46756" data-name="Path 46756" d="M1248.415,795.892c-26.03-.613-20.088,34.451-18.189,39.961,1.035,3,7.639,14.525,18.259,14.691,10.62-.162,17.083-11.686,18.118-14.691C1268.5,830.343,1275.346,796.3,1248.415,795.892Z" transform="translate(-1142.897 -784.342)" fill="#f4b8ab"/>
          <path id="Path_46757" data-name="Path 46757" d="M1257.633,871.6a1.2,1.2,0,0,0-.19-2.2,10.412,10.412,0,0,0-8.8,1.446,1.2,1.2,0,0,0,1.4,1.954,7.993,7.993,0,0,1,6.644-1.115,1.2,1.2,0,0,0,.943-.083Z" transform="translate(-1156.676 -835.056)" fill="#2c2858"/>
          <path id="Path_46758" data-name="Path 46758" d="M1315.318,871.6a1.2,1.2,0,0,1,.19-2.2,10.412,10.412,0,0,1,8.8,1.446,1.2,1.2,0,0,1-1.4,1.954,7.993,7.993,0,0,0-6.644-1.115,1.2,1.2,0,0,1-.944-.083Z" transform="translate(-1202.831 -835.056)" fill="#2c2858"/>
          <path id="Path_46759" data-name="Path 46759" d="M1322.926,885.273a2.123,2.123,0,1,1-2.123-2.123A2.122,2.122,0,0,1,1322.926,885.273Z" transform="translate(-1205.605 -844.878)"/>
          <path id="Path_46760" data-name="Path 46760" d="M1265,884.273a2.123,2.123,0,1,1-2.123-2.123A2.122,2.122,0,0,1,1265,884.273Z" transform="translate(-1165.42 -844.184)"/>
          <path id="Path_46761" data-name="Path 46761" d="M1293.55,894.393c1.308,2.925,2.98,6.506,2.98,6.506a4.883,4.883,0,0,1-5.131,2.218c1.676-.435,3.391-1.28,3.042-3.486s-.891-5.241-.891-5.241Z" transform="translate(-1186.682 -852.675)" fill="#e09a8b"/>
          <g id="Group_4158" data-name="Group 4158" transform="translate(88.992 66.177)">
            <path id="Path_46762" data-name="Path 46762" d="M1282.391,1038.78l4.451,59.786-6.677,7.881-6.675-7.881,4.552-59.632Z" transform="translate(-1263.25 -1019.014)" fill="#201d40"/>
            <path id="Path_46763" data-name="Path 46763" d="M1290.181,1015.164l-4.442-1.164-4.539,1.363,2.187,6.491,4.365-.077Z" transform="translate(-1268.598 -1001.824)" fill="#201d40"/>
            <path id="Path_46764" data-name="Path 46764" d="M1256.974,988.991a22.175,22.175,0,0,1-8.16,6.745l-8.754-13.285,3.835-4.521Z" transform="translate(-1240.06 -976.803)" fill="#fff"/>
            <path id="Path_46765" data-name="Path 46765" d="M1295.28,986.438s4.258,4.965,8.393,6.454l7.927-14.341-3.734-4.3Z" transform="translate(-1278.365 -974.25)" fill="#fff"/>
          </g>
          <path id="Path_46766" data-name="Path 46766" d="M1226.591,814.656c2.941.98,3.893-15.129,15.331-7.5,8.05,5.367,23.05,4.518,20.048-2.763a67.59,67.59,0,0,1,5.9,5.327l-5.29-17.512s-21.828-6.861-29.577.089-6.414,22.361-6.414,22.361Z" transform="translate(-1141.663 -779.692)" fill="#2c2858"/>
          <g id="Group_4159" data-name="Group 4159" transform="translate(77.845 33.933)">
            <path id="Path_46767" data-name="Path 46767" d="M1215.286,872.974c1.731,3.4.723,7.376-2.251,8.892s-6.791-.006-8.521-3.4-.723-7.376,2.251-8.892S1213.555,869.577,1215.286,872.974Z" transform="translate(-1203.667 -868.984)" fill="#f4b8ab"/>
            <path id="Path_46768" data-name="Path 46768" d="M1216,886.838a.848.848,0,0,1-.23-.034.783.783,0,0,1-.521-.977c.634-2.08.576-3.651-.162-4.543a3.849,3.849,0,0,0-3.029-1,.783.783,0,0,1-.175-1.556c.116-.012,2.858-.3,4.4,1.55,1.112,1.336,1.268,3.357.463,6.007A.785.785,0,0,1,1216,886.838Z" transform="translate(-1208.888 -875.726)" fill="#e09a8b"/>
          </g>
          <path id="Path_46769" data-name="Path 46769" d="M1281.1,935.186a13.464,13.464,0,0,1-7.128-2.245.97.97,0,0,1,1.274-1.458c.279.181,6.76,4.16,11.012-.521a.969.969,0,0,1,1.433,1.3,8.554,8.554,0,0,1-6.3,2.913c-.1,0-.2,0-.291,0Z" transform="translate(-1174.388 -877.824)" fill="#e09a8b"/>
          <path id="Path_46770" data-name="Path 46770" d="M1231.834,1302.331l-18.069-16.651h-59.688l-21.647,16.544,24.447,17.708h54.134Z" transform="translate(-1076.406 -1124.108)" fill="#201d40"/>
          <g id="c" transform="translate(49.143 171.29)">
            <path id="Path_46771" data-name="Path 46771" d="M1132.425,1654.92c-5.532,11.983-25.58,9.977-22.045,23.286s40.17-7.921,40.17-7.921a106.3,106.3,0,0,0-4.016-13.766l-14.106-1.6Z" transform="translate(-1109.965 -1551.536)"/>
            <path id="Path_46772" data-name="Path 46772" d="M1366.022,1652.95c5.774,12.5,26.695,10.412,23.007,24.3s-41.919-8.264-41.919-8.264a110.975,110.975,0,0,1,4.19-14.366l14.721-1.669Z" transform="translate(-1274.47 -1550.169)"/>
            <path id="c-2" d="M1152.358,1348.2c-.135-19.138-16.29-40.4-32.426-26.137-16.924,14.954,10.415,99.9,10.415,99.9,10.062,6.01,14.875,5.814,25.277,0,0,0-3.137-55.3-3.265-73.766Z" transform="translate(-1113.045 -1317.406)" fill="#2c2858"/>
            <path id="c-3" d="M1355.673,1357.951c.135-19.138,16.075-32.365,28.821-23.868,13.8,9.2-8.782,99.582-8.782,99.582-3.9,1.878-15.282,3.091-23.212.833,0,0,3.045-58.079,3.173-76.55Z" transform="translate(-1278.209 -1327.153)" fill="#2c2858"/>
          </g>
        </g>
        <g id="Group_4167" data-name="Group 4167" transform="translate(380.977 26.382)">
          <g id="_" transform="translate(87.219 88.701)">
            <path id="_-2" d="M1823.656,1591.692h0a4.126,4.126,0,0,1-4.126-4.126V1514.48h8.249v73.086a4.126,4.126,0,0,1-4.126,4.126Z" transform="translate(-1808.316 -1396.161)" fill="#aa5327"/>
            <path id="_-3" d="M1918.146,1591.692h0a4.126,4.126,0,0,1-4.126-4.126V1514.48h8.249v73.086a4.126,4.126,0,0,1-4.126,4.126Z" transform="translate(-1873.862 -1396.161)" fill="#aa5327"/>
            <path id="_-4" d="M2042.146,1591.692h0a4.126,4.126,0,0,1-4.126-4.126V1514.48h8.249v73.086a4.126,4.126,0,0,1-4.126,4.126Z" transform="translate(-1959.88 -1396.161)" fill="#aa5327"/>
            <path id="_-5" d="M2136.636,1591.692h0a4.126,4.126,0,0,1-4.126-4.126V1514.48h8.249v73.086a4.126,4.126,0,0,1-4.126,4.126Z" transform="translate(-2025.427 -1396.161)" fill="#aa5327"/>
            <path id="_-6" d="M1848.489,1138.061v86.974a1.792,1.792,0,0,1-1.792,1.792h-53.926a9.852,9.852,0,0,0-9.851,9.851h0a9.852,9.852,0,0,0,9.851,9.851h65.569a9.852,9.852,0,0,0,9.851-9.851v-98.617a9.852,9.852,0,0,0-9.851-9.851h0a9.852,9.852,0,0,0-9.851,9.851Z" transform="translate(-1782.92 -1128.21)" fill="#cc7d51"/>
            <rect id="_-7" width="42.635" height="100.213" transform="translate(75.42)" fill="#cc7d51"/>
            <path id="_-8" d="M1987.679,1138.061v86.974a1.792,1.792,0,0,1-1.792,1.792h-53.926a9.852,9.852,0,0,0-9.851,9.851h0a9.852,9.852,0,0,0,9.851,9.851h65.569a9.852,9.852,0,0,0,9.851-9.851v-98.617a9.851,9.851,0,0,0-9.851-9.851h0A9.851,9.851,0,0,0,1987.679,1138.061Z" transform="translate(-1879.474 -1128.21)" fill="#aa5327"/>
          </g>
          <g id="Group_4166" data-name="Group 4166">
            <g id="Group_4161" data-name="Group 4161" transform="translate(24.967 70.917)">
              <path id="Path_46773" data-name="Path 46773" d="M1729.333,1224.14c4.1,2.279,4.141,16.473,2.729,17.307-47.23,3.284-59.143,1.559-59.143,1.559l.594-8.037S1700.757,1226.382,1729.333,1224.14Z" transform="translate(-1644.363 -1176.972)" fill="#f4b8ab"/>
              <path id="Path_46774" data-name="Path 46774" d="M1893.807,1091.363c-7.253,11.6-37.41,42.988-42.338,43.432l-5.569-17.11s28.279-37.419,33.3-43.187c8.672-10.007,26.484-2.049,14.6,16.866Z" transform="translate(-1764.357 -1070.152)" fill="#f4b8ab"/>
              <path id="Path_46775" data-name="Path 46775" d="M1600.167,1255.717a61.115,61.115,0,0,1,9.168.931l2.735,1.427-.291,4.647c-3.936,5.4-15.72,6.276-16.8,6.276-2.8,0-4.12.175-4.3-.217s-.649-2.925,3.431-3.057c5.119-.162,2.111-4.506-8.5-1.556-2.656.738-7.388-.937-5.474-2.665,2.11-1.9,8.068-6.111,20.03-5.792Z" transform="translate(-1579.69 -1198.86)" fill="#f4b8ab"/>
            </g>
            <path id="Path_46776" data-name="Path 46776" d="M1920.671,868.779c-.873-11.876,2.561-22.37,12.032-27.712,9.6-5.416,21.622-.1,21.622-.1h0s10.179-3.621,19.4,6.54,2.248,19.1,6.019,26.511c2.236,4.389,13.6,5.293,10.663,19.586-.845,4.123-5.8,6.9-10,7.174-7.379.484-14.25-2.368-17.239.484-9.854,9.4-31.7,6-34.754-2.6-.946-2.665-20.593,2.493-18.633-15.665.992-9.2,11.671-3.605,10.892-14.216Z" transform="translate(-1783.606 -838.633)" fill="#0d0c1a"/>
            <path id="Path_46777" data-name="Path 46777" d="M1983.439,1055.869l15.6-2.879,5.848,7.78-12.43,25.485-18.284-15.518Z" transform="translate(-1828.369 -987.33)" fill="#f4b8ab"/>
            <path id="Path_46778" data-name="Path 46778" d="M1927.9,1117.281c.266-4.849-7.569-24.762-3.446-34.785,3-8.062,8.022-21.6,14.17-23.855,2.9-1.066,5.881-1.807,9.5-2.806,0,0-2.04,10.16,2.208,10.5,8.175.656,13.389-13.38,13.389-13.38,4.408-.423,24.63,6.224,24.621,7.885-.049,13.006-10.614,31.982-14.069,46.045-1.36,15.187,3.939,33.36,3.958,35.088,0,0-32.53,9.146-51.815-1.47-.4-1.479,1.121-16.522,1.489-23.219Z" transform="translate(-1793.046 -987.293)" fill="#e62552"/>
            <path id="Path_46779" data-name="Path 46779" d="M1887.187,1292.65s7.183,18.118,8.932,29.525-8.133,18.722-8.133,18.722h-82.192s-8.8-14.271-6.264-24.125,8.365-11.419,8.365-11.419Z" transform="translate(-1706.905 -1153.58)" fill="#e62552"/>
            <path id="Path_46780" data-name="Path 46780" d="M1817.43,1332.191c10.494-1.48,40.948,10.35,53.935,36.05h-36.328l-17.6-36.05Z" transform="translate(-1719.64 -1180.923)" fill="#f1aea0"/>
            <g id="Group_4162" data-name="Group 4162" transform="translate(0 150.84)">
              <path id="Path_46781" data-name="Path 46781" d="M1625.715,1340.963a29.231,29.231,0,0,1-3.673-5.223,9.064,9.064,0,0,0-14.614-1.712c-15.147,16.7-47.441,54.774-54.64,59.513-2.034,1.339-13.9,8.172-25.185,6.822,0,0-5.569,2.12-1.859,6.543,1.908,2.276,30.582,4.628,30.582,4.628l2.236-8.42c16.691-12.354,37.468-11.465,55.087-34.05C1623.35,1356.627,1625.715,1340.963,1625.715,1340.963Z" transform="translate(-1516.417 -1331.073)" fill="#f1aea0"/>
              <path id="Path_46782" data-name="Path 46782" d="M1532.285,1563.646l-11.539,7.489-1.587-1.89,9.358-8.727c-5.318-4.193-17.631-.7-17.631-.7-4.034-2.607-11.9-11.055-12.706-15.582,2.582-3.219,11.183,3.4,11.183,3.4-.316,1.434,2.4,6.4,4.564,7.25,9.394,2.028,18.758-.643,26.4-4.521,0,0,6.384,9.673-8.044,13.276Z" transform="translate(-1498.18 -1478.333)" fill="#201d40"/>
            </g>
            <g id="Group_4163" data-name="Group 4163" transform="translate(57.955 162.824)">
              <path id="Path_46783" data-name="Path 46783" d="M1759.564,1370.371a5.431,5.431,0,0,1,3.973,4.481c.821,5.829,5.066,17.634-.677,29.994-14.1,30.349-22.419,50.345-23.9,58.178,3.682,6.9-11,25.73-11.217,26.964l-10.568-3.308s6.065-9.021,8.246-12.55c5.2-8.411,6.05-18.731,6.895-26.729,3.608-34.151-2.594-55.715,22.116-75.748A5.771,5.771,0,0,1,1759.564,1370.371Z" transform="translate(-1708.053 -1370.199)" fill="#f4b8ab"/>
              <path id="Path_46784" data-name="Path 46784" d="M1723.558,1687.693l-1.042,13.717-2.466.116-1.265-12.733c-6.558,1.685-11.242,13.6-11.242,13.6-4.518,1.626-16,2.757-20.094.655-.992-4.006,9.486-6.831,9.486-6.831.949,1.121,6.546,1.973,8.531.769,7.309-6.242,11.281-15.306,12.828-23.733,0,0,11.147.79,5.266,14.446Z" transform="translate(-1687.384 -1580.422)" fill="#201d40"/>
            </g>
            <path id="Path_46785" data-name="Path 46785" d="M2008.369,1016.506l12.666-1.9-1.008,11.756s-2.423,5.327-5.235,5.685l-10.363-2.806,3.942-12.74Z" transform="translate(-1849.36 -960.706)" fill="#f4b8ab"/>
            <g id="Group_4164" data-name="Group 4164" transform="translate(143.67 8.99)">
              <path id="Path_46786" data-name="Path 46786" d="M2006.938,897.794c-3.268,13.655-14.614,22.643-25.338,20.076s-16.768-15.72-13.5-29.375,14.614-22.642,25.338-20.076,16.768,15.72,13.5,29.375Z" transform="translate(-1967.213 -867.981)" fill="#f4b8ab"/>
              <path id="Path_46787" data-name="Path 46787" d="M1978.273,940.38a1.918,1.918,0,1,1-.861-2.57,1.917,1.917,0,0,1,.861,2.57Z" transform="translate(-1972.363 -916.28)"/>
              <path id="Path_46788" data-name="Path 46788" d="M2026.78,952a2.075,2.075,0,1,1-.931-2.781,2.08,2.08,0,0,1,.931,2.781Z" transform="translate(-2005.805 -924.18)"/>
              <path id="Path_46789" data-name="Path 46789" d="M2032.247,943.064a.725.725,0,0,1-.334-.343c-1.042-2.245-3.85-2.683-3.881-2.686a.723.723,0,0,1,.205-1.43c.147.021,3.611.542,4.987,3.51a.722.722,0,0,1-.977.95Z" transform="translate(-2008.974 -916.966)" fill="#0d0c1a"/>
              <path id="Path_46790" data-name="Path 46790" d="M1971.948,931.661a.653.653,0,0,1-.193-.141.718.718,0,0,1,.006-1.02,5.069,5.069,0,0,1,5.03-1.234.722.722,0,0,1-.469,1.366,3.616,3.616,0,0,0-3.55.894.72.72,0,0,1-.83.132Z" transform="translate(-1970.219 -910.342)" fill="#0d0c1a"/>
              <path id="Path_46791" data-name="Path 46791" d="M1983,960.028a19.367,19.367,0,0,1-2.98,2.83.761.761,0,0,0-.251,1.014c.812,1.44,3.183,2.625,4.635,3.241a.2.2,0,0,0,.214-.34,9.866,9.866,0,0,1-2.362-2.754.911.911,0,0,1,0-.821c.3-.594.9-1.8,1.3-2.809a.341.341,0,0,0-.564-.361Z" transform="translate(-1975.856 -931.759)" fill="#e09a8b"/>
              <path id="Path_46792" data-name="Path 46792" d="M2074.184,962.268c-2.606,2.028-3.372,5.4-1.715,7.532s5.119,2.218,7.722.19,3.372-5.4,1.715-7.532S2076.791,960.241,2074.184,962.268Z" transform="translate(-2039.621 -932.37)" fill="#f4b8ab"/>
              <path id="Path_46793" data-name="Path 46793" d="M2082.45,975.314a.731.731,0,0,1-.254-.211,3.263,3.263,0,0,1-.251-4,3.481,3.481,0,0,1,3.811-1.308.723.723,0,0,1-.453,1.372,2.059,2.059,0,0,0-2.184.778,1.85,1.85,0,0,0,.233,2.291.723.723,0,0,1-.9,1.081Z" transform="translate(-2046.404 -938.502)" fill="#e09a8b"/>
              <path id="Path_46794" data-name="Path 46794" d="M2002.057,993.736a.574.574,0,0,0-.527-.916,40.8,40.8,0,0,1-10.837,0,.574.574,0,0,0-.527.916,7.186,7.186,0,0,0,11.9,0Z" transform="translate(-1983.055 -954.577)" fill="#fff"/>
            </g>
            <path id="Path_46795" data-name="Path 46795" d="M2024.881,890.693c-12.8-1.715-30.714-14.755-32.181-21.451,2.475-8.041,15.668-12.081,23.117-8.356s14.485,19.687,9.064,29.807Z" transform="translate(-1841.223 -853.1)" fill="#0d0c1a"/>
            <g id="Group_4165" data-name="Group 4165" transform="translate(177.778 26.256)">
              <path id="Path_46796" data-name="Path 46796" d="M2148.411,979.056c-6.956-3.345-5.48-9.836-5.48-9.836-3.023.4-9.866,28.119-11.186,44.66-15.144-7.275-40.182-15.469-45.809-14.464,0,0-7.851.622-7.348,10.2.45,8.549,11.361,10.843,11.361,10.843s47.965,13.444,52.783,9.021C2150.225,1022.6,2146.76,987.54,2148.411,979.056Z" transform="translate(-2078.564 -955.476)" fill="#f4b8ab"/>
              <path id="Path_46797" data-name="Path 46797" d="M2294.33,944.447c-3.06,1.3-7.48,1.13-7.688,4.365L2279.4,948l-1.7-3.59c2.285-10.387,14.363-17.4,15.6-17.965,3.222-1.473,4.646-2.368,5.063-2.016s2.285,3.026-2.337,5.321c-5.8,2.882-.055,6.295,10.6-2.683,2.668-2.248,8.993-2.809,7.7.187-1.427,3.3-6.065,11.272-19.993,17.2Z" transform="translate(-2216.703 -924.35)" fill="#f4b8ab"/>
            </g>
          </g>
        </g>
        <g id="_-9" transform="translate(0 80.736)">
          <path id="_-10" d="M4.831,0h.331A4.836,4.836,0,0,1,9.995,4.834v82.64H0V4.834A4.836,4.836,0,0,1,4.834,0Z" transform="translate(141.369 230.817) rotate(180)" fill="#0e6a41"/>
          <path id="_-11" d="M4.831,0h.331A4.836,4.836,0,0,1,9.995,4.834v82.64H0V4.834A4.836,4.836,0,0,1,4.834,0Z" transform="translate(106.302 230.817) rotate(180)" fill="#aa5327"/>
          <path id="_-12" d="M418.62,1566.849a4.843,4.843,0,0,0,5,4.674h0a4.845,4.845,0,0,0,5-4.674v-82.8h-9.995v82.8Z" transform="translate(-368.324 -1340.706)" fill="#aa5327"/>
          <path id="_-13" d="M4.831,0h.331A4.836,4.836,0,0,1,9.995,4.834v82.64H0V4.834A4.836,4.836,0,0,1,4.834,0Z" transform="translate(25.222 230.817) rotate(180)" fill="#aa5327"/>
          <path id="_-14" d="M446.911,1028.024v105.368a2.172,2.172,0,0,0,2.172,2.172h65.33a11.935,11.935,0,0,1,11.934,11.934h0a11.933,11.933,0,0,1-11.934,11.934H434.974A11.933,11.933,0,0,1,423.04,1147.5V1028.024a11.933,11.933,0,0,1,11.934-11.934h0a11.933,11.933,0,0,1,11.934,11.934Z" transform="translate(-371.39 -1016.087)" fill="#d17d4e"/>
          <rect id="_-15" width="51.653" height="121.409" transform="translate(63.584 121.409) rotate(180)" fill="#d17d4e"/>
          <path id="_-16" d="M278.288,1028.024v105.368a2.172,2.172,0,0,0,2.172,2.172h65.33a11.935,11.935,0,0,1,11.934,11.934h0a11.933,11.933,0,0,1-11.934,11.934H266.354A11.933,11.933,0,0,1,254.42,1147.5V1028.024a11.933,11.933,0,0,1,11.934-11.934h0A11.933,11.933,0,0,1,278.288,1028.024Z" transform="translate(-254.42 -1016.087)" fill="#aa5327"/>
        </g>
        <g id="c-4" transform="translate(16.152)">
          <g id="c-5" transform="translate(80.854 64.509)">
            <g id="Group_4168" data-name="Group 4168" transform="translate(60.666)">
              <path id="Path_46798" data-name="Path 46798" d="M776.221,991.928c-3.25-3.385-7.005-4.821-7.054-10.969-.018-2.233.172-4.567.294-7.278.19-4.184,1.02-7.7,1.893-7.872,1.979-.4,2.628.7,2.947,3.167.245,1.911-.849,4.454.505,5.544,1.2.968,2.919,1.593,7.085-3.256,5.318-6.191,6.126-9.29,8.341-7.78,1.455.989-.946,4.285-5.841,10.237,3.673-2.058,8.126-11.53,10.834-9.051,1.967,1.8-6.681,10.614-9.281,12.375,5.468-2.144,9.321-10.145,10.844-9.33,3.1,1.868-3.5,9.563-8.28,11.781,5.146-.895,6.864-5.694,8.2-4.7,2.493,1.85-5.051,9.774-10.727,12.476-1.679.8-9.765,4.665-9.765,4.665Z" transform="translate(-769.166 -963.106)" fill="#f4b8ab"/>
              <path id="Path_46799" data-name="Path 46799" d="M787.608,1008.583a6.417,6.417,0,0,1-.285,5.627c-1.222,1.982-4,2.3-4,2.3a4.394,4.394,0,0,0,4.91-1.657,5.178,5.178,0,0,0-.625-6.276h0Z" transform="translate(-778.984 -994.651)" fill="#de623c"/>
            </g>
            <path id="c-6" d="M602.661,1037.2c11.116-8.451,27.219-27.237,27.219-27.237,6.38,2.794,9.747,9.848,9.747,9.848-7.691,27.724-31.559,50.707-42.418,52.367-9.912,1.516-35.011-46.308-22.832-69.5l5.091-1.124c13.848,6.8,23.2,35.648,23.2,35.648Z" transform="translate(-571.111 -989.774)" fill="#c4204a"/>
          </g>
          <path id="Path_46800" data-name="Path 46800" d="M840.286,1677l11.857,3,4.843-10.562c-.505-.374-1.28-7.391-1.758-12.736l-19.138,2.64A144.525,144.525,0,0,0,840.286,1677Z" transform="translate(-674.07 -1379.742)" fill="#f4b8ab"/>
          <g id="Group_4169" data-name="Group 4169" transform="translate(162.293 288.596)">
            <path id="Path_46801" data-name="Path 46801" d="M861.825,1718.345s4.1-6.892,9.3-7.327c0,0,9.805.56,13.242,4.683,1.081,1.3.665,4.059.239,5.826-.266,1.106-1.2,2.3-4.1,3.216-4.279,1.348-10.053,2.172-20.685-.585-12.758-3.305-14.795-1.945-19.509-3.464-4.886-1.574-3.317-7.547-1.982-13.364,0,0,3.556,7.119,23.5,11.015Z" transform="translate(-836.98 -1703.452)" fill="#201d40"/>
            <path id="Path_46802" data-name="Path 46802" d="M858.536,1694.747a49.621,49.621,0,0,0,13.138,5.158c4.166.956,15.27,3.109,13.481,10.513-.266,1.106-1.2,2.3-4.1,3.216-4.279,1.348-10.053,2.172-20.685-.585-12.758-3.308-14.795-1.945-19.509-3.464-4.886-1.574-2.631-8.353-1.3-14.17h0c.119,1.477.8,5.351,9.667,8.822,2.647,1.035.484-10.632,9.306-9.486Z" transform="translate(-837.593 -1694.671)" fill="#2c2858"/>
            <path id="Path_46803" data-name="Path 46803" d="M897.5,1708.949a1.006,1.006,0,0,0,.91-.763c.9-3.62,4.644-3.875,4.8-3.887a1.008,1.008,0,0,0-.1-2.012,7.3,7.3,0,0,0-6.653,5.412,1,1,0,0,0,.735,1.219,1.068,1.068,0,0,0,.309.028Z" transform="translate(-878.214 -1699.953)" fill="#494c7f"/>
            <path id="Path_46804" data-name="Path 46804" d="M912.769,1715.059a1,1,0,0,0,.91-.763c.9-3.621,4.644-3.875,4.8-3.887a1.008,1.008,0,0,0-.1-2.012,7.3,7.3,0,0,0-6.653,5.412,1,1,0,0,0,.735,1.219,1.064,1.064,0,0,0,.309.028Z" transform="translate(-888.806 -1704.192)" fill="#494c7f"/>
          </g>
          <path id="Path_46805" data-name="Path 46805" d="M691.9,1693.269l11.615,3.832,5.575-10.194c-.478-.407-2.144-7.823-2.245-13.187l-17.889,1.645a145.007,145.007,0,0,0,2.944,17.907Z" transform="translate(-572.008 -1391.542)" fill="#f4b8ab"/>
          <path id="Path_46806" data-name="Path 46806" d="M553.715,1298.132c26.484,4.837,64.1,21.993,67.808,25.9,7.664,8.062,11.416,35.786,15.031,85.167l-23.178,1.547c-8.555-38.577-16.605-55.4-17.919-71.064,0,0-20.311,1.406-50.875-10.39-15.067-5.814-30.766-12.6-26.248-26.208,3.6-10.843,10.127-9.563,35.379-4.95Z" transform="translate(-453.098 -1128.637)" fill="#201d40"/>
          <path id="Path_46807" data-name="Path 46807" d="M423.917,1303.49c22.005,2.273,51.353,27.451,55.062,31.354,7.664,8.062,8.629,35.59,12.243,84.971l-23.068,2.126c-3.734-25.583-14.651-54.894-14.62-73.68,0,0-20.648-4.475-52.609-11.664-17.484-3.933-22.731-6.641-26.073-18.057-1.136-3.884-2.68-12.884-.934-14.893,7.719-8.886,29.17-2.31,50-.159Z" transform="translate(-352.921 -1131.688)" fill="#2c2858"/>
          <g id="Group_4170" data-name="Group 4170" transform="translate(115.731 293.683)">
            <path id="Path_46808" data-name="Path 46808" d="M709.572,1734s4.576-6.589,9.787-6.656c0,0,9.741,1.25,12.88,5.605.986,1.366.377,4.1-.172,5.829-.343,1.084-1.363,2.215-4.316,2.919-4.365,1.041-10.179,1.458-20.593-2.04-12.494-4.2-14.62-2.98-19.215-4.828-4.763-1.914-2.778-7.762-1.038-13.471,0,0,3.048,7.351,22.67,12.641Z" transform="translate(-684.973 -1718.272)" fill="#201d40"/>
            <path id="Path_46809" data-name="Path 46809" d="M707.654,1711.954a49.561,49.561,0,0,0,12.742,6.068c4.089,1.247,15.012,4.175,12.709,11.435-.343,1.084-1.363,2.212-4.316,2.919-4.365,1.042-10.179,1.458-20.593-2.04-12.495-4.2-14.62-2.98-19.215-4.827-4.763-1.915-2.037-8.519-.3-14.228h0c.015,1.483.426,5.394,9.024,9.48,2.567,1.219,1.231-10.571,9.952-8.807Z" transform="translate(-685.904 -1711.28)" fill="#2c2858"/>
            <path id="Path_46810" data-name="Path 46810" d="M739.729,1728.309a1.006,1.006,0,0,0,.91-.763,5.336,5.336,0,0,1,4.8-3.887,1.008,1.008,0,0,0-.1-2.012,7.3,7.3,0,0,0-6.653,5.412,1.006,1.006,0,0,0,.735,1.219,1.064,1.064,0,0,0,.309.027Z" transform="translate(-722.209 -1718.471)" fill="#494c7f"/>
            <path id="Path_46811" data-name="Path 46811" d="M755,1734.429a1.006,1.006,0,0,0,.91-.763c.9-3.62,4.644-3.875,4.8-3.887a1.008,1.008,0,0,0-.1-2.012,7.3,7.3,0,0,0-6.653,5.412,1,1,0,0,0,.735,1.219,1.064,1.064,0,0,0,.309.028Z" transform="translate(-732.802 -1722.716)" fill="#494c7f"/>
          </g>
          <g id="Group_4173" data-name="Group 4173" transform="translate(30.291)">
            <path id="v-2" d="M467.939,929.15h.012l8.779.031,1.988,20.737-10.249,5.409-10.929-5.348,1.767-20.8Z" transform="translate(-441.765 -875.042)" fill="#e09a8b"/>
            <g id="Group_4172" data-name="Group 4172">
              <path id="Path_46812" data-name="Path 46812" d="M431.066,804.184c-7.569,2.668-13.861-6.353-13.861-6.353-4.938.282-5.2-4.644-5.2-4.644a6.284,6.284,0,0,1-5.967-6.466c0-3.835,3.621-4.466,3.124-8.843-.4-3.513-4.745-11.37,6.059-14.476a8.97,8.97,0,0,1,5.079-9.434c7.646-3.676,10.727.726,14.455.8,4.166.086,11.842-5.446,15,3.446,0,0,5.667-1.13,9.177,2.392a9.783,9.783,0,0,1,1.728,10.644s4.864.527,6.861,4.576a8.185,8.185,0,0,1-1.406,9.116,8.525,8.525,0,0,1-3.265,2.046c-1.78.714-.787,5.685-2.2,7a38.1,38.1,0,0,1-7.554,5.336l-22.03,4.852Z" transform="translate(-406.04 -752.505)" fill="#2c2858"/>
              <path id="Path_46813" data-name="Path 46813" d="M437.872,820.224c1.446,14.47,13.625,26.232,24.989,25.1s17.616-14.743,16.167-29.213-11.833-25.28-23.2-24.143-19.4,13.79-17.959,28.26Z" transform="translate(-428.003 -779.821)" fill="#f4b8ab"/>
              <path id="Path_46814" data-name="Path 46814" d="M553.151,882.179a1.986,1.986,0,1,0,1.244-2.518A1.986,1.986,0,0,0,553.151,882.179Z" transform="translate(-508.016 -840.638)"/>
              <path id="Path_46815" data-name="Path 46815" d="M503.093,882.679a2.15,2.15,0,1,0,1.348-2.726A2.152,2.152,0,0,0,503.093,882.679Z" transform="translate(-473.286 -840.835)"/>
              <path id="Path_46816" data-name="Path 46816" d="M532.137,889.42c1.994,2.778,4.512,6.166,4.512,6.166A5.208,5.208,0,0,1,531.76,899c1.66-.815,3.271-2.068,2.432-4.295s-2.055-5.287-2.055-5.287Z" transform="translate(-493.251 -847.481)" fill="#e09a8b"/>
              <path id="Path_46817" data-name="Path 46817" d="M493,871.115a1.181,1.181,0,0,1-.214-.089.99.99,0,0,1-.374-1.351c.735-1.3,2.9-3.541,5.8-2.717a.992.992,0,1,1-.542,1.908c-2.153-.61-3.526,1.764-3.541,1.789a.993.993,0,0,1-1.136.466Z" transform="translate(-465.862 -831.777)" fill="#2c2858"/>
              <path id="Path_46818" data-name="Path 46818" d="M551.578,869.607a.835.835,0,0,1-.371-.224.827.827,0,0,1,.031-1.167,4.08,4.08,0,0,1,2.95-1.041,4.226,4.226,0,0,1,3,2,.827.827,0,0,1-1.351.953,2.68,2.68,0,0,0-1.816-1.311,2.4,2.4,0,0,0-1.651.594.835.835,0,0,1-.8.2Z" transform="translate(-506.584 -832.039)" fill="#2c2858"/>
              <path id="Path_46819" data-name="Path 46819" d="M469.225,790.353l-25.408-14.4-24.067,19.7,7.6,18.8c-1.277-9.171,4.886-7.465,7.165-10.724,2.313-3.305,2.662-7.753,10.277-5.547,0,0,4.7-5.008,8.7-.263,3.1,3.67,5.9,2.224,8.917,1.8,3.556-.505,3.461,3.075,5.578,2.5l1.244-11.86Z" transform="translate(-415.55 -768.769)" fill="#2c2858"/>
              <g id="Group_4171" data-name="Group 4171" transform="translate(3.746 36.943)">
                <path id="Path_46820" data-name="Path 46820" d="M427.526,875.221c2.4,2.435,2.729,6,.738,7.967s-5.556,1.581-7.955-.855-2.729-6-.738-7.967S425.127,872.783,427.526,875.221Z" transform="translate(-418.268 -873.111)" fill="#f4b8ab"/>
                <path id="Path_46821" data-name="Path 46821" d="M433.088,888.538a.758.758,0,0,0,.291-.184,3.381,3.381,0,0,0,.8-4.074,3.608,3.608,0,0,0-3.737-1.862.747.747,0,0,0,.279,1.467,2.132,2.132,0,0,1,2.138,1.1,1.914,1.914,0,0,1-.551,2.322.748.748,0,0,0,.775,1.231Z" transform="translate(-426.294 -879.53)" fill="#e09a8b"/>
              </g>
              <path id="Path_46822" data-name="Path 46822" d="M517.25,931.819a.657.657,0,0,0-.551-1.075,46.746,46.746,0,0,1-12.378-.6.656.656,0,0,0-.652,1.017,8.21,8.21,0,0,0,13.582.653Z" transform="translate(-473.683 -875.726)" fill="#fff"/>
            </g>
          </g>
          <g id="v" transform="translate(21.001 73.091)">
            <path id="Path_46823" data-name="Path 46823" d="M375.71,1090.39s18.373,1.9,35.59,2.009a240.636,240.636,0,0,0,35.59-3.467s-2.313-31.617-2.077-43.76c.334-13.943-.894-32.429-.894-50.857,0,0-12.213-1.967-19.1-2.815-1.121-.138-2.1-.245-2.861-.312,0,0-3.924,8.234-21.028,0a21.484,21.484,0,0,0-3.256-.012c-7.186.429-18.755,3.14-18.755,3.14,0,18.376-.741,36.387-.493,50.33-.766,12.436-2.711,45.744-2.711,45.744Z" transform="translate(-375.71 -991.121)" fill="#e62552"/>
          </g>
          <g id="c-7" transform="translate(0 76.288)">
            <path id="Path_46824" data-name="Path 46824" d="M525.644,1110.573c-1.388-4.239-4.01-7.021-1.516-12.308.907-1.921,2.031-3.841,3.253-6.111,1.89-3.5,4.049-6.172,4.87-5.961,1.859.478,1.967,1.679,1.216,3.927-.579,1.74-2.564,3.465-1.853,4.956.631,1.326,1.844,2.567,7.413.135,7.109-3.109,9.079-5.431,10.353-3.222.836,1.449-2.579,3.281-9.226,6.356,3.994-.248,11.719-6.521,13.015-3.284.943,2.352-10.1,6.337-13.055,6.769,5.569.42,12.17-4.846,13.138-3.516,1.884,2.882-6.944,6.748-11.952,6.675,4.779,1.357,8.231-2.046,8.969-.643,1.372,2.613-8.359,6.289-14.335,6.261Z" transform="translate(-456.948 -1060.261)" fill="#f4b8ab"/>
            <path id="c-8" d="M334.877,1047.706c13.931-.974,37.7-7.854,37.7-7.854,3.8,5.832,2.751,13.582,2.751,13.582-21.635,18.967-54.2,25.1-64.187,20.535-9.122-4.169-2.683-59.691,20.22-72.409l.793.073c7.851,13.285,2.726,46.072,2.726,46.072Z" transform="translate(-307.15 -1001.56)" fill="#c4204a"/>
          </g>
          <path id="Path_46825" data-name="Path 46825" d="M447.41,991.168h0a12.161,12.161,0,0,0,5.247,4.683,25.608,25.608,0,0,0,12.014,2.453,13.8,13.8,0,0,0,7.024-2.616,8.164,8.164,0,0,0,2.864-4.2c-1.121-.138-2.27-.312-3.036-.38,0,0-3.752,8.3-20.857.067a21.484,21.484,0,0,0-3.256-.012Z" transform="translate(-404.447 -918.023)" fill="#c4204a"/>
        </g>
        <g id="Group_4174" data-name="Group 4174" transform="translate(56.376 107.085)">
          <path id="Path_46826" data-name="Path 46826" d="M602.72,1156.712h79.6l15.711-49.956a3.582,3.582,0,0,0-3.415-4.656h-72.09a3.578,3.578,0,0,0-3.415,2.506l-16.388,52.1Z" transform="translate(-552.408 -1102.1)" fill="#525252"/>
          <path id="Path_46827" data-name="Path 46827" d="M622.43,1156.712h79.6l15.711-49.956a3.582,3.582,0,0,0-3.415-4.656h-72.09a3.578,3.578,0,0,0-3.415,2.506l-16.388,52.1Z" transform="translate(-566.081 -1102.1)" fill="#303030"/>
          <path id="Path_46828" data-name="Path 46828" d="M774.868,1184.64a5.3,5.3,0,1,0,6.662-4.147A5.562,5.562,0,0,0,774.868,1184.64Z" transform="translate(-671.656 -1156.352)" fill="#a9b2b9"/>
          <path id="Path_46829" data-name="Path 46829" d="M443.561,1263.36h51.258v5.091H438.47A5.09,5.09,0,0,1,443.561,1263.36Z" transform="translate(-438.47 -1213.964)" fill="#7f95db"/>
        </g>
        <g id="Group_4175" data-name="Group 4175" transform="translate(384.011 108.558)">
          <path id="Path_46830" data-name="Path 46830" d="M1620.168,1160.049h-77.451l-15.288-48.608a3.484,3.484,0,0,1,3.324-4.53H1600.9a3.482,3.482,0,0,1,3.323,2.438l15.947,50.7Z" transform="translate(-1521.391 -1106.91)" fill="#525252"/>
          <path id="Path_46831" data-name="Path 46831" d="M1600.988,1160.049h-77.451l-15.288-48.608a3.484,3.484,0,0,1,3.323-4.53h70.145a3.482,3.482,0,0,1,3.324,2.438l15.946,50.7Z" transform="translate(-1508.086 -1106.91)" fill="#303030"/>
          <path id="Path_46832" data-name="Path 46832" d="M1639.616,1187.228a5.157,5.157,0,1,1-6.484-4.034,5.409,5.409,0,0,1,6.484,4.034Z" transform="translate(-1592.312 -1159.703)" fill="#a9b2b9"/>
          <path id="Path_46833" data-name="Path 46833" d="M1861.246,1263.82H1811.37v4.953h54.83A4.953,4.953,0,0,0,1861.246,1263.82Z" transform="translate(-1718.471 -1215.757)" fill="#7f95db"/>
        </g>
        <g id="_-17" transform="translate(21.292 161.452)">
          <path id="_-18" d="M860.142,1293.19H334.035c-5.581,0-10.105-3.045-10.105-6.8h0c0-3.755,4.524-6.8,10.105-6.8H860.142c5.581,0,10.105,3.045,10.105,6.8h0C870.247,1290.146,865.723,1293.19,860.142,1293.19Z" transform="translate(-323.93 -1279.59)" fill="#0091ff"/>
        </g>
        <g id="Group_4176" data-name="Group 4176" transform="translate(268.95 101.528)">
          <path id="Path_46834" data-name="Path 46834" d="M1224.106,1141.075H1135.76l-3.3-50.866a5.868,5.868,0,0,1,5.857-6.249h83.234a5.868,5.868,0,0,1,5.857,6.249Z" transform="translate(-1132.448 -1083.96)" fill="#525252"/>
          <path id="Path_46835" data-name="Path 46835" d="M1224.106,1150.255H1135.76l-3.3-50.866a5.868,5.868,0,0,1,5.857-6.249h83.234a5.868,5.868,0,0,1,5.857,6.249Z" transform="translate(-1132.448 -1090.328)" fill="#303030"/>
          <path id="Path_46836" data-name="Path 46836" d="M1276.151,1182.456a5.266,5.266,0,1,1-5.266-5.266A5.265,5.265,0,0,1,1276.151,1182.456Z" transform="translate(-1224.828 -1148.633)" fill="#a9b2b9"/>
        </g>
        <path id="c-9" d="M1418.152,1229.466a2.54,2.54,0,0,1,.551-.536l-.11-.073c-2.15-1.553-2.987-4.065-1.872-5.605a2.5,2.5,0,0,1,.668-.628,3.548,3.548,0,0,1-.368-4.08,2.652,2.652,0,0,1,1.274-.931,3.547,3.547,0,0,1-.368-4.279c1.115-1.541,3.507-1.715,5.342-.386s2.417,3.651,1.3,5.192a2.955,2.955,0,0,1-1.063.9c1.712,1.556,2.3,3.737,1.3,5.131a2.5,2.5,0,0,1-.668.628,3.548,3.548,0,0,1,.367,4.08,2.643,2.643,0,0,1-1.164.891,3.033,3.033,0,0,1,.423,3.752,3.515,3.515,0,0,1-5.611-4.059Z" transform="translate(-1060.354 -1071.288)" fill="#f4b8ab"/>
        <path id="c-10" d="M951.4,1272a2.392,2.392,0,0,1-.505-.579l-.08.107c-1.66,2.068-4.212,2.775-5.691,1.584a2.592,2.592,0,0,1-.594-.7,3.554,3.554,0,0,1-4.1.159,2.678,2.678,0,0,1-.867-1.32,3.544,3.544,0,0,1-4.294.147c-1.483-1.192-1.535-3.59-.116-5.354s3.771-2.227,5.253-1.035a2.91,2.91,0,0,1,.849,1.109c1.642-1.63,3.85-2.11,5.192-1.032a2.592,2.592,0,0,1,.594.7,3.554,3.554,0,0,1,4.1-.159,2.634,2.634,0,0,1,.83,1.21,3.029,3.029,0,0,1,3.768-.23A3.513,3.513,0,0,1,951.4,1272Z" transform="translate(-725.924 -1107.567)" fill="#f4b8ab"/>
        <path id="Path_46837" data-name="Path 46837" d="M372.1,1452.954l-11.723-.061,30.827-138.412,11.208,2.362Z" transform="translate(-327.923 -1142.341)" fill="#0091ff"/>
        <path id="Path_46838" data-name="Path 46838" d="M1917.812,1452.954l11.722-.061-30.827-138.412-11.208,2.362Z" transform="translate(-1387.27 -1142.341)" fill="#0091ff"/>
      </g>
      <g id="Group_4178" data-name="Group 4178" transform="translate(483.472 86.241)">
        <path id="Path_46839" data-name="Path 46839" d="M1663.285,284.23l6.923,45.251a3.154,3.154,0,0,1-2.64,3.6l-78.642,12.032a3.156,3.156,0,0,1-3.6-2.643l-6.923-45.251a3.154,3.154,0,0,1,2.64-3.6l78.642-12.032A3.156,3.156,0,0,1,1663.285,284.23Z" transform="translate(-1578.37 -281.55)" fill="#f3bc3d"/>
        <path id="Path_46840" data-name="Path 46840" d="M1663.292,284.23l.383,2.5-31.893,31.216a10.052,10.052,0,0,1-11.753,1.9l-41.395-21.206-.217-1.427a3.158,3.158,0,0,1,2.643-3.6l78.639-12.032a3.159,3.159,0,0,1,3.6,2.643Z" transform="translate(-1578.377 -281.55)" fill="#f3cd75"/>
      </g>
      <g id="Group_4179" data-name="Group 4179" transform="translate(162.072 153.299)">
        <path id="Path_46841" data-name="Path 46841" d="M11.606,0H92.861a11.612,11.612,0,0,1,11.606,11.606V46.28A11.612,11.612,0,0,1,92.861,57.887H11.606A11.612,11.612,0,0,1,0,46.28V11.606A11.612,11.612,0,0,1,11.606,0Z" transform="translate(104.467 57.887) rotate(180)" fill="#fff"/>
        <path id="Path_46842" data-name="Path 46842" d="M577.41,680.99v21.549a1.645,1.645,0,0,0,3.112.744l11.324-22.293Z" transform="translate(-562.615 -625.695)" fill="#fff"/>
        <path id="Path_46843" data-name="Path 46843" d="M561.558,535.5H637.8a5.309,5.309,0,0,0,5.308-5.308h0a5.309,5.309,0,0,0-5.308-5.308H561.558a5.309,5.309,0,0,0-5.308,5.308h0A5.309,5.309,0,0,0,561.558,535.5Z" transform="translate(-547.937 -517.403)" fill="#e3eaff"/>
        <path id="Path_46844" data-name="Path 46844" d="M561.558,590.477H637.8a5.309,5.309,0,0,0,5.308-5.308h0a5.309,5.309,0,0,0-5.308-5.308H561.558a5.309,5.309,0,0,0-5.308,5.308h0A5.309,5.309,0,0,0,561.558,590.477Z" transform="translate(-547.937 -555.542)" fill="#e3eaff"/>
        <path id="Path_46845" data-name="Path 46845" d="M4.53,0H53.457a4.534,4.534,0,0,1,4.53,4.53V6.089a4.534,4.534,0,0,1-4.53,4.53H4.53A4.534,4.534,0,0,1,0,6.089V4.53A4.534,4.534,0,0,1,4.53,0Z" transform="translate(66.301 51.776) rotate(180)" fill="#e3eaff"/>
      </g>
      <g id="Group_4180" data-name="Group 4180" transform="translate(259.846 168.954)">
        <rect id="Rectangle_3731" data-name="Rectangle 3731" width="113.029" height="73.536" rx="36.768" fill="#cae8ff"/>
        <path id="Path_46846" data-name="Path 46846" d="M1129.679,782.49v23.316a1.78,1.78,0,0,1-3.366.806L1114.06,782.49Z" transform="translate(-1032.658 -711.76)" fill="#cae8ff"/>
      </g>
      <g id="Group_4182" data-name="Group 4182" transform="translate(551.161 10.201)">
        <path id="Path_46847" data-name="Path 46847" d="M1903.689,207.419l-96.733-37.8a11.944,11.944,0,0,1-6.779-15.472l44.247-113.246a11.943,11.943,0,0,1,15.472-6.779l96.733,37.8a11.943,11.943,0,0,1,6.778,15.472l-44.25,113.243a11.943,11.943,0,0,1-15.472,6.779Z" transform="translate(-1799.354 -33.305)" fill="#cae8ff"/>
        <g id="Group_4181" data-name="Group 4181" transform="translate(25.498 33.916)">
          <rect id="Rectangle_3732" data-name="Rectangle 3732" width="10.228" height="90.76" transform="matrix(0.931, 0.364, -0.364, 0.931, 43.348, 7.534)" fill="#fff"/>
          <rect id="Rectangle_3733" data-name="Rectangle 3733" width="10.228" height="90.76" transform="matrix(0.931, 0.364, -0.364, 0.931, 57.571, 13.096)" fill="#fff"/>
          <rect id="Rectangle_3734" data-name="Rectangle 3734" width="10.228" height="90.76" transform="matrix(0.931, 0.364, -0.364, 0.931, 71.811, 18.639)" fill="#fff"/>
          <rect id="Rectangle_3735" data-name="Rectangle 3735" width="10.228" height="90.76" transform="matrix(0.931, 0.364, -0.364, 0.931, 86.027, 24.217)" fill="#fff"/>
          <rect id="Rectangle_3736" data-name="Rectangle 3736" width="10.228" height="90.76" transform="matrix(0.931, 0.364, -0.364, 0.931, 100.259, 29.77)" fill="#fff"/>
          <rect id="Rectangle_3737" data-name="Rectangle 3737" width="10.228" height="4.794" transform="matrix(0.931, 0.364, -0.364, 0.931, 46.29, 0)" fill="#fff"/>
          <rect id="Rectangle_3738" data-name="Rectangle 3738" width="10.228" height="4.794" transform="matrix(0.931, 0.364, -0.364, 0.931, 29.272, 2.037)" fill="#fff"/>
          <rect id="Rectangle_3739" data-name="Rectangle 3739" width="10.228" height="4.794" transform="matrix(0.931, 0.364, -0.364, 0.931, 23.77, 16.127)" fill="#fff"/>
          <rect id="Rectangle_3740" data-name="Rectangle 3740" width="10.228" height="4.794" transform="matrix(0.931, 0.364, -0.364, 0.931, 18.263, 30.216)" fill="#fff"/>
          <rect id="Rectangle_3741" data-name="Rectangle 3741" width="10.228" height="4.794" transform="matrix(0.931, 0.364, -0.364, 0.931, 12.76, 44.309)" fill="#fff"/>
          <rect id="Rectangle_3742" data-name="Rectangle 3742" width="10.228" height="4.794" transform="matrix(0.931, 0.364, -0.364, 0.931, 12.76, 44.309)" fill="#fff"/>
          <rect id="Rectangle_3743" data-name="Rectangle 3743" width="10.228" height="4.794" transform="matrix(0.931, 0.364, -0.364, 0.931, 7.248, 58.403)" fill="#fff"/>
          <rect id="Rectangle_3744" data-name="Rectangle 3744" width="10.228" height="4.794" transform="matrix(0.931, 0.364, -0.364, 0.931, 1.744, 72.492)" fill="#fff"/>
          <rect id="Rectangle_3745" data-name="Rectangle 3745" width="10.228" height="4.794" transform="matrix(0.931, 0.364, -0.364, 0.931, 60.519, 5.552)" fill="#fff"/>
          <rect id="Rectangle_3746" data-name="Rectangle 3746" width="10.228" height="4.794" transform="matrix(0.931, 0.364, -0.364, 0.931, 74.756, 11.099)" fill="#fff"/>
          <rect id="Rectangle_3747" data-name="Rectangle 3747" width="10.228" height="4.794" transform="matrix(0.931, 0.364, -0.364, 0.931, 88.988, 16.652)" fill="#fff"/>
          <rect id="Rectangle_3748" data-name="Rectangle 3748" width="10.228" height="4.794" transform="matrix(0.931, 0.364, -0.364, 0.931, 103.205, 22.227)" fill="#fff"/>
        </g>
        <path id="Path_46848" data-name="Path 46848" d="M2085.622,112.407l-74.127-28.965a5.6,5.6,0,0,1-3.177-7.247h0a5.6,5.6,0,0,1,7.247-3.176l74.127,28.965a5.6,5.6,0,0,1,3.177,7.247h0A5.6,5.6,0,0,1,2085.622,112.407Z" transform="translate(-1944.043 -60.586)" fill="#fff"/>
      </g>
      <g id="Group_4183" data-name="Group 4183" transform="translate(270.108 150.18)">
        <path id="Path_46849" data-name="Path 46849" d="M1029.554,731.67a8.557,8.557,0,0,1-.481,2.821c-1.571,4.509-6.812,7.823-13.043,7.823s-11.471-3.311-13.04-7.823a8.478,8.478,0,0,1-.481-2.821h27.044Z" transform="translate(-965.538 -657.732)" fill="#95a6db"/>
        <path id="Path_46850" data-name="Path 46850" d="M1029.554,731.67a8.557,8.557,0,0,1-.481,2.821h-26.082a8.475,8.475,0,0,1-.481-2.821Z" transform="translate(-965.538 -657.732)" fill="#7f95db"/>
        <path id="Path_46851" data-name="Path 46851" d="M1010.833,518.608a28.319,28.319,0,1,0-50.7,17.346,35.441,35.441,0,0,1,7.514,21.727v.138h29.737v-.138a35.547,35.547,0,0,1,7.535-21.754,28.183,28.183,0,0,0,5.915-17.322Z" transform="translate(-932.023 -490.289)" fill="#f3bc3d"/>
        <path id="Path_46852" data-name="Path 46852" d="M1021.227,601.657a.722.722,0,0,1-.683-.962c.034-.095,3.372-9.716,5.8-19.515,4.3-17.365,2.089-20.189.937-20.6-3.385-1.2-6.08.573-7.744,2.273a14.442,14.442,0,0,0-1.4,1.675,27.2,27.2,0,0,1,1.921,4.092c1.5,4.007,1.9,7.75,1.066,10.01a3.552,3.552,0,0,1-3.841,2.49,4.106,4.106,0,0,1-3.663-2.9c-.763-2.025-.665-5.005.27-8.172a21.9,21.9,0,0,1,2.542-5.584,13.977,13.977,0,0,0-3.409-3.853c-1.862-1.36-3.614-1.418-5.2-.178-3.281,2.564-3.406,10.274-.361,22.3a159.952,159.952,0,0,0,5.82,17.925.724.724,0,0,1-1.345.539,161.434,161.434,0,0,1-5.878-18.1c-3.244-12.81-2.95-20.82.87-23.807,2.1-1.642,4.567-1.59,6.947.147a14.944,14.944,0,0,1,3.44,3.768,14.921,14.921,0,0,1,1.188-1.369c2.769-2.827,6.059-3.758,9.263-2.625,1.994.7,2.812,3.388,2.5,8.2a84.738,84.738,0,0,1-2.518,14.112c-2.444,9.86-5.8,19.536-5.835,19.634a.726.726,0,0,1-.683.487Zm-3.973-35.768a20.6,20.6,0,0,0-1.979,4.573c-.836,2.83-.95,5.541-.3,7.253a2.683,2.683,0,0,0,2.417,1.966,2.11,2.11,0,0,0,2.374-1.547c.959-2.607-.205-7.933-2.509-12.246Z" transform="translate(-966.45 -537.328)" fill="#fff"/>
        <path id="Path_46853" data-name="Path 46853" d="M994.226,699.12h24.719a5.34,5.34,0,0,1,5.336,5.336v.224a5.34,5.34,0,0,1-5.336,5.336H994.226a5.34,5.34,0,0,1-5.336-5.336v-.224A5.34,5.34,0,0,1,994.226,699.12Z" transform="translate(-956.09 -635.152)" fill="#95a6db"/>
        <path id="Path_46854" data-name="Path 46854" d="M1177.336,575.732h-9.26a2.387,2.387,0,0,1-2.386-2.386h0a2.387,2.387,0,0,1,2.386-2.386h9.26a2.387,2.387,0,0,1,2.386,2.386h0A2.387,2.387,0,0,1,1177.336,575.732Z" transform="translate(-1078.734 -546.249)" fill="#f3bc3d"/>
        <path id="Path_46855" data-name="Path 46855" d="M893.456,575.732H884.2a2.387,2.387,0,0,1-2.386-2.386h0a2.387,2.387,0,0,1,2.386-2.386h9.26a2.387,2.387,0,0,1,2.386,2.386h0A2.387,2.387,0,0,1,893.456,575.732Z" transform="translate(-881.81 -546.249)" fill="#f3bc3d"/>
        <path id="Path_46856" data-name="Path 46856" d="M920.218,500.182l-7.37-5.609a2.387,2.387,0,0,1-.453-3.345h0a2.387,2.387,0,0,1,3.345-.453l7.367,5.606a2.387,2.387,0,0,1,.453,3.345h0a2.387,2.387,0,0,1-3.345.453Z" transform="translate(-902.688 -490.287)" fill="#f3bc3d"/>
        <path id="Path_46857" data-name="Path 46857" d="M1144.05,500.182l7.367-5.609a2.387,2.387,0,0,0,.453-3.345h0a2.387,2.387,0,0,0-3.345-.453l-7.367,5.606a2.387,2.387,0,0,0-.453,3.345h0a2.387,2.387,0,0,0,3.345.453Z" transform="translate(-1061.064 -490.287)" fill="#f3bc3d"/>
        <path id="Path_46858" data-name="Path 46858" d="M920.218,643.475l-7.37,5.605a2.387,2.387,0,0,0-.453,3.345h0a2.387,2.387,0,0,0,3.345.453l7.367-5.605a2.387,2.387,0,0,0,.453-3.345h0a2.387,2.387,0,0,0-3.345-.453Z" transform="translate(-902.688 -596.214)" fill="#f3bc3d"/>
        <path id="Path_46859" data-name="Path 46859" d="M1144.05,643.475l7.367,5.605a2.387,2.387,0,0,1,.453,3.345h0a2.387,2.387,0,0,1-3.345.453l-7.367-5.605a2.387,2.387,0,0,1-.453-3.345h0A2.387,2.387,0,0,1,1144.05,643.475Z" transform="translate(-1061.064 -596.214)" fill="#f3bc3d"/>
      </g>
      <g id="Group_4184" data-name="Group 4184" transform="translate(292.897 44.142)">
        <path id="Path_46860" data-name="Path 46860" d="M960.553,144.11h95.039a4.346,4.346,0,0,1,4.343,4.344v63.238a4.346,4.346,0,0,1-4.343,4.343H960.553a4.346,4.346,0,0,1-4.344-4.343V148.453A4.344,4.344,0,0,1,960.553,144.11Z" transform="translate(-956.21 -144.11)" fill="#cae8ff"/>
        <path id="Path_46861" data-name="Path 46861" d="M979.418,188h73.288a4.671,4.671,0,0,1,4.668,4.668v1.516a4.671,4.671,0,0,1-4.668,4.668H979.418a4.671,4.671,0,0,1-4.668-4.668v-1.516A4.671,4.671,0,0,1,979.418,188Z" transform="translate(-969.071 -174.556)" fill="#fff"/>
        <path id="Path_46862" data-name="Path 46862" d="M976.563,252.29h46.228a1.813,1.813,0,0,1,1.813,1.813v1.8a1.813,1.813,0,0,1-1.813,1.813H976.563a1.813,1.813,0,0,1-1.813-1.813v-1.8A1.813,1.813,0,0,1,976.563,252.29Z" transform="translate(-969.071 -219.153)" fill="#fff"/>
        <rect id="Rectangle_3749" data-name="Rectangle 3749" width="35.572" height="5.428" rx="2.714" transform="translate(5.676 54.995)" fill="#fff"/>
        <rect id="Rectangle_3750" data-name="Rectangle 3750" width="60.349" height="5.428" rx="2.714" transform="translate(5.676 43.377)" fill="#fff"/>
      </g>
      <g id="Group_4186" data-name="Group 4186" transform="translate(361.438 77.557)">
        <g id="Group_4185" data-name="Group 4185">
          <path id="Path_46863" data-name="Path 46863" d="M1204.789,336.945l2.475,8.7q-.979.074-1.967.055c-23.448.625-31.66-31.93-20.207-31.538a4.36,4.36,0,0,1,3.89,4.785,16.376,16.376,0,0,0,14.6,17.944C1203.989,336.918,1204.39,336.939,1204.789,336.945Z" transform="translate(-1179.972 -295.486)" fill="#c4204a"/>
          <path id="Path_46864" data-name="Path 46864" d="M1255.62,280.9a22.609,22.609,0,0,1-.827,4.46l-8.809-1.571c2.947-8.816-1.186-20.045-13.637-21.724a16.281,16.281,0,0,0-9.324,1.81c-5.143,2.573-9.1-4.88-4.09-7.7C1235.915,246.613,1258.141,261.494,1255.62,280.9Z" transform="translate(-1205.394 -253.198)" fill="#f5a3b7"/>
          <path id="Path_46865" data-name="Path 46865" d="M1285.571,354.631a25.472,25.472,0,0,1-22.106,18l-2.475-8.7c8.35.135,13.744-4.794,15.772-10.871Z" transform="translate(-1236.173 -322.471)" fill="#e62552"/>
        </g>
        <path id="Path_46866" data-name="Path 46866" d="M1252.484,317.342a7.912,7.912,0,1,1-7.912-7.912A7.912,7.912,0,0,1,1252.484,317.342Z" transform="translate(-1219.296 -292.206)" fill="#c4204a"/>
      </g>
    </g>
  </g>
</svg>
