<?xml version="1.0" encoding="UTF-8"?><svg id="Layer_2" xmlns="http://www.w3.org/2000/svg" viewBox="0 0 40 40"><defs><style>.cls-1{fill:#fff;}.cls-2{fill:none;}</style></defs><g id="Layer_1-2"><g><rect class="cls-2" width="40" height="40"/><g><path class="cls-1" d="M.4,4.76c.34-.99,1.06-1.35,2.07-1.3,.7,.04,1.4,0,2.1,0,.45,0,.72,.22,.72,.57,0,.35-.26,.57-.71,.58-.79,0-1.58,0-2.37,0-.51,0-.67,.16-.67,.66,0,7.77,0,15.54,0,23.31,0,.54,.15,.67,.77,.67,9.89,0,19.78,0,29.66,0,.13,0,.26,0,.38,0,.42,.01,.66,.23,.65,.59,0,.33-.24,.55-.64,.56-.94,0-1.89,0-2.83,0-.15,0-.3,0-.52,0,0,.31,0,.61,0,.91,0,1.2-.47,1.66-1.67,1.66-1.63,0-3.27,0-4.9,0h-.48c.09,.18,.15,.3,.21,.42,.78,1.53,1.57,3.06,2.35,4.59,.06,.12,.18,.27,.16,.38-.04,.22-.1,.48-.25,.61-.2,.18-.49,.14-.68-.08-.1-.11-.17-.25-.24-.39-.89-1.73-1.79-3.47-2.66-5.21-.13-.26-.28-.34-.56-.33-1.86,.01-3.73,.01-5.59,0-.28,0-.43,.08-.56,.33-.88,1.74-1.77,3.47-2.66,5.21-.06,.11-.11,.23-.19,.33-.19,.25-.45,.3-.71,.17-.27-.13-.37-.38-.28-.68,.04-.12,.1-.23,.16-.35,.78-1.53,1.57-3.06,2.35-4.59,.06-.11,.11-.23,.19-.4-.17,0-.3-.02-.43-.02-1.66,0-3.32,0-4.98,0-1.15,0-1.61-.47-1.61-1.63,0-.29,0-.59,0-.94h-.42c-1.03,0-2.07-.03-3.1,0-1.01,.04-1.73-.31-2.07-1.31V4.76ZM7.14,30.42c0,.29,0,.56,0,.82q0,.59,.58,.59c6.52,0,13.04,0,19.56,0,.13,0,.26,.02,.38-.01,.09-.03,.21-.13,.21-.21,.02-.39,0-.78,0-1.18H7.14Z"/><path class="cls-1" d="M39.6,31.25c-.12,.28-.21,.58-.38,.83-.93,1.37-2.83,1.32-3.69-.11-.63-1.03-1.22-2.09-1.82-3.14-.45-.77-.9-1.54-1.33-2.32-.1-.19-.2-.23-.42-.19-3.75,.64-7.09-1.25-8.46-4.79-1.41-3.64,.51-8.04,4.14-9.49,4.04-1.61,8.41,.26,9.92,4.34,.97,2.6,.51,5.04-1.17,7.25-.1,.13-.21,.26-.31,.39-.02,.02-.02,.04-.05,.09,.09,.16,.19,.34,.29,.52,.85,1.47,1.7,2.93,2.54,4.41,.28,.49,.5,1.02,.74,1.53v.69ZM30.54,12.61c-3.5-.03-6.31,2.79-6.35,6.38-.04,3.46,2.8,6.28,6.37,6.32,3.47,.04,6.29-2.82,6.32-6.42,.03-3.4-2.86-6.25-6.35-6.28Zm2.83,13.31c.05,.1,.09,.18,.13,.26,.98,1.7,1.96,3.4,2.94,5.09,.29,.51,.7,.72,1.15,.63,.76-.16,1.06-.91,.65-1.64-.91-1.59-1.83-3.18-2.75-4.76-.11-.2-.23-.39-.35-.61-.3,.2-.56,.39-.85,.56-.29,.17-.61,.31-.92,.47Z"/><path class="cls-1" d="M10.91,14.63c.64-.36,1.26-.7,1.87-1.07,.1-.06,.18-.24,.18-.36-.01-1.18,.82-2.09,1.93-2.07,1.1,.02,1.91,.91,1.89,2.07,0,.12,.08,.3,.18,.36,.61,.37,1.23,.71,1.86,1.07,.52-.41,1.09-.6,1.76-.46,.09,.02,.24-.08,.3-.16,.96-1.32,1.9-2.65,2.86-3.97,.14-.19,.06-.31-.02-.48-.34-.69-.3-1.37,.15-1.99,.45-.62,1.08-.9,1.84-.77,.77,.13,1.29,.58,1.53,1.33,.42,1.34-.75,2.67-2.13,2.43-.25-.05-.36,.03-.49,.21-.91,1.29-1.84,2.57-2.76,3.86-.12,.17-.17,.28-.05,.5,.41,.72,.29,1.58-.26,2.2-.51,.57-1.37,.77-2.1,.49-.76-.29-1.24-1.02-1.2-1.86,.01-.26-.07-.39-.29-.5-.51-.27-1-.56-1.5-.85-.18-.11-.31-.13-.51,0-.7,.48-1.44,.48-2.15,0-.2-.13-.32-.13-.51-.02-.49,.29-.99,.58-1.5,.85-.24,.12-.31,.27-.3,.54,.04,.95-.64,1.78-1.56,1.94-.94,.17-1.87-.4-2.16-1.31-.28-.9,.13-1.87,.99-2.28,.76-.36,1.46-.22,2.14,.31Zm4.72-1.57c0-.4-.34-.76-.75-.77-.4,0-.76,.34-.77,.75,0,.4,.34,.76,.75,.77,.41,0,.76-.34,.77-.74Zm9.03-4.43c-.02,.42,.29,.77,.7,.8,.4,.03,.77-.3,.79-.71,.02-.41-.3-.77-.71-.8-.4-.03-.77,.31-.79,.72Zm-4.52,8.16c.41,0,.76-.35,.76-.76,0-.4-.37-.76-.76-.76-.4,0-.75,.36-.75,.77,0,.42,.34,.75,.76,.75Zm-10.54-1.51c-.4,0-.76,.35-.77,.75,0,.4,.34,.76,.75,.76,.42,0,.76-.33,.76-.74,0-.4-.35-.76-.75-.77Z"/><path class="cls-1" d="M20.69,3.47c.19,0,.34,0,.48,0,3.83,0,7.66,0,11.48,0,1.32,0,1.95,.62,1.95,1.94,0,1.61,0,3.22,0,4.82,0,.11,0,.23-.01,.34-.05,.33-.23,.54-.58,.54-.32,0-.53-.24-.55-.61,0-.1,0-.2,0-.31,0-1.61,0-3.22,0-4.82,0-.63-.14-.76-.76-.76-8.42,0-16.84,0-25.26,0-.15,0-.31,0-.46-.01-.31-.04-.49-.23-.51-.53-.02-.3,.16-.51,.45-.58,.13-.03,.28-.03,.42-.03,2.17,0,4.34,0,6.51,0h.48c0-.35,0-.67,0-1,.01-.98,.56-1.55,1.54-1.56,1.1-.01,2.19-.01,3.29,0,.97,.01,1.53,.6,1.53,1.57,0,.32,0,.63,0,.98Zm-5.22-.02h4.07c0-.37,.03-.71-.02-1.05-.02-.12-.21-.32-.32-.32-1.13-.02-2.27-.02-3.4,0-.11,0-.3,.19-.32,.32-.04,.34-.02,.68-.02,1.05Z"/><path class="cls-1" d="M13.12,22.49c0-1.24,0-2.47,0-3.71,0-.63,.19-.83,.82-.83,.64,0,1.28,0,1.91,0,.53,0,.75,.21,.75,.74,0,2.56,0,5.13,0,7.69,0,.51-.22,.72-.72,.73-.68,0-1.35,0-2.03,0-.52,0-.73-.22-.73-.76,0-1.29,0-2.58,0-3.87Zm1.17-3.38v6.83h1.14v-6.83h-1.14Z"/><path class="cls-1" d="M21.88,24.02c0,.78,0,1.56,0,2.33,0,.56-.21,.76-.77,.76-.66,0-1.33,0-1.99,0-.51,0-.72-.22-.72-.73,0-1.59,0-3.19,0-4.78,0-.49,.2-.7,.69-.71,.69-.01,1.38,0,2.06,0,.52,0,.71,.2,.72,.72,0,.8,0,1.61,0,2.41Zm-1.17,1.92v-3.87h-1.13v3.87h1.13Z"/><path class="cls-1" d="M11.34,24.02c0,.76,0,1.53,0,2.29,0,.6-.2,.8-.81,.8-.64,0-1.27,0-1.91,0-.54,0-.76-.2-.76-.73,0-1.59,0-3.19,0-4.78,0-.52,.21-.71,.73-.71,.65,0,1.3,0,1.95,0,.61,0,.8,.19,.8,.8,0,.78,0,1.56,0,2.33Zm-2.32,1.92h1.14v-3.88h-1.14v3.88Z"/><path class="cls-1" d="M24.82,25.96c.57,0,1.09,0,1.61,0,.46,0,.7,.21,.7,.57,0,.36-.25,.57-.7,.58-.69,0-1.37,0-2.06,0-.49,0-.69-.22-.69-.71,0-.48,0-.97,0-1.45,0-.42,.23-.67,.57-.67,.34,0,.56,.25,.57,.67,0,.32,0,.63,0,1.01Z"/><path class="cls-1" d="M30.28,13.51c1.41,0,2.49,.36,3.45,1.04,.32,.22,.4,.55,.22,.83-.18,.28-.51,.35-.84,.13-.83-.56-1.72-.87-2.73-.84-2.25,.07-4.05,1.87-4.15,4.16-.09,2.21,1.58,4.15,3.79,4.4,3.19,.37,5.62-2.7,4.53-5.73-.06-.16-.12-.31-.15-.47-.07-.32,.06-.56,.36-.67,.31-.11,.56,.02,.7,.31,.39,.81,.57,1.67,.51,2.56-.2,2.65-1.89,4.56-4.49,5.1-2.95,.61-6.07-1.68-6.35-4.68-.27-2.83,1.29-5.14,4.02-5.93,.44-.13,.9-.16,1.13-.2Z"/></g></g></g></svg>