<?xml version="1.0" encoding="UTF-8"?><svg id="Layer_2" xmlns="http://www.w3.org/2000/svg" viewBox="0 0 40 40"><defs><style>.cls-1{fill:#fff;stroke:#fff;stroke-miterlimit:10;stroke-width:.5px;}.cls-2{fill:none;}</style></defs><g id="Layer_2-2"><g><rect class="cls-2" width="40" height="40"/><g><path class="cls-1" d="M37.06,32c-.82-1.2-1.96-2.03-3.3-2.41h-.04l-4.85-1.02-1.3-1.98-.02-.03c-.2-.26-.5-.44-.83-.48-.33-.04-.66,.06-.92,.27h-.01l-5.8,5-5.8-4.99h-.01c-.25-.22-.59-.32-.92-.28-.33,.04-.63,.21-.83,.48l-.02,.03-1.3,1.98-4.85,1.01h-.04c-1.34,.39-2.48,1.22-3.3,2.42-.75,1.1-1.16,2.42-1.16,3.73v1.51c0,1.21,1.09,2.2,2.43,2.2h31.59c1.34,0,2.43-.99,2.43-2.2v-1.51c0-1.31-.41-2.63-1.16-3.73Zm-10.49-4.71l1.19,1.8-4.19,5.77-1.32-1.32h0l-1.36-1.36,5.68-4.89Zm-7.18,9.11h1.21s.07,0,.11,0l.37,1.83h-2.16l.37-1.83s.07,0,.11,0Zm1.82-1.82c0,.33-.27,.61-.61,.61h-1.21c-.33,0-.61-.27-.61-.61v-.36l1.21-1.21,1.21,1.21v.36Zm-7.79-7.29l5.68,4.89-1.36,1.36h0l-1.32,1.32-4.19-5.77,1.19-1.8ZM2.99,37.24v-1.51c0-1.97,1.22-4.3,3.56-4.96l4.69-.98,4.63,6.36c.1,.14,.27,.23,.44,.25,.02,0,.03,0,.05,0,.16,0,.32-.06,.43-.18l.93-.93c.1,.23,.25,.44,.43,.61l-.46,2.32H4.21c-.67,0-1.21-.44-1.21-.99Zm34.02,0c0,.54-.55,.99-1.21,.99h-13.47l-.46-2.32c.18-.17,.33-.38,.43-.61l.93,.93c.11,.11,.27,.18,.43,.18,.02,0,.03,0,.05,0,.18-.01,.34-.1,.44-.25l4.63-6.36,4.69,.98c2.34,.67,3.56,3,3.56,4.96v1.51h0Z"/><path class="cls-1" d="M15.75,21.57v2.68c0,1.15,.81,2.12,1.88,2.37,.25,1.08,1.21,1.88,2.37,1.88s2.12-.81,2.37-1.88c1.08-.25,1.88-1.22,1.88-2.37v-2.68c3.92-1.66,6.68-5.55,6.68-10.07C30.93,5.47,26.03,.56,20,.56S9.07,5.47,9.07,11.5c0,4.52,2.76,8.41,6.68,10.07Zm4.25,5.72c-.45,0-.84-.24-1.05-.61h2.1c-.21,.36-.6,.61-1.05,.61Zm3.04-3.04c0,.67-.55,1.21-1.21,1.21h-3.64c-.67,0-1.21-.55-1.21-1.21v-2.25c.96,.28,1.98,.43,3.04,.43s2.07-.15,3.04-.43v2.25Zm-4.27-3.19l-1.82-6.81c.25,.14,.59,.28,1.1,.28,.66,0,1.03-.23,1.29-.4,.21-.13,.34-.21,.65-.21s.44,.08,.65,.21c.27,.17,.63,.4,1.29,.4,.52,0,.86-.14,1.11-.28l-1.82,6.81s-.01,.05-.02,.08c-.4,.05-.81,.08-1.22,.08s-.82-.03-1.22-.08c0-.03,0-.05-.02-.08ZM20,1.78c5.36,0,9.72,4.36,9.72,9.72,0,4.48-3.05,8.26-7.18,9.38l2.3-8.62c.09-.32-.11-.66-.43-.74-.32-.09-.66,.11-.74,.43l-.21,.8c-.4,.07-.66,.23-.86,.36-.21,.13-.34,.21-.65,.21s-.44-.08-.65-.21c-.27-.17-.63-.4-1.29-.4s-1.03,.23-1.29,.4c-.21,.13-.34,.21-.65,.21s-.44-.08-.65-.21c-.2-.13-.46-.29-.86-.36l-.21-.8c-.09-.32-.42-.52-.74-.43-.32,.09-.52,.42-.43,.74l2.3,8.62c-4.13-1.12-7.18-4.9-7.18-9.38,0-5.36,4.36-9.72,9.72-9.72Z"/><path class="cls-1" d="M22.81,4.77c1.76,.73,3.19,2.16,3.92,3.92,.1,.23,.32,.37,.56,.37,.08,0,.16-.02,.23-.05,.31-.13,.46-.49,.33-.79-.86-2.05-2.52-3.72-4.57-4.57-.31-.13-.67,.02-.79,.33-.13,.31,.02,.67,.33,.79Z"/></g></g></g></svg>