<?xml version="1.0" encoding="UTF-8"?><svg id="Layer_2" xmlns="http://www.w3.org/2000/svg" viewBox="0 0 40 40"><defs><style>.cls-1{fill:#fff;}.cls-2{fill:none;}</style></defs><g id="Layer_1-2"><g><rect class="cls-2" width="40" height="40"/><path class="cls-1" d="M25.42,33.57H14.58c0,.2,0,.39,0,.58-.02,.9,.04,1.81-.09,2.7-.18,1.21-1.29,2.1-2.51,2.11-2.78,.02-5.56,.03-8.34,0-1.41-.01-2.58-1.2-2.59-2.62-.02-2.77-.02-5.53,0-8.3,.01-1.43,1.2-2.59,2.64-2.62,.9-.02,1.81,0,2.74,0V14.58c-.17,0-.34,0-.52,0-.9-.02-1.82,.05-2.7-.08-1.26-.18-2.15-1.3-2.16-2.56-.02-2.75-.02-5.5,0-8.25,.01-1.45,1.2-2.63,2.66-2.64,2.74-.02,5.48-.02,8.21,0,1.48,0,2.64,1.19,2.67,2.68,.01,.89,0,1.78,0,2.7h10.84c0-.17,0-.34,0-.52,.02-.9-.05-1.82,.08-2.7,.19-1.26,1.3-2.15,2.56-2.16,2.75-.02,5.5-.02,8.26,0,1.44,0,2.63,1.18,2.64,2.62,.02,2.77,.02,5.53,0,8.3-.01,1.44-1.19,2.59-2.63,2.62-.9,.02-1.81,0-2.74,0v10.84c.17,0,.34,0,.52,0,.9,.02,1.82-.05,2.7,.08,1.26,.19,2.15,1.29,2.16,2.56,.02,2.75,.02,5.5,0,8.25-.01,1.46-1.2,2.63-2.66,2.64-2.74,.02-5.48,.02-8.21,0-1.48,0-2.64-1.2-2.67-2.68-.01-.89,0-1.78,0-2.71ZM9.19,14.58v10.84c.92,0,1.81,0,2.69,0,.79,0,1.46,.31,1.99,.89,.48,.52,.71,1.14,.71,1.85,0,.88,0,1.77,0,2.65h10.84c0-.17,0-.31,0-.45,0-.76-.01-1.52,0-2.29,.03-1.46,1.19-2.62,2.65-2.65,.91-.02,1.82,0,2.73,0V14.58c-.17,0-.31,0-.45,0-.75,0-1.5,0-2.24,0-1.5-.02-2.67-1.19-2.69-2.7-.01-.9,0-1.79,0-2.69H14.58c0,.88,0,1.72,0,2.56,0,1.66-1.16,2.82-2.83,2.82-.84,0-1.69,0-2.56,0ZM3.77,3.76V11.84H11.85V3.76H3.77ZM36.23,11.85V3.78h-8.08V11.85h8.08ZM3.77,28.15v8.08H11.85v-8.08H3.77Zm24.39,0v8.08h8.08v-8.08h-8.08Z"/></g></g></svg>