<?xml version="1.0" encoding="UTF-8"?><svg id="Layer_2" xmlns="http://www.w3.org/2000/svg" viewBox="0 0 40 40"><defs><style>.cls-1{stroke:#0091ff;stroke-miterlimit:10;stroke-width:.43px;}.cls-1,.cls-2{fill:none;}.cls-3{fill:#0091ff;}</style></defs><g id="Layer_1-2"><g><rect class="cls-2" width="40" height="40"/><g><path class="cls-3" d="M36.05,12.37c-.43-.07-.87-.07-1.31-.1,.38-4.02-3.88-6.49-7.12-4.28-.08-.07-.17-.15-.26-.23-.74-.67-1.57-1.2-2.53-1.49-.27-.08-.37-.22-.42-.49-.31-2.06-2.12-3.66-4.2-3.75-1.04-.04-1.97,.25-2.83,.84C15.23,.88,12.76,.17,9.99,1.15c-2.79,.98-4.29,3.08-4.72,5.93-.65,.1-1.29,.11-1.87,.3-1.75,.55-2.87,2.38-2.6,4.13,.31,1.95,1.83,3.33,3.75,3.36,1.63,.02,3.26,0,4.89,0,.59,0,1.17,0,1.78,0-.03,.14-.05,.24-.07,.34-.55,2.21,.84,4.4,3.1,4.72,1,.14,2.02,.07,3.04,.08,1.01,0,2.02,0,3.18,0-.61,.34-.4,.85-.48,1.28h-.51c-5.09,0-10.18,0-15.26,0-1.38,0-2.15,.77-2.15,2.17,0,3.83,0,7.65,0,11.48v.49c-.16,0-.26,0-.37,0-.68,0-.91,.3-.78,.97,.06,.34,.13,.68,.18,1.03,.21,1.28,.89,1.86,2.18,1.86,7.3,0,14.61,0,21.91,0,.12,0,.24,0,.36,0,.79-.04,1.54-.6,1.73-1.33,.15-.58,.24-1.18,.33-1.77,.06-.42-.21-.72-.64-.74-.17-.01-.34,0-.52,0v-7.73c.7,.09,1.29,0,1.32-.89,.71,.38,.89,.4,1.2,.1,.6-.59,1.2-1.19,1.79-1.79,.23-.24,.25-.52,.1-.81-.06-.11-.12-.22-.18-.34q.88-.33,.88-1.29c0-.58,.02-1.15,0-1.73-.02-.32-.14-.63-.21-.96,.62,0,1.32,0,2.03,0,.72,0,1.44,.01,2.16,0,1.96-.05,3.59-1.63,3.71-3.58,.13-1.98-1.24-3.74-3.18-4.06Zm-24.32,1.2c-2.36,.01-4.73,.02-7.09,0-1.46,0-2.59-1.13-2.59-2.56,0-1.44,1.13-2.56,2.61-2.58,.36,0,.72,0,1.08,0,.56,0,.78-.22,.8-.77,.11-2.62,1.72-4.74,4.22-5.43,2.24-.61,4.19-.01,5.8,1.66,.62,.65,.73,.67,1.41,.12,1.8-1.46,4.51-.6,5.11,1.64,.02,.06,.02,.13,.03,.22-1.92-.1-3.64,.43-5.1,1.67-1.45,1.23-2.26,2.82-2.48,4.72-.44,.03-.86,.04-1.28,.1-.79,.11-1.46,.47-2.05,1.01-.12,.11-.32,.2-.48,.2ZM3.34,34.98c0-3.83,0-7.65,0-11.48,0-.73,.19-.92,.93-.92,5.1,0,10.2,0,15.3,0h.44c-.04,.69-.03,1.35,.92,1.34-.09,.17-.15,.28-.21,.38-.17,.31-.15,.59,.1,.84,.58,.59,1.17,1.17,1.76,1.76,.41,.41,.78,.15,1.2-.09,.07,.86,.61,1.01,1.33,.89v7.73h-.41c-2.75,0-5.5,0-8.25,0-.48,0-.84,.11-.95,.64h-2.51c-.1-.53-.46-.64-.95-.64-2.74,.01-5.47,0-8.21,0h-.48v-.45Zm22.71,2.55c-.1,.2-.34,.34-.54,.46-.11,.06-.29,.02-.43,.02-7.18,0-14.37,0-21.55,0-.97,0-1.16-.1-1.22-1.27H11.65c.1,.52,.46,.64,.94,.63,1.11-.02,2.22,0,3.32,0,.58,0,.7-.08,.93-.62h9.36c-.05,.28-.03,.57-.15,.8Zm4.2-14.82c-.23,.06-.45,.12-.68,.18-.55,.16-.72,.55-.45,1.04,.35,.66,.35,.65-.17,1.19-.18,.18-.32,.39-.46,.55q-1.48-.68-1.96,.74h-1.54c-.06-.24-.12-.48-.19-.72-.15-.49-.55-.66-1-.42q-.69,.36-1.25-.19c-.16-.16-.34-.3-.49-.43,.1-.51,.64-.81,.43-1.34-.22-.54-.8-.39-1.2-.62v-1.51q1.45-.53,.79-1.85c.37-.35,.73-.7,1.13-1.08,.36,.08,.67,.62,1.2,.39,.52-.22,.39-.78,.6-1.19h1.54c.06,.24,.11,.47,.18,.7,.15,.5,.53,.67,.99,.44q.71-.36,1.28,.21l.03,.03q.46,.46,.13,1.03c-.33,.57-.16,.96,.49,1.13,.19,.05,.39,.1,.6,.16v1.55Zm7.69-6.32c-.12,1.25-1.16,2.29-2.41,2.32-1.53,.04-3.07,.02-4.61,0-.14,0-.3-.1-.4-.2-.44-.41-.85-.85-1.28-1.27-.61-.61-.67-.62-1.45-.19-.04-.14-.07-.25-.11-.37-.1-.33-.31-.52-.67-.53-.83,0-1.66,0-2.48,0-.35,0-.57,.18-.68,.51-.03,.11-.06,.23-.11,.37-.09-.04-.15-.07-.22-.11-.49-.27-.68-.25-1.06,.13-.47,.47-.93,.96-1.42,1.41-.14,.13-.36,.24-.54,.24-1.86,.02-3.71,.02-5.57,0-1.48,0-2.62-1.12-2.63-2.56,0-1.44,1.13-2.56,2.61-2.58,.36,0,.72,0,1.08,0,.55,0,.77-.22,.8-.77,.1-2.61,1.74-4.75,4.23-5.42,2.26-.61,4.22,0,5.83,1.7,.57,.6,.73,.62,1.35,.1,1.08-.9,2.59-.99,3.77-.24,1.17,.75,1.73,2.17,1.38,3.53-.22,.85-.02,1.1,.85,1.11,.59,0,1.18-.03,1.75,.08,1.26,.24,2.1,1.44,1.99,2.72Zm-3.2,12.44c0,1.31-.78,2.1-2.09,2.11-1.51,0-3.02,0-4.53,0h-.42v1.29h.41c1.5,0,2.99,0,4.49,0,2.06,0,3.42-1.36,3.42-3.41,0-2.35,0-4.71,0-7.06v-.43h-1.28c0,2.54,0,5.02,0,7.51Zm-22.45-.43h-1.25v1.23h1.25v-1.23Zm2.55,0h-1.22v1.25h1.22v-1.25Zm2.58,0h-1.24v1.23h1.24v-1.23Zm8.39-9.02c-1.42-.02-2.59,1.12-2.6,2.54-.01,1.42,1.13,2.59,2.55,2.6,1.4,0,2.56-1.13,2.58-2.52,.02-1.43-1.11-2.6-2.53-2.62Zm-.02,3.85c-.7,0-1.28-.56-1.29-1.26-.01-.72,.57-1.31,1.29-1.31,.7,0,1.27,.58,1.27,1.28,0,.7-.57,1.28-1.27,1.29Z"/><path class="cls-1" d="M36.05,12.37c-.43-.07-.87-.07-1.31-.1,.38-4.02-3.88-6.49-7.12-4.28-.08-.07-.17-.15-.26-.23-.74-.67-1.57-1.2-2.53-1.49-.27-.08-.37-.22-.42-.49-.31-2.06-2.12-3.66-4.2-3.75-1.04-.04-1.97,.25-2.83,.84C15.23,.88,12.76,.17,9.99,1.15c-2.79,.98-4.29,3.08-4.72,5.93-.65,.1-1.29,.11-1.87,.3-1.75,.55-2.87,2.38-2.6,4.13,.31,1.95,1.83,3.33,3.75,3.36,1.63,.02,3.26,0,4.89,0,.59,0,1.17,0,1.78,0-.03,.14-.05,.24-.07,.34-.55,2.21,.84,4.4,3.1,4.72,1,.14,2.02,.07,3.04,.08,1.01,0,2.02,0,3.18,0-.61,.34-.4,.85-.48,1.28h-.51c-5.09,0-10.18,0-15.26,0-1.38,0-2.15,.77-2.15,2.17,0,3.83,0,7.65,0,11.48v.49c-.16,0-.26,0-.37,0-.68,0-.91,.3-.78,.97,.06,.34,.13,.68,.18,1.03,.21,1.28,.89,1.86,2.18,1.86,7.3,0,14.61,0,21.91,0,.12,0,.24,0,.36,0,.79-.04,1.54-.6,1.73-1.33,.15-.58,.24-1.18,.33-1.77,.06-.42-.21-.72-.64-.74-.17-.01-.34,0-.52,0v-7.73c.7,.09,1.29,0,1.32-.89,.71,.38,.89,.4,1.2,.1,.6-.59,1.2-1.19,1.79-1.79,.23-.24,.25-.52,.1-.81-.06-.11-.12-.22-.18-.34q.88-.33,.88-1.29c0-.58,.02-1.15,0-1.73-.02-.32-.14-.63-.21-.96,.62,0,1.32,0,2.03,0,.72,0,1.44,.01,2.16,0,1.96-.05,3.59-1.63,3.71-3.58,.13-1.98-1.24-3.74-3.18-4.06Zm-24.32,1.2c-2.36,.01-4.73,.02-7.09,0-1.46,0-2.59-1.13-2.59-2.56,0-1.44,1.13-2.56,2.61-2.58,.36,0,.72,0,1.08,0,.56,0,.78-.22,.8-.77,.11-2.62,1.72-4.74,4.22-5.43,2.24-.61,4.19-.01,5.8,1.66,.62,.65,.73,.67,1.41,.12,1.8-1.46,4.51-.6,5.11,1.64,.02,.06,.02,.13,.03,.22-1.92-.1-3.64,.43-5.1,1.67-1.45,1.23-2.26,2.82-2.48,4.72-.44,.03-.86,.04-1.28,.1-.79,.11-1.46,.47-2.05,1.01-.12,.11-.32,.2-.48,.2ZM3.34,34.98c0-3.83,0-7.65,0-11.48,0-.73,.19-.92,.93-.92,5.1,0,10.2,0,15.3,0h.44c-.04,.69-.03,1.35,.92,1.34-.09,.17-.15,.28-.21,.38-.17,.31-.15,.59,.1,.84,.58,.59,1.17,1.17,1.76,1.76,.41,.41,.78,.15,1.2-.09,.07,.86,.61,1.01,1.33,.89v7.73h-.41c-2.75,0-5.5,0-8.25,0-.48,0-.84,.11-.95,.64h-2.51c-.1-.53-.46-.64-.95-.64-2.74,.01-5.47,0-8.21,0h-.48v-.45Zm22.71,2.55c-.1,.2-.34,.34-.54,.46-.11,.06-.29,.02-.43,.02-7.18,0-14.37,0-21.55,0-.97,0-1.16-.1-1.22-1.27H11.65c.1,.52,.46,.64,.94,.63,1.11-.02,2.22,0,3.32,0,.58,0,.7-.08,.93-.62h9.36c-.05,.28-.03,.57-.15,.8Zm4.2-14.82c-.23,.06-.45,.12-.68,.18-.55,.16-.72,.55-.45,1.04,.35,.66,.35,.65-.17,1.19-.18,.18-.32,.39-.46,.55q-1.48-.68-1.96,.74h-1.54c-.06-.24-.12-.48-.19-.72-.15-.49-.55-.66-1-.42q-.69,.36-1.25-.19c-.16-.16-.34-.3-.49-.43,.1-.51,.64-.81,.43-1.34-.22-.54-.8-.39-1.2-.62v-1.51q1.45-.53,.79-1.85c.37-.35,.73-.7,1.13-1.08,.36,.08,.67,.62,1.2,.39,.52-.22,.39-.78,.6-1.19h1.54c.06,.24,.11,.47,.18,.7,.15,.5,.53,.67,.99,.44q.71-.36,1.28,.21l.03,.03q.46,.46,.13,1.03c-.33,.57-.16,.96,.49,1.13,.19,.05,.39,.1,.6,.16v1.55Zm7.69-6.32c-.12,1.25-1.16,2.29-2.41,2.32-1.53,.04-3.07,.02-4.61,0-.14,0-.3-.1-.4-.2-.44-.41-.85-.85-1.28-1.27-.61-.61-.67-.62-1.45-.19-.04-.14-.07-.25-.11-.37-.1-.33-.31-.52-.67-.53-.83,0-1.66,0-2.48,0-.35,0-.57,.18-.68,.51-.03,.11-.06,.23-.11,.37-.09-.04-.15-.07-.22-.11-.49-.27-.68-.25-1.06,.13-.47,.47-.93,.96-1.42,1.41-.14,.13-.36,.24-.54,.24-1.86,.02-3.71,.02-5.57,0-1.48,0-2.62-1.12-2.63-2.56,0-1.44,1.13-2.56,2.61-2.58,.36,0,.72,0,1.08,0,.55,0,.77-.22,.8-.77,.1-2.61,1.74-4.75,4.23-5.42,2.26-.61,4.22,0,5.83,1.7,.57,.6,.73,.62,1.35,.1,1.08-.9,2.59-.99,3.77-.24,1.17,.75,1.73,2.17,1.38,3.53-.22,.85-.02,1.1,.85,1.11,.59,0,1.18-.03,1.75,.08,1.26,.24,2.1,1.44,1.99,2.72Zm-3.2,12.44c0,1.31-.78,2.1-2.09,2.11-1.51,0-3.02,0-4.53,0h-.42v1.29h.41c1.5,0,2.99,0,4.49,0,2.06,0,3.42-1.36,3.42-3.41,0-2.35,0-4.71,0-7.06v-.43h-1.28c0,2.54,0,5.02,0,7.51Zm-22.45-.43h-1.25v1.23h1.25v-1.23Zm2.55,0h-1.22v1.25h1.22v-1.25Zm2.58,0h-1.24v1.23h1.24v-1.23Zm8.39-9.02c-1.42-.02-2.59,1.12-2.6,2.54-.01,1.42,1.13,2.59,2.55,2.6,1.4,0,2.56-1.13,2.58-2.52,.02-1.43-1.11-2.6-2.53-2.62Zm-.02,3.85c-.7,0-1.28-.56-1.29-1.26-.01-.72,.57-1.31,1.29-1.31,.7,0,1.27,.58,1.27,1.28,0,.7-.57,1.28-1.27,1.29Z"/></g></g></g></svg>