<?xml version="1.0" encoding="UTF-8"?><svg id="Layer_2" xmlns="http://www.w3.org/2000/svg" viewBox="0 0 40 40"><defs><style>.cls-1{stroke:#0091ff;stroke-miterlimit:10;stroke-width:.88px;}.cls-1,.cls-2{fill:none;}.cls-3{fill:#0091ff;}</style></defs><g id="Layer_1-2"><g><rect class="cls-2" width="40" height="40"/><rect class="cls-2" x=".71" y=".71" width="38.57" height="38.57"/><g><path class="cls-3" d="M26.14,16.96c0-.26,0-.53-.06-.78-.24-1.07-1.1-1.71-2.3-1.71-6.24,0-12.47,0-18.71,0-.09,0-.18,0-.27,0-.92,.04-1.68,.61-1.99,1.48-.04,.11-.08,.21-.12,.31v19.78c.16,.55,.38,1.08,.88,1.4,.3,.19,.65,.31,.97,.46H24.34c1.51-.48,1.82-1.48,1.82-2.72-.03-6.08-.01-12.15-.01-18.23Zm-1.46,18.53c0,.7-.26,.96-.95,.96-6.2,0-12.41,0-18.61,0-.71,0-.97-.26-.97-.98,0-6.19,0-12.38,0-18.58,0-.72,.25-.97,.97-.97,6.2,0,12.41,0,18.61,0,.7,0,.94,.25,.94,.95,0,3.1,0,6.2,0,9.3,0,3.1,0,6.2,0,9.3ZM5,11.53c10.19,0,20.38,0,30.56,0,1.37,0,2.31-.94,2.31-2.31,0-1.34,0-2.68,0-4.02,0-1.59-.88-2.47-2.46-2.47-10.08,0-20.17,0-30.25,0-.1,0-.21,0-.31,0-.93,.02-1.72,.6-2.03,1.48-.04,.1-.08,.21-.13,.31v5.15c.02,.06,.05,.12,.07,.19,.31,1.06,1.12,1.67,2.24,1.67Zm-.84-6.39c0-.68,.27-.94,.97-.94,5.06,0,10.12,0,15.18,0s10.03,0,15.04,0c.85,0,1.07,.22,1.07,1.08,0,1.28,0,2.56,0,3.85,0,.67-.27,.94-.93,.94-10.13,0-20.26,0-30.4,0-.67,0-.93-.27-.93-.94,0-1.33,0-2.66,0-3.98Zm29.31,9.33c-2.42,0-4.39,1.97-4.39,4.39,0,2.41,1.98,4.39,4.39,4.4,2.42,0,4.41-1.99,4.41-4.42,0-2.42-1.98-4.38-4.41-4.37Zm0,7.31c-1.61,0-2.93-1.32-2.92-2.93,0-1.62,1.34-2.94,2.96-2.93,1.6,.01,2.92,1.35,2.91,2.95-.02,1.61-1.33,2.91-2.94,2.9Zm-3.79,5.85c.12,.03,.25,.03,.37,.03,2.29,0,4.57,0,6.86,0,.15,0,.3,0,.44-.05,.31-.08,.52-.36,.52-.68,0-.32-.2-.61-.51-.69-.14-.04-.29-.05-.44-.05-1.14,0-2.29,0-3.43,0s-2.29,0-3.43,0c-.13,0-.25,0-.38,.02-.37,.07-.61,.37-.61,.72,0,.34,.24,.63,.59,.7Zm7.38,2.95c-1.18,0-2.36,0-3.53,0-1.15,0-2.31,0-3.46,0-.15,0-.3,0-.44,.04-.32,.08-.52,.36-.53,.68,0,.33,.21,.62,.54,.71,.14,.04,.29,.04,.44,.04,1.53,0,3.06,0,4.6,0,.78,0,1.56,.02,2.33-.01,.23,0,.5-.1,.68-.25,.23-.18,.27-.47,.15-.75-.14-.34-.42-.47-.77-.47Zm.01,4.4c-1.19,0-2.38,0-3.57,0-1.14,0-2.29,0-3.43,0-.15,0-.3,0-.44,.04-.33,.08-.54,.37-.54,.71,0,.32,.21,.6,.53,.68,.14,.04,.29,.04,.44,.05,1.23,0,2.47,0,3.7,0h3.05c.08,0,.16,0,.24,0,.5-.02,.82-.3,.82-.73,0-.43-.32-.74-.81-.74Z"/><path class="cls-1" d="M26.14,16.96c0-.26,0-.53-.06-.78-.24-1.07-1.1-1.71-2.3-1.71-6.24,0-12.47,0-18.71,0-.09,0-.18,0-.27,0-.92,.04-1.68,.61-1.99,1.48-.04,.11-.08,.21-.12,.31v19.78c.16,.55,.38,1.08,.88,1.4,.3,.19,.65,.31,.97,.46H24.34c1.51-.48,1.82-1.48,1.82-2.72-.03-6.08-.01-12.15-.01-18.23Zm-1.46,18.53c0,.7-.26,.96-.95,.96-6.2,0-12.41,0-18.61,0-.71,0-.97-.26-.97-.98,0-6.19,0-12.38,0-18.58,0-.72,.25-.97,.97-.97,6.2,0,12.41,0,18.61,0,.7,0,.94,.25,.94,.95,0,3.1,0,6.2,0,9.3,0,3.1,0,6.2,0,9.3ZM5,11.53c10.19,0,20.38,0,30.56,0,1.37,0,2.31-.94,2.31-2.31,0-1.34,0-2.68,0-4.02,0-1.59-.88-2.47-2.46-2.47-10.08,0-20.17,0-30.25,0-.1,0-.21,0-.31,0-.93,.02-1.72,.6-2.03,1.48-.04,.1-.08,.21-.13,.31v5.15c.02,.06,.05,.12,.07,.19,.31,1.06,1.12,1.67,2.24,1.67Zm-.84-6.39c0-.68,.27-.94,.97-.94,5.06,0,10.12,0,15.18,0s10.03,0,15.04,0c.85,0,1.07,.22,1.07,1.08,0,1.28,0,2.56,0,3.85,0,.67-.27,.94-.93,.94-10.13,0-20.26,0-30.4,0-.67,0-.93-.27-.93-.94,0-1.33,0-2.66,0-3.98Zm29.31,9.33c-2.42,0-4.39,1.97-4.39,4.39,0,2.41,1.98,4.39,4.39,4.4,2.42,0,4.41-1.99,4.41-4.42,0-2.42-1.98-4.38-4.41-4.37Zm0,7.31c-1.61,0-2.93-1.32-2.92-2.93,0-1.62,1.34-2.94,2.96-2.93,1.6,.01,2.92,1.35,2.91,2.95-.02,1.61-1.33,2.91-2.94,2.9Zm-3.79,5.85c.12,.03,.25,.03,.37,.03,2.29,0,4.57,0,6.86,0,.15,0,.3,0,.44-.05,.31-.08,.52-.36,.52-.68,0-.32-.2-.61-.51-.69-.14-.04-.29-.05-.44-.05-1.14,0-2.29,0-3.43,0s-2.29,0-3.43,0c-.13,0-.25,0-.38,.02-.37,.07-.61,.37-.61,.72,0,.34,.24,.63,.59,.7Zm7.38,2.95c-1.18,0-2.36,0-3.53,0-1.15,0-2.31,0-3.46,0-.15,0-.3,0-.44,.04-.32,.08-.52,.36-.53,.68,0,.33,.21,.62,.54,.71,.14,.04,.29,.04,.44,.04,1.53,0,3.06,0,4.6,0,.78,0,1.56,.02,2.33-.01,.23,0,.5-.1,.68-.25,.23-.18,.27-.47,.15-.75-.14-.34-.42-.47-.77-.47Zm.01,4.4c-1.19,0-2.38,0-3.57,0-1.14,0-2.29,0-3.43,0-.15,0-.3,0-.44,.04-.33,.08-.54,.37-.54,.71,0,.32,.21,.6,.53,.68,.14,.04,.29,.04,.44,.05,1.23,0,2.47,0,3.7,0h3.05c.08,0,.16,0,.24,0,.5-.02,.82-.3,.82-.73,0-.43-.32-.74-.81-.74Z"/></g></g></g></svg>