<?xml version="1.0" encoding="UTF-8"?><svg id="Layer_2" xmlns="http://www.w3.org/2000/svg" viewBox="0 0 40 40"><defs><style>.cls-1{fill:#0091ff;}.cls-2{fill:none;}</style></defs><g id="Layer_1-2"><g><rect class="cls-2" width="40" height="40"/><path class="cls-1" d="M31.79,29.57c-.3-.61-.98-.94-1.63-.81-.71,.15-1.2,.71-1.21,1.44-.02,.94,0,1.89-.01,2.83-.03,1.78-1.31,3.07-3.09,3.08-4.83,.01-9.66,.01-14.49,0-1.8,0-3.09-1.3-3.1-3.1,0-8.79,0-17.58,0-26.37,0-1.82,1.3-3.11,3.13-3.11,4.8,0,9.61,0,14.41,0,1.84,0,3.12,1.3,3.13,3.15,0,.7,0,1.41,0,2.11,0,.93,.63,1.6,1.49,1.61,.88,0,1.52-.66,1.52-1.61,0-.72,0-1.43,0-2.15-.02-3.47-2.65-6.12-6.12-6.12-4.83-.01-9.66-.02-14.49,.01-.68,0-1.39,.12-2.03,.34-2.52,.85-4.07,3.11-4.07,5.83,0,8.09,0,16.17,0,24.26,0,.78-.03,1.56,.01,2.34,.13,2.39,1.27,4.15,3.39,5.23,.6,.31,1.3,.42,1.95,.63h16c.07-.02,.14-.06,.21-.07,2.66-.4,4.77-2.48,5.07-5.15,.14-1.27,.06-2.56,.07-3.84,0-.17-.07-.35-.15-.5Zm-15.6-10.36c1.12-.94,2.24-1.86,3.35-2.81,.67-.58,.75-1.47,.23-2.12-.52-.64-1.43-.77-2.09-.24-1.34,1.09-2.68,2.2-3.98,3.35-.73,.64-1.04,1.52-1.07,2.51,.02,.96,.35,1.82,1.07,2.51,.32,.31,.66,.58,1,.86,.95,.8,1.9,1.6,2.86,2.4,.79,.65,1.81,.51,2.32-.31,.41-.66,.28-1.44-.37-1.99-1.18-1-2.37-1.99-3.55-2.98-.42-.35-.41-.63,0-.99,.08-.07,.15-.13,.23-.19Zm20.64-1.85c-.31-.3-.64-.56-.97-.84-.93-.79-1.85-1.59-2.78-2.38-.79-.66-1.81-.52-2.32,.28-.42,.66-.28,1.45,.38,2.02,1.11,.96,2.24,1.91,3.35,2.87,.55,.47,.55,.7,0,1.17-1.14,.98-2.3,1.95-3.43,2.95-.65,.57-.72,1.45-.2,2.1,.51,.64,1.44,.77,2.09,.23,1.32-1.1,2.64-2.22,3.92-3.37,.72-.64,1.02-1.51,1.05-2.48-.02-.99-.36-1.86-1.09-2.55Zm-10.01-5.03c-.68,.16-1.01,.64-1.19,1.28-.73,2.6-1.47,5.19-2.21,7.78-.39,1.39-.81,2.77-1.16,4.17-.24,.94,.45,1.79,1.4,1.8,.75,0,1.36-.45,1.58-1.21,.68-2.38,1.36-4.75,2.03-7.13,.47-1.64,.95-3.28,1.38-4.93,.27-1.08-.75-2.03-1.83-1.77Zm-5.21-4.93c.01-.82-.61-1.5-1.46-1.52-1.04-.03-2.09-.03-3.13,0-.85,.03-1.46,.72-1.45,1.53,.02,.82,.66,1.45,1.51,1.47,.5,.01,1.01,0,1.51,0,.49,0,.98,0,1.47,0,.88-.02,1.53-.65,1.54-1.48Zm-3.03,26.38c.84,0,1.52-.67,1.52-1.5,0-.83-.69-1.52-1.51-1.51-.81,0-1.49,.68-1.5,1.49-.01,.83,.66,1.52,1.49,1.52Z"/></g></g></svg>