<svg xmlns="http://www.w3.org/2000/svg" viewBox="0 0 28 28"><defs><style>.cls-1{fill:none;}.cls-2{fill:#0091ff;}</style></defs><g id="Layer_2" data-name="Layer 2"><g id="Layer_1-2" data-name="Layer 1"><rect class="cls-1" width="28" height="28"/><path class="cls-2" d="M27,22.86l-.95-.92L22.2,18.2a1.54,1.54,0,0,0-1.27-.52.79.79,0,0,1-.78-.3c-.08-.1-.19-.18-.28-.28l-1.48-1.6c.14-.26.34-.6.52-.95a.26.26,0,0,1,.28-.17,3.08,3.08,0,0,0,.68,0,.84.84,0,0,0-.19-1.66H16.93V11.05h1.88a.82.82,0,0,0,.83-.81.85.85,0,0,0-.79-.87H16.93V7.83h2.73a.84.84,0,1,0,0-1.68,1.71,1.71,0,0,0-.32,0c-.22,0-.33-.06-.44-.26A9.61,9.61,0,0,0,8.2.74,9.43,9.43,0,0,0,.76,8.05C.63,8.53.59,9,.5,9.52V11c.07.43.13.86.22,1.29a9.72,9.72,0,0,0,12.85,7.1c.68-.26,1.32-.61,2-.93.66.63,1.35,1.3,2,2a.23.23,0,0,1,0,.18,1.77,1.77,0,0,0,.57,1.9c1.49,1.42,3,2.85,4.43,4.29a2.52,2.52,0,0,0,1.15.74h.58a4.26,4.26,0,0,0,.86-.49c.62-.59,1.22-1.21,1.8-1.84A1.64,1.64,0,0,0,27,22.86ZM9,18.15a8,8,0,1,1,8.15-12c-.35,0-.66,0-1,0a.84.84,0,0,0-.9.91v6.32a.87.87,0,0,0,1,1H17A7.87,7.87,0,0,1,9,18.15Zm9.79,1L17,17.24l-.08.05.38-.36,1.92,1.86ZM24,25.71,19.24,21.1,21,19.43l4.76,4.62Zm-.44-11.38a3,3,0,0,0,3.14-2.26,14.13,14.13,0,0,0,.16-1.85H26.8c0-.4,0-.79,0-1.19A3,3,0,0,0,24.11,6.1a2.88,2.88,0,0,0-3.18,2.31,14.89,14.89,0,0,0-.07,3.27A2.91,2.91,0,0,0,23.55,14.33ZM22.51,9a1.28,1.28,0,0,1,1.36-1.24A1.3,1.3,0,0,1,25.11,9.1c0,.38,0,.75,0,1.13s0,.74,0,1.1a1.3,1.3,0,0,1-1.27,1.32,1.27,1.27,0,0,1-1.33-1.24C22.48,10.61,22.47,9.81,22.51,9Zm-10.24.35H10.11c-.21,0-.3-.09-.3-.3s0-.6,0-.9,0-.35.34-.35h3.22A.84.84,0,0,0,14.26,7a.82.82,0,0,0-.88-.84c-.57,0-1.14,0-1.71,0h0c-.57,0-1.14,0-1.71,0A1.86,1.86,0,0,0,8.14,7.92c0,.37,0,.75,0,1.13a1.87,1.87,0,0,0,2,2h2.14c.22,0,.32.08.31.31s0,.62,0,.92-.08.32-.31.32h-1.5c-.62,0-1.25,0-1.87,0a.81.81,0,0,0-.77.84.79.79,0,0,0,.79.82c1.2,0,2.41,0,3.61,0a1.81,1.81,0,0,0,1.73-1.81c0-.37,0-.74,0-1.11A1.9,1.9,0,0,0,12.27,9.37Z"/></g></g></svg>