<svg xmlns="http://www.w3.org/2000/svg" viewBox="0 0 28 28"><defs><style>.cls-1{fill:none;}.cls-2{fill:#0091ff;}</style></defs><g id="Layer_2" data-name="Layer 2"><g id="Layer_1-2" data-name="Layer 1"><rect class="cls-1" width="28" height="28"/><path class="cls-2" d="M15,0a3.16,3.16,0,0,1,1.53,1c1.92,1.93,3.85,3.84,5.77,5.76.45.45.44.67,0,1.12L20,10.18a.63.63,0,0,1-.63.25A.63.63,0,0,1,19,9.89a1.46,1.46,0,0,0-1.58-1.15,1.46,1.46,0,0,0-.17,2.88.64.64,0,0,1,.55.43.63.63,0,0,1-.26.64L15.2,15c-.38.38-.63.38-1,0l-1.83-1.85a2.57,2.57,0,0,1-2.29,1.4,2.5,2.5,0,0,1-1.88-.8,2.59,2.59,0,0,1,.67-4.06l-.18-.19L7,7.78a.56.56,0,0,1,0-.92L13.23.62A2.65,2.65,0,0,1,14.37,0Zm4.69,8.86,1.57-1.57-.12-.14-5.7-5.68a1,1,0,0,0-1.54,0L8.25,7.14l-.18.19.72.7c.5.51,1,1,1.51,1.51a.54.54,0,0,1,.14.6.55.55,0,0,1-.48.36,2,2,0,0,0-.42.09,1.44,1.44,0,0,0-.95,1.6A1.49,1.49,0,0,0,10,13.44a1.47,1.47,0,0,0,1.46-1.3c0-.28.12-.5.4-.58a.63.63,0,0,1,.66.23c.37.39.76.76,1.14,1.15s.64.66.93.94l1.51-1.51A2.52,2.52,0,0,1,15,9.62a2.35,2.35,0,0,1,1.84-1.89A2.51,2.51,0,0,1,19.71,8.86Z"/><path class="cls-2" d="M17.39,16.45a2.55,2.55,0,0,1,.77-2.51A2.44,2.44,0,0,1,20,13.25a2.57,2.57,0,0,1,2.35,3.2h2.71a.54.54,0,0,1,.62.6c0,3,0,6,0,9a2,2,0,0,1-2,2c-.48,0-1,0-1.45,0a.55.55,0,1,1,0-1.09c.44,0,.89,0,1.34,0a.93.93,0,0,0,1-1q0-4.11,0-8.22a1.49,1.49,0,0,0,0-.17h-.29c-.9,0-1.79,0-2.69,0a.61.61,0,0,1-.58-.28.59.59,0,0,1,.06-.66A1.45,1.45,0,0,0,19,14.69a1.43,1.43,0,0,0-.28,1.92.57.57,0,0,1-.52.94c-1,0-1.91,0-2.91,0v.3c0,.87,0,1.74,0,2.6a.6.6,0,0,1-.3.6.61.61,0,0,1-.68-.1,1.45,1.45,0,1,0-.18,2.38.83.83,0,0,0,.18-.13.56.56,0,0,1,.66-.12.6.6,0,0,1,.32.61c0,.95,0,1.91,0,2.87v.34h2.11a.55.55,0,1,1,0,1.09q-5.84,0-11.67,0a2,2,0,0,1-2-2V17.07c0-.43.21-.62.69-.62h13Zm-3.25,8.07a2.56,2.56,0,0,1-2.9-1,2.34,2.34,0,0,1-.12-2.66,2.52,2.52,0,0,1,3-1.22V17.57H4.78v8.24A1,1,0,0,0,5.87,26.9h8.27Z"/><path class="cls-2" d="M20.41,27.44a.53.53,0,0,1-.53.55.56.56,0,0,1-.56-.55.55.55,0,0,1,.55-.53A.53.53,0,0,1,20.41,27.44Z"/></g></g></svg>