<?xml version="1.0" encoding="UTF-8"?><svg id="Layer_2" xmlns="http://www.w3.org/2000/svg" viewBox="0 0 28 28"><defs><style>.cls-1{fill:#0091ff;}.cls-2{stroke:#0091ff;stroke-miterlimit:10;stroke-width:.53px;}.cls-2,.cls-3{fill:none;}</style></defs><g id="Layer_1-2"><g><rect class="cls-3" width="28" height="28"/><g><path class="cls-1" d="M25.8,1.65c-.13-.06-.26-.1-.39-.15H2.29c-.36,.13-.71,.28-.95,.61-.24,.33-.3,.69-.3,1.09,0,5.78,0,11.57,0,17.35v4.74c0,1.13,.22,1.47,1.25,1.9H25.41c.48-.15,.88-.38,1.1-.86,.06-.13,.1-.26,.15-.39V2.75c-.15-.48-.38-.88-.86-1.1Zm-.14,5.14V25.47c0,.54-.16,.7-.7,.7-7.41,0-14.81,0-22.22,0-.55,0-.71-.16-.71-.7V6.52H25.66v.27Zm0-1.3H2.04c0-.84,0-1.66,0-2.49,0-.29,.2-.47,.5-.5,.07,0,.15,0,.23,0,7.39,0,14.78,0,22.17,0,.59,0,.73,.15,.73,.75v2.25Zm-2.98,9.5c-2.89,0-5.77,0-8.66,0-.51,0-.68,.17-.68,.68,0,2.56,0,5.12,0,7.67,0,.51,.17,.68,.68,.68,1.44,0,2.89,0,4.33,0s2.89,0,4.33,0c.51,0,.68-.17,.68-.68,0-2.56,0-5.12,0-7.67,0-.51-.17-.68-.68-.68Zm-1.17,1.02c-1.06,.95-2.1,1.87-3.16,2.82-1.05-.93-2.09-1.86-3.17-2.82h6.33Zm-7.16,.6c1.09,.97,2.15,1.92,3.24,2.88-1.08,.96-2.14,1.91-3.24,2.89v-5.77Zm.82,6.39c1.08-.96,2.12-1.89,3.18-2.83,1.05,.93,2.09,1.86,3.18,2.83h-6.36Zm7.17-.62c-1.09-.97-2.15-1.91-3.24-2.88,1.08-.96,2.14-1.91,3.24-2.89v5.77ZM5.01,12.83c5.9,0,11.8,0,17.69,0,.49,0,.66-.17,.66-.67,0-.88,0-1.76,0-2.63,0-.56-.15-.71-.72-.71-2.93,0-5.86,0-8.78,0s-5.89,0-8.83,0c-.51,0-.68,.17-.68,.67,0,.89,0,1.79,0,2.68,0,.49,.17,.66,.67,.66Zm.35-2.99H22.35v1.98H5.36v-1.98Zm-.34,14.18c1.89,0,3.77,0,5.66,0,.51,0,.68-.17,.68-.68,0-2.56,0-5.12,0-7.67,0-.51-.17-.68-.68-.68-1.89,0-3.77,0-5.66,0-.51,0-.68,.17-.68,.68,0,1.28,0,2.56,0,3.84s0,2.56,0,3.84c0,.51,.17,.68,.68,.68Zm.34-8.01h4.98v6.99H5.36v-6.99ZM20.08,3.51c-.62,0-1.23,0-1.85,0-.34,0-.57,.21-.57,.5s.23,.49,.57,.5c.31,0,.62,0,.93,0s.62,0,.93,0c.34,0,.57-.21,.57-.5s-.23-.5-.57-.5Zm4.01,0c-.31,0-.62,0-.93,0-.31,0-.62,0-.93,0-.34,0-.57,.21-.57,.5,0,.29,.23,.5,.57,.5,.62,0,1.23,0,1.85,0,.34,0,.57-.21,.57-.5,0-.29-.23-.5-.57-.5Zm-7.93,0c-.26,0-.5,.22-.5,.49,0,.26,.22,.5,.49,.51,.26,0,.5-.23,.5-.49,0-.26-.22-.5-.49-.51Z"/><path class="cls-2" d="M25.8,1.65c-.13-.06-.26-.1-.39-.15H2.29c-.36,.13-.71,.28-.95,.61-.24,.33-.3,.69-.3,1.09,0,5.78,0,11.57,0,17.35v4.74c0,1.13,.22,1.47,1.25,1.9H25.41c.48-.15,.88-.38,1.1-.86,.06-.13,.1-.26,.15-.39V2.75c-.15-.48-.38-.88-.86-1.1Zm-.14,5.14V25.47c0,.54-.16,.7-.7,.7-7.41,0-14.81,0-22.22,0-.55,0-.71-.16-.71-.7V6.52H25.66v.27Zm0-1.3H2.04c0-.84,0-1.66,0-2.49,0-.29,.2-.47,.5-.5,.07,0,.15,0,.23,0,7.39,0,14.78,0,22.17,0,.59,0,.73,.15,.73,.75v2.25Zm-2.98,9.5c-2.89,0-5.77,0-8.66,0-.51,0-.68,.17-.68,.68,0,2.56,0,5.12,0,7.67,0,.51,.17,.68,.68,.68,1.44,0,2.89,0,4.33,0s2.89,0,4.33,0c.51,0,.68-.17,.68-.68,0-2.56,0-5.12,0-7.67,0-.51-.17-.68-.68-.68Zm-1.17,1.02c-1.06,.95-2.1,1.87-3.16,2.82-1.05-.93-2.09-1.86-3.17-2.82h6.33Zm-7.16,.6c1.09,.97,2.15,1.92,3.24,2.88-1.08,.96-2.14,1.91-3.24,2.89v-5.77Zm.82,6.39c1.08-.96,2.12-1.89,3.18-2.83,1.05,.93,2.09,1.86,3.18,2.83h-6.36Zm7.17-.62c-1.09-.97-2.15-1.91-3.24-2.88,1.08-.96,2.14-1.91,3.24-2.89v5.77ZM5.01,12.83c5.9,0,11.8,0,17.69,0,.49,0,.66-.17,.66-.67,0-.88,0-1.76,0-2.63,0-.56-.15-.71-.72-.71-2.93,0-5.86,0-8.78,0s-5.89,0-8.83,0c-.51,0-.68,.17-.68,.67,0,.89,0,1.79,0,2.68,0,.49,.17,.66,.67,.66Zm.35-2.99H22.35v1.98H5.36v-1.98Zm-.34,14.18c1.89,0,3.77,0,5.66,0,.51,0,.68-.17,.68-.68,0-2.56,0-5.12,0-7.67,0-.51-.17-.68-.68-.68-1.89,0-3.77,0-5.66,0-.51,0-.68,.17-.68,.68,0,1.28,0,2.56,0,3.84s0,2.56,0,3.84c0,.51,.17,.68,.68,.68Zm.34-8.01h4.98v6.99H5.36v-6.99ZM20.08,3.51c-.62,0-1.23,0-1.85,0-.34,0-.57,.21-.57,.5s.23,.49,.57,.5c.31,0,.62,0,.93,0s.62,0,.93,0c.34,0,.57-.21,.57-.5s-.23-.5-.57-.5Zm4.01,0c-.31,0-.62,0-.93,0-.31,0-.62,0-.93,0-.34,0-.57,.21-.57,.5,0,.29,.23,.5,.57,.5,.62,0,1.23,0,1.85,0,.34,0,.57-.21,.57-.5,0-.29-.23-.5-.57-.5Zm-7.93,0c-.26,0-.5,.22-.5,.49,0,.26,.22,.5,.49,.51,.26,0,.5-.23,.5-.49,0-.26-.22-.5-.49-.51Z"/></g></g></g></svg>