<?xml version="1.0" encoding="UTF-8"?><svg id="Layer_2" xmlns="http://www.w3.org/2000/svg" viewBox="0 0 40 40"><defs><style>.cls-1{fill:#fff;}.cls-2{fill:none;}</style></defs><g id="Layer_1-2"><g><rect class="cls-2" width="40" height="40"/><rect class="cls-2" x="1.1" y="1.1" width="37.79" height="37.79"/><path class="cls-1" d="M15.8,37.92h8.37v-2.76H15.8v2.76ZM37.32,9.78c-.32-.88-.63-1.73-.96-2.63-.9,.33-1.76,.64-2.63,.96,.32,.89,.63,1.74,.96,2.63,.89-.32,1.75-.63,2.63-.96Zm-34.65,0c.89,.32,1.75,.64,2.63,.96,.32-.89,.64-1.75,.96-2.63-.88-.32-1.73-.63-2.63-.96-.33,.9-.64,1.76-.96,2.63Zm0,9.84c.32,.88,.64,1.74,.96,2.63,.89-.32,1.75-.64,2.63-.96-.33-.89-.64-1.75-.96-2.63-.89,.32-1.75,.64-2.63,.96Zm2.16-6.31H2.07v2.76h2.76v-2.76Zm30.33-.02v2.8h2.78v-2.8h-2.78Zm-1.43,7.98c.88,.32,1.74,.63,2.63,.96,.32-.89,.64-1.76,.96-2.64-.9-.33-1.76-.64-2.63-.95-.33,.9-.64,1.75-.96,2.63ZM22.96,2.43c-.68-.16-1.37-.24-2.06-.36h-1.82c-.42,.07-.85,.12-1.27,.2-7.82,1.39-12.44,9.54-9.59,16.95,.71,1.84,1.81,3.41,3.24,4.76,.82,.77,1.38,1.68,1.49,2.81,.06,.64,.02,1.28,.03,1.92,.02,2.3,1.87,4.17,4.17,4.18,1.89,.01,3.78,.03,5.67,0,1.71-.03,2.97-.86,3.75-2.38,.3-.58,.41-1.21,.43-1.86,.02-.77-.01-1.55,.11-2.3,.18-1.08,.89-1.86,1.65-2.62,2.97-2.99,4.25-6.58,3.71-10.77-.65-5.09-4.51-9.35-9.51-10.53Zm3.82,19.31c-1.06,1.04-1.94,2.18-2.32,3.64-.15,.57-.21,1.17-.26,1.76-.04,.52,0,1.05-.01,1.58-.02,.75-.58,1.34-1.32,1.38-.48,.02-.95,0-1.48,0v-5.58h-2.79v5.54c-.6,0-1.19,.07-1.75-.02-.66-.1-1.04-.68-1.06-1.38-.03-.86,.01-1.73-.11-2.58-.25-1.65-1.09-3.01-2.3-4.14-1.47-1.38-2.46-3.03-2.93-4.99-1.37-5.73,2.69-11.44,8.56-12.01,5.28-.51,10.01,3.19,10.7,8.44,.42,3.25-.58,6.06-2.92,8.37Zm-4.01-7.41c-.93-.94-1.85-1.85-2.79-2.8-.92,.92-1.84,1.84-2.79,2.8-.61-.61-1.2-1.2-1.75-1.76-.67,.67-1.32,1.32-1.93,1.93,1.23,1.23,2.48,2.48,3.78,3.78,.89-.89,1.81-1.82,2.78-2.79,.92,.92,1.84,1.85,2.7,2.72l3.7-3.7c-.62-.62-1.26-1.27-1.95-1.95-.55,.56-1.13,1.15-1.76,1.78Z"/></g></g></svg>