<?xml version="1.0" encoding="UTF-8"?><svg id="Layer_2" xmlns="http://www.w3.org/2000/svg" viewBox="0 0 40 40"><defs><style>.cls-1{fill:#fff;}.cls-2{fill:none;}</style></defs><g id="Layer_2-2"><g><rect class="cls-2" width="40" height="40"/><path class="cls-1" d="M39.5,36.52c-.05-.29-.21-.57-.38-.82-1.71-2.58-3.42-5.15-5.14-7.71-.17-.26-.17-.42,0-.68,3.25-4.96,.38-11.67-5.44-12.73-.72-.13-1.44-.22-2.13-.54-3.7-1.68-7.41-3.3-11.12-4.96-.59-.26-1.11-.27-1.7,0-3.78,1.7-7.57,3.39-11.37,5.05-1.75,.76-1.79,.95-1.7,3.18,.05,.43,.11,1.26,.22,2.08,.72,5.21,2.79,9.81,6.14,13.85,1.95,2.35,4.37,4.15,6.75,6.01,.52,.41,1.14,.36,1.69-.06,.47-.36,.93-.75,1.4-1.1,.17-.13,.37-.24,.57-.29,1-.26,2-.48,2.99-.75,.33-.09,.43,.02,.55,.27,.22,.47,.42,.96,.71,1.39,.19,.29,.47,.57,.78,.7,.77,.33,1.54-.12,1.84-1.02,.76-2.28,1.53-4.56,2.28-6.85,.09-.28,.2-.41,.53-.41,.35,0,.43,.16,.52,.43,.75,2.29,1.51,4.57,2.28,6.85,.23,.69,.69,1.08,1.3,1.1,.67,.02,1.12-.32,1.4-.92,.2-.43,.44-.85,.63-1.29,.12-.28,.26-.34,.56-.26,1.36,.36,2.72,.7,4.09,1.02,.99,.24,1.9-.57,1.73-1.54Zm-24.6-.94c-.15,.23-.29,.46-.45,.72-3.29-2.33-6.07-5.08-8.03-8.6-1.84-3.31-2.89-6.85-3.12-10.63-.02-.28,.07-.4,.32-.51,3.51-1.55,7.02-3.12,10.53-4.67,.14-.06,.35-.09,.49-.03,2.7,1.19,5.4,2.4,8.1,3.61,.01,0,.02,.02,.05,.04-.37,.27-.75,.53-1.11,.82-3.29,2.66-4.04,7.44-1.71,10.98,.19,.28,.16,.46-.02,.72-1.69,2.52-3.37,5.04-5.05,7.56Zm7.63-1.1c-.56-.62-1.18-.63-1.87-.42-.51,.16-1.04,.26-1.68,.42,1.11-1.67,2.16-3.25,3.21-4.81,.55,.3,1.07,.58,1.64,.89-.42,1.28-.86,2.57-1.31,3.92Zm4.45-6.14c-3.08,0-5.59-2.52-5.58-5.61,.01-3.06,2.53-5.55,5.6-5.55,3.06,0,5.56,2.52,5.56,5.59,0,3.06-2.51,5.57-5.58,5.57Zm6.17,5.68c-.64-.18-1.2-.1-1.73,.46-.45-1.35-.88-2.64-1.31-3.92,.56-.3,1.09-.59,1.64-.89,1.05,1.57,2.1,3.15,3.21,4.81-.67-.17-1.25-.3-1.81-.46ZM2.61,8.64c3.8-1.69,7.61-3.37,11.4-5.07,.31-.14,.55-.13,.86,0,3.8,1.7,7.6,3.39,11.4,5.08,.84,.37,1.65,.1,1.98-.65,.32-.74,0-1.52-.83-1.88-4.1-1.83-8.21-3.65-12.32-5.48-.47-.21-.92-.2-1.38,.01-1.11,.5-2.22,.99-3.34,1.49-2.98,1.33-5.96,2.66-8.94,3.97-.59,.26-.91,.69-.97,1.36,.02,.1,.03,.23,.07,.35,.26,.89,1.13,1.24,2.07,.83Zm24.8,1.65c-4.08-1.82-8.16-3.63-12.24-5.45-.51-.23-.99-.22-1.5,.01-2.79,1.25-5.59,2.49-8.38,3.73-1.31,.58-2.63,1.16-3.93,1.75-.64,.29-.97,.94-.84,1.56,.14,.66,.7,1.12,1.38,1.17,.26-.09,.52-.16,.77-.27,3.79-1.68,7.58-3.36,11.36-5.05,.29-.13,.52-.13,.82,0,3.78,1.69,7.57,3.38,11.37,5.05,.32,.14,.71,.21,1.04,.17,.6-.07,1.04-.6,1.11-1.18,.08-.63-.27-1.19-.96-1.5Zm3.34,10.11c-.58-.58-1.42-.54-2.08,.12-.55,.55-1.1,1.11-1.72,1.74-.13-.16-.2-.28-.3-.37-.64-.63-1.48-.66-2.05-.1-.58,.57-.55,1.42,.07,2.05,.41,.41,.82,.82,1.23,1.23,.68,.67,1.46,.67,2.14,0,.87-.86,1.73-1.72,2.58-2.58,.65-.66,.7-1.5,.11-2.08Z"/></g></g></svg>