<?xml version="1.0" encoding="UTF-8"?><svg id="Layer_2" xmlns="http://www.w3.org/2000/svg" viewBox="0 0 28 28"><defs><style>.cls-1{fill:#0091ff;stroke:#fff;stroke-miterlimit:10;stroke-width:.17px;}.cls-2{fill:none;}</style></defs><g id="Layer_1-2"><g><rect class="cls-2" width="28" height="28"/><path class="cls-1" d="M20.06,27.26H7.56s-.04-.04-.06-.05c-.43-.21-.63-.56-.55-.95,.09-.43,.42-.67,.92-.67,.5,0,1.01,0,1.51,0,.18,0,.27-.05,.31-.22,.15-.64,.33-1.27,.44-1.92,.07-.39,.05-.79,.07-1.2-.16,0-.26,0-.36,0-1.9,0-3.8,0-5.7,0-1.59,0-2.64-1.05-2.64-2.64,0-4.29,0-8.57,0-12.86,0-.18,0-.37,.03-.54,.22-1.25,1.21-2.07,2.51-2.08,1.98,0,3.96,0,5.94,0,.18,0,.28-.05,.37-.21,.41-.72,.8-1.46,1.26-2.15,.59-.89,1.48-1.29,2.54-1.14,1.13,.16,1.86,.82,2.2,1.91,.16,.52,.12,1.04-.05,1.58,.14,0,.24,0,.34,0,2.4,0,4.81,0,7.21,0,.19,0,.38,0,.57,.03,.98,.19,1.67,1,1.67,2.01,0,4.54,0,9.08,0,13.61,0,.13,0,.26-.03,.39-.23,1.26-1.23,2.08-2.54,2.08-1.94,0-3.89,0-5.83,0-.1,0-.2,0-.3,0-.02,.05-.03,.08-.03,.1,0,1.07,.17,2.11,.58,3.09,.03,.07,.17,.14,.25,.14,.56,.01,1.11,0,1.67,0,.39,0,.71,.28,.79,.67,.08,.35-.1,.72-.43,.9-.06,.03-.12,.07-.18,.1Zm4.38-9.27v-.29c0-3.77,0-7.55,0-11.32,0-.49-.09-.58-.57-.58-2.73,0-5.47,0-8.2,0-.2,0-.31,.06-.41,.23-1.43,2.5-2.88,4.98-4.31,7.48-.22,.39-.45,.76-.88,.95,0,0,0,.03-.02,.07,.11,0,.21,0,.31,0,3.07,0,6.14,0,9.22,0,.22,0,.47,.05,.67,.15,.33,.18,.44,.58,.33,.93-.12,.38-.43,.58-.91,.58-4.24,0-8.49,0-12.73,0-.65,0-.96-.31-.96-.96,0-1.12-.01-2.24,0-3.36,0-.24,.07-.5,.19-.71,.97-1.7,1.95-3.4,2.93-5.09,.05-.08,.08-.16,.14-.27-.12,0-.19,0-.27,0-1.61,0-3.23,0-4.84,0-.67,0-.97,.3-.97,.97,0,3.64,0,7.29,0,10.93,0,.09,0,.19,0,.29H24.44Zm-21.24,1.69c-.03,.42,.18,.75,.55,.85,.12,.04,.26,.05,.38,.05,6.45,0,12.91,0,19.36,0,.13,0,.26-.01,.38-.05,.37-.11,.58-.45,.54-.85H3.2Zm6.46-7.28c1.32-2.29,2.64-4.57,3.95-6.85-.59-.34-1.14-.66-1.71-.98-1.33,2.3-2.64,4.56-3.95,6.85,.58,.34,1.14,.65,1.71,.98Zm2.21,9.87c.01,1.14-.14,2.24-.47,3.31h4.8c-.36-1.08-.52-2.18-.52-3.31h-3.82Zm.88-19.13c.57,.33,1.12,.65,1.68,.97,.3-.43,.5-.86,.21-1.35-.2-.34-.52-.51-.91-.49-.53,.04-.79,.41-.99,.86ZM7.67,13.18v.72c.22-.13,.41-.24,.63-.36-.22-.13-.41-.24-.63-.36Z"/></g></g></svg>