<?xml version="1.0" encoding="UTF-8"?><svg id="Layer_2" xmlns="http://www.w3.org/2000/svg" viewBox="0 0 48 48.31"><defs><style>.cls-1{stroke:#b3b3b3;stroke-miterlimit:10;stroke-width:.61px;}.cls-1,.cls-2{fill:none;}.cls-3{fill:#b3b3b3;}</style></defs><g id="Layer_1-2"><g><rect class="cls-2" width="48" height="48"/><g><path class="cls-3" d="M44.52,33.36c-1.64-.82-3.23-1.74-4.85-2.59-.34-.18-.43-.38-.43-.74,.01-3.09,0-6.18,0-9.27,0-1.5-1.08-3.38-3.27-3.24-.13,0-.27-.01-.44-.03,0-.24,0-.45,0-.66-.04-1.07,.02-2.15-.14-3.2-.97-6.16-4.48-10.18-10.4-12.08-.91-.29-1.88-.38-2.82-.56h-2.2c-.12,.03-.23,.07-.35,.08-3.21,.34-6.01,1.61-8.35,3.82-3.07,2.9-4.6,6.49-4.61,10.72,0,.62,0,1.25,0,1.92-.27,0-.49,0-.72,0-1.05,0-1.84,.47-2.42,1.33-.4,.6-.57,1.28-.57,2,0,1.65,0,3.3,0,4.96,0,.64,.36,1.05,.9,1.06,.55,.02,.95-.41,.95-1.06,.01-1.55,0-3.09,0-4.64,0-.23,0-.46,.03-.69,.11-.72,.55-1.12,1.22-1.12,10.04,0,20.07,0,30.11,0,.53,0,.89,.24,1.07,.71,.11,.31,.18,.65,.18,.98,.01,3.01,0,6.03,.02,9.04,0,.34-.12,.51-.41,.66-1.64,.86-3.24,1.79-4.89,2.61-1.12,.56-1.53,1.4-1.46,2.59,.07,1.45,.32,2.86,.84,4.21,.33,.86,.73,1.7,1.11,2.57-.08,0-.15,.02-.22,.02-8.81,0-17.63,0-26.44,0-.39,0-.72-.15-.86-.5-.15-.37-.27-.78-.28-1.18-.03-2.25,0-4.5-.02-6.75,0-.65-.36-1.04-.91-1.05-.54-.01-.94,.35-.94,.96,0,2.42-.05,4.84,.02,7.25,.06,1.96,1.33,3.11,3.28,3.11,9.06,0,18.12,0,27.17,0,.34,0,.55,.09,.76,.37,1.02,1.3,2.24,2.37,3.78,3.03h.73c.54-.31,1.11-.57,1.61-.93,1.65-1.18,2.82-2.78,3.79-4.54,1.12-2.05,1.81-4.22,1.9-6.58,.05-1.2-.37-2.03-1.48-2.58Zm-15.26-15.86H12.94c-.33-3.66,.39-7.03,4.15-9.19,5.24-3.01,11.85,.64,12.16,6.67,.04,.82,0,1.65,0,2.52Zm4.39,0h-2.51c0-.59,0-1.18,0-1.77,0-1.36-.2-2.68-.7-3.95-1.63-4.13-5.95-6.82-10.21-6.35-4.68,.52-8.35,3.94-9.05,8.46-.09,.57-.1,1.16-.11,1.74-.02,.61,0,1.22,0,1.86h-2.52c-.38-4.7,.85-8.82,4.65-11.82,4.26-3.35,9-3.87,13.79-1.32,5.18,2.76,7.07,7.39,6.67,13.15Zm8.36,24.91c-.84,1.37-1.87,2.57-3.22,3.46-.32,.21-.57,.23-.91,0-1.67-1.08-2.81-2.61-3.74-4.32-.93-1.7-1.53-3.49-1.63-5.58-.18-.53,.17-.84,.72-1.13,1.59-.81,3.16-1.68,4.72-2.54,.28-.15,.49-.14,.75,0,1.67,.92,3.35,1.83,5.04,2.72,.3,.16,.39,.35,.39,.68-.03,2.45-.86,4.63-2.13,6.68ZM11.14,31.33c-1.95,1.26-3.14,3-3.34,5.35-.13,1.54,.88,2.69,2.42,2.7,2.87,.01,5.75,.01,8.62,0,1.46,0,2.46-1.03,2.41-2.48-.09-2.42-1.28-4.21-3.26-5.53-.14-.09-.28-.18-.42-.27,2.44-2.27,1.91-5.43,.23-7.03-1.82-1.74-4.67-1.75-6.52-.03-1.64,1.54-2.3,4.7,.17,7.04,0,.01,0,.04-.02,.04-.1,.07-.2,.13-.31,.2Zm3.38-6.73c1.59,0,2.88,1.29,2.88,2.89,0,1.57-1.3,2.85-2.87,2.85-1.58,0-2.85-1.28-2.85-2.86,0-1.58,1.27-2.86,2.84-2.87Zm-1.12,7.75c1.88-.52,3.99,.35,5.2,2.15,.47,.7,.77,1.46,.82,2.3,.03,.58-.13,.75-.7,.75-1.39,0-2.78,0-4.17,0s-2.78,0-4.17,0c-.58,0-.73-.16-.7-.74,.1-1.97,1.71-3.89,3.74-4.45Zm14.05-5c1.32,0,2.63,0,3.95,0,.63,0,1.04-.36,1.05-.9,.01-.56-.41-.94-1.07-.94-2.63,0-5.26,0-7.89,0-.68,0-1.07,.35-1.06,.93,0,.57,.4,.91,1.08,.91,1.31,0,2.63,0,3.95,0Zm-3.98,4.96c1.8,0,3.6,0,5.4,0,.64,0,1.02-.36,1.03-.92,0-.56-.39-.92-1.02-.92-.9,0-1.8,0-2.7,0-.9,0-1.8,0-2.7,0-.65,0-1.04,.34-1.05,.89-.01,.58,.38,.94,1.04,.95Zm-18.69-2.23c0-.5-.4-.9-.9-.91-.51,0-.91,.36-.93,.87-.02,.52,.38,.96,.89,.97,.5,.01,.94-.42,.94-.93Zm35.58,6.65c-.15,.13-.28,.28-.42,.42-.78,.73-1.56,1.46-2.36,2.21-.19-.18-.45-.43-.72-.67-.47-.42-1.01-.44-1.39-.04-.38,.4-.34,.94,.11,1.38,.46,.45,.93,.88,1.41,1.32,.52,.48,.98,.46,1.48-.05,.59-.6,1.18-1.2,1.76-1.8,.48-.49,.97-.98,1.43-1.49,.36-.4,.31-.93-.06-1.28-.35-.33-.87-.33-1.25,0Z"/><path class="cls-1" d="M44.52,33.36c-1.64-.82-3.23-1.74-4.85-2.59-.34-.18-.43-.38-.43-.74,.01-3.09,0-6.18,0-9.27,0-1.5-1.08-3.38-3.27-3.24-.13,0-.27-.01-.44-.03,0-.24,0-.45,0-.66-.04-1.07,.02-2.15-.14-3.2-.97-6.16-4.48-10.18-10.4-12.08-.91-.29-1.88-.38-2.82-.56h-2.2c-.12,.03-.23,.07-.35,.08-3.21,.34-6.01,1.61-8.35,3.82-3.07,2.9-4.6,6.49-4.61,10.72,0,.62,0,1.25,0,1.92-.27,0-.49,0-.72,0-1.05,0-1.84,.47-2.42,1.33-.4,.6-.57,1.28-.57,2,0,1.65,0,3.3,0,4.96,0,.64,.36,1.05,.9,1.06,.55,.02,.95-.41,.95-1.06,.01-1.55,0-3.09,0-4.64,0-.23,0-.46,.03-.69,.11-.72,.55-1.12,1.22-1.12,10.04,0,20.07,0,30.11,0,.53,0,.89,.24,1.07,.71,.11,.31,.18,.65,.18,.98,.01,3.01,0,6.03,.02,9.04,0,.34-.12,.51-.41,.66-1.64,.86-3.24,1.79-4.89,2.61-1.12,.56-1.53,1.4-1.46,2.59,.07,1.45,.32,2.86,.84,4.21,.33,.86,.73,1.7,1.11,2.57-.08,0-.15,.02-.22,.02-8.81,0-17.63,0-26.44,0-.39,0-.72-.15-.86-.5-.15-.37-.27-.78-.28-1.18-.03-2.25,0-4.5-.02-6.75,0-.65-.36-1.04-.91-1.05-.54-.01-.94,.35-.94,.96,0,2.42-.05,4.84,.02,7.25,.06,1.96,1.33,3.11,3.28,3.11,9.06,0,18.12,0,27.17,0,.34,0,.55,.09,.76,.37,1.02,1.3,2.24,2.37,3.78,3.03h.73c.54-.31,1.11-.57,1.61-.93,1.65-1.18,2.82-2.78,3.79-4.54,1.12-2.05,1.81-4.22,1.9-6.58,.05-1.2-.37-2.03-1.48-2.58Zm-15.26-15.86H12.94c-.33-3.66,.39-7.03,4.15-9.19,5.24-3.01,11.85,.64,12.16,6.67,.04,.82,0,1.65,0,2.52Zm4.39,0h-2.51c0-.59,0-1.18,0-1.77,0-1.36-.2-2.68-.7-3.95-1.63-4.13-5.95-6.82-10.21-6.35-4.68,.52-8.35,3.94-9.05,8.46-.09,.57-.1,1.16-.11,1.74-.02,.61,0,1.22,0,1.86h-2.52c-.38-4.7,.85-8.82,4.65-11.82,4.26-3.35,9-3.87,13.79-1.32,5.18,2.76,7.07,7.39,6.67,13.15Zm8.36,24.91c-.84,1.37-1.87,2.57-3.22,3.46-.32,.21-.57,.23-.91,0-1.67-1.08-2.81-2.61-3.74-4.32-.93-1.7-1.53-3.49-1.63-5.58-.18-.53,.17-.84,.72-1.13,1.59-.81,3.16-1.68,4.72-2.54,.28-.15,.49-.14,.75,0,1.67,.92,3.35,1.83,5.04,2.72,.3,.16,.39,.35,.39,.68-.03,2.45-.86,4.63-2.13,6.68ZM11.14,31.33c-1.95,1.26-3.14,3-3.34,5.35-.13,1.54,.88,2.69,2.42,2.7,2.87,.01,5.75,.01,8.62,0,1.46,0,2.46-1.03,2.41-2.48-.09-2.42-1.28-4.21-3.26-5.53-.14-.09-.28-.18-.42-.27,2.44-2.27,1.91-5.43,.23-7.03-1.82-1.74-4.67-1.75-6.52-.03-1.64,1.54-2.3,4.7,.17,7.04,0,.01,0,.04-.02,.04-.1,.07-.2,.13-.31,.2Zm3.38-6.73c1.59,0,2.88,1.29,2.88,2.89,0,1.57-1.3,2.85-2.87,2.85-1.58,0-2.85-1.28-2.85-2.86,0-1.58,1.27-2.86,2.84-2.87Zm-1.12,7.75c1.88-.52,3.99,.35,5.2,2.15,.47,.7,.77,1.46,.82,2.3,.03,.58-.13,.75-.7,.75-1.39,0-2.78,0-4.17,0s-2.78,0-4.17,0c-.58,0-.73-.16-.7-.74,.1-1.97,1.71-3.89,3.74-4.45Zm14.05-5c1.32,0,2.63,0,3.95,0,.63,0,1.04-.36,1.05-.9,.01-.56-.41-.94-1.07-.94-2.63,0-5.26,0-7.89,0-.68,0-1.07,.35-1.06,.93,0,.57,.4,.91,1.08,.91,1.31,0,2.63,0,3.95,0Zm-3.98,4.96c1.8,0,3.6,0,5.4,0,.64,0,1.02-.36,1.03-.92,0-.56-.39-.92-1.02-.92-.9,0-1.8,0-2.7,0-.9,0-1.8,0-2.7,0-.65,0-1.04,.34-1.05,.89-.01,.58,.38,.94,1.04,.95Zm-18.69-2.23c0-.5-.4-.9-.9-.91-.51,0-.91,.36-.93,.87-.02,.52,.38,.96,.89,.97,.5,.01,.94-.42,.94-.93Zm35.58,6.65c-.15,.13-.28,.28-.42,.42-.78,.73-1.56,1.46-2.36,2.21-.19-.18-.45-.43-.72-.67-.47-.42-1.01-.44-1.39-.04-.38,.4-.34,.94,.11,1.38,.46,.45,.93,.88,1.41,1.32,.52,.48,.98,.46,1.48-.05,.59-.6,1.18-1.2,1.76-1.8,.48-.49,.97-.98,1.43-1.49,.36-.4,.31-.93-.06-1.28-.35-.33-.87-.33-1.25,0Z"/></g></g></g></svg>