<svg xmlns="http://www.w3.org/2000/svg" width="345" height="307" viewBox="0 0 345 307">
  <g id="Group_934" data-name="Group 934" transform="translate(-15252 -4194)">
    <g id="Group_904" data-name="Group 904" transform="translate(1154 -58)" opacity="0">
      <rect id="Rectangle_1318" data-name="Rectangle 1318" width="345" height="307" transform="translate(14098 4252)" fill="#fff"/>
    </g>
    <g id="Software_engineer-rafiki_1_" data-name="Software engineer-rafiki (1)" transform="translate(15235.883 4218.387)">
      <g id="freepik--background-simple--inject-7" transform="translate(33.768 -2.377)">
        <path id="Path_23314" data-name="Path 23314" d="M230.111,148.179c-7.087-14.389-35.857-33.9-51.963-40.816-19.325-8.288-22.125-17.308-29.209-32.735C138.488,51.863,129.582,24.445,100.266,12.2,21.564-20.673-12.379,52.332,13.2,104.451c16.593,33.8,52.671,36.166,86.054,54.309,30.091,16.352,66.459,63.131,104.1,63.663C236.886,222.9,245,184.291,230.111,148.179Z" transform="translate(0 83.075) rotate(-25)" fill="#f5f5f5" opacity="0.9"/>
      </g>
      <g id="freepik--App--inject-7" transform="translate(132.055 15.283)">
        <path id="Path_23315" data-name="Path 23315" d="M136.842,159.511a.862.862,0,0,1-.862-.862V89.432a.862.862,0,0,1,1.724,0V158.65a.862.862,0,0,1-.862.862Z" transform="translate(-113.545 -77.022)" fill="#0091ff"/>
        <path id="Path_23316" data-name="Path 23316" d="M167.361,159.483a.862.862,0,0,1-.862-.862V89.4a.869.869,0,1,1,1.731,0v69.218A.869.869,0,0,1,167.361,159.483Z" transform="translate(-120.991 -76.994)" fill="#0091ff"/>
        <path id="Path_23317" data-name="Path 23317" d="M159.9,113.354a.869.869,0,0,1-.612-.249L148.367,102.18l-10.924,10.894a.869.869,0,0,1-1.225-1.225l10.924-10.871L136.218,90.032a.869.869,0,0,1,.612-1.512H159.9A.868.868,0,0,1,160.516,90l-10.924,10.977L160.516,111.9a.862.862,0,0,1-.612,1.512ZM138.917,90.281l9.45,9.45,9.45-9.45Z" transform="translate(-113.533 -77.01)" fill="#0091ff"/>
        <path id="Path_23318" data-name="Path 23318" d="M136.84,86.568a.862.862,0,0,1-.612-1.474l11.536-11.536a.862.862,0,0,1,1.225,0l11.536,11.536a.862.862,0,0,1,0,1.225.877.877,0,0,1-1.225,0L148.376,75.395,137.452,86.319A.869.869,0,0,1,136.84,86.568Z" transform="translate(-113.543 -73.297)" fill="#0091ff"/>
        <path id="Path_23319" data-name="Path 23319" d="M190.432,86.568a.884.884,0,0,1-.612-.249L178.9,75.395,167.972,86.319a.877.877,0,0,1-1.225,0,.862.862,0,0,1,0-1.225l11.536-11.536a.862.862,0,0,1,1.225,0l11.559,11.536a.862.862,0,0,1-.612,1.474Z" transform="translate(-120.99 -73.297)" fill="#0091ff"/>
        <path id="Path_23320" data-name="Path 23320" d="M197.88,86.568a.884.884,0,0,1-.612-.249.862.862,0,0,1,0-1.225L208.8,73.558a.862.862,0,0,1,1.225,0l11.536,11.536a.862.862,0,0,1,0,1.225.877.877,0,0,1-1.225,0L209.416,75.395l-10.9,10.924A.869.869,0,0,1,197.88,86.568Z" transform="translate(-128.438 -73.297)" fill="#0091ff"/>
        <path id="Path_23321" data-name="Path 23321" d="M136.84,143.9a.862.862,0,0,1-.612-1.474L159.3,119.355a.869.869,0,0,1,1.225,1.225l-23.073,23.073A.869.869,0,0,1,136.84,143.9Z" transform="translate(-113.543 -84.485)" fill="#0091ff"/>
        <path id="Path_23322" data-name="Path 23322" d="M159.929,143.892a.869.869,0,0,1-.612-.249l-23.073-23.1a.869.869,0,0,1,1.225-1.225l23.073,23.073a.862.862,0,0,1-.612,1.474Z" transform="translate(-113.56 -84.475)" fill="#0091ff"/>
        <path id="Path_23323" data-name="Path 23323" d="M159.913,174.419H136.841a.862.862,0,0,1-.8-.529.877.877,0,0,1,.189-.945l10.924-10.932-10.924-10.924a.869.869,0,0,1,1.225-1.225l10.924,10.924L159.3,149.865a.869.869,0,0,1,1.225,1.225L149.6,162.013l10.924,10.924a.862.862,0,0,1-.612,1.474ZM138.927,172.7h18.9l-9.45-9.45Z" transform="translate(-113.543 -91.93)" fill="#263238"/>
        <path id="Path_23324" data-name="Path 23324" d="M122.463,102.169H110.14l1.55-12.459h9.215Z" transform="translate(-107.239 -77.301)" fill="#0091ff"/>
        <path id="Path_23325" data-name="Path 23325" d="M122.183,102.752H109.86a.885.885,0,0,1-.65-.287.9.9,0,0,1-.212-.68l1.557-12.459a.862.862,0,0,1,.854-.756h9.215a.869.869,0,0,1,.862.756L123,101.785a.862.862,0,0,1-.854.968Zm-11.34-1.731H121.2l-1.338-10.727h-7.681Z" transform="translate(-106.959 -77.022)" fill="#0091ff"/>
        <path id="Path_23326" data-name="Path 23326" d="M198.818,90.29H107.253a.869.869,0,1,1,0-1.731h91.565a.869.869,0,1,1,0,1.731Z" transform="translate(-106.303 -77.019)" fill="#263238"/>
        <path id="Path_23327" data-name="Path 23327" d="M198.28,75.03H152.166a.869.869,0,0,1,0-1.731H198.28a.869.869,0,1,1,0,1.731Z" transform="translate(-117.302 -73.295)" fill="#0091ff"/>
        <rect id="Rectangle_1509" data-name="Rectangle 1509" width="105.996" height="204.607" rx="11.27" transform="translate(7.157 51.146)" fill="#0091ff"/>
        <rect id="Rectangle_1510" data-name="Rectangle 1510" width="105.996" height="204.607" rx="11.27" transform="translate(7.157 51.146)" opacity="0.2"/>
        <rect id="Rectangle_1511" data-name="Rectangle 1511" width="105.996" height="204.607" rx="11.27" transform="translate(18.043 51.146)" fill="#0091ff"/>
        <rect id="Rectangle_1512" data-name="Rectangle 1512" width="197.508" height="98.898" rx="6.57" transform="translate(120.486 54.692) rotate(90)" fill="#fff"/>
        <rect id="Rectangle_1513" data-name="Rectangle 1513" width="96.312" height="85.018" rx="8.14" transform="matrix(0.049, 0.999, -0.999, 0.049, 114.697, 78.501)" opacity="0.1"/>
        <rect id="Rectangle_1514" data-name="Rectangle 1514" width="10.176" height="93.22" rx="4.38" transform="translate(117.651 57.534) rotate(90)" fill="#0091ff"/>
        <path id="Path_23328" data-name="Path 23328" d="M150.889,157.74h0a2.389,2.389,0,0,1-2.389-2.381h0a2.4,2.4,0,0,1,2.389-2.389h0a2.4,2.4,0,0,1,2.389,2.389h0a2.389,2.389,0,0,1-2.389,2.381Z" transform="translate(-116.6 -92.737)" fill="#fff"/>
        <path id="Path_23329" data-name="Path 23329" d="M160.279,157.74h0a2.389,2.389,0,0,1-2.389-2.381h0a2.4,2.4,0,0,1,2.389-2.389h0a2.389,2.389,0,0,1,2.381,2.389h0A2.389,2.389,0,0,1,160.279,157.74Z" transform="translate(-118.891 -92.737)" fill="#fff"/>
        <path id="Path_23330" data-name="Path 23330" d="M169.669,157.74h0a2.389,2.389,0,0,1-2.389-2.381h0a2.4,2.4,0,0,1,2.389-2.389h0a2.389,2.389,0,0,1,2.381,2.389h0a2.389,2.389,0,0,1-2.381,2.381Z" transform="translate(-121.182 -92.737)" fill="#fff"/>
        <rect id="Rectangle_1515" data-name="Rectangle 1515" width="5.912" height="5.912" rx="1.72" transform="translate(106.395 59.658)" fill="#fff"/>
        <circle id="Ellipse_129" data-name="Ellipse 129" cx="16.564" cy="16.564" r="16.564" transform="translate(26.059 187.71) rotate(-22.5)" fill="#0091ff"/>
        <path id="Path_23331" data-name="Path 23331" d="M236.517,322.153h-32.3a2.079,2.079,0,0,1-2.071-2.071h0a2.079,2.079,0,0,1,2.071-2.071h32.3a2.071,2.071,0,0,1,2.071,2.071h0A2.071,2.071,0,0,1,236.517,322.153Z" transform="translate(-129.691 -133.01)" fill="#0091ff"/>
        <path id="Path_23332" data-name="Path 23332" d="M236.517,334.853h-32.3a2.079,2.079,0,0,1-2.071-2.071h0a2.079,2.079,0,0,1,2.071-2.071h32.3a2.071,2.071,0,0,1,2.071,2.071h0A2.071,2.071,0,0,1,236.517,334.853Z" transform="translate(-129.691 -136.109)" fill="#0091ff"/>
        <rect id="Rectangle_1516" data-name="Rectangle 1516" width="36.438" height="4.143" rx="2.071" transform="translate(72.459 204.202)" fill="#0091ff"/>
        <rect id="Rectangle_1517" data-name="Rectangle 1517" width="79.817" height="24.078" rx="9.82" transform="translate(31.137 222.535)" fill="#e0e0e0"/>
        <rect id="Rectangle_1518" data-name="Rectangle 1518" width="96.312" height="85.018" rx="8.14" transform="translate(121.003 72.596) rotate(85.54)" fill="#fff"/>
        <path id="Path_23333" data-name="Path 23333" d="M167.4,271.917a6.532,6.532,0,0,1-6.5-6.048l-6.532-83.755a6.539,6.539,0,0,1,6-7.016l72.5-5.655a6.539,6.539,0,0,1,7.016,6l6.532,83.755a6.539,6.539,0,0,1-6,7.023l-72.5,5.647A1.974,1.974,0,0,1,167.4,271.917Zm-5.745-6.048a5.776,5.776,0,0,0,6.2,5.292l72.5-5.655a5.783,5.783,0,0,0,5.292-6.207l-6.532-83.755a5.776,5.776,0,0,0-6.207-5.292l-72.491,5.655a5.783,5.783,0,0,0-5.292,6.207Z" transform="translate(-118.026 -96.752)" fill="#0091ff"/>
        <rect id="Rectangle_1519" data-name="Rectangle 1519" width="28.342" height="78.97" rx="6.43" transform="translate(123.036 137.587) rotate(85.54)" fill="#0091ff"/>
        <rect id="Rectangle_1520" data-name="Rectangle 1520" width="59.088" height="40.324" rx="6.51" transform="translate(79.697 78.849) rotate(85.54)" fill="#0091ff" opacity="0.2"/>
        <rect id="Rectangle_1521" data-name="Rectangle 1521" width="16.261" height="34.027" rx="5.23" transform="translate(117.969 75.864) rotate(85.54)" fill="#0091ff" opacity="0.2"/>
        <rect id="Rectangle_1522" data-name="Rectangle 1522" width="16.261" height="34.027" rx="5.23" transform="translate(119.629 97.212) rotate(85.54)" fill="#0091ff" opacity="0.4"/>
        <rect id="Rectangle_1523" data-name="Rectangle 1523" width="16.261" height="34.027" rx="5.23" transform="translate(121.298 118.561) rotate(85.54)" fill="#0091ff" opacity="0.6"/>
        <path id="Path_23334" data-name="Path 23334" d="M226.123,140.159a.386.386,0,0,1-.386-.386V89.561a.386.386,0,1,1,.756,0v50.212A.386.386,0,0,1,226.123,140.159Z" transform="translate(-135.445 -77.152)" fill="#263238"/>
        <path id="Path_23335" data-name="Path 23335" d="M228.263,163.594h-9.6a1.777,1.777,0,0,1-1.7-1.27l-2.064-7.016a1.777,1.777,0,0,1,1.7-2.268h13.729a1.777,1.777,0,0,1,1.7,2.268l-2.064,7.016a1.769,1.769,0,0,1-1.7,1.27Z" transform="translate(-132.785 -92.754)" fill="#263238"/>
        <path id="Path_23336" data-name="Path 23336" d="M225.972,177.617a.862.862,0,1,1,0-1.724,3.024,3.024,0,1,0,0-6.048.862.862,0,0,1-.862-.862v-2.238a.869.869,0,0,1,1.731,0v1.444a4.748,4.748,0,0,1-.869,9.412Z" transform="translate(-135.294 -95.906)" fill="#263238"/>
      </g>
    </g>
  </g>
</svg>
