<svg xmlns="http://www.w3.org/2000/svg" width="345" height="307" viewBox="0 0 345 307">
  <g id="Group_938" data-name="Group 938" transform="translate(-15252 -5292)">
    <g id="Group_906" data-name="Group 906" transform="translate(1154 1040)" opacity="0">
      <rect id="Rectangle_1318" data-name="Rectangle 1318" width="345" height="307" transform="translate(14098 4252)" fill="#fff"/>
    </g>
    <g id="Partnership-rafiki" transform="translate(15218.233 5231.824)">
      <g id="freepik--Shadow--inject-8" transform="translate(51.29 332.176)">
        <ellipse id="freepik--path--inject-8" cx="153.563" cy="8.966" rx="153.563" ry="8.966" fill="#f5f5f5"/>
      </g>
      <g id="freepik--Puzzle--inject-8" transform="translate(110.897 117.502)">
        <path id="Path_23123" data-name="Path 23123" d="M244.282,196.041A17.606,17.606,0,0,1,226.7,213.648h-6.4v16.775H202.939V237.3a17.6,17.6,0,1,1-35.209,0l0-6.883H151.522V213.648h-7.366a17.606,17.606,0,1,1,0-35.213h7.366V161.66H168.3v7.4a17.6,17.6,0,1,0,35.209,0l0-7.366h16.775v16.775H226.7A17.606,17.606,0,0,1,244.282,196.041Z" transform="translate(-126.55 -136.601)" fill="#0091ff"/>
        <g id="Group_923" data-name="Group 923" transform="translate(0 25.059)" opacity="0.5">
          <path id="Path_23124" data-name="Path 23124" d="M244.282,196.041A17.606,17.606,0,0,1,226.7,213.648h-6.4v16.775H202.939V237.3a17.6,17.6,0,1,1-35.209,0l0-6.883H151.522V213.648h-7.366a17.606,17.606,0,1,1,0-35.213h7.366V161.66H168.3v7.4a17.6,17.6,0,1,0,35.209,0l0-7.366h16.775v16.775H226.7A17.606,17.606,0,0,1,244.282,196.041Z" transform="translate(-126.55 -161.66)" fill="#fff"/>
        </g>
        <path id="Path_23125" data-name="Path 23125" d="M251.146,206.98H243.78v16.775h68.762V206.98h6.392a17.606,17.606,0,1,0,0-35.213h-6.392V154.992H295.768v-7.366a17.606,17.606,0,0,0-35.213,0v7.366H243.78v16.775h7.366a17.606,17.606,0,1,1,0,35.213Z" transform="translate(-150.933 -130.02)" fill="#0091ff"/>
        <g id="Group_924" data-name="Group 924" transform="translate(92.847)" opacity="0.3">
          <path id="Path_23126" data-name="Path 23126" d="M251.146,206.98H243.78v16.775h68.762V206.98h6.392a17.606,17.606,0,1,0,0-35.213h-6.392V154.992H295.768v-7.366a17.606,17.606,0,0,0-35.213,0v7.366H243.78v16.775h7.366a17.606,17.606,0,1,1,0,35.213Z" transform="translate(-243.78 -130.02)" fill="#fff"/>
        </g>
      </g>
      <g id="freepik--speech-bubbles--inject-8" transform="translate(183.574 95.45)">
        <path id="Path_23127" data-name="Path 23127" d="M250.766,141.575l-1.481-.372a22.253,22.253,0,0,1-4.633-1.5l-.2-.1c-1.457-.7-3.279-1.584-3.667-4.649a.832.832,0,0,0-.7-.792c-13.575-.657-18.3-7.841-18.311-15.84,0-7.841,5.156-15.246,19.8-15.42,13.575-.166,20.37,8.189,19.959,16.8a16.463,16.463,0,0,1-12.775,14.739c-1.006.341-2.8.4-3.422,1.307a1.362,1.362,0,0,0,0,1.465,5.362,5.362,0,0,0,1.069,1.2C247.859,139.667,250.766,141.575,250.766,141.575Z" transform="translate(-219.033 -102.328)" fill="#fff"/>
        <path id="Path_23128" data-name="Path 23128" d="M250.661,141.865h-.1l-1.481-.364a22.867,22.867,0,0,1-4.712-1.529l-.19-.1c-1.465-.7-3.477-1.671-3.889-4.958,0-.071-.071-.459-.341-.475-16.244-.792-18.676-10.494-18.684-16.2,0-4.681,1.956-15.595,20.2-15.84,8.609-.087,13.464,3.073,16.062,5.766a15.286,15.286,0,0,1,4.3,11.452,16.791,16.791,0,0,1-13.052,15.112,7.852,7.852,0,0,1-1.014.253c-.847.174-1.806.372-2.162.895a.95.95,0,0,0,0,1.022,5.046,5.046,0,0,0,.99,1.109c1.418,1.22,4.293,3.1,4.324,3.128a.388.388,0,0,1,.143.483A.4.4,0,0,1,250.661,141.865Zm-8.783-38.674h-.4c-17.535.214-19.42,10.573-19.412,15.048,0,5.433,2.336,14.66,17.931,15.413a1.212,1.212,0,0,1,1.085,1.172c.364,2.851,2,3.643,3.445,4.34l.2.1a19.27,19.27,0,0,0,3.9,1.307c-.879-.61-1.885-1.346-2.574-1.94a5.663,5.663,0,0,1-1.141-1.291,1.711,1.711,0,0,1,0-1.893,4.035,4.035,0,0,1,2.653-1.22c.356-.079.7-.15.966-.238A15.991,15.991,0,0,0,261.029,119.6a14.486,14.486,0,0,0-4.079-10.866C254.511,106.185,249.917,103.192,241.878,103.192Z" transform="translate(-218.928 -102.222)" fill="#0091ff"/>
        <path id="Path_23129" data-name="Path 23129" d="M234.023,138.2a3.586,3.586,0,0,0,1.148-3.121c-.491-2.067-2.321-2.035-3.5-2.431-8.2-1.719-12.506-7.659-12.775-13.155-.412-8.609,6.384-16.973,19.959-16.806,14.652.182,19.8,7.587,19.8,15.42,0,7.976-4.752,15.159-18.311,15.84-.451,0-.657.436-.713.792-.38,3.065-2.2,3.96-3.659,4.649l-.2.1a22.728,22.728,0,0,1-4.633,1.5l-1.481.364A21.721,21.721,0,0,0,234.023,138.2Z" transform="translate(-218.431 -102.283)" fill="#fff"/>
        <path id="Path_23130" data-name="Path 23130" d="M229.518,141.637a.393.393,0,0,1-.2-.737,21.227,21.227,0,0,0,4.261-3.073,3.242,3.242,0,0,0,1.061-2.764c-.341-1.434-1.378-1.679-2.471-1.94-.269-.063-.539-.127-.792-.206-8.633-1.806-12.783-8.094-13.044-13.512a15.309,15.309,0,0,1,4.3-11.46c2.6-2.685,7.453-5.877,16.062-5.766,18.216.23,20.2,11.136,20.2,15.84,0,5.71-2.439,15.42-18.684,16.2-.269,0-.333.4-.341.475-.412,3.279-2.424,4.253-3.889,4.958l-.19.1a23.356,23.356,0,0,1-4.752,1.529l-1.489.364Zm8.783-38.666c-8.047,0-12.672,2.994-15.048,5.544a14.486,14.486,0,0,0-4.079,10.866c.246,5.116,4.2,11.088,12.458,12.783a7.708,7.708,0,0,0,.792.206c1.093.261,2.6.618,3.049,2.519a3.956,3.956,0,0,1-1.236,3.477h0a13.029,13.029,0,0,1-2.313,1.909,18.921,18.921,0,0,0,3.6-1.236l.2-.1c1.441-.7,3.081-1.489,3.445-4.34a1.2,1.2,0,0,1,1.085-1.172c15.587-.752,17.923-9.979,17.931-15.42,0-4.443-1.877-14.8-19.42-15.048Zm-4.4,35.126Z" transform="translate(-218.314 -102.176)" fill="#0091ff"/>
        <path id="Path_23131" data-name="Path 23131" d="M238.39,122.4l3.453,3.453,7.8-6.32" transform="translate(-222.489 -105.786)" fill="#fff"/>
        <path id="Path_23132" data-name="Path 23132" d="M241.623,126.429a.792.792,0,0,1-.562-.23l-3.453-3.453a.792.792,0,1,1,1.117-1.117l2.954,2.946,7.247-5.869a.792.792,0,1,1,1,1.228l-7.8,6.336a.792.792,0,0,1-.5.158Z" transform="translate(-222.269 -105.572)" fill="#0091ff"/>
      </g>
      <g id="freepik--light-bulb--inject-8" transform="translate(271.151 78.176)">
        <path id="Path_23133" data-name="Path 23133" d="M369.949,96.724a1.006,1.006,0,0,0,1.156-.356l6-8.379a.982.982,0,0,0-.23-1.386,1,1,0,0,0-1.386.23l-6,8.379a.982.982,0,0,0,.23,1.386.935.935,0,0,0,.23.127Z" transform="translate(-337.294 -81.625)" fill="#0091ff"/>
        <path id="Path_23134" data-name="Path 23134" d="M378.911,112.423a1,1,0,0,0,.507.048l9.956-1.647a1,1,0,0,0-.325-1.964l-9.956,1.647a1,1,0,0,0-.182,1.917Z" transform="translate(-339.159 -86.292)" fill="#0091ff"/>
        <path id="Path_23135" data-name="Path 23135" d="M338.053,102.5a1,1,0,0,0,.927-1.742l-8.633-6.186a.99.99,0,0,0-1.156,1.584l8.633,6.186a.937.937,0,0,0,.23.158Z" transform="translate(-328.889 -83.296)" fill="#0091ff"/>
        <path id="Path_23136" data-name="Path 23136" d="M383.338,134.965a1,1,0,0,0,.935-1.742l-8.118-5.821a1,1,0,0,0-1.164,1.624l8.118,5.813a1.109,1.109,0,0,0,.23.127Z" transform="translate(-338.391 -90.111)" fill="#0091ff"/>
        <path id="Path_23137" data-name="Path 23137" d="M353.525,92.748a1,1,0,0,0,1.331-1.093l-1.719-10.383a1,1,0,1,0-1.964.325l1.719,10.359a.99.99,0,0,0,.634.792Z" transform="translate(-333.518 -80.367)" fill="#0091ff"/>
        <g id="Group_925" data-name="Group 925" opacity="0.5">
          <path id="Path_23138" data-name="Path 23138" d="M369.949,96.724a1.006,1.006,0,0,0,1.156-.356l6-8.379a.982.982,0,0,0-.23-1.386,1,1,0,0,0-1.386.23l-6,8.379a.982.982,0,0,0,.23,1.386.935.935,0,0,0,.23.127Z" transform="translate(-337.294 -81.625)" fill="#fff"/>
          <path id="Path_23139" data-name="Path 23139" d="M378.911,112.423a1,1,0,0,0,.507.048l9.956-1.647a1,1,0,0,0-.325-1.964l-9.956,1.647a1,1,0,0,0-.182,1.917Z" transform="translate(-339.159 -86.292)" fill="#fff"/>
          <path id="Path_23140" data-name="Path 23140" d="M338.053,102.5a1,1,0,0,0,.927-1.742l-8.633-6.186a.99.99,0,0,0-1.156,1.584l8.633,6.186a.937.937,0,0,0,.23.158Z" transform="translate(-328.889 -83.296)" fill="#fff"/>
          <path id="Path_23141" data-name="Path 23141" d="M383.338,134.965a1,1,0,0,0,.935-1.742l-8.118-5.821a1,1,0,0,0-1.164,1.624l8.118,5.813a1.109,1.109,0,0,0,.23.127Z" transform="translate(-338.391 -90.111)" fill="#fff"/>
          <path id="Path_23142" data-name="Path 23142" d="M353.525,92.748a1,1,0,0,0,1.331-1.093l-1.719-10.383a1,1,0,1,0-1.964.325l1.719,10.359a.99.99,0,0,0,.634.792Z" transform="translate(-333.518 -80.367)" fill="#fff"/>
        </g>
        <path id="Path_23143" data-name="Path 23143" d="M341.866,106.879a13.464,13.464,0,0,1,21.78,15.769c-3.168,4.364-8.768,4.8-13.464,6.669-1.457.578-4.277,4.633-4.277,4.633l-9.235-6.692s2.97-3.96,3.065-5.5C340.044,116.707,338.706,111.243,341.866,106.879Z" transform="translate(-330.507 -84.842)" fill="#0091ff"/>
        <path id="Path_23144" data-name="Path 23144" d="M341.866,106.879a13.464,13.464,0,0,1,21.78,15.769c-3.168,4.364-8.768,4.8-13.464,6.669-1.457.578-4.277,4.633-4.277,4.633l-9.235-6.692s2.97-3.96,3.065-5.5C340.044,116.707,338.706,111.243,341.866,106.879Z" transform="translate(-330.507 -84.842)" fill="#fff" opacity="0.4"/>
        <path id="Path_23145" data-name="Path 23145" d="M336.649,139.272l3.96,2.851a3.271,3.271,0,0,0,4.57-.729h0l-9.243-6.685h0a3.279,3.279,0,0,0,.713,4.562Z" transform="translate(-330.225 -91.67)" fill="#263238"/>
        <path id="Path_23146" data-name="Path 23146" d="M336.711,144.8h0a2.669,2.669,0,0,0,3.722-.594h0l-4.316-3.128h0a2.669,2.669,0,0,0,.594,3.722Z" transform="translate(-330.287 -92.995)" fill="#263238"/>
        <path id="Path_23147" data-name="Path 23147" d="M336.711,144.8h0a2.669,2.669,0,0,0,3.722-.594h0l-4.316-3.128h0a2.669,2.669,0,0,0,.594,3.722Z" transform="translate(-330.287 -92.995)" fill="#fff" opacity="0.5"/>
        <g id="Group_926" data-name="Group 926" transform="translate(5.089 43.04)" opacity="0.7">
          <path id="Path_23148" data-name="Path 23148" d="M336.649,139.272l3.96,2.851a3.271,3.271,0,0,0,4.57-.729h0l-9.243-6.685h0a3.279,3.279,0,0,0,.713,4.562Z" transform="translate(-335.314 -134.71)" fill="#fff"/>
        </g>
        <path id="Path_23149" data-name="Path 23149" d="M345.562,106.107c-4.934,6.883-6.209,17.765-.895,21.566s15.84-1.822,20.133-7.778c2.63-3.667.459-9.734-4.855-13.535S348.176,102.44,345.562,106.107Z" transform="translate(-331.455 -85.164)" fill="#fff" opacity="0.3"/>
        <path id="Path_23150" data-name="Path 23150" d="M344.534,117.5a7.627,7.627,0,1,0,10.637-1.75,7.627,7.627,0,0,0-10.637,1.75Z" transform="translate(-331.845 -87.428)" fill="#fff" opacity="0.4"/>
        <path id="Path_23151" data-name="Path 23151" d="M345.69,121.6c-1.727,2.376-.3,4.53,2.107,6.257s4.871,2.376,6.6,0,.269-4.5-2.131-6.225S347.409,119.221,345.69,121.6Z" transform="translate(-332.225 -88.623)" fill="#fff" opacity="0.4"/>
      </g>
      <g id="freepik--Arrow--inject-8" transform="translate(95.144 100.323)">
        <path id="Path_23152" data-name="Path 23152" d="M106.66,135.987l2.7,2.249,15.618-13.345,19.943,4.031,15.2-14.335,1.362,1.869,3.6-8.126-8.839.942,1.362,1.869-13.337,14.771-19.967-3.881Z" transform="translate(-106.66 -108.33)" fill="#0091ff"/>
        <g id="Group_927" data-name="Group 927" opacity="0.3">
          <path id="Path_23153" data-name="Path 23153" d="M106.66,135.987l2.7,2.249,15.618-13.345,19.943,4.031,15.2-14.335,1.362,1.869,3.6-8.126-8.839.942,1.362,1.869-13.337,14.771-19.967-3.881Z" transform="translate(-106.66 -108.33)" fill="#fff"/>
        </g>
      </g>
      <g id="freepik--character-2--inject-8" transform="translate(198.585 146.811)">
        <path id="Path_23154" data-name="Path 23154" d="M288.63,284.6c.459,7.176-1.315,16.41-3.01,23.293-1.4,5.687-2.376,7.255-2.748,9.773-.4,2.867.467,7.128.246,10.732-.847,14.256-6.645,43.085-6.645,43.085l-4.863-.309.127-55.813L274.9,261.28,294.1,266.4C296.012,276.9,288.63,284.6,288.63,284.6Z" transform="translate(-244.409 -186.629)" fill="#dd8c6a"/>
        <path id="Path_23155" data-name="Path 23155" d="M316.641,373.325l-4.419-.127-12.268-54.49-12.4-52.724,19.887-.594c4.752,9.5-.071,19.008-.071,19.008,2.479,6.756,3.421,16.109,3.762,23.2.285,5.845-.23,7.635.15,10.146.444,2.867,1.837,6.677,2.669,10.217C317.211,342.009,316.641,373.325,316.641,373.325Z" transform="translate(-247.725 -187.484)" fill="#dd8c6a"/>
        <path id="Path_23156" data-name="Path 23156" d="M241.411,204.573l2.313,3.041c2.3.713,2.257,4.142,2.257,4.142.5.388,5.188,3.35,6.281,4.309l-2.764,2.978c-1.2-1.83-5.354-4.926-5.354-4.926s-5.655-3.461-6.582-4.7.618-4.91.618-4.91Z" transform="translate(-237.266 -174.822)" fill="#dd8c6a"/>
        <path id="Path_23157" data-name="Path 23157" d="M249.742,212.168c3.794,2.764,9.393,7,9.393,7a132.633,132.633,0,0,1,9.425-9.417A26.675,26.675,0,0,1,275.49,205l-.974,11.4c-3,2.582-12.411,10.391-16.086,10.074-3.033-.261-8.665-6.764-11.88-10.787Z" transform="translate(-239.197 -174.924)" fill="#263238"/>
        <path id="Path_23158" data-name="Path 23158" d="M270.15,225.09c2-3.382,7.5-12.26,7.5-12.26l1.315,2.986-.887,3.279C276.684,220.267,272.162,223.625,270.15,225.09Z" transform="translate(-244.106 -176.552)" opacity="0.2"/>
        <path id="Path_23159" data-name="Path 23159" d="M306.234,210.14a236.476,236.476,0,0,1-4.483,31.047s11.6,9.5,7.841,48.542c0,0-11.738,5.2-39.442-.982l5.267-47.734s-1.22-31.023,2.075-34.484c2.915-3.073,15.626-7.128,25.344-2.313A6.122,6.122,0,0,1,306.234,210.14Z" transform="translate(-244.106 -174.298)" fill="#0091ff"/>
        <path id="Path_23160" data-name="Path 23160" d="M306.234,210.14a236.476,236.476,0,0,1-4.483,31.047s11.6,9.5,7.841,48.542c0,0-11.738,5.2-39.442-.982l5.267-47.734s-1.22-31.023,2.075-34.484c2.915-3.073,15.626-7.128,25.344-2.313A6.122,6.122,0,0,1,306.234,210.14Z" transform="translate(-244.106 -174.298)" opacity="0.4"/>
        <path id="Path_23161" data-name="Path 23161" d="M294.88,250.16s-8.5,1.473-14.47,0V253.8s4.443.642,14.47,0Z" transform="translate(-246.24 -184.316)" opacity="0.3"/>
        <path id="Path_23162" data-name="Path 23162" d="M301.177,188c-1.125,3.168-2.59,8.831-1.386,12.086a1.774,1.774,0,0,1-.689,2.115c-2.447,1.766-6.431,3.168-9.425,2.875-3.841-.42-2.843-3.168-1.861-4.633.261-.4.673-.958,1.141-1.045,3.778-.642,4.5-3.477,4.206-6.336Z" transform="translate(-247.594 -171.388)" fill="#dd8c6a"/>
        <path id="Path_23163" data-name="Path 23163" d="M299.552,190.61l-4.752,2.97a11.694,11.694,0,0,1,0,2.107,5.845,5.845,0,0,0,4.752-2.7C300.106,191.98,299.94,190.792,299.552,190.61Z" transform="translate(-249.233 -171.931)" opacity="0.3"/>
        <path id="Path_23164" data-name="Path 23164" d="M288.606,190.05l-2.146,3.857c.665.055,1.267.277,1.933.333.333-.523.729-1.038,1.061-1.584-.127.539-.562,1.117-.7,1.647a20.694,20.694,0,0,0,3.58.341,1.37,1.37,0,0,0-.087-1.085,6.645,6.645,0,0,0-3.168-3.279Z" transform="translate(-247.498 -171.814)" fill="#263238"/>
        <path id="Path_23165" data-name="Path 23165" d="M302.749,179.076c-1.386,4.934-1.948,7.92-5.029,9.916-4.633,3.041-10.3-.594-10.431-5.837-.1-4.752,2.186-12.007,7.508-12.934a6.993,6.993,0,0,1,8.1,5.631,7.129,7.129,0,0,1-.15,3.223Z" transform="translate(-247.67 -167.667)" fill="#dd8c6a"/>
        <path id="Path_23166" data-name="Path 23166" d="M291.638,181.43a12.221,12.221,0,0,1-2.138,2.511,1.98,1.98,0,0,0,1.521.61Z" transform="translate(-248.13 -170.021)" fill="#ff5652"/>
        <path id="Path_23167" data-name="Path 23167" d="M298.583,178.684a.3.3,0,0,0,.119,0,.254.254,0,0,0,.119-.325,2.447,2.447,0,0,0-1.734-1.41.244.244,0,1,0-.071.483h0a1.964,1.964,0,0,1,1.362,1.133A.238.238,0,0,0,298.583,178.684Z" transform="translate(-249.65 -169.089)" fill="#263238"/>
        <path id="Path_23168" data-name="Path 23168" d="M289.181,176a.229.229,0,0,0,.238,0,1.925,1.925,0,0,1,1.75-.135.246.246,0,0,0,.325-.111.238.238,0,0,0-.1-.325,2.447,2.447,0,0,0-2.233.143.238.238,0,0,0-.1.325h0A.293.293,0,0,0,289.181,176Z" transform="translate(-248.033 -168.73)" fill="#263238"/>
        <path id="Path_23169" data-name="Path 23169" d="M299.458,201.22l-5.544,4.293a1.94,1.94,0,0,1-2.986-.792l-1.259-2.883-1.473.38a.927.927,0,0,0-.689.7c-.293,1.354-1.37,4.665-1.307,7.635,0,0,3.4-4.546,5.314-1.275,0,0,2.5-2.954,4.522,2.154a42.95,42.95,0,0,0,3.422-5.853c1.038-2.424,1.735-3.738,1.735-3.738Z" transform="translate(-247.443 -174.137)" fill="#fff"/>
        <path id="Path_23170" data-name="Path 23170" d="M302.319,201.53a219.776,219.776,0,0,0-4.95,31.87c-1.117,16.062-1.346,20.917,5.005,20.22s11.555-1.5,10.629-3.81-4.388-7.516-4.174-10.169,2.424-23.333,2.677-26.461S313.645,203.486,302.319,201.53Z" transform="translate(-249.639 -174.202)" fill="#263238"/>
        <path id="Path_23171" data-name="Path 23171" d="M305.149,254.127c-.079-.428,1.441-1.972,3.168-3.049a18.611,18.611,0,0,1,3.643-1.671s3.548-4.174,4.53-5.306l2.74,2.376a71.044,71.044,0,0,0-5.093,5.2l-1.473,3.113a5.449,5.449,0,0,1-2.067,1.758,16.186,16.186,0,0,1-2.891,1.022.927.927,0,0,1-1.022-.4,11.365,11.365,0,0,1-1.537-3.033Z" transform="translate(-251.385 -183.056)" fill="#dd8c6a"/>
        <path id="Path_23172" data-name="Path 23172" d="M286.586,202.21s-5.2,9.789-5.544,26.136.372,25.012-2.653,25.511-3.7-1.584-3.7-1.584.895-8.87.895-11.033-.95-15.254,0-24.608,0-8.783,1.584-9.829S282.341,203.073,286.586,202.21Z" transform="translate(-245.05 -174.343)" fill="#263238"/>
        <path id="Path_23173" data-name="Path 23173" d="M312.331,233.787,309.21,215.88s2.574,2.622,4.483,4.633C313.328,224.172,312.79,229.336,312.331,233.787Z" transform="translate(-252.23 -177.187)" opacity="0.2"/>
        <path id="Path_23174" data-name="Path 23174" d="M310.9,204.12s-2.115,5.394-1.7,9.314c.174,1.663,11.991,14.335,11.991,14.335l-8.91,11.817,4.594,3.96S329.543,231,329.646,227.6,315.659,205.554,310.9,204.12Z" transform="translate(-252.216 -174.741)" fill="#263238"/>
        <path id="Path_23175" data-name="Path 23175" d="M296.518,180.466c-.079.412-.364.7-.634.649s-.428-.428-.341-.847.364-.7.634-.649S296.6,180.046,296.518,180.466Z" transform="translate(-249.382 -169.643)" fill="#263238"/>
        <path id="Path_23176" data-name="Path 23176" d="M290.629,179.308c-.079.412-.364.7-.634.649s-.42-.428-.341-.84.364-.7.634-.649S290.716,178.888,290.629,179.308Z" transform="translate(-248.158 -169.404)" fill="#263238"/>
        <path id="Path_23177" data-name="Path 23177" d="M290.355,178.4l-.935-.475S289.784,178.775,290.355,178.4Z" transform="translate(-248.114 -169.291)" fill="#263238"/>
        <path id="Path_23178" data-name="Path 23178" d="M296.245,179.555l-.935-.475S295.674,179.951,296.245,179.555Z" transform="translate(-249.339 -169.533)" fill="#263238"/>
        <path id="Path_23179" data-name="Path 23179" d="M292.888,187.87a4.984,4.984,0,0,1-.792,0,.127.127,0,0,1-.127-.143h0a.135.135,0,0,1,.135-.127,3.675,3.675,0,0,0,3.057-1.212.127.127,0,0,1,.19,0,.135.135,0,0,1,0,.19,3.794,3.794,0,0,1-2.463,1.291Z" transform="translate(-248.644 -171.044)" fill="#263238"/>
        <path id="Path_23180" data-name="Path 23180" d="M302.836,169.25a28.6,28.6,0,0,1-.966,21.281c.689-.206,1.426-.364,2.107-.562.333-.879.594-1.782.927-2.653-.111.792-.325,1.774-.436,2.606l1.861-.341c.325-.847.594-1.8.919-2.645-.143.752-.3,1.806-.451,2.558a10.383,10.383,0,0,0,4.269-6.249,12.815,12.815,0,0,0-1.045-8.34C308.483,172.22,305.8,171.119,302.836,169.25Z" transform="translate(-250.703 -167.488)" fill="#263238"/>
        <path id="Path_23181" data-name="Path 23181" d="M307.714,185.752a4.919,4.919,0,0,1-2.376,2.883c-1.513.792-2.629-.459-2.511-2.075.1-1.449,1.006-3.619,2.669-3.762a2.186,2.186,0,0,1,2.218,2.954Z" transform="translate(-250.901 -170.304)" fill="#dd8c6a"/>
        <path id="Path_23182" data-name="Path 23182" d="M289.314,216.646a1.584,1.584,0,0,1-.7-.166,1.766,1.766,0,0,1-.95-1.275,2.376,2.376,0,0,1,1.2-2.313,6.336,6.336,0,0,1,2.313-.792h.737a.4.4,0,0,1,.38.4.4.4,0,0,1-.388.388c-.388,0-.855.792-.95,1.434v.1a2.526,2.526,0,0,1-1.006,2.02A1.346,1.346,0,0,1,289.314,216.646Zm1.323-3.6a4.007,4.007,0,0,0-1.338.507,1.7,1.7,0,0,0-.855,1.529.974.974,0,0,0,.531.681.618.618,0,0,0,.586,0c.412-.214.507-.84.6-1.441v-.1a3.294,3.294,0,0,1,.475-1.18Z" transform="translate(-247.747 -176.4)" fill="#fff"/>
        <path id="Path_23183" data-name="Path 23183" d="M295.156,216.922a1.338,1.338,0,0,1-.752-.23,2.479,2.479,0,0,1-.792-2.115v-.1c0-.626-.412-1.473-.792-1.529a.394.394,0,0,1,.071-.784h.737a6.463,6.463,0,0,1,2.226,1.014,2.376,2.376,0,0,1,.942,2.424,1.727,1.727,0,0,1-1.085,1.164A1.529,1.529,0,0,1,295.156,216.922Zm-1.077-3.73a3.374,3.374,0,0,1,.325,1.251v.1c0,.6.063,1.228.444,1.5a.649.649,0,0,0,.586.04.982.982,0,0,0,.6-.626,1.671,1.671,0,0,0-.681-1.584,4.324,4.324,0,0,0-1.275-.681Z" transform="translate(-248.75 -176.415)" fill="#fff"/>
        <path id="Path_23184" data-name="Path 23184" d="M289.9,221.037a.325.325,0,0,1-.127,0,.4.4,0,0,1-.253-.5,37.009,37.009,0,0,0,1.584-7.532.4.4,0,0,1,.792.079,38.226,38.226,0,0,1-1.584,7.7A.4.4,0,0,1,289.9,221.037Z" transform="translate(-248.129 -176.514)" fill="#fff"/>
        <path id="Path_23185" data-name="Path 23185" d="M293.691,222.93a.4.4,0,0,1-.364-.246,7.7,7.7,0,0,1-.515-2.487,15.419,15.419,0,0,1,.214-2.582c.063-.428.127-.855.166-1.283a5.2,5.2,0,0,0-.61-3.445.4.4,0,1,1,.657-.443,5.924,5.924,0,0,1,.737,3.96c-.04.444-.1.887-.166,1.323a14.422,14.422,0,0,0-.206,2.439,6.89,6.89,0,0,0,.459,2.226.4.4,0,0,1-.222.515.46.46,0,0,1-.15.024Z" transform="translate(-248.757 -176.436)" fill="#fff"/>
        <path id="Path_23186" data-name="Path 23186" d="M299.4,177.872c-.428-.388-1.03-.871-1.457-1.267a8.665,8.665,0,0,0,.206-2.629c-.2.7-.261,1.41-.459,2.107l-1.457-.966a2.194,2.194,0,0,0-1.22-.491c.079-.721.111-1.457.2-2.178-.166.642-.356,1.354-.515,2-.57-.079-1.228-.214-1.79-.293.063-.792.158-1.521.23-2.289-.246.6-.42,1.632-.665,2.233l-.166-.23a13.551,13.551,0,0,0-4.958-.277c-.554-2.178.111-5.259,2.249-5.964,7.247-2.416,13.179,3.239,13.345,3.707C304.021,174.316,302.017,176.3,299.4,177.872Z" transform="translate(-247.643 -167.025)" fill="#263238"/>
        <path id="Path_23187" data-name="Path 23187" d="M305.638,188.219a.689.689,0,1,1-.689-.689.689.689,0,0,1,.689.689Z" transform="translate(-251.2 -171.29)" fill="#0091ff"/>
        <path id="Path_23188" data-name="Path 23188" d="M267.167,398.686c-3.825,2.1-4.253,2.138-8.475,2.938-.927.174-.6,2.376,1.584,2.424,3.572.111,3.271,0,6.336.063,2.6.063,5.726.285,7.793.372h.071a.855.855,0,0,0,.792-.911l-.451-4.7a.428.428,0,0,0-.4-.372l-5.893-.166A2.621,2.621,0,0,0,267.167,398.686Z" transform="translate(-241.621 -215.134)" fill="#263238"/>
        <path id="Path_23189" data-name="Path 23189" d="M268.823,399.191a.127.127,0,0,0,0-.127.119.119,0,0,0-.135,0c-.253.087-2.455.958-2.621,1.663a.42.42,0,0,0,.1.38h0a.729.729,0,0,0,.61.23c.792-.087,1.624-1.346,2.059-2.091ZM266.3,400.7c.158-.388,1.259-.943,2.107-1.307-.626,1-1.251,1.584-1.679,1.655a.428.428,0,0,1-.4-.158.135.135,0,0,1-.048-.143Z" transform="translate(-243.254 -215.283)" fill="#0091ff"/>
        <path id="Path_23190" data-name="Path 23190" d="M268.8,399h0a.111.111,0,0,0-.048-.119,3.54,3.54,0,0,0-2.051-.752.911.911,0,0,0-.626.372h0c-.2.277-.143.467-.047.578.388.483,2.067.293,2.7,0A.111.111,0,0,0,268.8,399Zm-2.582-.261.087-.1h0a.657.657,0,0,1,.451-.277,2.97,2.97,0,0,1,1.679.57c-.729.222-1.964.261-2.194,0a.136.136,0,0,1,0-.158Zm0-.19" transform="translate(-243.23 -215.093)" fill="#0091ff"/>
        <path id="Path_23191" data-name="Path 23191" d="M314.028,399.052a18.4,18.4,0,0,1-7.413,3.667c-1.125.317-.42,2.376,2.273,2.376,4.459-.071,2.685-.143,6.494-.23,3.255-.063,4.118-.087,6.7-.1h.087a.974.974,0,0,0,.95-1.03l-.863-5.053a.5.5,0,0,0-.523-.38l-6.8.182C314.337,398.41,314.488,398.727,314.028,399.052Z" transform="translate(-251.583 -215.128)" fill="#263238"/>
        <path id="Path_23192" data-name="Path 23192" d="M315.033,399.688a.119.119,0,0,0,0-.143.15.15,0,0,0-.127-.1c-.341,0-3.295.1-3.762.792a.388.388,0,0,0,0,.42h0a.9.9,0,0,0,.626.451c.935.19,2.455-.792,3.295-1.4Zm-3.612.634a7.01,7.01,0,0,1,3.018-.578,4.681,4.681,0,0,1-2.661,1.093.555.555,0,0,1-.4-.3.143.143,0,0,1,0-.166Z" transform="translate(-252.619 -215.367)" fill="#0091ff"/>
        <path id="Path_23193" data-name="Path 23193" d="M315.2,399.316h0a.119.119,0,0,0,0-.135,4.436,4.436,0,0,0-2.107-1.5,1.267,1.267,0,0,0-.887.158h0c-.356.214-.364.428-.3.57.253.618,2.313,1.038,3.168.982a.166.166,0,0,0,.127-.079Zm-2.938-1.2.1-.1h0a.926.926,0,0,1,.649-.111,3.6,3.6,0,0,1,1.742,1.172c-.958-.04-2.424-.428-2.574-.792a.252.252,0,0,1,.1-.174Zm.04-.2" transform="translate(-252.783 -214.996)" fill="#0091ff"/>
      </g>
      <g id="freepik--character-1--inject-8" transform="translate(135.447 121.563)">
        <g id="freepik--character-2--inject-110--inject-8" transform="translate(0 4.055)">
          <path id="Path_23194" data-name="Path 23194" d="M228.025,240.814c-1.117,2.2,2.6,4.9,2.6,4.9l1.758,1.8a1.727,1.727,0,0,0,2.3.222l1.735-1.236.055-.04a1.727,1.727,0,0,0,.356-2.376L235.66,242.5a5.615,5.615,0,0,0-1.774-1.584L230.552,239Z" transform="translate(-172.162 -160.803)" fill="#ffc3bd"/>
          <path id="Path_23195" data-name="Path 23195" d="M209.512,179.579a5.2,5.2,0,0,1,9.56.222l.111.277a14.644,14.644,0,0,1,.792,6.043c-.048,2.02-.111,4.071-.079,6.027s0,9.021.063,10.938c.063,1.774,3.651,9.8,7.128,21.384a4.632,4.632,0,0,0,.261.649l.642,1.275s-.958.61-1.94,1.2a11.262,11.262,0,0,1-2.59,1.457A5.734,5.734,0,0,1,222.2,227.4c-2.772-4.372-11.825-20.592-12.3-22.968-.467-2.2-.792-9.5-1-11.722s-.364-4.38-.428-6.566a19.846,19.846,0,0,1,.127-3.287,11.6,11.6,0,0,1,.911-3.287Z" transform="translate(-168.136 -147.809)" fill="#263238"/>
          <path id="Path_23196" data-name="Path 23196" d="M209.512,179.579a5.2,5.2,0,0,1,9.56.222l.111.277a14.644,14.644,0,0,1,.792,6.043c-.048,2.02-.111,4.071-.079,6.027s0,9.021.063,10.938c.063,1.774,3.651,9.8,7.128,21.384a4.632,4.632,0,0,0,.261.649l.642,1.275s-.958.61-1.94,1.2a11.262,11.262,0,0,1-2.59,1.457A5.734,5.734,0,0,1,222.2,227.4c-2.772-4.372-11.825-20.592-12.3-22.968-.467-2.2-.792-9.5-1-11.722s-.364-4.38-.428-6.566a19.846,19.846,0,0,1,.127-3.287,11.6,11.6,0,0,1,.911-3.287Z" transform="translate(-168.136 -147.809)" opacity="0.3"/>
          <path id="Path_23197" data-name="Path 23197" d="M173.874,181.461c1.354,15.6,6.534,24.394,5.837,36.86,0,0,28.116.554,29.083.554.412-22.968,3.691-21.218,2.685-35.759.174-4.752-2.542-7.722-5.291-8.2l-11.975-2.479-15.436,2.653a5.924,5.924,0,0,0-4.9,6.368Z" transform="translate(-160.938 -146.959)" fill="#0091ff"/>
          <path id="Path_23198" data-name="Path 23198" d="M201.76,364.2l3.643,28.79,7.1-.507L210.583,364.2Z" transform="translate(-166.743 -186.843)" fill="#ffc3bd"/>
          <path id="Path_23199" data-name="Path 23199" d="M211.452,307.467c.642,27.15-.927,50.419-.927,50.419l-9.575.649s-5.394-35.229-3.216-49.619c-.1-3.025-3.6-40.86-4.808-48.012-2.178-12.838-4.507-21.646-4.507-21.646L210.953,238S211.056,290.376,211.452,307.467Z" transform="translate(-163.968 -160.595)" fill="#0091ff"/>
          <g id="Group_928" data-name="Group 928" transform="translate(28.958 88.533)" opacity="0.2">
            <path id="Path_23200" data-name="Path 23200" d="M199.781,252.05s-.729,29.74-2.028,46.047c-.673-8.815-2.439-27.118-3.643-34.27Z" transform="translate(-194.11 -252.05)"/>
          </g>
          <path id="Path_23201" data-name="Path 23201" d="M163.143,364.781l-2.923,27.285,7.073-.768,5.132-26.857Z" transform="translate(-158.103 -186.893)" fill="#ffc3bd"/>
          <path id="Path_23202" data-name="Path 23202" d="M159.1,357.375l10.858-.4s9.251-33.336,13.155-50.95c3.786-19.634,10.851-68.636,10.851-68.636L175.914,236c-9.615,17.369-6.154,58.949-7.857,70.592C159.9,321.141,159.1,357.375,159.1,357.375Z" transform="translate(-157.87 -160.179)" fill="#0091ff"/>
          <path id="Path_23203" data-name="Path 23203" d="M208.57,227H182.141s-4.34,15.294-4.3,15.143,31.015,1.489,31.015,1.489Z" transform="translate(-161.768 -158.307)" fill="#0091ff"/>
          <path id="Path_23204" data-name="Path 23204" d="M214.281,396.9c4.689,2.376,5.2,2.424,10.3,3.231,1.125.182.792,2.843-1.8,2.986-4.3.261-3.96.087-7.611.293-3.128.174-7.659.547-10.154.729h-.079a1.038,1.038,0,0,1-1.006-1.069l.38-5.695a.507.507,0,0,1,.475-.459l7.865-.4a2.962,2.962,0,0,1,1.632.388Z" transform="translate(-167.194 -193.562)" fill="#263238"/>
          <path id="Path_23205" data-name="Path 23205" d="M217,397.459c.554.887,1.632,2.376,2.558,2.447a.855.855,0,0,0,.729-.3h0a.483.483,0,0,0,.111-.459c-.23-.847-2.915-1.814-3.216-1.909a.158.158,0,0,0-.174.04.166.166,0,0,0,0,.158Zm3.113,1.766a.182.182,0,0,1-.048.174.507.507,0,0,1-.475.2c-.523-.04-1.291-.792-2.091-1.932a6.423,6.423,0,0,1,2.6,1.5Z" transform="translate(-169.91 -193.713)" fill="#0091ff"/>
          <path id="Path_23206" data-name="Path 23206" d="M216.971,397.273c.792.317,2.812.483,3.263-.111.1-.135.174-.372-.079-.7h0a1.149,1.149,0,0,0-.792-.428,4.369,4.369,0,0,0-2.447.974.174.174,0,0,0-.055.143h0A.119.119,0,0,0,216.971,397.273ZM220,396.79a.174.174,0,0,1,0,.2c-.269.348-1.758.348-2.645.1a3.611,3.611,0,0,1,2-.744.792.792,0,0,1,.554.317h0l.111.111Zm.048-.238" transform="translate(-169.884 -193.463)" fill="#0091ff"/>
          <path id="Path_23207" data-name="Path 23207" d="M168.479,396.38a22.33,22.33,0,0,0,8.958,4.419c1.354.38.5,2.9-2.748,2.827-5.378-.079-3.239-.174-7.833-.269-3.96-.079-4.966-.111-8.086-.135H158.7a1.164,1.164,0,0,1-1.148-1.236l1.038-6.1a.61.61,0,0,1,.642-.459l8.205.222C168.115,395.6,167.941,395.984,168.479,396.38Z" transform="translate(-157.547 -193.338)" fill="#263238"/>
          <path id="Path_23208" data-name="Path 23208" d="M171.38,397.179c1.006.737,2.835,1.909,3.96,1.687a1.053,1.053,0,0,0,.792-.546h0a.451.451,0,0,0,0-.507c-.562-.832-4.134-.942-4.538-.942a.158.158,0,0,0-.158.119.135.135,0,0,0,0,.166Zm4.435.792a.166.166,0,0,1,0,.2.7.7,0,0,1-.491.364,5.733,5.733,0,0,1-3.216-1.323c1.386.071,3.231.285,3.643.7Z" transform="translate(-160.424 -193.638)" fill="#0091ff"/>
          <path id="Path_23209" data-name="Path 23209" d="M171.518,396.761c1.045.071,3.532-.436,3.833-1.18.087-.174.071-.436-.356-.689h0a1.584,1.584,0,0,0-1.069-.2,5.3,5.3,0,0,0-2.542,1.814.135.135,0,0,0,0,.158h0a.222.222,0,0,0,.135.1Zm3.4-1.529c.111.111.079.182.127.214-.182.443-1.948.911-3.1.966a4.324,4.324,0,0,1,2.1-1.418,1.093,1.093,0,0,1,.792.135h0l.127.127Zm0-.214" transform="translate(-160.42 -193.181)" fill="#0091ff"/>
          <path id="Path_23210" data-name="Path 23210" d="M173.874,181.461c1.354,15.6,6.534,24.394,5.837,36.86,0,0,28.116.554,29.083.554.412-22.968,3.691-21.218,2.685-35.759.174-4.752-2.669-7.754-5.417-8.229l-11.88-2.447-15.436,2.653a5.924,5.924,0,0,0-4.871,6.368Z" transform="translate(-160.938 -146.959)" fill="#fff" opacity="0.8"/>
          <path id="Path_23211" data-name="Path 23211" d="M208.412,206.218l-3.168,5.639-5.734-6.106c0-.15,2.455-25.78,2.455-25.78l1.481-.111C203.3,182.973,208.412,206.218,208.412,206.218Z" transform="translate(-166.275 -148.502)" fill="#0091ff"/>
          <path id="Path_23212" data-name="Path 23212" d="M208.689,177.658a73.7,73.7,0,0,1-3.279,32.536l2.376,25.614c.467,3.715,2.851,4.443,4.982,4.641l4.372-.348-1.584-24.441s3.572-26.928,2.748-33.027c-.546-4.023-1.877-5.592-2.827-6.407a3.168,3.168,0,0,0-1.418-.681c-1.663-.348-6.558-1.671-6.336-1.584A25.316,25.316,0,0,1,208.689,177.658Z" transform="translate(-167.502 -147.274)" fill="#263238"/>
          <path id="Path_23213" data-name="Path 23213" d="M203.829,163.062c-.6,2.859-1.529,6.756,1.584,8.086,1.354.586,2,2.487.7,3.1s-9.71,0-10.447-.348c-1.822-.935-3.1-1.584-2.123-3.406,1.711-3.113.626-9.623.4-12.751Z" transform="translate(-164.963 -143.902)" fill="#ffc3bd"/>
          <path id="Path_23214" data-name="Path 23214" d="M204.569,178.027l-.388,1.228a.721.721,0,0,1-.57.57l-1.481.111a.562.562,0,0,1-.539-.388l-.721-1.093,1.845-1.085Z" transform="translate(-166.558 -147.985)" fill="#0091ff"/>
          <path id="Path_23215" data-name="Path 23215" d="M196.61,163.45a9.892,9.892,0,0,0,1.9,2.978c1.148,1.315,3.311,1.893,5.4,1.893a21.133,21.133,0,0,1,.618-4.1l-.436-.23Z" transform="translate(-165.672 -145.089)" opacity="0.2"/>
          <path id="Path_23216" data-name="Path 23216" d="M188.062,240.094c7.128.483,9.108-.253,10.1-5.813,0,0,1.885-19.935,1.513-24.346,0,0-4.752-9.267-5.687-15.706-1.014-7.2-5.433-21.614-6.708-21.519-2.447.166-11.579,3.366-13.06,5.322-1.964,2.606-.689,5.615-.222,8.847,1.489,10.352,2.606,13.916,3.168,24.354,0,0-4.752,26.928-4.023,27.023C173.694,238.312,182.375,239.706,188.062,240.094Z" transform="translate(-160.775 -147.015)" fill="#263238"/>
          <path id="Path_23217" data-name="Path 23217" d="M181.25,230.37h12.165v.546a2.915,2.915,0,0,1-2.915,2.915h-6.336a2.915,2.915,0,0,1-2.915-2.915Z" transform="translate(-162.477 -159.008)" fill="#fff" opacity="0.2"/>
          <path id="Path_23218" data-name="Path 23218" d="M217.322,233.982h-1.711a2.93,2.93,0,0,1-3.041-2.8v-.539l4.7-.2Z" transform="translate(-168.991 -159.025)" fill="#fff" opacity="0.2"/>
          <path id="Path_23219" data-name="Path 23219" d="M208.4,155.421c-.792,5.663-7.358,8.926-11.967,5.108-2.669-2.2-3.168-4.942-3.865-9.227-.1-.649-.206-1.331-.325-2.059a7.659,7.659,0,0,1,.19-3.39,6.915,6.915,0,0,1,.515-1.331,7.643,7.643,0,0,1,8.95-3.96C207.543,142.21,209.1,150.352,208.4,155.421Z" transform="translate(-164.741 -140.268)" fill="#ffc3bd"/>
          <path id="Path_23220" data-name="Path 23220" d="M194.042,146.219a23.663,23.663,0,0,1,1.94,3.96,5.242,5.242,0,0,0-1.441.562c-.412.261,0,1.5.214,1.956a22.423,22.423,0,0,0,1.338,2.693,10.052,10.052,0,0,1-2.289.665,4.1,4.1,0,0,0-1.03-1.584,2.107,2.107,0,0,0-2.273-.673c-.143-.7-4.285-3.889-.832-6.019a7.335,7.335,0,0,1,1.655-.99l.792-.293a5.782,5.782,0,0,1,1.925-.277Z" transform="translate(-163.943 -141.505)" fill="#263238"/>
          <path id="Path_23221" data-name="Path 23221" d="M190.836,153.986c1.766-.4,3.406,1.536,3.96,3.01.649,1.632-.127,3.3-1.948,2.978a5.227,5.227,0,0,1-3.358-2.218,2.376,2.376,0,0,1,1.346-3.77Z" transform="translate(-164.088 -143.11)" fill="#ffc3bd"/>
          <path id="Path_23222" data-name="Path 23222" d="M204.572,151c.293,0,.57.309.618.792s-.119.84-.451.871-.6-.309-.649-.792A.742.742,0,0,1,204.572,151Z" transform="translate(-167.226 -142.5)" fill="#263238"/>
          <path id="Path_23223" data-name="Path 23223" d="M210.99,150.58c.293,0,.57.309.618.792s-.15.84-.451.871-.57-.309-.618-.752S210.7,150.62,210.99,150.58Z" transform="translate(-168.567 -142.413)" fill="#263238"/>
          <path id="Path_23224" data-name="Path 23224" d="M209.265,156.608a2.59,2.59,0,0,0,2.035-.863,15.888,15.888,0,0,1-2.891-3.334Z" transform="translate(-168.126 -142.793)" fill="#f98c8c"/>
          <path id="Path_23225" data-name="Path 23225" d="M203.04,149.639a2.131,2.131,0,0,1,1.584-1.069h.087a.269.269,0,0,0,.222-.309.277.277,0,0,0-.309-.222,2.653,2.653,0,0,0-2.043,1.307.277.277,0,0,0,.087.364.27.27,0,0,0,.135,0A.333.333,0,0,0,203.04,149.639Z" transform="translate(-166.907 -141.884)" fill="#263238"/>
          <path id="Path_23226" data-name="Path 23226" d="M211.758,149.107h0a.269.269,0,0,0,.048-.372,2.645,2.645,0,0,0-2.186-1.045h0a.253.253,0,0,0-.23.285h0a.261.261,0,0,0,.285.222,2.1,2.1,0,0,1,1.719.847.261.261,0,0,0,.23.1A.381.381,0,0,0,211.758,149.107Z" transform="translate(-168.33 -141.811)" fill="#263238"/>
          <path id="Path_23227" data-name="Path 23227" d="M198.574,205.39a32.941,32.941,0,0,0-4.2-9.971c-.744-1.077-1.584-2.067-2.376-3.168a43.564,43.564,0,0,1-2.923-4.388c.871-.792,2.02-1.584,2.954-2.313l-3.532-2.923a36.781,36.781,0,0,0,1.212-10.3,1.822,1.822,0,0,1,1.339-.317,27.436,27.436,0,0,1,3.635,8.546A141.841,141.841,0,0,1,198.574,205.39Z" transform="translate(-163.985 -146.866)" fill="#263238"/>
          <path id="Path_23228" data-name="Path 23228" d="M202.474,208.912h0c-.055-.071-.1-.158-.158-.246-2.249-3.5-12.482-19.483-13.195-20.814.879-.792,2.028-1.584,2.962-2.313l-3.532-2.923a37.074,37.074,0,0,0,1.212-10.3,1.814,1.814,0,0,1,1.331-.317,27.72,27.72,0,0,1,2.645,5.259,26.579,26.579,0,0,1,.99,3.287c2,7.873,4.095,20.7,7.619,28.013Z" transform="translate(-163.996 -146.864)" fill="#fff" opacity="0.2"/>
          <path id="Path_23229" data-name="Path 23229" d="M211.768,207.454a32.747,32.747,0,0,1,1.133-10.763c.4-1.243.943-2.439,1.362-3.683.539-1.584,2.178-3.548,2.511-5.211-1.061-.483-2.376-.974-3.5-1.362l2.542-3.817c-1.822-2.954-4.6-5.362-5.544-8.712a1.829,1.829,0,0,0-1.37.079c-.562,1.861.325,7.279.372,8.419C209.669,190.822,209.915,199.241,211.768,207.454Z" transform="translate(-168.19 -147.244)" fill="#263238"/>
          <path id="Path_23230" data-name="Path 23230" d="M216.138,187.75c-1.972,5.4-6.083,16.632-10.106,21.5h0c-.127.15-.246.293-.372.428l.214-.673a.791.791,0,0,1,0-.111c3.667-11.88,3.168-18.335,2.78-26.564-.048-1.14-.935-6.708-.372-8.562a1.79,1.79,0,0,1,1.37-.079c.927,3.342,3.707,5.893,5.544,8.847-.84,1.275-1.687,2.542-2.534,3.818C213.731,186.776,215.077,187.267,216.138,187.75Z" transform="translate(-167.554 -147.197)" fill="#fff" opacity="0.2"/>
          <path id="Path_23231" data-name="Path 23231" d="M173.438,186.457a83.745,83.745,0,0,0,8.3,13.535c5.964,8.2,9.314,8.2,9.314,8.2l4.372,1.315s-1.125-20.671-13.828-23.76C177.826,184.8,172.63,186.481,173.438,186.457Z" transform="translate(-160.835 -149.667)" opacity="0.3"/>
          <path id="Path_23232" data-name="Path 23232" d="M234.484,203.71l-6.534.3v3.6l6.534-.919Z" transform="translate(-172.19 -153.463)" fill="#ffc3bd"/>
          <path id="Path_23233" data-name="Path 23233" d="M233.829,206.078c-.135,3.168,3.73,3.889,3.73,3.889l2.012,1.647a1.774,1.774,0,0,0,2.313,0l1.663-1.418.048-.04a1.774,1.774,0,0,0,.111-2.5l-1.354-1.5a5.718,5.718,0,0,0-1.972-1.426l-4.673-1.022Z" transform="translate(-173.412 -153.463)" fill="#ffc3bd"/>
          <path id="Path_23234" data-name="Path 23234" d="M174.075,180.4c-1.346,2.629-.744,5.671.871,8.142,3.675,5.592,15.793,13.021,18.216,14.66,5.481,3.738,27.72-.618,27.72-.618l.325-5.489-23.76-1.188s-7.976-13.282-13.464-17.337C181.219,176.543,175.96,176.717,174.075,180.4Z" transform="translate(-160.83 -147.965)" fill="#263238"/>
        </g>
        <path id="Path_23235" data-name="Path 23235" d="M195.106,138.777a2.614,2.614,0,0,0-2.051.657,8.292,8.292,0,0,0-3.1,4.815,2.376,2.376,0,0,0,0,1.2,1.022,1.022,0,0,0,.832.792,4.752,4.752,0,0,1,2.02-1.251,27.294,27.294,0,0,1,4.752-1.1,60.079,60.079,0,0,0,8.657-1.98c.562-.166,1.2-.42,1.354-.982s-1.061-1.481-.863-1.663c.309-.3.737-.57.737-1a1.029,1.029,0,0,0-.135-.483,2.289,2.289,0,0,0-1.251-1.228,1.148,1.148,0,0,0-1.449.689,13.682,13.682,0,0,0-.348-1.521,1.077,1.077,0,0,0-.618-.475,2.511,2.511,0,0,0-2.3.491,7.468,7.468,0,0,0-1.584,1.877C198.923,138.817,196.547,139.11,195.106,138.777Z" transform="translate(-164.271 -135.148)" fill="#263238"/>
        <path id="Path_23236" data-name="Path 23236" d="M205.81,158.743h0a.127.127,0,0,1,0-.182.119.119,0,0,1,.166,0,3.342,3.342,0,0,0,2.851,1.014.135.135,0,0,1,.143.119.127.127,0,0,1-.111.135A3.548,3.548,0,0,1,205.81,158.743Z" transform="translate(-167.577 -140.01)" fill="#263238"/>
        <path id="Path_23237" data-name="Path 23237" d="M191.71,172.174l2.012-.634a19.524,19.524,0,0,0,7.445,5.093,7.571,7.571,0,0,0-2.946,3.279C191.488,177.25,191.71,172.174,191.71,172.174Z" transform="translate(-164.653 -142.717)" fill="#fff"/>
        <path id="Path_23238" data-name="Path 23238" d="M207.409,172.653l-1.83-.483s-.935,3.81-2.859,4.261c3.255,1.449,3.722,3.113,3.722,3.113C211.29,178.237,207.409,172.653,207.409,172.653Z" transform="translate(-166.943 -142.848)" fill="#fff"/>
        <path id="Path_23239" data-name="Path 23239" d="M203.454,220.692a.737.737,0,1,1-.7-.792.745.745,0,0,1,.7.792Z" transform="translate(-166.789 -152.775)" fill="#fff" opacity="0.3"/>
      </g>
    </g>
  </g>
</svg>
