<?xml version="1.0" encoding="UTF-8"?><svg xmlns="http://www.w3.org/2000/svg" viewBox="0 0 40 40"><defs><style>.d{fill:#fff;}.e{fill:none;}</style></defs><g id="a"/><g id="b"><g id="c"><g><rect class="e" width="40" height="40"/><g><path class="d" d="M.62,24.09c.07-.27,.13-.54,.21-.81,.67-2.39,2.82-4.05,5.3-4.07,1.23,0,2.46,0,3.7-.01-3.49-.65-5.15-3.77-4.69-6.5,.46-2.7,2.91-4.68,5.74-4.59,2.72,.09,5.01,2.29,5.26,5.08,.23,2.57-1.43,5.38-4.73,6.01,.42,0,.84,0,1.26,0,1.02,.01,2.06-.07,3.06,.07,2.45,.33,3.99,1.77,4.69,4.12,.02,.07,.04,.14,.07,.25,.38,0,.76,0,1.14,0,.86,.01,1.37,.69,1.11,1.5-.36,1.15-.74,2.3-1.13,3.44-.06,.19-.04,.3,.11,.45,1.02,.98,1.36,2.17,.91,3.51-.45,1.32-1.42,2.07-2.8,2.25-.25,.03-.33,.14-.39,.34-.32,.99-.67,1.98-.98,2.98-.16,.51-.39,.92-.89,1.14H3.65c-.64-.3-.84-.8-.82-1.49,.04-1.24,0-2.49,.02-3.74,0-.23-.07-.38-.25-.53-.9-.75-1.49-1.69-1.79-2.82-.07-.25-.12-.5-.18-.74,0-1.95,0-3.9,0-5.84Zm17.53-.44c-.01-.08-.02-.12-.03-.17-.45-1.17-1.67-2.04-2.96-2.05-3.03-.02-6.06-.02-9.1,0-1.75,.01-3.19,1.47-3.21,3.23-.02,1.57-.02,3.13,0,4.7,.02,1.57,1.18,2.97,2.74,3.16,1.09,.13,2.21,.06,3.32,.07,.07,0,.18-.09,.2-.16,.23-.67,.45-1.35,.68-2.05-1.2,0-2.36,0-3.51,0-.76,0-1.21-.46-1.22-1.22,0-1.43,0-2.86,0-4.29,0-.72,.46-1.22,1.11-1.22,.65,0,1.11,.5,1.11,1.22,0,.97,0,1.95,0,2.92,0,.12,.01,.24,.02,.36h3.22c.05-.14,.11-.27,.15-.41,.35-1.04,.69-2.08,1.03-3.12,.25-.75,.56-.97,1.36-.97,1.01,0,2.02,0,3.03,0h2.05Zm-8.22,13.39c2.15,0,4.24,0,6.34,0,.09,0,.23-.1,.26-.18,.24-.66,.45-1.32,.67-1.98-.89-.35-1.03-.57-1.03-1.53,0-1.33,0-2.66,0-3.99,0-.72,.46-1.18,1.18-1.18,.6,0,1.21,0,1.81,0,.11,0,.29-.07,.31-.15,.25-.69,.47-1.39,.71-2.13h-.4c-1.91,0-3.82,0-5.73,0-.3,0-.45,.07-.54,.38-.7,2.15-1.42,4.3-2.13,6.45-.47,1.43-.95,2.87-1.44,4.35Zm.7-26.71c-1.83,0-3.33,1.47-3.35,3.29-.02,1.84,1.47,3.36,3.31,3.37,1.83,0,3.33-1.47,3.35-3.29,.02-1.84-1.47-3.36-3.31-3.37Zm-5.55,26.71c.79,0,1.57,0,2.34,0,.07,0,.18-.06,.2-.11,.24-.69,.46-1.38,.71-2.14h-3.25v2.25Zm13.31-4.44c.42,0,.82,.02,1.2,0,.56-.04,.99-.54,1-1.09,0-.54-.4-1.04-.95-1.1-.41-.04-.83,0-1.25,0v2.2Z"/><path class="d" d="M22.89,17.06c-.75-.07-1.45-.07-2.11-.23-1.37-.33-2.38-1.62-2.39-3.03-.02-3.08-.03-6.16,0-9.24,.02-1.75,1.51-3.16,3.3-3.17,2.6-.01,5.2,0,7.8,0,1.84,0,3.67,0,5.51,0,2.07,0,3.49,1.42,3.5,3.48,0,2.88,0,5.77,0,8.65,0,2.06-1.43,3.48-3.5,3.48-1.92,0-3.85,0-5.77,0-.24,0-.41,.07-.58,.24-1.27,1.28-2.54,2.55-3.82,3.82-.32,.32-.69,.46-1.14,.33-.43-.13-.69-.42-.78-.85-.03-.15-.02-.32-.02-.48,0-1.01,0-2.02,0-2.99Zm2.22,.58c.84-.84,1.61-1.59,2.36-2.37,.34-.35,.72-.51,1.21-.51,2.13,.02,4.26,0,6.4,0,.74,0,1.2-.46,1.2-1.2,0-2.92,0-5.84,0-8.76,0-.76-.46-1.21-1.23-1.21-4.41,0-8.82,0-13.24,0-.77,0-1.22,.45-1.22,1.22,0,2.91,0,5.82,0,8.72,0,.78,.45,1.23,1.25,1.23,.68,0,1.36,0,2.03,0,.79,0,1.23,.45,1.23,1.24,0,.5,0,1.01,0,1.63Z"/><path class="d" d="M27.3,9.9c.89-.89,1.71-1.73,2.54-2.54,.66-.64,1.68-.37,1.89,.51,.1,.39-.01,.74-.29,1.02-1.11,1.12-2.22,2.24-3.35,3.34-.46,.45-1.1,.44-1.56,0-.56-.54-1.11-1.09-1.65-1.65-.45-.47-.44-1.16,0-1.59,.43-.42,1.1-.42,1.57,.02,.28,.27,.54,.57,.84,.9Z"/></g></g></g></g></svg>