<?xml version="1.0" encoding="UTF-8"?><svg xmlns="http://www.w3.org/2000/svg" viewBox="0 0 40 40"><defs><style>.d{fill:#fff;}.e{fill:none;}</style></defs><g id="a"/><g id="b"><g id="c"><g><rect class="e" width="40" height="40"/><g><path class="d" d="M34.8,39.33H5.21c0-.1,.01-.2,.01-.3,0-10.38,0-20.76,0-31.14,0-.12-.01-.24-.02-.41-.3,0-.57,0-.84,0-.3,0-.61,0-.9-.06-1.73-.35-2.93-1.94-2.77-3.65C.86,1.99,2.32,.67,4.17,.67c9.03,0,18.06,0,27.1,0,.34,0,.68,.04,1,.13,1.53,.41,2.51,1.74,2.51,3.4,0,3.27,0,6.54,0,9.81,0,.15,0,.3,0,.47,.16-.03,.28-.06,.4-.08,1.84-.39,3.62,.72,4.05,2.56,.03,.11,.06,.21,.09,.32v.91c-.2,1.07-.85,1.84-1.61,2.57-.9,.86-1.76,1.76-2.65,2.63-.21,.2-.29,.4-.29,.69,0,4.05,0,8.1,0,12.16,0,1.03,0,2.06,.01,3.1Zm-3.44-31.84H7.51v29.55h24.98v-10.99l-.09-.06c-.08,.11-.15,.23-.25,.33-2.74,2.74-5.48,5.48-8.22,8.22-.12,.12-.31,.24-.47,.24-1.46,.02-2.92,.01-4.38,0-.06,0-.12-.02-.21-.04v-4.53H9.8v-2.26h.46c3.06,0,6.12-.05,9.17,.03,1.04,.02,1.83-.2,2.47-1.03,.34-.44,.79-.79,1.19-1.18l-.05-.11H9.81v-2.25h.48c4.68,0,9.36-.02,14.04,.02,.8,0,1.38-.18,1.89-.79,.42-.52,.95-.95,1.42-1.42l-.05-.09H9.79v-2.26h.46c6.44,0,12.88,0,19.32,0,.27,0,.47-.07,.66-.27,.67-.7,1.37-1.37,2.04-2.07,.13-.14,.23-.36,.23-.55,.01-3.91,.01-7.83,0-11.74,0-.17-.02-.35-.07-.52-.15-.5-.64-.83-1.16-.79-.52,.04-.95,.43-1.04,.94-.09,.54,.19,1.05,.69,1.25,.13,.05,.26,.08,.41,.12v2.24Zm-3.31-4.55h-.37c-7.77,0-15.54,0-23.31,0-.13,0-.25,0-.38,0-.45,.05-.78,.28-.96,.7-.18,.42-.09,.81,.19,1.16,.27,.33,.63,.42,1.04,.42,7.83,0,15.67,0,23.5,0,.12,0,.24-.01,.28-.01V2.94Zm-2.88,27.03l9.04-9.05-1.5-1.49-9.04,9.04,1.5,1.5Zm10.78-10.68c.28-.28,.61-.55,.88-.88,.36-.44,.3-1.08-.09-1.48-.38-.39-1.04-.47-1.48-.12-.34,.27-.62,.6-.91,.88l1.59,1.59Zm-12.45,12.43l-1.6-1.6c-.24,.27-.63,.52-.73,.86-.13,.47-.03,1.01-.03,1.51,.95,.07,1.88,.22,2.36-.77Z"/><path class="d" d="M21.12,14.35v2.2H9.8v-2.2h11.32Z"/></g></g></g></g></svg>