<?xml version="1.0" encoding="UTF-8"?><svg xmlns="http://www.w3.org/2000/svg" viewBox="0 0 40 40"><defs><style>.d{fill:#fff;}.e{fill:none;}</style></defs><g id="a"/><g id="b"><g id="c"><g><rect class="e" width="40" height="40"/><g><path class="d" d="M39.22,1.61V38.38c-.3,.65-.81,.84-1.51,.84-11.83-.01-23.66,0-35.49,0-1.03,0-1.43-.39-1.43-1.43,0-11.83,0-23.66-.01-35.49,0-.7,.19-1.21,.84-1.51H38.39c.37,.18,.65,.45,.83,.83ZM3.07,7.55v29.37H36.95V7.55H3.07Zm0-2.29H23.43V3.05H3.06v2.21Zm24.87,0V3.06h-2.21v2.2h2.21Zm2.3,0h2.2V3.05h-2.2v2.21Zm4.51-2.21v2.2h2.21V3.05h-2.21Z"/><path class="d" d="M10.49,16.62c-2.17-.73-3.15-2.19-2.8-4.05,.31-1.62,1.83-2.79,3.52-2.7,1.64,.09,3,1.42,3.16,3.08,.16,1.71-.98,3.21-2.76,3.67,.56,0,1.12,0,1.68,0,1.53,.03,2.82,1.03,3.22,2.51,.06,.24,.11,.49,.11,.74,.02,.79,.02,1.58,0,2.36,0,.66-.48,1.14-1.14,1.14-3.01,0-6.03,0-9.04,0-.6,0-1.12-.41-1.13-.98-.03-.98-.07-1.98,.06-2.95,.21-1.58,1.64-2.76,3.23-2.81,.6-.02,1.19,0,1.88,0Zm3.88,4.48c0-.43,.03-.84,0-1.24-.05-.56-.52-.98-1.1-.99-1.51-.01-3.02-.01-4.54,0-.55,0-1.08,.39-1.14,.9-.06,.44-.01,.88-.01,1.32h6.8Zm-3.38-6.74c.61,0,1.12-.5,1.13-1.11,0-.61-.49-1.13-1.1-1.14-.62-.01-1.15,.51-1.15,1.13,0,.61,.51,1.12,1.12,1.12Z"/><path class="d" d="M20.01,25.62c4.49,0,8.98,0,13.46,0,.89,0,1.46,.75,1.16,1.52-.17,.44-.51,.67-.97,.72-.12,.01-.25,0-.37,0-8.86,0-17.73,0-26.59,0-.2,0-.4,0-.59-.06-.54-.15-.87-.66-.81-1.2,.06-.54,.51-.96,1.06-.99,.12,0,.25,0,.37,0,4.43,0,8.85,0,13.28,0Z"/><path class="d" d="M20,32.38c-4.45,0-8.9,0-13.35,0-.19,0-.38,0-.55-.06-.52-.15-.85-.64-.8-1.17,.05-.54,.49-.97,1.04-1.02,.11,0,.22,0,.34,0,8.89,0,17.78,0,26.67,0,.19,0,.38,0,.55,.05,.54,.15,.88,.66,.82,1.19-.06,.54-.5,.96-1.05,1-.12,0-.25,0-.37,0-4.43,0-8.85,0-13.28,0Z"/><path class="d" d="M26.84,16.62c2.22,0,4.45,0,6.67,0,.89,0,1.46,.82,1.1,1.59-.22,.47-.61,.66-1.12,.66-2.17,0-4.35,0-6.52,0-2.29,0-4.57,0-6.86,0-.9,0-1.47-.8-1.12-1.57,.22-.48,.62-.68,1.15-.68,2.24,0,4.47,0,6.71,0Z"/><path class="d" d="M26.76,23.37c-2.22,0-4.45,0-6.67,0-.91,0-1.47-.85-1.08-1.62,.23-.45,.61-.63,1.1-.63,2.22,0,4.45,0,6.67,0,2.25,0,4.5,0,6.75,0,.89,0,1.44,.84,1.07,1.6-.23,.47-.62,.65-1.13,.65-2.24,0-4.47,0-6.71,0Z"/><path class="d" d="M22.33,14.36c-.61,0-1.12-.51-1.12-1.12,0-.62,.53-1.14,1.15-1.13,.61,.01,1.11,.53,1.1,1.14,0,.61-.52,1.11-1.13,1.11Z"/><path class="d" d="M26.85,12.12c.61,0,1.11,.52,1.11,1.13,0,.62-.54,1.14-1.16,1.12-.61-.02-1.1-.54-1.09-1.15,.01-.61,.53-1.11,1.14-1.1Z"/><path class="d" d="M31.33,14.36c-.61,0-1.12-.51-1.12-1.12,0-.62,.53-1.14,1.15-1.13,.61,.01,1.11,.53,1.1,1.14,0,.61-.52,1.11-1.13,1.11Z"/></g></g></g></g></svg>