<svg xmlns="http://www.w3.org/2000/svg" xmlns:xlink="http://www.w3.org/1999/xlink" width="628.035" height="536.555" viewBox="0 0 628.035 536.555">
  <defs>
    <linearGradient id="linear-gradient" x1="0.662" y1="0.768" x2="0.5" y2="0.868" gradientUnits="objectBoundingBox">
      <stop offset="0" stop-color="#3ab764"/>
      <stop offset="1" stop-color="#49d879"/>
    </linearGradient>
  </defs>
  <g id="Group_1295" data-name="Group 1295" transform="translate(-1186.247 -183.337)">
    <g id="Order_food-pana_1_" data-name="Order food-pana (1)" transform="translate(1152.456 153.907)">
      <g id="freepik--background-complete--inject-3" transform="translate(33.791 49.794)">
        <path id="Path_28946" data-name="Path 28946" d="M90.582,191.218a1.6,1.6,0,0,1,0-.284v-3.781c0-2.631,0-6.424-.095-11.189l.178.178L33,176.248l.284-.284h0v15.255l-.284-.3,41.095.13,12.126.083h.13l-12.055.083-41.379.237h-.3V176.046h0l.3-.3,57.665.107h.178v.19c0,4.812-.083,8.641-.095,11.3v3.71Q90.627,191.137,90.582,191.218Z" transform="translate(-32.62 -22.679)" fill="#d7e8f7"/>
        <path id="Path_28947" data-name="Path 28947" d="M93.56,178.354v-4.16c0-2.679,0-6.46-.107-11.106l.2.213-34.647.083c-.261.261.356-.356.3-.284h0v15.219l-.284-.273,24.785.13,7.219.083h2.015l-1.979.178-7.112.083-24.975.13H58.7v-15.5h0l.3-.3,34.647.083h.213v.2c0,4.741-.083,8.522-.107,11.237v3.011a5.926,5.926,0,0,1-.19.972Z" transform="translate(-27.787 -25.069)" fill="#d7e8f7"/>
        <path id="Path_28948" data-name="Path 28948" d="M237.9,75.008a1.187,1.187,0,0,1,0-.273V70.942c0-2.631-.059-6.413-.107-11.189l.19.178-57.748.166c.13-.13-.3.3.284-.3h0V75.008l-.3-.284,41.095.13,12.138.083H237.9a1.185,1.185,0,0,1-.273,0h-4.042l-12.1.225-41.3.13H180V59.776h0l.308-.3,57.665.119h.107v.178c0,4.824-.083,8.641-.107,11.3v3.722a1.459,1.459,0,0,1-.071.213Z" transform="translate(-5.309 -44.225)" fill="#e5f4ff"/>
        <path id="Path_28949" data-name="Path 28949" d="M240.9,62.138v-4.16c0-2.667-.071-6.448-.119-11.095l.213.213-34.647.083.3-.3h0V62.114l-.284-.284,24.785.142,7.219.071H241a3.888,3.888,0,0,1-.628,0h-1.885l-7.112.071-25.129.367H206V46.906h0l.3-.3,34.647.083h.213v.213c0,4.741-.083,8.522-.119,11.225v3.011a7.888,7.888,0,0,1-.142,1Z" transform="translate(-0.491 -46.61)" fill="#e5f4ff"/>
        <path id="Path_28950" data-name="Path 28950" d="M206.542,49.05V148.4H63.854L58.71,49.749Z" transform="translate(-27.785 -46.158)" fill="#e5f4ff"/>
        <rect id="Rectangle_2349" data-name="Rectangle 2349" width="98.44" height="142.688" transform="translate(30.925 102.032) rotate(-90)" fill="#fff"/>
        <path id="Path_28951" data-name="Path 28951" d="M202.191,148.863H58.14V49.06H202.191Zm-142.7-1.351H200.84V50.423H59.491Z" transform="translate(-27.891 -46.156)" fill="#d7e8f7"/>
        <rect id="Rectangle_2350" data-name="Rectangle 2350" width="111.787" height="73.987" transform="translate(46.381 15.812)" fill="#fff"/>
        <path id="Path_28952" data-name="Path 28952" d="M183.622,60.05a5.023,5.023,0,0,1-.557,0h-7.728l-23.031.083L71.835,60.3l.3-.249v73.975h0l-.356-.356,111.787.071-.284.284c.059-22.521.119-40.976.154-53.825,0-6.424,0-11.45.071-14.888v-.107c0,3.426,0,8.416.071,14.816,0,12.9.083,31.411.142,54v.284h-.284l-111.787.071H71.29v-.356h0V59.73h.32l80.684.166,22.959.083h7.622Z" transform="translate(-25.454 -44.179)" fill="#d7e8f7"/>
        <path id="Path_28953" data-name="Path 28953" d="M58.71,49.4a12.2,12.2,0,0,1,2.454,1.588c1.458,1.055,3.449,2.548,5.595,4.267s4.03,3.343,5.369,4.563a11.924,11.924,0,0,1,2.039,2.145c-.13.154-3.556-2.679-7.847-6.092S58.592,49.566,58.71,49.4Z" transform="translate(-27.786 -46.093)" fill="#d7e8f7"/>
        <path id="Path_28954" data-name="Path 28954" d="M181.516,49.641A71.738,71.738,0,0,1,174,55.994a68.608,68.608,0,0,1-7.942,5.832,70.79,70.79,0,0,1,7.5-6.389C177.842,52.095,181.4,49.487,181.516,49.641Z" transform="translate(-7.892 -46.05)" fill="#d7e8f7"/>
        <path id="Path_28955" data-name="Path 28955" d="M181.487,134.716l-15.907-12.9" transform="translate(-7.981 -32.673)" fill="#fff"/>
        <path id="Path_28956" data-name="Path 28956" d="M165.581,121.82A77.97,77.97,0,0,1,173.759,128a76.463,76.463,0,0,1,7.728,6.721,74.14,74.14,0,0,1-8.179-6.175C168.923,124.985,165.45,122.033,165.581,121.82Z" transform="translate(-7.982 -32.673)" fill="#e0e0e0"/>
        <path id="Path_28957" data-name="Path 28957" d="M58.71,134.582a68.486,68.486,0,0,1,7.456-6.33,66.936,66.936,0,0,1,7.87-5.772,68.488,68.488,0,0,1-7.432,6.33A66.932,66.932,0,0,1,58.71,134.582Z" transform="translate(-27.785 -32.55)" fill="#d7e8f7"/>
        <rect id="Rectangle_2351" data-name="Rectangle 2351" width="24.773" height="70.336" transform="translate(69.08 63.639) rotate(-90)" fill="#d7e8f7"/>
        <path id="Path_28958" data-name="Path 28958" d="M302.04,442.18v45.362H441.527V442.18Z" transform="translate(17.307 26.694)" fill="#ecf4fb"/>
        <path id="Path_28959" data-name="Path 28959" d="M297.1,431.48v12.683H447.315V431.48H297.1Z" transform="translate(16.391 24.711)" fill="#ecf4fb"/>
        <path id="Path_28960" data-name="Path 28960" d="M360.928,489.525h70.23V444.163h4.872V431.48H358v11.509Z" transform="translate(27.677 24.711)" fill="#ecf4fb"/>
        <rect id="Rectangle_2352" data-name="Rectangle 2352" width="28.293" height="6.827" transform="translate(338.857 476.187)" fill="#ecf4fb"/>
        <rect id="Rectangle_2353" data-name="Rectangle 2353" width="36.318" height="14.413" transform="translate(335.218 491.549)" fill="#fff"/>
        <rect id="Rectangle_2354" data-name="Rectangle 2354" width="57.665" height="15.255" transform="translate(192.483 208.437)" fill="#d7e8f7"/>
        <path id="Path_28961" data-name="Path 28961" d="M232.139,251.325a1.6,1.6,0,0,1,0-.284v-3.769c0-2.631-.059-6.424-.095-11.189l.178.178-57.665.107.284-.284h0v15.231l-.284-.284,41.095.13,12.126.071h.13l-12.055.083-41.3.13h-.3v-15.4h0l.3-.3,57.665.119h.178v.178c0,4.812-.071,8.641-.095,11.3v3.71A1.966,1.966,0,0,1,232.139,251.325Z" transform="translate(-6.372 -11.56)" fill="#d7e8f7"/>
        <path id="Path_28962" data-name="Path 28962" d="M467.875,174.585V170.52c0-2.631-.059-6.424-.095-11.189l.178.178-57.665.107.3-.284h0v15.255l-.284-.3,41.095.13,12.126.083h.142l-12.066.083-41.3.13h-.284V159.176h0l.3-.3,57.665.107h.095v.19c0,4.812-.071,8.641-.095,11.3v3.71a1.007,1.007,0,0,1-.107.4Z" transform="translate(37.317 -25.805)" fill="#e0e0e0"/>
      </g>
      <g id="freepik--Device--inject-3" transform="translate(297.688 29.43)">
        <rect id="Rectangle_2356" data-name="Rectangle 2356" width="231.799" height="459.024" rx="25.34" transform="translate(1.577)" fill="#455a64"/>
        <rect id="Rectangle_2357" data-name="Rectangle 2357" width="451.722" height="224.498" rx="22.23" transform="translate(229.726 3.663) rotate(90)" fill="#263238"/>
        <path id="Path_28964" data-name="Path 28964" d="M340.761,45.527a2.584,2.584,0,1,1,0-5.156H373.95a2.584,2.584,0,0,1,0,5.156Z" transform="translate(-239.926 -27.404)" fill="#455a64"/>
        <path id="Path_28965" data-name="Path 28965" d="M325.734,45.528a2.584,2.584,0,1,1,2.584-2.584A2.584,2.584,0,0,1,325.734,45.528Z" transform="translate(-242.678 -27.405)" fill="#455a64"/>
        <path id="Path_28966" data-name="Path 28966" d="M333.746,45.528a2.584,2.584,0,1,1,2.572-2.584A2.584,2.584,0,0,1,333.746,45.528Z" transform="translate(-241.196 -27.405)" fill="#455a64"/>
        <path id="Path_28967" data-name="Path 28967" d="M383.826,45.528a2.584,2.584,0,1,1,2.572-2.584A2.584,2.584,0,0,1,383.826,45.528Z" transform="translate(-231.915 -27.405)" fill="#455a64"/>
        <path id="Path_28968" data-name="Path 28968" d="M375.814,45.528a2.584,2.584,0,1,1,2.584-2.584A2.584,2.584,0,0,1,375.814,45.528Z" transform="translate(-233.398 -27.405)" fill="#455a64"/>
        <path id="Path_28969" data-name="Path 28969" d="M458.21,34.71H425.662a11.592,11.592,0,0,0-11.118,8.3l-.557,1.9a12.4,12.4,0,0,1-11.853,8.949h-62A12.41,12.41,0,0,1,328.217,44.9l-.545-1.9a11.592,11.592,0,0,0-11.13-8.3H287.016A22.936,22.936,0,0,0,264.08,57.646V455.673a21.573,21.573,0,0,0,21.573,21.573H458.6a19.522,19.522,0,0,0,19.534-19.522V54.635A19.937,19.937,0,0,0,458.21,34.71Z" transform="translate(-253.625 -28.452)" fill="#fff"/>
        <path id="Path_28970" data-name="Path 28970" d="M1.268,0h.261V52.758H1.268A1.268,1.268,0,0,1,0,51.49V1.268A1.268,1.268,0,0,1,1.268,0Z" transform="translate(234.894 152.526) rotate(180)" fill="#455a64"/>
        <path id="Path_28971" data-name="Path 28971" d="M256.528,141h.308v33.4h-.308a1.268,1.268,0,0,1-1.268-1.268V142.316A1.268,1.268,0,0,1,256.528,141Z" transform="translate(-255.259 -8.755)" fill="#455a64"/>
        <path id="Path_28972" data-name="Path 28972" d="M256.528,104.21h.308v33.4h-.308a1.268,1.268,0,0,1-1.268-1.268V105.526a1.268,1.268,0,0,1,1.268-1.316Z" transform="translate(-255.259 -15.572)" fill="#455a64"/>
        <path id="Path_28973" data-name="Path 28973" d="M256.576,76.58h.237V92.108h-.237a1.126,1.126,0,0,1-1.126-1.126V77.706a1.126,1.126,0,0,1,1.126-1.126Z" transform="translate(-255.224 -20.693)" fill="#455a64"/>
        <rect id="Rectangle_2358" data-name="Rectangle 2358" width="1.588" height="2.228" transform="translate(172.547 21.679)" fill="#263238"/>
        <rect id="Rectangle_2359" data-name="Rectangle 2359" width="1.588" height="3.224" transform="translate(175.131 20.684)" fill="#263238"/>
        <rect id="Rectangle_2360" data-name="Rectangle 2360" width="1.588" height="3.971" transform="translate(177.727 19.949)" fill="#263238"/>
        <rect id="Rectangle_2361" data-name="Rectangle 2361" width="1.588" height="5.417" transform="translate(180.322 18.503)" fill="#263238"/>
        <path id="Path_28974" data-name="Path 28974" d="M429.9,50.5h-7.989a.581.581,0,0,1-.581-.569V45.962a.581.581,0,0,1,.569-.581h8a.213.213,0,0,1,.107,0,.142.142,0,0,1,0,.107v1.3h.853a.154.154,0,0,1,.154.142v1.92a.142.142,0,0,1-.154.142h-.853v1.316a.142.142,0,0,1-.107.19Zm-.142-4.824H421.9a.273.273,0,0,0-.273.284v3.971a.273.273,0,0,0,.284.273h7.847V48.9a.142.142,0,0,1,.142-.142h.853V47.135H429.9a.142.142,0,0,1-.142-.154Z" transform="translate(-224.484 -26.475)" fill="#263238"/>
        <path id="Path_28975" data-name="Path 28975" d="M422.13,49.4V46.18h6.827V49.4Z" transform="translate(-224.336 -26.326)" fill="#263238"/>
        <path id="Path_28976" data-name="Path 28976" d="M415.345,49.533a.593.593,0,1,0-.581.593.581.581,0,0,0,.581-.593Z" transform="translate(-225.813 -25.815)" fill="#263238"/>
        <path id="Path_28977" data-name="Path 28977" d="M413,48.39l.747.735a1.825,1.825,0,0,1,1.256-.51,1.8,1.8,0,0,1,1.245.51l.747-.735a2.821,2.821,0,0,0-3.994,0Z" transform="translate(-226.028 -26.07)" fill="#263238"/>
        <path id="Path_28978" data-name="Path 28978" d="M415.165,46.16A4.457,4.457,0,0,0,412,47.476l.747.735a3.449,3.449,0,0,1,4.848,0l.747-.735a4.457,4.457,0,0,0-3.177-1.316Z" transform="translate(-226.213 -26.33)" fill="#263238"/>
        <path id="Path_28979" data-name="Path 28979" d="M411,46.523l.747.747a5.132,5.132,0,0,1,7.266,0l.747-.747a6.2,6.2,0,0,0-8.759,0Z" transform="translate(-226.399 -26.598)" fill="#263238"/>
        <path id="Path_28980" data-name="Path 28980" d="M338.776,73.369v2.6h4.552V77.8h-4.552v3.556H336.5V71.52h7.432v1.825Z" transform="translate(-240.204 -21.63)" fill="#263238"/>
        <path id="Path_28981" data-name="Path 28981" d="M345.317,80.648a3.8,3.8,0,0,1-1.494-1.375,4.078,4.078,0,0,1,0-4.03,3.8,3.8,0,0,1,1.493-1.375,4.848,4.848,0,0,1,4.279,0,3.734,3.734,0,0,1,1.482,1.434,4.078,4.078,0,0,1,0,4.03,3.734,3.734,0,0,1-1.47,1.375,4.741,4.741,0,0,1-4.279,0Zm3.556-1.861a2.371,2.371,0,0,0,0-3.058,1.8,1.8,0,0,0-1.375-.569,1.861,1.861,0,0,0-1.4.569,2.371,2.371,0,0,0,0,3.058,1.861,1.861,0,0,0,1.4.569,1.8,1.8,0,0,0,1.375-.569Z" transform="translate(-238.946 -21.287)" fill="#263238"/>
        <path id="Path_28982" data-name="Path 28982" d="M353.085,80.648a3.77,3.77,0,0,1-1.482-1.375,4.077,4.077,0,0,1,0-4.03,3.77,3.77,0,0,1,1.482-1.375,4.575,4.575,0,0,1,2.145-.5,4.516,4.516,0,0,1,2.145.5,3.733,3.733,0,0,1,1.47,1.434,4.077,4.077,0,0,1,0,4.03,3.734,3.734,0,0,1-1.47,1.375,4.386,4.386,0,0,1-2.145.51,4.445,4.445,0,0,1-2.145-.569Zm3.556-1.861a2.371,2.371,0,0,0,0-3.058,1.813,1.813,0,0,0-1.387-.569,1.849,1.849,0,0,0-1.387.569,2.371,2.371,0,0,0,0,3.058,1.849,1.849,0,0,0,1.387.569,1.813,1.813,0,0,0,1.363-.569Z" transform="translate(-237.504 -21.288)" fill="#263238"/>
        <path id="Path_28983" data-name="Path 28983" d="M367.1,71V81.431h-2.086v-.865a2.928,2.928,0,0,1-2.371.984,3.935,3.935,0,0,1-1.932-.486,3.473,3.473,0,0,1-1.351-1.363,4.469,4.469,0,0,1,0-4.1,3.473,3.473,0,0,1,1.351-1.363,3.923,3.923,0,0,1,1.932-.474,2.833,2.833,0,0,1,2.264.913V71Zm-2.691,8.179a2.371,2.371,0,0,0,0-3.058,1.979,1.979,0,0,0-2.774,0,2.371,2.371,0,0,0,0,3.058,1.98,1.98,0,0,0,2.774,0Z" transform="translate(-236.061 -21.727)" fill="#263238"/>
        <rect id="Rectangle_2362" data-name="Rectangle 2362" width="191.38" height="49.404" transform="translate(20.969 307.908)" fill="#ecf4fb"/>
        <path id="Path_28984" data-name="Path 28984" d="M286,308.439H282.85V306.59h8.582v1.849h-3.153v7.989H286Z" transform="translate(-250.146 21.931)" fill="#263238"/>
        <path id="Path_28985" data-name="Path 28985" d="M293.1,315.958a4.883,4.883,0,0,1-1.92-1.814,5.026,5.026,0,0,1-.7-2.608,4.966,4.966,0,0,1,.7-2.608,4.824,4.824,0,0,1,1.92-1.825,6.081,6.081,0,0,1,5.524,0,5.073,5.073,0,0,1,1.92,7.041,4.967,4.967,0,0,1-1.92,1.814A6.081,6.081,0,0,1,293.1,315.958Zm4.338-1.671a2.8,2.8,0,0,0,1.1-1.126,3.556,3.556,0,0,0,0-3.26,2.773,2.773,0,0,0-1.1-1.114,3.283,3.283,0,0,0-3.153,0,2.928,2.928,0,0,0-1.1,1.114,3.556,3.556,0,0,0,0,3.26,2.964,2.964,0,0,0,1.1,1.126A3.378,3.378,0,0,0,297.438,314.287Z" transform="translate(-248.732 21.903)" fill="#263238"/>
        <path id="Path_28986" data-name="Path 28986" d="M303.094,308.439H300V306.59h8.57v1.849h-3.153v7.989h-2.276Z" transform="translate(-246.968 21.931)" fill="#263238"/>
        <path id="Path_28987" data-name="Path 28987" d="M314.5,314.318h-4.575l-.865,2.11H306.69l4.386-9.838h2.252l4.4,9.838h-2.371Zm-.723-1.731-1.565-3.769-1.6,3.769Z" transform="translate(-245.729 21.931)" fill="#263238"/>
        <path id="Path_28988" data-name="Path 28988" d="M316.89,306.59h2.288v7.977h4.955v1.861h-7.219Z" transform="translate(-243.838 21.931)" fill="#263238"/>
        <path id="Path_28989" data-name="Path 28989" d="M324.061,310.755a1.339,1.339,0,0,1-.391-.984,1.28,1.28,0,0,1,.391-.972,1.387,1.387,0,0,1,.972-.379,1.351,1.351,0,0,1,.972.379,1.28,1.28,0,0,1,.391.972,1.339,1.339,0,0,1-.391.984,1.316,1.316,0,0,1-.972.391A1.351,1.351,0,0,1,324.061,310.755Zm0,5.049a1.339,1.339,0,0,1-.391-.984,1.28,1.28,0,0,1,.391-.972,1.387,1.387,0,0,1,.972-.379,1.351,1.351,0,0,1,.972.379,1.28,1.28,0,0,1,.391.972,1.339,1.339,0,0,1-.391.984,1.316,1.316,0,0,1-.972.391,1.351,1.351,0,0,1-.972-.391Z" transform="translate(-242.582 22.27)" fill="#263238"/>
        <path id="Path_28990" data-name="Path 28990" d="M405.987,315.152a4.065,4.065,0,0,1-2.371,1.019v1.576h-1.47v-1.529a7.8,7.8,0,0,1-1.979-.367,4.9,4.9,0,0,1-1.517-.759l.77-1.719a5.025,5.025,0,0,0,1.256.664,5.653,5.653,0,0,0,1.47.344v-2.371a9.763,9.763,0,0,1-1.683-.533,2.869,2.869,0,0,1-1.185-.865,2.252,2.252,0,0,1-.474-1.505,2.7,2.7,0,0,1,.853-2,4.03,4.03,0,0,1,2.454-1.019V304.52h1.411v1.541a6.057,6.057,0,0,1,2.845.853l-.664,1.731a5.572,5.572,0,0,0-2.145-.735v2.371a9.574,9.574,0,0,1,1.659.51,2.844,2.844,0,0,1,1.185.853,2.37,2.37,0,0,1,.462,1.505,2.667,2.667,0,0,1-.877,2Zm-4.611-5.571a2.216,2.216,0,0,0,.77.379v-1.991a1.518,1.518,0,0,0-.782.391.9.9,0,0,0-.261.64.735.735,0,0,0,.332.581Zm2.94,4.374a.818.818,0,0,0,.249-.6.723.723,0,0,0-.261-.581,2.55,2.55,0,0,0-.747-.391v1.944a1.624,1.624,0,0,0,.759-.367Z" transform="translate(-228.687 21.547)" fill="#263238"/>
        <path id="Path_28991" data-name="Path 28991" d="M413.559,315.152a4.066,4.066,0,0,1-2.442,1.019v1.576h-1.4v-1.529a7.7,7.7,0,0,1-1.979-.367,5.11,5.11,0,0,1-1.529-.759l.782-1.719a5.156,5.156,0,0,0,1.245.664,5.855,5.855,0,0,0,1.482.344v-2.371a9.922,9.922,0,0,1-1.7-.533,2.951,2.951,0,0,1-1.185-.865,2.371,2.371,0,0,1-.462-1.505,2.7,2.7,0,0,1,.853-2,4.03,4.03,0,0,1,2.454-1.019V304.52h1.4v1.541a6.068,6.068,0,0,1,2.857.853l-.7,1.731a5.56,5.56,0,0,0-2.157-.735v2.371a9.412,9.412,0,0,1,1.671.51,3.01,3.01,0,0,1,1.185.853,2.371,2.371,0,0,1,.462,1.505,2.667,2.667,0,0,1-.842,2Zm-4.611-5.571a2.122,2.122,0,0,0,.77.379v-1.991a1.612,1.612,0,0,0-.794.391.948.948,0,0,0-.249.64.7.7,0,0,0,.273.581Zm2.928,4.374a.794.794,0,0,0,.261-.6.759.759,0,0,0-.261-.581,2.631,2.631,0,0,0-.759-.391v1.944a1.564,1.564,0,0,0,.771-.367Z" transform="translate(-227.286 21.547)" fill="#263238"/>
        <path id="Path_28992" data-name="Path 28992" d="M421.147,315.152a4.03,4.03,0,0,1-2.43,1.019v1.576h-1.411v-1.529a7.8,7.8,0,0,1-1.979-.367,5.038,5.038,0,0,1-1.517-.759l.77-1.719a5.253,5.253,0,0,0,1.256.664,5.761,5.761,0,0,0,1.47.344v-2.371a9.77,9.77,0,0,1-1.683-.533,2.869,2.869,0,0,1-1.185-.865,2.371,2.371,0,0,1-.462-1.505,2.7,2.7,0,0,1,.853-2,3.971,3.971,0,0,1,2.442-1.019V304.52h1.411v1.541a6.1,6.1,0,0,1,2.857.853l-.7,1.731a5.631,5.631,0,0,0-2.157-.735v2.371a10.074,10.074,0,0,1,1.671.51,2.892,2.892,0,0,1,1.185.853,2.371,2.371,0,0,1,.462,1.505A2.631,2.631,0,0,1,421.147,315.152Zm-4.611-5.571a2.216,2.216,0,0,0,.77.379v-1.991a1.517,1.517,0,0,0-.782.391.948.948,0,0,0-.249.64.723.723,0,0,0,.225.581Zm2.94,4.374a.83.83,0,0,0,.261-.6.759.759,0,0,0-.261-.581,2.631,2.631,0,0,0-.759-.391v1.944a1.564,1.564,0,0,0,.723-.367Z" transform="translate(-225.878 21.547)" fill="#263238"/>
        <path id="Path_28993" data-name="Path 28993" d="M465.955,91.21c0,.166-44,.308-98.262.308s-98.262-.142-98.262-.308,43.987-.32,98.262-.32S465.955,91.02,465.955,91.21Z" transform="translate(-252.633 -18.041)" fill="#ecf4fb"/>
        <path id="Path_28994" data-name="Path 28994" d="M422.468,391.468H310.883a23.3,23.3,0,0,1-23.3-23.3h0a23.315,23.315,0,0,1,23.3-23.315H422.468a23.315,23.315,0,0,1,23.315,23.315h0A23.315,23.315,0,0,1,422.468,391.468Z" transform="translate(-249.27 29.021)" fill="#0091ff"/>
        <path id="Path_28995" data-name="Path 28995" d="M332.956,371.356a5.014,5.014,0,0,1,0-8.854,5.76,5.76,0,0,1,2.762-.652,5.676,5.676,0,0,1,2.75.652,5.009,5.009,0,0,1,0,8.854,5.559,5.559,0,0,1-2.75.664A5.63,5.63,0,0,1,332.956,371.356Zm4.338-1.671a2.963,2.963,0,0,0,1.1-1.126,3.2,3.2,0,0,0,.4-1.624,3.248,3.248,0,0,0-.4-1.636,3.011,3.011,0,0,0-1.1-1.114,3.283,3.283,0,0,0-3.153,0,3.011,3.011,0,0,0-1.1,1.114,3.378,3.378,0,0,0-.4,1.636,3.33,3.33,0,0,0,.4,1.624,2.963,2.963,0,0,0,1.1,1.126A3.283,3.283,0,0,0,337.294,369.685Z" transform="translate(-241.354 32.171)" fill="#fff"/>
        <path id="Path_28996" data-name="Path 28996" d="M347.13,371.827l-1.9-2.738h-2.1v2.738H340.86V362h4.255a5.571,5.571,0,0,1,2.276.427,3.283,3.283,0,0,1,2,3.141,3.212,3.212,0,0,1-2.027,3.106l2.2,3.165Zm-.581-7.539a2.371,2.371,0,0,0-1.553-.45h-1.861v3.437H345a2.371,2.371,0,0,0,1.553-.45,1.576,1.576,0,0,0,.533-1.268,1.553,1.553,0,0,0-.533-1.268Z" transform="translate(-239.396 32.199)" fill="#fff"/>
        <path id="Path_28997" data-name="Path 28997" d="M349.58,362h4.469a6.341,6.341,0,0,1,2.833.6,4.587,4.587,0,0,1,1.908,1.731,5.2,5.2,0,0,1,0,5.168,4.481,4.481,0,0,1-1.908,1.719,6.188,6.188,0,0,1-2.833.616H349.58Zm4.35,7.965a3.319,3.319,0,0,0,2.371-.818,3.271,3.271,0,0,0,0-4.457,3.33,3.33,0,0,0-2.371-.83h-2.074v6.1Z" transform="translate(-237.78 32.199)" fill="#fff"/>
        <path id="Path_28998" data-name="Path 28998" d="M366.992,370v1.825H359.37V362h7.444v1.825h-5.18v2.134h4.575v1.778h-4.575v2.276Z" transform="translate(-235.966 32.199)" fill="#fff"/>
        <path id="Path_28999" data-name="Path 28999" d="M373.6,371.827l-1.92-2.714h-2.1v2.738H367.31V362h4.255a5.571,5.571,0,0,1,2.276.427,3.378,3.378,0,0,1,0,6.247l2.2,3.165Zm-.581-7.539a2.371,2.371,0,0,0-1.553-.45h-1.861v3.437h1.861a2.371,2.371,0,0,0,1.553-.45,1.577,1.577,0,0,0,.533-1.268,1.553,1.553,0,0,0-.533-1.268Z" transform="translate(-234.495 32.199)" fill="#fff"/>
        <rect id="Rectangle_2363" data-name="Rectangle 2363" width="66.437" height="65.085" transform="translate(19.736 81.419)" fill="rgba(215,232,247,0.47)"/>
        <path id="Path_29000" data-name="Path 29000" d="M271.951,98.155h14.473l40.419-.095,138.918-.13h.3V163.3h0v.308h-.308L271.891,163.5h-.2v-.3c0-20.435.083-36.745.119-47.91v.166c0,11.166.071,27.4.119,47.792l-.213-.213,193.858-.095-.308.308h0v-65.1l.308.3-138.681-.13-40.5-.095H272.709Z" transform="translate(-252.214 -16.736)" fill="#dfedf9"/>
        <path id="Path_29001" data-name="Path 29001" d="M312.577,124.62,310.42,135.2l7.029-.154Z" transform="translate(-245.037 -11.79)" fill="#0091ff"/>
        <g id="Group_1285" data-name="Group 1285" transform="translate(65.383 112.83)" opacity="0.3">
          <path id="Path_29002" data-name="Path 29002" d="M312.577,124.62,310.42,135.2l7.029-.154Z" transform="translate(-310.42 -124.62)"/>
        </g>
        <path id="Path_29003" data-name="Path 29003" d="M287.582,124.91l2.157,10.585-7.029-.166Z" transform="translate(-250.172 -11.736)" fill="#0091ff"/>
        <g id="Group_1286" data-name="Group 1286" transform="translate(32.538 113.174)" opacity="0.3">
          <path id="Path_29004" data-name="Path 29004" d="M287.582,124.91l2.157,10.585-7.029-.166Z" transform="translate(-282.71 -124.91)"/>
        </g>
        <path id="Path_29005" data-name="Path 29005" d="M302.3,130.713h0a.889.889,0,0,1-.889-.842l-1.019-24.8a.877.877,0,0,1,.889-.925h1.185a.889.889,0,0,1,.889.889l-.213,24.8a.889.889,0,0,1-.842.877Z" transform="translate(-246.896 -15.584)" fill="#844031"/>
        <rect id="Rectangle_2364" data-name="Rectangle 2364" width="2.928" height="2.157" transform="translate(53.601 91.731)" fill="#0091ff"/>
        <path id="Path_29006" data-name="Path 29006" d="M303.79,130.607h0a.877.877,0,0,1-.533-1.1l7.55-23.635a.877.877,0,0,1,1.185-.569l1.185.427a.889.889,0,0,1,.522,1.185l-8.712,23.208a.877.877,0,0,1-1.2.486Z" transform="translate(-246.373 -15.383)" fill="#844031"/>
        <rect id="Rectangle_2365" data-name="Rectangle 2365" width="2.157" height="2.928" transform="translate(62.989 94.634) rotate(-69.92)" fill="#0091ff"/>
        <path id="Path_29007" data-name="Path 29007" d="M315.16,121.873a5.844,5.844,0,0,0-4.077-2.584,8.3,8.3,0,0,0-4.741.842c-1.185.545-2.371,1.292-3.556,1.043a6.9,6.9,0,0,1-2.371-1.328,8.3,8.3,0,0,0-6.318-1.28,9.08,9.08,0,0,0-5.476,3.781,6.057,6.057,0,0,0-1.067,4.99l28-.107a6.021,6.021,0,0,0-.391-5.358Z" transform="translate(-249.303 -12.943)" fill="#fff"/>
        <path id="Path_29008" data-name="Path 29008" d="M314.247,126.385a5.927,5.927,0,0,0,0-1.375,5.1,5.1,0,0,0-1.576-3.307,4,4,0,0,0-2.311-1.007,6.472,6.472,0,0,0-2.9.4c-.984.332-1.908.972-3,1.411a4.231,4.231,0,0,1-1.778.32,4.741,4.741,0,0,1-1.778-.486c-1.126-.533-2.074-1.28-3.094-1.8a5.927,5.927,0,0,0-3.141-.7,6.353,6.353,0,0,0-4.741,2.584,8.3,8.3,0,0,0-1.482,3.426c-.083.439-.107.782-.13,1.019a1.379,1.379,0,0,1,0,.356,5.843,5.843,0,0,1,.071-1.387,8.1,8.1,0,0,1,1.434-3.556,6.507,6.507,0,0,1,4.836-2.7,6.235,6.235,0,0,1,3.272.711c1.043.533,1.991,1.268,3.082,1.79a3.888,3.888,0,0,0,3.354.166c1.055-.427,1.991-1.055,3.023-1.4a6.685,6.685,0,0,1,3-.4,4.315,4.315,0,0,1,2.371,1.09,5.061,5.061,0,0,1,1.553,3.426,3.757,3.757,0,0,1-.059,1.422Z" transform="translate(-249.137 -12.726)" fill="#263238"/>
        <path id="Path_29009" data-name="Path 29009" d="M312.718,126.417a7.987,7.987,0,0,0,0-1.185,3.757,3.757,0,0,0-1.541-2.762,3.011,3.011,0,0,0-2.11-.51,6.424,6.424,0,0,0-2.371,1.008,10.254,10.254,0,0,1-2.62,1.328,4.978,4.978,0,0,1-3.141-.308c-2.015-.794-3.639-2.145-5.452-2.5a4.741,4.741,0,0,0-4.409,1.4,6.14,6.14,0,0,0-1.505,2.88c-.166.759-.142,1.185-.178,1.185a4.988,4.988,0,0,1,.083-1.185,5.926,5.926,0,0,1,1.482-2.975,4.872,4.872,0,0,1,4.575-1.505c1.885.367,3.556,1.731,5.5,2.5a4.836,4.836,0,0,0,2.987.3,10.158,10.158,0,0,0,2.56-1.28,6.566,6.566,0,0,1,2.454-1.019,3.082,3.082,0,0,1,2.24.569,3.829,3.829,0,0,1,1.541,2.9A3.164,3.164,0,0,1,312.718,126.417Z" transform="translate(-248.935 -12.426)" fill="#263238"/>
        <path id="Path_29010" data-name="Path 29010" d="M310.792,126.115a2.015,2.015,0,0,0-.154-.936,1.98,1.98,0,0,0-.711-.818,2.051,2.051,0,0,0-1.41-.213c-1.114.166-2.1,1.185-3.556,1.671a6.638,6.638,0,0,1-4.741-.64,25.766,25.766,0,0,0-4.409-1.885,4.528,4.528,0,0,0-3.7.486,3.817,3.817,0,0,0-1.482,2.074,5.811,5.811,0,0,0-.142.948,2.443,2.443,0,0,1,0-.972,3.793,3.793,0,0,1,1.482-2.193,4.611,4.611,0,0,1,3.852-.557,23.79,23.79,0,0,1,4.445,1.873,6.5,6.5,0,0,0,4.575.652c1.363-.462,2.371-1.482,3.556-1.624a2.122,2.122,0,0,1,1.505.261,2.039,2.039,0,0,1,.735.9,1.458,1.458,0,0,1,.107.723A.842.842,0,0,1,310.792,126.115Z" transform="translate(-248.74 -12.112)" fill="#263238"/>
        <path id="Path_29011" data-name="Path 29011" d="M286.78,124.869c0,.723,5.144,27.144,5.144,27.144l20.15-.332,4.86-27.061Z" transform="translate(-249.418 -11.79)" fill="#0091ff"/>
        <path id="Path_29012" data-name="Path 29012" d="M286.78,124.88h2.264l6.33-.083,21.585-.237h.19l-.083.178-3.117,6.2q-1.351,2.667-2.62,5.2v.059H292.446L286.9,125l5.713,11.118-.083-.059h18.8l-.107.059,2.62-5.192c1.067-2.122,2.11-4.208,3.117-6.2l.119.178Z" transform="translate(-249.418 -11.801)" fill="#263238"/>
        <g id="Group_1287" data-name="Group 1287" transform="translate(43.537 113.778)" opacity="0.3">
          <path id="Path_29013" data-name="Path 29013" d="M291.99,135.874l.51,1.1h18.289l4.718-11.557-5.263,10.454Z" transform="translate(-291.99 -125.42)"/>
        </g>
        <path id="Path_29014" data-name="Path 29014" d="M304.112,143.638a49.2,49.2,0,0,1-7.112,0,54.113,54.113,0,0,1,7.112,0Z" transform="translate(-247.524 -8.288)" fill="#fff"/>
        <path id="Path_29015" data-name="Path 29015" d="M302.658,140.445a1.971,1.971,0,0,0-.119-.557,2.252,2.252,0,1,0-2.975,2.643,2.216,2.216,0,0,0,2.122-.3,2.287,2.287,0,0,0,.853-1.185c.095-.344.095-.557.119-.557a1.566,1.566,0,0,1,0,.581,2.372,2.372,0,0,1-3.141,1.719,2.43,2.43,0,0,1,0-4.6,2.371,2.371,0,0,1,2.3.379,2.276,2.276,0,0,1,.842,1.339,1.553,1.553,0,0,1,0,.533Z" transform="translate(-247.363 -9.302)" fill="#fff"/>
        <path id="Path_29016" data-name="Path 29016" d="M292.148,119.621a.818.818,0,0,0,.522-.522,1.185,1.185,0,0,0,0-.865,4.03,4.03,0,0,0-.664-1,3.437,3.437,0,0,1,.462-4.741c.474-.439,1.055-.877,1.126-1.529a2.288,2.288,0,0,0-.806-1.7,6.46,6.46,0,0,1-1.185-1.517,3.994,3.994,0,0,1-.13-3.2,3.876,3.876,0,0,1,1.339-1.707,2.371,2.371,0,0,1,.711-.379,4.681,4.681,0,0,0-.652.45,3.935,3.935,0,0,0-1.185,1.7,3.852,3.852,0,0,0,.166,3.034,6.815,6.815,0,0,0,1.185,1.47,2.454,2.454,0,0,1,.877,1.873,2.987,2.987,0,0,1-1.185,1.683,3.248,3.248,0,0,0-.5,4.457,3.983,3.983,0,0,1,.664,1.055,1.292,1.292,0,0,1,0,.948C292.575,119.693,292.148,119.693,292.148,119.621Z" transform="translate(-248.599 -15.895)" fill="#263238"/>
        <path id="Path_29017" data-name="Path 29017" d="M294.818,119.621a.818.818,0,0,0,.522-.522,1.185,1.185,0,0,0,0-.865,4.03,4.03,0,0,0-.664-1,3.437,3.437,0,0,1,.462-4.741c.474-.439,1.055-.877,1.126-1.529a2.288,2.288,0,0,0-.806-1.7,6.461,6.461,0,0,1-1.185-1.517,3.994,3.994,0,0,1-.13-3.2,3.876,3.876,0,0,1,1.339-1.707,2.371,2.371,0,0,1,.711-.379,4.053,4.053,0,0,0-1.837,2.145,3.8,3.8,0,0,0,.166,3.034,6.816,6.816,0,0,0,1.185,1.47,2.454,2.454,0,0,1,.877,1.873,2.987,2.987,0,0,1-1.185,1.683,3.3,3.3,0,0,0-1.007,1.505,3.236,3.236,0,0,0,.51,2.951,3.982,3.982,0,0,1,.664,1.055,1.292,1.292,0,0,1,0,.948C295.209,119.693,294.783,119.693,294.818,119.621Z" transform="translate(-248.104 -15.895)" fill="#263238"/>
        <rect id="Rectangle_2366" data-name="Rectangle 2366" width="38.463" height="5.239" rx="2.62" transform="translate(99.057 93.094)" fill="#0091ff"/>
        <rect id="Rectangle_2367" data-name="Rectangle 2367" width="101.451" height="3.354" rx="1.677" transform="translate(99.057 106.014)" fill="#ecf4fb"/>
        <rect id="Rectangle_2368" data-name="Rectangle 2368" width="101.451" height="3.354" rx="1.677" transform="translate(99.057 112.735)" fill="#ecf4fb"/>
        <path id="Path_29018" data-name="Path 29018" d="M402.493,141.752h-1.92v1.885H399.15v-1.885h-1.92v-1.339h1.92V138.54h1.422v1.873h1.92Z" transform="translate(-228.95 -9.211)" fill="#0091ff"/>
        <path id="Path_29019" data-name="Path 29019" d="M413.7,143.726v1.446h-5.832v-1.185l2.975-2.821a2.963,2.963,0,0,0,.64-.77,1.517,1.517,0,0,0,.166-.652.853.853,0,0,0-.32-.711,1.422,1.422,0,0,0-.913-.249,2.027,2.027,0,0,0-.913.2,1.683,1.683,0,0,0-.688.569l-1.3-.83a2.952,2.952,0,0,1,1.245-1.055,4.089,4.089,0,0,1,1.825-.379,3.959,3.959,0,0,1,1.505.273,2.37,2.37,0,0,1,1,.794,2,2,0,0,1,.367,1.185,2.679,2.679,0,0,1-.273,1.185,4.325,4.325,0,0,1-1.019,1.256l-1.778,1.683Z" transform="translate(-227.045 -9.443)" fill="#0091ff"/>
        <path id="Path_29020" data-name="Path 29020" d="M418.74,140.74h3.129v1.387H418.74Z" transform="translate(-224.964 -8.803)" fill="#0091ff"/>
        <path id="Path_29021" data-name="Path 29021" d="M430.448,151.129v-1.3c0-.889,0-2.1-.059-3.639,0-3.177-.071-7.669-.119-13.2l.225.225-38.321.083.308-.308h0v18.135l-.3-.3,27.44.142,7.977.071h2.9a4.742,4.742,0,0,1-.687,0h-2.086l-7.906.071-27.641.142h-.3v-18.42h0l.308-.308,38.321.083h.225v.225c0,5.595-.083,10.134-.119,13.335,0,1.517,0,2.726-.059,3.556v.925a.794.794,0,0,1-.119.486Z" transform="translate(-229.94 -10.326)" fill="#263238"/>
        <path id="Path_29022" data-name="Path 29022" d="M346.507,144.994a4.066,4.066,0,0,1-2.43,1.019v1.576h-1.411v-1.529a7.706,7.706,0,0,1-1.979-.367,4.9,4.9,0,0,1-1.517-.759l.77-1.719a5.156,5.156,0,0,0,1.245.664,5.831,5.831,0,0,0,1.482.332v-2.371a9.484,9.484,0,0,1-1.683-.533,2.916,2.916,0,0,1-1.185-.865,2.37,2.37,0,0,1-.462-1.505,2.7,2.7,0,0,1,.853-2,4.03,4.03,0,0,1,2.454-1.019V134.35h1.411v1.529a6.2,6.2,0,0,1,2.845.865l-.7,1.731a5.571,5.571,0,0,0-2.145-.735v2.371a9.577,9.577,0,0,1,1.659.51,2.927,2.927,0,0,1,1.185.853,2.371,2.371,0,0,1,.462,1.505,2.667,2.667,0,0,1-.853,2.015Zm-4.611-5.571a2.122,2.122,0,0,0,.77.379v-1.991a1.612,1.612,0,0,0-.794.391.948.948,0,0,0-.249.64.735.735,0,0,0,.273.581Zm2.928,4.374a.794.794,0,0,0,.261-.6.723.723,0,0,0-.261-.581,2.371,2.371,0,0,0-.747-.391v1.944a1.577,1.577,0,0,0,.747-.367Z" transform="translate(-239.71 -9.987)" fill="#d9e8f5"/>
        <path id="Path_29023" data-name="Path 29023" d="M355.479,144.994a4.066,4.066,0,0,1-2.442,1.019v1.576h-1.4v-1.529a7.611,7.611,0,0,1-1.979-.367,5.11,5.11,0,0,1-1.529-.759l.782-1.719a5.156,5.156,0,0,0,1.185.664,5.831,5.831,0,0,0,1.482.332v-2.371a9.921,9.921,0,0,1-1.7-.533,2.952,2.952,0,0,1-1.185-.865,2.371,2.371,0,0,1-.462-1.505,2.7,2.7,0,0,1,.853-2,4.03,4.03,0,0,1,2.454-1.019V134.35h1.4v1.529a6.2,6.2,0,0,1,2.857.865l-.7,1.731a5.559,5.559,0,0,0-2.157-.735v2.371a9.412,9.412,0,0,1,1.671.51,3.011,3.011,0,0,1,1.185.853,2.371,2.371,0,0,1,.462,1.505A2.667,2.667,0,0,1,355.479,144.994Zm-4.611-5.571a2.122,2.122,0,0,0,.771.379v-1.991a1.612,1.612,0,0,0-.794.391.948.948,0,0,0-.249.64.7.7,0,0,0,.273.581ZM353.8,143.8a.8.8,0,0,0,.261-.6.759.759,0,0,0-.261-.581,2.37,2.37,0,0,0-.759-.391v1.944A1.564,1.564,0,0,0,353.8,143.8Z" transform="translate(-238.049 -9.987)" fill="#d9e8f5"/>
        <path id="Path_29024" data-name="Path 29024" d="M328.048,163.749c-.178,0-.308-14.615-.308-32.643s.13-32.655.308-32.655.308,14.615.308,32.655S328.238,163.749,328.048,163.749Z" transform="translate(-241.828 -16.64)" fill="#dfedf9"/>
        <rect id="Rectangle_2369" data-name="Rectangle 2369" width="66.437" height="65.085" transform="translate(19.736 153.225)" fill="rgba(215,232,247,0.47)"/>
        <path id="Path_29025" data-name="Path 29025" d="M271.943,158.735h14.52l40.419-.083L465.8,158.51h.3v65.37h0v.308h-.308l-193.858-.107h-.2v-.2c0-20.435.083-36.745.119-47.91v.154c0,11.166.071,27.416.119,47.792l-.213-.2,193.858-.107-.308.308h0v-65.18l.308.3L326.93,158.9l-40.5-.083H272.749Z" transform="translate(-252.207 -5.51)" fill="#dfedf9"/>
        <rect id="Rectangle_2370" data-name="Rectangle 2370" width="38.463" height="5.239" rx="2.62" transform="translate(99.057 164.901)" fill="#0091ff"/>
        <rect id="Rectangle_2371" data-name="Rectangle 2371" width="101.451" height="3.354" rx="1.677" transform="translate(99.057 177.832)" fill="#ecf4fb"/>
        <rect id="Rectangle_2372" data-name="Rectangle 2372" width="101.451" height="3.354" rx="1.677" transform="translate(99.057 184.541)" fill="#ecf4fb"/>
        <path id="Path_29026" data-name="Path 29026" d="M402.493,202.344h-1.92v1.873H399.15v-1.873h-1.92v-1.351h1.92V199.12h1.422v1.873h1.92Z" transform="translate(-228.95 2.015)" fill="#0091ff"/>
        <path id="Path_29027" data-name="Path 29027" d="M410.9,198v7.728h-1.79v-6.294H407.57V198Z" transform="translate(-227.034 1.808)" fill="#0091ff"/>
        <path id="Path_29028" data-name="Path 29028" d="M416.9,201.32h3.129v1.387H416.9Z" transform="translate(-225.305 2.423)" fill="#0091ff"/>
        <path id="Path_29029" data-name="Path 29029" d="M430.448,211.683v-1.3c0-.889,0-2.1-.059-3.639,0-3.177-.071-7.669-.119-13.2l.225.225-38.321.083.308-.308h0v18.135l-.3-.3,27.44.142,7.977.083h2.9a4.738,4.738,0,0,1-.687,0h-2.086l-7.906.083-27.641.13h-.3V193.548h0l.308-.308,38.321.083h.225v.225c0,5.595-.083,10.134-.119,13.347,0,1.517,0,2.714-.059,3.556v.925a.8.8,0,0,1-.119.308Z" transform="translate(-229.94 0.926)" fill="#263238"/>
        <path id="Path_29030" data-name="Path 29030" d="M346.507,205.561a4.066,4.066,0,0,1-2.43,1.019v1.576h-1.411v-1.529a7.231,7.231,0,0,1-1.98-.367,4.9,4.9,0,0,1-1.517-.759l.77-1.719a4.742,4.742,0,0,0,1.245.664,5.854,5.854,0,0,0,1.482.344V202.42a11.853,11.853,0,0,1-1.683-.533,3.022,3.022,0,0,1-1.185-.865,2.371,2.371,0,0,1-.462-1.517,2.7,2.7,0,0,1,.853-2,4.03,4.03,0,0,1,2.454-1.019V195h1.411v1.541a6.2,6.2,0,0,1,2.845.853l-.7,1.731a5.571,5.571,0,0,0-2.145-.735v2.371a10.736,10.736,0,0,1,1.659.51,2.952,2.952,0,0,1,1.185.865,2.3,2.3,0,0,1,.462,1.493,2.655,2.655,0,0,1-.853,1.932ZM341.9,199.99a1.944,1.944,0,0,0,.77.379v-1.991a1.529,1.529,0,0,0-.794.4.9.9,0,0,0-.249.64.711.711,0,0,0,.273.569Zm2.928,4.374a.794.794,0,0,0,.261-.6.723.723,0,0,0-.261-.581,2.715,2.715,0,0,0-.747-.391v1.944a1.47,1.47,0,0,0,.747-.367Z" transform="translate(-239.71 1.252)" fill="#d9e8f5"/>
        <path id="Path_29031" data-name="Path 29031" d="M328.048,224.334c-.178,0-.308-14.615-.308-32.643s.154-32.691.308-32.691.308,14.615.308,32.655S328.238,224.334,328.048,224.334Z" transform="translate(-241.828 -5.419)" fill="#dfedf9"/>
        <rect id="Rectangle_2373" data-name="Rectangle 2373" width="66.437" height="65.085" transform="translate(19.736 224.865)" fill="rgba(215,232,247,0.47)"/>
        <path id="Path_29032" data-name="Path 29032" d="M271.943,219.175h14.52l40.419-.083L465.8,218.95h.3v65.37h0v.308h-.308l-193.858-.107h-.2v-.32c0-20.423.083-36.745.119-47.91v.178c0,11.166.071,27.4.119,47.78l-.213-.2,193.858-.107-.308.308h0V219.175l.308.3-138.681-.142-40.5-.083H272.749Z" transform="translate(-252.207 5.69)" fill="#dfedf9"/>
        <rect id="Rectangle_2374" data-name="Rectangle 2374" width="38.463" height="5.239" rx="2.62" transform="translate(99.057 236.541)" fill="#0091ff"/>
        <rect id="Rectangle_2375" data-name="Rectangle 2375" width="101.451" height="3.354" rx="1.677" transform="translate(99.057 249.461)" fill="#ecf4fb"/>
        <rect id="Rectangle_2376" data-name="Rectangle 2376" width="101.451" height="3.354" rx="1.677" transform="translate(99.057 256.17)" fill="#ecf4fb"/>
        <path id="Path_29033" data-name="Path 29033" d="M402.493,262.774h-1.92v1.873H399.15v-1.873h-1.92v-1.339h1.92V259.55h1.422v1.885h1.92Z" transform="translate(-228.95 13.214)" fill="#0091ff"/>
        <path id="Path_29034" data-name="Path 29034" d="M410.9,258.44v7.776h-1.79v-6.294H407.57v-1.434Z" transform="translate(-227.034 13.008)" fill="#0091ff"/>
        <path id="Path_29035" data-name="Path 29035" d="M416.9,261.76h3.129v1.375H416.9Z" transform="translate(-225.305 13.623)" fill="#0091ff"/>
        <path id="Path_29036" data-name="Path 29036" d="M430.449,272.114v-1.3c0-.877,0-2.1-.059-3.639,0-3.165-.071-7.669-.119-13.193l.225.225-38.321.083.308-.308h0V272.09l-.3-.284,27.44.13,7.977.083h2.9a4.742,4.742,0,0,1-.687,0h-2.086l-7.906.083-27.641.142h-.3V254.061h0c-.071,0,.581-.593.308-.32l38.321.083h.225v.237c0,5.583-.083,10.134-.119,13.335,0,1.517,0,2.714-.059,3.556v.913C430.473,272.019,430.461,272.125,430.449,272.114Z" transform="translate(-229.941 12.124)" fill="#263238"/>
        <path id="Path_29037" data-name="Path 29037" d="M346.507,266.014a4.137,4.137,0,0,1-2.43,1.019v1.576h-1.411v-1.541a7.232,7.232,0,0,1-1.98-.367,4.646,4.646,0,0,1-1.517-.759l.77-1.707a5.131,5.131,0,0,0,1.245.652,5.383,5.383,0,0,0,1.482.344v-2.371a11.861,11.861,0,0,1-1.683-.533,3.022,3.022,0,0,1-1.185-.865,2.371,2.371,0,0,1-.462-1.517,2.714,2.714,0,0,1,.853-2,4.1,4.1,0,0,1,2.454-1.019V255.37h1.411V256.9a6.2,6.2,0,0,1,2.845.853l-.7,1.73a5.548,5.548,0,0,0-2.145-.723v2.371a10.734,10.734,0,0,1,1.659.51,3.07,3.07,0,0,1,1.185.865A2.3,2.3,0,0,1,347.36,264,2.679,2.679,0,0,1,346.507,266.014Zm-4.611-5.583a2.122,2.122,0,0,0,.77.391v-2a1.624,1.624,0,0,0-.794.4.9.9,0,0,0-.249.64.7.7,0,0,0,.273.569Zm2.928,4.374a.794.794,0,0,0,.261-.6.7.7,0,0,0-.261-.569,2.193,2.193,0,0,0-.747-.391v1.932a1.387,1.387,0,0,0,.747-.367Z" transform="translate(-239.71 12.439)" fill="#d9e8f5"/>
        <path id="Path_29038" data-name="Path 29038" d="M354.657,266.014a4.1,4.1,0,0,1-2.43,1.019v1.576h-1.411v-1.541a7.314,7.314,0,0,1-1.979-.367,4.646,4.646,0,0,1-1.517-.759l.77-1.707a5.015,5.015,0,0,0,1.256.652,5.312,5.312,0,0,0,1.47.344v-2.371a12.392,12.392,0,0,1-1.683-.533,2.987,2.987,0,0,1-1.185-.865,2.371,2.371,0,0,1-.474-1.517,2.715,2.715,0,0,1,.853-2,4.1,4.1,0,0,1,2.454-1.019V255.37h1.411V256.9a6.294,6.294,0,0,1,2.857.853l-.711,1.731a5.548,5.548,0,0,0-2.145-.723v2.371a10.733,10.733,0,0,1,1.659.51,2.986,2.986,0,0,1,1.185.865A2.3,2.3,0,0,1,355.5,264a2.679,2.679,0,0,1-.841,2.015Zm-4.611-5.583a2.216,2.216,0,0,0,.77.391v-2a1.529,1.529,0,0,0-.782.4.912.912,0,0,0-.261.64A.7.7,0,0,0,350.046,260.431Zm2.94,4.374a.818.818,0,0,0,.249-.6.7.7,0,0,0-.261-.569,2.087,2.087,0,0,0-.747-.391v1.932a1.422,1.422,0,0,0,.759-.367Z" transform="translate(-238.199 12.439)" fill="#d9e8f5"/>
        <path id="Path_29039" data-name="Path 29039" d="M328.048,284.769c-.178,0-.308-14.627-.308-32.655s.13-32.643.308-32.643.308,14.615.308,32.643S328.238,284.769,328.048,284.769Z" transform="translate(-241.828 5.787)" fill="#dfedf9"/>
        <path id="Path_29040" data-name="Path 29040" d="M288.92,178.35l2.465,32.774a1.979,1.979,0,0,0,1.944,1.825l13.323.107a1.979,1.979,0,0,0,1.979-1.8l2.7-32.537Z" transform="translate(-249.021 -1.833)" fill="#0091ff"/>
        <g id="Group_1288" data-name="Group 1288" transform="translate(40.823 190.586)" opacity="0.3">
          <path id="Path_29041" data-name="Path 29041" d="M310.028,190.493a188.72,188.72,0,0,1-20.328-.273l.64,9.862s11.853,2.027,18.965-.45Z" transform="translate(-289.7 -190.22)"/>
        </g>
        <g id="Group_1289" data-name="Group 1289" transform="translate(39.97 177.406)" opacity="0.3">
          <path id="Path_29042" data-name="Path 29042" d="M311.169,180.368a31.731,31.731,0,0,1-14.52,2.169c-6.448-.4-7.586-1.968-7.586-1.968l-.083-1.47h22.3Z" transform="translate(-288.98 -179.1)"/>
        </g>
        <path id="Path_29043" data-name="Path 29043" d="M312.491,177.227l.522,2.264s-2.548,2.11-12.967,1.968c-9.328-.119-11.592-1.849-11.592-1.849l-.723-.616.64-2.134Z" transform="translate(-249.242 -2.11)" fill="#e0e0e0"/>
        <path id="Path_29044" data-name="Path 29044" d="M312.489,177.211h-6.982l-17.151-.237h.071l-.628,2.134v-.083l.759.64a5.086,5.086,0,0,0,.925.439l.486.166.5.154c.652.178,1.316.32,1.979.439a34.68,34.68,0,0,0,3.888.462,65.96,65.96,0,0,0,7.112.13,36.566,36.566,0,0,0,5.737-.593,17.779,17.779,0,0,0,2.217-.557,6.376,6.376,0,0,0,1.636-.747h0l-.356-1.671-.095-.439v-.154a.766.766,0,0,1,0,.142l.095.439c.095.379.237.948.4,1.671h0a6.472,6.472,0,0,1-1.648.77,17.594,17.594,0,0,1-2.217.581,36.68,36.68,0,0,1-5.749.616,66.051,66.051,0,0,1-7.112-.107,35.213,35.213,0,0,1-3.9-.462,20.265,20.265,0,0,1-2-.45,1.968,1.968,0,0,1-.5-.142,3.392,3.392,0,0,1-.486-.178,4.421,4.421,0,0,1-.96-.45l-.77-.64h0c.225-.735.439-1.458.64-2.134h0l17.187.3,5.1.095H312.5Z" transform="translate(-249.24 -2.093)" fill="#263238"/>
        <path id="Path_29045" data-name="Path 29045" d="M288.25,177.3c0,1.09,5.358,1.873,12.066,2.051,4.575.119,11.26-.759,12.078-1.908.64-.877-5.393-2-12.055-2.051S288.262,176.232,288.25,177.3Z" transform="translate(-249.146 -2.382)" fill="#fff"/>
        <path id="Path_29046" data-name="Path 29046" d="M288.251,177.308a.536.536,0,0,1,0-.13.7.7,0,0,1,.237-.3,4.4,4.4,0,0,1,1.339-.581,29.481,29.481,0,0,1,5.3-.794,68.655,68.655,0,0,1,7.942-.095c1.505.083,3.07.2,4.741.427.806.107,1.624.237,2.454.427a10.038,10.038,0,0,1,1.185.332,4.338,4.338,0,0,1,.6.249l.142.083.142.095a.617.617,0,0,1,.119.13.3.3,0,0,1,0,.2.356.356,0,0,1-.083.178l-.13.13a2.228,2.228,0,0,1-.273.19,3.747,3.747,0,0,1-.593.261,9.56,9.56,0,0,1-1.185.367c-.83.2-1.648.344-2.454.474-1.612.225-3.177.367-4.67.427a42.259,42.259,0,0,1-4.255,0c-1.328,0-2.572-.142-3.7-.249a31.428,31.428,0,0,1-5.286-.818,4.007,4.007,0,0,1-1.339-.581.629.629,0,0,1-.237-.3.5.5,0,0,1,0-.119v.119a.593.593,0,0,0,.237.273,4.337,4.337,0,0,0,1.339.545,32,32,0,0,0,5.287.782c1.126.095,2.371.166,3.686.213a42.07,42.07,0,0,0,4.243,0c1.494-.071,3.058-.2,4.67-.439.794-.119,1.612-.273,2.43-.462a10.663,10.663,0,0,0,1.185-.367,5.113,5.113,0,0,0,.581-.261,1.889,1.889,0,0,0,.249-.178.415.415,0,0,0,.166-.2.261.261,0,0,0-.119-.213l-.261-.166a4.973,4.973,0,0,0-.581-.237,10.868,10.868,0,0,0-1.185-.32c-.818-.19-1.636-.32-2.442-.427-1.6-.225-3.165-.356-4.658-.427a69.412,69.412,0,0,0-7.942.059,29.145,29.145,0,0,0-5.286.747,4.41,4.41,0,0,0-1.328.545.831.831,0,0,0-.249.273C288.262,177.308,288.262,177.308,288.251,177.308Z" transform="translate(-249.146 -2.391)" fill="#263238"/>
        <path id="Path_29047" data-name="Path 29047" d="M306.378,175.423l.284,1.268s-1.434,1.3-7.29,1.114-6.507-1.043-6.507-1.043l-.166-.2.119-1.351Z" transform="translate(-248.321 -2.415)" fill="#e0e0e0"/>
        <path id="Path_29048" data-name="Path 29048" d="M306.375,175.425H302.44l-9.637-.13.083-.059c0,.427-.083.877-.119,1.339h0l.13.142a.285.285,0,0,0,.119.119,3.721,3.721,0,0,0,1.067.391c.367.095.747.166,1.114.225.735.107,1.47.178,2.181.237a38.248,38.248,0,0,0,3.947.119,19.058,19.058,0,0,0,3.212-.308,8.063,8.063,0,0,0,1.185-.332,3.035,3.035,0,0,0,.9-.439h0l-.2-.948v-.237a.529.529,0,0,1,0-.095.366.366,0,0,1,0,.083l.059.237c.059.225.13.533.237.948h0a3.653,3.653,0,0,1-.913.474,9.646,9.646,0,0,1-1.185.344,19.075,19.075,0,0,1-3.224.344c-1.185,0-2.548,0-3.971-.107-.711-.059-1.446-.13-2.193-.237a4.864,4.864,0,0,1-1.126-.225,3.757,3.757,0,0,1-1.114-.415.58.58,0,0,1-.154-.142l-.119-.142h0l.119-1.339V175.2h.071l9.672.178,2.857.071h1.031Z" transform="translate(-248.317 -2.417)" fill="#263238"/>
        <path id="Path_29049" data-name="Path 29049" d="M292.79,175.469c0,.616,3.034,1.185,6.78,1.185s6.792-.462,6.792-1.079-3.034-1.185-6.78-1.185S292.79,174.852,292.79,175.469Z" transform="translate(-248.304 -2.567)" fill="#fff"/>
        <path id="Path_29050" data-name="Path 29050" d="M292.791,175.477a.342.342,0,0,1,.142-.237,2.121,2.121,0,0,1,.747-.332,16.394,16.394,0,0,1,2.987-.462,38.844,38.844,0,0,1,4.48-.059,20.68,20.68,0,0,1,2.631.213c.45.071.913.142,1.387.249a5.1,5.1,0,0,1,.687.213,1.743,1.743,0,0,1,.332.166.439.439,0,0,1,.249.332.45.45,0,0,1-.249.344,1.386,1.386,0,0,1-.332.154,4.181,4.181,0,0,1-.7.2c-.462.107-.925.178-1.387.237-.913.107-1.8.154-2.643.178a35.154,35.154,0,0,1-4.469-.119,15.727,15.727,0,0,1-2.975-.486,2.55,2.55,0,0,1-.759-.344c-.154-.119-.142-.249-.13-.249a.308.308,0,0,0,.154.225,2.561,2.561,0,0,0,.747.308,17.547,17.547,0,0,0,2.975.45,40.7,40.7,0,0,0,4.457.083,22.917,22.917,0,0,0,2.631-.19,13.659,13.659,0,0,0,1.363-.237,4.385,4.385,0,0,0,.676-.19l.32-.154c.095,0,.178-.13.178-.213s-.083-.154-.178-.213a2.492,2.492,0,0,0-.308-.154c-.225-.083-.45-.142-.676-.2-.462-.107-.913-.178-1.375-.249-.9-.119-1.778-.178-2.62-.225a41.881,41.881,0,0,0-4.457,0,17,17,0,0,0-2.975.4,2.667,2.667,0,0,0-.759.308.32.32,0,0,0-.154.249Z" transform="translate(-248.305 -2.575)" fill="#263238"/>
        <path id="Path_29051" data-name="Path 29051" d="M297.63,177.373l-.32-14.65,1.849-.083.308,14.745C298.744,177.362,298.294,177.61,297.63,177.373Z" transform="translate(-247.467 -4.745)" fill="#fff"/>
        <path id="Path_29052" data-name="Path 29052" d="M297.636,177.368a1.98,1.98,0,0,0,.462.083,3.549,3.549,0,0,0,.581,0,4.067,4.067,0,0,1,.806-.059h0c-.083-2.667-.225-8.3-.356-14.686h0l.071.071-1.849.071.071-.071c.083,4.113.154,7.776.2,10.407v4.291a.332.332,0,0,0,0-.071V176.36c0-.735,0-1.79-.083-3.094-.071-2.643-.166-6.306-.261-10.443v-.071h.071l1.837-.083h.083v.119c.142,6.448.237,12.031.273,14.7h0a5.381,5.381,0,0,0-.794,0,3.43,3.43,0,0,1-.581,0,1.411,1.411,0,0,1-.344-.071Z" transform="translate(-247.472 -4.739)" fill="#263238"/>
        <path id="Path_29053" data-name="Path 29053" d="M298.514,162.72l.308,14.686-.687-.024-.415-14.65Z" transform="translate(-247.391 -4.73)" fill="#455a64"/>
        <path id="Path_29054" data-name="Path 29054" d="M297,174.94a17.257,17.257,0,0,0,1.814.119c1,.012,1.825-.13,1.825-.083a1.991,1.991,0,0,1-.522.13,7.849,7.849,0,0,1-1.3.095,7.276,7.276,0,0,1-1.292-.119,1.363,1.363,0,0,1-.522-.142Z" transform="translate(-247.524 -2.465)" fill="#263238"/>
        <path id="Path_29055" data-name="Path 29055" d="M308.189,179.915a3.555,3.555,0,0,1-.356-1.09,5.691,5.691,0,0,1-.213-1.114,3.557,3.557,0,0,1,.356,1.09,5.693,5.693,0,0,1,.213,1.114Z" transform="translate(-245.556 -1.952)" fill="#263238"/>
        <path id="Path_29056" data-name="Path 29056" d="M306.563,180.43a4.978,4.978,0,0,1-.367-1.114,4.743,4.743,0,0,1-.225-1.185,4.977,4.977,0,0,1,.367,1.114A4.124,4.124,0,0,1,306.563,180.43Z" transform="translate(-245.862 -1.874)" fill="#263238"/>
        <path id="Path_29057" data-name="Path 29057" d="M304.788,180.831a6.021,6.021,0,0,1-.32-1.185,5.833,5.833,0,0,1-.178-1.185,4.552,4.552,0,0,1,.32,1.185,4.361,4.361,0,0,1,.178,1.185Z" transform="translate(-246.173 -1.813)" fill="#263238"/>
        <path id="Path_29058" data-name="Path 29058" d="M302.7,181.051a10.172,10.172,0,0,1-.356-2.371,6.09,6.09,0,0,1,.249,1.185A5.7,5.7,0,0,1,302.7,181.051Z" transform="translate(-246.535 -1.772)" fill="#263238"/>
        <path id="Path_29059" data-name="Path 29059" d="M300.465,181.151a5.625,5.625,0,0,1,0-1.185,5.259,5.259,0,0,1,.119-1.185,5.633,5.633,0,0,1,0,1.185,5.386,5.386,0,0,1-.119,1.185Z" transform="translate(-246.888 -1.754)" fill="#263238"/>
        <path id="Path_29060" data-name="Path 29060" d="M298.687,181.1a3.982,3.982,0,0,1,0-1.185,4.741,4.741,0,0,1,.142-1.185,3.961,3.961,0,0,1,0,1.185,4.871,4.871,0,0,1-.142,1.185Z" transform="translate(-247.22 -1.763)" fill="#263238"/>
        <path id="Path_29061" data-name="Path 29061" d="M296.8,181.021a3.557,3.557,0,0,1,.071-1.185,3.877,3.877,0,0,1,.273-1.126,5.2,5.2,0,0,1-.13,1.185A5.927,5.927,0,0,1,296.8,181.021Z" transform="translate(-247.564 -1.767)" fill="#263238"/>
        <path id="Path_29062" data-name="Path 29062" d="M294.57,180.881a5.112,5.112,0,0,1,.249-1.185,5.19,5.19,0,0,1,.391-1.185,4.444,4.444,0,0,1-.249,1.185,5.193,5.193,0,0,1-.391,1.185Z" transform="translate(-247.975 -1.804)" fill="#263238"/>
        <path id="Path_29063" data-name="Path 29063" d="M292.54,180.731a5.654,5.654,0,0,1,.237-1.185,4.466,4.466,0,0,1,.379-1.185,5.487,5.487,0,0,1-.237,1.185,4.458,4.458,0,0,1-.379,1.185Z" transform="translate(-248.351 -1.832)" fill="#263238"/>
        <path id="Path_29064" data-name="Path 29064" d="M290.15,180.241a4.813,4.813,0,0,1,.3-1.114,4.907,4.907,0,0,1,.45-1.067A9.612,9.612,0,0,1,290.15,180.241Z" transform="translate(-248.794 -1.887)" fill="#263238"/>
        <path id="Path_29065" data-name="Path 29065" d="M288.36,179.534a3.864,3.864,0,0,1,.273-1,3.2,3.2,0,0,1,.4-.948,3.747,3.747,0,0,1-.273,1A3.2,3.2,0,0,1,288.36,179.534Z" transform="translate(-249.125 -1.974)" fill="#263238"/>
        <path id="Path_29066" data-name="Path 29066" d="M303.084,245.325a10.55,10.55,0,0,0,2.039-5.251,8.57,8.57,0,0,0-.806-4.978c-.059-.107-.119-.225-.237-.261a.474.474,0,0,0-.356,0,6.021,6.021,0,0,0-.64,10.431" transform="translate(-246.9 8.628)" fill="#455a64"/>
        <path id="Path_29067" data-name="Path 29067" d="M305.825,241.012a7.977,7.977,0,0,0,3.437-2.525,6.377,6.377,0,0,0,1.505-3.556.344.344,0,0,0,0-.261.367.367,0,0,0-.249-.107,4.552,4.552,0,0,0-4.646,6.389" transform="translate(-245.954 8.579)" fill="#455a64"/>
        <path id="Path_29068" data-name="Path 29068" d="M306.289,244.073a2.465,2.465,0,0,0-.818-2.371,3.686,3.686,0,0,0-2.371-.842,3.912,3.912,0,0,0-2.181.581,2.916,2.916,0,0,0-1.3,1.825,2.868,2.868,0,0,0,.913,2.608,3.9,3.9,0,0,0,2.643.972,3.212,3.212,0,0,0,2.216-.818,2.786,2.786,0,0,0,.948-1.968" transform="translate(-247.047 9.75)" fill="#0091ff"/>
        <path id="Path_29069" data-name="Path 29069" d="M312.29,246.579c3.283.581,6.543-3.058,7.325-5.417a.818.818,0,0,0,0-.759.782.782,0,0,0-.782-.178,7.622,7.622,0,0,0-4.3,2.1,7.811,7.811,0,0,0-2.217,4.255" transform="translate(-244.691 9.626)" fill="#455a64"/>
        <path id="Path_29070" data-name="Path 29070" d="M316.461,244.563a2.477,2.477,0,0,0-.818-2.371,3.627,3.627,0,0,0-2.371-.842,3.959,3.959,0,0,0-2.193.581,2.738,2.738,0,0,0-.391,4.433,3.829,3.829,0,0,0,2.643.96,3.177,3.177,0,0,0,2.217-.806,2.762,2.762,0,0,0,.96-1.979" transform="translate(-245.164 9.841)" fill="#0091ff"/>
        <path id="Path_29071" data-name="Path 29071" d="M296.212,240.242a2.465,2.465,0,0,0-.818-2.371,3.758,3.758,0,0,0-2.371-.842,4.031,4.031,0,0,0-2.181.593,2.714,2.714,0,0,0-.4,4.421,3.876,3.876,0,0,0,2.655.972,3.212,3.212,0,0,0,2.216-.818,2.786,2.786,0,0,0,.948-1.968" transform="translate(-248.917 9.041)" fill="#0091ff"/>
        <path id="Path_29072" data-name="Path 29072" d="M302.241,245.943a10.573,10.573,0,0,0-2.217-5.18,8.463,8.463,0,0,0-4.054-3,.5.5,0,0,0-.344,0,.427.427,0,0,0-.213.3,6.021,6.021,0,0,0,6.827,7.906" transform="translate(-247.881 9.171)" fill="#455a64"/>
        <path id="Path_29073" data-name="Path 29073" d="M292,243.075a16.264,16.264,0,0,1-1.731-2.371,5.512,5.512,0,0,1-.735-2.845.557.557,0,0,1,.154-.4.533.533,0,0,1,.427,0,9.091,9.091,0,0,1,7.041,7.906l.095.5a7.017,7.017,0,0,1-5.192.77,11.071,11.071,0,0,1-4.006-1.576,5.737,5.737,0,0,1-2.43-3.461A7.764,7.764,0,0,1,292,243.075Z" transform="translate(-249.633 9.112)" fill="#455a64"/>
        <path id="Path_29074" data-name="Path 29074" d="M308.561,240.211a11.735,11.735,0,0,1,5.808-2.951,8.3,8.3,0,0,1-7.3,9.234l-.13-.237a6.045,6.045,0,0,1,1.624-6.045Z" transform="translate(-245.727 9.083)" fill="#455a64"/>
        <path id="Path_29075" data-name="Path 29075" d="M324.242,243.6a36.033,36.033,0,0,1-6.578,13.3c-7.266,8.949-23.706,6.46-28.128-.545-1.719-2.679-6.247-12.659-6.247-12.659Z" transform="translate(-250.065 10.258)" fill="#fff"/>
        <path id="Path_29076" data-name="Path 29076" d="M324.285,243.615H312.468l-29.182.13.107-.178c1.328,2.9,2.738,5.927,4.243,8.949.391.782.794,1.553,1.185,2.371a11.853,11.853,0,0,0,1.375,2.145,12.115,12.115,0,0,0,3.888,3.094,21.063,21.063,0,0,0,9.1,2.371,20.447,20.447,0,0,0,8.416-1.387,15.278,15.278,0,0,0,6-4.326,35.557,35.557,0,0,0,5.358-9.411c.462-1.185.77-2.157.972-2.8l.284-1a25.627,25.627,0,0,1-1.185,3.829,35.558,35.558,0,0,1-5.31,9.483,15.409,15.409,0,0,1-6.069,4.409,20.435,20.435,0,0,1-8.5,1.422,21.075,21.075,0,0,1-9.21-2.371,12.363,12.363,0,0,1-3.959-3.153,13.193,13.193,0,0,1-1.411-2.181c-.4-.77-.806-1.553-1.185-2.371-1.517-3.034-2.916-6.045-4.255-8.949l-.071-.178H324.2Z" transform="translate(-250.107 10.243)" fill="#263238"/>
        <path id="Path_29077" data-name="Path 29077" d="M321.061,249.259c0,.071-7.859.119-17.554.119s-17.566,0-17.566-.119,7.859-.119,17.566-.119S321.061,249.187,321.061,249.259Z" transform="translate(-249.574 11.285)" fill="#0091ff"/>
        <path id="Path_29078" data-name="Path 29078" d="M321.855,248.41c0,.071-8.143.119-18.183.119s-18.183,0-18.183-.119,8.131-.13,18.183-.13S321.855,248.339,321.855,248.41Z" transform="translate(-249.657 11.125)" fill="#0091ff"/>
      </g>
      <g id="freepik--speech-bubble--inject-3" transform="translate(178.248 124.042)">
        <path id="Path_29079" data-name="Path 29079" d="M160.911,109.25h87a6.223,6.223,0,0,1,6.223,6.223v87a6.223,6.223,0,0,1-6.223,6.223h-64.8c-5.927,5.026-17.246,15.148-17.246,15.148l-.842-15.148h-4.113a6.223,6.223,0,0,1-6.211-6.223v-87a6.223,6.223,0,0,1,6.211-6.223Z" transform="translate(-154.464 -108.486)" fill="#fff"/>
        <path id="Path_29080" data-name="Path 29080" d="M160.949,109.25a8.712,8.712,0,0,0-1.991.379,6.282,6.282,0,0,0-3.888,4.137,17.1,17.1,0,0,0-.225,4.3c0,1.612,0,3.354,0,5.239v12.967c0,9.708,0,21.478.071,34.943v30.06a9.885,9.885,0,0,0,.237,2.857,5.927,5.927,0,0,0,3.829,3.983,8.154,8.154,0,0,0,2.916.308h3.343v.249c.273,4.741.557,9.9.853,15.16l-.474-.2,17.341-15.113.083-.071h65.334a5.927,5.927,0,0,0,5.3-4.433,9.483,9.483,0,0,0,.19-2.477v-84.8a19.368,19.368,0,0,0-.059-2.051,5.833,5.833,0,0,0-.593-1.885,5.927,5.927,0,0,0-2.762-2.679,6.01,6.01,0,0,0-1.861-.545H220.523l-43.619-.095h0l43.619-.095h28.127a6.543,6.543,0,0,1,5.026,3.485,6.258,6.258,0,0,1,.64,2.051,14.317,14.317,0,0,1,.071,2.122q0,4.2,0,8.522v76.144a9.993,9.993,0,0,1-.213,2.631,6.354,6.354,0,0,1-1.185,2.371,6.46,6.46,0,0,1-4.658,2.489H183.15l.2-.071c-5.927,5.227-11.853,10.336-17.258,15.136l-.439.391v-.593c-.284-5.263-.569-10.407-.83-15.148l.273.261h-3.082a8.914,8.914,0,0,1-3.094-.344,6.543,6.543,0,0,1-4.16-4.35,10.371,10.371,0,0,1-.249-3V171.431c0-13.465,0-25.235.059-34.943V118.282a16.95,16.95,0,0,1,.273-4.35,6.247,6.247,0,0,1,4.03-4.172,6.4,6.4,0,0,1,1.505-.284Z" transform="translate(-154.493 -109.25)" fill="#263238"/>
        <path id="Path_29081" data-name="Path 29081" d="M215,149.94l-3.153,15.468,10.265-.237Z" transform="translate(-143.864 -101.71)" fill="#fff"/>
        <g id="Group_1290" data-name="Group 1290" transform="translate(67.986 48.23)" opacity="0.3">
          <path id="Path_29082" data-name="Path 29082" d="M215,149.94l-3.153,15.468,10.265-.237Z" transform="translate(-211.85 -149.94)" fill="#c34b4b"/>
        </g>
        <path id="Path_29083" data-name="Path 29083" d="M178.484,150.36l3.153,15.468-10.277-.237Z" transform="translate(-151.367 -101.632)" fill="#ecc8c8"/>
        <g id="Group_1291" data-name="Group 1291" transform="translate(19.993 48.728)" opacity="0.3">
          <path id="Path_29084" data-name="Path 29084" d="M178.484,150.36l3.153,15.468-10.277-.237Z" transform="translate(-171.36 -150.36)" fill="#fff"/>
        </g>
        <path id="Path_29085" data-name="Path 29085" d="M200,158.851h0a1.292,1.292,0,0,1-1.292-1.245L197.2,121.371a1.316,1.316,0,0,1,1.3-1.351h1.814a1.292,1.292,0,0,1,1.292,1.3l-.308,36.235A1.3,1.3,0,0,1,200,158.851Z" transform="translate(-146.579 -107.254)" fill="#844031"/>
        <rect id="Rectangle_2377" data-name="Rectangle 2377" width="4.279" height="3.141" transform="translate(50.764 17.389)" fill="#0091ff"/>
        <path id="Path_29086" data-name="Path 29086" d="M202.134,158.7h0a1.3,1.3,0,0,1-.794-1.624l11.035-34.54a1.292,1.292,0,0,1,1.683-.83l1.695.616a1.316,1.316,0,0,1,.77,1.683l-12.73,33.924a1.316,1.316,0,0,1-1.659.77Z" transform="translate(-145.823 -106.957)" fill="#844031"/>
        <rect id="Rectangle_2378" data-name="Rectangle 2378" width="3.141" height="4.279" transform="translate(64.501 21.637) rotate(-69.92)" fill="#0091ff"/>
        <path id="Path_29087" data-name="Path 29087" d="M218.758,145.93a8.605,8.605,0,0,0-5.927-3.781,12.1,12.1,0,0,0-6.875,1.185c-1.671.794-3.4,1.9-5.192,1.529a10.324,10.324,0,0,1-3.4-1.932,12.067,12.067,0,0,0-9.234-1.873,13.157,13.157,0,0,0-8,5.524,8.854,8.854,0,0,0-1.565,7.278l40.917-.142a8.842,8.842,0,0,0-.723-7.787Z" transform="translate(-150.072 -103.401)" fill="#e0e0e0"/>
        <path id="Path_29088" data-name="Path 29088" d="M217.45,152.568a14.654,14.654,0,0,0,0-2.015,7.455,7.455,0,0,0-2.371-4.741,5.927,5.927,0,0,0-3.331-1.434,9.482,9.482,0,0,0-4.2.593c-1.422.5-2.774,1.422-4.386,2.074a6.5,6.5,0,0,1-2.631.486,6.946,6.946,0,0,1-2.655-.735c-1.659-.794-3.046-1.873-4.516-2.631a8.677,8.677,0,0,0-4.54-1.008,9.032,9.032,0,0,0-4.042,1.185,9.578,9.578,0,0,0-2.762,2.489,12.078,12.078,0,0,0-2.193,4.955c-.237,1.28-.225,2.015-.285,2a1.636,1.636,0,0,1,0-.522,9.982,9.982,0,0,1,.095-1.517,11.723,11.723,0,0,1,2.074-5.18,10.016,10.016,0,0,1,2.857-2.667,9.482,9.482,0,0,1,4.279-1.351,9.186,9.186,0,0,1,4.836,1.043c1.541.782,2.94,1.861,4.5,2.608a6.507,6.507,0,0,0,2.371.676,5.76,5.76,0,0,0,2.371-.439c1.517-.593,2.9-1.529,4.409-2.039a9.921,9.921,0,0,1,4.445-.569,6.318,6.318,0,0,1,3.556,1.624,7.515,7.515,0,0,1,2.264,5.073,7.338,7.338,0,0,1-.095,1.517A1.085,1.085,0,0,1,217.45,152.568Z" transform="translate(-149.854 -103.082)" fill="#263238"/>
        <path id="Path_29089" data-name="Path 29089" d="M215.2,152.6a16.578,16.578,0,0,0,0-1.754,5.5,5.5,0,0,0-2.252-3.971,4.208,4.208,0,0,0-3.023-.711,9.352,9.352,0,0,0-3.414,1.47,14.757,14.757,0,0,1-3.864,1.944,7.444,7.444,0,0,1-4.658-.439c-2.975-1.185-5.334-3.153-7.953-3.674a6.863,6.863,0,0,0-6.341,1.956,8.878,8.878,0,0,0-2.217,4.149c-.261,1.1-.249,1.754-.308,1.742s0-.154,0-.462a8.3,8.3,0,0,1,.119-1.328,8.748,8.748,0,0,1,2.134-4.409,7.574,7.574,0,0,1,2.845-1.92,6.958,6.958,0,0,1,3.935-.332c2.809.545,5.215,2.548,8.06,3.663a6.993,6.993,0,0,0,4.279.427,14.757,14.757,0,0,0,3.722-1.849,9.483,9.483,0,0,1,3.639-1.493,4.635,4.635,0,0,1,3.343.865,5.215,5.215,0,0,1,1.766,2.228,5.844,5.844,0,0,1,.474,2.074,5.667,5.667,0,0,1-.142,1.387,1.375,1.375,0,0,1-.142.439Z" transform="translate(-149.553 -102.677)" fill="#263238"/>
        <path id="Path_29090" data-name="Path 29090" d="M212.375,152.142a3.307,3.307,0,0,0-.261-1.339,2.6,2.6,0,0,0-2.987-1.482,7.2,7.2,0,0,0-2.371,1.019,14.829,14.829,0,0,1-2.774,1.446,9.814,9.814,0,0,1-7.029-.936,37.692,37.692,0,0,0-6.4-2.75,6.507,6.507,0,0,0-5.334.664,5.5,5.5,0,0,0-2.169,2.963c-.249.865-.19,1.387-.261,1.387a1.375,1.375,0,0,1-.059-.367,4.256,4.256,0,0,1,.083-1.079,5.523,5.523,0,0,1,2.157-3.26,6.875,6.875,0,0,1,5.713-.865,35.691,35.691,0,0,1,6.519,2.75,9.482,9.482,0,0,0,6.6.948A14.993,14.993,0,0,0,206.5,149.9a7.29,7.29,0,0,1,2.548-1.008,3.117,3.117,0,0,1,2.264.415,3.011,3.011,0,0,1,1.079,1.351,2.252,2.252,0,0,1,.142,1.079A.652.652,0,0,1,212.375,152.142Z" transform="translate(-149.261 -102.205)" fill="#263238"/>
        <path id="Path_29091" data-name="Path 29091" d="M177.31,150.307c0,1.055,7.515,39.661,7.515,39.661l29.479-.486,7.112-39.542Z" transform="translate(-150.264 -101.71)" fill="#ec3d3d"/>
        <path id="Path_29092" data-name="Path 29092" d="M177.31,150.348a6.359,6.359,0,0,1,.818,0l2.454-.059,9.222-.154,31.6-.415h.5l-.225.45-4.563,9.068c-1.3,2.584-2.584,5.132-3.829,7.586L213.2,167h-.19l-27.476-.083h-.142V166.8c-2.489-5.049-4.516-9.162-5.927-12.066l-1.576-3.236-.4-.842a1.184,1.184,0,0,1-.107-.261l.166.3.462.865,1.707,3.248c1.458,2.845,3.556,6.851,6.092,11.782l-.2-.13,27.476-.071-.273.166,3.829-7.6L221.2,149.9l.273.439-31.34.095H178.282Z" transform="translate(-150.264 -101.75)" fill="#fff"/>
        <g id="Group_1292" data-name="Group 1292" transform="translate(36.054 49.629)" opacity="0.3">
          <path id="Path_29093" data-name="Path 29093" d="M184.91,166.387l.747,1.6h26.729l6.91-16.867L211.6,166.387Z" transform="translate(-184.91 -151.12)"/>
        </g>
        <path id="Path_29094" data-name="Path 29094" d="M202.634,177.764a22.756,22.756,0,0,1-5.227.308,22.675,22.675,0,0,1-5.227-.308,22.673,22.673,0,0,1,5.227-.308,22.757,22.757,0,0,1,5.227.308Z" transform="translate(-147.509 -96.617)" fill="#fff"/>
        <path id="Path_29095" data-name="Path 29095" d="M200.53,173.1s-.071-.3-.225-.806a3.4,3.4,0,0,0-1.256-1.731,3.212,3.212,0,0,0-3-.4,3.153,3.153,0,1,0,3,5.476A3.355,3.355,0,0,0,200.3,173.9c.154-.5.166-.806.225-.806a1.647,1.647,0,0,1,0,.865,3.378,3.378,0,0,1-1.185,2.027,3.615,3.615,0,0,1-3.461.581,3.686,3.686,0,0,1,0-6.946,3.556,3.556,0,0,1,3.461.593,3.319,3.319,0,0,1,1.185,2.015,1.647,1.647,0,0,1,0,.865Z" transform="translate(-147.277 -98.101)" fill="#fff"/>
        <path id="Path_29096" data-name="Path 29096" d="M185.232,142.627a1.292,1.292,0,0,0,.723-.77,1.754,1.754,0,0,0,0-1.185,6.306,6.306,0,0,0-1-1.434,5.1,5.1,0,0,1,.676-7.112c.7-.652,1.505-1.292,1.6-2.169a3.248,3.248,0,0,0-1.185-2.371,9.139,9.139,0,0,1-1.719-2.264,5.927,5.927,0,0,1-.166-4.741,5.512,5.512,0,0,1,2.015-2.5,2.3,2.3,0,0,1,1.055-.51,11.172,11.172,0,0,0-.913.7,5.926,5.926,0,0,0-1.754,2.465,5.535,5.535,0,0,0,.273,4.35,9.482,9.482,0,0,0,1.659,2.11,7.016,7.016,0,0,1,.925,1.185A2.608,2.608,0,0,1,187.8,130a2.857,2.857,0,0,1-.723,1.505,14.532,14.532,0,0,1-1.09,1.031,4.741,4.741,0,0,0-.735,6.365,6.248,6.248,0,0,1,.972,1.576,1.956,1.956,0,0,1,0,1.434,1.185,1.185,0,0,1-.64.64C185.327,142.663,185.232,142.639,185.232,142.627Z" transform="translate(-149.071 -107.708)" fill="#263238"/>
        <path id="Path_29097" data-name="Path 29097" d="M189.062,142.627a1.292,1.292,0,0,0,.723-.77,1.754,1.754,0,0,0,0-1.185,6.306,6.306,0,0,0-1-1.434,5.1,5.1,0,0,1,.676-7.112c.7-.652,1.505-1.292,1.6-2.169a3.248,3.248,0,0,0-1.185-2.371,8.818,8.818,0,0,1-1.707-2.264,5.82,5.82,0,0,1-.178-4.741,5.666,5.666,0,0,1,2.015-2.5,2.3,2.3,0,0,1,1.067-.51,9.916,9.916,0,0,0-.925.7,5.855,5.855,0,0,0-1.742,2.465,5.488,5.488,0,0,0,.273,4.35,9.055,9.055,0,0,0,1.648,2.11,7.018,7.018,0,0,1,.925,1.185,2.607,2.607,0,0,1,.379,1.624,2.762,2.762,0,0,1-.723,1.505c-.356.391-.735.711-1.079,1.031a4.563,4.563,0,0,0-1.446,2.145,4.646,4.646,0,0,0,.711,4.22,6.187,6.187,0,0,1,.96,1.576,1.9,1.9,0,0,1,0,1.434,1.185,1.185,0,0,1-.64.64C189.169,142.663,189.062,142.639,189.062,142.627Z" transform="translate(-148.362 -107.708)" fill="#263238"/>
      </g>
      <g id="freepik--Character--inject-3" transform="translate(34.12 167.129)">
        <path id="Path_29098" data-name="Path 29098" d="M75.33,436.84l-8.25,53.647H76.5L92.422,436.84Z" transform="translate(-26.563 -91.632)" fill="#263238"/>
        <path id="Path_29099" data-name="Path 29099" d="M249.492,436.84l8.25,53.647h-9.435L232.4,436.84Z" transform="translate(4.072 -91.632)" fill="#263238"/>
        <path id="Path_29100" data-name="Path 29100" d="M38.079,319.226c-.664,24.2-6.946,130.977,14.947,151.3H80.217c7.112,0,6.709-3.354,6.436-10.431L81.485,321.562a12.339,12.339,0,0,0-2.691-7.313c-3.556-4.409-10.751-11.225-20.6-10.561a29.17,29.17,0,0,0-14.876,4.931,13.038,13.038,0,0,0-5.239,10.609Z" transform="translate(-32.185 -116.315)" fill="#455a64"/>
        <path id="Path_29101" data-name="Path 29101" d="M277.72,455.861l-204.3-1.553V391.19h204.3Z" transform="translate(-25.388 -100.091)" fill="#455a64"/>
        <path id="Path_29102" data-name="Path 29102" d="M277.1,397.448,72.43,399.131V361.272L277.9,357.42Z" transform="translate(-25.572 -106.349)" fill="#455a64"/>
        <path id="Path_29103" data-name="Path 29103" d="M41.13,319.63s1.517-52.557,59.36-55.271,143.672,0,143.672,0,72.66-2.726,74.343,43.039L304.068,395.11H79.724Z" transform="translate(-31.372 -123.818)" fill="#455a64"/>
        <path id="Path_29104" data-name="Path 29104" d="M290.021,324.97c-1.529,36.223-4.872,142.474-30.071,147.275H241.21l5.8-155.2s8.688-15.148,23.161-14.224h.439a21.181,21.181,0,0,1,19.415,22.153Z" transform="translate(5.705 -116.475)" fill="#455a64"/>
        <path id="Path_29105" data-name="Path 29105" d="M279.855,305.016l-.687-.166-1.956-.533-1.422-.391-1.778-.273c-.64-.083-1.328-.213-2.062-.3h-2.371a25.52,25.52,0,0,0-11.616,2.9l-.794.391-.77.474-1.565.984a34.914,34.914,0,0,0-3.011,2.371,31.6,31.6,0,0,0-5.452,6.318v-.107c-.759,16.037-1.707,36.294-2.738,58.27-1.185,26.753-2.051,50.968-2.537,68.523-.225,8.759-.391,15.848-.522,20.779,0,2.43-.107,4.338-.13,5.654a10.093,10.093,0,0,1-.059,1.47,1.014,1.014,0,0,0,0,.5v-7.622c0-4.907.154-12.007.332-20.779.391-17.554,1.185-41.794,2.371-68.547.984-21.988,2.015-42.256,2.845-58.27h0a.154.154,0,0,1,0-.095,31.471,31.471,0,0,1,5.559-6.377,33.584,33.584,0,0,1,3.07-2.43l1.588-1,.782-.474.806-.391a25.65,25.65,0,0,1,11.782-2.845l2.371.083c.735.083,1.422.225,2.074.32l1.778.3,1.422.427,1.944.6Z" transform="translate(5.547 -116.423)" fill="#263238"/>
        <path id="Path_29106" data-name="Path 29106" d="M73.69,398.807H89.206l42.327.107c35.737.13,85.105.522,139.618-.261h2.264l-.3.273c.2-6.472.391-12.872.581-19.167q.142-4.741.284-9.388l.142-4.635c0-.759.071-1.553,0-2.276a4.8,4.8,0,0,0-.593-2.086,5.251,5.251,0,0,0-3.461-2.548,9.673,9.673,0,0,0-2.288-.13h-11.64l-17.946.119-62.051.64c-17.649.178-31.92.249-41.782.261H123.023l11.343-.083,41.782-.439,62.039-.77,17.957-.13h11.64a9.9,9.9,0,0,1,2.371.142,5.808,5.808,0,0,1,3.828,2.833,5.263,5.263,0,0,1,.664,2.3c0,.818,0,1.553,0,2.371,0,1.529-.083,3.082-.13,4.635q-.142,4.635-.284,9.376-.285,9.482-.569,19.178a.32.32,0,0,1-.3.273h-2.252c-54.524.782-103.893.332-139.63.095l-42.327-.273-11.509-.083H74.662Z" transform="translate(-25.338 -106.191)" fill="#263238"/>
        <g id="Group_1293" data-name="Group 1293" transform="translate(46.858 292.355)" opacity="0.2">
          <path id="Path_29107" data-name="Path 29107" d="M72.43,392.677c46.891,10.17,69.222,9.4,112.818,10.146,39.115.676,82.178-6.377,88.4-10.573Z" transform="translate(-72.43 -392.25)"/>
        </g>
        <path id="Path_29108" data-name="Path 29108" d="M79.861,470.5a4.408,4.408,0,0,1,0-.521v-7.467c0-5.168.107-12.576.19-21.727.225-18.372.522-43.7.853-71.676.2-14,.379-27.333.545-39.459a26.456,26.456,0,0,0-1.185-8.665,26.078,26.078,0,0,0-3.769-7.313,26.467,26.467,0,0,0-5.547-5.334,25.034,25.034,0,0,0-6.33-3.117,23.706,23.706,0,0,0-12.126-.486,23.28,23.28,0,0,0-8.463,3.675,19.271,19.271,0,0,0-4.184,4.089c-.806,1.079-1.126,1.719-1.185,1.7a2.442,2.442,0,0,1,.237-.462,13.777,13.777,0,0,1,.83-1.3,18.324,18.324,0,0,1,4.137-4.22,23.114,23.114,0,0,1,8.534-3.8,23.9,23.9,0,0,1,12.327.4,25.569,25.569,0,0,1,6.519,3.153,27.262,27.262,0,0,1,5.69,5.417,25.046,25.046,0,0,1,5.049,16.286c-.154,12.138-.32,25.472-.5,39.471-.4,27.973-.77,53.339-1.031,71.664-.166,9.151-.3,16.594-.391,21.727,0,2.548-.095,4.528-.13,5.927v1.541a3.556,3.556,0,0,1-.071.51Z" transform="translate(-31.83 -116.288)" fill="#263238"/>
        <path id="Path_29109" data-name="Path 29109" d="M170.492,364.373a467.092,467.092,0,0,1,7.23-74.141c.664-3.734,1.541-7.752,4.433-10.194,2.489-2.11,5.927-2.572,9.174-2.833,23.291-1.9,47.033,8.5,68.179,19.759a12.446,12.446,0,0,1,6.436,13.121c-3.556,20.269-10.668,35.559-21.134,54.915a128.654,128.654,0,0,1-74.971,6.638" transform="translate(-7.521 -121.255)" fill="#ffc727"/>
        <path id="Path_29110" data-name="Path 29110" d="M147.371,205.565c-1.47-10.443-1.375-10.1-2.679-20.091-2.513-19.392-8.629-41.379-36.306-39.791,0,0-20.85,1.185-27.262,16.073-3.414,8.036-4.315,35.844-5.464,60.854a4.207,4.207,0,0,1-.237,1.185l-1.292,3.781a56.089,56.089,0,0,0-2.975,15.409L69.4,277.7a4.326,4.326,0,0,0,4.089,4.54c9.328.45,30.64-.735,34.741-2.217a62.513,62.513,0,0,0,36.934-36.508c.427-1.185,6.46-1.695,7.6-2.134C154.637,240.662,147.655,207.556,147.371,205.565Z" transform="translate(-26.134 -145.601)" fill="#263238"/>
        <path id="Path_29111" data-name="Path 29111" d="M101.222,153.474l1.754-1.624,18.645,7.8a5.215,5.215,0,0,1,4.86,5.121l-1.019,60.913c0,4.137,1.185,8.914-1.4,12.173l-3.034,4.255c-6.092,7.823-20.15,4.99-24.761-3.781a6.318,6.318,0,0,1-.64-1.588,11.854,11.854,0,0,1-.261-1.363c-.486-4.907-.462-9.162-.462-9.162-.261-5.381-.332-7.6-.344-7.539s-11.426-1.458-14.319-16.262c-1.434-7.325-1.008-17.389-.439-27.262C80.6,161.51,90.21,153.308,101.222,153.474Z" transform="translate(-24.304 -144.444)" fill="#ffbf9d"/>
        <path id="Path_29112" data-name="Path 29112" d="M100.26,180.16a1.9,1.9,0,0,0,1.908,1.849,1.814,1.814,0,0,0,1.9-1.778,1.908,1.908,0,0,0-1.908-1.861,1.825,1.825,0,0,0-1.9,1.79Z" transform="translate(-20.415 -139.529)" fill="#263238"/>
        <path id="Path_29113" data-name="Path 29113" d="M84.14,180.28a1.9,1.9,0,0,0,1.908,1.849,1.814,1.814,0,0,0,1.9-1.778,1.908,1.908,0,0,0-1.908-1.861,1.825,1.825,0,0,0-1.9,1.79Z" transform="translate(-23.402 -139.507)" fill="#263238"/>
        <path id="Path_29114" data-name="Path 29114" d="M81.336,175.153c.237.249,1.648-.877,3.686-.936s3.556.9,3.793.64-.142-.557-.818-1.008a5.18,5.18,0,0,0-3.046-.818,4.966,4.966,0,0,0-2.928,1.055C81.407,174.6,81.206,175.046,81.336,175.153Z" transform="translate(-23.928 -140.52)" fill="#263238"/>
        <path id="Path_29115" data-name="Path 29115" d="M98.837,175.65c.273.213,1.553-1.043,3.556-1.328s3.651.533,3.84.249-.2-.533-.925-.913a5.239,5.239,0,0,0-3.117-.51,5.085,5.085,0,0,0-2.8,1.363C98.861,175.081,98.706,175.555,98.837,175.65Z" transform="translate(-20.686 -140.507)" fill="#263238"/>
        <path id="Path_29116" data-name="Path 29116" d="M93.459,190.39a13.785,13.785,0,0,0-3.343-.474c-.533,0-1.031-.119-1.185-.474a2.584,2.584,0,0,1,.3-1.565c.439-1.28.9-2.631,1.4-4.03,1.944-5.749,3.319-10.466,3.094-10.537s-1.991,4.516-3.935,10.265l-1.339,4.054a3.011,3.011,0,0,0-.19,2.062,1.292,1.292,0,0,0,.877.723,3.189,3.189,0,0,0,.9.095,13.193,13.193,0,0,0,3.426-.119Z" transform="translate(-22.658 -140.467)" fill="#263238"/>
        <path id="Path_29117" data-name="Path 29117" d="M92.17,209.141a37.859,37.859,0,0,0,19.676-6.021s-4.623,10.443-19.522,9.6Z" transform="translate(-21.914 -134.943)" fill="#ff9a6c"/>
        <path id="Path_29118" data-name="Path 29118" d="M93.532,192.1a3.663,3.663,0,0,1,3.26-1.493,3.378,3.378,0,0,1,2.371,1.185,2.169,2.169,0,0,1,.249,2.442,2.5,2.5,0,0,1-2.667.77,7.763,7.763,0,0,1-2.631-1.493,2.169,2.169,0,0,1-.6-.581.687.687,0,0,1,0-.759" transform="translate(-21.687 -137.265)" fill="#ff9a6c"/>
        <path id="Path_29119" data-name="Path 29119" d="M98.738,188.73c-.332,0-.249,2.217-2.1,3.864s-4.22,1.482-4.22,1.8c0,.13.533.4,1.541.4a5.607,5.607,0,0,0,3.556-1.375,4.741,4.741,0,0,0,1.588-3.188C99.164,189.252,98.892,188.718,98.738,188.73Z" transform="translate(-21.867 -137.609)" fill="#263238"/>
        <path id="Path_29120" data-name="Path 29120" d="M97.263,167.2c.273.522,2.264,0,4.682-.059s4.433.332,4.741-.2c.107-.261-.3-.735-1.185-1.185a7.811,7.811,0,0,0-3.556-.723,8.013,8.013,0,0,0-3.556.925C97.524,166.453,97.145,166.951,97.263,167.2Z" transform="translate(-20.974 -142.002)" fill="#263238"/>
        <path id="Path_29121" data-name="Path 29121" d="M81.689,167.772c.379.45,1.766-.083,3.461-.166s3.141.19,3.449-.308c.142-.237-.107-.7-.747-1.114a5.038,5.038,0,0,0-5.571.379C81.7,167.061,81.523,167.547,81.689,167.772Z" transform="translate(-23.867 -141.91)" fill="#263238"/>
        <path id="Path_29122" data-name="Path 29122" d="M122.507,190.921s-10.514,3.106-16.085-22.829c-1.9-8.866-9.992-16.132-9.992-16.132l3.331-.96s20.577,6.116,20.921,6.377,5.061,10.751,5.061,10.751Z" transform="translate(-21.124 -144.601)" fill="#263238"/>
        <path id="Path_29123" data-name="Path 29123" d="M116.27,184.482c0-1.1,1.185-3.746,2.228-3.959,2.892-.557,8.155-.51,8.475,6.875.427,10.111-9.814,8.463-9.838,8.167S116.4,188.3,116.27,184.482Z" transform="translate(-17.448 -139.169)" fill="#ffbf9d"/>
        <path id="Path_29124" data-name="Path 29124" d="M119.461,191.1a3.36,3.36,0,0,0,.486.237,1.742,1.742,0,0,0,1.316,0c1.055-.439,1.885-2.169,1.849-3.994a5.808,5.808,0,0,0-.593-2.5,2.039,2.039,0,0,0-1.387-1.292.9.9,0,0,0-1.019.522c-.119.3,0,.486-.107.51s-.213-.166-.154-.581a1.185,1.185,0,0,1,.367-.652,1.375,1.375,0,0,1,.96-.3,2.5,2.5,0,0,1,1.908,1.482,5.926,5.926,0,0,1,.735,2.8c0,2.039-.936,3.994-2.371,4.469a1.873,1.873,0,0,1-1.624-.19C119.5,191.348,119.437,191.123,119.461,191.1Z" transform="translate(-16.857 -138.662)" fill="#ff9a6c"/>
        <path id="Path_29125" data-name="Path 29125" d="M115.389,185.564a13.178,13.178,0,0,1-1.505-.32,9.174,9.174,0,0,1-3.556-2.145,12.068,12.068,0,0,1-1.849-2.217A17.412,17.412,0,0,1,107,177.907a61.862,61.862,0,0,1-2.074-7.373c-.676-2.643-1.411-5.144-2.228-7.373a41.071,41.071,0,0,0-2.548-5.737,28.247,28.247,0,0,0-2.264-3.556c-.3-.415-.545-.7-.711-.913a2.37,2.37,0,0,0-.261-.3,2.286,2.286,0,0,0,.225.332c.142.213.391.522.664.936a34.2,34.2,0,0,1,2.181,3.556,43.558,43.558,0,0,1,2.489,5.737c.794,2.217,1.517,4.741,2.193,7.349a61.443,61.443,0,0,0,2.1,7.408,16.914,16.914,0,0,0,1.529,3,12.531,12.531,0,0,0,1.908,2.24,8.866,8.866,0,0,0,3.663,2.1,5.322,5.322,0,0,0,1.529.249Z" transform="translate(-21.035 -144.293)" fill="#263238"/>
        <path id="Path_29126" data-name="Path 29126" d="M155.945,228.738l-22.521-8.5-32-6.97-25.781,3.414c-5.441.119-14.864,11.545-22.035,23.8C47.181,251.461,42.12,262.5,42.12,262.5l30,11.213c1.707,12.766,4.22,29.633,6.389,36.282,3.7,11.367,4.824,26.966,4.824,26.966l71.249-9.293,1.008-48.941,23.434-3.058C179.035,273.946,169.991,233.1,155.945,228.738Z" transform="translate(-31.189 -133.062)" fill="#00b391"/>
        <path id="Path_29127" data-name="Path 29127" d="M136.636,242.87a5.571,5.571,0,0,0,.13,1.185c.119.782.284,1.92.462,3.319a90.237,90.237,0,0,1,.687,11.047,91.822,91.822,0,0,1-.711,11.035c-.178,1.411-.344,2.548-.462,3.331a6.175,6.175,0,0,0-.142,1.185,5.263,5.263,0,0,0,.332-1.185c.19-.782.4-1.908.628-3.319a71.486,71.486,0,0,0,0-22.177c-.225-1.4-.439-2.537-.616-3.307A5.263,5.263,0,0,0,136.636,242.87Z" transform="translate(-13.68 -127.576)" fill="#263238"/>
        <path id="Path_29128" data-name="Path 29128" d="M162.44,266.5,139.291,269l.367,6.353-5.144-7.373L126.75,284.09s3.129,9.411,4.824,14.6c4.516,13.927,11.735,29.467,20.15,28.447,10.134-1.185,17.306-13.347,16.974-21.134C168.426,298.966,162.44,266.5,162.44,266.5Z" transform="translate(-15.506 -123.198)" fill="#ffbf9d"/>
        <path id="Path_29129" data-name="Path 29129" d="M167.459,344.39l40.147,15.741-15.267,18.455-34.149-5.938Z" transform="translate(-9.679 -108.764)" fill="#ffbf9d"/>
        <path id="Path_29130" data-name="Path 29130" d="M77.018,319.388s-1.055,45.789,3.141,53.754,44.781,8.3,44.781,8.3l64.007,3.248,7.467-29.941s-46.571-21.62-50.968-24.121-14.8-6.875-14.8-6.875l-15.67-20.15Z" transform="translate(-24.743 -116.322)" fill="#263238"/>
        <path id="Path_29131" data-name="Path 29131" d="M147.437,373.509a3.106,3.106,0,0,0-.51-.178l-1.47-.427-5.476-1.505-18.408-4.9H121.5a27.811,27.811,0,0,1-3.082-.2,23.968,23.968,0,0,1-5.808-1.363,27.628,27.628,0,0,1-5.026-2.371A28.317,28.317,0,0,1,96.919,351.19c-.344-.664-.557-1.185-.735-1.565a2.453,2.453,0,0,0-.284-.545,2.94,2.94,0,0,0,.19.581c.142.367.332.936.652,1.624a26.86,26.86,0,0,0,3.426,5.441,28.828,28.828,0,0,0,7.207,6.247,27.463,27.463,0,0,0,5.109,2.43,26.912,26.912,0,0,0,2.868.877,28.446,28.446,0,0,0,3.034.522,29.277,29.277,0,0,0,3.153.2h0l18.455,4.741,5.512,1.351,1.493.344A1.813,1.813,0,0,0,147.437,373.509Z" transform="translate(-21.223 -107.895)" fill="#455a64"/>
        <path id="Path_29132" data-name="Path 29132" d="M137.77,346.083l10.9-66.662s-1.446-47.981,25.5-44.544,23.706,45.658,23.706,45.658-3.485,57.879-5.393,66.235-2.868,17.649-8.368,20.992l-24.453-3.8Z" transform="translate(-13.464 -129.09)" fill="#263238"/>
        <path id="Path_29133" data-name="Path 29133" d="M156.519,245.372,150,261.125l4.042,60.166s34.73,2.975,34.374,2.027,6.223-29.965,6.223-29.965,2.157-38.511-8.131-45.86S156.519,245.372,156.519,245.372Z" transform="translate(-11.197 -127.447)" fill="#263238"/>
        <path id="Path_29134" data-name="Path 29134" d="M154.59,309.23l.45,28.732L179.3,351.273l6.59-39.945Z" transform="translate(-10.347 -115.279)" fill="#ffbf9d"/>
        <path id="Path_29135" data-name="Path 29135" d="M108.98,305.3l26.492-10.917,15.848,14.2L142.524,336.9l-23.244-8.676Z" transform="translate(-18.799 -118.031)" fill="#263238"/>
        <path id="Path_29136" data-name="Path 29136" d="M194.295,351.772l-.32-.19L193,351.1l-3.746-1.825-13.809-6.661-20.518-9.767L142.8,327.129l-6.413-3.034-3.283-1.553-1.659-.782a12.085,12.085,0,0,0-1.707-.723,24.3,24.3,0,0,0-7.207-1.458,29.039,29.039,0,0,0-7.112.439,35.985,35.985,0,0,0-12.493,4.919,40.157,40.157,0,0,0-9.186,7.977,55.343,55.343,0,0,0-6.033,8.712,80.245,80.245,0,0,0-6.081,14.022c-.569,1.719-.96,3.07-1.185,3.994l-.284,1.043a1.4,1.4,0,0,0-.071.356.848.848,0,0,1,.13-.344l.332-1.031c.284-.913.711-2.24,1.3-3.947a83.8,83.8,0,0,1,6.187-13.963,56.69,56.69,0,0,1,6.045-8.605,39.815,39.815,0,0,1,9.115-7.859,35.56,35.56,0,0,1,12.327-4.824,28.154,28.154,0,0,1,7.005-.427,24.026,24.026,0,0,1,7.112,1.434,11.542,11.542,0,0,1,1.683.711l1.659.782,3.283,1.553,6.413,3.023,12.126,5.725,20.565,9.66,13.88,6.484,3.781,1.731,1,.439a2.1,2.1,0,0,0,.261.19Z" transform="translate(-24.152 -113.372)" fill="#455a64"/>
        <path id="Path_29137" data-name="Path 29137" d="M133.9,331.394a27.014,27.014,0,0,1,.3-4.362,34.1,34.1,0,0,1,3.8-9.791,60.946,60.946,0,0,0,4.552-9.613,20.014,20.014,0,0,0,.759-3.153,4.741,4.741,0,0,0,.083-1.185c-.095,0-.261,1.671-1.185,4.22a75.127,75.127,0,0,1-4.67,9.482,31.576,31.576,0,0,0-3.7,9.969,14.627,14.627,0,0,0-.13,3.248A4.919,4.919,0,0,0,133.9,331.394Z" transform="translate(-14.224 -116.38)" fill="#455a64"/>
        <path id="Path_29138" data-name="Path 29138" d="M194.7,290.62l-.095.308a4.4,4.4,0,0,1-.237.925c-.2.853-.474,2.039-.842,3.556-.711,3.094-1.742,7.574-2.951,13.121-.6,2.774-1.256,5.808-1.885,9.091-.154.83-.32,1.648-.427,2.525a3.562,3.562,0,0,0,0,.379v-.059H188.2a4.956,4.956,0,0,1-.616.059h-1.316c-1.766,0-3.556-.13-5.464-.237-7.491-.45-15.705-1.1-24.334-1.814l-2.371-.2.225.237c-1.185-16.725-2.181-31.743-2.94-42.671-.391-5.4-.711-9.779-.936-12.837-.119-1.482-.213-2.643-.284-3.473a7.121,7.121,0,0,0-.083-.9,1.187,1.187,0,0,0,0-.308,1.187,1.187,0,0,0,0,.308v.9c0,.83.119,2,.19,3.485.19,3.058.45,7.432.782,12.849.711,10.881,1.695,25.911,2.785,42.671v.225h.225l2.371.2c8.629.723,16.855,1.351,24.358,1.778,1.873.095,3.7.19,5.488.213h1.328a4.678,4.678,0,0,0,.687-.071.986.986,0,0,0,.249-.095.261.261,0,0,0,.095-.13.249.249,0,0,0,0-.13c0-.059-.154,0,0,0h0a2.5,2.5,0,0,1,0-.273c.095-.83.261-1.671.4-2.489.616-3.283,1.245-6.318,1.825-9.1,1.185-5.524,2.134-10,2.8-13.145l.747-3.556c.071-.391.142-.7.178-.936a.925.925,0,0,0,.107-.4Z" transform="translate(-11.184 -124.713)" fill="#455a64"/>
        <path id="Path_29139" data-name="Path 29139" d="M162.581,241.26a4.09,4.09,0,0,0-.77.664c-.486.45-1.185,1.185-1.92,2.027a39.885,39.885,0,0,0-8.416,16.168c-.284,1.185-.474,2.074-.569,2.726a3.851,3.851,0,0,0-.095,1.019c.083,0,.367-1.411,1.008-3.651a45.943,45.943,0,0,1,8.356-16.037C161.632,242.362,162.652,241.319,162.581,241.26Z" transform="translate(-11.048 -127.875)" fill="#455a64"/>
        <path id="Path_29140" data-name="Path 29140" d="M129.02,323.958a3.947,3.947,0,0,0-.166-.96c-.142-.6-.379-1.482-.711-2.548a53.114,53.114,0,0,0-3.319-8.1,53.97,53.97,0,0,0-4.611-7.432,20.986,20.986,0,0,0-1.648-2.062,3.342,3.342,0,0,0-.676-.7s.77,1.185,2.027,2.975a69.807,69.807,0,0,1,4.445,7.456,68.232,68.232,0,0,1,3.426,7.977C128.546,322.654,128.937,323.982,129.02,323.958Z" transform="translate(-17.148 -116.589)" fill="#455a64"/>
        <path id="Path_29141" data-name="Path 29141" d="M92.349,317.62c-.083,0-.427,1.008-1.185,2.6a31.245,31.245,0,0,1-3.556,5.832,30.3,30.3,0,0,1-4.741,4.883c-1.351,1.1-2.264,1.707-2.217,1.778s.261-.095.7-.332a18.16,18.16,0,0,0,1.742-1.185,25.579,25.579,0,0,0,5-4.824,25.981,25.981,0,0,0,3.437-6.009,17.956,17.956,0,0,0,.676-1.98,2.371,2.371,0,0,0,.142-.759Z" transform="translate(-24.049 -113.724)" fill="#455a64"/>
        <path id="Path_29142" data-name="Path 29142" d="M202.189,377.83c14.959-.759,18.728-.284,33.687-1.043,3.651-.19,16.938.273,19.984-1.742,2.786-1.825,6.353-3.556,7.112-6.792,1.185-5.476-.3-11.675-5.334-15.1a12.091,12.091,0,0,0-5.927-2.015c-8.831-.7-16.9,5.749-25.733,3.829-2.371-.51-4.528-1.837-6.9-2.371a15.148,15.148,0,0,0-10.348,1.659c-3.165,1.636-3.9,1.908-3.9,1.908l-15.717-5.322-4.9,27.452Z" transform="translate(-4.856 -107.568)" fill="#fafafa"/>
        <path id="Path_29143" data-name="Path 29143" d="M189.692,345.36l8.3,2.7a2.608,2.608,0,0,1,1.731,3.011l-6.436,29.443a2.572,2.572,0,0,1-2.821,2.027l-8.392-.936a2.584,2.584,0,0,1-2.252-3.105l6.531-31.174a2.6,2.6,0,0,1,3.343-1.968Z" transform="translate(-5.682 -108.607)" fill="#fafafa"/>
        <path id="Path_29144" data-name="Path 29144" d="M191,380.866a29.713,29.713,0,0,0,1.529-4.421c.842-2.762,1.9-6.6,2.845-10.917s1.576-8.3,1.92-11.118c.166-1.434.284-2.608.332-3.414a3.853,3.853,0,0,0,0-1.256,39.389,39.389,0,0,0-.83,4.6c-.474,2.833-1.185,6.756-2.11,11.035s-1.932,8.155-2.643,10.94A34.372,34.372,0,0,0,191,380.866Z" transform="translate(-3.599 -107.772)" fill="#263238"/>
        <path id="Path_29145" data-name="Path 29145" d="M197.428,353.792a13.157,13.157,0,0,0-13.038-2.074c0,.225,3.034-.64,6.7,0S197.322,353.982,197.428,353.792Z" transform="translate(-4.824 -107.569)" fill="#263238"/>
        <path id="Path_29146" data-name="Path 29146" d="M196.773,363.223a29.23,29.23,0,0,0-6.946-2.181,28.827,28.827,0,0,0-7.207-1.1,54.407,54.407,0,0,0,7.041,1.79C193.56,362.631,196.713,363.425,196.773,363.223Z" transform="translate(-5.152 -105.882)" fill="#263238"/>
        <path id="Path_29147" data-name="Path 29147" d="M193.334,373.253c0-.225-3.212.166-6.756-1.351s-5.559-3.994-5.713-3.84.332.759,1.185,1.7a13.288,13.288,0,0,0,4.208,2.809,12.955,12.955,0,0,0,4.966,1,4.422,4.422,0,0,0,2.11-.308Z" transform="translate(-5.483 -104.378)" fill="#263238"/>
        <path id="Path_29148" data-name="Path 29148" d="M154.06,325.72l.628,12.422,24.8,11.9L183.61,329.3Z" transform="translate(-10.445 -112.223)" fill="#fafafa"/>
        <path id="Path_29149" data-name="Path 29149" d="M188.334,323.608l-1.861,8.653a2.643,2.643,0,0,1-2.868,2.074l-30.534-3.354a2.643,2.643,0,0,1-2.371-2.643V319.72a2.655,2.655,0,0,1,2.916-2.608l32.335,3.307a2.643,2.643,0,0,1,2.382,3.188Z" transform="translate(-11.067 -113.821)" fill="#fafafa"/>
        <path id="Path_29150" data-name="Path 29150" d="M151.7,328.75a27.265,27.265,0,0,0,4.635,1.09c2.892.545,6.9,1.185,11.367,1.731a110.069,110.069,0,0,0,11.474.759h3.485a4.406,4.406,0,0,0,1.268-.13,37.149,37.149,0,0,0-4.741-.356c-2.928-.178-6.97-.474-11.415-.972s-8.451-1.09-11.355-1.517a36.064,36.064,0,0,0-4.718-.6Z" transform="translate(-10.882 -111.662)" fill="#263238"/>
        <path id="Path_29151" data-name="Path 29151" d="M175.132,332.884a11.3,11.3,0,0,0,2.169-6.626c.237-3.983-1.316-6.934-1.458-6.827a26.671,26.671,0,0,1,.735,6.78A32.718,32.718,0,0,1,175.132,332.884Z" transform="translate(-6.542 -113.389)" fill="#263238"/>
        <path id="Path_29152" data-name="Path 29152" d="M165.538,333.238a29.715,29.715,0,0,0,1.482-7.278c.522-4.077.557-7.408.356-7.42s-.557,3.283-1.067,7.325S165.336,333.19,165.538,333.238Z" transform="translate(-8.327 -113.554)" fill="#263238"/>
        <path id="Path_29153" data-name="Path 29153" d="M155.433,330.816c.225,0-.5-3.248.652-6.993s3.461-6.057,3.283-6.2-.723.415-1.576,1.434a13.418,13.418,0,0,0-2.892,9.684,4.623,4.623,0,0,0,.533,2.074Z" transform="translate(-10.301 -113.728)" fill="#263238"/>
        <path id="Path_29154" data-name="Path 29154" d="M109.922,248.8s12.671,1.79,13.477,2.572,17.116,19.913,17.116,19.913l-7.764,16.108-14.378-7.408a22.523,22.523,0,0,0-4.552-1.363s-14.39-1.956-15.409-3.663-.45-2.122.6-2.371,9.66.51,11.58.818a29.383,29.383,0,0,0,5.713-.119s-5.986-1.268-7.349-1.707S94.2,268.439,94.37,266.033s1.8-3.3,10.206-1.185a59.644,59.644,0,0,0,14.247,1.908l-18.6-6.057s-7.491-2.228-5.144-4.409,18.372,1.873,18.372,1.873l7.112,2.513-2.086-4.208s-10.075-2.762-11.379-3.734c-1.612-1.185-1.861-2.371-.687-3.4S109.922,248.8,109.922,248.8Z" transform="translate(-21.506 -126.5)" fill="#ffbf9d"/>
        <path id="Path_29155" data-name="Path 29155" d="M71.737,231.77a7.312,7.312,0,0,1-.166,1.422c-.166,1.031-.379,2.311-.64,3.829-.533,3.236-1.185,7.716-1.885,12.671s-1.1,9.482-1.411,12.742c-.142,1.529-.273,2.821-.367,3.864a7.693,7.693,0,0,1-.2,1.422,5.689,5.689,0,0,1,0-1.434c0-.925.071-2.252.166-3.888.2-3.283.593-7.811,1.185-12.778s1.422-9.482,2.074-12.671c.332-1.612.616-2.916.83-3.8a5.642,5.642,0,0,1,.415-1.375Z" transform="translate(-26.574 -129.633)" fill="#263238"/>
        <path id="Path_29156" data-name="Path 29156" d="M146.076,236.991c0-.332-3.153-19.795-4.623-26.681l-23.185,3.556c-.32,2.88-.427,12.92-.356,16.3a14.97,14.97,0,0,0,3.188,9.411,9.1,9.1,0,0,0,9.08,3.129,12.327,12.327,0,0,0,7.6,5.1c3.082.474,6.6-1.126,7.586-4.089A16.511,16.511,0,0,0,146.076,236.991Z" transform="translate(-17.147 -133.61)" fill="#263238"/>
        <path id="Path_29157" data-name="Path 29157" d="M117.88,236.014l-3.7,35.476a2.228,2.228,0,0,1-2.371,1.991L89.86,271.728a2.217,2.217,0,0,1-2.039-2.371l2.584-37.3A2.228,2.228,0,0,1,92.989,230l23.019,3.556a2.217,2.217,0,0,1,1.873,2.454Z" transform="translate(-22.721 -129.966)" fill="#263238"/>
        <path id="Path_29158" data-name="Path 29158" d="M102.829,245.013s-12.778-.32-13.714.32S69,262.2,69,262.2l5,17.187s13.809-4.433,15.409-4.955a23.232,23.232,0,0,1,4.741-.6s14.52.439,15.753-1.091.782-2.015-.213-2.477-9.613-1.079-11.557-1.079a29.483,29.483,0,0,1-5.618-1.055s6.116-.273,7.527-.486,15.077-.687,15.314-3.07-1.185-3.556-9.874-2.868a59.857,59.857,0,0,1-14.224-.379l19.226-2.951s7.752-.972,5.8-3.556-18.443-1.185-18.443-1.185l-7.408,1.316,2.738-3.817s10.4-1.067,11.853-1.814c1.79-.925,2.228-2.015,1.185-3.236S102.829,245.013,102.829,245.013Z" transform="translate(-26.207 -127.194)" fill="#ffbf9d"/>
        <path id="Path_29159" data-name="Path 29159" d="M48.736,256.35l21.43,8-.4,2.975,6.448-7.681,5.927,15.409s-9.968,19.593-12.126,24.619c-6.175,14.556-17.151,22.154-25.022,18.929-9.482-3.864-14.911-13.868-10.585-24.963C36.978,287.038,48.736,256.35,48.736,256.35Z" transform="translate(-32.898 -125.078)" fill="#ffbf9d"/>
        <path id="Path_29160" data-name="Path 29160" d="M69,262.221s.178-.178.522-.486l1.576-1.363,6.069-5.18,9.613-8.119,1.446-1.185.759-.616a2.951,2.951,0,0,1,1.008-.261c1.316-.142,2.667-.166,4.054-.19h8.8a6.744,6.744,0,0,1,2.311.332,3,3,0,0,1,1.079.616,2.548,2.548,0,0,1,.687,1.067,1.6,1.6,0,0,1-.107,1.316,3.058,3.058,0,0,1-.889.936,4.493,4.493,0,0,1-1.185.616c-.415.118-.818.213-1.185.3-3.283.628-6.744,1.019-10.324,1.411l.166-.083-2.738,3.8-.225-.367,7.408-1.316h0c3.106-.237,6.306-.391,9.565-.379a43.65,43.65,0,0,1,4.955.261,15.21,15.21,0,0,1,2.5.462,4.149,4.149,0,0,1,1.185.545,1.707,1.707,0,0,1,.77,1.185,1.553,1.553,0,0,1-.676,1.28,4.989,4.989,0,0,1-1.185.652,15.255,15.255,0,0,1-2.5.77c-1.707.367-3.426.545-5.144.83l-10.478,1.588-5.689.853V261a62.468,62.468,0,0,0,13.193.439,56.324,56.324,0,0,1,6.472-.225,9.033,9.033,0,0,1,3.188.593,2.371,2.371,0,0,1,1.268,1.185,2.928,2.928,0,0,1,.178,1.683,1.292,1.292,0,0,1-.545.747,4.419,4.419,0,0,1-.723.4,10.167,10.167,0,0,1-1.505.5,29.361,29.361,0,0,1-3.011.593c-2,.3-3.983.486-5.927.64l-2.9.213c-.936.071-1.908.213-2.857.261-1.885.119-3.734.213-5.559.3v-.45a23.886,23.886,0,0,0,6.14,1.079c2.062.083,4.066.237,6.021.4.972.095,1.944.19,2.892.308.474.059.948.119,1.411.2a4.808,4.808,0,0,1,.735.19,3.248,3.248,0,0,1,.64.379,1.043,1.043,0,0,1,.415.711,1.351,1.351,0,0,1-.166.759,4.1,4.1,0,0,1-.379.616l-.213.273a1.09,1.09,0,0,1-.308.261,8.4,8.4,0,0,1-2.643.628,88.257,88.257,0,0,1-9.8.332H94.935a15.747,15.747,0,0,0-2.122,0,15.228,15.228,0,0,0-3.864.64l-11.118,3.556-2.94.9-.747.225-.261.071.249-.095.747-.261,2.916-.972,11.071-3.627a25.424,25.424,0,0,1,8.3-.711,87.613,87.613,0,0,0,9.755-.379,7.966,7.966,0,0,0,2.5-.593.688.688,0,0,0,.2-.166l.2-.261a3,3,0,0,0,.332-.557c.2-.391.2-.759-.142-1a2.559,2.559,0,0,0-.557-.332c-.19-.059-.415-.107-.64-.154-.45-.083-.925-.142-1.387-.2q-1.422-.154-2.88-.284c-1.944-.166-3.947-.308-6-.391a24.392,24.392,0,0,1-6.247-1.067.222.222,0,0,1,.047-.439h0c1.825-.083,3.674-.178,5.559-.308.948,0,1.861-.19,2.845-.273l2.9-.213c1.944-.166,3.923-.344,5.927-.652a27.85,27.85,0,0,0,2.963-.581,9.483,9.483,0,0,0,1.422-.474c.427-.19.925-.474.984-.806a2.371,2.371,0,0,0-.142-1.363,1.909,1.909,0,0,0-1.019-.9,8.7,8.7,0,0,0-3.011-.545,55.72,55.72,0,0,0-6.413.237,61.479,61.479,0,0,1-13.24-.415.237.237,0,0,1-.213-.284.249.249,0,0,1,.213-.213h0l5.689-.865,10.478-1.588c1.719-.284,3.449-.462,5.109-.818a14.534,14.534,0,0,0,2.371-.735,5.062,5.062,0,0,0,1.055-.593,1.031,1.031,0,0,0,.486-.842c-.071-.7-.853-1.114-1.624-1.316a13.88,13.88,0,0,0-2.371-.45,48.781,48.781,0,0,0-4.907-.261c-3.248,0-6.436.13-9.482.356h0l-7.42,1.3a.225.225,0,0,1-.261-.19.237.237,0,0,1,0-.178c.96-1.316,1.9-2.631,2.75-3.8a.261.261,0,0,1,.166-.095c3.556-.379,7.029-.77,10.277-1.375a11.328,11.328,0,0,0,1.185-.284,3.853,3.853,0,0,0,1.019-.545c.64-.439,1.126-1.114.865-1.79A2.371,2.371,0,0,0,105,245.626a5.928,5.928,0,0,0-2.169-.308h0c-3.07-.083-6.01-.119-8.771-.083a31.977,31.977,0,0,0-4.03.166,2.512,2.512,0,0,0-.853.2l-.747.593-1.446,1.185L77.3,255.37l-6.152,5.073-1.612,1.316C69.178,262.079,69,262.221,69,262.221Z" transform="translate(-26.207 -127.216)" fill="#ff9a6c"/>
        <path id="Path_29161" data-name="Path 29161" d="M73.291,259.5c.13.107-5.927,7.74-13.465,17.033s-13.8,16.748-13.975,16.654,5.927-7.728,13.465-17.033S73.136,259.394,73.291,259.5Z" transform="translate(-30.498 -124.495)" fill="#ff9a6c"/>
      </g>
    </g>
    <g id="Group_1294" data-name="Group 1294" transform="translate(1715.821 543.842)">
      <path id="Path_25076" data-name="Path 25076" d="M538.692,388.4c0,3.034-11.757,5.537-26.26,5.537s-26.252-2.473-26.252-5.537,11.757-5.53,26.252-5.53S538.692,385.35,538.692,388.4Z" transform="translate(-470.631 -217.887)" fill="#010101" opacity="0.02"/>
      <path id="Path_25094" data-name="Path 25094" d="M533.454,228.384s-2.222-19.782,6.94-35.976,40.057-27.048,40.057-27.048-18.515,35.134-27.064,45.169A117.146,117.146,0,0,1,533.454,228.384Z" transform="translate(-481.99 -165.36)" fill="url(#linear-gradient)"/>
      <path id="Path_25095" data-name="Path 25095" d="M532.21,292.709s1.661-16.763,7.138-27.253,25.145-25.3,35.051-29.256C574.4,236.2,562.05,283.743,532.21,292.709Z" transform="translate(-481.747 -182.467)" fill="url(#linear-gradient)"/>
      <path id="Path_25096" data-name="Path 25096" d="M496.915,271.91s-14.23-8.746-21.936-24.409-9.3-37.812-9.3-37.812S500.238,237.633,496.915,271.91Z" transform="translate(-465.68 -176.065)" fill="url(#linear-gradient)"/>
      <path id="Path_25097" data-name="Path 25097" d="M523.555,330.647A177.764,177.764,0,0,1,520,272.083a161.555,161.555,0,0,1,3.209-19.41,147.628,147.628,0,0,1,5.787-18.811l1.76-4.589c.607-1.517,1.267-3.034,1.9-4.551l.956-2.276q.5-1.138,1.024-2.276c.705-1.479,1.38-2.973,2.116-4.437a152.81,152.81,0,0,1,9.777-17.044c.925-1.358,1.881-2.685,2.844-4.012s1.972-2.609,3.034-3.861a53,53,0,0,1,6.827-7.047,38.19,38.19,0,0,0-3.406,3.512c-.554.607-1.069,1.229-1.585,1.866s-1.032,1.259-1.517,1.911c-1.016,1.274-1.942,2.617-2.9,3.937s-1.82,2.708-2.693,4.081a153.8,153.8,0,0,0-9.368,17.142c-.705,1.472-1.343,2.973-2.01,4.452l-1,2.23-.94,2.276c-.614,1.517-1.259,3.034-1.851,4.551l-1.722,4.551a144.46,144.46,0,0,0-5.613,18.674,176.733,176.733,0,0,0-4.49,38.684,195.441,195.441,0,0,0,.759,19.539,165.464,165.464,0,0,0,2.655,19.471Z" transform="translate(-478.56 -169.806)" fill="#100e3a"/>
      <path id="Path_25098" data-name="Path 25098" d="M492.53,167.09c2.04,5.871,3.868,11.818,5.681,17.772s3.436,11.962,5.006,17.992c.758,3.034,1.555,6.03,2.237,9.064l1.039,4.551.971,4.551c1.236,6.106,2.42,12.227,3.2,18.424s1.35,12.386,1.851,18.591.956,12.417,1.252,18.629.576,12.432.758,18.652.319,12.432.326,18.659c-.334-6.212-.637-12.424-1.039-18.629s-.758-12.409-1.183-18.614c-.9-12.394-1.828-24.8-3.421-37.106a358.933,358.933,0,0,0-7.092-36.53c-1.434-6.068-3-12.06-4.612-18.06S494.259,173.09,492.53,167.09Z" transform="translate(-472.164 -165.778)" fill="#100e3a"/>
      <path id="Path_25099" data-name="Path 25099" d="M551.492,264.63q-4.551,7.039-8.912,14.116c-2.928,4.726-5.825,9.474-8.579,14.29s-5.408,9.694-7.775,14.7a82.305,82.305,0,0,0-3.163,7.668,27.305,27.305,0,0,0-1.729,8.086,17.541,17.541,0,0,1,.182-4.179l.152-1.047.22-1.024.228-1.032.273-1.016a66.341,66.341,0,0,1,2.807-7.919c1.077-2.579,2.276-5.1,3.55-7.585s2.624-4.938,4-7.365,2.837-4.809,4.316-7.176,3-4.7,4.551-7Q546.3,271.2,551.492,264.63Z" transform="translate(-479.108 -189.333)" fill="#100e3a"/>
      <path id="Path_25100" data-name="Path 25100" d="M485.06,244c3.5,6.106,6.728,12.371,9.732,18.735s5.81,12.842,8.344,19.418a179.292,179.292,0,0,1,6.508,20.123,99.029,99.029,0,0,1,2.048,10.392,47.338,47.338,0,0,1,.356,10.558,52.972,52.972,0,0,0-1.054-10.445c-.645-3.444-1.517-6.827-2.442-10.21s-2.018-6.713-3.163-10.02-2.336-6.614-3.6-9.861-2.556-6.531-3.9-9.777-2.723-6.462-4.119-9.686Q489.524,253.58,485.06,244Z" transform="translate(-470.36 -184.351)" fill="#100e3a"/>
      <path id="Path_25101" data-name="Path 25101" d="M532.467,322.81l-.243,3.929-.015.152-.068,1.009v.076l-.008.076-.061,1.009-.008.159-.068.994-.008.152-.531,8.465-.015.235-.061.918-.015.243-.023.341-.038.576-.015.235-.061.925-.015.235-1.934,30.515H501.406l-1.9-30.06-.03-.379-.045-.774-.03-.387-.046-.766-.008-.121-.015-.273-.053-.766-.023-.387-.592-9.36-.015-.265-.061-.9-.015-.281-.023-.364-.03-.5-.023-.273-.053-.9-.015-.265-.2-3.224Z" transform="translate(-473.538 -203.383)" fill="#bee1f4"/>
      <path id="Path_25102" data-name="Path 25102" d="M532.244,329.62l-.008.076-.061,1.009-.008.159-.068.994-.008.152-.531,8.465-.015.235-.061.918-.015.243-.023.341h-32l-.015-.273-.053-.766-.023-.387-.592-9.36-.015-.265-.061-.9-.015-.281-.023-.364Z" transform="translate(-473.642 -205.028)" fill="#bee1f4"/>
      <rect id="Rectangle_2021" data-name="Rectangle 2021" width="39.495" height="9.732" transform="translate(22.057 117.637)" fill="#7aabbc"/>
    </g>
  </g>
</svg>
