<?xml version="1.0" encoding="UTF-8"?><svg id="Layer_2" xmlns="http://www.w3.org/2000/svg" viewBox="0 0 48 48"><defs><style>.cls-1{fill:#0091ff;}.cls-2{fill:none;}</style></defs><g id="Layer_1-2"><g><rect class="cls-2" width="48" height="48"/><g><path class="cls-1" d="M37.43,47.5h-2.02c-.06-.02-.11-.06-.17-.07-3.88-.51-6.73-2.5-8.6-5.92-.13-.24-.26-.26-.51-.2-2.33,.56-4.69,.73-7.07,.47-3.71-.41-7.11-1.68-10.11-3.91-4.36-3.24-7.1-7.52-8.13-12.87-.16-.82-.24-1.65-.36-2.48,0-.86,0-1.71,0-2.57,.03-.13,.06-.26,.08-.39,.16-.99,.25-2,.47-2.98C3.55,5.37,15.01-1.67,26.19,1.1c10.94,2.71,17.77,13.81,15.2,24.76-.12,.5,0,.69,.44,.93,2.82,1.59,4.64,3.97,5.43,7.12,.12,.49,.19,.98,.29,1.47v2.02c-.03,.1-.07,.2-.08,.3-.69,4.47-3.16,7.53-7.38,9.14-.84,.32-1.77,.44-2.66,.65Zm1.19-21.93c1.84-6.97-.9-15.61-8.6-20.01C22.8,1.43,13.45,2.97,7.84,9.23c-5.72,6.38-6.2,15.73-1.1,22.62,5.12,6.92,13.43,8.29,18.84,6.72-.63-3.8,.29-7.18,3.04-9.93,2.76-2.77,6.15-3.69,10.01-3.06Zm-2.16,2.56c-4.57-.02-8.3,3.67-8.32,8.21-.02,4.61,3.69,8.39,8.24,8.4,4.53,.01,8.38-3.79,8.4-8.3,.02-4.57-3.72-8.3-8.33-8.32Z"/><path class="cls-1" d="M19.89,11.63h2.72v8.22h5.5v2.75h-8.22V11.63Z"/><path class="cls-1" d="M9.64,11.47c.6-.6,1.22-1.22,1.82-1.82,.62,.62,1.25,1.25,1.85,1.86-.58,.58-1.22,1.21-1.82,1.81-.58-.58-1.21-1.22-1.85-1.85Z"/><path class="cls-1" d="M30.94,13.35c-.58-.58-1.21-1.21-1.79-1.8,.61-.61,1.25-1.24,1.85-1.84,.57,.57,1.2,1.2,1.8,1.8-.57,.57-1.21,1.2-1.85,1.84Z"/><path class="cls-1" d="M11.52,29.16c.58,.58,1.2,1.2,1.78,1.78-.6,.6-1.23,1.23-1.83,1.83-.56-.56-1.19-1.19-1.78-1.78,.56-.56,1.19-1.2,1.83-1.83Z"/><path class="cls-1" d="M19.88,8.82v-2.7h2.7v2.7h-2.7Z"/><path class="cls-1" d="M8.81,19.9v2.69h-2.72v-2.69h2.72Z"/><path class="cls-1" d="M36.39,19.9v2.7h-2.7v-2.7h2.7Z"/><path class="cls-1" d="M19.89,33.66h2.7v2.7h-2.7v-2.7Z"/><path class="cls-1" d="M31.39,37.35c.61-.61,1.24-1.23,1.9-1.89,.55,.56,1.13,1.15,1.71,1.74,1.54-1.54,3.03-3.03,4.48-4.48,.68,.67,1.31,1.3,1.91,1.9-2.1,2.09-4.25,4.24-6.37,6.36-1.18-1.18-2.41-2.4-3.64-3.63Z"/></g></g></g></svg>