<svg xmlns="http://www.w3.org/2000/svg" viewBox="0 0 40 40"><defs><style>.cls-1{fill:none;}.cls-2{fill:#fff;}</style></defs><g id="Layer_2" data-name="Layer 2"><g id="Layer_1-2" data-name="Layer 1"><rect class="cls-1" width="40" height="40"/><path class="cls-2" d="M3.08,38.54a1.44,1.44,0,0,1-.83-1.49c0-4.9,0-9.8,0-14.7v-.44c-.94-.17-1.4-.83-1.1-1.55a1.65,1.65,0,0,1,.35-.48L6,15.35a1.41,1.41,0,0,1,1.09-.45c1.66,0,3.31,0,5,0a.88.88,0,0,0,.58-.23q3-3,6.05-6a.83.83,0,0,0,.21-.51c0-2.06,0-4.13,0-6.19A1.15,1.15,0,0,1,20.25.61H27a1.14,1.14,0,0,1,1.3,1.29q0,2.21,0,4.41c0,.87-.41,1.28-1.3,1.28H21.19a1.15,1.15,0,0,0,.3,1.17c2,2,3.94,3.92,5.89,5.89a.8.8,0,0,0,.61.26h5a1.42,1.42,0,0,1,1.09.45c1.49,1.5,3,3,4.49,4.51a4.64,4.64,0,0,1,.46.61v.59a1.25,1.25,0,0,1-1.19.83v.48c0,4.89,0,9.79,0,14.68A1.42,1.42,0,0,1,37,38.54Zm17-28.1a1.39,1.39,0,0,0-.17.16c-1.89,1.89-3.79,3.78-5.67,5.68a.81.81,0,0,0-.19.52q0,9.56,0,19.11c0,.13,0,.26,0,.38h2.52V31.61a1.1,1.1,0,0,1,1.21-1.23h4.55a1.1,1.1,0,0,1,1.21,1.22c0,1.43,0,2.86,0,4.29v.41H26c0-.11,0-.21,0-.31q0-9.62,0-19.25a.75.75,0,0,0-.23-.5q-1.93-2-3.89-3.91ZM35.56,36.31V21.9H28.31V36.31ZM4.51,21.9V36.29h7.26V21.9Zm7.26-4.77H7.53a.53.53,0,0,0-.3.18c-.44.42-.86.85-1.29,1.28l-1.07,1h6.9Zm16.53,2.5h6.87c-.79-.79-1.53-1.55-2.29-2.28a.9.9,0,0,0-.51-.22H28.64l-.34,0ZM21.16,5.35H26V2.86H21.16ZM18.8,32.62V36.3h2.48V32.62Z"/><path class="cls-2" d="M33.07,26.14a7.73,7.73,0,0,0-.06-.85,1.09,1.09,0,0,0-1.13-.87,1.1,1.1,0,0,0-1,1c0,.44,0,.89,0,1.33a1.09,1.09,0,0,0,1,1A1.07,1.07,0,0,0,33,27,8.1,8.1,0,0,0,33.07,26.14Zm0,5.94h0a4.56,4.56,0,0,0,0-.74,1.1,1.1,0,0,0-2.19.13c0,.42,0,.84,0,1.26a1.1,1.1,0,0,0,2.18.15C33.06,32.62,33.05,32.35,33.07,32.08Z"/><path class="cls-2" d="M23.52,18.39A3.49,3.49,0,1,1,20,14.9,3.49,3.49,0,0,1,23.52,18.39Zm-3.47,1.26a1.26,1.26,0,1,0-1.28-1.25A1.25,1.25,0,0,0,20.05,19.65Z"/><path class="cls-2" d="M16.55,26.13v-.59a1.12,1.12,0,0,1,1.06-1.12,1.1,1.1,0,0,1,1.15,1,10.29,10.29,0,0,1,0,1.36,1.08,1.08,0,0,1-1.14,1,1.1,1.1,0,0,1-1.07-1.1Z"/><path class="cls-2" d="M23.52,26.12c0,.2,0,.4,0,.59a1.11,1.11,0,0,1-2.21.1,10.29,10.29,0,0,1,0-1.36,1.11,1.11,0,0,1,2.21.08C23.53,25.73,23.52,25.92,23.52,26.12Z"/><path class="cls-2" d="M33.07,26.14A8.1,8.1,0,0,1,33,27a1.07,1.07,0,0,1-1.18.84,1.09,1.09,0,0,1-1-1c0-.44,0-.89,0-1.33a1.1,1.1,0,0,1,1-1,1.09,1.09,0,0,1,1.13.87A7.73,7.73,0,0,1,33.07,26.14Z"/><path class="cls-2" d="M33.07,32.08c0,.27,0,.54,0,.8a1.1,1.1,0,0,1-2.18-.15c0-.42,0-.84,0-1.26A1.1,1.1,0,0,1,33,31.34a4.56,4.56,0,0,1,0,.74Z"/><path class="cls-2" d="M9.24,26.12c0,.22,0,.45,0,.67a1.1,1.1,0,0,1-1,1A1,1,0,0,1,7.07,27a7.58,7.58,0,0,1,0-1.65,1.06,1.06,0,0,1,1.15-.88,1.09,1.09,0,0,1,1,1C9.25,25.68,9.24,25.9,9.24,26.12Z"/><path class="cls-2" d="M9.24,32.07c0,.23,0,.47,0,.7a1.11,1.11,0,0,1-1,1A1.07,1.07,0,0,1,7.08,33a7.7,7.7,0,0,1,0-1.73,1,1,0,0,1,1.17-.83,1.07,1.07,0,0,1,1,1c0,.22,0,.44,0,.66Z"/></g></g></svg>