<svg xmlns="http://www.w3.org/2000/svg" viewBox="0 0 28 28"><defs><style>.cls-1{fill:none;}.cls-2{fill:#0091ff;}</style></defs><g id="Layer_2" data-name="Layer 2"><g id="Layer_1-2" data-name="Layer 1"><rect class="cls-1" width="28" height="28"/><path class="cls-2" d="M21.33,20.58a1,1,0,0,0-1.91.43c0,.63,0,1.26,0,1.9A2,2,0,0,1,17.34,25q-4.86,0-9.72,0a2,2,0,0,1-2.07-2.08q0-8.85,0-17.69A2,2,0,0,1,7.64,3.11h9.67a2,2,0,0,1,2.11,2.11c0,.47,0,1,0,1.42a1,1,0,1,0,2,0V5.19a4.05,4.05,0,0,0-4.11-4.11c-3.24,0-6.48,0-9.72,0a4.51,4.51,0,0,0-1.36.23A4,4,0,0,0,3.52,5.23V21.5c0,.53,0,1.05,0,1.57A3.93,3.93,0,0,0,5.8,26.58,9.53,9.53,0,0,0,7.11,27H17.85L18,27a4,4,0,0,0,3.4-3.45,22.18,22.18,0,0,0,.05-2.58A.88.88,0,0,0,21.33,20.58ZM10.87,13.63l2.24-1.88a1,1,0,0,0,.15-1.42,1,1,0,0,0-1.4-.16c-.9.73-1.79,1.48-2.66,2.24a2.25,2.25,0,0,0-.72,1.69,2.36,2.36,0,0,0,.71,1.69c.22.2.45.38.67.57L11.78,18a1,1,0,1,0,1.31-1.54l-2.38-2c-.28-.24-.28-.42,0-.67Zm13.84-1.24c-.21-.2-.43-.38-.65-.56l-1.86-1.6a1,1,0,1,0-1.31,1.55l2.25,1.92c.37.32.37.47,0,.79-.77.66-1.55,1.31-2.31,2A1,1,0,0,0,22.11,18c.89-.74,1.77-1.49,2.63-2.26a2.24,2.24,0,0,0,.7-1.67A2.33,2.33,0,0,0,24.71,12.39ZM18,9a1.07,1.07,0,0,0-.8.86c-.49,1.74-1,3.48-1.48,5.22-.26.93-.54,1.86-.78,2.8a1,1,0,0,0,.94,1.2,1,1,0,0,0,1.06-.81c.46-1.59.91-3.18,1.37-4.78.31-1.1.64-2.2.92-3.31A1,1,0,0,0,18,9ZM14.5,5.71a1,1,0,0,0-1-1q-1,0-2.1,0a1,1,0,0,0,0,2h2A1,1,0,0,0,14.5,5.71Zm-2,17.7a1,1,0,1,0-1-1A1,1,0,0,0,12.47,23.41Z"/></g></g></svg>