<svg xmlns="http://www.w3.org/2000/svg" viewBox="0 0 28 28"><defs><style>.cls-1,.cls-3{fill:none;}.cls-2{fill:#0091ff;}.cls-3{stroke:#0091ff;stroke-miterlimit:10;stroke-width:0.61px;}</style></defs><g id="Layer_2" data-name="Layer 2"><g id="Layer_1-2" data-name="Layer 1"><rect class="cls-1" width="28" height="28"/><rect class="cls-1" x="0.5" y="0.5" width="27" height="27"/><path class="cls-2" d="M18.26,11.32a1.52,1.52,0,0,0-1.61-1.19H3.36a1.53,1.53,0,0,0-1.39,1,1.43,1.43,0,0,0-.08.22V25.24a1.59,1.59,0,0,0,.61,1c.21.13.46.21.68.32H17a1.71,1.71,0,0,0,1.27-1.91c0-4.25,0-8.51,0-12.76A2.55,2.55,0,0,0,18.26,11.32Zm-1,7v6.51c0,.49-.18.67-.67.67h-13c-.49,0-.67-.18-.67-.68v-13c0-.51.17-.68.68-.68h13c.48,0,.66.17.66.67ZM24.79,1.91H3.4A1.54,1.54,0,0,0,2,3c0,.07-.05.14-.08.22v3.6c0,.05,0,.09,0,.13A1.53,1.53,0,0,0,3.5,8.07H24.89a1.54,1.54,0,0,0,1.62-1.61V3.64A1.56,1.56,0,0,0,24.79,1.91Zm.7,4.48c0,.47-.19.66-.65.66H3.56c-.47,0-.65-.19-.65-.66V3.6c0-.48.18-.66.67-.66H24.74c.6,0,.75.15.75.75Zm-2.06,3.74a3.08,3.08,0,1,0,3.08,3.06A3.07,3.07,0,0,0,23.43,10.13Zm0,5.12a2.05,2.05,0,1,1,2.06-2A2.07,2.07,0,0,1,23.43,15.25Zm2.72,3.11a1,1,0,0,0-.3,0H20.78a.51.51,0,0,0,0,1,1.18,1.18,0,0,0,.26,0h4.81a1,1,0,0,0,.3,0,.48.48,0,0,0,.37-.47A.5.5,0,0,0,26.15,18.36ZM21,22.44h3.22c.54,0,1.09,0,1.63,0a.93.93,0,0,0,.48-.17.44.44,0,0,0,.1-.53.52.52,0,0,0-.54-.33H21a1,1,0,0,0-.3,0,.47.47,0,0,0-.37.47.49.49,0,0,0,.37.5C20.83,22.43,20.94,22.43,21,22.44Zm4.9,2H21a1.63,1.63,0,0,0-.31,0,.5.5,0,0,0,0,1,1,1,0,0,0,.3,0h4.9a.53.53,0,0,0,.58-.51A.52.52,0,0,0,25.94,24.48Z"/><path class="cls-3" d="M18.26,11.32a1.52,1.52,0,0,0-1.61-1.19H3.36a1.53,1.53,0,0,0-1.39,1,1.43,1.43,0,0,0-.08.22V25.24a1.59,1.59,0,0,0,.61,1c.21.13.46.21.68.32H17a1.71,1.71,0,0,0,1.27-1.91c0-4.25,0-8.51,0-12.76A2.55,2.55,0,0,0,18.26,11.32Zm-1,7v6.51c0,.49-.18.67-.67.67h-13c-.49,0-.67-.18-.67-.68v-13c0-.51.17-.68.68-.68h13c.48,0,.66.17.66.67ZM24.79,1.91H3.4A1.54,1.54,0,0,0,2,3c0,.07-.05.14-.08.22v3.6c0,.05,0,.09,0,.13A1.53,1.53,0,0,0,3.5,8.07H24.89a1.54,1.54,0,0,0,1.62-1.61V3.64A1.56,1.56,0,0,0,24.79,1.91Zm.7,4.48c0,.47-.19.66-.65.66H3.56c-.47,0-.65-.19-.65-.66V3.6c0-.48.18-.66.67-.66H24.74c.6,0,.75.15.75.75Zm-2.06,3.74a3.08,3.08,0,1,0,3.08,3.06A3.07,3.07,0,0,0,23.43,10.13Zm0,5.12a2.05,2.05,0,1,1,2.06-2A2.07,2.07,0,0,1,23.43,15.25Zm2.72,3.11a1,1,0,0,0-.3,0H20.78a.51.51,0,0,0,0,1,1.18,1.18,0,0,0,.26,0h4.81a1,1,0,0,0,.3,0,.48.48,0,0,0,.37-.47A.5.5,0,0,0,26.15,18.36ZM21,22.44h3.22c.54,0,1.09,0,1.63,0a.93.93,0,0,0,.48-.17.44.44,0,0,0,.1-.53.52.52,0,0,0-.54-.33H21a1,1,0,0,0-.3,0,.47.47,0,0,0-.37.47.49.49,0,0,0,.37.5C20.83,22.43,20.94,22.43,21,22.44Zm4.9,2H21a1.63,1.63,0,0,0-.31,0,.5.5,0,0,0,0,1,1,1,0,0,0,.3,0h4.9a.53.53,0,0,0,.58-.51A.52.52,0,0,0,25.94,24.48Z"/></g></g></svg>