<?xml version="1.0" encoding="UTF-8"?><svg id="Layer_2" xmlns="http://www.w3.org/2000/svg" viewBox="0 0 40 40"><defs><style>.cls-1{fill:#0091ff;}.cls-2{fill:none;}</style></defs><g id="Layer_1-2"><g><rect class="cls-2" width="40" height="40"/><path class="cls-1" d="M39.53,22.51c-.74,1.27-1.48,2.54-2.23,3.81-.34,.58-.68,1.16-1.01,1.75-.11,.2-.21,.26-.45,.19-.63-.19-1.28-.34-1.91-.53-.22-.07-.38-.03-.55,.12-.33,.28-.68,.54-.98,.78,.15,.61,.34,1.19,.43,1.78,.45,3.12-2.07,6.07-5.23,6.13-1.74,.03-3.48,0-5.22,0-5.4,0-10.81,0-16.21,0-2.67,0-4.82-1.54-5.48-3.99-.61-2.25,.04-4.16,1.78-5.7,.23-.2,.31-.36,.25-.67-.87-4.66,2.47-9.45,7.15-10.23,.78-.13,1.59-.1,2.39-.15,.1,0,.2-.05,.3-.07-.03-.12-.03-.28-.1-.36-.54-.57-1.1-1.12-1.67-1.7,.11-.2,.22-.4,.33-.59,.95-1.65,1.91-3.3,2.85-4.95,.15-.26,.28-.32,.57-.23,.62,.19,1.24,.36,1.88,.5,.14,.03,.36-.01,.47-.11,1.18-.99,2.5-1.74,3.94-2.28,.14-.05,.3-.23,.34-.38,.22-.73,.4-1.46,.6-2.2h6.78c.18,.67,.38,1.35,.53,2.04,.08,.34,.24,.5,.56,.62,1.36,.49,2.6,1.21,3.7,2.15,.22,.19,.4,.24,.68,.15,.59-.19,1.2-.31,1.8-.5,.27-.09,.38,0,.51,.22,.99,1.73,1.99,3.46,2.99,5.18,.07,.12,.15,.24,.22,.35v.08c-.58,.56-1.16,1.12-1.74,1.7-.06,.06-.08,.21-.06,.31,.28,1.56,.28,3.13,0,4.69-.02,.1,.02,.26,.09,.33,.56,.57,1.14,1.12,1.71,1.68v.08Zm-11.31,5.39c.02-2.66-1-4.74-3.37-5.98-2.4-1.25-4.7-.79-6.9,.7-.8-1.78-1.92-3.2-3.71-3.97-1.8-.77-3.61-.78-5.4,0-1.43,.63-2.51,1.67-3.23,3.06-1.01,1.98-.9,3.99-.08,6.02-.37,.17-.7,.32-1.03,.49-1.24,.64-1.94,2.01-1.7,3.33,.29,1.64,1.57,2.7,3.28,2.7,5.78,0,11.57,0,17.35,0,1.4,0,2.8,.02,4.19,0,2.07-.04,3.59-2.05,3.04-4.02-.35-1.23-1.19-1.98-2.44-2.34Zm-10.28-9.45c-.03-1.81,.44-3.41,1.54-4.8,1.1-1.4,2.54-2.29,4.29-2.64,2.96-.59,5.95,.74,7.54,3.32,.78,1.27,1.14,2.66,1.04,4.15-.13,2.13-1.06,3.86-2.69,5.24,.46,.75,.74,1.52,.77,2.36,.01,.41,.18,.63,.59,.79,.58-.51,1.18-1.04,1.79-1.56,.11-.09,.31-.15,.45-.12,.51,.11,1.01,.25,1.51,.4,.21,.07,.32,.02,.43-.17,.44-.79,.89-1.57,1.35-2.34,.12-.2,.07-.31-.08-.45-.37-.35-.72-.72-1.09-1.07-.16-.15-.2-.28-.14-.5,.56-1.99,.56-3.99,0-5.98-.06-.22-.01-.35,.14-.5,.43-.41,.85-.84,1.29-1.28-.49-.85-.99-1.69-1.46-2.55-.13-.23-.25-.26-.49-.18-.46,.15-.93,.25-1.39,.39-.23,.07-.39,.05-.57-.14-1.43-1.48-3.15-2.47-5.15-2.97-.21-.05-.31-.15-.36-.37-.14-.59-.31-1.17-.46-1.75h-3.26c-.13,.48-.3,.95-.38,1.43-.08,.47-.3,.66-.76,.78-1.56,.4-2.95,1.16-4.16,2.23-.31,.28-.58,.72-.94,.8-.37,.09-.82-.17-1.24-.28q-.79-.21-1.2,.51c-.4,.7-.81,1.4-1.21,2.1,.43,.43,.83,.84,1.25,1.23,.18,.17,.27,.33,.17,.59-.1,.28-.13,.59-.22,.89-.08,.27,0,.39,.26,.52,.65,.34,1.28,.72,1.9,1.11,.32,.21,.6,.5,.94,.79Zm10.41,3.31c1.46-1.11,2.41-3.7,1.1-6.06-1.22-2.2-3.91-3.14-6.21-2.15-2.62,1.13-3.36,3.87-2.87,5.52,3.06-.32,5.73,.57,7.98,2.69Z"/></g></g></svg>