<svg xmlns="http://www.w3.org/2000/svg" viewBox="0 0 40 40"><defs><style>.cls-1{fill:none;}.cls-2{fill:#fff;}</style></defs><g id="Layer_2" data-name="Layer 2"><g id="Layer_1-2" data-name="Layer 1"><rect class="cls-1" width="40" height="40"/><path class="cls-2" d="M26.09,33.48c.28.83.53,1.61.8,2.37a.44.44,0,0,0,.32.2,2.59,2.59,0,0,1,2.46,2.2,1.32,1.32,0,0,1-1.39,1.66H11.83a1.33,1.33,0,0,1-1.41-1.69,2.6,2.6,0,0,1,2.45-2.17.46.46,0,0,0,.33-.19c.27-.77.52-1.54.8-2.38H3.53A3.23,3.23,0,0,1,.09,30V9.88A3.23,3.23,0,0,1,3.51,6.45H25.84c.09-.42.15-.82.25-1.2a7.07,7.07,0,0,1,13.84.92A9.79,9.79,0,0,1,40,7.25V30a3.24,3.24,0,0,1-3.47,3.47H26.09ZM25.84,7.73H3.5A1.94,1.94,0,0,0,1.38,9.87V28.33h.54c3.75,0,7.51,0,11.26,0a2.65,2.65,0,0,0,2.48-1.06.68.68,0,0,1,.63-.26c2.14,0,4.29.06,6.43,0a2.55,2.55,0,0,1,2.49,1.05.66.66,0,0,0,.62.26H38.3l.38,0V11.24c-2,2.38-4.4,3.44-7.37,2.72C28.12,13.19,26.37,11,25.84,7.73ZM1.4,29.62a2.14,2.14,0,0,0,2.36,2.59c10.92,0,21.85,0,32.78,0a2,2,0,0,0,2.12-2.57h-.47c-3.92,0-7.85,0-11.78,0a2.64,2.64,0,0,1-2.52-1.06.68.68,0,0,0-.63-.26c-1.79,0-3.59.07-5.39,0a2.46,2.46,0,0,0-2.41,1,.78.78,0,0,1-.73.3c-4.28,0-8.56,0-12.83,0ZM27.13,7.08A5.79,5.79,0,1,0,33,1.3,5.8,5.8,0,0,0,27.13,7.08ZM25.58,36c-.25-.76-.5-1.48-.72-2.21-.08-.29-.22-.36-.51-.36h-8c-1,0-1,0-1.3.92-.17.54-.35,1.08-.54,1.64ZM11.7,38.6H28.39a1.28,1.28,0,0,0-1.26-1.26H13A1.25,1.25,0,0,0,11.7,38.6Z"/><path class="cls-2" d="M11.64,25.75c-1.52,0-3,0-4.55,0a2.93,2.93,0,0,1-3-3.67c.67-3.17,1.38-6.33,2.1-9.49A2.91,2.91,0,0,1,9,10.31h5.27a2.89,2.89,0,0,1,2.89,2.28c.74,3.22,1.46,6.45,2.14,9.69a2.91,2.91,0,0,1-2.83,3.47c-1.63,0-3.25,0-4.87,0Zm3.25-14c0,1.12,0,2.17,0,3.23a3.21,3.21,0,0,1-6.2,1,4.37,4.37,0,0,1-.22-1.29c0-1,0-1.95,0-3A1.75,1.75,0,0,0,7.36,13L5.29,22.41A1.66,1.66,0,0,0,7,24.46h9.45a1.65,1.65,0,0,0,1.65-2.06c-.27-1.25-.55-2.51-.83-3.76-.42-1.91-.85-3.81-1.28-5.72A1.63,1.63,0,0,0,14.89,11.7Zm-1.29-.07H9.75c0,1.13,0,2.22,0,3.32a1.92,1.92,0,0,0,3.83,0C13.64,13.88,13.6,12.76,13.6,11.63Z"/><path class="cls-2" d="M22,19.29V18.05H36.1v1.24Z"/><path class="cls-2" d="M36.12,23.21v1.24H22V23.21Z"/><path class="cls-2" d="M24.57,16.72V15.48H36.12v1.24Z"/><path class="cls-2" d="M22,21.87V20.63H32.24v1.24Z"/><path class="cls-2" d="M36.1,21.89H33.59V20.63H36.1Z"/><path class="cls-2" d="M23.23,16.73H22V15.48h1.23Z"/><path class="cls-2" d="M31,27H29.73V25.78H31Z"/><path class="cls-2" d="M32.29,27V25.78h1.25V27Z"/><path class="cls-2" d="M36.11,27H34.88V25.78h1.23Z"/><path class="cls-2" d="M18.09,30.88H16.85V29.65h1.24Z"/><path class="cls-2" d="M19.41,30.88V29.65h1.25v1.23Z"/><path class="cls-2" d="M23.25,29.64v1.24H22V29.64Z"/><path class="cls-2" d="M37.15,5.61,31.66,11.1,29.33,8.78l.87-.85,1.37,1.48,4.72-4.72Z"/><path class="cls-2" d="M29.68,7.08H28.46A4.4,4.4,0,0,1,32.9,2.62V3.84C30.85,4.17,29.89,5.14,29.68,7.08Z"/></g></g></svg>