<?xml version="1.0" encoding="UTF-8"?><svg id="Layer_2" xmlns="http://www.w3.org/2000/svg" viewBox="0 0 48 48"><defs><style>.cls-1{fill:#0091ff;}.cls-2{stroke:#0091ff;stroke-miterlimit:10;stroke-width:1.03px;}.cls-2,.cls-3{fill:none;}</style></defs><g id="Layer_1-2"><g><rect class="cls-3" width="48" height="48"/><g><path class="cls-1" d="M45.22,18.75c-1.59-.9-4.46-.93-6.05,1.13-1.23,1.6-2.52,3.16-3.78,4.73-.11,.13-.26,.32-.39,.33-.76,.03-1.52,.02-2.32,.02,0-.22,0-.38,0-.54,0-1.82,.03-3.65-.02-5.47-.08-2.99-2.55-5.47-5.54-5.54-2.08-.05-4.16-.04-6.24,0-2.56,.05-4.87,1.87-5.35,4.38-.26,1.36-.17,2.78-.21,4.18-.02,.63,.39,1.05,.94,1.06,.56,.01,.96-.41,.97-1.07,.01-.83,0-1.66,.01-2.49,0-.4,.03-.82,.13-1.21,.5-1.86,1.93-2.93,3.93-2.95,1.79-.01,3.59-.01,5.38,0,.37,0,.76,.04,1.12,.13,1.86,.51,2.93,1.94,2.94,3.94,.01,1.75,0,3.5,0,5.24,0,.1-.02,.2-.03,.3-2.27,.31-3.02,1.75-2.86,3.85h-7.73c0-.27,0-.49,0-.72-.02-1.91-1.21-3.1-3.11-3.1-1.24,0-2.47-.01-3.71,0-.32,0-.52-.1-.72-.35-1.25-1.58-2.51-3.16-3.79-4.72-.78-.95-1.74-1.61-3.02-1.68-1.32-.07-2.59,.04-3.64,.98-.73,.65-1.09,1.49-1.29,2.42v13.65s.06,.07,.07,.11c.32,2.23,2.43,4.14,5.01,4.06,1.72-.05,3.44,.02,5.15-.03,.56-.02,.8,.17,1,.68,.72,1.78,1.5,3.55,2.26,5.31,.25,.58,.61,.82,1.09,.75,.72-.11,1.01-.74,.67-1.53-.89-2.09-1.8-4.17-2.68-6.27-.26-.62-.65-.87-1.31-.86-2.05,.02-4.1,.03-6.15,0-.51,0-1.07-.09-1.53-.3-1.2-.55-1.67-1.58-1.67-2.86,0-3.03,0-6.06,0-9.09,0-1.01-.01-2.02,0-3.03,.01-1.04,.57-1.84,1.48-2.01,1.23-.22,2.34-.08,3.19,1.04,1.27,1.66,2.63,3.26,3.91,4.91,.41,.53,.86,.76,1.53,.74,1.37-.04,2.74-.02,4.11-.01,.73,0,1.13,.3,1.19,.9,.03,.32,0,.66,0,1.02-.18,0-.32,.02-.47,.02-2.43,0-4.85,0-7.28,0-.32,0-.52-.1-.71-.36-.73-1-1.47-1.98-2.22-2.97-.35-.47-.74-.62-1.16-.49-.69,.23-.88,.96-.4,1.62,.78,1.06,1.58,2.09,2.35,3.15,.14,.19,.23,.46,.23,.69,.03,.95,0,1.9,.01,2.85,0,.93,.36,1.28,1.28,1.28,1.13,0,2.26,0,3.39,0,.9,.01,1.5,.47,1.82,1.3,.17,.44,.3,.88,.45,1.32,.9,2.68,1.78,5.37,2.7,8.04,.11,.31,.37,.62,.65,.8,.32,.21,.71,.08,.99-.2,.35-.34,.33-.75,.19-1.17-1.03-3.1-2.06-6.19-3.09-9.29-.23-.68-.59-1.28-1.13-1.77-.81-.72-1.77-.99-2.83-.99-.81,0-1.62,0-2.44,0v-1.89h26.92v1.89c-.83,0-1.63,0-2.43,0-2.02,.01-3.36,.97-4,2.89-1.01,3.02-2.02,6.05-3.03,9.07-.06,.18-.11,.38-.11,.57-.02,.44,.25,.79,.66,.92,.42,.13,.87-.03,1.09-.42,.1-.18,.17-.38,.24-.58,1-2.98,1.99-5.96,2.98-8.94,.38-1.14,.97-1.56,2.18-1.56,1.05,0,2.11,0,3.16,0,.87,0,1.23-.37,1.24-1.24,0-.95-.02-1.9,.01-2.85,0-.26,.11-.56,.26-.77,.53-.75,1.09-1.48,1.64-2.21,.26-.35,.54-.69,.78-1.06,.39-.62,.09-1.36-.59-1.49-.47-.09-.8,.15-1.07,.51-.74,.99-1.49,1.97-2.22,2.97-.19,.26-.39,.36-.71,.36-2.43-.01-4.85,0-7.28,0-.15,0-.29-.01-.48-.02,0-.18,0-.33,0-.48,0-1.16,.28-1.45,1.44-1.44,1.34,0,2.68-.02,4.02,.01,.57,.01,.96-.19,1.31-.63,1.31-1.67,2.66-3.31,3.98-4.98,.63-.8,1.39-1.2,2.45-1.16,1.5,.07,2.24,.76,2.24,2.27,0,3.96,0,7.93,0,11.89,0,.36-.03,.73-.12,1.07-.36,1.35-1.47,2.14-2.98,2.14-2.08,.01-4.16,.02-6.24,0-.66,0-1.06,.24-1.31,.86-.86,2.07-1.76,4.12-2.64,6.18-.07,.16-.13,.34-.16,.51-.1,.56,.24,1.01,.8,1.1,.48,.07,.84-.16,1.09-.75,.8-1.85,1.59-3.7,2.37-5.56,.13-.3,.28-.43,.62-.42,1.91,.02,3.83,.03,5.74,0,1.47-.02,2.66-.62,3.63-1.74,.61-.7,.9-1.54,1.13-2.42v-13.65c-.03-.1-.06-.2-.08-.3-.25-1.12-.84-2-1.84-2.56ZM9.17,14.77c1.77-2,1.79-4.52,.05-6.55-1.81-2.12-5.36-2.07-7.15,.06-.64,.76-1,1.63-1.21,2.58v1.27c.24,.95,.61,1.83,1.27,2.59,1.78,2.04,5.25,2.08,7.04,.06Zm-3.46-6.19c1.59,.02,2.86,1.3,2.85,2.88,0,1.58-1.28,2.87-2.86,2.89-1.57,.02-2.91-1.32-2.91-2.9,0-1.59,1.33-2.89,2.92-2.88Zm41.34,1.93c-.52-2.61-3.18-4.35-5.74-3.77-3.59,.82-4.99,4.96-2.65,7.81,1.88,2.29,5.43,2.28,7.32,.01,.61-.73,.93-1.56,1.16-2.45v-1.27c-.03-.11-.07-.23-.09-.34Zm-4.72,3.84c-1.58,0-2.9-1.31-2.89-2.91,0-1.58,1.29-2.86,2.87-2.86,1.59,0,2.92,1.32,2.9,2.9-.02,1.58-1.31,2.87-2.88,2.88Zm-18.33-2.89c2.65,0,4.83-2.19,4.82-4.84-.01-2.67-2.19-4.82-4.85-4.8-2.64,.02-4.78,2.19-4.77,4.84,0,2.64,2.17,4.8,4.81,4.81Zm0-7.71c1.58,0,2.91,1.33,2.89,2.91-.01,1.58-1.31,2.86-2.89,2.86-1.58,0-2.87-1.28-2.89-2.85-.02-1.58,1.3-2.91,2.89-2.92Zm-.93,13.53v1.88h1.87v-1.88h-1.87Zm-.04,15.9v12.51c0,.09-.02,.19,0,.27,.03,.08,.11,.21,.17,.21,.58,.02,1.16,0,1.72,0v-13.49h-1.9v.49Z"/><path class="cls-2" d="M45.22,18.75c-1.59-.9-4.46-.93-6.05,1.13-1.23,1.6-2.52,3.16-3.78,4.73-.11,.13-.26,.32-.39,.33-.76,.03-1.52,.02-2.32,.02,0-.22,0-.38,0-.54,0-1.82,.03-3.65-.02-5.47-.08-2.99-2.55-5.47-5.54-5.54-2.08-.05-4.16-.04-6.24,0-2.56,.05-4.87,1.87-5.35,4.38-.26,1.36-.17,2.78-.21,4.18-.02,.63,.39,1.05,.94,1.06,.56,.01,.96-.41,.97-1.07,.01-.83,0-1.66,.01-2.49,0-.4,.03-.82,.13-1.21,.5-1.86,1.93-2.93,3.93-2.95,1.79-.01,3.59-.01,5.38,0,.37,0,.76,.04,1.12,.13,1.86,.51,2.93,1.94,2.94,3.94,.01,1.75,0,3.5,0,5.24,0,.1-.02,.2-.03,.3-2.27,.31-3.02,1.75-2.86,3.85h-7.73c0-.27,0-.49,0-.72-.02-1.91-1.21-3.1-3.11-3.1-1.24,0-2.47-.01-3.71,0-.32,0-.52-.1-.72-.35-1.25-1.58-2.51-3.16-3.79-4.72-.78-.95-1.74-1.61-3.02-1.68-1.32-.07-2.59,.04-3.64,.98-.73,.65-1.09,1.49-1.29,2.42v13.65s.06,.07,.07,.11c.32,2.23,2.43,4.14,5.01,4.06,1.72-.05,3.44,.02,5.15-.03,.56-.02,.8,.17,1,.68,.72,1.78,1.5,3.55,2.26,5.31,.25,.58,.61,.82,1.09,.75,.72-.11,1.01-.74,.67-1.53-.89-2.09-1.8-4.17-2.68-6.27-.26-.62-.65-.87-1.31-.86-2.05,.02-4.1,.03-6.15,0-.51,0-1.07-.09-1.53-.3-1.2-.55-1.67-1.58-1.67-2.86,0-3.03,0-6.06,0-9.09,0-1.01-.01-2.02,0-3.03,.01-1.04,.57-1.84,1.48-2.01,1.23-.22,2.34-.08,3.19,1.04,1.27,1.66,2.63,3.26,3.91,4.91,.41,.53,.86,.76,1.53,.74,1.37-.04,2.74-.02,4.11-.01,.73,0,1.13,.3,1.19,.9,.03,.32,0,.66,0,1.02-.18,0-.32,.02-.47,.02-2.43,0-4.85,0-7.28,0-.32,0-.52-.1-.71-.36-.73-1-1.47-1.98-2.22-2.97-.35-.47-.74-.62-1.16-.49-.69,.23-.88,.96-.4,1.62,.78,1.06,1.58,2.09,2.35,3.15,.14,.19,.23,.46,.23,.69,.03,.95,0,1.9,.01,2.85,0,.93,.36,1.28,1.28,1.28,1.13,0,2.26,0,3.39,0,.9,.01,1.5,.47,1.82,1.3,.17,.44,.3,.88,.45,1.32,.9,2.68,1.78,5.37,2.7,8.04,.11,.31,.37,.62,.65,.8,.32,.21,.71,.08,.99-.2,.35-.34,.33-.75,.19-1.17-1.03-3.1-2.06-6.19-3.09-9.29-.23-.68-.59-1.28-1.13-1.77-.81-.72-1.77-.99-2.83-.99-.81,0-1.62,0-2.44,0v-1.89h26.92v1.89c-.83,0-1.63,0-2.43,0-2.02,.01-3.36,.97-4,2.89-1.01,3.02-2.02,6.05-3.03,9.07-.06,.18-.11,.38-.11,.57-.02,.44,.25,.79,.66,.92,.42,.13,.87-.03,1.09-.42,.1-.18,.17-.38,.24-.58,1-2.98,1.99-5.96,2.98-8.94,.38-1.14,.97-1.56,2.18-1.56,1.05,0,2.11,0,3.16,0,.87,0,1.23-.37,1.24-1.24,0-.95-.02-1.9,.01-2.85,0-.26,.11-.56,.26-.77,.53-.75,1.09-1.48,1.64-2.21,.26-.35,.54-.69,.78-1.06,.39-.62,.09-1.36-.59-1.49-.47-.09-.8,.15-1.07,.51-.74,.99-1.49,1.97-2.22,2.97-.19,.26-.39,.36-.71,.36-2.43-.01-4.85,0-7.28,0-.15,0-.29-.01-.48-.02,0-.18,0-.33,0-.48,0-1.16,.28-1.45,1.44-1.44,1.34,0,2.68-.02,4.02,.01,.57,.01,.96-.19,1.31-.63,1.31-1.67,2.66-3.31,3.98-4.98,.63-.8,1.39-1.2,2.45-1.16,1.5,.07,2.24,.76,2.24,2.27,0,3.96,0,7.93,0,11.89,0,.36-.03,.73-.12,1.07-.36,1.35-1.47,2.14-2.98,2.14-2.08,.01-4.16,.02-6.24,0-.66,0-1.06,.24-1.31,.86-.86,2.07-1.76,4.12-2.64,6.18-.07,.16-.13,.34-.16,.51-.1,.56,.24,1.01,.8,1.1,.48,.07,.84-.16,1.09-.75,.8-1.85,1.59-3.7,2.37-5.56,.13-.3,.28-.43,.62-.42,1.91,.02,3.83,.03,5.74,0,1.47-.02,2.66-.62,3.63-1.74,.61-.7,.9-1.54,1.13-2.42v-13.65c-.03-.1-.06-.2-.08-.3-.25-1.12-.84-2-1.84-2.56ZM9.17,14.77c1.77-2,1.79-4.52,.05-6.55-1.81-2.12-5.36-2.07-7.15,.06-.64,.76-1,1.63-1.21,2.58v1.27c.24,.95,.61,1.83,1.27,2.59,1.78,2.04,5.25,2.08,7.04,.06Zm-3.46-6.19c1.59,.02,2.86,1.3,2.85,2.88,0,1.58-1.28,2.87-2.86,2.89-1.57,.02-2.91-1.32-2.91-2.9,0-1.59,1.33-2.89,2.92-2.88Zm41.34,1.93c-.52-2.61-3.18-4.35-5.74-3.77-3.59,.82-4.99,4.96-2.65,7.81,1.88,2.29,5.43,2.28,7.32,.01,.61-.73,.93-1.56,1.16-2.45v-1.27c-.03-.11-.07-.23-.09-.34Zm-4.72,3.84c-1.58,0-2.9-1.31-2.89-2.91,0-1.58,1.29-2.86,2.87-2.86,1.59,0,2.92,1.32,2.9,2.9-.02,1.58-1.31,2.87-2.88,2.88Zm-18.33-2.89c2.65,0,4.83-2.19,4.82-4.84-.01-2.67-2.19-4.82-4.85-4.8-2.64,.02-4.78,2.19-4.77,4.84,0,2.64,2.17,4.8,4.81,4.81Zm0-7.71c1.58,0,2.91,1.33,2.89,2.91-.01,1.58-1.31,2.86-2.89,2.86-1.58,0-2.87-1.28-2.89-2.85-.02-1.58,1.3-2.91,2.89-2.92Zm-.93,13.53v1.88h1.87v-1.88h-1.87Zm-.04,15.9v12.51c0,.09-.02,.19,0,.27,.03,.08,.11,.21,.17,.21,.58,.02,1.16,0,1.72,0v-13.49h-1.9v.49Z"/></g></g></g></svg>