<?xml version="1.0" encoding="UTF-8"?><svg id="Layer_2" xmlns="http://www.w3.org/2000/svg" viewBox="0 0 48 48"><defs><style>.cls-1{fill:#0091ff;stroke:#0091ff;stroke-miterlimit:10;stroke-width:.99px;}.cls-2{fill:none;}</style></defs><g id="Layer_1-2"><g><rect class="cls-2" width="48" height="48"/><g><path class="cls-1" d="M25.45,.96s.06,.06,.1,.08c1.38,.46,2.02,1.33,2.02,2.78,0,3.6,0,7.2,0,10.8,0,1.92,0,3.84,0,5.76,0,.16,0,.32,0,.61,.98-1.25,2.16-1.65,3.63-1.28,.29-.82,.77-1.46,1.54-1.86,.76-.39,1.54-.44,2.38-.21,.06-.13,.12-.25,.17-.36,.51-1.14,1.42-1.73,2.64-1.8,1.18-.07,2.18,.38,2.75,1.44,1.4,2.64,2.92,5.23,3.95,8.06,.42,1.17,.75,2.37,1.14,3.55,.28,.85,.53,1.71,.89,2.54,.88,2.06,.12,4.48-1.81,5.59-.46,.26-.82,.2-1.04-.19-.21-.37-.1-.68,.34-.96,1.47-.93,1.89-2.47,1.2-4.07-.39-.9-.66-1.86-.93-2.8-.6-2.09-1.32-4.14-2.31-6.08-.83-1.63-1.68-3.24-2.53-4.86-.31-.6-.82-.91-1.5-.89-.66,.03-1.18,.32-1.5,.92-.2,.39-.25,.78-.01,1.2,.35,.62,.67,1.27,1.01,1.91,.31,.59,.26,.94-.17,1.15-.41,.2-.72,.05-1.01-.51-.32-.61-.66-1.21-.95-1.83-.27-.59-.74-.79-1.34-.77-.75,.02-1.43,.56-1.58,1.3-.05,.23-.01,.51,.09,.73,.34,.72,.73,1.41,1.09,2.11,.25,.48,.17,.84-.22,1.03-.39,.2-.72,.06-.98-.41-.32-.61-.67-1.21-.95-1.83-.3-.65-.79-.9-1.47-.86-.65,.04-1.27,.53-1.48,1.15-.14,.42-.1,.82,.11,1.22,.33,.61,.65,1.22,.96,1.83,.25,.48,.16,.83-.23,1.03-.39,.2-.72,.07-.97-.42-1.82-3.46-3.63-6.92-5.44-10.39-.06-.12-.12-.24-.19-.36-.49-.9-1.22-1.2-2.04-.84-.87,.39-1.3,1.35-.98,2.24,.07,.2,.17,.38,.27,.57,2.03,3.89,4.07,7.78,6.11,11.66,.03,.07,.07,.13,.11,.2,.19,.32,.25,.65-.04,.95-.29,.3-.61,.23-.95,.06-1.04-.56-2.09-1.11-3.14-1.66-.09-.05-.19-.1-.28-.14-.93-.47-1.82-.19-2.27,.71-.45,.91-.16,1.82,.76,2.27,3.31,1.65,6.62,3.29,9.94,4.92,.98,.48,1.72,1.16,2.24,2.12,.87,1.61,2.59,2.13,4.23,1.3,1.27-.65,2.52-1.33,3.79-1.97,.2-.1,.49-.17,.67-.09,.19,.09,.4,.36,.42,.57,.02,.2-.15,.52-.32,.61-1.46,.79-2.91,1.62-4.43,2.29-1.96,.87-4.37,.02-5.41-1.86-.48-.87-1.12-1.49-2.03-1.88-.63-.27-1.23-.6-1.91-.93,0,.27,0,.44,0,.62,0,2.46,0,4.92,0,7.38,0,1.89-1.07,2.96-2.95,2.96-6.79,0-13.58,0-20.38,0-1.94,0-2.55-.4-3.27-2.16V3.12c.32-1.12,1.04-1.84,2.16-2.16h2.52c.33,.21,.53,.49,.39,.9-.14,.41-.46,.46-.83,.45-.54,0-1.08-.01-1.62,0-.63,.02-1.18,.43-1.23,1.03-.07,.72-.02,1.45-.02,2.18H26.23c0-.55,0-1.07,0-1.59,0-1.17-.46-1.63-1.64-1.63-5.05,0-10.1,0-15.15,0-.36,0-.7-.03-.84-.44-.14-.41,.06-.69,.38-.91,5.49,0,10.98,0,16.46,0Zm-1.33,26.63c-.09-.19-.16-.33-.23-.48-1.58-3.01-3.16-6.02-4.73-9.04-.16-.31-.34-.41-.69-.41-4.24,.01-8.49,0-12.73,0-1.09,0-1.77-.62-1.78-1.65-.02-1.56-.02-3.12,0-4.68,0-1,.68-1.65,1.69-1.65,5.74,0,11.48,0,17.23,0,1.04,0,1.67,.64,1.68,1.69,0,.7,.05,1.41,0,2.11-.12,1.29,.15,2.45,.87,3.53,.27,.41,.47,.87,.7,1.31,.02-.01,.05-.02,.07-.03V6.94H2.35v31.13H26.23c0-.8-.01-1.56,0-2.33,0-.27-.1-.4-.34-.5-1.1-.51-2.2-1.03-3.29-1.56-1.03-.51-2.05-1.03-3.08-1.56-.11,.1-.22,.21-.33,.31-1.3,1.18-2.83,1.85-4.59,1.91-4.67,.15-8.16-3.75-7.52-8.4,.54-3.94,4.53-6.79,8.43-6.04,3.24,.63,5.46,2.98,5.97,6.3,.02,.1,.07,.25,.15,.29,.8,.37,1.61,.72,2.47,1.1Zm2.09,11.9H2.36c-.02,.06-.03,.09-.03,.12,0,1.53,0,3.06,0,4.59,0,.99,.5,1.49,1.5,1.49,6.97,0,13.94,0,20.91,0,.99,0,1.49-.5,1.49-1.5,0-1.45,0-2.91,0-4.36,0-.1-.01-.2-.02-.33Zm-6.07-12.92c0-2.45-2.24-4.9-4.87-5.35-2.87-.49-5.69,1.21-6.62,3.97-.91,2.73,.29,5.74,2.84,7.1,2.64,1.42,5.66,.5,7.03-1.15-1.09-1.97-.17-3.91,1.62-4.59Zm-1.8-10.24c-.18-1.37,.27-2.44,1.39-3.16,1.15-.75,2.32-.63,3.49,.14,0-.64-.02-1.21,0-1.78,.02-.38-.14-.48-.5-.48-5.63,0-11.27,0-16.9,0-.4,0-.52,.14-.51,.53,.02,1.38,0,2.76,0,4.14,0,.62,0,.62,.63,.62,3.97,0,7.94,0,11.91,0h.48Z"/><path class="cls-1" d="M14.23,44.37c-.64,0-1.29,.02-1.93,0-1.08-.03-1.77-.75-1.76-1.8,0-1.04,.68-1.77,1.73-1.79,1.33-.03,2.67-.03,4,0,1.08,.03,1.74,.76,1.73,1.83-.01,1.05-.67,1.73-1.74,1.77-.67,.02-1.35,0-2.02,0Zm0-1.35c.64,0,1.29,0,1.93,0,.31,0,.54-.11,.54-.46,0-.34-.24-.46-.55-.46-1.26,0-2.51,0-3.77,0-.3,0-.54,.11-.54,.46,0,.36,.24,.45,.54,.45,.61,0,1.23,0,1.84,0Z"/><path class="cls-1" d="M12.82,28.58c1.33-1.33,2.6-2.61,3.87-3.88,.17-.17,.33-.34,.51-.51,.32-.29,.68-.3,.96-.02,.28,.27,.29,.64,0,.96-.25,.28-.53,.53-.79,.8-1.27,1.27-2.54,2.54-3.82,3.82-.58,.58-.85,.59-1.42,.02-.56-.56-1.13-1.12-1.68-1.69-.36-.37-.38-.71-.07-1.02,.3-.3,.67-.29,1.02,.07,.47,.46,.92,.94,1.42,1.46Z"/></g></g></g></svg>