<svg xmlns="http://www.w3.org/2000/svg" viewBox="0 0 28 28"><defs><style>.cls-1{fill:none;}.cls-2{fill:#0091ff;}</style></defs><g id="Layer_2" data-name="Layer 2"><g id="Layer_1-2" data-name="Layer 1"><rect class="cls-1" width="28" height="28"/><path class="cls-2" d="M26.87,11a1,1,0,0,0-2-.16,1.7,1.7,0,0,0,0,.39V21h-.12a4.15,4.15,0,0,0-1.71-.3H4.37a1.81,1.81,0,1,1,0-3.61H6.06a1.05,1.05,0,0,0,1.17-1.18v-9h6.89a1,1,0,0,0,1-.93,1,1,0,0,0-.83-1.11,2.17,2.17,0,0,0-.36,0H7.23V2.69A1,1,0,0,0,6.14,1.6H4.26A3.84,3.84,0,0,0,.59,4.46L.47,5V19.39c0,.17.08.35.13.52a3.82,3.82,0,0,0,3.74,2.83H19.81V23c0,1.23,0,2.46,0,3.68A1.18,1.18,0,0,0,20.63,28h3.05l.09,0a3.6,3.6,0,0,0,3.1-3.72v-13A1.92,1.92,0,0,0,26.87,11ZM2.53,15.13V5.57A1.78,1.78,0,0,1,4.44,3.66h.71V15a4.89,4.89,0,0,0-2.62.43ZM23.28,25.94h-1.4v-3.2a7.86,7.86,0,0,1,1.88.09,1.6,1.6,0,0,1-.48,3.11ZM14.69,13.66a1.06,1.06,0,0,0,1.16.24c1.07-.31,2.14-.63,3.23-.88a3.48,3.48,0,0,0,1.8-1c1.66-1.69,3.35-3.36,5-5A3.08,3.08,0,0,0,25,1.85a2.92,2.92,0,0,0-3.33.64C19.73,4.34,17.86,6.23,16,8.11a1.47,1.47,0,0,0-.35.59c-.39,1.26-.77,2.54-1.16,3.81A1.06,1.06,0,0,0,14.69,13.66ZM24.51,4a1.07,1.07,0,0,1-.17,1.63L22.88,4.15A1.07,1.07,0,0,1,24.51,4Zm-7.23,6.41a3,3,0,0,1,1-1.62c1.06-1,2.08-2.07,3.09-3.09L22.8,7.12l-2.39,2.4c-.31.31-.65.61-.94,1a1.81,1.81,0,0,1-1,.57c-.49.11-1,.26-1.51.41A10.73,10.73,0,0,0,17.28,10.37Z"/></g></g></svg>