<svg xmlns="http://www.w3.org/2000/svg" viewBox="0 0 28 28"><defs><style>.cls-1{fill:none;}.cls-2{fill:#0091ff;}</style></defs><g id="Layer_2" data-name="Layer 2"><g id="Layer_1-2" data-name="Layer 1"><rect class="cls-1" width="28" height="28"/><path class="cls-2" d="M.35,16.72a4.94,4.94,0,0,1,.5-.7L7.34,9.53A1.05,1.05,0,0,1,8,9.14.93.93,0,0,1,9.1,10c0,.57,0,1.15,0,1.73,0,.42,0,.85,0,1.31h.37c3.37,0,6.75,0,10.13,0a1.07,1.07,0,0,1,1.21,1.22c0,.41,0,.82,0,1.18l4.35-4.35L20.82,6.72V8A1,1,0,0,1,19.7,9.13H12.18a1,1,0,0,1-1.06-1.26,1,1,0,0,1,1-.69h6.75c0-.11,0-.2,0-.29,0-.85,0-1.69,0-2.54a1,1,0,0,1,1-1,1.22,1.22,0,0,1,.66.3Q24,7,27.33,10.36a1,1,0,0,1,0,1.46l-6.69,6.7a1,1,0,0,1-1.14.27,1,1,0,0,1-.6-1V15.28c0-.09,0-.19,0-.31H8.31a1,1,0,0,1-1.14-1.15V12.54L2.79,16.93,7.15,21.3a.54.54,0,0,0,0-.15c0-.43,0-.86,0-1.28a1,1,0,0,1,.9-1l.26,0h7.44a1.67,1.67,0,0,1,.5.06,1,1,0,0,1,.64,1,1,1,0,0,1-.88.86H9.12v.3c0,.83,0,1.66,0,2.48s-.44,1.17-1,1.1a1.2,1.2,0,0,1-.65-.31Q4,21,.67,17.65a2.84,2.84,0,0,1-.32-.5Z"/></g></g></svg>