<?xml version="1.0" encoding="UTF-8"?><svg id="Layer_2" xmlns="http://www.w3.org/2000/svg" viewBox="0 0 69.57 69.57"><defs><style>.cls-1{fill:#0091ff;}.cls-2{fill:none;}</style></defs><g id="Layer_1-2"><g><rect class="cls-2" width="69.57" height="69.57"/><g><path class="cls-1" d="M33.72,68.93c-2.88-.35-5.19-1.99-7.6-3.39-5.51-3.2-11.02-6.4-16.52-9.63-3.64-2.13-5.52-5.31-5.53-9.54-.02-7.74-.02-15.47,0-23.21,.01-4.22,1.91-7.4,5.55-9.53,6.48-3.79,12.97-7.55,19.45-11.34,3.79-2.21,7.58-2.24,11.37-.04,6.49,3.77,12.97,7.55,19.45,11.33,3.73,2.18,5.61,5.44,5.61,9.77,0,7.6,0,15.2,0,22.81,0,4.36-1.9,7.62-5.65,9.81-6.43,3.75-12.86,7.48-19.28,11.24-1.48,.87-3.05,1.4-4.73,1.7h-2.13Zm29.51-34.08c0-3.89,0-7.78,0-11.67,0-3.3-1.44-5.82-4.28-7.49-6.63-3.89-13.26-7.76-19.92-11.6-2.83-1.64-5.72-1.61-8.55,.03-6.57,3.8-13.12,7.64-19.69,11.46-2.96,1.73-4.46,4.28-4.45,7.73,0,7.65,0,15.29,0,22.94,0,.53,0,1.07,.09,1.59,.46,2.68,1.88,4.7,4.24,6.07,6.51,3.79,13.02,7.56,19.51,11.37,3.06,1.8,6.08,1.83,9.14,.04,6.46-3.78,12.92-7.54,19.39-11.3,3.01-1.75,4.53-4.34,4.51-7.83-.02-3.78,0-7.56,0-11.34Z"/><path class="cls-1" d="M60.95,34.76c0,3.82-.02,7.65,0,11.47,.02,2.6-1.1,4.5-3.34,5.8-6.45,3.75-12.9,7.49-19.33,11.28-2.35,1.38-4.62,1.39-6.98,0-6.45-3.8-12.92-7.55-19.39-11.31-2.22-1.29-3.31-3.18-3.3-5.75,.02-7.65,.02-15.29,0-22.94,0-2.57,1.09-4.46,3.31-5.75,6.53-3.79,13.05-7.59,19.57-11.4,2.19-1.28,4.38-1.29,6.57-.01,6.56,3.82,13.13,7.64,19.69,11.47,2.14,1.25,3.21,3.12,3.21,5.6,0,3.85,0,7.69,0,11.54Zm-2.27,.05c0-3.76-.04-7.51,.02-11.27,.03-1.89-.73-3.19-2.36-4.13-6.48-3.74-12.94-7.52-19.39-11.29-1.44-.84-2.83-.85-4.28,0-6.53,3.82-13.07,7.63-19.62,11.43-1.44,.84-2.15,2.03-2.15,3.7,.01,7.69,.01,15.38,0,23.07,0,1.67,.71,2.87,2.15,3.7,6.55,3.8,13.09,7.61,19.62,11.43,1.44,.84,2.85,.82,4.28-.01,6.5-3.79,13-7.59,19.51-11.36,1.51-.87,2.25-2.11,2.23-3.87-.03-3.8,0-7.6,0-11.4Z"/><path class="cls-1" d="M24.53,28.1c0-2.18,0-4.35,0-6.53,0-.26,0-.54,.08-.79,.18-.56,.6-.84,1.17-.77,.57,.06,.92,.41,1,.99,.01,.11,.01,.22,.01,.33,0,3.67,0,7.34,0,11,0,.6-.19,1.06-.79,1.24-.62,.18-1.08-.07-1.4-.62-.08-.13-.16-.27-.24-.4-1.3-2.17-2.6-4.34-3.91-6.51-.12-.2-.25-.39-.49-.74,0,1.56,0,2.93,0,4.3,0,.89,0,1.78,0,2.67,0,.86-.41,1.35-1.12,1.36-.73,.01-1.15-.5-1.15-1.4,0-.8,0-1.6,0-2.4,0-2.8,0-5.6,0-8.4,0-.8,.27-1.26,.86-1.4,.68-.16,1.08,.21,1.4,.75,1.35,2.27,2.72,4.53,4.08,6.8,.11,.19,.23,.37,.35,.55,.04-.01,.09-.02,.13-.03Z"/><path class="cls-1" d="M32.56,25.69c.74,0,1.43-.01,2.12,0,.76,.02,1.23,.45,1.24,1.11,0,.66-.46,1.12-1.2,1.16-.35,.02-.71,0-1.07,0-.35,0-.7,0-1.13,0,0,1,0,1.95,0,2.9,0,.58,.03,1.16-.02,1.73-.05,.64-.55,1.05-1.17,1.03-.59-.02-1.02-.44-1.07-1.06-.01-.13,0-.27,0-.4,0-3.56,0-7.11,0-10.67,0-1.15,.37-1.51,1.52-1.51,2.11,0,4.22,0,6.33,0,.74,0,1.22,.47,1.23,1.12,0,.69-.48,1.13-1.27,1.15-.16,0-.31,0-.47,0-1.44,0-2.89,0-4.33,0-.22,0-.44,0-.7,0v3.43Z"/><path class="cls-1" d="M45.04,22.26c-.81,0-1.49,.01-2.18,0-.74-.01-1.23-.47-1.25-1.11-.01-.63,.49-1.15,1.21-1.15,2.22-.01,4.44-.01,6.67,0,.74,0,1.21,.47,1.21,1.14,0,.67-.47,1.11-1.21,1.13-.69,.01-1.37,0-2.14,0-.01,.26-.03,.49-.03,.73,0,3.02,0,6.04,0,9.07,0,.28,0,.59-.1,.85-.19,.56-.63,.79-1.21,.71-.55-.07-.89-.41-.94-.96-.05-.44-.02-.89-.02-1.33,0-2.76,0-5.51,0-8.27v-.79Z"/><path class="cls-1" d="M24.53,45.06c0,2.2,0,4.39,0,6.59,0,.84-.44,1.35-1.14,1.34-.69,0-1.13-.52-1.13-1.36,0-4.39,0-8.79,0-13.18,0-1.08,.87-1.7,1.69-1.23,.46,.26,.58,.68,.58,1.18,0,2.22,0,4.44,0,6.66Z"/><path class="cls-1" d="M33.62,39.33c-1.8,0-3.6,0-5.4,0-.88,0-1.42-.45-1.41-1.15,.02-.68,.54-1.11,1.39-1.11,3.62,0,7.25,0,10.87,0,.88,0,1.42,.46,1.4,1.16-.02,.68-.53,1.11-1.38,1.11-1.82,0-3.64,0-5.47,0Z"/><path class="cls-1" d="M47.86,43.88c-1.62,0-3.24,0-4.87,0-.85,0-1.37-.43-1.38-1.11-.01-.7,.53-1.16,1.41-1.16,3.22,0,6.44,0,9.66,0,.9,0,1.43,.42,1.44,1.13,.01,.72-.5,1.14-1.4,1.14-1.62,0-3.24,0-4.87,0Z"/><path class="cls-1" d="M46.69,48.44c-1.58,0-3.15,0-4.73,0-.97,0-1.47-.4-1.46-1.15,.01-.72,.51-1.12,1.43-1.13,3.22,0,6.44,0,9.66,0,.85,0,1.32,.37,1.39,1.03,.07,.71-.42,1.23-1.23,1.24-1.69,.02-3.37,0-5.06,0Z"/><path class="cls-1" d="M34.79,50.72c1.06,0,2.13-.01,3.19,0,.86,.01,1.35,.44,1.35,1.14,0,.7-.48,1.13-1.34,1.14-2.13,.01-4.26,.01-6.39,0-.86,0-1.35-.44-1.35-1.14,0-.7,.48-1.13,1.34-1.14,1.06-.01,2.13,0,3.19,0Z"/><path class="cls-1" d="M34.74,43.88c-1.06,0-2.13,0-3.19,0-.81,0-1.29-.42-1.3-1.11-.01-.7,.49-1.16,1.33-1.16,2.15,0,4.3-.01,6.45,0,.8,0,1.29,.45,1.3,1.12,.01,.71-.48,1.14-1.33,1.15-1.09,0-2.17,0-3.26,0Z"/><path class="cls-1" d="M33.59,48.44c-1.06,0-2.13,.01-3.19,0-.8-.01-1.29-.46-1.3-1.12,0-.66,.5-1.14,1.28-1.15,2.17-.02,4.35-.01,6.52,0,.79,0,1.29,.47,1.29,1.13,0,.67-.49,1.12-1.28,1.13-1.11,.01-2.22,0-3.33,0Z"/><path class="cls-1" d="M45.05,53c-.71,0-1.42,.02-2.13,0-.8-.02-1.3-.47-1.3-1.14,0-.66,.5-1.13,1.29-1.14,1.42-.02,2.84-.02,4.27,0,.8,.01,1.26,.47,1.25,1.17-.02,.66-.46,1.08-1.24,1.1-.71,.02-1.42,0-2.13,0Z"/><path class="cls-1" d="M17.71,43.87c-.4,0-.8,.02-1.2,0-.62-.04-1.04-.48-1.06-1.07-.02-.58,.37-1.12,.97-1.16,.86-.06,1.73-.06,2.59,0,.6,.04,.99,.59,.97,1.16-.03,.59-.45,1.02-1.07,1.06-.4,.03-.8,0-1.2,0Z"/><path class="cls-1" d="M17.69,48.42c-.42,0-.85,.03-1.26,0-.59-.06-.91-.43-.98-1.01-.06-.55,.29-1.12,.86-1.17,.92-.08,1.86-.08,2.78,0,.58,.04,.92,.59,.89,1.15-.03,.56-.43,.97-1.02,1.04-.04,0-.09,.01-.13,.01-.38,0-.75,0-1.13,0,0,0,0-.01,0-.02Z"/><path class="cls-1" d="M17.65,39.33c-.38,0-.76,.02-1.13,0-.61-.04-1.04-.48-1.07-1.07-.03-.6,.4-1.14,1.03-1.18,.82-.04,1.64-.04,2.46,0,.63,.03,1.06,.57,1.04,1.17-.02,.61-.47,1.05-1.13,1.08-.4,.02-.8,0-1.2,0,0,0,0,0,0,0Z"/></g></g></g></svg>