<?xml version="1.0" encoding="UTF-8"?><svg id="Layer_2" xmlns="http://www.w3.org/2000/svg" viewBox="0 0 69.57 69.57"><defs><style>.cls-1{fill:#0091ff;}.cls-2{fill:none;}</style></defs><g id="Layer_1-2"><g><rect class="cls-2" width="69.57" height="69.57"/><g><path class="cls-1" d="M.57,19.44c1.23-1.08,2.47-2.15,3.75-3.27-.65-1.34-.75-2.74-.12-4.14,.47-1.05,1.23-1.84,2.27-2.35,2.07-1.02,4.53-.45,5.94,1.38,1.4,1.82,1.31,4.35-.2,6.08-1.27,1.46-3.83,2.44-6.49,.71-.93,.78-1.89,1.55-2.82,2.38-.15,.14-.18,.48-.18,.72,0,7.18,0,14.36,0,21.54,0,2.05,.01,4.09-.01,6.14,0,.45,.14,.73,.48,1,.85,.67,1.68,1.39,2.51,2.08,2.24-1.47,5.01-1.2,6.72,.98,1.43,1.83,1.31,4.41-.26,6.13-1.57,1.72-4.1,2.08-6.09,.85-2.11-1.31-2.77-3.65-1.75-6.28-1.24-1.08-2.49-2.17-3.74-3.26,0-10.23,0-20.45,0-30.68Z"/><path class="cls-1" d="M69,50.12c-1.23,1.08-2.47,2.15-3.75,3.27,.65,1.34,.75,2.74,.12,4.14-.47,1.05-1.23,1.84-2.27,2.35-2.05,1.02-4.52,.44-5.94-1.39-1.4-1.81-1.3-4.36,.21-6.08,1.29-1.47,3.86-2.42,6.48-.7,.93-.78,1.9-1.55,2.83-2.37,.15-.14,.17-.48,.17-.73,0-7.36,0-14.72,0-22.07,0-1.89,.02-3.78-.02-5.67,0-.3-.19-.67-.42-.88-.82-.75-1.7-1.44-2.55-2.14-2.2,1.46-4.99,1.21-6.72-.99-1.41-1.8-1.31-4.37,.22-6.08,1.56-1.75,4.09-2.14,6.08-.94,2.15,1.3,2.83,3.65,1.81,6.31,1.24,1.08,2.49,2.18,3.74,3.27v30.68Z"/><path class="cls-1" d="M25.83,68.93c-1.11-.89-2.23-1.76-3.31-2.68-.36-.31-.61-.24-.99-.04-2.43,1.31-5.44,.29-6.61-2.2-1.15-2.46-.02-5.38,2.51-6.45,1.77-.75,3.8-.36,5.2,.99,1.39,1.35,1.85,3.36,1.11,5.15-.2,.48-.16,.75,.27,1.04,.48,.32,.95,.67,1.35,1.08,.79,.8,1.69,1.02,2.81,1,4.67-.06,9.35-.03,14.03-.01,.55,0,.97-.13,1.38-.49,.67-.58,1.38-1.13,2.09-1.66,.32-.24,.38-.44,.21-.83-.8-1.91-.36-3.92,1.11-5.31,1.42-1.34,3.49-1.69,5.27-.9,1.78,.8,2.91,2.63,2.83,4.6-.14,3.49-3.95,5.67-7.05,4-.43-.23-.68-.21-1.04,.09-1.07,.9-2.17,1.76-3.26,2.63H25.83Z"/><path class="cls-1" d="M59.37,34.8c0,3.76-.01,7.51,.01,11.27,0,.72-.23,1.2-.85,1.59-7.63,4.83-15.25,9.67-22.86,14.52-.62,.4-1.15,.4-1.78,0-7.61-4.85-15.23-9.69-22.86-14.52-.59-.37-.85-.81-.85-1.52,.02-7.56,.02-15.11,0-22.67,0-.74,.28-1.18,.89-1.57,7.63-4.83,15.25-9.67,22.86-14.52,.61-.39,1.11-.39,1.72,0,7.63,4.86,15.27,9.72,22.92,14.56,.6,.38,.83,.84,.83,1.53-.02,3.78-.01,7.56-.01,11.33Zm-2.14,.04c0-3.53,0-7.07,.01-10.6,0-.46-.14-.71-.53-.95-7.14-4.52-14.27-9.05-21.4-13.59-.4-.25-.67-.25-1.06,0-7.11,4.53-14.22,9.05-21.34,13.56-.42,.26-.6,.52-.6,1.04,.02,7,.02,14,0,21,0,.49,.16,.74,.56,1,7.14,4.52,14.27,9.05,21.4,13.59,.37,.24,.62,.25,1.01,0,7.14-4.55,14.29-9.1,21.46-13.62,.4-.25,.51-.52,.5-.96-.02-3.49,0-6.98,0-10.47Z"/><path class="cls-1" d="M34.72,2.77c-2.45,0-4.9,.01-7.35-.01-.52,0-.93,.1-1.33,.45-.69,.6-1.41,1.16-2.14,1.71-.32,.24-.37,.44-.21,.83,.79,1.88,.36,3.89-1.07,5.27-1.4,1.36-3.49,1.74-5.26,.95-1.84-.81-2.96-2.63-2.88-4.63,.14-3.5,3.96-5.66,7.07-3.97,.44,.24,.69,.18,1.04-.1,.91-.75,1.82-1.5,2.77-2.2,.32-.23,.76-.41,1.14-.41,5.52-.03,11.05-.03,16.57,0,.39,0,.83,.18,1.15,.41,.97,.71,1.9,1.47,2.82,2.24,.32,.26,.55,.3,.93,.09,1.83-1.02,4-.76,5.52,.61,1.52,1.37,2.01,3.48,1.25,5.36-.77,1.9-2.63,3.09-4.69,3.01-3.28-.13-5.46-3.51-4.2-6.56,.18-.43,.15-.66-.24-.93-.55-.38-1.09-.78-1.56-1.25-.72-.72-1.53-.9-2.52-.87-2.27,.06-4.54,.02-6.81,.02Z"/><path class="cls-1" d="M18.77,43.29h-4.27V26.25c1.35,0,2.7-.02,4.05,.02,.17,0,.37,.27,.49,.46,1.53,2.42,3.05,4.86,4.57,7.28,.11,.18,.24,.36,.46,.68v-8.41h4.27v17.03c-1.35,0-2.7,.02-4.05-.02-.17,0-.37-.27-.49-.46-1.53-2.42-3.05-4.86-4.57-7.28-.11-.18-.24-.36-.46-.68v8.42Z"/><path class="cls-1" d="M34.8,43.29h-4.25V26.29h9.54v4.2h-5.27v2.14h5.25v3.21h-5.27v7.45Z"/><path class="cls-1" d="M55.07,26.29v4.2h-4.21v12.78h-4.3v-12.73h-4.24v-4.25h12.75Z"/><path class="cls-1" d="M34.77,55.1c-.25-.1-.5-.18-.73-.31-3.07-1.79-6.14-3.59-9.2-5.4-.73-.43-.94-1.01-.59-1.59,.34-.57,.96-.66,1.69-.23,2.78,1.63,5.57,3.25,8.34,4.9,.38,.23,.65,.22,1.03,0,1.71-1.03,3.43-2.06,5.18-3.03,.32-.18,.83-.24,1.17-.12,.27,.1,.6,.58,.56,.86-.05,.38-.33,.84-.65,1.04-1.52,.96-3.09,1.85-4.64,2.76-.46,.27-.92,.55-1.38,.8-.23,.12-.49,.2-.76,.32Z"/><path class="cls-1" d="M27.3,19.11c.11-.14,.28-.51,.56-.69,2.09-1.27,4.21-2.49,6.31-3.73,.46-.27,.88-.19,1.32,.06,3.1,1.83,6.21,3.64,9.31,5.47,.65,.39,.84,.97,.52,1.51-.31,.54-.99,.68-1.64,.3-2.05-1.2-4.1-2.4-6.15-3.61-.75-.44-1.51-.86-2.23-1.33-.37-.24-.65-.23-1.03,0-1.73,1.04-3.48,2.06-5.23,3.07-.85,.49-1.75,.04-1.74-1.07Z"/><path class="cls-1" d="M25.15,22.27c-.59,0-1.06-.47-1.06-1.06,0-.57,.5-1.06,1.07-1.05,.57,0,1.06,.5,1.06,1.07,0,.58-.48,1.04-1.07,1.04Z"/><path class="cls-1" d="M44.39,49.41c-.57,0-1.06-.5-1.05-1.08,0-.58,.49-1.04,1.08-1.03,.6,0,1.06,.48,1.05,1.06,0,.57-.51,1.06-1.08,1.05Z"/></g></g></g></svg>