<?xml version="1.0" encoding="UTF-8"?><svg id="Layer_2" xmlns="http://www.w3.org/2000/svg" viewBox="0 0 32 32"><defs><style>.cls-1{fill:#0091ff;}.cls-2{fill:none;}</style></defs><g id="Layer_1-2"><g><rect class="cls-2" width="32" height="32"/><path class="cls-1" d="M31.13,3.88c-9.85,0-19.7,0-29.55,0-.11,0-.22-.01-.32-.02V29c.12,0,.24-.01,.35-.01,9.83,0,19.66,0,29.49,0,.12,0,.24,0,.35,.01V3.86c-.11,0-.22,.02-.32,.02Zm-1.7,23.1H3.28V5.89H29.43V26.98Zm-14.19-2.02c1.39-4.16,2.76-8.26,4.14-12.4-.64-.21-1.25-.42-1.89-.63-1.38,4.15-2.76,8.27-4.14,12.41,.64,.21,1.26,.42,1.89,.62Zm-1.88-3.45c-1.06-1.02-2.1-2.01-3.16-3.02,1.06-1.02,2.11-2.02,3.21-3.07-.51-.45-1-.87-1.5-1.32-1.48,1.41-3.02,2.89-4.59,4.38,1.57,1.5,3.12,2.98,4.67,4.46,.47-.5,.92-.96,1.38-1.44Zm9.15-3.02c-1.06,1.02-2.11,2.02-3.21,3.07,.51,.46,.99,.88,1.49,1.33,1.49-1.42,3.04-2.9,4.6-4.39-1.56-1.49-3.11-2.97-4.67-4.46-.46,.48-.91,.95-1.38,1.44,1.07,1.02,2.11,2.02,3.16,3.03ZM5.42,9.88c.6,.01,1.21,0,1.83,0v-1.98c-.62,0-1.21,0-1.81,0-.06,0-.15,.11-.16,.18-.01,.54-.01,1.08,0,1.61,0,.06,.09,.17,.13,.17Zm5.88-.13c.01-.6,0-1.21,0-1.81h-1.98v1.96c.63,0,1.23,0,1.82,0,.05,0,.15-.09,.15-.13Zm4.02-1.82h-1.96v1.94h1.96v-1.94Z"/></g></g></svg>