<?xml version="1.0" encoding="UTF-8"?><svg id="Layer_2" xmlns="http://www.w3.org/2000/svg" viewBox="0 0 69.57 69.57"><defs><style>.cls-1{fill:#0091ff;}.cls-2{fill:none;}</style></defs><g id="Layer_1-2"><g><rect class="cls-2" width="69.57" height="69.57"/><g><path class="cls-1" d="M8.12,22.46c-3.01-1-4.16-2.75-4.31-5.82-.1-2.09,.42-3.8,1.67-5.48,1.69-2.26,3.17-4.66,4.72-7.02,.38-.58,.84-.82,1.54-.82,15.39,.01,30.77,.01,46.16,0,.67,0,1.12,.22,1.49,.78,1.99,3.02,4.02,6.03,6,9.05,.22,.33,.32,.77,.35,1.17,.06,.73,.02,1.47,.02,2.2,0,3.2-1.2,4.89-4.27,5.94v.77c0,11.67,0,23.34,0,35.01,0,1.36-.27,1.64-1.63,1.64-4.14,0-8.27-.01-12.41,.02-.44,0-.92,.14-1.3,.36-3.11,1.76-6.22,3.54-9.29,5.36-1.41,.84-2.72,.83-4.13-.01-3.05-1.82-6.14-3.58-9.23-5.33-.42-.24-.95-.37-1.43-.38-4.14-.03-8.27-.02-12.41-.02-1.23,0-1.54-.31-1.54-1.53,0-11.69,0-23.39,0-35.08v-.82Zm47.88-1.89c-.99,1.22-2.39,1.96-4.12,1.96-1.75,0-3.15-.77-4.25-2.1-2.14,2.57-5.91,3.03-8.59,0-1.1,1.36-2.51,2.1-4.26,2.1-1.75,0-3.14-.79-4.25-2.13-1.14,1.4-2.53,2.13-4.26,2.13-1.75,0-3.15-.77-4.27-2.13-1.13,1.38-2.52,2.12-4.25,2.13-1.75,0-3.16-.76-4.15-1.96-1.11,.7-2.16,1.37-3.3,2.08V57.72h8.74c-.23-.15-.35-.24-.48-.31-1.33-.71-1.92-1.81-1.91-3.32,.02-5.42,.02-10.85,0-16.27,0-1.43,.58-2.47,1.83-3.16,.66-.37,1.31-.75,1.96-1.13,4.17-2.41,8.35-4.81,12.52-7.23,1.13-.65,2.27-.8,3.42-.14,5.01,2.87,10.01,5.76,15,8.66,1.04,.6,1.56,1.57,1.56,2.77,.01,5.6,0,11.2,0,16.81,0,1.23-.54,2.18-1.59,2.83-.23,.14-.45,.28-.77,.48h8.75V22.66c-1.14-.72-2.2-1.38-3.33-2.09Zm-5.19,25.49c0-2.73,0-5.47,0-8.2,0-.63-.23-1.04-.77-1.35-4.81-2.77-9.62-5.54-14.42-8.33-.59-.34-1.08-.33-1.67,.01-4.74,2.76-9.49,5.5-14.25,8.22-.66,.38-.93,.84-.93,1.6,.02,5.33,.02,10.67,0,16,0,.76,.25,1.23,.92,1.61,4.76,2.72,9.51,5.46,14.25,8.22,.62,.36,1.12,.35,1.73,0,4.76-2.77,9.53-5.52,14.31-8.26,.58-.34,.85-.77,.84-1.45-.02-2.69,0-5.38,0-8.07ZM62.67,12.9c-1.64-2.45-3.19-4.8-4.78-7.13-.12-.18-.47-.29-.72-.29-14.92-.01-29.83-.01-44.75-.02-.41,0-.63,.14-.85,.47-1.43,2.17-2.88,4.33-4.32,6.49-.09,.14-.17,.29-.28,.49H62.67ZM12.38,15.1H6c0,.85-.06,1.67,.01,2.48,.16,1.66,1.65,2.88,3.31,2.82,1.63-.06,2.98-1.39,3.05-3.03,.03-.73,0-1.46,0-2.26Zm8.53,.01h-6.39c0,.78-.02,1.51,0,2.24,.07,1.67,1.45,3.01,3.1,3.05,1.67,.04,3.13-1.21,3.27-2.87,.07-.79,.01-1.59,.01-2.42Zm2.15-.03c0,.75-.01,1.43,0,2.12,.03,1.67,1.27,3.03,2.9,3.18,1.64,.15,3.16-.94,3.42-2.59,.14-.88,.02-1.79,.02-2.71h-6.34Zm14.93,.02h-6.39c0,.77-.02,1.5,0,2.23,.06,1.67,1.44,3.01,3.1,3.06,1.67,.04,3.13-1.2,3.27-2.86,.07-.79,.01-1.59,.01-2.43Zm8.54,0h-6.39c0,.82-.04,1.59,0,2.36,.11,1.63,1.52,2.91,3.15,2.93,1.67,.01,3.1-1.27,3.22-2.93,.05-.77,0-1.54,0-2.36Zm2.15-.02c0,.78-.02,1.51,0,2.24,.06,1.59,1.31,2.91,2.88,3.06,1.56,.15,3.06-.84,3.37-2.39,.19-.93,.13-1.92,.18-2.91h-6.44Zm8.54,0c0,.76-.02,1.48,0,2.21,.05,1.59,1.29,2.91,2.86,3.08,1.58,.17,3.1-.85,3.41-2.43,.18-.92,.12-1.88,.17-2.86h-6.44Z"/><path class="cls-1" d="M23.59,46.05c0,1.88,0,3.76,0,5.64,0,.76,.01,1.51,0,2.27-.02,.68-.46,1.13-1.07,1.13-.6,0-1.06-.45-1.06-1.13,0-4.58,0-9.16,0-13.74,0-.59,.3-.99,.87-1.1,.65-.12,1.03,.25,1.26,.83,1.28,3.22,2.57,6.43,3.86,9.64,.09,.23,.18,.45,.41,.68v-.65c0-4.05,0-8.09,0-12.14,0-.22-.02-.45,.02-.67,.1-.58,.46-.92,1.05-.92,.59,0,.94,.35,1.05,.92,.03,.17,.02,.35,.02,.53,0,6.14,0,12.27,0,18.41,0,.18,.06,.41-.02,.52-.25,.33-.52,.81-.85,.87-.33,.06-.77-.27-1.1-.5-.16-.11-.19-.39-.28-.59-1.34-3.34-2.67-6.68-4-10.01-.05,0-.09,0-.14,0Z"/><path class="cls-1" d="M34.8,47.62c0,3.54,0,6.99,0,10.43,0,.18,0,.36,0,.53-.01,.82-.43,1.32-1.1,1.3-.64-.02-1.04-.5-1.04-1.29,0-3.38,0-6.76,0-10.14,0-4.91,0-9.82,0-14.74,0-1.51,1.7-2.52,3-1.78,1.24,.7,2.47,1.41,3.69,2.13,.74,.43,.96,1.01,.63,1.58-.33,.58-.95,.68-1.68,.27-1.12-.63-2.24-1.27-3.36-1.91-.01,0-.04,0-.11,.02v11.44c.96,0,1.92,0,2.89,0,.27,0,.53-.01,.8,0,.63,.04,1.06,.48,1.06,1.07,0,.58-.43,1.04-1.07,1.05-1.04,.03-2.09,0-3.13,0-.17,0-.35,0-.6,0Z"/><path class="cls-1" d="M45.47,40.08c0,4.6,0,9.06,0,13.53,0,.27,0,.53,0,.8-.02,.73-.43,1.2-1.06,1.21-.63,0-1.06-.46-1.07-1.18-.01-1.04,0-2.09,0-3.13,0-3.91-.01-7.82,.02-11.73,0-.57-.16-.91-.67-1.13-.32-.14-.63-.33-.92-.53-.55-.36-.7-.93-.41-1.44,.29-.51,.89-.72,1.44-.41,1.8,1.01,3.59,2.04,5.36,3.1,.56,.33,.68,.94,.38,1.44-.3,.5-.88,.67-1.45,.38-.51-.26-1-.56-1.6-.9Z"/></g></g></g></svg>