<svg xmlns="http://www.w3.org/2000/svg" width="658.773" height="353.553" viewBox="0 0 658.773 353.553">
  <g id="OBJECTS" transform="translate(-0.015 0.018)">
    <g id="Group_5451" data-name="Group 5451" transform="translate(0.015 -0.018)">
      <path id="Path_53544" data-name="Path 53544" d="M17.661,319.865A214.44,214.44,0,0,0,44.18,344c2.768,2.135,15.67,0,18.977,0H616.587c4.68,0,13.488,1.619,17.828-.27,9.149-3.988,4.973-22.25,4.14-30.577-1.29-12.914-4.316-25.827-11.225-36.958-18.872-30.4-51.877-41.262-77.857-63.758-25.381-21.992-42.987-51.361-63.852-77.681a377.6,377.6,0,0,0-54.915-56.123c-12.867-10.662-26.789-20.643-42.8-25.44-14-4.187-28.959-4.2-43.491-2.533a197.582,197.582,0,0,0-114.122,54.012c-34.729,33.674-63.559,83.651-109.384,103.355-25.1,10.791-53.414,12.233-78.572,22.883S-5.75,267.343,1.311,293.745C4,303.773,10.624,312.253,17.685,319.877Z" transform="translate(-0.015 8.602)" fill="#e3efff"/>
      <path id="Path_53545" data-name="Path 53545" d="M531.109,215.793c4.856.809,10.052.786,14.45-1.419,2.205-1.114,4.281-3.014,4.492-5.466a7.951,7.951,0,0,0-.563-3.249c-3.026-8.808-10.591-15.212-18.133-20.69-5.63-4.093-11.764-8.058-18.684-8.7-14.614-1.372-18.872,10.169-11.354,20.69A46.64,46.64,0,0,0,531.1,215.8Z" transform="translate(86.026 30.477)" fill="#e3efff"/>
      <g id="Group_5420" data-name="Group 5420" transform="translate(31.83 135.596)">
        <path id="Path_53546" data-name="Path 53546" d="M201.711,149.346c-43.162-10.967-55.29-33.756-55.29-33.756H85.782s-12.128,22.8-55.29,33.756c0,0-28.607,113.735,81.645,182.526h7.929c110.252-68.778,81.645-182.526,81.645-182.526Z" transform="translate(-27.153 -115.59)" fill="#6d89c9"/>
        <path id="Path_53547" data-name="Path 53547" d="M186.037,158.617C149.724,149.4,139.52,130.21,139.52,130.21H88.511s-10.2,19.177-46.517,28.407c0,0-24.068,95.685,68.685,153.555h6.674C210.1,254.3,186.037,158.617,186.037,158.617Z" transform="translate(-25.073 -113.062)" fill="#5872b4"/>
        <path id="Path_53548" data-name="Path 53548" d="M179.325,162.6c-33.369-8.48-42.752-26.109-42.752-26.109H89.693S80.309,154.119,46.941,162.6c0,0-22.121,87.944,63.137,141.134h6.134C201.469,250.542,179.348,162.6,179.348,162.6Z" transform="translate(-24.178 -111.977)" fill="#bed1f9"/>
        <circle id="Ellipse_817" data-name="Ellipse 817" cx="57.401" cy="57.401" r="57.401" transform="matrix(0.227, -0.974, 0.974, 0.227, 20.017, 142.48)" fill="#a1baf0"/>
        <circle id="Ellipse_818" data-name="Ellipse 818" cx="48.347" cy="48.347" r="48.347" transform="translate(35.06 57.525) rotate(-7.02)" fill="#dde8fa"/>
        <path id="Path_53549" data-name="Path 53549" d="M83.72,207.975l20.807,12.82,26.484-45.485,4.75,3.2-27.481,55.924L78.63,218.144Z" transform="translate(-18.253 -105.265)" fill="#6d89c9"/>
      </g>
      <g id="Group_5422" data-name="Group 5422" transform="translate(463.404 71.497)">
        <g id="Group_5421" data-name="Group 5421" transform="translate(53.648)">
          <path id="Path_53550" data-name="Path 53550" d="M498.169,151.534l9.993-4.093,2.686-8.492-5.806-9.1,9.981-4.082,2.7-8.492-5.818-9.1,9.993-4.093,4.258-13.43-3.108-24.807-15.506-4.9L491.46,79.659,440.85,239.4l34.694,10.99,28.431-89.75Z" transform="translate(-440.85 -60.94)" fill="#6d89c9"/>
          <path id="Path_53551" data-name="Path 53551" d="M446.879,196.865,440.85,215.9l34.694,10.99,6.615-20.866a68.545,68.545,0,0,0-34.377-9.2c-.3,0-.6.023-.9.023Z" transform="translate(-440.85 -37.446)" fill="#5672b3"/>
          <rect id="Rectangle_6108" data-name="Rectangle 6108" width="169.377" height="4.645" transform="translate(9.968 181.619) rotate(-72.42)" fill="#5672b3"/>
          <path id="Path_53552" data-name="Path 53552" d="M453.774,220.357l6.99-22.074c-1.525-.328-3.061-.6-4.609-.833l-6.815,21.5Z" transform="translate(-439.382 -37.338)" fill="#486096"/>
        </g>
        <path id="Path_53553" data-name="Path 53553" d="M455.678,203.54A60.574,60.574,0,0,0,426.52,317.205h58.328A60.574,60.574,0,0,0,455.69,203.54Zm0,92.9A32.325,32.325,0,1,1,488,264.12,32.326,32.326,0,0,1,455.678,296.445Z" transform="translate(-395.11 -36.286)" fill="#bed1f9"/>
        <path id="Path_53554" data-name="Path 53554" d="M454.219,313.318a50.669,50.669,0,1,0-50.669-50.669A50.667,50.667,0,0,0,454.219,313.318Zm0-85.985A35.316,35.316,0,1,1,418.9,262.649,35.315,35.315,0,0,1,454.219,227.333Z" transform="translate(-393.651 -34.826)" fill="#a1baf0"/>
        <path id="Path_53555" data-name="Path 53555" d="M453.586,308.392a46.376,46.376,0,1,0-46.376-46.376A46.372,46.372,0,0,0,453.586,308.392Zm0-78.713A32.325,32.325,0,1,1,421.261,262a32.326,32.326,0,0,1,32.325-32.325Z" transform="translate(-393.018 -34.194)" fill="#6d89c9"/>
      </g>
      <g id="Group_5423" data-name="Group 5423" transform="translate(594.956 264.99)">
        <path id="Path_53556" data-name="Path 53556" d="M564.3,257.953c0-.727-.047-1.443-.106-2.158l6.9-3.319-2.874-8.844-7.542,1.361a25.307,25.307,0,0,0-2.522-3.483l3.624-6.744-7.53-5.466-5.278,5.513a25.755,25.755,0,0,0-4.105-1.314l-1.032-7.589h-9.3L533.5,233.5a24.272,24.272,0,0,0-4.105,1.314l-5.278-5.513-7.53,5.466,3.624,6.744a24.614,24.614,0,0,0-2.522,3.483l-7.542-1.361-2.874,8.844,6.9,3.319c-.059.715-.106,1.431-.106,2.158s.047,1.443.106,2.158l-6.9,3.319,2.874,8.844,7.542-1.372a26.325,26.325,0,0,0,2.522,3.483l-3.624,6.744,7.53,5.466,5.278-5.513A25.762,25.762,0,0,0,533.5,282.4l1.032,7.589h9.3l1.032-7.589a24.284,24.284,0,0,0,4.105-1.314l5.278,5.513,7.53-5.466-3.624-6.744a24.619,24.619,0,0,0,2.522-3.483l7.542,1.372,2.874-8.844-6.9-3.319C564.249,259.4,564.3,258.681,564.3,257.953Zm-25.112,14.039a14.04,14.04,0,1,1,14.039-14.039A14.041,14.041,0,0,1,539.185,271.993Z" transform="translate(-507.27 -225.91)" fill="#bed1f9"/>
        <path id="Path_53557" data-name="Path 53557" d="M537.506,276.781a20.526,20.526,0,1,0-20.526-20.526A20.526,20.526,0,0,0,537.506,276.781Zm0-34.553a14.04,14.04,0,1,1-14.039,14.04A14.041,14.041,0,0,1,537.506,242.228Z" transform="translate(-505.591 -224.212)" fill="#a1baf0"/>
      </g>
      <g id="Group_5424" data-name="Group 5424" transform="translate(554.127 176.706)">
        <rect id="Rectangle_6109" data-name="Rectangle 6109" width="53.073" height="10.192" transform="translate(8.363 30.566)" fill="#ffba53"/>
        <rect id="Rectangle_6110" data-name="Rectangle 6110" width="53.073" height="10.192" transform="translate(5.325 10.181)" fill="#ffba53"/>
        <rect id="Rectangle_6111" data-name="Rectangle 6111" width="53.073" height="10.192" transform="translate(10.239)" fill="#ffd353"/>
        <rect id="Rectangle_6112" data-name="Rectangle 6112" width="53.073" height="10.192" transform="translate(0 20.373)" fill="#ffd353"/>
      </g>
      <g id="Group_5425" data-name="Group 5425" transform="translate(392.591 45.941)">
        <rect id="Rectangle_6113" data-name="Rectangle 6113" width="34.436" height="55.243" rx="3.9" transform="matrix(0.239, -0.971, 0.971, 0.239, 0, 33.441)" fill="#6d89c9"/>
        <circle id="Ellipse_819" data-name="Ellipse 819" cx="15.623" cy="15.623" r="15.623" transform="translate(15.3 7.682)" fill="#b1c9f1"/>
        <path id="Path_53558" data-name="Path 53558" d="M353.887,65.717l3.343-13.582a1.638,1.638,0,0,1,2.627-.88l12.374,10.122a1.643,1.643,0,0,1-.68,2.874l-15.717,3.46A1.641,1.641,0,0,1,353.887,65.717Z" transform="translate(-331.432 -37.122)" fill="#fff"/>
      </g>
      <rect id="Rectangle_6114" data-name="Rectangle 6114" width="18.285" height="29.029" rx="1.96" transform="matrix(0.239, -0.971, 0.971, 0.239, 354.897, 63.524)" fill="#b1c9f1"/>
      <rect id="Rectangle_6115" data-name="Rectangle 6115" width="15.529" height="24.654" rx="1.96" transform="matrix(0.239, -0.971, 0.971, 0.239, 419.921, 35.575)" fill="#bed1f9"/>
      <g id="Group_5426" data-name="Group 5426" transform="translate(281.611 71.936)">
        <path id="Path_53559" data-name="Path 53559" d="M6.826,0H110.616a6.833,6.833,0,0,1,6.826,6.826V119.741a6.833,6.833,0,0,1-6.826,6.826H6.826A6.833,6.833,0,0,1,0,119.741V6.826A6.833,6.833,0,0,1,6.826,0Z" transform="matrix(0.239, -0.971, 0.971, 0.239, 0, 114.047)" fill="#6d89c9"/>
        <rect id="Rectangle_6116" data-name="Rectangle 6116" width="108.762" height="117.219" rx="4.67" transform="matrix(0.239, -0.971, 0.971, 0.239, 5.58, 110.949)" fill="#5672b3"/>
        <path id="Path_53560" data-name="Path 53560" d="M350.929,194.751l-98.394-24.185a5.474,5.474,0,0,1-4.011-6.627l22.25-90.524A5.474,5.474,0,0,1,277.4,69.4l98.394,24.185a5.474,5.474,0,0,1,4.011,6.627l-22.25,90.524a5.474,5.474,0,0,1-6.627,4.011Z" transform="translate(-238.689 -59.943)" fill="#e3edf7"/>
        <path id="Path_53561" data-name="Path 53561" d="M352.91,107.695A13.465,13.465,0,1,1,339.445,94.23a13.465,13.465,0,0,1,13.465,13.465Z" transform="translate(-225.269 -55.623)" fill="#fff"/>
        <path id="Path_53562" data-name="Path 53562" d="M297.78,105.116c-11.166-4.316-42.611,23.821-42.611,23.821h0l-6.756,27.5a5.28,5.28,0,0,0,3.871,6.392l70.784,17.394,11.154-5.923-18.661-28.2s-9.055-37.638-17.781-41.016Z" transform="translate(-238.707 -53.819)" fill="#a7bde3"/>
        <path id="Path_53563" data-name="Path 53563" d="M335.122,125.711c-9.958.481-48.487,29.522-58.152,42.318L346.6,185.142a4.837,4.837,0,0,0,5.864-3.554l8.222-33.463c-5.7-7.788-17.722-22.8-25.569-22.414Z" transform="translate(-233.743 -50.181)" fill="#b1c9f1"/>
        <path id="Path_53564" data-name="Path 53564" d="M262.95,163.628s35.8-33.357,46.142-35.8,26.226,53.578,26.226,53.578L262.95,163.616Z" transform="translate(-236.167 -49.827)" fill="#bed1f1"/>
        <path id="Path_53565" data-name="Path 53565" d="M279.007,125.728c-2.146-1.572-14.8,6.955-27.5,16.362l-2.979,12.1a5.472,5.472,0,0,0,4.011,6.627l35.116,8.632h0s-4.117-40.43-8.644-43.737Z" transform="translate(-238.689 -50.21)" fill="#c9d9f5"/>
        <path id="Path_53566" data-name="Path 53566" d="M342.522,148.861c-5.536-.528-39.022,22.8-39.022,22.8h0l37.9,9.313a5.472,5.472,0,0,0,6.627-4.011l4.046-16.444C349.219,154.538,346.4,149.237,342.522,148.861Z" transform="translate(-229.156 -46.179)" fill="#c9d9f5"/>
      </g>
      <g id="Group_5427" data-name="Group 5427" transform="translate(171.249 55.937)">
        <circle id="Ellipse_820" data-name="Ellipse 820" cx="69.541" cy="69.541" r="69.541" transform="translate(1.735 1.744)" fill="#ffd353"/>
        <path id="Path_53567" data-name="Path 53567" d="M285.542,129.867l-54.3-11.541,53.836-13.418c-.422-2.123-.962-4.211-1.572-6.252l-53.824,13.418,42.447-35.621q-1.97-2.569-4.152-4.938l-42.435,35.609,22.52-50.587q-2.868-1.443-5.9-2.616l-22.039,49.484V49.242c-1.067-.047-2.146-.082-3.225-.082s-2.158.035-3.225.082V104.6L189.388,54.825q-2.973,1.284-5.806,2.827l24.279,49.789L164.206,73.333q-2.111,2.445-3.976,5.079L203.9,112.52l-54.27-11.53c-.54,2.064-.985,4.175-1.337,6.31l54.258,11.53-53.883,13.43q.633,3.184,1.548,6.263l53.894-13.441-42.576,35.726q1.953,2.569,4.14,4.95l42.588-35.726-22.625,50.81c1.912.962,3.882,1.841,5.888,2.627l22.132-49.719v54.434c1.067.047,2.146.082,3.225.082s2.158-.035,3.225-.082v-55.63l24.384,50q2.973-1.284,5.794-2.827l-24.384-50,43.8,34.213q2.094-2.445,3.964-5.09l-43.784-34.213,54.34,11.553c.54-2.064.973-4.175,1.314-6.31Z" transform="translate(-145.628 -47.416)" fill="#ffe692"/>
        <circle id="Ellipse_821" data-name="Ellipse 821" cx="58.516" cy="58.516" r="58.516" transform="translate(12.76 12.769)" fill="#ee9f53"/>
        <circle id="Ellipse_822" data-name="Ellipse 822" cx="54.821" cy="54.821" r="54.821" transform="translate(0 40.789) rotate(-21.84)" fill="#ffba53"/>
      </g>
      <path id="Path_53568" data-name="Path 53568" d="M386.417,279.253l-2.24,17.1-9.066-.645,1.4-17.019Z" transform="translate(64.836 48.205)" fill="#e38f6f"/>
      <path id="Path_53569" data-name="Path 53569" d="M394.485,97.995a12.116,12.116,0,0,1,5.126-17.734,6.434,6.434,0,0,1,4.738-.481c1.384.493,2.44,1.642,3.777,2.264,2.217,1.02,4.973.493,7.037,1.795a7.33,7.33,0,0,1,2.815,4.738,33.077,33.077,0,0,0,1.29,5.489A15.654,15.654,0,0,0,424,99.719a12.5,12.5,0,0,1,2.4,2.381,5.787,5.787,0,0,1,.516,5.454,17.311,17.311,0,0,0-.669,10.157c1.22,6.3,3.659,12.292,6.076,18.227a19.845,19.845,0,0,1,1.149,5.43,3.573,3.573,0,0,1-.692,3.061c-.751.692-1.959.692-2.733,1.349-.973.833-.9,2.322-1.185,3.577a5.656,5.656,0,0,1-9.008,3.2c-1.982-1.56-2.686-4.2-3.378-6.627a184.751,184.751,0,0,0-6.6-18.285c-1.9-4.738-2.838-9.9-4.246-14.814a34.672,34.672,0,0,0-3.413-8.8c-1.654-2.7-4.633-5.36-7.718-6.029Z" transform="translate(67.84 13.768)" fill="#5a4868"/>
      <path id="Path_53570" data-name="Path 53570" d="M460.03,216.53l17.23.094-.035,9.09-17.077-.246Z" transform="translate(79.518 37.458)" fill="#e38f6f"/>
      <path id="Path_53571" data-name="Path 53571" d="M485.331,250.206l-2.463-36a10.043,10.043,0,0,0-6.439.434c-3.284,1.431-4.891,1.173-4.375,3.2s2.686,2.346,1.877,4.187-1.56,3.3-.8,4.738,3.882,3.05,5.653,9.172c1.994,6.9,2.768,9.993,3.038,11.131.786,3.319,3.5,3.132,3.5,3.132Z" transform="translate(81.581 36.998)" fill="#58b9d6"/>
      <path id="Path_53572" data-name="Path 53572" d="M481.209,248.457a3.413,3.413,0,0,0,2.932,1.748l-2.463-36a9.828,9.828,0,0,0-2.838-.328l2.358,34.577Z" transform="translate(82.77 36.999)" fill="#b7e6f1"/>
      <path id="Path_53573" data-name="Path 53573" d="M421.5,157.268s3.788,8.984,0,31.973c-2.991,18.133,0,38.142,0,38.142s45.051-3.179,59.642-.938v11.447s-37.2,2.006-49.355,2.569-20.185.188-22.625-5.231-5.231-31.41-5.231-31.41-4.856,14.2-6.545,18.508-1.677,3.929-1.865,5.231a231.02,231.02,0,0,1-3.742,48.417c-5.043,27.293-4.668,30.847-4.668,30.847s-8.41,1.865-12.714-1.865c0,0,3.554-53.285,5.231-66.738s4.117-36.266,6.169-46.177,4.645-33.65,4.563-35.891,31.14,1.126,31.14,1.126Z" transform="translate(64.714 26.886)" fill="#4e4c71"/>
      <path id="Path_53574" data-name="Path 53574" d="M412.223,105.932s11.553,8.011,14.356,12.362,1.959,9.606.352,15.775-2.029,22.086-1.748,27.41l.281,5.325s.2.563-6.486,1.548-11.881-1.818-15.658-1.548-11.917-.281-11.917-.281.845-12.761,0-13.324-16.831,1.267-30.425-1.818l1.126-7.014s12.48.985,16.831.282,13.043-1.407,13.043-1.407-.422-4.492-.7-7.847a91.1,91.1,0,0,1,.141-9.817s-10.791,9.676-13.465,10.662S358,135.453,358,135.453l1.724-7s10.239-.493,14.591-.915c0,0,13.043-13.512,16.69-15.482s13.465-6.134,13.465-6.134h7.8Z" transform="translate(61.878 18.334)" fill="#58b9d6"/>
      <path id="Path_53575" data-name="Path 53575" d="M406.084,99.8s-.586,6.51-.516,6.99,1.677,1.2,1.607,2.311-3.718,10.239-7.507,9.184-4.633-9.184-3.718-10.239,1.888-1.818,1.677-5.958,8.433-2.3,8.433-2.3Z" transform="translate(68.381 17.204)" fill="#c8776f"/>
      <path id="Path_53576" data-name="Path 53576" d="M394.11,94.4s-.141,9.583,5.372,11.213,8.973-8.41,9.207-9.113.61.375,1.63-1.267.7-4.539-.281-4.633-1.771-.141-2.146,1.267-.422,4.164-1.361,3.742-.563-4.633-.891-4.809c-.962-.551-2.264,0-3.284-.411-.6-.235-1.032-.809-1.654-.938-.751-.164-1.478.34-2.193.61a3.758,3.758,0,0,1-3.448-.457,2.61,2.61,0,0,0-.657,1.548c-.188,1.091-.188,2.146-.293,3.261Z" transform="translate(68.121 15.482)" fill="#e38f6f"/>
      <path id="Path_53577" data-name="Path 53577" d="M408.943,146.552c-5.888,2.1-23.563,2.827-23.563,2.827h0a3.637,3.637,0,0,1,1.267.117c.422.281.422,3.542.317,6.768,6.416-1.865,16.69-4.551,21.98-6.885,7.671-3.39,13.043-22.039,13.043-22.039s-7.155,17.1-13.043,19.212Z" transform="translate(66.612 22.038)" fill="#59a5ce"/>
      <path id="Path_53578" data-name="Path 53578" d="M398.441,136.65c-1.724.6-7.659.657-11.741.633.164,1.795.293,3.155.293,3.155s9.254-1.232,13.043-1.185A54.6,54.6,0,0,0,411.53,122.2s-10.38,13.512-13.089,14.438Z" transform="translate(66.84 21.149)" fill="#59a5ce"/>
      <path id="Path_53579" data-name="Path 53579" d="M396.428,174.05S399.043,202.094,394,219.1c1.677-4.3,6.545-18.508,6.545-18.508s.188-15.142-4.117-26.543Z" transform="translate(68.102 30.113)" fill="#383752"/>
      <path id="Path_53580" data-name="Path 53580" d="M365.179,139.75s-3.413-1.126-3.835-1.818-1.325-2.815-1.325-2.815l-.622,2.545a48.755,48.755,0,0,1-6.65-1.924c-3.742-1.361-6.216-3.085-6.967-3.108a1.137,1.137,0,0,0-1.126,1.278l.141.516s-2.862-1.6-3.53-1.22-.95.938-.528,1.5,8.081,4.3,8.55,4.492-7.706-2.85-8.41-2.662-1.2,1.22-.34,1.63,8.222,2.8,8.222,2.8a17.824,17.824,0,0,0-3.765-.563c-.563.188-.8.7-.328,1.361s5.043,2.662,6.873,2.9,6.545-.141,7.248,0,5.419,1.255,5.419,1.255l.985-6.158Z" transform="translate(58.78 22.952)" fill="#e38f6f"/>
      <path id="Path_53581" data-name="Path 53581" d="M354.07,302.084h36.078a9.939,9.939,0,0,0,0-6.451c-1.22-3.366-.844-4.95-2.9-4.586s-2.522,2.522-4.3,1.583-3.179-1.771-4.668-1.126-3.308,3.671-9.536,5.02c-7.014,1.525-10.157,2.076-11.307,2.275-3.366.563-3.366,3.272-3.366,3.272Z" transform="translate(61.199 50.333)" fill="#58b9d6"/>
      <path id="Path_53582" data-name="Path 53582" d="M356.007,298.06a3.417,3.417,0,0,0-1.947,2.8h36.078a9.86,9.86,0,0,0,.528-2.8H356.007Z" transform="translate(61.197 51.554)" fill="#b7e6f1"/>
      <g id="Group_5428" data-name="Group 5428" transform="translate(352.185)">
        <rect id="Rectangle_6117" data-name="Rectangle 6117" width="29.182" height="49.977" rx="3.9" transform="matrix(0.239, -0.971, 0.971, 0.239, 0, 28.338)" fill="#18d5e4"/>
        <path id="Path_53583" data-name="Path 53583" d="M338.862,11.1,322.9,6.939l-1.536-.4-.446,1.724L317.046,23.09a5.454,5.454,0,0,0-2.686-1.56c-2.451-.633-4.809.3-5.278,2.1s1.138,3.777,3.577,4.41,4.809-.3,5.278-2.1l4.5-17.277L338.4,12.827l-2.862,10.955a5.454,5.454,0,0,0-2.686-1.56c-2.451-.633-4.809.3-5.278,2.1s1.138,3.777,3.577,4.41,4.809-.3,5.278-2.1a2.465,2.465,0,0,0,.059-.5l.059.035,3.378-12.937.446-1.724-1.536-.4Z" transform="translate(-298.778 1.152)" fill="#fff"/>
      </g>
      <g id="Group_5429" data-name="Group 5429" transform="translate(513.205 68.131)">
        <path id="Path_53584" data-name="Path 53584" d="M454.237,80.156,437.57,69.119,454.237,58.07l16.679,11.049Z" transform="translate(-437.57 -58.07)" fill="#d7eaff"/>
        <path id="Path_53585" data-name="Path 53585" d="M437.57,85.13l16.667,11.037V78.527L437.57,67.49Z" transform="translate(-437.57 -56.441)" fill="#cee1f5"/>
        <path id="Path_53586" data-name="Path 53586" d="M468.459,85.13,451.78,96.167V78.527L468.459,67.49Z" transform="translate(-435.113 -56.441)" fill="#b9d3f0"/>
      </g>
      <g id="Group_5430" data-name="Group 5430" transform="translate(71.212 64.859)">
        <path id="Path_53587" data-name="Path 53587" d="M81,82.116,60.73,68.7,81,55.28,101.253,68.7Z" transform="translate(-60.73 -55.28)" fill="#d7eaff"/>
        <path id="Path_53588" data-name="Path 53588" d="M60.73,88.16,81,101.578V80.138L60.73,66.72Z" transform="translate(-60.73 -53.302)" fill="#cee1f5"/>
        <path id="Path_53589" data-name="Path 53589" d="M98.266,88.16,78.01,101.578V80.138L98.266,66.72Z" transform="translate(-57.742 -53.302)" fill="#b9d3f0"/>
      </g>
      <path id="Path_53590" data-name="Path 53590" d="M240.765,119.034c-.762-5.079-3.73-8.14-8.656-9.395-.563-.141-1.22-.023-1.712-.551a1.805,1.805,0,0,1,.328-.4,10.106,10.106,0,0,0,4.363-8.867,11.429,11.429,0,0,0-8.621-11.541,29.432,29.432,0,0,0-8.457-1.032c-1.056,0-1.548-.258-1.6-1.443-.106-2.8-.411-5.595-.551-8.386a2.421,2.421,0,0,0-.152-.809l-6.826.5v.235c.3,2.92.493,5.853.786,8.785.082.821-.129,1.208-.962,1.29-1.056.094-2.111.188-3.143.375-1.114.2-1.419-.223-1.466-1.314-.117-2.838-.387-5.677-.551-8.527a1.614,1.614,0,0,0-.07-.446l-6.533.481a2.2,2.2,0,0,0-.035.645c.246,2.651.4,5.313.622,7.964.164,2.017.106,2.123-1.83,2.311-.188.023-.364.023-.551.035-3.3.27-6.58.551-9.876.809a.887.887,0,0,0-.176.012l.715,7.377q1.812-.194,3.624-.317c2.275-.152,3.566.844,3.917,3.12.235,1.548.293,3.108.434,4.668q1.144,12.562,2.264,25.123c.164,1.83-.6,2.733-2.451,2.944-1,.117-2.006.211-3.014.27-.106,1.6-.352,5.137-.61,8.339,3.53-.293,7.1-.34,10.615-.786,1.009-.129,1.314.211,1.372,1.255.141,2.967.434,5.923.645,8.879l6.99-.4v-.129c-.281-2.792-.422-5.583-.669-8.374-.094-1.032.106-1.665,1.314-1.677a15.222,15.222,0,0,0,2.733-.293c1.056-.2,1.478.141,1.525,1.243.141,2.885.411,5.771.6,8.656a1.949,1.949,0,0,0,.035.258l7.037-.4v-.023c-.258-2.874-.328-5.771-.575-8.644-.117-1.278.328-1.783,1.572-1.97a36.192,36.192,0,0,0,8.492-2.334c4.07-1.689,7.319-4.269,8.656-8.668a20.039,20.039,0,0,0,.457-8.867Zm-33.85-9.125q-.493-5.964-1.056-11.917c-.07-.774.059-1.091.974-1.161,3.706-.258,7.413-.727,11.06.387,4.586,1.4,6.2,6.6,3.061,9.747a9.178,9.178,0,0,1-4.046,2.311,34.93,34.93,0,0,1-9.055,1.443c-.622.047-.891-.141-.95-.809Zm17.136,19.634a12.076,12.076,0,0,1-2.686,1.208c-3.941,1.372-7.847,1.56-11.717,1.982-.657.07-.915-.235-.973-.844q-.616-6.65-1.243-13.289c-.059-.575-.023-.938.715-1.009,3.929-.352,7.847-.88,11.811-.364a12.812,12.812,0,0,1,3.824,1.067,5.9,5.9,0,0,1,3.659,5.524A6.107,6.107,0,0,1,224.052,129.543Z" transform="translate(31.985 13.267)" fill="#fff3d3"/>
      <g id="Group_5431" data-name="Group 5431" transform="translate(246.662 0.452)">
        <path id="Path_53591" data-name="Path 53591" d="M261.846,18.867A26.361,26.361,0,1,1,228.817,1.579,26.354,26.354,0,0,1,261.846,18.867Z" transform="translate(-210.317 -0.367)" fill="#6d89c9"/>
        <path id="Path_53592" data-name="Path 53592" d="M257.119,19.513A22.072,22.072,0,1,1,229.463,5.039a22.078,22.078,0,0,1,27.657,14.473Z" transform="translate(-209.684 0.266)" fill="#a1baf0"/>
        <path id="Path_53593" data-name="Path 53593" d="M253.855,19.966A19.1,19.1,0,1,1,229.916,7.439a19.106,19.106,0,0,1,23.939,12.526Z" transform="translate(-209.246 0.704)" fill="#bed1f9"/>
        <path id="Path_53594" data-name="Path 53594" d="M244.275,30.644a4.341,4.341,0,0,0-2.193-4.68c-.2-.117-.457-.141-.586-.411a.789.789,0,0,1,.164-.129,4.294,4.294,0,0,0,2.662-3.061,4.717,4.717,0,0,0-1.935-5.536,11.166,11.166,0,0,0-3.073-1.337c-.4-.106-.551-.27-.434-.751.281-1.126.481-2.275.751-3.4a1.282,1.282,0,0,0,.035-.34l-2.639-.54a.342.342,0,0,0-.023.094c-.223,1.2-.481,2.381-.7,3.589-.059.328-.188.469-.516.411a11.162,11.162,0,0,0-1.232-.188c-.446-.047-.516-.246-.4-.68.281-1.149.5-2.311.762-3.46a1.167,1.167,0,0,0,.023-.188l-2.522-.516a.743.743,0,0,0-.082.258c-.211,1.079-.457,2.158-.68,3.237-.164.821-.2.856-.962.727-.07-.012-.141-.035-.211-.047-1.278-.246-2.557-.493-3.824-.751a.149.149,0,0,1-.07-.012l-.575,3.014c.469.082.938.164,1.407.27a1.308,1.308,0,0,1,1.126,1.666c-.094.645-.246,1.267-.375,1.912-.669,3.413-1.337,6.838-2.017,10.251a.97.97,0,0,1-1.267.9c-.387-.059-.786-.129-1.173-.223-.223.622-.727,2.006-1.185,3.261,1.372.27,2.721.633,4.105.833.4.059.469.235.375.645-.281,1.2-.516,2.4-.774,3.613l2.686.6s0-.035.012-.047c.211-1.138.481-2.275.7-3.413.082-.422.223-.645.692-.528a5.481,5.481,0,0,0,1.067.176c.422.035.54.211.434.669-.282,1.161-.5,2.346-.762,3.519a.325.325,0,0,1-.012.106l2.709.61h0c.235-1.173.54-2.334.774-3.507.106-.528.328-.669.821-.61a14.422,14.422,0,0,0,3.483,0,5.56,5.56,0,0,0,4.269-2.51,8.49,8.49,0,0,0,1.185-3.483Zm-11.752-7.307c.328-1.619.657-3.237.962-4.868.059-.317.152-.434.5-.352a11.262,11.262,0,0,1,4.14,1.361,2.485,2.485,0,0,1,.035,4.222,3.623,3.623,0,0,1-1.795.481,13.4,13.4,0,0,1-3.589-.411c-.235-.047-.317-.152-.27-.422Zm4.234,9.688a4.969,4.969,0,0,1-1.149.188,19.548,19.548,0,0,1-4.656-.481c-.258-.047-.317-.2-.27-.446.352-1.806.7-3.613,1.056-5.43.047-.235.094-.375.387-.317a20.458,20.458,0,0,1,4.5,1.138,4.8,4.8,0,0,1,1.325.844,2.457,2.457,0,0,1,.751,2.6,2.556,2.556,0,0,1-1.935,1.912Z" transform="translate(-208.206 1.215)" fill="#fff"/>
      </g>
      <g id="Group_5434" data-name="Group 5434" transform="translate(124.082 86.956)">
        <path id="Path_53595" data-name="Path 53595" d="M139.711,279.29l-1.161,15.916,8.832.9.469-2.7,1.114-13.078Z" transform="translate(-100.146 -38.647)" fill="#e38f6f"/>
        <path id="Path_53596" data-name="Path 53596" d="M187.54,278.3l6.216,15.74,7.624-3.953-5.43-16.737Z" transform="translate(-91.676 -39.674)" fill="#e38f6f"/>
        <path id="Path_53597" data-name="Path 53597" d="M127.134,87.608a10.168,10.168,0,0,0,.715-7.424c-1.267-3.929-4.492-4.07-6.381-5.043s-7.366-1.888-9.817.493-3.507,4.14-4.492,4.692S105.341,83.48,106.1,86s2.8,3.085,3.085,5.114a5.835,5.835,0,0,0,3.648,4.492c1.9.774,4.492-.211,4.633-.563s9.665-7.436,9.665-7.436Z" transform="translate(-105.807 -74.12)" fill="#5a4868"/>
        <path id="Path_53598" data-name="Path 53598" d="M129.1,151.657s1.314,12.937,6.814,23.88,10.826,26.355,11.107,28.325-1.677,23-.7,41.086-4.211,55.665-6.732,60.85c0,0,6.451,3.788,12.62,1.959,0,0,5.888-39.96,8.55-54.258s4.211-53.144,4.211-53.144a87.647,87.647,0,0,1,5.747,13.324c1.818,6.029,7.718,35.468,15.987,57.906s9.395,31.832,9.395,31.832,9.395-1.536,12.761-4.351c0,0-12.1-30.659-22.015-74.784,0,0-5.231-28.419-7.847-34.964s-23-51.033-24.678-52.722S129.1,151.646,129.1,151.646Z" transform="translate(-101.779 -63.338)" fill="#4e4c71"/>
        <path id="Path_53599" data-name="Path 53599" d="M117.669,98.5s-6.873,6.873-8.621,11.494,3.929,13.324,5.888,18.016,4.9,11.635,10.1,11.354c0,0,4.281,10.591,3.929,14.861s-.352,5.255-.352,5.255,17.382-2.874,22.086-6.451a72.429,72.429,0,0,0,9.747-9.747,8.315,8.315,0,0,1-2.874-2.24c-.7-1.2-3.718-8.41-3.718-8.41s13.324-4.281,17.734-6.8,5.325-3.014,5.325-3.014l-2.451-5.255s-13.606,4.832-23.552,7.225L146.7,114.052a57.332,57.332,0,0,0,6.029,2.8,10.7,10.7,0,0,0,1.888.211s-.633-8.41-.211-10.791a75.566,75.566,0,0,1-11.588-6.732c-4.879-3.648-5.09-3.788-6.287-4s-11.705,1.126-11.705,1.126l-7.155,1.818Z" transform="translate(-105.303 -70.42)" fill="#fc736b"/>
        <path id="Path_53600" data-name="Path 53600" d="M124.866,96.923a17.271,17.271,0,0,1-1.607-6.123l-7.729,1.982s1.384,4.785.962,6.545,7.436,2.275,8.726,1.2-.352-3.589-.352-3.589Z" transform="translate(-104.126 -71.236)" fill="#c8776f"/>
        <path id="Path_53601" data-name="Path 53601" d="M126.439,85.324s1.079,11.776-4.633,11.494-8.6-7.108-8.6-7.108a2.338,2.338,0,0,1-2.416-.657,4.8,4.8,0,0,1-1.2-2.275c-.141-.5-.211-1.138.188-1.466a.991.991,0,0,1,.938-.117,2.912,2.912,0,0,1,.833.516c.411.328.821.645,1.232.974a.743.743,0,0,0,.551.223c.258-.059.364-.364.411-.622a8.98,8.98,0,0,0-.141-3.871c2.193-.059,4.48-.059,6.31-1.255a2.689,2.689,0,0,0,2.053.821,7.68,7.68,0,0,0,2.229-.446,21.209,21.209,0,0,0,1.138,2.9c.211.434.622.985,1.091.88Z" transform="translate(-105.171 -72.903)" fill="#e38f6f"/>
        <path id="Path_53602" data-name="Path 53602" d="M125.329,141.727c9.149-5.161,22.121-11.694,26.414-13.84-.188-.446-.3-.727-.3-.727s-18.532,6.24-28.818,6.732c0,0,1.548,3.847,2.709,7.835Z" transform="translate(-102.9 -64.95)" fill="#d5616b"/>
        <path id="Path_53603" data-name="Path 53603" d="M128.454,124.05a57.818,57.818,0,0,0-9.254-13.84c3.554,5.043,8.41,16.385,8.41,16.385a133.475,133.475,0,0,0,21.476-4.351l-20.631,1.795Z" transform="translate(-103.491 -67.88)" fill="#d5616b"/>
        <path id="Path_53604" data-name="Path 53604" d="M164.95,115.709a7.353,7.353,0,0,0,3.19-2.205c.844-1.372,2.205-1.994,2.522-1.783s-.07,1.3.246,1.161,5.642-4,6.592-4.316,1.372.106,1.056.563-4.938,3.577-4.938,3.577,5.993-3.261,6.662-3.437.88.563.88.844-6.873,4.105-6.873,4.105,4.6-1.888,5.008-1.783.633.422.281.95-4.973,2.487-4.973,2.487a9.515,9.515,0,0,1,2.381-.317c.211.176,0,.844-.563,1.126a8.668,8.668,0,0,1-3.929,1.232,41.305,41.305,0,0,0-5.947,1.243l-1.6-3.413Z" transform="translate(-95.581 -68.183)" fill="#e38f6f"/>
        <path id="Path_53605" data-name="Path 53605" d="M164.162,203.033c1.314-5.841,3.1-17.617-2.158-23.575-7.155-8.1-13.324-28.208-13.324-28.208,2.662,16.127,12.738,33.756,13.3,36.137s-.4,10.415-.4,10.415S162.778,200.031,164.162,203.033Z" transform="translate(-98.394 -60.785)" fill="#383752"/>
        <g id="Group_5432" data-name="Group 5432" transform="translate(36.853 254.75)">
          <path id="Path_53606" data-name="Path 53606" d="M137.876,302.029h32.993s.786-1.267-2.44-2.8-8.21-1.408-16.62-5.043a5.314,5.314,0,0,1-2.522-2.053c-1.22-1.677-2.991-.281-3.554,0a4.049,4.049,0,0,1-3.929-.094c-1.771-1.032-3.272-.657-3.929.281a5.93,5.93,0,0,0-.563,3.648,27.884,27.884,0,0,1,.563,6.076Z" transform="translate(-137.227 -291.318)" fill="#75add3"/>
          <path id="Path_53607" data-name="Path 53607" d="M137.79,300.836h32.993s.68-1.161-2.1-2.616H137.72a13.8,13.8,0,0,1,.07,2.616Z" transform="translate(-137.142 -290.124)" fill="#608ead"/>
        </g>
        <g id="Group_5433" data-name="Group 5433" transform="translate(98.875 247.941)">
          <path id="Path_53608" data-name="Path 53608" d="M192.62,298.364l32.02-7.964s.457-1.408-3.05-2.135-8.3.622-17.347-.88A5.329,5.329,0,0,1,201.3,286c-1.583-1.337-2.967.446-3.448.856a4.047,4.047,0,0,1-3.835.856c-1.97-.575-3.331.152-3.742,1.22a5.918,5.918,0,0,0,.34,3.671,27.832,27.832,0,0,1,2.006,5.759Z" transform="translate(-190.107 -285.513)" fill="#75add3"/>
          <path id="Path_53609" data-name="Path 53609" d="M192.354,297.943l32.02-7.964s.375-1.29-2.674-2.029l-30.049,7.471a14.31,14.31,0,0,1,.7,2.522Z" transform="translate(-189.84 -285.091)" fill="#608ead"/>
        </g>
      </g>
      <g id="Group_5437" data-name="Group 5437" transform="translate(134.9 0.021)">
        <circle id="Ellipse_823" data-name="Ellipse 823" cx="34.776" cy="34.776" r="34.776" transform="translate(0 0)" fill="#18d5e4"/>
        <circle id="Ellipse_824" data-name="Ellipse 824" cx="29.111" cy="29.111" r="29.111" transform="translate(5.665 5.665)" fill="#18bfd5"/>
        <circle id="Ellipse_825" data-name="Ellipse 825" cx="25.78" cy="25.78" r="25.78" transform="translate(8.996 8.996)" fill="#e9f3ff"/>
        <g id="Group_5436" data-name="Group 5436" transform="translate(19.071 10.427)">
          <path id="Path_53610" data-name="Path 53610" d="M144.66,8.89V44.1l15.165-10.439Z" transform="translate(-128.978 -8.89)" fill="#18bcd8"/>
          <path id="Path_53611" data-name="Path 53611" d="M144.66,25.01v16.3l15.165-10.439Z" transform="translate(-128.978 -6.103)" fill="#18b0d8"/>
          <path id="Path_53612" data-name="Path 53612" d="M146.9,8.89V44.1L131.73,33.661Z" transform="translate(-131.214 -8.89)" fill="#18d5e4"/>
          <path id="Path_53613" data-name="Path 53613" d="M146.9,25.01v16.3L131.73,30.874Z" transform="translate(-131.214 -6.103)" fill="#18bcd8"/>
          <g id="Group_5435" data-name="Group 5435" transform="translate(0 27.152)">
            <path id="Path_53614" data-name="Path 53614" d="M144.66,53.6,160.4,32.04,144.66,43.218Z" transform="translate(-128.978 -32.04)" fill="#18bcd8"/>
            <path id="Path_53615" data-name="Path 53615" d="M147.03,53.6,131.29,32.04l15.74,11.178Z" transform="translate(-131.29 -32.04)" fill="#18d5e4"/>
          </g>
        </g>
      </g>
      <g id="Group_5450" data-name="Group 5450" transform="translate(224.474 216.596)">
        <g id="Group_5444" data-name="Group 5444" transform="translate(49.836)">
          <rect id="Rectangle_6118" data-name="Rectangle 6118" width="78.795" height="78.795" rx="2.9" transform="translate(15.283 15.283)" fill="#6d89c9"/>
          <rect id="Rectangle_6119" data-name="Rectangle 6119" width="63.665" height="63.665" transform="translate(22.86 22.848)" fill="#ee9f53"/>
          <rect id="Rectangle_6120" data-name="Rectangle 6120" width="55.102" height="55.102" transform="translate(27.141 27.129)" fill="#ffba53"/>
          <g id="Group_5442" data-name="Group 5442">
            <g id="Group_5438" data-name="Group 5438" transform="translate(25.569)">
              <path id="Path_53616" data-name="Path 53616" d="M257.883,184.65h0a2.2,2.2,0,0,0-2.193,2.193v13.09h4.4v-13.09a2.2,2.2,0,0,0-2.193-2.193Z" transform="translate(-255.69 -184.65)" fill="#556a9c"/>
              <path id="Path_53617" data-name="Path 53617" d="M269.363,184.65h0a2.2,2.2,0,0,0-2.193,2.193v13.09h4.4v-13.09a2.2,2.2,0,0,0-2.193-2.193Z" transform="translate(-253.705 -184.65)" fill="#556a9c"/>
              <path id="Path_53618" data-name="Path 53618" d="M280.843,184.65h0a2.2,2.2,0,0,0-2.193,2.193v13.09h4.4v-13.09a2.2,2.2,0,0,0-2.193-2.193Z" transform="translate(-251.72 -184.65)" fill="#556a9c"/>
              <path id="Path_53619" data-name="Path 53619" d="M292.313,184.65h0a2.2,2.2,0,0,0-2.193,2.193v13.09h4.4v-13.09a2.2,2.2,0,0,0-2.193-2.193Z" transform="translate(-249.737 -184.65)" fill="#556a9c"/>
              <path id="Path_53620" data-name="Path 53620" d="M303.793,184.65h0a2.2,2.2,0,0,0-2.193,2.193v13.09H306v-13.09a2.2,2.2,0,0,0-2.193-2.193Z" transform="translate(-247.753 -184.65)" fill="#556a9c"/>
            </g>
            <g id="Group_5439" data-name="Group 5439" transform="translate(25.557 94.078)">
              <path id="Path_53621" data-name="Path 53621" d="M303.8,280.143h0a2.2,2.2,0,0,0,2.193-2.193V264.86h-4.4v13.089a2.2,2.2,0,0,0,2.193,2.193Z" transform="translate(-247.742 -264.86)" fill="#556a9c"/>
              <path id="Path_53622" data-name="Path 53622" d="M292.315,280.143h0a2.2,2.2,0,0,0,2.193-2.193V264.86h-4.4v13.089a2.2,2.2,0,0,0,2.193,2.193Z" transform="translate(-249.727 -264.86)" fill="#556a9c"/>
              <path id="Path_53623" data-name="Path 53623" d="M280.845,280.143h0a2.2,2.2,0,0,0,2.193-2.193V264.86h-4.4v13.089a2.2,2.2,0,0,0,2.193,2.193Z" transform="translate(-251.71 -264.86)" fill="#556a9c"/>
              <path id="Path_53624" data-name="Path 53624" d="M269.365,280.143h0a2.2,2.2,0,0,0,2.193-2.193V264.86h-4.4v13.089a2.2,2.2,0,0,0,2.193,2.193Z" transform="translate(-253.695 -264.86)" fill="#556a9c"/>
              <path id="Path_53625" data-name="Path 53625" d="M257.885,280.143h0a2.2,2.2,0,0,0,2.193-2.193V264.86h-4.4v13.089a2.2,2.2,0,0,0,2.193,2.193Z" transform="translate(-255.68 -264.86)" fill="#556a9c"/>
            </g>
            <g id="Group_5440" data-name="Group 5440" transform="translate(94.089 25.569)">
              <path id="Path_53626" data-name="Path 53626" d="M329.393,208.643h0a2.2,2.2,0,0,0-2.193-2.193H314.11v4.4H327.2a2.2,2.2,0,0,0,2.193-2.193Z" transform="translate(-314.11 -206.45)" fill="#556a9c"/>
              <path id="Path_53627" data-name="Path 53627" d="M329.393,220.113h0a2.2,2.2,0,0,0-2.193-2.193H314.11v4.4H327.2a2.2,2.2,0,0,0,2.193-2.193Z" transform="translate(-314.11 -204.467)" fill="#556a9c"/>
              <path id="Path_53628" data-name="Path 53628" d="M329.393,231.593h0A2.2,2.2,0,0,0,327.2,229.4H314.11v4.4H327.2a2.2,2.2,0,0,0,2.193-2.193Z" transform="translate(-314.11 -202.482)" fill="#556a9c"/>
              <path id="Path_53629" data-name="Path 53629" d="M329.393,243.073h0a2.2,2.2,0,0,0-2.193-2.193H314.11v4.4H327.2a2.2,2.2,0,0,0,2.193-2.193Z" transform="translate(-314.11 -200.497)" fill="#556a9c"/>
              <path id="Path_53630" data-name="Path 53630" d="M329.393,254.543h0a2.2,2.2,0,0,0-2.193-2.193H314.11v4.4H327.2a2.2,2.2,0,0,0,2.193-2.193Z" transform="translate(-314.11 -198.514)" fill="#556a9c"/>
            </g>
            <g id="Group_5441" data-name="Group 5441" transform="translate(0 25.557)">
              <path id="Path_53631" data-name="Path 53631" d="M233.89,254.545h0a2.2,2.2,0,0,0,2.193,2.193h13.089v-4.4H236.083a2.2,2.2,0,0,0-2.193,2.193Z" transform="translate(-233.89 -198.504)" fill="#556a9c"/>
              <path id="Path_53632" data-name="Path 53632" d="M233.89,243.075h0a2.2,2.2,0,0,0,2.193,2.193h13.089v-4.4H236.083a2.2,2.2,0,0,0-2.193,2.193Z" transform="translate(-233.89 -200.487)" fill="#556a9c"/>
              <path id="Path_53633" data-name="Path 53633" d="M233.89,231.6h0a2.2,2.2,0,0,0,2.193,2.193h13.089v-4.4H236.083a2.2,2.2,0,0,0-2.193,2.193Z" transform="translate(-233.89 -202.472)" fill="#556a9c"/>
              <path id="Path_53634" data-name="Path 53634" d="M233.89,220.115h0a2.2,2.2,0,0,0,2.193,2.193h13.089v-4.4H236.083a2.2,2.2,0,0,0-2.193,2.193Z" transform="translate(-233.89 -204.457)" fill="#556a9c"/>
              <path id="Path_53635" data-name="Path 53635" d="M233.89,208.645h0a2.2,2.2,0,0,0,2.193,2.193h13.089v-4.4H236.083a2.2,2.2,0,0,0-2.193,2.193Z" transform="translate(-233.89 -206.44)" fill="#556a9c"/>
            </g>
          </g>
          <g id="Group_5443" data-name="Group 5443" transform="translate(12.128 12.116)">
            <rect id="Rectangle_6121" data-name="Rectangle 6121" width="4.398" height="3.167" transform="translate(53.824)" fill="#3d4c70"/>
            <rect id="Rectangle_6122" data-name="Rectangle 6122" width="4.398" height="3.167" transform="translate(40.359)" fill="#3d4c70"/>
            <rect id="Rectangle_6123" data-name="Rectangle 6123" width="4.398" height="3.167" transform="translate(13.441)" fill="#3d4c70"/>
            <rect id="Rectangle_6124" data-name="Rectangle 6124" width="4.398" height="3.167" transform="translate(26.906)" fill="#3d4c70"/>
            <rect id="Rectangle_6125" data-name="Rectangle 6125" width="3.167" height="4.398" transform="translate(81.962 13.441)" fill="#3d4c70"/>
            <rect id="Rectangle_6126" data-name="Rectangle 6126" width="3.167" height="4.398" transform="translate(81.962 67.289)" fill="#3d4c70"/>
            <rect id="Rectangle_6127" data-name="Rectangle 6127" width="3.167" height="4.398" transform="translate(81.962 26.906)" fill="#3d4c70"/>
            <rect id="Rectangle_6128" data-name="Rectangle 6128" width="3.167" height="4.398" transform="translate(81.962 40.371)" fill="#3d4c70"/>
            <rect id="Rectangle_6129" data-name="Rectangle 6129" width="3.167" height="4.398" transform="translate(81.962 53.824)" fill="#3d4c70"/>
            <rect id="Rectangle_6130" data-name="Rectangle 6130" width="4.398" height="3.167" transform="translate(13.441 81.962)" fill="#3d4c70"/>
            <rect id="Rectangle_6131" data-name="Rectangle 6131" width="3.167" height="4.398" transform="translate(0 40.371)" fill="#3d4c70"/>
            <rect id="Rectangle_6132" data-name="Rectangle 6132" width="3.167" height="4.398" transform="translate(0 26.906)" fill="#3d4c70"/>
            <rect id="Rectangle_6133" data-name="Rectangle 6133" width="3.167" height="4.398" transform="translate(0 13.441)" fill="#3d4c70"/>
            <rect id="Rectangle_6134" data-name="Rectangle 6134" width="3.167" height="4.398" transform="translate(0 53.824)" fill="#3d4c70"/>
            <rect id="Rectangle_6135" data-name="Rectangle 6135" width="3.167" height="4.398" transform="translate(0 67.289)" fill="#3d4c70"/>
            <rect id="Rectangle_6136" data-name="Rectangle 6136" width="4.398" height="3.167" transform="translate(67.289)" fill="#3d4c70"/>
            <rect id="Rectangle_6137" data-name="Rectangle 6137" width="4.398" height="3.167" transform="translate(40.359 81.962)" fill="#3d4c70"/>
            <rect id="Rectangle_6138" data-name="Rectangle 6138" width="4.398" height="3.167" transform="translate(53.824 81.962)" fill="#3d4c70"/>
            <rect id="Rectangle_6139" data-name="Rectangle 6139" width="4.398" height="3.167" transform="translate(26.906 81.962)" fill="#3d4c70"/>
            <rect id="Rectangle_6140" data-name="Rectangle 6140" width="4.398" height="3.167" transform="translate(67.289 81.962)" fill="#3d4c70"/>
          </g>
        </g>
        <g id="Group_5449" data-name="Group 5449" transform="translate(0 16.69)">
          <g id="Group_5445" data-name="Group 5445" transform="translate(159.595 1.689)">
            <path id="Path_53636" data-name="Path 53636" d="M370.487,200.332H352.167a.45.45,0,0,0-.352.176l-9.77,13.277H329.366a.446.446,0,0,0,0,.891H356a.446.446,0,1,0,0-.891H343.135l9.254-12.573h18.1a.446.446,0,1,0,0-.891Z" transform="translate(-327.219 -200.32)" fill="#6d89c9"/>
            <path id="Path_53637" data-name="Path 53637" d="M363.1,224.651a.446.446,0,1,0,0-.891H329.356a.446.446,0,0,0,0,.891Z" transform="translate(-327.221 -196.267)" fill="#6d89c9"/>
            <path id="Path_53638" data-name="Path 53638" d="M366.527,244.519H350.236l-5.1-8.656a.439.439,0,0,0-.387-.223H327.916a.446.446,0,0,0,0,.891h16.573l5.1,8.656a.439.439,0,0,0,.387.223h16.549a.446.446,0,1,0,0-.891Z" transform="translate(-327.47 -194.213)" fill="#6d89c9"/>
            <path id="Path_53639" data-name="Path 53639" d="M357.411,252.93H332.546a.446.446,0,1,0,0,.891h24.865a.446.446,0,1,0,0-.891Z" transform="translate(-326.669 -191.224)" fill="#6d89c9"/>
          </g>
          <g id="Group_5446" data-name="Group 5446" transform="translate(3.498 8.644)">
            <path id="Path_53640" data-name="Path 53640" d="M236.8,214.648a.223.223,0,0,0,.223-.223.216.216,0,0,0-.223-.223H219.55l-4.422-7.835a.223.223,0,0,0-.188-.117h-7.847a.223.223,0,0,0-.223.223.216.216,0,0,0,.223.223h7.718l4.234,7.507h-19.74l-4.563-3.507a.227.227,0,0,0-.317.047.212.212,0,0,0,.047.3l4.633,3.554a.368.368,0,0,0,.141.047h37.579Z" transform="translate(-194.382 -206.25)" fill="#6d89c9"/>
            <path id="Path_53641" data-name="Path 53641" d="M234.689,226.54H206.833a.223.223,0,0,0-.223.223.216.216,0,0,0,.223.223h27.856a.223.223,0,0,0,.223-.223A.216.216,0,0,0,234.689,226.54Z" transform="translate(-192.268 -202.742)" fill="#6d89c9"/>
            <path id="Path_53642" data-name="Path 53642" d="M235.464,241.04H214.6a.223.223,0,0,0-.223.223v8.328H202.353a.223.223,0,0,0-.223.223.216.216,0,0,0,.223.223H214.6a.223.223,0,0,0,.223-.223v-8.328h20.643a.223.223,0,0,0,.223-.223.216.216,0,0,0-.223-.223Z" transform="translate(-193.043 -200.235)" fill="#6d89c9"/>
            <path id="Path_53643" data-name="Path 53643" d="M232,258.22H210.993a.223.223,0,0,0-.223.223.216.216,0,0,0,.223.223H232a.223.223,0,0,0,.223-.223A.216.216,0,0,0,232,258.22Z" transform="translate(-191.549 -197.265)" fill="#6d89c9"/>
          </g>
          <g id="Group_5447" data-name="Group 5447" transform="translate(188.378)">
            <path id="Path_53644" data-name="Path 53644" d="M368.733,201.026a2.146,2.146,0,1,1-2.146-2.146A2.147,2.147,0,0,1,368.733,201.026Z" transform="translate(-349.861 -198.88)" fill="#ffba53"/>
            <path id="Path_53645" data-name="Path 53645" d="M356.3,212.5a2.146,2.146,0,1,1-2.146-2.146A2.147,2.147,0,0,1,356.3,212.5Z" transform="translate(-352.01 -196.897)" fill="#ffba53"/>
            <path id="Path_53646" data-name="Path 53646" d="M362.363,224.416a2.146,2.146,0,1,1-2.146-2.146A2.147,2.147,0,0,1,362.363,224.416Z" transform="translate(-350.962 -194.836)" fill="#ffba53"/>
            <circle id="Ellipse_826" data-name="Ellipse 826" cx="2.146" cy="2.146" r="2.146" transform="translate(1.959 61.694)" fill="#ffba53"/>
            <path id="Path_53647" data-name="Path 53647" d="M365.073,243.9a2.146,2.146,0,1,1-2.146-2.146A2.147,2.147,0,0,1,365.073,243.9Z" transform="translate(-350.494 -191.468)" fill="#ffba53"/>
          </g>
          <g id="Group_5448" data-name="Group 5448" transform="translate(0 6.721)">
            <path id="Path_53648" data-name="Path 53648" d="M195.693,209.246a2.146,2.146,0,1,1-2.146-2.146A2.147,2.147,0,0,1,195.693,209.246Z" transform="translate(-191.4 -204.18)" fill="#ffba53"/>
            <path id="Path_53649" data-name="Path 53649" d="M205.833,206.756a2.146,2.146,0,1,1-2.146-2.146A2.147,2.147,0,0,1,205.833,206.756Z" transform="translate(-189.647 -204.61)" fill="#ffba53"/>
            <path id="Path_53650" data-name="Path 53650" d="M202.943,248.836a2.146,2.146,0,1,1-2.146-2.146A2.147,2.147,0,0,1,202.943,248.836Z" transform="translate(-190.147 -197.335)" fill="#ffba53"/>
            <path id="Path_53651" data-name="Path 53651" d="M211.593,258.726a2.146,2.146,0,1,1-2.146-2.146A2.147,2.147,0,0,1,211.593,258.726Z" transform="translate(-188.651 -195.625)" fill="#ffba53"/>
            <circle id="Ellipse_827" data-name="Ellipse 827" cx="2.146" cy="2.146" r="2.146" transform="translate(13.993 23.798)" fill="#ffba53"/>
          </g>
        </g>
      </g>
      <text id="NFT" transform="translate(305.193 278.116)" fill="#fff" font-size="21" font-family="Montserrat-ExtraBold, Montserrat" font-weight="800" letter-spacing="0.05em"><tspan x="0" y="0">N</tspan><tspan y="0" letter-spacing="0.06em">F</tspan><tspan y="0">T</tspan></text>
    </g>
  </g>
</svg>
