<?xml version="1.0" encoding="UTF-8"?><svg id="Layer_2" xmlns="http://www.w3.org/2000/svg" viewBox="0 0 69.57 69.57"><defs><style>.cls-1{fill:#0091ff;}.cls-2{fill:none;}</style></defs><g id="Layer_1-2"><g><rect class="cls-2" width="69.57" height="69.57"/><g><path class="cls-1" d="M33.71,54.1c-2.55-1.37-4.96-2.68-7.48-4.04,0,1.2-.04,2.3,.01,3.4,.03,.73-.2,1.28-.74,1.75-.54,.47-1,1.02-1.53,1.49-.37,.33-.43,.59-.22,1.07,1,2.3-.2,4.92-2.57,5.74-2.36,.81-4.94-.53-5.57-2.94-.45-1.7,0-3.19,1.3-4.35,1.31-1.16,2.84-1.42,4.48-.77,.44,.18,.67,.09,1.03-.19,1.39-1.04,1.94-2.36,1.69-4.07-.11-.76,.22-1.7-.13-2.28-.34-.58-1.28-.81-1.96-1.19-.48-.27-.98-.53-1.46-.81-1.91-1.08-2.88-2.71-2.89-4.91,0-.24,0-.48,0-.76h-4.37c-.92,2.62-3.3,3.54-5.3,3.02-1.93-.5-3.23-2.28-3.17-4.33,.06-1.95,1.5-3.59,3.5-3.99,2.09-.42,3.86,.68,4.94,3.09h4.34v-8.5c-1.38,0-2.75-.02-4.13,.02-.15,0-.33,.29-.41,.49-.75,1.77-2.49,2.84-4.36,2.68-1.83-.16-3.34-1.47-3.77-3.27-.52-2.15,.7-4.33,2.81-5.03,2.12-.7,4.4,.31,5.24,2.37,.21,.51,.46,.64,.97,.62,1.2-.04,2.4-.01,3.73-.01,0-.56-.06-1.09,.01-1.61,.25-1.78,1.17-3.14,2.76-4.02,1.07-.6,2.15-1.17,3.2-1.79,.2-.12,.39-.42,.39-.65,.04-1.29,.03-2.58,0-3.87,0-.23-.13-.51-.28-.69-.44-.5-.96-.93-1.4-1.43-.3-.34-.55-.36-.97-.18-2.55,1.07-5.38-.44-5.91-3.13-.36-1.81,.46-3.63,2.04-4.56,1.59-.93,3.59-.76,4.99,.43,1.44,1.23,1.95,3.17,1.2,4.89-.22,.51-.12,.79,.25,1.13,.57,.52,1.09,1.11,1.66,1.64,.43,.39,.59,.84,.58,1.42-.03,1.15,0,2.3,0,3.57,2.52-1.38,4.95-2.7,7.48-4.08,0-1.18,.02-2.56-.02-3.93,0-.18-.3-.43-.52-.53-1.53-.69-2.45-1.85-2.63-3.51-.18-1.6,.41-2.94,1.73-3.89,1.42-1.03,2.98-1.14,4.53-.31,1.55,.83,2.32,2.2,2.24,3.94-.08,1.72-.95,3-2.55,3.68-.54,.23-.67,.49-.65,1.02,.03,1.24,.01,2.49,.01,3.55,2.52,1.36,4.94,2.67,7.48,4.04,0-.86,.08-1.65-.02-2.42-.18-1.44,.26-2.56,1.44-3.4,.05-.04,.09-.1,.14-.14,.86-.62,1.15-1.26,.74-2.42-.66-1.87,.39-3.9,2.16-4.82,1.76-.92,3.9-.52,5.24,.98,1.32,1.47,1.45,3.67,.32,5.31-1.13,1.63-3.24,2.33-5.08,1.57-.56-.23-.82-.07-1.25,.26-1.28,.98-1.8,2.19-1.57,3.79,.12,.83-.21,1.83,.16,2.47,.36,.61,1.35,.86,2.07,1.26,.41,.23,.82,.46,1.23,.68,2,1.09,2.99,2.78,2.98,5.05,0,.2,0,.4,0,.7,1.1,0,2.19-.04,3.27,.01,.75,.04,1.19-.1,1.55-.89,.82-1.83,2.92-2.69,4.88-2.17,1.9,.5,3.19,2.26,3.14,4.29-.05,1.98-1.5,3.63-3.53,4.03-1.88,.37-3.88-.67-4.62-2.49-.22-.54-.49-.67-1.02-.65-1.2,.03-2.39,.01-3.63,.01v8.53c1.38,0,2.78,.02,4.17-.02,.14,0,.31-.32,.4-.51,.71-1.65,2.27-2.68,4.04-2.66,1.72,.02,3.3,1.12,3.91,2.74,.83,2.16-.22,4.59-2.36,5.47-2.17,.89-4.65-.11-5.54-2.3-.2-.48-.43-.61-.92-.59-1.22,.04-2.44,.01-3.67,.01-.05,.67-.06,1.29-.16,1.9-.28,1.66-1.2,2.89-2.65,3.72-1.08,.62-2.19,1.2-3.26,1.83-.19,.12-.38,.42-.39,.65-.04,1.29-.02,2.58-.01,3.87,0,.17,.03,.38,.13,.49,.6,.63,1.2,1.26,1.85,1.83,.12,.11,.48,0,.7-.08,2.3-.92,4.9,.23,5.72,2.55,.83,2.33-.45,4.87-2.83,5.57-1.72,.5-3.24,.07-4.44-1.24-1.18-1.29-1.47-2.84-.81-4.46,.22-.55,.12-.83-.27-1.18-.59-.54-1.18-1.09-1.69-1.71-.27-.33-.47-.81-.5-1.23-.07-1.17-.02-2.35-.02-3.65-2.5,1.36-4.93,2.68-7.48,4.07,0,1.18-.02,2.58,.02,3.98,0,.17,.29,.39,.49,.48,1.77,.75,2.84,2.48,2.68,4.35-.16,1.82-1.47,3.33-3.28,3.76-2.16,.52-4.34-.7-5.04-2.81-.7-2.11,.31-4.39,2.38-5.23,.51-.21,.64-.46,.62-.97-.04-1.24-.01-2.49-.01-3.58Zm-5.35-18.47s-.09,.04-.14,.05c-1.39-1.84-2.78-3.68-4.16-5.52-.36-.48-.75-.85-1.39-.62-.64,.23-.73,.75-.72,1.35,.01,2.55,0,5.11,0,7.66,0,1.08,.35,1.59,1.08,1.58,.72-.01,1.05-.51,1.05-1.61,0-1.52,0-3.04,0-4.73,.24,.3,.38,.45,.51,.62,1.31,1.74,2.62,3.48,3.93,5.21,.31,.41,.71,.62,1.22,.45,.5-.17,.75-.54,.75-1.06,0-2.8,.02-5.6-.02-8.39,0-.32-.23-.76-.49-.93-.26-.17-.79-.21-1.03-.05-.29,.2-.56,.66-.57,1.01-.06,1.66-.03,3.32-.03,4.98Zm6.41,.24c1.11,0,2.13,.01,3.15,0,.68-.01,1.13-.46,1.13-1.07,0-.6-.45-1.03-1.14-1.06-.27-.01-.53,0-.8,0-.77,0-1.54,0-2.3,0v-2.13c1.03,0,2.03,0,3.02,0,.74,0,1.2-.43,1.21-1.05,0-.63-.46-1.07-1.18-1.08-1.34-.01-2.67-.01-4.01,0-.82,0-1.21,.41-1.21,1.25,0,2.73,0,5.47,0,8.2,0,.74,.42,1.2,1.05,1.21,.65,.01,1.08-.47,1.08-1.24,0-.98,0-1.95,0-3.02Zm8.55-4.27c0,2.47,0,4.84,0,7.22,0,.84,.4,1.33,1.07,1.32,.66,0,1.06-.49,1.06-1.33,0-2.15,0-4.31,0-6.46,0-.24,0-.47,0-.75,.44,0,.8,.03,1.15,0,.59-.05,.99-.51,.99-1.07,0-.56-.41-1.03-1.01-1.04-1.47-.03-2.94-.03-4.4,0-.59,.01-.99,.49-.99,1.05,0,.55,.41,1,.99,1.06,.35,.03,.7,0,1.14,0ZM19.82,8.13c-1.17,0-2.13,.95-2.14,2.11-.01,1.19,.97,2.17,2.16,2.15,1.16-.01,2.11-.98,2.11-2.14,0-1.16-.96-2.12-2.13-2.12ZM9.11,27.33c-1.16,0-2.12,.96-2.12,2.12,0,1.19,.98,2.16,2.18,2.14,1.16-.02,2.11-1,2.09-2.16-.02-1.17-.98-2.11-2.15-2.1Zm2.15,12.84c.02-1.17-.91-2.14-2.08-2.17-1.19-.03-2.19,.93-2.19,2.12,0,1.16,.94,2.12,2.11,2.14,1.16,.02,2.14-.94,2.16-2.09Zm49.22,2.09c1.16-.01,2.11-.99,2.1-2.15-.01-1.17-.97-2.11-2.13-2.11-1.19,0-2.16,.99-2.14,2.18,.03,1.16,1,2.1,2.17,2.08ZM21.95,59.37c.02-1.16-.92-2.14-2.09-2.16-1.19-.03-2.18,.94-2.18,2.13,0,1.16,.96,2.12,2.12,2.13,1.17,0,2.13-.94,2.15-2.1ZM36.92,7.05c0-1.16-.96-2.12-2.13-2.12-1.19,0-2.16,.98-2.14,2.17,.02,1.15,1,2.11,2.16,2.09,1.17-.02,2.12-.98,2.11-2.14Zm14.97,3.18c-.02-1.16-.99-2.11-2.15-2.1-1.17,0-2.12,.97-2.12,2.13,0,1.19,.99,2.16,2.18,2.13,1.17-.03,2.1-1,2.09-2.16Zm-2.1,51.25c1.17-.02,2.11-.98,2.1-2.14,0-1.17-.97-2.12-2.13-2.12-1.19,0-2.16,.99-2.14,2.18,.03,1.16,1,2.1,2.17,2.08Zm-12.86,1.09c.01-1.15-.94-2.14-2.1-2.15-1.17-.02-2.14,.91-2.17,2.08-.03,1.19,.94,2.18,2.13,2.19,1.17,0,2.13-.94,2.14-2.11ZM62.57,29.47c0-1.16-.94-2.12-2.11-2.14-1.16-.02-2.14,.93-2.16,2.09-.02,1.19,.95,2.18,2.14,2.17,1.17,0,2.12-.96,2.13-2.12Z"/><path class="cls-1" d="M9.09,17.77v4.19H4.9v-4.19h4.19Z"/><path class="cls-1" d="M59.41,54.04h4.19v4.19h-4.19v-4.19Z"/></g></g></g></svg>