<svg xmlns="http://www.w3.org/2000/svg" width="345" height="307" viewBox="0 0 345 307">
  <g id="Group_4418" data-name="Group 4418" transform="translate(12777 -4813)">
    <rect id="Rectangle_4209" data-name="Rectangle 4209" width="345" height="307" transform="translate(-12777 4813)" fill="#fff" opacity="0"/>
    <g id="Business_analytics-rafiki" data-name="Business analytics-rafiki" transform="translate(-12777 4784.295)">
      <g id="freepik--background-complete--inject-210" transform="translate(0 55)">
        <rect id="Rectangle_3837" data-name="Rectangle 3837" width="22.853" height="0.172" transform="translate(287.578 237.008)" fill="#ebebeb"/>
        <rect id="Rectangle_3838" data-name="Rectangle 3838" width="5.996" height="0.172" transform="translate(222.546 238.885)" fill="#ebebeb"/>
        <rect id="Rectangle_3839" data-name="Rectangle 3839" width="13.241" height="0.172" transform="translate(273.647 230.605)" fill="#ebebeb"/>
        <rect id="Rectangle_3840" data-name="Rectangle 3840" width="29.801" height="0.172" transform="translate(36.197 231.764)" fill="#ebebeb"/>
        <rect id="Rectangle_3841" data-name="Rectangle 3841" width="4.368" height="0.172" transform="translate(72.146 231.764)" fill="#ebebeb"/>
        <rect id="Rectangle_3842" data-name="Rectangle 3842" width="64.639" height="0.172" transform="translate(90.714 234.676)" fill="#ebebeb"/>
        <path id="Path_47450" data-name="Path 47450" d="M175.375,250.132H42.15a3.94,3.94,0,0,1-3.94-3.94V58.905A3.94,3.94,0,0,1,42.15,55H175.375a3.94,3.94,0,0,1,3.94,3.94V246.192A3.94,3.94,0,0,1,175.375,250.132ZM42.15,55.138a3.774,3.774,0,0,0-3.767,3.767V246.192a3.774,3.774,0,0,0,3.767,3.767H175.375a3.774,3.774,0,0,0,3.767-3.767V58.905a3.774,3.774,0,0,0-3.767-3.767Z" transform="translate(-11.845 -55)" fill="#ebebeb"/>
        <path id="Path_47451" data-name="Path 47451" d="M391.679,250.132H258.44a3.947,3.947,0,0,1-3.94-3.94V58.905A3.947,3.947,0,0,1,258.44,55H391.679a3.94,3.94,0,0,1,3.926,3.905V246.192A3.94,3.94,0,0,1,391.679,250.132ZM258.44,55.138a3.774,3.774,0,0,0-3.767,3.767V246.192a3.774,3.774,0,0,0,3.767,3.767H391.679a3.774,3.774,0,0,0,3.767-3.767V58.905a3.774,3.774,0,0,0-3.767-3.767Z" transform="translate(-78.895 -55)" fill="#ebebeb"/>
        <rect id="Rectangle_3843" data-name="Rectangle 3843" width="345" height="0.172" transform="translate(0 225.906)" fill="#ebebeb"/>
        <path id="Path_47452" data-name="Path 47452" d="M142.289,324.814s-13.8-9.06-11.42-12.558c1.283-1.877,8.473,3.264,8.473,3.264s-13.545-15.787-9.432-19.21c2.118-1.766,8.86,6.576,8.86,6.576s-9.191-22.825-3.243-24.405c5.347-1.414,8.342,20.493,8.342,20.493s5.037-12.165,8-10.654c5.134,2.615-6.769,22.039-6.769,22.039s6.479-7.452,8.48-5.831c4.23,3.45-8.363,20.113-8.363,20.113Z" transform="translate(-40.031 -124.259)" fill="#ebebeb"/>
        <path id="Path_47453" data-name="Path 47453" d="M144.543,327.462s-9.66-6.824-7.645-8.97c1.3-1.38,6.21,4.5,6.21,4.5l-1.794-9.936s-9.984-8.121-7.59-10.191c2.167-1.863,8.059,8.121,8.059,8.121s.89-5.085.545-6.748c-.945-4.6-8.97-16.939-4.471-18.244s5.768,13.234,5.989,17.94c.041.9.069,3.581.069,3.581s4.623-13.759,7.714-11.978c3.892,2.249-8.17,15.967-8.17,15.967l1.242,7.645s5.52-9.425,7.638-7.714c2.532,2.07-7.155,10.881-7.155,10.881a20.075,20.075,0,0,1,0,4.14A5.687,5.687,0,0,1,144.543,327.462Z" transform="translate(-41.339 -126.582)" fill="#e0e0e0"/>
        <path id="Path_47454" data-name="Path 47454" d="M155.443,324.944s14.531-7.859,12.42-11.551c-1.125-1.973-8.722,2.539-8.722,2.539s14.821-14.594,11.04-18.347c-1.966-1.953-9.356,5.8-9.356,5.8s11.04-21.97,5.285-24.04c-5.21-1.863-10.04,19.713-10.04,19.713s-4-12.544-7.079-11.288c-5.341,2.173,4.892,22.529,4.892,22.529s-5.83-7.97-7.956-6.527c-4.506,3.064,6.631,20.748,6.631,20.748Z" transform="translate(-44.905 -124.513)" fill="#f5f5f5"/>
        <path id="Path_47455" data-name="Path 47455" d="M155.686,327.455s10.184-5.989,8.37-8.321c-1.18-1.5-6.562,3.961-6.562,3.961l2.629-9.75s10.633-7.252,8.4-9.515c-2-2.07-8.708,7.418-8.708,7.418s-.462-5.147,0-6.769c1.332-4.506,10.385-16.132,6-17.809s-6.859,12.71-7.48,17.4c-.117.89-.373,3.567-.373,3.567s-3.45-14.1-6.672-12.592c-4.064,1.911,6.817,16.608,6.817,16.608l-1.877,7.514s-4.72-9.853-6.969-8.328c-2.691,1.828,6.21,11.44,6.21,11.44a19.906,19.906,0,0,0-.352,4.14,5.948,5.948,0,0,0,.566,1.035Z" transform="translate(-46.114 -126.776)" fill="#e6e6e6"/>
        <path id="Path_47456" data-name="Path 47456" d="M154.369,370.325h-7.238a5.4,5.4,0,0,1-5.382-5.058l-1.339-21.8h20.7l-1.339,21.8A5.389,5.389,0,0,1,154.369,370.325Z" transform="translate(-43.527 -144.426)" fill="#ebebeb"/>
        <rect id="Rectangle_3844" data-name="Rectangle 3844" width="67.475" height="170.002" transform="translate(224.871 54.407)" fill="#e0e0e0"/>
        <path id="Path_47457" data-name="Path 47457" d="M423.69,131.69V304.673h12.42V131.69Z" transform="translate(-131.344 -78.774)" fill="#e0e0e0"/>
        <path id="Path_47458" data-name="Path 47458" d="M308.75,131.69V304.673h12.42V131.69Z" transform="translate(-95.712 -78.774)" fill="#e6e6e6"/>
        <path id="Path_47459" data-name="Path 47459" d="M305.69,131.69V304.673H388.6V131.69Zm79.93,2.974v31.05H308.664v-31.05Zm-76.956,99.029V202.677H385.62v31.016Zm76.949,2.981v31.05H308.664v-31.05ZM308.664,199.69v-31.05H385.62v31.05Zm0,102V270.677H385.62v31.016Z" transform="translate(-94.764 -78.774)" fill="#f0f0f0"/>
        <rect id="Rectangle_3845" data-name="Rectangle 3845" width="2.87" height="24.067" transform="translate(245.088 63.135)" fill="#e6e6e6"/>
        <rect id="Rectangle_3846" data-name="Rectangle 3846" width="2.87" height="24.067" transform="translate(242.218 63.135)" fill="#e0e0e0"/>
        <rect id="Rectangle_3847" data-name="Rectangle 3847" width="5.734" height="22.377" transform="translate(247.952 64.826)" fill="#e6e6e6"/>
        <rect id="Rectangle_3848" data-name="Rectangle 3848" width="3.705" height="24.067" transform="translate(256.556 63.135)" fill="#f0f0f0"/>
        <rect id="Rectangle_3849" data-name="Rectangle 3849" width="2.87" height="24.067" transform="translate(253.692 63.135)" fill="#ebebeb"/>
        <rect id="Rectangle_3850" data-name="Rectangle 3850" width="3.705" height="24.067" transform="translate(278.311 63.135)" fill="#e6e6e6"/>
        <rect id="Rectangle_3851" data-name="Rectangle 3851" width="2.87" height="24.067" transform="translate(275.441 63.135)" fill="#ebebeb"/>
        <rect id="Rectangle_3852" data-name="Rectangle 3852" width="3.705" height="24.067" transform="translate(266.002 63.135)" fill="#e6e6e6"/>
        <rect id="Rectangle_3853" data-name="Rectangle 3853" width="2.87" height="24.067" transform="translate(263.132 63.135)" fill="#e0e0e0"/>
        <rect id="Rectangle_3854" data-name="Rectangle 3854" width="5.734" height="23.494" transform="translate(282.017 63.708)" fill="#ebebeb"/>
        <rect id="Rectangle_3855" data-name="Rectangle 3855" width="2.87" height="23.494" transform="translate(287.751 63.708)" fill="#e0e0e0"/>
        <rect id="Rectangle_3856" data-name="Rectangle 3856" width="3.823" height="23.494" transform="translate(269.707 63.708)" fill="#e0e0e0"/>
        <rect id="Rectangle_3857" data-name="Rectangle 3857" width="1.911" height="23.494" transform="translate(273.53 63.708)" fill="#f0f0f0"/>
        <rect id="Rectangle_3858" data-name="Rectangle 3858" width="5.734" height="22.377" transform="translate(260.261 64.826)" fill="#f5f5f5"/>
        <rect id="Rectangle_3859" data-name="Rectangle 3859" width="3.705" height="24.067" transform="translate(229.908 63.135)" fill="#ebebeb"/>
        <rect id="Rectangle_3860" data-name="Rectangle 3860" width="2.87" height="24.067" transform="translate(227.038 63.135)" fill="#e6e6e6"/>
        <rect id="Rectangle_3861" data-name="Rectangle 3861" width="5.734" height="23.494" transform="translate(233.613 63.708)" fill="#e0e0e0"/>
        <rect id="Rectangle_3862" data-name="Rectangle 3862" width="2.87" height="23.494" transform="translate(239.347 63.708)" fill="#ebebeb"/>
        <rect id="Rectangle_3863" data-name="Rectangle 3863" width="3.823" height="23.494" transform="translate(221.304 63.708)" fill="#ebebeb"/>
        <rect id="Rectangle_3864" data-name="Rectangle 3864" width="1.911" height="23.494" transform="translate(225.126 63.708)" fill="#fafafa"/>
        <rect id="Rectangle_3865" data-name="Rectangle 3865" width="2.87" height="24.067" transform="translate(266.837 120.909) rotate(180)" fill="#e6e6e6"/>
        <rect id="Rectangle_3866" data-name="Rectangle 3866" width="2.87" height="24.067" transform="translate(269.707 120.909) rotate(180)" fill="#e0e0e0"/>
        <rect id="Rectangle_3867" data-name="Rectangle 3867" width="5.734" height="22.377" transform="translate(263.973 120.902) rotate(180)" fill="#e6e6e6"/>
        <rect id="Rectangle_3868" data-name="Rectangle 3868" width="3.705" height="24.067" transform="translate(255.362 120.909) rotate(180)" fill="#f0f0f0"/>
        <rect id="Rectangle_3869" data-name="Rectangle 3869" width="2.87" height="24.067" transform="translate(258.232 120.909) rotate(180)" fill="#ebebeb"/>
        <rect id="Rectangle_3870" data-name="Rectangle 3870" width="3.705" height="24.067" transform="translate(233.613 120.909) rotate(180)" fill="#e6e6e6"/>
        <rect id="Rectangle_3871" data-name="Rectangle 3871" width="2.87" height="24.067" transform="translate(236.484 120.909) rotate(180)" fill="#ebebeb"/>
        <rect id="Rectangle_3872" data-name="Rectangle 3872" width="3.705" height="24.067" transform="translate(245.923 120.909) rotate(180)" fill="#e6e6e6"/>
        <rect id="Rectangle_3873" data-name="Rectangle 3873" width="2.87" height="24.067" transform="translate(248.793 120.909) rotate(180)" fill="#e0e0e0"/>
        <rect id="Rectangle_3874" data-name="Rectangle 3874" width="5.734" height="23.494" transform="translate(229.908 120.909) rotate(180)" fill="#ebebeb"/>
        <rect id="Rectangle_3875" data-name="Rectangle 3875" width="2.87" height="23.494" transform="translate(224.174 120.909) rotate(180)" fill="#e0e0e0"/>
        <rect id="Rectangle_3876" data-name="Rectangle 3876" width="3.823" height="23.494" transform="translate(242.218 120.909) rotate(180)" fill="#e0e0e0"/>
        <rect id="Rectangle_3877" data-name="Rectangle 3877" width="1.911" height="23.494" transform="translate(238.395 120.909) rotate(180)" fill="#f0f0f0"/>
        <rect id="Rectangle_3878" data-name="Rectangle 3878" width="5.734" height="22.377" transform="translate(251.664 120.902) rotate(180)" fill="#f5f5f5"/>
        <rect id="Rectangle_3879" data-name="Rectangle 3879" width="3.705" height="24.067" transform="translate(282.017 120.909) rotate(180)" fill="#ebebeb"/>
        <rect id="Rectangle_3880" data-name="Rectangle 3880" width="2.87" height="24.067" transform="translate(284.887 120.909) rotate(180)" fill="#e6e6e6"/>
        <rect id="Rectangle_3881" data-name="Rectangle 3881" width="5.734" height="23.494" transform="translate(278.305 120.909) rotate(180)" fill="#e0e0e0"/>
        <rect id="Rectangle_3882" data-name="Rectangle 3882" width="2.87" height="23.494" transform="translate(272.578 120.909) rotate(180)" fill="#ebebeb"/>
        <rect id="Rectangle_3883" data-name="Rectangle 3883" width="3.823" height="23.494" transform="translate(290.621 120.909) rotate(180)" fill="#ebebeb"/>
        <rect id="Rectangle_3884" data-name="Rectangle 3884" width="1.911" height="23.494" transform="translate(286.792 120.909) rotate(180)" fill="#fafafa"/>
        <rect id="Rectangle_3885" data-name="Rectangle 3885" width="2.87" height="24.067" transform="translate(266.837 155.202) rotate(180)" fill="#e6e6e6"/>
        <rect id="Rectangle_3886" data-name="Rectangle 3886" width="2.87" height="24.067" transform="translate(269.707 155.202) rotate(180)" fill="#e0e0e0"/>
        <rect id="Rectangle_3887" data-name="Rectangle 3887" width="5.734" height="22.377" transform="translate(263.973 155.202) rotate(180)" fill="#e6e6e6"/>
        <rect id="Rectangle_3888" data-name="Rectangle 3888" width="3.705" height="24.067" transform="translate(255.362 155.202) rotate(180)" fill="#f0f0f0"/>
        <rect id="Rectangle_3889" data-name="Rectangle 3889" width="2.87" height="24.067" transform="translate(258.232 155.202) rotate(180)" fill="#ebebeb"/>
        <rect id="Rectangle_3890" data-name="Rectangle 3890" width="3.705" height="24.067" transform="translate(233.613 155.202) rotate(180)" fill="#e6e6e6"/>
        <rect id="Rectangle_3891" data-name="Rectangle 3891" width="2.87" height="24.067" transform="translate(236.484 155.202) rotate(180)" fill="#ebebeb"/>
        <rect id="Rectangle_3892" data-name="Rectangle 3892" width="3.705" height="24.067" transform="translate(245.923 155.202) rotate(180)" fill="#e6e6e6"/>
        <rect id="Rectangle_3893" data-name="Rectangle 3893" width="2.87" height="24.067" transform="translate(248.793 155.202) rotate(180)" fill="#e0e0e0"/>
        <rect id="Rectangle_3894" data-name="Rectangle 3894" width="5.734" height="23.494" transform="translate(229.908 155.202) rotate(180)" fill="#ebebeb"/>
        <rect id="Rectangle_3895" data-name="Rectangle 3895" width="2.87" height="23.494" transform="translate(224.174 155.202) rotate(180)" fill="#e0e0e0"/>
        <rect id="Rectangle_3896" data-name="Rectangle 3896" width="3.823" height="23.494" transform="translate(242.218 155.202) rotate(180)" fill="#e0e0e0"/>
        <rect id="Rectangle_3897" data-name="Rectangle 3897" width="1.911" height="23.494" transform="translate(238.395 155.202) rotate(180)" fill="#f0f0f0"/>
        <rect id="Rectangle_3898" data-name="Rectangle 3898" width="5.734" height="22.377" transform="translate(251.664 155.202) rotate(180)" fill="#f5f5f5"/>
        <rect id="Rectangle_3899" data-name="Rectangle 3899" width="3.705" height="24.067" transform="translate(282.017 155.202) rotate(180)" fill="#ebebeb"/>
        <rect id="Rectangle_3900" data-name="Rectangle 3900" width="2.87" height="24.067" transform="translate(284.887 155.202) rotate(180)" fill="#e6e6e6"/>
        <rect id="Rectangle_3901" data-name="Rectangle 3901" width="5.734" height="23.494" transform="translate(278.305 155.202) rotate(180)" fill="#e0e0e0"/>
        <rect id="Rectangle_3902" data-name="Rectangle 3902" width="2.87" height="23.494" transform="translate(272.578 155.202) rotate(180)" fill="#ebebeb"/>
        <rect id="Rectangle_3903" data-name="Rectangle 3903" width="3.823" height="23.494" transform="translate(290.621 155.202) rotate(180)" fill="#ebebeb"/>
        <rect id="Rectangle_3904" data-name="Rectangle 3904" width="1.911" height="23.494" transform="translate(286.792 155.202) rotate(180)" fill="#fafafa"/>
        <rect id="Rectangle_3905" data-name="Rectangle 3905" width="2.87" height="24.067" transform="translate(245.088 165.434)" fill="#e6e6e6"/>
        <rect id="Rectangle_3906" data-name="Rectangle 3906" width="2.87" height="24.067" transform="translate(242.218 165.434)" fill="#e0e0e0"/>
        <rect id="Rectangle_3907" data-name="Rectangle 3907" width="5.734" height="22.377" transform="translate(247.952 165.434)" fill="#e6e6e6"/>
        <rect id="Rectangle_3908" data-name="Rectangle 3908" width="3.705" height="24.067" transform="translate(256.556 165.434)" fill="#f0f0f0"/>
        <rect id="Rectangle_3909" data-name="Rectangle 3909" width="2.87" height="24.067" transform="translate(253.692 165.434)" fill="#ebebeb"/>
        <rect id="Rectangle_3910" data-name="Rectangle 3910" width="3.705" height="24.067" transform="translate(278.311 165.434)" fill="#e6e6e6"/>
        <rect id="Rectangle_3911" data-name="Rectangle 3911" width="2.87" height="24.067" transform="translate(275.441 165.434)" fill="#ebebeb"/>
        <rect id="Rectangle_3912" data-name="Rectangle 3912" width="3.705" height="24.067" transform="translate(266.002 165.434)" fill="#e6e6e6"/>
        <rect id="Rectangle_3913" data-name="Rectangle 3913" width="2.87" height="24.067" transform="translate(263.132 165.434)" fill="#e0e0e0"/>
        <rect id="Rectangle_3914" data-name="Rectangle 3914" width="5.734" height="23.494" transform="translate(282.017 165.434)" fill="#ebebeb"/>
        <rect id="Rectangle_3915" data-name="Rectangle 3915" width="2.87" height="23.494" transform="translate(287.751 165.434)" fill="#e0e0e0"/>
        <rect id="Rectangle_3916" data-name="Rectangle 3916" width="3.823" height="23.494" transform="translate(269.707 165.434)" fill="#e0e0e0"/>
        <rect id="Rectangle_3917" data-name="Rectangle 3917" width="1.911" height="23.494" transform="translate(273.53 165.434)" fill="#f0f0f0"/>
        <rect id="Rectangle_3918" data-name="Rectangle 3918" width="5.734" height="22.377" transform="translate(260.261 165.434)" fill="#f5f5f5"/>
        <rect id="Rectangle_3919" data-name="Rectangle 3919" width="3.705" height="24.067" transform="translate(229.908 165.434)" fill="#ebebeb"/>
        <rect id="Rectangle_3920" data-name="Rectangle 3920" width="2.87" height="24.067" transform="translate(227.038 165.434)" fill="#e6e6e6"/>
        <rect id="Rectangle_3921" data-name="Rectangle 3921" width="5.734" height="23.494" transform="translate(233.613 165.434)" fill="#e0e0e0"/>
        <rect id="Rectangle_3922" data-name="Rectangle 3922" width="2.87" height="23.494" transform="translate(239.347 165.434)" fill="#ebebeb"/>
        <rect id="Rectangle_3923" data-name="Rectangle 3923" width="3.823" height="23.494" transform="translate(221.304 165.434)" fill="#ebebeb"/>
        <rect id="Rectangle_3924" data-name="Rectangle 3924" width="1.911" height="23.494" transform="translate(225.126 165.434)" fill="#fafafa"/>
        <rect id="Rectangle_3925" data-name="Rectangle 3925" width="2.87" height="24.067" transform="translate(266.837 223.795) rotate(180)" fill="#e6e6e6"/>
        <rect id="Rectangle_3926" data-name="Rectangle 3926" width="2.87" height="24.067" transform="translate(269.707 223.795) rotate(180)" fill="#e0e0e0"/>
        <rect id="Rectangle_3927" data-name="Rectangle 3927" width="5.734" height="22.377" transform="translate(263.973 223.795) rotate(180)" fill="#e6e6e6"/>
        <rect id="Rectangle_3928" data-name="Rectangle 3928" width="3.705" height="24.067" transform="translate(255.362 223.795) rotate(180)" fill="#f0f0f0"/>
        <rect id="Rectangle_3929" data-name="Rectangle 3929" width="2.87" height="24.067" transform="translate(258.232 223.795) rotate(180)" fill="#ebebeb"/>
        <rect id="Rectangle_3930" data-name="Rectangle 3930" width="3.705" height="24.067" transform="translate(233.613 223.795) rotate(180)" fill="#e6e6e6"/>
        <rect id="Rectangle_3931" data-name="Rectangle 3931" width="2.87" height="24.067" transform="translate(236.484 223.795) rotate(180)" fill="#ebebeb"/>
        <rect id="Rectangle_3932" data-name="Rectangle 3932" width="3.705" height="24.067" transform="translate(245.923 223.795) rotate(180)" fill="#e6e6e6"/>
        <rect id="Rectangle_3933" data-name="Rectangle 3933" width="2.87" height="24.067" transform="translate(248.793 223.795) rotate(180)" fill="#e0e0e0"/>
        <rect id="Rectangle_3934" data-name="Rectangle 3934" width="5.734" height="23.494" transform="translate(229.908 223.802) rotate(180)" fill="#ebebeb"/>
        <rect id="Rectangle_3935" data-name="Rectangle 3935" width="2.87" height="23.494" transform="translate(224.174 223.802) rotate(180)" fill="#e0e0e0"/>
        <rect id="Rectangle_3936" data-name="Rectangle 3936" width="3.823" height="23.494" transform="translate(242.218 223.802) rotate(180)" fill="#e0e0e0"/>
        <rect id="Rectangle_3937" data-name="Rectangle 3937" width="1.911" height="23.494" transform="translate(238.395 223.802) rotate(180)" fill="#f0f0f0"/>
        <rect id="Rectangle_3938" data-name="Rectangle 3938" width="5.734" height="22.377" transform="translate(251.664 223.795) rotate(180)" fill="#f5f5f5"/>
        <rect id="Rectangle_3939" data-name="Rectangle 3939" width="3.705" height="24.067" transform="translate(282.017 223.795) rotate(180)" fill="#ebebeb"/>
        <rect id="Rectangle_3940" data-name="Rectangle 3940" width="2.87" height="24.067" transform="translate(284.887 223.795) rotate(180)" fill="#e6e6e6"/>
        <rect id="Rectangle_3941" data-name="Rectangle 3941" width="5.734" height="23.494" transform="translate(278.305 223.802) rotate(180)" fill="#e0e0e0"/>
        <rect id="Rectangle_3942" data-name="Rectangle 3942" width="2.87" height="23.494" transform="translate(272.578 223.802) rotate(180)" fill="#ebebeb"/>
        <rect id="Rectangle_3943" data-name="Rectangle 3943" width="3.823" height="23.494" transform="translate(290.621 223.802) rotate(180)" fill="#ebebeb"/>
        <rect id="Rectangle_3944" data-name="Rectangle 3944" width="1.911" height="23.494" transform="translate(286.792 223.802) rotate(180)" fill="#fafafa"/>
      </g>
      <g id="freepik--Shadow--inject-210" transform="translate(35.39 293.788)">
        <ellipse id="freepik--path--inject-210" cx="133.784" cy="7.811" rx="133.784" ry="7.811" fill="#f5f5f5"/>
      </g>
      <g id="freepik--chart-3--inject-210" transform="translate(141.729 136.081)">
        <path id="Path_47460" data-name="Path 47460" d="M330.961,259.9H210.645a5.154,5.154,0,0,1-5.21-5.72l6.334-72.45a6.369,6.369,0,0,1,6.21-5.713H338.3a5.154,5.154,0,0,1,5.216,5.713l-6.341,72.45a6.362,6.362,0,0,1-6.21,5.72Z" transform="translate(-205.405 -173.597)" fill="#0091ff"/>
        <path id="Path_47461" data-name="Path 47461" d="M330.961,259.9H210.645a5.154,5.154,0,0,1-5.21-5.72l6.334-72.45a6.369,6.369,0,0,1,6.21-5.713H338.3a5.154,5.154,0,0,1,5.216,5.713l-6.341,72.45a6.362,6.362,0,0,1-6.21,5.72Z" transform="translate(-205.405 -173.597)" opacity="0.3"/>
        <path id="Path_47462" data-name="Path 47462" d="M331.273,256.386H210.985a5.147,5.147,0,0,1-5.209-5.713l6.334-72.45a6.355,6.355,0,0,1,6.21-5.713H338.615a5.141,5.141,0,0,1,5.21,5.713l-6.334,72.45A6.355,6.355,0,0,1,331.273,256.386Z" transform="translate(-205.51 -172.509)" fill="#0091ff"/>
        <path id="Path_47463" data-name="Path 47463" d="M331.273,256.386H210.985a5.147,5.147,0,0,1-5.209-5.713l6.334-72.45a6.355,6.355,0,0,1,6.21-5.713H338.615a5.141,5.141,0,0,1,5.21,5.713l-6.334,72.45A6.355,6.355,0,0,1,331.273,256.386Z" transform="translate(-205.51 -172.509)" fill="#fff" opacity="0.6"/>
        <path id="Path_47464" data-name="Path 47464" d="M233.679,183.64,227.69,252.2h109.1l6-68.531ZM340.7,197.164h-12.62l1.1-12.62H341.8Zm-81.5,14.428h12.613l-1.125,12.62H258.091Zm-2.015,12.62H244.567l1.1-12.62h12.592Zm41.793-13.524H286.326l1.1-12.62h12.62Zm2.015-12.62H313.6l-1.1,12.62H299.85Zm-14.711,13.524h12.613l-1.1,12.62H285.174Zm-2.015,12.62H271.615l1.1-12.62h12.613Zm1.187-13.524H272.8l1.1-12.62h12.655Zm-13.524,0H259.271l1.1-12.62H273Zm-1.263,14.428-1.139,12.592H256.884l1.1-12.62Zm.9,0h12.62l-1.138,12.592h-12.62Zm13.524,0h12.62l-1.139,12.592H283.959Zm13.531,0h12.613L310.1,237.708H297.483Zm.076-.9,1.1-12.62h12.613l-1.1,12.62Zm14.628-12.62h12.558l-1.1,12.62H312.187Zm.083-.9,1.1-12.62h12.613l-1.1,12.62Zm1.18-13.524,1.1-12.62h12.62l-1.1,12.62Zm-.911,0H301.044l1.1-12.62h12.613Zm-13.524,0H287.506l1.118-12.586h12.613Zm-13.524,0H273.982l1.1-12.62H287.7Zm-13.524,0H260.458l1.1-12.62h12.613Zm-13.524,0H246.934l1.1-12.62h12.613Zm-.076.9-1.1,12.62H245.747l1.1-12.62Zm-14.628,12.62H232.223l1.1-12.62h12.62Zm-.083.9-1.1,12.62H231.043l1.1-12.62Zm-1.18,13.524-1.138,12.592h-12.62l1.1-12.62Zm.9,0h12.62L256,237.708h-12.62Zm11.433,13.531-1.138,12.613H242.2l1.1-12.613Zm.911,0h12.579l-1.1,12.613H255.725Zm13.524,0h12.579l-1.1,12.613H269.249Zm13.524,0H296.49l-1.1,12.613H282.773Zm13.524,0h12.579l-1.1,12.613H296.3Zm13.524,0h12.62l-1.145,12.613H309.821Zm.083-.911,1.1-12.62h12.613l-1.139,12.593Zm14.628-12.62h12.613l-1.138,12.593H324.5Zm.076-.9,1.1-12.62h12.62l-1.166,12.62Zm1.187-13.524,1.1-12.62H340.65l-1.1,12.62Zm-79.805-26.11-1.1,12.62h-12.6l1.1-12.62Zm-17.347,54.1h12.613l-1.1,12.613H228.677Zm93.564,12.613,1.1-12.613h12.62l-1.1,12.613Z" transform="translate(-212.313 -175.959)" fill="#0091ff"/>
        <path id="Path_47465" data-name="Path 47465" d="M233.679,183.64,227.69,252.2h109.1l6-68.531ZM340.7,197.164h-12.62l1.1-12.62H341.8Zm-81.5,14.428h12.613l-1.125,12.62H258.091Zm-2.015,12.62H244.567l1.1-12.62h12.592Zm41.793-13.524H286.326l1.1-12.62h12.62Zm2.015-12.62H313.6l-1.1,12.62H299.85Zm-14.711,13.524h12.613l-1.1,12.62H285.174Zm-2.015,12.62H271.615l1.1-12.62h12.613Zm1.187-13.524H272.8l1.1-12.62h12.655Zm-13.524,0H259.271l1.1-12.62H273Zm-1.263,14.428-1.139,12.592H256.884l1.1-12.62Zm.9,0h12.62l-1.138,12.592h-12.62Zm13.524,0h12.62l-1.139,12.592H283.959Zm13.531,0h12.613L310.1,237.708H297.483Zm.076-.9,1.1-12.62h12.613l-1.1,12.62Zm14.628-12.62h12.558l-1.1,12.62H312.187Zm.083-.9,1.1-12.62h12.613l-1.1,12.62Zm1.18-13.524,1.1-12.62h12.62l-1.1,12.62Zm-.911,0H301.044l1.1-12.62h12.613Zm-13.524,0H287.506l1.118-12.586h12.613Zm-13.524,0H273.982l1.1-12.62H287.7Zm-13.524,0H260.458l1.1-12.62h12.613Zm-13.524,0H246.934l1.1-12.62h12.613Zm-.076.9-1.1,12.62H245.747l1.1-12.62Zm-14.628,12.62H232.223l1.1-12.62h12.62Zm-.083.9-1.1,12.62H231.043l1.1-12.62Zm-1.18,13.524-1.138,12.592h-12.62l1.1-12.62Zm.9,0h12.62L256,237.708h-12.62Zm11.433,13.531-1.138,12.613H242.2l1.1-12.613Zm.911,0h12.579l-1.1,12.613H255.725Zm13.524,0h12.579l-1.1,12.613H269.249Zm13.524,0H296.49l-1.1,12.613H282.773Zm13.524,0h12.579l-1.1,12.613H296.3Zm13.524,0h12.62l-1.145,12.613H309.821Zm.083-.911,1.1-12.62h12.613l-1.139,12.593Zm14.628-12.62h12.613l-1.138,12.593H324.5Zm.076-.9,1.1-12.62h12.62l-1.166,12.62Zm1.187-13.524,1.1-12.62H340.65l-1.1,12.62Zm-79.805-26.11-1.1,12.62h-12.6l1.1-12.62Zm-17.347,54.1h12.613l-1.1,12.613H228.677Zm93.564,12.613,1.1-12.613h12.62l-1.1,12.613Z" transform="translate(-212.313 -175.959)" fill="#fff" opacity="0.8"/>
        <path id="Path_47466" data-name="Path 47466" d="M236.681,276.224H233.3l1.187-13.524h3.381Z" transform="translate(-214.052 -200.468)" fill="#0091ff"/>
        <path id="Path_47467" data-name="Path 47467" d="M236.681,276.224H233.3l1.187-13.524h3.381Z" transform="translate(-214.052 -200.468)" opacity="0.2"/>
        <path id="Path_47468" data-name="Path 47468" d="M241.581,278.208H238.2l.8-9.108h3.381Z" transform="translate(-215.571 -202.452)" fill="#0091ff"/>
        <path id="Path_47469" data-name="Path 47469" d="M241.581,278.208H238.2l.8-9.108h3.381Z" transform="translate(-215.571 -202.452)" fill="#fff" opacity="0.3"/>
        <path id="Path_47470" data-name="Path 47470" d="M261.181,271.4H257.8l2.125-24.254h3.381Z" transform="translate(-221.647 -195.647)" fill="#0091ff"/>
        <path id="Path_47471" data-name="Path 47471" d="M261.181,271.4H257.8l2.125-24.254h3.381Z" transform="translate(-221.647 -195.647)" fill="#fff" opacity="0.3"/>
        <path id="Path_47472" data-name="Path 47472" d="M280.781,271.4H277.4l2.125-24.254h3.381Z" transform="translate(-227.723 -195.647)" fill="#0091ff"/>
        <path id="Path_47473" data-name="Path 47473" d="M280.781,271.4H277.4l2.125-24.254h3.381Z" transform="translate(-227.723 -195.647)" fill="#fff" opacity="0.3"/>
        <path id="Path_47474" data-name="Path 47474" d="M300.381,271.4H297l2.125-24.254h3.381Z" transform="translate(-233.799 -195.647)" fill="#0091ff"/>
        <path id="Path_47475" data-name="Path 47475" d="M300.381,271.4H297l2.125-24.254h3.381Z" transform="translate(-233.799 -195.647)" fill="#fff" opacity="0.3"/>
        <path id="Path_47476" data-name="Path 47476" d="M319.984,266.31H316.61l3.112-35.59H323.1Z" transform="translate(-239.878 -190.554)" fill="#0091ff"/>
        <path id="Path_47477" data-name="Path 47477" d="M319.984,266.31H316.61l3.112-35.59H323.1Z" transform="translate(-239.878 -190.554)" fill="#fff" opacity="0.3"/>
        <path id="Path_47478" data-name="Path 47478" d="M339.591,260.882H336.21l4.168-47.672h3.381Z" transform="translate(-245.954 -185.126)" fill="#0091ff"/>
        <path id="Path_47479" data-name="Path 47479" d="M339.591,260.882H336.21l4.168-47.672h3.381Z" transform="translate(-245.954 -185.126)" fill="#fff" opacity="0.3"/>
        <path id="Path_47480" data-name="Path 47480" d="M359.191,257.212H355.81L360.7,201.37h3.381Z" transform="translate(-252.03 -181.456)" fill="#0091ff"/>
        <path id="Path_47481" data-name="Path 47481" d="M359.191,257.212H355.81L360.7,201.37h3.381Z" transform="translate(-252.03 -181.456)" fill="#fff" opacity="0.3"/>
        <path id="Path_47482" data-name="Path 47482" d="M378.791,254.722H375.41l5.368-61.382h3.381Z" transform="translate(-258.106 -178.966)" fill="#0091ff"/>
        <path id="Path_47483" data-name="Path 47483" d="M378.791,254.722H375.41l5.368-61.382h3.381Z" transform="translate(-258.106 -178.966)" fill="#fff" opacity="0.3"/>
        <path id="Path_47484" data-name="Path 47484" d="M256.281,272.953H252.9l1.822-20.8H258.1Z" transform="translate(-220.128 -197.197)" fill="#0091ff"/>
        <path id="Path_47485" data-name="Path 47485" d="M256.281,272.953H252.9l1.822-20.8H258.1Z" transform="translate(-220.128 -197.197)" opacity="0.2"/>
        <path id="Path_47486" data-name="Path 47486" d="M275.881,276.224H272.5l1.187-13.524h3.381Z" transform="translate(-226.204 -200.468)" fill="#0091ff"/>
        <path id="Path_47487" data-name="Path 47487" d="M275.881,276.224H272.5l1.187-13.524h3.381Z" transform="translate(-226.204 -200.468)" opacity="0.2"/>
        <path id="Path_47488" data-name="Path 47488" d="M295.481,270.148H292.1l2.367-27.048h3.381Z" transform="translate(-232.28 -194.392)" fill="#0091ff"/>
        <path id="Path_47489" data-name="Path 47489" d="M295.481,270.148H292.1l2.367-27.048h3.381Z" transform="translate(-232.28 -194.392)" opacity="0.2"/>
        <path id="Path_47490" data-name="Path 47490" d="M315.088,264.072H311.7l3.554-40.572h3.381Z" transform="translate(-238.356 -188.316)" fill="#0091ff"/>
        <path id="Path_47491" data-name="Path 47491" d="M315.088,264.072H311.7l3.554-40.572h3.381Z" transform="translate(-238.356 -188.316)" opacity="0.2"/>
        <path id="Path_47492" data-name="Path 47492" d="M334.691,261.772H331.31l4-45.692h3.381Z" transform="translate(-244.435 -186.016)" fill="#0091ff"/>
        <path id="Path_47493" data-name="Path 47493" d="M334.691,261.772H331.31l4-45.692h3.381Z" transform="translate(-244.435 -186.016)" opacity="0.2"/>
        <path id="Path_47494" data-name="Path 47494" d="M354.291,258H350.91l4.733-54.1h3.381Z" transform="translate(-250.511 -182.24)" fill="#0091ff"/>
        <path id="Path_47495" data-name="Path 47495" d="M354.291,258H350.91l4.733-54.1h3.381Z" transform="translate(-250.511 -182.24)" opacity="0.2"/>
        <path id="Path_47496" data-name="Path 47496" d="M373.891,258H370.51l4.733-54.1h3.381Z" transform="translate(-256.587 -182.24)" fill="#0091ff"/>
        <path id="Path_47497" data-name="Path 47497" d="M373.891,258H370.51l4.733-54.1h3.381Z" transform="translate(-256.587 -182.24)" opacity="0.2"/>
        <path id="Path_47498" data-name="Path 47498" d="M219.538,283.22a1.546,1.546,0,0,1-.552-.724,2.456,2.456,0,0,1-.124-1.132,2.691,2.691,0,0,1,.324-1.132,1.828,1.828,0,0,1,.69-.724,1.745,1.745,0,0,1,.918-.248,1.559,1.559,0,0,1,.883.248,1.442,1.442,0,0,1,.552.725,2.449,2.449,0,0,1,.124,1.132,2.822,2.822,0,0,1-.317,1.132,2.07,2.07,0,0,1-.69.724,1.787,1.787,0,0,1-.925.248,1.573,1.573,0,0,1-.883-.248Zm1.566-.869a1.987,1.987,0,0,0,.3-.987,1.691,1.691,0,0,0-.124-.987.607.607,0,0,0-.559-.324.745.745,0,0,0-.607.324,1.939,1.939,0,0,0-.3.987,1.7,1.7,0,0,0,.124.987.6.6,0,0,0,.552.317.732.732,0,0,0,.614-.324Z" transform="translate(-209.57 -205.601)" fill="#0091ff"/>
        <path id="Path_47499" data-name="Path 47499" d="M218.552,259.75l-.359,4.071h-.938l.29-3.319h-.814l.062-.752Z" transform="translate(-208.916 -199.553)" fill="#0091ff"/>
        <path id="Path_47500" data-name="Path 47500" d="M220.808,263.61a1.5,1.5,0,0,1-.552-.724,2.456,2.456,0,0,1-.124-1.132,2.76,2.76,0,0,1,.317-1.132,1.925,1.925,0,0,1,.69-.724,1.787,1.787,0,0,1,.925-.248,1.573,1.573,0,0,1,.883.248,1.442,1.442,0,0,1,.552.724,2.449,2.449,0,0,1,.124,1.132,2.719,2.719,0,0,1-.324,1.132,1.96,1.96,0,0,1-.69.724,1.787,1.787,0,0,1-.925.248,1.559,1.559,0,0,1-.876-.248Zm1.566-.869a1.987,1.987,0,0,0,.3-.987,1.781,1.781,0,0,0-.124-.994.614.614,0,0,0-.559-.317.745.745,0,0,0-.607.317,1.925,1.925,0,0,0-.3.994,1.7,1.7,0,0,0,.124.987.593.593,0,0,0,.552.317.738.738,0,0,0,.614-.317Z" transform="translate(-209.964 -199.522)" fill="#0091ff"/>
        <path id="Path_47501" data-name="Path 47501" d="M219.516,243.417l-.069.773H216.37l.055-.614,1.7-1.484a2.07,2.07,0,0,0,.373-.407.855.855,0,0,0,.117-.345.414.414,0,0,0-.138-.373.69.69,0,0,0-.469-.131,1.187,1.187,0,0,0-.5.1,1.159,1.159,0,0,0-.386.3l-.649-.442a1.836,1.836,0,0,1,.69-.552,2.229,2.229,0,0,1,.973-.2,1.9,1.9,0,0,1,.78.145,1.076,1.076,0,0,1,.5.421,1.021,1.021,0,0,1,.131.635,1.518,1.518,0,0,1-.193.621,2.761,2.761,0,0,1-.6.69l-1.014.883Z" transform="translate(-208.804 -193.446)" fill="#0091ff"/>
        <path id="Path_47502" data-name="Path 47502" d="M222.315,244.016a1.47,1.47,0,0,1-.559-.69,2.456,2.456,0,0,1-.124-1.132,2.691,2.691,0,0,1,.324-1.132,1.829,1.829,0,0,1,.69-.725,1.746,1.746,0,0,1,.918-.248,1.56,1.56,0,0,1,.883.248,1.442,1.442,0,0,1,.552.725,2.449,2.449,0,0,1,.124,1.132,2.822,2.822,0,0,1-.317,1.132,1.96,1.96,0,0,1-.69.69,1.732,1.732,0,0,1-.925.255,1.49,1.49,0,0,1-.876-.255Zm1.559-.863a1.987,1.987,0,0,0,.3-.987,1.725,1.725,0,0,0-.124-.994.614.614,0,0,0-.559-.317.759.759,0,0,0-.607.317,1.994,1.994,0,0,0-.3.994,1.7,1.7,0,0,0,.124.987.6.6,0,0,0,.552.317A.732.732,0,0,0,223.874,243.153Z" transform="translate(-210.429 -193.459)" fill="#0091ff"/>
        <path id="Path_47503" data-name="Path 47503" d="M220.9,222.627a1.028,1.028,0,0,1,.214.773,1.29,1.29,0,0,1-.242.69,1.421,1.421,0,0,1-.607.476,2.208,2.208,0,0,1-.952.186,3.093,3.093,0,0,1-.835-.117,1.87,1.87,0,0,1-.69-.324l.428-.69a1.538,1.538,0,0,0,.518.269,2.008,2.008,0,0,0,.614.1,1.083,1.083,0,0,0,.573-.138.476.476,0,0,0,.235-.386c0-.331-.207-.5-.69-.5h-.428l.055-.621.918-.952H218.28l.062-.752h2.85l-.048.607-1.028,1.021a1.228,1.228,0,0,1,.787.359Z" transform="translate(-209.244 -187.429)" fill="#0091ff"/>
        <path id="Path_47504" data-name="Path 47504" d="M224.018,224.4a1.442,1.442,0,0,1-.552-.724,2.415,2.415,0,0,1-.124-1.125,2.76,2.76,0,0,1,.317-1.132,1.925,1.925,0,0,1,.69-.725,1.787,1.787,0,0,1,.925-.248,1.56,1.56,0,0,1,.883.248,1.442,1.442,0,0,1,.552.725,2.436,2.436,0,0,1,.124,1.132,2.76,2.76,0,0,1-.317,1.125,1.926,1.926,0,0,1-.69.725,1.794,1.794,0,0,1-.925.255A1.566,1.566,0,0,1,224.018,224.4Zm1.566-.862a1.987,1.987,0,0,0,.3-.987,1.725,1.725,0,0,0-.124-.994.6.6,0,0,0-.559-.317.731.731,0,0,0-.607.317,1.994,1.994,0,0,0-.3.994,1.7,1.7,0,0,0,.124.987.6.6,0,0,0,.552.317A.738.738,0,0,0,225.584,223.541Z" transform="translate(-210.959 -187.37)" fill="#0091ff"/>
        <path id="Path_47505" data-name="Path 47505" d="M222.754,204.165h-.69l-.076.849h-.918l.076-.849H219l.055-.635,2.146-2.581h.987l-1.994,2.443h1.1l.062-.759h.89l-.062.759h.69Z" transform="translate(-209.619 -181.325)" fill="#0091ff"/>
        <path id="Path_47506" data-name="Path 47506" d="M225.686,204.816a1.5,1.5,0,0,1-.559-.725A2.629,2.629,0,0,1,225,202.96a2.759,2.759,0,0,1,.324-1.125,1.925,1.925,0,0,1,.69-.69,1.773,1.773,0,0,1,.925-.255,1.539,1.539,0,0,1,.876.255,1.5,1.5,0,0,1,.559.69,2.615,2.615,0,0,1,.124,1.125,2.76,2.76,0,0,1-.324,1.132,1.828,1.828,0,0,1-.69.725,1.767,1.767,0,0,1-.925.248A1.553,1.553,0,0,1,225.686,204.816Zm1.559-.863a1.987,1.987,0,0,0,.3-.994,1.76,1.76,0,0,0-.131-.987.586.586,0,0,0-.552-.317.69.69,0,0,0-.607.317,1.918,1.918,0,0,0-.3.987,1.725,1.725,0,0,0,.124.994.593.593,0,0,0,.552.317.69.69,0,0,0,.593-.317Z" transform="translate(-211.475 -181.307)" fill="#0091ff"/>
        <path id="Path_47507" data-name="Path 47507" d="M224.308,183.235a1.049,1.049,0,0,1,.324.918,1.38,1.38,0,0,1-.242.69,1.47,1.47,0,0,1-.614.49,2.215,2.215,0,0,1-.952.179,3.05,3.05,0,0,1-.835-.11,1.987,1.987,0,0,1-.69-.324l.435-.69a1.5,1.5,0,0,0,.511.269,2.009,2.009,0,0,0,.614.1,1.042,1.042,0,0,0,.566-.138.511.511,0,0,0,.242-.393.407.407,0,0,0-.179-.393,1.38,1.38,0,0,0-.725-.138h-1.042l.414-2.291h2.477l-.062.759h-1.7l-.131.773h.331A1.842,1.842,0,0,1,224.308,183.235Z" transform="translate(-210.332 -175.265)" fill="#0091ff"/>
        <path id="Path_47508" data-name="Path 47508" d="M227.456,185.248a1.442,1.442,0,0,1-.552-.69,2.526,2.526,0,0,1-.131-1.132,2.939,2.939,0,0,1,.324-1.132,1.959,1.959,0,0,1,.69-.69,1.732,1.732,0,0,1,.925-.255,1.49,1.49,0,0,1,.876.255,1.47,1.47,0,0,1,.559.69,2.456,2.456,0,0,1,.124,1.132,2.656,2.656,0,0,1-.324,1.132,1.828,1.828,0,0,1-.69.69,1.746,1.746,0,0,1-.918.248A1.559,1.559,0,0,1,227.456,185.248Zm1.559-.863a1.925,1.925,0,0,0,.3-.994,1.828,1.828,0,0,0-.124-.987.6.6,0,0,0-.559-.317.731.731,0,0,0-.607.317,1.918,1.918,0,0,0-.3.987,1.725,1.725,0,0,0,.124.994.593.593,0,0,0,.552.317.69.69,0,0,0,.586-.331Z" transform="translate(-212.024 -175.249)" fill="#0091ff"/>
        <path id="Path_47509" data-name="Path 47509" d="M266.213,223.58H256.29a2.663,2.663,0,0,1-2.7-2.96l.863-9.95a3.3,3.3,0,0,1,3.222-2.96h9.915a2.677,2.677,0,0,1,2.7,2.96l-.869,9.922A3.3,3.3,0,0,1,266.213,223.58Z" transform="translate(-220.338 -183.421)" fill="#0091ff"/>
        <path id="Path_47510" data-name="Path 47510" d="M266.213,223.58H256.29a2.663,2.663,0,0,1-2.7-2.96l.863-9.95a3.3,3.3,0,0,1,3.222-2.96h9.915a2.677,2.677,0,0,1,2.7,2.96l-.869,9.922A3.3,3.3,0,0,1,266.213,223.58Z" transform="translate(-220.338 -183.421)" opacity="0.3"/>
        <path id="Path_47511" data-name="Path 47511" d="M266.332,221.985h-9.9a2.657,2.657,0,0,1-2.7-2.953l.869-9.922a3.3,3.3,0,0,1,3.222-2.96h9.888a2.677,2.677,0,0,1,2.7,2.96l-.869,9.922a3.291,3.291,0,0,1-3.215,2.953Z" transform="translate(-220.381 -182.937)" fill="#0091ff"/>
        <path id="Path_47512" data-name="Path 47512" d="M266.332,221.985h-9.9a2.657,2.657,0,0,1-2.7-2.953l.869-9.922a3.3,3.3,0,0,1,3.222-2.96h9.888a2.677,2.677,0,0,1,2.7,2.96l-.869,9.922a3.291,3.291,0,0,1-3.215,2.953Z" transform="translate(-220.381 -182.937)" fill="#fff" opacity="0.8"/>
        <path id="Path_47513" data-name="Path 47513" d="M261.473,218.088a2.373,2.373,0,0,1-1.318.531l-.076.828h-.731l.069-.807a4,4,0,0,1-1.021-.186,2.409,2.409,0,0,1-.766-.4l.49-.9a2.422,2.422,0,0,0,.621.345,2.822,2.822,0,0,0,.759.173l.11-1.228a5.1,5.1,0,0,1-.862-.276,1.38,1.38,0,0,1-.566-.455,1.145,1.145,0,0,1-.172-.794,1.545,1.545,0,0,1,.538-1.049,2.318,2.318,0,0,1,1.332-.531l.069-.821h.738l-.069.807a2.953,2.953,0,0,1,1.456.449l-.449.9a2.76,2.76,0,0,0-1.09-.386l-.11,1.256a4.407,4.407,0,0,1,.849.269,1.38,1.38,0,0,1,.559.448,1.1,1.1,0,0,1,.173.787,1.518,1.518,0,0,1-.531,1.035Zm-2.16-2.926a1.008,1.008,0,0,0,.386.2l.1-1.042a.856.856,0,0,0-.435.207.5.5,0,0,0-.159.338A.338.338,0,0,0,259.314,215.163Zm1.339,2.291a.442.442,0,0,0,.159-.317.331.331,0,0,0-.1-.3,1.028,1.028,0,0,0-.379-.207l-.09,1.014a.828.828,0,0,0,.407-.193Z" transform="translate(-221.595 -184.912)" fill="#0091ff"/>
        <path id="Path_47514" data-name="Path 47514" d="M267.45,215.289l2.422-2.229,2.036,2.229Z" transform="translate(-224.639 -185.079)" fill="#0091ff"/>
        <path id="Path_47515" data-name="Path 47515" d="M271.687,218.79l-2.422,2.229-2.036-2.229Z" transform="translate(-224.571 -186.856)" fill="#0091ff"/>
        <path id="Path_47516" data-name="Path 47516" d="M336.307,197.935H326.35a2.663,2.663,0,0,1-2.7-2.96l.863-9.915a3.3,3.3,0,0,1,3.222-2.96h9.95a2.677,2.677,0,0,1,2.7,2.96l-.869,9.915a3.3,3.3,0,0,1-3.215,2.96Z" transform="translate(-242.056 -175.482)" fill="#0091ff"/>
        <path id="Path_47517" data-name="Path 47517" d="M336.307,197.935H326.35a2.663,2.663,0,0,1-2.7-2.96l.863-9.915a3.3,3.3,0,0,1,3.222-2.96h9.95a2.677,2.677,0,0,1,2.7,2.96l-.869,9.915a3.3,3.3,0,0,1-3.215,2.96Z" transform="translate(-242.056 -175.482)" opacity="0.3"/>
        <path id="Path_47518" data-name="Path 47518" d="M336.413,196.335H326.49a2.663,2.663,0,0,1-2.7-2.96l.863-9.915a3.3,3.3,0,0,1,3.222-2.96h9.915a2.677,2.677,0,0,1,2.7,2.96l-.869,9.915a3.3,3.3,0,0,1-3.215,2.96Z" transform="translate(-242.1 -174.986)" fill="#0091ff"/>
        <path id="Path_47519" data-name="Path 47519" d="M336.413,196.335H326.49a2.663,2.663,0,0,1-2.7-2.96l.863-9.915a3.3,3.3,0,0,1,3.222-2.96h9.915a2.677,2.677,0,0,1,2.7,2.96l-.869,9.915a3.3,3.3,0,0,1-3.215,2.96Z" transform="translate(-242.1 -174.986)" fill="#fff" opacity="0.8"/>
        <path id="Path_47520" data-name="Path 47520" d="M331.533,192.431a2.325,2.325,0,0,1-1.318.538l-.076.821h-.731l.069-.8a3.726,3.726,0,0,1-1.021-.193,2.409,2.409,0,0,1-.766-.393l.49-.9a2.236,2.236,0,0,0,.621.345,2.593,2.593,0,0,0,.759.179l.11-1.228a5.059,5.059,0,0,1-.863-.283,1.449,1.449,0,0,1-.566-.449,1.146,1.146,0,0,1-.173-.793,1.546,1.546,0,0,1,.538-1.049,2.325,2.325,0,0,1,1.332-.538l.069-.814h.738l-.083.78a3.029,3.029,0,0,1,1.456.449l-.449.911a2.629,2.629,0,0,0-1.09-.386l-.11,1.256a4.41,4.41,0,0,1,.849.269,1.318,1.318,0,0,1,.559.448,1.076,1.076,0,0,1,.172.78,1.491,1.491,0,0,1-.517,1.056Zm-2.16-2.919a1.118,1.118,0,0,0,.386.2l.1-1.049a.918.918,0,0,0-.435.214.5.5,0,0,0-.159.331A.345.345,0,0,0,329.374,189.513Zm1.339,2.291a.5.5,0,0,0,.166-.317.373.373,0,0,0-.11-.3,1.139,1.139,0,0,0-.379-.2L330.3,192a.89.89,0,0,0,.414-.207Z" transform="translate(-243.313 -176.961)" fill="#0091ff"/>
        <path id="Path_47521" data-name="Path 47521" d="M337.51,189.639l2.422-2.229,2.036,2.229Z" transform="translate(-246.357 -177.128)" fill="#0091ff"/>
        <path id="Path_47522" data-name="Path 47522" d="M341.747,193.13l-2.422,2.229-2.035-2.229Z" transform="translate(-246.289 -178.901)" fill="#0091ff"/>
      </g>
      <g id="freepik--chart-2--inject-210" transform="translate(144.391 67.599)">
        <path id="Path_47523" data-name="Path 47523" d="M256.392,76.46l-2.532,28.98,8.383,26.91a32.663,32.663,0,0,0,19.465-26.627C283.081,89.991,271.841,77.185,256.392,76.46Z" transform="translate(-223.088 -74.252)" fill="#0091ff"/>
        <path id="Path_47524" data-name="Path 47524" d="M256.392,76.46l-2.532,28.98,8.383,26.91a32.663,32.663,0,0,0,19.465-26.627C283.081,89.991,271.841,77.185,256.392,76.46Z" transform="translate(-223.088 -74.252)" opacity="0.3"/>
        <path id="Path_47525" data-name="Path 47525" d="M256.672,73.26l-2.532,28.98,8.384,26.91a32.663,32.663,0,0,0,19.465-26.627C283.361,86.784,272.121,73.978,256.672,73.26Z" transform="translate(-223.174 -73.26)" fill="#0091ff"/>
        <path id="Path_47526" data-name="Path 47526" d="M245.962,130.133l-8.542-27.379,2.387-27.276L240,73.27c-15.58.69-29.063,13.524-30.436,29.222,0,.366-.048.69-.069,1.09s-.09.745-.124,1.118c-1.38,16.16,10.536,29.256,26.7,29.256a30.519,30.519,0,0,0,9.7-1.6Z" transform="translate(-209.262 -73.263)" fill="#0091ff"/>
        <path id="Path_47527" data-name="Path 47527" d="M245.962,130.133l-8.542-27.379,2.387-27.276L240,73.27c-15.58.69-29.063,13.524-30.436,29.222,0,.366-.048.69-.069,1.09s-.09.745-.124,1.118c-1.38,16.16,10.536,29.256,26.7,29.256a30.519,30.519,0,0,0,9.7-1.6Z" transform="translate(-209.262 -73.263)" opacity="0.3"/>
        <path id="Path_47528" data-name="Path 47528" d="M237.5,102.754l2.581-29.484c-15.58.69-29.063,13.524-30.436,29.222-1.415,16.132,10.557,29.242,26.7,29.242a30.525,30.525,0,0,0,9.7-1.608Z" transform="translate(-209.347 -73.263)" fill="#0091ff"/>
        <path id="Path_47529" data-name="Path 47529" d="M237.5,102.754l2.581-29.484c-15.58.69-29.063,13.524-30.436,29.222-1.415,16.132,10.557,29.242,26.7,29.242a30.525,30.525,0,0,0,9.7-1.608Z" transform="translate(-209.347 -73.263)" fill="#fff" opacity="0.3"/>
        <g id="Group_4385" data-name="Group 4385" transform="translate(10.472 22.018)" opacity="0.8">
          <path id="Path_47530" data-name="Path 47530" d="M234.646,106.847a1.511,1.511,0,0,0-1.532-1.677,1.87,1.87,0,0,0-1.828,1.677l-.09,1.063a1.511,1.511,0,0,0,1.532,1.677,1.863,1.863,0,0,0,1.822-1.677Z" transform="translate(-226.531 -105.17)" fill="#fff"/>
          <path id="Path_47531" data-name="Path 47531" d="M224.861,114.85l-.414,4.726a.828.828,0,0,0,.724.932.994.994,0,0,0,1.063-.89l.352-4.016a.407.407,0,0,1,.393-.359h0a.331.331,0,0,1,.331.359l-1.38,16.174a1.007,1.007,0,0,0,.966,1.1h0a1.249,1.249,0,0,0,1.214-1.118l.773-8.542a.876.876,0,0,1,.773-.828.69.69,0,0,1,.731.759l-.731,8.625a1.007,1.007,0,0,0,1.021,1.118h0a1.242,1.242,0,0,0,1.214-1.118l1.38-16.174a.407.407,0,0,1,.393-.359h0a.324.324,0,0,1,.331.359l-.345,3.974a.828.828,0,0,0,.69.932.994.994,0,0,0,1.063-.89l.414-4.768a2.07,2.07,0,0,0-2.07-2.27h-6.486A2.525,2.525,0,0,0,224.861,114.85Z" transform="translate(-224.44 -107.467)" fill="#fff"/>
        </g>
        <g id="Group_4386" data-name="Group 4386" transform="translate(37.597 8.791)" opacity="0.8">
          <path id="Path_47532" data-name="Path 47532" d="M269.83,90.416s.593-2.56.635-2.76A2.07,2.07,0,0,1,272.217,86a1.656,1.656,0,0,1,1.456,1.677c0,.186.159,2.76.159,2.76Z" transform="translate(-265.635 -86)" fill="#fff"/>
          <path id="Path_47533" data-name="Path 47533" d="M273.127,93.4h-6.486a2.525,2.525,0,0,0-2.47,2.27l-.414,4.726a.835.835,0,0,0,.724.932.987.987,0,0,0,1.063-.89l.352-4.009a.407.407,0,0,1,.393-.366h0a.331.331,0,0,1,.331.366l-.442,5.044-1.7,4.83h1.283l-.552,6.313a1.007,1.007,0,0,0,1.021,1.118,1.249,1.249,0,0,0,1.214-1.118l.552-6.313h1.525l-.552,6.313a1.014,1.014,0,0,0,1.021,1.118,1.249,1.249,0,0,0,1.221-1.118l.552-6.313h1.277l-.856-4.83.442-5.044a.4.4,0,0,1,.386-.366.331.331,0,0,1,.331.366L273,100.4a.828.828,0,0,0,.724.932.994.994,0,0,0,1.063-.89l.414-4.768a2.07,2.07,0,0,0-2.07-2.27Z" transform="translate(-263.751 -88.294)" fill="#fff"/>
        </g>
        <path id="Path_47534" data-name="Path 47534" d="M234.51,92.622H222.78a2.663,2.663,0,0,1-2.7-2.96L221.1,77.981A3.291,3.291,0,0,1,224.347,75h11.682a2.663,2.663,0,0,1,2.7,2.953l-1.021,11.682A3.291,3.291,0,0,1,234.51,92.622Z" transform="translate(-212.611 -73.799)" fill="#0091ff"/>
        <path id="Path_47535" data-name="Path 47535" d="M234.51,92.622H222.78a2.663,2.663,0,0,1-2.7-2.96L221.1,77.981A3.291,3.291,0,0,1,224.347,75h11.682a2.663,2.663,0,0,1,2.7,2.953l-1.021,11.682A3.291,3.291,0,0,1,234.51,92.622Z" transform="translate(-212.611 -73.799)" opacity="0.3"/>
        <path id="Path_47536" data-name="Path 47536" d="M234.653,90.855H222.978a2.677,2.677,0,0,1-2.7-2.96l1.021-11.675a3.3,3.3,0,0,1,3.222-2.96h11.675a2.677,2.677,0,0,1,2.7,2.96l-1.021,11.675a3.3,3.3,0,0,1-3.222,2.96Z" transform="translate(-212.671 -73.26)" fill="#0091ff"/>
        <path id="Path_47537" data-name="Path 47537" d="M234.653,90.855H222.978a2.677,2.677,0,0,1-2.7-2.96l1.021-11.675a3.3,3.3,0,0,1,3.222-2.96h11.675a2.677,2.677,0,0,1,2.7,2.96l-1.021,11.675a3.3,3.3,0,0,1-3.222,2.96Z" transform="translate(-212.671 -73.26)" fill="#fff" opacity="0.8"/>
        <path id="Path_47538" data-name="Path 47538" d="M227.269,84.762a1.208,1.208,0,0,1,.38,1.049,1.574,1.574,0,0,1-.283.773,1.7,1.7,0,0,1-.69.559,2.629,2.629,0,0,1-1.09.207,3.34,3.34,0,0,1-.952-.131,2.173,2.173,0,0,1-.773-.366l.49-.821a1.822,1.822,0,0,0,.587.3,2.139,2.139,0,0,0,.69.11,1.166,1.166,0,0,0,.655-.159.586.586,0,0,0,.269-.442.469.469,0,0,0-.2-.455,1.67,1.67,0,0,0-.828-.152h-1.187l.469-2.608h2.829l-.076.863H225.62l-.145.876h.373a2.07,2.07,0,0,1,1.421.393Z" transform="translate(-213.788 -76.164)" fill="#0091ff"/>
        <path id="Path_47539" data-name="Path 47539" d="M232.939,84.762a1.208,1.208,0,0,1,.38,1.049,1.573,1.573,0,0,1-.283.773,1.684,1.684,0,0,1-.69.559,2.574,2.574,0,0,1-1.083.207,3.45,3.45,0,0,1-.959-.131,2.228,2.228,0,0,1-.773-.366l.5-.821a1.752,1.752,0,0,0,.586.3,2.139,2.139,0,0,0,.69.11,1.132,1.132,0,0,0,.649-.159.573.573,0,0,0,.276-.442.476.476,0,0,0-.207-.455,1.635,1.635,0,0,0-.821-.152h-1.187l.462-2.608H233.3l-.076.863H231.29l-.152.876h.379a2.07,2.07,0,0,1,1.421.393Z" transform="translate(-215.545 -76.164)" fill="#0091ff"/>
        <path id="Path_47540" data-name="Path 47540" d="M235.885,84.764a1.207,1.207,0,0,1-.241-.931,1.414,1.414,0,0,1,.4-.932,1.18,1.18,0,0,1,.862-.352.987.987,0,0,1,.8.352,1.221,1.221,0,0,1,.235.932,1.449,1.449,0,0,1-.4.931,1.173,1.173,0,0,1-.856.345.987.987,0,0,1-.8-.345Zm1.214-.386a1.014,1.014,0,0,0,.179-.545.918.918,0,0,0-.083-.552.366.366,0,0,0-.338-.186.448.448,0,0,0-.366.186,1.042,1.042,0,0,0-.179.552.911.911,0,0,0,.083.545.366.366,0,0,0,.338.186.449.449,0,0,0,.393-.186Zm2.567-1.773h.787l-3.574,4.637h-.787Zm-.607,4.533a.931.931,0,0,1-.366-.442,1.428,1.428,0,0,1-.09-.69,1.587,1.587,0,0,1,.207-.69,1.166,1.166,0,0,1,.448-.449,1.208,1.208,0,0,1,.607-.159.987.987,0,0,1,.8.352,1.221,1.221,0,0,1,.241.931,1.456,1.456,0,0,1-.407.931,1.187,1.187,0,0,1-.863.345,1.069,1.069,0,0,1-.552-.131Zm1-.573a1.042,1.042,0,0,0,.179-.545.931.931,0,0,0-.083-.552.366.366,0,0,0-.338-.186.449.449,0,0,0-.366.186.966.966,0,0,0-.186.552.849.849,0,0,0,.09.545.366.366,0,0,0,.331.186.449.449,0,0,0,.4-.186Z" transform="translate(-217.436 -76.139)" fill="#0091ff"/>
        <path id="Path_47541" data-name="Path 47541" d="M284.722,147.235H273.04a2.663,2.663,0,0,1-2.7-2.96l1.021-11.682a3.291,3.291,0,0,1,3.215-2.953h11.682a2.663,2.663,0,0,1,2.7,2.953l-1.021,11.682A3.291,3.291,0,0,1,284.722,147.235Z" transform="translate(-228.192 -90.737)" fill="#0091ff"/>
        <path id="Path_47542" data-name="Path 47542" d="M284.722,147.235H273.04a2.663,2.663,0,0,1-2.7-2.96l1.021-11.682a3.291,3.291,0,0,1,3.215-2.953h11.682a2.663,2.663,0,0,1,2.7,2.953l-1.021,11.682A3.291,3.291,0,0,1,284.722,147.235Z" transform="translate(-228.192 -90.737)" opacity="0.3"/>
        <path id="Path_47543" data-name="Path 47543" d="M284.873,145.455H273.2a2.677,2.677,0,0,1-2.7-2.96l1.035-11.682a3.284,3.284,0,0,1,3.215-2.953h11.682a2.663,2.663,0,0,1,2.7,2.953l-1.035,11.682A3.3,3.3,0,0,1,284.873,145.455Z" transform="translate(-228.239 -90.185)" fill="#0091ff"/>
        <path id="Path_47544" data-name="Path 47544" d="M284.873,145.455H273.2a2.677,2.677,0,0,1-2.7-2.96l1.035-11.682a3.284,3.284,0,0,1,3.215-2.953h11.682a2.663,2.663,0,0,1,2.7,2.953l-1.035,11.682A3.3,3.3,0,0,1,284.873,145.455Z" transform="translate(-228.239 -90.185)" fill="#fff" opacity="0.8"/>
        <path id="Path_47545" data-name="Path 47545" d="M278.066,140.884h-.759l-.083.973h-1.049l.09-.973h-2.5l.062-.725,2.449-2.939H277.4l-2.27,2.76h1.242l.076-.869h1.014l-.076.869h.759Z" transform="translate(-229.257 -93.087)" fill="#0091ff"/>
        <path id="Path_47546" data-name="Path 47546" d="M283.529,139.352a1.18,1.18,0,0,1,.373,1.049,1.559,1.559,0,0,1-.276.773,1.718,1.718,0,0,1-.69.552,2.5,2.5,0,0,1-1.09.214,3.685,3.685,0,0,1-.952-.131,2.3,2.3,0,0,1-.773-.366l.5-.828a1.65,1.65,0,0,0,.587.31,2.139,2.139,0,0,0,.69.11,1.2,1.2,0,0,0,.649-.159.545.545,0,0,0,.269-.442.455.455,0,0,0-.2-.455,1.636,1.636,0,0,0-.821-.152H280.6l.462-2.608h2.829l-.069.863h-1.939l-.152.876h.373A2.07,2.07,0,0,1,283.529,139.352Z" transform="translate(-231.228 -93.087)" fill="#0091ff"/>
        <path id="Path_47547" data-name="Path 47547" d="M286.508,139.348a1.221,1.221,0,0,1-.235-.932,1.38,1.38,0,0,1,.4-.931,1.2,1.2,0,0,1,.862-.345,1,1,0,0,1,.8.345,1.263,1.263,0,0,1,.235.932,1.414,1.414,0,0,1-.4.932,1.166,1.166,0,0,1-.862.352A.987.987,0,0,1,286.508,139.348Zm1.221-.379a1.021,1.021,0,0,0,.179-.552.9.9,0,0,0-.083-.545.366.366,0,0,0-.338-.186.448.448,0,0,0-.366.186.98.98,0,0,0-.179.545.931.931,0,0,0,.083.552.366.366,0,0,0,.331.186.449.449,0,0,0,.373-.186Zm2.567-1.773h.787l-3.574,4.637h-.787Zm-.607,4.533a.876.876,0,0,1-.366-.449,1.38,1.38,0,0,1-.09-.69,1.552,1.552,0,0,1,.207-.69,1.153,1.153,0,0,1,.448-.442,1.208,1.208,0,0,1,.607-.159,1,1,0,0,1,.8.345,1.269,1.269,0,0,1,.241.932,1.421,1.421,0,0,1-.407.932,1.18,1.18,0,0,1-.863.352,1.07,1.07,0,0,1-.58-.131Zm1-.573a1.063,1.063,0,0,0,.173-.552.918.918,0,0,0-.076-.545.379.379,0,0,0-.338-.186.469.469,0,0,0-.373.186,1.015,1.015,0,0,0-.179.545.918.918,0,0,0,.083.552.386.386,0,0,0,.338.186.448.448,0,0,0,.373-.159Z" transform="translate(-233.131 -93.062)" fill="#0091ff"/>
      </g>
      <g id="freepik--chart-1--inject-210" transform="translate(39.303 100.905)">
        <path id="Path_47548" data-name="Path 47548" d="M145.411,186.617H60.12a3.1,3.1,0,0,1-3.139-3.45l4.83-55.317a3.836,3.836,0,0,1,3.74-3.45h85.277a3.105,3.105,0,0,1,3.14,3.45l-4.83,55.317A3.829,3.829,0,0,1,145.411,186.617Z" transform="translate(-56.961 -122.419)" fill="#0091ff"/>
        <path id="Path_47549" data-name="Path 47549" d="M145.411,186.617H60.12a3.1,3.1,0,0,1-3.139-3.45l4.83-55.317a3.836,3.836,0,0,1,3.74-3.45h85.277a3.105,3.105,0,0,1,3.14,3.45l-4.83,55.317A3.829,3.829,0,0,1,145.411,186.617Z" transform="translate(-56.961 -122.419)" opacity="0.3"/>
        <path id="Path_47550" data-name="Path 47550" d="M145.662,183.74H60.371a3.105,3.105,0,0,1-3.139-3.45l4.83-55.31a3.823,3.823,0,0,1,3.74-3.45h85.3a3.1,3.1,0,0,1,3.139,3.45l-4.83,55.31a3.823,3.823,0,0,1-3.754,3.45Z" transform="translate(-57.039 -121.529)" fill="#0091ff"/>
        <path id="Path_47551" data-name="Path 47551" d="M145.662,183.74H60.371a3.105,3.105,0,0,1-3.139-3.45l4.83-55.31a3.823,3.823,0,0,1,3.74-3.45h85.3a3.1,3.1,0,0,1,3.139,3.45l-4.83,55.31a3.823,3.823,0,0,1-3.754,3.45Z" transform="translate(-57.039 -121.529)" fill="#fff" opacity="0.5"/>
        <path id="Path_47552" data-name="Path 47552" d="M70.19,129.77l-4.45,50.853h80.833l4.451-50.853Zm79.067,9.991h-9.1l.793-9.1h9.1ZM89.241,150.629h9.108l-.8,9.094h-9.1Zm-1.69,9.094H78.457l.794-9.094h9.094Zm30.85-9.991h-9.094l.773-9.074h9.1Zm1.69-9.094h9.1l-.794,9.094h-9.1Zm-10.861,9.991h9.129l-.793,9.094H108.43Zm-1.7,9.094H98.439l.794-9.094h9.1Zm.876-9.991H99.315l.793-9.094H109.2Zm-9.991,0h-9.1l.8-9.094h9.094Zm-.952,10.888-.794,9.094h-9.1l.793-9.094Zm.9,0h9.094l-.793,9.094h-9.1Zm9.991,0h9.094l-.794,9.094h-9.1Zm9.991,0h9.094l-.8,9.115h-9.087Zm.076-.9.8-9.094h9.094l-.793,9.094Zm10.792-9.094h9.094l-.794,9.094H128.42Zm.076-.9.8-9.074h9.094l-.814,9.094Zm.876-9.991.794-9.1h9.1l-.8,9.1Zm-.9,0h-9.094l.793-9.1h9.122Zm-9.991,0h-9.094l.793-9.1h9.094Zm-9.991,0h-9.1l.8-9.1h9.094Zm-9.991,0h-9.1l.8-9.1h9.094Zm-10,0H80.2l.793-9.1h9.074Zm-.076.9-.794,9.094h-9.1l.8-9.094Zm-10.785,9.115H69.369l.793-9.094h9.067Zm-.1.876-.793,9.094H68.459l.8-9.094Zm-.876,9.991-.78,9.115H67.589l.794-9.094Zm.9,0h9.115l-.8,9.094H77.58Zm8.259,10.019-.794,9.1H76.7l.794-9.1Zm.9,0h9.094l-.794,9.1H86.7Zm9.991,0H106.6l-.793,9.1H96.693Zm9.991,0h9.1l-.8,9.1h-9.115Zm9.991,0h9.08l-.8,9.1h-9.094Zm9.991,0h9.1l-.793,9.1h-9.149Zm.083-.9.793-9.094h9.1l-.8,9.094Zm10.785-9.094h9.1l-.8,9.087h-9.115Zm.083-.9.773-9.122h9.1l-.8,9.094Zm.869-9.991.8-9.094H149.2l-.794,9.094Zm-59.2-19.1-.8,9.1H70.211l.794-9.1Zm-12.6,39.979h9.1l-.8,9.1H66.713Zm69.152,9.1.8-9.1h9.094l-.793,9.1Z" transform="translate(-59.682 -124.084)" fill="#0091ff"/>
        <path id="Path_47553" data-name="Path 47553" d="M70.19,129.77l-4.45,50.853h80.833l4.451-50.853Zm79.067,9.991h-9.1l.793-9.1h9.1ZM89.241,150.629h9.108l-.8,9.094h-9.1Zm-1.69,9.094H78.457l.794-9.094h9.094Zm30.85-9.991h-9.094l.773-9.074h9.1Zm1.69-9.094h9.1l-.794,9.094h-9.1Zm-10.861,9.991h9.129l-.793,9.094H108.43Zm-1.7,9.094H98.439l.794-9.094h9.1Zm.876-9.991H99.315l.793-9.094H109.2Zm-9.991,0h-9.1l.8-9.094h9.094Zm-.952,10.888-.794,9.094h-9.1l.793-9.094Zm.9,0h9.094l-.793,9.094h-9.1Zm9.991,0h9.094l-.794,9.094h-9.1Zm9.991,0h9.094l-.8,9.115h-9.087Zm.076-.9.8-9.094h9.094l-.793,9.094Zm10.792-9.094h9.094l-.794,9.094H128.42Zm.076-.9.8-9.074h9.094l-.814,9.094Zm.876-9.991.794-9.1h9.1l-.8,9.1Zm-.9,0h-9.094l.793-9.1h9.122Zm-9.991,0h-9.094l.793-9.1h9.094Zm-9.991,0h-9.1l.8-9.1h9.094Zm-9.991,0h-9.1l.8-9.1h9.094Zm-10,0H80.2l.793-9.1h9.074Zm-.076.9-.794,9.094h-9.1l.8-9.094Zm-10.785,9.115H69.369l.793-9.094h9.067Zm-.1.876-.793,9.094H68.459l.8-9.094Zm-.876,9.991-.78,9.115H67.589l.794-9.094Zm.9,0h9.115l-.8,9.094H77.58Zm8.259,10.019-.794,9.1H76.7l.794-9.1Zm.9,0h9.094l-.794,9.1H86.7Zm9.991,0H106.6l-.793,9.1H96.693Zm9.991,0h9.1l-.8,9.1h-9.115Zm9.991,0h9.08l-.8,9.1h-9.094Zm9.991,0h9.1l-.793,9.1h-9.149Zm.083-.9.793-9.094h9.1l-.8,9.094Zm10.785-9.094h9.1l-.8,9.087h-9.115Zm.083-.9.773-9.122h9.1l-.8,9.094Zm.869-9.991.8-9.094H149.2l-.794,9.094Zm-59.2-19.1-.8,9.1H70.211l.794-9.1Zm-12.6,39.979h9.1l-.8,9.1H66.713Zm69.152,9.1.8-9.1h9.094l-.793,9.1Z" transform="translate(-59.682 -124.084)" fill="#fff" opacity="0.8"/>
        <path id="Path_47554" data-name="Path 47554" d="M71.662,194.089H66.39l.076-.89h4.72l5.762-9.812,5.637-5.182h9.991l5.43-5h10.177l-.076.9H98.3l-5.437,5H82.874l-5.237,4.816Z" transform="translate(-59.884 -137.55)" fill="#0091ff"/>
        <g id="Group_4387" data-name="Group 4387" transform="translate(6.506 35.66)" opacity="0.3">
          <path id="Path_47555" data-name="Path 47555" d="M71.662,194.089H66.39l.076-.89h4.72l5.762-9.812,5.637-5.182h9.991l5.43-5h10.177l-.076.9H98.3l-5.437,5H82.874l-5.237,4.816Z" transform="translate(-66.39 -173.21)"/>
        </g>
        <path id="Path_47556" data-name="Path 47556" d="M127.07,173.753l-.58-.635.683-.628.58.628Z" transform="translate(-78.515 -137.327)" fill="#0091ff"/>
        <path id="Path_47557" data-name="Path 47557" d="M130.06,159.523l-.58-.635,1.38-1.263.58.635Zm2.76-2.532-.58-.628,1.38-1.27.573.635Zm2.76-2.525-.58-.635,1.38-1.263.58.635Zm2.76-2.532-.573-.628.607-.559,1.063-.517.331.8-.932.448Zm3.1-1.7-.331-.8,1.67-.8.331.8Zm3.34-1.6-.331-.8,1.67-.8.331.8Zm3.34-1.6-.331-.8,1.014-.49.428-.393.58.635-.538.5Zm3.064-2.311-.573-.635,1.38-1.263.58.635Zm2.76-2.532-.58-.628,1.38-1.27.573.635Zm2.76-2.525-.58-.635,1.38-1.263.58.628Zm2.76-2.532-.573-.628,1.38-1.27.58.635Zm2.76-2.525-.58-.635,1.38-1.263.58.628Z" transform="translate(-79.442 -124.995)" fill="#0091ff"/>
        <path id="Path_47558" data-name="Path 47558" d="M180.061,133.5h-.9l.248-2.843H176.57l.083-.89h3.733Z" transform="translate(-94.04 -124.084)" fill="#0091ff"/>
        <path id="Path_47559" data-name="Path 47559" d="M166.87,159.03l-.58-.628,1.38-1.249.573.635Zm2.712-2.491L169,155.9l1.38-1.249.58.635Zm2.712-2.5-.58-.635,1.38-1.242.58.628Zm2.712-2.5-.573-.628,1.38-1.249.58.635Zm2.719-2.491-.593-.614,1.38-1.249.573.635Z" transform="translate(-90.853 -129.484)" fill="#0091ff"/>
        <path id="Path_47560" data-name="Path 47560" d="M163.473,166.641H162.39l.076-.9h.711l.545-.5.58.635Z" transform="translate(-89.644 -135.08)" fill="#0091ff"/>
        <path id="Path_47561" data-name="Path 47561" d="M138.187,171.863h-.863l.076-.9h.5l.628-.58.58.635Zm-2.546,0h-1.684l.076-.9h1.67Zm-3.367,0H130.59l.076-.9h1.684Zm8.128-2.035-.58-.628,1.3-1.194.573.635Zm2.587-2.38-.58-.635.918-.842h.863l-.076.9h-.5Zm7.859-.58h-1.684l.076-.9h1.684Zm-3.367,0H145.8l.076-.9h1.684Z" transform="translate(-79.786 -135.306)" fill="#0091ff"/>
        <path id="Path_47562" data-name="Path 47562" d="M127.747,174.107h-.9l.076-.9h.9Z" transform="translate(-78.626 -137.55)" fill="#0091ff"/>
        <path id="Path_47563" data-name="Path 47563" d="M186.034,147.983h-.9l.248-2.836H182.55l.076-.9h3.733Z" transform="translate(-95.893 -128.573)" fill="#0091ff"/>
        <g id="Group_4388" data-name="Group 4388" transform="translate(48.224 15.677)" opacity="0.2">
          <path id="Path_47564" data-name="Path 47564" d="M166.87,159.03l-.58-.628,1.38-1.249.573.635Zm2.712-2.491L169,155.9l1.38-1.249.58.635Zm2.712-2.5-.58-.635,1.38-1.242.58.628Zm2.712-2.5-.573-.628,1.38-1.249.58.635Zm2.719-2.491-.593-.614,1.38-1.249.573.635Z" transform="translate(-139.076 -145.161)" fill="#fff"/>
          <path id="Path_47565" data-name="Path 47565" d="M163.473,166.641H162.39l.076-.9h.711l.545-.5.58.635Z" transform="translate(-137.867 -150.757)" fill="#fff"/>
          <path id="Path_47566" data-name="Path 47566" d="M138.187,171.863h-.863l.076-.9h.5l.628-.58.58.635Zm-2.546,0h-1.684l.076-.9h1.67Zm-3.367,0H130.59l.076-.9h1.684Zm8.128-2.035-.58-.628,1.3-1.194.573.635Zm2.587-2.38-.58-.635.918-.842h.863l-.076.9h-.5Zm7.859-.58h-1.684l.076-.9h1.684Zm-3.367,0H145.8l.076-.9h1.684Z" transform="translate(-128.009 -150.983)" fill="#fff"/>
          <path id="Path_47567" data-name="Path 47567" d="M127.747,174.107h-.9l.076-.9h.9Z" transform="translate(-126.85 -153.228)" fill="#fff"/>
          <path id="Path_47568" data-name="Path 47568" d="M186.034,147.983h-.9l.248-2.836H182.55l.076-.9h3.733Z" transform="translate(-144.117 -144.25)" fill="#fff"/>
        </g>
        <path id="Path_47569" data-name="Path 47569" d="M126.983,174.67l-.573-.635.69-.635.573.635Z" transform="translate(-78.49 -137.609)" fill="#0091ff"/>
        <path id="Path_47570" data-name="Path 47570" d="M140.771,175.55h-1.856l.076-.9h1.856Zm-3.719,0H135.21l.076-.9h1.863Zm-3.712,0h-1.449l-.5-.552.69-.635.262.29h1.076Zm9.46-.518-.58-.635,1.428-1.318.58.635Zm-12.641-1.339L129,172.369l.69-.635,1.2,1.318Zm15.5-1.29-.573-.635,1.428-1.318.573.635Zm11.992-1.842h-1.815l.083-.9h1.6v.124l.442.483Zm-3.671,0h-1.856l.076-.9h1.856Zm-3.719,0H148.4l.076-.9h1.911Zm9.143-1.608-.58-.635,1.428-1.311.58.635Zm2.857-2.629-.58-.628,1.428-1.318.58.635Zm2.857-2.629-.58-.628,1.428-1.318.58.635Z" transform="translate(-79.293 -133.998)" fill="#0091ff"/>
        <path id="Path_47571" data-name="Path 47571" d="M184.765,162.463h-.89l.248-2.836H181.28l.083-.9H185.1Z" transform="translate(-95.5 -133.062)" fill="#0091ff"/>
        <g id="Group_4389" data-name="Group 4389" transform="translate(47.92 25.668)" opacity="0.3">
          <path id="Path_47572" data-name="Path 47572" d="M126.983,174.67l-.573-.635.69-.635.573.635Z" transform="translate(-126.41 -163.278)" fill="#fff"/>
          <path id="Path_47573" data-name="Path 47573" d="M140.771,175.55h-1.856l.076-.9h1.856Zm-3.719,0H135.21l.076-.9h1.863Zm-3.712,0h-1.449l-.5-.552.69-.635.262.29h1.076Zm9.46-.518-.58-.635,1.428-1.318.58.635Zm-12.641-1.339L129,172.369l.69-.635,1.2,1.318Zm15.5-1.29-.573-.635,1.428-1.318.573.635Zm11.992-1.842h-1.815l.083-.9h1.6v.124l.442.483Zm-3.671,0h-1.856l.076-.9h1.856Zm-3.719,0H148.4l.076-.9h1.911Zm9.143-1.608-.58-.635,1.428-1.311.58.635Zm2.857-2.629-.58-.628,1.428-1.318.58.635Zm2.857-2.629-.58-.628,1.428-1.318.58.635Z" transform="translate(-127.213 -159.666)" fill="#fff"/>
          <path id="Path_47574" data-name="Path 47574" d="M184.765,162.463h-.89l.248-2.836H181.28l.083-.9H185.1Z" transform="translate(-143.42 -158.73)" fill="#fff"/>
        </g>
        <path id="Path_47575" data-name="Path 47575" d="M89.17,165.754H80.89a2.236,2.236,0,0,1-2.256-2.477l.69-8.28a2.76,2.76,0,0,1,2.691-2.477H90.3A2.236,2.236,0,0,1,92.551,155l-.69,8.28A2.76,2.76,0,0,1,89.17,165.754Z" transform="translate(-63.675 -131.136)" fill="#0091ff"/>
        <path id="Path_47576" data-name="Path 47576" d="M89.17,165.754H80.89a2.236,2.236,0,0,1-2.256-2.477l.69-8.28a2.76,2.76,0,0,1,2.691-2.477H90.3A2.236,2.236,0,0,1,92.551,155l-.69,8.28A2.76,2.76,0,0,1,89.17,165.754Z" transform="translate(-63.675 -131.136)" opacity="0.3"/>
        <path id="Path_47577" data-name="Path 47577" d="M89.26,164.417H80.98a2.229,2.229,0,0,1-2.256-2.47l.725-8.28a2.76,2.76,0,0,1,2.691-2.477h8.28a2.236,2.236,0,0,1,2.291,2.463l-.69,8.28A2.76,2.76,0,0,1,89.26,164.417Z" transform="translate(-63.703 -130.724)" fill="#0091ff"/>
        <path id="Path_47578" data-name="Path 47578" d="M89.26,164.417H80.98a2.229,2.229,0,0,1-2.256-2.47l.725-8.28a2.76,2.76,0,0,1,2.691-2.477h8.28a2.236,2.236,0,0,1,2.291,2.463l-.69,8.28A2.76,2.76,0,0,1,89.26,164.417Z" transform="translate(-63.703 -130.724)" fill="#fff" opacity="0.8"/>
        <path id="Path_47579" data-name="Path 47579" d="M88.691,161.634a1.511,1.511,0,0,1-.538.393,1.655,1.655,0,0,1-.69.138,1.719,1.719,0,0,1-.849-.207,3.14,3.14,0,0,1-.821-.731,2.242,2.242,0,0,1-1.014-.373,1.877,1.877,0,0,1-.649-.78A2.132,2.132,0,0,1,83.992,159a2.353,2.353,0,0,1,.4-1.145,2.436,2.436,0,0,1,.918-.793,2.649,2.649,0,0,1,1.235-.29,2.339,2.339,0,0,1,1.18.29,1.9,1.9,0,0,1,.773.794A1.98,1.98,0,0,1,88.7,159a2.346,2.346,0,0,1-.531,1.318,2.484,2.484,0,0,1-1.187.787.9.9,0,0,0,.276.228.642.642,0,0,0,.3.076,1.028,1.028,0,0,0,.731-.324Zm-3.574-1.9a1.077,1.077,0,0,0,.435.49,1.3,1.3,0,0,0,.69.179,1.442,1.442,0,0,0,.69-.179,1.38,1.38,0,0,0,.531-.49,1.552,1.552,0,0,0,.235-.69,1.435,1.435,0,0,0-.11-.69,1.166,1.166,0,0,0-.442-.49,1.283,1.283,0,0,0-.69-.172,1.428,1.428,0,0,0-1.228.69,1.587,1.587,0,0,0-.241.69,1.338,1.338,0,0,0,.131.662Z" transform="translate(-65.335 -132.454)" fill="#0091ff"/>
        <path id="Path_47580" data-name="Path 47580" d="M93.255,156.9l-.373,4.313h-1l.31-3.512H91.33l.069-.8Z" transform="translate(-67.615 -132.494)" fill="#0091ff"/>
        <path id="Path_47581" data-name="Path 47581" d="M172.363,194.526h-8.28a2.222,2.222,0,0,1-2.249-2.463l.69-8.28a2.76,2.76,0,0,1,2.677-2.463h8.28a2.222,2.222,0,0,1,2.249,2.463l-.725,8.28A2.76,2.76,0,0,1,172.363,194.526Z" transform="translate(-89.467 -140.064)" fill="#0091ff"/>
        <path id="Path_47582" data-name="Path 47582" d="M172.363,194.526h-8.28a2.222,2.222,0,0,1-2.249-2.463l.69-8.28a2.76,2.76,0,0,1,2.677-2.463h8.28a2.222,2.222,0,0,1,2.249,2.463l-.725,8.28A2.76,2.76,0,0,1,172.363,194.526Z" transform="translate(-89.467 -140.064)" opacity="0.3"/>
        <path id="Path_47583" data-name="Path 47583" d="M172.483,193.186H164.2a2.222,2.222,0,0,1-2.249-2.463l.725-8.28a2.76,2.76,0,0,1,2.677-2.463h8.28a2.222,2.222,0,0,1,2.249,2.463l-.725,8.28A2.76,2.76,0,0,1,172.483,193.186Z" transform="translate(-89.505 -139.649)" fill="#0091ff"/>
        <path id="Path_47584" data-name="Path 47584" d="M172.483,193.186H164.2a2.222,2.222,0,0,1-2.249-2.463l.725-8.28a2.76,2.76,0,0,1,2.677-2.463h8.28a2.222,2.222,0,0,1,2.249,2.463l-.725,8.28A2.76,2.76,0,0,1,172.483,193.186Z" transform="translate(-89.505 -139.649)" fill="#fff" opacity="0.8"/>
        <path id="Path_47585" data-name="Path 47585" d="M170.761,190.51a1.511,1.511,0,0,1-.538.393,1.655,1.655,0,0,1-.69.138,1.718,1.718,0,0,1-.849-.207,3.236,3.236,0,0,1-.814-.731,2.187,2.187,0,0,1-1.007-.373,1.856,1.856,0,0,1-.649-.773,2.132,2.132,0,0,1-.159-1.056,2.353,2.353,0,0,1,.4-1.138,2.47,2.47,0,0,1,.938-.794,2.65,2.65,0,0,1,1.235-.29,2.325,2.325,0,0,1,1.173.29,1.9,1.9,0,0,1,.773.794,2.07,2.07,0,0,1,.207,1.139,2.27,2.27,0,0,1-.538,1.311,2.387,2.387,0,0,1-1.18.787,1.021,1.021,0,0,0,.276.235.752.752,0,0,0,.3.069,1.049,1.049,0,0,0,.731-.317Zm-3.567-1.9a1.083,1.083,0,0,0,.442.49,1.256,1.256,0,0,0,.69.173,1.436,1.436,0,0,0,.69-.173,1.483,1.483,0,0,0,.524-.49,1.525,1.525,0,0,0,.235-.69,1.38,1.38,0,0,0-.11-.69,1.125,1.125,0,0,0-.442-.49,1.256,1.256,0,0,0-.69-.173,1.428,1.428,0,0,0-1.228.69,1.476,1.476,0,0,0-.235.69,1.325,1.325,0,0,0,.124.662Z" transform="translate(-90.776 -141.416)" fill="#0091ff"/>
        <path id="Path_47586" data-name="Path 47586" d="M176.509,189.24l-.076.807H173.19l.055-.642,1.794-1.566a1.884,1.884,0,0,0,.393-.428.773.773,0,0,0,.124-.366.448.448,0,0,0-.138-.393.787.787,0,0,0-.5-.138,1.18,1.18,0,0,0-.518.11,1.069,1.069,0,0,0-.407.317l-.69-.462a1.863,1.863,0,0,1,.745-.587,2.366,2.366,0,0,1,1.028-.214,2.07,2.07,0,0,1,.828.159,1.125,1.125,0,0,1,.518.442,1.028,1.028,0,0,1,.138.69,1.649,1.649,0,0,1-.2.656,2.926,2.926,0,0,1-.635.69l-1.069.932Z" transform="translate(-92.992 -141.416)" fill="#0091ff"/>
        <path id="Path_47587" data-name="Path 47587" d="M175.94,139.222H167.2a2.353,2.353,0,0,1-2.38-2.608l.766-8.735a2.9,2.9,0,0,1,2.836-2.608h8.735a2.353,2.353,0,0,1,2.38,2.608l-.766,8.735A2.9,2.9,0,0,1,175.94,139.222Z" transform="translate(-90.394 -122.689)" fill="#0091ff"/>
        <path id="Path_47588" data-name="Path 47588" d="M175.94,139.222H167.2a2.353,2.353,0,0,1-2.38-2.608l.766-8.735a2.9,2.9,0,0,1,2.836-2.608h8.735a2.353,2.353,0,0,1,2.38,2.608l-.766,8.735A2.9,2.9,0,0,1,175.94,139.222Z" transform="translate(-90.394 -122.689)" opacity="0.3"/>
        <path id="Path_47589" data-name="Path 47589" d="M176.082,137.812H167.34a2.353,2.353,0,0,1-2.346-2.608l.766-8.735a2.9,2.9,0,0,1,2.836-2.608h8.742a2.353,2.353,0,0,1,2.374,2.608l-.766,8.735a2.9,2.9,0,0,1-2.863,2.608Z" transform="translate(-90.447 -122.252)" fill="#0091ff"/>
        <path id="Path_47590" data-name="Path 47590" d="M176.082,137.812H167.34a2.353,2.353,0,0,1-2.346-2.608l.766-8.735a2.9,2.9,0,0,1,2.836-2.608h8.742a2.353,2.353,0,0,1,2.374,2.608l-.766,8.735a2.9,2.9,0,0,1-2.863,2.608Z" transform="translate(-90.447 -122.252)" fill="#fff" opacity="0.8"/>
        <path id="Path_47591" data-name="Path 47591" d="M171.762,134.4a2.07,2.07,0,0,1-1.159.469l-.062.724h-.649l.062-.69a3.45,3.45,0,0,1-.9-.173,2.07,2.07,0,0,1-.69-.352l.428-.787a2.284,2.284,0,0,0,.545.3,2.477,2.477,0,0,0,.69.152l.1-1.083a4.3,4.3,0,0,1-.759-.242,1.38,1.38,0,0,1-.5-.4,1.014,1.014,0,0,1-.152-.69,1.38,1.38,0,0,1,.476-.925,2.07,2.07,0,0,1,1.173-.476l.062-.69h.649l-.062.69a2.663,2.663,0,0,1,1.283.393l-.393.8a2.353,2.353,0,0,0-.966-.338l-.1,1.1a4.438,4.438,0,0,1,.752.235,1.194,1.194,0,0,1,.49.393.966.966,0,0,1,.152.69A1.339,1.339,0,0,1,171.762,134.4Zm-1.9-2.574a.9.9,0,0,0,.338.172l.083-.918a.69.69,0,0,0-.379.179.483.483,0,0,0-.145.3A.317.317,0,0,0,169.864,131.824Zm1.18,2.015a.407.407,0,0,0,.138-.276.31.31,0,0,0-.1-.269.924.924,0,0,0-.331-.179l-.076.9A.821.821,0,0,0,171.044,133.839Z" transform="translate(-91.495 -124.013)" fill="#0091ff"/>
        <path id="Path_47592" data-name="Path 47592" d="M177.03,131.906l2.139-1.967,1.794,1.967Z" transform="translate(-94.182 -124.137)" fill="#0091ff"/>
        <path id="Path_47593" data-name="Path 47593" d="M180.766,134.99l-2.132,1.966-1.794-1.966Z" transform="translate(-94.123 -125.702)" fill="#0091ff"/>
      </g>
      <g id="freepik--character-2--inject-210" transform="translate(201.046 167.527)">
        <path id="Path_47594" data-name="Path 47594" d="M374.572,267.54l-19.223,45.768h-2.187A10.391,10.391,0,0,0,342.77,323.7v1.138h40.593a19.361,19.361,0,0,0,18.906-15.318l8.97-41.98Z" transform="translate(-307.305 -233.414)" fill="#0091ff"/>
        <path id="Path_47595" data-name="Path 47595" d="M374.572,267.54l-19.223,45.768h-2.187A10.391,10.391,0,0,0,342.77,323.7v1.138h40.593a19.361,19.361,0,0,0,18.906-15.318l8.97-41.98Z" transform="translate(-307.305 -233.414)" fill="#fff" opacity="0.4"/>
        <path id="Path_47596" data-name="Path 47596" d="M308.009,393.56l-1.539,6.355,5.5,1.339,2.6-6.175Z" transform="translate(-296.052 -272.48)" fill="#7f3e3b"/>
        <path id="Path_47597" data-name="Path 47597" d="M356.659,312.45l-1.277,3.374s-30.277-.117-35.052,5.589-13.51,48.914-13.51,48.914l7.8,2.215s11.1-23.812,16.256-42.3c0,0,38.461,5.851,41.262-1.138s1.552-15.014,1.552-15.014Z" transform="translate(-296.16 -247.336)" fill="#0091ff"/>
        <path id="Path_47598" data-name="Path 47598" d="M356.659,312.45l-1.277,3.374s-30.277-.117-35.052,5.589-13.51,48.914-13.51,48.914l7.8,2.215s11.1-23.812,16.256-42.3c0,0,38.461,5.851,41.262-1.138s1.552-15.014,1.552-15.014Z" transform="translate(-296.16 -247.336)" fill="#263238" opacity="0.2"/>
        <path id="Path_47599" data-name="Path 47599" d="M301.578,401.294a2.712,2.712,0,0,1-1.773-.766.566.566,0,0,1,.117-.655.786.786,0,0,1,.524-.276c1.1-.124,3.1,1.477,3.188,1.546a.152.152,0,0,1,.048.166.165.165,0,0,1-.145.1A10.338,10.338,0,0,1,301.578,401.294Zm-.807-1.38a1.018,1.018,0,0,0-.29,0,.4.4,0,0,0-.324.166c-.145.165-.117.262-.083.317.228.455,1.815.69,3.008.752A6.975,6.975,0,0,0,300.77,399.914Z" transform="translate(-293.968 -274.35)" fill="#0091ff"/>
        <path id="Path_47600" data-name="Path 47600" d="M304.371,400.85a.11.11,0,0,1-.062,0c-.69-.448-2-2.07-1.753-2.76.041-.166.2-.359.621-.331a1.1,1.1,0,0,1,.787.386,4.424,4.424,0,0,1,.6,2.587.159.159,0,0,1-.09.124A.18.18,0,0,1,304.371,400.85Zm-1.138-2.794h-.083c-.276,0-.311.083-.324.124-.1.421.69,1.642,1.428,2.229a3.568,3.568,0,0,0-.538-2.07.794.794,0,0,0-.483-.269Z" transform="translate(-294.829 -273.781)" fill="#0091ff"/>
        <path id="Path_47601" data-name="Path 47601" d="M301.72,401.093l6.866,1.083a.566.566,0,0,1,.476.517l.366,5.782a.931.931,0,0,1-.862.994.642.642,0,0,1-.2,0c-2.47-.428-4.651-.911-7.735-1.38-3.643-.566-2.76,0-7.073-.6-2.587-.373-2.594-3.374-1.483-3.346,5.106.152,5.858-1.277,8.073-2.76A2.236,2.236,0,0,1,301.72,401.093Z" transform="translate(-291.371 -274.804)" fill="#263238"/>
        <path id="Path_47602" data-name="Path 47602" d="M335.946,400.39l-.876,6.382,5.534.773,1.939-6.32Z" transform="translate(-304.918 -274.598)" fill="#7f3e3b"/>
        <path id="Path_47603" data-name="Path 47603" d="M376.2,315.087l-4.312,2.284s-28.414-2.443-30.974,5.472-6.755,52.405-6.755,52.405l8.5,1.166s7.59-22.363,10.129-44.953c0,0,35.4,9.55,37.95.469s0-18.63,0-18.63Z" transform="translate(-304.636 -247.6)" fill="#0091ff"/>
        <path id="Path_47604" data-name="Path 47604" d="M330.112,408.605a2.676,2.676,0,0,1-1.87-.5.559.559,0,0,1,0-.655.794.794,0,0,1,.476-.352c1.069-.29,3.284.994,3.381,1.049a.152.152,0,0,1-.048.283A11.548,11.548,0,0,1,330.112,408.605Zm-1.007-1.249a1.047,1.047,0,0,0-.29.041.421.421,0,0,0-.3.207c-.11.186-.076.276,0,.331.29.414,1.9.428,3.084.29a7,7,0,0,0-2.484-.869Z" transform="translate(-302.768 -276.665)" fill="#0091ff"/>
        <path id="Path_47605" data-name="Path 47605" d="M332.814,407.71a.069.069,0,0,1-.062,0c-.759-.338-2.284-1.725-2.146-2.443,0-.172.145-.379.566-.421a1.083,1.083,0,0,1,.835.262,4.317,4.317,0,0,1,.98,2.47.131.131,0,0,1-.069.131A.11.11,0,0,1,332.814,407.71Zm-1.546-2.587h-.083c-.276,0-.29.131-.3.172-.041.428.959,1.518,1.746,1.987a3.554,3.554,0,0,0-.835-1.96.807.807,0,0,0-.524-.193Z" transform="translate(-303.531 -275.977)" fill="#0091ff"/>
        <path id="Path_47606" data-name="Path 47606" d="M330.473,407.758h6.955a.559.559,0,0,1,.545.442l1.228,5.665a.931.931,0,0,1-.69,1.111.987.987,0,0,1-.2,0c-2.5-.055-4.733-.2-7.859-.207-3.685,0-2.76.428-7.079.469-2.608,0-3.077-2.939-1.966-3.084,5.065-.614,5.6-2.139,7.59-3.947A2.236,2.236,0,0,1,330.473,407.758Z" transform="translate(-300.507 -276.881)" fill="#263238"/>
        <path id="Path_47607" data-name="Path 47607" d="M400.956,384.646l-15.277-6.169V342.39h-5.451v36.087l-15.284,6.169a1.34,1.34,0,0,0,.876,2.532l14.407-4.14v3.3a1.339,1.339,0,0,0,1.339,1.339h2.76a1.339,1.339,0,0,0,1.339-1.339v-3.3l14.407,4.14a1.339,1.339,0,1,0,.869-2.532Z" transform="translate(-313.899 -256.618)" fill="#263238"/>
        <path id="Path_47608" data-name="Path 47608" d="M381.471,256.58H377.1a3.843,3.843,0,0,0-3.692,2.76l-5.044,17.429-6.258,8.094,3.008,4.878,9.336-8.991Z" transform="translate(-313.3 -230.016)" fill="#263238"/>
        <path id="Path_47609" data-name="Path 47609" d="M373.89,279.443l4.754-18.623,1.221,3.547v4.892l-1.787,9.6-2.732,2.512Z" transform="translate(-316.952 -231.331)" opacity="0.4"/>
        <path id="Path_47610" data-name="Path 47610" d="M382.741,256.58H406.2a3.45,3.45,0,0,1,3.45,3.878L405.207,298.5,377,296.7l2.6-37.191A3.14,3.14,0,0,1,382.741,256.58Z" transform="translate(-317.916 -230.016)" fill="#263238"/>
        <path id="Path_47611" data-name="Path 47611" d="M420.6,273.227l-.6-3.153-2.4-.794s1.159,14.1-1.442,17.561c-1.477,1.96.649,1.477,2.76.69Z" transform="translate(-329.903 -233.953)" opacity="0.4"/>
        <path id="Path_47612" data-name="Path 47612" d="M408.6,299.29l-16.9.959H383.21s.959,4.078,3.5,4.513,5.147,1.228,6.21,0c0,0,9.2,1.773,14.918,1.007Z" transform="translate(-319.841 -243.257)" opacity="0.4"/>
        <path id="Path_47613" data-name="Path 47613" d="M402.46,284.652l10.812-2.574a2.933,2.933,0,0,0,2.222-3.284l-2.967-20.113a1.822,1.822,0,0,1,1.8-2.07h1.7a4.533,4.533,0,0,1,4.409,3.45c1.8,7.459,5.389,24.578,1.035,27.158-3.809,2.263-12.868,2.581-18.25,2.546Z" transform="translate(-325.809 -230.026)" fill="#263238"/>
        <path id="Path_47614" data-name="Path 47614" d="M395.407,300.807c-1.932,0-3.9-.09-3.9-.09l-1.96.628a4.7,4.7,0,0,1-2.76-.186h0a2.45,2.45,0,0,0-1.49-.083h0a2.429,2.429,0,0,1-2.96-1.684l-.69-2.436a2.436,2.436,0,0,1,1.221-2.829l1.38-.69a2.422,2.422,0,0,1,2.353.069l4.968,3.347,3.16-.586Z" transform="translate(-319.328 -241.358)" fill="#7f3e3b"/>
        <path id="Path_47615" data-name="Path 47615" d="M400.09,296.184l.828,6.41h2.443l-.869-6.935Z" transform="translate(-325.074 -242.131)" fill="#263238"/>
        <path id="Path_47616" data-name="Path 47616" d="M400.09,296.184l.828,6.41h2.443l-.869-6.935Z" transform="translate(-325.074 -242.131)" fill="#fff" opacity="0.2"/>
        <path id="Path_47617" data-name="Path 47617" d="M376.03,281.9h-.98l3.45,21.659h.98a.738.738,0,0,0,.752-.89L377.086,282.8a1.083,1.083,0,0,0-1.056-.9Z" transform="translate(-317.312 -237.866)" fill="#263238"/>
        <g id="Group_4390" data-name="Group 4390" transform="translate(57.738 44.034)" opacity="0.6">
          <path id="Path_47618" data-name="Path 47618" d="M376.03,281.9h-.98l3.45,21.659h.98a.738.738,0,0,0,.752-.89L377.086,282.8a1.083,1.083,0,0,0-1.056-.9Z" transform="translate(-375.05 -281.9)" fill="#fff"/>
        </g>
        <path id="Path_47619" data-name="Path 47619" d="M372.44,303.559H358.854a1.1,1.1,0,0,1-1.035-.89L354.673,282.8a.745.745,0,0,1,.752-.9h13.586a1.1,1.1,0,0,1,1.035.9l3.146,19.872a.745.745,0,0,1-.752.89Z" transform="translate(-310.99 -237.866)" fill="#263238"/>
        <path id="Path_47620" data-name="Path 47620" d="M372.44,303.559H358.854a1.1,1.1,0,0,1-1.035-.89L354.673,282.8a.745.745,0,0,1,.752-.9h13.586a1.1,1.1,0,0,1,1.035.9l3.146,19.872a.745.745,0,0,1-.752.89Z" transform="translate(-310.99 -237.866)" fill="#fff" opacity="0.3"/>
        <path id="Path_47621" data-name="Path 47621" d="M359.066,286.607h-.89a1.09,1.09,0,0,1-1.035-.9l-.138-.89a.738.738,0,0,1,.752-.89h.89a1.1,1.1,0,0,1,1.035.89l.138.89a.738.738,0,0,1-.752.9Z" transform="translate(-311.712 -238.495)" fill="#263238"/>
        <path id="Path_47622" data-name="Path 47622" d="M359.369,285.622a.462.462,0,0,1-.462.552.69.69,0,0,1-.642-.552.455.455,0,0,1,.462-.552A.69.69,0,0,1,359.369,285.622Z" transform="translate(-312.105 -238.848)" opacity="0.5"/>
        <path id="Path_47623" data-name="Path 47623" d="M355.324,296.35l.587-.455a1.656,1.656,0,0,1,2.132.09l1.442,1.318a1.663,1.663,0,0,1,.435,1.8l-1.276,3.45a1.649,1.649,0,0,1-1.925,1.035h0a1.642,1.642,0,0,1-1.256-1.325l-.752-4.333a1.656,1.656,0,0,1,.614-1.58Z" transform="translate(-310.999 -242.097)" fill="#7f3e3b"/>
        <path id="Path_47624" data-name="Path 47624" d="M390.092,256.58v6.734l-.172,4.188,1.711,4.892,7.376-11.178,4.437-4.637Z" transform="translate(-321.921 -230.016)" fill="#7f3e3b"/>
        <path id="Path_47625" data-name="Path 47625" d="M382.842,239.39s-5.824,4.906-3.5,6.9S382.842,239.39,382.842,239.39Z" transform="translate(-318.473 -224.688)" fill="#263238"/>
        <path id="Path_47626" data-name="Path 47626" d="M386.848,219.633s9.908-4.561,13.8,1.96-1.649,8.763,2.884,12.882c5.941,5.4.462,11.985-6.9,9.77l-2.884-1.221s-8.28,3.664-10.729-.235c-3.747-5.941,4.664-12.924,4.664-16.946a19.21,19.21,0,0,0-.835-6.21Z" transform="translate(-319.484 -218.082)" fill="#263238"/>
        <path id="Path_47627" data-name="Path 47627" d="M400.88,241.59c-.538,3.367-1.014,8.28,1.38,10.419a31.742,31.742,0,0,0-8.114,7.211.973.973,0,0,1-1.38.145,1.112,1.112,0,0,1-.221-.255c-2.76-4.561-.69-6.727-.69-6.727,2.187-.435,1.967-2.374,1.235-4.954Z" transform="translate(-322.29 -225.37)" fill="#7f3e3b"/>
        <path id="Path_47628" data-name="Path 47628" d="M399.61,245.3l-4.278,2.284-1.332.994a8.279,8.279,0,0,1,.49,3.346C397.264,251.2,400.514,247.591,399.61,245.3Z" transform="translate(-323.186 -226.52)" opacity="0.2"/>
        <path id="Path_47629" data-name="Path 47629" d="M398.6,227.037c.759,5.52,1.2,7.907-1,11.233-3.319,5.065-10.3,4.789-12.7-.421-2.146-4.692-3.077-12.979,1.877-16.236a7.645,7.645,0,0,1,11.827,5.423Z" transform="translate(-319.827 -218.779)" fill="#7f3e3b"/>
        <path id="Path_47630" data-name="Path 47630" d="M385.365,238.016c.09.442-.076.856-.366.911s-.6-.255-.69-.69.076-.849.366-.911S385.275,237.568,385.365,238.016Z" transform="translate(-320.174 -224.045)" fill="#263238"/>
        <path id="Path_47631" data-name="Path 47631" d="M384.495,237.26l-1.125-.09S384.108,237.9,384.495,237.26Z" transform="translate(-319.891 -223.999)" fill="#263238"/>
        <path id="Path_47632" data-name="Path 47632" d="M388,236.88a12.227,12.227,0,0,1-1.021,3.167,1.918,1.918,0,0,0,1.649,0Z" transform="translate(-321.01 -223.91)" fill="#630f0f"/>
        <path id="Path_47633" data-name="Path 47633" d="M391.832,243.587a3.607,3.607,0,0,1-.69.062.133.133,0,0,1,.007-.262,3.629,3.629,0,0,0,2.912-1.484.138.138,0,0,1,.179-.041.159.159,0,0,1,.048.186,3.774,3.774,0,0,1-2.456,1.539Z" transform="translate(-322.267 -225.449)" fill="#263238"/>
        <path id="Path_47634" data-name="Path 47634" d="M392.164,231.795a.262.262,0,0,1-.29.124,3.154,3.154,0,0,0-2.4.814.269.269,0,0,1-.366-.393,3.887,3.887,0,0,1,2.877-.952.269.269,0,0,1,.2.317A.194.194,0,0,1,392.164,231.795Z" transform="translate(-321.646 -222.192)" fill="#263238"/>
        <path id="Path_47635" data-name="Path 47635" d="M382.378,234.174a.269.269,0,0,1-.145-.5,2.656,2.656,0,0,1,2.429-.242.269.269,0,1,1-.228.483,2.125,2.125,0,0,0-1.918.221A.338.338,0,0,1,382.378,234.174Z" transform="translate(-319.5 -222.784)" fill="#263238"/>
        <path id="Path_47636" data-name="Path 47636" d="M392.682,236.546c.083.449-.076.856-.373.918s-.6-.255-.69-.69.076-.856.366-.918S392.564,236.1,392.682,236.546Z" transform="translate(-322.44 -223.59)" fill="#263238"/>
        <path id="Path_47637" data-name="Path 47637" d="M391.855,235.8l-1.125-.1S391.434,236.431,391.855,235.8Z" transform="translate(-322.172 -223.544)" fill="#263238"/>
        <path id="Path_47638" data-name="Path 47638" d="M390.194,258.11s1.125,2.5,12.572.29l-7.017,7.624-3.45,5.41-.945,1.435L389,267.19l.828-6.286Z" transform="translate(-321.636 -230.491)" fill="#0091ff"/>
        <path id="Path_47639" data-name="Path 47639" d="M390.736,255.941c-.5,2.36-2.6,10.274.124,14.849a35.888,35.888,0,0,1,11.1-14.994,1.007,1.007,0,0,1,.925-.145l1.684.58s-.752,6.355-4.713,5.713c0,0,3.45,2.27-8.97,11.178,0,0-6.3-7.921-2.07-11.73,0,0-3.547-.414-.642-5.189l2.07-.731a.386.386,0,0,1,.49.469Z" transform="translate(-321.026 -229.667)" fill="#263238"/>
        <path id="Path_47640" data-name="Path 47640" d="M390.736,255.941c-.5,2.36-2.6,10.274.124,14.849a35.888,35.888,0,0,1,11.1-14.994,1.007,1.007,0,0,1,.925-.145l1.684.58s-.752,6.355-4.713,5.713c0,0,3.45,2.27-8.97,11.178,0,0-6.3-7.921-2.07-11.73,0,0-3.547-.414-.642-5.189l2.07-.731a.386.386,0,0,1,.49.469Z" transform="translate(-321.026 -229.667)" fill="#fff" opacity="0.2"/>
        <path id="Path_47641" data-name="Path 47641" d="M396.948,220.738c-4.023-4.368-13.241-.973-13.241-.973a6.61,6.61,0,0,0-5.106,6.969c.179,5.941,3.2-1.953,10.888-.407l.49.1a4.947,4.947,0,0,1,.849-3.133,5.285,5.285,0,0,0,.593,3.554c4.513,1.677-.3,4.375,5.755,4.43C397.175,231.267,400.95,225.106,396.948,220.738Z" transform="translate(-318.406 -218.214)" fill="#263238"/>
        <path id="Path_47642" data-name="Path 47642" d="M393.44,233.25l7.349.455v.462l-6.962-.462Z" transform="translate(-323.012 -222.784)" fill="#0091ff"/>
        <path id="Path_47643" data-name="Path 47643" d="M383.243,234.456l-.69.138a1.263,1.263,0,0,0-.966,1.5l.145.69a2.153,2.153,0,0,0,2.312,1.739,2.07,2.07,0,0,0,1.7-2.643A2.139,2.139,0,0,0,383.243,234.456Zm.918,3.657a1.159,1.159,0,1,0-.028,0Z" transform="translate(-319.329 -223.142)" fill="#0091ff"/>
        <path id="Path_47644" data-name="Path 47644" d="M388.994,235.079a2.07,2.07,0,0,0,2.643,1.7,2.146,2.146,0,0,0,1.38-2.532l-.138-.69a1.27,1.27,0,0,0-1.5-.973l-.69.145A2.16,2.16,0,0,0,388.994,235.079Zm.379.083a.794.794,0,1,1-.007,0Z" transform="translate(-321.63 -222.571)" fill="#0091ff"/>
        <path id="Path_47645" data-name="Path 47645" d="M388.66,236.2s-.034-.152-.628,0-.559.283-.559.283l-.1-.483,1.187-.255Z" transform="translate(-321.131 -223.556)" fill="#0091ff"/>
        <g id="Group_4391" data-name="Group 4391" transform="translate(62.23 9.991)" opacity="0.5">
          <path id="Path_47646" data-name="Path 47646" d="M383.243,234.456l-.69.138a1.263,1.263,0,0,0-.966,1.5l.145.69a2.153,2.153,0,0,0,2.312,1.739,2.07,2.07,0,0,0,1.7-2.643A2.139,2.139,0,0,0,383.243,234.456Zm.918,3.657a1.159,1.159,0,1,0-.028,0Z" transform="translate(-381.559 -233.132)" fill="#fff"/>
          <path id="Path_47647" data-name="Path 47647" d="M388.994,235.079a2.07,2.07,0,0,0,2.643,1.7,2.146,2.146,0,0,0,1.38-2.532l-.138-.69a1.27,1.27,0,0,0-1.5-.973l-.69.145A2.16,2.16,0,0,0,388.994,235.079Zm.379.083a.794.794,0,1,1-.007,0Z" transform="translate(-383.86 -232.562)" fill="#fff"/>
          <path id="Path_47648" data-name="Path 47648" d="M388.66,236.2s-.034-.152-.628,0-.559.283-.559.283l-.1-.483,1.187-.255Z" transform="translate(-383.361 -233.547)" fill="#fff"/>
        </g>
        <path id="Path_47649" data-name="Path 47649" d="M407.077,234.974a4.078,4.078,0,0,1-1.7,2.629c-1.187.814-2.249-.138-2.291-1.5-.048-1.221.511-3.119,1.884-3.388a1.849,1.849,0,0,1,2.132,1.5A1.877,1.877,0,0,1,407.077,234.974Z" transform="translate(-326.003 -222.611)" fill="#7f3e3b"/>
        <path id="Path_47650" data-name="Path 47650" d="M404.694,239.77s-6.21,8.832-2.794,10.253,3.416-7.921,3.416-7.921Z" transform="translate(-325.317 -224.805)" fill="#263238"/>
        <path id="Path_47651" data-name="Path 47651" d="M397.626,312.956,387.056,314a14.752,14.752,0,0,0-12.786,10.84h18.858a19.361,19.361,0,0,0,18.906-15.318L421,267.54h0a25.288,25.288,0,0,0-8.335,12.641l-7.59,26.558a8.618,8.618,0,0,1-7.452,6.217Z" transform="translate(-317.07 -233.414)" fill="#0091ff"/>
        <path id="Path_47652" data-name="Path 47652" d="M397.626,312.956,387.056,314a14.752,14.752,0,0,0-12.786,10.84h18.858a19.361,19.361,0,0,0,18.906-15.318L421,267.54h0a25.288,25.288,0,0,0-8.335,12.641l-7.59,26.558a8.618,8.618,0,0,1-7.452,6.217Z" transform="translate(-317.07 -233.414)" fill="#fff" opacity="0.6"/>
      </g>
      <g id="freepik--character-1--inject-210" transform="translate(55.472 96.159)">
        <path id="Path_47653" data-name="Path 47653" d="M86.642,383.45,85.02,396.2l6.59.414,2.65-12.123Z" transform="translate(-81.828 -197.978)" fill="#ff8b7b"/>
        <path id="Path_47654" data-name="Path 47654" d="M96.077,401.478a.185.185,0,0,1-.014-.338c.11-.048,2.663-1.208,3.76-.69a.9.9,0,0,1,.462.49.731.731,0,0,1-.076.773,2.725,2.725,0,0,1-2.07.29A11.2,11.2,0,0,1,96.077,401.478Zm.552-.166c1.249.352,2.967.587,3.34.145.055-.055.11-.159,0-.393a.462.462,0,0,0-.29-.3.9.9,0,0,0-.3-.083,6.9,6.9,0,0,0-2.746.593Z" transform="translate(-85.22 -203.207)" fill="#0091ff"/>
        <path id="Path_47655" data-name="Path 47655" d="M95.976,400.506a.193.193,0,0,1-.048-.173,5.321,5.321,0,0,1,1.38-2.76,1.1,1.1,0,0,1,.932-.179c.442.117.552.379.545.586.041.863-1.787,2.256-2.65,2.539a.083.083,0,0,1-.069,0A.159.159,0,0,1,95.976,400.506Zm2.139-2.76a.78.78,0,0,0-.587.145,4.278,4.278,0,0,0-1.173,2.167c.911-.428,2.132-1.546,2.146-2.07,0-.048,0-.179-.3-.241Z" transform="translate(-85.208 -202.29)" fill="#0091ff"/>
        <path id="Path_47656" data-name="Path 47656" d="M90.679,399.814l-7.445-1.056a.6.6,0,0,0-.649.435l-2.125,6.458a1.138,1.138,0,0,0,.593,1.414.765.765,0,0,0,.207.055c2.691.331,5.092.5,8.439.987,3.94.559,2.877.931,7.507,1.663,2.76.435,3.705-2.981,2.539-3.319-5.327-1.511-5.679-3.388-7.521-5.817a2.325,2.325,0,0,0-1.546-.821Z" transform="translate(-80.394 -202.722)" fill="#263238"/>
        <path id="Path_47657" data-name="Path 47657" d="M85.86,391.654l6.935.738,1.725-7.9L86.9,383.45Z" transform="translate(-82.089 -197.978)" opacity="0.2"/>
        <path id="Path_47658" data-name="Path 47658" d="M99.516,226.32s-2.863,21.024-3.374,26.406c-.814,8.653-1.1,26.117-2.339,34.707-.9,6.21-4.485,18.271-5.658,24.44-1.318,6.9-3.395,27.952-3.395,27.952l9.577,1.38s9.108-39.088,11.73-52.226c2.76-13.745,10.35-60.209,10.35-60.209Z" transform="translate(-81.744 -149.268)" fill="#263238"/>
        <path id="Path_47659" data-name="Path 47659" d="M122.592,260.392l.738-2.236-5.858-.276a157.909,157.909,0,0,0-1.035,21.735,100.047,100.047,0,0,0,.883,11.316C118.183,282.416,121.75,270.169,122.592,260.392Z" transform="translate(-91.545 -159.051)" opacity="0.5"/>
        <path id="Path_47660" data-name="Path 47660" d="M130.27,389.36l.656,12.924,6.6-.235.421-12.392Z" transform="translate(-95.856 -199.81)" fill="#ff8b7b"/>
        <path id="Path_47661" data-name="Path 47661" d="M142.157,406.215a.186.186,0,0,1-.062-.331c.1-.069,2.45-1.677,3.609-1.38a.848.848,0,0,1,.524.393.724.724,0,0,1,.041.78,2.761,2.761,0,0,1-2,.655,10.818,10.818,0,0,1-2.111-.117Zm.518-.262c1.29.124,3.022.034,3.319-.469.048-.062.083-.172-.041-.386a.469.469,0,0,0-.331-.242.952.952,0,0,0-.31,0,7.134,7.134,0,0,0-2.615,1.09Z" transform="translate(-99.498 -204.493)" fill="#0091ff"/>
        <path id="Path_47662" data-name="Path 47662" d="M142.063,405.442a.179.179,0,0,1-.083-.159c0-.1.117-2.139.966-2.96a1.118,1.118,0,0,1,.9-.345.546.546,0,0,1,.621.476c.179.842-1.415,2.546-2.222,2.981a.352.352,0,0,1-.179,0Zm1.684-3.119a.773.773,0,0,0-.559.248,4.458,4.458,0,0,0-.828,2.346c.835-.586,1.87-1.911,1.808-2.422,0-.048-.035-.172-.331-.186h-.09Z" transform="translate(-99.486 -203.721)" fill="#0091ff"/>
        <path id="Path_47663" data-name="Path 47663" d="M137.011,405.5l-7.5.317a.635.635,0,0,0-.573.545l-1.118,6.755a1.1,1.1,0,0,0,.8,1.29,1.071,1.071,0,0,0,.214,0c2.7-.166,5.1-.435,8.466-.573,3.968-.166,2.981.4,7.652.276,2.815-.076,3.208-3.609,2.008-3.733-5.485-.524-6.113-2.312-8.28-4.368a2.27,2.27,0,0,0-1.67-.511Z" transform="translate(-95.089 -204.809)" fill="#263238"/>
        <path id="Path_47664" data-name="Path 47664" d="M137.92,387.377l-7.68-.3.442,8.66,6.962-.442Z" transform="translate(-95.846 -199.103)" opacity="0.2"/>
        <path id="Path_47665" data-name="Path 47665" d="M118.591,227.891s-2.581,6-.9,18.7c.49,3.747,6.589,38.116,6.21,46.92-.248,6.3-.407,14.435-.359,20.734.048,7.052,1.7,28.138,1.7,28.138l9.66-.69s1.891-40.3,2.07-53.744c.207-14.062-.173-61.258-.173-61.258Z" transform="translate(-91.78 -149.382)" fill="#263238"/>
        <g id="Group_4392" data-name="Group 4392" transform="translate(18.682 79.184)" opacity="0.9">
          <path id="Path_47666" data-name="Path 47666" d="M142.313,233.788l-.076-2.629c-1.884,0-3.767,0-5.617-.069l.055,2.643C138.531,233.746,140.422,233.788,142.313,233.788Z" transform="translate(-116.506 -229.931)"/>
          <path id="Path_47667" data-name="Path 47667" d="M113.908,229.9c-2.67-.179-4.83-.359-6.286-.49l-.152,2.636c1.456.124,3.65.3,6.334.49Z" transform="translate(-107.47 -229.41)"/>
          <path id="Path_47668" data-name="Path 47668" d="M129.15,230.808c-3.208-.1-6.272-.262-8.97-.428v2.643c1.456.09,3.022.173,4.657.248,1.38.069,2.829.117,4.3.166Z" transform="translate(-111.41 -229.711)"/>
        </g>
        <path id="Path_47669" data-name="Path 47669" d="M138.63,132.64c0-.442.228-.8.518-.8s.524.352.524.793-.221.794-.511.8S138.637,133.061,138.63,132.64Z" transform="translate(-98.447 -119.979)" fill="#263238"/>
        <path id="Path_47670" data-name="Path 47670" d="M139.16,134.08l2.567,2.857a2.891,2.891,0,0,1-2.5.69Z" transform="translate(-98.612 -120.673)" fill="#ff5652"/>
        <path id="Path_47671" data-name="Path 47671" d="M116.6,129.914c.731,5.52.918,7.866,3.912,10.516,4.478,2.588,11.13,1.877,12.061-3.747.842-5.058-.49-13.207-6.072-15.056a7.59,7.59,0,0,0-9.9,8.28Z" transform="translate(-91.593 -116.693)" fill="#ff8b7b"/>
        <path id="Path_47672" data-name="Path 47672" d="M131.29,150.156l.083-2.036s1.138,1.87,2.891,1.145a6.59,6.59,0,0,1-2.974.89Z" transform="translate(-96.172 -125.026)" opacity="0.2"/>
        <path id="Path_47673" data-name="Path 47673" d="M118,154.655s3.526-.69,2.919-7.2c0,0,4.016-1.477,6.307.276,0,0-.69,6.024,2.07,7.7C129.33,155.435,125.624,157.471,118,154.655Z" transform="translate(-92.052 -124.64)" fill="#ff8b7b"/>
        <path id="Path_47674" data-name="Path 47674" d="M137.195,130.628a.269.269,0,0,0,.235-.069,2.07,2.07,0,0,1,1.739-.649.262.262,0,0,0,.3-.2.276.276,0,0,0-.207-.31,2.553,2.553,0,0,0-2.208.793.255.255,0,0,0,0,.359h0A.221.221,0,0,0,137.195,130.628Z" transform="translate(-97.937 -119.216)" fill="#263238"/>
        <path id="Path_47675" data-name="Path 47675" d="M117,156.164s.476-4.14,6.327-3.9,7.963,3.45,7.963,3.45Z" transform="translate(-91.742 -126.308)" fill="#0091ff"/>
        <path id="Path_47676" data-name="Path 47676" d="M117,156.164s.476-4.14,6.327-3.9,7.963,3.45,7.963,3.45Z" transform="translate(-91.742 -126.308)" opacity="0.2"/>
        <path id="Path_47677" data-name="Path 47677" d="M109.6,156.34s-11.557-1.283-11.454,9.8a32.271,32.271,0,0,0,6.21,18.561Z" transform="translate(-85.898 -127.56)" fill="#0091ff"/>
        <path id="Path_47678" data-name="Path 47678" d="M110.275,162.133c-2.022-2.146-4.14-2.643-5.672,1.332-2.5,6.458-1.939,14-1.139,18.816a26.386,26.386,0,0,0,2.512,4.361Z" transform="translate(-87.335 -128.861)" opacity="0.2"/>
        <path id="Path_47679" data-name="Path 47679" d="M104.548,163.177l.49,41.98,28.2,1.207a295.7,295.7,0,0,1,4.14-42.952c.69-4.237-1.477-8.19-5.775-8.108h-3.588a66.315,66.315,0,0,0-19.2.642h0C104.858,156.035,104.493,159.23,104.548,163.177Z" transform="translate(-87.88 -127.124)" fill="#0091ff"/>
        <path id="Path_47680" data-name="Path 47680" d="M144.8,156.45l.373,3.236-1.435,1.794s.552,6.976,4.409,10.246l1.38-7.831a7.183,7.183,0,0,0-4.726-7.445Z" transform="translate(-100.031 -127.608)" fill="#263238" opacity="0.2"/>
        <path id="Path_47681" data-name="Path 47681" d="M191.38,148.625l4.368-3.36.9-3.933a1.249,1.249,0,0,1,1.214-.959H199.5l1.27-1.38a1.256,1.256,0,0,1,1.98.145l1.325,2.008a1.283,1.283,0,0,1,.179.938l-.566,2.76a1.249,1.249,0,0,1-.587.821l-4.775,2.443-4.306,4.14Z" transform="translate(-114.8 -122.067)" fill="#ff8b7b"/>
        <path id="Path_47682" data-name="Path 47682" d="M141.55,153.344s3.581-.752,23.039,3.291l13.8-8.825s2.346,1.3,3.56,5.762c0,0-11.316,11.537-17.347,12.075-4.057.366-11.916-1.145-16.636-2.18a6.555,6.555,0,0,1-4.913-4.664Z" transform="translate(-99.352 -124.93)" fill="#0091ff"/>
        <path id="Path_47683" data-name="Path 47683" d="M119.8,138.386s.787-1.711,4.678-.856a9.205,9.205,0,0,0,1.325-5.43s1.863-.725,1.835-2.125a27.6,27.6,0,0,0-1.021-4.727,10.965,10.965,0,0,0,.628-3.409s5.237-3.126,2.76-7.19a8.032,8.032,0,0,1-5.52,2.415c-3.291-.041-11.482.69-10.081,7.666C114.4,124.731,113.18,132.894,119.8,138.386Z" transform="translate(-90.889 -114.65)" fill="#263238"/>
        <path id="Path_47684" data-name="Path 47684" d="M138.142,131.82a4.137,4.137,0,0,0-.9-2.173.372.372,0,0,0-.29-.069c-.248.041-.386.345-.428.883a4.714,4.714,0,0,0,0,.531l-7.328,2.256.1.345,7.245-2.236a7.353,7.353,0,0,0,.1.745,4.193,4.193,0,0,0,.9,2.173.386.386,0,0,0,.214.076h.076a.359.359,0,0,0,.242-.166A4,4,0,0,0,138.142,131.82Zm-1.132-1.891c.09,0,.269.3.449.773l-.566.179A1.877,1.877,0,0,1,137.011,129.929Zm.78,4.064c-.145,0-.545-.69-.773-1.96a7.8,7.8,0,0,1-.11-.78l.69-.207a7.927,7.927,0,0,1,.207.842,3.64,3.64,0,0,1-.014,2.118Z" transform="translate(-95.524 -119.276)" fill="#0091ff"/>
        <path id="Path_47685" data-name="Path 47685" d="M129.687,134.346a4.257,4.257,0,0,1,1.642,2.836c.186,1.5-1.208,2.029-2.5,1.442-1.173-.538-2.67-1.96-2.256-3.381a1.932,1.932,0,0,1,3.119-.9Z" transform="translate(-94.686 -120.608)" fill="#ff8b7b"/>
      </g>
    </g>
  </g>
</svg>
