<svg xmlns="http://www.w3.org/2000/svg" width="345" height="307" viewBox="0 0 345 307">
  <g id="Group_5016" data-name="Group 5016" transform="translate(-500 -3420)">
    <g id="Group_4415" data-name="Group 4415" transform="translate(13277 -178)">
      <rect id="Rectangle_4206" data-name="Rectangle 4206" width="345" height="307" transform="translate(-12777 3598)" fill="#fff" opacity="0"/>
      <g id="Dropdown_menu-rafiki" data-name="Dropdown menu-rafiki" transform="translate(-12777 3569.295)">
        <g id="freepik--background-complete--inject-7" transform="translate(0 55)">
          <rect id="Rectangle_3945" data-name="Rectangle 3945" width="22.853" height="0.172" transform="translate(287.578 237.008)" fill="#ebebeb"/>
          <rect id="Rectangle_3946" data-name="Rectangle 3946" width="5.996" height="0.172" transform="translate(222.546 238.885)" fill="#ebebeb"/>
          <rect id="Rectangle_3947" data-name="Rectangle 3947" width="13.241" height="0.172" transform="translate(273.647 230.605)" fill="#ebebeb"/>
          <rect id="Rectangle_3948" data-name="Rectangle 3948" width="29.801" height="0.172" transform="translate(36.197 231.764)" fill="#ebebeb"/>
          <rect id="Rectangle_3949" data-name="Rectangle 3949" width="4.368" height="0.172" transform="translate(72.146 231.764)" fill="#ebebeb"/>
          <rect id="Rectangle_3950" data-name="Rectangle 3950" width="64.639" height="0.172" transform="translate(90.714 234.676)" fill="#ebebeb"/>
          <path id="Path_47686" data-name="Path 47686" d="M175.375,250.132H42.15a3.94,3.94,0,0,1-3.94-3.94V58.905A3.94,3.94,0,0,1,42.15,55H175.375a3.94,3.94,0,0,1,3.94,3.94V246.192A3.94,3.94,0,0,1,175.375,250.132ZM42.15,55.138a3.774,3.774,0,0,0-3.767,3.767V246.192a3.774,3.774,0,0,0,3.767,3.767H175.375a3.774,3.774,0,0,0,3.767-3.767V58.905a3.774,3.774,0,0,0-3.767-3.767Z" transform="translate(-11.845 -55)" fill="#ebebeb"/>
          <path id="Path_47687" data-name="Path 47687" d="M391.679,250.132H258.44a3.947,3.947,0,0,1-3.94-3.94V58.905A3.947,3.947,0,0,1,258.44,55H391.679a3.94,3.94,0,0,1,3.926,3.905V246.192A3.94,3.94,0,0,1,391.679,250.132ZM258.44,55.138a3.774,3.774,0,0,0-3.767,3.767V246.192a3.774,3.774,0,0,0,3.767,3.767H391.679a3.774,3.774,0,0,0,3.767-3.767V58.905a3.774,3.774,0,0,0-3.767-3.767Z" transform="translate(-78.895 -55)" fill="#ebebeb"/>
          <rect id="Rectangle_3951" data-name="Rectangle 3951" width="345" height="0.172" transform="translate(0 225.906)" fill="#ebebeb"/>
          <rect id="Rectangle_3952" data-name="Rectangle 3952" width="1.573" height="98.635" transform="translate(59.968 224.768) rotate(180)" fill="#ebebeb"/>
          <path id="Path_47688" data-name="Path 47688" d="M95.492,217.73c0,5.03-3.574,9.425-8.88,11.765H69.01c-5.306-2.339-8.88-6.734-8.88-11.765s3.6-9.418,8.88-11.73h17.6C91.918,208.312,95.492,212.7,95.492,217.73Z" transform="translate(-18.64 -101.81)" fill="#f0f0f0"/>
          <path id="Path_47689" data-name="Path 47689" d="M77.5,217.711c0-5.037,3.567-9.425,8.873-11.771H92c5.306,2.346,8.88,6.734,8.88,11.771S97.3,227.137,92,229.476H86.373C81.067,227.144,77.5,222.748,77.5,217.711Z" transform="translate(-24.025 -101.791)" fill="#f5f5f5"/>
          <path id="Path_47690" data-name="Path 47690" d="M69.73,380.628H91.872a2.7,2.7,0,0,0-2.7-2.7H72.435A2.7,2.7,0,0,0,69.73,380.628Z" transform="translate(-21.616 -155.108)" fill="#ebebeb"/>
          <path id="Path_47691" data-name="Path 47691" d="M407.8,304.887c.062.062-.269.524,1.076.324,3.312-.5,9.08-1.842,10.681-5.251,2.3-4.865-4.83-3.084-4.568-5.575s8.335-2.07,9.191-5.7-4.623-1.911-4.7-3.685,6.251-.69,7.5-4.609-3.519-1.042-2.974-2.677,5.9-9.039,2.988-9.895-7.811,6.734-9.7,7.811-3.567-5.127-5.824-2.5,1.318,11.771-1.553,13.552c-2.146,1.318-1.539-2.325-4.368-1.642C401.714,285.96,403,299.512,407.8,304.887Z" transform="translate(-125.024 -120.953)" fill="#f5f5f5"/>
          <path id="Path_47692" data-name="Path 47692" d="M419.4,288.94a11.135,11.135,0,0,0-2.864.586,21.327,21.327,0,0,1,2.035-2.615.249.249,0,0,0,0-.352.242.242,0,0,0-.345,0,28.617,28.617,0,0,0-4.085,5.913,21.9,21.9,0,0,1,1.615-11.813.179.179,0,0,0-.083-.248.186.186,0,0,0-.248.083,22.19,22.19,0,0,0-1.559,12.5c-.338.649-.69,1.339-1.014,2.07a46.376,46.376,0,0,0-2.8,8.2,16.773,16.773,0,0,1-1.953-7.487.193.193,0,0,0-.193-.179.179.179,0,0,0-.172.186,16.849,16.849,0,0,0,2.194,8,57.151,57.151,0,0,0-1.249,16.9.255.255,0,0,0,.262.235h0a.242.242,0,0,0,.193-.255,54.02,54.02,0,0,1,2.539-21.28,6.755,6.755,0,0,1,3.912-2.236.186.186,0,0,0,.152-.207.172.172,0,0,0-.207-.152,6.9,6.9,0,0,0-3.574,1.773,41.354,41.354,0,0,1,4.243-8.494,10.3,10.3,0,0,1,3.25-.759.193.193,0,0,0,.173-.2.186.186,0,0,0-.221-.166Z" transform="translate(-126.396 -124.872)" fill="#e0e0e0"/>
          <path id="Path_47693" data-name="Path 47693" d="M390.79,310.156c-3.388.069-9.177-3.084-11.454-6.141s4.188-1.18,3.519-3.622-8.666-.635-10.143-4.14,4.3-2.691,4.064-4.478-6.21-1.421-8.128-5.141,3.34-1.635,2.518-3.174-7.417-8.018-4.658-9.37,8.936,5.4,11.005,6.148,2.553-3.905,5.251-1.677.69,11.978,3.85,13.262c2.36.959,1.38-3.5,4.078-2.374C395.461,291.423,392.17,310.135,390.79,310.156Z" transform="translate(-113.41 -122.862)" fill="#e6e6e6"/>
          <g id="Group_4393" data-name="Group 4393" transform="translate(252.428 151.049)" opacity="0.3">
            <path id="Path_47694" data-name="Path 47694" d="M390.79,310.156c-3.388.069-9.177-3.084-11.454-6.141s4.188-1.18,3.519-3.622-8.666-.635-10.143-4.14,4.3-2.691,4.064-4.478-6.21-1.421-8.128-5.141,3.34-1.635,2.518-3.174-7.417-8.018-4.658-9.37,8.936,5.4,11.005,6.148,2.553-3.905,5.251-1.677.69,11.978,3.85,13.262c2.36.959,1.38-3.5,4.078-2.374C395.461,291.423,392.17,310.135,390.79,310.156Z" transform="translate(-365.838 -273.911)" fill="#e6e6e6"/>
          </g>
          <path id="Path_47695" data-name="Path 47695" d="M393.679,309.4a.228.228,0,0,0,.124-.1,17.891,17.891,0,0,0,1.518-9.087.228.228,0,0,0-.455,0,18.092,18.092,0,0,1-1.38,8.639,68.931,68.931,0,0,0-5.154-10.867,23.832,23.832,0,0,0-3.167-13.3.228.228,0,0,0-.31-.069.221.221,0,0,0-.069.311,23.605,23.605,0,0,1,3.139,12.365,63.294,63.294,0,0,0-8.673-11.592.29.29,0,0,0-.421,0,.3.3,0,0,0,0,.428,59.455,59.455,0,0,1,6.617,8.363,17.8,17.8,0,0,0-6.41-1.125.228.228,0,1,0,0,.449h0a17.588,17.588,0,0,1,6.838,1.332,71.886,71.886,0,0,1,3.691,6.348,7.645,7.645,0,0,0-6.327-1.118.228.228,0,0,0-.159.276.221.221,0,0,0,.276.166,7.3,7.3,0,0,1,6.686,1.615,61.41,61.41,0,0,1,6.569,24.84.3.3,0,0,0,.3.29h0a.3.3,0,0,0,.29-.311A59.761,59.761,0,0,0,393.679,309.4Z" transform="translate(-117.41 -126.17)" fill="#f5f5f5"/>
          <path id="Path_47696" data-name="Path 47696" d="M407.92,366.944c2.629-7.48,4.354-18.292,4.354-23.032a16.56,16.56,0,0,0-3.209-10.122H395.617a16.5,16.5,0,0,0-3.208,10.122c0,4.74,1.725,15.553,4.354,23.032Z" transform="translate(-121.646 -141.425)" fill="#e6e6e6"/>
          <rect id="Rectangle_3953" data-name="Rectangle 3953" width="59.133" height="20.41" transform="translate(76.569 180.739)" fill="#ebebeb"/>
          <rect id="Rectangle_3954" data-name="Rectangle 3954" width="59.133" height="20.41" transform="translate(76.569 201.149)" fill="#ebebeb"/>
          <path id="Path_47697" data-name="Path 47697" d="M138.453,337.35l7.355-20.41H134.485l-7.355,20.41Z" transform="translate(-39.41 -136.201)" fill="#f5f5f5"/>
          <path id="Path_47698" data-name="Path 47698" d="M157.716,316.94h-2.484l-7.362,20.41h2.491Z" transform="translate(-45.84 -136.201)" fill="#f5f5f5"/>
          <path id="Path_47699" data-name="Path 47699" d="M127.783,366.93l7.362-20.41H123.822l-7.362,20.41Z" transform="translate(-36.103 -145.371)" fill="#f5f5f5"/>
          <path id="Path_47700" data-name="Path 47700" d="M147.056,346.52h-2.491l-7.355,20.41h2.484Z" transform="translate(-42.535 -145.371)" fill="#f5f5f5"/>
          <rect id="Rectangle_3955" data-name="Rectangle 3955" width="2.063" height="59.133" transform="translate(135.702 181.808) rotate(90)" fill="#e0e0e0"/>
          <rect id="Rectangle_3956" data-name="Rectangle 3956" width="2.063" height="59.133" transform="translate(135.702 202.06) rotate(90)" fill="#e0e0e0"/>
          <path id="Path_47701" data-name="Path 47701" d="M109.47,315.61v42.628h61.2V315.61ZM168.6,356.175H111.54V338.014H168.6Zm0-20.224H111.54V317.79H168.6Z" transform="translate(-33.936 -135.789)" fill="#f5f5f5"/>
          <rect id="Rectangle_3957" data-name="Rectangle 3957" width="59.133" height="20.41" transform="translate(137.765 180.739)" fill="#ebebeb"/>
          <rect id="Rectangle_3958" data-name="Rectangle 3958" width="59.133" height="20.41" transform="translate(137.765 201.149)" fill="#ebebeb"/>
          <path id="Path_47702" data-name="Path 47702" d="M236.093,337.35l7.355-20.41H232.125l-7.355,20.41Z" transform="translate(-69.679 -136.201)" fill="#f5f5f5"/>
          <path id="Path_47703" data-name="Path 47703" d="M255.356,316.94h-2.484l-7.362,20.41H248Z" transform="translate(-76.108 -136.201)" fill="#f5f5f5"/>
          <path id="Path_47704" data-name="Path 47704" d="M225.423,366.93l7.362-20.41H221.462L214.1,366.93Z" transform="translate(-66.371 -145.371)" fill="#f5f5f5"/>
          <path id="Path_47705" data-name="Path 47705" d="M244.7,346.52h-2.491l-7.355,20.41h2.491Z" transform="translate(-72.804 -145.371)" fill="#f5f5f5"/>
          <rect id="Rectangle_3959" data-name="Rectangle 3959" width="2.063" height="59.133" transform="translate(196.898 181.808) rotate(90)" fill="#e0e0e0"/>
          <rect id="Rectangle_3960" data-name="Rectangle 3960" width="2.063" height="59.133" transform="translate(196.898 202.06) rotate(90)" fill="#e0e0e0"/>
          <path id="Path_47706" data-name="Path 47706" d="M198.17,315.61v42.628h61.2V315.61ZM257.3,356.175H200.233V338.014H257.3Zm0-20.224H200.233V317.79H257.3Z" transform="translate(-61.433 -135.789)" fill="#f5f5f5"/>
          <rect id="Rectangle_3961" data-name="Rectangle 3961" width="59.133" height="20.41" transform="translate(198.962 180.739)" fill="#ebebeb"/>
          <rect id="Rectangle_3962" data-name="Rectangle 3962" width="59.133" height="20.41" transform="translate(198.962 201.149)" fill="#ebebeb"/>
          <path id="Path_47707" data-name="Path 47707" d="M319.733,337.35l7.362-20.41H315.772l-7.362,20.41Z" transform="translate(-95.607 -136.201)" fill="#f5f5f5"/>
          <path id="Path_47708" data-name="Path 47708" d="M339.006,316.94h-2.491l-7.355,20.41h2.491Z" transform="translate(-102.04 -136.201)" fill="#f5f5f5"/>
          <path id="Path_47709" data-name="Path 47709" d="M309.073,366.93l7.355-20.41H305.105l-7.355,20.41Z" transform="translate(-92.302 -145.371)" fill="#f5f5f5"/>
          <path id="Path_47710" data-name="Path 47710" d="M328.346,346.52h-2.491L318.5,366.93h2.484Z" transform="translate(-98.735 -145.371)" fill="#f5f5f5"/>
          <rect id="Rectangle_3963" data-name="Rectangle 3963" width="2.063" height="59.133" transform="translate(258.094 181.808) rotate(90)" fill="#e0e0e0"/>
          <rect id="Rectangle_3964" data-name="Rectangle 3964" width="2.063" height="59.133" transform="translate(258.094 202.06) rotate(90)" fill="#e0e0e0"/>
          <path id="Path_47711" data-name="Path 47711" d="M286.86,315.61v42.628h61.2V315.61Zm59.126,40.565H288.923V338.014h57.063Zm0-20.224H288.923V317.79h57.063Z" transform="translate(-88.927 -135.789)" fill="#f5f5f5"/>
          <path id="Path_47712" data-name="Path 47712" d="M289.4,380.461H117.647l-.9-3.07H290.3Z" transform="translate(-36.193 -154.941)" fill="#e0e0e0"/>
          <path id="Path_47713" data-name="Path 47713" d="M243.487,333.7a1.773,1.773,0,1,1-1.773-1.773A1.773,1.773,0,0,1,243.487,333.7Z" transform="translate(-74.381 -140.848)" fill="#e0e0e0"/>
          <circle id="Ellipse_645" data-name="Ellipse 645" cx="1.773" cy="1.773" r="1.773" transform="translate(165.559 190.585)" fill="#fafafa"/>
          <circle id="Ellipse_646" data-name="Ellipse 646" cx="1.773" cy="1.773" r="1.773" transform="translate(165.559 209.829)" fill="#e0e0e0"/>
          <path id="Path_47714" data-name="Path 47714" d="M243.487,360.2a1.773,1.773,0,1,1-.517-1.258,1.773,1.773,0,0,1,.517,1.258Z" transform="translate(-74.381 -149.06)" fill="#fafafa"/>
          <path id="Path_47715" data-name="Path 47715" d="M154.8,333.7a1.773,1.773,0,1,1-1.773-1.773A1.773,1.773,0,0,1,154.8,333.7Z" transform="translate(-46.888 -140.848)" fill="#e0e0e0"/>
          <circle id="Ellipse_647" data-name="Ellipse 647" cx="1.773" cy="1.773" r="1.773" transform="translate(104.362 190.585)" fill="#fafafa"/>
          <circle id="Ellipse_648" data-name="Ellipse 648" cx="1.773" cy="1.773" r="1.773" transform="translate(104.362 209.829)" fill="#e0e0e0"/>
          <path id="Path_47716" data-name="Path 47716" d="M154.8,360.2a1.773,1.773,0,1,1-.517-1.258,1.773,1.773,0,0,1,.517,1.258Z" transform="translate(-46.888 -149.06)" fill="#fafafa"/>
          <path id="Path_47717" data-name="Path 47717" d="M333.74,333.7a1.78,1.78,0,1,1-1.773-1.773A1.78,1.78,0,0,1,333.74,333.7Z" transform="translate(-102.356 -140.848)" fill="#e0e0e0"/>
          <circle id="Ellipse_649" data-name="Ellipse 649" cx="1.773" cy="1.773" r="1.773" transform="translate(227.838 190.585)" fill="#fafafa"/>
          <circle id="Ellipse_650" data-name="Ellipse 650" cx="1.773" cy="1.773" r="1.773" transform="translate(227.838 209.829)" fill="#e0e0e0"/>
          <path id="Path_47718" data-name="Path 47718" d="M333.74,360.2a1.773,1.773,0,1,1-.517-1.258,1.78,1.78,0,0,1,.517,1.258Z" transform="translate(-102.356 -149.06)" fill="#fafafa"/>
        </g>
        <g id="freepik--Shadow--inject-7" transform="translate(35.39 293.788)">
          <ellipse id="freepik--path--inject-7" cx="133.784" cy="7.811" rx="133.784" ry="7.811" fill="#f5f5f5"/>
        </g>
        <g id="freepik--Window--inject-7" transform="translate(56.483 69.987)">
          <rect id="Rectangle_3965" data-name="Rectangle 3965" width="229.487" height="133.211" transform="translate(0 3.174)" fill="#0091ff"/>
          <rect id="Rectangle_3966" data-name="Rectangle 3966" width="229.487" height="133.211" transform="translate(0 3.174)" fill="#fff" opacity="0.5"/>
          <path id="Path_47719" data-name="Path 47719" d="M81.86,81.32V92.063h38.392v-4.14a3.712,3.712,0,0,1,3.712-3.712h25.53a3.705,3.705,0,0,1,3.705,3.712v4.14H311.347V81.32Z" transform="translate(-81.86 -78.146)" fill="#0091ff"/>
          <path id="Path_47720" data-name="Path 47720" d="M93.52,87.993a2.47,2.47,0,1,1-2.463-2.463,2.47,2.47,0,0,1,2.463,2.463Z" transform="translate(-83.943 -79.451)" fill="#fff" opacity="0.7"/>
          <path id="Path_47721" data-name="Path 47721" d="M104.24,87.993a2.47,2.47,0,1,1-2.463-2.463A2.47,2.47,0,0,1,104.24,87.993Z" transform="translate(-87.266 -79.451)" fill="#fff" opacity="0.7"/>
          <path id="Path_47722" data-name="Path 47722" d="M114.96,87.993A2.47,2.47,0,1,1,112.5,85.53a2.47,2.47,0,0,1,2.463,2.463Z" transform="translate(-90.59 -79.451)" fill="#fff" opacity="0.7"/>
          <rect id="Rectangle_3967" data-name="Rectangle 3967" width="149.716" height="93.571" transform="translate(71.36 34.459)" fill="#fff" opacity="0.3"/>
          <rect id="Rectangle_3968" data-name="Rectangle 3968" width="44.015" height="44.015" transform="translate(8.039 34.459)" fill="#fff" opacity="0.3"/>
          <rect id="Rectangle_3969" data-name="Rectangle 3969" width="44.015" height="44.015" transform="translate(8.039 34.459)" fill="#fff" opacity="0.4"/>
          <rect id="Rectangle_3970" data-name="Rectangle 3970" width="26.054" height="1.856" transform="translate(18.326 90.135)" fill="#263238"/>
          <rect id="Rectangle_3971" data-name="Rectangle 3971" width="44.098" height="6.755" transform="translate(176.143 20.127)" fill="#0091ff"/>
          <rect id="Rectangle_3972" data-name="Rectangle 3972" width="44.098" height="6.755" transform="translate(176.143 20.127)" fill="#fff" opacity="0.9"/>
          <rect id="Rectangle_3973" data-name="Rectangle 3973" width="0.842" height="6.755" transform="translate(220.234 20.127)" fill="#0091ff"/>
          <rect id="Rectangle_3974" data-name="Rectangle 3974" width="0.842" height="6.755" transform="translate(115.458 20.127)" fill="#0091ff"/>
          <rect id="Rectangle_3975" data-name="Rectangle 3975" width="44.098" height="6.755" transform="translate(71.36 20.127)" fill="#0091ff"/>
          <rect id="Rectangle_3976" data-name="Rectangle 3976" width="44.098" height="6.755" transform="translate(71.36 20.127)" fill="#fff" opacity="0.9"/>
          <path id="Path_47723" data-name="Path 47723" d="M178.68,247.609h0a2.07,2.07,0,0,1-2.07-2.07V219.25a2.07,2.07,0,0,1,2.07-2.07h0a2.07,2.07,0,0,1,2.07,2.07v26.289A2.07,2.07,0,0,1,178.68,247.609Z" transform="translate(-111.233 -120.263)" fill="#fff" opacity="0.4"/>
          <path id="Path_47724" data-name="Path 47724" d="M100.6,207.211a3.284,3.284,0,1,1-.96-2.327,3.291,3.291,0,0,1,.96,2.327Z" transform="translate(-85.63 -116.152)" fill="#fff" opacity="0.4"/>
          <rect id="Rectangle_3977" data-name="Rectangle 3977" width="33.368" height="1.856" transform="translate(18.326 100.478)" fill="#263238"/>
          <path id="Path_47725" data-name="Path 47725" d="M100.6,222.211a3.291,3.291,0,1,1-3.284-3.291,3.291,3.291,0,0,1,3.284,3.291Z" transform="translate(-85.63 -120.802)" fill="#fff" opacity="0.4"/>
          <rect id="Rectangle_3978" data-name="Rectangle 3978" width="28.711" height="1.856" transform="translate(18.326 110.828)" fill="#263238"/>
          <path id="Path_47726" data-name="Path 47726" d="M100.6,237.211a3.291,3.291,0,1,1-3.284-3.291,3.291,3.291,0,0,1,3.284,3.291Z" transform="translate(-85.63 -125.452)" fill="#fff" opacity="0.4"/>
          <rect id="Rectangle_3979" data-name="Rectangle 3979" width="26.054" height="1.856" transform="translate(18.326 121.178)" fill="#263238"/>
          <path id="Path_47727" data-name="Path 47727" d="M100.6,252.2a3.291,3.291,0,1,1-3.284-3.284A3.291,3.291,0,0,1,100.6,252.2Z" transform="translate(-85.63 -130.102)" fill="#fff" opacity="0.4"/>
          <path id="Path_47728" data-name="Path 47728" d="M311.315,280.277h23.391c.5,0,.573-.787.069-.787H311.384C310.88,279.49,310.811,280.277,311.315,280.277Z" transform="translate(-152.884 -139.579)" fill="#0091ff"/>
          <path id="Path_47729" data-name="Path 47729" d="M350.673,280.277h2.953c.5,0,.573-.787.069-.787h-2.953C350.231,279.49,350.162,280.277,350.673,280.277Z" transform="translate(-165.083 -139.579)" fill="#0091ff"/>
          <path id="Path_47730" data-name="Path 47730" d="M173.19,76.72H149.813c-.5,0-.58.787-.069.787h23.391c.5,0,.573-.787.069-.787Z" transform="translate(-102.796 -76.72)" fill="#0091ff"/>
          <path id="Path_47731" data-name="Path 47731" d="M143.007,76.72h-2.953c-.5,0-.573.787-.069.787h2.953C143.449,77.507,143.518,76.72,143.007,76.72Z" transform="translate(-99.772 -76.72)" fill="#0091ff"/>
        </g>
        <g id="freepik--dropdown-menu--inject-7" transform="translate(178.434 89.217)">
          <rect id="Rectangle_3980" data-name="Rectangle 3980" width="47.424" height="44.056" transform="translate(48.41 31.837)" fill="#0091ff"/>
          <rect id="Rectangle_3981" data-name="Rectangle 3981" width="47.424" height="44.056" transform="translate(48.41 31.837)" fill="#fff" opacity="0.9"/>
          <rect id="Rectangle_3982" data-name="Rectangle 3982" width="0.966" height="44.056" transform="translate(96.8 75.893) rotate(180)" fill="#0091ff"/>
          <rect id="Rectangle_3983" data-name="Rectangle 3983" width="47.451" height="11.413" transform="translate(48.397 64.48)" fill="#0091ff"/>
          <rect id="Rectangle_3984" data-name="Rectangle 3984" width="33.072" height="3.07" transform="translate(55.586 35.935)" fill="#263238"/>
          <rect id="Rectangle_3985" data-name="Rectangle 3985" width="33.072" height="3.07" transform="translate(55.586 46.885)" fill="#263238"/>
          <rect id="Rectangle_3986" data-name="Rectangle 3986" width="33.072" height="3.07" transform="translate(55.586 57.836)" fill="#263238"/>
          <rect id="Rectangle_3987" data-name="Rectangle 3987" width="41.89" height="3.892" transform="translate(51.177 68.379)" fill="#fff"/>
          <rect id="Rectangle_3988" data-name="Rectangle 3988" width="47.424" height="54.42" transform="translate(0.028)" fill="#0091ff"/>
          <rect id="Rectangle_3989" data-name="Rectangle 3989" width="47.424" height="54.42" transform="translate(0.028)" fill="#fff" opacity="0.9"/>
          <rect id="Rectangle_3990" data-name="Rectangle 3990" width="0.966" height="54.42" transform="translate(48.41 54.427) rotate(180)" fill="#0091ff"/>
          <rect id="Rectangle_3991" data-name="Rectangle 3991" width="44.098" height="6.755" transform="translate(1.69 1.663)" fill="#0091ff"/>
          <rect id="Rectangle_3992" data-name="Rectangle 3992" width="47.451" height="11.413" transform="translate(0 31.837)" fill="#0091ff"/>
          <rect id="Rectangle_3993" data-name="Rectangle 3993" width="33.072" height="3.07" transform="translate(7.204 14.462)" fill="#263238"/>
          <rect id="Rectangle_3994" data-name="Rectangle 3994" width="33.072" height="3.07" transform="translate(7.204 25.413)" fill="#263238"/>
          <rect id="Rectangle_3995" data-name="Rectangle 3995" width="41.89" height="3.892" transform="translate(2.794 35.956)" fill="#fff"/>
          <rect id="Rectangle_3996" data-name="Rectangle 3996" width="33.072" height="3.07" transform="translate(7.204 47.32)" fill="#263238"/>
        </g>
        <g id="freepik--Character--inject-7" transform="translate(115.238 118.007)">
          <path id="Path_47732" data-name="Path 47732" d="M175.366,201.45s-8.08,16.615-4.706,17.981,14.745,2.132,14.745,2.132l4.961,4.747,2.87-1.87-.724-4.83-6.521-1.38-8.708-2.7a1.38,1.38,0,0,1-.828-1.856l4.209-9.232Z" transform="translate(-167.888 -163.407)" fill="#e4897b"/>
          <path id="Path_47733" data-name="Path 47733" d="M178.4,192.436a.925.925,0,0,0-1.573-.317c-.842.938-2.07,2.829-3.519,6.638l-1.47,3.926,7.493,5.161,2.822-4.3Z" transform="translate(-168.509 -160.416)" fill="#fff"/>
          <path id="Path_47734" data-name="Path 47734" d="M180.17,198.926l.821-1.056,1.608,1.214,2.139,6.341-2.822,4.3-1.435-.987A51.176,51.176,0,0,0,180.17,198.926Z" transform="translate(-171.091 -162.297)" opacity="0.2"/>
          <path id="Path_47735" data-name="Path 47735" d="M180.138,211.318l-8.577-6.038-.621,1.856,8.1,5.624Z" transform="translate(-168.23 -164.594)" fill="#0091ff"/>
          <path id="Path_47736" data-name="Path 47736" d="M180.138,211.318l-8.577-6.038-.621,1.856,8.1,5.624Z" transform="translate(-168.23 -164.594)" fill="#fff" opacity="0.5"/>
          <path id="Path_47737" data-name="Path 47737" d="M179.969,379.96,176.016,393.4,172,393.167l.849-14.587Z" transform="translate(-168.558 -218.317)" fill="#e4897b"/>
          <path id="Path_47738" data-name="Path 47738" d="M200.858,235.813s4.878,9.8.186,27.835-23.46,80.847-23.46,80.847l-5.285-.635s-.331-22.542,7.1-40.71c0,0,3.567-30.926,1.829-38.2a29.6,29.6,0,0,1,.145-17.022,53.371,53.371,0,0,1,3.381-9.577c1.38-2.76.973-3.8.973-3.8Z" transform="translate(-168.65 -173.668)" fill="#0091ff"/>
          <path id="Path_47739" data-name="Path 47739" d="M200.858,235.813s4.878,9.8.186,27.835-23.46,80.847-23.46,80.847l-5.285-.635s-.331-22.542,7.1-40.71c0,0,3.567-30.926,1.829-38.2a29.6,29.6,0,0,1,.145-17.022,53.371,53.371,0,0,1,3.381-9.577c1.38-2.76.973-3.8.973-3.8Z" transform="translate(-168.65 -173.668)" opacity="0.5"/>
          <path id="Path_47740" data-name="Path 47740" d="M202.327,295.148c-6.776-18.837-4.913-32.506-4.913-32.506l4.243-.552,3.312,5.893,2.318,9.66C205.971,282.438,204.246,288.517,202.327,295.148Z" transform="translate(-176.364 -182.205)" opacity="0.4"/>
          <path id="Path_47741" data-name="Path 47741" d="M179.119,399.7a.131.131,0,0,1-.09-.117.117.117,0,0,1,.076-.124c.09-.034,2.07-.869,2.912-.518a.648.648,0,0,1,.359.345.469.469,0,0,1-.055.545,2.284,2.284,0,0,1-1.6.214A9.571,9.571,0,0,1,179.119,399.7Zm.428-.124c.966.241,2.3.4,2.588.083.041-.041.083-.11,0-.276a.331.331,0,0,0-.221-.207,1.464,1.464,0,0,0-.235-.062,5.975,5.975,0,0,0-2.132.462Z" transform="translate(-170.737 -224.602)" fill="#0091ff"/>
          <path id="Path_47742" data-name="Path 47742" d="M179.04,399.057a.124.124,0,0,1-.041-.117,3.528,3.528,0,0,1,1.069-1.946.959.959,0,0,1,.69-.131c.338.076.428.262.421.407.041.614-1.38,1.6-2.07,1.808h-.048A.1.1,0,0,1,179.04,399.057Zm1.642-1.966a.69.69,0,0,0-.455.1,2.94,2.94,0,0,0-.9,1.539c.69-.311,1.642-1.1,1.656-1.47,0-.035,0-.124-.235-.173Z" transform="translate(-170.728 -223.98)" fill="#0091ff"/>
          <path id="Path_47743" data-name="Path 47743" d="M174.939,398.6l-5.768-.69a.469.469,0,0,0-.5.3l-1.608,4.589a.773.773,0,0,0,.469.994.592.592,0,0,0,.159.041c2.07.214,3.947.324,6.541.642,3.057.373,2.236.642,5.824,1.132,2.167.29,2.863-2.125,1.96-2.36-4.14-1.035-4.423-2.36-5.865-4.057A1.863,1.863,0,0,0,174.939,398.6Z" transform="translate(-167.012 -224.308)" fill="#263238"/>
          <path id="Path_47744" data-name="Path 47744" d="M178.371,392.058l-7.321-.918.11,2.18,6.458.8Z" transform="translate(-168.264 -222.211)" fill="#263238"/>
          <path id="Path_47745" data-name="Path 47745" d="M178.371,392.058l-7.321-.918.11,2.18,6.458.8Z" transform="translate(-168.264 -222.211)" opacity="0.4"/>
          <path id="Path_47746" data-name="Path 47746" d="M209.824,381.9,208.1,395.293h-4.057L203,382.148Z" transform="translate(-178.168 -219.346)" fill="#e4897b"/>
          <path id="Path_47747" data-name="Path 47747" d="M214.7,234.2a12.647,12.647,0,0,0,.98,3.512c1.649,4.188,3.45,17.36,3.05,24.026-1.028,18.63-12.047,83.311-12.047,83.311h-5.3s-3.65-22.018.69-41.4c0,0,1.525-27.31-.745-34.431-1.587-4.954-6.058-9.75-4.913-20.224s3.926-14.055,3.926-14.055Z" transform="translate(-176.07 -173.559)" fill="#0091ff"/>
          <path id="Path_47748" data-name="Path 47748" d="M214.7,234.2a12.647,12.647,0,0,0,.98,3.512c1.649,4.188,3.45,17.36,3.05,24.026-1.028,18.63-12.047,83.311-12.047,83.311h-5.3s-3.65-22.018.69-41.4c0,0,1.525-27.31-.745-34.431-1.587-4.954-6.058-9.75-4.913-20.224s3.926-14.055,3.926-14.055Z" transform="translate(-176.07 -173.559)" opacity="0.5"/>
          <path id="Path_47749" data-name="Path 47749" d="M190.58,241.22l1.014-2.07,1.063.145-.614,2.153Z" transform="translate(-174.318 -175.094)" fill="#0091ff"/>
          <path id="Path_47750" data-name="Path 47750" d="M212.8,239.54c2.877-.173,5.216-.469,6.714-.69l.745,2.132a72.988,72.988,0,0,1-7.459.807Z" transform="translate(-181.206 -175.001)" fill="#0091ff"/>
          <path id="Path_47751" data-name="Path 47751" d="M195.682,239.59a73.444,73.444,0,0,0,9.977.269v2.229c-.966,0-1.973.062-3.022.062a72.319,72.319,0,0,1-7.507-.386Z" transform="translate(-175.729 -175.23)" fill="#0091ff"/>
          <g id="Group_4394" data-name="Group 4394" transform="translate(16.262 63.849)" opacity="0.5">
            <path id="Path_47752" data-name="Path 47752" d="M190.58,241.22l1.014-2.07,1.063.145-.614,2.153Z" transform="translate(-190.58 -238.943)" fill="#fff"/>
            <path id="Path_47753" data-name="Path 47753" d="M212.8,239.54c2.877-.173,5.216-.469,6.714-.69l.745,2.132a72.988,72.988,0,0,1-7.459.807Z" transform="translate(-197.468 -238.85)" fill="#fff"/>
            <path id="Path_47754" data-name="Path 47754" d="M195.13,241.764l.552-2.174a73.444,73.444,0,0,0,9.977.269v2.229c-.966,0-1.973.062-3.022.062" transform="translate(-191.991 -239.079)" fill="#fff"/>
          </g>
          <path id="Path_47755" data-name="Path 47755" d="M212.952,400.6a.117.117,0,0,1-.1-.1.124.124,0,0,1,.055-.131c.083-.048,1.918-1.145,2.815-.918a.69.69,0,0,1,.4.29.476.476,0,0,1,0,.552,2.277,2.277,0,0,1-1.559.435A9.2,9.2,0,0,1,212.952,400.6Zm.407-.172c.994.1,2.332.069,2.574-.283a.346.346,0,0,0,0-.276.352.352,0,0,0-.255-.173.925.925,0,0,0-.242,0,5.886,5.886,0,0,0-2.091.731Z" transform="translate(-181.221 -224.776)" fill="#0091ff"/>
          <path id="Path_47756" data-name="Path 47756" d="M212.854,400.037a.1.1,0,0,1-.055-.11,3.527,3.527,0,0,1,.787-2.07.952.952,0,0,1,.69-.228c.352,0,.462.2.476.345.124.6-1.132,1.773-1.766,2.07a.062.062,0,0,1-.048,0A.138.138,0,0,1,212.854,400.037Zm1.38-2.173a.635.635,0,0,0-.435.166,2.947,2.947,0,0,0-.69,1.642c.649-.4,1.477-1.318,1.435-1.677,0-.035,0-.124-.255-.138Z" transform="translate(-181.206 -224.222)" fill="#0091ff"/>
          <path id="Path_47757" data-name="Path 47757" d="M208.914,400.058l-5.817.11a.455.455,0,0,0-.449.373l-.966,4.754a.773.773,0,0,0,.6.918h.166c2.07-.076,3.961-.228,6.569-.269,3.077-.055,2.3.324,5.927.311,2.18,0,2.532-2.5,1.608-2.6-4.243-.455-4.706-1.725-6.369-3.215A1.911,1.911,0,0,0,208.914,400.058Z" transform="translate(-177.755 -224.974)" fill="#263238"/>
          <path id="Path_47758" data-name="Path 47758" d="M203.228,158.365c-.124-.421,0-.835.283-.911s.6.2.725.628,0,.835-.283.911S203.346,158.793,203.228,158.365Z" transform="translate(-178.224 -149.764)" fill="#263238"/>
          <path id="Path_47759" data-name="Path 47759" d="M203.18,159.72l3.257,2.07a2.912,2.912,0,0,1-2.249,1.318Z" transform="translate(-178.224 -150.471)" fill="#de5753"/>
          <path id="Path_47760" data-name="Path 47760" d="M201.6,156.713a.269.269,0,0,0,.173-.173,2.07,2.07,0,0,1,1.27-1.38.255.255,0,0,0,.173-.317.262.262,0,0,0-.317-.186,2.594,2.594,0,0,0-1.622,1.725.255.255,0,0,0,.152.324h0A.207.207,0,0,0,201.6,156.713Z" transform="translate(-177.629 -148.898)" fill="#263238"/>
          <path id="Path_47761" data-name="Path 47761" d="M181.83,160.687c2.18,5.154,2.995,7.383,6.61,9.149,5.044,1.318,11.309-1.152,10.7-6.865-.538-5.134-4.009-12.682-9.922-12.986a7.638,7.638,0,0,0-7.39,10.7Z" transform="translate(-171.405 -147.45)" fill="#e4897b"/>
          <path id="Path_47762" data-name="Path 47762" d="M199.084,174.122s3.747.759,5.23-2.512c-.5,2.629-2.691,4.3-5.32,4.961l-.9-.635.49-1.332Z" transform="translate(-176.646 -154.156)" opacity="0.2"/>
          <path id="Path_47763" data-name="Path 47763" d="M189.65,183.375s3.243-1.587.9-7.769c0,0,2.588-2.567,5.279-1.477s.428,6.783,3.595,7.659C199.427,181.788,197.778,184.072,189.65,183.375Z" transform="translate(-174.03 -154.854)" fill="#e4897b"/>
          <path id="Path_47764" data-name="Path 47764" d="M192.372,158.788a17.9,17.9,0,0,1-2.242-2.643c-1.1-1.58,1.463-3.416,1.028-6.341s-3.45-1.145-3.45-1.145-7.314-.828-8.28,6.769a8.97,8.97,0,0,0,9.115,13.69l.483-.11a4.754,4.754,0,0,0,3.284-4.513Z" transform="translate(-170.418 -146.875)" fill="#263238"/>
          <path id="Path_47765" data-name="Path 47765" d="M191.4,178.7s-1.918.642-1.173,1.414S191.4,178.7,191.4,178.7Z" transform="translate(-174.154 -156.354)" fill="#263238"/>
          <path id="Path_47766" data-name="Path 47766" d="M181.021,159.871c-.117-1.732-.566-3.112-2.3-2.995s-1.835,1.546-1.718,3.277.428,3.119,2.16,2.995S181.131,161.6,181.021,159.871Z" transform="translate(-170.099 -149.587)" fill="#0091ff"/>
          <path id="Path_47767" data-name="Path 47767" d="M195.325,163.008a4.271,4.271,0,0,1,2.353,2.311c.58,1.38-.628,2.3-2.07,2.07-1.283-.2-3.119-1.18-3.1-2.67a1.946,1.946,0,0,1,2.815-1.711Z" transform="translate(-174.916 -151.426)" fill="#e4897b"/>
          <path id="Path_47768" data-name="Path 47768" d="M170.3,159.869a4.658,4.658,0,0,0,4.968,4.313c2.567-.179,2.719-2.277,2.539-4.83s-.628-4.616-3.188-4.437a4.658,4.658,0,0,0-4.319,4.954Z" transform="translate(-168.027 -148.978)" fill="#263238"/>
          <path id="Path_47769" data-name="Path 47769" d="M195.549,147.022c-.483.69-.966,1.69-.442,2.387.3.4.835.538,1.194.89a2.608,2.608,0,0,1,.607,1.511,37.322,37.322,0,0,1,.511,6.01c1.38-2.387,2.857-4.913,2.912-7.68a4.913,4.913,0,0,0-.49-2.394,2.684,2.684,0,0,0-1.911-1.421A5.881,5.881,0,0,0,195.549,147.022Z" transform="translate(-175.651 -146.315)" fill="#263238"/>
          <path id="Path_47770" data-name="Path 47770" d="M201.632,184.593s.317-3.947-7.328-2.353-2.512,3.788-2.512,3.788Z" transform="translate(-174.171 -157.334)" fill="#0091ff"/>
          <path id="Path_47771" data-name="Path 47771" d="M201.632,184.593s.317-3.947-7.328-2.353-2.512,3.788-2.512,3.788Z" transform="translate(-174.171 -157.334)" fill="#fff" opacity="0.5"/>
          <path id="Path_47772" data-name="Path 47772" d="M209.158,220.2c-8.556,1.663-18.368.98-21.963.642-.814-.083.69-9.66-7.949-27.013a3.988,3.988,0,0,1,.89-4.892c5.879-4.865,16.56-4.678,21.459-4.285a5.568,5.568,0,0,1,4.264,2.5,26.861,26.861,0,0,1,3.388,9.384,61.5,61.5,0,0,1,.987,9.543C210.462,213.65,209.544,220.122,209.158,220.2Z" transform="translate(-170.658 -158.143)" fill="#fff"/>
          <path id="Path_47773" data-name="Path 47773" d="M221.388,210.972c-2.76-.524-6.638-10.7-6.638-10.7l5.651,1.159a61.5,61.5,0,0,1,.987,9.543Z" transform="translate(-181.811 -163.041)" opacity="0.2"/>
          <path id="Path_47774" data-name="Path 47774" d="M220.3,184.466l8.211,5.237a1.276,1.276,0,0,0,1.808-.455l6.665-11.951,2.415-6.21.69-.752,4.14-3.505h1.587l-3.077,2.76.856,1.463,1.38,3.14-5.486,4.83s-3.188,14.331-6.6,17.388c-2.712,2.429-16.36-7.217-16.36-7.217Z" transform="translate(-182.363 -152.675)" fill="#e4897b"/>
          <path id="Path_47775" data-name="Path 47775" d="M213.157,185.129c2.132.649,6.824,2.76,14.18,9.7l-5.41,7.245a11.764,11.764,0,0,1-8.107-6.514,21.308,21.308,0,0,1-2.07-9.4,1.09,1.09,0,0,1,1.408-1.028Z" transform="translate(-180.88 -158.333)" fill="#fff"/>
          <path id="Path_47776" data-name="Path 47776" d="M230.36,197.07l-6.12,8.839,2.049.428,5.775-7.887Z" transform="translate(-184.753 -162.049)" fill="#0091ff"/>
          <path id="Path_47777" data-name="Path 47777" d="M230.36,197.07l-6.12,8.839,2.049.428,5.775-7.887Z" transform="translate(-184.753 -162.049)" fill="#fff" opacity="0.5"/>
          <path id="Path_47778" data-name="Path 47778" d="M209.573,393.22H202.19l.407,2.146h6.514Z" transform="translate(-177.917 -222.855)" fill="#263238"/>
          <path id="Path_47779" data-name="Path 47779" d="M209.573,393.22H202.19l.407,2.146h6.514Z" transform="translate(-177.917 -222.855)" opacity="0.4"/>
        </g>
      </g>
    </g>
    <g id="Group_4423" data-name="Group 4423" transform="translate(13277 -178)">
      <rect id="Rectangle_4206-2" data-name="Rectangle 4206" width="345" height="307" transform="translate(-12777 3598)" fill="#fff" opacity="0"/>
      <g id="Dropdown_menu-rafiki-2" data-name="Dropdown menu-rafiki" transform="translate(-12777 3569.295)">
        <g id="freepik--background-complete--inject-7-2" data-name="freepik--background-complete--inject-7" transform="translate(0 55)">
          <rect id="Rectangle_3945-2" data-name="Rectangle 3945" width="22.853" height="0.172" transform="translate(287.578 237.008)" fill="#ebebeb"/>
          <rect id="Rectangle_3946-2" data-name="Rectangle 3946" width="5.996" height="0.172" transform="translate(222.546 238.885)" fill="#ebebeb"/>
          <rect id="Rectangle_3947-2" data-name="Rectangle 3947" width="13.241" height="0.172" transform="translate(273.647 230.605)" fill="#ebebeb"/>
          <rect id="Rectangle_3948-2" data-name="Rectangle 3948" width="29.801" height="0.172" transform="translate(36.197 231.764)" fill="#ebebeb"/>
          <rect id="Rectangle_3949-2" data-name="Rectangle 3949" width="4.368" height="0.172" transform="translate(72.146 231.764)" fill="#ebebeb"/>
          <rect id="Rectangle_3950-2" data-name="Rectangle 3950" width="64.639" height="0.172" transform="translate(90.714 234.676)" fill="#ebebeb"/>
          <path id="Path_47686-2" data-name="Path 47686" d="M175.375,250.132H42.15a3.94,3.94,0,0,1-3.94-3.94V58.905A3.94,3.94,0,0,1,42.15,55H175.375a3.94,3.94,0,0,1,3.94,3.94V246.192A3.94,3.94,0,0,1,175.375,250.132ZM42.15,55.138a3.774,3.774,0,0,0-3.767,3.767V246.192a3.774,3.774,0,0,0,3.767,3.767H175.375a3.774,3.774,0,0,0,3.767-3.767V58.905a3.774,3.774,0,0,0-3.767-3.767Z" transform="translate(-11.845 -55)" fill="#ebebeb"/>
          <path id="Path_47687-2" data-name="Path 47687" d="M391.679,250.132H258.44a3.947,3.947,0,0,1-3.94-3.94V58.905A3.947,3.947,0,0,1,258.44,55H391.679a3.94,3.94,0,0,1,3.926,3.905V246.192A3.94,3.94,0,0,1,391.679,250.132ZM258.44,55.138a3.774,3.774,0,0,0-3.767,3.767V246.192a3.774,3.774,0,0,0,3.767,3.767H391.679a3.774,3.774,0,0,0,3.767-3.767V58.905a3.774,3.774,0,0,0-3.767-3.767Z" transform="translate(-78.895 -55)" fill="#ebebeb"/>
          <rect id="Rectangle_3951-2" data-name="Rectangle 3951" width="345" height="0.172" transform="translate(0 225.906)" fill="#ebebeb"/>
          <rect id="Rectangle_3952-2" data-name="Rectangle 3952" width="1.573" height="98.635" transform="translate(59.968 224.768) rotate(180)" fill="#ebebeb"/>
          <path id="Path_47688-2" data-name="Path 47688" d="M95.492,217.73c0,5.03-3.574,9.425-8.88,11.765H69.01c-5.306-2.339-8.88-6.734-8.88-11.765s3.6-9.418,8.88-11.73h17.6C91.918,208.312,95.492,212.7,95.492,217.73Z" transform="translate(-18.64 -101.81)" fill="#f0f0f0"/>
          <path id="Path_47689-2" data-name="Path 47689" d="M77.5,217.711c0-5.037,3.567-9.425,8.873-11.771H92c5.306,2.346,8.88,6.734,8.88,11.771S97.3,227.137,92,229.476H86.373C81.067,227.144,77.5,222.748,77.5,217.711Z" transform="translate(-24.025 -101.791)" fill="#f5f5f5"/>
          <path id="Path_47690-2" data-name="Path 47690" d="M69.73,380.628H91.872a2.7,2.7,0,0,0-2.7-2.7H72.435A2.7,2.7,0,0,0,69.73,380.628Z" transform="translate(-21.616 -155.108)" fill="#ebebeb"/>
          <path id="Path_47691-2" data-name="Path 47691" d="M407.8,304.887c.062.062-.269.524,1.076.324,3.312-.5,9.08-1.842,10.681-5.251,2.3-4.865-4.83-3.084-4.568-5.575s8.335-2.07,9.191-5.7-4.623-1.911-4.7-3.685,6.251-.69,7.5-4.609-3.519-1.042-2.974-2.677,5.9-9.039,2.988-9.895-7.811,6.734-9.7,7.811-3.567-5.127-5.824-2.5,1.318,11.771-1.553,13.552c-2.146,1.318-1.539-2.325-4.368-1.642C401.714,285.96,403,299.512,407.8,304.887Z" transform="translate(-125.024 -120.953)" fill="#f5f5f5"/>
          <path id="Path_47692-2" data-name="Path 47692" d="M419.4,288.94a11.135,11.135,0,0,0-2.864.586,21.327,21.327,0,0,1,2.035-2.615.249.249,0,0,0,0-.352.242.242,0,0,0-.345,0,28.617,28.617,0,0,0-4.085,5.913,21.9,21.9,0,0,1,1.615-11.813.179.179,0,0,0-.083-.248.186.186,0,0,0-.248.083,22.19,22.19,0,0,0-1.559,12.5c-.338.649-.69,1.339-1.014,2.07a46.376,46.376,0,0,0-2.8,8.2,16.773,16.773,0,0,1-1.953-7.487.193.193,0,0,0-.193-.179.179.179,0,0,0-.172.186,16.849,16.849,0,0,0,2.194,8,57.151,57.151,0,0,0-1.249,16.9.255.255,0,0,0,.262.235h0a.242.242,0,0,0,.193-.255,54.02,54.02,0,0,1,2.539-21.28,6.755,6.755,0,0,1,3.912-2.236.186.186,0,0,0,.152-.207.172.172,0,0,0-.207-.152,6.9,6.9,0,0,0-3.574,1.773,41.354,41.354,0,0,1,4.243-8.494,10.3,10.3,0,0,1,3.25-.759.193.193,0,0,0,.173-.2.186.186,0,0,0-.221-.166Z" transform="translate(-126.396 -124.872)" fill="#e0e0e0"/>
          <path id="Path_47693-2" data-name="Path 47693" d="M390.79,310.156c-3.388.069-9.177-3.084-11.454-6.141s4.188-1.18,3.519-3.622-8.666-.635-10.143-4.14,4.3-2.691,4.064-4.478-6.21-1.421-8.128-5.141,3.34-1.635,2.518-3.174-7.417-8.018-4.658-9.37,8.936,5.4,11.005,6.148,2.553-3.905,5.251-1.677.69,11.978,3.85,13.262c2.36.959,1.38-3.5,4.078-2.374C395.461,291.423,392.17,310.135,390.79,310.156Z" transform="translate(-113.41 -122.862)" fill="#e6e6e6"/>
          <g id="Group_4393-2" data-name="Group 4393" transform="translate(252.428 151.049)" opacity="0.3">
            <path id="Path_47694-2" data-name="Path 47694" d="M390.79,310.156c-3.388.069-9.177-3.084-11.454-6.141s4.188-1.18,3.519-3.622-8.666-.635-10.143-4.14,4.3-2.691,4.064-4.478-6.21-1.421-8.128-5.141,3.34-1.635,2.518-3.174-7.417-8.018-4.658-9.37,8.936,5.4,11.005,6.148,2.553-3.905,5.251-1.677.69,11.978,3.85,13.262c2.36.959,1.38-3.5,4.078-2.374C395.461,291.423,392.17,310.135,390.79,310.156Z" transform="translate(-365.838 -273.911)" fill="#e6e6e6"/>
          </g>
          <path id="Path_47695-2" data-name="Path 47695" d="M393.679,309.4a.228.228,0,0,0,.124-.1,17.891,17.891,0,0,0,1.518-9.087.228.228,0,0,0-.455,0,18.092,18.092,0,0,1-1.38,8.639,68.931,68.931,0,0,0-5.154-10.867,23.832,23.832,0,0,0-3.167-13.3.228.228,0,0,0-.31-.069.221.221,0,0,0-.069.311,23.605,23.605,0,0,1,3.139,12.365,63.294,63.294,0,0,0-8.673-11.592.29.29,0,0,0-.421,0,.3.3,0,0,0,0,.428,59.455,59.455,0,0,1,6.617,8.363,17.8,17.8,0,0,0-6.41-1.125.228.228,0,1,0,0,.449h0a17.588,17.588,0,0,1,6.838,1.332,71.886,71.886,0,0,1,3.691,6.348,7.645,7.645,0,0,0-6.327-1.118.228.228,0,0,0-.159.276.221.221,0,0,0,.276.166,7.3,7.3,0,0,1,6.686,1.615,61.41,61.41,0,0,1,6.569,24.84.3.3,0,0,0,.3.29h0a.3.3,0,0,0,.29-.311A59.761,59.761,0,0,0,393.679,309.4Z" transform="translate(-117.41 -126.17)" fill="#f5f5f5"/>
          <path id="Path_47696-2" data-name="Path 47696" d="M407.92,366.944c2.629-7.48,4.354-18.292,4.354-23.032a16.56,16.56,0,0,0-3.209-10.122H395.617a16.5,16.5,0,0,0-3.208,10.122c0,4.74,1.725,15.553,4.354,23.032Z" transform="translate(-121.646 -141.425)" fill="#e6e6e6"/>
          <rect id="Rectangle_3953-2" data-name="Rectangle 3953" width="59.133" height="20.41" transform="translate(76.569 180.739)" fill="#ebebeb"/>
          <rect id="Rectangle_3954-2" data-name="Rectangle 3954" width="59.133" height="20.41" transform="translate(76.569 201.149)" fill="#ebebeb"/>
          <path id="Path_47697-2" data-name="Path 47697" d="M138.453,337.35l7.355-20.41H134.485l-7.355,20.41Z" transform="translate(-39.41 -136.201)" fill="#f5f5f5"/>
          <path id="Path_47698-2" data-name="Path 47698" d="M157.716,316.94h-2.484l-7.362,20.41h2.491Z" transform="translate(-45.84 -136.201)" fill="#f5f5f5"/>
          <path id="Path_47699-2" data-name="Path 47699" d="M127.783,366.93l7.362-20.41H123.822l-7.362,20.41Z" transform="translate(-36.103 -145.371)" fill="#f5f5f5"/>
          <path id="Path_47700-2" data-name="Path 47700" d="M147.056,346.52h-2.491l-7.355,20.41h2.484Z" transform="translate(-42.535 -145.371)" fill="#f5f5f5"/>
          <rect id="Rectangle_3955-2" data-name="Rectangle 3955" width="2.063" height="59.133" transform="translate(135.702 181.808) rotate(90)" fill="#e0e0e0"/>
          <rect id="Rectangle_3956-2" data-name="Rectangle 3956" width="2.063" height="59.133" transform="translate(135.702 202.06) rotate(90)" fill="#e0e0e0"/>
          <path id="Path_47701-2" data-name="Path 47701" d="M109.47,315.61v42.628h61.2V315.61ZM168.6,356.175H111.54V338.014H168.6Zm0-20.224H111.54V317.79H168.6Z" transform="translate(-33.936 -135.789)" fill="#f5f5f5"/>
          <rect id="Rectangle_3957-2" data-name="Rectangle 3957" width="59.133" height="20.41" transform="translate(137.765 180.739)" fill="#ebebeb"/>
          <rect id="Rectangle_3958-2" data-name="Rectangle 3958" width="59.133" height="20.41" transform="translate(137.765 201.149)" fill="#ebebeb"/>
          <path id="Path_47702-2" data-name="Path 47702" d="M236.093,337.35l7.355-20.41H232.125l-7.355,20.41Z" transform="translate(-69.679 -136.201)" fill="#f5f5f5"/>
          <path id="Path_47703-2" data-name="Path 47703" d="M255.356,316.94h-2.484l-7.362,20.41H248Z" transform="translate(-76.108 -136.201)" fill="#f5f5f5"/>
          <path id="Path_47704-2" data-name="Path 47704" d="M225.423,366.93l7.362-20.41H221.462L214.1,366.93Z" transform="translate(-66.371 -145.371)" fill="#f5f5f5"/>
          <path id="Path_47705-2" data-name="Path 47705" d="M244.7,346.52h-2.491l-7.355,20.41h2.491Z" transform="translate(-72.804 -145.371)" fill="#f5f5f5"/>
          <rect id="Rectangle_3959-2" data-name="Rectangle 3959" width="2.063" height="59.133" transform="translate(196.898 181.808) rotate(90)" fill="#e0e0e0"/>
          <rect id="Rectangle_3960-2" data-name="Rectangle 3960" width="2.063" height="59.133" transform="translate(196.898 202.06) rotate(90)" fill="#e0e0e0"/>
          <path id="Path_47706-2" data-name="Path 47706" d="M198.17,315.61v42.628h61.2V315.61ZM257.3,356.175H200.233V338.014H257.3Zm0-20.224H200.233V317.79H257.3Z" transform="translate(-61.433 -135.789)" fill="#f5f5f5"/>
          <rect id="Rectangle_3961-2" data-name="Rectangle 3961" width="59.133" height="20.41" transform="translate(198.962 180.739)" fill="#ebebeb"/>
          <rect id="Rectangle_3962-2" data-name="Rectangle 3962" width="59.133" height="20.41" transform="translate(198.962 201.149)" fill="#ebebeb"/>
          <path id="Path_47707-2" data-name="Path 47707" d="M319.733,337.35l7.362-20.41H315.772l-7.362,20.41Z" transform="translate(-95.607 -136.201)" fill="#f5f5f5"/>
          <path id="Path_47708-2" data-name="Path 47708" d="M339.006,316.94h-2.491l-7.355,20.41h2.491Z" transform="translate(-102.04 -136.201)" fill="#f5f5f5"/>
          <path id="Path_47709-2" data-name="Path 47709" d="M309.073,366.93l7.355-20.41H305.105l-7.355,20.41Z" transform="translate(-92.302 -145.371)" fill="#f5f5f5"/>
          <path id="Path_47710-2" data-name="Path 47710" d="M328.346,346.52h-2.491L318.5,366.93h2.484Z" transform="translate(-98.735 -145.371)" fill="#f5f5f5"/>
          <rect id="Rectangle_3963-2" data-name="Rectangle 3963" width="2.063" height="59.133" transform="translate(258.094 181.808) rotate(90)" fill="#e0e0e0"/>
          <rect id="Rectangle_3964-2" data-name="Rectangle 3964" width="2.063" height="59.133" transform="translate(258.094 202.06) rotate(90)" fill="#e0e0e0"/>
          <path id="Path_47711-2" data-name="Path 47711" d="M286.86,315.61v42.628h61.2V315.61Zm59.126,40.565H288.923V338.014h57.063Zm0-20.224H288.923V317.79h57.063Z" transform="translate(-88.927 -135.789)" fill="#f5f5f5"/>
          <path id="Path_47712-2" data-name="Path 47712" d="M289.4,380.461H117.647l-.9-3.07H290.3Z" transform="translate(-36.193 -154.941)" fill="#e0e0e0"/>
          <path id="Path_47713-2" data-name="Path 47713" d="M243.487,333.7a1.773,1.773,0,1,1-1.773-1.773A1.773,1.773,0,0,1,243.487,333.7Z" transform="translate(-74.381 -140.848)" fill="#e0e0e0"/>
          <circle id="Ellipse_645-2" data-name="Ellipse 645" cx="1.773" cy="1.773" r="1.773" transform="translate(165.559 190.585)" fill="#fafafa"/>
          <circle id="Ellipse_646-2" data-name="Ellipse 646" cx="1.773" cy="1.773" r="1.773" transform="translate(165.559 209.829)" fill="#e0e0e0"/>
          <path id="Path_47714-2" data-name="Path 47714" d="M243.487,360.2a1.773,1.773,0,1,1-.517-1.258,1.773,1.773,0,0,1,.517,1.258Z" transform="translate(-74.381 -149.06)" fill="#fafafa"/>
          <path id="Path_47715-2" data-name="Path 47715" d="M154.8,333.7a1.773,1.773,0,1,1-1.773-1.773A1.773,1.773,0,0,1,154.8,333.7Z" transform="translate(-46.888 -140.848)" fill="#e0e0e0"/>
          <circle id="Ellipse_647-2" data-name="Ellipse 647" cx="1.773" cy="1.773" r="1.773" transform="translate(104.362 190.585)" fill="#fafafa"/>
          <circle id="Ellipse_648-2" data-name="Ellipse 648" cx="1.773" cy="1.773" r="1.773" transform="translate(104.362 209.829)" fill="#e0e0e0"/>
          <path id="Path_47716-2" data-name="Path 47716" d="M154.8,360.2a1.773,1.773,0,1,1-.517-1.258,1.773,1.773,0,0,1,.517,1.258Z" transform="translate(-46.888 -149.06)" fill="#fafafa"/>
          <path id="Path_47717-2" data-name="Path 47717" d="M333.74,333.7a1.78,1.78,0,1,1-1.773-1.773A1.78,1.78,0,0,1,333.74,333.7Z" transform="translate(-102.356 -140.848)" fill="#e0e0e0"/>
          <circle id="Ellipse_649-2" data-name="Ellipse 649" cx="1.773" cy="1.773" r="1.773" transform="translate(227.838 190.585)" fill="#fafafa"/>
          <circle id="Ellipse_650-2" data-name="Ellipse 650" cx="1.773" cy="1.773" r="1.773" transform="translate(227.838 209.829)" fill="#e0e0e0"/>
          <path id="Path_47718-2" data-name="Path 47718" d="M333.74,360.2a1.773,1.773,0,1,1-.517-1.258,1.78,1.78,0,0,1,.517,1.258Z" transform="translate(-102.356 -149.06)" fill="#fafafa"/>
        </g>
        <g id="freepik--Shadow--inject-7-2" data-name="freepik--Shadow--inject-7" transform="translate(35.39 293.788)">
          <ellipse id="freepik--path--inject-7-2" data-name="freepik--path--inject-7" cx="133.784" cy="7.811" rx="133.784" ry="7.811" fill="#f5f5f5"/>
        </g>
        <g id="freepik--Window--inject-7-2" data-name="freepik--Window--inject-7" transform="translate(56.483 69.987)">
          <rect id="Rectangle_3965-2" data-name="Rectangle 3965" width="229.487" height="133.211" transform="translate(0 3.174)" fill="#0091ff"/>
          <rect id="Rectangle_3966-2" data-name="Rectangle 3966" width="229.487" height="133.211" transform="translate(0 3.174)" fill="#fff" opacity="0.5"/>
          <path id="Path_47719-2" data-name="Path 47719" d="M81.86,81.32V92.063h38.392v-4.14a3.712,3.712,0,0,1,3.712-3.712h25.53a3.705,3.705,0,0,1,3.705,3.712v4.14H311.347V81.32Z" transform="translate(-81.86 -78.146)" fill="#0091ff"/>
          <path id="Path_47720-2" data-name="Path 47720" d="M93.52,87.993a2.47,2.47,0,1,1-2.463-2.463,2.47,2.47,0,0,1,2.463,2.463Z" transform="translate(-83.943 -79.451)" fill="#fff" opacity="0.7"/>
          <path id="Path_47721-2" data-name="Path 47721" d="M104.24,87.993a2.47,2.47,0,1,1-2.463-2.463A2.47,2.47,0,0,1,104.24,87.993Z" transform="translate(-87.266 -79.451)" fill="#fff" opacity="0.7"/>
          <path id="Path_47722-2" data-name="Path 47722" d="M114.96,87.993A2.47,2.47,0,1,1,112.5,85.53a2.47,2.47,0,0,1,2.463,2.463Z" transform="translate(-90.59 -79.451)" fill="#fff" opacity="0.7"/>
          <rect id="Rectangle_3967-2" data-name="Rectangle 3967" width="149.716" height="93.571" transform="translate(71.36 34.459)" fill="#fff" opacity="0.3"/>
          <rect id="Rectangle_3968-2" data-name="Rectangle 3968" width="44.015" height="44.015" transform="translate(8.039 34.459)" fill="#fff" opacity="0.3"/>
          <rect id="Rectangle_3969-2" data-name="Rectangle 3969" width="44.015" height="44.015" transform="translate(8.039 34.459)" fill="#fff" opacity="0.4"/>
          <rect id="Rectangle_3970-2" data-name="Rectangle 3970" width="26.054" height="1.856" transform="translate(18.326 90.135)" fill="#263238"/>
          <rect id="Rectangle_3971-2" data-name="Rectangle 3971" width="44.098" height="6.755" transform="translate(176.143 20.127)" fill="#0091ff"/>
          <rect id="Rectangle_3972-2" data-name="Rectangle 3972" width="44.098" height="6.755" transform="translate(176.143 20.127)" fill="#fff" opacity="0.9"/>
          <rect id="Rectangle_3973-2" data-name="Rectangle 3973" width="0.842" height="6.755" transform="translate(220.234 20.127)" fill="#0091ff"/>
          <rect id="Rectangle_3974-2" data-name="Rectangle 3974" width="0.842" height="6.755" transform="translate(115.458 20.127)" fill="#0091ff"/>
          <rect id="Rectangle_3975-2" data-name="Rectangle 3975" width="44.098" height="6.755" transform="translate(71.36 20.127)" fill="#0091ff"/>
          <rect id="Rectangle_3976-2" data-name="Rectangle 3976" width="44.098" height="6.755" transform="translate(71.36 20.127)" fill="#fff" opacity="0.9"/>
          <path id="Path_47723-2" data-name="Path 47723" d="M178.68,247.609h0a2.07,2.07,0,0,1-2.07-2.07V219.25a2.07,2.07,0,0,1,2.07-2.07h0a2.07,2.07,0,0,1,2.07,2.07v26.289A2.07,2.07,0,0,1,178.68,247.609Z" transform="translate(-111.233 -120.263)" fill="#fff" opacity="0.4"/>
          <path id="Path_47724-2" data-name="Path 47724" d="M100.6,207.211a3.284,3.284,0,1,1-.96-2.327,3.291,3.291,0,0,1,.96,2.327Z" transform="translate(-85.63 -116.152)" fill="#fff" opacity="0.4"/>
          <rect id="Rectangle_3977-2" data-name="Rectangle 3977" width="33.368" height="1.856" transform="translate(18.326 100.478)" fill="#263238"/>
          <path id="Path_47725-2" data-name="Path 47725" d="M100.6,222.211a3.291,3.291,0,1,1-3.284-3.291,3.291,3.291,0,0,1,3.284,3.291Z" transform="translate(-85.63 -120.802)" fill="#fff" opacity="0.4"/>
          <rect id="Rectangle_3978-2" data-name="Rectangle 3978" width="28.711" height="1.856" transform="translate(18.326 110.828)" fill="#263238"/>
          <path id="Path_47726-2" data-name="Path 47726" d="M100.6,237.211a3.291,3.291,0,1,1-3.284-3.291,3.291,3.291,0,0,1,3.284,3.291Z" transform="translate(-85.63 -125.452)" fill="#fff" opacity="0.4"/>
          <rect id="Rectangle_3979-2" data-name="Rectangle 3979" width="26.054" height="1.856" transform="translate(18.326 121.178)" fill="#263238"/>
          <path id="Path_47727-2" data-name="Path 47727" d="M100.6,252.2a3.291,3.291,0,1,1-3.284-3.284A3.291,3.291,0,0,1,100.6,252.2Z" transform="translate(-85.63 -130.102)" fill="#fff" opacity="0.4"/>
          <path id="Path_47728-2" data-name="Path 47728" d="M311.315,280.277h23.391c.5,0,.573-.787.069-.787H311.384C310.88,279.49,310.811,280.277,311.315,280.277Z" transform="translate(-152.884 -139.579)" fill="#0091ff"/>
          <path id="Path_47729-2" data-name="Path 47729" d="M350.673,280.277h2.953c.5,0,.573-.787.069-.787h-2.953C350.231,279.49,350.162,280.277,350.673,280.277Z" transform="translate(-165.083 -139.579)" fill="#0091ff"/>
          <path id="Path_47730-2" data-name="Path 47730" d="M173.19,76.72H149.813c-.5,0-.58.787-.069.787h23.391c.5,0,.573-.787.069-.787Z" transform="translate(-102.796 -76.72)" fill="#0091ff"/>
          <path id="Path_47731-2" data-name="Path 47731" d="M143.007,76.72h-2.953c-.5,0-.573.787-.069.787h2.953C143.449,77.507,143.518,76.72,143.007,76.72Z" transform="translate(-99.772 -76.72)" fill="#0091ff"/>
        </g>
        <g id="freepik--dropdown-menu--inject-7-2" data-name="freepik--dropdown-menu--inject-7" transform="translate(178.434 89.217)">
          <rect id="Rectangle_3980-2" data-name="Rectangle 3980" width="47.424" height="44.056" transform="translate(48.41 31.837)" fill="#0091ff"/>
          <rect id="Rectangle_3981-2" data-name="Rectangle 3981" width="47.424" height="44.056" transform="translate(48.41 31.837)" fill="#fff" opacity="0.9"/>
          <rect id="Rectangle_3982-2" data-name="Rectangle 3982" width="0.966" height="44.056" transform="translate(96.8 75.893) rotate(180)" fill="#0091ff"/>
          <rect id="Rectangle_3983-2" data-name="Rectangle 3983" width="47.451" height="11.413" transform="translate(48.397 64.48)" fill="#0091ff"/>
          <rect id="Rectangle_3984-2" data-name="Rectangle 3984" width="33.072" height="3.07" transform="translate(55.586 35.935)" fill="#263238"/>
          <rect id="Rectangle_3985-2" data-name="Rectangle 3985" width="33.072" height="3.07" transform="translate(55.586 46.885)" fill="#263238"/>
          <rect id="Rectangle_3986-2" data-name="Rectangle 3986" width="33.072" height="3.07" transform="translate(55.586 57.836)" fill="#263238"/>
          <rect id="Rectangle_3987-2" data-name="Rectangle 3987" width="41.89" height="3.892" transform="translate(51.177 68.379)" fill="#fff"/>
          <rect id="Rectangle_3988-2" data-name="Rectangle 3988" width="47.424" height="54.42" transform="translate(0.028)" fill="#0091ff"/>
          <rect id="Rectangle_3989-2" data-name="Rectangle 3989" width="47.424" height="54.42" transform="translate(0.028)" fill="#fff" opacity="0.9"/>
          <rect id="Rectangle_3990-2" data-name="Rectangle 3990" width="0.966" height="54.42" transform="translate(48.41 54.427) rotate(180)" fill="#0091ff"/>
          <rect id="Rectangle_3991-2" data-name="Rectangle 3991" width="44.098" height="6.755" transform="translate(1.69 1.663)" fill="#0091ff"/>
          <rect id="Rectangle_3992-2" data-name="Rectangle 3992" width="47.451" height="11.413" transform="translate(0 31.837)" fill="#0091ff"/>
          <rect id="Rectangle_3993-2" data-name="Rectangle 3993" width="33.072" height="3.07" transform="translate(7.204 14.462)" fill="#263238"/>
          <rect id="Rectangle_3994-2" data-name="Rectangle 3994" width="33.072" height="3.07" transform="translate(7.204 25.413)" fill="#263238"/>
          <rect id="Rectangle_3995-2" data-name="Rectangle 3995" width="41.89" height="3.892" transform="translate(2.794 35.956)" fill="#fff"/>
          <rect id="Rectangle_3996-2" data-name="Rectangle 3996" width="33.072" height="3.07" transform="translate(7.204 47.32)" fill="#263238"/>
        </g>
        <g id="freepik--Character--inject-7-2" data-name="freepik--Character--inject-7" transform="translate(115.238 118.007)">
          <path id="Path_47732-2" data-name="Path 47732" d="M175.366,201.45s-8.08,16.615-4.706,17.981,14.745,2.132,14.745,2.132l4.961,4.747,2.87-1.87-.724-4.83-6.521-1.38-8.708-2.7a1.38,1.38,0,0,1-.828-1.856l4.209-9.232Z" transform="translate(-167.888 -163.407)" fill="#e4897b"/>
          <path id="Path_47733-2" data-name="Path 47733" d="M178.4,192.436a.925.925,0,0,0-1.573-.317c-.842.938-2.07,2.829-3.519,6.638l-1.47,3.926,7.493,5.161,2.822-4.3Z" transform="translate(-168.509 -160.416)" fill="#fff"/>
          <path id="Path_47734-2" data-name="Path 47734" d="M180.17,198.926l.821-1.056,1.608,1.214,2.139,6.341-2.822,4.3-1.435-.987A51.176,51.176,0,0,0,180.17,198.926Z" transform="translate(-171.091 -162.297)" opacity="0.2"/>
          <path id="Path_47735-2" data-name="Path 47735" d="M180.138,211.318l-8.577-6.038-.621,1.856,8.1,5.624Z" transform="translate(-168.23 -164.594)" fill="#0091ff"/>
          <path id="Path_47736-2" data-name="Path 47736" d="M180.138,211.318l-8.577-6.038-.621,1.856,8.1,5.624Z" transform="translate(-168.23 -164.594)" fill="#fff" opacity="0.5"/>
          <path id="Path_47737-2" data-name="Path 47737" d="M179.969,379.96,176.016,393.4,172,393.167l.849-14.587Z" transform="translate(-168.558 -218.317)" fill="#e4897b"/>
          <path id="Path_47738-2" data-name="Path 47738" d="M200.858,235.813s4.878,9.8.186,27.835-23.46,80.847-23.46,80.847l-5.285-.635s-.331-22.542,7.1-40.71c0,0,3.567-30.926,1.829-38.2a29.6,29.6,0,0,1,.145-17.022,53.371,53.371,0,0,1,3.381-9.577c1.38-2.76.973-3.8.973-3.8Z" transform="translate(-168.65 -173.668)" fill="#0091ff"/>
          <path id="Path_47739-2" data-name="Path 47739" d="M200.858,235.813s4.878,9.8.186,27.835-23.46,80.847-23.46,80.847l-5.285-.635s-.331-22.542,7.1-40.71c0,0,3.567-30.926,1.829-38.2a29.6,29.6,0,0,1,.145-17.022,53.371,53.371,0,0,1,3.381-9.577c1.38-2.76.973-3.8.973-3.8Z" transform="translate(-168.65 -173.668)" opacity="0.5"/>
          <path id="Path_47740-2" data-name="Path 47740" d="M202.327,295.148c-6.776-18.837-4.913-32.506-4.913-32.506l4.243-.552,3.312,5.893,2.318,9.66C205.971,282.438,204.246,288.517,202.327,295.148Z" transform="translate(-176.364 -182.205)" opacity="0.4"/>
          <path id="Path_47741-2" data-name="Path 47741" d="M179.119,399.7a.131.131,0,0,1-.09-.117.117.117,0,0,1,.076-.124c.09-.034,2.07-.869,2.912-.518a.648.648,0,0,1,.359.345.469.469,0,0,1-.055.545,2.284,2.284,0,0,1-1.6.214A9.571,9.571,0,0,1,179.119,399.7Zm.428-.124c.966.241,2.3.4,2.588.083.041-.041.083-.11,0-.276a.331.331,0,0,0-.221-.207,1.464,1.464,0,0,0-.235-.062,5.975,5.975,0,0,0-2.132.462Z" transform="translate(-170.737 -224.602)" fill="#0091ff"/>
          <path id="Path_47742-2" data-name="Path 47742" d="M179.04,399.057a.124.124,0,0,1-.041-.117,3.528,3.528,0,0,1,1.069-1.946.959.959,0,0,1,.69-.131c.338.076.428.262.421.407.041.614-1.38,1.6-2.07,1.808h-.048A.1.1,0,0,1,179.04,399.057Zm1.642-1.966a.69.69,0,0,0-.455.1,2.94,2.94,0,0,0-.9,1.539c.69-.311,1.642-1.1,1.656-1.47,0-.035,0-.124-.235-.173Z" transform="translate(-170.728 -223.98)" fill="#0091ff"/>
          <path id="Path_47743-2" data-name="Path 47743" d="M174.939,398.6l-5.768-.69a.469.469,0,0,0-.5.3l-1.608,4.589a.773.773,0,0,0,.469.994.592.592,0,0,0,.159.041c2.07.214,3.947.324,6.541.642,3.057.373,2.236.642,5.824,1.132,2.167.29,2.863-2.125,1.96-2.36-4.14-1.035-4.423-2.36-5.865-4.057A1.863,1.863,0,0,0,174.939,398.6Z" transform="translate(-167.012 -224.308)" fill="#263238"/>
          <path id="Path_47744-2" data-name="Path 47744" d="M178.371,392.058l-7.321-.918.11,2.18,6.458.8Z" transform="translate(-168.264 -222.211)" fill="#263238"/>
          <path id="Path_47745-2" data-name="Path 47745" d="M178.371,392.058l-7.321-.918.11,2.18,6.458.8Z" transform="translate(-168.264 -222.211)" opacity="0.4"/>
          <path id="Path_47746-2" data-name="Path 47746" d="M209.824,381.9,208.1,395.293h-4.057L203,382.148Z" transform="translate(-178.168 -219.346)" fill="#e4897b"/>
          <path id="Path_47747-2" data-name="Path 47747" d="M214.7,234.2a12.647,12.647,0,0,0,.98,3.512c1.649,4.188,3.45,17.36,3.05,24.026-1.028,18.63-12.047,83.311-12.047,83.311h-5.3s-3.65-22.018.69-41.4c0,0,1.525-27.31-.745-34.431-1.587-4.954-6.058-9.75-4.913-20.224s3.926-14.055,3.926-14.055Z" transform="translate(-176.07 -173.559)" fill="#0091ff"/>
          <path id="Path_47748-2" data-name="Path 47748" d="M214.7,234.2a12.647,12.647,0,0,0,.98,3.512c1.649,4.188,3.45,17.36,3.05,24.026-1.028,18.63-12.047,83.311-12.047,83.311h-5.3s-3.65-22.018.69-41.4c0,0,1.525-27.31-.745-34.431-1.587-4.954-6.058-9.75-4.913-20.224s3.926-14.055,3.926-14.055Z" transform="translate(-176.07 -173.559)" opacity="0.5"/>
          <path id="Path_47749-2" data-name="Path 47749" d="M190.58,241.22l1.014-2.07,1.063.145-.614,2.153Z" transform="translate(-174.318 -175.094)" fill="#0091ff"/>
          <path id="Path_47750-2" data-name="Path 47750" d="M212.8,239.54c2.877-.173,5.216-.469,6.714-.69l.745,2.132a72.988,72.988,0,0,1-7.459.807Z" transform="translate(-181.206 -175.001)" fill="#0091ff"/>
          <path id="Path_47751-2" data-name="Path 47751" d="M195.682,239.59a73.444,73.444,0,0,0,9.977.269v2.229c-.966,0-1.973.062-3.022.062a72.319,72.319,0,0,1-7.507-.386Z" transform="translate(-175.729 -175.23)" fill="#0091ff"/>
          <g id="Group_4394-2" data-name="Group 4394" transform="translate(16.262 63.849)" opacity="0.5">
            <path id="Path_47752-2" data-name="Path 47752" d="M190.58,241.22l1.014-2.07,1.063.145-.614,2.153Z" transform="translate(-190.58 -238.943)" fill="#fff"/>
            <path id="Path_47753-2" data-name="Path 47753" d="M212.8,239.54c2.877-.173,5.216-.469,6.714-.69l.745,2.132a72.988,72.988,0,0,1-7.459.807Z" transform="translate(-197.468 -238.85)" fill="#fff"/>
            <path id="Path_47754-2" data-name="Path 47754" d="M195.13,241.764l.552-2.174a73.444,73.444,0,0,0,9.977.269v2.229c-.966,0-1.973.062-3.022.062" transform="translate(-191.991 -239.079)" fill="#fff"/>
          </g>
          <path id="Path_47755-2" data-name="Path 47755" d="M212.952,400.6a.117.117,0,0,1-.1-.1.124.124,0,0,1,.055-.131c.083-.048,1.918-1.145,2.815-.918a.69.69,0,0,1,.4.29.476.476,0,0,1,0,.552,2.277,2.277,0,0,1-1.559.435A9.2,9.2,0,0,1,212.952,400.6Zm.407-.172c.994.1,2.332.069,2.574-.283a.346.346,0,0,0,0-.276.352.352,0,0,0-.255-.173.925.925,0,0,0-.242,0,5.886,5.886,0,0,0-2.091.731Z" transform="translate(-181.221 -224.776)" fill="#0091ff"/>
          <path id="Path_47756-2" data-name="Path 47756" d="M212.854,400.037a.1.1,0,0,1-.055-.11,3.527,3.527,0,0,1,.787-2.07.952.952,0,0,1,.69-.228c.352,0,.462.2.476.345.124.6-1.132,1.773-1.766,2.07a.062.062,0,0,1-.048,0A.138.138,0,0,1,212.854,400.037Zm1.38-2.173a.635.635,0,0,0-.435.166,2.947,2.947,0,0,0-.69,1.642c.649-.4,1.477-1.318,1.435-1.677,0-.035,0-.124-.255-.138Z" transform="translate(-181.206 -224.222)" fill="#0091ff"/>
          <path id="Path_47757-2" data-name="Path 47757" d="M208.914,400.058l-5.817.11a.455.455,0,0,0-.449.373l-.966,4.754a.773.773,0,0,0,.6.918h.166c2.07-.076,3.961-.228,6.569-.269,3.077-.055,2.3.324,5.927.311,2.18,0,2.532-2.5,1.608-2.6-4.243-.455-4.706-1.725-6.369-3.215A1.911,1.911,0,0,0,208.914,400.058Z" transform="translate(-177.755 -224.974)" fill="#263238"/>
          <path id="Path_47758-2" data-name="Path 47758" d="M203.228,158.365c-.124-.421,0-.835.283-.911s.6.2.725.628,0,.835-.283.911S203.346,158.793,203.228,158.365Z" transform="translate(-178.224 -149.764)" fill="#263238"/>
          <path id="Path_47759-2" data-name="Path 47759" d="M203.18,159.72l3.257,2.07a2.912,2.912,0,0,1-2.249,1.318Z" transform="translate(-178.224 -150.471)" fill="#de5753"/>
          <path id="Path_47760-2" data-name="Path 47760" d="M201.6,156.713a.269.269,0,0,0,.173-.173,2.07,2.07,0,0,1,1.27-1.38.255.255,0,0,0,.173-.317.262.262,0,0,0-.317-.186,2.594,2.594,0,0,0-1.622,1.725.255.255,0,0,0,.152.324h0A.207.207,0,0,0,201.6,156.713Z" transform="translate(-177.629 -148.898)" fill="#263238"/>
          <path id="Path_47761-2" data-name="Path 47761" d="M181.83,160.687c2.18,5.154,2.995,7.383,6.61,9.149,5.044,1.318,11.309-1.152,10.7-6.865-.538-5.134-4.009-12.682-9.922-12.986a7.638,7.638,0,0,0-7.39,10.7Z" transform="translate(-171.405 -147.45)" fill="#e4897b"/>
          <path id="Path_47762-2" data-name="Path 47762" d="M199.084,174.122s3.747.759,5.23-2.512c-.5,2.629-2.691,4.3-5.32,4.961l-.9-.635.49-1.332Z" transform="translate(-176.646 -154.156)" opacity="0.2"/>
          <path id="Path_47763-2" data-name="Path 47763" d="M189.65,183.375s3.243-1.587.9-7.769c0,0,2.588-2.567,5.279-1.477s.428,6.783,3.595,7.659C199.427,181.788,197.778,184.072,189.65,183.375Z" transform="translate(-174.03 -154.854)" fill="#e4897b"/>
          <path id="Path_47764-2" data-name="Path 47764" d="M192.372,158.788a17.9,17.9,0,0,1-2.242-2.643c-1.1-1.58,1.463-3.416,1.028-6.341s-3.45-1.145-3.45-1.145-7.314-.828-8.28,6.769a8.97,8.97,0,0,0,9.115,13.69l.483-.11a4.754,4.754,0,0,0,3.284-4.513Z" transform="translate(-170.418 -146.875)" fill="#263238"/>
          <path id="Path_47765-2" data-name="Path 47765" d="M191.4,178.7s-1.918.642-1.173,1.414S191.4,178.7,191.4,178.7Z" transform="translate(-174.154 -156.354)" fill="#263238"/>
          <path id="Path_47766-2" data-name="Path 47766" d="M181.021,159.871c-.117-1.732-.566-3.112-2.3-2.995s-1.835,1.546-1.718,3.277.428,3.119,2.16,2.995S181.131,161.6,181.021,159.871Z" transform="translate(-170.099 -149.587)" fill="#0091ff"/>
          <path id="Path_47767-2" data-name="Path 47767" d="M195.325,163.008a4.271,4.271,0,0,1,2.353,2.311c.58,1.38-.628,2.3-2.07,2.07-1.283-.2-3.119-1.18-3.1-2.67a1.946,1.946,0,0,1,2.815-1.711Z" transform="translate(-174.916 -151.426)" fill="#e4897b"/>
          <path id="Path_47768-2" data-name="Path 47768" d="M170.3,159.869a4.658,4.658,0,0,0,4.968,4.313c2.567-.179,2.719-2.277,2.539-4.83s-.628-4.616-3.188-4.437a4.658,4.658,0,0,0-4.319,4.954Z" transform="translate(-168.027 -148.978)" fill="#263238"/>
          <path id="Path_47769-2" data-name="Path 47769" d="M195.549,147.022c-.483.69-.966,1.69-.442,2.387.3.4.835.538,1.194.89a2.608,2.608,0,0,1,.607,1.511,37.322,37.322,0,0,1,.511,6.01c1.38-2.387,2.857-4.913,2.912-7.68a4.913,4.913,0,0,0-.49-2.394,2.684,2.684,0,0,0-1.911-1.421A5.881,5.881,0,0,0,195.549,147.022Z" transform="translate(-175.651 -146.315)" fill="#263238"/>
          <path id="Path_47770-2" data-name="Path 47770" d="M201.632,184.593s.317-3.947-7.328-2.353-2.512,3.788-2.512,3.788Z" transform="translate(-174.171 -157.334)" fill="#0091ff"/>
          <path id="Path_47771-2" data-name="Path 47771" d="M201.632,184.593s.317-3.947-7.328-2.353-2.512,3.788-2.512,3.788Z" transform="translate(-174.171 -157.334)" fill="#fff" opacity="0.5"/>
          <path id="Path_47772-2" data-name="Path 47772" d="M209.158,220.2c-8.556,1.663-18.368.98-21.963.642-.814-.083.69-9.66-7.949-27.013a3.988,3.988,0,0,1,.89-4.892c5.879-4.865,16.56-4.678,21.459-4.285a5.568,5.568,0,0,1,4.264,2.5,26.861,26.861,0,0,1,3.388,9.384,61.5,61.5,0,0,1,.987,9.543C210.462,213.65,209.544,220.122,209.158,220.2Z" transform="translate(-170.658 -158.143)" fill="#fff"/>
          <path id="Path_47773-2" data-name="Path 47773" d="M221.388,210.972c-2.76-.524-6.638-10.7-6.638-10.7l5.651,1.159a61.5,61.5,0,0,1,.987,9.543Z" transform="translate(-181.811 -163.041)" opacity="0.2"/>
          <path id="Path_47774-2" data-name="Path 47774" d="M220.3,184.466l8.211,5.237a1.276,1.276,0,0,0,1.808-.455l6.665-11.951,2.415-6.21.69-.752,4.14-3.505h1.587l-3.077,2.76.856,1.463,1.38,3.14-5.486,4.83s-3.188,14.331-6.6,17.388c-2.712,2.429-16.36-7.217-16.36-7.217Z" transform="translate(-182.363 -152.675)" fill="#e4897b"/>
          <path id="Path_47775-2" data-name="Path 47775" d="M213.157,185.129c2.132.649,6.824,2.76,14.18,9.7l-5.41,7.245a11.764,11.764,0,0,1-8.107-6.514,21.308,21.308,0,0,1-2.07-9.4,1.09,1.09,0,0,1,1.408-1.028Z" transform="translate(-180.88 -158.333)" fill="#fff"/>
          <path id="Path_47776-2" data-name="Path 47776" d="M230.36,197.07l-6.12,8.839,2.049.428,5.775-7.887Z" transform="translate(-184.753 -162.049)" fill="#0091ff"/>
          <path id="Path_47777-2" data-name="Path 47777" d="M230.36,197.07l-6.12,8.839,2.049.428,5.775-7.887Z" transform="translate(-184.753 -162.049)" fill="#fff" opacity="0.5"/>
          <path id="Path_47778-2" data-name="Path 47778" d="M209.573,393.22H202.19l.407,2.146h6.514Z" transform="translate(-177.917 -222.855)" fill="#263238"/>
          <path id="Path_47779-2" data-name="Path 47779" d="M209.573,393.22H202.19l.407,2.146h6.514Z" transform="translate(-177.917 -222.855)" opacity="0.4"/>
        </g>
      </g>
    </g>
    <rect id="Rectangle_4437" data-name="Rectangle 4437" width="345" height="307" transform="translate(500 3420)" fill="#fff" opacity="0"/>
  </g>
</svg>
