<svg xmlns="http://www.w3.org/2000/svg" width="345" height="307" viewBox="0 0 345 307">
  <g id="Group_4416" data-name="Group 4416" transform="translate(12777 -4003)">
    <rect id="Rectangle_4207" data-name="Rectangle 4207" width="345" height="307" transform="translate(-12777 4003)" fill="#fff" opacity="0"/>
    <g id="User_research-rafiki" data-name="User research-rafiki" transform="translate(-12777 3973.934)">
      <g id="freepik--background-complete--inject-1" transform="translate(0 55)">
        <rect id="Rectangle_4028" data-name="Rectangle 4028" width="345" height="0.172" transform="translate(0 225.906)" fill="#ebebeb"/>
        <rect id="Rectangle_4029" data-name="Rectangle 4029" width="22.853" height="0.172" transform="translate(287.578 237.008)" fill="#ebebeb"/>
        <rect id="Rectangle_4030" data-name="Rectangle 4030" width="5.996" height="0.172" transform="translate(222.546 238.885)" fill="#ebebeb"/>
        <rect id="Rectangle_4031" data-name="Rectangle 4031" width="13.241" height="0.172" transform="translate(273.647 230.605)" fill="#ebebeb"/>
        <rect id="Rectangle_4032" data-name="Rectangle 4032" width="29.801" height="0.172" transform="translate(36.197 231.764)" fill="#ebebeb"/>
        <rect id="Rectangle_4033" data-name="Rectangle 4033" width="4.368" height="0.172" transform="translate(72.146 231.764)" fill="#ebebeb"/>
        <rect id="Rectangle_4034" data-name="Rectangle 4034" width="64.639" height="0.172" transform="translate(90.714 234.676)" fill="#ebebeb"/>
        <path id="Path_48138" data-name="Path 48138" d="M175.375,250.132H42.143a3.94,3.94,0,0,1-3.933-3.94V58.905A3.94,3.94,0,0,1,42.143,55H175.375a3.94,3.94,0,0,1,3.94,3.94V246.192A3.94,3.94,0,0,1,175.375,250.132ZM42.143,55.138a3.767,3.767,0,0,0-3.76,3.767V246.192a3.767,3.767,0,0,0,3.76,3.767H175.375a3.774,3.774,0,0,0,3.767-3.767V58.905a3.774,3.774,0,0,0-3.767-3.767Z" transform="translate(-11.845 -55)" fill="#ebebeb"/>
        <path id="Path_48139" data-name="Path 48139" d="M391.679,250.132H258.44a3.947,3.947,0,0,1-3.94-3.94V58.905A3.947,3.947,0,0,1,258.44,55H391.679a3.94,3.94,0,0,1,3.926,3.905V246.192A3.94,3.94,0,0,1,391.679,250.132ZM258.44,55.138a3.774,3.774,0,0,0-3.767,3.767V246.192a3.774,3.774,0,0,0,3.767,3.767H391.679a3.774,3.774,0,0,0,3.767-3.767V58.905a3.774,3.774,0,0,0-3.767-3.767Z" transform="translate(-78.895 -55)" fill="#ebebeb"/>
        <path id="Path_48140" data-name="Path 48140" d="M387.278,305.907s8.232-11.785,2.553-25.309-2.339-18.678-2.339-18.678l5.52,10.95s5.168-8.087,3.139-17.588,2.643-25.475,2.643-25.475-1.684,18.492,1.27,25.834a54.079,54.079,0,0,0,5.858-14.311c1.539-7.19,6.258-21.39,6.258-21.39l-7.231,44.022,15.87-19.865s-16.153,26.91-18.306,32.161l17.554-8.763s-8.6,13.5-15.408,16.077-14.2,23.626-14.2,23.626Z" transform="translate(-119.82 -106.131)" fill="#e0e0e0"/>
        <path id="Path_48141" data-name="Path 48141" d="M382.7,307.461s-7.148-14.49,1.428-28.511,5.748-20.327,5.748-20.327l-7.935,11.219s-4.382-9.846-.518-20.044,1.38-28.711,1.38-28.711-1.249,20.8-5.762,28.456c0,0-3.588-8.632-4.085-16.871s-3.34-24.792-3.34-24.792l.6,50.066-14.228-24.716s13.386,32.582,14.89,38.771l-18-12.675c1.132-.455,11.33,14.794,14.387,20.431,3.9,7.176,11.771,28.6,11.771,28.6Z" transform="translate(-109.393 -102.393)" fill="#f0f0f0"/>
        <path id="Path_48142" data-name="Path 48142" d="M361.65,343.08H404.3l-3.45,27.379H365.1Z" transform="translate(-112.111 -144.305)" fill="#f5f5f5"/>
        <rect id="Rectangle_4035" data-name="Rectangle 4035" width="123.448" height="85.988" transform="translate(45.388 37.708)" fill="#e6e6e6"/>
        <rect id="Rectangle_4036" data-name="Rectangle 4036" width="117.576" height="79.35" transform="translate(49.321 41.11)" fill="#f0f0f0"/>
        <path id="Path_48143" data-name="Path 48143" d="M112.6,114.58l-21.19,79.35H80.56L101.7,114.58Z" transform="translate(-24.974 -73.47)" fill="#fafafa"/>
        <path id="Path_48144" data-name="Path 48144" d="M128.688,114.58l-21.183,79.35h-4l21.183-79.35Z" transform="translate(-32.088 -73.47)" fill="#fafafa"/>
        <path id="Path_48145" data-name="Path 48145" d="M233.073,138.146,217.465,196.6h-4l19.6-73.416Z" transform="translate(-66.176 -76.136)" fill="#fafafa"/>
        <path id="Path_48146" data-name="Path 48146" d="M211.732,114.58h10.75l-21.017,79.35h-10.9Z" transform="translate(-59.077 -73.47)" fill="#fafafa"/>
        <rect id="Rectangle_4037" data-name="Rectangle 4037" width="2.76" height="85.988" transform="translate(105.729 37.708)" fill="#e6e6e6"/>
        <rect id="Rectangle_4038" data-name="Rectangle 4038" width="101.906" height="57.187" transform="translate(196.015 42.421)" fill="#e0e0e0"/>
        <rect id="Rectangle_4039" data-name="Rectangle 4039" width="97.559" height="53.896" transform="translate(198.189 44.063)" fill="#f5f5f5"/>
        <rect id="Rectangle_4040" data-name="Rectangle 4040" width="0.725" height="42.918" transform="translate(205.04 50.253)" fill="#e0e0e0"/>
        <rect id="Rectangle_4041" data-name="Rectangle 4041" width="83.531" height="0.849" transform="translate(205.199 92.322)" fill="#e0e0e0"/>
        <path id="Path_48147" data-name="Path 48147" d="M302.929,165.541l-.649-.476,12.737-17.381,1.946,2.47,8.273-8.515,5.21,4.133,10.012-14.462,7.763,24.364,4.112-7.5,2.029,1.4,9.881-7.762,1.366,3.195L380.16,134.6l.469.656-15.366,10.992-1.352-3.153-9.522,7.473-1.78-1.228-4.589,8.37-7.832-24.592-9.57,13.821-5.313-4.216-8.4,8.653-1.863-2.36Z" transform="translate(-93.707 -78.656)" fill="#e0e0e0"/>
      </g>
      <g id="freepik--Shadow--inject-1" transform="translate(38.716 296.445)">
        <ellipse id="freepik--path--inject-1" cx="133.784" cy="7.811" rx="133.784" ry="7.811" fill="#f5f5f5"/>
      </g>
      <g id="freepik--Table--inject-1" transform="translate(60.768 192.89)">
        <path id="Path_48148" data-name="Path 48148" d="M162.36,371.476h-4.223l-7.6-105.736h5.61Z" transform="translate(-107.436 -258.219)" fill="#263238"/>
        <path id="Path_48149" data-name="Path 48149" d="M162.367,371.55h-4.23l-7.224-100.485-.373-5.085h5.61l.3,5.085Z" transform="translate(-107.436 -258.293)" fill="#fff" opacity="0.4"/>
        <path id="Path_48150" data-name="Path 48150" d="M156.453,270.81h-5.541l-.373-4.83h5.61Z" transform="translate(-107.436 -258.293)" opacity="0.2"/>
        <path id="Path_48151" data-name="Path 48151" d="M310.423,371.476H306.2l-.69-105.736h5.6Z" transform="translate(-155.476 -258.219)" fill="#263238"/>
        <path id="Path_48152" data-name="Path 48152" d="M311.12,265.98l-.11,17.064-.58,88.506H306.2l-.58-88.506-.11-17.064Z" transform="translate(-155.476 -258.293)" fill="#fff" opacity="0.5"/>
        <path id="Path_48153" data-name="Path 48153" d="M311.12,265.98l-.11,17.25H305.62l-.11-17.25Z" transform="translate(-155.476 -258.293)" opacity="0.2"/>
        <path id="Path_48154" data-name="Path 48154" d="M372.36,371.476h-4.223l-7.6-105.736h5.61Z" transform="translate(-172.536 -258.219)" fill="#263238"/>
        <path id="Path_48155" data-name="Path 48155" d="M372.367,371.55h-4.23l-7.224-100.485-.373-5.085h5.61l.3,5.085Z" transform="translate(-172.536 -258.293)" fill="#fff" opacity="0.5"/>
        <path id="Path_48156" data-name="Path 48156" d="M366.453,270.81h-5.541l-.373-4.83h5.61Z" transform="translate(-172.536 -258.293)" opacity="0.2"/>
        <path id="Path_48157" data-name="Path 48157" d="M95.693,371.476H91.47L97.68,265.74h5.61Z" transform="translate(-89.124 -258.219)" fill="#263238"/>
        <path id="Path_48158" data-name="Path 48158" d="M103.29,265.98l-.373,5.085L95.693,371.55H91.47l5.906-100.485.3-5.085Z" transform="translate(-89.124 -258.293)" fill="#fff" opacity="0.5"/>
        <path id="Path_48159" data-name="Path 48159" d="M100.334,265.98h5.61l-.373,4.83H100.03Z" transform="translate(-91.778 -258.293)" opacity="0.2"/>
        <path id="Path_48160" data-name="Path 48160" d="M94,261.9H287.966v3.8a1.49,1.49,0,0,1-1.49,1.49H95.511A1.49,1.49,0,0,1,94,265.7Z" transform="translate(-89.908 -257.029)" fill="#0091ff"/>
        <path id="Path_48161" data-name="Path 48161" d="M94,261.9H287.966v3.8a1.49,1.49,0,0,1-1.49,1.49H95.511A1.49,1.49,0,0,1,94,265.7Z" transform="translate(-89.908 -257.029)" fill="#fff" opacity="0.6"/>
        <rect id="Rectangle_4042" data-name="Rectangle 4042" width="193.945" height="2.65" transform="translate(4.112 4.871)" opacity="0.2"/>
        <path id="Path_48162" data-name="Path 48162" d="M288.75,261.558H89.56a1.49,1.49,0,0,1-1.49-1.49h0a1.5,1.5,0,0,1,1.49-1.5H288.75a1.5,1.5,0,0,1,1.49,1.5h0A1.49,1.49,0,0,1,288.75,261.558Z" transform="translate(-88.07 -255.996)" fill="#0091ff"/>
        <path id="Path_48163" data-name="Path 48163" d="M288.75,261.558H89.56a1.49,1.49,0,0,1-1.49-1.49h0a1.5,1.5,0,0,1,1.49-1.5H288.75a1.5,1.5,0,0,1,1.49,1.5h0A1.49,1.49,0,0,1,288.75,261.558Z" transform="translate(-88.07 -255.996)" fill="#fff" opacity="0.6"/>
        <path id="Path_48164" data-name="Path 48164" d="M227.61,257.414l.676-2.574h27.986l12.882,1.29.49,1.283Z" transform="translate(-131.327 -254.84)" fill="#263238"/>
        <path id="Path_48165" data-name="Path 48165" d="M256.273,254.84v2.574H227.61l.676-2.574Z" transform="translate(-131.327 -254.84)" opacity="0.4"/>
      </g>
      <g id="freepik--profile-2--inject-1" transform="translate(182.947 72.678)">
        <rect id="Rectangle_4043" data-name="Rectangle 4043" width="73.243" height="52.261" transform="translate(0 0)" fill="#0091ff"/>
        <rect id="Rectangle_4044" data-name="Rectangle 4044" width="73.243" height="52.261" transform="translate(0 0)" fill="#fff" opacity="0.6"/>
        <rect id="Rectangle_4045" data-name="Rectangle 4045" width="44.588" height="2.601" transform="translate(23.577 1.573)" fill="#ebebeb"/>
        <circle id="Ellipse_653" data-name="Ellipse 653" cx="5.272" cy="5.272" r="5.272" transform="translate(7.286 3.402)" fill="#f0f0f0"/>
        <rect id="Rectangle_4046" data-name="Rectangle 4046" width="8.452" height="8.452" transform="translate(7.286 17.409)" fill="#0091ff"/>
        <rect id="Rectangle_4047" data-name="Rectangle 4047" width="8.452" height="8.452" transform="translate(7.286 17.409)" fill="#fff" opacity="0.4"/>
        <rect id="Rectangle_4048" data-name="Rectangle 4048" width="8.452" height="8.452" transform="translate(16.277 17.409)" fill="#0091ff"/>
        <rect id="Rectangle_4049" data-name="Rectangle 4049" width="8.452" height="8.452" transform="translate(16.277 17.409)" fill="#fff" opacity="0.4"/>
        <rect id="Rectangle_4050" data-name="Rectangle 4050" width="9.287" height="17.45" transform="translate(25.268 17.409)" fill="#0091ff"/>
        <rect id="Rectangle_4051" data-name="Rectangle 4051" width="9.287" height="17.45" transform="translate(25.268 17.409)" fill="#fff" opacity="0.4"/>
        <rect id="Rectangle_4052" data-name="Rectangle 4052" width="8.452" height="8.452" transform="translate(7.286 26.399)" fill="#0091ff"/>
        <rect id="Rectangle_4053" data-name="Rectangle 4053" width="8.452" height="8.452" transform="translate(7.286 26.399)" fill="#fff" opacity="0.4"/>
        <rect id="Rectangle_4054" data-name="Rectangle 4054" width="13.289" height="13.289" transform="translate(7.286 38.433)" fill="#0091ff"/>
        <rect id="Rectangle_4055" data-name="Rectangle 4055" width="13.289" height="13.289" transform="translate(7.286 38.433)" fill="#fff" opacity="0.4"/>
        <rect id="Rectangle_4056" data-name="Rectangle 4056" width="6.645" height="6.645" transform="translate(20.893 38.433)" fill="#0091ff"/>
        <rect id="Rectangle_4057" data-name="Rectangle 4057" width="6.645" height="6.645" transform="translate(20.893 38.433)" fill="#fff" opacity="0.4"/>
        <rect id="Rectangle_4058" data-name="Rectangle 4058" width="6.645" height="6.341" transform="translate(20.893 45.381)" fill="#0091ff"/>
        <rect id="Rectangle_4059" data-name="Rectangle 4059" width="6.645" height="6.341" transform="translate(20.893 45.381)" fill="#fff" opacity="0.4"/>
        <rect id="Rectangle_4060" data-name="Rectangle 4060" width="6.645" height="6.645" transform="translate(27.91 38.433)" fill="#0091ff"/>
        <rect id="Rectangle_4061" data-name="Rectangle 4061" width="6.645" height="6.645" transform="translate(27.91 38.433)" fill="#fff" opacity="0.4"/>
        <rect id="Rectangle_4062" data-name="Rectangle 4062" width="6.645" height="6.341" transform="translate(27.91 45.381)" fill="#0091ff"/>
        <rect id="Rectangle_4063" data-name="Rectangle 4063" width="6.645" height="6.341" transform="translate(27.91 45.381)" fill="#fff" opacity="0.4"/>
        <rect id="Rectangle_4064" data-name="Rectangle 4064" width="8.452" height="8.452" transform="translate(16.277 26.399)" fill="#0091ff"/>
        <rect id="Rectangle_4065" data-name="Rectangle 4065" width="8.452" height="8.452" transform="translate(16.277 26.399)" fill="#fff" opacity="0.4"/>
        <rect id="Rectangle_4066" data-name="Rectangle 4066" width="8.452" height="8.452" transform="translate(38.695 17.409)" fill="#0091ff"/>
        <rect id="Rectangle_4067" data-name="Rectangle 4067" width="8.452" height="8.452" transform="translate(38.695 17.409)" fill="#fff" opacity="0.4"/>
        <rect id="Rectangle_4068" data-name="Rectangle 4068" width="8.452" height="8.452" transform="translate(47.686 17.409)" fill="#0091ff"/>
        <rect id="Rectangle_4069" data-name="Rectangle 4069" width="8.452" height="8.452" transform="translate(47.686 17.409)" fill="#fff" opacity="0.4"/>
        <rect id="Rectangle_4070" data-name="Rectangle 4070" width="9.287" height="17.45" transform="translate(56.677 17.409)" fill="#0091ff"/>
        <rect id="Rectangle_4071" data-name="Rectangle 4071" width="9.287" height="17.45" transform="translate(56.677 17.409)" fill="#fff" opacity="0.4"/>
        <rect id="Rectangle_4072" data-name="Rectangle 4072" width="8.452" height="8.452" transform="translate(38.695 26.399)" fill="#0091ff"/>
        <rect id="Rectangle_4073" data-name="Rectangle 4073" width="8.452" height="8.452" transform="translate(38.695 26.399)" fill="#fff" opacity="0.4"/>
        <rect id="Rectangle_4074" data-name="Rectangle 4074" width="13.289" height="13.289" transform="translate(38.695 38.433)" fill="#0091ff"/>
        <rect id="Rectangle_4075" data-name="Rectangle 4075" width="13.289" height="13.289" transform="translate(38.695 38.433)" fill="#fff" opacity="0.4"/>
        <rect id="Rectangle_4076" data-name="Rectangle 4076" width="6.645" height="6.645" transform="translate(52.302 38.433)" fill="#0091ff"/>
        <rect id="Rectangle_4077" data-name="Rectangle 4077" width="6.645" height="6.645" transform="translate(52.302 38.433)" fill="#fff" opacity="0.4"/>
        <rect id="Rectangle_4078" data-name="Rectangle 4078" width="6.645" height="6.341" transform="translate(52.302 45.381)" fill="#0091ff"/>
        <rect id="Rectangle_4079" data-name="Rectangle 4079" width="6.645" height="6.341" transform="translate(52.302 45.381)" fill="#fff" opacity="0.4"/>
        <rect id="Rectangle_4080" data-name="Rectangle 4080" width="6.645" height="6.645" transform="translate(59.319 38.433)" fill="#0091ff"/>
        <rect id="Rectangle_4081" data-name="Rectangle 4081" width="6.645" height="6.645" transform="translate(59.319 38.433)" fill="#fff" opacity="0.4"/>
        <rect id="Rectangle_4082" data-name="Rectangle 4082" width="6.645" height="6.341" transform="translate(59.319 45.381)" fill="#0091ff"/>
        <rect id="Rectangle_4083" data-name="Rectangle 4083" width="6.645" height="6.341" transform="translate(59.319 45.381)" fill="#fff" opacity="0.4"/>
        <rect id="Rectangle_4084" data-name="Rectangle 4084" width="8.452" height="8.452" transform="translate(47.686 26.399)" fill="#0091ff"/>
        <rect id="Rectangle_4085" data-name="Rectangle 4085" width="8.452" height="8.452" transform="translate(47.686 26.399)" fill="#fff" opacity="0.4"/>
        <rect id="Rectangle_4086" data-name="Rectangle 4086" width="6.01" height="1.822" transform="translate(28.545 35.618)" fill="#0091ff"/>
        <rect id="Rectangle_4087" data-name="Rectangle 4087" width="6.01" height="1.822" transform="translate(28.545 35.618)" fill="#fff" opacity="0.3"/>
        <rect id="Rectangle_4088" data-name="Rectangle 4088" width="6.01" height="1.822" transform="translate(59.954 35.618)" fill="#0091ff"/>
        <rect id="Rectangle_4089" data-name="Rectangle 4089" width="6.01" height="1.822" transform="translate(59.954 35.618)" fill="#fff" opacity="0.3"/>
        <rect id="Rectangle_4090" data-name="Rectangle 4090" width="11.813" height="1.697" transform="translate(19.423 9.515)" fill="#e0e0e0"/>
        <rect id="Rectangle_4091" data-name="Rectangle 4091" width="16.684" height="0.649" transform="translate(19.423 12.641)" fill="#e0e0e0"/>
        <rect id="Rectangle_4092" data-name="Rectangle 4092" width="18.161" height="0.649" transform="translate(19.423 13.621)" fill="#e0e0e0"/>
        <rect id="Rectangle_4093" data-name="Rectangle 4093" width="5.03" height="1.822" transform="translate(60.934 6.852)" fill="#0091ff"/>
        <rect id="Rectangle_4094" data-name="Rectangle 4094" width="5.03" height="1.822" transform="translate(60.934 6.852)" fill="#fff" opacity="0.2"/>
        <rect id="Rectangle_4095" data-name="Rectangle 4095" width="6.01" height="1.822" transform="translate(53.854 6.852)" fill="#0091ff"/>
        <rect id="Rectangle_4096" data-name="Rectangle 4096" width="6.01" height="1.822" transform="translate(53.854 6.852)" fill="#fff" opacity="0.5"/>
        <rect id="Rectangle_4097" data-name="Rectangle 4097" width="7.721" height="1.145" transform="translate(7.286 35.618)" fill="#e0e0e0"/>
        <path id="Path_48166" data-name="Path 48166" d="M286.209,90.841a5.265,5.265,0,1,0-9.853,2.574,1.649,1.649,0,0,1,1.021-.6,1.338,1.338,0,0,1,.235,0,11.877,11.877,0,0,1,1.566,0,20.009,20.009,0,0,1,2.256.269,9.844,9.844,0,0,1,1.49.462h0a1.573,1.573,0,0,1,.925,1.007c.069.186.131.38.179.566A5.251,5.251,0,0,0,286.209,90.841Z" transform="translate(-268.407 -82.154)" fill="#f5f5f5"/>
        <path id="Path_48167" data-name="Path 48167" d="M284.153,97.787a1.573,1.573,0,0,0-.925-1.007h0a9.845,9.845,0,0,0-1.49-.462,20.007,20.007,0,0,0-2.256-.269,11.875,11.875,0,0,0-1.566,0h0a1.337,1.337,0,0,0-.235,0,1.649,1.649,0,0,0-1.021.6,5.258,5.258,0,0,0,4.589,2.691,5.3,5.3,0,0,0,3.084-.994C284.284,98.167,284.222,97.973,284.153,97.787Z" transform="translate(-268.711 -85.395)" fill="#0091ff"/>
        <path id="Path_48168" data-name="Path 48168" d="M281.281,92.41c.055.745.034,2.07-.531,2.518a7.044,7.044,0,0,1,1.773,1.477,2.574,2.574,0,0,0,.483-1.207c-.787-.29-.69-.89-.483-1.435Z" transform="translate(-269.979 -84.275)" fill="#ffb573"/>
        <path id="Path_48169" data-name="Path 48169" d="M282.219,93.21l.738.8a1.7,1.7,0,0,0-.117.393,1.014,1.014,0,0,1-.69-.8A1.083,1.083,0,0,1,282.219,93.21Z" transform="translate(-270.413 -84.523)" opacity="0.2"/>
        <path id="Path_48170" data-name="Path 48170" d="M285.036,89.144c.69.407.2,2.07-.152,2.194C284.222,91.573,284.16,88.64,285.036,89.144Z" transform="translate(-271.105 -83.244)" fill="#263238"/>
        <path id="Path_48171" data-name="Path 48171" d="M281.567,90.249c-.062.987-.145,1.566.29,2.125a1.318,1.318,0,0,0,2.277-.4c.317-.862.359-2.332-.559-2.843a1.38,1.38,0,0,0-2.008,1.118Z" transform="translate(-270.217 -83.211)" fill="#ffb573"/>
        <path id="Path_48172" data-name="Path 48172" d="M280.344,88.881c-.1.573.373,2.194.787,2.208s.649-.869.538-1.7c.393-.069,2.815.241,2.512-.787a.987.987,0,0,0-.849-.642,2.25,2.25,0,0,0-1.2-.586c.324.359.317.442.1.393a2.436,2.436,0,0,1-.725-.3.939.939,0,0,0,0,.435c-.124-.055-.207-.262-1.035-.166.324.248.2.393.1.421a1.014,1.014,0,0,1-.738,0A1.083,1.083,0,0,0,280.344,88.881Z" transform="translate(-269.697 -82.712)" fill="#263238"/>
        <path id="Path_48173" data-name="Path 48173" d="M280.727,92.026a.959.959,0,0,0,.538.483c.31.11.483-.166.414-.469s-.3-.69-.614-.642a.428.428,0,0,0-.338.628Z" transform="translate(-269.956 -83.96)" fill="#ffb573"/>
        <path id="Path_48174" data-name="Path 48174" d="M283.7,91.418c0,.076,0,.145.076.152s.1-.048.11-.131,0-.152-.076-.159S283.707,91.335,283.7,91.418Z" transform="translate(-270.894 -83.924)" fill="#263238"/>
        <path id="Path_48175" data-name="Path 48175" d="M285,91.578c0,.076,0,.145.076.152s.1-.048.11-.131,0-.152-.076-.159S285,91.495,285,91.578Z" transform="translate(-271.297 -83.974)" fill="#263238"/>
        <path id="Path_48176" data-name="Path 48176" d="M284.54,91.64a2.891,2.891,0,0,0,.283.731.462.462,0,0,1-.393,0Z" transform="translate(-271.12 -84.036)" fill="#ed893e"/>
        <path id="Path_48177" data-name="Path 48177" d="M283.847,92.86h0a.628.628,0,0,1-.483-.31h-.035a.69.69,0,0,0,.524.338Z" transform="translate(-270.779 -84.318)" fill="#263238"/>
        <path id="Path_48178" data-name="Path 48178" d="M283.339,90.917h.034a.393.393,0,0,1,.324-.124.048.048,0,0,0,.055,0s0-.055-.041-.055a.455.455,0,0,0-.407.145.055.055,0,0,0,0,.069Z" transform="translate(-270.767 -83.755)" fill="#263238"/>
        <path id="Path_48179" data-name="Path 48179" d="M285.486,91.091h0a.048.048,0,0,0,0-.055.5.5,0,0,0-.3-.31.055.055,0,0,0-.062,0,.062.062,0,0,0,.034.062.345.345,0,0,1,.242.242.055.055,0,0,0,.09.062Z" transform="translate(-271.334 -83.75)" fill="#263238"/>
      </g>
      <g id="freepik--profile-3--inject-1" transform="translate(198.686 95.751)">
        <rect id="Rectangle_4098" data-name="Rectangle 4098" width="57.442" height="29.228" transform="translate(0 0)" opacity="0.2"/>
        <rect id="Rectangle_4099" data-name="Rectangle 4099" width="73.036" height="45.857" transform="translate(3.374 2.553)" fill="#0091ff"/>
        <rect id="Rectangle_4100" data-name="Rectangle 4100" width="73.036" height="45.857" transform="translate(3.374 2.553)" fill="#fff" opacity="0.2"/>
        <circle id="Ellipse_654" data-name="Ellipse 654" cx="5.292" cy="5.292" r="5.292" transform="translate(9.807 19.701) rotate(-76.72)" fill="#fafafa"/>
        <path id="Path_48180" data-name="Path 48180" d="M299.18,121.36v32.968h50.177V121.36Z" transform="translate(-291.431 -116.323)" fill="#0091ff"/>
        <rect id="Rectangle_4101" data-name="Rectangle 4101" width="50.184" height="22.232" transform="translate(7.749 15.773)" fill="#fff" opacity="0.6"/>
        <rect id="Rectangle_4102" data-name="Rectangle 4102" width="50.184" height="10.736" transform="translate(7.749 5.113)" fill="#fff" opacity="0.3"/>
        <rect id="Rectangle_4103" data-name="Rectangle 4103" width="50.184" height="9.011" transform="translate(7.749 39.399)" fill="#0091ff"/>
        <rect id="Rectangle_4104" data-name="Rectangle 4104" width="50.184" height="9.011" transform="translate(7.749 39.399)" fill="#fff" opacity="0.7"/>
        <rect id="Rectangle_4105" data-name="Rectangle 4105" width="13.414" height="42.594" transform="translate(60.527 5.037)" fill="#0091ff"/>
        <rect id="Rectangle_4106" data-name="Rectangle 4106" width="13.414" height="42.594" transform="translate(60.527 5.037)" fill="#fff" opacity="0.4"/>
        <rect id="Rectangle_4107" data-name="Rectangle 4107" width="12.413" height="10.771" transform="translate(61.03 5.582)" fill="#0091ff"/>
        <rect id="Rectangle_4108" data-name="Rectangle 4108" width="12.413" height="10.771" transform="translate(61.03 5.582)" fill="#fff" opacity="0.7"/>
        <rect id="Rectangle_4109" data-name="Rectangle 4109" width="7.038" height="0.78" transform="translate(11.199 21.576)" fill="#e0e0e0"/>
        <rect id="Rectangle_4110" data-name="Rectangle 4110" width="10.633" height="0.78" transform="translate(11.199 22.825)" fill="#e0e0e0"/>
        <rect id="Rectangle_4111" data-name="Rectangle 4111" width="9.901" height="0.78" transform="translate(11.199 23.915)" fill="#e0e0e0"/>
        <rect id="Rectangle_4112" data-name="Rectangle 4112" width="36.397" height="0.807" transform="translate(11.199 27.655)" fill="#e0e0e0"/>
        <rect id="Rectangle_4113" data-name="Rectangle 4113" width="39.192" height="0.807" transform="translate(11.199 29.711)" fill="#e0e0e0"/>
        <rect id="Rectangle_4114" data-name="Rectangle 4114" width="38.405" height="0.807" transform="translate(11.199 31.768)" fill="#e0e0e0"/>
        <rect id="Rectangle_4115" data-name="Rectangle 4115" width="37.122" height="0.807" transform="translate(11.199 33.824)" fill="#e0e0e0"/>
        <rect id="Rectangle_4116" data-name="Rectangle 4116" width="6.99" height="1.042" transform="translate(61.382 19.361)" fill="#e0e0e0"/>
        <rect id="Rectangle_4117" data-name="Rectangle 4117" width="6.32" height="0.593" transform="translate(61.382 21.521)" fill="#e0e0e0"/>
        <rect id="Rectangle_4118" data-name="Rectangle 4118" width="6.99" height="1.042" transform="translate(61.382 26.275)" fill="#e0e0e0"/>
        <rect id="Rectangle_4119" data-name="Rectangle 4119" width="6.32" height="0.593" transform="translate(61.382 28.435)" fill="#e0e0e0"/>
        <rect id="Rectangle_4120" data-name="Rectangle 4120" width="6.99" height="1.042" transform="translate(61.382 33.196)" fill="#e0e0e0"/>
        <rect id="Rectangle_4121" data-name="Rectangle 4121" width="6.32" height="0.593" transform="translate(61.382 35.349)" fill="#e0e0e0"/>
        <rect id="Rectangle_4122" data-name="Rectangle 4122" width="6.99" height="1.042" transform="translate(61.382 40.11)" fill="#e0e0e0"/>
        <rect id="Rectangle_4123" data-name="Rectangle 4123" width="6.32" height="0.593" transform="translate(61.382 42.269)" fill="#e0e0e0"/>
        <rect id="Rectangle_4124" data-name="Rectangle 4124" width="37.122" height="0.807" transform="translate(11.199 45.167)" fill="#e0e0e0"/>
        <rect id="Rectangle_4125" data-name="Rectangle 4125" width="39.62" height="0.807" transform="translate(11.199 42.456)" fill="#e0e0e0"/>
        <path id="Path_48181" data-name="Path 48181" d="M306.263,136.9s.276-.055.69-.11a10.348,10.348,0,0,1,1.111-.11,19.858,19.858,0,0,1,2.312,0,8.285,8.285,0,0,1,.98.145l.359.076h.186a3.147,3.147,0,0,1,1.028.628,2.113,2.113,0,0,1,.241.255,5.265,5.265,0,1,0-8.025.324C305.5,137.5,305.891,136.951,306.263,136.9Z" transform="translate(-292.85 -118.777)" fill="#e6e6e6"/>
        <path id="Path_48182" data-name="Path 48182" d="M309.7,143.181a5.265,5.265,0,0,0,4.14-2.022,2.115,2.115,0,0,0-.242-.255,3.146,3.146,0,0,0-1.028-.628h-.186l-.359-.076a8.286,8.286,0,0,0-.98-.145,19.861,19.861,0,0,0-2.312,0,10.356,10.356,0,0,0-1.138.117c-.4.055-.69.11-.69.11-.373.055-.759.607-1.083,1.256a5.279,5.279,0,0,0,3.878,1.642Z" transform="translate(-293.49 -122.108)" fill="#263238"/>
        <path id="Path_48183" data-name="Path 48183" d="M309.9,139.985a19.858,19.858,0,0,1,2.312,0h.131a.414.414,0,0,1,.152.386c-.055.228-.373.3-.649.338a1.382,1.382,0,0,1-.055.3l-.09.262-.152-.228a1.311,1.311,0,0,0-.317-.311c-1.339-.034-1.539-.69-1.553-.69h0Z" transform="translate(-294.686 -122.086)" fill="#fff"/>
        <path id="Path_48184" data-name="Path 48184" d="M310.035,136.23l.614.511.842.69a2.857,2.857,0,0,0-.048.338.842.842,0,0,0,.745,1.028s.793.531-.386.628a1.865,1.865,0,0,1-.062.38,1.463,1.463,0,0,0-.38-.366c-1.3,0-1.47-.628-1.47-.628C310.394,138.328,310.2,136.975,310.035,136.23Z" transform="translate(-294.751 -120.933)" fill="#ce7a63"/>
        <path id="Path_48185" data-name="Path 48185" d="M311.834,137.7a2.849,2.849,0,0,0-.048.338,1.07,1.07,0,0,1-.78-.69,1.379,1.379,0,0,1,0-.324Z" transform="translate(-295.094 -121.178)" opacity="0.2"/>
        <path id="Path_48186" data-name="Path 48186" d="M312.761,132.439c.5.228.78,1.642.145,1.946S311.837,132.011,312.761,132.439Z" transform="translate(-295.477 -119.743)" fill="#263238"/>
        <path id="Path_48187" data-name="Path 48187" d="M309.714,133.943c.214.987.29,1.573.869,2.029a1.318,1.318,0,0,0,2.132-.952c.076-.918-.29-2.38-1.332-2.663a1.332,1.332,0,0,0-1.67,1.587Z" transform="translate(-294.685 -119.715)" fill="#ce7a63"/>
        <path id="Path_48188" data-name="Path 48188" d="M307.943,132.4c-.483.214-.207.876.117,1.29.455.586.938.856,1.263.586a1.442,1.442,0,0,0,.235-1.546c.448-.3,2.132.435,2.636-.793a1.173,1.173,0,0,0-.407-1.421,3.45,3.45,0,0,1-2.125.69C308.591,131.286,307.46,131.838,307.943,132.4Z" transform="translate(-294.067 -119.163)" fill="#263238"/>
        <path id="Path_48189" data-name="Path 48189" d="M309.337,135.873a1.049,1.049,0,0,0,.621.373c.317.055.386-.235.228-.511s-.476-.587-.759-.511S309.13,135.632,309.337,135.873Z" transform="translate(-294.536 -120.617)" fill="#ce7a63"/>
        <path id="Path_48190" data-name="Path 48190" d="M312,134.748a.12.12,0,0,0,.117.131c.055-.007.083-.076.076-.159a.129.129,0,0,0-.124-.131C312.014,134.6,312,134.666,312,134.748Z" transform="translate(-295.405 -120.424)" fill="#263238"/>
        <path id="Path_48191" data-name="Path 48191" d="M313.319,134.588a.124.124,0,0,0,.117.131.125.125,0,0,0,.076-.152c-.014-.076-.062-.145-.117-.138S313.3,134.506,313.319,134.588Z" transform="translate(-295.813 -120.374)" fill="#263238"/>
        <path id="Path_48192" data-name="Path 48192" d="M312.91,134.77a3.121,3.121,0,0,0,.5.649.462.462,0,0,1-.379.117Z" transform="translate(-295.688 -120.48)" fill="#ba4d3c"/>
        <path id="Path_48193" data-name="Path 48193" d="M312.411,136.157a.731.731,0,0,1-.511-.207h0a.69.69,0,0,0,.566.193h0Z" transform="translate(-295.375 -120.846)" fill="#263238"/>
        <path id="Path_48194" data-name="Path 48194" d="M311.5,134.3h0a.055.055,0,0,1,0-.069.462.462,0,0,1,.338-.235.047.047,0,0,1,.048.048.048.048,0,0,1-.041.048.359.359,0,0,0-.283.193.055.055,0,0,1-.062.014Z" transform="translate(-295.248 -120.241)" fill="#263238"/>
        <path id="Path_48195" data-name="Path 48195" d="M313.646,134.006a.034.034,0,0,1-.034,0,.4.4,0,0,0-.3-.179.055.055,0,0,1-.048-.048.048.048,0,0,1,.048-.048h0a.483.483,0,0,1,.379.221v.069Z" transform="translate(-295.796 -120.158)" fill="#263238"/>
      </g>
      <g id="freepik--profile-4--inject-1" transform="translate(221.642 123.407)">
        <rect id="Rectangle_4126" data-name="Rectangle 4126" width="53.454" height="20.652" transform="translate(0 0)" opacity="0.2"/>
        <rect id="Rectangle_4127" data-name="Rectangle 4127" width="56.601" height="35.273" transform="translate(2.981 2.546)" fill="#0091ff"/>
        <rect id="Rectangle_4128" data-name="Rectangle 4128" width="56.601" height="35.273" transform="translate(2.981 2.546)" fill="#fff" opacity="0.4"/>
        <rect id="Rectangle_4129" data-name="Rectangle 4129" width="12.413" height="10.964" transform="translate(5.817 26.586)" fill="#fff" opacity="0.2"/>
        <rect id="Rectangle_4130" data-name="Rectangle 4130" width="51.522" height="2.67" transform="translate(5.354 3.36)" fill="#0091ff"/>
        <rect id="Rectangle_4131" data-name="Rectangle 4131" width="51.522" height="2.67" transform="translate(5.354 3.36)" fill="#fff" opacity="0"/>
        <rect id="Rectangle_4132" data-name="Rectangle 4132" width="51.522" height="17.25" transform="translate(5.354 7.535)" fill="#0091ff"/>
        <rect id="Rectangle_4133" data-name="Rectangle 4133" width="51.522" height="17.25" transform="translate(5.354 7.535)" fill="#fff" opacity="0.7"/>
        <circle id="Ellipse_655" data-name="Ellipse 655" cx="5.278" cy="5.278" r="5.278" transform="translate(5.783 24.698) rotate(-76.72)" fill="#f0f0f0"/>
        <rect id="Rectangle_4134" data-name="Rectangle 4134" width="37.943" height="10.964" transform="translate(18.934 26.586)" fill="#0091ff"/>
        <rect id="Rectangle_4135" data-name="Rectangle 4135" width="37.943" height="10.964" transform="translate(18.934 26.586)" fill="#fff" opacity="0.8"/>
        <rect id="Rectangle_4136" data-name="Rectangle 4136" width="36.473" height="1.621" transform="translate(19.665 11.24)" fill="#e0e0e0"/>
        <rect id="Rectangle_4137" data-name="Rectangle 4137" width="36.473" height="1.621" transform="translate(19.665 15.352)" fill="#e0e0e0"/>
        <rect id="Rectangle_4138" data-name="Rectangle 4138" width="36.473" height="1.621" transform="translate(19.665 19.837)" fill="#e0e0e0"/>
        <rect id="Rectangle_4139" data-name="Rectangle 4139" width="11.061" height="0.814" transform="translate(44.112 4.292)" fill="#e0e0e0"/>
        <rect id="Rectangle_4140" data-name="Rectangle 4140" width="6.327" height="0.814" transform="translate(6.5 4.409)" fill="#e0e0e0"/>
        <rect id="Rectangle_4141" data-name="Rectangle 4141" width="11.061" height="0.814" transform="translate(6.362 28.87)" fill="#e0e0e0"/>
        <rect id="Rectangle_4142" data-name="Rectangle 4142" width="11.061" height="0.814" transform="translate(6.362 30.284)" fill="#e0e0e0"/>
        <rect id="Rectangle_4143" data-name="Rectangle 4143" width="11.061" height="0.814" transform="translate(6.362 31.692)" fill="#e0e0e0"/>
        <rect id="Rectangle_4144" data-name="Rectangle 4144" width="11.061" height="0.814" transform="translate(6.362 33.106)" fill="#e0e0e0"/>
        <rect id="Rectangle_4145" data-name="Rectangle 4145" width="11.061" height="0.814" transform="translate(6.362 34.514)" fill="#e0e0e0"/>
        <rect id="Rectangle_4146" data-name="Rectangle 4146" width="36.473" height="1.621" transform="translate(19.665 31.754)" fill="#e0e0e0"/>
        <rect id="Rectangle_4147" data-name="Rectangle 4147" width="36.473" height="1.621" transform="translate(19.665 34.224)" fill="#e0e0e0"/>
        <path id="Path_48196" data-name="Path 48196" d="M341.719,181.985a5.265,5.265,0,1,0-7.528,4.754c-.076-.242-.159-.49-.248-.759l-.269-.807a13.642,13.642,0,0,1,1.815-.442,15.568,15.568,0,0,1,1.966-.207c.849,0,1.828.09,1.828.09s.138.035.228.938c0,.179.034.407.048.69A5.251,5.251,0,0,0,341.719,181.985Z" transform="translate(-324.31 -161.14)" fill="#f5f5f5"/>
        <path id="Path_48197" data-name="Path 48197" d="M339.485,181.016a1.449,1.449,0,0,1,.614,1.242,15.74,15.74,0,0,0-.09,2.146,3.36,3.36,0,0,1-.283,1.456,4.934,4.934,0,0,0-.152-.8s0,.214-.3.3-2.615.138-3.139-.3.573-3.933,1.173-4.14A6.72,6.72,0,0,1,339.485,181.016Z" transform="translate(-325.802 -162.427)" fill="#263238"/>
        <path id="Path_48198" data-name="Path 48198" d="M340.4,188.12s-.98-.09-1.828-.09a15.576,15.576,0,0,0-1.967.207,13.637,13.637,0,0,0-1.815.442l.269.807c.09.269.173.518.248.759a5.265,5.265,0,0,0,5.368-.5c0-.276-.035-.5-.048-.69C340.538,188.154,340.4,188.12,340.4,188.12Z" transform="translate(-325.427 -164.646)" fill="#0091ff"/>
        <path id="Path_48199" data-name="Path 48199" d="M340.4,188.12s-.98-.09-1.828-.09a15.576,15.576,0,0,0-1.967.207,13.637,13.637,0,0,0-1.815.442l.269.807c.09.269.173.518.248.759a5.265,5.265,0,0,0,5.368-.5c0-.276-.035-.5-.048-.69C340.538,188.154,340.4,188.12,340.4,188.12Z" transform="translate(-325.427 -164.646)" fill="#fff" opacity="0.3"/>
        <path id="Path_48200" data-name="Path 48200" d="M336.71,180.892c.4-.814,2.532-.821,2.946-.041.538.994,1.615,1.994,1.29,3.381a1.1,1.1,0,0,0-.166-.4,1.38,1.38,0,0,1-1.007,1.518,6.466,6.466,0,0,1-3.395-.207.98.98,0,0,1-.117-.538.635.635,0,0,0-.062.469,1.5,1.5,0,0,1-.545-1.842C336.062,182.079,335.9,180.713,336.71,180.892Z" transform="translate(-325.656 -162.241)" fill="#263238"/>
        <path id="Path_48201" data-name="Path 48201" d="M339.12,188.377a2.015,2.015,0,0,1-1.38-.6c.69-.649.117-1.766.117-1.766l1.3.242a3.453,3.453,0,0,0-.048.545c0,.793.345.8.345.8C339.658,188.025,339.12,188.377,339.12,188.377Z" transform="translate(-326.341 -164.02)" fill="#ffb573"/>
        <path id="Path_48202" data-name="Path 48202" d="M339.177,186.251a3.457,3.457,0,0,0-.048.545,1.449,1.449,0,0,1-1.249-.787Z" transform="translate(-326.385 -164.02)" opacity="0.2"/>
        <path id="Path_48203" data-name="Path 48203" d="M336.26,188.506a4.678,4.678,0,0,0,2.449,1.014c1.18,0,1.594-1.38,1.594-1.38A6.762,6.762,0,0,0,336.26,188.506Z" transform="translate(-325.882 -164.632)" fill="#ffb573"/>
        <path id="Path_48204" data-name="Path 48204" d="M339.085,181.393c1.07.179,1.311.807,1.2,1.918-.138,1.38-.607,2.312-1.884,1.794C336.663,184.394,337.319,181.117,339.085,181.393Z" transform="translate(-326.23 -162.583)" fill="#ffb573"/>
        <path id="Path_48205" data-name="Path 48205" d="M340.579,183.93a2.362,2.362,0,0,0,.235.49.3.3,0,0,1-.3.076Z" transform="translate(-327.2 -163.375)" fill="#de5753"/>
        <path id="Path_48206" data-name="Path 48206" d="M339.591,183.562a.135.135,0,0,1-.131.145.152.152,0,0,1-.083-.179c0-.083.069-.152.131-.138S339.605,183.472,339.591,183.562Z" transform="translate(-326.847 -163.207)" fill="#263238"/>
        <path id="Path_48207" data-name="Path 48207" d="M339.53,183.368l.2-.048S339.613,183.465,339.53,183.368Z" transform="translate(-326.896 -163.186)" fill="#263238"/>
        <path id="Path_48208" data-name="Path 48208" d="M341.176,183.762a.134.134,0,0,1-.124.145c-.055-.007-.1-.083-.083-.173s.069-.152.124-.145S341.19,183.679,341.176,183.762Z" transform="translate(-327.341 -163.269)" fill="#263238"/>
        <path id="Path_48209" data-name="Path 48209" d="M341.12,183.568l.2-.048S341.2,183.672,341.12,183.568Z" transform="translate(-327.389 -163.248)" fill="#263238"/>
        <path id="Path_48210" data-name="Path 48210" d="M339.144,182.679a.041.041,0,0,1,0-.062.586.586,0,0,1,.531-.09.048.048,0,0,1,.034.055.041.041,0,0,1-.062,0,.524.524,0,0,0-.442.076Z" transform="translate(-326.772 -162.931)" fill="#263238"/>
        <path id="Path_48211" data-name="Path 48211" d="M341.37,182.89h-.035a.462.462,0,0,0-.366-.152.048.048,0,1,1,0-.09.552.552,0,0,1,.455.172.048.048,0,0,1,0,.062S341.384,182.89,341.37,182.89Z" transform="translate(-327.322 -162.977)" fill="#263238"/>
        <path id="Path_48212" data-name="Path 48212" d="M337.586,182.781a3.229,3.229,0,0,0,.69-1.477s2.256-.5,1.994,1.656a1.7,1.7,0,0,0-1.29-2.222c-1.822-.359-2.07,3.14-1.235,4.1C337.779,184.837,337.185,183.278,337.586,182.781Z" transform="translate(-326.201 -162.378)" fill="#263238"/>
        <path id="Path_48213" data-name="Path 48213" d="M337.577,183.851a.469.469,0,0,0-.428-.511c-.338,0-.614.628.179.932C337.446,184.313,337.529,184.209,337.577,183.851Z" transform="translate(-326.054 -163.192)" fill="#ffb573"/>
        <path id="Path_48214" data-name="Path 48214" d="M338.39,180.923a3.18,3.18,0,0,0,.966.69,10.042,10.042,0,0,0,1.456.393,2.577,2.577,0,0,0,.317,2.291,16.048,16.048,0,0,1,.076-2.663c-.069-.449-.511-.731-1.021-1.076a2.256,2.256,0,0,0-1.27-.29Z" transform="translate(-326.543 -162.238)" fill="#263238"/>
        <path id="Path_48215" data-name="Path 48215" d="M337.581,181.56v1.256a1.435,1.435,0,0,0,.131,1.145,6.717,6.717,0,0,1,.1-1.456l.421-.828Z" transform="translate(-326.272 -162.64)" fill="#263238"/>
        <path id="Path_48216" data-name="Path 48216" d="M334.527,189a2.014,2.014,0,0,0-.587.856,5.52,5.52,0,0,0,1.1.69Z" transform="translate(-325.163 -164.947)" fill="#0091ff"/>
        <path id="Path_48217" data-name="Path 48217" d="M334.527,189a2.014,2.014,0,0,0-.587.856,5.52,5.52,0,0,0,1.1.69Z" transform="translate(-325.163 -164.947)" fill="#fff" opacity="0.3"/>
        <path id="Path_48218" data-name="Path 48218" d="M342.92,188.16l.276,1.622a5.451,5.451,0,0,0,1.007-.966A2.981,2.981,0,0,0,342.92,188.16Z" transform="translate(-327.947 -164.686)" fill="#0091ff"/>
        <path id="Path_48219" data-name="Path 48219" d="M342.92,188.16l.276,1.622a5.451,5.451,0,0,0,1.007-.966A2.981,2.981,0,0,0,342.92,188.16Z" transform="translate(-327.947 -164.686)" fill="#fff" opacity="0.3"/>
        <path id="Path_48220" data-name="Path 48220" d="M340.282,185.385h.124a.814.814,0,0,1-.649-.255h-.034A.848.848,0,0,0,340.282,185.385Z" transform="translate(-326.951 -163.747)" fill="#263238"/>
      </g>
      <g id="freepik--profile-1--inject-1" transform="translate(71.532 72.098)">
        <rect id="Rectangle_4148" data-name="Rectangle 4148" width="102.196" height="66.958" transform="translate(0 0)" fill="#0091ff"/>
        <rect id="Rectangle_4149" data-name="Rectangle 4149" width="102.196" height="66.958" transform="translate(0 0)" fill="#fff" opacity="0.2"/>
        <rect id="Rectangle_4150" data-name="Rectangle 4150" width="24.226" height="52.198" transform="translate(2.201 9.474)" fill="#0091ff"/>
        <rect id="Rectangle_4151" data-name="Rectangle 4151" width="24.226" height="52.198" transform="translate(2.201 9.474)" fill="#fff" opacity="0.4"/>
        <rect id="Rectangle_4152" data-name="Rectangle 4152" width="97.787" height="5.065" transform="translate(2.201 1.546)" fill="#0091ff"/>
        <rect id="Rectangle_4153" data-name="Rectangle 4153" width="97.787" height="5.065" transform="translate(2.201 1.546)" fill="#fff" opacity="0.7"/>
        <rect id="Rectangle_4154" data-name="Rectangle 4154" width="73.561" height="22.025" transform="translate(26.427 9.474)" fill="#0091ff"/>
        <rect id="Rectangle_4155" data-name="Rectangle 4155" width="73.561" height="22.025" transform="translate(26.427 9.474)" fill="#fff" opacity="0.8"/>
        <rect id="Rectangle_4156" data-name="Rectangle 4156" width="72.022" height="5.396" transform="translate(27.966 34.362)" fill="#0091ff"/>
        <rect id="Rectangle_4157" data-name="Rectangle 4157" width="72.022" height="5.396" transform="translate(27.966 34.362)" fill="#fff" opacity="0.5"/>
        <rect id="Rectangle_4158" data-name="Rectangle 4158" width="72.022" height="18.941" transform="translate(27.966 42.732)" fill="#0091ff"/>
        <rect id="Rectangle_4159" data-name="Rectangle 4159" width="72.022" height="18.941" transform="translate(27.966 42.732)" fill="#fff" opacity="0.6"/>
        <rect id="Rectangle_4160" data-name="Rectangle 4160" width="20.997" height="1.539" transform="translate(3.816 38.985)" fill="#e0e0e0"/>
        <rect id="Rectangle_4161" data-name="Rectangle 4161" width="20.997" height="1.539" transform="translate(3.816 42.732)" fill="#e0e0e0"/>
        <rect id="Rectangle_4162" data-name="Rectangle 4162" width="20.997" height="1.539" transform="translate(60.899 15.732)" fill="#e0e0e0"/>
        <rect id="Rectangle_4163" data-name="Rectangle 4163" width="20.997" height="1.539" transform="translate(60.899 18.809)" fill="#e0e0e0"/>
        <rect id="Rectangle_4164" data-name="Rectangle 4164" width="20.997" height="1.539" transform="translate(60.899 21.176)" fill="#e0e0e0"/>
        <rect id="Rectangle_4165" data-name="Rectangle 4165" width="20.997" height="1.539" transform="translate(3.816 46.472)" fill="#e0e0e0"/>
        <rect id="Rectangle_4166" data-name="Rectangle 4166" width="20.997" height="1.539" transform="translate(3.816 50.218)" fill="#e0e0e0"/>
        <rect id="Rectangle_4167" data-name="Rectangle 4167" width="69.235" height="1.594" transform="translate(29.366 36.259)" fill="#e0e0e0"/>
        <rect id="Rectangle_4168" data-name="Rectangle 4168" width="47.796" height="1.594" transform="translate(40.082 48.017)" fill="#e0e0e0"/>
        <rect id="Rectangle_4169" data-name="Rectangle 4169" width="47.796" height="1.594" transform="translate(40.082 51.405)" fill="#e0e0e0"/>
        <rect id="Rectangle_4170" data-name="Rectangle 4170" width="47.796" height="1.594" transform="translate(40.082 54.793)" fill="#e0e0e0"/>
        <rect id="Rectangle_4171" data-name="Rectangle 4171" width="83.4" height="2.208" transform="translate(9.391 2.974)" fill="#e0e0e0"/>
        <circle id="Ellipse_656" data-name="Ellipse 656" cx="10.019" cy="10.019" r="10.019" transform="translate(4.292 11.461)" fill="#fafafa"/>
        <line id="Line_331" data-name="Line 331" x1="0.386" y2="7.314" transform="translate(125.097 66.268)"/>
      </g>
      <g id="freepik--device-1--inject-1" transform="translate(67.02 145.687)">
        <path id="Path_48221" data-name="Path 48221" d="M132.531,232.13h5.444l-1.456,15.58L148.726,249v1.083H122.34V249l8.377-1.29Z" transform="translate(-104.945 -200.597)" fill="#263238"/>
        <path id="Path_48222" data-name="Path 48222" d="M132.531,232.13h5.444l-1.456,15.58L148.726,249v1.083H122.34V249l8.377-1.29Z" transform="translate(-104.945 -200.597)" fill="#fff" opacity="0.1"/>
        <path id="Path_48223" data-name="Path 48223" d="M103.25,224.828h50.888a2.76,2.76,0,0,0,2.76-3.036l-2.829-32.326a3.381,3.381,0,0,0-3.305-3.036H99.9a2.76,2.76,0,0,0-2.76,3.036l2.829,32.326a3.374,3.374,0,0,0,3.277,3.036Z" transform="translate(-97.13 -186.43)" fill="#263238"/>
        <path id="Path_48224" data-name="Path 48224" d="M107.4,223.664h45.23a2.436,2.436,0,0,0,2.463-2.7l-2.512-28.738a3,3,0,0,0-2.932-2.7H104.41a2.429,2.429,0,0,0-2.456,2.7l2.512,28.738a3,3,0,0,0,2.932,2.7Z" transform="translate(-98.621 -187.391)" fill="#0091ff"/>
        <path id="Path_48225" data-name="Path 48225" d="M107.4,223.664h45.23a2.436,2.436,0,0,0,2.463-2.7l-2.512-28.738a3,3,0,0,0-2.932-2.7H104.41a2.429,2.429,0,0,0-2.456,2.7l2.512,28.738a3,3,0,0,0,2.932,2.7Z" transform="translate(-98.621 -187.391)" fill="#fff" opacity="0.7"/>
        <path id="Path_48226" data-name="Path 48226" d="M155.169,194.333H135.214l-.014-.373h19.955Z" transform="translate(-108.932 -188.764)" fill="#fff"/>
        <path id="Path_48227" data-name="Path 48227" d="M158.414,195.983H144.7l-.014-.373H158.4Z" transform="translate(-111.874 -189.276)" fill="#fff"/>
        <path id="Path_48228" data-name="Path 48228" d="M159.61,197.633H148.384l-.014-.373h11.219Z" transform="translate(-113.014 -189.787)" fill="#fff"/>
        <path id="Path_48229" data-name="Path 48229" d="M158.357,199.283H143.784l-.014-.373h14.566Z" transform="translate(-111.588 -190.299)" fill="#fff"/>
        <path id="Path_48230" data-name="Path 48230" d="M160.741,200.943h-9.667l-.014-.373h9.66Z" transform="translate(-113.848 -190.813)" fill="#fff"/>
        <path id="Path_48231" data-name="Path 48231" d="M156.729,205.973H136.774l-.014-.373h19.948Z" transform="translate(-109.415 -192.373)" fill="#fff"/>
        <path id="Path_48232" data-name="Path 48232" d="M157.947,207.626H140.2l-.021-.366h17.754Z" transform="translate(-110.475 -192.887)" fill="#fff"/>
        <path id="Path_48233" data-name="Path 48233" d="M161.163,209.283H149.944l-.014-.373h11.219Z" transform="translate(-113.498 -193.399)" fill="#fff"/>
        <path id="Path_48234" data-name="Path 48234" d="M159.82,210.933H145.254l-.014-.373h14.566Z" transform="translate(-112.044 -193.91)" fill="#fff"/>
        <path id="Path_48235" data-name="Path 48235" d="M158.786,212.583h-17.4l-.014-.373h17.4Z" transform="translate(-110.844 -194.422)" fill="#fff"/>
        <path id="Path_48236" data-name="Path 48236" d="M157.319,215.183H137.371l-.021-.373H157.3Z" transform="translate(-109.598 -195.228)" fill="#fff"/>
        <path id="Path_48237" data-name="Path 48237" d="M160.571,216.836H146.854l-.014-.366h13.71Z" transform="translate(-112.54 -195.742)" fill="#fff"/>
        <path id="Path_48238" data-name="Path 48238" d="M161.76,218.493H150.541l-.021-.373h11.219Z" transform="translate(-113.681 -196.254)" fill="#fff"/>
        <path id="Path_48239" data-name="Path 48239" d="M160.507,220.143H145.934l-.014-.373h14.566Z" transform="translate(-112.255 -196.765)" fill="#fff"/>
        <path id="Path_48240" data-name="Path 48240" d="M162.891,221.793h-9.667l-.014-.373h9.66Z" transform="translate(-114.515 -197.277)" fill="#fff"/>
        <path id="Path_48241" data-name="Path 48241" d="M158.879,226.833H138.931l-.021-.373h19.955Z" transform="translate(-110.082 -198.839)" fill="#fff"/>
        <path id="Path_48242" data-name="Path 48242" d="M160.1,228.483H142.351l-.021-.373h17.754Z" transform="translate(-111.142 -199.351)" fill="#fff"/>
        <path id="Path_48243" data-name="Path 48243" d="M163.32,230.133H152.094l-.014-.373H163.3Z" transform="translate(-114.164 -199.862)" fill="#fff"/>
        <path id="Path_48244" data-name="Path 48244" d="M161.977,231.783H147.4l-.014-.373h14.566Z" transform="translate(-112.711 -200.374)" fill="#fff"/>
        <path id="Path_48245" data-name="Path 48245" d="M160.936,233.433h-17.4l-.014-.373h17.4Z" transform="translate(-111.511 -200.885)" fill="#fff"/>
        <path id="Path_48246" data-name="Path 48246" d="M122.048,199.768h-6.831a1.677,1.677,0,0,1-1.663-1.518l-.3-3.326a1.67,1.67,0,0,1,1.663-1.815h6.831a1.67,1.67,0,0,1,1.663,1.518l.3,3.319a1.67,1.67,0,0,1-1.663,1.822Z" transform="translate(-102.127 -188.501)" fill="#0091ff"/>
        <path id="Path_48247" data-name="Path 48247" d="M122.048,199.768h-6.831a1.677,1.677,0,0,1-1.663-1.518l-.3-3.326a1.67,1.67,0,0,1,1.663-1.815h6.831a1.67,1.67,0,0,1,1.663,1.518l.3,3.319a1.67,1.67,0,0,1-1.663,1.822Z" transform="translate(-102.127 -188.501)" fill="#0091ff"/>
        <path id="Path_48248" data-name="Path 48248" d="M121.895,200h-6.086a1.67,1.67,0,0,1-1.663-1.525l-.159-1.739a1.67,1.67,0,0,1,1.663-1.815h6.086a1.67,1.67,0,0,1,1.663,1.518l.152,1.739A1.663,1.663,0,0,1,121.895,200Z" transform="translate(-102.354 -189.062)" fill="#263238"/>
        <path id="Path_48249" data-name="Path 48249" d="M123.1,196.158h-4.457l-.007-.138h4.45Z" transform="translate(-103.798 -189.403)" fill="#fff"/>
        <path id="Path_48250" data-name="Path 48250" d="M120.843,196.778H118.7l-.014-.138h2.139Z" transform="translate(-103.814 -189.595)" fill="#fff"/>
        <path id="Path_48251" data-name="Path 48251" d="M121.455,197.395h-2.691l-.014-.145h2.691Z" transform="translate(-103.832 -189.784)" fill="#fff"/>
        <path id="Path_48252" data-name="Path 48252" d="M119.766,198.015h-.952l-.014-.145h.952Z" transform="translate(-103.848 -189.976)" fill="#fff"/>
        <path id="Path_48253" data-name="Path 48253" d="M119.488,198.635h-.614l-.014-.145h.614Z" transform="translate(-103.866 -190.169)" fill="#fff"/>
        <path id="Path_48254" data-name="Path 48254" d="M123.524,199.215h-4.457l-.007-.145h4.457Z" transform="translate(-103.928 -190.348)" fill="#fff"/>
        <path id="Path_48255" data-name="Path 48255" d="M121.263,199.835h-2.139l-.014-.145h2.139Z" transform="translate(-103.944 -190.541)" fill="#fff"/>
        <path id="Path_48256" data-name="Path 48256" d="M121.875,200.448h-2.691l-.014-.138h2.691Z" transform="translate(-103.962 -190.733)" fill="#fff"/>
        <path id="Path_48257" data-name="Path 48257" d="M120.186,201.068h-.952l-.014-.138h.952Z" transform="translate(-103.978 -190.925)" fill="#fff"/>
        <path id="Path_48258" data-name="Path 48258" d="M119.908,201.688h-.614l-.014-.138h.614Z" transform="translate(-103.996 -191.117)" fill="#fff"/>
        <path id="Path_48259" data-name="Path 48259" d="M116.891,199.629h-1.38a.587.587,0,0,1-.587-.517l-.276-2.443a.587.587,0,0,1,.586-.649h1.38a.586.586,0,0,1,.586.517l.276,2.443a.587.587,0,0,1-.587.649Z" transform="translate(-102.56 -189.403)" fill="#fff"/>
        <path id="Path_48260" data-name="Path 48260" d="M115.347,199.673h2.16l-.1-.773a1.276,1.276,0,0,0-.835-.331.807.807,0,0,0,.524-.773c-.055-.566-.248-1.076-.821-1.076s-.69.545-.69,1.076a.966.966,0,0,0,.49.787.862.862,0,0,0-.821.3Z" transform="translate(-102.747 -189.62)" fill="#263238"/>
        <path id="Path_48261" data-name="Path 48261" d="M123.226,210.168h-7.217a1.477,1.477,0,0,1-1.47-1.346l-.331-3.712a1.47,1.47,0,0,1,1.463-1.6h7.224a1.477,1.477,0,0,1,1.47,1.339l.331,3.712a1.477,1.477,0,0,1-1.47,1.608Z" transform="translate(-102.422 -191.725)" fill="#0091ff"/>
        <path id="Path_48262" data-name="Path 48262" d="M123.226,210.168h-7.217a1.477,1.477,0,0,1-1.47-1.346l-.331-3.712a1.47,1.47,0,0,1,1.463-1.6h7.224a1.477,1.477,0,0,1,1.47,1.339l.331,3.712a1.477,1.477,0,0,1-1.47,1.608Z" transform="translate(-102.422 -191.725)" fill="#0091ff"/>
        <path id="Path_48263" data-name="Path 48263" d="M123.042,210.391h-6.479a1.47,1.47,0,0,1-1.463-1.339l-.193-2.132a1.47,1.47,0,0,1,1.47-1.6h6.472a1.47,1.47,0,0,1,1.47,1.339l.193,2.132a1.477,1.477,0,0,1-1.47,1.6Z" transform="translate(-102.639 -192.286)" fill="#263238"/>
        <path id="Path_48264" data-name="Path 48264" d="M124.051,206.555h-4.457l-.014-.145h4.457Z" transform="translate(-104.089 -192.624)" fill="#fff"/>
        <path id="Path_48265" data-name="Path 48265" d="M121.783,207.175h-2.139l-.014-.145h2.139Z" transform="translate(-104.105 -192.816)" fill="#fff"/>
        <path id="Path_48266" data-name="Path 48266" d="M122.395,207.795H119.7l-.014-.145h2.691Z" transform="translate(-104.124 -193.008)" fill="#fff"/>
        <path id="Path_48267" data-name="Path 48267" d="M120.709,208.408h-.952l-.007-.138h.945Z" transform="translate(-104.142 -193.2)" fill="#fff"/>
        <path id="Path_48268" data-name="Path 48268" d="M120.428,209.028h-.614l-.014-.138h.614Z" transform="translate(-104.158 -193.393)" fill="#fff"/>
        <path id="Path_48269" data-name="Path 48269" d="M124.471,209.615h-4.457L120,209.47h4.457Z" transform="translate(-104.22 -193.572)" fill="#fff"/>
        <path id="Path_48270" data-name="Path 48270" d="M122.206,210.228h-2.139l-.007-.138h2.132Z" transform="translate(-104.238 -193.765)" fill="#fff"/>
        <path id="Path_48271" data-name="Path 48271" d="M122.815,210.848h-2.691l-.014-.138H122.8Z" transform="translate(-104.254 -193.957)" fill="#fff"/>
        <path id="Path_48272" data-name="Path 48272" d="M121.129,211.468h-.952l-.007-.138h.945Z" transform="translate(-104.272 -194.149)" fill="#fff"/>
        <path id="Path_48273" data-name="Path 48273" d="M120.848,212.088h-.614l-.014-.138h.614Z" transform="translate(-104.288 -194.341)" fill="#fff"/>
        <path id="Path_48274" data-name="Path 48274" d="M117.606,210.029h-.876a.821.821,0,0,1-.821-.731l-.221-1.967a.814.814,0,0,1,.814-.911h.876a.821.821,0,0,1,.821.725l.221,1.973a.821.821,0,0,1-.814.911Z" transform="translate(-102.881 -192.627)" fill="#fff"/>
        <path id="Path_48275" data-name="Path 48275" d="M116.287,210.093h2.16l-.1-.773a1.277,1.277,0,0,0-.828-.331.793.793,0,0,0,.518-.773c-.048-.566-.248-1.076-.821-1.076s-.69.545-.69,1.076a.966.966,0,0,0,.49.787c-.345-.1-.587.1-.821.3Z" transform="translate(-103.039 -192.85)" fill="#263238"/>
        <path id="Path_48276" data-name="Path 48276" d="M124.172,220.8h-7.2a1.49,1.49,0,0,1-1.477-1.38l-.331-3.685a1.477,1.477,0,0,1,1.477-1.615h7.2a1.483,1.483,0,0,1,1.484,1.38l.324,3.685a1.483,1.483,0,0,1-1.477,1.615Z" transform="translate(-102.719 -195.014)" fill="#0091ff"/>
        <path id="Path_48277" data-name="Path 48277" d="M124.172,220.8h-7.2a1.49,1.49,0,0,1-1.477-1.38l-.331-3.685a1.477,1.477,0,0,1,1.477-1.615h7.2a1.483,1.483,0,0,1,1.484,1.38l.324,3.685a1.483,1.483,0,0,1-1.477,1.615Z" transform="translate(-102.719 -195.014)" fill="#0091ff"/>
        <path id="Path_48278" data-name="Path 48278" d="M123.99,221.044h-6.451a1.484,1.484,0,0,1-1.484-1.38l-.186-2.07a1.49,1.49,0,0,1,1.47-1.594h6.451a1.49,1.49,0,0,1,1.483,1.38l.186,2.1a1.477,1.477,0,0,1-1.47,1.559Z" transform="translate(-102.938 -195.597)" fill="#263238"/>
        <path id="Path_48279" data-name="Path 48279" d="M125.011,217.195h-4.457l-.014-.145H125Z" transform="translate(-104.387 -195.922)" fill="#fff"/>
        <path id="Path_48280" data-name="Path 48280" d="M122.743,217.815H120.6l-.014-.145h2.139Z" transform="translate(-104.403 -196.114)" fill="#fff"/>
        <path id="Path_48281" data-name="Path 48281" d="M123.355,218.435h-2.691l-.014-.145h2.691Z" transform="translate(-104.421 -196.307)" fill="#fff"/>
        <path id="Path_48282" data-name="Path 48282" d="M121.666,219.048h-.952l-.014-.138h.952Z" transform="translate(-104.437 -196.499)" fill="#fff"/>
        <path id="Path_48283" data-name="Path 48283" d="M121.388,219.668h-.614l-.014-.138h.614Z" transform="translate(-104.455 -196.691)" fill="#fff"/>
        <path id="Path_48284" data-name="Path 48284" d="M125.431,220.248h-4.464l-.007-.138h4.457Z" transform="translate(-104.517 -196.871)" fill="#fff"/>
        <path id="Path_48285" data-name="Path 48285" d="M123.163,220.868h-2.139l-.014-.138h2.139Z" transform="translate(-104.533 -197.063)" fill="#fff"/>
        <path id="Path_48286" data-name="Path 48286" d="M123.775,221.488h-2.691l-.014-.138h2.691Z" transform="translate(-104.551 -197.255)" fill="#fff"/>
        <path id="Path_48287" data-name="Path 48287" d="M122.086,222.108h-.952l-.014-.138h.952Z" transform="translate(-104.567 -197.447)" fill="#fff"/>
        <path id="Path_48288" data-name="Path 48288" d="M121.808,222.728h-.614l-.014-.138h.614Z" transform="translate(-104.585 -197.64)" fill="#fff"/>
        <path id="Path_48289" data-name="Path 48289" d="M118.622,220.669h-1a.752.752,0,0,1-.752-.69l-.242-2.07a.766.766,0,0,1,.759-.849h1a.773.773,0,0,1,.759.69l.235,2.07a.766.766,0,0,1-.759.849Z" transform="translate(-103.173 -195.925)" fill="#fff"/>
        <path id="Path_48290" data-name="Path 48290" d="M117.247,220.73h2.16l-.1-.773a1.276,1.276,0,0,0-.835-.331.8.8,0,0,0,.524-.78c-.055-.559-.248-1.076-.821-1.076s-.69.552-.69,1.076a.966.966,0,0,0,.49.793c-.345-.1-.587.1-.821.3Z" transform="translate(-103.336 -196.145)" fill="#263238"/>
        <path id="Path_48291" data-name="Path 48291" d="M125.364,231.2h-7.673a1.249,1.249,0,0,1-1.242-1.139l-.373-4.14a1.249,1.249,0,0,1,1.242-1.38h7.673a1.256,1.256,0,0,1,1.249,1.145l.373,4.14a1.249,1.249,0,0,1-1.249,1.373Z" transform="translate(-103.001 -198.244)" fill="#0091ff"/>
        <path id="Path_48292" data-name="Path 48292" d="M125.364,231.2h-7.673a1.249,1.249,0,0,1-1.242-1.139l-.373-4.14a1.249,1.249,0,0,1,1.242-1.38h7.673a1.256,1.256,0,0,1,1.249,1.145l.373,4.14a1.249,1.249,0,0,1-1.249,1.373Z" transform="translate(-103.001 -198.244)" fill="#0091ff"/>
        <path id="Path_48293" data-name="Path 48293" d="M125.234,231.422h-6.9a1.256,1.256,0,0,1-1.249-1.139l-.228-2.574a1.256,1.256,0,0,1,1.249-1.38h6.9a1.249,1.249,0,0,1,1.242,1.138l.235,2.581a1.249,1.249,0,0,1-1.249,1.373Z" transform="translate(-103.243 -198.799)" fill="#263238"/>
        <path id="Path_48294" data-name="Path 48294" d="M125.951,227.595h-4.457l-.014-.145h4.457Z" transform="translate(-104.678 -199.146)" fill="#fff"/>
        <path id="Path_48295" data-name="Path 48295" d="M123.683,228.208h-2.139l-.014-.138h2.146Z" transform="translate(-104.694 -199.338)" fill="#fff"/>
        <path id="Path_48296" data-name="Path 48296" d="M124.295,228.828H121.6l-.014-.138h2.7Z" transform="translate(-104.713 -199.531)" fill="#fff"/>
        <path id="Path_48297" data-name="Path 48297" d="M122.609,229.448h-.945l-.014-.138h.945Z" transform="translate(-104.731 -199.723)" fill="#fff"/>
        <path id="Path_48298" data-name="Path 48298" d="M122.328,230.068h-.614l-.014-.138h.614Z" transform="translate(-104.747 -199.915)" fill="#fff"/>
        <path id="Path_48299" data-name="Path 48299" d="M126.371,230.648h-4.457l-.014-.138h4.457Z" transform="translate(-104.809 -200.095)" fill="#fff"/>
        <path id="Path_48300" data-name="Path 48300" d="M124.106,231.268h-2.139l-.007-.138H124.1Z" transform="translate(-104.827 -200.287)" fill="#fff"/>
        <path id="Path_48301" data-name="Path 48301" d="M124.715,231.888h-2.691l-.014-.138h2.7Z" transform="translate(-104.843 -200.479)" fill="#fff"/>
        <path id="Path_48302" data-name="Path 48302" d="M123.029,232.508h-.952l-.007-.138h.945Z" transform="translate(-104.861 -200.671)" fill="#fff"/>
        <path id="Path_48303" data-name="Path 48303" d="M122.748,233.128h-.614l-.014-.138h.614Z" transform="translate(-104.877 -200.864)" fill="#fff"/>
        <path id="Path_48304" data-name="Path 48304" d="M119.478,231.066h-.828a.849.849,0,0,1-.842-.752l-.221-1.918a.856.856,0,0,1,.849-.945h.814a.842.842,0,0,1,.842.752l.221,1.918a.849.849,0,0,1-.835.945Z" transform="translate(-103.47 -199.146)" fill="#fff"/>
        <path id="Path_48305" data-name="Path 48305" d="M118.194,231.13h2.153l-.1-.773a1.277,1.277,0,0,0-.828-.338.787.787,0,0,0,.517-.773c-.048-.559-.248-1.076-.821-1.076s-.69.552-.69,1.076a.966.966,0,0,0,.5.794.869.869,0,0,0-.828.3Z" transform="translate(-103.628 -199.369)" fill="#263238"/>
      </g>
      <g id="freepik--device-2--inject-1" transform="translate(128.045 145.147)">
        <path id="Path_48306" data-name="Path 48306" d="M221.533,232.06h5.527l-1.477,15.815,12.392,1.311v1.1H211.19v-1.1l8.5-1.311Z" transform="translate(-193.514 -200.036)" fill="#263238"/>
        <path id="Path_48307" data-name="Path 48307" d="M221.533,232.06h5.527l-1.477,15.815,12.392,1.311v1.1H211.19v-1.1l8.5-1.311Z" transform="translate(-193.514 -200.036)" fill="#fff" opacity="0.1"/>
        <path id="Path_48308" data-name="Path 48308" d="M191.815,224.635h51.667a2.76,2.76,0,0,0,2.808-3.084l-2.87-32.816a3.45,3.45,0,0,0-3.353-3.084h-51.66a2.76,2.76,0,0,0-2.815,3.084l2.87,32.816A3.45,3.45,0,0,0,191.815,224.635Z" transform="translate(-185.572 -185.649)" fill="#263238"/>
        <path id="Path_48309" data-name="Path 48309" d="M196.016,223.425h45.919a2.47,2.47,0,0,0,2.5-2.76l-2.539-29.146a3.05,3.05,0,0,0-2.974-2.76H192.98a2.47,2.47,0,0,0-2.5,2.76l2.553,29.173A3.05,3.05,0,0,0,196.016,223.425Z" transform="translate(-187.089 -186.613)" fill="#0091ff"/>
        <path id="Path_48310" data-name="Path 48310" d="M196.016,223.425h45.919a2.47,2.47,0,0,0,2.5-2.76l-2.539-29.146a3.05,3.05,0,0,0-2.974-2.76H192.98a2.47,2.47,0,0,0-2.5,2.76l2.553,29.173A3.05,3.05,0,0,0,196.016,223.425Z" transform="translate(-187.089 -186.613)" fill="#fff" opacity="0.7"/>
        <path id="Path_48311" data-name="Path 48311" d="M211.379,216.036,207.37,198.1a.428.428,0,0,0-.745-.186l-4.043,4.651a.428.428,0,0,1-.738-.179l-.607-2.3a.428.428,0,0,0-.814-.041l-3.284,8.687a.428.428,0,0,1-.552.248h0a.421.421,0,0,1-.248-.552l4.23-11.247a.428.428,0,0,1,.814.048l.876,3.326a.435.435,0,0,0,.745.172l4.092-4.706a.421.421,0,0,1,.738.186l3.719,16.636a.428.428,0,0,0,.828.041l5.334-15.691a.428.428,0,0,1,.794-.048l1.649,3.388a.428.428,0,0,0,.773,0l3.629-8a.435.435,0,0,1,.814.076l4.237,17.25a.428.428,0,0,0,.787.117l10.992-18.858a.428.428,0,0,1,.586-.159h0a.421.421,0,0,1,.152.587l-12.054,20.7a.428.428,0,0,1-.787-.117l-4.14-16.926a.428.428,0,0,0-.807-.076l-3.4,7.438a.428.428,0,0,1-.773,0l-1.539-3.153a.428.428,0,0,0-.794.048l-5.644,16.608a.428.428,0,0,1-.807-.028Z" transform="translate(-188.9 -187.275)" fill="#263238"/>
        <rect id="Rectangle_4172" data-name="Rectangle 4172" width="45.906" height="1.642" rx="0.821" transform="translate(52.949 30.692) rotate(180)" fill="#0091ff"/>
        <path id="Path_48312" data-name="Path 48312" d="M259.73,232.315a.945.945,0,1,0,.945-.945A.945.945,0,0,0,259.73,232.315Z" transform="translate(-208.561 -199.822)" fill="#263238"/>
        <rect id="Rectangle_4173" data-name="Rectangle 4173" width="5.61" height="0.435" rx="0.217" transform="translate(50.072 32.659) rotate(180)" fill="#263238"/>
        <rect id="Rectangle_4174" data-name="Rectangle 4174" width="5.61" height="0.435" rx="0.217" transform="translate(50.072 32.659) rotate(180)" fill="#fff" opacity="0.4"/>
        <rect id="Rectangle_4175" data-name="Rectangle 4175" width="5.61" height="0.435" rx="0.217" transform="translate(50.072 33.652) rotate(180)" fill="#263238"/>
        <rect id="Rectangle_4176" data-name="Rectangle 4176" width="5.61" height="0.435" rx="0.217" transform="translate(50.072 33.652) rotate(180)" fill="#fff" opacity="0.4"/>
        <rect id="Rectangle_4177" data-name="Rectangle 4177" width="5.61" height="0.435" rx="0.217" transform="translate(50.072 34.646) rotate(180)" fill="#263238"/>
        <rect id="Rectangle_4178" data-name="Rectangle 4178" width="5.61" height="0.435" rx="0.217" transform="translate(50.072 34.646) rotate(180)" fill="#fff" opacity="0.4"/>
        <path id="Path_48313" data-name="Path 48313" d="M242.91,232.315a.945.945,0,1,0,.945-.945A.945.945,0,0,0,242.91,232.315Z" transform="translate(-203.347 -199.822)" fill="#263238"/>
        <rect id="Rectangle_4179" data-name="Rectangle 4179" width="5.61" height="0.435" rx="0.217" transform="translate(38.466 32.659) rotate(180)" fill="#263238"/>
        <rect id="Rectangle_4180" data-name="Rectangle 4180" width="5.61" height="0.435" rx="0.217" transform="translate(38.466 32.659) rotate(180)" fill="#fff" opacity="0.4"/>
        <rect id="Rectangle_4181" data-name="Rectangle 4181" width="5.61" height="0.435" rx="0.217" transform="translate(38.466 33.652) rotate(180)" fill="#263238"/>
        <rect id="Rectangle_4182" data-name="Rectangle 4182" width="5.61" height="0.435" rx="0.217" transform="translate(38.466 33.652) rotate(180)" fill="#fff" opacity="0.4"/>
        <rect id="Rectangle_4183" data-name="Rectangle 4183" width="5.61" height="0.435" rx="0.217" transform="translate(38.466 34.646) rotate(180)" fill="#263238"/>
        <rect id="Rectangle_4184" data-name="Rectangle 4184" width="5.61" height="0.435" rx="0.217" transform="translate(38.466 34.646) rotate(180)" fill="#fff" opacity="0.4"/>
        <path id="Path_48314" data-name="Path 48314" d="M226.3,232.315a.945.945,0,1,0,.945-.945A.945.945,0,0,0,226.3,232.315Z" transform="translate(-198.198 -199.822)" fill="#263238"/>
        <rect id="Rectangle_4185" data-name="Rectangle 4185" width="5.61" height="0.435" rx="0.217" transform="translate(27.005 32.659) rotate(180)" fill="#263238"/>
        <rect id="Rectangle_4186" data-name="Rectangle 4186" width="5.61" height="0.435" rx="0.217" transform="translate(27.005 32.659) rotate(180)" fill="#fff" opacity="0.4"/>
        <rect id="Rectangle_4187" data-name="Rectangle 4187" width="5.61" height="0.435" rx="0.217" transform="translate(27.005 33.652) rotate(180)" fill="#263238"/>
        <rect id="Rectangle_4188" data-name="Rectangle 4188" width="5.61" height="0.435" rx="0.217" transform="translate(27.005 33.652) rotate(180)" fill="#fff" opacity="0.4"/>
        <rect id="Rectangle_4189" data-name="Rectangle 4189" width="5.61" height="0.435" rx="0.217" transform="translate(27.005 34.646) rotate(180)" fill="#263238"/>
        <rect id="Rectangle_4190" data-name="Rectangle 4190" width="5.61" height="0.435" rx="0.217" transform="translate(27.005 34.646) rotate(180)" fill="#fff" opacity="0.4"/>
        <path id="Path_48315" data-name="Path 48315" d="M209.31,232.315a.945.945,0,1,0,.945-.945.945.945,0,0,0-.945.945Z" transform="translate(-192.931 -199.822)" fill="#263238"/>
        <rect id="Rectangle_4191" data-name="Rectangle 4191" width="5.61" height="0.435" rx="0.217" transform="translate(15.282 32.659) rotate(180)" fill="#263238"/>
        <rect id="Rectangle_4192" data-name="Rectangle 4192" width="5.61" height="0.435" rx="0.217" transform="translate(15.282 32.659) rotate(180)" fill="#fff" opacity="0.4"/>
        <rect id="Rectangle_4193" data-name="Rectangle 4193" width="5.61" height="0.435" rx="0.217" transform="translate(15.282 33.652) rotate(180)" fill="#263238"/>
        <rect id="Rectangle_4194" data-name="Rectangle 4194" width="5.61" height="0.435" rx="0.217" transform="translate(15.282 33.652) rotate(180)" fill="#fff" opacity="0.4"/>
        <rect id="Rectangle_4195" data-name="Rectangle 4195" width="5.61" height="0.435" rx="0.217" transform="translate(15.282 34.646) rotate(180)" fill="#263238"/>
        <rect id="Rectangle_4196" data-name="Rectangle 4196" width="5.61" height="0.435" rx="0.217" transform="translate(15.282 34.646) rotate(180)" fill="#fff" opacity="0.4"/>
      </g>
      <g id="freepik--Chair--inject-1" transform="translate(185.653 154.27)">
        <path id="Path_48316" data-name="Path 48316" d="M345.138,382.718l-19.879-1.96V352.82h-7.88v27.931l-19.948,1.967a3.864,3.864,0,0,0-3.491,3.85v2.988h54.71v-2.988a3.864,3.864,0,0,0-3.512-3.85Z" transform="translate(-276.774 -246.594)" fill="#263238"/>
        <path id="Path_48317" data-name="Path 48317" d="M345.138,382.718l-19.879-1.96V352.82h-7.88v27.931l-19.948,1.967a3.864,3.864,0,0,0-3.491,3.85v2.988h54.71v-2.988a3.864,3.864,0,0,0-3.512-3.85Z" transform="translate(-276.774 -246.594)" fill="#fff" opacity="0.2"/>
        <circle id="Ellipse_657" data-name="Ellipse 657" cx="5.154" cy="5.154" r="5.154" transform="translate(14.102 141.505)" fill="#263238"/>
        <circle id="Ellipse_658" data-name="Ellipse 658" cx="5.154" cy="5.154" r="5.154" transform="translate(64.603 141.505)" fill="#263238"/>
        <path id="Path_48318" data-name="Path 48318" d="M325.95,325.46h10.591v22.032a2.85,2.85,0,0,1-2.85,2.85H328.8a2.85,2.85,0,0,1-2.85-2.85V325.46Z" transform="translate(-286.697 -238.113)" fill="#263238"/>
        <path id="Path_48319" data-name="Path 48319" d="M325.95,325.46h10.591v22.032a2.85,2.85,0,0,1-2.85,2.85H328.8a2.85,2.85,0,0,1-2.85-2.85V325.46Z" transform="translate(-286.697 -238.113)" fill="#fff" opacity="0.3"/>
        <path id="Path_48320" data-name="Path 48320" d="M325.6,286.717a360.705,360.705,0,0,0,10.978-75.9,9.425,9.425,0,0,1,9.432-9.067h16.919a9.432,9.432,0,0,1,9.439,9.391c.062,15.408-1.014,49.991-9.7,75.6Z" transform="translate(-286.589 -199.763)" fill="#263238"/>
        <path id="Path_48321" data-name="Path 48321" d="M362.66,286.717H325.6a360.705,360.705,0,0,0,10.978-75.9,9.425,9.425,0,0,1,9.432-9.067h16.912a9.439,9.439,0,0,1,9.446,9.391C372.43,226.521,371.354,261.1,362.66,286.717Z" transform="translate(-286.589 -199.763)" fill="#fff" opacity="0.3"/>
        <path id="Path_48322" data-name="Path 48322" d="M315.332,288.411s-20.107-4.071-39.509-2.07,9.129,27.331,9.129,27.331h4.009s-15.111-16.112-14.283-20.114,38.93,1.277,38.93,1.277Z" transform="translate(-269.062 -225.815)" fill="#263238"/>
        <path id="Path_48323" data-name="Path 48323" d="M315.332,288.411s-20.107-4.071-39.509-2.07,9.129,27.331,9.129,27.331h4.009s-15.111-16.112-14.283-20.114,38.93,1.277,38.93,1.277Z" transform="translate(-269.062 -225.815)" fill="#fff" opacity="0.3"/>
        <path id="Path_48324" data-name="Path 48324" d="M364.52,286.717H331.6a360.705,360.705,0,0,0,10.978-75.9,9.425,9.425,0,0,1,9.432-9.067h12.772a9.439,9.439,0,0,1,9.446,9.391C374.29,226.521,373.214,261.1,364.52,286.717Z" transform="translate(-288.449 -199.763)" opacity="0.2"/>
        <path id="Path_48325" data-name="Path 48325" d="M316.54,286.217S326.414,254.7,328.1,208.7a10.226,10.226,0,0,1,10.226-9.832h18.34a10.24,10.24,0,0,1,10.24,10.185c.069,16.712-1.1,50.867-10.522,78.66Z" transform="translate(-283.78 -198.87)" fill="#0091ff"/>
        <path id="Path_48326" data-name="Path 48326" d="M316.54,286.217S326.414,254.7,328.1,208.7a10.226,10.226,0,0,1,10.226-9.832h18.34a10.24,10.24,0,0,1,10.24,10.185c.069,16.712-1.1,50.867-10.522,78.66Z" transform="translate(-283.78 -198.87)" opacity="0.2"/>
        <path id="Path_48327" data-name="Path 48327" d="M0,0H62.045V4.616a3.45,3.45,0,0,1-3.45,3.45H3.45A3.45,3.45,0,0,1,0,4.616Z" transform="translate(70.392 90.197) rotate(180)" fill="#0091ff"/>
        <path id="Path_48328" data-name="Path 48328" d="M0,0H62.045V4.616a3.45,3.45,0,0,1-3.45,3.45H3.45A3.45,3.45,0,0,1,0,4.616Z" transform="translate(70.392 90.197) rotate(180)" opacity="0.3"/>
        <rect id="Rectangle_4197" data-name="Rectangle 4197" width="70.608" height="4.03" rx="2.01" transform="translate(76.74 90.204) rotate(180)" fill="#263238"/>
        <rect id="Rectangle_4198" data-name="Rectangle 4198" width="70.608" height="4.03" rx="2.01" transform="translate(76.74 90.204) rotate(180)" fill="#fff" opacity="0.6"/>
        <rect id="Rectangle_4199" data-name="Rectangle 4199" width="31.236" height="4.03" rx="2.01" transform="translate(76.74 90.204) rotate(180)" opacity="0.2"/>
        <path id="Path_48329" data-name="Path 48329" d="M374.4,288.843s1.311-4.492-18.1-2.518,9.129,27.331,9.129,27.331h4.009s-15.125-16.084-14.283-20.086,17.519,1.7,17.519,1.7Z" transform="translate(-294.01 -225.826)" fill="#263238"/>
        <path id="Path_48330" data-name="Path 48330" d="M374.4,288.843s1.311-4.492-18.1-2.518,9.129,27.331,9.129,27.331h4.009s-15.125-16.084-14.283-20.086,17.519,1.7,17.519,1.7Z" transform="translate(-294.01 -225.826)" fill="#fff" opacity="0.3"/>
      </g>
      <g id="freepik--Character--inject-1" transform="translate(107.52 88.437)">
        <path id="Path_48331" data-name="Path 48331" d="M194.464,135.591l1.518,1.691a2.663,2.663,0,0,1,.607,2.346l-.876,3.905a4.934,4.934,0,0,1-2.912,3.45l-.911.379c-2.712-2.636-3.692-7.486-3.692-7.486l-.435-1.38a2.208,2.208,0,0,1,1.38-2.822l2.663-.89A2.532,2.532,0,0,1,194.464,135.591Z" transform="translate(-165.689 -113.138)" fill="#e6ae76"/>
        <path id="Path_48332" data-name="Path 48332" d="M228.164,157.188l-.166.255-.131.186-.242.338-.483.628c-.324.4-.649.78-.98,1.145-.656.738-1.38,1.415-2.07,2.07a39.409,39.409,0,0,1-4.471,3.533c-.78.531-1.573,1.028-2.374,1.511s-1.622.925-2.45,1.346a50.076,50.076,0,0,1-5.051,2.277l-.207.083a3.542,3.542,0,0,1-.511.145,7.528,7.528,0,0,1-2.946-.069,8.618,8.618,0,0,1-2.374-.945,13.11,13.11,0,0,1-3.146-2.629,23.884,23.884,0,0,1-2.146-2.829c-.621-.959-1.18-1.918-1.691-2.891s-.98-1.953-1.421-2.933-.835-1.98-1.221-2.974-.731-2-1.063-3.008c-.159-.5-.317-1.014-.469-1.518s-.29-1.014-.428-1.559a1.967,1.967,0,0,1,3.65-1.38v.055l.69,1.318c.235.442.469.883.69,1.325.476.883.966,1.76,1.463,2.622s1.014,1.718,1.539,2.553,1.049,1.656,1.608,2.443,1.111,1.552,1.7,2.263a20.105,20.105,0,0,0,1.794,1.911,7.059,7.059,0,0,0,1.677,1.18,1.76,1.76,0,0,0,.511.138c.1,0,.1,0,.117-.048l-.69.228c1.456-.69,2.863-1.5,4.237-2.318.69-.414,1.38-.849,2.015-1.29s1.311-.89,1.939-1.38c.311-.235.628-.476.931-.69s.607-.49.911-.738c.6-.5,1.173-1.014,1.732-1.532s1.09-1.063,1.594-1.608a8.951,8.951,0,0,0,.69-.807c.117-.131.228-.269.324-.393l.145-.179.055-.076h0a3.954,3.954,0,0,1,6.638,4.292Z" transform="translate(-167.062 -116.933)" fill="#e6ae76"/>
        <path id="Path_48333" data-name="Path 48333" d="M197.181,150.3c3.257,6.21,6.672,10.861,10.419,14.117,3.864-1.967,14.442-11.489,16.346-12.42l.3,12.455c-4.747,4.616-12.855,9.129-15.353,9.418-7.383,1.621-11.7-8.853-16.367-20.859Z" transform="translate(-167.205 -117.98)" fill="#0091ff"/>
        <path id="Path_48334" data-name="Path 48334" d="M236.679,151.932s-6.658,7.514-.373,54.027h33.451c.235-5.134-2.995-30.167,1.96-54.351a86.975,86.975,0,0,0-11.192-1.38,123.559,123.559,0,0,0-14.214,0A63.011,63.011,0,0,0,236.679,151.932Z" transform="translate(-179.938 -117.894)" fill="#0091ff"/>
        <rect id="Rectangle_4200" data-name="Rectangle 4200" width="1.842" height="13.724" transform="matrix(0.753, -0.658, 0.658, 0.753, 82.112, 67.245)" fill="#263238"/>
        <rect id="Rectangle_4201" data-name="Rectangle 4201" width="1.842" height="13.724" transform="matrix(0.753, -0.658, 0.658, 0.753, 82.112, 67.245)" fill="#fff" opacity="0.2"/>
        <circle id="Ellipse_659" data-name="Ellipse 659" cx="7.976" cy="7.976" r="7.976" transform="translate(69.48 68.448) rotate(-86.17)" fill="#263238"/>
        <path id="Path_48335" data-name="Path 48335" d="M270.913,184.227a6.9,6.9,0,1,1-4.739-2.351A6.9,6.9,0,0,1,270.913,184.227Z" transform="translate(-187.752 -127.764)" fill="#0091ff"/>
        <path id="Path_48336" data-name="Path 48336" d="M270.913,184.227a6.9,6.9,0,1,1-4.739-2.351A6.9,6.9,0,0,1,270.913,184.227Z" transform="translate(-187.752 -127.764)" fill="#fff" opacity="0.6"/>
        <path id="Path_48337" data-name="Path 48337" d="M270.764,184.167a1.38,1.38,0,1,1-.964-.493A1.38,1.38,0,0,1,270.764,184.167Z" transform="translate(-190.701 -128.325)" fill="#fff" opacity="0.6"/>
        <path id="Path_48338" data-name="Path 48338" d="M265.379,131.71c-.649,3.705-1.221,10.481,1.38,12.889,0,0-3.381,5.085-8.839,5.327-4.727.207-2.629-5.078-2.629-5.078,4.1-1.076,3.926-4.14,3.146-6.976Z" transform="translate(-186.517 -112.217)" fill="#e6ae76"/>
        <path id="Path_48339" data-name="Path 48339" d="M264.162,135.35,260.07,139a11.855,11.855,0,0,1,.4,2.029c1.566-.262,4.94-3.616,5.072-5.258C265.652,135.108,264.355,136.005,264.162,135.35Z" transform="translate(-188.142 -113.345)" opacity="0.2"/>
        <path id="Path_48340" data-name="Path 48340" d="M274.874,206.655l1.249-1.9a2.643,2.643,0,0,1,2.1-1.194l4-.159a4.92,4.92,0,0,1,4.105,1.911l.6.78c-1.849,3.3-6.272,5.52-6.272,5.52l-1.194.766a2.2,2.2,0,0,1-3.077-.593l-1.559-2.353A2.546,2.546,0,0,1,274.874,206.655Z" transform="translate(-192.596 -134.439)" fill="#e6ae76"/>
        <path id="Path_48341" data-name="Path 48341" d="M285.531,156.125l.29.1.214.076.386.152c.255.1.5.2.731.3a15.126,15.126,0,0,1,1.38.69c.883.442,1.718.938,2.532,1.449a39.441,39.441,0,0,1,4.568,3.4c.69.614,1.38,1.249,2.07,1.9s1.318,1.325,1.939,2.015a50.271,50.271,0,0,1,3.5,4.292l.138.186a2.326,2.326,0,0,1,.269.455,7.272,7.272,0,0,1,.69,2.857,8.149,8.149,0,0,1-.3,2.539,12.9,12.9,0,0,1-1.725,3.719,22.82,22.82,0,0,1-2.173,2.8c-.766.849-1.546,1.642-2.353,2.387s-1.635,1.456-2.47,2.132-1.691,1.325-2.553,1.953-1.739,1.221-2.629,1.8l-1.346.849c-.462.276-.9.538-1.38.814a1.967,1.967,0,0,1-2.291-3.16l.041-.041,1.1-1.007,1.1-1.028q1.1-1.035,2.153-2.07c.7-.69,1.38-1.421,2.07-2.139s1.325-1.449,1.939-2.187,1.214-1.483,1.746-2.236a20.4,20.4,0,0,0,1.38-2.229,6.853,6.853,0,0,0,.69-1.925,1.382,1.382,0,0,0,0-.524c0-.1-.055-.1-.076-.1l.407.635c-1.069-1.221-2.194-2.374-3.34-3.491-.573-.559-1.166-1.09-1.766-1.615s-1.2-1.028-1.822-1.518l-.932-.69-.945-.69c-.635-.449-1.29-.869-1.932-1.277s-1.311-.78-1.966-1.125c-.324-.179-.649-.331-.966-.483l-.462-.214-.214-.09H283.1a3.954,3.954,0,1,1,2.429-7.521Z" transform="translate(-194.394 -119.754)" fill="#e6ae76"/>
        <path id="Path_48342" data-name="Path 48342" d="M285.4,187c5.168-4.761,8.756-9.26,10.936-13.717-2.9-3.229-11.854-8.818-13.365-9.819s-4.451-3.305-4.451-7.376c0-5.416,7.1-3.864,7.1-3.864,5.686,3.388,18.6,15.014,19.527,17.353,3.45,6.707-5.52,13.586-15.911,21.211Z" transform="translate(-193.862 -118.514)" fill="#0091ff"/>
        <path id="Path_48343" data-name="Path 48343" d="M253.3,112.691c2.443,1.663,1.339,4.492-4.181,8.867-2.242-2.912-2.615-8.563-.835-9.984S251.189,111.256,253.3,112.691Z" transform="translate(-184.14 -105.77)" fill="#263238"/>
        <path id="Path_48344" data-name="Path 48344" d="M263.621,116.224c-.269,5.968-.124,9.474-3.077,12.586-4.451,4.685-11.861,2.07-13.386-3.85-1.38-5.334-.69-14.2,5.092-16.67a8.149,8.149,0,0,1,11.371,7.935Z" transform="translate(-183.951 -104.749)" fill="#e6ae76"/>
        <path id="Path_48345" data-name="Path 48345" d="M257.905,122.289c0,.483-.241.883-.559.883s-.58-.38-.587-.862.235-.883.552-.89S257.864,121.82,257.905,122.289Z" transform="translate(-187.116 -109.027)" fill="#263238"/>
        <path id="Path_48346" data-name="Path 48346" d="M249.9,122.436c0,.483-.241.883-.559.883s-.586-.38-.593-.869.248-.883.559-.89S249.9,121.946,249.9,122.436Z" transform="translate(-184.633 -109.071)" fill="#263238"/>
        <path id="Path_48347" data-name="Path 48347" d="M251.989,123.11a17.311,17.311,0,0,1-2.249,4.2,2.8,2.8,0,0,0,2.325.393Z" transform="translate(-184.94 -109.551)" fill="#d08245"/>
        <path id="Path_48348" data-name="Path 48348" d="M259.5,119.41a.276.276,0,0,0,.179-.041.283.283,0,0,0,.055-.4,2.808,2.808,0,0,0-2.339-1.138.276.276,0,0,0-.262.29h0a.3.3,0,0,0,.31.255h0a2.242,2.242,0,0,1,1.835.918.3.3,0,0,0,.221.117Z" transform="translate(-187.231 -107.914)" fill="#263238"/>
        <path id="Path_48349" data-name="Path 48349" d="M246.611,119.256a.29.29,0,0,0,.255-.166,2.256,2.256,0,0,1,1.58-1.345.285.285,0,0,0-.076-.566,2.85,2.85,0,0,0-2.022,1.642.29.29,0,0,0,.138.38h0A.269.269,0,0,0,246.611,119.256Z" transform="translate(-183.881 -107.712)" fill="#263238"/>
        <path id="Path_48350" data-name="Path 48350" d="M266.919,112.063c-2.76,1-2.381,4,1.9,9.612,2.891-2.27,4.637-7.666,3.25-9.474S269.341,111.194,266.919,112.063Z" transform="translate(-189.72 -105.832)" fill="#263238"/>
        <path id="Path_48351" data-name="Path 48351" d="M272.986,125.419a5.672,5.672,0,0,1-2.643,3.45c-1.732.98-3.07-.455-2.995-2.339.076-1.7,1.069-4.25,3-4.457A2.525,2.525,0,0,1,272.986,125.419Z" transform="translate(-190.398 -109.224)" fill="#e6ae76"/>
        <path id="Path_48352" data-name="Path 48352" d="M261.142,109.96s.69-3.305-1.194-5.189-9.66-1.38-14-.69-8.528,5.893-8.528,5.893h6.852a5.418,5.418,0,0,0-1.884,2.236c5.72-.476,12.241-.614,14.545-2.553l.3.69,1.6.117Z" transform="translate(-181.121 -103.459)" fill="#263238"/>
        <path id="Path_48353" data-name="Path 48353" d="M253.14,132.11a13.724,13.724,0,0,0,4.485-1.98,3.711,3.711,0,0,1-3.008,4.45Z" transform="translate(-185.994 -111.727)" fill="#263238"/>
        <path id="Path_48354" data-name="Path 48354" d="M256.814,134.974a3.45,3.45,0,0,0,1.863-2.284,2.622,2.622,0,0,0-1.539.807,1.891,1.891,0,0,0-.324,1.477Z" transform="translate(-187.122 -112.521)" fill="#de5753"/>
        <path id="Path_48355" data-name="Path 48355" d="M249.18,123.592h-2.242a1.125,1.125,0,0,1-1.118-1.118v-1.38a1.125,1.125,0,0,1,1.118-1.125h2.242a1.118,1.118,0,0,1,1.118,1.125v1.38A1.118,1.118,0,0,1,249.18,123.592Zm-2.242-2.988a.448.448,0,0,0-.448.455v1.38a.448.448,0,0,0,.448.448h2.242a.455.455,0,0,0,.455-.449v-1.38a.455.455,0,0,0-.455-.455Z" transform="translate(-183.725 -108.578)" fill="#263238"/>
        <path id="Path_48356" data-name="Path 48356" d="M256.93,123.592h-2.236a1.125,1.125,0,0,1-1.125-1.118v-1.38a1.125,1.125,0,0,1,1.125-1.125h2.236a1.125,1.125,0,0,1,1.125,1.125v1.38A1.125,1.125,0,0,1,256.93,123.592Zm-2.236-2.988a.448.448,0,0,0-.455.455v1.38a.448.448,0,0,0,.455.448h2.236a.455.455,0,0,0,.455-.449v-1.38a.455.455,0,0,0-.455-.455Z" transform="translate(-186.127 -108.578)" fill="#263238"/>
        <rect id="Rectangle_4202" data-name="Rectangle 4202" width="1.539" height="0.669" transform="translate(66.242 12.855)" fill="#263238"/>
        <rect id="Rectangle_4203" data-name="Rectangle 4203" width="5.761" height="0.669" transform="translate(71.942 12.855)" fill="#263238"/>
        <path id="Path_48357" data-name="Path 48357" d="M253.968,159.88a100.865,100.865,0,0,0-5.348,26.075q.435,1.884,1.042,3.788c.78-1.159,2.07-2.415,2.96-3.567.476-11.9,1.58-23.336,2.553-26.165Z" transform="translate(-184.593 -120.95)" fill="#263238"/>
        <path id="Path_48358" data-name="Path 48358" d="M255.916,160.884l-.856-2.919,2.111-.745,1.47,1.056Z" transform="translate(-186.589 -120.125)" fill="#263238"/>
        <path id="Path_48359" data-name="Path 48359" d="M258.12,155s1.214,1.828,2.67,3.657c2.443-1.049,8.2-3.919,8.246-7.024a3.126,3.126,0,0,0-1.38-1.566A33.48,33.48,0,0,1,258.12,155Z" transform="translate(-187.538 -117.909)" fill="#fff"/>
        <path id="Path_48360" data-name="Path 48360" d="M256.3,154.977a16.285,16.285,0,0,0-3.333,3.139c-1.587-1.318-.152-6.969.538-7.549a3.954,3.954,0,0,1,2.36-.573S253.664,154.087,256.3,154.977Z" transform="translate(-185.717 -117.882)" fill="#fff"/>
        <path id="Path_48361" data-name="Path 48361" d="M224.569,405.436l-5.5-.752.766-13.434,5.486.759Z" transform="translate(-175.432 -192.675)" fill="#ebb376"/>
        <path id="Path_48362" data-name="Path 48362" d="M225.452,392.009l-5.486-.759-.476,8.328h5.534Z" transform="translate(-175.562 -192.675)" opacity="0.2"/>
        <path id="Path_48363" data-name="Path 48363" d="M214.576,409.586l6.21-.386a.4.4,0,0,1,.435.352h0l.607,4.9a.98.98,0,0,1-.9,1.035c-2.167.1-3.208.041-5.941.186a50.5,50.5,0,0,1-7.3.235c-2.311-.228-2.029-2.5-1.035-2.615a15.187,15.187,0,0,0,7-3.333,1.553,1.553,0,0,1,.931-.373Z" transform="translate(-171.353 -198.238)" fill="#263238"/>
        <path id="Path_48364" data-name="Path 48364" d="M216.9,409.7h0c0-.1-.1-1.663-.69-2.167a.835.835,0,0,0-.614-.145.517.517,0,0,0-.469.421,2.008,2.008,0,0,0,.545,1.27,2.256,2.256,0,0,0-1.539-.283.483.483,0,0,0-.276.386.69.69,0,0,0,.2.69,1.463,1.463,0,0,0,1.056.207,6.834,6.834,0,0,0,1.442-.283h.048v-.041s.131,0,.138-.055h.117Zm-1.532-1.842c0-.076.055-.166.235-.2h.062a.386.386,0,0,1,.283.1,2.76,2.76,0,0,1,.469,1.7l-.117-.062a2.643,2.643,0,0,1-.932-1.532Zm-1.132,1.828a.469.469,0,0,1-.117-.448.235.235,0,0,1,.131-.193c.359-.166,1.3.242,1.973.614-.98.255-1.7.269-1.987.028Z" transform="translate(-173.809 -197.673)" fill="#0091ff"/>
        <path id="Path_48365" data-name="Path 48365" d="M282.888,405.6l-5.5-.752-.759-13.062,5.485.759Z" transform="translate(-193.276 -192.842)" fill="#ebb376"/>
        <path id="Path_48366" data-name="Path 48366" d="M282.115,392.552l-5.485-.752.462,7.949h5.451Z" transform="translate(-193.276 -192.845)" opacity="0.2"/>
        <path id="Path_48367" data-name="Path 48367" d="M273.236,409.586l6.21-.386a.4.4,0,0,1,.435.352h0l.607,4.9a.98.98,0,0,1-.9,1.035c-2.167.1-3.208.041-5.941.186a50.5,50.5,0,0,1-7.3.235c-2.311-.228-2.029-2.5-1.035-2.615a15.187,15.187,0,0,0,7-3.333,1.553,1.553,0,0,1,.932-.373Z" transform="translate(-189.537 -198.238)" fill="#263238"/>
        <path id="Path_48368" data-name="Path 48368" d="M275.562,409.7h0c0-.1-.1-1.663-.69-2.167a.835.835,0,0,0-.614-.145.518.518,0,0,0-.469.421,2.008,2.008,0,0,0,.545,1.27,2.256,2.256,0,0,0-1.539-.283.483.483,0,0,0-.276.386.69.69,0,0,0,.2.69,1.463,1.463,0,0,0,1.056.207,6.835,6.835,0,0,0,1.442-.283h.048v-.041c0-.041.131,0,.138-.055h.117Zm-1.532-1.842c0-.076.055-.166.235-.2h.062a.386.386,0,0,1,.283.1,2.76,2.76,0,0,1,.469,1.7l-.117-.062a2.643,2.643,0,0,1-.932-1.532Zm-1.132,1.828a.469.469,0,0,1-.117-.448.235.235,0,0,1,.131-.193c.359-.166,1.3.242,1.973.614-.98.255-1.7.269-1.987.028Z" transform="translate(-191.994 -197.673)" fill="#0091ff"/>
        <path id="Path_48369" data-name="Path 48369" d="M250.052,231.09V251.9c-6.6,17.126-16.67,45.4-18.416,54.655s-1.3,20.527-4.409,41.007l-10.826.248s-.752-23.4.849-40.586,14.828-76.135,14.828-76.135Z" transform="translate(-174.55 -143.025)" fill="#263238"/>
        <path id="Path_48370" data-name="Path 48370" d="M276.232,231.09c1.256,9.232-3.105,70.96-2.022,79.55s2.38,16.381,3.767,37.17H267.794s-5.32-19.7-8.052-36.949-4.3-62.983-2.5-79.771Z" transform="translate(-187.027 -143.025)" fill="#263238"/>
        <path id="Path_48371" data-name="Path 48371" d="M250,290.128s1.035-9.591,1.311-13.5,2.926-14.732,2.926-14.732l.448,15.18Z" transform="translate(-185.02 -152.576)" opacity="0.2"/>
        <path id="Path_48372" data-name="Path 48372" d="M224.61,177.274c3.2-2.339,5.63-4.982,6.865-8.094a25.374,25.374,0,0,0-.593,3.94,50.37,50.37,0,0,1-6.272,4.154Z" transform="translate(-177.15 -123.833)" opacity="0.2"/>
        <path id="Path_48373" data-name="Path 48373" d="M284.222,179.55c-.421-4.023-1.021-9.536-1.732-12.91a30.4,30.4,0,0,0,2.553,2.015" transform="translate(-195.092 -123.045)" opacity="0.2"/>
        <path id="Path_48374" data-name="Path 48374" d="M186.493,119.49a15.332,15.332,0,1,0-21.921,13.841c-.221-.69-.455-1.428-.69-2.208s-.5-1.525-.794-2.346a37.672,37.672,0,0,1,5.279-1.27,41.762,41.762,0,0,1,5.72-.6c2.477,0,5.327.262,5.327.262s.407.1.69,2.725c.048.518.1,1.187.131,1.987A15.3,15.3,0,0,0,186.493,119.49Z" transform="translate(-155.827 -103.675)" fill="#0091ff"/>
        <path id="Path_48375" data-name="Path 48375" d="M186.493,119.49a15.332,15.332,0,1,0-21.921,13.841c-.221-.69-.455-1.428-.69-2.208s-.5-1.525-.794-2.346a37.672,37.672,0,0,1,5.279-1.27,41.762,41.762,0,0,1,5.72-.6c2.477,0,5.327.262,5.327.262s.407.1.69,2.725c.048.518.1,1.187.131,1.987A15.3,15.3,0,0,0,186.493,119.49Z" transform="translate(-155.827 -103.675)" fill="#fff" opacity="0.7"/>
        <path id="Path_48376" data-name="Path 48376" d="M177.587,116.1l-4.292-1.7s-4.685-.248-5.52,2.18-.559,6.61-1.166,10.267c-.421,2.574-3.022,4.174-4.52,6.486a15.4,15.4,0,0,0,1.449,1.318,15.18,15.18,0,0,0,9.536,3.333,15.406,15.406,0,0,0,2.85-.269c.98-3.816,1.932-9.087,2.884-14.442Z" transform="translate(-157.768 -106.851)" fill="#263238"/>
        <path id="Path_48377" data-name="Path 48377" d="M179.992,116.649a4.237,4.237,0,0,1,1.787,3.609c-.1,2.429-.476,4.775-.255,6.251a9.783,9.783,0,0,1-.842,4.237,14.106,14.106,0,0,0-.435-2.332s0,.635-.849.863-7.625.4-9.149-.863,1.663-11.447,3.415-12.047S179.992,116.649,179.992,116.649Z" transform="translate(-160.173 -107.396)" fill="#263238"/>
        <path id="Path_48378" data-name="Path 48378" d="M182.662,137.372s-2.85-.283-5.327-.262a41.758,41.758,0,0,0-5.713.614,37.673,37.673,0,0,0-5.292,1.283c.29.821.552,1.608.794,2.346s.5,1.511.69,2.208a15.339,15.339,0,0,0,15.622-1.463,19.582,19.582,0,0,0-.131-1.987C183.062,137.468,182.662,137.372,182.662,137.372Z" transform="translate(-159.083 -113.891)" fill="#0091ff"/>
        <path id="Path_48379" data-name="Path 48379" d="M182.662,137.372s-2.85-.283-5.327-.262a41.758,41.758,0,0,0-5.713.614,37.673,37.673,0,0,0-5.292,1.283c.29.821.552,1.608.794,2.346s.5,1.511.69,2.208a15.339,15.339,0,0,0,15.622-1.463,19.582,19.582,0,0,0-.131-1.987C183.062,137.468,182.662,137.372,182.662,137.372Z" transform="translate(-159.083 -113.891)" opacity="0.3"/>
        <path id="Path_48380" data-name="Path 48380" d="M178.915,138.1c-3.146-.4-4.085-1.746-4.085-1.746,1.994-1.877.338-5.134.338-5.134l3.774.69a11.514,11.514,0,0,0-.145,1.594c0,2.291,1.007,2.311,1.007,2.311C180.467,137.071,178.915,138.1,178.915,138.1Z" transform="translate(-161.718 -112.065)" fill="#e4897b"/>
        <path id="Path_48381" data-name="Path 48381" d="M179.094,131.924a11.518,11.518,0,0,0-.145,1.594,4.2,4.2,0,0,1-3.629-2.3Z" transform="translate(-161.87 -112.065)" opacity="0.2"/>
        <path id="Path_48382" data-name="Path 48382" d="M170.61,138.515s3.685,2.988,7.121,2.939,4.637-3.905,4.637-3.905A19.52,19.52,0,0,0,170.61,138.515Z" transform="translate(-160.41 -113.875)" fill="#e4897b"/>
        <path id="Path_48383" data-name="Path 48383" d="M178.826,117.765c3.1.531,3.816,2.36,3.5,5.6-.4,4.036-1.766,6.721-5.52,5.209C171.761,126.514,173.679,116.888,178.826,117.765Z" transform="translate(-161.415 -107.877)" fill="#e4897b"/>
        <path id="Path_48384" data-name="Path 48384" d="M183.183,125.15a6.458,6.458,0,0,0,.69,1.435.869.869,0,0,1-.883.214Z" transform="translate(-164.247 -110.183)" fill="#de5753"/>
        <path id="Path_48385" data-name="Path 48385" d="M180.3,124.082c-.035.255-.207.442-.38.421s-.276-.255-.235-.511.2-.442.373-.414S180.335,123.827,180.3,124.082Z" transform="translate(-163.22 -109.696)" fill="#263238"/>
        <path id="Path_48386" data-name="Path 48386" d="M180.13,123.518l.586-.138S180.371,123.808,180.13,123.518Z" transform="translate(-163.361 -109.635)" fill="#263238"/>
        <path id="Path_48387" data-name="Path 48387" d="M184.918,124.68c-.041.255-.207.442-.379.421s-.276-.255-.242-.511.207-.442.38-.421S184.952,124.425,184.918,124.68Z" transform="translate(-164.65 -109.879)" fill="#263238"/>
        <path id="Path_48388" data-name="Path 48388" d="M184.74,124.118l.587-.138S184.982,124.408,184.74,124.118Z" transform="translate(-164.79 -109.821)" fill="#263238"/>
        <path id="Path_48389" data-name="Path 48389" d="M178.936,121.483a.152.152,0,0,1-.1-.041.138.138,0,0,1,0-.193,1.766,1.766,0,0,1,1.553-.262.133.133,0,0,1-.076.255,1.511,1.511,0,0,0-1.3.214A.138.138,0,0,1,178.936,121.483Z" transform="translate(-162.946 -108.869)" fill="#263238"/>
        <path id="Path_48390" data-name="Path 48390" d="M185.5,122.124a.131.131,0,0,1-.09,0,1.38,1.38,0,0,0-1.076-.435.133.133,0,1,1-.048-.262,1.594,1.594,0,0,1,1.3.5.11.11,0,0,1-.09.2Z" transform="translate(-164.614 -109.027)" fill="#263238"/>
        <path id="Path_48391" data-name="Path 48391" d="M174.483,121.828s1.884-2.3,2-4.306c0,0,6.569-1.463,5.81,4.83,0,0,1.546-5.43-3.76-6.465s-5.941,9.136-3.588,11.923C174.945,127.8,173.317,123.263,174.483,121.828Z" transform="translate(-161.35 -107.289)" fill="#263238"/>
        <path id="Path_48392" data-name="Path 48392" d="M174.434,124.93a1.38,1.38,0,0,0-1.249-1.49c-.98-.062-1.773,1.829.538,2.712C174.055,126.282,174.3,125.979,174.434,124.93Z" transform="translate(-160.908 -109.653)" fill="#e4897b"/>
        <path id="Path_48393" data-name="Path 48393" d="M176.81,116.428a9.384,9.384,0,0,0,2.8,2.07,31.638,31.638,0,0,0,4.23,1.118c-.58,2.843-.455,5.2.911,6.672-.5-.821.3-7.211.221-7.756-.2-1.3-1.49-2.132-2.981-3.139a6.672,6.672,0,0,0-3.7-.849Z" transform="translate(-162.331 -106.892)" fill="#263238"/>
        <path id="Path_48394" data-name="Path 48394" d="M174.448,118.27v3.643a4.25,4.25,0,0,0,.373,3.333,20.5,20.5,0,0,1,.317-4.23l1.214-2.408Z" transform="translate(-161.543 -108.051)" fill="#263238"/>
        <path id="Path_48395" data-name="Path 48395" d="M181.195,128.642a2.7,2.7,0,0,1-1.946-.8.09.09,0,0,1,0-.124.083.083,0,0,1,.124,0,2.615,2.615,0,0,0,2.153.69.083.083,0,0,1,.1.076.09.09,0,0,1-.076.1Z" transform="translate(-163.08 -110.971)" fill="#263238"/>
        <path id="Path_48396" data-name="Path 48396" d="M165.541,139.84a6.113,6.113,0,0,0-1.711,2.477,16.3,16.3,0,0,0,3.222,2.07Z" transform="translate(-158.308 -114.737)" fill="#0091ff"/>
        <path id="Path_48397" data-name="Path 48397" d="M165.541,139.84a6.113,6.113,0,0,0-1.711,2.477,16.3,16.3,0,0,0,3.222,2.07Z" transform="translate(-158.308 -114.737)" opacity="0.3"/>
        <path id="Path_48398" data-name="Path 48398" d="M190,137.49l.794,4.713a15.448,15.448,0,0,0,2.939-2.808,8.384,8.384,0,0,0-3.733-1.9Z" transform="translate(-166.42 -114.009)" fill="#0091ff"/>
        <path id="Path_48399" data-name="Path 48399" d="M190,137.49l.794,4.713a15.448,15.448,0,0,0,2.939-2.808,8.384,8.384,0,0,0-3.733-1.9Z" transform="translate(-166.42 -114.009)" opacity="0.3"/>
      </g>
      <g id="freepik--trash-bin--inject-1" transform="translate(99.332 267.81)">
        <path id="Path_48400" data-name="Path 48400" d="M176.107,390.575a2.07,2.07,0,0,0-1.649-2.946,4.388,4.388,0,0,0-1.38-4.83,1.014,1.014,0,0,0-.6-.269,1.215,1.215,0,0,0-.69.283l-3.843,2.76a2.284,2.284,0,0,0-.766.752c-.787,1.525,2.07,3.45.883,4.733-.331.359-.869.435-1.29.69-.911.573-1.021,1.828-1.449,2.822s-1.918,1.76-2.484.842c.421-.952-.856-1.773-1.884-1.891s-2.111-.179-2.684-1.145c-1.463,1.277-4.747-2.3-4.671-3.733a2.815,2.815,0,0,0-2.291,2.346,17.285,17.285,0,0,0-.124,3.588c-.034,2.332-.787,4.623-.745,6.955,0,1.815.731,3.829,2.394,4.561a6.244,6.244,0,0,0,2.581.345l18.927-.124a2.76,2.76,0,0,0,1.325-.221c.856-.442,1.035-1.566,1.118-2.525l1.014-12.337Z" transform="translate(-145.968 -369.344)" fill="#0091ff"/>
        <path id="Path_48401" data-name="Path 48401" d="M176.107,390.575a2.07,2.07,0,0,0-1.649-2.946,4.388,4.388,0,0,0-1.38-4.83,1.014,1.014,0,0,0-.6-.269,1.215,1.215,0,0,0-.69.283l-3.843,2.76a2.284,2.284,0,0,0-.766.752c-.787,1.525,2.07,3.45.883,4.733-.331.359-.869.435-1.29.69-.911.573-1.021,1.828-1.449,2.822s-1.918,1.76-2.484.842c.421-.952-.856-1.773-1.884-1.891s-2.111-.179-2.684-1.145c-1.463,1.277-4.747-2.3-4.671-3.733a2.815,2.815,0,0,0-2.291,2.346,17.285,17.285,0,0,0-.124,3.588c-.034,2.332-.787,4.623-.745,6.955,0,1.815.731,3.829,2.394,4.561a6.244,6.244,0,0,0,2.581.345l18.927-.124a2.76,2.76,0,0,0,1.325-.221c.856-.442,1.035-1.566,1.118-2.525l1.014-12.337Z" transform="translate(-145.968 -369.344)" fill="#fff" opacity="0.3"/>
        <path id="Path_48402" data-name="Path 48402" d="M176.046,365.2H146.68l.242,2.967.172,2.118.448,5.52.255,3.167.338,4.216.145,1.808.048.538.172,2.125.235,2.912.145,1.808.152,1.835.173,2.125.131,1.608.145,1.808.062.787h26.951l.062-.787.145-1.8.131-1.622.173-2.125.152-1.828.145-1.808.235-2.919.173-2.118.041-.538.145-1.808.345-4.216.255-3.16.442-5.52.173-2.118.241-2.967Zm1.766,1.932h0l-.566-.566h.614Zm-.145,1.8-.055.69-2.629,2.629-3.015-3.015,2.7-2.7h.635Zm-.759,9.4-1.925,1.911-3.015-3.015,3.015-3.008,2.07,2.07Zm-27.938-2h0l2.07-2.07,3.015,3.008-3.015,2.974-1.918-1.925Zm25.047-3.064L171,376.281l-3.015-3.015L171,370.251Zm-4.74-6.686h3.45L171,368.3Zm.745,10.674-3.015,2.988-3.015-3.015,3.015-3.008Zm-10.012,3.988,3.015-3.008,3.008,3.008-3.008,3.015Zm2.036,3.988-3.015,3.015-3.008-3.008,3.015-3.015Zm4.968-3.008,3.008,3.015-3.008,3.008L164,385.231Zm-3.988-5.941-3.015-3.015,3.015-3.015,3.008,3.015Zm-.98.973-3.015,2.988-3.015-3.015,3.015-3.008Zm-7-.973-3.008-3.015,3.008-3.015,3.015,3.015Zm0,1.953,3.015,3.008-3.015,3.015-3.008-3.015Zm3.008,10.978-3.015,3.008-3.008-3.008,3.008-3.015Zm.973.973,3.015,3.015-3.008,3.015-3.015-3.015Zm.987-.973,3.015-3.015,3.008,3.015-3.008,3.008Zm7,.973,3.008,3.015-3.008,3.015L164,393.2ZM171,394.173l3.015,3.015-1.953,1.953H169.94l-1.953-1.953Zm-3.022-4.961L171,386.2l3.015,3.015L171,392.22Zm0-7.983L171,378.22l3.015,3.008L171,384.244Zm2.036-11.965-3.008,3.015-3.015-3.015,2.7-2.7h.635Zm-7-.973-1.725-1.725h3.45Zm-.98.973-3.008,3.015-3.015-3.015,2.7-2.7h.607Zm-5.278-2.7-1.725,1.725-1.718-1.725Zm-5.4,0,2.7,2.7-3.022,3.029-2.622-2.629-.055-.69,2.36-2.367Zm-2.581,0-.559.559h0l-.048-.559Zm-.186,5.209,1.477,1.477-1.256,1.256Zm.821,10.109-.117-1.428h0l.773.773Zm.145,1.815,1.483-1.49,3.015,3.015-3.022,3.022-1.214-1.214Zm.448,5.575v-.131l.069.069-.062.062Zm.524,6.424-.38-4.623.89-.89,3.015,3.015-3.022,3.022-.511-.511Zm.276,3.45-.055-.69.283-.276.98.98Zm1.214-1.953,3.008-3.015,3.015,3.015-1.953,1.953h-2.125Zm6.024,1.953.98-.98.98.98Zm3.905,0-1.946-1.946,3.015-3.015,3.008,3.015-1.946,1.953Zm4.071,0,.98-.98.98.98Zm9.191,0H174l.98-.966.29.29Zm.283-3.45-.518.511-3.015-3.008,3.015-3.015.89.89Zm.531-6.562v.138l-.062-.062.076-.076Zm.173-2.118-1.221,1.214-3.015-3.008,3.015-3.015,1.49,1.49Zm.414-5.127-.69-.69.78-.773Zm.821-10.122-.221,2.76-1.263-1.263,1.483-1.483Z" transform="translate(-144.803 -363.972)" fill="#0091ff"/>
        <g id="Group_4414" data-name="Group 4414" transform="translate(1.877 1.228)" opacity="0.6">
          <path id="Path_48403" data-name="Path 48403" d="M176.046,365.2H146.68l.242,2.967.172,2.118.448,5.52.255,3.167.338,4.216.145,1.808.048.538.172,2.125.235,2.912.145,1.808.152,1.835.173,2.125.131,1.608.145,1.808.062.787h26.951l.062-.787.145-1.8.131-1.622.173-2.125.152-1.828.145-1.808.235-2.919.173-2.118.041-.538.145-1.808.345-4.216.255-3.16.442-5.52.173-2.118.241-2.967Zm1.766,1.932h0l-.566-.566h.614Zm-.145,1.8-.055.69-2.629,2.629-3.015-3.015,2.7-2.7h.635Zm-.759,9.4-1.925,1.911-3.015-3.015,3.015-3.008,2.07,2.07Zm-27.938-2h0l2.07-2.07,3.015,3.008-3.015,2.974-1.918-1.925Zm25.047-3.064L171,376.281l-3.015-3.015L171,370.251Zm-4.74-6.686h3.45L171,368.3Zm.745,10.674-3.015,2.988-3.015-3.015,3.015-3.008Zm-10.012,3.988,3.015-3.008,3.008,3.008-3.008,3.015Zm2.036,3.988-3.015,3.015-3.008-3.008,3.015-3.015Zm4.968-3.008,3.008,3.015-3.008,3.008L164,385.231Zm-3.988-5.941-3.015-3.015,3.015-3.015,3.008,3.015Zm-.98.973-3.015,2.988-3.015-3.015,3.015-3.008Zm-7-.973-3.008-3.015,3.008-3.015,3.015,3.015Zm0,1.953,3.015,3.008-3.015,3.015-3.008-3.015Zm3.008,10.978-3.015,3.008-3.008-3.008,3.008-3.015Zm.973.973,3.015,3.015-3.008,3.015-3.015-3.015Zm.987-.973,3.015-3.015,3.008,3.015-3.008,3.008Zm7,.973,3.008,3.015-3.008,3.015L164,393.2ZM171,394.173l3.015,3.015-1.953,1.953H169.94l-1.953-1.953Zm-3.022-4.961L171,386.2l3.015,3.015L171,392.22Zm0-7.983L171,378.22l3.015,3.008L171,384.244Zm2.036-11.965-3.008,3.015-3.015-3.015,2.7-2.7h.635Zm-7-.973-1.725-1.725h3.45Zm-.98.973-3.008,3.015-3.015-3.015,2.7-2.7h.607Zm-5.278-2.7-1.725,1.725-1.718-1.725Zm-5.4,0,2.7,2.7-3.022,3.029-2.622-2.629-.055-.69,2.36-2.367Zm-2.581,0-.559.559h0l-.048-.559Zm-.186,5.209,1.477,1.477-1.256,1.256Zm.821,10.109-.117-1.428h0l.773.773Zm.145,1.815,1.483-1.49,3.015,3.015-3.022,3.022-1.214-1.214Zm.448,5.575v-.131l.069.069-.062.062Zm.524,6.424-.38-4.623.89-.89,3.015,3.015-3.022,3.022-.511-.511Zm.276,3.45-.055-.69.283-.276.98.98Zm1.214-1.953,3.008-3.015,3.015,3.015-1.953,1.953h-2.125Zm6.024,1.953.98-.98.98.98Zm3.905,0-1.946-1.946,3.015-3.015,3.008,3.015-1.946,1.953Zm4.071,0,.98-.98.98.98Zm9.191,0H174l.98-.966.29.29Zm.283-3.45-.518.511-3.015-3.008,3.015-3.015.89.89Zm.531-6.562v.138l-.062-.062.076-.076Zm.173-2.118-1.221,1.214-3.015-3.008,3.015-3.015,1.49,1.49Zm.414-5.127-.69-.69.78-.773Zm.821-10.122-.221,2.76-1.263-1.263,1.483-1.483Z" transform="translate(-146.68 -365.2)" fill="#fff"/>
        </g>
        <rect id="Rectangle_4204" data-name="Rectangle 4204" width="36.432" height="3.843" rx="1.64" transform="translate(36.432 3.843) rotate(180)" fill="#0091ff"/>
        <rect id="Rectangle_4205" data-name="Rectangle 4205" width="31.181" height="3.843" rx="1.64" transform="translate(2.622 34.493)" fill="#0091ff"/>
      </g>
    </g>
  </g>
</svg>
