<?xml version="1.0" encoding="UTF-8"?><svg id="Layer_2" xmlns="http://www.w3.org/2000/svg" viewBox="0 0 40 40"><defs><style>.cls-1{fill:#fff;}.cls-2{fill:none;}</style></defs><g id="Layer_1-2"><g><rect class="cls-2" width="40" height="40"/><g><path class="cls-1" d="M.56,6.21c.35-.92,1.03-1.22,1.99-1.21,4.5,.02,9,0,13.5,.01,.28,0,.57,.02,.83,.1,.67,.2,1.05,.79,1.06,1.57,0,1.87,0,3.74,0,5.6,0,5.34,0,10.67,0,16.01v.46c.87-.23,1.53-1.12,1.54-2.1,.02-.84,0-1.69,0-2.53,0-.55,.31-.91,.77-.91,.46,0,.78,.36,.77,.91,0,1.01,.07,2.03-.05,3.03-.21,1.63-1.19,2.7-2.77,3.2-.08,.03-.17,.06-.27,.1,0,1.25,0,2.49,0,3.73,0,1.21-.6,1.82-1.81,1.82-4.53,0-9.05-.01-13.58,.01-.95,0-1.64-.29-1.99-1.21V6.21Zm15.81,.38H2.13v27.81h14.22v-3.89h-1.51c-.01,.08-.02,.13-.03,.18-.15,1.25-1.06,2.1-2.33,2.1-2.17,.01-4.33,.01-6.5,0-1.22,0-2.17-.84-2.29-2.05-.07-.71-.06-1.44,.01-2.14,.12-1.12,1.04-1.95,2.16-1.96,2.26-.03,4.51-.03,6.77,0,1.04,.01,1.91,.78,2.13,1.79,.04,.16,.05,.32,.08,.49h1.52V6.59Zm-7.15,24.66c1.08,0,2.15,0,3.23,0,.52,0,.81-.29,.82-.8,.01-.49,.01-.97,0-1.46-.01-.54-.3-.82-.85-.82-2.11,0-4.23,0-6.34,0-.57,0-.85,.27-.87,.84-.01,.46-.01,.92,0,1.38,.02,.58,.3,.86,.89,.86,1.04,0,2.07,0,3.11,0Z"/><path class="cls-1" d="M39.95,34.79c-.35,.92-1.03,1.22-1.99,1.21-4.5-.02-9,0-13.5-.01-.28,0-.57-.02-.83-.1-.68-.21-1.06-.8-1.06-1.61,0-2.52,0-5.04,0-7.56,0-4.67,0-9.34,0-14.01v-.46c-.88,.24-1.53,1.13-1.54,2.1-.01,.84,0,1.69,0,2.53,0,.55-.31,.91-.77,.91-.46,0-.78-.36-.77-.91,.01-1.06-.07-2.14,.09-3.18,.23-1.55,1.2-2.56,2.7-3.03,.26-.08,.3-.19,.3-.43,0-1.16,0-2.33,0-3.49,0-1.11,.62-1.74,1.74-1.74,4.63,0,9.26,0,13.89,0,.89,0,1.44,.41,1.76,1.21v28.57Zm-1.57-28.18h-14.24v27.79h14.24V6.6Z"/><path class="cls-1" d="M20.26,21.27c-.43,0-.78-.35-.77-.78,0-.42,.35-.75,.76-.75,.43,0,.78,.35,.77,.78,0,.42-.35,.75-.76,.75Z"/><path class="cls-1" d="M9.21,23.51c1.56,0,3.13,0,4.69,0,.56,0,.88,.27,.91,.73,.02,.42-.24,.74-.66,.8-.13,.02-.26,.02-.38,.02-3.01,0-6.03,0-9.04,0-.7,0-1.07-.26-1.07-.76,0-.51,.37-.79,1.09-.79,1.49,0,2.97,0,4.46,0Z"/><path class="cls-1" d="M9.27,8.12c1.55,0,3.1-.01,4.65,.01,.25,0,.58,.13,.72,.32,.14,.17,.15,.51,.09,.74-.07,.31-.36,.45-.68,.47-.31,.01-.62,0-.92,0-2.8,0-5.59,0-8.39,0-.1,0-.21,0-.31,0-.46-.03-.79-.36-.78-.78,0-.42,.34-.75,.8-.75,1.6,0,3.21,0,4.81,0Z"/><path class="cls-1" d="M6.83,21.96c-.77,0-1.54,0-2.31,0-.52,0-.87-.33-.86-.78,0-.44,.35-.76,.84-.76,1.55,0,3.1,0,4.65,0,.51,0,.87,.33,.86,.78,0,.45-.35,.75-.88,.76-.77,0-1.54,0-2.31,0Z"/><path class="cls-1" d="M31.28,8.12c1.54,0,3.08,0,4.62,0,.68,0,.96,.27,.96,.95,0,3.07,0,6.14,0,9.21,0,.69-.29,.97-.99,.97-3.06,0-6.13,0-9.19,0-.71,0-.99-.26-.99-.96,0-3.07,0-6.14,0-9.21,0-.72,.26-.97,.98-.97,1.54,0,3.08,0,4.62,0Zm-4.02,9.57h8.01V9.69h-8.01v8Z"/><path class="cls-1" d="M31.28,25.46c-1.5,0-3,0-4.5,0-.17,0-.34,0-.5-.04-.35-.07-.57-.36-.58-.71-.01-.36,.19-.65,.53-.75,.1-.03,.2-.05,.3-.05,3.15,0,6.31,0,9.46,0,.65,0,1.03,.55,.79,1.08-.16,.37-.48,.47-.85,.47-.85,0-1.69,0-2.54,0-.71,0-1.41,0-2.12,0Z"/><path class="cls-1" d="M31.3,22.35c-1.58,0-3.15,0-4.73,0-.37,0-.66-.12-.81-.46-.21-.47,.08-.99,.6-1.07,.13-.02,.26-.01,.38-.01,3.03,0,6.05,0,9.08,0,.09,0,.18,0,.27,0,.44,.03,.76,.35,.77,.76,0,.42-.32,.76-.78,.78-.49,.01-.97,0-1.46,0-1.1,0-2.21,0-3.31,0Z"/><path class="cls-1" d="M28.86,27.01c.77,0,1.54,0,2.31,0,.54,0,.87,.29,.87,.76,0,.47-.34,.78-.89,.79-1.51,0-3.03,0-4.54,0-.57,0-.9-.29-.91-.77,0-.48,.32-.77,.89-.78,.76,0,1.51,0,2.27,0Z"/></g></g></g></svg>