<?xml version="1.0" encoding="UTF-8"?><svg id="Layer_2" xmlns="http://www.w3.org/2000/svg" viewBox="0 0 40 40"><defs><style>.cls-1{fill:#0091ff;}.cls-2{fill:none;}</style></defs><g id="Layer_1-2"><g><rect class="cls-2" width="40" height="40"/><g><path class="cls-1" d="M34.26,12.08C32.8,4.93,25.82,.32,18.68,1.78c-5.24,1.07-9.32,5.2-10.33,10.46C2.97,13.2-.61,18.34,.35,23.73c.84,4.72,4.95,8.16,9.75,8.16h.66v-2.64h-.66c-4.01,0-7.26-3.24-7.26-7.25,0-3.82,2.95-6.99,6.76-7.24l1.1-.08,.12-1.1c.63-5.79,5.84-9.98,11.63-9.35,4.37,.47,7.98,3.61,9.08,7.86h2.72Z"/><path class="cls-1" d="M37.17,14.72h-13.2c-1.46,0-2.64,1.18-2.64,2.64v5.28h-5.28c-1.46,0-2.64,1.18-2.64,2.64v13.2h26.41V17.36c0-1.46-1.18-2.64-2.64-2.64Zm-21.13,21.13v-10.56h5.28v10.56h-5.28Zm21.13,0h-13.2V17.36h13.2v18.49Z"/><rect class="cls-1" x="26.6" y="20" width="2.64" height="5.28"/><rect class="cls-1" x="31.88" y="20" width="2.64" height="5.28"/><rect class="cls-1" x="26.6" y="27.92" width="2.64" height="5.28"/><rect class="cls-1" x="31.88" y="27.92" width="2.64" height="5.28"/></g></g></g></svg>