<svg xmlns="http://www.w3.org/2000/svg" viewBox="0 0 70 70"><defs><style>.cls-1{fill:none;}.cls-2{fill:#0091ff;}</style></defs><g id="Layer_2" data-name="Layer 2"><g id="Layer_1-2" data-name="Layer 1"><rect class="cls-1" width="70" height="70"/><path class="cls-2" d="M35.9,5a2.18,2.18,0,0,1,1.4,2.39c0,.73,0,1.47,0,2.2a1.86,1.86,0,1,1-3.71,0c0-.73,0-1.47,0-2.2A2.17,2.17,0,0,1,35,5Z"/><path class="cls-2" d="M42.3,53.83a7.83,7.83,0,0,1,.46,4.74,4.51,4.51,0,0,1-4.58,3.93h-.64A9.42,9.42,0,0,1,36.47,64a1.8,1.8,0,0,1-1.13.34c-.92,0-1.54-.65-1.78-1.7A16.22,16.22,0,0,1,31,62.15a4.42,4.42,0,0,1-3-4.1,8.36,8.36,0,0,1,.45-4,.39.39,0,0,0-.08-.34,4.81,4.81,0,0,1-1.3-3.94A2,2,0,0,0,26,47.63c-6-4-8.87-9.71-8-16.89.92-7.59,5.3-12.62,12.61-14.87a17.62,17.62,0,0,1,14,32,1.37,1.37,0,0,0-.75,1.37,10,10,0,0,1,0,1.73A4.69,4.69,0,0,1,42.3,53.83Zm-6.91-2.46h3c1.61,0,1.79-.12,1.72-1.75a5.27,5.27,0,0,1,2.76-5,13.34,13.34,0,0,0,6.49-10.67,13.93,13.93,0,1,0-27.22,2.93,13.57,13.57,0,0,0,6.16,7.89,4.78,4.78,0,0,1,2.5,3.56,17.34,17.34,0,0,1,.05,1.91c0,.83.33,1.15,1.17,1.15Zm.08,7.42c.89,0,1.78,0,2.67,0a.91.91,0,0,0,1-1q0-.9,0-1.8a.9.9,0,0,0-1-.94c-1.83,0-3.67,0-5.5,0a.89.89,0,0,0-.95.95c0,.56,0,1.12,0,1.68a1,1,0,0,0,1.07,1.07Z"/><path class="cls-2" d="M10.85,34.67c-.49,0-1,0-1.45,0a1.85,1.85,0,0,1-1.78-1.85A1.81,1.81,0,0,1,9.39,31c1,0,2,0,3,0a1.83,1.83,0,0,1,1.75,1.81,1.85,1.85,0,0,1-1.75,1.88C11.85,34.7,11.35,34.67,10.85,34.67Z"/><path class="cls-2" d="M60,31c.48,0,1,0,1.45,0a1.85,1.85,0,0,1,0,3.7c-1,0-2,0-3,0a1.85,1.85,0,0,1,0-3.7C59,31,59.53,31,60,31Z"/><path class="cls-2" d="M55.74,51.15a2,2,0,0,1-1.17,1.71,1.71,1.71,0,0,1-2-.26c-.77-.7-1.51-1.44-2.21-2.21A1.84,1.84,0,0,1,53,47.81,27.75,27.75,0,0,1,55.18,50,4.45,4.45,0,0,1,55.74,51.15Z"/><path class="cls-2" d="M17.15,53.12a2,2,0,0,1-1.75-1.18,1.73,1.73,0,0,1,.3-2c.68-.72,1.37-1.42,2.09-2.09a1.81,1.81,0,0,1,2.56,0,1.83,1.83,0,0,1,0,2.56c-.68.71-1.36,1.42-2.1,2.07A4.77,4.77,0,0,1,17.15,53.12Z"/><path class="cls-2" d="M15.13,14.49a2,2,0,0,1,1.17-1.7,1.7,1.7,0,0,1,1.95.26c.77.7,1.51,1.43,2.21,2.2a1.85,1.85,0,0,1-2.62,2.58,29.63,29.63,0,0,1-2.16-2.18A4.77,4.77,0,0,1,15.13,14.49Z"/><path class="cls-2" d="M55.65,14.71a4.86,4.86,0,0,1-.58,1.07c-.6.7-1.28,1.33-2,2a1.85,1.85,0,0,1-2.6-2.63c.65-.68,1.32-1.35,2-2a1.74,1.74,0,0,1,2-.35A1.9,1.9,0,0,1,55.65,14.71Z"/><path class="cls-2" d="M35.58,22.59a10.15,10.15,0,0,1,9.18,6.13,1.86,1.86,0,0,1-.84,2.64,1.88,1.88,0,0,1-2.54-1.12,6.46,6.46,0,0,0-6.64-3.85,1.88,1.88,0,0,1-2.14-1.65,1.85,1.85,0,0,1,1.67-2C34.65,22.63,35,22.63,35.58,22.59Z"/><path class="cls-2" d="M40.86,36.93a1.84,1.84,0,0,1,1.84-1.84,1.85,1.85,0,1,1,0,3.69A1.82,1.82,0,0,1,40.86,36.93Z"/></g></g></svg>