<svg xmlns="http://www.w3.org/2000/svg" viewBox="0 0 70 70"><defs><style>.cls-1{fill:none;}.cls-2{fill:#0091ff;}</style></defs><g id="Layer_2" data-name="Layer 2"><g id="Layer_1-2" data-name="Layer 1"><rect class="cls-1" width="70" height="70"/><path class="cls-2" d="M66.82,16.55V58.34a.65.65,0,0,0-.08.17A5.64,5.64,0,0,1,61,63.3q-25.81,0-51.62,0a6.53,6.53,0,0,1-1.65-.19,5.54,5.54,0,0,1-4.19-5.75q0-20,0-40c0-1.61.67-2.27,2.3-2.27H22.18c0-.64,0-1.18,0-1.71a5.57,5.57,0,0,1,5.71-5.71c4.84,0,9.69,0,14.53,0A6.3,6.3,0,0,1,45,8.25a5.35,5.35,0,0,1,3.16,5.1c0,.57,0,1.13,0,1.72H49c5.15,0,10.3,0,15.45,0A2.13,2.13,0,0,1,66.82,16.55ZM7.33,28.7l-.11,0V57.24c0,1.7.65,2.34,2.36,2.34H60.76c1.7,0,2.35-.65,2.35-2.35V28.72a.82.82,0,0,0-.26.43c-.86,2.55-1.72,5.11-2.57,7.66A5.62,5.62,0,0,1,54.4,41h-10c0,.61,0,1.15,0,1.68a1.86,1.86,0,0,1-2,2H27.92a1.86,1.86,0,0,1-2-2c0-.55,0-1.09,0-1.67H15.66a5.52,5.52,0,0,1-5.5-3.88c-.48-1.34-.9-2.69-1.35-4S7.82,30.17,7.33,28.7ZM8,18.8c0,.13.06.23.09.33q2.79,8.37,5.58,16.74a1.89,1.89,0,0,0,2.1,1.45h9.64a5,5,0,0,0,.51,0c0-.57,0-1.1,0-1.64a1.86,1.86,0,0,1,2.05-2H42.4a1.86,1.86,0,0,1,2,2c0,.55,0,1.09,0,1.66h10a2,2,0,0,0,2.36-1.7l5.4-16.22c.06-.19.11-.38.18-.6ZM25.89,15H44.43c0-.56,0-1.07,0-1.58a1.88,1.88,0,0,0-2.1-2.09H27.88a1.85,1.85,0,0,0-2,2C25.88,13.88,25.89,14.43,25.89,15Zm3.73,26H40.67V37.36h-11Z"/></g></g></svg>