<svg xmlns="http://www.w3.org/2000/svg" viewBox="0 0 70 70"><defs><style>.cls-1{fill:none;}.cls-2{fill:#0091ff;}</style></defs><g id="Layer_2" data-name="Layer 2"><g id="Layer_1-2" data-name="Layer 1"><rect class="cls-1" width="70" height="70"/><path class="cls-2" d="M10.15,61.43V18.5c0-1.95.83-2.76,2.79-2.76h6.35V12.64c0-1.14,0-2.29,0-3.43C19.3,7.05,21,6,22.87,7L46.79,18.92l3.06,1.54a2.38,2.38,0,0,1,1.44,2.34c0,2.18,0,4.37,0,6.61l.73,0H58a2.29,2.29,0,0,1,2.48,2.43V54.44a2.29,2.29,0,1,1-4.57,0V34.06H51.33V61.43h.73c3.54,0,7.09,0,10.64,0a2.28,2.28,0,0,1,2.29,2A2.31,2.31,0,0,1,63.18,66a3.35,3.35,0,0,1-.71,0H8.13a2.3,2.3,0,0,1-2.4-3.06,2.27,2.27,0,0,1,2.13-1.51Zm36.57,0v-.83q0-17.88,0-35.77A1.11,1.11,0,0,0,46,23.62Q35.28,18.3,24.57,12.92c-.21-.1-.42-.18-.71-.3V53.94c0,.26,0,.52,0,.78a2.28,2.28,0,0,1-4.53.24,4.91,4.91,0,0,1,0-.86q0-16.45,0-32.91v-.84H14.78v41H28.44v-.81c0-2,0-3.95,0-5.92a2.22,2.22,0,0,1,2.18-2.35q4.68-.06,9.35,0a2.22,2.22,0,0,1,2.17,2.29c0,1.45,0,2.91,0,4.36V61.4ZM33.05,56.89v4.49h4.49V56.89Z"/><path class="cls-2" d="M33,24.93H28.47V29.4H33Zm9.11,4.49V24.91H37.62v4.51ZM33,38.55V34.06H28.49v4.49Zm9.13,0V34.07H37.61v4.48ZM28.45,47.66H33V43.21H28.45Zm9.16,0h4.48V43.19H37.61Z"/><path class="cls-2" d="M33,24.93V29.4H28.47V24.93Z"/><path class="cls-2" d="M42.09,29.42H37.62V24.91h4.47Z"/><path class="cls-2" d="M33,38.55H28.49V34.06H33Z"/><path class="cls-2" d="M42.1,38.55H37.61V34.07H42.1Z"/><path class="cls-2" d="M28.45,47.66V43.21H33v4.45Z"/><path class="cls-2" d="M37.61,47.67V43.19h4.48v4.48Z"/></g></g></svg>