<?xml version="1.0" encoding="UTF-8"?><svg id="Layer_2" xmlns="http://www.w3.org/2000/svg" viewBox="0 0 40 40"><defs><style>.cls-1{fill:#fff;}.cls-2{fill:none;}</style></defs><g id="Layer_1-2"><g><rect class="cls-2" width="40" height="40"/><path class="cls-1" d="M39.15,13.26C37.25,5.48,29.08,.78,20.06,.78,9.14,.78,.32,9.54,.32,20.39s8.83,19.61,19.81,19.61c15.17,0,13.99-7.71,9.15-10.72-2.88-1.83-4.45-5.95-1.57-8.89,5.3-5.49,13.86,3.27,11.44-7.13ZM9.27,26.93c-2.29,0-4.12-1.83-4.12-4.05s1.83-4.05,4.12-4.05,4.05,1.83,4.05,4.05-1.77,4.05-4.05,4.05Zm.85-15.56c0-2.29,1.83-4.05,4.05-4.05s4.05,1.83,4.05,4.05-1.83,4.05-4.05,4.05c-2.29,.07-4.05-1.7-4.05-4.05Zm8.96,23.73c-2.29,0-4.05-1.83-4.05-4.05s1.83-4.05,4.05-4.05,4.05,1.83,4.05,4.05-1.77,4.05-4.05,4.05Zm7.39-21.25c-2.29,0-4.05-1.83-4.05-4.05s1.83-4.05,4.05-4.05,4.05,1.83,4.05,4.05-1.77,4.05-4.05,4.05Z"/></g></g></svg>