<?xml version="1.0" encoding="UTF-8"?><svg id="Layer_2" xmlns="http://www.w3.org/2000/svg" viewBox="0 0 40 40"><defs><style>.cls-1{fill:#fff;}.cls-2{fill:none;}</style></defs><g id="Layer_1-2"><g><rect class="cls-2" width="40" height="40"/><g><path class="cls-1" d="M17.29,27.38c0,1.99,0,3.97,0,5.94,0,.88,.03,1.76-.08,2.63-.22,1.69-1.7,3.01-3.41,3.02-3.08,.03-6.16,.03-9.25,0-1.91-.02-3.46-1.62-3.51-3.54,0-.12,0-.23,0-.35,0-6.19,0-12.38,0-18.56,0-2.37,1.53-3.9,3.89-3.9,2.84,0,5.67,0,8.51,0,2.29,0,3.84,1.55,3.84,3.84,0,2.95,0,5.89,0,8.84v.42c.82,.03,1.55-.78,1.55-1.74,0-2.09,0-4.19,0-6.28,0-.35,.03-.7,.12-1.03,.37-1.45,1.67-2.46,3.17-2.49,.18,0,.35,0,.57,0v-.45c0-2.96,0-5.92,0-8.88,0-2.32,1.54-3.86,3.85-3.86,2.85,0,5.7,0,8.55,0,2.29,0,3.84,1.55,3.84,3.83,0,6.23,0,12.45,0,18.68,0,2.29-1.55,3.84-3.83,3.84-2.86,0-5.73,0-8.59,0-2.28,0-3.82-1.55-3.83-3.85,0-2.43,0-4.86,0-7.29v-.42c-1.19-.32-2.31,.52-2.32,1.75-.01,1.96,0,3.93,0,5.89,0,2.32-.82,3.37-3.1,3.94Zm20.09-6.23V7.22h-13.1v6.93h5.78l-.13-.15c-.34-.41-.34-.82-.02-1.14,.33-.32,.75-.29,1.13,.07,.49,.48,.98,.96,1.46,1.44,.33,.33,.37,.79,.06,1.11-.53,.55-1.07,1.09-1.63,1.6-.31,.29-.76,.25-1.05-.04-.28-.28-.3-.68-.05-1.02,.06-.08,.13-.17,.2-.27h-5.76v5.39h13.09Zm-21.65,6.21c-1.19,0-2.35,0-3.51,0-.3,0-.46,.06-.59,.38-.59,1.55-2.32,2.33-3.88,1.78-1.57-.56-2.42-2.22-1.94-3.81,.38-1.27,1.53-2.17,2.82-2.21,1.35-.05,2.55,.72,3.01,1.99,.1,.27,.23,.35,.5,.33,.4-.02,.8,0,1.2,0h2.36v-6.96H2.61v13.91H15.73v-5.4ZM24.23,5.62h13.17c0-.39,.02-.75,0-1.11-.07-1.09-.94-1.95-2.02-1.96-3.03-.01-6.06-.01-9.09,0-.96,0-1.77,.67-1.96,1.62-.09,.46-.07,.95-.1,1.45Zm-8.51,11.65c0-.46,.05-.88,0-1.3-.14-1.04-.98-1.78-2.02-1.79-3.02-.01-6.03,0-9.05,0-.88,0-1.67,.54-1.91,1.38-.15,.54-.14,1.13-.2,1.71H15.72Zm8.54,5.46c0,.34,0,.66,0,.98,.02,1.18,.91,2.09,2.09,2.09,2.99,0,5.98,0,8.97,0,1.05,0,1.89-.71,2.05-1.75,.07-.42,.01-.87,.01-1.32h-13.12ZM2.59,34.35c0,.36,0,.69,0,1.01,.02,1.16,.91,2.06,2.07,2.07,3,.01,6.01,0,9.01,0,.91,0,1.72-.57,1.94-1.44,.14-.52,.12-1.08,.17-1.64H2.59Zm6.2-9.32c-.85,0-1.55,.69-1.56,1.54,0,.85,.69,1.56,1.53,1.56,.85,0,1.55-.69,1.56-1.54,0-.85-.69-1.56-1.53-1.56Z"/><path class="cls-1" d="M14.97,5.25c0,.63-.51,1.16-1.14,1.18-.64,.01-1.19-.52-1.18-1.17,0-.63,.53-1.15,1.15-1.16,.63,0,1.16,.52,1.16,1.15Z"/><path class="cls-1" d="M36.27,32.79c-.63,0-1.16-.51-1.17-1.14-.01-.64,.52-1.19,1.16-1.19,.63,0,1.15,.53,1.15,1.16,0,.63-.52,1.16-1.15,1.17Z"/><path class="cls-1" d="M4.12,4.88c.41-.01,.77,.32,.79,.73,.02,.43-.33,.8-.75,.81-.43,.01-.79-.35-.79-.77,0-.41,.34-.76,.75-.77Z"/><path class="cls-1" d="M19.63,7.98c.41,0,.75,.35,.76,.77,0,.43-.36,.79-.78,.78-.43,0-.78-.38-.76-.8,.02-.41,.37-.75,.78-.74Z"/><path class="cls-1" d="M21.93,31.24c0,.43-.37,.78-.79,.77-.41-.01-.75-.36-.75-.77,0-.43,.36-.78,.79-.77,.41,.01,.75,.36,.75,.77Z"/><path class="cls-1" d="M30.45,37.45c0,.43-.38,.78-.8,.76-.41-.02-.75-.37-.74-.79,0-.43,.38-.78,.8-.76,.41,.02,.75,.37,.74,.79Z"/></g></g></g></svg>