<svg xmlns="http://www.w3.org/2000/svg" width="345" height="307" viewBox="0 0 345 307">
  <g id="Group_4426" data-name="Group 4426" transform="translate(13633 -4631)">
    <rect id="Rectangle_4440" data-name="Rectangle 4440" width="345" height="307" transform="translate(-13633 4631)" fill="#fff" opacity="0"/>
    <g id="Mobile_UX-rafiki" data-name="Mobile UX-rafiki" transform="translate(-13633 4600.967)">
      <g id="freepik--background-complete--inject-1" transform="translate(0 55)">
        <rect id="Rectangle_4324" data-name="Rectangle 4324" width="345" height="0.172" transform="translate(0 225.906)" fill="#ebebeb"/>
        <rect id="Rectangle_4325" data-name="Rectangle 4325" width="22.853" height="0.172" transform="translate(287.578 237.008)" fill="#ebebeb"/>
        <rect id="Rectangle_4326" data-name="Rectangle 4326" width="5.996" height="0.172" transform="translate(222.546 238.885)" fill="#ebebeb"/>
        <rect id="Rectangle_4327" data-name="Rectangle 4327" width="13.241" height="0.172" transform="translate(273.647 230.605)" fill="#ebebeb"/>
        <rect id="Rectangle_4328" data-name="Rectangle 4328" width="29.801" height="0.172" transform="translate(36.197 231.764)" fill="#ebebeb"/>
        <rect id="Rectangle_4329" data-name="Rectangle 4329" width="4.368" height="0.172" transform="translate(72.146 231.764)" fill="#ebebeb"/>
        <rect id="Rectangle_4330" data-name="Rectangle 4330" width="64.639" height="0.172" transform="translate(90.714 234.676)" fill="#ebebeb"/>
        <path id="Path_48723" data-name="Path 48723" d="M175.375,250.132H42.143a3.94,3.94,0,0,1-3.933-3.94V58.905A3.94,3.94,0,0,1,42.143,55H175.375a3.94,3.94,0,0,1,3.94,3.94V246.192A3.94,3.94,0,0,1,175.375,250.132ZM42.143,55.138a3.767,3.767,0,0,0-3.761,3.767V246.192a3.767,3.767,0,0,0,3.76,3.767H175.375a3.774,3.774,0,0,0,3.767-3.767V58.905a3.774,3.774,0,0,0-3.767-3.767Z" transform="translate(-11.845 -55)" fill="#ebebeb"/>
        <path id="Path_48724" data-name="Path 48724" d="M391.679,250.132H258.44a3.947,3.947,0,0,1-3.94-3.94V58.905A3.947,3.947,0,0,1,258.44,55H391.679a3.94,3.94,0,0,1,3.926,3.905V246.192A3.94,3.94,0,0,1,391.679,250.132ZM258.44,55.138a3.774,3.774,0,0,0-3.767,3.767V246.192a3.774,3.774,0,0,0,3.767,3.767H391.679a3.774,3.774,0,0,0,3.767-3.767V58.905a3.774,3.774,0,0,0-3.767-3.767Z" transform="translate(-78.895 -55)" fill="#ebebeb"/>
        <rect id="Rectangle_4331" data-name="Rectangle 4331" width="86.098" height="88.962" transform="translate(44.988 50.522)" fill="#ebebeb"/>
        <rect id="Rectangle_4332" data-name="Rectangle 4332" width="86.098" height="88.962" transform="translate(47.996 50.522)" fill="#f0f0f0"/>
        <rect id="Rectangle_4333" data-name="Rectangle 4333" width="81.648" height="84.787" transform="translate(50.163 52.626)" fill="#e0e0e0"/>
        <rect id="Rectangle_4334" data-name="Rectangle 4334" width="79.605" height="84.787" transform="translate(50.163 52.626)" fill="#f5f5f5"/>
        <rect id="Rectangle_4335" data-name="Rectangle 4335" width="1.615" height="84.787" transform="translate(89.176 52.626)" fill="#ebebeb"/>
        <path id="Path_48725" data-name="Path 48725" d="M104.578,131.27,81.89,216.057H79.71L102.4,131.27Z" transform="translate(-24.71 -78.644)" fill="#fff"/>
        <rect id="Rectangle_4336" data-name="Rectangle 4336" width="1.387" height="87.72" transform="translate(90.1 51.322)" fill="#f0f0f0"/>
        <path id="Path_48726" data-name="Path 48726" d="M94.166,131.27,72.7,211.51v-44.1l9.667-36.135Z" transform="translate(-22.537 -78.644)" fill="#fff"/>
        <path id="Path_48727" data-name="Path 48727" d="M178.8,142.42v8.142L160.35,219.514h-2.18Z" transform="translate(-49.033 -82.1)" fill="#fff"/>
        <path id="Path_48728" data-name="Path 48728" d="M180.779,166.24v44.1L176.356,226.9H164.55Z" transform="translate(-51.011 -89.484)" fill="#fff"/>
        <path id="Path_48729" data-name="Path 48729" d="M169.29,295.841h8.77v-.586c0-1.139-1.283-2.07-2.808-1.987l-3.45.138c-1.38.062-2.512.932-2.512,1.987Z" transform="translate(-52.48 -128.861)" fill="#f0f0f0"/>
        <path id="Path_48730" data-name="Path 48730" d="M194.37,289.666h11.564l1.842-16.153a1.138,1.138,0,0,0-1.132-1.083H198.9a1.132,1.132,0,0,0-1.132,1.083Z" transform="translate(-60.255 -122.403)" fill="#e6e6e6"/>
        <path id="Path_48731" data-name="Path 48731" d="M168.436,238h2.9l3.25,30.5H171.7a1,1,0,0,1-.98-.828L167.664,238.9a.759.759,0,0,1,.773-.9Z" transform="translate(-51.971 -111.73)" fill="#e6e6e6"/>
        <path id="Path_48732" data-name="Path 48732" d="M173.453,268.528h43.291a.766.766,0,0,0,.773-.869l-3.057-28.766a.994.994,0,0,0-.959-.862H170.21a.759.759,0,0,0-.773.862l3.057,28.787a1,1,0,0,0,.959.849Z" transform="translate(-52.523 -111.739)" fill="#ebebeb"/>
        <path id="Path_48733" data-name="Path 48733" d="M174.847,266.186h40.807a.69.69,0,0,0,.69-.752l-2.67-25.1a.862.862,0,0,0-.835-.759h-40.82a.69.69,0,0,0-.69.759l2.67,25.1A.863.863,0,0,0,174.847,266.186Z" transform="translate(-53.111 -112.22)" fill="#fafafa"/>
        <path id="Path_48734" data-name="Path 48734" d="M193.458,295.59h14.228a.628.628,0,0,1,.628.628h0a.628.628,0,0,1-.628.628H193.458a.628.628,0,0,1-.628-.628h0A.628.628,0,0,1,193.458,295.59Z" transform="translate(-59.777 -129.583)" fill="#e6e6e6"/>
        <rect id="Rectangle_4337" data-name="Rectangle 4337" width="35.224" height="5.313" transform="translate(133.874 172.217) rotate(180)" fill="#e6e6e6"/>
        <path id="Path_48735" data-name="Path 48735" d="M284.508,358.63h.876a.2.2,0,0,0,.2-.2l1.38-53.82H282.9l1.38,53.82a.214.214,0,0,0,.228.2Z" transform="translate(-87.699 -132.379)" fill="#e6e6e6"/>
        <path id="Path_48736" data-name="Path 48736" d="M327.179,358.621h2.029l-5.734-54.041H319.41Z" transform="translate(-99.017 -132.37)" fill="#f0f0f0"/>
        <path id="Path_48737" data-name="Path 48737" d="M140.075,358.621h0l7.783-54.041H143.8l-5.741,54.041Z" transform="translate(-42.799 -132.37)" fill="#e6e6e6"/>
        <rect id="Rectangle_4338" data-name="Rectangle 4338" width="102.976" height="5.313" transform="translate(226.803 172.217) rotate(180)" fill="#f5f5f5"/>
        <path id="Path_48738" data-name="Path 48738" d="M183.732,358.621h2.332l.862-54.041H182.87Z" transform="translate(-56.69 -132.37)" fill="#f0f0f0"/>
        <path id="Path_48739" data-name="Path 48739" d="M231.7,294.8h1.083a.214.214,0,0,0,.207-.207v-1.138a.207.207,0,0,0-.207-.207H232a.2.2,0,0,0-.193.152l-.3,1.138a.207.207,0,0,0,.193.262Z" transform="translate(-71.765 -128.858)" fill="#f5f5f5"/>
        <path id="Path_48740" data-name="Path 48740" d="M229.538,294.8h1.083a.207.207,0,0,0,.2-.207v-1.139a.2.2,0,0,0-.2-.207h-.78a.2.2,0,0,0-.193.152l-.311,1.138a.214.214,0,0,0,.2.262Z" transform="translate(-71.093 -128.858)" fill="#f5f5f5"/>
        <path id="Path_48741" data-name="Path 48741" d="M227.365,294.8h1.056a.207.207,0,0,0,.2-.207v-1.139a.2.2,0,0,0-.2-.207h-.78a.214.214,0,0,0-.2.152l-.3,1.138a.214.214,0,0,0,.228.262Z" transform="translate(-70.411 -128.858)" fill="#f5f5f5"/>
        <path id="Path_48742" data-name="Path 48742" d="M225.217,294.8h1.076a.207.207,0,0,0,.207-.207v-1.138a.2.2,0,0,0-.207-.207h-.773a.214.214,0,0,0-.2.152l-.3,1.138a.207.207,0,0,0,.2.262Z" transform="translate(-69.753 -128.857)" fill="#f5f5f5"/>
        <path id="Path_48743" data-name="Path 48743" d="M223.057,294.8h1.076a.207.207,0,0,0,.207-.207v-1.138a.2.2,0,0,0-.207-.207h-.773a.207.207,0,0,0-.2.152l-.3,1.138a.207.207,0,0,0,.2.262Z" transform="translate(-69.083 -128.857)" fill="#f5f5f5"/>
        <path id="Path_48744" data-name="Path 48744" d="M220.907,294.8h1.076a.207.207,0,0,0,.207-.207v-1.138a.2.2,0,0,0-.207-.207h-.773a.207.207,0,0,0-.2.152l-.3,1.138a.207.207,0,0,0,.2.262Z" transform="translate(-68.417 -128.857)" fill="#f5f5f5"/>
        <path id="Path_48745" data-name="Path 48745" d="M218.737,294.8h1.076a.207.207,0,0,0,.207-.207v-1.138a.2.2,0,0,0-.207-.207h-.773a.2.2,0,0,0-.2.152l-.3,1.138a.207.207,0,0,0,.2.262Z" transform="translate(-67.744 -128.857)" fill="#f5f5f5"/>
        <path id="Path_48746" data-name="Path 48746" d="M216.577,294.8h1.076a.214.214,0,0,0,.207-.207v-1.138a.207.207,0,0,0-.207-.207h-.773a.2.2,0,0,0-.2.152l-.3,1.138a.207.207,0,0,0,.2.262Z" transform="translate(-67.074 -128.857)" fill="#f5f5f5"/>
        <path id="Path_48747" data-name="Path 48747" d="M214.425,294.8h1.083a.214.214,0,0,0,.207-.207v-1.138a.207.207,0,0,0-.207-.207h-.738a.2.2,0,0,0-.2.152l-.3,1.138a.207.207,0,0,0,.159.262Z" transform="translate(-66.42 -128.857)" fill="#f5f5f5"/>
        <path id="Path_48748" data-name="Path 48748" d="M212.248,294.8h1.083a.214.214,0,0,0,.207-.207v-1.138a.207.207,0,0,0-.207-.207h-.78a.2.2,0,0,0-.193.152l-.31,1.138a.214.214,0,0,0,.2.262Z" transform="translate(-65.733 -128.858)" fill="#f5f5f5"/>
        <path id="Path_48749" data-name="Path 48749" d="M210.088,294.8h1.083a.207.207,0,0,0,.2-.207v-1.139a.2.2,0,0,0-.2-.207h-.78a.214.214,0,0,0-.2.152l-.3,1.138a.214.214,0,0,0,.2.262Z" transform="translate(-65.063 -128.858)" fill="#f5f5f5"/>
        <path id="Path_48750" data-name="Path 48750" d="M207.907,294.8h1.076a.207.207,0,0,0,.207-.207v-1.138a.2.2,0,0,0-.207-.207h-.773a.214.214,0,0,0-.2.152l-.3,1.138a.207.207,0,0,0,.2.262Z" transform="translate(-64.387 -128.857)" fill="#f5f5f5"/>
        <path id="Path_48751" data-name="Path 48751" d="M205.767,294.8h1.076a.207.207,0,0,0,.207-.207v-1.138a.2.2,0,0,0-.207-.207h-.773a.214.214,0,0,0-.2.152l-.3,1.138a.207.207,0,0,0,.2.262Z" transform="translate(-63.723 -128.857)" fill="#f5f5f5"/>
        <path id="Path_48752" data-name="Path 48752" d="M203.607,294.8h1.076a.207.207,0,0,0,.207-.207v-1.138a.2.2,0,0,0-.207-.207h-.773a.207.207,0,0,0-.2.152l-.3,1.138a.207.207,0,0,0,.2.262Z" transform="translate(-63.054 -128.857)" fill="#f5f5f5"/>
        <path id="Path_48753" data-name="Path 48753" d="M201.453,294.8h1.076a.207.207,0,0,0,.207-.207v-1.138a.2.2,0,0,0-.207-.207h-.759a.2.2,0,0,0-.2.152l-.3,1.138a.207.207,0,0,0,.186.262Z" transform="translate(-62.39 -128.857)" fill="#f5f5f5"/>
        <rect id="Rectangle_4339" data-name="Rectangle 4339" width="24.129" height="1.794" transform="translate(162.102 166.966) rotate(180)" fill="#ebebeb"/>
        <rect id="Rectangle_4340" data-name="Rectangle 4340" width="86.636" height="111.49" transform="translate(294.416 35.963) rotate(90)" fill="#e0e0e0"/>
        <rect id="Rectangle_4341" data-name="Rectangle 4341" width="108.399" height="83.545" transform="translate(292.87 121.054) rotate(180)" fill="#ebebeb"/>
        <line id="Line_332" data-name="Line 332" y2="11.654" transform="translate(236.849 52.599)" fill="none" stroke="#e0e0e0" stroke-miterlimit="10" stroke-width="1"/>
        <path id="Path_48754" data-name="Path 48754" d="M304.87,185.622v-37.5h49.169v21.507" transform="translate(-94.51 -83.867)" fill="none" stroke="#e0e0e0" stroke-miterlimit="10" stroke-width="1"/>
        <path id="Path_48755" data-name="Path 48755" d="M357.69,190.744V179.29h27.034v11.854" transform="translate(-110.884 -93.53)" fill="none" stroke="#e0e0e0" stroke-miterlimit="10" stroke-width="1"/>
        <rect id="Rectangle_4342" data-name="Rectangle 4342" width="24.868" height="8.563" transform="translate(224.416 48.321)" fill="#f5f5f5"/>
        <rect id="Rectangle_4343" data-name="Rectangle 4343" width="23.701" height="9.301" transform="translate(248.048 68.862)" fill="#f5f5f5"/>
        <rect id="Rectangle_4344" data-name="Rectangle 4344" width="16.277" height="9.591" transform="translate(238.671 92.419)" fill="#f5f5f5"/>
        <rect id="Rectangle_4345" data-name="Rectangle 4345" width="17.436" height="7.286" transform="translate(265.126 93.971)" fill="#f5f5f5"/>
        <rect id="Rectangle_4346" data-name="Rectangle 4346" width="26.931" height="12.427" transform="translate(198.92 70.828)" fill="#f5f5f5"/>
        <rect id="Rectangle_4347" data-name="Rectangle 4347" width="17.195" height="9.08" transform="translate(201.763 97.214)" fill="#f5f5f5"/>
        <rect id="Rectangle_4348" data-name="Rectangle 4348" width="5.251" height="5.251" transform="translate(236.857 60.844) rotate(45)" fill="#f5f5f5"/>
        <rect id="Rectangle_4349" data-name="Rectangle 4349" width="5.251" height="5.251" transform="translate(259.535 82.054) rotate(45)" fill="#f5f5f5"/>
        <path id="Path_48756" data-name="Path 48756" d="M146.865,358.011a1.649,1.649,0,0,0-1.318-2.367,3.533,3.533,0,0,0-1.118-3.85.814.814,0,0,0-.483-.214.966.966,0,0,0-.524.228l-3.077,2.215a1.849,1.849,0,0,0-.614.607c-.635,1.221,1.642,2.76.69,3.8-.262.29-.69.352-1.035.559-.731.455-.821,1.463-1.159,2.263s-1.539,1.38-1.994.69c.338-.766-.69-1.421-1.511-1.518s-1.69-.145-2.153-.918c-1.173,1.028-3.8-1.842-3.74-2.995a2.263,2.263,0,0,0-1.835,1.884,13.35,13.35,0,0,0-.1,2.877c0,1.87-.635,3.705-.6,5.575a3.878,3.878,0,0,0,1.925,3.657,4.961,4.961,0,0,0,2.07.276l15.18-.1a2.249,2.249,0,0,0,1.069-.179c.69-.359.828-1.256.89-2.022q.414-4.947.814-9.895Z" transform="translate(-39.149 -146.94)" fill="#e0e0e0"/>
        <path id="Path_48757" data-name="Path 48757" d="M146.823,337.66H123.28l.193,2.374.138,1.7.359,4.423.2,2.539.276,3.381.117,1.449v.435l.138,1.7.186,2.339.117,1.449.124,1.47.138,1.7.1,1.29.117,1.449.048.628h21.611l.048-.628.117-1.442.1-1.3.138-1.7.124-1.463.117-1.449.186-2.339.138-1.7v-.435l.117-1.449.276-3.381.2-2.532.359-4.43.138-1.7.193-2.374Zm1.38,1.559h0l-.455-.455h.5Zm-.117,1.442-.041.573-2.111,2.111-2.415-2.422,2.16-2.16h.511Zm-.607,7.535-1.546,1.546-2.415-2.422,2.415-2.408,1.677,1.67Zm-22.4-1.615h0l1.67-1.67,2.415,2.408-2.415,2.422-1.539-1.546Zm20.093-2.477-2.415,2.415-2.415-2.415,2.415-2.422Zm-3.8-5.361h2.76l-1.38,1.38Zm.593,8.556-2.408,2.422-2.422-2.422,2.422-2.408Zm-8.025,3.2,2.415-2.415,2.415,2.415-2.415,2.415Zm1.628,3.195-2.415,2.415-2.415-2.408,2.422-2.422Zm3.988-2.415,2.408,2.422-2.408,2.408-2.422-2.415Zm-3.2-4.761-2.415-2.415,2.415-2.422,2.415,2.422Zm-.787.78-2.408,2.422-2.422-2.422,2.422-2.408Zm-5.582-.759-2.408-2.415,2.408-2.422,2.422,2.422Zm0,1.566,2.422,2.415-2.422,2.415-2.408-2.415Zm2.422,8.811-2.422,2.415-2.408-2.415,2.408-2.415Zm.78.78,2.415,2.422-2.408,2.415-2.422-2.415Zm.787-.78,2.415-2.415,2.415,2.415-2.415,2.415Zm5.617.78L142,360.12l-2.408,2.415-2.422-2.415Zm3.195,3.2,2.415,2.415-1.566,1.566h-1.7l-1.594-1.566Zm-2.415-3.981,2.415-2.415,2.415,2.415-2.415,2.415Zm0-6.4,2.415-2.415,2.415,2.415-2.415,2.415Zm1.628-9.6-2.408,2.422-2.422-2.422,2.167-2.16h.5Zm-5.61-.78-1.38-1.38h2.76Zm-.787.78-2.408,2.422-2.422-2.422,2.167-2.16h.5Zm-4.237-2.16-1.38,1.38-1.38-1.38Zm-4.326,0,2.16,2.16-2.415,2.422-2.07-2.111-.041-.573,1.891-1.9Zm-2.07,0-.449.448h0v-.448Zm-.152,4.174,1.187,1.187L125,345.133Zm.69,8.108-.1-1.145h0l.621.621Zm.117,1.456,1.187-1.2,2.415,2.422-2.415,2.408-1.007-.987Zm.359,4.464v-.1l.055.055-.048.048Zm.421,5.154-.3-3.705.69-.69,2.415,2.422-2.415,2.408-.407-.407Zm.221,2.76-.048-.552.235-.235.787.787Zm.973-1.566,2.408-2.415,2.422,2.415-1.566,1.566h-1.7Zm4.83,1.566.787-.787.787.787Zm3.133,0L134,363.314l2.415-2.415,2.415,2.415-1.559,1.566Zm3.264,0,.752-.766.78.787Zm7.369,0h-1.028l.78-.787.235.235Zm.221-2.76-.414.407-2.415-2.408L146,357.7l.69.69Zm.428-5.265v.11l-.055-.048.062-.062Zm.138-1.7-.98.973-2.415-2.408L146,351.3l1.2,1.2Zm.331-4.106-.531-.531.628-.621Zm.69-8.121-.179,2.208-1.076-1.035,1.18-1.173Z" transform="translate(-38.217 -142.625)" fill="#e6e6e6"/>
        <rect id="Rectangle_4350" data-name="Rectangle 4350" width="29.208" height="3.077" rx="1.539" transform="translate(112.767 197.119) rotate(180)" fill="#f0f0f0"/>
        <rect id="Rectangle_4351" data-name="Rectangle 4351" width="24.999" height="3.077" rx="1.539" transform="translate(85.657 221.704)" fill="#f0f0f0"/>
        <path id="Path_48758" data-name="Path 48758" d="M404.207,326.858l7.335-21.142s-10.171,7.542-10.1-.821,4.63-1.87,6.21-4.954-4.513-3.057-2.374-7.742,8.225,2.512,9.294-1.635,2.76-6.265,7.217-5.893c0,0,2.394,5.465-.538,9.4s7.259.787,6.21,4.754-4.444,7.431-5.941,4.637-3.4,2.56-.835,3.94-3.353,7.355-4.651,4.223a32.935,32.935,0,0,0-3.326-5.92l-6.741,22.646Z" transform="translate(-124.446 -126.185)" fill="#ebebeb"/>
        <path id="Path_48759" data-name="Path 48759" d="M385.3,334.054l-8.28-13.517s8.176,3.678,6.9-2.07-3.491-.593-5.058-2.491,2.663-2.794.476-5.713-5.313,2.981-6.679.269-2.877-3.905-5.886-2.981c0,0-.835,4.14,1.794,6.424s-4.906,1.642-3.588,4.23,4.2,4.471,4.83,2.312,2.76,1.256,1.18,2.6,3.45,4.582,3.85,2.215a23.072,23.072,0,0,1,1.38-4.6l8.08,14.628Z" transform="translate(-113.095 -133.195)" fill="#e6e6e6"/>
        <path id="Path_48760" data-name="Path 48760" d="M394.375,326.549l-3.788-21.783s8.722,8.97,9.984.814-4.223-2.56-5.278-5.824,4.885-2.263,3.547-7.169-8.418,1.138-8.8-3.077-1.718-6.548-6.1-6.9c0,0-3.2,4.94-.966,9.253s-7.2-.393-6.824,3.643,3.146,7.949,5.051,5.465,2.912,3.036.193,3.974,2.07,7.7,3.857,4.83a32.164,32.164,0,0,1,4.188-5.244l2.995,23.2Z" transform="translate(-116.602 -125.559)" fill="#f5f5f5"/>
        <path id="Path_48761" data-name="Path 48761" d="M402.136,370.161h-13a1.725,1.725,0,0,1-1.718-1.615l-1.38-22.425a1.718,1.718,0,0,1,1.718-1.822h15.753a1.718,1.718,0,0,1,1.718,1.822l-1.38,22.425A1.718,1.718,0,0,1,402.136,370.161Z" transform="translate(-119.671 -144.683)" fill="#ebebeb"/>
        <path id="Path_48762" data-name="Path 48762" d="M404.28,346.45H385.229a1.718,1.718,0,0,1-1.7-1.525h0a1.718,1.718,0,0,1,1.7-1.925h19.023a1.725,1.725,0,0,1,1.711,1.918h0A1.718,1.718,0,0,1,404.28,346.45Z" transform="translate(-118.889 -144.28)" fill="#f5f5f5"/>
        <path id="Path_48763" data-name="Path 48763" d="M0,0H36.57V1.3a3.45,3.45,0,0,1-3.45,3.45H3.45A3.45,3.45,0,0,1,0,1.3V0Z" transform="translate(204.53 189.95) rotate(180)" fill="#e0e0e0"/>
        <path id="Path_48764" data-name="Path 48764" d="M281.128,361.616l-11.73-1.152V344h-4.616v16.47L253.01,361.63a2.284,2.284,0,0,0-2.07,2.27v1.76H283.2V363.9A2.284,2.284,0,0,0,281.128,361.616Z" transform="translate(-77.791 -144.59)" fill="#e0e0e0"/>
        <path id="Path_48765" data-name="Path 48765" d="M254.392,377.176a3.036,3.036,0,1,1-3.036-3.036,3.036,3.036,0,0,1,3.036,3.036Z" transform="translate(-76.979 -153.933)" fill="#e0e0e0"/>
        <path id="Path_48766" data-name="Path 48766" d="M291.48,377.176a3.036,3.036,0,1,0,3.036-3.036,3.036,3.036,0,0,0-3.036,3.036Z" transform="translate(-90.359 -153.933)" fill="#e0e0e0"/>
        <path id="Path_48767" data-name="Path 48767" d="M269.81,327.85h6.244v11.833a2.85,2.85,0,0,1-2.85,2.85h-.545a2.85,2.85,0,0,1-2.85-2.85V327.85Z" transform="translate(-83.641 -139.584)" fill="#e6e6e6"/>
        <path id="Path_48768" data-name="Path 48768" d="M265.355,301.942A202.364,202.364,0,0,0,271.393,259a6.024,6.024,0,0,1,6.031-5.8h10.812a6.031,6.031,0,0,1,6.037,6c.041,9.853-.642,29.994-6.21,46.368l-20.576-.759a2.284,2.284,0,0,1-2.132-2.87Z" transform="translate(-82.236 -116.442)" fill="#ebebeb"/>
        <path id="Path_48769" data-name="Path 48769" d="M269.61,304.992a212.988,212.988,0,0,0,6.479-44.774,5.561,5.561,0,0,1,5.568-5.348h9.957a5.561,5.561,0,0,1,5.568,5.52c.041,9.094-.593,29.484-5.72,44.588Z" transform="translate(-83.579 -116.96)" fill="#e6e6e6"/>
        <path id="Path_48770" data-name="Path 48770" d="M263.549,305.993a89.605,89.605,0,0,0-23.3-1.235c-11.447,1.159,5.382,16.118,5.382,16.118H248s-8.922-9.487-8.425-11.847,22.956.752,22.956.752Z" transform="translate(-73.24 -132.327)" fill="#e6e6e6"/>
        <path id="Path_48771" data-name="Path 48771" d="M292.557,304.992H273.14a212.965,212.965,0,0,0,6.479-44.774,5.52,5.52,0,0,1,5.561-5.347h7.528a5.568,5.568,0,0,1,5.575,5.52C298.318,269.491,297.683,289.887,292.557,304.992Z" transform="translate(-84.673 -116.96)" fill="#e0e0e0"/>
        <path id="Path_48772" data-name="Path 48772" d="M242.694,326.84h39.261a1.187,1.187,0,0,1,1.187,1.187h0a1.194,1.194,0,0,1-1.187,1.194H242.694a1.194,1.194,0,0,1-1.194-1.194h0a1.187,1.187,0,0,1,1.194-1.187Z" transform="translate(-74.865 -139.27)" fill="#e0e0e0"/>
      </g>
      <g id="freepik--Shadow--inject-1" transform="translate(38.716 296.445)">
        <ellipse id="freepik--path--inject-1" cx="133.784" cy="7.811" rx="133.784" ry="7.811" fill="#f5f5f5"/>
      </g>
      <g id="freepik--Ux--inject-1" transform="translate(73.18 79.15)">
        <path id="Path_48773" data-name="Path 48773" d="M221.979,92.933V311.055a3.188,3.188,0,0,1-3.236,3.188H108.95a2.857,2.857,0,0,1-2.891-2.926V92.67A2.574,2.574,0,0,1,108.536,90H134.6a2.029,2.029,0,0,1,1.856,1.3l1.194,2.939a2.029,2.029,0,0,0,1.856,1.283h49.08a2.008,2.008,0,0,0,1.856-1.263L191.64,91.3A2.07,2.07,0,0,1,193.5,90h25.682A2.912,2.912,0,0,1,221.979,92.933Z" transform="translate(-106.057 -90)" fill="#0091ff"/>
        <path id="Path_48774" data-name="Path 48774" d="M221.979,92.933V311.055a3.188,3.188,0,0,1-3.236,3.188H108.95a2.857,2.857,0,0,1-2.891-2.926V92.67A2.574,2.574,0,0,1,108.536,90H134.6a2.029,2.029,0,0,1,1.856,1.3l1.194,2.939a2.029,2.029,0,0,0,1.856,1.283h49.08a2.008,2.008,0,0,0,1.856-1.263L191.64,91.3A2.07,2.07,0,0,1,193.5,90h25.682A2.912,2.912,0,0,1,221.979,92.933Z" transform="translate(-106.057 -90)" fill="#fff" opacity="0.6"/>
        <rect id="Rectangle_4352" data-name="Rectangle 4352" width="28.573" height="28.573" rx="3.38" transform="translate(5.853 165.565)" fill="#fff"/>
        <rect id="Rectangle_4353" data-name="Rectangle 4353" width="16.47" height="16.47" transform="translate(11.897 171.61)" fill="#0091ff" opacity="0.5"/>
        <path id="Path_48775" data-name="Path 48775" d="M123.3,338.71v16.47h16.477V338.71Zm7.707,8.239-6.948,6.948V340Zm-6.417-7.48h13.9l-6.948,6.941Zm6.948,8.011,6.948,6.948h-13.9Zm.531-.531L139.018,340v13.9Z" transform="translate(-111.403 -167.1)" fill="#fff" opacity="0.3"/>
        <rect id="Rectangle_4354" data-name="Rectangle 4354" width="29.077" height="3.277" transform="translate(5.598 200.1)" fill="#0091ff" opacity="0.75"/>
        <path id="Path_48776" data-name="Path 48776" d="M115.528,381.127H114.7v-.3h1.994v.3h-.828v2.111h-.338Z" transform="translate(-108.737 -180.157)" fill="#fff"/>
        <rect id="Rectangle_4355" data-name="Rectangle 4355" width="28.573" height="28.573" rx="3.38" transform="translate(43.175 165.276)" fill="#fff"/>
        <rect id="Rectangle_4356" data-name="Rectangle 4356" width="16.47" height="16.47" transform="translate(49.22 171.327)" fill="#0091ff" opacity="0.5"/>
        <path id="Path_48777" data-name="Path 48777" d="M177.39,338.3v16.47h16.477V338.3Zm7.707,8.239-6.948,6.941V339.59Zm-6.417-7.48h13.9L185.629,346Zm6.948,8,6.948,6.948h-13.9Zm.531-.531,6.948-6.948v13.9Z" transform="translate(-128.17 -166.973)" fill="#fff" opacity="0.3"/>
        <rect id="Rectangle_4357" data-name="Rectangle 4357" width="29.077" height="3.277" transform="translate(42.92 199.817)" fill="#0091ff" opacity="0.75"/>
        <path id="Path_48778" data-name="Path 48778" d="M169.628,380.717H168.8v-.3h1.994v.3h-.828v2.07h-.338Z" transform="translate(-125.508 -180.03)" fill="#fff"/>
        <rect id="Rectangle_4358" data-name="Rectangle 4358" width="28.573" height="28.573" rx="3.38" transform="translate(80.497 164.993)" fill="#fff"/>
        <rect id="Rectangle_4359" data-name="Rectangle 4359" width="16.47" height="16.47" transform="translate(86.542 171.044)" fill="#0091ff" opacity="0.5"/>
        <path id="Path_48779" data-name="Path 48779" d="M231.48,337.89v16.47h16.47V337.89Zm7.7,8.232-6.941,6.948V339.18Zm-6.41-7.466h13.9l-6.948,6.948Zm6.948,8.018,6.948,6.948h-13.9Zm.531-.538,6.948-6.941v13.89Z" transform="translate(-144.938 -166.846)" fill="#fff" opacity="0.3"/>
        <rect id="Rectangle_4360" data-name="Rectangle 4360" width="29.077" height="3.277" transform="translate(80.242 199.534)" fill="#0091ff" opacity="0.75"/>
        <path id="Path_48780" data-name="Path 48780" d="M223.708,380.3h-.828V380h1.994v.3h-.828v2.1h-.338Z" transform="translate(-142.272 -179.9)" fill="#fff"/>
        <rect id="Rectangle_4361" data-name="Rectangle 4361" width="104.728" height="50.356" rx="1.94" transform="translate(5.598 20.341)" fill="#fff"/>
        <circle id="Ellipse_669" data-name="Ellipse 669" cx="2.318" cy="2.318" r="2.318" transform="translate(8.378 41.904)" fill="#0091ff" opacity="0.75"/>
        <path id="Path_48781" data-name="Path 48781" d="M119.9,153.541l1.794,1.214V152.32Z" transform="translate(-110.349 -109.319)" fill="#fff"/>
        <circle id="Ellipse_670" data-name="Ellipse 670" cx="2.318" cy="2.318" r="2.318" transform="translate(102.908 41.904)" fill="#0091ff" opacity="0.75"/>
        <path id="Path_48782" data-name="Path 48782" d="M259.414,153.541l-1.794-1.221v2.436Z" transform="translate(-153.042 -109.319)" fill="#fff"/>
        <rect id="Rectangle_4362" data-name="Rectangle 4362" width="58.436" height="5.824" transform="translate(22.979 32.527)" fill="#0091ff" opacity="0.75"/>
        <rect id="Rectangle_4363" data-name="Rectangle 4363" width="58.436" height="5.824" transform="translate(22.979 40.089)" fill="#0091ff" opacity="0.75"/>
        <rect id="Rectangle_4364" data-name="Rectangle 4364" width="47.858" height="5.824" transform="translate(22.979 48.231)" fill="#0091ff" opacity="0.75"/>
        <path id="Path_48783" data-name="Path 48783" d="M141.78,139.141h-1.47v-.531h3.547v.531h-1.47v3.754h-.607Z" transform="translate(-116.676 -105.069)" fill="#fff"/>
        <path id="Path_48784" data-name="Path 48784" d="M175.308,187.929a1.049,1.049,0,1,1-1.049-1.049,1.049,1.049,0,0,1,1.049,1.049Z" transform="translate(-126.875 -120.033)" fill="#0091ff" opacity="0.75"/>
        <path id="Path_48785" data-name="Path 48785" d="M182.968,187.929a1.049,1.049,0,1,1-1.042-1.049A1.049,1.049,0,0,1,182.968,187.929Z" transform="translate(-129.249 -120.033)" fill="#0091ff" opacity="0.75"/>
        <path id="Path_48786" data-name="Path 48786" d="M190.638,187.929a1.049,1.049,0,1,1-1.049-1.049A1.049,1.049,0,0,1,190.638,187.929Z" transform="translate(-131.627 -120.033)" fill="#0091ff" opacity="0.75"/>
        <path id="Path_48787" data-name="Path 48787" d="M198.3,187.929a1.049,1.049,0,1,1-1.042-1.049,1.049,1.049,0,0,1,1.042,1.049Z" transform="translate(-134.001 -120.033)" fill="#0091ff" opacity="0.75"/>
        <path id="Path_48788" data-name="Path 48788" d="M205.968,187.929a1.049,1.049,0,1,1-1.049-1.049A1.049,1.049,0,0,1,205.968,187.929Z" transform="translate(-136.379 -120.033)" fill="#0091ff" opacity="0.75"/>
        <rect id="Rectangle_4365" data-name="Rectangle 4365" width="104.728" height="8.183" transform="translate(5.598 77.811)" fill="#fff"/>
        <rect id="Rectangle_4366" data-name="Rectangle 4366" width="8.37" height="8.37" transform="translate(101.956 77.722)" fill="#0091ff" opacity="0.75"/>
        <rect id="Rectangle_4367" data-name="Rectangle 4367" width="96.448" height="31.781" rx="2.6" transform="translate(5.598 92.322)" fill="#fff"/>
        <rect id="Rectangle_4368" data-name="Rectangle 4368" width="30.167" height="22.97" transform="translate(9.896 96.731)" fill="#0091ff" opacity="0.5"/>
        <path id="Path_48789" data-name="Path 48789" d="M120.4,230.19v22.97h30.167V230.19Zm28.794.69-13.71,10.35-13.7-10.35Zm-28.1.345,13.8,10.447-13.8,10.467Zm.69,21.245,13.7-10.35,13.71,10.35Zm14.276-10.8,13.8-10.447v20.914Z" transform="translate(-110.504 -133.459)" fill="#fff" opacity="0.3"/>
        <rect id="Rectangle_4369" data-name="Rectangle 4369" width="53.475" height="2.995" transform="translate(44.748 97.069)" fill="#0091ff" opacity="0.75"/>
        <rect id="Rectangle_4370" data-name="Rectangle 4370" width="53.475" height="2.995" transform="translate(44.748 102.334)" fill="#0091ff" opacity="0.75"/>
        <rect id="Rectangle_4371" data-name="Rectangle 4371" width="24.578" height="2.995" transform="translate(44.748 107.895)" fill="#0091ff" opacity="0.75"/>
        <path id="Path_48790" data-name="Path 48790" d="M172.152,231.716H171.4v-.276h1.794v.276h-.759v1.925h-.31Z" transform="translate(-126.314 -133.846)" fill="#fff"/>
        <rect id="Rectangle_4372" data-name="Rectangle 4372" width="96.448" height="31.781" rx="2.6" transform="translate(5.598 126.822)" fill="#fff"/>
        <rect id="Rectangle_4373" data-name="Rectangle 4373" width="30.167" height="22.97" transform="translate(9.896 131.231)" fill="#0091ff" opacity="0.5"/>
        <path id="Path_48791" data-name="Path 48791" d="M120.4,280.19v22.97h30.167V280.19Zm28.794.69-13.71,10.35-13.7-10.35Zm-28.1.345,13.8,10.447-13.8,10.467Zm.69,21.245,13.7-10.35,13.71,10.35Zm14.276-10.8,13.8-10.447v20.914Z" transform="translate(-110.504 -148.959)" fill="#fff" opacity="0.3"/>
        <rect id="Rectangle_4374" data-name="Rectangle 4374" width="53.475" height="2.995" transform="translate(44.748 131.569)" fill="#0091ff" opacity="0.75"/>
        <rect id="Rectangle_4375" data-name="Rectangle 4375" width="53.475" height="2.995" transform="translate(44.748 136.834)" fill="#0091ff" opacity="0.75"/>
        <rect id="Rectangle_4376" data-name="Rectangle 4376" width="24.578" height="2.995" transform="translate(44.748 142.395)" fill="#0091ff" opacity="0.75"/>
        <path id="Path_48792" data-name="Path 48792" d="M172.152,281.716H171.4v-.276h1.794v.276h-.759v1.925h-.31Z" transform="translate(-126.314 -149.346)" fill="#fff"/>
        <rect id="Rectangle_4377" data-name="Rectangle 4377" width="3.726" height="66.254" transform="translate(105.593 92.356)" fill="#fff"/>
        <rect id="Rectangle_4378" data-name="Rectangle 4378" width="3.726" height="10.378" transform="translate(105.593 95.958)" fill="#0091ff" opacity="0.75"/>
        <path id="Path_48793" data-name="Path 48793" d="M221.979,92.933v10.688H106.059V92.67A2.574,2.574,0,0,1,108.536,90H134.6a2.029,2.029,0,0,1,1.856,1.3l1.194,2.939a2.029,2.029,0,0,0,1.856,1.283h49.08a2.008,2.008,0,0,0,1.856-1.263L191.64,91.3A2.07,2.07,0,0,1,193.5,90h25.682A2.912,2.912,0,0,1,221.979,92.933Z" transform="translate(-106.057 -90)" fill="#0091ff"/>
        <path id="Path_48794" data-name="Path 48794" d="M106.06,394H221.98v11.3a3.188,3.188,0,0,1-3.236,3.188H108.951a2.857,2.857,0,0,1-2.891-2.926Z" transform="translate(-106.058 -184.24)" fill="#0091ff"/>
      </g>
      <g id="freepik--Labels--inject-1" transform="translate(44.229 80.275)">
        <rect id="Rectangle_4379" data-name="Rectangle 4379" width="21.017" height="10.233" transform="translate(2.07 0)" fill="#0091ff"/>
        <line id="Line_333" data-name="Line 333" x2="14.055" transform="translate(5.555 2.788)" fill="none" stroke="#fff" stroke-linecap="round" stroke-linejoin="round" stroke-width="1"/>
        <line id="Line_334" data-name="Line 334" x2="14.055" transform="translate(5.555 5.113)" fill="none" stroke="#fff" stroke-linecap="round" stroke-linejoin="round" stroke-width="1"/>
        <line id="Line_335" data-name="Line 335" x2="7.031" transform="translate(5.555 7.438)" fill="none" stroke="#fff" stroke-linecap="round" stroke-linejoin="round" stroke-width="1"/>
        <line id="Line_336" data-name="Line 336" x2="20.741" y2="17.988" transform="translate(16.781 9.812)" fill="none" stroke="#0091ff" stroke-miterlimit="10" stroke-width="1"/>
        <circle id="Ellipse_671" data-name="Ellipse 671" cx="1.256" cy="1.256" r="1.256" transform="translate(36.266 26.544)" fill="#0091ff"/>
        <rect id="Rectangle_4380" data-name="Rectangle 4380" width="21.017" height="10.233" transform="translate(0 127.174)" fill="#0091ff"/>
        <line id="Line_337" data-name="Line 337" x2="14.055" transform="translate(3.485 129.962)" fill="none" stroke="#fff" stroke-linecap="round" stroke-linejoin="round" stroke-width="1"/>
        <line id="Line_338" data-name="Line 338" x2="14.055" transform="translate(3.485 132.287)" fill="none" stroke="#fff" stroke-linecap="round" stroke-linejoin="round" stroke-width="1"/>
        <line id="Line_339" data-name="Line 339" x2="7.031" transform="translate(3.485 134.612)" fill="none" stroke="#fff" stroke-linecap="round" stroke-linejoin="round" stroke-width="1"/>
        <circle id="Ellipse_672" data-name="Ellipse 672" cx="1.256" cy="1.256" r="1.256" transform="translate(34.196 131.031)" fill="#0091ff"/>
        <line id="Line_340" data-name="Line 340" x1="15.691" transform="translate(19.762 132.287)" fill="none" stroke="#0091ff" stroke-miterlimit="10" stroke-width="1"/>
        <rect id="Rectangle_4381" data-name="Rectangle 4381" width="21.017" height="10.233" transform="translate(148.467 48.438)" fill="#0091ff"/>
        <line id="Line_341" data-name="Line 341" x2="14.062" transform="translate(151.945 51.226)" fill="none" stroke="#fff" stroke-linecap="round" stroke-linejoin="round" stroke-width="1"/>
        <line id="Line_342" data-name="Line 342" x2="14.062" transform="translate(151.945 53.551)" fill="none" stroke="#fff" stroke-linecap="round" stroke-linejoin="round" stroke-width="1"/>
        <line id="Line_343" data-name="Line 343" x2="7.031" transform="translate(151.945 55.876)" fill="none" stroke="#fff" stroke-linecap="round" stroke-linejoin="round" stroke-width="1"/>
        <circle id="Ellipse_673" data-name="Ellipse 673" cx="1.256" cy="1.256" r="1.256" transform="translate(123.517 77.742)" fill="#0091ff"/>
        <line id="Line_344" data-name="Line 344" y1="22.687" x2="30.312" transform="translate(124.773 56.311)" fill="none" stroke="#0091ff" stroke-miterlimit="10" stroke-width="1"/>
        <rect id="Rectangle_4382" data-name="Rectangle 4382" width="21.017" height="10.233" transform="translate(150.523 184.313)" fill="#0091ff"/>
        <line id="Line_345" data-name="Line 345" x2="14.055" transform="translate(154.008 187.107)" fill="none" stroke="#fff" stroke-linecap="round" stroke-linejoin="round" stroke-width="1"/>
        <line id="Line_346" data-name="Line 346" x2="14.055" transform="translate(154.008 189.433)" fill="none" stroke="#fff" stroke-linecap="round" stroke-linejoin="round" stroke-width="1"/>
        <line id="Line_347" data-name="Line 347" x2="7.031" transform="translate(154.008 191.758)" fill="none" stroke="#fff" stroke-linecap="round" stroke-linejoin="round" stroke-width="1"/>
        <path id="Path_48795" data-name="Path 48795" d="M248.6,365.606a1.249,1.249,0,1,1-.363-.888,1.256,1.256,0,0,1,.363.888Z" transform="translate(-120.517 -176.173)" fill="#0091ff"/>
        <line id="Line_348" data-name="Line 348" x2="25.24" transform="translate(126.836 189.433)" fill="none" stroke="#0091ff" stroke-miterlimit="10" stroke-width="1"/>
      </g>
      <g id="freepik--Character--inject-1" transform="translate(208.073 116.065)">
        <path id="Path_48796" data-name="Path 48796" d="M334.736,202.53c-2.325.11-12.061,13.186-12.061,13.186l-3.616-4.706s-5.575,10.833-2.822,15.994,17.291-8.97,17.291-8.97Z" transform="translate(-305.869 -161.799)" fill="#0091ff"/>
        <path id="Path_48797" data-name="Path 48797" d="M334.735,202.53l-.959,10.433-.248,5.1s-2.387,2.318-5.41,4.727c-4.437,3.526-10.212,7.279-11.882,4.216-2.76-5.154,2.822-15.987,2.822-15.987l3.616,4.7v-.041C323.246,214.888,332.485,202.634,334.735,202.53Z" transform="translate(-305.868 -161.799)" opacity="0.2"/>
        <path id="Path_48798" data-name="Path 48798" d="M339.453,215.306l-.248,5.1s-2.387,2.318-5.41,4.727c-.29-6.127,5.41-15.042,5.41-15.042Z" transform="translate(-311.546 -164.143)" opacity="0.2"/>
        <path id="Path_48799" data-name="Path 48799" d="M325.461,221.352l.518.994-1.518,5.9s4.181-3.8,1.518-7.535Z" transform="translate(-308.655 -167.435)" opacity="0.2"/>
        <path id="Path_48800" data-name="Path 48800" d="M342.425,235.065l19.61,1.511s.269-11.73,1.828-17.809c.511-1.973,1.145-4.188,1.953-6.762.345-1.1.69-2.242,1.132-3.45s.78-2.367,1.228-3.643a57.658,57.658,0,0,0-8.2-1.98,62.717,62.717,0,0,0-8.873-.932c-3.843,0-8.28.4-8.28.4s-.628.159-1.021,4.223C341.459,210.418,341.632,221.148,342.425,235.065Z" transform="translate(-313.98 -161.635)" fill="#0091ff"/>
        <path id="Path_48801" data-name="Path 48801" d="M342.427,235.065l19.61,1.511v-.69c.083-2.567.469-11.909,1.808-17.133.359-1.38.787-2.946,1.3-4.644.2-.69.414-1.38.649-2.118.345-1.09.69-2.243,1.125-3.45s.787-2.367,1.235-3.643c-1.069-.345-2.146-.649-3.229-.932-1.635-.421-3.3-.766-4.968-1.049a62.831,62.831,0,0,0-8.853-.918c-2.477,0-5.189.152-6.81.283-.9.069-1.449.124-1.449.124s-.628.152-1.028,4.216C341.461,210.425,341.634,221.148,342.427,235.065Z" transform="translate(-313.982 -161.635)" opacity="0.2"/>
        <path id="Path_48802" data-name="Path 48802" d="M356.991,203.484c4.871-.621,6.341-2.7,6.341-2.7-1.994-1.877-1.635-4.651-1.125-6.376a9.817,9.817,0,0,1,.6-1.594l-5.865,1.1a17.131,17.131,0,0,1,.242,2.484,7.346,7.346,0,0,1-.166,1.815c-.4,1.753-1.38,1.773-1.38,1.773C354.576,201.911,356.991,203.484,356.991,203.484Z" transform="translate(-318.237 -158.786)" fill="#ebb376"/>
        <path id="Path_48803" data-name="Path 48803" d="M357.9,196.4a7.348,7.348,0,0,1-.166,1.815c2.332-.311,4.092-2.174,5.2-3.788a9.82,9.82,0,0,1,.6-1.594l-5.865,1.1A17.123,17.123,0,0,1,357.9,196.4Z" transform="translate(-318.95 -158.792)" opacity="0.2"/>
        <path id="Path_48804" data-name="Path 48804" d="M372.913,157.273h1.7c-.379-1.953-2.9-4.589-5.658-3.892a9.972,9.972,0,0,1,1.594-1.263,6.086,6.086,0,0,0-5.561,1.628c-2.374,2.443-3.616,7.507-1.539,9.487.269.255.593.179.945-.117,1.787,2.408,4.292.186,4.727.117s.1,1.256.1,1.256c1.435,0,1.78-1.822,1.78-1.822l1.38,1.822a3.988,3.988,0,0,0,1-3.622l1.242.8C374.852,158.391,372.913,157.273,372.913,157.273Z" transform="translate(-320.414 -146.13)" fill="#263238"/>
        <path id="Path_48805" data-name="Path 48805" d="M347.615,177.45s-2.884-7.59,4.6-11.337,11.847,1.566,12.123,6.7-1.38,9.556-3.823,10.44S347.615,177.45,347.615,177.45Z" transform="translate(-315.664 -150.12)" fill="#263238"/>
        <path id="Path_48806" data-name="Path 48806" d="M353.818,171.79c-5.051.731-6.286,3.671-5.906,8.929.476,6.569,2.587,10.985,8.7,8.68C364.92,186.273,362.2,170.583,353.818,171.79Z" transform="translate(-315.905 -152.249)" fill="#ebb376"/>
        <path id="Path_48807" data-name="Path 48807" d="M352.086,183.67a10.614,10.614,0,0,1-1.166,2.3,1.38,1.38,0,0,0,1.414.38Z" transform="translate(-316.858 -155.953)" fill="#d58745"/>
        <path id="Path_48808" data-name="Path 48808" d="M357,182.05c.048.414.317.725.593.69s.462-.4.407-.821-.311-.725-.593-.69S356.948,181.636,357,182.05Z" transform="translate(-318.739 -155.195)" fill="#263238"/>
        <path id="Path_48809" data-name="Path 48809" d="M357.352,181.138l-.952-.248S356.945,181.6,357.352,181.138Z" transform="translate(-318.557 -155.091)" fill="#263238"/>
        <path id="Path_48810" data-name="Path 48810" d="M349.487,182.833c.055.414.317.724.593.69s.462-.393.414-.814-.317-.725-.593-.69S349.438,182.419,349.487,182.833Z" transform="translate(-316.411 -155.44)" fill="#263238"/>
        <path id="Path_48811" data-name="Path 48811" d="M349.835,181.888l-.945-.248S349.428,182.371,349.835,181.888Z" transform="translate(-316.229 -155.323)" fill="#263238"/>
        <path id="Path_48812" data-name="Path 48812" d="M356.35,177.318a2.663,2.663,0,0,1,2.3.442" transform="translate(-318.541 -153.954)" fill="none" stroke="#263238" stroke-linecap="round" stroke-linejoin="round" stroke-width="0.708"/>
        <path id="Path_48813" data-name="Path 48813" d="M350.123,177.8a2.381,2.381,0,0,0-1.953.69" transform="translate(-316.005 -154.13)" fill="none" stroke="#263238" stroke-linecap="round" stroke-linejoin="round" stroke-width="0.708"/>
        <path id="Path_48814" data-name="Path 48814" d="M360.457,178.536s-2.96-3.809-3.064-7.059c0,0-10.605-2.643-9.626,7.59,0,0-2.284-8.88,6.369-10.35s10.453,11.254,6.514,15.691C360.65,184.415,362.292,180.923,360.457,178.536Z" transform="translate(-315.796 -151.281)" fill="#263238"/>
        <path id="Path_48815" data-name="Path 48815" d="M365.308,183.656a2.236,2.236,0,0,1,2.07-2.367c1.587-.055,2.8,3.05-.98,4.382C365.874,185.864,365.481,185.361,365.308,183.656Z" transform="translate(-321.317 -155.215)" fill="#ebb376"/>
        <path id="Path_48816" data-name="Path 48816" d="M354.53,190.555a2.669,2.669,0,0,0,2.76-1.835" transform="translate(-317.977 -157.518)" fill="none" stroke="#263238" stroke-linecap="round" stroke-linejoin="round" stroke-width="0.708"/>
        <path id="Path_48817" data-name="Path 48817" d="M334.657,209.8a.5.5,0,0,1-.511.566h-5.6a.69.69,0,0,1-.635-.566l-1.249-11.04a.559.559,0,0,1,.5-.642h5.6a.724.724,0,0,1,.628.642Z" transform="translate(-309.337 -160.432)" fill="#263238"/>
        <path id="Path_48818" data-name="Path 48818" d="M332.777,198.666l1.27,11.164a.428.428,0,0,1-.442.531h-4.747c-.317,0-.9-.179-.938-.5l-1.27-11.2c0-.311.511-.566.828-.566h4.747a.573.573,0,0,1,.552.566Z" transform="translate(-309.334 -160.426)" fill="#fff" opacity="0.5"/>
        <path id="Path_48819" data-name="Path 48819" d="M321.24,211.9l2.926-4.954a16.3,16.3,0,0,1,.242-3.215c.255-.614,3.119-1.994,3.678-1.787s.766,5.313.255,6a7.643,7.643,0,0,1-2.3,1.456l.124.966-1.7,5.161Z" transform="translate(-307.657 -161.61)" fill="#ebb376"/>
        <path id="Path_48820" data-name="Path 48820" d="M319.54,215.133l.973-.973,4.6,5.161-.655,2.042Z" transform="translate(-307.13 -165.405)" fill="#0091ff"/>
        <path id="Path_48821" data-name="Path 48821" d="M353.29,223.9s5.4,12.31,12.379,16.3c.083-2.567.469-11.909,1.808-17.133.359-1.38.787-2.946,1.3-4.644l-2.125-2.553a21.153,21.153,0,0,0-.821,8.515L357.7,219.41Z" transform="translate(-317.593 -165.935)" opacity="0.2"/>
        <path id="Path_48822" data-name="Path 48822" d="M354.165,218.391l-6.638-5.2a23.138,23.138,0,0,0-1.38-3.284c-.4-.483-6.21-2.629-6.707-2.684s0,4.761.731,5.582,5.41,2.443,5.41,2.443l6.948,6.541Z" transform="translate(-313.237 -163.253)" fill="#ebb376"/>
        <path id="Path_48823" data-name="Path 48823" d="M372.009,206.18c3.9,1.953,5.63,23.957-1.139,27.759S354,220.546,354,220.546l3.933-4.14s8.232,6.9,9.232,6.265-.138-7.376-.138-7.376-1.159-2.07,1.276-5.244S372.009,206.18,372.009,206.18Z" transform="translate(-317.813 -162.931)" fill="#0091ff"/>
        <path id="Path_48824" data-name="Path 48824" d="M372.009,206.18c3.9,1.953,5.63,23.957-1.139,27.759S354,220.546,354,220.546l3.933-4.14s8.232,6.9,9.232,6.265-.138-7.376-.138-7.376-1.159-2.07,1.276-5.244S372.009,206.18,372.009,206.18Z" transform="translate(-317.813 -162.931)" opacity="0.2"/>
        <path id="Path_48825" data-name="Path 48825" d="M353.353,226.026l-1.173-.711,4.409-6.465,1.621.9Z" transform="translate(-317.248 -166.859)" fill="#0091ff"/>
        <path id="Path_48826" data-name="Path 48826" d="M345.49,202.248a3.678,3.678,0,0,0,.807,2.194,5.521,5.521,0,0,0,1.3,1.173,14.906,14.906,0,0,0,6.279,1.966,19.038,19.038,0,0,0,5.037.048,13.312,13.312,0,0,0,2.16-.476,10.7,10.7,0,0,0,5.065-3.2c-1.076-.276-2.167-.524-3.264-.731q-.428-.1-.849-.166l-.856-.152a62.829,62.829,0,0,0-8.873-.9c-1.076,0-2.18,0-3.236.062-.462,0-.918.041-1.346.076C346.87,202.145,346.1,202.2,345.49,202.248Z" transform="translate(-315.175 -161.635)" fill="#ebb376"/>
        <path id="Path_48827" data-name="Path 48827" d="M365,208.1a13.309,13.309,0,0,0,2.16-.476,7.183,7.183,0,0,1,1.8-3.933q-.428-.1-.849-.166A9.238,9.238,0,0,0,365,208.1Z" transform="translate(-321.223 -162.109)" fill="#263238"/>
        <path id="Path_48828" data-name="Path 48828" d="M346.66,204.455a5.52,5.52,0,0,0,1.3,1.173,5.624,5.624,0,0,1,1.463-3.588c-.462,0-.918.041-1.346.076a7.419,7.419,0,0,0-1.421,2.339Z" transform="translate(-315.537 -161.647)" fill="#263238"/>
        <path id="Path_48829" data-name="Path 48829" d="M339.349,143.5h7.1a1.939,1.939,0,0,1,1.939,1.939v5.52a1.939,1.939,0,0,1-1.939,1.939h-2.608l-.945,2.284-.938-2.256h-2.608a1.939,1.939,0,0,1-1.939-1.939v-5.52a1.939,1.939,0,0,1,1.939-1.967Z" transform="translate(-312.67 -143.5)" fill="#0091ff"/>
        <path id="Path_48830" data-name="Path 48830" d="M346.826,149.088h-1.346a10.6,10.6,0,0,1-.317-3.029,2.373,2.373,0,0,0-.69,0,9.192,9.192,0,0,0-.3,2.387,20.5,20.5,0,0,0-2.553-.048c-.083.062-.1.421-.1.69a.3.3,0,0,0,.248.3h.083l.124,2.3a.345.345,0,0,0,.338.324h2.256a1.125,1.125,0,0,0,.628-.193l.248-.166,1.38.1Z" transform="translate(-313.944 -144.285)" fill="#0091ff"/>
        <path id="Path_48831" data-name="Path 48831" d="M346.826,149.088h-1.346a10.6,10.6,0,0,1-.317-3.029,2.373,2.373,0,0,0-.69,0,9.192,9.192,0,0,0-.3,2.387,20.5,20.5,0,0,0-2.553-.048c-.083.062-.1.421-.1.69a.3.3,0,0,0,.248.3h.083l.124,2.3a.345.345,0,0,0,.338.324h2.256a1.125,1.125,0,0,0,.628-.193l.248-.166,1.38.1Z" transform="translate(-313.944 -144.285)" fill="#fff" opacity="0.7"/>
        <path id="Path_48832" data-name="Path 48832" d="M316.08,397.58l4.133.718,1.691-5.534,1.546-5.078-4.761-1.635-1.38,6.1Z" transform="translate(-306.057 -218.691)" fill="#e4897b"/>
        <path id="Path_48833" data-name="Path 48833" d="M316.642,403.159c.069-.448-5.589-1.069-5.589-1.069s-4.064,2.843-7.542,3.036-1.973,2.491,1.8,3.112l9.246,1.6C317.18,410.308,315.917,407.817,316.642,403.159Z" transform="translate(-301.555 -223.663)" fill="#263238"/>
        <path id="Path_48834" data-name="Path 48834" d="M309.957,402.072a.538.538,0,0,1,0-.614.6.6,0,0,1,.366-.317,2.305,2.305,0,0,1,1.276.083c-.407-.317-.759-.69-.69-.973,0-.186.172-.324.448-.393a.883.883,0,0,1,.669.09,3.26,3.26,0,0,1,.952,1.863.117.117,0,0,1,0,.069h0v.035h0l-.034.041h0a.076.076,0,0,1-.048,0,8.77,8.77,0,0,1-2.029.331A1.242,1.242,0,0,1,309.957,402.072Zm.442-.656a.31.31,0,0,0-.193.166c-.1.207-.035.269,0,.3.228.255,1.3.131,2.194-.069A3.732,3.732,0,0,0,310.4,401.416Zm.98-1.277c-.083,0-.221.069-.228.145-.035.255.69.821,1.463,1.27a2.45,2.45,0,0,0-.745-1.345.607.607,0,0,0-.317-.1.822.822,0,0,0-.173.028Z" transform="translate(-304.129 -222.961)" fill="#0091ff"/>
        <path id="Path_48835" data-name="Path 48835" d="M317.82,392.293l4.609.593,1.552-5.134-4.761-1.663Z" transform="translate(-306.597 -218.703)" opacity="0.2"/>
        <path id="Path_48836" data-name="Path 48836" d="M356.06,399.979h4.188l.69-5.741.628-5.265-4.982-.794-.283,6.245Z" transform="translate(-318.451 -219.351)" fill="#e4897b"/>
        <path id="Path_48837" data-name="Path 48837" d="M356.987,404.788c0-.448-5.693-.1-5.693-.1s-3.5,3.491-6.9,4.278-1.5,2.76,2.3,2.76h9.384C358.754,411.764,357.1,409.5,356.987,404.788Z" transform="translate(-314.286 -224.429)" fill="#263238"/>
        <path id="Path_48838" data-name="Path 48838" d="M350.05,405.511a.517.517,0,0,1-.138-.593.593.593,0,0,1,.3-.38,2.3,2.3,0,0,1,1.27-.138c-.462-.241-.862-.538-.883-.828s.117-.352.373-.469a.863.863,0,0,1,.738,0c.773.311,1.249,1.615,1.27,1.67a.173.173,0,0,1,0,.117h0a.138.138,0,0,1-.048.041,7.349,7.349,0,0,1-2.36.69.773.773,0,0,1-.524-.11Zm.31-.69a.31.31,0,0,0-.159.193.413.413,0,0,0,0,.3c.269.214,1.311-.09,2.146-.442a3.753,3.753,0,0,0-1.987-.076Zm.745-1.428c-.076.041-.207.11-.2.186,0,.255.828.69,1.67,1a2.5,2.5,0,0,0-.98-1.2.689.689,0,0,0-.228-.048.607.607,0,0,0-.262.034Z" transform="translate(-316.533 -223.951)" fill="#0091ff"/>
        <path id="Path_48839" data-name="Path 48839" d="M356.41,394.568l4.637-.2.628-5.327-4.982-.821Z" transform="translate(-318.56 -219.363)" opacity="0.2"/>
        <path id="Path_48840" data-name="Path 48840" d="M317.26,346.3l6.79,1.173c6.859-16.767,11.73-30.767,15.18-42.387,1.856-6.265,3.3-11.84,4.409-16.788l-.338,18.257v41.476h6.9c16.795-78.6,4.906-96.545,4.906-96.545l-20.086-3.374a87.976,87.976,0,0,0-1.677,11.04l-.911,6.521L324.6,305.456Z" transform="translate(-306.423 -175.929)" fill="#0091ff"/>
        <path id="Path_48841" data-name="Path 48841" d="M317.26,346.3l6.79,1.173c6.859-16.767,11.73-30.767,15.18-42.387,1.856-6.265,3.3-11.84,4.409-16.788l-.338,18.257v41.476h6.9c16.795-78.6,4.906-96.545,4.906-96.545l-20.086-3.374a87.976,87.976,0,0,0-1.677,11.04l-.911,6.521L324.6,305.456Z" transform="translate(-306.423 -175.929)" fill="#fff" opacity="0.6"/>
        <path id="Path_48842" data-name="Path 48842" d="M324.865,389.686l-8.425-2.746.11,3.519,6.969,2.187Z" transform="translate(-306.169 -218.966)" fill="#0091ff"/>
        <path id="Path_48843" data-name="Path 48843" d="M362.387,390.9l-8.777-1.263.731,3.45,7.245.959Z" transform="translate(-317.692 -219.803)" fill="#0091ff"/>
        <path id="Path_48844" data-name="Path 48844" d="M362.915,247.794v2.939l-20.465-1.539V245.71Z" transform="translate(-314.232 -175.185)" fill="#263238"/>
        <path id="Path_48845" data-name="Path 48845" d="M348.87,250.09l4.471.393.3-3.34-4.471-.393Z" transform="translate(-316.222 -175.508)" fill="#fff"/>
        <path id="Path_48846" data-name="Path 48846" d="M361.77,252.008l1.014.055.262-5.078-1.014-.055Z" transform="translate(-320.221 -175.563)" fill="#0091ff"/>
        <path id="Path_48847" data-name="Path 48847" d="M361.77,252.008l1.014.055.262-5.078-1.014-.055Z" transform="translate(-320.221 -175.563)" fill="#fff" opacity="0.6"/>
        <path id="Path_48848" data-name="Path 48848" d="M343.65,250.058l1.014.048.262-5.078-1.014-.048Z" transform="translate(-314.604 -174.959)" fill="#0091ff"/>
        <path id="Path_48849" data-name="Path 48849" d="M343.65,250.058l1.014.048.262-5.078-1.014-.048Z" transform="translate(-314.604 -174.959)" fill="#fff" opacity="0.6"/>
        <path id="Path_48850" data-name="Path 48850" d="M349.09,315.279c1.856-6.265,3.3-11.84,4.409-16.788A151.461,151.461,0,0,0,352.2,281S349.263,303.563,349.09,315.279Z" transform="translate(-316.291 -186.125)" opacity="0.2"/>
      </g>
    </g>
  </g>
</svg>
