<svg xmlns="http://www.w3.org/2000/svg" width="355" height="307" viewBox="0 0 355 307">
  <g id="Group_4425" data-name="Group 4425" transform="translate(13643 -4261)">
    <rect id="Rectangle_4439" data-name="Rectangle 4439" width="345" height="307" transform="translate(-13633 4261)" fill="none"/>
    <g id="Upvote-rafiki" transform="translate(-13643 4230.967)">
      <g id="freepik--background-complete--inject-251" transform="translate(0 55)">
        <rect id="Rectangle_4383" data-name="Rectangle 4383" width="345" height="0.172" transform="translate(0 225.906)" fill="#ebebeb"/>
        <path id="Path_48851" data-name="Path 48851" d="M175.375,250.132H42.143a3.94,3.94,0,0,1-3.933-3.94V58.905A3.94,3.94,0,0,1,42.143,55H175.375a3.94,3.94,0,0,1,3.94,3.94V246.192A3.94,3.94,0,0,1,175.375,250.132ZM42.143,55.138a3.767,3.767,0,0,0-3.761,3.767V246.192a3.767,3.767,0,0,0,3.76,3.767H175.375a3.774,3.774,0,0,0,3.767-3.767V58.905a3.774,3.774,0,0,0-3.767-3.767Z" transform="translate(-11.845 -55)" fill="#ebebeb"/>
        <path id="Path_48852" data-name="Path 48852" d="M391.679,250.132H258.44a3.947,3.947,0,0,1-3.94-3.94V58.905A3.947,3.947,0,0,1,258.44,55H391.679a3.94,3.94,0,0,1,3.926,3.905V246.192A3.94,3.94,0,0,1,391.679,250.132ZM258.44,55.138a3.774,3.774,0,0,0-3.767,3.767V246.192a3.774,3.774,0,0,0,3.767,3.767H391.679a3.774,3.774,0,0,0,3.767-3.767V58.905a3.774,3.774,0,0,0-3.767-3.767Z" transform="translate(-78.895 -55)" fill="#ebebeb"/>
        <rect id="Rectangle_4384" data-name="Rectangle 4384" width="22.915" height="0.172" transform="translate(36.197 237.008)" fill="#ebebeb"/>
        <rect id="Rectangle_4385" data-name="Rectangle 4385" width="37.329" height="0.172" transform="translate(100.968 236.325)" fill="#ebebeb"/>
        <rect id="Rectangle_4386" data-name="Rectangle 4386" width="13.186" height="0.172" transform="translate(59.802 230.605)" fill="#ebebeb"/>
        <rect id="Rectangle_4387" data-name="Rectangle 4387" width="10.198" height="0.172" transform="translate(300.233 231.764)" fill="#ebebeb"/>
        <rect id="Rectangle_4388" data-name="Rectangle 4388" width="23.971" height="0.172" transform="translate(270.114 231.764)" fill="#ebebeb"/>
        <rect id="Rectangle_4389" data-name="Rectangle 4389" width="31.361" height="0.172" transform="translate(184.458 234.676)" fill="#ebebeb"/>
        <rect id="Rectangle_4390" data-name="Rectangle 4390" width="40.972" height="93.178" transform="translate(100.091 21.128)" fill="#e6e6e6"/>
        <rect id="Rectangle_4391" data-name="Rectangle 4391" width="40.972" height="93.178" transform="translate(102.589 21.128)" fill="#f5f5f5"/>
        <rect id="Rectangle_4392" data-name="Rectangle 4392" width="84.787" height="31.988" transform="translate(139.07 25.316) rotate(90)" fill="#fff"/>
        <rect id="Rectangle_4393" data-name="Rectangle 4393" width="84.787" height="1.891" transform="translate(139.07 25.323) rotate(90)" fill="#e6e6e6"/>
        <rect id="Rectangle_4394" data-name="Rectangle 4394" width="37.253" height="5.63" transform="translate(104.452 84.932)" fill="#f5f5f5"/>
        <rect id="Rectangle_4395" data-name="Rectangle 4395" width="37.253" height="5.63" transform="translate(104.452 32.72)" fill="#f5f5f5"/>
        <rect id="Rectangle_4396" data-name="Rectangle 4396" width="40.972" height="93.178" transform="translate(155.333 21.128)" fill="#e6e6e6"/>
        <rect id="Rectangle_4397" data-name="Rectangle 4397" width="40.972" height="93.178" transform="translate(157.831 21.128)" fill="#f5f5f5"/>
        <rect id="Rectangle_4398" data-name="Rectangle 4398" width="84.787" height="31.988" transform="translate(194.311 25.323) rotate(90)" fill="#fff"/>
        <rect id="Rectangle_4399" data-name="Rectangle 4399" width="84.787" height="1.891" transform="translate(194.311 25.323) rotate(90)" fill="#e6e6e6"/>
        <rect id="Rectangle_4400" data-name="Rectangle 4400" width="37.253" height="5.63" transform="translate(159.694 84.932)" fill="#f5f5f5"/>
        <rect id="Rectangle_4401" data-name="Rectangle 4401" width="37.253" height="5.63" transform="translate(159.694 32.72)" fill="#f5f5f5"/>
        <rect id="Rectangle_4402" data-name="Rectangle 4402" width="40.972" height="93.178" transform="translate(44.85 21.128)" fill="#e6e6e6"/>
        <rect id="Rectangle_4403" data-name="Rectangle 4403" width="40.972" height="93.178" transform="translate(47.355 21.128)" fill="#f5f5f5"/>
        <rect id="Rectangle_4404" data-name="Rectangle 4404" width="84.787" height="31.988" transform="translate(83.828 25.323) rotate(90)" fill="#fff"/>
        <rect id="Rectangle_4405" data-name="Rectangle 4405" width="84.787" height="1.891" transform="translate(83.828 25.323) rotate(90)" fill="#e6e6e6"/>
        <rect id="Rectangle_4406" data-name="Rectangle 4406" width="37.253" height="5.63" transform="translate(49.211 84.932)" fill="#f5f5f5"/>
        <rect id="Rectangle_4407" data-name="Rectangle 4407" width="37.253" height="5.63" transform="translate(49.211 32.72)" fill="#f5f5f5"/>
        <rect id="Rectangle_4408" data-name="Rectangle 4408" width="15.656" height="67.199" transform="translate(213.3 158.707)" fill="#e6e6e6"/>
        <path id="Path_48853" data-name="Path 48853" d="M326.109,378.6h2.967V370.14H322.99Z" transform="translate(-100.127 -152.693)" fill="#f0f0f0"/>
        <rect id="Rectangle_4409" data-name="Rectangle 4409" width="15.656" height="67.199" transform="translate(134.619 158.707)" fill="#e6e6e6"/>
        <rect id="Rectangle_4410" data-name="Rectangle 4410" width="81.275" height="63.038" transform="translate(147.674 158.707)" fill="#f0f0f0"/>
        <path id="Path_48854" data-name="Path 48854" d="M311.7,288.58H274.37v48.99H311.7Z" transform="translate(-85.055 -127.41)" fill="#e6e6e6"/>
        <path id="Path_48855" data-name="Path 48855" d="M254.7,288.58H217.37v48.99H254.7Z" transform="translate(-67.385 -127.41)" fill="#e6e6e6"/>
        <path id="Path_48856" data-name="Path 48856" d="M259.37,296.543a2.643,2.643,0,1,0,2.643-2.643,2.643,2.643,0,0,0-2.643,2.643Z" transform="translate(-80.405 -129.059)" fill="#fafafa"/>
        <path id="Path_48857" data-name="Path 48857" d="M278.81,296.543a2.636,2.636,0,1,0,.772-1.871,2.643,2.643,0,0,0-.772,1.871Z" transform="translate(-86.431 -129.059)" fill="#fafafa"/>
        <path id="Path_48858" data-name="Path 48858" d="M216.994,378.6H214.02V370.14h6.093Z" transform="translate(-66.346 -152.693)" fill="#f0f0f0"/>
        <rect id="Rectangle_4411" data-name="Rectangle 4411" width="15.656" height="93.115" transform="translate(123.531 132.784)" fill="#e6e6e6"/>
        <path id="Path_48859" data-name="Path 48859" d="M196.009,378.6h2.967V370.14H192.89Z" transform="translate(-59.796 -152.693)" fill="#f0f0f0"/>
        <rect id="Rectangle_4412" data-name="Rectangle 4412" width="15.656" height="93.115" transform="translate(44.85 132.784)" fill="#e6e6e6"/>
        <rect id="Rectangle_4413" data-name="Rectangle 4413" width="81.275" height="87.927" transform="translate(57.905 132.784)" fill="#f0f0f0"/>
        <path id="Path_48860" data-name="Path 48860" d="M163.929,250.79H87.27v16.657h76.659Z" transform="translate(-27.054 -115.695)" fill="#e6e6e6"/>
        <path id="Path_48861" data-name="Path 48861" d="M181.6,277.69H144.26v56.49H181.6Z" transform="translate(-44.721 -124.034)" fill="#e6e6e6"/>
        <path id="Path_48862" data-name="Path 48862" d="M124.6,277.69H87.27v56.49H124.6Z" transform="translate(-27.054 -124.034)" fill="#e6e6e6"/>
        <path id="Path_48863" data-name="Path 48863" d="M129.27,315.5a2.636,2.636,0,1,0,.772-1.871A2.643,2.643,0,0,0,129.27,315.5Z" transform="translate(-40.074 -134.937)" fill="#fafafa"/>
        <path id="Path_48864" data-name="Path 48864" d="M148.71,315.5a2.636,2.636,0,1,0,.772-1.871A2.643,2.643,0,0,0,148.71,315.5Z" transform="translate(-46.1 -134.937)" fill="#fafafa"/>
        <path id="Path_48865" data-name="Path 48865" d="M86.894,378.6H83.92V370.14h6.093Z" transform="translate(-26.015 -152.693)" fill="#f0f0f0"/>
        <path id="Path_48866" data-name="Path 48866" d="M139.49,261.813a2.643,2.643,0,1,0,2.643-2.643A2.643,2.643,0,0,0,139.49,261.813Z" transform="translate(-43.242 -118.293)" fill="#fafafa"/>
        <path id="Path_48867" data-name="Path 48867" d="M315.88,148.209h2.781l9.529-8.439H316.812Z" transform="translate(-97.923 -81.279)" fill="#e6e6e6"/>
        <path id="Path_48868" data-name="Path 48868" d="M318.22,148.209H321l9.529-8.439h-2.788Z" transform="translate(-98.648 -81.279)" fill="#f5f5f5"/>
        <path id="Path_48869" data-name="Path 48869" d="M413.65,148.209h2.781l9.536-8.439H414.582Z" transform="translate(-128.232 -81.279)" fill="#e6e6e6"/>
        <path id="Path_48870" data-name="Path 48870" d="M415.99,148.209h2.781l9.529-8.439h-2.781Z" transform="translate(-128.957 -81.279)" fill="#f5f5f5"/>
        <rect id="Rectangle_4414" data-name="Rectangle 4414" width="18.54" height="4.34" transform="translate(229.625 58.491) rotate(180)" fill="#e6e6e6"/>
        <rect id="Rectangle_4415" data-name="Rectangle 4415" width="76.742" height="4.34" transform="translate(229.625 54.151)" fill="#f5f5f5"/>
        <path id="Path_48871" data-name="Path 48871" d="M400.057,95h-8.6a51.463,51.463,0,0,1,1.49,9.4c0,3.478-6.541,17.133,2.808,17.133s2.8-13.648,2.8-17.133A51.13,51.13,0,0,1,400.057,95Z" transform="translate(-121.125 -67.4)" fill="#e6e6e6"/>
        <path id="Path_48872" data-name="Path 48872" d="M417.637,95h-8.6a51.464,51.464,0,0,1,1.49,9.4c0,3.478-6.541,17.133,2.808,17.133s2.808-13.648,2.808-17.133A51.346,51.346,0,0,1,417.637,95Z" transform="translate(-126.575 -67.4)" fill="#e6e6e6"/>
        <path id="Path_48873" data-name="Path 48873" d="M347.41,118.7c0,5.61,6.162,10.2,13.7,10.2h6.8c7.535,0,13.7-4.588,13.7-10.2Z" transform="translate(-107.697 -74.747)" fill="#f0f0f0"/>
        <path id="Path_48874" data-name="Path 48874" d="M315.88,204.209h2.781l9.529-8.439H316.812Z" transform="translate(-97.923 -98.639)" fill="#e6e6e6"/>
        <path id="Path_48875" data-name="Path 48875" d="M318.22,204.209H321l9.529-8.439h-2.788Z" transform="translate(-98.648 -98.639)" fill="#f5f5f5"/>
        <path id="Path_48876" data-name="Path 48876" d="M413.65,204.209h2.781l9.536-8.439H414.582Z" transform="translate(-128.232 -98.639)" fill="#e6e6e6"/>
        <path id="Path_48877" data-name="Path 48877" d="M415.99,204.209h2.781l9.529-8.439h-2.781Z" transform="translate(-128.957 -98.639)" fill="#f5f5f5"/>
        <rect id="Rectangle_4416" data-name="Rectangle 4416" width="18.54" height="4.333" transform="translate(229.625 97.131) rotate(180)" fill="#e6e6e6"/>
        <rect id="Rectangle_4417" data-name="Rectangle 4417" width="76.742" height="4.333" transform="translate(229.625 92.791)" fill="#f5f5f5"/>
        <path id="Path_48878" data-name="Path 48878" d="M354.12,176.3c0,5,7.217,9.094,16.043,9.094h7.963c8.825,0,16.043-4.092,16.043-9.094Z" transform="translate(-109.777 -92.603)" fill="#e0e0e0"/>
        <path id="Path_48879" data-name="Path 48879" d="M337.2,152.37h13.379s-2.318,11.578-2.318,13.945,10.177,11.661-4.368,11.661-4.368-9.287-4.368-11.661S337.2,152.37,337.2,152.37Z" transform="translate(-104.179 -85.185)" fill="#f5f5f5"/>
        <path id="Path_48880" data-name="Path 48880" d="M383.931,271.1c4.105.538,7.887,3.664,6.6,7.9-2.125,7.01,8.094,6.362,8.349,17.326.366,15.477-15.4,5.168-14.318,19.879.794,10.7-14.186,20.831-18.761,7.445-5.016-14.649-9.494-3.519-15.87-19.644-4.416-11.15,11-16,5.223-18.63-4.216-1.9-7.59-6.017-3.636-10.088,5.361-5.52-1.808-7.59,1.815-11.42s5.713.69,12.006-2.981c5.623-3.291,12.7,1.9,12.6,6.065C377.831,270.87,379.8,270.559,383.931,271.1Z" transform="translate(-108.227 -118.504)" fill="#e6e6e6"/>
        <path id="Path_48881" data-name="Path 48881" d="M393.415,345.66s-.5,25.351-19.879,25.351S353.65,345.66,353.65,345.66Z" transform="translate(-109.632 -145.105)" fill="#f0f0f0"/>
      </g>
      <g id="freepik--Shadow--inject-251" transform="translate(38.716 296.445)">
        <ellipse id="freepik--path--inject-251" cx="133.784" cy="7.811" rx="133.784" ry="7.811" fill="#f5f5f5"/>
      </g>
      <g id="freepik--Upvote--inject-251" transform="translate(72.617 151.963)">
        <rect id="Rectangle_4418" data-name="Rectangle 4418" width="41.807" height="20.721" rx="4.88" transform="translate(0 54.275) rotate(-71.98)" fill="#263238"/>
        <rect id="Rectangle_4419" data-name="Rectangle 4419" width="41.807" height="20.721" rx="4.88" transform="translate(0 54.275) rotate(-71.98)" opacity="0.3"/>
        <path id="Path_48882" data-name="Path 48882" d="M182.045,228.221l-12.951-4.216.5.159c.9-1.849.566-2.981,1.642-4.733,1.38-2.132,3.65-4.644,5.486-8.7,1.38-3.036,1.2-14.228,1.2-14.228s-2.256-.759-2.677-.863c-2.615-.69-4.05,1.856-5.1,5.52-1.221,4.257-9.26,9.363-14.421,12s-11.157,6.527-11.192,6.555h0l-9.439,29.96h0l4.071,3.905a30.636,30.636,0,0,0,9.66,5.893l20.852,6.762Z" transform="translate(-114.495 -195.526)" fill="#263238"/>
        <path id="Path_48883" data-name="Path 48883" d="M191.67,233.965a2.539,2.539,0,0,0-1.628-3.2l-16.608-5.4h0a41.72,41.72,0,0,1,2.139-4.568c1.38-2.132,3.65-4.644,5.485-8.7s2.857-12.7-.635-14.69-4.727.869-5.948,5.134-9.253,9.363-14.421,12-11.15,6.534-11.185,6.534h0l-9.439,29.946h0l4.071,3.905a30.732,30.732,0,0,0,9.66,5.9l23.032,7.487a2.532,2.532,0,0,0,3.2-1.628l.566-1.739A2.532,2.532,0,0,0,178.884,262l-.773-.759a.545.545,0,0,1,.359-.98l1.98.138c1.187.117,2.76-.449,3.16-1.58l1.1-3.381a2.539,2.539,0,0,0-1.042-2.926l-1.918-1.311a.545.545,0,0,1,.3-.994l3.119-.041a2.539,2.539,0,0,0,2.381-1.753l1.187-3.657a2.546,2.546,0,0,0-.966-2.877l-2.408-1.663a.545.545,0,0,1,.311-.994h2.346a2.546,2.546,0,0,0,2.525-1.753Z" transform="translate(-115.84 -195.909)" fill="#0091ff"/>
        <path id="Path_48884" data-name="Path 48884" d="M191.67,233.965a2.539,2.539,0,0,0-1.628-3.2l-16.608-5.4h0a41.72,41.72,0,0,1,2.139-4.568c1.38-2.132,3.65-4.644,5.485-8.7s2.857-12.7-.635-14.69-4.727.869-5.948,5.134-9.253,9.363-14.421,12-11.15,6.534-11.185,6.534h0l-9.439,29.946h0l4.071,3.905a30.732,30.732,0,0,0,9.66,5.9l23.032,7.487a2.532,2.532,0,0,0,3.2-1.628l.566-1.739A2.532,2.532,0,0,0,178.884,262l-.773-.759a.545.545,0,0,1,.359-.98l1.98.138c1.187.117,2.76-.449,3.16-1.58l1.1-3.381a2.539,2.539,0,0,0-1.042-2.926l-1.918-1.311a.545.545,0,0,1,.3-.994l3.119-.041a2.539,2.539,0,0,0,2.381-1.753l1.187-3.657a2.546,2.546,0,0,0-.966-2.877l-2.408-1.663a.545.545,0,0,1,.311-.994h2.346a2.546,2.546,0,0,0,2.525-1.753Z" transform="translate(-115.84 -195.909)" opacity="0.4"/>
        <rect id="Rectangle_4420" data-name="Rectangle 4420" width="41.807" height="20.721" rx="4.88" transform="translate(2.493 55.082) rotate(-71.98)" fill="#263238"/>
        <rect id="Rectangle_4421" data-name="Rectangle 4421" width="0.731" height="4.154" transform="translate(42.976 68.692) rotate(-73.25)" fill="#0091ff"/>
        <rect id="Rectangle_4422" data-name="Rectangle 4422" width="0.731" height="4.154" transform="translate(42.976 68.692) rotate(-73.25)" opacity="0.4"/>
        <rect id="Rectangle_4423" data-name="Rectangle 4423" width="0.731" height="9.936" transform="translate(50.732 71.014) rotate(-73.25)" fill="#0091ff"/>
        <rect id="Rectangle_4424" data-name="Rectangle 4424" width="0.731" height="9.936" transform="translate(50.732 71.014) rotate(-73.25)" opacity="0.4"/>
      </g>
      <g id="freepik--Character--inject-251" transform="translate(135.121 93.976)">
        <path id="Path_48885" data-name="Path 48885" d="M237.83,119.686c-3.381,1.042-5.61,14.49,1.38,18.837s22.342-2.16,22.342-2.16-2.325-2.76-1.552-10.095c.759-7.183,1.069-16.56-10.868-14.49C241.349,113.09,237.292,117.361,237.83,119.686Z" transform="translate(-207.854 -111.487)" fill="#263238"/>
        <path id="Path_48886" data-name="Path 48886" d="M279.591,171.34c.159,1.684.359,3.526.614,5.285s.517,3.553.869,5.306a68.31,68.31,0,0,0,2.76,10.24l.462,1.214c.083.221.138.331.207.5s.159.317.241.483a18,18,0,0,0,1.29,2.036,49.85,49.85,0,0,0,3.353,4.071c1.194,1.339,2.443,2.656,3.733,3.947s2.6,2.594,3.905,3.857l-1.849,2.381a78.552,78.552,0,0,1-9.074-6.9,44.5,44.5,0,0,1-4.14-4.14,20.85,20.85,0,0,1-1.891-2.518c-.145-.248-.29-.476-.428-.738s-.3-.552-.379-.759l-.607-1.38a49.774,49.774,0,0,1-2.015-5.52c-.593-1.849-1.035-3.726-1.456-5.6s-.766-3.761-1.035-5.651-.5-3.761-.614-5.775Z" transform="translate(-219.918 -130.042)" fill="#ffb573"/>
        <path id="Path_48887" data-name="Path 48887" d="M276.069,161.207c2.449.621,4.14,10.709,4.14,10.709l-9.329,6.376s-3.857-11.958-1.973-14.649C270.881,160.835,272.488,160.3,276.069,161.207Z" transform="translate(-218.321 -126.774)" fill="#263238"/>
        <path id="Path_48888" data-name="Path 48888" d="M278.338,164.65l1.884,10.171-3.8,2.574Z" transform="translate(-220.811 -127.968)" opacity="0.2"/>
        <path id="Path_48889" data-name="Path 48889" d="M270.9,183.822l10.536-7.549-.214-.973-11.033,7.417Z" transform="translate(-218.88 -131.269)" fill="#0091ff"/>
        <path id="Path_48890" data-name="Path 48890" d="M260.3,401.252h5.948l.393-13.772h-5.948Z" transform="translate(-215.814 -197.045)" fill="#ffb573"/>
        <path id="Path_48891" data-name="Path 48891" d="M200.69,376.634l5.506,2.243,6.976-12.027-5.506-2.249Z" transform="translate(-197.335 -189.952)" fill="#ffb573"/>
        <path id="Path_48892" data-name="Path 48892" d="M205.724,382.518l-5.741-3.45a.462.462,0,0,0-.614.11l-3.353,4.14a.945.945,0,0,0,.276,1.38c2.022,1.159,3.057,1.615,5.582,3.112,1.559.925,5.209,4.092,7.355,5.361s3.519-.773,2.76-1.5a20.417,20.417,0,0,1-5.575-8.4A1.5,1.5,0,0,0,205.724,382.518Z" transform="translate(-195.827 -194.415)" fill="#263238"/>
        <path id="Path_48893" data-name="Path 48893" d="M265.652,406.44h-6.679a.469.469,0,0,0-.476.407l-.759,5.285a.952.952,0,0,0,.952,1.056c2.325-.041,3.45-.173,6.389-.173,1.808,0,5.52.186,8.045.186s2.629-2.47,1.587-2.691c-4.658-1.007-6.493-2.387-8.066-3.705A1.525,1.525,0,0,0,265.652,406.44Z" transform="translate(-215.018 -202.923)" fill="#263238"/>
        <g id="Group_4421" data-name="Group 4421" transform="translate(6.73 174.655)" opacity="0.2">
          <path id="Path_48894" data-name="Path 48894" d="M266.725,387.48l-.207,7.1H260.57l.207-7.1Z" transform="translate(-222.627 -371.7)"/>
          <path id="Path_48895" data-name="Path 48895" d="M209.182,364.61l5.506,2.249-3.6,6.2-5.506-2.249Z" transform="translate(-205.58 -364.61)"/>
        </g>
        <path id="Path_48896" data-name="Path 48896" d="M265.471,160.6s2.829.994-2.843,35.88h-24.15c.407-9.833.421-15.87-4.278-36.066a70.787,70.787,0,0,1,10.253-1.38,77.531,77.531,0,0,1,10.971,0C260.123,159.5,265.471,160.6,265.471,160.6Z" transform="translate(-207.723 -126.166)" fill="#263238"/>
        <path id="Path_48897" data-name="Path 48897" d="M250.14,141.28c.69,3.533,1.38,10-1.09,12.351a25.53,25.53,0,0,0,9.695,9.66c4.9-3.912,1.276-9.66,1.276-9.66-3.94-.938-3.836-3.857-3.153-6.6Z" transform="translate(-212.326 -120.723)" fill="#ffb573"/>
        <path id="Path_48898" data-name="Path 48898" d="M254.347,144.68l3.988,3.4a11.385,11.385,0,0,0-.338,1.946c-1.5-.214-3.871-1.5-4.188-3.133A4.767,4.767,0,0,1,254.347,144.68Z" transform="translate(-213.793 -121.777)" opacity="0.2"/>
        <path id="Path_48899" data-name="Path 48899" d="M241.9,128.413c1.635,5.672,2.2,8.108,5.762,10.412,5.354,3.45,11.965.228,12.061-5.824.09-5.437-2.594-13.8-8.729-14.835a8.052,8.052,0,0,0-9.094,10.246Z" transform="translate(-210.004 -113.521)" fill="#ffb573"/>
        <path id="Path_48900" data-name="Path 48900" d="M244.088,124.006c1.421,2.029-.145,7.59-2.477,8.114-1.87.386-2.884-2.7-3.215-3.94a2.394,2.394,0,0,1-.048-.966l.614-4.016a2.408,2.408,0,0,1,.807-1.463l4.382-3.781a2.394,2.394,0,0,1,1.18-.552l6.21-1.028a2.4,2.4,0,0,1,1.339.159h0a2.408,2.408,0,0,1,.69,4A12.91,12.91,0,0,1,244.088,124.006Z" transform="translate(-209 -112.992)" fill="#263238"/>
        <path id="Path_48901" data-name="Path 48901" d="M267.452,213.41s4.692,45.809,4.3,63.949c-.435,18.865-7.335,61.886-7.335,61.886h-8.025s1.27-41.924.559-60.451c-.773-20.2-7.19-65.384-7.19-65.384Z" transform="translate(-212.546 -143.083)" fill="#0091ff"/>
        <path id="Path_48902" data-name="Path 48902" d="M267.452,213.41s4.692,45.809,4.3,63.949c-.435,18.865-7.335,61.886-7.335,61.886h-8.025s1.27-41.924.559-60.451c-.773-20.2-7.19-65.384-7.19-65.384Z" transform="translate(-212.546 -143.083)" fill="#fff" opacity="0.4"/>
        <path id="Path_48903" data-name="Path 48903" d="M258.165,394.681H267.6l.69-3.015L257.73,391.3Z" transform="translate(-215.017 -198.229)" fill="#263238"/>
        <path id="Path_48904" data-name="Path 48904" d="M257.96,228.663c5.934,11.93,1.187,33.706-.911,41.8-1.076-12.165-2.884-27.034-4.3-37.95C253.647,226.33,255.22,223.191,257.96,228.663Z" transform="translate(-213.473 -146.937)" opacity="0.2"/>
        <path id="Path_48905" data-name="Path 48905" d="M247.3,213.391s-5.472,47.61-9.6,62.914c-4.906,18.154-24.84,49.128-24.84,49.128l-7.514-3.064s12.869-35.266,16.622-44.85c8-20.41,1.152-50.832,7.549-64.17Z" transform="translate(-198.779 -143.065)" fill="#0091ff"/>
        <path id="Path_48906" data-name="Path 48906" d="M247.3,213.391s-5.472,47.61-9.6,62.914c-4.906,18.154-24.84,49.128-24.84,49.128l-7.514-3.064s12.869-35.266,16.622-44.85c8-20.41,1.152-50.832,7.549-64.17Z" transform="translate(-198.779 -143.065)" fill="#fff" opacity="0.4"/>
        <path id="Path_48907" data-name="Path 48907" d="M203.88,369.751l9.315,3.8,2.187-2.525-10.757-4.968Z" transform="translate(-198.323 -190.405)" fill="#263238"/>
        <path id="Path_48908" data-name="Path 48908" d="M255.826,131.873c.1.462.435.787.738.69s.469-.5.366-.973-.435-.793-.738-.725S255.723,131.4,255.826,131.873Z" transform="translate(-214.417 -117.492)" fill="#263238"/>
        <path id="Path_48909" data-name="Path 48909" d="M263.5,130.174c.1.469.435.793.738.69a.791.791,0,0,0,.366-.973c-.1-.469-.435-.793-.738-.69A.791.791,0,0,0,263.5,130.174Z" transform="translate(-216.795 -116.973)" fill="#263238"/>
        <path id="Path_48910" data-name="Path 48910" d="M263.85,129.033l1.049-.573S264.519,129.467,263.85,129.033Z" transform="translate(-216.914 -116.749)" fill="#263238"/>
        <path id="Path_48911" data-name="Path 48911" d="M261.41,132.37a12.756,12.756,0,0,0,2.339,2.615,2.07,2.07,0,0,1-1.6.69Z" transform="translate(-216.158 -117.961)" fill="#ed893e"/>
        <path id="Path_48912" data-name="Path 48912" d="M258.044,140.093a4.33,4.33,0,0,0,.69-.1.152.152,0,0,0,.11-.172.138.138,0,0,0-.166-.1,3.8,3.8,0,0,1-3.353-.78.131.131,0,0,0-.193,0,.145.145,0,0,0,0,.2A3.912,3.912,0,0,0,258.044,140.093Z" transform="translate(-214.199 -119.985)" fill="#263238"/>
        <path id="Path_48913" data-name="Path 48913" d="M241.327,139.873a4.306,4.306,0,0,0,2.76,1.808c1.49.276,2.07-1.09,1.573-2.422-.476-1.2-1.822-2.76-3.264-2.456a1.939,1.939,0,0,0-1.07,3.07Z" transform="translate(-209.806 -119.323)" fill="#ffb573"/>
        <path id="Path_48914" data-name="Path 48914" d="M252.553,128.561a.29.29,0,0,0,.317-.1,3.315,3.315,0,0,1,2.456-1.042.283.283,0,0,0,.29-.276.29.29,0,0,0-.276-.29,3.9,3.9,0,0,0-2.926,1.276.276.276,0,0,0,.062.393A.165.165,0,0,0,252.553,128.561Z" transform="translate(-213.352 -116.25)" fill="#263238"/>
        <path id="Path_48915" data-name="Path 48915" d="M263.932,124.61a.29.29,0,0,0,.235-.152.283.283,0,0,0-.124-.379,2.76,2.76,0,0,0-2.567-.041.276.276,0,0,0-.1.386.283.283,0,0,0,.379.1,2.208,2.208,0,0,1,2.036.055A.269.269,0,0,0,263.932,124.61Z" transform="translate(-216.133 -115.286)" fill="#263238"/>
        <path id="Path_48916" data-name="Path 48916" d="M212.419,386.674h.069a.793.793,0,0,0,.587-.524.483.483,0,0,0-.041-.483c-.435-.621-2.581-.545-2.822-.531a.145.145,0,0,0-.131.09.138.138,0,0,0,0,.152C210.666,385.894,211.681,386.757,212.419,386.674Zm-1.856-1.283c.856,0,2.015.1,2.242.421a.2.2,0,0,1,0,.214.517.517,0,0,1-.379.359C212.032,386.474,211.349,386.1,210.563,385.391Z" transform="translate(-200.238 -196.315)" fill="#0091ff"/>
        <path id="Path_48917" data-name="Path 48917" d="M210.439,384.653c.731-.083,2.07-.586,2.243-1.173a.5.5,0,0,0-.207-.58.732.732,0,0,0-.607-.138c-.849.159-1.732,1.628-1.766,1.69a.145.145,0,0,0,.117.214Zm1.525-1.622a.435.435,0,0,1,.338.1c.145.11.138.193.117.262-.138.393-1.214.876-1.932.973.324-.469.925-1.228,1.435-1.325Z" transform="translate(-200.245 -195.577)" fill="#0091ff"/>
        <path id="Path_48918" data-name="Path 48918" d="M271.557,407.322a2.284,2.284,0,0,0,1.442-.366.807.807,0,0,0,.255-.69.476.476,0,0,0-.242-.373c-.731-.4-3.1.807-3.367.952a.138.138,0,0,0-.076.145.145.145,0,0,0,.11.117A10.572,10.572,0,0,0,271.557,407.322Zm1.056-1.235a.552.552,0,0,1,.262.055.166.166,0,0,1,.1.152.511.511,0,0,1-.159.448,3.844,3.844,0,0,1-2.663.166,7.707,7.707,0,0,1,2.477-.856Z" transform="translate(-218.687 -202.728)" fill="#0091ff"/>
        <path id="Path_48919" data-name="Path 48919" d="M269.708,406.437a.1.1,0,0,0,.062,0c.69-.317,2.111-1.6,2-2.277,0-.159-.138-.352-.531-.393a.994.994,0,0,0-.78.241,3.992,3.992,0,0,0-.89,2.291.145.145,0,0,0,.062.124A.1.1,0,0,0,269.708,406.437Zm1.421-2.408h.117c.255,0,.276.131.283.166.062.407-.89,1.414-1.615,1.849a3.347,3.347,0,0,1,.759-1.835A.78.78,0,0,1,271.129,404.029Z" transform="translate(-218.687 -202.092)" fill="#0091ff"/>
        <path id="Path_48920" data-name="Path 48920" d="M256.18,130.743l1.049-.573S256.849,131.177,256.18,130.743Z" transform="translate(-214.536 -117.279)" fill="#263238"/>
        <path id="Path_48921" data-name="Path 48921" d="M239.583,211.269l-.621,2.167c-.083.166.117.338.393.338h24.84c.221,0,.4-.11.414-.241l.214-2.167c0-.145-.173-.276-.407-.276h-24.44A.448.448,0,0,0,239.583,211.269Z" transform="translate(-209.193 -142.363)" fill="#0091ff"/>
        <path id="Path_48922" data-name="Path 48922" d="M239.583,211.269l-.621,2.167c-.083.166.117.338.393.338h24.84c.221,0,.4-.11.414-.241l.214-2.167c0-.145-.173-.276-.407-.276h-24.44A.448.448,0,0,0,239.583,211.269Z" transform="translate(-209.193 -142.363)" opacity="0.2"/>
        <path id="Path_48923" data-name="Path 48923" d="M244.356,213.922H243.7c-.131,0-.235-.069-.221-.152l.3-2.808c0-.083.124-.152.255-.152h.69c.131,0,.228.069.221.152l-.31,2.808A.326.326,0,0,1,244.356,213.922Z" transform="translate(-210.599 -142.277)" fill="#0091ff"/>
        <path id="Path_48924" data-name="Path 48924" d="M244.356,213.922H243.7c-.131,0-.235-.069-.221-.152l.3-2.808c0-.083.124-.152.255-.152h.69c.131,0,.228.069.221.152l-.31,2.808A.326.326,0,0,1,244.356,213.922Z" transform="translate(-210.599 -142.277)" fill="#fff" opacity="0.4"/>
        <path id="Path_48925" data-name="Path 48925" d="M272.522,213.922H271.9c-.131,0-.228-.069-.221-.152l.31-2.808c0-.083.124-.152.255-.152h.649c.131,0,.235.069.221.152l-.3,2.808A.33.33,0,0,1,272.522,213.922Z" transform="translate(-219.341 -142.277)" fill="#0091ff"/>
        <path id="Path_48926" data-name="Path 48926" d="M272.522,213.922H271.9c-.131,0-.228-.069-.221-.152l.31-2.808c0-.083.124-.152.255-.152h.649c.131,0,.235.069.221.152l-.3,2.808A.33.33,0,0,1,272.522,213.922Z" transform="translate(-219.341 -142.277)" fill="#fff" opacity="0.4"/>
        <path id="Path_48927" data-name="Path 48927" d="M258.486,213.922h-.656c-.131,0-.228-.069-.221-.152l.311-2.808c0-.083.124-.152.255-.152h.656c.124,0,.228.069.221.152l-.311,2.808C258.735,213.853,258.617,213.922,258.486,213.922Z" transform="translate(-214.98 -142.277)" fill="#0091ff"/>
        <path id="Path_48928" data-name="Path 48928" d="M258.486,213.922h-.656c-.131,0-.228-.069-.221-.152l.311-2.808c0-.083.124-.152.255-.152h.656c.124,0,.228.069.221.152l-.311,2.808C258.735,213.853,258.617,213.922,258.486,213.922Z" transform="translate(-214.98 -142.277)" fill="#fff" opacity="0.4"/>
        <rect id="Rectangle_4425" data-name="Rectangle 4425" width="19.555" height="39.447" rx="4.61" transform="matrix(0.814, -0.581, 0.581, 0.814, 43.693, 56.65)" fill="#263238"/>
        <path id="Path_48929" data-name="Path 48929" d="M310.237,141.709l-10.46,7.466.4-.29c-.9-1.718-1.946-2.07-2.67-3.9-.842-2.249-1.483-5.368-3.533-9.039-1.532-2.76-10.122-8.887-10.122-8.887s-1.842,1.29-2.16,1.546c-1.966,1.615-.862,4.14,1.38,6.976,2.553,3.312,1.918,12.275,1.021,17.671s-1.3,12.13-1.3,12.165h0l17.423,23.95h0l5.244-.9a28.856,28.856,0,0,0,9.874-4.009l16.864-12.04Z" transform="translate(-222.129 -116.315)" fill="#263238"/>
        <path id="Path_48930" data-name="Path 48930" d="M319.929,138.05a2.394,2.394,0,0,0-3.347-.552l-13.407,9.57h0a38.405,38.405,0,0,1-2.27-4.188c-.842-2.249-1.477-5.368-3.526-9.039s-8.045-9.274-11.516-7.756-1.987,4.078.566,7.39,1.918,12.275,1.021,17.671-1.3,12.123-1.3,12.165h0l17.429,23.95h0l5.237-.9a28.925,28.925,0,0,0,9.881-4.009l18.6-13.283a2.387,2.387,0,0,0,.559-3.34l-1-1.38a2.4,2.4,0,0,0-2.843-.835l-1.007.166a.511.511,0,0,1-.545-.821l1.214-1.428c.752-.835,1.228-2.374.573-3.291l-1.946-2.76a2.4,2.4,0,0,0-2.808-.842l-2.07.69a.518.518,0,0,1-.587-.787l1.718-2.387a2.4,2.4,0,0,0,0-2.76l-2.111-2.953a2.4,2.4,0,0,0-2.725-.876l-2.608.89a.517.517,0,0,1-.58-.793l1.332-1.773a2.381,2.381,0,0,0,.083-2.891Z" transform="translate(-223.106 -115.934)" fill="#0091ff"/>
        <rect id="Rectangle_4426" data-name="Rectangle 4426" width="19.555" height="39.447" rx="4.61" transform="matrix(0.814, -0.581, 0.581, 0.814, 45.702, 55.202)" fill="#0091ff"/>
        <rect id="Rectangle_4427" data-name="Rectangle 4427" width="19.555" height="39.447" rx="4.61" transform="matrix(0.814, -0.581, 0.581, 0.814, 45.702, 55.202)" opacity="0.6"/>
        <rect id="Rectangle_4428" data-name="Rectangle 4428" width="3.919" height="0.69" transform="translate(101.233 63.663) rotate(-36.8)" fill="#0091ff"/>
        <rect id="Rectangle_4429" data-name="Rectangle 4429" width="9.377" height="0.69" transform="matrix(0.801, -0.599, 0.599, 0.801, 107.366, 59.108)" fill="#0091ff"/>
        <path id="Path_48931" data-name="Path 48931" d="M302.95,228.27l-4.43,2.926.766,2.76,4.989-3.415Z" transform="translate(-227.662 -147.69)" fill="#ffb573"/>
        <path id="Path_48932" data-name="Path 48932" d="M254.42,197.355l3.526-5.375,1.725,5.8s-2.677,2.76-5.051,2.029Z" transform="translate(-213.991 -136.44)" fill="#ffb573"/>
        <path id="Path_48933" data-name="Path 48933" d="M235.114,172.213c-.359,3.581-.793,7.162-1.256,10.736s-.945,7.148-1.463,10.716l-.1.69-.035.228a.187.187,0,0,0,0,.069c0,.035,0,0-.048-.076a.862.862,0,0,0-.2-.311.566.566,0,0,0-.255-.186h0a1.912,1.912,0,0,0,.642.11,10.972,10.972,0,0,0,2.167-.179c.787-.131,1.608-.324,2.429-.538,1.649-.414,3.319-.945,4.982-1.532s3.34-1.2,4.975-1.828l1.38,2.67a60.033,60.033,0,0,1-9.922,5.092c-.89.338-1.8.649-2.76.918a14.751,14.751,0,0,1-3.174.545,7.589,7.589,0,0,1-2.07-.166,5.155,5.155,0,0,1-1.256-.469,4.313,4.313,0,0,1-2.125-2.539,4.982,4.982,0,0,1-.242-1.38,4.388,4.388,0,0,1,0-.607l.035-.448.055-.69q.435-5.389.987-10.764c.359-3.588.738-7.169,1.2-10.743Z" transform="translate(-205.421 -130.1)" fill="#ffb573"/>
        <path id="Path_48934" data-name="Path 48934" d="M231.8,161.08c-2.422.738-5.327,9.067-5.327,9.067l9.384,6.714s3.45-6.955,2.408-10.081C237.186,163.516,234.557,160.238,231.8,161.08Z" transform="translate(-205.326 -126.819)" fill="#263238"/>
        <path id="Path_48935" data-name="Path 48935" d="M235.642,181.481l-10.122-7.328.214-.973,10.792,7.314Z" transform="translate(-205.032 -130.612)" fill="#0091ff"/>
        <path id="Path_48936" data-name="Path 48936" d="M264.263,189.66l1.187,4.934-4.2,2.463-1.725-5.789Z" transform="translate(-215.575 -135.721)" fill="#ffb573"/>
      </g>
    </g>
  </g>
</svg>
