<?xml version="1.0" encoding="UTF-8"?><svg id="Layer_2" xmlns="http://www.w3.org/2000/svg" viewBox="0 0 40 40"><defs><style>.cls-1{fill:#fff;}.cls-2{fill:none;}</style></defs><g id="Layer_1-2"><g><rect class="cls-2" width="40" height="40"/><g><path class="cls-1" d="M25.23,6.59c1.48,.2,2.23,1.04,2.23,2.46,0,3.78,0,7.57,0,11.35,0,1.52-.57,2.22-2.07,2.57-.04,.01-.08,.04-.14,.06v1.35c.38,.13,.75,.21,1.06,.38,.76,.41,1.12,1.1,1.13,1.95,.02,.98,.03,1.95,0,2.93-.03,1.22-.76,2.01-1.96,2.23-.07,.01-.15,.04-.26,.07,0,.82,0,1.64,0,2.46,0,.57,0,1.15-.06,1.72-.18,1.68-1.64,3.06-3.32,3.18-.11,0-.22,.02-.33,.02-5.48,0-10.95,.01-16.43,0-1.86,0-3.3-1.28-3.63-3.12-.05-.26-.05-.52-.05-.79,0-10.27,0-20.54,0-30.81,0-2.39,1.57-3.95,3.97-3.95,5.29,0,10.58,0,15.87,0,2.4,0,3.95,1.56,3.97,3.96,0,.65,0,1.3,0,1.97Zm-1.49,.03c0-.71,0-1.36,0-2.01,0-1.56-.91-2.46-2.46-2.46-5.31,0-10.61,0-15.92,0-1.56,0-2.45,.89-2.45,2.45,0,10.27,0,20.54,0,30.81,0,1.51,.88,2.43,2.38,2.43,5.35,.01,10.7,.01,16.06,0,1.49,0,2.38-.93,2.39-2.43,0-.98-.03-1.96,.01-2.93,.02-.48-.13-.59-.59-.59-5.35,.02-10.7,.01-16.06,0-.23,0-.47,0-.7-.03-1.15-.12-1.99-1.02-2-2.18-.01-1.01,0-2.02,0-3.02,0-.17,.02-.34,.06-.5,.27-1.09,1.12-1.7,2.4-1.7,5.41,0,10.83,0,16.24,0,.12,0,.26,.03,.37-.01,.1-.04,.24-.15,.25-.24,.03-.4,.01-.8,.01-1.23h-.66c-5.4,0-10.8,0-16.2,0-1.59,0-2.48-.9-2.48-2.48,0-3.79,0-7.57,0-11.36,0-1.66,.86-2.53,2.51-2.53,5.4,0,10.8,0,16.2,0h.63Zm2.23,8.45c0-2.13,0-4.15,0-6.16,0-.58-.3-.8-.96-.8-6.03,0-12.06,0-18.1,0-.8,0-1.02,.21-1.02,1.02,0,2.57,0,5.15,0,7.72v.49c.23-.1,.4-.16,.57-.24,2.1-.95,4.2-1.9,6.3-2.87,.44-.21,.81-.18,1.22,.07,.89,.56,1.81,1.08,2.7,1.64,.27,.17,.47,.19,.75,.02,1.06-.63,2.14-1.25,3.23-1.85,1.9-1.05,1.22-1.06,3.22-.08,.68,.33,1.35,.67,2.11,1.04Zm-10.07,6.43c3.02,0,6.05,0,9.07,0,.73,0,.99-.25,1-.97,0-1.13,0-2.26,0-3.4,0-.29-.09-.44-.36-.57-1.02-.49-2.03-1-3.03-1.52-.24-.13-.41-.1-.64,.03-1.43,.83-2.88,1.64-4.31,2.47-.42,.25-.79,.26-1.21,0-.89-.56-1.82-1.07-2.7-1.64-.35-.23-.62-.21-.97-.04-1.85,.86-3.69,1.77-5.59,2.52-1.05,.41-1.45,.95-1.31,2.07,.11,.83,.24,1.06,1.1,1.06,2.98,0,5.95,0,8.93,0Zm.06,4.46c-3.01,0-6.02,0-9.03,0-.85,0-1.05,.2-1.05,1.03,0,.81,0,1.61,0,2.42,0,.77,.23,1.01,.99,1.01,6.05,0,12.09,0,18.14,0,.69,0,.94-.26,.95-.97,0-.84,0-1.67,0-2.51,0-.74-.25-.98-.98-.98-3.01,0-6.02,0-9.02,0Z"/><path class="cls-1" d="M28.86,28.2c.16-.22,.28-.5,.49-.65,.31-.22,.64-.08,.93,.15,2.14,1.65,4.27,3.29,6.41,4.93,.49,.38,.98,.76,1.48,1.13,.28,.21,.46,.47,.37,.84-.09,.38-.38,.55-.74,.6-1.07,.16-2.15,.31-3.21,.5-.26,.05-.55,.21-.72,.41-.73,.84-1.43,1.71-2.14,2.58-.23,.28-.48,.5-.87,.39-.4-.11-.54-.41-.59-.8-.42-3.19-.85-6.39-1.27-9.58-.02-.14-.03-.28-.04-.42l-.1-.07Zm1.8,1.66l.89,6.69c.52-.63,.97-1.15,1.39-1.7,.27-.36,.6-.54,1.05-.59,.63-.07,1.26-.19,2-.31l-5.33-4.09Z"/><path class="cls-1" d="M12.61,3.64c-.71,0-1.42,0-2.14,0-.53,0-.84,.27-.85,.71-.01,.46,.31,.76,.85,.77,1.41,0,2.82,0,4.23,0,.53,0,.88-.33,.86-.77-.02-.43-.35-.71-.86-.71-.7,0-1.39,0-2.09,0Z"/><path class="cls-1" d="M12.61,3.64c.7,0,1.39,0,2.09,0,.52,0,.85,.28,.86,.71,.02,.44-.33,.77-.86,.77-1.41,0-2.82,0-4.23,0-.55,0-.86-.3-.85-.77,.01-.44,.32-.71,.85-.71,.71,0,1.42,0,2.14,0Z"/><path class="cls-1" d="M15.56,27.45c.94,0,1.89,0,2.83,0,.56,0,.89,.29,.89,.73,0,.44-.33,.74-.89,.74-1.89,0-3.78,0-5.67,0-.56,0-.87-.28-.88-.74,0-.46,.31-.73,.87-.73,.94,0,1.89,0,2.83,0Z"/></g></g></g></svg>