<svg xmlns="http://www.w3.org/2000/svg" viewBox="0 0 28 28"><defs><style>.cls-1{fill:none;}.cls-2{fill:#0091ff;}</style></defs><g id="Layer_2" data-name="Layer 2"><g id="Layer_1-2" data-name="Layer 1"><rect class="cls-1" width="28" height="28"/><path class="cls-2" d="M27.4,23.45a1.07,1.07,0,0,0-.07.19,2.17,2.17,0,0,1-1.57,1.63c-2.24.59-4.49,1.16-6.74,1.69a5.9,5.9,0,0,1-3.54-.34c-1.15-.46-2.3-.9-3.45-1.35l-.17-.07a.52.52,0,0,1-.29-.69.5.5,0,0,1,.67-.28l1.68.65c.49.2,1,.37,1.48.59a6.1,6.1,0,0,0,4.31.28c1.85-.51,3.72-.95,5.59-1.43a1.27,1.27,0,0,0,1.05-1.14,1.24,1.24,0,0,0-1.57-1.27l-5.19,1.18a6.33,6.33,0,0,1-3.75-.29L11,20.94l-.19-.08a.52.52,0,0,1-.3-.67.51.51,0,0,1,.67-.29c.59.21,1.17.44,1.76.66l1.7.66a1.35,1.35,0,0,0,1.79-.76,1.32,1.32,0,0,0-.79-1.75l-5-2.05a.94.94,0,0,0-.28-.06H5.63v5.87H7.05c.18,0,.37,0,.55,0,.37,0,.59.2.6.51a.52.52,0,0,1-.59.53c-.56,0-1.11,0-1.67,0H5.61c0,.17,0,.31,0,.46a.53.53,0,0,1-.58.56H1.19a.66.66,0,0,1-.59-.37V14.67a.76.76,0,0,1,.72-.36H4.93c.49,0,.68.19.69.68v.56h4.76a1.73,1.73,0,0,1,.6.11c1.68.68,3.34,1.41,5,2.06a2.4,2.4,0,0,1,.65,4.12l-.06,0V22c.4.07.79.16,1.2.21a7.7,7.7,0,0,0,2.52-.33c1.43-.33,2.85-.67,4.28-1a2.26,2.26,0,0,1,2.76,1.79.41.41,0,0,0,0,.09ZM4.55,15.38H1.67v8.1H4.55Z"/><path class="cls-2" d="M20.55,9.22c-.06.44-.11.87-.19,1.3s-.33.58-.78.47a.81.81,0,0,0-1.07.91,1.08,1.08,0,0,0,.28.51.54.54,0,0,1,0,.86,5.5,5.5,0,0,1-2.31,1.34.55.55,0,0,1-.75-.43.85.85,0,0,0-.82-.7.86.86,0,0,0-.82.69.53.53,0,0,1-.76.43A5.58,5.58,0,0,1,11,13.27a.53.53,0,0,1,0-.84A.83.83,0,0,0,10.17,11a.54.54,0,0,1-.72-.44,5.61,5.61,0,0,1,0-2.67.53.53,0,0,1,.73-.44.85.85,0,0,0,1-.35A.83.83,0,0,0,11,6.05a.52.52,0,0,1,0-.86,5.43,5.43,0,0,1,2.32-1.34.52.52,0,0,1,.73.41.83.83,0,0,0,.84.71.84.84,0,0,0,.82-.71.52.52,0,0,1,.73-.41,5.46,5.46,0,0,1,2.33,1.34.54.54,0,0,1,0,.86.82.82,0,0,0-.19,1.06.84.84,0,0,0,1,.36c.41-.11.67,0,.75.44S20.48,8.78,20.55,9.22Zm-2.8-3.6L16.6,5a1.88,1.88,0,0,1-1.71,1,1.91,1.91,0,0,1-1.7-1l-1.13.65c.72,1.58.09,2.67-1.69,3V9.88a1.92,1.92,0,0,1,1.7,2.95l1.12.65a1.93,1.93,0,0,1,3.42,0l1.13-.66a4,4,0,0,1-.18-.41,1.47,1.47,0,0,1-.1-.4A1.86,1.86,0,0,1,19.2,9.9c.08,0,.22-.08.23-.13,0-.4,0-.79,0-1.19A1.92,1.92,0,0,1,17.75,5.62Z"/><path class="cls-2" d="M7.64,10.59a4.47,4.47,0,0,1,.3-.43.51.51,0,0,1,.7-.13.51.51,0,0,1,.16.71q-.48.74-1,1.44a.49.49,0,0,1-.67.15c-.51-.28-1-.58-1.51-.88a.5.5,0,0,1-.17-.69.52.52,0,0,1,.7-.2c.13.06.25.14.37.21A16.92,16.92,0,0,1,6.47,8.9a8,8,0,0,1,4.89-7.21,8.31,8.31,0,0,1,11.71,6,8.11,8.11,0,0,1-2.26,7.44c-.27.28-.57.31-.8.08a.53.53,0,0,1,0-.8,7.06,7.06,0,0,0,2.05-4.24,7,7,0,0,0-3.2-7A7.33,7.33,0,0,0,7.63,7.85,7,7,0,0,0,7.64,10.59Z"/><path class="cls-2" d="M18.51,15.56a.5.5,0,0,1,.51.51.52.52,0,0,1-.51.52.53.53,0,0,1-.53-.53A.51.51,0,0,1,18.51,15.56Z"/><path class="cls-2" d="M9.81,24.35a.52.52,0,0,1-.52-.51.51.51,0,0,1,.51-.52.52.52,0,0,1,.53.53A.51.51,0,0,1,9.81,24.35Z"/><path class="cls-2" d="M12.64,9.22a2.27,2.27,0,1,1,2.25,2.27A2.26,2.26,0,0,1,12.64,9.22Zm1,0A1.22,1.22,0,1,0,14.9,8,1.21,1.21,0,0,0,13.68,9.21Z"/></g></g></svg>