<svg xmlns="http://www.w3.org/2000/svg" viewBox="0 0 28 28"><defs><style>.cls-1{fill:none;}.cls-2{fill:#0091ff;}</style></defs><g id="Layer_2" data-name="Layer 2"><g id="Layer_1-2" data-name="Layer 1"><rect class="cls-1" width="28" height="28"/><path class="cls-2" d="M27.5,27.5H.5V.5h27ZM12.12,6.31V25.9H25.9V6.31ZM10.5,25.91V6.31H2.09v19.6ZM2.09,4.69H25.9V2.09H2.09Z"/><path class="cls-2" d="M17.1,7.61a1.32,1.32,0,1,1-1.31,1.32A1.34,1.34,0,0,1,17.1,7.61Z"/><path class="cls-2" d="M23.44,7.61a1.32,1.32,0,1,1,0,2.64,1.32,1.32,0,0,1,0-2.64Z"/><path class="cls-2" d="M17.11,12.36a1.32,1.32,0,1,1-1.32,1.3A1.34,1.34,0,0,1,17.11,12.36Z"/><path class="cls-2" d="M20.82,12.36a1.32,1.32,0,1,1-1.34,1.29A1.34,1.34,0,0,1,20.82,12.36Z"/><path class="cls-2" d="M15.84,18.42a1.32,1.32,0,1,1-1.31-1.31A1.33,1.33,0,0,1,15.84,18.42Z"/><path class="cls-2" d="M16.9,18.41a1.32,1.32,0,1,1,1.29,1.34A1.33,1.33,0,0,1,16.9,18.41Z"/><path class="cls-2" d="M24,19.8a1.32,1.32,0,1,1,1.31-1.31A1.33,1.33,0,0,1,24,19.8Z"/><path class="cls-2" d="M19,22.65a1.32,1.32,0,1,1-1.3-1.32A1.33,1.33,0,0,1,19,22.65Z"/><path class="cls-2" d="M24,24a1.32,1.32,0,1,1,1.3-1.32A1.33,1.33,0,0,1,24,24Z"/><path class="cls-2" d="M14.72,7.37V10.5H13.17V7.37Z"/><path class="cls-2" d="M19.5,7.36h1.55v3.13H19.5Z"/><path class="cls-2" d="M14.72,15.25H13.17V12.12h1.55Z"/><path class="cls-2" d="M23.19,12.11h1.55v3.13H23.19Z"/><path class="cls-2" d="M20.35,16.86h1.54V20H20.35Z"/><path class="cls-2" d="M13.69,24.22V21.09h1.56v3.13Z"/><path class="cls-2" d="M20,21.08h1.55v3.14H20Z"/><path class="cls-2" d="M3.09,15.77V14.22h6.4v1.55Z"/><path class="cls-2" d="M9,7.89V9.44H3.1V7.89Z"/><path class="cls-2" d="M3.09,12.61V11.06H8.44v1.55Z"/><path class="cls-2" d="M3.09,20.55H7.91V22.1H3.09Z"/><path class="cls-2" d="M3.09,18.94V17.39H7.38v1.55Z"/><path class="cls-2" d="M4.71,3.39a.78.78,0,0,1-.78.79.8.8,0,0,1-.8-.78.81.81,0,0,1,.79-.8A.8.8,0,0,1,4.71,3.39Z"/><path class="cls-2" d="M6.57,4.18a.79.79,0,0,1-.8-.78.79.79,0,1,1,1.58,0A.79.79,0,0,1,6.57,4.18Z"/><path class="cls-2" d="M10,3.39a.81.81,0,0,1-.8.79.79.79,0,0,1-.78-.79.79.79,0,1,1,1.58,0Z"/></g></g></svg>