<?xml version="1.0" encoding="UTF-8"?>
<svg id="Layer_2" data-name="Layer 2" xmlns="http://www.w3.org/2000/svg" viewBox="0 0 40 40">
  <defs>
    <style>
      .cls-1 {
        fill: #0091ff;
      }

      .cls-2 {
        fill: none;
      }
    </style>
  </defs>
  <g id="Layer_1-2" data-name="Layer 1">
    <g>
      <rect class="cls-2" width="40" height="40"/>
      <path class="cls-1" d="m.53,24.27c0-.38,0-.76,0-1.14.21-.61.33-1.26.64-1.81.9-1.59,2.31-2.4,4.14-2.45.83-.02,1.67,0,2.54,0,0-.19,0-.34,0-.48,0-3.02,0-6.04,0-9.06,0-1.07.4-1.47,1.47-1.47,3.02,0,6.03,0,9.05,0,.15,0,.3,0,.49,0,0-.91-.02-1.79,0-2.66.05-1.52.7-2.75,1.89-3.7.69-.55,1.51-.81,2.36-.98.38,0,.76,0,1.14,0,.06.02.11.06.17.07,1.83.34,3.08,1.4,3.76,3.12.34.86.28,1.77.28,2.67,0,.48,0,.96,0,1.48.18,0,.32,0,.46,0,1.15,0,2.3,0,3.46,0,1.91,0,3.82,0,5.74,0,.92,0,1.35.44,1.35,1.36,0,3.53,0,7.05,0,10.58,0,.94-.43,1.36-1.38,1.36-1.06,0-2.13,0-3.19,0-.21,0-.43.01-.64.05-1.26.21-2.16,1.31-2.1,2.58.06,1.3,1.04,2.34,2.34,2.4,1.19.05,2.38.02,3.57.03.99,0,1.4.42,1.4,1.42,0,3.45-.01,6.9.01,10.35,0,.71-.19,1.23-.85,1.53h-11.56c-.67-.26-.91-.76-.89-1.46.02-1.19.02-2.38-.02-3.57-.03-.86-.48-1.52-1.21-1.95-1.7-1-3.75.18-3.8,2.18-.03,1.09-.03,2.18,0,3.27.02.71-.19,1.23-.85,1.53h-11.56c-.67-.26-.9-.76-.89-1.46.02-3.02,0-6.04,0-9.06v-.5c-.18,0-.31,0-.45,0-.76,0-1.52.02-2.28-.02-1.69-.08-3.01-.86-3.87-2.3-.34-.57-.49-1.26-.72-1.9Zm18.32,12.93c0-.74,0-1.44,0-2.15,0-.37.02-.74.07-1.1.33-2.3,2.3-4.01,4.66-4.06,2.32-.05,4.42,1.61,4.77,3.91.15.97.08,1.97.11,2.96,0,.15,0,.29,0,.43h8.7v-8.7c-.16,0-.29,0-.43,0-.77,0-1.55.01-2.32-.02-2.16-.09-4.01-1.66-4.45-3.76-.46-2.17.6-4.38,2.58-5.34.71-.35,1.45-.5,2.24-.5.79,0,1.59,0,2.37,0v-8.73c-.18,0-.33,0-.48,0-3.02,0-6.03,0-9.05,0-1.05,0-1.44-.4-1.44-1.45,0-1.19.01-2.39-.03-3.58-.03-.84-.47-1.5-1.18-1.93-1.71-1.03-3.78.15-3.83,2.17-.02,1.1,0,2.21,0,3.31,0,1.08-.38,1.47-1.46,1.47-3.02,0-6.03,0-9.05,0q-.5,0-.5.49c0,3.06,0,6.12,0,9.18,0,.93-.43,1.35-1.34,1.35-1.08,0-2.15,0-3.23,0-.24,0-.48.02-.72.06-1.21.23-2.1,1.37-2.02,2.58.08,1.29,1.06,2.33,2.33,2.38,1.18.05,2.36.02,3.53.03,1.07,0,1.46.39,1.46,1.48,0,3.02,0,6.04,0,9.06,0,.15,0,.3,0,.46h8.72Z"/>
    </g>
  </g>
</svg>