<?xml version="1.0" encoding="UTF-8"?>
<svg id="Layer_2" data-name="Layer 2" xmlns="http://www.w3.org/2000/svg" viewBox="0 0 40 40">
  <defs>
    <style>
      .cls-1 {
        fill: #0091ff;
      }

      .cls-2 {
        fill: none;
      }
    </style>
  </defs>
  <g id="Layer_1-2" data-name="Layer 1">
    <g>
      <rect class="cls-2" width="40" height="40"/>
      <g>
        <path class="cls-1" d="m15.23,39.09c-.5-.24-.87-.57-.84-1.19.03-.55.46-1.01,1.02-1.05.16-.01.32,0,.48,0,5.81,0,11.63,0,17.44,0,1.83,0,3.19-1.16,3.47-2.94.28-1.78-1.11-3.59-2.9-3.77-.27-.03-.55-.04-.82-.04-2.82,0-5.64,0-8.46,0-2.98,0-5.25-1.95-5.71-4.88-.45-2.91,1.73-5.86,4.66-6.26.68-.09,1.39-.08,2.08-.08.61,0,1.06.52,1.06,1.12,0,.6-.46,1.08-1.08,1.11-.58.03-1.17-.01-1.75.07-1.68.26-2.87,1.79-2.77,3.52.1,1.68,1.48,3.1,3.17,3.12,3.02.04,6.04.01,9.06.02,2.02,0,3.62.83,4.78,2.49.47.68.76,1.44.89,2.27.01.07.04.14.07.21v1.27c-.02.07-.05.14-.07.21-.35,2.03-1.47,3.48-3.34,4.32-.5.22-1.06.31-1.59.47H15.23Z"/>
        <path class="cls-1" d="m8.52,39.09c-.35-.25-.72-.48-1.05-.76-2.09-1.84-3.95-3.88-5.27-6.36-.83-1.56-1.33-3.2-1.28-4.99.11-4.23,3.85-7.72,8.07-7.54,3.89.17,6.96,2.87,7.56,6.71.3,1.9-.15,3.68-.98,5.37-1.14,2.33-2.79,4.28-4.66,6.04-.58.55-1.24,1.02-1.86,1.52h-.52Zm.24-2.58c2.04-1.88,3.9-3.87,4.97-6.43.31-.74.52-1.56.61-2.36.38-3.51-2.91-6.55-6.39-5.97-3.36.56-5.46,3.7-4.6,7,.84,3.24,3.07,5.53,5.41,7.77Z"/>
        <path class="cls-1" d="m39.09,9.41c-.09.47-.16.95-.28,1.42-.5,2.02-1.56,3.75-2.83,5.36-1.15,1.47-2.46,2.8-3.9,3.99-.61.51-1.12.51-1.73,0-2.27-1.92-4.28-4.08-5.7-6.72-.81-1.5-1.31-3.08-1.29-4.8.05-4.6,4.13-8.21,8.71-7.68,3.68.42,6.51,3.23,6.95,6.89.01.1.04.19.07.29v1.27Zm-7.86,8.56c1.97-1.81,3.76-3.73,4.86-6.18.34-.77.59-1.62.69-2.45.46-3.7-2.99-6.83-6.64-6.07-3.32.69-5.22,3.89-4.28,7.21.31,1.11.83,2.12,1.47,3.08,1.09,1.65,2.42,3.08,3.9,4.41Z"/>
        <path class="cls-1" d="m12.13,27.34c-.05,1.9-1.59,3.37-3.49,3.32-1.8-.05-3.28-1.6-3.25-3.41.04-1.89,1.58-3.36,3.49-3.31,1.82.05,3.29,1.59,3.24,3.4Zm-3.37-1.16c-.61,0-1.12.51-1.12,1.11,0,.6.51,1.12,1.11,1.13.62,0,1.13-.51,1.13-1.14,0-.62-.5-1.1-1.12-1.1Z"/>
        <path class="cls-1" d="m31.17,12.14c-1.87-.05-3.37-1.59-3.32-3.42.05-1.86,1.59-3.36,3.42-3.32,1.86.04,3.37,1.59,3.32,3.42-.05,1.87-1.59,3.37-3.42,3.32Zm1.17-3.38c0-.61-.52-1.11-1.13-1.11-.62,0-1.14.54-1.11,1.16.02.61.53,1.1,1.14,1.08.61-.01,1.1-.52,1.1-1.13Z"/>
      </g>
    </g>
  </g>
</svg>