<?xml version="1.0" encoding="UTF-8"?>
<svg id="Layer_2" data-name="Layer 2" xmlns="http://www.w3.org/2000/svg" viewBox="0 0 40 40">
  <defs>
    <style>
      .cls-1 {
        fill: #0091ff;
      }

      .cls-2 {
        fill: none;
      }
    </style>
  </defs>
  <g id="Layer_1-2" data-name="Layer 1">
    <g>
      <rect class="cls-2" width="40" height="40"/>
      <g>
        <path class="cls-1" d="m1.33,15.82c.75-2.04,3.24-3.02,4.9-1.28.79.83.7,1.94.71,3.01.01,1.31.02,2.62.01,3.93,0,1.31,0,2.62-.02,3.93-.02,1.04-.3,1.91-1.18,2.55-1.8,1.3-3.71.05-4.42-1.71,0-3.47,0-6.94,0-10.41Zm1.54,5.21c0,1.5,0,2.99,0,4.49,0,.97.83,1.6,1.66,1.29.55-.2.84-.67.84-1.38,0-1.61,0-3.22,0-4.83,0-1.32,0-2.64,0-3.96,0-.79-.45-1.33-1.1-1.4-.84-.08-1.4.46-1.41,1.38,0,1.47,0,2.94,0,4.41Z"/>
        <path class="cls-1" d="m31.79,22.62c0-1.16,0-2.31,0-3.47,0-.49-.03-.53-.51-.51-1.09.04-1.94-.36-2.47-1.33-.87-1.59.3-3.61,2.11-3.62,2.21-.02,4.43-.01,6.64,0,1.37,0,2.44,1.13,2.44,2.5,0,1.34-1.09,2.43-2.45,2.45q-.79.01-.8.8c0,2.14,0,4.28,0,6.41,0,1.27-.72,2.21-1.9,2.54-1.45.4-3.02-.76-3.05-2.26-.01-.59,0-1.18,0-1.77,0-.58,0-1.16,0-1.74h0Zm2.47-7.38h0c-.87,0-4.17-.58-4.16.92.02,1.65,2.47.34,3.12,1.29.36.53.13,1.64.13,2.26,0,.93,0,1.86,0,2.79,0,.9,0,1.8,0,2.7,0,.61-.07,1.42.67,1.63,1.63.46,1.12-2.75,1.12-3.54,0-.95,0-1.9,0-2.84,0-.82-.14-1.79.03-2.6.35-1.64,2.63.02,3.19-1.38.71-1.76-3.36-1.24-4.1-1.24Z"/>
        <path class="cls-1" d="m18.38,14.58c5.65-.09,8.5,7.07,4.57,11.01-4.01,4.02-11.12,1.15-11.08-4.58.03-3.7,3.05-6.49,6.5-6.43Zm-.04,11.35c2.69,0,4.92-2.18,4.93-4.82,0-4.27-5.27-6.6-8.34-3.55-3.03,3.01-.85,8.36,3.42,8.37Z"/>
        <path class="cls-1" d="m18.4,34.87c-1.56,0-3.13-.25-4.6-.77-.86-.3-3.24-1.01-3.37-2.07-.22-1.88,2.66.08,3.21.31,1.54.66,3.21.98,4.87.95,2.79-.06,5.47-1.01,7.63-2.79.44-.36,1.02-1.15,1.66-.97.93.26.49,1.12.05,1.57-1.02,1.04-2.32,1.85-3.63,2.47-1.86.87-3.79,1.29-5.84,1.3Z"/>
        <path class="cls-1" d="m18.27,7.21c2.7.06,5.03.69,7.19,1.95.47.28.62.7.41,1.11-.22.42-.69.55-1.16.28-1.28-.73-2.62-1.29-4.07-1.54-4.02-.68-7.57.34-10.6,3.08-.2.18-.37.38-.63.48-.35.13-.73,0-.93-.32-.21-.33-.17-.72.15-1.03.62-.61,1.28-1.17,2.01-1.65,1.89-1.28,3.98-2.01,6.24-2.27.52-.06,1.05-.07,1.38-.09Z"/>
        <path class="cls-1" d="m18.29,31.22c-2.39-.05-4.68-.88-6.51-2.43-.38-.32-.94-.73-.81-1.3.12-.51.62-.71,1.08-.53.53.21,1.04.85,1.51,1.17.54.37,1.13.68,1.75.92,2.33.9,5.07.7,7.25-.53.67-.38,1.89-1.84,2.69-1.6,1.68.51-.74,2.25-1.28,2.6-1.69,1.11-3.56,1.65-5.69,1.68Z"/>
        <path class="cls-1" d="m18.81,10.88c2.31.04,5.14,1.07,6.67,2.87.33.39.48.88.03,1.26-.5.41-.92.03-1.32-.3-.96-.79-1.94-1.44-3.14-1.81-2.34-.73-4.81-.54-6.94.7-.66.38-1.96,1.93-2.75,1.48-1.32-.75.82-2.16,1.41-2.54,1.7-1.1,3.56-1.66,6.04-1.67Z"/>
        <path class="cls-1" d="m9.96,30.28c0,.72-.88,1.01-1.35.53-.47-.48-.18-1.32.53-1.34.42,0,.82.39.83.81Z"/>
        <path class="cls-1" d="m28.38,11.84c0,.69-.86,1-1.33.52-.47-.48-.13-1.33.56-1.32.44,0,.77.35.77.8Z"/>
        <path class="cls-1" d="m18.37,23.86c-2.53,0-3.74-3.2-1.9-4.91,1.81-1.68,4.67-.26,4.72,2.11.03,1.54-1.27,2.79-2.82,2.8Zm-.02-4.03c-.68,0-1.22.54-1.21,1.21,0,1.07,1.36,1.65,2.1.86.74-.79.2-2.09-.89-2.08Z"/>
      </g>
    </g>
  </g>
</svg>