<?xml version="1.0" encoding="UTF-8"?>
<svg id="Layer_2" data-name="Layer 2" xmlns="http://www.w3.org/2000/svg" viewBox="0 0 40 40">
  <defs>
    <style>
      .cls-1 {
        fill: #0091ff;
      }

      .cls-2 {
        fill: none;
      }
    </style>
  </defs>
  <g id="Layer_1-2" data-name="Layer 1">
    <g>
      <rect class="cls-2" width="40" height="40"/>
      <path class="cls-1" d="m17.18,16.89c.43.69.79,1.43,1.17,2.15.12.22.05.35-.17.5-1.37.92-1.47,2.92-.13,3.83.58.39.73.78.65,1.38,0,.05,0,.1,0,.15.05,1.34,1.06,2.36,2.4,2.38,1.14.02,2.28.02,3.42,0,1.16-.03,2.12-.92,2.27-2.07.05-.36.05-.73.04-1.1,0-.24.06-.36.29-.47,1.65-.84,1.77-3.08.23-4.11-.08-.05-.16-.11-.25-.16.23-.89.69-1.65,1.2-2.39.59-.87,1.23-1.71,1.75-2.62.82-1.43,1.03-3.01.92-4.64-.03-.45-.35-.74-.77-.72-.42.02-.7.33-.7.78,0,.17,0,.34.01.51.04,1.43-.3,2.76-1.1,3.96-.42.63-.86,1.25-1.3,1.86-.62.86-1.12,1.77-1.44,2.79-.03.1-.19.22-.29.22-1.74.01-3.48,0-5.22.01-.19,0-.25-.08-.33-.25-.37-.82-.74-1.65-1.19-2.43-.38-.66-.89-1.26-1.33-1.89-.84-1.2-1.3-2.53-1.3-4.01,0-2.12.65-3.97,2.27-5.4,2.33-2.07,5.78-2.24,8.4-.45.47.32.9.29,1.16-.09.26-.37.16-.84-.33-1.11-.74-.41-1.51-.8-2.3-1.11-.5-.2-1.06-.26-1.6-.38h-1.69c-.42.08-.84.15-1.25.26-5.87,1.6-7.27,7.8-5.32,11.79.49,1,1.23,1.88,1.82,2.83Zm6.54,8.91c-.82,0-1.64,0-2.46,0-.7,0-1.06-.37-1.08-1.06,0-.27,0-.53,0-.83h5.14c.02.05.04.09.04.12.12,1.46-.18,1.78-1.65,1.78Zm-4.07-5.21c2.1,0,4.19,0,6.29,0,.56,0,.94.31,1.01.77.06.46-.18.87-.61,1-.15.05-.31.05-.47.05-1.03,0-2.06,0-3.09,0s-2.08,0-3.12,0c-.65,0-1.06-.36-1.06-.91s.42-.92,1.06-.92Zm11.97,7.14c-.73-.22-1.43-.08-2.09.26-1.67.86-3.35,1.72-5.03,2.58-.15.08-.27.18-.45.02-.52-.46-1.14-.64-1.83-.63-.91.01-1.82-.04-2.72.02-.73.04-1.35-.06-1.82-.67-.08-.1-.2-.17-.31-.26-1.3-1.02-2.73-1.66-4.42-1.6-1.03.04-2.01.28-2.96.66-.58.23-1.16.36-1.79.33-.19-.01-.3-.04-.4-.23-.37-.68-.95-1.03-1.73-1.03-.83,0-1.67,0-2.5,0-1.28,0-2.03.75-2.03,2.03,0,1.14,0,2.27,0,3.41,0,1.17,0,2.35,0,3.52.01,1.18.78,1.94,1.96,1.96.85.01,1.69,0,2.54,0,.79,0,1.39-.34,1.78-1.03.05-.08.14-.2.21-.2.6,0,1.22-.06,1.79.08,2.89.74,5.76,1.54,8.65,2.31.8.22,1.61.41,2.46.29,1.06-.15,1.96-.65,2.82-1.26,2.33-1.65,4.65-3.3,6.97-4.95.58-.41,1.18-.8,1.72-1.25.77-.64,1.12-1.48.91-2.48-.2-.96-.79-1.58-1.73-1.86Zm-25.07,8.35c0,.41-.15.54-.56.55-.81,0-1.61,0-2.42,0-.43,0-.56-.13-.56-.58,0-1.15,0-2.3,0-3.44s0-2.25,0-3.37c0-.5.1-.59.61-.59.8,0,1.59,0,2.39,0,.41,0,.55.14.55.55,0,2.3,0,4.59,0,6.89Zm24.71-4.95c-2.83,2.02-5.67,4.03-8.5,6.04-.03.02-.06.04-.09.06-1.14.84-2.36,1.03-3.75.63-2.88-.83-5.78-1.58-8.68-2.35-.34-.09-.7-.12-1.05-.14-.38-.02-.75,0-1.15,0v-5.44s.05-.04.07-.04c.97.07,1.85-.22,2.74-.55,1.14-.43,2.32-.6,3.53-.26.99.28,1.84.82,2.55,1.54.6.6,1.27.85,2.11.81,1.05-.05,2.11-.01,3.16-.01.77,0,1.27.44,1.27,1.11,0,.67-.5,1.1-1.28,1.1-1.85,0-3.7,0-5.55,0-.11,0-.22,0-.33,0-.45.04-.73.35-.72.77.01.4.31.68.75.69.58.01,1.15,0,1.73,0,1.41,0,2.82,0,4.23,0,1.62-.01,2.74-1.21,2.64-2.82-.01-.22.04-.32.23-.42,1.67-.85,3.33-1.71,5-2.56.7-.36,1.32-.25,1.62.26.31.52.11,1.1-.53,1.56Zm-7.75-21.47c0-.72,0-1.44,0-2.16,0-.54-.28-.87-.72-.87-.44,0-.74.33-.74.86,0,1.43,0,2.85,0,4.28,0,.54.29.87.73.87.45,0,.73-.32.74-.86,0-.71,0-1.42,0-2.12Zm10.08,7.04c-.32-.21-.72-.07-.93.24-.21.31-.18.73.14.95.86.6,1.73,1.2,2.62,1.75.47.29,1.07-.11,1.06-.76-.06-.09-.12-.32-.27-.43-.86-.6-1.73-1.19-2.62-1.76ZM9.42,3.91c.79.54,1.58,1.07,2.37,1.59.42.28.86.22,1.1-.14.25-.37.15-.78-.27-1.07-.78-.53-1.56-1.05-2.35-1.57-.14-.09-.31-.13-.4-.17-.42.03-.66.19-.76.52-.11.35.02.63.31.83Zm24.16,1.69c.89-.56,1.76-1.15,2.62-1.75.28-.19.34-.51.21-.82-.12-.3-.36-.45-.77-.45-.06.02-.2.06-.33.13-.13.07-.25.16-.37.24-.7.47-1.41.93-2.1,1.41-.36.25-.42.66-.2,1,.2.31.62.45.93.24Zm-25.44,6.28c.48.01.95,0,1.43,0h1.32s.05,0,.07,0c.5-.02.82-.32.82-.75,0-.42-.32-.71-.81-.71-.94,0-1.88,0-2.82,0-.49,0-.8.29-.81.71-.01.44.31.74.81.75Zm3.82,4.82c-.89.57-1.76,1.15-2.62,1.75-.27.19-.34.5-.21.82.13.31.37.44.75.46.09-.03.23-.07.35-.15.19-.11.37-.24.55-.36.64-.43,1.28-.85,1.91-1.29.35-.25.41-.64.21-.97-.2-.33-.62-.48-.96-.27Zm25.43-6.28c-.46,0-.93,0-1.39,0-.48,0-.95,0-1.43,0-.49.01-.79.29-.8.72,0,.43.3.73.78.74.95.01,1.91.01,2.86,0,.49,0,.79-.3.8-.72,0-.44-.3-.73-.82-.74Zm-14.61,4.08c-.41,0-.75.35-.73.76.01.4.34.71.74.7.41,0,.71-.32.71-.73,0-.4-.32-.73-.72-.73Zm6.52-7.21c.42.01.75-.31.75-.73,0-.4-.33-.73-.72-.73-.39,0-.72.33-.73.72,0,.4.31.73.71.74Z"/>
    </g>
  </g>
</svg>