<?xml version="1.0" encoding="UTF-8"?>
<svg id="Layer_2" data-name="Layer 2" xmlns="http://www.w3.org/2000/svg" viewBox="0 0 43.64 40">
  <defs>
    <style>
      .cls-1 {
        fill: #0091ff;
      }
    </style>
  </defs>
  <g id="Layer_1-2" data-name="Layer 1">
    <path class="cls-1" d="m27.27,4.55c0-2.51-2.04-4.55-4.55-4.55H4.55C2.04,0,0,2.04,0,4.55v22.73h27.27V4.55Zm-1.82,20.91H1.82V4.55c0-1.5,1.22-2.73,2.73-2.73h18.18c1.5,0,2.73,1.22,2.73,2.73v20.91ZM7.27,5.45h1.82v16.36h-1.82V5.45Zm10.91,0h1.82v16.36h-1.82V5.45Zm-5.45,0h1.82v16.36h-1.82V5.45Zm30.91,16.63c0-.88-.14-1.75-.42-2.59l-2.43-7.3c-.62-1.86-2.35-3.11-4.31-3.11h-5.56v21.82H0v3.64c0,3.01,2.45,5.45,5.45,5.45,1.9,0,3.57-.97,4.55-2.44.98,1.47,2.65,2.44,4.55,2.44,3.01,0,5.45-2.45,5.45-5.45v-1.82h10.91v1.82c0,3.01,2.45,5.45,5.45,5.45s5.45-2.45,5.45-5.45v-1.82h1.82v-10.64Zm-7.17-11.18c1.17,0,2.22.75,2.59,1.87l2.41,7.23h-8.74v-9.09h3.74,0ZM5.45,38.18c-2.01,0-3.64-1.63-3.64-3.64v-1.82h7.27v1.82c0,2.01-1.63,3.64-3.64,3.64Zm12.73-3.64c0,2.01-1.63,3.64-3.64,3.64s-3.64-1.63-3.64-3.64v-1.82h7.27v1.82Zm21.82,0c0,2.01-1.63,3.64-3.64,3.64s-3.64-1.63-3.64-3.64v-1.82h7.27v1.82Zm1.82-3.64h-9.09v-9.09h9.09c0,.09,0,.18,0,.27v8.82Z"/>
  </g>
</svg>