<?xml version="1.0" encoding="UTF-8"?><svg id="Layer_2" xmlns="http://www.w3.org/2000/svg" viewBox="0 0 48 48"><defs><style>.cls-1{fill:none;}.cls-2{fill:#b3b3b3;}</style></defs><g id="Layer_1-2"><g><rect class="cls-1" width="48" height="48"/><path class="cls-2" d="M46.99,33.38c-.52-1.25-1.04-2.5-1.58-3.74-.39-.92-1.09-1.21-2.01-.83-1.26,.53-2.52,1.06-3.78,1.6-.81,.35-1.15,1.1-.83,1.83,.31,.72,1.1,.99,1.91,.66,.3-.12,.6-.25,.97-.4-.08,.2-.12,.31-.17,.42-3.09,6.46-8.16,10.33-15.26,11.32-5.79,.8-10.94-.86-15.36-4.69-2.96-2.56-4.89-5.8-5.93-9.57-.24-.88-.96-1.31-1.74-1.07-.73,.22-1.12,.97-.87,1.78,2.66,8.81,8.49,14.18,17.49,16.09,.83,.18,1.69,.24,2.54,.36h2.71c.94-.13,1.89-.2,2.81-.4,7.49-1.6,12.87-5.86,16.11-12.8,.03-.07,.08-.14,.15-.27,.13,.3,.23,.53,.33,.76,.36,.82,1.08,1.17,1.81,.87,.75-.3,1.04-1.08,.69-1.92ZM4.46,18.95c1.35-.55,2.7-1.12,4.03-1.7,.74-.32,1.03-1.11,.72-1.8-.3-.68-1.06-.96-1.79-.68-.29,.11-.57,.23-.94,.39,.1-.23,.15-.36,.21-.49,3.33-6.54,8.62-10.32,15.93-11,6.16-.57,11.43,1.54,15.74,5.97,2.32,2.38,3.83,5.23,4.71,8.43,.23,.83,.93,1.23,1.69,1.03,.73-.19,1.15-.96,.91-1.76-.28-.92-.55-1.85-.92-2.73C40.88,5.29,31.62-.23,21.59,1.05,13.57,2.06,7.79,6.4,4.19,13.64c-.08,.16-.16,.31-.27,.55-.17-.4-.3-.73-.45-1.05-.31-.65-1-.96-1.65-.76-.49,.15-.74,.54-.95,.96v.72c.06,.11,.14,.22,.19,.34,.54,1.26,1.06,2.52,1.61,3.78,.34,.79,1.04,1.1,1.81,.79Zm31.08,9.05c.94-.16,1.75-.57,2.37-1.29,1.04-1.18,1.34-2.56,.83-4.04-.51-1.48-1.58-2.38-3.13-2.68-.67-.13-.97-.8-.6-1.33,.46-.66,.74-1.38,.76-2.19,.04-1.69-.67-2.99-2.16-3.78-1.49-.78-2.96-.63-4.35,.34-.1,.07-.2,.16-.3,.17-.4,.01-.88-.41-.95-.82-.33-1.82-1.82-3.19-3.6-3.34-2.2-.18-4.01,1.22-4.41,3.4-.11,.59-.81,.89-1.29,.54-.72-.52-1.52-.78-2.68-.77-1.25,0-2.65,.83-3.32,2.18-.73,1.48-.61,2.91,.32,4.27,.33,.49,.05,1.2-.54,1.29-.93,.15-1.72,.56-2.34,1.25-1.05,1.17-1.36,2.54-.87,4.03,.5,1.51,1.58,2.42,3.14,2.73,.66,.13,.97,.8,.6,1.33-.46,.65-.74,1.38-.76,2.18-.04,1.69,.67,2.99,2.16,3.78,1.49,.79,2.96,.63,4.35-.34,.1-.07,.24-.17,.35-.16,.49,.04,.83,.39,.92,.89,.02,.09,.03,.18,.06,.26,.5,1.84,2.19,3.08,4.07,3,1.95-.08,3.51-1.44,3.86-3.37,.12-.65,.81-.94,1.34-.56,1.61,1.14,3.82,.97,5.22-.42,1.41-1.39,1.6-3.63,.45-5.25-.37-.52-.1-1.23,.52-1.33Zm-1.44-2.65c-.6,.04-1.01,.34-1.24,.9-.33,.81-.67,1.61-1,2.41-.23,.55-.16,1.06,.25,1.51,.16,.18,.34,.34,.51,.52,.56,.6,.58,1.41,.06,1.95-.54,.55-1.37,.54-1.98-.03-.18-.16-.34-.35-.52-.51-.47-.42-.98-.47-1.55-.23-.77,.33-1.55,.66-2.33,.97-.59,.23-.92,.67-.94,1.3,0,.27,0,.54,0,.81-.05,.74-.64,1.29-1.37,1.28-.71-.01-1.29-.56-1.33-1.28-.02-.27,0-.54,0-.81-.02-.64-.35-1.07-.93-1.3-.78-.31-1.56-.63-2.33-.97-.57-.25-1.13-.17-1.59,.25-.2,.19-.38,.39-.58,.57-.57,.49-1.37,.47-1.88-.05-.5-.51-.51-1.32-.01-1.88,.18-.2,.39-.38,.57-.58,.42-.46,.48-.98,.24-1.55-.33-.77-.66-1.55-.97-2.33-.24-.61-.67-.94-1.34-.95-.26,0-.51,0-.77,0-.74-.04-1.3-.64-1.3-1.36,0-.73,.58-1.4,1.31-1.33,1.37,.13,2.08-.45,2.36-1.76,.11-.5,.41-.96,.64-1.44,.32-.66,.25-1.2-.26-1.73-.18-.19-.37-.36-.54-.55-.46-.54-.44-1.32,.03-1.81,.49-.51,1.28-.57,1.84-.12,.22,.18,.41,.4,.62,.59,.48,.45,1.03,.52,1.62,.27,.76-.33,1.52-.65,2.28-.95,.61-.24,.94-.67,.96-1.33,0-.26,0-.51,0-.77,.04-.74,.62-1.3,1.35-1.31,.73,0,1.31,.56,1.36,1.3,.01,.24,0,.48,0,.72,.01,.71,.34,1.14,1,1.4,.74,.28,1.48,.59,2.2,.91,.64,.29,1.18,.22,1.7-.27,.22-.21,.42-.44,.66-.61,.44-.32,.92-.35,1.41-.11,.46,.23,.73,.68,.8,1.25-.15,.3-.28,.61-.47,.89-.14,.21-.36,.37-.53,.55-.43,.46-.5,1.01-.25,1.59,.33,.76,.65,1.52,.95,2.28,.24,.61,.67,.95,1.32,.97,.24,0,.48,0,.72,0,.78,.02,1.36,.6,1.36,1.34,0,.76-.58,1.35-1.38,1.37-.26,0-.51-.01-.77,0Zm-10.07-5.43c-2.23-.01-4.07,1.8-4.09,4.02-.02,2.25,1.8,4.1,4.04,4.11,2.23,.01,4.07-1.8,4.09-4.02,.02-2.25-1.8-4.1-4.04-4.11Zm0,5.42c-.75,.02-1.39-.61-1.38-1.36,0-.73,.62-1.35,1.35-1.35,.73,0,1.35,.61,1.36,1.34,0,.73-.6,1.36-1.33,1.37Z"/></g></g></svg>