<?xml version="1.0" encoding="UTF-8"?><svg id="Layer_2" xmlns="http://www.w3.org/2000/svg" viewBox="0 0 40 40.6"><defs><style>.cls-1{fill:none;}.cls-2{fill:#0091ff;stroke:#0091ff;stroke-miterlimit:10;stroke-width:.6px;}</style></defs><g id="Layer_1-2"><g><rect class="cls-1" y=".3" width="40" height="40"/><g><path class="cls-2" d="M38.53,24.53l-1.38-.8c.23-1.15,.35-2.31,.35-3.44s-.12-2.3-.34-3.44l1.37-.79c.43-.25,.73-.64,.86-1.12s.06-.97-.18-1.4l-3.76-6.51c-.25-.43-.64-.73-1.12-.86-.47-.13-.97-.06-1.4,.18l-1.38,.79c-1.74-1.53-3.78-2.71-5.96-3.45v-1.58c0-1.01-.83-1.84-1.84-1.84h-7.51c-1.01,0-1.84,.83-1.84,1.84v1.58c-2.16,.73-4.21,1.92-5.95,3.45l-1.38-.8c-.43-.25-.92-.31-1.4-.18-.47,.13-.87,.43-1.12,.86L.8,13.55c-.25,.43-.31,.92-.18,1.4s.43,.87,.86,1.12l1.38,.8c-.23,1.15-.35,2.31-.35,3.44s.12,2.3,.34,3.44l-1.37,.79c-.88,.51-1.18,1.63-.67,2.51l3.76,6.51c.51,.88,1.63,1.18,2.51,.67l1.37-.79c1.74,1.53,3.78,2.71,5.96,3.45v1.58c0,1.01,.83,1.84,1.84,1.84h7.51c1.01,0,1.84-.83,1.84-1.84v-1.58c2.16-.73,4.21-1.92,5.95-3.45l1.38,.8c.88,.51,2.01,.21,2.51-.67l3.76-6.51c.51-.88,.21-2.01-.67-2.51Zm-.34,1.93l-3.76,6.51c-.18,.32-.59,.43-.91,.24l-1.75-1.01c-.22-.13-.5-.1-.69,.08-1.79,1.66-3.95,2.91-6.24,3.62-.25,.08-.41,.3-.41,.56v2.01c0,.37-.3,.67-.67,.67h-7.51c-.37,0-.67-.3-.67-.67v-2.01c0-.26-.17-.48-.41-.56-2.3-.71-4.46-1.96-6.24-3.61-.11-.1-.25-.16-.4-.16-.1,0-.2,.03-.29,.08l-1.74,1.01c-.32,.18-.73,.07-.91-.24l-3.76-6.51c-.18-.32-.07-.73,.24-.91l1.74-1.01c.22-.13,.34-.39,.28-.64-.27-1.19-.4-2.4-.4-3.61s.14-2.39,.41-3.6c.06-.25-.06-.51-.28-.64l-1.75-1.01c-.15-.09-.26-.23-.31-.4-.05-.17-.02-.35,.07-.5l3.76-6.51c.09-.15,.23-.26,.4-.31,.17-.05,.35-.02,.5,.07l1.75,1.01c.22,.13,.5,.1,.69-.08,1.79-1.66,3.95-2.91,6.24-3.62,.25-.08,.41-.3,.41-.56V2.14c0-.37,.3-.67,.67-.67h7.51c.37,0,.67,.3,.67,.67v2.01c0,.26,.17,.48,.41,.56,2.3,.71,4.46,1.96,6.24,3.61,.19,.17,.47,.21,.69,.08l1.74-1.01c.15-.09,.33-.11,.5-.07,.17,.05,.32,.16,.4,.31l3.76,6.51c.09,.15,.11,.33,.07,.5s-.16,.32-.31,.4l-1.74,1.01c-.22,.13-.34,.39-.28,.64,.27,1.19,.4,2.4,.4,3.61s-.14,2.39-.41,3.6c-.06,.25,.06,.51,.28,.64l1.75,1.01c.32,.18,.43,.59,.24,.91Z"/><path class="cls-2" d="M20,8.44c-6.54,0-11.86,5.32-11.86,11.86s5.32,11.86,11.86,11.86,11.86-5.32,11.86-11.86-5.32-11.86-11.86-11.86Zm0,22.54c-5.89,0-10.68-4.79-10.68-10.68s4.79-10.68,10.68-10.68,10.68,4.79,10.68,10.68-4.79,10.68-10.68,10.68Z"/><path class="cls-2" d="M22.19,17.21h-2.19c-.32,0-.59,.26-.59,.59v5.01c0,.32,.26,.59,.59,.59s.59-.26,.59-.59v-1.29h1.6c1.19,0,2.15-.97,2.15-2.15s-.97-2.15-2.15-2.15Zm0,3.13h-1.6v-1.96h1.6c.54,0,.98,.44,.98,.98s-.44,.98-.98,.98Z"/><path class="cls-2" d="M16.79,17.59c-.09-.23-.3-.38-.55-.38h-.63c-.24,0-.46,.15-.55,.38l-1.88,5.01c-.11,.3,.04,.64,.34,.76,.3,.11,.64-.04,.76-.34l.33-.87h2.63l.33,.87c.09,.24,.31,.38,.55,.38,.07,0,.14-.01,.21-.04,.3-.11,.46-.45,.34-.76l-1.88-5.01Zm-1.74,3.38l.87-2.33,.87,2.33h-1.75Z"/><path class="cls-2" d="M25.64,17.21c-.32,0-.59,.26-.59,.59v5.01c0,.32,.26,.59,.59,.59s.59-.26,.59-.59v-5.01c0-.32-.26-.59-.59-.59Z"/><path class="cls-2" d="M24.2,7.13c.41,.13,.81,.28,1.21,.45,.07,.03,.15,.05,.23,.05,.23,0,.45-.13,.54-.36,.13-.3-.01-.64-.31-.77-.43-.18-.87-.35-1.31-.49-.31-.1-.64,.07-.74,.38-.1,.31,.07,.64,.38,.74Z"/><path class="cls-2" d="M7.86,26.91c-.16-.28-.51-.39-.8-.23-.28,.16-.39,.51-.23,.8,.24,.45,.51,.89,.8,1.31,.11,.17,.3,.25,.48,.25,.11,0,.23-.03,.33-.1,.27-.18,.34-.55,.15-.82-.27-.39-.51-.79-.74-1.2Z"/><path class="cls-2" d="M18.8,34.06c-3.15-.27-6.13-1.63-8.41-3.84-.23-.23-.6-.22-.83,.01-.23,.23-.22,.6,.01,.83,2.47,2.39,5.71,3.87,9.12,4.17,.02,0,.03,0,.05,0,.3,0,.56-.23,.58-.54,.03-.32-.21-.61-.53-.64Z"/><path class="cls-2" d="M28.45,7.92c-.27-.18-.63-.11-.82,.15-.18,.27-.11,.63,.15,.82,2.73,1.86,4.7,4.64,5.56,7.81,.07,.26,.31,.43,.57,.43,.05,0,.1,0,.15-.02,.31-.08,.5-.41,.41-.72-.93-3.44-3.07-6.45-6.03-8.47Z"/></g></g></g></svg>