<?xml version="1.0" encoding="UTF-8"?><svg id="Layer_2" xmlns="http://www.w3.org/2000/svg" viewBox="0 0 40.15 40"><defs><style>.cls-1{fill:#0091ff;}.cls-2{fill:none;}</style></defs><g id="Layer_1-2"><g><rect class="cls-2" x=".15" width="40" height="40"/><g><g><circle class="cls-1" cx="13.75" cy="20.07" r="1.4"/><path class="cls-1" d="M13.75,21.5c-.79,0-1.43-.64-1.43-1.43s.64-1.43,1.43-1.43,1.43,.64,1.43,1.43-.64,1.43-1.43,1.43Zm0-2.8c-.75,0-1.37,.61-1.37,1.37s.61,1.37,1.37,1.37,1.37-.61,1.37-1.37-.61-1.37-1.37-1.37Z"/></g><g><circle class="cls-1" cx="20.07" cy="20.07" r="1.4"/><path class="cls-1" d="M20.07,21.5c-.79,0-1.43-.64-1.43-1.43s.64-1.43,1.43-1.43,1.43,.64,1.43,1.43-.64,1.43-1.43,1.43Zm0-2.8c-.75,0-1.37,.61-1.37,1.37s.61,1.37,1.37,1.37,1.37-.61,1.37-1.37-.61-1.37-1.37-1.37Z"/></g><g><circle class="cls-1" cx="26.4" cy="20.07" r="1.4"/><path class="cls-1" d="M26.4,21.5c-.79,0-1.43-.64-1.43-1.43s.64-1.43,1.43-1.43,1.43,.64,1.43,1.43-.64,1.43-1.43,1.43Zm0-2.8c-.75,0-1.37,.61-1.37,1.37s.61,1.37,1.37,1.37,1.37-.61,1.37-1.37-.61-1.37-1.37-1.37Z"/></g><g><path class="cls-1" d="M9.51,31.15c.73,.73,1.69,1.13,2.72,1.13s2-.4,2.72-1.13c.73-.73,1.13-1.69,1.13-2.72s-.4-2-1.13-2.72l-5.63-5.63,5.47-5.47c1.5-1.5,1.5-3.94,0-5.45-.73-.73-1.69-1.13-2.72-1.13s-2,.4-2.72,1.13L1.16,17.35c-1.5,1.5-1.5,3.94,0,5.45l8.35,8.35ZM3.17,19.36L11.35,11.17c.2-.2,.46-.3,.72-.3s.52,.1,.72,.3h0c.4,.4,.4,1.04,0,1.43l-6.76,6.76c-.4,.4-.4,1.04,0,1.43l6.92,6.92c.4,.4,.4,1.04,0,1.43h0c-.2,.2-.46,.3-.72,.3s-.52-.1-.72-.3L3.17,20.79c-.4-.4-.4-1.04,0-1.43Z"/><path class="cls-1" d="M12.24,32.31c-1.04,0-2.01-.4-2.75-1.14L1.14,22.82c-1.51-1.51-1.51-3.98,0-5.49L9.32,9.14c.73-.73,1.71-1.14,2.75-1.14s2.01,.4,2.75,1.14c1.51,1.51,1.51,3.98,0,5.49l-5.44,5.44,5.61,5.61c.73,.73,1.14,1.71,1.14,2.75s-.4,2.01-1.14,2.75c-.73,.73-1.71,1.14-2.75,1.14Zm-.17-24.24c-1.02,0-1.98,.4-2.7,1.12L1.18,17.37c-1.49,1.49-1.49,3.91,0,5.4l8.35,8.35c.72,.72,1.68,1.12,2.7,1.12s1.98-.4,2.7-1.12c.72-.72,1.12-1.68,1.12-2.7s-.4-1.98-1.12-2.7l-5.66-5.66,5.49-5.49c1.49-1.49,1.49-3.91,0-5.4-.72-.72-1.68-1.12-2.7-1.12Zm.17,21.41c-.28,0-.54-.11-.74-.31L3.14,20.81c-.2-.2-.31-.46-.31-.74s.11-.54,.31-.74L11.33,11.14c.2-.2,.46-.31,.74-.31s.54,.11,.74,.31c.2,.2,.31,.46,.31,.74s-.11,.54-.31,.74l-6.76,6.76c-.38,.38-.38,1,0,1.39l6.92,6.92c.2,.2,.31,.46,.31,.74s-.11,.54-.31,.74-.46,.31-.74,.31Zm-.17-18.57c-.26,0-.51,.1-.69,.29L3.19,19.38c-.19,.19-.29,.43-.29,.69s.1,.51,.29,.69l8.35,8.35c.19,.19,.43,.29,.69,.29s.51-.1,.69-.29c.19-.19,.29-.43,.29-.69s-.1-.51-.29-.69l-6.92-6.92c-.41-.41-.41-1.07,0-1.48l6.76-6.76c.19-.19,.29-.43,.29-.69s-.1-.51-.29-.69c-.19-.19-.43-.29-.69-.29Z"/></g><g><path class="cls-1" d="M30.81,9.16c-.73-.73-1.69-1.13-2.72-1.13s-2,.4-2.72,1.13c-1.5,1.5-1.5,3.94,0,5.45l5.47,5.47-5.63,5.63c-1.5,1.5-1.5,3.94,0,5.45,.73,.73,1.69,1.13,2.72,1.13s2-.4,2.72-1.13l8.35-8.35c1.5-1.5,1.5-3.94,0-5.45l-8.19-8.19Zm6.18,11.63l-8.35,8.35c-.2,.2-.46,.3-.72,.3s-.52-.1-.72-.3c-.4-.4-.4-1.04,0-1.43l6.92-6.92c.4-.4,.4-1.04,0-1.43l-6.76-6.76c-.4-.4-.4-1.04,0-1.43,.2-.2,.46-.3,.72-.3s.52,.1,.72,.3l8.19,8.19c.4,.4,.4,1.04,0,1.43Z"/><path class="cls-1" d="M27.92,32.31c-1.04,0-2.01-.4-2.75-1.14-1.51-1.51-1.51-3.98,0-5.49l5.61-5.61-5.44-5.44c-1.51-1.51-1.51-3.98,0-5.49,.73-.73,1.71-1.14,2.75-1.14s2.01,.4,2.75,1.14l8.19,8.19c1.51,1.51,1.51,3.98,0,5.49l-8.35,8.35c-.73,.73-1.71,1.14-2.75,1.14Zm.17-24.24c-1.02,0-1.98,.4-2.7,1.12-1.49,1.49-1.49,3.91,0,5.4l5.49,5.49-5.66,5.66c-1.49,1.49-1.49,3.91,0,5.4,.72,.72,1.68,1.12,2.7,1.12s1.98-.4,2.7-1.12l8.35-8.35c1.49-1.49,1.49-3.91,0-5.4l-8.19-8.19c-.72-.72-1.68-1.12-2.7-1.12Zm-.17,21.41c-.28,0-.54-.11-.74-.31-.2-.2-.31-.46-.31-.74s.11-.54,.31-.74l6.92-6.92c.38-.38,.38-1,0-1.39l-6.76-6.76c-.41-.41-.41-1.07,0-1.48,.2-.2,.46-.31,.74-.31s.54,.11,.74,.31l8.19,8.19c.2,.2,.31,.46,.31,.74s-.11,.54-.31,.74l-8.35,8.35c-.2,.2-.46,.31-.74,.31Zm.17-18.57c-.26,0-.51,.1-.69,.29-.38,.38-.38,1,0,1.39l6.76,6.76c.41,.41,.41,1.07,0,1.48l-6.92,6.92c-.19,.19-.29,.43-.29,.69s.1,.51,.29,.69,.43,.29,.69,.29,.51-.1,.69-.29l8.35-8.35c.19-.19,.29-.43,.29-.69s-.1-.51-.29-.69l-8.19-8.19c-.19-.19-.43-.29-.69-.29Z"/></g></g></g></g></svg>