<?xml version="1.0" encoding="UTF-8"?><svg id="Layer_2" xmlns="http://www.w3.org/2000/svg" viewBox="0 0 40 40"><defs><style>.cls-1{fill:#0091ff;}.cls-2{fill:none;}</style></defs><g id="Layer_1-2"><g><rect class="cls-2" width="40" height="40"/><path class="cls-1" d="M35.16,2.2c-10.2,0-20.39,0-30.59,0-1.97,0-3.24,.99-3.71,2.92-.01,.05-.04,.09-.05,.14V29.67c.06,.21,.11,.43,.18,.64,.48,1.47,1.82,2.41,3.44,2.41,4.61,0,9.23,0,13.84,0h.46v2.23h-.38c-2.23,0-4.47,0-6.7,0-.83,0-1.38,.68-1.16,1.43,.14,.46,.54,.79,1.05,.8,.41,.01,.82,0,1.23,0,5.05,0,10.1,0,15.15,0,.16,0,.33,0,.48-.02,.55-.11,.94-.63,.9-1.16-.05-.58-.51-1.04-1.11-1.05-1-.01-2.01,0-3.01,0-1.38,0-2.75,0-4.16,0v-2.23h.42c4.58,0,9.16,0,13.73,0,2.28,0,3.75-1.47,3.75-3.74,0-7.68,0-15.36,0-23.04,0-2.27-1.48-3.74-3.76-3.74Zm1.5,27.19c-.06,.6-.58,1.05-1.18,1.09-.14,0-.27,0-.41,0-10.14,0-20.29,0-30.43,.01-1.02,0-1.71-.55-1.61-1.63,.02-.18,0-.37,0-.6H36.67c0,.39,.03,.76,0,1.12Zm.02-3.41H3.04v-.42c0-6.54,0-13.07,0-19.61,0-1.05,.47-1.52,1.52-1.52,10.21,0,20.42,0,30.62,0,1.02,0,1.5,.48,1.5,1.5,0,6.55,0,13.1,0,19.65v.4ZM19.84,7.31c-4.45,.02-8.03,3.61-8.03,8.06,0,4.44,3.63,8.05,8.05,8.04,4.45,0,8.05-3.65,8.03-8.1-.02-4.42-3.64-8.01-8.06-7.99Zm-2.64,2.89c-.16,1.25-.32,2.52-.49,3.79-.01,.09-.15,.24-.23,.24-.75,.02-1.51,.01-2.26,.01-.14-1.23,1.53-3.45,2.97-4.04Zm-3.06,6.29h2.48c.2,1.35,.39,2.69,.59,4.05-1.62-.87-2.64-2.19-3.08-4.05Zm5.71,4.45c-.66-1.47-.82-2.93-.91-4.44h1.83c-.09,1.51-.26,2.96-.91,4.44Zm-.91-6.73c.08-1.48,.27-2.92,.9-4.27,.65,1.35,.82,2.79,.92,4.27h-1.82Zm6.56,0h-2.43c-.2-1.35-.41-2.69-.61-4.03,1.45,.59,2.99,2.61,3.03,4.03Zm-3.02,6.32c.2-1.35,.39-2.68,.59-4.04h2.48c-.42,1.84-1.45,3.17-3.07,4.04Z"/></g></g></svg>