<svg xmlns="http://www.w3.org/2000/svg" viewBox="0 0 28 28"><defs><style>.cls-1,.cls-3{fill:none;}.cls-2{fill:#0091ff;}.cls-3{stroke:#0091ff;stroke-miterlimit:10;stroke-width:0.27px;}</style></defs><g id="Layer_2" data-name="Layer 2"><g id="Layer_1-2" data-name="Layer 1"><rect class="cls-1" width="28" height="28"/><path class="cls-2" d="M18.43,20a3.63,3.63,0,0,1,.91-.35c.83-.07,1.67,0,2.49-.1a6.16,6.16,0,0,0,5.15-5c0-.18.06-.37.1-.55V12.87a1,1,0,0,1,0-.16A6.21,6.21,0,0,0,21.76,7.3a.26.26,0,0,1-.27-.23,7.7,7.7,0,0,0-1-2.31c-.15-.25-.38-.32-.58-.18s-.22.33-.07.58a7.53,7.53,0,0,1,1,2.49.41.41,0,0,0,.42.37,4,4,0,0,1,.5.06,5.42,5.42,0,0,1,4.38,6.65,5.51,5.51,0,0,1-6.33,4.13v-.43c0-1.07,0-2.13,0-3.2a1.32,1.32,0,0,0-.52-1.08l-.25-.2.15-.12a1.42,1.42,0,0,0,.62-1.26c0-1,0-2,0-3.05a1.28,1.28,0,0,0-.65-1.22,5.36,5.36,0,0,0-1.26-.59,14.63,14.63,0,0,0-7.49-.11,4.37,4.37,0,0,0-1.69.75,1.31,1.31,0,0,0-.56,1.14c0,1,0,1.93,0,2.89a1.57,1.57,0,0,0,.74,1.54s0,0,0,.07a1.51,1.51,0,0,0-.75,1.52c0,1.12,0,2.24,0,3.38-.63,0-1.27,0-1.91,0a4.47,4.47,0,0,1-2.61-.73c-.25-.16-.47-.13-.6.07s-.06.42.19.58a4.89,4.89,0,0,0,2.54.83c1,0,1.92,0,2.88,0a3,3,0,0,1,.91.36s0,.07,0,.11c0,.45,0,.89,0,1.37-.6-.11-.88.14-.76.75H1.52c-.4,0-.58.12-.59.38s.18.39.59.39H8.85c0,.15,0,.26,0,.37a.37.37,0,0,0,.39.39q.76,0,1.53,0a.34.34,0,0,0,.37-.37c0-.51,0-1,0-1.54a.35.35,0,0,0-.36-.38H10.4V20.32l2.06.36V21c0,.93,0,1.85,0,2.77a1.68,1.68,0,0,1-.72,1.68.77.77,0,0,1-.4.16c-2.62,0-5.24,0-7.86,0H3.23v-.24c0-.4-.13-.52-.52-.52s-.89,0-1.33,0-.45.14-.45.46,0,.87,0,1.3a.56.56,0,0,0,.26.54H3c.31-.17.25-.47.26-.77h8.35a.75.75,0,0,0,.59-.25c.25-.27.52-.54.79-.79a.77.77,0,0,0,.27-.65c0-1.22,0-2.43,0-3.64v-.29h1.54V21c0,1.22,0,2.44,0,3.66a.8.8,0,0,0,.28.65c.27.25.53.52.79.79a.71.71,0,0,0,.58.25h8.35c0,.28-.06.61.26.77h2V25.05a.58.58,0,0,0-.54-.26c-.4,0-.8,0-1.2,0s-.56.11-.56.55v.21h-.26c-2.63,0-5.26,0-7.89,0a.7.7,0,0,1-.37-.15,1.7,1.7,0,0,1-.74-1.7c.07-.92,0-1.85,0-2.77v-.26l2.07-.36v1.17h-.37a.36.36,0,0,0-.38.39c0,.51,0,1,0,1.51a.35.35,0,0,0,.36.39c.52,0,1,0,1.55,0a.36.36,0,0,0,.38-.37c0-.12,0-.24,0-.39H26.5a.64.64,0,0,0,.58-.23v-.31a.67.67,0,0,0-.58-.23H19.19c-.12-.7-.12-.7-.8-.79V20.11A.13.13,0,0,1,18.43,20Zm-16,6.29H1.71v-.74h.73Zm23.12-.72h.74v.73h-.74ZM9.2,9a4,4,0,0,1,1.52-.64A14.24,14.24,0,0,1,15.23,8,9.37,9.37,0,0,1,18,8.53,3.81,3.81,0,0,1,18.8,9c.34.24.35.48,0,.69a5.32,5.32,0,0,1-1.31.59,12.75,12.75,0,0,1-3.76.43,11.16,11.16,0,0,1-3.66-.58,3.49,3.49,0,0,1-.86-.44C8.86,9.42,8.87,9.21,9.2,9ZM10.37,23H9.64v-.72h.73Zm8,0h-.74v-.71h.74Zm-1.05-3.44a13.33,13.33,0,0,1-5.07.28,21.76,21.76,0,0,1-2.21-.47,2.53,2.53,0,0,1-.51-.22.89.89,0,0,1-.6-1c0-.64,0-1.28,0-1.93l1,.42c.29.11.52,0,.59-.21s-.05-.39-.33-.52a6.53,6.53,0,0,1-1-.5c-.35-.22-.35-.45,0-.7a4.94,4.94,0,0,1,.55-.32.46.46,0,0,1,.26,0,13.58,13.58,0,0,0,3.91.55c.29,0,.47-.15.47-.39s-.16-.37-.47-.38a12,12,0,0,1-3.48-.46,7.59,7.59,0,0,1-1.2-.54.57.57,0,0,1-.29-.56c0-.71,0-1.43,0-2.17a10.87,10.87,0,0,0,5,1,10.89,10.89,0,0,0,5.07-1v1.31c0,.28,0,.55,0,.82a.66.66,0,0,1-.37.67A5.14,5.14,0,0,1,17,13.9c-.35.07-.71.1-1,.19a.48.48,0,0,0-.31.28.5.5,0,0,0,.12.38.48.48,0,0,0,.36.07c.63-.12,1.26-.25,1.89-.4.3-.07,1,.29,1.07.6a.47.47,0,0,1-.19.37A6.34,6.34,0,0,1,17.7,16a12.61,12.61,0,0,1-4.36.48c-.41,0-.82-.06-1.23-.09a.39.39,0,0,0-.46.33.38.38,0,0,0,.38.42,14.08,14.08,0,0,0,6.25-.53,7.13,7.13,0,0,0,.77-.33c0,.08,0,.15,0,.22,0,.63,0,1.26,0,1.89a.63.63,0,0,1-.37.67A7.59,7.59,0,0,1,17.33,19.56ZM1.85,17.43a.36.36,0,0,0,.53.15.39.39,0,0,0,.1-.56.57.57,0,0,0-.08-.13,4.38,4.38,0,0,1,3.1-6.73c.35-.05.43-.17.44-.53a13,13,0,0,1,.15-1.88A7.51,7.51,0,0,1,17.47,2.83a13.07,13.07,0,0,1,1.3,1,.4.4,0,0,0,.54,0,.36.36,0,0,0,.1-.46.65.65,0,0,0-.17-.2,7.94,7.94,0,0,0-3.52-2c-.51-.14-1-.22-1.56-.32H12.83c-.19,0-.38.07-.58.09a8.34,8.34,0,0,0-7,7.38c0,.35,0,.7-.07,1.06L5,9.45a5.14,5.14,0,0,0-3.88,6.49A7.77,7.77,0,0,0,1.85,17.43ZM12,12.27a.38.38,0,0,0-.39.39.38.38,0,0,0,.76,0A.39.39,0,0,0,12,12.27Zm0,5.77a.38.38,0,0,0-.41.33.38.38,0,1,0,.76.07A.38.38,0,0,0,12.06,18Zm3.88,0a.37.37,0,0,0-.36.38.38.38,0,0,0,.37.38.4.4,0,0,0,.39-.39A.39.39,0,0,0,15.94,18Zm0-5a.38.38,0,0,0,.41-.37.4.4,0,0,0-.39-.39.38.38,0,0,0-.37.37A.37.37,0,0,0,15.93,13ZM14,12.39a.37.37,0,0,0-.39.37.36.36,0,0,0,.35.39.38.38,0,0,0,0-.76Zm0,5.76a.38.38,0,0,0-.38.36.38.38,0,0,0,.75,0A.39.39,0,0,0,14,18.15Z"/><path class="cls-3" d="M18.43,20a3.63,3.63,0,0,1,.91-.35c.83-.07,1.67,0,2.49-.1a6.16,6.16,0,0,0,5.15-5c0-.18.06-.37.1-.55V12.87a1,1,0,0,1,0-.16A6.21,6.21,0,0,0,21.76,7.3a.26.26,0,0,1-.27-.23,7.7,7.7,0,0,0-1-2.31c-.15-.25-.38-.32-.58-.18s-.22.33-.07.58a7.53,7.53,0,0,1,1,2.49.41.41,0,0,0,.42.37,4,4,0,0,1,.5.06,5.42,5.42,0,0,1,4.38,6.65,5.51,5.51,0,0,1-6.33,4.13v-.43c0-1.07,0-2.13,0-3.2a1.32,1.32,0,0,0-.52-1.08l-.25-.2.15-.12a1.42,1.42,0,0,0,.62-1.26c0-1,0-2,0-3.05a1.28,1.28,0,0,0-.65-1.22,5.36,5.36,0,0,0-1.26-.59,14.63,14.63,0,0,0-7.49-.11,4.37,4.37,0,0,0-1.69.75,1.31,1.31,0,0,0-.56,1.14c0,1,0,1.93,0,2.89a1.57,1.57,0,0,0,.74,1.54s0,0,0,.07a1.51,1.51,0,0,0-.75,1.52c0,1.12,0,2.24,0,3.38-.63,0-1.27,0-1.91,0a4.47,4.47,0,0,1-2.61-.73c-.25-.16-.47-.13-.6.07s-.06.42.19.58a4.89,4.89,0,0,0,2.54.83c1,0,1.92,0,2.88,0a3,3,0,0,1,.91.36s0,.07,0,.11c0,.45,0,.89,0,1.37-.6-.11-.88.14-.76.75H1.52c-.4,0-.58.12-.59.38s.18.39.59.39H8.85c0,.15,0,.26,0,.37a.37.37,0,0,0,.39.39q.76,0,1.53,0a.34.34,0,0,0,.37-.37c0-.51,0-1,0-1.54a.35.35,0,0,0-.36-.38H10.4V20.32l2.06.36V21c0,.93,0,1.85,0,2.77a1.68,1.68,0,0,1-.72,1.68.77.77,0,0,1-.4.16c-2.62,0-5.24,0-7.86,0H3.23v-.24c0-.4-.13-.52-.52-.52s-.89,0-1.33,0-.45.14-.45.46,0,.87,0,1.3a.56.56,0,0,0,.26.54H3c.31-.17.25-.47.26-.77h8.35a.75.75,0,0,0,.59-.25c.25-.27.52-.54.79-.79a.77.77,0,0,0,.27-.65c0-1.22,0-2.43,0-3.64v-.29h1.54V21c0,1.22,0,2.44,0,3.66a.8.8,0,0,0,.28.65c.27.25.53.52.79.79a.71.71,0,0,0,.58.25h8.35c0,.28-.06.61.26.77h2V25.05a.58.58,0,0,0-.54-.26c-.4,0-.8,0-1.2,0s-.56.11-.56.55v.21h-.26c-2.63,0-5.26,0-7.89,0a.7.7,0,0,1-.37-.15,1.7,1.7,0,0,1-.74-1.7c.07-.92,0-1.85,0-2.77v-.26l2.07-.36v1.17h-.37a.36.36,0,0,0-.38.39c0,.51,0,1,0,1.51a.35.35,0,0,0,.36.39c.52,0,1,0,1.55,0a.36.36,0,0,0,.38-.37c0-.12,0-.24,0-.39H26.5a.64.64,0,0,0,.58-.23v-.31a.67.67,0,0,0-.58-.23H19.19c-.12-.7-.12-.7-.8-.79V20.11A.13.13,0,0,1,18.43,20Zm-16,6.29H1.71v-.74h.73Zm23.12-.72h.74v.73h-.74ZM9.2,9a4,4,0,0,1,1.52-.64A14.24,14.24,0,0,1,15.23,8,9.37,9.37,0,0,1,18,8.53,3.81,3.81,0,0,1,18.8,9c.34.24.35.48,0,.69a5.32,5.32,0,0,1-1.31.59,12.75,12.75,0,0,1-3.76.43,11.16,11.16,0,0,1-3.66-.58,3.49,3.49,0,0,1-.86-.44C8.86,9.42,8.87,9.21,9.2,9ZM10.37,23H9.64v-.72h.73Zm8,0h-.74v-.71h.74Zm-1.05-3.44a13.33,13.33,0,0,1-5.07.28,21.76,21.76,0,0,1-2.21-.47,2.53,2.53,0,0,1-.51-.22.89.89,0,0,1-.6-1c0-.64,0-1.28,0-1.93l1,.42c.29.11.52,0,.59-.21s-.05-.39-.33-.52a6.53,6.53,0,0,1-1-.5c-.35-.22-.35-.45,0-.7a4.94,4.94,0,0,1,.55-.32.46.46,0,0,1,.26,0,13.58,13.58,0,0,0,3.91.55c.29,0,.47-.15.47-.39s-.16-.37-.47-.38a12,12,0,0,1-3.48-.46,7.59,7.59,0,0,1-1.2-.54.57.57,0,0,1-.29-.56c0-.71,0-1.43,0-2.17a10.87,10.87,0,0,0,5,1,10.89,10.89,0,0,0,5.07-1v1.31c0,.28,0,.55,0,.82a.66.66,0,0,1-.37.67A5.14,5.14,0,0,1,17,13.9c-.35.07-.71.1-1,.19a.48.48,0,0,0-.31.28.5.5,0,0,0,.12.38.48.48,0,0,0,.36.07c.63-.12,1.26-.25,1.89-.4.3-.07,1,.29,1.07.6a.47.47,0,0,1-.19.37A6.34,6.34,0,0,1,17.7,16a12.61,12.61,0,0,1-4.36.48c-.41,0-.82-.06-1.23-.09a.39.39,0,0,0-.46.33.38.38,0,0,0,.38.42,14.08,14.08,0,0,0,6.25-.53,7.13,7.13,0,0,0,.77-.33c0,.08,0,.15,0,.22,0,.63,0,1.26,0,1.89a.63.63,0,0,1-.37.67A7.59,7.59,0,0,1,17.33,19.56ZM1.85,17.43a.36.36,0,0,0,.53.15.39.39,0,0,0,.1-.56.57.57,0,0,0-.08-.13,4.38,4.38,0,0,1,3.1-6.73c.35-.05.43-.17.44-.53a13,13,0,0,1,.15-1.88A7.51,7.51,0,0,1,17.47,2.83a13.07,13.07,0,0,1,1.3,1,.4.4,0,0,0,.54,0,.36.36,0,0,0,.1-.46.65.65,0,0,0-.17-.2,7.94,7.94,0,0,0-3.52-2c-.51-.14-1-.22-1.56-.32H12.83c-.19,0-.38.07-.58.09a8.34,8.34,0,0,0-7,7.38c0,.35,0,.7-.07,1.06L5,9.45a5.14,5.14,0,0,0-3.88,6.49A7.77,7.77,0,0,0,1.85,17.43ZM12,12.27a.38.38,0,0,0-.39.39.38.38,0,0,0,.76,0A.39.39,0,0,0,12,12.27Zm0,5.77a.38.38,0,0,0-.41.33.38.38,0,1,0,.76.07A.38.38,0,0,0,12.06,18Zm3.88,0a.37.37,0,0,0-.36.38.38.38,0,0,0,.37.38.4.4,0,0,0,.39-.39A.39.39,0,0,0,15.94,18Zm0-5a.38.38,0,0,0,.41-.37.4.4,0,0,0-.39-.39.38.38,0,0,0-.37.37A.37.37,0,0,0,15.93,13ZM14,12.39a.37.37,0,0,0-.39.37.36.36,0,0,0,.35.39.38.38,0,0,0,0-.76Zm0,5.76a.38.38,0,0,0-.38.36.38.38,0,0,0,.75,0A.39.39,0,0,0,14,18.15Z"/></g></g></svg>