<svg xmlns="http://www.w3.org/2000/svg" viewBox="0 0 28 28"><defs><style>.cls-1,.cls-3{fill:none;}.cls-2{fill:#0091ff;}.cls-3{stroke:#0091ff;stroke-miterlimit:10;stroke-width:0.39px;}</style></defs><g id="Layer_2" data-name="Layer 2"><g id="Layer_1-2" data-name="Layer 1"><rect class="cls-1" width="28" height="28"/><path class="cls-2" d="M24.1,7.9a3.69,3.69,0,0,0-1.78-.43H21A7,7,0,0,0,14.39,1,6.82,6.82,0,0,0,9.77,2.37,7,7,0,0,0,7,7.47H5.54a3.74,3.74,0,0,0-3.49,4.76A3.8,3.8,0,0,0,5.63,15v8.67c0,.51.12.64.63.64h5.23c-.14.42-.26.81-.39,1.19-.06.21-.07.48-.21.59s-.42.07-.63.09a.46.46,0,0,0-.43.59c.08.29.31.34.57.34h7.36a.47.47,0,0,0,0-.93c-.15,0-.31,0-.46,0a.26.26,0,0,1-.19-.12c-.19-.57-.37-1.14-.57-1.74H21.7c.57,0,.68-.11.68-.68V15l.59-.07a3.72,3.72,0,0,0,1.13-7ZM11.87,26.11c.19-.59.37-1.15.56-1.71a.28.28,0,0,1,.21-.13h2.73a.3.3,0,0,1,.21.13c.19.56.37,1.12.56,1.71Zm9.57-2.81H6.58V12.15H21.44Zm1.47-9.36-.53.07v-2.2c0-.47-.13-.61-.6-.61H6.22c-.46,0-.59.14-.59.62V14a2.77,2.77,0,0,1-2.22-1.11A2.64,2.64,0,0,1,3.12,10a2.66,2.66,0,0,1,2.44-1.6c.6,0,1.21,0,1.81,0,.43,0,.57-.14.59-.56a6,6,0,0,1,12.09-.09c0,.54.13.65.66.65.72,0,1.46,0,2.17.07a2.73,2.73,0,0,1,2.29,2.72A2.8,2.8,0,0,1,22.91,13.94ZM8,18.2a.93.93,0,0,1,.88,1c0,.32,0,.64,0,1a1.37,1.37,0,0,0,1.26,1.33c.35,0,.56-.12.59-.41s-.13-.47-.48-.52A.44.44,0,0,1,9.82,20c0-.24,0-.48,0-.73a1.88,1.88,0,0,0-.65-1.56,2.26,2.26,0,0,0,.65-2.05,1.33,1.33,0,0,1,0-.2c0-.37.11-.5.49-.55a.47.47,0,0,0-.06-.93,1.37,1.37,0,0,0-1.36,1.32c0,.33,0,.66,0,1a.93.93,0,0,1-.87,1c-.36,0-.52.18-.52.46S7.65,18.16,8,18.2Zm9.72,2.33c-.32,0-.49.23-.45.52a.45.45,0,0,0,.53.41,1.37,1.37,0,0,0,1.32-1.33c0-.33,0-.67,0-1A.93.93,0,0,1,20,18.2c.37,0,.53-.18.53-.48s-.16-.42-.52-.46a.93.93,0,0,1-.87-1c0-.33,0-.66,0-1A1.36,1.36,0,0,0,17.88,14c-.36,0-.57.1-.61.38s.12.49.49.54a.45.45,0,0,1,.43.49c0,.24,0,.47,0,.7a1.89,1.89,0,0,0,.65,1.61,2,2,0,0,0-.65,1.68,5.61,5.61,0,0,1,0,.58C18.19,20.35,18.07,20.48,17.72,20.53Zm-5.95-.47h4.47c.37,0,.56-.17.56-.48s-.2-.45-.56-.45H11.77c-.37,0-.56.17-.56.48S11.41,20.06,11.77,20.06Zm-.06-3.73c.37,0,.73,0,1.1,0s.78,0,1.16,0a.45.45,0,0,0,.5-.48.45.45,0,0,0-.5-.45H11.71a.45.45,0,0,0-.5.45A.46.46,0,0,0,11.71,16.33Zm4.59.94H14a.45.45,0,0,0-.5.45c0,.29.17.47.5.47H16.3a.46.46,0,1,0,0-.92Zm-.38-.94c.14,0,.29,0,.43,0a.45.45,0,0,0,.45-.47.45.45,0,0,0-.46-.46H15.9a.45.45,0,0,0-.5.47C15.41,16.16,15.59,16.32,15.92,16.33Zm-4,1.87c.5,0,.7-.14.7-.48s-.21-.46-.7-.46-.7.14-.7.48S11.41,18.2,11.91,18.2Z"/><path class="cls-3" d="M24.1,7.9a3.69,3.69,0,0,0-1.78-.43H21A7,7,0,0,0,14.39,1,6.82,6.82,0,0,0,9.77,2.37,7,7,0,0,0,7,7.47H5.54a3.74,3.74,0,0,0-3.49,4.76A3.8,3.8,0,0,0,5.63,15v8.67c0,.51.12.64.63.64h5.23c-.14.42-.26.81-.39,1.19-.06.21-.07.48-.21.59s-.42.07-.63.09a.46.46,0,0,0-.43.59c.08.29.31.34.57.34h7.36a.47.47,0,0,0,0-.93c-.15,0-.31,0-.46,0a.26.26,0,0,1-.19-.12c-.19-.57-.37-1.14-.57-1.74H21.7c.57,0,.68-.11.68-.68V15l.59-.07a3.72,3.72,0,0,0,1.13-7ZM11.87,26.11c.19-.59.37-1.15.56-1.71a.28.28,0,0,1,.21-.13h2.73a.3.3,0,0,1,.21.13c.19.56.37,1.12.56,1.71Zm9.57-2.81H6.58V12.15H21.44Zm1.47-9.36-.53.07v-2.2c0-.47-.13-.61-.6-.61H6.22c-.46,0-.59.14-.59.62V14a2.77,2.77,0,0,1-2.22-1.11A2.64,2.64,0,0,1,3.12,10a2.66,2.66,0,0,1,2.44-1.6c.6,0,1.21,0,1.81,0,.43,0,.57-.14.59-.56a6,6,0,0,1,12.09-.09c0,.54.13.65.66.65.72,0,1.46,0,2.17.07a2.73,2.73,0,0,1,2.29,2.72A2.8,2.8,0,0,1,22.91,13.94ZM8,18.2a.93.93,0,0,1,.88,1c0,.32,0,.64,0,1a1.37,1.37,0,0,0,1.26,1.33c.35,0,.56-.12.59-.41s-.13-.47-.48-.52A.44.44,0,0,1,9.82,20c0-.24,0-.48,0-.73a1.88,1.88,0,0,0-.65-1.56,2.26,2.26,0,0,0,.65-2.05,1.33,1.33,0,0,1,0-.2c0-.37.11-.5.49-.55a.47.47,0,0,0-.06-.93,1.37,1.37,0,0,0-1.36,1.32c0,.33,0,.66,0,1a.93.93,0,0,1-.87,1c-.36,0-.52.18-.52.46S7.65,18.16,8,18.2Zm9.72,2.33c-.32,0-.49.23-.45.52a.45.45,0,0,0,.53.41,1.37,1.37,0,0,0,1.32-1.33c0-.33,0-.67,0-1A.93.93,0,0,1,20,18.2c.37,0,.53-.18.53-.48s-.16-.42-.52-.46a.93.93,0,0,1-.87-1c0-.33,0-.66,0-1A1.36,1.36,0,0,0,17.88,14c-.36,0-.57.1-.61.38s.12.49.49.54a.45.45,0,0,1,.43.49c0,.24,0,.47,0,.7a1.89,1.89,0,0,0,.65,1.61,2,2,0,0,0-.65,1.68,5.61,5.61,0,0,1,0,.58C18.19,20.35,18.07,20.48,17.72,20.53Zm-5.95-.47h4.47c.37,0,.56-.17.56-.48s-.2-.45-.56-.45H11.77c-.37,0-.56.17-.56.48S11.41,20.06,11.77,20.06Zm-.06-3.73c.37,0,.73,0,1.1,0s.78,0,1.16,0a.45.45,0,0,0,.5-.48.45.45,0,0,0-.5-.45H11.71a.45.45,0,0,0-.5.45A.46.46,0,0,0,11.71,16.33Zm4.59.94H14a.45.45,0,0,0-.5.45c0,.29.17.47.5.47H16.3a.46.46,0,1,0,0-.92Zm-.38-.94c.14,0,.29,0,.43,0a.45.45,0,0,0,.45-.47.45.45,0,0,0-.46-.46H15.9a.45.45,0,0,0-.5.47C15.41,16.16,15.59,16.32,15.92,16.33Zm-4,1.87c.5,0,.7-.14.7-.48s-.21-.46-.7-.46-.7.14-.7.48S11.41,18.2,11.91,18.2Z"/></g></g></svg>