<svg xmlns="http://www.w3.org/2000/svg" viewBox="0 0 28 28"><defs><style>.cls-1{fill:none;}.cls-2{fill:#0091ff;}</style></defs><g id="Layer_2" data-name="Layer 2"><g id="Layer_1-2" data-name="Layer 1"><rect class="cls-1" width="28" height="28"/><path class="cls-2" d="M26,5.82c0-.74-.33-1.05-1.08-1.09s-1.49-.06-2.23-.16a11.68,11.68,0,0,1-6.55-3c-.22-.2-.47-.35-.71-.53H15a7.74,7.74,0,0,0-.73.55A11.85,11.85,0,0,1,7.32,4.63c-.64.06-1.29.07-1.94.11a.91.91,0,0,0-1,.93c0,2.13,0,4.26,0,6.39a19.77,19.77,0,0,0,.8,5.18,13.16,13.16,0,0,0,4.37,6.64,17.21,17.21,0,0,0,5.29,2.83,1.06,1.06,0,0,0,.68,0c.85-.33,1.7-.66,2.52-1.07a13.29,13.29,0,0,0,7.18-8.76,24.21,24.21,0,0,0,.74-6C26,9.18,26,7.5,26,5.82ZM24.12,12.5a15.27,15.27,0,0,1-1.48,6.29,11.08,11.08,0,0,1-4.5,4.72c-.89.52-1.87.9-2.8,1.34a.33.33,0,0,1-.24,0,14.08,14.08,0,0,1-5.34-3.26,11.6,11.6,0,0,1-3.08-5.88,25.51,25.51,0,0,1-.51-5.65c0-1.09,0-2.18,0-3.27a1.93,1.93,0,0,1,0-.24c.84-.11,1.66-.18,2.47-.33a12.9,12.9,0,0,0,6.25-2.92c.19-.16.3-.15.49,0a13.16,13.16,0,0,0,6.8,3c.63.09,1.27.15,1.92.22,0,.08,0,.16,0,.24C24.16,8.7,24.21,10.6,24.12,12.5Zm-5.25-2a1,1,0,0,0-.68.35L13.94,15.1l-.19-.18L12.13,13.3a.89.89,0,0,0-.87-.29.85.85,0,0,0-.68.63.89.89,0,0,0,.26.92l2.31,2.31a.94.94,0,0,0,1.57,0l4.7-4.69a2.4,2.4,0,0,0,.22-.24.88.88,0,0,0,.08-1A.84.84,0,0,0,18.87,10.5Z"/></g></g></svg>