<?xml version="1.0" encoding="UTF-8"?><svg id="Layer_2" xmlns="http://www.w3.org/2000/svg" viewBox="0 0 40 40"><defs><style>.cls-1{fill:#0091ff;}.cls-2{fill:none;}</style></defs><g id="Layer_1-2"><g><rect class="cls-2" width="40" height="40"/><path class="cls-1" d="M.36,11.78c.17-.5,.54-.76,1.03-.93,5.89-2.12,11.78-4.26,17.67-6.4,.43-.16,.83-.15,1.26,0,5.9,2.14,11.8,4.28,17.7,6.41,.78,.28,1.11,.82,.92,1.48-.11,.4-.39,.65-.77,.79-.55,.2-1.1,.41-1.66,.59-.2,.07-.27,.16-.27,.38,0,3.3,0,6.59,.01,9.89,0,.15,.09,.34,.2,.46,.89,.91,1.8,1.81,2.7,2.72,.62,.62,.62,1.25,.01,1.87-.89,.9-1.78,1.8-2.69,2.68-.18,.18-.25,.36-.24,.6,.01,.7,0,1.41,0,2.11,0,.71-.49,1.23-1.14,1.23-.66,0-1.15-.51-1.15-1.22,0-.73,.01-1.46-.01-2.19,0-.17-.09-.37-.2-.49-.88-.91-1.78-1.8-2.68-2.69-.66-.66-.66-1.27,0-1.93,.89-.9,1.79-1.79,2.68-2.69,.11-.11,.21-.3,.21-.45,.01-3.03,0-6.06,0-9.09,0-.07-.01-.14-.02-.26-.89,.32-1.76,.62-2.61,.95-.1,.04-.17,.26-.17,.4-.01,2.25-.03,4.5,0,6.75,0,.66-.21,1.15-.69,1.58-1.26,1.14-2.76,1.83-4.37,2.31-2.78,.83-5.63,.96-8.5,.8-2.04-.11-4.03-.44-5.94-1.19-1.19-.46-2.28-1.08-3.22-1.96-.45-.42-.65-.9-.64-1.53,.03-2.27,0-4.55,.02-6.82,0-.29-.09-.42-.37-.51-2-.73-3.99-1.48-6-2.21-.5-.18-.89-.43-1.09-.93v-.54Zm34.07,.26c-.16-.07-.25-.12-.34-.15-4.7-1.7-9.4-3.41-14.11-5.1-.18-.07-.43-.06-.62,.01-3.99,1.43-7.97,2.87-11.95,4.31-.82,.3-1.65,.6-2.52,.92,.13,.06,.2,.09,.27,.12,4.69,1.74,9.38,3.48,14.07,5.2,.15,.05,.35,.03,.51-.02,1.89-.67,3.77-1.35,5.66-2.03,2.99-1.08,5.98-2.16,9.04-3.26Zm-24.3,4.41c0,.1-.02,.15-.02,.2,0,1.94,0,3.88,0,5.83,0,.16,.12,.36,.25,.47,.7,.6,1.52,.99,2.38,1.27,3.98,1.26,8.01,1.32,12.06,.4,1.35-.31,2.63-.81,3.75-1.66,.2-.15,.28-.32,.28-.58-.01-1.81,0-3.63,0-5.44v-.42c-.19,.07-.32,.11-.45,.16-2.76,.99-5.52,1.99-8.28,2.99-.42,.15-.82,.2-1.26,.04-2.09-.79-4.18-1.56-6.28-2.33-.81-.3-1.62-.6-2.45-.9Zm23.35,11.63c.55,.55,1.12,1.12,1.63,1.64,.53-.53,1.09-1.09,1.61-1.61-.53-.53-1.1-1.1-1.63-1.63-.54,.53-1.11,1.1-1.62,1.6Z"/></g></g></svg>