<?xml version="1.0" encoding="UTF-8"?><svg id="Layer_2" xmlns="http://www.w3.org/2000/svg" viewBox="0 0 32 32"><defs><style>.cls-1{fill:#0091ff;stroke:#0091ff;stroke-miterlimit:10;stroke-width:.52px;}.cls-2{fill:none;}</style></defs><g id="Layer_1-2"><g><rect class="cls-2" width="32" height="32"/><g><path class="cls-1" d="M30.6,6.57c0-.25,0-.46,0-.68,0-.98,0-1.96,0-2.95,0-.96-.62-1.57-1.58-1.57-8.68,0-17.36,0-26.03,0-.96,0-1.58,.61-1.58,1.58,0,8.7,0,17.39,0,26.09,0,.98,.61,1.59,1.6,1.59,8.67,0,17.33,0,26,0,.98,0,1.59-.61,1.59-1.6,0-6.31,0-12.62,0-18.93,0-.11,0-.22,0-.32,.02-.3,.21-.5,.48-.5,.27,0,.46,.2,.49,.5,0,.1,0,.19,0,.29,0,6.28,0,12.56,0,18.84,0,1.7-.99,2.7-2.68,2.7-8.59,0-17.18,0-25.78,0-1.68,0-2.68-1-2.68-2.67,0-8.62,0-17.24,0-25.86,0-1.66,1.01-2.67,2.65-2.67,8.61,0,17.23,0,25.84,0,1.63,0,2.65,1.01,2.65,2.64,0,1.28,0,2.57,0,3.85,0,.5-.16,.66-.66,.66-9.39,0-18.78,0-28.17,0-.08,0-.15,0-.23-.01-.26-.04-.41-.19-.42-.45-.01-.28,.14-.45,.41-.5,.14-.02,.28-.02,.42-.02,9.07,0,18.13,0,27.2,0h.48Z"/><path class="cls-1" d="M16.51,16.66v1.63h.37c2.15,0,4.31,0,6.46,0,.63,0,.75,.12,.75,.76,0,.81,0,1.61,0,2.46,.6,0,1.17,0,1.73,0,.52,0,.67,.15,.67,.67,0,1.22,0,2.44,0,3.66,0,.5-.15,.65-.66,.65-1.49,0-2.97,0-4.46,0-.5,0-.66-.16-.66-.65,0-1.23,0-2.46,0-3.69,0-.48,.17-.64,.64-.64,.57,0,1.14,0,1.73,0v-2.22h-6.59v2.22c.57,0,1.12,0,1.68,0,.56,0,.71,.15,.71,.71,0,1.19,0,2.37,0,3.56,0,.57-.14,.72-.7,.72-1.48,0-2.95,0-4.43,0-.5,0-.66-.15-.66-.65,0-1.23,0-2.46,0-3.69,0-.48,.17-.64,.64-.64,.57,0,1.14,0,1.73,0v-2.22h-6.58v2.22c.56,0,1.11,0,1.67,0,.56,0,.7,.15,.7,.71,0,1.2,0,2.39,0,3.59,0,.53-.15,.68-.66,.68-1.49,0-2.97,0-4.46,0-.5,0-.65-.15-.66-.65,0-1.23,0-2.46,0-3.69,0-.48,.16-.64,.64-.64,.57,0,1.14,0,1.76,0,0-.13,0-.24,0-.36,0-.71,0-1.42,0-2.14,0-.6,.12-.73,.72-.73,2.15,0,4.31,0,6.46,0,.13,0,.25,0,.4,0v-1.63c-.66,0-1.3,0-1.95,0-.59,0-.71-.13-.71-.73,0-1.21,0-2.42,0-3.62,0-.46,.16-.63,.62-.63,1.7,0,3.4,0,5.1,0,.45,0,.62,.17,.62,.63,0,1.24,0,2.48,0,3.72,0,.48-.16,.63-.65,.63-.66,0-1.33,0-2.01,0Zm-2.7-1h4.36v-2.99h-4.36v2.99Zm4.08,9.84v-3h-3.79v3h3.79Zm-11.4,0h3.79v-2.99h-3.79v2.99Zm15.22-3v3h3.79v-3h-3.79Z"/><path class="cls-1" d="M21.57,3.5c2.27,0,4.54,0,6.81,0,.11,0,.22,0,.32,0,.24,.03,.39,.17,.42,.42,.03,.24-.08,.43-.31,.5-.13,.04-.27,.04-.41,.04-4.54,0-9.08,0-13.63,0-.04,0-.09,0-.13,0-.39,0-.63-.2-.62-.5,0-.3,.22-.47,.61-.47,2.31,0,4.63,0,6.94,0Z"/><path class="cls-1" d="M6.69,3.5c.18,0,.37,0,.55,0,.28,.01,.49,.2,.49,.46,0,.28-.15,.47-.41,.49-.42,.03-.84,.03-1.26,0-.26-.02-.42-.22-.4-.5,.02-.28,.18-.43,.45-.45,.19-.01,.39,0,.58,0,0,0,0,0,0,0Z"/><path class="cls-1" d="M9.57,3.5c.18,0,.37,0,.55,0,.27,.01,.44,.16,.47,.44,.02,.28-.12,.49-.39,.51-.43,.04-.86,.04-1.29,0-.26-.02-.42-.23-.39-.51,.03-.27,.19-.43,.47-.44,.19,0,.39,0,.58,0Z"/><path class="cls-1" d="M3.81,3.5c.19,0,.39,0,.58,0,.28,.01,.44,.17,.46,.45,.02,.28-.13,.48-.4,.5-.42,.03-.84,.03-1.26,0-.27-.02-.42-.22-.42-.49,0-.26,.2-.45,.48-.46,.18,0,.37,0,.55,0,0,0,0,0,0,0Z"/></g></g></g></svg>