<?xml version="1.0" encoding="UTF-8"?><svg id="Layer_2" xmlns="http://www.w3.org/2000/svg" viewBox="0 0 40 40"><defs><style>.cls-1{fill:#0091ff;}.cls-2{fill:none;}</style></defs><g id="Layer_1-2"><g><rect class="cls-2" width="40" height="40"/><g><path class="cls-1" d="M21.22,12.69c0-.67-.55-1.22-1.22-1.22s-1.22,.55-1.22,1.22v7.31h-4.88c-.67,0-1.22,.55-1.22,1.22s.55,1.22,1.22,1.22h6.09c.67,0,1.22-.55,1.22-1.22V12.69Z"/><path class="cls-1" d="M9.03,4.56v.93c-2.84,.58-4.88,3.08-4.88,5.97V28.53c0,2.9,2.04,5.39,4.88,5.97v.93c0,2.24,1.82,4.06,4.06,4.06h11.37c2.24,0,4.06-1.82,4.06-4.06v-.93c2.84-.58,4.88-3.08,4.88-5.97v-8.53h1.22c.67,0,1.22-.55,1.22-1.22v-4.88c0-.67-.55-1.22-1.22-1.22h-1.22v-1.22c0-2.9-2.04-5.39-4.88-5.97v-.93c0-2.24-1.82-4.06-4.06-4.06H13.09c-2.24,0-4.06,1.82-4.06,4.06Zm1.22,3.25H27.31c2.02,0,3.66,1.64,3.66,3.66V28.53c0,2.02-1.64,3.66-3.66,3.66H10.25c-2.02,0-3.66-1.64-3.66-3.66V11.47c0-2.02,1.64-3.66,3.66-3.66Z"/></g></g></g></svg>