<svg xmlns="http://www.w3.org/2000/svg" viewBox="0 0 802.16 118.99"><defs><style>.cls-1{fill:none;}.cls-2{fill:#0091ff;}.cls-3{fill:#04142E;}</style></defs><g id="Layer_2" data-name="Layer 2"><g id="Layer_1-2" data-name="Layer 1"><rect class="cls-1" x="433.99" width="80" height="80"/><path class="cls-2" d="M473.18,3c-14,0-16.89,7.23-16.89,11.41V22.3h16.09v1.61h-24C443.09,23.91,437,28.1,437,40s6.1,16.09,11.41,16.09h9.5V46.43A6.46,6.46,0,0,1,464.34,40h19.3a4.75,4.75,0,0,0,4.83-4.83V14.41C488.47,8.78,483.16,3,473.18,3Zm-7.24,8a3.22,3.22,0,1,1-3.21,3.22A3.22,3.22,0,0,1,465.94,11Zm24.14,12.87V35.17a6.46,6.46,0,0,1-6.44,6.44h-19.3a4.74,4.74,0,0,0-4.83,4.82V65.59c0,5.63,5.31,11.41,15.28,11.41,14,0,16.89-7.23,16.89-11.41V57.7H475.6V56.09h24C504.89,56.09,511,51.9,511,40s-6.1-16.09-11.41-16.09ZM482,62.52a3.22,3.22,0,1,1-3.22,3.22A3.23,3.23,0,0,1,482,62.52Z"/><rect class="cls-1" x="10.09" width="80" height="80"/><path class="cls-2" d="M17.79,3a4.73,4.73,0,0,0-4.7,4.7V72.3a4.73,4.73,0,0,0,4.7,4.7h64.6a4.73,4.73,0,0,0,4.7-4.7V7.7A4.73,4.73,0,0,0,82.39,3Zm0,3.52h64.6A1.18,1.18,0,0,1,83.57,7.7V72.3a1.18,1.18,0,0,1-1.18,1.18H17.79a1.18,1.18,0,0,1-1.18-1.18V7.7A1.18,1.18,0,0,1,17.79,6.52Zm28.78,30V58.63c0,3.4-1.29,4.27-3.53,4.27s-4-1.45-5-3.35L32.47,62.9a12.35,12.35,0,0,0,11,7.05c6,0,10.16-3.2,10.16-10.25V36.48Zm21.94,0c-6,0-9.85,3.84-9.85,8.88,0,5.47,3.23,8.06,8.08,10.13l1.68.72C71.48,57.55,73,58.37,73,60.67,73,62.6,71.54,64,68.75,64c-3.32,0-4.89-2.26-6.33-4.61L57.14,62.9c2,3.91,5.52,7.05,11.76,7.05S80,66.64,80,60.59C80,55,76.82,52.47,71.1,50l-1.68-.71c-2.88-1.26-4.13-2.07-4.13-4.09a2.93,2.93,0,0,1,3.22-2.88c1.93,0,3.17.82,4.32,2.88l5.24-3.35C75.86,38,72.78,36.48,68.51,36.48Z"/><rect class="cls-1" x="578.54" width="80" height="80"/><path class="cls-2" d="M618.2,59.21A62.33,62.33,0,0,1,598,55.9a35.53,35.53,0,0,1-10.66-5.67A17.16,17.16,0,0,1,582,43.57a12,12,0,0,1,1.47-12.21,23.23,23.23,0,0,1,7.78-6.7,46.93,46.93,0,0,1,13.75-5,67.9,67.9,0,0,1,18.38-1.23,55.71,55.71,0,0,1,20.61,5,27.16,27.16,0,0,1,8.89,6.38,14,14,0,0,1,3.49,6.8,12,12,0,0,1-1.73,8.64,21.41,21.41,0,0,1-7.22,6.88,44.53,44.53,0,0,1-13.78,5.42A68.59,68.59,0,0,1,618.2,59.21Zm.57-37.8c-1.7.09-3.4.14-5.09.25a56.5,56.5,0,0,0-13.34,2.49,34.48,34.48,0,0,0-10.65,5.29,15.51,15.51,0,0,0-4.48,5.05,8.7,8.7,0,0,0-1,5.34A10.78,10.78,0,0,0,587,45.62a25.24,25.24,0,0,0,9,6.1A54.91,54.91,0,0,0,615.44,56a63.83,63.83,0,0,0,16.77-1.31,42.71,42.71,0,0,0,13-4.84,19.5,19.5,0,0,0,6.36-5.62,9.06,9.06,0,0,0,.05-10.82A16.62,16.62,0,0,0,648,29.6a32.73,32.73,0,0,0-9.54-5A61.25,61.25,0,0,0,618.77,21.41Z"/><path class="cls-2" d="M598.5,43.49c-.26,1.46-.52,2.86-.75,4.27-.06.33-.16.46-.5.45-1.23,0-2.45,0-3.75,0,.17-.9.32-1.75.47-2.6q1.32-7.1,2.62-14.2c.06-.37.18-.52.59-.51,2.57,0,5.14,0,7.71,0a9.14,9.14,0,0,1,2.33.3,4.71,4.71,0,0,1,3.52,5.4,13.15,13.15,0,0,1-.28,1.39c-.9,3.27-2.94,5-6.48,5.3-1.53.15-3.08.13-4.62.19Zm.59-3.15a27.9,27.9,0,0,0,4.95-.23A3,3,0,0,0,606.32,38a6.08,6.08,0,0,0,.29-1.33,2,2,0,0,0-2-2.51c-1.34-.14-2.7-.08-4-.11a2.23,2.23,0,0,0-.34,0Z"/><path class="cls-2" d="M631.57,43.49c-.26,1.44-.52,2.83-.74,4.23-.06.37-.18.5-.57.49-1.21,0-2.42,0-3.69,0l.58-3.19c.84-4.55,1.69-9.1,2.52-13.65.06-.34.17-.47.53-.47,2.63,0,5.26,0,7.89,0a8.77,8.77,0,0,1,2.55.4,4.6,4.6,0,0,1,3.17,5.1,12.77,12.77,0,0,1-.56,2.43,6.33,6.33,0,0,1-5.59,4.36c-1.53.2-3.08.2-4.62.27C632.57,43.51,632.1,43.49,631.57,43.49Zm1.76-9.35-1.18,6.24c1.56-.06,3.07-.06,4.57-.2a3,3,0,0,0,2.72-2.33,6.38,6.38,0,0,0,.24-1.05c.21-1.53-.43-2.5-2-2.64S634.83,34.14,633.33,34.14Z"/><path class="cls-2" d="M610.87,43.47c.32-1.56.63-3.06,1-4.57Q613.27,32,614.71,25c.08-.35.2-.45.55-.45,1.21,0,2.42,0,3.68,0l-1.3,6.3h.61c1.75,0,3.5.06,5.24.14a5.14,5.14,0,0,1,1.47.34,2.76,2.76,0,0,1,2,2.84,20,20,0,0,1-.47,3.35c-.36,1.86-.8,3.69-1.19,5.54-.05.22-.08.38-.37.38h-3.73a.7.7,0,0,1-.17-.06c.27-1.23.53-2.45.79-3.68s.51-2.37.76-3.55a2.45,2.45,0,0,0,0-.38c.06-1.07-.27-1.58-1.34-1.66-1.36-.12-2.73-.08-4.1-.08-.11,0-.27.21-.31.35q-.92,4.24-1.79,8.5c-.09.42-.22.6-.69.58-1,0-2.05,0-3.07,0Z"/><rect class="cls-1" x="153.84" width="80" height="80"/><path class="cls-2" d="M173.79,3.27l6,3.4c2.81,1.61,5.61,3.24,8.42,4.84A1.51,1.51,0,0,1,189,13q0,14.87,0,29.72v.48l.34-.17,11.31-6.51a.45.45,0,0,0,.26-.46c0-5.05,0-10.09,0-15.14a1.31,1.31,0,0,1,.72-1.23q7-4,14-8a1.38,1.38,0,0,1,1.51,0l13.9,8a1.36,1.36,0,0,1,.76,1.3V36.82a1.37,1.37,0,0,1-.76,1.3L217.81,45.7a.52.52,0,0,0-.3.53c0,5,0,10,0,15a1.41,1.41,0,0,1-.78,1.36q-14,8.06-28,16.14a1.57,1.57,0,0,1-1.75,0q-14-8.1-28.08-16.17a1.66,1.66,0,0,1-.73-.9V12.48a1.89,1.89,0,0,1,1-1.06c3.31-1.89,6.61-3.8,9.92-5.7,1.44-.83,2.89-1.63,4.34-2.45ZM160.51,14.69v.41q0,22.65,0,45.31a.57.57,0,0,0,.31.57q12.63,7.25,25.25,14.52l.62.35v-.44q0-6.42,0-12.85a.61.61,0,0,0-.37-.62c-4.34-2.44-8.67-4.91-13-7.34a1.57,1.57,0,0,1-.88-1.54q0-15.56,0-31.1a.61.61,0,0,0-.36-.63q-5.51-3.15-11-6.32ZM189,75.84l.31-.16Q202.14,68.32,214.93,61a.46.46,0,0,0,.26-.46V47.6c0-.1,0-.21,0-.37l-.44.24L189.32,62a.55.55,0,0,0-.31.56V75.44C189,75.56,189,75.68,189,75.84ZM186.68,14.7l-.23.12L175,21.4a.46.46,0,0,0-.24.48q0,14.55,0,29.12c0,.11,0,.22,0,.37l.36-.2,11.21-6.44a.59.59,0,0,0,.34-.6q0-14.51,0-29ZM176,53.4l.26.16L187.62,60a.44.44,0,0,0,.5,0L213.66,45.4l.31-.2-.3-.19-11.23-6.47a.59.59,0,0,0-.69,0Q189,45.88,176.32,53.19Zm9.5-40.74-.28-.17L173.84,5.94a.44.44,0,0,0-.5,0L162,12.48l-.28.19.29.18,11.31,6.52a.47.47,0,0,0,.55,0l11.31-6.52Zm42.76,8.07-.35-.21L216.61,14a.45.45,0,0,0-.53,0l-10.48,6-1.15.66.3.19,11.33,6.53a.45.45,0,0,0,.53,0L227.76,21Zm-25,2v.37q0,6.45,0,12.88a.45.45,0,0,0,.27.46L214.86,43l.31.15c0-.14,0-.23,0-.32V29.91a.45.45,0,0,0-.27-.45L203.67,23Zm14.26,20.41.34-.18,11.28-6.49a.48.48,0,0,0,.29-.48q0-6.45,0-12.88c0-.11,0-.21,0-.36l-.25.13-11.37,6.54a.48.48,0,0,0-.27.49q0,6.42,0,12.84Z"/><rect class="cls-1" x="294.52" width="80" height="80"/><path class="cls-2" d="M336.39,1.87h-.16a27.55,27.55,0,0,0-13,3,11.8,11.8,0,0,0-3.48,2.55,7.24,7.24,0,0,0-2.74-.74A8.07,8.07,0,0,0,309,14.76,8,8,0,0,0,313.83,22V37.13l-4.13,4.13a2.42,2.42,0,0,0,1.71,4.12,2.37,2.37,0,0,0,1.71-.71l.28-.28c-.11.74-.22,1.46-.35,2.23a52.64,52.64,0,0,0-.83,10,17.81,17.81,0,0,0,6.18,13l-2.25,2.25a2.42,2.42,0,1,0,3.42,3.42l2.8-2.8A27.78,27.78,0,0,0,336.25,76h.3a27.84,27.84,0,0,0,13.86-3.5l2.8,2.8a2.42,2.42,0,0,0,3.42-3.42l-2.25-2.25a17.87,17.87,0,0,0,6.18-13,52.64,52.64,0,0,0-.83-10c-.13-.77-.24-1.49-.35-2.23l.28.28a2.41,2.41,0,0,0,3.42,0,2.41,2.41,0,0,0,0-3.41L359,37.13V22a8,8,0,0,0,4.84-7.25,8.08,8.08,0,0,0-8.06-8,7.24,7.24,0,0,0-2.74.74,11.8,11.8,0,0,0-3.48-2.55,27.62,27.62,0,0,0-13-3Zm0,3.23A24.21,24.21,0,0,1,348,7.74a12.4,12.4,0,0,1,3.45,2.48,1.62,1.62,0,0,0,2,.33,4.61,4.61,0,0,1,2.28-.62,4.83,4.83,0,0,1,1.21,9.5A1.62,1.62,0,0,0,355.73,21v18a41.39,41.39,0,0,0,.83,8.23,48.73,48.73,0,0,1,.78,9.49c0,7.21-7.15,16.12-20.95,16.12s-20.95-8.91-20.95-16.12a48.73,48.73,0,0,1,.78-9.49,41.39,41.39,0,0,0,.83-8.23V21a1.62,1.62,0,0,0-1.21-1.56,4.83,4.83,0,0,1,1.21-9.5,4.61,4.61,0,0,1,2.28.62,1.62,1.62,0,0,0,2-.33,12.4,12.4,0,0,1,3.45-2.48A24.25,24.25,0,0,1,336.39,5.1Zm-8.86,6.44a7.25,7.25,0,1,0,7.25,7.25A7.27,7.27,0,0,0,327.53,11.54Zm17.72,0a7.25,7.25,0,1,0,7.25,7.25A7.28,7.28,0,0,0,345.25,11.54Zm-28.2,1.61a1.62,1.62,0,0,0,0,3.23,1.55,1.55,0,0,0,.31-.07,10.35,10.35,0,0,1,1-2.5A1.59,1.59,0,0,0,317.05,13.15Zm38.68,0a1.59,1.59,0,0,0-1.27.66,10.35,10.35,0,0,1,1,2.5,1.55,1.55,0,0,0,.31.07,1.62,1.62,0,0,0,0-3.23Zm-28.2,1.61a4,4,0,1,1-3.22,6.45,2.42,2.42,0,0,0,0-4.83A4,4,0,0,1,327.53,14.76Zm17.72,0A4,4,0,1,1,342,21.21a2.42,2.42,0,0,0,0-4.83A4,4,0,0,1,345.25,14.77Zm-8.86,9.66c-2.28,0-4.25,1.07-4.73,2.56a7.51,7.51,0,0,0-1.34,1,6.36,6.36,0,0,0-2,4.46,4.35,4.35,0,0,0,1.36,3.13,7,7,0,0,0,3.48,1.43v1.89a1.61,1.61,0,0,0,3.22,0v0a1.61,1.61,0,0,0,3.22,0V37.05a7,7,0,0,0,3.48-1.43,4.35,4.35,0,0,0,1.36-3.13,6.36,6.36,0,0,0-2-4.46,7.24,7.24,0,0,0-1.35-1C340.64,25.5,338.67,24.43,336.39,24.43ZM333,30a6.67,6.67,0,0,0,6.76,0,4.58,4.58,0,0,1,.42.35,3.34,3.34,0,0,1,1,2.18c0,.4.1.4-.25.7s-1.56.91-4.58.91-4.23-.6-4.58-.91-.25-.3-.25-.7a3.34,3.34,0,0,1,1-2.18A4.32,4.32,0,0,1,333,30Z"/><rect class="cls-1" x="717.2" width="80" height="80"/><path class="cls-2" d="M775.76,78c-1.54-.24-2.43-1.38-3.4-2.43Q748.3,49.62,724.22,23.68a.94.94,0,0,1-.26-.43L735.1,33.49l31.37,28.85c3.78,3.47,7.5,7,11.36,10.38a3,3,0,0,1-1.12,5.07c-.17.06-.32.14-.48.21Z"/><path class="cls-2" d="M718.88,3,724,7.77l53.88,50.49,9.93,9.32a2.81,2.81,0,0,1,0,4.26,2.93,2.93,0,0,1-4.2-.09Q778.15,66,772.75,60.29L726.33,11.12l-7.54-8Z"/><path class="cls-2" d="M739.05,8.36l40.54,37.28,13.53,12.44a2.82,2.82,0,0,1,.09,4.21,2.94,2.94,0,0,1-4.26,0c-2.3-2.45-4.57-4.92-6.86-7.38L741.35,11c-.79-.84-1.57-1.69-2.35-2.54Z"/><path class="cls-2" d="M757.5,14.34l21.11,19.4c5.24,4.82,10.47,9.67,15.75,14.46a2.06,2.06,0,1,1-2.91,2.85l-16.68-18L757.46,14.41Z"/><path class="cls-2" d="M728.87,40.19l13.07,12,23.91,22a1.83,1.83,0,0,1,.68,1.9,2,2,0,0,1-1.63,1.65,2.24,2.24,0,0,1-2.11-.84Q757.42,71.07,752,65.27L729.15,40.61l-.34-.36Z"/><path class="cls-2" d="M776.33,22.89l9.41,8.6,6,5.45c.57.52.66,1,.27,1.45s-1.05.43-1.6-.16L776.28,23Z"/><path class="cls-2" d="M738.44,58.72l3.44,3.14L753.4,72.39c.68.62.75,1,.31,1.48s-1.13.36-1.67-.23L738.68,59.19a3.89,3.89,0,0,1-.32-.39Z"/><path class="cls-3" d="M4.14,114.18a4.16,4.16,0,0,1-2.65-.84A4.28,4.28,0,0,1,0,111.08l2.07-.49a2,2,0,0,0,.72,1.14,1.94,1.94,0,0,0,1.28.48,2.31,2.31,0,0,0,1-.24,1.56,1.56,0,0,0,.76-.78,2.41,2.41,0,0,0,.2-.83q0-.47,0-1.08V99.49H8.16v10.93a4.74,4.74,0,0,1-.11.94,3.18,3.18,0,0,1-.36.91,3.54,3.54,0,0,1-1.5,1.45A4.64,4.64,0,0,1,4.14,114.18Z"/><path class="cls-3" d="M14.22,114.19a4.09,4.09,0,0,1-2-.45A3.11,3.11,0,0,1,11,112.56a3.3,3.3,0,0,1-.41-1.62,3.38,3.38,0,0,1,.29-1.43,2.75,2.75,0,0,1,.86-1.06,4.7,4.7,0,0,1,1.4-.7,13.71,13.71,0,0,1,1.63-.37c.61-.11,1.24-.21,1.91-.3l2-.28-.76.42a2.7,2.7,0,0,0-.54-1.89,2.46,2.46,0,0,0-1.9-.61,3.17,3.17,0,0,0-1.56.39,2.15,2.15,0,0,0-1,1.31l-1.95-.6a4,4,0,0,1,1.52-2.21,5,5,0,0,1,3-.82,5.93,5.93,0,0,1,2.52.49,3.1,3.1,0,0,1,1.58,1.57A3.29,3.29,0,0,1,19.9,106a12.44,12.44,0,0,1,.06,1.27v6.65H18.11v-2.47l.36.32a4.63,4.63,0,0,1-1.71,1.84A5,5,0,0,1,14.22,114.19Zm.37-1.71a3.45,3.45,0,0,0,1.53-.32,3,3,0,0,0,1-.8,2.58,2.58,0,0,0,.51-1,3.64,3.64,0,0,0,.19-1.08q0-.6,0-1l.68.25-1.8.27c-.54.08-1,.15-1.47.23a9.43,9.43,0,0,0-1.16.28,3.91,3.91,0,0,0-.77.36,1.82,1.82,0,0,0-.53.5,1.36,1.36,0,0,0-.19.74,1.49,1.49,0,0,0,.21.77,1.43,1.43,0,0,0,.64.57A2.66,2.66,0,0,0,14.59,112.48Z"/><path class="cls-3" d="M25.08,113.89l-3.92-10.8h2.11l2.87,8.18L29,103.09h2.11l-3.92,10.8Z"/><path class="cls-3" d="M35.37,114.19a4.09,4.09,0,0,1-2-.45,3.11,3.11,0,0,1-1.23-1.18,3.3,3.3,0,0,1-.41-1.62,3.38,3.38,0,0,1,.29-1.43,2.75,2.75,0,0,1,.86-1.06,4.7,4.7,0,0,1,1.4-.7,13.71,13.71,0,0,1,1.63-.37c.61-.11,1.24-.21,1.91-.3l2-.28-.76.42a2.7,2.7,0,0,0-.54-1.89,2.46,2.46,0,0,0-1.9-.61,3.17,3.17,0,0,0-1.56.39,2.15,2.15,0,0,0-1,1.31l-2-.6a4,4,0,0,1,1.52-2.21,5,5,0,0,1,3-.82,6,6,0,0,1,2.53.49,3.12,3.12,0,0,1,1.57,1.57,3.29,3.29,0,0,1,.32,1.12,12.44,12.44,0,0,1,.06,1.27v6.65H39.26v-2.47l.36.32a4.68,4.68,0,0,1-1.7,1.84A5,5,0,0,1,35.37,114.19Zm.37-1.71a3.45,3.45,0,0,0,1.53-.32,3,3,0,0,0,1-.8,2.58,2.58,0,0,0,.51-1,3.64,3.64,0,0,0,.19-1.08q0-.6,0-1l.68.25-1.8.27c-.54.08-1,.15-1.46.23a9.18,9.18,0,0,0-1.17.28,3.91,3.91,0,0,0-.77.36,1.78,1.78,0,0,0-.52.5,1.28,1.28,0,0,0-.2.74,1.49,1.49,0,0,0,.21.77,1.43,1.43,0,0,0,.64.57A2.66,2.66,0,0,0,35.74,112.48Z"/><path class="cls-3" d="M48.93,114.19a7,7,0,0,1-2.8-.54,5.35,5.35,0,0,1-2.05-1.53,5.13,5.13,0,0,1-1-2.36l2.18-.33a3.42,3.42,0,0,0,1.38,2,4.18,4.18,0,0,0,2.45.74,4.59,4.59,0,0,0,1.6-.28,2.76,2.76,0,0,0,1.17-.79,1.79,1.79,0,0,0,.45-1.23,1.66,1.66,0,0,0-.51-1.22,2,2,0,0,0-.57-.39,4.44,4.44,0,0,0-.73-.28l-3.69-1.09a8.81,8.81,0,0,1-1.1-.42,4.05,4.05,0,0,1-1-.67,3.15,3.15,0,0,1-.75-1,3.53,3.53,0,0,1-.29-1.49,3.74,3.74,0,0,1,.68-2.26,4.26,4.26,0,0,1,1.86-1.4,7,7,0,0,1,5.24,0,5,5,0,0,1,1.91,1.43,5.25,5.25,0,0,1,1.06,2.27l-2.24.38a3,3,0,0,0-.64-1.4,3.33,3.33,0,0,0-1.2-.9,3.76,3.76,0,0,0-1.54-.32,3.55,3.55,0,0,0-1.47.24,2.55,2.55,0,0,0-1.06.73,1.63,1.63,0,0,0-.39,1.08,1.33,1.33,0,0,0,.35,1,2.4,2.4,0,0,0,.86.59c.35.14.69.26,1,.36l2.66.75c.33.09.71.21,1.13.37a5.23,5.23,0,0,1,1.23.66,3.23,3.23,0,0,1,1,1.11,3.54,3.54,0,0,1,.39,1.75,4,4,0,0,1-.44,1.91,4,4,0,0,1-1.21,1.38,5.3,5.3,0,0,1-1.76.83A7.68,7.68,0,0,1,48.93,114.19Z"/><path class="cls-3" d="M61.2,114.19a5.07,5.07,0,0,1-2.82-.75,4.79,4.79,0,0,1-1.78-2,6.89,6.89,0,0,1-.62-2.93,6.78,6.78,0,0,1,.64-3,4.75,4.75,0,0,1,1.8-2,5.18,5.18,0,0,1,2.81-.73,5.08,5.08,0,0,1,3,.88,4.1,4.1,0,0,1,1.66,2.41l-2.08.6a2.77,2.77,0,0,0-1-1.42,2.65,2.65,0,0,0-1.61-.5,2.79,2.79,0,0,0-1.69.48,2.84,2.84,0,0,0-1,1.33,5.67,5.67,0,0,0-.33,1.92,4.57,4.57,0,0,0,.76,2.7,3,3,0,0,0,3.87.56,2.86,2.86,0,0,0,1-1.33l2.12.5a4.62,4.62,0,0,1-1.75,2.42A5.09,5.09,0,0,1,61.2,114.19Z"/><path class="cls-3" d="M68,113.89v-10.8h1.86v2.62l-.26-.34a4,4,0,0,1,.52-1,3,3,0,0,1,.74-.72,3.54,3.54,0,0,1,.91-.46,4.16,4.16,0,0,1,1-.2,4.31,4.31,0,0,1,1,.06v2A3.22,3.22,0,0,0,72.6,105a2.49,2.49,0,0,0-1.18.41,2.45,2.45,0,0,0-.8.8,3.31,3.31,0,0,0-.43,1,5.31,5.31,0,0,0-.13,1.22v5.45Z"/><path class="cls-3" d="M75.88,101.32v-2H78v2Zm0,12.57v-10.8H78v10.8Z"/><path class="cls-3" d="M81,118.69v-15.6h1.86v7.77h.24v7.83Zm5.08-4.5a4.37,4.37,0,0,1-2.6-.76,4.65,4.65,0,0,1-1.59-2,7.47,7.47,0,0,1-.54-2.91,7.66,7.66,0,0,1,.53-2.91,4.7,4.7,0,0,1,1.58-2,4.32,4.32,0,0,1,2.58-.74,4.53,4.53,0,0,1,2.62.74,4.86,4.86,0,0,1,1.71,2,7.38,7.38,0,0,1,0,5.83,4.88,4.88,0,0,1-1.69,2A4.47,4.47,0,0,1,86,114.19Zm-.29-1.89a2.58,2.58,0,0,0,1.65-.51,3,3,0,0,0,1-1.38,5.39,5.39,0,0,0,.33-1.93,5.3,5.3,0,0,0-.33-1.92,2.9,2.9,0,0,0-1-1.37,2.76,2.76,0,0,0-1.71-.51,2.7,2.7,0,0,0-1.62.47,2.92,2.92,0,0,0-.94,1.35,6,6,0,0,0-.3,2,6.06,6.06,0,0,0,.3,2,2.84,2.84,0,0,0,.95,1.35A2.75,2.75,0,0,0,85.75,112.3Z"/><path class="cls-3" d="M91.93,104.77v-1.68h7.38v1.68Zm7.38,9.12a9.17,9.17,0,0,1-2,.17,4.59,4.59,0,0,1-1.75-.38,2.39,2.39,0,0,1-1.16-1.1,3.32,3.32,0,0,1-.38-1.37c0-.46,0-1,0-1.57v-9.55h2.1v9.45c0,.43,0,.81,0,1.13a1.67,1.67,0,0,0,.21.81,1.42,1.42,0,0,0,1.14.7,7.4,7.4,0,0,0,1.85-.06Z"/><path class="cls-3" d="M161.49,113.89V99.49h2.09v12.43h6.52v2Z"/><path class="cls-3" d="M174.85,114.19a4.09,4.09,0,0,1-2-.45,3.11,3.11,0,0,1-1.23-1.18,3.3,3.3,0,0,1-.41-1.62,3.23,3.23,0,0,1,.29-1.43,2.75,2.75,0,0,1,.86-1.06,4.7,4.7,0,0,1,1.4-.7,13.71,13.71,0,0,1,1.63-.37c.61-.11,1.24-.21,1.91-.3l2-.28-.76.42a2.7,2.7,0,0,0-.54-1.89,2.46,2.46,0,0,0-1.9-.61,3.17,3.17,0,0,0-1.56.39,2.08,2.08,0,0,0-1,1.31l-1.95-.6a4,4,0,0,1,1.52-2.21,5,5,0,0,1,3-.82,5.93,5.93,0,0,1,2.52.49,3.1,3.1,0,0,1,1.58,1.57,3.29,3.29,0,0,1,.32,1.12,12.44,12.44,0,0,1,.06,1.27v6.65h-1.85v-2.47l.36.32a4.63,4.63,0,0,1-1.71,1.84A5,5,0,0,1,174.85,114.19Zm.37-1.71a3.45,3.45,0,0,0,1.53-.32,3.1,3.1,0,0,0,1-.8,2.58,2.58,0,0,0,.51-1,3.64,3.64,0,0,0,.19-1.08q0-.6,0-1l.68.25-1.8.27c-.54.08-1,.15-1.47.23a9.43,9.43,0,0,0-1.16.28,3.91,3.91,0,0,0-.77.36,1.82,1.82,0,0,0-.53.5,1.36,1.36,0,0,0-.19.74,1.49,1.49,0,0,0,.21.77,1.43,1.43,0,0,0,.64.57A2.66,2.66,0,0,0,175.22,112.48Z"/><path class="cls-3" d="M183.19,113.89v-10.8h1.86v2.62l-.26-.34a3.71,3.71,0,0,1,.52-1,3,3,0,0,1,.74-.72,3.54,3.54,0,0,1,.91-.46,4.07,4.07,0,0,1,1-.2,4.31,4.31,0,0,1,1,.06v2a3.23,3.23,0,0,0-1.18-.08,2.49,2.49,0,0,0-1.18.41,2.58,2.58,0,0,0-.81.8,3.29,3.29,0,0,0-.42,1,5.31,5.31,0,0,0-.13,1.22v5.45Z"/><path class="cls-3" d="M193.67,114.19a4.09,4.09,0,0,1-2-.45,3.11,3.11,0,0,1-1.23-1.18,3.3,3.3,0,0,1-.41-1.62,3.23,3.23,0,0,1,.29-1.43,2.75,2.75,0,0,1,.86-1.06,4.59,4.59,0,0,1,1.4-.7,13.71,13.71,0,0,1,1.63-.37c.6-.11,1.24-.21,1.91-.3l2-.28-.76.42a2.7,2.7,0,0,0-.54-1.89,2.46,2.46,0,0,0-1.9-.61,3.17,3.17,0,0,0-1.56.39,2.08,2.08,0,0,0-1,1.31l-2-.6a4,4,0,0,1,1.52-2.21,5,5,0,0,1,3-.82,6,6,0,0,1,2.52.49,3.14,3.14,0,0,1,1.58,1.57,3.29,3.29,0,0,1,.32,1.12,12.44,12.44,0,0,1,.06,1.27v6.65h-1.85v-2.47l.36.32a4.63,4.63,0,0,1-1.71,1.84A5,5,0,0,1,193.67,114.19Zm.37-1.71a3.45,3.45,0,0,0,1.53-.32,3.1,3.1,0,0,0,1-.8,2.58,2.58,0,0,0,.51-1,3.64,3.64,0,0,0,.19-1.08q0-.6,0-1l.68.25-1.8.27c-.54.08-1,.15-1.47.23a9.43,9.43,0,0,0-1.16.28,3.91,3.91,0,0,0-.77.36,1.82,1.82,0,0,0-.53.5,1.36,1.36,0,0,0-.19.74,1.49,1.49,0,0,0,.21.77,1.43,1.43,0,0,0,.64.57A2.63,2.63,0,0,0,194,112.48Z"/><path class="cls-3" d="M204.53,113.89l-3.92-10.8h2.11l2.87,8.18,2.87-8.18h2.11l-3.92,10.8Z"/><path class="cls-3" d="M216.76,114.19a5.53,5.53,0,0,1-2.83-.71,4.91,4.91,0,0,1-1.89-2,6.12,6.12,0,0,1-.67-2.93,6.68,6.68,0,0,1,.66-3.07,4.83,4.83,0,0,1,1.86-2,5.22,5.22,0,0,1,2.77-.71,5,5,0,0,1,2.81.76,4.61,4.61,0,0,1,1.73,2.18,7.47,7.47,0,0,1,.46,3.35h-2.09v-.76a4.6,4.6,0,0,0-.72-2.78,2.5,2.5,0,0,0-2.11-.9,2.84,2.84,0,0,0-2.36,1,4.47,4.47,0,0,0-.79,2.86,4.25,4.25,0,0,0,.79,2.75,2.78,2.78,0,0,0,2.28,1,3.09,3.09,0,0,0,1.69-.45,3,3,0,0,0,1.12-1.27l2.05.65a4.88,4.88,0,0,1-1.91,2.24A5.33,5.33,0,0,1,216.76,114.19Zm-3.85-5.11v-1.64h7.71v1.64Z"/><path class="cls-3" d="M224.1,113.89V99.19h2.09v14.7Z"/><path class="cls-3" d="M307.91,114.19a6.9,6.9,0,0,1-2.67-.51,6.13,6.13,0,0,1-2.12-1.47,7,7,0,0,1-1.4-2.36,9.4,9.4,0,0,1-.5-3.16,8.86,8.86,0,0,1,.85-4,6.22,6.22,0,0,1,2.36-2.58,6.69,6.69,0,0,1,3.48-.91,6.41,6.41,0,0,1,4.06,1.19,5.82,5.82,0,0,1,2.06,3.26l-2.12.38a4.19,4.19,0,0,0-1.42-2.06,3.81,3.81,0,0,0-2.46-.78,4.34,4.34,0,0,0-2.54.68,4.16,4.16,0,0,0-1.53,1.93,7.82,7.82,0,0,0-.52,2.9,7.49,7.49,0,0,0,.5,2.88,4.17,4.17,0,0,0,1.54,1.93,4.45,4.45,0,0,0,2.55.69,4.18,4.18,0,0,0,2.12-.45,3.47,3.47,0,0,0,1.4-1.39,5.89,5.89,0,0,0,.67-2.26h-2.8V106.4h5a3.14,3.14,0,0,1,0,.48c0,.2,0,.32,0,.38a7.93,7.93,0,0,1-.77,3.57,5.85,5.85,0,0,1-2.24,2.46A6.68,6.68,0,0,1,307.91,114.19Z"/><path class="cls-3" d="M321.17,114.19a5.34,5.34,0,0,1-2.81-.73,4.9,4.9,0,0,1-1.83-2,6.51,6.51,0,0,1-.65-3,6.44,6.44,0,0,1,.66-3,4.9,4.9,0,0,1,1.85-2,5.79,5.79,0,0,1,5.59,0,4.77,4.77,0,0,1,1.84,2,6.32,6.32,0,0,1,.65,3,6.56,6.56,0,0,1-.65,3,4.86,4.86,0,0,1-1.85,2A5.28,5.28,0,0,1,321.17,114.19Zm0-2a2.68,2.68,0,0,0,2.32-1,5.15,5.15,0,0,0,0-5.4,2.72,2.72,0,0,0-2.31-1,2.94,2.94,0,0,0-1.73.47,2.84,2.84,0,0,0-1,1.31,5.26,5.26,0,0,0-.33,1.94,4.32,4.32,0,0,0,.78,2.71A2.69,2.69,0,0,0,321.17,112.22Z"/><path class="cls-3" d="M328.87,113.89V99.19H331v14.7Z"/><path class="cls-3" d="M337,114.19a4.09,4.09,0,0,1-2-.45,3,3,0,0,1-1.22-1.18,3.21,3.21,0,0,1-.42-1.62,3.38,3.38,0,0,1,.29-1.43,2.84,2.84,0,0,1,.86-1.06,4.7,4.7,0,0,1,1.4-.7,14.18,14.18,0,0,1,1.63-.37q.91-.16,1.92-.3l2-.28-.76.42a2.66,2.66,0,0,0-.53-1.89,2.49,2.49,0,0,0-1.91-.61,3.22,3.22,0,0,0-1.56.39,2.15,2.15,0,0,0-1,1.31l-1.95-.6a4,4,0,0,1,1.53-2.21,5,5,0,0,1,3-.82,6,6,0,0,1,2.53.49,3.12,3.12,0,0,1,1.57,1.57,3.08,3.08,0,0,1,.32,1.12,12.44,12.44,0,0,1,.06,1.27v6.65H340.9v-2.47l.36.32a4.54,4.54,0,0,1-1.7,1.84A5,5,0,0,1,337,114.19Zm.37-1.71a3.39,3.39,0,0,0,1.53-.32,3,3,0,0,0,1-.8,2.58,2.58,0,0,0,.51-1,3.64,3.64,0,0,0,.2-1.08c0-.4,0-.72,0-1l.68.25-1.8.27c-.54.08-1,.15-1.46.23a9.18,9.18,0,0,0-1.17.28,3.82,3.82,0,0,0-.76.36,1.7,1.7,0,0,0-.53.5,1.36,1.36,0,0,0-.2.74,1.45,1.45,0,0,0,.85,1.34A2.69,2.69,0,0,0,337.38,112.48Z"/><path class="cls-3" d="M345.34,113.89v-10.8h1.87v3.12h.25v7.68Zm7.59,0v-5.31a8.22,8.22,0,0,0-.1-1.3,4.23,4.23,0,0,0-.4-1.23,2.3,2.3,0,0,0-2.23-1.27,3.15,3.15,0,0,0-1.06.18,2.13,2.13,0,0,0-.87.6,2.78,2.78,0,0,0-.59,1.08,5.14,5.14,0,0,0-.22,1.63l-1.3-.49a6,6,0,0,1,.55-2.6,4.19,4.19,0,0,1,1.58-1.75,4.7,4.7,0,0,1,2.49-.63,4.51,4.51,0,0,1,1.88.35,3.63,3.63,0,0,1,1.24.95,4.39,4.39,0,0,1,.72,1.28,6.36,6.36,0,0,1,.34,1.35,8.63,8.63,0,0,1,.09,1.16v6Z"/><path class="cls-3" d="M361.94,114.19a4.5,4.5,0,0,1-2.6-.75,4.88,4.88,0,0,1-1.69-2,7.38,7.38,0,0,1,0-5.83,4.86,4.86,0,0,1,1.71-2,4.53,4.53,0,0,1,2.62-.74,4.32,4.32,0,0,1,2.58.74,4.7,4.7,0,0,1,1.58,2,7.66,7.66,0,0,1,.53,2.91,7.47,7.47,0,0,1-.54,2.91,4.65,4.65,0,0,1-1.59,2A4.35,4.35,0,0,1,361.94,114.19Zm.16,4.8a5.28,5.28,0,0,1-1.68-.27,4.87,4.87,0,0,1-1.49-.8,4.63,4.63,0,0,1-1.11-1.29l1.93-1a2.2,2.2,0,0,0,1,1,3,3,0,0,0,1.37.33,3.38,3.38,0,0,0,1.52-.32,2.13,2.13,0,0,0,1-.94,3.36,3.36,0,0,0,.31-1.57v-3h.25v-8H367v11.09c0,.28,0,.56,0,.82a7,7,0,0,1-.11.78,3.8,3.8,0,0,1-.87,1.8,4.05,4.05,0,0,1-1.64,1.06A6.92,6.92,0,0,1,362.1,119Zm.13-6.69a2.75,2.75,0,0,0,1.68-.49,2.78,2.78,0,0,0,.95-1.35,6.06,6.06,0,0,0,.3-2,6,6,0,0,0-.3-2,2.92,2.92,0,0,0-.94-1.35,2.68,2.68,0,0,0-1.62-.47,2.76,2.76,0,0,0-1.71.51,3,3,0,0,0-1,1.37,5.3,5.3,0,0,0-.33,1.92,5.39,5.39,0,0,0,.33,1.93,3,3,0,0,0,1,1.38A2.6,2.6,0,0,0,362.23,112.3Z"/><path class="cls-3" d="M440.62,113.89V99.49H447a3.54,3.54,0,0,1,.58.07,4.24,4.24,0,0,1,2,.82,3.78,3.78,0,0,1,1.2,1.59,5.71,5.71,0,0,1,0,4.25,3.78,3.78,0,0,1-1.2,1.59,4.34,4.34,0,0,1-2,.82l-.59,0-.52,0h-3.72v5.17Zm2.09-7.15h3.64l.45,0,.46-.07a2,2,0,0,0,1-.56,2.31,2.31,0,0,0,.56-.94,3.36,3.36,0,0,0,0-2.11,2.35,2.35,0,0,0-.56-.93,1.91,1.91,0,0,0-1-.55,2.21,2.21,0,0,0-.46-.08,3.54,3.54,0,0,0-.45,0h-3.64Z"/><path class="cls-3" d="M454.62,118.69l2.09-5.69,0,1.68L452,103.09h2.19l3.51,9h-.64l3.37-9h2.11l-6,15.6Z"/><path class="cls-3" d="M463.72,104.77v-1.68h7.38v1.68Zm7.38,9.12a9.11,9.11,0,0,1-2,.17,4.63,4.63,0,0,1-1.75-.38,2.43,2.43,0,0,1-1.16-1.1,3.31,3.31,0,0,1-.37-1.37c0-.46,0-1,0-1.57v-9.55h2.1v9.45c0,.43,0,.81,0,1.13a1.79,1.79,0,0,0,.2.81,1.44,1.44,0,0,0,1.15.7,7.32,7.32,0,0,0,1.84-.06Z"/><path class="cls-3" d="M473.36,113.89V99.49h1.87v7.77h.25v6.63Zm7.6,0v-5.31a8.25,8.25,0,0,0-.11-1.3,4,4,0,0,0-.4-1.23,2.37,2.37,0,0,0-.83-.92,2.46,2.46,0,0,0-1.4-.35,3,3,0,0,0-1.05.18,2.1,2.1,0,0,0-.88.6,2.78,2.78,0,0,0-.59,1.08,5.44,5.44,0,0,0-.22,1.63l-1.3-.49a6,6,0,0,1,.55-2.6,4.19,4.19,0,0,1,1.58-1.75,4.7,4.7,0,0,1,2.49-.63,4.51,4.51,0,0,1,1.88.35,3.63,3.63,0,0,1,1.24.95,4.17,4.17,0,0,1,.72,1.28,6.36,6.36,0,0,1,.34,1.35,8.63,8.63,0,0,1,.09,1.16v6Z"/><path class="cls-3" d="M490.36,114.19a5.34,5.34,0,0,1-2.81-.73,4.9,4.9,0,0,1-1.83-2,6.51,6.51,0,0,1-.65-3,6.44,6.44,0,0,1,.66-3,4.9,4.9,0,0,1,1.85-2,5.79,5.79,0,0,1,5.59,0,4.77,4.77,0,0,1,1.84,2,6.32,6.32,0,0,1,.65,3,6.43,6.43,0,0,1-.65,3,4.86,4.86,0,0,1-1.85,2A5.28,5.28,0,0,1,490.36,114.19Zm0-2a2.68,2.68,0,0,0,2.32-1,4.44,4.44,0,0,0,.76-2.69,4.34,4.34,0,0,0-.77-2.71,2.72,2.72,0,0,0-2.31-1,2.94,2.94,0,0,0-1.73.47,2.84,2.84,0,0,0-1,1.31,5.26,5.26,0,0,0-.33,1.94,4.32,4.32,0,0,0,.78,2.71A2.69,2.69,0,0,0,490.36,112.22Z"/><path class="cls-3" d="M497.85,113.89v-10.8h1.87v3.12H500v7.68Zm7.59,0v-5.31a8.22,8.22,0,0,0-.1-1.3,4,4,0,0,0-.4-1.23,2.37,2.37,0,0,0-.83-.92,2.46,2.46,0,0,0-1.4-.35,3.15,3.15,0,0,0-1.06.18,2.13,2.13,0,0,0-.87.6,2.78,2.78,0,0,0-.59,1.08,5.44,5.44,0,0,0-.22,1.63l-1.3-.49a6,6,0,0,1,.55-2.6,4.19,4.19,0,0,1,1.58-1.75,4.7,4.7,0,0,1,2.49-.63,4.51,4.51,0,0,1,1.88.35,3.63,3.63,0,0,1,1.24.95,4.17,4.17,0,0,1,.72,1.28,6.36,6.36,0,0,1,.34,1.35,8.63,8.63,0,0,1,.09,1.16v6Z"/><path class="cls-3" d="M600.3,113.89V99.49h6.34a3.53,3.53,0,0,1,.59.07,4.24,4.24,0,0,1,2,.82,3.87,3.87,0,0,1,1.2,1.59,5.84,5.84,0,0,1,0,4.25,3.87,3.87,0,0,1-1.2,1.59,4.34,4.34,0,0,1-2,.82l-.59,0-.52,0h-3.73v5.17Zm2.09-7.15H606l.45,0,.46-.07a2,2,0,0,0,1-.56,2.31,2.31,0,0,0,.56-.94,3.36,3.36,0,0,0,0-2.11,2.35,2.35,0,0,0-.56-.93,1.94,1.94,0,0,0-1-.55,2.21,2.21,0,0,0-.46-.08,3.62,3.62,0,0,0-.45,0h-3.65Z"/><path class="cls-3" d="M612.84,113.89V99.49h2.09v6.2h7.2v-6.2h2.1v14.4h-2.1v-6.22h-7.2v6.22Z"/><path class="cls-3" d="M627,113.89V99.49h6.34a3.53,3.53,0,0,1,.59.07,4.24,4.24,0,0,1,2,.82,3.87,3.87,0,0,1,1.2,1.59,5.84,5.84,0,0,1,0,4.25,3.87,3.87,0,0,1-1.2,1.59,4.34,4.34,0,0,1-2,.82l-.59,0-.52,0h-3.73v5.17Zm2.09-7.15h3.65l.45,0,.46-.07a2,2,0,0,0,1-.56,2.31,2.31,0,0,0,.56-.94,3.36,3.36,0,0,0,0-2.11,2.35,2.35,0,0,0-.56-.93,1.94,1.94,0,0,0-1-.55,2.21,2.21,0,0,0-.46-.08,3.62,3.62,0,0,0-.45,0h-3.65Z"/><path class="cls-3" d="M712.91,113.89V99.49h1.89L720,110.32l5.19-10.83h1.91v14.39h-2V104l-4.65,9.86h-1L714.88,104v9.86Z"/><path class="cls-3" d="M734.71,114.19a5.53,5.53,0,0,1-2.83-.71,4.91,4.91,0,0,1-1.89-2,6.12,6.12,0,0,1-.67-2.93,6.68,6.68,0,0,1,.66-3.07,4.83,4.83,0,0,1,1.86-2,5.22,5.22,0,0,1,2.77-.71,5,5,0,0,1,2.81.76,4.61,4.61,0,0,1,1.73,2.18,7.47,7.47,0,0,1,.46,3.35h-2.09v-.76a4.6,4.6,0,0,0-.72-2.78,2.5,2.5,0,0,0-2.11-.9,2.84,2.84,0,0,0-2.36,1,4.47,4.47,0,0,0-.79,2.86,4.25,4.25,0,0,0,.79,2.75,2.78,2.78,0,0,0,2.28,1,3.09,3.09,0,0,0,1.69-.45,3,3,0,0,0,1.12-1.27l2.05.65a4.88,4.88,0,0,1-1.91,2.24A5.31,5.31,0,0,1,734.71,114.19Zm-3.85-5.11v-1.64h7.71v1.64Z"/><path class="cls-3" d="M740.65,104.77v-1.68H748v1.68Zm7.38,9.12a9.17,9.17,0,0,1-2,.17,4.59,4.59,0,0,1-1.75-.38,2.39,2.39,0,0,1-1.16-1.1,3.18,3.18,0,0,1-.38-1.37c0-.46,0-1,0-1.57v-9.55h2.1v9.45c0,.43,0,.81,0,1.13a1.67,1.67,0,0,0,.21.81,1.42,1.42,0,0,0,1.14.7,7.4,7.4,0,0,0,1.85-.06Z"/><path class="cls-3" d="M754.59,114.19a5.53,5.53,0,0,1-2.83-.71,4.91,4.91,0,0,1-1.89-2,6.12,6.12,0,0,1-.67-2.93,6.68,6.68,0,0,1,.66-3.07,4.83,4.83,0,0,1,1.86-2,5.22,5.22,0,0,1,2.77-.71,5,5,0,0,1,2.81.76,4.61,4.61,0,0,1,1.73,2.18,7.47,7.47,0,0,1,.46,3.35H757.4v-.76a4.6,4.6,0,0,0-.72-2.78,2.5,2.5,0,0,0-2.11-.9,2.84,2.84,0,0,0-2.36,1,4.47,4.47,0,0,0-.79,2.86,4.25,4.25,0,0,0,.79,2.75,2.78,2.78,0,0,0,2.28,1,3.09,3.09,0,0,0,1.69-.45,3,3,0,0,0,1.12-1.27l2.05.65a4.88,4.88,0,0,1-1.91,2.24A5.33,5.33,0,0,1,754.59,114.19Zm-3.85-5.11v-1.64h7.71v1.64Z"/><path class="cls-3" d="M766.42,114.19a5.32,5.32,0,0,1-2.81-.73,4.86,4.86,0,0,1-1.84-2,6.51,6.51,0,0,1-.64-3,6.44,6.44,0,0,1,.66-3,4.83,4.83,0,0,1,1.85-2,5.79,5.79,0,0,1,5.59,0,4.9,4.9,0,0,1,1.84,2,7,7,0,0,1,0,5.92,4.84,4.84,0,0,1-1.84,2A5.33,5.33,0,0,1,766.42,114.19Zm0-2a2.67,2.67,0,0,0,2.31-1,4.44,4.44,0,0,0,.77-2.69,4.34,4.34,0,0,0-.78-2.71,2.69,2.69,0,0,0-2.3-1,2.92,2.92,0,0,0-1.73.47,2.77,2.77,0,0,0-1,1.31,5.26,5.26,0,0,0-.33,1.94,4.32,4.32,0,0,0,.78,2.71A2.68,2.68,0,0,0,766.42,112.22Z"/><path class="cls-3" d="M773.92,113.89v-10.8h1.86v2.62l-.26-.34a4,4,0,0,1,.52-1,3,3,0,0,1,.74-.72,3.54,3.54,0,0,1,.91-.46,4.16,4.16,0,0,1,1-.2,4.31,4.31,0,0,1,1,.06v2a3.23,3.23,0,0,0-1.18-.08,2.49,2.49,0,0,0-1.18.41,2.58,2.58,0,0,0-.81.8,3.55,3.55,0,0,0-.42,1,5.31,5.31,0,0,0-.13,1.22v5.45Z"/><path class="cls-3" d="M784.39,114.18a4.19,4.19,0,0,1-2.66-.84,4.33,4.33,0,0,1-1.48-2.26l2.07-.49a2,2,0,0,0,.71,1.14,2,2,0,0,0,1.29.48,2.31,2.31,0,0,0,1-.24,1.56,1.56,0,0,0,.76-.78,2.41,2.41,0,0,0,.2-.83q0-.47,0-1.08V99.49h2.12v9.79c0,.42,0,.8,0,1.14a4.11,4.11,0,0,1-.1.94,3.18,3.18,0,0,1-.36.91,3.54,3.54,0,0,1-1.5,1.45A4.67,4.67,0,0,1,784.39,114.18Z"/><path class="cls-3" d="M796.64,114.19a7,7,0,0,1-2.8-.54,5.35,5.35,0,0,1-2.05-1.53,5.13,5.13,0,0,1-1-2.36l2.18-.33a3.42,3.42,0,0,0,1.38,2,4.15,4.15,0,0,0,2.45.74,4.59,4.59,0,0,0,1.6-.28,2.82,2.82,0,0,0,1.17-.79,1.79,1.79,0,0,0,.45-1.23,1.66,1.66,0,0,0-.51-1.22,2,2,0,0,0-.57-.39,4.82,4.82,0,0,0-.73-.28l-3.69-1.09a8.81,8.81,0,0,1-1.1-.42,3.88,3.88,0,0,1-1-.67,3.15,3.15,0,0,1-.75-1,3.39,3.39,0,0,1-.29-1.49,3.74,3.74,0,0,1,.68-2.26,4.26,4.26,0,0,1,1.86-1.4,6.83,6.83,0,0,1,2.62-.48,6.75,6.75,0,0,1,2.61.53,5,5,0,0,1,1.92,1.43,5.36,5.36,0,0,1,1.06,2.27l-2.24.38a3.06,3.06,0,0,0-.64-1.4,3.33,3.33,0,0,0-1.2-.9,3.79,3.79,0,0,0-1.54-.32,3.53,3.53,0,0,0-1.47.24,2.55,2.55,0,0,0-1.06.73,1.63,1.63,0,0,0-.39,1.08,1.29,1.29,0,0,0,.35,1,2.4,2.4,0,0,0,.86.59c.35.14.69.26,1,.36l2.66.75c.33.09.71.21,1.13.37a5.23,5.23,0,0,1,1.23.66,3.23,3.23,0,0,1,1,1.11,3.54,3.54,0,0,1,.39,1.75,4,4,0,0,1-.44,1.91,4.11,4.11,0,0,1-1.21,1.38,5.39,5.39,0,0,1-1.76.83A7.68,7.68,0,0,1,796.64,114.19Z"/></g></g></svg>