<svg xmlns="http://www.w3.org/2000/svg" width="345" height="307" viewBox="0 0 345 307">
  <g id="Group_809" data-name="Group 809" transform="translate(-14098 -5599)">
    <g id="Group_807" data-name="Group 807">
      <rect id="Rectangle_1321" data-name="Rectangle 1321" width="345" height="307" transform="translate(14098 5599)" fill="none"/>
      <g id="Remote_team-pana" data-name="Remote team-pana" transform="translate(14000.63 5581.99)">
        <g id="freepik--Plant--inject-6" transform="translate(103.713 201.769)">
          <path id="Path_20336" data-name="Path 20336" d="M189.25,384.606a18.218,18.218,0,0,1,4.85-12.036C195.569,378.616,189.25,384.606,189.25,384.606Z" transform="translate(-163.412 -330.657)" fill="#455a64"/>
          <path id="Path_20337" data-name="Path 20337" d="M200.62,385.663a18.243,18.243,0,0,1,12.972-.359C208.636,389.064,200.62,385.663,200.62,385.663Z" transform="translate(-167.739 -335.115)" fill="#455a64"/>
          <path id="Path_20338" data-name="Path 20338" d="M201.75,373.995a14.378,14.378,0,0,1,1.765-10.085C205.64,368.339,201.75,373.995,201.75,373.995Z" transform="translate(-168.07 -327.362)" fill="#455a64"/>
          <path id="Path_20339" data-name="Path 20339" d="M158,357.39c10.283,2.738,15.8,11.683,15.8,11.683C165,369.079,158,357.39,158,357.39Z" transform="translate(-151.52 -324.881)" fill="#455a64"/>
          <path id="Path_20340" data-name="Path 20340" d="M184.488,349.679c-.533-11.088,10.3-23.639,10.3-23.639-1.635,13.764-10.3,23.639-10.3,23.639" transform="translate(-161.593 -312.951)" fill="#455a64"/>
          <path id="Path_20341" data-name="Path 20341" d="M181.858,313.22a29.734,29.734,0,0,1-3.9,15.883C176.426,321.967,181.858,313.22,181.858,313.22Z" transform="translate(-159.013 -308.072)" fill="#455a64"/>
          <path id="Path_20342" data-name="Path 20342" d="M169.979,344.093c-8.109-.867-12.519-8.933-12.519-8.933C167.266,337.9,169.979,344.093,169.979,344.093Z" transform="translate(-151.315 -316.421)" fill="#455a64"/>
          <path id="Path_20343" data-name="Path 20343" d="M149.44,402.622a18.231,18.231,0,0,1,12.749-2.478C157.908,404.673,149.44,402.622,149.44,402.622Z" transform="translate(-148.263 -341.048)" fill="#455a64"/>
          <path id="Path_20344" data-name="Path 20344" d="M180.011,410.18a11.931,11.931,0,0,1-5.451,6.139C174.907,412.577,180.011,410.18,180.011,410.18Z" transform="translate(-157.822 -344.969)" fill="#455a64"/>
          <path id="Path_20345" data-name="Path 20345" d="M175.707,408.041A14.39,14.39,0,0,1,166,409.769C169.134,406.517,175.707,408.041,175.707,408.041Z" transform="translate(-154.565 -344.02)" fill="#455a64"/>
          <path id="Path_20346" data-name="Path 20346" d="M182.9,393.725a.47.47,0,0,1,0-.161V388.28c0-1.146,0-2.447-.081-3.89-.074-2.88-.279-6.312-.57-10.11s-.793-7.966-1.425-12.315c-1.282-8.71-3.035-16.5-4.442-22.084-.706-2.8-1.307-5.055-1.741-6.61-.2-.756-.365-1.35-.489-1.79l-.111-.471a.619.619,0,0,1-.031-.161.33.33,0,0,0,.062.149l.155.458.551,1.778c.477,1.542,1.115,3.791,1.858,6.579a205.986,205.986,0,0,1,4.5,22.1c.619,4.336,1.084,8.536,1.4,12.34s.452,7.248.489,10.134c.043,1.443.031,2.75.031,3.9s0,2.137-.05,2.942-.043,1.4-.062,1.858v.483A.69.69,0,0,1,182.9,393.725Z" transform="translate(-157.613 -314.781)" fill="#263238"/>
          <path id="Path_20347" data-name="Path 20347" d="M164.34,394.459c.062-.081,3.339,2.069,7.322,4.8s7.167,5.011,7.111,5.092-3.333-2.063-7.316-4.795S164.284,394.545,164.34,394.459Z" transform="translate(-153.933 -338.986)" fill="#263238"/>
          <path id="Path_20348" data-name="Path 20348" d="M187.64,388.409a2.917,2.917,0,0,1,.5-.551l1.462-1.406c1.313-1.239,3-2.812,4.869-4.572l4.875-4.565,1.474-1.388a2.949,2.949,0,0,1,.576-.477,2.743,2.743,0,0,1-.471.576c-.322.359-.8.861-1.4,1.474-1.2,1.239-2.893,2.868-4.807,4.646s-3.661,3.37-4.956,4.5c-.619.564-1.171,1.016-1.536,1.319a3.007,3.007,0,0,1-.588.446Z" transform="translate(-162.8 -331.753)" fill="#263238"/>
          <path id="Path_20349" data-name="Path 20349" d="M147.54,386s8.381-.161,11.925,6.436A15.09,15.09,0,0,1,147.54,386Z" transform="translate(-147.54 -335.768)" fill="#455a64"/>
          <path id="Path_20350" data-name="Path 20350" d="M166,380.55s6.814,4.869,5.736,12.271A15.084,15.084,0,0,1,166,380.55Z" transform="translate(-154.561 -333.694)" fill="#455a64"/>
          <path id="Path_20351" data-name="Path 20351" d="M217.089,361.2s-2.695,9.379-11.249,11.064A17.574,17.574,0,0,1,217.089,361.2Z" transform="translate(-169.725 -326.331)" fill="#455a64"/>
          <path id="Path_20352" data-name="Path 20352" d="M160,304.91s10.686,6.975,9.5,18.317A22.982,22.982,0,0,1,160,304.91Z" transform="translate(-152.282 -304.91)" fill="#455a64"/>
          <path id="Path_20353" data-name="Path 20353" d="M208.28,405a4.553,4.553,0,0,1-.7.557c-.458.334-1.115.83-1.914,1.462a46.874,46.874,0,0,0-10.574,11.77c-.545.855-.973,1.567-1.239,2.063a4.632,4.632,0,0,1-.483.75,4.489,4.489,0,0,1,.353-.818c.248-.52.619-1.239,1.158-2.131a41.037,41.037,0,0,1,4.739-6.449,40.511,40.511,0,0,1,5.91-5.346c.818-.62,1.505-1.084,1.995-1.381A4.064,4.064,0,0,1,208.28,405Z" transform="translate(-164.98 -342.998)" fill="#263238"/>
          <path id="Path_20354" data-name="Path 20354" d="M202.254,408.442a18.218,18.218,0,0,1,2.478-12.742C205.86,403.648,202.254,408.442,202.254,408.442Z" transform="translate(-168.258 -339.459)" fill="#455a64"/>
          <path id="Path_20355" data-name="Path 20355" d="M214,408.874a13.269,13.269,0,0,1,9.329-1.443A13.163,13.163,0,0,1,214,408.874Z" transform="translate(-172.831 -343.812)" fill="#455a64"/>
          <path id="Path_20356" data-name="Path 20356" d="M163.2,433.76l4.014,26.358h23.3l5.408-25.974Z" transform="translate(-153.499 -353.942)" fill="#0091ff"/>
          <path id="Path_20357" data-name="Path 20357" d="M158.89,425.34V430.3a1.939,1.939,0,0,0,1.939,1.939h33.742a1.939,1.939,0,0,0,1.939-1.939V425.34Z" transform="translate(-151.859 -350.738)" fill="#0091ff"/>
          <path id="Path_20358" data-name="Path 20358" d="M194.672,436.481c0,.093-7.378.161-16.478.161s-16.484-.068-16.484-.161,7.378-.161,16.484-.161S194.672,436.394,194.672,436.481Z" transform="translate(-152.932 -354.917)" fill="#263238"/>
        </g>
        <g id="freepik--character-4--inject-6" transform="translate(302.226 145.577)">
          <path id="Path_20359" data-name="Path 20359" d="M479.3,214.2v32L468.35,258.008H479.3v57.034H584.22V214.2Z" transform="translate(-468.133 -214.2)" fill="#fff"/>
          <rect id="Rectangle_1208" data-name="Rectangle 1208" width="104.918" height="7.551" transform="translate(11.206 0.112)" fill="#f5f5f5"/>
          <path id="Path_20360" data-name="Path 20360" d="M486.14,351.3v16.025H591.027V351.3Z" transform="translate(-474.903 -266.372)" fill="#ebebeb"/>
          <path id="Path_20361" data-name="Path 20361" d="M508.315,220.052a1.412,1.412,0,1,1-1.412-1.412,1.412,1.412,0,0,1,1.412,1.412Z" transform="translate(-482.266 -215.89)" fill="#fff"/>
          <path id="Path_20362" data-name="Path 20362" d="M494.5,220.052a1.412,1.412,0,1,1-1.412-1.412,1.412,1.412,0,0,1,1.412,1.412Z" transform="translate(-477.011 -215.89)" fill="#fff"/>
          <path id="Path_20363" data-name="Path 20363" d="M501.4,220.052a1.412,1.412,0,1,1-1.412-1.412A1.412,1.412,0,0,1,501.4,220.052Z" transform="translate(-479.637 -215.89)" fill="#fff"/>
          <path id="Path_20364" data-name="Path 20364" d="M634.917,246.837h0a6.641,6.641,0,0,1-6.647-6.647h0a6.647,6.647,0,0,1,6.647-6.641h0a6.653,6.653,0,0,1,6.653,6.653h0A6.647,6.647,0,0,1,634.917,246.837Z" transform="translate(-528.989 -221.563)" fill="#ebebeb"/>
          <path id="Path_20365" data-name="Path 20365" d="M637.3,243.079a1.066,1.066,0,1,0-.619,0,1.859,1.859,0,0,0-1.549,1.858h3.717a1.859,1.859,0,0,0-1.549-1.858Z" transform="translate(-531.599 -224.396)" fill="#263238"/>
          <path id="Path_20366" data-name="Path 20366" d="M641.9,243.618a.155.155,0,0,1-.155-.149v-1.7a.155.155,0,1,1,.3,0v1.7a.149.149,0,0,1-.149.149Z" transform="translate(-534.117 -224.619)" fill="#263238"/>
          <path id="Path_20367" data-name="Path 20367" d="M642.227,243.312h-1.7a.155.155,0,0,1,0-.3h1.7a.155.155,0,1,1,0,.3Z" transform="translate(-533.605 -225.161)" fill="#263238"/>
          <circle id="Ellipse_64" data-name="Ellipse 64" cx="4.98" cy="4.98" r="4.98" transform="translate(77.377 87.536)" fill="#0091ff"/>
          <rect id="Rectangle_1209" data-name="Rectangle 1209" width="2.484" height="2.484" rx="1.242" transform="translate(80.567 91.383)" fill="#fff"/>
          <path id="Path_20368" data-name="Path 20368" d="M602.44,363.485v-.842l.619-.669a.136.136,0,0,1,.236.093v1.914a.136.136,0,0,1-.229.1Z" transform="translate(-519.16 -270.417)" fill="#fff"/>
          <path id="Path_20369" data-name="Path 20369" d="M570.245,364.118a4.906,4.906,0,1,1,3.472,1.44,4.912,4.912,0,0,1-3.472-1.44Z" transform="translate(-506.36 -268.058)" fill="#0091ff"/>
          <path id="Path_20370" data-name="Path 20370" d="M573.024,363.96l.874-.211a.229.229,0,0,0,.186-.229v-.18s-.037-.31.254-.328,1.524,0,1.524,0,.347,0,.341.266v.26a.2.2,0,0,0,.142.2l.954.291a.217.217,0,0,0,.248-.124l.118-.291a.311.311,0,0,0,0-.167.818.818,0,0,0-.161-.44,3.59,3.59,0,0,0-2.769-.731c-1.691.081-1.964.762-2.057.923a.7.7,0,0,0,0,.452.787.787,0,0,0,.068.167.254.254,0,0,0,.279.142Z" transform="translate(-507.819 -270.545)" fill="#fff"/>
          <circle id="Ellipse_65" data-name="Ellipse 65" cx="4.937" cy="4.937" r="4.937" transform="translate(47.42 87.623)" fill="#0091ff"/>
          <path id="Path_20371" data-name="Path 20371" d="M549.7,363.809a.489.489,0,1,1,.489-.489A.489.489,0,0,1,549.7,363.809Z" transform="translate(-498.904 -270.759)" fill="#fff"/>
          <path id="Path_20372" data-name="Path 20372" d="M552.133,363.843a.463.463,0,1,1,.489-.489.489.489,0,0,1-.489.489Z" transform="translate(-499.832 -270.793)" fill="#fff"/>
          <circle id="Ellipse_66" data-name="Ellipse 66" cx="0.489" cy="0.489" r="0.489" transform="translate(53.435 92.071)" fill="#fff"/>
          <path id="Path_20373" data-name="Path 20373" d="M501.983,243.036a3.2,3.2,0,1,1-3.2-3.2A3.2,3.2,0,0,1,501.983,243.036Z" transform="translate(-478.499 -223.957)" fill="#455a64"/>
          <path id="Path_20374" data-name="Path 20374" d="M526.2,245.831c0,.087-3.983.161-8.9.161s-8.9-.074-8.9-.161,3.983-.161,8.9-.161S526.2,245.738,526.2,245.831Z" transform="translate(-483.374 -226.176)" fill="#455a64"/>
          <path id="Path_20375" data-name="Path 20375" d="M479.206,214.315h7.483l21.272-.037,76.144-.068h.136V315.35H479.15l-.037-.043h0l-.043-.043v-.056c0-21.551,0-40.785.031-57.034l.112.112H468l.161-.167,10.989-11.863v.056c0-10.264.037-18.268.05-23.713v.031c0,5.433,0,13.424.05,23.663v.031h0l-10.94,11.826-.074-.173H479.3v.112c0,16.248,0,35.483.031,57.034l-.043-.105h0l-.1-.037H584.106l-.161.161V214.3l.142.136-76.057-.068-21.3-.037h-7.062Z" transform="translate(-468 -214.204)" fill="#263238"/>
          <path id="Path_20376" data-name="Path 20376" d="M596.67,298.071c0,.087-2.88.285-6.449.446a63.1,63.1,0,0,1-6.461.118c-.006-.087,2.881-.285,6.449-.44A64.335,64.335,0,0,1,596.67,298.071Z" transform="translate(-512.051 -246.104)" fill="#fff"/>
          <path id="Path_20377" data-name="Path 20377" d="M552.712,253.482c.564-3.1,1.307-6.288,3.221-8.79s5.284-4.157,8.27-3.147l3.68,2.137a112.159,112.159,0,0,1-5.191,25.194,5.433,5.433,0,0,1-1.146,2.23c-1.2,1.208-3.141,1.1-4.826.9-2.038-.235-4.417-.706-5.29-2.565a5.922,5.922,0,0,1-.316-2.911A112.55,112.55,0,0,1,552.712,253.482Z" transform="translate(-499.605 -224.491)" fill="#0091ff"/>
          <path id="Path_20378" data-name="Path 20378" d="M575.367,249.731l-11.342-3.773c-3.667-.663-6.461,3.717-6.963,7.434a66.487,66.487,0,0,0-.824,12.259c.533,6.257,5.216,7.39,5.216,7.39a15.128,15.128,0,0,0-.365,4.714c.3,4.262,3.042,5.365,5.3,5.519h0c3.549.378,7.26-.75,7.669-4.3l3.1-26.878A2.187,2.187,0,0,0,575.367,249.731Z" transform="translate(-501.552 -226.26)" fill="#ffbe9d"/>
          <path id="Path_20379" data-name="Path 20379" d="M560.188,265.4a.8.8,0,0,0,.706.861.762.762,0,0,0,.873-.657.8.8,0,0,0-.706-.861.768.768,0,0,0-.873.657Z" transform="translate(-503.08 -233.431)" fill="#263238"/>
          <path id="Path_20380" data-name="Path 20380" d="M559.574,262.743c.093.112.725-.291,1.58-.223s1.45.533,1.549.44-.037-.242-.3-.458a2.2,2.2,0,0,0-1.239-.483,2.137,2.137,0,0,0-1.239.31C559.63,262.513,559.531,262.693,559.574,262.743Z" transform="translate(-502.844 -232.395)" fill="#263238"/>
          <path id="Path_20381" data-name="Path 20381" d="M572.7,267.112a.793.793,0,0,0,.706.861.762.762,0,0,0,.867-.657.8.8,0,0,0-.706-.861.762.762,0,0,0-.867.657Z" transform="translate(-507.84 -234.082)" fill="#263238"/>
          <path id="Path_20382" data-name="Path 20382" d="M573.354,264.135c.093.112.725-.291,1.58-.223s1.45.539,1.549.44-.037-.235-.3-.458a2.2,2.2,0,0,0-1.239-.477,2.062,2.062,0,0,0-1.239.31C573.41,263.906,573.311,264.086,573.354,264.135Z" transform="translate(-508.088 -232.927)" fill="#263238"/>
          <path id="Path_20383" data-name="Path 20383" d="M566.117,269.154a5.574,5.574,0,0,0-1.369-.353c-.217-.037-.421-.1-.446-.248a1.146,1.146,0,0,1,.192-.62l.768-1.611a29.108,29.108,0,0,0,1.766-4.243,29.4,29.4,0,0,0-2.106,4.088c-.254.57-.5,1.109-.737,1.629a1.239,1.239,0,0,0-.173.842.551.551,0,0,0,.335.347,1.568,1.568,0,0,0,.365.081A6.2,6.2,0,0,0,566.117,269.154Z" transform="translate(-504.531 -232.42)" fill="#263238"/>
          <path id="Path_20384" data-name="Path 20384" d="M564.635,288.73a16.726,16.726,0,0,0,8.809-1.58s-2.763,4.175-8.914,3.147Z" transform="translate(-504.733 -241.96)" fill="#eb996e"/>
          <path id="Path_20385" data-name="Path 20385" d="M572.689,260.005c.068.235.929.192,1.92.384s1.784.527,1.933.328c.068-.1-.056-.328-.365-.576a3.3,3.3,0,0,0-1.406-.619,3.209,3.209,0,0,0-1.53.068C572.881,259.72,572.664,259.894,572.689,260.005Z" transform="translate(-507.837 -231.423)" fill="#0091ff"/>
          <path id="Path_20386" data-name="Path 20386" d="M559.487,258.612c.174.2.917.056,1.8.111s1.611.248,1.8.062c.081-.093,0-.3-.334-.508a2.968,2.968,0,0,0-1.431-.421,2.9,2.9,0,0,0-1.462.285C559.53,258.321,559.412,258.513,559.487,258.612Z" transform="translate(-502.806 -230.81)" fill="#0091ff"/>
          <path id="Path_20387" data-name="Path 20387" d="M566.592,245.908A9.781,9.781,0,0,0,568.351,248l3.1,3.1a25.441,25.441,0,0,0,2.3,2.094,26.064,26.064,0,0,0,2.317,1.511c.824.5,1.239,1.784,2.069,2.28.186.111.787.043.985.186-.043,1.388-.062,5.8-.074,7.551,0,2.769-1.016,10.153-1.016,10.153h2.36a5.927,5.927,0,0,0,4.181-4.237,43.555,43.555,0,0,0,.39-5.488c.285-3.6-.415-7.242-.65-10.841a14.771,14.771,0,0,0-.706-4.3,11.584,11.584,0,0,0-3.828-4.764,15.735,15.735,0,0,0-6.25-3.258,8.827,8.827,0,0,0-6.814,1.065,1.444,1.444,0,0,0-.694.818C565.737,244.712,566.146,245.108,566.592,245.908ZM579.2,257.2C579.285,257.368,579.2,257.82,579.2,257.2Z" transform="translate(-505.265 -224.672)" fill="#0091ff"/>
          <path id="Path_20388" data-name="Path 20388" d="M586.424,268.408a1.809,1.809,0,0,1,2.75-1.344,2.44,2.44,0,0,1,.873,2.558c-.421,3.717-4.064,2.534-4.057,2.428S586.238,269.944,586.424,268.408Z" transform="translate(-512.9 -234.214)" fill="#ffbe9d"/>
          <path id="Path_20389" data-name="Path 20389" d="M588.076,271.447a1.125,1.125,0,0,0,.161.112.619.619,0,0,0,.483.068,1.617,1.617,0,0,0,.9-1.357,2.166,2.166,0,0,0-.081-.948.743.743,0,0,0-.427-.551.334.334,0,0,0-.4.136c-.062.1-.05.173-.068.18s-.074-.074,0-.223a.4.4,0,0,1,.174-.217.477.477,0,0,1,.365-.056.929.929,0,0,1,.62.657,2.211,2.211,0,0,1,.105,1.059,1.685,1.685,0,0,1-1.121,1.5.681.681,0,0,1-.582-.167C588.07,271.54,588.057,271.453,588.076,271.447Z" transform="translate(-513.691 -234.892)" fill="#eb996e"/>
          <path id="Path_20390" data-name="Path 20390" d="M589.025,275.519a.731.731,0,1,1-.179-.532A.737.737,0,0,1,589.025,275.519Z" transform="translate(-513.494 -237.237)" fill="#263238"/>
          <path id="Path_20391" data-name="Path 20391" d="M569.4,276.214a1.7,1.7,0,0,1-1.041,2.589,1.022,1.022,0,0,1-.62-.031,1.437,1.437,0,0,1-.619-.935c-.093-.3-.192-.619-.291-.911a.434.434,0,0,1,0-.316.409.409,0,0,1,.3-.149l2.236-.372" transform="translate(-505.598 -237.752)" fill="#eb996e"/>
          <path id="Path_20392" data-name="Path 20392" d="M567.672,278.549a2.044,2.044,0,0,0,1.01-.056,1.574,1.574,0,0,0,.929-.65,1.182,1.182,0,0,0,.18-.669,2.085,2.085,0,0,0-.124-.719,1.858,1.858,0,0,0-.372-.619l-.056-.056h-.074c-1.493.409-2.651.619-2.645.65a8.7,8.7,0,0,0,2.713-.4l-.13-.037a1.7,1.7,0,0,1,.316.52,1.239,1.239,0,0,1-.793,1.765C568.056,278.5,567.666,278.5,567.672,278.549Z" transform="translate(-505.491 -237.634)" fill="#263238"/>
          <path id="Path_20393" data-name="Path 20393" d="M575.31,249.558a21.925,21.925,0,0,1,5.835,6.226l-2.007,3.413c-3.413-.322-3.816-.669-6.195-3.1s-7.186-7.31-7.434-10.729A33.412,33.412,0,0,1,575.31,249.558Z" transform="translate(-505.106 -226.061)" fill="#0091ff"/>
          <path id="Path_20394" data-name="Path 20394" d="M582.134,276.1a2.353,2.353,0,0,1,.167-.353c.118-.229.285-.57.5-1a26.189,26.189,0,0,0,1.468-3.841,24.983,24.983,0,0,0,.979-6,16.335,16.335,0,0,0-.186-3.574,6.287,6.287,0,0,0-1.648-3.351,12.024,12.024,0,0,0-3.209-2.063,24.829,24.829,0,0,1-3.159-1.79,23.364,23.364,0,0,1-4.553-4.113,26.4,26.4,0,0,1-2.428-3.351c-.254-.415-.446-.743-.564-.973a1.592,1.592,0,0,1-.167-.353,2.581,2.581,0,0,1,.223.322c.13.223.335.539.619.948a30.261,30.261,0,0,0,2.478,3.271,23.906,23.906,0,0,0,4.553,4.02,24.645,24.645,0,0,0,3.1,1.765,12.056,12.056,0,0,1,3.3,2.112,6.486,6.486,0,0,1,1.716,3.506,16.553,16.553,0,0,1,.18,3.636,24.623,24.623,0,0,1-1.053,6.04,23.328,23.328,0,0,1-1.561,3.835c-.229.434-.415.762-.551.979A1.4,1.4,0,0,1,582.134,276.1Z" transform="translate(-506.56 -226.05)" fill="#fff"/>
          <path id="Path_20395" data-name="Path 20395" d="M585.177,256.086a6.281,6.281,0,0,0-1.183-2.589,8.722,8.722,0,0,0-2.329-2.038,32.157,32.157,0,0,0-3.432-1.734,23.2,23.2,0,0,1-5.91-3.816,20.946,20.946,0,0,1-1.524-1.5,3.668,3.668,0,0,1-.489-.619,5.61,5.61,0,0,1,.576.533c.359.347.886.849,1.573,1.425a25.208,25.208,0,0,0,5.9,3.717,28.452,28.452,0,0,1,3.45,1.772,8.6,8.6,0,0,1,2.354,2.143,5.376,5.376,0,0,1,.923,1.933,3.052,3.052,0,0,1,.093.576Q585.2,256.086,585.177,256.086Z" transform="translate(-506.933 -225.46)" fill="#fff"/>
          <path id="Path_20396" data-name="Path 20396" d="M552.912,271.91a.966.966,0,0,1,0-.316v-.9c0-.787.074-1.92.142-3.32.155-2.806.39-6.684.973-10.933a29.042,29.042,0,0,1,1.289-5.916,10.848,10.848,0,0,1,2.6-4.2,7.515,7.515,0,0,1,2.812-1.79,4.891,4.891,0,0,1,.88-.223,1.319,1.319,0,0,1,.316-.037,7.994,7.994,0,0,0-3.865,2.193,11.031,11.031,0,0,0-2.478,4.15,29.918,29.918,0,0,0-1.239,5.866c-.582,4.231-.849,8.1-1.053,10.9-.1,1.369-.18,2.478-.242,3.314-.031.366-.056.663-.074.9A1.677,1.677,0,0,1,552.912,271.91Z" transform="translate(-500.307 -225.643)" fill="#fff"/>
          <path id="Path_20397" data-name="Path 20397" d="M536.742,309.624s.675-5.364,3.258-8.053,13.4-6.034,13.4-6.034.446,3.822,3.035,4.745a6.994,6.994,0,0,0,7.867-1.722,12.562,12.562,0,0,0,2.509-5.16s12.916,1.189,15.022,4.733,4.832,17.264,4.832,17.264l-12.073,2.558.774,11.15-29.678.173-.917-9.849-8.741,1.239Z" transform="translate(-493.888 -244.339)" fill="#455a64"/>
          <path id="Path_20398" data-name="Path 20398" d="M594.381,325.991a1.814,1.814,0,0,1-.043-.533v-1.45c0-1.239,0-2.918.062-4.788s.087-3.562.136-4.788c0-.619.056-1.1.074-1.449a2.036,2.036,0,0,1,.068-.533,2.183,2.183,0,0,1,.043.533v1.456c0,1.239,0,2.918-.056,4.788s-.093,3.562-.142,4.788c0,.619-.049,1.1-.074,1.45a2.156,2.156,0,0,1-.068.527Z" transform="translate(-516.075 -251.588)" fill="#263238"/>
          <path id="Path_20399" data-name="Path 20399" d="M545.326,318.6c.074,0,.83,2.379,1.685,5.358s1.493,5.408,1.419,5.427a55.163,55.163,0,0,1-1.685-5.352C545.89,321.053,545.252,318.625,545.326,318.6Z" transform="translate(-497.423 -253.928)" fill="#263238"/>
          <path id="Path_20400" data-name="Path 20400" d="M603.146,299.662c0,.05-.576.161-1.456.5a10.575,10.575,0,0,0-3.135,1.858,10.433,10.433,0,0,0-2.3,2.843c-.458.824-.619,1.388-.687,1.369a1.182,1.182,0,0,1,.087-.409,6.92,6.92,0,0,1,.427-1.053,9.558,9.558,0,0,1,5.538-4.819,6.2,6.2,0,0,1,1.1-.273A1.239,1.239,0,0,1,603.146,299.662Z" transform="translate(-516.545 -246.717)" fill="#263238"/>
          <path id="Path_20401" data-name="Path 20401" d="M542.1,308.335a11.572,11.572,0,0,1,.842,3.376,11.033,11.033,0,0,1-.867-3.4Z" transform="translate(-496.19 -250.012)" fill="#263238"/>
          <path id="Path_20402" data-name="Path 20402" d="M576.012,312.446c0,.093-6.851,1.016-15.319,2.069s-15.35,1.858-15.363,1.741,6.851-1.01,15.325-2.063S576,312.359,576.012,312.446Z" transform="translate(-497.427 -251.584)" fill="#fff"/>
          <path id="Path_20403" data-name="Path 20403" d="M606.515,311.8a103.11,103.11,0,0,1-11.355,2.812,52.937,52.937,0,0,1,5.637-1.561A53.769,53.769,0,0,1,606.515,311.8Z" transform="translate(-516.389 -251.341)" fill="#fff"/>
          <path id="Path_20404" data-name="Path 20404" d="M608.493,323.854c0,.087-2.936.793-6.6,1.58a60.086,60.086,0,0,1-6.665,1.239,64.651,64.651,0,0,1,6.6-1.573C605.488,324.319,608.474,323.768,608.493,323.854Z" transform="translate(-516.416 -255.924)" fill="#fff"/>
          <path id="Path_20405" data-name="Path 20405" d="M556.087,301.045c0,.087-2.819.886-6.343,1.79s-6.405,1.567-6.424,1.481,2.819-.886,6.343-1.79S556.068,300.959,556.087,301.045Z" transform="translate(-496.662 -247.245)" fill="#fff"/>
          <path id="Path_20406" data-name="Path 20406" d="M577.207,330.68c0,.087-6.139.527-13.721.973s-13.74.743-13.746.657,6.139-.527,13.727-.979S577.2,330.594,577.207,330.68Z" transform="translate(-499.105 -258.519)" fill="#fff"/>
          <path id="Path_20407" data-name="Path 20407" d="M538.72,324.127a11.273,11.273,0,0,1,2.41-.415,11.108,11.108,0,0,1,2.428-.2,13.713,13.713,0,0,1-4.838.62Z" transform="translate(-494.912 -255.794)" fill="#fff"/>
          <path id="Path_20408" data-name="Path 20408" d="M578.746,345.367a5.893,5.893,0,0,1-.935.1l-2.552.167-8.418.564-8.412.657-2.552.2a5.9,5.9,0,0,1-.935.037,4.66,4.66,0,0,1,.923-.161c.62-.081,1.468-.186,2.54-.3,2.15-.229,5.123-.514,8.412-.75s6.269-.39,8.431-.465c1.078-.043,1.951-.062,2.558-.068a4.855,4.855,0,0,1,.942.025Z" transform="translate(-501.084 -264.1)" fill="#fff"/>
          <path id="Path_20409" data-name="Path 20409" d="M541.334,329.54l-4.125.533L533.306,320,527,322.571s3.562,12.055,4.918,16.818h12.817Z" transform="translate(-490.452 -254.461)" fill="#ffbe9d"/>
          <path id="Path_20410" data-name="Path 20410" d="M548.095,343.587a23.808,23.808,0,0,1-2.125-2.6,18.9,18.9,0,0,1-1.369-2.372c-.341-.706-.576-1.295-.731-1.7a4.168,4.168,0,0,0-.26-.619,2.755,2.755,0,0,0,.155.663,15.6,15.6,0,0,0,.657,1.753,16.739,16.739,0,0,0,1.338,2.434,21.448,21.448,0,0,0,2.131,2.645,11.658,11.658,0,0,1,1.536,1.8h.322A12.19,12.19,0,0,0,548.095,343.587Z" transform="translate(-496.772 -260.66)" fill="#eb996e"/>
          <path id="Path_20411" data-name="Path 20411" d="M527.444,309.871a37.085,37.085,0,0,0-.359-5.643l-3.1-6.944s-.805-.5-1.183.892a3.594,3.594,0,0,0,.83,2.812l.093,1.815-1.239-1.022-2.422-4.541s-1.666-3.3-2.1-2.781-.291,1.592.427,3.017l1.635,3.234s.242.576-.62-.26-2.719-4.869-3.1-5.371-.917-1.982-1.753-1.648.235,2.106.235,2.106l2.676,5.984s-1.549-2.267-1.858-2.645-.923-1.685-1.431-2.342-1.059-.917-1.425-.762a.737.737,0,0,0-.465.911l2.849,4.956s1.431,2.224,1.425,2.391-1.239-.737-1.239-.737l-1.2-1.524s-1.289-2.28-1.97-2.156-.557.619-.557.619l2.4,4.157,3.488,4.479,3.717,3.717,2.15-.694Z" transform="translate(-484.59 -244.332)" fill="#ffbe9d"/>
          <path id="Path_20412" data-name="Path 20412" d="M526.077,313.879a9.473,9.473,0,0,0,.223-1.388,4.387,4.387,0,0,1,1.431-2.85,2.385,2.385,0,0,1,1.45-.551h.173V308.9c-.049-.855,0-1.666-.049-2.205a2.008,2.008,0,0,0-.124-.873,4.563,4.563,0,0,0-.081.867,22.327,22.327,0,0,0-.074,2.261l.167-.192a2.627,2.627,0,0,0-1.673.619,3.635,3.635,0,0,0-1.127,1.573,5.869,5.869,0,0,0-.335,1.524,4.091,4.091,0,0,0,.019,1.406Z" transform="translate(-490.074 -249.065)" fill="#eb996e"/>
          <path id="Path_20413" data-name="Path 20413" d="M594.888,332.02l-2.3,11.051h10.785c.409-1.573,2.664-13.411,2.664-13.411Z" transform="translate(-515.411 -258.137)" fill="#ffbe9d"/>
        </g>
        <g id="freepik--character-3--inject-6" transform="translate(252.96 33.87)">
          <rect id="Rectangle_1210" data-name="Rectangle 1210" width="103.754" height="99.727" transform="translate(0.161)" fill="#fff"/>
          <rect id="Rectangle_1211" data-name="Rectangle 1211" width="103.754" height="7.471" transform="translate(0.161)" fill="#f5f5f5"/>
          <path id="Path_20414" data-name="Path 20414" d="M492.5,169.28H388.77v15.846h5.408v14.787L407.8,185.126h84.7Z" transform="translate(-388.584 -85.399)" fill="#ebebeb"/>
          <path id="Path_20415" data-name="Path 20415" d="M492.4,117.908v15.846c-.124.124-.043.037-.08.062H480.739l-73.041.056.1-.043L394.169,148.62l-.254.273v-15.14l.149.155h-5.513l-.05-.062h0l-.031-.037V33.89H492.515v.13c0,25.615-.043,46.584-.056,61.153,0,7.279,0,12.959-.037,16.825V95.173c0-14.57-.037-35.539-.056-61.153l.124.124-103.754.037.161-.161v99.733l-.031-.087h0l-.118-.062h5.575V148.54l-.248-.1c4.739-5.135,9.329-10.122,13.628-14.78l.037-.043h.062l73.041.062h11.64s.074-.062-.043.056V119.71C492.44,118.5,492.4,117.908,492.4,117.908Z" transform="translate(-388.47 -33.878)" fill="#263238"/>
          <path id="Path_20416" data-name="Path 20416" d="M410.7,39.48a1.4,1.4,0,1,1-1.4-1.4A1.4,1.4,0,0,1,410.7,39.48Z" transform="translate(-395.864 -35.472)" fill="#fff"/>
          <path id="Path_20417" data-name="Path 20417" d="M397.04,39.48a1.394,1.394,0,1,1-.406-.99A1.4,1.4,0,0,1,397.04,39.48Z" transform="translate(-390.666 -35.472)" fill="#fff"/>
          <path id="Path_20418" data-name="Path 20418" d="M403.87,39.48a1.4,1.4,0,1,1-1.4-1.4A1.4,1.4,0,0,1,403.87,39.48Z" transform="translate(-393.265 -35.472)" fill="#fff"/>
          <path id="Path_20419" data-name="Path 20419" d="M535.9,65.987h0a6.579,6.579,0,0,1-6.572-6.579h0A6.572,6.572,0,0,1,535.9,52.83h0a6.572,6.572,0,0,1,6.579,6.579h0A6.579,6.579,0,0,1,535.9,65.987Z" transform="translate(-442.073 -41.085)" fill="#ebebeb"/>
          <path id="Path_20420" data-name="Path 20420" d="M538.238,62.273a1.061,1.061,0,1,0-.632-.012,1.858,1.858,0,0,0-1.536,1.809h3.673A1.821,1.821,0,0,0,538.238,62.273Z" transform="translate(-444.637 -43.899)" fill="#263238"/>
          <path id="Path_20421" data-name="Path 20421" d="M542.793,62.771a.155.155,0,0,1-.155-.149V60.956a.155.155,0,1,1,.3,0v1.685A.149.149,0,0,1,542.793,62.771Z" transform="translate(-447.136 -44.107)" fill="#263238"/>
          <path id="Path_20422" data-name="Path 20422" d="M543.095,62.482h-1.679a.155.155,0,1,1,0-.3h1.679a.155.155,0,1,1,0,.3Z" transform="translate(-446.601 -44.641)" fill="#263238"/>
          <circle id="Ellipse_67" data-name="Ellipse 67" cx="4.925" cy="4.925" r="4.925" transform="translate(64.863 95.457) rotate(-80.76)" fill="#0091ff"/>
          <rect id="Rectangle_1212" data-name="Rectangle 1212" width="2.459" height="2.459" rx="1.23" transform="translate(68.754 90.268)" fill="#fff"/>
          <path id="Path_20423" data-name="Path 20423" d="M503.78,181.331v-.836l.62-.663a.13.13,0,0,1,.229.087v1.9a.13.13,0,0,1-.223.1Z" transform="translate(-432.35 -89.397)" fill="#fff"/>
          <path id="Path_20424" data-name="Path 20424" d="M471.947,181.957a4.857,4.857,0,1,1,6.87,0A4.857,4.857,0,0,1,471.947,181.957Z" transform="translate(-419.695 -87.068)" fill="#0091ff"/>
          <path id="Path_20425" data-name="Path 20425" d="M474.7,181.765l.867-.2a.235.235,0,0,0,.18-.229v-.18s-.037-.3.248-.322,1.511,0,1.511,0,.341,0,.335.266v.26a.2.2,0,0,0,.143.192l.942.285a.2.2,0,0,0,.248-.118l.118-.291a.364.364,0,0,0,.031-.167.818.818,0,0,0-.161-.434,3.569,3.569,0,0,0-2.738-.719c-1.673.081-1.945.75-2.032.911a.65.65,0,0,0-.031.446.791.791,0,0,0,.068.167A.229.229,0,0,0,474.7,181.765Z" transform="translate(-421.146 -89.515)" fill="#fff"/>
          <circle id="Ellipse_68" data-name="Ellipse 68" cx="4.881" cy="4.881" r="4.881" transform="matrix(0.231, -0.973, 0.973, 0.231, 34.986, 95.057)" fill="#0091ff"/>
          <path id="Path_20426" data-name="Path 20426" d="M451.619,181.646a.483.483,0,1,1,.477-.483.483.483,0,0,1-.477.483Z" transform="translate(-412.315 -89.737)" fill="#fff"/>
          <path id="Path_20427" data-name="Path 20427" d="M454.033,181.646a.483.483,0,1,1,.483-.483A.483.483,0,0,1,454.033,181.646Z" transform="translate(-413.235 -89.737)" fill="#fff"/>
          <path id="Path_20428" data-name="Path 20428" d="M456.623,181.646a.483.483,0,1,1,.483-.483A.483.483,0,0,1,456.623,181.646Z" transform="translate(-414.221 -89.737)" fill="#fff"/>
          <circle id="Ellipse_69" data-name="Ellipse 69" cx="3.159" cy="3.159" r="3.159" transform="translate(4.98 14.768)" fill="#455a64"/>
          <path id="Path_20429" data-name="Path 20429" d="M422.529,61.889a54.4,54.4,0,0,1-5.872.161,54.233,54.233,0,0,1-5.866-.161,107.037,107.037,0,0,1,11.739,0Z" transform="translate(-396.964 -44.464)" fill="#455a64"/>
          <path id="Path_20430" data-name="Path 20430" d="M439.746,69.154c.948-1.2,2.119-2.354,2.366-3.859.223-1.381-.384-2.9.235-4.163.762-1.549,2.961-1.858,3.915-3.289.458-.694.57-1.58,1.028-2.28a4.151,4.151,0,0,1,3.791-1.5c1.425.081,2.806.527,4.231.551,1.957.043,3.934-.688,5.835-.223,2.094.52,3.444,2.286,4.869,3.983l1.858,1.964a7.739,7.739,0,0,0,1.239.892,14.028,14.028,0,0,1,2.28,1.307,3.444,3.444,0,0,1,0,4.956,3.717,3.717,0,0,1,2.664,3.494,10.693,10.693,0,0,1-.545,2.54,3.648,3.648,0,0,0,.05,2.54,1.621,1.621,0,0,0,2.162.811,3.878,3.878,0,0,1-1.988,2.688,2.335,2.335,0,0,0,1.592.619c-1.4,3.785-5.606,5.941-9.639,6.151s-7.96-1.127-11.77-2.478L442.93,81.549c-.966-.167-1.419-1.313-1.45-2.292a7.706,7.706,0,0,0-.229-2.905c-.533-1.239-2.026-1.821-2.583-3.042C438.005,71.985,438.779,70.349,439.746,69.154Z" transform="translate(-407.478 -41.551)" fill="#263238"/>
          <path id="Path_20431" data-name="Path 20431" d="M481.495,81.49a44.6,44.6,0,0,0,1.561-7.57,15.685,15.685,0,0,0-1-7.576c-.155-.359-1.443-2.75-1.827-2.695-.279.043.558,2.3.427,2.546a13.244,13.244,0,0,0-1.09,7.8,34.693,34.693,0,0,0,1.933,7.514" transform="translate(-423.067 -45.202)" fill="#263238"/>
          <path id="Path_20432" data-name="Path 20432" d="M469.219,69.5c-.118-6.467-3.989-11.77-10.45-11.485l-.619.062A11.565,11.565,0,0,0,447.8,69.845c.136,5.575.359,11.77.712,14.774.725,6.195,7.006,6.473,7.006,6.473l.335,4.993,14.867-1.053Z" transform="translate(-411.045 -43.053)" fill="#b28f83"/>
          <path id="Path_20433" data-name="Path 20433" d="M460.3,109.461a14.978,14.978,0,0,0,7.787-3.221s-1.456,4.7-7.675,4.788Z" transform="translate(-415.804 -61.41)" fill="#826a63"/>
          <path id="Path_20434" data-name="Path 20434" d="M451.64,85.136a.886.886,0,0,0,.942.824.849.849,0,0,0,.83-.886.892.892,0,0,0-.948-.805A.849.849,0,0,0,451.64,85.136Z" transform="translate(-412.508 -53.048)" fill="#263238"/>
          <path id="Path_20435" data-name="Path 20435" d="M450.4,80.362c.118.105.737-.458,1.685-.558s1.691.3,1.784.18-.087-.254-.415-.446a2.429,2.429,0,0,0-1.443-.279,2.3,2.3,0,0,0-1.326.619C450.416,80.1,450.336,80.332,450.4,80.362Z" transform="translate(-412.028 -51.136)" fill="#263238"/>
          <path id="Path_20436" data-name="Path 20436" d="M465.449,84.314a.886.886,0,0,0,.942.805.849.849,0,0,0,.824-.892.88.88,0,0,0-.942-.8.842.842,0,0,0-.824.886Z" transform="translate(-417.763 -52.728)" fill="#263238"/>
          <path id="Path_20437" data-name="Path 20437" d="M465.459,79.4c.124.105.737-.458,1.685-.558s1.7.3,1.79.173-.087-.248-.415-.44a2.478,2.478,0,0,0-1.443-.285,2.4,2.4,0,0,0-1.332.619C465.478,79.134,465.4,79.344,465.459,79.4Z" transform="translate(-417.761 -50.769)" fill="#263238"/>
          <path id="Path_20438" data-name="Path 20438" d="M459.7,87.554a6.355,6.355,0,0,0-1.573-.118c-.242,0-.477,0-.533-.186a1.2,1.2,0,0,1,.087-.731c.161-.619.335-1.239.52-1.92a30.964,30.964,0,0,0,1.1-5,31.388,31.388,0,0,0-1.5,4.9c-.167.669-.334,1.313-.489,1.927a1.406,1.406,0,0,0,0,.96.62.62,0,0,0,.434.316,1.642,1.642,0,0,0,.421,0,6.2,6.2,0,0,0,1.536-.149Z" transform="translate(-414.633 -51.272)" fill="#263238"/>
          <path id="Path_20439" data-name="Path 20439" d="M464.147,93c-.155,0-.05,1.041-.855,1.858s-1.914.824-1.9.966.26.173.725.142a2.614,2.614,0,0,0,1.6-.756,2.261,2.261,0,0,0,.65-1.555C464.357,93.242,464.246,93,464.147,93Z" transform="translate(-416.219 -56.371)" fill="#263238"/>
          <path id="Path_20440" data-name="Path 20440" d="M464.9,73.32c.124.248,1.053,0,2.181.043s2.063.223,2.187,0c.049-.118-.13-.341-.52-.551a3.766,3.766,0,0,0-3.327,0C465.025,72.979,464.846,73.2,464.9,73.32Z" transform="translate(-417.55 -48.542)" fill="#263238"/>
          <path id="Path_20441" data-name="Path 20441" d="M450.48,75.179c.192.2.824-.1,1.6-.192s1.468,0,1.6-.248c.056-.118-.074-.322-.384-.5a2.329,2.329,0,0,0-2.577.353C450.468,74.845,450.4,75.08,450.48,75.179Z" transform="translate(-412.055 -49.143)" fill="#263238"/>
          <path id="Path_20442" data-name="Path 20442" d="M482.35,83.779c.1-.056,4.107-1.7,4.417,2.534s-4.014,3.661-4.014,3.568S482.35,83.779,482.35,83.779Z" transform="translate(-424.195 -52.726)" fill="#b28f83"/>
          <path id="Path_20443" data-name="Path 20443" d="M484.888,89.007a1.122,1.122,0,0,0,.2.1.756.756,0,0,0,.551-.031,1.815,1.815,0,0,0,.725-1.7,2.4,2.4,0,0,0-.285-1.041.83.83,0,0,0-.619-.527.378.378,0,0,0-.421.229c-.043.124,0,.211-.037.217s-.093-.062-.074-.242a.477.477,0,0,1,.149-.279.57.57,0,0,1,.4-.136,1.041,1.041,0,0,1,.818.619,2.479,2.479,0,0,1,.341,1.158,1.914,1.914,0,0,1-.942,1.908.781.781,0,0,1-.681-.062C484.9,89.112,484.876,89.019,484.888,89.007Z" transform="translate(-425.16 -53.555)" fill="#826a63"/>
          <path id="Path_20444" data-name="Path 20444" d="M451.446,62.171c-.712-.335,1.2-2.688,2.837-3.562,2.478-1.319,6.318-2.28,8.71-1.765a10.21,10.21,0,0,1,6.9,4.336,16.725,16.725,0,0,1,2.422,8.388,5.048,5.048,0,0,1-.434,2.627c-.533.979-1.629,1.642-1.493,2.93a1.791,1.791,0,0,1-.359,1.319c-.725.873-1.722.161-2.205-.588a12.255,12.255,0,0,1-1.474-5.47,12.484,12.484,0,0,1,0-4.045c.161-.719.452-1.406.576-2.137a2.54,2.54,0,0,0-.434-2.094,2.686,2.686,0,0,0-.372-.328,4.423,4.423,0,0,0-4.435-.551c-2.329,1-6.325,2.521-7.434,1.778a6.515,6.515,0,0,1-2.026-1.784Z" transform="translate(-412.376 -42.559)" fill="#263238"/>
          <path id="Path_20445" data-name="Path 20445" d="M463.873,55.784a9.335,9.335,0,0,0-7.13.855,4.813,4.813,0,0,0-2.373,2.98,2.775,2.775,0,0,0,1.6,3.209l.087.05a6.459,6.459,0,0,0,4.77-.57c1.481-.619,2.769-1.642,4.256-2.255a8.579,8.579,0,0,1,5.03-.471,14.117,14.117,0,0,0-6.238-3.8Z" transform="translate(-413.517 -42.075)" fill="#263238"/>
          <path id="Path_20446" data-name="Path 20446" d="M481.849,84.134h-.427a2.162,2.162,0,0,1-1.134-.4,2.744,2.744,0,0,1-1.078-1.536,5.141,5.141,0,0,1,.05-2.54c.211-.929.619-1.914.849-3.048a5.407,5.407,0,0,0,.093-1.8,3.37,3.37,0,0,0-.731-1.778,4.088,4.088,0,0,0-1.7-1.078,10.047,10.047,0,0,1-1.858-.793,5.99,5.99,0,0,1-2.348-3.37c-.458-1.381-.619-2.819-1.022-4.175a7.674,7.674,0,0,0-1.889-3.574,5.086,5.086,0,0,0-3.388-1.344,6.672,6.672,0,0,0-3.1.688,9.843,9.843,0,0,0-3.432,3.029c-.322.44-.545.8-.694,1.041a2.066,2.066,0,0,0-.2.384,2.607,2.607,0,0,0,.254-.347c.167-.235.4-.582.737-1a10.029,10.029,0,0,1,3.444-2.905,6.442,6.442,0,0,1,3.011-.619,4.838,4.838,0,0,1,3.184,1.282,7.353,7.353,0,0,1,1.8,3.45c.372,1.326.551,2.769,1.022,4.194a6.269,6.269,0,0,0,2.478,3.537,10.681,10.681,0,0,0,1.908.811,3.847,3.847,0,0,1,1.592.991,3.141,3.141,0,0,1,.675,1.629,5.254,5.254,0,0,1-.074,1.71c-.217,1.1-.62,2.094-.812,3.054a5.3,5.3,0,0,0,0,2.627,2.824,2.824,0,0,0,1.177,1.592,2.1,2.1,0,0,0,1.2.365,1.091,1.091,0,0,0,.415-.074Z" transform="translate(-415.629 -43.318)" fill="#455a64"/>
          <path id="Path_20447" data-name="Path 20447" d="M459.72,55.991a2.6,2.6,0,0,0-1.289.192,4.912,4.912,0,0,0-3.345,4.906,2.74,2.74,0,0,0,.285,1.239c.056,0-.081-.489-.068-1.239a5.092,5.092,0,0,1,3.2-4.7A5.01,5.01,0,0,1,459.72,55.991Z" transform="translate(-413.818 -42.283)" fill="#455a64"/>
          <path id="Path_20448" data-name="Path 20448" d="M448.575,62.81a3,3,0,0,0,.186,3.042c.081-.037-.155-.688-.2-1.518S448.662,62.835,448.575,62.81Z" transform="translate(-411.209 -44.883)" fill="#455a64"/>
          <path id="Path_20449" data-name="Path 20449" d="M479.932,119.241l-15.425-4.881-13.845,2.682L434.29,126l7.514,22.381h37.973l-.787-21.9Z" transform="translate(-405.906 -64.5)" fill="#0091ff"/>
          <path id="Path_20450" data-name="Path 20450" d="M460.117,116.985v-2.41L475.5,112.32l-.161,4.665-15.524,1.666Z" transform="translate(-415.621 -63.723)" fill="#0091ff"/>
          <path id="Path_20451" data-name="Path 20451" d="M515.019,127.333c-2.205-5.352-9.36-5.773-9.831-5.773l-1.028,4.194,1.908,21.4.911,3.965h16.6C520.985,142.64,516.45,130.8,515.019,127.333Z" transform="translate(-432.495 -67.239)" fill="#0091ff"/>
          <path id="Path_20452" data-name="Path 20452" d="M432.277,133.15s-2.013,2.125-2.311,7.892S429,155.525,429,155.525h12.141l.8-8.573Z" transform="translate(-403.893 -71.65)" fill="#0091ff"/>
          <path id="Path_20453" data-name="Path 20453" d="M444.345,161.469c-.081.031-1.115-2.664-2.311-6.009a63.836,63.836,0,0,1-2.007-6.12,63.755,63.755,0,0,1,2.317,6.009A63.269,63.269,0,0,1,444.345,161.469Z" transform="translate(-408.087 -77.811)" fill="#263238"/>
          <path id="Path_20454" data-name="Path 20454" d="M506.519,135c.087,0,.335,4.7.545,10.531s.316,10.531.223,10.531-.334-4.7-.545-10.531S506.426,135,506.519,135Z" transform="translate(-433.379 -72.354)" fill="#263238"/>
        </g>
        <g id="freepik--character-2--inject-6" transform="translate(192.537 93.633)">
          <path id="Path_20455" data-name="Path 20455" d="M315.3,461.014h-5.544L307.7,436.05h6.529Z" transform="translate(-297.31 -246.678)" fill="#263238"/>
          <path id="Path_20456" data-name="Path 20456" d="M397.56,461.014h5.55l2.057-24.964h-6.535Z" transform="translate(-331.505 -246.678)" fill="#263238"/>
          <path id="Path_20457" data-name="Path 20457" d="M370.8,408.747l-71.387,1.679-2.174-46.107a7.923,7.923,0,0,1,7.9-8.319h60.819a7.923,7.923,0,0,1,7.942,8.493Z" transform="translate(-293.328 -216.215)" fill="#455a64"/>
          <path id="Path_20458" data-name="Path 20458" d="M374.462,369.019h-3.035l-8.276.031c-6.987,0-16.639-.068-27.293.18-10.661.353-20.325.291-27.312.186-3.494-.056-6.318-.124-8.27-.18l-2.249-.074-.589-.031h-.2a.737.737,0,0,1,.2,0h2.831l8.276.081c6.987.043,16.639.068,27.293-.285,10.667-.248,20.318-.13,27.306-.087l8.276.074h2.831a.737.737,0,0,1,.2.105Z" transform="translate(-293.33 -221.076)" fill="#263238"/>
          <path id="Path_20459" data-name="Path 20459" d="M334.07,357.182a16.38,16.38,0,0,0-4.634,1.388,16.682,16.682,0,0,0-3.847,2.936,4.187,4.187,0,0,1,.88-1.146,10.809,10.809,0,0,1,6.151-3.141A4.213,4.213,0,0,1,334.07,357.182Z" transform="translate(-304.118 -216.648)" fill="#263238"/>
          <g id="Group_763" data-name="Group 763" transform="translate(20.797 137.968)" opacity="0.3">
            <path id="Path_20460" data-name="Path 20460" d="M324.5,354.884c2.112,2.36,5.575,3.395,8.7,3.872a53.536,53.536,0,0,0,17.041.359c3.605-.619,7.173-1.809,10.822-1.555s7.483,2.013,11.082.991a7.551,7.551,0,0,0,4.559-3.68c.3-.564.489-1.35,0-1.765-.248-.211-.787.514-1.109.489-16.911-1.289-34.176,2.478-51.1,1.288" transform="translate(-324.5 -353.068)"/>
          </g>
          <g id="Group_764" data-name="Group 764" transform="translate(64.278 150.891)" opacity="0.3">
            <path id="Path_20461" data-name="Path 20461" d="M394.759,373.93a5.1,5.1,0,0,0,1.567,4.336,17.6,17.6,0,0,0,3.921,2.719,16.907,16.907,0,0,1,6.021,5.086c2.726,4.237,1.716,9.794,2.868,14.694,0,0,.966-21.155.762-20.622" transform="translate(-394.692 -373.93)"/>
          </g>
          <path id="Path_20462" data-name="Path 20462" d="M347.72,147.57a11.076,11.076,0,0,1,2.992,9.806c-.334,1.7-1.041,3.593-.08,5.03s3.1,1.642,4.02,3.1c1.059,1.716-.254,3.927-.043,5.928a4,4,0,0,0,3.865,3.438,15.573,15.573,0,0,1-8.053,2.422l-1.821-3a2.839,2.839,0,0,1-.619,3.463,6.511,6.511,0,0,1-3.426,1.524,19.767,19.767,0,0,1-16.825-4.8" transform="translate(-304.932 -136.9)" fill="#263238"/>
          <path id="Path_20463" data-name="Path 20463" d="M304.89,152.351a36.078,36.078,0,0,0,1.889-3.717c.96-2.825-.068-6.263,1.648-8.672,1.239-1.747,3.463-2.4,5.575-2.788s4.336-.657,6-1.957c1.239-.96,2.038-2.379,3.265-3.345a9.387,9.387,0,0,1,6.349-1.5,13.4,13.4,0,0,1,6.511,1.858,7.31,7.31,0,0,1,3.481,5.575,22.153,22.153,0,0,0,0,3.333,23.211,23.211,0,0,0,1.481,3.345,5.866,5.866,0,0,1-2.273,6.814l-17.9,18.231c-3.407.849-11.15-1.573-13.374-4.274S303.416,155.529,304.89,152.351Z" transform="translate(-296.043 -130.345)" fill="#263238"/>
          <path id="Path_20464" data-name="Path 20464" d="M344.641,153.719c-.105-4.627-2.936-10.419-7.557-10.116l-14.52,3.048a2.719,2.719,0,0,0-2.534,2.651l.136,34.69h-.1s2.856,9.911,12.482,7.334c1.908-.508,2.856-2.534,3.314-4.634h.1a4.033,4.033,0,0,1,.043-.725,22.921,22.921,0,0,0,.26-4.757h0c.142-2.794.192-3.94.192-3.915s5.941-.743,7.471-8.388C344.691,165.154,344.753,158.867,344.641,153.719Z" transform="translate(-302.002 -135.386)" fill="#ffbe9d"/>
          <path id="Path_20465" data-name="Path 20465" d="M339.506,169.645a.985.985,0,0,1-.991.954.948.948,0,0,1-.985-.929.991.991,0,0,1,.991-.96.954.954,0,0,1,.985.935Z" transform="translate(-308.662 -144.944)" fill="#263238"/>
          <path id="Path_20466" data-name="Path 20466" d="M355.786,169.645a.985.985,0,0,1-.991.954.948.948,0,0,1-.985-.929.991.991,0,0,1,.991-.96.954.954,0,0,1,.985.935Z" transform="translate(-314.857 -144.944)" fill="#263238"/>
          <path id="Path_20467" data-name="Path 20467" d="M355.368,164.59c-.13.167-.973-.52-2.131-.489s-1.982.731-2.112.57.056-.372.415-.694a2.62,2.62,0,0,1,3.388-.068C355.293,164.219,355.424,164.516,355.368,164.59Z" transform="translate(-313.819 -142.894)" fill="#263238"/>
          <path id="Path_20468" data-name="Path 20468" d="M337.889,164.43c-.155.149-.973-.619-2.205-.7s-2.181.5-2.3.328.105-.359.52-.619a2.967,2.967,0,0,1,3.6.291C337.858,164.064,337.963,164.361,337.889,164.43Z" transform="translate(-307.069 -142.758)" fill="#263238"/>
          <path id="Path_20469" data-name="Path 20469" d="M346.1,172.287a6.964,6.964,0,0,1,1.741-.242c.273,0,.533-.062.582-.248a1.326,1.326,0,0,0-.149-.811c-.229-.663-.465-1.363-.719-2.094a35.347,35.347,0,0,1-1.58-5.482,35.463,35.463,0,0,1,2.019,5.34c.235.737.465,1.437.681,2.106a1.561,1.561,0,0,1,.1,1.072.675.675,0,0,1-.458.378,1.913,1.913,0,0,1-.465.05A7.432,7.432,0,0,1,346.1,172.287Z" transform="translate(-311.869 -142.927)" fill="#263238"/>
          <path id="Path_20470" data-name="Path 20470" d="M340.283,196.147A19.618,19.618,0,0,1,330.08,193s2.286,5.389,10.023,4.956Z" transform="translate(-305.827 -154.188)" fill="#eb996e"/>
          <path id="Path_20471" data-name="Path 20471" d="M343.33,181.358a1.92,1.92,0,0,0-1.685-.78,1.735,1.735,0,0,0-1.239.619,1.1,1.1,0,0,0-.136,1.239,1.289,1.289,0,0,0,1.375.409,4.027,4.027,0,0,0,1.394-.756,1.338,1.338,0,0,0,.316-.3.359.359,0,0,0,0-.4" transform="translate(-309.655 -149.458)" fill="#0091ff"/>
          <path id="Path_20472" data-name="Path 20472" d="M340.967,178.72c.173,0,.13,1.152,1.084,2.007s2.187.78,2.187.942-.285.217-.805.211a2.88,2.88,0,0,1-1.827-.725,2.527,2.527,0,0,1-.836-1.679C340.744,178.992,340.911,178.707,340.967,178.72Z" transform="translate(-309.893 -148.753)" fill="#263238"/>
          <path id="Path_20473" data-name="Path 20473" d="M338.208,158.969c-.118.285-1.171.105-2.422.211s-2.28.4-2.435.13c-.068-.13.118-.39.539-.657a4.033,4.033,0,0,1,1.821-.551,3.97,3.97,0,0,1,1.858.3C338.041,158.6,338.258,158.839,338.208,158.969Z" transform="translate(-307.066 -140.903)" fill="#263238"/>
          <path id="Path_20474" data-name="Path 20474" d="M354.374,159.407c-.223.229-1.047-.056-2.057-.105s-1.858.087-2.05-.173c-.081-.124.068-.365.446-.576a3.215,3.215,0,0,1,1.691-.328,3.141,3.141,0,0,1,1.617.551C354.368,159.035,354.473,159.32,354.374,159.407Z" transform="translate(-313.501 -140.95)" fill="#263238"/>
          <path id="Path_20475" data-name="Path 20475" d="M317.541,147.292a6.263,6.263,0,0,1,3.426-1.734,70.655,70.655,0,0,1,16.657-2.218,2.856,2.856,0,0,1-1.4,3.388,12.789,12.789,0,0,1-3.81,1.2,4.937,4.937,0,0,0-3.314,2.044c-.657,1.158-.415,2.837-1.053,4.113-1.09,2.187-4.367,2.546-5.445,4.745-.818,1.66-.031,3.618,0,5.47a6.61,6.61,0,0,1-7.322,6.709l1.177-19.823A6.557,6.557,0,0,1,317.541,147.292Z" transform="translate(-300.195 -135.29)" fill="#263238"/>
          <path id="Path_20476" data-name="Path 20476" d="M293.355,163.835c1.146-.805,2.54-1.456,3.1-2.738.83-1.858-.458-4.336.75-5.959,1.1-1.5,3.779-1.1,4.826-2.645.811-1.208.186-2.428.57-3.525a3.094,3.094,0,0,1,3.227-1.629l7.434,14.037c.322,4.454.886,6.87-.353,9.292a19.628,19.628,0,0,0-1.858,4.076,4.307,4.307,0,0,0,.9,4.181c-5.4-.211-10.091-3.605-14.409-6.864l-4.572-3.444a3.586,3.586,0,0,1-1.239-1.282C291.162,166.04,292.209,164.609,293.355,163.835Z" transform="translate(-291.173 -136.792)" fill="#263238"/>
          <path id="Path_20477" data-name="Path 20477" d="M301.22,165.926a2.6,2.6,0,0,0,.558.173,4.913,4.913,0,0,0,1.685.081,5.049,5.049,0,0,0,4.373-3.927,5.284,5.284,0,0,0,.068-2.075,8.436,8.436,0,0,0-.762-2.106,7.745,7.745,0,0,1-.781-2.187,2.676,2.676,0,0,1,.551-2.236c.564-.619,1.487-.619,2.366-.892a2.162,2.162,0,0,0,1.778-2.069,15.039,15.039,0,0,0-.285-2.862,3.1,3.1,0,0,1,.155-1.369,1.958,1.958,0,0,1,.9-1,5.414,5.414,0,0,1,2.8-.4,5.86,5.86,0,0,0,2.856-.489,5.2,5.2,0,0,0,2.125-1.821,8.833,8.833,0,0,0,1-2.478,12.165,12.165,0,0,1,.805-2.348,5.321,5.321,0,0,1,1.487-1.753,6.052,6.052,0,0,1,7.136-.155,7.315,7.315,0,0,1,1.858,1.809,9.8,9.8,0,0,1,1.059,1.982.415.415,0,0,0-.037-.149c-.031-.093-.062-.235-.136-.415a7.075,7.075,0,0,0-.787-1.487,7.471,7.471,0,0,0-1.858-1.889,6.238,6.238,0,0,0-7.4.1,5.686,5.686,0,0,0-1.567,1.858,12.08,12.08,0,0,0-.842,2.4,8.48,8.48,0,0,1-.973,2.4,4.888,4.888,0,0,1-2.013,1.71,5.575,5.575,0,0,1-2.713.458,5.575,5.575,0,0,0-2.955.44,2.224,2.224,0,0,0-1.041,1.152,3.439,3.439,0,0,0-.173,1.512,15.074,15.074,0,0,1,.285,2.806,2.118,2.118,0,0,1-.452,1.189,2.186,2.186,0,0,1-1.1.619c-.421.118-.867.186-1.3.31a2.6,2.6,0,0,0-1.2.663,2.973,2.973,0,0,0-.62,2.478,8.381,8.381,0,0,0,.824,2.261,8.338,8.338,0,0,1,.756,2.038,5.062,5.062,0,0,1-.043,1.982,4.956,4.956,0,0,1-1.79,2.856,5.024,5.024,0,0,1-2.385,1A5.872,5.872,0,0,1,301.22,165.926Z" transform="translate(-294.844 -132.002)" fill="#455a64"/>
          <path id="Path_20478" data-name="Path 20478" d="M291.245,155.417a1.115,1.115,0,0,0-.229.421,1.927,1.927,0,0,0,.074,1.35,2.131,2.131,0,0,0,.619.805,2.168,2.168,0,0,0,1.109.44,2.707,2.707,0,0,0,2.521-1.239,3.618,3.618,0,0,0,.576-1.592,5.018,5.018,0,0,0-.167-1.809c-.291-1.239-.929-2.434-.787-3.785a2.478,2.478,0,0,1,.836-1.772,2.726,2.726,0,0,1,2.019-.378,6.616,6.616,0,0,0,2.348.031,2.025,2.025,0,0,0,1.047-.688,2.918,2.918,0,0,0,.533-1.14,9.564,9.564,0,0,0,.087-2.4,5.191,5.191,0,0,1,.384-2.187,5.618,5.618,0,0,1,2.874-2.98,7.886,7.886,0,0,1,3.816-.409,11.281,11.281,0,0,0,3.45-.136,7.13,7.13,0,0,0,2.577-1.239,7.322,7.322,0,0,0,1.518-1.536,5.177,5.177,0,0,0,.836-1.623,10.187,10.187,0,0,1-.935,1.549,7.242,7.242,0,0,1-1.524,1.468,7.081,7.081,0,0,1-2.521,1.152,11.088,11.088,0,0,1-3.388.093,8.133,8.133,0,0,0-3.946.4,5.872,5.872,0,0,0-3.042,3.128,5.606,5.606,0,0,0-.415,2.311,9.119,9.119,0,0,1-.081,2.329,2,2,0,0,1-1.357,1.6,6.443,6.443,0,0,1-2.23-.043,3.035,3.035,0,0,0-2.236.452,2.812,2.812,0,0,0-.942,1.976,5.253,5.253,0,0,0,.26,2.057c.186.619.409,1.239.564,1.821a4.894,4.894,0,0,1,.18,1.722,3.438,3.438,0,0,1-.52,1.493,2.478,2.478,0,0,1-2.317,1.158,1.983,1.983,0,0,1-1.035-.378,2.019,2.019,0,0,1-.582-.737,1.945,1.945,0,0,1-.124-1.282C291.158,155.559,291.264,155.429,291.245,155.417Z" transform="translate(-290.928 -131.565)" fill="#263238"/>
          <path id="Path_20479" data-name="Path 20479" d="M373.78,170.4a2.131,2.131,0,0,1-.186,1.4,1.858,1.858,0,0,1-1.239,1,1.964,1.964,0,0,1-1.9-.768,1.772,1.772,0,0,1-.328-1.177,3.717,3.717,0,0,1,.365-1.332,7.922,7.922,0,0,0,1.134-2.986,4.336,4.336,0,0,0-1.239-3.283,5.209,5.209,0,0,0-1.561-1.078,7.63,7.63,0,0,0-1.858-.5,9.844,9.844,0,0,1-1.827-.415A2.478,2.478,0,0,1,363.8,160.2a3.1,3.1,0,0,1-.335-1.642,6,6,0,0,1,.335-1.635,12.648,12.648,0,0,0,.849-3.1,4.789,4.789,0,0,0-.65-2.713,6.2,6.2,0,0,0-1.573-1.679,12.175,12.175,0,0,1-1.282-1.134,3.618,3.618,0,0,1-.743-1.239v.093a1.736,1.736,0,0,0,.074.279,3.041,3.041,0,0,0,.564.942,11.014,11.014,0,0,0,1.239,1.177,6.126,6.126,0,0,1,1.493,1.66,4.578,4.578,0,0,1,.582,2.583,12.65,12.65,0,0,1-.867,3,6.406,6.406,0,0,0-.353,1.71,3.309,3.309,0,0,0,.365,1.815,2.8,2.8,0,0,0,1.493,1.208,10.474,10.474,0,0,0,1.858.427,7.266,7.266,0,0,1,1.8.471,4.8,4.8,0,0,1,1.474,1.01,4.07,4.07,0,0,1,1.2,3.054,7.759,7.759,0,0,1-1.09,2.893,4.069,4.069,0,0,0-.365,1.431,2.013,2.013,0,0,0,.39,1.313,2.131,2.131,0,0,0,2.119.811,2.054,2.054,0,0,0,1.5-2.2A1.133,1.133,0,0,0,373.78,170.4Z" transform="translate(-317.365 -136.706)" fill="#263238"/>
          <path id="Path_20480" data-name="Path 20480" d="M412.113,290.192l-2.7-4.138-4.4-2.205-.161-.118a5.91,5.91,0,0,0-4.956-.929c-1.784.477-4.175,1.072-6.244,1.425l-4.733-1.295v9.211l23.855-1.505Z" transform="translate(-328.218 -188.288)" fill="#ffbe9d"/>
          <path id="Path_20481" data-name="Path 20481" d="M421.21,291.836a6.661,6.661,0,0,0-1.01-.917c-.62-.539-1.549-1.239-2.558-2.063l-.948-.731h-.037c-.979-.186-1.827-.335-2.435-.427a3.65,3.65,0,0,0-.973-.1,3.853,3.853,0,0,0,.942.279c.619.142,1.437.328,2.41.527l-.056-.031.886.712c1.01.793,1.939,1.493,2.614,1.988A5.7,5.7,0,0,0,421.21,291.836Z" transform="translate(-337.476 -190.185)" fill="#eb996e"/>
          <path id="Path_20482" data-name="Path 20482" d="M418.583,294.133a28.222,28.222,0,0,0-3.432-2.069l-.836-.458h-.031a19.15,19.15,0,0,0-3.054-.05,18.965,18.965,0,0,0,3.035.341H414.2l.836.465A26.245,26.245,0,0,0,418.583,294.133Z" transform="translate(-336.707 -191.677)" fill="#eb996e"/>
          <path id="Path_20483" data-name="Path 20483" d="M438.046,252.558a1.821,1.821,0,0,0-2.354.508l-19.2,26.017-30.4.409c-1.239.074-2.688,2.527-1.6,3.717l34.324-.471L438.641,255.2a1.809,1.809,0,0,0-.595-2.645Z" transform="translate(-326.387 -176.764)" fill="#e0e0e0"/>
          <path id="Path_20484" data-name="Path 20484" d="M437.953,252.529a1.4,1.4,0,0,1,.155.087,1.556,1.556,0,0,1,.378.341,1.858,1.858,0,0,1,.285,1.9,11.5,11.5,0,0,1-.811,1.239l-1.016,1.425-2.509,3.525-15.6,21.768-.037.062h-.074l-33.7.477h-.688l-.05-.056a1.71,1.71,0,0,1-.421-1.239,3.024,3.024,0,0,1,.322-1.239,3.562,3.562,0,0,1,.737-1,1.741,1.741,0,0,1,1.152-.539l4.7-.062,9.075-.118,16.546-.211-.112.056c6.25-8.418,11.46-15.437,15.109-20.362l4.256-5.687a1.858,1.858,0,0,1,1.71-.619,1.369,1.369,0,0,1,.619.229,2.781,2.781,0,0,0-.619-.186,1.784,1.784,0,0,0-1.635.619l-4.194,5.73L416.52,279.11l-.043.056h-.068l-16.546.242-9.069.124-4.7.068a1.4,1.4,0,0,0-.942.452,3.148,3.148,0,0,0-.669.911,1.858,1.858,0,0,0,.043,2.081l-.118-.05h.619l33.7-.44-.112.056c6.473-8.945,11.888-16.434,15.691-21.681.948-1.307,1.8-2.478,2.54-3.5l1.034-1.412a11.489,11.489,0,0,0,.818-1.189,1.8,1.8,0,0,0-.235-1.858A2.392,2.392,0,0,0,437.953,252.529Z" transform="translate(-326.294 -176.735)" fill="#263238"/>
          <path id="Path_20485" data-name="Path 20485" d="M316.2,204.033a10.06,10.06,0,0,0-5.111,2.385,17.2,17.2,0,0,0-4.088,6.7c-1.016,3.042-.557,15.053-.557,18.534s.88,16.546,1.319,18.72a13.743,13.743,0,0,1-1.289,7.508c-1.809,3.773,1.01,5.705,1.01,5.705l37.3-.279-.149-1.388c-.26-2.428.619-4.894-.279-7.149a23.231,23.231,0,0,1-1.716-10.45c.477-6.195,2.335-10.457,1.189-14.062-1.734-5.5-7.477-18.008-14.421-23.348,0,0-5.47-1.171-6.709-1.6C319.883,204.318,318.4,203.785,316.2,204.033Z" transform="translate(-296.615 -158.363)" fill="#0091ff"/>
          <path id="Path_20486" data-name="Path 20486" d="M360.744,252.753,328.886,246.1l-.824-27.665s-1.115-11.268-6.765-12.315l-13.6,16.93c.756,8.53.068,24.673,3.989,30.9s7.731,11.212,17.388,10.772,30.936-.65,30.936-.65Z" transform="translate(-297.31 -159.18)" fill="#0091ff"/>
          <path id="Path_20487" data-name="Path 20487" d="M340.554,270.84c.074.056-.688,1.053-1.332,2.478s-.929,2.608-1.022,2.589a6.2,6.2,0,0,1,.731-2.726A6.027,6.027,0,0,1,340.554,270.84Z" transform="translate(-308.917 -183.809)" fill="#263238"/>
          <g id="Group_765" data-name="Group 765" transform="translate(30.528 58.071)" opacity="0.3">
            <path id="Path_20488" data-name="Path 20488" d="M340.21,224.1c3.184,9.775,2.478,24.853,8.561,30.416l-7.514-1.573a38.882,38.882,0,0,0,.062-5.309c-.619-7.731-.688-15.6-1.109-23.54" transform="translate(-340.21 -224.09)"/>
          </g>
          <path id="Path_20489" data-name="Path 20489" d="M327.146,218.46a17.5,17.5,0,0,1,.558,2.224,25.358,25.358,0,0,1,.39,2.738c.105,1.084.124,2.342.173,3.748.18,5.649.44,13.746.756,23.626l-.1-.124,31.871,6.622.13.031v.136c-.235,3.624-.483,7.434-.731,11.324v.149h-.149l-3.872.043c-5.538.074-10.946.155-16.168.266q-3.915.081-7.681.2a40.784,40.784,0,0,1-7.384-.074,15.935,15.935,0,0,1-3.469-.892,14.866,14.866,0,0,1-3.054-1.673,20.685,20.685,0,0,1-4.6-4.776c-.619-.873-1.239-1.741-1.765-2.614l-.409-.65c-.13-.217-.248-.452-.366-.675s-.242-.452-.359-.675a5.637,5.637,0,0,1-.273-.7,26.637,26.637,0,0,1-1.425-5.526,87.974,87.974,0,0,1-.935-9.763c-.142-2.881-.2-5.358-.279-7.39s-.136-3.6-.192-4.665c0-.527-.056-.929-.074-1.239a2.136,2.136,0,0,1,0-.415,2.577,2.577,0,0,0,.05.409c.049.273.056.688.105,1.239.074,1.065.167,2.639.254,4.671s.173,4.5.328,7.384a87.768,87.768,0,0,0,.979,9.726,26.586,26.586,0,0,0,1.431,5.476l.273.688.353.657c.118.223.229.446.359.663l.415.65c.551.867,1.14,1.728,1.759,2.6a20.52,20.52,0,0,0,4.541,4.7,14.322,14.322,0,0,0,3,1.629,15.939,15.939,0,0,0,3.4.873,41.232,41.232,0,0,0,7.328.062c2.515-.068,5.073-.155,7.688-.217,5.222-.118,10.63-.2,16.168-.273l3.878-.043-.161.155c.254-3.89.5-7.7.737-11.324l.124.161L328.9,250.926h-.1v-.1c-.273-9.911-.5-17.964-.65-23.626-.037-1.412-.043-2.664-.136-3.748a26.575,26.575,0,0,0-.353-2.732c-.13-.737-.26-1.295-.347-1.666-.043-.18-.081-.322-.105-.421a1.409,1.409,0,0,1-.062-.173Z" transform="translate(-297.324 -163.876)" fill="#263238"/>
          <path id="Path_20490" data-name="Path 20490" d="M418.733,391.01,414,425.867l12.377,2.026,8.809-30.923Z" transform="translate(-337.761 -229.538)" fill="#ffbe9d"/>
          <path id="Path_20491" data-name="Path 20491" d="M361.06,302.885s52.791-5.024,56.706-1.431,7.173,11.41,5.872,14.018-4.243,11.417-4.243,11.417l-24.3-5.544Z" transform="translate(-317.616 -194.966)" fill="#263238"/>
          <path id="Path_20492" data-name="Path 20492" d="M409.964,343.31l-9.794,14.948,11.528,7.465,12.5-19.166Z" transform="translate(-332.499 -211.386)" fill="#ffbe9d"/>
          <path id="Path_20493" data-name="Path 20493" d="M309.075,299.98s-4.565,20.87,2.936,29.35,18.584,8.48,30.007,6.851,38.512-2.218,38.512-2.218-1.208,7.434-2.094,15.846-1.065,13.764-1.065,13.764l16.961,1.412s9.453-28.768,10.909-34.467.96-13.349-4.064-16.187c-4.262-2.41-37.861-11.726-53.949-13.108l-1.747-1.505Z" transform="translate(-297.31 -194.799)" fill="#263238"/>
          <path id="Path_20494" data-name="Path 20494" d="M433.5,343.837c0,.056-.663.149-1.666.514a10.53,10.53,0,0,0-1.7.787,11.583,11.583,0,0,0-1.858,1.344,11.945,11.945,0,0,0-1.53,1.7,10.866,10.866,0,0,0-.954,1.611c-.465.96-.62,1.617-.681,1.6s0-.167.068-.471a6.7,6.7,0,0,1,.4-1.239,9.685,9.685,0,0,1,.923-1.679,10.658,10.658,0,0,1,1.555-1.772,10.871,10.871,0,0,1,1.92-1.363,9.292,9.292,0,0,1,1.765-.743,6.939,6.939,0,0,1,1.239-.279A1.35,1.35,0,0,1,433.5,343.837Z" transform="translate(-341.981 -211.579)" fill="#455a64"/>
          <path id="Path_20495" data-name="Path 20495" d="M435.41,313.817a7.749,7.749,0,0,1,2.2-3.227,7.9,7.9,0,0,1-1.041,1.654,8.1,8.1,0,0,1-1.158,1.573Z" transform="translate(-345.909 -198.935)" fill="#455a64"/>
          <path id="Path_20496" data-name="Path 20496" d="M430.216,323.446a.466.466,0,0,0-.05-.161l-.118-.483c-.1-.421-.254-1.047-.508-1.858A13.924,13.924,0,0,0,428.3,318.2a6.852,6.852,0,0,0-2.732-2.757,75.578,75.578,0,0,0-9.781-3.475c-3.748-1.121-7.886-2.311-12.253-3.463-8.741-2.323-16.756-3.983-22.6-4.956-2.918-.5-5.29-.83-6.932-1.059l-1.889-.26a2.212,2.212,0,0,1-.489-.074l-.167-.031h.167l.5.043,1.9.2c1.648.192,4.027.489,6.957.96a230.065,230.065,0,0,1,22.672,4.912c4.373,1.158,8.511,2.36,12.259,3.494a72.808,72.808,0,0,1,9.781,3.531,6.963,6.963,0,0,1,2.788,2.868,13.108,13.108,0,0,1,1.171,2.794c.235.8.378,1.431.458,1.858.031.2.062.359.081.489a.575.575,0,0,1,.031.167Z" transform="translate(-321.573 -195.716)" fill="#455a64"/>
          <path id="Path_20497" data-name="Path 20497" d="M424.818,444.546l.415-1.511a23.5,23.5,0,0,1-13.659-5.885l-4.194,9.063,27.969,12.439C436.4,455.975,424.818,444.546,424.818,444.546Z" transform="translate(-335.242 -247.096)" fill="#0091ff"/>
          <path id="Path_20498" data-name="Path 20498" d="M407.38,450.421l1.022-2.211,26.488,12.773s1,1.084.458,1.858Z" transform="translate(-335.242 -251.305)" fill="#e0e0e0"/>
          <path id="Path_20499" data-name="Path 20499" d="M432.933,448.483c-.068.13-.774-.111-1.648,0s-1.493.527-1.592.415.458-.781,1.518-.923S433.02,448.372,432.933,448.483Z" transform="translate(-343.729 -251.207)" fill="#263238"/>
          <path id="Path_20500" data-name="Path 20500" d="M416.418,446.55a.811.811,0,0,1-1.072.372.774.774,0,0,1-.384-1.047.824.824,0,0,1,1.078-.372.768.768,0,0,1,.378,1.047Z" transform="translate(-338.098 -250.246)" fill="#e0e0e0"/>
          <path id="Path_20501" data-name="Path 20501" d="M432.935,446.79a1.723,1.723,0,0,1-.62-.118,3.4,3.4,0,0,1-1.586-.818,2.25,2.25,0,0,1-.365-.483,1.475,1.475,0,0,1-.235-.619.7.7,0,0,1,.44-.694,1.091,1.091,0,0,1,.849.037,3.1,3.1,0,0,1,1.728,2.732l-.409-.062a3.047,3.047,0,0,1,.273-.619,3.457,3.457,0,0,1,3.035-1.716,1.109,1.109,0,0,1,.465.093.619.619,0,0,1,.322.415,1.084,1.084,0,0,1-.2.805,2.478,2.478,0,0,1-1.072.861,4.335,4.335,0,0,1-1.92.285,2.633,2.633,0,0,1-.7-.056,2.112,2.112,0,0,1,.694-.105,4.64,4.64,0,0,0,1.8-.384,2.223,2.223,0,0,0,.9-.781.762.762,0,0,0,.136-.545c-.037-.161-.167-.211-.427-.211a3.1,3.1,0,0,0-2.658,1.536,2.667,2.667,0,0,0-.242.551.223.223,0,0,1-.266.136.217.217,0,0,1-.149-.2,2.775,2.775,0,0,0-1.468-2.391c-.378-.2-.818,0-.787.3a1.858,1.858,0,0,0,.477.954,3.587,3.587,0,0,0,1.406.88A2.282,2.282,0,0,1,432.935,446.79Z" transform="translate(-343.899 -249.699)" fill="#263238"/>
          <path id="Path_20502" data-name="Path 20502" d="M436.216,451.752a10.472,10.472,0,0,0-1.858.13,9.693,9.693,0,0,0-1.7.756,2.373,2.373,0,0,1,1.617-1.066A2.4,2.4,0,0,1,436.216,451.752Z" transform="translate(-344.862 -252.537)" fill="#263238"/>
          <path id="Path_20503" data-name="Path 20503" d="M438.95,454.748c0,.093-.762.068-1.635.335s-1.5.688-1.555.619a3.19,3.19,0,0,1,3.19-.948Z" transform="translate(-346.042 -253.754)" fill="#263238"/>
          <path id="Path_20504" data-name="Path 20504" d="M411.585,370.921l.657-1.419a23.5,23.5,0,0,1-12.47-8.1l-5.662,8.233,25.472,16.961C421.075,384.14,411.585,370.921,411.585,370.921Z" transform="translate(-330.193 -218.27)" fill="#0091ff"/>
          <path id="Path_20505" data-name="Path 20505" d="M394.11,373.453l1.381-2.013,23.948,17.072s.8,1.239.13,1.92Z" transform="translate(-330.193 -222.091)" fill="#e0e0e0"/>
          <path id="Path_20506" data-name="Path 20506" d="M419.757,375.917c-.087.118-.75-.242-1.629-.26s-1.561.273-1.642.149.589-.7,1.654-.657S419.862,375.824,419.757,375.917Z" transform="translate(-338.705 -223.501)" fill="#263238"/>
          <path id="Path_20507" data-name="Path 20507" d="M403.818,371.126a.824.824,0,0,1-1.127.186.774.774,0,0,1-.192-1.1.812.812,0,0,1,1.121-.186.774.774,0,0,1,.2,1.1Z" transform="translate(-333.329 -221.498)" fill="#e0e0e0"/>
          <path id="Path_20508" data-name="Path 20508" d="M420.056,374.109a1.69,1.69,0,0,1-.619-.217,3.457,3.457,0,0,1-1.406-1.09,2.481,2.481,0,0,1-.285-.539,1.431,1.431,0,0,1-.118-.675.688.688,0,0,1,.545-.619,1.1,1.1,0,0,1,.83.18,3.135,3.135,0,0,1,1.239,2.986l-.4-.13a3.245,3.245,0,0,1,.378-.57,3.45,3.45,0,0,1,3.277-1.183,1.09,1.09,0,0,1,.446.173.576.576,0,0,1,.242.458,1.053,1.053,0,0,1-.334.762,2.478,2.478,0,0,1-1.2.669,4.454,4.454,0,0,1-1.945-.037,2.48,2.48,0,0,1-.681-.18,2.31,2.31,0,0,1,.706,0,4.752,4.752,0,0,0,1.858-.081,2.236,2.236,0,0,0,1.022-.62.793.793,0,0,0,.229-.514c0-.161-.13-.235-.39-.273a3.1,3.1,0,0,0-2.88,1.065,2.741,2.741,0,0,0-.328.5.211.211,0,0,1-.4-.124,2.8,2.8,0,0,0-1.041-2.608c-.341-.266-.805-.167-.83.161a1.939,1.939,0,0,0,.31,1.022,3.575,3.575,0,0,0,1.239,1.1C419.877,373.967,420.075,374.078,420.056,374.109Z" transform="translate(-339.141 -221.905)" fill="#263238"/>
          <path id="Path_20509" data-name="Path 20509" d="M422.415,379.738a10,10,0,0,0-1.858-.186,11.071,11.071,0,0,0-1.8.452,2.379,2.379,0,0,1,1.772-.774A2.329,2.329,0,0,1,422.415,379.738Z" transform="translate(-339.573 -225.043)" fill="#263238"/>
          <path id="Path_20510" data-name="Path 20510" d="M424.624,383.136c0,.093-.768-.056-1.673.056s-1.592.427-1.642.341A3.246,3.246,0,0,1,424.624,383.136Z" transform="translate(-340.543 -226.434)" fill="#263238"/>
        </g>
      </g>
    </g>
  </g>
</svg>
