<svg xmlns="http://www.w3.org/2000/svg" xmlns:xlink="http://www.w3.org/1999/xlink" viewBox="0 0 650.1 147.52"><defs><style>.cls-1{fill:none;}.cls-2{fill:#0091ff;}.cls-3{clip-path:url(#clip-path);}.cls-4{fill:#04142E;}</style><clipPath id="clip-path"><circle class="cls-1" cx="609.69" cy="39.6" r="38.4"/></clipPath></defs><g id="Layer_2" data-name="Layer 2"><g id="Layer_1-2" data-name="Layer 1"><rect class="cls-1" x="4.68" y="11.5" width="80" height="80"/><path class="cls-2" d="M45.34,12.06l.8,1.75a16.88,16.88,0,0,0,3.51,5A43.13,43.13,0,0,1,60,35.11,40.62,40.62,0,0,1,62.54,46a36.89,36.89,0,0,1-2.63,17.2,35,35,0,0,1-8.27,12c-.91.86-1.92,1.61-2.87,2.44a3.73,3.73,0,0,0-1.26,2.64c-.13,1.89-.15,3.78-.24,5.67A5.43,5.43,0,0,1,47,87.21c0,.1-.23.15-.36.22s0,0-.08,0c-1.17-.27-1.15-.27-1.18-1.48a25.7,25.7,0,0,0-1-6.86,2.37,2.37,0,0,0-.84-1.18A39.67,39.67,0,0,1,30.18,58.69a34.19,34.19,0,0,1-1.4-7.43A40.18,40.18,0,0,1,29.27,42a44.19,44.19,0,0,1,3.19-11.28,39.29,39.29,0,0,1,11-14.91A5,5,0,0,0,45.34,12.06Z"/><rect class="cls-1" x="428.58" y="4" width="80" height="80"/><path class="cls-2" d="M503,64.34a17.12,17.12,0,0,1-4.35,1,22.32,22.32,0,0,0-4.38.85c-.59.17-1.19.28-1.8.43a2.59,2.59,0,0,0,1.12,1.61,30.27,30.27,0,0,0,2.79,1.88,23.64,23.64,0,0,1,4.33,3.22c.63.6,1.21,1.25,1.81,1.89s1.19,1.35,1.82,2a4.32,4.32,0,0,1,.95,1.75,3.57,3.57,0,0,1-.46-.29A25.9,25.9,0,0,0,497.58,74a23.73,23.73,0,0,1-5.93-3.68,9.62,9.62,0,0,1-2.94-3.85c-.1-.26-.24-.5-.35-.74.14-.5.54-.63.94-.79A23.43,23.43,0,0,1,499,63.29c.24,0,.49,0,.87,0-.1-.27-.12-.51-.26-.64a11.21,11.21,0,0,0-1.34-1.14c-1.47-1-3-2-4.45-3a22.35,22.35,0,0,0-6.6-3.13l-2.48-.82a3.46,3.46,0,0,1-2.05-1.66c-.64-1.18-1.34-2.34-1.92-3.56-1.28-2.66-2.5-5.34-3.74-8a20.57,20.57,0,0,1-.85-1.93,34.12,34.12,0,0,0-5.95-10.24,41.28,41.28,0,0,0-14.45-11.67,14.08,14.08,0,0,0-6.48-1.63,12.5,12.5,0,0,1-2.44-.21,2.52,2.52,0,0,1-1.18-.58,20.65,20.65,0,0,0-6.35-3.61,9.31,9.31,0,0,0-1.94-.54,1.58,1.58,0,0,0-1.87,2.12,8.69,8.69,0,0,0,1.64,2.92l2.1,2.75A17.25,17.25,0,0,1,442,24c.5,1.56,1,3.12,1.54,4.65a27,27,0,0,0,1.33,2.9A8.45,8.45,0,0,0,446.69,34a2.64,2.64,0,0,1,.85,3c-.3.88-.56,1.78-.89,2.64a19.89,19.89,0,0,0-1,9,17.28,17.28,0,0,0,1.78,6.38,7.11,7.11,0,0,0,1.08,1.48,1.48,1.48,0,0,0,1.29.49c.07-.46.15-.89.21-1.33.18-1.31.32-2.62.54-3.92a8.28,8.28,0,0,1,1.91-4.17c.36-.39.67-.82,1.08-1.33a3.42,3.42,0,0,1,.34.58,40,40,0,0,0,3,6.86,63.17,63.17,0,0,0,4.7,7.6,27.52,27.52,0,0,0,3.36,3.82,1.82,1.82,0,0,1-.28-.13,1.78,1.78,0,0,1-.27-.21c-1.7-1.51-3.41-3-5.09-4.56a17.78,17.78,0,0,1-4.52-6.13c-.29-.68-.67-1.33-1.1-2.17a3.81,3.81,0,0,0-.26.69c-.22,1.28-.41,2.55-.63,3.83a8,8,0,0,1-.35,1.38,2.69,2.69,0,0,1-3.8,1.52,5.54,5.54,0,0,1-2-1.7,14.65,14.65,0,0,1-2.75-6.37,22.94,22.94,0,0,1,.49-11.1c.2-.67.31-1.37.5-2.05a6.12,6.12,0,0,1,.45-1.35,1,1,0,0,0-.17-1.23C443.08,33.42,442,30.71,441,28c-.57-1.56-1-3.16-1.57-4.72a9.59,9.59,0,0,0-1.05-2.1c-.91-1.32-1.89-2.59-2.86-3.86a12,12,0,0,1-2-3.32,4.22,4.22,0,0,1,.36-3.8,3.54,3.54,0,0,1,2.76-1.73,8.62,8.62,0,0,1,4.05.6,18.91,18.91,0,0,1,6.14,3.45,2.68,2.68,0,0,0,1.83.71,22.47,22.47,0,0,1,4.75.6,20,20,0,0,1,5.66,2.34,52.41,52.41,0,0,1,12.24,10,50,50,0,0,1,5.6,7.8,27.45,27.45,0,0,1,1.3,2.74c1.4,3.1,2.76,6.21,4.17,9.31.59,1.31,1.25,2.58,1.89,3.86.25.51.53,1,.82,1.48a2.07,2.07,0,0,0,1.09.88c1.45.61,2.9,1.22,4.33,1.87a35.51,35.51,0,0,1,6.56,4.27c.77.58,1.48,1.22,2.25,1.79a17.46,17.46,0,0,1,3.44,3.69A2.84,2.84,0,0,1,503,64.34Z"/><path class="cls-2" d="M450.4,25a13.08,13.08,0,0,0-2.58-4.07,2.26,2.26,0,0,1,3.21.95A2.14,2.14,0,0,1,450.4,25Z"/><rect class="cls-1" x="289.11" y="7.5" width="80" height="80"/><path class="cls-2" d="M326.58,68.28c-1,.25-1.9.54-2.83.7a13.35,13.35,0,0,1-6.63-.64,6.39,6.39,0,0,1-2.7-1.78l-.49.34a6.2,6.2,0,0,1-4,1.26,6.48,6.48,0,0,1-3.63-1.34A13.28,13.28,0,0,1,303,63.07,38,38,0,0,1,299.68,56a96.37,96.37,0,0,1-3.88-13.61c-.42-2-.75-4-1.1-6a24.19,24.19,0,0,1-.17-5.38,19.83,19.83,0,0,1,1.08-5.7A13.61,13.61,0,0,1,306.2,16a23.7,23.7,0,0,1,7.61-.26,39.45,39.45,0,0,1,7.82,1.73.74.74,0,0,0,.66-.06,17.43,17.43,0,0,1,9.89-2c1.21.07,2.42.25,3.64.37a2.31,2.31,0,0,0,.74,0,30,30,0,0,1,9.38-1.11A21.57,21.57,0,0,1,358.55,19a20.75,20.75,0,0,1,3.53,3.54,8.38,8.38,0,0,1,1.64,4.27,22.81,22.81,0,0,1-.16,6.39,61.18,61.18,0,0,1-6.05,18.33c-.65,1.32-1.39,2.6-2.09,3.89-.06.13-.13.25-.22.42a7.41,7.41,0,0,0,1.85-.13c.85-.12,1.7-.3,2.55-.43a4.65,4.65,0,0,1,2,.13,3.46,3.46,0,0,1,2.24,4.88,6.21,6.21,0,0,1-1.64,2.12,14.48,14.48,0,0,1-6.29,3.28,20.36,20.36,0,0,1-5.72.55h-.51c0,.37-.09.7-.11,1-.15,1.91-.24,3.83-.44,5.74a21.57,21.57,0,0,1-1.71,6.6,10.42,10.42,0,0,1-6.54,5.92,16.25,16.25,0,0,1-5.06,1,7.4,7.4,0,0,1-7.1-4.47A18.15,18.15,0,0,1,327,75.36c-.15-2.2-.24-4.41-.36-6.62C326.61,68.59,326.59,68.43,326.58,68.28Zm25.3-11.11c.08-.12.13-.23.2-.33a65.21,65.21,0,0,0,4.23-7.63,58.81,58.81,0,0,0,5.2-16.36,20.93,20.93,0,0,0,.16-5.86,6.33,6.33,0,0,0-1.22-3.29,18.47,18.47,0,0,0-12.24-7,27.46,27.46,0,0,0-11.87,1,1.48,1.48,0,0,1-.78,0,22.14,22.14,0,0,0-5.56-.54,14.23,14.23,0,0,0-7.45,2.19.66.66,0,0,1-.65.07,35.2,35.2,0,0,0-5.13-1.44,26.6,26.6,0,0,0-8.94-.49,13.76,13.76,0,0,0-5.46,1.87,11.65,11.65,0,0,0-5.07,6.8,23.1,23.1,0,0,0-.6,10.19A102.36,102.36,0,0,0,300,50.72a57.79,57.79,0,0,0,3.36,8.8,19.61,19.61,0,0,0,2.7,4.27,7.55,7.55,0,0,0,1.86,1.61,4.29,4.29,0,0,0,1.93.64,4,4,0,0,0,2.95-1,14.54,14.54,0,0,0,1.53-1.51c1.66-1.86,3.3-3.74,4.95-5.61a5.55,5.55,0,0,1,.42-.42,9.78,9.78,0,0,0,4,1.09c-.3.38-.55.66-.75,1a3.94,3.94,0,0,1-2.59,1.7c-.3.06-.59.14-.89.22-.69.17-1.4.31-2.08.53a4.7,4.7,0,0,0-1.24.64,1.64,1.64,0,0,0-.22,2.51,2.71,2.71,0,0,0,.74.61,10.42,10.42,0,0,0,1.72.75,11.49,11.49,0,0,0,4,.45,9.14,9.14,0,0,0,5.27-2l.41-.31c0,.08.07.1.07.13s0,.33,0,.49a104.41,104.41,0,0,0,.51,11.73,10,10,0,0,0,2,4.93,6.34,6.34,0,0,0,4.79,2.56,12.91,12.91,0,0,0,6.71-1.46,7.22,7.22,0,0,0,3.58-3.87,9.54,9.54,0,0,0,.5-1.48c.27-1.28.52-2.57.71-3.86.37-2.67.69-5.34,1-8l.24-2c.48.08.9.16,1.32.21a17.11,17.11,0,0,0,6.25-.54,12,12,0,0,0,5.06-2.76,5.13,5.13,0,0,0,1-1.28,1.49,1.49,0,0,0-1.28-2.32,5.84,5.84,0,0,0-1.18.06c-.59.08-1.17.22-1.75.31a14,14,0,0,1-4.29.17A3,3,0,0,1,351.88,57.17Z"/><path class="cls-2" d="M349.6,33.2h-1a11.88,11.88,0,0,0-3.26.26c-3.08.8-4.29,3.1-4.1,6a18.49,18.49,0,0,0,1.69,6.09,66.51,66.51,0,0,0,3.16,6.18c.25.46.48.93.7,1.4a13.8,13.8,0,0,0,1.76,2.83c.23.29.46.59.73.92-.17.08-.28.15-.41.2a3.66,3.66,0,0,0-2.38,2.84c-.08.4-.1.82-.14,1.23-.09,1.09-.15,2.18-.26,3.27-.18,1.66-.37,3.32-.6,5-.34,2.43-.71,4.86-1.08,7.29a5.63,5.63,0,0,1-.17.68A6,6,0,0,1,340,81.8a11.33,11.33,0,0,1-4.43.71,4.36,4.36,0,0,1-3.3-1.79,7.79,7.79,0,0,1-1.55-3.79,65.81,65.81,0,0,1-.46-7.68c0-2.64,0-5.29,0-7.93a4.58,4.58,0,0,0-.93-2.86,3.66,3.66,0,0,0-3.06-1.53l-.27,0-.09-.06c.06-.23.11-.49.2-.74.52-1.33,1-2.69,1.59-4a17.37,17.37,0,0,0,1.54-5.69,31.45,31.45,0,0,0,0-3.76,29.18,29.18,0,0,0-.72-4.74c-.08-.33-.17-.66-.28-1a5,5,0,0,0-4.76-3.41,12.7,12.7,0,0,0-5.87,1.37l-.68.32s0,0-.12,0c0-.27,0-.54.07-.82a23.17,23.17,0,0,1,2.59-8.66,11.68,11.68,0,0,1,9.81-6.35,19.59,19.59,0,0,1,8.6,1.34,20.14,20.14,0,0,1,8.61,6.79,22.73,22.73,0,0,1,2.89,5.1c.05.13.1.27.14.4A1.19,1.19,0,0,1,349.6,33.2Z"/><path class="cls-2" d="M317.87,56.38l-.29.35-4.95,5.62a8.57,8.57,0,0,1-.77.82,2.25,2.25,0,0,1-3.37.09,10.36,10.36,0,0,1-1.38-1.5,17.37,17.37,0,0,1-1.9-3.18,56,56,0,0,1-3.14-8.19A110.58,110.58,0,0,1,299,37.58a25.48,25.48,0,0,1-.45-6.16,17.8,17.8,0,0,1,.93-5.06,9.57,9.57,0,0,1,7.33-6.45,18.14,18.14,0,0,1,5.35-.37A35.42,35.42,0,0,1,319.79,21c.13,0,.26.1.44.17a2.67,2.67,0,0,1-.19.28,18.82,18.82,0,0,0-4.25,7.88,29.65,29.65,0,0,0-1.16,8.83c.05,1.85.11,3.7.1,5.55a26,26,0,0,1-.25,3,10.56,10.56,0,0,0,3,9.26Z"/><path class="cls-2" d="M345.85,18.61a18.14,18.14,0,0,1,7.8,2,16.24,16.24,0,0,1,5.13,4.3,4.35,4.35,0,0,1,.81,2.14,17.39,17.39,0,0,1,0,4.78,56.08,56.08,0,0,1-5.71,17.69c-.83,1.69-1.81,3.3-2.72,5-.12.2-.25.39-.39.61-.22-.07-.31-.19-.21-.4a1.41,1.41,0,0,1,.13-.24A11.88,11.88,0,0,0,352,47.69c-.12-1.5-.33-3-.46-4.5a15.64,15.64,0,0,1,.13-3.55,30.67,30.67,0,0,0,.5-5,5.71,5.71,0,0,0-.3-1.8,24.11,24.11,0,0,0-4.93-8.33A21.63,21.63,0,0,0,340,19.26"/><path class="cls-2" d="M327.25,44.71a15.06,15.06,0,0,1-1.55,6.76,39.73,39.73,0,0,0-1.76,4.63c-.13.42-.14.44-.61.39a6.71,6.71,0,0,1-3.21-1.13,8,8,0,0,1-3.59-6.48,11.93,11.93,0,0,1,.12-2.15,42.89,42.89,0,0,0,.16-8.17,1,1,0,0,1,.53-1.05,12.5,12.5,0,0,1,5.24-1.83,5.76,5.76,0,0,1,1.71.12,2.55,2.55,0,0,1,2,1.8,17.61,17.61,0,0,1,.48,2A25.44,25.44,0,0,1,327.25,44.71Zm-3.86-8.11a6.54,6.54,0,0,0-1.08.26.66.66,0,0,0-.39,1,2.09,2.09,0,0,0,3.37.8c.6-.57.54-1.15-.18-1.55A4.05,4.05,0,0,0,323.39,36.6Z"/><path class="cls-2" d="M349.87,35.47a3.47,3.47,0,0,1,0,1.4c-.13,1.06-.3,2.1-.43,3.15a16.58,16.58,0,0,0,0,3.92c.14,1.36.3,2.71.4,4.07a10.09,10.09,0,0,1-.52,4.25c-.06.16-.13.32-.23.55a3.17,3.17,0,0,1-.2-.29l-2.24-4.24a37.24,37.24,0,0,1-2.65-6,10.75,10.75,0,0,1-.61-3.81,2.89,2.89,0,0,1,2.24-2.87A10,10,0,0,1,349.87,35.47Zm-2.85.65a4.17,4.17,0,0,0-1.74.38c-.7.36-.75.86-.15,1.38a1.92,1.92,0,0,0,3-.77.54.54,0,0,0-.34-.78A4.35,4.35,0,0,0,347,36.12Z"/><path class="cls-2" d="M318,64l1.29-.33c.83-.22,1.67-.41,2.5-.65a5.09,5.09,0,0,0,2.48-1.73c.35-.45.72-.9,1.08-1.34.13-.16.26-.3.39-.45a1.07,1.07,0,0,1,1.7-.06,2.12,2.12,0,0,1,.73,1.57,1.39,1.39,0,0,1-.27.85,7.13,7.13,0,0,1-5.73,3.05,10.39,10.39,0,0,1-3.09-.33c-.37-.11-.73-.26-1.1-.4Z"/><path class="cls-2" d="M359.28,59.44a11.05,11.05,0,0,1-3.78,2,16.17,16.17,0,0,1-4.74.62,10.8,10.8,0,0,1-1.7-.2c-.58-.11-.64-.23-.59-.82a4.82,4.82,0,0,1,.1-.75,1.56,1.56,0,0,1,1.1-1.28,5.61,5.61,0,0,1,.62-.18.62.62,0,0,1,.4.06,8.22,8.22,0,0,0,5.21.92C357,59.76,358.07,59.59,359.28,59.44Z"/><rect class="cls-1" x="570.1" width="80" height="80"/><g class="cls-3"><path class="cls-2" d="M626.14,22.79H573.69a2.41,2.41,0,0,1-2.4-2.4V3.59a2.41,2.41,0,0,1,2.4-2.4H642.1a2.41,2.41,0,0,1,2.4,2.4v.84A18.52,18.52,0,0,1,626.14,22.79Z"/></g><g class="cls-3"><path class="cls-2" d="M644.62,78H571.53V56.4h54.85a18.23,18.23,0,0,1,18.24,18.24Z"/></g><g class="cls-3"><path class="cls-2" d="M621.82,50.4H567.45V28.79h54.37a10.81,10.81,0,0,1,0,21.61Z"/></g><g class="cls-3"><path class="cls-2" d="M604.89,28.79H569.37V50.4h35.52a42.94,42.94,0,0,0,1.32-10.8A43,43,0,0,0,604.89,28.79Z"/></g><path class="cls-2" d="M590.37,6.35a39.52,39.52,0,0,0-15.24,16.44h28.32A41.77,41.77,0,0,0,590.37,6.35Z"/><path class="cls-2" d="M591.57,73.44a42.82,42.82,0,0,0,12.72-17H575.13A39.54,39.54,0,0,0,591.57,73.44Z"/><rect class="cls-1" x="148.43" y="11.5" width="80" height="80"/><path class="cls-2" d="M226.3,37.3a5.35,5.35,0,0,0,0,1.06c.57,2.93-1,4.46-3.46,5.52q-12.25,5.29-24.48,10.66c-2.26,1-4.47,2.09-6.72,3.09a9.19,9.19,0,0,1-7.61,0c-9.35-4-18.73-7.88-28.08-11.85a29.66,29.66,0,0,1-4.57-2.31,3,3,0,0,1-1.11-2c-.16-1.75.06-3.53-.09-5.28a2.94,2.94,0,0,1,2.18-3.32c3.65-1.42,7.29-2.9,10.94-4.31,7-2.73,14.11-5.37,21.12-8.15a14,14,0,0,1,11,.11c9.14,3.69,18.34,7.22,27.53,10.79,3.35,1.31,3.36,1.29,3.36,4.86Zm-53.45,1c2.54-.63,5.05-1.11,7.44-1.93a3.13,3.13,0,0,0,1.89-2.17,3.18,3.18,0,0,0-1.8-2.24,18.69,18.69,0,0,0-15.07,0,3.23,3.23,0,0,0-1.82,2.24,3.12,3.12,0,0,0,1.88,2.19C167.77,37.23,170.28,37.7,172.85,38.33Zm43.45-4.42v-.36c-.82-.35-1.63-.71-2.46-1-2.57-1-5.16-2.74-7.74-2.73s-5.16,1.76-7.74,2.76c-1.19.46-2.36,1-3.9,1.59,3.65,1.45,6.91,2.75,10.18,4a1.3,1.3,0,0,0,.87,0C209.11,36.75,212.71,35.33,216.3,33.91Zm-20.9,4L178,40.59l0,.36,12,5ZM185.77,26.1l-5,1.94a28,28,0,0,0,5.86.84A2,2,0,0,1,188.55,30c.48.92,1.07,1.79,1.76,2.91a13.7,13.7,0,0,0,.79-1.85,2.36,2.36,0,0,1,2.72-1.94,31.44,31.44,0,0,0,4.07-.44V28.4l-4.42-1.8,1.09-3-.19-.39c-3.37,2.26-6.66,1.52-9.92-.33l-.06.42Z"/><path class="cls-2" d="M226.29,59.94c0,2.18.14,4.2-.06,6.19a3.29,3.29,0,0,1-1.44,2.09,53.26,53.26,0,0,1-5.64,2.86c-8.92,4-17.87,7.86-26.8,11.8a10,10,0,0,1-8.32.24c-9.45-4-18.92-8-28.37-12-5.37-2.28-5.37-2.29-5.37-8.1V61.24c4.55,2,9.11,4,13.7,5.91,6.71,2.84,13.46,5.62,20.17,8.48a9.19,9.19,0,0,0,7.61,0q15.54-6.86,31-13.77C224,61.39,225,60.68,226.29,59.94Z"/><path class="cls-2" d="M150.29,48.82c10.33,4.34,20.77,8.43,30.93,13.11,5,2.29,9.16,2.12,14-.28,7.84-3.88,16-7.09,24-10.63,2.36-1.05,4.66-2.27,7.05-3.45,0,2,.11,4.18-.06,6.31a2.86,2.86,0,0,1-1.39,1.8c-2,1.11-4,2.12-6.06,3-8.78,3.89-17.6,7.71-26.37,11.62a10.66,10.66,0,0,1-9.15-.06c-9-3.93-18.16-7.67-27.24-11.51-1.48-.62-2.92-1.36-4.35-2.09a2.37,2.37,0,0,1-1.39-2.44C150.35,52.34,150.29,50.44,150.29,48.82Z"/><path class="cls-4" d="M0,127.22v-14.4H1.89l5.22,10.83,5.19-10.83h1.91v14.39h-2v-9.85l-4.65,9.86h-1L2,117.36v9.86Z"/><path class="cls-4" d="M21.7,127.52a5.23,5.23,0,0,1-2.81-.73,4.93,4.93,0,0,1-1.84-2,7.11,7.11,0,0,1,0-5.94,5,5,0,0,1,1.85-2,5.35,5.35,0,0,1,2.78-.71,5.23,5.23,0,0,1,2.81.73,5,5,0,0,1,1.84,2,6.47,6.47,0,0,1,.65,3,6.37,6.37,0,0,1-.66,3,4.84,4.84,0,0,1-1.84,2A5.22,5.22,0,0,1,21.7,127.52Zm0-2a2.67,2.67,0,0,0,2.31-1,4.42,4.42,0,0,0,.77-2.69A4.34,4.34,0,0,0,24,119.1a2.72,2.72,0,0,0-2.3-1,3,3,0,0,0-1.73.47,2.89,2.89,0,0,0-1,1.31,5.29,5.29,0,0,0-.33,1.94,4.37,4.37,0,0,0,.78,2.72A2.7,2.7,0,0,0,21.7,125.55Z"/><path class="cls-4" d="M29.19,127.22v-10.8h1.87v3.12h.25v7.68Zm7.59,0v-5.31a7.36,7.36,0,0,0-.11-1.3,4,4,0,0,0-.4-1.23,2.3,2.3,0,0,0-.83-.92,2.51,2.51,0,0,0-1.39-.35,3.11,3.11,0,0,0-1.06.18,2.35,2.35,0,0,0-.87.6,2.93,2.93,0,0,0-.6,1.08,5.52,5.52,0,0,0-.21,1.63l-1.3-.49a5.81,5.81,0,0,1,.55-2.6,4.13,4.13,0,0,1,1.58-1.75,4.7,4.7,0,0,1,2.49-.63,4.38,4.38,0,0,1,1.88.36,3.49,3.49,0,0,1,1.24.94,4.63,4.63,0,0,1,.72,1.28,6.36,6.36,0,0,1,.34,1.35,8.76,8.76,0,0,1,.09,1.16v6Z"/><path class="cls-4" d="M45.79,127.52a4.53,4.53,0,0,1-2.61-.75,5,5,0,0,1-1.69-2,7,7,0,0,1-.59-2.91,6.83,6.83,0,0,1,.6-2.92,4.93,4.93,0,0,1,1.71-2,4.61,4.61,0,0,1,2.62-.74,4.34,4.34,0,0,1,2.57.74,4.56,4.56,0,0,1,1.58,2,8.11,8.11,0,0,1,0,5.82,4.65,4.65,0,0,1-1.59,2A4.3,4.3,0,0,1,45.79,127.52Zm.16,4.8a5.38,5.38,0,0,1-1.69-.27,4.94,4.94,0,0,1-1.48-.8A4.32,4.32,0,0,1,41.67,130l1.93-1a2.18,2.18,0,0,0,1,1,3.1,3.1,0,0,0,1.37.32,3.38,3.38,0,0,0,1.52-.32,2.06,2.06,0,0,0,.95-.94,3.22,3.22,0,0,0,.32-1.56v-3H49v-8h1.85v11.09c0,.28,0,.56,0,.82a7,7,0,0,1-.11.78,3.77,3.77,0,0,1-.88,1.8A3.85,3.85,0,0,1,48.21,132,6.92,6.92,0,0,1,46,132.32Zm.13-6.69a2.68,2.68,0,0,0,1.68-.49,2.84,2.84,0,0,0,1-1.35,6.68,6.68,0,0,0,0-4,2.83,2.83,0,0,0-1-1.34,2.59,2.59,0,0,0-1.61-.48,2.76,2.76,0,0,0-1.71.51,3,3,0,0,0-1,1.37,5.52,5.52,0,0,0-.32,1.92,5.58,5.58,0,0,0,.32,1.93,3.13,3.13,0,0,0,1,1.38A2.63,2.63,0,0,0,46.08,125.63Z"/><path class="cls-4" d="M58.35,127.52a5.23,5.23,0,0,1-2.81-.73,4.93,4.93,0,0,1-1.84-2,7.11,7.11,0,0,1,0-5.94,5,5,0,0,1,1.85-2,5.35,5.35,0,0,1,2.78-.71,5.23,5.23,0,0,1,2.81.73,5,5,0,0,1,1.84,2,6.47,6.47,0,0,1,.65,3,6.37,6.37,0,0,1-.66,3,4.84,4.84,0,0,1-1.84,2A5.22,5.22,0,0,1,58.35,127.52Zm0-2a2.67,2.67,0,0,0,2.31-1,4.42,4.42,0,0,0,.77-2.69,4.34,4.34,0,0,0-.78-2.71,2.72,2.72,0,0,0-2.3-1,3,3,0,0,0-1.73.47,2.89,2.89,0,0,0-1,1.31,5.29,5.29,0,0,0-.33,1.94,4.37,4.37,0,0,0,.78,2.72A2.7,2.7,0,0,0,58.35,125.55Z"/><path class="cls-4" d="M65.85,127.22v-14.4H71.1a8.61,8.61,0,0,1,1.05.08A5.17,5.17,0,0,1,75,114.12a6.26,6.26,0,0,1,1.75,2.53,9.92,9.92,0,0,1,0,6.74A6.13,6.13,0,0,1,75,125.92a5.17,5.17,0,0,1-2.84,1.21,8.61,8.61,0,0,1-1.05.08H65.85Zm2.14-2h2.37l.81,0a6.32,6.32,0,0,0,.83-.08,3.11,3.11,0,0,0,1.78-1,4.41,4.41,0,0,0,1-1.83,8.34,8.34,0,0,0,.32-2.32,8.11,8.11,0,0,0-.33-2.36,4.57,4.57,0,0,0-1-1.82,3.05,3.05,0,0,0-1.76-.93,4.91,4.91,0,0,0-.84-.09H68Z"/><path class="cls-4" d="M79.66,127.22v-14.4h5.66a4.43,4.43,0,0,1,2.3.56,3.65,3.65,0,0,1,1.4,1.44,4,4,0,0,1,.47,1.87,3.53,3.53,0,0,1-.59,2,2.91,2.91,0,0,1-1.57,1.16l0-.49a3.62,3.62,0,0,1,2.12,1.32,3.76,3.76,0,0,1,.74,2.3,4.57,4.57,0,0,1-.51,2.21,3.45,3.45,0,0,1-1.47,1.46,4.8,4.8,0,0,1-2.33.53Zm2.12-8.52h3.51a2.21,2.21,0,0,0,1-.24,1.73,1.73,0,0,0,.74-.68,1.92,1.92,0,0,0,.28-1.07,1.85,1.85,0,0,0-.56-1.38,2.06,2.06,0,0,0-1.5-.54H81.78Zm0,6.53h3.76a2.89,2.89,0,0,0,1.27-.27,2.05,2.05,0,0,0,.89-.78A2.11,2.11,0,0,0,88,123a2.45,2.45,0,0,0-.29-1.18,2.11,2.11,0,0,0-.82-.83,2.49,2.49,0,0,0-1.25-.3H81.78Z"/><path class="cls-4" d="M163.27,127.22v-14.4h6.34a5.6,5.6,0,0,1,.59.07,4.26,4.26,0,0,1,2,.82,3.89,3.89,0,0,1,1.21,1.59,5.6,5.6,0,0,1,.4,2.12,5,5,0,0,1-.88,3,3.93,3.93,0,0,1-2.64,1.56l-.85.1h-4.08v5.17Zm2.09-7.15H169l.44,0a3.31,3.31,0,0,0,.47-.07,2.07,2.07,0,0,0,1-.56,2.47,2.47,0,0,0,.56-.93,3.39,3.39,0,0,0,0-2.12,2.47,2.47,0,0,0-.56-.93,2.06,2.06,0,0,0-1-.55,2.31,2.31,0,0,0-.47-.08l-.44,0h-3.65Zm6.33,7.15-2.84-5.86,2.11-.54,3.12,6.4Z"/><path class="cls-4" d="M181.07,127.52a5.53,5.53,0,0,1-2.83-.71,4.85,4.85,0,0,1-1.89-2,6.12,6.12,0,0,1-.67-2.93,6.71,6.71,0,0,1,.66-3.07,4.83,4.83,0,0,1,1.86-2,5.31,5.31,0,0,1,2.77-.71,5,5,0,0,1,2.81.76,4.61,4.61,0,0,1,1.73,2.18,7.49,7.49,0,0,1,.46,3.35h-2.09v-.76a4.63,4.63,0,0,0-.72-2.78,2.5,2.5,0,0,0-2.11-.9,2.82,2.82,0,0,0-2.36,1,4.47,4.47,0,0,0-.79,2.86,4.23,4.23,0,0,0,.79,2.75,2.75,2.75,0,0,0,2.28,1,3.09,3.09,0,0,0,1.69-.45,3,3,0,0,0,1.12-1.27l2.05.65a4.83,4.83,0,0,1-1.91,2.24A5.33,5.33,0,0,1,181.07,127.52Zm-3.85-5.11v-1.63h7.71v1.63Z"/><path class="cls-4" d="M192.5,127.52a4.51,4.51,0,0,1-2.61-.75,4.89,4.89,0,0,1-1.69-2,7,7,0,0,1-.59-2.91,6.83,6.83,0,0,1,.6-2.92,5,5,0,0,1,1.7-2,4.64,4.64,0,0,1,2.63-.74,4.34,4.34,0,0,1,2.57.74,4.56,4.56,0,0,1,1.58,2,8.11,8.11,0,0,1,0,5.82,4.65,4.65,0,0,1-1.59,2A4.3,4.3,0,0,1,192.5,127.52Zm.29-1.89a2.72,2.72,0,0,0,1.68-.49,2.84,2.84,0,0,0,.95-1.35,6,6,0,0,0,.3-2,5.72,5.72,0,0,0-.31-2,2.75,2.75,0,0,0-.94-1.34,2.59,2.59,0,0,0-1.61-.48,2.72,2.72,0,0,0-1.71.51,3,3,0,0,0-1,1.37,5.52,5.52,0,0,0-.32,1.92,5.58,5.58,0,0,0,.32,1.93,3.13,3.13,0,0,0,1,1.38A2.63,2.63,0,0,0,192.79,125.63Zm2.93,1.59v-7.77h-.24v-6.63h2.1v14.4Z"/><path class="cls-4" d="M200.58,114.65v-2h2.09v2Zm0,12.57v-10.8h2.09v10.8Z"/><path class="cls-4" d="M209.8,127.51a5.44,5.44,0,0,1-3.21-.87,3.61,3.61,0,0,1-1.52-2.45l2.14-.33a2.11,2.11,0,0,0,.92,1.32,3.16,3.16,0,0,0,1.81.49,2.55,2.55,0,0,0,1.53-.4,1.29,1.29,0,0,0,.56-1.1,1.09,1.09,0,0,0-.2-.67A1.82,1.82,0,0,0,211,123q-.63-.22-1.89-.57a11,11,0,0,1-2.21-.78,2.8,2.8,0,0,1-1.16-1,2.47,2.47,0,0,1-.34-1.34,2.86,2.86,0,0,1,.52-1.71,3.29,3.29,0,0,1,1.46-1.13,5.61,5.61,0,0,1,2.22-.4,5.92,5.92,0,0,1,2.21.39,4,4,0,0,1,1.57,1.1,3.18,3.18,0,0,1,.72,1.68l-2.14.39a1.8,1.8,0,0,0-.73-1.23,2.93,2.93,0,0,0-1.61-.49,2.74,2.74,0,0,0-1.54.31,1.09,1.09,0,0,0-.59,1,.88.88,0,0,0,.22.61,2.1,2.1,0,0,0,.88.48c.43.15,1.07.34,1.92.55a10.35,10.35,0,0,1,2.16.77,2.86,2.86,0,0,1,1.14,1,2.77,2.77,0,0,1,.35,1.42A3,3,0,0,1,213,126.6,5.06,5.06,0,0,1,209.8,127.51Z"/><path class="cls-4" d="M290.91,123.22v-14.4h6.34a5,5,0,0,1,.59.07,4.34,4.34,0,0,1,2,.82,3.87,3.87,0,0,1,1.2,1.59,5.84,5.84,0,0,1,0,4.25,3.87,3.87,0,0,1-1.2,1.59,4.34,4.34,0,0,1-2,.82,5.11,5.11,0,0,1-.59.06l-.52,0H293v5.17Zm2.09-7.15h3.65l.45,0a3.17,3.17,0,0,0,.46-.07,2,2,0,0,0,1-.56,2.35,2.35,0,0,0,.56-.93,3.39,3.39,0,0,0,0-2.12,2.35,2.35,0,0,0-.56-.93,2,2,0,0,0-1-.55,2.21,2.21,0,0,0-.46-.08l-.45,0H293Z"/><path class="cls-4" d="M308,123.52a5.25,5.25,0,0,1-2.81-.73,4.9,4.9,0,0,1-1.83-2,7.06,7.06,0,0,1,0-5.94,5,5,0,0,1,1.85-2,5.37,5.37,0,0,1,2.78-.71,5.23,5.23,0,0,1,2.81.73,4.89,4.89,0,0,1,1.84,2,7.06,7.06,0,0,1,0,5.92,4.86,4.86,0,0,1-1.85,2A5.22,5.22,0,0,1,308,123.52Zm0-2a2.69,2.69,0,0,0,2.32-1,5.15,5.15,0,0,0,0-5.4,2.75,2.75,0,0,0-2.31-1,3,3,0,0,0-1.73.47,2.89,2.89,0,0,0-1,1.31,5.29,5.29,0,0,0-.33,1.94,4.37,4.37,0,0,0,.78,2.72A2.7,2.7,0,0,0,308,121.55Z"/><path class="cls-4" d="M319.44,123.51a5.48,5.48,0,0,1-3.21-.87,3.68,3.68,0,0,1-1.52-2.45l2.14-.33a2.13,2.13,0,0,0,.93,1.32,3.1,3.1,0,0,0,1.8.49,2.56,2.56,0,0,0,1.54-.4,1.28,1.28,0,0,0,.55-1.1,1.09,1.09,0,0,0-.19-.67,1.8,1.8,0,0,0-.82-.48q-.62-.22-1.89-.57a10.92,10.92,0,0,1-2.2-.78,2.73,2.73,0,0,1-1.16-1,2.47,2.47,0,0,1-.35-1.34,2.93,2.93,0,0,1,.52-1.71,3.38,3.38,0,0,1,1.47-1.13,5.59,5.59,0,0,1,2.21-.4,5.85,5.85,0,0,1,2.21.39,3.94,3.94,0,0,1,1.57,1.1,3.18,3.18,0,0,1,.72,1.68l-2.14.39a1.73,1.73,0,0,0-.73-1.23,2.9,2.9,0,0,0-1.61-.49,2.78,2.78,0,0,0-1.54.31,1.11,1.11,0,0,0-.59,1,.89.89,0,0,0,.23.61,2.12,2.12,0,0,0,.87.48c.44.15,1.08.34,1.92.55a9.94,9.94,0,0,1,2.16.77,2.83,2.83,0,0,1,1.15,1,2.77,2.77,0,0,1,.34,1.42,3,3,0,0,1-1.16,2.51A5.09,5.09,0,0,1,319.44,123.51Z"/><path class="cls-4" d="M324.83,114.1v-1.68h7.38v1.68Zm7.38,9.12a9.11,9.11,0,0,1-2,.17,4.63,4.63,0,0,1-1.75-.38,2.38,2.38,0,0,1-1.16-1.1,3.12,3.12,0,0,1-.37-1.37c0-.46,0-1,0-1.57v-9.55H329v9.45c0,.43,0,.81,0,1.13a1.67,1.67,0,0,0,.2.81,1.4,1.4,0,0,0,1.15.7,7.33,7.33,0,0,0,1.84-.06Z"/><path class="cls-4" d="M338.77,123.52a4.5,4.5,0,0,1-2.6-.75,4.82,4.82,0,0,1-1.69-2,7.38,7.38,0,0,1,0-5.83,4.93,4.93,0,0,1,1.71-2,4.61,4.61,0,0,1,2.62-.74,4.39,4.39,0,0,1,2.58.74,4.7,4.7,0,0,1,1.58,2,7.66,7.66,0,0,1,.53,2.91,7.47,7.47,0,0,1-.54,2.91,4.65,4.65,0,0,1-1.59,2A4.28,4.28,0,0,1,338.77,123.52Zm.16,4.8a5.28,5.28,0,0,1-1.68-.27,4.87,4.87,0,0,1-1.49-.8,4.63,4.63,0,0,1-1.11-1.29l1.93-1a2.22,2.22,0,0,0,1,1,3.13,3.13,0,0,0,1.37.32,3.38,3.38,0,0,0,1.52-.32,2.13,2.13,0,0,0,1-.94,3.34,3.34,0,0,0,.31-1.56v-3H342v-8h1.85v11.09c0,.28,0,.56,0,.82a7,7,0,0,1-.11.78,3.75,3.75,0,0,1-.87,1.8,4,4,0,0,1-1.64,1.06A6.92,6.92,0,0,1,338.93,128.32Zm.13-6.69a2.68,2.68,0,0,0,1.68-.49,2.78,2.78,0,0,0,.95-1.35,6.68,6.68,0,0,0,0-4,2.89,2.89,0,0,0-.94-1.34,2.62,2.62,0,0,0-1.62-.48,2.76,2.76,0,0,0-1.71.51,3,3,0,0,0-1,1.37,5.3,5.3,0,0,0-.33,1.92,5.35,5.35,0,0,0,.33,1.93,3,3,0,0,0,1,1.38A2.6,2.6,0,0,0,339.06,121.63Z"/><path class="cls-4" d="M346.64,123.22v-10.8h1.86V115l-.26-.34a4,4,0,0,1,.52-1,2.93,2.93,0,0,1,.74-.71,3.2,3.2,0,0,1,.92-.47,4.47,4.47,0,0,1,1-.2,4.31,4.31,0,0,1,1,.06v2a3.41,3.41,0,0,0-1.17-.08,2.65,2.65,0,0,0-1.19.41,2.54,2.54,0,0,0-.8.8,3.31,3.31,0,0,0-.43,1,5.37,5.37,0,0,0-.13,1.22v5.45Z"/><path class="cls-4" d="M359,123.52a5.52,5.52,0,0,1-2.82-.71,4.85,4.85,0,0,1-1.89-2,6.12,6.12,0,0,1-.68-2.93,6.59,6.59,0,0,1,.67-3.07,4.81,4.81,0,0,1,1.85-2,5.33,5.33,0,0,1,2.77-.71,5,5,0,0,1,2.81.76,4.69,4.69,0,0,1,1.74,2.18,7.64,7.64,0,0,1,.45,3.35h-2.09v-.76a4.63,4.63,0,0,0-.71-2.78,2.52,2.52,0,0,0-2.12-.9,2.84,2.84,0,0,0-2.36,1,4.47,4.47,0,0,0-.79,2.86,4.23,4.23,0,0,0,.79,2.75,2.78,2.78,0,0,0,2.28,1,3.15,3.15,0,0,0,1.7-.45,3,3,0,0,0,1.11-1.27l2.05.65a4.77,4.77,0,0,1-1.91,2.24A5.28,5.28,0,0,1,359,123.52Zm-3.85-5.11v-1.63h7.71v1.63Z"/><path class="cls-4" d="M317.13,147.52a6.94,6.94,0,0,1-2.79-.54,5.09,5.09,0,0,1-3.1-3.89l2.18-.33a3.42,3.42,0,0,0,1.38,2.05,4.18,4.18,0,0,0,2.45.74,4.34,4.34,0,0,0,1.6-.28,2.77,2.77,0,0,0,1.18-.79,1.84,1.84,0,0,0,.44-1.23,1.67,1.67,0,0,0-.13-.69A1.8,1.8,0,0,0,320,142a2.39,2.39,0,0,0-.57-.39,5,5,0,0,0-.74-.28L315,140.27a9.45,9.45,0,0,1-1.1-.42,4,4,0,0,1-1-.67,3.21,3.21,0,0,1-.76-1,3.5,3.5,0,0,1-.29-1.49,3.68,3.68,0,0,1,.69-2.26,4.25,4.25,0,0,1,1.85-1.4,7.07,7.07,0,0,1,2.62-.47,6.8,6.8,0,0,1,2.62.52,5,5,0,0,1,1.92,1.43,5.29,5.29,0,0,1,1.05,2.27l-2.24.38a3,3,0,0,0-.64-1.4,3.25,3.25,0,0,0-1.2-.9,3.89,3.89,0,0,0-1.54-.32,3.83,3.83,0,0,0-1.46.24,2.51,2.51,0,0,0-1.06.73,1.59,1.59,0,0,0-.4,1.08,1.37,1.37,0,0,0,.35,1,2.33,2.33,0,0,0,.87.58,6.9,6.9,0,0,0,1,.36l2.66.75c.34.09.71.22,1.14.37a5.66,5.66,0,0,1,1.23.66,3.41,3.41,0,0,1,1,1.11,3.57,3.57,0,0,1,.39,1.75,4,4,0,0,1-.44,1.91,4,4,0,0,1-1.2,1.38,5.57,5.57,0,0,1-1.77.84A7.63,7.63,0,0,1,317.13,147.52Z"/><path class="cls-4" d="M330.79,147.52a6.83,6.83,0,0,1-3.68-1,6.06,6.06,0,0,1-2.32-2.63,9.89,9.89,0,0,1,0-7.84,6.09,6.09,0,0,1,2.32-2.64,7.67,7.67,0,0,1,7.36,0,6.09,6.09,0,0,1,2.32,2.64,10,10,0,0,1,0,7.84,6.06,6.06,0,0,1-2.32,2.63A6.85,6.85,0,0,1,330.79,147.52Zm0-2a4.3,4.3,0,0,0,2.55-.68,4.24,4.24,0,0,0,1.52-1.94,8.44,8.44,0,0,0,0-5.78,4.23,4.23,0,0,0-1.52-1.92,4.53,4.53,0,0,0-2.55-.7,4.32,4.32,0,0,0-2.54.67,4.19,4.19,0,0,0-1.53,1.94,7.82,7.82,0,0,0-.52,2.9,7.49,7.49,0,0,0,.5,2.88,4.12,4.12,0,0,0,1.54,1.93A4.53,4.53,0,0,0,330.79,145.53Zm5.28,2-4-4,1.34-1.34,4,4Z"/><path class="cls-4" d="M339.79,147.22v-14.4h2.09v12.43h6.52v2Z"/><path class="cls-4" d="M437,119.72v-14.4h1.89l5.22,10.83,5.19-10.83h1.91v14.39h-2v-9.85l-4.65,9.86h-.95L439,109.86v9.86Z"/><path class="cls-4" d="M455.51,124.52l2.09-5.69,0,1.68-4.71-11.59h2.18l3.52,9H458l3.36-9h2.12l-6,15.6Z"/><path class="cls-4" d="M470.24,120a6.94,6.94,0,0,1-2.79-.54,5.09,5.09,0,0,1-3.1-3.89l2.18-.33a3.42,3.42,0,0,0,1.38,2,4.18,4.18,0,0,0,2.45.74,4.34,4.34,0,0,0,1.6-.28,2.77,2.77,0,0,0,1.18-.79,1.84,1.84,0,0,0,.44-1.23,1.67,1.67,0,0,0-.13-.69,1.8,1.8,0,0,0-.37-.53,2.39,2.39,0,0,0-.57-.39,5,5,0,0,0-.74-.28l-3.69-1.09a9.45,9.45,0,0,1-1.1-.42,4,4,0,0,1-1-.67,3.21,3.21,0,0,1-.76-1,3.5,3.5,0,0,1-.29-1.49,3.68,3.68,0,0,1,.69-2.26,4.25,4.25,0,0,1,1.85-1.4,7.07,7.07,0,0,1,2.62-.47,6.76,6.76,0,0,1,2.62.52,5,5,0,0,1,1.92,1.43,5.29,5.29,0,0,1,1.05,2.27l-2.24.38a3,3,0,0,0-.64-1.4,3.17,3.17,0,0,0-1.2-.9A3.89,3.89,0,0,0,470,107a3.83,3.83,0,0,0-1.46.24,2.51,2.51,0,0,0-1.06.73,1.59,1.59,0,0,0-.4,1.08,1.37,1.37,0,0,0,.35,1,2.42,2.42,0,0,0,.87.58,6.9,6.9,0,0,0,1,.36l2.66.75c.34.09.71.22,1.14.37a5.66,5.66,0,0,1,1.23.66,3.41,3.41,0,0,1,1,1.11,3.57,3.57,0,0,1,.39,1.75,3.9,3.9,0,0,1-.44,1.91,4,4,0,0,1-1.2,1.38,5.57,5.57,0,0,1-1.77.84A7.63,7.63,0,0,1,470.24,120Z"/><path class="cls-4" d="M483.9,120a6.85,6.85,0,0,1-3.68-1,6.06,6.06,0,0,1-2.32-2.63,9.89,9.89,0,0,1,0-7.84,6.09,6.09,0,0,1,2.32-2.64,7.67,7.67,0,0,1,7.36,0,6.09,6.09,0,0,1,2.32,2.64,10,10,0,0,1,0,7.84,6.06,6.06,0,0,1-2.32,2.63A6.85,6.85,0,0,1,483.9,120Zm0-2a4.3,4.3,0,0,0,2.55-.68,4.24,4.24,0,0,0,1.52-1.94,8.44,8.44,0,0,0,0-5.78,4.23,4.23,0,0,0-1.52-1.92,4.53,4.53,0,0,0-2.55-.7,4.34,4.34,0,0,0-2.54.67,4.19,4.19,0,0,0-1.53,1.94,7.82,7.82,0,0,0-.52,2.9,7.49,7.49,0,0,0,.5,2.88,4.18,4.18,0,0,0,1.54,1.93A4.53,4.53,0,0,0,483.9,118Zm5.28,2-4-4,1.34-1.34,4,4Z"/><path class="cls-4" d="M492.9,119.72v-14.4H495v12.43h6.52v2Z"/><path class="cls-4" d="M577.45,115.72v-14.4h9.2v2h-7.11v4h5.91v2h-5.91v4.45h7.11v2Z"/><path class="cls-4" d="M589.25,115.72V101h2.09v14.7Z"/><path class="cls-4" d="M597.39,116a4.09,4.09,0,0,1-2-.45,3,3,0,0,1-1.23-1.18,3.16,3.16,0,0,1-.41-1.61,3.25,3.25,0,0,1,.29-1.44,2.82,2.82,0,0,1,.86-1.06,4.59,4.59,0,0,1,1.4-.7,16,16,0,0,1,1.63-.37c.6-.11,1.24-.21,1.91-.3l2-.28-.76.42a2.7,2.7,0,0,0-.54-1.89,2.46,2.46,0,0,0-1.9-.61,3.17,3.17,0,0,0-1.56.39,2.1,2.1,0,0,0-1,1.31l-2-.6a4,4,0,0,1,1.52-2.21,5,5,0,0,1,3-.82,6,6,0,0,1,2.52.49,3.18,3.18,0,0,1,1.58,1.57,3.35,3.35,0,0,1,.32,1.12,12.59,12.59,0,0,1,.06,1.27v6.65h-1.85v-2.47l.36.32a4.57,4.57,0,0,1-1.71,1.84A4.9,4.9,0,0,1,597.39,116Zm.37-1.71a3.45,3.45,0,0,0,1.53-.32,3,3,0,0,0,1-.8,2.58,2.58,0,0,0,.51-1,3.92,3.92,0,0,0,.19-1.08q0-.6,0-1l.68.25-1.8.27-1.47.23a9,9,0,0,0-1.16.28,3.66,3.66,0,0,0-.77.36,1.73,1.73,0,0,0-.53.51,1.3,1.3,0,0,0-.19.73,1.46,1.46,0,0,0,.21.77,1.43,1.43,0,0,0,.64.57A2.48,2.48,0,0,0,597.76,114.31Z"/><path class="cls-4" d="M609.86,116a5.44,5.44,0,0,1-3.21-.87,3.66,3.66,0,0,1-1.53-2.45l2.15-.33a2.11,2.11,0,0,0,.92,1.32,3.14,3.14,0,0,0,1.81.49,2.55,2.55,0,0,0,1.53-.4,1.28,1.28,0,0,0,.55-1.1,1.09,1.09,0,0,0-.19-.67,1.82,1.82,0,0,0-.81-.48q-.63-.22-1.89-.57a10.82,10.82,0,0,1-2.21-.78,2.8,2.8,0,0,1-1.16-1,2.47,2.47,0,0,1-.34-1.34,2.86,2.86,0,0,1,.52-1.71,3.29,3.29,0,0,1,1.46-1.13,5.59,5.59,0,0,1,2.21-.4,5.85,5.85,0,0,1,2.21.39,4,4,0,0,1,1.58,1.1,3.17,3.17,0,0,1,.71,1.68l-2.13.39a1.8,1.8,0,0,0-.73-1.23,2.93,2.93,0,0,0-1.61-.49,2.74,2.74,0,0,0-1.54.31,1.09,1.09,0,0,0-.59,1,.88.88,0,0,0,.22.61,2.1,2.1,0,0,0,.88.48c.43.15,1.07.34,1.91.55a10.26,10.26,0,0,1,2.17.77,2.86,2.86,0,0,1,1.14,1,2.77,2.77,0,0,1,.35,1.42,3,3,0,0,1-1.17,2.51A5.08,5.08,0,0,1,609.86,116Z"/><path class="cls-4" d="M615.25,106.6v-1.68h7.37v1.68Zm7.37,9.12a9.06,9.06,0,0,1-2,.17,4.54,4.54,0,0,1-1.74-.38,2.36,2.36,0,0,1-1.17-1.1,3.27,3.27,0,0,1-.37-1.37c0-.46,0-1,0-1.57v-9.55h2.11v9.45c0,.43,0,.81,0,1.13a1.79,1.79,0,0,0,.2.81,1.43,1.43,0,0,0,1.15.7,7.32,7.32,0,0,0,1.84-.06Z"/><path class="cls-4" d="M625.09,103.15v-2h2.1v2Zm0,12.57v-10.8h2.1v10.8Z"/><path class="cls-4" d="M634.8,116a5.14,5.14,0,0,1-2.81-.74,4.75,4.75,0,0,1-1.78-2,6.89,6.89,0,0,1-.63-2.93,6.68,6.68,0,0,1,.65-3,4.87,4.87,0,0,1,1.8-2,5.69,5.69,0,0,1,5.83.15,4.14,4.14,0,0,1,1.66,2.41l-2.08.6a2.83,2.83,0,0,0-1-1.42,3,3,0,0,0-3.3,0,2.91,2.91,0,0,0-1,1.33,5.67,5.67,0,0,0-.33,1.92,4.57,4.57,0,0,0,.77,2.7,2.58,2.58,0,0,0,2.23,1,2.68,2.68,0,0,0,1.64-.47,2.93,2.93,0,0,0,1-1.33l2.12.5a4.68,4.68,0,0,1-1.75,2.42A5.07,5.07,0,0,1,634.8,116Z"/><path class="cls-4" d="M583.13,140a7,7,0,0,1-2.8-.54,5.15,5.15,0,0,1-2.05-1.53,5,5,0,0,1-1-2.36l2.18-.33a3.42,3.42,0,0,0,1.38,2.05,4.15,4.15,0,0,0,2.45.74,4.37,4.37,0,0,0,1.6-.28A2.79,2.79,0,0,0,586,137a1.79,1.79,0,0,0,.45-1.23,1.67,1.67,0,0,0-.14-.69,1.64,1.64,0,0,0-.37-.53,2.39,2.39,0,0,0-.57-.39,4.82,4.82,0,0,0-.73-.28L581,132.77a8.81,8.81,0,0,1-1.1-.42,3.88,3.88,0,0,1-1-.67,3,3,0,0,1-.75-1,3.36,3.36,0,0,1-.29-1.49,3.67,3.67,0,0,1,.68-2.26,4.34,4.34,0,0,1,1.86-1.4A7,7,0,0,1,583,125a6.75,6.75,0,0,1,2.61.52,5,5,0,0,1,1.92,1.43,5.42,5.42,0,0,1,1.06,2.27l-2.24.38a3.06,3.06,0,0,0-.64-1.4,3.33,3.33,0,0,0-1.2-.9,4,4,0,0,0-1.54-.32,3.85,3.85,0,0,0-1.47.24,2.58,2.58,0,0,0-1.06.73,1.63,1.63,0,0,0-.39,1.08,1.33,1.33,0,0,0,.35,1,2.38,2.38,0,0,0,.86.58,7,7,0,0,0,1,.36l2.66.75c.33.09.71.22,1.13.37a5.66,5.66,0,0,1,1.23.66,3.33,3.33,0,0,1,1,1.11,3.57,3.57,0,0,1,.39,1.75,4,4,0,0,1-.44,1.91A4.11,4.11,0,0,1,587,138.9a5.62,5.62,0,0,1-1.76.84A7.68,7.68,0,0,1,583.13,140Z"/><path class="cls-4" d="M595.57,140a5.53,5.53,0,0,1-2.83-.71,4.85,4.85,0,0,1-1.89-2,6.12,6.12,0,0,1-.67-2.93,6.71,6.71,0,0,1,.66-3.07,4.76,4.76,0,0,1,1.86-2,5.31,5.31,0,0,1,2.77-.71,5,5,0,0,1,2.81.76,4.61,4.61,0,0,1,1.73,2.18,7.64,7.64,0,0,1,.46,3.35h-2.09v-.76a4.7,4.7,0,0,0-.72-2.78,2.5,2.5,0,0,0-2.11-.9,2.82,2.82,0,0,0-2.36,1,4.47,4.47,0,0,0-.79,2.86,4.23,4.23,0,0,0,.79,2.75,2.75,2.75,0,0,0,2.28,1,3.11,3.11,0,0,0,1.69-.45,3,3,0,0,0,1.12-1.27l2.05.65a4.83,4.83,0,0,1-1.91,2.24A5.33,5.33,0,0,1,595.57,140Zm-3.85-5.11v-1.63h7.71v1.63Z"/><path class="cls-4" d="M605.56,140a4.09,4.09,0,0,1-2-.45,3,3,0,0,1-1.23-1.18,3.16,3.16,0,0,1-.41-1.61,3.25,3.25,0,0,1,.29-1.44,2.82,2.82,0,0,1,.86-1.06,4.59,4.59,0,0,1,1.4-.7,16,16,0,0,1,1.63-.37c.6-.11,1.24-.21,1.91-.3l2-.28-.76.42a2.7,2.7,0,0,0-.54-1.89,2.46,2.46,0,0,0-1.9-.61,3.17,3.17,0,0,0-1.56.39,2.1,2.1,0,0,0-1,1.31l-2-.6a4,4,0,0,1,1.52-2.21,5,5,0,0,1,3-.82,6,6,0,0,1,2.52.49,3.18,3.18,0,0,1,1.58,1.57,3.35,3.35,0,0,1,.32,1.12,12.59,12.59,0,0,1,.06,1.27v6.65h-1.85v-2.47l.36.32a4.57,4.57,0,0,1-1.71,1.84A4.9,4.9,0,0,1,605.56,140Zm.37-1.71a3.45,3.45,0,0,0,1.53-.32,3,3,0,0,0,1-.8,2.58,2.58,0,0,0,.51-1,3.92,3.92,0,0,0,.19-1.08q0-.6,0-1l.68.25-1.8.27-1.47.23a9,9,0,0,0-1.16.28,3.66,3.66,0,0,0-.77.36,1.73,1.73,0,0,0-.53.51,1.3,1.3,0,0,0-.19.73,1.46,1.46,0,0,0,.21.77,1.43,1.43,0,0,0,.64.57A2.48,2.48,0,0,0,605.93,138.31Z"/><path class="cls-4" d="M613.9,139.72v-10.8h1.85v2.62l-.25-.34a4,4,0,0,1,.51-1,3.53,3.53,0,0,1,1.66-1.18,4.56,4.56,0,0,1,1-.2,4.31,4.31,0,0,1,1,.06v2a3.49,3.49,0,0,0-1.18-.08,2.61,2.61,0,0,0-1.18.41,2.69,2.69,0,0,0-.81.8,3.31,3.31,0,0,0-.43,1,6,6,0,0,0-.13,1.22v5.45Z"/><path class="cls-4" d="M626,140a5.14,5.14,0,0,1-2.81-.74,4.75,4.75,0,0,1-1.78-2,6.74,6.74,0,0,1-.62-2.93,6.54,6.54,0,0,1,.64-3,4.87,4.87,0,0,1,1.8-2,5.69,5.69,0,0,1,5.83.15,4.14,4.14,0,0,1,1.66,2.41l-2.08.6a2.83,2.83,0,0,0-1-1.42,3,3,0,0,0-3.3,0,2.89,2.89,0,0,0-1,1.33,5.43,5.43,0,0,0-.34,1.92,4.57,4.57,0,0,0,.77,2.7,2.58,2.58,0,0,0,2.23,1,2.68,2.68,0,0,0,1.64-.47,2.86,2.86,0,0,0,1-1.33l2.12.5a4.68,4.68,0,0,1-1.75,2.42A5,5,0,0,1,626,140Z"/><path class="cls-4" d="M632.79,139.72v-14.4h1.87v7.77h.25v6.63Zm7.59,0v-5.31a8.45,8.45,0,0,0-.11-1.3,4,4,0,0,0-.4-1.23A2.37,2.37,0,0,0,639,131a2.53,2.53,0,0,0-1.39-.35,3.06,3.06,0,0,0-1.06.18,2.3,2.3,0,0,0-.88.6,2.78,2.78,0,0,0-.59,1.08,5.52,5.52,0,0,0-.21,1.63l-1.3-.49a5.81,5.81,0,0,1,.55-2.6,4.06,4.06,0,0,1,1.58-1.75,4.65,4.65,0,0,1,2.49-.63,4.41,4.41,0,0,1,1.88.36,3.54,3.54,0,0,1,1.23.94,4.42,4.42,0,0,1,.73,1.28,7,7,0,0,1,.34,1.35,8.76,8.76,0,0,1,.09,1.16v6Z"/></g></g></svg>