<svg xmlns="http://www.w3.org/2000/svg" xmlns:xlink="http://www.w3.org/1999/xlink" width="345" height="316.175" viewBox="0 0 345 316.175">
  <defs>
    <clipPath id="clip-path">
      <path id="Path_20572" data-name="Path 20572" d="M230.884,250.633l2.7,1.435-1.679,8.821s-2.213,17.618,0,22.48,6.392,44.961,6.392,44.961c-7.083,118.461,271.614,49.457,271.614,49.457S489.568,145.895,525.893,98.5H228.7v151Z" transform="translate(-228.7 -98.5)" fill="none"/>
    </clipPath>
  </defs>
  <g id="Group_808" data-name="Group 808" transform="translate(-14098 -6017)">
    <rect id="Rectangle_1322" data-name="Rectangle 1322" width="345" height="307" transform="translate(14098 6017)" fill="none"/>
    <g id="Delivery-bro" transform="translate(13946.953 5931.532)">
      <g id="freepik--Character--inject-1--inject-25" transform="translate(174.95 102.376)">
        <path id="Path_20547" data-name="Path 20547" d="M251.246,265.29a6.181,6.181,0,0,1-.311,3.969,15.92,15.92,0,0,1-2.135,2.757" transform="translate(-166.696 -84.169)" fill="none" stroke="#263238" stroke-linecap="round" stroke-linejoin="round" stroke-width="0.418"/>
        <path id="Path_20548" data-name="Path 20548" d="M254.423,265.29a18.644,18.644,0,0,1-.923,3.669" transform="translate(-166.171 -84.169)" fill="none" stroke="#263238" stroke-linecap="round" stroke-linejoin="round" stroke-width="0.418"/>
        <path id="Path_20549" data-name="Path 20549" d="M256.9,264.46a19.354,19.354,0,0,1-.923,3.669" transform="translate(-165.894 -84.261)" fill="none" stroke="#263238" stroke-linecap="round" stroke-linejoin="round" stroke-width="0.418"/>
        <g id="Group_771" data-name="Group 771" clip-path="url(#clip-path)">
          <path id="Path_20559" data-name="Path 20559" d="M263.835,158.259l-8.171,4.714-4.614-8.06,8.16-4.7Z" transform="translate(-166.445 -97.03)" fill="none" stroke="#263238" stroke-linecap="round" stroke-linejoin="round" stroke-width="0.835"/>
          <path id="Path_20560" data-name="Path 20560" d="M262.133,150.626l-12.863,7.427-7.66-14.186,12.863-7.427Z" transform="translate(-167.5 -98.569)" fill="none" stroke="#263238" stroke-linecap="round" stroke-linejoin="round" stroke-width="0.835"/>
          <circle id="Ellipse_70" data-name="Ellipse 70" cx="98.902" cy="98.902" r="98.902" transform="translate(8.676 162.368) rotate(-45)" fill="#fff"/>
          <path id="Path_20561" data-name="Path 20561" d="M320.82,144.2a114.285,114.285,0,1,0,.011,0Zm0,213.069a98.947,98.947,0,1,1,98.947-98.947A98.947,98.947,0,0,1,320.82,357.269Z" transform="translate(-171.41 -97.702)" fill="#263238" stroke="#263238" stroke-linecap="round" stroke-linejoin="round" stroke-width="0.835"/>
          <path id="Path_20562" data-name="Path 20562" d="M376.226,171.476A110.865,110.865,0,0,0,337.67,151.12" transform="translate(-156.764 -96.929)" fill="none" stroke="#fff" stroke-linecap="round" stroke-linejoin="round" stroke-width="1.67"/>
          <path id="Path_20563" data-name="Path 20563" d="M329.429,148.984A112.914,112.914,0,0,0,317.2,147.35" transform="translate(-159.052 -97.35)" fill="none" stroke="#fff" stroke-linecap="round" stroke-linejoin="round" stroke-width="1.67"/>
          <path id="Path_20564" data-name="Path 20564" d="M384.464,314.354A103.294,103.294,0,0,0,382.24,189.37" transform="translate(-151.783 -92.654)" fill="none" stroke="#fff" stroke-linecap="round" stroke-linejoin="round" stroke-width="0.835"/>
          <path id="Path_20565" data-name="Path 20565" d="M371.26,317.013a101.473,101.473,0,0,0,9.139-9.283" transform="translate(-153.01 -79.425)" fill="none" stroke="#fff" stroke-linecap="round" stroke-linejoin="round" stroke-width="0.835"/>
          <path id="Path_20566" data-name="Path 20566" d="M271.59,333.147a103.394,103.394,0,0,0,106.729-13.9" transform="translate(-164.149 -78.138)" fill="none" stroke="#fff" stroke-linecap="round" stroke-linejoin="round" stroke-width="0.835"/>
          <path id="Path_20567" data-name="Path 20567" d="M258.34,324.5a102.358,102.358,0,0,0,9.572,5.559" transform="translate(-165.63 -77.551)" fill="none" stroke="#fff" stroke-linecap="round" stroke-linejoin="round" stroke-width="0.835"/>
          <path id="Path_20568" data-name="Path 20568" d="M248.38,316.94a102.876,102.876,0,0,0,8.138,6.393" transform="translate(-166.743 -78.396)" fill="none" stroke="#fff" stroke-linecap="round" stroke-linejoin="round" stroke-width="0.835"/>
          <path id="Path_20569" data-name="Path 20569" d="M291.168,157.63A103.26,103.26,0,0,0,249.21,332.277" transform="translate(-170.309 -96.201)" fill="none" stroke="#fff" stroke-linecap="round" stroke-linejoin="round" stroke-width="0.835"/>
          <path id="Path_20570" data-name="Path 20570" d="M384.417,184.27a103.394,103.394,0,0,0-93.677-28.161" transform="translate(-162.009 -96.603)" fill="none" stroke="#fff" stroke-linecap="round" stroke-linejoin="round" stroke-width="0.835"/>
          <rect id="Rectangle_1216" data-name="Rectangle 1216" width="29.706" height="8.049" transform="translate(134.501 197.231)" fill="#0091ff"/>
          <path id="Path_20571" data-name="Path 20571" d="M318.469,253.171a8.283,8.283,0,0,0-6.8-8.149l-.879-54.332h-1.234l-.867,54.332a8.283,8.283,0,0,0-.256,16.254l-.311,19.278h4.114l-.311-19.278A8.3,8.3,0,0,0,318.469,253.171Zm-8.294,4.447a4.447,4.447,0,1,1,4.447-4.447A4.447,4.447,0,0,1,310.175,257.618Z" transform="translate(-160.765 -92.506)" fill="#263238"/>
          <circle id="Ellipse_71" data-name="Ellipse 71" cx="4.569" cy="4.569" r="4.569" transform="translate(144.84 156.096)" fill="#0091ff"/>
          <line id="Line_70" data-name="Line 70" y2="16.465" transform="translate(149.41 67.31)" fill="none" stroke="#263238" stroke-linecap="round" stroke-linejoin="round" stroke-width="3.34"/>
          <line id="Line_71" data-name="Line 71" y2="16.465" transform="translate(149.41 238.121)" fill="none" stroke="#263238" stroke-linecap="round" stroke-linejoin="round" stroke-width="3.34"/>
          <line id="Line_72" data-name="Line 72" x2="8.227" y2="14.253" transform="translate(102.593 79.862)" fill="none" stroke="#263238" stroke-linecap="round" stroke-linejoin="round" stroke-width="3.34"/>
          <line id="Line_73" data-name="Line 73" x2="8.227" y2="14.264" transform="translate(187.999 227.782)" fill="none" stroke="#263238" stroke-linecap="round" stroke-linejoin="round" stroke-width="3.34"/>
          <line id="Line_74" data-name="Line 74" x2="14.253" y2="8.238" transform="translate(68.318 114.127)" fill="none" stroke="#263238" stroke-linecap="round" stroke-linejoin="round" stroke-width="3.34"/>
          <line id="Line_75" data-name="Line 75" x2="14.264" y2="8.238" transform="translate(216.238 199.532)" fill="none" stroke="#263238" stroke-linecap="round" stroke-linejoin="round" stroke-width="3.34"/>
          <line id="Line_76" data-name="Line 76" x1="16.465" transform="translate(226.577 160.954)" fill="none" stroke="#263238" stroke-linecap="round" stroke-linejoin="round" stroke-width="3.34"/>
          <line id="Line_77" data-name="Line 77" x1="16.465" transform="translate(55.766 160.954)" fill="none" stroke="#263238" stroke-linecap="round" stroke-linejoin="round" stroke-width="3.34"/>
          <line id="Line_78" data-name="Line 78" x1="16.465" transform="translate(226.577 160.954)" fill="none" stroke="#263238" stroke-linecap="round" stroke-linejoin="round" stroke-width="3.34"/>
          <line id="Line_79" data-name="Line 79" x1="16.465" transform="translate(55.766 160.954)" fill="none" stroke="#263238" stroke-linecap="round" stroke-linejoin="round" stroke-width="3.34"/>
          <path id="Path_21199" data-name="Path 21199" d="M17.959,69.97" transform="translate(232.508 121.947)" fill="none" stroke="#263238" stroke-linecap="round" stroke-width="3.34"/>
          <line id="Line_81" data-name="Line 81" x1="14.253" y2="8.238" transform="translate(68.318 199.532)" fill="none" stroke="#263238" stroke-linecap="round" stroke-linejoin="round" stroke-width="3.34"/>
          <line id="Line_82" data-name="Line 82" x1="8.227" y2="14.253" transform="translate(187.999 79.862)" fill="none" stroke="#263238" stroke-linecap="round" stroke-linejoin="round" stroke-width="3.34"/>
          <line id="Line_83" data-name="Line 83" x1="8.227" y2="14.264" transform="translate(102.593 227.782)" fill="none" stroke="#263238" stroke-linecap="round" stroke-linejoin="round" stroke-width="3.34"/>
          <rect id="Rectangle_1217" data-name="Rectangle 1217" width="9.428" height="8.338" transform="translate(144.696 42.907)" fill="none" stroke="#263238" stroke-linecap="round" stroke-linejoin="round" stroke-width="0.835"/>
          <rect id="Rectangle_1218" data-name="Rectangle 1218" width="14.853" height="21.802" transform="translate(141.983 20.627)" fill="none" stroke="#263238" stroke-linecap="round" stroke-linejoin="round" stroke-width="0.835"/>
          <rect id="Rectangle_1219" data-name="Rectangle 1219" width="21.501" height="14.853" transform="translate(138.426 5.285)" fill="#0091ff"/>
          <rect id="Rectangle_1220" data-name="Rectangle 1220" width="21.501" height="14.853" transform="translate(138.659 5.285)" fill="none" stroke="#263238" stroke-linecap="round" stroke-linejoin="round" stroke-width="0.835"/>
          <line id="Line_84" data-name="Line 84" y1="8.905" transform="translate(141.049 5.619)" fill="none" stroke="#263238" stroke-linecap="round" stroke-linejoin="round" stroke-width="0.835"/>
          <line id="Line_85" data-name="Line 85" y1="3.836" transform="translate(141.049 16.581)" fill="none" stroke="#263238" stroke-linecap="round" stroke-linejoin="round" stroke-width="0.835"/>
          <line id="Line_86" data-name="Line 86" y1="14.798" transform="translate(143.784 5.619)" fill="none" stroke="#263238" stroke-linecap="round" stroke-linejoin="round" stroke-width="0.835"/>
          <line id="Line_87" data-name="Line 87" y1="3.702" transform="translate(146.519 5.619)" fill="none" stroke="#263238" stroke-linecap="round" stroke-linejoin="round" stroke-width="0.835"/>
          <line id="Line_88" data-name="Line 88" y1="9.317" transform="translate(146.519 11.1)" fill="none" stroke="#263238" stroke-linecap="round" stroke-linejoin="round" stroke-width="0.835"/>
          <line id="Line_89" data-name="Line 89" y1="14.798" transform="translate(151.044 5.619)" fill="none" stroke="#263238" stroke-linecap="round" stroke-linejoin="round" stroke-width="0.835"/>
        </g>
      </g>
    </g>
  </g>
</svg>
