<svg xmlns="http://www.w3.org/2000/svg" viewBox="0 0 801.46 122.91"><defs><style>.cls-1{fill:none;}.cls-2{fill:#0091ff;}</style></defs><g id="Layer_2" data-name="Layer 2"><g id="Layer_1-2" data-name="Layer 1"><rect class="cls-1" x="0.53" y="0.03" width="80" height="80"/><rect class="cls-1" x="145.3" y="0.03" width="80" height="80"/><rect class="cls-1" x="282.71" y="0.03" width="80" height="80"/><rect class="cls-1" x="443.07" y="0.03" width="80" height="80"/><rect class="cls-1" x="598.07" y="1.03" width="80" height="80"/><rect class="cls-1" x="721.46" width="80" height="80"/><path d="M0,117.92V103.83H2.12l4.88,10,4.87-10H14v14.09h-2.2v-9l-4.33,9H6.53l-4.32-9v9Z"/><path d="M19.68,118.22a3.93,3.93,0,0,1-1.93-.44,3,3,0,0,1-1.2-1.16,3.19,3.19,0,0,1-.41-1.59,3.57,3.57,0,0,1,.26-1.38,2.79,2.79,0,0,1,.78-1.06,4.3,4.3,0,0,1,1.37-.72,13.91,13.91,0,0,1,1.49-.38q.86-.17,1.86-.3l2.1-.31-.84.48a2.29,2.29,0,0,0-.49-1.62,2.32,2.32,0,0,0-1.69-.52,2.92,2.92,0,0,0-1.37.34,1.8,1.8,0,0,0-.93,1.14L16.52,110a4,4,0,0,1,1.5-2.16,4.88,4.88,0,0,1,3-.81,6.34,6.34,0,0,1,2.48.46A3,3,0,0,1,25.05,109a3.2,3.2,0,0,1,.35,1.14,12.44,12.44,0,0,1,.06,1.27v6.48H23.39v-2.29l.34.37a4.61,4.61,0,0,1-1.66,1.68A4.8,4.8,0,0,1,19.68,118.22Zm.47-1.88a3,3,0,0,0,1.37-.29,2.84,2.84,0,0,0,.91-.69,2.63,2.63,0,0,0,.45-.77,2.79,2.79,0,0,0,.21-1c0-.38,0-.7,0-.94l.72.21-1.83.3c-.51.08-.94.16-1.31.24a8.49,8.49,0,0,0-1,.25A2.77,2.77,0,0,0,19,114a1.45,1.45,0,0,0-.44.45,1.16,1.16,0,0,0-.15.6,1.24,1.24,0,0,0,.2.69,1.34,1.34,0,0,0,.57.47A2.14,2.14,0,0,0,20.15,116.34Z"/><path d="M32.24,118.22a4.45,4.45,0,0,1-2.55-.74,4.89,4.89,0,0,1-1.68-2,7.09,7.09,0,0,1,0-5.71,4.89,4.89,0,0,1,1.71-2,4.68,4.68,0,0,1,2.6-.73,4.27,4.27,0,0,1,2.53.73,4.55,4.55,0,0,1,1.55,2,7.93,7.93,0,0,1,0,5.7,4.48,4.48,0,0,1-1.57,2A4.4,4.4,0,0,1,32.24,118.22Zm.2,4.69a5.29,5.29,0,0,1-1.69-.27,5.09,5.09,0,0,1-1.45-.79,4.37,4.37,0,0,1-1.06-1.24l2.18-1.07a1.89,1.89,0,0,0,.85.85,2.53,2.53,0,0,0,1.18.28,3.19,3.19,0,0,0,1.31-.26,2,2,0,0,0,.9-.76,2.27,2.27,0,0,0,.3-1.26v-3h.29v-8h2.06v11.07c0,.27,0,.52,0,.77a6,6,0,0,1-.11.72,3.5,3.5,0,0,1-.9,1.69,4.27,4.27,0,0,1-1.65,1A7.13,7.13,0,0,1,32.44,122.91Zm.16-6.81A2.28,2.28,0,0,0,35,114.45a6.24,6.24,0,0,0,0-3.63,2.55,2.55,0,0,0-.84-1.21,2.3,2.3,0,0,0-1.46-.43,2.52,2.52,0,0,0-1.57.46,2.77,2.77,0,0,0-.91,1.25,5.43,5.43,0,0,0,0,3.5,2.62,2.62,0,0,0,.88,1.25A2.39,2.39,0,0,0,32.6,116.1Z"/><path d="M44.86,118.22a5.62,5.62,0,0,1-2.82-.7,4.87,4.87,0,0,1-1.89-1.93,5.68,5.68,0,0,1-.69-2.83,6.46,6.46,0,0,1,.67-3,4.85,4.85,0,0,1,1.85-2,5.25,5.25,0,0,1,2.74-.71,4.92,4.92,0,0,1,2.79.77A4.49,4.49,0,0,1,49.22,110a7.43,7.43,0,0,1,.42,3.29H47.3v-.86a4.33,4.33,0,0,0-.6-2.51,2.2,2.2,0,0,0-1.88-.79,2.57,2.57,0,0,0-2.16.89,4.24,4.24,0,0,0-.7,2.62,3.92,3.92,0,0,0,.7,2.48,2.48,2.48,0,0,0,2.06.88,2.79,2.79,0,0,0,1.5-.38,2.48,2.48,0,0,0,1-1.12l2.33.7a4.74,4.74,0,0,1-1.87,2.22A5.18,5.18,0,0,1,44.86,118.22Zm-3.64-4.93v-1.78h7.27v1.78Z"/><path d="M51.52,117.92V107.36h2.1v3.27h.29v7.29Zm7.33,0v-5.09c0-.33,0-.7-.07-1.1a3.91,3.91,0,0,0-.32-1.17,2.31,2.31,0,0,0-.74-.92,2.17,2.17,0,0,0-1.34-.37,2.73,2.73,0,0,0-.89.15,2.19,2.19,0,0,0-.8.5,2.64,2.64,0,0,0-.57,1,5.1,5.1,0,0,0-.21,1.59l-1.4-.59a5.57,5.57,0,0,1,.52-2.45,4.21,4.21,0,0,1,1.54-1.75,4.59,4.59,0,0,1,2.51-.65,4.22,4.22,0,0,1,1.93.39,3.57,3.57,0,0,1,1.22,1,4.38,4.38,0,0,1,.66,1.29,6.76,6.76,0,0,1,.28,1.3q.06.61.06,1v5.9Z"/><path d="M62.6,109.2v-1.84H70v1.84ZM70,117.92a9.62,9.62,0,0,1-2,.17,4.66,4.66,0,0,1-1.8-.37,2.51,2.51,0,0,1-1.2-1.1,3.13,3.13,0,0,1-.38-1.4c0-.47,0-1,0-1.61v-9.19h2.35v9c0,.42,0,.8,0,1.12a1.63,1.63,0,0,0,.2.78,1.36,1.36,0,0,0,1.13.65A7.71,7.71,0,0,0,70,116Z"/><path d="M76.38,118.22a5.22,5.22,0,0,1-2.77-.72,4.77,4.77,0,0,1-1.83-2,6.13,6.13,0,0,1-.66-2.89,6.2,6.2,0,0,1,.67-2.92,4.89,4.89,0,0,1,1.85-2,5.68,5.68,0,0,1,5.52,0,4.86,4.86,0,0,1,1.84,2,6.25,6.25,0,0,1,.65,2.89,6.17,6.17,0,0,1-.66,2.9,4.92,4.92,0,0,1-1.84,2A5.33,5.33,0,0,1,76.38,118.22Zm0-2.22a2.41,2.41,0,0,0,2.09-.93,4,4,0,0,0,.69-2.43,4,4,0,0,0-.7-2.45,2.45,2.45,0,0,0-2.08-.92,2.64,2.64,0,0,0-1.56.43,2.52,2.52,0,0,0-.91,1.18,5,5,0,0,0-.29,1.76,3.92,3.92,0,0,0,.7,2.45A2.43,2.43,0,0,0,76.38,116Z"/><path d="M155.38,117.92V103.83h5.19c.35,0,.69,0,1,.07a5.41,5.41,0,0,1,2.83,1.19,6.21,6.21,0,0,1,1.76,2.48,9.5,9.5,0,0,1,0,6.59,6.07,6.07,0,0,1-1.76,2.48,5.33,5.33,0,0,1-2.83,1.19c-.32,0-.66.06-1,.07h-5.2Zm2.4-2.22h2.1l.74,0a4.54,4.54,0,0,0,.81-.09,2.72,2.72,0,0,0,1.62-.89A4.42,4.42,0,0,0,164,113a7.37,7.37,0,0,0,.3-2.11,7.12,7.12,0,0,0-.31-2.15A4.24,4.24,0,0,0,163,107a2.93,2.93,0,0,0-1.61-.87,4.54,4.54,0,0,0-.81-.09l-.74,0h-2.1Z"/><path d="M169.09,117.92V107.36h2.08v2.57l-.25-.33a3.61,3.61,0,0,1,.52-1,2.86,2.86,0,0,1,.79-.72,3.48,3.48,0,0,1,.87-.41,4,4,0,0,1,1-.19,3.9,3.9,0,0,1,1,0v2.2a3.07,3.07,0,0,0-1.08-.09,2.49,2.49,0,0,0-1.1.34,2.42,2.42,0,0,0-.8.68,2.68,2.68,0,0,0-.45.93,4.11,4.11,0,0,0-.15,1.13v5.37Z"/><path d="M180.86,118.23a4.26,4.26,0,0,1-1.94-.4,3.42,3.42,0,0,1-1.21-1,4.59,4.59,0,0,1-.67-1.3,6.47,6.47,0,0,1-.27-1.29,8.4,8.4,0,0,1-.07-1v-5.89h2.39v5.08a8.9,8.9,0,0,0,.07,1.1,4,4,0,0,0,.31,1.18,2.32,2.32,0,0,0,.75.92,2.21,2.21,0,0,0,1.33.36,3.13,3.13,0,0,0,.9-.14,2.06,2.06,0,0,0,.79-.51,2.38,2.38,0,0,0,.57-1,4.8,4.8,0,0,0,.22-1.59l1.4.6a5.61,5.61,0,0,1-.53,2.45,4.1,4.1,0,0,1-1.53,1.74A4.53,4.53,0,0,1,180.86,118.23Zm3.45-.31v-3.28H184v-7.28h2.37v10.56Z"/><path d="M189.12,122.62V107.36h2.08v7.41h.29v7.85Zm5.09-4.4a4.4,4.4,0,0,1-2.59-.74,4.48,4.48,0,0,1-1.57-2,7.93,7.93,0,0,1,0-5.7,4.55,4.55,0,0,1,1.55-2,4.27,4.27,0,0,1,2.53-.73,4.63,4.63,0,0,1,2.59.73,4.81,4.81,0,0,1,1.71,2,6.4,6.4,0,0,1,.61,2.86,6.58,6.58,0,0,1-.6,2.85,4.89,4.89,0,0,1-1.68,2A4.45,4.45,0,0,1,194.21,118.22Zm-.36-2.12a2.41,2.41,0,0,0,1.52-.46,2.62,2.62,0,0,0,.88-1.25,5.43,5.43,0,0,0,0-3.5,2.77,2.77,0,0,0-.91-1.25,2.52,2.52,0,0,0-1.57-.46,2.32,2.32,0,0,0-1.46.43,2.55,2.55,0,0,0-.84,1.21,6.24,6.24,0,0,0,0,3.63,2.28,2.28,0,0,0,2.38,1.65Z"/><path d="M204.14,118.22a3.93,3.93,0,0,1-1.93-.44,3,3,0,0,1-1.2-1.16,3.19,3.19,0,0,1-.41-1.59,3.57,3.57,0,0,1,.26-1.38,2.79,2.79,0,0,1,.78-1.06,4.3,4.3,0,0,1,1.37-.72,13.91,13.91,0,0,1,1.49-.38q.85-.17,1.86-.3l2.1-.31-.84.48a1.84,1.84,0,0,0-2.17-2.14,2.93,2.93,0,0,0-1.38.34,1.8,1.8,0,0,0-.93,1.14L201,110a4,4,0,0,1,1.5-2.16,4.89,4.89,0,0,1,3-.81,6.41,6.41,0,0,1,2.48.46,3.12,3.12,0,0,1,1.59,1.51,3.18,3.18,0,0,1,.34,1.14,12.44,12.44,0,0,1,.06,1.27v6.48h-2.07v-2.29l.35.37a4.71,4.71,0,0,1-1.67,1.68A4.8,4.8,0,0,1,204.14,118.22Zm.47-1.88a3,3,0,0,0,1.37-.29,2.84,2.84,0,0,0,.91-.69,2.43,2.43,0,0,0,.45-.77,2.79,2.79,0,0,0,.21-1c0-.38,0-.7,0-.94l.72.21-1.83.3c-.51.08-.94.16-1.31.24a8.49,8.49,0,0,0-1,.25,2.77,2.77,0,0,0-.69.34,1.45,1.45,0,0,0-.44.45,1.16,1.16,0,0,0-.15.6,1.24,1.24,0,0,0,.2.69,1.34,1.34,0,0,0,.57.47A2.14,2.14,0,0,0,204.61,116.34Z"/><path d="M212.66,117.92V103.54H215v14.38Z"/><path d="M292.76,118.22a6.94,6.94,0,0,1-2.79-.54,5.3,5.3,0,0,1-2-1.54,5,5,0,0,1-1-2.39l2.44-.37a3.24,3.24,0,0,0,1.29,1.94,3.78,3.78,0,0,0,2.24.68,4.11,4.11,0,0,0,1.42-.23,2.58,2.58,0,0,0,1.08-.69,1.54,1.54,0,0,0,.42-1.1,1.33,1.33,0,0,0-.1-.54,1.2,1.2,0,0,0-.29-.45,2,2,0,0,0-.49-.36,3.42,3.42,0,0,0-.69-.27l-3.64-1.08a7.94,7.94,0,0,1-1-.37,4.14,4.14,0,0,1-1-.63,3.22,3.22,0,0,1-.79-1,3.61,3.61,0,0,1-.31-1.56,3.73,3.73,0,0,1,.69-2.29A4.22,4.22,0,0,1,290,104a7.37,7.37,0,0,1,5.18,0,5,5,0,0,1,1.9,1.41,5.36,5.36,0,0,1,1.08,2.22l-2.54.44a2.73,2.73,0,0,0-.6-1.27,3,3,0,0,0-1.08-.8,3.73,3.73,0,0,0-1.37-.29,3.45,3.45,0,0,0-1.3.21,2.34,2.34,0,0,0-1,.63,1.4,1.4,0,0,0-.37,1,1.17,1.17,0,0,0,.31.85,2.27,2.27,0,0,0,.78.52,8,8,0,0,0,.94.31l2.53.71c.34.09.73.21,1.16.37a5.57,5.57,0,0,1,1.25.66,3.38,3.38,0,0,1,1,1.1,3.5,3.5,0,0,1,.39,1.74,3.92,3.92,0,0,1-1.69,3.3,5.38,5.38,0,0,1-1.76.82A8,8,0,0,1,292.76,118.22Z"/><path d="M300.39,117.92V103.83h2.1v7.42h.29v6.67Zm7.33,0v-5.09c0-.33,0-.7-.07-1.1a3.91,3.91,0,0,0-.32-1.17,2.23,2.23,0,0,0-.74-.92,2.17,2.17,0,0,0-1.34-.37,2.73,2.73,0,0,0-.89.15,2.19,2.19,0,0,0-.8.5,2.64,2.64,0,0,0-.57,1,5.1,5.1,0,0,0-.21,1.59l-1.4-.59a5.57,5.57,0,0,1,.52-2.45,4.21,4.21,0,0,1,1.54-1.75,4.59,4.59,0,0,1,2.51-.65,4.22,4.22,0,0,1,1.93.39,3.57,3.57,0,0,1,1.22,1,4.38,4.38,0,0,1,.66,1.29A6.76,6.76,0,0,1,310,111q.06.61.06,1v5.9Z"/><path d="M317.31,118.22a5.25,5.25,0,0,1-2.77-.72,4.77,4.77,0,0,1-1.83-2,6.77,6.77,0,0,1,0-5.81,5,5,0,0,1,1.85-2,5.68,5.68,0,0,1,5.52,0,4.86,4.86,0,0,1,1.84,2,6.68,6.68,0,0,1,0,5.79,5,5,0,0,1-1.85,2A5.31,5.31,0,0,1,317.31,118.22Zm0-2.22a2.44,2.44,0,0,0,2.1-.93,4.08,4.08,0,0,0,.68-2.43,4,4,0,0,0-.69-2.45,2.47,2.47,0,0,0-2.09-.92,2.64,2.64,0,0,0-1.56.43,2.44,2.44,0,0,0-.9,1.18,4.77,4.77,0,0,0-.3,1.76,4,4,0,0,0,.7,2.45A2.44,2.44,0,0,0,317.31,116Z"/><path d="M324.72,122.62V107.36h2.08v7.41h.3v7.85Zm5.1-4.4a4.43,4.43,0,0,1-2.6-.74,4.55,4.55,0,0,1-1.57-2,7.93,7.93,0,0,1,0-5.7,4.55,4.55,0,0,1,1.55-2,4.27,4.27,0,0,1,2.53-.73,4.66,4.66,0,0,1,2.6.73,4.86,4.86,0,0,1,1.7,2,6.4,6.4,0,0,1,.61,2.86,6.58,6.58,0,0,1-.6,2.85,4.89,4.89,0,0,1-1.68,2A4.42,4.42,0,0,1,329.82,118.22Zm-.37-2.12a2.39,2.39,0,0,0,1.52-.46,2.7,2.7,0,0,0,.89-1.25,5.1,5.1,0,0,0,.28-1.75,4.91,4.91,0,0,0-.29-1.75,2.7,2.7,0,0,0-.91-1.25,2.51,2.51,0,0,0-1.56-.46,2.35,2.35,0,0,0-1.47.43,2.55,2.55,0,0,0-.84,1.21,6.24,6.24,0,0,0,0,3.63,2.55,2.55,0,0,0,.85,1.22A2.5,2.5,0,0,0,329.45,116.1Z"/><path d="M337,105.75v-2.16h2.35v2.16Zm0,12.17V107.36h2.35v10.56Z"/><path d="M341.5,109.2v-1.84h6.61v1.84Zm1.7,8.72V107.19c0-.27,0-.56,0-.89a4,4,0,0,1,.17-1,2.1,2.1,0,0,1,.49-.87,2.52,2.52,0,0,1,1-.69,3.52,3.52,0,0,1,1-.22l.89,0h1.32v1.92h-1.22a1.38,1.38,0,0,0-1,.33,1.28,1.28,0,0,0-.32.89v11.24Z"/><path d="M351.06,122.62l2-5.59,0,1.64-4.61-11.31H351l3.26,8.37h-.62l3.18-8.37h2.36l-5.89,15.26Z"/><path d="M414.52,117.92l-4.12-14.09h2.48L415.69,114l2.79-10.16,2.48,0L423.77,114l2.8-10.18H429l-4.11,14.09H422.6l-2.88-10-2.87,10Z"/><path d="M434.13,118.22a5.22,5.22,0,0,1-2.77-.72,4.77,4.77,0,0,1-1.83-2,6.12,6.12,0,0,1-.65-2.89,6.19,6.19,0,0,1,.66-2.92,4.89,4.89,0,0,1,1.85-2,5.68,5.68,0,0,1,5.52,0,4.86,4.86,0,0,1,1.84,2,6.25,6.25,0,0,1,.65,2.89,6.17,6.17,0,0,1-.66,2.9,4.92,4.92,0,0,1-1.84,2A5.31,5.31,0,0,1,434.13,118.22Zm0-2.22a2.41,2.41,0,0,0,2.09-.93,4,4,0,0,0,.69-2.43,3.9,3.9,0,0,0-.7-2.45,2.45,2.45,0,0,0-2.08-.92,2.64,2.64,0,0,0-1.56.43,2.52,2.52,0,0,0-.91,1.18,5,5,0,0,0-.29,1.76,3.92,3.92,0,0,0,.7,2.45A2.43,2.43,0,0,0,434.13,116Z"/><path d="M446.22,118.22a5.22,5.22,0,0,1-2.77-.72,4.77,4.77,0,0,1-1.83-2,6.12,6.12,0,0,1-.65-2.89,6.19,6.19,0,0,1,.66-2.92,5,5,0,0,1,1.85-2,5.68,5.68,0,0,1,5.52,0,4.86,4.86,0,0,1,1.84,2,6.12,6.12,0,0,1,.65,2.89,6.05,6.05,0,0,1-.66,2.9,4.92,4.92,0,0,1-1.84,2A5.31,5.31,0,0,1,446.22,118.22Zm0-2.22a2.41,2.41,0,0,0,2.09-.93,4,4,0,0,0,.69-2.43,3.9,3.9,0,0,0-.7-2.45,2.44,2.44,0,0,0-2.08-.92,2.64,2.64,0,0,0-1.56.43,2.44,2.44,0,0,0-.9,1.18,4.77,4.77,0,0,0-.3,1.76,4,4,0,0,0,.7,2.45A2.43,2.43,0,0,0,446.22,116Z"/><path d="M459.61,118.22a6.8,6.8,0,0,1-3.63-.93,6.09,6.09,0,0,1-2.31-2.58,9.48,9.48,0,0,1,0-7.67,6.15,6.15,0,0,1,2.31-2.58,6.89,6.89,0,0,1,3.63-.92,6.56,6.56,0,0,1,4.05,1.22,6.29,6.29,0,0,1,2.28,3.28l-2.37.66a4.21,4.21,0,0,0-1.4-2.16,4,4,0,0,0-2.56-.78,4.11,4.11,0,0,0-2.37.64,3.89,3.89,0,0,0-1.42,1.78,7.4,7.4,0,0,0-.48,2.7,7.11,7.11,0,0,0,.47,2.69,3.87,3.87,0,0,0,1.43,1.79,4.18,4.18,0,0,0,2.37.63,4,4,0,0,0,2.56-.78,4.22,4.22,0,0,0,1.4-2.15l2.37.65a6.32,6.32,0,0,1-2.28,3.29A6.56,6.56,0,0,1,459.61,118.22Z"/><path d="M472.76,118.22a5.25,5.25,0,0,1-2.77-.72,4.84,4.84,0,0,1-1.83-2,6.25,6.25,0,0,1-.65-2.89,6.08,6.08,0,0,1,.67-2.92,4.87,4.87,0,0,1,1.84-2,5.68,5.68,0,0,1,5.52,0,4.86,4.86,0,0,1,1.84,2,6.68,6.68,0,0,1,0,5.79,5,5,0,0,1-1.85,2A5.31,5.31,0,0,1,472.76,118.22Zm0-2.22a2.44,2.44,0,0,0,2.1-.93,4.08,4.08,0,0,0,.68-2.43,4,4,0,0,0-.69-2.45,2.47,2.47,0,0,0-2.09-.92,2.64,2.64,0,0,0-1.56.43,2.44,2.44,0,0,0-.9,1.18,4.77,4.77,0,0,0-.3,1.76,4,4,0,0,0,.7,2.45A2.44,2.44,0,0,0,472.76,116Z"/><path d="M480.17,117.92V107.36h2.08v3.27h.3v7.29Zm6.37,0v-6.39a2.53,2.53,0,0,0-.54-1.72,1.85,1.85,0,0,0-1.47-.61,1.82,1.82,0,0,0-1.44.61,2.36,2.36,0,0,0-.54,1.61l-1.06-.71a3.46,3.46,0,0,1,.51-1.85,3.54,3.54,0,0,1,1.37-1.29,4,4,0,0,1,1.94-.48,3.66,3.66,0,0,1,2,.51,3.14,3.14,0,0,1,1.19,1.36,4.73,4.73,0,0,1,.4,2v7Zm6.34,0V111.5a2.45,2.45,0,0,0-.54-1.69,1.85,1.85,0,0,0-1.46-.61,2,2,0,0,0-1,.25,1.85,1.85,0,0,0-.72.77,2.47,2.47,0,0,0-.26,1.2l-1.05-.62a3.6,3.6,0,0,1,.49-1.93,3.52,3.52,0,0,1,1.37-1.31,4,4,0,0,1,1.92-.47,3.4,3.4,0,0,1,2.68,1,4,4,0,0,1,.94,2.77v7Z"/><path d="M497.76,117.92V107.36h2.08v3.27h.3v7.29Zm6.37,0v-6.39a2.53,2.53,0,0,0-.54-1.72,1.85,1.85,0,0,0-1.47-.61,1.82,1.82,0,0,0-1.44.61,2.36,2.36,0,0,0-.54,1.61l-1.06-.71a3.46,3.46,0,0,1,.51-1.85,3.61,3.61,0,0,1,1.37-1.29,4,4,0,0,1,2-.48,3.6,3.6,0,0,1,2,.51,3.08,3.08,0,0,1,1.19,1.36,4.73,4.73,0,0,1,.4,2v7Zm6.34,0V111.5a2.45,2.45,0,0,0-.54-1.69,1.83,1.83,0,0,0-1.46-.61,2,2,0,0,0-1,.25,1.85,1.85,0,0,0-.72.77,2.47,2.47,0,0,0-.26,1.2l-1.05-.62a3.6,3.6,0,0,1,.49-1.93,3.52,3.52,0,0,1,1.37-1.31,4,4,0,0,1,1.92-.47,3.4,3.4,0,0,1,2.68,1,4,4,0,0,1,.94,2.77v7Z"/><path d="M520,118.22a5.62,5.62,0,0,1-2.82-.7,4.87,4.87,0,0,1-1.89-1.93,5.67,5.67,0,0,1-.68-2.83,6.46,6.46,0,0,1,.66-3,4.85,4.85,0,0,1,1.85-2,5.25,5.25,0,0,1,2.74-.71,4.92,4.92,0,0,1,2.79.77,4.49,4.49,0,0,1,1.71,2.17,7.43,7.43,0,0,1,.42,3.29h-2.34v-.86a4.25,4.25,0,0,0-.6-2.51,2.2,2.2,0,0,0-1.88-.79,2.58,2.58,0,0,0-2.16.89,4.24,4.24,0,0,0-.7,2.62,3.92,3.92,0,0,0,.7,2.48,2.49,2.49,0,0,0,2.06.88,2.79,2.79,0,0,0,1.5-.38,2.56,2.56,0,0,0,1-1.12l2.32.7a4.74,4.74,0,0,1-1.87,2.22A5.15,5.15,0,0,1,520,118.22Zm-3.64-4.93v-1.78h7.27v1.78Z"/><path d="M527,117.92V107.36h2.09v2.57l-.26-.33a3.64,3.64,0,0,1,.53-1,2.82,2.82,0,0,1,.78-.72,3.48,3.48,0,0,1,.87-.41,4,4,0,0,1,1-.19,3.9,3.9,0,0,1,1,0v2.2a3.07,3.07,0,0,0-1.08-.09,2.49,2.49,0,0,0-1.1.34,2.42,2.42,0,0,0-.8.68,2.68,2.68,0,0,0-.45.93,4.11,4.11,0,0,0-.15,1.13v5.37Z"/><path d="M539.18,118.22a5.17,5.17,0,0,1-2.79-.73,4.75,4.75,0,0,1-1.76-2,6.83,6.83,0,0,1,0-5.73,4.83,4.83,0,0,1,1.79-2,5.17,5.17,0,0,1,2.77-.72,5,5,0,0,1,3,.91,4.17,4.17,0,0,1,1.63,2.47l-2.35.63a2.58,2.58,0,0,0-.91-1.32,2.34,2.34,0,0,0-1.45-.48,2.38,2.38,0,0,0-2.39,1.64,4.9,4.9,0,0,0-.29,1.73,4,4,0,0,0,.68,2.43,2.67,2.67,0,0,0,3.48.5,2.49,2.49,0,0,0,.82-1.24l2.41.54a4.58,4.58,0,0,1-1.71,2.48A5.06,5.06,0,0,1,539.18,118.22Z"/><path d="M550.36,118.22a5.58,5.58,0,0,1-2.81-.7,5,5,0,0,1-1.9-1.93,5.78,5.78,0,0,1-.68-2.83,6.46,6.46,0,0,1,.67-3,4.85,4.85,0,0,1,1.85-2,5.25,5.25,0,0,1,2.74-.71,4.94,4.94,0,0,1,2.79.77,4.49,4.49,0,0,1,1.71,2.17,7.43,7.43,0,0,1,.42,3.29h-2.34v-.86a4.24,4.24,0,0,0-.61-2.51,2.19,2.19,0,0,0-1.88-.79,2.56,2.56,0,0,0-2.15.89,4.17,4.17,0,0,0-.7,2.62,3.85,3.85,0,0,0,.7,2.48,2.48,2.48,0,0,0,2.06.88,2.79,2.79,0,0,0,1.5-.38,2.54,2.54,0,0,0,1-1.12l2.33.7a4.74,4.74,0,0,1-1.87,2.22A5.19,5.19,0,0,1,550.36,118.22Zm-3.64-4.93v-1.78H554v1.78Z"/><path d="M591.26,117.75l-4.12-14.09h2.47l2.81,10.18,2.8-10.16,2.47,0,2.81,10.18,2.8-10.18h2.48l-4.11,14.09h-2.33l-2.89-10-2.87,10Z"/><path d="M610.86,118.05a5.22,5.22,0,0,1-2.77-.72,4.77,4.77,0,0,1-1.83-2,6.12,6.12,0,0,1-.65-2.89,6.19,6.19,0,0,1,.66-2.92,5,5,0,0,1,1.85-2,5.68,5.68,0,0,1,5.52,0,4.86,4.86,0,0,1,1.84,2,6.12,6.12,0,0,1,.65,2.89,6.05,6.05,0,0,1-.66,2.9,4.86,4.86,0,0,1-1.84,2A5.31,5.31,0,0,1,610.86,118.05Zm0-2.22a2.44,2.44,0,0,0,2.1-.93,4.08,4.08,0,0,0,.68-2.43A4,4,0,0,0,613,110a2.47,2.47,0,0,0-2.09-.92,2.64,2.64,0,0,0-1.56.43,2.44,2.44,0,0,0-.9,1.18,4.77,4.77,0,0,0-.3,1.76,4,4,0,0,0,.7,2.45A2.44,2.44,0,0,0,610.86,115.83Z"/><path d="M618.29,117.75V107.19h2.08v2.57l-.25-.33a3.61,3.61,0,0,1,.52-1,2.86,2.86,0,0,1,.79-.72,3.59,3.59,0,0,1,.86-.41,4.14,4.14,0,0,1,1-.19,3.93,3.93,0,0,1,1,0v2.2a3.12,3.12,0,0,0-1.08-.09,2.58,2.58,0,0,0-1.11.34,2.38,2.38,0,0,0-.79.68,2.7,2.7,0,0,0-.46.93,4.54,4.54,0,0,0-.14,1.13v5.37Z"/><path d="M630.13,118.05a4.44,4.44,0,0,1-2.54-.74,4.89,4.89,0,0,1-1.68-2,7.09,7.09,0,0,1,0-5.71,4.81,4.81,0,0,1,1.71-2,4.68,4.68,0,0,1,2.6-.73,4.27,4.27,0,0,1,2.53.73,4.55,4.55,0,0,1,1.55,2,7.93,7.93,0,0,1,0,5.7,4.48,4.48,0,0,1-1.57,2A4.41,4.41,0,0,1,630.13,118.05Zm.37-2.12a2.28,2.28,0,0,0,2.38-1.65,6.24,6.24,0,0,0,0-3.63,2.55,2.55,0,0,0-.84-1.21,2.3,2.3,0,0,0-1.46-.43,2.52,2.52,0,0,0-1.57.46,2.77,2.77,0,0,0-.91,1.25,5.43,5.43,0,0,0,0,3.5,2.62,2.62,0,0,0,.88,1.25A2.39,2.39,0,0,0,630.5,115.93Zm2.65,1.82v-7.41h-.29v-6.68h2.37v14.09Z"/><path d="M638,122.45V107.19H640v7.41h.29v7.85Zm5.1-4.4a4.38,4.38,0,0,1-2.59-.74,4.5,4.5,0,0,1-1.58-2,7.93,7.93,0,0,1,0-5.7,4.55,4.55,0,0,1,1.55-2,4.3,4.3,0,0,1,2.53-.73,4.66,4.66,0,0,1,2.6.73,5,5,0,0,1,1.71,2,6.56,6.56,0,0,1,.6,2.86,6.72,6.72,0,0,1-.59,2.85,4.84,4.84,0,0,1-1.69,2A4.42,4.42,0,0,1,643.05,118.05Zm-.36-2.12a2.36,2.36,0,0,0,1.51-.46,2.63,2.63,0,0,0,.89-1.25,5.1,5.1,0,0,0,.29-1.75,4.91,4.91,0,0,0-.3-1.75,2.63,2.63,0,0,0-.91-1.25,2.51,2.51,0,0,0-1.56-.46,2.35,2.35,0,0,0-1.47.43,2.55,2.55,0,0,0-.84,1.21,6.47,6.47,0,0,0,0,3.63,2.5,2.5,0,0,0,.86,1.22A2.46,2.46,0,0,0,642.69,115.93Z"/><path d="M650,117.75V107.19h2.08v2.57l-.26-.33a3.64,3.64,0,0,1,.53-1,3,3,0,0,1,.78-.72,3.66,3.66,0,0,1,.87-.41,4.06,4.06,0,0,1,1-.19,3.88,3.88,0,0,1,1,0v2.2a3.07,3.07,0,0,0-1.08-.09,2.54,2.54,0,0,0-1.1.34,2.42,2.42,0,0,0-.8.68,2.87,2.87,0,0,0-.45.93,4.11,4.11,0,0,0-.15,1.13v5.37Z"/><path d="M662.44,118.05a5.62,5.62,0,0,1-2.82-.7,4.87,4.87,0,0,1-1.89-1.93,5.78,5.78,0,0,1-.68-2.83,6.46,6.46,0,0,1,.66-3,4.91,4.91,0,0,1,1.85-2,5.28,5.28,0,0,1,2.74-.71,5,5,0,0,1,2.8.77,4.53,4.53,0,0,1,1.7,2.17,7.43,7.43,0,0,1,.42,3.29h-2.34v-.86a4.18,4.18,0,0,0-.6-2.51,2.2,2.2,0,0,0-1.88-.79,2.56,2.56,0,0,0-2.15.89,4.17,4.17,0,0,0-.71,2.62,3.86,3.86,0,0,0,.71,2.48,2.46,2.46,0,0,0,2,.88,2.79,2.79,0,0,0,1.5-.38,2.56,2.56,0,0,0,1-1.12l2.33.7a4.76,4.76,0,0,1-1.88,2.22A5.13,5.13,0,0,1,662.44,118.05Zm-3.64-4.93v-1.78h7.27v1.78Z"/><path d="M673.49,118.05a5.32,5.32,0,0,1-3.18-.89,3.62,3.62,0,0,1-1.48-2.47l2.4-.37a2,2,0,0,0,.83,1.23,2.7,2.7,0,0,0,1.6.45,2.18,2.18,0,0,0,1.32-.34,1.06,1.06,0,0,0,.46-.92.93.93,0,0,0-.17-.58,1.64,1.64,0,0,0-.75-.43c-.38-.14-1-.31-1.77-.52a10.19,10.19,0,0,1-2.11-.76,2.81,2.81,0,0,1-1.13-1,2.6,2.6,0,0,1-.34-1.35,2.87,2.87,0,0,1,.52-1.72,3.31,3.31,0,0,1,1.45-1.13,5.45,5.45,0,0,1,2.19-.4,6,6,0,0,1,2.19.38,4,4,0,0,1,1.54,1.09,3.25,3.25,0,0,1,.72,1.65l-2.41.43a1.51,1.51,0,0,0-.61-1.06,2.49,2.49,0,0,0-1.39-.44,2.27,2.27,0,0,0-1.34.25.92.92,0,0,0-.51.83.73.73,0,0,0,.2.52,2.14,2.14,0,0,0,.83.43c.41.14,1,.32,1.85.53a8.94,8.94,0,0,1,2,.74,2.86,2.86,0,0,1,1.09,1,2.69,2.69,0,0,1,.34,1.4,3,3,0,0,1-1.16,2.51A5.11,5.11,0,0,1,673.49,118.05Z"/><path d="M684.09,118.05a5.3,5.3,0,0,1-3.18-.89,3.63,3.63,0,0,1-1.49-2.47l2.41-.37a2,2,0,0,0,.82,1.23,2.73,2.73,0,0,0,1.61.45,2.17,2.17,0,0,0,1.31-.34,1.07,1.07,0,0,0,.47-.92.93.93,0,0,0-.17-.58,1.77,1.77,0,0,0-.75-.43c-.39-.14-1-.31-1.77-.52a10.31,10.31,0,0,1-2.12-.76,2.77,2.77,0,0,1-1.12-1,2.51,2.51,0,0,1-.34-1.35,2.93,2.93,0,0,1,.51-1.72,3.31,3.31,0,0,1,1.45-1.13,5.45,5.45,0,0,1,2.19-.4,6,6,0,0,1,2.19.38,3.81,3.81,0,0,1,1.54,1.09,3.35,3.35,0,0,1,.73,1.65l-2.41.43a1.51,1.51,0,0,0-.61-1.06,2.53,2.53,0,0,0-1.4-.44,2.29,2.29,0,0,0-1.34.25.92.92,0,0,0-.51.83.7.7,0,0,0,.21.52,2.08,2.08,0,0,0,.82.43c.42.14,1,.32,1.86.53a9,9,0,0,1,2,.74,2.83,2.83,0,0,1,1.1,1,2.79,2.79,0,0,1,.33,1.4,3,3,0,0,1-1.16,2.51A5.1,5.1,0,0,1,684.09,118.05Z"/><path d="M727.79,118.22a6.94,6.94,0,0,1-2.79-.54,5.3,5.3,0,0,1-2-1.54,5,5,0,0,1-1-2.39l2.44-.37a3.24,3.24,0,0,0,1.29,1.94,3.78,3.78,0,0,0,2.24.68,4.11,4.11,0,0,0,1.42-.23,2.58,2.58,0,0,0,1.08-.69,1.54,1.54,0,0,0,.42-1.1,1.33,1.33,0,0,0-.1-.54,1.2,1.2,0,0,0-.29-.45,2,2,0,0,0-.49-.36,3.42,3.42,0,0,0-.69-.27l-3.64-1.08a7.94,7.94,0,0,1-1-.37,4.14,4.14,0,0,1-1-.63,3.22,3.22,0,0,1-.79-1,3.61,3.61,0,0,1-.31-1.56,3.73,3.73,0,0,1,.69-2.29,4.22,4.22,0,0,1,1.86-1.38,6.8,6.8,0,0,1,2.6-.45,6.7,6.7,0,0,1,2.58.49,5,5,0,0,1,1.9,1.41,5.36,5.36,0,0,1,1.08,2.22l-2.54.44a2.73,2.73,0,0,0-.6-1.27,3,3,0,0,0-1.08-.8,3.73,3.73,0,0,0-1.37-.29,3.45,3.45,0,0,0-1.3.21,2.34,2.34,0,0,0-1,.63,1.4,1.4,0,0,0-.37,1,1.17,1.17,0,0,0,.31.85,2.27,2.27,0,0,0,.78.52,8,8,0,0,0,.94.31l2.53.71c.34.09.73.21,1.16.37A5.57,5.57,0,0,1,732,111a3.38,3.38,0,0,1,1,1.1,3.5,3.5,0,0,1,.39,1.74,3.92,3.92,0,0,1-1.69,3.3,5.38,5.38,0,0,1-1.76.82A8,8,0,0,1,727.79,118.22Z"/><path d="M735.63,105.75v-2.16H738v2.16Zm0,12.17V107.36H738v10.56Z"/><path d="M739.75,109.2v-1.84h7.37v1.84Zm7.37,8.72a9.62,9.62,0,0,1-2,.17,4.66,4.66,0,0,1-1.8-.37,2.47,2.47,0,0,1-1.2-1.1,3.13,3.13,0,0,1-.38-1.4c0-.47,0-1,0-1.61v-9.19H744v9c0,.42,0,.8,0,1.12a1.63,1.63,0,0,0,.2.78,1.36,1.36,0,0,0,1.13.65,7.71,7.71,0,0,0,1.76-.07Z"/><path d="M753.66,118.22a5.55,5.55,0,0,1-2.81-.7,5,5,0,0,1-1.9-1.93,5.78,5.78,0,0,1-.68-2.83,6.34,6.34,0,0,1,.67-3,4.85,4.85,0,0,1,1.85-2,5.25,5.25,0,0,1,2.74-.71,4.94,4.94,0,0,1,2.79.77A4.49,4.49,0,0,1,758,110a7.43,7.43,0,0,1,.42,3.29h-2.34v-.86a4.24,4.24,0,0,0-.61-2.51,2.19,2.19,0,0,0-1.88-.79,2.56,2.56,0,0,0-2.15.89,4.17,4.17,0,0,0-.7,2.62,3.85,3.85,0,0,0,.7,2.48,2.48,2.48,0,0,0,2.06.88,2.79,2.79,0,0,0,1.5-.38,2.54,2.54,0,0,0,1-1.12l2.33.7a4.74,4.74,0,0,1-1.87,2.22A5.19,5.19,0,0,1,753.66,118.22ZM750,113.29v-1.78h7.27v1.78Z"/><path d="M765.23,118.22a5.17,5.17,0,0,1-2.79-.73,4.77,4.77,0,0,1-1.77-2,6.7,6.7,0,0,1-.62-2.85,6.49,6.49,0,0,1,.64-2.88,4.79,4.79,0,0,1,1.8-2,5.15,5.15,0,0,1,2.77-.72,5,5,0,0,1,3,.91,4.08,4.08,0,0,1,1.63,2.47l-2.35.63a2.57,2.57,0,0,0-.9-1.32,2.36,2.36,0,0,0-1.45-.48,2.38,2.38,0,0,0-2.4,1.64,4.91,4.91,0,0,0-.28,1.73,4,4,0,0,0,.67,2.43,2.69,2.69,0,0,0,3.49.5,2.63,2.63,0,0,0,.82-1.24l2.4.54a4.48,4.48,0,0,1-1.71,2.48A5,5,0,0,1,765.23,118.22Z"/><path d="M776.27,118.22a5.25,5.25,0,0,1-2.77-.72,4.77,4.77,0,0,1-1.83-2,6.77,6.77,0,0,1,0-5.81,5,5,0,0,1,1.85-2,5.68,5.68,0,0,1,5.52,0,4.86,4.86,0,0,1,1.84,2,6.68,6.68,0,0,1,0,5.79,5,5,0,0,1-1.85,2A5.31,5.31,0,0,1,776.27,118.22Zm0-2.22a2.44,2.44,0,0,0,2.1-.93,4.08,4.08,0,0,0,.68-2.43,4,4,0,0,0-.69-2.45,2.47,2.47,0,0,0-2.09-.92,2.64,2.64,0,0,0-1.56.43,2.44,2.44,0,0,0-.9,1.18,4.77,4.77,0,0,0-.3,1.76,4,4,0,0,0,.7,2.45A2.44,2.44,0,0,0,776.27,116Z"/><path d="M783.7,117.92V107.36h2.08v2.57l-.25-.33a3.61,3.61,0,0,1,.52-1,2.86,2.86,0,0,1,.79-.72,3.48,3.48,0,0,1,.87-.41,4,4,0,0,1,1-.19,3.93,3.93,0,0,1,1,0v2.2a3.12,3.12,0,0,0-1.08-.09,2.49,2.49,0,0,0-1.1.34,2.32,2.32,0,0,0-.8.68,2.7,2.7,0,0,0-.46.93,4.54,4.54,0,0,0-.14,1.13v5.37Z"/><path d="M796.11,118.22a5.55,5.55,0,0,1-2.81-.7,5,5,0,0,1-1.9-1.93,5.78,5.78,0,0,1-.68-2.83,6.34,6.34,0,0,1,.67-3,4.85,4.85,0,0,1,1.85-2,5.25,5.25,0,0,1,2.74-.71,4.94,4.94,0,0,1,2.79.77,4.49,4.49,0,0,1,1.71,2.17,7.43,7.43,0,0,1,.42,3.29h-2.34v-.86a4.24,4.24,0,0,0-.61-2.51,2.19,2.19,0,0,0-1.88-.79,2.56,2.56,0,0,0-2.15.89,4.17,4.17,0,0,0-.7,2.62,3.85,3.85,0,0,0,.7,2.48A2.48,2.48,0,0,0,796,116a2.79,2.79,0,0,0,1.5-.38,2.54,2.54,0,0,0,1-1.12l2.33.7a4.74,4.74,0,0,1-1.87,2.22A5.19,5.19,0,0,1,796.11,118.22Zm-3.64-4.93v-1.78h7.27v1.78Z"/><path class="cls-2" d="M180.28.56s0,3.25,0,4.34a15,15,0,0,1-1.21,5.91,7.72,7.72,0,0,1-4,4.36c-14.34,4.36-23.24,15.67-23.24,29.52,0,18.06,15,32.75,33.43,32.75s33.43-14.69,33.43-32.75c0-15-10.65-27.23-26.51-30.55h0c-.87-.24-2.91-.39-8.55-8.57C182.77,4.33,180.28.56,180.28.56Zm-2.34,36.77c4.93,0,8.94,2.58,12.16,4.66,1.92,1.23,3.69,2.4,4.82,2.36s3.76-1.6,5.76-2.89c2.63-1.7,5.12-3.3,7.18-3.3,4,0,5.85,3.45,5.85,6.85A15.74,15.74,0,0,1,211,53.55c-1.79,2.33-3.07,3.73-6,3.5-1.68-.13-3.36-1.7-5.48-3.69-1.47-1.37-3.68-3.44-4.68-3.5s-2.71,1-4.62,2.18c-3.23,2-7.65,4.75-13.86,5.34-.36,0-.77,0-1.19,0a12.06,12.06,0,0,1-6.41-1.66c-3.16-2.11-3.58-4.93-3.58-7.41C165.24,42.07,170.7,37.33,177.94,37.33Zm0,3.34c-5.34,0-9.36,3.31-9.36,7.69,0,2.42.53,3.58,2.1,4.63a9.48,9.48,0,0,0,5.43,1.06c5.42-.51,9.29-2.91,12.4-4.84a27,27,0,0,1,3.76-2.11,27.91,27.91,0,0,1-4-2.3C185.28,42.87,181.9,40.67,177.94,40.67Zm29.92.84c-1.08,0-3.46,1.53-5.38,2.77a31,31,0,0,1-5.22,2.93,24.7,24.7,0,0,1,4.6,3.71c1.13,1.06,2.84,2.66,3.47,2.79,1.06.1,1.42-.08,3-2.19a12.42,12.42,0,0,0,2-6.51C210.37,44,210.13,41.51,207.86,41.51ZM194.67,55.72a7.45,7.45,0,0,1,7.13,4.41,1.67,1.67,0,0,1-1,2.16,1.63,1.63,0,0,1-.6.11,1.66,1.66,0,0,1-1.56-1.07,4.14,4.14,0,0,0-4-2.27c-3.33,0-4.35,2.08-4.46,2.32a1.67,1.67,0,0,1-2.18.87,1.64,1.64,0,0,1-.9-2.15C187.2,59.93,189,55.72,194.67,55.72Zm3.68,8.42a1.65,1.65,0,0,1,1.7.71,1.66,1.66,0,0,1-.45,2.32,15.45,15.45,0,0,1-9.07,3c-.56,0-1.15,0-1.76-.09-3.58-.38-6.25-1.42-8-3.08a1.67,1.67,0,1,1,2.34-2.39c1.13,1.1,3.19,1.85,6,2.14a12,12,0,0,0,8.6-2.37A1.59,1.59,0,0,1,198.35,64.14Z"/><path class="cls-2" d="M761.46,5.06A34.94,34.94,0,1,0,796.4,40,35,35,0,0,0,761.46,5.06Zm0,3A31.9,31.9,0,1,1,729.56,40,31.88,31.88,0,0,1,761.46,8.1Zm0,6.08A25.76,25.76,0,0,0,735.64,40,26.57,26.57,0,0,0,739,53.1h0l0,0c4.27,7.59,12.3,12.7,22.43,12.7,15.28,0,25.82-11.59,25.82-25.82A25.76,25.76,0,0,0,761.46,14.18Zm0,3A22.74,22.74,0,0,1,775.53,22L767.16,29l.54,1.08s4.24,8.07-2.85,16.57c-3.31,4-9.2,4.76-14.49,4.4a44.18,44.18,0,0,1-9.68-1.83l-.12.35A24.49,24.49,0,0,1,738.68,40,22.65,22.65,0,0,1,761.46,17.22Zm16.36,6.86a22.73,22.73,0,0,1,5.6,9.84h-8.28v1.51s-.19,11.42-8.49,17c-3.32,2.23-8.52,2.39-13.41,1.71,5-.08,10.41-1.3,13.95-5.55,6.74-8.09,4.61-16.12,3.66-18.71ZM778.06,37h6a23.51,23.51,0,0,1,.22,3,24.32,24.32,0,0,1-2.08,10l-4.51-3-.81,1.41s-5.64,9.87-16.91,9.87a29.66,29.66,0,0,1-9.68-1.53c5.83,1.16,12.94,1.67,18.08-1.77C776.42,49.51,777.8,40.23,778.06,37Zm.51,14.25,2.18,1.45c-3.83,6.14-10.61,10.12-19.29,10.12a23.64,23.64,0,0,1-12.27-3.24,32.72,32.72,0,0,0,10.75,1.73C770.53,61.27,776.58,54,778.57,51.21Z"/><path class="cls-2" d="M638.07,3.56A37.47,37.47,0,1,0,675.54,41,37.47,37.47,0,0,0,638.07,3.56Zm28.37,24.49c0,.3,0,.56,0,.87a30.41,30.41,0,0,1-2.44,11.51l-9.33,27a30.27,30.27,0,0,1-6.35,3.07l-9.73-26.63L629.3,71a31.73,31.73,0,0,1-5.72-2.32l-14.4-39.43a31.5,31.5,0,0,1,3.15-5.83l1,0c3.36,0,8.56-.41,8.56-.41a1.33,1.33,0,0,1,.21,2.65s-1.74.2-3.68.3l11.7,34.82,7-21.1-5-13.72c-1.73-.1-3.37-.3-3.37-.3a1.33,1.33,0,0,1,.2-2.65s5.31.41,8.47.41c3.36,0,8.56-.41,8.56-.41a1.33,1.33,0,0,1,.21,2.65s-1.75.2-3.68.3l11.61,34.56,3.21-10.73a29.87,29.87,0,0,0,2.45-10.38,17,17,0,0,0-2.65-8.87C655.49,27.89,654,25.65,654,23a5.63,5.63,0,0,1,4.47-5.6A31.51,31.51,0,0,1,666.44,28.05Z"/><path class="cls-2" d="M312.89,3.72a7,7,0,0,0-4.6,1.91,12.81,12.81,0,0,0-2.78,3.89,31,31,0,0,0-2.58,8.84L294.06,21l-6.53,47.32,43.42,8,.62-.12L357.89,71l-8.54-55.4-15.5-6.39-3.31,1a16.78,16.78,0,0,0-1.83-2.92,8.48,8.48,0,0,0-6.5-3.54,7.48,7.48,0,0,0-4.82,2A6.59,6.59,0,0,0,312.89,3.72Zm0,6.59c-.21,0,.07-.08.76.9a15.06,15.06,0,0,1,1.56,3.51l-5.14,1.52a20.23,20.23,0,0,1,1.35-3.81,7.3,7.3,0,0,1,1.31-1.93C313.05,10.21,313,10.31,312.89,10.31Zm9.32,0c.14,0,.57.07,1.35,1.06.14.18.29.51.44.74l-2.58.77a14.53,14.53,0,0,1-.64-1.38C321.56,10.5,322.07,10.31,322.21,10.31ZM331,16.9,327.87,69l-32.94-6L300,26.1Zm6.55,1,5.82,2.4,7,45.49-15.94,3.12ZM317.39,30.09c-7.82,0-11.68,5.28-11.68,10.73,0,6.51,6.36,6.68,6.36,10.62a2.24,2.24,0,0,1-2.33,2.27c-2.51,0-5.49-2.61-5.49-2.61l-1.52,5.07a11.21,11.21,0,0,0,8.53,3.57c4.71,0,8.19-3.6,8.19-9.19,0-7.09-7.78-8.25-7.78-11.27,0-.54.17-2.78,3.66-2.78a10.07,10.07,0,0,1,4.3,1.07L321.8,31A9,9,0,0,0,317.39,30.09Z"/><path class="cls-2" d="M456.07,21a9,9,0,0,0-9,9V54a9,9,0,0,0,9,9H479l19.12,6-1.41-6h13.41a9,9,0,0,0,9-9V30a9,9,0,0,0-9-9Zm0,6h54a3,3,0,0,1,3,3V54a3,3,0,0,1-3,3h-21l.73,3.12-9.07-2.84-.88-.28h-23.8a3,3,0,0,1-3-3V30A3,3,0,0,1,456.07,27Zm21.75,3a2.28,2.28,0,0,0-2.08,1.39A43.57,43.57,0,0,0,473,43.22a72.28,72.28,0,0,1-2.35-8.38,2.24,2.24,0,0,0-4.28-.41l-4.11,10a80.09,80.09,0,0,1-1.69-12.29,2.25,2.25,0,0,0-4.49.19,100.08,100.08,0,0,0,3.46,20,2.25,2.25,0,0,0,4.25.23L468,42.37c1.13,3.63,2.83,8,5.06,10.8a2.28,2.28,0,0,0,1.77.86,2.34,2.34,0,0,0,.74-.12,2.26,2.26,0,0,0,1.51-2.13c0-7.64,1-14.26,2.83-18.64A2.26,2.26,0,0,0,477.82,30Zm10.5,3c-3.28,0-6.33,3.19-7.24,7.7a10.47,10.47,0,0,0,1.17,7.73,5.53,5.53,0,0,0,3.53,2.47,4.85,4.85,0,0,0,1,.1c3.29,0,6.37-3.16,7.29-7.69a10.51,10.51,0,0,0-1.17-7.73,5.53,5.53,0,0,0-3.53-2.47A5.35,5.35,0,0,0,488.32,33Zm15.75,0c-3.27,0-6.33,3.19-7.24,7.7A10.47,10.47,0,0,0,498,48.46a5.53,5.53,0,0,0,3.53,2.47,4.85,4.85,0,0,0,1,.1c3.29,0,6.37-3.16,7.29-7.69a10.51,10.51,0,0,0-1.17-7.73,5.53,5.53,0,0,0-3.53-2.47A5.35,5.35,0,0,0,504.07,33Zm-15.69,4.51h.11a1.25,1.25,0,0,1,.67.55,6.1,6.1,0,0,1,.5,4.35c-.56,2.78-2.22,4.21-3,4.07A1.23,1.23,0,0,1,486,46a6.09,6.09,0,0,1-.51-4.35C486,39,487.59,37.54,488.38,37.54Zm15.75,0h.11a1.25,1.25,0,0,1,.67.55,6.1,6.1,0,0,1,.5,4.35c-.56,2.78-2.24,4.21-3,4.07a1.23,1.23,0,0,1-.66-.55,6.09,6.09,0,0,1-.51-4.35C501.78,39,503.34,37.54,504.13,37.54Z"/><path class="cls-2" d="M40.53,2.27,7.72,21.21V59.09L17.1,64.5V26.62L40.53,13.09,64,26.62V64.5l9.37-5.41V21.21ZM35.85,25.4l-9.38,5.41V69.92L40.53,78l14.06-8.11V30.81L45.22,25.4V64.5l-4.69,2.71L35.85,64.5Z"/></g></g></svg>