<svg xmlns="http://www.w3.org/2000/svg" viewBox="0 0 787.11 111.64"><defs><style>.cls-1{fill:none;}.cls-2,.cls-3{fill:#0091ff;}.cls-3{fill-rule:evenodd;}.cls-4{fill:#04142E;}</style></defs><g id="Layer_2" data-name="Layer 2"><g id="Layer_1-2" data-name="Layer 1"><rect class="cls-1" width="80" height="80"/><path class="cls-2" d="M66.92,27.26c-.34.22-8.49,4.74-8.49,14.78A17.38,17.38,0,0,0,68.89,57.5a41.55,41.55,0,0,1-5.43,11C60.35,73.22,56.89,78,51.63,78c-5,0-6.79-3.16-12.55-3.16-6.19,0-7.95,3.16-12.69,3.16-5.25,0-9-5-12.25-9.74a48,48,0,0,1-8-25.07A26.36,26.36,0,0,1,9.35,29.36a19.32,19.32,0,0,1,16-9.74c5-.17,9.52,3.46,12.59,3.46s8.46-3.46,14.69-3.46A17.11,17.11,0,0,1,66.92,27.26ZM37.5,18.64c-.9-4.49,1.58-9,3.88-11.83C44.33,3.35,49,1,53,1a16.74,16.74,0,0,1-4.27,12.09C46.12,16.55,41.64,19.15,37.5,18.64Z"/><rect class="cls-1" x="143.75" width="80" height="80"/><path class="cls-2" d="M167.45,3a1.36,1.36,0,0,0-1,2l3.65,6.32a24.69,24.69,0,0,0-9,15.46h45.54a23.7,23.7,0,0,0-9-15.62L201.22,5a1.36,1.36,0,1,0-2.35-1.35l-3.46,6a22.5,22.5,0,0,0-11.14-3.21,21.82,21.82,0,0,0-12,3.31L168.8,3.68A1.35,1.35,0,0,0,167.45,3ZM173.66,16a2,2,0,1,1-2,2A2,2,0,0,1,173.66,16ZM194,16a2,2,0,1,1-2,2A2,2,0,0,1,194,16ZM160.82,29.59c0,.36,0,.72,0,1.08V59.24a5.49,5.49,0,0,0,5.43,5.55h4.07v8.82a3.39,3.39,0,0,0,6.78,0V64.79h13.57v8.82a3.39,3.39,0,0,0,6.78,0V64.79h4.07a5.49,5.49,0,0,0,5.43-5.55V30.8Zm-7.51,1.29a3.39,3.39,0,0,0-3.39,3.39V45.12a3.39,3.39,0,1,0,6.78,0V34.27A3.39,3.39,0,0,0,153.31,30.88Zm61.05,0A3.38,3.38,0,0,0,211,34.27V45.12a3.39,3.39,0,1,0,6.78,0V34.27A3.39,3.39,0,0,0,214.36,30.88Z"/><rect class="cls-1" x="707.11" width="80" height="80"/><path class="cls-2" d="M746.91,2.81A38.13,38.13,0,1,0,781.51,25a12.39,12.39,0,0,1-6.75,5.35,29.92,29.92,0,1,1-15.34-16.47,12.4,12.4,0,0,1,5.81-6.36A37.84,37.84,0,0,0,746.91,2.81Zm24,6.62A9.11,9.11,0,1,0,780,18.54,9.11,9.11,0,0,0,770.92,9.43Zm-24,14.91A16.57,16.57,0,1,0,763.47,40.9,16.57,16.57,0,0,0,746.91,24.34Z"/><rect class="cls-1" x="568.45" width="80" height="80"/><path class="cls-2" d="M578.45,5a6,6,0,0,0-6,6V71a6,6,0,0,0,6,6h60a6,6,0,0,0,6-6V11a6,6,0,0,0-6-6Zm0,2.4h60a3.59,3.59,0,0,1,3.6,3.6V71a3.59,3.59,0,0,1-3.6,3.6h-60a3.59,3.59,0,0,1-3.6-3.6V11A3.59,3.59,0,0,1,578.45,7.4Zm3.6,6a1.2,1.2,0,1,0,1.2,1.2A1.2,1.2,0,0,0,582.05,13.4Zm4.8,0a1.2,1.2,0,1,0,1.2,1.2A1.2,1.2,0,0,0,586.85,13.4Zm4.8,0a1.2,1.2,0,1,0,1.2,1.2A1.2,1.2,0,0,0,591.65,13.4Zm4.8,0a1.2,1.2,0,1,0,1.2,1.2A1.2,1.2,0,0,0,596.45,13.4Zm4.8,0a1.2,1.2,0,1,0,1.2,1.2A1.2,1.2,0,0,0,601.25,13.4Zm4.8,0a1.2,1.2,0,1,0,1.2,1.2A1.2,1.2,0,0,0,606.05,13.4Zm4.8,0a1.2,1.2,0,1,0,1.2,1.2A1.2,1.2,0,0,0,610.85,13.4Zm4.8,0a1.2,1.2,0,1,0,1.2,1.2A1.2,1.2,0,0,0,615.65,13.4Zm4.8,0a1.2,1.2,0,1,0,1.2,1.2A1.2,1.2,0,0,0,620.45,13.4Zm4.8,0a1.2,1.2,0,1,0,1.2,1.2A1.2,1.2,0,0,0,625.25,13.4Zm4.8,0a1.2,1.2,0,1,0,1.2,1.2A1.2,1.2,0,0,0,630.05,13.4Zm4.8,0a1.2,1.2,0,1,0,1.2,1.2A1.2,1.2,0,0,0,634.85,13.4Zm-52.8,4.8a1.2,1.2,0,1,0,1.2,1.2A1.2,1.2,0,0,0,582.05,18.2Zm52.8,0a1.2,1.2,0,1,0,1.2,1.2A1.2,1.2,0,0,0,634.85,18.2ZM582.05,23a1.2,1.2,0,1,0,1.2,1.2A1.2,1.2,0,0,0,582.05,23Zm52.8,0a1.2,1.2,0,1,0,1.2,1.2A1.2,1.2,0,0,0,634.85,23Zm-23.7,1.8s6,7.61,3,16.14c0,0-10.86-7.71-16.32-13.24,0,0,6.83,9.83,9.26,11.84,0,0-4.07-2.11-13.51-10.14,0,0,10.84,14.14,15.93,17.09,0,0-7.72,5.27-19-2.17,0,0,5.93,10.49,18.48,10.49,5.63,0,7.28-2.91,10.08-2.91s4.63,2.91,4.63,2.91c1.7-4.15-2.5-8.89-2.5-8.89S625.92,34.84,611.15,24.8Zm-29.1,3a1.2,1.2,0,1,0,1.2,1.2A1.2,1.2,0,0,0,582.05,27.8Zm52.8,0a1.2,1.2,0,1,0,1.2,1.2A1.2,1.2,0,0,0,634.85,27.8Zm-52.8,4.8a1.2,1.2,0,1,0,1.2,1.2A1.2,1.2,0,0,0,582.05,32.6Zm52.8,0a1.2,1.2,0,1,0,1.2,1.2A1.2,1.2,0,0,0,634.85,32.6Zm-52.8,4.8a1.2,1.2,0,1,0,1.2,1.2A1.2,1.2,0,0,0,582.05,37.4Zm52.8,0a1.2,1.2,0,1,0,1.2,1.2A1.2,1.2,0,0,0,634.85,37.4Zm-52.8,4.8a1.2,1.2,0,1,0,1.2,1.2A1.2,1.2,0,0,0,582.05,42.2Zm52.8,0a1.2,1.2,0,1,0,1.2,1.2A1.2,1.2,0,0,0,634.85,42.2ZM582.05,47a1.2,1.2,0,1,0,1.2,1.2A1.2,1.2,0,0,0,582.05,47Zm52.8,0a1.2,1.2,0,1,0,1.2,1.2A1.2,1.2,0,0,0,634.85,47Zm-52.8,4.8a1.2,1.2,0,1,0,1.2,1.2A1.2,1.2,0,0,0,582.05,51.8Zm52.8,0a1.2,1.2,0,1,0,1.2,1.2A1.2,1.2,0,0,0,634.85,51.8Zm-52.8,4.8a1.2,1.2,0,1,0,1.2,1.2A1.2,1.2,0,0,0,582.05,56.6Zm52.8,0a1.2,1.2,0,1,0,1.2,1.2A1.2,1.2,0,0,0,634.85,56.6Zm-52.8,4.8a1.2,1.2,0,1,0,1.2,1.2A1.2,1.2,0,0,0,582.05,61.4Zm52.8,0a1.2,1.2,0,1,0,1.2,1.2A1.2,1.2,0,0,0,634.85,61.4Zm-52.8,4.8a1.2,1.2,0,1,0,1.2,1.2A1.2,1.2,0,0,0,582.05,66.2Zm4.8,0a1.2,1.2,0,1,0,1.2,1.2A1.2,1.2,0,0,0,586.85,66.2Zm4.8,0a1.2,1.2,0,1,0,1.2,1.2A1.2,1.2,0,0,0,591.65,66.2Zm4.8,0a1.2,1.2,0,1,0,1.2,1.2A1.2,1.2,0,0,0,596.45,66.2Zm4.8,0a1.2,1.2,0,1,0,1.2,1.2A1.2,1.2,0,0,0,601.25,66.2Zm4.8,0a1.2,1.2,0,1,0,1.2,1.2A1.2,1.2,0,0,0,606.05,66.2Zm4.8,0a1.2,1.2,0,1,0,1.2,1.2A1.2,1.2,0,0,0,610.85,66.2Zm4.8,0a1.2,1.2,0,1,0,1.2,1.2A1.2,1.2,0,0,0,615.65,66.2Zm4.8,0a1.2,1.2,0,1,0,1.2,1.2A1.2,1.2,0,0,0,620.45,66.2Zm4.8,0a1.2,1.2,0,1,0,1.2,1.2A1.2,1.2,0,0,0,625.25,66.2Zm4.8,0a1.2,1.2,0,1,0,1.2,1.2A1.2,1.2,0,0,0,630.05,66.2Zm4.8,0a1.2,1.2,0,1,0,1.2,1.2A1.2,1.2,0,0,0,634.85,66.2Z"/><rect class="cls-1" x="423.9" width="80" height="80"/><path class="cls-3" d="M480.11,5.67a12.1,12.1,0,0,0-4,.63,27.53,27.53,0,0,0-8.56,5c-1.15.94-2.31,2-3.48,3.15-1.15-1.11-2.29-2.16-3.42-3.08a27.49,27.49,0,0,0-8.54-5,9.39,9.39,0,0,0-7.68.38,9.37,9.37,0,0,0-4.17,6.47,27.46,27.46,0,0,0,.07,9.9c.21,1.3.5,2.66.84,4.06-1.27.38-2.51.79-3.66,1.24a26.62,26.62,0,0,0-8.43,4.9,9.46,9.46,0,0,0-3.44,6.84A9.46,9.46,0,0,0,429,47a26.82,26.82,0,0,0,8.43,4.91c1.23.48,2.56.91,3.93,1.32-.49,1.84-.89,3.63-1.17,5.33a27.5,27.5,0,0,0-.06,9.91,8.44,8.44,0,0,0,11.9,6.87,27.25,27.25,0,0,0,8.55-5c1.14-.93,2.3-2,3.46-3.12,1.16,1.14,2.32,2.2,3.47,3.14a27.64,27.64,0,0,0,8.55,5A8.42,8.42,0,0,0,488,68.52a27.46,27.46,0,0,0-.07-9.9,51.89,51.89,0,0,0-1.17-5.35c1.42-.42,2.79-.86,4.06-1.35A26.65,26.65,0,0,0,499.19,47a9.46,9.46,0,0,0,3.44-6.84,9.46,9.46,0,0,0-3.44-6.84,26.45,26.45,0,0,0-8.42-4.9c-1.17-.46-2.43-.87-3.72-1.26.34-1.4.64-2.77.85-4.08a27.58,27.58,0,0,0,.07-9.92,9.4,9.4,0,0,0-4.19-6.49A7.8,7.8,0,0,0,480.11,5.67ZM480,9.08a4.37,4.37,0,0,1,2.11.56c1.2.69,2.08,2,2.55,4.25a24.52,24.52,0,0,1-.1,8.66c-.19,1.18-.47,2.44-.78,3.73a77,77,0,0,0-11.17-1.8,81.44,81.44,0,0,0-6.15-7.56c1.1-1.07,2.19-2.08,3.26-3a24.42,24.42,0,0,1,7.44-4.41A8.6,8.6,0,0,1,480,9.08Zm-31.77,0a8.62,8.62,0,0,1,2.85.48A24.66,24.66,0,0,1,458.5,14c1,.85,2.11,1.83,3.19,2.88a80,80,0,0,0-6.2,7.63,76,76,0,0,0-11.12,1.81c-.31-1.28-.59-2.53-.78-3.71a24.58,24.58,0,0,1-.1-8.67c.47-2.22,1.36-3.57,2.57-4.27A4.38,4.38,0,0,1,448.19,9.09Zm15.89,10.24c1.36,1.48,2.73,3.11,4.08,4.85-1.33-.05-2.68-.08-4-.08s-2.77,0-4.12.09C461.35,22.44,462.71,20.81,464.08,19.33Zm0,8.15c2.27,0,4.49.09,6.65.25,1.49,2.13,2.94,4.39,4.32,6.79,1.21,2.1,2.31,4.2,3.31,6.28-1,2.1-2.12,4.23-3.36,6.37-1.08,1.87-2.21,3.66-3.36,5.38-2.44.2-5,.31-7.56.31s-5.24-.12-7.73-.33c-1.14-1.69-2.25-3.45-3.32-5.3-1.23-2.13-2.34-4.25-3.35-6.35,1-2.11,2.13-4.25,3.37-6.39,1.38-2.38,2.82-4.63,4.3-6.75C459.57,27.57,461.82,27.48,464.12,27.48Zm11,.67a71.9,71.9,0,0,1,7.76,1.39,75.73,75.73,0,0,1-2.66,7.33c-.7-1.34-1.41-2.68-2.19-4C477.05,31.22,476.07,29.66,475.08,28.15Zm-22.1,0c-1,1.49-1.93,3-2.85,4.61q-1.17,2-2.22,4.07a74.67,74.67,0,0,1-2.64-7.28A73.35,73.35,0,0,1,453,28.17Zm33.17,2.26c1.19.36,2.34.74,3.39,1.15a23.79,23.79,0,0,1,7.36,4.24c1.64,1.51,2.35,3,2.35,4.35s-.71,2.84-2.35,4.36a24,24,0,0,1-7.36,4.24c-1.17.45-2.45.87-3.79,1.26a82.77,82.77,0,0,0-3.61-9.15A81.31,81.31,0,0,0,486.15,30.43Zm-44.12,0a79.52,79.52,0,0,0,4,10.34,80.59,80.59,0,0,0-3.63,9.2c-1.29-.38-2.53-.78-3.66-1.22a23.93,23.93,0,0,1-7.37-4.24c-1.64-1.52-2.35-3-2.35-4.36s.71-2.84,2.35-4.35a23.73,23.73,0,0,1,7.37-4.24C439.73,31.17,440.86,30.8,442,30.45Zm22.09,2a8.37,8.37,0,1,0,8.37,8.37A8.4,8.4,0,0,0,464.12,32.48ZM448,44.81c.7,1.36,1.44,2.73,2.23,4.09.61,1.07,1.25,2.12,1.89,3.14-2.25-.31-4.39-.71-6.4-1.17C446.31,48.91,447.08,46.88,448,44.81Zm32.27,0c.88,2.08,1.64,4.11,2.28,6.07-2,.47-4.16.86-6.41,1.17.65-1,1.29-2.09,1.92-3.18C478.79,47.52,479.52,46.16,480.22,44.81Zm-35.51,9.31a78.25,78.25,0,0,0,9.8,1.62,80.94,80.94,0,0,0,7.18,9c-1.09,1.06-2.17,2.06-3.23,2.92A24.66,24.66,0,0,1,451,72.1c-2.15.7-3.75.61-4.95-.08s-2.07-2-2.55-4.25a24.76,24.76,0,0,1,.1-8.66A48.81,48.81,0,0,1,444.71,54.12Zm38.76,0a49.3,49.3,0,0,1,1.1,5,24.34,24.34,0,0,1,.1,8.67c-.47,2.22-1.35,3.58-2.56,4.27s-2.83.79-5,.09a24.42,24.42,0,0,1-7.46-4.42c-1.07-.86-2.16-1.87-3.25-2.94a82.9,82.9,0,0,0,7.23-9.07A77.08,77.08,0,0,0,483.47,54.13Zm-24.6,2c1.72.09,3.46.15,5.25.15s3.41-.06,5.07-.14A77.26,77.26,0,0,1,464,62.36,79.25,79.25,0,0,1,458.87,56.09Z"/><rect class="cls-1" x="284.43" width="80" height="80"/><path class="cls-2" d="M329.81,3.65,294.56,38.89a1.68,1.68,0,0,0,0,2.37l9.38,9.38a1.67,1.67,0,0,0,2.37,0L350.93,6a1.68,1.68,0,0,0-1.18-2.87H331A1.66,1.66,0,0,0,329.81,3.65Zm21.12,35.94-29,29L311.35,58.05a1.68,1.68,0,0,1,0-2.38l18.46-18.46a1.69,1.69,0,0,1,1.19-.49h18.75A1.68,1.68,0,0,1,350.93,39.59Zm0,34.55L338.69,61.9l-16.78,6.71,7.9,7.9A1.69,1.69,0,0,0,331,77h18.75A1.67,1.67,0,0,0,350.93,74.14Z"/><path class="cls-4" d="M146.8,111.22l4.68-14.4h3l4.68,14.4H157l-4.31-13.14h.54L149,111.22Zm2.43-3.25v-2h7.52v2Z"/><path class="cls-4" d="M161,111.22v-10.8h1.87v3.12h.25v7.68Zm7.59,0v-5.31a8.41,8.41,0,0,0-.1-1.3,4,4,0,0,0-.4-1.23,2.37,2.37,0,0,0-.83-.92,2.55,2.55,0,0,0-1.4-.35,3.15,3.15,0,0,0-1.06.18,2.35,2.35,0,0,0-.87.6,2.78,2.78,0,0,0-.59,1.08,5.49,5.49,0,0,0-.22,1.63l-1.3-.49a6,6,0,0,1,.55-2.6,4.19,4.19,0,0,1,1.58-1.75,4.7,4.7,0,0,1,2.49-.63,4.35,4.35,0,0,1,1.88.36,3.49,3.49,0,0,1,1.24.94,4.17,4.17,0,0,1,.72,1.28,6.36,6.36,0,0,1,.34,1.35,8.76,8.76,0,0,1,.09,1.16v6Z"/><path class="cls-4" d="M177.43,111.52a4.5,4.5,0,0,1-2.6-.75,4.89,4.89,0,0,1-1.69-2,7.38,7.38,0,0,1,0-5.83,4.93,4.93,0,0,1,1.71-2,4.63,4.63,0,0,1,2.62-.74,4.39,4.39,0,0,1,2.58.74,4.63,4.63,0,0,1,1.58,2,8.18,8.18,0,0,1,0,5.82,4.65,4.65,0,0,1-1.59,2A4.28,4.28,0,0,1,177.43,111.52Zm.29-1.89a2.68,2.68,0,0,0,1.68-.49,2.78,2.78,0,0,0,.95-1.35,6.68,6.68,0,0,0,0-4,2.82,2.82,0,0,0-.94-1.34,2.6,2.6,0,0,0-1.62-.48,2.76,2.76,0,0,0-1.71.51,3.1,3.1,0,0,0-1,1.37,5.3,5.3,0,0,0-.33,1.92,5.35,5.35,0,0,0,.33,1.93,3.06,3.06,0,0,0,1,1.38A2.62,2.62,0,0,0,177.72,109.63Zm2.93,1.59v-7.77h-.24V96.82h2.1v14.4Z"/><path class="cls-4" d="M185.31,111.22v-10.8h1.86V103l-.26-.34a4.42,4.42,0,0,1,.52-1,3.1,3.1,0,0,1,.74-.71,3.33,3.33,0,0,1,.92-.47,4.58,4.58,0,0,1,1-.2,4.25,4.25,0,0,1,1,.06v2a3.41,3.41,0,0,0-1.17-.08,2.66,2.66,0,0,0-2,1.21,3.31,3.31,0,0,0-.43,1,6,6,0,0,0-.13,1.22v5.45Z"/><path class="cls-4" d="M197.53,111.52a5.25,5.25,0,0,1-2.81-.73,4.9,4.9,0,0,1-1.83-2,7.06,7.06,0,0,1,0-5.94,5,5,0,0,1,1.85-2,5.37,5.37,0,0,1,2.78-.71,5.23,5.23,0,0,1,2.81.73,4.89,4.89,0,0,1,1.84,2,7.06,7.06,0,0,1,0,5.92,4.86,4.86,0,0,1-1.85,2A5.19,5.19,0,0,1,197.53,111.52Zm0-2a2.68,2.68,0,0,0,2.32-1,4.42,4.42,0,0,0,.76-2.69,4.34,4.34,0,0,0-.77-2.71,2.75,2.75,0,0,0-2.31-1,3,3,0,0,0-1.73.47,2.89,2.89,0,0,0-1,1.31,5.29,5.29,0,0,0-.33,1.94,4.37,4.37,0,0,0,.78,2.72A2.71,2.71,0,0,0,197.53,109.55Z"/><path class="cls-4" d="M205.23,98.65v-2h2.09v2Zm0,12.57v-10.8h2.09v10.8Z"/><path class="cls-4" d="M214.61,111.52a4.5,4.5,0,0,1-2.6-.75,4.89,4.89,0,0,1-1.69-2,7.38,7.38,0,0,1,0-5.83,4.93,4.93,0,0,1,1.71-2,4.63,4.63,0,0,1,2.62-.74,4.39,4.39,0,0,1,2.58.74,4.63,4.63,0,0,1,1.58,2,8.18,8.18,0,0,1,0,5.82,4.65,4.65,0,0,1-1.59,2A4.28,4.28,0,0,1,214.61,111.52Zm.29-1.89a2.68,2.68,0,0,0,1.68-.49,2.78,2.78,0,0,0,.95-1.35,6.68,6.68,0,0,0,0-4,2.82,2.82,0,0,0-.94-1.34A2.6,2.6,0,0,0,215,102a2.76,2.76,0,0,0-1.71.51,3.1,3.1,0,0,0-1,1.37,5.3,5.3,0,0,0-.33,1.92,5.35,5.35,0,0,0,.33,1.93,3.06,3.06,0,0,0,1,1.38A2.62,2.62,0,0,0,214.9,109.63Zm2.93,1.59v-7.77h-.24V96.82h2.1v14.4Z"/><path class="cls-4" d="M294.19,111.22V96.82h8.53v2.09h-6.44V103h5.24v2.1h-5.24v6.15Z"/><path class="cls-4" d="M304.72,111.22V96.52h2.09v14.7Z"/><path class="cls-4" d="M313.88,111.51a4.41,4.41,0,0,1-1.88-.36,3.56,3.56,0,0,1-1.23-1,4.37,4.37,0,0,1-.73-1.27,7,7,0,0,1-.34-1.35,8.76,8.76,0,0,1-.09-1.16v-6h2.12v5.31a8.22,8.22,0,0,0,.11,1.29,3.92,3.92,0,0,0,.4,1.24,2.3,2.3,0,0,0,.83.92,2.53,2.53,0,0,0,1.39.35,2.85,2.85,0,0,0,1.06-.19,2.17,2.17,0,0,0,.88-.59,2.92,2.92,0,0,0,.59-1.08,5.52,5.52,0,0,0,.21-1.63l1.3.49a5.77,5.77,0,0,1-.55,2.59,4.09,4.09,0,0,1-1.58,1.76A4.65,4.65,0,0,1,313.88,111.51Zm3.57-.29V108.1h-.25v-7.68h2.11v10.8Z"/><path class="cls-4" d="M320.91,102.1v-1.68h7.38v1.68Zm7.38,9.12a9.11,9.11,0,0,1-2,.17,4.63,4.63,0,0,1-1.75-.38,2.38,2.38,0,0,1-1.16-1.1,3.12,3.12,0,0,1-.37-1.37c0-.46,0-1,0-1.57V97.42h2.1v9.45c0,.43,0,.81,0,1.13a1.79,1.79,0,0,0,.2.81,1.42,1.42,0,0,0,1.15.7,7.32,7.32,0,0,0,1.84-.06Zm-.13-9.12v-1.68h7.38v1.68Zm7.38,9.12a9.11,9.11,0,0,1-2,.17,4.63,4.63,0,0,1-1.75-.38,2.38,2.38,0,0,1-1.16-1.1,3.12,3.12,0,0,1-.37-1.37c0-.46,0-1,0-1.57V97.42h2.1v9.45c0,.43,0,.81,0,1.13a1.79,1.79,0,0,0,.2.81,1.42,1.42,0,0,0,1.15.7,7.32,7.32,0,0,0,1.84-.06Z"/><path class="cls-4" d="M342.59,111.52a5.52,5.52,0,0,1-2.82-.71,4.85,4.85,0,0,1-1.89-2,6.12,6.12,0,0,1-.68-2.93,6.59,6.59,0,0,1,.67-3.07,4.81,4.81,0,0,1,1.85-2,5.36,5.36,0,0,1,2.77-.71,5,5,0,0,1,2.81.76,4.63,4.63,0,0,1,1.74,2.18,7.64,7.64,0,0,1,.45,3.35H345.4v-.76a4.63,4.63,0,0,0-.71-2.78,2.52,2.52,0,0,0-2.12-.9,2.85,2.85,0,0,0-2.36,1,4.53,4.53,0,0,0-.79,2.86,4.29,4.29,0,0,0,.79,2.75,2.78,2.78,0,0,0,2.28,1,3.13,3.13,0,0,0,1.7-.45,2.94,2.94,0,0,0,1.11-1.27l2.05.65a4.77,4.77,0,0,1-1.91,2.24A5.28,5.28,0,0,1,342.59,111.52Zm-3.85-5.11v-1.63h7.71v1.63Z"/><path class="cls-4" d="M349.73,111.22v-10.8h1.86V103l-.26-.34a4.42,4.42,0,0,1,.52-1,3.1,3.1,0,0,1,.74-.71,3.33,3.33,0,0,1,.92-.47,4.47,4.47,0,0,1,1-.2,4.25,4.25,0,0,1,1,.06v2a3.41,3.41,0,0,0-1.17-.08,2.65,2.65,0,0,0-1.19.41,2.54,2.54,0,0,0-.8.8,3.31,3.31,0,0,0-.43,1,6,6,0,0,0-.13,1.22v5.45Z"/><path class="cls-4" d="M424.27,111.22V96.82h6.34a5,5,0,0,1,.59.07,4.34,4.34,0,0,1,2,.82,3.78,3.78,0,0,1,1.2,1.59,5.41,5.41,0,0,1,.4,2.12,5,5,0,0,1-.88,3,3.88,3.88,0,0,1-2.64,1.56l-.85.1h-4.08v5.17Zm2.09-7.15H430l.45,0a3.17,3.17,0,0,0,.46-.07,2,2,0,0,0,1-.56,2.35,2.35,0,0,0,.56-.93,3.39,3.39,0,0,0,0-2.12,2.35,2.35,0,0,0-.56-.93,2,2,0,0,0-1-.55,2.21,2.21,0,0,0-.46-.08l-.45,0h-3.65Zm6.33,7.15-2.84-5.86,2.11-.54,3.12,6.4Z"/><path class="cls-4" d="M442.07,111.52a5.52,5.52,0,0,1-2.82-.71,4.85,4.85,0,0,1-1.89-2,6.12,6.12,0,0,1-.68-2.93,6.71,6.71,0,0,1,.67-3.07,4.81,4.81,0,0,1,1.85-2,5.36,5.36,0,0,1,2.77-.71,5,5,0,0,1,2.81.76,4.57,4.57,0,0,1,1.74,2.18,7.64,7.64,0,0,1,.45,3.35h-2.09v-.76a4.63,4.63,0,0,0-.71-2.78,2.51,2.51,0,0,0-2.12-.9,2.85,2.85,0,0,0-2.36,1,4.53,4.53,0,0,0-.79,2.86,4.29,4.29,0,0,0,.79,2.75,2.78,2.78,0,0,0,2.28,1,3.13,3.13,0,0,0,1.7-.45,2.88,2.88,0,0,0,1.11-1.27l2.05.65a4.77,4.77,0,0,1-1.91,2.24A5.28,5.28,0,0,1,442.07,111.52Zm-3.85-5.11v-1.63h7.71v1.63Z"/><path class="cls-4" d="M452.06,111.52a4.09,4.09,0,0,1-2-.45,3,3,0,0,1-1.22-1.18,3.17,3.17,0,0,1-.42-1.61,3.39,3.39,0,0,1,.29-1.44,2.92,2.92,0,0,1,.86-1.06,4.7,4.7,0,0,1,1.4-.7,16.65,16.65,0,0,1,1.63-.37q.92-.17,1.92-.3l2-.28-.76.42a2.66,2.66,0,0,0-.53-1.89,2.49,2.49,0,0,0-1.91-.61,3.22,3.22,0,0,0-1.56.39,2.17,2.17,0,0,0-1,1.31l-1.95-.6a4.06,4.06,0,0,1,1.53-2.21,5,5,0,0,1,3-.82,6,6,0,0,1,2.53.49,3.38,3.38,0,0,1,1.89,2.69,12.59,12.59,0,0,1,.06,1.27v6.65H456v-2.47l.36.32a4.48,4.48,0,0,1-1.7,1.84A4.91,4.91,0,0,1,452.06,111.52Zm.37-1.71a3.39,3.39,0,0,0,1.53-.32,2.88,2.88,0,0,0,1-.8,2.58,2.58,0,0,0,.51-1,3.58,3.58,0,0,0,.2-1.08c0-.4,0-.72,0-1l.68.25-1.8.27-1.46.23a9.18,9.18,0,0,0-1.17.28,3.82,3.82,0,0,0-.76.36,1.73,1.73,0,0,0-.53.51,1.3,1.3,0,0,0-.2.73,1.46,1.46,0,0,0,.21.77,1.49,1.49,0,0,0,.64.57A2.54,2.54,0,0,0,452.43,109.81Z"/><path class="cls-4" d="M465,111.52a5.2,5.2,0,0,1-2.82-.74,4.8,4.8,0,0,1-1.77-2,6.89,6.89,0,0,1-.63-2.93,6.81,6.81,0,0,1,.64-3,4.87,4.87,0,0,1,1.8-2,5.71,5.71,0,0,1,5.84.15,4.08,4.08,0,0,1,1.65,2.41l-2.08.6a2.68,2.68,0,0,0-2.63-1.92,2.82,2.82,0,0,0-1.69.48,3,3,0,0,0-1,1.33,5.67,5.67,0,0,0-.33,1.92,4.57,4.57,0,0,0,.77,2.7,2.58,2.58,0,0,0,2.23,1,2.68,2.68,0,0,0,1.64-.47,2.84,2.84,0,0,0,.95-1.33l2.12.5a4.57,4.57,0,0,1-1.75,2.42A5,5,0,0,1,465,111.52Z"/><path class="cls-4" d="M470.57,102.1v-1.68H478v1.68Zm7.38,9.12a9.11,9.11,0,0,1-2,.17,4.63,4.63,0,0,1-1.75-.38,2.38,2.38,0,0,1-1.16-1.1,3.27,3.27,0,0,1-.37-1.37c0-.46,0-1,0-1.57V97.42h2.1v9.45c0,.43,0,.81,0,1.13a1.79,1.79,0,0,0,.2.81,1.42,1.42,0,0,0,1.15.7,7.32,7.32,0,0,0,1.84-.06Z"/><path class="cls-4" d="M487,111.51a4.16,4.16,0,0,1-2.65-.84,4.3,4.3,0,0,1-1.49-2.26l2.07-.49a2.13,2.13,0,0,0,2,1.62,2.28,2.28,0,0,0,1-.24,1.52,1.52,0,0,0,.76-.78,2.16,2.16,0,0,0,.2-.83q0-.47,0-1.08V96.82H491v10.93a5.53,5.53,0,0,1-.1.94,3.42,3.42,0,0,1-.37.91,3.54,3.54,0,0,1-1.5,1.45A4.51,4.51,0,0,1,487,111.51Z"/><path class="cls-4" d="M498.12,111.51a5.48,5.48,0,0,1-3.21-.87,3.68,3.68,0,0,1-1.52-2.45l2.14-.33a2.13,2.13,0,0,0,.93,1.32,3.1,3.1,0,0,0,1.8.49,2.56,2.56,0,0,0,1.54-.4,1.28,1.28,0,0,0,.55-1.1,1.09,1.09,0,0,0-.19-.67,1.8,1.8,0,0,0-.82-.48q-.61-.22-1.89-.57a10.92,10.92,0,0,1-2.2-.78,2.73,2.73,0,0,1-1.16-1,2.47,2.47,0,0,1-.35-1.34,2.93,2.93,0,0,1,.52-1.71,3.38,3.38,0,0,1,1.47-1.13,5.59,5.59,0,0,1,2.21-.4,5.85,5.85,0,0,1,2.21.39,3.94,3.94,0,0,1,1.57,1.1,3.18,3.18,0,0,1,.72,1.68l-2.14.39a1.73,1.73,0,0,0-.73-1.23A2.9,2.9,0,0,0,498,102a2.78,2.78,0,0,0-1.54.31,1.11,1.11,0,0,0-.59,1,.89.89,0,0,0,.23.61,2.12,2.12,0,0,0,.87.48c.44.15,1.08.34,1.92.55a9.94,9.94,0,0,1,2.16.77,2.83,2.83,0,0,1,1.15,1,2.77,2.77,0,0,1,.34,1.42,3,3,0,0,1-1.16,2.51A5.09,5.09,0,0,1,498.12,111.51Z"/><path class="cls-4" d="M590.15,111.52a6.94,6.94,0,0,1-2.79-.54,5.09,5.09,0,0,1-3.1-3.89l2.18-.33a3.42,3.42,0,0,0,1.38,2,4.18,4.18,0,0,0,2.45.74,4.34,4.34,0,0,0,1.6-.28,2.77,2.77,0,0,0,1.18-.79,1.84,1.84,0,0,0,.44-1.23,1.67,1.67,0,0,0-.13-.69A1.8,1.8,0,0,0,593,106a2.39,2.39,0,0,0-.57-.39,5,5,0,0,0-.74-.28L588,104.27a9.45,9.45,0,0,1-1.1-.42,4,4,0,0,1-1-.67,3.21,3.21,0,0,1-.76-1,3.5,3.5,0,0,1-.29-1.49,3.68,3.68,0,0,1,.69-2.26,4.25,4.25,0,0,1,1.85-1.4,7.07,7.07,0,0,1,2.62-.47,6.76,6.76,0,0,1,2.62.52,5,5,0,0,1,1.92,1.43,5.29,5.29,0,0,1,1.05,2.27l-2.24.38a3,3,0,0,0-.64-1.4,3.17,3.17,0,0,0-1.2-.9,3.89,3.89,0,0,0-1.54-.32,3.83,3.83,0,0,0-1.46.24,2.51,2.51,0,0,0-1.06.73,1.59,1.59,0,0,0-.4,1.08,1.37,1.37,0,0,0,.35,1,2.42,2.42,0,0,0,.87.58,6.9,6.9,0,0,0,1,.36l2.66.75c.34.09.71.22,1.14.37a5.66,5.66,0,0,1,1.23.66,3.41,3.41,0,0,1,1,1.11,3.57,3.57,0,0,1,.39,1.75,3.9,3.9,0,0,1-.44,1.91,4,4,0,0,1-1.2,1.38,5.57,5.57,0,0,1-1.77.84A7.63,7.63,0,0,1,590.15,111.52Z"/><path class="cls-4" d="M600.1,111.22l-3.3-10.81h2.07l2.26,7.41,2.28-7.41h1.8l2.28,7.41,2.26-7.41h2.06l-3.3,10.8h-1.68l-2.52-7.82-2.53,7.82Z"/><path class="cls-4" d="M613.81,98.65v-2h2.09v2Zm0,12.57v-10.8h2.09v10.8Z"/><path class="cls-4" d="M618.1,102.1v-1.68h6.61v1.68Zm1.79,9.12V100c0-.27,0-.57,0-.88a3.75,3.75,0,0,1,.18-.92,2.25,2.25,0,0,1,.48-.83,2.54,2.54,0,0,1,.9-.64,3.15,3.15,0,0,1,1-.22l.89,0h1.36v1.72h-1.26a1.5,1.5,0,0,0-1.1.36,1.39,1.39,0,0,0-.37,1v11.58Z"/><path class="cls-4" d="M625.11,102.1v-1.68h7.38v1.68Zm7.38,9.12a9.11,9.11,0,0,1-2,.17,4.63,4.63,0,0,1-1.75-.38,2.38,2.38,0,0,1-1.16-1.1,3.12,3.12,0,0,1-.37-1.37c0-.46,0-1,0-1.57V97.42h2.1v9.45c0,.43,0,.81,0,1.13a1.79,1.79,0,0,0,.2.81,1.4,1.4,0,0,0,1.15.7,7.32,7.32,0,0,0,1.84-.06Z"/><path class="cls-4" d="M725.49,111.22V96.82h2.09v14.4Z"/><path class="cls-4" d="M735.27,111.52a5.23,5.23,0,0,1-2.81-.73,4.93,4.93,0,0,1-1.84-2,7.11,7.11,0,0,1,0-5.94,5,5,0,0,1,1.85-2,5.35,5.35,0,0,1,2.78-.71,5.23,5.23,0,0,1,2.81.73,5,5,0,0,1,1.84,2,6.47,6.47,0,0,1,.65,3,6.37,6.37,0,0,1-.66,3,4.84,4.84,0,0,1-1.84,2A5.22,5.22,0,0,1,735.27,111.52Zm0-2a2.67,2.67,0,0,0,2.31-1,4.42,4.42,0,0,0,.77-2.69,4.34,4.34,0,0,0-.78-2.71,2.72,2.72,0,0,0-2.3-1,3,3,0,0,0-1.73.47,2.89,2.89,0,0,0-1,1.31,5.29,5.29,0,0,0-.33,1.94,4.37,4.37,0,0,0,.78,2.72A2.7,2.7,0,0,0,735.27,109.55Z"/><path class="cls-4" d="M742.76,111.22v-10.8h1.87v3.12h.25v7.68Zm7.59,0v-5.31a8.45,8.45,0,0,0-.11-1.3,4,4,0,0,0-.4-1.23,2.3,2.3,0,0,0-.83-.92,2.51,2.51,0,0,0-1.39-.35,3.11,3.11,0,0,0-1.06.18,2.3,2.3,0,0,0-.88.6,2.92,2.92,0,0,0-.59,1.08,5.52,5.52,0,0,0-.21,1.63l-1.3-.49a5.81,5.81,0,0,1,.55-2.6,4.13,4.13,0,0,1,1.58-1.75,4.65,4.65,0,0,1,2.49-.63,4.41,4.41,0,0,1,1.88.36,3.36,3.36,0,0,1,1.23.94,4.42,4.42,0,0,1,.73,1.28,6.36,6.36,0,0,1,.34,1.35,8.76,8.76,0,0,1,.09,1.16v6Z"/><path class="cls-4" d="M755.27,98.65v-2h2.09v2Zm0,12.57v-10.8h2.09v10.8Z"/><path class="cls-4" d="M765,111.52a5.15,5.15,0,0,1-2.82-.74,4.82,4.82,0,0,1-1.78-2,7.2,7.2,0,0,1,0-5.89,4.87,4.87,0,0,1,1.8-2,5.18,5.18,0,0,1,2.81-.73,5.08,5.08,0,0,1,3,.88,4.14,4.14,0,0,1,1.66,2.41l-2.08.6a2.83,2.83,0,0,0-1-1.42,2.72,2.72,0,0,0-1.61-.5,2.79,2.79,0,0,0-1.69.48,2.89,2.89,0,0,0-1,1.33,5.22,5.22,0,0,0-.33,1.92,4.5,4.5,0,0,0,.76,2.7,2.6,2.6,0,0,0,2.24,1,2.65,2.65,0,0,0,1.63-.47,2.86,2.86,0,0,0,1-1.33l2.12.5a4.62,4.62,0,0,1-1.75,2.42A5,5,0,0,1,765,111.52Z"/><path d="M25.29,98.74V96.5h2.44v2.24Zm0,12.6V100.4h2.44v10.94Z"/><path d="M36.94,111.64a7,7,0,0,1-3.75-1A6.14,6.14,0,0,1,30.8,108a9.8,9.8,0,0,1,0-7.94,6.17,6.17,0,0,1,2.39-2.66,7,7,0,0,1,3.75-1,7,7,0,0,1,3.75,1,6.13,6.13,0,0,1,2.4,2.66,9.8,9.8,0,0,1,0,7.94,6.11,6.11,0,0,1-2.4,2.67A7,7,0,0,1,36.94,111.64Zm0-2.3a4.23,4.23,0,0,0,2.45-.65,3.93,3.93,0,0,0,1.46-1.85,7.29,7.29,0,0,0,.5-2.8,7.19,7.19,0,0,0-.5-2.78,4,4,0,0,0-1.46-1.83,4.39,4.39,0,0,0-2.45-.68,4.17,4.17,0,0,0-2.44.65A3.88,3.88,0,0,0,33,101.25a7.28,7.28,0,0,0-.49,2.79,7.41,7.41,0,0,0,.48,2.79,4,4,0,0,0,1.46,1.83A4.39,4.39,0,0,0,36.94,109.34Z"/><path d="M51.35,111.64a7,7,0,0,1-2.88-.56,5.42,5.42,0,0,1-2.11-1.59,5.18,5.18,0,0,1-1-2.47l2.53-.38a3.32,3.32,0,0,0,1.33,2,3.89,3.89,0,0,0,2.32.71,4.44,4.44,0,0,0,1.47-.24,2.73,2.73,0,0,0,1.12-.71,1.61,1.61,0,0,0,.43-1.15,1.5,1.5,0,0,0-.1-.56,1.52,1.52,0,0,0-.3-.46,2.24,2.24,0,0,0-.5-.37,4.9,4.9,0,0,0-.72-.29l-3.77-1.11a8.4,8.4,0,0,1-1-.38,4.3,4.3,0,0,1-1.07-.66,3.42,3.42,0,0,1-.82-1.07,3.74,3.74,0,0,1-.32-1.62,3.81,3.81,0,0,1,.72-2.36,4.31,4.31,0,0,1,1.92-1.44,7.24,7.24,0,0,1,2.69-.46,7,7,0,0,1,2.67.51,5.11,5.11,0,0,1,2,1.45,5.49,5.49,0,0,1,1.11,2.3l-2.62.46a2.91,2.91,0,0,0-1.75-2.14,3.71,3.71,0,0,0-1.41-.3,3.48,3.48,0,0,0-1.35.22,2.29,2.29,0,0,0-1,.65,1.4,1.4,0,0,0-.38,1,1.21,1.21,0,0,0,.32.88,2.33,2.33,0,0,0,.81.53,5.84,5.84,0,0,0,1,.33l2.62.73c.35.1.76.23,1.2.39a5.33,5.33,0,0,1,1.29.68,3.52,3.52,0,0,1,1,1.14,3.69,3.69,0,0,1,.39,1.8,4,4,0,0,1-.47,2,4.15,4.15,0,0,1-1.27,1.43,6,6,0,0,1-1.82.85A8.1,8.1,0,0,1,51.35,111.64Z"/></g></g></svg>