<svg xmlns="http://www.w3.org/2000/svg" xmlns:xlink="http://www.w3.org/1999/xlink" width="730.706" height="507.714" viewBox="0 0 730.706 507.714">
  <defs>
    <clipPath id="clip-path">
      <rect id="Rectangle_3651" data-name="Rectangle 3651" width="448.07" height="262.068" fill="none"/>
    </clipPath>
  </defs>
  <g id="Group_4004" data-name="Group 4004" transform="translate(-1079 -204.786)">
    <g id="OBJECTS" transform="translate(1079 204.786)">
      <g id="Group_3783" data-name="Group 3783" transform="translate(0 0)" opacity="0.5">
        <g id="Group_3779" data-name="Group 3779" transform="translate(5.926 54.66)" opacity="0.5">
          <path id="Path_45910" data-name="Path 45910" d="M294.733,131.669c-24.215-4.139-47.152-15.559-66.96-32.883C198.2,72.914,136.307,28.9,77.273,50.83-4.163,81.071-4.528,168.557,16.68,216.074S188.316,402.746,383.315,380.613c174.5-19.82,208.513-246.619,115.439-287.659-80.717-35.6-108.256,55.1-204.032,38.715Z" transform="translate(-4.866 -44.896)" fill="#9ab8de" opacity="0.42"/>
        </g>
        <path id="Path_45911" data-name="Path 45911" d="M533.28,137.523C533.28,74.058,488.173,4.517,432.037.317c-.986-.073-1.984-.134-2.983-.195-80.473-4.395-86.609,110.593-159.413,123.559S141.224,71.172,54.1,113.893c-78.245,38.362-99.441,253.936,130.462,262.58C368.51,383.387,533.3,326.849,533.28,137.511Z" transform="translate(0.001 0.001)" fill="#a2d9ff"/>
        <circle id="Ellipse_537" data-name="Ellipse 537" cx="12.552" cy="12.552" r="12.552" transform="translate(117.488 38.073) rotate(-41.21)" fill="#9ab8de"/>
        <g id="Group_3781" data-name="Group 3781" transform="translate(542.716 105.25)" opacity="0.5">
          <path id="Path_45913" data-name="Path 45913" d="M460.925,94.023a7.573,7.573,0,1,1-7.573-7.573A7.573,7.573,0,0,1,460.925,94.023Z" transform="translate(-445.78 -86.45)" fill="#9ab8de"/>
        </g>
        <path id="Path_45914" data-name="Path 45914" d="M94.193,25.141c6.172,8.1-2.983,17.251-11.091,11.091h0c-6.172-8.1,2.983-17.251,11.091-11.091Z" transform="translate(17.632 5.029)" fill="#9ab8de"/>
      </g>
      <g id="Group_3858" data-name="Group 3858" transform="translate(39.63 33.542)">
        <g id="Group_3845" data-name="Group 3845">
          <g id="Group_3784" data-name="Group 3784" transform="translate(87.364 346.608)" opacity="0.5">
            <ellipse id="Ellipse_538" data-name="Ellipse 538" cx="152.084" cy="12.588" rx="152.084" ry="12.588" fill="#9ab8de" opacity="0.85"/>
          </g>
          <g id="Group_3844" data-name="Group 3844">
            <g id="Group_3808" data-name="Group 3808">
              <g id="Group_3790" data-name="Group 3790" transform="translate(0 38.167)">
                <rect id="Rectangle_3648" data-name="Rectangle 3648" width="482.135" height="270.323" rx="11.46"/>
                <path id="Path_45917" data-name="Path 45917" d="M514.684,242.8v32.482a13.951,13.951,0,0,1-13.952,13.952H46.5A13.951,13.951,0,0,1,32.55,275.282V242.8H514.684Z" transform="translate(-32.55 -18.911)" fill="#fff"/>
                <g id="Group_3785" data-name="Group 3785" transform="translate(208.013 240.568)" opacity="0.5">
                  <rect id="Rectangle_3649" data-name="Rectangle 3649" width="66.12" height="13.063" rx="5.29" fill="#9ab8de"/>
                </g>
                <path id="Path_45918" data-name="Path 45918" d="M494.61,78.271V279.759H46.54V78.271a5.383,5.383,0,0,1,5.381-5.381H489.229a5.393,5.393,0,0,1,5.393,5.381Z" transform="translate(-29.508 -55.858)" fill="#0592f5"/>
                <g id="Group_3786" data-name="Group 3786" transform="translate(443.347 127.017)" opacity="0.5">
                  <path id="Path_45919" data-name="Path 45919" d="M418.466,163.242v77.832h-19.1a2.652,2.652,0,0,1-2.654-2.654V165.884a2.652,2.652,0,0,1,2.654-2.654h19.1Z" transform="translate(-396.71 -163.23)" fill="#0051b6"/>
                </g>
                <rect id="Rectangle_3650" data-name="Rectangle 3650" width="448.143" height="18.177" transform="translate(16.923 205.7)" fill="#0051b6"/>
                <g id="Group_3789" data-name="Group 3789" transform="translate(17.032 17.044)">
                  <path id="Path_45920" data-name="Path 45920" d="M494.61,78.281V96.969H46.54V78.281A5.383,5.383,0,0,1,51.921,72.9H489.229a5.393,5.393,0,0,1,5.393,5.381Z" transform="translate(-46.54 -72.9)" fill="#fff"/>
                  <path id="Path_45921" data-name="Path 45921" d="M414.215,88.677H85.491A2.251,2.251,0,0,1,83.3,86.389v-5.43a2.244,2.244,0,0,1,2.191-2.289H414.215a2.251,2.251,0,0,1,2.191,2.289v5.43A2.244,2.244,0,0,1,414.215,88.677Z" transform="translate(-38.547 -71.645)" fill="#cedcec"/>
                  <path id="Path_45922" data-name="Path 45922" d="M63.33,78.53l-7,5.722,7,4.626Z" transform="translate(-44.411 -71.676)" fill="#cedcec"/>
                  <path id="Path_45923" data-name="Path 45923" d="M66.81,78.53l7,5.722-7,4.626Z" transform="translate(-42.132 -71.676)" fill="#cedcec"/>
                  <g id="Group_3788" data-name="Group 3788" transform="translate(392.311 7.025)">
                    <path id="Path_45924" data-name="Path 45924" d="M391.247,83.674a5,5,0,1,1-5-5A5,5,0,0,1,391.247,83.674Z" transform="translate(-366.071 -78.67)" fill="#0051b6"/>
                    <g id="Group_3787" data-name="Group 3787">
                      <path id="Path_45925" data-name="Path 45925" d="M378.787,83.674a5,5,0,1,1-5-5A5,5,0,0,1,378.787,83.674Z" transform="translate(-368.78 -78.67)" fill="#fd615b"/>
                      <path id="Path_45926" data-name="Path 45926" d="M403.707,83.674a5,5,0,1,1-5-5A5,5,0,0,1,403.707,83.674Z" transform="translate(-363.361 -78.67)"/>
                    </g>
                  </g>
                </g>
              </g>
              <g id="Group_3807" data-name="Group 3807" transform="translate(17.032)" clip-path="url(#clip-path)">
                <g id="Group_3806" data-name="Group 3806" transform="translate(129.683 3.713)">
                  <g id="Group_3797" data-name="Group 3797" transform="translate(12.19)">
                    <g id="Group_3791" data-name="Group 3791" transform="translate(0 102.972)">
                      <path id="Path_45927" data-name="Path 45927" d="M325.628,263.378c-19.491,0-32.7-5.211-40.261-15.839-18.128-25.457-36.706-83.59-38.764-90.128a19.77,19.77,0,0,1,37.717-11.87h0c4.919,15.632,19.991,59.01,32.116,77.393,1.96.548,7.268,1.5,18.371.414a144.573,144.573,0,0,0,16.046-2.52,19.767,19.767,0,1,1,8.948,38.508,179.839,179.839,0,0,1-26.37,3.786q-4.054.256-7.78.256Z" transform="translate(-145.108 -111.586)" fill="#fff"/>
                      <path id="Path_45928" data-name="Path 45928" d="M310.807,333.25c-9.313,8.693-23.2,15.912-39.372,20.526a144.773,144.773,0,0,1-40.115,5.479c-18.432-.061-37.388-3.665-54.493-11.992-5.162-14.11-10.835-64.476-12.369-79.536-.3-2.995-.548-6-.743-9a396.349,396.349,0,0,1-.049-44.206c.037-.828.073-1.656.122-2.484.609-12.515,1.534-25.506,2.4-39.287,1.717-27.3,10.835-44.1,26.65-46.616a64.447,64.447,0,0,0,17.47-5.272c.523-.243,1.023-.487,1.5-.743a49.785,49.785,0,0,0,7.986-4.943h35.294a26.877,26.877,0,0,0,10.981,9.18c.45.219.913.426,1.376.633,12.528,5.405,27.137,4.334,30.144,19.443,1.9,9.484-5.369,29-4.614,68.567.061,2.91.158,5.9.3,9.033.134,2.922.329,5.941.56,9.07.207,2.9.475,5.9.779,8.985.268,2.7.572,5.466.913,8.315q.53,4.365,1.181,8.96c2.35,16.448,8.656,54.761,14.062,75.908Z" transform="translate(-163.073 -115.18)" fill="#fff"/>
                      <path id="Path_45929" data-name="Path 45929" d="M202,119.44s-9.752,1.875-13.587,5.576l4.833,22.705,11.578,6.465-9.971,2.824,3.482,47.955,16.216,13.027-4.59-81.4A47.355,47.355,0,0,0,202,119.44Z" transform="translate(-157.563 -114.254)" fill="#cedcec"/>
                      <path id="Path_45930" data-name="Path 45930" d="M251.024,122.74s8.486.925,12.467,4.468l-3.969,17.616-7.9,8.315,6.635,2.958-.95,47.785-10.835,13.891-3.7-73.96s4.151-13.124,8.266-21.062Z" transform="translate(-145.742 -113.536)" fill="#cedcec"/>
                      <path id="Path_45931" data-name="Path 45931" d="M299.382,330.86q-1.224-4.346-2.423-8.766c-.17-.609-.341-1.23-.5-1.85-.4-1.485-.791-2.971-1.193-4.456-.158-.609-.329-1.23-.487-1.851-4.943-18.956-9.423-38.715-12.808-58.267L252.06,323.226s.11,2.812.317,7.633h46.981Z" transform="translate(-143.722 -84.63)" fill="#fff"/>
                      <path id="Path_45932" data-name="Path 45932" d="M259.065,344.831c-4.553-74.264-7.487-151.256-7.536-152.5a.95.95,0,1,0-1.9.073c.049,1.242,2.995,78.148,7.536,152.425h1.911Z" transform="translate(-144.251 -98.602)" fill="#cedcec"/>
                      <path id="Path_45933" data-name="Path 45933" d="M261.1,416.489a.941.941,0,0,1-.95-.937.951.951,0,0,1,.937-.962c.4,0,40.943-.718,69.468-14.573a.956.956,0,0,1,.84,1.717c-28.9,14.049-69.87,14.755-70.271,14.768h-.012Z" transform="translate(-141.963 -53.263)" fill="#cedcec"/>
                      <path id="Path_45934" data-name="Path 45934" d="M262.368,351.338a144.774,144.774,0,0,1-40.115,5.479,1.715,1.715,0,0,1-.122-.219s-7.524-75.092-8.717-102.521c-1.193-27.307-8.583-116.51-8.644-117.289h0c.548-.6,1.108-1.169,1.644-1.717,2.7,4.529,5.917,9.082,9.289,12.077l14.938-20.295a1.12,1.12,0,0,1,.925-.463,1.1,1.1,0,0,1,.913.487l13.94,19.8c.743-1.339,1.911-3.458,3.324-6.063.852,1.449,1.291,2.374,1.291,2.374h0l11.334,208.342Z" transform="translate(-154.005 -112.742)" fill="#1eb8ff"/>
                      <path id="Path_45935" data-name="Path 45935" d="M272.944,218.463c-1.1-20.806-1.12-45.752-1.12-46.08a1.132,1.132,0,0,0-2.264,0c0,.317.012,25.213,1.108,46.08Z" transform="translate(-139.917 -102.988)" fill="#cedcec"/>
                      <path id="Path_45936" data-name="Path 45936" d="M236.33,286.617a2.664,2.664,0,1,1-2.423-2.885A2.655,2.655,0,0,1,236.33,286.617Z" transform="translate(-148.299 -78.531)" fill="#005ee1"/>
                      <path id="Path_45937" data-name="Path 45937" d="M237.348,298.766a2.67,2.67,0,1,1-1.814-2.143A2.671,2.671,0,0,1,237.348,298.766Z" transform="translate(-148.076 -75.753)" fill="#005ee1"/>
                    </g>
                    <g id="Group_3796" data-name="Group 3796" transform="translate(42.544)">
                      <g id="Group_3793" data-name="Group 3793" transform="translate(5.391)">
                        <path id="Path_45938" data-name="Path 45938" d="M259.453,45s4.578,5.491,4.03,11.468c0,0,2.715,6.562,1.461,11.943A73.56,73.56,0,0,1,260.4,80.646s-2.581-26.126-8.376-27.892-12.747-6.7-12.747-6.7,3.652-6.769,20.185-1.059Z" transform="translate(-194.437 -27.966)"/>
                        <path id="Path_45939" data-name="Path 45939" d="M260.653,47.37s8.729,7.073,0,14.147S260.653,47.37,260.653,47.37Z" transform="translate(-190.633 -26.953)"/>
                        <path id="Path_45940" data-name="Path 45940" d="M203.534,60.658s-2.52,6.172.11,9.508-.877,8.218,2.727,11.493,9.91,1.911,9.91,1.911,4.115-32.128,7.244-34.929c0,0-10.7-.755-19.978,12.016Z" transform="translate(-202.446 -26.678)"/>
                        <path id="Path_45941" data-name="Path 45941" d="M207.065,64.348s-4.249-12.26-2.118-16.983,8.729-4.955,8.729-4.955,3.068-12.26,17.69-11.8,41.04,8.5,49.769,1.887c0,0,2.825,22.876-9.2,24.057s-52.022-8.023-64.866,7.78Z" transform="translate(-202.032 -30.6)"/>
                        <path id="Path_45942" data-name="Path 45942" d="M214.794,46.314h-.1a.412.412,0,0,1-.3-.511c.024-.11,2.7-10.641,12.759-11.529,5.673-.5,11.992.5,18.1,1.461,7.073,1.108,14.39,2.264,20.782,1.132a.42.42,0,0,1,.146.828c-6.538,1.157-13.915,0-21.062-1.132-6.063-.95-12.333-1.936-17.9-1.461-9.447.828-11.98,10.787-12,10.884a.417.417,0,0,1-.414.317Z" transform="translate(-199.851 -29.829)" fill="#434c56"/>
                        <g id="Group_3792" data-name="Group 3792" transform="translate(8.551 69.541)">
                          <path id="Path_45943" data-name="Path 45943" d="M246.992,113.481l-.718,9.289c-1.157.791-2.459,1.242-3.47,2.045-18.323,14.743-33.334-4.906-33.334-4.906l2.508-32.189,30.838,22.693,4.176,3.068Z" transform="translate(-209.47 -87.72)" fill="#fcb88c"/>
                          <path id="Path_45944" data-name="Path 45944" d="M245.022,110.47l-.743,9.557a28.666,28.666,0,0,1-3.47,2.045c-13.307-6.5-22.17-21.683-22.17-21.683l22.182,7.28,4.2,2.812Z" transform="translate(-207.476 -84.965)"/>
                        </g>
                        <path id="Path_45945" data-name="Path 45945" d="M252.52,76.26s5.759-5.819,8.254.645-.779,18.895-8.644,16.2l.39-16.85Z" transform="translate(-191.642 -21.194)" fill="#fd896a"/>
                        <path id="Path_45946" data-name="Path 45946" d="M265.37,104.963s-1.461,19.2-21.427,17.6c-19.844-1.583-32.153-18.213-32.8-18.992,0-.012-.024-.024-.024-.024l.1-4.054.5-21.025.268-11.237s-.962-20.356,18.469-22.535c14.208-1.595,27.149,1.753,33.2,9.557.195.256.39.511.56.767a17.2,17.2,0,0,1,3.031,9.679l-.95,20.149-.231,4.943-.706,15.157Z" transform="translate(-200.56 -27.618)" fill="#fcb88c"/>
                        <path id="Path_45947" data-name="Path 45947" d="M242.726,83.564a.7.7,0,0,1-.438-1.242l3.981-3.214-3.275-3.458a.692.692,0,0,1-.195-.45l-.317-7.95a.7.7,0,0,1,1.4-.061l.3,7.682,3.616,3.823a.732.732,0,0,1,.195.536.716.716,0,0,1-.256.5l-4.578,3.689a.694.694,0,0,1-.438.158Z" transform="translate(-193.84 -22.789)"/>
                        <path id="Path_45948" data-name="Path 45948" d="M242.884,63.436a5.944,5.944,0,0,0-3.409-2.5c-2.252-.645-6.367-1.388-9.922.329-5.186,2.5-2.5,6.44,3.336,6.319s8.62-.207,10.117-1.753c.657-.67.377-1.583-.134-2.4Z" transform="translate(-197.152 -24.16)"/>
                        <path id="Path_45949" data-name="Path 45949" d="M245.647,63.626c.755-1.5,2.264-1.875,3.7-2.057,2.313-.292,6.5-.414,9.752,1.814,4.748,3.251,1.5,6.745-4.249,5.746s-7.719-.755-8.96-2.5a3.261,3.261,0,0,1-.256-2.995Z" transform="translate(-193.109 -23.9)"/>
                        <path id="Path_45950" data-name="Path 45950" d="M237.2,78.54c-.11,1.4-3.08,2.3-6.623,2.033s-6.343-1.631-6.233-3.031,3.08-2.3,6.623-2.033S237.306,77.14,237.2,78.54Z" transform="translate(-197.686 -20.844)" fill="#fd896a"/>
                        <path id="Path_45951" data-name="Path 45951" d="M257.652,82.6c-.5,0-1.023,0-1.558-.049-3.543-.28-6.343-1.631-6.233-3.031s3.08-2.313,6.623-2.033c.475.037.95.1,1.388.17L257.64,82.6Z" transform="translate(-192.137 -20.414)" fill="#fd896a"/>
                        <path id="Path_45952" data-name="Path 45952" d="M219.5,71.71s4.979,12.6,11.432,10.884,14.013-1.364,19.723,1.534c0,0,9.8-5.454,15.486-1.254,3.811,2.812.475,30-13.38,33.382s-31.934-2.642-35.976-15.729a75.532,75.532,0,0,1-3.4-24.093Z" transform="translate(-200.075 -21.66)"/>
                        <path id="Path_45953" data-name="Path 45953" d="M244.359,94.121a.668.668,0,0,0-.73-.487,11.275,11.275,0,0,1-5.418-.536.656.656,0,0,0-.487,1.217,12.474,12.474,0,0,0,6.087.621.669.669,0,0,0,.548-.828h0Z" transform="translate(-194.865 -17.019)" fill="#434c56"/>
                        <path id="Path_45954" data-name="Path 45954" d="M232.79,84.74s12.089,1.485,19.625,1.217c0,0-1.364,7.828-9.813,7.609C234.665,93.36,232.79,84.74,232.79,84.74Z" transform="translate(-195.848 -18.827)" fill="#fff"/>
                        <path id="Path_45955" data-name="Path 45955" d="M264.106,55.035c-3.044-1.351-5.393-.5-10.434,1.266-7.293,2.544-14.962-.852-21.658-4.955s-11.261.523-9.143,3.969,1.656,6.051-1.3,10,4.5,6.465.049,9.387c-1.875,1.23-1.936,3.287-1.364,5.247a2.883,2.883,0,0,1-3.531,3.555h0c-2.228-.755-5.113-5.028-5.113-5.028l.268-11.237s-.962-20.356,18.469-22.535c14.208-1.595,27.149,1.753,33.2,9.557.195.256.39.511.56.767Z" transform="translate(-200.453 -27.618)"/>
                        <path id="Path_45956" data-name="Path 45956" d="M253.985,52.425a93.234,93.234,0,0,1-18.457-2.216.425.425,0,0,1,.195-.828c.207.049,20.575,4.675,29.438.268,5.856-2.91,6.246-10.762,6.258-10.847a.42.42,0,1,1,.84.037c-.012.341-.426,8.437-6.72,11.566-3.019,1.5-7.232,2.009-11.541,2.009Z" transform="translate(-195.323 -28.903)" fill="#434c56"/>
                        <path id="Path_45957" data-name="Path 45957" d="M234.849,73.2c-.146,1.924-1.144,3.409-2.216,3.324s-1.826-1.7-1.68-3.628,1.144-3.409,2.216-3.324S235,71.275,234.849,73.2Z" transform="translate(-196.251 -22.126)"/>
                        <path id="Path_45958" data-name="Path 45958" d="M250.709,74.2c-.146,1.924-1.144,3.409-2.216,3.324s-1.826-1.7-1.68-3.628,1.144-3.409,2.216-3.324S250.855,72.275,250.709,74.2Z" transform="translate(-192.802 -21.909)"/>
                        <path id="Path_45959" data-name="Path 45959" d="M217.994,86.99c-.11.207-3.092,5.868-6.854,7.3V94.27l.085-4.054a13.862,13.862,0,0,0,6.781-3.226Z" transform="translate(-200.556 -18.337)"/>
                        <path id="Path_45960" data-name="Path 45960" d="M217.375,76.887s-6.879-10.908-13.124-3.238c-5.15,6.319,2.252,24.4,11.894,19.15l1.242-15.9Z" transform="translate(-202.42 -21.833)" fill="#fcb88c"/>
                        <path id="Path_45961" data-name="Path 45961" d="M214.48,88.68a.791.791,0,0,1-.73-.767,13.2,13.2,0,0,0-6.842-11.225.79.79,0,0,1-.353-1.059.806.806,0,0,1,1.059-.365,14.8,14.8,0,0,1,7.719,12.6.79.79,0,0,1-.767.816h-.085Z" transform="translate(-201.571 -20.904)"/>
                        <path id="Path_45962" data-name="Path 45962" d="M207.431,82.408a.784.784,0,0,1-.6-.341.792.792,0,0,1,.195-1.1c.341-.231,3.336-2.24,5.661-1.449a.8.8,0,0,1-.511,1.51c-1.339-.45-3.518.755-4.249,1.254a.793.793,0,0,1-.511.134Z" transform="translate(-201.522 -20.001)"/>
                      </g>
                      <path id="Path_45963" data-name="Path 45963" d="M212.216,109.29a20.133,20.133,0,0,0-13.246,14.768c5.479,9.362,6.416,19.126,17.982,26.82,8.559-9.058,17.726-18.213,15.876-25.627,0,0-13.015-4.249-20.611-15.961Z" transform="translate(-197.811 -13.488)" fill="#1eb8ff"/>
                      <path id="Path_45964" data-name="Path 45964" d="M243.269,112.67s8.583,2.009,12.223,13.989a77.987,77.987,0,0,1-13.782,23.874l-14.561-18.87.024-7.146s8.486-.122,16.083-11.846Z" transform="translate(-191.683 -12.753)" fill="#1eb8ff"/>
                      <g id="Group_3795" data-name="Group 3795" transform="translate(0 109.424)">
                        <path id="Path_45965" data-name="Path 45965" d="M252.46,269.967l-5.759,14.78h0l-2.581,6.647-7.3,18.761-3.872-7.11-1.376-2.508-3.1-5.7-1.364-2.508-3.1-5.7-1.376-2.52-3.1-5.686v-.012l-1.376-2.508-2.91-5.345.037-.6.353-4.3.779-9.752.353-4.31.779-9.752.341-4.31.791-9.752.341-4.3.779-9.764.353-4.3.779-9.752.341-4.31.791-9.752.341-4.31.779-9.752.353-4.31.779-9.752.341-4.3.816-10.081,7.426-.45.256,1.668.524,3.4,1.181,7.694.523,3.4,1.181,7.706.523,3.4,1.193,7.706.523,3.4,1.181,7.706.523,3.4,1.181,7.694.523,3.4,1.181,7.706.523,3.4,1.181,7.706.523,3.4,1.181,7.706.524,3.4,1.193,7.694.523,3.4,1.181,7.706.523,3.4,1.181,7.706.523,3.4Z" transform="translate(-194.275 -115.654)"/>
                        <path id="Path_45966" data-name="Path 45966" d="M218.63,139.661l9.922,14.743,9.508-14.743-9.508-12.321Z" transform="translate(-193.536 -118.987)"/>
                        <g id="Group_3794" data-name="Group 3794">
                          <path id="Path_45967" data-name="Path 45967" d="M262.351,125.472c-3.348,6.757-7.159,13.879-9.849,18.822-2.07,3.8-3.482,6.306-3.506,6.367a1.124,1.124,0,0,1-.937.572,1.1,1.1,0,0,1-.986-.487L233,130.768l-14.731,20a1.143,1.143,0,0,1-.767.45h-.146a1.129,1.129,0,0,1-.706-.243c-3.823-3.044-7.426-7.974-10.421-12.9h0a128.669,128.669,0,0,1-8.12-16.022,1.138,1.138,0,1,1,2.106-.864,130.52,130.52,0,0,0,7.658,15.169c2.7,4.529,5.917,9.082,9.289,12.077L232.1,128.138a1.12,1.12,0,0,1,.925-.463,1.1,1.1,0,0,1,.913.487l13.94,19.8c.743-1.339,1.911-3.458,3.324-6.063,2.605-4.833,6.051-11.3,9.107-17.458a1.135,1.135,0,1,1,2.033,1.01Z" transform="translate(-198.018 -120.479)" fill="#0592f5"/>
                          <path id="Path_45968" data-name="Path 45968" d="M226.962,129.581a1.13,1.13,0,0,1-1.132-1.132v-5.077a1.132,1.132,0,1,1,2.264,0v5.077A1.13,1.13,0,0,1,226.962,129.581Z" transform="translate(-191.97 -120.096)" fill="#0592f5"/>
                        </g>
                      </g>
                    </g>
                  </g>
                  <g id="Group_3798" data-name="Group 3798" transform="translate(8.382 195.823)">
                    <path id="Path_45969" data-name="Path 45969" d="M231.535,344.422,219.178,193.3,164.21,250.739s3.2,50.914,3.689,93.683h63.624Z" transform="translate(-159.017 -191.044)" fill="#fff"/>
                    <path id="Path_45970" data-name="Path 45970" d="M222.674,421.768c-25.822,0-60.057-4.249-61.9-4.48a.951.951,0,0,1,.231-1.887c.584.073,58.158,7.22,80.559,3.238a.953.953,0,1,1,.341,1.875,116.833,116.833,0,0,1-19.236,1.254Z" transform="translate(-159.945 -142.749)" fill="#cedcec"/>
                    <path id="Path_45971" data-name="Path 45971" d="M219.149,344.825c-4.992-61.627-12.929-151.268-13.039-152.51a.953.953,0,1,0-1.9.17c.11,1.242,8.035,90.737,13.027,152.34h1.911Z" transform="translate(-150.32 -191.447)" fill="#cedcec"/>
                  </g>
                  <g id="Group_3801" data-name="Group 3801" transform="translate(0 119.074)">
                    <path id="Path_45972" data-name="Path 45972" d="M265.44,187.208s3.2-10.9,11.444-13.66,12.759-2.642,15.827-.67a8.432,8.432,0,0,1,3.421,8.632c-.73,2.411-30.692,5.7-30.692,5.7Z" transform="translate(-128.623 -119.05)" fill="#fcb88c"/>
                    <path id="Path_45973" data-name="Path 45973" d="M303.561,206.425a19.763,19.763,0,0,0-26.187-9.776l-.353.158-2.678,1.217-2.812,1.254c-1.887.828-3.774,1.656-5.685,2.471q-5.716,2.447-11.468,4.748c-7.67,3.068-15.389,5.953-23.083,8.51q-5.771,1.936-11.481,3.591c-3.811,1.1-7.585,2.082-11.261,2.9-.925.219-1.826.39-2.739.584-.9.17-1.8.365-2.678.5-1.777.329-3.494.56-5.138.755-1.193.146-2.325.231-3.384.28.073-2.557.3-5.442.633-8.376.414-3.75,1-7.646,1.656-11.578.816-4.833,1.777-9.727,2.812-14.658-3.421-19.82-3.932-40.054-7.037-59.935a21.341,21.341,0,0,0-25.907,15.279l-.877,3.36-.828,3.251-1.583,6.477q-1.552,6.483-2.958,13c-1.875,8.717-3.6,17.507-4.992,26.589-.694,4.541-1.3,9.167-1.765,13.952-.11,1.205-.231,2.386-.317,3.64s-.195,2.447-.231,3.738-.134,2.52-.134,3.884l-.024,2v1.035l.024,1.059.061,2.118.158,2.289.085,1.144c.037.39.1.84.146,1.254l.341,2.532c.17.937.377,1.936.6,2.9l.061.243.11.487.085.365.122.438c.17.584.353,1.169.536,1.741s.39,1.157.584,1.729l.073.219c.024.073.073.183.11.268l.243.56c.158.365.329.743.5,1.108s.353.73.523,1.1l.28.536.317.548c.426.718.864,1.437,1.327,2.131a21.878,21.878,0,0,0,1.5,2c.523.633,1.071,1.3,1.631,1.875s1.144,1.132,1.741,1.668c.292.268.6.548.9.779l.9.694c.6.463,1.217.9,1.838,1.339.6.377,1.193.743,1.8,1.084a34.076,34.076,0,0,0,3.531,1.765c.609.28,1.12.463,1.68.67.158.061.329.122.487.17.39.146.779.28,1.169.414,1.047.329,2.07.609,3.092.864.962.207,1.936.414,2.885.584.9.134,1.814.268,2.7.39a62.668,62.668,0,0,0,9.5.317c2.9-.122,5.661-.353,8.266-.706s5.15-.755,7.585-1.23c2.459-.463,4.845-.986,7.183-1.546,4.687-1.12,9.2-2.374,13.635-3.725s8.766-2.788,13.051-4.3c8.559-3.007,16.886-6.27,25.1-9.7q6.172-2.575,12.26-5.3,3.05-1.351,6.087-2.764l3.056-1.424,3.165-1.51a19.786,19.786,0,0,0,9.5-26.053Z" transform="translate(-153.06 -128.406)" fill="#fff"/>
                    <path id="Path_45974" data-name="Path 45974" d="M175.088,242.4c-.158-.061-.329-.11-.487-.17-.56-.207-1.071-.39-1.68-.67a32.9,32.9,0,0,1-3.531-1.765c-.609-.353-1.205-.718-1.8-1.083-.621-.426-1.242-.877-1.838-1.339l-.9-.694c-.292-.231-.6-.523-.9-.779-.6-.548-1.181-1.1-1.741-1.668s-1.108-1.23-1.631-1.875a21.894,21.894,0,0,1-1.5-2c-.463-.694-.9-1.412-1.327-2.131l-.317-.548-.28-.536c-.183-.365-.353-.731-.523-1.1s-.341-.743-.5-1.108l-.243-.56c-.037-.085-.085-.195-.11-.268l-.073-.219c-.207-.572-.4-1.157-.584-1.729s-.365-1.157-.536-1.741l-.122-.438-.085-.365-.11-.487c3.64-.45,8.826.049,14.427,4.176,6.7,4.943,7.049,13.465,6.392,19.1Z" transform="translate(-152.797 -108.707)" fill="#cedcec"/>
                    <path id="Path_45975" data-name="Path 45975" d="M248.307,215a.994.994,0,0,1-.231-1.96,67.18,67.18,0,0,0,19.248-8.924,1,1,0,0,1,1.132,1.644,68.238,68.238,0,0,1-19.893,9.216.828.828,0,0,1-.243.024Z" transform="translate(-132.564 -111.982)" fill="#cedcec"/>
                    <circle id="Ellipse_539" data-name="Ellipse 539" cx="2.204" cy="2.204" r="2.204" transform="translate(118.774 75.389)" fill="#cedcec"/>
                    <g id="Group_3799" data-name="Group 3799" transform="translate(23.479 91.059)">
                      <path id="Path_45976" data-name="Path 45976" d="M173.532,219.347a1.187,1.187,0,0,1-.864-2c.353-.377,8.741-9.35,17.446-11.663a1.192,1.192,0,1,1,.621,2.3c-8.035,2.131-16.229,10.9-16.314,10.981a1.162,1.162,0,0,1-.877.377Z" transform="translate(-172.346 -202.669)" fill="#cedcec"/>
                      <path id="Path_45977" data-name="Path 45977" d="M188.262,208.788a1.21,1.21,0,0,1-.609-.17c-2.788-1.68-8.193-3.056-8.242-3.068a1.193,1.193,0,1,1,.584-2.313c.231.061,5.8,1.461,8.9,3.336a1.187,1.187,0,0,1-.621,2.2Z" transform="translate(-171.005 -203.201)" fill="#cedcec"/>
                    </g>
                    <path id="Path_45978" data-name="Path 45978" d="M187.4,216.089a1.2,1.2,0,0,1-1.193-1.193c0-18.4,6.185-45.2,6.246-45.472a1.187,1.187,0,0,1,2.313.536c-.061.268-6.185,26.82-6.185,44.936a1.2,1.2,0,0,1-1.193,1.193Z" transform="translate(-145.852 -119.686)" fill="#cedcec"/>
                    <path id="Path_45979" data-name="Path 45979" d="M190.6,244.535c-1.29,0-2.581-.049-3.871-.158-16.411-1.364-21.89-6.209-22.109-6.416a1.189,1.189,0,0,1,1.607-1.753c.085.073,5.308,4.529,20.7,5.807,15.705,1.3,33.784-6.623,33.967-6.7a1.191,1.191,0,0,1,.962,2.179c-.706.317-16.082,7.049-31.264,7.049Z" transform="translate(-150.631 -105.18)" fill="#cedcec"/>
                    <path id="Path_45980" data-name="Path 45980" d="M303.235,207.113a2.939,2.939,0,0,1-2.191-1.4l-25.749-42.988a2.9,2.9,0,0,1,4.979-2.983l25.749,42.988a2.908,2.908,0,0,1-2.788,4.383Z" transform="translate(-126.57 -121.899)" fill="#fd615b"/>
                    <g id="Group_3800" data-name="Group 3800" transform="translate(125.896 53.921)">
                      <path id="Path_45981" data-name="Path 45981" d="M295.5,211.72c-7.913.877-12.455.67-23.229,3.287s-21.707-17.568-12.114-27.332c0,0,3.007-5.028,6.233-7.573s19.93-7.585,24.824-7.4c4.152.146,10.361,0,13,1.875,6.647,4.712-4.334,8.388-4.334,8.388s4.651.085,5.32,3.871-1.972,4.395-1.972,4.395a9.074,9.074,0,0,1,3.129,3.652c1.351,2.642-1.765,5.162-1.765,5.162s3.579,1.7,2.739,4.712c-1.376,4.906-11.834,6.952-11.834,6.952Z" transform="translate(-256.47 -172.696)" fill="#fcb88c"/>
                      <path id="Path_45982" data-name="Path 45982" d="M285.929,183.312a.5.5,0,0,1-.024-1,28.175,28.175,0,0,0,7.512-1.558.5.5,0,0,1,.353.937,28.117,28.117,0,0,1-7.816,1.619h-.024Z" transform="translate(-250.173 -170.95)" fill="#fd896a"/>
                      <path id="Path_45983" data-name="Path 45983" d="M289.069,190.245a.5.5,0,0,1-.5-.463.5.5,0,0,1,.463-.536,25.039,25.039,0,0,0,6.2-1.57.5.5,0,0,1,.353.937,25.594,25.594,0,0,1-6.477,1.631Z" transform="translate(-249.49 -169.446)" fill="#fd896a"/>
                      <path id="Path_45984" data-name="Path 45984" d="M290.221,197.578h-.012a.5.5,0,0,1,0-1h0a14.247,14.247,0,0,0,6.075-1.619.5.5,0,1,1,.463.877,14.963,14.963,0,0,1-6.538,1.741Z" transform="translate(-249.242 -167.868)" fill="#fd896a"/>
                    </g>
                  </g>
                  <g id="Group_3802" data-name="Group 3802" transform="translate(141.068 169.08)">
                    <path id="Path_45985" data-name="Path 45985" d="M342.756,268.373,387.388,172.4c.755-1.619.049-2.934-1.583-2.922l-67.629.341a5.318,5.318,0,0,0-4.31,2.946l-44.632,95.972c-.755,1.619-.049,2.934,1.583,2.922l67.629-.341A5.318,5.318,0,0,0,342.756,268.373Z" transform="translate(-268.932 -169.48)" fill="#434c56"/>
                    <path id="Path_45986" data-name="Path 45986" d="M349.446,268.373,394.078,172.4c.755-1.619.049-2.934-1.583-2.922l-67.629.341a5.318,5.318,0,0,0-4.31,2.946l-44.632,95.972c-.755,1.619-.049,2.934,1.583,2.922l67.629-.341A5.318,5.318,0,0,0,349.446,268.373Z" transform="translate(-267.477 -169.48)"/>
                    <path id="Path_45987" data-name="Path 45987" d="M365.237,200.672l1.741-3.932s3.336,7.524-.523,14.086-7.426,15.255-9.289,19.345-4.03,13.307-7.244,14.914-6.44.548-11.408-2.52-3.287-6.2.1-6.635a45.477,45.477,0,0,1,8.778.049s-1.595-1.169-8.1-4.225c-6.842-3.214-3.9-7.061-.049-7.256,5.332-.268,13.915,1.181,13.915,1.181s-7.353-3.165-12.126-5.186-.864-7.171,7.256-5.15,8.34.816,8.34.816-1.838-1.607-7.731-3.8-8.084-6.489-4.091-7.317c3.957-.816,16.131,3.311,16.131,3.311l1.826-3.275a27.6,27.6,0,0,0,2.484-4.419Z" transform="translate(-254.524 -163.552)" fill="#fcb88c"/>
                    <path id="Path_45988" data-name="Path 45988" d="M337.589,212.907c-2.289,4.967-8.181,9-13.148,9s-7.146-4.03-4.858-9,8.181-9,13.148-9S339.877,207.94,337.589,212.907Z" transform="translate(-258.115 -161.993)" fill="#434c56"/>
                  </g>
                  <g id="Group_3805" data-name="Group 3805" transform="translate(41.929 94.097)">
                    <g id="Group_3803" data-name="Group 3803" transform="translate(0 85.684)">
                      <path id="Path_45989" data-name="Path 45989" d="M213.31,191.175a12.9,12.9,0,1,1-12.9-12.9A12.912,12.912,0,0,1,213.31,191.175Z" transform="translate(-187.5 -178.27)"/>
                      <path id="Path_45990" data-name="Path 45990" d="M206.365,190.122a7.012,7.012,0,1,1-7.012-7.012A7.014,7.014,0,0,1,206.365,190.122Z" transform="translate(-186.448 -177.218)" fill="#434c56"/>
                    </g>
                    <path id="Path_45991" data-name="Path 45991" d="M256.113,164.074A12.631,12.631,0,0,0,243.5,176.687v17.86a1.415,1.415,0,0,0,.1.511c.913-.365,1.826-.718,2.727-1.071a.093.093,0,0,0,.061-.024c.049-.024.11-.049.158-.073V176.675a9.557,9.557,0,1,1,19.114,0v8.887c1-1.035,1.984-2.058,3.056-3.019v-5.88A12.631,12.631,0,0,0,256.1,164.05Z" transform="translate(-175.323 -95.678)"/>
                    <path id="Path_45992" data-name="Path 45992" d="M245.376,186.21a3.507,3.507,0,0,0-3.506,3.506,3.469,3.469,0,0,0,.256,1.278c1.5-.657,3.031-1.23,4.553-1.826a.173.173,0,0,0,.073-.024c.341-.158.67-.329,1-.487a.6.6,0,0,1,.243-.061c.183-.11.377-.219.56-.329a3.506,3.506,0,0,0-3.19-2.058Z" transform="translate(-175.677 -90.859)" fill="#434c56"/>
                    <g id="Group_3804" data-name="Group 3804" transform="translate(5.312)">
                      <path id="Path_45993" data-name="Path 45993" d="M213.932,107.89c-5.929,1.826-10.762,4.821-13.721,8.717-6.379,8.388-9.131,24.191-8.157,46.981a269.369,269.369,0,0,0,3.324,31.556,1.522,1.522,0,0,0,1.485,1.254,1,1,0,0,0,.268-.024,1.515,1.515,0,0,0,1.23-1.753c-.1-.572-10.032-57.4,4.261-76.164,2.447-3.214,6.4-5.746,11.3-7.39.012-1.059.037-2.106,0-3.165Z" transform="translate(-191.863 -107.89)"/>
                      <path id="Path_45994" data-name="Path 45994" d="M260.759,156.137c-.219-15.742-2.837-27.6-7.8-35.245a31.2,31.2,0,0,0-12.82-10.762c.073,1.169-.219,1.96-.195,3.129a29.485,29.485,0,0,1,10.47,9.289c11.14,17.166,6.258,54.091,6.209,54.469a1.512,1.512,0,0,0,2.995.414,160.577,160.577,0,0,0,1.144-21.281Z" transform="translate(-181.409 -107.403)"/>
                    </g>
                  </g>
                </g>
              </g>
              <path id="Path_45995" data-name="Path 45995" d="M258.893,226.484a1.123,1.123,0,0,1-1.546.584c-6.7-3.226-11.261-10.653-13.234-21.585a72.85,72.85,0,0,1-1.023-15.291,1.12,1.12,0,0,1,1.205-1.071h0a1.125,1.125,0,0,1,1.035,1.157c-.195,5.284-.28,28.391,12.978,34.758a1.132,1.132,0,0,1,.572,1.437h0Z" transform="translate(13.22 7.583)" fill="#cedcec"/>
            </g>
            <g id="Group_3810" data-name="Group 3810" transform="translate(141.796 308.49)">
              <path id="Path_45996" data-name="Path 45996" d="M168.4,307.29H329.19a19.386,19.386,0,0,1,19.382,19.382v2.289H149.02v-2.289A19.385,19.385,0,0,1,168.4,307.29Z" transform="translate(-149.02 -275.21)" fill="#fff"/>
              <rect id="Rectangle_3652" data-name="Rectangle 3652" width="72.341" height="32.092" transform="translate(63.052)" fill="#fff"/>
              <g id="Group_3809" data-name="Group 3809" transform="translate(63.052)" opacity="0.5">
                <path id="Path_45997" data-name="Path 45997" d="M273.151,288.8,200.81,301.588V280.94h72.341Z" transform="translate(-200.81 -280.94)" fill="#9ab8de"/>
              </g>
            </g>
            <g id="Group_3843" data-name="Group 3843" transform="translate(33.392 87.876)">
              <g id="Group_3828" data-name="Group 3828">
                <g id="Group_3815" data-name="Group 3815" transform="translate(0 105.334)">
                  <g id="Group_3812" data-name="Group 3812">
                    <path id="Path_45998" data-name="Path 45998" d="M71.51,227.29l-11.4-19.735a1.069,1.069,0,0,1,0-1.047l11.4-19.735a1.038,1.038,0,0,1,.913-.523H95.214a1.053,1.053,0,0,1,.913.523l11.4,19.735a1.069,1.069,0,0,1,0,1.047l-11.4,19.735a1.038,1.038,0,0,1-.913.523H72.423a1.053,1.053,0,0,1-.913-.523Z" transform="translate(-59.977 -186.25)" fill="#1eb8ff"/>
                    <g id="Group_3811" data-name="Group 3811" transform="translate(9.122 9.841)">
                      <path id="Path_45999" data-name="Path 45999" d="M90.528,199.83a1.709,1.709,0,0,0-1.278-1.266.965.965,0,0,0,.292-.414,6.4,6.4,0,0,1,2.155,3.08,1.78,1.78,0,0,1,.085.231.093.093,0,0,0,.024.061h0a.679.679,0,0,1-.377-.134,2.371,2.371,0,0,1-.913-1.57Z" transform="translate(-62.734 -193.503)" fill="#fff"/>
                      <path id="Path_46000" data-name="Path 46000" d="M67.47,207.246h0a9.4,9.4,0,0,0,.11,1.4,6.77,6.77,0,0,0,.158.779c.012.061.037.134.049.195-.012-.061-.037-.122-.049-.195a2.853,2.853,0,0,0,2.581-.937.234.234,0,0,1,.365.292,3.421,3.421,0,0,1-2.471,1.157,3.305,3.305,0,0,1-.341-.012,1.332,1.332,0,0,1-.061-.207c.024.073.037.146.061.207a5.07,5.07,0,0,0,.292.73,3.328,3.328,0,0,0,.231.414,3.914,3.914,0,0,0,3.165,1.924,7.377,7.377,0,0,0,3.494,2.983.787.787,0,0,0,.158.049.92.92,0,0,0,.183-.3,3.772,3.772,0,0,1,.341-.621,2.794,2.794,0,0,1,2.691-1.023c.475.061.779-.3,1.084-.657a1.757,1.757,0,0,1,.524-.487,1.6,1.6,0,0,1,.864,0c.463.085.779.122.877-.085.377-.755,1.5-.67,1.546-.657a.228.228,0,0,1,.219.256.228.228,0,0,1-.256.219s-.852-.061-1.1.4c-.268.536-.913.414-1.388.329a1.451,1.451,0,0,0-.584-.037,1.694,1.694,0,0,0-.365.365,1.711,1.711,0,0,1-1.5.828,2.389,2.389,0,0,0-2.24.828,2.722,2.722,0,0,0-.292.536,1.387,1.387,0,0,1-.122.231,3.179,3.179,0,0,0,2.593-.329,2.088,2.088,0,0,0,1.4-.049c.609-.268.536-1.169.511-1.339l4.078.913h0a.3.3,0,0,1,.158-.049,3.315,3.315,0,0,0,3.275-1.851h0a3.491,3.491,0,0,0-2.252-1.1.236.236,0,1,1,.1-.463,4.338,4.338,0,0,1,2.362,1.071,2.713,2.713,0,0,0,.122-.523,2.588,2.588,0,0,0-.9-2.277.234.234,0,0,1,.292-.365,3.065,3.065,0,0,1,1.084,2.715,3.854,3.854,0,0,1-.3,1.01h0v.037a4.056,4.056,0,0,1-.913,1.242,3.489,3.489,0,0,1-1.12.706h0a8.049,8.049,0,0,1-1.449-.073,8.049,8.049,0,0,0,1.449.073,7.253,7.253,0,0,0,1.376-.207,5.087,5.087,0,0,0,1.4-.621,3.458,3.458,0,0,0,1.169-3.945h0a.235.235,0,0,1-.195-.158c0-.024-.657-1.875-1.814-1.972a2.843,2.843,0,0,0-1.23.207,1.8,1.8,0,0,1-2.045-.268,9.491,9.491,0,0,1-.974-1.023,3.573,3.573,0,0,0-1.924-1.424h0a1.4,1.4,0,0,1-.341.11,5.244,5.244,0,0,1-.889.085,1.976,1.976,0,0,1-1.254-.365,1.9,1.9,0,0,1-.645-1.424c-.037-.414-.049-.755-.061-1.071-.037-.95-.061-1.339-.39-1.534a.24.24,0,0,1,.243-.414c.56.329.584.925.621,1.924,0,.3.024.657.061,1.047a1.416,1.416,0,0,0,.463,1.084,2.382,2.382,0,0,0,1.777.183.235.235,0,0,0,.122-.037.239.239,0,0,1,.207-.11c.609-.438.609-1.692.609-1.717a.237.237,0,1,1,.475-.012,3.4,3.4,0,0,1-.536,1.863h0a4.425,4.425,0,0,1,1.826,1.473,8.642,8.642,0,0,0,.925.974,1.371,1.371,0,0,0,1.595.17,3.365,3.365,0,0,1,1.424-.231c1.412.134,2.143,2.07,2.216,2.277h.45a6.056,6.056,0,0,0,4.918-2.5,4.877,4.877,0,0,1-1.327.219,3.328,3.328,0,0,1-.609-.061,1.742,1.742,0,0,1-1.217-1.23,2.537,2.537,0,0,0-.4-.694.761.761,0,0,0-.329-.207c-.256-.085-.67-.183-1.1-.28-1.29-.28-2.885-.633-3.2-1.522a.239.239,0,1,1,.45-.158c.231.633,1.814.986,2.861,1.217a10.159,10.159,0,0,1,1.144.292,1.424,1.424,0,0,1,.475.292,1.127,1.127,0,0,0,.974-.1.816.816,0,0,0,.438-.706,1.129,1.129,0,0,1,.317-.828,1.336,1.336,0,0,1,.9-.317.224.224,0,0,1,.219.243.239.239,0,0,1-.243.219,1.249,1.249,0,0,0-.39.073,3.025,3.025,0,0,1,1.558,1.717.232.232,0,0,1-.146.292c-.024,0-.049.012-.073.012a.234.234,0,0,1-.219-.158,2.454,2.454,0,0,0-1.437-1.473,1.072,1.072,0,0,0-.024.207,1.266,1.266,0,0,1-.67,1.12,1.746,1.746,0,0,1-.84.231h0c.049.11.1.219.146.317.207.463.377.852.889.962a4.3,4.3,0,0,0,2.264-.341h0a5.932,5.932,0,0,0,.56-4.419c-.037-.122-.073-.231-.11-.353.037.122.073.243.11.353h0a1.2,1.2,0,0,1-.767-.207,2.78,2.78,0,0,1-1.132-1.887c-.122-.779-1.205-.974-1.449-1.01h0s-.1.024-.158.037a3.226,3.226,0,0,1-1.084,0A.611.611,0,0,1,92,199.7h0a2.142,2.142,0,0,1,1.266,1.23,1.328,1.328,0,0,1-.3,1.254,1.179,1.179,0,0,1-1.071.329,1.829,1.829,0,0,0-1.266.085.535.535,0,0,0-.231.377.246.246,0,0,1-.231.195h-.049a.23.23,0,0,1-.183-.28,1.055,1.055,0,0,1,.438-.682,2.2,2.2,0,0,1,1.619-.146.709.709,0,0,0,.645-.195.869.869,0,0,0,.183-.828c-.134-.6-1.217-1.035-1.729-1.181h0a1.5,1.5,0,0,0-.329.3.219.219,0,0,1-.183.085.177.177,0,0,1-.146-.061.232.232,0,0,1-.024-.329,1.887,1.887,0,0,1,.511-.45h0l.024-.024h0a1.477,1.477,0,0,1,.889-.17,2.064,2.064,0,0,0-1.217-1.242,4.834,4.834,0,0,0-1.9-.475.238.238,0,1,1-.037-.475,5.168,5.168,0,0,1,2.118.511c.049.024.085.036.134.061h0a1.814,1.814,0,0,0-.718-1.838c.377.183.73.365,1.035.548a1.96,1.96,0,0,1,.1,1.522h0a2.607,2.607,0,0,1,1,1.437h0a2.161,2.161,0,0,0,.791,0c.536-.122.706-.365.767-.523a.148.148,0,0,1-.061-.012,6.983,6.983,0,0,0-2.593-2.435h0a9.144,9.144,0,0,0-1.035-.548,14.34,14.34,0,0,0-2.2-.791.877.877,0,0,1,.11.633.424.424,0,0,1-.3.268,2.843,2.843,0,0,1-.67.012c-.706-.036-1.777-.085-2.216.6a.234.234,0,0,1-.195.11.147.147,0,0,1-.122-.037.238.238,0,0,1-.073-.329c.584-.913,1.863-.852,2.63-.816a3.342,3.342,0,0,0,.5,0,1.734,1.734,0,0,0-.317-.621c.219.049.438.1.645.158h0c-.207-.061-.426-.11-.657-.158H87.29a18.806,18.806,0,0,0-6.014-.329h0a1.236,1.236,0,0,0,0,.852h.012c.292.3.39.4,1.473.426a.873.873,0,0,1,.682.256,1.525,1.525,0,0,1,.195,1.132,1.657,1.657,0,0,0,.085.937.387.387,0,0,0,.4.231,1.019,1.019,0,0,0,.694-.828c.231-1.023,1.644-1.01,1.692-1.01a.237.237,0,1,1-.012.475h0s-1.084,0-1.23.645a1.521,1.521,0,0,1-1.084,1.193h-.134a.849.849,0,0,1-.743-.475,1.99,1.99,0,0,1-.146-1.217c.024-.317.049-.645-.073-.779a.532.532,0,0,0-.341-.11c-1.23-.024-1.437-.17-1.8-.548h-.012a1.341,1.341,0,0,1-.17-1.144c.134-.012.28-.037.426-.049-.146.012-.292.036-.426.049a19.338,19.338,0,0,0-1.936.353c.5.231,1.12.682.986,1.424a2.532,2.532,0,0,0-.061.73c.012.036.146.085.317.134l.073.024s.073.024.122.037c.791.256,3.2,1.01,2.788,2.435-.1.329-.195.584-.268.791a3.02,3.02,0,0,0-.134.4,1.506,1.506,0,0,0,.256.073,4.078,4.078,0,0,1,1.8.864,3.268,3.268,0,0,1,1.047,2.849.229.229,0,0,1-.231.219H85.5a.228.228,0,0,1-.219-.256,2.9,2.9,0,0,0-2.459-3.214.822.822,0,0,1-.584-.292c-.11-.207-.037-.426.11-.8.073-.195.158-.438.256-.755.195-.645-.645-1.266-2.471-1.851-.049-.012-.085-.024-.122-.037l-.073-.024c-.28-.085-.5-.158-.609-.414a1.814,1.814,0,0,1,.037-.986c.122-.755-1.217-1.1-1.242-1.1a.123.123,0,0,1-.085-.049h0a8.192,8.192,0,0,0-1.875.28,7.74,7.74,0,0,0-2.922,1.437,5.612,5.612,0,0,0,1.741-.317c.9-.3,1.5-.438,1.924-.219a1.054,1.054,0,0,1,.5.706.239.239,0,0,1-.463.122c-.073-.292-.183-.377-.256-.414-.268-.146-.816,0-1.546.243a6.065,6.065,0,0,1-1.984.341,3.486,3.486,0,0,1-.414-.024h0a6.888,6.888,0,0,0-1.181,1.571h0a2.05,2.05,0,0,1,1.595-.073,1.123,1.123,0,0,1,.6.84l.024.085h0a3.644,3.644,0,0,1,3.3-1.364c2.106.207,4.176,3.36,4.712,4.225a1.905,1.905,0,0,1,.3-.243,1.776,1.776,0,0,1,1.364-.17.235.235,0,0,1-.134.45,1.3,1.3,0,0,0-.974.122,1.825,1.825,0,0,0-.73,1.339.246.246,0,0,1-.231.195h-.037a.232.232,0,0,1-.195-.268,3.256,3.256,0,0,1,.341-1.023c-.268-.45-2.423-3.957-4.456-4.151a3.192,3.192,0,0,0-2.983,1.315,1.263,1.263,0,0,0,.475.122,1.525,1.525,0,0,1,1.084.45c.365.438.292,1.12.207,2.143,0,.1-.024.207-.024.3a5.944,5.944,0,0,0,.268,1.972c.049.207.11.426.146.633.073.183.9,2.228,2.532,2.751a10.257,10.257,0,0,0,2.021.39,4.152,4.152,0,0,1,2.264.706.234.234,0,0,1-.292.365,3.786,3.786,0,0,0-2.033-.609,9.918,9.918,0,0,1-2.118-.414,3.183,3.183,0,0,1-.767-.365,1.7,1.7,0,0,0-.11.9,5.029,5.029,0,0,0,1.936.816.239.239,0,0,1,.183.28.246.246,0,0,1-.231.195h-.049a5.185,5.185,0,0,1-2.228-1c-.158-.17-.718-.085-1.266,0a7.377,7.377,0,0,1-1.741.134c-.11.4-.377,1.193-.95,1.424-.024,0-.061.012-.085.012a.241.241,0,0,1-.219-.146.224.224,0,0,1,.134-.3c.329-.134.56-.706.657-1.071a2.229,2.229,0,0,1-.889-.463.233.233,0,0,1,.3-.353,1.851,1.851,0,0,0,.9.414h.012a5.561,5.561,0,0,0,1.79-.1,4.144,4.144,0,0,1,1.242-.085,2.364,2.364,0,0,1,.207-.925,5.828,5.828,0,0,1-1.181-1.4h0a1.432,1.432,0,0,1-.45.779,1.923,1.923,0,0,1-1.3.45,3.119,3.119,0,0,1-1.193-.243,2.313,2.313,0,0,1-1.595-1.741v-.183a3.222,3.222,0,0,0-.219-1.266.332.332,0,0,0-.243,0,.239.239,0,0,1-.28-.183.245.245,0,0,1,.183-.28.762.762,0,0,1,.633.1c.3.231.329.694.4,1.619v.183a1.871,1.871,0,0,0,1.3,1.327,1.945,1.945,0,0,0,2-.122c.487-.45.365-1.1.11-2.094a6.359,6.359,0,0,1-.28-2.131c0-.11.024-.207.024-.3.085-.913.146-1.522-.1-1.8a1.069,1.069,0,0,0-.755-.28,1.307,1.307,0,0,1-.913-.377h0v-.024h-.012a1.486,1.486,0,0,1-.256-.572c-.073-.268-.122-.426-.341-.536-.657-.317-1.619.28-1.631.292a.2.2,0,0,1-.183.024,11.938,11.938,0,0,0-2.654,3.555l-.146.329.146-.329a.23.23,0,0,1,.024.1s.11,1.193.682,1.193h.024c.28-.024.365-.426.475-1.059a2.9,2.9,0,0,1,.475-1.388,2.752,2.752,0,0,1,3.4-.633.232.232,0,0,1-.183.426,2.288,2.288,0,0,0-2.861.5h0a1.19,1.19,0,0,1,1.266.3,2.132,2.132,0,0,1,.45.8c.268.645.487,1.071,1.01,1.071a.448.448,0,0,0,.39-.146c.195-.256.085-.828.037-1.01a.235.235,0,1,1,.45-.134,1.822,1.822,0,0,1-.11,1.424.889.889,0,0,1-.755.341h-.012c-.877,0-1.205-.791-1.437-1.364a2.226,2.226,0,0,0-.341-.645c-.134-.122-.536-.5-1.23.049-.037.146-.061.3-.085.463-.11.657-.243,1.412-.913,1.449h-.061c-.56,0-.877-.5-1.035-1-.085.231-.17.463-.243.706h0a9.158,9.158,0,0,0-.4,2.143v0a1.768,1.768,0,0,0,1.242.414,5,5,0,0,0,1.619-.329.232.232,0,0,1,.183.426,5.189,5.189,0,0,1-1.79.365,2.309,2.309,0,0,1-1.266-.316ZM85.513,200.6a.238.238,0,0,1,.4-.256,1.012,1.012,0,0,0,.572.438.6.6,0,0,0,.487-.183c.511-.438.39-2.131.207-3.1a.239.239,0,0,1,.183-.28.245.245,0,0,1,.28.183c.061.28.524,2.8-.365,3.555h-.012a1.8,1.8,0,0,0,1.181.511c.5-.061.9-.877,1.01-1.193a.239.239,0,0,1,.45.158c-.049.146-.524,1.388-1.4,1.5h-.146a2.67,2.67,0,0,1-1.534-.73.925.925,0,0,1-.256.037h-.146a1.461,1.461,0,0,1-.9-.657Zm-10.774,9.983a3.958,3.958,0,0,1,2.52.475,9.2,9.2,0,0,0,1.777.609,3.7,3.7,0,0,0,3.092-1.169.232.232,0,0,1,.329.329,4.494,4.494,0,0,1-2.91,1.376,2.889,2.889,0,0,1-.633-.073,9.743,9.743,0,0,1-1.863-.645h0a1.8,1.8,0,0,0-1.157.56.259.259,0,0,1-.183.085.287.287,0,0,1-.158-.061.232.232,0,0,1-.024-.329,2.253,2.253,0,0,1,.755-.56,2.62,2.62,0,0,0-1.461-.146.236.236,0,1,1-.1-.463Zm-3.945.645c.511,0,.682-.889.682-.9a.232.232,0,0,1,.268-.195.241.241,0,0,1,.195.268,1.8,1.8,0,0,1-.621,1.12h0a1.844,1.844,0,0,0,1.364.024.239.239,0,1,1,.122.463,3.248,3.248,0,0,1-.84.122,2.35,2.35,0,0,1-1.376-.475h0c-.17-.11-.341-.231-.523-.365h-.012a1.824,1.824,0,0,0-1.668-.219c-.073-.134-.158-.268-.231-.414a2.313,2.313,0,0,1,2.167.243h.012c.158.122.3.231.45.329Z" transform="translate(-67.47 -194.333)" fill="#fff"/>
                    </g>
                  </g>
                  <g id="Group_3814" data-name="Group 3814" transform="translate(57.442 9.155)">
                    <g id="Group_3813" data-name="Group 3813">
                      <path id="Path_46001" data-name="Path 46001" d="M158.281,195.718H108.134a.974.974,0,0,1,0-1.948h50.147a.974.974,0,1,1,0,1.948Z" transform="translate(-107.16 -193.77)" fill="#0051b6"/>
                      <path id="Path_46002" data-name="Path 46002" d="M158.281,201.628H108.134a.974.974,0,1,1,0-1.948h50.147a.974.974,0,1,1,0,1.948Z" transform="translate(-107.16 -192.485)" fill="#0051b6"/>
                      <path id="Path_46003" data-name="Path 46003" d="M158.281,207.4H108.134a.974.974,0,0,1,0-1.948h50.147a.974.974,0,1,1,0,1.948Z" transform="translate(-107.16 -191.23)" fill="#0051b6"/>
                    </g>
                    <path id="Path_46004" data-name="Path 46004" d="M158.281,213.308H108.134a.974.974,0,0,1,0-1.948h50.147a.974.974,0,1,1,0,1.948Z" transform="translate(-107.16 -189.945)" fill="#0051b6"/>
                  </g>
                </g>
                <g id="Group_3820" data-name="Group 3820" transform="translate(2.645 50.682)">
                  <g id="Group_3817" data-name="Group 3817" transform="translate(51.036 10.823)">
                    <g id="Group_3816" data-name="Group 3816">
                      <path id="Path_46005" data-name="Path 46005" d="M153.681,152.2H105.044a.974.974,0,1,1,0-1.948h48.637a.974.974,0,1,1,0,1.948Z" transform="translate(-104.07 -150.25)" fill="#0051b6"/>
                      <path id="Path_46006" data-name="Path 46006" d="M153.681,158.108H105.044a.974.974,0,0,1,0-1.948h48.637a.974.974,0,1,1,0,1.948Z" transform="translate(-104.07 -148.965)" fill="#0051b6"/>
                      <path id="Path_46007" data-name="Path 46007" d="M153.681,163.878H105.044a.974.974,0,0,1,0-1.948h48.637a.974.974,0,1,1,0,1.948Z" transform="translate(-104.07 -147.71)" fill="#0051b6"/>
                    </g>
                    <path id="Path_46008" data-name="Path 46008" d="M153.681,169.8H105.044a.974.974,0,0,1,0-1.948h48.637a.974.974,0,1,1,0,1.948Z" transform="translate(-104.07 -146.423)" fill="#0051b6"/>
                  </g>
                  <g id="Group_3819" data-name="Group 3819">
                    <circle id="Ellipse_540" data-name="Ellipse 540" cx="22.693" cy="22.693" r="22.693" fill="#1eb8ff"/>
                    <g id="Group_3818" data-name="Group 3818" transform="translate(9.575 5.683)">
                      <path id="Path_46009" data-name="Path 46009" d="M94.117,158.485l-4.3,7.877L75.04,158.29l4.3-7.877a8.42,8.42,0,1,1,14.78,8.072Z" transform="translate(-68.922 -146.028)" fill="#0051b6"/>
                      <path id="Path_46010" data-name="Path 46010" d="M75.354,157.262l14.78,8.072-4.3,7.877a8.428,8.428,0,0,1-14.792-8.084l4.3-7.877Z" transform="translate(-70.014 -143.587)" fill="#fff"/>
                    </g>
                  </g>
                </g>
                <g id="Group_3827" data-name="Group 3827" transform="translate(2.268)">
                  <g id="Group_3822" data-name="Group 3822" transform="translate(50.658 11.079)">
                    <g id="Group_3821" data-name="Group 3821">
                      <path id="Path_46011" data-name="Path 46011" d="M154.571,110.778H104.424a.974.974,0,1,1,0-1.948h50.147a.974.974,0,0,1,0,1.948Z" transform="translate(-103.45 -108.83)" fill="#0051b6"/>
                      <path id="Path_46012" data-name="Path 46012" d="M154.571,116.688H104.424a.974.974,0,1,1,0-1.948h50.147a.974.974,0,0,1,0,1.948Z" transform="translate(-103.45 -107.545)" fill="#0051b6"/>
                      <path id="Path_46013" data-name="Path 46013" d="M154.571,122.458H104.424a.974.974,0,1,1,0-1.948h50.147a.974.974,0,0,1,0,1.948Z" transform="translate(-103.45 -106.29)" fill="#0051b6"/>
                    </g>
                    <path id="Path_46014" data-name="Path 46014" d="M154.571,128.378H104.424a.974.974,0,1,1,0-1.948h50.147a.974.974,0,0,1,0,1.948Z" transform="translate(-103.45 -105.003)" fill="#0051b6"/>
                  </g>
                  <g id="Group_3826" data-name="Group 3826">
                    <circle id="Ellipse_541" data-name="Ellipse 541" cx="22.693" cy="22.693" r="22.693" fill="#1eb8ff"/>
                    <g id="Group_3825" data-name="Group 3825" transform="translate(11.603 6.329)">
                      <g id="Group_3823" data-name="Group 3823" transform="translate(2.946 2.62)">
                        <path id="Path_46015" data-name="Path 46015" d="M89.58,108.1H74.3a.511.511,0,1,1,0-1.023H89.58a.511.511,0,0,1,0,1.023Z" transform="translate(-73.79 -107.08)" fill="#fff"/>
                        <path id="Path_46016" data-name="Path 46016" d="M89.58,111.673H74.3a.511.511,0,1,1,0-1.023H89.58a.511.511,0,0,1,0,1.023Z" transform="translate(-73.79 -106.304)" fill="#fff"/>
                        <path id="Path_46017" data-name="Path 46017" d="M89.58,115.243H74.3a.511.511,0,1,1,0-1.023H89.58a.511.511,0,1,1,0,1.023Z" transform="translate(-73.79 -105.527)" fill="#fff"/>
                        <path id="Path_46018" data-name="Path 46018" d="M89.58,122.383H74.3a.511.511,0,1,1,0-1.023H89.58a.511.511,0,0,1,0,1.023Z" transform="translate(-73.79 -103.975)" fill="#fff"/>
                        <path id="Path_46019" data-name="Path 46019" d="M89.58,125.953H74.3a.511.511,0,1,1,0-1.023H89.58a.511.511,0,0,1,0,1.023Z" transform="translate(-73.79 -103.199)" fill="#fff"/>
                        <path id="Path_46020" data-name="Path 46020" d="M89.58,129.523H74.3a.511.511,0,1,1,0-1.023H89.58a.511.511,0,1,1,0,1.023Z" transform="translate(-73.79 -102.422)" fill="#fff"/>
                      </g>
                      <g id="Group_3824" data-name="Group 3824">
                        <path id="Path_46021" data-name="Path 46021" d="M77.932,118.1a12.057,12.057,0,0,0-2.35,1.157,9.026,9.026,0,0,1-1.351-1.29c-3.823-4.48-2.727-11.785-2.678-12.1a1.116,1.116,0,0,1,2.2.353,19.22,19.22,0,0,0-.146,2.423c0,2.252.377,5.612,2.325,7.877a6.64,6.64,0,0,0,2,1.583Z" transform="translate(-71.371 -104.928)" fill="#0051b6"/>
                        <path id="Path_46022" data-name="Path 46022" d="M90.656,132.246a1.126,1.126,0,0,1-1.108.974H89.4a1.139,1.139,0,0,1-.974-1.254c0-.073.852-7.183-2.569-11.067a6.922,6.922,0,0,0-1.729-1.424,11.8,11.8,0,0,0,2.411-1.035,11.021,11.021,0,0,1,1.011.986c4.1,4.651,3.153,12.5,3.117,12.832Z" transform="translate(-68.596 -101.99)" fill="#0051b6"/>
                      </g>
                      <path id="Path_46023" data-name="Path 46023" d="M72.609,136.158a1.117,1.117,0,0,1-1.108-.974c-.037-.329-.986-8.169,3.1-12.832a10.128,10.128,0,0,1,8-3.3,7.943,7.943,0,0,0,6.379-2.544c3.165-3.7,2.179-10.227,2.167-10.287a1.116,1.116,0,1,1,2.2-.353c.049.3,1.157,7.621-2.678,12.1-1.887,2.216-4.614,3.336-8.084,3.336a7.987,7.987,0,0,0-6.306,2.532c-3.433,3.884-2.581,11.006-2.569,11.067a1.13,1.13,0,0,1-.974,1.254H72.6Z" transform="translate(-71.368 -104.928)" fill="#0051b6"/>
                    </g>
                  </g>
                </g>
              </g>
              <g id="Group_3834" data-name="Group 3834" transform="translate(400.118 73.656)">
                <rect id="Rectangle_3653" data-name="Rectangle 3653" width="28.452" height="77.832" rx="3.48" transform="translate(3.153)" fill="#fff"/>
                <path id="Path_46024" data-name="Path 46024" d="M390.955,205.016h.828V180.29h-.828a2.333,2.333,0,0,0-2.325,2.325V202.7a2.333,2.333,0,0,0,2.325,2.325Z" transform="translate(-388.63 -155.868)" fill="#9ab8de"/>
                <g id="Group_3833" data-name="Group 3833" transform="translate(4.221 5.211)">
                  <g id="Group_3830" data-name="Group 3830" transform="translate(0 44.655)">
                    <circle id="Ellipse_542" data-name="Ellipse 542" cx="9.545" cy="9.545" r="9.545" transform="matrix(0.835, -0.55, 0.55, 0.835, 0, 10.495)" fill="#fd615b"/>
                    <g id="Group_3829" data-name="Group 3829" transform="translate(7.722 7.732)">
                      <path id="Path_46025" data-name="Path 46025" d="M408.435,218.534a1,1,0,0,1-.706-.292l-9-9a1,1,0,0,1,1.412-1.412l9,9a1,1,0,0,1-.706,1.7Z" transform="translate(-398.44 -207.54)" fill="#fff"/>
                      <path id="Path_46026" data-name="Path 46026" d="M399.438,218.534a1,1,0,0,1-.706-1.7l9-9a1,1,0,0,1,1.412,1.412l-9,9a1,1,0,0,1-.706.292Z" transform="translate(-398.44 -207.54)" fill="#fff"/>
                    </g>
                  </g>
                  <g id="Group_3831" data-name="Group 3831" transform="translate(2.256 25.359)">
                    <path id="Path_46027" data-name="Path 46027" d="M414.61,188.17H395.2a1.252,1.252,0,0,0-1.254,1.254v10.75a1.252,1.252,0,0,0,1.254,1.254H414.61a1.252,1.252,0,0,0,1.254-1.254v-10.75A1.252,1.252,0,0,0,414.61,188.17Zm-17.3,4.906a1.68,1.68,0,1,1,1.68-1.68A1.683,1.683,0,0,1,397.31,193.076Zm7.6,6.185a4.638,4.638,0,1,1,4.638-4.638A4.637,4.637,0,0,1,404.907,199.261Z" transform="translate(-393.95 -184.725)"/>
                    <path id="Path_46028" data-name="Path 46028" d="M408.259,185.912v2.873h-2.252v-1.437a.3.3,0,0,0-.292-.292h-3.92a.3.3,0,0,0-.292.292v1.437H399.25v-2.873a.572.572,0,0,1,.572-.572h7.84a.572.572,0,0,1,.572.572Z" transform="translate(-392.797 -185.34)"/>
                  </g>
                  <g id="Group_3832" data-name="Group 3832" transform="translate(7.99)">
                    <rect id="Rectangle_3654" data-name="Rectangle 3654" width="5.247" height="13.684" rx="1.93" transform="translate(2.642)"/>
                    <rect id="Rectangle_3655" data-name="Rectangle 3655" width="1.071" height="6.416" rx="0.39" transform="translate(4.736 10.507)"/>
                    <rect id="Rectangle_3656" data-name="Rectangle 3656" width="10.543" height="2.252" rx="0.83" transform="translate(0 15.157)"/>
                  </g>
                </g>
              </g>
              <g id="Group_3838" data-name="Group 3838" transform="translate(303.964 51.888)">
                <g id="Group_3835" data-name="Group 3835">
                  <circle id="Ellipse_543" data-name="Ellipse 543" cx="10.592" cy="10.592" r="10.592" fill="#1eb8ff"/>
                  <path id="Path_46029" data-name="Path 46029" d="M316.8,157.938a.842.842,0,0,1-.572-.219l-2.849-2.532a.862.862,0,0,1,1.144-1.29l2.179,1.936,7.682-9.277a.864.864,0,1,1,1.327,1.108l-8.254,9.971a.82.82,0,0,1-.6.3H316.8Z" transform="translate(-308.901 -141.503)" fill="#fff"/>
                </g>
                <g id="Group_3836" data-name="Group 3836" transform="translate(26.577)">
                  <circle id="Ellipse_544" data-name="Ellipse 544" cx="10.592" cy="10.592" r="10.592" fill="#1eb8ff"/>
                  <path id="Path_46030" data-name="Path 46030" d="M338.623,157.938a.842.842,0,0,1-.572-.219l-2.849-2.532a.862.862,0,1,1,1.144-1.29l2.179,1.936,7.682-9.277a.864.864,0,1,1,1.327,1.108l-8.254,9.971a.82.82,0,0,1-.6.3h-.061Z" transform="translate(-330.734 -141.503)" fill="#fff"/>
                </g>
                <g id="Group_3837" data-name="Group 3837" transform="translate(53.531)">
                  <circle id="Ellipse_545" data-name="Ellipse 545" cx="10.592" cy="10.592" r="10.592" fill="#1eb8ff"/>
                  <path id="Path_46031" data-name="Path 46031" d="M368.347,146.565a.864.864,0,0,1,1.327,1.108l-8.254,9.971a.82.82,0,0,1-.6.3h-.061a.842.842,0,0,1-.572-.219l-2.849-2.532a.862.862,0,1,1,1.144-1.29l2.179,1.936" transform="translate(-352.874 -141.501)" fill="#fff"/>
                </g>
              </g>
              <g id="Group_3842" data-name="Group 3842" transform="translate(269.248 1.772)">
                <g id="Group_3839" data-name="Group 3839" transform="translate(0)">
                  <path id="Path_46032" data-name="Path 46032" d="M326.467,114.388c-.779,10.093-14.963,21.695-20.514,25.737a3.617,3.617,0,0,1-4.261,0c-5.552-4.054-19.735-15.644-20.514-25.737-.962-12.528,14.573-19.248,22.645-5.88C311.882,95.14,327.428,101.873,326.467,114.388Z" transform="translate(-281.135 -101.186)" fill="#fd615b"/>
                  <path id="Path_46033" data-name="Path 46033" d="M322.428,115.6a.448.448,0,0,1-.45.353h-4.115a.49.49,0,0,1-.45-.3l-.207-.511-1.059-2.691-.852,2.155a.41.41,0,0,1-.4.268h-2.5a.453.453,0,0,1-.4-.268l-.791-2.009-2.958,7.5a.427.427,0,0,1-.4.268.44.44,0,0,1-.4-.268l-1.51-3.823-4.407,11.176a.411.411,0,0,1-.4.268.44.44,0,0,1-.4-.268l-4.736-12h-1.8a.427.427,0,0,1-.4-.268l-.937-2.374-1.144,2.9a.41.41,0,0,1-.4.268h-6.879a.425.425,0,0,1-.438-.365.437.437,0,0,1,.426-.5h6.6l1.437-3.64a.41.41,0,0,1,.4-.268.44.44,0,0,1,.4.268l1.23,3.117h1.8a.427.427,0,0,1,.4.268l4.444,11.261,4.407-11.176a.41.41,0,0,1,.4-.268.427.427,0,0,1,.4.268l1.51,3.823,2.958-7.5a.41.41,0,0,1,.4-.268.44.44,0,0,1,.4.268l1.084,2.751H314.6l1.144-2.9a.41.41,0,0,1,.4-.268.44.44,0,0,1,.4.268l1.571,3.981H322a.437.437,0,0,1,.426.5Z" transform="translate(-280.517 -99.087)" fill="#f0ece6"/>
                </g>
                <g id="Group_3841" data-name="Group 3841" transform="translate(57.251 5.788)">
                  <g id="Group_3840" data-name="Group 3840">
                    <path id="Path_46034" data-name="Path 46034" d="M379.281,107.888H329.134a.974.974,0,0,1,0-1.948h50.147a.974.974,0,0,1,0,1.948Z" transform="translate(-328.16 -105.94)" fill="#0051b6"/>
                    <path id="Path_46035" data-name="Path 46035" d="M379.281,113.808H329.134a.974.974,0,0,1,0-1.948h50.147a.974.974,0,0,1,0,1.948Z" transform="translate(-328.16 -104.653)" fill="#0051b6"/>
                    <path id="Path_46036" data-name="Path 46036" d="M379.281,119.578H329.134a.974.974,0,0,1,0-1.948h50.147a.974.974,0,0,1,0,1.948Z" transform="translate(-328.16 -103.398)" fill="#0051b6"/>
                  </g>
                  <path id="Path_46037" data-name="Path 46037" d="M379.281,125.488H329.134a.974.974,0,0,1,0-1.948h50.147a.974.974,0,0,1,0,1.948Z" transform="translate(-328.16 -102.113)" fill="#0051b6"/>
                </g>
              </g>
              <path id="Path_46038" data-name="Path 46038" d="M398.65,132.337a.789.789,0,0,1-.511-.317l-3.835-5.345s-.049-.024-.073,0l-3.214,2.313a.785.785,0,0,1-.767.085.772.772,0,0,1-.463-.609l-1.936-13.587a.794.794,0,0,1,.316-.743.768.768,0,0,1,.8-.061l12.26,6.172a.786.786,0,0,1,.426.633.747.747,0,0,1-.329.694l-3.214,2.313s-.024.024-.024.037v.037l3.835,5.345a.768.768,0,0,1,.134.584.789.789,0,0,1-.317.511l-2.52,1.814a.819.819,0,0,1-.524.146h-.061Z" transform="translate(11.317 -96.629)" fill="#fff"/>
            </g>
          </g>
        </g>
        <g id="Group_3857" data-name="Group 3857" transform="translate(6.094 380.977)">
          <g id="Group_3848" data-name="Group 3848" transform="translate(411.357 9.574)">
            <g id="Group_3846" data-name="Group 3846" transform="translate(2.502 5.768)" opacity="0.5">
              <path id="Path_46039" data-name="Path 46039" d="M379.924,363.537c7.56-13.1,30.509-14.013,51.242-2.045s31.41,32.3,23.85,45.4-30.509,14.013-51.242,2.045S372.363,376.637,379.924,363.537Z" transform="translate(-377.495 -353.082)" fill="#9ab8de"/>
            </g>
            <g id="Group_3847" data-name="Group 3847">
              <path id="Path_46040" data-name="Path 46040" d="M455.025,396.051h-.012a5.346,5.346,0,0,1-.67,1.741.012.012,0,0,1-.012.012c-7.853,12.71-49.745,5.442-54.408-5.783-.4-.974-.816-1.887-1.193-2.715-5.819-12.491-9.508-9.009-19.711-17.483a10.657,10.657,0,0,1-1.193-1.132,1.608,1.608,0,0,1-.134-.146c-5.746-6.55,1.315-14.889,1.315-14.889.426-.341.864-.67,1.29-.974h0a32.9,32.9,0,0,1,10.555-5.162,29.6,29.6,0,0,1,4.992-.962c29.876-3.4,61.907,34.588,59.168,47.517Z" transform="translate(-375.44 -348.344)" fill="#eff6ff"/>
              <path id="Path_46041" data-name="Path 46041" d="M454.331,396.672c-8.437,15.583-49.745,5.442-54.408-5.783-.4-.974-.816-1.887-1.193-2.715-5.856-12.442-9.825-8.656-19.711-17.483-.426-.377-.828-.755-1.193-1.132a1.6,1.6,0,0,1-.134-.146c-5.746-6.55,1.315-14.889,1.315-14.889.426-.341.864-.67,1.29-.974-.84,2.423-1.631,7.877,4.992,13.185a23.219,23.219,0,0,0,5.162,2.995c1.449.633,4.358,2.837,9.557,10.08,8.327,11.59,16.813,17.166,26.443,18.14,17.349,1.753,27.417-1,27.867-1.254Z" transform="translate(-375.44 -347.212)" fill="#9ab8de"/>
              <path id="Path_46042" data-name="Path 46042" d="M406.408,358.664c-10.689-8.863-18.3-9.192-18.3-9.192a29.6,29.6,0,0,1,4.992-.962,26.794,26.794,0,0,1,13.307,10.166Z" transform="translate(-372.685 -348.308)" fill="#9ab8de"/>
            </g>
          </g>
          <g id="Group_3856" data-name="Group 3856">
            <g id="Group_3849" data-name="Group 3849" transform="translate(0 0.012)" opacity="0.5">
              <path id="Path_46043" data-name="Path 46043" d="M41.6,433.674H471.545a4.045,4.045,0,0,0,3.421-6.2l-53.616-85.1a4.033,4.033,0,0,0-3.421-1.887H95.219a4.062,4.062,0,0,0-3.421,1.887l-53.617,85.1A4.045,4.045,0,0,0,41.6,433.674Z" transform="translate(-37.555 -340.49)" fill="#9ab8de" opacity="0.23"/>
            </g>
            <g id="Group_3855" data-name="Group 3855" transform="translate(11.644)">
              <g id="Group_3850" data-name="Group 3850">
                <path id="Path_46044" data-name="Path 46044" d="M47.12,404.932H462.843l-40.48-64.452H87.612Z" transform="translate(-47.12 -340.48)" fill="#eff6ff"/>
                <path id="Path_46045" data-name="Path 46045" d="M13.051,0h389.62a13.052,13.052,0,0,1,13.051,13.051V14.6H0V13.051A13.052,13.052,0,0,1,13.051,0Z" transform="translate(415.735 79.037) rotate(180)" fill="#9ab8de"/>
              </g>
              <g id="Group_3851" data-name="Group 3851" transform="translate(45.183 4.772)">
                <path id="Path_46046" data-name="Path 46046" d="M338.29,351.009H356.5a1.236,1.236,0,0,0,1.12-1.753l-1.924-4.139a1.221,1.221,0,0,0-1.12-.706h-17.8a1.235,1.235,0,0,0-1.157,1.656l1.51,4.139a1.247,1.247,0,0,0,1.157.816Z" transform="translate(-29.584 -344.398)" fill="#9ab8de"/>
                <path id="Path_46047" data-name="Path 46047" d="M338.211,349.316l-1.668-4.139a1.234,1.234,0,0,0-1.144-.767H317.551a1.226,1.226,0,0,0-1.181,1.583l1.242,4.139a1.227,1.227,0,0,0,1.181.877h18.262a1.232,1.232,0,0,0,1.144-1.692Z" transform="translate(-33.767 -344.398)" fill="#9ab8de"/>
                <path id="Path_46048" data-name="Path 46048" d="M318.8,349.379l-1.4-4.139a1.233,1.233,0,0,0-1.169-.84h-17.9a1.241,1.241,0,0,0-1.205,1.522l.986,4.139a1.237,1.237,0,0,0,1.205.95h18.311A1.237,1.237,0,0,0,318.8,349.379Z" transform="translate(-37.947 -344.4)" fill="#9ab8de"/>
                <path id="Path_46049" data-name="Path 46049" d="M299.309,349.45l-1.132-4.139a1.228,1.228,0,0,0-1.193-.9H279.05a1.242,1.242,0,0,0-1.217,1.449l.718,4.139a1.229,1.229,0,0,0,1.217,1.023h18.359a1.24,1.24,0,0,0,1.193-1.558Z" transform="translate(-42.138 -344.398)" fill="#9ab8de"/>
                <path id="Path_46050" data-name="Path 46050" d="M279.826,349.416l-.84-3.969A1.327,1.327,0,0,0,277.7,344.4H259.9a1.325,1.325,0,0,0-1.315,1.461l.438,3.969A1.31,1.31,0,0,0,260.334,351h18.2a1.319,1.319,0,0,0,1.29-1.595Z" transform="translate(-46.323 -344.4)" fill="#9ab8de"/>
                <path id="Path_46051" data-name="Path 46051" d="M260.366,349.5l-.584-3.969a1.322,1.322,0,0,0-1.3-1.132H240.655a1.309,1.309,0,0,0-1.315,1.376l.183,3.969A1.313,1.313,0,0,0,240.838,351h18.225a1.317,1.317,0,0,0,1.3-1.51Z" transform="translate(-50.505 -344.4)" fill="#9ab8de"/>
                <path id="Path_46052" data-name="Path 46052" d="M240.981,349.815l-.365-4.395a1.1,1.1,0,0,0-1.1-1.01H221.283a1.115,1.115,0,0,0-1.108,1.084l-.085,4.395a1.107,1.107,0,0,0,1.108,1.12h18.688a1.094,1.094,0,0,0,1.1-1.193Z" transform="translate(-54.691 -344.398)" fill="#9ab8de"/>
                <path id="Path_46053" data-name="Path 46053" d="M221.712,349.889l-.085-4.395a1.1,1.1,0,0,0-1.108-1.084H202.281a1.1,1.1,0,0,0-1.1,1.01l-.365,4.395a1.1,1.1,0,0,0,1.1,1.193H220.6a1.107,1.107,0,0,0,1.108-1.12Z" transform="translate(-58.882 -344.398)" fill="#9ab8de"/>
                <path id="Path_46054" data-name="Path 46054" d="M202.3,349.952l.195-4.395a1.108,1.108,0,0,0-1.108-1.157H183.153a1.112,1.112,0,0,0-1.1.95l-.645,4.395a1.1,1.1,0,0,0,1.1,1.266h18.676a1.119,1.119,0,0,0,1.108-1.059Z" transform="translate(-63.104 -344.4)" fill="#9ab8de"/>
                <path id="Path_46055" data-name="Path 46055" d="M182.837,350.025l.475-4.395a1.1,1.1,0,0,0-1.1-1.23H164a1.108,1.108,0,0,0-1.084.877l-.925,4.395A1.1,1.1,0,0,0,163.078,351h18.664a1.106,1.106,0,0,0,1.1-.986Z" transform="translate(-67.329 -344.4)" fill="#9ab8de"/>
                <path id="Path_46056" data-name="Path 46056" d="M163.357,350.1l.767-4.4a1.1,1.1,0,0,0-1.084-1.29H144.852a1.082,1.082,0,0,0-1.059.816l-1.205,4.395a1.106,1.106,0,0,0,1.059,1.4h18.627a1.1,1.1,0,0,0,1.084-.913Z" transform="translate(-71.553 -344.398)" fill="#9ab8de"/>
                <path id="Path_46057" data-name="Path 46057" d="M143.829,350.181l1.059-4.444a1.077,1.077,0,0,0-1.047-1.327h-18.2a1.075,1.075,0,0,0-1.023.73l-1.5,4.444a1.078,1.078,0,0,0,1.023,1.424h18.651a1.069,1.069,0,0,0,1.047-.828Z" transform="translate(-75.789 -344.398)" fill="#9ab8de"/>
                <path id="Path_46058" data-name="Path 46058" d="M124.36,350.242,125.7,345.8a1.075,1.075,0,0,0-1.035-1.388H106.512a1.068,1.068,0,0,0-1,.682l-1.79,4.444a1.082,1.082,0,0,0,1,1.485h18.6a1.085,1.085,0,0,0,1.035-.767Z" transform="translate(-80.012 -344.398)" fill="#9ab8de"/>
                <path id="Path_46059" data-name="Path 46059" d="M103.867,351.009H85.313a1.072,1.072,0,0,1-.974-1.534l2.07-4.444a1.088,1.088,0,0,1,.974-.621h18.1a1.07,1.07,0,0,1,1.01,1.449l-1.619,4.444a1.077,1.077,0,0,1-1.01.706Z" transform="translate(-84.233 -344.398)" fill="#9ab8de"/>
              </g>
              <g id="Group_3852" data-name="Group 3852" transform="translate(38.195 16.874)">
                <path id="Path_46060" data-name="Path 46060" d="M341.9,361.192h18.98a1.236,1.236,0,0,0,1.12-1.753l-2.045-4.383a1.221,1.221,0,0,0-1.12-.706H340.29a1.235,1.235,0,0,0-1.157,1.656l1.595,4.383a1.247,1.247,0,0,0,1.157.816Z" transform="translate(-21.833 -354.338)" fill="#9ab8de"/>
                <path id="Path_46061" data-name="Path 46061" d="M341.863,359.5l-1.765-4.383a1.234,1.234,0,0,0-1.144-.767h-18.6a1.226,1.226,0,0,0-1.181,1.583l1.315,4.383a1.227,1.227,0,0,0,1.181.877h19.041a1.232,1.232,0,0,0,1.144-1.692Z" transform="translate(-26.17 -354.338)" fill="#9ab8de"/>
                <path id="Path_46062" data-name="Path 46062" d="M321.727,359.563l-1.485-4.383a1.232,1.232,0,0,0-1.169-.84H300.421a1.241,1.241,0,0,0-1.205,1.522l1.035,4.383a1.237,1.237,0,0,0,1.205.95h19.09a1.237,1.237,0,0,0,1.169-1.631Z" transform="translate(-30.504 -354.34)" fill="#9ab8de"/>
                <path id="Path_46063" data-name="Path 46063" d="M301.517,359.634l-1.205-4.383a1.227,1.227,0,0,0-1.193-.9H280.43a1.242,1.242,0,0,0-1.217,1.449l.755,4.383a1.229,1.229,0,0,0,1.217,1.023h19.126a1.24,1.24,0,0,0,1.193-1.558Z" transform="translate(-34.85 -354.338)" fill="#9ab8de"/>
                <path id="Path_46064" data-name="Path 46064" d="M281.319,359.609l-.889-4.212a1.327,1.327,0,0,0-1.291-1.047H260.586a1.325,1.325,0,0,0-1.315,1.461l.463,4.212a1.31,1.31,0,0,0,1.315,1.169h18.98a1.319,1.319,0,0,0,1.29-1.595Z" transform="translate(-39.184 -354.338)" fill="#9ab8de"/>
                <path id="Path_46065" data-name="Path 46065" d="M261.135,359.685l-.621-4.212a1.322,1.322,0,0,0-1.3-1.132H240.645a1.309,1.309,0,0,0-1.315,1.376l.195,4.212a1.313,1.313,0,0,0,1.315,1.254h18.992a1.317,1.317,0,0,0,1.3-1.51Z" transform="translate(-43.519 -354.34)" fill="#9ab8de"/>
                <path id="Path_46066" data-name="Path 46066" d="M241.038,360l-.377-4.638a1.1,1.1,0,0,0-1.1-1.01H220.573a1.115,1.115,0,0,0-1.108,1.084l-.085,4.638a1.107,1.107,0,0,0,1.108,1.12h19.455a1.094,1.094,0,0,0,1.1-1.193Z" transform="translate(-47.857 -354.338)" fill="#9ab8de"/>
                <path id="Path_46067" data-name="Path 46067" d="M221.049,360.072l-.085-4.639a1.1,1.1,0,0,0-1.108-1.083H200.864a1.1,1.1,0,0,0-1.1,1.01L199.391,360a1.1,1.1,0,0,0,1.1,1.193h19.455a1.107,1.107,0,0,0,1.108-1.12Z" transform="translate(-52.205 -354.338)" fill="#9ab8de"/>
                <path id="Path_46068" data-name="Path 46068" d="M200.931,360.135l.207-4.638a1.108,1.108,0,0,0-1.108-1.157H181.05a1.112,1.112,0,0,0-1.1.95l-.682,4.638a1.1,1.1,0,0,0,1.1,1.266h19.455A1.119,1.119,0,0,0,200.931,360.135Z" transform="translate(-56.581 -354.34)" fill="#9ab8de"/>
                <path id="Path_46069" data-name="Path 46069" d="M180.744,360.206l.511-4.638a1.094,1.094,0,0,0-1.1-1.217H161.192a1.107,1.107,0,0,0-1.084.877l-.974,4.638a1.1,1.1,0,0,0,1.084,1.327h19.431A1.106,1.106,0,0,0,180.744,360.206Z" transform="translate(-60.963 -354.338)" fill="#9ab8de"/>
                <path id="Path_46070" data-name="Path 46070" d="M160.556,360.279l.8-4.638a1.1,1.1,0,0,0-1.084-1.29H141.345a1.082,1.082,0,0,0-1.059.816l-1.278,4.638a1.107,1.107,0,0,0,1.059,1.4h19.406a1.1,1.1,0,0,0,1.084-.913Z" transform="translate(-65.343 -354.338)" fill="#9ab8de"/>
                <path id="Path_46071" data-name="Path 46071" d="M140.3,360.364l1.108-4.687a1.077,1.077,0,0,0-1.047-1.327H121.415a1.075,1.075,0,0,0-1.023.73l-1.583,4.687a1.078,1.078,0,0,0,1.023,1.424h19.418a1.069,1.069,0,0,0,1.047-.828Z" transform="translate(-69.738 -354.338)" fill="#9ab8de"/>
                <path id="Path_46072" data-name="Path 46072" d="M120.119,360.425l1.412-4.687a1.075,1.075,0,0,0-1.035-1.388H101.589a1.068,1.068,0,0,0-1,.682L98.7,359.719a1.082,1.082,0,0,0,1,1.485h19.382a1.085,1.085,0,0,0,1.035-.767Z" transform="translate(-74.115 -354.338)" fill="#9ab8de"/>
                <path id="Path_46073" data-name="Path 46073" d="M98.906,361.192H79.573a1.072,1.072,0,0,1-.974-1.534l2.179-4.687a1.088,1.088,0,0,1,.974-.621H100.61a1.07,1.07,0,0,1,1.01,1.449L99.9,360.486a1.077,1.077,0,0,1-1.01.706Z" transform="translate(-78.493 -354.338)" fill="#9ab8de"/>
              </g>
              <g id="Group_3853" data-name="Group 3853" transform="translate(32.522 28.793)">
                <path id="Path_46074" data-name="Path 46074" d="M345.12,371.189h19.637a1.236,1.236,0,0,0,1.12-1.753l-2.143-4.59a1.221,1.221,0,0,0-1.12-.706H343.44a1.235,1.235,0,0,0-1.157,1.656l1.68,4.59a1.247,1.247,0,0,0,1.157.816Z" transform="translate(-15.475 -364.128)" fill="#9ab8de"/>
                <path id="Path_46075" data-name="Path 46075" d="M345.139,369.5l-1.851-4.59a1.234,1.234,0,0,0-1.144-.767H322.921a1.226,1.226,0,0,0-1.181,1.583l1.376,4.59a1.227,1.227,0,0,0,1.181.877h19.7a1.229,1.229,0,0,0,1.144-1.692Z" transform="translate(-19.938 -364.128)" fill="#9ab8de"/>
                <path id="Path_46076" data-name="Path 46076" d="M324.388,369.56l-1.546-4.59a1.232,1.232,0,0,0-1.169-.84H302.4a1.241,1.241,0,0,0-1.205,1.522l1.084,4.59a1.237,1.237,0,0,0,1.205.95h19.747a1.237,1.237,0,0,0,1.169-1.631Z" transform="translate(-24.4 -364.13)" fill="#9ab8de"/>
                <path id="Path_46077" data-name="Path 46077" d="M303.568,369.631l-1.254-4.59a1.228,1.228,0,0,0-1.193-.9H281.8a1.242,1.242,0,0,0-1.217,1.449l.791,4.59a1.229,1.229,0,0,0,1.217,1.023h19.784a1.24,1.24,0,0,0,1.193-1.558Z" transform="translate(-28.879 -364.128)" fill="#9ab8de"/>
                <path id="Path_46078" data-name="Path 46078" d="M282.759,369.606l-.925-4.419a1.327,1.327,0,0,0-1.291-1.047H261.356a1.325,1.325,0,0,0-1.315,1.461l.487,4.419a1.31,1.31,0,0,0,1.315,1.169h19.625a1.319,1.319,0,0,0,1.291-1.595Z" transform="translate(-33.344 -364.128)" fill="#9ab8de"/>
                <path id="Path_46079" data-name="Path 46079" d="M261.972,369.682l-.645-4.419a1.323,1.323,0,0,0-1.3-1.132h-19.2a1.309,1.309,0,0,0-1.315,1.376l.195,4.419a1.313,1.313,0,0,0,1.315,1.254h19.65a1.317,1.317,0,0,0,1.3-1.51Z" transform="translate(-37.807 -364.13)" fill="#9ab8de"/>
                <path id="Path_46080" data-name="Path 46080" d="M241.266,370l-.4-4.845a1.1,1.1,0,0,0-1.1-1.01H220.143a1.115,1.115,0,0,0-1.108,1.084l-.085,4.845a1.107,1.107,0,0,0,1.108,1.12H240.17a1.094,1.094,0,0,0,1.1-1.193Z" transform="translate(-42.277 -364.128)" fill="#9ab8de"/>
                <path id="Path_46081" data-name="Path 46081" d="M220.676,370.069l-.085-4.845a1.1,1.1,0,0,0-1.108-1.084H199.858a1.1,1.1,0,0,0-1.1,1.01l-.4,4.845a1.1,1.1,0,0,0,1.1,1.193h20.112a1.107,1.107,0,0,0,1.108-1.12Z" transform="translate(-46.755 -364.128)" fill="#9ab8de"/>
                <path id="Path_46082" data-name="Path 46082" d="M199.956,370.142l.219-4.845a1.108,1.108,0,0,0-1.108-1.157H179.454a1.112,1.112,0,0,0-1.1.95l-.706,4.845a1.1,1.1,0,0,0,1.1,1.266h20.1A1.119,1.119,0,0,0,199.956,370.142Z" transform="translate(-51.26 -364.128)" fill="#9ab8de"/>
                <path id="Path_46083" data-name="Path 46083" d="M179.159,370.2l.536-4.845a1.094,1.094,0,0,0-1.1-1.217H159.011a1.108,1.108,0,0,0-1.084.877l-1.023,4.845a1.1,1.1,0,0,0,1.084,1.327h20.088a1.106,1.106,0,0,0,1.1-.986Z" transform="translate(-55.774 -364.128)" fill="#9ab8de"/>
                <path id="Path_46084" data-name="Path 46084" d="M158.361,370.276l.84-4.845a1.1,1.1,0,0,0-1.083-1.29H138.553a1.082,1.082,0,0,0-1.059.816l-1.327,4.845a1.107,1.107,0,0,0,1.059,1.4H157.29a1.1,1.1,0,0,0,1.084-.913Z" transform="translate(-60.287 -364.128)" fill="#9ab8de"/>
                <path id="Path_46085" data-name="Path 46085" d="M137.505,370.361l1.157-4.894a1.077,1.077,0,0,0-1.047-1.327H118.038a1.075,1.075,0,0,0-1.023.73l-1.656,4.894a1.078,1.078,0,0,0,1.023,1.424h20.076a1.069,1.069,0,0,0,1.047-.828Z" transform="translate(-64.815 -364.128)" fill="#9ab8de"/>
                <path id="Path_46086" data-name="Path 46086" d="M116.716,370.422l1.473-4.894a1.075,1.075,0,0,0-1.035-1.388H97.614a1.068,1.068,0,0,0-1,.682l-1.972,4.894a1.082,1.082,0,0,0,1,1.485h20.027a1.085,1.085,0,0,0,1.035-.767Z" transform="translate(-69.325 -364.128)" fill="#9ab8de"/>
                <path id="Path_46087" data-name="Path 46087" d="M94.891,371.189H74.913a1.072,1.072,0,0,1-.974-1.534l2.277-4.894a1.088,1.088,0,0,1,.974-.621H96.681a1.07,1.07,0,0,1,1.01,1.449l-1.79,4.894a1.077,1.077,0,0,1-1.01.706Z" transform="translate(-73.833 -364.128)" fill="#9ab8de"/>
              </g>
              <g id="Group_3854" data-name="Group 3854" transform="translate(26.508 40.931)">
                <path id="Path_46088" data-name="Path 46088" d="M349.605,381.392h20.417a1.236,1.236,0,0,0,1.12-1.753l-2.252-4.833a1.221,1.221,0,0,0-1.12-.706H347.84a1.235,1.235,0,0,0-1.157,1.656l1.765,4.833a1.247,1.247,0,0,0,1.157.816Z" transform="translate(-8.504 -374.1)" fill="#9ab8de"/>
                <path id="Path_46089" data-name="Path 46089" d="M349.674,379.7l-1.948-4.833a1.234,1.234,0,0,0-1.144-.767H326.591a1.226,1.226,0,0,0-1.181,1.583l1.461,4.833a1.227,1.227,0,0,0,1.181.877h20.478a1.229,1.229,0,0,0,1.144-1.692Z" transform="translate(-13.125 -374.1)" fill="#9ab8de"/>
                <path id="Path_46090" data-name="Path 46090" d="M328.2,379.773l-1.631-4.833a1.232,1.232,0,0,0-1.169-.84H305.371a1.241,1.241,0,0,0-1.205,1.522l1.144,4.833a1.237,1.237,0,0,0,1.205.95h20.526a1.238,1.238,0,0,0,1.169-1.631Z" transform="translate(-17.74 -374.1)" fill="#9ab8de"/>
                <path id="Path_46091" data-name="Path 46091" d="M306.656,379.834,305.329,375a1.228,1.228,0,0,0-1.193-.9H284.06a1.242,1.242,0,0,0-1.217,1.449l.84,4.833A1.229,1.229,0,0,0,284.9,381.4h20.563a1.24,1.24,0,0,0,1.193-1.558Z" transform="translate(-22.373 -374.1)" fill="#9ab8de"/>
                <path id="Path_46092" data-name="Path 46092" d="M285.115,379.81l-.986-4.663a1.327,1.327,0,0,0-1.291-1.047H262.9a1.325,1.325,0,0,0-1.315,1.461l.511,4.663a1.31,1.31,0,0,0,1.315,1.169h20.4A1.319,1.319,0,0,0,285.1,379.8Z" transform="translate(-26.995 -374.1)" fill="#9ab8de"/>
                <path id="Path_46093" data-name="Path 46093" d="M177.054,375.232a1.322,1.322,0,0,1,1.3-1.132h97.177a1.312,1.312,0,0,1,1.3,1.132l.682,4.663a1.317,1.317,0,0,1-1.3,1.51h-98.54a1.317,1.317,0,0,1-1.3-1.51Z" transform="translate(-45.525 -374.1)" fill="#9ab8de"/>
                <path id="Path_46094" data-name="Path 46094" d="M177.9,380.431l.56-5.138a1.069,1.069,0,0,0-1.071-1.193H157a1.082,1.082,0,0,0-1.059.852l-1.084,5.138a1.076,1.076,0,0,0,1.059,1.3h20.916A1.08,1.08,0,0,0,177.9,380.431Z" transform="translate(-50.206 -374.1)" fill="#9ab8de"/>
                <path id="Path_46095" data-name="Path 46095" d="M156.374,380.5l.889-5.138A1.082,1.082,0,0,0,156.2,374.1H135.836a1.1,1.1,0,0,0-1.047.791l-1.412,5.138a1.084,1.084,0,0,0,1.047,1.364h20.891a1.072,1.072,0,0,0,1.059-.9Z" transform="translate(-54.879 -374.1)" fill="#9ab8de"/>
                <path id="Path_46096" data-name="Path 46096" d="M134.795,380.565l1.217-5.138a1.077,1.077,0,0,0-1.047-1.327H114.634a1.075,1.075,0,0,0-1.023.73l-1.741,5.138a1.078,1.078,0,0,0,1.023,1.424h20.855a1.069,1.069,0,0,0,1.047-.828Z" transform="translate(-59.56 -374.1)" fill="#9ab8de"/>
                <path id="Path_46097" data-name="Path 46097" d="M113.275,380.625l1.546-5.138a1.075,1.075,0,0,0-1.035-1.388H93.492a1.069,1.069,0,0,0-1,.682l-2.07,5.138a1.082,1.082,0,0,0,1,1.485h20.806a1.085,1.085,0,0,0,1.035-.767Z" transform="translate(-64.228 -374.1)" fill="#9ab8de"/>
                <path id="Path_46098" data-name="Path 46098" d="M90.73,381.392H69.973A1.072,1.072,0,0,1,69,379.858l2.4-5.138a1.088,1.088,0,0,1,.974-.621H92.617a1.07,1.07,0,0,1,1.01,1.449l-1.875,5.138a1.077,1.077,0,0,1-1.01.706Z" transform="translate(-68.893 -374.1)" fill="#9ab8de"/>
              </g>
            </g>
          </g>
        </g>
      </g>
    </g>
    <g id="OBJECTS-2" data-name="OBJECTS" transform="translate(1578.25 303.887)">
      <g id="Group_4003" data-name="Group 4003" transform="translate(0 0)">
        <g id="Group_3993" data-name="Group 3993" transform="translate(0)">
          <g id="Group_3960" data-name="Group 3960">
            <g id="Group_3920" data-name="Group 3920">
              <g id="Group_3900" data-name="Group 3900" transform="translate(97.584 245.725)">
                <g id="Group_3898" data-name="Group 3898" transform="translate(10.109 20.745)">
                  <rect id="Rectangle_3669" data-name="Rectangle 3669" width="102.159" height="9.499" transform="translate(11.704 94.643)" fill="#326894"/>
                  <g id="Group_3895" data-name="Group 3895" transform="translate(96.376 1.021)">
                    <path id="Path_46148" data-name="Path 46148" d="M119.14,323.4a6.315,6.315,0,0,0,.055.721l1.581,13.091,14.131,116.636a5.563,5.563,0,0,0,6.2,4.951,5.659,5.659,0,0,0,4.881-5.644,6.3,6.3,0,0,0-.055-.721l-13.95-115.222-1.747-14.491a5.562,5.562,0,0,0-11.094.679Z" transform="translate(-119.14 -317.726)" fill="#4d8ab3"/>
                    <path id="Path_46149" data-name="Path 46149" d="M129.25,323.4a6.311,6.311,0,0,0,.055.721l1.581,13.091h11.191l-1.747-14.491a5.555,5.555,0,0,0-11.08.679Z" transform="translate(-129.25 -317.726)" fill="#326894"/>
                  </g>
                  <g id="Group_3896" data-name="Group 3896" transform="translate(55.829)">
                    <path id="Path_46150" data-name="Path 46150" d="M159.74,322.7V453.414a5.615,5.615,0,0,0,5.547,5.7,5.46,5.46,0,0,0,3.924-1.678,5.748,5.748,0,0,0,1.622-4.035V322.689a5.624,5.624,0,0,0-5.547-5.7,5.413,5.413,0,0,0-3.924,1.678A5.823,5.823,0,0,0,159.74,322.7Z" transform="translate(-159.74 -316.99)" fill="#4d8ab3"/>
                    <path id="Path_46151" data-name="Path 46151" d="M161.342,318.674a5.713,5.713,0,0,0-1.622,4.035v14.782h11.108V322.709a5.624,5.624,0,0,0-5.547-5.7,5.356,5.356,0,0,0-3.938,1.664Z" transform="translate(-159.706 -316.982)" fill="#326894"/>
                  </g>
                  <g id="Group_3897" data-name="Group 3897" transform="translate(0 0.996)">
                    <path id="Path_46152" data-name="Path 46152" d="M188.65,453.137a5.641,5.641,0,0,0,4.867,5.658,5.582,5.582,0,0,0,6.2-4.951l14.131-116.636,1.581-13.091a6.307,6.307,0,0,0,.055-.721,5.67,5.67,0,0,0-4.881-5.644,5.59,5.59,0,0,0-6.2,4.951l-1.747,14.491-13.95,115.222a4.434,4.434,0,0,0-.055.721Z" transform="translate(-188.65 -317.708)" fill="#4d8ab3"/>
                    <path id="Path_46153" data-name="Path 46153" d="M188.66,337.208h11.191l1.581-13.09a6.308,6.308,0,0,0,.055-.721,5.67,5.67,0,0,0-4.881-5.644,5.589,5.589,0,0,0-6.2,4.951Z" transform="translate(-174.668 -317.708)" fill="#326894"/>
                  </g>
                </g>
                <g id="Group_3899" data-name="Group 3899" transform="translate(0)">
                  <path id="Path_46154" data-name="Path 46154" d="M122.75,313.748v3.7a11.712,11.712,0,0,0,11.718,11.718H239.358a11.712,11.712,0,0,0,11.718-11.718v-3.7a11.712,11.712,0,0,0-11.718-11.718H134.468A11.7,11.7,0,0,0,122.75,313.748Z" transform="translate(-122.75 -302.03)" fill="#994403"/>
                  <path id="Path_46155" data-name="Path 46155" d="M129.73,313.748v3.7a11.712,11.712,0,0,0,11.718,11.718h95.211a11.712,11.712,0,0,0,11.718-11.718v-3.7a11.712,11.712,0,0,0-11.718-11.718H141.448A11.7,11.7,0,0,0,129.73,313.748Z" transform="translate(-129.73 -302.03)" fill="#852e03"/>
                </g>
              </g>
              <g id="Group_3919" data-name="Group 3919">
                <path id="Path_46156" data-name="Path 46156" d="M206.452,145.717c1.317,2.69,2.649,5.394,3.827,7.987.8,4.632.333,9.374,0,14.075s-.527,9.485.79,14.02,4.382,8.806,8.9,10.539c2.94,1.123,6.448,1.206,8.722,3.342,2.579,2.427,2.4,6.5,1.456,9.86a15.321,15.321,0,0,1-4.271,7.571c-2.233,1.955-5.824,3.231-8.265,1.817-2.413-1.414-5.616-.388-7.363,1.747s-2.565,4.9-4.285,7.058c-2.441,3.078-6.531,4.673-10.539,4.77s-8.279-.471-10.955-2.136c-5.727-3.592-12.869-5.977-18.734-2.607-3.092,1.775-5.533,4.6-8.875,5.88a10.9,10.9,0,0,1-8.833-.541c-2.676-1.414-3.7-4.437-5.38-6.753-3.078-4.243-10.539-.818-15.7-2.219-5.519-1.512-9.235-7.571-7.946-12.993s7.294-7.35,12.647-8.154c3.675-.555,5.186-5.228,6.032-8.722a38.8,38.8,0,0,0,.541-10.761c-.319-7.336-3.661-24.448-1.539-26.75a35.513,35.513,0,0,1,6.781-4.937q10.442-4.763,20.884-9.541c6.337-2.9,12.98-5.852,19.982-5.658,6.989.153,17.1,2.884,22.118,13.1Z" transform="translate(0.667 -121.824)" fill="#732d02"/>
                <g id="Group_3902" data-name="Group 3902" transform="translate(131.1 72.081)">
                  <path id="Path_46157" data-name="Path 46157" d="M180.675,189.69s30.9,4.881,34.168,15.822-15.49,87.5-15.49,87.5l-69.419-4.243s-5.048-88.25,5.991-93.783S180.675,189.69,180.675,189.69Z" transform="translate(-128.784 -171.83)" fill="#ebf5ff"/>
                  <g id="Group_3901" data-name="Group 3901" transform="translate(24.948)">
                    <path id="Path_46158" data-name="Path 46158" d="M145.19,197.708s4.507,15.351,12.688,18.707S183.935,199.3,183.935,199.3c-3.605-2.288-4.964-7.793-5.408-12.813a55.837,55.837,0,0,1,.055-9.679l-24.822,4.77c.638,7.682-1.622,11.718-3.994,13.839A9.064,9.064,0,0,1,145.19,197.708Z" transform="translate(-145.19 -176.81)" fill="#fbbd9a"/>
                    <path id="Path_46159" data-name="Path 46159" d="M149.05,195.43c11.787,1.553,22.465-4.354,28.76-8.93a55.837,55.837,0,0,1,.055-9.679l-24.822,4.77C153.7,189.259,151.421,193.308,149.05,195.43Z" transform="translate(-144.474 -176.806)" fill="#f0997f"/>
                  </g>
                </g>
                <g id="Group_3909" data-name="Group 3909" transform="translate(49.081 181.187)">
                  <g id="Group_3904" data-name="Group 3904" transform="translate(0 14.38)">
                    <g id="Group_3903" data-name="Group 3903" transform="translate(39.314 137.894)">
                      <path id="Path_46160" data-name="Path 46160" d="M186.605,412.652c2.676,4.451,49.131-24.184,49.131-29.121,0-3.217-6.06-7.876-10.275-10.705-2.26-1.525-3.98-2.538-3.98-2.538l-10.844-4.978-4.881,2.621c-7.114,12.258-13.909,25.03-17.306,33.919-2.025,5.242-2.843,9.152-1.844,10.8Z" transform="translate(-186.18 -365.296)" fill="#d43226"/>
                      <path id="Path_46161" data-name="Path 46161" d="M193.6,401.84c13.312.555,30.91-20.981,37.011-29.024-2.26-1.525-3.98-2.538-3.98-2.538L215.787,365.3l-4.881,2.621C203.778,380.179,197,392.951,193.6,401.84Z" transform="translate(-191.344 -365.3)" fill="#f0997f"/>
                    </g>
                    <path id="Path_46162" data-name="Path 46162" d="M255.349,265.86s-84.561,10.705-87.432,32.352,53.042,117.163,53.042,117.163l20.107-5.242L214.829,324.74l67.325-28.566L268.744,265.86h-13.4Z" transform="translate(-167.81 -265.86)" fill="#002a42"/>
                  </g>
                  <g id="Group_3908" data-name="Group 3908" transform="translate(23.125)">
                    <g id="Group_3905" data-name="Group 3905" transform="translate(36.74 154.743)">
                      <path id="Path_46163" data-name="Path 46163" d="M171.785,414.432c2.676,4.451,49.131-24.184,49.131-29.121,0-3.217-6.06-7.876-10.276-10.705-2.26-1.525-3.98-2.538-3.98-2.538l-10.844-4.978-4.881,2.621c-7.114,12.258-13.909,25.03-17.306,33.919-2.025,5.242-2.843,9.152-1.844,10.8Z" transform="translate(-171.36 -367.076)" fill="#eb4a2a"/>
                      <path id="Path_46164" data-name="Path 46164" d="M178.78,403.62c13.312.555,30.91-20.981,37.011-29.024-2.26-1.525-3.98-2.538-3.98-2.538l-10.844-4.978-4.881,2.621c-7.128,12.258-13.909,25.03-17.306,33.919Z" transform="translate(-176.524 -367.08)" fill="#fbbd9a"/>
                    </g>
                    <g id="Group_3907" data-name="Group 3907" transform="translate(0)">
                      <path id="Path_46165" data-name="Path 46165" d="M265.462,262.618s29.3,57.937-22.257,64.191c-37.455,4.548-62.277,3.633-63.054,5.713-1.276,3.342,24.364,84.242,24.364,84.242l-25.252,7.987S127,312.5,129.842,302.721c2.344-8.043,74.466-20.315,74.466-20.315-6.074-2.884-10.539-13.382-9.887-26.916l71.041,7.128Z" transform="translate(-129.73 -255.49)" fill="#06384f"/>
                      <g id="Group_3906" data-name="Group 3906" transform="translate(40.627 2.108)">
                        <path id="Path_46166" data-name="Path 46166" d="M222.367,257.01s16.807,36.983,3.356,51.988c-15.85,17.681-85.172,11.981-90,18.235-3.869,5.006,26.777,86.78,26.777,86.78" transform="translate(-135.388 -257.01)" fill="none" stroke="#27788f" stroke-linecap="round" stroke-miterlimit="10" stroke-width="1"/>
                        <line id="Line_288" data-name="Line 288" x1="24.434" y2="7.447" transform="translate(7.687 155.769)" fill="none" stroke="#27788f" stroke-linecap="round" stroke-miterlimit="10" stroke-width="1"/>
                      </g>
                    </g>
                  </g>
                </g>
                <g id="Group_3913" data-name="Group 3913" transform="translate(132.463)">
                  <path id="Path_46167" data-name="Path 46167" d="M186.237,157.617c-5.963-.679-11.191,2.3-11.676,6.656s3.938,8.431,9.9,9.111,11.191-2.3,11.676-6.656S192.2,158.3,186.237,157.617Z" transform="translate(-174.522 -112.188)" fill="#f0997f"/>
                  <g id="Group_3910" data-name="Group 3910" transform="translate(7.136 7.849)">
                    <path id="Path_46168" data-name="Path 46168" d="M201.524,167.723c0-20.565-13.063-37.233-30.6-37.233s-31.769,16.668-31.769,37.233,8.972,38.259,25.488,38.9C181.278,207.258,201.524,188.274,201.524,167.723Z" transform="translate(-137.955 -130.49)" fill="#fbbd9a"/>
                    <path id="Path_46169" data-name="Path 46169" d="M202.243,171.469c-8.819-4.091-16.086-11.413-19.345-20.357-4.562,5.145-11.218,8.057-17.972,9.319s-13.687,1.026-20.177.846a12.2,12.2,0,0,0-4.077,7.031,41.4,41.4,0,0,1,1.9-18.207q26.209-7.987,52.1-16.959c2.579,12.3,5.159,24.6,7.571,38.329Z" transform="translate(-140.38 -129.465)" fill="#f0997f"/>
                  </g>
                  <g id="Group_3911" data-name="Group 3911" transform="translate(3.879)">
                    <path id="Path_46170" data-name="Path 46170" d="M198.461,144.91C194.7,152,187.436,156.71,179.8,159.151s-15.767,2.829-23.893,3.065a53.867,53.867,0,0,0-1.539,14.269c-2.8-6.49-4.243-12.023-4.507-17.4-.069-1.553-.069-3.134-.028-4.8.4-11.316,5.089-17.75,11.371-22.576s14.02-6.878,21.952-6.878,12.813,1.775,15.795,4.867a11.962,11.962,0,0,1,2.441,3.744c1.276,3-.153,6.254-2.926,11.468Z" transform="translate(-149.8 -124.83)" fill="#8c4206"/>
                    <path id="Path_46171" data-name="Path 46171" d="M163.91,175.469c.263-10.054.9-27.263-3.148-35.486-2.649-5.38-7.655-9.859-13.6-10.664s-12.522,2.884-13.895,8.722a70,70,0,0,0,19.026,35.625C155.618,175.275,160.527,176.343,163.91,175.469Z" transform="translate(-89.125 -123.135)" fill="#8c4206"/>
                    <path id="Path_46172" data-name="Path 46172" d="M201.049,129.707a39.822,39.822,0,0,0-33.863,6.823,43.688,43.688,0,0,0-15.24,22.562c-.069-1.553-.069-3.134-.028-4.8.4-11.316,5.089-17.75,11.371-22.576s14.02-6.878,21.952-6.878,12.827,1.775,15.808,4.867Z" transform="translate(-151.89 -124.826)" fill="#a66317"/>
                  </g>
                  <path id="Path_46173" data-name="Path 46173" d="M151.827,164.32c-1.082-4.243-6.67-6.476-12.48-4.992s-9.638,6.129-8.556,10.373,6.67,6.476,12.48,4.992S152.909,168.563,151.827,164.32Z" transform="translate(-69.46 -111.667)" fill="#fbbd9a"/>
                  <g id="Group_3912" data-name="Group 3912" transform="translate(11.16 41.995)">
                    <ellipse id="Ellipse_546" data-name="Ellipse 546" cx="1.65" cy="2.635" rx="1.65" ry="2.635" transform="translate(26.112 10.714)" fill="#2f344d"/>
                    <ellipse id="Ellipse_547" data-name="Ellipse 547" cx="1.65" cy="2.635" rx="1.65" ry="2.635" transform="translate(3.162 10.728)" fill="#2f344d"/>
                    <path id="Path_46174" data-name="Path 46174" d="M184.778,156.045a11.534,11.534,0,0,0-9.638,1.165" transform="translate(-175.14 -154.969)" fill="none" stroke="#8c4206" stroke-linecap="round" stroke-miterlimit="10" stroke-width="2"/>
                    <path id="Path_46175" data-name="Path 46175" d="M154.84,155.9c3.092-1.373,8.764-1.082,11.44,1.969" transform="translate(-128.493 -155.114)" fill="none" stroke="#8c4206" stroke-linecap="round" stroke-miterlimit="10" stroke-width="2"/>
                    <path id="Path_46176" data-name="Path 46176" d="M170.38,163.59a14.508,14.508,0,0,0,.707,8.473" transform="translate(-154.363 -151.836)" fill="none" stroke="#d45e4e" stroke-linecap="round" stroke-miterlimit="10" stroke-width="2"/>
                    <path id="Path_46177" data-name="Path 46177" d="M160.39,176.814c3.661.721,10.289-1.373,12.092-4.424" transform="translate(-142.391 -148.433)" fill="none" stroke="#d45e4e" stroke-linecap="round" stroke-miterlimit="10" stroke-width="2"/>
                  </g>
                </g>
                <g id="Group_3916" data-name="Group 3916" transform="translate(0 90.733)">
                  <g id="Group_3915" data-name="Group 3915" transform="translate(0 1.566)">
                    <path id="Path_46178" data-name="Path 46178" d="M288.711,200.7l-12.383-7.474s-10.442.887-17.514,13.881c-7.031,12.924-20.274,54.706-24.448,56.55s-55.052,2.5-55.052,2.5l-.693,14.907s62.319,9.887,69.751,5.8,31.492-52.279,31.492-52.279Z" transform="translate(-140.276 -190.678)" fill="#fbbd9a"/>
                    <path id="Path_46179" data-name="Path 46179" d="M213.833,199.738l-2.385-8.348s-13.673.582-20.662,6.06-12.716,20.371-12.716,20.371l17.778,28.7,17.986-46.788Z" transform="translate(-64.636 -191.39)" fill="#de3b26"/>
                    <path id="Path_46180" data-name="Path 46180" d="M225.553,244.7s-19.095-16.488-22.035-20.606c-1.456-2.038-11.787,21.965-10.04,24.905,2.787,4.687,20.19,15.947,21.161,15.3S225.553,244.7,225.553,244.7Z" transform="translate(-97.448 -178.79)" fill="#163649"/>
                    <path id="Path_46181" data-name="Path 46181" d="M214.939,236.206q-8.632-13.708-17.251-27.4a4.359,4.359,0,0,0-1.151-1.359c-1.428-.957-3.508.222-4.091,1.83s-.166,3.411.277,5.075c-1.844-.291-3.508,1.512-3.73,3.356a9.226,9.226,0,0,0,1.442,5.325,49.7,49.7,0,0,0,24.794,22.534c.485-3.134,1.442-6.615-.291-9.36Z" transform="translate(-81.828 -185.314)" fill="#b82621"/>
                    <g id="Group_3914" data-name="Group 3914" transform="translate(0 62.04)">
                      <path id="Path_46182" data-name="Path 46182" d="M298.74,251.9c-7.128-5.006-20.911-14.935-21.952-15.406-1.22-.555-9.6-.6-14.158.777s-8.806,4.521-10.456,9.014c-.458,1.262-.582,2.94.527,3.675a2.37,2.37,0,0,0,2.468-.125,9.275,9.275,0,0,0,1.9-1.789c3.051-3.314,5.81-4.618,10.816-4.9-5.935.9-9.707,4.562-11.482,10.331-.347,1.151-.485,2.607.444,3.356a2.323,2.323,0,0,0,2.635-.083,9.062,9.062,0,0,0,1.928-2.052,20.216,20.216,0,0,1,8.348-6.254A14.8,14.8,0,0,0,261.1,259.7a4.027,4.027,0,0,0,.125,2.149,1.665,1.665,0,0,0,1.692,1.082,2.527,2.527,0,0,0,1.331-.957c2.468-2.787,4.41-5.755,7.7-7.752-3,3.994-5.519,10.484-4.9,12.175.194.513,1.47,1.4,2.9-.014,1.622-1.622,2.76-4.4,5.283-7.488a18.6,18.6,0,0,0,17.57,5.63c2.038-4.271,4.035-8.556,5.935-12.633Z" transform="translate(-251.84 -236.129)" fill="#fbbd9a"/>
                      <path id="Path_46183" data-name="Path 46183" d="M280.641,244.284a145.661,145.661,0,0,0-15.462-4.618,6.143,6.143,0,0,0-2.122-.25,2.178,2.178,0,0,0-1.733,1.1,2.106,2.106,0,0,0,.319,2.08,5.588,5.588,0,0,0,1.692,1.414,71.308,71.308,0,0,0,7.017,3.716,10.228,10.228,0,0,0,6.767,8.209" transform="translate(-246.68 -234.867)" fill="#fbbd9a" stroke="#d45e4e" stroke-linecap="round" stroke-miterlimit="10" stroke-width="1"/>
                    </g>
                  </g>
                  <path id="Path_46184" data-name="Path 46184" d="M217.149,190.482c-2.968,2.579-4.9,17.112-6.42,26.347-2.288,13.839-13.936,74.009-14.63,78.266-1.234,7.516-25.03,7-25.987,3.078-.18-.721,6.947-4.035,8.085-8.833,1.012-4.3,8.917-88.07,12.73-92.48,5.034-5.824,27.179-7.211,26.223-6.379Z" transform="translate(-56.941 -190.261)" fill="#eb4a2a"/>
                </g>
                <g id="Group_3918" data-name="Group 3918" transform="translate(108.114 90.949)">
                  <path id="Path_46185" data-name="Path 46185" d="M143.515,190.421c-2.482.887-10.276,17.445-13.978,32.6-7.738,31.659-3.134,78.668,0,84.88s33.5,8.944,38.661,7.294c3-.957,6.254-95.724,4.188-107.622C171,199.643,144.264,190.158,143.515,190.421Z" transform="translate(-58.764 -190.416)" fill="#eb4a2a"/>
                  <path id="Path_46186" data-name="Path 46186" d="M217.573,268.7c-6.407-2.344-24.947-7.225-27.512-6.961s-5.256,1.193-6.878,3.356a14.665,14.665,0,0,0-2.038,4.853l-2.371,8.32a7.341,7.341,0,0,0-.416,2.981,2.259,2.259,0,0,0,1.775,2.066c1.331.111,2.163-1.484,2.649-2.829,1.248-3.453,2.5-6.906,3.73-10.289-.818,4.257-1.622,8.528-2.441,12.785a7.335,7.335,0,0,0-.153,3.051,2.272,2.272,0,0,0,1.969,1.914c1.414-.028,2.094-1.844,2.413-3.342a92.077,92.077,0,0,1,2.524-9.97,28.456,28.456,0,0,0-.61,14.63,4.315,4.315,0,0,0,.887,2.038,1.4,1.4,0,0,0,1.914.222,2.452,2.452,0,0,0,.541-1.581c.43-4.3.86-8.611,1.29-12.91-.416,4.535-.818,9.208.458,13.548a4.433,4.433,0,0,0,1.1,2.08,1.594,1.594,0,0,0,2.066.194,2.875,2.875,0,0,0,.666-2.136c.1-2.7.194-5.408.208-8.57a15.286,15.286,0,0,0,9.166,5.186c3.481.541,7.128-.263,10.553-1.359-.305-5.034-.6-10.081-1.484-17.278Z" transform="translate(-178.32 -162.837)" fill="#fbbd9a"/>
                  <path id="Path_46187" data-name="Path 46187" d="M173.313,216.662c1.941-8.972,9.984-23.519,16.543-20.509,3.758,1.733,14.588,5.353,14.588,29.079,0,32.075-4.216,74.217-14.588,81.275-5.269,3.592-62.9,7.114-62.9,7.114l-4.216-20.648s42.475-7.876,44.43-13.7C169.93,271.048,168.155,240.527,173.313,216.662Z" transform="translate(-86.635 -188.354)" fill="#eb4a2a"/>
                  <g id="Group_3917" data-name="Group 3917" transform="translate(71.383 23.385)">
                    <path id="Path_46188" data-name="Path 46188" d="M161.885,207.28c-7.128,24.1-8.625,65.106-9.679,67.574-.957,2.246-6.379,3.189-10.636,4.645" transform="translate(-141.57 -207.28)" fill="none" stroke="#b82621" stroke-linecap="round" stroke-miterlimit="10" stroke-width="1"/>
                    <path id="Path_46189" data-name="Path 46189" d="M127.35,284.337c7.9-.79,17.722-2.33,19.913-3.966,2.579-1.928,5.727-11.357,7.946-17.791" transform="translate(-115.175 -185.895)" fill="none" stroke="#b82621" stroke-linecap="round" stroke-miterlimit="10" stroke-width="1"/>
                    <path id="Path_46190" data-name="Path 46190" d="M150.853,240.678c-2.843-3.564-4.008-9.471-4.243-16.668" transform="translate(-137.527 -200.81)" fill="none" stroke="#b82621" stroke-linecap="round" stroke-miterlimit="10" stroke-width="1"/>
                  </g>
                </g>
              </g>
            </g>
          </g>
        </g>
      </g>
    </g>
  </g>
</svg>
