<?xml version="1.0" encoding="UTF-8"?><svg id="Layer_2" xmlns="http://www.w3.org/2000/svg" viewBox="0 0 48 48"><defs><style>.cls-1{fill:none;}.cls-2{fill:#b3b3b3;}</style></defs><g id="Layer_1-2"><g><rect class="cls-1" width="48" height="48"/><path class="cls-2" d="M35.18,34.21c-1.58-.93-3.16-1.85-4.77-2.74-.41-.22-.88-.4-1.34-.44-1.51-.16-2.61,.51-3.36,1.81-.72,1.25-2.04,1.51-3.18,.62-.73-.57-1.45-1.14-2.15-1.75-2.18-1.89-4.15-3.99-5.89-6.3-.83-1.09-.56-2.4,.62-3.1,.13-.08,.26-.15,.38-.23,1.44-.94,1.97-2.79,1.14-4.3-.96-1.76-1.97-3.5-3.01-5.22-.79-1.3-2.39-1.85-3.81-1.32-1.26,.47-2.48,1.02-3.71,1.56-1.41,.63-2.25,1.75-2.67,3.21-.13,.45-.21,.92-.31,1.38v1.71c.04,.24,.09,.48,.13,.71,.37,2.42,1.3,4.64,2.48,6.77,2.4,4.33,5.6,8,9.33,11.22,2.82,2.44,5.88,4.51,9.37,5.9,2.09,.83,4.24,1.4,6.51,1.09,1.93-.26,3.47-1.14,4.31-2.99,.49-1.09,.95-2.19,1.4-3.3,.7-1.74,.15-3.36-1.46-4.3Zm-.89,3.13c-.53,1.26-1.05,2.53-1.64,3.77-.29,.6-.91,.84-1.52,1-1.33,.35-2.65,.13-3.94-.22-2.88-.8-5.44-2.25-7.83-4-4.61-3.38-8.47-7.47-11.3-12.47-1.02-1.8-1.84-3.69-2.19-5.75-.08-.45-.11-.92-.17-1.45,.06-.41,.1-.9,.22-1.38,.2-.79,.63-1.4,1.41-1.73,1.08-.45,2.15-.92,3.23-1.36,.43-.18,.73-.06,.96,.34,.92,1.58,1.84,3.17,2.75,4.76,.28,.49,.17,.85-.36,1.15-1.26,.7-2.08,1.73-2.38,3.14-.29,1.36-.02,2.63,.82,3.74,2.52,3.34,5.44,6.28,8.79,8.79,2.2,1.65,5.26,1.04,6.71-1.29,.06-.1,.12-.21,.19-.32,.3-.5,.64-.59,1.16-.29,1.55,.89,3.1,1.79,4.66,2.69,.06,.03,.12,.07,.17,.11,.27,.2,.4,.47,.27,.78Zm10.34-20.04c-1.05-6.74-6.42-12.37-13.09-13.77-.85-.18-1.71-.27-2.57-.41h-2.28c-.57,.08-1.15,.15-1.72,.25-3.51,.63-6.54,2.19-9.07,4.71-.42,.41-.51,1-.27,1.5,.41,.83,1.49,.95,2.23,.24,4.42-4.24,10.61-5.27,16.14-2.73,5.98,2.75,9.37,9.55,7.97,15.95-.6,2.74-1.86,5.11-3.8,7.13-.21,.22-.39,.53-.46,.83-.12,.59,.2,1.13,.72,1.37,.52,.24,1.11,.12,1.56-.35,3.95-4.16,5.52-9.08,4.64-14.74Zm-20.03,1.62c-.76,.64-1.53,1.26-2.3,1.89-1.15,.95-2.22,1.96-2.92,3.31-.54,1.05,.05,2.02,1.22,2.02,2.07,0,4.13,0,6.2,0,.84,0,1.42-.53,1.43-1.29,0-.76-.59-1.32-1.45-1.32-1.05,0-2.09,0-3.14,0-.13,0-.26-.01-.52-.02,.73-.59,1.39-1.08,2.01-1.62,.64-.56,1.33-1.1,1.86-1.75,1.7-2.1,.91-5.32-1.53-6.45-.78-.36-1.6-.48-2.46-.43-2.34,.15-3.97,1.99-3.81,4.31,.05,.72,.52,1.24,1.17,1.31,.8,.08,1.45-.52,1.44-1.34,0-.46,0-.9,.36-1.25,.5-.49,1.51-.57,2.26-.2,.64,.31,.89,.85,.82,1.66-.04,.5-.28,.88-.64,1.18Zm12.01-4.2c0-.74-.3-1.21-.88-1.41-.56-.2-1.08-.03-1.54,.53-2,2.42-3.99,4.85-5.99,7.27-.39,.47-.56,.97-.29,1.54,.27,.58,.77,.76,1.38,.75,.68-.01,1.36,0,2.04,0h2.61c.04,.09,.05,.11,.05,.14,0,.41-.01,.82,.02,1.22,.02,.25,.06,.52,.18,.74,.27,.51,.88,.75,1.43,.62,.56-.14,.96-.62,.99-1.25,.02-.47,0-.94,0-1.41,1.11-.25,1.54-.6,1.53-1.32,0-.27-.1-.56-.24-.8-.27-.46-.77-.55-1.29-.58v-.49c0-1.85,0-3.7,0-5.54Zm-2.65,6.03h-2.08c.7-.85,1.36-1.66,2.08-2.54v2.54Z"/></g></g></svg>