<?xml version="1.0" encoding="UTF-8"?><svg id="Layer_2" xmlns="http://www.w3.org/2000/svg" viewBox="0 0 40 40"><defs><style>.cls-1{fill:#0091ff;}.cls-2{stroke:#0091ff;stroke-miterlimit:10;stroke-width:.51px;}.cls-2,.cls-3{fill:none;}</style></defs><g id="Layer_1-2"><g><rect class="cls-3" width="40" height="40"/><g><g><path class="cls-1" d="M31.27,13.69c-.29-.04-.44-.15-.58-.4-2.63-4.72-8.14-7.24-13.38-5.95-4.87,1.2-7.96,4.32-9.25,9.19-.05,.2-.08,.34-.34,.37-3.44,.38-6.2,2.73-7.08,6.06-.11,.43-.18,.87-.27,1.3v1.53c.02,.11,.05,.22,.07,.33,.56,3.37,2.45,5.62,5.69,6.72,.25,.09,.52,.15,.78,.17,.39,.03,.72-.26,.8-.63,.08-.35-.11-.74-.44-.89-.15-.07-.31-.1-.47-.15-3.17-.88-5.11-3.81-4.74-7.17,.34-3.05,3.09-5.54,6.25-5.66,.93-.04,1.09-.17,1.25-1.09,1.25-7.11,9.29-10.94,15.59-7.41,1.94,1.09,3.42,2.62,4.39,4.62,.19,.4,.47,.62,.91,.64,.28,.02,.56,.06,.84,.1,3.12,.51,5.78,2.95,6.47,6.1,.74,3.36-.24,6.19-2.92,8.37-.6,.48-1.33,.8-2.01,1.16-.45,.24-.65,.64-.48,1.06,.18,.45,.61,.63,1.11,.45,.06-.02,.12-.05,.18-.07,3.47-1.57,5.51-4.23,5.95-8.03,.59-5.21-3.12-9.97-8.3-10.71Z"/><path class="cls-2" d="M31.27,13.69c-.29-.04-.44-.15-.58-.4-2.63-4.72-8.14-7.24-13.38-5.95-4.87,1.2-7.96,4.32-9.25,9.19-.05,.2-.08,.34-.34,.37-3.44,.38-6.2,2.73-7.08,6.06-.11,.43-.18,.87-.27,1.3v1.53c.02,.11,.05,.22,.07,.33,.56,3.37,2.45,5.62,5.69,6.72,.25,.09,.52,.15,.78,.17,.39,.03,.72-.26,.8-.63,.08-.35-.11-.74-.44-.89-.15-.07-.31-.1-.47-.15-3.17-.88-5.11-3.81-4.74-7.17,.34-3.05,3.09-5.54,6.25-5.66,.93-.04,1.09-.17,1.25-1.09,1.25-7.11,9.29-10.94,15.59-7.41,1.94,1.09,3.42,2.62,4.39,4.62,.19,.4,.47,.62,.91,.64,.28,.02,.56,.06,.84,.1,3.12,.51,5.78,2.95,6.47,6.1,.74,3.36-.24,6.19-2.92,8.37-.6,.48-1.33,.8-2.01,1.16-.45,.24-.65,.64-.48,1.06,.18,.45,.61,.63,1.11,.45,.06-.02,.12-.05,.18-.07,3.47-1.57,5.51-4.23,5.95-8.03,.59-5.21-3.12-9.97-8.3-10.71Z"/></g><g><path class="cls-1" d="M13.38,23.38c-1.08-.26-1.7-.26-2-.26-1.58-.1-3.03,.74-3.03,2.56,0,2,1.79,2.43,2.48,2.4,1.03,0,2.02-.46,2.68-1.26,.52,1.17,.85,1.09,.86,1.09,.09,0,.17-.04,.25-.09l.54-.38c.1-.06,.17-.15,.18-.27,0-.28-.5-.7-.46-1.66v-2.96c.06-.82-.21-1.61-.76-2.23-.65-.55-1.52-.82-2.36-.74-1.29,0-2.6,.5-2.82,.78-.06,.11-.19,1.03,.12,1.03,.1,0,.15,.02,.46-.12,1.14-.45,1.86-.44,1.96-.44,1.28-.12,2.02,.75,1.91,1.88v.66Zm-.1,2.21c-.13,.46-.72,1.28-2.11,1.3-.8,.04-1.32-.59-1.27-1.3-.05-1.14,1.13-1.42,1.78-1.37,.68,0,1.27,.11,1.68,.21,0,.47,.02,.74-.09,1.17Z"/><path class="cls-1" d="M27.38,27.59c1,.5,2.19,.52,2.45,.52,.04,0,2.22,0,2.95-1.47,.15-.3,.54-1.41-.19-2.36-.61-.71-1.13-.79-2.69-1.26-.13-.04-1.28-.33-1.27-1.14-.06-1.03,1.35-1.09,1.64-1.07,1.19-.02,1.77,.43,2.1,.45,.14,0,.21-.08,.21-.27v-.44c0-.1-.03-.21-.09-.29-.38-.49-1.83-.67-2.36-.67-1.9,0-2.99,1.19-2.96,2.39,0,1.65,1.67,2.17,1.86,2.23,1.6,.5,1.82,.52,2.27,.9,.38,.39,.33,1.15-.23,1.48-.16,.09-.85,.51-2.42,.19-.52-.1-.8-.23-1.22-.41-.11-.04-.38-.1-.38,.25v.47c0,.22,.13,.42,.33,.51Z"/><path class="cls-1" d="M17.78,27.43c.05,.23,.2,.48,.53,.44h.78c.47,.05,.54-.41,.55-.46l1.4-5.84,1.41,5.85s.08,.5,.54,.46h.79c.34,.04,.5-.21,.55-.44,2.39-7.7,2.23-7.17,2.25-7.25,.04-.4-.19-.37-.23-.36h-.84c-.43-.05-.51,.34-.53,.44l-1.58,6.08-1.42-6.08c-.07-.46-.45-.45-.54-.44h-.73c-.42-.04-.52,.3-.55,.44l-1.41,6-1.52-6c-.04-.19-.16-.48-.53-.45h-.96c-.1,.02-.18,.12-.16,.23,.02,.12,.04,.25,.09,.37l2.13,7.01Z"/></g></g></g></g></svg>