<?xml version="1.0" encoding="UTF-8"?><svg id="Layer_2" xmlns="http://www.w3.org/2000/svg" viewBox="0 0 48 48"><defs><style>.cls-1{fill:none;}.cls-2{fill:#b3b3b3;}</style></defs><g id="Layer_1-2"><g><rect class="cls-1" width="48" height="48"/><path class="cls-2" d="M44.97,35.45c-.87,.05-1.74,.02-2.61,0-.78-.01-1-.19-1.24-.92-.27-.83-.53-1.66-.8-2.48-.22-.66-.55-.96-1.1-.96-.55,0-.9,.29-1.11,.94-.27,.81-.53,1.63-.79,2.44-.26,.81-.48,.97-1.33,.98-.93,0-1.86,0-2.78,0-.68,0-1.04,.24-1.22,.79-.17,.54-.01,.98,.51,1.37,.76,.55,1.53,1.1,2.29,1.66,.57,.42,.69,.81,.46,1.49-.29,.86-.6,1.72-.89,2.59-.22,.63-.12,1.06,.31,1.38,.43,.33,.95,.31,1.46-.06,.77-.55,1.53-1.1,2.29-1.65,.58-.42,.98-.42,1.56,0,.78,.56,1.55,1.12,2.33,1.68,.49,.35,1.01,.35,1.43,.03,.41-.32,.53-.76,.32-1.34-.3-.89-.62-1.78-.92-2.67-.21-.63-.09-1.03,.44-1.42,.69-.51,1.4-.99,2.08-1.51,.31-.24,.55-.55,.83-.83v-.69c-.31-.65-.82-.86-1.53-.82ZM10.71,28.07c.7-.01,1.13-.42,1.53-.96,3.57-4.85,8.39-6.98,14.35-6.23,4.3,.54,7.68,2.75,10.18,6.3,.64,.91,1.66,1.14,2.49,.55,.81-.57,.95-1.6,.33-2.5-2-2.89-4.61-5.04-7.83-6.45-.34-.15-.68-.28-1.03-.43,4.64-3.83,4.58-10.72,.45-14.57-3.83-3.57-9.77-3.47-13.47,.22-3.9,3.89-3.86,10.47,.66,14.32-1.8,.64-3.43,1.52-4.92,2.64-1.63,1.23-3.02,2.7-4.17,4.39-.39,.58-.45,1.2-.11,1.82,.33,.6,.86,.9,1.55,.89Zm7.58-17.24c0-3.44,2.81-6.23,6.26-6.23,3.46,0,6.27,2.81,6.26,6.27,0,3.44-2.81,6.23-6.26,6.23-3.46,0-6.26-2.81-6.26-6.28Zm12.22,18.63c-.96,0-1.91,.01-2.87,0-.71-.01-.94-.2-1.16-.85-.28-.87-.56-1.74-.85-2.6-.21-.63-.55-.91-1.09-.91-.54,0-.88,.28-1.09,.91-.29,.88-.59,1.76-.85,2.64-.16,.53-.49,.79-1.02,.8-.54,.01-1.08,0-1.63,0h0c-.49,.01-.97,0-1.46,.01-.64,0-1,.25-1.17,.79-.17,.52-.01,.97,.49,1.34,.73,.53,1.46,1.05,2.19,1.58,.74,.53,.84,.86,.55,1.71-.28,.82-.57,1.64-.85,2.47-.21,.63-.12,1.06,.31,1.38,.43,.32,.95,.31,1.46-.06,.77-.55,1.53-1.1,2.29-1.65,.58-.42,.98-.42,1.56,0,.78,.56,1.55,1.12,2.33,1.68,.49,.35,1.01,.35,1.43,.03,.42-.32,.53-.76,.33-1.34-.3-.86-.6-1.72-.9-2.58-.25-.72-.13-1.11,.49-1.55,.74-.54,1.48-1.07,2.22-1.6,.55-.4,.73-.84,.55-1.39-.18-.56-.54-.79-1.26-.79Zm-14.68,6c-.94,0-1.88,.01-2.83,0-.74-.01-.97-.19-1.19-.87-.28-.85-.55-1.71-.83-2.56-.21-.63-.54-.92-1.08-.93-.55,0-.91,.28-1.12,.93-.29,.88-.59,1.76-.85,2.64-.15,.51-.48,.76-.99,.78-.56,.01-1.11,0-1.67,0h0c-.47,.01-.94,.01-1.41,.02-.65,0-1.01,.24-1.19,.77-.18,.54-.02,.99,.5,1.37,.75,.55,1.51,1.08,2.26,1.63,.64,.46,.75,.84,.49,1.59-.3,.88-.64,1.74-.89,2.63-.09,.3-.06,.7,.07,.97,.29,.59,1.05,.71,1.63,.31,.8-.56,1.58-1.13,2.36-1.7,.6-.43,.99-.44,1.6,0,.77,.55,1.53,1.11,2.29,1.65,.5,.36,1,.37,1.43,.06,.44-.32,.55-.76,.34-1.37-.29-.85-.59-1.7-.88-2.54-.26-.75-.14-1.13,.49-1.59,.73-.53,1.46-1.05,2.19-1.58,.58-.42,.75-.86,.56-1.42-.19-.55-.55-.77-1.27-.77Z"/></g></g></svg>