<?xml version="1.0" encoding="UTF-8"?><svg id="Layer_2" xmlns="http://www.w3.org/2000/svg" viewBox="0 0 40 40"><defs><style>.cls-1{fill:#b3b3b3;stroke:#b3b3b3;stroke-miterlimit:10;}.cls-2{fill:none;}</style></defs><g id="Layer_1-2"><g><rect class="cls-2" width="40" height="40"/><path class="cls-1" d="M24.07,14.37c.19,0,.36,0,.54,0,2.29,0,4.58-.03,6.87,.02,4.04,.09,7.23,3.31,7.3,7.35,.04,2.63,.04,5.27,0,7.9-.09,5.11-4.21,9.19-9.31,9.2-8.77,.03-17.54,0-26.31,0-1.18,0-1.96-.78-1.96-1.97,0-6.84,0-13.69,0-20.53,0-1.22,.76-1.97,1.99-1.98,2.35-.01,4.7,0,7.05,0,.18,0,.35,0,.59,0,.08-.54,.17-1.07,.25-1.6,.39-2.75,.78-5.5,1.17-8.25,.25-1.78,1.55-3.12,3.33-3.3,1.71-.17,3.4-.06,4.99,.72,2.9,1.43,4.59,4.61,4.13,7.8-.21,1.45-.42,2.91-.62,4.37,0,.07,0,.14,0,.26Zm-9.72,20.69c.18,0,.31,.02,.44,.02,4.83,0,9.66,0,14.5,0,.32,0,.65,0,.97-.06,2.84-.49,4.77-2.78,4.79-5.69,.01-2.41,.01-4.83,0-7.24,0-.46-.07-.94-.21-1.39-.51-1.61-1.93-2.57-3.75-2.58-3.04,0-6.08,0-9.12,0-1.26,0-2.11-.97-1.94-2.19,.27-1.94,.58-3.87,.83-5.81,.09-.72,.2-1.49,.06-2.18-.44-2.13-2.28-3.34-4.91-2.94-.01,.05-.03,.1-.04,.16-.38,2.65-.77,5.29-1.13,7.94-.18,1.28-.43,2.56-.44,3.85-.05,5.84-.02,11.68-.02,17.52v.58ZM4.97,18.14v16.89h5.58V18.14H4.97Z"/></g></g></svg>