<svg xmlns="http://www.w3.org/2000/svg" viewBox="0 0 28 28"><defs><style>.cls-1{fill:none;}.cls-2{fill:#0091ff;}</style></defs><g id="Layer_2" data-name="Layer 2"><g id="Layer_1-2" data-name="Layer 1"><rect class="cls-1" width="28" height="28"/><path class="cls-2" d="M18,27.68H10a1,1,0,0,1-.6-1c0-.83,0-1.66,0-2.49a.31.31,0,0,0-.19-.33A4.45,4.45,0,0,1,6.67,19.9c-.06-1.27,0-2.54,0-3.81v-.33H4.5A1.86,1.86,0,0,1,2.62,13.9q0-5.86,0-11.73A1.83,1.83,0,0,1,3.94.4L4.16.32H23.84l.22.08a1.83,1.83,0,0,1,1.32,1.77q0,5.87,0,11.73a1.78,1.78,0,0,1-1.56,1.81c-.7.08-1.42,0-2.13,0h-.33v.35c0,1.16,0,2.32,0,3.47a4.58,4.58,0,0,1-2.58,4.26.28.28,0,0,0-.17.29c0,.83,0,1.67,0,2.51A1,1,0,0,1,18,27.68ZM15.47,14.15v-.34c0-.79,0-1.59,0-2.38a2.93,2.93,0,0,1,5.84,0c.05.8,0,1.6,0,2.4,0,.11,0,.21,0,.32h1.95c.39,0,.45-.06.45-.44V5.31H4.22v8.37c0,.42,0,.47.48.47H15.47Zm-7.2,1.62a.74.74,0,0,0,0,.12c0,1.29,0,2.58,0,3.87a2.92,2.92,0,0,0,1.6,2.6,1.43,1.43,0,0,0,.65.19h7a1.28,1.28,0,0,0,.43-.1,3,3,0,0,0,1.83-2.91c0-2.57,0-5.15,0-7.72a2.69,2.69,0,0,0,0-.4,1.34,1.34,0,0,0-2.65.31c0,1.12,0,2.24,0,3.37a.93.93,0,0,1-.56.93,3.59,3.59,0,0,0-1.89,2.49,6.7,6.7,0,0,0-.1.9.8.8,0,1,1-1.6-.06,5.17,5.17,0,0,1,1.22-3.43l.12-.17ZM23.78,3.67V2.44c0-.49,0-.52-.51-.52H4.73a.61.61,0,0,0-.27,0c-.09.05-.22.14-.23.21,0,.51,0,1,0,1.53ZM17,26.07V24.18H11v1.89Z"/><path class="cls-2" d="M8.84,12.21H6.92A.83.83,0,0,1,6,11.27V8.14a.83.83,0,0,1,.91-.91h3.9a.83.83,0,0,1,.91.92V11.3a.82.82,0,0,1-.91.91ZM7.6,8.85v1.74h2.48V8.85Z"/></g></g></svg>