<svg xmlns="http://www.w3.org/2000/svg" viewBox="0 0 28 28"><defs><style>.cls-1{fill:none;}.cls-2{fill:#0091ff;}</style></defs><g id="Layer_2" data-name="Layer 2"><g id="Layer_1-2" data-name="Layer 1"><rect class="cls-1" width="28" height="28"/><path class="cls-2" d="M8.12,20.92l.62-1.82h-5a3.05,3.05,0,0,1-3-2.42,3.56,3.56,0,0,1-.08-.8q0-6.15,0-12.3A3.09,3.09,0,0,1,3.86.35H24.1a3.09,3.09,0,0,1,3.24,3.22V15.88A3.09,3.09,0,0,1,24.1,19.1H16.71A1,1,0,0,0,17,20a1.13,1.13,0,0,1,.26,1.27.32.32,0,0,0,0,.25,1.46,1.46,0,0,1-.41,2.21A17.12,17.12,0,0,1,12.09,26c-.17,0-.25.12-.24.31a.76.76,0,0,1-.35.68c-.37.27-.74.55-1.12.8a.82.82,0,0,1-1.21-.21C8.05,26.09,6.94,24.55,5.84,23a.85.85,0,0,1,.22-1.26l.88-.64A1,1,0,0,1,8.12,20.92ZM12.25,18c.13-.09.21-.14.28-.2,1.09-.78,2.16-1.58,3.27-2.32a1.23,1.23,0,0,0,.67-1.24,1,1,0,0,1,1-1c1.18,0,2.37,0,3.55,0a1,1,0,0,1,1,1c0,.39,0,.79,0,1.18a1.07,1.07,0,0,1-1.19,1.18H18.76a.66.66,0,0,0-.36.11c-.65.44-1.29.9-1.92,1.35a1.3,1.3,0,0,0-.19.17h7.83a2.24,2.24,0,0,0,2.36-2.36V3.58A2.24,2.24,0,0,0,24.1,1.21H3.85A2.23,2.23,0,0,0,1.49,3.56V15.9a2.23,2.23,0,0,0,2.34,2.34H9s0,0,0-.06l.71-2.06a1.44,1.44,0,1,1,2.75.83C12.43,17.28,12.35,17.61,12.25,18Zm3.17.82-1,.71-.65.47c-.28.2-.52.18-.68,0s-.1-.47.19-.68l.12-.08,4.44-3.15a1.32,1.32,0,0,0,.22-.18.39.39,0,0,0-.44-.63,1.4,1.4,0,0,0-.24.15l-5.45,3.91c-.2.14-.4.26-.63.1s-.2-.39-.14-.62l.51-2c.1-.42,0-.71-.37-.81a.59.59,0,0,0-.73.47c-.56,1.65-1.13,3.3-1.68,5a.46.46,0,0,0,0,.36c.8,1.13,1.62,2.24,2.42,3.37a.26.26,0,0,0,.36.11c.48-.18,1-.33,1.45-.52A15.12,15.12,0,0,0,16.4,23a.56.56,0,0,0,.08-1L15,23.1a.44.44,0,0,1-.62,0,.43.43,0,0,1,.13-.68l1.63-1.17c.43-.3.42-.52,0-.86L14.5,21.49a.47.47,0,0,1-.58.05A.44.44,0,0,1,14,20.8l1.63-1.16c.27-.2.29-.33.08-.58Z"/><path class="cls-2" d="M7.83,3A4.76,4.76,0,1,1,3,7.71,4.75,4.75,0,0,1,7.83,3ZM11,10a3.86,3.86,0,0,0-.6-5.16A3.9,3.9,0,0,0,5,5a3.81,3.81,0,0,0-.4,4.86L5.81,8.62c0-.64,0-1.28,0-1.91a2,2,0,0,1,1.8-1.84,1.9,1.9,0,0,1,2.08,1.6,15.72,15.72,0,0,1,0,1.94.32.32,0,0,0,.08.23A3.77,3.77,0,0,1,11,10ZM6.64,6.86c0,.41,0,.79,0,1.17a1.08,1.08,0,0,0,1,1A1.05,1.05,0,0,0,8.8,8.15a9.22,9.22,0,0,0,0-1.29Z"/><path class="cls-2" d="M19.26,11.89H15a1.25,1.25,0,0,1-1.39-1.4c0-.29,0-.58,0-.86A1.24,1.24,0,0,1,14.9,8.34h8.52a1.3,1.3,0,0,1,1.5,1.5v.72a1.26,1.26,0,0,1-1.34,1.33Zm0-.87h4.3c.36,0,.48-.12.49-.48s0-.46,0-.69c0-.56-.08-.65-.64-.65H15c-.35,0-.47.14-.48.48v.77c0,.48.1.57.57.57Z"/><path class="cls-2" d="M19.25,7.11H15a1.25,1.25,0,0,1-1.36-1.34c0-.34,0-.67,0-1a1.22,1.22,0,0,1,1.23-1.19h8.83a1.22,1.22,0,0,1,1.23,1.18,8.83,8.83,0,0,1,0,1.15,1.24,1.24,0,0,1-1.3,1.21Zm0-2.69H15c-.4,0-.52.13-.53.53v.84c0,.32.14.46.45.46h8.66c.31,0,.45-.14.46-.46s0-.49,0-.74c0-.53-.09-.63-.61-.63Z"/></g></g></svg>