<svg xmlns="http://www.w3.org/2000/svg" viewBox="0 0 28 28"><defs><style>.cls-1{fill:none;}.cls-2{fill:#0091ff;}</style></defs><g id="Layer_2" data-name="Layer 2"><g id="Layer_1-2" data-name="Layer 1"><rect class="cls-1" width="28" height="28"/><path class="cls-2" d="M27.89,10.58c-.1.5-.17,1-.31,1.49a13.28,13.28,0,0,1-2,4.08A33.4,33.4,0,0,1,19.05,23c-.18-.14-.35-.27-.52-.42a31.55,31.55,0,0,1-6.29-6.81,12.22,12.22,0,0,1-1.87-4.2A8.84,8.84,0,0,1,27.7,8c.08.37.13.75.19,1.12Zm-8.84,9.58c.57-.55,1.12-1.06,1.64-1.59a22.56,22.56,0,0,0,4-5.23,6.79,6.79,0,0,0,.91-4.48,6.48,6.48,0,0,0-4.79-5.47,6.49,6.49,0,0,0-7,2.28,6.48,6.48,0,0,0-.7,7.2A25.06,25.06,0,0,0,19.05,20.16Z"/><path class="cls-2" d="M3.38,7.46A3.25,3.25,0,1,1,6.62,4.19,3.26,3.26,0,0,1,3.38,7.46ZM2.28,4.19A1.09,1.09,0,1,0,3.39,3.13,1.08,1.08,0,0,0,2.28,4.19Z"/><path class="cls-2" d="M4.45,18.09A1.09,1.09,0,1,1,3.36,17,1.07,1.07,0,0,1,4.45,18.09Z"/><path class="cls-2" d="M4.45,26A1.07,1.07,0,0,1,3.36,27,1.08,1.08,0,0,1,2.28,26a1.1,1.1,0,0,1,1.1-1.07A1.08,1.08,0,0,1,4.45,26Z"/><path class="cls-2" d="M8.47,26A1.08,1.08,0,0,1,7.39,27a1.08,1.08,0,0,1,0-2.16A1.1,1.1,0,0,1,8.47,26Z"/><path class="cls-2" d="M11.28,27A1.08,1.08,0,1,1,12.37,26,1.08,1.08,0,0,1,11.28,27Z"/><path class="cls-2" d="M16.28,26a1.09,1.09,0,1,1-1.09-1.08A1.08,1.08,0,0,1,16.28,26Z"/><path class="cls-2" d="M19.11,27A1.08,1.08,0,1,1,20.18,26,1.07,1.07,0,0,1,19.11,27Z"/><path class="cls-2" d="M3.38,9.2a1.09,1.09,0,0,1,0,2.17,1.09,1.09,0,1,1,0-2.17Z"/><path class="cls-2" d="M4.45,14.18a1.07,1.07,0,0,1-1.07,1.09,1.08,1.08,0,1,1,1.07-1.09Z"/><path class="cls-2" d="M4.45,22.05A1.09,1.09,0,1,1,3.36,21,1.07,1.07,0,0,1,4.45,22.05Z"/><path class="cls-2" d="M19,13.59a3.8,3.8,0,1,1,3.81-3.78A3.79,3.79,0,0,1,19,13.59Zm0-2.18a1.62,1.62,0,1,0-1.63-1.6A1.62,1.62,0,0,0,19.05,11.41Z"/></g></g></svg>