<svg xmlns="http://www.w3.org/2000/svg" viewBox="0 0 28 28"><defs><style>.cls-1{fill:none;}.cls-2{fill:#0091ff;}</style></defs><g id="Layer_2" data-name="Layer 2"><g id="Layer_1-2" data-name="Layer 1"><rect class="cls-1" width="28" height="28"/><path class="cls-2" d="M14,18.12H7.86A1.93,1.93,0,0,1,5.75,16c0-3,0-6,0-9.08A1.27,1.27,0,0,1,6,6.26c.64-1,1.32-2,2-3a2,2,0,0,1,1.81-1h8a2.06,2.06,0,0,1,1.68.78c.86,1.05,1.74,2.08,2.59,3.14a1.16,1.16,0,0,1,.24.67c0,3.07,0,6.15,0,9.22a1.92,1.92,0,0,1-2,2ZM11.46,7.39H7V16c0,.66.18.85.84.85H20.12c.66,0,.85-.18.85-.84V7.37H16.54v.35c0,.7,0,1.39,0,2.08a.64.64,0,0,1-.69.72H12.13a.64.64,0,0,1-.67-.68c0-.13,0-.25,0-.38ZM7.59,6.07h4L12,3.56c-.83,0-1.64,0-2.44,0a.62.62,0,0,0-.42.23C8.6,4.54,8.11,5.29,7.59,6.07Zm8.85,0h3.8c-.66-.78-1.27-1.54-1.91-2.28a.65.65,0,0,0-.41-.21c-.62,0-1.24,0-1.89,0Zm-3.59,0h2.3c-.11-.65-.21-1.27-.31-1.88s-.1-.66-.76-.66c-.26,0-.59-.06-.77.07s-.12.45-.16.69a.14.14,0,0,0,0,.06C13,4.93,13,5.5,12.85,6.09Zm-.11,3.14h2.5V7.37h-2.5V9.23Z"/><path class="cls-2" d="M21.67,23.18H17.13c-.66,1.72-1.7,2.55-3.16,2.53s-2.49-.85-3.1-2.54H6.6a.29.29,0,0,0-.34.25,3.16,3.16,0,1,1,0-1.77l.08.26h4.53c.71-1.77,1.68-2.54,3.19-2.52s2.42.82,3.07,2.52h4.3a.26.26,0,0,0,.3-.23,3.15,3.15,0,1,1,0,1.77Zm5-.65a1.9,1.9,0,0,0-3.8,0,1.9,1.9,0,0,0,3.8,0ZM3.22,24.43a1.89,1.89,0,0,0,1.9-1.89,1.9,1.9,0,0,0-3.8,0A1.88,1.88,0,0,0,3.22,24.43Zm10.79,0a1.88,1.88,0,0,0,1.89-1.9,1.9,1.9,0,0,0-3.8,0A1.89,1.89,0,0,0,14,24.43Z"/><path class="cls-2" d="M10.16,15.58H9A.66.66,0,0,1,8.29,15,.63.63,0,0,1,9,14.32h2.46a.64.64,0,0,1,.67.64.65.65,0,0,1-.69.62Z"/><path class="cls-2" d="M14,21.92a.61.61,0,0,1,.62.61.63.63,0,0,1-1.26,0A.62.62,0,0,1,14,21.92Z"/></g></g></svg>