<svg xmlns="http://www.w3.org/2000/svg" viewBox="0 0 40 40"><defs><style>.cls-1,.cls-3{fill:none;}.cls-2{fill:#0091ff;}.cls-3{stroke:#0091ff;stroke-miterlimit:10;stroke-width:0.88px;}</style></defs><g id="Layer_2" data-name="Layer 2"><g id="Layer_1-2" data-name="Layer 1"><rect class="cls-1" width="40" height="40"/><rect class="cls-1" x="0.71" y="0.71" width="38.57" height="38.57"/><path class="cls-2" d="M26.14,17a3.51,3.51,0,0,0-.06-.79,2.17,2.17,0,0,0-2.29-1.7H4.8a2.18,2.18,0,0,0-2,1.48c0,.11-.08.21-.12.32V36.05a2.28,2.28,0,0,0,.89,1.4,7.22,7.22,0,0,0,1,.46H24.34a2.43,2.43,0,0,0,1.81-2.73C26.13,29.11,26.14,23,26.14,17ZM24.68,35.49c0,.7-.25,1-.95,1H5.12c-.71,0-1-.26-1-1V16.89c0-.72.25-1,1-1H23.74c.7,0,.94.24.94.95V35.49ZM5,11.53H35.56a2.2,2.2,0,0,0,2.31-2.31c0-1.34,0-2.68,0-4a2.22,2.22,0,0,0-2.45-2.46H5.16c-.1,0-.2,0-.31,0a2.19,2.19,0,0,0-2,1.47,2.88,2.88,0,0,1-.13.31V9.67c0,.07.05.13.07.19A2.2,2.2,0,0,0,5,11.53ZM4.15,5.14c0-.68.27-.94,1-.94H35.34c.86,0,1.07.21,1.07,1.08,0,1.28,0,2.56,0,3.84,0,.68-.26,1-.93,1H5.09c-.67,0-.93-.27-.94-1Zm29.32,9.33a4.4,4.4,0,1,0,4.4,4.37A4.39,4.39,0,0,0,33.47,14.47Zm0,7.31a2.93,2.93,0,1,1,2.94-2.91A2.94,2.94,0,0,1,33.47,21.78Zm-3.8,5.85a2.36,2.36,0,0,0,.38,0q3.42,0,6.86,0a2.18,2.18,0,0,0,.44,0,.72.72,0,0,0,0-1.38,1.61,1.61,0,0,0-.44-.05H30.06a2.3,2.3,0,0,0-.37,0,.73.73,0,0,0,0,1.43Zm7.38,2.95h-7a1.6,1.6,0,0,0-.44,0,.71.71,0,0,0-.53.68.73.73,0,0,0,.54.71,2.12,2.12,0,0,0,.44,0h4.6c.77,0,1.55,0,2.33,0a1.3,1.3,0,0,0,.68-.24.61.61,0,0,0,.14-.76A.74.74,0,0,0,37.05,30.58Zm0,4.39h-7a1.61,1.61,0,0,0-.44.05.71.71,0,0,0,0,1.38,1.61,1.61,0,0,0,.44.05h7c.5,0,.82-.3.82-.73A.75.75,0,0,0,37.06,35Z"/><path class="cls-3" d="M26.14,17a3.51,3.51,0,0,0-.06-.79,2.17,2.17,0,0,0-2.29-1.7H4.8a2.18,2.18,0,0,0-2,1.48c0,.11-.08.21-.12.32V36.05a2.28,2.28,0,0,0,.89,1.4,7.22,7.22,0,0,0,1,.46H24.34a2.43,2.43,0,0,0,1.81-2.73C26.13,29.11,26.14,23,26.14,17ZM24.68,35.49c0,.7-.25,1-.95,1H5.12c-.71,0-1-.26-1-1V16.89c0-.72.25-1,1-1H23.74c.7,0,.94.24.94.95V35.49ZM5,11.53H35.56a2.2,2.2,0,0,0,2.31-2.31c0-1.34,0-2.68,0-4a2.22,2.22,0,0,0-2.45-2.46H5.16c-.1,0-.2,0-.31,0a2.19,2.19,0,0,0-2,1.47,2.88,2.88,0,0,1-.13.31V9.67c0,.07.05.13.07.19A2.2,2.2,0,0,0,5,11.53ZM4.15,5.14c0-.68.27-.94,1-.94H35.34c.86,0,1.07.21,1.07,1.08,0,1.28,0,2.56,0,3.84,0,.68-.26,1-.93,1H5.09c-.67,0-.93-.27-.94-1Zm29.32,9.33a4.4,4.4,0,1,0,4.4,4.37A4.39,4.39,0,0,0,33.47,14.47Zm0,7.31a2.93,2.93,0,1,1,2.94-2.91A2.94,2.94,0,0,1,33.47,21.78Zm-3.8,5.85a2.36,2.36,0,0,0,.38,0q3.42,0,6.86,0a2.18,2.18,0,0,0,.44,0,.72.72,0,0,0,0-1.38,1.61,1.61,0,0,0-.44-.05H30.06a2.3,2.3,0,0,0-.37,0,.73.73,0,0,0,0,1.43Zm7.38,2.95h-7a1.6,1.6,0,0,0-.44,0,.71.71,0,0,0-.53.68.73.73,0,0,0,.54.71,2.12,2.12,0,0,0,.44,0h4.6c.77,0,1.55,0,2.33,0a1.3,1.3,0,0,0,.68-.24.61.61,0,0,0,.14-.76A.74.74,0,0,0,37.05,30.58Zm0,4.39h-7a1.61,1.61,0,0,0-.44.05.71.71,0,0,0,0,1.38,1.61,1.61,0,0,0,.44.05h7c.5,0,.82-.3.82-.73A.75.75,0,0,0,37.06,35Z"/></g></g></svg>