<svg xmlns="http://www.w3.org/2000/svg" viewBox="0 0 28.05 28.05"><defs><style>.cls-1{fill:none;}.cls-2{fill:#0091ff;}</style></defs><g id="Layer_2" data-name="Layer 2"><g id="Layer_1-2" data-name="Layer 1"><rect class="cls-1" width="28.05" height="28.05"/><path class="cls-2" d="M20.5,20.21a.94.94,0,0,0-1-.51.92.92,0,0,0-.76.91c0,.6,0,1.19,0,1.79a1.91,1.91,0,0,1-2,2H7.55a1.89,1.89,0,0,1-2-2q0-8.35,0-16.72a1.9,1.9,0,0,1,2-2c3,0,6.09,0,9.13,0a1.92,1.92,0,0,1,2,2V7A1,1,0,1,0,20.6,7c0-.45,0-.91,0-1.36a3.82,3.82,0,0,0-3.88-3.88q-4.59,0-9.18,0A4,4,0,0,0,6.26,2,3.78,3.78,0,0,0,3.67,5.7V21.08c0,.49,0,1,0,1.48a3.71,3.71,0,0,0,2.15,3.31,8.17,8.17,0,0,0,1.24.4H17.21l.13-.05A3.76,3.76,0,0,0,20.55,23a21.86,21.86,0,0,0,0-2.43A.73.73,0,0,0,20.5,20.21Zm-9.89-6.57c.71-.59,1.42-1.18,2.12-1.78a.94.94,0,0,0,.15-1.34.92.92,0,0,0-1.32-.15c-.86.69-1.7,1.39-2.52,2.12a2.09,2.09,0,0,0-.68,1.59A2.22,2.22,0,0,0,9,15.68c.2.19.42.36.64.54.6.51,1.2,1,1.81,1.52a1,1,0,1,0,1.23-1.46c-.74-.63-1.5-1.25-2.24-1.89-.27-.22-.26-.4,0-.62A.86.86,0,0,1,10.61,13.64Zm13.08-1.17a7.72,7.72,0,0,0-.61-.53l-1.76-1.51a1,1,0,1,0-1.23,1.46l2.12,1.82c.35.3.35.44,0,.74L20,16.32a.95.95,0,0,0,1.2,1.47c.84-.7,1.67-1.4,2.48-2.13a2.13,2.13,0,0,0,.66-1.57A2.21,2.21,0,0,0,23.69,12.47ZM17.35,9.28a1,1,0,0,0-.75.81c-.46,1.65-.93,3.29-1.4,4.94-.25.88-.51,1.75-.73,2.64a.9.9,0,0,0,.88,1.14,1,1,0,0,0,1-.77c.44-1.5.86-3,1.29-4.51.3-1,.61-2.08.87-3.13A.94.94,0,0,0,17.35,9.28Zm-3.3-3.12a1,1,0,0,0-.92-1c-.66,0-1.33,0-2,0a1,1,0,0,0,0,1.9h1.88A1,1,0,0,0,14.05,6.16ZM12.13,22.88a1,1,0,1,0-1-1A1,1,0,0,0,12.13,22.88Z"/></g></g></svg>