<svg xmlns="http://www.w3.org/2000/svg" viewBox="0 0 38.62 38.62"><defs><style>.cls-1{fill:none;}.cls-2{fill:#0091ff;stroke:#0091ff;stroke-miterlimit:10;stroke-width:0.87px;}</style></defs><g id="Layer_2" data-name="Layer 2"><g id="Layer_1-2" data-name="Layer 1"><rect class="cls-1" width="38.62" height="38.62"/><path class="cls-2" d="M20.49,1.38c.72.12,1.46.2,2.17.36a13.74,13.74,0,0,1,10.43,11c.16,1,.19,2,.29,3,.34,0,.74,0,1.12.12A3.4,3.4,0,0,1,37,18.25a9.51,9.51,0,0,1,.44,4.1,10.51,10.51,0,0,1-.24,1.59A3.65,3.65,0,0,1,33.3,27c0,.13,0,.26,0,.39,0,1.07.05,2.16-.07,3.22a5.21,5.21,0,0,1-5,4.48H25a.38.38,0,0,0-.42.25,3.07,3.07,0,0,1-2.89,1.85A17.57,17.57,0,0,1,19,37.16a3.08,3.08,0,0,1-2.59-3.31,3.14,3.14,0,0,1,3-2.91,20.07,20.07,0,0,1,2.69,0,2.9,2.9,0,0,1,2.37,1.8.37.37,0,0,0,.39.25h3.12a3.15,3.15,0,0,0,3.15-3.17c0-.32,0-.65,0-1h-3A1.06,1.06,0,0,1,27,27.68V15.22a1.07,1.07,0,0,1,1.18-1.17h2.94a11.58,11.58,0,0,0-23.07,0c1,0,2,0,3,0a1.17,1.17,0,0,1,.76.26,1.3,1.3,0,0,1,.36.82c0,4.19,0,8.38,0,12.57a1.05,1.05,0,0,1-1.1,1.11H7a1.06,1.06,0,0,1-1.11-1.1v-.68a8.45,8.45,0,0,1-1-.07A3.23,3.23,0,0,1,2.3,24.91a15.63,15.63,0,0,1-.57-2.19c0-.11-.05-.22-.07-.33v-2a3.4,3.4,0,0,1,.07-.34,17.43,17.43,0,0,1,.57-2.18,3.13,3.13,0,0,1,2.35-2c.39-.08.78-.08,1.21-.13a4.68,4.68,0,0,1,0-.53A23,23,0,0,1,6.23,12,13.5,13.5,0,0,1,16.34,1.79a22.7,22.7,0,0,1,2.33-.41ZM10,26.71V16.18H8V26.71ZM29.13,16.17V26.7h2.06V16.17ZM5.85,18a1.24,1.24,0,0,0-1.58.66,3.5,3.5,0,0,0-.3.78,8.44,8.44,0,0,0-.09,3.43,4.93,4.93,0,0,0,.47,1.45,1.18,1.18,0,0,0,1.5.55Zm27.47,6.89a1.3,1.3,0,0,0,1.62-.79,3.64,3.64,0,0,0,.26-.72,8.48,8.48,0,0,0,.08-3.44,4.78,4.78,0,0,0-.47-1.41,1.12,1.12,0,0,0-1.49-.5ZM20.63,33h-1a1.05,1.05,0,0,0,0,2.1h2.13a1.05,1.05,0,0,0,0-2.1Z"/></g></g></svg>