<svg xmlns="http://www.w3.org/2000/svg" viewBox="0 0 28 28"><defs><style>.cls-1,.cls-3{fill:none;}.cls-2{fill:#0091ff;}.cls-3{stroke:#0091ff;stroke-miterlimit:10;stroke-width:0.65px;}</style></defs><g id="Layer_2" data-name="Layer 2"><g id="Layer_1-2" data-name="Layer 1"><rect class="cls-1" width="28" height="28"/><path class="cls-2" d="M13.44,3.83q-1.57,0-3.15,0A1.33,1.33,0,0,0,8.92,5.16,1.34,1.34,0,0,0,10.29,6.5h3.16a1.35,1.35,0,0,0,1.36-1.33A1.33,1.33,0,0,0,13.44,3.83Zm0,2.13h-3.1a.8.8,0,1,1,0-1.6h3.1a.8.8,0,1,1,0,1.6Zm6.15-4.27H9a2,2,0,0,0-2.2,2.18V24.1A2,2,0,0,0,9,26.27H19.55a2.05,2.05,0,0,0,2.22-2.21V3.89A2,2,0,0,0,19.57,1.69Zm1.62,22.85a1.43,1.43,0,0,1-1.51,1.2H8.92a1.5,1.5,0,0,1-1.61-1.6V23.08H21.2A10.15,10.15,0,0,1,21.19,24.54Zm0-2H7.31V3.85A1.51,1.51,0,0,1,8.94,2.22H19.6a1.51,1.51,0,0,1,1.64,1.63V22.52Z"/><path class="cls-3" d="M13.44,3.83q-1.57,0-3.15,0A1.33,1.33,0,0,0,8.92,5.16,1.34,1.34,0,0,0,10.29,6.5h3.16a1.35,1.35,0,0,0,1.36-1.33A1.33,1.33,0,0,0,13.44,3.83Zm0,2.13h-3.1a.8.8,0,1,1,0-1.6h3.1a.8.8,0,1,1,0,1.6Zm6.15-4.27H9a2,2,0,0,0-2.2,2.18V24.1A2,2,0,0,0,9,26.27H19.55a2.05,2.05,0,0,0,2.22-2.21V3.89A2,2,0,0,0,19.57,1.69Zm1.62,22.85a1.43,1.43,0,0,1-1.51,1.2H8.92a1.5,1.5,0,0,1-1.61-1.6V23.08H21.2A10.15,10.15,0,0,1,21.19,24.54Zm0-2H7.31V3.85A1.51,1.51,0,0,1,8.94,2.22H19.6a1.51,1.51,0,0,1,1.64,1.63V22.52Z"/><path class="cls-2" d="M18.77,15.5c-.31.57-.63,1.14-.95,1.7a.55.55,0,0,1-.81.26l-.05,0c-.41-.21-.41-.21-.79.05a.28.28,0,0,0-.08.15c0,.14,0,.29,0,.43a.56.56,0,0,1-.56.55H13.7a.55.55,0,0,1-.55-.56V18c0-.47,0-.5-.45-.69a.2.2,0,0,0-.15,0c-.14.06-.26.14-.39.2a.52.52,0,0,1-.73-.22c-.31-.53-.61-1.07-.91-1.62a.55.55,0,0,1,.17-.74.67.67,0,0,1,.14-.09.51.51,0,0,0,.32-.6A.32.32,0,0,0,11,13.9a3.28,3.28,0,0,1-.31-.2.55.55,0,0,1-.16-.72q.45-.83.93-1.65a.52.52,0,0,1,.7-.21l.13.07a.5.5,0,0,0,.7,0,.32.32,0,0,0,.16-.27c0-.12,0-.25,0-.37a.53.53,0,0,1,.52-.53h1.88a.52.52,0,0,1,.5.43.47.47,0,0,1,0,.17.59.59,0,0,0,.42.71.31.31,0,0,0,.19,0,2.59,2.59,0,0,0,.33-.17.55.55,0,0,1,.81.26c.32.56.64,1.13.95,1.7v.26a1.53,1.53,0,0,1-.35.4.58.58,0,0,0-.35.65.31.31,0,0,0,.15.28,1,1,0,0,1,.55.54Zm-1.28.05-.25-.17a.61.61,0,0,1-.3-.66,6.63,6.63,0,0,0,0-.89.59.59,0,0,1,.25-.56l.31-.21-.39-.69-.25.13a.6.6,0,0,1-.74-.07,3.57,3.57,0,0,0-.68-.4.64.64,0,0,1-.42-.61c0-.1,0-.19,0-.28h-.79v.26a.67.67,0,0,1-.44.64,4.48,4.48,0,0,0-.7.42.6.6,0,0,1-.65.07l-.3-.16-.39.69.28.19a.58.58,0,0,1,.27.56c0,.33,0,.67,0,1a.58.58,0,0,1-.26.54l-.29.2.39.69.24-.12a.61.61,0,0,1,.76.06,3.49,3.49,0,0,0,.67.4.61.61,0,0,1,.41.6,2.81,2.81,0,0,1,0,.29H15v-.32a.61.61,0,0,1,.37-.55,6.53,6.53,0,0,0,.77-.46.6.6,0,0,1,.64-.06l.31.16Z"/><path class="cls-2" d="M14.69,14.93a.53.53,0,0,1-.54-.54.54.54,0,1,1,1.08,0A.54.54,0,0,1,14.69,14.93Z"/></g></g></svg>