<svg xmlns="http://www.w3.org/2000/svg" viewBox="0 0 28 28"><defs><style>.cls-1,.cls-3{fill:none;}.cls-2{fill:#0091ff;}.cls-3{stroke:#0091ff;stroke-miterlimit:10;stroke-width:0.17px;}</style></defs><g id="Layer_2" data-name="Layer 2"><g id="Layer_1-2" data-name="Layer 1"><rect class="cls-1" width="28" height="28"/><path class="cls-2" d="M27.52,4.56a2.33,2.33,0,0,0-2.44-2H2.92a3.27,3.27,0,0,0-.76.08A2.28,2.28,0,0,0,.45,5q0,9,0,18.06a2.69,2.69,0,0,0,.23,1.08,2.22,2.22,0,0,0,2.19,1.33H25.11a2.2,2.2,0,0,0,2-1,6.06,6.06,0,0,0,.47-1.11V4.63A.43.43,0,0,0,27.52,4.56ZM1.36,7.29c0-.86,0-1.72,0-2.57A1.3,1.3,0,0,1,2.66,3.5H25.08a1.39,1.39,0,0,1,1.42.8,2,2,0,0,1,.14.64c0,1,0,2.05,0,3.07a.6.6,0,0,1,0,.12H1.36ZM25.9,24.35a1.7,1.7,0,0,1-.74.16H2.85A1.38,1.38,0,0,1,1.36,23c0-.72,0-1.43,0-2.15V9.09H26.63a2.44,2.44,0,0,1,0,.27V22.94A1.42,1.42,0,0,1,25.9,24.35Zm-4.73-13c-1.49,0-3,0-4.45,0a4.2,4.2,0,0,0-1.57.28c-1.33.49-1,.47-2.29,0a4.45,4.45,0,0,0-1.23-.27c-1.61,0-3.23,0-4.84,0-.51,0-.66.15-.66.66v9c0,.55.15.71.7.71,1.44,0,2.88,0,4.32,0a3.76,3.76,0,0,1,1.52.27,6.42,6.42,0,0,0,1.13.35A2.83,2.83,0,0,0,15.33,22a3.88,3.88,0,0,1,1.54-.27c1.41,0,2.81,0,4.21,0,.67,0,.8-.12.8-.79V12.05C21.88,11.49,21.74,11.36,21.17,11.36ZM13.54,21v.36a9.67,9.67,0,0,0-.95-.32,4.2,4.2,0,0,0-1.06-.18c-1.38,0-2.77,0-4.15,0H7.07V12.28h.31c1.16,0,2.31,0,3.47,0a5.07,5.07,0,0,1,2.08.36c.6.25.61.23.61.87Zm7.4-.15h-.29c-1.29,0-2.58,0-3.87,0a4,4,0,0,0-1.7.31l-.61.21v-.3q0-4,0-7.92a.34.34,0,0,1,.26-.37,6.13,6.13,0,0,1,2.78-.49c1,0,2.08,0,3.12,0h.32ZM11.44,4.13A1.72,1.72,0,1,0,13.1,5.84,1.7,1.7,0,0,0,11.44,4.13Zm0,2.51a.77.77,0,0,1-.73-.81.76.76,0,0,1,.75-.78.78.78,0,0,1,.74.81A.77.77,0,0,1,11.43,6.64ZM7.54,4.13a1.72,1.72,0,0,0,0,3.43A1.68,1.68,0,0,0,9.18,5.85,1.68,1.68,0,0,0,7.54,4.13Zm0,2.51a.75.75,0,0,1-.75-.78.74.74,0,1,1,1.48,0A.76.76,0,0,1,7.54,6.64ZM3.63,4.13a1.72,1.72,0,0,0,0,3.43,1.68,1.68,0,0,0,1.66-1.7A1.69,1.69,0,0,0,3.63,4.13Zm0,2.51a.77.77,0,0,1-.73-.81.76.76,0,0,1,.76-.78.78.78,0,0,1,.73.81A.77.77,0,0,1,3.6,6.64ZM16.94,17.86h2.57a.47.47,0,0,0,.52-.47c0-.26-.21-.43-.52-.45H16.2a1.32,1.32,0,0,0-.34,0,.41.41,0,0,0-.22.67.76.76,0,0,0,.48.21Zm2.54-2.65H16.1c-.35,0-.57.19-.56.47s.22.44.55.44h3.39c.34,0,.54-.17.55-.44S19.83,15.22,19.48,15.21Zm0,3.39H16.09c-.34,0-.56.19-.55.47s.22.44.55.44h3.39c.34,0,.54-.17.55-.44S19.83,18.61,19.48,18.6Zm-3.4-4.14h1.48c.34,0,.53-.18.53-.46s-.2-.45-.54-.46H16.08c-.33,0-.54.2-.54.47A.48.48,0,0,0,16.08,14.46Z"/><path class="cls-3" d="M27.52,4.56a2.33,2.33,0,0,0-2.44-2H2.92a3.27,3.27,0,0,0-.76.08A2.28,2.28,0,0,0,.45,5q0,9,0,18.06a2.69,2.69,0,0,0,.23,1.08,2.22,2.22,0,0,0,2.19,1.33H25.11a2.2,2.2,0,0,0,2-1,6.06,6.06,0,0,0,.47-1.11V4.63A.43.43,0,0,0,27.52,4.56ZM1.36,7.29c0-.86,0-1.72,0-2.57A1.3,1.3,0,0,1,2.66,3.5H25.08a1.39,1.39,0,0,1,1.42.8,2,2,0,0,1,.14.64c0,1,0,2.05,0,3.07a.6.6,0,0,1,0,.12H1.36ZM25.9,24.35a1.7,1.7,0,0,1-.74.16H2.85A1.38,1.38,0,0,1,1.36,23c0-.72,0-1.43,0-2.15V9.09H26.63a2.44,2.44,0,0,1,0,.27V22.94A1.42,1.42,0,0,1,25.9,24.35Zm-4.73-13c-1.49,0-3,0-4.45,0a4.2,4.2,0,0,0-1.57.28c-1.33.49-1,.47-2.29,0a4.45,4.45,0,0,0-1.23-.27c-1.61,0-3.23,0-4.84,0-.51,0-.66.15-.66.66v9c0,.55.15.71.7.71,1.44,0,2.88,0,4.32,0a3.76,3.76,0,0,1,1.52.27,6.42,6.42,0,0,0,1.13.35A2.83,2.83,0,0,0,15.33,22a3.88,3.88,0,0,1,1.54-.27c1.41,0,2.81,0,4.21,0,.67,0,.8-.12.8-.79V12.05C21.88,11.49,21.74,11.36,21.17,11.36ZM13.54,21v.36a9.67,9.67,0,0,0-.95-.32,4.2,4.2,0,0,0-1.06-.18c-1.38,0-2.77,0-4.15,0H7.07V12.28h.31c1.16,0,2.31,0,3.47,0a5.07,5.07,0,0,1,2.08.36c.6.25.61.23.61.87Zm7.4-.15h-.29c-1.29,0-2.58,0-3.87,0a4,4,0,0,0-1.7.31l-.61.21v-.3q0-4,0-7.92a.34.34,0,0,1,.26-.37,6.13,6.13,0,0,1,2.78-.49c1,0,2.08,0,3.12,0h.32ZM11.44,4.13A1.72,1.72,0,1,0,13.1,5.84,1.7,1.7,0,0,0,11.44,4.13Zm0,2.51a.77.77,0,0,1-.73-.81.76.76,0,0,1,.75-.78.78.78,0,0,1,.74.81A.77.77,0,0,1,11.43,6.64ZM7.54,4.13a1.72,1.72,0,0,0,0,3.43A1.68,1.68,0,0,0,9.18,5.85,1.68,1.68,0,0,0,7.54,4.13Zm0,2.51a.75.75,0,0,1-.75-.78.74.74,0,1,1,1.48,0A.76.76,0,0,1,7.54,6.64ZM3.63,4.13a1.72,1.72,0,0,0,0,3.43,1.68,1.68,0,0,0,1.66-1.7A1.69,1.69,0,0,0,3.63,4.13Zm0,2.51a.77.77,0,0,1-.73-.81.76.76,0,0,1,.76-.78.78.78,0,0,1,.73.81A.77.77,0,0,1,3.6,6.64ZM16.94,17.86h2.57a.47.47,0,0,0,.52-.47c0-.26-.21-.43-.52-.45H16.2a1.32,1.32,0,0,0-.34,0,.41.41,0,0,0-.22.67.76.76,0,0,0,.48.21Zm2.54-2.65H16.1c-.35,0-.57.19-.56.47s.22.44.55.44h3.39c.34,0,.54-.17.55-.44S19.83,15.22,19.48,15.21Zm0,3.39H16.09c-.34,0-.56.19-.55.47s.22.44.55.44h3.39c.34,0,.54-.17.55-.44S19.83,18.61,19.48,18.6Zm-3.4-4.14h1.48c.34,0,.53-.18.53-.46s-.2-.45-.54-.46H16.08c-.33,0-.54.2-.54.47A.48.48,0,0,0,16.08,14.46Z"/></g></g></svg>