<svg xmlns="http://www.w3.org/2000/svg" viewBox="0 0 28 28"><defs><style>.cls-1{fill:none;}.cls-2{fill:#0091ff;}</style></defs><g id="Layer_2" data-name="Layer 2"><g id="Layer_1-2" data-name="Layer 1"><rect class="cls-1" width="28" height="28"/><path class="cls-2" d="M1.1,25.37v-22H27.52v22H1.1Zm24.65-1.76V5.16H2.87V23.61Z"/><path class="cls-2" d="M15.3,10.44,17,11,13.33,21.84l-1.65-.54Z"/><path class="cls-2" d="M10.41,12.34l1.31,1.15-2.8,2.68,2.77,2.65-1.21,1.26L6.39,16.17Z"/><path class="cls-2" d="M16.93,13.52l1.2-1.25,4.09,3.9L18.2,20l-1.31-1.16,2.81-2.69Z"/><path class="cls-2" d="M6.35,6.92V8.65H4.75a.2.2,0,0,1-.12-.16q0-.71,0-1.41s.09-.15.14-.15Z"/><path class="cls-2" d="M8.17,8.65V6.94H9.9c0,.53,0,1.06,0,1.59a.18.18,0,0,1-.13.12Z"/><path class="cls-2" d="M11.69,6.93h1.72v1.7H11.69Z"/></g></g></svg>