<svg xmlns="http://www.w3.org/2000/svg" viewBox="0 0 28 28"><defs><style>.cls-1,.cls-3{fill:none;}.cls-2{fill:#0091ff;}.cls-3{stroke:#0091ff;stroke-miterlimit:10;stroke-width:0.58px;}</style></defs><g id="Layer_2" data-name="Layer 2"><g id="Layer_1-2" data-name="Layer 1"><rect class="cls-1" width="28" height="28"/><path class="cls-2" d="M25.67,12.36a.45.45,0,0,1-.17-.27c-.1-.65-.13-1.32-.28-2A11.51,11.51,0,0,0,2.51,12.05a.37.37,0,0,1-.21.34,2.43,2.43,0,0,0-1.37,2,31.27,31.27,0,0,0,0,3.75,2.56,2.56,0,0,0,2.19,2.3,1.78,1.78,0,0,0,2.21-1.82c0-1.59,0-3.18,0-4.77A1.71,1.71,0,0,0,4.1,12.14a2.62,2.62,0,0,0-.33-.09,10.25,10.25,0,0,1,20.45,0l-.22.06a1.69,1.69,0,0,0-1.33,1.61c0,1.69,0,3.39,0,5.08a1.7,1.7,0,0,0,1.22,1.59,3.15,3.15,0,0,0,.36.09c0,.46,0,.91,0,1.36a2.48,2.48,0,0,1-2.14,2.37c-.72.08-1.45,0-2.17.05-.06,0-.15-.1-.19-.17A1.81,1.81,0,0,0,18.13,23c-.72,0-1.43,0-2.14,0a1.86,1.86,0,0,0-1.8,1.92,1.89,1.89,0,0,0,1.91,1.85H18a1.87,1.87,0,0,0,1.76-1.09.26.26,0,0,1,.27-.18h1.75a3.76,3.76,0,0,0,3.69-3.18,14.71,14.71,0,0,0,.06-1.88.3.3,0,0,1,.18-.3,2.67,2.67,0,0,0,1.43-2.41c0-1,0-2,0-2.95A2.68,2.68,0,0,0,25.67,12.36ZM4.08,13.86v4.75c0,.47-.2.65-.66.6a1.43,1.43,0,0,1-1.28-1.39c0-1,0-2.07,0-3.1a1.44,1.44,0,0,1,1.35-1.41C3.88,13.29,4.08,13.47,4.08,13.86ZM18,25.52H16.11a.63.63,0,0,1-.67-.64.63.63,0,0,1,.66-.63c.64,0,1.27,0,1.91,0a.64.64,0,1,1,0,1.27Zm7.86-7.69a1.44,1.44,0,0,1-1.32,1.39c-.42,0-.62-.15-.62-.57V13.9c0-.45.21-.63.66-.59a1.45,1.45,0,0,1,1.28,1.39C25.87,15.75,25.88,16.79,25.86,17.83Zm-10.93-5.1a.93.93,0,0,0-1.86,0,.93.93,0,1,0,1.86,0Zm-4-.91a.92.92,0,0,0-.9.92.92.92,0,1,0,1.84,0A.91.91,0,0,0,10.93,11.82Zm7,.92a.92.92,0,1,0-.91.93A.94.94,0,0,0,18,12.74Z"/><path class="cls-3" d="M25.67,12.36a.45.45,0,0,1-.17-.27c-.1-.65-.13-1.32-.28-2A11.51,11.51,0,0,0,2.51,12.05a.37.37,0,0,1-.21.34,2.43,2.43,0,0,0-1.37,2,31.27,31.27,0,0,0,0,3.75,2.56,2.56,0,0,0,2.19,2.3,1.78,1.78,0,0,0,2.21-1.82c0-1.59,0-3.18,0-4.77A1.71,1.71,0,0,0,4.1,12.14a2.62,2.62,0,0,0-.33-.09,10.25,10.25,0,0,1,20.45,0l-.22.06a1.69,1.69,0,0,0-1.33,1.61c0,1.69,0,3.39,0,5.08a1.7,1.7,0,0,0,1.22,1.59,3.15,3.15,0,0,0,.36.09c0,.46,0,.91,0,1.36a2.48,2.48,0,0,1-2.14,2.37c-.72.08-1.45,0-2.17.05-.06,0-.15-.1-.19-.17A1.81,1.81,0,0,0,18.13,23c-.72,0-1.43,0-2.14,0a1.86,1.86,0,0,0-1.8,1.92,1.89,1.89,0,0,0,1.91,1.85H18a1.87,1.87,0,0,0,1.76-1.09.26.26,0,0,1,.27-.18h1.75a3.76,3.76,0,0,0,3.69-3.18,14.71,14.71,0,0,0,.06-1.88.3.3,0,0,1,.18-.3,2.67,2.67,0,0,0,1.43-2.41c0-1,0-2,0-2.95A2.68,2.68,0,0,0,25.67,12.36ZM4.08,13.86v4.75c0,.47-.2.65-.66.6a1.43,1.43,0,0,1-1.28-1.39c0-1,0-2.07,0-3.1a1.44,1.44,0,0,1,1.35-1.41C3.88,13.29,4.08,13.47,4.08,13.86ZM18,25.52H16.11a.63.63,0,0,1-.67-.64.63.63,0,0,1,.66-.63c.64,0,1.27,0,1.91,0a.64.64,0,1,1,0,1.27Zm7.86-7.69a1.44,1.44,0,0,1-1.32,1.39c-.42,0-.62-.15-.62-.57V13.9c0-.45.21-.63.66-.59a1.45,1.45,0,0,1,1.28,1.39C25.87,15.75,25.88,16.79,25.86,17.83Zm-10.93-5.1a.93.93,0,0,0-1.86,0,.93.93,0,1,0,1.86,0Zm-4-.91a.92.92,0,0,0-.9.92.92.92,0,1,0,1.84,0A.91.91,0,0,0,10.93,11.82Zm7,.92a.92.92,0,1,0-.91.93A.94.94,0,0,0,18,12.74Z"/><path class="cls-2" d="M10,18.22a2.87,2.87,0,0,1-1.43-.41,2.59,2.59,0,0,1-1.27-2.32c0-1.76,0-3.53,0-5.29A2.63,2.63,0,0,1,10,7.5h8a2.63,2.63,0,0,1,2.74,2.7c0,1.77,0,3.54,0,5.32a2.64,2.64,0,0,1-2.77,2.69H14.77a.53.53,0,0,0-.41.17c-.72.73-1.45,1.45-2.18,2.17a1.22,1.22,0,0,1-1.31.29,1.24,1.24,0,0,1-.86-1,3.76,3.76,0,0,1,0-.58Zm1.26,1.39.06,0,.2-.19c.74-.73,1.48-1.45,2.2-2.19a1,1,0,0,1,.77-.31h3.39a1.44,1.44,0,0,0,1.61-1.59v-5a1.43,1.43,0,0,0-1.61-1.59H10.13a1.43,1.43,0,0,0-1.6,1.59v5a1.94,1.94,0,0,0,0,.34,1.34,1.34,0,0,0,1.14,1.21,4.78,4.78,0,0,0,.76,0c.58,0,.78.21.79.78Z"/></g></g></svg>