<svg xmlns="http://www.w3.org/2000/svg" viewBox="0 0 28 28"><defs><style>.cls-1{fill:none;}.cls-2{fill:#0091ff;}</style></defs><g id="Layer_2" data-name="Layer 2"><g id="Layer_1-2" data-name="Layer 1"><rect class="cls-1" width="28" height="28"/><path class="cls-2" d="M20.86.61q-7,0-14,0A6.41,6.41,0,0,0,.47,7.05q0,7,0,14a6,6,0,0,0,.14,1.33,6.4,6.4,0,0,0,6.32,5.09c2.31,0,4.62,0,6.93,0s4.68,0,7,0A6.41,6.41,0,0,0,27.29,21q0-7,0-14A6.41,6.41,0,0,0,20.86.61Zm-.05,25.05c-2.31,0-4.62,0-6.93,0s-4.64,0-7,0a4.63,4.63,0,0,1-4.58-3.78A5.62,5.62,0,0,1,2.25,21V7.1A4.63,4.63,0,0,1,7,2.4H20.81A4.62,4.62,0,0,1,25.5,7.1q0,6.93,0,13.86A4.62,4.62,0,0,1,20.81,25.66Z"/><path class="cls-2" d="M4.21,8.41H6.72l1.12,8h0L9,8.41h2.51V19.62H9.84V11.13h0L8.53,19.62H7.06L5.78,11.13h0v8.49H4.21Z"/><path class="cls-2" d="M12.35,8.41h1.78l1.15,8.69h0l1.16-8.69h1.61L16.39,19.62H14.05Z"/><path class="cls-2" d="M18.93,8.41h2.59c1.76,0,2.63,1,2.63,2.77v1.11c0,1.79-.87,2.77-2.63,2.77h-.83v4.56H18.93Zm2.59,5.05c.56,0,.86-.26.86-1.06V11.07c0-.8-.3-1.06-.86-1.06h-.83v3.45Z"/></g></g></svg>