<svg xmlns="http://www.w3.org/2000/svg" width="345" height="307" viewBox="0 0 345 307">
  <g id="Group_1769" data-name="Group 1769" transform="translate(-17701 -5127)">
    <path id="Path_32511" data-name="Path 32511" d="M0,0H345V307H0Z" transform="translate(17701 5127)" fill="#fff" opacity="0"/>
    <g id="Online_report-pana" data-name="Online report-pana" transform="translate(17699.426 5101.846)">
      <g id="freepik--background-complete--inject-285" transform="translate(27.22 25.154)">
        <rect id="Rectangle_2937" data-name="Rectangle 2937" width="60.201" height="62.576" rx="3.96" transform="translate(0 11.492)" fill="#f5f5f5"/>
        <path id="Path_32323" data-name="Path 32323" d="M65.466,62.78A16.646,16.646,0,1,0,82.112,79.426,16.646,16.646,0,0,0,65.466,62.78ZM65.718,89.4A10.208,10.208,0,1,1,75.926,79.195,10.208,10.208,0,0,1,65.718,89.4Z" transform="translate(-34.814 -37.174)" fill="#e0e0e0"/>
        <path id="Path_32324" data-name="Path 32324" d="M73.65,62.79v6.166a10.208,10.208,0,0,1,9.766,13.325l6.03,1.633a16.633,16.633,0,0,0-15.775-21.1Z" transform="translate(-42.746 -37.177)" fill="#fafafa"/>
        <path id="Path_32325" data-name="Path 32325" d="M55.473,79.788a10.208,10.208,0,0,1,6.064-9.337L58.978,64.7A16.646,16.646,0,0,0,48.77,80.04c0,.238,0,.47,0,.681h6.7C55.494,80.427,55.473,80.108,55.473,79.788Z" transform="translate(-34.798 -37.787)" fill="#ebebeb"/>
        <path id="Path_32326" data-name="Path 32326" d="M72.107,98.555a10.283,10.283,0,0,1-2.164-.231c-.259,1.484-.742,4.356-1.123,6.622a16.455,16.455,0,0,0,3.035.279A16.64,16.64,0,0,0,87.883,93.062l-6.01-1.632a10.208,10.208,0,0,1-9.766,7.125Z" transform="translate(-41.203 -46.326)" fill="#ebebeb"/>
        <path id="Path_32327" data-name="Path 32327" d="M68.752,86.688h-.612v.8h-.857v-.8H65.24V86.1l1.783-2.4h.919l-1.647,2.246h1.014v-.681h.83v.681h.612Z" transform="translate(-40.06 -43.857)" fill="#e0e0e0"/>
        <path id="Path_32328" data-name="Path 32328" d="M70.78,85.56c0-1.252.681-1.96,1.62-1.96s1.627.681,1.627,1.96-.681,1.953-1.627,1.953S70.78,86.805,70.78,85.56Zm2.362,0c0-.864-.3-1.218-.742-1.218s-.735.354-.735,1.218.306,1.211.735,1.211S73.142,86.417,73.142,85.56Z" transform="translate(-41.829 -43.825)" fill="#e0e0e0"/>
        <path id="Path_32329" data-name="Path 32329" d="M76.078,84.692a.939.939,0,1,1,.443.88A.939.939,0,0,1,76.078,84.692Zm1.361,0c0-.408-.157-.6-.395-.6s-.395.2-.395.6.163.6.395.6.34-.2.34-.6Zm1.858-1h.681l-2.586,3.784H76.7Zm-.619,2.783a.405.405,0,1,1-.027,0Zm1.361,0c0-.4-.157-.6-.395-.6s-.395.191-.395.6.163.6.395.6.333-.2.333-.6Z" transform="translate(-43.521 -43.848)" fill="#e0e0e0"/>
        <path id="Path_32330" data-name="Path 32330" d="M80.576,117.8c0,.088-6.166.163-13.774.163S53,117.885,53,117.8s6.166-.157,13.774-.157S80.576,117.715,80.576,117.8Z" transform="translate(-36.15 -54.699)" fill="#e0e0e0"/>
        <path id="Path_32331" data-name="Path 32331" d="M77.335,121.517c0,.088-3.4.157-7.643.157s-7.643-.068-7.643-.157,3.4-.157,7.643-.157S77.335,121.428,77.335,121.517Z" transform="translate(-39.041 -55.887)" fill="#e0e0e0"/>
        <circle id="Ellipse_393" data-name="Ellipse 393" cx="1.518" cy="1.518" r="1.518" transform="translate(4.485 15.296)" fill="#e0e0e0"/>
        <circle id="Ellipse_394" data-name="Ellipse 394" cx="1.518" cy="1.518" r="1.518" transform="translate(8.398 15.296)" fill="#e0e0e0"/>
        <path id="Path_32332" data-name="Path 32332" d="M49.355,49.148a1.511,1.511,0,1,1-.442-1.075A1.518,1.518,0,0,1,49.355,49.148Z" transform="translate(-34.016 -32.334)" fill="#e0e0e0"/>
        <path id="Path_32333" data-name="Path 32333" d="M399.779,58.784a9.276,9.276,0,0,1-.231-2.042,16.335,16.335,0,0,0-.272-2.45A23.439,23.439,0,0,0,398.629,51a30.878,30.878,0,0,0-3.4-8.473,31.775,31.775,0,0,0-7.922-9.079,31.394,31.394,0,0,0-29.59-5.084,29.475,29.475,0,0,0-8,4.083A35.089,35.089,0,0,0,346.1,35.38a35.636,35.636,0,0,0-3.144,3.552,31.142,31.142,0,0,0-.9,36.92,35.682,35.682,0,0,0,2.967,3.7,36.193,36.193,0,0,0,3.464,3.1,29.59,29.59,0,0,0,7.8,4.471A31.639,31.639,0,0,0,394.4,74.8a30.626,30.626,0,0,0,3.825-8.3,24.257,24.257,0,0,0,.8-3.26,16.28,16.28,0,0,0,.395-2.43,9.24,9.24,0,0,1,.327-2.042,8.95,8.95,0,0,1,0,2.042,14.557,14.557,0,0,1-.231,2.491,21.951,21.951,0,0,1-.681,3.355,29.884,29.884,0,0,1-3.648,8.636,32.413,32.413,0,0,1-39.465,13.332,30.918,30.918,0,0,1-8.241-4.648,37.52,37.52,0,0,1-3.668-3.26,37.231,37.231,0,0,1-3.144-3.893,32.714,32.714,0,0,1,.946-38.961,37.2,37.2,0,0,1,3.335-3.736,37.015,37.015,0,0,1,3.818-3.076,31.039,31.039,0,0,1,8.459-4.233,32.9,32.9,0,0,1,17.3-.919A32.53,32.53,0,0,1,396.07,42.063a29.986,29.986,0,0,1,3.233,8.806,21.971,21.971,0,0,1,.5,3.4,14.437,14.437,0,0,1,.109,2.5,9.043,9.043,0,0,1-.129,2.014Z" transform="translate(-126.137 -25.154)" fill="#ebebeb"/>
        <path id="Path_32334" data-name="Path 32334" d="M397.237,44.521c.068.1-.51.6-1.627,1.429l-2.042,1.484c-.408.279-.837.6-1.313.9l-1.579.823A36.239,36.239,0,0,1,371.8,53.92l-2.858-.129-2.722-.429c-.442-.075-.892-.136-1.327-.225l-1.279-.34c-.844-.231-1.681-.429-2.47-.681a41.189,41.189,0,0,1-8.071-3.7c-4.3-2.6-6.4-4.968-6.234-5.118s2.511,1.783,6.846,4.029a47.829,47.829,0,0,0,7.894,3.253c.769.225,1.572.395,2.382.6l1.232.306,1.279.2,2.62.381,2.722.109a39.016,39.016,0,0,0,18.273-4.083l1.6-.681c.49-.252.932-.524,1.361-.762l2.219-1.266A5.806,5.806,0,0,1,397.237,44.521Z" transform="translate(-130.013 -30.947)" fill="#ebebeb"/>
        <path id="Path_32335" data-name="Path 32335" d="M345.427,98.033c-.075-.1.5-.6,1.62-1.429l2.042-1.484c.408-.286.837-.6,1.313-.9l1.586-.823a36.191,36.191,0,0,1,18.872-4.764l2.858.129,2.722.429c.449.075.892.136,1.327.225l1.286.34c.837.231,1.674.429,2.464.681a41.187,41.187,0,0,1,8.01,3.689c4.3,2.6,6.4,4.968,6.234,5.118s-2.511-1.783-6.846-4.029a47.83,47.83,0,0,0-7.881-3.226c-.769-.225-1.572-.395-2.382-.606l-1.232-.3-1.232-.163-2.62-.381-2.722-.116a39.036,39.036,0,0,0-18.273,4.083l-1.6.681c-.49.252-.932.524-1.361.762l-2.191,1.2C346.21,97.822,345.5,98.135,345.427,98.033Z" transform="translate(-129.564 -45.429)" fill="#ebebeb"/>
        <path id="Path_32336" data-name="Path 32336" d="M400.183,74.742c0,.49-14.394.538-32.122.109S336,73.673,336,73.183s14.387-.531,32.122-.1S400.189,74.293,400.183,74.742Z" transform="translate(-126.554 -40.37)" fill="#ebebeb"/>
        <path id="Path_32337" data-name="Path 32337" d="M380.812,90.419c-.49,0-.538-14.387-.1-32.1s1.171-32.081,1.661-32.067.531,14.38.1,32.108S381.275,90.433,380.812,90.419Z" transform="translate(-140.742 -25.504)" fill="#ebebeb"/>
        <path id="Path_32338" data-name="Path 32338" d="M373.506,90.347c-.122.191-3.661-2.212-7.738-7.636a43.186,43.186,0,0,1-5.737-10.419,38.608,38.608,0,0,1-2.484-14.387,36.75,36.75,0,0,1,3.239-14.237,44.537,44.537,0,0,1,6.247-10.127c4.321-5.227,7.888-7.54,8.01-7.357s-3.056,2.831-7.023,8.126a47.977,47.977,0,0,0-5.764,9.977A36.959,36.959,0,0,0,359.289,57.9a39.1,39.1,0,0,0,2.246,13.795,46.182,46.182,0,0,0,5.227,10.249C370.477,87.462,373.662,90.157,373.506,90.347Z" transform="translate(-133.435 -25.48)" fill="#ebebeb"/>
        <path id="Path_32339" data-name="Path 32339" d="M383.577,26.255c.122-.184,3.661,2.212,7.745,7.643a43.161,43.161,0,0,1,5.737,10.419,38.682,38.682,0,0,1,2.484,14.38A36.9,36.9,0,0,1,396.3,72.941a44.639,44.639,0,0,1-6.275,10.093c-4.321,5.227-7.888,7.54-8,7.357s3.056-2.831,7.023-8.126a47.916,47.916,0,0,0,5.757-9.97,37.131,37.131,0,0,0,2.974-13.611A39.057,39.057,0,0,0,395.521,44.9a46.279,46.279,0,0,0-5.227-10.256C386.585,29.148,383.4,26.453,383.577,26.255Z" transform="translate(-141.254 -25.503)" fill="#ebebeb"/>
        <path id="Path_32340" data-name="Path 32340" d="M313.265,407.1V388.69a18.375,18.375,0,1,1-18.375,18.831Z" transform="translate(-113.422 -141.286)" fill="#ebebeb"/>
        <path id="Path_32341" data-name="Path 32341" d="M306.659,399.812l-18.409.415a19.423,19.423,0,0,1,5.213-13.257,18.96,18.96,0,0,1,12.93-5.56Z" transform="translate(-111.3 -138.96)" fill="#f5f5f5"/>
      </g>
      <g id="freepik--window-3--inject-285" transform="translate(186.98 191.931)">
        <rect id="Rectangle_2938" data-name="Rectangle 2938" width="65.85" height="43.426" rx="5.89" transform="translate(0.175 0.349)" fill="#fff"/>
        <path id="Path_32343" data-name="Path 32343" d="M325.016,314a3.659,3.659,0,0,0,.544-.061,3.8,3.8,0,0,0,1.484-.538,4.043,4.043,0,0,0,1.64-1.933,10.082,10.082,0,0,0,.272-3.5c0-5.363-.034-13.114-.061-22.683v-9.466a11.314,11.314,0,0,0-.082-1.987,3.859,3.859,0,0,0-2.525-2.865,5.546,5.546,0,0,0-2.042-.218H267.183a3.838,3.838,0,0,0-3.75,3.028,6.325,6.325,0,0,0-.088,1.307v34.4a4.383,4.383,0,0,0,.408,2.225,3.845,3.845,0,0,0,1.5,1.606,3.9,3.9,0,0,0,2.116.524h26.65l22.683.054,6.166.034h-6.166l-22.683.054H267.36a4.3,4.3,0,0,1-2.28-.565,4.2,4.2,0,0,1-1.633-1.742A4.764,4.764,0,0,1,263,309.3c0-6.329,0-12.978,0-19.865V274.9a6.38,6.38,0,0,1,.1-1.361,4.2,4.2,0,0,1,4.083-3.307h57.064a5.934,5.934,0,0,1,2.151.238,4.151,4.151,0,0,1,2.722,3.09,11.566,11.566,0,0,1,.082,2.042v9.466c0,9.568-.041,17.32-.054,22.683v1.9a4.255,4.255,0,0,1-.306,1.647,4.083,4.083,0,0,1-1.7,1.953,3.675,3.675,0,0,1-1.518.51A3.268,3.268,0,0,1,325.016,314Z" transform="translate(-262.992 -270.217)" fill="#263238"/>
        <rect id="Rectangle_2939" data-name="Rectangle 2939" width="2.525" height="10.059" transform="translate(29.691 25.57)" fill="#0091ff"/>
        <rect id="Rectangle_2940" data-name="Rectangle 2940" width="2.525" height="11.515" transform="translate(8.587 24.114)" fill="#0091ff"/>
        <rect id="Rectangle_2941" data-name="Rectangle 2941" width="2.525" height="13.91" transform="translate(13.861 21.712)" fill="#0091ff"/>
        <rect id="Rectangle_2942" data-name="Rectangle 2942" width="2.525" height="13.148" transform="translate(19.135 22.474)" fill="#0091ff"/>
        <rect id="Rectangle_2943" data-name="Rectangle 2943" width="2.525" height="17.599" transform="translate(24.416 18.023)" fill="#0091ff"/>
        <rect id="Rectangle_2944" data-name="Rectangle 2944" width="2.525" height="17.511" transform="translate(34.965 18.112)" fill="#0091ff"/>
        <rect id="Rectangle_2945" data-name="Rectangle 2945" width="2.525" height="11.76" transform="translate(40.246 23.862)" fill="#0091ff"/>
        <rect id="Rectangle_2946" data-name="Rectangle 2946" width="2.525" height="16.742" transform="translate(45.52 18.881)" fill="#0091ff"/>
        <rect id="Rectangle_2947" data-name="Rectangle 2947" width="2.525" height="20.512" transform="translate(50.795 15.11)" fill="#0091ff"/>
        <rect id="Rectangle_2948" data-name="Rectangle 2948" width="2.525" height="16.83" transform="translate(56.076 18.799)" fill="#0091ff"/>
        <path id="Path_32344" data-name="Path 32344" d="M274.425,278.772a1.592,1.592,0,1,1-1.592-1.592A1.593,1.593,0,0,1,274.425,278.772Z" transform="translate(-265.627 -272.441)" fill="#e0e0e0"/>
        <path id="Path_32345" data-name="Path 32345" d="M280.5,278.772a1.586,1.586,0,1,1-.462-1.126,1.592,1.592,0,0,1,.462,1.126Z" transform="translate(-267.569 -272.441)" fill="#e0e0e0"/>
        <path id="Path_32346" data-name="Path 32346" d="M286.5,278.772a1.592,1.592,0,1,1-1.592-1.592A1.593,1.593,0,0,1,286.5,278.772Z" transform="translate(-269.486 -272.441)" fill="#e0e0e0"/>
      </g>
      <g id="freepik--window-2--inject-285" transform="translate(266.613 98.364)">
        <rect id="Rectangle_2949" data-name="Rectangle 2949" width="56.159" height="87.709" rx="8.43" transform="translate(0.106 0.198)" fill="#fff"/>
        <path id="Path_32347" data-name="Path 32347" d="M430.532,220.636h.184a2.487,2.487,0,0,0,.531-.048,5.926,5.926,0,0,0,1.98-.647,5.832,5.832,0,0,0,2.341-2.4,5.717,5.717,0,0,0,.613-2.042c.054-.769,0-1.606,0-2.484,0-7.037-.034-17.211-.061-29.774s0-27.542-.034-44.161a5.628,5.628,0,0,0-2.722-5.165c-1.8-1.157-4.083-.681-6.22-.789h-41.3a5.574,5.574,0,0,0-5.267,3.784,10.6,10.6,0,0,0-.293,3.457V212.81c0,.885-.034,1.79,0,2.634a5.608,5.608,0,0,0,4.764,5.016,20.422,20.422,0,0,0,2.416.068h2.389l29.774.061,8.092.034h0l-8.092.034-29.774.054h-2.368a22.892,22.892,0,0,1-2.45-.068,5.866,5.866,0,0,1-5.009-5.247c-.054-.9,0-1.763,0-2.661v-74.18a5.967,5.967,0,0,1,.313-1.8,5.866,5.866,0,0,1,2.144-2.906,5.941,5.941,0,0,1,3.457-1.123H430.5a5.948,5.948,0,0,1,5.363,3.185,6.315,6.315,0,0,1,.544,1.518,7.889,7.889,0,0,1,.123,1.592c0,16.619,0,31.584-.041,44.161s-.041,22.737-.054,29.774c0,.878,0,1.7-.041,2.491a5.635,5.635,0,0,1-.633,2.1,5.907,5.907,0,0,1-2.4,2.4,5.593,5.593,0,0,1-2.042.619A5.114,5.114,0,0,1,430.532,220.636Z" transform="translate(-380.004 -132.729)" fill="#263238"/>
        <circle id="Ellipse_395" data-name="Ellipse 395" cx="1.722" cy="1.722" r="1.722" transform="translate(5.952 5.996)" fill="#e0e0e0"/>
        <path id="Path_32348" data-name="Path 32348" d="M398.724,143.262A1.722,1.722,0,1,1,397,141.54a1.722,1.722,0,0,1,1.722,1.722Z" transform="translate(-384.884 -135.544)" fill="#e0e0e0"/>
        <circle id="Ellipse_396" data-name="Ellipse 396" cx="1.722" cy="1.722" r="1.722" transform="translate(14.84 5.996)" fill="#e0e0e0"/>
        <path id="Path_32349" data-name="Path 32349" d="M431.957,157.267c0,.1-8.895.177-19.865.177s-19.872-.082-19.872-.177,8.895-.177,19.872-.177S431.957,157.165,431.957,157.267Z" transform="translate(-383.907 -140.511)" fill="#263238"/>
        <path id="Path_32350" data-name="Path 32350" d="M431.957,162.407c0,.1-8.895.177-19.865.177s-19.872-.082-19.872-.177,8.895-.177,19.872-.177S431.957,162.3,431.957,162.407Z" transform="translate(-383.907 -142.153)" fill="#263238"/>
        <path id="Path_32351" data-name="Path 32351" d="M431.957,167.547c0,.1-8.895.177-19.865.177s-19.872-.082-19.872-.177,8.895-.177,19.872-.177S431.957,167.445,431.957,167.547Z" transform="translate(-383.907 -143.795)" fill="#263238"/>
        <path id="Path_32352" data-name="Path 32352" d="M431.957,172.684c0,.1-8.895.177-19.865.177s-19.872-.082-19.872-.177,8.895-.184,19.872-.184S431.957,172.582,431.957,172.684Z" transform="translate(-383.907 -145.434)" fill="#263238"/>
        <path id="Path_32353" data-name="Path 32353" d="M431.957,177.817c0,.1-8.895.177-19.865.177s-19.872-.075-19.872-.177,8.895-.177,19.872-.177S431.957,177.722,431.957,177.817Z" transform="translate(-383.907 -147.076)" fill="#263238"/>
        <path id="Path_32354" data-name="Path 32354" d="M431.957,182.917c0,.1-8.895.177-19.865.177s-19.872-.075-19.872-.177,8.895-.177,19.872-.177S431.957,182.849,431.957,182.917Z" transform="translate(-383.907 -148.705)" fill="#263238"/>
        <path id="Path_32355" data-name="Path 32355" d="M431.957,222.287c0,.1-8.895.177-19.865.177s-19.872-.082-19.872-.177,8.895-.177,19.872-.177S431.957,222.185,431.957,222.287Z" transform="translate(-383.907 -161.282)" fill="#263238"/>
        <path id="Path_32356" data-name="Path 32356" d="M431.957,227.917c0,.1-8.895.177-19.865.177s-19.872-.082-19.872-.177,8.895-.177,19.872-.177S431.957,227.794,431.957,227.917Z" transform="translate(-383.907 -163.08)" fill="#263238"/>
        <path id="Path_32357" data-name="Path 32357" d="M431.957,233.477c0,.1-8.895.177-19.865.177s-19.872-.082-19.872-.177,8.895-.177,19.872-.177S431.957,233.375,431.957,233.477Z" transform="translate(-383.907 -164.856)" fill="#263238"/>
        <path id="Path_32358" data-name="Path 32358" d="M431.957,239.067c0,.1-8.895.177-19.865.177s-19.872-.082-19.872-.177,8.895-.177,19.872-.177S431.957,238.965,431.957,239.067Z" transform="translate(-383.907 -166.642)" fill="#263238"/>
        <path id="Path_32359" data-name="Path 32359" d="M431.957,244.657c0,.1-8.895.184-19.865.184s-19.872-.082-19.872-.184,8.895-.177,19.872-.177S431.957,244.562,431.957,244.657Z" transform="translate(-383.907 -168.428)" fill="#263238"/>
        <path id="Path_32360" data-name="Path 32360" d="M433,190.384h-40.69l.068-.048V204.7l-.068-.054h-.068V190.18H433Z" transform="translate(-383.913 -151.082)" fill="#e0e0e0"/>
        <path id="Path_32361" data-name="Path 32361" d="M433.03,193.974s-9.113.054-20.348.054-20.342,0-20.342-.054,9.106-.054,20.342-.054S433.03,193.974,433.03,193.974Z" transform="translate(-383.945 -152.276)" fill="#e0e0e0"/>
        <path id="Path_32362" data-name="Path 32362" d="M433.03,196.914s-9.113.048-20.348.048-20.342,0-20.342-.048,9.106-.054,20.342-.054S433.03,196.88,433.03,196.914Z" transform="translate(-383.945 -153.216)" fill="#e0e0e0"/>
        <path id="Path_32363" data-name="Path 32363" d="M433.03,199.818s-9.113.054-20.348.054-20.342,0-20.342-.054,9.106-.048,20.342-.048S433.03,199.79,433.03,199.818Z" transform="translate(-383.945 -154.145)" fill="#e0e0e0"/>
        <path id="Path_32364" data-name="Path 32364" d="M433.03,202.724s-9.113.048-20.348.048-20.342,0-20.342-.048,9.106-.054,20.342-.054S433.03,202.7,433.03,202.724Z" transform="translate(-383.945 -155.072)" fill="#e0e0e0"/>
        <path id="Path_32365" data-name="Path 32365" d="M433.03,205.628s-9.113.054-20.348.054-20.342,0-20.342-.054,9.106-.048,20.342-.048S433.03,205.6,433.03,205.628Z" transform="translate(-383.945 -156.001)" fill="#e0e0e0"/>
        <path id="Path_32366" data-name="Path 32366" d="M392.34,208.534s9.106-.054,20.342-.054,20.348,0,20.348.054-9.113.054-20.348.054S392.34,208.562,392.34,208.534Z" transform="translate(-383.945 -156.928)" fill="#e0e0e0"/>
        <path id="Path_32367" data-name="Path 32367" d="M400.788,205.057s-.048-3.267-.048-7.289,0-7.289.048-7.289.054,3.26.054,7.289S400.822,205.057,400.788,205.057Z" transform="translate(-386.628 -151.177)" fill="#e0e0e0"/>
        <path id="Path_32368" data-name="Path 32368" d="M409.4,205.057s-.048-3.267-.048-7.289,0-7.289.048-7.289.054,3.26.054,7.289S409.432,205.057,409.4,205.057Z" transform="translate(-389.379 -151.177)" fill="#e0e0e0"/>
        <path id="Path_32369" data-name="Path 32369" d="M417.974,205.057c-.034,0-.054-3.267-.054-7.289s0-7.289.054-7.289.048,3.26.048,7.289S418.029,205.057,417.974,205.057Z" transform="translate(-392.117 -151.177)" fill="#e0e0e0"/>
        <path id="Path_32370" data-name="Path 32370" d="M426.624,205.057s-.054-3.267-.054-7.289,0-7.289.054-7.289.048,3.26.048,7.289S426.652,205.057,426.624,205.057Z" transform="translate(-394.88 -151.177)" fill="#e0e0e0"/>
        <path id="Path_32371" data-name="Path 32371" d="M435.234,205.057c-.034,0-.054-3.267-.054-7.289s0-7.289.054-7.289.048,3.26.048,7.289S435.262,205.057,435.234,205.057Z" transform="translate(-397.63 -151.177)" fill="#e0e0e0"/>
        <path id="Path_32372" data-name="Path 32372" d="M443.564,205.057s-.054-3.267-.054-7.289,0-7.289.054-7.289.054,3.26.054,7.289S443.592,205.057,443.564,205.057Z" transform="translate(-400.291 -151.177)" fill="#e0e0e0"/>
        <path id="Path_32373" data-name="Path 32373" d="M452.178,205.057s-.048-3.267-.048-7.289,0-7.289.048-7.289.054,3.26.054,7.289S452.2,205.057,452.178,205.057Z" transform="translate(-403.045 -151.177)" fill="#e0e0e0"/>
        <path id="Path_32374" data-name="Path 32374" d="M400.959,208.4a.438.438,0,1,1-.361-.327.354.354,0,0,1,.361.327Z" transform="translate(-386.439 -156.793)" fill="#0091ff"/>
        <circle id="Ellipse_397" data-name="Ellipse 397" cx="0.354" cy="0.354" r="0.354" transform="translate(19.665 47.299)" fill="#0091ff"/>
        <path id="Path_32375" data-name="Path 32375" d="M418.223,205.454a.361.361,0,1,1-.357-.311.361.361,0,0,1,.357.311Z" transform="translate(-391.984 -155.861)" fill="#0091ff"/>
        <path id="Path_32376" data-name="Path 32376" d="M426.823,199.429a.371.371,0,0,1-.524.524h0a.371.371,0,0,1,.524-.524Z" transform="translate(-394.759 -154.002)" fill="#0091ff"/>
        <path id="Path_32377" data-name="Path 32377" d="M435.533,199.429a.371.371,0,1,1-.524.524h0a.371.371,0,1,1,.524-.524Z" transform="translate(-397.541 -154.002)" fill="#0091ff"/>
        <path id="Path_32378" data-name="Path 32378" d="M443.706,205.14a.368.368,0,0,1-.517.524h0a.368.368,0,1,1,.517-.524Z" transform="translate(-400.154 -155.827)" fill="#0091ff"/>
        <path id="Path_32379" data-name="Path 32379" d="M409.663,196.748a.361.361,0,1,1-.163-.353A.361.361,0,0,1,409.663,196.748Z" transform="translate(-389.25 -153.049)" fill="#455a64"/>
        <path id="Path_32380" data-name="Path 32380" d="M401,205.484a.361.361,0,0,1-.361.361.359.359,0,1,1,.361-.361Z" transform="translate(-386.485 -155.857)" fill="#455a64"/>
        <path id="Path_32381" data-name="Path 32381" d="M443.7,208.129a.368.368,0,1,1-.521,0A.368.368,0,0,1,443.7,208.129Z" transform="translate(-400.152 -156.78)" fill="#455a64"/>
        <path id="Path_32382" data-name="Path 32382" d="M435.445,202.581a.357.357,0,0,1-.715,0,.361.361,0,0,1,.361-.361.354.354,0,0,1,.354.361Z" transform="translate(-397.487 -154.928)" fill="#455a64"/>
        <path id="Path_32383" data-name="Path 32383" d="M426.925,202.5a.361.361,0,0,1-.361.361.359.359,0,1,1,.361-.361Z" transform="translate(-394.765 -154.905)" fill="#455a64"/>
        <path id="Path_32384" data-name="Path 32384" d="M396.69,213.974a2.961,2.961,0,0,1-1.13,0,2.96,2.96,0,0,1,1.13,0Z" transform="translate(-384.974 -158.665)" fill="#e0e0e0"/>
        <path id="Path_32385" data-name="Path 32385" d="M405.47,213.974a2.961,2.961,0,0,1-1.13,0,2.961,2.961,0,0,1,1.13,0Z" transform="translate(-387.778 -158.665)" fill="#e0e0e0"/>
        <path id="Path_32386" data-name="Path 32386" d="M414.29,213.974a2.962,2.962,0,0,1-1.13,0,2.961,2.961,0,0,1,1.13,0Z" transform="translate(-390.596 -158.665)" fill="#e0e0e0"/>
        <path id="Path_32387" data-name="Path 32387" d="M423.09,213.974a2.962,2.962,0,0,1-1.13,0,2.961,2.961,0,0,1,1.13,0Z" transform="translate(-393.407 -158.665)" fill="#e0e0e0"/>
        <path id="Path_32388" data-name="Path 32388" d="M431.89,213.974a2.961,2.961,0,0,1-1.13,0,2.961,2.961,0,0,1,1.13,0Z" transform="translate(-396.218 -158.665)" fill="#e0e0e0"/>
        <path id="Path_32389" data-name="Path 32389" d="M439.76,213.974a2.961,2.961,0,0,1-1.13,0,2.961,2.961,0,0,1,1.13,0Z" transform="translate(-398.732 -158.665)" fill="#e0e0e0"/>
        <path id="Path_32390" data-name="Path 32390" d="M447.63,213.974a2.961,2.961,0,0,1-1.13,0,2.961,2.961,0,0,1,1.13,0Z" transform="translate(-401.247 -158.665)" fill="#e0e0e0"/>
        <path id="Path_32391" data-name="Path 32391" d="M390.672,211.434a2.2,2.2,0,0,1-.912,0A1.94,1.94,0,0,1,390.672,211.434Z" transform="translate(-383.121 -157.854)" fill="#e0e0e0"/>
        <path id="Path_32392" data-name="Path 32392" d="M390.672,208.054a2.2,2.2,0,0,1-.912,0A1.94,1.94,0,0,1,390.672,208.054Z" transform="translate(-383.121 -156.774)" fill="#e0e0e0"/>
        <path id="Path_32393" data-name="Path 32393" d="M390.672,204.674a2.205,2.205,0,0,1-.912,0A1.939,1.939,0,0,1,390.672,204.674Z" transform="translate(-383.121 -155.695)" fill="#e0e0e0"/>
        <path id="Path_32394" data-name="Path 32394" d="M390.672,201.295a2.205,2.205,0,0,1-.912,0,1.94,1.94,0,0,1,.912,0Z" transform="translate(-383.121 -154.615)" fill="#e0e0e0"/>
        <path id="Path_32395" data-name="Path 32395" d="M390.672,197.915a2.205,2.205,0,0,1-.912,0,1.94,1.94,0,0,1,.912,0Z" transform="translate(-383.121 -153.535)" fill="#e0e0e0"/>
        <path id="Path_32396" data-name="Path 32396" d="M390.672,194.534a2.2,2.2,0,0,1-.912,0A1.94,1.94,0,0,1,390.672,194.534Z" transform="translate(-383.121 -152.455)" fill="#e0e0e0"/>
        <path id="Path_32397" data-name="Path 32397" d="M390.672,191.154a2.2,2.2,0,0,1-.912,0A1.94,1.94,0,0,1,390.672,191.154Z" transform="translate(-383.121 -151.376)" fill="#e0e0e0"/>
        <path id="Path_32398" data-name="Path 32398" d="M392.251,207.873l-.061-.184,5.826-2.048,5.887-3.974,5.86,1.94,5.907-3.893,5.914-.014.027.014,5.615,3.974,5.444-3.6.109.163-5.553,3.675-.061-.041-5.642-3.988-5.791.014-5.934,3.913-5.86-1.94-5.846,3.94Z" transform="translate(-383.897 -154.123)" fill="#0091ff"/>
        <path id="Path_32399" data-name="Path 32399" d="M427.307,203.867l-5.737-3.9h-5.914l-5.914-3.9L404,196.013l-5.86,5.934H392.34v-.2h5.723l5.866-5.934,5.873.054,5.914,3.9h5.914l5.608,3.818,5.6-9.848.17.1Z" transform="translate(-383.945 -152.219)" fill="#455a64"/>
      </g>
      <g id="freepik--window-1--inject-285" transform="translate(88.128 46.956)">
        <path id="Path_32400" data-name="Path 32400" d="M137.422,57.45H280.9a5.962,5.962,0,0,1,5.962,5.962V180.323a8.561,8.561,0,0,1-8.561,8.561H140.641a8.561,8.561,0,0,1-8.561-8.561V62.792a5.342,5.342,0,0,1,5.342-5.342Z" transform="translate(-122.32 -57.273)" fill="#fff"/>
        <path id="Path_32401" data-name="Path 32401" d="M136.293,57.45H281.814a4.832,4.832,0,0,1,4.832,4.832V73.273H132.08V61.663a4.213,4.213,0,0,1,4.213-4.213Z" transform="translate(-122.32 -57.273)" fill="#e0e0e0"/>
        <path id="Path_32402" data-name="Path 32402" d="M286.749,80.617c0,.1-34.551.177-77.167.177s-77.181-.082-77.181-.177,34.545-.177,77.181-.177S286.749,80.515,286.749,80.617Z" transform="translate(-122.422 -64.617)" fill="#263238"/>
        <path id="Path_32403" data-name="Path 32403" d="M143.116,68.893a1.456,1.456,0,1,1-.427-1.037A1.463,1.463,0,0,1,143.116,68.893Z" transform="translate(-124.91 -60.461)" fill="#263238"/>
        <path id="Path_32404" data-name="Path 32404" d="M149.956,68.893a1.456,1.456,0,1,1-.424-1.034A1.463,1.463,0,0,1,149.956,68.893Z" transform="translate(-127.095 -60.461)" fill="#263238"/>
        <path id="Path_32405" data-name="Path 32405" d="M156.936,68.893a1.456,1.456,0,1,1-.427-1.037A1.463,1.463,0,0,1,156.936,68.893Z" transform="translate(-129.325 -60.461)" fill="#263238"/>
        <path id="Path_32406" data-name="Path 32406" d="M260.1,97.917c0,.1-11.161.177-24.929.177s-24.929-.082-24.929-.177,11.161-.177,24.929-.177S260.1,97.842,260.1,97.917Z" transform="translate(-147.288 -70.144)" fill="#263238"/>
        <path id="Path_32407" data-name="Path 32407" d="M221.547,113.4c0,.1-13.359.177-29.828.177s-29.828-.075-29.828-.177,13.352-.177,29.828-.177S221.547,113.3,221.547,113.4Z" transform="translate(-131.842 -75.089)" fill="#263238"/>
        <path id="Path_32408" data-name="Path 32408" d="M221.547,121.687c0,.1-13.359.177-29.828.177s-29.828-.075-29.828-.177,13.352-.177,29.828-.177S221.547,121.592,221.547,121.687Z" transform="translate(-131.842 -77.737)" fill="#263238"/>
        <path id="Path_32409" data-name="Path 32409" d="M221.547,129.977c0,.1-13.359.184-29.828.184s-29.828-.082-29.828-.184,13.352-.177,29.828-.177S221.547,129.882,221.547,129.977Z" transform="translate(-131.842 -80.385)" fill="#263238"/>
        <path id="Path_32410" data-name="Path 32410" d="M221.547,138.274c0,.1-13.359.177-29.828.177s-29.828-.082-29.828-.177,13.352-.184,29.828-.184S221.547,138.172,221.547,138.274Z" transform="translate(-131.842 -83.034)" fill="#263238"/>
        <path id="Path_32411" data-name="Path 32411" d="M221.547,146.564c0,.1-13.359.177-29.828.177s-29.828-.082-29.828-.177,13.352-.184,29.828-.184S221.547,146.462,221.547,146.564Z" transform="translate(-131.842 -85.682)" fill="#263238"/>
        <path id="Path_32412" data-name="Path 32412" d="M221.547,169.6c0,.1-13.359.177-29.828.177s-29.828-.075-29.828-.177,13.352-.177,29.828-.177S221.547,169.5,221.547,169.6Z" transform="translate(-131.842 -93.042)" fill="#263238"/>
        <path id="Path_32413" data-name="Path 32413" d="M221.547,161.247c0,.1-13.359.177-29.828.177s-29.828-.075-29.828-.177,13.352-.177,29.828-.177S221.547,161.152,221.547,161.247Z" transform="translate(-131.842 -90.375)" fill="#263238"/>
        <path id="Path_32414" data-name="Path 32414" d="M298.062,111.79A16.115,16.115,0,1,0,314.171,127.9,16.115,16.115,0,0,0,298.062,111.79Zm.245,25.766a9.914,9.914,0,1,1,.007,0Z" transform="translate(-170.193 -74.632)" fill="#0091ff"/>
        <path id="Path_32415" data-name="Path 32415" d="M288.424,128.245a9.9,9.9,0,0,1,5.866-9.038l-2.477-5.567A16.122,16.122,0,0,0,282,128.49v.681h6.486A7.047,7.047,0,0,1,288.424,128.245Z" transform="translate(-170.212 -75.223)" fill="#e0e0e0"/>
        <path id="Path_32416" data-name="Path 32416" d="M312.7,165.037c0,.082-5.968.15-13.332.15s-13.332-.068-13.332-.15,5.968-.157,13.332-.157S312.7,164.962,312.7,165.037Z" transform="translate(-171.502 -91.592)" fill="#263238"/>
        <path id="Path_32417" data-name="Path 32417" d="M309.548,168.637c0,.082-3.307.15-7.391.15s-7.4-.068-7.4-.15,3.314-.157,7.4-.157S309.548,168.548,309.548,168.637Z" transform="translate(-174.288 -92.742)" fill="#263238"/>
        <path id="Path_32418" data-name="Path 32418" d="M302.476,132v.681l-1.307,3.056h-1.143l1.252-2.879h-.98v.572h-.9V132Z" transform="translate(-175.77 -81.088)" fill="#263238"/>
        <path id="Path_32419" data-name="Path 32419" d="M307.136,134.558c0,.681-.5,1.266-1.62,1.266a2.8,2.8,0,0,1-1.436-.361l.374-.8a1.878,1.878,0,0,0,1.028.313c.361,0,.6-.143.6-.395s-.157-.374-.721-.374h-1.007l.184-2.171H306.9v.81h-1.511l-.048.544h.245C306.707,133.374,307.136,133.9,307.136,134.558Z" transform="translate(-177.265 -81.101)" fill="#263238"/>
        <path id="Path_32420" data-name="Path 32420" d="M308.838,133.02a.953.953,0,1,1,.946,1.028.932.932,0,0,1-.946-1.028Zm3.144-.98h.762l-2.538,3.709h-.762Zm-1.885.98c0-.374-.129-.524-.313-.524s-.313.15-.313.524.143.524.313.524S310.1,133.374,310.1,133.02Zm1.361,1.749a.953.953,0,1,1,.946,1.028.932.932,0,0,1-.946-1.028Zm1.259,0c0-.374-.136-.524-.313-.524s-.313.15-.313.524.136.524.313.524S312.717,135.15,312.717,134.769Z" transform="translate(-178.783 -81.101)" fill="#263238"/>
        <rect id="Rectangle_2950" data-name="Rectangle 2950" width="4.601" height="10.596" transform="translate(36.465 109.187)" fill="#ebebeb"/>
        <rect id="Rectangle_2951" data-name="Rectangle 2951" width="4.601" height="10.596" transform="translate(52.07 109.187)" fill="#ebebeb"/>
        <rect id="Rectangle_2952" data-name="Rectangle 2952" width="4.601" height="20.246" transform="translate(44.271 99.537)" fill="#f5f5f5"/>
        <rect id="Rectangle_2953" data-name="Rectangle 2953" width="4.601" height="20.246" transform="translate(59.876 99.537)" fill="#f5f5f5"/>
        <rect id="Rectangle_2954" data-name="Rectangle 2954" width="4.601" height="19.668" transform="translate(67.675 100.116)" fill="#ebebeb"/>
        <rect id="Rectangle_2955" data-name="Rectangle 2955" width="4.601" height="19.668" transform="translate(83.28 100.116)" fill="#ebebeb"/>
        <rect id="Rectangle_2956" data-name="Rectangle 2956" width="4.601" height="19.668" transform="translate(98.885 100.116)" fill="#ebebeb"/>
        <rect id="Rectangle_2957" data-name="Rectangle 2957" width="4.601" height="29.992" transform="translate(75.481 89.798)" fill="#f5f5f5"/>
        <rect id="Rectangle_2958" data-name="Rectangle 2958" width="4.601" height="27.052" transform="translate(91.086 92.732)" fill="#f5f5f5"/>
        <rect id="Rectangle_2959" data-name="Rectangle 2959" width="4.601" height="19.668" transform="translate(121.935 100.116)" fill="#ebebeb"/>
        <rect id="Rectangle_2960" data-name="Rectangle 2960" width="4.601" height="15.891" transform="translate(114.136 103.893)" fill="#f5f5f5"/>
        <rect id="Rectangle_2961" data-name="Rectangle 2961" width="4.601" height="30.162" transform="translate(138.255 89.622)" fill="#ebebeb"/>
        <rect id="Rectangle_2962" data-name="Rectangle 2962" width="4.601" height="15.891" transform="translate(130.456 103.893)" fill="#f5f5f5"/>
        <rect id="Rectangle_2963" data-name="Rectangle 2963" width="4.601" height="15.891" transform="translate(146.068 103.893)" fill="#f5f5f5"/>
        <rect id="Rectangle_2964" data-name="Rectangle 2964" width="4.601" height="22.907" transform="translate(106.691 96.876)" fill="#ebebeb"/>
        <circle id="Ellipse_398" data-name="Ellipse 398" cx="1.184" cy="1.184" r="1.184" transform="translate(76.216 88.614)" fill="#0091ff"/>
        <path id="Path_32421" data-name="Path 32421" d="M230.461,190.271a2.151,2.151,0,1,1,2.151-2.144,2.151,2.151,0,0,1-2.151,2.144Zm0-4.124a1.98,1.98,0,1,0,1.974,1.98,1.98,1.98,0,0,0-1.974-1.98Z" transform="translate(-153.06 -98.329)" fill="#0091ff"/>
        <path id="Path_32422" data-name="Path 32422" d="M232.084,182.991l-.061-2.327.578.014-1.082-1.327-1.089,1.334.6.007.061,2.3Z" transform="translate(-153.738 -96.214)" fill="#ebebeb"/>
        <path id="Path_32423" data-name="Path 32423" d="M175.508,209.954a1.184,1.184,0,1,1-1.184-1.184A1.184,1.184,0,0,1,175.508,209.954Z" transform="translate(-135.436 -105.612)" fill="#0091ff"/>
        <path id="Path_32424" data-name="Path 32424" d="M173.871,211.711a2.144,2.144,0,1,1,1.52-.625A2.151,2.151,0,0,1,173.871,211.711Zm0-4.124a1.974,1.974,0,1,0,1.4.578,1.98,1.98,0,0,0-1.4-.578Z" transform="translate(-134.983 -105.178)" fill="#0091ff"/>
        <path id="Path_32425" data-name="Path 32425" d="M173.584,199.73l.061,2.423-.606-.007,1.13,1.375,1.13-1.388-.626-.007-.061-2.389Z" transform="translate(-135.404 -102.725)" fill="#ebebeb"/>
        <path id="Path_32426" data-name="Path 32426" d="M265.554,192.29l.061,2.423-.606-.007,1.13,1.375,1.13-1.388-.626-.007-.061-2.389Z" transform="translate(-164.784 -100.348)" fill="#ebebeb"/>
        <path id="Path_32427" data-name="Path 32427" d="M246.291,212.514l-13.849-12.992c-8.779-4.24-22.329-10.48-23.908-10.4-1.769.109-35.389,13.352-48.162,18.45l-.252-.633c1.885-.749,46.128-18.375,48.373-18.491h.048c2.457,0,22,9.412,24.241,10.487l.082.061L246.4,211.691c2.572-1.361,17.293-9.126,17.545-9.235.088-.041.32-.136,20.566-.136V203c-7.772,0-19.443,0-20.328.1-.769.388-11.814,6.213-17.694,9.31Z" transform="translate(-131.277 -99.121)" fill="#0091ff"/>
        <path id="Path_32428" data-name="Path 32428" d="M267.3,203.324a1.184,1.184,0,1,1-1.184-1.184A1.184,1.184,0,0,1,267.3,203.324Z" transform="translate(-164.759 -103.494)" fill="#0091ff"/>
        <path id="Path_32429" data-name="Path 32429" d="M265.661,205.081a2.151,2.151,0,1,1,2.151-2.151A2.151,2.151,0,0,1,265.661,205.081Zm0-4.124a.82.82,0,1,0,0-.027Z" transform="translate(-164.305 -103.06)" fill="#0091ff"/>
        <path id="Path_32430" data-name="Path 32430" d="M313.508,208.5a1.184,1.184,0,1,1-1.184-1.184A1.184,1.184,0,0,1,313.508,208.5Z" transform="translate(-179.52 -105.149)" fill="#0091ff"/>
        <path id="Path_32431" data-name="Path 32431" d="M311.871,210.261a2.151,2.151,0,1,1,2.151-2.151A2.151,2.151,0,0,1,311.871,210.261Zm0-4.124a1.98,1.98,0,1,0,1.974,1.974A1.98,1.98,0,0,0,311.871,206.137Z" transform="translate(-179.067 -104.715)" fill="#0091ff"/>
        <path id="Path_32432" data-name="Path 32432" d="M311.688,198.73l.068,2.423-.606-.014,1.13,1.382,1.13-1.4h-.626l-.068-2.389Z" transform="translate(-179.524 -102.405)" fill="#ebebeb"/>
        <path id="Path_32433" data-name="Path 32433" d="M278.618,188.781h.817l.619-.1a9.01,9.01,0,0,0,1.7-.5,8.78,8.78,0,0,0,2.089-1.279,8.167,8.167,0,0,0,1.946-2.409,8.33,8.33,0,0,0,.939-3.6c0-2.722,0-5.887,0-9.432,0-14.2-.034-34.708-.054-60.1V64.206a9.064,9.064,0,0,0-.231-2.79,5.39,5.39,0,0,0-1.456-2.355,5.274,5.274,0,0,0-2.443-1.361,12.5,12.5,0,0,0-2.872-.163H136.458a4.764,4.764,0,0,0-4.274,4.709V179.117a15.346,15.346,0,0,0,.143,2.974,8.044,8.044,0,0,0,5.546,6.193,8.921,8.921,0,0,0,2.845.347h55.805l60.1.054,16.333.034H256.623l-60.1.061H140.719a9.378,9.378,0,0,1-2.933-.361A8.344,8.344,0,0,1,132.021,182a15.653,15.653,0,0,1-.15-3.035V62.281a5.138,5.138,0,0,1,4.587-5.063c1.245-.061,2.43,0,3.648,0H281.143a6.125,6.125,0,0,1,1.484.17,5.669,5.669,0,0,1,2.579,1.416,5.839,5.839,0,0,1,1.538,2.491,9.644,9.644,0,0,1,.238,2.879v47.155c0,25.371-.048,45.9-.061,60.1v9.432a8.166,8.166,0,0,1-2.947,6.064,8.691,8.691,0,0,1-2.11,1.273,8.473,8.473,0,0,1-1.715.49l-.626.088h-.456Z" transform="translate(-122.247 -57.19)" fill="#263238"/>
        <circle id="Ellipse_399" data-name="Ellipse 399" cx="7.153" cy="7.153" r="7.153" transform="translate(156.825 72.377) rotate(-76.78)" fill="#f5f5f5"/>
        <path id="Path_32434" data-name="Path 32434" d="M350.312,152.294a13.808,13.808,0,0,0,.286,1.729,7.044,7.044,0,0,0,9.242,4.839,6.992,6.992,0,0,0,3.246-10.691,6.5,6.5,0,0,0-1.477-1.484,6.293,6.293,0,0,0-1.769-.953,7,7,0,0,0-6.629.973,7.153,7.153,0,0,0-2.613,3.859,14.3,14.3,0,0,0-.286,1.729,5.321,5.321,0,0,1,.157-1.763,7.084,7.084,0,0,1,2.586-4.022,7.261,7.261,0,0,1,6.9-1.082,6.807,6.807,0,0,1,1.858.987,7.14,7.14,0,0,1,1.552,1.552,7.282,7.282,0,0,1,0,8.663,7.14,7.14,0,0,1-1.552,1.552,6.99,6.99,0,0,1-1.858.987,7.225,7.225,0,0,1-9.487-5.111A5.321,5.321,0,0,1,350.312,152.294Z" transform="translate(-192.029 -85.24)" fill="#263238"/>
        <path id="Path_32435" data-name="Path 32435" d="M359.063,156.8a.34.34,0,0,1-.2-.606l1.837-1.436-1.858-1.4a.342.342,0,0,1,.415-.544l2.205,1.674a.34.34,0,0,1,.136.265.347.347,0,0,1-.129.272l-2.191,1.708A.34.34,0,0,1,359.063,156.8Z" transform="translate(-194.716 -87.714)" fill="#263238"/>
        <circle id="Ellipse_400" data-name="Ellipse 400" cx="7.153" cy="7.153" r="7.153" transform="translate(0 72.813) rotate(-76.78)" fill="#f5f5f5"/>
        <path id="Path_32436" data-name="Path 32436" d="M134.089,152.933a14.931,14.931,0,0,0-.293-1.729,7.1,7.1,0,0,0-2.613-3.859,6.928,6.928,0,0,0-2.954-1.293,7.017,7.017,0,0,0-3.675.313,6.765,6.765,0,0,0-1.769.953,6.649,6.649,0,0,0-1.47,1.49,6.955,6.955,0,0,0,0,8.248,6.614,6.614,0,0,0,1.47,1.484,6.39,6.39,0,0,0,1.769.953,7.017,7.017,0,0,0,3.675.32,6.928,6.928,0,0,0,2.954-1.293,7.153,7.153,0,0,0,2.613-3.859,15.486,15.486,0,0,0,.293-1.729,5.574,5.574,0,0,1-.157,1.763,7.2,7.2,0,0,1-5.649,5.4,7.289,7.289,0,0,1-3.845-.293,7.364,7.364,0,0,1-3.4-2.545,7.255,7.255,0,0,1,0-8.663,6.853,6.853,0,0,1,1.552-1.552,6.949,6.949,0,0,1,1.851-.987,7.363,7.363,0,0,1,3.845-.3,7.261,7.261,0,0,1,3.056,1.361,7.119,7.119,0,0,1,2.593,4.022,5.574,5.574,0,0,1,.156,1.79Z" transform="translate(-118.333 -85.443)" fill="#263238"/>
        <path id="Path_32437" data-name="Path 32437" d="M130.8,157.428a.32.32,0,0,1-.2-.068l-2.212-1.674a.34.34,0,0,1-.136-.265.333.333,0,0,1,.136-.272l2.185-1.708a.34.34,0,1,1,.415.538l-1.837,1.436,1.858,1.4a.34.34,0,0,1-.2.613Z" transform="translate(-121.096 -87.91)" fill="#263238"/>
      </g>
      <g id="freepik--Plant--inject-285" transform="translate(244.172 211.424)">
        <path id="Path_32438" data-name="Path 32438" d="M420.71,414.276c9.072-3.852,19.579-11.426,24.262-20.716a51.626,51.626,0,0,0-24.262,20.716" transform="translate(-370.567 -329.112)" fill="#263238"/>
        <path id="Path_32439" data-name="Path 32439" d="M423.55,393.1c9.072-3.852,19.573-11.433,24.262-20.723A51.674,51.674,0,0,0,423.55,393.1" transform="translate(-371.474 -322.346)" fill="#263238"/>
        <path id="Path_32440" data-name="Path 32440" d="M427.4,372.5c9.079-3.852,19.579-11.426,24.268-20.716A51.681,51.681,0,0,0,427.4,372.5" transform="translate(-372.704 -315.765)" fill="#263238"/>
        <path id="Path_32441" data-name="Path 32441" d="M432.24,349.434c8.561-5.077,18.1-14.047,21.655-23.894a53.355,53.355,0,0,0-21.655,23.894" transform="translate(-374.25 -307.383)" fill="#263238"/>
        <path id="Path_32442" data-name="Path 32442" d="M437.41,329.675c6.234-8.167,12.053-20.294,11.971-30.815a57.329,57.329,0,0,0-11.971,30.815" transform="translate(-375.902 -298.86)" fill="#263238"/>
        <path id="Path_32443" data-name="Path 32443" d="M428.822,336.424c-1.252-11.039-5.546-24.908-12.822-33.184a67.375,67.375,0,0,0,12.821,33.184" transform="translate(-369.063 -300.259)" fill="#263238"/>
        <path id="Path_32444" data-name="Path 32444" d="M422.979,354.035c-2.225-11.372-7.84-25.439-16.109-33.415a69.96,69.96,0,0,0,16.109,33.415" transform="translate(-366.146 -305.811)" fill="#263238"/>
        <path id="Path_32445" data-name="Path 32445" d="M418.022,375.655c-2.219-11.372-7.833-25.439-16.1-33.415a70.015,70.015,0,0,0,16.1,33.415" transform="translate(-364.565 -312.718)" fill="#263238"/>
        <path id="Path_32446" data-name="Path 32446" d="M414.052,402.2c-2.219-11.372-7.833-25.439-16.1-33.422a70.035,70.035,0,0,0,16.1,33.422" transform="translate(-363.296 -321.196)" fill="#263238"/>
        <path id="Path_32447" data-name="Path 32447" d="M431.862,341a.4.4,0,0,1-.068.17,4.1,4.1,0,0,0-.177.5l-.626,1.974c-.544,1.708-1.286,4.2-2.151,7.289s-1.824,6.806-2.811,10.889-1.953,8.691-2.865,13.5-1.633,9.419-2.232,13.611-1.028,8-1.361,11.188-.538,5.778-.647,7.568c-.054.878-.1,1.565-.129,2.042v.538a.477.477,0,0,0,0,.184s0-.061,0-.184.041-.313.061-.531c.048-.5.116-1.184.2-2.042.157-1.79.408-4.369.762-7.554s.817-6.976,1.416-11.175,1.361-8.793,2.253-13.611,1.885-9.364,2.838-13.5,1.9-7.826,2.722-10.889,1.531-5.594,2.042-7.316l.565-1.98c.061-.218.1-.388.143-.524a.682.682,0,0,0,.068-.157Z" transform="translate(-369.953 -312.322)" fill="#263238"/>
        <path id="Path_32448" data-name="Path 32448" d="M414.033,419.586c3.852-8.058,6.649-19.389,4.764-28.236a50.108,50.108,0,0,0-4.764,28.236" transform="translate(-368.314 -328.406)" fill="#455a64"/>
        <path id="Path_32449" data-name="Path 32449" d="M404.633,404.256c3.845-8.065,6.649-19.389,4.764-28.236a50.054,50.054,0,0,0-4.764,28.236" transform="translate(-365.31 -323.509)" fill="#455a64"/>
        <path id="Path_32450" data-name="Path 32450" d="M396.2,388.666c3.845-8.065,6.642-19.389,4.764-28.236a50.054,50.054,0,0,0-4.764,28.236" transform="translate(-362.618 -318.529)" fill="#455a64"/>
        <path id="Path_32451" data-name="Path 32451" d="M387.385,371.648c2.858-8.527,4.294-20.151,1.361-28.658a50.36,50.36,0,0,0-1.361,28.658" transform="translate(-359.455 -312.957)" fill="#455a64"/>
        <path id="Path_32452" data-name="Path 32452" d="M378.629,358.6c-.279-9.079-2.954-20.416-8.589-27.14a49.224,49.224,0,0,0,8.589,27.14" transform="translate(-354.381 -309.274)" fill="#455a64"/>
        <path id="Path_32453" data-name="Path 32453" d="M372.979,371.723c-6.676-6.3-16.823-12.556-25.949-13.373a50.361,50.361,0,0,0,25.949,13.373" transform="translate(-347.03 -317.864)" fill="#455a64"/>
        <path id="Path_32454" data-name="Path 32454" d="M378.535,386.6c-7.486-5.928-18.593-11.488-28.2-11.508a52.4,52.4,0,0,0,28.2,11.508" transform="translate(-348.087 -323.212)" fill="#455a64"/>
        <path id="Path_32455" data-name="Path 32455" d="M386.762,403.485c-7.486-5.928-18.593-11.494-28.2-11.515a52.328,52.328,0,0,0,28.2,11.515" transform="translate(-350.713 -328.604)" fill="#455a64"/>
        <path id="Path_32456" data-name="Path 32456" d="M398.315,422.955c-7.486-5.928-18.593-11.494-28.2-11.515a52.307,52.307,0,0,0,28.2,11.515" transform="translate(-354.406 -334.824)" fill="#455a64"/>
        <path id="Path_32457" data-name="Path 32457" d="M381.38,368.92a.466.466,0,0,0,.041.15l.15.422c.157.4.368.946.626,1.633.544,1.415,1.361,3.45,2.45,5.941,2.137,4.988,5.295,11.794,9.228,19.089,1.967,3.641,3.94,7.064,5.792,10.14s3.586,5.791,5.1,8.051,2.722,4.083,3.634,5.3l1.021,1.416.272.367a.728.728,0,0,0,.1.116.232.232,0,0,0-.075-.136l-.245-.388-.973-1.45c-.851-1.252-2.042-3.083-3.539-5.356s-3.185-5.016-5.029-8.085-3.791-6.5-5.764-10.14c-3.92-7.282-7.112-14.087-9.3-19.021-1.1-2.477-1.96-4.492-2.545-5.894l-.681-1.606c-.075-.17-.136-.306-.191-.415A.6.6,0,0,0,381.38,368.92Z" transform="translate(-358.003 -321.241)" fill="#263238"/>
        <path id="Path_32458" data-name="Path 32458" d="M387.29,434.27h38.226v7.364H421.59l-3.307,21.015H394.647l-3.4-21.015H387.29Z" transform="translate(-359.891 -342.117)" fill="#0091ff"/>
        <path id="Path_32459" data-name="Path 32459" d="M387.29,444.787c0-.1,8.493-.177,18.974-.177s18.981.075,18.981.177-8.5.177-18.981.177S387.29,444.875,387.29,444.787Z" transform="translate(-359.891 -345.42)" fill="#263238"/>
      </g>
      <g id="freepik--Character--inject-285" transform="translate(25.046 118.704)">
        <path id="Path_32460" data-name="Path 32460" d="M164.72,329.5a21.989,21.989,0,0,0,4.614-.245,10.579,10.579,0,0,0,3.083-1.361s3.355.463,3.893-.286a2.858,2.858,0,0,0,.5-1.606l2.464-.306,2.232.422,1.232,1.5s.926,0,.966-.558c0,0,1.232-.558,1.116-.946s-.8-2.232-.8-2.232l-.939-2.014s-6.084-.381-6.315-.231-7.935,3.743-7.935,3.743l-2.852.681Z" transform="translate(-69.665 -213.406)" fill="#eb996e"/>
        <path id="Path_32461" data-name="Path 32461" d="M168.328,317.415l9.65-2.164,6.737-.361s5.744,2.668,5.581,5.056l1.2.647s-.1,1.783-1.538,1.361a14.23,14.23,0,0,1-2.042-.762l1.545,2.355a2.239,2.239,0,0,1-2.13.041c-.483-.231-3.872-2.8-3.872-2.8l-2.865-.082s-5.322,3.661-7.792,4.083a23.665,23.665,0,0,1-6.676-.449Z" transform="translate(-70.115 -211.26)" fill="#ffbe9d"/>
        <path id="Path_32462" data-name="Path 32462" d="M196.627,322.612c0-.041.245.041.64,0a.817.817,0,0,0,.538-.4,1.667,1.667,0,0,0,.163-.912l.054.1-4.165-2.722-1.252-.817a9.587,9.587,0,0,0-1.136-.681h-2.293a13.609,13.609,0,0,1-2.185-.061,12.868,12.868,0,0,1,2.164-.191l1.089-.054h1.171a.58.58,0,0,1,.15,0,12.252,12.252,0,0,1,1.245.735l1.259.817c1.606,1.068,3.056,2.042,4.083,2.824l.054.041v.061a1.824,1.824,0,0,1-.245,1.041.932.932,0,0,1-.681.436,1.17,1.17,0,0,1-.5-.048A1.532,1.532,0,0,0,196.627,322.612Z" transform="translate(-76.779 -211.89)" fill="#eb996e"/>
        <path id="Path_32463" data-name="Path 32463" d="M196.354,324.742a6.758,6.758,0,0,1-1.007-1.171c-.592-.749-1.361-1.8-2.253-2.981h.034l-.116-.089c-.293-.225-.585-.442-.871-.633l-.436-.265a1.184,1.184,0,0,0-.422-.136,14,14,0,0,0-1.688-.17,8.1,8.1,0,0,1-1.586-.122,5.929,5.929,0,0,1,1.592-.129,10.957,10.957,0,0,1,1.742.1,1.729,1.729,0,0,1,.524.163c.157.082.306.177.456.272.306.2.606.415.905.647l.116.1h0c.864,1.184,1.627,2.259,2.164,3.049A6.806,6.806,0,0,1,196.354,324.742Z" transform="translate(-77.105 -212.585)" fill="#eb996e"/>
        <path id="Path_32464" data-name="Path 32464" d="M247.636,433.51l.225,17.858s18.143,4.478,18.511,7.772l-34.531,2.974L230.35,434.3Z" transform="translate(-90.631 -249.153)" fill="#0091ff"/>
        <g id="Group_1675" data-name="Group 1675" transform="translate(145.52 201.186)" opacity="0.6">
          <path id="Path_32465" data-name="Path 32465" d="M239.81,458.287a1.415,1.415,0,0,0-.9,1.661,1.361,1.361,0,0,0,1.64.905,1.49,1.49,0,0,0,.939-1.763,1.416,1.416,0,0,0-1.81-.755" transform="translate(-238.873 -458.239)" fill="#fff"/>
        </g>
        <g id="Group_1676" data-name="Group 1676" transform="translate(141.06 208.448)" opacity="0.6">
          <path id="Path_32466" data-name="Path 32466" d="M232.47,473.422l-.15-2.8,33.442-1.708a2.382,2.382,0,0,1,1.429,1.776Z" transform="translate(-232.32 -468.91)" fill="#fff"/>
        </g>
        <path id="Path_32467" data-name="Path 32467" d="M255.461,459.388c0,.17-.837.286-1.64.871s-1.218,1.32-1.361,1.259.034-1.075,1.034-1.756S255.495,459.231,255.461,459.388Z" transform="translate(-97.68 -257.378)" fill="#263238"/>
        <path id="Path_32468" data-name="Path 32468" d="M261.313,461.372c.041.163-.681.483-1.211,1.225s-.681,1.511-.837,1.511-.327-.953.361-1.858S261.3,461.209,261.313,461.372Z" transform="translate(-99.822 -258.035)" fill="#263238"/>
        <path id="Path_32469" data-name="Path 32469" d="M265.561,466.241c-.15.041-.422-.789-.034-1.735s1.157-1.361,1.239-1.218-.388.681-.681,1.436S265.731,466.213,265.561,466.241Z" transform="translate(-101.804 -258.657)" fill="#263238"/>
        <path id="Path_32470" data-name="Path 32470" d="M254.476,453.232c-.068.156-.851-.034-1.8.075s-1.681.449-1.776.306.592-.776,1.715-.892S254.55,453.1,254.476,453.232Z" transform="translate(-97.191 -255.285)" fill="#263238"/>
        <g id="Group_1677" data-name="Group 1677" transform="translate(139.91 187.896)" opacity="0.3">
          <path id="Path_32471" data-name="Path 32471" d="M247.766,438.71l.048,3.178-16.952,1.817-.231-4.008Z" transform="translate(-230.63 -438.71)"/>
        </g>
        <path id="Path_32472" data-name="Path 32472" d="M253.485,446.98a3.294,3.294,0,0,1-1.735.075,7.93,7.93,0,0,1-1.837-.47,8.107,8.107,0,0,1-1.021-.483,2.041,2.041,0,0,1-.544-.381.735.735,0,0,1-.122-.892.912.912,0,0,1,.721-.422,2.445,2.445,0,0,1,.681.054,6.125,6.125,0,0,1,2.722,1.293c.837.681,1.143,1.32,1.089,1.361s-.49-.449-1.361-1.021a6.885,6.885,0,0,0-1.586-.8,5.819,5.819,0,0,0-1.014-.259c-.367-.082-.681-.068-.769.1,0,.061-.034.088.048.191a1.858,1.858,0,0,0,.4.279,9.387,9.387,0,0,0,.939.476,9.589,9.589,0,0,0,1.708.565,10.693,10.693,0,0,1,1.681.327Z" transform="translate(-96.309 -252.633)" fill="#263238"/>
        <path id="Path_32473" data-name="Path 32473" d="M255.423,445.947a2.722,2.722,0,0,1-.544-1.654,5.614,5.614,0,0,1,.15-1.906,5.857,5.857,0,0,1,.388-1.075,1.443,1.443,0,0,1,1.062-.932.81.81,0,0,1,.749.449,2.421,2.421,0,0,1,.211.626,3.81,3.81,0,0,1,.054,1.171,3.865,3.865,0,0,1-.681,1.824c-.633.932-1.327,1.171-1.361,1.109a8.714,8.714,0,0,0,.987-1.32,4.01,4.01,0,0,0,.47-1.654,3.574,3.574,0,0,0-.082-1c-.075-.367-.225-.681-.361-.612a1.359,1.359,0,0,0-.578.6,5.443,5.443,0,0,0-.381.96,6.078,6.078,0,0,0-.252,1.742C255.3,445.293,255.512,445.919,255.423,445.947Z" transform="translate(-98.459 -251.348)" fill="#263238"/>
        <path id="Path_32474" data-name="Path 32474" d="M118.569,338.653s56.213-9.33,58.718-9.718c9.637-1.484,20.634-.306,24.3,6.608a51.8,51.8,0,0,1,3.246,15.966c.463,8.5,3.838,58.854,3.838,58.854l-23.193,3.859L177.845,358.5h0l-13.094,2.457c.735-.088-34.027,6.125-44.522,7.221-8.105.823-17.449-3.546-19.314-10.773-1.225-4.723-3.886-17.871-3.886-17.871Z" transform="translate(-48.041 -215.566)" fill="#263238"/>
        <path id="Path_32475" data-name="Path 32475" d="M221.336,361.34a30.772,30.772,0,0,0-3.11,3.464,32.228,32.228,0,0,0-2.246,4.083,4.24,4.24,0,0,1,.374-1.361,13.285,13.285,0,0,1,1.586-2.94,13.807,13.807,0,0,1,2.253-2.47,4.191,4.191,0,0,1,1.143-.776Z" transform="translate(-86.04 -226.098)" fill="#455a64"/>
        <path id="Path_32476" data-name="Path 32476" d="M57.809,190.351a7.922,7.922,0,0,0-1.143,4.512c0,1.545,1.062,4.675,3.8,4.832-.728,4.417,2.1,7.677,6.805,7.683s10.093-8.065,14.455-9.834L94.381,194.2c1.109-.259,1.565-1.613,1.545-2.722a9.216,9.216,0,0,1,.088-3.4c.551-1.463,2.253-2.246,2.831-3.7.681-1.654-.361-3.491-1.538-4.825s-2.607-2.607-2.981-4.342c-.347-1.6.272-3.4-.531-4.832-.98-1.756-3.559-1.98-4.764-3.593-.578-.789-.762-1.81-1.361-2.6-.973-1.361-2.852-1.695-4.505-1.518s-3.239.783-4.893.905c-2.273.163-4.621-.572-6.805.088-2.409.721-3.872,2.858-5.444,4.927l-2.042,2.4a9.181,9.181,0,0,1-1.361,1.109,16.333,16.333,0,0,0-2.579,1.654,4.022,4.022,0,0,0,.279,5.8,4.281,4.281,0,0,0-2.886,4.226s-.225,2.1,1.1,3.028a2.892,2.892,0,0,0-.728,3.559Z" transform="translate(-35.144 -162.616)" fill="#263238"/>
        <path id="Path_32477" data-name="Path 32477" d="M69.478,198.664a58.145,58.145,0,0,1-2.552-9.786,20.45,20.45,0,0,1,.8-9.99c.177-.476,1.7-3.7,2.2-3.648.367.041-.572,3.042-.388,3.355A17.337,17.337,0,0,1,71.5,188.721a45.6,45.6,0,0,1-2.042,9.943" transform="translate(-38.333 -166.648)" fill="#263238"/>
        <path id="Path_32478" data-name="Path 32478" d="M78.985,225.69c-7.486-.939-8.33-12.93-8.33-12.93l-.34-29.386c-.272-8.459,4.424-15.653,12.89-15.714l.783.041a15.129,15.129,0,0,1,14.292,14.7c.2,7.336.32,15.448.061,19.362-.531,8.105-8.711,8.936-8.711,8.936s-.218,7.275-.191,9.779c.088,8.629-8.384,5.4-10.48,5.22Z" transform="translate(-39.504 -164.227)" fill="#ffbe9d"/>
        <path id="Path_32479" data-name="Path 32479" d="M93.859,229.159a19.627,19.627,0,0,1-10.4-3.689s2.185,6.384,10.324,6.084Z" transform="translate(-43.706 -182.695)" fill="#eb996e"/>
        <path id="Path_32480" data-name="Path 32480" d="M107.224,198.569a1.157,1.157,0,0,1-1.177,1.109,1.109,1.109,0,0,1-1.137-1.109,1.157,1.157,0,0,1,1.177-1.109,1.109,1.109,0,0,1,1.137,1.109Z" transform="translate(-50.559 -173.747)" fill="#263238"/>
        <path id="Path_32481" data-name="Path 32481" d="M106.48,193.5c-.157.143-.994-.558-2.246-.619s-2.191.51-2.321.347.1-.333.517-.6a3.124,3.124,0,0,1,1.865-.47,3.076,3.076,0,0,1,1.776.681C106.439,193.15,106.555,193.409,106.48,193.5Z" transform="translate(-49.59 -172.051)" fill="#263238"/>
        <path id="Path_32482" data-name="Path 32482" d="M90,198.569a1.157,1.157,0,0,1-1.177,1.109,1.109,1.109,0,0,1-1.137-1.109,1.157,1.157,0,0,1,1.177-1.109A1.109,1.109,0,0,1,90,198.569Z" transform="translate(-45.058 -173.747)" fill="#263238"/>
        <path id="Path_32483" data-name="Path 32483" d="M88.5,193.271c-.157.15-1-.551-2.246-.613s-2.191.51-2.321.347.1-.333.51-.6a3.144,3.144,0,0,1,1.872-.47,3.076,3.076,0,0,1,1.776.681C88.452,192.93,88.567,193.209,88.5,193.271Z" transform="translate(-43.846 -171.98)" fill="#263238"/>
        <path id="Path_32484" data-name="Path 32484" d="M96.449,203.442a8.4,8.4,0,0,1,2.042-.252c.32,0,.619-.068.681-.279a1.62,1.62,0,0,0-.163-.96c-.259-.783-.524-1.606-.81-2.47a41.924,41.924,0,0,1-1.776-6.452,41.472,41.472,0,0,1,2.293,6.3c.265.864.524,1.695.769,2.484a1.824,1.824,0,0,1,.1,1.259.789.789,0,0,1-.544.436,2.042,2.042,0,0,1-.544.048A7.9,7.9,0,0,1,96.449,203.442Z" transform="translate(-47.842 -172.331)" fill="#263238"/>
        <path id="Path_32485" data-name="Path 32485" d="M90.888,209.31c.2,0,.136,1.361,1.239,2.375s2.559.953,2.559,1.143c0,.082-.333.245-.946.225a3.341,3.341,0,0,1-2.137-.871,2.933,2.933,0,0,1-.953-1.987C90.636,209.623,90.806,209.3,90.888,209.31Z" transform="translate(-46.003 -177.532)" fill="#263238"/>
        <path id="Path_32486" data-name="Path 32486" d="M88.316,185.965c-.136.327-1.361.1-2.845.2s-2.681.436-2.858.122c-.075-.15.143-.456.64-.762a4.954,4.954,0,0,1,4.349-.245C88.092,185.522,88.316,185.8,88.316,185.965Z" transform="translate(-43.431 -169.731)" fill="#263238"/>
        <path id="Path_32487" data-name="Path 32487" d="M106.223,187.332c-.238.265-1.082-.068-2.11-.143s-1.919.088-2.1-.218c-.082-.15.068-.422.47-.681a2.906,2.906,0,0,1,1.735-.367,2.872,2.872,0,0,1,1.654.681C106.223,186.9,106.325,187.2,106.223,187.332Z" transform="translate(-49.625 -170.057)" fill="#263238"/>
        <path id="Path_32488" data-name="Path 32488" d="M68.187,199.451c-.136-.068-5.485-1.946-5.608,3.607s5.485,4.532,5.5,4.369S68.187,199.451,68.187,199.451Z" transform="translate(-37.035 -174.268)" fill="#ffbe9d"/>
        <path id="Path_32489" data-name="Path 32489" d="M67.086,206.131a2.107,2.107,0,0,1-.265.136.993.993,0,0,1-.721,0,2.4,2.4,0,0,1-1.062-2.178,3.287,3.287,0,0,1,.3-1.361,1.109,1.109,0,0,1,.749-.728.49.49,0,0,1,.565.279c.068.157,0,.265.061.272s.123-.088.082-.32a.619.619,0,0,0-.211-.354.728.728,0,0,0-.531-.15,1.361,1.361,0,0,0-1.034.837,3.4,3.4,0,0,0-.367,1.545,2.5,2.5,0,0,0,1.361,2.43,1.028,1.028,0,0,0,.885-.129C67.073,206.26,67.107,206.138,67.086,206.131Z" transform="translate(-37.698 -175.109)" fill="#eb996e"/>
        <path id="Path_32490" data-name="Path 32490" d="M93.767,172.676c.905-.483-1.756-3.4-3.954-4.464-3.321-1.552-8.4-2.552-11.494-1.722-3.723,1.007-6.805,2.811-8.731,6.159a21.907,21.907,0,0,0-2.593,11.107,6.717,6.717,0,0,0,.742,3.4c.762,1.239,2.239,2.042,2.151,3.723a2.355,2.355,0,0,0,.558,1.7c1,1.1,2.259.1,2.845-.912,1.252-2.164,1.416-4.764,1.558-7.255a16.388,16.388,0,0,0-.286-5.288c-.259-.926-.681-1.81-.892-2.722a3.342,3.342,0,0,1,.429-2.77,3.575,3.575,0,0,1,.456-.449,5.8,5.8,0,0,1,5.764-1.021c3.117,1.143,8.439,2.865,9.848,1.824a8.31,8.31,0,0,0,2.518-2.491Z" transform="translate(-38.442 -163.758)" fill="#263238"/>
        <path id="Path_32491" data-name="Path 32491" d="M80.371,165.226a12.25,12.25,0,0,1,9.378.633,6.37,6.37,0,0,1,3.3,3.736,3.634,3.634,0,0,1-1.878,4.287l-.109.068c-2.375.769-3.913.429-6.268-.415-1.98-.715-3.736-1.967-5.717-2.668a11.283,11.283,0,0,0-6.608-.279,18.429,18.429,0,0,1,7.9-5.363Z" transform="translate(-40.196 -163.243)" fill="#263238"/>
        <path id="Path_32492" data-name="Path 32492" d="M68.55,172.3c.048.041.5-.49,1.4-1.116a8.031,8.031,0,0,1,1.681-.9,5.118,5.118,0,0,1,2.259-.381,7.486,7.486,0,0,1,3.872,1.6c.864.681,1.259,1.252,1.313,1.211s-.061-.17-.245-.429a5.908,5.908,0,0,0-.9-.987,7.2,7.2,0,0,0-4.008-1.763,5.213,5.213,0,0,0-2.416.429,7.173,7.173,0,0,0-1.715,1.007A4.39,4.39,0,0,0,68.55,172.3Z" transform="translate(-38.943 -164.823)" fill="#455a64"/>
        <path id="Path_32493" data-name="Path 32493" d="M93.43,164.79a14.9,14.9,0,0,0,1.47.551,12.148,12.148,0,0,1,5.7,4.7c.517.81.769,1.361.823,1.361a4.267,4.267,0,0,0-.6-1.477,10.48,10.48,0,0,0-5.839-4.8A4.328,4.328,0,0,0,93.43,164.79Z" transform="translate(-46.891 -163.31)" fill="#455a64"/>
        <path id="Path_32494" data-name="Path 32494" d="M68.8,224l-.98,4.226L90.6,242.375l-1.021-7.05a34.986,34.986,0,0,0-6.948-5.519A66.639,66.639,0,0,0,68.8,224Z" transform="translate(-38.71 -182.225)" fill="#f5f5f5"/>
        <path id="Path_32495" data-name="Path 32495" d="M63.02,230.444s-7.01,14.856-7.486,20.5,1.416,24.418,1.416,24.418L88.568,311.43l31.557,2.1s-14.938-31.414-18.28-37.539S87.268,242.1,87.268,242.1a17.47,17.47,0,0,0-3.961-6.125c-4.281-4.539-12.583-7.336-20.056-8.847Z" transform="translate(-34.761 -183.225)" fill="#0091ff"/>
        <path id="Path_32496" data-name="Path 32496" d="M78.541,241.285c4.689.551,10.712,4.083,12.8,12.325l2.042,10.208L103.49,284.33l33.109,9.446-4.3,12.971s-32.836-2.607-37.09-3.75S73.3,276.817,73.3,276.817s-8.847-15.251-6.567-26.487C67.863,244.722,72.757,240.6,78.541,241.285Z" transform="translate(-38.243 -187.723)" fill="#0091ff"/>
        <path id="Path_32497" data-name="Path 32497" d="M78.5,241.267H77.71a11.759,11.759,0,0,0-2.307.17,10.637,10.637,0,0,0-3.471,1.361,11.032,11.032,0,0,0-3.559,3.566,12.012,12.012,0,0,0-1.252,2.722,7.1,7.1,0,0,0-.211.769,5.249,5.249,0,0,0-.163.8c-.075.551-.15,1.109-.231,1.681A29.168,29.168,0,0,0,67,259.826a48.318,48.318,0,0,0,2.375,8.255,65.661,65.661,0,0,0,4.015,8.7h0c2.559,3.6,5.342,7.4,8.337,11.324A149.726,149.726,0,0,0,91.6,300a16.491,16.491,0,0,0,3.056,2.572,5.8,5.8,0,0,0,1.912.524c.681.1,1.361.218,2.042.293,2.722.361,5.56.647,8.412.932,5.689.558,11.569,1.075,17.517,1.579l7.717.626-.177.122q2.185-6.615,4.294-12.971l.122.225-33.1-9.466h-.068v-.061L93.247,263.841h0q-.681-3.362-1.245-6.377a40.767,40.767,0,0,0-1.293-5.608,16.251,16.251,0,0,0-5.125-7.445,14.523,14.523,0,0,0-5.125-2.681A13.8,13.8,0,0,0,79,241.4l-.5-.1a3.166,3.166,0,0,1,.51.061,11.143,11.143,0,0,1,1.47.3,14.339,14.339,0,0,1,5.131,2.627,16.381,16.381,0,0,1,5.22,7.486,39.951,39.951,0,0,1,1.361,5.628q.606,3.008,1.273,6.37h0l10.133,20.5-.1-.075,33.115,9.426.17.048-.054.17q-2.1,6.35-4.294,12.978l-.048.129h-.136l-7.717-.626c-5.975-.51-11.828-1.021-17.524-1.586-2.852-.286-5.662-.578-8.418-.939-.681-.075-1.361-.191-2.042-.293-.34-.048-.681-.129-1.021-.2a2.77,2.77,0,0,1-1.007-.368,17.014,17.014,0,0,1-3.1-2.675,148.392,148.392,0,0,1-9.888-11.937c-2.988-3.934-5.764-7.738-8.323-11.352h0a66.016,66.016,0,0,1-4.008-8.745,48.694,48.694,0,0,1-2.45-8.391,29.189,29.189,0,0,1-.456-7.534c.082-.578.163-1.15.238-1.7a5.362,5.362,0,0,1,.177-.81,6.943,6.943,0,0,1,.218-.783,12.052,12.052,0,0,1,1.286-2.77,11.032,11.032,0,0,1,3.627-3.58,10.6,10.6,0,0,1,3.518-1.361,10.42,10.42,0,0,1,2.327-.129C78.234,241.233,78.5,241.267,78.5,241.267Z" transform="translate(-38.201 -187.705)" fill="#263238"/>
        <path id="Path_32498" data-name="Path 32498" d="M112.52,312.488a4.764,4.764,0,0,1,.517-1.361,19.178,19.178,0,0,1,1.81-3.022,19.39,19.39,0,0,1,2.334-2.641,4.763,4.763,0,0,1,1.143-.905c.075.082-1.592,1.558-3.192,3.757S112.622,312.536,112.52,312.488Z" transform="translate(-52.99 -207.96)" fill="#263238"/>
        <path id="Path_32499" data-name="Path 32499" d="M92.142,246.3a7.14,7.14,0,0,1-.8-.844c-.245-.286-.544-.626-.919-1s-.776-.823-1.279-1.273a37.194,37.194,0,0,0-3.58-3.008,42.775,42.775,0,0,0-4.846-3.056,53.4,53.4,0,0,0-9.671-3.9c-1.279-.381-2.327-.681-3.049-.851a6.716,6.716,0,0,1-1.116-.333,7.861,7.861,0,0,1,1.15.2c.735.143,1.79.395,3.083.742a48.13,48.13,0,0,1,9.766,3.8,39.309,39.309,0,0,1,4.873,3.1,33.558,33.558,0,0,1,3.559,3.1c.49.456.885.926,1.245,1.313a9.952,9.952,0,0,1,.885,1.048,7.486,7.486,0,0,1,.7.966Z" transform="translate(-38.41 -184.793)" fill="#263238"/>
        <path id="Path_32500" data-name="Path 32500" d="M221.444,266.467a1.143,1.143,0,0,0-1.422.769l-11.515,38.505-38.574,5.989a2.287,2.287,0,0,0-1.906,2.606l42.255-6.588h0L222.2,267.883a1.143,1.143,0,0,0-.755-1.416Z" transform="translate(-70.713 -195.776)" fill="#e0e0e0"/>
        <path id="Path_32501" data-name="Path 32501" d="M221.376,266.456a1.082,1.082,0,0,1,.647.456,1.184,1.184,0,0,1,.157.96l-.374,1.3-2.484,8.466-8.949,30.148v.109h-.157l.122-.109h0l-.048.15-.143-.048h.061l-41.432,6.554-.789.122h-.17v-.177a2.464,2.464,0,0,1,1.361-2.593,2.593,2.593,0,0,1,.742-.225l.715-.109,1.422-.225,5.642-.878,10.889-1.695,19.831-3.069-.122.109c3.634-12.066,6.656-22.111,8.779-29.155l2.484-8.167q.211-.681.388-1.245a1.17,1.17,0,0,1,.681-.681,1.048,1.048,0,0,1,.769,0,1.259,1.259,0,0,0-.749.061,1.109,1.109,0,0,0-.612.647q-.163.544-.368,1.245l-2.4,8.167c-2.089,7.05-5.077,17.109-8.657,29.189v.088h-.1L188.614,309l-10.889,1.7-5.642.878-1.422.225a5.178,5.178,0,0,0-1.361.306,2.117,2.117,0,0,0-1.171,2.219l-.2-.143.789-.123,41.473-6.424h.034l-.191.1h0v-.1h.1l-.129.177v-.061h0c3.743-12.447,6.874-22.832,9.065-30.121,1.1-3.627,1.974-6.479,2.572-8.439l.395-1.293a1.143,1.143,0,0,0-.129-.912A1.306,1.306,0,0,0,221.376,266.456Z" transform="translate(-70.645 -195.764)" fill="#263238"/>
        <path id="Path_32502" data-name="Path 32502" d="M229.277,326.189c-.082.054-.49-.422-.994-.994s-.905-1.055-.837-1.13.592.3,1.109.9S229.359,326.134,229.277,326.189Z" transform="translate(-89.701 -214.188)" fill="#455a64"/>
        <path id="Path_32503" data-name="Path 32503" d="M220.578,326.3c0-.041.17-.17.442,0a.51.51,0,0,1,.272.476.578.578,0,0,1-1.062.293.517.517,0,0,1-.048-.544c.163-.286.408-.238.395-.2a.718.718,0,0,0-.163.293.3.3,0,0,0,.354.34.279.279,0,0,0,.2-.218.245.245,0,0,0-.088-.231C220.721,326.341,220.6,326.341,220.578,326.3Z" transform="translate(-87.365 -214.878)" fill="#455a64"/>
        <path id="Path_32504" data-name="Path 32504" d="M224.2,325.74c0-.041.17-.17.442,0a.5.5,0,0,1,.272.476.585.585,0,0,1-.429.524.606.606,0,0,1-.633-.231.517.517,0,0,1-.048-.544c.17-.286.408-.245.395-.2a.775.775,0,0,0-.163.293.279.279,0,0,0,.075.252.3.3,0,0,0,.279.1.292.292,0,0,0,.2-.218.245.245,0,0,0-.088-.238C224.355,325.788,224.219,325.788,224.2,325.74Z" transform="translate(-88.522 -214.699)" fill="#455a64"/>
        <path id="Path_32505" data-name="Path 32505" d="M77.219,400.048,61.56,451.49l5.71.054L88.428,399.51Z" transform="translate(-36.71 -238.292)" fill="#263238"/>
        <path id="Path_32506" data-name="Path 32506" d="M183.52,389.451c-.041,0,17.694,58.364,17.694,58.364l5.662.082L195.96,388.28Z" transform="translate(-75.671 -234.704)" fill="#263238"/>
        <path id="Path_32507" data-name="Path 32507" d="M41.082,279.458a6.043,6.043,0,0,0-6.458-1.123c-4.39,1.871-10.814,5.71-9.371,11.773,1.8,7.581,22.56,57.03,29.257,72.914a7.942,7.942,0,0,0,7.377,4.852l86.988-.735a6.431,6.431,0,0,0,6.315-7.261l-3.253-24.7a17.606,17.606,0,0,0-15.9-15.237l-56.254-5Z" transform="translate(-25.046 -199.429)" fill="#455a64"/>
        <path id="Path_32508" data-name="Path 32508" d="M61.415,372.814a.837.837,0,0,1-.048-.184,3.136,3.136,0,0,0-.109-.524q-.143-.735-.388-2.042c-.32-1.8-.783-4.342-1.361-7.486s-1.225-6.935-1.96-11.113c-.361-2.089-.749-4.287-1.143-6.56-.2-1.143-.4-2.3-.606-3.478a9.337,9.337,0,0,1-.1-3.668,4.24,4.24,0,0,1,.837-1.688,4.873,4.873,0,0,1,1.49-1.171,10.637,10.637,0,0,1,3.4-.973c2.314-.259,4.532-.388,6.656-.544,4.24-.293,8.058-.483,11.27-.612s5.812-.184,7.609-.211h2.763a.776.776,0,0,1-.184,0h-.538l-2.042.082-7.595.327c-3.212.157-7.03.374-11.263.681-2.11.163-4.349.306-6.629.565a10.148,10.148,0,0,0-3.314.939,3.988,3.988,0,0,0-2.13,2.613,8.956,8.956,0,0,0,.1,3.532q.3,1.769.592,3.471.592,3.4,1.123,6.567c.681,4.185,1.361,7.949,1.885,11.127s.946,5.7,1.239,7.486c.136.864.245,1.552.32,2.042a3.191,3.191,0,0,0,.075.538A.735.735,0,0,1,61.415,372.814Z" transform="translate(-34.796 -216.905)" fill="#263238"/>
        <path id="Path_32509" data-name="Path 32509" d="M163.367,388.2c0,.1-22.458.177-50.177.177S63,388.292,63,388.2s22.458-.177,50.184-.177S163.367,388.1,163.367,388.2Z" transform="translate(-37.171 -234.621)" fill="#263238"/>
        <path id="Path_32510" data-name="Path 32510" d="M64.573,316.838c-.075.068-6.942-7.833-15.34-17.64S34.085,281.388,34.16,281.32s6.942,7.833,15.34,17.647S64.676,316.776,64.573,316.838Z" transform="translate(-27.957 -200.536)" fill="#263238"/>
      </g>
    </g>
  </g>
</svg>
