<?xml version="1.0" encoding="UTF-8"?><svg xmlns="http://www.w3.org/2000/svg" viewBox="0 0 28 28"><defs><style>.d{fill:#0091ff;stroke:#0091ff;stroke-miterlimit:10;stroke-width:.37px;}.e{fill:none;}</style></defs><g id="a"/><g id="b"><g id="c"><g><rect class="e" width="28" height="28"/><g><path class="d" d="M12.11,22.23h-.38c-3.02,0-6.04,0-9.05,0-1.18,0-2.08-.72-2.31-1.83-.04-.2-.04-.4-.04-.6,0-5.62,0-11.25,0-16.87,0-1.48,.94-2.43,2.42-2.43,7.5,0,15,0,22.5,0,1.46,0,2.41,.95,2.41,2.4,0,5.65,0,11.3,0,16.96,0,1.42-.96,2.37-2.38,2.37-.3,0-.59,0-.92,0,0,.33,0,.63,0,.92,0,.79,0,1.58,0,2.37,0,1.18-.79,1.97-1.99,1.97-2.76,0-5.52,0-8.27,0-1.19,0-1.97-.78-1.99-1.97,0-.98,0-1.97,0-2.95,0-.1,0-.21,0-.34Zm0-1.13v-.4c0-3.72,0-7.44,0-11.17,0-.24,.01-.49,.07-.72,.23-.89,.96-1.41,1.98-1.41,2.7,0,5.4,.02,8.1,0,1.37-.01,2.12,.98,2.11,2.11-.03,3.74-.01,7.48-.01,11.23v.36c.28,0,.52,0,.75,0,1,0,1.41-.41,1.41-1.4,0-4.31,0-8.62,0-12.93v-.36H1.46c0,.12,0,.23,0,.33,0,4.34,0,8.68,0,13.02,0,.89,.45,1.34,1.33,1.34,2.99,0,5.98,0,8.97,0h.35ZM1.48,5.24H26.51c0-.89,0-1.75,0-2.62,0-.31-.17-.6-.44-.74-.26-.13-.58-.24-.87-.24-7.47-.01-14.94-.01-22.41,0-.12,0-.25,0-.37,.03-.51,.09-.9,.45-.93,.97-.04,.86-.01,1.73-.01,2.61Zm11.79,7.2v10.19h9.93V12.43H13.27Zm9.94-1.17c0-.71,.02-1.39,0-2.07-.01-.38-.35-.63-.77-.63-2.79,0-5.59,0-8.38,0-.49,0-.79,.31-.79,.8,0,.57,0,1.14,0,1.71,0,.06,.02,.13,.03,.2h9.93Zm0,12.55H13.25c0,.54,0,1.05,0,1.56,0,.75,.25,1,1.01,1,2.66,0,5.32,0,7.98,0,.14,0,.29,0,.43-.04,.29-.07,.51-.26,.52-.55,.03-.65,0-1.3,0-1.96Z"/><path class="d" d="M6.82,12.38c-1,0-2.01,0-3.01,0-.59,0-.92-.32-.92-.91,0-.97,0-1.95,0-2.92,0-.54,.31-.89,.85-.89,2.05-.01,4.11-.01,6.16,0,.55,0,.87,.35,.87,.91,0,.96,0,1.93,0,2.89,0,.59-.33,.92-.94,.92-1,0-2.01,0-3.01,0Zm-2.78-1.16h5.57v-2.41H4.02c0,.73,0,1.44,0,2.15,0,.08,.01,.17,.02,.26Z"/><path class="d" d="M6.82,17.3c-1.1,0-2.2,0-3.3,0-.49,0-.78-.41-.59-.81,.11-.24,.31-.33,.56-.33,2.22,0,4.43,0,6.65,0,.38,0,.62,.25,.61,.59,0,.33-.25,.55-.62,.55-1.11,0-2.22,0-3.33,0Z"/><path class="d" d="M6.86,18.63c1.09,0,2.18,0,3.27,0,.25,0,.49,.07,.56,.31,.05,.17,.05,.42-.04,.56-.09,.14-.33,.26-.5,.26-2.22,.02-4.43,.01-6.65,0-.38,0-.62-.25-.61-.59,0-.34,.25-.55,.64-.55,1.11,0,2.22,0,3.33,0Z"/><path class="d" d="M6.82,14.81c-1.11,0-2.22,0-3.32,0-.37,0-.6-.23-.61-.56,0-.33,.22-.56,.59-.58,.09,0,.17,0,.26,0,1.52,0,3.05,0,4.57,0,.56,0,1.12,0,1.68,0,.09,0,.17,0,.26,0,.32,.04,.53,.28,.52,.58-.01,.31-.23,.54-.56,.54-.57,.01-1.14,0-1.71,0-.56,0-1.12,0-1.68,0Z"/><path class="d" d="M21.08,2.88c1.15,0,2.29,0,3.44,0,.36,0,.6,.23,.6,.56,0,.32-.22,.54-.57,.56-.09,0-.17,0-.26,0-2.14,0-4.28,0-6.42,0-.09,0-.17,0-.26,0-.34-.02-.58-.25-.57-.56,0-.32,.25-.56,.61-.56,1.15,0,2.29,0,3.44,0Z"/><path class="d" d="M7.75,4.04c-.31,0-.59-.27-.6-.58,0-.31,.26-.6,.57-.61,.32-.01,.61,.28,.61,.6,0,.31-.28,.59-.58,.6Z"/><path class="d" d="M4.07,3.45c0,.31-.28,.59-.59,.59-.32,0-.6-.3-.59-.62,.01-.31,.3-.59,.61-.57,.31,.01,.58,.3,.57,.61Z"/><path class="d" d="M5.6,4.04c-.31,0-.58-.28-.58-.6,0-.31,.28-.59,.58-.6,.32,0,.6,.29,.59,.61,0,.31-.29,.59-.6,.58Z"/><path class="d" d="M14.26,17.46c0-2.19,1.78-3.98,3.97-3.98,2.2,0,3.99,1.79,3.98,4,0,2.19-1.8,3.98-3.98,3.97-2.19,0-3.97-1.79-3.97-3.98Zm6.81,.01c0-1.57-1.25-2.84-2.81-2.85-1.58,0-2.86,1.27-2.86,2.84,0,1.55,1.28,2.83,2.84,2.84,1.56,0,2.83-1.26,2.84-2.83Z"/><path class="d" d="M18.22,10.52c-.11,0-.21,0-.32,0-.29-.03-.5-.25-.51-.53-.02-.3,.17-.55,.48-.59,.24-.03,.48-.03,.72,0,.31,.03,.51,.28,.5,.57,0,.3-.23,.53-.55,.56-.11,0-.21,0-.32,0h0Z"/><path class="d" d="M18.69,25.1c0,.31-.29,.59-.59,.59-.32,0-.6-.3-.59-.62,.01-.31,.31-.59,.61-.57,.31,.01,.58,.3,.58,.61Z"/><path class="d" d="M17.8,17.42c.35-.3,.68-.6,1.02-.88,.3-.26,.65-.25,.87,0,.23,.26,.18,.59-.13,.86-.47,.41-.94,.82-1.42,1.23-.35,.29-.67,.26-.94-.09-.14-.17-.27-.35-.4-.53-.22-.31-.2-.64,.07-.84,.26-.2,.58-.14,.83,.15,.03,.03,.05,.06,.1,.11Z"/></g></g></g></g></svg>