<?xml version="1.0" encoding="UTF-8"?><svg xmlns="http://www.w3.org/2000/svg" viewBox="0 0 28 28"><defs><style>.d{fill:#0091ff;}.e{fill:none;}</style></defs><g id="a"/><g id="b"><g id="c"><g><rect class="e" width="28" height="28"/><g><path class="d" d="M18.04,27.75c-.06-.02-.11-.04-.17-.06-.86-.22-1.51-.92-1.55-1.81-.05-1.12-.13-2.26,.12-3.37,.12-.51,.33-.99,.51-1.53l1.6,.88c-.45,.8-.52,1.64-.5,2.51,.01,.38,0,.75,0,1.13,0,.39,.08,.47,.47,.47,1.93,0,3.87,0,5.8,0,.43,0,.86,0,1.29,0,.31,0,.39-.08,.39-.4,0-.6,0-1.2,0-1.8,0-.76-.21-1.46-.6-2.13l1.48-.94c.39,.6,.7,1.24,.76,1.93,.09,1.08,.13,2.18,.1,3.27-.02,.85-.67,1.54-1.5,1.77-.07,.02-.13,.05-.2,.07h-8.01Z"/><path class="d" d="M.25,23.24c.13-.5,.24-1.01,.38-1.5,.07-.24,.2-.47,.32-.72l1.49,.82c-.14,.49-.34,.94-.37,1.41-.07,.82-.04,1.64-.03,2.47,0,.09,.15,.19,.25,.26,.06,.04,.16,.01,.24,.01,2.32,0,4.64,0,6.95,0,.43,0,.5-.06,.49-.5,0-.71,0-1.41-.04-2.12-.03-.61-.25-1.17-.58-1.71l1.48-.94c.33,.49,.58,1.01,.69,1.56,.11,.58,.17,1.18,.2,1.78,.03,.59,.03,1.18-.01,1.77-.07,.96-.68,1.65-1.61,1.87-.04,.01-.08,.03-.12,.05H2.03c-.29-.12-.61-.21-.88-.38-.5-.3-.74-.8-.9-1.34v-2.79Z"/><path class="d" d="M16.94,.25c1.33,0,2.65,0,3.98,0,1.31,0,2.17,.86,2.17,2.17,0,2.44,0,4.89,0,7.33,0,.14,0,.29-.04,.43-.14,.61-.83,.86-1.33,.48-.83-.63-1.67-1.26-2.5-1.9-.17-.13-.35-.19-.57-.19-1.89,0-3.78,0-5.67,0-1.36,0-2.2-.84-2.2-2.19,0-1.33,0-2.65,0-3.98,0-1.3,.85-2.15,2.15-2.15,1.33,0,2.67,0,4,0Zm4.38,7.88c0-1.97,0-3.88,0-5.78,0-.26-.09-.33-.4-.33-2.66,0-5.31,0-7.97,0-.33,0-.39,.05-.39,.39,0,1.32,0,2.63,0,3.95,0,.41,.04,.45,.44,.45,1.91,0,3.81,0,5.72,0,.57,0,1.07,.16,1.52,.51,.34,.27,.69,.53,1.09,.82Z"/><path class="d" d="M9.3,3.07v1.75c-.54,0-1.06,0-1.59,0-.21,0-.41,0-.62,0-.31,0-.4,.09-.4,.4,0,1.38,0,2.76,0,4.14,0,.5,0,1,0,1.56,.11-.08,.2-.13,.28-.19,.31-.23,.61-.46,.92-.69,.36-.27,.77-.41,1.22-.42,1.95,0,3.9,0,5.86,0,.05,0,.11,0,.18,.01v1.75h-.31c-1.84,0-3.67,0-5.51,0-.18,0-.39,.07-.54,.18-.77,.56-1.54,1.14-2.3,1.72-.35,.27-.74,.33-1.13,.14-.37-.18-.45-.53-.45-.91,0-2.44,0-4.87,0-7.31,0-1.28,.86-2.14,2.14-2.15,.66,0,1.33,0,1.99,0,.08,0,.16,0,.25,.02Z"/><path class="d" d="M6.01,21.93c-2.12,0-3.87-1.73-3.87-3.85,0-2.13,1.71-3.86,3.85-3.87,2.14,0,3.89,1.72,3.89,3.86,0,2.12-1.73,3.86-3.86,3.87Zm-2.1-3.86c0,1.16,.95,2.1,2.11,2.1,1.15,0,2.1-.96,2.09-2.11,0-1.16-.95-2.1-2.11-2.09-1.16,0-2.09,.94-2.09,2.11Z"/><path class="d" d="M22.04,21.93c-2.12,.01-3.86-1.72-3.88-3.85-.02-2.12,1.71-3.86,3.84-3.88,2.15-.02,3.88,1.71,3.89,3.85,0,2.13-1.71,3.86-3.85,3.87Zm2.08-3.87c0-1.16-.94-2.1-2.1-2.1-1.16,0-2.1,.95-2.1,2.1,0,1.15,.96,2.1,2.11,2.1,1.15,0,2.1-.95,2.1-2.11Z"/><path class="d" d="M14.37,5.33v-1.73h5.11v1.73h-5.11Z"/></g></g></g></g></svg>