<svg xmlns="http://www.w3.org/2000/svg" width="345" height="307" viewBox="0 0 345 307">
  <g id="Group_1765" data-name="Group 1765" transform="translate(-17703 -6859)">
    <rect id="Rectangle_2935" data-name="Rectangle 2935" width="345" height="307" transform="translate(17703 6859)" fill="none"/>
    <g id="Fast_loading-rafiki" data-name="Fast loading-rafiki" transform="translate(17691 6822.614)">
      <g id="freepik--background-complete--inject-75" transform="translate(13.805 52.412)">
        <rect id="Rectangle_3040" data-name="Rectangle 3040" width="341.344" height="0.19" transform="translate(0 248.824)" fill="#ebebeb"/>
        <rect id="Rectangle_3041" data-name="Rectangle 3041" width="69.084" height="0.19" transform="translate(234.184 256.059)" fill="#ebebeb"/>
        <rect id="Rectangle_3042" data-name="Rectangle 3042" width="18.916" height="0.19" transform="translate(207.887 254)" fill="#ebebeb"/>
        <rect id="Rectangle_3043" data-name="Rectangle 3043" width="29.328" height="0.19" transform="translate(236.353 263.12)" fill="#ebebeb"/>
        <rect id="Rectangle_3044" data-name="Rectangle 3044" width="17.206" height="0.19" transform="translate(39.87 261.843)" fill="#ebebeb"/>
        <rect id="Rectangle_3045" data-name="Rectangle 3045" width="20.436" height="0.19" transform="translate(56.977 261.843)" fill="#ebebeb"/>
        <rect id="Rectangle_3046" data-name="Rectangle 3046" width="35.598" height="0.19" transform="translate(120.305 258.636)" fill="#ebebeb"/>
        <path id="Path_33058" data-name="Path 33058" d="M189.29,269.928H42.542a4.34,4.34,0,0,1-4.332-4.34V59.3A4.34,4.34,0,0,1,42.542,55H189.29a4.34,4.34,0,0,1,4.34,4.34V265.588A4.34,4.34,0,0,1,189.29,269.928ZM42.542,55.152A4.15,4.15,0,0,0,38.4,59.3V265.588a4.15,4.15,0,0,0,4.142,4.15H189.29a4.157,4.157,0,0,0,4.15-4.15V59.3a4.157,4.157,0,0,0-4.15-4.15Z" transform="translate(-9.17 -55)" fill="#ebebeb"/>
        <path id="Path_33059" data-name="Path 33059" d="M405.6,269.928H258.84a4.347,4.347,0,0,1-4.34-4.34V59.3a4.347,4.347,0,0,1,4.34-4.3H405.6a4.34,4.34,0,0,1,4.324,4.3V265.588A4.34,4.34,0,0,1,405.6,269.928ZM258.84,55.152a4.157,4.157,0,0,0-4.15,4.15V265.588a4.157,4.157,0,0,0,4.15,4.15H405.6a4.157,4.157,0,0,0,4.15-4.15V59.3a4.157,4.157,0,0,0-4.15-4.15Z" transform="translate(-99.736 -55)" fill="#ebebeb"/>
        <rect id="Rectangle_3047" data-name="Rectangle 3047" width="79.747" height="88.601" transform="translate(289.312 107.441) rotate(180)" fill="#e6e6e6"/>
        <rect id="Rectangle_3048" data-name="Rectangle 3048" width="93.13" height="88.601" transform="translate(286.488 107.441) rotate(180)" fill="#f5f5f5"/>
        <rect id="Rectangle_3049" data-name="Rectangle 3049" width="77.216" height="74.83" transform="translate(277.984 24.54) rotate(90)" fill="#fff"/>
        <rect id="Rectangle_3050" data-name="Rectangle 3050" width="79.192" height="0.973" transform="translate(243.031 23.552) rotate(90)" fill="#f5f5f5"/>
        <rect id="Rectangle_3051" data-name="Rectangle 3051" width="101.87" height="205.504" transform="translate(154.953 229.36) rotate(180)" fill="#e6e6e6"/>
        <rect id="Rectangle_3052" data-name="Rectangle 3052" width="107.069" height="205.504" transform="translate(158.6 229.36) rotate(180)" fill="#f0f0f0"/>
        <rect id="Rectangle_3053" data-name="Rectangle 3053" width="187.568" height="89.125" transform="translate(144.217 32.817) rotate(90)" fill="#fff"/>
        <path id="Path_33060" data-name="Path 33060" d="M121.43,285.75,139.008,98.19H118.716L101.13,285.75Z" transform="translate(-32.955 -65.366)" fill="#fafafa"/>
        <path id="Path_33061" data-name="Path 33061" d="M145.326,285.75,162.912,98.19H152.759L135.18,285.75Z" transform="translate(-43.717 -65.366)" fill="#fafafa"/>
        <rect id="Rectangle_3054" data-name="Rectangle 3054" width="19.038" height="80.476" transform="translate(199.446 248.824) rotate(180)" fill="#e6e6e6"/>
        <path id="Path_33062" data-name="Path 33062" d="M276.933,378.891H265.86V367.78h22.686Z" transform="translate(-85.666 -130.067)" fill="#fafafa"/>
        <rect id="Rectangle_3055" data-name="Rectangle 3055" width="19.038" height="80.476" transform="translate(295.523 248.824) rotate(180)" fill="#e6e6e6"/>
        <rect id="Rectangle_3056" data-name="Rectangle 3056" width="122.763" height="76.654" transform="translate(289.431 244.994) rotate(180)" fill="#fafafa"/>
        <path id="Path_33063" data-name="Path 33063" d="M409.143,378.891h11.081V367.78H397.53Z" transform="translate(-131.772 -130.067)" fill="#fafafa"/>
        <rect id="Rectangle_3057" data-name="Rectangle 3057" width="105.579" height="19.182" transform="translate(286.549 216.091) rotate(180)" fill="#f0f0f0"/>
        <rect id="Rectangle_3058" data-name="Rectangle 3058" width="105.579" height="19.182" transform="translate(286.549 239.37) rotate(180)" fill="#f0f0f0"/>
        <path id="Path_33064" data-name="Path 33064" d="M3.473,0H68.917A3.481,3.481,0,0,1,72.4,3.481v.236H0V3.481A3.481,3.481,0,0,1,3.481,0Z" transform="translate(271.067 198.96) rotate(180)" fill="#fafafa"/>
        <rect id="Rectangle_3059" data-name="Rectangle 3059" width="105.579" height="19.182" transform="translate(286.549 192.804) rotate(180)" fill="#f0f0f0"/>
        <path id="Path_33065" data-name="Path 33065" d="M3.473,0H68.917A3.481,3.481,0,0,1,72.4,3.481v.236H0V3.481A3.481,3.481,0,0,1,3.473,0Z" transform="translate(271.067 175.674) rotate(180)" fill="#fafafa"/>
        <path id="Path_33066" data-name="Path 33066" d="M3.473,0H68.917A3.481,3.481,0,0,1,72.4,3.481v.236H0V3.481A3.481,3.481,0,0,1,3.473,0Z" transform="translate(271.067 222.247) rotate(180)" fill="#fafafa"/>
        <rect id="Rectangle_3060" data-name="Rectangle 3060" width="3.754" height="34.823" transform="translate(203.099 167.002) rotate(180)" fill="#f5f5f5"/>
        <rect id="Rectangle_3061" data-name="Rectangle 3061" width="1.056" height="34.823" transform="translate(201 166.98) rotate(180)" fill="#fafafa"/>
        <path id="Path_33067" data-name="Path 33067" d="M283.91,275.85h16.545a2.082,2.082,0,0,0-2.082-2.09H286A2.09,2.09,0,0,0,283.91,275.85Z" transform="translate(-91.087 -107.502)" fill="#f0f0f0"/>
        <path id="Path_33068" data-name="Path 33068" d="M285,254.691h0a1.087,1.087,0,0,0,1.079-1.079V234.4A1.087,1.087,0,0,0,285,233.32h0a1.087,1.087,0,0,0-1.087,1.079v19.2A1.087,1.087,0,0,0,285,254.691Z" transform="translate(-90.214 -97.797)" fill="#f0f0f0"/>
        <path id="Path_33069" data-name="Path 33069" d="M272.7,237.678h33.592l-1.193-3.314A11.18,11.18,0,0,0,294.6,227H284.4a11.18,11.18,0,0,0-10.5,7.364Z" transform="translate(-88.576 -96.28)" fill="#e0e0e0"/>
        <rect id="Rectangle_3062" data-name="Rectangle 3062" width="3.754" height="34.823" transform="translate(275.872 167.002) rotate(180)" fill="#f5f5f5"/>
        <rect id="Rectangle_3063" data-name="Rectangle 3063" width="1.056" height="34.823" transform="translate(273.733 166.98) rotate(180)" fill="#fafafa"/>
        <path id="Path_33070" data-name="Path 33070" d="M397,275.85H413.54a2.09,2.09,0,0,0-2.082-2.09h-12.4a2.09,2.09,0,0,0-2.082,2.09Z" transform="translate(-127.365 -107.502)" fill="#f0f0f0"/>
        <path id="Path_33071" data-name="Path 33071" d="M398.059,254.691h0a1.087,1.087,0,0,0,1.079-1.079V234.4a1.087,1.087,0,0,0-1.079-1.079h0a1.087,1.087,0,0,0-1.079,1.079v19.2A1.087,1.087,0,0,0,398.059,254.691Z" transform="translate(-126.142 -97.797)" fill="#f0f0f0"/>
        <path id="Path_33072" data-name="Path 33072" d="M385.76,237.678h33.622l-1.2-3.314A11.172,11.172,0,0,0,407.656,227H397.464a11.18,11.18,0,0,0-10.5,7.364Z" transform="translate(-131.239 -96.28)" fill="#e0e0e0"/>
      </g>
      <g id="freepik--Shadow--inject-75" transform="translate(42.644 318.351)">
        <ellipse id="freepik--path--inject-75" cx="147.356" cy="8.603" rx="147.356" ry="8.603" fill="#f5f5f5"/>
      </g>
      <g id="freepik--Speedometer--inject-75" transform="translate(57.927 44.215)">
        <path id="Path_33073" data-name="Path 33073" d="M166.379,111.353l-.479-.593a126.393,126.393,0,0,1,10.412-7.6l.418.638a124.907,124.907,0,0,0-10.351,7.554Z" transform="translate(-97.743 -58.362)" fill="#263238"/>
        <path id="Path_33074" data-name="Path 33074" d="M158.987,119.211l-.517-.562c1.018-.92,2.067-1.839,3.108-2.728l.494.585C161.031,117.387,160,118.3,158.987,119.211Z" transform="translate(-95.96 -61.424)" fill="#263238"/>
        <ellipse id="Ellipse_413" data-name="Ellipse 413" cx="87.582" cy="61.704" rx="87.582" ry="61.704" transform="translate(0 115.425) rotate(-41.22)" fill="#263238"/>
        <ellipse id="Ellipse_414" data-name="Ellipse 414" cx="75.977" cy="53.527" rx="75.977" ry="53.527" transform="translate(14.118 113.929) rotate(-41.22)" fill="#fff"/>
        <path id="Path_33075" data-name="Path 33075" d="M213.359,103.827c-32.9,2.668-66.629,31.16-75.339,63.582l119.145-9.644C265.875,125.312,246.259,101.167,213.359,103.827Z" transform="translate(-91.052 -58.474)" fill="#0091ff"/>
        <path id="Path_33076" data-name="Path 33076" d="M138,173.978l59.576-4.826L166.614,131C152.98,142.522,142.37,157.752,138,173.978Z" transform="translate(-91.047 -65.043)" fill="#fff" opacity="0.7"/>
        <path id="Path_33077" data-name="Path 33077" d="M222.39,103.89c-16.446,1.338-33.106,9.12-46.74,20.619l30.978,38.137L222.39,103.89Z" transform="translate(-100.083 -58.537)" fill="#fff" opacity="0.4"/>
        <path id="Path_33078" data-name="Path 33078" d="M232.172,103.827,216.41,162.582l53.268-44.954C261.752,107.87,248.626,102.5,232.172,103.827Z" transform="translate(-109.865 -58.474)" fill="#fff" opacity="0.1"/>
        <ellipse id="Ellipse_415" data-name="Ellipse 415" cx="31" cy="21.835" rx="31" ry="21.835" transform="translate(68.832 108.129) rotate(-41.22)" fill="#fff"/>
        <ellipse id="Ellipse_416" data-name="Ellipse 416" cx="18.088" cy="12.745" rx="18.088" ry="12.745" transform="translate(84.534 106.458) rotate(-41.22)" fill="#263238"/>
        <path id="Path_33079" data-name="Path 33079" d="M262.449,139.85a179.581,179.581,0,0,0-40,21.2l5.6,10.032a195.823,195.823,0,0,0,34.4-31.236Z" transform="translate(-111.315 -67.167)" fill="#263238"/>
        <path id="Path_33080" data-name="Path 33080" d="M146.619,214.457a1.148,1.148,0,0,1-1.178-1.4,2.075,2.075,0,0,1,1.794-1.642l65.5-5.191a1.148,1.148,0,0,1,1.292,1.391,2.052,2.052,0,0,1-1.786,1.634l-65.451,5.2Z" transform="translate(-92.826 -83.094)" fill="#0091ff"/>
        <path id="Path_33081" data-name="Path 33081" d="M221.168,223.763a1.14,1.14,0,0,1-1.178-1.4,2.052,2.052,0,0,1,1.794-1.634l21.28-1.695a1.148,1.148,0,0,1,1.3,1.391,2.067,2.067,0,0,1-1.794,1.642l-21.28,1.687Z" transform="translate(-110.717 -86.168)" fill="#0091ff"/>
        <path id="Path_33082" data-name="Path 33082" d="M78.769,259.583a1.148,1.148,0,0,1-1.178-1.4,2.067,2.067,0,0,1,1.824-1.634l21.28-1.695a1.155,1.155,0,0,1,1.3,1.391,2.067,2.067,0,0,1-1.786,1.642l-21.28,1.687Z" transform="translate(-76.542 -94.766)" fill="#0091ff"/>
        <path id="Path_33083" data-name="Path 33083" d="M103.711,242.148a1.14,1.14,0,0,1-1.17-1.4,2.06,2.06,0,0,1,1.786-1.634l63.84-5.069a1.155,1.155,0,0,1,1.3,1.391,2.075,2.075,0,0,1-1.794,1.642l-63.84,5.062Z" transform="translate(-82.529 -89.771)" fill="#0091ff"/>
      </g>
      <g id="freepik--Character--inject-75" transform="translate(146.59 114.139)">
        <path id="Path_33084" data-name="Path 33084" d="M284.39,332.991l2.706,5.464,13.384-4.811-2.706-5.464Z" transform="translate(-214.844 -182.29)" fill="#ff8b7b"/>
        <path id="Path_33085" data-name="Path 33085" d="M198.77,390.27l4.066,4.552,10.336-11.742-5.008-3.481Z" transform="translate(-194.295 -194.631)" fill="#ff8b7b"/>
        <path id="Path_33086" data-name="Path 33086" d="M202.35,396.717l-2.766-6.908a.509.509,0,0,0-.57-.312l-5.4,1.14a.927.927,0,0,0-.654,1.269c.927,2.2,1.7,3.8,2.82,6.566.692,1.725,2.592,6.992,3.549,9.371s3.382,1.649,3.207.578c-.813-4.78-.836-8.649-.16-10.6A1.52,1.52,0,0,0,202.35,396.717Z" transform="translate(-192.882 -197.004)" fill="#263238"/>
        <path id="Path_33087" data-name="Path 33087" d="M285.716,339.261l-2.956-5.974a.54.54,0,0,0-.6-.281l-5.4,1.33a.882.882,0,0,0-.585,1.269c1.1,2.136,2.766,5.183,4.112,7.889,1.566,3.169,1.778,3.268,3.618,6.977,1.11,2.242,3.686,1.748,3.428.707-1.186-4.742-1.847-5.563-1.391-10.389a2.835,2.835,0,0,0-.228-1.528Z" transform="translate(-212.849 -183.445)" fill="#263238"/>
        <path id="Path_33088" data-name="Path 33088" d="M354.593,204.736c-.281,1.976-.585,4.1-.821,6.164s-.471,4.157-.646,6.232a88.347,88.347,0,0,0-.365,12.206,11.24,11.24,0,0,0,.106,1.452l.137,1.353a1.908,1.908,0,0,0,1.3,1.816,8.315,8.315,0,0,0,2.166.654,25.842,25.842,0,0,0,5.654.213c1-.068,2.014-.144,3.04-.266s2.067-.281,3.04-.426l1.474,4.34a33.441,33.441,0,0,1-3.222,1.315,32.677,32.677,0,0,1-3.306,1.034,30.14,30.14,0,0,1-3.488.707,21.551,21.551,0,0,1-3.754.243,15.283,15.283,0,0,1-4.165-.631,10.42,10.42,0,0,1-4.362-2.622,9.918,9.918,0,0,1-2.523-4.765c-.053-.236-.076-.365-.1-.517l-.076-.441-.16-.9c-.114-.593-.19-1.178-.258-1.763a78.541,78.541,0,0,1-.289-13.68c.144-2.234.3-4.454.578-6.658s.54-4.37.965-6.658Z" transform="translate(-229.104 -152.281)" fill="#ff8b7b"/>
        <path id="Path_33089" data-name="Path 33089" d="M344.335,197.154c-4,4.248-2.386,14.972-2.386,14.972l11.233,1.748a25.443,25.443,0,0,0,1.626-12.35C353.607,193.908,348.705,192.48,344.335,197.154Z" transform="translate(-228.581 -150.201)" fill="#0091ff"/>
        <path id="Path_33090" data-name="Path 33090" d="M347.986,203.221c-1.854-2.386-3.8-3.238-4.834-3.04-2.485,4.872-1.224,13.277-1.224,13.277l7.957,1.292A13.214,13.214,0,0,0,347.986,203.221Z" transform="translate(-228.577 -151.564)" opacity="0.2"/>
        <path id="Path_33091" data-name="Path 33091" d="M373.94,243.441l6.513-4.271,1.444,6.612s-4.051,4.1-7.425,1.208Z" transform="translate(-236.336 -160.928)" fill="#ff8b7b"/>
        <path id="Path_33092" data-name="Path 33092" d="M386.513,237.29l.752,5.715-3.314,2.326-1.452-6.612Z" transform="translate(-238.39 -160.477)" fill="#ff8b7b"/>
        <path id="Path_33093" data-name="Path 33093" d="M302.519,333.652l-6.893,2.478-2.706-5.472,6.893-2.478Z" transform="translate(-216.891 -182.29)" opacity="0.2"/>
        <path id="Path_33094" data-name="Path 33094" d="M209.6,379.6l5.008,3.481-4.849,5.5-5.008-3.488Z" transform="translate(-195.73 -194.631)" opacity="0.2"/>
        <path id="Path_33095" data-name="Path 33095" d="M308.853,178.71c-4.621,23.644-16.925,44.977-18.643,49.689,4.408,1.847,21.044,8.778,30.111,12.555,16.91-25.164,19.5-43.373,19.889-47.781a1.809,1.809,0,0,0-.76-1.634c-.722-.524-1.877-1.345-3.283-2.28-.76-.486-1.573-1-2.447-1.52-.479-.281-.973-.555-1.474-.821a120.844,120.844,0,0,0-12.806-5.32c-.821-.3-1.664-.585-2.493-.844s-1.52-.464-2.242-.661C311.467,179.227,308.853,178.71,308.853,178.71Z" transform="translate(-216.241 -146.418)" fill="#0091ff"/>
        <path id="Path_33096" data-name="Path 33096" d="M334.6,218.28l1.664.426a9.523,9.523,0,0,1-3.9,2.28,9.424,9.424,0,0,1-5.138.076,7.6,7.6,0,0,1-3.922-2.143,4.955,4.955,0,0,1-1.231-3.724,11.232,11.232,0,0,1,1.322-4.56,15.9,15.9,0,0,1,3.511-4.56,11.4,11.4,0,0,1,4.56-2.614,9.036,9.036,0,0,1,4.7-.076,5.647,5.647,0,0,1,3.04,1.778,4.605,4.605,0,0,1,1.049,3.184,8.74,8.74,0,0,1-1.056,3.8,10.99,10.99,0,0,1-3.4,3.922c-1.847,1.33-3.572,1.786-5.168,1.383a1.262,1.262,0,0,1-.844-.509,1.17,1.17,0,0,1,0-.889,3.64,3.64,0,0,1-2.66.509,2.06,2.06,0,0,1-1.611-1.6,4.309,4.309,0,0,1,.585-3,10.921,10.921,0,0,1,3.04-3.671q2.356-1.847,4.309-1.36a1.7,1.7,0,0,1,1.414,1.763l.714-.965,2.06.524-4.56,6.27a7.6,7.6,0,0,0-.524.76.669.669,0,0,0-.091.372.213.213,0,0,0,.16.167,2.2,2.2,0,0,0,1.239-.289,7.493,7.493,0,0,0,2.28-1.52,8.633,8.633,0,0,0,1.748-2.28,5.32,5.32,0,0,0,.555-4.127,3.938,3.938,0,0,0-3.1-2.493,7.311,7.311,0,0,0-4.1.106,9.394,9.394,0,0,0-3.686,2.28,14.105,14.105,0,0,0-2.721,3.64,8.055,8.055,0,0,0-.98,3.732,3.96,3.96,0,0,0,1.14,2.9,6.574,6.574,0,0,0,3.04,1.6,8.641,8.641,0,0,0,3.526.2A7.478,7.478,0,0,0,334.6,218.28Zm-6.506-5.89a3.139,3.139,0,0,0-.479,1.809.92.92,0,0,0,.714.806,1.763,1.763,0,0,0,.965-.046,3.459,3.459,0,0,0,.882-.433,7.517,7.517,0,0,0,1.558-1.452,10.214,10.214,0,0,0,1.33-1.923,2.774,2.774,0,0,0,.4-1.687.95.95,0,0,0-.76-.821,2.2,2.2,0,0,0-1.558.3,6.026,6.026,0,0,0-1.748,1.52A11.136,11.136,0,0,0,328.093,212.39Z" transform="translate(-223.884 -152.274)" fill="#fff"/>
        <path id="Path_33097" data-name="Path 33097" d="M335.993,164.45c-.9,4.454-3.245,12.342-7.273,13.885,1.307,3.162,3.162,6.954,7.988,9.166s5.366-1.52,4.811-3.8c-4.134-3.04-2.592-6.369-.464-9.234Z" transform="translate(-225.483 -142.995)" fill="#ff8b7b"/>
        <path id="Path_33098" data-name="Path 33098" d="M340.638,169.81l2.994,5.905a13.875,13.875,0,0,0-1.338,2.113c-1.649-.988-3.26-3.922-2.683-5.837a6.709,6.709,0,0,1,1.026-2.181Z" transform="translate(-228.069 -144.282)" opacity="0.2"/>
        <path id="Path_33099" data-name="Path 33099" d="M353.249,160.532c4.765.35,8.983-11.537,2.029-12.92-4.689-.935-4.644,1.87-5.138,4.94S350.232,160.312,353.249,160.532Z" transform="translate(-230.587 -138.91)" fill="#263238"/>
        <path id="Path_33100" data-name="Path 33100" d="M338.574,154.641c-1.224,5.928-2.242,9.333-.114,13.133,3.207,5.708,11.126,4.993,14.106-.448,2.675-4.9,4.233-13.771-.844-17.647a8.261,8.261,0,0,0-13.148,4.963Z" transform="translate(-227.525 -139.038)" fill="#ff8b7b"/>
        <path id="Path_33101" data-name="Path 33101" d="M336.4,158.51c4.765.35,7.957-10.518,1-11.909-4.689-.935-5.084,1.809-5.008,4.742C332.474,154.46,333.378,158.26,336.4,158.51Z" transform="translate(-226.364 -138.667)" fill="#263238"/>
        <path id="Path_33102" data-name="Path 33102" d="M339.452,147.749c3.215,1.558,18.711,4.894,17.822-1.771s-9.166-9.758-9.166-9.758,4.818,5.282.844,4.013-5.115-2.2-9.88-3.04c0,0,4.682,3.884-.76,2.789a12.92,12.92,0,0,0-9.242,1.474,9.188,9.188,0,0,1,4.013,8.565C332.71,155.881,339.452,147.749,339.452,147.749Z" transform="translate(-225.567 -136.22)" fill="#263238"/>
        <path id="Path_33103" data-name="Path 33103" d="M333.991,161.757a5.32,5.32,0,0,0,2.067,3.458c1.459,1.072,2.789-.16,2.888-1.938.084-1.6-.57-4.1-2.28-4.454S333.763,160.04,333.991,161.757Z" transform="translate(-226.742 -141.633)" fill="#ff8b7b"/>
        <path id="Path_33104" data-name="Path 33104" d="M301.407,249.81l-6.338,20.414,32.627,20.52c-5.632,9.394-34.246,18.742-34.246,18.742l4.56,9.257s39.847-3.04,47.926-20.657c7.775-16.918-24.852-40.067-24.852-40.067Z" transform="translate(-217.018 -163.482)" fill="#263238"/>
        <path id="Path_33105" data-name="Path 33105" d="M307.692,281.078,302,277.514l7.007-10.184S309.2,275.492,307.692,281.078Z" transform="translate(-219.07 -167.686)" opacity="0.2"/>
        <path id="Path_33106" data-name="Path 33106" d="M307.692,281.078,302,277.514l7.007-10.184S309.2,275.492,307.692,281.078Z" transform="translate(-219.07 -167.686)" opacity="0.2"/>
        <path id="Path_33107" data-name="Path 33107" d="M292.414,253.7S266.1,297.46,255.242,311.657c-11.894,15.55-42.689,44.84-42.689,44.84l-9.173-6.384s26.6-29.321,36.624-45.547c11.438-18.483,29.366-60.5,29.366-60.5Z" transform="translate(-195.402 -162.104)" fill="#263238"/>
        <path id="Path_33108" data-name="Path 33108" d="M213.3,389.889l-10.8-7.509,2.242-3.23,12.221,8.185Z" transform="translate(-195.19 -194.523)" fill="#0091ff"/>
        <path id="Path_33109" data-name="Path 33109" d="M298.224,338.141l-5.464-11.028,3.564-1.763,6.293,12.236Z" transform="translate(-216.853 -181.611)" fill="#0091ff"/>
        <path id="Path_33110" data-name="Path 33110" d="M350.054,161.833c-.129.471,0,.927.327,1.011s.669-.228.8-.707,0-.927-.334-1.011S350.184,161.361,350.054,161.833Z" transform="translate(-230.592 -142.194)" fill="#263238"/>
        <path id="Path_33111" data-name="Path 33111" d="M357.114,163.772c-.129.479,0,.927.327,1.011s.669-.228.8-.707,0-.927-.327-1.011S357.244,163.286,357.114,163.772Z" transform="translate(-232.286 -142.66)" fill="#263238"/>
        <path id="Path_33112" data-name="Path 33112" d="M354.414,163.68a17.678,17.678,0,0,0,1.163,4.682,2.842,2.842,0,0,1-2.386-.2Z" transform="translate(-231.356 -142.81)" fill="#ff5652"/>
        <path id="Path_33113" data-name="Path 33113" d="M349.388,169.761a4.089,4.089,0,0,1-2.28-2.28.148.148,0,0,1,.281-.091,3.876,3.876,0,0,0,2.66,2.28.137.137,0,0,1,.106.175.144.144,0,0,1-.182.1,4.278,4.278,0,0,1-.585-.182Z" transform="translate(-229.895 -143.677)" fill="#263238"/>
        <path id="Path_33114" data-name="Path 33114" d="M348.454,158.831a.334.334,0,0,1-.114-.091.281.281,0,0,1,.053-.4,2.88,2.88,0,0,1,2.584-.54.3.3,0,0,1,.175.372.289.289,0,0,1-.365.175h0a2.28,2.28,0,0,0-2.044.448A.3.3,0,0,1,348.454,158.831Z" transform="translate(-230.177 -141.373)" fill="#263238"/>
        <path id="Path_33115" data-name="Path 33115" d="M360.325,161.6a.281.281,0,0,1-.167-.213,2.28,2.28,0,0,0-1.231-1.687.289.289,0,1,1,.22-.532,2.858,2.858,0,0,1,1.573,2.113.281.281,0,0,1-.228.334.251.251,0,0,1-.167-.015Z" transform="translate(-232.685 -141.72)" fill="#263238"/>
        <path id="Path_33116" data-name="Path 33116" d="M204.925,401.517a7.01,7.01,0,0,1-.4-1.573.152.152,0,0,1,.068-.152.129.129,0,0,1,.152,0c.213.144,2.044,1.474,1.984,2.242a.5.5,0,0,1-.281.4.844.844,0,0,1-.813,0A1.771,1.771,0,0,1,204.925,401.517Zm-.038-1.269c.19,1.049.524,1.771.9,1.968a.547.547,0,0,0,.547-.038c.106-.046.122-.106.122-.152C206.483,401.631,205.586,400.8,204.887,400.248Z" transform="translate(-195.677 -199.471)" fill="#0091ff"/>
        <path id="Path_33117" data-name="Path 33117" d="M204.537,399.831a.152.152,0,0,1,.091-.2c.068,0,1.725-.608,2.523-.19a.76.76,0,0,1,.4.494h0a.494.494,0,0,1-.175.585c-.57.4-2.28-.19-2.8-.631a.167.167,0,0,1-.038-.061Zm2.713.129a.5.5,0,0,0-.236-.251,3.321,3.321,0,0,0-2.014.114c.669.388,1.877.692,2.219.456,0,0,.1-.068.053-.251h0Z" transform="translate(-195.677 -199.358)" fill="#0091ff"/>
        <path id="Path_33118" data-name="Path 33118" d="M288.118,342.389a.137.137,0,0,1,.061-.137.152.152,0,0,1,.167,0c.251.19,2.447,1.832,2.409,2.683a.456.456,0,0,1-.236.38h0a.76.76,0,0,1-.76.068c-.828-.334-1.391-2.006-1.649-2.972Zm2.348,2.47c-.061-.479-1.11-1.444-1.953-2.113.4,1.307.9,2.181,1.36,2.371a.524.524,0,0,0,.494-.046.16.16,0,0,0,.1-.152Z" transform="translate(-215.737 -185.662)" fill="#0091ff"/>
        <path id="Path_33119" data-name="Path 33119" d="M288.12,342.286v-.038a.129.129,0,0,1,.091-.114,4.28,4.28,0,0,1,2.523-.19,1.034,1.034,0,0,1,.578.608h0a.529.529,0,0,1-.122.661c-.57.4-2.4-.319-3.04-.836A.129.129,0,0,1,288.12,342.286Zm2.956.509a.448.448,0,0,0-.038-.144h0a.76.76,0,0,0-.426-.448,3.336,3.336,0,0,0-2.037.114c.76.471,2.105.9,2.447.661a.167.167,0,0,0,.046-.182Zm.1-.2Z" transform="translate(-215.739 -185.558)" fill="#0091ff"/>
        <path id="Path_33120" data-name="Path 33120" d="M301.286,186.367l-2.4-1.6c-.828-.54-1.672-1.064-2.516-1.588-1.695-1.041-3.412-2.029-5.145-2.979s-3.488-1.816-5.259-2.592c-.882-.4-1.771-.76-2.66-1.1l-1.33-.471-.334-.114-.167-.061h0a.22.22,0,0,1-.122-.053,6.642,6.642,0,0,0-1.908.114,21.027,21.027,0,0,0-2.584.646,57,57,0,0,0-5.495,2.067c-3.686,1.588-7.44,3.4-11.088,5.244l-2.576-3.8a81.9,81.9,0,0,1,10.511-7.6,52.977,52.977,0,0,1,5.951-3.124,28.94,28.94,0,0,1,3.412-1.231,13.726,13.726,0,0,1,4.317-.6,10.284,10.284,0,0,1,1.429.175l.357.084.213.053.418.106,1.672.433c1.094.327,2.2.654,3.245,1.056a58.586,58.586,0,0,1,6.179,2.614c2,.958,3.937,2.022,5.829,3.146.935.578,1.87,1.163,2.789,1.771s1.8,1.216,2.789,1.953Z" transform="translate(-208.438 -143.731)" fill="#ff8b7b"/>
        <path id="Path_33121" data-name="Path 33121" d="M321.262,181.341c-1.345-3.329-14.06-7.881-14.06-7.881l-4.112,10.731s4.446,2.941,8.132,5.145C318.222,193.554,323.891,187.892,321.262,181.341Z" transform="translate(-219.332 -145.158)" fill="#0091ff"/>
        <path id="Path_33122" data-name="Path 33122" d="M260.646,185.984l-2.576,5.586-3.929-5.092s2.964-4.986,5.077-3.04Z" transform="translate(-207.584 -147.444)" fill="#ff8b7b"/>
        <path id="Path_33123" data-name="Path 33123" d="M251.531,194.428l-1.991-4.469,3.5-2.379,3.929,5.092Z" transform="translate(-206.48 -148.546)" fill="#ff8b7b"/>
      </g>
    </g>
  </g>
</svg>
