<svg xmlns="http://www.w3.org/2000/svg" width="345" height="307" viewBox="0 0 345 307">
  <g id="Group_1673" data-name="Group 1673" transform="translate(-15252 -4926)">
    <g id="Group_903" data-name="Group 903" transform="translate(1154 674)" opacity="0">
      <rect id="Rectangle_1318" data-name="Rectangle 1318" width="345" height="307" transform="translate(14098 4252)" fill="#fff"/>
    </g>
    <g id="Working-rafiki" transform="translate(15206.313 4852.08)">
      <g id="freepik--background-simple--inject-25" transform="translate(66.353 127.726)" opacity="0">
        <path id="Path_23530" data-name="Path 23530" d="M360.723,291.872c-8.624,14.584-36.339,19.921-51.014,19-16.883-1.071-30.487-11.413-42.274-21.581-14.874-12.791-24.27-19.647-45.652-16.2-18.834,3.03-36.7,9.62-55.82,10.79-39.095,2.49-84.207-3.478-95.122-43.262-10.01-36.48,11.986-73.043,55.322-72.894,36.6.141,36.522,45.652,76.637,31.06,37.352-13.621,43.162-66.2,89.536-62.178,46.1,4.009,16.169,58.277,17.431,87.743.83,18.908,22.735,10.384,37.227,18.153C364.508,251.939,371.638,273.42,360.723,291.872Z" transform="translate(-68.45 -136.387)" fill="#0091ff"/>
        <path id="Path_23531" data-name="Path 23531" d="M360.723,291.872c-8.624,14.584-36.339,19.921-51.014,19-16.883-1.071-30.487-11.413-42.274-21.581-14.874-12.791-24.27-19.647-45.652-16.2-18.834,3.03-36.7,9.62-55.82,10.79-39.095,2.49-84.207-3.478-95.122-43.262-10.01-36.48,11.986-73.043,55.322-72.894,36.6.141,36.522,45.652,76.637,31.06,37.352-13.621,43.162-66.2,89.536-62.178,46.1,4.009,16.169,58.277,17.431,87.743.83,18.908,22.735,10.384,37.227,18.153C364.508,251.939,371.638,273.42,360.723,291.872Z" transform="translate(-68.45 -136.387)" fill="#fff" opacity="0.9"/>
      </g>
      <g id="freepik--Shadow--inject-25" transform="translate(56.11 350.619)">
        <ellipse id="freepik--path--inject-25" cx="160.936" cy="9.396" rx="160.936" ry="9.396" transform="translate(0 0)" fill="#f5f5f5"/>
      </g>
      <g id="freepik--Gear--inject-25" transform="translate(192.203 85.43)">
        <path id="Path_23532" data-name="Path 23532" d="M292.864,114.041a35.109,35.109,0,0,0-2.673-6.441l1.66-5.437L281.119,91.423l-5.437,1.66a35.111,35.111,0,0,0-6.441-2.673l-2.673-4.98h-15.19l-2.664,4.98a34.861,34.861,0,0,0-6.441,2.673l-5.437-1.66L226.1,102.164l1.66,5.437a35.691,35.691,0,0,0-2.664,6.441l-5.022,2.673V131.9l5.022,2.664a35.417,35.417,0,0,0,2.664,6.441l-1.66,5.437,10.741,10.741,5.437-1.66a35.417,35.417,0,0,0,6.441,2.664l2.664,4.98h15.19l2.673-4.98a35.691,35.691,0,0,0,6.441-2.664l5.437,1.66,10.741-10.741-1.66-5.437a34.861,34.861,0,0,0,2.673-6.441l5.022-2.664v-15.19Zm-33.89,31.84A21.581,21.581,0,1,1,280.555,124.3a21.581,21.581,0,0,1-21.581,21.581Z" transform="translate(-220.07 -85.43)" fill="#0091ff"/>
        <path id="Path_23533" data-name="Path 23533" d="M292.864,114.041a35.109,35.109,0,0,0-2.673-6.441l1.66-5.437L281.119,91.423l-5.437,1.66a35.111,35.111,0,0,0-6.441-2.673l-2.673-4.98h-15.19l-2.664,4.98a34.861,34.861,0,0,0-6.441,2.673l-5.437-1.66L226.1,102.164l1.66,5.437a35.691,35.691,0,0,0-2.664,6.441l-5.022,2.673V131.9l5.022,2.664a35.417,35.417,0,0,0,2.664,6.441l-1.66,5.437,10.741,10.741,5.437-1.66a35.417,35.417,0,0,0,6.441,2.664l2.664,4.98h15.19l2.673-4.98a35.691,35.691,0,0,0,6.441-2.664l5.437,1.66,10.741-10.741-1.66-5.437a34.861,34.861,0,0,0,2.673-6.441l5.022-2.664v-15.19Zm-33.89,31.84A21.581,21.581,0,1,1,280.555,124.3a21.581,21.581,0,0,1-21.581,21.581Z" transform="translate(-220.07 -85.43)" fill="#fff" opacity="0.2"/>
        <path id="Path_23534" data-name="Path 23534" d="M265.475,123.65a7.155,7.155,0,1,0,7.155,7.155,7.155,7.155,0,0,0-7.155-7.155Z" transform="translate(-226.571 -91.926)" fill="#0091ff"/>
        <path id="Path_23535" data-name="Path 23535" d="M416.7,140.551a50.768,50.768,0,0,0-3.81-9.213h0l2.374-7.769-15.331-15.331-7.777,2.382h0a48.235,48.235,0,0,0-9.205-3.818h0l-3.81-7.172H357.436l-3.818,7.172a48.682,48.682,0,0,0-9.205,3.818h0l-7.769-2.382L321.3,123.585l2.374,7.769h0a49.6,49.6,0,0,0-3.81,9.213l-7.18,3.81v21.705l7.172,3.818h0a49.3,49.3,0,0,0,3.81,9.205h0l-2.374,7.761,15.347,15.347,7.769-2.374a48.648,48.648,0,0,0,9.213,3.8l3.818,7.18h21.705l3.81-7.172h0a49.32,49.32,0,0,0,9.205-3.818l7.777,2.374,15.347-15.347-2.374-7.769h0a50.444,50.444,0,0,0,3.793-9.205h0l7.172-3.818V144.361Zm-48.416,54.011a39.352,39.352,0,1,1,39.352-39.352,39.352,39.352,0,0,1-39.352,39.352Z" transform="translate(-235.81 -87.843)" fill="#0091ff"/>
        <path id="Path_23536" data-name="Path 23536" d="M372.742,125.83a33.841,33.841,0,1,0,33.849,33.843A33.839,33.839,0,0,0,372.742,125.83Zm0,63.174a29.334,29.334,0,1,1,29.325-29.331A29.334,29.334,0,0,1,372.742,189Z" transform="translate(-240.268 -92.296)" fill="#0091ff"/>
        <path id="Path_23537" data-name="Path 23537" d="M372.742,125.83a33.841,33.841,0,1,0,33.849,33.843A33.839,33.839,0,0,0,372.742,125.83Zm0,63.174a29.334,29.334,0,1,1,29.325-29.331A29.334,29.334,0,0,1,372.742,189Z" transform="translate(-240.268 -92.296)" opacity="0.2"/>
        <path id="Path_23538" data-name="Path 23538" d="M285.83,235.48a.83.83,0,0,1-.83-.83v-1.66a.83.83,0,1,1,1.66,0v1.66A.83.83,0,0,1,285.83,235.48Z" transform="translate(-231.106 -110.369)" fill="#0091ff"/>
        <path id="Path_23539" data-name="Path 23539" d="M269.753,209.8a4.49,4.49,0,0,1-1.71-2.034.831.831,0,1,0-1.527.656,6.267,6.267,0,0,0,2.332,2.772.831.831,0,1,0,.9-1.394Z" transform="translate(-227.953 -106.137)" fill="#0091ff"/>
        <path id="Path_23540" data-name="Path 23540" d="M266.77,196.839a.83.83,0,0,0,.83-.83V192.83a.83.83,0,0,0-1.66,0v3.179A.83.83,0,0,0,266.77,196.839Z" transform="translate(-227.866 -103.543)" fill="#0091ff"/>
        <path id="Path_23541" data-name="Path 23541" d="M276.527,211.2H273.34a.83.83,0,1,0,0,1.66h3.187a.83.83,0,0,0,0-1.66Z" transform="translate(-228.983 -106.806)" fill="#0091ff"/>
        <path id="Path_23542" data-name="Path 23542" d="M267.6,203.679V200.5a.83.83,0,0,0-1.66,0v3.179a.83.83,0,0,0,1.66,0Z" transform="translate(-227.866 -104.846)" fill="#0091ff"/>
        <path id="Path_23543" data-name="Path 23543" d="M286.608,217.552a.815.815,0,1,0-1.61.249,4.448,4.448,0,0,1,.042.581v2.49a.83.83,0,1,0,1.66,0v-2.49A6.423,6.423,0,0,0,286.608,217.552Z" transform="translate(-231.103 -107.763)" fill="#0091ff"/>
        <path id="Path_23544" data-name="Path 23544" d="M285.83,224.49a.83.83,0,0,0-.83.83v3.187a.83.83,0,0,0,1.66,0V225.32A.83.83,0,0,0,285.83,224.49Z" transform="translate(-231.106 -109.065)" fill="#0091ff"/>
        <path id="Path_23545" data-name="Path 23545" d="M284.287,213.335a6.15,6.15,0,0,0-3.079-1.9.831.831,0,0,0-.415,1.61,4.474,4.474,0,0,1,2.249,1.386.829.829,0,0,0,1.245-1.1Z" transform="translate(-230.284 -106.842)" fill="#0091ff"/>
        <path id="Path_23546" data-name="Path 23546" d="M266.77,189.44a.83.83,0,0,1-.83-.83v-1.66a.83.83,0,0,1,1.66,0v1.66A.83.83,0,0,1,266.77,189.44Z" transform="translate(-227.866 -102.544)" fill="#0091ff"/>
      </g>
      <g id="freepik--Desk--inject-25" transform="translate(94.059 215.049)">
        <rect id="Rectangle_1558" data-name="Rectangle 1558" width="192.187" height="3.079" transform="translate(0 37.285)" fill="#0091ff"/>
        <rect id="Rectangle_1559" data-name="Rectangle 1559" width="41.701" height="3.079" transform="translate(233.888 40.365) rotate(180)" fill="#0091ff"/>
        <rect id="Rectangle_1560" data-name="Rectangle 1560" width="41.701" height="3.079" transform="translate(233.888 40.365) rotate(180)" opacity="0.2"/>
        <path id="Path_23547" data-name="Path 23547" d="M323.231,293.515H117.2l-6.889-3.3H330.121Z" transform="translate(-103.271 -249.855)" fill="#0091ff"/>
        <path id="Path_23548" data-name="Path 23548" d="M323.231,293.515H117.2l-6.889-3.3H330.121Z" transform="translate(-103.271 -249.855)" fill="#fff" opacity="0.6"/>
        <path id="Path_23549" data-name="Path 23549" d="M126.11,294.19v98.227h2.64l3.32-98.227Z" transform="translate(-105.957 -250.53)" fill="#0091ff"/>
        <path id="Path_23550" data-name="Path 23550" d="M163.65,294.19v98.227h2.64l3.32-98.227Z" transform="translate(-112.337 -250.53)" fill="#0091ff"/>
        <path id="Path_23551" data-name="Path 23551" d="M365.61,294.19v98.227h-2.631L359.65,294.19Z" transform="translate(-145.65 -250.53)" fill="#0091ff"/>
        <path id="Path_23552" data-name="Path 23552" d="M328.08,294.19v98.227h-2.64l-3.32-98.227Z" transform="translate(-139.271 -250.53)" fill="#0091ff"/>
        <path id="Path_23553" data-name="Path 23553" d="M251.915,241.59l-8.674,35.335h0L243,278.875h59.829l.249-1.951,8.666-35.335Z" transform="translate(-125.824 -241.59)" fill="#0091ff"/>
        <path id="Path_23554" data-name="Path 23554" d="M251.915,241.59l-8.674,35.335h0L243,278.875h59.829l.249-1.951,8.666-35.335Z" transform="translate(-125.824 -241.59)" opacity="0.3"/>
        <path id="Path_23555" data-name="Path 23555" d="M309.583,241.59H249.746l-8.666,35.335h59.829Z" transform="translate(-125.497 -241.59)" fill="#0091ff"/>
        <path id="Path_23556" data-name="Path 23556" d="M300.061,275.638l7.885-32.1H251.437l-7.877,32.1Z" transform="translate(-125.919 -241.921)" fill="#fff"/>
        <path id="Path_23557" data-name="Path 23557" d="M280.839,284.16l-.249,1.951H214.71l.241-1.951Z" transform="translate(-121.015 -248.825)" fill="#0091ff"/>
        <path id="Path_23558" data-name="Path 23558" d="M280.839,284.16l-.249,1.951H214.71l.241-1.951Z" transform="translate(-121.015 -248.825)" fill="#fff" opacity="0.6"/>
        <path id="Path_23559" data-name="Path 23559" d="M141.469,277.454a5.271,5.271,0,0,0-4.673-5.063v-.955a.415.415,0,0,0-.432-.407H127.4a.423.423,0,0,0-.44.407v12.451H136.8v-1.361A5.262,5.262,0,0,0,141.469,277.454Zm-4.673,3.461V274a3.494,3.494,0,0,1,0,6.914Z" transform="translate(-106.101 -246.594)" fill="#0091ff"/>
        <path id="Path_23560" data-name="Path 23560" d="M346.56,282.773h8.334l-2.465-18.253H346.56Z" transform="translate(-143.425 -245.487)" fill="#263238"/>
        <path id="Path_23561" data-name="Path 23561" d="M331.84,282.135h15.787l2.93-21.365H334.778Z" transform="translate(-140.923 -244.85)" fill="#0091ff"/>
        <path id="Path_23562" data-name="Path 23562" d="M331.84,282.135h15.787l2.93-21.365H334.778Z" transform="translate(-140.923 -244.85)" opacity="0.3"/>
        <path id="Path_23563" data-name="Path 23563" d="M329.3,282.135h16.426l2.938-21.365H332.238Z" transform="translate(-140.491 -244.85)" fill="#0091ff"/>
        <path id="Path_23564" data-name="Path 23564" d="M344.667,280.8l2.474-18H334.084l-2.474,18Z" transform="translate(-140.884 -245.195)" fill="#fff" opacity="0.4"/>
      </g>
      <g id="freepik--Character--inject-25" transform="translate(154.183 167.791)">
        <path id="Path_23565" data-name="Path 23565" d="M193.584,247.147l-.681.73-.73.83c-.49.564-.979,1.137-1.444,1.726-.93,1.179-1.826,2.382-2.664,3.619a38.688,38.688,0,0,0-4.15,7.67,23.729,23.729,0,0,0-1.179,3.968c-.133.764-.216,1.1-.257,1.419a2.225,2.225,0,0,0,0,.78,3.237,3.237,0,0,0,1.66,1.868,11.617,11.617,0,0,0,1.76.888q.481.2,1,.374c.315.116.714.232.963.332v4.574c-.581.083-1,.149-1.494.183a9.428,9.428,0,0,1-1.453,0,14.109,14.109,0,0,1-2.988-.382,11.2,11.2,0,0,1-3.138-1.262,9.081,9.081,0,0,1-2.889-2.681,9.687,9.687,0,0,1-1.511-3.868,8.2,8.2,0,0,1-.108-.979,9.083,9.083,0,0,1,0-.946v-.465a2.487,2.487,0,0,1,0-.374l.066-.73a28.8,28.8,0,0,1,1.2-5.586,41.452,41.452,0,0,1,4.706-9.894,47.832,47.832,0,0,1,3.129-4.358c.556-.7,1.129-1.378,1.726-2.05.291-.34.6-.672.913-1s.606-.623,1.038-1.038Z" transform="translate(-174.265 -194.146)" fill="#b55b52"/>
        <path id="Path_23566" data-name="Path 23566" d="M188.65,276.969l3.868-2.839,2.2,7.952s-3.428,1.27-6.043-.44Z" transform="translate(-176.71 -199.863)" fill="#b55b52"/>
        <path id="Path_23567" data-name="Path 23567" d="M198.68,271.83l1.511,6.657-4.681,3.2-2.2-7.952Z" transform="translate(-177.502 -199.472)" fill="#b55b52"/>
        <path id="Path_23568" data-name="Path 23568" d="M229.234,211.6c-.174.49-.05.979.274,1.087s.722-.191.888-.681.05-.988-.266-1.1S229.408,211.106,229.234,211.6Z" transform="translate(-183.594 -189.115)" fill="#263238"/>
        <path id="Path_23569" data-name="Path 23569" d="M228.812,212.91a18.708,18.708,0,0,0,.888,5.03,3.013,3.013,0,0,1-2.49-.382Z" transform="translate(-183.264 -189.458)" fill="#a02724"/>
        <path id="Path_23570" data-name="Path 23570" d="M228.251,207.579a.3.3,0,0,0,.191,0,2.424,2.424,0,0,1,2.183.332.307.307,0,0,0,.4-.465,3.046,3.046,0,0,0-2.756-.457.307.307,0,0,0,0,.581Z" transform="translate(-183.408 -188.427)" fill="#263238"/>
        <path id="Path_23571" data-name="Path 23571" d="M207.023,213.93c.93,4.723,1.851,13.38-1.453,16.534,0,0,1.295,4.789,10.077,4.789,9.653,0,4.615-4.789,4.615-4.789-5.271-1.262-5.138-5.171-4.217-8.84Z" transform="translate(-179.586 -189.632)" fill="#b55b52"/>
        <path id="Path_23572" data-name="Path 23572" d="M203.885,234.907c-.7-1.519-1.453-3.254.116-3.793,1.735-.6,11.23-1.212,14.5-.091a3.37,3.37,0,0,1,2.349,4.2Z" transform="translate(-179.162 -192.43)" fill="#263238"/>
        <path id="Path_23573" data-name="Path 23573" d="M242.326,245.59c2.034,3.66,4.217,7.429,6.424,11.048s4.524,7.221,7,10.508c.614.83,1.253,1.619,1.884,2.407.315.407.647.739.971,1.112l.481.548.125.141.058.066h0l.058.075a3.636,3.636,0,0,0,1.361.83,13.029,13.029,0,0,0,2.415.589,54.136,54.136,0,0,0,12.127-.141l1.262,4.4c-1.121.5-2.166.83-3.279,1.245a31.316,31.316,0,0,1-3.32.971,32.254,32.254,0,0,1-7.2.963,17.623,17.623,0,0,1-4.059-.407,11.2,11.2,0,0,1-4.515-2.009l-.556-.456-.133-.116-.083-.083-.158-.158-.647-.639c-.423-.423-.888-.83-1.27-1.278-.83-.872-1.61-1.743-2.332-2.64a107.848,107.848,0,0,1-8.01-11.031q-1.818-2.839-3.5-5.736c-1.129-1.951-2.216-3.86-3.27-5.918Z" transform="translate(-184.443 -195.013)" fill="#b55b52"/>
        <path id="Path_23574" data-name="Path 23574" d="M188.978,235.57c-6.059,1.386-13,17.9-13,17.9l12.16,8.3a102.284,102.284,0,0,0,8.026-13.654C199.761,240.591,195.17,234.15,188.978,235.57Z" transform="translate(-174.557 -193.276)" fill="#0091ff"/>
        <path id="Path_23575" data-name="Path 23575" d="M195.684,248.29,189.94,263.6l.564.4s2.49-3.494,5.179-8.209Z" transform="translate(-176.929 -195.471)" opacity="0.2"/>
        <path id="Path_23576" data-name="Path 23576" d="M227.83,235.589s6.873,7.769.382,55.828H193.657c-.232-5.3,3.1-31.168-2.017-56.16A90.353,90.353,0,0,1,203.2,233.8a125.652,125.652,0,0,1,14.692,0,64.634,64.634,0,0,1,9.936,1.793Z" transform="translate(-177.218 -192.972)" fill="#0091ff"/>
        <path id="Path_23577" data-name="Path 23577" d="M230.61,252.75a30.712,30.712,0,0,0,6.823,14.791c.141-3.1.2-5.877.191-8.358Z" transform="translate(-183.842 -196.229)" opacity="0.2"/>
        <path id="Path_23578" data-name="Path 23578" d="M226.992,241.225c-.83,6.117,11.206,21.739,11.206,21.739l12.11-8.3s-3.362-8.607-9.014-14.252C234.852,233.938,227.938,234.568,226.992,241.225Z" transform="translate(-183.22 -193.362)" fill="#0091ff"/>
        <path id="Path_23579" data-name="Path 23579" d="M282,277.975l4.93-2.025L292,279.785s-4.839,4.283-9.238,2.615Z" transform="translate(-192.576 -200.173)" fill="#b55b52"/>
        <path id="Path_23580" data-name="Path 23580" d="M291.189,275.71l3.719,2.656-1.926,1.378-5.072-3.835Z" transform="translate(-193.58 -200.132)" fill="#b55b52"/>
        <path id="Path_23581" data-name="Path 23581" d="M209.487,202.283c-1.726,6.175-3.055,9.7-1.079,13.862,2.963,6.267,11.388,6.092,14.941.564,3.187-4.98,5.478-14.243.4-18.7a8.749,8.749,0,0,0-14.26,4.275Z" transform="translate(-179.901 -186.55)" fill="#b55b52"/>
        <path id="Path_23582" data-name="Path 23582" d="M221.626,200.455c-2.49,7.089-5.42,14.874-12.575,13.4-4.615-.955-4.98-8.383-6.64-11.762-1.469-2.963-1.378-8.923,1.66-9-1.361-1.975,5.52-9.205,10.218-5.387,1.2-1.66,9.877-6.549,16.3,1.212C236.641,196.255,233.678,202.372,221.626,200.455Z" transform="translate(-178.892 -184.656)" fill="#263238"/>
        <path id="Path_23583" data-name="Path 23583" d="M218.992,208.673a7.3,7.3,0,0,0,1.013,4.54c1.1,1.776,2.723,1.1,3.32-.722.531-1.66.589-4.524-.946-5.677S219.224,206.764,218.992,208.673Z" transform="translate(-181.86 -188.342)" fill="#b55b52"/>
        <path id="Path_23584" data-name="Path 23584" d="M282.453,406.56c.83,0,1.66-.116,1.9-.49a.589.589,0,0,0,0-.672.83.83,0,0,0-.481-.357c-1.079-.291-3.32,1-3.428,1.054a.141.141,0,0,0-.075.158.158.158,0,0,0,.116.124A11.287,11.287,0,0,0,282.453,406.56Zm1.029-1.253a1.04,1.04,0,0,1,.291,0,.432.432,0,0,1,.3.216c.108.191.075.282,0,.332-.3.423-1.934.432-3.138.257A6.931,6.931,0,0,1,283.482,405.307Z" transform="translate(-192.298 -222.106)" fill="#0091ff"/>
        <path id="Path_23585" data-name="Path 23585" d="M280.5,406.061h.066c.78-.349,2.324-1.743,2.2-2.49,0-.174-.149-.382-.564-.432a1.129,1.129,0,0,0-.83.266,4.317,4.317,0,0,0-1,2.49.158.158,0,0,0,.058.141.191.191,0,0,0,.075.025Zm1.577-2.615h.091c.274,0,.291.141.3.174.075.44-.979,1.536-1.776,2.009a3.569,3.569,0,0,1,.83-1.984.83.83,0,0,1,.556-.2Z" transform="translate(-192.299 -221.789)" fill="#0091ff"/>
        <path id="Path_23586" data-name="Path 23586" d="M271.48,403.416h6.458l1.469-14.966h-6.458Z" transform="translate(-190.788 -219.293)" fill="#b55b52"/>
        <path id="Path_23587" data-name="Path 23587" d="M277.876,405.58h-7.047a.573.573,0,0,0-.556.448l-1.278,5.711a.938.938,0,0,0,.93,1.154c2.54-.042,6.217-.191,9.413-.191,3.743,0,6.972.2,11.355.2,2.656,0,3.395-2.681,2.283-2.922-5.055-1.1-9.18-1.22-13.546-3.918a3,3,0,0,0-1.552-.481Z" transform="translate(-190.361 -222.205)" fill="#263238"/>
        <path id="Path_23588" data-name="Path 23588" d="M279.543,388.46l-.747,7.711H272.33l.755-7.711Z" transform="translate(-190.932 -219.295)" opacity="0.2"/>
        <path id="Path_23589" data-name="Path 23589" d="M251.321,406.557a2.083,2.083,0,0,0,1.552-.423.614.614,0,0,0,0-.722.705.705,0,0,0-.481-.357c-.946-.224-2.731,1-2.806,1.046a.174.174,0,0,0-.066.158.149.149,0,0,0,.116.116,7.954,7.954,0,0,0,1.685.183Zm.83-1.228a.648.648,0,0,1,.183,0,.382.382,0,0,1,.282.2c.141.257.058.357,0,.4-.274.357-1.594.365-2.565.207a4.98,4.98,0,0,1,2.083-.805Z" transform="translate(-187.055 -222.111)" fill="#0091ff"/>
        <path id="Path_23590" data-name="Path 23590" d="M249.678,406.066h.066c.672-.365,1.967-1.776,1.826-2.49a.5.5,0,0,0-.49-.407.83.83,0,0,0-.647.2c-.747.614-.9,2.49-.913,2.556a.166.166,0,0,0,.075.141.141.141,0,0,0,.083,0Zm1.3-2.615h.066c.2,0,.216.116.224.158.083.423-.747,1.494-1.411,2a3.66,3.66,0,0,1,.764-2.025A.548.548,0,0,1,250.981,403.451Z" transform="translate(-187.056 -221.794)" fill="#0091ff"/>
        <path id="Path_23591" data-name="Path 23591" d="M240.79,403.416h6.458l3.245-14.966h-6.458Z" transform="translate(-185.572 -219.293)" fill="#b55b52"/>
        <path id="Path_23592" data-name="Path 23592" d="M247.256,405.58H240a.565.565,0,0,0-.548.448l-1.278,5.711a.955.955,0,0,0,.946,1.154c2.532-.042,3.768-.191,6.956-.191,1.967,0,4.482.2,7.2.2s3.063-2.681,1.951-2.922c-4.98-1.087-5.321-2.59-6.914-4.026a1.577,1.577,0,0,0-1.054-.374Z" transform="translate(-185.124 -222.205)" fill="#263238"/>
        <g id="Group_930" data-name="Group 930" transform="translate(56.787 169.165)" opacity="0.2">
          <path id="Path_23593" data-name="Path 23593" d="M244.357,388.46h6.458l-1.677,7.711H242.68Z" transform="translate(-242.68 -388.46)"/>
        </g>
        <path id="Path_23594" data-name="Path 23594" d="M229.352,303.27s48.391,5.121,47.86,29.807a136.557,136.557,0,0,1-8.815,45.337h-9.6s.49-15.663.166-40.937c-.1-7.578-15.4-10.077-30.346-10.957a34.032,34.032,0,0,1-29.251-20.809l-1.021-2.44Z" transform="translate(-178.359 -204.816)" fill="#263238"/>
        <path id="Path_23595" data-name="Path 23595" d="M282.648,390.7c.05,0-.623,4.54-.623,4.54H268.745l-.365-4.051Z" transform="translate(-190.261 -219.676)" fill="#0091ff"/>
        <path id="Path_23596" data-name="Path 23596" d="M217.992,303.27s35.077,11.621,35.966,26.03c1.66,26.511-11.38,49.113-11.38,49.113h-9.687s3.677-11.206,4.98-35.227c1.66-30.172-54.641-.05-44.092-39.917Z" transform="translate(-177.358 -204.816)" fill="#263238"/>
        <path id="Path_23597" data-name="Path 23597" d="M253.4,390.7c.05,0-1.22,4.54-1.22,4.54H238.9l.241-4.051Z" transform="translate(-185.251 -219.676)" fill="#0091ff"/>
        <path id="Path_23598" data-name="Path 23598" d="M242.652,332.629H188.7a6.159,6.159,0,0,1,6.159-6.159h41.635a6.159,6.159,0,0,1,6.159,6.159Z" transform="translate(-176.718 -208.759)" fill="#0091ff"/>
        <path id="Path_23599" data-name="Path 23599" d="M190.044,333.88l-8.134,68.2h1.743l10.317-68.2Z" transform="translate(-175.564 -210.019)" fill="#0091ff"/>
        <path id="Path_23600" data-name="Path 23600" d="M190.044,333.88l-8.134,68.2h1.743l10.317-68.2Z" transform="translate(-175.564 -210.019)" opacity="0.4"/>
        <path id="Path_23601" data-name="Path 23601" d="M204.788,333.88l-.158,68.2h1.735l2.349-68.2Z" transform="translate(-179.426 -210.019)" fill="#0091ff"/>
        <path id="Path_23602" data-name="Path 23602" d="M204.788,333.88l-.158,68.2h1.735l2.349-68.2Z" transform="translate(-179.426 -210.019)" opacity="0.4"/>
        <path id="Path_23603" data-name="Path 23603" d="M249.888,333.88l8.134,68.2h-1.743l-10.309-68.2Z" transform="translate(-186.452 -210.019)" fill="#0091ff"/>
        <path id="Path_23604" data-name="Path 23604" d="M249.888,333.88l8.134,68.2h-1.743l-10.309-68.2Z" transform="translate(-186.452 -210.019)" opacity="0.4"/>
        <path id="Path_23605" data-name="Path 23605" d="M236.776,333.88l.158,68.2H235.2l-2.349-68.2Z" transform="translate(-184.222 -210.019)" fill="#0091ff"/>
        <path id="Path_23606" data-name="Path 23606" d="M236.776,333.88l.158,68.2H235.2l-2.349-68.2Z" transform="translate(-184.222 -210.019)" opacity="0.4"/>
      </g>
    </g>
  </g>
</svg>
