<svg xmlns="http://www.w3.org/2000/svg" width="345" height="307" viewBox="0 0 345 307">
  <g id="Group_1766" data-name="Group 1766" transform="translate(-17703 -6426)">
    <rect id="Rectangle_2934" data-name="Rectangle 2934" width="345" height="307" transform="translate(17703 6426)" fill="#fff" opacity="0"/>
    <g id="Website_designer-pana" data-name="Website designer-pana" transform="translate(17655.66 6421.774)">
      <g id="freepik--background-complete--inject-54" transform="translate(47.339 58.749)">
        <rect id="Rectangle_3020" data-name="Rectangle 3020" width="57.031" height="52.911" transform="translate(274.227 7.425) rotate(-7.481)" fill="#f5f5f5"/>
        <path id="Path_32837" data-name="Path 32837" d="M646.215,103.959a3.945,3.945,0,1,0,4.574,3.393,4.033,4.033,0,0,0-4.575-3.393Z" transform="translate(-335.768 -87.697)" fill="#e0e0e0"/>
        <path id="Path_32838" data-name="Path 32838" d="M637.068,84.541,589.193,90.58c.041-.062-.454.562-.242.3v.155l.026.186.046.376.1.748.186,1.5q.2,1.485.377,2.965.382,2.955.748,5.854.738,5.8,1.444,11.346l2.656,20.722v.227l.237-.031,34.755-4.523,9.747-1.294,2.543-.346.645-.1.206-.036a1.327,1.327,0,0,0-.237,0l-.676.072-2.579.3-9.8,1.176-10.7,1.325,23.945-3.043a.977.977,0,0,0,.031.15,1.124,1.124,0,0,0,0-.2l-.062-.588c-.067-.552-.155-1.325-.268-2.326-.248-2.063-.609-5.08-1.068-8.886-.949-7.736-2.3-18.705-3.925-31.9l-.031-.222Zm-8.406,26.467-6.627,10.17L607,105.516l-12.063,28.607c-.784-6.256-1.635-13.027-2.532-20.18q-.7-5.523-1.434-11.346-.366-2.9-.737-5.854c-.124-.985-.253-1.975-.376-2.971l-.191-1.49-.093-.748-.052-.376v-.113l47.39-6.029c1.7,13.022,3.094,23.873,4.126,31.506l1.191,8.922.325,2.362c.041.253.072.454.093.609v.052Z" transform="translate(-309.602 -78.294)" fill="#e0e0e0"/>
        <rect id="Rectangle_3021" data-name="Rectangle 3021" width="40.629" height="37.689" transform="matrix(0.987, 0.161, -0.161, 0.987, 6.078, 145.172)" fill="#f5f5f5"/>
        <path id="Path_32839" data-name="Path 32839" d="M100.531,377.871a2.806,2.806,0,1,0,2.434,3.239A2.867,2.867,0,0,0,100.531,377.871Z" transform="translate(-71.578 -220.356)" fill="#e0e0e0"/>
        <path id="Path_32840" data-name="Path 32840" d="M93.149,366.115,59.276,360.55l-.227.16h0v.253l-.041.263-.088.516-.211,1.1c-.119.7-.232,1.4-.346,2.1q-.34,2.089-.676,4.126-.665,4.1-1.3,8.014c-.835,5.2-1.645,10.129-2.383,14.641v.16h.165l24.59,3.966,6.875,1.083,1.805.273.459.067h.15l-.165-.036-.474-.088-1.831-.32-6.9-1.171L71.107,394.4,88.038,397.2a.682.682,0,0,0,0,.108.8.8,0,0,0,.031-.134,3.252,3.252,0,0,1,.077-.418c.067-.387.165-.934.289-1.64.248-1.465.609-3.584,1.068-6.276.913-5.451,2.212-13.218,3.77-22.542l.026-.16ZM82.056,382.443l-6.576,5.616-7.071-13.718L54.4,391.406c.727-4.42,1.516-9.211,2.347-14.27l1.315-8.014L58.745,365c.113-.7.227-1.4.346-2.1l.17-1.083.088-.516.041-.263v-.083l33.522,5.456c-1.475,9.221-2.7,16.911-3.564,22.315-.423,2.713-.758,4.848-.99,6.323-.108.722-.191,1.284-.253,1.676l-.062.438v.036Z" transform="translate(-50.565 -211.978)" fill="#e0e0e0"/>
        <path id="Path_32841" data-name="Path 32841" d="M52.766,111.239s-3.419,1.387.516,8.644a94.142,94.142,0,0,0,6.637,10.83s.712,1.692-.722,1.991-4.611-.119-5.2,1.655.753,3.533,3.481,4.972,8.582,4.817,9.108,5.121,1.031,1.083.113,1.444-8.045,1.294-7.4,4.642,8.9,6.106,9.8,6.426,1.119.691,1.062,1.181-2.475.572-4.487.923-4.275,1.1-3.744,3S67.4,167.851,79.2,168.7l5.513.046,2.867-4.709c5.513-10.459,4.832-16.715,3.5-18.169s-3.172.072-4.528,1.594-2.708,3.528-3.151,3.316-.645-.588-.444-1.521,2.223-9.4-.273-11.707-7.045,3.223-7.849,3.832-1.186-.258-1.166-.861.211-7.359.444-10.454-.485-5.126-2.377-5.58-3.141,2.491-4.157,3.543-2.063-.444-2.063-.444a95.564,95.564,0,0,0-5.673-11.346c-4.064-7.169-7.122-4.951-7.122-4.951" transform="translate(-49.3 -91.109)" fill="#ebebeb"/>
        <path id="Path_32842" data-name="Path 32842" d="M89.606,176.389c-2.976-5.291-8.1-14.781-12.542-22.9s-8.468-15.472-11.413-20.779l-3.491-6.276c-.413-.737-.727-1.315-.949-1.712l-.242-.444a1.6,1.6,0,0,1-.077-.155l.093.144c.062.108.144.253.258.438.227.392.552.964.975,1.692.846,1.47,2.063,3.61,3.543,6.256,2.971,5.286,7.014,12.63,11.454,20.753s9.551,17.622,12.5,22.924" transform="translate(-53.901 -97.481)" fill="#e0e0e0"/>
        <path id="Path_32843" data-name="Path 32843" d="M65,157.84a2.016,2.016,0,0,1,.382.1c.248.072.6.186,1.031.33.861.289,2.063.727,3.342,1.227l3.316,1.294,1.031.387a1.737,1.737,0,0,1,.366.16,2.186,2.186,0,0,1-.387-.093c-.242-.077-.593-.191-1.031-.34-.861-.3-2.063-.748-3.337-1.248l-3.321-1.274L65.361,158A1.759,1.759,0,0,1,65,157.84Z" transform="translate(-55.892 -113.811)" fill="#e0e0e0"/>
        <path id="Path_32844" data-name="Path 32844" d="M84.058,153.571c-.046,0,.743-2.5,1.759-5.539s1.872-5.5,1.919-5.482-.743,2.5-1.759,5.539S84.1,153.612,84.058,153.571Z" transform="translate(-65.12 -106.406)" fill="#e0e0e0"/>
        <path id="Path_32845" data-name="Path 32845" d="M96.19,180.564a2.732,2.732,0,0,1,.217-.34l.629-.908c.516-.763,1.248-1.826,2.006-3.027s1.408-2.305,1.872-3.094c.222-.376.407-.7.552-.954a2.116,2.116,0,0,1,.222-.34,2.063,2.063,0,0,1-.165.371c-.113.237-.284.572-.516.985-.438.82-1.073,1.939-1.836,3.141s-1.5,2.254-2.063,3.007c-.278.371-.516.67-.676.872S96.2,180.574,96.19,180.564Z" transform="translate(-70.996 -120.62)" fill="#e0e0e0"/>
        <path id="Path_32846" data-name="Path 32846" d="M77.78,186.991a1.722,1.722,0,0,1,.371,0l1.031.052c.856.057,2.063.139,3.347.242s2.491.211,3.347.294l1.031.108a1.851,1.851,0,0,1,.366.062,1.228,1.228,0,0,1-.371,0l-1.031-.057c-.856-.052-2.063-.134-3.347-.242s-2.491-.206-3.347-.289l-1.031-.108a1.247,1.247,0,0,1-.366-.062Z" transform="translate(-62.081 -127.923)" fill="#e0e0e0"/>
        <path id="Path_32847" data-name="Path 32847" d="M85.71,210.226a1.908,1.908,0,0,1,.48,0l1.3.062c1.1.062,2.62.16,4.3.279s3.2.237,4.291.325l1.3.124a3.14,3.14,0,0,1,.48.062,1.944,1.944,0,0,1-.48,0l-1.3-.062c-1.1-.062-2.62-.16-4.3-.278s-3.192-.232-4.291-.325l-1.3-.119a3.3,3.3,0,0,1-.474-.067Z" transform="translate(-65.921 -139.173)" fill="#e0e0e0"/>
        <path id="Path_32848" data-name="Path 32848" d="M108.71,201.177a3.012,3.012,0,0,1,.263-.444l.753-1.181c.634-.99,1.506-2.367,2.424-3.914s1.723-2.971,2.29-4l.676-1.222a2.877,2.877,0,0,1,.268-.444,3.457,3.457,0,0,1-.206.474c-.144.294-.361.722-.629,1.248-.547,1.031-1.325,2.481-2.249,4.028s-1.81,2.919-2.475,3.9c-.33.49-.6.882-.8,1.15a2.833,2.833,0,0,1-.315.407Z" transform="translate(-77.059 -129.371)" fill="#e0e0e0"/>
        <rect id="Rectangle_3022" data-name="Rectangle 3022" width="88.473" height="54.832" rx="7.87" transform="translate(256.528 68.892)" fill="#e0e0e0"/>
        <circle id="Ellipse_409" data-name="Ellipse 409" cx="6.741" cy="6.741" r="6.741" transform="translate(291.23 97.055) rotate(-45)" fill="#ebebeb"/>
        <path id="Path_32849" data-name="Path 32849" d="M627.37,260.511v-3.976a.258.258,0,0,1,.376-.222l3.559,2.006a.253.253,0,0,1,0,.443l-3.553,1.97a.253.253,0,0,1-.382-.222Z" transform="translate(-328.233 -161.485)" fill="#fff"/>
        <path id="Path_32850" data-name="Path 32850" d="M553.891,299.433v.144h-.665v-.113l.361-.34c.088-.088.1-.139.1-.191a.155.155,0,0,0-.17-.129.263.263,0,0,0-.211.093l-.119-.088a.428.428,0,0,1,.346-.15c.2,0,.325.1.325.258a.371.371,0,0,1-.149.289l-.242.227Z" transform="translate(-292.309 -182.006)" fill="#fff"/>
        <path id="Path_32851" data-name="Path 32851" d="M554.727,299.188a.1.1,0,0,1,.1-.108.108.108,0,0,1,0,.217.1.1,0,0,1-.1-.108Zm0,.516a.107.107,0,1,1,.1.1.1.1,0,0,1-.1-.124Z" transform="translate(-293.052 -182.21)" fill="#fff"/>
        <path id="Path_32852" data-name="Path 32852" d="M555.666,298.68v.908H555.5v-.743h-.191V298.7Z" transform="translate(-293.336 -182.016)" fill="#fff"/>
        <path id="Path_32853" data-name="Path 32853" d="M557.075,299.341h-.16v.206h-.16v-.206h-.516v-.119l.449-.583h.18l-.423.557h.3v-.181h.155v.181h.16Z" transform="translate(-293.786 -181.997)" fill="#fff"/>
        <rect id="Rectangle_3023" data-name="Rectangle 3023" width="68.519" height="0.361" transform="translate(264.764 116.979)" fill="#fff"/>
        <rect id="Rectangle_3024" data-name="Rectangle 3024" width="21.413" height="0.97" transform="translate(264.712 116.602)" fill="#ebebeb"/>
        <path id="Path_32854" data-name="Path 32854" d="M601.543,298.671a1.031,1.031,0,1,1-1.031-1.031A1.031,1.031,0,0,1,601.543,298.671Z" transform="translate(-314.726 -181.512)" fill="#ebebeb"/>
        <path id="Path_32855" data-name="Path 32855" d="M696.249,299.024a.3.3,0,0,1-.33.294c-.248,0-.392-.16-.392-.449a.428.428,0,0,1,.444-.48.473.473,0,0,1,.237.057l-.062.129a.273.273,0,0,0-.17-.046c-.17,0-.278.108-.278.309h0a.294.294,0,0,1,.242-.1.284.284,0,0,1,.31.284Zm-.16,0c0-.1-.072-.155-.18-.155a.165.165,0,0,0-.186.155c0,.088.067.15.186.15s.18-.046.18-.139Z" transform="translate(-361.238 -181.875)" fill="#fff"/>
        <path id="Path_32856" data-name="Path 32856" d="M697.09,298.9a.1.1,0,0,1,.1-.108.108.108,0,1,1,0,.217.1.1,0,0,1-.1-.108Zm0,.516a.107.107,0,1,1,.1.1.1.1,0,0,1-.1-.1Z" transform="translate(-361.996 -182.069)" fill="#fff"/>
        <path id="Path_32857" data-name="Path 32857" d="M697.71,298.854c0-.3.16-.464.377-.464s.376.165.376.464-.16.464-.376.464S697.71,299.153,697.71,298.854Zm.588,0c0-.217-.088-.32-.211-.32s-.206.1-.206.32.083.32.206.32S698.3,299.071,698.3,298.854Z" transform="translate(-362.297 -181.876)" fill="#fff"/>
        <path id="Path_32858" data-name="Path 32858" d="M699.39,298.854c0-.3.165-.464.376-.464s.382.165.382.464-.165.464-.382.464S699.39,299.153,699.39,298.854Zm.588,0c0-.217-.088-.32-.211-.32s-.206.1-.206.32.083.32.206.32S699.978,299.071,699.978,298.854Z" transform="translate(-363.11 -181.876)" fill="#fff"/>
        <path id="Path_32859" data-name="Path 32859" d="M703.391,298.313h-.361v-.923h.923v.361h-.562Z" transform="translate(-364.873 -181.391)" fill="#fff"/>
        <path id="Path_32860" data-name="Path 32860" d="M703.953,300.643h-.923v-.923h.361v.562h.562Z" transform="translate(-364.873 -182.52)" fill="#fff"/>
        <path id="Path_32861" data-name="Path 32861" d="M706.783,300.638h-.923v-.361h.562v-.567h.361Z" transform="translate(-366.243 -182.515)" fill="#fff"/>
        <path id="Path_32862" data-name="Path 32862" d="M706.783,298.313h-.361v-.562h-.562v-.361h.923Z" transform="translate(-366.243 -181.391)" fill="#fff"/>
        <path id="Path_32863" data-name="Path 32863" d="M684.864,216.293a14.445,14.445,0,0,1,1.867-.1h.1v2.775l-.217-.217-.253-.248-.629-.634h.17l-.99.872-.191.165v-.232c0-.732.036-1.341.057-1.753a3.1,3.1,0,0,1,.052-.614,3.856,3.856,0,0,1,.057.686c0,.418.047,1,.057,1.681l-.186-.083.975-.892.088-.077.082.083.634.629.247.253-.217.088V216.3l.1.1C685.643,216.365,684.9,216.313,684.864,216.293Z" transform="translate(-356.006 -142.068)" fill="#fff"/>
        <path id="Path_32864" data-name="Path 32864" d="M695.476,216.86a6.4,6.4,0,0,1-.449.578c-.3.376-.763.944-1.325,1.547l-.206.237v-1.588l.036.088-.825-.8-.217-.211h.3c.82,0,1.547.052,1.991.083a5.56,5.56,0,0,1,.7.052s-.33,0-.81.046-1.129.057-1.882.057l.082-.206c.263.253.516.516.836.794l.036.036v1.346l-.206-.083c.516-.572,1-1.031,1.351-1.4A6.054,6.054,0,0,1,695.476,216.86Z" transform="translate(-359.769 -142.32)" fill="#fff"/>
        <path id="Path_32865" data-name="Path 32865" d="M696.532,217c.031.067-.366.294-.882.516a2.234,2.234,0,0,1-.98.273,2.371,2.371,0,0,1,.882-.516A2.233,2.233,0,0,1,696.532,217Z" transform="translate(-360.824 -142.461)" fill="#fff"/>
        <path id="Path_32866" data-name="Path 32866" d="M703.421,216.373a.708.708,0,0,1,.335,0,1.269,1.269,0,0,1,.784.469,1.4,1.4,0,0,1,.232,1.341,1.429,1.429,0,0,1-2.7,0,1.4,1.4,0,0,1,.227-1.341,1.279,1.279,0,0,1,.784-.469.805.805,0,0,1,.335,0s-.119.026-.31.088a1.346,1.346,0,0,0-.67.485,1.238,1.238,0,0,0-.15,1.155,1.207,1.207,0,0,0,2.259,0,1.238,1.238,0,0,0-.15-1.155,1.346,1.346,0,0,0-.67-.485A2.54,2.54,0,0,1,703.421,216.373Z" transform="translate(-364.371 -142.148)" fill="#fff"/>
        <path id="Path_32867" data-name="Path 32867" d="M704.986,218.712c-.046.046-.34-.165-.65-.474l-.036-.036v-.062c0-.444.057-.8.124-.8s.129.356.129.8h0l-.036-.093C704.826,218.392,705.037,218.681,704.986,218.712Z" transform="translate(-365.488 -142.625)" fill="#fff"/>
        <path id="Path_32868" data-name="Path 32868" d="M604.483,219.749c0,.067-9.092.124-20.3.124s-20.309-.057-20.309-.124,9.092-.129,20.309-.129S604.483,219.677,604.483,219.749Z" transform="translate(-297.481 -143.729)" fill="#fff"/>
        <circle id="Ellipse_410" data-name="Ellipse 410" cx="1.604" cy="1.604" r="1.604" transform="translate(261.267 74.416)" fill="#fff"/>
      </g>
      <g id="freepik--Window--inject-54" transform="translate(61.904 44.14)">
        <rect id="Rectangle_3025" data-name="Rectangle 3025" width="260.844" height="187.766" transform="translate(18.932 0.129)" fill="#fff"/>
        <rect id="Rectangle_3026" data-name="Rectangle 3026" width="260.844" height="13.878" transform="translate(18.607 0.129)" fill="#e0e0e0"/>
        <path id="Path_32869" data-name="Path 32869" d="M126.367,56.635a1.707,1.707,0,1,1-1.7-1.805A1.753,1.753,0,0,1,126.367,56.635Z" transform="translate(-98.523 -49.317)" fill="#263238"/>
        <path id="Path_32870" data-name="Path 32870" d="M138.647,56.635a1.707,1.707,0,1,1-1.707-1.805,1.753,1.753,0,0,1,1.707,1.805Z" transform="translate(-104.47 -49.317)" fill="#263238"/>
        <path id="Path_32871" data-name="Path 32871" d="M150.917,56.635a1.707,1.707,0,1,1-1.7-1.805,1.748,1.748,0,0,1,1.7,1.805Z" transform="translate(-110.412 -49.317)" fill="#263238"/>
        <path id="Path_32872" data-name="Path 32872" d="M305.836,100.11c0,.1-5.7.175-12.723.175s-12.723-.077-12.723-.175,5.673-.18,12.723-.18S305.836,100.007,305.836,100.11Z" transform="translate(-174.764 -71.158)" fill="#263238"/>
        <path id="Path_32873" data-name="Path 32873" d="M371.466,100.11c0,.1-5.7.175-12.723.175s-12.723-.077-12.723-.175,5.673-.18,12.723-.18S371.466,100.007,371.466,100.11Z" transform="translate(-206.547 -71.158)" fill="#263238"/>
        <path id="Path_32874" data-name="Path 32874" d="M437.106,100.11c0,.1-5.7.175-12.723.175s-12.723-.077-12.723-.175,5.673-.18,12.723-.18S437.106,100.007,437.106,100.11Z" transform="translate(-238.335 -71.158)" fill="#263238"/>
        <path id="Path_32875" data-name="Path 32875" d="M503.306,100.11c0,.1-5.673.175-12.723.175s-12.723-.077-12.723-.175,5.7-.18,12.723-.18S503.306,100.007,503.306,100.11Z" transform="translate(-270.394 -71.158)" fill="#263238"/>
        <path id="Path_32876" data-name="Path 32876" d="M563.888,100.372a2.557,2.557,0,0,0,.609-.108,2.836,2.836,0,0,0,1.465-.954,2.955,2.955,0,0,0,.578-1.16,5.973,5.973,0,0,0,.093-1.583c-.072-1.129.253-2.579-.712-3.672a2.651,2.651,0,0,0-1.815-.944H544.749a2.682,2.682,0,0,0-2.378,1.547,3.172,3.172,0,0,0-.3,1.485v1.594a5.958,5.958,0,0,0,.093,1.506,2.888,2.888,0,0,0,.67,1.243,2.712,2.712,0,0,0,1.083.743,4.2,4.2,0,0,0,1.331.129l9.69.036,6.534.057,1.779.036h.619a.618.618,0,0,1-.16,0h-.459l-1.779.036-6.534.057-9.69.036a4.26,4.26,0,0,1-1.423-.134,3.033,3.033,0,0,1-1.264-.815,3.2,3.2,0,0,1-.753-1.387,3.324,3.324,0,0,1-.1-.815c0-.263,0-.516,0-.784V95a3.46,3.46,0,0,1,.33-1.645,3.007,3.007,0,0,1,2.677-1.738h19.376a2.9,2.9,0,0,1,1.97,1.031,3.171,3.171,0,0,1,.732,1.975v1.862a5.963,5.963,0,0,1-.124,1.63,3.046,3.046,0,0,1-.634,1.207,2.8,2.8,0,0,1-1.547.928,1.976,1.976,0,0,1-.6.119Z" transform="translate(-301.311 -67.133)" fill="#263238"/>
        <rect id="Rectangle_3027" data-name="Rectangle 3027" width="78.999" height="16.199" rx="8.099" transform="translate(38.716 78.06)" fill="#e0e0e0"/>
        <path id="Path_32877" data-name="Path 32877" d="M111.539,44.269l260.849-.129h.134V232.163h-.144l-260.849-.026h-.119v-.119c.072-113.976.119-186.791.119-187.771,0,.98.052,73.806.119,187.771l-.119-.119,260.849-.031-.144.15V44.269l.134.134Z" transform="translate(-92.932 -44.14)" fill="#263238"/>
        <path id="Path_32878" data-name="Path 32878" d="M486.39,210.7V196.337c0-9.206-.031-22.481-.057-38.793l.1.1-93.553.031h0l.134-.134V210.7l-.129-.124,67.256.062,19.309.036h.067l-19.283.036-67.354.129h-.124V157.42h.124l93.486.031h.1v.1c0,16.338-.041,29.639-.052,38.855v13.368C486.421,210.4,486.39,210.7,486.39,210.7Z" transform="translate(-229.182 -98.999)" fill="#0091ff"/>
        <path id="Path_32879" data-name="Path 32879" d="M484.921,157.52l-.227.155-.67.428-2.579,1.619c-2.254,1.4-5.529,3.409-9.587,5.864-8.112,4.925-19.391,11.619-31.975,18.814s-24.064,13.517-32.413,18.05c-4.177,2.259-7.566,4.069-9.912,5.3l-2.708,1.418-.707.366a2.574,2.574,0,0,1-.242.113,2.584,2.584,0,0,1,.232-.139l.691-.387,2.682-1.465,9.856-5.395c8.329-4.554,19.8-10.908,32.372-18.1s23.857-13.858,31.975-18.736l9.634-5.8,2.62-1.573.686-.4Z" transform="translate(-229.734 -99.047)" fill="#0091ff"/>
        <path id="Path_32880" data-name="Path 32880" d="M486.31,211.252c-.036.062-20.552-11.686-45.812-26.235s-45.714-26.405-45.678-26.467,20.547,11.681,45.812,26.235S486.346,211.185,486.31,211.252Z" transform="translate(-230.179 -99.545)" fill="#0091ff"/>
        <path id="Path_32881" data-name="Path 32881" d="M484.923,311.821c0,.1-20.433.186-45.626.186s-45.637-.083-45.637-.186,20.428-.191,45.637-.191S484.923,311.712,484.923,311.821Z" transform="translate(-229.618 -173.678)" fill="#263238"/>
        <path id="Path_32882" data-name="Path 32882" d="M484.923,322.541c0,.1-20.433.186-45.626.186s-45.637-.083-45.637-.186,20.428-.191,45.637-.191S484.923,322.438,484.923,322.541Z" transform="translate(-229.618 -178.87)" fill="#263238"/>
        <path id="Path_32883" data-name="Path 32883" d="M435.025,349.26c0,.1-8.958.175-20,.175s-20.005-.077-20.005-.175,8.953-.17,20.005-.17S435.025,349.167,435.025,349.26Z" transform="translate(-230.276 -191.819)" fill="#263238"/>
        <path id="Path_32884" data-name="Path 32884" d="M474.014,336.325c0,.093-17.684.17-39.494.17s-39.5-.077-39.5-.17,17.679-.175,39.5-.175S474.014,336.227,474.014,336.325Z" transform="translate(-230.276 -185.553)" fill="#263238"/>
        <path id="Path_32885" data-name="Path 32885" d="M487.186,329.424V318.129c0-7.272-.026-17.834-.046-31l.093.088-113.589.046h0l.134-.134v42.29l-.129-.129,81.387.057,23.667.036h.057l-23.636.036-81.485.062h-.129V287h.139l113.589.041h.088v.093c0,13.182-.036,23.765-.046,31.052V328.7A2.195,2.195,0,0,1,487.186,329.424Z" transform="translate(-219.86 -161.751)" fill="#263238"/>
        <ellipse id="Ellipse_411" data-name="Ellipse 411" cx="5.781" cy="5.523" rx="5.781" ry="5.523" transform="translate(37.076 23.883)" fill="#0091ff"/>
        <rect id="Rectangle_3028" data-name="Rectangle 3028" width="40.851" height="28.422" transform="translate(0 96.312)" fill="#455a64"/>
        <path id="Path_32886" data-name="Path 32886" d="M116.483,230.89c.046.062-9.051,6.529-20.309,14.44S75.746,259.621,75.7,259.559s9.051-6.529,20.32-14.44S116.442,230.828,116.483,230.89Z" transform="translate(-75.638 -134.578)" fill="#263238"/>
        <path id="Path_32887" data-name="Path 32887" d="M117.045,259.191l-.108-.062-.315-.206-1.186-.81-4.327-3.048L96.875,245,82.693,234.9l-4.281-3.094-1.155-.856c-.124-.088-.222-.165-.3-.227l-.1-.083a.206.206,0,0,1,.113.062l.315.206,1.186.81L82.8,234.74l14.244,10.067,14.182,10.124,4.281,3.094,1.155.851.3.227C117.02,259.154,117.051,259.191,117.045,259.191Z" transform="translate(-76.2 -134.457)" fill="#263238"/>
      </g>
      <g id="freepik--HTML--inject-54" transform="translate(95.642 203.107)">
        <rect id="Rectangle_3029" data-name="Rectangle 3029" width="108.751" height="61.799" transform="translate(0.119 0.217)" fill="#fafafa"/>
        <path id="Path_32888" data-name="Path 32888" d="M249.875,414.4v-4.337c0-2.837,0-7-.026-12.377,0-10.7-.031-26.137-.052-45.105l.1.1-108.746.031h0l.134-.134v61.8l-.124-.124,78.236.057,22.46.036h.031l-22.434.031-78.318.062H141V352.38h.144l108.746.031h.1v.1c-.026,18.994-.041,34.456-.057,45.167,0,5.348,0,9.5-.026,12.336v3.208C249.911,413.953,249.875,414.4,249.875,414.4Z" transform="translate(-141 -352.38)" fill="#263238"/>
        <path id="Path_32889" data-name="Path 32889" d="M195.8,372.224c0,.072-7.39.134-16.5.134s-16.5-.062-16.5-.134,7.385-.134,16.5-.134S195.8,372.152,195.8,372.224Z" transform="translate(-151.552 -361.925)" fill="#ebebeb"/>
        <path id="Path_32890" data-name="Path 32890" d="M229.3,383.7c0,.077-7.39.134-16.5.134s-16.5-.057-16.5-.134,7.385-.134,16.5-.134S229.3,383.632,229.3,383.7Z" transform="translate(-167.775 -367.484)" fill="#ebebeb"/>
        <path id="Path_32891" data-name="Path 32891" d="M299.006,372.224c0,.072-7.385.134-16.5.134s-16.5-.062-16.5-.134,7.39-.134,16.5-.134S299.006,372.152,299.006,372.224Z" transform="translate(-201.534 -361.925)" fill="#ebebeb"/>
        <path id="Path_32892" data-name="Path 32892" d="M245.632,372.2a74.1,74.1,0,0,1-8.912,0,74.083,74.083,0,0,1,8.912,0Z" transform="translate(-187.355 -361.905)" fill="#ebebeb"/>
        <path id="Path_32893" data-name="Path 32893" d="M173.572,383.689a36.28,36.28,0,0,1-4.456.134,36.335,36.335,0,0,1-4.456-.134,37.622,37.622,0,0,1,4.456-.134A37.531,37.531,0,0,1,173.572,383.689Z" transform="translate(-152.458 -367.469)" fill="#ebebeb"/>
        <path id="Path_32894" data-name="Path 32894" d="M277.147,383.209a68.635,68.635,0,0,1-8.577,0,68.635,68.635,0,0,1,8.577,0Z" transform="translate(-202.779 -367.237)" fill="#ebebeb"/>
        <path id="Path_32895" data-name="Path 32895" d="M195.8,398.524c0,.072-7.39.134-16.5.134s-16.5-.062-16.5-.134,7.385-.134,16.5-.134S195.8,398.447,195.8,398.524Z" transform="translate(-151.552 -374.661)" fill="#ebebeb"/>
        <path id="Path_32896" data-name="Path 32896" d="M229.3,410c0,.077-7.39.134-16.5.134s-16.5-.057-16.5-.134,7.385-.134,16.5-.134S229.3,409.937,229.3,410Z" transform="translate(-167.775 -380.221)" fill="#ebebeb"/>
        <path id="Path_32897" data-name="Path 32897" d="M299.006,398.524c0,.072-7.385.134-16.5.134s-16.5-.062-16.5-.134,7.39-.134,16.5-.134S299.006,398.447,299.006,398.524Z" transform="translate(-201.534 -374.661)" fill="#ebebeb"/>
        <path id="Path_32898" data-name="Path 32898" d="M245.632,398.5a74.1,74.1,0,0,1-8.912,0,74.1,74.1,0,0,1,8.912,0Z" transform="translate(-187.355 -374.642)" fill="#ebebeb"/>
        <path id="Path_32899" data-name="Path 32899" d="M173.572,409.989a36.274,36.274,0,0,1-4.456.134,36.334,36.334,0,0,1-4.456-.134,37.616,37.616,0,0,1,4.456-.134A37.538,37.538,0,0,1,173.572,409.989Z" transform="translate(-152.458 -380.206)" fill="#ebebeb"/>
        <path id="Path_32900" data-name="Path 32900" d="M277.147,409.507a68.627,68.627,0,0,1-8.577,0,68.666,68.666,0,0,1,8.577,0Z" transform="translate(-202.779 -379.972)" fill="#ebebeb"/>
        <path id="Path_32901" data-name="Path 32901" d="M196.386,444.114c0,.077-7.385.134-16.5.134s-16.5-.057-16.5-.134,7.39-.134,16.5-.134S196.386,444.042,196.386,444.114Z" transform="translate(-151.838 -396.739)" fill="#ebebeb"/>
        <path id="Path_32902" data-name="Path 32902" d="M229.886,455.6c0,.072-7.39.134-16.5.134s-16.5-.062-16.5-.134,7.39-.134,16.5-.134S229.886,455.532,229.886,455.6Z" transform="translate(-168.061 -402.304)" fill="#ebebeb"/>
        <path id="Path_32903" data-name="Path 32903" d="M299.6,444.114c0,.077-7.39.134-16.5.134s-16.5-.057-16.5-.134,7.385-.134,16.5-.134S299.6,444.042,299.6,444.114Z" transform="translate(-201.82 -396.739)" fill="#ebebeb"/>
        <path id="Path_32904" data-name="Path 32904" d="M246.212,444.1a74.1,74.1,0,0,1-8.912,0,74.1,74.1,0,0,1,8.912,0Z" transform="translate(-187.636 -396.723)" fill="#ebebeb"/>
        <path id="Path_32905" data-name="Path 32905" d="M174.172,455.589a37.635,37.635,0,0,1-4.456.134,37.635,37.635,0,0,1-4.456-.134,37.622,37.622,0,0,1,4.456-.134A37.623,37.623,0,0,1,174.172,455.589Z" transform="translate(-152.748 -402.289)" fill="#ebebeb"/>
        <path id="Path_32906" data-name="Path 32906" d="M277.737,455.1a68.635,68.635,0,0,1-8.577,0,68.667,68.667,0,0,1,8.577,0Z" transform="translate(-203.065 -402.051)" fill="#ebebeb"/>
        <path id="Path_32907" data-name="Path 32907" d="M195.8,423.254c0,.072-7.39.134-16.5.134s-16.5-.062-16.5-.134,7.385-.134,16.5-.134S195.8,423.177,195.8,423.254Z" transform="translate(-151.552 -386.638)" fill="#ebebeb"/>
        <path id="Path_32908" data-name="Path 32908" d="M229.3,434.734c0,.072-7.39.134-16.5.134s-16.5-.062-16.5-.134,7.385-.134,16.5-.134S229.3,434.662,229.3,434.734Z" transform="translate(-167.775 -392.197)" fill="#ebebeb"/>
        <path id="Path_32909" data-name="Path 32909" d="M299.006,423.254c0,.072-7.385.134-16.5.134s-16.5-.062-16.5-.134,7.39-.134,16.5-.134S299.006,423.177,299.006,423.254Z" transform="translate(-201.534 -386.638)" fill="#ebebeb"/>
        <path id="Path_32910" data-name="Path 32910" d="M245.632,423.227a74.1,74.1,0,0,1-8.912,0,74.1,74.1,0,0,1,8.912,0Z" transform="translate(-187.355 -386.616)" fill="#ebebeb"/>
        <path id="Path_32911" data-name="Path 32911" d="M173.572,434.719a37.551,37.551,0,0,1-4.456.134,37.629,37.629,0,0,1-4.456-.134,37.616,37.616,0,0,1,4.456-.134,37.538,37.538,0,0,1,4.456.134Z" transform="translate(-152.458 -392.182)" fill="#ebebeb"/>
        <path id="Path_32912" data-name="Path 32912" d="M277.147,434.237a68.635,68.635,0,0,1-8.577,0,68.635,68.635,0,0,1,8.577,0Z" transform="translate(-202.779 -391.948)" fill="#ebebeb"/>
        <path id="Path_32913" data-name="Path 32913" d="M205.8,399.56v11.269H203.7v-4.853h-5.828v4.832H195.78V399.56h2.094V404.2H203.7V399.56Z" transform="translate(-167.529 -375.228)" fill="#263238"/>
        <path id="Path_32914" data-name="Path 32914" d="M221.984,401.339H218.25V399.57h9.567v1.769h-3.739v9.5h-2.094Z" transform="translate(-178.41 -375.233)" fill="#263238"/>
        <path id="Path_32915" data-name="Path 32915" d="M250.2,410.809v-7.473l-3.7,6.189h-.949l-3.7-6.086v7.375h-2V399.541h1.723l4.476,7.447,4.394-7.468h1.723v11.269Z" transform="translate(-188.87 -375.209)" fill="#263238"/>
        <path id="Path_32916" data-name="Path 32916" d="M269.66,399.56h2.094v9.51h5.89v1.774H269.66Z" transform="translate(-203.307 -375.228)" fill="#263238"/>
      </g>
      <g id="freepik--speech-bubble--inject-54" transform="translate(94.753 83.942)">
        <path id="Path_32917" data-name="Path 32917" d="M175.4,139.034l-5.776-2.94a15.09,15.09,0,1,0-.8,5.353h0Z" transform="translate(-139.361 -121.4)" fill="#fff"/>
        <path id="Path_32918" data-name="Path 32918" d="M175.317,138.951l-6.555,2.481a.057.057,0,0,1-.083-.036.067.067,0,0,1,0-.031h.129a15.085,15.085,0,0,1-4.358,6.55,13.021,13.021,0,0,1-1.929,1.418c-.356.211-.707.433-1.083.634l-1.16.583a15.245,15.245,0,0,1-11.222.15,15.085,15.085,0,0,1-5.353-3.466,15.384,15.384,0,0,1-3.559-5.709,14.956,14.956,0,0,1-.743-6.962,15.183,15.183,0,0,1,2.579-6.7,15.384,15.384,0,0,1,5.08-4.605,14.956,14.956,0,0,1,6.189-1.893,15.281,15.281,0,0,1,10.83,3.419,16.1,16.1,0,0,1,3.254,3.739,15.044,15.044,0,0,1,2.243,7.5l-.036-.057,5.745,3-5.807-2.883a.057.057,0,0,1-.031-.057,14.987,14.987,0,0,0-2.269-7.4,16.215,16.215,0,0,0-3.234-3.677,15.126,15.126,0,0,0-10.7-3.332,14.652,14.652,0,0,0-6.1,1.872,15.188,15.188,0,0,0-4.992,4.528,14.956,14.956,0,0,0-2.512,6.555,14.683,14.683,0,0,0,.707,6.854,15.136,15.136,0,0,0,3.5,5.616,14.78,14.78,0,0,0,5.255,3.414,15.064,15.064,0,0,0,11.057-.113l1.155-.516c.366-.2.717-.418,1.073-.624A13.344,13.344,0,0,0,164.3,147.8a15,15,0,0,0,4.358-6.452.067.067,0,0,1,.083-.041.072.072,0,0,1,.046.072h0l-.093-.067Z" transform="translate(-139.275 -121.317)" fill="#263238"/>
        <path id="Path_32919" data-name="Path 32919" d="M175.341,151.446a1.548,1.548,0,0,1,.232-.263l.676-.681c.572-.562,1.372-1.341,2.264-2.187h0v.113c-.9-.83-1.7-1.594-2.28-2.145l-.676-.665a1.883,1.883,0,0,1-.237-.258,2.6,2.6,0,0,1,.278.211l.712.629c.593.516,1.413,1.279,2.31,2.114l.057.057-.057.057h0c-.892.846-1.7,1.609-2.295,2.156l-.707.639A1.549,1.549,0,0,1,175.341,151.446Z" transform="translate(-156.731 -132.96)" fill="#263238"/>
        <path id="Path_32920" data-name="Path 32920" d="M175.3,151.435a.072.072,0,0,1-.046,0h0c-.046-.052-.031-.072.232-.351l.676-.676c.583-.578,1.351-1.32,2.176-2.109-.815-.753-1.578-1.475-2.171-2.063l-.676-.665c-.258-.258-.289-.294-.237-.351s.083,0,.366.211l.712.629c.609.516,1.387,1.258,2.212,2.022h0l.088.083.113.1-.134.124-.062.062h0c-.841.8-1.63,1.547-2.223,2.063l-.7.681C175.415,151.373,175.338,151.435,175.3,151.435Zm3.13-3.094-1.738,1.676c.516-.474,1.119-1.031,1.759-1.655h0Zm.124-.1Zm-1.846-1.7c.516.485,1.1,1.031,1.723,1.619h0c-.6-.578-1.207-1.129-1.723-1.6Z" transform="translate(-156.687 -132.883)" fill="#263238"/>
        <path id="Path_32921" data-name="Path 32921" d="M158.773,145.32a1.244,1.244,0,0,1-.232.263l-.67.676c-.578.567-1.377,1.341-2.264,2.192h0v-.113c.9.83,1.7,1.588,2.28,2.145l.676.665c.16.155.242.248.232.258a2.127,2.127,0,0,1-.273-.217l-.748-.6c-.6-.516-1.413-1.284-2.31-2.114l-.062-.057.062-.057h0c.887-.851,1.7-1.609,2.295-2.156l.707-.645A1.661,1.661,0,0,1,158.773,145.32Z" transform="translate(-147.084 -132.941)" fill="#263238"/>
        <path id="Path_32922" data-name="Path 32922" d="M158.765,151.448c-.041,0-.113-.057-.32-.232l-.712-.629c-.6-.516-1.382-1.248-2.212-2.022h0l-.088-.083-.113-.1.129-.124.067-.062h0c.841-.8,1.625-1.547,2.218-2.089l.712-.639c.279-.242.309-.268.361-.217s0,.093-.232.356l-.676.676c-.578.572-1.346,1.315-2.171,2.1.82.768,1.588,1.49,2.166,2.063l.681.665c.258.263.284.289.237.346A.072.072,0,0,1,158.765,151.448Zm-3.151-2.976c.629.588,1.227,1.135,1.743,1.6l-1.723-1.614Zm-.119-.1Zm.113-.108h0c.634-.6,1.238-1.181,1.743-1.676-.521.5-1.129,1.068-1.769,1.676Z" transform="translate(-147.045 -132.896)" fill="#263238"/>
        <path id="Path_32923" data-name="Path 32923" d="M165.388,151.486c-.041,0,.686-2.063,1.619-4.564s1.733-4.518,1.769-4.5-.686,2.063-1.619,4.559S165.43,151.486,165.388,151.486Z" transform="translate(-151.92 -131.536)" fill="#263238"/>
        <path id="Path_32924" data-name="Path 32924" d="M165.334,151.448H165.3c-.077-.026-.088-.031.407-1.429.309-.861.727-2,1.181-3.213s.882-2.347,1.217-3.2c.542-1.377.557-1.377.634-1.346s.088.031-.407,1.429c-.309.861-.727,2.006-1.181,3.213s-.882,2.347-1.217,3.2C165.463,151.293,165.4,151.448,165.334,151.448Zm2.656-7.184c-.273.707-.6,1.578-.98,2.579s-.7,1.877-.954,2.579c.273-.7.6-1.547.98-2.579S167.732,144.976,167.99,144.264Z" transform="translate(-151.86 -131.457)" fill="#263238"/>
      </g>
      <g id="freepik--Floor--inject-54" transform="translate(55.932 264.989)">
        <path id="Path_32925" data-name="Path 32925" d="M379.624,472.5c0,.072-70.654.134-157.812.134S64,472.576,64,472.5s70.654-.134,157.812-.134S379.624,472.432,379.624,472.5Z" transform="translate(-64 -472.37)" fill="#263238"/>
      </g>
      <g id="freepik--Character--inject-54" transform="translate(122.406 79.87)">
        <path id="Path_32926" data-name="Path 32926" d="M243.12,120.285A6.3,6.3,0,0,1,248.674,115a8.293,8.293,0,0,0,2.151-.242,13.063,13.063,0,0,0,1.547-.882,4.208,4.208,0,0,1,5.157,1.073c1.1,1.413,1.547-.552,4.157,1a2.173,2.173,0,0,1,1.031,3.094,4.832,4.832,0,0,1,4.8,3.827c.258,1.392-.026,3.094,1.057,3.992.516.444,1.258.562,1.8.985,1.006.779,1.031,2.285.815,3.538s-.619,2.579-.155,3.765c.763,1.949,3.538,2.718,3.878,4.781.16.975-.248,2.145.428,2.862a3.367,3.367,0,0,0,1.031.6,4.409,4.409,0,0,1,.165,7.829c-.392.217-.861.413-1.031.835s.144.959.366,1.408a4.234,4.234,0,0,1-6.029,5.492,6.627,6.627,0,0,1-3.894,3.094,4.028,4.028,0,0,1-2.316.062,4.642,4.642,0,0,1-1.588-.98c-2.254-1.965-5.415-4.972-5.627-7.953" transform="translate(-217.217 -113.42)" fill="#263238"/>
        <path id="Path_32927" data-name="Path 32927" d="M307.379,194.619,293.867,207c-1.676-.387-22.248-12.687-22.248-12.687l-3.239,15.828s21.057,9.68,26.849,8.509c.949-.2,2.5-.315,3.476-1.547,4.642-5.957,14.471-20.7,14.471-20.7Z" transform="translate(-229.45 -152.593)" fill="#ffbe9d"/>
        <path id="Path_32928" data-name="Path 32928" d="M349.854,168.351c-.892.366-4.079,5.74-4.079,5.74l-.8.041a2.537,2.537,0,0,0-2.383,2.842c.263,2.238.732,5,.732,5L347.781,184l1.325-.278c1.227-.062,2.424-2.579,3.182-4.322s-.485-2.109-.485-2.109c0-1.748-1.48-1.4-1.48-1.4a1.547,1.547,0,0,0-1.594-1.516,45.4,45.4,0,0,0,2.362-4.894C351.478,168.2,350.746,167.99,349.854,168.351Z" transform="translate(-265.38 -139.945)" fill="#ffbe9d"/>
        <path id="Path_32929" data-name="Path 32929" d="M354.527,181.769a8.62,8.62,0,0,1-.464,1.129,4.65,4.65,0,0,1-.279.557,2.491,2.491,0,0,1-.485.542,1.737,1.737,0,0,1-.727.371,1.1,1.1,0,0,1-.861-.206.763.763,0,0,1-.253-.4,1.1,1.1,0,0,1,0-.449,4.506,4.506,0,0,1,.227-.758,9.79,9.79,0,0,1,.557-1.212,7.22,7.22,0,0,1,.469-.758,1.032,1.032,0,0,1,.206-.258c.026,0-.237.4-.567,1.073a11.081,11.081,0,0,0-.516,1.212,4.8,4.8,0,0,0-.211.732.7.7,0,0,0,.211.676.928.928,0,0,0,.722.17,1.578,1.578,0,0,0,.65-.325,2.315,2.315,0,0,0,.464-.516,3.848,3.848,0,0,0,.289-.516,8.075,8.075,0,0,1,.567-1.068Z" transform="translate(-269.672 -145.823)" fill="#eb996e"/>
        <path id="Path_32930" data-name="Path 32930" d="M357.738,184.275a1.2,1.2,0,0,1-.072.309,6.951,6.951,0,0,1-.294.81,4.008,4.008,0,0,1-.676,1.1,1.707,1.707,0,0,1-.619.474.779.779,0,0,1-1.114-.9,3.805,3.805,0,0,1,.206-.743,11.12,11.12,0,0,1,.48-1.181c.155-.33.294-.593.4-.768a.959.959,0,0,1,.175-.263c.026,0-.18.413-.459,1.078-.139.335-.294.737-.438,1.186a3.282,3.282,0,0,0-.186.712.609.609,0,0,0,.872.717,1.666,1.666,0,0,0,.567-.428,3.992,3.992,0,0,0,.681-1.031A11.4,11.4,0,0,1,357.738,184.275Z" transform="translate(-271.366 -147.174)" fill="#eb996e"/>
        <path id="Path_32931" data-name="Path 32931" d="M360.051,187.531a2.032,2.032,0,0,1-.175.83,4.127,4.127,0,0,1-.407.835,2.423,2.423,0,0,1-.34.444.7.7,0,0,1-.609.2.583.583,0,0,1-.423-.485,1.49,1.49,0,0,1,.031-.572,3.767,3.767,0,0,1,.33-.866,7.051,7.051,0,0,1,.4-.748,2.914,2.914,0,0,1-.284.8,4.216,4.216,0,0,0-.284.851,1.486,1.486,0,0,0,0,.516.428.428,0,0,0,.289.351.516.516,0,0,0,.454-.16,2.191,2.191,0,0,0,.32-.4,4.976,4.976,0,0,0,.433-.794C359.963,187.846,360.025,187.526,360.051,187.531Z" transform="translate(-272.89 -149.135)" fill="#eb996e"/>
        <path id="Path_32932" data-name="Path 32932" d="M347.23,179.678a38.51,38.51,0,0,1,3.94.036,1.439,1.439,0,0,1-.784,1.7,4.08,4.08,0,0,1-2.011.289,2.579,2.579,0,0,1-.057,3.816" transform="translate(-267.635 -145.491)" fill="#ffbe9d"/>
        <path id="Path_32933" data-name="Path 32933" d="M348.318,185.444a3.311,3.311,0,0,0,.645-1,2.522,2.522,0,0,0-.645-2.754l-.165-.155h.227a4.348,4.348,0,0,0,1.8-.206,1.393,1.393,0,0,0,.913-1.666l.072.052c-1.15-.088-2.135-.088-2.831-.1h-.81a1.094,1.094,0,0,1-.294,0,1.221,1.221,0,0,1,.289-.036c.191,0,.464-.031.815-.041.7,0,1.681-.041,2.842.031h.052v.052a1.279,1.279,0,0,1-.1,1.109,1.821,1.821,0,0,1-.892.784,4.476,4.476,0,0,1-1.882.211l.062-.144a2.635,2.635,0,0,1,.8,1.547,2.578,2.578,0,0,1-.175,1.367,2.515,2.515,0,0,1-.516.758A.906.906,0,0,1,348.318,185.444Z" transform="translate(-267.635 -145.434)" fill="#eb996e"/>
        <path id="Path_32934" data-name="Path 32934" d="M296.54,451.267a1.124,1.124,0,0,0,.2-.449,3.162,3.162,0,0,0,.108-1.331,1.549,1.549,0,0,0-.108-.454.547.547,0,0,0-.438-.356.408.408,0,0,0-.33.113.515.515,0,0,0-.134.3,3.29,3.29,0,0,0,0,.557c.031.376.031.732.088,1.171a.7.7,0,0,0,.459.552,1.46,1.46,0,0,0,.7.031,5.7,5.7,0,0,0,1.212-.361,5.3,5.3,0,0,0,.542-.268,1.548,1.548,0,0,0,.49-.371.516.516,0,0,0,0-.66.634.634,0,0,0-.593-.139,3.565,3.565,0,0,0-.866.356,4.7,4.7,0,0,0-1.073.794c-.222.222-.32.371-.3.382a9.133,9.133,0,0,1,1.47-.99,3.742,3.742,0,0,1,.815-.3c.144,0,.3,0,.356.072a.263.263,0,0,1-.031.33,1.486,1.486,0,0,1-.413.289c-.165.088-.34.17-.516.247a5.54,5.54,0,0,1-1.155.335,1.135,1.135,0,0,1-.547,0,.4.4,0,0,1-.273-.34c-.057-.356-.067-.768-.1-1.124a3.71,3.71,0,0,1-.026-.516c0-.144.083-.217.186-.206.242,0,.325.335.366.6A4.533,4.533,0,0,1,296.54,451.267Z" transform="translate(-242.742 -275.775)" fill="#263238"/>
        <path id="Path_32935" data-name="Path 32935" d="M338.245,411.068a1.094,1.094,0,0,0,0-.49,3.26,3.26,0,0,0-.516-1.243,1.516,1.516,0,0,0-.294-.356.547.547,0,0,0-.552-.129.407.407,0,0,0-.248.248.547.547,0,0,0,0,.33,3.032,3.032,0,0,0,.258.516c.191.325.346.645.593,1.031a.712.712,0,0,0,.655.294,1.377,1.377,0,0,0,.634-.284,5.309,5.309,0,0,0,1.3-1.336,1.707,1.707,0,0,0,.278-.547.516.516,0,0,0-.284-.6.614.614,0,0,0-.588.129,3.612,3.612,0,0,0-.624.707,4.788,4.788,0,0,0-.609,1.186,1.224,1.224,0,0,0-.108.475,9.925,9.925,0,0,1,.882-1.547,3.609,3.609,0,0,1,.6-.629.376.376,0,0,1,.351-.093.258.258,0,0,1,.113.3,1.389,1.389,0,0,1-.237.443,4.845,4.845,0,0,1-.356.449,5.156,5.156,0,0,1-.887.81,1.135,1.135,0,0,1-.516.232.407.407,0,0,1-.4-.186c-.206-.294-.4-.66-.588-.964a3.094,3.094,0,0,1-.248-.449.2.2,0,0,1,.072-.268c.227-.093.444.16.593.376A4.745,4.745,0,0,1,338.245,411.068Z" transform="translate(-262.492 -256.309)" fill="#263238"/>
        <path id="Path_32936" data-name="Path 32936" d="M294.686,415.812l-6.292,13.641L278.24,424.76l6.508-16.88Z" transform="translate(-234.225 -256.019)" fill="#ffbe9d"/>
        <path id="Path_32937" data-name="Path 32937" d="M284.017,442.54l-3.677,7.014s9.412,9.732,8.525,11.9L266.74,450.849l6.08-14.059Z" transform="translate(-228.656 -270.02)" fill="#455a64"/>
        <path id="Path_32938" data-name="Path 32938" d="M279.664,453.305a1,1,0,0,0-1.119.732.959.959,0,0,0,.743,1.114,1.057,1.057,0,0,0,1.181-.784,1.031,1.031,0,0,0-.872-1.078" transform="translate(-234.365 -278.01)" fill="#e0e0e0"/>
        <g id="Group_1686" data-name="Group 1686" transform="translate(38.084 179.065)" opacity="0.6">
          <path id="Path_32939" data-name="Path 32939" d="M266.74,462.394l.923-1.764,20.866,10.83s.779.9.335,1.547Z" transform="translate(-266.74 -460.63)" fill="#fff"/>
        </g>
        <path id="Path_32940" data-name="Path 32940" d="M291.46,461.25c-.057.108-.619-.1-1.32,0s-1.2.413-1.279.32.382-.64,1.233-.732S291.507,461.162,291.46,461.25Z" transform="translate(-239.364 -281.659)" fill="#263238"/>
        <path id="Path_32941" data-name="Path 32941" d="M295.423,465.5c-.026.119-.578.077-1.166.356s-.923.717-1.031.66.119-.7.856-1.031S295.469,465.4,295.423,465.5Z" transform="translate(-241.47 -283.834)" fill="#263238"/>
        <path id="Path_32942" data-name="Path 32942" d="M297.455,470.873c-.108,0,0-.634.557-1.093s1.181-.454,1.181-.34-.459.279-.913.66S297.563,470.915,297.455,470.873Z" transform="translate(-243.512 -285.8)" fill="#263238"/>
        <path id="Path_32943" data-name="Path 32943" d="M293.787,455.355c-.093.077-.516-.309-1.145-.557s-1.2-.289-1.212-.407.629-.289,1.367,0S293.854,455.3,293.787,455.355Z" transform="translate(-240.613 -278.466)" fill="#263238"/>
        <path id="Path_32944" data-name="Path 32944" d="M259.533,370.77l16.029-39.886s-.371-7.086-1.676-9.319-40.82-15.286-40.82-15.286-10.067-2.424-16.777,0-11.743,10.83-10.83,15.472,4.868,8.1,4.868,8.1l29.056.866,15.843,5.776-10.655,30.546S250.039,373.008,259.533,370.77Z" transform="translate(-198.927 -206.295)" fill="#263238"/>
        <path id="Path_32945" data-name="Path 32945" d="M326.269,377.923l.377,15.013-11.181.273-1.614-18.02Z" transform="translate(-251.47 -240.189)" fill="#ffbe9d"/>
        <path id="Path_32946" data-name="Path 32946" d="M328.169,406.792l-.206,7.916s12.744,4.574,12.893,6.916l-24.533.253-.753-15.307Z" transform="translate(-252.303 -255.385)" fill="#455a64"/>
        <path id="Path_32947" data-name="Path 32947" d="M324.166,420.412a1.031,1.031,0,0,0-.681,1.155.964.964,0,0,0,1.135.681,1.062,1.062,0,0,0,.717-1.222,1,1,0,0,0-1.258-.578" transform="translate(-256.128 -262.079)" fill="#e0e0e0"/>
        <g id="Group_1687" data-name="Group 1687" transform="translate(64.004 164.501)" opacity="0.6">
          <path id="Path_32948" data-name="Path 32948" d="M317,434.381l.046-1.991,23.507.516s1.1.464.98,1.233Z" transform="translate(-317 -432.39)" fill="#fff"/>
        </g>
        <path id="Path_32949" data-name="Path 32949" d="M338.232,422c0,.119-.6.181-1.186.572s-.892.9-1.006.851.062-.743.779-1.2S338.258,421.888,338.232,422Z" transform="translate(-262.201 -262.807)" fill="#263238"/>
        <path id="Path_32950" data-name="Path 32950" d="M343.817,424.064c.031.113-.485.325-.887.835s-.516,1.031-.634,1.031-.2-.686.309-1.31S343.817,423.951,343.817,424.064Z" transform="translate(-265.202 -263.833)" fill="#263238"/>
        <path id="Path_32951" data-name="Path 32951" d="M348.086,428.1c-.108.031-.284-.567,0-1.227s.856-.928.908-.825-.289.454-.516,1S348.2,428.077,348.086,428.1Z" transform="translate(-267.975 -264.808)" fill="#263238"/>
        <path id="Path_32952" data-name="Path 32952" d="M337.458,416.089c-.052.113-.6-.046-1.279,0s-1.2.273-1.264.17.438-.516,1.238-.588S337.535,416,337.458,416.089Z" transform="translate(-261.669 -259.789)" fill="#263238"/>
        <path id="Path_32953" data-name="Path 32953" d="M293.221,299.539a6.978,6.978,0,0,1,7.447,6.735c.743,7.251,1.475,41.191,1.475,41.191l-15.652,1.3L284.067,314.1,259.09,303.48S288.749,298.611,293.221,299.539Z" transform="translate(-224.951 -203.496)" fill="#263238"/>
        <path id="Path_32954" data-name="Path 32954" d="M237.177,280.63s4.069,11.4,3.3,12.671-11.233,6.5-11.233,6.5l-26.163,10.052a21.914,21.914,0,0,1-2.687-10.83c0-6.555,9.082-18.391,9.082-18.391Z" transform="translate(-196.524 -194.396)" fill="#263238"/>
        <path id="Path_32955" data-name="Path 32955" d="M256.69,306.16s.036,0,.119.067l.371.17,1.449.645,5.441,2.372,18.778,8.081-.083-.119c.237,3.424.49,7.122.758,10.949.634,8.948,1.222,17.194,1.686,23.723v.119h.113l11.408-1,3.141-.294.82-.088a1.111,1.111,0,0,0,.278-.041h-.278l-.825.052-3.146.227-11.413.9.124.108c-.449-6.529-1.031-14.776-1.63-23.723-.268-3.827-.516-7.524-.768-10.949v-.088l-.083-.031-18.814-7.989-5.472-2.295-1.47-.6-.382-.15A.434.434,0,0,0,256.69,306.16Z" transform="translate(-223.789 -206.759)" fill="#455a64"/>
        <path id="Path_32956" data-name="Path 32956" d="M216.34,305.523a3.482,3.482,0,0,0,.732-.2l1.97-.634a42.951,42.951,0,0,1,6.6-1.666,19.391,19.391,0,0,1,6.746.088,26.861,26.861,0,0,1,2.708.784,3.383,3.383,0,0,0-.681-.346,12.287,12.287,0,0,0-1.98-.64,18.231,18.231,0,0,0-6.839-.175,36.652,36.652,0,0,0-6.617,1.759c-.825.294-1.485.547-1.939.727A3.759,3.759,0,0,0,216.34,305.523Z" transform="translate(-204.249 -204.982)" fill="#455a64"/>
        <path id="Path_32957" data-name="Path 32957" d="M223.51,296.516a18.71,18.71,0,0,1,2.285,0c.707.046,1.547.155,2.481.263s1.955.237,3.012.438a14.043,14.043,0,0,1,5.126,1.9,16.374,16.374,0,0,1,1.779,1.434,2.011,2.011,0,0,0-.382-.49,7.817,7.817,0,0,0-1.279-1.114,13.177,13.177,0,0,0-5.188-2.017c-1.073-.2-2.1-.32-3.043-.418s-1.779-.181-2.491-.2a9.334,9.334,0,0,0-1.7.072A2.063,2.063,0,0,0,223.51,296.516Z" transform="translate(-207.721 -201.984)" fill="#455a64"/>
        <path id="Path_32958" data-name="Path 32958" d="M273,193.54a8.453,8.453,0,0,1,4.342,3.775,6.675,6.675,0,0,1,.774,6.024c-.423,1.707-1.181,5.1-1.222,4.879S273,193.54,273,193.54Z" transform="translate(-231.688 -152.22)" fill="#ffbe9d"/>
        <path id="Path_32959" data-name="Path 32959" d="M251.239,191.143l-3.43-2.032-19.34-.511,6.514,21.361,11.779,7.421,6.983-3.5.7-7.762Z" transform="translate(-210.123 -149.828)" fill="#ffbe9d"/>
        <path id="Path_32960" data-name="Path 32960" d="M240.229,191s4.446,14.265,4.342,18.35-1.795,15.688-1.6,17.973-.6,8.592-3.393,8.592H211.864s-6.251-1.728-6.524-5.487,4.812-35.9,4.812-35.9,3.548-5.353,5.838-5.823,6.539-1.434,8.071,3.306,2.032,7.169,5.3,10.438,7.922,6.937,7.922,6.937,3.754-3.141,3.92-7.39-1.418-11.135-1.418-11.135Z" transform="translate(-198.916 -149.68)" fill="#0091ff"/>
        <path id="Path_32961" data-name="Path 32961" d="M265,274.688a2.61,2.61,0,0,0,1.093-.578,6.6,6.6,0,0,0,1.851-2.346,12.643,12.643,0,0,0,.944-2.831,4.42,4.42,0,0,0,.191-1.212,5.8,5.8,0,0,0-.392,1.16,17.79,17.79,0,0,1-1,2.754,7.5,7.5,0,0,1-1.723,2.316C265.418,274.44,265,274.641,265,274.688Z" transform="translate(-227.813 -188.144)" fill="#263238"/>
        <path id="Path_32962" data-name="Path 32962" d="M236.61,244.411a2.16,2.16,0,0,0,.464.392,8.19,8.19,0,0,0,1.434.835,8.581,8.581,0,0,0,2.362.712,8.174,8.174,0,0,0,3.022-.129,10,10,0,0,0,4.7-2.728,11.972,11.972,0,0,0,1.078-1.258,2.3,2.3,0,0,0,.325-.516c-.041-.036-.542.67-1.547,1.619a10.371,10.371,0,0,1-4.642,2.579,8.468,8.468,0,0,1-5.235-.48C237.327,244.911,236.641,244.364,236.61,244.411Z" transform="translate(-214.065 -175.551)" fill="#263238"/>
        <path id="Path_32963" data-name="Path 32963" d="M265.677,278.1c.057.052.438-.387.567-1.068s-.052-1.227-.124-1.2a9.05,9.05,0,0,0-.16,1.145C265.837,277.593,265.6,278.057,265.677,278.1Z" transform="translate(-228.135 -192.07)" fill="#263238"/>
        <g id="Group_1688" data-name="Group 1688" transform="translate(22.653 66.652)" opacity="0.3">
          <path id="Path_32964" data-name="Path 32964" d="M249.636,242.835a8.035,8.035,0,0,1-2.842,5.441,6.7,6.7,0,0,1-5.926,1.264,5.735,5.735,0,0,1-4.048-4.4,17.057,17.057,0,0,0,4.42,1.547,8.685,8.685,0,0,0,8.53-4.028l-.227.237" transform="translate(-236.82 -242.66)"/>
        </g>
        <g id="Group_1689" data-name="Group 1689" transform="translate(38.094 79.881)" opacity="0.3">
          <path id="Path_32965" data-name="Path 32965" d="M269.978,268.439A6.189,6.189,0,0,1,268,274.22a1.336,1.336,0,0,1-1.243.418,14.786,14.786,0,0,0,3.187-6.328" transform="translate(-266.76 -268.31)"/>
        </g>
        <path id="Path_32966" data-name="Path 32966" d="M200.39,211.294l13.95,6.545s5.673-12.584,6.189-14.306,2.022-4.44.449-8.03-5.534-5.585-8.164-4.642C206.651,193,200.39,211.294,200.39,211.294Z" transform="translate(-196.524 -150.81)" fill="#0091ff"/>
        <path id="Path_32967" data-name="Path 32967" d="M274.893,211.985c.65,0,8.133,3.914,8.133,3.914l4.26-14.11c-6.364-4.239-12.862-8.649-16.586-9.649l3.249,11.227Z" transform="translate(-230.574 -151.542)" fill="#0091ff"/>
        <path id="Path_32968" data-name="Path 32968" d="M209.344,236.9c-2.646,4.342-4.487,6.839-4.487,6.839l23.723,14.44-2.759,6.416-30.737-12.651s-3.032-3.094-1.96-6.591l4.9-13.527Z" transform="translate(-192.895 -170.763)" fill="#ffbe9d"/>
        <path id="Path_32969" data-name="Path 32969" d="M204.9,257.119a12.935,12.935,0,0,1,5.931-2.207,7.654,7.654,0,0,0-5.946,2.207Z" transform="translate(-198.699 -181.931)" fill="#eb996e"/>
        <path id="Path_32970" data-name="Path 32970" d="M200.39,225.625a1.546,1.546,0,0,1,.273.1l.774.33,2.821,1.253,9.283,4.219,1.129.516-.181.067c1.614-3.321,3.022-6.292,4.023-8.432.485-1.031.877-1.9,1.166-2.537.129-.273.232-.516.315-.686a1.938,1.938,0,0,1,.124-.232.763.763,0,0,1-.077.253c-.057.165-.144.4-.268.707-.242.609-.614,1.485-1.093,2.579-.954,2.166-2.336,5.157-3.945,8.473l-.057.119-.119-.057-1.129-.516-9.231-4.3-2.78-1.331-.753-.371a.975.975,0,0,1-.273-.155Z" transform="translate(-196.524 -165.141)" fill="#263238"/>
        <path id="Path_32971" data-name="Path 32971" d="M277.16,205.87a3.8,3.8,0,0,1,.325.665,14.4,14.4,0,0,1,.634,1.913,34.954,34.954,0,0,1,.954,6.565,46.486,46.486,0,0,1-.062,6.632c-.072.846-.17,1.547-.253,2a3.606,3.606,0,0,1-.165.722,4.275,4.275,0,0,1,.062-.737c.046-.469.119-1.15.165-2a56.244,56.244,0,0,0,0-6.6,40.041,40.041,0,0,0-.887-6.514,19.172,19.172,0,0,0-.547-1.924A4.2,4.2,0,0,1,277.16,205.87Z" transform="translate(-233.702 -158.191)" fill="#263238"/>
        <path id="Path_32972" data-name="Path 32972" d="M277.815,287.309l-5.91-2.806-11.532-.913-.964-.681-2.759,6.416a19.136,19.136,0,0,0,4.605,1.578l9.7-.294,5.07.516Z" transform="translate(-223.77 -195.5)" fill="#ffbe9d"/>
        <path id="Path_32973" data-name="Path 32973" d="M283.33,144.466a2.517,2.517,0,0,0,1.031,0,6.138,6.138,0,0,0,2.357-.908,6.075,6.075,0,0,0,1.79-1.774,2.579,2.579,0,0,0,.444-.944,7.992,7.992,0,0,0-.6.83,7.071,7.071,0,0,1-4.023,2.579,7.911,7.911,0,0,0-1,.217Z" transform="translate(-236.69 -126.699)" fill="#455a64"/>
        <path id="Path_32974" data-name="Path 32974" d="M280.4,134.58a3.152,3.152,0,0,0,.676.676,5.951,5.951,0,0,0,4.4,1.119,2.145,2.145,0,0,0,.918-.268,9.769,9.769,0,0,1-3.156-.129A9.521,9.521,0,0,1,280.4,134.58Z" transform="translate(-235.271 -123.667)" fill="#455a64"/>
        <path id="Path_32975" data-name="Path 32975" d="M294.177,174.975h.093a1.056,1.056,0,0,0,.268-.077,3.358,3.358,0,0,0,.933-.516,3.61,3.61,0,0,0,1.062-1.315,3.538,3.538,0,0,0,.258-2.223,3.61,3.61,0,0,0-.49-1.222,4.894,4.894,0,0,0-.954-1.062,4.832,4.832,0,0,1-.985-1.068,1.48,1.48,0,0,1-.046-1.408,7.172,7.172,0,0,1,.97-1.315,4.639,4.639,0,0,0,.516-.727,2.883,2.883,0,0,0,.294-.877,3.094,3.094,0,0,0-1.681-3.182,10.178,10.178,0,0,0-1.836-.423,2.13,2.13,0,0,1-.774-.33,1.264,1.264,0,0,1-.454-.655,2.579,2.579,0,0,1,.181-1.609c.211-.516.516-1,.7-1.521a2.46,2.46,0,0,0,.108-1.64,2.578,2.578,0,0,0-.928-1.238,7.111,7.111,0,0,0-2.5-1.031,5.477,5.477,0,0,1-1.975-.9,2.455,2.455,0,0,1-.825-1.367,1.547,1.547,0,0,1,.1-1.031c.1-.217.2-.3.186-.315a.856.856,0,0,0-.237.289A1.547,1.547,0,0,0,286,149.24a2.522,2.522,0,0,0,.83,1.475,5.611,5.611,0,0,0,2.017.97,7.075,7.075,0,0,1,2.414,1.031,2.346,2.346,0,0,1,.835,1.129,2.182,2.182,0,0,1-.113,1.47c-.191.516-.474.97-.7,1.511a2.816,2.816,0,0,0-.2,1.79,1.506,1.506,0,0,0,.547.8,2.393,2.393,0,0,0,.882.382,10.431,10.431,0,0,1,1.779.407,2.816,2.816,0,0,1,1.547,2.883,2.728,2.728,0,0,1-.258.789,4.822,4.822,0,0,1-.48.686,6.921,6.921,0,0,0-.99,1.377,1.728,1.728,0,0,0,.062,1.64,5.193,5.193,0,0,0,1.031,1.119,4.641,4.641,0,0,1,.923,1,3.651,3.651,0,0,1,.474,1.155,3.373,3.373,0,0,1-.211,2.115,3.61,3.61,0,0,1-.985,1.294,4.688,4.688,0,0,1-1.233.712Z" transform="translate(-237.97 -130.128)" fill="#455a64"/>
        <path id="Path_32976" data-name="Path 32976" d="M241.625,131.847l.041-2.12,12.831-1.908c3.945-.258,8.03,3.852,8.118,7.8.1,4.389.046,9.752-.6,13-1.31,6.524-6.38,7.138-6.38,7.138l-.278,6.539-14.533-.407Z" transform="translate(-216.104 -120.388)" fill="#ffbe9d"/>
        <path id="Path_32977" data-name="Path 32977" d="M278.286,151.559a.846.846,0,0,1-.846.815.81.81,0,0,1-.841-.794.851.851,0,0,1,.846-.82.815.815,0,0,1,.841.8Z" transform="translate(-233.431 -131.503)" fill="#263238"/>
        <path id="Path_32978" data-name="Path 32978" d="M277.031,147.361c-.108.1-.727-.392-1.635-.428s-1.588.392-1.681.279.067-.248.366-.444a2.29,2.29,0,0,1,1.351-.361,2.187,2.187,0,0,1,1.294.48C277,147.109,277.088,147.315,277.031,147.361Z" transform="translate(-232.021 -129.394)" fill="#263238"/>
        <path id="Path_32979" data-name="Path 32979" d="M262.026,150.914a.846.846,0,0,1-.846.82.815.815,0,0,1-.841-.8.846.846,0,0,1,.846-.815.81.81,0,0,1,.841.794Z" transform="translate(-225.557 -131.193)" fill="#263238"/>
        <path id="Path_32980" data-name="Path 32980" d="M259.741,146.992c-.108.1-.727-.4-1.635-.428s-1.588.392-1.681.273.067-.242.366-.444a2.331,2.331,0,0,1,1.351-.356,2.218,2.218,0,0,1,1.294.474C259.71,146.739,259.8,146.94,259.741,146.992Z" transform="translate(-223.648 -129.215)" fill="#263238"/>
        <path id="Path_32981" data-name="Path 32981" d="M268.637,154.071a5.92,5.92,0,0,1,1.485-.206c.232,0,.454-.052.516-.206a1.207,1.207,0,0,0-.124-.7c-.2-.567-.4-1.166-.614-1.79a30.12,30.12,0,0,1-1.351-4.672,30.2,30.2,0,0,1,1.723,4.554c.206.629.4,1.227.583,1.8a1.356,1.356,0,0,1,.088.913.6.6,0,0,1-.4.325,1.578,1.578,0,0,1-.392.036A5.8,5.8,0,0,1,268.637,154.071Z" transform="translate(-229.527 -129.44)" fill="#263238"/>
        <path id="Path_32982" data-name="Path 32982" d="M261.157,179.508a17.406,17.406,0,0,1-8.927-2.728s2.032,4.693,8.855,4.363Z" transform="translate(-221.629 -144.104)" fill="#eb996e"/>
        <path id="Path_32983" data-name="Path 32983" d="M265.279,164.751a1.645,1.645,0,0,0-1.444-.665,1.5,1.5,0,0,0-1.031.516.949.949,0,0,0-.113,1.078,1.1,1.1,0,0,0,1.176.351,3.506,3.506,0,0,0,1.186-.645,1.088,1.088,0,0,0,.273-.258.314.314,0,0,0,0-.34" transform="translate(-226.638 -137.954)" fill="#eb996e"/>
        <path id="Path_32984" data-name="Path 32984" d="M263.36,162.18c.15,0,.108.985.923,1.717s1.867.665,1.867.8-.242.18-.686.175a2.455,2.455,0,0,1-1.547-.619,2.1,2.1,0,0,1-.712-1.434C263.174,162.412,263.293,162.175,263.36,162.18Z" transform="translate(-226.942 -137.033)" fill="#263238"/>
        <path id="Path_32985" data-name="Path 32985" d="M259.734,140.288c-.1.242-1,.088-2.063.17s-1.939.34-2.063.113c-.062-.108.1-.33.454-.557a3.517,3.517,0,0,1,1.547-.474,3.465,3.465,0,0,1,1.6.258C259.584,139.979,259.775,140.18,259.734,140.288Z" transform="translate(-223.259 -126.065)" fill="#263238"/>
        <path id="Path_32986" data-name="Path 32986" d="M276.809,142.186c-.165.2-.784-.041-1.547-.083s-1.392.083-1.547-.139c-.062-.108.046-.309.335-.516a2.233,2.233,0,0,1,2.47.181C276.8,141.871,276.886,142.108,276.809,142.186Z" transform="translate(-232.025 -126.853)" fill="#263238"/>
        <path id="Path_32987" data-name="Path 32987" d="M264.354,125.593c-1.057,2.295-3.43,5.714-5.946,5.962a7.437,7.437,0,0,1-6.617-2.976c-.423,1.862-2.522,2.811-4.415,3.094a7.581,7.581,0,0,1-3.987-.361,3.976,3.976,0,0,1-2.46-2.991c-.175-1.341,1.8-4.575,3.136-4.791" transform="translate(-216.151 -118.316)" fill="#263238"/>
        <path id="Path_32988" data-name="Path 32988" d="M229.036,159.023a5.183,5.183,0,0,1-3.791,4.6,3.667,3.667,0,0,1-7.1,1.423,4.512,4.512,0,0,0-.516-1.243c-.645-.815-1.9-.65-2.883-.97-1.779-.578-2.553-2.759-2.352-4.616a4.178,4.178,0,0,0,.052-1.1,4.871,4.871,0,0,0-1.124-1.929c-1.79-2.537-1.031-6.22.939-8.607.66-.794,1.5-1.625,1.434-2.656a5.492,5.492,0,0,0-.562-1.635,4.688,4.688,0,0,1,1.269-5.116,1.031,1.031,0,0,0,.516-1.2,5.482,5.482,0,0,1,4.642-5.859,1.3,1.3,0,0,0,.485-.108c.423-.217.433-.8.49-1.274a8.816,8.816,0,0,1,2.063-4.4c2.651-2.264,5.219-.423,6.137.444,0,0,1.815,8.994,1.465,10.67s-1.583,5.854-1.093,7.736,1.284,5.786.516,7.493S229.036,159.023,229.036,159.023Z" transform="translate(-201.329 -118.177)" fill="#263238"/>
        <path id="Path_32989" data-name="Path 32989" d="M227.39,136.5a3.262,3.262,0,0,0,.346.284,9.483,9.483,0,0,0,1.031.629,12.893,12.893,0,0,0,7.885,1.294,8.953,8.953,0,0,0,1.2-.263c.278-.083.428-.139.423-.16s-.634.108-1.65.227a15.058,15.058,0,0,1-3.971-.1,14.647,14.647,0,0,1-3.8-1.176C227.952,136.8,227.416,136.456,227.39,136.5Z" transform="translate(-209.6 -124.594)" fill="#455a64"/>
        <path id="Path_32990" data-name="Path 32990" d="M225.71,137.729a2.088,2.088,0,0,0,.191.516,4.394,4.394,0,0,0,.289.6,7.262,7.262,0,0,0,.438.768,11.779,11.779,0,0,0,1.423,1.815,13.285,13.285,0,0,0,2.166,1.81,13.788,13.788,0,0,0,2.517,1.279,11.983,11.983,0,0,0,2.228.588,7.686,7.686,0,0,0,.877.1,4.441,4.441,0,0,0,.665,0,2.346,2.346,0,0,0,.567-.031c0-.057-.81-.046-2.063-.294a13.2,13.2,0,0,1-2.166-.634,14.534,14.534,0,0,1-2.455-1.274,14.362,14.362,0,0,1-2.135-1.753,12.7,12.7,0,0,1-1.439-1.743C226.071,138.457,225.762,137.7,225.71,137.729Z" transform="translate(-208.786 -125.192)" fill="#455a64"/>
        <path id="Path_32991" data-name="Path 32991" d="M231.229,177.91a1.984,1.984,0,0,1-.315-.036,1.392,1.392,0,0,1-.758-.449,1.924,1.924,0,0,1-.49-1.289,6.327,6.327,0,0,1,.34-1.867,4.033,4.033,0,0,0,.139-2.367,7.223,7.223,0,0,0-1.547-2.212,4.3,4.3,0,0,1-.784-1.16,1.619,1.619,0,0,1,.041-1.356,3.048,3.048,0,0,1,1.031-1.083c.423-.309.887-.578,1.336-.913a2.888,2.888,0,0,0,1.078-1.284,2,2,0,0,0-.17-1.625c-.516-.933-1.3-1.614-1.49-2.512a3.038,3.038,0,0,1,.67-2.408,10.663,10.663,0,0,1,1.578-1.692,11.032,11.032,0,0,0,1.331-1.423,4.451,4.451,0,0,0,.676-1.3A2.775,2.775,0,0,0,234,152a1.613,1.613,0,0,0-.057-.32,3.558,3.558,0,0,1-.155,1.212,6.58,6.58,0,0,1-2.063,2.615,10.564,10.564,0,0,0-1.635,1.7,4.435,4.435,0,0,0-.634,1.176,2.625,2.625,0,0,0-.1,1.429c.217,1.031,1.031,1.712,1.5,2.579a1.723,1.723,0,0,1,.15,1.4,2.682,2.682,0,0,1-.98,1.15c-.433.32-.9.593-1.336.913a3.337,3.337,0,0,0-1.1,1.186,1.919,1.919,0,0,0-.046,1.578,4.643,4.643,0,0,0,.841,1.238,6.836,6.836,0,0,1,1.547,2.109,3.93,3.93,0,0,1-.108,2.243,6.245,6.245,0,0,0-.309,1.924,2.063,2.063,0,0,0,.572,1.362,1.413,1.413,0,0,0,.825.428A.691.691,0,0,0,231.229,177.91Z" transform="translate(-209.602 -131.949)" fill="#455a64"/>
        <path id="Path_32992" data-name="Path 32992" d="M308.295,247.29l-33.254.268a2.082,2.082,0,0,0-2.269,1.588l-3.636,24.239H251.993a1,1,0,1,0,0,2h54.719l3.739-25.58a2.176,2.176,0,0,0-2.156-2.512Z" transform="translate(-220.995 -178.25)" fill="#e0e0e0"/>
        <path id="Path_32993" data-name="Path 32993" d="M308.249,247.279a1.661,1.661,0,0,1,.516.046,2.192,2.192,0,0,1,1.681,1.908,6.126,6.126,0,0,1-.119,1.367l-.48,3.373c-.732,5.085-1.79,12.4-3.094,21.408v.088h-.088l-53.073.026h-1.429a1.331,1.331,0,0,1-.753-.144,1.119,1.119,0,0,1-.516-.6,1.135,1.135,0,0,1,.516-1.382,1.4,1.4,0,0,1,.748-.139h16.926l-.129.108c1.31-8.68,2.527-16.777,3.61-24.038a1.872,1.872,0,0,1,.614-1.269,2.5,2.5,0,0,1,1.274-.562,11.812,11.812,0,0,1,1.341-.046h1.3l5-.036,8.9-.057,12.666-.062h3.388l-3.388.052L291,247.46l-8.9.088-5.008.046h-1.3a11,11,0,0,0-1.31.046,2.28,2.28,0,0,0-1.16.516,1.661,1.661,0,0,0-.542,1.135L269.2,273.339v.108H252.179a1.14,1.14,0,0,0-.619.108.861.861,0,0,0-.392,1.031.846.846,0,0,0,.387.459,1.078,1.078,0,0,0,.624.108h1.429l53.073.031-.1.088c1.331-8.994,2.419-16.312,3.172-21.392.191-1.269.356-2.393.516-3.373a6.131,6.131,0,0,0,.134-1.346,2.062,2.062,0,0,0-.387-1.031,2.176,2.176,0,0,0-1.227-.851,3.18,3.18,0,0,0-.542,0Z" transform="translate(-220.949 -178.239)" fill="#263238"/>
        <circle id="Ellipse_412" data-name="Ellipse 412" cx="2.084" cy="2.084" r="2.084" transform="translate(67.176 80.69)" fill="#fff"/>
        <path id="Path_32994" data-name="Path 32994" d="M288.849,275.406c.046,0,1.109-6.163,2.367-13.785s2.238-13.8,2.192-13.811-1.1,6.163-2.362,13.785S288.8,275.4,288.849,275.406Z" transform="translate(-239.362 -178.502)" fill="#263238"/>
      </g>
      <g id="freepik--Picture--inject-54" transform="translate(206.462 82.015)">
        <path id="Path_32995" data-name="Path 32995" d="M412.721,169.316V165.84c0-2.269,0-5.59-.026-9.8,0-8.458-.036-20.547-.062-35.069l.113.113h-54.2l.134-.134v48.411l-.119-.119,39.2.062,11.057.031h.036l-11.052.026-39.283.062H358.4V120.76h54.461v.124c0,14.58-.041,26.694-.057,35.167,0,4.219,0,7.535-.031,9.8v2.579A5.746,5.746,0,0,1,412.721,169.316Z" transform="translate(-357.1 -119.12)" fill="#263238"/>
        <rect id="Rectangle_3030" data-name="Rectangle 3030" width="46.25" height="42.903" transform="translate(4.956 4.538)" fill="#0091ff"/>
        <g id="Group_1690" data-name="Group 1690" transform="translate(8.27 7.877)" opacity="0.3">
          <path id="Path_32996" data-name="Path 32996" d="M416.858,145.129a3.192,3.192,0,1,0,3.326,3.192A3.259,3.259,0,0,0,416.858,145.129Z" transform="translate(-392.199 -138.798)"/>
          <path id="Path_32997" data-name="Path 32997" d="M411.263,132.888l-39.071-.031c.041-.046-.423.4-.227.217V169.03h.191l28.365-.093,7.927-.046h2.579a.546.546,0,0,0,.17,0h-2.852l-7.968-.046-8.731-.031h19.546v.119a.45.45,0,0,0,0-.155c0-.124,0-.278,0-.48,0-.449,0-1.078.026-1.9,0-1.692.026-4.126.046-7.246.026-6.292.057-15.255.1-26.018v-.18Zm-9.458,20.4-6.359,7.493-10.464-14.115-12.6,21.748V133.28l38.68-.031c.036,10.634.072,19.494.093,25.724,0,3.125.041,5.585.052,7.287v2.491Z" transform="translate(-371.916 -132.853)"/>
        </g>
        <rect id="Rectangle_3031" data-name="Rectangle 3031" width="2.842" height="2.842" transform="translate(0 0)" fill="#263238"/>
        <rect id="Rectangle_3032" data-name="Rectangle 3032" width="2.842" height="2.842" transform="translate(53.744 0)" fill="#263238"/>
        <rect id="Rectangle_3033" data-name="Rectangle 3033" width="2.842" height="2.842" transform="translate(53.744 48.308)" fill="#263238"/>
        <rect id="Rectangle_3034" data-name="Rectangle 3034" width="2.842" height="2.842" transform="translate(0.397 48.308)" fill="#263238"/>
        <rect id="Rectangle_3035" data-name="Rectangle 3035" width="2.842" height="2.842" transform="translate(0.397 24.435)" fill="#263238"/>
        <rect id="Rectangle_3036" data-name="Rectangle 3036" width="2.842" height="2.842" transform="translate(26.751 48.777)" fill="#263238"/>
        <rect id="Rectangle_3037" data-name="Rectangle 3037" width="2.842" height="2.842" transform="translate(54.203 23.017)" fill="#263238"/>
        <rect id="Rectangle_3038" data-name="Rectangle 3038" width="2.842" height="2.842" transform="translate(26.761 0.258)" fill="#263238"/>
      </g>
      <g id="freepik--Plant--inject-54" transform="translate(313.826 185.893)">
        <path id="Path_32998" data-name="Path 32998" d="M622.718,375.144c-.052.067-.48-.191-.959-.572s-.825-.748-.774-.81.485.2.959.578S622.77,375.082,622.718,375.144Z" transform="translate(-591.625 -345.515)" fill="#263238"/>
        <path id="Path_32999" data-name="Path 32999" d="M636.456,330.063a15.142,15.142,0,0,0-.444-5.415,4.763,4.763,0,0,0-8.958-1.088,14.723,14.723,0,0,0-1.867,5.9,208.169,208.169,0,0,0-2.553,42.805l8.344,1.191C634.625,358.505,635.79,345.437,636.456,330.063Z" transform="translate(-592.33 -319.909)" fill="#455a64"/>
        <path id="Path_33000" data-name="Path 33000" d="M633.627,320.91a.56.56,0,0,1-.041.134l-.134.377q-.206.516-.557,1.439c-.119.315-.268.655-.4,1.031l-.4,1.264-.464,1.444-.433,1.655a72.2,72.2,0,0,0-1.609,8.252c-.449,3.136-.748,6.606-.98,10.253-.423,7.3-.516,13.925-.681,18.716-.088,2.393-.17,4.332-.263,5.673-.041.65-.077,1.16-.1,1.547a3.509,3.509,0,0,1-.036.4.362.362,0,0,1,0,.134.519.519,0,0,1,0-.134v-.4c0-.382,0-.892.047-1.547.057-1.341.108-3.28.17-5.673.134-4.791.165-11.418.593-18.731.232-3.651.516-7.127,1-10.268a69.141,69.141,0,0,1,1.681-8.252c.155-.578.309-1.129.449-1.65a13.944,13.944,0,0,1,.516-1.449l.433-1.253c.129-.387.294-.727.418-1.031l.609-1.423.165-.366A.349.349,0,0,1,633.627,320.91Z" transform="translate(-594.793 -319.925)" fill="#263238"/>
        <path id="Path_33001" data-name="Path 33001" d="M639.052,320.92a6.046,6.046,0,0,1,1.031,1.723,12.822,12.822,0,0,1,.758,5.389c-.222,4.605-.634,10.949-1.181,17.952S638.5,359.321,638,363.9c-.242,2.29-.459,4.126-.614,5.415-.077.619-.144,1.109-.191,1.475a2.316,2.316,0,0,1-.057.382c-.016.108,0,.129,0,.124a.4.4,0,0,1,0-.129v-.387c.031-.361.077-.856.134-1.475.124-1.31.3-3.156.516-5.425.438-4.58,1.031-10.913,1.547-17.916s1-13.347,1.269-17.932a13.047,13.047,0,0,0-.655-5.343A11.351,11.351,0,0,0,639.052,320.92Z" transform="translate(-599.449 -319.93)" fill="#263238"/>
        <path id="Path_33002" data-name="Path 33002" d="M649.178,361.7a4.607,4.607,0,0,1-1.578-.413,4.524,4.524,0,0,1-1.48-.686A8.766,8.766,0,0,1,649.178,361.7Z" transform="translate(-603.799 -339.146)" fill="#263238"/>
        <path id="Path_33003" data-name="Path 33003" d="M651.065,346.26a5.064,5.064,0,0,1-1.5.835,5.246,5.246,0,0,1-1.625.567,4.976,4.976,0,0,1,1.5-.835A5.158,5.158,0,0,1,651.065,346.26Z" transform="translate(-604.681 -332.201)" fill="#263238"/>
        <path id="Path_33004" data-name="Path 33004" d="M650.685,332.566a5.255,5.255,0,0,1-2.465-.17,2.667,2.667,0,0,1,1.243-.067A2.733,2.733,0,0,1,650.685,332.566Z" transform="translate(-604.816 -325.434)" fill="#263238"/>
        <path id="Path_33005" data-name="Path 33005" d="M635.015,322.144c-.067.041-.433-.413-.815-1.031s-.634-1.129-.562-1.176.433.413.815,1.031A2.93,2.93,0,0,1,635.015,322.144Z" transform="translate(-597.749 -319.452)" fill="#263238"/>
        <path id="Path_33006" data-name="Path 33006" d="M628.6,332.154a2.429,2.429,0,0,1-1.181.124c-.655,0-1.181-.093-1.176-.175a2.5,2.5,0,0,1,1.181-.124C628.071,331.979,628.6,332.071,628.6,332.154Z" transform="translate(-594.172 -325.274)" fill="#263238"/>
        <path id="Path_33007" data-name="Path 33007" d="M624.621,347.7a2.909,2.909,0,0,1-1.248-.34c-.655-.268-1.166-.541-1.135-.619a2.908,2.908,0,0,1,1.248.34C624.142,347.343,624.652,347.622,624.621,347.7Z" transform="translate(-592.234 -332.434)" fill="#263238"/>
        <path id="Path_33008" data-name="Path 33008" d="M624.41,362.228a2.262,2.262,0,0,1-1.031.376,2.216,2.216,0,0,1-1.119.082c-.015-.077.454-.248,1.031-.376S624.395,362.146,624.41,362.228Z" transform="translate(-592.244 -339.913)" fill="#263238"/>
        <path id="Path_33009" data-name="Path 33009" d="M622.41,384.59a2.621,2.621,0,0,1-1.124.356,2.4,2.4,0,0,1-1.176.057c-.016-.083.49-.237,1.124-.351A2.5,2.5,0,0,1,622.41,384.59Z" transform="translate(-591.203 -350.743)" fill="#263238"/>
        <path id="Path_33010" data-name="Path 33010" d="M621.443,396.982c.036.072-.382.371-.939.665s-1.031.474-1.078.4.382-.371.939-.665S621.4,396.9,621.443,396.982Z" transform="translate(-590.871 -356.755)" fill="#263238"/>
        <path id="Path_33011" data-name="Path 33011" d="M632.127,408.741c-.072.041-.438-.464-.82-1.129a3.322,3.322,0,0,1-.557-1.274c.072-.041.438.464.815,1.124A3.352,3.352,0,0,1,632.127,408.741Z" transform="translate(-596.356 -361.294)" fill="#263238"/>
        <path id="Path_33012" data-name="Path 33012" d="M634.417,387.7c.057.057-.351.552-.913,1.1s-1.062.949-1.119.887.351-.552.913-1.1S634.355,387.642,634.417,387.7Z" transform="translate(-597.146 -352.269)" fill="#263238"/>
        <path id="Path_33013" data-name="Path 33013" d="M634.292,373.992c-.057.057-.438-.258-.846-.7s-.686-.835-.624-.892.438.253.846.691S634.354,373.935,634.292,373.992Z" transform="translate(-597.355 -344.859)" fill="#263238"/>
        <path id="Path_33014" data-name="Path 33014" d="M636.041,359.875c.062.052-.279.516-.758,1.068s-.918.928-.98.872.279-.516.758-1.068S635.979,359.818,636.041,359.875Z" transform="translate(-598.073 -338.792)" fill="#263238"/>
        <path id="Path_33015" data-name="Path 33015" d="M637.008,346.793c-.057.057-.516-.315-1.062-.836s-.908-.985-.851-1.031a3.616,3.616,0,0,1,1.063.83C636.7,346.272,637.065,346.736,637.008,346.793Z" transform="translate(-598.457 -331.553)" fill="#263238"/>
        <path id="Path_33016" data-name="Path 33016" d="M639.763,333.228c.072.046-.17.572-.516,1.186s-.717,1.073-.789,1.031.17-.567.516-1.181S639.7,333.186,639.763,333.228Z" transform="translate(-600.083 -325.889)" fill="#263238"/>
        <path id="Path_33017" data-name="Path 33017" d="M644.038,319a2.833,2.833,0,0,1-.469,1.186c-.335.614-.66,1.078-.732,1.031s.139-.567.469-1.186A2.807,2.807,0,0,1,644.038,319Z" transform="translate(-602.203 -319)" fill="#263238"/>
        <path id="Path_33018" data-name="Path 33018" d="M648.377,325.47c.036.072-.3.309-.743.516s-.841.325-.877.253.3-.309.748-.516S648.341,325.4,648.377,325.47Z" transform="translate(-604.107 -322.123)" fill="#263238"/>
        <path id="Path_33019" data-name="Path 33019" d="M647.143,375.24a5.116,5.116,0,0,1-3.043-1.3,8.251,8.251,0,0,1,1.547.629,8.037,8.037,0,0,1,1.5.67Z" transform="translate(-602.821 -345.606)" fill="#263238"/>
        <path id="Path_33020" data-name="Path 33020" d="M645.925,387.214a2.445,2.445,0,0,1-1.119.366c-.634.119-1.16.16-1.176.077s.485-.242,1.119-.366a2.464,2.464,0,0,1,1.176-.077Z" transform="translate(-602.593 -352.016)" fill="#263238"/>
        <path id="Path_33021" data-name="Path 33021" d="M643.773,403.314A3.239,3.239,0,0,1,642.5,402.2a3.189,3.189,0,0,1-.794-1.49,10.182,10.182,0,0,1,1.032,1.3A9.658,9.658,0,0,1,643.773,403.314Z" transform="translate(-601.664 -358.57)" fill="#263238"/>
        <path id="Path_33022" data-name="Path 33022" d="M619.744,412.851c-.057-.067.284-.444.753-.846s.9-.676.949-.614-.284.438-.753.841S619.8,412.913,619.744,412.851Z" transform="translate(-591.023 -363.739)" fill="#263238"/>
        <path id="Path_33023" data-name="Path 33023" d="M606.163,370.363c-.516-1.7-1.547-3.667-3.337-3.693a2.955,2.955,0,0,0-2.5,1.671,6.125,6.125,0,0,0-.676,3.063,79.844,79.844,0,0,0,3.816,22.176h6.508a77.358,77.358,0,0,0-3.816-23.218Z" transform="translate(-581.295 -342.085)" fill="#455a64"/>
        <path id="Path_33024" data-name="Path 33024" d="M578.973,347.731a7.216,7.216,0,0,0-6.772-5.781c-2.873.516-3.987,3.332-4.332,6.235s.562,5.781,1.449,8.561q4.275,13.409,8.561,26.782l8.071-.882C583.413,370.686,581.943,359.6,578.973,347.731Z" transform="translate(-565.868 -330.114)" fill="#455a64"/>
        <path id="Path_33025" data-name="Path 33025" d="M604.774,366.67a6.713,6.713,0,0,0-.552.918,6.119,6.119,0,0,0-.3,2.878c.129,1.238.268,2.723.474,4.358s.516,3.424.872,5.291c.737,3.739,1.547,7.091,2.094,9.536.263,1.217.464,2.212.593,2.9.052.315.1.578.134.794a.949.949,0,0,1,.031.279.863.863,0,0,1-.088-.268c-.052-.211-.113-.469-.191-.779-.175-.727-.407-1.7-.686-2.878-.578-2.429-1.439-5.776-2.176-9.526-.366-1.872-.655-3.672-.851-5.317-.108-.82-.175-1.6-.242-2.336s-.139-1.413-.17-2.037a5.859,5.859,0,0,1,.408-2.94A2.619,2.619,0,0,1,604.774,366.67Z" transform="translate(-583.242 -342.085)" fill="#263238"/>
        <path id="Path_33026" data-name="Path 33026" d="M574.268,341.5a10.7,10.7,0,0,0-.98,1.315,9.246,9.246,0,0,0-1.227,4.234,19.5,19.5,0,0,0,1,6.514c.707,2.388,1.491,5.054,2.305,7.824,1.614,5.549,3.094,10.567,4.126,14.239.516,1.8.923,3.27,1.222,4.322.129.49.237.882.315,1.181a.215.215,0,1,1-.057.015l-.371-1.16c-.32-1.031-.763-2.506-1.315-4.3l-4.224-14.208L572.8,353.62a19.292,19.292,0,0,1-.949-6.606,9.067,9.067,0,0,1,1.341-4.28,5.053,5.053,0,0,1,1.078-1.233Z" transform="translate(-567.816 -329.896)" fill="#263238"/>
        <path id="Path_33027" data-name="Path 33027" d="M587.92,381.7a2.06,2.06,0,0,1-.18-.387c-.108-.263-.278-.639-.464-1.14-.382-1-.877-2.46-1.387-4.3s-1.031-4.054-1.511-6.529-.985-5.193-1.547-8.05-1.191-5.544-1.919-7.947a44.566,44.566,0,0,0-2.357-6.235,34.252,34.252,0,0,0-2.182-3.93c-.278-.454-.516-.784-.686-1.031a3.475,3.475,0,0,1-.227-.366,2.361,2.361,0,0,1,.279.33c.165.222.433.542.727.985a29.424,29.424,0,0,1,2.274,3.9,42.057,42.057,0,0,1,2.434,6.251,79.894,79.894,0,0,1,1.944,7.968c.516,2.857,1.031,5.575,1.5,8.056s.959,4.688,1.444,6.524.944,3.311,1.3,4.311c.165.516.315.892.407,1.155A2.036,2.036,0,0,1,587.92,381.7Z" transform="translate(-569.581 -330.037)" fill="#263238"/>
        <path id="Path_33028" data-name="Path 33028" d="M569.106,368.015c0,.083-.418.258-.985.392s-1.031.18-1.031.1a2.1,2.1,0,0,1,.985-.392C568.637,367.984,569.106,367.937,569.106,368.015Z" transform="translate(-565.527 -342.718)" fill="#263238"/>
        <path id="Path_33029" data-name="Path 33029" d="M566.8,357.2a9.886,9.886,0,0,1-2.739.108A4.709,4.709,0,0,1,566.8,357.2Z" transform="translate(-564.06 -337.423)" fill="#263238"/>
        <path id="Path_33030" data-name="Path 33030" d="M569.47,346.143c-.057.062-.516-.222-.985-.634s-.841-.8-.789-.866.516.222.985.634S569.521,346.081,569.47,346.143Z" transform="translate(-565.818 -331.414)" fill="#263238"/>
        <path id="Path_33031" data-name="Path 33031" d="M575.686,338.509c.083,0,.062.413.047.887s0,.866-.1.882-.211-.382-.2-.892S575.609,338.489,575.686,338.509Z" transform="translate(-569.57 -328.447)" fill="#263238"/>
        <path id="Path_33032" data-name="Path 33032" d="M584.632,342.766c.067.046-.129.449-.438.892s-.619.768-.686.717.129-.444.444-.887S584.565,342.719,584.632,342.766Z" transform="translate(-573.472 -330.507)" fill="#263238"/>
        <path id="Path_33033" data-name="Path 33033" d="M590.2,353.778c.031.077-.387.32-.933.541s-1.031.346-1.031.268a2.3,2.3,0,0,1,.939-.542C589.725,353.825,590.179,353.7,590.2,353.778Z" transform="translate(-575.77 -335.831)" fill="#263238"/>
        <path id="Path_33034" data-name="Path 33034" d="M593.382,365.15a2.435,2.435,0,0,1-1.284.557,2.47,2.47,0,0,1-1.4.052,5.069,5.069,0,0,1,1.336-.34A4.973,4.973,0,0,1,593.382,365.15Z" transform="translate(-576.961 -341.349)" fill="#263238"/>
        <path id="Path_33035" data-name="Path 33035" d="M578.191,360.307c-.077,0,0-.428.129-.9s.33-.835.413-.815,0,.433-.129.908S578.268,360.348,578.191,360.307Z" transform="translate(-570.888 -338.172)" fill="#263238"/>
        <path id="Path_33036" data-name="Path 33036" d="M580.69,373.994a2.749,2.749,0,0,1,.366-1.217c.279-.639.562-1.129.64-1.1a2.852,2.852,0,0,1-.366,1.217C581.051,373.535,580.767,374.025,580.69,373.994Z" transform="translate(-572.113 -344.51)" fill="#263238"/>
        <path id="Path_33037" data-name="Path 33037" d="M572.469,379.383c-.031.077-.547-.067-1.166-.258s-1.124-.371-1.1-.454a2.191,2.191,0,0,1,1.191.17C572.025,379.037,572.5,379.305,572.469,379.383Z" transform="translate(-567.033 -347.887)" fill="#263238"/>
        <path id="Path_33038" data-name="Path 33038" d="M576.489,391.669c.046.067-.3.4-.774.738s-.9.557-.949.49.3-.4.774-.732S576.432,391.6,576.489,391.669Z" transform="translate(-569.243 -354.186)" fill="#263238"/>
        <path id="Path_33039" data-name="Path 33039" d="M579.061,403.221a2.042,2.042,0,0,1-.959.387c-.547.134-1.031.175-1.031.1s.407-.253.954-.387S579.04,403.139,579.061,403.221Z" transform="translate(-570.36 -359.766)" fill="#263238"/>
        <path id="Path_33040" data-name="Path 33040" d="M594.437,374.8c.041.067-.325.361-.856.562s-1.006.222-1.031.144.4-.232.908-.423S594.4,374.732,594.437,374.8Z" transform="translate(-577.856 -346.016)" fill="#263238"/>
        <path id="Path_33041" data-name="Path 33041" d="M596.683,392.007c-.036.077-.474-.057-.975-.294s-.887-.49-.851-.562.469.057.975.294S596.714,391.935,596.683,392.007Z" transform="translate(-578.973 -353.931)" fill="#263238"/>
        <path id="Path_33042" data-name="Path 33042" d="M599.934,404.814a3.063,3.063,0,0,1-1.289-.346c-.681-.263-1.207-.542-1.176-.619a3.1,3.1,0,0,1,1.289.346C599.439,404.443,599.965,404.737,599.934,404.814Z" transform="translate(-580.238 -360.091)" fill="#263238"/>
        <path id="Path_33043" data-name="Path 33043" d="M581.538,414.154c-.041-.072.516-.428,1.1-.913s1.088-.913,1.15-.856-.325.588-.964,1.088A2.681,2.681,0,0,1,581.538,414.154Z" transform="translate(-572.523 -364.222)" fill="#263238"/>
        <path id="Path_33044" data-name="Path 33044" d="M591.024,407.45c-.088,0-.2-.438-.4-.959s-.418-.928-.346-.975.407.309.624.872S591.1,407.44,591.024,407.45Z" transform="translate(-576.749 -360.896)" fill="#263238"/>
        <path id="Path_33045" data-name="Path 33045" d="M587.736,392.834c-.046.067-.387-.093-.758-.361s-.629-.516-.583-.6.387.1.758.361S587.8,392.767,587.736,392.834Z" transform="translate(-574.874 -354.278)" fill="#263238"/>
        <path id="Path_33046" data-name="Path 33046" d="M611.236,369.459c.052.067-.278.392-.737.727s-.866.557-.913.49.278-.392.737-.727S611.19,369.392,611.236,369.459Z" transform="translate(-586.105 -343.43)" fill="#263238"/>
        <path id="Path_33047" data-name="Path 33047" d="M614.258,379a1.848,1.848,0,0,1-1.15.119c-.634-.067-1.124-.289-1.1-.361a3.568,3.568,0,0,1,1.13.062C613.752,378.885,614.253,378.916,614.258,379Z" transform="translate(-587.28 -347.926)" fill="#263238"/>
        <path id="Path_33048" data-name="Path 33048" d="M598.942,381.4a2.854,2.854,0,0,1-2.192.15,3.022,3.022,0,0,1,1.093-.155C598.421,381.357,598.942,381.321,598.942,381.4Z" transform="translate(-579.891 -349.196)" fill="#263238"/>
        <path id="Path_33049" data-name="Path 33049" d="M600.589,371.412c0,.077-.49.093-1.031-.155s-.841-.619-.784-.676.423.186.908.407S600.6,371.309,600.589,371.412Z" transform="translate(-580.867 -343.976)" fill="#263238"/>
        <path id="Path_33050" data-name="Path 33050" d="M615.755,388.547c-.041.067-.516-.165-1.1-.516s-1-.7-.954-.774.516.165,1.109.516S615.8,388.475,615.755,388.547Z" transform="translate(-588.097 -352.049)" fill="#263238"/>
        <rect id="Rectangle_3039" data-name="Rectangle 3039" width="42.351" height="7.504" transform="translate(4.678 50.665)" fill="#0091ff"/>
        <path id="Path_33051" data-name="Path 33051" d="M579.27,428.9l5.147,22.434h25.24l5.637-22.434Z" transform="translate(-571.426 -372.222)" fill="#0091ff"/>
        <path id="Path_33052" data-name="Path 33052" d="M615.136,431.67c0,.083-9.551.15-21.33.15s-21.336-.067-21.336-.15,9.551-.15,21.336-.15S615.136,431.587,615.136,431.67Z" transform="translate(-568.133 -373.49)" fill="#263238"/>
        <path id="Path_33053" data-name="Path 33053" d="M608.548,380.2c-.072.041-.361-.294-.65-.753s-.459-.866-.392-.913.361.294.645.753S608.615,380.161,608.548,380.2Z" transform="translate(-585.093 -347.83)" fill="#263238"/>
        <path id="Path_33054" data-name="Path 33054" d="M609.543,391.439c-.077-.026,0-.516.222-1.14s.423-1.073.516-1.031,0,.516-.216,1.14S609.62,391.465,609.543,391.439Z" transform="translate(-586.072 -353.027)" fill="#263238"/>
        <path id="Path_33055" data-name="Path 33055" d="M612.5,403.523c-.077.036-.392-.469-.707-1.129a2.971,2.971,0,0,1-.438-1.264,3.254,3.254,0,0,1,.707,1.135A3.141,3.141,0,0,1,612.5,403.523Z" transform="translate(-586.966 -358.773)" fill="#263238"/>
        <path id="Path_33056" data-name="Path 33056" d="M604.891,414.192c-.062-.052.191-.444.567-.877s.727-.732.789-.681-.191.449-.567.877S604.943,414.249,604.891,414.192Z" transform="translate(-583.829 -364.342)" fill="#263238"/>
        <path id="Path_33057" data-name="Path 33057" d="M601.419,397.368c0,.077-.423.077-.908,0s-.872-.222-.861-.3.423-.077.913,0S601.434,397.285,601.419,397.368Z" transform="translate(-581.295 -356.775)" fill="#263238"/>
      </g>
    </g>
  </g>
</svg>
