<svg xmlns="http://www.w3.org/2000/svg" width="345" height="307" viewBox="0 0 345 307">
  <g id="Group_1764" data-name="Group 1764" transform="translate(-17703 -7292)">
    <rect id="Rectangle_2936" data-name="Rectangle 2936" width="345" height="307" transform="translate(17703 7292)" fill="none"/>
    <g id="b" transform="translate(17738.232 7299.173)">
      <g id="c" transform="translate(-0.02 0.871)">
        <g id="Group_1694" data-name="Group 1694" transform="translate(57.557 40.683)">
          <g id="Group_1691" data-name="Group 1691" transform="translate(0)">
            <rect id="Rectangle_3064" data-name="Rectangle 3064" width="41.369" height="50.18" transform="translate(42.607 50.18) rotate(180)" fill="#ebebeb"/>
            <rect id="Rectangle_3065" data-name="Rectangle 3065" width="31.913" height="41.023" transform="translate(37.882 45.605) rotate(180)" fill="#fff"/>
            <rect id="Rectangle_3066" data-name="Rectangle 3066" width="1.244" height="41.023" transform="translate(37.882 45.605) rotate(180)" fill="#c7c7c7"/>
            <rect id="Rectangle_3067" data-name="Rectangle 3067" width="1.244" height="50.18" transform="translate(1.244 50.18) rotate(180)" fill="#c7c7c7"/>
            <rect id="Rectangle_3068" data-name="Rectangle 3068" width="7.526" height="22.422" transform="translate(13.686 14.073)" fill="#ebebeb"/>
            <rect id="Rectangle_3069" data-name="Rectangle 3069" width="20.063" height="10.987" transform="translate(10.402 10.239)" fill="none" stroke="#ebebeb" stroke-miterlimit="10" stroke-width="1"/>
          </g>
          <g id="Group_1692" data-name="Group 1692" transform="translate(116.868)">
            <rect id="Rectangle_3070" data-name="Rectangle 3070" width="41.369" height="50.18" transform="translate(42.614 50.18) rotate(180)" fill="#ebebeb"/>
            <rect id="Rectangle_3071" data-name="Rectangle 3071" width="31.913" height="41.023" transform="translate(37.889 45.612) rotate(180)" fill="#fff"/>
            <rect id="Rectangle_3072" data-name="Rectangle 3072" width="1.244" height="41.023" transform="translate(37.889 45.612) rotate(180)" fill="#c7c7c7"/>
            <rect id="Rectangle_3073" data-name="Rectangle 3073" width="1.244" height="50.18" transform="translate(1.244 50.18) rotate(180)" fill="#c7c7c7"/>
            <rect id="Rectangle_3074" data-name="Rectangle 3074" width="7.526" height="22.422" transform="translate(27.194 36.488) rotate(180)" fill="#ebebeb"/>
            <rect id="Rectangle_3075" data-name="Rectangle 3075" width="20.063" height="10.987" transform="translate(30.471 21.225) rotate(180)" fill="none" stroke="#ebebeb" stroke-miterlimit="10" stroke-width="1"/>
          </g>
          <g id="Group_1693" data-name="Group 1693" transform="translate(57.924 8.179)">
            <rect id="Rectangle_3076" data-name="Rectangle 3076" width="41.369" height="50.18" transform="translate(42.614 50.18) rotate(180)" fill="#ebebeb"/>
            <rect id="Rectangle_3077" data-name="Rectangle 3077" width="31.913" height="41.023" transform="translate(37.889 45.598) rotate(180)" fill="#fff"/>
            <rect id="Rectangle_3078" data-name="Rectangle 3078" width="1.244" height="41.023" transform="translate(37.889 45.598) rotate(180)" fill="#c7c7c7"/>
            <rect id="Rectangle_3079" data-name="Rectangle 3079" width="1.244" height="50.18" transform="translate(1.244 50.18) rotate(180)" fill="#c7c7c7"/>
            <rect id="Rectangle_3080" data-name="Rectangle 3080" width="6.445" height="16.303" transform="translate(25.019 31.484) rotate(180)" fill="#ebebeb"/>
            <rect id="Rectangle_3081" data-name="Rectangle 3081" width="17.316" height="11.238" transform="translate(29.105 36.325) rotate(180)" fill="none" stroke="#dbdbdb" stroke-miterlimit="10" stroke-width="1"/>
          </g>
        </g>
        <g id="Group_1697" data-name="Group 1697">
          <path id="Path_33124" data-name="Path 33124" d="M5.786,218.439a1.686,1.686,0,0,1,1.774.014c.15.088.3.177.456.258s.313.163.469.238a1.686,1.686,0,0,1,.986,1.462l.068,2.176,7.1-.218-.068-2.176a1.691,1.691,0,0,1,.891-1.53,9.4,9.4,0,0,0,.9-.557,1.7,1.7,0,0,1,1.761-.116l1.917,1.027,3.359-6.262-1.917-1.027a1.69,1.69,0,0,1-.884-1.53,9.048,9.048,0,0,0-.034-1.054,1.691,1.691,0,0,1,.782-1.591l1.849-1.149-3.739-6.03-1.863,1.156a1.691,1.691,0,0,1-1.761-.014c-.15-.088-.3-.177-.456-.258s-.313-.163-.469-.238a1.694,1.694,0,0,1-.993-1.469l-.068-2.182-7.1.218.068,2.176a1.678,1.678,0,0,1-.891,1.53,9.5,9.5,0,0,0-.9.557,1.681,1.681,0,0,1-1.761.116l-1.917-1.027L-.02,207.2,1.9,208.227a1.685,1.685,0,0,1,.884,1.53,9.213,9.213,0,0,0,.034,1.061,1.691,1.691,0,0,1-.782,1.591L.184,213.551l3.739,6.03,1.849-1.149Zm1.781-11.2a14.212,14.212,0,1,0,0-.007Z" transform="translate(0.02 -64.056)" fill="#dbdbdb"/>
          <path id="Path_33125" data-name="Path 33125" d="M302.889,160.389a1.178,1.178,0,0,1,.578,1.095c0,.122-.007.245-.007.367s0,.245.007.367a1.184,1.184,0,0,1-.578,1.095l-1.326.761,2.488,4.31,1.319-.761a1.177,1.177,0,0,1,1.237.041c.2.136.421.258.639.374a1.191,1.191,0,0,1,.653,1.054v1.523h4.977v-1.523a1.191,1.191,0,0,1,.653-1.054c.218-.116.435-.238.639-.374a1.177,1.177,0,0,1,1.237-.041l1.319.761,2.488-4.31-1.326-.768a1.184,1.184,0,0,1-.578-1.095c0-.122.007-.245.007-.367s0-.245-.007-.367a1.177,1.177,0,0,1,.578-1.095l1.326-.761-2.488-4.31-1.319.761a1.177,1.177,0,0,1-1.237-.041,6.659,6.659,0,0,0-.646-.374,1.178,1.178,0,0,1-.653-1.054V153.08h-4.977V154.6a1.191,1.191,0,0,1-.653,1.054c-.224.116-.435.238-.646.374a1.177,1.177,0,0,1-1.237.041l-1.319-.761-2.488,4.31,1.319.761Zm7.506-2.611a4.076,4.076,0,1,1-4.072,4.079A4.082,4.082,0,0,1,310.395,157.778Z" transform="translate(-96.525 -49.877)" fill="#dbdbdb"/>
          <g id="Group_1695" data-name="Group 1695" transform="translate(227.29 71.181)">
            <path id="Path_33126" data-name="Path 33126" d="M340.09,131.919a19.369,19.369,0,1,0,19.369-19.369A19.373,19.373,0,0,0,340.09,131.919Zm10.32,0a9.049,9.049,0,1,1,9.049,9.042A9.05,9.05,0,0,1,350.41,131.919Z" transform="translate(-336.154 -108.083)" fill="#ebebeb"/>
            <path id="Path_33127" data-name="Path 33127" d="M363.1,111.249h7.451l-.408-5.269h-6.629Z" transform="translate(-343.52 -105.98)" fill="#ebebeb"/>
            <path id="Path_33128" data-name="Path 33128" d="M383.96,115.8l5.269,5.269,3.433-4.018-4.684-4.684Z" transform="translate(-350.198 -108.026)" fill="#ebebeb"/>
            <path id="Path_33129" data-name="Path 33129" d="M396.1,134.78v7.451l5.269-.415v-6.622Z" transform="translate(-354.085 -115.2)" fill="#ebebeb"/>
            <path id="Path_33130" data-name="Path 33130" d="M389.922,155.64,384.66,160.9l4.018,3.44,4.684-4.684Z" transform="translate(-350.422 -121.878)" fill="#ebebeb"/>
            <path id="Path_33131" data-name="Path 33131" d="M371.541,167.77H364.09l.415,5.276h6.622Z" transform="translate(-343.837 -125.762)" fill="#ebebeb"/>
            <path id="Path_33132" data-name="Path 33132" d="M350.092,161.6l-5.269-5.269-3.433,4.025,4.684,4.684Z" transform="translate(-336.57 -122.099)" fill="#ebebeb"/>
            <path id="Path_33133" data-name="Path 33133" d="M339.576,143.214V135.77l-5.276.408v6.629Z" transform="translate(-334.3 -115.517)" fill="#ebebeb"/>
            <path id="Path_33134" data-name="Path 33134" d="M344.13,121.769,349.4,116.5l-4.025-3.44-4.684,4.691Z" transform="translate(-336.346 -108.247)" fill="#ebebeb"/>
          </g>
          <g id="Group_1696" data-name="Group 1696" transform="translate(9.484)">
            <path id="Path_33135" data-name="Path 33135" d="M19.72,27.229A19.369,19.369,0,1,0,39.089,7.86,19.373,19.373,0,0,0,19.72,27.229Zm10.32,0a9.049,9.049,0,1,1,9.049,9.042A9.05,9.05,0,0,1,30.04,27.229Z" transform="translate(-15.784 -3.387)" fill="#ebebeb"/>
            <path id="Path_33136" data-name="Path 33136" d="M42.73,6.556h7.451L49.767,1.28H43.145Z" transform="translate(-23.15 -1.28)" fill="#ebebeb"/>
            <path id="Path_33137" data-name="Path 33137" d="M63.59,11.11l5.262,5.269,3.44-4.018L67.608,7.67Z" transform="translate(-29.828 -3.326)" fill="#ebebeb"/>
            <path id="Path_33138" data-name="Path 33138" d="M75.72,30.09v7.444L81,37.127V30.5Z" transform="translate(-33.712 -10.503)" fill="#ebebeb"/>
            <path id="Path_33139" data-name="Path 33139" d="M69.549,50.94,64.28,56.209l4.018,3.44,4.691-4.684Z" transform="translate(-30.049 -17.178)" fill="#ebebeb"/>
            <path id="Path_33140" data-name="Path 33140" d="M51.164,63.08H43.72l.408,5.269h6.629Z" transform="translate(-23.467 -21.065)" fill="#ebebeb"/>
            <path id="Path_33141" data-name="Path 33141" d="M29.719,56.909,24.45,51.64l-3.44,4.018L25.7,60.342Z" transform="translate(-16.197 -17.402)" fill="#ebebeb"/>
            <path id="Path_33142" data-name="Path 33142" d="M19.2,38.521V31.07l-5.269.415v6.622Z" transform="translate(-13.93 -10.817)" fill="#ebebeb"/>
            <path id="Path_33143" data-name="Path 33143" d="M23.753,17.079l5.269-5.269L25,8.37,20.32,13.054Z" transform="translate(-15.976 -3.55)" fill="#ebebeb"/>
          </g>
        </g>
      </g>
      <g id="d" transform="translate(81.917 0.003)">
        <g id="Group_1700" data-name="Group 1700">
          <g id="Group_1698" data-name="Group 1698">
            <path id="Path_33144" data-name="Path 33144" d="M157.125,18.426a16.494,16.494,0,0,1-27.561,10.436l-8.253,1.21,4.127-7.132a16.5,16.5,0,1,1,31.688-4.507Z" transform="translate(-120.759 -0.071)" fill="#fff"/>
            <path id="Path_33145" data-name="Path 33145" d="M156.866,18.357a16.641,16.641,0,0,1-3.331,8.362,18.954,18.954,0,0,1-1.5,1.72,18.993,18.993,0,0,1-1.74,1.475,16.18,16.18,0,0,1-3.977,2.216,16.6,16.6,0,0,1-4.439,1.061,16.113,16.113,0,0,1-2.291.041,15.133,15.133,0,0,1-2.284-.238,16.588,16.588,0,0,1-8.158-4.032l.2.061L121.1,30.289l-.6.1.306-.53,4.106-7.145-.02.286A16.69,16.69,0,0,1,145.566.837a16.871,16.871,0,0,1,6.363,3.9,16.58,16.58,0,0,1,4.936,13.624Zm0,0A16.323,16.323,0,0,0,138.156.5,16.181,16.181,0,0,0,131.344,3.2a16.991,16.991,0,0,0-4.936,5.384,16.263,16.263,0,0,0-2.094,6.982,16.446,16.446,0,0,0,1.163,7.186l.061.15-.082.136L121.3,30.153l-.292-.435,8.26-1.156.116-.014.082.075a16.245,16.245,0,0,0,7.9,4.066,13.677,13.677,0,0,0,2.237.272,16.673,16.673,0,0,0,2.257,0,16.333,16.333,0,0,0,4.405-.972,15.5,15.5,0,0,0,3.977-2.142,17.771,17.771,0,0,0,1.74-1.455,18.862,18.862,0,0,0,1.5-1.706,16.641,16.641,0,0,0,3.379-8.321Z" transform="translate(-120.5 -0.003)" fill="#263238"/>
          </g>
          <g id="Group_1699" data-name="Group 1699" transform="translate(9.729 8.075)">
            <path id="Path_33146" data-name="Path 33146" d="M141.2,21.031a1.507,1.507,0,0,0,2.672.959.726.726,0,0,1,1.3.442v3.78H134.81v-3.78a.717.717,0,0,1,.721-.721.728.728,0,0,1,.571.279,1.527,1.527,0,0,0,1.169.551,1.509,1.509,0,1,0-1.169-2.461.749.749,0,0,1-.571.279.721.721,0,0,1-.721-.721V15.85h3.78a.717.717,0,0,0,.721-.721.728.728,0,0,0-.279-.571,1.51,1.51,0,1,1,2.468-1.169,1.5,1.5,0,0,1-.557,1.169.749.749,0,0,0-.279.571.721.721,0,0,0,.721.721h3.787v3.787a.727.727,0,0,1-.727.721.749.749,0,0,1-.571-.279,1.487,1.487,0,0,0-1.163-.557,1.51,1.51,0,0,0-1.509,1.509Z" transform="translate(-134.81 -11.88)" fill="#0091ff"/>
            <path id="Path_33147" data-name="Path 33147" d="M159.327,15.79l1.611,10.232-3.732.591a.717.717,0,0,1-.823-.6.725.725,0,0,1,.184-.605,1.511,1.511,0,1,0-2.617-.775,1.5,1.5,0,0,0,.727,1.067.772.772,0,0,1,.367.523.722.722,0,0,1-.6.823l-3.739.591-.591-3.732a.717.717,0,0,0-.823-.6.732.732,0,0,0-.523.367,1.508,1.508,0,1,1-.292-1.89.739.739,0,0,0,.605.184.721.721,0,0,0,.6-.823l-.591-3.739,3.739-.591a.725.725,0,0,1,.823.605.748.748,0,0,1-.184.605,1.477,1.477,0,0,0-.36,1.237,1.507,1.507,0,1,0,2.25-1.53.751.751,0,0,1-.367-.523.724.724,0,0,1,.6-.829l3.732-.591Z" transform="translate(-138.38 -13.132)" fill="#455a64"/>
          </g>
        </g>
      </g>
      <g id="e" transform="translate(73.949 112.844)">
        <g id="Group_1710" data-name="Group 1710">
          <g id="Group_1701" data-name="Group 1701" transform="translate(0 0)">
            <rect id="Rectangle_3082" data-name="Rectangle 3082" width="29.88" height="29.88" transform="translate(29.88 89.639) rotate(-90)" fill="#c7c7c7"/>
            <rect id="Rectangle_3083" data-name="Rectangle 3083" width="29.88" height="29.88" transform="translate(29.88 59.76) rotate(-90)" fill="#c7c7c7"/>
            <rect id="Rectangle_3084" data-name="Rectangle 3084" width="29.88" height="29.88" transform="translate(0 59.76) rotate(-90)" fill="#c7c7c7"/>
            <rect id="Rectangle_3085" data-name="Rectangle 3085" width="29.88" height="29.88" transform="translate(0 29.88) rotate(-90)" fill="#c7c7c7"/>
            <path id="Path_33148" data-name="Path 33148" d="M108.79,209.764c2.488-.15,4.977-.218,7.472-.272s4.977-.075,7.472-.082,4.977.02,7.472.082l3.732.1c1.244.061,2.488.1,3.732.177-1.244.082-2.488.116-3.732.177l-3.732.1c-2.488.068-4.977.075-7.472.082s-4.977-.02-7.472-.082-4.977-.129-7.472-.272Z" transform="translate(-108.783 -179.884)" fill="#a6a6a6"/>
            <path id="Path_33149" data-name="Path 33149" d="M152.74,253.714c2.488-.15,4.977-.218,7.472-.272s4.977-.075,7.472-.082,4.977.02,7.472.082l3.732.1c1.244.061,2.488.1,3.732.177-1.244.082-2.488.116-3.732.177l-3.732.1c-2.488.068-4.977.075-7.472.082s-4.977-.02-7.472-.082-4.977-.129-7.472-.272Z" transform="translate(-122.853 -193.954)" fill="#a6a6a6"/>
            <path id="Path_33150" data-name="Path 33150" d="M152.574,239.81c-.15-2.488-.218-4.977-.272-7.472s-.075-4.977-.082-7.472.02-4.977.082-7.472l.1-3.732c.061-1.244.1-2.488.177-3.732.082,1.244.116,2.488.177,3.732l.1,3.732c.068,2.488.075,4.977.082,7.472s-.02,4.983-.082,7.472-.129,4.977-.272,7.472Z" transform="translate(-122.687 -180.05)" fill="#a6a6a6"/>
            <rect id="Rectangle_3086" data-name="Rectangle 3086" width="15.161" height="29.873" transform="translate(45.041 29.88) rotate(180)" fill="#a6a6a6"/>
            <rect id="Rectangle_3087" data-name="Rectangle 3087" width="15.161" height="59.753" transform="translate(74.92 89.646) rotate(180)" fill="#a6a6a6"/>
          </g>
          <g id="Group_1703" data-name="Group 1703" transform="translate(119.519 89.646)">
            <rect id="Rectangle_3088" data-name="Rectangle 3088" width="29.88" height="29.88" transform="translate(29.88 59.76) rotate(-90)" fill="#0091ff"/>
            <rect id="Rectangle_3089" data-name="Rectangle 3089" width="29.88" height="29.88" transform="translate(0 59.76) rotate(-90)" fill="#0091ff"/>
            <rect id="Rectangle_3090" data-name="Rectangle 3090" width="29.88" height="29.88" transform="translate(29.88 89.639) rotate(-90)" fill="#0091ff"/>
            <rect id="Rectangle_3091" data-name="Rectangle 3091" width="29.88" height="29.88" transform="translate(29.88 29.88) rotate(-90)" fill="#0091ff"/>
            <g id="Group_1702" data-name="Group 1702" transform="translate(59.76 0)">
              <rect id="Rectangle_3092" data-name="Rectangle 3092" width="15.161" height="89.633" transform="translate(15.161 89.633) rotate(180)" fill="#0091ff"/>
              <rect id="Rectangle_3093" data-name="Rectangle 3093" width="15.161" height="89.633" transform="translate(15.161 89.633) rotate(180)" opacity="0.1"/>
            </g>
            <path id="Path_33151" data-name="Path 33151" d="M328.344,371.66c-.15-2.488-.218-4.977-.272-7.472s-.075-4.983-.082-7.472.02-4.977.082-7.472l.1-3.732c.061-1.244.1-2.488.177-3.732.082,1.244.116,2.488.177,3.732l.1,3.732c.068,2.488.075,4.983.082,7.472s-.02,4.983-.082,7.472-.129,4.977-.272,7.472Z" transform="translate(-298.477 -311.907)" opacity="0.1"/>
            <path id="Path_33152" data-name="Path 33152" d="M328.51,385.564c2.488-.15,4.977-.218,7.472-.272s4.977-.075,7.472-.082,4.977.02,7.472.082l3.732.1c1.244.061,2.488.1,3.732.177-1.244.082-2.488.116-3.732.177l-3.732.1c-2.488.068-4.977.075-7.472.082s-4.977-.02-7.472-.082-4.977-.129-7.472-.272Z" transform="translate(-298.644 -325.811)" opacity="0.1"/>
            <path id="Path_33153" data-name="Path 33153" d="M328.51,341.614c2.488-.15,4.977-.218,7.472-.272s4.977-.075,7.472-.082,4.977.02,7.472.082l3.732.1c1.244.061,2.488.1,3.732.177-1.244.082-2.488.116-3.732.177l-3.732.1c-2.488.068-4.977.075-7.472.082s-4.977-.02-7.472-.082-4.977-.129-7.472-.272Z" transform="translate(-298.644 -311.741)" opacity="0.1"/>
          </g>
          <g id="Group_1704" data-name="Group 1704" transform="translate(29.88 59.76)">
            <rect id="Rectangle_3094" data-name="Rectangle 3094" width="29.88" height="29.88" transform="translate(0 89.639) rotate(-90)" fill="#263238"/>
            <rect id="Rectangle_3095" data-name="Rectangle 3095" width="29.88" height="29.88" transform="translate(0 59.76) rotate(-90)" fill="#263238"/>
            <rect id="Rectangle_3096" data-name="Rectangle 3096" width="29.88" height="29.88" transform="translate(29.88 59.76) rotate(-90)" fill="#263238"/>
            <rect id="Rectangle_3097" data-name="Rectangle 3097" width="29.88" height="29.88" transform="translate(29.88 29.88) rotate(-90)" fill="#263238"/>
            <path id="Path_33154" data-name="Path 33154" d="M196.524,327.71c-.15-2.488-.218-4.977-.272-7.472s-.075-4.977-.082-7.472.02-4.977.082-7.472l.1-3.732c.061-1.244.1-2.488.177-3.732.082,1.244.116,2.488.177,3.732l.1,3.732c.068,2.488.075,4.977.082,7.472s-.02,4.977-.082,7.472-.129,4.977-.272,7.472Z" transform="translate(-166.637 -267.95)" fill="#455a64"/>
            <path id="Path_33155" data-name="Path 33155" d="M196.69,297.674c2.488-.15,4.977-.218,7.472-.272s4.977-.075,7.472-.082,4.977.02,7.472.082l3.732.1c1.244.061,2.488.1,3.732.177-1.244.082-2.488.116-3.732.177l-3.732.1c-2.488.068-4.977.075-7.472.082s-4.977-.02-7.472-.082-4.977-.129-7.472-.272Z" transform="translate(-166.803 -267.787)" fill="#455a64"/>
            <path id="Path_33156" data-name="Path 33156" d="M152.74,341.614c2.488-.15,4.977-.218,7.472-.272s4.977-.075,7.472-.082,4.977.02,7.472.082l3.732.1c1.244.061,2.488.1,3.732.177-1.244.082-2.488.116-3.732.177l-3.732.1c-2.488.068-4.977.075-7.472.082s-4.977-.02-7.472-.082-4.977-.129-7.472-.272Z" transform="translate(-152.733 -281.854)" fill="#455a64"/>
          </g>
          <g id="Group_1705" data-name="Group 1705" transform="translate(59.766 89.639)">
            <rect id="Rectangle_3098" data-name="Rectangle 3098" width="29.88" height="29.88" transform="translate(0 29.88)" fill="#c7c7c7"/>
            <rect id="Rectangle_3099" data-name="Rectangle 3099" width="29.88" height="29.88" transform="translate(29.88 29.88)" fill="#c7c7c7"/>
            <rect id="Rectangle_3100" data-name="Rectangle 3100" width="29.88" height="29.88" transform="translate(29.88)" fill="#c7c7c7"/>
            <rect id="Rectangle_3101" data-name="Rectangle 3101" width="29.88" height="29.88" transform="translate(59.753)" fill="#c7c7c7"/>
            <path id="Path_33157" data-name="Path 33157" d="M284.414,327.71c-.15-2.488-.218-4.977-.272-7.472s-.075-4.977-.082-7.472.02-4.977.082-7.472l.1-3.732c.061-1.244.1-2.488.177-3.732.082,1.244.116,2.488.177,3.732l.1,3.732c.068,2.488.075,4.977.082,7.472s-.02,4.977-.082,7.472-.129,4.983-.272,7.472Z" transform="translate(-224.661 -297.83)" fill="#a6a6a6"/>
            <path id="Path_33158" data-name="Path 33158" d="M240.474,371.66c-.15-2.488-.218-4.977-.272-7.472s-.075-4.983-.082-7.472.02-4.983.082-7.472l.1-3.732c.061-1.244.1-2.488.177-3.732.082,1.244.116,2.488.177,3.732l.1,3.732c.068,2.488.075,4.983.082,7.472s-.02,4.977-.082,7.472-.129,4.977-.272,7.472Z" transform="translate(-210.594 -311.9)" fill="#a6a6a6"/>
            <path id="Path_33159" data-name="Path 33159" d="M240.64,341.614c2.488-.15,4.977-.218,7.472-.272s4.977-.075,7.472-.082,4.983.02,7.472.082l3.732.1c1.244.061,2.488.1,3.732.177-1.244.082-2.488.116-3.732.177l-3.732.1c-2.488.068-4.977.075-7.472.082s-4.977-.02-7.472-.082-4.977-.129-7.472-.272Z" transform="translate(-210.76 -311.734)" fill="#a6a6a6"/>
          </g>
          <g id="Group_1706" data-name="Group 1706" transform="translate(0 59.76)">
            <rect id="Rectangle_3102" data-name="Rectangle 3102" width="29.88" height="29.88" transform="translate(0 119.519) rotate(-90)" fill="#0091ff"/>
            <rect id="Rectangle_3103" data-name="Rectangle 3103" width="29.88" height="29.88" transform="translate(0 89.639) rotate(-90)" fill="#0091ff"/>
            <rect id="Rectangle_3104" data-name="Rectangle 3104" width="29.88" height="29.88" transform="translate(0 59.76) rotate(-90)" fill="#0091ff"/>
            <rect id="Rectangle_3105" data-name="Rectangle 3105" width="29.88" height="29.88" transform="translate(0 29.88) rotate(-90)" fill="#0091ff"/>
            <path id="Path_33160" data-name="Path 33160" d="M108.79,297.664c2.488-.15,4.983-.218,7.472-.272s4.977-.075,7.472-.082,4.977.02,7.472.082l3.732.1c1.244.061,2.488.1,3.732.177-1.244.082-2.488.116-3.732.177l-3.732.1c-2.488.068-4.977.075-7.472.082s-4.977-.02-7.472-.082-4.977-.129-7.472-.272Z" transform="translate(-108.783 -267.784)" opacity="0.1"/>
            <path id="Path_33161" data-name="Path 33161" d="M108.79,341.614c2.488-.15,4.983-.218,7.472-.272s4.977-.075,7.472-.082,4.977.02,7.472.082l3.732.1c1.244.061,2.488.1,3.732.177-1.244.082-2.488.116-3.732.177l-3.732.1c-2.488.068-4.977.075-7.472.082s-4.977-.02-7.472-.082-4.977-.129-7.472-.272Z" transform="translate(-108.783 -281.854)" opacity="0.1"/>
            <path id="Path_33162" data-name="Path 33162" d="M108.79,385.564c2.488-.15,4.983-.218,7.472-.272s4.977-.075,7.472-.082,4.977.02,7.472.082l3.732.1c1.244.061,2.488.1,3.732.177-1.244.082-2.488.116-3.732.177l-3.732.1c-2.488.068-4.977.075-7.472.082s-4.977-.02-7.472-.082-4.977-.129-7.472-.272Z" transform="translate(-108.783 -295.924)" opacity="0.1"/>
          </g>
          <g id="Group_1707" data-name="Group 1707" transform="translate(29.887 149.399)">
            <rect id="Rectangle_3106" data-name="Rectangle 3106" width="29.88" height="29.88" fill="#455a64"/>
            <rect id="Rectangle_3107" data-name="Rectangle 3107" width="29.88" height="29.88" transform="translate(29.88)" fill="#455a64"/>
            <rect id="Rectangle_3108" data-name="Rectangle 3108" width="29.88" height="29.88" transform="translate(59.76)" fill="#455a64"/>
            <rect id="Rectangle_3109" data-name="Rectangle 3109" width="29.88" height="29.88" transform="translate(89.633)" fill="#455a64"/>
            <path id="Path_33163" data-name="Path 33163" d="M196.524,415.61c-.15-2.488-.218-4.977-.272-7.472s-.075-4.977-.082-7.472.02-4.977.082-7.472l.1-3.732c.061-1.244.1-2.488.177-3.732.082,1.244.116,2.488.177,3.732l.1,3.732c.068,2.488.075,4.983.082,7.472s-.02,4.983-.082,7.472-.129,4.977-.272,7.472Z" transform="translate(-166.644 -385.73)" fill="#37474f"/>
            <path id="Path_33164" data-name="Path 33164" d="M240.474,415.61c-.15-2.488-.218-4.977-.272-7.472s-.075-4.977-.082-7.472.02-4.977.082-7.472l.1-3.732c.061-1.244.1-2.488.177-3.732.082,1.244.116,2.488.177,3.732l.1,3.732c.068,2.488.075,4.983.082,7.472s-.02,4.983-.082,7.472-.129,4.977-.272,7.472Z" transform="translate(-180.714 -385.73)" fill="#37474f"/>
            <path id="Path_33165" data-name="Path 33165" d="M284.414,415.61c-.15-2.488-.218-4.977-.272-7.472s-.075-4.977-.082-7.472.02-4.977.082-7.472l.1-3.732c.061-1.244.1-2.488.177-3.732.082,1.244.116,2.488.177,3.732l.1,3.732c.068,2.488.075,4.983.082,7.472s-.02,4.983-.082,7.472-.129,4.977-.272,7.472Z" transform="translate(-194.781 -385.73)" fill="#37474f"/>
          </g>
          <g id="Group_1708" data-name="Group 1708" transform="translate(89.639 29.887)">
            <rect id="Rectangle_3110" data-name="Rectangle 3110" width="29.88" height="29.88" transform="translate(89.646 59.76) rotate(180)" fill="#455a64"/>
            <rect id="Rectangle_3111" data-name="Rectangle 3111" width="29.88" height="29.88" transform="translate(59.766 59.76) rotate(180)" fill="#455a64"/>
            <rect id="Rectangle_3112" data-name="Rectangle 3112" width="29.88" height="29.88" transform="translate(29.88 59.76) rotate(180)" fill="#455a64"/>
            <rect id="Rectangle_3113" data-name="Rectangle 3113" width="29.88" height="29.88" transform="translate(29.88 29.88) rotate(180)" fill="#455a64"/>
            <rect id="Rectangle_3114" data-name="Rectangle 3114" width="15.161" height="29.873" transform="translate(104.8 59.76) rotate(180)" fill="#37474f"/>
            <path id="Path_33166" data-name="Path 33166" d="M284.414,283.76c-.15-2.488-.218-4.983-.272-7.472s-.075-4.983-.082-7.472.02-4.977.082-7.472l.1-3.732c.061-1.244.1-2.488.177-3.732.082,1.244.116,2.488.177,3.732l.1,3.732c.068,2.488.075,4.983.082,7.472s-.02,4.983-.082,7.472-.129,4.977-.272,7.472Z" transform="translate(-254.534 -224.007)" fill="#37474f"/>
            <path id="Path_33167" data-name="Path 33167" d="M328.364,283.76c-.15-2.488-.218-4.983-.272-7.472s-.075-4.983-.082-7.472.02-4.977.082-7.472l.1-3.732c.061-1.244.1-2.488.177-3.732.082,1.244.116,2.488.177,3.732l.1,3.732c.068,2.488.075,4.983.082,7.472s-.02,4.983-.082,7.472-.129,4.977-.272,7.472Z" transform="translate(-268.604 -224.007)" fill="#37474f"/>
            <path id="Path_33168" data-name="Path 33168" d="M240.64,253.714c2.488-.15,4.977-.218,7.472-.272s4.977-.075,7.472-.082,4.977.02,7.472.082l3.732.1c1.244.061,2.488.1,3.732.177-1.244.082-2.488.116-3.732.177l-3.732.1c-2.488.068-4.977.075-7.472.082s-4.977-.02-7.472-.082-4.977-.129-7.472-.272Z" transform="translate(-240.633 -223.841)" fill="#37474f"/>
          </g>
          <g id="Group_1709" data-name="Group 1709" transform="translate(119.37)">
            <rect id="Rectangle_3115" data-name="Rectangle 3115" width="29.88" height="29.88" transform="translate(59.916 59.766) rotate(180)" fill="#c7c7c7"/>
            <rect id="Rectangle_3116" data-name="Rectangle 3116" width="29.88" height="29.88" transform="translate(30.036 59.766) rotate(180)" fill="#c7c7c7"/>
            <rect id="Rectangle_3117" data-name="Rectangle 3117" width="29.88" height="29.88" transform="translate(59.916 29.887) rotate(180)" fill="#c7c7c7"/>
            <rect id="Rectangle_3118" data-name="Rectangle 3118" width="29.88" height="29.88" transform="translate(30.036 29.887) rotate(180)" fill="#c7c7c7"/>
            <rect id="Rectangle_3119" data-name="Rectangle 3119" width="15.161" height="59.746" transform="translate(75.07 59.76) rotate(180)" fill="#a6a6a6"/>
            <path id="Path_33169" data-name="Path 33169" d="M328.344,195.86c-.15-2.488-.218-4.977-.272-7.472s-.075-4.983-.082-7.472.02-4.983.082-7.472l.1-3.732c.061-1.244.1-2.488.177-3.732.082,1.244.116,2.488.177,3.732l.1,3.732c.068,2.488.075,4.977.082,7.472s-.02,4.977-.082,7.472-.129,4.977-.272,7.472Z" transform="translate(-298.328 -165.98)" fill="#a6a6a6"/>
            <path id="Path_33170" data-name="Path 33170" d="M328.344,239.81c-.15-2.488-.218-4.977-.272-7.472s-.075-4.977-.082-7.472.02-4.977.082-7.472l.1-3.732c.061-1.244.1-2.488.177-3.732.082,1.244.116,2.488.177,3.732l.1,3.732c.068,2.488.075,4.977.082,7.472s-.02,4.977-.082,7.472-.129,4.977-.272,7.472Z" transform="translate(-298.328 -180.05)" fill="#a6a6a6"/>
            <path id="Path_33171" data-name="Path 33171" d="M328.51,209.764c2.488-.15,4.977-.218,7.472-.272s4.977-.075,7.472-.082,4.977.02,7.472.082l3.732.1c1.244.061,2.488.1,3.732.177-1.244.082-2.488.116-3.732.177l-3.732.1c-2.488.068-4.977.075-7.472.082s-4.977-.02-7.472-.082-4.977-.129-7.472-.272Z" transform="translate(-298.494 -179.884)" fill="#a6a6a6"/>
            <path id="Path_33172" data-name="Path 33172" d="M284.36,209.764c2.488-.15,4.983-.218,7.472-.272s4.977-.075,7.472-.082,4.977.02,7.472.082l3.732.1c1.244.061,2.488.1,3.732.177-1.244.082-2.488.116-3.732.177l-3.732.1c-2.488.068-4.977.075-7.472.082s-4.977-.02-7.472-.082-4.977-.129-7.472-.272Z" transform="translate(-284.36 -179.884)" fill="#a6a6a6"/>
          </g>
        </g>
      </g>
      <g id="f" transform="translate(6.235 10.206)">
        <g id="Group_1758" data-name="Group 1758">
          <g id="Group_1725" data-name="Group 1725" transform="translate(0 80.998)">
            <g id="Group_1717" data-name="Group 1717" transform="translate(22.442 0.768)">
              <g id="Group_1714" data-name="Group 1714" transform="translate(19.226 149.725)">
                <path id="Path_33173" data-name="Path 33173" d="M127.373,405.792c-1.788.585-52.791.122-54.722-1.129-.741-.462-1.108-7.9-1.292-16.895v-.279c-.041-1.856.714-31.981.714-31.981l33.34.2-1.142,31.7-.02.557s19.444,8.906,21.422,10.511,3.488,6.731,1.7,7.309Z" transform="translate(-70.754 -355.51)" fill="#ad6359"/>
                <path id="Path_33174" data-name="Path 33174" d="M127.376,418.832c-1.788.578-52.791.122-54.722-1.129-.741-.469-1.1-7.9-1.285-16.894v-.279c-.007-.347.027-2.3.061-4.29l32.994.068-.15,4.154-.014.557s19.444,8.906,21.422,10.5c1.958,1.591,3.488,6.737,1.706,7.315Z" transform="translate(-70.758 -368.549)" fill="#fff"/>
                <g id="Group_1713" data-name="Group 1713" transform="translate(0 23.349)">
                  <path id="Path_33175" data-name="Path 33175" d="M127.605,421.16c-1.822.6-53.8.258-55.776-1.006-.755-.476-1.142-8.05-1.36-17.214l33.517.122s19.845,9.029,21.864,10.653,3.576,6.853,1.761,7.451Z" transform="translate(-70.47 -394.043)" fill="#a6a6a6"/>
                  <g id="Group_1712" data-name="Group 1712" transform="translate(3.838)">
                    <g id="Group_1711" data-name="Group 1711" transform="translate(0 9.9)">
                      <path id="Path_33176" data-name="Path 33176" d="M128.678,426.509c-8.716-.272-43.878-.537-52.512-.143-.068,0-.068.048,0,.054,8.627.456,43.8.442,52.512.231C128.862,426.651,128.862,426.515,128.678,426.509Z" transform="translate(-76.115 -411.379)" fill="#263238"/>
                      <path id="Path_33177" data-name="Path 33177" d="M143.626,416a7.01,7.01,0,0,0-5.228,2.094,6.807,6.807,0,0,0-1.978,4.637c0,.054.1.054.1,0a8.088,8.088,0,0,1,7.1-6.629.055.055,0,0,0,0-.109Z" transform="translate(-95.42 -408.121)" fill="#263238"/>
                      <path id="Path_33178" data-name="Path 33178" d="M120.141,404.419c-3.488-.068-7.54,1.135-9.722,3.97-.082.109.075.231.177.177a48.284,48.284,0,0,1,9.606-3.719.218.218,0,0,0-.054-.428Z" transform="translate(-87.09 -404.416)" fill="#263238"/>
                      <path id="Path_33179" data-name="Path 33179" d="M124.091,405.989c-3.488-.068-7.54,1.135-9.722,3.97-.082.109.075.231.177.177a48.288,48.288,0,0,1,9.606-3.719.218.218,0,0,0-.054-.428Z" transform="translate(-88.354 -404.919)" fill="#263238"/>
                      <path id="Path_33180" data-name="Path 33180" d="M128.041,407.559c-3.488-.068-7.54,1.135-9.722,3.97-.082.109.075.231.177.177a48.292,48.292,0,0,1,9.606-3.719.218.218,0,0,0-.054-.428Z" transform="translate(-89.619 -405.421)" fill="#263238"/>
                      <path id="Path_33181" data-name="Path 33181" d="M131.991,409.129c-3.488-.068-7.54,1.135-9.722,3.97-.082.109.075.231.177.177a48.285,48.285,0,0,1,9.606-3.719.218.218,0,0,0-.054-.428Z" transform="translate(-90.884 -405.924)" fill="#263238"/>
                    </g>
                    <path id="Path_33182" data-name="Path 33182" d="M126.445,390.477c-1.754-1.475-3.991-.061-5.085,1.455a18.308,18.308,0,0,0-3.229,8.9c0,.075.048.1.109.1a.426.426,0,0,0,.625.286c2.5-1.7,5.371-3.209,7.268-5.629,1.108-1.407,1.972-3.712.313-5.113Zm-4.324,7.383c-1.2.863-2.447,1.666-3.624,2.577a53.81,53.81,0,0,1,2-5.153,19.693,19.693,0,0,1,1.292-2.346c.768-1.149,4.208-4.038,4.528-.245.177,2.094-2.76,4.127-4.195,5.16Z" transform="translate(-89.566 -389.854)" fill="#263238"/>
                    <path id="Path_33183" data-name="Path 33183" d="M103.618,404.966c3.032.483,6.173-.36,9.158-.8a.424.424,0,0,0,.265-.632.092.092,0,0,0,.014-.15,18.3,18.3,0,0,0-8.41-4.344c-1.836-.367-4.433.109-4.725,2.386C99.647,403.579,101.843,404.68,103.618,404.966Zm-2.094-2c-2.339-3,2.148-3.223,3.494-2.9a20.535,20.535,0,0,1,2.536.843c1.727.68,3.325,1.584,4.97,2.427-1.482.129-2.937.381-4.412.564-1.754.218-5.3.714-6.588-.945Z" transform="translate(-83.728 -392.758)" fill="#263238"/>
                  </g>
                  <path id="Path_33184" data-name="Path 33184" d="M97.685,421.323c-12.741-.177-24.917-.564-25.855-1.169-.748-.476-1.142-8.05-1.36-17.214H71.5C79.648,408.624,89.662,415.667,97.685,421.323Z" transform="translate(-70.47 -394.043)" opacity="0.1"/>
                </g>
              </g>
              <g id="Group_1716" data-name="Group 1716">
                <path id="Path_33185" data-name="Path 33185" d="M97.7,310.857l-38.249-.1s5.051-81.087,4.773-82.582c-.354-1.924-22.034-92.889-22.034-92.889l31.131.19s25.087,84.4,26.025,92.549c1.509,13.148-1.638,82.834-1.638,82.834Z" transform="translate(-42.19 -135.283)" fill="#263238"/>
                <g id="Group_1715" data-name="Group 1715" transform="translate(6.926 6.986)">
                  <path id="Path_33186" data-name="Path 33186" d="M104.55,383.539c-5.758-.442-29.56-.537-32.96.027-.054.007-.054.1,0,.116,2.563.422,23.074.612,32.96.027a.082.082,0,0,0,0-.163Z" transform="translate(-58.516 -221.628)" fill="#37474f"/>
                  <path id="Path_33187" data-name="Path 33187" d="M52.481,145.586c.734,2.237,1.373,4.5,2.046,6.758s1.271,4.528,1.924,6.785c1.3,4.467,2.536,8.961,3.78,13.448,2.509,9.063,4.9,18.159,7.24,27.262q1.734,6.761,3.433,13.536c1.129,4.528,2.325,9.049,3.338,13.6a23.5,23.5,0,0,1,.639,6.533c-.143,2.25-5.711,70.814-6.5,72.058-.034.054-.122.048-.122-.02.36-8.321,6.207-73.268,5.922-75.573a60.182,60.182,0,0,0-1.428-6.663L71.1,216.6q-1.683-6.782-3.413-13.543-3.477-13.594-7.111-27.154-3.61-13.492-7.322-26.95c-.306-1.108-.605-2.223-.877-3.338a.053.053,0,0,1,.1-.027Z" transform="translate(-52.378 -145.556)" fill="#37474f"/>
                </g>
                <path id="Path_33188" data-name="Path 33188" d="M42.2,135.28s12.863,53.981,18.92,79.659l9.736-79.482-28.656-.17Z" transform="translate(-42.193 -135.28)" fill="#37474f"/>
              </g>
            </g>
            <g id="Group_1724" data-name="Group 1724">
              <g id="Group_1721" data-name="Group 1721" transform="translate(0.612 149.005)">
                <path id="Path_33189" data-name="Path 33189" d="M66.7,405.424c-1.795.557-52.784-.693-54.695-1.972-.734-.476-.986-7.914-1.033-16.915v-.279c-.014-1.856,1.224-32.939,1.224-32.939l33.333.721-1.645,32.654-.027.557s19.3,9.205,21.259,10.837c1.938,1.625,3.386,6.785,1.591,7.336Z" transform="translate(-10.365 -353.32)" fill="#ad6359"/>
                <path id="Path_33190" data-name="Path 33190" d="M66.7,418.915c-1.8.551-52.784-.693-54.7-1.972-.734-.476-.979-7.914-1.027-16.915v-.279c0-.347.061-2.3.129-4.29l32.987.578-.211,4.147-.02.557s19.3,9.205,21.252,10.837,3.386,6.792,1.591,7.342Z" transform="translate(-10.365 -366.811)" fill="#fff"/>
                <g id="Group_1720" data-name="Group 1720" transform="translate(0 24.9)">
                  <path id="Path_33191" data-name="Path 33191" d="M66.93,421.244c-1.829.564-53.8-.571-55.755-1.87-.741-.49-1.02-8.063-1.095-17.234l33.51.639s19.7,9.334,21.694,10.987S68.759,420.673,66.93,421.244Z" transform="translate(-10.08 -393.85)" fill="#a6a6a6"/>
                  <g id="Group_1719" data-name="Group 1719" transform="translate(3.593)">
                    <g id="Group_1718" data-name="Group 1718" transform="translate(0 9.859)">
                      <path id="Path_33192" data-name="Path 33192" d="M67.921,426.685c-8.709-.408-43.864-1.217-52.506-.959-.068,0-.068.048,0,.054,8.621.591,43.783,1.115,52.5,1.047.184,0,.184-.136,0-.143Z" transform="translate(-15.365 -411.243)" fill="#263238"/>
                      <path id="Path_33193" data-name="Path 33193" d="M82.978,416.374a7.017,7.017,0,0,0-5.262,2.012A6.751,6.751,0,0,0,75.67,423c0,.054.1.054.1,0a8.086,8.086,0,0,1,7.2-6.513.054.054,0,0,0,0-.109Z" transform="translate(-34.671 -408.262)" fill="#263238"/>
                      <path id="Path_33194" data-name="Path 33194" d="M59.691,404.456c-3.488-.122-7.553,1.02-9.783,3.821-.088.109.068.231.177.177a48.33,48.33,0,0,1,9.661-3.569.218.218,0,0,0-.048-.428Z" transform="translate(-26.415 -404.447)" fill="#263238"/>
                      <path id="Path_33195" data-name="Path 33195" d="M63.621,406.086c-3.488-.122-7.553,1.02-9.783,3.821-.088.109.068.231.177.177a48.332,48.332,0,0,1,9.661-3.569.218.218,0,0,0-.048-.428Z" transform="translate(-27.673 -404.969)" fill="#263238"/>
                      <path id="Path_33196" data-name="Path 33196" d="M67.541,407.716c-3.488-.122-7.553,1.02-9.783,3.821-.088.109.068.231.177.177a48.331,48.331,0,0,1,9.661-3.569.218.218,0,0,0-.048-.428Z" transform="translate(-28.928 -405.491)" fill="#263238"/>
                      <path id="Path_33197" data-name="Path 33197" d="M71.471,409.346c-3.488-.122-7.553,1.02-9.783,3.821-.088.109.068.231.177.177a48.329,48.329,0,0,1,9.661-3.569.218.218,0,0,0-.048-.428Z" transform="translate(-30.186 -406.012)" fill="#263238"/>
                    </g>
                    <path id="Path_33198" data-name="Path 33198" d="M66.168,390.594c-1.734-1.5-3.991-.122-5.113,1.373a18.288,18.288,0,0,0-3.365,8.845c0,.075.048.1.109.1a.421.421,0,0,0,.619.292c2.522-1.666,5.418-3.127,7.356-5.514,1.129-1.394,2.033-3.685.388-5.106Zm-4.439,7.315c-1.217.85-2.475,1.632-3.664,2.522a53.915,53.915,0,0,1,2.08-5.126,20.112,20.112,0,0,1,1.326-2.325c.782-1.135,4.27-3.977,4.535-.17C66.147,394.9,63.183,396.9,61.728,397.91Z" transform="translate(-28.915 -389.946)" fill="#263238"/>
                    <path id="Path_33199" data-name="Path 33199" d="M43.18,404.714c3.025.53,6.173-.265,9.171-.659a.423.423,0,0,0,.272-.632.092.092,0,0,0,.014-.15A18.324,18.324,0,0,0,44.3,398.8c-1.829-.394-4.439.041-4.759,2.312-.306,2.148,1.876,3.284,3.644,3.6Zm-2.06-2.033c-2.291-3.046,2.2-3.189,3.535-2.842a19.446,19.446,0,0,1,2.522.884,54.135,54.135,0,0,1,4.929,2.509c-1.482.1-2.944.333-4.419.5C45.927,403.918,42.385,404.36,41.12,402.681Z" transform="translate(-23.094 -392.739)" fill="#263238"/>
                  </g>
                </g>
              </g>
              <g id="Group_1723" data-name="Group 1723">
                <path id="Path_33200" data-name="Path 33200" d="M62.753,135.068s-.286,14.868-3.766,26.644c-.279.972-.585,1.931-.9,2.849,0,0-1.346-.02-6.792,3.27L45.906,310.478,9.18,309.866s6.323-75.58,6.3-80.427c-.02-7.784,4.582-60.48,4.14-61.82-4.48-13.652,4.106-33.469,4.106-33.469l39.024.911Z" transform="translate(-9.18 -134.15)" fill="#263238"/>
                <g id="Group_1722" data-name="Group 1722" transform="translate(2.506 3.192)">
                  <path id="Path_33201" data-name="Path 33201" d="M45.862,383.153c-10.341-.687-30.383-.965-32.953-.591a.06.06,0,0,0,0,.116c2.556.476,26.9,1.088,32.953.639a.082.082,0,0,0,0-.163Z" transform="translate(-12.866 -216.815)" fill="#37474f"/>
                  <path id="Path_33202" data-name="Path 33202" d="M64.793,281.578c-.374,9.226-.707,18.445-1.149,27.663a.1.1,0,0,1-.2,0c.2-16.446.721-32.885,1.265-49.324q.816-24.526,1.972-49.045c.428-9.219,1.305-17.71,1.9-26.922a.248.248,0,0,1,.5.014c-.5,16.439-1.672,32.13-2.312,48.562" transform="translate(-29.057 -153.21)" fill="#37474f"/>
                  <path id="Path_33203" data-name="Path 33203" d="M21.73,268.219c.829-10.721,1.713-21.436,2.577-32.157s1.727-21.436,2.59-32.157c.428-5.357.85-10.721,1.3-16.079q.337-4.018.68-8.036a71.057,71.057,0,0,0,.53-7.968c-.082-2.9-1.292-5.493-1.951-8.274a32.282,32.282,0,0,1-.782-8.077,60.082,60.082,0,0,1,2.842-16.391c.088-.3.286-.32.211-.02a80.316,80.316,0,0,0-2.57,15.222,32.685,32.685,0,0,0,.489,7.682c.462,2.434,1.462,4.691,2.019,7.091.578,2.481.231,5.031.02,7.54-.224,2.679-.422,5.357-.625,8.043-.408,5.255-.843,10.5-1.265,15.759-1.72,21.334-3.406,42.668-5.2,64-1.013,12-1.883,24.026-3.121,36.012-.007.088-.143.088-.143,0,.625-10.728,1.577-21.45,2.407-32.164Z" transform="translate(-14.936 -138.845)" fill="#37474f"/>
                  <path id="Path_33204" data-name="Path 33204" d="M36.92,159.559c.619-.238,3.284-.884,3.93-1.163a15.073,15.073,0,0,0,3.42-2.026,7.9,7.9,0,0,0,2.23-3.2c.286-.659,1.625-4.208,1.713-4.229.034,0,.075.007.088.041a6.655,6.655,0,0,1-.408,1.972c-.211.761-.408,1.523-.646,2.278a7.794,7.794,0,0,1-2.237,3.692,11.973,11.973,0,0,1-3.814,2.155,12.673,12.673,0,0,1-2.189.585,5.884,5.884,0,0,1-2.094.116c-.122-.027-.082-.177,0-.211Z" transform="translate(-20.54 -142.077)" fill="#37474f"/>
                  <path id="Path_33205" data-name="Path 33205" d="M78.3,165.326c.1-1.285.2-2.57.32-3.848.279-2.923.6-5.86,1.129-8.75.041-.224.36-.136.34.075-.211,2.271-.483,4.541-.714,6.812-.224,2.25-.51,4.528-.564,6.792-.014.68.02,1.836.857,2.033,1.122.258,1.666-1.217,1.938-2.019a37.934,37.934,0,0,0,1.448-6.18c.388-2.38.6-4.8.836-7.193.007-.088.15-.075.15.014-.014,4.766-.116,9.749-1.917,14.236a2.649,2.649,0,0,1-1.985,1.876h-.048c0,.027.02.054.014.082-.02.136-.054.265-.082.394-.02.109-.041.224-.068.333-.048.231-.082.462-.143.693a.176.176,0,0,1-.347-.041.15.15,0,0,1-.1-.143,3.716,3.716,0,0,1,.32-1.346,1.7,1.7,0,0,1-1.224-1.04,6.066,6.066,0,0,1-.163-2.774Z" transform="translate(-33.79 -143.247)" fill="#37474f"/>
                  <path id="Path_33206" data-name="Path 33206" d="M78.372,177.591a68.241,68.241,0,0,0-10.531,5.432.122.122,0,0,0,.109.218c3.556-1.7,7.179-3.338,10.633-5.228a.236.236,0,0,0-.211-.422Z" transform="translate(-30.446 -151.243)" fill="#37474f"/>
                </g>
              </g>
            </g>
          </g>
          <g id="Group_1757" data-name="Group 1757" transform="translate(13.092)">
            <g id="Group_1732" data-name="Group 1732" transform="translate(33.178 42.138)">
              <g id="Group_1730" data-name="Group 1730" transform="translate(0.328 0.676)">
                <path id="Path_33207" data-name="Path 33207" d="M78.046,88.4c2.631,15.351,12.088,36.95,18,38.664,2.808.816,7.662,2.876,12.251.659,10.028-4.841,18.3-14.236,22.918-18.649,2.1-2.006-9.4-17.5-11.993-15.8-6.078,3.97-14.311,12.788-15.113,12.5-2.971-1.067-11.9-14.372-18.472-23.462-7.363-10.184-8.641-.027-7.594,6.092Z" transform="translate(-77.72 -77.986)" fill="#ad6359"/>
                <g id="Group_1729" data-name="Group 1729" transform="translate(38.011 2.243)">
                  <g id="Group_1727" data-name="Group 1727" transform="translate(2.597)">
                    <path id="Path_33208" data-name="Path 33208" d="M148.865,110.9c2.1-.959,11.326-6.2,13.563-8.233s8.267-8.355,6.887-10.225-3.3-.163-3.3-.163,2.121-3.073.557-4.834-4.453,1-4.453,1,1.951-3.311.265-4.956S158.26,85.1,158.26,85.1s1.924-2.944-.034-3.719c-2.359-.925-5.289,4.909-7.934,6.962-.6.469-12.843,8.614-12.843,8.614L148.858,110.9Z" transform="translate(-137.45 -81.285)" fill="#ad6359"/>
                    <g id="Group_1726" data-name="Group 1726" transform="translate(13.081 3.411)">
                      <path id="Path_33209" data-name="Path 33209" d="M164.638,86.423c-2.169,4.283-3.855,5.786-7.907,8.213-.082.048-.027.177.061.136,4.188-2.012,6.574-3.59,8.063-8.253.075-.231-.109-.3-.211-.1Z" transform="translate(-156.691 -86.302)" fill="#263238"/>
                      <path id="Path_33210" data-name="Path 33210" d="M169.968,91.259c-2.638,4.256-4.453,5.894-8.519,8.75-.054.041,0,.143.068.109,4.215-2.468,6.567-4.093,8.641-8.689.1-.211-.075-.36-.19-.17Z" transform="translate(-158.207 -87.861)" fill="#263238"/>
                      <path id="Path_33211" data-name="Path 33211" d="M174.869,97.578c-2.855,3.93-4.766,5.82-9.063,8.084a.09.09,0,0,0,.075.163,16.128,16.128,0,0,0,9.1-8.152c.143-.265.068-.347-.109-.1Z" transform="translate(-159.593 -89.863)" fill="#263238"/>
                    </g>
                  </g>
                  <g id="Group_1728" data-name="Group 1728" transform="translate(0 2.179)">
                    <path id="Path_33212" data-name="Path 33212" d="M133.637,99.325a59.212,59.212,0,0,1,3.746-7.825c1.523-2.237,10.259-8.5,11.714-6.683,1.883,2.339-2.447,6.941-4.868,8.92,0,0,4.358,5.4,1.965,9.382s-12.564-3.794-12.564-3.794Z" transform="translate(-133.63 -84.491)" fill="#ad6359"/>
                    <path id="Path_33213" data-name="Path 33213" d="M154.261,86.156c.177,3.372-3.161,5.765-5.357,7.859a.28.28,0,0,0,.048.456c1.679,2.386,3.345,6.241,2.291,9.13a.072.072,0,0,0,.129.061c1.55-2.951.224-6.867-1.781-9.362,2.291-2.114,5.534-4.657,4.7-8.138a.017.017,0,0,0-.034,0Z" transform="translate(-138.488 -85.021)" fill="#263238"/>
                  </g>
                </g>
              </g>
              <g id="Group_1731" data-name="Group 1731" transform="translate(0 0)">
                <path id="Path_33214" data-name="Path 33214" d="M114.135,96.088l12.435,19.145s-14.882,13.366-22.415,13.42-9.375-1.407-11.116-2.434S81.217,109.114,77.906,88.7c-3.134-19.294,5.473-10.783,11.15-2.454,3.236,4.745,14.25,18,14.855,18.016s10.225-8.172,10.225-8.172Z" transform="translate(-77.238 -76.992)" fill="#455a64"/>
                <path id="Path_33215" data-name="Path 33215" d="M127.539,110.1c1.972,2.917,3.848,5.888,5.7,8.872.911,1.462,4.3,7.424,5.289,9.11.041.068-.143.177-.19.109-1.027-1.5-4.725-7.444-5.609-8.927-1.8-3.012-3.59-6.037-5.276-9.117A.047.047,0,0,1,127.539,110.1Z" transform="translate(-93.313 -87.583)" fill="#263238"/>
                <path id="Path_33216" data-name="Path 33216" d="M90.654,123.185A97.38,97.38,0,0,1,77.907,88.709c-1.666-10.266,0-12.659,2.774-11.394C81.775,82.121,87.534,108.717,90.654,123.185Z" transform="translate(-77.239 -76.996)" opacity="0.1"/>
              </g>
            </g>
            <path id="Path_33217" data-name="Path 33217" d="M30.58,114.879l39.649,4.895L72.187,108.3s3.957-4.1,4.365-9.158c.428-5.384-8.016-20.729-8.743-21.626C64.9,73.938,59.488,72.993,56.53,74.9,40.683,85.054,30.58,114.879,30.58,114.879Z" transform="translate(-29.123 -33.875)" fill="#263238"/>
            <path id="Path_33218" data-name="Path 33218" d="M30.58,114.879l39.649,4.895L72.187,108.3s3.957-4.1,4.365-9.158c.428-5.384-8.016-20.729-8.743-21.626C64.9,73.938,59.488,72.993,56.53,74.9,40.683,85.054,30.58,114.879,30.58,114.879Z" transform="translate(-29.123 -33.875)" fill="#455a64"/>
            <g id="Group_1735" data-name="Group 1735" transform="translate(1.457 50.839)">
              <path id="Path_33219" data-name="Path 33219" d="M76.552,104.217c-.408,5.065-4.365,9.165-4.365,9.165L70.223,124.85,30.58,119.962a131.674,131.674,0,0,1,9.042-19.913c.768.143,6.058,4.541,13.944.755,4.745-2.278,5.99-10.83,5.99-10.83l12.129-.184c2.461,5.024,5.113,11.354,4.868,14.433Z" transform="translate(-30.58 -89.79)" fill="#263238"/>
              <path id="Path_33220" data-name="Path 33220" d="M74.973,91.9a.72.72,0,1,1-.659-.775A.722.722,0,0,1,74.973,91.9Z" transform="translate(-44.332 -90.218)" fill="#0091ff"/>
              <path id="Path_33221" data-name="Path 33221" d="M90.664,90.875a.657.657,0,0,1-.272.891.735.735,0,1,1,.272-.891Z" transform="translate(-49.444 -89.984)" fill="#0091ff"/>
              <g id="Group_1733" data-name="Group 1733" transform="translate(0.007 26.453)">
                <path id="Path_33222" data-name="Path 33222" d="M30.59,134.16c13.053,1.693,26.562,3.794,39.643,4.888-13.318-.428-26.548-2.515-39.643-4.888Z" transform="translate(-30.59 -130.448)" fill="#455a64"/>
                <path id="Path_33223" data-name="Path 33223" d="M32.63,128.7c12.815,1.638,26.079,3.664,38.922,4.739-13.074-.4-26.066-2.413-38.922-4.739h0Z" transform="translate(-31.243 -128.7)" fill="#455a64"/>
                <path id="Path_33224" data-name="Path 33224" d="M35.73,129.28a9.177,9.177,0,0,0-.952,3.705,3.638,3.638,0,0,1,.952-3.705Z" transform="translate(-31.875 -128.886)" fill="#455a64"/>
                <path id="Path_33225" data-name="Path 33225" d="M37.01,129.38a9.177,9.177,0,0,0-.952,3.705,3.638,3.638,0,0,1,.952-3.705Z" transform="translate(-32.285 -128.918)" fill="#455a64"/>
                <path id="Path_33226" data-name="Path 33226" d="M52.31,131.7a9.177,9.177,0,0,0-.952,3.705,3.638,3.638,0,0,1,.952-3.705Z" transform="translate(-37.183 -129.66)" fill="#455a64"/>
                <path id="Path_33227" data-name="Path 33227" d="M53.59,131.81a9.177,9.177,0,0,0-.952,3.705,3.638,3.638,0,0,1,.952-3.705Z" transform="translate(-37.593 -129.696)" fill="#455a64"/>
                <path id="Path_33228" data-name="Path 33228" d="M69.79,137.985a9.177,9.177,0,0,0,.952-3.705,3.638,3.638,0,0,1-.952,3.705Z" transform="translate(-43.14 -130.486)" fill="#455a64"/>
                <path id="Path_33229" data-name="Path 33229" d="M68.51,137.885a9.177,9.177,0,0,0,.952-3.705,3.638,3.638,0,0,1-.952,3.705Z" transform="translate(-42.73 -130.454)" fill="#455a64"/>
                <path id="Path_33230" data-name="Path 33230" d="M82.53,139.005a9.177,9.177,0,0,0,.952-3.705,3.638,3.638,0,0,1-.952,3.705Z" transform="translate(-47.218 -130.813)" fill="#455a64"/>
                <path id="Path_33231" data-name="Path 33231" d="M81.26,138.905a9.177,9.177,0,0,0,.952-3.705,3.638,3.638,0,0,1-.952,3.705Z" transform="translate(-46.812 -130.781)" fill="#455a64"/>
              </g>
              <g id="Group_1734" data-name="Group 1734" transform="translate(24.042 19.505)">
                <path id="Path_33232" data-name="Path 33232" d="M73.75,118.48a37.539,37.539,0,0,1,6.187,1.414c1.006.34,1.985.727,2.971,1.149.49.211.979.394,1.475.578a5.957,5.957,0,0,0,1.591.408c.048,0,.041.088,0,.088a9,9,0,0,1-1.543-.088,9.8,9.8,0,0,1-1.462-.374c-1.02-.333-2.026-.721-3.046-1.061-2.053-.693-4.106-1.387-6.2-1.91-.1-.027-.068-.218.034-.2Z" transform="translate(-68.415 -118.48)" fill="#263238"/>
                <path id="Path_33233" data-name="Path 33233" d="M66.016,121.321a39.278,39.278,0,0,1,5.215-.1,25.536,25.536,0,0,1,2.59.272c.415.061.823.129,1.231.2.449.082.891.238,1.346.313.048.007.048.1,0,.088-.428-.054-.863-.034-1.3-.061s-.863-.061-1.3-.088c-.863-.054-1.734-.1-2.6-.163-1.734-.129-3.46-.238-5.194-.3-.1,0-.082-.156.007-.163Z" transform="translate(-65.943 -119.343)" fill="#263238"/>
              </g>
            </g>
            <path id="Path_33234" data-name="Path 33234" d="M71.414,85.344,67.62,75.765l.768-.415,3.9,9.98Z" transform="translate(-40.981 -34.328)" fill="#263238"/>
            <path id="Path_33235" data-name="Path 33235" d="M87.415,85.776,83.2,77.21l1.04.49,4.032,8.063Z" transform="translate(-45.968 -34.923)" fill="#263238"/>
            <g id="Group_1745" data-name="Group 1745" transform="translate(19.704)">
              <path id="Path_33236" data-name="Path 33236" d="M76.823,31.612a1.2,1.2,0,0,1-.884,2.169,1.292,1.292,0,0,1-.014.51A1.324,1.324,0,0,1,74.457,35.3a1.145,1.145,0,0,1-.02.428,1.212,1.212,0,0,1-1.448.9,1.2,1.2,0,0,1-.673-.428,1.2,1.2,0,0,1-1.421.8,1.18,1.18,0,0,1-.456-.218.613.613,0,0,1-.02.109,1.2,1.2,0,0,1-1.448.9,1.183,1.183,0,0,1-.843-.714,1.2,1.2,0,0,1-1.36.666,1.221,1.221,0,0,1-.891-.836,1.376,1.376,0,0,1-.877.1,1.29,1.29,0,0,1-.829-.605,1.3,1.3,0,0,1-1,.17,1.32,1.32,0,0,1-1.027-1.217,1.365,1.365,0,0,1-.469-.014,1.193,1.193,0,0,1-.925-1.285,1.3,1.3,0,0,1-.585,0,1.315,1.315,0,0,1-.829-1.992.78.78,0,0,1-.211-.027,1.205,1.205,0,0,1-.9-1.441,1.161,1.161,0,0,1,.32-.571,1.323,1.323,0,0,1-.877-1.557,1.345,1.345,0,0,1,.354-.639,1.323,1.323,0,0,1,.177-2.312,1.166,1.166,0,0,1-.184-.952,1.185,1.185,0,0,1,.591-.782,1.288,1.288,0,0,1-.272-1.142,1.321,1.321,0,0,1,1.19-1.02,1.2,1.2,0,0,1,1.278-1.5,1.348,1.348,0,0,1,0-.571,1.326,1.326,0,0,1,1.591-.993,1.078,1.078,0,0,1,.292.109.758.758,0,0,1,.034-.211,1.326,1.326,0,0,1,1.591-.993,1.232,1.232,0,0,1,.313.116,1.173,1.173,0,0,1,.027-.374,1.324,1.324,0,0,1,1.6-.993,1.3,1.3,0,0,1,.843.619,1.321,1.321,0,0,1,2.06.19,1.2,1.2,0,0,1,2.2.184,1.181,1.181,0,0,1,1-.211,1.207,1.207,0,0,1,.925,1.054,1.3,1.3,0,0,1,1.054-.2,1.332,1.332,0,0,1,1.033,1.326A1.189,1.189,0,0,1,76.7,20.632a1.138,1.138,0,0,1-.17.394.244.244,0,0,1,.075.014,1.324,1.324,0,0,1,.993,1.6,1.111,1.111,0,0,1-.143.36,1.018,1.018,0,0,1,.32.027,1.2,1.2,0,0,1,.354,2.2,1.2,1.2,0,0,1,.374,1.169,1.23,1.23,0,0,1-.53.748,1.321,1.321,0,0,1-.51,2.461,1.17,1.17,0,0,1,.326,1.122,1.223,1.223,0,0,1-.979.918Z" transform="translate(-57.419 -15.384)" fill="#263238"/>
              <path id="Path_33237" data-name="Path 33237" d="M109.933,30.45a1.2,1.2,0,0,1-.884,2.169,1.292,1.292,0,0,1-.014.51,1.324,1.324,0,0,1-1.468,1.013,1.145,1.145,0,0,1-.02.428,1.212,1.212,0,0,1-1.448.9,1.2,1.2,0,0,1-.673-.428,1.2,1.2,0,0,1-1.421.8,1.18,1.18,0,0,1-.456-.218.612.612,0,0,1-.02.109,1.2,1.2,0,0,1-1.448.9,1.183,1.183,0,0,1-.843-.714,1.2,1.2,0,0,1-1.36.666,1.221,1.221,0,0,1-.891-.836,1.376,1.376,0,0,1-.877.1,1.29,1.29,0,0,1-.829-.605A1.323,1.323,0,0,1,95.255,34.2a1.365,1.365,0,0,1-.469-.014,1.193,1.193,0,0,1-.925-1.285,1.3,1.3,0,0,1-.585,0,1.315,1.315,0,0,1-.829-1.992.78.78,0,0,1-.211-.027,1.205,1.205,0,0,1-.9-1.441,1.16,1.16,0,0,1,.32-.571,1.323,1.323,0,0,1-.877-1.557,1.345,1.345,0,0,1,.354-.639,1.323,1.323,0,0,1,.177-2.312,1.166,1.166,0,0,1-.184-.952,1.185,1.185,0,0,1,.591-.782,1.288,1.288,0,0,1-.272-1.142,1.321,1.321,0,0,1,1.19-1.02,1.2,1.2,0,0,1,1.278-1.5,1.348,1.348,0,0,1,0-.571A1.326,1.326,0,0,1,95.5,17.4a1.078,1.078,0,0,1,.292.109.758.758,0,0,1,.034-.211,1.326,1.326,0,0,1,1.591-.993,1.232,1.232,0,0,1,.313.116,1.173,1.173,0,0,1,.027-.374,1.334,1.334,0,0,1,1.6-1,1.3,1.3,0,0,1,.843.619,1.321,1.321,0,0,1,2.06.19,1.2,1.2,0,0,1,2.2.184,1.181,1.181,0,0,1,1-.211,1.207,1.207,0,0,1,.925,1.054,1.3,1.3,0,0,1,1.054-.2A1.332,1.332,0,0,1,108.471,18a1.189,1.189,0,0,1,1.339,1.462,1.138,1.138,0,0,1-.17.394.244.244,0,0,1,.075.014,1.324,1.324,0,0,1,.993,1.6,1.11,1.11,0,0,1-.143.36,1.018,1.018,0,0,1,.32.027,1.2,1.2,0,0,1,.36,2.2,1.2,1.2,0,0,1,.374,1.169,1.23,1.23,0,0,1-.53.748,1.321,1.321,0,0,1-.51,2.461,1.17,1.17,0,0,1,.326,1.122,1.223,1.223,0,0,1-.979.918Z" transform="translate(-68.019 -15.011)" fill="#263238"/>
              <g id="Group_1736" data-name="Group 1736" transform="translate(10.64 28.295)">
                <path id="Path_33238" data-name="Path 33238" d="M73.09,70.254c.048.843,3,6.751,6.724,7.22,1.21.15,2.325-6.438,2.325-6.438l.19-.469,2.7-6.547-7.111-6.513-1.04-.877s-.619,1.842-1.373,4.134c-.034.109-.068.211-.109.326s-.088.252-.129.374c-.116.34-.231.693-.347,1.04-.082.265-.17.523-.245.809s-.163.557-.252.836a46.582,46.582,0,0,0-1.353,6.092Z" transform="translate(-73.07 -56.63)" fill="#ad6359"/>
                <path id="Path_33239" data-name="Path 33239" d="M76.667,60.77a14.156,14.156,0,0,0,6.819,9.8l2.7-6.547-7.111-6.513-1.04-.877s-.619,1.842-1.373,4.134Z" transform="translate(-74.219 -56.63)" fill="#263238"/>
              </g>
              <g id="Group_1744" data-name="Group 1744" transform="translate(10.242 10.462)">
                <path id="Path_33240" data-name="Path 33240" d="M97.633,48.226c-1.747,12.3-9.314,12.645-11.966,12.265-2.407-.347-10.558-1.822-10.1-14.236s6.737-15.494,12.285-15,11.517,4.671,9.77,16.969Z" transform="translate(-73.467 -30.658)" fill="#ad6359"/>
                <g id="Group_1741" data-name="Group 1741" transform="translate(12.041 12.971)">
                  <path id="Path_33241" data-name="Path 33241" d="M104.462,51.026a8.254,8.254,0,0,1-.8-.326,1.387,1.387,0,0,1-.755-.489.446.446,0,0,1,.1-.537,1.1,1.1,0,0,1,1.122-.061,1.615,1.615,0,0,1,.9.748.477.477,0,0,1-.564.666Z" transform="translate(-94.248 -49.482)" fill="#263238"/>
                  <path id="Path_33242" data-name="Path 33242" d="M92.3,51.962c.279.109.551.163.836.245a1.407,1.407,0,0,0,.9.082.452.452,0,0,0,.258-.483,1.105,1.105,0,0,0-.843-.741,1.614,1.614,0,0,0-1.169.027.476.476,0,0,0,.027.87Z" transform="translate(-90.777 -49.956)" fill="#263238"/>
                  <g id="Group_1738" data-name="Group 1738" transform="translate(0 2.18)">
                    <g id="Group_1737" data-name="Group 1737" transform="translate(0.903 0.263)">
                      <path id="Path_33243" data-name="Path 33243" d="M93.8,54.55s-.068.034-.075.068c-.075.85-.313,1.815-1.115,2-.027,0-.027.048,0,.048.952-.014,1.251-1.3,1.183-2.114Z" transform="translate(-91.865 -53.545)" fill="#263238"/>
                      <path id="Path_33244" data-name="Path 33244" d="M92.806,53.091c-1.353-.272-1.795,2.454-.544,2.706C93.493,56.042,93.941,53.322,92.806,53.091Z" transform="translate(-91.523 -53.072)" fill="#263238"/>
                    </g>
                    <path id="Path_33245" data-name="Path 33245" d="M91.824,53.028c-.265.116-.537.347-.829.333-.34-.02-.544-.347-.714-.659-.02-.034-.048-.014-.054.027a1.006,1.006,0,0,0,.564,1.258c.5.156.938-.245,1.156-.755.041-.1-.02-.252-.129-.2Z" transform="translate(-90.196 -52.685)" fill="#263238"/>
                  </g>
                  <g id="Group_1740" data-name="Group 1740" transform="translate(7.721 3.51)">
                    <g id="Group_1739" data-name="Group 1739">
                      <path id="Path_33246" data-name="Path 33246" d="M101.789,55.71s.054.054.048.088c-.2.829-.286,1.822.422,2.25.02.014.014.054-.014.048-.9-.32-.775-1.625-.449-2.386Z" transform="translate(-101.553 -54.984)" fill="#263238"/>
                      <path id="Path_33247" data-name="Path 33247" d="M102.743,54.647c1.367.17.925,2.9-.347,2.74C101.146,57.231,101.594,54.5,102.743,54.647Z" transform="translate(-101.582 -54.642)" fill="#263238"/>
                    </g>
                    <path id="Path_33248" data-name="Path 33248" d="M103.98,55.038c.19.177.36.476.619.537.292.068.564-.19.8-.442.027-.027.041,0,.034.034-.068.523-.333,1.04-.85,1.054-.469.014-.734-.483-.775-1.027-.007-.1.088-.231.17-.163Z" transform="translate(-102.275 -54.761)" fill="#263238"/>
                  </g>
                  <path id="Path_33249" data-name="Path 33249" d="M92.165,63.871c.136.252.252.578.537.693a2.329,2.329,0,0,0,.945.068.03.03,0,0,1,.02.054,1.161,1.161,0,0,1-1.176.122.917.917,0,0,1-.422-.918c0-.054.068-.048.088-.014Z" transform="translate(-90.795 -54.08)" fill="#263238"/>
                  <path id="Path_33250" data-name="Path 33250" d="M96.945,57.658s-.136,1.285-.279,1.87c-.014.054-.163.048-.36.007h-.02a2.87,2.87,0,0,1-2.447-1.706c-.027-.068.061-.109.109-.061a4.31,4.31,0,0,0,2.359,1.353c.082-.15.156-2.2.252-2.189a5.243,5.243,0,0,1,1.251.625c.36-2.665.286-5.364.68-8.009a.083.083,0,0,1,.163,0,43.236,43.236,0,0,1-.367,8.655c-.034.347-1.129-.394-1.339-.551Z" transform="translate(-91.36 -49.479)" fill="#263238"/>
                </g>
                <g id="Group_1742" data-name="Group 1742" transform="translate(1.755)">
                  <path id="Path_33251" data-name="Path 33251" d="M91.42,34.921a5.551,5.551,0,0,1-.877,3.134c-1.931,2.434-5.065.959-6.438,1.781-1.292.768-1.4,2.957-2.59,3.753-1.645,1.1-2.312-.116-2.747.782s-1.754,3.76-3.046,3.868S73.471,26.708,89.074,30.95c0,0,2.475-.129,5.35,2.427C98.517,37.022,97.892,43.4,97.892,43.4a3.986,3.986,0,0,1-1.333-1.02c-.605-.843-.863-1.435-1.326-1.992-.721-.884-1.367-.523-2.128-1.394a10.77,10.77,0,0,1-1.686-4.066Z" transform="translate(-75.067 -30.399)" fill="#263238"/>
                  <path id="Path_33252" data-name="Path 33252" d="M92.647,36.02a10.731,10.731,0,0,1-.1,2.515,4.589,4.589,0,0,1-.87,2.264,3.378,3.378,0,0,1-2.128.993c-.816.1-1.659-.007-2.536.129a2.513,2.513,0,0,0-1.237.551,3.314,3.314,0,0,0-.741,1.1,4.521,4.521,0,0,1-1.373,1.978,2.777,2.777,0,0,1-2.312.4,5.933,5.933,0,0,0-2.475-.435,5.91,5.91,0,0,1,2.42.619,3.043,3.043,0,0,0,2.536-.333,4.489,4.489,0,0,0,1.53-2.074,3,3,0,0,1,.666-.979,2.16,2.16,0,0,1,1.054-.442c.789-.136,1.652-.041,2.515-.163a4.387,4.387,0,0,0,1.265-.354,2.55,2.55,0,0,0,1.061-.8,4.75,4.75,0,0,0,.829-2.434,10.906,10.906,0,0,0-.1-2.536Z" transform="translate(-76.288 -32.199)" fill="#263238"/>
                  <path id="Path_33253" data-name="Path 33253" d="M99.329,37.18a8.844,8.844,0,0,0,.265,2.346,4.182,4.182,0,0,0,1.183,2.1,5.816,5.816,0,0,0,.993.673,1.947,1.947,0,0,1,.721.768,5.776,5.776,0,0,0,.469,1.088,2.515,2.515,0,0,0,.863.809,2.875,2.875,0,0,1-.693-.911,5.805,5.805,0,0,1-.354-1.1,2.009,2.009,0,0,0-.8-.965,6.246,6.246,0,0,1-.931-.653,4.4,4.4,0,0,1-1.142-1.9,17.58,17.58,0,0,1-.571-2.25Z" transform="translate(-82.833 -32.57)" fill="#263238"/>
                </g>
                <g id="Group_1743" data-name="Group 1743" transform="translate(0 12.287)">
                  <path id="Path_33254" data-name="Path 33254" d="M77.329,52.366s-1.768-4.392-3.7-3.848-1.217,6.479.625,7.7a2.1,2.1,0,0,0,3-.462Z" transform="translate(-72.485 -48.471)" fill="#ad6359"/>
                  <path id="Path_33255" data-name="Path 33255" d="M74.516,51.04s-.048.034-.02.054a5.3,5.3,0,0,1,1.924,3.855,1.157,1.157,0,0,0-1.618-.7.044.044,0,0,0,.02.082,1.287,1.287,0,0,1,1.285.761,6.006,6.006,0,0,1,.4,1.271c.034.143.279.129.265-.027V56.3c.456-1.788-.36-4.63-2.25-5.262Z" transform="translate(-73.126 -49.294)" fill="#263238"/>
                </g>
              </g>
            </g>
            <g id="Group_1748" data-name="Group 1748" transform="translate(22.143 19.132)">
              <rect id="Rectangle_3120" data-name="Rectangle 3120" width="29.88" height="29.88" transform="translate(66.774 47.763) rotate(151.46)" fill="#0091ff"/>
              <rect id="Rectangle_3121" data-name="Rectangle 3121" width="29.88" height="29.88" transform="translate(81.047 74.013) rotate(151.46)" fill="#0091ff"/>
              <rect id="Rectangle_3122" data-name="Rectangle 3122" width="29.88" height="29.88" transform="translate(93.027 33.496) rotate(151.46)" fill="#0091ff"/>
              <rect id="Rectangle_3123" data-name="Rectangle 3123" width="29.88" height="29.88" transform="translate(40.524 62.043) rotate(151.46)" fill="#0091ff"/>
              <g id="Group_1746" data-name="Group 1746" transform="translate(78.751)">
                <rect id="Rectangle_3124" data-name="Rectangle 3124" width="15.161" height="29.88" transform="translate(27.594 26.249) rotate(151.46)" fill="#0091ff"/>
                <rect id="Rectangle_3125" data-name="Rectangle 3125" width="15.161" height="29.88" transform="translate(27.594 26.249) rotate(151.46)" opacity="0.1"/>
              </g>
              <g id="Group_1747" data-name="Group 1747" transform="translate(66.765 40.527)">
                <rect id="Rectangle_3126" data-name="Rectangle 3126" width="15.161" height="29.88" transform="translate(27.594 26.249) rotate(151.46)" fill="#0091ff"/>
                <rect id="Rectangle_3127" data-name="Rectangle 3127" width="15.161" height="29.88" transform="translate(27.594 26.249) rotate(151.46)" opacity="0.1"/>
              </g>
              <path id="Path_33256" data-name="Path 33256" d="M113.91,122.069c-1.319-2.114-2.57-4.27-3.807-6.431s-2.447-4.338-3.644-6.52-2.366-4.385-3.494-6.6l-1.693-3.331c-.544-1.122-1.108-2.23-1.632-3.365.666,1.054,1.292,2.135,1.938,3.2l1.87,3.236c1.244,2.155,2.447,4.337,3.644,6.52s2.366,4.385,3.494,6.6S112.856,119.805,113.91,122.069Z" transform="translate(-73.375 -60.013)" opacity="0.1"/>
              <path id="Path_33257" data-name="Path 33257" d="M152.517,101.069c-1.319-2.114-2.57-4.27-3.807-6.431s-2.448-4.338-3.644-6.52-2.366-4.385-3.494-6.6l-1.7-3.331c-.544-1.122-1.108-2.23-1.632-3.365.666,1.054,1.292,2.135,1.938,3.2l1.87,3.236c1.244,2.155,2.447,4.338,3.644,6.52s2.366,4.385,3.494,6.6,2.271,4.433,3.324,6.7Z" transform="translate(-85.732 -53.29)" opacity="0.1"/>
              <path id="Path_33258" data-name="Path 33258" d="M120.61,127.68c2.114-1.319,4.27-2.57,6.431-3.807s4.338-2.447,6.52-3.644,4.385-2.366,6.6-3.494l3.331-1.693c1.122-.544,2.23-1.108,3.365-1.632-1.054.666-2.135,1.292-3.2,1.938l-3.236,1.87c-2.155,1.244-4.337,2.447-6.52,3.644s-4.385,2.366-6.6,3.494S122.874,126.626,120.61,127.68Z" transform="translate(-80.088 -65.645)" opacity="0.1"/>
            </g>
            <g id="Group_1756" data-name="Group 1756" transform="translate(0 42.579)">
              <g id="Group_1753" data-name="Group 1753" transform="translate(0.5 0.397)">
                <path id="Path_33259" data-name="Path 33259" d="M49.335,82.008c-7.356,8.308-24.93,39.554-18.941,45.007,6.03,5.493,38.181-2.957,47.169-7.54,2.672-1.36-8.063-17.962-11.258-18.275-2.658-.258-16.038,6.3-16.446,5.527-.469-.87,1.509-7.424,4.46-19.274,3.392-13.665-1.727-9.117-4.977-5.452Z" transform="translate(-29.171 -78.225)" fill="#ad6359"/>
                <g id="Group_1752" data-name="Group 1752" transform="translate(33.129 16.864)">
                  <g id="Group_1751" data-name="Group 1751">
                    <path id="Path_33260" data-name="Path 33260" d="M77.9,110.141a67.633,67.633,0,0,1,14.155-6.16c4.752-1.285,15.4-2.917,25.9,7.349,2.488,2.434,4.31,7.676-1.2,5.174-3.916-1.774-5.86-4.086-8.328-4.7,0,0,1.53,6.935-1.013,9.334a63.975,63.975,0,0,1-7.077,5.8,13.262,13.262,0,0,1-1.2-1.231s-2.583,2.019-7.553,1.679L77.9,110.135Z" transform="translate(-77.9 -103.03)" fill="#ad6359"/>
                    <g id="Group_1750" data-name="Group 1750" transform="translate(18.154 0.455)">
                      <path id="Path_33261" data-name="Path 33261" d="M105.328,103.7c2.318,1.129,7.193,3.61,10.47,7.023,3.644,3.794,9.64,12.081,6.812,14.739-2.074,1.951-4.643-1.013-4.643-1.013s1.754,3.95-.5,5.3c-2.06,1.231-3.909-1.176-3.909-1.176s.653,2.577-1.557,3.386c-2.658.972-3.59-4.6-7.132-5.942-.8-.3.462-22.32.462-22.32Z" transform="translate(-104.602 -103.7)" fill="#ad6359"/>
                      <g id="Group_1749" data-name="Group 1749" transform="translate(2.787 10.201)">
                        <path id="Path_33262" data-name="Path 33262" d="M114.211,118.708a20.96,20.96,0,0,1,6.853,10.443c.027.1-.041.184-.082.088a51.621,51.621,0,0,0-6.805-10.5C114.157,118.722,114.191,118.695,114.211,118.708Z" transform="translate(-110.453 -118.705)" fill="#263238"/>
                        <path id="Path_33263" data-name="Path 33263" d="M108.741,124.278a23.551,23.551,0,0,1,6.221,10.837c.02.109-.048.177-.088.082a55.349,55.349,0,0,0-6.166-10.885c-.02-.02.02-.048.041-.034Z" transform="translate(-108.702 -120.488)" fill="#263238"/>
                      </g>
                    </g>
                  </g>
                  <path id="Path_33264" data-name="Path 33264" d="M122.765,115.863a17.656,17.656,0,0,1,5.425,2.794A28.557,28.557,0,0,0,131,120.33c.884.449,2.2,1.129,3.107.367a1.756,1.756,0,0,0,.347-1.761,8.618,8.618,0,0,0-1.244-2.407c-.02-.027.027-.061.048-.034a12.517,12.517,0,0,1,1.346,2.135,2.883,2.883,0,0,1,.238,1.666c-.286,1.19-1.672,1.38-2.672,1.081a8.768,8.768,0,0,1-1.706-.775c-.53-.286-1.04-.591-1.55-.918-1.04-.659-2.033-1.38-3.066-2.053a28.191,28.191,0,0,0-3.114-1.706c-.041-.02-.014-.082.027-.075Z" transform="translate(-92.246 -107.134)" fill="#263238"/>
                  <path id="Path_33265" data-name="Path 33265" d="M127.458,123.3a66,66,0,0,0-4.732-7.37.029.029,0,1,1,.041-.041,34.79,34.79,0,0,1,5.174,7.009,11.681,11.681,0,0,1,1.448,4.487,2.474,2.474,0,0,1-1.958,2.828,2.927,2.927,0,0,1-1.917-.258,5.789,5.789,0,0,1-1.774-1.577c-.027-.027.014-.075.041-.041a4.15,4.15,0,0,0,3.325,1.509,2.058,2.058,0,0,0,1.367-.782,2.632,2.632,0,0,0,.313-1.815,12.223,12.223,0,0,0-1.333-3.93Z" transform="translate(-92.248 -107.143)" fill="#263238"/>
                </g>
              </g>
              <g id="Group_1755" data-name="Group 1755" transform="translate(0 0)">
                <path id="Path_33266" data-name="Path 33266" d="M62.065,102.013l10.953,21.538S32.7,133.742,29.01,126.774s11.326-35.02,18.213-43.259c7.975-9.545,9.11-6.4,7.519,1.91-1.666,8.7-5,21.32-5,21.32l12.319-4.739Z" transform="translate(-28.436 -77.64)" fill="#455a64"/>
                <g id="Group_1754" data-name="Group 1754" transform="translate(9.112 10.783)">
                  <path id="Path_33267" data-name="Path 33267" d="M41.86,125.935a46.761,46.761,0,0,1,5.82-3.63,45.809,45.809,0,0,1,6.221-2.692c1.217-.435,2.447-.816,3.678-1.2.041-.014.054.048.02.061a58.562,58.562,0,0,0-6.289,2.645q-3.059,1.458-6.058,3.032c-1.135.591-2.237,1.237-3.345,1.87-.054.027-.1-.041-.048-.082Z" transform="translate(-41.839 -101.474)" fill="#263238"/>
                  <path id="Path_33268" data-name="Path 33268" d="M71.816,106.948c-.211.068-11.524,4.147-11.9,4.351.041-.19,2.706-10.361,2.991-11.354.027-.1.054-.2.082-.3.2-.449.4-.891.585-1.346.238-.585.469-1.169.7-1.754.007-.02-.014-.034-.027-.014-.258.571-.51,1.142-.768,1.713-.116.265-.224.53-.333.8.184-.7.36-1.407.537-2.114.286-1.129.53-2.264.775-3.4a.028.028,0,0,0-.054-.014c-.564,1.978-1.183,3.943-1.754,5.922s-3.522,12.652-3.5,12.645c.02.02,12.469-4.854,12.713-4.97.1-.048.054-.2-.054-.17Z" transform="translate(-47.381 -93.501)" fill="#263238"/>
                  <path id="Path_33269" data-name="Path 33269" d="M76.562,129.017c-1.2-2.407-2.393-4.82-3.692-7.179-.734-1.339-1.468-2.685-2.216-4.018-.027-.048-.116-.007-.1.048,1.115,2.461,2.237,4.929,3.467,7.336s2.42,4.807,3.678,7.186c.714,1.353,1.462,2.685,2.257,3.991.014.027.061,0,.048-.02-1.033-2.5-2.237-4.915-3.454-7.342Z" transform="translate(-51.032 -101.28)" fill="#263238"/>
                </g>
              </g>
            </g>
          </g>
        </g>
      </g>
      <g id="g" transform="translate(198.254 1.938)">
        <g id="Group_1763" data-name="Group 1763">
          <g id="Group_1761" data-name="Group 1761" transform="translate(9.415 11.229)">
            <path id="Path_33270" data-name="Path 33270" d="M348.967,51.132c-6.649,12.666-16.106,11.83-18.893,14.814a66.952,66.952,0,0,0-4.378,6.1l-13.856-5.33a64.064,64.064,0,0,0,.836-7.465c-.061-4.086-7.648-9.8-4.093-23.659,2.332-9.1,14.175-20.348,28.84-14.705s15.915,21.912,11.551,30.24Z" transform="translate(-306.162 -19.367)" fill="#0091ff"/>
            <g id="Group_1759" data-name="Group 1759" transform="translate(8.846 25.993)">
              <line id="Line_194" data-name="Line 194" y1="23.618" x2="4.365" fill="none" stroke="#fff" stroke-miterlimit="10" stroke-width="1"/>
              <line id="Line_195" data-name="Line 195" y1="20.464" x2="12.591" transform="translate(6.812 5.779)" fill="none" stroke="#fff" stroke-miterlimit="10" stroke-width="1"/>
              <path id="Path_33271" data-name="Path 33271" d="M324.855,58.721s-.843,4.63,1.108,5.378,6.261-4.977,3.7-5.962-3.325,8.4-.068,9.647,8.369-6.452,6.092-7.329-4.147,6.119-1.006,7.322c1.679.646,4.548-3.216,4.548-3.216" transform="translate(-320.463 -57.748)" fill="none" stroke="#fff" stroke-miterlimit="10" stroke-width="0.5"/>
            </g>
            <g id="Group_1760" data-name="Group 1760" transform="translate(0 46.145)">
              <rect id="Rectangle_3128" data-name="Rectangle 3128" width="18.315" height="3.583" transform="translate(4.269 0) rotate(21.04)" fill="#263238"/>
              <rect id="Rectangle_3129" data-name="Rectangle 3129" width="18.315" height="3.583" transform="translate(2.784 3.884) rotate(21.04)" fill="#263238"/>
              <rect id="Rectangle_3130" data-name="Rectangle 3130" width="18.315" height="3.583" transform="translate(1.286 7.766) rotate(21.04)" fill="#263238"/>
            </g>
          </g>
          <g id="Group_1762" data-name="Group 1762">
            <path id="Path_33272" data-name="Path 33272" d="M344.667,8.731a12.73,12.73,0,0,1,.673-5.881,12.73,12.73,0,0,1-.673,5.881Z" transform="translate(-308.573 -2.85)" fill="#263238"/>
            <path id="Path_33273" data-name="Path 33273" d="M323.162,11.8A12.671,12.671,0,0,1,320.81,6.37a12.673,12.673,0,0,1,2.352,5.432Z" transform="translate(-300.965 -3.977)" fill="#263238"/>
            <path id="Path_33274" data-name="Path 33274" d="M305.772,25.4a12.623,12.623,0,0,1-4.752-3.528,12.57,12.57,0,0,1,4.752,3.528Z" transform="translate(-294.629 -8.939)" fill="#263238"/>
            <path id="Path_33275" data-name="Path 33275" d="M297.5,45.82a12.73,12.73,0,0,1-5.881-.673,12.73,12.73,0,0,1,5.881.673Z" transform="translate(-291.62 -16.362)" fill="#263238"/>
            <path id="Path_33276" data-name="Path 33276" d="M300.582,66.62a12.672,12.672,0,0,1-5.432,2.352,12.672,12.672,0,0,1,5.432-2.352Z" transform="translate(-292.75 -23.265)" fill="#263238"/>
            <path id="Path_33277" data-name="Path 33277" d="M371.66,75.06a12.623,12.623,0,0,1,4.752,3.528,12.569,12.569,0,0,1-4.752-3.528Z" transform="translate(-317.244 -25.967)" fill="#263238"/>
            <path id="Path_33278" data-name="Path 33278" d="M379.39,55.887a12.73,12.73,0,0,1,5.881.673,12.73,12.73,0,0,1-5.881-.673Z" transform="translate(-319.719 -19.8)" fill="#263238"/>
            <path id="Path_33279" data-name="Path 33279" d="M376.53,34.392a12.672,12.672,0,0,1,5.432-2.352,12.672,12.672,0,0,1-5.432,2.352Z" transform="translate(-318.803 -12.195)" fill="#263238"/>
            <path id="Path_33280" data-name="Path 33280" d="M363.84,16.992a12.623,12.623,0,0,1,3.528-4.752,12.57,12.57,0,0,1-3.528,4.752Z" transform="translate(-314.741 -5.856)" fill="#263238"/>
          </g>
        </g>
      </g>
    </g>
  </g>
</svg>
