<svg xmlns="http://www.w3.org/2000/svg" xmlns:xlink="http://www.w3.org/1999/xlink" width="146" height="52"><defs><path id="a" d="M16.19 10.56c3.27 0 6.317 1.826 7.49 4.78.781 1.969 1.083 3.94.903 5.916H12.067c.498 1.932 1.66 3.052 3.488 3.36 1.828.308 3.58-.492 5.256-2.401l3.955 1.452c-1.826 3.347-4.574 5.021-8.246 5.021-5.507 0-9.194-4.94-8.995-9.592.2-4.652 3.167-8.252 8.664-8.536Zm-.048 3.743c-2.008 0-3.341 1.226-4 3.677h8.16c-.766-2.451-2.153-3.677-4.16-3.677Z"/></defs><g fill="#01D584" fill-rule="evenodd" transform="translate(18 10)"><path d="M92.35 0c7.873 0 14.256 6.383 14.256 14.256 0 2.922-.88 5.64-2.388 7.9l-2.808-2.822a10.337 10.337 0 0 0 1.324-5.078c0-5.735-4.65-10.384-10.384-10.384-5.735 0-10.384 4.65-10.384 10.384 0 5.735 4.649 10.384 10.384 10.384 1.43 0 2.794-.29 4.034-.813l-.145.132 2.897 2.837a14.193 14.193 0 0 1-6.786 1.716c-7.874 0-14.256-6.383-14.256-14.256S84.476 0 92.35 0Z"/><circle cx="72.814" cy="4.576" r="2.816"/><path d="M0 1.777h4.632v25.984H0zM35.475 10.044c2.894 0 4.669.54 5.326 1.62v-1.137h4.622v17.35h-4.622v-1.268c-.916 1.288-2.692 1.932-5.326 1.932-3.952 0-8.433-3.986-8.433-9.249s4.092-9.248 8.433-9.248zm.73 3.86c-2.624 0-4.751 2.364-4.751 5.28 0 2.916 2.127 5.28 4.752 5.28 2.624 0 4.752-2.364 4.752-5.28 0-2.916-2.128-5.28-4.752-5.28zm30.35-12.188v18.44c0 5.536-4.266 8.385-9.141 8.385-4.876 0-8.865-3.377-9.111-8.386-.292-5.962 3.316-10.111 8.498-10.111 2.297 0 4.063.536 5.297 1.608V1.716h4.457zM57.414 14.08c-2.576 0-4.664 2.325-4.664 5.192s2.088 5.192 4.664 5.192c2.575 0 4.664-2.325 4.664-5.192s-2.089-5.192-4.664-5.192zM70.584 10.495h4.586v17.221h-4.586zM104.126 22.065l5.122 5.146-4.868 4.725-5.224-5.119z"/><use xlink:href="#a"/></g></svg>