<svg xmlns="http://www.w3.org/2000/svg" width="146" height="52"><g fill="none" fill-rule="evenodd"><path fill="#3859A0" d="M107 33.484h1.723V30.67l2.733-.67v3.484h3v2.324h-3v6.769c0 .385.912.581 2.736.59v2.413c-3.646.226-5.469-.578-5.469-2.413v-7.359H107v-2.324Z"/><path fill="#F48C35" d="M32 29.312h3.123l3.77 12.043 4.074-12.043h2.926L40.275 45.66h-2.778z"/><circle cx="48.5" cy="31" r="1.5" fill="#F68C25"/><path fill="#F48C35" d="M47 33.565h2.569V45.66H47zM51.444 33.565h1.724V30.75l2.732-.67v3.485h3.001v2.323h-3v6.77c0 .384.912.58 2.736.59v2.412c-3.646.227-5.47-.578-5.47-2.413v-7.359h-1.723v-2.323zm9.35 0h2.807v7.767c0 .775.904 1.505 2.324 1.505s2.26-1.364 2.26-2.172v-7.1h2.87V45.66h-2.48v-1.275c-1.767 1.077-3.425 1.37-4.974.878-2.325-.737-2.807-2.585-2.807-3.705v-7.993zm20.285.638-.74 1.944c-2.69-.805-4.034-.708-4.034.291 0 1.5 5.856 2.334 4.774 6.193-.722 2.572-3.328 3.274-7.817 2.105l.799-2.105c3.073.83 4.551.607 4.436-.667-.173-1.911-5.649-2.724-4.797-6.225.568-2.334 3.028-2.846 7.379-1.536z"/><path fill="#3A5B9E" d="M82.166 29.079h3.131l3.635 12.143 4.086-12.143h3.397L90.344 45.66H87.35zM101.263 33.03c3.406 0 5.03 2.464 4.87 7.393h-7.746c.415 1.23 1.157 2.06 2.226 2.49 1.07.43 2.598.43 4.586 0l.575 2.112c-1.833.803-3.77 1.015-5.814.635-1.108-.206-3.106-1.045-4.01-3.753-.903-2.708.204-8.877 5.313-8.877Zm-.284 2.533c-1.287 0-2.116.811-2.488 2.434h4.976c-.371-1.623-1.2-2.434-2.488-2.434Z"/><path fill="#3859A0" d="M60.5 27c1.21 0 2.373-.205 3.455-.582.626-.218 2.458.768 5.496 2.956-1.118-3.509-1.505-5.454-1.16-5.834A10.461 10.461 0 0 0 71 16.5C71 10.701 66.299 6 60.5 6S50 10.701 50 16.5 54.701 27 60.5 27Z"/><g transform="translate(54 7)"><circle cx="11.582" cy="15" r="2" stroke="#FFF" stroke-width=".5"/><circle cx="11.582" cy="15" r="1" stroke="#FFF" stroke-width=".5"/><path stroke="#FFF" stroke-linecap="round" stroke-width=".8" d="M0 6.48c0 2.696.802 4.297 2.407 4.802 1.605.505 3.212-.36 4.82-2.594"/><path stroke="#FFF" stroke-width=".8" d="M2.407 11.282C1.771 13.094 2.29 14.667 3.961 16c1.673 1.333 3.663 1.437 5.973.311"/><path stroke="#FFF" stroke-linecap="round" stroke-width=".5" d="M.099 5.355c.42-1.28.849-2.095 1.289-2.447.44-.351 1.241-.496 2.404-.433m2.87 1.09c.9.516 1.415 1.07 1.545 1.662.13.592-.031 1.43-.481 2.512"/><ellipse cx="3.7" cy="2.2" fill="#FFF" rx="1" ry="1.2" transform="rotate(11 3.7 2.2)"/><ellipse cx="6.282" cy="3.3" fill="#FFF" rx="1" ry="1.3" transform="rotate(11 6.282 3.3)"/></g><path fill="#F68C25" d="M81.5 27C87.299 27 92 22.299 92 16.5S87.299 6 81.5 6 71 10.701 71 16.5c0 2.764 1.068 5.278 2.813 7.153.411.442.044 2.349-1.102 5.721 3.121-2.112 4.956-3.079 5.503-2.898A10.49 10.49 0 0 0 81.5 27Z"/><g fill="#FFF" transform="translate(74 10)"><ellipse cx="11.644" cy="6.252" rx="1.5" ry="2" transform="rotate(30 11.644 6.252)"/><ellipse cx="9.5" cy="2.97" rx="1.5" ry="2" transform="rotate(20 9.5 2.97)"/><ellipse cx="2.5" cy="5.97" rx="1.5" ry="2" transform="rotate(-27 2.5 5.97)"/><path d="M7.126 6.014c-1.142 0-1.91.641-2.301 1.924-1.638.854-2.206 1.834-1.703 2.94.502 1.106 1.837 1.454 4.004 1.044 2.23.493 3.646.145 4.248-1.044.603-1.19.037-2.17-1.696-2.94-.559-1.283-1.41-1.924-2.552-1.924Z"/><ellipse cx="5.621" cy="2.955" rx="1.5" ry="2" transform="rotate(-14 5.621 2.955)"/></g></g></svg>