<?xml version="1.0" encoding="UTF-8"?><svg id="Layer_2" xmlns="http://www.w3.org/2000/svg" viewBox="0 0 48 48"><defs><style>.cls-1{fill:none;}.cls-2{fill:#b3b3b3;}</style></defs><g id="Layer_1-2"><g><rect class="cls-1" width="48" height="48"/><path class="cls-2" d="M42.52,3.12c-6.17,0-12.34,0-18.51,0s-12.38,0-18.56,0c-2.65,0-4.22,1.56-4.22,4.2,0,11.12,0,22.23,0,33.35,0,2.64,1.57,4.2,4.23,4.2,12.36,0,24.71,0,37.07,0,2.69,0,4.25-1.55,4.25-4.23,0-11.1,0-22.19,0-33.29,0-2.68-1.56-4.23-4.25-4.23ZM16.39,41.04H5.05V6.97h11.34V41.04Zm26.55,.01H20.25V6.96h22.68V41.05Zm-15.13-18.98h11.34v-3.72h-11.34v3.72Zm7.53-11.32h-11.31v3.73h11.31v-3.73Zm-11.3,26.48h11.31v-3.73h-11.31v3.73Zm7.59-7.58h7.51v-3.73h-7.51v3.73ZM12.59,18.34h-3.72v3.74h3.72v-3.74Zm0,7.58h-3.73v3.73h3.73v-3.73Zm0-15.15h-3.72v3.72h3.72v-3.72Zm-3.46,26.49c1.14,.02,2.28,.01,3.47,.01v-3.76h-3.77c0,1.18,0,2.32,.01,3.46,0,.1,.19,.28,.29,.29Z"/></g></g></svg>