<?xml version="1.0" encoding="UTF-8"?><svg id="Layer_2" xmlns="http://www.w3.org/2000/svg" viewBox="0 0 40 40"><defs><style>.cls-1{fill:#0091ff;}.cls-2{fill:none;}</style></defs><g id="Layer_1-2"><g><rect class="cls-2" width="40" height="40"/><path class="cls-1" d="M38.38,3.53c-.62-.94-1.58-1.35-2.7-1.39-.07,0-.15,0-.22,0-10.3,0-20.61,0-30.91,0-1.47,0-2.61,.58-3.24,1.93-.22,.47-.33,1.02-.33,1.54-.02,7.35-.02,14.7-.01,22.06,0,2.05,1.45,3.48,3.5,3.49,3.03,0,6.05,0,9.08,0h.45c-.11,.35-.22,.68-.33,1-.34,1.02-.7,2.04-1.01,3.07-.1,.32-.25,.41-.57,.4-1.02-.02-2.03-.01-3.05,0-.78,0-1.3,.45-1.29,1.12,0,.66,.51,1.11,1.27,1.11,7.34,0,14.68,0,22.02,0,.75,0,1.26-.46,1.26-1.12,0-.66-.51-1.11-1.27-1.11-1.05,0-2.11,0-3.16,0-.25,0-.37-.06-.45-.31-.42-1.3-.86-2.59-1.29-3.88-.03-.08-.04-.16-.08-.28h.42c3.03,0,6.05,0,9.08,0,1.44,0,2.53-.62,3.18-1.92,.16-.33,.23-.7,.34-1.05V5.12c-.22-.53-.36-1.12-.67-1.59ZM14.86,35.6c.48-1.44,.95-2.86,1.43-4.27,.03-.08,.18-.16,.28-.16,2.28,0,4.56,0,6.84,0,.1,0,.27,.09,.3,.18,.48,1.4,.95,2.81,1.43,4.25H14.86Zm21.92-7.56c-.06,.5-.5,.85-1.01,.89-.12,.01-.25,0-.37,0-10.26,0-20.53,0-30.79,0-1.04,0-1.42-.39-1.42-1.44v-.78H36.79c0,.45,.04,.89-.01,1.33ZM12.97,17.9c-.28-.28-.57-.55-.83-.8,.55-.55,1.06-1.06,1.61-1.6,.27,.27,.56,.57,.86,.87,.5,.49,.91,.53,1.55,.24,.59-.27,1.2-.53,1.81-.76,.65-.24,.92-.57,.93-1.26,0-.38,0-.77,0-1.15,0-.02,0-.05,.02-.1h2.21c0,.42,0,.83,0,1.25,0,.69,.27,1.02,.93,1.26,.61,.23,1.22,.48,1.81,.76,.63,.29,1.05,.25,1.55-.24,.29-.29,.57-.58,.82-.84,.54,.54,1.06,1.05,1.61,1.61-.25,.24-.56,.53-.86,.82-.48,.49-.53,.9-.24,1.52,.28,.62,.54,1.25,.78,1.88,.23,.6,.58,.87,1.22,.88,.42,0,.84,0,1.29,0v2.21h-4.54c.32-2.12-.27-3.94-1.89-5.35-1.13-.98-2.46-1.4-3.95-1.32-3.09,.17-5.8,3.1-5.14,6.66h-4.52v-2.21c.38,0,.77,0,1.16,0,.8,0,1.12-.26,1.38-1.02,.19-.56,.43-1.11,.68-1.64,.35-.71,.31-1.11-.25-1.67Zm10.27,6.28c-.05,.23-.15,.29-.37,.29-.95-.01-1.91,0-2.86,0s-1.91,0-2.86,0c-.22,0-.32-.06-.38-.29-.42-1.57,.45-3.32,1.97-3.93,1.57-.62,3.38,0,4.17,1.45,.43,.78,.55,1.6,.33,2.47Zm13.58-.13v.39h-4.54v-2.8c0-.16,0-.32,0-.48-.02-.7-.47-1.15-1.18-1.16-.45,0-.89-.02-1.34,0-.26,.01-.37-.09-.46-.32-.26-.65-.27-.64,.24-1.15,.25-.25,.5-.48,.73-.74,.42-.46,.45-1.07,.02-1.51-1.06-1.09-2.14-2.17-3.24-3.23-.44-.43-1.06-.39-1.51,.03-.34,.32-.68,.66-1,1-.15,.16-.29,.22-.51,.12-.67-.29-.68-.28-.68-1.03,0-.33,0-.67,0-1-.03-.62-.47-1.09-1.09-1.09-1.5-.01-3-.01-4.5,0-.62,0-1.07,.47-1.09,1.09-.02,.48-.02,.97,0,1.45,0,.22-.07,.33-.27,.41-.68,.28-.68,.29-1.21-.24-.24-.24-.47-.48-.71-.71-.47-.43-1.09-.45-1.54,0-1.07,1.05-2.14,2.11-3.18,3.18-.46,.47-.43,1.09,.02,1.57,.31,.33,.64,.66,.98,.97,.19,.17,.21,.32,.11,.55-.28,.65-.27,.65-.97,.65-.27,0-.55,0-.82,0-.9,0-1.33,.42-1.33,1.31,0,.92,0,1.84,0,2.75v.38H3.19v-.39c0-6.1,0-12.2,0-18.3,0-.97,.4-1.38,1.38-1.38,10.29,0,20.58,0,30.88,0,.97,0,1.38,.4,1.38,1.38,0,6.1,0,12.2,0,18.3ZM31.15,6.61c-1.83,.01-3.34,1.53-3.33,3.35,0,1.84,1.56,3.37,3.38,3.34,1.84-.03,3.34-1.56,3.31-3.37-.02-1.83-1.55-3.34-3.36-3.32Zm.02,4.46c-.61,0-1.12-.5-1.12-1.1,0-.61,.5-1.12,1.1-1.12,.61,0,1.12,.5,1.12,1.1,0,.61-.5,1.12-1.1,1.12Z"/></g></g></svg>