<?xml version="1.0" encoding="UTF-8"?><svg id="Layer_2" xmlns="http://www.w3.org/2000/svg" viewBox="0 0 40 40"><defs><style>.cls-1{fill:#0091ff;}.cls-2{fill:none;}</style></defs><g id="Layer_1-2"><g><rect class="cls-2" width="40" height="40"/><g><rect class="cls-1" x="13.14" y="8.98" width="9.46" height="2.36"/><rect class="cls-1" x="16.39" y="12.45" width="9.46" height="2.36"/><rect class="cls-1" x="13.14" y="15.92" width="9.46" height="2.36"/><rect class="cls-1" x="16.39" y="19.4" width="9.46" height="2.36"/><rect class="cls-1" x="13.14" y="22.87" width="9.46" height="2.36"/><path class="cls-1" d="M2.94,29.47h14.19v4.09h-5.39v2.36H28.43v-2.36h-5.39v-4.09h14.19c.98,0,1.77-.8,1.77-1.77V6.62c0-.98-.8-1.77-1.77-1.77H2.94c-.98,0-1.77,.8-1.77,1.77V27.7c0,.98,.8,1.77,1.77,1.77ZM3.53,7.21H36.64V27.11H3.53V7.21Z"/></g></g></g></svg>