<svg xmlns="http://www.w3.org/2000/svg" viewBox="0 0 28 28"><defs><style>.cls-1{fill:none;}.cls-2{fill:#0091ff;}</style></defs><g id="Layer_2" data-name="Layer 2"><g id="Layer_1-2" data-name="Layer 1"><rect class="cls-1" width="28" height="28"/><path class="cls-2" d="M13.52,22.79c0-.09,0-.18,0-.29H3.9c-.48,0-.55-.07-.55-.55V3.67c0-.46.07-.54.53-.54H17.51c.46,0,.55.09.55.55V5.93h2.48a.43.43,0,0,0,0-.11c0-1.15,0-2.31,0-3.47A1.62,1.62,0,0,0,18.79.69H2.62a2,2,0,0,0-.84.18A1.64,1.64,0,0,0,.84,2.5V25.23a1.75,1.75,0,0,0,.42,1.2A1.89,1.89,0,0,0,2.38,27H13.9a3.92,3.92,0,0,1-.38-1.82C13.54,24.39,13.53,23.59,13.52,22.79Zm-2.82,3a1,1,0,0,1-1-1,1,1,0,1,1,1,1ZM25.28,7.7c-2.76,0-5.52,0-8.28,0a2.83,2.83,0,0,0-.58,0,1.49,1.49,0,0,0-1.14,1.57V25.59a1.52,1.52,0,0,0,.35.86,1.69,1.69,0,0,0,1,.55h9.1A1.57,1.57,0,0,0,27,26.14a3.16,3.16,0,0,0,.16-.43V9A1.65,1.65,0,0,0,25.28,7.7ZM21.2,26.13a.94.94,0,0,1-.93-1,1,1,0,1,1,.93,1Zm4.28-3.06c0,.45-.08.52-.53.52H17.47c-.44,0-.52-.08-.52-.52V9.83c0-.45.07-.53.52-.53H25c.45,0,.51.06.51.51V23.07Z"/></g></g></svg>