<svg xmlns="http://www.w3.org/2000/svg" viewBox="0 0 28 28"><defs><style>.cls-1{fill:none;}.cls-2{fill:#0091ff;}</style></defs><g id="Layer_2" data-name="Layer 2"><g id="Layer_1-2" data-name="Layer 1"><rect class="cls-1" width="28" height="28"/><path class="cls-2" d="M17.79,23.5H10.21v.4a17,17,0,0,1-.07,1.89,1.79,1.79,0,0,1-1.76,1.48c-2,0-3.89,0-5.84,0A1.85,1.85,0,0,1,.73,25.44c0-1.94,0-3.87,0-5.81A1.86,1.86,0,0,1,2.57,17.8c.63,0,1.27,0,1.92,0V10.21H4.13a17,17,0,0,1-1.89-.06A1.79,1.79,0,0,1,.73,8.35c0-1.92,0-3.85,0-5.78A1.85,1.85,0,0,1,2.59.73c1.91,0,3.83,0,5.75,0A1.87,1.87,0,0,1,10.2,2.6c0,.62,0,1.25,0,1.89h7.58V4.13a17,17,0,0,1,.06-1.89A1.8,1.8,0,0,1,19.65.73c1.92,0,3.85,0,5.78,0a1.85,1.85,0,0,1,1.84,1.83c0,1.93,0,3.87,0,5.81a1.87,1.87,0,0,1-1.84,1.83c-.63,0-1.26,0-1.92,0v7.59h.36a17,17,0,0,1,1.89.06,1.79,1.79,0,0,1,1.51,1.8c0,1.92,0,3.85,0,5.77a1.85,1.85,0,0,1-1.86,1.85c-1.91,0-3.83,0-5.75,0A1.87,1.87,0,0,1,17.8,25.4C17.79,24.77,17.79,24.15,17.79,23.5ZM6.43,10.21v7.58H8.32a1.85,1.85,0,0,1,1.39.63,1.91,1.91,0,0,1,.5,1.29v1.86h7.58v-.32c0-.53,0-1.07,0-1.6a1.87,1.87,0,0,1,1.85-1.85c.64,0,1.28,0,1.92,0V10.21H19.68A1.88,1.88,0,0,1,17.8,8.32c0-.63,0-1.26,0-1.89H10.21v1.8a1.91,1.91,0,0,1-2,2ZM2.64,2.63V8.29H8.29V2.63ZM25.36,8.3V2.64H19.71V8.3ZM2.64,19.7v5.66H8.29V19.7Zm17.07,0v5.66h5.66V19.7Z"/></g></g></svg>