<svg xmlns="http://www.w3.org/2000/svg" viewBox="0 0 28 28"><defs><style>.cls-1{fill:none;}.cls-2{fill:#0091ff;}</style></defs><g id="Layer_2" data-name="Layer 2"><g id="Layer_1-2" data-name="Layer 1"><rect class="cls-1" width="28" height="28"/><path class="cls-2" d="M26.37,2.41A3,3,0,0,0,23.66.86Q13.88.85,4.1.86A3.22,3.22,0,0,0,.91,4.05q0,9.78,0,19.57a3.22,3.22,0,0,0,2.7,3.15l.14.05H24l.31-.08a3.21,3.21,0,0,0,2.48-2.64s0-.08,0-.12V3.7A8,8,0,0,0,26.37,2.41Zm-1,5.24V23.41a1.74,1.74,0,0,1-1.87,1.89H4.28a1.73,1.73,0,0,1-1.85-1.85V7.36H25.34Zm0-1.84H2.43c0-.63,0-1.24,0-1.84A1.71,1.71,0,0,1,4.06,2.38H23.43A1.74,1.74,0,0,1,25.34,4.3ZM8.08,18.7a2.36,2.36,0,0,0,.21,3,2.38,2.38,0,0,0,3.2.41c.51,1.36,1.27,2,2.42,2s1.91-.63,2.41-2a2.45,2.45,0,0,0,3.39-3.41,2.45,2.45,0,0,0,0-4.81,2.45,2.45,0,0,0-.22-3c-.79-.86-1.78-1-3.16-.39a2.46,2.46,0,0,0-4.82,0,2.47,2.47,0,0,0-3,.23A2.32,2.32,0,0,0,7.73,12a2.43,2.43,0,0,0,.38,1.87c-1.42.55-2,1.34-2,2.48A2.49,2.49,0,0,0,8.08,18.7Zm.38-3.3c.25,0,.49,0,.74,0a.77.77,0,0,0,.77-.54l.14-.33a.77.77,0,0,0-.18-.92l-.46-.47a.91.91,0,1,1,1.3-1.26l.4.42a.79.79,0,0,0,1,.21l.33-.14a.75.75,0,0,0,.5-.72c0-.22,0-.45,0-.68a.91.91,0,1,1,1.81,0c0,.21,0,.42,0,.63a.76.76,0,0,0,.5.75l.37.15a.76.76,0,0,0,.85-.15c.16-.15.31-.31.47-.47a.92.92,0,0,1,1.33,0,.9.9,0,0,1,0,1.31l-.46.47a.74.74,0,0,0-.16.87l.15.37a.79.79,0,0,0,.72.51h.71a.9.9,0,0,1,.92.91.89.89,0,0,1-.94.89h-.63a.77.77,0,0,0-.78.52l-.15.36a.74.74,0,0,0,.18.86,4.37,4.37,0,0,1,.47.49,3.45,3.45,0,0,1,.3.52,1,1,0,0,1-.52.94.85.85,0,0,1-1-.12,6.88,6.88,0,0,1-.55-.53.76.76,0,0,0-.9-.17l-.33.13a.79.79,0,0,0-.53.81c0,.23,0,.45,0,.68a.9.9,0,0,1-1.79.08c0-.26,0-.51,0-.76a.79.79,0,0,0-.55-.8l-.35-.14a.77.77,0,0,0-.87.16c-.16.15-.31.31-.46.46a.91.91,0,0,1-1.32,0,.9.9,0,0,1,0-1.31L9.94,19a.76.76,0,0,0,.17-.89c0-.12-.1-.23-.14-.35a.78.78,0,0,0-.77-.52H8.49a.9.9,0,0,1,0-1.79Zm15.06-12H11a.76.76,0,0,0-.72,1,.8.8,0,0,0,.83.49H23.55a.74.74,0,0,0,.71-.44A.75.75,0,0,0,23.52,3.4ZM5.31,3.4H4.15a.76.76,0,0,0-.74.75.75.75,0,0,0,.72.76,11.81,11.81,0,0,0,1.19,0,.76.76,0,0,0,0-1.51Zm3.37,0H7.57a.76.76,0,0,0,0,1.51H8.67a.76.76,0,0,0,.77-.77A.75.75,0,0,0,8.68,3.4Zm5.2,15.42a2.53,2.53,0,1,0-2.53-2.53A2.53,2.53,0,0,0,13.88,18.82Zm0-3.54a1,1,0,1,1-1,1A1,1,0,0,1,13.88,15.28Z"/></g></g></svg>