<svg xmlns="http://www.w3.org/2000/svg" viewBox="0 0 28 28"><defs><style>.cls-1{fill:none;}.cls-2{fill:#0091ff;}</style></defs><g id="Layer_2" data-name="Layer 2"><g id="Layer_1-2" data-name="Layer 1"><rect class="cls-1" width="28" height="28"/><path class="cls-2" d="M24.84.68Q14,.67,3.21.68A2.3,2.3,0,0,0,.85,2.57a.61.61,0,0,1,0,.12V25l.12.42A2.33,2.33,0,0,0,3.14,27H24.79a2.32,2.32,0,0,0,2.37-1.73,2.91,2.91,0,0,0,.08-.66V3.07A2.31,2.31,0,0,0,24.84.68Zm.85,8V24.53c0,.64-.29.93-.92.93H3.29c-.65,0-.94-.29-.94-.95V8.43H25.69Zm0-1.85H2.36c0-.09,0-.17,0-.25V3.12a.8.8,0,0,1,.91-.9H24.79a.8.8,0,0,1,.9.9V6.86ZM11.74,23.14a.86.86,0,0,0,.74-.62C13.65,19.77,14.84,17,16,14.26c.34-.81.69-1.61,1-2.42a.75.75,0,0,0-.25-.94.72.72,0,0,0-.93,0,1.46,1.46,0,0,0-.29.44c-1.19,2.75-2.37,5.51-3.55,8.26-.35.81-.7,1.61-1,2.42A.78.78,0,0,0,11.74,23.14Zm-4.6-3.9,1.73,1.39a.77.77,0,0,0,1.26-.46.78.78,0,0,0-.35-.8l-3-2.43L7,16.73l2.78-2.22a.78.78,0,1,0-1-1.22l-3.74,3a.78.78,0,0,0,0,1.31Zm12.1-3.95,2.06,1.65-.25.2-2.8,2.25a.78.78,0,1,0,1,1.21l3.77-3a.78.78,0,0,0,0-1.3l-3.76-3a.78.78,0,1,0-1,1.2Zm4-11.52H18.75a.78.78,0,1,0,0,1.55h4.46a.78.78,0,1,0,0-1.55Zm-18.51,0A.8.8,0,0,0,4,4.56a.79.79,0,0,0,.79.76.78.78,0,0,0,.76-.78A.79.79,0,0,0,4.73,3.77Zm3.11,0a.79.79,0,0,0-.79.76.78.78,0,1,0,.79-.76Zm3.09,0a.78.78,0,1,0,0,1.55.78.78,0,0,0,.77-.77A.79.79,0,0,0,10.93,3.77Z"/></g></g></svg>