<svg xmlns="http://www.w3.org/2000/svg" viewBox="0 0 28 28"><defs><style>.cls-1{fill:none;}.cls-2{fill:#0091ff;}</style></defs><g id="Layer_2" data-name="Layer 2"><g id="Layer_1-2" data-name="Layer 1"><rect class="cls-1" width="28" height="28"/><path class="cls-2" d="M27.1,3a2.35,2.35,0,0,0-2.12-1H3a2.65,2.65,0,0,0-1.68.49A2.45,2.45,0,0,0,.38,4.6V18.76a2.38,2.38,0,0,0,1.84,2.4,3.64,3.64,0,0,0,.81.07h7.58v2.84H8.41a.8.8,0,0,0-.79.78.83.83,0,0,0,.74.81H19.6a.81.81,0,0,0,.75-.81.8.8,0,0,0-.79-.78H17.37V21.26l.33,0H25a2.56,2.56,0,0,0,1.74-.58,2.38,2.38,0,0,0,.8-1.38.78.78,0,0,1,.05-.14v-15A6.06,6.06,0,0,0,27.1,3Zm-11.37,21H12.24V21.25h3.49ZM26,19a.73.73,0,0,1-.7.68H3a1.66,1.66,0,0,1-.59-.1A.66.66,0,0,1,2,18.93c0-.73,0-1.46,0-2.22H26C26,17.47,26,18.21,26,19Zm0-4.17v.31H2V4.65c0-.73.27-1,1-1H25c.73,0,1,.28,1,1ZM22.66,6.86H18.44l-.3,0c0-.29,0-.56,0-.82a.71.71,0,0,0-.64-.7,9.52,9.52,0,0,0-1.51,0,.73.73,0,0,0-.64.81.78.78,0,0,0,.71.74h.49v3.79a.83.83,0,0,0,.95,1h3.37a1,1,0,0,0,.95-.56c.53-1,1.08-1.91,1.62-2.86C23.86,7.46,23.52,6.86,22.66,6.86ZM20.61,10a.24.24,0,0,1-.13.07H18.16V8.47h3.3C21.16,9,20.89,9.47,20.61,10Zm-7.92,1.23H5.2l-.19,0a.77.77,0,0,0-.66.69.79.79,0,0,0,.89.88h7.12a4.61,4.61,0,0,0,.53,0,.8.8,0,0,0-.2-1.58Zm.05-5.08c-1.26,0-2.51,0-3.77,0H6.34c-.42,0-.84,0-1.25,0a.77.77,0,0,0-.73.66.76.76,0,0,0,.47.86,1.61,1.61,0,0,0,.49.07h7.26a1.67,1.67,0,0,0,.39,0,.73.73,0,0,0,.53-.45A.79.79,0,0,0,12.74,6.11ZM13,8.69a1.46,1.46,0,0,0-.42,0H5.19a.79.79,0,0,0-.82,1,.81.81,0,0,0,.88.61h7.41l.27,0A.79.79,0,0,0,13,8.69ZM20.06,12a.84.84,0,0,0-.86.82.85.85,0,1,0,.86-.82Zm-2.24,0a.84.84,0,1,0,.83.82A.84.84,0,0,0,17.82,12Zm-3.31,5.53a4.18,4.18,0,0,0-1.06,0,.73.73,0,0,0-.59.84.77.77,0,0,0,.74.7h.77a.77.77,0,0,0,.75-.71A.75.75,0,0,0,14.51,17.48Z"/></g></g></svg>