<svg xmlns="http://www.w3.org/2000/svg" viewBox="0 0 135 135"><defs><style>.cls-1{fill:none;}.cls-2{fill:#0091ff;}</style></defs><g id="Layer_2" data-name="Layer 2"><g id="Layer_1-2" data-name="Layer 1"><rect class="cls-1" width="135" height="135"/><path class="cls-2" d="M56.88,80.15c-4.87-1.72-6.6-4.2-6.6-9.31s0-10,0-15c0-5.2,3.42-8.64,8.59-8.65h18c5.18,0,8.59,3.44,8.6,8.64,0,5,0,10.08,0,15.12s-1.79,7.49-6.6,9.18v1.44q0,9.82,0,19.66c0,4.62-2.94,7.55-7.56,7.56-2.38,0-4.77,0-7.15,0a7,7,0,0,1-7.28-7.28c0-6.6,0-13.2,0-19.8Zm13.2,24.17c3.49.3,4.4-.53,4.4-3.83V78.64c0-2,.69-2.74,2.67-2.83a3.75,3.75,0,0,0,3.92-4q0-8.1,0-16.22a3.7,3.7,0,0,0-4-4q-9.21,0-18.42,0a3.71,3.71,0,0,0-4,3.94q0,8.18,0,16.36a3.73,3.73,0,0,0,3.76,3.9c2.2.12,2.83.76,2.83,2.94v22c0,3.07,1.23,4.07,4.4,3.48V78.43c0-1.62.86-2.6,2.19-2.61s2.2,1,2.21,2.59q0,9.42,0,18.83Z"/><path class="cls-2" d="M32.42,30.58c-7.77,7.72-18.31,6.81-24.61,1.26A17.59,17.59,0,0,1,27,2.75a17.12,17.12,0,0,1,9.12,10.48A17.46,17.46,0,0,1,34.89,27L50.18,37.84l.78.56c1.55,1.13,1.91,2.27,1.1,3.44S50,43.09,48.46,42l-7.71-5.51ZM19.57,5.4a13.2,13.2,0,1,0,13.1,13.3A13.22,13.22,0,0,0,19.57,5.4Z"/><path class="cls-2" d="M100.82,107l-7.13-5.08c-3-2.1-5.9-4.19-8.84-6.3-1.4-1-1.77-2.25-1-3.36s2.09-1.22,3.49-.23l15.79,11.22s.08,0,.27.11c4.43-4.35,9.76-6.35,16-5.28a17.19,17.19,0,0,1,10.37,6,17.59,17.59,0,0,1-22.35,26.52C100.67,126.65,95.9,117.17,100.82,107Zm2.27,8.45a13.2,13.2,0,1,0,13.14-13.25A13.23,13.23,0,0,0,103.09,115.47Z"/><path class="cls-2" d="M103.3,30.6l-15.5,11a14.49,14.49,0,0,1-1.25.85,1.93,1.93,0,0,1-2.68-.58,2,2,0,0,1,.1-2.76A5.49,5.49,0,0,1,85,38.31L100.85,27a17.62,17.62,0,0,1-.6-15.4,17.05,17.05,0,0,1,8.48-8.82A17.58,17.58,0,0,1,128.31,31.5C122.57,36.92,111.75,38.85,103.3,30.6Zm-.21-12A13.2,13.2,0,1,0,116.26,5.4,13.22,13.22,0,0,0,103.09,18.63Z"/><path class="cls-2" d="M32.45,103.43,48.62,91.91a2.14,2.14,0,0,1,3.15.3,2.18,2.18,0,0,1-.53,3.14c-.24.2-.51.38-.77.56L36.16,106.13c-.4.29-.8.6-1.18.9,4.9,10.65-.69,19.89-7.39,23.31A17.19,17.19,0,0,1,8,102.52C14,96.92,24.53,95.58,32.45,103.43ZM6.27,115.38a13.2,13.2,0,1,0,13.24-13.16A13.24,13.24,0,0,0,6.27,115.38Z"/><path class="cls-2" d="M37,69.21c-2,11.32-11.48,16.2-19.3,15.3a17.59,17.59,0,0,1,0-35c7.62-.86,17.21,3.76,19.3,15.31,2,0,4.06,0,6.11,0,1.74,0,2.74.82,2.75,2.2s-1,2.19-2.74,2.2C41.11,69.22,39.1,69.21,37,69.21ZM19.55,53.81A13.2,13.2,0,1,0,32.67,67.08,13.24,13.24,0,0,0,19.55,53.81Z"/><path class="cls-2" d="M98.8,69.21c-2.07,0-4.08,0-6.09,0-1.81,0-2.85-.85-2.81-2.26s1-2.13,2.79-2.14c2,0,4,0,6.11,0a17.62,17.62,0,0,1,8.5-12.9,17.19,17.19,0,0,1,12.43-2.17,17.61,17.61,0,0,1-2.28,34.84C108.23,85.14,100.62,78.94,98.8,69.21Zm17.5,11A13.2,13.2,0,1,0,103.09,67,13.25,13.25,0,0,0,116.3,80.21Z"/><path class="cls-2" d="M59.08,34a8.8,8.8,0,1,1,8.79,8.84A8.82,8.82,0,0,1,59.08,34Zm8.74,4.44A4.4,4.4,0,1,0,63.49,34,4.41,4.41,0,0,0,67.82,38.4Z"/></g></g></svg>