<svg xmlns="http://www.w3.org/2000/svg" viewBox="0 0 135 135"><defs><style>.cls-1{fill:none;}.cls-2{fill:#0091ff;}</style></defs><g id="Layer_2" data-name="Layer 2"><g id="Layer_1-2" data-name="Layer 1"><rect class="cls-1" width="135" height="135"/><path class="cls-2" d="M3.25,70.67a2.74,2.74,0,0,1,2.66-1.28c4.15,0,8.31,0,12.46,0h1.42a16.83,16.83,0,0,1,3.25-8,16.63,16.63,0,0,1,14-6.66q36.7,0,73.4,0a17.21,17.21,0,0,0,4.11-.45,12.74,12.74,0,0,0-1.54-25c-1.48-.18-3-.16-4.66-.24V47.59c0,2-.59,2.6-2.65,2.6H95.11a6.43,6.43,0,0,1-.88,0,1.9,1.9,0,0,1-1.82-1.9,1.84,1.84,0,0,1,2-1.85c2.9,0,5.79,0,8.69,0h1.42V8.15H75.56V46.41H79c2.26,0,4.53,0,6.8,0a1.72,1.72,0,0,1,1.81,1.73A1.65,1.65,0,0,1,86,50.1c-4.23.09-8.47.11-12.7,0-1.26,0-1.65-1.08-1.64-2.28,0-5.72,0-11.44,0-17.16V29.2H62.21V47.59c0,2-.59,2.6-2.65,2.6H48.86a6.26,6.26,0,0,1-.75,0,1.87,1.87,0,0,1-1.8-2,1.8,1.8,0,0,1,1.94-1.73c2.9,0,5.79,0,8.69,0h1.42V8.15h-29V46.41h1.42c2.85,0,5.7,0,8.56,0a1.91,1.91,0,0,1,2.12,1.83,1.88,1.88,0,0,1-1.94,1.91c-4,.05-8.06.06-12.09,0-1.33,0-1.92-.83-1.93-2.42,0-5.68,0-11.36,0-17V29.24c-2.17-.15-4.19-.13-6.16-.47A16.53,16.53,0,0,1,6,13.07c0-1.49.63-2.37,1.78-2.43s1.93.82,2,2.37A12.74,12.74,0,0,0,22.36,25.29c1,0,2,0,3.18,0V23.73c0-5.59,0-11.18,0-16.78,0-2.13.54-2.66,2.69-2.66H59.45c2.25,0,2.76.49,2.76,2.7V25.22h9.48V23.8c0-5.64,0-11.27,0-16.91,0-2.07.53-2.6,2.6-2.6h31.35c2.16,0,2.68.51,2.69,2.65V25.2c1.73.09,3.39.11,5,.29a16.55,16.55,0,0,1,.13,32.84,25.37,25.37,0,0,1-3,.18q-36.69,0-73.4,0c-5.84,0-10,2.51-12.55,7.8a25.7,25.7,0,0,0-1,3.1H35.68c4.28,0,4.28,0,4.28,4.26V90.38h9.4V72.1c0-2.11.58-2.69,2.69-2.69H83.41c2.09,0,2.67.59,2.67,2.71V90.37h9.4V72.13c0-2.13.58-2.72,2.67-2.72h31.47c1.95,0,2.56.61,2.56,2.56v40.74c0,2-.59,2.61-2.63,2.61-4.16,0-8.31,0-12.47,0h-1.43a17,17,0,0,1-3.63,8.52A15.8,15.8,0,0,1,99.44,130Q60.72,130,22,130c-1.46,0-2.33-.75-2.3-1.91s.92-1.86,2.39-1.86H37.58q30.6,0,61.19,0a12.79,12.79,0,0,0,12.94-10.33,3.26,3.26,0,0,0,0-.56H98.58c-2.65,0-3.1-.44-3.1-3v-18h-9.4v18.33c0,2.09-.6,2.67-2.71,2.67q-5.41,0-10.83,0c-1.57,0-2.43-.71-2.4-1.94s.85-1.83,2.36-1.84c3.22,0,6.44,0,9.73,0V73.29h-29v38.25h3.9c2,0,4.11,0,6.17,0a1.86,1.86,0,0,1,2,1.81,1.91,1.91,0,0,1-2,2c-.29,0-.59,0-.88,0-3.52,0-7.05,0-10.58,0-1.84,0-2.48-.65-2.48-2.52,0-5.67,0-11.35,0-17V94.33H40v1.4c0,5.63,0,11.27,0,16.9,0,2.1-.59,2.69-2.7,2.69q-15.67,0-31.35,0a2.77,2.77,0,0,1-2.66-1.27Zm125.1,2.62h-29v38.18h29ZM7.08,111.46h29V73.27h-29Z"/><path class="cls-2" d="M90,26h8.68c1.7,0,2.34.65,2.34,2.37,0,4,0,8.07,0,12.1,0,1.67-.62,2.33-2.26,2.34q-8.74,0-17.49,0c-1.57,0-2.21-.69-2.22-2.25q0-6.18,0-12.36c0-1.54.69-2.19,2.26-2.2C84.18,26,87.07,26,90,26Zm7.15,13V29.88H82.89V39Z"/><path class="cls-2" d="M67.66,90.6c-2.85,0-5.7,0-8.56,0-1.7,0-2.39-.67-2.4-2.35,0-2.9,0-5.8,0-8.7,0-1.62.71-2.3,2.32-2.3H76.4c1.62,0,2.33.68,2.34,2.28,0,2.94,0,5.89,0,8.83a2,2,0,0,1-2.26,2.24C73.54,90.61,70.6,90.6,67.66,90.6Zm7.25-9.52H60.56v5.64H74.91Z"/><path class="cls-2" d="M67.72,107.5c-2.86,0-5.71,0-8.56,0-1.78,0-2.45-.66-2.47-2.42q0-4.29,0-8.58c0-1.7.69-2.35,2.4-2.35q8.62,0,17.25,0c1.7,0,2.38.66,2.4,2.35q0,4.35,0,8.7c0,1.6-.73,2.29-2.34,2.3C73.51,107.51,70.61,107.5,67.72,107.5ZM60.57,98v5.64H74.89V98Z"/><path class="cls-2" d="M41.31,30c1.17-1.25,2.2-2.41,3.28-3.51q2.86-2.93,5.79-5.79a1.88,1.88,0,1,1,2.7,2.6q-5.22,5.3-10.5,10.52a1.78,1.78,0,0,1-2.7,0q-2.62-2.55-5.16-5.17a1.87,1.87,0,0,1-.06-2.71,1.79,1.79,0,0,1,2.69.05C38.64,27.19,39.87,28.51,41.31,30Z"/><path class="cls-2" d="M89.94,15.41H81.4c-1.56,0-2.41-.73-2.37-2s.85-1.81,2.37-1.81q8.61,0,17.22,0c1.53,0,2.33.63,2.36,1.82s-.81,2-2.37,2Z"/><path class="cls-2" d="M90,22.74c-2.89,0-5.78,0-8.67,0-1.48,0-2.31-.7-2.31-1.89S79.86,19,81.34,19q8.67,0,17.34,0c1.47,0,2.31.71,2.31,1.89s-.83,1.88-2.31,1.89C95.79,22.75,92.9,22.74,90,22.74Z"/><path class="cls-2" d="M113.79,90.6c-3.18,0-6.37,0-9.55,0-1.72,0-2.78-1.43-2-2.7a2.54,2.54,0,0,1,1.8-1c6.5-.07,13,0,19.48,0a1.86,1.86,0,0,1,2.08,1.86,1.89,1.89,0,0,1-2,1.91C120.33,90.61,117.06,90.59,113.79,90.6Z"/><path class="cls-2" d="M113.79,97.92c-3.14,0-6.28,0-9.43,0-1.46,0-2.34-.71-2.35-1.87s.88-1.9,2.33-1.9q9.48,0,19,0c1.48,0,2.32.7,2.33,1.87s-.82,1.9-2.3,1.9C120.16,97.93,117,97.92,113.79,97.92Z"/><path class="cls-2" d="M113.93,79.47h9.43c1.47,0,2.3.71,2.28,1.9s-.84,1.87-2.22,1.87q-9.54,0-19.1,0c-1.43,0-2.33-.79-2.3-1.94s.89-1.83,2.36-1.83Z"/><path class="cls-2" d="M109.89,105.26c-1.88,0-3.77,0-5.66,0-1.36,0-2.22-.75-2.22-1.87a2,2,0,0,1,2.22-1.9q5.67,0,11.33,0a1.93,1.93,0,0,1,2.14,2c0,1.1-.83,1.79-2.14,1.8C113.67,105.27,111.78,105.26,109.89,105.26Z"/><path class="cls-2" d="M10.57,92.37V79.27c0-1.86.65-2.52,2.49-2.52q8.55,0,17.11,0c1.77,0,2.44.65,2.44,2.44q0,13.17,0,26.34c0,1.79-.66,2.45-2.43,2.45H13c-1.68,0-2.37-.69-2.37-2.37C10.56,101.2,10.57,96.78,10.57,92.37Zm11,3.4-5.55,8.36h11.1Zm0-6.8,5.52-8.36H16.06Zm7.12,10.68V85.08c-1.62,2.42-3.06,4.56-4.48,6.73a1,1,0,0,0-.12.87C25.57,95,27.08,97.19,28.72,99.65Zm-14.33-.29.23.09c1.46-2.2,3-4.38,4.36-6.61a1.39,1.39,0,0,0-.15-1.19c-1.07-1.71-2.21-3.37-3.33-5.05-.3-.45-.62-.9-1.11-1.6Z"/></g></g></svg>