<svg xmlns="http://www.w3.org/2000/svg" viewBox="0 0 28 28"><defs><style>.cls-1{fill:none;}.cls-2{fill:#0091ff;}</style></defs><g id="Layer_2" data-name="Layer 2"><g id="Layer_1-2" data-name="Layer 1"><rect class="cls-1" width="28" height="28"/><path class="cls-2" d="M24.61,1.54H3.2a2.46,2.46,0,0,0-2.6,2,.29.29,0,0,1,0,.1V20.77c0,.15.07.3.12.45A2.45,2.45,0,0,0,3.1,22.9c3.23,0,6.46,0,9.69,0h.32v1.57h-5A.78.78,0,1,0,8.07,26H19.53a1.27,1.27,0,0,0,.34,0,.78.78,0,0,0-.14-1.54h-5V22.9H15c3.21,0,6.41,0,9.62,0a2.45,2.45,0,0,0,2.62-2.61V4.16A2.46,2.46,0,0,0,24.61,1.54Zm1.06,19a.9.9,0,0,1-.83.77,2.81,2.81,0,0,1-.29,0H3.25c-.71,0-1.19-.38-1.12-1.14,0-.13,0-.26,0-.42H25.67C25.67,20.06,25.69,20.32,25.67,20.57Zm0-2.38H2.13v-14c0-.74.33-1.06,1.06-1.06H24.63a.91.91,0,0,1,1.05,1v14ZM13.89,5.12a5.63,5.63,0,1,0,5.64,5.59A5.62,5.62,0,0,0,13.89,5.12Zm-1.84,2c-.12.88-.23,1.77-.35,2.65,0,.07-.1.17-.16.17H10A3.76,3.76,0,0,1,12.05,7.14ZM9.9,11.54h1.74l.42,2.84A4.14,4.14,0,0,1,9.9,11.54Zm4,3.12a8.52,8.52,0,0,1-.64-3.11h1.28A8.52,8.52,0,0,1,13.9,14.66ZM13.27,10a7.67,7.67,0,0,1,.63-3,7.82,7.82,0,0,1,.64,3Zm4.59,0h-1.7C16,9,15.87,8.07,15.73,7.13A3.88,3.88,0,0,1,17.86,10Zm-2.12,4.43.42-2.83h1.73A4.07,4.07,0,0,1,15.74,14.38Z"/></g></g></svg>