<svg xmlns="http://www.w3.org/2000/svg" viewBox="0 0 32 32"><defs><style>.cls-1{fill:none;}.cls-2{fill:#b3b3b3;}.cls-3{fill:#0091ff;}</style></defs><g id="Layer_2" data-name="Layer 2"><g id="Layer_1-2" data-name="Layer 1"><rect class="cls-1" width="32" height="32"/><rect class="cls-1" x="0.61" y="0.61" width="30.78" height="30.78"/><path class="cls-2" d="M29.16,16.39H23.7c-.16-.67-.31-1.3-.46-2h5.93c.74,0,1-.33,1-1.08a11.62,11.62,0,0,0-3.73-8.55A11.53,11.53,0,0,0,19.4,1.62l-.25-.05h-1a1.16,1.16,0,0,0-.62,1.18c0,1.92,0,3.85,0,5.77v.34l-1.92-.4V5.36a.86.86,0,0,0-.93-.91A12.75,12.75,0,0,0,6.34,7.57,12.49,12.49,0,0,0,2,15.38,12.63,12.63,0,0,0,4.86,25.81a12.56,12.56,0,0,0,7.32,4.35c.49.1,1,.15,1.5.22l.24.05h1.69c.62-.1,1.24-.16,1.85-.29a12.52,12.52,0,0,0,5.12-2.34.86.86,0,0,0,.16-1.27c-.54-.71-1.1-1.42-1.65-2.13l-.23-.32,1.51-1.81c.49.65,1,1.3,1.51,2l.86,1.12A.85.85,0,0,0,26,25.5a10.49,10.49,0,0,0,4.11-8.14A.85.85,0,0,0,29.16,16.39ZM20.88,26.9a11.27,11.27,0,1,1-7-20.69c0,.07,0,.15,0,.22,0,.68,0,1.37,0,2C9.78,9.15,7,11.39,6,15.51a8.4,8.4,0,0,0,3.34,9.07C12.57,27,16,27,19.5,25.1Zm-6.12-2.17A7.29,7.29,0,1,1,22,17.44,7.28,7.28,0,0,1,14.76,24.73Zm7.48-12.21a9.1,9.1,0,0,0-2.81-2.75.44.44,0,0,1-.2-.29q0-3,0-6s0-.07,0-.1a10,10,0,0,1,9.23,9.34l-.29,0H22.64A.42.42,0,0,1,22.24,12.52Zm3.34,11.13-.27-.35-2-2.56a.44.44,0,0,1-.09-.43c.19-.72.35-1.45.53-2.22h4.6A8.87,8.87,0,0,1,25.58,23.65Z"/><path class="cls-3" d="M15.77,16.13a2.21,2.21,0,0,1,.08,4.4l-.32,0v.63a.77.77,0,0,1-.76.78A.76.76,0,0,1,14,21.2c0-.2,0-.4,0-.61a5.35,5.35,0,0,1-.75-.12,4.28,4.28,0,0,1-.84-.39.74.74,0,0,1-.22-1,.73.73,0,0,1,1-.26,1.82,1.82,0,0,0,1,.24c.44,0,.88,0,1.33,0a.67.67,0,0,0,.67-.48.61.61,0,0,0-.18-.73,1,1,0,0,0-.55-.19c-.5,0-1,0-1.51,0a2.23,2.23,0,0,1-1.95-3.37A2.14,2.14,0,0,1,13.7,13.2l.25,0,.07,0c0-.2,0-.41,0-.62a.76.76,0,1,1,1.51,0v.58c.4.13.78.21,1.12.36a2.76,2.76,0,0,1,.71.52.75.75,0,1,1-1,1.09,1.25,1.25,0,0,0-1-.37c-.47,0-.94,0-1.41,0a.67.67,0,0,0-.63.59.69.69,0,0,0,.43.75,1.47,1.47,0,0,0,.42.05"/></g></g></svg>