<svg xmlns="http://www.w3.org/2000/svg" viewBox="0 0 28 28"><defs><style>.cls-1{fill:none;}.cls-2{fill:#0091ff;}</style></defs><g id="Layer_2" data-name="Layer 2"><g id="Layer_1-2" data-name="Layer 1"><rect class="cls-1" width="28" height="28"/><path class="cls-2" d="M23.15.65a.93.93,0,0,1,.64,1c0,1.08,0,2.17,0,3.25a.8.8,0,0,1-.9.91H19.48a.78.78,0,1,1-.05-1.55h1.42a1.51,1.51,0,0,0-.2-.16,11.11,11.11,0,0,0-7.29-1.89,11.27,11.27,0,0,0-9.81,7A11.22,11.22,0,0,0,4,19.44a2.07,2.07,0,0,1,.23.56.73.73,0,0,1-.5.81.74.74,0,0,1-.93-.36C2.4,19.65,2,18.84,1.69,18a11,11,0,0,1-.63-3.12,1.46,1.46,0,0,0-.05-.2V13c.09-.59.15-1.18.26-1.76A13.18,13.18,0,0,1,11.92.86c.49-.08,1-.14,1.48-.21H15l.22,0a13,13,0,0,1,6.36,2.19l.66.46c0-.59,0-1.13,0-1.67a.93.93,0,0,1,.66-1Z"/><path class="cls-2" d="M5.3,27.07a.92.92,0,0,1-.65-1c0-1.09,0-2.17,0-3.26a.79.79,0,0,1,.9-.9H9a.78.78,0,0,1,.81,1,.72.72,0,0,1-.71.5H7.91a.48.48,0,0,0-.27.07c.34.2.67.42,1,.61a11.68,11.68,0,0,0,17-8A11.54,11.54,0,0,0,24.4,8.18a1.24,1.24,0,0,1-.16-.4.76.76,0,0,1,.49-.86.77.77,0,0,1,.95.38,13.22,13.22,0,0,1,1.55,4.26c.08.49.13,1,.2,1.48v1.65c0,.07,0,.13,0,.2-.09.61-.15,1.23-.27,1.83a13.22,13.22,0,0,1-10.6,10.15c-.49.08-1,.14-1.47.2h-1.6l-.23,0a13,13,0,0,1-6.74-2.47l-.27-.19c0,.59,0,1.12,0,1.65a.93.93,0,0,1-.66,1.05Z"/><path class="cls-2" d="M14.22,20.83H12.73A.77.77,0,0,1,11.9,20c0-.26,0-.52,0-.78a.23.23,0,0,0-.16-.27,2.2,2.2,0,0,1-.56-.32.41.41,0,0,0-.59,0A5.45,5.45,0,0,1,10,19a.75.75,0,0,1-1-.29c-.52-.89-1-1.78-1.54-2.68A.75.75,0,0,1,7.7,15l.69-.4a.26.26,0,0,0,.17-.3,1.94,1.94,0,0,1,0-.59.49.49,0,0,0-.34-.59,2.9,2.9,0,0,1-.54-.31.73.73,0,0,1-.27-1C7.92,10.83,8.44,9.93,9,9a.73.73,0,0,1,1-.27c.25.13.49.29.75.41a.34.34,0,0,0,.28,0,6.37,6.37,0,0,0,.72-.41.36.36,0,0,0,.13-.23c0-.27,0-.55,0-.82a.77.77,0,0,1,.8-.8c1,0,2,0,3,0a.77.77,0,0,1,.8.8c0,.26,0,.53,0,.79a.25.25,0,0,0,.17.28,2.73,2.73,0,0,1,.6.34.36.36,0,0,0,.5,0,5.88,5.88,0,0,1,.6-.35.75.75,0,0,1,1.07.28c.53.88,1,1.78,1.55,2.68a.75.75,0,0,1-.29,1c-.22.14-.45.27-.69.4a.26.26,0,0,0-.17.3,1.63,1.63,0,0,1,0,.54.53.53,0,0,0,.38.66,3.25,3.25,0,0,1,.51.3.72.72,0,0,1,.27,1c-.52.93-1.05,1.86-1.6,2.77a.72.72,0,0,1-1,.26c-.26-.13-.51-.3-.77-.42a.37.37,0,0,0-.29,0,7.24,7.24,0,0,0-.71.41.35.35,0,0,0-.14.23c0,.27,0,.55,0,.82a.78.78,0,0,1-.8.8Zm-4.3-3.59.62-.36a.78.78,0,0,1,1,.08,4.53,4.53,0,0,0,1.41.82.77.77,0,0,1,.54.77v.71H15v-.63a.85.85,0,0,1,.6-.89A9.39,9.39,0,0,0,16.9,17a.83.83,0,0,1,1-.08l.61.34.77-1.34c-.22-.12-.43-.24-.63-.37a.81.81,0,0,1-.4-.87,11.6,11.6,0,0,0,0-1.56.85.85,0,0,1,.44-.93l.59-.35-.77-1.33-.65.37a.75.75,0,0,1-.93-.09A4.47,4.47,0,0,0,15.53,10,.77.77,0,0,1,15,9.18c0-.24,0-.48,0-.72H13.45v.66a.84.84,0,0,1-.58.85,13.51,13.51,0,0,0-1.33.77.83.83,0,0,1-1,.08l-.58-.33c-.25.42-.48.81-.7,1.21a.53.53,0,0,0-.06.13l.62.36a.87.87,0,0,1,.4.88,10.55,10.55,0,0,0,0,1.59.84.84,0,0,1-.4.87l-.63.38Z"/><path class="cls-2" d="M14.22,11a2.84,2.84,0,1,1-2.83,2.83A2.84,2.84,0,0,1,14.22,11Zm0,1.54a1.31,1.31,0,0,0-1.33,1.27,1.29,1.29,0,1,0,1.33-1.27Z"/></g></g></svg>