<svg xmlns="http://www.w3.org/2000/svg" viewBox="0 0 28 28"><defs><style>.cls-1{fill:none;}.cls-2{fill:#0091ff;}</style></defs><g id="Layer_2" data-name="Layer 2"><g id="Layer_1-2" data-name="Layer 1"><rect class="cls-1" width="28" height="28"/><path class="cls-2" d="M26.62,3.12H1.49a.38.38,0,0,0-.37.38V21.06a.37.37,0,0,0,.37.37H11.78c0,.13,0,.24,0,.33s-.08.44-.15.65a3,3,0,0,1-2.87,2.07H7.6a.37.37,0,0,0-.38.37v.76A.38.38,0,0,0,7.6,26H20.88a0,0,0,0,0,0,0v-1.1a.37.37,0,0,0-.38-.37h-.87a3.43,3.43,0,0,1-2.44-.93,3,3,0,0,1-.84-1.71.38.38,0,0,1,.38-.42h9.86a.37.37,0,0,0,.38-.37V3.5A.38.38,0,0,0,26.62,3.12ZM14.84,5a.38.38,0,0,1,.38-.37H25.1a.38.38,0,0,1,.38.37V16.45a.38.38,0,0,1-.38.38H15.22a.38.38,0,0,1-.38-.38ZM2.64,5A.37.37,0,0,1,3,4.65H12.9a.37.37,0,0,1,.38.37V16.46a.38.38,0,0,1-.38.38H3a.38.38,0,0,1-.38-.38Zm12.6,19.45h-3s0,0,0,0a5.15,5.15,0,0,0,1.11-3s0,0,.07,0h1.4a0,0,0,0,1,0,0,4.59,4.59,0,0,0,.73,2.43A.37.37,0,0,1,15.24,24.47Zm10.24-5a.38.38,0,0,1-.38.38H3a.38.38,0,0,1-.38-.38v-.74A.38.38,0,0,1,3,18.39H25.1a.38.38,0,0,1,.38.38Zm-6.11-5a0,0,0,0,0,0,0V13.08a0,0,0,0,1,0,0H20.9a0,0,0,0,1,0,0v1.43a0,0,0,0,0,0,0h1.46l0-.06c0-1.8,0-3.6,0-5.4A2.25,2.25,0,0,0,18.79,7.4a2.44,2.44,0,0,0-.92,1.95c0,1.71,0,3.43,0,5.14l.05,0Zm0-5.28a.76.76,0,1,1,1.52,0v2.21a0,0,0,0,1,0,0H19.44l0-.05C19.4,10.72,19.39,10,19.4,9.26ZM7.25,14.31c.95.48,1.44.08,2.27-.24.29.29.62.65.94,1L11.52,14l-.16-.17-1-1a.33.33,0,0,1-.09-.23c0-1.14,0-2.27,0-3.4A2.27,2.27,0,0,0,7.72,6.93a2.4,2.4,0,0,0-2,2.4c0,.8,0,1.59,0,2.38A2.93,2.93,0,0,0,7.25,14.31Zm0-5.13A.74.74,0,0,1,8,8.45a.78.78,0,0,1,.76.84v1.45c0,.49,0,1,0,1.47A.77.77,0,0,1,8,13a.79.79,0,0,1-.77-.89C7.25,11.16,7.12,10.16,7.21,9.18Z"/></g></g></svg>