<svg xmlns="http://www.w3.org/2000/svg" viewBox="0 0 28 28"><defs><style>.cls-1{fill:none;}.cls-2{fill:#0091ff;}</style></defs><g id="Layer_2" data-name="Layer 2"><g id="Layer_1-2" data-name="Layer 1"><rect class="cls-1" width="28" height="28"/><path class="cls-2" d="M26.28,13.61a.92.92,0,0,0-.29,0H2a.62.62,0,0,0-.58.27v.3a.65.65,0,0,0,.61.28H26a1.12,1.12,0,0,0,.32,0,.41.41,0,0,0,0-.78ZM11.81,15.67h-1c-.43,0-.57.14-.57.58V20.1c0,.79,0,1.58,0,2.38a1.65,1.65,0,0,1-2,1.54,1.7,1.7,0,0,1-1.38-1.7c0-2,0-4.07,0-6.11,0-.39-.14-.53-.53-.54H5.4c-.49,0-.61.13-.61.61,0,2,0,3.91,0,5.87a6,6,0,0,0,0,.73,3.76,3.76,0,0,0,3.36,3.24,3.82,3.82,0,0,0,4.14-3.84V16.2C12.33,15.83,12.18,15.68,11.81,15.67ZM8.46,12.33a3.82,3.82,0,0,0,3.86-3.72c0-2.09,0-4.18,0-6.27a.43.43,0,0,0-.47-.48c-.34,0-.69,0-1,0s-.6.12-.6.59V6.08c0,.85,0,1.7,0,2.55A1.65,1.65,0,0,1,8.1,10.16,1.7,1.7,0,0,1,6.89,8.5c0-2,0-4.07,0-6.1,0-.39-.13-.54-.52-.54h-1c-.49,0-.61.12-.61.6V5.53c0,1,0,2,0,3A3.77,3.77,0,0,0,8.46,12.33Zm14.18,3.34H15.38c-.39,0-.54.15-.54.53v1c0,.42.14.56.55.56h2.24c.43,0,.55.13.56.55V23.5c0,.42-.14.55-.56.55H15.32a.42.42,0,0,0-.48.48c0,.37,0,.75,0,1.13s.15.46.47.47h7.3c.49,0,.61-.12.61-.61v-1c0-.37-.15-.51-.53-.51H20.41c-.4,0-.55-.14-.55-.54v-5.2c0-.41.14-.54.56-.54h2.23c.43,0,.57-.14.57-.57v-.94C23.22,15.81,23.08,15.67,22.64,15.67Zm-8.06-4.13c-.12.18-.22.35-.1.56a.48.48,0,0,0,.52.23h.62a.84.84,0,0,0,.87-.44c.62-.92,1.27-1.81,1.91-2.71.28-.4.56-.39.84,0,.68.94,1.35,1.89,2,2.84a.6.6,0,0,0,.59.3h.79a.51.51,0,0,0,.53-.23c.11-.22,0-.39-.13-.57l-2.87-4c-.26-.37-.26-.45,0-.81l2.88-4.05c.12-.17.22-.33.12-.54s-.31-.24-.52-.24-.53,0-.79,0a.62.62,0,0,0-.61.31c-.66.94-1.32,1.87-2,2.8-.31.44-.57.44-.89,0l-2-2.83a.54.54,0,0,0-.51-.27c-.29,0-.57,0-.86,0s-.4,0-.5.22a.49.49,0,0,0,.11.56c1,1.35,1.92,2.71,2.89,4.06.24.34.24.45,0,.79Z"/></g></g></svg>