<svg xmlns="http://www.w3.org/2000/svg" width="345" height="307" viewBox="0 0 345 307">
  <g id="Group_804" data-name="Group 804" transform="translate(-14098 -4252)">
    <rect id="Rectangle_1318" data-name="Rectangle 1318" width="345" height="307" transform="translate(14098 4252)" fill="none"/>
    <g id="Organizing_projects-rafiki" data-name="Organizing projects-rafiki" transform="translate(14042.104 4157.189)">
      <g id="freepik--Shadow--inject-35" transform="translate(56.11 364.713)">
        <ellipse id="freepik--path--inject-35" cx="167.178" cy="9.76" rx="167.178" ry="9.76" fill="#f5f5f5"/>
      </g>
      <g id="freepik--Board--inject-35" transform="translate(147.88 125.435)">
        <path id="Path_19904" data-name="Path 19904" d="M353.476,255.171H167.148a3.449,3.449,0,0,1-3.449-3.647l6.294-114.237a3.915,3.915,0,0,1,3.854-3.647H360.175a3.449,3.449,0,0,1,3.449,3.647l-6.277,114.237A3.9,3.9,0,0,1,353.476,255.171Z" transform="translate(-162.702 -128.268)" fill="#263238"/>
        <path id="Path_19905" data-name="Path 19905" d="M288.355,152.208H270.343A10.243,10.243,0,0,1,260,141.3l.181-3.328a11.33,11.33,0,0,1,11.157-10.562h18a10.252,10.252,0,0,1,10.347,10.907l-.181,3.328a11.347,11.347,0,0,1-11.149,10.562Z" transform="translate(-175.967 -127.409)" fill="#263238"/>
        <path id="Path_19906" data-name="Path 19906" d="M308.449,373.25h-5.768L286.79,130.36h5.777Z" transform="translate(-179.661 -127.816)" fill="#263238"/>
        <path id="Path_19907" data-name="Path 19907" d="M261.67,373.25h5.777l15.882-242.89h-5.768Z" transform="translate(-176.2 -127.816)" fill="#263238"/>
        <path id="Path_19908" data-name="Path 19908" d="M352.326,255.171H166a3.449,3.449,0,0,1-3.449-3.647l6.268-114.237a3.915,3.915,0,0,1,3.854-3.647H359a3.449,3.449,0,0,1,3.449,3.647l-6.277,114.237A3.9,3.9,0,0,1,352.326,255.171Z" transform="translate(-162.543 -128.268)" fill="#0091ff"/>
        <path id="Path_19909" data-name="Path 19909" d="M169.558,252.23a2.733,2.733,0,0,1-2.759-2.914l5.975-108.7a3.113,3.113,0,0,1,3.07-2.914H356.662a2.733,2.733,0,0,1,2.759,2.914l-5.975,108.7a3.113,3.113,0,0,1-3.078,2.914Z" transform="translate(-163.129 -128.827)" fill="#fff" opacity="0.94"/>
        <path id="Path_19910" data-name="Path 19910" d="M352.7,195.351h-54.45a2.319,2.319,0,0,1-2.345-2.475l2.716-49.483a.336.336,0,0,0-.328-.354.379.379,0,0,0-.371.354L295.2,192.877a2.656,2.656,0,0,1-2.587,2.475H236.038a2.319,2.319,0,0,1-2.345-2.475l2.716-49.483a.336.336,0,0,0-.328-.354.379.379,0,0,0-.371.354l-2.716,49.483a2.656,2.656,0,0,1-2.587,2.475H175.941a.371.371,0,0,0-.371.354.328.328,0,0,0,.328.345h54.424a2.328,2.328,0,0,1,2.345,2.483l-2.716,49.475a.319.319,0,0,0,.328.354.379.379,0,0,0,.371-.354l2.716-49.475a2.647,2.647,0,0,1,2.587-2.483h56.554a2.328,2.328,0,0,1,2.423,2.483l-2.716,49.475a.319.319,0,0,0,.328.354.379.379,0,0,0,.371-.354l2.716-49.475a2.647,2.647,0,0,1,2.587-2.483h54.424a.379.379,0,0,0,.371-.345.328.328,0,0,0-.31-.354Z" transform="translate(-164.338 -129.563)" fill="#fff" opacity="0.1"/>
        <path id="Path_19911" data-name="Path 19911" d="M274.362,153.44H252.5l-1.224,22.237,21.832.586Z" transform="translate(-174.769 -130.996)" fill="#263238" opacity="0.4"/>
        <path id="Path_19912" data-name="Path 19912" d="M271.8,175l-21.944-1.069a192.717,192.717,0,0,0,2.285-22.685l22.064,1.069A192.839,192.839,0,0,1,271.8,175Z" transform="translate(-174.573 -130.694)" fill="#fff"/>
        <path id="Path_19913" data-name="Path 19913" d="M305.122,170.67l-21.892,1.673.483,22.159,21.9-1.086Z" transform="translate(-179.17 -133.369)" fill="#263238" opacity="0.4"/>
        <path id="Path_19914" data-name="Path 19914" d="M304.286,192.421l-22.056.612a190.359,190.359,0,0,0,.552-22.694l22.177-.629a190.7,190.7,0,0,1-.673,22.711Z" transform="translate(-179.033 -133.237)" fill="#0091ff"/>
        <path id="Path_19915" data-name="Path 19915" d="M227.452,217.315,187.1,215.78l-3.63,35.895,40.266,2.483Z" transform="translate(-165.426 -139.584)" fill="#263238" opacity="0.4"/>
        <path id="Path_19916" data-name="Path 19916" d="M221.387,252.044,181,248.759a275.764,275.764,0,0,0,5.6-36.559l40.628,3.276A273.71,273.71,0,0,1,221.387,252.044Z" transform="translate(-165.086 -139.091)" fill="#fff"/>
        <g id="Group_722" data-name="Group 722" transform="translate(16.703 22.919)" opacity="0.3">
          <path id="Path_19917" data-name="Path 19917" d="M185.965,158.544h0a2.147,2.147,0,0,1-2.156-2.276h0A2.449,2.449,0,0,1,186.215,154h0a2.138,2.138,0,0,1,2.147,2.276h0a2.44,2.44,0,0,1-2.4,2.268Z" transform="translate(-182.175 -153.991)" fill="#263238"/>
          <path id="Path_19918" data-name="Path 19918" d="M222.843,158.543h-28a2.138,2.138,0,0,1-2.147-2.276h0a2.431,2.431,0,0,1,2.4-2.276h28.04a2.147,2.147,0,0,1,2.156,2.276h0a2.449,2.449,0,0,1-2.449,2.276Z" transform="translate(-183.4 -153.99)" fill="#263238" opacity="0.8"/>
          <path id="Path_19919" data-name="Path 19919" d="M185.335,170.053h0a2.138,2.138,0,0,1-2.156-2.276h0a2.44,2.44,0,0,1,2.431-2.276h0a2.138,2.138,0,0,1,2.147,2.276h0a2.44,2.44,0,0,1-2.423,2.276Z" transform="translate(-182.088 -155.576)" fill="#263238"/>
          <path id="Path_19920" data-name="Path 19920" d="M227.169,170.053H194.215a2.147,2.147,0,0,1-2.156-2.276h0a2.449,2.449,0,0,1,2.406-2.276h32.954a2.147,2.147,0,0,1,2.156,2.276h0A2.449,2.449,0,0,1,227.169,170.053Z" transform="translate(-183.312 -155.576)" fill="#263238" opacity="0.8"/>
          <path id="Path_19921" data-name="Path 19921" d="M184.656,181.554h0a2.13,2.13,0,0,1-2.147-2.268h0a2.432,2.432,0,0,1,2.4-2.276h0a2.138,2.138,0,0,1,2.156,2.276h0a2.44,2.44,0,0,1-2.406,2.268Z" transform="translate(-181.996 -157.161)" fill="#263238"/>
          <path id="Path_19922" data-name="Path 19922" d="M209.622,181.554H193.576a2.13,2.13,0,0,1-2.147-2.268h0a2.432,2.432,0,0,1,2.4-2.276h16.046a2.13,2.13,0,0,1,2.147,2.276h0a2.431,2.431,0,0,1-2.4,2.268Z" transform="translate(-183.225 -157.161)" fill="#263238" opacity="0.8"/>
          <path id="Path_19923" data-name="Path 19923" d="M226.852,193.063H210.806a2.138,2.138,0,0,1-2.147-2.276h0a2.44,2.44,0,0,1,2.4-2.276H227.1a2.138,2.138,0,0,1,2.147,2.276h0A2.44,2.44,0,0,1,226.852,193.063Z" transform="translate(-185.599 -158.746)" fill="#263238" opacity="0.8"/>
          <path id="Path_19924" data-name="Path 19924" d="M184.066,193.063h0a2.138,2.138,0,0,1-2.147-2.276h0a2.44,2.44,0,0,1,2.4-2.276h0a2.138,2.138,0,0,1,2.147,2.276h0A2.44,2.44,0,0,1,184.066,193.063Z" transform="translate(-181.915 -158.746)" fill="#263238"/>
          <path id="Path_19925" data-name="Path 19925" d="M200.353,193.063h-7.407a2.138,2.138,0,0,1-2.147-2.276h0a2.44,2.44,0,0,1,2.4-2.276H200.6a2.138,2.138,0,0,1,2.156,2.276h0a2.44,2.44,0,0,1-2.406,2.276Z" transform="translate(-183.138 -158.746)" fill="#263238" opacity="0.8"/>
        </g>
        <path id="Path_19926" data-name="Path 19926" d="M263.167,228.03H252.312L250.82,255.2h10.855Z" transform="translate(-174.705 -141.272)" fill="#0091ff"/>
        <path id="Path_19927" data-name="Path 19927" d="M282.325,234.53H271.461l-1.181,21.564h10.855Z" transform="translate(-177.386 -142.167)" fill="#0091ff"/>
        <path id="Path_19928" data-name="Path 19928" d="M302.57,217.75H291.715l-1.975,36.033H300.6Z" transform="translate(-180.067 -139.856)" fill="#0091ff"/>
        <path id="Path_19929" data-name="Path 19929" d="M253.723,242.367c-1.078,0-2.164,0-3.259-.086a18.461,18.461,0,0,1-6.57-1.328.707.707,0,0,1-.353-.931.7.7,0,0,1,.931-.345,17.244,17.244,0,0,0,6.036,1.207c13.028.673,24.436-2.725,35.921-10.674a40.2,40.2,0,0,0,9.338-9.053.7.7,0,1,1,1.147.793,40.526,40.526,0,0,1-9.666,9.372C276.469,238.832,265.734,242.367,253.723,242.367Z" transform="translate(-173.694 -140.279)" fill="#fff"/>
        <path id="Path_19930" data-name="Path 19930" d="M305.811,225.78a.7.7,0,0,1-.647-.966,12.338,12.338,0,0,0,.6-7.545,47,47,0,0,1-8.674,4.6.7.7,0,1,1-.526-1.293,45.774,45.774,0,0,0,9.2-5.01.707.707,0,0,1,1.061.354,13.615,13.615,0,0,1-.371,9.424A.7.7,0,0,1,305.811,225.78Z" transform="translate(-180.945 -139.539)" fill="#fff"/>
        <path id="Path_19931" data-name="Path 19931" d="M366.826,190.1H326.439a2.423,2.423,0,0,1-2.44-2.587l1.88-34.144a2.716,2.716,0,0,1,2.673-2.535h40.4a2.423,2.423,0,0,1,2.431,2.587l-1.88,34.144a2.716,2.716,0,0,1-2.673,2.535Zm-38.274-38.559a2,2,0,0,0-1.974,1.88l-1.88,34.144a1.724,1.724,0,0,0,1.724,1.837h40.387a2,2,0,0,0,1.974-1.88l1.88-34.144a1.714,1.714,0,0,0-1.733-1.837Z" transform="translate(-184.786 -130.636)" fill="#0091ff"/>
        <path id="Path_19932" data-name="Path 19932" d="M370.888,162.088H326.052a.354.354,0,0,1,0-.7h44.836a.354.354,0,1,1,0,.7Z" transform="translate(-185.029 -132.09)" fill="#0091ff"/>
        <path id="Path_19933" data-name="Path 19933" d="M336.488,191.551h0a.353.353,0,0,1-.328-.371l1.587-29.462a.345.345,0,0,1,.371-.328.354.354,0,0,1,.328.371l-1.612,29.471a.353.353,0,0,1-.345.319Z" transform="translate(-186.462 -132.091)" fill="#0091ff"/>
        <path id="Path_19934" data-name="Path 19934" d="M368.216,166.148H343.892a.354.354,0,0,1,0-.7h24.323a.354.354,0,1,1,0,.7Z" transform="translate(-187.487 -132.649)" fill="#0091ff"/>
        <path id="Path_19935" data-name="Path 19935" d="M364.5,171.128H343.6a.354.354,0,1,1,0-.7H364.5a.354.354,0,1,1,0,.7Z" transform="translate(-187.432 -133.336)" fill="#0091ff"/>
        <path id="Path_19936" data-name="Path 19936" d="M355.482,176.268H343.325a.354.354,0,1,1,0-.7h12.157a.354.354,0,1,1,0,.7Z" transform="translate(-187.393 -134.044)" fill="#0091ff"/>
        <path id="Path_19937" data-name="Path 19937" d="M357.614,186.308H342.775a.354.354,0,1,1,0-.7h14.839a.354.354,0,1,1,0,.7Z" transform="translate(-187.318 -135.427)" fill="#0091ff"/>
        <path id="Path_19938" data-name="Path 19938" d="M354.668,191.448H342.5a.354.354,0,0,1,0-.7h12.166a.354.354,0,0,1,0,.7Z" transform="translate(-187.295 -136.136)" fill="#0091ff"/>
        <path id="Path_19939" data-name="Path 19939" d="M364.223,191.448h-3.889a.354.354,0,1,1,0-.7h3.889a.354.354,0,1,1,0,.7Z" transform="translate(-189.737 -136.135)" fill="#0091ff"/>
        <path id="Path_19940" data-name="Path 19940" d="M365.834,181.257h-22.78a.354.354,0,0,1,0-.707h22.78a.354.354,0,0,1,0,.707Z" transform="translate(-187.364 -134.73)" fill="#0091ff"/>
        <path id="Path_19941" data-name="Path 19941" d="M342.378,248.638c-5.277,0-9.6-1.561-12.278-4.458-2.871-3.1-4.061-7.967-3.268-13.365a16.132,16.132,0,0,1,10.3-13.554,24.677,24.677,0,0,1,20.892.276c2.837,1.423,4.613,3.225,5.285,5.354a.7.7,0,0,1-1.336.423c-.552-1.724-2.1-3.276-4.578-4.527a23.28,23.28,0,0,0-19.693-.25,14.762,14.762,0,0,0-9.484,12.485c-.733,4.975.328,9.424,2.906,12.2,3.578,3.871,9.484,4.147,12.727,3.975,5.984-.336,11.123-2.423,14.485-5.88,3.932-4.052,5.035-10.105,2.587-14.089a4.415,4.415,0,0,0-3.026-2.242.7.7,0,0,1,.138-1.388,5.6,5.6,0,0,1,4.078,2.888c2.794,4.518,1.612,11.3-2.751,15.8-3.613,3.716-9.079,5.949-15.417,6.3C343.4,248.638,342.886,248.638,342.378,248.638Z" transform="translate(-185.144 -139.487)" fill="#fff"/>
      </g>
      <g id="freepik--Character--inject-35" transform="translate(89.979 113.08)">
        <path id="Path_19942" data-name="Path 19942" d="M134.118,168.534l-2.492,4.311-2.432,4.423c-1.6,2.957-3.139,5.941-4.535,8.933-.7,1.509-1.362,3-1.966,4.5l-.112.276v.06a.69.69,0,0,0-.078.121,2.279,2.279,0,0,0-.121.25,1.8,1.8,0,0,0,.1.966,9.6,9.6,0,0,0,2.078,3.147,37.075,37.075,0,0,0,3.371,3.19l-2.026,4.311a21.126,21.126,0,0,1-2.785-.983,22.938,22.938,0,0,1-2.587-1.345,15.037,15.037,0,0,1-4.863-4.509,10.053,10.053,0,0,1-1.518-3.932,8.9,8.9,0,0,1,0-2.345,7.08,7.08,0,0,1,.2-1.147l.138-.56.1-.345c.56-1.724,1.13-3.509,1.8-5.173,1.311-3.38,2.794-6.656,4.4-9.838.811-1.586,1.638-3.164,2.518-4.716s1.724-3.07,2.759-4.639Z" transform="translate(-97.966 -120.025)" fill="#ffc3bd"/>
        <path id="Path_19943" data-name="Path 19943" d="M127.453,203.611l4.527-1.181.259,7.312s-3.544.526-5.708-1.638Z" transform="translate(-99.681 -125.39)" fill="#ffc3bd"/>
        <path id="Path_19944" data-name="Path 19944" d="M139.274,201l-1.026,6.424-5.139,2.121-.259-7.312Z" transform="translate(-100.552 -125.193)" fill="#ffc3bd"/>
        <path id="Path_19945" data-name="Path 19945" d="M162,129.194c.1.5.448.862.776.785s.517-.526.414-1.026-.448-.862-.776-.785S161.928,128.694,162,129.194Z" transform="translate(-104.565 -115.157)" fill="#263238"/>
        <path id="Path_19946" data-name="Path 19946" d="M162.5,130.36a18.288,18.288,0,0,0,3.259,3.794,2.914,2.914,0,0,1-2.294.931Z" transform="translate(-104.637 -115.461)" fill="#ed847e"/>
        <path id="Path_19947" data-name="Path 19947" d="M159.2,126.327a.3.3,0,0,1-.2-.509,2.983,2.983,0,0,1,2.587-.992.293.293,0,0,1,.241.345.3.3,0,0,1-.345.25h0a2.38,2.38,0,0,0-2.009.8.293.293,0,0,1-.276.1Z" transform="translate(-104.143 -114.696)" fill="#263238"/>
        <path id="Path_19948" data-name="Path 19948" d="M145.263,137.52c.914,4.639,1.819,13.132-1.423,16.219,0,0,1.267,4.7,9.873,4.7,9.485,0,4.527-4.7,4.527-4.7-5.173-1.233-5.035-5.061-4.13-8.665Z" transform="translate(-102.066 -116.447)" fill="#ffc3bd"/>
        <path id="Path_19949" data-name="Path 19949" d="M141.541,156.67c-.69-1.285-1.457-2.759.121-3.225,1.724-.509,12.882-1.449,16.158-.491-1.009,1.785.69,3.983.69,3.983Z" transform="translate(-101.638 -118.517)" fill="#263238"/>
        <path id="Path_19950" data-name="Path 19950" d="M108.874,407.666a2.052,2.052,0,0,0,1.578-.086.612.612,0,0,0,.147-.7.7.7,0,0,0-.388-.44c-.862-.405-2.819.4-2.906.431a.138.138,0,0,0-.095.129.155.155,0,0,0,.086.138,7.909,7.909,0,0,0,1.578.526Zm1.026-1.009a.907.907,0,0,1,.181.052.414.414,0,0,1,.224.259c.086.276,0,.354-.052.388-.336.285-1.6,0-2.492-.336A4.888,4.888,0,0,1,109.9,406.657Z" transform="translate(-97.019 -153.481)" fill="#0091ff"/>
        <path id="Path_19951" data-name="Path 19951" d="M107.329,406.883h.069c.716-.207,2.25-1.293,2.268-2.009a.491.491,0,0,0-.379-.491.811.811,0,0,0-.664.052c-.862.44-1.388,2.19-1.405,2.268a.155.155,0,0,0,0,.147Zm1.793-2.242h.06c.19.069.19.155.19.2,0,.422-1.026,1.276-1.724,1.621a3.682,3.682,0,0,1,1.155-1.785A.534.534,0,0,1,109.123,404.641Z" transform="translate(-97.018 -153.206)" fill="#0091ff"/>
        <path id="Path_19952" data-name="Path 19952" d="M163.053,408.866c.811,0,1.6-.112,1.862-.474a.578.578,0,0,0,0-.655.75.75,0,0,0-.474-.354c-1.052-.285-3.268.974-3.363,1.035a.138.138,0,0,0-.069.155.147.147,0,0,0,.112.121,11.573,11.573,0,0,0,1.931.172Zm1-1.224a1.052,1.052,0,0,1,.293,0,.44.44,0,0,1,.293.207c.1.19.069.285,0,.336-.293.405-1.9.414-3.07.25a6.742,6.742,0,0,1,2.483-.793Z" transform="translate(-104.431 -153.62)" fill="#0091ff"/>
        <path id="Path_19953" data-name="Path 19953" d="M161.131,408.453h.06c.767-.345,2.276-1.724,2.164-2.431,0-.172-.147-.379-.56-.422a1.147,1.147,0,0,0-.862.259,4.337,4.337,0,0,0-.983,2.44.181.181,0,0,0,.069.138.147.147,0,0,0,.112.017Zm1.543-2.587h.086c.276,0,.293.129.293.164.069.431-.957,1.509-1.724,1.974a3.449,3.449,0,0,1,.862-1.949.793.793,0,0,1,.526-.172Z" transform="translate(-104.423 -153.379)" fill="#0091ff"/>
        <path id="Path_19954" data-name="Path 19954" d="M153.08,406.4h6.337l.629-14.675h-6.337Z" transform="translate(-103.339 -151.468)" fill="#ffc3bd"/>
        <path id="Path_19955" data-name="Path 19955" d="M99.16,403.156l6.191,1.336,6.217-13.658-6.191-1.345Z" transform="translate(-95.91 -151.161)" fill="#ffc3bd"/>
        <path id="Path_19956" data-name="Path 19956" d="M105.4,405.927l-6.9-1.509a.552.552,0,0,0-.612.31l-2.414,5.242a.923.923,0,0,0,.664,1.293c2.44.483,3.647.595,6.708,1.259,1.88.405,6.13,1.44,8.726,2.009s3.449-1.94,2.483-2.4c-4.544-2.078-6.441-3.906-7.674-5.613A1.552,1.552,0,0,0,105.4,405.927Z" transform="translate(-95.391 -153.216)" fill="#263238"/>
        <path id="Path_19957" data-name="Path 19957" d="M158.989,407.89h-6.9a.543.543,0,0,0-.535.431l-1.25,5.63a.914.914,0,0,0,.905,1.121c2.5,0,6.1-.181,9.243-.181,3.664,0,6.829.2,11.131.2,2.587,0,3.328-2.63,2.233-2.871-4.949-1.078-9-1.2-13.278-3.837A2.966,2.966,0,0,0,158.989,407.89Z" transform="translate(-102.954 -153.696)" fill="#263238"/>
        <path id="Path_19958" data-name="Path 19958" d="M128.95,157.973c-5.932,1.362-10.83,16.52-10.83,16.52l11.968,9.079a26.074,26.074,0,0,0,6.32-11.709C138.408,163.922,135.02,156.576,128.95,157.973Z" transform="translate(-98.523 -119.241)" fill="#0091ff"/>
        <path id="Path_19959" data-name="Path 19959" d="M128.95,157.973c-5.932,1.362-10.83,16.52-10.83,16.52l11.968,9.079a26.074,26.074,0,0,0,6.32-11.709C138.408,163.922,135.02,156.576,128.95,157.973Z" transform="translate(-98.523 -119.241)" fill="#fafafa" opacity="0.2"/>
        <path id="Path_19960" data-name="Path 19960" d="M135.857,170.92c-3.225,3.19-4.311,9-4.527,14.054l.526.405a26.039,26.039,0,0,0,6.329-11.709c.121-.474.224-.948.31-1.414Z" transform="translate(-100.342 -121.049)" opacity="0.2"/>
        <path id="Path_19961" data-name="Path 19961" d="M166.172,158.056s6.743,7.613.371,54.752h-33.86c-.233-5.173,3.035-30.575-1.983-55.079a88.693,88.693,0,0,1,11.347-1.431,125.255,125.255,0,0,1,14.4,0,63.373,63.373,0,0,1,9.726,1.759Z" transform="translate(-100.256 -119.005)" fill="#0091ff"/>
        <path id="Path_19962" data-name="Path 19962" d="M166.172,158.056s6.743,7.613.371,54.752h-33.86c-.233-5.173,3.035-30.575-1.983-55.079a88.693,88.693,0,0,1,11.347-1.431,125.255,125.255,0,0,1,14.4,0,63.373,63.373,0,0,1,9.726,1.759Z" transform="translate(-100.256 -119.005)" fill="#fafafa" opacity="0.2"/>
        <path id="Path_19963" data-name="Path 19963" d="M174.015,175.062l-.129-.112-7.7,1.845c-.44,5.173,4.915,11.433,7.674,14.279a147.832,147.832,0,0,0,.155-16.012Z" transform="translate(-105.141 -121.604)" opacity="0.2"/>
        <path id="Path_19964" data-name="Path 19964" d="M160.1,391.73l-.328,7.562H153.43l.328-7.562Z" transform="translate(-103.387 -151.47)" opacity="0.2"/>
        <path id="Path_19965" data-name="Path 19965" d="M105.847,389.49l6.2,1.345-3.207,7.044-6.2-1.345Z" transform="translate(-96.39 -151.161)" opacity="0.2"/>
        <path id="Path_19966" data-name="Path 19966" d="M142.369,130.319c1.621,6.079,2.268,9.709,6.036,12.235,5.63,3.8,12.649-.56,12.873-6.993.2-5.794-2.5-14.753-9.019-15.977a8.571,8.571,0,0,0-9.89,10.735Z" transform="translate(-101.819 -113.954)" fill="#ffc3bd"/>
        <path id="Path_19967" data-name="Path 19967" d="M144.056,139.421c2.587,1.474,11.994-3.449,10.062-10.95,0,0,3.587-4.311,3.182-9.071s-3.673-6.57-7.148-5.544c-3.061.862-2.975,2.587-2.975,2.587s-14.477,1.724-11.381,7.6C129.9,130.445,140.831,137.576,144.056,139.421Z" transform="translate(-100.721 -113.149)" fill="#263238"/>
        <path id="Path_19968" data-name="Path 19968" d="M135.862,125.959s-1.724-2.983-4.242-1.311A6.541,6.541,0,0,1,135.862,125.959Z" transform="translate(-100.382 -114.604)" fill="#263238"/>
        <path id="Path_19969" data-name="Path 19969" d="M160.194,122.5s3.156-7.122-1.724-9.416A12.175,12.175,0,0,1,160.194,122.5Z" transform="translate(-104.082 -113.08)" fill="#263238"/>
        <path id="Path_19970" data-name="Path 19970" d="M154.382,131.88a7.079,7.079,0,0,0,2.587,3.777c1.647,1.224,2.88,0,2.768-1.845-.112-1.681-1.1-4.311-2.914-4.837S153.908,130.052,154.382,131.88Z" transform="translate(-103.503 -115.256)" fill="#ffc3bd"/>
        <path id="Path_19971" data-name="Path 19971" d="M150.355,221.864s-7.191,48.4-11.14,66.5c-4.311,19.831-27.5,85.568-27.5,85.568l-11.338-2.457s16.21-53.544,19.831-81.308c2.785-21.323,8.277-68.34,8.277-68.34Z" transform="translate(-96.078 -128.063)" fill="#263238"/>
        <path id="Path_19972" data-name="Path 19972" d="M114.3,393.492c.052,0-2.112,4.1-2.112,4.1L99.44,394.828,100.509,391Z" transform="translate(-95.949 -151.369)" fill="#0091ff"/>
        <path id="Path_19973" data-name="Path 19973" d="M151.942,241.859c-8.312,1.63-7.432,32.627-6.432,48.569,2.4-11.269,5.906-32.954,8.3-48.345A2.837,2.837,0,0,0,151.942,241.859Z" transform="translate(-102.21 -130.813)" opacity="0.3"/>
        <path id="Path_19974" data-name="Path 19974" d="M168.714,221.87s.862,47.362.19,66.676c-.716,20.09-7.76,85.878-7.76,85.878H150.435s-.388-64.616-.862-84.343c-.517-21.556-3.113-68.211-3.113-68.211Z" transform="translate(-102.427 -128.068)" fill="#263238"/>
        <path id="Path_19975" data-name="Path 19975" d="M237.672,183.15H215.814l-1.224,22.228,21.832.586Z" transform="translate(-111.813 -122.734)" fill="#263238" opacity="0.4"/>
        <path id="Path_19976" data-name="Path 19976" d="M224.5,195.735l-21.892-2.707a188.831,188.831,0,0,0,3.94-22.358l22.021,2.707a189.018,189.018,0,0,1-4.07,22.358Z" transform="translate(-110.163 -121.014)" fill="#0091ff"/>
        <path id="Path_19977" data-name="Path 19977" d="M163.671,393.84c.052,0-.6,4.458-.6,4.458H150.014l-.354-3.975Z" transform="translate(-102.868 -151.76)" fill="#0091ff"/>
        <path id="Path_19978" data-name="Path 19978" d="M174.142,165.07c.974,1.518,2.087,3.225,3.2,4.794s2.259,3.173,3.449,4.7a64.356,64.356,0,0,0,7.553,8.424,26.491,26.491,0,0,0,2.035,1.724l.517.388a2,2,0,0,0-.3-.1h-.276a2.811,2.811,0,0,0,1.423-.328,16.087,16.087,0,0,0,2.181-1.13,75.723,75.723,0,0,0,9.14-7.036l3.7,2.983a43.689,43.689,0,0,1-8.295,10.114,19.605,19.605,0,0,1-2.957,2.181,11.614,11.614,0,0,1-4.354,1.621,7.691,7.691,0,0,1-3.294-.285,7.477,7.477,0,0,1-1.681-.767l-.742-.474c-.992-.638-1.931-1.319-2.819-2.018a62.4,62.4,0,0,1-9.329-9.329c-1.354-1.673-2.664-3.363-3.88-5.122s-2.38-3.449-3.518-5.449Z" transform="translate(-105.104 -120.243)" fill="#ffc3bd"/>
        <path id="Path_19979" data-name="Path 19979" d="M160.971,167.91c-2.026,8.493,13.339,16.813,13.339,16.813l9.985-11.692a82.661,82.661,0,0,0-10.2-12.313C167.144,154.02,162.54,161.461,160.971,167.91Z" transform="translate(-104.401 -119.28)" fill="#0091ff"/>
        <path id="Path_19980" data-name="Path 19980" d="M160.971,167.91c-2.026,8.493,13.339,16.813,13.339,16.813l9.985-11.692a82.661,82.661,0,0,0-10.2-12.313C167.144,154.02,162.54,161.461,160.971,167.91Z" transform="translate(-104.401 -119.28)" fill="#fafafa" opacity="0.2"/>
        <path id="Path_19981" data-name="Path 19981" d="M207.78,179.17l2.363-7.57,6.2,3.1s-.905,5.518-5.423,6.475Z" transform="translate(-110.875 -121.142)" fill="#ffc3bd"/>
        <path id="Path_19982" data-name="Path 19982" d="M213,169.17l5.587,1.543-1.871,3.647-6.208-3.1Z" transform="translate(-111.251 -120.808)" fill="#ffc3bd"/>
      </g>
    </g>
  </g>
</svg>
