<svg xmlns="http://www.w3.org/2000/svg" width="345" height="307" viewBox="0 0 345 307">
  <g id="Group_936" data-name="Group 936" transform="translate(-15252 -4560)">
    <g id="Group_902" data-name="Group 902" transform="translate(1154 308)" opacity="0">
      <rect id="Rectangle_1318" data-name="Rectangle 1318" width="345" height="307" transform="translate(14098 4252)" fill="#fff"/>
    </g>
    <g id="Product_iteration-rafiki" data-name="Product iteration-rafiki" transform="translate(15216.735 4506.911)">
      <g id="freepik--Shadow--inject-1" transform="translate(56.11 330.802)">
        <ellipse id="freepik--path--inject-1" cx="151.654" cy="8.854" rx="151.654" ry="8.854" fill="#f5f5f5"/>
      </g>
      <g id="freepik--character-2--inject-1" transform="translate(188.464 110.85)">
        <path id="Path_23240" data-name="Path 23240" d="M276.056,182.37l-.962,1.275c-.313.407-.641.782-.962,1.181-.634.782-1.314,1.564-1.987,2.284a60.019,60.019,0,0,1-4.372,4.318c-.782.7-1.564,1.377-2.433,2.041s-1.752,1.3-2.706,1.924a21.689,21.689,0,0,1-7.039,3.129l-.274.063a3.981,3.981,0,0,1-.782.1,9.144,9.144,0,0,1-3.731-.657,11.554,11.554,0,0,1-2.347-1.259,20.564,20.564,0,0,1-3.129-2.714,40.265,40.265,0,0,1-4.349-5.53,65.293,65.293,0,0,1-3.348-5.7,62.372,62.372,0,0,1-2.753-5.944,3.129,3.129,0,0,1,5.264-3.238l.07.078,4.028,4.552c1.353,1.5,2.706,2.98,4.083,4.365a40.974,40.974,0,0,0,4.083,3.692,9.6,9.6,0,0,0,1.776,1.118.915.915,0,0,0,.422.11,1.1,1.1,0,0,0-.665-.149l-1.072.172a15.954,15.954,0,0,0,2.957-1.94,46.783,46.783,0,0,0,3.528-3.23c1.165-1.2,2.346-2.448,3.5-3.747l1.705-1.963,1.627-1.916.2-.227a6.257,6.257,0,0,1,9.754,7.822Z" transform="translate(-227.354 -134.323)" fill="#263238"/>
        <path id="Path_23241" data-name="Path 23241" d="M234.042,171.9c-3.019.469-5.89-4.427-5.89-4.427l-2.26-2.691a2.44,2.44,0,0,1,0-3.129l1.948-2.268a2.44,2.44,0,0,1,3.473-.227L233.9,161.5A4.357,4.357,0,0,1,234.981,163l1.009,2.347a5.608,5.608,0,0,1-.923,5.921l-.188.219A1.494,1.494,0,0,1,234.042,171.9Z" transform="translate(-225.325 -131.298)" fill="#ffc3bd"/>
        <path id="Path_23242" data-name="Path 23242" d="M321.71,302.246c-3.825-28.33-5.334-45.139-7.822-59.226l-24.1-.36s10.817,45.178,15.964,63.622,34.259,64.247,34.259,64.247l6.4-3.8S328.593,323.7,321.71,302.246Z" transform="translate(-239.367 -149.622)" fill="#263238"/>
        <path id="Path_23243" data-name="Path 23243" d="M348.5,412.173s4.818-5.89,4.74-7.884l5.3-3.129,2.917,5.827-2.558,1.564-.782-.242-.555,1.032c-2.644,1.564-6.9,3.958-8.878,4.325A1.565,1.565,0,0,1,348.5,412.173Z" transform="translate(-252.132 -184.149)" fill="#263238"/>
        <path id="Path_23244" data-name="Path 23244" d="M308.77,170a112.59,112.59,0,0,0-28.862.454,9.887,9.887,0,0,0-8.017,8.314c-1.721,12.327-.242,33.876.86,55.534,18.639,6.382,38.326-.086,38.326-.086.68-4.38-.845-18.717-1.877-26.367,1.564-7.908,4.8-16.957,6.961-27.454A8.6,8.6,0,0,0,308.77,170Z" transform="translate(-235.297 -133.64)" fill="#263238"/>
        <path id="Path_23245" data-name="Path 23245" d="M290.516,169.441a8.752,8.752,0,0,0-2.073,4.732c-.876,5.006.117,12.726,2.753,21.572,2.526-7.126,7.962-16.558,11.31-22.034,1.564-2.6,2.683-4.31,2.785-4.466h0A30.747,30.747,0,0,0,290.516,169.441Z" transform="translate(-239.006 -133.455)" fill="#0091ff"/>
        <path id="Path_23246" data-name="Path 23246" d="M304.6,149.39l-9.7,7.955c1.251,3.34,1.65,6.813-3.833,8.15-1.369,1.815,1.048,3.911,3.316,4.834,3.661-.454,8.815-1.674,11.044-4.693C304.726,163.164,303.662,154.325,304.6,149.39Z" transform="translate(-239.559 -129.305)" fill="#ffc3bd"/>
        <path id="Path_23247" data-name="Path 23247" d="M292.46,173.185a7.313,7.313,0,0,0,2.01,3.035c1.478,0,3.645-1.666,3.645-1.666s-.837-2.346-2.01-2.824C293.1,172.465,292.46,173.185,292.46,173.185Z" transform="translate(-239.949 -134.171)" fill="#fff"/>
        <path id="Path_23248" data-name="Path 23248" d="M295.107,176.038a2.167,2.167,0,0,0-1.635-.415c-1.94,2.761-3.176,7.04-4.372,11.983a82.233,82.233,0,0,0,2.307,9.7,77.938,77.938,0,0,1,3.77-8.6,51.317,51.317,0,0,1-.07-12.663Z" transform="translate(-239.217 -135.014)" fill="#fff"/>
        <path id="Path_23249" data-name="Path 23249" d="M301.735,153.63l-5.655,4.63a12.412,12.412,0,0,1,.68,2.393c2.19.156,5.241-2.057,5.381-4.059a8.229,8.229,0,0,0-.407-2.964Z" transform="translate(-240.737 -130.229)" opacity="0.2"/>
        <path id="Path_23250" data-name="Path 23250" d="M289.345,132.56c-3.129,1.815-1.51,3.621-1.51,3.621s-1.338,3.6.438,6.077C296.6,132.294,289.345,132.56,289.345,132.56Z" transform="translate(-238.836 -125.639)" fill="#263238"/>
        <path id="Path_23251" data-name="Path 23251" d="M305.259,139.724c-.884,6.085-1.1,9.691-4.443,12.554-5.053,4.294-12.374.782-13.3-5.475-.86-5.616.727-14.627,6.93-16.512a8.479,8.479,0,0,1,10.81,9.433Z" transform="translate(-238.826 -125.067)" fill="#ffc3bd"/>
        <path id="Path_23252" data-name="Path 23252" d="M303.606,142.169c-3.911.407-3.183-6.031-1.846-7.3-3.817.07-3.082-2.479-2.612-3.418-6.359,1.337-10.856,1.619-13.727-1.564-2.128-2.347-4.388.282-5.061-2.174,1.564.837,4.388-3.348,6.3-1.611s3.809-4.333,6.7-1.736c3.911,3.481,14.173-6,13.234,4.451,5.358,4.513-1.846,7.368-1.377,12.163C303.739,143.178,303.606,142.169,303.606,142.169Z" transform="translate(-237.313 -123.711)" fill="#263238"/>
        <path id="Path_23253" data-name="Path 23253" d="M311.15,130.321a.4.4,0,0,1-.391-.336.391.391,0,0,1,.336-.438,5.577,5.577,0,0,0,3.129-2.174,2.6,2.6,0,0,0,.383-2.221.4.4,0,0,1,.274-.485.383.383,0,0,1,.477.266,3.426,3.426,0,0,1-.477,2.863,6.257,6.257,0,0,1-3.692,2.526Z" transform="translate(-243.934 -123.916)" fill="#263238"/>
        <path id="Path_23254" data-name="Path 23254" d="M311.372,147.511a5.334,5.334,0,0,1-2.957,2.8c-1.752.657-2.808-.876-2.464-2.62.313-1.564,1.564-3.786,3.426-3.692a2.417,2.417,0,0,1,1.995,3.512Z" transform="translate(-242.874 -128.13)" fill="#ffc3bd"/>
        <path id="Path_23255" data-name="Path 23255" d="M298.259,142.464c-.047.5-.344.884-.665.853s-.563-.461-.516-.962.336-.876.665-.845S298.3,141.971,298.259,142.464Z" transform="translate(-240.954 -127.588)" fill="#263238"/>
        <path id="Path_23256" data-name="Path 23256" d="M290.669,142.282c-.047.5-.344.876-.665.845s-.563-.454-.516-.954.336-.876.665-.853S290.669,141.781,290.669,142.282Z" transform="translate(-239.3 -127.547)" fill="#263238"/>
        <path id="Path_23257" data-name="Path 23257" d="M292.5,143.4a17.417,17.417,0,0,1-2.738,4.044,2.9,2.9,0,0,0,2.346.673Z" transform="translate(-239.361 -128)" fill="#ed847e"/>
        <path id="Path_23258" data-name="Path 23258" d="M300.626,140.206a.313.313,0,0,0,.149,0,.3.3,0,0,0,.164-.383,2.957,2.957,0,0,0-1.987-1.815.289.289,0,0,0-.344.227.3.3,0,0,0,.227.352h0a2.347,2.347,0,0,1,1.564,1.455.305.305,0,0,0,.227.164Z" transform="translate(-241.287 -126.824)" fill="#263238"/>
        <path id="Path_23259" data-name="Path 23259" d="M288.115,139.8a.3.3,0,0,0,.274-.047,2.292,2.292,0,0,1,2.073-.407.289.289,0,0,0,.375-.18.3.3,0,0,0-.172-.375,2.91,2.91,0,0,0-2.628.493.3.3,0,0,0-.063.415.36.36,0,0,0,.141.1Z" transform="translate(-238.959 -126.97)" fill="#263238"/>
        <path id="Path_23260" data-name="Path 23260" d="M307.263,169.46h0c-.1.156-1.212,1.869-2.785,4.466a12.366,12.366,0,0,1-5.671,2.972c.321-1.048-.618-4.584-1.658-5.671A27.736,27.736,0,0,0,307.263,169.46Z" transform="translate(-240.971 -133.677)" fill="#0091ff"/>
        <path id="Path_23261" data-name="Path 23261" d="M307.263,169.46h0c-.1.156-1.212,1.869-2.785,4.466a12.366,12.366,0,0,1-5.671,2.972c.321-1.048-.618-4.584-1.658-5.671A27.736,27.736,0,0,0,307.263,169.46Z" transform="translate(-240.971 -133.677)" fill="#fff" opacity="0.3"/>
        <path id="Path_23262" data-name="Path 23262" d="M295.249,171.292a9.026,9.026,0,0,0-4.873,5.186,3.34,3.34,0,0,1-1.846-2.026,8.752,8.752,0,0,1,2.073-4.732C291.166,170.44,292.715,171.151,295.249,171.292Z" transform="translate(-239.093 -133.734)" fill="#0091ff"/>
        <path id="Path_23263" data-name="Path 23263" d="M295.249,171.292a9.026,9.026,0,0,0-4.873,5.186,3.34,3.34,0,0,1-1.846-2.026,8.752,8.752,0,0,1,2.073-4.732C291.166,170.44,292.715,171.151,295.249,171.292Z" transform="translate(-239.093 -133.734)" fill="#fff" opacity="0.3"/>
        <path id="Path_23264" data-name="Path 23264" d="M323.75,174.208c1.564,1.783,2.9,3.5,4.263,5.319s2.644,3.661,3.864,5.608a60.87,60.87,0,0,1,3.488,6.14,36.855,36.855,0,0,1,1.525,3.488,21.768,21.768,0,0,1,1.165,4.325l.063.383a4.693,4.693,0,0,1-.227,2.347,22.885,22.885,0,0,1-3.786,6.508,29.353,29.353,0,0,1-2.26,2.519c-.782.782-1.564,1.564-2.347,2.229a50.186,50.186,0,0,1-5.061,3.794A45.146,45.146,0,0,1,318.963,220a3.129,3.129,0,0,1-3.7-4.99l.141-.149c1.212-1.314,2.55-2.73,3.754-4.114s2.409-2.792,3.481-4.216a35.884,35.884,0,0,0,2.847-4.239,14.189,14.189,0,0,0,1.564-3.856l-.164,2.7a14.706,14.706,0,0,0-.782-1.838,25.589,25.589,0,0,0-1.3-2.347c-.516-.782-1.009-1.619-1.564-2.433s-1.111-1.643-1.7-2.464c-1.181-1.635-2.4-3.293-3.661-4.928l-3.754-4.842-.078-.1a6.257,6.257,0,1,1,9.653-7.963Z" transform="translate(-244.34 -134.217)" fill="#263238"/>
        <path id="Path_23265" data-name="Path 23265" d="M316.081,230.627a1.424,1.424,0,0,0-.289-.939l-1.705-2.347a1.455,1.455,0,0,0-1.455-.579l-2.425.454a16.7,16.7,0,0,0-6.531,2.777l-.641.454a2.433,2.433,0,0,0-.548,3.434l1.775,2.4a2.433,2.433,0,0,0,3.066.72l3.129-1.611S315.9,233.677,316.081,230.627Z" transform="translate(-242.029 -146.154)" fill="#ffc3bd"/>
        <path id="Path_23266" data-name="Path 23266" d="M317.309,225.7a11.357,11.357,0,0,0-3.418.07c-.7,1.791,2.26,7.18,3.778,8.119a13.5,13.5,0,0,0,3.176-2.12C319.546,230.044,318.2,227.025,317.309,225.7Z" transform="translate(-244.595 -145.907)" fill="#0091ff"/>
        <path id="Path_23267" data-name="Path 23267" d="M239.525,173.044a11.248,11.248,0,0,0-.446-3.387c-1.854-.493-6.883,3.035-7.65,4.646a13.428,13.428,0,0,0,2.456,2.925C235.466,175.742,238.313,174.068,239.525,173.044Z" transform="translate(-226.655 -133.71)" fill="#0091ff"/>
        <path id="Path_23268" data-name="Path 23268" d="M352.956,404.292l7.227-4.028-1.65-4.474-8.033,5.444Z" transform="translate(-252.592 -182.979)" fill="#0091ff"/>
        <path id="Path_23269" data-name="Path 23269" d="M294.642,304.791c1.721-28.58,5.022-47.712,3.645-61.791l-24.067-.36s2.44,45.366,3.911,64.232,9.605,65.514,9.605,65.514h7.446S297.255,326.911,294.642,304.791Z" transform="translate(-235.976 -149.618)" fill="#263238"/>
        <path id="Path_23270" data-name="Path 23270" d="M275.927,412.364s12.1-2.612,12.867-4.364h6.171l.2,6.508h-5.029l-.61-.594-.939.594c-3.074,0-11.138-.117-13.093-.782A1.377,1.377,0,0,1,275.927,412.364Z" transform="translate(-236.244 -185.639)" fill="#263238"/>
        <path id="Path_23271" data-name="Path 23271" d="M290.756,407.566l8.291.227.383-4.693-9.621.579Z" transform="translate(-239.372 -184.571)" fill="#0091ff"/>
        <path id="Path_23272" data-name="Path 23272" d="M295.4,151.245a5.773,5.773,0,0,1-.954-.047.156.156,0,0,1-.125-.2.172.172,0,0,1,.2-.141,4.842,4.842,0,0,0,3.981-1.244.164.164,0,1,1,.235.219A5.053,5.053,0,0,1,295.4,151.245Z" transform="translate(-240.353 -129.337)" fill="#263238"/>
      </g>
      <g id="freepik--Graphic--inject-1" transform="translate(92.786 64.668)">
        <rect id="Rectangle_1507" data-name="Rectangle 1507" width="6.476" height="0.782" transform="translate(191.991 192.493)" fill="#0091ff"/>
        <rect id="Rectangle_1508" data-name="Rectangle 1508" width="14.548" height="0.782" transform="translate(203.262 192.493)" fill="#0091ff"/>
        <path id="Path_23273" data-name="Path 23273" d="M358.118,270.25H267.387L252.76,297.274a1.8,1.8,0,0,0,1.564,2.652H358.118l7.415-14.861Z" transform="translate(-135.576 -109.45)" fill="#0091ff"/>
        <path id="Path_23274" data-name="Path 23274" d="M255.366,94.551a65.7,65.7,0,0,1,59.586,61.736,1.791,1.791,0,0,0,2.6,1.517l11.021-5.475a2.886,2.886,0,0,1,2.652,0l10.817,5.4a1.8,1.8,0,0,0,2.6-1.689,95.37,95.37,0,0,0-89.5-91.255L247.81,79.448Z" transform="translate(-134.544 -64.694)" fill="#0091ff"/>
        <path id="Path_23275" data-name="Path 23275" d="M255.366,94.551a65.7,65.7,0,0,1,59.586,61.736,1.791,1.791,0,0,0,2.6,1.517l11.021-5.475a2.886,2.886,0,0,1,2.652,0l10.817,5.4a1.8,1.8,0,0,0,2.6-1.689,95.37,95.37,0,0,0-89.5-91.255L247.81,79.448Z" transform="translate(-134.544 -64.694)" fill="#fff" opacity="0.6"/>
        <path id="Path_23276" data-name="Path 23276" d="M158.059,153.946A65.7,65.7,0,0,1,219.8,94.361a1.8,1.8,0,0,0,1.51-2.6L215.8,80.743a3,3,0,0,1,0-2.659l5.413-10.81a1.807,1.807,0,0,0-1.7-2.6,95.424,95.424,0,0,0-91.224,89.488l14.634,7.329Z" transform="translate(-108.509 -64.668)" fill="#0091ff"/>
        <path id="Path_23277" data-name="Path 23277" d="M158.059,153.946A65.7,65.7,0,0,1,219.8,94.361a1.8,1.8,0,0,0,1.51-2.6L215.8,80.743a3,3,0,0,1,0-2.659l5.413-10.81a1.807,1.807,0,0,0-1.7-2.6,95.424,95.424,0,0,0-91.224,89.488l14.634,7.329Z" transform="translate(-108.509 -64.668)" fill="#fff" opacity="0.4"/>
        <path id="Path_23278" data-name="Path 23278" d="M211.972,252.254h0a65.7,65.7,0,0,1-59.593-61.729,1.791,1.791,0,0,0-2.589-1.517l-11.013,5.475a2.98,2.98,0,0,1-1.338.321,2.941,2.941,0,0,1-1.322-.321l-10.825-5.4a1.807,1.807,0,0,0-2.6,1.689,94.947,94.947,0,0,0,26.164,61.721H103l7.509,15.025-7.243,14.525H212.191l7.352-14.681Z" transform="translate(-103 -91.712)" fill="#0091ff"/>
        <path id="Path_23279" data-name="Path 23279" d="M211.972,252.254h0a65.7,65.7,0,0,1-59.593-61.729,1.791,1.791,0,0,0-2.589-1.517l-11.013,5.475a2.98,2.98,0,0,1-1.338.321,2.941,2.941,0,0,1-1.322-.321l-10.825-5.4a1.807,1.807,0,0,0-2.6,1.689,94.947,94.947,0,0,0,26.164,61.721H103l7.509,15.025-7.243,14.525H212.191l7.352-14.681Z" transform="translate(-103 -91.712)" fill="#fff" opacity="0.2"/>
        <path id="Path_23280" data-name="Path 23280" d="M315.772,191.838h0a65.7,65.7,0,0,1-61.736,59.578,1.8,1.8,0,0,0-1.517,2.6l5.475,11.021a2.98,2.98,0,0,1,0,2.652l-5.4,10.817a1.8,1.8,0,0,0,1.689,2.6,95.37,95.37,0,0,0,91.256-89.488l-14.658-7.329Z" transform="translate(-135.529 -90.725)" fill="#0091ff"/>
        <path id="Path_23281" data-name="Path 23281" d="M315.772,191.838h0a65.7,65.7,0,0,1-61.736,59.578,1.8,1.8,0,0,0-1.517,2.6l5.475,11.021a2.98,2.98,0,0,1,0,2.652l-5.4,10.817a1.8,1.8,0,0,0,1.689,2.6,95.37,95.37,0,0,0,91.256-89.488l-14.658-7.329Z" transform="translate(-135.529 -90.725)" fill="#fff" opacity="0.8"/>
      </g>
      <g id="freepik--character-1--inject-1" transform="translate(99.076 120.273)">
        <path id="Path_23282" data-name="Path 23282" d="M228.626,175.794l-4.278-12.241-6.508.6a30.965,30.965,0,0,0-5.475-6.14l1.337-6.4-11.709-5.632-4.177,5.029a30.724,30.724,0,0,0-8.228-.469l-3.575-5.475-12.241,4.278.6,6.508a30.965,30.965,0,0,0-6.14,5.475l-6.406-1.338L156.2,171.679l5.037,4.177a30.724,30.724,0,0,0-.469,8.228l-5.475,3.575,4.278,12.241,6.5-.6a31.076,31.076,0,0,0,5.475,6.148l-1.338,6.4,11.686,5.632,4.177-5.037a30.669,30.669,0,0,0,8.221.469l3.582,5.475,12.241-4.278-.6-6.5a31.288,31.288,0,0,0,6.14-5.475l6.4,1.338,5.632-11.686-5.029-4.169a30.74,30.74,0,0,0,.469-8.228Zm-31.944,19.429a14.282,14.282,0,1,1,8.768-18.193,14.282,14.282,0,0,1-8.768,18.193Z" transform="translate(-120.681 -137.787)" fill="#0091ff"/>
        <path id="Path_23283" data-name="Path 23283" d="M143.862,192.745c-.368.579-.782,1.338-1.244,2.018s-.829,1.424-1.228,2.151c-.782,1.447-1.564,2.917-2.3,4.411a89.171,89.171,0,0,0-3.911,9.167c-.493,1.236,0,.5-.571-.274-.266-.321-.438-.313-.344-.258a1.689,1.689,0,0,0,.563.2,17.207,17.207,0,0,0,4.4.156c3.246-.2,6.68-.688,10.012-1.228h.016a1.752,1.752,0,0,1,.939,3.355,56.316,56.316,0,0,1-10.325,3.183c-.907.172-1.838.321-2.816.415a15.174,15.174,0,0,1-3.129,0,8.493,8.493,0,0,1-1.955-.446,5.225,5.225,0,0,1-2.417-1.768,4.693,4.693,0,0,1-.782-1.721,5.311,5.311,0,0,1-.11-1.65,6.562,6.562,0,0,1,.235-1.236l.188-.657a71.252,71.252,0,0,1,3.692-10.207c.735-1.65,1.564-3.277,2.417-4.865q.657-1.2,1.361-2.346a27.764,27.764,0,0,1,1.564-2.346,3.52,3.52,0,0,1,5.843,3.911Z" transform="translate(-114.876 -147.003)" fill="#7f3e3b"/>
        <path id="Path_23284" data-name="Path 23284" d="M162.056,217.859l-1.635,1.353a2.448,2.448,0,0,1-2.206.493l-3.606-.946a4.607,4.607,0,0,1-3.129-2.831l-.321-.86c2.55-2.433,7.094-3.191,7.094-3.191l1.275-.352a2.049,2.049,0,0,1,2.581,1.369l.782,2.511A2.347,2.347,0,0,1,162.056,217.859Z" transform="translate(-119.781 -152.242)" fill="#7f3e3b"/>
        <path id="Path_23285" data-name="Path 23285" d="M153.779,161.07c1.126,4.153,2.5,11.733-.2,14.533,0,0-2.073,3.911,10.168,3.262,8.6-.438,2.73-3.262,2.73-3.262-4.693-1.111-4.849-4.544-4.278-7.767Z" transform="translate(-120.28 -141.272)" fill="#7f3e3b"/>
        <path id="Path_23286" data-name="Path 23286" d="M127.692,382.335l-7.939-2.925A138.336,138.336,0,0,1,116.57,394.9l5.569,2.346S125.847,386.066,127.692,382.335Z" transform="translate(-112.247 -188.834)" fill="#7f3e3b"/>
        <path id="Path_23287" data-name="Path 23287" d="M122.233,410.257c-4.247-3.129-3.911-2.957-6.257-4.787-1.995-1.564-2.652-1.666-4.271-2.91-1.353-1.032-.438-2.347.986-3.661.54-.493,1.22-1.04,1.995-1.752a1.267,1.267,0,0,1,1.611-.078l4.975,3.637a1.455,1.455,0,0,1,.587,1.165,8.893,8.893,0,0,0,2.91,6.39C126.879,410.257,123.931,411.5,122.233,410.257Z" transform="translate(-111.043 -192.626)" fill="#263238"/>
        <path id="Path_23288" data-name="Path 23288" d="M162.651,236s-8.361,43.058-14.861,63.121c-6.8,21.119-16.754,44.529-21.267,58.256-1.4.18-5.4-1.486-7.352-3.129,0,0,2.98-35.98,13.18-54.6C131.333,245.339,141.657,236,141.657,236Z" transform="translate(-112.813 -157.595)" fill="#0091ff"/>
        <path id="Path_23289" data-name="Path 23289" d="M162.651,236s-8.361,43.058-14.861,63.121c-6.8,21.119-16.754,44.529-21.267,58.256-1.4.18-5.4-1.486-7.352-3.129,0,0,2.98-35.98,13.18-54.6C131.333,245.339,141.657,236,141.657,236Z" transform="translate(-112.813 -157.595)" opacity="0.3"/>
        <path id="Path_23290" data-name="Path 23290" d="M154.567,256.6l8.6,16.426c-1.971,8.6-4.161,17.575-6.257,24.865C150.679,280.378,154.567,256.6,154.567,256.6Z" transform="translate(-120.263 -162.082)" opacity="0.2"/>
        <path id="Path_23291" data-name="Path 23291" d="M127.989,386.622a17.992,17.992,0,0,0-.563,2.863.548.548,0,0,1-.727.461,37.769,37.769,0,0,1-8.346-3.911.7.7,0,0,1-.344-.68l.352-2.753a.555.555,0,0,1,.782-.407l8.385,3.629a.712.712,0,0,1,.461.8Z" transform="translate(-112.559 -189.429)" fill="#263238"/>
        <path id="Path_23292" data-name="Path 23292" d="M181.526,387.86l-7.626.563c1.251,6.085,2.558,15.69,2.558,15.69h6.054S181.432,392.029,181.526,387.86Z" transform="translate(-124.735 -190.675)" fill="#7f3e3b"/>
        <path id="Path_23293" data-name="Path 23293" d="M189.08,414.331c-5.264,0-4.889-.078-7.822-.18-2.534-.086-3.129.227-5.178.18-1.7,0-1.635-1.658-1.1-3.535.2-.72.485-1.564.782-2.589a1.369,1.369,0,0,1,1.322-1.017h6.163a1.322,1.322,0,0,1,1.118.587,8.088,8.088,0,0,0,5.866,3.434C193.03,411.594,191.184,414.331,189.08,414.331Z" transform="translate(-124.897 -194.885)" fill="#263238"/>
        <path id="Path_23294" data-name="Path 23294" d="M176.161,236s.954,37.544,1.807,60.892-.978,64.67-.978,64.67c-.172,1.134-6.124.68-7.133,0,0,0-11.381-33.477-7.04-62.44-15.237-37.544-10.841-62.2-10.841-62.2Z" transform="translate(-119.831 -157.595)" fill="#0091ff"/>
        <path id="Path_23295" data-name="Path 23295" d="M176.161,236s.954,37.544,1.807,60.892-.978,64.67-.978,64.67c-.172,1.134-6.124.68-7.133,0,0,0-11.381-33.477-7.04-62.44-15.237-37.544-10.841-62.2-10.841-62.2Z" transform="translate(-119.831 -157.595)" opacity="0.3"/>
        <path id="Path_23296" data-name="Path 23296" d="M182.553,392.3c0,.782.07,2.151.141,3.129a.641.641,0,0,1-.563.673,42.4,42.4,0,0,1-7.876-.086.571.571,0,0,1-.516-.469l-.532-2.761a.641.641,0,0,1,.61-.782l8.127-.329a.579.579,0,0,1,.61.626Z" transform="translate(-124.58 -191.504)" fill="#263238"/>
        <path id="Path_23297" data-name="Path 23297" d="M149.582,227.4a54.831,54.831,0,0,1-.782,6.547h26.515l.282-6.75S155.136,226.035,149.582,227.4Z" transform="translate(-119.267 -155.576)" fill="#7f3e3b"/>
        <path id="Path_23298" data-name="Path 23298" d="M176.36,189.511a112.623,112.623,0,0,1-.188,12.233c-.219,5.319.782,6.617,0,15.33-2.91,1.7-22.049,1.635-31.459.415.571-7.532,1.267-12.609-3.833-29.558a6.282,6.282,0,0,1,5.671-8.111c1.126-.1,2.346-.2,3.543-.25a96.056,96.056,0,0,1,12.914,0c1.4.117,2.855.289,4.247.469C172.246,180.7,176.2,184.8,176.36,189.511Z" transform="translate(-117.481 -145.255)" fill="#263238"/>
        <path id="Path_23299" data-name="Path 23299" d="M232.725,216.635l-1.056-1.838a2.5,2.5,0,0,0-1.909-1.22l-3.707-.352a4.607,4.607,0,0,0-3.911,1.564l-.6.7c1.564,3.129,5.569,5.475,5.569,5.475l1.072.782a2.057,2.057,0,0,0,2.894-.391l1.564-2.1a2.346,2.346,0,0,0,.086-2.62Z" transform="translate(-135.112 -152.629)" fill="#7f3e3b"/>
        <path id="Path_23300" data-name="Path 23300" d="M187.528,194.206l.344.532c.149.227.289.461.461.7.329.469.7.931,1.072,1.392a35.87,35.87,0,0,0,2.472,2.675c.884.853,1.815,1.682,2.792,2.472s2,1.564,3.043,2.253l-.61-.282a45.277,45.277,0,0,0,4.4,1.345c1.564.4,3.129.782,4.693,1.173l4.795,1.142c1.6.391,3.215.782,4.81,1.165h0a1.752,1.752,0,0,1-.43,3.457c-1.7,0-3.363-.078-5.037-.156s-3.348-.227-5.029-.383-3.355-.36-5.045-.626a39.046,39.046,0,0,1-5.241-1.1,2.128,2.128,0,0,1-.454-.188l-.164-.094c-.634-.368-1.275-.72-1.908-1.1s-1.259-.782-1.862-1.212a33.8,33.8,0,0,1-3.535-2.753,30.707,30.707,0,0,1-3.191-3.262c-.493-.594-.97-1.2-1.424-1.862-.227-.321-.454-.665-.665-1.017-.11-.18-.211-.352-.321-.555s-.2-.344-.36-.688a3.5,3.5,0,0,1,6.117-3.4Z" transform="translate(-126.231 -148.05)" fill="#7f3e3b"/>
        <path id="Path_23301" data-name="Path 23301" d="M175.383,180.72c5.162,1.369,9.589,5.8,15.643,14.533-.845,3.567-8.6,7.689-8.6,7.689S166.263,186.844,175.383,180.72Z" transform="translate(-124.45 -145.553)" fill="#263238"/>
        <path id="Path_23302" data-name="Path 23302" d="M171.124,150.881c.188.54.634.892.986.782s.477-.618.282-1.158-.634-.9-.986-.782S170.929,150.342,171.124,150.881Z" transform="translate(-124.11 -138.796)" fill="#263238"/>
        <path id="Path_23303" data-name="Path 23303" d="M171.33,149.615l1.15-.735S172.183,150.077,171.33,149.615Z" transform="translate(-124.175 -138.617)" fill="#263238"/>
        <path id="Path_23304" data-name="Path 23304" d="M171.67,152.5a16.886,16.886,0,0,0,3.129,2.9,2.268,2.268,0,0,1-1.783.9Z" transform="translate(-124.249 -139.406)" fill="#630f0f"/>
        <path id="Path_23305" data-name="Path 23305" d="M169.209,145.162a.289.289,0,0,0,.2-.133.336.336,0,0,0-.125-.454,3.543,3.543,0,0,0-3.09-.352.305.305,0,0,0-.141.43.36.36,0,0,0,.454.164,2.808,2.808,0,0,1,2.44.305.36.36,0,0,0,.266.039Z" transform="translate(-123.016 -137.558)" fill="#263238"/>
        <path id="Path_23306" data-name="Path 23306" d="M147.254,151.7c2.581,6.32,3.535,9.042,7.931,11.427,6.609,3.582,13.844-.508,13.211-7.36-.563-6.163-4.693-15.456-11.9-16.246a8.745,8.745,0,0,0-9.237,12.178Z" transform="translate(-118.769 -136.56)" fill="#7f3e3b"/>
        <path id="Path_23307" data-name="Path 23307" d="M160.62,150.754c2.12,4.646,1.846,17.818-9.988,13.735s-11.005-10.5-7.822-15.643c-6.422-5.749,1.877-10.309,9.5-12.382S166.635,136.253,160.62,150.754Z" transform="translate(-117.462 -135.759)" fill="#263238"/>
        <path id="Path_23308" data-name="Path 23308" d="M148.616,153.293a5.053,5.053,0,1,1-5.96-3.911A5.053,5.053,0,0,1,148.616,153.293Z" transform="translate(-117.049 -138.704)" fill="#0091ff"/>
        <path id="Path_23309" data-name="Path 23309" d="M140.033,159.908c2.346-4.693.438-10.528-3.2-14.3-6.883-7.141-16.426-2.448-13.766,4.615,3.129,8.424-13.359,17.083-3.747,22.073,9.386,4.889,25.029-3.731,20.634-12.217C139.978,160,140.01,160,140.033,159.908Z" transform="translate(-112.182 -137.13)" fill="#263238"/>
        <path id="Path_23310" data-name="Path 23310" d="M162.708,154.192a4.693,4.693,0,0,0,3.129,2.19c1.564.25,2.081-1.564,1.384-3.316-.634-1.564-2.221-3.559-3.7-3.011S161.77,152.706,162.708,154.192Z" transform="translate(-122.178 -138.853)" fill="#7f3e3b"/>
        <path id="Path_23311" data-name="Path 23311" d="M144.982,180c-4.63.712-6.484,2.12-10.262,11.42,1.713,3.465,9.746,6.789,9.746,6.789S149.8,186.195,144.982,180Z" transform="translate(-116.2 -145.396)" fill="#263238"/>
        <path id="Path_23312" data-name="Path 23312" d="M175.018,237.717a127.564,127.564,0,0,1-28.541-.063.649.649,0,0,1-.493-.907c.235-.548.461-1.1.688-1.643a.61.61,0,0,1,.618-.375,125.217,125.217,0,0,0,27.438,0,.618.618,0,0,1,.665.571c.055.571.117,1.134.172,1.705a.641.641,0,0,1-.548.712Z" transform="translate(-118.642 -157.317)" fill="#263238"/>
      </g>
    </g>
  </g>
</svg>
