<?xml version="1.0" encoding="UTF-8"?><svg id="Layer_2" xmlns="http://www.w3.org/2000/svg" viewBox="0 0 48 48"><defs><style>.cls-1{stroke:#b3b3b3;stroke-miterlimit:10;stroke-width:.49px;}.cls-1,.cls-2{fill:none;}.cls-3{fill:#b3b3b3;}</style></defs><g id="Layer_1-2"><g><rect class="cls-2" width="48" height="48"/><g><path class="cls-3" d="M44.79,40.05c-2.83-2.8-5.64-5.62-8.45-8.44-1.26-1.27-2.71-1.61-4.39-.98-.1,.04-.29,.04-.35-.02-1.2-1.19-2.4-2.38-3.51-3.5,.75-1.22,1.56-2.34,2.16-3.56,1.63-3.29,1.99-6.77,1.17-10.35-.78-3.41-2.54-6.23-5.2-8.49-1.72-1.46-3.67-2.53-5.86-3.09-1.09-.28-2.23-.42-3.34-.62h-1.89c-.71,.1-1.43,.16-2.12,.3-3.37,.71-6.26,2.29-8.52,4.89C.67,10.6-.5,15.69,1.24,21.22c1.91,6.06,6.18,9.74,12.45,10.89,3.99,.74,7.73-.11,11.14-2.34,.58-.38,1.13-.82,1.67-1.21,1.24,1.24,2.46,2.46,3.7,3.7-.71,1.58-.54,3.08,.72,4.35,3.06,3.1,6.14,6.18,9.24,9.24,1.51,1.49,3.61,1.51,5.14,.16,.68-.6,1-1.39,1.2-2.25v-.9c-.2-1.17-.9-2.01-1.71-2.81Zm-28.51-9.78c-7.49,0-13.66-6.14-13.69-13.64-.03-7.45,6.08-13.57,13.52-13.54,7.5,.03,13.64,6.14,13.67,13.62,.03,7.47-6.03,13.56-13.5,13.57Zm27.99,13.68c-.27,.6-.85,.95-1.57,1.03-.37-.21-.8-.35-1.09-.64-3.09-3.05-6.15-6.12-9.21-9.19-.71-.71-.71-1.68-.06-2.33,.65-.65,1.61-.63,2.33,.08,3.07,3.06,6.14,6.13,9.21,9.2,.56,.56,.68,1.21,.39,1.85ZM27.45,16c-.91-1.46-2.01-2.75-3.37-3.82-2.81-2.19-5.98-3.21-9.53-2.7-4.26,.61-7.39,2.98-9.65,6.57-.27,.42-.27,.85,0,1.26,.28,.42,.55,.86,.86,1.26,2.64,3.4,6.06,5.3,10.52,5.45,.48-.04,1.08-.06,1.67-.16,4.18-.68,7.26-2.99,9.5-6.51,.29-.45,.28-.89,0-1.34Zm-20.47,.68c1.9-2.72,4.37-4.54,7.7-5.07-2.35,.94-3.75,2.62-3.69,5.2,.05,2.45,1.43,4.04,3.67,4.93-3.31-.53-5.78-2.34-7.67-5.06Zm9.21,3.13c-1.73,0-3.14-1.41-3.12-3.15,.01-1.72,1.4-3.1,3.12-3.1,1.72,0,3.11,1.38,3.12,3.1,.02,1.73-1.39,3.15-3.12,3.15Zm1.18,2.01c2.6-.96,4-2.6,4.03-4.99,.03-2.59-1.33-4.28-3.7-5.21,3.32,.52,5.78,2.34,7.7,5.06-1.96,2.83-4.56,4.66-8.02,5.14Z"/><path class="cls-1" d="M44.79,40.05c-2.83-2.8-5.64-5.62-8.45-8.44-1.26-1.27-2.71-1.61-4.39-.98-.1,.04-.29,.04-.35-.02-1.2-1.19-2.4-2.38-3.51-3.5,.75-1.22,1.56-2.34,2.16-3.56,1.63-3.29,1.99-6.77,1.17-10.35-.78-3.41-2.54-6.23-5.2-8.49-1.72-1.46-3.67-2.53-5.86-3.09-1.09-.28-2.23-.42-3.34-.62h-1.89c-.71,.1-1.43,.16-2.12,.3-3.37,.71-6.26,2.29-8.52,4.89C.67,10.6-.5,15.69,1.24,21.22c1.91,6.06,6.18,9.74,12.45,10.89,3.99,.74,7.73-.11,11.14-2.34,.58-.38,1.13-.82,1.67-1.21,1.24,1.24,2.46,2.46,3.7,3.7-.71,1.58-.54,3.08,.72,4.35,3.06,3.1,6.14,6.18,9.24,9.24,1.51,1.49,3.61,1.51,5.14,.16,.68-.6,1-1.39,1.2-2.25v-.9c-.2-1.17-.9-2.01-1.71-2.81Zm-28.51-9.78c-7.49,0-13.66-6.14-13.69-13.64-.03-7.45,6.08-13.57,13.52-13.54,7.5,.03,13.64,6.14,13.67,13.62,.03,7.47-6.03,13.56-13.5,13.57Zm27.99,13.68c-.27,.6-.85,.95-1.57,1.03-.37-.21-.8-.35-1.09-.64-3.09-3.05-6.15-6.12-9.21-9.19-.71-.71-.71-1.68-.06-2.33,.65-.65,1.61-.63,2.33,.08,3.07,3.06,6.14,6.13,9.21,9.2,.56,.56,.68,1.21,.39,1.85ZM27.45,16c-.91-1.46-2.01-2.75-3.37-3.82-2.81-2.19-5.98-3.21-9.53-2.7-4.26,.61-7.39,2.98-9.65,6.57-.27,.42-.27,.85,0,1.26,.28,.42,.55,.86,.86,1.26,2.64,3.4,6.06,5.3,10.52,5.45,.48-.04,1.08-.06,1.67-.16,4.18-.68,7.26-2.99,9.5-6.51,.29-.45,.28-.89,0-1.34Zm-20.47,.68c1.9-2.72,4.37-4.54,7.7-5.07-2.35,.94-3.75,2.62-3.69,5.2,.05,2.45,1.43,4.04,3.67,4.93-3.31-.53-5.78-2.34-7.67-5.06Zm9.21,3.13c-1.73,0-3.14-1.41-3.12-3.15,.01-1.72,1.4-3.1,3.12-3.1,1.72,0,3.11,1.38,3.12,3.1,.02,1.73-1.39,3.15-3.12,3.15Zm1.18,2.01c2.6-.96,4-2.6,4.03-4.99,.03-2.59-1.33-4.28-3.7-5.21,3.32,.52,5.78,2.34,7.7,5.06-1.96,2.83-4.56,4.66-8.02,5.14Z"/></g></g></g></svg>