<?xml version="1.0" encoding="UTF-8"?><svg id="Layer_2" xmlns="http://www.w3.org/2000/svg" viewBox="0 0 40 40"><defs><style>.cls-1{fill:#0091ff;}.cls-2{fill:none;}</style></defs><g id="Layer_1-2"><g><rect class="cls-2" width="40" height="40"/><g><path class="cls-1" d="M19.35,30.22H.19V4.66H30.81c.22-3.21,2.75-4.55,4.66-4.48,2.23,.08,4.09,1.8,4.31,4.06,.2,2.13-1.17,4.35-3.82,4.84v.38c0,3.93,0,7.85,0,11.78,0,.24,.06,.41,.25,.58,3.1,2.82,4.29,6.31,3.22,10.35-1.07,4.04-3.81,6.56-7.91,7.42-5.84,1.23-11.58-3.09-12.11-9.01-.01-.12-.03-.23-.05-.37Zm0-1.3l.15-1.26h-1.42v-7.63h3.83v2.71c3.78-3.66,8.01-4.36,12.73-2.07V9.18l-2.08-.87c-1.15,1.15-2.35,2.36-3.56,3.56-.19,.19-.25,.34-.17,.62,.23,.8-.02,1.48-.66,1.99-.63,.5-1.34,.56-2.06,.19-.69-.35-1.19-1.11-1-1.83,.19-.67-.11-1-.53-1.36-.13-.11-.25-.24-.37-.37-.14-.16-.28-.2-.51-.15-.35,.07-.74,.07-1.09,0-.24-.05-.36,0-.51,.15-.91,.92-1.82,1.83-2.74,2.74-.16,.16-.19,.29-.12,.52,.26,.86-.11,1.76-.87,2.19-.76,.43-1.7,.3-2.31-.32-.62-.62-.73-1.57-.29-2.32,.44-.75,1.32-1.11,2.17-.85,.24,.07,.38,.04,.55-.14,.89-.9,1.78-1.8,2.68-2.68,.19-.19,.24-.35,.16-.62-.23-.8,.02-1.48,.66-1.99,.63-.5,1.34-.55,2.06-.19,.68,.35,1.2,1.12,.99,1.84-.2,.68,.13,1,.53,1.36,.13,.12,.25,.24,.37,.37,.14,.17,.28,.19,.52,.14,.34-.07,.72-.08,1.05,0,.26,.05,.41,0,.58-.17,1.13-1.15,2.28-2.28,3.41-3.42,.07-.07,.14-.15,.19-.21-.19-.36-.41-.67-.52-1.02-.11-.34-.29-.39-.6-.39-9.56,0-19.12,0-28.68,0h-.43V28.93H19.36Zm15.4,4.39c-2.7,3.54-7.73,3.51-10.39,0l-2.23,1.29c2.19,2.88,5,4.25,8.57,3.83,2.65-.31,4.71-1.65,6.26-3.84l-2.21-1.28Zm-5.85-12.63c-6.33,.44-10.17,7.23-7.36,12.78l2.18-1.26c-.83-2.03-.77-3.97,.31-5.83,1.08-1.85,2.75-2.87,4.86-3.17v-2.52Zm1.32,0v2.52c2.15,.3,3.8,1.34,4.87,3.2,1.07,1.86,1.12,3.81,.3,5.8l2.18,1.26c2.82-5.59-1.08-12.35-7.35-12.77Zm-.73,14c2.82,.02,5.14-2.25,5.17-5.04,.03-2.82-2.24-5.15-5.04-5.18-2.84-.03-5.17,2.25-5.19,5.06-.02,2.82,2.26,5.14,5.06,5.16ZM38.51,4.67c0-1.76-1.43-3.21-3.19-3.21-1.75,0-3.19,1.42-3.2,3.16-.01,1.77,1.41,3.22,3.17,3.23,1.76,.01,3.21-1.42,3.22-3.18ZM19.36,26.48c.23-.1,.49-.13,.54-.25,.43-.95,.92-1.89,.73-2.99-.03-.19,0-.4,0-.6v-1.33h-1.26v5.17Zm4.45-17.35c0-.35-.29-.64-.64-.63-.35,0-.64,.29-.63,.64,0,.35,.29,.64,.64,.63,.35,0,.64-.29,.63-.64Zm3.84,3.85c0-.35-.27-.64-.62-.65-.35,0-.64,.27-.65,.62,0,.35,.27,.64,.62,.65,.34,0,.64-.27,.65-.62Zm-9.59,1.89c0-.35-.3-.63-.65-.62-.35,0-.63,.3-.62,.65,0,.35,.3,.63,.65,.62,.35,0,.63-.31,.62-.65Z"/><path class="cls-1" d="M12.96,27.65v-10.18h3.79v10.18h-3.79Zm2.51-1.27v-7.63h-1.23v7.63h1.23Z"/><path class="cls-1" d="M2.75,21.29h3.79v6.34H2.75v-6.34Zm1.28,1.28v3.78h1.23v-3.78h-1.23Z"/><path class="cls-1" d="M7.86,22.57h3.79v5.06h-3.79v-5.06Zm1.28,1.28v2.51h1.23v-2.51h-1.23Z"/><path class="cls-1" d="M14.21,7.24v1.23H5.31v-1.23H14.21Z"/><path class="cls-1" d="M14.21,9.8v1.23H5.3v-1.23H14.21Z"/><path class="cls-1" d="M14.21,12.35v1.23H5.3v-1.23H14.21Z"/><path class="cls-1" d="M5.29,16.13v-1.23H14.21v1.23H5.29Z"/><path class="cls-1" d="M3.98,7.24v1.23h-1.24v-1.23h1.24Z"/><path class="cls-1" d="M3.98,9.8v1.23h-1.23v-1.23h1.23Z"/><path class="cls-1" d="M3.98,12.36v1.22h-1.24v-1.22h1.24Z"/><path class="cls-1" d="M2.74,14.89h1.22v1.24h-1.22v-1.24Z"/><path class="cls-1" d="M25.73,29.57c0-2.11,1.74-3.82,3.85-3.82,2.11,0,3.83,1.74,3.82,3.85,0,2.11-1.74,3.83-3.85,3.82-2.11,0-3.83-1.74-3.82-3.85Zm6.39,.02c0-1.41-1.15-2.56-2.56-2.56-1.39,0-2.54,1.14-2.55,2.53,0,1.41,1.14,2.57,2.54,2.58,1.41,0,2.57-1.14,2.57-2.55Z"/></g></g></g></svg>