<?xml version="1.0" encoding="UTF-8"?><svg id="Layer_2" xmlns="http://www.w3.org/2000/svg" viewBox="0 0 48 48"><defs><style>.cls-1{stroke:#b3b3b3;stroke-miterlimit:10;stroke-width:.61px;}.cls-1,.cls-2{fill:none;}.cls-3{fill:#b3b3b3;}</style></defs><g id="Layer_1-2"><g><rect class="cls-2" width="48" height="48"/><g><path class="cls-3" d="M46.77,43.94c-.03-1.04,.03-2.1-.15-3.11-.57-3.3-2.43-5.67-5.44-7.15-.13-.07-.27-.28-.27-.43-.03-.81-.01-1.62-.01-2.43,0-2.3-1.57-3.86-3.86-3.86-1.82,0-3.64,0-5.46,0-.16,0-.31-.01-.41-.02,.49-1.26,.97-2.5,1.46-3.73,.06-.15,.18-.28,.3-.38,.88-.72,1.78-1.4,2.64-2.14,.83-.72,1.12-1.67,.82-2.74-.29-1.04-.99-1.69-2.06-1.94-.14-.03-.28-.07-.44-.11,.06-.18,.11-.33,.16-.47,.52-1.44,1.08-2.86,1.55-4.31,1.5-4.68-1.86-9.65-6.76-9.83-3.24-.11-6.49-.07-9.72,.18-3.65,.28-7.02,1.59-10.12,3.54-.21,.13-.42,.5-.39,.73,.03,.23,.31,.51,.55,.62,.48,.23,1.01,.34,1.52,.52,1.22,.42,1.7,1.39,1.29,2.6-.33,.96-.27,1.89,.19,2.8,.54,1.06,1.07,2.13,1.6,3.2,.07,.14,.13,.29,.2,.44-.08,.03-.12,.06-.16,.06-1.18,.24-1.95,.93-2.21,2.11-.27,1.19,.2,2.11,1.14,2.85,.78,.61,1.56,1.24,2.33,1.86,.12,.09,.25,.2,.3,.33,.5,1.26,.99,2.52,1.49,3.81,.02,0,0,0,0,0-2.02,0-4.04,0-6.06,.01-1.82,.01-3.33,1.25-3.59,3.05-.14,.99-.09,2.01-.07,3.02,0,.42-.14,.6-.5,.78-3.06,1.55-4.88,4.03-5.29,7.44-.17,1.45-.08,2.93-.1,4.4-.01,.96,.18,1.14,1.15,1.14H45.62c.11,0,.21,0,.32,0,.54-.02,.82-.28,.83-.83,.01-.67,.02-1.35,0-2.02Zm-39.69,1.34H2.69c.07-1.87-.2-3.72,.45-5.52,.67-1.86,1.83-3.3,3.51-4.32,.13-.08,.26-.14,.43-.22v10.07Zm27.84-27.12c.22,.51,.09,1.06-.36,1.45-.4,.34-.82,.66-1.28,1.03,.11-1.13,.21-2.17,.31-3.21,.63-.06,1.11,.2,1.34,.73Zm-21.58,1.34c-.39-.37-.46-.85-.25-1.35,.21-.5,.66-.75,1.33-.73,.1,1.05,.2,2.09,.31,3.24-.51-.42-.98-.76-1.39-1.15Zm1.31-5.56c-.44-.88-.9-1.7-1.24-2.56-.15-.37-.17-.86-.07-1.25,.62-2.3,.03-3.67-2.16-4.68,.13-.08,.23-.16,.34-.21,3.17-1.61,6.54-2.46,10.1-2.53,2.25-.04,4.5-.02,6.75,0,4.19,.03,7.1,4.05,5.82,8.03-.2,.61-.43,1.2-.69,1.81-.3-2.3-1.8-3.96-2.97-5.79-.29-.45-.72-.51-1.14-.18-.53,.41-1.06,.83-1.58,1.26-1.19,.98-2.55,1.47-4.1,1.48-1.51,.01-2.88,.49-4.13,1.33-1.63,1.09-3.26,2.17-4.93,3.29Zm1.29,1.1c.01-.11,.1-.25,.2-.31,1.55-1.04,3.09-2.08,4.66-3.1,.82-.53,1.76-.83,2.73-.82,2.12,0,3.95-.7,5.53-2.09,.19-.17,.4-.32,.59-.47,1.99,2.2,2.83,4.73,2.34,7.69h-.67c-1.82,0-3.64,0-5.46,0-.94,0-1.12,.18-1.13,1.12,0,.09,0,.18,0,.35h-1.47c0-.22,0-.41,0-.6-.01-.6-.27-.86-.88-.87-1.97,0-3.95,0-5.92,0h-.55c0-.32-.02-.61,0-.89Zm13.19,4.7c-.02,.35-.3,.58-.66,.59-.52,.02-1.04,.02-1.56,0-.42-.02-.69-.31-.7-.76-.01-.7,0-1.4,0-2.15h2.92c0,.78,.03,1.55-.01,2.32Zm-7.34-.07c-.02,.4-.29,.64-.69,.66-.5,.02-1.01,.02-1.51,0-.42-.02-.69-.27-.71-.69-.03-.73,0-1.46,0-2.22h2.93c0,.76,.02,1.51,0,2.25Zm-5.84-1.81c0-.13,0-.27,0-.45h1.45c0,.63,0,1.25,0,1.87,0,1.66,.86,2.53,2.51,2.53,.38,0,.77,0,1.15,0,1.26-.02,2.2-.95,2.22-2.21,0-.23,0-.45,0-.7h1.47c0,.23,0,.46,0,.7,.02,1.26,.96,2.19,2.22,2.21,.49,0,.98,.01,1.47,0,1.23-.03,2.16-.97,2.18-2.2,.01-.72,0-1.43,0-2.18h1.47c-.03,.54-.05,1.08-.11,1.62-.29,2.68-1.09,5.19-2.41,7.54-.16,.28-.34,.37-.65,.37-3.27-.01-6.55-.01-9.82,0-.31,0-.49-.08-.65-.37-1.53-2.71-2.35-5.63-2.5-8.73Zm23.49,27.43H8.57v-.52c0-4.62,0-9.24,0-13.86,0-1.62,.87-2.48,2.5-2.48,8.61,0,17.23,0,25.84,0,1.66,0,2.51,.86,2.51,2.52,0,4.61,0,9.21,0,13.82v.53Zm5.88,.03h-4.38v-10.11c1.07,.54,1.93,1.27,2.65,2.18,1.12,1.43,1.7,3.06,1.73,4.88,.02,.99,0,1.99,0,3.05Zm-21.33-8.08c-1.6,.01-2.91,1.33-2.91,2.93,0,1.63,1.31,2.95,2.94,2.95,1.62,0,2.94-1.33,2.94-2.95,0-1.62-1.34-2.94-2.96-2.93Zm.05,4.4c-.8,.01-1.47-.63-1.49-1.43-.02-.8,.62-1.48,1.42-1.5,.82-.02,1.51,.64,1.51,1.46,0,.8-.64,1.47-1.44,1.48Zm-3.92-11.21c-.36-.36-.69-.69-1.02-1.03-1,.99-1.99,1.96-2.97,2.95-.27,.27-.29,.65-.02,.92,.98,1,1.99,1.98,2.97,2.94,.34-.32,.68-.64,1.06-1.01-.81-.8-1.59-1.58-2.41-2.4,.8-.8,1.59-1.58,2.39-2.37Zm8.86-.96c-.34,.31-.68,.62-1.08,.98,.81,.8,1.6,1.58,2.42,2.39-.81,.8-1.6,1.58-2.37,2.34,.35,.38,.67,.72,.99,1.06,1-.99,2-1.96,2.97-2.95,.27-.27,.29-.65,.02-.92-.99-1-2-1.97-2.95-2.9Zm-2.17,.85c-.42-.31-.78-.58-1.18-.87-1.47,1.96-2.92,3.89-4.41,5.87,.41,.31,.78,.59,1.18,.88,1.49-1.98,2.94-3.92,4.41-5.88Z"/><path class="cls-1" d="M46.77,43.94c-.03-1.04,.03-2.1-.15-3.11-.57-3.3-2.43-5.67-5.44-7.15-.13-.07-.27-.28-.27-.43-.03-.81-.01-1.62-.01-2.43,0-2.3-1.57-3.86-3.86-3.86-1.82,0-3.64,0-5.46,0-.16,0-.31-.01-.41-.02,.49-1.26,.97-2.5,1.46-3.73,.06-.15,.18-.28,.3-.38,.88-.72,1.78-1.4,2.64-2.14,.83-.72,1.12-1.67,.82-2.74-.29-1.04-.99-1.69-2.06-1.94-.14-.03-.28-.07-.44-.11,.06-.18,.11-.33,.16-.47,.52-1.44,1.08-2.86,1.55-4.31,1.5-4.68-1.86-9.65-6.76-9.83-3.24-.11-6.49-.07-9.72,.18-3.65,.28-7.02,1.59-10.12,3.54-.21,.13-.42,.5-.39,.73,.03,.23,.31,.51,.55,.62,.48,.23,1.01,.34,1.52,.52,1.22,.42,1.7,1.39,1.29,2.6-.33,.96-.27,1.89,.19,2.8,.54,1.06,1.07,2.13,1.6,3.2,.07,.14,.13,.29,.2,.44-.08,.03-.12,.06-.16,.06-1.18,.24-1.95,.93-2.21,2.11-.27,1.19,.2,2.11,1.14,2.85,.78,.61,1.56,1.24,2.33,1.86,.12,.09,.25,.2,.3,.33,.5,1.26,.99,2.52,1.49,3.81,.02,0,0,0,0,0-2.02,0-4.04,0-6.06,.01-1.82,.01-3.33,1.25-3.59,3.05-.14,.99-.09,2.01-.07,3.02,0,.42-.14,.6-.5,.78-3.06,1.55-4.88,4.03-5.29,7.44-.17,1.45-.08,2.93-.1,4.4-.01,.96,.18,1.14,1.15,1.14H45.62c.11,0,.21,0,.32,0,.54-.02,.82-.28,.83-.83,.01-.67,.02-1.35,0-2.02Zm-39.69,1.34H2.69c.07-1.87-.2-3.72,.45-5.52,.67-1.86,1.83-3.3,3.51-4.32,.13-.08,.26-.14,.43-.22v10.07Zm27.84-27.12c.22,.51,.09,1.06-.36,1.45-.4,.34-.82,.66-1.28,1.03,.11-1.13,.21-2.17,.31-3.21,.63-.06,1.11,.2,1.34,.73Zm-21.58,1.34c-.39-.37-.46-.85-.25-1.35,.21-.5,.66-.75,1.33-.73,.1,1.05,.2,2.09,.31,3.24-.51-.42-.98-.76-1.39-1.15Zm1.31-5.56c-.44-.88-.9-1.7-1.24-2.56-.15-.37-.17-.86-.07-1.25,.62-2.3,.03-3.67-2.16-4.68,.13-.08,.23-.16,.34-.21,3.17-1.61,6.54-2.46,10.1-2.53,2.25-.04,4.5-.02,6.75,0,4.19,.03,7.1,4.05,5.82,8.03-.2,.61-.43,1.2-.69,1.81-.3-2.3-1.8-3.96-2.97-5.79-.29-.45-.72-.51-1.14-.18-.53,.41-1.06,.83-1.58,1.26-1.19,.98-2.55,1.47-4.1,1.48-1.51,.01-2.88,.49-4.13,1.33-1.63,1.09-3.26,2.17-4.93,3.29Zm1.29,1.1c.01-.11,.1-.25,.2-.31,1.55-1.04,3.09-2.08,4.66-3.1,.82-.53,1.76-.83,2.73-.82,2.12,0,3.95-.7,5.53-2.09,.19-.17,.4-.32,.59-.47,1.99,2.2,2.83,4.73,2.34,7.69h-.67c-1.82,0-3.64,0-5.46,0-.94,0-1.12,.18-1.13,1.12,0,.09,0,.18,0,.35h-1.47c0-.22,0-.41,0-.6-.01-.6-.27-.86-.88-.87-1.97,0-3.95,0-5.92,0h-.55c0-.32-.02-.61,0-.89Zm13.19,4.7c-.02,.35-.3,.58-.66,.59-.52,.02-1.04,.02-1.56,0-.42-.02-.69-.31-.7-.76-.01-.7,0-1.4,0-2.15h2.92c0,.78,.03,1.55-.01,2.32Zm-7.34-.07c-.02,.4-.29,.64-.69,.66-.5,.02-1.01,.02-1.51,0-.42-.02-.69-.27-.71-.69-.03-.73,0-1.46,0-2.22h2.93c0,.76,.02,1.51,0,2.25Zm-5.84-1.81c0-.13,0-.27,0-.45h1.45c0,.63,0,1.25,0,1.87,0,1.66,.86,2.53,2.51,2.53,.38,0,.77,0,1.15,0,1.26-.02,2.2-.95,2.22-2.21,0-.23,0-.45,0-.7h1.47c0,.23,0,.46,0,.7,.02,1.26,.96,2.19,2.22,2.21,.49,0,.98,.01,1.47,0,1.23-.03,2.16-.97,2.18-2.2,.01-.72,0-1.43,0-2.18h1.47c-.03,.54-.05,1.08-.11,1.62-.29,2.68-1.09,5.19-2.41,7.54-.16,.28-.34,.37-.65,.37-3.27-.01-6.55-.01-9.82,0-.31,0-.49-.08-.65-.37-1.53-2.71-2.35-5.63-2.5-8.73Zm23.49,27.43H8.57v-.52c0-4.62,0-9.24,0-13.86,0-1.62,.87-2.48,2.5-2.48,8.61,0,17.23,0,25.84,0,1.66,0,2.51,.86,2.51,2.52,0,4.61,0,9.21,0,13.82v.53Zm5.88,.03h-4.38v-10.11c1.07,.54,1.93,1.27,2.65,2.18,1.12,1.43,1.7,3.06,1.73,4.88,.02,.99,0,1.99,0,3.05Zm-21.33-8.08c-1.6,.01-2.91,1.33-2.91,2.93,0,1.63,1.31,2.95,2.94,2.95,1.62,0,2.94-1.33,2.94-2.95,0-1.62-1.34-2.94-2.96-2.93Zm.05,4.4c-.8,.01-1.47-.63-1.49-1.43-.02-.8,.62-1.48,1.42-1.5,.82-.02,1.51,.64,1.51,1.46,0,.8-.64,1.47-1.44,1.48Zm-3.92-11.21c-.36-.36-.69-.69-1.02-1.03-1,.99-1.99,1.96-2.97,2.95-.27,.27-.29,.65-.02,.92,.98,1,1.99,1.98,2.97,2.94,.34-.32,.68-.64,1.06-1.01-.81-.8-1.59-1.58-2.41-2.4,.8-.8,1.59-1.58,2.39-2.37Zm8.86-.96c-.34,.31-.68,.62-1.08,.98,.81,.8,1.6,1.58,2.42,2.39-.81,.8-1.6,1.58-2.37,2.34,.35,.38,.67,.72,.99,1.06,1-.99,2-1.96,2.97-2.95,.27-.27,.29-.65,.02-.92-.99-1-2-1.97-2.95-2.9Zm-2.17,.85c-.42-.31-.78-.58-1.18-.87-1.47,1.96-2.92,3.89-4.41,5.87,.41,.31,.78,.59,1.18,.88,1.49-1.98,2.94-3.92,4.41-5.88Z"/></g></g></g></svg>