<?xml version="1.0" encoding="UTF-8"?><svg id="Layer_2" xmlns="http://www.w3.org/2000/svg" viewBox="0 0 40 40"><defs><style>.cls-1{fill:#0091ff;}.cls-2{fill:none;}</style></defs><g id="Layer_1-2"><g><rect class="cls-2" width="40" height="40"/><g><path class="cls-1" d="M10.86,39.5c-.71-.32-1-.87-.92-1.65,.03-.26,0-.53,0-.8,0-.8,.5-1.31,1.3-1.32,.7-.01,1.4,0,2.09,0,.1,0,.2,0,.33-.02v-2.5h-.42c-1.27,0-2.54,0-3.81,0-1.95,0-3.29-1.33-3.29-3.27,0-4.52,0-9.04,0-13.56,0-1.95,1.35-3.29,3.32-3.3,.77,0,1.54,0,2.36,0,0-.3-.02-.57,.01-.83,.02-.12,.12-.26,.23-.32,.21-.11,.45-.17,.68-.25,.3-.1,.41-.28,.25-.58-.03-.06-.05-.11-.08-.17q-.35-.73,.24-1.31c.83-.83,1.66-1.64,2.47-2.48,.19-.19,.33-.22,.55-.09,.2,.12,.41,.2,.61,.3,.26,.13,.44,.04,.54-.22,.02-.06,.04-.12,.06-.18q.28-.8,1.1-.8c1.13,0,2.26,.02,3.39-.01,.37-.01,.53,.12,.61,.45,.05,.2,.12,.39,.2,.57,.09,.21,.25,.31,.49,.2,.05-.02,.09-.04,.14-.07q.83-.39,1.46,.25c.79,.79,1.57,1.59,2.37,2.36,.21,.21,.3,.38,.12,.64-.11,.17-.17,.37-.27,.55-.14,.27-.06,.46,.22,.57,.31,.13,.74,.18,.9,.41,.15,.22,.03,.63,.03,1,.88,0,1.7-.02,2.53,0,1.31,.04,2.3,.63,2.84,1.82,.2,.45,.31,.98,.31,1.47,.02,4.52,.02,9.04,.01,13.56,0,1.94-1.34,3.27-3.29,3.27-1.27,0-2.54,0-3.81,0-.14,0-.27,0-.43,0v2.52c.65,0,1.28,.03,1.9,0,1.27-.08,1.96,.37,1.84,1.83,0,.1-.01,.2,0,.3,.09,.77-.21,1.33-.92,1.65H10.86Zm-3.44-12.6h25.15v-.4c0-3.35,0-6.7,0-10.05,0-1.36-.74-2.1-2.09-2.1-6.99,0-13.99,0-20.98,0-1.35,0-2.08,.75-2.08,2.1,0,3.35,0,6.7,0,10.05v.4Zm0,1.29c0,.73-.04,1.41,0,2.1,.06,.97,.91,1.67,1.98,1.67,7.06,0,14.11,0,21.17,0,.08,0,.15,0,.23,0,.79-.07,1.53-.58,1.66-1.35,.13-.79,.1-1.6,.13-2.42H7.43ZM26.9,13.07l.04-.13c-.13-.06-.25-.14-.38-.17-.38-.07-.6-.28-.68-.65-.02-.1-.05-.2-.11-.28-.26-.37-.24-.72,.01-1.08,.15-.2,.09-.35-.09-.52-.53-.51-1.06-1.03-1.56-1.56-.19-.2-.36-.25-.58-.09-.33,.23-.67,.26-1.01,.01-.07-.05-.16-.08-.25-.1-.44-.08-.68-.35-.75-.78-.04-.26-.2-.3-.43-.3-.74,.01-1.47,.02-2.21,0-.28,0-.4,.09-.48,.35-.06,.2-.14,.49-.28,.54-.63,.24-1.26,.75-1.95,.15-.01-.01-.05,0-.1,0-.6,.61-1.23,1.22-1.83,1.85-.07,.07-.11,.28-.06,.35,.31,.44,.26,.87,0,1.3-.05,.07-.08,.16-.1,.25-.05,.33-.27,.46-.55,.54-.16,.05-.32,.13-.48,.19l.03,.14c.56,0,1.12-.01,1.69,0,.25,0,.37-.06,.45-.32,.81-2.43,3.27-3.87,5.78-3.34,1.87,.4,3.11,1.56,3.78,3.35,.04,.11,.15,.28,.23,.28,.63,.02,1.26,.01,1.89,.01Zm-1.89,20.16H15v2.47h10.01v-2.47Zm-13.82,3.77c0,.29,.02,.55,0,.8-.04,.35,.09,.44,.44,.44,5.58-.01,11.16,0,16.74,0,.13,0,.27-.01,.42-.02v-1.21H11.19Zm5.32-23.95h6.98c-.27-1.33-1.94-2.5-3.51-2.49-1.56,0-3.21,1.18-3.47,2.49Z"/><path class="cls-1" d="M.5,18.78c.09-.63,.16-1.25,.26-1.87,.32-1.91,.94-3.73,1.86-5.44,.02-.04,.04-.09,.09-.21l-1.34,.52-.46-1.16c.46-.18,.89-.36,1.32-.53,.56-.23,1.13-.45,1.69-.68,.32-.13,.62-.15,.86,.14,.24,.3,.14,.59-.05,.87-1.44,2.09-2.37,4.39-2.75,6.9-.64,4.31,.19,8.32,2.57,11.99,.08,.13,.16,.25,.26,.4l-1,.7c-.06-.07-.12-.12-.16-.18-1.77-2.63-2.8-5.52-3.07-8.68-.01-.14-.05-.27-.07-.4v-2.36Z"/><path class="cls-1" d="M39.5,21.22c-.09,.62-.16,1.25-.26,1.87-.32,1.91-.94,3.73-1.85,5.44-.02,.04-.04,.09-.09,.21l1.35-.51,.45,1.14c-.16,.08-.31,.15-.45,.21-.83,.33-1.67,.66-2.51,1-.33,.13-.65,.19-.9-.12-.26-.31-.14-.6,.06-.9,1.53-2.25,2.49-4.73,2.81-7.43,.49-4.13-.39-7.96-2.66-11.46-.06-.1-.13-.19-.19-.29-.01-.02-.01-.05-.02-.1l.98-.69c.08,.1,.15,.18,.21,.27,1.74,2.62,2.75,5.49,3.01,8.63,.01,.12,.04,.25,.07,.37v2.36Z"/><path class="cls-1" d="M21.22,.5c.64,.09,1.28,.16,1.91,.27,1.95,.33,3.8,.98,5.63,1.96l-.52-1.37,1.15-.46c.1,.22,.19,.43,.27,.63,.31,.78,.62,1.55,.93,2.33,.13,.33,.19,.65-.12,.9-.31,.25-.61,.14-.9-.07-2.24-1.53-4.7-2.48-7.39-2.81-4.12-.49-7.94,.36-11.43,2.62-.12,.08-.23,.15-.35,.23-.02,.01-.05,.01-.1,.02l-.7-1c.44-.28,.86-.56,1.29-.81,2.39-1.38,4.95-2.18,7.7-2.39,.1,0,.2-.04,.29-.06h2.36Z"/><path class="cls-1" d="M28.63,20.63l-5.12,3.66-.73-1.02,3.68-2.63-3.68-2.64,.73-1.02,5.12,3.66Z"/><path class="cls-1" d="M17.22,23.26l-.73,1.02-5.12-3.65,5.12-3.66,.73,1.02-3.68,2.63,3.68,2.63Z"/><path class="cls-1" d="M19.35,25.81l-1.22-.3,2.52-10.05,1.22,.29-2.52,10.06Z"/><path class="cls-1" d="M20.62,30.06c0,.36-.27,.62-.63,.62-.34,0-.6-.26-.61-.6,0-.36,.26-.63,.61-.64,.35,0,.63,.27,.63,.62Z"/><path class="cls-1" d="M17.48,29.44c.35,0,.62,.28,.62,.63,0,.36-.28,.62-.64,.61-.34,0-.59-.27-.6-.61,0-.36,.26-.63,.62-.63Z"/><path class="cls-1" d="M23.13,30.08c0,.36-.28,.61-.64,.6-.34-.01-.59-.27-.59-.62,0-.36,.27-.63,.63-.62,.35,0,.62,.28,.61,.64Z"/></g></g></g></svg>