<?xml version="1.0" encoding="UTF-8"?><svg id="Layer_2" xmlns="http://www.w3.org/2000/svg" viewBox="0 0 39.44 39.44"><defs><style>.cls-1{fill:#fff;}.cls-2{fill:none;}</style></defs><g id="Layer_1-2"><g><rect class="cls-2" width="39.44" height="39.44"/><path class="cls-1" d="M26.78,38.94h-.89c-.64-.18-1.25-.42-1.66-.96-.28-.37-.49-.81-.75-1.24h-7.73c-.2,.74-.58,1.36-1.24,1.74-.33,.2-.71,.31-1.07,.46h-.89c-.08-.03-.16-.06-.24-.08-1.1-.32-1.79-1.04-2.06-2.15-.18-.75-.01-1.44,.34-2.07-1.87-1.87-3.73-3.72-5.6-5.59-.06,.03-.15,.07-.24,.12-1.62,.79-3.53-.1-3.99-1.84-.02-.08-.05-.16-.08-.24,0-.3,0-.59,0-.89,.02-.03,.05-.06,.06-.09,.39-1.53,1.46-2.33,3.06-2.26,.23,.01,.27-.1,.33-.26,.47-1.13,.94-2.25,1.39-3.38,.06-.14,.06-.34,0-.48-.45-1.13-.93-2.25-1.39-3.38-.08-.21-.18-.26-.41-.25-1.29,.09-2.44-.66-2.87-1.84-.06-.17-.11-.35-.17-.52,0-.3,0-.59,0-.89,.02-.04,.05-.09,.06-.13,.3-1.24,1.09-1.96,2.32-2.2,.69-.14,1.34,.04,1.89,.36,1.89-1.89,3.74-3.74,5.61-5.61-.67-1.41-.44-2.75,.65-3.65,.96-.79,2.4-.84,3.41-.1,.53,.38,.88,.89,1.06,1.52,.24,.82,.1,1.58-.33,2.32,.5,.49,.99,.95,1.46,1.45,.18,.19,.32,.2,.54,.1,1.22-.52,2.46-1.03,3.69-1.54,.83-.35,1.66-.69,2.49-1.03-.12-1.45,.4-2.54,1.75-3.12,1.07-.46,2.29-.17,3.09,.68,.86,.92,.98,2.08,.33,3.49,1.85,1.84,3.71,3.69,5.57,5.54,1.79-.78,3.39-.31,4.09,1.19,.32,.69,.36,1.41,.1,2.13-.35,.98-1.07,1.56-2.05,1.84v7.81c.1,.04,.2,.07,.29,.1,1.13,.39,1.9,1.43,1.92,2.6,.02,1.22-.66,2.24-1.8,2.68-1.14,.44-2.34,.17-3.13-.76-.19-.23-.33-.2-.56-.1-4.77,1.99-9.54,3.97-14.31,5.95-.91,.38-1.81,.75-2.72,1.13,0,.02,0,.03,.01,.05h7.43c.04-.11,.07-.21,.11-.32,.44-1.23,1.69-2.03,2.96-1.87,1.35,.16,2.4,1.24,2.51,2.57,.11,1.31-.72,2.52-1.99,2.92-.13,.04-.25,.09-.38,.13Zm6.67-13.82c-.05-.05-.07-.09-.11-.13-2.3-2.31-4.61-4.61-6.91-6.92-.15-.15-.27-.15-.45-.07-1.84,.77-3.69,1.53-5.54,2.28-.24,.1-.37,.24-.47,.47-1.7,4.13-3.39,8.25-5.11,12.37-.19,.46-.25,.77,.2,1.12,.22,.17,.34,.24,.62,.13,5.21-2.17,10.43-4.34,15.64-6.5,.58-.24,1.15-.49,1.73-.73-.11-.74,.02-1.39,.4-2.02Zm-24.88-1.21c3.52-1.45,7-2.88,10.47-4.33,.12-.05,.22-.19,.27-.31,.78-1.88,1.56-3.76,2.34-5.63,.08-.2,.04-.3-.1-.44-1.52-1.51-3.04-3.03-4.56-4.56-.15-.15-.27-.19-.48-.1-1.86,.78-3.73,1.55-5.6,2.34-.14,.06-.29,.2-.34,.34-1.19,2.84-2.37,5.69-3.55,8.53-.04,.1-.07,.25-.03,.34,.51,1.27,1.04,2.53,1.58,3.82Zm10.01-2.85c-3.23,1.33-6.37,2.63-9.55,3.94,1.16,2.8,2.31,5.56,3.46,8.31h1.04c1.68-4.06,3.35-8.12,5.06-12.26Zm7.29-14.46s-.06,.07-.07,.1c-.86,2.07-1.72,4.14-2.56,6.22-.04,.1,.02,.28,.1,.36,.99,1.01,2.01,2.01,3,3.02,.16,.16,.29,.16,.48,.08,1.07-.45,2.14-.89,3.21-1.33,.1-.04,.19-.1,.29-.15-.05-.14-.09-.24-.13-.34-1.01-2.43-2.03-4.86-3.03-7.3-.18-.44-.35-.79-.92-.64-.11,.03-.24,0-.36-.01Zm-3.6,5.51c.03-.07,.08-.17,.13-.28,.68-1.64,1.33-3.29,2.04-4.91,.24-.54,.29-.92-.23-1.3-.18-.13-.28-.17-.47-.08-1.13,.48-2.27,.95-3.41,1.42-.77,.32-1.54,.64-2.29,.96,1.42,1.41,2.82,2.81,4.23,4.21Zm5.29,5.24c2.17,2.17,4.34,4.34,6.47,6.47-1.06-2.54-2.15-5.16-3.24-7.8-1.12,.46-2.21,.91-3.23,1.33Zm4.32-1.78c1.11,2.66,2.2,5.3,3.3,7.93,.02,0,.03-.02,.05-.02v-7.43c-.65-.17-1.19-.5-1.61-1.02-.04-.06-.18-.09-.24-.07-.49,.19-.97,.4-1.49,.61ZM7.92,25.46c-.57,.24-1.1,.46-1.64,.68,.12,.76-.05,1.42-.35,1.94,1.79,1.8,3.55,3.55,5.27,5.28-1.07-2.59-2.17-5.22-3.29-7.91ZM28.07,6.43c1.14,2.73,2.23,5.38,3.34,8.04,.51-.21,.99-.4,1.46-.6,.07-.03,.15-.14,.14-.21-.07-.69,.09-1.32,.41-1.87-1.78-1.78-3.53-3.53-5.36-5.36ZM9.11,11.61c-1.01,.42-1.92,.8-2.82,1.18,.15,1.19-.26,2.12-1.17,2.84,.38,.92,.76,1.83,1.16,2.79,.95-2.28,1.87-4.5,2.83-6.81Zm16.15,5.4c-.9-.9-1.76-1.77-2.64-2.65-.6,1.46-1.22,2.94-1.86,4.51,1.56-.64,3.04-1.26,4.51-1.86ZM15.84,7.54c-.47-.47-.89-.89-1.33-1.33-.61,.36-1.28,.5-2.02,.39-.38,.93-.76,1.83-1.17,2.83,1.57-.65,3.03-1.26,4.52-1.88Zm-9.59,3.97s.04,0,.08-.01c1.08-.45,2.16-.89,3.24-1.35,.13-.05,.25-.2,.3-.33,.31-.7,.59-1.41,.88-2.11,.16-.39,.32-.79,.49-1.19-1.67,1.67-3.33,3.34-4.99,5Zm.04,10.01c-.3,.73-.57,1.37-.84,2.02q-.32,.78,.28,1.36c.05,.05,.16,.11,.21,.09,.51-.2,1.01-.41,1.53-.63-.4-.96-.78-1.86-1.18-2.84Z"/></g></g></svg>