<?xml version="1.0" encoding="UTF-8"?><svg id="Layer_2" xmlns="http://www.w3.org/2000/svg" viewBox="0 0 39.44 39.44"><defs><style>.cls-1{fill:#fff;}.cls-2{fill:none;}</style></defs><g id="Layer_1-2"><g><rect class="cls-2" width="39.44" height="39.44"/><g><path class="cls-1" d="M8.77,10.67c.14,.56,.28,1.1,.43,1.7-.44,0-.94,0-1.44,0-.84,0-1.2,.31-1.32,1.14-.25,1.65,.85,3.08,2.51,3.24,.18,.02,.36,.02,.54,.02,5,0,10,0,15,0h.49c0-1.03,.07-2.03-.02-3-.07-.8-.87-1.39-1.69-1.43-.13,0-.26,0-.35,0,.15-.56,.29-1.11,.44-1.71,.49-.04,1.01,.11,1.49,.37,1.28,.68,1.91,1.78,1.94,3.22,.02,.84,0,1.67,0,2.56,.45,0,.86,0,1.27,0,.8,0,1.6-.02,2.4,.02,2.47,.12,4.25,1.98,4.27,4.46,.02,2.14,0,4.29,0,6.43,0,2.19,.01,4.37,0,6.56-.01,2.18-1.4,3.91-3.49,4.38-.37,.08-.76,.11-1.15,.11-6.93,0-13.86,0-20.79,0-2.27,0-4.02-1.32-4.51-3.43-.08-.36-.12-.73-.12-1.1,0-6.86,0-13.72,0-20.58,0-1.52,.89-2.69,2.31-2.94,.6-.1,1.22-.02,1.78-.02Zm-2.32,6.95c0,.27,0,.42,0,.57,0,5.28,0,10.56,0,15.83,0,.18,0,.36,.02,.54,.07,.85,.48,1.5,1.19,1.98,.52,.36,1.11,.43,1.73,.43,6.89,0,13.77,0,20.66,0,.12,0,.25,0,.37,0,1.43-.07,2.48-1.1,2.55-2.53,.04-.84,0-1.68,0-2.51,0-.05-.03-.1-.05-.17-.16,0-.31,0-.46,0-1.07,0-2.15,0-3.22,0-.84,0-1.59-.29-2.23-.84-1.14-.98-1.54-2.49-1.04-3.89,.51-1.41,1.79-2.31,3.37-2.34,1.06-.02,2.12,0,3.18,0,.14,0,.29-.01,.46-.02,0-1.11,0-2.17,0-3.22,0-.19-.01-.38-.03-.58,0-.11-.03-.22-.06-.32-.32-1.24-1.34-1.99-2.74-1.99-6.68,0-13.36,0-20.04,0-1.27,0-2.51-.04-3.67-.92Zm26.33,8.86c-1.27,0-2.52-.06-3.77,.02-.89,.06-1.48,.87-1.46,1.76,.02,.84,.66,1.62,1.49,1.65,1.22,.05,2.45,.01,3.67,.01,.02,0,.04-.04,.06-.05v-3.39Z"/><path class="cls-1" d="M22.37,7.99c0,.92-.04,1.84,.01,2.76,.04,.69-.24,1.11-.81,1.44-1.04,.6-2.06,1.22-3.09,1.83-.58,.34-1.16,.69-1.73,1.04-.46,.28-.89,.28-1.36,0-1.67-1.01-3.35-2.01-5.04-2.99-.51-.3-.6-.75-.6-1.26,0-.8,0-1.59,0-2.39,0-1.09,.02-2.17,0-3.26-.02-.67,.25-1.09,.84-1.42,1.59-.9,3.16-1.85,4.72-2.8,.52-.32,.98-.32,1.5,0,1.62,.99,3.25,1.96,4.89,2.92,.46,.27,.68,.63,.67,1.17-.02,.99,0,1.98,0,2.97Zm-10.49-1.57c0,1.35,0,2.64,.01,3.92,0,.11,.15,.25,.27,.32,1.2,.73,2.41,1.44,3.61,2.16,.22,.13,.38,.13,.6,0,1.19-.72,2.38-1.43,3.58-2.13,.23-.13,.32-.28,.32-.55-.02-1.1,0-2.2,0-3.3,0-.11-.02-.23-.03-.39-.18,.11-.31,.18-.44,.26-1.02,.63-2.03,1.26-3.05,1.9-.46,.29-.89,.29-1.35,0-1.02-.65-2.05-1.29-3.07-1.93-.12-.08-.25-.14-.43-.25Zm1.29-1.73c.95,.6,1.83,1.16,2.72,1.71,.08,.05,.25,.06,.32,.02,.91-.55,1.81-1.12,2.77-1.72-.96-.57-1.86-1.11-2.77-1.64-.07-.04-.2-.05-.26-.01-.91,.53-1.81,1.07-2.78,1.65Z"/><path class="cls-1" d="M26.66,7.26c0-.58,.01-1.15,0-1.73-.01-.43,.16-.73,.53-.95,.97-.58,1.93-1.16,2.89-1.75,.37-.22,.72-.23,1.09,0,.98,.59,1.95,1.19,2.93,1.78,.34,.2,.49,.51,.49,.89,0,1.18,0,2.36,0,3.55,0,.35-.13,.65-.44,.84-.99,.6-1.98,1.18-2.97,1.79-.38,.23-.73,.24-1.12,0-.98-.6-1.99-1.17-2.96-1.8-.22-.15-.4-.5-.43-.78-.06-.6-.02-1.21-.02-1.81Zm6.07,0c.38-1.1-.24-1.59-1.11-2.13-.78-.48-1.28-.4-2.04,.02-.91,.51-1.21,1.08-1.19,2.12,.01,.99,.27,1.55,1.16,2.06,.79,.45,1.32,.51,2.11,.02,.83-.52,1.45-1,1.08-2.09Z"/></g></g></g></svg>