<?xml version="1.0" encoding="UTF-8"?><svg id="Layer_2" xmlns="http://www.w3.org/2000/svg" viewBox="0 0 39.44 39.44"><defs><style>.cls-1{fill:#fff;}.cls-2{fill:none;}</style></defs><g id="Layer_1-2"><g><rect class="cls-2" width="39.44" height="39.44"/><g><path class="cls-1" d="M32.41,19.72c0,6.98-5.7,12.66-12.69,12.67-7,0-12.71-5.71-12.7-12.69,.02-6.98,5.72-12.65,12.71-12.64,6.99,0,12.68,5.7,12.68,12.67Zm-8.58-.02c1.01-1.26,1.28-2.63,.61-4.09-.66-1.45-1.87-2.15-3.46-2.26v-1.22h-2.54v1.25h-3.77v2.54h1.23v7.59h-1.22v2.54h3.78v1.23h2.56v-1.23c3.25-.14,4.99-3.76,2.82-6.36Z"/><path class="cls-1" d="M34.43,9.33h-6.08v-2.52h1.47c-3.26-2.58-6.96-3.77-11.09-3.52-4.13,.25-7.67,1.88-10.62,4.73-.6-.6-1.19-1.18-1.8-1.79C9.79,2.85,13.98,.96,18.86,.74c4.87-.22,9.2,1.29,13.05,4.4v-1.89h2.51v6.08Z"/><path class="cls-1" d="M11.1,30.12v2.51h-1.46c3.26,2.58,6.96,3.76,11.09,3.52,4.14-.25,7.67-1.88,10.61-4.73,.61,.59,1.2,1.17,1.81,1.77-3.5,3.39-7.68,5.28-12.57,5.5-4.87,.22-9.2-1.29-13.05-4.4v1.89h-2.52v-6.07h6.08Z"/><path class="cls-1" d="M36.75,28.4c-.83-.36-1.57-.68-2.33-1,.45-1.15,.89-2.28,1.34-3.45,.78,.27,1.55,.53,2.4,.82-.47,1.22-.93,2.4-1.41,3.63Z"/><path class="cls-1" d="M1.29,14.67c.48-1.23,.93-2.4,1.41-3.63,.81,.35,1.56,.67,2.33,1-.45,1.15-.89,2.28-1.34,3.46-.77-.27-1.55-.53-2.4-.82Z"/><path class="cls-1" d="M4.84,27c-.75,.31-1.52,.62-2.35,.96-.45-1.23-.88-2.43-1.33-3.66,.85-.27,1.63-.52,2.41-.78,.42,1.16,.84,2.3,1.27,3.48Z"/><path class="cls-1" d="M38.28,15.14c-.85,.27-1.62,.52-2.41,.78-.42-1.15-.84-2.3-1.27-3.48,.75-.31,1.51-.62,2.35-.96,.44,1.22,.88,2.42,1.33,3.66Z"/><path class="cls-1" d="M.74,21.36v-3.83c.88,.04,1.7,.08,2.51,.12v3.71H.74Z"/><path class="cls-1" d="M36.2,18.07h2.5v3.83c-.88-.04-1.69-.08-2.5-.12v-3.71Z"/><path class="cls-1" d="M18.48,15.92c.89,0,1.74-.02,2.6,0,.66,.02,1.18,.6,1.18,1.26,0,.66-.52,1.23-1.18,1.26-.86,.03-1.71,0-2.6,0v-2.53Z"/><path class="cls-1" d="M18.46,23.51v-2.53c.43,0,.86,0,1.29,0,.44,0,.87-.01,1.31,0,.66,.03,1.19,.59,1.2,1.24,0,.64-.48,1.24-1.12,1.27-.88,.04-1.76,.01-2.68,.01Z"/></g></g></g></svg>