<?xml version="1.0" encoding="UTF-8"?><svg id="Layer_2" xmlns="http://www.w3.org/2000/svg" viewBox="0 0 39.44 39.44"><defs><style>.cls-1{fill:#fff;}.cls-2{fill:none;}</style></defs><g id="Layer_1-2"><g><rect class="cls-2" width="39.44" height="39.44"/><g><path class="cls-1" d="M32.66,.79c.22,0,.44,0,.67,0,.37,.18,.75,.35,1.11,.55,.96,.53,1.9,1.09,2.86,1.59,.66,.35,1.16,.81,1.35,1.55v5.25c-.17,.54-.45,1.01-.96,1.3-1.26,.71-2.53,1.43-3.8,2.12-.22,.12-.29,.24-.29,.48,0,1.83,0,3.67,0,5.5,0,2.23,0,4.45,0,6.68,0,.14,.08,.35,.19,.41,1.14,.66,2.28,1.31,3.44,1.92,.67,.35,1.2,.8,1.4,1.56v5.25c-.19,.75-.69,1.2-1.36,1.56-1.09,.58-2.16,1.19-3.22,1.8-.74,.43-1.45,.43-2.2,0-1.11-.64-2.22-1.28-3.35-1.87-.87-.46-1.28-1.14-1.24-2.12,.02-.44,0-.88,0-1.32H12.15c0,.54,0,1.04,0,1.54,0,.79-.35,1.39-1.05,1.78-1.21,.68-2.43,1.36-3.64,2.04-.66,.37-1.31,.38-1.97,.01-1.23-.69-2.47-1.38-3.7-2.08-.67-.38-1-.96-1-1.73,0-1.49,0-2.98,0-4.47,0-.75,.33-1.33,.99-1.7,1.27-.72,2.56-1.43,3.83-2.16,.11-.06,.22-.23,.22-.35,.01-4.1,0-8.21,.01-12.31,0-.19-.05-.29-.24-.39-1.3-.71-2.59-1.43-3.87-2.16-.61-.35-.93-.91-.94-1.62-.01-1.53,0-3.06,0-4.58,0-.69,.29-1.26,.9-1.6,1.46-.83,2.95-1.62,4.42-2.43,.22,0,.44,0,.67,0,.18,.07,.37,.12,.54,.22,1.3,.72,2.6,1.44,3.9,2.18,.55,.31,.86,.81,.91,1.44,.03,.39,.02,.79,.02,1.18,0,.21,0,.43,0,.64h15.13c0-.4,.02-.78,0-1.16-.09-1.12,.38-1.87,1.38-2.37,1.35-.68,2.66-1.42,3.99-2.13ZM12.15,7.76c0,.55,0,1.05,0,1.56,0,.74-.3,1.34-.96,1.72-1.25,.71-2.5,1.42-3.77,2.11-.26,.14-.33,.28-.33,.56,0,2.71,0,5.42,0,8.13,0,1.34,0,2.69,0,4.03,0,.12,.07,.3,.16,.35,1.21,.69,2.42,1.38,3.65,2.03,.87,.46,1.29,1.14,1.25,2.12-.02,.44,0,.88,0,1.33h15.13c0-.53,0-1.03,0-1.53,0-.76,.3-1.37,.98-1.75,1.28-.73,2.58-1.44,3.86-2.17,.11-.06,.21-.23,.21-.35,.02-.89,0-1.77,0-2.66,0-3.19,0-6.38,0-9.57,0-.14-.07-.35-.18-.41-1.19-.69-2.39-1.37-3.61-2.01-.9-.47-1.32-1.17-1.26-2.18,.02-.42,0-.85,0-1.28H12.15ZM28.58,30.85c-.02,.1-.03,.15-.03,.2,0,1.17,0,2.34,0,3.51,0,.34,.17,.54,.46,.7,1.17,.65,2.34,1.31,3.5,1.97,.31,.18,.59,.18,.9,0,1.18-.67,2.36-1.33,3.54-1.99,.3-.17,.44-.4,.44-.75,0-.9,0-1.8,0-2.7,0-.3,0-.6,0-.95-.18,.09-.3,.15-.41,.22-1,.55-1.99,1.13-3.01,1.65-.29,.15-.39,.29-.37,.6,.03,.48,.01,.96,0,1.44,0,.45-.25,.71-.63,.71-.38,0-.62-.26-.63-.7,0-.28-.04-.57,0-.85,.12-.74-.15-1.15-.85-1.47-.99-.45-1.92-1.05-2.92-1.61Zm-26.53,0c0,.16,0,.27,0,.37,0,1.07,0,2.14,0,3.21,0,.39,.15,.64,.49,.83,1.15,.63,2.3,1.27,3.44,1.93,.35,.21,.65,.2,1,0,1.14-.66,2.29-1.3,3.44-1.93,.35-.19,.48-.45,.48-.84-.01-1.07,0-2.14,0-3.21,0-.11-.02-.21-.03-.34-.09,.04-.15,.06-.2,.09-1.14,.62-2.29,1.25-3.43,1.88-.08,.04-.13,.19-.14,.29-.01,.54,0,1.08-.01,1.62,0,.17-.05,.42-.16,.5-.18,.12-.45,.21-.66,.17-.29-.05-.42-.32-.43-.62,0-.55,0-1.11-.01-1.66,0-.11-.06-.28-.15-.32-1.07-.6-2.15-1.19-3.23-1.78-.11-.06-.23-.12-.4-.2ZM28.6,5.63c-.02,.09-.05,.13-.05,.18,0,1.18-.02,2.36,.01,3.54,0,.21,.19,.5,.38,.61,1.19,.71,2.41,1.37,3.62,2.06,.27,.15,.53,.15,.8,0,1.21-.68,2.42-1.36,3.63-2.04,.26-.15,.39-.36,.38-.66,0-.49,0-.98,0-1.48,0-.72,0-1.44,0-2.21-.16,.08-.26,.13-.37,.19-1.09,.59-2.18,1.19-3.26,1.79-.08,.04-.14,.19-.14,.29-.01,.54,0,1.08,0,1.62,0,.46-.27,.75-.65,.74-.37,0-.61-.28-.61-.73,0-.54,0-1.08,0-1.62,0-.11-.08-.26-.17-.31-.64-.36-1.29-.71-1.94-1.06-.54-.29-1.07-.59-1.62-.91Zm-26.55-.03c0,1.26,0,2.44,0,3.63,0,.38,.15,.62,.47,.8,1.16,.64,2.32,1.29,3.47,1.95,.34,.2,.63,.19,.96,0,1.13-.65,2.26-1.29,3.41-1.91,.37-.2,.53-.46,.53-.88-.02-1.06,0-2.12,0-3.18,0-.11-.01-.21-.02-.36-.12,.05-.21,.09-.29,.13-1.11,.61-2.22,1.21-3.33,1.83-.08,.04-.14,.19-.14,.29-.01,.53,0,1.06,0,1.59,0,.48-.22,.76-.61,.77-.39,.01-.65-.29-.65-.77,0-.53,0-1.06,0-1.59,0-.11-.08-.25-.17-.3-.62-.35-1.25-.68-1.87-1.03-.56-.31-1.11-.62-1.73-.96Zm35.05-1.29c-.09-.06-.14-.11-.2-.14-1.17-.66-2.34-1.31-3.5-1.98-.3-.17-.57-.16-.87,0-1.15,.66-2.32,1.3-3.47,1.95-.07,.04-.13,.09-.22,.16,1.23,.69,2.43,1.36,3.64,2.03,.31,.17,.64,.18,.96,0,1.22-.67,2.43-1.35,3.67-2.04Zm-26.47-.02c-1.34-.75-2.62-1.47-3.92-2.17-.15-.08-.44-.02-.62,.06-.43,.2-.84,.46-1.26,.69-.82,.46-1.65,.92-2.52,1.41,1.28,.71,2.51,1.41,3.74,2.08,.32,.18,.67,.11,.99-.07,.49-.28,.99-.55,1.48-.83,.68-.38,1.37-.77,2.11-1.18Zm0,25.24c-1.32-.74-2.56-1.45-3.81-2.12-.18-.09-.48-.11-.65-.02-1.28,.68-2.53,1.4-3.8,2.11,.04,.04,.06,.08,.09,.1,1.18,.66,2.35,1.33,3.54,1.98,.33,.18,.69,.16,1.02-.02,.4-.22,.79-.44,1.19-.66,.79-.44,1.58-.89,2.43-1.37Zm26.5,0c-1.25-.7-2.45-1.36-3.63-2.05-.38-.22-.7-.23-1.06,.01-.24,.16-.51,.29-.77,.44-.93,.52-1.86,1.05-2.8,1.57,.04,.05,.06,.09,.09,.1,1.17,.66,2.33,1.33,3.52,1.95,.25,.13,.61,.08,.92,.04,.18-.02,.35-.17,.52-.27,1.05-.59,2.1-1.18,3.21-1.8Z"/><path class="cls-1" d="M28.6,24.32c-.1,1.72-.92,3.14-2.66,3.89-1.73,.75-3.37,.45-4.76-.82-1.01-.92-1.95-1.92-2.9-2.89-.54-.55-.88-1.22-1.05-1.96-.05-.2-.13-.28-.32-.32-.82-.19-1.53-.6-2.13-1.2-.87-.87-1.75-1.74-2.61-2.61-1.33-1.35-1.68-3.26-.93-4.94,.75-1.68,2.42-2.7,4.3-2.6,1.02,.05,1.93,.41,2.67,1.12,1.02,.98,2.02,1.99,3.01,3,.52,.53,.84,1.18,1,1.9,.05,.22,.14,.29,.35,.34,.78,.19,1.47,.56,2.04,1.13,.92,.91,1.84,1.82,2.74,2.74,.83,.85,1.23,1.88,1.26,3.22Zm-11.19-4.52c-.26-.17-.55-.3-.77-.5-.94-.91-1.86-1.83-2.77-2.77-.45-.46-.61-1.04-.47-1.67,.32-1.48,2.06-2.01,3.18-.95,.86,.81,1.68,1.66,2.51,2.5,.96,.97,.99,1.94,.09,2.96-1.11,1.26-1.12,3.05,.02,4.26,.93,.99,1.9,1.93,2.87,2.87,.54,.52,1.22,.8,1.97,.81,1.36,.02,2.39-.58,2.97-1.8,.58-1.23,.41-2.43-.5-3.43-.92-1.01-1.9-1.96-2.9-2.9-.35-.33-.81-.52-1.25-.8-.13,.49-.24,.88-.34,1.26,.23,.14,.5,.24,.69,.42,.99,.96,2,1.91,2.92,2.93,.89,.98,.42,2.57-.83,2.98-.78,.26-1.45,.05-2.03-.52-.82-.82-1.64-1.64-2.46-2.46-.92-.92-.95-1.92-.09-2.91,1.16-1.32,1.14-3.12-.07-4.38-.89-.92-1.79-1.83-2.72-2.72-1.25-1.2-3.18-1.18-4.4,.02-1.23,1.21-1.27,3.16-.06,4.42,.9,.94,1.82,1.87,2.78,2.76,.37,.34,.85,.56,1.3,.85,.13-.49,.24-.88,.34-1.25Zm.57-1.15c.19-.16,.42-.27,.52-.45,.16-.27,.06-.54-.17-.77-.85-.85-1.7-1.71-2.56-2.55-.32-.32-.68-.33-.95-.07-.27,.27-.26,.63,.05,.95,.85,.86,1.7,1.71,2.56,2.55,.13,.13,.32,.2,.55,.33Zm6.25,6.24c.18-.17,.4-.3,.51-.49,.16-.27,.03-.52-.18-.73-.85-.85-1.7-1.71-2.56-2.56-.31-.3-.69-.31-.95-.04-.25,.26-.24,.63,.05,.92,.86,.87,1.72,1.73,2.59,2.58,.12,.12,.31,.18,.53,.31Z"/></g></g></g></svg>