<?xml version="1.0" encoding="UTF-8"?><svg id="Layer_2" xmlns="http://www.w3.org/2000/svg" viewBox="0 0 39.44 39.44"><defs><style>.cls-1{fill:#fff;}.cls-2{fill:none;}</style></defs><g id="Layer_1-2"><g><rect class="cls-2" width="39.44" height="39.44"/><g><path class="cls-1" d="M.43,10.96c.69-.6,1.38-1.21,2.1-1.84-.37-.75-.42-1.54-.07-2.33,.26-.59,.69-1.03,1.27-1.32,1.16-.57,2.54-.25,3.33,.77,.79,1.02,.73,2.44-.11,3.42-.71,.82-2.14,1.37-3.64,.4-.52,.44-1.06,.87-1.58,1.33-.09,.08-.1,.27-.1,.41,0,4.03,0,8.06,0,12.09,0,1.15,0,2.3,0,3.44,0,.25,.08,.41,.27,.56,.48,.38,.94,.78,1.41,1.17,1.25-.83,2.81-.67,3.76,.55,.8,1.03,.73,2.48-.15,3.44-.88,.97-2.3,1.17-3.41,.48-1.18-.73-1.55-2.05-.98-3.53-.7-.61-1.4-1.22-2.1-1.83,0-5.74,0-11.48,0-17.22Z"/><path class="cls-1" d="M14.59,38.74c-.62-.5-1.25-.99-1.85-1.5-.2-.17-.34-.13-.55-.02-1.36,.73-3.05,.16-3.71-1.24-.65-1.38,0-3.02,1.41-3.62,.99-.42,2.13-.2,2.91,.55,.78,.76,1.04,1.89,.62,2.89-.11,.27-.09,.42,.15,.58,.27,.18,.53,.38,.76,.61,.44,.45,.95,.57,1.58,.56,2.62-.03,5.24-.02,7.86,0,.31,0,.54-.07,.77-.28,.38-.33,.77-.63,1.17-.93,.18-.13,.21-.25,.12-.46-.45-1.07-.2-2.2,.62-2.98,.8-.75,1.96-.95,2.95-.5,1,.45,1.63,1.47,1.59,2.58-.08,1.96-2.22,3.18-3.95,2.24-.24-.13-.38-.12-.58,.05-.6,.5-1.22,.99-1.83,1.48H14.59Z"/><path class="cls-1" d="M5.83,19.57c0-2.12,0-4.24,0-6.36,0-.39,.14-.64,.47-.86,4.29-2.72,8.57-5.44,12.84-8.17,.34-.22,.63-.21,.96,0,4.27,2.72,8.54,5.44,12.81,8.15,.34,.22,.49,.47,.49,.89-.01,4.23-.01,8.46,0,12.69,0,.41-.13,.67-.48,.89-4.28,2.71-8.55,5.43-12.81,8.15-.35,.22-.65,.22-1,0-4.26-2.72-8.52-5.43-12.78-8.13-.36-.23-.51-.49-.5-.91,.02-2.11,0-4.22,0-6.33Zm26.37,.02c0-1.97,0-3.94,0-5.91,0-.27-.07-.42-.31-.57-4-2.54-8-5.08-11.99-7.63-.21-.13-.35-.15-.56,0-4,2.56-8.01,5.11-12.02,7.65-.22,.14-.29,.28-.29,.53,0,3.94,0,7.89,0,11.83,0,.25,.07,.4,.29,.53,4.01,2.54,8.02,5.09,12.02,7.65,.22,.14,.36,.13,.56,0,3.99-2.55,7.99-5.09,11.99-7.63,.23-.15,.31-.29,.31-.56-.01-1.96,0-3.92,0-5.88Z"/><path class="cls-1" d="M36.69,9.16c.57,.47,1.13,.96,1.71,1.43,.27,.21,.38,.46,.38,.8,0,5.45,0,10.9,0,16.36,0,.36-.12,.61-.4,.83-.58,.46-1.13,.94-1.72,1.43,.37,.76,.43,1.53,.09,2.31-.26,.59-.68,1.04-1.25,1.34-1.14,.59-2.53,.28-3.34-.73-.78-.98-.77-2.39,.02-3.36,.9-1.1,2.21-1.28,3.72-.49,.51-.43,1.04-.85,1.54-1.3,.1-.09,.13-.28,.13-.43,0-3.48,0-6.96,0-10.44,0-1.71,0-3.42-.01-5.13,0-.17-.1-.38-.23-.49-.46-.42-.95-.81-1.42-1.2-1.66,.78-2.91,.58-3.79-.58-.76-1.01-.71-2.43,.13-3.38,.85-.96,2.24-1.2,3.34-.58,1.25,.71,1.63,1.94,1.09,3.62Z"/><path class="cls-1" d="M19.6,1.6c-1.42,0-2.85,0-4.27,0-.18,0-.39,.08-.53,.18-.43,.31-.84,.67-1.27,.99-.18,.14-.24,.25-.14,.49,.44,1.05,.2,2.18-.6,2.96-.79,.76-1.96,.97-2.95,.53-1.03-.46-1.66-1.48-1.61-2.6,.08-1.94,2.2-3.16,3.93-2.24,.28,.15,.43,.11,.65-.07,.5-.42,1-.83,1.52-1.21,.18-.13,.43-.23,.64-.23,3.1-.01,6.19-.01,9.29,0,.22,0,.46,.1,.64,.23,.54,.4,1.06,.83,1.58,1.26,.18,.15,.31,.16,.52,.04,1.02-.57,2.24-.42,3.1,.35,.85,.77,1.12,1.95,.7,3.01-.43,1.06-1.48,1.73-2.63,1.68-1.84-.08-3.05-1.97-2.35-3.69,.1-.25,.08-.38-.14-.52-.17-.11-.34-.23-.47-.37-.63-.71-1.42-.88-2.35-.82-1.08,.07-2.17,.02-3.26,.02Z"/><path class="cls-1" d="M13.6,14.8h2.39v9.57c-.76,0-1.51,0-2.27-.01-.1,0-.21-.15-.28-.26-.86-1.36-1.71-2.73-2.56-4.09-.06-.1-.13-.2-.26-.38v4.72h-2.39V14.78c.76,0,1.51,0,2.27,.01,.1,0,.21,.15,.28,.26,.86,1.36,1.71,2.73,2.56,4.09,.06,.1,.13,.2,.26,.38v-4.73Z"/><path class="cls-1" d="M22.59,18.36v1.8h-2.96v4.17h-2.39V14.8h5.35v2.35h-2.95v1.2h2.95Z"/><path class="cls-1" d="M30.97,17.18h-2.35v7.16h-2.41v-7.15h-2.37v-2.39h7.14v2.37Z"/><path class="cls-1" d="M14.3,26.59c.09,.04,.25,.1,.4,.18,1.54,.9,3.08,1.8,4.61,2.71,.22,.13,.38,.14,.61,0,.96-.58,1.93-1.15,2.9-1.71,.34-.2,.64-.17,.85,.07,.27,.31,.17,.71-.25,.96-1,.59-2,1.18-3,1.76-.13,.08-.26,.15-.39,.23-.28,.18-.55,.17-.84,0-1.71-1.02-3.44-2.03-5.16-3.03-.28-.17-.47-.38-.38-.73,.07-.28,.27-.44,.66-.45Z"/><path class="cls-1" d="M25.6,11.82c0,.56-.43,.83-.84,.68-.1-.04-.2-.1-.3-.16-1.51-.89-3.03-1.77-4.54-2.68-.24-.14-.41-.13-.64,0-.94,.57-1.89,1.12-2.83,1.67-.42,.24-.75,.19-.95-.13-.2-.33-.08-.66,.36-.91,1.09-.65,2.2-1.28,3.28-1.94,.33-.2,.61-.19,.94,0,1.69,1.01,3.39,1.99,5.08,3.01,.2,.12,.34,.35,.44,.45Z"/><path class="cls-1" d="M14.81,11.94c0,.33-.25,.6-.58,.6-.33,0-.6-.25-.61-.57,0-.32,.26-.6,.58-.61,.32,0,.6,.26,.61,.58Z"/><path class="cls-1" d="M25.6,27.23c-.03,.32-.33,.57-.64,.55-.32-.03-.57-.32-.55-.64,.03-.33,.31-.56,.64-.54,.33,.02,.57,.31,.55,.63Z"/></g></g></g></svg>