<?xml version="1.0" encoding="UTF-8"?><svg id="Layer_2" xmlns="http://www.w3.org/2000/svg" viewBox="0 0 39.44 39.44"><defs><style>.cls-1{fill:#fff;}.cls-2{fill:none;}</style></defs><g id="Layer_1-2"><g><rect class="cls-2" width="39.44" height="39.44"/><g><path class="cls-1" d="M13,29.14c-1.06,0-2.08,0-3.1,0-.09,0-.21,.08-.26,.16-.54,.88-1.07,1.77-1.6,2.66,.92,1.22,1.19,2.54,.67,3.97-.73,1.98-2.86,3.03-4.91,2.45-2-.57-3.23-2.65-2.8-4.73,.42-1.99,2.41-3.41,4.44-3.13,.27,.04,.37-.06,.49-.25,.6-1.01,1.21-2.01,1.81-3.03,.32-.55,.78-.8,1.42-.79,1.27,.02,2.54,0,3.83,0v-5.38c-.18,0-.37,0-.56,0-1.11,0-2.21,.01-3.32,0-.28,0-.41,.09-.53,.34-.82,1.77-2.69,2.68-4.55,2.25-1.85-.43-3.15-2.11-3.12-4.02,.03-1.82,1.34-3.44,3.12-3.84,1.83-.42,3.7,.47,4.51,2.18,.15,.32,.31,.42,.65,.41,1.26-.02,2.51,0,3.79,0v-5.38c-.14,0-.29,0-.43,0-1.15,0-2.3,0-3.44,0-.6,0-1.04-.24-1.35-.76-.61-1.02-1.22-2.04-1.83-3.06-.12-.2-.22-.29-.49-.25-2.18,.3-4.18-1.27-4.5-3.5C.62,3.3,2.17,1.31,4.41,.94c2.07-.33,4.12,1.18,4.49,3.31,.21,1.21-.13,2.27-.86,3.24,.53,.89,1.06,1.78,1.6,2.66,.05,.08,.17,.15,.26,.15,1.02,.01,2.04,0,3.1,0,0-.19,0-.34,0-.49,0-1.6,0-3.19,0-4.79,0-.89,.55-1.44,1.44-1.44,5.31,0,10.61,0,15.92,0,.45,0,.81,.15,1.13,.46,2.19,2.19,4.37,4.38,6.57,6.56,.33,.33,.49,.7,.49,1.16,0,7.53,0,15.07,0,22.6,0,.94-.55,1.48-1.5,1.48-7.52,0-15.04,0-22.56,0-.94,0-1.48-.55-1.48-1.49,0-1.72,0-3.44,0-5.23Zm22.82,4.01V13.04c-.06-.01-.08-.02-.11-.02-1.69,0-3.39,0-5.08,0-.96,0-1.5-.54-1.5-1.51,0-1.58,0-3.16,0-4.75,0-.15,0-.29,0-.44H15.71v26.85h20.11ZM6.28,4.94c0-.73-.61-1.34-1.33-1.34-.73,0-1.34,.6-1.35,1.32,0,.74,.61,1.37,1.36,1.36,.73,0,1.33-.62,1.33-1.34Zm-1.35,16.13c.73,0,1.34-.6,1.35-1.32,0-.73-.59-1.35-1.31-1.36-.74-.02-1.37,.6-1.37,1.34,0,.73,.61,1.34,1.33,1.34Zm0,14.79c.73,0,1.34-.6,1.35-1.32,.01-.73-.59-1.35-1.31-1.36-.74-.02-1.37,.6-1.37,1.34,0,.73,.61,1.34,1.33,1.34ZM31.84,8.33v1.97h1.97c-.65-.65-1.31-1.31-1.97-1.97Z"/><path class="cls-1" d="M25.77,15.69c1.96,0,3.92,0,5.88,0,.89,0,1.51,.54,1.51,1.33,0,.79-.61,1.35-1.49,1.35-3.93,0-7.87,0-11.8,0-.88,0-1.5-.56-1.49-1.36,0-.79,.61-1.33,1.51-1.33,1.96,0,3.92,0,5.88,0Z"/><path class="cls-1" d="M25.82,21.07c1.95,0,3.89,0,5.84,0,.89,0,1.51,.54,1.51,1.33,0,.79-.61,1.35-1.49,1.35-3.93,0-7.87,0-11.8,0-.88,0-1.5-.56-1.49-1.36,0-.78,.61-1.33,1.47-1.33,1.99,0,3.98,0,5.96,0Z"/><path class="cls-1" d="M21.74,13.01c-.66,0-1.32,0-1.97,0-.79-.01-1.38-.59-1.39-1.33,0-.77,.59-1.35,1.4-1.35,1.3,0,2.6,0,3.9,0,.81,0,1.41,.59,1.41,1.35,0,.76-.6,1.33-1.43,1.33-.64,0-1.29,0-1.93,0Z"/><path class="cls-1" d="M29.8,29.14c-.64,0-1.29,0-1.93,0-.82,0-1.42-.58-1.42-1.34,0-.77,.59-1.34,1.41-1.35,1.3,0,2.6,0,3.9,0,.81,0,1.41,.59,1.4,1.36,0,.75-.6,1.31-1.39,1.33-.01,0-.03,0-.04,0-.64,0-1.29,0-1.93,0Z"/></g></g></g></svg>