<?xml version="1.0" encoding="UTF-8"?><svg id="Layer_2" xmlns="http://www.w3.org/2000/svg" viewBox="0 0 39.44 39.44"><defs><style>.cls-1{fill:#fff;}.cls-2{fill:none;}</style></defs><g id="Layer_1-2"><g><rect class="cls-2" width="39.44" height="39.44"/><g><path class="cls-1" d="M18.5,.22c.81,0,1.62,0,2.44,0,.12,.02,.24,.05,.37,.07,.69,.09,1.39,.15,2.07,.28,4.5,.88,8.26,3.06,11.2,6.57,3.95,4.71,5.39,10.15,4.29,16.21-.82,4.52-3.06,8.28-6.57,11.24-4.2,3.54-9.08,5.05-14.55,4.53-3.85-.37-7.29-1.81-10.28-4.26-3.74-3.07-6.08-6.99-6.94-11.77-.13-.71-.2-1.43-.3-2.14,0-.81,0-1.62,0-2.44,.02-.1,.05-.19,.06-.29,.26-3.33,1.29-6.4,3.15-9.17C6.56,4.4,10.87,1.53,16.4,.52c.7-.13,1.4-.2,2.1-.3Zm18.43,19.48c-.02-9.5-7.76-17.22-17.24-17.2-9.48,.02-17.18,7.73-17.19,17.21,0,9.48,7.74,17.22,17.22,17.22,9.49,0,17.22-7.75,17.21-17.23Z"/><path class="cls-1" d="M34.65,19.73c0,8.19-6.74,14.93-14.93,14.92-8.19,0-14.93-6.75-14.92-14.93,0-8.19,6.74-14.93,14.93-14.92,8.19,0,14.93,6.74,14.92,14.93Zm-14.93,12.64c6.97,0,12.65-5.67,12.65-12.64,0-6.97-5.67-12.65-12.64-12.65-6.97,0-12.65,5.67-12.65,12.64,0,6.96,5.67,12.65,12.64,12.65Z"/><path class="cls-1" d="M29.55,16.9c0,.4-.2,.69-.48,.96-1.18,1.14-2.34,2.29-3.52,3.42-.18,.17-.25,.33-.2,.59,.29,1.57,.56,3.15,.81,4.72,.05,.29,.08,.62,0,.9-.19,.7-.98,.96-1.68,.59-1.17-.61-2.33-1.23-3.5-1.84-.41-.22-.83-.59-1.25-.59-.42,0-.84,.37-1.25,.59-1.11,.58-2.23,1.16-3.33,1.75-.49,.26-.97,.4-1.46,.04-.51-.37-.51-.89-.41-1.44,.28-1.56,.53-3.12,.82-4.68,.05-.28,0-.46-.22-.66-1.17-1.12-2.33-2.27-3.5-3.39-.38-.36-.6-.76-.43-1.29,.17-.54,.57-.76,1.11-.83,1.65-.23,3.29-.48,4.93-.71,.24-.03,.35-.14,.44-.34,.74-1.51,1.48-3.03,2.24-4.54,.33-.67,1.03-.92,1.61-.55,.22,.14,.41,.38,.53,.62,.75,1.48,1.48,2.97,2.21,4.46,.1,.21,.23,.31,.48,.35,1.68,.23,3.36,.48,5.04,.73,.62,.09,1.02,.55,1.02,1.14Zm-13.67,8.1c.16-.08,.26-.12,.36-.17,.89-.46,1.79-.9,2.66-1.4,.58-.34,1.1-.32,1.68,0,.87,.49,1.77,.94,2.66,1.4,.09,.05,.19,.08,.34,.15-.21-1.22-.39-2.37-.6-3.51-.1-.51,.04-.91,.41-1.27,.76-.73,1.51-1.47,2.26-2.2,.09-.09,.17-.19,.29-.32-1.2-.17-2.32-.34-3.44-.49-.58-.07-.98-.34-1.23-.88-.39-.85-.82-1.68-1.24-2.53-.09-.19-.19-.37-.31-.61-.1,.19-.17,.31-.23,.43-.46,.93-.93,1.86-1.38,2.8-.21,.44-.53,.69-1.01,.76-.62,.08-1.23,.18-1.84,.27-.57,.08-1.13,.17-1.7,.25l-.04,.1c.11,.09,.22,.17,.32,.26,.76,.73,1.51,1.47,2.26,2.2,.31,.3,.46,.66,.39,1.1-.08,.48-.17,.95-.25,1.42-.12,.72-.24,1.44-.37,2.22Z"/></g></g></g></svg>