<?xml version="1.0" encoding="UTF-8"?><svg id="Layer_2" xmlns="http://www.w3.org/2000/svg" viewBox="0 0 40 40"><defs><style>.cls-1{fill:#fff;}.cls-2{fill:none;}</style></defs><g id="Layer_1-2"><g><rect class="cls-2" width="40" height="40"/><g><path class="cls-1" d="M19.79,1.59c-1.93,0-3.5,1.57-3.5,3.5s1.57,3.5,3.5,3.5,3.5-1.57,3.5-3.5-1.57-3.5-3.5-3.5Zm0,4.45c-.53,0-.96-.43-.96-.96s.43-.96,.96-.96,.96,.43,.96,.96-.43,.96-.96,.96Z"/><path class="cls-1" d="M25.45,14.36l-1.48-4.45c-.17-.52-.66-.87-1.21-.87h-5.94c-.55,0-1.03,.35-1.21,.87l-1.48,4.45c-.27,.82,.34,1.67,1.21,1.67h8.91c.87,0,1.48-.85,1.21-1.67Zm-8.35-.87l.64-1.91h4.11l.64,1.91h-5.38Z"/><path class="cls-1" d="M6.01,12.75c-1.93,0-3.5,1.57-3.5,3.5s1.57,3.5,3.5,3.5,3.5-1.57,3.5-3.5-1.57-3.5-3.5-3.5Zm0,4.45c-.53,0-.96-.43-.96-.96s.43-.96,.96-.96,.96,.43,.96,.96-.43,.96-.96,.96Z"/><path class="cls-1" d="M11.67,25.51l-1.48-4.45c-.17-.52-.66-.87-1.21-.87H3.04c-.55,0-1.03,.35-1.21,.87L.35,25.51c-.27,.82,.34,1.67,1.21,1.67H10.47c.87,0,1.48-.85,1.21-1.67Zm-8.35-.87l.64-1.91h4.11l.64,1.91H3.32Z"/><path class="cls-1" d="M19.79,23.9c-1.93,0-3.5,1.57-3.5,3.5s1.57,3.5,3.5,3.5,3.5-1.57,3.5-3.5-1.57-3.5-3.5-3.5Zm0,4.45c-.53,0-.96-.43-.96-.96s.43-.96,.96-.96,.96,.43,.96,.96-.43,.96-.96,.96Z"/><path class="cls-1" d="M25.45,36.67l-1.48-4.45c-.17-.52-.66-.87-1.21-.87h-5.94c-.55,0-1.03,.35-1.21,.87l-1.48,4.45c-.27,.82,.34,1.67,1.21,1.67h8.91c.87,0,1.48-.85,1.21-1.67Zm-8.35-.87l.64-1.91h4.11l.64,1.91h-5.38Z"/><path class="cls-1" d="M14.74,6.57c-.31-.63-1.07-.9-1.7-.59-1.97,.95-3.76,2.35-5.16,4.03-.45,.54-.38,1.34,.16,1.79,.54,.45,1.34,.38,1.79-.16,1.18-1.41,2.67-2.57,4.32-3.37,.63-.31,.9-1.07,.59-1.7Z"/><path class="cls-1" d="M33.56,12.75c-1.93,0-3.5,1.57-3.5,3.5s1.57,3.5,3.5,3.5,3.5-1.57,3.5-3.5c0-1.93-1.57-3.5-3.5-3.5Zm0,4.45c-.53,0-.96-.43-.96-.96s.43-.96,.96-.96,.96,.43,.96,.96-.43,.96-.96,.96Z"/><path class="cls-1" d="M39.22,25.51l-1.48-4.45c-.17-.52-.66-.87-1.21-.87h-5.94c-.55,0-1.03,.35-1.21,.87l-1.48,4.45c-.27,.82,.34,1.67,1.21,1.67h8.91c.87,0,1.48-.85,1.21-1.67Zm-8.35-.87l.64-1.91h4.11l.64,1.91h-5.38Z"/><path class="cls-1" d="M31.7,10.01c-1.41-1.68-3.19-3.08-5.16-4.03-.63-.31-1.39-.04-1.7,.59-.31,.63-.04,1.39,.59,1.7,1.65,.8,3.14,1.96,4.32,3.37,.45,.54,1.25,.61,1.79,.16,.54-.45,.61-1.25,.16-1.79Z"/><path class="cls-1" d="M31.54,28.13c-.54-.45-1.34-.38-1.79,.16-1.18,1.41-2.67,2.57-4.32,3.37-.63,.31-.9,1.07-.59,1.7,.31,.63,1.07,.9,1.7,.59,1.97-.95,3.76-2.35,5.16-4.03,.45-.54,.38-1.34-.16-1.79Z"/><path class="cls-1" d="M14.14,31.66c-1.65-.8-3.14-1.96-4.32-3.37-.45-.54-1.25-.61-1.79-.16-.54,.45-.61,1.25-.16,1.79,1.41,1.68,3.19,3.08,5.16,4.03,.63,.31,1.39,.04,1.7-.59,.31-.63,.04-1.39-.59-1.7Z"/></g></g></g></svg>