<?xml version="1.0" encoding="UTF-8"?><svg id="Layer_2" xmlns="http://www.w3.org/2000/svg" viewBox="0 0 40 40"><defs><style>.cls-1{fill:#fff;}.cls-2{fill:none;}</style></defs><g id="Layer_1-2"><g><rect class="cls-2" width="40" height="40"/><g><path class="cls-1" d="M37.51,21.67L20.37,4.52c-.16-.16-.37-.28-.6-.33L10.14,2.04c-.41-.09-.84,.03-1.13,.33L1.15,10.23c-.3,.3-.42,.73-.33,1.15l2.25,9.53c.05,.22,.17,.42,.33,.58l17.15,17.15c.23,.23,.54,.36,.87,.36s.64-.13,.87-.36l15.24-15.24c.48-.48,.48-1.25,0-1.73Zm-16.1,14.37L5.37,20.01,3.36,11.48l6.9-6.9,8.62,1.93,16.03,16.03-13.51,13.51Z"/><path class="cls-1" d="M14.69,9.29c-.87-.87-2.03-1.35-3.26-1.35s-2.39,.48-3.26,1.35c-1.8,1.8-1.8,4.73,0,6.52,.87,.87,2.03,1.35,3.26,1.35s2.39-.48,3.26-1.35c1.8-1.8,1.8-4.73,0-6.52Zm-1.73,4.79c-.41,.41-.95,.63-1.53,.63s-1.12-.23-1.53-.63c-.84-.84-.84-2.22,0-3.06,.41-.41,.95-.63,1.53-.63s1.12,.23,1.53,.63c.84,.85,.84,2.22,0,3.06Z"/><path class="cls-1" d="M17.76,16.9l-1.75,1.75,.84,.84c-1.09,1.56-1.09,3.18,0,4.27,.58,.58,1.23,.88,1.92,.88h0c1.11,0,2.16-.77,3.14-1.55,.73-.57,1.28-.86,1.66-.86,.14,0,.25,.04,.35,.14,.14,.14,.32,.39,.18,.85-.11,.36-.38,.77-.77,1.17-.68,.68-1.73,1.03-2.36,.78l-.38-.15-.93,2.3,.38,.15c.46,.19,.94,.28,1.43,.28,.91,0,1.83-.33,2.69-.96l.91,.91,1.75-1.75-.95-.95c.92-1.27,1.26-3.11-.1-4.46-.6-.6-1.27-.91-1.99-.91-1.17,0-2.25,.77-3.35,1.63-.46,.36-1.08,.85-1.48,.85-.11,0-.2-.04-.29-.13-.13-.13-.26-.32-.13-.7,.1-.31,.36-.68,.73-1.05,.45-.45,1.13-.77,1.65-.77,.08,0,.15,0,.22,.02l.35,.09,.8-2.19-.39-.14c-1.11-.38-2.14-.23-3.26,.51l-.85-.85Z"/></g></g></g></svg>