<?xml version="1.0" encoding="UTF-8"?><svg id="Layer_2" xmlns="http://www.w3.org/2000/svg" viewBox="0 0 40 40"><defs><style>.cls-1{fill:#fff;}.cls-2{fill:none;}</style></defs><g id="Layer_1-2"><g><rect class="cls-2" width="40" height="40"/><g><path class="cls-1" d="M2.9,19.89C2.9,10.46,10.57,2.79,20,2.79c4.72,0,9.19,1.94,12.42,5.34h-.87c-.57,0-1.02,.46-1.02,1.02s.46,1.02,1.02,1.02h3.47c.57,0,1.02-.46,1.02-1.02v-3.47c0-.57-.46-1.02-1.02-1.02s-1.02,.46-1.02,1.02v1.13C30.37,2.95,25.32,.75,20,.75,9.44,.75,.85,9.34,.85,19.89c0,4.66,1.69,9.15,4.76,12.64,.2,.23,.48,.35,.77,.35,.24,0,.48-.08,.67-.25,.42-.37,.47-1.02,.09-1.44-2.74-3.12-4.25-7.13-4.25-11.29Z"/><path class="cls-1" d="M37.93,13.15c-.2-.53-.79-.8-1.32-.6-.53,.2-.8,.79-.6,1.32,.72,1.92,1.09,3.95,1.09,6.02,0,9.43-7.67,17.1-17.1,17.1-2.73,0-5.44-.66-7.84-1.9l.92-.33c.53-.19,.81-.77,.62-1.31-.19-.53-.77-.81-1.31-.62l-3.27,1.16c-.53,.19-.81,.77-.62,1.31l1.16,3.27c.15,.42,.54,.68,.96,.68,.11,0,.23-.02,.34-.06,.53-.19,.81-.77,.62-1.31l-.34-.96c2.69,1.38,5.71,2.11,8.75,2.11,10.56,0,19.15-8.59,19.15-19.15,0-2.32-.41-4.59-1.22-6.74Z"/><path class="cls-1" d="M20,7.15c-6.95,0-12.6,5.65-12.6,12.6s5.65,12.6,12.6,12.6,12.6-5.65,12.6-12.6c0-6.95-5.65-12.6-12.6-12.6Zm9.67,13.63h.83c-.48,5.01-4.48,9-9.48,9.48v-.83c0-.57-.46-1.02-1.02-1.02s-1.02,.46-1.02,1.02v.83c-5.01-.48-9-4.48-9.48-9.48h.83c.57,0,1.02-.46,1.02-1.02s-.46-1.02-1.02-1.02h-.83c.48-5.01,4.48-9,9.48-9.48v.83c0,.57,.46,1.02,1.02,1.02s1.02-.46,1.02-1.02v-.83c5.01,.48,9,4.48,9.48,9.48h-.83c-.57,0-1.02,.46-1.02,1.02,0,.57,.46,1.02,1.02,1.02Z"/><path class="cls-1" d="M24.6,19.76h-3.58v-5.55c0-.57-.46-1.02-1.02-1.02s-1.02,.46-1.02,1.02v6.57c0,.57,.46,1.02,1.02,1.02h4.6c.57,0,1.02-.46,1.02-1.02s-.46-1.02-1.02-1.02Z"/></g></g></g></svg>