<svg xmlns="http://www.w3.org/2000/svg" width="345" height="307" viewBox="0 0 345 307">
  <g id="Group_4515" data-name="Group 4515" transform="translate(-19243 -5027)">
    <rect id="Rectangle_4509" data-name="Rectangle 4509" width="345" height="307" transform="translate(19243 5027)" fill="none"/>
    <g id="Development_focus-pana" data-name="Development focus-pana" transform="translate(19245.566 5003.05)">
      <g id="freepik--background-complete--inject-45" transform="translate(11.55 28.23)">
        <rect id="Rectangle_4588" data-name="Rectangle 4588" width="11.491" height="26.477" transform="translate(19.067 245.514)" fill="#ebebeb"/>
        <rect id="Rectangle_4589" data-name="Rectangle 4589" width="11.491" height="26.477" transform="translate(58.056 245.514)" fill="#ebebeb"/>
        <rect id="Rectangle_4590" data-name="Rectangle 4590" width="11.491" height="50.579" transform="translate(38.562 221.412)" fill="#f5f5f5"/>
        <rect id="Rectangle_4591" data-name="Rectangle 4591" width="11.491" height="50.579" transform="translate(77.543 221.412)" fill="#f5f5f5"/>
        <rect id="Rectangle_4592" data-name="Rectangle 4592" width="11.491" height="49.132" transform="translate(97.037 222.859)" fill="#ebebeb"/>
        <rect id="Rectangle_4593" data-name="Rectangle 4593" width="11.491" height="49.132" transform="translate(136.026 222.859)" fill="#ebebeb"/>
        <rect id="Rectangle_4594" data-name="Rectangle 4594" width="11.491" height="49.132" transform="translate(175.007 222.859)" fill="#ebebeb"/>
        <rect id="Rectangle_4595" data-name="Rectangle 4595" width="11.491" height="74.915" transform="translate(116.531 197.076)" fill="#f5f5f5"/>
        <rect id="Rectangle_4596" data-name="Rectangle 4596" width="11.491" height="67.586" transform="translate(155.513 204.405)" fill="#f5f5f5"/>
        <rect id="Rectangle_4597" data-name="Rectangle 4597" width="11.491" height="49.132" transform="translate(232.589 222.859)" fill="#ebebeb"/>
        <rect id="Rectangle_4598" data-name="Rectangle 4598" width="11.491" height="39.702" transform="translate(213.102 232.289)" fill="#f5f5f5"/>
        <rect id="Rectangle_4599" data-name="Rectangle 4599" width="11.491" height="75.356" transform="translate(273.365 196.636)" fill="#ebebeb"/>
        <rect id="Rectangle_4600" data-name="Rectangle 4600" width="11.491" height="39.702" transform="translate(253.871 232.289)" fill="#f5f5f5"/>
        <rect id="Rectangle_4601" data-name="Rectangle 4601" width="11.491" height="39.702" transform="translate(292.879 232.289)" fill="#f5f5f5"/>
        <rect id="Rectangle_4602" data-name="Rectangle 4602" width="11.491" height="57.229" transform="translate(194.501 214.763)" fill="#ebebeb"/>
        <path id="Path_49371" data-name="Path 49371" d="M194.952,322.255A2.961,2.961,0,1,1,192,319.3,2.961,2.961,0,0,1,194.952,322.255Z" transform="translate(-70.664 -125.179)" fill="#e0e0e0"/>
        <path id="Path_49372" data-name="Path 49372" d="M190.782,326.417a5.369,5.369,0,1,1,5.335-5.335A5.369,5.369,0,0,1,190.782,326.417Zm0-10.3a4.935,4.935,0,1,0,4.929,4.935A4.935,4.935,0,0,0,190.782,316.113Z" transform="translate(-69.449 -123.973)" fill="#e0e0e0"/>
        <path id="Path_49373" data-name="Path 49373" d="M194.948,307.88l-.153-5.816,1.454.027-2.714-3.321-2.714,3.348,1.507.007.153,5.742Z" transform="translate(-71.261 -118.341)" fill="#ebebeb"/>
        <path id="Path_49374" data-name="Path 49374" d="M50.709,376.734a2.954,2.954,0,1,1-2.954-2.954A2.954,2.954,0,0,1,50.709,376.734Z" transform="translate(-22.625 -143.325)" fill="#e0e0e0"/>
        <path id="Path_49375" data-name="Path 49375" d="M46.549,381.067a5.369,5.369,0,1,1,5.369-5.369A5.369,5.369,0,0,1,46.549,381.067Zm0-10.3a4.929,4.929,0,1,1,0,.013Z" transform="translate(-21.419 -142.176)" fill="#e0e0e0"/>
        <path id="Path_49376" data-name="Path 49376" d="M45.874,350.74l.16,6.049-1.514-.027,2.828,3.448,2.814-3.475-1.561-.013-.153-5.969Z" transform="translate(-22.532 -135.651)" fill="#ebebeb"/>
        <path id="Path_49377" data-name="Path 49377" d="M280.334,331.78l.16,6.049-1.514-.027,2.821,3.448,2.821-3.481-1.561-.007-.16-5.969Z" transform="translate(-100.625 -129.335)" fill="#ebebeb"/>
        <path id="Path_49378" data-name="Path 49378" d="M226.846,382.093l-34.607-32.459c-21.922-10.584-55.775-26.183-59.723-25.963-4.422.26-88.341,33.346-120.3,46.084l-.667-1.581c4.668-1.874,115.238-45.871,120.833-46.2h.18c6.136,0,54.968,23.5,60.557,26.19l.207.147,33.8,31.706c6.416-3.381,43.19-22.789,43.817-23.062.22-.1.8-.34,51.353-.333v1.7c-19.394,0-48.559.047-50.773.227-1.921.974-29.518,15.533-44.157,23.256Z" transform="translate(-11.55 -126.068)" fill="#e0e0e0"/>
        <path id="Path_49379" data-name="Path 49379" d="M284.689,359.824a2.954,2.954,0,1,1-2.955-2.954,2.955,2.955,0,0,1,2.955,2.954Z" transform="translate(-100.558 -137.692)" fill="#e0e0e0"/>
        <path id="Path_49380" data-name="Path 49380" d="M280.562,364.191a5.335,5.335,0,1,1,5.369-5.335A5.335,5.335,0,0,1,280.562,364.191Zm0-10.3a4.935,4.935,0,1,0,4.935,4.935A4.935,4.935,0,0,0,280.562,353.887Z" transform="translate(-99.386 -136.577)" fill="#e0e0e0"/>
        <path id="Path_49381" data-name="Path 49381" d="M402.489,373.034a2.954,2.954,0,1,1-2.954-2.954,2.954,2.954,0,0,1,2.954,2.954Z" transform="translate(-139.795 -142.092)" fill="#e0e0e0"/>
        <path id="Path_49382" data-name="Path 49382" d="M398.3,377.367A5.369,5.369,0,1,1,403.637,372,5.369,5.369,0,0,1,398.3,377.367Zm0-10.3A4.935,4.935,0,1,0,403.237,372,4.935,4.935,0,0,0,398.3,367.063Z" transform="translate(-138.569 -140.943)" fill="#e0e0e0"/>
        <path id="Path_49383" data-name="Path 49383" d="M397.944,348.19l.16,6.049-1.514-.027,2.821,3.448,2.821-3.481-1.567-.007-.153-5.969Z" transform="translate(-139.798 -134.801)" fill="#ebebeb"/>
        <path id="Path_49384" data-name="Path 49384" d="M406.489,251.578a25.863,25.863,0,1,1,26.277,25.59,25.863,25.863,0,0,1-26.277-25.59Zm38.221-.62a12.365,12.365,0,1,0-12.165,12.618A12.365,12.365,0,0,0,444.711,250.958Z" transform="translate(-143.095 -93.918)" fill="#f5f5f5"/>
        <path id="Path_49385" data-name="Path 49385" d="M406.5,251.447a25.95,25.95,0,0,1,25.436-26.4l.213,13.559a12.42,12.42,0,0,0,.4,24.836l.22,13.559A25.943,25.943,0,0,1,406.5,251.447Z" transform="translate(-143.097 -93.786)" fill="#e0e0e0"/>
        <path id="Path_49386" data-name="Path 49386" d="M441.16,221.928a29.53,29.53,0,0,1,30.252,29.431l-15.786.253c-.127-8-6.222-13.058-14.2-12.925Z" transform="translate(-154.643 -92.745)" fill="#ebebeb"/>
        <rect id="Rectangle_4603" data-name="Rectangle 4603" width="11.644" height="36.374" transform="translate(62.657 6.042)" fill="#ebebeb"/>
        <rect id="Rectangle_4604" data-name="Rectangle 4604" width="11.644" height="28.064" transform="translate(80.051 14.352)" fill="#ebebeb"/>
        <rect id="Rectangle_4605" data-name="Rectangle 4605" width="11.644" height="16.666" transform="translate(96.15 25.75)" fill="#ebebeb"/>
        <path id="Path_49387" data-name="Path 49387" d="M313.078,60.145V39.75A20.395,20.395,0,1,1,292.69,60.591Z" transform="translate(-105.191 -32.067)" fill="#ebebeb"/>
        <path id="Path_49388" data-name="Path 49388" d="M307.388,48.6,287,49.065A21.533,21.533,0,0,1,292.773,34.4a20.988,20.988,0,0,1,14.3-6.165Z" transform="translate(-103.296 -28.23)" fill="#f5f5f5"/>
        <path id="Path_49389" data-name="Path 49389" d="M39.513,231.813l14.272-11.338a18.214,18.214,0,1,1-25.59-2.954,17.847,17.847,0,0,1,4.082-2.441Z" transform="translate(-14.797 -90.465)" fill="#f5f5f5"/>
        <path id="Path_49390" data-name="Path 49390" d="M42.8,212.178l5.022,13.212,10.624-9.03S52.817,210.564,42.8,212.178Z" transform="translate(-21.959 -89.404)" fill="#e0e0e0"/>
      </g>
      <g id="freepik--Floor--inject-45" transform="translate(29.137 316.708)">
        <path id="Path_49391" data-name="Path 49391" d="M318.134,460.96c0,.093-62.731.173-140.1.173s-140.114-.08-140.114-.173,62.691-.18,140.114-.18S318.134,460.86,318.134,460.96Z" transform="translate(-37.92 -460.78)" fill="#263238"/>
      </g>
      <g id="freepik--light-bulb--inject-45" transform="translate(23.658 71.196)">
        <path id="Path_49392" data-name="Path 49392" d="M53.864,100.221a12.6,12.6,0,1,0-11.911,17.64l1.287,2.908,10.124-4.415s-.667-1.667-1.267-3.135a12.6,12.6,0,0,0,1.767-13Z" transform="translate(-29.706 -92.655)" fill="#0091ff"/>
        <path id="Path_49393" data-name="Path 49393" d="M53.645,123.916a1.2,1.2,0,0,1-.047-.147l-.14-.44c-.113-.38-.287-.954-.487-1.687s-.434-1.647-.667-2.714a18.253,18.253,0,0,1-.353-3.668,11.525,11.525,0,0,1,.193-2.147,2.328,2.328,0,0,1,.48-1.054,1.287,1.287,0,0,1,1.114-.44.814.814,0,0,1,.56.293.867.867,0,0,1,.213.614,1.8,1.8,0,0,1-.554,1.16,3.455,3.455,0,0,1-4.949-.34,2.568,2.568,0,0,1-.667-1.334,1.134,1.134,0,0,1,.7-1.26.8.8,0,0,1,.767.153,1.12,1.12,0,0,1,.4.667,2.461,2.461,0,0,1-.307,1.507,3.755,3.755,0,0,1-2.354,1.954,3.288,3.288,0,0,1-2.961-.667,1.921,1.921,0,0,1-.667-1.334.98.98,0,0,1,.28-.734.96.96,0,0,1,.74-.247,1.287,1.287,0,0,1,.707.293,1.9,1.9,0,0,1,.467.594,3.575,3.575,0,0,1,.407,1.394,3.761,3.761,0,0,1-3.034,4,2,2,0,0,1-1.28-.1.974.974,0,0,1-.547-1.08.787.787,0,0,1,.407-.48,1.12,1.12,0,0,1,.6-.133,1.881,1.881,0,0,1,1.054.48c.56.5,1.06,1.007,1.547,1.487,1.941,1.927,3.435,3.555,4.455,4.668.514.567.9,1.02,1.16,1.334l.333.4.093.12a.967.967,0,0,1-.093-.12l-.307-.34c-.28-.3-.667-.74-1.187-1.3-1.027-1.127-2.534-2.741-4.482-4.668-.487-.474-1-.987-1.554-1.474a1.734,1.734,0,0,0-.98-.454.76.76,0,0,0-.393,1.461,1.907,1.907,0,0,0,1.194.08,3.628,3.628,0,0,0,2.914-3.875A3.561,3.561,0,0,0,46.035,113a1.374,1.374,0,0,0-1.06-.8.78.78,0,0,0-.62.207.807.807,0,0,0-.233.62,1.734,1.734,0,0,0,.667,1.247,3.141,3.141,0,0,0,2.821.667,3.608,3.608,0,0,0,2.254-1.881,2.341,2.341,0,0,0,.3-1.4,1.02,1.02,0,0,0-.347-.58.667.667,0,0,0-.627-.127.874.874,0,0,0-.494.434,1.12,1.12,0,0,0-.107.667,2.554,2.554,0,0,0,.614,1.227,3.335,3.335,0,0,0,4.682.287,1.614,1.614,0,0,0,.52-1.06.74.74,0,0,0-.667-.78,1.174,1.174,0,0,0-1,.393,2.221,2.221,0,0,0-.46,1,12.379,12.379,0,0,0-.2,2.121,18.754,18.754,0,0,0,.333,3.655c.193,1.067.42,2,.607,2.714s.353,1.334.46,1.694c.053.193.087.34.12.44a1.286,1.286,0,0,1,.047.167Z" transform="translate(-33.681 -98.669)" fill="#263238"/>
        <path id="Path_49394" data-name="Path 49394" d="M60.39,130.827l-8.67,3.795a.72.72,0,0,1-.94-.367h0a.714.714,0,0,1,.367-.94l8.67-3.795a.707.707,0,0,1,.934.367h0a.714.714,0,0,1-.36.94Z" transform="translate(-36.705 -104.914)" fill="#263238"/>
        <path id="Path_49395" data-name="Path 49395" d="M61.047,132.33l-8.67,3.795a.712.712,0,1,0,.567,1.307l.954-.42,2.321,1.861a.92.92,0,0,0,.94.127l3.1-1.334a.9.9,0,0,0,.547-.78l.187-2.941.667-.28a.726.726,0,1,0-.574-1.334Z" transform="translate(-37.115 -105.85)" fill="#263238"/>
        <g id="Group_4505" data-name="Group 4505" transform="translate(1.109 4.385)" opacity="0.2">
          <path id="Path_49396" data-name="Path 49396" d="M32.23,103.325a9.337,9.337,0,0,1,1.647-2.548,6.556,6.556,0,0,1,1.554-1.294c.413-.24.667-.3.74-.22.147.187-.594.88-1.434,2.181a10.384,10.384,0,0,0-.28,11.224c.774,1.334,1.481,2.067,1.334,2.248s-.333,0-.74-.253a6.843,6.843,0,0,1-1.487-1.367,9.084,9.084,0,0,1-1.527-2.621,9.8,9.8,0,0,1-.667-3.688" transform="translate(-31.369 -99.23)" fill="#fff"/>
        </g>
        <g id="Group_4506" data-name="Group 4506" transform="translate(7.143 2.073)" opacity="0.2">
          <path id="Path_49397" data-name="Path 49397" d="M42.186,97.395c-.74.313-1.474.393-1.714.04a.667.667,0,0,1,.12-.72,2.521,2.521,0,0,1,2.214-.94c.333.047.554.193.607.4" transform="translate(-40.415 -95.763)" fill="#fff"/>
        </g>
        <path id="Path_49398" data-name="Path 49398" d="M63.082,139.539a5.964,5.964,0,0,1-.667.08,5.268,5.268,0,0,0-1.554.46,5.335,5.335,0,0,0-1.334.907c-.307.287-.467.487-.487.474a2,2,0,0,1,.413-.554,4.668,4.668,0,0,1,2.961-1.394,2,2,0,0,1,.667.027Z" transform="translate(-39.476 -108.256)" fill="#455a64"/>
        <path id="Path_49399" data-name="Path 49399" d="M62.016,134.769c0,.04-1.541.76-3.475,1.607S55,137.877,55,137.837s1.541-.754,3.475-1.6S62,134.736,62.016,134.769Z" transform="translate(-38.131 -106.682)" fill="#455a64"/>
        <path id="Path_49400" data-name="Path 49400" d="M62.472,136.68a5.131,5.131,0,0,1-.814.46c-.52.267-1.24.614-2.041.98s-1.547.667-2.087.887a5.337,5.337,0,0,1-.88.313,5.591,5.591,0,0,1,.84-.414l2.061-.927,2.054-.94a6,6,0,0,1,.867-.36Z" transform="translate(-38.68 -107.319)" fill="#455a64"/>
      </g>
      <g id="freepik--Chart--inject-45" transform="translate(141.741 174.99)">
        <rect id="Rectangle_4606" data-name="Rectangle 4606" width="58.176" height="38.361" rx="5.31" transform="translate(0.112 0.176)" fill="#fff"/>
        <path id="Path_49401" data-name="Path 49401" d="M261.508,286.823a3.2,3.2,0,0,0,.48-.053,3.334,3.334,0,0,0,1.334-.474,3.548,3.548,0,0,0,1.447-1.707,8.822,8.822,0,0,0,.24-3.095c0-4.742,0-11.584-.047-20.041V253.07a10.868,10.868,0,0,0-.073-1.754,3.428,3.428,0,0,0-2.228-2.534,4.968,4.968,0,0,0-1.821-.193H210.449a3.388,3.388,0,0,0-3.335,2.668,5.542,5.542,0,0,0-.073,1.16v30.392a3.821,3.821,0,0,0,.36,1.961,3.335,3.335,0,0,0,1.334,1.421,3.468,3.468,0,0,0,1.874.467h23.549l20.008.053h0l-20.008.053H210.609a3.769,3.769,0,0,1-2-.5,3.668,3.668,0,0,1-1.447-1.541,4.128,4.128,0,0,1-.387-2.087c0-5.6,0-11.464,0-17.553V252.444a5.837,5.837,0,0,1,.08-1.22,3.7,3.7,0,0,1,3.621-2.921h50.393a5.123,5.123,0,0,1,1.9.207,3.688,3.688,0,0,1,2.394,2.728,11.077,11.077,0,0,1,.073,1.807v8.383c0,8.457-.04,15.3-.053,20.041v1.674a3.575,3.575,0,0,1-1.767,3.181,3.334,3.334,0,0,1-1.334.454,2.969,2.969,0,0,1-.574.047Z" transform="translate(-206.762 -248.286)" fill="#263238"/>
        <rect id="Rectangle_4607" data-name="Rectangle 4607" width="2.234" height="8.883" transform="translate(26.189 22.451)" fill="#0091ff"/>
        <rect id="Rectangle_4608" data-name="Rectangle 4608" width="2.234" height="10.171" transform="translate(7.542 21.164)" fill="#0091ff"/>
        <rect id="Rectangle_4609" data-name="Rectangle 4609" width="2.234" height="12.291" transform="translate(12.204 19.043)" fill="#0091ff"/>
        <rect id="Rectangle_4610" data-name="Rectangle 4610" width="2.234" height="11.618" transform="translate(16.865 19.717)" fill="#0091ff"/>
        <rect id="Rectangle_4611" data-name="Rectangle 4611" width="2.234" height="15.546" transform="translate(21.527 15.789)" fill="#0091ff"/>
        <rect id="Rectangle_4612" data-name="Rectangle 4612" width="2.234" height="15.473" transform="translate(30.851 15.862)" fill="#0091ff"/>
        <rect id="Rectangle_4613" data-name="Rectangle 4613" width="2.234" height="10.391" transform="translate(35.512 20.944)" fill="#0091ff"/>
        <rect id="Rectangle_4614" data-name="Rectangle 4614" width="2.234" height="14.792" transform="translate(40.174 16.542)" fill="#0091ff"/>
        <rect id="Rectangle_4615" data-name="Rectangle 4615" width="2.234" height="18.12" transform="translate(44.829 13.215)" fill="#0091ff"/>
        <rect id="Rectangle_4616" data-name="Rectangle 4616" width="2.234" height="14.866" transform="translate(49.491 16.469)" fill="#0091ff"/>
        <path id="Path_49402" data-name="Path 49402" d="M234.05,259.763c0,.093-3.962.173-8.85.173s-8.85-.08-8.85-.173,3.962-.173,8.85-.173S234.05,259.663,234.05,259.763Z" transform="translate(-209.955 -252.051)" fill="#263238"/>
      </g>
      <g id="freepik--speech-bubble--inject-45" transform="translate(287.254 60.04)">
        <path id="Path_49403" data-name="Path 49403" d="M427.558,80.93H455.5a2.548,2.548,0,0,1,2.554,2.554v27.937a2.548,2.548,0,0,1-2.554,2.554H436.154l-7.776,6.4v-6.4h-.834a2.548,2.548,0,0,1-2.554-2.554V83.484a2.548,2.548,0,0,1,2.568-2.554Z" transform="translate(-424.961 -77.593)" fill="#fff"/>
        <path id="Path_49404" data-name="Path 49404" d="M0,.027H33.053V7.363a3.1,3.1,0,0,1-3.1,3.1H3.128A3.121,3.121,0,0,1,0,7.336V.027Z" transform="translate(33.095 13.794) rotate(180)" fill="#0091ff"/>
        <path id="Path_49405" data-name="Path 49405" d="M444.082,102.92v11.238h-2.594v-9.15H439.24V102.92Z" transform="translate(-429.708 -84.918)" fill="#263238"/>
        <path id="Path_49406" data-name="Path 49406" d="M458.12,102.92v1.687l-4.175,9.55h-2.821l4-9.117H451.4v1.827H449.09V102.92Z" transform="translate(-432.989 -84.918)" fill="#263238"/>
        <path id="Path_49407" data-name="Path 49407" d="M442.86,89.747c0,.06,2.274.107,5.075.107S453,89.807,453,89.747s-2.268-.107-5.069-.107S442.86,89.693,442.86,89.747Z" transform="translate(-430.913 -80.494)" fill="#263238"/>
        <path id="Path_49408" data-name="Path 49408" d="M427.543,80.885a1.141,1.141,0,0,0-.173,0,2.275,2.275,0,0,0-.507.073,2.541,2.541,0,0,0-1.554,1.18,2.614,2.614,0,0,0-.36,1.407v27.677a2.848,2.848,0,0,0,.14.994,2.668,2.668,0,0,0,2.314,1.8h1.027l-.093-.1v6.616l.16-.133,7.783-6.4h19.274a2.548,2.548,0,0,0,.887-.167,2.621,2.621,0,0,0,1.334-1.12,2.78,2.78,0,0,0,.327-.827,4.33,4.33,0,0,0,.053-.874V84.346a9.07,9.07,0,0,0-.053-1.407,2.634,2.634,0,0,0-1.774-2.007,4,4,0,0,0-1.334-.127H432.905l14.626.033h7.463a3.955,3.955,0,0,1,1.287.127,2.481,2.481,0,0,1,1.654,1.881,10.31,10.31,0,0,1,.047,1.374v26.7a4.308,4.308,0,0,1-.053.834,2.668,2.668,0,0,1-.3.76,2.447,2.447,0,0,1-1.3,1.16,4.849,4.849,0,0,1-1.687.153H436.113l-7.8,6.449.16.073v-6.489H427.37a2.381,2.381,0,0,1-.934-.26,2.461,2.461,0,0,1-1.227-1.414,2.747,2.747,0,0,1-.127-.934V85.32c0-1.26-.167-2.368.333-3.115a2.5,2.5,0,0,1,1.507-1.18A3.149,3.149,0,0,1,427.543,80.885Z" transform="translate(-424.947 -77.548)" fill="#263238"/>
        <rect id="Rectangle_4617" data-name="Rectangle 4617" width="2.154" height="7.463" rx="1.077" transform="translate(10.593 0.095)" fill="#e0e0e0"/>
        <path id="Path_49409" data-name="Path 49409" d="M441.77,83.485a1.334,1.334,0,0,1-.614-.247,1.047,1.047,0,0,1-.36-.667V77.109a.947.947,0,0,1,.267-.714.987.987,0,0,1,.74-.273.954.954,0,0,1,.707.32,1.034,1.034,0,0,1,.227.74c0,.567,0,1.114,0,1.634v3.335a2.9,2.9,0,0,1,0,.487,1.047,1.047,0,0,1-.407.667,1.334,1.334,0,0,1-.627.207.426.426,0,0,0,.18,0,1.094,1.094,0,0,0,.494-.16,1.074,1.074,0,0,0,.473-.667,2.623,2.623,0,0,0,.033-.514q0-.27,0-.56V77.2a1.194,1.194,0,0,0-.28-.874,1.175,1.175,0,0,0-2.074.8v5.482a1.061,1.061,0,0,0,.427.667.981.981,0,0,0,.48.193C441.71,83.505,441.77,83.492,441.77,83.485Z" transform="translate(-430.137 -75.927)" fill="#263238"/>
        <rect id="Rectangle_4618" data-name="Rectangle 4618" width="2.154" height="7.463" rx="1.077" transform="translate(20.683 0.095)" fill="#e0e0e0"/>
        <path id="Path_49410" data-name="Path 49410" d="M456.9,83.489a1.334,1.334,0,0,1-.614-.247,1.047,1.047,0,0,1-.36-.667V77.12a.94.94,0,0,1,1.007-.987.927.927,0,0,1,.707.32,1.014,1.014,0,0,1,.233.74v4.969a2.3,2.3,0,0,1,0,.487,1.041,1.041,0,0,1-.4.667,1.334,1.334,0,0,1-.627.207.427.427,0,0,0,.18,0,1.093,1.093,0,0,0,.493-.16A1.127,1.127,0,0,0,458,82.7a2.635,2.635,0,0,0,.033-.514q0-.27,0-.56V77.213a1.194,1.194,0,0,0-.28-.874,1.18,1.18,0,0,0-2.081.8c0,.567,0,1.114,0,1.634v3.848a1.034,1.034,0,0,0,.427.667.934.934,0,0,0,.48.193C456.843,83.509,456.9,83.5,456.9,83.489Z" transform="translate(-435.18 -75.931)" fill="#263238"/>
      </g>
      <g id="freepik--character-2--inject-45" transform="translate(208.029 67.321)">
        <path id="Path_49411" data-name="Path 49411" d="M340.223,212.441l2.4,2.994V210.28h7.556s.84,11.818.667,14.332a19.805,19.805,0,0,1-.927,3.855,4.435,4.435,0,0,1-7.336,1.834,26.368,26.368,0,0,1-2.368-2.628c-3.335-4.322-8.937-14.839-8.937-14.839l5.822-3.515Z" transform="translate(-314.523 -127.638)" fill="#ffbe9d"/>
        <path id="Path_49412" data-name="Path 49412" d="M344,213.129a8.288,8.288,0,0,0,.987,1.334c.667.794,1.521,1.881,2.528,3.061a39.761,39.761,0,0,0,2.708,2.914,5.581,5.581,0,0,0,1.281,1.04,12.73,12.73,0,0,0-1.107-1.214c-.667-.74-1.6-1.8-2.608-2.974A38.66,38.66,0,0,0,344,213.129Z" transform="translate(-318.76 -128.906)" fill="#eb996e"/>
        <path id="Path_49413" data-name="Path 49413" d="M393.722,106.264l.34,27.444c.06,4.668-.807,11.538-8.2,11.291h0c-6.389-.667-8.083-6.743-8.13-11.1,0-2.067-.053-3.788-.067-4,0,0-7-.574-7.59-7.483-.28-3.335-.313-10.264-.26-16.526a12.912,12.912,0,0,1,12-12.778l.667-.053C389.694,92.953,393.815,99.022,393.722,106.264Z" transform="translate(-327.353 -88.914)" fill="#ffbe9d"/>
        <path id="Path_49414" data-name="Path 49414" d="M381.6,146.635a16.793,16.793,0,0,0,8.81-3.335s-1.827,5.215-8.777,5.1Z" transform="translate(-331.284 -105.649)" fill="#eb996e"/>
        <path id="Path_49415" data-name="Path 49415" d="M387.531,115.93c.14.14.934-.5,2.094-.534s2,.54,2.141.387-.08-.32-.46-.587a2.914,2.914,0,0,0-1.721-.487,2.774,2.774,0,0,0-1.661.607C387.578,115.6,387.464,115.869,387.531,115.93Z" transform="translate(-333.253 -96.125)" fill="#263238"/>
        <path id="Path_49416" data-name="Path 49416" d="M386.59,120.273a.94.94,0,0,0,.967.88.894.894,0,0,0,.9-.914.934.934,0,0,0-.967-.88.9.9,0,0,0-.9.914Z" transform="translate(-332.946 -97.674)" fill="#263238"/>
        <path id="Path_49417" data-name="Path 49417" d="M381.82,124.18a7.116,7.116,0,0,0-1.747-.187c-.273,0-.534-.047-.594-.227a1.334,1.334,0,0,1,.12-.814c.207-.667.427-1.387.667-2.127a35.935,35.935,0,0,0,1.407-5.535,36.378,36.378,0,0,0-1.847,5.409c-.22.747-.427,1.454-.62,2.134a1.541,1.541,0,0,0-.06,1.074.667.667,0,0,0,.474.367,1.653,1.653,0,0,0,.467,0,7.1,7.1,0,0,0,1.734-.093Z" transform="translate(-330.443 -96.319)" fill="#263238"/>
        <path id="Path_49418" data-name="Path 49418" d="M388.276,108.719c.113.26,1.04.067,2.148.127s2,.3,2.147.053c.06-.12-.113-.353-.487-.587a3.675,3.675,0,0,0-3.281-.133C388.417,108.379,388.23,108.619,388.276,108.719Z" transform="translate(-333.505 -93.843)" fill="#263238"/>
        <path id="Path_49419" data-name="Path 49419" d="M371.786,111.308c.12.207,1.027,0,2.121-.06s2,.107,2.121-.113c.047-.107-.133-.293-.513-.46a3.8,3.8,0,0,0-1.621-.267,3.881,3.881,0,0,0-1.607.4C371.926,111,371.732,111.207,371.786,111.308Z" transform="translate(-328.012 -94.691)" fill="#263238"/>
        <path id="Path_49420" data-name="Path 49420" d="M405.38,120.429c.12-.06,4.668-1.754,4.849,2.981s-4.608,3.962-4.622,3.821S405.38,120.429,405.38,120.429Z" transform="translate(-339.204 -97.917)" fill="#ffbe9d"/>
        <path id="Path_49421" data-name="Path 49421" d="M407.778,126.117a1.909,1.909,0,0,0,.227.113.8.8,0,0,0,.62,0,2.047,2.047,0,0,0,.874-1.867,2.741,2.741,0,0,0-.28-1.174.954.954,0,0,0-.667-.607.414.414,0,0,0-.48.247c-.06.133,0,.227-.047.233s-.107-.073-.08-.273a.52.52,0,0,1,.18-.3.594.594,0,0,1,.447-.14,1.147,1.147,0,0,1,.894.7,2.754,2.754,0,0,1,.34,1.334,2.154,2.154,0,0,1-1.12,2.094.887.887,0,0,1-.76-.093C407.792,126.243,407.765,126.117,407.778,126.117Z" transform="translate(-340.002 -98.669)" fill="#eb996e"/>
        <path id="Path_49422" data-name="Path 49422" d="M384.869,132.014c-.053-.12.874-.4,1.527-1.274a5.522,5.522,0,0,0,.667-1.234c.133-.347.24-.56.293-.547s.033.247-.04.627a3.468,3.468,0,0,1-.614,1.381,2.815,2.815,0,0,1-1.207.927C385.122,132.041,384.882,132.054,384.869,132.014Z" transform="translate(-332.372 -100.872)" fill="#263238"/>
        <path id="Path_49423" data-name="Path 49423" d="M356.053,97.619a1.107,1.107,0,0,1,.527-.667,3.448,3.448,0,0,1,1.761-.28,10.077,10.077,0,0,0,5.2-1.581,23.145,23.145,0,0,1,2.414-2.934c2.094-2.161,3.822-3.628,5.6-4.348a16.093,16.093,0,0,1,8.563-.667,6.486,6.486,0,0,1,4.9,5.049,4.984,4.984,0,0,1,5.015-.474h.04c1.827.667,2.868,2.581,3.408,4.448s.767,3.855,1.754,5.529c.207.347.453.767.273,1.134a.78.78,0,0,1-.807.353,2.3,2.3,0,0,1-.854-.387c.207.487.413.974.614,1.461a4.268,4.268,0,0,1-2-.127,42.59,42.59,0,0,1-1.3,4.915,2.835,2.835,0,0,0-1.934.474c-.667.58-.927,1.661-2,1.254-.54-.213-1.034-1.334-1.22-1.9a27.03,27.03,0,0,1-1.167-11.418,8.516,8.516,0,0,0-2.668-1.927l.08.073c-1.927-.667-4.115-1.334-5.949-.427-1.42.707-2.254,2.181-3.335,3.335a10.864,10.864,0,0,1-7.736,3.575c-.1,1.941.06,4.668-.04,6.669l-1.6-3.128h0c-.133-.233-.24-.46-.347-.667l-.04-.067h0a10.668,10.668,0,0,0-.547-1.107h0a1.214,1.214,0,0,1-1.774-1.627,2.723,2.723,0,0,1,.587-.587,1.921,1.921,0,0,1-1.834.474,1.514,1.514,0,0,1-1.067-1.494,1.294,1.294,0,0,1,.767-1.027,4.282,4.282,0,0,1-2.461-.547C356.367,98.686,355.886,98.226,356.053,97.619Z" transform="translate(-322.764 -86.845)" fill="#263238"/>
        <path id="Path_49424" data-name="Path 49424" d="M396.25,96.05a5.422,5.422,0,0,1,.667.667,4.935,4.935,0,0,1,1.06,2.294,8.88,8.88,0,0,1,.173,1.754c0,.667-.047,1.334-.093,2.041a18.012,18.012,0,0,0-.053,2.268,7.408,7.408,0,0,0,.153,1.194,2.535,2.535,0,0,0,.487,1.16,1.047,1.047,0,0,0,.98.327,1.554,1.554,0,0,0,.874-.494,3.542,3.542,0,0,0,.667-1.761h-.147a5.962,5.962,0,0,0,.84,1.447,2.088,2.088,0,0,0,1.334.734,1.334,1.334,0,0,0,.714-.127,1.167,1.167,0,0,0,.487-.48,1.253,1.253,0,0,0,.147-.607.86.86,0,0,0-.227-.54l-.073.067a4.482,4.482,0,0,0,1.487,1.114,4.4,4.4,0,0,0,.46.18l.167.04-.16-.067c-.1-.047-.253-.107-.447-.2a4.629,4.629,0,0,1-1.434-1.134l-.067.067a.894.894,0,0,1,.04,1.027,1.014,1.014,0,0,1-.433.42,1.181,1.181,0,0,1-.667.107,1.928,1.928,0,0,1-1.247-.667,5.648,5.648,0,0,1-.814-1.421l-.1-.22-.04.24a3.488,3.488,0,0,1-.667,1.681,1.414,1.414,0,0,1-.78.44.887.887,0,0,1-.834-.273,2.315,2.315,0,0,1-.447-1.087,7.171,7.171,0,0,1-.153-1.174,17.876,17.876,0,0,1,.04-2.248c.047-.714.093-1.4.08-2.047a8.669,8.669,0,0,0-.2-1.781,4.855,4.855,0,0,0-1.12-2.308A2.841,2.841,0,0,0,396.25,96.05Z" transform="translate(-336.163 -89.911)" fill="#455a64"/>
        <path id="Path_49425" data-name="Path 49425" d="M364.18,100.832l.06.047a1.953,1.953,0,0,0,.173.127,1.526,1.526,0,0,0,.287.187,3.544,3.544,0,0,0,.427.227,6.122,6.122,0,0,0,2.954.527,7.783,7.783,0,0,0,4.175-1.541,13.612,13.612,0,0,0,3.581-4.128c.5-.84.914-1.694,1.334-2.488a9.136,9.136,0,0,1,1.561-2.107,4.741,4.741,0,0,1,2-1.207,3.334,3.334,0,0,1,1.047-.12,3.769,3.769,0,0,1,.967.187,4,4,0,0,1,2.221,1.881,4.788,4.788,0,0,1,.354,1.034v-.073a.507.507,0,0,0-.033-.213,3.61,3.61,0,0,0-.26-.78,3.855,3.855,0,0,0-.774-1.047,4,4,0,0,0-1.467-.907,3.92,3.92,0,0,0-.994-.207,3.6,3.6,0,0,0-1.087.12,4.862,4.862,0,0,0-2.061,1.227,9.338,9.338,0,0,0-1.581,2.134c-.46.8-.867,1.654-1.367,2.488a13.485,13.485,0,0,1-3.528,4.088,7.836,7.836,0,0,1-4.095,1.547,6.156,6.156,0,0,1-2.928-.474A9.247,9.247,0,0,1,364.18,100.832Z" transform="translate(-325.482 -87.971)" fill="#455a64"/>
        <path id="Path_49426" data-name="Path 49426" d="M363.24,101.579a1.287,1.287,0,0,0,.247.173,6.534,6.534,0,0,0,.734.373,7.5,7.5,0,0,0,1.167.38,7.643,7.643,0,0,0,2.981.093,7,7,0,0,0,1.18-.307,4.667,4.667,0,0,0,.76-.327,1.061,1.061,0,0,0,.253-.153s-.393.167-1.047.373a8.144,8.144,0,0,1-1.174.267,8.558,8.558,0,0,1-1.467.087,8.063,8.063,0,0,1-2.608-.52C363.627,101.772,363.253,101.552,363.24,101.579Z" transform="translate(-325.168 -91.752)" fill="#455a64"/>
        <path id="Path_49427" data-name="Path 49427" d="M371.7,115.93c.14.14.94-.5,2.094-.534s2,.54,2.147.387-.087-.32-.46-.587a2.915,2.915,0,0,0-1.721-.487,2.774,2.774,0,0,0-1.661.607C371.748,115.6,371.634,115.869,371.7,115.93Z" transform="translate(-327.981 -96.125)" fill="#263238"/>
        <path id="Path_49428" data-name="Path 49428" d="M372.08,120.273a.94.94,0,0,0,.967.88.907.907,0,0,0,.907-.914.947.947,0,0,0-.974-.88.9.9,0,0,0-.9.914Z" transform="translate(-328.113 -97.675)" fill="#263238"/>
        <path id="Path_49429" data-name="Path 49429" d="M419.918,426.05l1.434,17.26,5.069,13.338a1.774,1.774,0,0,1-1.14,2.328h0a1.767,1.767,0,0,1-1.6-.293c-2.894-2.241-13.338-10.477-13.452-11.551-.147-1.394-2.808-18.36-2.808-18.36Z" transform="translate(-339.884 -199.826)" fill="#455a64"/>
        <path id="Path_49430" data-name="Path 49430" d="M426.539,468.5,411.2,454.69l.153,1.281c.1.7.113,1.08.573,1.514A148.173,148.173,0,0,0,424.779,468.5,1.968,1.968,0,0,0,426.539,468.5Z" transform="translate(-341.143 -209.365)" fill="#263238"/>
        <path id="Path_49431" data-name="Path 49431" d="M415,446.567a1.08,1.08,0,0,1,.44,1.367,1.04,1.04,0,0,1-1.334.447,1.134,1.134,0,0,1-.46-1.447,1.074,1.074,0,0,1,1.454-.314" transform="translate(-341.925 -206.624)" fill="#fff"/>
        <path id="Path_49432" data-name="Path 49432" d="M427.079,463.614c.1.04.393-.907,1.334-1.5a5.335,5.335,0,0,1,1.941-.587c0-.047-.22-.153-.634-.167a2.8,2.8,0,0,0-2.554,1.614C427.012,463.347,427.012,463.608,427.079,463.614Z" transform="translate(-346.418 -211.587)" fill="#263238"/>
        <path id="Path_49433" data-name="Path 49433" d="M429.294,467.251c.093.06.587-.553,1.447-.907a14.276,14.276,0,0,1,1.661-.393,1.954,1.954,0,0,0-1.807.047C429.614,466.4,429.2,467.251,429.294,467.251Z" transform="translate(-347.165 -213.05)" fill="#263238"/>
        <path id="Path_49434" data-name="Path 49434" d="M423.2,459.458a18.471,18.471,0,0,1,2.141-1.541,17.675,17.675,0,0,1,2.494-.867,4.855,4.855,0,0,0-4.635,2.408Z" transform="translate(-345.14 -210.145)" fill="#263238"/>
        <path id="Path_49435" data-name="Path 49435" d="M421.89,452.36c.06.1.967-.4,2.2-.574s2.248,0,2.274-.093A4.4,4.4,0,0,0,421.89,452.36Z" transform="translate(-344.703 -208.256)" fill="#263238"/>
        <path id="Path_49436" data-name="Path 49436" d="M421.067,444.752a8.672,8.672,0,0,1,2.274-.667,8.514,8.514,0,0,1,2.341.333c0-.04-.187-.24-.607-.427a3.847,3.847,0,0,0-1.761-.287,3.908,3.908,0,0,0-1.707.534C421.22,444.492,421.02,444.719,421.067,444.752Z" transform="translate(-344.427 -205.703)" fill="#263238"/>
        <path id="Path_49437" data-name="Path 49437" d="M422.953,441.244a1.58,1.58,0,0,0-.047-.667,4.422,4.422,0,0,0-.667-1.647,2,2,0,0,0-.96-.867.707.707,0,0,0-.78.24,1.181,1.181,0,0,0-.193.807,2.508,2.508,0,0,0,2.434,2.074,2.914,2.914,0,0,0,2.668-1.814,1.007,1.007,0,0,0-.047-.84.667.667,0,0,0-.767-.287,2.4,2.4,0,0,0-1.067.707,4.964,4.964,0,0,0-1.034,1.461c-.18.387-.227.62-.2.627a7.809,7.809,0,0,1,1.414-1.894,2.308,2.308,0,0,1,.954-.594.38.38,0,0,1,.42.153.667.667,0,0,1,0,.554,2.594,2.594,0,0,1-2.341,1.547,2.188,2.188,0,0,1-2.094-1.734.874.874,0,0,1,.113-.567.38.38,0,0,1,.427-.14,1.8,1.8,0,0,1,.827.72A6.75,6.75,0,0,1,422.953,441.244Z" transform="translate(-344.173 -203.815)" fill="#263238"/>
        <path id="Path_49438" data-name="Path 49438" d="M357.819,427.313l.667,14.612s-14.639,5.555-14.786,8.27l28.384-.22-.06-22.815Z" transform="translate(-318.66 -200.196)" fill="#455a64"/>
        <path id="Path_49439" data-name="Path 49439" d="M378.319,447.35a1.16,1.16,0,0,1,.807,1.334,1.107,1.107,0,0,1-1.294.814,1.22,1.22,0,0,1-.854-1.4,1.16,1.16,0,0,1,1.447-.667" transform="translate(-329.737 -206.921)" fill="#e0e0e0"/>
        <path id="Path_49440" data-name="Path 49440" d="M372.038,460.221l-.1-2.3-27.17,1.074s-1.26.56-1.114,1.447Z" transform="translate(-318.641 -210.441)" fill="#263238"/>
        <path id="Path_49441" data-name="Path 49441" d="M365.14,449.033c0,.14.7.193,1.387.667s1.054,1.02,1.18.967-.087-.854-.927-1.374S365.106,448.906,365.14,449.033Z" transform="translate(-325.801 -207.443)" fill="#263238"/>
        <path id="Path_49442" data-name="Path 49442" d="M360.69,450.967c0,.133.574.367,1.047.947s.614,1.2.754,1.194.22-.787-.387-1.5S360.69,450.814,360.69,450.967Z" transform="translate(-324.319 -208.104)" fill="#263238"/>
        <path id="Path_49443" data-name="Path 49443" d="M357.637,455.141c.127.033.314-.667-.047-1.421s-1.014-1.054-1.074-.934.347.514.667,1.14S357.5,455.128,357.637,455.141Z" transform="translate(-322.927 -208.723)" fill="#263238"/>
        <path id="Path_49444" data-name="Path 49444" d="M365.477,443.817c.053.127.667-.067,1.474,0s1.394.287,1.467.167-.52-.607-1.441-.667S365.4,443.711,365.477,443.817Z" transform="translate(-325.912 -205.576)" fill="#263238"/>
        <path id="Path_49445" data-name="Path 49445" d="M357.47,268.138c0,.847,3.295,117.645,3.295,117.645H378.3l3.528-99.885s4.155,52.24,4.155,53.354,3.661,47.111,3.661,47.111l16.266-1.334-1.067-105.2-2-15.419Z" transform="translate(-323.247 -145.988)" fill="#263238"/>
        <path id="Path_49446" data-name="Path 49446" d="M395.051,284.808a3.453,3.453,0,0,1-.714.293c-.467.173-1.14.407-2,.667l-.16.053v-.167c-.1-1.407-.213-3.281-.313-5.335-.113-2.234-.193-4.255-.233-5.722,0-.727-.033-1.334-.033-1.734a2.515,2.515,0,0,1,.033-.634,2,2,0,0,1,.1.627c.04.413.093,1,.14,1.734.107,1.461.227,3.481.34,5.709.1,2.061.18,3.942.22,5.335l-.167-.107c.847-.26,1.534-.46,2-.587a2.848,2.848,0,0,1,.787-.133Z" transform="translate(-334.611 -148.592)" fill="#455a64"/>
        <path id="Path_49447" data-name="Path 49447" d="M394.386,272.713a.459.459,0,0,1,.233-.153,1.087,1.087,0,0,1,.774.067.967.967,0,0,1,.587.96,1.167,1.167,0,0,1-.934,1.034,1.274,1.274,0,0,1-1.287-.58,1.041,1.041,0,0,1,0-1.114,1.22,1.22,0,0,1,.58-.487c.167-.06.273-.047.28,0a1.723,1.723,0,0,0-.667.62.847.847,0,0,0,.047.847.994.994,0,0,0,.947.42.9.9,0,0,0,.667-.74.734.734,0,0,0-.387-.727,1.427,1.427,0,0,0-.84-.147Z" transform="translate(-335.28 -148.649)" fill="#455a64"/>
        <path id="Path_49448" data-name="Path 49448" d="M406.689,273.524c-.093,0-.227-.5-.3-1.134s-.047-1.154.053-1.16.227.494.293,1.127S406.783,273.511,406.689,273.524Z" transform="translate(-339.527 -148.259)" fill="#455a64"/>
        <path id="Path_49449" data-name="Path 49449" d="M408.59,273.288c-.093,0-.173-.54-.18-1.2s.073-1.207.167-1.207.18.54.18,1.2S408.69,273.288,408.59,273.288Z" transform="translate(-340.213 -148.143)" fill="#455a64"/>
        <path id="Path_49450" data-name="Path 49450" d="M376.8,274.338a2.96,2.96,0,0,1-.327-1.334,3.208,3.208,0,0,1,0-1.394,2.994,2.994,0,0,1,.327,1.334A3.289,3.289,0,0,1,376.8,274.338Z" transform="translate(-329.556 -148.386)" fill="#455a64"/>
        <path id="Path_49451" data-name="Path 49451" d="M378.954,274.438a2.147,2.147,0,0,1-.427-1.421,2.081,2.081,0,0,1,.307-1.447,6.6,6.6,0,0,1,.04,1.434C378.908,273.784,379.054,274.4,378.954,274.438Z" transform="translate(-330.252 -148.372)" fill="#455a64"/>
        <path id="Path_49452" data-name="Path 49452" d="M367,273.53a3.549,3.549,0,0,1-.053.514,10.173,10.173,0,0,1-.353,1.367,14.534,14.534,0,0,1-2.167,4.168,15.34,15.34,0,0,1-3.428,3.335,10.845,10.845,0,0,1-1.247.76,2.429,2.429,0,0,1-.487.227c-.033-.047.634-.42,1.6-1.154a17.411,17.411,0,0,0,3.335-3.335,16.538,16.538,0,0,0,2.214-4.055C366.789,274.237,366.942,273.517,367,273.53Z" transform="translate(-323.842 -149.025)" fill="#455a64"/>
        <path id="Path_49453" data-name="Path 49453" d="M422.736,281.829a1.783,1.783,0,0,1-.534.087,8.629,8.629,0,0,1-1.467,0,9.69,9.69,0,0,1-4.495-1.667,8.99,8.99,0,0,1-2.995-3.588,7.761,7.761,0,0,1-.46-1.334,1.335,1.335,0,0,1-.067-.507c.053,0,.2.667.727,1.747a9.6,9.6,0,0,0,2.981,3.441,10.178,10.178,0,0,0,4.335,1.687C421.969,281.849,422.736,281.776,422.736,281.829Z" transform="translate(-341.648 -149.455)" fill="#455a64"/>
        <path id="Path_49454" data-name="Path 49454" d="M378.442,372.361c0,.08-2.934-.594-6.5-1.494s-6.436-1.7-6.416-1.781,2.928.587,6.5,1.494S378.462,372.295,378.442,372.361Z" transform="translate(-325.931 -180.851)" fill="#455a64"/>
        <path id="Path_49455" data-name="Path 49455" d="M421.551,367.639c.04.073-2.488,1.481-5.649,3.141s-5.762,2.954-5.8,2.881,2.488-1.474,5.649-3.141S421.511,367.572,421.551,367.639Z" transform="translate(-340.776 -180.37)" fill="#455a64"/>
        <path id="Path_49456" data-name="Path 49456" d="M370.54,157.535l7.97-3.121,14.679-.834,6.9,2.621-9.457,5.255-8.15-.3Z" transform="translate(-327.6 -109.073)" fill="#ffbe9d"/>
        <path id="Path_49457" data-name="Path 49457" d="M352.33,232.57c.72.12,48.819,2.167,48.819,2.167l-1.687-43.25-.14-8.49-2.734-25.723s-7.189-2.474-10.858-3.655c0,0-3.861,4-11.2,3.915-7.176-.107-8.67-1.727-8.67-1.727l-10.037,3.848s-7.129,2.561-8.357,5.716-3.388,20.621-3.388,20.621h10.4l-.2,31.005Z" transform="translate(-318.787 -109.086)" fill="#0091ff"/>
        <g id="Group_4507" data-name="Group 4507" transform="translate(63.781 65.195)" opacity="0.2">
          <path id="Path_49458" data-name="Path 49458" d="M401.79,185.14l1.494,10.9,7.216,3.221,5.335-4.548V184.6l-14.045.54" transform="translate(-401.79 -184.6)"/>
        </g>
        <path id="Path_49459" data-name="Path 49459" d="M415.9,189.956c0,.087-2.994.16-6.669.16s-6.669-.073-6.669-.16q3.328-.25,6.669-.167,3.337-.083,6.669.167Z" transform="translate(-338.265 -121.126)" fill="#263238"/>
        <path id="Path_49460" data-name="Path 49460" d="M351.59,178a1.666,1.666,0,0,1,.08.287c.047.213.113.487.187.834a28.342,28.342,0,0,0,.96,3.068,47.362,47.362,0,0,0,2,4.508,50.349,50.349,0,0,1,2.234,5.9v.047c0,2.588-.033,5.429-.053,8.39-.073,6.609-.133,12.6-.18,16.967-.04,2.147-.067,3.895-.093,5.142a13.606,13.606,0,0,1-.04,1.394,2.754,2.754,0,0,1,0,.487,2.491,2.491,0,0,1,0-.487v-6.543c0-4.368.053-10.351.087-16.967,0-2.961.053-5.8.073-8.383v.033c-.727-2.161-1.421-4.162-2.174-5.882a47.834,47.834,0,0,1-1.927-4.555,23.386,23.386,0,0,1-.887-3.108c-.067-.367-.12-.667-.147-.847a1.4,1.4,0,0,1-.12-.28Z" transform="translate(-321.288 -117.206)" fill="#263238"/>
        <path id="Path_49461" data-name="Path 49461" d="M427.521,170.37a6.1,6.1,0,0,1,0,.92c0,.667-.06,1.494-.093,2.514-.087,2.174-.2,5.075-.327,8.283s-.28,6.109-.38,8.283c-.053,1.014-.107,1.861-.14,2.508a4.339,4.339,0,0,1-.1.92,5.836,5.836,0,0,1,0-.92c0-.667.033-1.5.047-2.514.053-2.121.153-5.055.287-8.29s.28-6.162.42-8.283c.067-1.06.133-1.914.187-2.508a5.707,5.707,0,0,1,.1-.914Z" transform="translate(-346.227 -114.665)" fill="#263238"/>
        <g id="Group_4508" data-name="Group 4508" transform="translate(30.315 62.334)" opacity="0.3">
          <path id="Path_49462" data-name="Path 49462" d="M351.623,180.31a18.067,18.067,0,0,0,4.722,12.885C355.365,188.733,352.924,184.585,351.623,180.31Z" transform="translate(-351.61 -180.31)"/>
        </g>
        <g id="Group_4509" data-name="Group 4509" transform="translate(51.457 87.497)" opacity="0.3">
          <path id="Path_49463" data-name="Path 49463" d="M383.31,235.693a8.977,8.977,0,0,0,5.769-3.215,27.242,27.242,0,0,0,3.881-5.609,22.127,22.127,0,0,0,2.268-8.83A41.464,41.464,0,0,1,383.31,235.693Z" transform="translate(-383.31 -218.04)"/>
        </g>
        <path id="Path_49464" data-name="Path 49464" d="M395.072,213.13a1.443,1.443,0,0,1-.04.28l-.173.78c-.073.34-.18.754-.32,1.22s-.293,1.02-.507,1.6a37.913,37.913,0,0,1-1.661,4.042,42.934,42.934,0,0,1-2.668,4.668,41.755,41.755,0,0,1-3.261,4.242,35.946,35.946,0,0,1-3.048,3.088c-.46.42-.907.76-1.294,1.074s-.72.56-1.014.754l-.667.453a1.077,1.077,0,0,1-.24.14,1.607,1.607,0,0,1,.207-.193l.62-.5c.28-.207.607-.467.98-.794s.807-.667,1.254-1.1a38.884,38.884,0,0,0,3.034-3.1,41.276,41.276,0,0,0,5.862-8.823,42.145,42.145,0,0,0,1.714-4c.227-.574.387-1.107.547-1.574s.28-.874.373-1.207.167-.554.227-.76A1.234,1.234,0,0,1,395.072,213.13Z" transform="translate(-330.811 -128.907)" fill="#263238"/>
        <path id="Path_49465" data-name="Path 49465" d="M389.292,192.84a3.54,3.54,0,0,1-.06.44c-.053.313-.127.734-.22,1.254s-.22,1.214-.414,2-.373,1.647-.667,2.588l-.44,1.494c-.16.52-.36,1.047-.547,1.594-.36,1.114-.847,2.261-1.334,3.475a58.024,58.024,0,0,1-8.877,14.506c-.86.987-1.661,1.941-2.488,2.768-.4.42-.78.84-1.174,1.214l-1.127,1.067c-.707.7-1.4,1.26-2,1.781s-1.127.934-1.574,1.267l-1.014.767a2.667,2.667,0,0,1-.367.253,2,2,0,0,1,.327-.3l.98-.814c.433-.347.954-.78,1.534-1.334s1.267-1.1,1.961-1.807l1.107-1.08c.387-.373.754-.8,1.154-1.22.814-.827,1.6-1.781,2.454-2.774a65.12,65.12,0,0,0,4.929-6.9,65.809,65.809,0,0,0,3.9-7.53c.493-1.207.987-2.348,1.334-3.448.187-.547.393-1.067.56-1.581s.307-1.007.453-1.481c.313-.94.507-1.807.714-2.568s.36-1.414.467-1.954.213-.934.28-1.247A2.067,2.067,0,0,1,389.292,192.84Z" transform="translate(-326.418 -122.149)" fill="#263238"/>
        <path id="Path_49466" data-name="Path 49466" d="M331.092,171.31c2.968,4.5,14.972,22.755,18.52,28.151a.834.834,0,0,1-.8,1.287l-21.342-2.668a.86.86,0,0,1-.567-.333l-20.374-27.824a.84.84,0,0,1,.74-1.334l21.942,1.627a2.427,2.427,0,0,1,1.881,1.094Z" transform="translate(-306.226 -114.071)" fill="#e0e0e0"/>
        <path id="Path_49467" data-name="Path 49467" d="M331.021,171.254a1.193,1.193,0,0,0-.167-.26,2.488,2.488,0,0,0-.667-.58,2.994,2.994,0,0,0-1.421-.347l-2-.16-12.672-.994-4.188-.32-2.234-.173h-.587a.975.975,0,0,0-.774,1.507l5.929,8.13,13.6,18.6c.313.42.587.814.92,1.247a1.027,1.027,0,0,0,.38.253,1.914,1.914,0,0,0,.413.087l.754.093,2.981.373,5.836.734,11.044,1.374c.227,0,.42.06.667.073a.974.974,0,0,0,.707-.293.987.987,0,0,0,.293-.7,1.167,1.167,0,0,0-.253-.667c-.48-.72-.947-1.434-1.407-2.134-.927-1.4-1.821-2.761-2.668-4.075-1.734-2.621-3.335-5.069-4.828-7.336l-7.023-10.564-1.921-2.868-.507-.74a1.334,1.334,0,0,0-.187-.24s.047.093.153.26l.48.76,1.867,2.9,6.923,10.631,4.8,7.336,2.668,4.082,1.394,2.134a.84.84,0,0,1,.207.507.707.707,0,0,1-.2.474.667.667,0,0,1-.474.193c-.187,0-.427-.047-.667-.073l-11.024-1.394-5.836-.74-2.981-.373-.754-.093a1.774,1.774,0,0,1-.333-.06.767.767,0,0,1-.247-.167c-.293-.407-.594-.814-.894-1.214L312.521,177.83l-5.949-8.1a.689.689,0,0,1,.54-1.06h.554l2.234.16,4.195.3,12.672.88,2,.127a2.915,2.915,0,0,1,1.394.307A2.6,2.6,0,0,1,331.021,171.254Z" transform="translate(-306.155 -114.016)" fill="#263238"/>
        <path id="Path_49468" data-name="Path 49468" d="M306.63,170.557a2.233,2.233,0,0,0,.453.067l1.294.133,4.815.427,16.386,1.334-.127-.08c1.027,1.527,2.081,3.108,3.148,4.742,4.322,6.669,8.1,12.758,10.951,17.107,1.421,2.181,2.6,3.922,3.421,5.122l.96,1.334a3.329,3.329,0,0,0,.36.467,4.292,4.292,0,0,0-.3-.507l-.907-1.407-3.335-5.175c-2.794-4.382-6.543-10.511-10.871-17.167-1.06-1.634-2.121-3.221-3.155-4.742l-.047-.073h-.08l-16.4-1.214-4.828-.327-1.3-.067a3.369,3.369,0,0,0-.44.027Z" transform="translate(-306.313 -114.718)" fill="#263238"/>
        <path id="Path_49469" data-name="Path 49469" d="M326.46,176.54Z" transform="translate(-312.918 -116.72)" fill="#fff"/>
        <path id="Path_49470" data-name="Path 49470" d="M325.668,176.836a.427.427,0,0,1,.527-.313,1.147,1.147,0,0,1,.574.32.567.567,0,0,1,.1.727c-.213.267-.667.167-.907-.053A.747.747,0,0,1,325.668,176.836Z" transform="translate(-312.652 -116.709)" fill="#fff"/>
        <path id="Path_49471" data-name="Path 49471" d="M334.316,199.5a1.536,1.536,0,0,0-1.294-2.268,73.6,73.6,0,0,0-7.743,0s-3.061.32-2.414,2.521c0,0-1.814,1.621-.847,3.368s1.334,1.227,1.334,1.227-.26,2.141,1.334,2.461c0,0,1.754,2.074,3.368,1.941s8.477-3.428,8.93-4.075,1.1-1.014.714-1.741c0,0,.84-1.894-.974-2.181C336.777,200.75,336.651,199.17,334.316,199.5Z" transform="translate(-311.344 -123.577)" fill="#ffbe9d"/>
        <path id="Path_49472" data-name="Path 49472" d="M326,201.327a5.622,5.622,0,0,0,1.447.107h3.475a20.214,20.214,0,0,0,3.495-.213c.927-.213,1.287-.754,1.24-.76a3.774,3.774,0,0,1-1.287.52,34.546,34.546,0,0,1-3.455.093c-1.334,0-2.588.06-3.475.107a6.176,6.176,0,0,0-1.441.147Z" transform="translate(-312.765 -124.687)" fill="#eb996e"/>
        <path id="Path_49473" data-name="Path 49473" d="M328.31,204.97a1.4,1.4,0,0,0,.46.16,5.023,5.023,0,0,0,1.334.087,9.459,9.459,0,0,0,1.947-.353c.72-.2,1.481-.474,2.281-.72a10.325,10.325,0,0,1,2.3-.474,3.555,3.555,0,0,0,1.954-.393,1.127,1.127,0,0,0,.467-.667.921.921,0,0,0-.08-.607c-.167-.313-.4-.327-.393-.313a.735.735,0,0,1,.267.367.834.834,0,0,1-.4,1.007,3.481,3.481,0,0,1-1.834.28,9.337,9.337,0,0,0-2.381.46l-2.274.76a10.488,10.488,0,0,1-1.874.413,12,12,0,0,1-1.774-.007Z" transform="translate(-313.534 -125.095)" fill="#eb996e"/>
        <path id="Path_49474" data-name="Path 49474" d="M331.74,209.164a5.841,5.841,0,0,0,1.441-.28c.88-.22,2.081-.567,3.395-.994s2.481-.867,3.335-1.207a5.562,5.562,0,0,0,1.334-.627c0-.093-2.147.667-4.762,1.494A42.813,42.813,0,0,0,331.74,209.164Z" transform="translate(-314.676 -126.549)" fill="#eb996e"/>
        <path id="Path_49475" data-name="Path 49475" d="M330.92,213.013a3.055,3.055,0,0,0,1.194-.133,14.625,14.625,0,0,0,2.734-.96c1.027-.474,1.927-.947,2.574-1.294a4.361,4.361,0,0,0,1.027-.62,26.186,26.186,0,0,0-3.748,1.587C332.681,212.513,330.907,212.926,330.92,213.013Z" transform="translate(-314.403 -127.863)" fill="#eb996e"/>
        <path id="Path_49476" data-name="Path 49476" d="M416.09,179.541s-4.362,17.467-9.81,23.916c-5.275,6.242-13.545,3.375-16.406-4.708s-7.963-26.53-7.963-26.53l6.262-4.789L399,188.4l4.882-14.3Z" transform="translate(-331.387 -113.686)" fill="#ffbe9d"/>
        <path id="Path_49477" data-name="Path 49477" d="M378.253,164.887l-4.6-6.669a11.932,11.932,0,0,1-1.954-.607c-.52-.307-1.034-2.948-1.02-3.468s-.894-1.721-.527-2.061,1.594-.367,1.527-.86c0-.107-.914-1.214-.2-2a3.834,3.834,0,0,1,1.294-.554l-.073-2.541s1.374-2.994,2.774-1.914c0,0,5.289,4.062,5.822,4.715s2.568,9.11,2.928,10.671" transform="translate(-327.443 -105.874)" fill="#ffbe9d"/>
        <path id="Path_49478" data-name="Path 49478" d="M384.14,159.527a2.223,2.223,0,0,0-.067-.454c-.073-.32-.16-.74-.273-1.267-.247-1.107-.62-2.668-1.12-4.668-.253-.987-.534-2.061-.887-3.208-.093-.287-.18-.574-.3-.867a2,2,0,0,0-.627-.767c-.48-.427-.987-.84-1.507-1.267q-1.571-1.271-3.335-2.621a3.809,3.809,0,0,0-.967-.667,1.334,1.334,0,0,0-1.194.287,5.5,5.5,0,0,0-1.407,1.9h0v.82c0,.594.04,1.18.053,1.761l.127-.16a5.91,5.91,0,0,0-.934.313,1.38,1.38,0,0,0-.454.293,1.274,1.274,0,0,0-.253.467,1.58,1.58,0,0,0,.08,1.014,2.666,2.666,0,0,0,.207.44l.12.193v.047h0v.047c0,.047-.133.133-.26.187a3.632,3.632,0,0,1-.407.133c-.147.047-.287.087-.44.147a.874.874,0,0,0-.44.307.754.754,0,0,0,0,.54,2.673,2.673,0,0,0,.153.427c.113.273.24.527.333.78a1.035,1.035,0,0,1,.08.353,4.124,4.124,0,0,0,.047.433c.04.28.087.547.147.814a10.172,10.172,0,0,0,.427,1.534,2,2,0,0,0,.407.714,2.434,2.434,0,0,0,.714.313c.467.147.92.26,1.334.36l-.073-.053,3.4,4.842.947,1.334a3.541,3.541,0,0,0,.347.44,2.7,2.7,0,0,0-.287-.48l-.894-1.334-3.335-4.9v-.033h-.047c-.433-.107-.887-.227-1.334-.373a2.2,2.2,0,0,1-.62-.267,1.821,1.821,0,0,1-.32-.6,11.22,11.22,0,0,1-.407-1.5c-.053-.26-.1-.527-.14-.794,0-.133-.033-.273-.033-.393a1.487,1.487,0,0,0-.093-.46c-.107-.273-.233-.534-.34-.787a3.42,3.42,0,0,1-.14-.387.514.514,0,0,1,0-.313.667.667,0,0,1,.28-.173l.413-.133a3.782,3.782,0,0,0,.44-.147.72.72,0,0,0,.434-.353.435.435,0,0,0,.033-.18.2.2,0,0,0-.033-.12v-.06l-.113-.193a2.348,2.348,0,0,1-.187-.393,1.26,1.26,0,0,1-.073-.807.988.988,0,0,1,.193-.347,1.027,1.027,0,0,1,.34-.213,6.109,6.109,0,0,1,.874-.293l.127-.033v-.127c0-.58-.033-1.174-.053-1.767v-.7a5.049,5.049,0,0,1,1.3-1.781,1.034,1.034,0,0,1,.907-.24,3.829,3.829,0,0,1,.867.587q1.741,1.34,3.335,2.6c.52.42,1.027.834,1.507,1.247a1.674,1.674,0,0,1,.56.667c.113.273.207.56.3.84.36,1.134.667,2.208.92,3.181.507,1.934.92,3.508,1.22,4.635.133.52.247.94.327,1.254A4.193,4.193,0,0,0,384.14,159.527Z" transform="translate(-327.355 -105.782)" fill="#eb996e"/>
        <path id="Path_49479" data-name="Path 49479" d="M374.13,150.915c0,.06.54,0,1.374.1a9.491,9.491,0,0,1,1.447.327,6.716,6.716,0,0,0,1.867,0,3.535,3.535,0,0,1,2.948.96,3.667,3.667,0,0,1,.707,1.127,1.694,1.694,0,0,0-.54-1.287,3.482,3.482,0,0,0-1.26-.887,3.8,3.8,0,0,0-1.874-.233,7.334,7.334,0,0,1-1.787,0,8,8,0,0,0-1.487-.267,3.808,3.808,0,0,0-1.394.16Z" transform="translate(-328.796 -108.129)" fill="#eb996e"/>
        <path id="Path_49480" data-name="Path 49480" d="M376.884,150.107c.08.04.293-.273.267-.714s-.273-.72-.347-.667,0,.333,0,.667S376.8,150.067,376.884,150.107Z" transform="translate(-329.675 -107.454)" fill="#eb996e"/>
        <path id="Path_49481" data-name="Path 49481" d="M372.25,154.593a11.45,11.45,0,0,0,4-.313,3.942,3.942,0,0,1,1.461-.18,1.581,1.581,0,0,1,.954.62,9.246,9.246,0,0,1,.52,1.014,1.787,1.787,0,0,0-.333-1.14,1.747,1.747,0,0,0-1.08-.794,3.8,3.8,0,0,0-1.587.167C374.031,154.426,372.243,154.5,372.25,154.593Z" transform="translate(-328.169 -109.138)" fill="#eb996e"/>
        <path id="Path_49482" data-name="Path 49482" d="M371.19,158.165a2.074,2.074,0,0,0,.98,0c.6-.067,1.407-.273,2.288-.447a5.208,5.208,0,0,1,1.234-.12,1.461,1.461,0,0,1,.887.32,1.334,1.334,0,0,1,.433.774.407.407,0,0,0,.053-.267,1.081,1.081,0,0,0-.327-.667,1.634,1.634,0,0,0-1.02-.454,4.743,4.743,0,0,0-1.334.1c-.9.18-1.687.42-2.268.54A5.372,5.372,0,0,0,371.19,158.165Z" transform="translate(-327.816 -110.31)" fill="#eb996e"/>
        <path id="Path_49483" data-name="Path 49483" d="M373.557,161.46c-.06.047.387.514,1.214.514l-.16-.14c0,.14.033.28.047.42a4.522,4.522,0,0,0,.38,1.681,4.828,4.828,0,0,0-.053-1.714l-.06-.427v-.147h-.147A5.021,5.021,0,0,1,373.557,161.46Z" transform="translate(-328.603 -111.697)" fill="#eb996e"/>
        <path id="Path_49484" data-name="Path 49484" d="M417.694,159.06s8.93,2.161,8.917,14.005-2.7,17.693-2.7,17.693L407.45,181.8l3.668-9.224Z" transform="translate(-339.894 -110.898)" fill="#0091ff"/>
        <path id="Path_49485" data-name="Path 49485" d="M423.8,191.995a1.636,1.636,0,0,1-.34-.153c-.253-.12-.567-.287-.954-.48l-3.515-1.854-11.738-6.322-.133-.073.053-.14c.287-.734.58-1.514.887-2.308l2.981-7.736,1.3-3.335a20.258,20.258,0,0,1,1.334-2.874,8.977,8.977,0,0,1,2.968-3.441,3.6,3.6,0,0,1,1.16-.46l.32-.047h.113a4.335,4.335,0,0,0-1.521.614,9.116,9.116,0,0,0-2.828,3.441,20.919,20.919,0,0,0-1.247,2.861l-1.274,3.368-2.995,7.73-.887,2.308-.08-.207,11.685,6.422,3.461,1.941.92.54A1.333,1.333,0,0,1,423.8,191.995Z" transform="translate(-339.784 -112.134)" fill="#263238"/>
      </g>
      <g id="freepik--character-1--inject-45" transform="translate(42.583 71.087)">
        <path id="Path_49486" data-name="Path 49486" d="M97.049,408.86,81.59,423.005l17.493,19.341c1.747-1.787-3.6-15.139-3.6-15.139l9.664-9.337Z" transform="translate(-65.911 -197.866)" fill="#455a64"/>
        <path id="Path_49487" data-name="Path 49487" d="M94.79,426.175a1.06,1.06,0,0,0-1.394.273,1.014,1.014,0,0,0,.253,1.38,1.114,1.114,0,0,0,1.474-.293,1.06,1.06,0,0,0-.427-1.407" transform="translate(-69.788 -203.583)" fill="#fff"/>
        <path id="Path_49488" data-name="Path 49488" d="M81.59,429.324,83.2,427.83,99.31,447.057s.4,1.2-.3,1.647Z" transform="translate(-65.911 -204.184)" fill="#263238"/>
        <path id="Path_49489" data-name="Path 49489" d="M101.66,436.163c-.1.08-.567-.354-1.294-.54s-1.334-.08-1.387-.2.667-.474,1.507-.233S101.76,436.1,101.66,436.163Z" transform="translate(-71.702 -206.608)" fill="#fff"/>
        <path id="Path_49490" data-name="Path 49490" d="M103.2,440.587c-.073.107-.6-.16-1.294-.113s-1.194.327-1.274.233.353-.667,1.214-.667S103.29,440.507,103.2,440.587Z" transform="translate(-72.252 -208.251)" fill="#fff"/>
        <path id="Path_49491" data-name="Path 49491" d="M102.407,445.4c-.12-.08.16-.594.987-.847s1.334,0,1.3.14-.567.087-1.167.28S102.5,445.483,102.407,445.4Z" transform="translate(-72.836 -209.719)" fill="#fff"/>
        <path id="Path_49492" data-name="Path 49492" d="M105.216,432.37c-.12.04-.38-.514-.9-1.014s-1.067-.767-1.027-.887.734,0,1.334.574S105.33,432.35,105.216,432.37Z" transform="translate(-73.138 -205.049)" fill="#fff"/>
        <path id="Path_49493" data-name="Path 49493" d="M108.138,427.5a3.392,3.392,0,0,1-.867-.974,5.708,5.708,0,0,1-.607-1.294,6,6,0,0,1-.207-.827,1.607,1.607,0,0,1-.04-.494.554.554,0,0,1,.467-.5.667.667,0,0,1,.587.22,1.781,1.781,0,0,1,.28.407,5.01,5.01,0,0,1,.34.787,4.668,4.668,0,0,1,.22,1.421,2.127,2.127,0,0,1-.273,1.28,8.327,8.327,0,0,1-.04-1.26,5.089,5.089,0,0,0-.293-1.334,5.243,5.243,0,0,0-.333-.714c-.133-.253-.287-.427-.427-.393s-.067,0-.087.12a1.187,1.187,0,0,0,0,.36,5.562,5.562,0,0,0,.173.78,6.923,6.923,0,0,0,.487,1.26A8.247,8.247,0,0,1,108.138,427.5Z" transform="translate(-74.18 -202.709)" fill="#fff"/>
        <path id="Path_49494" data-name="Path 49494" d="M108.617,428.392a2.217,2.217,0,0,1,.707-1.1,4.422,4.422,0,0,1,1.18-.827,4.79,4.79,0,0,1,.807-.287,1.08,1.08,0,0,1,1.054.18.6.6,0,0,1,.093.667,1.821,1.821,0,0,1-.267.42,3.167,3.167,0,0,1-.667.594,3.008,3.008,0,0,1-1.374.487,1.667,1.667,0,0,1-1.294-.253,9.948,9.948,0,0,0,1.247-.053,2.954,2.954,0,0,0,1.187-.52,2.666,2.666,0,0,0,.54-.52c.18-.22.273-.447.187-.5a.734.734,0,0,0-.627-.053,4.172,4.172,0,0,0-.74.233,4.668,4.668,0,0,0-1.134.667C108.944,428.038,108.684,428.432,108.617,428.392Z" transform="translate(-74.912 -203.612)" fill="#fff"/>
        <path id="Path_49495" data-name="Path 49495" d="M99.17,429.29l.2,20.955,26.07-.113c-.16-2.488-13.672-7.43-13.672-7.43l.427-13.432Z" transform="translate(-71.767 -204.664)" fill="#455a64"/>
        <path id="Path_49496" data-name="Path 49496" d="M105.624,447.758a1.06,1.06,0,0,0-.734,1.214,1.014,1.014,0,0,0,1.2.734,1.12,1.12,0,0,0,.767-1.294,1.06,1.06,0,0,0-1.334-.62" transform="translate(-73.666 -210.814)" fill="#fff"/>
        <path id="Path_49497" data-name="Path 49497" d="M99.47,459.661V457.42l25.03.854s1.16.507,1.027,1.334Z" transform="translate(-71.867 -214.04)" fill="#263238"/>
        <path id="Path_49498" data-name="Path 49498" d="M117.509,449.149c0,.127-.667.187-1.26.6s-.96.947-1.074.894.067-.787.834-1.267S117.535,449.009,117.509,449.149Z" transform="translate(-77.087 -211.245)" fill="#fff"/>
        <path id="Path_49499" data-name="Path 49499" d="M121.945,450.856c0,.127-.52.347-.954.887s-.547,1.107-.667,1.107-.213-.727.333-1.387S121.945,450.736,121.945,450.856Z" transform="translate(-78.782 -211.837)" fill="#fff"/>
        <path id="Path_49500" data-name="Path 49500" d="M125.07,454.667c-.113,0-.293-.607,0-1.334s.92-.974.974-.874-.313.48-.567,1.06S125.2,454.654,125.07,454.667Z" transform="translate(-80.341 -212.381)" fill="#fff"/>
        <path id="Path_49501" data-name="Path 49501" d="M117,444.378c-.053.12-.667-.053-1.334,0s-1.274.287-1.334.173.467-.567,1.334-.614S117.055,444.278,117,444.378Z" transform="translate(-76.814 -209.548)" fill="#fff"/>
        <path id="Path_49502" data-name="Path 49502" d="M94.759,250.08a37.115,37.115,0,0,0-5.449,7.656c-1.794,3.748-4.548,11.738-4.548,11.738s-3.435,12.2-2.668,17.947S88,332.492,88,332.492s-1.014,31.172,3.388,45.037l.807,3.681,14.672-2.608h0l3.255-77.17,8.97-51.02Z" transform="translate(-66.042 -144.98)" fill="#263238"/>
        <path id="Path_49503" data-name="Path 49503" d="M127.953,254.331c-.067,0-.047-.48-.567-.847a1.094,1.094,0,0,0-1.007-.107,1.047,1.047,0,0,0,0,1.954,1.074,1.074,0,0,0,1-.14c.514-.38.474-.88.54-.86s.053.107.033.307a1.194,1.194,0,0,1-.413.754,1.355,1.355,0,1,1-.04-2.114,1.167,1.167,0,0,1,.44.74C128.006,254.225,127.973,254.331,127.953,254.331Z" transform="translate(-80.462 -145.95)" fill="#455a64"/>
        <path id="Path_49504" data-name="Path 49504" d="M136.681,260.851s5.389,48.919,6.162,57.315-29.718,53.207-29.718,53.207L100.26,356.167l19.628-36.487-6.609-36.347,8.7-32.793,13.532.16Z" transform="translate(-72.13 -145.133)" fill="#263238"/>
        <path id="Path_49505" data-name="Path 49505" d="M92.7,379.7a9.729,9.729,0,0,0,.107,1.074c.087.7.26,1.734.507,3.061.487,2.668,1.28,6.522,2.348,11.338v.1h.1l14.726-2.581h.107v-.113c.407-10.091.9-22.148,1.421-35.08.547-13.912,1.047-26.81,1.461-37.394h0c1.1-8.5,2-15.533,2.668-20.454.307-2.441.547-4.362.714-5.682.08-.667.14-1.147.18-1.494s.047-.514.047-.514-.033.167-.087.507-.127.847-.22,1.487c-.18,1.334-.447,3.235-.787,5.676-.667,4.915-1.621,11.945-2.768,20.441h0c-.434,10.584-.954,23.482-1.521,37.394-.5,12.932-.974,24.99-1.334,35.08l.113-.133L95.808,395.08l.127.08c-1.094-4.809-1.914-8.67-2.441-11.338-.26-1.334-.454-2.354-.56-3.048-.06-.353-.093-.614-.12-.794A.586.586,0,0,0,92.7,379.7Z" transform="translate(-69.612 -158.929)" fill="#455a64"/>
        <path id="Path_49506" data-name="Path 49506" d="M126.08,271.243a5.953,5.953,0,0,1,.8.04,3.641,3.641,0,0,0,2.074-.353,1.934,1.934,0,0,0,.827-1.107,7.936,7.936,0,0,0,.253-1.687c.107-1.22.207-2.561.3-4,.193-2.821.293-5.375.36-7.229.033-.867.06-1.6.08-2.194a3.382,3.382,0,0,1,.067-.8,3.381,3.381,0,0,1,.067.8c0,.52.033,1.274.033,2.2,0,1.854-.067,4.422-.26,7.249-.093,1.414-.207,2.754-.327,4a7.658,7.658,0,0,1-.3,1.741,2.121,2.121,0,0,1-.98,1.234,2.668,2.668,0,0,1-1.247.327,5.068,5.068,0,0,1-.954-.047,2.669,2.669,0,0,1-.794-.173Z" transform="translate(-80.73 -146.256)" fill="#455a64"/>
        <path id="Path_49507" data-name="Path 49507" d="M150.516,262.03a4.983,4.983,0,0,1-1.4-.74,14.512,14.512,0,0,1-5.022-5.722,5,5,0,0,1-.554-1.487,25.922,25.922,0,0,0,2.941,4.455A26.428,26.428,0,0,0,150.516,262.03Z" transform="translate(-86.546 -146.312)" fill="#455a64"/>
        <path id="Path_49508" data-name="Path 49508" d="M84.59,179.983l5.862,21.275L93.04,212.6c0,9.75-2.588,14.2-2.588,14.2l39.875-2s.667-26.984,0-32.086l-4.862-17.667-12.672-3.1-15.786.3Z" transform="translate(-66.911 -118.953)" fill="#0091ff"/>
        <path id="Path_49509" data-name="Path 49509" d="M166.654,225.589a2.628,2.628,0,0,1-.147-1.047,7.216,7.216,0,0,1,.447-2.528,7.029,7.029,0,0,1,1.3-2.208,2.548,2.548,0,0,1,.794-.667,12.8,12.8,0,0,0-1.8,3.021,12.538,12.538,0,0,0-.594,3.428Z" transform="translate(-94.194 -134.675)" fill="#263238"/>
        <path id="Path_49510" data-name="Path 49510" d="M168.6,197.31,158.239,203.5l-5.876-15.052a68.982,68.982,0,0,0-3.395-6.456c-3.441-6.042-7.81-5.722-7.81-5.722l-5.269,7.823,5.6,12s3.4,22.229,10,23.949c10.077,2.668,17.107-22.715,17.107-22.715Z" transform="translate(-83.998 -120.394)" fill="#0091ff"/>
        <g id="Group_4510" data-name="Group 4510" transform="translate(19.954 79.964)" opacity="0.3">
          <path id="Path_49511" data-name="Path 49511" d="M88,253.526c4.668-.187,9.57-2.181,13.605-4.575s7.7-5.375,11.5-8.123c9.124-6.583,27.224-21.021,35.687-28.438l-2.454.554L89.374,249.8Z" transform="translate(-88 -212.39)"/>
        </g>
        <path id="Path_49512" data-name="Path 49512" d="M150.612,223.511a1.8,1.8,0,0,1,0-.393v-5.269c0-3.541.04-8.35.067-13.672,0-1.334.047-2.668-.033-3.881a22.676,22.676,0,0,0-.494-3.561,18.46,18.46,0,0,0-2.448-5.555c-.894-1.5-1.6-2.734-2-3.621-.207-.44-.36-.794-.454-1.034a1.661,1.661,0,0,1-.12-.373,1.528,1.528,0,0,1,.187.347c.113.233.28.574.514,1,.454.86,1.194,2.067,2.114,3.555a18.407,18.407,0,0,1,2.548,5.609,22.565,22.565,0,0,1,.52,3.615c.087,1.267.047,2.574.04,3.908-.067,5.335-.127,10.124-.167,13.665-.04,1.714-.067,3.115-.093,4.142,0,.46-.033.834-.04,1.127A1.514,1.514,0,0,1,150.612,223.511Z" transform="translate(-87.075 -123.686)" fill="#263238"/>
        <path id="Path_49513" data-name="Path 49513" d="M137.485,137.222a2.668,2.668,0,0,1-2.5-1.12A3.134,3.134,0,0,0,136.9,136a1.1,1.1,0,0,0,.46-1.621c-.36-.36-.947-.3-1.454-.34a3.128,3.128,0,0,1-2.668-2.047c-.434-1.234-.04-2.581.113-3.881a10.671,10.671,0,0,0-4.475-9.877l-8.15-4.708c-2.948,3.781-3.875,8.877-3.261,13.632a36.17,36.17,0,0,0,5.062,13.338,15.933,15.933,0,0,0,2.454,3.381,6.256,6.256,0,0,0,3.661,1.874,3.761,3.761,0,0,0-.607-3.408,8.23,8.23,0,0,0,6.062-2.167l-1.747-1.334a6.376,6.376,0,0,0,5.129-1.614Z" transform="translate(-77.802 -99.495)" fill="#263238"/>
        <path id="Path_49514" data-name="Path 49514" d="M100.535,124.074a7.65,7.65,0,0,1,5.542-7.189l10.211-2.908c4.428-.607,7.55,4.775,8,9.23.467,4.942.814,10.171.34,13.885-.954,7.476-6.623,8.6-6.623,8.6s.093,3.388.153,5.562l-.093,16.586L103,151.564l-2.448-27.391C100.508,124.04,100.528,124.247,100.535,124.074Z" transform="translate(-72.218 -99.631)" fill="#ae7461"/>
        <path id="Path_49515" data-name="Path 49515" d="M133.23,135.931a.954.954,0,0,1-.894.987.914.914,0,0,1-1.007-.827.954.954,0,0,1,.887-.994.92.92,0,0,1,1.014.834Z" transform="translate(-82.478 -106.68)" fill="#263238"/>
        <path id="Path_49516" data-name="Path 49516" d="M132.667,131.769c-.113.133-.854-.38-1.881-.347s-1.761.567-1.874.447.053-.28.373-.534a2.614,2.614,0,0,1,1.5-.507,2.468,2.468,0,0,1,1.5.433C132.614,131.5,132.727,131.716,132.667,131.769Z" transform="translate(-81.662 -105.259)" fill="#263238"/>
        <path id="Path_49517" data-name="Path 49517" d="M119.75,135.951a.954.954,0,0,1-.894.987.914.914,0,0,1-1.007-.827.954.954,0,0,1,.887-.994.914.914,0,0,1,1.014.834Z" transform="translate(-77.988 -106.687)" fill="#263238"/>
        <path id="Path_49518" data-name="Path 49518" d="M118.1,132.187c-.12.127-.854-.387-1.881-.347s-1.767.567-1.881.447.06-.28.38-.534a2.668,2.668,0,0,1,1.5-.514,2.588,2.588,0,0,1,1.5.433A.958.958,0,0,1,118.1,132.187Z" transform="translate(-76.809 -105.397)" fill="#263238"/>
        <path id="Path_49519" data-name="Path 49519" d="M124.73,140.346a6.789,6.789,0,0,1,1.661-.353c.26-.033.507-.093.547-.273a1.394,1.394,0,0,0-.2-.774c-.267-.627-.547-1.28-.834-1.967A37.126,37.126,0,0,1,124,131.81a36.535,36.535,0,0,1,2.314,5c.28.667.554,1.334.807,2a1.527,1.527,0,0,1,.167,1.02.667.667,0,0,1-.42.4,2,2,0,0,1-.44.073A6.668,6.668,0,0,1,124.73,140.346Z" transform="translate(-80.034 -105.587)" fill="#263238"/>
        <path id="Path_49520" data-name="Path 49520" d="M111.79,158s2.561,5.042,10,4.115l-.047-1.747A18.741,18.741,0,0,1,111.79,158Z" transform="translate(-75.97 -114.31)" fill="#6f4439"/>
        <path id="Path_49521" data-name="Path 49521" d="M116.97,127.338c-.087.28-1.12.18-2.321.36s-2.161.54-2.328.293c-.073-.113.087-.38.474-.667a4,4,0,0,1,1.714-.667,3.888,3.888,0,0,1,1.827.16C116.77,126.991,117.01,127.2,116.97,127.338Z" transform="translate(-76.142 -103.856)" fill="#263238"/>
        <path id="Path_49522" data-name="Path 49522" d="M132.178,127.047c-.173.24-.894,0-1.741,0s-1.567.207-1.741,0c-.073-.113,0-.353.34-.587a2.408,2.408,0,0,1,1.4-.42,2.361,2.361,0,0,1,1.4.427C132.145,126.68,132.225,126.933,132.178,127.047Z" transform="translate(-81.593 -103.665)" fill="#263238"/>
        <path id="Path_49523" data-name="Path 49523" d="M119.322,147.09a1.334,1.334,0,0,1,1.334-1.06,1.414,1.414,0,0,1,1.1.734,1.734,1.734,0,0,1,.1,1.334v.1a1.541,1.541,0,0,1-1.707.413A1.427,1.427,0,0,1,119.322,147.09Z" transform="translate(-78.473 -110.323)" fill="#6f4439"/>
        <path id="Path_49524" data-name="Path 49524" d="M122.784,147.861c0-.16-1.04-.08-1.847-.907s-.78-1.954-.92-1.954-.187.26-.16.727a2.594,2.594,0,0,0,.714,1.627,2.274,2.274,0,0,0,1.541.667C122.544,148.061,122.791,147.928,122.784,147.861Z" transform="translate(-78.655 -109.98)" fill="#263238"/>
        <path id="Path_49525" data-name="Path 49525" d="M105.673,109.253a10.317,10.317,0,0,1,6-4.1,5.644,5.644,0,0,1,5.469,1.447,6.056,6.056,0,0,0,2.4,1.421c1.16.227,2.134,0,3.521.74,1.887.967,2.721,3.5,3.595,5.435,1.094,2.408,2.668,4.622,3.335,7.163s.333,5.669-1.814,7.216c.413-2.174.747-4.588-.44-6.449-.914-1.421-2.534-2.2-3.7-3.421-1.407-1.467-1.587-3.428-3.061-4.829-3.368-3.195-9.3,2.428-15.339-4.622" transform="translate(-73.922 -96.655)" fill="#263238"/>
        <path id="Path_49526" data-name="Path 49526" d="M128.031,121.582a21.835,21.835,0,0,0-3.335-6,11.691,11.691,0,0,0-15.539-2l-.587.047a9.857,9.857,0,0,0,7.67,3.695c1.747,0,3.641-.46,5.142.44s2,2.668,3.175,3.868c.807.814,1.894,1.334,2.668,2.147a8.67,8.67,0,0,1,1.654,3.208C129.431,125.2,128.744,123.31,128.031,121.582Z" transform="translate(-74.898 -98.821)" fill="#263238"/>
        <path id="Path_49527" data-name="Path 49527" d="M105.725,114.711l-4.769-4.195c-3.715-.193-6.1,3.335-7.376,6-.947,2-1.24,4.268-1.954,6.382s-1.907,4.168-2.574,6.356-.76,4.728.554,6.6l.834-1.527a9.25,9.25,0,0,0,2.5,5.709l.32-1.594a8.963,8.963,0,0,0,3.588,3.861l2.234,6C102.377,138.254,93.887,137.513,105.725,114.711Z" transform="translate(-68.238 -98.492)" fill="#263238"/>
        <path id="Path_49528" data-name="Path 49528" d="M106.219,115.677a21.582,21.582,0,0,1-1.12,4,7.716,7.716,0,0,1-2.454,3.288c-1.634,1.18-3.735,1.421-5.689,1.894s-4.048,1.374-4.855,3.221a46.064,46.064,0,0,1,1.674-8c.874-2.881,2.134-5.809,4.528-7.623a8.31,8.31,0,0,1,7.83-1.174" transform="translate(-69.412 -98.584)" fill="#263238"/>
        <path id="Path_49529" data-name="Path 49529" d="M103.328,137.609c-.1-.253-4.722-1.774-4.668,3.095.08,4.735,4.822,3.668,4.829,3.528S103.328,137.609,103.328,137.609Z" transform="translate(-71.597 -107.377)" fill="#ae7461"/>
        <path id="Path_49530" data-name="Path 49530" d="M102.619,143.226a1.411,1.411,0,0,1-.22.127.847.847,0,0,1-.614,0,2.048,2.048,0,0,1-.98-1.807,2.714,2.714,0,0,1,.213-1.187.927.927,0,0,1,.607-.667.407.407,0,0,1,.487.213c.067.133.04.227.067.233s.1-.08.053-.273a.5.5,0,0,0-.187-.293.667.667,0,0,0-.46-.113,1.154,1.154,0,0,0-.847.747,2.868,2.868,0,0,0-.26,1.334,2.089,2.089,0,0,0,1.24,2,.9.9,0,0,0,.754-.14C102.613,143.339,102.639,143.232,102.619,143.226Z" transform="translate(-72.202 -108.133)" fill="#6f4439"/>
        <path id="Path_49531" data-name="Path 49531" d="M102.38,146.374a.934.934,0,1,0,.734,1.234.967.967,0,0,0-.507-1.167" transform="translate(-72.476 -110.434)" fill="#fff"/>
        <path id="Path_49532" data-name="Path 49532" d="M102.565,146.443a1.234,1.234,0,0,1,.44.62.807.807,0,0,1-.16.747.83.83,0,0,1-1.467-.387.814.814,0,0,1,.253-.72,1.334,1.334,0,0,1,.707-.293.4.4,0,0,0-.22-.04.98.98,0,0,0-.94,1.08,1.014,1.014,0,0,0,1.814.527.947.947,0,0,0,.16-.92.974.974,0,0,0-.373-.5C102.651,146.443,102.565,146.43,102.565,146.443Z" transform="translate(-72.434 -110.436)" fill="#263238"/>
        <path id="Path_49533" data-name="Path 49533" d="M111.435,115.932a13.945,13.945,0,0,0-1.821-3.055,13.712,13.712,0,0,0-2.774-2.248,2.668,2.668,0,0,1,1,.4,7.663,7.663,0,0,1,2,1.641,7.783,7.783,0,0,1,1.334,2.214A2.8,2.8,0,0,1,111.435,115.932Z" transform="translate(-74.322 -98.532)" fill="#455a64"/>
        <path id="Path_49534" data-name="Path 49534" d="M278.784,140.78a3.482,3.482,0,0,1,.14.574c.073.387.213.94.314,1.674a38.942,38.942,0,0,1,.5,6.229,42.68,42.68,0,0,1-.987,9.21,37.346,37.346,0,0,1-1.5,5.275,35.34,35.34,0,0,1-2.414,5.335,35.9,35.9,0,0,1-3.295,4.882,41.735,41.735,0,0,1-3.761,4,38.19,38.19,0,0,1-7.556,5.335,30.111,30.111,0,0,1-5.776,2.388,16.661,16.661,0,0,1-1.647.42,3.474,3.474,0,0,1-.58.113,5.085,5.085,0,0,1,.567-.18c.367-.113.927-.233,1.621-.48a32.821,32.821,0,0,0,5.7-2.474,38.68,38.68,0,0,0,7.456-5.389,41.831,41.831,0,0,0,3.715-4,34.306,34.306,0,0,0,5.682-10.091,38.022,38.022,0,0,0,1.507-5.229,44.364,44.364,0,0,0,.667-15.339c-.073-.734-.2-1.294-.247-1.681A3.459,3.459,0,0,1,278.784,140.78Z" transform="translate(-122.744 -108.575)" fill="#263238"/>
        <path id="Path_49535" data-name="Path 49535" d="M257.588,119.361a31.171,31.171,0,1,0,.007,0Zm-26.677-16.18a38.208,38.208,0,0,1,23.162,18.147,38.383,38.383,0,1,1-23.149-18.147Z" transform="translate(-98.067 -94.245)" fill="#263238"/>
        <path id="Path_49536" data-name="Path 49536" d="M191.313,164.879a1.541,1.541,0,0,1-.167-.307c-.113-.253-.26-.554-.427-.927a12.6,12.6,0,0,1-.607-1.5c-.207-.594-.48-1.26-.667-2-.107-.387-.213-.787-.333-1.2s-.187-.86-.287-1.334c-.213-.907-.333-1.9-.474-2.941a34.066,34.066,0,0,1,1.187-13.519c.32-1,.607-1.954.98-2.814.18-.427.327-.854.514-1.247l.54-1.12a20.607,20.607,0,0,1,1.014-1.881,13.685,13.685,0,0,1,.854-1.334l.607-.894a1.447,1.447,0,0,1,.227-.28,1.46,1.46,0,0,1-.167.32l-.527.867c-.233.373-.514.834-.8,1.394s-.667,1.167-.96,1.894c-.167.36-.34.734-.514,1.12s-.32.82-.494,1.247c-.353.854-.627,1.807-.94,2.8a34.921,34.921,0,0,0-1.18,13.392c.14,1.034.24,2,.44,2.921.093.453.16.894.267,1.334s.213.814.313,1.194a18.6,18.6,0,0,0,.62,2c.193.567.373,1.1.54,1.507s.273.667.367.947A1.374,1.374,0,0,1,191.313,164.879Z" transform="translate(-101.399 -105.51)" fill="#263238"/>
        <path id="Path_49537" data-name="Path 49537" d="M200.476,191.324a2.581,2.581,0,0,1-1.381-.814c-.667-.607-.994-1.26-.92-1.334s.534.48,1.16,1.054S200.523,191.238,200.476,191.324Z" transform="translate(-104.74 -124.692)" fill="#263238"/>
        <path id="Path_49538" data-name="Path 49538" d="M182.1,117.58A41.856,41.856,0,1,1,240.617,171.7h0A41.849,41.849,0,0,1,182.1,117.58Zm73.362,34.146a16.226,16.226,0,1,1-.04,0Z" transform="translate(-98.083 -92.791)" fill="#455a64"/>
        <path id="Path_49539" data-name="Path 49539" d="M219.74,177.53a42.789,42.789,0,0,1-11.471-1.581,42.256,42.256,0,0,1-25.63-20.068,42.5,42.5,0,1,1,37.1,21.648Zm-.127-83.772a6.521,6.521,0,1,0,.027-.033Zm.127,80.964a39.785,39.785,0,1,1,36.014-23.016h0a39.762,39.762,0,0,1-36.014,22.982Zm-.12-78.157a38.415,38.415,0,1,0,34.847,54.614h0a38.495,38.495,0,0,0-1.334-35.074A38.1,38.1,0,0,0,230,97.992a38.555,38.555,0,0,0-10.351-1.461Z" transform="translate(-97.748 -92.491)" fill="#455a64"/>
        <path id="Path_49540" data-name="Path 49540" d="M65.033,244.857l-.754-1.194c-1.614-2.554.22-6.609,2-7.73l78.97-49.852c.393-.253,1.007,0,1.367.574l5.3,8.383c.36.574.327,1.24-.073,1.487L73.329,246.091C71.549,247.218,66.647,247.411,65.033,244.857Z" transform="translate(-59.938 -123.631)" fill="#455a64"/>
        <path id="Path_49541" data-name="Path 49541" d="M176.07,206.14l2.394-2.534s-.28-5.782.7-7.189l.52-.854s-.514-2.808.994-3.455c.427-1.067.98-1.494,1.727-.907,0,0-.42-2.114,1.554-2.394s2.534,8.67,2.534,8.67.987,4-1.267,4a5.054,5.054,0,0,1-2.668,1.547s-.427,2.394-2.4,2.254Z" transform="translate(-97.381 -124.569)" fill="#ae7461"/>
        <path id="Path_49542" data-name="Path 49542" d="M182.119,208.59a.72.72,0,0,1,.227.287,1.641,1.641,0,0,1,.113.994,2.228,2.228,0,0,1-.74,1.28,4.6,4.6,0,0,1-1.574.86,11.023,11.023,0,0,1-3.141.62,3.782,3.782,0,0,1-1.334-.067,20.348,20.348,0,0,0,4.355-.847,4.628,4.628,0,0,0,1.487-.787,2.047,2.047,0,0,0,.714-1.107,2,2,0,0,0-.107-1.234Z" transform="translate(-97.247 -131.161)" fill="#6f4439"/>
        <path id="Path_49543" data-name="Path 49543" d="M187.226,199.916c-.1,0-.1-1.794-.534-3.955s-1.1-3.828-1.007-3.861a3.715,3.715,0,0,1,.52,1.06A16.672,16.672,0,0,1,187,195.9a16.846,16.846,0,0,1,.307,2.834A3.841,3.841,0,0,1,187.226,199.916Z" transform="translate(-100.58 -125.668)" fill="#6f4439"/>
        <path id="Path_49544" data-name="Path 49544" d="M184.6,201.456c-.093,0-.267-1.747-.714-3.868s-1-3.8-.914-3.828a18.8,18.8,0,0,1,1.627,7.7Z" transform="translate(-99.678 -126.221)" fill="#6f4439"/>
        <path id="Path_49545" data-name="Path 49545" d="M189.845,205.189c.073-.04.367.514.173,1.207s-.72,1.034-.76.954.307-.44.46-1.034S189.752,205.222,189.845,205.189Z" transform="translate(-101.772 -130.027)" fill="#6f4439"/>
        <path id="Path_49546" data-name="Path 49546" d="M181.736,203.6a11.863,11.863,0,0,1-.187-2.2,12.671,12.671,0,0,1-.087-2.2A9.337,9.337,0,0,1,181.736,203.6Z" transform="translate(-99.172 -128.033)" fill="#6f4439"/>
        <path id="Path_49547" data-name="Path 49547" d="M100.232,234.554a7.336,7.336,0,0,1,2.321-2.121c1.574-.927,4.715-1.294,5.335-2.348s1.561,0,1.04,1.381a14.61,14.61,0,0,1-2.608,2.874,5.759,5.759,0,0,0,3.655.373c1.594-.567,6.916-1.134,7.336-.327.467.907-.907.934-1.534,1.147-.474.167-4.135,1.214-4.135,1.214s6.716,1,7.5,1.467-.233,1.154-.667,1.087a12.7,12.7,0,0,0-2.548,1.381,3.054,3.054,0,0,1-2.168.44l-1.554-.26,4.615,1.334s.667.894-.527,1.074c-.534.08-15.193-.48-16.313-.62-1.934-.24-5.049-.327-5.049-.327l2.4-8.75Z" transform="translate(-70.355 -138.178)" fill="#ae7461"/>
        <path id="Path_49548" data-name="Path 49548" d="M127.019,244.292a14.21,14.21,0,0,1-6.669-.033c0-.087,1.5.1,3.335.1S127.006,244.205,127.019,244.292Z" transform="translate(-78.822 -143.033)" fill="#6f4439"/>
        <path id="Path_49549" data-name="Path 49549" d="M76.374,214.456l6.716-13.839L77.161,182.61a12.065,12.065,0,0,0-4.462,3.908c-2.114,2.868-4.4,8.97-4.4,8.97s-7.336,16.74-8.517,19.234-3.148,7.129,0,9.717,24.2,2.668,24.2,2.668l2.234-9.337Z" transform="translate(-58.081 -122.507)" fill="#0091ff"/>
        <path id="Path_49550" data-name="Path 49550" d="M86.7,196.75c.093,0,1.661,4.668,3.5,10.451s3.261,10.524,3.175,10.557-1.661-4.668-3.508-10.451S86.6,196.783,86.7,196.75Z" transform="translate(-67.611 -127.217)" fill="#263238"/>
        <path id="Path_49551" data-name="Path 49551" d="M90.474,233.326a3.741,3.741,0,0,1-.78-.173l-2.061-.587c-1.761-.5-4.188-1.234-6.889-1.934a27.619,27.619,0,0,0-7-1.174,8.67,8.67,0,0,0-2.861.567,2.3,2.3,0,0,1,.707-.373,6.589,6.589,0,0,1,2.147-.44,25.047,25.047,0,0,1,7.1,1.08c2.714.7,5.129,1.481,6.869,2.041.874.28,1.574.52,2.061.667A2.961,2.961,0,0,1,90.474,233.326Z" transform="translate(-62.344 -138.023)" fill="#263238"/>
        <g id="Group_4511" data-name="Group 4511" transform="translate(20.582 74.108)" opacity="0.3">
          <path id="Path_49552" data-name="Path 49552" d="M88.981,203.61a69.572,69.572,0,0,0,.6,11.718l1.887-3.788a56.206,56.206,0,0,0-2.388-7.683" transform="translate(-88.942 -203.61)"/>
        </g>
        <rect id="Rectangle_4619" data-name="Rectangle 4619" width="8.717" height="31.419" transform="translate(129.502 28.664)" fill="#0091ff"/>
        <rect id="Rectangle_4620" data-name="Rectangle 4620" width="8.717" height="14.265" transform="translate(102.192 47.158)" fill="#0091ff"/>
        <rect id="Rectangle_4621" data-name="Rectangle 4621" width="8.717" height="22.015" transform="translate(115.664 39.401)" fill="#0091ff"/>
        <path id="Path_49553" data-name="Path 49553" d="M243.17,119.91a1.674,1.674,0,0,1-.213.273l-.667.767-2.461,2.821c-2.141,2.414-5.115,5.762-8.543,9.637l-.1.107-.12-.08-5.335-3.495h.227l-.2.24-11.338,13.272-.073.087-.087-.067L210,140.311l-1.147-.874a3.022,3.022,0,0,1-.387-.32,2.261,2.261,0,0,1,.427.267l1.187.82,4.315,3.068h-.167l11.238-13.338.207-.24.093-.113.133.08,5.335,3.508h-.22l8.67-9.55c1.06-1.16,1.914-2.087,2.534-2.754l.667-.727A1.506,1.506,0,0,1,243.17,119.91Z" transform="translate(-108.172 -101.623)" fill="#263238"/>
        <path id="Path_49554" data-name="Path 49554" d="M257.353,126.333a12.005,12.005,0,0,1-.12-2c-.033-1.24-.053-2.961-.053-4.862l.2.167h-.173c-1.914.313-3.655.58-4.922.76a12.557,12.557,0,0,1-2.054.213,12.4,12.4,0,0,1,2-.46c1.254-.233,2.988-.54,4.909-.86h.373v.207c0,1.9,0,3.621-.053,4.862A11.19,11.19,0,0,1,257.353,126.333Z" transform="translate(-122.082 -101.417)" fill="#263238"/>
      </g>
    </g>
  </g>
</svg>
