<svg xmlns="http://www.w3.org/2000/svg" viewBox="0 0 40.23 40"><defs><style>.cls-1{fill:none;}.cls-2{fill:#fff;stroke:#fff;stroke-miterlimit:10;stroke-width:0.77px;}</style></defs><g id="Layer_2" data-name="Layer 2"><g id="Layer_1-2" data-name="Layer 1"><rect class="cls-1" x="0.12" width="40" height="40"/><path class="cls-2" d="M2.33,32.12V30.35a7.82,7.82,0,0,1,6.46-7.91.2.2,0,0,0,.08,0c.14-.38,0-.58-.38-.75a7.53,7.53,0,0,1-4.72-5.88,7.88,7.88,0,0,1,6.47-9.12,9,9,0,0,1,1.64-.07c.53,0,1.06.11,1.61.17a5.11,5.11,0,0,1,.07-.66,2.63,2.63,0,0,1,2.65-2.18c2.8,0,5.6,0,8.39,0,4.13,0,8.26,0,12.38,0a2.65,2.65,0,0,1,2.87,2.86V26.68A2.65,2.65,0,0,1,37,29.53H27.36c-.06.54.16,1.25-.7,1.3-.45,0-.6-.28-.65-1.27H17.53L18,32.15H37.77A2,2,0,0,1,38,36.09H2.52a2,2,0,0,1-2-1.32,2,2,0,0,1,1.34-2.55ZM14.22,22.3H26.71c.2,0,.41,0,.61,0a1.09,1.09,0,0,0,.58-.15c1.34-1.09,2.66-2.2,4-3.3,1.17-1,2.33-1.95,3.51-2.92.46-.38,1.1-.21,1.12.33a1.05,1.05,0,0,1-.35.72c-1.8,1.53-3.63,3-5.45,4.55L28.8,23.16a2.31,2.31,0,0,1-1.9,3.74H17.5v1.3H37.17a1.3,1.3,0,0,0,1.36-1.38V6.59a1.31,1.31,0,0,0-1.38-1.37H16.22a1.31,1.31,0,0,0-1.38,1.36c0,.11,0,.23,0,.33-.05.26.07.38.29.51a7.56,7.56,0,0,1,4.25,7.27,7.59,7.59,0,0,1-4.86,7C14.23,21.82,14.1,22,14.22,22.3Zm3.88-7.88a6.48,6.48,0,0,0-6.62-6.57,6.57,6.57,0,0,0,0,13.14A6.49,6.49,0,0,0,18.1,14.42ZM16.6,32.14c0-.15,0-.28-.06-.42a18.61,18.61,0,0,1-.31-5.42c0-.5.26-.7.76-.71.22,0,.44,0,.66,0q4.59,0,9.18,0A1.05,1.05,0,0,0,27.9,25c.31-.7-.21-1.37-1-1.37H14.51a.52.52,0,0,0-.57.37,2.48,2.48,0,0,1-2.34,1.58,2.53,2.53,0,0,1-2.4-1.44c-.07-.12-.12-.24-.19-.38a6.32,6.32,0,0,0-3.56,1.92c-1.77,1.83-2,4.09-1.76,6.47H7.56l0-.06c0-.37,0-.74,0-1.11s.26-.78.66-.77.65.29.65.78,0,.78,0,1.17Zm3.54,2.64H37.7c.52,0,.82-.24.83-.65s-.3-.65-.81-.66H2.52c-.52,0-.83.24-.83.65s.3.66.81.66H20.14ZM10.27,22.26c-.14.91.05,1.49.61,1.82A1.28,1.28,0,0,0,12.34,24a1.6,1.6,0,0,0,.47-1.74Z"/><path class="cls-2" d="M27,10.47H22.19c-.59,0-1-.49-.68-.93a.89.89,0,0,1,.62-.36c3.24,0,6.49,0,9.74,0a.66.66,0,1,1,0,1.31Z"/><path class="cls-2" d="M27,12.45h2.5c.48,0,.78.26.78.65s-.3.66-.77.66h-5c-.47,0-.78-.26-.78-.66s.3-.65.78-.65Z"/></g></g></svg>