<svg xmlns="http://www.w3.org/2000/svg" viewBox="0 0 40 40"><defs><style>.cls-1{fill:none;}.cls-2{fill:#fff;}</style></defs><g id="Layer_2" data-name="Layer 2"><g id="Layer_1-2" data-name="Layer 1"><rect class="cls-1" width="40" height="40"/><path class="cls-2" d="M31.81,3.54A3.55,3.55,0,0,0,29.36.18C29.17.11,29,.06,28.78,0H11.16L11.1.05a3.58,3.58,0,0,0-3,3.89V30.4c0,2,0,4,0,6a3.48,3.48,0,0,0,2.2,3.3,7.52,7.52,0,0,0,.84.28H28.78s0,0,.06,0a3.58,3.58,0,0,0,3-3.85V7.84C31.82,6.41,31.83,5,31.81,3.54Zm-6.9-2c-.13.38-.23.74-.36,1.09a.33.33,0,0,1-.27.14H15.66a.35.35,0,0,1-.28-.17c-.14-.33-.23-.68-.35-1.06Zm5.35,34.67a2,2,0,0,1-1.65,2.15,2.46,2.46,0,0,1-.54,0H11.85a2,2,0,0,1-2.17-2.2V3.83a2,2,0,0,1,2.26-2.27c.48,0,1.07-.14,1.4.09s.33.84.48,1.28c.07.23.15.47.23.7.19.61.39.75,1,.75h9.16c1.41,0,1.42.12,1.86-1.35.12-.4.26-.79.38-1.19a.32.32,0,0,1,.38-.28c.48,0,1,0,1.44,0a2,2,0,0,1,2,2V36.25Zm-2.21-20.2-7.64-3.88a.89.89,0,0,0-.88,0l-7.64,3.89a.81.81,0,0,0-.5.73.8.8,0,0,0,.53.75c.47.24.94.5,1.42.72a.47.47,0,0,1,.31.51c0,1.38,0,2.76,0,4.14a.9.9,0,0,0,.59.94q2.64,1.2,5.27,2.43a1,1,0,0,0,.93,0l5.27-2.42a.92.92,0,0,0,.6-.94c0-1.29,0-2.58,0-3.87,0-.65,0-.65.67-.9a.58.58,0,0,1,0,.1c0,.8,0,1.61,0,2.42a.79.79,0,0,0,.76.9c.47,0,.79-.35.79-.91,0-1.25,0-2.5,0-3.75A.87.87,0,0,0,28.05,16.05Zm-4.24,7c-1.21.46-2.37,1.05-3.54,1.61a.66.66,0,0,1-.61,0c-1.37-.64-2.73-1.27-4.11-1.88a.51.51,0,0,1-.36-.55c0-1,0-1.94,0-3,.22.11.4.18.56.27,1.2.61,2.39,1.2,3.57,1.83a1.25,1.25,0,0,0,1.28,0c1.23-.65,2.48-1.26,3.72-1.89l.4-.19a21.91,21.91,0,0,0,0,2.3A1.23,1.23,0,0,1,23.81,23Zm1.86-6c-1.78.9-3.57,1.79-5.34,2.71a.69.69,0,0,1-.72,0c-1.76-.91-3.53-1.8-5.3-2.7l-.4-.22,5.86-3a.48.48,0,0,1,.39,0l5.76,2.93s0,0,.07.08ZM20,32.14a2.38,2.38,0,1,0,2.37,2.39A2.39,2.39,0,0,0,20,32.14Zm0,3.19a.79.79,0,0,1-.8-.82.81.81,0,1,1,1.61,0A.79.79,0,0,1,20,35.33Z"/></g></g></svg>