<svg xmlns="http://www.w3.org/2000/svg" viewBox="0 0 40 40"><defs><style>.cls-1{fill:#fff;}</style></defs><g id="Layer_2" data-name="Layer 2"><g id="Layer_1-2" data-name="Layer 1"><path class="cls-1" d="M39.33,24.37l-3.57-2.52a.49.49,0,0,1-.23-.48q0-1.36,0-2.73a.52.52,0,0,1,.25-.51l3.47-2.45a1.33,1.33,0,0,0,.45-2L35.44,6.37a1.34,1.34,0,0,0-2-.64L29.53,7.48A.54.54,0,0,1,29,7.43C28.16,7,27.35,6.49,26.53,6a.49.49,0,0,1-.3-.43c-.12-1.36-.29-2.72-.4-4.08a1.61,1.61,0,0,0-1-1.53H15.16a1.63,1.63,0,0,0-1,1.53c-.1,1.36-.27,2.71-.4,4.07a.48.48,0,0,1-.29.44c-.82.45-1.63.91-2.43,1.39a.56.56,0,0,1-.57.05L6.59,5.75a1.36,1.36,0,0,0-2,.65Q2.42,10,.32,13.6c-.12.2-.21.41-.32.62v.54a2.08,2.08,0,0,0,.84,1c1.13.78,2.25,1.59,3.38,2.38a.51.51,0,0,1,.25.51c0,.9,0,1.81,0,2.72a.51.51,0,0,1-.25.51C3.09,22.66,2,23.47.84,24.25a2.11,2.11,0,0,0-.84,1v.55l2.69,4.66C3.32,31.53,4,32.62,4.6,33.7a1.3,1.3,0,0,0,1.85.61c1.34-.59,2.67-1.18,4-1.78a.55.55,0,0,1,.6,0c.79.48,1.6.93,2.41,1.37a.5.5,0,0,1,.31.46c.14,1.47.3,2.93.45,4.39A1.28,1.28,0,0,0,15.55,40h8.9a1.28,1.28,0,0,0,1.34-1.25c.15-1.46.31-2.92.45-4.38a.45.45,0,0,1,.28-.41c.82-.45,1.63-.9,2.43-1.39a.58.58,0,0,1,.61,0c1.31.6,2.63,1.18,3.95,1.76a1.31,1.31,0,0,0,1.91-.62l4.32-7.37A1.31,1.31,0,0,0,39.33,24.37Zm-5.65,7.19-2.42-1.07c-.48-.21-1-.41-1.43-.64a1.51,1.51,0,0,0-1.8.22,10.86,10.86,0,0,1-3.17,1.81,1.54,1.54,0,0,0-1.11,1.48c-.1,1.28-.25,2.56-.38,3.84l0,.21H16.65l-.24-2.35c-.08-.68-.14-1.37-.22-2.05a1.17,1.17,0,0,0-.77-1,14.74,14.74,0,0,1-3.72-2.12,1.27,1.27,0,0,0-1.4-.1L6.7,31.4l-.38.16C5.21,29.67,4.1,27.79,3,25.88l2-1.41,1.56-1.1A1.29,1.29,0,0,0,7.12,22a13.41,13.41,0,0,1,0-4.05,1.32,1.32,0,0,0-.61-1.37L3.35,14.38,3,14.12C4.1,12.21,5.2,10.33,6.32,8.43c1.27.57,2.53,1.09,3.75,1.68A1.63,1.63,0,0,0,12,9.89a10.63,10.63,0,0,1,3.11-1.76,1.59,1.59,0,0,0,1.13-1.55c.1-1.32.26-2.64.39-4h6.71c.11,1.05.21,2.1.32,3.14,0,.42.09.83.14,1.24a1.19,1.19,0,0,0,.79,1,13.87,13.87,0,0,1,3.68,2.1,1.29,1.29,0,0,0,1.4.11l4-1.78c1.1,1.89,2.21,3.77,3.33,5.68l-.37.28c-1,.73-2,1.46-3.09,2.18A1.38,1.38,0,0,0,32.88,18a12.89,12.89,0,0,1,0,4,1.33,1.33,0,0,0,.63,1.4c1.16.81,2.31,1.63,3.5,2.48ZM26.58,17.9l-2.77,1.71c.45.74.89,1.45,1.34,2.17l1.47-.89A6.36,6.36,0,0,1,25,24.42a6.8,6.8,0,0,1-6.13,2.2c-.14.86-.28,1.66-.42,2.46a9.32,9.32,0,0,0,10.73-7.69l.93.76,1.64-2-2.5-2.09C28.05,17.1,27.89,17.09,26.58,17.9Zm-5.77-4.56c.1-.84.2-1.66.31-2.52a9,9,0,0,0-5.56,1.1,9.29,9.29,0,0,0-4.73,6.69l-.93-.76-1.64,2c1.06.88,2.07,1.74,3.1,2.58a1.22,1.22,0,0,0,1.46.08c.42-.24.82-.5,1.23-.75l2.14-1.33c-.45-.74-.89-1.45-1.34-2.17l-1.48.89a6.52,6.52,0,0,1,1.93-3.84A6.75,6.75,0,0,1,20.81,13.34Zm6,.44a9,9,0,0,0-3-2.19c-.35.78-.7,1.54-1,2.24L25,15.44Zm-14,12.08A9,9,0,0,0,15.29,28l1.27-2.13-1.79-1.54Z"/></g></g></svg>