<?xml version="1.0" encoding="UTF-8"?><svg id="Layer_2" xmlns="http://www.w3.org/2000/svg" viewBox="0 0 40 40"><defs><style>.cls-1{fill:#0091ff;}.cls-2{fill:none;}</style></defs><g id="Layer_1-2"><g><rect class="cls-2" width="40" height="40"/><g><path class="cls-1" d="M12.21,32.99c0,1.87,0,3.73,0,5.6,0,.66-.21,.87-.88,.87-2.33,0-4.66,.01-6.99-.01-.27,0-.59-.13-.78-.31-.93-.87-1.84-1.76-2.72-2.67-.18-.19-.32-.51-.32-.78-.02-2.78-.01-5.57-.01-8.36,0-.64,.21-.85,.85-.85,3.33,0,6.66,0,10,0,.66,0,.86,.21,.86,.88,0,1.88,0,3.76,0,5.64Zm-1.33,5.15v-10.34H1.8c0,2.39,0,4.74,0,7.09,0,.04,.02,.08,.03,.14,.16-.03,.32-.05,.48-.08,.78-.15,1.56-.32,2.35-.46,.58-.1,.9,.23,.81,.82-.02,.12-.04,.24-.07,.36-.16,.82-.32,1.64-.49,2.48h5.95Zm-8.23-1.94l1.12,1.25,.26-1.52-1.39,.27Z"/><path class="cls-1" d="M20.07,15.33c-.33,0-.65,.01-.98,0-.84-.03-1.36-.55-1.36-1.39,0-.25-.04-.42-.3-.48-.09-.02-.18-.07-.25-.13-.49-.37-.95-.57-1.6-.22-.48,.26-1.1-.07-1.42-.58-.36-.59-.71-1.18-1.05-1.78-.39-.69-.2-1.41,.5-1.8,.26-.15,.36-.29,.32-.6-.04-.32-.03-.65,0-.97,.03-.23-.05-.33-.24-.44-.76-.42-.97-1.13-.55-1.89,.32-.57,.64-1.13,.98-1.68,.42-.7,1.13-.9,1.85-.5,.24,.13,.43,.19,.64-.02,.08-.08,.2-.15,.31-.2,.51-.21,.84-.49,.83-1.14,0-.54,.58-.97,1.16-.99,.74-.02,1.49-.02,2.24,0,.69,.02,1.21,.58,1.21,1.28,0,.33,.08,.54,.41,.63,.09,.03,.18,.07,.25,.13,.44,.34,.85,.52,1.44,.19,.47-.27,1.12,.01,1.42,.49,.4,.64,.78,1.3,1.14,1.97,.33,.64,.11,1.33-.54,1.71-.27,.15-.37,.31-.3,.61,.03,.1,.02,.22,0,.32-.03,.53-.07,1,.55,1.33,.48,.26,.56,.95,.29,1.46-.35,.67-.73,1.33-1.13,1.97-.37,.59-1.09,.77-1.71,.4-.31-.18-.53-.18-.78,.06-.03,.03-.07,.05-.1,.06-.56,.25-.97,.54-.97,1.28,0,.53-.6,.91-1.21,.94-.35,.02-.7,0-1.06,0h0ZM14.22,5.73c.09,.06,.16,.11,.23,.14,.59,.32,.85,.8,.78,1.47-.03,.28-.05,.57-.01,.85,.14,.85-.13,1.48-.93,1.87-.02,0-.02,.05-.04,.08l1.02,1.74c.62-.43,1.22-.53,1.85-.11,.37,.25,.76,.47,1.15,.68,.44,.24,.69,.59,.73,1.09,.01,.16,.02,.32,.04,.48h2.07c-.13-.94,.34-1.46,1.15-1.79,.28-.11,.52-.33,.78-.5,.44-.3,.91-.32,1.38-.09,.13,.06,.26,.14,.42,.23l1.02-1.75s-.04-.07-.06-.08c-.05-.04-.11-.08-.17-.11-.63-.34-.85-.85-.76-1.55,.05-.34,.02-.7-.01-1.05-.05-.6,.16-1.05,.67-1.37,.11-.07,.23-.14,.35-.22l-1.05-1.78c-.77,.59-1.46,.49-2.14-.08-.24-.2-.56-.32-.85-.47-.43-.22-.67-.57-.74-1.05-.02-.17-.02-.35-.03-.54h-2.04c-.01,.16-.02,.31-.03,.46-.04,.5-.28,.85-.72,1.1-.41,.23-.82,.47-1.21,.73-.47,.3-.93,.32-1.42,.06-.12-.06-.24-.12-.38-.2l-1.04,1.76Z"/><path class="cls-1" d="M32.37,24.5c2.13,.11,3.77,1,4.69,2.92,.91,1.89,.64,3.7-.64,5.36-.82,1.06-1.28,2.24-1.3,3.59-.01,.77-.12,1.5-.63,2.13-.72,.88-1.93,1.24-3,.88-1.1-.37-1.88-1.36-1.87-2.49,.02-1.64-.51-3.04-1.5-4.35-2.23-2.95-.4-7.35,3.27-7.93,.33-.05,.67-.08,.98-.11Zm1.61,10.4c.28-1.06,.71-2.05,1.41-2.89,1.9-2.27,.59-5.75-2.56-6.16-1.56-.21-3.08,.52-3.86,1.87-.79,1.35-.66,2.92,.32,4.21,.36,.47,.68,.98,.95,1.51,.24,.46,.38,.97,.56,1.45h.93c0-.72,0-1.41,0-2.1,0-.13-.09-.28-.18-.38-.29-.31-.61-.61-.86-.85l.95-1.05,.81,1.01,.73-.95,1.01,.95c-.33,.3-.64,.58-.94,.86-.08,.08-.19,.19-.2,.29-.02,.74,0,1.48,0,2.23h.95Zm-3.04,1.33c-.09,.72,.02,1.35,.67,1.75,.52,.32,1.06,.31,1.57-.03,.61-.41,.71-1.03,.62-1.72h-2.86Z"/><path class="cls-1" d="M5.7,24.34l-1.26,.38c-1.41-5.08-.64-9.76,2.31-14.1-.46-.36-.9-.71-1.35-1.06-.25-.19-.43-.41-.37-.75,.06-.32,.29-.46,.58-.56,1.39-.45,2.77-.92,4.16-1.37,.64-.21,1.02,.07,.98,.74-.1,1.5-.21,2.99-.33,4.49-.05,.6-.6,.85-1.09,.48-.5-.37-.98-.76-1.53-1.19-1.35,1.89-2.19,3.97-2.56,6.23-.37,2.26-.21,4.49,.46,6.71Zm3.47-13.49l.19-2.48-2.35,.78,2.16,1.7Z"/><path class="cls-1" d="M34.85,18.03c-.64-4.25-2.67-7.62-6.1-10.19l.75-1.05c3.78,2.83,5.99,6.54,6.66,11.24,.48,0,.98,0,1.47,0,.16,0,.33,0,.49,0,.65,.02,.95,.54,.59,1.09-.66,1.02-1.35,2.03-2.02,3.04-.17,.25-.32,.5-.5,.74-.32,.44-.8,.45-1.11,0-.87-1.27-1.73-2.55-2.57-3.85-.33-.51-.03-1.01,.59-1.02,.55-.01,1.11,0,1.74,0Zm.78,3.37l1.37-2.06h-2.74l1.37,2.06Z"/><path class="cls-1" d="M19.33,34.9c2.43,.1,4.71-.34,6.89-1.31,.06,.1,.11,.18,.15,.26,.14,.29,.27,.58,.41,.9-1.24,.59-2.51,1.03-3.84,1.2-1.16,.16-2.34,.21-3.52,.24-.39,.01-.54,.12-.62,.48-.11,.51-.27,1.02-.42,1.52-.19,.64-.76,.78-1.2,.28-.99-1.14-1.98-2.3-2.95-3.46-.36-.43-.24-.92,.3-1.09,1.45-.48,2.91-.94,4.37-1.39,.58-.18,.99,.23,.86,.83-.06,.25-.14,.49-.21,.74-.07,.25-.13,.49-.21,.79Zm-1.92,1.87l.77-2.66-2.37,.8,1.6,1.86Z"/><path class="cls-1" d="M27.76,26.02l-.83-.85,.93-.83,.79,.88-.89,.81Z"/><path class="cls-1" d="M37.62,24.98l.82,.83-.92,.83-.8-.86,.89-.8Z"/><path class="cls-1" d="M31.74,23.85v-1.25h1.26v1.25h-1.26Z"/><path class="cls-1" d="M25.24,28.44h1.25v1.25h-1.25v-1.25Z"/><path class="cls-1" d="M38.24,29.7v-1.25h1.26v1.25h-1.26Z"/><path class="cls-1" d="M3.12,30.34v-1.25h6.45v1.25H3.12Z"/><path class="cls-1" d="M3.12,33.59v-1.25h6.45v1.25H3.12Z"/><path class="cls-1" d="M9.58,36.84h-2.55v-1.25h2.55v1.25Z"/><path class="cls-1" d="M20,4.64c1.8,0,3.26,1.45,3.26,3.24,0,1.78-1.45,3.24-3.22,3.25-1.82,0-3.29-1.45-3.28-3.27,0-1.77,1.46-3.22,3.24-3.22Zm1.96,3.24c0-1.08-.88-1.95-1.97-1.94-1.06,0-1.93,.89-1.93,1.95,0,1.08,.89,1.96,1.97,1.95,1.06,0,1.93-.89,1.93-1.95Z"/></g></g></g></svg>