<?xml version="1.0" encoding="UTF-8"?><svg id="Layer_2" xmlns="http://www.w3.org/2000/svg" viewBox="0 0 32 32"><defs><style>.cls-1{fill:#0091ff;}.cls-2{fill:none;}</style></defs><g id="Layer_1-2"><g><rect class="cls-2" width="32" height="32"/><g><path class="cls-1" d="M14.18,9.5h3.74c.09,.25,.18,.5,.27,.74,.08,.24,.23,.3,.46,.19,.24-.11,.51-.31,.74-.27,.21,.04,.38,.33,.57,.52,.62,.62,1.23,1.24,1.85,1.85,.15,.15,.2,.27,.08,.46-.09,.15-.16,.32-.23,.48-.1,.21-.05,.36,.18,.44,.25,.09,.61,.13,.73,.31,.13,.2,.04,.55,.04,.83,0,.95,0,1.89,0,2.87-.25,.09-.51,.19-.76,.28-.22,.08-.29,.21-.19,.44,.11,.25,.32,.54,.28,.77-.04,.22-.35,.4-.54,.59-.62,.62-1.24,1.23-1.84,1.86-.13,.14-.24,.16-.41,.07-.15-.09-.32-.16-.48-.24-.24-.12-.39-.06-.48,.21-.08,.24-.17,.47-.26,.73-.97,0-1.95,0-2.92,0-.26,0-.59,.08-.77-.04-.18-.12-.22-.45-.3-.7-.09-.26-.24-.31-.48-.2-.23,.11-.5,.31-.71,.27-.22-.04-.39-.33-.57-.51-.62-.62-1.23-1.24-1.85-1.85-.16-.15-.2-.27-.09-.48,.43-.84,.43-.78-.46-1.09-.08-.03-.16-.06-.24-.09v-3.74c.25-.09,.49-.18,.73-.27,.24-.08,.31-.22,.2-.46-.11-.24-.33-.51-.29-.71,.06-.24,.35-.42,.55-.63,.61-.62,1.24-1.23,1.84-1.86,.14-.15,.26-.18,.43-.07,.16,.1,.34,.17,.51,.25,.21,.1,.34,.03,.42-.18,.09-.25,.18-.51,.28-.77Zm6.6,9.68c-.02-.06-.03-.12-.06-.16-.25-.34-.26-.69-.02-1.03,.02-.02,.03-.06,.03-.09,.06-.35,.27-.54,.62-.6,.18-.03,.25-.14,.24-.33-.01-.6-.02-1.2,0-1.8,0-.22-.07-.32-.27-.38-.16-.04-.39-.1-.43-.21-.19-.5-.62-.99-.15-1.56,.02-.02,.01-.06,.03-.11-.47-.47-.95-.94-1.42-1.42-.15-.16-.27-.19-.45-.07-.26,.18-.53,.22-.8,.02-.05-.04-.11-.06-.17-.07-.37-.07-.58-.29-.64-.66-.03-.18-.14-.22-.31-.22-.58,.01-1.15,.02-1.73,0-.26,0-.41,.06-.46,.33-.05,.27-.21,.4-.47,.52-.47,.22-.91,.36-1.35-.05-.53,.54-1.04,1.04-1.53,1.55-.05,.05-.07,.21-.03,.26,.25,.35,.18,.67,.01,1.05-.15,.35-.31,.62-.71,.7-.08,.02-.19,.16-.19,.25-.02,.64-.01,1.28,0,1.92,0,.08,.09,.23,.16,.24,.42,.09,.59,.36,.75,.74,.15,.36,.21,.65-.01,.99-.04,.06-.03,.23,.02,.29,.49,.51,1,1.02,1.53,1.54,.38-.29,.75-.34,1.21-.11,.33,.17,.58,.31,.66,.7,.02,.08,.16,.19,.25,.2,.65,.02,1.3,.01,1.95,0,.08,0,.21-.09,.22-.15,.07-.47,.41-.61,.79-.78,.33-.14,.59-.18,.9,.02,.08,.05,.26,.05,.32,0,.52-.49,1.02-1,1.53-1.51Z"/><path class="cls-1" d="M26.59,22.91l-2.86,.71-.25-.97,4.58-1.15,.57,4.6-.99,.14-.33-2.56c-2.35,3.31-5.45,5.32-9.42,5.9-2.61,.38-5.12-.01-7.56-1.12l.42-.91c3.43,1.48,6.85,1.57,10.28,.1,2.3-.99,4.11-2.56,5.55-4.73Z"/><path class="cls-1" d="M3.45,4.41c0-.81,0-1.62,0-2.43,0-.93,.64-1.57,1.56-1.58,1.65,0,3.3,0,4.94,0,.91,0,1.55,.65,1.56,1.55,0,1.66,0,3.32,0,4.98,0,.9-.65,1.54-1.56,1.55-1.65,0-3.3,0-4.94,0-.92,0-1.55-.65-1.56-1.58,0-.83,0-1.66,0-2.49Zm4.01,3.06c.8,0,1.6,0,2.39,0,.47,0,.65-.17,.65-.64,0-1.59,0-3.18,0-4.77,0-.48-.17-.65-.64-.65-1.59,0-3.17,0-4.76,0-.47,0-.65,.17-.65,.64,0,1.59,0,3.18,0,4.77,0,.48,.17,.65,.64,.65,.79,0,1.57,0,2.36,0Z"/><path class="cls-1" d="M27.64,20.1c-.81,0-1.62,0-2.42,0-.96,0-1.6-.64-1.6-1.6,0-1.63,0-3.26,0-4.89,0-.94,.64-1.59,1.58-1.59,1.64,0,3.27,0,4.91,0,.92,0,1.57,.64,1.57,1.57,0,1.65,0,3.3,0,4.95,0,.9-.65,1.55-1.55,1.56-.83,0-1.66,0-2.49,0Zm3.03-4.05c0-.79,0-1.58,0-2.37,0-.48-.17-.65-.64-.65-1.59,0-3.17,0-4.76,0-.48,0-.65,.17-.65,.64,0,1.59,0,3.18,0,4.77,0,.48,.17,.65,.64,.65,1.59,0,3.17,0,4.76,0,.48,0,.65-.17,.65-.64,0-.8,0-1.6,0-2.4Z"/><path class="cls-1" d="M4.45,23.64c.82,0,1.64,0,2.46,0,.94,0,1.58,.64,1.58,1.59,0,1.63,0,3.26,0,4.89,0,.96-.64,1.6-1.6,1.6-1.62,0-3.23,0-4.85,0-.98,0-1.61-.64-1.61-1.62,0-1.62,0-3.24,0-4.86,0-.96,.64-1.6,1.6-1.6,.81,0,1.62,0,2.42,0Zm-.02,7.07c.81,0,1.62,0,2.43,0,.45,0,.63-.18,.63-.63,0-1.6,0-3.2,0-4.8,0-.45-.18-.63-.63-.63-1.6,0-3.19,0-4.79,0-.45,0-.63,.18-.63,.63,0,1.6,0,3.2,0,4.8,0,.45,.18,.63,.63,.63,.79,0,1.57,0,2.36,0Z"/><path class="cls-1" d="M15.22,3.45l1.61,1.08-.56,.84-3.65-2.44L16.27,.49l.56,.84-1.6,1.07c5.75-.05,10.03,2.37,12.92,7.35l-.91,.48c-1.55-2.86-3.81-4.89-6.85-6.02-1.64-.61-3.34-.84-5.17-.76Z"/><path class="cls-1" d="M4.84,22.84L.68,20.54l.48-.88,2.24,1.23c-1.41-3.61-1.25-7.1,.3-10.59l.91,.43c-1.41,3.22-1.58,6.45-.26,9.81l.62-2.56,.98,.23-1.11,4.64Z"/><path class="cls-1" d="M20.08,16.04c0,2.22-1.8,4.05-4.01,4.06-2.23,0-4.06-1.81-4.05-4.04,0-2.22,1.81-4.04,4.03-4.04,2.22,0,4.03,1.81,4.04,4.02Zm-4.04-3.01c-1.66,0-3.02,1.37-3.02,3.03,0,1.66,1.37,3.03,3.03,3.02,1.66,0,3.02-1.37,3.02-3.04,0-1.67-1.36-3.03-3.03-3.02Z"/><path class="cls-1" d="M9.1,2.56l.7,.7-3.32,3.32-1.32-1.33,.7-.66,.52,.69,2.71-2.72Z"/><path class="cls-1" d="M25.34,16.87l.68-.65,.52,.7,2.71-2.76,.68,.75-3.27,3.28-1.32-1.32Z"/><path class="cls-1" d="M6.11,25.81l.66,.66-3.33,3.34-1.3-1.3,.74-.67,.54,.68,2.69-2.71Z"/><path class="cls-1" d="M18.06,16.05c0,1.11-.91,2.03-2.02,2.02-1.11,0-2.02-.92-2.01-2.03,0-1.1,.9-2,2-2.01,1.11,0,2.03,.9,2.03,2.01Zm-1.01,.01c0-.55-.45-1.01-.99-1.01-.55,0-1.01,.44-1.02,.99-.01,.56,.45,1.03,1.01,1.03,.55,0,1-.46,1-1Z"/></g></g></g></svg>