<?xml version="1.0" encoding="UTF-8"?><svg id="Layer_2" xmlns="http://www.w3.org/2000/svg" viewBox="0 0 40 40"><defs><style>.cls-1{fill:#0091ff;}.cls-2{fill:none;}</style></defs><g id="Layer_1-2"><g><rect class="cls-2" width="40" height="40"/><g><path class="cls-1" d="M32.18,15.57v-3.91c0-6.44-5.22-11.67-11.67-11.67S8.84,5.22,8.84,11.67v3.91c-2.08,2.58-3.33,5.86-3.33,9.43,0,8.28,6.72,15,15,15s15-6.72,15-15c0-3.57-1.25-6.85-3.33-9.43ZM20.51,3.33c4.6,0,8.33,3.73,8.33,8.33v.86c-2.38-1.6-5.25-2.53-8.33-2.53s-5.95,.93-8.33,2.53v-.86c0-4.6,3.73-8.33,8.33-8.33Zm0,33.33c-6.44,0-11.67-5.22-11.67-11.67s5.22-11.67,11.67-11.67,11.67,5.22,11.67,11.67-5.22,11.67-11.67,11.67Z"/><path class="cls-1" d="M26.25,21.61l1.33-1.33c.65-.65,.65-1.71,0-2.36s-1.71-.65-2.36,0l-1.33,1.33c-.53-.31-1.11-.56-1.72-.71v-1.88c0-.92-.75-1.67-1.67-1.67s-1.67,.75-1.67,1.67v1.88c-.61,.16-1.19,.4-1.72,.71l-1.33-1.33c-.65-.65-1.71-.65-2.36,0s-.65,1.71,0,2.36l1.33,1.33c-.31,.53-.56,1.11-.71,1.72h-1.88c-.92,0-1.67,.75-1.67,1.67s.75,1.67,1.67,1.67h1.88c.16,.61,.4,1.19,.71,1.72l-1.33,1.33c-.65,.65-.65,1.71,0,2.36,.65,.65,1.71,.65,2.36,0l1.33-1.33c.53,.31,1.11,.56,1.72,.71v1.88c0,.92,.75,1.67,1.67,1.67s1.67-.75,1.67-1.67v-1.88c.61-.16,1.19-.4,1.72-.71l1.33,1.33c.65,.65,1.71,.65,2.36,0s.65-1.71,0-2.36l-1.33-1.33c.31-.53,.56-1.11,.71-1.72h1.88c.92,0,1.67-.75,1.67-1.67s-.75-1.67-1.67-1.67h-1.88c-.16-.61-.4-1.19-.71-1.72Zm-3.39,5.74h0c-.6,.6-1.44,.98-2.36,.98s-1.75-.37-2.36-.97h0c-.6-.61-.97-1.44-.97-2.36,0-1.84,1.49-3.33,3.33-3.33s3.33,1.49,3.33,3.33c0,.92-.37,1.75-.97,2.36h0Z"/></g></g></g></svg>