<?xml version="1.0" encoding="UTF-8"?><svg id="Layer_2" xmlns="http://www.w3.org/2000/svg" viewBox="0 0 28 28"><defs><style>.cls-1{fill:#0091ff;stroke:#0091ff;stroke-miterlimit:10;stroke-width:.32px;}.cls-2{fill:none;}</style></defs><g id="Layer_1-2"><g><rect class="cls-2" width="28" height="28"/><g><path class="cls-1" d="M.66,23.25V5.02s.03-.06,.04-.1c.36-1.66,1.48-2.57,3.16-2.57,6.75,0,13.5,0,20.26,0,.22,0,.44,0,.65,.04,1.54,.27,2.56,1.49,2.56,3.07,0,5.42,0,10.83,0,16.25,0,.42,0,.83,0,1.25-.01,.5-.15,.98-.41,1.41-.64,1.04-1.57,1.51-2.78,1.51-6.76,0-13.52,0-20.28,0-.11,0-.23,0-.34-.01-1.29-.11-2.17-.78-2.66-1.98-.08-.21-.13-.43-.19-.64Zm.9-14.85c0,.1,0,.17,0,.24,0,4.69,0,9.37,0,14.06,0,.22,.02,.45,.08,.67,.28,1.04,1.07,1.6,2.21,1.6,6.75,0,13.51,0,20.26,0,1.43,0,2.32-.89,2.32-2.32,0-4.65,0-9.31,0-13.96v-.29H1.56Zm.05-.94H26.42c0-.75,.02-1.49,0-2.22,0-.26-.08-.54-.2-.77-.42-.85-1.14-1.22-2.07-1.22-6.76,0-13.52,0-20.29,0-.07,0-.14,0-.21,0-1.02,.05-1.91,.74-2.02,1.7-.09,.82-.02,1.66-.02,2.51Z"/><path class="cls-1" d="M13.22,16.9c0,1.58,0,3.16,0,4.74,0,.48-.15,.62-.62,.62-2.61,0-5.22,0-7.84,0-.47,0-.62-.15-.62-.63,0-3.14,0-6.28,0-9.42,0-.5,.13-.63,.63-.63,2.6,0,5.21,0,7.81,0,.5,0,.63,.13,.63,.63,0,1.56,0,3.12,0,4.69Zm-.9-4.4H5.06v8.84h7.26V12.49Z"/><path class="cls-1" d="M19.71,15.74c-1.08,0-2.17,0-3.25,0-.06,0-.12,0-.18,0-.33-.01-.53-.18-.54-.44,0-.27,.2-.46,.54-.46,1,0,1.99,0,2.99,0,1.26,0,2.51,0,3.77,0,.45,0,.66,.14,.67,.44,0,.31-.21,.47-.67,.47-1.11,0-2.22,0-3.33,0Z"/><path class="cls-1" d="M19.73,21.35c1.1,0,2.2,0,3.3,0,.1,0,.21,0,.31,.02,.21,.04,.34,.17,.36,.38,.02,.23-.08,.39-.29,.46-.09,.03-.19,.04-.28,.04-2.27,0-4.54,0-6.82,0-.1,0-.21-.01-.3-.05-.19-.07-.28-.23-.27-.43,.02-.21,.13-.36,.35-.4,.1-.02,.21-.02,.31-.02,1.11,0,2.22,0,3.33,0Z"/><path class="cls-1" d="M19.71,11.58c1.14,0,2.29,0,3.43,0,.2,0,.38,.03,.5,.22,.16,.26,.01,.61-.3,.67-.09,.02-.19,.01-.29,.01-2.23,0-4.46,0-6.68,0-.05,0-.1,0-.16,0-.29-.01-.48-.19-.49-.44,0-.26,.2-.45,.5-.45,1.16,0,2.32,0,3.49,0Z"/><path class="cls-1" d="M19.7,18.99c-1.1,0-2.2,0-3.3,0-.1,0-.19,0-.29-.01-.23-.03-.36-.18-.38-.4-.02-.21,.08-.37,.29-.44,.1-.03,.22-.04,.33-.04,2.25,0,4.49,0,6.74,0,.09,0,.19,0,.28,.02,.23,.07,.34,.23,.32,.47-.02,.23-.15,.36-.38,.39-.09,.01-.19,0-.29,0-1.11,0-2.22,0-3.33,0Z"/><path class="cls-1" d="M5.77,5.36c0-.76,.63-1.39,1.4-1.39,.77,0,1.42,.65,1.41,1.41-.01,.76-.65,1.39-1.4,1.39-.77,0-1.4-.64-1.4-1.42Zm1.89,0c0-.27-.24-.5-.5-.49-.26,0-.49,.25-.49,.51,0,.27,.23,.48,.51,.48,.27,0,.49-.23,.48-.5Z"/><path class="cls-1" d="M11.81,5.37c0,.76-.63,1.39-1.39,1.4-.76,.01-1.42-.64-1.42-1.41,0-.77,.64-1.4,1.42-1.4,.76,0,1.39,.64,1.39,1.4Zm-.9,.02c.02-.26-.21-.51-.47-.52-.26-.02-.5,.2-.51,.47-.01,.27,.17,.49,.44,.51,.29,.03,.53-.18,.55-.46Z"/><path class="cls-1" d="M5.31,5.37c0,.77-.64,1.42-1.4,1.41-.76,0-1.38-.63-1.39-1.4,0-.78,.63-1.41,1.4-1.4,.77,0,1.39,.62,1.39,1.39Zm-1.39,.5c.27,0,.49-.23,.49-.5,0-.26-.24-.5-.5-.49-.27,0-.49,.23-.49,.5,0,.27,.22,.49,.5,.49Z"/></g></g></g></svg>