<?xml version="1.0" encoding="UTF-8"?><svg id="Layer_2" xmlns="http://www.w3.org/2000/svg" viewBox="0 0 28 28"><defs><style>.cls-1{fill:#0091ff;}.cls-2{stroke:#0091ff;stroke-miterlimit:10;stroke-width:.36px;}.cls-2,.cls-3{fill:none;}</style></defs><g id="Layer_1-2"><g><rect class="cls-3" width="28" height="28"/><g><path class="cls-1" d="M27.11,10.75c.34-.18,.5-.52,.62-.87v-2.3c-.29-.81-.88-1.07-1.71-1.05-1.5,.04-3.01,.01-4.51,.01s-3.15,0-4.73,0c-.86,0-1.4,.54-1.4,1.4,0,.53,0,1.05,0,1.58,0,.14,0,.29,.04,.42,.17,.64,.62,.95,1.27,1.02v.85s-.06,.03-.09,.03c-.78,.12-1.21,.61-1.22,1.4,0,.48,0,.96,0,1.44,0,.19,0,.38,.04,.56,.17,.64,.62,.95,1.26,1.02v.85c-.98,.13-1.36,.81-1.31,1.59,.03,.48,0,.96,0,1.44,0,.13,0,.27,.04,.4,.16,.64,.67,1.01,1.42,1.01,2.94,0,5.88,0,8.81,0,.28,0,.57,0,.85,0,.44-.02,.78-.24,1.01-.6,.08-.13,.14-.28,.21-.42v-2.3c-.2-.63-.6-1.03-1.31-1.09v-.81c.26-.11,.51-.18,.74-.31,.32-.18,.46-.51,.57-.84v-2.25c-.2-.64-.6-1.04-1.31-1.09v-.83c.23-.09,.47-.15,.69-.27Zm-.27,7.83c0,.53,0,1.05,0,1.58,0,.38-.16,.53-.54,.53-1.58,0-3.17,0-4.75,0-1.56,0-3.12,0-4.68,0-.48,0-.62-.14-.62-.63,0-.49,0-.98,0-1.47,0-.4,.16-.56,.55-.56,3.16,0,6.32,0,9.48,0,.4,0,.55,.15,.56,.55Zm-9.25-1.44v-.86h7.92v.86h-7.92Zm9.25-3.85c0,.51,0,1.02,0,1.53,0,.43-.15,.57-.59,.58-1.58,0-3.15,0-4.73,0s-3.08,0-4.62,0c-.53,0-.66-.13-.66-.67,0-.47,0-.95,0-1.42,0-.41,.16-.57,.56-.57,3.16,0,6.32,0,9.48,0,.39,0,.54,.16,.55,.56Zm-9.25-1.45v-.86h7.92v.86h-7.92Zm8.7-1.76c-3.16,0-6.32,0-9.48,0-.39,0-.55-.16-.55-.56,0-.52,0-1.03,0-1.55,0-.39,.16-.55,.56-.55,1.58,0,3.15,0,4.73,0,1.57,0,3.13,0,4.7,0,.46,0,.6,.14,.6,.61,0,.5,0,1,0,1.5,0,.39-.16,.55-.56,.55ZM15.55,2.55c1.38,0,2.76,0,4.14,0,.38,0,.53-.15,.54-.53,0-.13,0-.25,0-.43,.78,.49,1.5,.94,2.25,1.41-.76,.47-1.48,.93-2.24,1.4,0-.12-.01-.18-.01-.25,0-.62-.1-.71-.72-.71H5.68v.88h13.66c0,.27,0,.5,0,.73,0,.22,.02,.41,.23,.53,.21,.12,.39,.03,.57-.08,1.08-.68,2.17-1.36,3.26-2.04,.48-.3,.48-.63,0-.93-1.16-.73-2.32-1.46-3.48-2.19h-.27c-.24,.12-.34,.32-.32,.59,.01,.24,0,.48,0,.75H4.82v.86H15.55Zm-2.51,23h-4.49c-.57,0-.67,.1-.68,.66,0,.08-.01,.16-.02,.28-.76-.47-1.48-.93-2.23-1.4,.76-.47,1.48-.93,2.24-1.4,0,.11,.01,.17,.01,.22,.01,.66,.09,.73,.75,.73h13.81v-.89H8.76c0-.27,0-.5,0-.73,0-.22-.03-.41-.23-.53-.21-.12-.39-.03-.57,.08-1.08,.68-2.16,1.35-3.24,2.03-.51,.32-.51,.64,0,.96,1.15,.72,2.3,1.45,3.46,2.17h.27c.25-.13,.34-.34,.32-.62-.02-.23,0-.46,0-.72h14.54v-.86H13.04Zm-1.54-3.99c.69-.05,1.21-.59,1.23-1.28,.01-.62,.01-1.23,0-1.85-.01-.59-.4-1.08-.97-1.23-.11-.03-.22-.05-.33-.07v-.85c.92-.16,1.3-.62,1.3-1.55,0-.54,0-1.07,0-1.61-.01-.65-.48-1.17-1.12-1.27-.06,0-.12-.02-.17-.03v-.85c.9-.14,1.3-.62,1.3-1.52,0-.51,0-1.02,0-1.53,0-.13,0-.27-.04-.4-.17-.64-.67-.99-1.4-.99-2.87,0-5.73,0-8.6,0-.35,0-.69,0-1.04,0-.71,.03-1.25,.59-1.26,1.3,0,.6,0,1.2,0,1.79,0,.65,.46,1.18,1.1,1.3,.07,.01,.14,.02,.21,.03v.85c-.95,.19-1.31,.62-1.31,1.59v1.34c0,.9,.39,1.37,1.27,1.52,.01,0,.03,.02,.04,.04v.83s-.08,.02-.11,.02c-.74,.1-1.2,.62-1.2,1.36,0,.27,0,.54,0,.8s0,.52,0,.78c0,.93,.53,1.47,1.45,1.47,3.15,0,6.3,0,9.45,0,.07,0,.14,0,.21,0ZM1.26,9.54c0-.53,0-1.05,0-1.58,0-.39,.16-.54,.56-.54,1.58,0,3.15,0,4.73,0s3.13,0,4.7,0c.46,0,.6,.15,.6,.61,0,.5,0,1,0,1.5,0,.38-.16,.55-.54,.55-3.17,0-6.34,0-9.51,0-.38,0-.54-.15-.54-.53Zm9.24,1.43v.85H2.59v-.85h7.91ZM1.26,14.76c0-.5,0-1,0-1.5,0-.38,.16-.53,.54-.53,3.16,0,6.32,0,9.48,0,.41,0,.56,.16,.56,.57,0,.5,0,1,0,1.5,0,.44-.16,.59-.6,.59-1.57,0-3.13,0-4.7,0s-3.1,0-4.65,0c-.51,0-.64-.13-.64-.63Zm9.25,1.52v.86H2.6v-.86h7.92Zm-3.97,4.41c-1.56,0-3.12,0-4.67,0-.47,0-.61-.14-.61-.6,0-.49,0-.98,0-1.47,0-.44,.15-.58,.57-.58,3.14,0,6.29,0,9.43,0,.43,0,.59,.15,.59,.58,0,.5,0,1,0,1.5,0,.43-.15,.58-.58,.58-1.58,0-3.15,0-4.73,0ZM3.01,3.47h-.85v.84h.85v-.84Zm1.77,0h-.85v.84h.85v-.84ZM23.33,24.64h.86v-.84h-.86v.84Zm1.77,0h.84v-.85h-.84v.85Z"/><path class="cls-2" d="M27.11,10.75c.34-.18,.5-.52,.62-.87v-2.3c-.29-.81-.88-1.07-1.71-1.05-1.5,.04-3.01,.01-4.51,.01s-3.15,0-4.73,0c-.86,0-1.4,.54-1.4,1.4,0,.53,0,1.05,0,1.58,0,.14,0,.29,.04,.42,.17,.64,.62,.95,1.27,1.02v.85s-.06,.03-.09,.03c-.78,.12-1.21,.61-1.22,1.4,0,.48,0,.96,0,1.44,0,.19,0,.38,.04,.56,.17,.64,.62,.95,1.26,1.02v.85c-.98,.13-1.36,.81-1.31,1.59,.03,.48,0,.96,0,1.44,0,.13,0,.27,.04,.4,.16,.64,.67,1.01,1.42,1.01,2.94,0,5.88,0,8.81,0,.28,0,.57,0,.85,0,.44-.02,.78-.24,1.01-.6,.08-.13,.14-.28,.21-.42v-2.3c-.2-.63-.6-1.03-1.31-1.09v-.81c.26-.11,.51-.18,.74-.31,.32-.18,.46-.51,.57-.84v-2.25c-.2-.64-.6-1.04-1.31-1.09v-.83c.23-.09,.47-.15,.69-.27Zm-.27,7.83c0,.53,0,1.05,0,1.58,0,.38-.16,.53-.54,.53-1.58,0-3.17,0-4.75,0-1.56,0-3.12,0-4.68,0-.48,0-.62-.14-.62-.63,0-.49,0-.98,0-1.47,0-.4,.16-.56,.55-.56,3.16,0,6.32,0,9.48,0,.4,0,.55,.15,.56,.55Zm-9.25-1.44v-.86h7.92v.86h-7.92Zm9.25-3.85c0,.51,0,1.02,0,1.53,0,.43-.15,.57-.59,.58-1.58,0-3.15,0-4.73,0s-3.08,0-4.62,0c-.53,0-.66-.13-.66-.67,0-.47,0-.95,0-1.42,0-.41,.16-.57,.56-.57,3.16,0,6.32,0,9.48,0,.39,0,.54,.16,.55,.56Zm-9.25-1.45v-.86h7.92v.86h-7.92Zm8.7-1.76c-3.16,0-6.32,0-9.48,0-.39,0-.55-.16-.55-.56,0-.52,0-1.03,0-1.55,0-.39,.16-.55,.56-.55,1.58,0,3.15,0,4.73,0,1.57,0,3.13,0,4.7,0,.46,0,.6,.14,.6,.61,0,.5,0,1,0,1.5,0,.39-.16,.55-.56,.55ZM15.55,2.55c1.38,0,2.76,0,4.14,0,.38,0,.53-.15,.54-.53,0-.13,0-.25,0-.43,.78,.49,1.5,.94,2.25,1.41-.76,.47-1.48,.93-2.24,1.4,0-.12-.01-.18-.01-.25,0-.62-.1-.71-.72-.71H5.68v.88h13.66c0,.27,0,.5,0,.73,0,.22,.02,.41,.23,.53,.21,.12,.39,.03,.57-.08,1.08-.68,2.17-1.36,3.26-2.04,.48-.3,.48-.63,0-.93-1.16-.73-2.32-1.46-3.48-2.19h-.27c-.24,.12-.34,.32-.32,.59,.01,.24,0,.48,0,.75H4.82v.86H15.55Zm-2.51,23h-4.49c-.57,0-.67,.1-.68,.66,0,.08-.01,.16-.02,.28-.76-.47-1.48-.93-2.23-1.4,.76-.47,1.48-.93,2.24-1.4,0,.11,.01,.17,.01,.22,.01,.66,.09,.73,.75,.73h13.81v-.89H8.76c0-.27,0-.5,0-.73,0-.22-.03-.41-.23-.53-.21-.12-.39-.03-.57,.08-1.08,.68-2.16,1.35-3.24,2.03-.51,.32-.51,.64,0,.96,1.15,.72,2.3,1.45,3.46,2.17h.27c.25-.13,.34-.34,.32-.62-.02-.23,0-.46,0-.72h14.54v-.86H13.04Zm-1.54-3.99c.69-.05,1.21-.59,1.23-1.28,.01-.62,.01-1.23,0-1.85-.01-.59-.4-1.08-.97-1.23-.11-.03-.22-.05-.33-.07v-.85c.92-.16,1.3-.62,1.3-1.55,0-.54,0-1.07,0-1.61-.01-.65-.48-1.17-1.12-1.27-.06,0-.12-.02-.17-.03v-.85c.9-.14,1.3-.62,1.3-1.52,0-.51,0-1.02,0-1.53,0-.13,0-.27-.04-.4-.17-.64-.67-.99-1.4-.99-2.87,0-5.73,0-8.6,0-.35,0-.69,0-1.04,0-.71,.03-1.25,.59-1.26,1.3,0,.6,0,1.2,0,1.79,0,.65,.46,1.18,1.1,1.3,.07,.01,.14,.02,.21,.03v.85c-.95,.19-1.31,.62-1.31,1.59v1.34c0,.9,.39,1.37,1.27,1.52,.01,0,.03,.02,.04,.04v.83s-.08,.02-.11,.02c-.74,.1-1.2,.62-1.2,1.36,0,.27,0,.54,0,.8s0,.52,0,.78c0,.93,.53,1.47,1.45,1.47,3.15,0,6.3,0,9.45,0,.07,0,.14,0,.21,0ZM1.26,9.54c0-.53,0-1.05,0-1.58,0-.39,.16-.54,.56-.54,1.58,0,3.15,0,4.73,0s3.13,0,4.7,0c.46,0,.6,.15,.6,.61,0,.5,0,1,0,1.5,0,.38-.16,.55-.54,.55-3.17,0-6.34,0-9.51,0-.38,0-.54-.15-.54-.53Zm9.24,1.43v.85H2.59v-.85h7.91ZM1.26,14.76c0-.5,0-1,0-1.5,0-.38,.16-.53,.54-.53,3.16,0,6.32,0,9.48,0,.41,0,.56,.16,.56,.57,0,.5,0,1,0,1.5,0,.44-.16,.59-.6,.59-1.57,0-3.13,0-4.7,0s-3.1,0-4.65,0c-.51,0-.64-.13-.64-.63Zm9.25,1.52v.86H2.6v-.86h7.92Zm-3.97,4.41c-1.56,0-3.12,0-4.67,0-.47,0-.61-.14-.61-.6,0-.49,0-.98,0-1.47,0-.44,.15-.58,.57-.58,3.14,0,6.29,0,9.43,0,.43,0,.59,.15,.59,.58,0,.5,0,1,0,1.5,0,.43-.15,.58-.58,.58-1.58,0-3.15,0-4.73,0ZM3.01,3.47h-.85v.84h.85v-.84Zm1.77,0h-.85v.84h.85v-.84ZM23.33,24.64h.86v-.84h-.86v.84Zm1.77,0h.84v-.85h-.84v.85Z"/></g></g></g></svg>