<?xml version="1.0" encoding="UTF-8"?><svg id="Layer_2" xmlns="http://www.w3.org/2000/svg" viewBox="0 0 28 28"><defs><style>.cls-1{stroke:#0091ff;stroke-linecap:round;stroke-linejoin:round;stroke-width:1.89px;}.cls-1,.cls-2{fill:none;}</style></defs><g id="Layer_1-2"><g><rect class="cls-2" width="28" height="28"/><g><line class="cls-1" x1="5.04" y1="22.48" x2="10.7" y2="22.48"/><path class="cls-1" d="M10.7,1.74v1.23c0,.85-.75,1.6-1.6,1.6h-2.45c-.85,0-1.6-.75-1.6-1.6V1.74"/><path class="cls-1" d="M14.47,17.77v6.6c0,1.04-.85,1.89-1.89,1.89H3.16c-1.04,0-1.89-.85-1.89-1.89V3.63c0-1.04,.85-1.89,1.89-1.89H12.59c1.04,0,1.89,.85,1.89,1.89v6.6"/><path class="cls-1" d="M22.01,9.29c-1.04,0-1.98,.38-2.83,.94h-4.71c-.75-.57-1.79-.94-2.83-.94-2.64,0-4.71,2.07-4.71,4.71s2.07,4.71,4.71,4.71c1.04,0,1.98-.38,2.83-.94h4.71c.75,.57,1.79,.94,2.83,.94,2.64,0,4.71-2.07,4.71-4.71s-2.07-4.71-4.71-4.71Z"/><line class="cls-1" x1="11.64" y1="12.11" x2="11.64" y2="15.89"/><line class="cls-1" x1="9.76" y1="14" x2="13.53" y2="14"/><line class="cls-1" x1="22.96" y1="13.06" x2="22.96" y2="13.06"/><line class="cls-1" x1="21.07" y1="14.94" x2="21.07" y2="14.94"/></g></g></g></svg>