<?xml version="1.0" encoding="UTF-8"?><svg id="Layer_2" xmlns="http://www.w3.org/2000/svg" viewBox="0 0 32 32"><defs><style>.cls-1{fill:#0091ff;}.cls-2{stroke:#0091ff;stroke-miterlimit:10;stroke-width:.28px;}.cls-2,.cls-3{fill:none;}</style></defs><g id="Layer_1-2"><g><rect class="cls-3" width="32" height="32"/><g><path class="cls-1" d="M29.27,25.85c-.26-.38-.62-.48-.95-.27-.33,.21-.38,.61-.13,1,.17,.27,.35,.53,.54,.82h-3.32v-.38c0-6.92,0-13.84,0-20.76,0-.1,0-.21,0-.31-.03-.33-.24-.56-.58-.61-.13-.02-.27-.02-.4-.02-6.46,0-12.92,0-19.38,0h-.41v-1.98s.06,0,.07,0c.25,.17,.51,.34,.76,.5,.38,.25,.76,.2,.98-.11,.22-.33,.13-.7-.24-.95-.61-.42-1.23-.83-1.85-1.24-.22-.15-.47-.2-.7-.05-.69,.45-1.38,.91-2.06,1.39-.22,.15-.29,.4-.21,.66,.08,.27,.27,.45,.55,.46,.17,0,.35-.07,.5-.15,.28-.16,.55-.36,.86-.56V24.17c0,.2-.05,.3-.23,.39-1.87,.99-2.28,3.48-.86,5.05,.44,.49,1,.76,1.6,.99h1.6c.11-.05,.22-.09,.33-.14,.76-.3,1.35-.8,1.73-1.54,.08-.15,.17-.21,.35-.21,6.89,0,13.79,0,20.68,0h.23c-.19,.29-.36,.53-.52,.78-.31,.47-.29,.71,.1,1.1h.69c.51-.74,1.02-1.47,1.53-2.21,.02-.03,.05-.05,.07-.07v-.46c-.45-.67-.9-1.34-1.35-2.01Zm-24.64,3.52c-1.09,0-1.95-.87-1.94-1.96,0-1.08,.86-1.92,1.95-1.92,1.06,0,1.95,.9,1.94,1.95-.02,1.09-.87,1.94-1.95,1.94Zm7.77-1.96H7.9c-.04-.88-.34-1.66-.97-2.28-.62-.63-1.4-.93-2.29-.97v-5.81h7.75v9.06Zm5.86,0h-4.54v-9.47c0-.7-.2-.9-.89-.9-2.61,0-5.22,0-7.82,0h-.36v-4.51h13.62v14.89Zm5.83,0h-4.52v-.38c0-4.97,0-9.93,0-14.9,0-.12,0-.25-.02-.37-.05-.33-.28-.54-.61-.57-.1,0-.21,0-.31,0-4.54,0-9.08,0-13.61,0h-.36V6.64H24.09V27.39Zm-1.95-18.8h-1.26v1.25h1.26v-1.25Zm-5.84,5.85h-1.27v1.26h1.27v-1.26Zm-5.85,5.84h-1.26v1.27h1.26v-1.27Z"/><path class="cls-2" d="M29.27,25.85c-.26-.38-.62-.48-.95-.27-.33,.21-.38,.61-.13,1,.17,.27,.35,.53,.54,.82h-3.32v-.38c0-6.92,0-13.84,0-20.76,0-.1,0-.21,0-.31-.03-.33-.24-.56-.58-.61-.13-.02-.27-.02-.4-.02-6.46,0-12.92,0-19.38,0h-.41v-1.98s.06,0,.07,0c.25,.17,.51,.34,.76,.5,.38,.25,.76,.2,.98-.11,.22-.33,.13-.7-.24-.95-.61-.42-1.23-.83-1.85-1.24-.22-.15-.47-.2-.7-.05-.69,.45-1.38,.91-2.06,1.39-.22,.15-.29,.4-.21,.66,.08,.27,.27,.45,.55,.46,.17,0,.35-.07,.5-.15,.28-.16,.55-.36,.86-.56V24.17c0,.2-.05,.3-.23,.39-1.87,.99-2.28,3.48-.86,5.05,.44,.49,1,.76,1.6,.99h1.6c.11-.05,.22-.09,.33-.14,.76-.3,1.35-.8,1.73-1.54,.08-.15,.17-.21,.35-.21,6.89,0,13.79,0,20.68,0h.23c-.19,.29-.36,.53-.52,.78-.31,.47-.29,.71,.1,1.1h.69c.51-.74,1.02-1.47,1.53-2.21,.02-.03,.05-.05,.07-.07v-.46c-.45-.67-.9-1.34-1.35-2.01Zm-24.64,3.52c-1.09,0-1.95-.87-1.94-1.96,0-1.08,.86-1.92,1.95-1.92,1.06,0,1.95,.9,1.94,1.95-.02,1.09-.87,1.94-1.95,1.94Zm7.77-1.96H7.9c-.04-.88-.34-1.66-.97-2.28-.62-.63-1.4-.93-2.29-.97v-5.81h7.75v9.06Zm5.86,0h-4.54v-9.47c0-.7-.2-.9-.89-.9-2.61,0-5.22,0-7.82,0h-.36v-4.51h13.62v14.89Zm5.83,0h-4.52v-.38c0-4.97,0-9.93,0-14.9,0-.12,0-.25-.02-.37-.05-.33-.28-.54-.61-.57-.1,0-.21,0-.31,0-4.54,0-9.08,0-13.61,0h-.36V6.64H24.09V27.39Zm-1.95-18.8h-1.26v1.25h1.26v-1.25Zm-5.84,5.85h-1.27v1.26h1.27v-1.26Zm-5.85,5.84h-1.26v1.27h1.26v-1.27Z"/></g></g></g></svg>