<?xml version="1.0" encoding="UTF-8"?><svg id="Layer_2" xmlns="http://www.w3.org/2000/svg" viewBox="0 0 40 40"><defs><style>.cls-1{fill:#0091ff;}.cls-2,.cls-3{fill:none;}.cls-3{stroke:#0091ff;stroke-miterlimit:10;}</style></defs><g id="Layer_1-2"><g><rect class="cls-2" width="40" height="40"/><rect class="cls-2" x="11.59" y="11.59" width="16.81" height="16.81"/><g><path class="cls-1" d="M36.68,17.67c-.12-.07-.22-.25-.25-.39-.14-.93-.2-1.88-.4-2.8C33.98,5.54,24.94,0,16.03,2.22,9.05,3.96,3.99,10.06,3.59,17.22c-.01,.24-.08,.36-.3,.49-1.12,.63-1.89,1.58-1.96,2.86-.09,1.78-.12,3.58,0,5.36,.12,1.71,1.45,2.97,3.14,3.29,1.77,.33,3.15-.8,3.15-2.59,0-2.27,0-4.55,0-6.82,0-1.19-.68-2.12-1.76-2.45-.15-.05-.31-.08-.48-.12,.47-7.69,7.04-14.05,15.29-13.69,7.84,.34,13.6,6.7,13.93,13.69-.1,.03-.2,.06-.31,.09-1.09,.27-1.89,1.18-1.9,2.29-.02,2.42-.02,4.84,0,7.27,0,1.06,.73,1.96,1.74,2.27,.16,.05,.33,.08,.51,.13,0,.66,.02,1.3,0,1.94-.05,1.69-1.38,3.21-3.06,3.38-1.02,.11-2.06,.06-3.09,.06-.09,0-.22-.13-.27-.23-.48-.96-1.25-1.52-2.32-1.56-1.02-.04-2.04-.05-3.06,0-1.51,.08-2.61,1.29-2.57,2.75,.05,1.49,1.2,2.62,2.73,2.64,.9,.01,1.79,0,2.69,0,1.16,0,2-.54,2.51-1.56,.09-.18,.19-.25,.39-.25,.83,.01,1.67,.02,2.5,0,2.65-.05,4.88-1.95,5.26-4.55,.13-.88,.07-1.78,.08-2.68,0-.21,.06-.33,.25-.44,1.34-.75,2.02-1.91,2.04-3.44,.02-1.4,.02-2.81,0-4.21-.02-1.54-.71-2.7-2.06-3.48Zm-30.85,2.15c0,1.14,0,2.28,0,3.43,0,1.12,0,2.23,0,3.35,0,.67-.28,.92-.95,.86-.98-.09-1.8-.96-1.82-1.99-.02-1.48-.02-2.96,0-4.43,.02-1.08,.89-1.97,1.92-2.01,.56-.02,.84,.23,.85,.79Zm19.88,16.66c-.45,0-.9,0-1.34,0-.45,0-.9,0-1.34,0-.57-.01-.96-.39-.96-.92,0-.51,.38-.89,.94-.9,.91-.01,1.82-.01,2.73,0,.58,0,.95,.4,.94,.94-.01,.52-.39,.87-.96,.88Zm11.23-10.99c-.02,1.05-.87,1.91-1.88,1.98-.6,.04-.89-.21-.89-.81,0-1.13,0-2.26,0-3.39,0-1.13,0-2.26,0-3.39,0-.64,.3-.9,.94-.84,.98,.09,1.81,.95,1.83,1.99,.03,1.49,.03,2.98,0,4.47Zm-14.56,.62c.06-.55,.12-1.11,.17-1.66,0-.08,.04-.12,.11-.15,.31-.17,.62-.34,.92-.53,.08-.05,.14-.05,.23-.02,.5,.23,1,.45,1.5,.67,.32,.14,.54,.07,.72-.24,.55-.93,1.09-1.86,1.64-2.8,.17-.29,.12-.54-.16-.73-.45-.32-.9-.64-1.35-.96-.07-.05-.09-.1-.09-.18,0-.35,0-.69,0-1.04,0-.09,.02-.14,.1-.19,.44-.31,.88-.62,1.32-.93,.31-.22,.36-.45,.17-.77-.54-.92-1.08-1.84-1.62-2.76-.19-.33-.41-.4-.76-.24-.5,.22-.99,.44-1.49,.66-.08,.04-.14,.03-.22-.02-.3-.18-.61-.36-.92-.53-.07-.04-.1-.08-.11-.17-.05-.52-.11-1.03-.15-1.55-.02-.27-.12-.47-.38-.58h-3.68c-.25,.11-.36,.31-.38,.58-.04,.52-.1,1.03-.15,1.55,0,.08-.04,.12-.11,.17-.31,.17-.62,.34-.92,.53-.08,.05-.13,.05-.21,.02-.49-.22-.98-.44-1.47-.66-.37-.16-.58-.1-.78,.25-.53,.91-1.07,1.82-1.6,2.73-.04,.08-.08,.16-.12,.24v.21c.06,.16,.18,.28,.32,.37,.43,.3,.85,.6,1.28,.9,.07,.05,.1,.1,.1,.19,0,.34,0,.69,0,1.03,0,.09-.02,.14-.1,.19-.43,.3-.85,.61-1.28,.9-.14,.1-.26,.21-.32,.37v.21c.34,.59,.68,1.18,1.02,1.77,.24,.41,.48,.83,.73,1.24,.17,.29,.4,.36,.7,.23,.51-.22,1.01-.45,1.51-.67,.08-.04,.14-.04,.23,.01,.3,.18,.6,.35,.91,.52,.08,.04,.11,.09,.12,.18,.05,.56,.11,1.11,.17,1.66,.03,.28,.22,.46,.51,.46,1.13,0,2.25,0,3.38,0,.29,0,.48-.18,.51-.47Zm-.77-2.05c-.04,.49-.1,.97-.15,1.46,0,.02,0,.05-.01,.08h-2.54c-.03-.3-.06-.59-.09-.89-.03-.26-.05-.52-.08-.78-.02-.18-.12-.31-.29-.38-.51-.2-.98-.47-1.41-.8-.16-.13-.35-.12-.53-.04-.45,.2-.91,.41-1.36,.61-.04,.02-.09,.04-.15,.06-.42-.72-.84-1.43-1.26-2.16,.25-.18,.5-.36,.75-.53,.2-.14,.39-.28,.59-.42,.18-.12,.26-.29,.23-.51-.08-.51-.08-1.02,0-1.53,.03-.22-.05-.39-.23-.52-.4-.28-.8-.56-1.2-.85-.04-.03-.09-.06-.14-.1,.42-.72,.84-1.43,1.26-2.16,.48,.21,.96,.41,1.42,.64,.27,.13,.5,.11,.74-.08,.35-.29,.75-.51,1.18-.67,.29-.1,.41-.29,.43-.59,.04-.5,.1-1,.15-1.51h2.54c.04,.4,.08,.79,.12,1.19,.02,.16,.03,.31,.05,.47,.02,.19,.13,.32,.3,.39,.51,.19,.97,.46,1.4,.8,.16,.13,.34,.13,.53,.04,.5-.22,1-.44,1.52-.67,.42,.71,.84,1.43,1.26,2.15-.05,.04-.09,.07-.14,.1-.39,.28-.78,.56-1.17,.83-.2,.14-.29,.31-.25,.55,.08,.5,.08,1,0,1.5-.04,.23,.05,.4,.24,.53,.44,.31,.88,.62,1.33,.94-.42,.72-.84,1.43-1.26,2.16-.31-.14-.62-.27-.92-.41-.18-.08-.36-.15-.54-.24-.25-.13-.47-.09-.68,.09-.36,.29-.77,.52-1.2,.68-.27,.1-.4,.28-.42,.56Zm-1.42-7.17c-1.16,0-2.1,.94-2.1,2.1s.94,2.1,2.1,2.1,2.1-.94,2.1-2.1-.94-2.1-2.1-2.1Z"/><path class="cls-3" d="M36.68,17.67c-.12-.07-.22-.25-.25-.39-.14-.93-.2-1.88-.4-2.8C33.98,5.54,24.94,0,16.03,2.22,9.05,3.96,3.99,10.06,3.59,17.22c-.01,.24-.08,.36-.3,.49-1.12,.63-1.89,1.58-1.96,2.86-.09,1.78-.12,3.58,0,5.36,.12,1.71,1.45,2.97,3.14,3.29,1.77,.33,3.15-.8,3.15-2.59,0-2.27,0-4.55,0-6.82,0-1.19-.68-2.12-1.76-2.45-.15-.05-.31-.08-.48-.12,.47-7.69,7.04-14.05,15.29-13.69,7.84,.34,13.6,6.7,13.93,13.69-.1,.03-.2,.06-.31,.09-1.09,.27-1.89,1.18-1.9,2.29-.02,2.42-.02,4.84,0,7.27,0,1.06,.73,1.96,1.74,2.27,.16,.05,.33,.08,.51,.13,0,.66,.02,1.3,0,1.94-.05,1.69-1.38,3.21-3.06,3.38-1.02,.11-2.06,.06-3.09,.06-.09,0-.22-.13-.27-.23-.48-.96-1.25-1.52-2.32-1.56-1.02-.04-2.04-.05-3.06,0-1.51,.08-2.61,1.29-2.57,2.75,.05,1.49,1.2,2.62,2.73,2.64,.9,.01,1.79,0,2.69,0,1.16,0,2-.54,2.51-1.56,.09-.18,.19-.25,.39-.25,.83,.01,1.67,.02,2.5,0,2.65-.05,4.88-1.95,5.26-4.55,.13-.88,.07-1.78,.08-2.68,0-.21,.06-.33,.25-.44,1.34-.75,2.02-1.91,2.04-3.44,.02-1.4,.02-2.81,0-4.21-.02-1.54-.71-2.7-2.06-3.48Zm-30.85,2.15c0,1.14,0,2.28,0,3.43,0,1.12,0,2.23,0,3.35,0,.67-.28,.92-.95,.86-.98-.09-1.8-.96-1.82-1.99-.02-1.48-.02-2.96,0-4.43,.02-1.08,.89-1.97,1.92-2.01,.56-.02,.84,.23,.85,.79Zm19.88,16.66c-.45,0-.9,0-1.34,0-.45,0-.9,0-1.34,0-.57-.01-.96-.39-.96-.92,0-.51,.38-.89,.94-.9,.91-.01,1.82-.01,2.73,0,.58,0,.95,.4,.94,.94-.01,.52-.39,.87-.96,.88Zm11.23-10.99c-.02,1.05-.87,1.91-1.88,1.98-.6,.04-.89-.21-.89-.81,0-1.13,0-2.26,0-3.39,0-1.13,0-2.26,0-3.39,0-.64,.3-.9,.94-.84,.98,.09,1.81,.95,1.83,1.99,.03,1.49,.03,2.98,0,4.47Zm-14.56,.62c.06-.55,.12-1.11,.17-1.66,0-.08,.04-.12,.11-.15,.31-.17,.62-.34,.92-.53,.08-.05,.14-.05,.23-.02,.5,.23,1,.45,1.5,.67,.32,.14,.54,.07,.72-.24,.55-.93,1.09-1.86,1.64-2.8,.17-.29,.12-.54-.16-.73-.45-.32-.9-.64-1.35-.96-.07-.05-.09-.1-.09-.18,0-.35,0-.69,0-1.04,0-.09,.02-.14,.1-.19,.44-.31,.88-.62,1.32-.93,.31-.22,.36-.45,.17-.77-.54-.92-1.08-1.84-1.62-2.76-.19-.33-.41-.4-.76-.24-.5,.22-.99,.44-1.49,.66-.08,.04-.14,.03-.22-.02-.3-.18-.61-.36-.92-.53-.07-.04-.1-.08-.11-.17-.05-.52-.11-1.03-.15-1.55-.02-.27-.12-.47-.38-.58h-3.68c-.25,.11-.36,.31-.38,.58-.04,.52-.1,1.03-.15,1.55,0,.08-.04,.12-.11,.17-.31,.17-.62,.34-.92,.53-.08,.05-.13,.05-.21,.02-.49-.22-.98-.44-1.47-.66-.37-.16-.58-.1-.78,.25-.53,.91-1.07,1.82-1.6,2.73-.04,.08-.08,.16-.12,.24v.21c.06,.16,.18,.28,.32,.37,.43,.3,.85,.6,1.28,.9,.07,.05,.1,.1,.1,.19,0,.34,0,.69,0,1.03,0,.09-.02,.14-.1,.19-.43,.3-.85,.61-1.28,.9-.14,.1-.26,.21-.32,.37v.21c.34,.59,.68,1.18,1.02,1.77,.24,.41,.48,.83,.73,1.24,.17,.29,.4,.36,.7,.23,.51-.22,1.01-.45,1.51-.67,.08-.04,.14-.04,.23,.01,.3,.18,.6,.35,.91,.52,.08,.04,.11,.09,.12,.18,.05,.56,.11,1.11,.17,1.66,.03,.28,.22,.46,.51,.46,1.13,0,2.25,0,3.38,0,.29,0,.48-.18,.51-.47Zm-.77-2.05c-.04,.49-.1,.97-.15,1.46,0,.02,0,.05-.01,.08h-2.54c-.03-.3-.06-.59-.09-.89-.03-.26-.05-.52-.08-.78-.02-.18-.12-.31-.29-.38-.51-.2-.98-.47-1.41-.8-.16-.13-.35-.12-.53-.04-.45,.2-.91,.41-1.36,.61-.04,.02-.09,.04-.15,.06-.42-.72-.84-1.43-1.26-2.16,.25-.18,.5-.36,.75-.53,.2-.14,.39-.28,.59-.42,.18-.12,.26-.29,.23-.51-.08-.51-.08-1.02,0-1.53,.03-.22-.05-.39-.23-.52-.4-.28-.8-.56-1.2-.85-.04-.03-.09-.06-.14-.1,.42-.72,.84-1.43,1.26-2.16,.48,.21,.96,.41,1.42,.64,.27,.13,.5,.11,.74-.08,.35-.29,.75-.51,1.18-.67,.29-.1,.41-.29,.43-.59,.04-.5,.1-1,.15-1.51h2.54c.04,.4,.08,.79,.12,1.19,.02,.16,.03,.31,.05,.47,.02,.19,.13,.32,.3,.39,.51,.19,.97,.46,1.4,.8,.16,.13,.34,.13,.53,.04,.5-.22,1-.44,1.52-.67,.42,.71,.84,1.43,1.26,2.15-.05,.04-.09,.07-.14,.1-.39,.28-.78,.56-1.17,.83-.2,.14-.29,.31-.25,.55,.08,.5,.08,1,0,1.5-.04,.23,.05,.4,.24,.53,.44,.31,.88,.62,1.33,.94-.42,.72-.84,1.43-1.26,2.16-.31-.14-.62-.27-.92-.41-.18-.08-.36-.15-.54-.24-.25-.13-.47-.09-.68,.09-.36,.29-.77,.52-1.2,.68-.27,.1-.4,.28-.42,.56Zm-1.42-7.17c-1.16,0-2.1,.94-2.1,2.1s.94,2.1,2.1,2.1,2.1-.94,2.1-2.1-.94-2.1-2.1-2.1Z"/></g></g></g></svg>