<?xml version="1.0" encoding="UTF-8"?><svg id="Layer_2" xmlns="http://www.w3.org/2000/svg" viewBox="0 0 32 32"><defs><style>.cls-1{stroke:#0091ff;stroke-miterlimit:10;stroke-width:.32px;}.cls-1,.cls-2{fill:none;}.cls-3{fill:#0091ff;}</style></defs><g id="Layer_1-2"><g><rect class="cls-2" width="32" height="32"/><g><path class="cls-3" d="M30.69,26.98c-.57,.02-1.15,0-1.75,0v-.4c0-3.43,0-6.87,0-10.3,0-.11,0-.22,0-.33-.03-.35-.29-.6-.64-.61-.33,0-.61,.26-.64,.6,0,.1,0,.2,0,.3v10.71H4.35c0-.07,0-.12,0-.17,0-4.66,0-9.33,0-13.99,0-.78,.56-1.32,1.35-1.32,1.45,0,2.89,0,4.34,0,.48,0,.79-.25,.78-.65,0-.39-.3-.64-.76-.64-1.46,0-2.91-.01-4.37,0-.33,0-.67,.06-.98,.17-1.06,.39-1.66,1.33-1.66,2.56,0,4.55,0,9.11,0,13.66v.4c-.61,0-1.18,.01-1.75,0-.4-.01-.69,.12-.85,.49v.36c.19,.34,.49,.45,.88,.45,1.01-.02,2.02,0,3.03,0,8.77,0,17.53,0,26.3,0,.39,0,.69-.1,.88-.45v-.36c-.16-.37-.45-.5-.85-.49ZM12.41,12.63c.42,.1,.85,.2,1.27,.3,.46,.11,.91,.22,1.4,.34-.29,.45-.13,.76,.19,1.08,1.47,1.45,2.92,2.91,4.38,4.36,.36,.35,.55,.39,1.02,.16,.03,.09,.05,.16,.07,.22,.19,.79,.38,1.59,.57,2.38,.07,.29,.2,.51,.5,.58,.28,.07,.52-.04,.7-.26,.27-.33,.56-.64,.79-.99,1.1-1.68,1.52-3.56,1.64-5.53,0-.15,.09-.34,.19-.44,1.47-1.36,2.65-2.93,3.56-4.72,.88-1.75,1.46-3.58,1.56-5.55,.03-.61-.21-.89-.81-.85-.59,.04-1.19,.09-1.77,.21-3.35,.7-6.16,2.36-8.5,4.84-.16,.17-.32,.23-.55,.26-.79,.09-1.59,.16-2.37,.33-1.55,.34-2.97,.98-4.14,2.09-.21,.2-.31,.42-.24,.7,.07,.27,.27,.41,.54,.47Zm9.88,7.37c-.18-.73-.33-1.38-.49-2.03-.01-.05,0-.13,.03-.16,.55-.5,1.1-1,1.71-1.55-.19,1.36-.53,2.57-1.25,3.74Zm-1.65-10.86c2.12-2.11,4.67-3.47,7.63-4.01,.2-.04,.4-.05,.68-.08-.13,.65-.22,1.28-.39,1.88-.83,2.88-2.39,5.29-4.65,7.26-1.16,1.01-2.28,2.05-3.42,3.08-.07,.06-.13,.12-.2,.18-1.27-1.27-2.52-2.51-3.79-3.78,.12-.14,.26-.29,.4-.45,1.24-1.37,2.44-2.78,3.74-4.09Zm-3.02,1.34c-.09,.1-.18,.2-.26,.29-.37,.41-.74,.83-1.12,1.23-.07,.07-.19,.15-.27,.13-.65-.14-1.29-.3-2.02-.47,1.17-.72,2.38-1.05,3.68-1.18Zm-5.93,12.59c.23-.06,.47-.14,.69-.21,1.35-.45,2.71-.88,3.95-1.59,1.06-.61,1.53-1.81,1.2-2.99-.32-1.17-1.36-1.96-2.8-1.96-.76,.03-1.56,.41-2.05,1.27-.85,1.48-1.35,3.1-1.83,4.72-.15,.51,.31,.91,.83,.77Zm2.15-4.89c.27-.45,.86-.66,1.38-.55,.58,.12,1.01,.55,1.11,1.11,.1,.58-.11,1.15-.61,1.4-.78,.38-1.59,.7-2.38,1.03-.26,.11-.53,.18-.85,.29,.41-1.16,.75-2.27,1.36-3.28Z"/><path class="cls-1" d="M30.69,26.98c-.57,.02-1.15,0-1.75,0v-.4c0-3.43,0-6.87,0-10.3,0-.11,0-.22,0-.33-.03-.35-.29-.6-.64-.61-.33,0-.61,.26-.64,.6,0,.1,0,.2,0,.3v10.71H4.35c0-.07,0-.12,0-.17,0-4.66,0-9.33,0-13.99,0-.78,.56-1.32,1.35-1.32,1.45,0,2.89,0,4.34,0,.48,0,.79-.25,.78-.65,0-.39-.3-.64-.76-.64-1.46,0-2.91-.01-4.37,0-.33,0-.67,.06-.98,.17-1.06,.39-1.66,1.33-1.66,2.56,0,4.55,0,9.11,0,13.66v.4c-.61,0-1.18,.01-1.75,0-.4-.01-.69,.12-.85,.49v.36c.19,.34,.49,.45,.88,.45,1.01-.02,2.02,0,3.03,0,8.77,0,17.53,0,26.3,0,.39,0,.69-.1,.88-.45v-.36c-.16-.37-.45-.5-.85-.49ZM12.41,12.63c.42,.1,.85,.2,1.27,.3,.46,.11,.91,.22,1.4,.34-.29,.45-.13,.76,.19,1.08,1.47,1.45,2.92,2.91,4.38,4.36,.36,.35,.55,.39,1.02,.16,.03,.09,.05,.16,.07,.22,.19,.79,.38,1.59,.57,2.38,.07,.29,.2,.51,.5,.58,.28,.07,.52-.04,.7-.26,.27-.33,.56-.64,.79-.99,1.1-1.68,1.52-3.56,1.64-5.53,0-.15,.09-.34,.19-.44,1.47-1.36,2.65-2.93,3.56-4.72,.88-1.75,1.46-3.58,1.56-5.55,.03-.61-.21-.89-.81-.85-.59,.04-1.19,.09-1.77,.21-3.35,.7-6.16,2.36-8.5,4.84-.16,.17-.32,.23-.55,.26-.79,.09-1.59,.16-2.37,.33-1.55,.34-2.97,.98-4.14,2.09-.21,.2-.31,.42-.24,.7,.07,.27,.27,.41,.54,.47Zm9.88,7.37c-.18-.73-.33-1.38-.49-2.03-.01-.05,0-.13,.03-.16,.55-.5,1.1-1,1.71-1.55-.19,1.36-.53,2.57-1.25,3.74Zm-1.65-10.86c2.12-2.11,4.67-3.47,7.63-4.01,.2-.04,.4-.05,.68-.08-.13,.65-.22,1.28-.39,1.88-.83,2.88-2.39,5.29-4.65,7.26-1.16,1.01-2.28,2.05-3.42,3.08-.07,.06-.13,.12-.2,.18-1.27-1.27-2.52-2.51-3.79-3.78,.12-.14,.26-.29,.4-.45,1.24-1.37,2.44-2.78,3.74-4.09Zm-3.02,1.34c-.09,.1-.18,.2-.26,.29-.37,.41-.74,.83-1.12,1.23-.07,.07-.19,.15-.27,.13-.65-.14-1.29-.3-2.02-.47,1.17-.72,2.38-1.05,3.68-1.18Zm-5.93,12.59c.23-.06,.47-.14,.69-.21,1.35-.45,2.71-.88,3.95-1.59,1.06-.61,1.53-1.81,1.2-2.99-.32-1.17-1.36-1.96-2.8-1.96-.76,.03-1.56,.41-2.05,1.27-.85,1.48-1.35,3.1-1.83,4.72-.15,.51,.31,.91,.83,.77Zm2.15-4.89c.27-.45,.86-.66,1.38-.55,.58,.12,1.01,.55,1.11,1.11,.1,.58-.11,1.15-.61,1.4-.78,.38-1.59,.7-2.38,1.03-.26,.11-.53,.18-.85,.29,.41-1.16,.75-2.27,1.36-3.28Z"/></g></g></g></svg>