<svg xmlns="http://www.w3.org/2000/svg" viewBox="0 0 28 28"><defs><style>.cls-1{fill:none;}.cls-2{fill:#0091ff;}</style></defs><g id="Layer_2" data-name="Layer 2"><g id="Layer_1-2" data-name="Layer 1"><rect class="cls-1" width="28" height="28"/><path class="cls-2" d="M19.21.2a1,1,0,0,1,.59,1,6.76,6.76,0,0,1-2.27,5.17s0,0,0,.05c.48,0,1-.08,1.44-.06A6.5,6.5,0,0,1,24.16,9.1a.79.79,0,0,1-.2,1.24,6.15,6.15,0,0,0-1.78,1.95,4.68,4.68,0,0,0,1.38,5.89c.3.21.61.4.91.6a.9.9,0,0,1,.42,1.27,18.28,18.28,0,0,1-2.6,4.72,6,6,0,0,1-2.35,1.94A7.32,7.32,0,0,1,19,27h-.83a10.57,10.57,0,0,1-2.26-.77,3,3,0,0,0-2.4,0,4.84,4.84,0,0,1-.49.18L10.75,27h-.68a5.09,5.09,0,0,1-3.14-2,14.16,14.16,0,0,1-1.37-2A19,19,0,0,1,3.14,15.8,10,10,0,0,1,3.69,11,7,7,0,0,1,9.17,6.53a5.47,5.47,0,0,1,3,.35l1.13.4a5.18,5.18,0,0,1,.8-3.93A6.56,6.56,0,0,1,18.23.28L18.58.2Zm3.22,9.26,0-.05-.19-.18a5.06,5.06,0,0,0-4.43-1.18,14.23,14.23,0,0,0-2.39.79,3.06,3.06,0,0,1-2.19.05l-1.58-.55a3.83,3.83,0,0,0-2-.29,5.42,5.42,0,0,0-4.41,3.37,8.29,8.29,0,0,0-.5,4.35A17.52,17.52,0,0,0,7,22.38a8.32,8.32,0,0,0,2.1,2.55,2.06,2.06,0,0,0,1.91.41c.61-.18,1.22-.36,1.81-.59a4.86,4.86,0,0,1,3.9.12c.29.12.57.25.86.36a2.16,2.16,0,0,0,2.33-.33,7,7,0,0,0,.92-.88,14.82,14.82,0,0,0,2.21-3.68c.2-.45.2-.46-.2-.72a6.21,6.21,0,0,1-1.79-8.53C21.47,10.52,22,10,22.43,9.46ZM18.15,1.94c-1.9.57-3.41,2.87-3.3,4.06A4.41,4.41,0,0,0,18.15,1.94Z"/></g></g></svg>