<svg xmlns="http://www.w3.org/2000/svg" viewBox="0 0 28 28"><defs><style>.cls-1{fill:none;}.cls-2{fill:#0091ff;}</style></defs><g id="Layer_2" data-name="Layer 2"><g id="Layer_1-2" data-name="Layer 1"><rect class="cls-1" width="28" height="28"/><rect class="cls-1" x="0.36" y="0.36" width="27.28" height="27.28"/><path class="cls-2" d="M25.34,7.06a2.67,2.67,0,0,0-.54-1.51,3,3,0,0,0-2.37-1.18A11,11,0,0,1,16.12,2.1c-.39-.3-.75-.66-1.16-1A1.53,1.53,0,0,0,13.26,1a5.06,5.06,0,0,0-.95.72,11,11,0,0,1-2.17,1.46A11.4,11.4,0,0,1,5.49,4.37a2.91,2.91,0,0,0-2.89,3c0,1.63,0,3.27,0,4.89a20.23,20.23,0,0,0,.78,5.13,13.34,13.34,0,0,0,5.29,7.41,17.84,17.84,0,0,0,5,2.42h.52l.45-.13a19.54,19.54,0,0,0,4.12-2,13.31,13.31,0,0,0,4.54-4.83,17.36,17.36,0,0,0,1.94-7.17A55,55,0,0,0,25.34,7.06Zm-1.93,8.31a12.33,12.33,0,0,1-7.12,9.35c-.68.32-1.38.58-2.07.86a.69.69,0,0,1-.4,0,15.47,15.47,0,0,1-5.08-2.75,11.89,11.89,0,0,1-4-6.52,25,25,0,0,1-.63-6c0-1,0-2,0-3.06A1.24,1.24,0,0,1,5.32,6c.81-.12,1.63-.17,2.44-.33a12,12,0,0,0,5.86-3c.35-.33.36-.33.71,0a12,12,0,0,0,5.86,3c.8.15,1.63.21,2.44.32a1.23,1.23,0,0,1,1.14,1.28c0,1,0,1.92,0,2.88A25,25,0,0,1,23.41,15.37Z"/><path class="cls-2" d="M20.68,14.19A6.68,6.68,0,1,1,14,7.63,6.64,6.64,0,0,1,20.68,14.19Zm-1.57,0a5.11,5.11,0,1,0-5.11,5A5.09,5.09,0,0,0,19.11,14.19Z"/><path class="cls-2" d="M12.91,15.26a1.46,1.46,0,0,1,.18-.26c.91-.9,1.82-1.8,2.74-2.69a1.15,1.15,0,0,1,.23-.21.78.78,0,0,1,1,.05.77.77,0,0,1,.08,1,1.62,1.62,0,0,1-.18.19l-3.44,3.39a.83.83,0,0,1-1.33,0c-.43-.43-.87-.85-1.29-1.28a.76.76,0,0,1,.43-1.3.76.76,0,0,1,.71.25Z"/></g></g></svg>