<svg xmlns="http://www.w3.org/2000/svg" viewBox="0 0 28 28"><defs><style>.cls-1{fill:none;}.cls-2{fill:#0091ff;}</style></defs><g id="Layer_2" data-name="Layer 2"><g id="Layer_1-2" data-name="Layer 1"><rect class="cls-1" width="28" height="28"/><rect class="cls-1" x="0.73" y="0.73" width="26.55" height="26.55"/><path class="cls-2" d="M26.33,12.82,23.89,11a.26.26,0,0,1-.12-.34q.46-1.47.9-2.94a1.41,1.41,0,0,0-1.39-1.9l-3,0a.32.32,0,0,1-.36-.25c-.31-1-.64-1.9-1-2.84a1.41,1.41,0,0,0-2.27-.73L14.19,3.66a.26.26,0,0,1-.37,0L11.36,1.94a1.43,1.43,0,0,0-2.3.75l-1,2.86a.23.23,0,0,1-.26.2l-3,0A1.42,1.42,0,0,0,3.35,7.73c.28.94.56,1.88.86,2.81A.38.38,0,0,1,4,11L1.7,12.8a1.42,1.42,0,0,0,0,2.39L4.11,17c.14.11.18.19.12.36-.31,1-.6,2-.9,2.94A1.42,1.42,0,0,0,4.72,22.2l3,.05a.33.33,0,0,1,.38.27c.3.92.63,1.84,1,2.76a1.43,1.43,0,0,0,2.34.76c.81-.57,1.63-1.13,2.44-1.71a.26.26,0,0,1,.35,0l2.48,1.74A1.43,1.43,0,0,0,19,25.33c.32-.95.65-1.89,1-2.84a.29.29,0,0,1,.32-.24l3-.05a1.41,1.41,0,0,0,1.39-1.91c-.28-.94-.56-1.89-.86-2.82A.39.39,0,0,1,24,17c.79-.58,1.57-1.18,2.36-1.78A1.42,1.42,0,0,0,27,14,1.46,1.46,0,0,0,26.33,12.82Zm-.83,1.46-2.74,2.07a.66.66,0,0,0-.29.9c.33,1.11.67,2.22,1,3.33.1.32,0,.39-.3.4L19.72,21a.67.67,0,0,0-.78.57l-1.13,3.27c-.12.33-.2.36-.49.16l-2.82-2a.67.67,0,0,0-1,0l-2.84,2c-.28.2-.37.17-.48-.15-.38-1.09-.75-2.19-1.13-3.29A.68.68,0,0,0,8.3,21L4.81,21c-.32,0-.38-.08-.28-.38.33-1.11.67-2.21,1-3.31A2.3,2.3,0,0,0,5.6,17a.72.72,0,0,0-.34-.64L2.52,14.28c-.34-.25-.34-.31,0-.57l2.7-2a.7.7,0,0,0,.31-.95c-.34-1.1-.68-2.2-1-3.3-.1-.33,0-.39.3-.4L8.29,7c.47,0,.62-.12.78-.57L10.2,3.12c.11-.33.2-.36.49-.16l2.79,2c.45.31.6.31,1.06,0l2.79-2c.28-.19.36-.16.48.16.37,1.09.75,2.19,1.13,3.29a.68.68,0,0,0,.77.56L23.19,7c.33,0,.39.08.29.38-.33,1.11-.67,2.21-1,3.31-.15.49-.1.66.31,1l2.72,2.06C25.82,14,25.82,14,25.5,14.28ZM14,6.81A7.19,7.19,0,1,0,21.19,14,7.19,7.19,0,0,0,14,6.81ZM14,20a6,6,0,1,1,6-6A6,6,0,0,1,14,20Z"/><path class="cls-2" d="M13.06,14.92l1.54-1.54,1.57-1.57a.75.75,0,0,1,.87-.15.68.68,0,0,1,.37.74.92.92,0,0,1-.24.43q-1.76,1.78-3.54,3.55a.73.73,0,0,1-1.1,0l-1.71-1.71a.71.71,0,1,1,1-1Z"/></g></g></svg>