<?xml version="1.0" encoding="UTF-8"?>
<svg id="Layer_2" data-name="Layer 2" xmlns="http://www.w3.org/2000/svg" viewBox="0 0 40.43 40.5">
  <defs>
    <style>
      .cls-1 {
        fill: #0091ff;
        stroke: #0091ff;
        stroke-miterlimit: 10;
        stroke-width: .5px;
      }
    </style>
  </defs>
  <g id="Layer_1-2" data-name="Layer 1">
    <g>
      <path class="cls-1" d="m7.5.25c.83.22,1.53.63,1.95,1.42.71,1.36.14,3.02-1.26,3.65-.17.08-.31.12-.31.37.01,2.92,0,5.83,0,8.75,0,.05.01.1.02.17h4.66c0-.34,0-.69,0-1.03,0-.69.28-.98.97-.98,1.81,0,3.61,0,5.42,0,.14,0,.28,0,.47,0,0-.28,0-.54,0-.79,0-1.22,0-2.45,0-3.67,0-.23-.04-.36-.28-.47-1.17-.5-1.79-1.74-1.52-2.98.26-1.21,1.35-2.09,2.58-2.09,1.23,0,2.32.87,2.59,2.08.27,1.23-.35,2.48-1.51,2.99-.17.08-.3.13-.3.37.01,1.5,0,2.99,0,4.52h3.28c0-.13,0-.26,0-.4,0-1.6,0-3.2,0-4.8,0-.74.27-1.01,1.01-1.01,1.56,0,3.12,0,4.68,0,.15,0,.32,0,.46.05.35.11.54.37.54.73,0,.36-.19.62-.54.73-.16.05-.33.05-.5.06-1.35,0-2.7,0-4.07,0v4.69c.36,0,.7,0,1.05,0,.66,0,.95.3.95.96,0,1.81,0,3.62,0,5.43v.45c.11.01.21.03.31.03,1.39,0,2.78,0,4.17,0,.22,0,.34-.05.43-.27.51-1.18,1.73-1.8,2.96-1.54,1.22.26,2.11,1.37,2.1,2.61-.01,1.23-.9,2.32-2.1,2.57-1.24.26-2.44-.37-2.98-1.54-.05-.11-.17-.26-.26-.26-1.53-.02-3.06-.01-4.62-.01v3.28c.12,0,.26,0,.4,0,1.6,0,3.2,0,4.8,0,.76,0,1.03.27,1.03,1.04,0,3.1,0,6.2,0,9.3,0,.28.05.43.34.55.97.42,1.59,1.47,1.53,2.51-.07,1.14-.78,2.07-1.85,2.41-.13.04-.27.09-.4.14h-.78c-.83-.22-1.53-.63-1.95-1.42-.71-1.36-.14-3.02,1.26-3.65.17-.08.31-.12.31-.37-.01-2.92,0-5.83,0-8.75,0-.05-.01-.1-.02-.17h-4.66c0,.34,0,.69,0,1.03,0,.69-.28.98-.97.98-1.81,0-3.61,0-5.42,0h-.47v.79c0,1.22,0,2.45,0,3.67,0,.23.04.36.28.47,1.17.5,1.79,1.74,1.52,2.98-.26,1.21-1.35,2.09-2.58,2.09-1.23,0-2.32-.87-2.59-2.08-.27-1.23.35-2.48,1.51-2.99.17-.08.3-.13.3-.37-.01-1.5,0-2.99,0-4.52h-3.28v.4c0,1.6,0,3.2,0,4.8,0,.74-.27,1.01-1.01,1.01-1.56,0-3.12,0-4.68,0-.15,0-.32,0-.46-.05-.35-.11-.54-.37-.54-.73,0-.36.19-.62.54-.73.16-.05.33-.05.5-.06,1.35,0,2.7,0,4.07,0v-4.69c-.36,0-.7,0-1.05,0-.66,0-.95-.3-.95-.96,0-1.81,0-3.62,0-5.43,0-.14,0-.28,0-.45-.11-.01-.21-.03-.31-.03-1.39,0-2.78,0-4.17,0-.22,0-.34.05-.43.27-.51,1.18-1.73,1.8-2.96,1.54-1.22-.26-2.11-1.37-2.1-2.61.01-1.23.9-2.32,2.1-2.57,1.24-.26,2.44.37,2.98,1.54.05.11.17.26.26.26,1.53.02,3.06.01,4.62.01v-3.28h-.4c-1.6,0-3.2,0-4.8,0-.76,0-1.03-.27-1.03-1.04,0-3.1,0-6.2,0-9.3,0-.28-.05-.43-.34-.55-.97-.42-1.59-1.47-1.53-2.51.07-1.14.78-2.07,1.85-2.41.13-.04.27-.09.4-.14.26,0,.52,0,.78,0Zm18.77,26.08v-12.14h-12.12v12.14h12.12ZM7.12,1.82c-.59,0-1.09.49-1.1,1.08,0,.6.48,1.1,1.08,1.1.59,0,1.09-.49,1.1-1.08,0-.6-.48-1.1-1.08-1.1Zm26.2,34.69c-.59,0-1.09.49-1.1,1.08,0,.6.48,1.09,1.08,1.1.59,0,1.09-.49,1.1-1.08,0-.6-.48-1.09-1.08-1.1ZM21.3,5.24c0-.6-.5-1.09-1.1-1.08-.6,0-1.09.5-1.08,1.1,0,.6.5,1.09,1.1,1.08.59,0,1.09-.5,1.08-1.1ZM5.2,21.34c.59.02,1.1-.46,1.12-1.06.02-.59-.46-1.1-1.06-1.12-.59-.02-1.1.46-1.12,1.06-.02.6.46,1.11,1.06,1.12Zm29.99-2.18c-.59,0-1.09.49-1.1,1.08,0,.59.49,1.1,1.08,1.1.59,0,1.09-.48,1.1-1.08,0-.6-.48-1.1-1.08-1.1Zm-15.04,17.18c.59.03,1.11-.44,1.14-1.03.03-.59-.44-1.11-1.03-1.15-.59-.03-1.11.44-1.14,1.03-.03.59.44,1.12,1.03,1.15Z"/>
      <path class="cls-1" d="m40.18,7.52c-.23.86-.66,1.57-1.49,1.99-1.33.67-2.99.06-3.59-1.33-.59-1.36.09-2.99,1.47-3.51,1.41-.53,2.99.2,3.45,1.6.05.16.11.32.16.48v.78Zm-1.56-.39c0-.6-.49-1.09-1.09-1.09-.59,0-1.09.49-1.09,1.09,0,.6.49,1.09,1.09,1.09.59,0,1.09-.49,1.09-1.09Z"/>
      <path class="cls-1" d="m5.55,33.39c-.01,1.45-1.24,2.66-2.68,2.63-1.45-.02-2.65-1.25-2.62-2.69.03-1.44,1.23-2.62,2.66-2.62,1.45,0,2.65,1.23,2.64,2.67Zm-1.56-.03c0-.6-.5-1.09-1.1-1.08-.59,0-1.09.5-1.08,1.1,0,.6.5,1.09,1.1,1.08.59,0,1.09-.5,1.08-1.1Z"/>
      <path class="cls-1" d="m7.46,32.6c.41,0,.76.35.77.77,0,.42-.34.78-.76.78-.42,0-.76-.35-.77-.77,0-.42.35-.78.76-.78Z"/>
      <path class="cls-1" d="m32.98,6.35c.42,0,.76.36.75.79,0,.42-.36.77-.78.77-.42,0-.76-.36-.75-.79,0-.43.35-.77.77-.76Z"/>
      <path class="cls-1" d="m23.8,20.25c0,.87,0,1.74,0,2.62,0,.69-.28.98-.97.98-1.74,0-3.48,0-5.22,0-.69,0-.97-.28-.97-.98,0-1.74,0-3.49,0-5.23,0-.69.28-.98.97-.98,1.74,0,3.48,0,5.22,0,.69,0,.97.28.97.98,0,.87,0,1.74,0,2.62Zm-1.58-2.01h-4.01v4.01h4.01v-4.01Z"/>
    </g>
  </g>
</svg>