<?xml version="1.0" encoding="UTF-8"?>
<svg id="Layer_2" data-name="Layer 2" xmlns="http://www.w3.org/2000/svg" viewBox="0 0 40.42 40.5">
  <defs>
    <style>
      .cls-1 {
        fill: #0091ff;
        stroke: #0091ff;
        stroke-miterlimit: 10;
        stroke-width: .5px;
      }
    </style>
  </defs>
  <g id="Layer_1-2" data-name="Layer 1">
    <g>
      <path class="cls-1" d="m25.05,40.25c-.52-.18-.69-.57-.68-1.09.01-.86,0-1.72,0-2.58,0-.12-.07-.32-.15-.34-.11-.03-.3.03-.39.12-.63.61-1.24,1.23-1.85,1.84-.53.52-.96.53-1.48,0-1.08-1.07-2.15-2.15-3.22-3.23-.53-.54-.53-.96.01-1.51.6-.61,1.22-1.21,1.81-1.83.09-.09.17-.29.13-.38-.04-.09-.24-.16-.37-.17-.86-.01-1.71,0-2.57,0-.76,0-1.07-.31-1.07-1.07,0-1.51,0-3.02,0-4.53,0-.77.31-1.08,1.09-1.08.86,0,1.72,0,2.57,0,.12,0,.32-.08.34-.15.03-.11-.03-.3-.12-.39-.6-.63-1.23-1.24-1.84-1.86-.52-.53-.52-.96,0-1.48,1.07-1.08,2.15-2.16,3.22-3.23.52-.52.97-.52,1.48,0,.61.6,1.21,1.22,1.83,1.82.1.1.28.17.41.15.07-.01.15-.24.15-.37.01-.85,0-1.69,0-2.54,0-.8.31-1.1,1.11-1.1,1.49,0,2.99,0,4.48,0,.75,0,1.06.31,1.07,1.07,0,.86,0,1.72,0,2.58,0,.13.07.33.17.37.09.04.29-.04.38-.13.62-.6,1.22-1.21,1.82-1.82.54-.53.98-.54,1.51,0,1.07,1.07,2.13,2.13,3.2,3.2.55.56.55.97-.01,1.53-.6.61-1.22,1.21-1.81,1.83-.08.09-.17.28-.13.35.06.1.23.18.36.18.86.02,1.71.02,2.57,0,.52,0,.91.16,1.08.69v5.31c-.18.52-.57.69-1.08.69-.8-.01-1.61-.01-2.41,0-.18,0-.36.11-.53.17.08.16.13.35.25.47.57.59,1.15,1.16,1.73,1.74.54.54.54.96,0,1.51-1.06,1.07-2.13,2.14-3.19,3.2-.55.55-.97.54-1.53-.02-.61-.61-1.21-1.22-1.82-1.82-.09-.08-.28-.17-.35-.13-.1.06-.18.23-.19.36-.02.86-.02,1.72,0,2.58,0,.52-.16.91-.68,1.09h-5.3Zm9.04-3.72c.79-.8,1.57-1.57,2.36-2.36-.59-.59-1.22-1.22-1.85-1.86-.4-.41-.44-.67-.21-1.2.14-.33.28-.67.42-1.01.2-.51.44-.68,1.01-.69.6,0,1.2,0,1.79,0,.29,0,.59,0,.89,0v-3.3c-.12,0-.23-.02-.33-.02-.77,0-1.53,0-2.3,0-.64,0-.85-.16-1.08-.75-.1-.27-.21-.53-.33-.79-.33-.72-.3-.92.26-1.48.59-.6,1.19-1.19,1.75-1.75-.8-.8-1.57-1.57-2.35-2.36-.61.61-1.24,1.24-1.88,1.87-.4.4-.67.44-1.19.22-.33-.14-.67-.28-1.01-.42-.51-.2-.68-.44-.69-1.01,0-.6,0-1.2,0-1.8,0-.29,0-.59,0-.89h-3.29c0,.12-.02.23-.02.33,0,.77,0,1.54,0,2.3,0,.64-.16.86-.74,1.08-.27.1-.53.21-.79.33-.72.33-.91.3-1.48-.26-.59-.6-1.19-1.19-1.75-1.75-.8.8-1.57,1.57-2.35,2.36.61.61,1.24,1.24,1.87,1.88.4.41.44.67.21,1.2-.14.33-.28.67-.42,1.01-.2.51-.44.68-1.01.69-.6,0-1.2,0-1.79,0-.29,0-.59,0-.89,0v3.29c.12,0,.23.02.33.02.77,0,1.53,0,2.3,0,.64,0,.86.16,1.08.75.1.27.21.53.33.79.33.72.3.92-.26,1.48-.59.6-1.19,1.19-1.75,1.74.8.81,1.57,1.58,2.36,2.37.62-.62,1.26-1.26,1.9-1.91.33-.34.7-.41,1.13-.2.34.16.69.3,1.04.44.51.21.68.44.69,1.01,0,.44,0,.89,0,1.33,0,.45,0,.9,0,1.36h3.31c0-.16,0-.3,0-.45,0-.73,0-1.46,0-2.19,0-.64.16-.86.75-1.08.3-.12.6-.24.9-.38.58-.26.84-.22,1.29.23.62.62,1.22,1.24,1.8,1.82Z"/>
      <path class="cls-1" d="m40.17,18.61h-1.63c0-.21-.02-.37-.02-.54,0-4.47,0-8.93,0-13.4,0-1.1-.38-2-1.42-2.48-.39-.18-.85-.27-1.28-.27-10.41-.01-20.81-.01-31.22,0-1.65,0-2.69,1.06-2.69,2.72,0,10.4,0,20.8,0,31.2,0,1.71,1.04,2.74,2.75,2.75,4.18,0,8.37,0,12.55,0,.15,0,.31,0,.51,0v1.66H3.84c-.23-.07-.47-.13-.7-.2-1.78-.58-2.89-2.17-2.89-4.14,0-10.44,0-20.87,0-31.31,0-.13,0-.26,0-.39.08-1.19.57-2.16,1.47-2.95.61-.54,1.35-.8,2.11-1,10.92,0,21.83,0,32.75,0,.06.02.11.06.17.07,1.01.19,1.81.7,2.47,1.48.51.6.74,1.31.94,2.05v14.77Z"/>
      <path class="cls-1" d="m21.85,12.73v1.66h-6.6v2.52h1.6v1.71c-.7-.03-1.41-.01-2.09-.12-.66-.1-1.13-.75-1.19-1.43-.01-.14-.01-.29-.01-.43,0-4.2,0-8.41,0-12.61v-.41h1.64v9.12h6.65Z"/>
      <path class="cls-1" d="m11.89,31.92c0,.78,0,1.56,0,2.34,0,.67-.32.98-.98.99-1.56,0-3.12,0-4.67,0-.68,0-.99-.33-.99-1.02,0-1.55,0-3.1,0-4.64,0-.69.31-1,1-1,1.54,0,3.09,0,4.63,0,.72,0,1,.3,1.01,1.03,0,.77,0,1.53,0,2.3Zm-1.69,1.65v-3.29h-3.27v3.29h3.27Z"/>
      <path class="cls-1" d="m25.22,12.72V3.61h1.61v9.11h-1.61Z"/>
      <path class="cls-1" d="m31.85,27.74c0,2.31-1.84,4.17-4.15,4.17-2.31,0-4.16-1.85-4.15-4.16,0-2.3,1.83-4.14,4.13-4.15,2.3-.01,4.16,1.83,4.17,4.14Zm-4.16-2.48c-1.36,0-2.48,1.12-2.49,2.48,0,1.37,1.13,2.51,2.5,2.51,1.36,0,2.48-1.12,2.49-2.48,0-1.37-1.13-2.51-2.5-2.51Z"/>
    </g>
  </g>
</svg>