<?xml version="1.0" encoding="UTF-8"?>
<svg id="Layer_2" data-name="Layer 2" xmlns="http://www.w3.org/2000/svg" viewBox="0 0 40 40">
  <defs>
    <style>
      .cls-1 {
        stroke: #0091ff;
        stroke-miterlimit: 10;
        stroke-width: .75px;
      }

      .cls-1, .cls-2 {
        fill: none;
      }

      .cls-3 {
        fill: #0091ff;
      }
    </style>
  </defs>
  <g id="Layer_1-2" data-name="Layer 1">
    <g>
      <rect class="cls-2" width="40" height="40"/>
      <g>
        <path class="cls-3" d="m38.39,17.99c-.55-3.15-3.33-5.74-6.51-6.04-.28-.03-.4-.11-.43-.4-.12-1.16-.44-2.27-.94-3.33-1.58-3.34-4.16-5.5-7.73-6.43-.72-.19-1.47-.25-2.2-.37h-1.16c-.11.02-.21.05-.32.06-1.26.08-2.49.36-3.63.89-3.81,1.74-6.12,4.66-6.87,8.8-.12.69-.12.69-.79.8-.08.01-.17.03-.25.05-4.26.84-6.97,5.09-5.85,9.26.8,2.97,2.76,4.8,5.74,5.51.68.16,1.4.15,2.1.22v-1.18c-.47-.03-.93-.04-1.38-.1-3.18-.39-5.65-3.27-5.53-6.41.13-3.42,2.7-6.1,6.02-6.27.82-.04.93-.15.99-.95.09-1.19.39-2.34.9-3.42,2.08-4.44,6.71-6.81,11.5-5.86,3.09.61,5.43,2.35,7.01,5.08.78,1.34,1.2,2.79,1.31,4.33.05.61.23.77.83.82.48.04.96.1,1.43.21,2.77.7,4.75,3.27,4.75,6.15,0,2.9-1.98,5.49-4.78,6.16-.69.17-1.42.2-2.15.3v1.06c3.27.33,6.65-1.89,7.66-5.04.19-.59.29-1.22.43-1.82v-1.31c-.05-.26-.1-.52-.14-.78Zm-3.39,13.38c-.53.33-.84.81-1.05,1.39-1.53,0-3.05,0-4.57,0-.52,0-.7-.18-.7-.7,0-1.18,0-2.37,0-3.55v-.37h-1.16v.38c0,1.17,0,2.34,0,3.52,0,1.2.68,1.89,1.88,1.89,1.41,0,2.82,0,4.23,0,.24,0,.34.07.44.3.51,1.28,2.01,1.81,3.22,1.16.7-.38,1.05-1,1.23-1.74v-.58c-.04-.14-.09-.27-.13-.41-.44-1.43-2.13-2.06-3.4-1.27Zm1.17,3.13c-.63-.02-1.13-.55-1.11-1.19.01-.63.54-1.14,1.17-1.13.63.01,1.14.54,1.14,1.17,0,.64-.56,1.17-1.2,1.15Zm-15.61-.52v-8.73h-1.16v8.74c-.09.04-.16.06-.23.09-1.33.52-1.88,2.04-1.19,3.3.38.68.99,1.02,1.72,1.2h.58c.14-.04.27-.09.41-.13,1.44-.45,2.07-2.17,1.25-3.44-.33-.51-.8-.82-1.38-1.02Zm-.58,3.42c-.64,0-1.17-.56-1.14-1.2.02-.63.55-1.13,1.18-1.12.63.01,1.14.55,1.13,1.18-.01.63-.54,1.15-1.17,1.14Zm-8.68-10.58c0,1.75,0,3.51,0,5.26,0,.5-.18.68-.67.69-.3,0-.6,0-.91,0h-3.69c-.04-.1-.07-.18-.1-.25-.41-1.04-1.48-1.64-2.56-1.45-1.1.2-1.91,1.16-1.92,2.27,0,1.09.8,2.07,1.87,2.27,1.11.21,2.18-.36,2.59-1.42.08-.21.18-.27.39-.27,1.4,0,2.8,0,4.2,0,1.28,0,1.95-.66,1.95-1.93,0-1.74,0-3.48,0-5.22v-.37h-1.16v.42Zm-7.52,7.68c-.64,0-1.18-.54-1.17-1.18.01-.63.53-1.14,1.17-1.14.63,0,1.14.52,1.14,1.16,0,.63-.51,1.15-1.14,1.16Zm17.1-15.86c1.03-.41,1.59-1.51,1.37-2.59-.22-1.07-1.17-1.84-2.25-1.85-1.09,0-2.05.78-2.27,1.86-.22,1.09.35,2.18,1.38,2.58.26.1.3.23.3.47,0,1.51,0,3.02,0,4.53v.39h1.16c0-1.66,0-3.28,0-4.9,0-.26.05-.39.32-.5Zm-.88-.97c-.63,0-1.16-.5-1.17-1.13-.01-.64.52-1.18,1.16-1.18.63,0,1.15.52,1.15,1.15,0,.63-.51,1.15-1.14,1.16Zm7.51,8.89v.38h1.16v-.43c0-1.33,0-2.66,0-3.99,0-.21.05-.31.26-.39,1.06-.41,1.63-1.48,1.42-2.6-.2-1.07-1.18-1.87-2.27-1.87-1.1,0-2.05.79-2.26,1.88-.22,1.1.37,2.18,1.43,2.59.21.08.26.19.26.39,0,1.34,0,2.68,0,4.02Zm-.58-6.6c.01-.63.54-1.14,1.17-1.13.63,0,1.14.54,1.14,1.17,0,.63-.53,1.15-1.15,1.15-.64,0-1.17-.54-1.16-1.18Zm-12.77-.3c-.16-1.09-1.02-1.89-2.13-1.99-.99-.08-1.99.57-2.32,1.5-.37,1.03-.04,2.25.91,2.71.65.32.72.72.68,1.31-.04.55,0,1.11,0,1.67,0,.1.01.21.02.32h1.14c0-.89,0-1.73,0-2.58,0-.26.05-.4.32-.5.98-.38,1.55-1.42,1.4-2.45Zm-2.3,1.48c-.63,0-1.15-.53-1.15-1.16,0-.63.52-1.15,1.15-1.16.63,0,1.15.51,1.16,1.14,0,.65-.52,1.18-1.17,1.17Zm12.84,9.58s-.06-.03-.09-.05v-6.6h-1.18v6.6s-.07.04-.1.06c-.19-.25-.38-.5-.56-.73-.31.31-.57.57-.85.85.57.57,1.13,1.16,1.71,1.72.24.23.54.25.78.01.59-.57,1.15-1.17,1.71-1.74-.25-.26-.5-.53-.82-.86-.21.25-.4.49-.6.73Zm-8.36-8.81c-.23-.23-.54-.28-.78-.04-.59.58-1.15,1.19-1.73,1.79.24.24.49.5.83.84.2-.26.4-.51.6-.76.03.02.07.04.1.06v6.61h1.16v-6.63l.12-.07c.19.25.39.49.54.69.32-.29.59-.53.87-.79-.58-.58-1.13-1.15-1.7-1.7Z"/>
        <path class="cls-1" d="m38.39,17.99c-.55-3.15-3.33-5.74-6.51-6.04-.28-.03-.4-.11-.43-.4-.12-1.16-.44-2.27-.94-3.33-1.58-3.34-4.16-5.5-7.73-6.43-.72-.19-1.47-.25-2.2-.37h-1.16c-.11.02-.21.05-.32.06-1.26.08-2.49.36-3.63.89-3.81,1.74-6.12,4.66-6.87,8.8-.12.69-.12.69-.79.8-.08.01-.17.03-.25.05-4.26.84-6.97,5.09-5.85,9.26.8,2.97,2.76,4.8,5.74,5.51.68.16,1.4.15,2.1.22v-1.18c-.47-.03-.93-.04-1.38-.1-3.18-.39-5.65-3.27-5.53-6.41.13-3.42,2.7-6.1,6.02-6.27.82-.04.93-.15.99-.95.09-1.19.39-2.34.9-3.42,2.08-4.44,6.71-6.81,11.5-5.86,3.09.61,5.43,2.35,7.01,5.08.78,1.34,1.2,2.79,1.31,4.33.05.61.23.77.83.82.48.04.96.1,1.43.21,2.77.7,4.75,3.27,4.75,6.15,0,2.9-1.98,5.49-4.78,6.16-.69.17-1.42.2-2.15.3v1.06c3.27.33,6.65-1.89,7.66-5.04.19-.59.29-1.22.43-1.82v-1.31c-.05-.26-.1-.52-.14-.78Zm-3.39,13.38c-.53.33-.84.81-1.05,1.39-1.53,0-3.05,0-4.57,0-.52,0-.7-.18-.7-.7,0-1.18,0-2.37,0-3.55v-.37h-1.16v.38c0,1.17,0,2.34,0,3.52,0,1.2.68,1.89,1.88,1.89,1.41,0,2.82,0,4.23,0,.24,0,.34.07.44.3.51,1.28,2.01,1.81,3.22,1.16.7-.38,1.05-1,1.23-1.74v-.58c-.04-.14-.09-.27-.13-.41-.44-1.43-2.13-2.06-3.4-1.27Zm1.17,3.13c-.63-.02-1.13-.55-1.11-1.19.01-.63.54-1.14,1.17-1.13.63.01,1.14.54,1.14,1.17,0,.64-.56,1.17-1.2,1.15Zm-15.61-.52v-8.73h-1.16v8.74c-.09.04-.16.06-.23.09-1.33.52-1.88,2.04-1.19,3.3.38.68.99,1.02,1.72,1.2h.58c.14-.04.27-.09.41-.13,1.44-.45,2.07-2.17,1.25-3.44-.33-.51-.8-.82-1.38-1.02Zm-.58,3.42c-.64,0-1.17-.56-1.14-1.2.02-.63.55-1.13,1.18-1.12.63.01,1.14.55,1.13,1.18-.01.63-.54,1.15-1.17,1.14Zm-8.68-10.58c0,1.75,0,3.51,0,5.26,0,.5-.18.68-.67.69-.3,0-.6,0-.91,0h-3.69c-.04-.1-.07-.18-.1-.25-.41-1.04-1.48-1.64-2.56-1.45-1.1.2-1.91,1.16-1.92,2.27,0,1.09.8,2.07,1.87,2.27,1.11.21,2.18-.36,2.59-1.42.08-.21.18-.27.39-.27,1.4,0,2.8,0,4.2,0,1.28,0,1.95-.66,1.95-1.93,0-1.74,0-3.48,0-5.22v-.37h-1.16v.42Zm-7.52,7.68c-.64,0-1.18-.54-1.17-1.18.01-.63.53-1.14,1.17-1.14.63,0,1.14.52,1.14,1.16,0,.63-.51,1.15-1.14,1.16Zm17.1-15.86c1.03-.41,1.59-1.51,1.37-2.59-.22-1.07-1.17-1.84-2.25-1.85-1.09,0-2.05.78-2.27,1.86-.22,1.09.35,2.18,1.38,2.58.26.1.3.23.3.47,0,1.51,0,3.02,0,4.53v.39h1.16c0-1.66,0-3.28,0-4.9,0-.26.05-.39.32-.5Zm-.88-.97c-.63,0-1.16-.5-1.17-1.13-.01-.64.52-1.18,1.16-1.18.63,0,1.15.52,1.15,1.15,0,.63-.51,1.15-1.14,1.16Zm7.51,8.89v.38h1.16v-.43c0-1.33,0-2.66,0-3.99,0-.21.05-.31.26-.39,1.06-.41,1.63-1.48,1.42-2.6-.2-1.07-1.18-1.87-2.27-1.87-1.1,0-2.05.79-2.26,1.88-.22,1.1.37,2.18,1.43,2.59.21.08.26.19.26.39,0,1.34,0,2.68,0,4.02Zm-.58-6.6c.01-.63.54-1.14,1.17-1.13.63,0,1.14.54,1.14,1.17,0,.63-.53,1.15-1.15,1.15-.64,0-1.17-.54-1.16-1.18Zm-12.77-.3c-.16-1.09-1.02-1.89-2.13-1.99-.99-.08-1.99.57-2.32,1.5-.37,1.03-.04,2.25.91,2.71.65.32.72.72.68,1.31-.04.55,0,1.11,0,1.67,0,.1.01.21.02.32h1.14c0-.89,0-1.73,0-2.58,0-.26.05-.4.32-.5.98-.38,1.55-1.42,1.4-2.45Zm-2.3,1.48c-.63,0-1.15-.53-1.15-1.16,0-.63.52-1.15,1.15-1.16.63,0,1.15.51,1.16,1.14,0,.65-.52,1.18-1.17,1.17Zm12.84,9.58s-.06-.03-.09-.05v-6.6h-1.18v6.6s-.07.04-.1.06c-.19-.25-.38-.5-.56-.73-.31.31-.57.57-.85.85.57.57,1.13,1.16,1.71,1.72.24.23.54.25.78.01.59-.57,1.15-1.17,1.71-1.74-.25-.26-.5-.53-.82-.86-.21.25-.4.49-.6.73Zm-8.36-8.81c-.23-.23-.54-.28-.78-.04-.59.58-1.15,1.19-1.73,1.79.24.24.49.5.83.84.2-.26.4-.51.6-.76.03.02.07.04.1.06v6.61h1.16v-6.63l.12-.07c.19.25.39.49.54.69.32-.29.59-.53.87-.79-.58-.58-1.13-1.15-1.7-1.7Z"/>
      </g>
    </g>
  </g>
</svg>