<?xml version="1.0" encoding="UTF-8"?>
<svg id="Layer_2" data-name="Layer 2" xmlns="http://www.w3.org/2000/svg" viewBox="0 0 48 48">
  <defs>
    <style>
      .cls-1 {
        fill: none;
      }

      .cls-2 {
        fill: #b3b3b3;
      }
    </style>
  </defs>
  <g id="Layer_1-2" data-name="Layer 1">
    <g>
      <rect class="cls-1" width="48" height="48"/>
      <path class="cls-2" d="m38.29,27.14c-.36-.1-.39-.28-.39-.58,0-8.05,0-16.11.02-24.16,0-.87-.23-1.51-1.04-1.88H3.11c-.83.31-1.11.92-1.11,1.79.01,13.4,0,26.81,0,40.21,0,1.29.48,1.78,1.76,1.78,7.99,0,15.99,0,23.98,0,.31,0,.54.07.77.29,1.65,1.59,3.61,2.52,5.88,2.82.12.02.23.06.35.09h1.83c.94-.24,1.93-.37,2.82-.73,3.9-1.61,6.17-4.54,6.54-8.75.44-5.13-2.73-9.52-7.67-10.86Zm-10.64,3.53c-.45.55-.78,1.2-1.2,1.78-.1.14-.33.25-.5.26-1.94.02-3.88,0-5.82.01-.75,0-1.27.34-1.49.93-.34.96.34,1.88,1.42,1.89,1.6.01,3.21,0,4.82,0h.57c-.28,2.05,0,4,.83,5.91H4.86V3.38h30.2c0,.15.03.31.03.46,0,7.49,0,14.98,0,22.47,0,.39-.09.5-.5.55-2.84.3-5.16,1.6-6.96,3.81Zm8.01,13.98c-4.16-.02-7.51-3.39-7.5-7.54,0-4.14,3.42-7.53,7.55-7.51,4.15.02,7.52,3.42,7.5,7.56-.02,4.15-3.4,7.51-7.55,7.49Zm-4.31-20.35c.62-.24.96-.9.84-1.56-.12-.64-.68-1.12-1.37-1.12-1.82-.01-3.64,0-5.45,0h0c-1.74,0-3.48,0-5.22,0-.94,0-1.59.58-1.59,1.4,0,.81.63,1.41,1.54,1.41,3.53.01,7.06,0,10.59,0,.22,0,.46-.04.67-.12Zm-11.3-11.01c1.77.02,3.54,0,5.31,0,.75,0,1.5,0,2.24,0,1.08,0,2.17.02,3.25-.02.89-.03,1.49-.81,1.32-1.67-.13-.68-.7-1.12-1.51-1.12-3.53,0-7.06,0-10.58,0-.09,0-.18,0-.27.01-.57.06-1.04.44-1.2.99-.28.94.38,1.79,1.43,1.8Zm-9.7.85c.81.81,1.55.81,2.38-.01,1.41-1.4,2.81-2.81,4.21-4.21.11-.11.22-.22.31-.34.64-.85.19-2.05-.86-2.24-.56-.1-1,.14-1.39.53-1.14,1.15-2.29,2.29-3.5,3.5-.33-.35-.61-.67-.92-.97-.64-.62-1.47-.65-2.05-.09-.59.57-.56,1.44.07,2.08.58.59,1.16,1.17,1.75,1.75Zm.12,11.24c.66.65,1.46.65,2.11,0,1.5-1.48,2.99-2.97,4.47-4.47.62-.62.64-1.48.09-2.05-.58-.6-1.43-.58-2.08.06-1.06,1.04-2.1,2.09-3.14,3.14-.13.13-.21.3-.34.51-.41-.43-.69-.75-.99-1.05-.64-.63-1.51-.65-2.08-.07-.56.57-.54,1.41.08,2.05.62.63,1.24,1.26,1.88,1.88Zm4.6,4.66c-1.07,1.05-2.12,2.11-3.18,3.18-.12.12-.18.29-.31.5-.42-.45-.69-.77-1-1.07-.65-.63-1.51-.66-2.08-.07-.56.57-.54,1.41.08,2.05.62.64,1.24,1.26,1.88,1.88.68.66,1.47.64,2.15-.03,1.49-1.47,2.97-2.95,4.44-4.44.63-.64.65-1.51.07-2.08-.57-.56-1.42-.53-2.05.08Zm25.19,2.68c-.36.08-.74.29-1.01.55-1.65,1.61-3.27,3.26-4.95,4.94-.73-.73-1.4-1.41-2.08-2.09-.13-.13-.26-.26-.41-.37-.6-.46-1.38-.42-1.88.08-.53.53-.59,1.34-.06,1.9,1.14,1.19,2.31,2.36,3.5,3.5.54.52,1.3.53,1.83,0,2.1-2.07,4.18-4.16,6.26-6.25.01-.01.02-.02.03-.04.36-.49.43-1.01.13-1.55-.3-.54-.78-.82-1.37-.69Z"/>
    </g>
  </g>
</svg>