<?xml version="1.0" encoding="UTF-8"?>
<svg id="Layer_2" data-name="Layer 2" xmlns="http://www.w3.org/2000/svg" viewBox="0 0 40 40">
  <defs>
    <style>
      .cls-1 {
        fill: #0091ff;
      }

      .cls-2 {
        fill: none;
      }
    </style>
  </defs>
  <g id="Layer_1-2" data-name="Layer 1">
    <g>
      <rect class="cls-2" width="40" height="40"/>
      <path class="cls-1" d="m31.75,23.5c-.31,0-.48-.09-.61-.38-.29-.64-.62-1.26-.96-1.95h2.75v-6.99h5.84c-.28-2.65-1.34-4.76-3.7-6.13.12-.16.23-.29.33-.43,2.06-2.79.5-6.74-2.9-7.38-.09-.02-.17-.05-.26-.07h-1.16c-.58.21-1.2.34-1.73.64-2.56,1.46-3.12,4.8-1.22,7.06.04.05.08.1.14.18-2.35,1.35-3.44,3.47-3.7,6.12h6.02v4.67c-.48,0-.96.01-1.43-.01-.1,0-.23-.14-.28-.25-.31-.59-.61-1.19-.9-1.8-.1-.2-.21-.28-.44-.28-4.94,0-9.89,0-14.83,0-.24,0-.37.08-.47.3-.29.61-.59,1.21-.91,1.79-.06.11-.24.22-.37.23-.47.03-.95.01-1.45.01v-4.66h5.93c-.2-1.27-.44-2.47-1.09-3.56-.65-1.08-1.54-1.93-2.64-2.57.69-.79,1.13-1.66,1.24-2.68.26-2.45-1.37-4.65-3.79-5.11-.09-.02-.17-.05-.25-.08h-1.16c-.77.18-1.51.41-2.16.89-2.22,1.64-2.58,4.68-.81,6.8.04.05.08.1.14.19-2.35,1.36-3.44,3.47-3.7,6.12h5.92v6.98h2.89c-.14.29-.25.53-.36.76-.08.16-.18.32-.24.49-.25.78-.7,1.12-1.59,1.19-1.6.13-2.86,1.62-2.89,3.23-.03,1.61-.02,3.23,0,4.84.02,1.82,1.26,3.21,3.06,3.47.13.02.25.04.43.06,0,.55,0,1.1,0,1.65,0,1.85,1.14,2.99,3,2.98.6,0,1.22.02,1.81-.08,1.24-.21,2.14-1.3,2.17-2.57.02-.65,0-1.31,0-1.99h9.35c0,.15,0,.29,0,.44.02.69-.03,1.41.09,2.08.23,1.23,1.34,2.09,2.58,2.11.7.01,1.4.04,2.08-.07,1.3-.21,2.2-1.33,2.22-2.64.01-.63,0-1.26,0-1.9.31-.06.6-.09.89-.17,1.52-.4,2.57-1.7,2.6-3.27.03-1.6.03-3.2,0-4.8-.03-1.97-1.54-3.45-3.51-3.47Zm-.09-21c1.28,0,2.34,1.06,2.34,2.34,0,1.29-1.05,2.33-2.35,2.32-1.3,0-2.33-1.06-2.31-2.35.02-1.27,1.06-2.31,2.32-2.31Zm-4.03,9.31c.97-1.48,2.26-2.28,3.97-2.3,1.76-.02,3.1.78,4.1,2.3h-8.08ZM8.32,2.5c1.28,0,2.34,1.04,2.34,2.33,0,1.29-1.04,2.33-2.33,2.33-1.29,0-2.34-1.06-2.33-2.34.01-1.27,1.06-2.31,2.32-2.32Zm-4.01,9.31c.95-1.47,2.24-2.26,3.93-2.3,1.78-.04,3.13.77,4.14,2.3H4.3Zm7.36,11.37c.68-1.36,1.36-2.72,2.04-4.08.1-.2.22-.27.44-.27,3.99,0,7.97,0,11.96.01.13,0,.33.09.39.2.73,1.42,1.44,2.85,2.15,4.28.02.03.02.07.04.15H11.55c.04-.12.07-.21.11-.3Zm1.42,13.94c0,.13-.26.34-.41.36-.47.05-.95.03-1.43.02-.29,0-.46-.17-.46-.46,0-.6,0-1.21,0-1.85h2.32c0,.66.02,1.3-.02,1.94Zm16.34-.04c-.01.14-.24.38-.38.39-.5.05-1,.03-1.51.01-.25,0-.41-.16-.41-.42,0-.62,0-1.23,0-1.88h2.32c0,.65.02,1.27-.02,1.9Zm3.51-5.64c0,.95-.44,1.39-1.4,1.39-5.86,0-11.72,0-17.58,0-1.74,0-3.48,0-5.23,0-1.02,0-1.44-.43-1.45-1.42,0-1.41,0-2.81,0-4.22,0-.92.45-1.37,1.38-1.37,3.82,0,7.64,0,11.46,0s7.56,0,11.34,0c1.04,0,1.46.42,1.46,1.44,0,1.39,0,2.79,0,4.18Zm-17.48-.97h9.29v-2.28h-9.29v2.28Zm-5.82,0h3.44v-2.3h-3.44v2.3Zm17.49,0h3.46v-2.29h-3.46v2.29Z"/>
    </g>
  </g>
</svg>