<?xml version="1.0" encoding="UTF-8"?>
<svg id="Layer_2" data-name="Layer 2" xmlns="http://www.w3.org/2000/svg" viewBox="0 0 48 48">
  <defs>
    <style>
      .cls-1 {
        fill: none;
      }

      .cls-2 {
        fill: #b3b3b3;
      }
    </style>
  </defs>
  <g id="Layer_1-2" data-name="Layer 1">
    <g>
      <rect class="cls-1" width="48" height="48"/>
      <path class="cls-2" d="m20.25,39.78c-1.01-.26-2.05-.45-3.04-.77-8.49-2.79-13.52-12.15-11.21-20.8,2.34-8.75,10.72-14.27,19.63-12.73,6.54,1.13,11.01,4.98,13.44,11.16.44,1.11.64,2.32.88,3.5.21,1.02,1.03,1.7,1.98,1.55.99-.16,1.62-1.06,1.43-2.1-.13-.71-.22-1.43-.42-2.11-2.45-8.45-7.96-13.61-16.57-15.41-.75-.16-1.53-.22-2.29-.33h-2.59c-.79.11-1.59.2-2.38.34-4.71.84-8.65,3.08-11.84,6.63-2.79,3.11-4.47,6.76-5.08,10.9-.08.55-.14,1.11-.21,1.66v2.59c.02.11.06.22.07.33.13,1.76.45,3.49,1.07,5.14,2.85,7.63,8.29,12.21,16.26,13.79.51.1,1.01.06,1.44-.26.57-.42.84-1,.72-1.69-.13-.73-.57-1.21-1.3-1.4Zm24.67-5.29c-1.04-.31-1.96.33-2.21,1.52-.95,4.57-5.5,7.41-10.04,6.28-4.47-1.11-7.14-5.79-5.86-10.24,1.16-4.04,5.41-6.86,10.04-5.65,1.03.27,1.93-.26,2.18-1.23.24-.94-.29-1.82-1.3-2.1-1.63-.45-3.28-.52-4.95-.25-5.25.85-9.24,5.22-9.71,10.64-.44,5.15,2.82,10.17,7.75,11.85.94.32,1.95.46,2.92.68h1.9c.11-.03.22-.07.33-.08,5.06-.53,9.27-4.45,10.17-9.46.16-.88-.36-1.72-1.22-1.97Zm-29.62-6.79c-.35.35-.59.74-.62,1.24-.05.71.35,1.37,1,1.68.69.32,1.42.19,2.01-.41,2.09-2.12,4.18-4.24,6.27-6.37.38-.39.56-.85.55-1.4,0-2.1,0-4.21,0-6.31s0-4.24,0-6.35c0-.84-.45-1.48-1.18-1.73-1.16-.38-2.27.46-2.27,1.74,0,3.89,0,7.78,0,11.67,0,.28-.07.48-.27.68-1.84,1.85-3.66,3.71-5.49,5.56Zm26.52-.21c-2.26,2.24-4.52,4.48-6.78,6.72-.11.11-.23.21-.37.35-.72-.72-1.41-1.43-2.11-2.12-.78-.78-1.82-.82-2.54-.12-.72.71-.68,1.78.1,2.57.76.77,1.52,1.53,2.29,2.29,1.38,1.37,3.16,1.37,4.55,0,1.88-1.86,3.76-3.73,5.64-5.59.59-.59,1.2-1.16,1.77-1.77.94-1.01.46-2.58-.87-2.88-.66-.15-1.21.09-1.68.56Z"/>
    </g>
  </g>
</svg>