<?xml version="1.0" encoding="UTF-8"?>
<svg id="Layer_2" data-name="Layer 2" xmlns="http://www.w3.org/2000/svg" viewBox="0 0 40 40">
  <defs>
    <style>
      .cls-1 {
        fill: #0091ff;
      }

      .cls-2 {
        fill: none;
      }
    </style>
  </defs>
  <g id="Layer_1-2" data-name="Layer 1">
    <g>
      <rect class="cls-2" width="40" height="40"/>
      <g>
        <path class="cls-1" d="m20.23.46c.23.16.47.29.53.6.07.37-.11.73-.46.86-.36.14-.77,0-.96-.33-.18-.32-.1-.72.19-.96.08-.06.16-.12.24-.17.15,0,.31,0,.46,0Z"/>
        <path class="cls-1" d="m27.68,7.99c-.06,3.82-2.5,6.82-6.06,7.64-4.24.97-8.57-2.01-9.19-6.33-.49-3.39,1.24-6.66,4.26-8.07.51-.24.95-.13,1.15.28.2.4.05.81-.44,1.07-.66.35-1.26.75-1.79,1.28-2.87,2.88-2.08,7.87,1.54,9.72,3.64,1.86,7.97-.17,8.87-4.15.58-2.58-.72-5.41-3.06-6.65-.17-.09-.34-.17-.5-.28-.39-.25-.51-.65-.31-1.02.2-.37.6-.5,1.02-.31.8.35,1.51.83,2.14,1.44,1.56,1.52,2.34,3.38,2.37,5.39Z"/>
        <path class="cls-1" d="m23.98,5.99c0,.25-.12.44-.28.6-1.39,1.39-2.77,2.77-4.16,4.15-.39.38-.81.38-1.21,0-.68-.67-1.36-1.34-2.03-2.02-.36-.36-.37-.81-.07-1.12.31-.32.77-.31,1.15.05.46.44.91.89,1.35,1.35.16.17.25.17.42,0,1.13-1.14,2.27-2.27,3.4-3.4.27-.27.57-.45.95-.31.31.11.48.36.49.7Z"/>
        <path class="cls-1" d="m1.5,39.54c12.34,0,24.67,0,37.01,0,.49,0,.87-.12,1.06-.62v-2.52c-.1-.15-.14-.31,0-.46v-.08c-.06-.02-.06-.07-.07-.12-.22-1.41-.94-2.49-2.09-3.32-.6-.43-1.27-.68-1.98-.84.56-1.16.63-1.38.63-2.15,0-1.44,0-2.87,0-4.31,0-.65-.28-.94-.92-.94-1.06,0-2.12-.01-3.17,0-1.71.02-2.92,1.24-2.94,2.94,0,.72,0,1.45,0,2.17-.01.74.13,1.44.54,2.07.14.22.03.25-.14.29-.29.06-.58.12-.83.26-.28.16-.44.11-.65-.16-.88-1.17-2.05-1.96-3.48-2.33-.35-.09-.7-.15-1.08-.24.72-.87,1.13-1.82,1.13-2.92,0-2.05,0-4.09,0-6.14,0-.6-.29-.9-.88-.9-1.49,0-2.98-.01-4.47,0-1.93.01-3.47,1.41-3.62,3.23-.11,1.41-.05,2.82-.02,4.23,0,.19.06.37.1.56.16.73.54,1.36,1.01,1.95-.09.02-.13.04-.18.05-1.87.26-3.37,1.14-4.49,2.66-.11.14-.2.15-.35.08-.32-.15-.65-.28-1.01-.33-.25-.04-.24-.14-.12-.32.36-.56.52-1.18.52-1.84,0-1.46,0-2.92,0-4.39,0-.63-.29-.92-.9-.92-1.07,0-2.14-.01-3.21,0-1.69.02-2.9,1.24-2.92,2.92,0,.55.01,1.09,0,1.64-.03.99.03,1.96.66,2.81-.12.04-.2.07-.29.09-1.8.46-3,1.58-3.64,3.31-.1.27-.08.57-.24.82v.15c.06.15.06.31,0,.46v2.59c.24.42.6.54,1.07.54Zm30.47-13.82c.75,0,1.5,0,2.25,0,.21,0,.3.02.31.28.01,1.3-.15,1.48-1.45,1.48h-.88c-.47,0-.94-.01-1.41,0-.2,0-.25-.05-.25-.25-.01-.91.53-1.5,1.44-1.51Zm-.79,3.28c.72,0,1.45,0,2.17,0,.38,0,.76,0,1.15-.15.08.86,0,1.63-.68,2.19-.62.52-1.33.63-2.07.32-.74-.31-1.15-.9-1.21-1.7-.05-.66-.04-.66.63-.66Zm1.78,4.07q-.41.55-.86,0h.86Zm-3.89.3c.21-.06.41-.13.61-.21.18-.08.3-.02.43.12.57.58,1.15,1.15,1.73,1.73.51.51.89.51,1.4,0,.56-.56,1.12-1.11,1.67-1.67.16-.16.28-.22.53-.16,1.52.4,2.55,1.69,2.6,3.31.01.42-.01.84,0,1.26.01.23-.08.26-.28.26-1.36,0-2.72,0-4.09,0s-2.72,0-4.09,0c-.26,0-.31-.07-.31-.32-.01-1.03.07-2.06-.09-3.08-.05-.33-.13-.65-.24-.96-.05-.14-.03-.24.12-.28Zm-12.06-9.97c.03-.28,0-.56.03-.84.14-1.04.99-1.79,2.08-1.8,1.2-.02,2.39,0,3.59,0,.21,0,.28.05.28.27-.02.43,0,.86,0,1.3-.02.74-.55,1.29-1.28,1.36-.05,0-.1.01-.15.01-.7,0-1.4,0-2.1,0-.71,0-1.43-.01-2.14,0-.24,0-.31-.06-.29-.3Zm2.41,5.74c-1.14-.2-2.14-1.22-2.34-2.37-.07-.42-.04-.84-.06-1.25-.02-.26.07-.32.32-.31,1.19.01,2.39,0,3.59,0,.7,0,1.4.03,2.06-.35-.01,1,.11,1.97-.4,2.86-.62,1.06-1.89,1.65-3.16,1.43Zm1.89,1.61c-.43.43-.81.8-1.19,1.19-.15.15-.21.03-.3-.06-.36-.36-.72-.71-1.14-1.13h2.63Zm-9,5.79c.19-.22.67-.06,1.02-.06,1.26,0,2.52,0,3.78,0,.62,0,.98-.45.83-.99-.1-.35-.4-.53-.87-.54-1.45,0-2.9,0-4.35,0h-.38c.22-2.02,2.04-3.86,4.04-4.14.19-.03.28.06.39.17.84.84,1.67,1.67,2.51,2.51.56.56.9.56,1.46,0,.84-.83,1.68-1.67,2.51-2.51.15-.15.28-.2.5-.16,2.06.34,3.87,2.3,3.99,4.39.05.85.01,1.7.04,2.55,0,.22-.09.24-.27.24-.69,0-1.38,0-2.06,0-4.25,0-8.51,0-12.76,0-.36,0-.45-.11-.42-.44.03-.35-.11-.82.06-1.03Zm-5.39-10.82c.75,0,1.5.01,2.25,0,.24,0,.29.06.29.3,0,1.3-.15,1.47-1.46,1.47h-.88c-.47,0-.94,0-1.41,0-.18,0-.23-.04-.24-.23-.03-.92.53-1.52,1.45-1.53Zm-.85,3.28c.75,0,1.5,0,2.25,0,.37,0,.74-.01,1.12-.15.08.8.02,1.54-.59,2.11-.61.57-1.33.72-2.11.41-.78-.31-1.19-.92-1.25-1.75-.04-.63-.03-.63.59-.63Zm1.8,4.05c-.3.58-.39.58-.85,0h.85Zm-5.91,4.65c.04-.71-.06-1.42.15-2.12.39-1.27,1.22-2.07,2.5-2.42.19-.05.3-.01.43.12.57.58,1.15,1.15,1.73,1.73.51.51.89.5,1.4,0,.51-.5,1.01-1.01,1.51-1.51.45-.45.45-.44,1.05-.22.3.11.4.22.27.57-.29.81-.29,1.67-.28,2.52,0,.43-.02.87,0,1.3.02.3-.09.35-.36.35-1.36-.01-2.72,0-4.09,0s-2.67,0-4.01,0c-.24,0-.33-.05-.31-.31Z"/>
      </g>
    </g>
  </g>
</svg>