<?xml version="1.0" encoding="UTF-8"?>
<svg id="Layer_2" data-name="Layer 2" xmlns="http://www.w3.org/2000/svg" viewBox="0 0 48 48">
  <defs>
    <style>
      .cls-1 {
        fill: none;
      }

      .cls-2 {
        fill: #b3b3b3;
      }
    </style>
  </defs>
  <g id="Layer_1-2" data-name="Layer 1">
    <g>
      <rect class="cls-1" width="48" height="48"/>
      <path class="cls-2" d="m45.35,21.02c-.15-.09-.29-.32-.31-.5-.19-1.19-.25-2.41-.52-3.58C41.9,5.48,30.32-1.6,18.91,1.24,9.99,3.46,3.51,11.27,2.99,20.45c-.02.31-.11.47-.38.62-1.44.8-2.42,2.02-2.5,3.66-.12,2.28-.16,4.58,0,6.86.16,2.19,1.85,3.8,4.01,4.21,2.26.42,4.03-1.02,4.03-3.32,0-2.91,0-5.82,0-8.73,0-1.53-.87-2.71-2.25-3.13-.2-.06-.4-.1-.61-.16C5.9,10.61,14.31,2.47,24.86,2.94c10.04.44,17.41,8.58,17.83,17.52-.13.04-.26.08-.4.11-1.4.34-2.41,1.51-2.43,2.94-.03,3.1-.03,6.2,0,9.3.01,1.35.94,2.51,2.23,2.9.21.06.43.11.66.16,0,.84.02,1.67,0,2.49-.07,2.16-1.77,4.11-3.92,4.33-1.31.14-2.64.08-3.96.08-.12,0-.28-.17-.34-.3-.62-1.23-1.59-1.94-2.97-1.99-1.3-.05-2.61-.06-3.92,0-1.93.1-3.34,1.65-3.29,3.52.06,1.91,1.54,3.35,3.49,3.38,1.15.01,2.29,0,3.44,0,1.48,0,2.55-.69,3.22-2,.12-.24.24-.32.5-.32,1.07.01,2.14.02,3.2,0,3.39-.07,6.25-2.5,6.74-5.82.17-1.12.09-2.28.11-3.42,0-.27.08-.42.33-.56,1.71-.96,2.59-2.45,2.61-4.4.02-1.8.02-3.59,0-5.39-.03-1.98-.91-3.46-2.63-4.45Zm-39.49,2.75c0,1.46,0,2.92,0,4.39,0,1.43,0,2.86,0,4.29,0,.86-.36,1.18-1.21,1.11-1.26-.11-2.31-1.22-2.33-2.55-.03-1.89-.03-3.78,0-5.67.02-1.38,1.14-2.52,2.46-2.57.71-.03,1.08.3,1.08,1.01Zm25.45,21.33c-.57.01-1.15,0-1.72,0s-1.15,0-1.72,0c-.73-.01-1.23-.5-1.23-1.18,0-.65.48-1.14,1.21-1.15,1.16-.02,2.33-.02,3.49,0,.74.01,1.21.51,1.2,1.2-.02.66-.5,1.12-1.22,1.13Zm14.37-14.06c-.03,1.35-1.11,2.44-2.4,2.53-.77.05-1.14-.27-1.14-1.04,0-1.45,0-2.89,0-4.34,0-1.45,0-2.89,0-4.34,0-.82.38-1.15,1.2-1.07,1.26.11,2.32,1.22,2.34,2.54.03,1.91.04,3.81,0,5.72Zm-20.26.3c1.93.01,3.86.01,5.78,0,2.94,0,5.04-2.01,5.08-4.93.05-3.24.04-6.49,0-9.73-.04-2.9-2.12-4.92-5.02-4.93-4.84-.01-9.69-.01-14.53,0-2.9,0-4.98,2.03-5.02,4.94-.04,3.23-.02,6.45,0,9.68,0,1.82.77,3.25,2.32,4.24.78.5,1.66.7,2.62.74,0,.65,0,1.26,0,1.88,0,.35,0,.7.05,1.05.15.93.69,1.56,1.57,1.87.89.3,1.71.13,2.39-.53,1.35-1.31,2.68-2.63,4-3.96.22-.22.44-.32.75-.31Zm-5.98,2.28c-.12.12-.25.23-.37.34-.04-.02-.08-.04-.12-.06,0-1.14,0-2.28,0-3.42,0-1.05-.38-1.42-1.44-1.43-.46,0-.93,0-1.38-.06-1.14-.18-1.97-1.08-2.09-2.22-.02-.2-.03-.41-.03-.62,0-3.07,0-6.13,0-9.2,0-1.9,1.01-2.9,2.92-2.91,4.71,0,9.43,0,14.14,0,1.91,0,2.93,1.01,2.93,2.9,0,3.07,0,6.13,0,9.2,0,1.89-1.03,2.91-2.93,2.91-2.07,0-4.14.01-6.21,0-.57,0-1,.16-1.4.57-1.33,1.35-2.68,2.67-4.03,4.01Zm6.26-11.91c0-.9-.77-1.66-1.67-1.68-.92-.02-1.71.76-1.72,1.68,0,.92.78,1.7,1.7,1.7.92,0,1.71-.79,1.7-1.71Zm-7.31-1.68c-.92.03-1.65.78-1.66,1.69,0,.93.78,1.7,1.7,1.69.93,0,1.68-.78,1.67-1.72-.01-.93-.79-1.69-1.72-1.67Zm11.21,3.38c.91-.02,1.66-.78,1.66-1.69,0-.93-.77-1.7-1.7-1.7-.93,0-1.69.77-1.68,1.71,0,.93.79,1.7,1.71,1.68Z"/>
    </g>
  </g>
</svg>