<?xml version="1.0" encoding="UTF-8"?><svg xmlns="http://www.w3.org/2000/svg" viewBox="0 0 40 40"><defs><style>.d{fill:#fff;}.e{fill:none;}</style></defs><g id="a"/><g id="b"><g id="c"><g><rect class="e" width="40" height="40"/><g><path class="d" d="M28.91,.21c.25,.07,.5,.12,.74,.2,1.74,.54,2.97,2.13,2.98,3.96,.02,3.98,.01,7.96,0,11.94,0,.28,.07,.46,.3,.64,3.53,2.71,3.53,7.98,0,10.69-.23,.18-.32,.35-.31,.64,.01,2.34,0,4.69,0,7.03,0,2.68-1.81,4.48-4.49,4.48-5.46,0-10.92,0-16.38,0-2.13,0-3.83-1.36-4.26-3.39-.08-.39-.1-.79-.1-1.19,0-4.15,0-8.29,0-12.44v-.54c-.48,0-.91,0-1.35,0-1.07,0-1.63-.55-1.64-1.61,0-3.35,0-6.7,0-10.05,0-1.04,.56-1.6,1.6-1.6,.44,0,.88,0,1.38,0,0-.17,0-.32,0-.46,0-1.42-.04-2.84,.03-4.25,.11-2.08,1.48-3.57,3.53-3.97,.05,0,.09-.04,.13-.06,5.94,0,11.88,0,17.82,0ZM8.95,8.97c.21,0,.36,0,.52,0,3.05,0,6.09,0,9.14,0,1.03,0,1.61,.58,1.61,1.6,0,3.35,0,6.7,0,10.05,0,1.02-.58,1.6-1.61,1.61q-.65,0-.77,.66c-.12,.72-.69,.98-1.3,.58-.52-.34-1.02-.71-1.54-1.04-.17-.11-.4-.19-.6-.19-1.68-.01-3.36,0-5.03,0-.12,0-.25,.01-.39,.02v9.51H31.06v-3.07c-.13,.04-.24,.06-.35,.09-1.26,.36-2.53,.4-3.78-.01-.62-.2-1.17-.23-1.79-.05-.79,.23-1.26-.28-1.03-1.07,.09-.29,.03-.46-.18-.67-1.97-2.02-2.46-5.08-1.22-7.62,1.24-2.55,3.95-4.07,6.75-3.77,.53,.06,1.06,.19,1.6,.28,0-.04,.02-.09,.02-.14,0-3.8,0-7.6,0-11.4,0-1.18-.9-2.25-2.07-2.48-.45-.09-.92-.08-1.39-.08-5.27,0-10.53,0-15.8,0-1.7,0-2.85,1.13-2.87,2.82,0,.67,0,1.34,0,2.01,0,.77,0,1.54,0,2.37Zm-2.96,11.71h.49c2.66,0,5.32,.01,7.98,0,.52,0,.96,.1,1.36,.42,.2,.16,.42,.28,.64,.43,.18-.7,.37-.85,1.07-.85,.37,0,.74,0,1.11,0V10.53H5.99v10.14Zm25.07,12.68H8.95c0,.66,0,1.29,0,1.92,0,1.85,1.12,2.96,2.96,2.96,5.41,0,10.82,0,16.22,0,.13,0,.26,0,.39,0,1.29-.06,2.42-1.07,2.53-2.35,.07-.83,.01-1.67,.01-2.53Zm-5.12-6.5c.25,.07,.53,.12,.8,.23,1.91,.74,3.71,.55,5.32-.74,1.58-1.26,2.2-2.95,1.88-4.94-.35-2.21-2.21-4-4.37-4.27-2.4-.3-4.57,.89-5.53,3.02-.94,2.08-.4,4.55,1.32,6.06,.22,.19,.39,.43,.58,.64Z"/><path class="d" d="M20.02,3.52c2.49,0,4.98,0,7.47,0,.15,0,.32-.01,.46,.03,.34,.1,.54,.36,.55,.71,0,.34-.16,.6-.48,.72-.16,.06-.35,.07-.53,.07-4.98,0-9.96,0-14.94,0-.63,0-.97-.25-1-.72-.03-.46,.28-.81,.77-.82,.55-.01,1.11,0,1.66,0,2.01,0,4.02,0,6.04,0Z"/><path class="d" d="M15.82,16.3c-.43,0-.77-.33-.78-.75,0-.43,.36-.8,.79-.79,.42,.01,.76,.36,.76,.78,0,.42-.34,.76-.77,.76Z"/><path class="d" d="M12.31,16.3c-.43,0-.76-.33-.76-.76,0-.42,.34-.77,.75-.78,.42,0,.8,.37,.79,.79-.01,.42-.35,.75-.78,.75Z"/><path class="d" d="M8.8,16.3c-.43,0-.75-.34-.75-.77,0-.42,.34-.77,.76-.77,.43,0,.78,.36,.77,.8-.01,.43-.35,.75-.78,.74Z"/><path class="d" d="M20.05,34.98c.14,0,.28-.01,.43,0,.39,.04,.67,.33,.69,.7,.02,.38-.21,.74-.59,.79-.37,.05-.75,.05-1.11,0-.39-.05-.61-.41-.58-.79,.03-.38,.31-.66,.7-.7,.15-.01,.31,0,.46,0Z"/></g></g></g></g></svg>