<?xml version="1.0" encoding="UTF-8"?><svg id="Layer_2" xmlns="http://www.w3.org/2000/svg" viewBox="0 0 40 40"><defs><style>.cls-1{fill:#0091ff;}.cls-2{fill:none;}</style></defs><g id="Layer_1-2"><g><rect class="cls-2" width="40" height="40"/><path class="cls-1" d="M34.85,2.73c-9.71,0-19.43,0-29.14,0-1.63,0-2.81,.95-3.19,2.55-.01,.05-.04,.11-.06,.16v30.06c.05,.19,.1,.38,.16,.56,.42,1.28,1.61,2.14,2.98,2.15,1.97,0,3.94,0,5.91,0,7.76,0,15.51,0,23.27,0,1.58,0,2.81-.89,3.19-2.33,.08-.29,.11-.59,.11-.89,0-9.68,0-19.36,0-29.04,0-1.87-1.36-3.22-3.23-3.22Zm1.15,10.82c0,7.11,0,14.21,0,21.32,0,.86-.39,1.25-1.25,1.25-9.65,0-19.29,0-28.94,0-.88,0-1.26-.39-1.26-1.28,0-7.1,0-14.19,0-21.29v-.38h31.45v.37Zm0-2.49H4.56c0-.12-.02-.23-.02-.34,0-1.57,0-3.13,0-4.7,0-.81,.41-1.21,1.22-1.21,9.67,0,19.34,0,29,0,.82,0,1.22,.4,1.22,1.21,0,1.57,0,3.13,0,4.7v.34Zm-18.8,21.93c.49-.03,.78-.35,.99-.83,1.58-3.71,3.18-7.42,4.77-11.14,.47-1.08,.93-2.17,1.39-3.26,.2-.49,.06-.98-.33-1.27-.38-.28-.9-.29-1.25,.03-.17,.16-.31,.38-.4,.59-1.6,3.71-3.19,7.42-4.78,11.13-.46,1.08-.94,2.17-1.39,3.26-.3,.73,.2,1.48,1.01,1.47Zm-8.97-7.46c.92,.74,1.84,1.48,2.77,2.22,.78,.62,1.55,1.25,2.34,1.86,.66,.51,1.56,.18,1.7-.61,.08-.46-.12-.8-.47-1.08-1.35-1.07-2.7-2.15-4.09-3.27,.14-.12,.25-.2,.36-.29,1.25-1,2.5-1.99,3.74-3,.55-.44,.64-1.07,.25-1.55-.39-.47-1.01-.51-1.55-.08-1.68,1.34-3.37,2.69-5.05,4.04-.64,.52-.64,1.24,.01,1.76Zm19.07-3.11c.91,.73,1.82,1.46,2.77,2.22-.14,.12-.24,.2-.34,.28-1.26,1.01-2.52,2.01-3.77,3.02-.53,.43-.63,1.04-.25,1.53,.38,.48,1.01,.53,1.54,.11,1.69-1.35,3.39-2.7,5.08-4.06,.63-.5,.62-1.24,0-1.74-1.69-1.36-3.38-2.71-5.08-4.06-.52-.41-1.14-.37-1.52,.09-.39,.47-.31,1.11,.21,1.53,.45,.37,.9,.72,1.36,1.09Zm5.38-15.52c-2.01,0-4.03,0-6.04,0-.68,0-1.15,.43-1.15,1.03,0,.62,.47,1.05,1.17,1.05,1,0,1.99,0,2.99,0s2.01,0,3.02,0c.7,0,1.17-.43,1.17-1.05,0-.61-.47-1.03-1.15-1.03Zm-24.94,0c-.58,0-1.06,.49-1.05,1.06,.01,.56,.49,1.03,1.06,1.02,.56,0,1.03-.48,1.03-1.05s-.47-1.04-1.04-1.04Zm4.18,0c-.56,0-1.04,.46-1.05,1.02-.01,.56,.45,1.05,1.01,1.06,.58,.02,1.07-.46,1.07-1.04,0-.56-.47-1.04-1.03-1.05Zm4.17,0c-.56,0-1.04,.46-1.05,1.02-.01,.58,.47,1.07,1.05,1.06,.56,0,1.03-.48,1.04-1.04,0-.56-.47-1.04-1.03-1.04Z"/></g></g></svg>