<?xml version="1.0" encoding="UTF-8"?><svg id="Layer_2" xmlns="http://www.w3.org/2000/svg" viewBox="0 0 40 40"><defs><style>.cls-1{fill:none;}.cls-2{fill:#0091ff;stroke:#0091ff;stroke-miterlimit:10;stroke-width:.46px;}</style></defs><g id="Layer_1-2"><g><rect class="cls-1" width="40" height="40"/><g><path class="cls-2" d="M.95,33.21c0-8.68,0-17.36,0-26.04,.02-.05,.05-.09,.06-.14,.51-2.37,2.11-3.67,4.52-3.68,9.65,0,19.29,0,28.94,0,.31,0,.62,0,.93,.05,2.2,.39,3.66,2.13,3.66,4.39,0,7.74,0,15.47,0,23.21,0,.6,0,1.19,0,1.79-.02,.72-.21,1.4-.58,2.01-.91,1.48-2.25,2.16-3.98,2.16-9.66,0-19.32,0-28.98,0-.16,0-.32,0-.48-.02-1.85-.16-3.11-1.11-3.8-2.82-.12-.29-.18-.61-.27-.91ZM2.23,12c0,.15,0,.24,0,.34,0,6.7,0,13.39,0,20.09,0,.32,.03,.65,.11,.95,.41,1.48,1.54,2.29,3.16,2.29,9.65,0,19.29,0,28.94,0,2.05,0,3.31-1.27,3.31-3.32,0-6.65,0-13.29,0-19.94,0-.13,0-.26,0-.42H2.23Zm.07-1.34H37.74c0-1.08,.02-2.13-.01-3.18-.01-.37-.12-.77-.28-1.1-.6-1.22-1.62-1.74-2.96-1.74-9.66,0-19.32,0-28.98,0-.1,0-.2,0-.3,0-1.46,.08-2.73,1.06-2.88,2.43-.13,1.17-.03,2.37-.03,3.58Z"/><path class="cls-2" d="M18.89,24.14c0,2.26,0,4.51,0,6.77,0,.68-.21,.89-.89,.89-3.73,0-7.46,0-11.19,0-.67,0-.88-.21-.88-.89,0-4.49,0-8.98,0-13.46,0-.71,.19-.9,.91-.9,3.72,0,7.44,0,11.16,0,.71,0,.9,.19,.9,.9,0,2.23,0,4.46,0,6.69Zm-1.29-6.29H7.23v12.63h10.37v-12.63Z"/><path class="cls-2" d="M28.15,22.48c-1.55,0-3.1,0-4.65,0-.09,0-.17,0-.26,0-.47-.02-.76-.25-.77-.63-.01-.39,.29-.66,.78-.66,1.42,0,2.85,0,4.27,0,1.8,0,3.59,0,5.39,0,.64,0,.94,.2,.95,.63,0,.45-.3,.67-.95,.67-1.59,0-3.17,0-4.76,0Z"/><path class="cls-2" d="M28.18,30.51c1.57,0,3.15,0,4.72,0,.15,0,.3,0,.44,.02,.31,.05,.48,.24,.51,.55,.03,.32-.11,.56-.42,.66-.13,.04-.27,.05-.4,.05-3.25,0-6.49,0-9.74,0-.15,0-.3-.02-.44-.07-.27-.11-.4-.34-.38-.62,.02-.3,.19-.51,.5-.57,.14-.03,.3-.03,.44-.03,1.59,0,3.17,0,4.76,0Z"/><path class="cls-2" d="M28.16,16.54c1.64,0,3.27,0,4.91,0,.29,0,.55,.04,.71,.31,.23,.38,.02,.87-.42,.95-.13,.03-.27,.02-.41,.02-3.18,0-6.37,0-9.55,0-.07,0-.15,0-.22,0-.41-.02-.69-.27-.7-.63,0-.37,.28-.65,.71-.65,1.66,0,3.32,0,4.98,0Z"/><path class="cls-2" d="M28.15,27.13c-1.57,0-3.15,0-4.72,0-.14,0-.27,0-.41-.02-.33-.05-.51-.26-.54-.57-.03-.3,.12-.54,.41-.63,.15-.05,.32-.06,.47-.06,3.21,0,6.42,0,9.63,0,.14,0,.28,0,.4,.04,.33,.1,.49,.33,.46,.67-.03,.32-.22,.52-.54,.56-.13,.02-.27,.01-.41,.01-1.59,0-3.17,0-4.76,0Z"/><path class="cls-2" d="M8.24,7.66c0-1.09,.9-1.98,1.99-1.98,1.1,0,2.03,.92,2.01,2.01-.02,1.09-.92,1.99-2,1.99-1.1,0-2.01-.92-2-2.02Zm2.7,0c0-.39-.34-.71-.72-.7-.37,.01-.71,.36-.7,.73,.01,.39,.33,.69,.73,.69,.39,0,.69-.32,.69-.72Z"/><path class="cls-2" d="M16.88,7.68c0,1.09-.89,1.99-1.98,2-1.09,.02-2.02-.91-2.02-2.01,0-1.1,.92-2,2.02-2,1.09,0,1.98,.91,1.98,2Zm-1.29,.04c.02-.37-.3-.72-.67-.75-.38-.02-.72,.29-.74,.67-.02,.39,.25,.7,.62,.73,.41,.04,.76-.25,.78-.66Z"/><path class="cls-2" d="M7.59,7.67c0,1.11-.91,2.03-2,2.01-1.09-.01-1.98-.9-1.98-2,0-1.11,.89-2.01,2-2,1.09,0,1.98,.89,1.98,1.99Zm-1.99,.71c.38,0,.71-.33,.7-.71,0-.37-.34-.71-.72-.71-.38,0-.7,.33-.7,.72,0,.39,.32,.7,.71,.7Z"/></g></g></g></svg>