<?xml version="1.0" encoding="UTF-8"?><svg id="Layer_2" xmlns="http://www.w3.org/2000/svg" viewBox="0 0 48 48"><defs><style>.cls-1{fill:#b3b3b3;stroke:#b3b3b3;stroke-miterlimit:10;stroke-width:1.2px;}.cls-2{fill:none;}</style></defs><g id="Layer_1-2"><g><rect class="cls-2" width="48" height="48"/><path class="cls-1" d="M28.88,17.24c.23,0,.43,0,.64,0,2.75,0,5.5-.04,8.25,.02,4.84,.11,8.68,3.97,8.75,8.82,.05,3.16,.05,6.32,0,9.48-.11,6.13-5.05,11.03-11.17,11.04-10.52,.03-21.05,.01-31.57,0-1.41,0-2.35-.93-2.35-2.36,0-8.21,0-16.42,0-24.63,0-1.46,.91-2.37,2.39-2.38,2.82-.01,5.64,0,8.46,0,.21,0,.42,0,.7,0,.1-.65,.21-1.29,.3-1.92,.47-3.3,.94-6.6,1.4-9.9,.3-2.14,1.86-3.75,4-3.96,2.05-.2,4.08-.07,5.99,.87,3.48,1.72,5.51,5.53,4.96,9.36-.25,1.75-.5,3.49-.75,5.24-.01,.08,0,.17,0,.31Zm-11.66,24.82c.22,.01,.37,.02,.53,.02,5.8,0,11.6,0,17.39,0,.39,0,.78,0,1.16-.07,3.41-.59,5.73-3.33,5.75-6.82,.02-2.9,.02-5.79,0-8.69,0-.56-.08-1.13-.25-1.66-.62-1.93-2.32-3.09-4.5-3.09-3.65,0-7.3,0-10.94,0-1.51,0-2.53-1.17-2.32-2.63,.33-2.32,.69-4.64,.99-6.97,.11-.87,.24-1.79,.07-2.62-.52-2.56-2.73-4-5.89-3.52-.01,.06-.04,.13-.05,.19-.46,3.18-.92,6.35-1.36,9.53-.21,1.54-.52,3.08-.53,4.62-.06,7.01-.03,14.02-.03,21.03v.69ZM5.96,21.77v20.27h6.7V21.77H5.96Z"/></g></g></svg>