<svg xmlns="http://www.w3.org/2000/svg" viewBox="0 0 28 28"><defs><style>.cls-1{fill:none;}.cls-2{fill:#0091ff;}</style></defs><g id="Layer_2" data-name="Layer 2"><g id="Layer_1-2" data-name="Layer 1"><rect class="cls-1" width="28" height="28"/><path class="cls-2" d="M27.44,19.52c-.09.26-.15.52-.26.77a2.39,2.39,0,0,1-1,1.1c-.27.16-.48.12-.61-.1s-.06-.4.19-.57a1.79,1.79,0,0,0,.71-2.37,13.94,13.94,0,0,1-.56-1.69A19.87,19.87,0,0,0,24.49,13c-.46-.89-.93-1.79-1.4-2.67a1,1,0,0,0-1.72,0,.7.7,0,0,0,0,.76c.22.39.42.79.63,1.19s.08.47-.14.58-.42,0-.56-.22-.4-.76-.6-1.14a.77.77,0,0,0-.9-.44.93.93,0,0,0-.79.71.87.87,0,0,0,.05.48c.19.4.41.79.61,1.19s.13.51-.1.63-.44,0-.6-.28l-.54-1a.77.77,0,0,0-.87-.51,1,1,0,0,0-.84.66.81.81,0,0,0,0,.71c.18.33.35.67.52,1s.16.54-.08.67-.43.05-.61-.3Q15,11.89,13.37,8.83a.41.41,0,0,0,0-.09.87.87,0,0,0-1.21-.49,1.06,1.06,0,0,0-.55,1.32c0,.1.1.21.15.31q1.79,3.42,3.58,6.84l.06.11a.42.42,0,0,1,0,.55.41.41,0,0,1-.53,0l-1.56-.82-.46-.24a.91.91,0,0,0-1.31.41.93.93,0,0,0,.43,1.33l4.25,2.11,1.6.79A2.78,2.78,0,0,1,19,22.2a1.78,1.78,0,0,0,2.49.77l2.09-1.1.21-.1a.36.36,0,0,1,.49.17.35.35,0,0,1-.13.52c-.88.46-1.73,1-2.64,1.35a2.5,2.5,0,0,1-3.14-1.13,2.27,2.27,0,0,0-1.1-1c-.38-.17-.75-.37-1.18-.58v.35c0,1.36,0,2.73,0,4.1a1.75,1.75,0,0,1-1.25,2h-13A1.65,1.65,0,0,1,.56,25.55V2A1.51,1.51,0,0,1,1.23.81,4,4,0,0,1,1.82.53H3.29a.44.44,0,0,1,.23.53c-.08.24-.27.27-.49.26H2.09a.7.7,0,0,0-.72.6c0,.42,0,.85,0,1.28H15.3V2.27c0-.68-.27-.95-1-.95H5.5c-.21,0-.41,0-.49-.25A.45.45,0,0,1,5.23.53h9.61a1.77,1.77,0,0,1,1.25,2c0,3.13,0,6.26,0,9.38v.38a1.89,1.89,0,0,1,2.11-.77c.53-1.09,1-1.34,2.31-1.22,0-.07.07-.15.11-.23a1.67,1.67,0,0,1,1.51-1,1.55,1.55,0,0,1,1.59.81c.75,1.43,1.53,2.84,2.14,4.33s1.07,3.11,1.59,4.68ZM14.06,16.1l-.13-.28c-.92-1.75-1.84-3.5-2.74-5.26a.42.42,0,0,0-.44-.26H3.34a.92.92,0,0,1-1-.93q0-1.39,0-2.79a.91.91,0,0,1,.95-.94H13.37a.91.91,0,0,1,1,1,7.53,7.53,0,0,1,0,1A3.78,3.78,0,0,0,15,10.2c.1.15.17.33.26.49l0,0V4H1.37v18.2H15.3c0-.46,0-.9,0-1.34a.3.3,0,0,0-.22-.33c-.63-.29-1.27-.59-1.89-.9l-1.8-.91-.2.18A4.06,4.06,0,0,1,8.52,20a4.25,4.25,0,1,1,4-4.75.23.23,0,0,0,.08.17Zm1.23,7H1.35v2.69c0,.65.27.93.92.93H14.44c.5,0,.83-.25.84-.71C15.3,25,15.29,24,15.29,23.06ZM10.8,18.19a1.78,1.78,0,0,1,.75-2.59c.2-.09.21-.19.19-.36a3.46,3.46,0,1,0-5.29,3.47A3.41,3.41,0,0,0,10.8,18.19Zm-.12-8.67a1.82,1.82,0,0,1,2.86-1.79c0-.35,0-.68,0-1s-.08-.3-.3-.29H3.4c-.24,0-.32.09-.31.32,0,.8,0,1.6,0,2.4,0,.37,0,.38.38.38h7.21Z"/><path class="cls-2" d="M8.31,25.91c-.38,0-.75,0-1.13,0a1,1,0,0,1-1-1A1,1,0,0,1,7.19,23.8q1.14,0,2.28,0a1.06,1.06,0,0,1,.86,1.66.88.88,0,0,1-.74.44c-.42,0-.85,0-1.28,0Zm0-1.32h-1c-.18,0-.35,0-.35.26s.14.27.33.27H9.41c.18,0,.32-.05.33-.25s-.15-.28-.34-.28Z"/><path class="cls-2" d="M7.49,16.68,8,16.13l2-2c.21-.21.42-.23.59-.06s.18.4,0,.61c-.9.91-1.8,1.82-2.71,2.72-.25.25-.44.25-.7,0l-1-1c-.21-.22-.22-.41,0-.6s.4-.17.62.05Z"/></g></g></svg>