<svg xmlns="http://www.w3.org/2000/svg" viewBox="0 0 28 28"><defs><style>.cls-1,.cls-3{fill:none;}.cls-2{fill:#0091ff;}.cls-3{stroke:#0091ff;stroke-miterlimit:10;stroke-width:0.25px;}</style></defs><g id="Layer_2" data-name="Layer 2"><g id="Layer_1-2" data-name="Layer 1"><rect class="cls-1" width="28" height="28"/><rect class="cls-1" x="0.25" y="0.25" width="27.49" height="27.49"/><path class="cls-2" d="M25.47,15c-1.31-1.54-2.69-3-4.07-4.5a2,2,0,0,0-3.38.69,1,1,0,0,1-.08.14,2.11,2.11,0,0,0-3.22,1.08,2,2,0,0,0-1.85-.29,2.13,2.13,0,0,0-1.36,1.41,1.91,1.91,0,0,0-.23-.31c-.61-.61-1.2-1.25-1.85-1.8a2,2,0,0,0-3.16.94,2.06,2.06,0,0,0,.59,2.22l6.93,6.93a1.1,1.1,0,0,0,.26.15l-.07.09a.32.32,0,0,1-.09,0c-1.31.21-2.62.42-3.94.61a2.52,2.52,0,0,0-1.88,1.1,2,2,0,0,0-.19,2.09A1.72,1.72,0,0,0,9,26.37H19.9l.22-.05a5.61,5.61,0,0,0,3.19-1.49c.67-.62,1.32-1.26,1.94-1.92A5.78,5.78,0,0,0,25.47,15Zm-.82,7c-.63.69-1.3,1.33-2,2a4.78,4.78,0,0,1-3.46,1.35H14.59c-1.69,0-3.39,0-5.09,0-.7,0-.89-.41-.68-1a1.29,1.29,0,0,1,1.07-.87l5.12-.8.25-.05a.52.52,0,0,0,.28-.88l-.19-.2q-3.87-3.86-7.73-7.73a1,1,0,0,1-.28-1.26,1,1,0,0,1,1.46-.3,1.65,1.65,0,0,1,.24.22l5,5a1.43,1.43,0,0,0,.26.23.52.52,0,0,0,.72-.72,1.64,1.64,0,0,0-.21-.25l-2-2A1,1,0,0,1,13,13.21a1,1,0,0,1,1.28.18l2,1.95a.93.93,0,0,0,.14.14.54.54,0,1,0,.76-.75c-.36-.37-.73-.71-1.08-1.08A1,1,0,0,1,16.54,12a.92.92,0,0,1,.91.3l1,1a.53.53,0,0,0,.61.16.46.46,0,0,0,.33-.46,1.09,1.09,0,0,0-.23-.5A1,1,0,0,1,19.63,11a.9.9,0,0,1,1,.25c1.4,1.53,2.82,3,4.17,4.61A4.73,4.73,0,0,1,24.65,22ZM5.92,25.31H5a2.72,2.72,0,0,1-2.58-1.83A9.16,9.16,0,0,1,2.31,21h8.33A1.67,1.67,0,0,0,11,21a.5.5,0,0,0,.44-.47A.51.51,0,0,0,11,20a1.54,1.54,0,0,0-.37,0H2.33V6.07H15.15V9.64a.65.65,0,0,0,.21.56.52.52,0,0,0,.57.06.59.59,0,0,0,.3-.61c0-1.71,0-3.42,0-5.14A3.72,3.72,0,0,0,12.57.71C10,.68,7.45.69,4.9.71A3.67,3.67,0,0,0,1.48,3.17,8,8,0,0,0,1.25,4v19a6.69,6.69,0,0,0,.2.77,3.69,3.69,0,0,0,3,2.5.56.56,0,0,1,.12,0h1.6c.36-.17.47-.35.41-.65S6.31,25.31,5.92,25.31ZM5,1.77c2.47,0,5,0,7.42,0A2.71,2.71,0,0,1,15.13,5H2.34A2.72,2.72,0,0,1,5,1.77ZM7.2,3.91h3.07c.37,0,.61-.23.6-.54s-.24-.52-.61-.53h-3a1,1,0,0,0-.34.05.52.52,0,0,0-.3.6A.56.56,0,0,0,7.2,3.91Zm5.29,0A.54.54,0,0,0,13,3.36a.53.53,0,0,0-1.06,0A.54.54,0,0,0,12.49,3.9Z"/><path class="cls-3" d="M25.47,15c-1.31-1.54-2.69-3-4.07-4.5a2,2,0,0,0-3.38.69,1,1,0,0,1-.08.14,2.11,2.11,0,0,0-3.22,1.08,2,2,0,0,0-1.85-.29,2.13,2.13,0,0,0-1.36,1.41,1.91,1.91,0,0,0-.23-.31c-.61-.61-1.2-1.25-1.85-1.8a2,2,0,0,0-3.16.94,2.06,2.06,0,0,0,.59,2.22l6.93,6.93a1.1,1.1,0,0,0,.26.15l-.07.09a.32.32,0,0,1-.09,0c-1.31.21-2.62.42-3.94.61a2.52,2.52,0,0,0-1.88,1.1,2,2,0,0,0-.19,2.09A1.72,1.72,0,0,0,9,26.37H19.9l.22-.05a5.61,5.61,0,0,0,3.19-1.49c.67-.62,1.32-1.26,1.94-1.92A5.78,5.78,0,0,0,25.47,15Zm-.82,7c-.63.69-1.3,1.33-2,2a4.78,4.78,0,0,1-3.46,1.35H14.59c-1.69,0-3.39,0-5.09,0-.7,0-.89-.41-.68-1a1.29,1.29,0,0,1,1.07-.87l5.12-.8.25-.05a.52.52,0,0,0,.28-.88l-.19-.2q-3.87-3.86-7.73-7.73a1,1,0,0,1-.28-1.26,1,1,0,0,1,1.46-.3,1.65,1.65,0,0,1,.24.22l5,5a1.43,1.43,0,0,0,.26.23.52.52,0,0,0,.72-.72,1.64,1.64,0,0,0-.21-.25l-2-2A1,1,0,0,1,13,13.21a1,1,0,0,1,1.28.18l2,1.95a.93.93,0,0,0,.14.14.54.54,0,1,0,.76-.75c-.36-.37-.73-.71-1.08-1.08A1,1,0,0,1,16.54,12a.92.92,0,0,1,.91.3l1,1a.53.53,0,0,0,.61.16.46.46,0,0,0,.33-.46,1.09,1.09,0,0,0-.23-.5A1,1,0,0,1,19.63,11a.9.9,0,0,1,1,.25c1.4,1.53,2.82,3,4.17,4.61A4.73,4.73,0,0,1,24.65,22ZM5.92,25.31H5a2.72,2.72,0,0,1-2.58-1.83A9.16,9.16,0,0,1,2.31,21h8.33A1.67,1.67,0,0,0,11,21a.5.5,0,0,0,.44-.47A.51.51,0,0,0,11,20a1.54,1.54,0,0,0-.37,0H2.33V6.07H15.15V9.64a.65.65,0,0,0,.21.56.52.52,0,0,0,.57.06.59.59,0,0,0,.3-.61c0-1.71,0-3.42,0-5.14A3.72,3.72,0,0,0,12.57.71C10,.68,7.45.69,4.9.71A3.67,3.67,0,0,0,1.48,3.17,8,8,0,0,0,1.25,4v19a6.69,6.69,0,0,0,.2.77,3.69,3.69,0,0,0,3,2.5.56.56,0,0,1,.12,0h1.6c.36-.17.47-.35.41-.65S6.31,25.31,5.92,25.31ZM5,1.77c2.47,0,5,0,7.42,0A2.71,2.71,0,0,1,15.13,5H2.34A2.72,2.72,0,0,1,5,1.77ZM7.2,3.91h3.07c.37,0,.61-.23.6-.54s-.24-.52-.61-.53h-3a1,1,0,0,0-.34.05.52.52,0,0,0-.3.6A.56.56,0,0,0,7.2,3.91Zm5.29,0A.54.54,0,0,0,13,3.36a.53.53,0,0,0-1.06,0A.54.54,0,0,0,12.49,3.9Z"/></g></g></svg>