<svg xmlns="http://www.w3.org/2000/svg" viewBox="0 0 28 28"><defs><style>.cls-1{fill:none;}.cls-2{fill:#0091ff;}</style></defs><g id="Layer_2" data-name="Layer 2"><g id="Layer_1-2" data-name="Layer 1"><rect class="cls-1" width="28" height="28"/><path class="cls-2" d="M20.13,27.41a1,1,0,0,1-.59-1.06c0-5.08,0-10.15,0-15.23,0-.72.27-1,1-1,1.94,0,3.87,0,5.81,0a1,1,0,0,1,1.06.58V26.83l-.58.58Zm1-14.16h4.68V11.71H21.13Zm0,3.14h4.68V14.85H21.13ZM25.82,18H21.14v1.54h4.68Zm0,3.14H21.14v1.54h4.68Zm0,3.14H21.13v1.54h4.69Z"/><path class="cls-2" d="M10.65,27.41a1,1,0,0,1-.58-1.06c0-3,0-6,0-9,0-.69.29-1,1-1H17c.65,0,.95.29.95.94,0,3,0,6,0,9a1,1,0,0,1-.58,1.06ZM16.34,18H11.66v1.54h4.68Zm-4.68,4.67h4.68V21.13H11.66Zm0,3.15h4.67V24.28H11.66Z"/><path class="cls-2" d="M23.64.59a1,1,0,0,1,.58,1.06c0,.94,0,1.88,0,2.83a.78.78,0,0,1-1.07.77.77.77,0,0,1-.5-.73V3.3a2.8,2.8,0,0,0-.24.23l-7.57,7.61-.22.22a.79.79,0,0,1-1.22,0l-2.3-2.29a3.11,3.11,0,0,1-.2-.25l-.25.24-5.4,5.4a.86.86,0,0,1-.87.3A.77.77,0,0,1,4,13.52a2.29,2.29,0,0,1,.21-.23q3-3,6-6a.85.85,0,0,1,1.41,0l2.22,2.22.16.16L21.5,2.24l0-.07h-1.2a.78.78,0,0,1-.75-.62.77.77,0,0,1,.4-.85l.15-.1Z"/><path class="cls-2" d="M.59,20.13a1,1,0,0,1,1.06-.59c2,0,3.9,0,5.86,0a.82.82,0,0,1,.94.94c0,2,0,3.91,0,5.86a1,1,0,0,1-.59,1.06H1.17l-.58-.58Zm1.59,2.54H6.86V21.13H2.18Zm4.68,3.15V24.28H2.18v1.54Z"/></g></g></svg>