<svg xmlns="http://www.w3.org/2000/svg" viewBox="0 0 28 28"><defs><style>.cls-1{fill:none;}.cls-2{fill:#0091ff;}</style></defs><g id="Layer_2" data-name="Layer 2"><g id="Layer_1-2" data-name="Layer 1"><rect class="cls-1" width="28" height="28"/><path class="cls-2" d="M9.61.12a6.41,6.41,0,0,1,.52.39C11.44,1.74,12.75,3,14.07,4.22a1.12,1.12,0,0,1,.37.86c0,1.91,0,3.82,0,5.73v.36h6.16a2.27,2.27,0,0,1,2.33,1.53c.39,1,.83,1.9,1.22,2.86A3.86,3.86,0,0,0,25,16.93a2.57,2.57,0,0,1,.71,1.34,4.39,4.39,0,0,1,.07.72v6.55a2,2,0,0,1-1.54,2.17,4.18,4.18,0,0,1-2.81-.16,2,2,0,0,1-1.11-1.74c0-.29,0-.57,0-.88H8.87c0,.3,0,.6,0,.91a2.1,2.1,0,0,1-1.93,2,6,6,0,0,1-2.07-.09,2,2,0,0,1-1.43-1.83c0-1,0-2,0-2.94,0-1.24,0-2.47,0-3.71a2.84,2.84,0,0,1,1-2.41,4.22,4.22,0,0,0,1.17-1.93H4.12a1.85,1.85,0,0,1-1.85-1.38,2.69,2.69,0,0,1-.07-.7c0-3.49,0-7,0-10.46A2,2,0,0,1,3.81.12ZM8.76,1.34H4.24c-.58,0-.83.24-.83.81V12.92c0,.52.23.74.75.74h8.26c.55,0,.78-.24.78-.8v-7c0-.1,0-.19,0-.3h-3A1.28,1.28,0,0,1,8.76,4.21V1.34Zm5.83,22.35H23.5c.76,0,1.09-.33,1.09-1.09,0-1.11,0-2.22,0-3.32a2.28,2.28,0,0,0-.72-1.85.72.72,0,0,0-.55-.24c-5.61,0-11.22,0-16.83,0a1.53,1.53,0,0,0-1.2.49,2.17,2.17,0,0,0-.68,1.64c0,1.08,0,2.16,0,3.25,0,.81.31,1.13,1.12,1.13ZM23,16c-.42-1-.84-1.91-1.23-2.86a1.08,1.08,0,0,0-1.11-.72c-2,0-4,0-5.93,0h-.31a4.84,4.84,0,0,1,0,.54,3.79,3.79,0,0,1-.22.91,1.86,1.86,0,0,1-1.82,1H7.21c-.09,0-.24,0-.27.09-.16.31-.28.64-.43,1H15.6a3.42,3.42,0,0,1,3.13-2.74,3.26,3.26,0,0,1,2.06.55A3.36,3.36,0,0,1,22.27,16Zm-1.46,9c0,.27,0,.53,0,.78a.89.89,0,0,0,.85.88,12.71,12.71,0,0,0,1.38,0,.78.78,0,0,0,.76-.65,10.06,10.06,0,0,0,0-1.23A12,12,0,0,1,21.55,24.93ZM4.64,24.72c0,.37,0,.74,0,1.1a.84.84,0,0,0,.83.78,12.71,12.71,0,0,0,1.38,0,.81.81,0,0,0,.77-.68,6.4,6.4,0,0,0,0-1A12.09,12.09,0,0,1,4.64,24.72ZM21,16a2.17,2.17,0,0,0-2.16-1.54A2.12,2.12,0,0,0,16.9,16ZM12.4,4.36,10,2.1V4.36Z"/><path class="cls-2" d="M8.2,9.11H11c.43,0,.69.21.72.57a.56.56,0,0,1-.47.62l-.3,0H5.42a.71.71,0,0,1-.68-.3.59.59,0,0,1,.33-.87,1.37,1.37,0,0,1,.4-.05Z"/><path class="cls-2" d="M8.2,12.51H5.33a.6.6,0,0,1-.66-.72.55.55,0,0,1,.46-.46l.33,0h5.47l.3,0a.58.58,0,0,1,.51.54.56.56,0,0,1-.42.61,1.08,1.08,0,0,1-.35,0Z"/><path class="cls-2" d="M6.52,6.93H7.69a.61.61,0,1,1,0,1.21H5.32a.62.62,0,0,1-.67-.6.61.61,0,0,1,.66-.61Z"/><path class="cls-2" d="M8,22.47c-.56,0-1.12,0-1.68,0a.63.63,0,0,1-.72-.71V19.54a.63.63,0,0,1,.7-.7q1.71,0,3.42,0a.61.61,0,0,1,.69.66c0,.77,0,1.55,0,2.32a.61.61,0,0,1-.7.65C9.14,22.48,8.57,22.47,8,22.47Zm1.17-1.22V20.06H6.84v1.19Z"/><path class="cls-2" d="M21.18,22.47c-.55,0-1.1,0-1.65,0s-.71-.22-.72-.71V19.55c0-.49.23-.71.72-.71q1.68,0,3.36,0c.49,0,.72.22.72.71,0,.74,0,1.47,0,2.21,0,.49-.23.71-.72.71S21.75,22.47,21.18,22.47Zm1.22-2.4H20v1.17H22.4Z"/><path class="cls-2" d="M14.6,20.53H12.36a.59.59,0,0,1-.59-.36.53.53,0,0,1,.08-.61.93.93,0,0,1,.49-.23h4.52a.6.6,0,1,1,0,1.19Z"/><path class="cls-2" d="M14.63,21.21c.73,0,1.46,0,2.19,0a.6.6,0,0,1,.67.59.62.62,0,0,1-.7.61c-1,0-1.92,0-2.87,0-.53,0-1.05,0-1.58,0a.6.6,0,0,1-.61-.47.58.58,0,0,1,.33-.67,1.24,1.24,0,0,1,.43-.06C13.2,21.2,13.91,21.21,14.63,21.21Z"/></g></g></svg>