<svg xmlns="http://www.w3.org/2000/svg" viewBox="0 0 40 40"><defs><style>.cls-1{fill:none;}.cls-2{fill:#fff;}</style></defs><g id="Layer_2" data-name="Layer 2"><g id="Layer_1-2" data-name="Layer 1"><rect class="cls-1" width="40" height="40"/><path class="cls-2" d="M10.91,39.56A3.89,3.89,0,0,1,9,38.28c-.36-.39-.74-.74-1.11-1.11A.79.79,0,0,1,7.8,36a.77.77,0,0,1,1.15,0l1.54,1.54a1,1,0,0,0,1.66,0l1.11-1.11a1,1,0,0,0,0-1.69l-4.1-4.15L5.52,27a5.37,5.37,0,0,0-.57-.5.94.94,0,0,0-1.16.08c-.52.47-1,1-1.49,1.48a1,1,0,0,0,.1,1.44c.53.55,1.08,1.08,1.62,1.62a.73.73,0,0,1,.17.88.68.68,0,0,1-.73.43.94.94,0,0,1-.53-.25c-.59-.56-1.18-1.13-1.73-1.72a2.53,2.53,0,0,1,0-3.47c.49-.52,1-1,1.52-1.51A2.52,2.52,0,0,1,5.26,25a.54.54,0,0,0,.4,0c.76-.73,1.5-1.49,2.25-2.23l.15-.17A2.74,2.74,0,0,1,9,18a2.73,2.73,0,0,1,1.67-4.12,2.76,2.76,0,0,1,.29-2.08,2.67,2.67,0,0,1,1.66-1.24,7.85,7.85,0,0,1,.07-1.39,2.65,2.65,0,0,1,3.22-2,.68.68,0,0,0,.46-.09,2.65,2.65,0,0,1,2.14-.27l4.95.93c.31,0,.63,0,.95.07a2.64,2.64,0,0,1,2.22,3.11c0,.07,0,.15,0,.26a2.71,2.71,0,0,1,2,3.33,2.79,2.79,0,0,1,2,3.39,2.7,2.7,0,0,1,1.18,4.63l1.88,1.87a1.62,1.62,0,0,1,.18.19.8.8,0,0,0,1.06.3,2.3,2.3,0,0,1,2.38.54c.53.48,1,1,1.54,1.53a2.49,2.49,0,0,1,0,3.49q-4.14,4.19-8.32,8.32a2.53,2.53,0,0,1-3.58,0c-.46-.44-.92-.89-1.35-1.35A2.47,2.47,0,0,1,25,34.58a.36.36,0,0,0-.1-.46l-2.77-2.74a.62.62,0,0,0-.35-.18c-.83,0-1.65-.05-2.48-.06a3.36,3.36,0,0,0-.84,0,1.78,1.78,0,0,0-.8.37c-.87.82-1.7,1.68-2.55,2.52a.35.35,0,0,0-.09.48,2.51,2.51,0,0,1-.47,2.9,13.72,13.72,0,0,1-1.39,1.36,9.12,9.12,0,0,1-1.37.77ZM6.81,26l7.07,7.11c.87-.88,1.78-1.78,2.67-2.69a2.42,2.42,0,0,1,1.72-.78c.71,0,1.43,0,2.14,0a3.22,3.22,0,0,0,3.17-1.12.74.74,0,0,1,1.15-.08.8.8,0,0,1-.06,1.16c-.33.37-.64.76-.92,1.1l2.34,2.37,6.94-7-2.41-2.44c-.16.15-.33.34-.53.5A.74.74,0,0,1,29,24a.75.75,0,0,1,.14-1c.56-.58,1.14-1.13,1.69-1.71a1.1,1.1,0,0,0,0-1.55,1.12,1.12,0,0,0-1.56-.05c-.22.19-.41.41-.62.61a.79.79,0,0,1-1.18.09.79.79,0,0,1,.1-1.18c.42-.43.85-.84,1.26-1.28a1.12,1.12,0,0,0-1.6-1.57c-.24.21-.45.44-.68.67a.8.8,0,0,1-1.21.09.79.79,0,0,1,.11-1.17c.46-.47.93-.91,1.37-1.39A1.12,1.12,0,0,0,25.19,13c-.24.22-.47.47-.71.69a.78.78,0,0,1-1.15.08.79.79,0,0,1,.08-1.18l1.32-1.32a1.11,1.11,0,0,0,.35-1,1.13,1.13,0,0,0-1.92-.65c-.65.64-1.29,1.3-1.95,1.93a.4.4,0,0,0-.1.55,2.64,2.64,0,0,1-1.58,3.62,6.74,6.74,0,0,1-.83.18c0,.06,0,.13-.05.21a2.6,2.6,0,0,1-2.43,2.42c-.22,0-.25.14-.27.32a2.61,2.61,0,0,1-2.32,2.36l-.3.05a7.85,7.85,0,0,1-.17.82,2.68,2.68,0,0,1-3.66,1.6c-.11-.05-.32-.08-.39,0C8.32,24.46,7.54,25.25,6.81,26ZM38,28.68a4.49,4.49,0,0,0-.46-.76c-.38-.44-.81-.84-1.23-1.25a1,1,0,0,0-1.59,0q-4,4-8.09,8.09a1,1,0,0,0,0,1.58c.4.42.82.83,1.24,1.24a1,1,0,0,0,1.55,0q4.1-4.06,8.15-8.15A3.81,3.81,0,0,0,38,28.68ZM15.84,17.05c.65,0,1-.25,1.19-.7a1.07,1.07,0,0,0-.24-1.23c-.92-.93-1.84-1.86-2.78-2.78A1.12,1.12,0,1,0,12.44,14c.9.92,1.8,1.83,2.73,2.72A2.81,2.81,0,0,0,15.84,17.05Zm2.79-2.63a1.22,1.22,0,0,0,1.18-1.2.73.73,0,0,0-.5-.74,6.22,6.22,0,0,1-3.4-3.43.71.71,0,0,0-.39-.35,1.07,1.07,0,0,0-1.25.47,1.1,1.1,0,0,0,.16,1.4q1.71,1.74,3.46,3.44A2.94,2.94,0,0,0,18.63,14.42Zm-4.15,4.14a2.2,2.2,0,0,0-.29-.64c-.75-.79-1.52-1.57-2.32-2.32a1.08,1.08,0,0,0-1.46.07,1.06,1.06,0,0,0-.12,1.46q1.14,1.23,2.37,2.37a1,1,0,0,0,1.18.08A1.18,1.18,0,0,0,14.48,18.56Zm-2.73,2.65a1,1,0,0,0-.13-.43,9.92,9.92,0,0,0-1.26-1.25A1,1,0,0,0,9,19.79,1.12,1.12,0,0,0,9,21.2a7.8,7.8,0,0,0,1,1,1,1,0,0,0,1.18.09A1.12,1.12,0,0,0,11.75,21.21Zm5.63-13-.07.18a4.83,4.83,0,0,0,2.26,2.56l2-2Z"/><path class="cls-2" d="M6.58,1.37c.2-.24.33-.53.55-.61A1.15,1.15,0,0,1,7.9.83a1.49,1.49,0,0,1,.48.43L10.7,3.57A.78.78,0,1,1,9.6,4.65L7,2.06A4.41,4.41,0,0,1,6.58,1.37Z"/><path class="cls-2" d="M32.27.66c.46,0,.7.15.82.45a.75.75,0,0,1-.17.88L31.2,3.71c-.34.34-.67.68-1,1a.77.77,0,0,1-1.12,0,.76.76,0,0,1,0-1.12c.9-.91,1.81-1.82,2.73-2.72A1.83,1.83,0,0,1,32.27.66Z"/><path class="cls-2" d="M20.69,2.93c0,.54,0,1.09,0,1.64a.77.77,0,1,1-1.53,0c0-1.09,0-2.18,0-3.28a.77.77,0,1,1,1.53,0C20.7,1.83,20.69,2.38,20.69,2.93Z"/><path class="cls-2" d="M5.8,34.83A.75.75,0,0,1,5,34.07a.77.77,0,0,1,.75-.76.78.78,0,0,1,.78.77A.74.74,0,0,1,5.8,34.83Z"/><path class="cls-2" d="M26.62,27.34a.74.74,0,0,1-.77-.73.77.77,0,0,1,.75-.8.78.78,0,0,1,.78.78A.76.76,0,0,1,26.62,27.34Z"/></g></g></svg>