<svg xmlns="http://www.w3.org/2000/svg" width="335" height="285" viewBox="0 0 335 285">
  <g id="Group_1318" data-name="Group 1318" transform="translate(-16343 -5321)">
    <rect id="Rectangle_2498" data-name="Rectangle 2498" width="335" height="285" transform="translate(16343 5321)" fill="none"/>
    <g id="Prototyping_process-pana" data-name="Prototyping process-pana" transform="translate(16339.25 5292.535)">
      <g id="freepik--background-complete--inject-29" transform="translate(103.887 32.8)">
        <rect id="Rectangle_2436" data-name="Rectangle 2436" width="49.385" height="51.485" transform="translate(139.689 10.684)" fill="#e0e0e0"/>
        <rect id="Rectangle_2437" data-name="Rectangle 2437" width="49.385" height="51.485" transform="translate(136.343 10.684)" fill="#fafafa"/>
        <path id="Path_29715" data-name="Path 29715" d="M417,101.44H367.58V49.93H417Zm-49.385-.031h49.354V49.974H367.611Z" transform="translate(-231.249 -39.258)" fill="#e0e0e0"/>
        <rect id="Rectangle_2438" data-name="Rectangle 2438" width="36.109" height="37.642" transform="translate(142.984 17.606)" fill="#fafafa"/>
        <path id="Path_29716" data-name="Path 29716" d="M374.271,121.88a5.9,5.9,0,0,1-.891,1.034c-.579.623-1.389,1.433-2.293,2.33s-1.744,1.688-2.361,2.255a5.805,5.805,0,0,1-1.047.872,5.83,5.83,0,0,1,.891-1.034c.573-.623,1.389-1.433,2.3-2.33s1.744-1.695,2.361-2.261A5.674,5.674,0,0,1,374.271,121.88Z" transform="translate(-231.287 -66.383)" fill="#e0e0e0"/>
        <path id="Path_29717" data-name="Path 29717" d="M436.22,121.73a6.267,6.267,0,0,1,1.034.891c.623.579,1.433,1.389,2.33,2.3s1.688,1.738,2.255,2.355a5.807,5.807,0,0,1,.872,1.047,5.825,5.825,0,0,1-1.034-.891c-.623-.573-1.433-1.389-2.33-2.3s-1.695-1.744-2.262-2.361a5.677,5.677,0,0,1-.866-1.04Z" transform="translate(-257.127 -66.327)" fill="#e0e0e0"/>
        <path id="Path_29718" data-name="Path 29718" d="M436.06,57.292a6.266,6.266,0,0,1,.891-1.034c.579-.623,1.389-1.433,2.3-2.33s1.757-1.688,2.38-2.255a5.805,5.805,0,0,1,1.047-.872,5.826,5.826,0,0,1-.891,1.034c-.573.623-1.383,1.433-2.3,2.33s-1.744,1.695-2.361,2.261a5.674,5.674,0,0,1-1.065.866Z" transform="translate(-257.066 -39.586)" fill="#e0e0e0"/>
        <path id="Path_29719" data-name="Path 29719" d="M374.172,57.381a6.267,6.267,0,0,1-1.034-.891c-.623-.579-1.433-1.389-2.33-2.3s-1.688-1.738-2.255-2.355a5.809,5.809,0,0,1-.872-1.047,5.824,5.824,0,0,1,1.034.891c.623.573,1.433,1.389,2.33,2.3s1.695,1.744,2.262,2.361a5.363,5.363,0,0,1,.866,1.04Z" transform="translate(-231.287 -39.582)" fill="#e0e0e0"/>
        <path id="Path_29720" data-name="Path 29720" d="M414.171,98.6V95.862c0-1.782,0-4.361-.037-7.669,0-6.6-.044-15.986-.068-27.231l.137.137h-36l.162-.162V98.579l-.137-.137,26.072.069,7.326.037h2.436a.765.765,0,0,1,.174,0H411.7l-7.3.037-26.166.069H378V60.8h36.315v.137c0,11.283-.05,20.7-.069,27.318,0,3.277,0,5.862-.037,7.638V98.41a.689.689,0,0,1-.037.193Z" transform="translate(-235.177 -43.356)" fill="#e0e0e0"/>
        <rect id="Rectangle_2439" data-name="Rectangle 2439" width="12.049" height="12.049" transform="translate(155.015 30.402)" fill="#ebebeb"/>
        <rect id="Rectangle_2440" data-name="Rectangle 2440" width="35.922" height="37.448" transform="translate(80.323 0.012)" fill="#e0e0e0"/>
        <rect id="Rectangle_2441" data-name="Rectangle 2441" width="35.922" height="37.448" transform="translate(77.894 0.012)" fill="#fafafa"/>
        <path id="Path_29721" data-name="Path 29721" d="M309.707,70.3H273.76V32.8h35.947Zm-35.922,0h35.9V32.825h-35.9Z" transform="translate(-195.879 -32.8)" fill="#e0e0e0"/>
        <rect id="Rectangle_2442" data-name="Rectangle 2442" width="26.266" height="27.381" transform="translate(82.722 5.046)" fill="#fafafa"/>
        <path id="Path_29722" data-name="Path 29722" d="M278.646,85.14a4.476,4.476,0,0,1-.623.754c-.417.442-1.009,1.047-1.67,1.695s-1.246,1.246-1.713,1.645a4.143,4.143,0,0,1-.76.623,4.018,4.018,0,0,1,.623-.748c.424-.442,1.009-1.047,1.676-1.7s1.246-1.246,1.719-1.645A4.263,4.263,0,0,1,278.646,85.14Z" transform="translate(-195.924 -52.532)" fill="#e0e0e0"/>
        <path id="Path_29723" data-name="Path 29723" d="M323.69,85a3.839,3.839,0,0,1,.754.623c.442.417,1.04,1.009,1.695,1.67s1.246,1.246,1.645,1.713a3.913,3.913,0,0,1,.623.76,4.249,4.249,0,0,1-.748-.623c-.442-.417-1.047-1.009-1.7-1.67s-1.246-1.246-1.645-1.719A4.26,4.26,0,0,1,323.69,85Z" transform="translate(-214.703 -52.479)" fill="#e0e0e0"/>
        <path id="Path_29724" data-name="Path 29724" d="M323.58,38.15a3.838,3.838,0,0,1,.623-.754c.417-.442,1.009-1.04,1.67-1.695s1.246-1.246,1.713-1.638a3.831,3.831,0,0,1,.76-.623,4.148,4.148,0,0,1-.623.754c-.424.442-1.015,1.04-1.676,1.695s-1.246,1.246-1.72,1.645A4.262,4.262,0,0,1,323.58,38.15Z" transform="translate(-214.661 -33.041)" fill="#e0e0e0"/>
        <path id="Path_29725" data-name="Path 29725" d="M278.566,38.242a4.477,4.477,0,0,1-.754-.623c-.442-.424-1.047-1.009-1.695-1.67s-1.246-1.246-1.645-1.719a3.915,3.915,0,0,1-.623-.76,4.528,4.528,0,0,1,.748.623c.442.417,1.047,1.009,1.695,1.67s1.246,1.246,1.651,1.719A4.232,4.232,0,0,1,278.566,38.242Z" transform="translate(-195.913 -33.053)" fill="#e0e0e0"/>
        <path id="Path_29726" data-name="Path 29726" d="M307.667,68.205a.418.418,0,0,1,0-.131V60.6c0-4.791-.031-11.625-.056-19.805l.106.1H281.551l.118-.118V68.162l-.1-.1,18.964.05h.05L281.47,68.3h-.1V40.7h26.39v.1c0,8.2-.037,15.064-.05,19.874,0,2.386,0,4.268-.031,5.557v1.832A.649.649,0,0,1,307.667,68.205Z" transform="translate(-198.748 -35.778)" fill="#e0e0e0"/>
        <rect id="Rectangle_2443" data-name="Rectangle 2443" width="8.766" height="8.766" transform="translate(91.475 14.354)" fill="#ebebeb"/>
        <path id="Path_29727" data-name="Path 29727" d="M454.447,377.7a17,17,0,0,1,10.547-1.283,8.793,8.793,0,0,1,5.208,2.324c1.3,1.433,1.545,3.969.056,5.2a5.013,5.013,0,0,1-3.289.835c-2.785,0-5.881-.523-8.1,1.153-1.246.959-2.118,2.548-3.638,3.022a3.564,3.564,0,0,1-3.956-1.757,6.168,6.168,0,0,1-.442-4.535A6.9,6.9,0,0,1,454.447,377.7Z" transform="translate(-262.544 -162.234)" fill="#ebebeb"/>
        <path id="Path_29728" data-name="Path 29728" d="M443.876,338.287c1.962,2.8,5.775,1.869,7.538.162s2.492-4.187,3.2-6.548c1.557-5.4,3.115-11.071,1.969-16.565a9.189,9.189,0,0,0-2.118-4.5,4.8,4.8,0,0,0-4.554-1.52c-1.925.511-3.115,2.392-3.981,4.187a39.489,39.489,0,0,0-3.906,16.946c0,2.729.318,5.607,1.869,7.844" transform="translate(-259.313 -137.008)" fill="#ebebeb"/>
        <path id="Path_29729" data-name="Path 29729" d="M422.657,347.756a10.2,10.2,0,0,0,1.589-9.382,18.348,18.348,0,0,0-5.557-8.055,30.071,30.071,0,0,0-9.968-5.875,10.671,10.671,0,0,0-4.479-.76,4.7,4.7,0,0,0-3.738,2.274c-1.047,2-.044,4.417,1.047,6.4a76.046,76.046,0,0,0,6.535,9.968c1.956,2.523,4.2,5.015,7.189,6.161s6.087,1,7.669-1.065" transform="translate(-243.495 -142.459)" fill="#ebebeb"/>
        <path id="Path_29730" data-name="Path 29730" d="M444.709,408.143a5.752,5.752,0,0,0,.181-1.246c.087-.928.206-2.093.336-3.476a49.075,49.075,0,0,1,.785-5.1,39.034,39.034,0,0,1,1.869-6.012,22.044,22.044,0,0,1,3.071-5.445,11.451,11.451,0,0,1,3.881-3.227,11.008,11.008,0,0,1,3.271-1.022,5.942,5.942,0,0,0,1.246-.181,5.723,5.723,0,0,0-1.29,0,9.918,9.918,0,0,0-3.414.885,11.5,11.5,0,0,0-4.093,3.258,21.461,21.461,0,0,0-3.2,5.538,36.571,36.571,0,0,0-1.869,6.112,42.394,42.394,0,0,0-.679,5.165c-.112,1.477-.156,2.666-.174,3.5A6.448,6.448,0,0,0,444.709,408.143Z" transform="translate(-260.295 -164.6)" fill="#e0e0e0"/>
        <path id="Path_29731" data-name="Path 29731" d="M445,384.674a2.305,2.305,0,0,0,.031-.592v-1.688c0-1.464,0-3.589.075-6.23.131-5.239.579-10.878,1.452-18.833.822-7.476,1.931-16.2,3.115-21.8q.374-1.931.741-3.458c.224-1.015.417-1.869.623-2.6s.293-1.209.392-1.639a2.4,2.4,0,0,0,.106-.586,2.619,2.619,0,0,0-.206.554l-.492,1.62c-.218.7-.442,1.576-.692,2.585s-.548,2.162-.822,3.451a192.214,192.214,0,0,0-3.258,20.254c-.872,7.968-1.246,15.22-1.3,20.478-.031,2.623,0,4.747.093,6.23.044.685.075,1.246.1,1.688a2.43,2.43,0,0,0,.044.573Z" transform="translate(-260.343 -143.804)" fill="#e0e0e0"/>
        <path id="Path_29732" data-name="Path 29732" d="M433.885,373.3a10.883,10.883,0,0,0,0-1.763c-.062-1.134-.218-2.772-.536-4.778a64.061,64.061,0,0,0-1.558-6.965,57.311,57.311,0,0,0-2.909-8.242,43.822,43.822,0,0,0-8.56-13.326,22.194,22.194,0,0,0-2.012-1.869c-.305-.262-.579-.523-.86-.729l-.779-.536a11.78,11.78,0,0,0-1.483-.953,53.311,53.311,0,0,1,4.866,4.361,46.17,46.17,0,0,1,8.342,13.27,64.506,64.506,0,0,1,2.928,8.168c.766,2.561,1.246,4.915,1.657,6.9s.573,3.607.7,4.735a12.828,12.828,0,0,0,.2,1.732Z" transform="translate(-249.197 -146.406)" fill="#e0e0e0"/>
        <path id="Path_29733" data-name="Path 29733" d="M423.5,436.59l1.4,19.207h24.671l1.408-19.207Z" transform="translate(-252.331 -185.029)" fill="#e0e0e0"/>
        <rect id="Rectangle_2444" data-name="Rectangle 2444" width="32.807" height="7.569" transform="translate(168.783 243.991)" fill="#e0e0e0"/>
        <path id="Path_29734" data-name="Path 29734" d="M419.67,466.24v2.1h32.265v-2.1Z" transform="translate(-250.887 -196.207)" fill="#ebebeb"/>
        <path id="Path_29735" data-name="Path 29735" d="M423.658,473.3l-1.508-3.694h29.543l-1.763,3.694Z" transform="translate(-251.822 -197.478)" fill="#e0e0e0"/>
        <path id="Path_29736" data-name="Path 29736" d="M450.772,445.031a1.028,1.028,0,0,1-.118.181c-.087.112-.218.287-.368.486l-1.433,1.869-.069.081-.062-.087-3.526-4.884h.2c-1.047,1.489-2.218,3.146-3.476,4.922l-.106.156-.125-.143-4.124-4.909h.237l-.224.28c-1.277,1.607-2.492,3.159-3.688,4.623l-.125.156-.112-.162-3.476-4.922h.2l-4.28,4.878-.081.087-.056-.093-1.339-2.255c-.143-.243-.255-.442-.343-.623a.711.711,0,0,1-.106-.218,1.152,1.152,0,0,1,.143.193l.38.573,1.408,2.218h-.137l4.218-4.94.106-.125.1.131,3.507,4.9h-.237l3.676-4.629.23-.287.118-.15.118.15c1.445,1.72,2.835,3.383,4.112,4.915h-.231c1.246-1.769,2.448-3.42,3.514-4.9l.1-.143.1.143,3.458,4.934h-.125l1.5-1.794.4-.467A1.313,1.313,0,0,1,450.772,445.031Z" transform="translate(-252.584 -187.197)" fill="#f5f5f5"/>
        <path id="Path_29737" data-name="Path 29737" d="M451.448,436.3c0,.081-6.186.15-13.812.15s-13.806-.069-13.806-.15,6.18-.156,13.806-.156S451.448,436.209,451.448,436.3Z" transform="translate(-252.456 -184.86)" fill="#f5f5f5"/>
        <path id="Path_29738" data-name="Path 29738" d="M452,469.846c0,.087-6.722.156-15.008.156s-15.008-.069-15.008-.156,6.716-.156,15.008-.156S452,469.758,452,469.846Z" transform="translate(-251.758 -197.508)" fill="#f5f5f5"/>
        <path id="Path_29739" data-name="Path 29739" d="M151.68,452.21v14.142h43.492V452.21Z" transform="translate(-149.855 -190.918)" fill="#f5f5f5"/>
        <path id="Path_29740" data-name="Path 29740" d="M148.75,445.86v3.956h46.837V445.86H148.75Z" transform="translate(-148.75 -188.524)" fill="#e0e0e0"/>
        <path id="Path_29741" data-name="Path 29741" d="M185.79,463.958h21.9V449.816h1.52V445.86H184.88v3.588Z" transform="translate(-162.371 -188.524)" fill="#ebebeb"/>
        <rect id="Rectangle_2445" data-name="Rectangle 2445" width="8.822" height="2.131" transform="translate(7.912 263.572)" fill="#e0e0e0"/>
        <rect id="Rectangle_2446" data-name="Rectangle 2446" width="11.326" height="4.498" transform="translate(6.772 268.363)" fill="#fff"/>
        <path id="Path_29742" data-name="Path 29742" d="M210.5,445.99V464.4h56.618V445.99Z" transform="translate(-172.03 -188.573)" fill="#f5f5f5"/>
        <path id="Path_29743" data-name="Path 29743" d="M206.69,437.72v5.152h60.973V437.72H206.69Z" transform="translate(-170.593 -185.455)" fill="#e0e0e0"/>
        <path id="Path_29744" data-name="Path 29744" d="M254.9,461.282h28.508v-18.41h1.981V437.72H253.72v4.672Z" transform="translate(-188.324 -185.455)" fill="#e0e0e0"/>
        <rect id="Rectangle_2447" data-name="Rectangle 2447" width="11.482" height="2.772" transform="translate(46.388 260.382)" fill="#e0e0e0"/>
        <rect id="Rectangle_2448" data-name="Rectangle 2448" width="14.74" height="5.85" transform="translate(44.912 266.619)" fill="#fff"/>
        <path id="Path_29745" data-name="Path 29745" d="M220.94,415.02v14.142h43.485V415.02Z" transform="translate(-175.966 -176.897)" fill="#f5f5f5"/>
        <path id="Path_29746" data-name="Path 29746" d="M218.01,408.68v3.95h46.831v-3.95H218.01Z" transform="translate(-174.861 -174.507)" fill="#e0e0e0"/>
        <path id="Path_29747" data-name="Path 29747" d="M255.04,426.772h21.9V412.63h1.52v-3.95H254.13v3.588Z" transform="translate(-188.478 -174.507)" fill="#ebebeb"/>
        <rect id="Rectangle_2449" data-name="Rectangle 2449" width="8.822" height="2.131" transform="translate(51.055 240.403)" fill="#e0e0e0"/>
        <rect id="Rectangle_2450" data-name="Rectangle 2450" width="11.326" height="4.498" transform="translate(49.921 245.194)" fill="#fff"/>
      </g>
      <g id="freepik--Device--inject-29" transform="translate(191.144 68.037)">
        <path id="Path_29748" data-name="Path 29748" d="M361.34,264.666l-59.559-.037a12.977,12.977,0,0,1-12.971-12.977l.031-149.32A12.971,12.971,0,0,1,301.824,89.36h59.559a12.977,12.977,0,0,1,12.971,12.977l-.031,149.32a12.977,12.977,0,0,1-12.983,13.008Z" transform="translate(-288.81 -89.36)" fill="#455a64"/>
        <path id="Path_29749" data-name="Path 29749" d="M363.711,97.886H352.167a2.872,2.872,0,0,0-2.81,2.928v2.093a2.872,2.872,0,0,1-2.8,2.934H324.045a2.878,2.878,0,0,1-2.8-2.934v-2.093a2.872,2.872,0,0,0-2.8-2.934H304.271a9.09,9.09,0,0,0-9.09,9.09l-.031,145.744a9.083,9.083,0,0,0,9.083,9.09l59.44.037a9.09,9.09,0,0,0,9.09-9.083V107.007a9.09,9.09,0,0,0-9.052-9.121Z" transform="translate(-291.2 -92.572)" fill="#fff"/>
        <path id="Path_29750" data-name="Path 29750" d="M363.676,97.979h.311a6.853,6.853,0,0,1,.928.069,8.722,8.722,0,0,1,3.42,1.184,8.528,8.528,0,0,1,2.075,1.688,8.972,8.972,0,0,1,1.738,2.716,9.508,9.508,0,0,1,.685,3.7v4.3c0,12.148,0,29.717.031,51.435s0,47.566,0,76.274v13.662a9.593,9.593,0,0,1-.349,2.785,9.345,9.345,0,0,1-1.159,2.567,10.017,10.017,0,0,1-1.9,2.106,9.214,9.214,0,0,1-5.264,2.043c-1.913.056-3.813,0-5.732,0H304.7a9.638,9.638,0,0,1-5.931-1.639,9.344,9.344,0,0,1-3.62-4.984,10.167,10.167,0,0,1-.38-3.115v-145.6c0-.368.031-.741.05-1.109a5.333,5.333,0,0,1,.187-1.084,9.22,9.22,0,0,1,5.3-6.392,9.651,9.651,0,0,1,4.056-.766H318a2.922,2.922,0,0,1,1.794.5,3.115,3.115,0,0,1,1.115,1.464,4.947,4.947,0,0,1,.181,1.8v.891a6.622,6.622,0,0,0,.031.866,2.847,2.847,0,0,0,.679,1.526,2.66,2.66,0,0,0,1.4.866,2.979,2.979,0,0,0,.816.081h22.7a2.809,2.809,0,0,0,1.115-.392,2.91,2.91,0,0,0,1.277-1.838,5.086,5.086,0,0,0,.069-1.109v-1.09a6.014,6.014,0,0,1,.044-1.059,3.26,3.26,0,0,1,.343-.978,2.9,2.9,0,0,1,1.458-1.29,4.666,4.666,0,0,1,1.813-.193h0a4.455,4.455,0,0,0-1.782.193,2.772,2.772,0,0,0-1.408,1.246,2.9,2.9,0,0,0-.33.947,5.814,5.814,0,0,0-.044,1.047v1.09a5.324,5.324,0,0,1-.068,1.128,3.022,3.022,0,0,1-1.321,1.906,2.841,2.841,0,0,1-1.159.411c-.424.037-.835,0-1.246,0H324.072a3.333,3.333,0,0,1-.853-.081,2.866,2.866,0,0,1-1.477-.916,3.034,3.034,0,0,1-.716-1.6,6.138,6.138,0,0,1-.031-.891v-.891a4.684,4.684,0,0,0-.181-1.744,2.853,2.853,0,0,0-1.053-1.383,2.76,2.76,0,0,0-1.7-.467H304.417a9.033,9.033,0,0,0-9.164,7.015c-.087.349-.118.71-.181,1.065a6.949,6.949,0,0,0-.05,1.084v145.6a9.777,9.777,0,0,0,.368,3.009,9.065,9.065,0,0,0,3.514,4.853,9.4,9.4,0,0,0,5.788,1.595h53.765c1.913,0,3.831.031,5.713,0a9.034,9.034,0,0,0,5.127-1.987,9.85,9.85,0,0,0,1.869-2.056,9.045,9.045,0,0,0,1.134-2.492,9.467,9.467,0,0,0,.336-2.716V239.35c0-28.708.031-54.562.044-76.274s.037-39.286.05-51.435v-4.3a9.345,9.345,0,0,0-.66-3.669,9.176,9.176,0,0,0-1.713-2.7,8.908,8.908,0,0,0-2.062-1.688,8.628,8.628,0,0,0-3.4-1.2,7.413,7.413,0,0,0-.922-.087Z" transform="translate(-291.053 -92.547)" fill="#263238"/>
        <path id="Path_29751" data-name="Path 29751" d="M404.138,121.74c0,.044-1.508.087-3.364.1s-3.364,0-3.364-.044,1.508-.081,3.364-.1S404.138,121.7,404.138,121.74Z" transform="translate(-329.752 -101.548)" fill="#263238"/>
        <path id="Path_29752" data-name="Path 29752" d="M404.158,124.511c0,.037-1.5.081-3.364.1s-3.364,0-3.364-.044,1.508-.087,3.364-.1S404.158,124.467,404.158,124.511Z" transform="translate(-329.76 -102.594)" fill="#263238"/>
        <path id="Path_29753" data-name="Path 29753" d="M404.185,127.27c0,.037-1.508.081-3.364.1s-3.37,0-3.37-.044,1.508-.081,3.37-.1S404.185,127.232,404.185,127.27Z" transform="translate(-329.767 -103.633)" fill="#263238"/>
        <path id="Path_29754" data-name="Path 29754" d="M310,127.084a.622.622,0,0,1,.137,0h1.825l-.037.037v-1.04a4.94,4.94,0,0,1,0-.623.554.554,0,0,1,.48-.442h.685a.561.561,0,0,1,.474.554v1.52l-.069-.069h1.813l-.068.075v-2.835a.586.586,0,0,0-.255-.43l-.791-.779-.766-.76-.374-.361a.822.822,0,0,0-.374-.28.5.5,0,0,0-.417.081c-.106.087-.224.224-.336.33l-.623.623c-.411.424-.835.816-1.146,1.184a1.3,1.3,0,0,0-.093.673v2.548a.841.841,0,0,1,0-.218v-2.648a.772.772,0,0,1,.1-.38c.336-.4.735-.773,1.146-1.209l.623-.66c.118-.118.212-.231.349-.349a.623.623,0,0,1,.53-.1.952.952,0,0,1,.43.305l.374.368.766.754c.262.255.53.511.8.779a1.73,1.73,0,0,1,.2.218.548.548,0,0,1,.093.305v2.909h-1.95v-1.589a.442.442,0,0,0-.368-.442H312.5a.442.442,0,0,0-.392.355v1.657H310Z" transform="translate(-296.799 -101.479)" fill="#263238"/>
        <rect id="Rectangle_2451" data-name="Rectangle 2451" width="51.31" height="10.479" transform="translate(16.69 92.235)" fill="#ebebeb"/>
        <rect id="Rectangle_2452" data-name="Rectangle 2452" width="51.31" height="10.479" transform="translate(16.69 107.442)" fill="#ebebeb"/>
        <path id="Path_29755" data-name="Path 29755" d="M360.229,306.2h-25.78a5.239,5.239,0,0,1-5.239-5.246h0a5.239,5.239,0,0,1,5.239-5.239h25.78a5.246,5.246,0,0,1,5.239,5.239h0a5.246,5.246,0,0,1-5.239,5.246Z" transform="translate(-304.041 -167.154)" fill="#0091ff"/>
        <path id="Path_29756" data-name="Path 29756" d="M325.386,248.363h-2.268a.4.4,0,0,1-.4-.4h0a1.508,1.508,0,0,1,1.508-1.514h.05a1.514,1.514,0,0,1,1.514,1.514h0a.4.4,0,0,1-.4.4Z" transform="translate(-301.594 -148.583)" fill="#e0e0e0"/>
        <path id="Path_29757" data-name="Path 29757" d="M325.507,244.633a.9.9,0,1,1-.9-.9A.9.9,0,0,1,325.507,244.633Z" transform="translate(-301.964 -147.558)" fill="#e0e0e0"/>
        <rect id="Rectangle_2453" data-name="Rectangle 2453" width="2.704" height="1.913" transform="translate(21.288 112.85)" fill="#e0e0e0"/>
        <path id="Path_29758" data-name="Path 29758" d="M325.785,269.839h-.91v-.592a.766.766,0,0,0-1.533,0v.592h-.9v-.592a1.676,1.676,0,0,1,3.345,0Z" transform="translate(-301.489 -156.585)" fill="#e0e0e0"/>
        <path id="Path_29759" data-name="Path 29759" d="M334.853,322.712v.91h1.19v.212h-1.19v.978h-.243V322.5h1.582v.212Z" transform="translate(-306.077 -177.254)" fill="#e0e0e0"/>
        <path id="Path_29760" data-name="Path 29760" d="M337.49,324.278a.854.854,0,0,1,.885-.878.885.885,0,0,1,0,1.763.86.86,0,0,1-.885-.885Zm1.526,0a.645.645,0,1,0-.645.645A.645.645,0,0,0,339.016,324.278Z" transform="translate(-307.162 -177.593)" fill="#e0e0e0"/>
        <path id="Path_29761" data-name="Path 29761" d="M341.962,323.4v.23h-.056a.553.553,0,0,0-.579.623v.885h-.237V323.4h.224v.374A.66.66,0,0,1,341.962,323.4Z" transform="translate(-308.52 -177.592)" fill="#e0e0e0"/>
        <path id="Path_29762" data-name="Path 29762" d="M344.649,323.416v1.526a.76.76,0,0,1-.866.866,1.2,1.2,0,0,1-.81-.268l.118-.174a1.072,1.072,0,0,0,.685.237c.442,0,.623-.206.623-.623v-.224a.779.779,0,0,1-.679.336.841.841,0,0,1,0-1.682.773.773,0,0,1,.685.349v-.336Zm-.224.829a.66.66,0,1,0-.66.623.623.623,0,0,0,.66-.623Z" transform="translate(-309.194 -177.597)" fill="#e0e0e0"/>
        <path id="Path_29763" data-name="Path 29763" d="M346.49,324.275a.885.885,0,1,1,.885.885.853.853,0,0,1-.885-.885Zm1.533,0a.27.27,0,1,0,.031,0Z" transform="translate(-310.555 -177.59)" fill="#e0e0e0"/>
        <path id="Path_29764" data-name="Path 29764" d="M350.844,324.782a.567.567,0,0,1-.368.118.455.455,0,0,1-.5-.5v-1.047h-.312v-.2h.312v-.38h.23v.38h.53v.2h-.53v1.034a.28.28,0,0,0,.305.318.411.411,0,0,0,.255-.087Z" transform="translate(-311.75 -177.356)" fill="#e0e0e0"/>
        <path id="Path_29765" data-name="Path 29765" d="M355.387,324.286a.835.835,0,0,1-.86.885.754.754,0,0,1-.66-.343v.966h-.237V323.42h.23v.361a.766.766,0,0,1,.673-.355.835.835,0,0,1,.853.86Zm-.23,0a.623.623,0,1,0-.161.477.623.623,0,0,0,.161-.477Z" transform="translate(-313.247 -177.601)" fill="#e0e0e0"/>
        <path id="Path_29766" data-name="Path 29766" d="M358.439,324.071v1.078h-.193v-.274a.623.623,0,0,1-.623.287c-.392,0-.623-.2-.623-.5s.174-.486.673-.486h.548v-.106c0-.3-.168-.461-.492-.461a.9.9,0,0,0-.579.206l-.106-.174a1.109,1.109,0,0,1,.71-.237.623.623,0,0,1,.685.673Zm-.237.554v-.28h-.542c-.336,0-.449.131-.449.305s.162.33.442.33a.555.555,0,0,0,.548-.355Z" transform="translate(-314.518 -177.591)" fill="#e0e0e0"/>
        <path id="Path_29767" data-name="Path 29767" d="M359.94,324.951l.106-.187a1.028,1.028,0,0,0,.623.2c.33,0,.467-.112.467-.287,0-.455-1.128-.093-1.128-.779,0-.287.243-.5.685-.5a1.19,1.19,0,0,1,.623.162l-.106.187a.879.879,0,0,0-.511-.15c-.312,0-.449.125-.449.287,0,.474,1.121.118,1.121.785,0,.3-.262.492-.716.492a1.14,1.14,0,0,1-.716-.212Z" transform="translate(-315.626 -177.593)" fill="#e0e0e0"/>
        <path id="Path_29768" data-name="Path 29768" d="M362.53,324.951l.106-.187a1.028,1.028,0,0,0,.623.2c.33,0,.467-.112.467-.287,0-.455-1.128-.093-1.128-.779,0-.287.243-.5.685-.5a1.189,1.189,0,0,1,.623.162l-.106.187a.878.878,0,0,0-.511-.15c-.312,0-.449.125-.449.287,0,.474,1.121.118,1.121.785,0,.3-.262.492-.716.492a1.14,1.14,0,0,1-.716-.212Z" transform="translate(-316.603 -177.593)" fill="#e0e0e0"/>
        <path id="Path_29769" data-name="Path 29769" d="M367.828,323.42l-.66,1.738h-.218l-.548-1.42-.548,1.42h-.231L365,323.42h.224l.542,1.477.561-1.477h.2l.554,1.477.548-1.477Z" transform="translate(-317.534 -177.601)" fill="#e0e0e0"/>
        <path id="Path_29770" data-name="Path 29770" d="M369.74,324.275a.885.885,0,1,1,.885.885.854.854,0,0,1-.885-.885Zm1.526,0a.623.623,0,0,0-.623-.673.679.679,0,0,0,0,1.352.623.623,0,0,0,.623-.679Z" transform="translate(-319.32 -177.59)" fill="#e0e0e0"/>
        <path id="Path_29771" data-name="Path 29771" d="M374.218,323.4v.23h-.056a.561.561,0,0,0-.586.623v.885h-.237V323.4h.224v.374A.66.66,0,0,1,374.218,323.4Z" transform="translate(-320.678 -177.592)" fill="#e0e0e0"/>
        <path id="Path_29772" data-name="Path 29772" d="M376.907,322.28v2.448h-.224v-.343a.766.766,0,0,1-.673.355.885.885,0,0,1,0-1.763.754.754,0,0,1,.66.343v-1.04Zm-.23,1.576a.623.623,0,1,0-.161.477A.623.623,0,0,0,376.676,323.856Z" transform="translate(-321.379 -177.171)" fill="#e0e0e0"/>
        <path id="Path_29773" data-name="Path 29773" d="M379.867,323.079c0-.237-.193-.4-.53-.4a.766.766,0,0,0-.623.268l-.174-.131a1.015,1.015,0,0,1,.822-.343c.461,0,.76.218.76.573,0,.567-.623.592-.623,1.065h-.243C379.269,323.559,379.867,323.509,379.867,323.079Zm-.623,1.564a.174.174,0,1,1,.168.168.168.168,0,0,1-.193-.143Z" transform="translate(-322.638 -177.242)" fill="#e0e0e0"/>
        <path id="Path_29774" data-name="Path 29774" d="M335.257,219.59v4.3h-.5l-2.579-3.208v3.208h-.623v-4.3h.5l2.579,3.208V219.59Z" transform="translate(-304.923 -138.457)" fill="#263238"/>
        <path id="Path_29775" data-name="Path 29775" d="M339.27,219.409a.4.4,0,0,1,.8,0,.386.386,0,0,1-.4.392.38.38,0,0,1-.4-.392Zm.106,1.009h.586v3.258h-.586Z" transform="translate(-307.833 -138.238)" fill="#263238"/>
        <path id="Path_29776" data-name="Path 29776" d="M341.7,222.875a1.626,1.626,0,0,1,1.726-1.657,1.445,1.445,0,0,1,1.327.692l-.449.293a1.009,1.009,0,0,0-.885-.467,1.146,1.146,0,1,0,0,2.293,1.022,1.022,0,0,0,.885-.467l.449.28a1.452,1.452,0,0,1-1.327.7,1.638,1.638,0,0,1-1.726-1.67Z" transform="translate(-308.749 -139.069)" fill="#263238"/>
        <path id="Path_29777" data-name="Path 29777" d="M349.021,222.213l-.679.623v.891h-.592V219.16h.592v2.928l1.782-1.62h.71l-1.371,1.346,1.508,1.913h-.729Z" transform="translate(-311.03 -138.295)" fill="#263238"/>
        <path id="Path_29778" data-name="Path 29778" d="M356.892,222.643v1.869h-.43v-1.832a.9.9,0,0,0-.972-1.034,1.065,1.065,0,0,0-1.134,1.165v1.7h-.436v-3.233h.417v.592a1.364,1.364,0,0,1,1.246-.623,1.246,1.246,0,0,1,1.308,1.4Z" transform="translate(-313.357 -139.081)" fill="#263238"/>
        <path id="Path_29779" data-name="Path 29779" d="M362.87,222.515v2.006h-.417v-.5a1.209,1.209,0,0,1-1.109.536c-.735,0-1.184-.38-1.184-.941s.318-.916,1.246-.916h1.028v-.2c0-.554-.312-.854-.916-.854a1.676,1.676,0,0,0-1.078.38l-.193-.324a2.025,2.025,0,0,1,1.315-.436,1.146,1.146,0,0,1,1.308,1.252Zm-.436,1.034v-.53h-1.016c-.623,0-.829.249-.829.579s.305.623.816.623A1.034,1.034,0,0,0,362.434,223.549Z" transform="translate(-315.709 -139.083)" fill="#263238"/>
        <path id="Path_29780" data-name="Path 29780" d="M371.769,222.639v1.869h-.436v-1.832c0-.685-.349-1.034-.928-1.034a1.04,1.04,0,0,0-1.084,1.165v1.7h-.436v-1.832c0-.685-.349-1.034-.935-1.034a1.04,1.04,0,0,0-1.084,1.165v1.7h-.436v-3.233h.417v.586a1.3,1.3,0,0,1,1.184-.623,1.159,1.159,0,0,1,1.152.679,1.414,1.414,0,0,1,1.283-.679,1.246,1.246,0,0,1,1.3,1.4Z" transform="translate(-318.073 -139.076)" fill="#263238"/>
        <path id="Path_29781" data-name="Path 29781" d="M379.513,223.023h-2.7a1.2,1.2,0,0,0,1.246,1.128,1.283,1.283,0,0,0,.991-.424l.243.28a1.707,1.707,0,0,1-2.941-1.121,1.576,1.576,0,1,1,3.146,0A.246.246,0,0,1,379.513,223.023Zm-2.7-.324H379.1a1.146,1.146,0,1,0-2.293,0Z" transform="translate(-321.811 -139.068)" fill="#263238"/>
        <path id="Path_29782" data-name="Path 29782" d="M349.71,333.19l.112-.23a1.1,1.1,0,0,0,.692.237c.361,0,.517-.137.517-.318,0-.511-1.246-.187-1.246-.966,0-.324.249-.623.8-.623a1.246,1.246,0,0,1,.673.187l-.118.255a1.109,1.109,0,0,0-.573-.168c-.355,0-.511.149-.511.33,0,.511,1.246.193,1.246.959,0,.318-.262.592-.81.592A1.245,1.245,0,0,1,349.71,333.19Z" transform="translate(-311.769 -180.568)" fill="#0091ff"/>
        <path id="Path_29783" data-name="Path 29783" d="M352.85,331.283a.193.193,0,1,1,.193.193.187.187,0,0,1-.193-.193Zm.05.486h.287v1.582H352.9Z" transform="translate(-312.953 -180.493)" fill="#0091ff"/>
        <path id="Path_29784" data-name="Path 29784" d="M355.727,332.172v1.371a.716.716,0,0,1-.822.81,1.171,1.171,0,0,1-.754-.237l.137-.218a.972.972,0,0,0,.623.206c.374,0,.542-.174.542-.529v-.125a.729.729,0,0,1-.567.243.766.766,0,0,1,0-1.533.71.71,0,0,1,.579.262v-.249Zm-.28.754a.5.5,0,0,0-.542-.517.517.517,0,1,0,.542.517Z" transform="translate(-313.432 -180.896)" fill="#0091ff"/>
        <path id="Path_29785" data-name="Path 29785" d="M359.091,332.844v.91H358.8v-.872c0-.311-.156-.467-.424-.467a.473.473,0,0,0-.5.53v.81h-.287v-1.582h.255v.243a.679.679,0,0,1,.573-.255.623.623,0,0,1,.673.685Z" transform="translate(-314.74 -180.894)" fill="#0091ff"/>
        <path id="Path_29786" data-name="Path 29786" d="M363.607,332.18v1.582h-.274v-.237a.668.668,0,0,1-1.215-.43v-.916h.287v.878c0,.311.15.467.424.467a.467.467,0,0,0,.492-.523v-.822Z" transform="translate(-316.446 -180.903)" fill="#0091ff"/>
        <path id="Path_29787" data-name="Path 29787" d="M367.008,332.963a.766.766,0,0,1-.8.81.673.673,0,0,1-.548-.255v.816h-.287v-2.162h.274v.255a.654.654,0,0,1,.561-.268.766.766,0,0,1,.8.8Zm-.293,0a.536.536,0,1,0-.53.561.523.523,0,0,0,.542-.561Z" transform="translate(-317.673 -180.895)" fill="#0091ff"/>
        <path id="Path_29788" data-name="Path 29788" d="M350.06,304.03l.137-.305a1.121,1.121,0,0,0,.685.231c.324,0,.461-.112.461-.268,0-.455-1.246-.156-1.246-.934,0-.336.268-.623.841-.623a1.32,1.32,0,0,1,.7.187l-.125.3a1.2,1.2,0,0,0-.573-.162c-.324,0-.455.125-.455.28,0,.449,1.246.156,1.246.928,0,.33-.274.623-.847.623a1.346,1.346,0,0,1-.822-.255Z" transform="translate(-311.901 -169.574)" fill="#fff"/>
        <path id="Path_29789" data-name="Path 29789" d="M353.22,302.066a.243.243,0,0,1,.48,0,.231.231,0,0,1-.243.231.224.224,0,0,1-.237-.231Zm.05.486h.374v1.595h-.374Z" transform="translate(-313.093 -169.474)" fill="#fff"/>
        <path id="Path_29790" data-name="Path 29790" d="M356.193,302.991v1.358a.754.754,0,0,1-.86.841,1.284,1.284,0,0,1-.779-.23l.168-.28a.959.959,0,0,0,.592.193c.349,0,.5-.162.5-.486v-.081a.7.7,0,0,1-.536.212.771.771,0,1,1,0-1.539.7.7,0,0,1,.554.224v-.212Zm-.368.754a.486.486,0,1,0-.486.455.455.455,0,0,0,.486-.474Z" transform="translate(-313.568 -169.894)" fill="#fff"/>
        <path id="Path_29791" data-name="Path 29791" d="M359.582,303.657v.91h-.374V303.7c0-.28-.143-.417-.38-.417a.424.424,0,0,0-.442.48v.8H358v-1.576h.355v.212a.679.679,0,0,1,.548-.224.623.623,0,0,1,.679.679Z" transform="translate(-314.895 -169.893)" fill="#fff"/>
        <path id="Path_29792" data-name="Path 29792" d="M362.55,302.066a.243.243,0,0,1,.48,0,.231.231,0,0,1-.243.231.224.224,0,0,1-.237-.231Zm.05.486h.374v1.595H362.6Z" transform="translate(-316.61 -169.474)" fill="#fff"/>
        <path id="Path_29793" data-name="Path 29793" d="M365.582,303.657v.91h-.374V303.7c0-.28-.143-.417-.38-.417a.424.424,0,0,0-.449.48v.8H364v-1.576h.355v.212a.673.673,0,0,1,.548-.224.623.623,0,0,1,.679.679Z" transform="translate(-317.157 -169.893)" fill="#fff"/>
      </g>
      <g id="freepik--Prototyping--inject-29" transform="translate(44.783 51.54)">
        <path id="Path_29794" data-name="Path 29794" d="M191.5,115H180.768a2.666,2.666,0,0,0-2.61,2.729v1.944a2.673,2.673,0,0,1-2.61,2.729H154.615a2.673,2.673,0,0,1-2.61-2.729v-1.95a2.673,2.673,0,0,0-2.6-2.729H136.224a8.448,8.448,0,0,0-8.454,8.448V258.99a8.454,8.454,0,0,0,8.448,8.454l55.285.031a8.454,8.454,0,0,0,8.454-8.448V123.475A8.454,8.454,0,0,0,191.5,115Z" transform="translate(-81.737 -82.526)" fill="#fff"/>
        <path id="Path_29795" data-name="Path 29795" d="M191.409,114.9h.293a6.509,6.509,0,0,1,.854.062,8.062,8.062,0,0,1,3.171,1.1,8.161,8.161,0,0,1,1.931,1.564,8.473,8.473,0,0,1,1.607,2.492,8.76,8.76,0,0,1,.623,3.433v3.981c0,11.264,0,27.549.031,47.684s0,44.1,0,70.71v12.666a9.27,9.27,0,0,1-.324,2.579,8.635,8.635,0,0,1-1.078,2.38,9.09,9.09,0,0,1-1.763,1.956,8.536,8.536,0,0,1-4.878,1.869c-1.776.05-3.532,0-5.314,0H136.735a8.934,8.934,0,0,1-5.5-1.52,8.616,8.616,0,0,1-3.352-4.629,9.264,9.264,0,0,1-.355-2.86V123.414a7.1,7.1,0,0,1,.05-1.028,8.577,8.577,0,0,1,5.065-6.928,8.828,8.828,0,0,1,3.738-.71h12.647a2.685,2.685,0,0,1,1.663.467,2.828,2.828,0,0,1,1.034,1.358,4.492,4.492,0,0,1,.168,1.67v.822a6.855,6.855,0,0,0,0,.8,2.7,2.7,0,0,0,.623,1.414,2.492,2.492,0,0,0,1.29.8,3.115,3.115,0,0,0,.76.075H175.6a2.536,2.536,0,0,0,1.034-.361,2.691,2.691,0,0,0,1.184-1.707,5.1,5.1,0,0,0,.069-1.022v-1.015a5.785,5.785,0,0,1,.044-.984,2.834,2.834,0,0,1,.318-.9,2.642,2.642,0,0,1,1.352-1.19,4.224,4.224,0,0,1,1.676-.181h.118a4.167,4.167,0,0,0-1.651.181,2.61,2.61,0,0,0-1.3,1.159,2.821,2.821,0,0,0-.312.885,5.492,5.492,0,0,0-.037.966V119a4.984,4.984,0,0,1-.062,1.047,2.8,2.8,0,0,1-1.246,1.763,2.573,2.573,0,0,1-1.072.38c-.392.037-.773,0-1.165,0H154.7a3.171,3.171,0,0,1-.8-.075,2.648,2.648,0,0,1-1.364-.847,2.853,2.853,0,0,1-.667-1.383,6.106,6.106,0,0,1,0-.822v-.8a4.535,4.535,0,0,0-.168-1.62,2.635,2.635,0,0,0-.978-1.283,2.492,2.492,0,0,0-1.576-.436H136.5a8.357,8.357,0,0,0-8.541,6.5,8.987,8.987,0,0,0-.168.984,6.97,6.97,0,0,0-.05,1.009V258.4a9.157,9.157,0,0,0,.349,2.791,8.386,8.386,0,0,0,3.252,4.5,8.722,8.722,0,0,0,5.37,1.483h55.179a8.3,8.3,0,0,0,4.747-1.838,8.9,8.9,0,0,0,1.713-1.906,8.2,8.2,0,0,0,1.053-2.318,8.779,8.779,0,0,0,.318-2.492V245.957c0-26.615,0-50.581.037-70.71s.037-36.42.044-47.684v-4a8.442,8.442,0,0,0-2.2-5.918,8.217,8.217,0,0,0-1.913-1.557,8.1,8.1,0,0,0-3.146-1.115,6.025,6.025,0,0,0-.854-.075Z" transform="translate(-81.643 -82.433)" fill="#263238"/>
        <path id="Path_29796" data-name="Path 29796" d="M227.006,135.23a48.927,48.927,0,0,1-7.956,0,48.922,48.922,0,0,1,7.956,0Z" transform="translate(-116.149 -90.088)" fill="#263238"/>
        <path id="Path_29797" data-name="Path 29797" d="M225.692,137.339a49,49,0,0,1-7.962,0,49,49,0,0,1,7.962,0Z" transform="translate(-115.652 -90.882)" fill="#263238"/>
        <path id="Path_29798" data-name="Path 29798" d="M226.346,139.31a48.922,48.922,0,0,1-7.956,0,48.927,48.927,0,0,1,7.956,0Z" transform="translate(-115.901 -91.626)" fill="#263238"/>
        <path id="Path_29799" data-name="Path 29799" d="M179.808,155.393l.3.087.866.305c.368.15.829.349,1.358.623a18.653,18.653,0,0,1,1.757,1.016,19.2,19.2,0,0,1,4.168,3.676,19.5,19.5,0,0,1,1.987,2.853c.33.523.586,1.109.878,1.688a11.151,11.151,0,0,1,.71,1.869,17.868,17.868,0,0,1,.561,8.859,19.855,19.855,0,0,1-4.361,9.208,18.365,18.365,0,0,1-4.18,3.663,19.263,19.263,0,0,1-5.308,2.33,20.465,20.465,0,0,1-12.036-.449,19.737,19.737,0,0,1-9.507-7.4,20.6,20.6,0,0,1-3.688-10.622,17.967,17.967,0,0,1,2.318-9.906,16.2,16.2,0,0,1,6.473-6.056,21.413,21.413,0,0,1,7-2.237,29.192,29.192,0,0,1,5.557-.249,31.616,31.616,0,0,1,4.7.542l-.311-.031-.9-.112c-.8-.087-1.975-.218-3.5-.274a30.34,30.34,0,0,0-5.52.3,21.338,21.338,0,0,0-6.915,2.268,15.987,15.987,0,0,0-6.355,5.987,17.7,17.7,0,0,0-2.249,9.75,20.31,20.31,0,0,0,3.651,10.429,19.4,19.4,0,0,0,9.345,7.264,20.148,20.148,0,0,0,11.837.455,18.385,18.385,0,0,0,9.345-5.881,19.718,19.718,0,0,0,4.324-9.065,17.706,17.706,0,0,0-.517-8.722c-.187-.623-.455-1.246-.692-1.869a10.059,10.059,0,0,0-.853-1.676,19.313,19.313,0,0,0-7.781-7.557c-.523-.255-.972-.467-1.339-.623l-.854-.324Z" transform="translate(-91.355 -97.466)" fill="#263238"/>
        <path id="Path_29800" data-name="Path 29800" d="M191.017,189.976a1.246,1.246,0,0,1-.15-.318l-.374-.928c-.318-.8-.766-1.981-1.452-3.364a14.6,14.6,0,0,0-3.159-4.361,9.731,9.731,0,0,0-2.642-1.726,7.258,7.258,0,0,0-3.3-.573,9.307,9.307,0,0,0-5.806,2.766,13.189,13.189,0,0,0-2.86,4.535,21.969,21.969,0,0,0-1.022,3.514c-.081.392-.143.716-.2.978a1.7,1.7,0,0,1-.081.336,1.247,1.247,0,0,1,0-.349,8.19,8.19,0,0,1,.137-.991,19.178,19.178,0,0,1,.934-3.57,13.083,13.083,0,0,1,2.86-4.666,9.544,9.544,0,0,1,5.993-2.878,7.476,7.476,0,0,1,3.451.623,9.688,9.688,0,0,1,2.716,1.8,14.329,14.329,0,0,1,3.165,4.467,32.607,32.607,0,0,1,1.364,3.42c.131.386.231.7.318.953a2.625,2.625,0,0,1,.106.33Z" transform="translate(-97.642 -106.42)" fill="#263238"/>
        <path id="Path_29801" data-name="Path 29801" d="M183.993,164.513h.237a2.492,2.492,0,0,1,.623.181,3.838,3.838,0,0,1,2.274,3.283,3.376,3.376,0,0,1-.5,1.906,3.987,3.987,0,0,1-3.894,1.869,4.1,4.1,0,0,1-3.171-2.959,3.632,3.632,0,0,1,0-1.969,4.094,4.094,0,0,1,.847-1.477,4.174,4.174,0,0,1,2.056-1.308,2.634,2.634,0,0,1,.66-.1h.23a5.492,5.492,0,0,0-.854.218,4.093,4.093,0,0,0-1.913,1.333,3.9,3.9,0,0,0-.741,1.42,3.346,3.346,0,0,0,0,1.819,3.806,3.806,0,0,0,2.928,2.722,3.738,3.738,0,0,0,3.595-1.719,3.115,3.115,0,0,0,.486-1.738,3.569,3.569,0,0,0-.411-1.545,3.738,3.738,0,0,0-1.651-1.632C184.311,164.6,183.987,164.551,183.993,164.513Z" transform="translate(-101.209 -100.98)" fill="#263238"/>
        <path id="Path_29802" data-name="Path 29802" d="M194.757,232.279a1.869,1.869,0,0,1-.436-.15c-.28-.106-.7-.249-1.246-.4a12.018,12.018,0,0,0-4.766-.28,11.419,11.419,0,0,0-3.171.928c-.542.243-1.09.542-1.7.779a3.314,3.314,0,0,1-2.025.23c-1.533-.4-1.757-2.4-3.115-2.666a2.064,2.064,0,0,0-1.788.885,12.273,12.273,0,0,1-1.676,1.632,2.716,2.716,0,0,1-1.153.442,2.666,2.666,0,0,1-1.2-.181,7.732,7.732,0,0,1-1.931-1.246,16.453,16.453,0,0,0-1.726-1.246,2.766,2.766,0,0,0-1.869-.449,2.629,2.629,0,0,0-1.557.972c-.417.473-.76.991-1.146,1.464a4.205,4.205,0,0,1-1.358,1.153,3.582,3.582,0,0,1-1.614.349,3.327,3.327,0,0,1-2.492-1.159,3.5,3.5,0,0,1-.779-1.956,3.115,3.115,0,0,1,.168-1.315,1.626,1.626,0,0,1,.2-.417,3.7,3.7,0,0,0-.243,1.719,3.439,3.439,0,0,0,.791,1.869,3.171,3.171,0,0,0,2.374,1.047,3.315,3.315,0,0,0,1.5-.343,3.819,3.819,0,0,0,1.246-1.1c.374-.455.716-.984,1.14-1.476a2.909,2.909,0,0,1,1.726-1.078,3.021,3.021,0,0,1,2.081.473,15.331,15.331,0,0,1,1.763,1.283,7.251,7.251,0,0,0,1.869,1.171,2.323,2.323,0,0,0,1.047.162,2.392,2.392,0,0,0,1-.386A12.259,12.259,0,0,0,176.3,231.4a4.4,4.4,0,0,1,.9-.754,1.763,1.763,0,0,1,1.177-.224,1.869,1.869,0,0,1,1.028.561,6.52,6.52,0,0,1,.679.86,2.847,2.847,0,0,0,1.458,1.277,3.015,3.015,0,0,0,1.838-.212c.623-.218,1.14-.511,1.695-.76a11.321,11.321,0,0,1,3.252-.9,11.681,11.681,0,0,1,4.834.38,10.422,10.422,0,0,1,1.246.461,3.676,3.676,0,0,1,.349.193Z" transform="translate(-93.134 -125.752)" fill="#263238"/>
        <path id="Path_29803" data-name="Path 29803" d="M190.879,242.762c0,.093-4.018.162-8.977.162s-8.971-.069-8.971-.162,4.012-.162,8.971-.162S190.879,242.675,190.879,242.762Z" transform="translate(-98.762 -130.635)" fill="#263238"/>
        <path id="Path_29804" data-name="Path 29804" d="M141.414,271.364a48.342,48.342,0,0,1-.075-5.682,50.164,50.164,0,0,1,.255-5.682,51.228,51.228,0,0,1,.069,5.688,51.084,51.084,0,0,1-.249,5.676Z" transform="translate(-86.833 -137.194)" fill="#263238"/>
        <path id="Path_29805" data-name="Path 29805" d="M194.956,278.49c0,.087-12.367-.037-27.611-.28s-27.611-.511-27.605-.623,12.36.037,27.611.28S194.956,278.4,194.956,278.49Z" transform="translate(-86.249 -143.811)" fill="#263238"/>
        <path id="Path_29806" data-name="Path 29806" d="M195.687,258.662c0,.093-11.955.349-26.7.573s-26.7.33-26.7.243,11.949-.343,26.7-.567S195.687,258.575,195.687,258.662Z" transform="translate(-87.211 -136.679)" fill="#263238"/>
        <path id="Path_29807" data-name="Path 29807" d="M227.529,271.07a59.085,59.085,0,0,1-.162-6.23,59.085,59.085,0,0,1,.162-6.23,61.165,61.165,0,0,1,.162,6.23A61.165,61.165,0,0,1,227.529,271.07Z" transform="translate(-119.277 -136.67)" fill="#263238"/>
        <path id="Path_29808" data-name="Path 29808" d="M150.692,266.63a.623.623,0,0,1,.38.031,1.669,1.669,0,0,1,.829.623,1.832,1.832,0,0,1,.305,1.52,1.813,1.813,0,0,1-3.2.4,1.869,1.869,0,0,1-.087-1.551,1.664,1.664,0,0,1,.654-.81c.212-.125.355-.137.355-.118a2.031,2.031,0,0,0-.791,1.009,1.651,1.651,0,0,0,.125,1.315,1.526,1.526,0,0,0,2.648-.33,1.626,1.626,0,0,0-.2-1.308A2.043,2.043,0,0,0,150.692,266.63Z" transform="translate(-89.663 -139.688)" fill="#263238"/>
        <path id="Path_29809" data-name="Path 29809" d="M143.582,299.872a45.181,45.181,0,0,1-.86-5.314,45.659,45.659,0,0,1-.542-5.358,45.9,45.9,0,0,1,.866,5.314,43.386,43.386,0,0,1,.536,5.358Z" transform="translate(-87.169 -148.203)" fill="#263238"/>
        <path id="Path_29810" data-name="Path 29810" d="M193.486,289.572c0,.087-11.289.162-25.213.162s-25.213-.075-25.213-.162,11.289-.162,25.213-.162S193.486,289.479,193.486,289.572Z" transform="translate(-87.501 -148.282)" fill="#263238"/>
        <path id="Path_29811" data-name="Path 29811" d="M226.8,299.73a63.848,63.848,0,0,1,0-9.09,63.843,63.843,0,0,1,0,9.09Z" transform="translate(-119.001 -148.746)" fill="#263238"/>
        <path id="Path_29812" data-name="Path 29812" d="M196.726,306.112c0,.093-11.444.162-25.543.162s-25.543-.069-25.543-.162,11.438-.162,25.543-.162S196.726,306.025,196.726,306.112Z" transform="translate(-88.474 -154.518)" fill="#263238"/>
        <path id="Path_29813" data-name="Path 29813" d="M150,296.7a.576.576,0,0,1,.33-.174,1.246,1.246,0,0,1,.991.224,1.284,1.284,0,0,1,.467.561,1.2,1.2,0,0,1,.037.847,1.558,1.558,0,0,1-1.483,1.09,1.7,1.7,0,0,1-1.47-1.115,1.645,1.645,0,0,1,.193-1.5,1.807,1.807,0,0,1,.76-.66c.218-.093.355-.1.361-.081a2.642,2.642,0,0,0-.928.86,1.458,1.458,0,0,0-.106,1.246,1.421,1.421,0,0,0,1.2.9,1.246,1.246,0,0,0,1.184-.854,1,1,0,0,0-.355-1.14,1.246,1.246,0,0,0-.835-.28C150.16,296.661,150.011,296.723,150,296.7Z" transform="translate(-89.654 -150.724)" fill="#263238"/>
        <path id="Path_29814" data-name="Path 29814" d="M159.065,333.809a.691.691,0,0,1-.193.05,4.111,4.111,0,0,1-.573.068,5.457,5.457,0,0,1-2.1-.318,6.5,6.5,0,0,1-2.635-1.719,5.651,5.651,0,0,1-.667-7.208,6.56,6.56,0,0,1,2.28-2.174,5.389,5.389,0,0,1,2.006-.692,2.979,2.979,0,0,1,.573-.037h.2a7.407,7.407,0,0,0-2.66.916,6.473,6.473,0,0,0-2.143,2.137,5.445,5.445,0,0,0,.623,6.853,6.573,6.573,0,0,0,2.492,1.707A7.477,7.477,0,0,0,159.065,333.809Z" transform="translate(-90.834 -160.485)" fill="#0091ff"/>
        <path id="Path_29815" data-name="Path 29815" d="M199.406,340.512c0,.093-7.071.168-15.793.168s-15.793-.075-15.793-.168,7.071-.162,15.793-.162S199.406,340.425,199.406,340.512Z" transform="translate(-96.836 -167.486)" fill="#0091ff"/>
        <path id="Path_29816" data-name="Path 29816" d="M197.259,332.3a7.146,7.146,0,0,0,1.751-.9,5.732,5.732,0,0,0,1.533-1.695,5.289,5.289,0,0,0,.723-2.9,5.538,5.538,0,0,0-1.29-3.364,6.8,6.8,0,0,0-3.595-2.062,19.015,19.015,0,0,0-4.685-.43l-5.1.062-17.924.156h-6.9a4.206,4.206,0,0,1-.517,0,3.117,3.117,0,0,1,.517-.044l1.477-.044,5.426-.118,17.917-.249,5.109-.056a19.453,19.453,0,0,1,4.76.455,7.04,7.04,0,0,1,3.738,2.187,5.763,5.763,0,0,1,1.315,3.52,5.476,5.476,0,0,1-.8,3.009,5.874,5.874,0,0,1-1.614,1.707,5.264,5.264,0,0,1-1.327.673c-.162.056-.287.081-.368.106Z" transform="translate(-94.359 -160.055)" fill="#0091ff"/>
        <path id="Path_29817" data-name="Path 29817" d="M196.057,332.019a1.729,1.729,0,0,1-.368.05l-1.065.081-3.919.237-12.94.623a11.213,11.213,0,0,1-4.268-.343c-.654-.237-1.246-.554-1.869-.754a2.647,2.647,0,0,0-1.763-.069c-1.09.4-1.869,1.414-2.972,1.67-1.084.374-2.305-.654-1.938-1.607l.1.131a1.458,1.458,0,0,0-1.246,1.7h-.118v-1.047a1.247,1.247,0,0,1,.031-.361,2.373,2.373,0,0,1,0,.361,9.522,9.522,0,0,0,.044,1.04v.555l-.143-.536a1.47,1.47,0,0,1,.174-1.128,1.589,1.589,0,0,1,1.2-.8h.162l-.062.15a.966.966,0,0,0,.38,1.059,1.4,1.4,0,0,0,1.308.237,4.2,4.2,0,0,0,1.4-.754,6.231,6.231,0,0,1,1.545-.947,2.953,2.953,0,0,1,1.95.05c.623.212,1.246.523,1.869.748a11.069,11.069,0,0,0,4.143.318l12.946-.561,3.925-.131h1.065A1.421,1.421,0,0,1,196.057,332.019Z" transform="translate(-95.237 -164.121)" fill="#263238"/>
        <path id="Path_29818" data-name="Path 29818" d="M196.646,348.992c0,.093-9.532.162-21.288.162s-21.288-.068-21.288-.162,9.526-.162,21.288-.162S196.646,348.936,196.646,348.992Z" transform="translate(-91.652 -170.683)" fill="#0091ff"/>
        <path id="Path_29819" data-name="Path 29819" d="M143.674,134.531a5.845,5.845,0,0,1,.156,1.159c.069.735.15,1.782.237,3.028v.137h-.143l-3.327.392-2.33.249H138.1v-.168c-.056-1.508-.093-2.81-.106-3.738a7.694,7.694,0,0,1,.037-1.47,7.745,7.745,0,0,1,.156,1.458c.069.922.143,2.224.218,3.738l-.168-.143,2.33-.268,3.327-.355-.125.15c-.062-1.246-.106-2.293-.125-3.028a5.807,5.807,0,0,1,.025-1.14Z" transform="translate(-85.586 -89.738)" fill="#263238"/>
        <path id="Path_29820" data-name="Path 29820" d="M139.283,130.11a29.419,29.419,0,0,1-2.61,2.187A30.451,30.451,0,0,1,134,134.4a21.911,21.911,0,0,1,5.283-4.292Z" transform="translate(-84.085 -88.226)" fill="#263238"/>
        <path id="Path_29821" data-name="Path 29821" d="M147.514,134.278a33.044,33.044,0,0,1-5.034-4.168,33.218,33.218,0,0,1,5.034,4.168Z" transform="translate(-87.282 -88.226)" fill="#263238"/>
        <rect id="Rectangle_2454" data-name="Rectangle 2454" width="11.906" height="11.906" transform="matrix(0.996, 0.093, -0.093, 0.996, 74.674, 8.678)" fill="#0091ff"/>
        <path id="Path_29822" data-name="Path 29822" d="M181.079,87.866a5.277,5.277,0,0,1,0-1.29v-.623a1.028,1.028,0,0,1,.106-.4.878.878,0,0,1,.324-.318,7.476,7.476,0,0,0,.71-.38,1.364,1.364,0,0,0,.467-.623,1.2,1.2,0,0,0-.38-1.364,1.5,1.5,0,0,0-1.19-.361,2.23,2.23,0,0,0-1.1.523.731.731,0,0,1,.193-.305,1.744,1.744,0,0,1,.872-.449,1.726,1.726,0,0,1,1.414.361,1.582,1.582,0,0,1,.517.735,1.452,1.452,0,0,1,0,.972,1.682,1.682,0,0,1-.586.766,6.924,6.924,0,0,1-.748.374.561.561,0,0,0-.311.492l-.069.623A5.359,5.359,0,0,1,181.079,87.866Z" transform="translate(-101.435 -70.179)" fill="#263238"/>
        <path id="Path_29823" data-name="Path 29823" d="M181.281,92.315v.137c0,.044,0,0,.056,0h0a.56.56,0,0,1-.037-.137c0-.044.081-.106.206,0a.262.262,0,0,1,.1.255.318.318,0,0,1-.567.112.274.274,0,0,1,0-.274C181.162,92.246,181.274,92.271,181.281,92.315Z" transform="translate(-101.805 -73.955)" fill="#263238"/>
        <rect id="Rectangle_2455" data-name="Rectangle 2455" width="11.413" height="11.413" transform="translate(7.099 1.685) rotate(-7.53)" fill="#0091ff"/>
        <rect id="Rectangle_2456" data-name="Rectangle 2456" width="11.459" height="11.459" transform="translate(21.487 15.456) rotate(5.143)" fill="#0091ff"/>
        <rect id="Rectangle_2457" data-name="Rectangle 2457" width="11.413" height="11.413" transform="matrix(0.996, 0.093, -0.093, 0.996, 41.423, 14.022)" fill="#263238"/>
        <rect id="Rectangle_2458" data-name="Rectangle 2458" width="11.413" height="11.413" transform="translate(34.009 0)" fill="#0091ff"/>
        <rect id="Rectangle_2459" data-name="Rectangle 2459" width="11.413" height="11.413" transform="translate(49.435 0)" fill="#0091ff"/>
        <rect id="Rectangle_2460" data-name="Rectangle 2460" width="11.413" height="11.413" transform="translate(21.051 0.193)" fill="#455a64"/>
        <path id="Path_29824" data-name="Path 29824" d="M112.514,100.569a9.744,9.744,0,0,1-2.492.162,9.744,9.744,0,0,1-2.492-.162,9.414,9.414,0,0,1,2.492-.162A9.414,9.414,0,0,1,112.514,100.569Z" transform="translate(-74.106 -77.019)" fill="#263238"/>
        <path id="Path_29825" data-name="Path 29825" d="M112.56,98.816c.056-.075.822.461,1.919.785l.28.081-.218.193-.081.069A7.582,7.582,0,0,1,112.7,101.3a7.433,7.433,0,0,1,1.545-1.589l.081-.075.056.274a3.4,3.4,0,0,1-1.825-1.09Z" transform="translate(-76.002 -76.425)" fill="#263238"/>
        <path id="Path_29826" data-name="Path 29826" d="M104.992,129.6a7.3,7.3,0,0,1-1.09.056l-2.972.069c-.623,0-1.3.087-2.056.081a7.171,7.171,0,0,1-2.361-.386,3.962,3.962,0,0,1-2.081-1.645,6.784,6.784,0,0,1-.835-2.716c-.392-3.819-.685-7.27-.9-9.769-.1-1.215-.174-2.212-.237-2.965a6.852,6.852,0,0,1-.037-1.09,6.641,6.641,0,0,1,.168,1.1c.081.754.193,1.744.33,2.953.262,2.548.623,5.968,1,9.75a6.436,6.436,0,0,0,.785,2.592,3.651,3.651,0,0,0,1.913,1.526,6.984,6.984,0,0,0,2.261.4c.723,0,1.414-.05,2.043-.044,1.246,0,2.274,0,2.978.031A7.409,7.409,0,0,1,104.992,129.6Z" transform="translate(-68.409 -81.108)" fill="#263238"/>
        <path id="Path_29827" data-name="Path 29827" d="M110.8,141.556a5.657,5.657,0,0,1,1.651-1.695l.112-.087v.274a4.112,4.112,0,0,1-1.738-1.4c.062-.069.8.573,1.869,1.109l.237.118-.212.156-.106.087a19.471,19.471,0,0,1-1.813,1.439Z" transform="translate(-75.339 -91.442)" fill="#263238"/>
        <rect id="Rectangle_2461" data-name="Rectangle 2461" width="10.996" height="10.996" transform="matrix(0.996, 0.093, -0.093, 0.996, 14.109, 110.996)" fill="#0091ff"/>
        <rect id="Rectangle_2462" data-name="Rectangle 2462" width="10.996" height="10.996" transform="translate(0 79.364)" fill="#455a64"/>
        <rect id="Rectangle_2463" data-name="Rectangle 2463" width="10.996" height="10.996" transform="translate(14.217 63.814)" fill="#0091ff"/>
        <rect id="Rectangle_2464" data-name="Rectangle 2464" width="11.023" height="11.023" transform="translate(14.516 78.891) rotate(-4.004)" fill="#e0e0e0"/>
        <rect id="Rectangle_2465" data-name="Rectangle 2465" width="10.996" height="10.996" transform="matrix(0.996, 0.093, -0.093, 0.996, 14.753, 93.711)" fill="#263238"/>
        <path id="Path_29828" data-name="Path 29828" d="M97.311,231.765s.442-.324,1.246-.916a21.331,21.331,0,0,0,3.015-2.828,21.717,21.717,0,0,0,3.333-5.127,20.4,20.4,0,0,0,1.863-7.233,15.65,15.65,0,0,0-1.246-7.3,11.176,11.176,0,0,0-3.807-4.672,9.756,9.756,0,0,0-3.738-1.614c-.966-.174-1.514-.15-1.508-.187a1.566,1.566,0,0,1,.392,0,6.5,6.5,0,0,1,1.134.081,9.569,9.569,0,0,1,3.869,1.545,11.264,11.264,0,0,1,3.944,4.741,15.725,15.725,0,0,1,1.246,7.476,20.154,20.154,0,0,1-1.913,7.326,21.268,21.268,0,0,1-3.426,5.146,19.314,19.314,0,0,1-3.115,2.779c-.392.3-.729.48-.947.623A1.594,1.594,0,0,1,97.311,231.765Z" transform="translate(-69.936 -115.283)" fill="#263238"/>
        <path id="Path_29829" data-name="Path 29829" d="M101.1,249.018a23.6,23.6,0,0,1-3.925.386H96.98v-.193a23.612,23.612,0,0,1,.623-3.881,24.153,24.153,0,0,1-.324,3.919l-.168-.181h0a24.3,24.3,0,0,1,3.987-.05Z" transform="translate(-70.129 -131.664)" fill="#263238"/>
        <path id="Path_29830" data-name="Path 29830" d="M128.308,179.112c0,.087-6.355.162-14.186.162s-14.192-.075-14.192-.162,6.355-.162,14.192-.162S128.308,179.025,128.308,179.112Z" transform="translate(-71.241 -106.639)" fill="#263238"/>
        <path id="Path_29831" data-name="Path 29831" d="M143.011,180.286a12.321,12.321,0,0,1,1.67-2.243l.075-.093.037.243a11.519,11.519,0,0,1-2.193-1.533,11.63,11.63,0,0,1,2.361,1.246l.162.1-.118.143-.075.087A11.882,11.882,0,0,1,143.011,180.286Z" transform="translate(-87.328 -105.775)" fill="#263238"/>
        <path id="Path_29832" data-name="Path 29832" d="M242.711,298.885a54.8,54.8,0,0,1-5.912.162,54.868,54.868,0,0,1-5.919-.162,52.019,52.019,0,0,1,5.918-.168,51.945,51.945,0,0,1,5.912.168Z" transform="translate(-120.609 -151.783)" fill="#263238"/>
        <path id="Path_29833" data-name="Path 29833" d="M248.2,300.366c-.044,0,0-.336.156-.86a6.374,6.374,0,0,1,.972-1.919v.174l-.143-.274a26.879,26.879,0,0,0-1.813-2.71,6.345,6.345,0,0,1,2.1,2.554l.143.28.05.093-.062.081a17.554,17.554,0,0,0-1.4,2.579Z" transform="translate(-126.826 -150.304)" fill="#263238"/>
        <rect id="Rectangle_2466" data-name="Rectangle 2466" width="16.173" height="16.173" transform="translate(124.554 141.041) rotate(-3.75)" fill="#0091ff"/>
        <path id="Path_29834" data-name="Path 29834" d="M268.48,299.114a2.43,2.43,0,1,0-3.769-.579h0l-.492.461.118.822-.773-.218-.623.579.118.822-.766-.218-.536.5.075.5-.467-.131-.312.293-.044.76,1.134.28,3.676-3.433A2.423,2.423,0,0,0,268.48,299.114Zm-.355-2.99a12.742,12.742,0,1,0-.019,0Z" transform="translate(-131.968 -150.354)" fill="none"/>
        <path id="Path_29835" data-name="Path 29835" d="M271.574,296.656a1.244,1.244,0,0,0-.567-.106.623.623,0,0,0-.43.33.554.554,0,0,0,.7.754.579.579,0,0,0,.361-.4c.081-.336-.106-.548-.062-.573s.318.125.287.623a.8.8,0,0,1-.467.623.841.841,0,0,1-1.084-1.165.8.8,0,0,1,.673-.417C271.469,296.326,271.612,296.65,271.574,296.656Z" transform="translate(-135.437 -150.887)" fill="#fff"/>
        <path id="Path_29836" data-name="Path 29836" d="M268.385,299.031a1.074,1.074,0,0,1-.125.143,2.611,2.611,0,0,1-.467.324,2.492,2.492,0,0,1-2.1.062h.106l-3.645,3.451-.056.05h-.081l-1.134-.28h-.125v-.125c0-.237.031-.5.044-.76v-.062l.044-.044.311-.287.062-.062h.087l.467.131-.2.174-.075-.5v-.087l.062-.056.53-.5.069-.056h.087l.766.218-.206.181c-.037-.262-.075-.542-.118-.822v-.087l.062-.056.168-.156.455-.424.062-.062h.087l.773.218-.206.181c-.037-.28-.081-.555-.118-.822v-.087l.062-.056.5-.461-.031.2a2.591,2.591,0,0,1-.112-2.311,2.535,2.535,0,0,1,4.616-.075,2.492,2.492,0,0,1-.069,2.274,1.739,1.739,0,0,1-.548.623,5.444,5.444,0,0,0,.449-.685,2.392,2.392,0,0,0,0-2.124,2.305,2.305,0,0,0-4.174.118,2.274,2.274,0,0,0,.112,2.031l.062.112-.093.087-.492.461.05-.143c.037.274.081.548.118.822l.037.249-.237-.068-.772-.218.156-.037-.455.43-.162.149.05-.143c.037.287.081.561.118.822v.249l-.237-.069-.766-.218.15-.037-.53.5.05-.143a4.119,4.119,0,0,0,.068.5l.037.237-.237-.062-.467-.137.15-.031-.311.287.05-.106c0,.262-.031.523-.05.76l-.112-.156,1.128.293-.131.031,3.738-3.4.044-.044h.062a2.417,2.417,0,0,0,1.975,0,5.883,5.883,0,0,0,.617-.318Z" transform="translate(-131.874 -150.271)" fill="#fff"/>
        <path id="Path_29837" data-name="Path 29837" d="M268.48,299.114a2.43,2.43,0,1,0-3.769-.579h0l-.492.461.118.822-.773-.218-.623.579.118.822-.766-.218-.536.5.075.5-.467-.131-.312.293-.044.76,1.134.28,3.676-3.433A2.423,2.423,0,0,0,268.48,299.114Zm-.355-2.99a12.742,12.742,0,1,0-.019,0Z" transform="translate(-131.968 -150.354)" fill="none"/>
        <path id="Path_29838" data-name="Path 29838" d="M271.574,296.656a1.244,1.244,0,0,0-.567-.106.623.623,0,0,0-.43.33.554.554,0,0,0,.7.754.579.579,0,0,0,.361-.4c.081-.336-.106-.548-.062-.573s.318.125.287.623a.8.8,0,0,1-.467.623.841.841,0,0,1-1.084-1.165.8.8,0,0,1,.673-.417C271.469,296.326,271.612,296.65,271.574,296.656Z" transform="translate(-135.437 -150.887)" fill="#fff"/>
        <path id="Path_29839" data-name="Path 29839" d="M268.385,299.031a1.074,1.074,0,0,1-.125.143,2.611,2.611,0,0,1-.467.324,2.492,2.492,0,0,1-2.1.062h.106l-3.645,3.451-.056.05h-.081l-1.134-.28h-.125v-.125c0-.237.031-.5.044-.76v-.062l.044-.044.311-.287.062-.062h.087l.467.131-.2.174-.075-.5v-.087l.062-.056.53-.5.069-.056h.087l.766.218-.206.181c-.037-.262-.075-.542-.118-.822v-.087l.062-.056.168-.156.455-.424.062-.062h.087l.773.218-.206.181c-.037-.28-.081-.555-.118-.822v-.087l.062-.056.5-.461-.031.2a2.591,2.591,0,0,1-.112-2.311,2.535,2.535,0,0,1,4.616-.075,2.492,2.492,0,0,1-.069,2.274,1.739,1.739,0,0,1-.548.623,5.444,5.444,0,0,0,.449-.685,2.392,2.392,0,0,0,0-2.124,2.305,2.305,0,0,0-4.174.118,2.274,2.274,0,0,0,.112,2.031l.062.112-.093.087-.492.461.05-.143c.037.274.081.548.118.822l.037.249-.237-.068-.772-.218.156-.037-.455.43-.162.149.05-.143c.037.287.081.561.118.822v.249l-.237-.069-.766-.218.15-.037-.53.5.05-.143a4.119,4.119,0,0,0,.068.5l.037.237-.237-.062-.467-.137.15-.031-.311.287.05-.106c0,.262-.031.523-.05.76l-.112-.156,1.128.293-.131.031,3.738-3.4.044-.044h.062a2.417,2.417,0,0,0,1.975,0,5.883,5.883,0,0,0,.617-.318Z" transform="translate(-131.874 -150.271)" fill="#fff"/>
        <path id="Path_29840" data-name="Path 29840" d="M257.635,314.2a1.866,1.866,0,0,1,.044.4c0,.3.044.679.075,1.152.05,1,.106,2.461.15,4.255s.062,3.931.05,6.311c0,1.184,0,2.43-.056,3.738a11.5,11.5,0,0,1-.15,1.987,2.822,2.822,0,0,1-1.047,1.813,4.242,4.242,0,0,1-1.962.7c-.673.1-1.321.168-1.969.237q-1.925.2-3.738.293c-2.374.125-4.517.125-6.311.068s-3.252-.174-4.249-.274c-.5-.044-.891-.093-1.153-.131a1.622,1.622,0,0,1-.4-.068,2,2,0,0,1,.4,0l1.153.068c1,.062,2.455.137,4.243.168s3.931,0,6.3-.137c1.177-.069,2.417-.174,3.7-.311.623-.069,1.3-.143,1.95-.237a4.106,4.106,0,0,0,1.819-.623,2.535,2.535,0,0,0,.928-1.62,11.832,11.832,0,0,0,.143-1.938q.037-1.938.075-3.738c.031-2.374.031-4.51,0-6.3s-.037-3.2-.05-4.249V314.6A1.636,1.636,0,0,1,257.635,314.2Z" transform="translate(-122.886 -157.628)" fill="#263238"/>
        <path id="Path_29841" data-name="Path 29841" d="M239.717,348.391a12.881,12.881,0,0,1-1.414-.816,33.9,33.9,0,0,0-3.532-1.869l-.23-.1.187-.168.33-.293c1.246-1.115,2.411-2.112,3.252-2.822a10.009,10.009,0,0,1,1.408-1.1,9.127,9.127,0,0,1-1.246,1.246c-.8.754-1.931,1.776-3.19,2.891l-.33.3-.044-.268a24.422,24.422,0,0,1,3.52,1.95A6.393,6.393,0,0,1,239.717,348.391Z" transform="translate(-121.989 -167.814)" fill="#263238"/>
        <path id="Path_29842" data-name="Path 29842" d="M218.56,127.35a4.492,4.492,0,0,1,1.738,0,6.554,6.554,0,0,1,4,2.442,6.031,6.031,0,0,1,1.246,3.034,6.629,6.629,0,0,1-.069,1.869,7.345,7.345,0,0,1-3.458,4.915,7.139,7.139,0,0,1-4.361.872,8.136,8.136,0,0,1-4.137-1.713,7.563,7.563,0,0,1-2.4-3.4,7.289,7.289,0,0,1-.305-3.738,5.744,5.744,0,0,1,1.514-2.922,6.025,6.025,0,0,1,2.274-1.477,5.364,5.364,0,0,1,2.025-.343,4.667,4.667,0,0,1,1.277.206,2.148,2.148,0,0,1,.411.174,6.179,6.179,0,0,0-1.695-.255,5.5,5.5,0,0,0-1.95.386,5.981,5.981,0,0,0-2.181,1.464,5.52,5.52,0,0,0-1.408,2.816,7.065,7.065,0,0,0,.318,3.613,7.37,7.37,0,0,0,2.324,3.258,7.862,7.862,0,0,0,3.975,1.632,6.853,6.853,0,0,0,4.187-.822,6.928,6.928,0,0,0,2.729-2.916,7.143,7.143,0,0,0,.623-1.776,6.561,6.561,0,0,0,.081-1.769,5.862,5.862,0,0,0-1.177-2.928,6.566,6.566,0,0,0-3.838-2.455A9.346,9.346,0,0,0,218.56,127.35Z" transform="translate(-112.999 -87.011)" fill="#0091ff"/>
        <path id="Path_29843" data-name="Path 29843" d="M241.679,114.39a2.318,2.318,0,0,1-.069.667,9.622,9.622,0,0,1-.511,1.757,10.934,10.934,0,0,1-9.214,6.922,9.227,9.227,0,0,1-1.825,0,2.442,2.442,0,0,1-.66-.112c0-.062.953.075,2.461-.118a11.3,11.3,0,0,0,9.027-6.778C241.486,115.331,241.611,114.377,241.679,114.39Z" transform="translate(-120.051 -82.299)" fill="#0091ff"/>
        <path id="Path_29844" data-name="Path 29844" d="M249.383,114.907a6.747,6.747,0,0,1-1.246-1.614h.249l-.075.075a7.2,7.2,0,0,1-1.6,1.427,6.983,6.983,0,0,1,1.371-1.651l.075-.075.143-.15.106.174a6.616,6.616,0,0,1,.978,1.813Z" transform="translate(-126.577 -81.745)" fill="#0091ff"/>
        <rect id="Rectangle_2467" data-name="Rectangle 2467" width="10.236" height="10.236" transform="translate(128.83 40.445)" fill="#0091ff"/>
        <rect id="Rectangle_2468" data-name="Rectangle 2468" width="10.236" height="10.236" transform="translate(128.385 30.068) rotate(-7.53)" fill="#0091ff"/>
        <rect id="Rectangle_2469" data-name="Rectangle 2469" width="10.236" height="10.236" transform="translate(126.789 19.064) rotate(-7.53)" fill="#455a64"/>
        <rect id="Rectangle_2470" data-name="Rectangle 2470" width="10.236" height="10.236" transform="translate(112.767 17.695) rotate(8.05)" fill="#0091ff"/>
        <path id="Path_29845" data-name="Path 29845" d="M255.193,102.118a10.971,10.971,0,0,1-2.635.231,10.752,10.752,0,0,1-2.648-.093,11.052,11.052,0,0,1,2.642-.231A10.653,10.653,0,0,1,255.193,102.118Z" transform="translate(-127.784 -77.622)" fill="#0091ff"/>
        <path id="Path_29846" data-name="Path 29846" d="M139.042,129.053a2.893,2.893,0,0,1,.411.1,4.361,4.361,0,0,1,1.078.536,5.813,5.813,0,0,1,2.106,6.728,7.382,7.382,0,0,1-1.975,2.922,7.924,7.924,0,0,1-3.426,1.869,7.681,7.681,0,0,1-4.174-.1,5.925,5.925,0,0,1-3.289-2.548,6.853,6.853,0,0,1-.984-3.769,6.71,6.71,0,0,1,1-3.377,7,7,0,0,1,2.174-2.168,8.03,8.03,0,0,1,4.205-1.277,6.427,6.427,0,0,1,1.2.081,1.7,1.7,0,0,1,.411.087c0,.037-.573-.087-1.607-.044a8.1,8.1,0,0,0-4.087,1.346,6.853,6.853,0,0,0-2.068,2.118,6.46,6.46,0,0,0-.928,3.24,6.566,6.566,0,0,0,.953,3.595,5.607,5.607,0,0,0,3.115,2.4,7.351,7.351,0,0,0,4,.1,7.7,7.7,0,0,0,3.3-1.763,7.1,7.1,0,0,0,1.919-2.785,5.607,5.607,0,0,0,.28-2.928,5.676,5.676,0,0,0-2.205-3.607A6.572,6.572,0,0,0,139.042,129.053Z" transform="translate(-82.119 -87.418)" fill="#0091ff"/>
        <path id="Path_29847" data-name="Path 29847" d="M170.962,104.7a1.245,1.245,0,0,1,.044.33c0,.212.044.53.037.934a17.713,17.713,0,0,1-.324,3.439,18.934,18.934,0,0,1-1.614,4.859,18.622,18.622,0,0,1-8.722,8.722,19.376,19.376,0,0,1-4.859,1.62,17.132,17.132,0,0,1-3.439.318,8.867,8.867,0,0,1-.941-.037,1.5,1.5,0,0,1-.324-.037c0-.031.455,0,1.246-.05a19.247,19.247,0,0,0,18.441-15.438,20.748,20.748,0,0,0,.424-3.4A12.174,12.174,0,0,1,170.962,104.7Z" transform="translate(-90.426 -78.646)" fill="#0091ff"/>
        <path id="Path_29848" data-name="Path 29848" d="M184.64,106.5a27.262,27.262,0,0,1-2.579-3.24h.268l-.118.218a28.742,28.742,0,0,1-2.33,3.738,30.923,30.923,0,0,1,2.043-3.881l.125-.218.125-.212.15.2a28.172,28.172,0,0,1,2.318,3.4Z" transform="translate(-101.382 -77.971)" fill="#0091ff"/>
      </g>
      <g id="freepik--Character--inject-29" transform="translate(205.106 82.965)">
        <circle id="Ellipse_309" data-name="Ellipse 309" cx="18.528" cy="18.528" r="18.528" transform="translate(0 50.09) rotate(-69.45)" fill="#0091ff"/>
        <path id="Path_29849" data-name="Path 29849" d="M349.239,184.687,336.86,181.8l.355-1.52a6.355,6.355,0,0,1,7.632-4.747h0a6.361,6.361,0,0,1,4.747,7.638Z" transform="translate(-320.887 -136.711)" fill="#fff"/>
        <path id="Path_29850" data-name="Path 29850" d="M352.254,169.076a3.738,3.738,0,1,1-2.791-4.486A3.738,3.738,0,0,1,352.254,169.076Z" transform="translate(-323.909 -132.613)" fill="#fff"/>
        <path id="Path_29851" data-name="Path 29851" d="M331.468,197.373s-.9-3.607-1.589-4.218a10.307,10.307,0,0,1-2.735-3.782c-.249-.928-.953-.754-.953-.754l.623,3.576-6.006-5.146a2.262,2.262,0,0,0,0,2.062c.567,1.146.336,1.009.336,1.009s-.885.349-.623,1.134a16.507,16.507,0,0,0,.81,1.782,2.118,2.118,0,0,0-.741,1.676,3.682,3.682,0,0,0-.411,1.744c0,1.059,1.514,3.327,1.514,3.327l8.491,5.993,4.585-5.862Z" transform="translate(-314.599 -141.118)" fill="#b78876"/>
        <path id="Path_29852" data-name="Path 29852" d="M327.6,192.54a11.778,11.778,0,0,0,1.7,1.657,12.462,12.462,0,0,0,1.869,1.489,23.676,23.676,0,0,0-3.557-3.146Z" transform="translate(-317.396 -143.187)" fill="#aa6550"/>
        <path id="Path_29853" data-name="Path 29853" d="M321.68,191.315a14.868,14.868,0,0,0,1.408,2.162,14.474,14.474,0,0,0,1.595,1.994,27.036,27.036,0,0,0-3-4.18Z" transform="translate(-315.164 -142.716)" fill="#aa6550"/>
        <path id="Path_29854" data-name="Path 29854" d="M321.69,196a4.169,4.169,0,0,0,.623,1.246,4.359,4.359,0,0,0,.816,1.153,4.167,4.167,0,0,0-.623-1.246A4.224,4.224,0,0,0,321.69,196Z" transform="translate(-315.168 -144.492)" fill="#aa6550"/>
        <path id="Path_29855" data-name="Path 29855" d="M320.882,199.077c-.062.037.093.38.287.8s.368.754.43.729,0-.4-.212-.835S320.95,199.027,320.882,199.077Z" transform="translate(-314.858 -145.65)" fill="#aa6550"/>
        <path id="Path_29856" data-name="Path 29856" d="M381.144,139.7a15.166,15.166,0,0,1,.467-2.243,2.193,2.193,0,0,1,.573-.928c.28-.268.623-.093.878.287a7,7,0,0,1,0,5.775c-.237.38-.623.548-.878.287a2.23,2.23,0,0,1-.573-.928,14.958,14.958,0,0,1-.467-2.249,1.82,1.82,0,0,0-.05.623,6.23,6.23,0,0,0,.268,1.707,2.442,2.442,0,0,0,.623,1.078.773.773,0,0,0,.754.174,1.246,1.246,0,0,0,.623-.511,6.952,6.952,0,0,0,0-6.149,1.246,1.246,0,0,0-.623-.511.754.754,0,0,0-.754.174,2.442,2.442,0,0,0-.623,1.078,6.23,6.23,0,0,0-.268,1.707,1.738,1.738,0,0,0,.05.629Z" transform="translate(-337.56 -121.899)" fill="#263238"/>
        <path id="Path_29857" data-name="Path 29857" d="M398.331,162.549h0a6.984,6.984,0,0,1-7.526-6.66c-.156-3.8-.293-7.644-.293-7.644s-5.763-.517-6.2-6.23-.28-18.864-.28-18.864h0a19.855,19.855,0,0,1,20.079,1.246l-.3,20.067.031,10.79C403.82,158.861,401.951,162.263,398.331,162.549Z" transform="translate(-338.662 -116.218)" fill="#b78876"/>
        <path id="Path_29858" data-name="Path 29858" d="M395.217,147.546a.539.539,0,0,0,.081.249.872.872,0,0,0,.623.318,1.576,1.576,0,0,0,1.477-1.582,1.663,1.663,0,0,0-.424-1.2,1.707,1.707,0,0,0-.9-.511c-.586-.125-.922.093-.9.131a7.049,7.049,0,0,1,.822.143,1.433,1.433,0,0,1,.984,1.42,1.321,1.321,0,0,1-1.065,1.308A1.1,1.1,0,0,1,395.217,147.546Z" transform="translate(-342.873 -125.181)" fill="#aa6550"/>
        <path id="Path_29859" data-name="Path 29859" d="M381.16,141.443a21.488,21.488,0,0,0,3.838.816,20.92,20.92,0,0,0,3.894.449,20.855,20.855,0,0,0-3.838-.816A20.257,20.257,0,0,0,381.16,141.443Z" transform="translate(-337.588 -123.913)" fill="#263238"/>
        <path id="Path_29860" data-name="Path 29860" d="M412.4,132.216a5.233,5.233,0,0,0-3.7-5.1,3.115,3.115,0,0,0-2.031-4.847,5.37,5.37,0,0,0-.623-.062,2.314,2.314,0,0,0-.318-.336c-1.776-1.582-1.95-4.025-3.993-5.246a6.324,6.324,0,0,0-6.548-.037c-1.346-.673-2.6-1.545-3.944-2.224-1.869-.941-4.118-1.5-5.968-.561-1.327.673-2.218,2-3.508,2.741-1.869,1.053-4.361.822-5.239,3.539a4.61,4.61,0,0,0,.037,2.9c1.246,3.688,5.838,5.158,9.121,3.557.068.623-.542,2.012.118,3.987.212.623.293,1.589,1.246,1.607a2.9,2.9,0,0,1,3.894-.866,3.321,3.321,0,0,1,1.115,4.143,4.361,4.361,0,0,1-2.791,2.124,2.18,2.18,0,0,0-1.707,2.361c.168,1.433,2.548,1.962,3.626,3.115,1.676,1.838,5.345,2.61,7.819,2.891,2.1.243,2.168.293,3.053-.991a5.93,5.93,0,0,0,1.95-.3,6.728,6.728,0,0,0,4.23-7.669,5.215,5.215,0,0,0,4.162-4.729Z" transform="translate(-335.762 -113.322)" fill="#263238"/>
        <path id="Path_29861" data-name="Path 29861" d="M408,140.614a3.465,3.465,0,0,1-.772.168,4.361,4.361,0,0,1-2.131-.3,4.211,4.211,0,0,1-2.305-2.162,4.523,4.523,0,0,1,.037-3.838l.056-.112.062.1a10.509,10.509,0,0,1-3.869-.255,4.865,4.865,0,0,1-2.6-1.738,3.65,3.65,0,0,1-.773-1.969,2.305,2.305,0,0,1,.056-.779,5.281,5.281,0,0,0,0,.773,3.738,3.738,0,0,0,.791,1.919,4.828,4.828,0,0,0,2.567,1.682,10.678,10.678,0,0,0,3.825.237h.112l-.05.106-.05.106a4.4,4.4,0,0,0-.044,3.738,4.155,4.155,0,0,0,2.224,2.131,4.523,4.523,0,0,0,2.093.33C407.721,140.689,408,140.6,408,140.614Z" transform="translate(-343.067 -119.508)" fill="#455a64"/>
        <path id="Path_29862" data-name="Path 29862" d="M416.44,132.967a7.92,7.92,0,0,0,.511-.623,4.586,4.586,0,0,0,.754-2.062,4.267,4.267,0,0,0-.81-3.084,4.492,4.492,0,0,0-3.483-1.682,4.193,4.193,0,0,0-1.607.3l-.075.037v-.087a4.236,4.236,0,0,0-1.7-2.847,4.068,4.068,0,0,0-2.573-.773,4.405,4.405,0,0,0-1.763.455c-.38.193-.567.343-.573.33a3.113,3.113,0,0,1,.554-.374,4.217,4.217,0,0,1,1.776-.492,4.093,4.093,0,0,1,2.648.76,4.361,4.361,0,0,1,1.757,2.928l-.087-.056a4.312,4.312,0,0,1,1.657-.311A4.585,4.585,0,0,1,417,127.124a4.361,4.361,0,0,1,.81,3.171,4.523,4.523,0,0,1-.8,2.075,3.047,3.047,0,0,1-.567.6Z" transform="translate(-346.622 -116.615)" fill="#455a64"/>
        <path id="Path_29863" data-name="Path 29863" d="M408.9,152.956a1.556,1.556,0,0,1-.23.162,2.062,2.062,0,0,1-.741.237,2.386,2.386,0,0,1-1.178-.143,2.187,2.187,0,0,1-1.146-.966h.093a3.856,3.856,0,0,1-3.314.854,3.769,3.769,0,0,1-2.274-1.514,2.14,2.14,0,0,1-.206-.355,4.467,4.467,0,0,0,1.034,1.09,3.819,3.819,0,0,0,1.47.66,3.738,3.738,0,0,0,1.962-.125,3.794,3.794,0,0,0,1.246-.7l.056-.05.037.069a2.124,2.124,0,0,0,1.078.922,2.4,2.4,0,0,0,1.134.168,2.617,2.617,0,0,0,.978-.305Z" transform="translate(-344.653 -127.613)" fill="#455a64"/>
        <path id="Path_29864" data-name="Path 29864" d="M423.315,141.817a3.458,3.458,0,0,0-2.492-1.931c-1.072-.2-3.009.916-3.009.916a1.246,1.246,0,0,0-.754-.573,2.592,2.592,0,0,0-2.324,4.317,2.61,2.61,0,1,0,3.663,3.4,2.741,2.741,0,0,0,4.361-3.246A2.4,2.4,0,0,0,423.315,141.817Z" transform="translate(-349.758 -123.328)" fill="#0091ff"/>
        <path id="Path_29865" data-name="Path 29865" d="M417.391,145.078a5.729,5.729,0,0,0-1.246-1.184,3.19,3.19,0,0,0-1.1-.461c-.305-.056-.5-.037-.5-.062a1.072,1.072,0,0,1,.511,0,2.735,2.735,0,0,1,1.159.442,3.588,3.588,0,0,1,.9.841A1.494,1.494,0,0,1,417.391,145.078Z" transform="translate(-350.177 -124.639)" fill="#fff"/>
        <path id="Path_29866" data-name="Path 29866" d="M419,140.47a1.389,1.389,0,0,1,.343.38,4.361,4.361,0,0,1,.561,1.109A2.716,2.716,0,0,1,420,143.7a4.916,4.916,0,0,0-.212-1.695A8.379,8.379,0,0,0,419,140.47Z" transform="translate(-351.854 -123.557)" fill="#fff"/>
        <path id="Path_29867" data-name="Path 29867" d="M422.753,140.15a1.757,1.757,0,0,1,.174,1.364,1.869,1.869,0,0,1-.748,1.165,3.5,3.5,0,0,0,.623-1.19A3.153,3.153,0,0,0,422.753,140.15Z" transform="translate(-353.053 -123.436)" fill="#fff"/>
        <path id="Path_29868" data-name="Path 29868" d="M425.767,140.25a2.106,2.106,0,0,1-.131,1.545,1.912,1.912,0,0,1-.76.816.915.915,0,0,1-.436.149,2.367,2.367,0,0,0,1.078-1.022,3.29,3.29,0,0,0,.243-1.04C425.779,140.424,425.748,140.256,425.767,140.25Z" transform="translate(-353.905 -123.474)" fill="#fff"/>
        <path id="Path_29869" data-name="Path 29869" d="M414.11,148.525a1.738,1.738,0,0,1,1.177-.361,2.293,2.293,0,0,1,1.215.218,8.717,8.717,0,0,0-1.215-.087A3.929,3.929,0,0,0,414.11,148.525Z" transform="translate(-350.011 -126.454)" fill="#fff"/>
        <path id="Path_29870" data-name="Path 29870" d="M414.11,152.216a.934.934,0,0,1,.118-.417,2.155,2.155,0,0,1,.623-.854,1.682,1.682,0,0,1,1.439-.262,2.654,2.654,0,0,0-1.364.368,2.355,2.355,0,0,0-.623.785A3.028,3.028,0,0,1,414.11,152.216Z" transform="translate(-350.011 -127.384)" fill="#fff"/>
        <path id="Path_29871" data-name="Path 29871" d="M433.915,147.005a3.928,3.928,0,0,0,.623-.131,2.642,2.642,0,0,0,1.383-1.09,2.816,2.816,0,0,0,.318-2.536,4.006,4.006,0,0,0-2.18-2.293,5.924,5.924,0,0,0-3.215-.336,10.154,10.154,0,0,0-2.567.785c-.7.305-1.246.592-1.639.791l-.442.218-.156.075a.981.981,0,0,1,.143-.093l.43-.249c.38-.206.922-.5,1.626-.829a10.361,10.361,0,0,1,2.585-.816,5.888,5.888,0,0,1,3.283.336,4.08,4.08,0,0,1,2.243,2.374,3.009,3.009,0,0,1,.131,1.452,2.928,2.928,0,0,1-.486,1.171,2.672,2.672,0,0,1-1.445,1.09A1.713,1.713,0,0,1,433.915,147.005Z" transform="translate(-354.508 -123.532)" fill="#455a64"/>
        <path id="Path_29872" data-name="Path 29872" d="M430.167,147.118c1.807-.368,2.642-2.785,1.794-4.417a4.849,4.849,0,0,0-4.7-2.261,11.461,11.461,0,0,0-5.084,2.018,2.847,2.847,0,0,0-3.607,1.371,2.86,2.86,0,0,0-1.084,5.607,4.778,4.778,0,1,0,7.407,5.557,4.747,4.747,0,0,0,5.271-7.868Z" transform="translate(-350.468 -123.539)" fill="#263238"/>
        <path id="Path_29873" data-name="Path 29873" d="M431.912,152.81a1.358,1.358,0,0,1,0,.66,2.168,2.168,0,0,1-1.171,1.371,4.274,4.274,0,0,1-2.785.336,4.71,4.71,0,0,1-2.978-1.969l.112-.031a2.941,2.941,0,0,1-1.545,2.392,3.24,3.24,0,0,1-3.084,0,4.161,4.161,0,0,1-1.869-1.869,2.991,2.991,0,0,1-.28-1.246,1.744,1.744,0,0,1,.455-1.159l.056.1a2.835,2.835,0,0,1-2.654-4.722,2.91,2.91,0,0,1,1.819-.854,1.869,1.869,0,0,1,.723.044,3.736,3.736,0,0,0-.723,0,2.891,2.891,0,0,0-1.763.866,2.741,2.741,0,0,0,2.573,4.554l.193-.037-.137.143a2.062,2.062,0,0,0-.143,2.28,4.025,4.025,0,0,0,1.825,1.832,3.115,3.115,0,0,0,2.966,0,2.835,2.835,0,0,0,1.489-2.286v-.187l.1.156a4.648,4.648,0,0,0,2.9,1.938,4.255,4.255,0,0,0,2.729-.305,2.174,2.174,0,0,0,1.165-1.321A2.035,2.035,0,0,0,431.912,152.81Z" transform="translate(-350.493 -125.567)" fill="#455a64"/>
        <path id="Path_29874" data-name="Path 29874" d="M432.626,147.57a1.489,1.489,0,0,0,.268-.623,1.832,1.832,0,0,0-.667-1.651,4.062,4.062,0,0,0-6.18,1.1l-.106.2v-.224a3.078,3.078,0,0,0-1.539-2.461,2.822,2.822,0,0,0-2.355-.2,3.115,3.115,0,0,0-1.346.9c-.255.293-.349.486-.361.48a2,2,0,0,1,.324-.511,3.115,3.115,0,0,1,1.352-.947,2.9,2.9,0,0,1,2.442.181,3.152,3.152,0,0,1,1.607,2.554l-.118-.031a4.361,4.361,0,0,1,.623-.841,4.124,4.124,0,0,1,5.738-.262,1.869,1.869,0,0,1,.654,1.732,1.245,1.245,0,0,1-.2.48A.623.623,0,0,1,432.626,147.57Z" transform="translate(-352.359 -124.676)" fill="#455a64"/>
        <path id="Path_29875" data-name="Path 29875" d="M430.6,157.655a2.488,2.488,0,0,1-.069.542,3.632,3.632,0,0,1-.623,1.383A3.57,3.57,0,0,1,428,160.913a3.738,3.738,0,0,1-2.953-.43h.081a5.489,5.489,0,0,1-4.7,2.928,5.408,5.408,0,0,1-4.43-2.3,4.635,4.635,0,0,1-.754-4.025,2.878,2.878,0,0,1,1.95-1.925,2.118,2.118,0,0,1,.766-.069,1.111,1.111,0,0,1,.268.044,2.491,2.491,0,0,0-1.015.075,2.816,2.816,0,0,0-1.869,1.906,4.542,4.542,0,0,0,.766,3.919,5.289,5.289,0,0,0,4.361,2.243,5.377,5.377,0,0,0,4.6-2.847v-.062l.056.037a3.657,3.657,0,0,0,2.866.436,3.52,3.52,0,0,0,1.869-1.283,3.787,3.787,0,0,0,.654-1.352C430.55,157.842,430.556,157.655,430.6,157.655Z" transform="translate(-350.371 -129.067)" fill="#455a64"/>
        <path id="Path_29876" data-name="Path 29876" d="M428.938,150.314a1.6,1.6,0,0,1-.262.361,2.779,2.779,0,0,1-1,.692,2.685,2.685,0,0,1-1.8.081,2.853,2.853,0,0,1-1.695-1.42l.087.031-.274.1a3.177,3.177,0,0,1-2.311-.187,2.99,2.99,0,0,1-1.333-1.352,3.114,3.114,0,0,1-.318-1.246,1.925,1.925,0,0,1,.037-.473,3.488,3.488,0,0,0,.361,1.676,2.959,2.959,0,0,0,1.308,1.283,3.04,3.04,0,0,0,2.212.168.859.859,0,0,0,.268-.093h.056v.056a2.754,2.754,0,0,0,1.614,1.364,2.579,2.579,0,0,0,1.732-.056A3,3,0,0,0,428.938,150.314Z" transform="translate(-352.241 -125.981)" fill="#455a64"/>
        <path id="Path_29877" data-name="Path 29877" d="M437.554,408.28l1.807,33.474-12.124,2.928-2.417-32.695Z" transform="translate(-354.048 -224.522)" fill="#b78876"/>
        <path id="Path_29878" data-name="Path 29878" d="M441.185,461.55l2.062,9.083H429.3l-.6-5.912Z" transform="translate(-355.511 -244.605)" fill="#0091ff"/>
        <path id="Path_29879" data-name="Path 29879" d="M429.2,473.717a9.906,9.906,0,0,0,2.031.118c1.246,0,3,0,4.909-.093l4.891-.206a11.719,11.719,0,0,0,2.031-.162,9.725,9.725,0,0,0-2.037-.112c-1.246,0-2.99,0-4.9.093l-4.891.206A11.42,11.42,0,0,0,429.2,473.717Z" transform="translate(-355.7 -249.016)" fill="#263238"/>
        <path id="Path_29880" data-name="Path 29880" d="M438.642,464.39a22.342,22.342,0,0,0,.386,5.856,22.342,22.342,0,0,0-.386-5.856Z" transform="translate(-359.229 -245.675)" fill="#263238"/>
        <g id="Group_1306" data-name="Group 1306" transform="translate(73.656 224.365)" opacity="0.6">
          <path id="Path_29881" data-name="Path 29881" d="M443.53,475.123H429.581l-.131-1.321,13.831-.343.249,1.508" transform="translate(-429.45 -473.46)" fill="#fff"/>
        </g>
        <path id="Path_29882" data-name="Path 29882" d="M363.095,434.4l-2.941,22.179-10.734-.748,2.255-20.328Z" transform="translate(-325.622 -234.369)" fill="#b78876"/>
        <path id="Path_29883" data-name="Path 29883" d="M341.824,464.94h0s-12.055,4.074-12.254,6.274l23.051.667.206-6.024-.853.168a17.157,17.157,0,0,1-10.149-1.084Z" transform="translate(-318.139 -245.883)" fill="#0091ff"/>
        <g id="Group_1307" data-name="Group 1307" transform="translate(30.891 221.001)" opacity="0.6">
          <path id="Path_29884" data-name="Path 29884" d="M361.911,468.084a.935.935,0,0,1,.623,1.09.9.9,0,0,1-1.078.623.991.991,0,0,1-.623-1.159.941.941,0,0,1,1.19-.523" transform="translate(-360.807 -468.059)" fill="#fff"/>
        </g>
        <g id="Group_1308" data-name="Group 1308" transform="translate(11.438 224.135)" opacity="0.6">
          <path id="Path_29885" data-name="Path 29885" d="M352.631,474.959V473.09l-22.1.056s-1.04.417-.947,1.146Z" transform="translate(-329.58 -473.09)" fill="#fff"/>
        </g>
        <path id="Path_29886" data-name="Path 29886" d="M348.65,464.675c0,.112.561.181,1.1.561s.829.86.928.816-.044-.7-.7-1.14S348.625,464.569,348.65,464.675Z" transform="translate(-325.332 -245.749)" fill="#263238"/>
        <path id="Path_29887" data-name="Path 29887" d="M344.719,466.192c-.031.112.455.318.822.8s.461,1,.573.991.206-.623-.262-1.246S344.725,466.086,344.719,466.192Z" transform="translate(-323.85 -246.337)" fill="#263238"/>
        <path id="Path_29888" data-name="Path 29888" d="M341.868,469.619c.1,0,.274-.536,0-1.159s-.791-.885-.841-.791.262.43.48.947S341.756,469.6,341.868,469.619Z" transform="translate(-322.456 -246.904)" fill="#263238"/>
        <path id="Path_29889" data-name="Path 29889" d="M349.05,463.538a2.186,2.186,0,0,0,1.159,0,4.868,4.868,0,0,0,1.215-.336,4.789,4.789,0,0,0,.673-.33,1.376,1.376,0,0,0,.361-.262.5.5,0,0,0,.068-.623.623.623,0,0,0-.486-.268,1.545,1.545,0,0,0-.436.044,4.9,4.9,0,0,0-.723.224,3.93,3.93,0,0,0-1.09.673c-.548.48-.741.891-.7.916s.324-.305.878-.7a4.427,4.427,0,0,1,1.047-.555,4.181,4.181,0,0,1,.667-.181c.249-.062.455-.056.517.056s0,.056-.031.125a1.013,1.013,0,0,1-.262.193,5.023,5.023,0,0,1-.623.33,6.888,6.888,0,0,1-1.128.4,7.4,7.4,0,0,0-1.1.293Z" transform="translate(-325.483 -244.668)" fill="#263238"/>
        <path id="Path_29890" data-name="Path 29890" d="M348.416,462.672a1.832,1.832,0,0,0,.336-1.1,3.737,3.737,0,0,0-.118-1.246,3.858,3.858,0,0,0-.274-.71.966.966,0,0,0-.723-.623.542.542,0,0,0-.486.311,1.521,1.521,0,0,0-.131.417,2.353,2.353,0,0,0,0,.779,2.629,2.629,0,0,0,.455,1.209c.436.623.9.76.91.716a4.887,4.887,0,0,1-.673-.866,2.741,2.741,0,0,1-.336-1.1,2.437,2.437,0,0,1,.044-.667c.044-.243.143-.436.23-.411a.834.834,0,0,1,.393.393,4,4,0,0,1,.461,1.794C348.491,462.236,348.354,462.653,348.416,462.672Z" transform="translate(-324.706 -243.639)" fill="#263238"/>
        <path id="Path_29891" data-name="Path 29891" d="M399.541,254.21s8.51,14.217,8.51,22.721l2.1,103.58-13.451,3.2L386.439,282.494s-24.82,101.48-25.636,101.48-13.033-2.181-13.033-2.181L366.323,254.7Z" transform="translate(-325 -166.437)" fill="#263238"/>
        <path id="Path_29892" data-name="Path 29892" d="M422.366,295.14a1.191,1.191,0,0,0,0,.262,6.208,6.208,0,0,0,.112.76c.106.691.262,1.67.461,2.922.417,2.536,1,6.23,1.676,10.741,1.371,9.058,3.078,21.63,4.511,35.586s2.3,26.6,2.8,35.76c.249,4.585.43,8.292.536,10.859.056,1.246.106,2.255.137,2.953,0,.324.031.579.044.766a1.248,1.248,0,0,0,.031.262,1.649,1.649,0,0,0,0-.262v-.766c0-.7-.037-1.695-.069-2.959-.062-2.567-.2-6.28-.417-10.865-.43-9.177-1.246-21.842-2.691-35.785s-3.177-26.515-4.616-35.586c-.716-4.535-1.333-8.2-1.794-10.728-.224-1.246-.4-2.224-.53-2.909l-.149-.754A1.833,1.833,0,0,0,422.366,295.14Z" transform="translate(-353.12 -181.868)" fill="#455a64"/>
        <path id="Path_29893" data-name="Path 29893" d="M377.34,297.89c-.106,0-4.205,22.715-9.164,50.768s-8.9,50.849-8.8,50.849,4.2-22.708,9.164-50.774S377.44,297.909,377.34,297.89Z" transform="translate(-329.376 -182.904)" fill="#455a64"/>
        <path id="Path_29894" data-name="Path 29894" d="M409.754,282.463a1.247,1.247,0,0,0,.143-.262c.081-.174.2-.43.343-.766a27.71,27.71,0,0,0,1-2.916,29.786,29.786,0,0,0,.959-10.111c-.069-1-.2-1.956-.355-2.884a26.748,26.748,0,0,0-.623-2.635c-.473-1.657-.966-3.115-1.389-4.361s-.791-2.218-1.053-2.9l-.312-.779a1,1,0,0,0-.131-.262,1.62,1.62,0,0,0,.069.287c.075.218.156.48.255.8.243.741.561,1.732.953,2.928s.866,2.71,1.314,4.361c.231.822.455,1.695.623,2.6a25.429,25.429,0,0,1,.349,2.86,31.2,31.2,0,0,1-.86,10.03c-.312,1.246-.66,2.249-.891,2.934a7.712,7.712,0,0,0-.4,1.072Z" transform="translate(-347.835 -166.58)" fill="#455a64"/>
        <path id="Path_29895" data-name="Path 29895" d="M397.9,271.343a1.257,1.257,0,0,0,0,.2v.548c0,.511-.056,1.2-.087,2.043-.062,1.782-.15,4.249-.255,7.208l.087-.125-5.177,2.106h.143l-4.205-2.561-.274-.162.081.125c-.318-3.42-.623-6.635-.872-9.407l-.143.156,7.738-.075,2.205-.037h.81a6.487,6.487,0,0,0-.748,0l-2.174-.037-7.831-.075H387v.156c.249,2.779.53,5.987.835,9.407v.087l.069.037.274.168,4.211,2.548.069.044h.069l5.165-2.143.087-.031v-.093c.044-3,.081-5.5.112-7.3v-2.012C397.89,271.618,397.909,271.337,397.9,271.343Z" transform="translate(-339.79 -172.861)" fill="#455a64"/>
        <path id="Path_29896" data-name="Path 29896" d="M429.715,267a4.015,4.015,0,0,0,.087.7c.087.442.174,1.109.293,1.869l1.078,6.66.056-.137-3.912,2.9h.137l-4.754-1.327-.243-.062.112.106-2.492-8.516-.106.174,7.021-1.67,2-.5c.467-.118.723-.187.729-.2a5.516,5.516,0,0,0-.685.125l-1.981.411-7.146,1.564-.149.031.044.143c.723,2.492,1.564,5.433,2.461,8.535v.087h.087l.243.069,4.753,1.308h.075l.062-.05,3.888-2.928.075-.05v-.081c-.5-2.76-.928-5.065-1.246-6.728-.15-.766-.268-1.383-.361-1.869a5.151,5.151,0,0,0-.125-.567Z" transform="translate(-352.141 -171.259)" fill="#455a64"/>
        <path id="Path_29897" data-name="Path 29897" d="M392.14,296.1a54.038,54.038,0,0,0,5.725,1.408,53.124,53.124,0,0,0,5.788,1.09,54.138,54.138,0,0,0-5.719-1.408,53.345,53.345,0,0,0-5.794-1.09Z" transform="translate(-341.728 -182.23)" fill="#455a64"/>
        <path id="Path_29898" data-name="Path 29898" d="M419,295.485a5.035,5.035,0,0,0,1.464,0,24.169,24.169,0,0,0,3.5-.548,23.324,23.324,0,0,0,3.383-1.034,5.185,5.185,0,0,0,1.321-.623,9.113,9.113,0,0,0-1.4.424c-.853.28-2.043.623-3.383.935a34.856,34.856,0,0,1-3.451.623A8.356,8.356,0,0,0,419,295.485Z" transform="translate(-351.854 -181.167)" fill="#455a64"/>
        <path id="Path_29899" data-name="Path 29899" d="M392.2,171.112l1.483-3.046,12.884-.486,2.018,3.962H392.412" transform="translate(-341.751 -133.777)" fill="#0091ff"/>
        <path id="Path_29900" data-name="Path 29900" d="M337.531,205.27l-6.361,6.137,16.291,14.572,4.766-11.239Z" transform="translate(-318.742 -147.987)" fill="#0091ff"/>
        <path id="Path_29901" data-name="Path 29901" d="M435.658,225.8l-12.4-4.922,2.766-10.273,10.105,3.439Z" transform="translate(-353.46 -150)" fill="#0091ff"/>
        <path id="Path_29902" data-name="Path 29902" d="M356.942,214.3c-3.115-1.533-3.881-5.221-2.374-8.323l12.846-27.468a5.046,5.046,0,0,1,1.3-1.769,14.509,14.509,0,0,1,10.591-3.638l13.4-.355s10.522,0,14.472,8.3c.293.623,6.411,12.74,10.441,20.733a6.921,6.921,0,0,1-3.794,9.613h0a6.921,6.921,0,0,1-8.722-3.663l-4.361-9.769-2.76,13.993,3.975,11.532-33.224.455,2.56-15.425.8-11-6.735,13.893a6.286,6.286,0,0,1-8.454,2.884Z" transform="translate(-327.282 -135.727)" fill="#0091ff"/>
        <g id="Group_1309" data-name="Group 1309" transform="translate(50.717 65.873)" opacity="0.2">
          <path id="Path_29903" data-name="Path 29903" d="M411.55,229.158c-2.492,1.869-6.23,1.246-9.314.741a13.463,13.463,0,0,1-8.1-4.4,5.433,5.433,0,0,1-1.508-3.838,2.75,2.75,0,0,1,2.766-2.592c1.607.193,2.38,1.994,3.152,3.414a12.46,12.46,0,0,0,12.971,6.087A.323.323,0,0,1,411.55,229.158Z" transform="translate(-392.629 -219.057)"/>
        </g>
        <g id="Group_1310" data-name="Group 1310" transform="translate(43.777 54.355)" opacity="0.2">
          <path id="Path_29904" data-name="Path 29904" d="M386.792,200.57c-.785,6.317-.436,5.838-1.751,12.068-.623,3.065-1.439,6.261-3.551,8.572l1.047-13.2Z" transform="translate(-381.49 -200.57)"/>
        </g>
        <path id="Path_29905" data-name="Path 29905" d="M410.477,250.014l.953-2.772-2.48-1.651-30.471-2.511-2.149,4.037.922,3.352Z" transform="translate(-335.768 -162.241)" fill="#0091ff"/>
        <path id="Path_29906" data-name="Path 29906" d="M429.32,215.39a8.1,8.1,0,0,0,.679,1.558c.461.941,1.134,2.224,1.95,3.6s1.62,2.592,2.224,3.451a8.317,8.317,0,0,0,1.04,1.339,9.856,9.856,0,0,0-.854-1.47c-.548-.885-1.315-2.112-2.131-3.483s-1.514-2.635-2.031-3.545a8.667,8.667,0,0,0-.878-1.452Z" transform="translate(-355.745 -151.802)" fill="#263238"/>
        <path id="Path_29907" data-name="Path 29907" d="M433.954,223.85a4.112,4.112,0,0,0,.212,2.293,4.037,4.037,0,0,0,1.165,1.994c.081-.05-.48-.91-.854-2.087S434.06,223.844,433.954,223.85Z" transform="translate(-357.464 -154.991)" fill="#263238"/>
        <path id="Path_29908" data-name="Path 29908" d="M381.3,179.49c0,.05.554.255,1.383.772a8.8,8.8,0,0,1,2.7,2.617,8.927,8.927,0,0,1,1.333,3.52c.143.959.1,1.576.156,1.576a4.074,4.074,0,0,0,.069-1.607,8.03,8.03,0,0,0-4.137-6.3,4.149,4.149,0,0,0-1.5-.573Z" transform="translate(-337.641 -138.268)" fill="#263238"/>
        <path id="Path_29909" data-name="Path 29909" d="M424.827,218.672c.087,0,1.576-6.348,3.333-14.217s3.115-14.267,3.022-14.285-1.582,6.342-3.339,14.217S424.734,218.653,424.827,218.672Z" transform="translate(-354.049 -142.294)" fill="#263238"/>
        <path id="Path_29910" data-name="Path 29910" d="M354,221.03a10.831,10.831,0,0,0,1.464-1.377,10.594,10.594,0,0,0,1.427-1.433,4.66,4.66,0,0,0-1.651,1.2A4.485,4.485,0,0,0,354,221.03Z" transform="translate(-327.349 -152.869)" fill="#263238"/>
        <path id="Path_29911" data-name="Path 29911" d="M372,222.173a5.612,5.612,0,0,0,.511-.841c.311-.548.741-1.358,1.246-2.361,1.047-2.006,2.448-4.8,3.975-7.893s2.934-5.881,3.975-7.893l1.246-2.374a5.468,5.468,0,0,0,.424-.891,5.032,5.032,0,0,0-.536.829c-.324.542-.779,1.339-1.321,2.33-1.1,1.981-2.536,4.76-4.062,7.856l-3.894,7.931c-.48.978-.878,1.788-1.177,2.411a6.237,6.237,0,0,0-.386.9Z" transform="translate(-334.135 -145.97)" fill="#263238"/>
        <path id="Path_29912" data-name="Path 29912" d="M391.17,222v.218a4.278,4.278,0,0,0,.1.623,8.1,8.1,0,0,0,.829,2.149,12.167,12.167,0,0,0,5.607,4.984,24.38,24.38,0,0,0,7.326,1.825c.959.112,1.738.174,2.274.206a4.541,4.541,0,0,0,.841,0,3.968,3.968,0,0,0-.829-.15l-2.261-.305a26.789,26.789,0,0,1-7.214-1.869,12.46,12.46,0,0,1-5.545-4.791A11.837,11.837,0,0,1,391.17,222Z" transform="translate(-341.362 -154.294)" fill="#263238"/>
        <path id="Path_29913" data-name="Path 29913" d="M401.9,247.858c0,.087,4.112.455,9.2.81s9.22.573,9.227.48-4.112-.449-9.2-.8S401.906,247.771,401.9,247.858Z" transform="translate(-345.408 -164.035)" fill="#263238"/>
        <path id="Path_29914" data-name="Path 29914" d="M392.914,243.9a14.952,14.952,0,0,0-.667,6.292c.093,0,.137-1.42.318-3.152S393,243.925,392.914,243.9Z" transform="translate(-341.736 -162.55)" fill="#263238"/>
        <path id="Path_29915" data-name="Path 29915" d="M389.7,240.71a3.977,3.977,0,0,0-.28,1.246,15.674,15.674,0,0,0-.081,3.115,15.238,15.238,0,0,0,.517,3.065,4,4,0,0,0,.449,1.209c.1,0-.486-1.9-.623-4.292S389.8,240.729,389.7,240.71Z" transform="translate(-340.654 -161.348)" fill="#263238"/>
        <path id="Path_29916" data-name="Path 29916" d="M392.15,173.144a65.846,65.846,0,0,0,6.647-.206c3.663-.212,6.629-.449,6.622-.536a65.743,65.743,0,0,0-6.641.206C395.109,172.814,392.144,173.056,392.15,173.144Z" transform="translate(-341.732 -135.591)" fill="#263238"/>
        <path id="Path_29917" data-name="Path 29917" d="M378.931,173.252a3.606,3.606,0,0,1-.436.069l-1.246.187-1.956.349a8.615,8.615,0,0,0-2.492.76,12.724,12.724,0,0,0-2.635,1.726,10.441,10.441,0,0,0-2.255,2.8c-1.14,2.293-2.311,4.891-3.595,7.576L357.8,200.5c-.829,1.732-1.514,3.115-2,4.162-.237.467-.417.841-.561,1.128a1.774,1.774,0,0,1-.218.38,2.239,2.239,0,0,1,.156-.411c.131-.293.3-.673.5-1.146l1.913-4.211c1.626-3.551,3.906-8.435,6.448-13.818,1.283-2.691,2.455-5.264,3.626-7.582a10.59,10.59,0,0,1,2.342-2.86,12.659,12.659,0,0,1,2.71-1.732,8.721,8.721,0,0,1,2.548-.729c.766-.125,1.427-.218,1.969-.293s.966-.112,1.246-.131A1.609,1.609,0,0,1,378.931,173.252Z" transform="translate(-327.734 -135.911)" fill="#263238"/>
        <path id="Path_29918" data-name="Path 29918" d="M370.927,222.913h-.137l-.386-.056c-.343-.05-.829-.125-1.427-.237a19.766,19.766,0,0,1-4.573-1.352,9.632,9.632,0,0,1-3.738-2.928,5.607,5.607,0,0,1-.916-1.751s.081.174.231.48a7.287,7.287,0,0,0,.76,1.215,9.843,9.843,0,0,0,3.738,2.866,21.252,21.252,0,0,0,4.535,1.377l1.414.28.386.081a.4.4,0,0,1,.112.025Z" transform="translate(-329.517 -152.254)" fill="#fafafa"/>
        <path id="Path_29919" data-name="Path 29919" d="M350.292,214.92a1.638,1.638,0,0,1-.361.112c-.23.056-.561.156-.966.3a10.865,10.865,0,0,0-5.227,3.987,9.344,9.344,0,0,0-.548.854,1.6,1.6,0,0,1-.2.318,2.527,2.527,0,0,1,.156-.343,6.307,6.307,0,0,1,.517-.878,10.1,10.1,0,0,1,2.3-2.455,10.247,10.247,0,0,1,2.972-1.57,6.578,6.578,0,0,1,.984-.262A2.369,2.369,0,0,1,350.292,214.92Z" transform="translate(-323.198 -151.625)" fill="#fafafa"/>
        <path id="Path_29920" data-name="Path 29920" d="M381.678,199.331h-.125l-.349-.031a9.9,9.9,0,0,1-1.29-.168,20.652,20.652,0,0,1-7.925-3.146c-.455-.305-.816-.567-1.053-.76l-.28-.218a.919.919,0,0,1-.087-.087l.106.062.287.206c.249.181.623.43,1.078.723a23.183,23.183,0,0,0,3.794,1.944,22.931,22.931,0,0,0,4.093,1.184c.542.1.978.174,1.283.212l.349.05A.312.312,0,0,1,381.678,199.331Z" transform="translate(-333.596 -144.085)" fill="#fafafa"/>
        <path id="Path_29921" data-name="Path 29921" d="M415.762,179.466a10,10,0,0,0-1.165-.112,14.584,14.584,0,0,0-3.183.212c-1.333.212-2.891.623-4.641.978a22.764,22.764,0,0,1-5.8.461c-2.062-.081-4.018-.324-5.8-.492a38.96,38.96,0,0,0-4.735-.224,19.617,19.617,0,0,0-3.171.336l-.847.2-.3.062s.1-.037.293-.087l.841-.224a17.754,17.754,0,0,1,3.184-.374,37.388,37.388,0,0,1,4.747.193c1.782.162,3.738.4,5.794.48a22.838,22.838,0,0,0,5.769-.449c1.744-.355,3.314-.754,4.654-.947a13.893,13.893,0,0,1,3.2-.174,7.065,7.065,0,0,1,.866.106C415.663,179.441,415.762,179.466,415.762,179.466Z" transform="translate(-339.458 -138.188)" fill="#fafafa"/>
        <path id="Path_29922" data-name="Path 29922" d="M415.022,204.816h-.268l-.791.062-2.891.2c-2.442.156-5.813.43-9.551.5a49.216,49.216,0,0,1-9.538-.623A26.617,26.617,0,0,1,388.14,204l.268.062.76.2c.66.174,1.626.393,2.828.623a51.5,51.5,0,0,0,9.526.586c3.738-.081,7.1-.343,9.544-.467l2.9-.162.785-.037Z" transform="translate(-340.22 -147.508)" fill="#fafafa"/>
        <path id="Path_29923" data-name="Path 29923" d="M443.159,207.75s0,.037-.081.106l-.262.287a9.928,9.928,0,0,1-1.022,1,19.263,19.263,0,0,1-8.242,4.361c-.579.143-1.059.237-1.4.287l-.38.05a.458.458,0,0,1-.137,0,.4.4,0,0,1,.131-.037l.38-.075c.33-.062.8-.174,1.383-.324a20.69,20.69,0,0,0,8.2-4.361c.455-.392.81-.723,1.047-.966l.28-.268Z" transform="translate(-356.62 -148.922)" fill="#fafafa"/>
        <path id="Path_29924" data-name="Path 29924" d="M438.234,192.249a1,1,0,0,1-.15.168,5.469,5.469,0,0,1-.461.4,8.4,8.4,0,0,1-1.707,1.065A8.1,8.1,0,0,1,434,194.5a5.893,5.893,0,0,1-.623.093h-.224s.312-.069.81-.187a10.135,10.135,0,0,0,1.869-.66,10.342,10.342,0,0,0,1.707-1.016C437.984,192.442,438.221,192.231,438.234,192.249Z" transform="translate(-357.189 -143.077)" fill="#fafafa"/>
        <path id="Path_29925" data-name="Path 29925" d="M450.21,223.91a9.344,9.344,0,0,1-1.246,1.452,12.351,12.351,0,0,1-1.62,1.315,12.217,12.217,0,0,1-4.7,1.913,12.061,12.061,0,0,1-2.075.2,9.26,9.26,0,0,1-1.906-.168h.137l.374.031a11.047,11.047,0,0,0,1.4.044,12.746,12.746,0,0,0,8.336-3.4,11.919,11.919,0,0,0,.966-1l.249-.287C450.173,223.966,450.2,223.9,450.21,223.91Z" transform="translate(-359.266 -155.014)" fill="#fafafa"/>
        <path id="Path_29926" data-name="Path 29926" d="M407.978,169.494a.579.579,0,0,1-.15,0h-.436l-1.582-.069c-1.333-.044-3.184-.044-5.221.081s-3.875.355-5.2.561l-1.564.262-.424.075a.577.577,0,0,1-.156,0l.15-.044.417-.093c.368-.081.9-.187,1.558-.3a48.012,48.012,0,0,1,5.2-.623,50.073,50.073,0,0,1,5.239-.044c.667.037,1.209.075,1.582.106l.43.044Z" transform="translate(-342.146 -134.408)" fill="#fafafa"/>
        <path id="Path_29927" data-name="Path 29927" d="M387.992,225.106h-.237a3.78,3.78,0,0,1-.623-.093,9.5,9.5,0,0,1-2.025-.623,9.8,9.8,0,0,1-1.869-1.015,5.681,5.681,0,0,1-.511-.393c-.112-.1-.174-.156-.168-.162s.274.187.729.473a12,12,0,0,0,1.869.978,12.172,12.172,0,0,0,1.994.623C387.668,225.038,388,225.088,387.992,225.106Z" transform="translate(-338.116 -154.603)" fill="#fafafa"/>
        <path id="Path_29928" data-name="Path 29928" d="M414.57,230.437l-.181.031-.536.062c-.461.056-1.134.125-1.969.193-1.657.15-3.962.293-6.5.355s-4.853,0-6.523-.056c-.835,0-1.508-.069-1.975-.1l-.536-.037h.542l1.969.062c1.67.044,3.975.069,6.517,0s4.841-.193,6.5-.318l1.969-.15.536-.037A.623.623,0,0,1,414.57,230.437Z" transform="translate(-343.243 -157.473)" fill="#fafafa"/>
        <path id="Path_29929" data-name="Path 29929" d="M384.275,249.58a1.122,1.122,0,0,1-.305.081l-.86.143a20.031,20.031,0,0,1-5.725-.037c-.361-.056-.623-.112-.853-.156a1.7,1.7,0,0,1-.311-.081,1.489,1.489,0,0,1,.318.031l.86.112a23.958,23.958,0,0,0,2.853.187,24.925,24.925,0,0,0,2.847-.15l.86-.1A1.514,1.514,0,0,1,384.275,249.58Z" transform="translate(-335.726 -164.673)" fill="#fafafa"/>
        <path id="Path_29930" data-name="Path 29930" d="M391.292,247.144a3.3,3.3,0,0,0-.847-.517,3.06,3.06,0,0,0-.984-.112,1.277,1.277,0,0,1,1.028,0A1.309,1.309,0,0,1,391.292,247.144Z" transform="translate(-340.718 -163.495)" fill="#fafafa"/>
        <path id="Path_29931" data-name="Path 29931" d="M412.422,249.988l-.2.044-.573.112c-.5.1-1.246.224-2.137.355a69.775,69.775,0,0,1-14.236.623c-.91-.05-1.651-.106-2.156-.162l-.586-.056a1.535,1.535,0,0,1-.206-.031.754.754,0,0,1,.206,0h.592c.5.037,1.246.081,2.156.125,1.819.081,4.361.125,7.121,0s5.289-.4,7.1-.623c.9-.125,1.632-.237,2.137-.318l.586-.087A.8.8,0,0,1,412.422,249.988Z" transform="translate(-341.8 -164.838)" fill="#fafafa"/>
      </g>
      <g id="freepik--Plant--inject-29" transform="translate(33.112 209.602)">
        <path id="Path_29932" data-name="Path 29932" d="M121.122,402.869a6.962,6.962,0,0,1,3.564-4.554c1.825-.816,4.112-.349,6.056.355s3.863,1.657,5.931,1.782,4.4-.854,5.021-2.828c.586-1.869-.536-3.844-1.938-5.2a12.261,12.261,0,0,0-20.085,4.822" transform="translate(-67.011 -343.891)" fill="#0091ff"/>
        <g id="Group_1311" data-name="Group 1311" transform="translate(52.659 45.111)" opacity="0.5">
          <path id="Path_29933" data-name="Path 29933" d="M121.122,402.869a6.962,6.962,0,0,1,3.564-4.554c1.825-.816,4.112-.349,6.056.355s3.863,1.657,5.931,1.782,4.4-.854,5.021-2.828c.586-1.869-.536-3.844-1.938-5.2a12.261,12.261,0,0,0-20.085,4.822" transform="translate(-119.67 -389.002)"/>
        </g>
        <path id="Path_29934" data-name="Path 29934" d="M94.253,410.2c-3.04-2.885-2.884-7.9-1.371-11.837s4.816-6.9,8.5-8.872a26.939,26.939,0,0,1,23.487-.76,11.139,11.139,0,0,0-9.009,5.289c-1.663,2.76-2.037,6.118-3.408,9.034a14.217,14.217,0,0,1-18.2,7.146" transform="translate(-56.515 -342.91)" fill="#0091ff"/>
        <path id="Path_29935" data-name="Path 29935" d="M90.581,366.561c-3.358-3.969-3.807-10.336-3.308-15.506s1.695-10.385.878-15.519c-.486-3.04-1.663-5.943-2.062-9s.162-6.5,2.529-8.473c2.723-2.268,7-1.732,9.831.393s4.467,5.47,5.669,8.8c2.629,7.314,3.595,15.432,1.433,22.9s-7.233,14.148-14.678,16.4" transform="translate(-54.307 -316.592)" fill="#0091ff"/>
        <path id="Path_29936" data-name="Path 29936" d="M90.776,426.994a3.631,3.631,0,0,1,0-.455c0-.3,0-.741,0-1.308.044-1.14.156-2.785.411-4.8a63.927,63.927,0,0,1,1.29-7.04,32.57,32.57,0,0,1,3.208-8.143,34.221,34.221,0,0,1,5.246-7.015,33.82,33.82,0,0,1,5.5-4.573c.841-.579,1.651-1.022,2.349-1.427s1.346-.685,1.869-.935l1.209-.5a2.682,2.682,0,0,1,.43-.162,3.883,3.883,0,0,1-.4.212l-1.19.554c-.5.262-1.115.586-1.825.972a22.415,22.415,0,0,0-2.311,1.458,33.76,33.76,0,0,0-5.426,4.585,34.264,34.264,0,0,0-5.19,6.971c-3.115,5.4-3.931,11.083-4.548,15.07-.28,2.012-.417,3.651-.492,4.785,0,.542-.056.978-.081,1.3a2.374,2.374,0,0,1-.044.455Z" transform="translate(-56.116 -344.504)" fill="#263238"/>
        <path id="Path_29937" data-name="Path 29937" d="M40.824,371.68c-6.23,3.738-6.193,7.164-5.158,10.392s4.853,5.457,8.018,4.255a9.85,9.85,0,0,0,4.193-3.8,17.7,17.7,0,0,1,3.694-4.361c1.551-1.128,3.8-1.551,5.358-.442" transform="translate(-35.146 -337.36)" fill="#0091ff"/>
        <g id="Group_1312" data-name="Group 1312" transform="translate(0 34.32)" opacity="0.5">
          <path id="Path_29938" data-name="Path 29938" d="M40.824,371.68c-6.23,3.738-6.193,7.164-5.158,10.392s4.853,5.457,8.018,4.255a9.85,9.85,0,0,0,4.193-3.8,17.7,17.7,0,0,1,3.694-4.361c1.551-1.128,3.8-1.551,5.358-.442" transform="translate(-35.146 -371.68)"/>
        </g>
        <path id="Path_29939" data-name="Path 29939" d="M36.79,373.181c1.626-2.243,5.644-2.9,8.18-1.776s4.361,3.346,6.056,5.563,3.283,4.56,5.607,6.105,5.52,2.106,7.819.548a6.716,6.716,0,0,0,2.654-4.6,15.307,15.307,0,0,0-.368-5.42c-.548-2.6-1.445-5.333-3.532-6.984-2.324-1.869-5.551-1.937-8.516-1.838a32.022,32.022,0,0,0-10.055,1.545c-3.2,1.178-6.46,3.738-7.819,6.853" transform="translate(-35.766 -334.749)" fill="#0091ff"/>
        <path id="Path_29940" data-name="Path 29940" d="M72.8,412.687v-.536c0-.374-.031-.891-.056-1.545-.037-1.364-.093-3.3-.162-5.675s-.168-5.246-.343-8.41-.411-6.635-.891-10.255a32.4,32.4,0,0,0-1.034-5.208,27.35,27.35,0,0,0-4.3-8.336,24.506,24.506,0,0,0-2.629-2.878,19.264,19.264,0,0,0-4.648-3.171c-.305-.143-.573-.28-.81-.374l-.623-.237-.38-.1L56.8,365.9l.131.037.386.125.623.212c.243.087.511.218.822.349a18.69,18.69,0,0,1,4.741,3.115,24.349,24.349,0,0,1,2.673,2.891,26.344,26.344,0,0,1,2.448,3.794,26.883,26.883,0,0,1,1.938,4.6,32.794,32.794,0,0,1,1.047,5.252c.48,3.632.71,7.115.872,10.279s.237,6.024.287,8.423.069,4.361.075,5.675v1.944C72.842,412.7,72.811,412.687,72.8,412.687Z" transform="translate(-43.309 -335.181)" fill="#263238"/>
        <path id="Path_29941" data-name="Path 29941" d="M85.422,404.065a17.537,17.537,0,0,1-.673-2.666,28.1,28.1,0,0,1-.287-7.476,50.131,50.131,0,0,1,2.367-10.884c1.246-4,3.009-8.28,4.492-12.877a57.863,57.863,0,0,0,1.782-6.809,60.18,60.18,0,0,0,.885-6.5,95.315,95.315,0,0,0,.2-11.114c-.112-3.171-.28-5.725-.386-7.476-.05-.872-.087-1.558-.118-2.043v-.71a.624.624,0,0,1,0,.181,2.271,2.271,0,0,0,.05.53c.044.48.1,1.165.174,2.031.137,1.769.336,4.361.467,7.476a91.9,91.9,0,0,1-.137,11.139,58.88,58.88,0,0,1-.872,6.529,58.48,58.48,0,0,1-1.788,6.853c-1.483,4.61-3.221,8.884-4.5,12.865a50.525,50.525,0,0,0-2.417,10.828,29.138,29.138,0,0,0,.193,7.476c.15.866.293,1.545.417,1.994.05.212.093.386.125.511A.8.8,0,0,1,85.422,404.065Z" transform="translate(-53.69 -323.724)" fill="#263238"/>
        <path id="Path_29942" data-name="Path 29942" d="M92.754,446.659H63.567L62.9,441.04H92.754Z" transform="translate(-45.609 -363.509)" fill="#455a64"/>
        <path id="Path_29943" data-name="Path 29943" d="M68.99,449.03l3.651,16.858H88.5l3.414-16.858Z" transform="translate(-47.905 -366.521)" fill="#455a64"/>
        <path id="Path_29944" data-name="Path 29944" d="M93.478,449.948c0,.075-6.417.118-14.329.1s-14.329-.106-14.329-.181,6.417-.118,14.329-.1S93.478,449.873,93.478,449.948Z" transform="translate(-46.333 -366.798)" fill="#455a64"/>
        <path id="Path_29945" data-name="Path 29945" d="M91.07,461.977a11.993,11.993,0,0,0-2.573-1.47,9.184,9.184,0,0,0-3.115-.623,11.032,11.032,0,0,0-3.838.7,37.713,37.713,0,0,1-3.788,1.246,9.014,9.014,0,0,1-3.265.1,6.974,6.974,0,0,1-2.106-.667,4.3,4.3,0,0,1-.5-.324.759.759,0,0,1-.162-.137s.249.143.716.361a7.2,7.2,0,0,0,2.081.567,9.1,9.1,0,0,0,3.184-.15c1.171-.293,2.411-.822,3.738-1.277a10.928,10.928,0,0,1,3.944-.7,8.935,8.935,0,0,1,3.19.7,8.129,8.129,0,0,1,1.906,1.109,3.659,3.659,0,0,1,.449.392C91.027,461.921,91.077,461.971,91.07,461.977Z" transform="translate(-48.934 -370.51)" fill="#263238"/>
        <path id="Path_29946" data-name="Path 29946" d="M91.1,463.821a12.5,12.5,0,0,0-2.492-1.452,8.441,8.441,0,0,0-3.015-.623,10.908,10.908,0,0,0-3.738.667c-1.283.43-2.492.928-3.645,1.246a9.344,9.344,0,0,1-3.115.355,5.227,5.227,0,0,1-2.062-.554,4.11,4.11,0,0,1-.486-.305c-.106-.081-.162-.131-.156-.137s.243.143.692.349a5.75,5.75,0,0,0,2.025.449,9.537,9.537,0,0,0,3.059-.4c1.128-.318,2.33-.822,3.626-1.246a10.714,10.714,0,0,1,3.813-.66,8.241,8.241,0,0,1,3.115.7,8.017,8.017,0,0,1,1.825,1.1,4.814,4.814,0,0,1,.436.38Q91.111,463.815,91.1,463.821Z" transform="translate(-49.187 -371.226)" fill="#fff"/>
        <path id="Path_29947" data-name="Path 29947" d="M91.161,460.048a13.34,13.34,0,0,0-2.635-1.558,9.788,9.788,0,0,0-3.208-.766,10.367,10.367,0,0,0-3.962.692,35.221,35.221,0,0,1-3.919,1.277,9.879,9.879,0,0,1-3.377,0,7.474,7.474,0,0,1-2.168-.685,3.734,3.734,0,0,1-.53-.33c-.112-.081-.168-.131-.162-.137s.255.15.735.368a8.334,8.334,0,0,0,2.156.592,10.2,10.2,0,0,0,3.3-.062,40.813,40.813,0,0,0,3.875-1.29,10.341,10.341,0,0,1,4.074-.692,9.744,9.744,0,0,1,5.214,2.019,4.832,4.832,0,0,1,.467.4C91.117,459.986,91.167,460.042,91.161,460.048Z" transform="translate(-48.738 -369.696)" fill="#fff"/>
        <path id="Path_29948" data-name="Path 29948" d="M93.491,450.017c0,.075-6.566.137-14.665.137s-14.665-.062-14.665-.137,6.56-.137,14.665-.137S93.491,449.955,93.491,450.017Z" transform="translate(-46.084 -366.842)" fill="#263238"/>
      </g>
    </g>
  </g>
</svg>
