<?xml version="1.0" encoding="UTF-8"?><svg id="Layer_2" xmlns="http://www.w3.org/2000/svg" viewBox="0 0 40 40"><defs><style>.cls-1{fill:#0091ff;}.cls-2{fill:none;}</style></defs><g id="Layer_1-2"><g><rect class="cls-2" width="40" height="40"/><g><path class="cls-1" d="M24.56,31.35H6.4V5.29H24.56v1.95h2.44v-2.48c0-2.34-1.92-4.25-4.25-4.25H8.21C5.87,.5,3.96,2.42,3.96,4.76v30.49c0,2.34,1.91,4.25,4.25,4.25h14.54c2.34,0,4.26-1.91,4.26-4.25v-3.94h-2.44v.05Zm-9.09,6.02c-1.08,0-1.95-.87-1.95-1.95s.87-1.95,1.95-1.95,1.95,.87,1.95,1.95c0,1.08-.87,1.95-1.95,1.95Z"/><rect class="cls-1" x="8.48" y="7.9" width="5.45" height="3.32"/><rect class="cls-1" x="8.48" y="16.41" width="5.45" height="3.32"/><rect class="cls-1" x="8.48" y="25.32" width="5.45" height="3.32"/><path class="cls-1" d="M33.27,17.87c-.19-1.01-.58-1.94-1.13-2.75l1.95-1.96-2-1.99-1.95,1.95c-.81-.56-1.75-.94-2.75-1.13v-2.77h-2.82v2.77c-1.01,.19-1.93,.58-2.75,1.13l-1.95-1.95-2,1.99,1.95,1.96c-.55,.81-.94,1.75-1.13,2.75h-2.77v2.82h2.77c.19,1,.58,1.93,1.13,2.75l-1.95,1.95,2,1.99,1.95-1.95c.82,.56,1.75,.94,2.75,1.14v2.76h2.82v-2.77c1-.19,1.93-.58,2.75-1.13l1.95,1.95,2-1.99-1.95-1.95c.55-.81,.94-1.75,1.13-2.75h2.77v-2.82h-2.77Zm-7.29,4.48c-1.7,0-3.08-1.37-3.08-3.07s1.38-3.08,3.08-3.08,3.07,1.38,3.07,3.08c0,1.7-1.38,3.07-3.07,3.07Z"/></g></g></g></svg>