<?xml version="1.0" encoding="UTF-8"?><svg id="Layer_2" xmlns="http://www.w3.org/2000/svg" viewBox="0 0 28 28"><defs><style>.cls-1{stroke:#0091ff;stroke-miterlimit:10;stroke-width:.32px;}.cls-1,.cls-2{fill:none;}.cls-3{fill:#0091ff;}</style></defs><g id="Layer_1-2"><g><rect class="cls-2" width="28" height="28"/><g><path class="cls-3" d="M18.18,22.73c1.05-.03,1.83-.55,2.27-1.5,.42-.9,.31-1.79-.27-2.6-.14-.19-.32-.35-.48-.54,.64-.54,1-1.21,1-2.05,0-.84-.37-1.51-1.01-2.05,.07-.06,.11-.1,.15-.14,.82-.75,1.07-1.82,.67-2.86-.35-.94-1.33-1.62-2.38-1.62-2.74,0-5.49-.01-8.23,0-1.78,0-3,1.75-2.42,3.42,.17,.48,.47,.87,.87,1.2-.66,.54-1.02,1.22-1.02,2.06,0,.84,.36,1.51,1.02,2.05-.16,.15-.32,.28-.43,.43-.63,.81-.78,1.72-.36,2.65,.44,.98,1.25,1.51,2.33,1.54,1.1,.03,2.21,0,3.32,0h.29c0,.43,0,.82,0,1.21,0,.16-.05,.23-.19,.31-.82,.42-1.08,1.43-.59,2.2,.24,.38,.62,.57,1.03,.71h.51s.04-.03,.06-.04c.71-.19,1.13-.64,1.2-1.37,.07-.7-.26-1.22-.89-1.54-.05-.03-.12-.09-.12-.14,0-.44,0-.88,0-1.34h.31c1.11,0,2.23,.03,3.34,0ZM9.87,10.41c.43-.02,.86,0,1.28,0,.95,0,1.9,0,2.85,0,1.35,0,2.71,0,4.06,0,.74,0,1.31,.42,1.53,1.07,.27,.86-.24,1.76-1.12,1.96-.08,.02-.17,.04-.25,.04-2.81,0-5.62,.01-8.43,0-.71,0-1.27-.55-1.4-1.22-.18-.95,.5-1.81,1.48-1.84Zm.05,4.11c.8-.01,1.61,0,2.42,0h1.7c1.34,0,2.69,0,4.03,0,.74,0,1.31,.42,1.52,1.08,.27,.86-.24,1.76-1.12,1.96-.12,.03-.25,.04-.38,.04-2.72,0-5.43,0-8.15,0-.79,0-1.41-.51-1.55-1.24-.19-.97,.52-1.83,1.53-1.84Zm4.07,11.62c-.27,0-.51-.25-.5-.52,0-.27,.25-.51,.52-.5,.27,0,.51,.25,.5,.52,0,.27-.25,.51-.52,.5Zm-3.98-4.42c-.83,0-1.47-.48-1.62-1.22-.2-.96,.49-1.83,1.49-1.86,.59-.02,1.18,0,1.77,0,.79,0,1.58,0,2.36,0,1.34,0,2.69,0,4.03,0,.81,0,1.42,.48,1.58,1.23,.18,.81-.36,1.64-1.2,1.81-.14,.03-.29,.04-.43,.04-2.66,0-5.33,0-7.99,0Zm-4.72-3.15c.28,.04,.53-.12,.59-.37,.06-.27-.07-.51-.34-.61-.1-.03-.2-.06-.3-.08-1.8-.36-3.1-1.81-3.36-3.75-.22-1.65,.78-3.46,2.32-4.22,.75-.37,1.53-.53,2.37-.44,.49,.05,.66-.08,.77-.57,.07-.33,.13-.65,.22-.97,.86-3.05,3.61-5.35,6.76-5.64,3.58-.33,6.83,1.67,8.13,5.02,.12,.32,.31,.51,.62,.66,1.84,.88,2.89,2.35,3.04,4.38,.15,1.96-.65,3.53-2.24,4.69-.53,.39-1.13,.64-1.77,.79-.26,.06-.5,.15-.55,.46-.06,.41,.28,.66,.75,.55,3.09-.73,5.16-3.61,4.81-6.78-.24-2.2-1.39-3.83-3.33-4.89-.24-.13-.39-.28-.5-.53C21.67,2.35,17.36,.1,13.22,1.05c-2.99,.69-5.11,2.47-6.32,5.29-.23,.54-.38,1.11-.57,1.7-.06,0-.15,0-.25,0-2.24,.04-4.17,1.41-4.93,3.52-.15,.42-.22,.88-.32,1.31v.98c.02,.06,.04,.13,.05,.19,.27,2.26,2.15,4.19,4.4,4.52Zm5.38,6.59c-.1-.03-.22-.04-.33-.04-2.94,0-5.88,0-8.81,0-.33,0-.57,.1-.69,.42v.21c.12,.32,.36,.42,.69,.42,2.94,0,5.88,0,8.81,0,.11,0,.23,0,.33-.04,.22-.07,.34-.24,.34-.46,0-.24-.11-.41-.34-.49Zm15.83-.04s-.03,0-.05,0c-2.93,0-5.86,0-8.79,0-.09,0-.17,0-.26,0-.27,.04-.46,.25-.46,.51,0,.25,.19,.47,.46,.5,.08,.01,.17,0,.26,0,1.46,0,2.91,0,4.37,0s2.98,0,4.47,0c.42,0,.67-.19,.66-.51,0-.32-.25-.51-.67-.51ZM10.14,16.48c.09,.02,.19,.02,.28,.02,1.19,0,2.38,0,3.57,0,.11,0,.24,.01,.33-.04,.13-.07,.28-.18,.34-.31,.16-.34-.09-.67-.51-.68-.65-.01-1.3,0-1.95,0h0c-.22,0-.45,0-.67,0-.45,0-.91,0-1.36,.02-.27,.01-.44,.21-.45,.47-.01,.27,.15,.47,.43,.52Zm5.91,0c.28,0,.51-.23,.51-.51,0-.27-.24-.5-.51-.5-.28,0-.51,.22-.5,.5,0,.28,.23,.5,.51,.5Zm1.79,0c.28,0,.51-.23,.51-.5,0-.27-.23-.5-.51-.5-.28,0-.51,.22-.51,.5,0,.28,.22,.51,.5,.51Zm-7.68-4.12c.08,.01,.17,.02,.26,.02,1.19,0,2.38,0,3.57,0,.1,0,.22,.02,.3-.03,.14-.08,.3-.18,.37-.31,.16-.34-.09-.67-.51-.68-.65-.01-1.3,0-1.95,0h0c-.67,0-1.34,0-2.01,.01-.29,0-.47,.21-.48,.47-.01,.28,.16,.48,.45,.53Zm5.87,0c.27,0,.51-.22,.52-.5,0-.27-.22-.51-.5-.51-.28,0-.51,.21-.52,.49,0,.28,.22,.51,.5,.52Zm1.81,0c.27,0,.51-.24,.51-.51,0-.27-.24-.5-.52-.5-.28,0-.5,.23-.5,.51,0,.28,.23,.5,.51,.5Zm-3.73,7.21c-.63-.01-1.27,0-1.9,0-.64,0-1.29,0-1.93,0-.37,0-.58,.21-.58,.51,0,.3,.21,.49,.56,.51,.06,0,.12,0,.18,0,1.17,0,2.35,0,3.52,0,.11,0,.24,.02,.33-.03,.14-.08,.3-.18,.36-.32,.16-.35-.1-.67-.54-.68Zm1.93,0c-.28,0-.51,.22-.51,.5,0,.28,.22,.51,.5,.51,.28,0,.51-.23,.52-.5,0-.27-.23-.51-.5-.51Zm2.3,.54c.02-.26-.18-.51-.44-.53-.29-.03-.53,.16-.56,.43-.03,.29,.16,.53,.44,.56,.29,.03,.54-.17,.57-.46Z"/><path class="cls-1" d="M18.18,22.73c1.05-.03,1.83-.55,2.27-1.5,.42-.9,.31-1.79-.27-2.6-.14-.19-.32-.35-.48-.54,.64-.54,1-1.21,1-2.05,0-.84-.37-1.51-1.01-2.05,.07-.06,.11-.1,.15-.14,.82-.75,1.07-1.82,.67-2.86-.35-.94-1.33-1.62-2.38-1.62-2.74,0-5.49-.01-8.23,0-1.78,0-3,1.75-2.42,3.42,.17,.48,.47,.87,.87,1.2-.66,.54-1.02,1.22-1.02,2.06,0,.84,.36,1.51,1.02,2.05-.16,.15-.32,.28-.43,.43-.63,.81-.78,1.72-.36,2.65,.44,.98,1.25,1.51,2.33,1.54,1.1,.03,2.21,0,3.32,0h.29c0,.43,0,.82,0,1.21,0,.16-.05,.23-.19,.31-.82,.42-1.08,1.43-.59,2.2,.24,.38,.62,.57,1.03,.71h.51s.04-.03,.06-.04c.71-.19,1.13-.64,1.2-1.37,.07-.7-.26-1.22-.89-1.54-.05-.03-.12-.09-.12-.14,0-.44,0-.88,0-1.34h.31c1.11,0,2.23,.03,3.34,0ZM9.87,10.41c.43-.02,.86,0,1.28,0,.95,0,1.9,0,2.85,0,1.35,0,2.71,0,4.06,0,.74,0,1.31,.42,1.53,1.07,.27,.86-.24,1.76-1.12,1.96-.08,.02-.17,.04-.25,.04-2.81,0-5.62,.01-8.43,0-.71,0-1.27-.55-1.4-1.22-.18-.95,.5-1.81,1.48-1.84Zm.05,4.11c.8-.01,1.61,0,2.42,0h1.7c1.34,0,2.69,0,4.03,0,.74,0,1.31,.42,1.52,1.08,.27,.86-.24,1.76-1.12,1.96-.12,.03-.25,.04-.38,.04-2.72,0-5.43,0-8.15,0-.79,0-1.41-.51-1.55-1.24-.19-.97,.52-1.83,1.53-1.84Zm4.07,11.62c-.27,0-.51-.25-.5-.52,0-.27,.25-.51,.52-.5,.27,0,.51,.25,.5,.52,0,.27-.25,.51-.52,.5Zm-3.98-4.42c-.83,0-1.47-.48-1.62-1.22-.2-.96,.49-1.83,1.49-1.86,.59-.02,1.18,0,1.77,0,.79,0,1.58,0,2.36,0,1.34,0,2.69,0,4.03,0,.81,0,1.42,.48,1.58,1.23,.18,.81-.36,1.64-1.2,1.81-.14,.03-.29,.04-.43,.04-2.66,0-5.33,0-7.99,0Zm-4.72-3.15c.28,.04,.53-.12,.59-.37,.06-.27-.07-.51-.34-.61-.1-.03-.2-.06-.3-.08-1.8-.36-3.1-1.81-3.36-3.75-.22-1.65,.78-3.46,2.32-4.22,.75-.37,1.53-.53,2.37-.44,.49,.05,.66-.08,.77-.57,.07-.33,.13-.65,.22-.97,.86-3.05,3.61-5.35,6.76-5.64,3.58-.33,6.83,1.67,8.13,5.02,.12,.32,.31,.51,.62,.66,1.84,.88,2.89,2.35,3.04,4.38,.15,1.96-.65,3.53-2.24,4.69-.53,.39-1.13,.64-1.77,.79-.26,.06-.5,.15-.55,.46-.06,.41,.28,.66,.75,.55,3.09-.73,5.16-3.61,4.81-6.78-.24-2.2-1.39-3.83-3.33-4.89-.24-.13-.39-.28-.5-.53C21.67,2.35,17.36,.1,13.22,1.05c-2.99,.69-5.11,2.47-6.32,5.29-.23,.54-.38,1.11-.57,1.7-.06,0-.15,0-.25,0-2.24,.04-4.17,1.41-4.93,3.52-.15,.42-.22,.88-.32,1.31v.98c.02,.06,.04,.13,.05,.19,.27,2.26,2.15,4.19,4.4,4.52Zm5.38,6.59c-.1-.03-.22-.04-.33-.04-2.94,0-5.88,0-8.81,0-.33,0-.57,.1-.69,.42v.21c.12,.32,.36,.42,.69,.42,2.94,0,5.88,0,8.81,0,.11,0,.23,0,.33-.04,.22-.07,.34-.24,.34-.46,0-.24-.11-.41-.34-.49Zm15.83-.04s-.03,0-.05,0c-2.93,0-5.86,0-8.79,0-.09,0-.17,0-.26,0-.27,.04-.46,.25-.46,.51,0,.25,.19,.47,.46,.5,.08,.01,.17,0,.26,0,1.46,0,2.91,0,4.37,0s2.98,0,4.47,0c.42,0,.67-.19,.66-.51,0-.32-.25-.51-.67-.51ZM10.14,16.48c.09,.02,.19,.02,.28,.02,1.19,0,2.38,0,3.57,0,.11,0,.24,.01,.33-.04,.13-.07,.28-.18,.34-.31,.16-.34-.09-.67-.51-.68-.65-.01-1.3,0-1.95,0h0c-.22,0-.45,0-.67,0-.45,0-.91,0-1.36,.02-.27,.01-.44,.21-.45,.47-.01,.27,.15,.47,.43,.52Zm5.91,0c.28,0,.51-.23,.51-.51,0-.27-.24-.5-.51-.5-.28,0-.51,.22-.5,.5,0,.28,.23,.5,.51,.5Zm1.79,0c.28,0,.51-.23,.51-.5,0-.27-.23-.5-.51-.5-.28,0-.51,.22-.51,.5,0,.28,.22,.51,.5,.51Zm-7.68-4.12c.08,.01,.17,.02,.26,.02,1.19,0,2.38,0,3.57,0,.1,0,.22,.02,.3-.03,.14-.08,.3-.18,.37-.31,.16-.34-.09-.67-.51-.68-.65-.01-1.3,0-1.95,0h0c-.67,0-1.34,0-2.01,.01-.29,0-.47,.21-.48,.47-.01,.28,.16,.48,.45,.53Zm5.87,0c.27,0,.51-.22,.52-.5,0-.27-.22-.51-.5-.51-.28,0-.51,.21-.52,.49,0,.28,.22,.51,.5,.52Zm1.81,0c.27,0,.51-.24,.51-.51,0-.27-.24-.5-.52-.5-.28,0-.5,.23-.5,.51,0,.28,.23,.5,.51,.5Zm-3.73,7.21c-.63-.01-1.27,0-1.9,0-.64,0-1.29,0-1.93,0-.37,0-.58,.21-.58,.51,0,.3,.21,.49,.56,.51,.06,0,.12,0,.18,0,1.17,0,2.35,0,3.52,0,.11,0,.24,.02,.33-.03,.14-.08,.3-.18,.36-.32,.16-.35-.1-.67-.54-.68Zm1.93,0c-.28,0-.51,.22-.51,.5,0,.28,.22,.51,.5,.51,.28,0,.51-.23,.52-.5,0-.27-.23-.51-.5-.51Zm2.3,.54c.02-.26-.18-.51-.44-.53-.29-.03-.53,.16-.56,.43-.03,.29,.16,.53,.44,.56,.29,.03,.54-.17,.57-.46Z"/></g></g></g></svg>