<?xml version="1.0" encoding="UTF-8"?><svg id="Layer_2" xmlns="http://www.w3.org/2000/svg" viewBox="0 0 40 40"><defs><style>.cls-1{fill:#0091ff;}.cls-2{stroke:#0091ff;stroke-linejoin:round;stroke-width:1.13px;}.cls-2,.cls-3{fill:none;}</style></defs><g id="Layer_1-2"><g><rect class="cls-3" width="40" height="40"/><g><path class="cls-1" d="M39.18,32.98c-.35-.58-.81-1.14-1.32-1.58-3.1-2.65-6.23-5.26-9.35-7.88-.13-.11-.25-.22-.37-.31,.39-.82,.8-1.6,1.13-2.42,1.12-2.83,1.35-5.74,.69-8.71-.08-.35-.03-.58,.24-.84,.64-.6,1.25-1.22,1.86-1.85,.16-.17,.29-.22,.53-.13,1.75,.65,3.71-.21,4.41-1.91,.72-1.75-.08-3.78-1.83-4.51-1.37-.58-2.67-.35-3.75,.68-1.05,1-1.34,2.25-.88,3.64,.1,.3,.05,.46-.16,.66-.45,.42-.87,.88-1.34,1.35-.12-.23-.21-.41-.3-.59C26.54,4.34,23.13,1.66,18.49,.57c-.72-.17-1.47-.24-2.2-.36h-2.01c-.78,.13-1.58,.22-2.35,.4-3.29,.76-6.03,2.45-8.19,5.04C1.91,7.85,.78,10.39,.4,13.24c-.57,4.33,.53,8.21,3.27,11.58,2.46,3.03,5.67,4.82,9.54,5.38,3.41,.49,6.62-.16,9.61-1.87,.1-.06,.2-.11,.34-.19,.1,.11,.2,.22,.3,.34,2.63,3.14,5.26,6.27,7.88,9.41,.88,1.06,1.97,1.7,3.32,1.91h1c.74-.18,1.48-.38,2.11-.84,1.03-.75,1.67-1.74,1.9-3,.02-.09,.05-.17,.07-.25v-1.08c-.18-.55-.27-1.15-.56-1.63Zm-5.37-28.13c.63,0,1.15,.53,1.15,1.16,0,.63-.53,1.15-1.16,1.15-.63,0-1.15-.53-1.15-1.16,0-.63,.53-1.15,1.16-1.15Zm-12.27,21.53c-2.49,1.42-5.18,1.93-8.02,1.53-3.17-.45-5.8-1.92-7.9-4.33-1.55-1.79-2.52-3.87-2.9-6.21-.44-2.75-.05-5.39,1.23-7.87,1.48-2.86,3.71-4.92,6.71-6.08,3.79-1.46,7.49-1.18,11.01,.85,1.78,1.02,3.19,2.38,4.25,4.03,.79,1.08,1.37,2.27,1.74,3.59l.23,1.69h0s.01,.1,.02,.15c.05,.37,.1,.74,.15,1.11,.03,.66-.02,1.31-.14,1.93-.1,.85-.28,1.68-.56,2.49-1.04,3.1-2.99,5.5-5.83,7.12Zm3.54,.43c.58-.57,1.14-1.13,1.72-1.71l1.77,1.49c-.68,.68-1.32,1.32-1.99,2-.55-.66-1.03-1.23-1.49-1.78Zm11.21,10.31c-.92,.57-2.12,.43-2.88-.41-.89-.99-1.73-2.04-2.6-3.06-.93-1.1-1.85-2.21-2.71-3.24,.76-.77,1.51-1.52,2.28-2.29,1.36,1.14,2.8,2.36,4.25,3.57,.63,.53,1.27,1.05,1.89,1.59,1.29,1.13,1.17,2.97-.23,3.84Z"/><path class="cls-2" d="M10.41,19.8l10.21-9.08,1.13,10.21-5.67,2.27-5.67-3.4Zm0,0l5.67-10.21,2.27,3.4m-7.94,6.81l1.13-12.48,3.4,3.4"/></g></g></g></svg>