<?xml version="1.0" encoding="UTF-8"?><svg id="Layer_2" xmlns="http://www.w3.org/2000/svg" viewBox="0 0 28 28"><defs><style>.cls-1{fill:#0091ff;}.cls-2,.cls-3{fill:none;}.cls-3{stroke:#0091ff;stroke-miterlimit:10;stroke-width:.34px;}</style></defs><g id="Layer_1-2"><g><rect class="cls-2" width="28" height="28"/><g><path class="cls-1" d="M26.34,10.87c.33-.17,.47-.49,.59-.82v-2.18c-.27-.76-.83-1.01-1.61-.99-1.42,.04-2.84,.01-4.26,.01s-2.98,0-4.47,0c-.82,0-1.32,.51-1.33,1.33,0,.5,0,.99,0,1.49,0,.13,0,.27,.04,.4,.16,.6,.58,.9,1.2,.97v.8s-.06,.02-.08,.03c-.74,.11-1.15,.58-1.15,1.32,0,.46,0,.91,0,1.37,0,.18,0,.36,.04,.53,.16,.6,.58,.9,1.19,.97v.8c-.92,.12-1.29,.77-1.24,1.5,.03,.45,0,.91,0,1.36,0,.13,0,.25,.03,.38,.15,.61,.63,.95,1.34,.95,2.78,0,5.55,0,8.33,0,.27,0,.54,0,.81,0,.42-.02,.73-.23,.96-.57,.08-.12,.13-.26,.2-.4v-2.18c-.19-.6-.57-.98-1.24-1.03v-.77c.24-.1,.49-.17,.7-.29,.3-.17,.43-.48,.54-.79v-2.12c-.19-.6-.57-.98-1.24-1.03v-.78c.22-.08,.45-.15,.65-.25Zm-.25,7.4c0,.5,0,.99,0,1.49,0,.36-.15,.5-.51,.5-1.5,0-3,0-4.49,0-1.47,0-2.94,0-4.42,0-.45,0-.58-.13-.58-.59,0-.46,0-.93,0-1.39,0-.37,.15-.53,.52-.53,2.99,0,5.97,0,8.96,0,.38,0,.52,.14,.53,.52Zm-8.74-1.36v-.81h7.48v.81h-7.48Zm8.74-3.64c0,.48,0,.96,0,1.44,0,.4-.15,.54-.55,.54-1.49,0-2.98,0-4.47,0-1.46,0-2.91,0-4.37,0-.5,0-.62-.12-.62-.63,0-.45,0-.89,0-1.34,0-.39,.15-.54,.53-.54,2.99,0,5.97,0,8.96,0,.37,0,.51,.15,.52,.53Zm-8.74-1.37v-.81h7.48v.81h-7.48Zm8.22-1.66c-2.99,0-5.97,0-8.96,0-.37,0-.52-.15-.52-.53,0-.49,0-.98,0-1.47,0-.37,.15-.52,.53-.52,1.49,0,2.98,0,4.47,0s2.96,0,4.44,0c.44,0,.57,.13,.57,.58,0,.47,0,.94,0,1.42,0,.37-.15,.52-.53,.52ZM15.42,3.13c1.3,0,2.61,0,3.91,0,.36,0,.5-.14,.51-.5,0-.12,0-.24,0-.41,.74,.46,1.42,.89,2.13,1.33-.72,.45-1.4,.88-2.11,1.32,0-.12-.01-.17-.01-.23,0-.59-.09-.67-.68-.67H6.09v.84h12.91c0,.25,0,.47,0,.69,0,.2,.02,.39,.22,.5,.2,.11,.37,.03,.54-.08,1.03-.65,2.05-1.29,3.08-1.93,.45-.28,.45-.6,0-.88-1.1-.69-2.19-1.38-3.29-2.07h-.25c-.23,.12-.32,.3-.3,.56,.01,.22,0,.45,0,.71H5.27v.82H15.42Zm-2.37,21.73h-4.24c-.54,0-.64,.1-.64,.63,0,.08-.01,.16-.02,.27-.72-.45-1.4-.87-2.11-1.32,.72-.45,1.4-.88,2.11-1.32,0,.11,.01,.16,.01,.21,.01,.62,.08,.69,.7,.69h13.05v-.84H9c0-.25,0-.47,0-.69,0-.2-.02-.39-.22-.5-.2-.11-.37-.03-.54,.08-1.02,.64-2.04,1.28-3.06,1.92-.48,.3-.48,.61,0,.91l3.27,2.05h.25c.24-.12,.32-.32,.3-.58-.01-.22,0-.43,0-.68h13.74v-.82H13.04Zm-1.46-3.77c.65-.04,1.15-.55,1.16-1.21,.01-.58,0-1.16,0-1.74,0-.56-.38-1.02-.91-1.17-.1-.03-.21-.05-.31-.07v-.8c.87-.15,1.23-.58,1.23-1.46,0-.51,0-1.01,0-1.52-.01-.61-.46-1.11-1.06-1.2-.06,0-.11-.02-.17-.03v-.81c.85-.14,1.23-.58,1.23-1.43,0-.48,0-.96,0-1.44,0-.13,0-.25-.04-.37-.16-.6-.63-.94-1.33-.94-2.71,0-5.42,0-8.13,0-.33,0-.66,0-.98,0-.67,.03-1.18,.55-1.19,1.23,0,.56,0,1.13,0,1.69,0,.61,.44,1.12,1.04,1.23,.06,.01,.13,.02,.2,.03v.81c-.9,.18-1.24,.59-1.24,1.5,0,.42,0,.84,0,1.26,0,.85,.37,1.29,1.2,1.44,.01,0,.02,.02,.04,.03v.78s-.07,.02-.11,.02c-.7,.1-1.13,.59-1.14,1.29,0,.25,0,.51,0,.76s0,.49,0,.73c0,.88,.5,1.39,1.37,1.39,2.98,0,5.96,0,8.93,0,.07,0,.13,0,.2,0ZM1.91,9.74c0-.5,0-.99,0-1.49,0-.37,.15-.51,.53-.51,1.49,0,2.98,0,4.47,0s2.96,0,4.44,0c.43,0,.57,.14,.57,.58,0,.47,0,.94,0,1.42,0,.36-.15,.52-.51,.52-3,0-5.99,0-8.99,0-.36,0-.51-.15-.51-.5Zm8.73,1.35v.81H3.17v-.81h7.48ZM1.91,14.66c0-.47,0-.94,0-1.42,0-.36,.15-.5,.51-.5,2.99,0,5.97,0,8.96,0,.38,0,.53,.15,.53,.54,0,.47,0,.94,0,1.42,0,.41-.15,.56-.57,.56-1.48,0-2.96,0-4.44,0-1.46,0-2.93,0-4.39,0-.48,0-.6-.12-.6-.59Zm8.74,1.44v.81H3.17v-.81h7.48Zm-3.75,4.17c-1.47,0-2.95,0-4.42,0-.44,0-.57-.13-.58-.57,0-.46,0-.93,0-1.39,0-.41,.14-.55,.54-.55,2.97,0,5.94,0,8.91,0,.41,0,.55,.14,.56,.54,0,.47,0,.94,0,1.42,0,.41-.15,.55-.55,.55-1.49,0-2.98,0-4.47,0ZM3.56,4h-.8v.8h.8v-.8Zm1.67,0h-.8v.8h.8v-.8ZM22.77,24.01h.81v-.79h-.81v.79Zm1.67,0h.8v-.8h-.8v.8Z"/><path class="cls-3" d="M26.34,10.87c.33-.17,.47-.49,.59-.82v-2.18c-.27-.76-.83-1.01-1.61-.99-1.42,.04-2.84,.01-4.26,.01s-2.98,0-4.47,0c-.82,0-1.32,.51-1.33,1.33,0,.5,0,.99,0,1.49,0,.13,0,.27,.04,.4,.16,.6,.58,.9,1.2,.97v.8s-.06,.02-.08,.03c-.74,.11-1.15,.58-1.15,1.32,0,.46,0,.91,0,1.37,0,.18,0,.36,.04,.53,.16,.6,.58,.9,1.19,.97v.8c-.92,.12-1.29,.77-1.24,1.5,.03,.45,0,.91,0,1.36,0,.13,0,.25,.03,.38,.15,.61,.63,.95,1.34,.95,2.78,0,5.55,0,8.33,0,.27,0,.54,0,.81,0,.42-.02,.73-.23,.96-.57,.08-.12,.13-.26,.2-.4v-2.18c-.19-.6-.57-.98-1.24-1.03v-.77c.24-.1,.49-.17,.7-.29,.3-.17,.43-.48,.54-.79v-2.12c-.19-.6-.57-.98-1.24-1.03v-.78c.22-.08,.45-.15,.65-.25Zm-.25,7.4c0,.5,0,.99,0,1.49,0,.36-.15,.5-.51,.5-1.5,0-3,0-4.49,0-1.47,0-2.94,0-4.42,0-.45,0-.58-.13-.58-.59,0-.46,0-.93,0-1.39,0-.37,.15-.53,.52-.53,2.99,0,5.97,0,8.96,0,.38,0,.52,.14,.53,.52Zm-8.74-1.36v-.81h7.48v.81h-7.48Zm8.74-3.64c0,.48,0,.96,0,1.44,0,.4-.15,.54-.55,.54-1.49,0-2.98,0-4.47,0-1.46,0-2.91,0-4.37,0-.5,0-.62-.12-.62-.63,0-.45,0-.89,0-1.34,0-.39,.15-.54,.53-.54,2.99,0,5.97,0,8.96,0,.37,0,.51,.15,.52,.53Zm-8.74-1.37v-.81h7.48v.81h-7.48Zm8.22-1.66c-2.99,0-5.97,0-8.96,0-.37,0-.52-.15-.52-.53,0-.49,0-.98,0-1.47,0-.37,.15-.52,.53-.52,1.49,0,2.98,0,4.47,0s2.96,0,4.44,0c.44,0,.57,.13,.57,.58,0,.47,0,.94,0,1.42,0,.37-.15,.52-.53,.52ZM15.42,3.13c1.3,0,2.61,0,3.91,0,.36,0,.5-.14,.51-.5,0-.12,0-.24,0-.41,.74,.46,1.42,.89,2.13,1.33-.72,.45-1.4,.88-2.11,1.32,0-.12-.01-.17-.01-.23,0-.59-.09-.67-.68-.67H6.09v.84h12.91c0,.25,0,.47,0,.69,0,.2,.02,.39,.22,.5,.2,.11,.37,.03,.54-.08,1.03-.65,2.05-1.29,3.08-1.93,.45-.28,.45-.6,0-.88-1.1-.69-2.19-1.38-3.29-2.07h-.25c-.23,.12-.32,.3-.3,.56,.01,.22,0,.45,0,.71H5.27v.82H15.42Zm-2.37,21.73h-4.24c-.54,0-.64,.1-.64,.63,0,.08-.01,.16-.02,.27-.72-.45-1.4-.87-2.11-1.32,.72-.45,1.4-.88,2.11-1.32,0,.11,.01,.16,.01,.21,.01,.62,.08,.69,.7,.69h13.05v-.84H9c0-.25,0-.47,0-.69,0-.2-.02-.39-.22-.5-.2-.11-.37-.03-.54,.08-1.02,.64-2.04,1.28-3.06,1.92-.48,.3-.48,.61,0,.91l3.27,2.05h.25c.24-.12,.32-.32,.3-.58-.01-.22,0-.43,0-.68h13.74v-.82H13.04Zm-1.46-3.77c.65-.04,1.15-.55,1.16-1.21,.01-.58,0-1.16,0-1.74,0-.56-.38-1.02-.91-1.17-.1-.03-.21-.05-.31-.07v-.8c.87-.15,1.23-.58,1.23-1.46,0-.51,0-1.01,0-1.52-.01-.61-.46-1.11-1.06-1.2-.06,0-.11-.02-.17-.03v-.81c.85-.14,1.23-.58,1.23-1.43,0-.48,0-.96,0-1.44,0-.13,0-.25-.04-.37-.16-.6-.63-.94-1.33-.94-2.71,0-5.42,0-8.13,0-.33,0-.66,0-.98,0-.67,.03-1.18,.55-1.19,1.23,0,.56,0,1.13,0,1.69,0,.61,.44,1.12,1.04,1.23,.06,.01,.13,.02,.2,.03v.81c-.9,.18-1.24,.59-1.24,1.5,0,.42,0,.84,0,1.26,0,.85,.37,1.29,1.2,1.44,.01,0,.02,.02,.04,.03v.78s-.07,.02-.11,.02c-.7,.1-1.13,.59-1.14,1.29,0,.25,0,.51,0,.76s0,.49,0,.73c0,.88,.5,1.39,1.37,1.39,2.98,0,5.96,0,8.93,0,.07,0,.13,0,.2,0ZM1.91,9.74c0-.5,0-.99,0-1.49,0-.37,.15-.51,.53-.51,1.49,0,2.98,0,4.47,0s2.96,0,4.44,0c.43,0,.57,.14,.57,.58,0,.47,0,.94,0,1.42,0,.36-.15,.52-.51,.52-3,0-5.99,0-8.99,0-.36,0-.51-.15-.51-.5Zm8.73,1.35v.81H3.17v-.81h7.48ZM1.91,14.66c0-.47,0-.94,0-1.42,0-.36,.15-.5,.51-.5,2.99,0,5.97,0,8.96,0,.38,0,.53,.15,.53,.54,0,.47,0,.94,0,1.42,0,.41-.15,.56-.57,.56-1.48,0-2.96,0-4.44,0-1.46,0-2.93,0-4.39,0-.48,0-.6-.12-.6-.59Zm8.74,1.44v.81H3.17v-.81h7.48Zm-3.75,4.17c-1.47,0-2.95,0-4.42,0-.44,0-.57-.13-.58-.57,0-.46,0-.93,0-1.39,0-.41,.14-.55,.54-.55,2.97,0,5.94,0,8.91,0,.41,0,.55,.14,.56,.54,0,.47,0,.94,0,1.42,0,.41-.15,.55-.55,.55-1.49,0-2.98,0-4.47,0ZM3.56,4h-.8v.8h.8v-.8Zm1.67,0h-.8v.8h.8v-.8ZM22.77,24.01h.81v-.79h-.81v.79Zm1.67,0h.8v-.8h-.8v.8Z"/></g></g></g></svg>