<?xml version="1.0" encoding="UTF-8"?><svg id="Layer_2" xmlns="http://www.w3.org/2000/svg" viewBox="0 0 40 40"><defs><style>.cls-1{fill:#0091ff;}.cls-2{fill:none;}</style></defs><g id="Layer_1-2"><g><rect class="cls-2" width="40" height="40"/><g><path class="cls-1" d="M1,6.83V29.73c0,3.82,6.33,6.7,14.72,6.7,.8,0,1.6-.02,2.38-.08,.55-.04,.96-.51,.93-1.07-.04-.55-.51-.96-1.07-.93-.73,.05-1.49,.08-2.24,.08-7.5,0-12.72-2.48-12.72-4.7v-4.16c2.51,1.97,7.16,3.23,12.72,3.23,.51,0,1.02,0,1.52-.03,.56-.02,.98-.49,.96-1.05s-.49-.98-1.05-.96c-.47,.02-.96,.03-1.43,.03-7.5,0-12.72-2.48-12.72-4.7v-4.16c2.51,1.97,7.16,3.23,12.72,3.23,8.39,0,14.72-2.88,14.72-6.7V6.83C30.44,3,24.12,.12,15.72,.12,7.33,.11,1,3,1,6.83Zm14.72,12.34c-7.5,0-12.72-2.48-12.72-4.7v-4.16c2.51,1.97,7.16,3.23,12.72,3.23s10.21-1.27,12.72-3.23v4.16c0,2.23-5.22,4.7-12.72,4.7ZM28.45,6.83c0,2.23-5.23,4.7-12.72,4.7S3,9.05,3,6.83,8.23,2.11,15.72,2.11s12.73,2.48,12.73,4.71Z"/><path class="cls-1" d="M29.45,20.77c-5.27,0-9.55,4.29-9.55,9.55s4.29,9.55,9.55,9.55,9.55-4.29,9.55-9.55-4.29-9.55-9.55-9.55Zm0,17.11c-4.16,0-7.55-3.39-7.55-7.55s3.39-7.55,7.55-7.55,7.55,3.39,7.55,7.55-3.39,7.55-7.55,7.55Z"/><path class="cls-1" d="M30.12,25.79c-.38-.35-.96-.35-1.35,0l-2.66,2.43c-.41,.38-.44,1-.07,1.41s1,.44,1.41,.07l.99-.91v5.16c0,.56,.45,1,1,1s1-.45,1-1v-5.16l.99,.91c.19,.17,.43,.26,.68,.26,.27,0,.54-.11,.74-.33,.38-.41,.34-1.04-.07-1.41l-2.67-2.43Z"/></g></g></g></svg>