<?xml version="1.0" encoding="UTF-8"?><svg xmlns="http://www.w3.org/2000/svg" viewBox="0 0 28 28"><defs><style>.d{fill:#0091ff;stroke:#0091ff;stroke-miterlimit:10;stroke-width:.37px;}.e{fill:none;}</style></defs><g id="a"/><g id="b"><g id="c"><g><rect class="e" width="28" height="28"/><g><path class="d" d="M.25,22.81c.03-.1,.05-.21,.08-.31,.28-1.05,.93-1.76,1.96-2.11,1.34-.46,2.69-.91,4.04-1.34,.22-.07,.28-.18,.3-.41,.05-.64-.03-1.18-.6-1.62-.29-.23-.44-.64-.67-.96-.06-.08-.16-.16-.25-.17-1.22-.16-1.86-1.5-1.2-2.54,.09-.14,.09-.25,.03-.39-.28-.71-.39-1.45-.31-2.21,.06-.65,.38-1.21,.75-1.73,1.28-1.8,3.05-2.66,5.25-2.47,2.1,.19,3.63,1.29,4.62,3.16,.33,.63,.34,1.28,.22,1.96-.05,.26-.08,.53-.14,.79-.09,.4-.09,.76,.11,1.17,.47,.98-.23,2.12-1.31,2.25-.14,.02-.22,.06-.28,.19-.24,.53-.6,.97-1.03,1.36-.07,.06-.12,.18-.13,.27-.01,.34,0,.68-.01,1.02-.01,.19,.06,.26,.23,.32,1.32,.43,2.63,.87,3.94,1.31,1.45,.48,2.18,1.49,2.19,3.01,0,1.27,0,2.54,0,3.81,0,.26-.07,.45-.29,.59H.25v-4.94ZM13.4,12.63s.03-.04,.04-.05c.07-.42,.13-.85,.21-1.27,.08-.45,.03-.87-.19-1.27-.97-1.76-2.46-2.71-4.48-2.65-2.04,.06-3.5,1.09-4.34,2.95-.35,.77-.14,1.55,.1,2.28,.56-.07,1.08-.17,1.61-.2,1.47-.09,2.67-.61,3.51-1.89,.5-.77,1.45-.77,2.04-.08,.17,.2,.32,.41,.43,.65,.19,.4,.35,.82,.5,1.24,.06,.17,.12,.29,.33,.27,.09,0,.17,.02,.25,.03Zm-8,7.64c-.12,.04-.21,.06-.29,.08-.84,.28-1.68,.56-2.52,.84-.94,.32-1.48,1.07-1.49,2.06,0,1.13,0,2.26,0,3.38,0,.08,0,.15,.01,.23H3.16c0-.62,0-1.21,0-1.81,0-.29,.18-.48,.43-.48,.25,0,.42,.19,.42,.48,0,.36,0,.72,0,1.07,0,.25,0,.49,0,.74h2.95c.02-.07,.04-.12,.05-.18,.14-.79,.25-1.59,.43-2.37,.13-.6-.04-1.16-.13-1.78-.4,.28-.76,.53-1.11,.79-.17,.13-.35,.23-.57,.11-.21-.11-.23-.31-.23-.53,0-.87,0-1.73,0-2.64Zm5.91,6.6h2.96c0-.56,0-1.11,0-1.65,0-.43,.14-.64,.44-.64,.29,0,.42,.2,.42,.62,0,.44,0,.88,0,1.32v.36h2.04c0-.08,.01-.15,.01-.22,0-1.14,0-2.27,0-3.41,0-1.01-.53-1.73-1.49-2.06-.85-.29-1.69-.57-2.54-.85-.07-.02-.15-.04-.26-.07,0,.12,0,.22,0,.31,0,.77,0,1.54,0,2.31,0,.21,0,.42-.22,.54-.23,.12-.41,.01-.59-.12-.35-.25-.71-.5-1.1-.78-.07,.46-.23,.89-.18,1.29,.12,1.02,.34,2.03,.51,3.05ZM5.81,14.24h-.02c.03,.23,.05,.46,.09,.69,.34,1.68,1.89,2.79,3.63,2.61,1.62-.17,2.92-1.61,2.87-3.28-.04-1.14-.48-2.17-1.05-3.14,0,0-.01-.01-.02-.02-.3-.39-.58-.39-.85,.02-.89,1.37-2.2,1.99-3.78,2.13-.86,.07-.87,.06-.88,.94,0,.02,0,.04,0,.05Zm4.1,9.66h-1.54l-.52,2.99h2.58l-.52-2.99Zm-2.44-5.8c0,.29,0,.54,0,.77,0,.07,.05,.15,.11,.19,.51,.37,1.03,.74,1.56,1.11,.53-.38,1.05-.75,1.58-1.12,.04-.03,.09-.1,.09-.15,0-.27,0-.54,0-.85-1.12,.47-2.21,.47-3.34,.04Zm-1.2,4.12l2.13-1.51c-.45-.32-.86-.62-1.28-.91-.06-.04-.15-.06-.22-.04-.21,.06-.42,.14-.62,.21v2.25Zm5.76,0c0-.69-.02-1.3,0-1.92,.01-.28-.08-.41-.34-.46-.16-.03-.37-.14-.48-.08-.45,.28-.87,.6-1.33,.93l2.14,1.52Zm-3.77,.78h1.75c.02-.09,.03-.18,.06-.26,.23-.57,.02-.93-.5-1.22-.45-.25-.43-.29-.87,.02-.11,.08-.21,.17-.33,.23-.23,.12-.34,.28-.24,.55,.07,.21,.08,.44,.13,.68Zm4.96-8.07c.31-.13,.5-.39,.5-.71,0-.32-.19-.59-.5-.7v1.42Zm-8.25-1.41c-.31,.14-.48,.4-.48,.71,0,.31,.18,.57,.48,.69v-1.4Z"/><path class="d" d="M23.3,9.32h1.54v-.32c0-1.84,0-3.67,0-5.51,0-.1,0-.2,0-.3,.02-.23,.15-.36,.38-.38,.24-.02,.4,.1,.45,.33,.02,.1,.02,.21,.02,.32,0,1.84,0,3.67,0,5.51v.36c.48,0,.94,0,1.41,0,.44,0,.64,.14,.65,.43,0,.29-.2,.43-.64,.43-3.64,0-7.27,0-10.91,0-.05,0-.11,0-.16,0-.28,0-.46-.17-.47-.41,0-.25,.18-.44,.47-.45,.52,0,1.04,0,1.6,0,0-.11,0-.21,0-.3,0-.74,0-1.49,0-2.23,0-.37,.15-.57,.42-.57,.28,0,.44,.21,.44,.59,0,.73,0,1.47,0,2.2,0,.1,0,.19,0,.3h1.53c0-.11,0-.22,0-.32,0-1.44,0-2.88,0-4.32,0-.11,0-.22,.03-.32,.06-.22,.22-.32,.45-.3,.21,.02,.34,.15,.37,.36,.01,.1,0,.2,0,.29,0,1.43,0,2.87,0,4.3v.3h1.54c0-.18,0-.34,0-.51,0-1.09,0-2.18,0-3.28,0-.33,.18-.52,.46-.5,.25,.02,.4,.2,.4,.51,0,1.16,0,2.31,0,3.47,0,.1,0,.19,0,.32Z"/><path class="d" d="M17.36,11.5c.12,.05,.21,.07,.29,.12,.38,.21,.69,.08,.8-.34,.06-.24,.21-.37,.46-.37,.33,0,.66,0,.99,0,.27,0,.43,.13,.49,.4,.09,.39,.43,.53,.77,.33,.27-.16,.42-.14,.65,.08,.22,.21,.43,.43,.65,.65,.23,.23,.25,.39,.08,.67-.19,.32-.04,.68,.32,.76,.3,.07,.41,.2,.42,.5,0,.31,0,.63,0,.94,0,.31-.11,.43-.41,.51-.37,.1-.52,.44-.32,.78,.15,.26,.13,.43-.08,.65-.21,.22-.43,.43-.65,.65-.23,.22-.39,.24-.67,.07-.3-.18-.67-.04-.75,.3-.09,.35-.2,.43-.57,.44-.3,0-.59,0-.89,0-.3,0-.43-.11-.51-.41-.09-.36-.44-.51-.76-.33-.28,.16-.44,.15-.67-.08-.22-.21-.43-.43-.65-.64-.23-.23-.24-.38-.07-.67,.18-.3,.03-.66-.31-.75-.33-.09-.43-.21-.43-.54,0-.3,0-.59,0-.89,0-.32,.11-.46,.42-.53,.36-.09,.51-.44,.32-.76-.16-.27-.15-.43,.06-.65,.22-.23,.45-.46,.69-.68,.09-.08,.2-.13,.31-.19Zm-.2,1.28c.28,.3,.23,.57,.05,.87-.1,.16-.12,.36-.21,.52-.07,.12-.18,.29-.29,.31-.3,.06-.32,.23-.25,.46q.46,.16,.62,.63c.03,.08,.05,.15,.09,.22,.19,.31,.32,.63,.03,.9l.25,.35c.29-.29,.55-.26,.83-.07,.1,.06,.21,.11,.32,.14,.36,.07,.62,.23,.62,.64h.41c0-.38,.22-.55,.56-.62,.11-.02,.23-.06,.32-.13,.3-.21,.59-.25,.88,.03l.29-.29c-.29-.3-.24-.59-.03-.89,.04-.06,.08-.14,.09-.22,.08-.36,.22-.67,.73-.67-.08-.17-.11-.39-.19-.4-.32-.07-.45-.26-.51-.55-.03-.11-.06-.23-.13-.32-.2-.3-.27-.6-.03-.85l-.24-.35c-.3,.29-.58,.23-.87,.04-.08-.05-.18-.09-.27-.11-.35-.08-.63-.22-.63-.63h-.42c-.01,.38-.22,.55-.57,.61-.1,.02-.21,.06-.3,.12-.3,.2-.6,.28-.88,0l-.32,.26Z"/><path class="d" d="M20.45,1.46c.13,.04,.22,.07,.31,.11,.6,.24,1.2,.47,1.79,.73,.17,.07,.28,.06,.42-.07,.64-.61,1.3-1.21,1.95-1.81,.25-.23,.53-.22,.69,.02,.13,.2,.11,.4-.06,.56-.79,.74-1.59,1.47-2.39,2.2-.16,.14-.34,.14-.53,.06-.62-.26-1.24-.5-1.86-.76-.15-.07-.25-.05-.38,.06-.66,.61-1.32,1.21-1.98,1.81-.16,.15-.34,.21-.54,.1-.18-.09-.26-.26-.21-.45,.03-.1,.1-.21,.18-.29,.76-.7,1.52-1.39,2.28-2.08,.09-.09,.22-.13,.32-.19Z"/><path class="d" d="M19.41,16.58c-1,0-1.82-.84-1.8-1.85,.01-.99,.84-1.8,1.83-1.8,1,0,1.82,.83,1.81,1.84,0,1.01-.83,1.81-1.84,1.8Zm.02-.86c.53,0,.96-.43,.96-.95,0-.53-.45-.98-.98-.97-.52,0-.96,.46-.95,.97,0,.53,.44,.95,.97,.95Z"/></g></g></g></g></svg>