<svg xmlns="http://www.w3.org/2000/svg" viewBox="0 0 40 40"><defs><style>.cls-1{fill:none;}.cls-2{fill:#fff;}</style></defs><g id="Layer_2" data-name="Layer 2"><g id="Layer_1-2" data-name="Layer 1"><rect class="cls-1" width="40" height="40"/><path class="cls-2" d="M39.22,1.61V38.38a1.46,1.46,0,0,1-1.51.84q-17.75,0-35.49,0c-1,0-1.43-.4-1.43-1.43Q.79,20,.78,2.29A1.46,1.46,0,0,1,1.62.78H38.39A1.76,1.76,0,0,1,39.22,1.61ZM3.07,7.55V36.93H37V7.55Zm0-2.29H23.43V3.05H3.06Zm24.87,0V3.06h-2.2V5.27Zm2.3,0h2.2V3.05h-2.2Zm4.51-2.21V5.26H37V3.05Z"/><path class="cls-2" d="M10.49,16.62c-2.17-.73-3.15-2.19-2.8-4.05a3.38,3.38,0,0,1,6.68.38,3.5,3.5,0,0,1-2.76,3.67c.56,0,1.12,0,1.68,0a3.35,3.35,0,0,1,3.21,2.51,3.09,3.09,0,0,1,.12.73q0,1.18,0,2.37a1.1,1.1,0,0,1-1.13,1.14h-9a1.08,1.08,0,0,1-1.14-1,20.84,20.84,0,0,1,.06-3,3.35,3.35,0,0,1,3.24-2.81C9.2,16.61,9.8,16.62,10.49,16.62Zm3.88,4.48c0-.42,0-.84,0-1.24a1.1,1.1,0,0,0-1.09-1c-1.52,0-3,0-4.54,0a1.17,1.17,0,0,0-1.15.91,9.68,9.68,0,0,0,0,1.32ZM11,14.36a1.12,1.12,0,1,0-1.12-1.12A1.14,1.14,0,0,0,11,14.36Z"/><path class="cls-2" d="M20,25.62H33.47a1.13,1.13,0,0,1,1.16,1.53,1.09,1.09,0,0,1-1,.72H6.7a2.35,2.35,0,0,1-.59-.05,1.11,1.11,0,0,1-.81-1.2,1.15,1.15,0,0,1,1.06-1H20Z"/><path class="cls-2" d="M20,32.38H6.65a2,2,0,0,1-.55-.06,1.12,1.12,0,0,1-.8-1.17,1.14,1.14,0,0,1,1-1h27a2,2,0,0,1,.55.05,1.11,1.11,0,0,1,.82,1.19,1.15,1.15,0,0,1-1.05,1H20Z"/><path class="cls-2" d="M26.84,16.62c2.22,0,4.45,0,6.67,0a1.12,1.12,0,0,1,1.1,1.59,1.15,1.15,0,0,1-1.12.66H20.1a1.13,1.13,0,1,1,0-2.25Z"/><path class="cls-2" d="M26.76,23.37H20.09A1.12,1.12,0,0,1,19,21.75a1.13,1.13,0,0,1,1.11-.63H33.53a1.12,1.12,0,0,1,1.07,1.6,1.14,1.14,0,0,1-1.13.65Z"/><path class="cls-2" d="M22.33,14.36a1.13,1.13,0,0,1-1.12-1.12,1.12,1.12,0,0,1,1.15-1.12,1.12,1.12,0,0,1,0,2.24Z"/><path class="cls-2" d="M26.85,12.12a1.12,1.12,0,1,1-1.14,1.1A1.13,1.13,0,0,1,26.85,12.12Z"/><path class="cls-2" d="M31.33,14.36a1.12,1.12,0,1,1,1.13-1.1A1.14,1.14,0,0,1,31.33,14.36Z"/></g></g></svg>