<svg xmlns="http://www.w3.org/2000/svg" viewBox="0 0 40 40"><defs><style>.cls-1{fill:none;}.cls-2{fill:#fff;}</style></defs><g id="Layer_2" data-name="Layer 2"><g id="Layer_1-2" data-name="Layer 1"><rect class="cls-1" width="40" height="40"/><path class="cls-2" d="M30.27,26.9a10.42,10.42,0,1,1,1.84-1.85l.29.31L39,31.94a1.35,1.35,0,0,1,.46,1.34,1.29,1.29,0,0,1-2.09.69c-.12-.1-.23-.22-.35-.34Zm-6.37-16a7.8,7.8,0,1,0,7.8,7.88A7.81,7.81,0,0,0,23.9,10.9Z"/><path class="cls-2" d="M20,5.7H2.08a3,3,0,0,1-.52,0A1.32,1.32,0,0,1,.5,4.29,1.3,1.3,0,0,1,1.74,3.11H37.89a3.09,3.09,0,0,1,.53,0,1.3,1.3,0,0,1-.14,2.58H20Z"/><path class="cls-2" d="M16.12,34.3h14a2.64,2.64,0,0,1,.49,0,1.3,1.3,0,0,1-.1,2.57H2.09a3.08,3.08,0,0,1-.53,0,1.3,1.3,0,0,1,.18-2.57c.53,0,1.05,0,1.58,0Z"/><path class="cls-2" d="M5.74,10.9H9.48a1.3,1.3,0,1,1,0,2.6H1.9a1.3,1.3,0,1,1,0-2.6Z"/><path class="cls-2" d="M5.72,18.7H9.46a1.31,1.31,0,1,1,0,2.6H1.92a1.31,1.31,0,1,1,0-2.6Z"/><path class="cls-2" d="M5.71,29.1H1.94a1.31,1.31,0,1,1,0-2.6H9.48a1.3,1.3,0,1,1,0,2.6Z"/></g></g></svg>