<svg xmlns="http://www.w3.org/2000/svg" viewBox="0 0 40 40"><defs><style>.cls-1{fill:none;}.cls-2{fill:#0091ff;}</style></defs><g id="Layer_2" data-name="Layer 2"><g id="Layer_1-2" data-name="Layer 1"><rect class="cls-1" width="40" height="40"/><path class="cls-2" d="M1.67,35.6a9.81,9.81,0,0,1,.26-1.07,5.48,5.48,0,0,1,2.71-3.24l.21-.11a15.64,15.64,0,0,1-.83-2,4.77,4.77,0,0,1,8.49-3.9.56.56,0,0,0,.77.25c1.21-.4,2.43-.77,3.65-1.14.18-.06.28-.12.31-.34a3.29,3.29,0,0,1,2-2.68.34.34,0,0,0,.19-.25c0-1.51,0-3,0-4.58H14.78a1.12,1.12,0,0,1-1.25-1.25,14.8,14.8,0,0,1,.19-2.67A5.22,5.22,0,0,1,16.52,9l.29-.16a4.82,4.82,0,0,1-.88-4.37A4.7,4.7,0,0,1,17.74,2a4.77,4.77,0,0,1,5.85.21,4.72,4.72,0,0,1,1.7,3.23,4.74,4.74,0,0,1-1.06,3.49,5.65,5.65,0,0,1,2.25,1.84,5.44,5.44,0,0,1,1,3.13c0,.48,0,1,0,1.43a1.13,1.13,0,0,1-1.23,1.24H21.63v2c0,.83,0,1.67,0,2.5a.44.44,0,0,0,.21.35,3.38,3.38,0,0,1,2,2.66c0,.11.09.28.18.31l4.23,1.32a4.81,4.81,0,1,1,7.88,5.48l.3.18a5.49,5.49,0,0,1,3,4.84c0,.38,0,.76,0,1.14a1.36,1.36,0,0,1-.81,1.49H26.2a1.37,1.37,0,0,1-.82-1.49c0-.36,0-.73,0-1.1A5.49,5.49,0,0,1,28,31.52c.22-.14.46-.26.71-.4a5,5,0,0,1-1.09-3.21c0-.07-.13-.19-.22-.22-1.32-.42-2.64-.83-4-1.22a.47.47,0,0,0-.39.12,3.29,3.29,0,0,1-5,0,.36.36,0,0,0-.44-.12c-1.28.41-2.57.81-3.86,1.2-.25.07-.31.19-.3.44a4.67,4.67,0,0,1-.82,2.66l-.25.37.39.2a5.6,5.6,0,0,1,2.67,3.29,9.91,9.91,0,0,1,.23,2.66,1.39,1.39,0,0,1-.82,1.49H2.48A1.68,1.68,0,0,1,1.67,38ZM15.76,14.29h9.53a3.3,3.3,0,0,0-3.16-3.65c-1,0-2.06,0-3.09,0A3.31,3.31,0,0,0,15.76,14.29ZM3.9,36.53h9.53A3.2,3.2,0,0,0,10.66,33a18.08,18.08,0,0,0-4,0A3.2,3.2,0,0,0,3.9,36.53Zm33.26,0a3.31,3.31,0,0,0-3.32-3.66c-1,0-2,0-3,0a3.16,3.16,0,0,0-2.06.74,3.33,3.33,0,0,0-1.22,2.92ZM18,5.86a2.58,2.58,0,1,0,2.56-2.6A2.59,2.59,0,0,0,18,5.86ZM11.24,28.09a2.58,2.58,0,1,0-2.57,2.57A2.58,2.58,0,0,0,11.24,28.09Zm18.57,0a2.58,2.58,0,1,0,2.56-2.59A2.58,2.58,0,0,0,29.81,28.1Zm-8.18-3.68a1.11,1.11,0,0,0-2.21-.05,1.11,1.11,0,1,0,2.21.05Z"/></g></g></svg>