<svg xmlns="http://www.w3.org/2000/svg" viewBox="0 0 40 40"><defs><style>.cls-1,.cls-3{fill:none;}.cls-2{fill:#0091ff;}.cls-3{stroke:#0091ff;stroke-miterlimit:10;stroke-width:0.48px;}</style></defs><g id="Layer_2" data-name="Layer 2"><g id="Layer_1-2" data-name="Layer 1"><rect class="cls-1" width="40" height="40"/><path class="cls-2" d="M20.19,2.17A18.2,18.2,0,1,0,38.34,20.41,18.21,18.21,0,0,0,20.19,2.17Zm0,34.47A16.27,16.27,0,1,1,36.42,20.35,16.25,16.25,0,0,1,20.2,36.64Zm3.54-18.5Q26.92,15,30.08,11.8c.15-.14.37-.28.41-.46a2,2,0,0,0,.07-1,.69.69,0,0,0-.8-.5,1.69,1.69,0,0,0-.88.45c-2.25,2.22-4.48,4.47-6.75,6.75a3.85,3.85,0,1,0,1.5,1.68A.45.45,0,0,1,23.74,18.14Zm-3.55,4.14a1.91,1.91,0,1,1,1.89-1.93A1.89,1.89,0,0,1,20.19,22.28Zm4.22-11.55c.68.29,1.21.15,1.46-.39s0-1.07-.71-1.37a13.07,13.07,0,0,0-5.34-1.05,12.15,12.15,0,0,0-9.6,5,12.1,12.1,0,0,0-2.47,7.21,1,1,0,0,0,.64,1.12c.66.23,1.21-.23,1.29-1A15.72,15.72,0,0,1,10,17.69,10.49,10.49,0,0,1,24.41,10.73Zm8.17,9.08c0-.23,0-.39,0-.56a12.45,12.45,0,0,0-1-4,1,1,0,0,0-.95-.61.81.81,0,0,0-.81.6,1.81,1.81,0,0,0,.05.86c.26,1,.58,2.06.82,3.1a11.91,11.91,0,0,1,.11,1.34.93.93,0,0,0,.94.8.94.94,0,0,0,.92-.82A5.43,5.43,0,0,0,32.58,19.81Z"/><path class="cls-3" d="M20.19,2.17A18.2,18.2,0,1,0,38.34,20.41,18.21,18.21,0,0,0,20.19,2.17Zm0,34.47A16.27,16.27,0,1,1,36.42,20.35,16.25,16.25,0,0,1,20.2,36.64Zm3.54-18.5Q26.92,15,30.08,11.8c.15-.14.37-.28.41-.46a2,2,0,0,0,.07-1,.69.69,0,0,0-.8-.5,1.69,1.69,0,0,0-.88.45c-2.25,2.22-4.48,4.47-6.75,6.75a3.85,3.85,0,1,0,1.5,1.68A.45.45,0,0,1,23.74,18.14Zm-3.55,4.14a1.91,1.91,0,1,1,1.89-1.93A1.89,1.89,0,0,1,20.19,22.28Zm4.22-11.55c.68.29,1.21.15,1.46-.39s0-1.07-.71-1.37a13.07,13.07,0,0,0-5.34-1.05,12.15,12.15,0,0,0-9.6,5,12.1,12.1,0,0,0-2.47,7.21,1,1,0,0,0,.64,1.12c.66.23,1.21-.23,1.29-1A15.72,15.72,0,0,1,10,17.69,10.49,10.49,0,0,1,24.41,10.73Zm8.17,9.08c0-.23,0-.39,0-.56a12.45,12.45,0,0,0-1-4,1,1,0,0,0-.95-.61.81.81,0,0,0-.81.6,1.81,1.81,0,0,0,.05.86c.26,1,.58,2.06.82,3.1a11.91,11.91,0,0,1,.11,1.34.93.93,0,0,0,.94.8.94.94,0,0,0,.92-.82A5.43,5.43,0,0,0,32.58,19.81Z"/></g></g></svg>