<svg xmlns="http://www.w3.org/2000/svg" viewBox="0 0 28 28"><defs><style>.cls-1{fill:none;}.cls-2{fill:#0091ff;}</style></defs><g id="Layer_2" data-name="Layer 2"><g id="Layer_1-2" data-name="Layer 1"><rect class="cls-1" width="28" height="28"/><path class="cls-2" d="M20.62.67a1.21,1.21,0,0,1,.89,1,4.2,4.2,0,0,1-.06.61.49.49,0,0,0,.05.27,1.27,1.27,0,0,1,.2,1.38,1.23,1.23,0,0,1-1.18.76c-.34,0-.69,0-1,0A.44.44,0,0,1,19,4.21v-3a.55.55,0,0,1,.31-.49Zm-.7,3.12c.23,0,.43,0,.63,0a.35.35,0,0,0,.35-.37A.36.36,0,0,0,20.55,3c-.2,0-.41,0-.63,0Zm0-1.69a1.73,1.73,0,0,0,.46,0c.09,0,.22-.16.22-.25s-.13-.21-.23-.24a1.33,1.33,0,0,0-.45,0Z"/><path class="cls-2" d="M2.54.67a2.9,2.9,0,0,1,.39.55c.36.92.7,1.84,1,2.77a.5.5,0,0,1,0,.56.44.44,0,0,1-.75-.15.55.55,0,0,0-.73-.46.17.17,0,0,1-.1,0c-.4,0-.7,0-.82.48s-.54.36-.86,0V4.1c0-.06.07-.13.1-.2.34-.89.66-1.78,1-2.66A2.63,2.63,0,0,1,2.18.67ZM2.63,3l-.27-.72L2.09,3Z"/><path class="cls-2" d="M8.69.67a2.49,2.49,0,0,1,.39.48c.37.93.71,1.86,1.06,2.8a.88.88,0,0,1,.07.32.39.39,0,0,1-.31.4.42.42,0,0,1-.49-.14.24.24,0,0,1-.06-.11C9.28,4,9,3.88,8.59,3.94H8.48c-.39-.06-.67,0-.77.47a.42.42,0,0,1-.57.26.45.45,0,0,1-.26-.6c.14-.39.3-.78.44-1.16.22-.58.42-1.16.66-1.72a2.49,2.49,0,0,1,.4-.52ZM8.81,3l-.27-.73L8.26,3Z"/><path class="cls-2" d="M16.87.67a2.11,2.11,0,0,1,.38.48C17.62,2.08,18,3,18.32,4a1.14,1.14,0,0,1,.07.32.39.39,0,0,1-.31.4.42.42,0,0,1-.49-.14.49.49,0,0,1-.07-.11c-.06-.47-.37-.54-.76-.48h-.1c-.39-.06-.67,0-.77.47a.42.42,0,0,1-.57.26.44.44,0,0,1-.26-.6c.14-.39.29-.78.44-1.16.22-.58.42-1.16.66-1.72a2.44,2.44,0,0,1,.39-.52Zm-.13,1.69h-.06L16.44,3H17Z"/><path class="cls-2" d="M27,.67c.1.14.26.26.3.42s-.15.47-.45.48-.54,0-.82,0v.64h.69c.31,0,.5.19.49.46s-.19.43-.5.44h-.68v.64h.75c.34,0,.54.19.53.47s-.21.44-.54.44H25.65c-.36,0-.53-.16-.53-.52,0-1,0-2,0-2.94a.63.63,0,0,1,.3-.54Z"/><path class="cls-2" d="M6.71.67c.33.27.36.36.22.77-.31,1-.63,1.89-.94,2.83a.53.53,0,0,1-.6.42A.52.52,0,0,1,5,4.32l-1-3c-.1-.31,0-.46.29-.66h.26a2.48,2.48,0,0,1,.34.46A7.39,7.39,0,0,1,5.1,2l.33.93a17.78,17.78,0,0,0,.64-1.76A.7.7,0,0,1,6.45.67Z"/><path class="cls-2" d="M13.12.67a.66.66,0,0,1,.3.63c0,.73,0,1.46,0,2.19v.3H14a.47.47,0,0,1,.5.45.45.45,0,0,1-.47.45,9.55,9.55,0,0,1-1.07,0,.44.44,0,0,1-.47-.48c0-1,0-2,0-3.06,0-.17.19-.32.29-.48Z"/><path class="cls-2" d="M23.06.67a.58.58,0,0,1,.33.59c0,.83,0,1.66,0,2.53H24c.32,0,.51.17.52.44s-.18.46-.51.47H23a.45.45,0,0,1-.51-.52c0-1,0-1.95,0-2.92A.57.57,0,0,1,22.8.67Z"/><path class="cls-2" d="M11.45.67a.68.68,0,0,1,.31.63c0,.94,0,1.88,0,2.81a.88.88,0,0,1-.11.42.4.4,0,0,1-.49.14.42.42,0,0,1-.31-.43c0-.25,0-.5,0-.75,0-.73,0-1.46,0-2.19a.64.64,0,0,1,.31-.63Z"/><path class="cls-2" d="M14,27.33a7,7,0,1,1,7-7A7,7,0,0,1,14,27.33Zm5.47-7A5.47,5.47,0,1,0,14,25.77,5.48,5.48,0,0,0,19.47,20.3Z"/><path class="cls-2" d="M21.17,9.24c.17-.85.33-1.64.49-2.42,0-.08,0-.16,0-.23a.59.59,0,1,1,1.15.22c-.08.46-.18.92-.27,1.38-.2,1-.41,2-.61,3.06-.08.42-.3.65-.65.67s-.62-.17-.75-.6c-.27-.86-.53-1.72-.82-2.65-.05.15-.09.23-.12.33-.24.78-.48,1.57-.73,2.35a.69.69,0,0,1-.73.57c-.34,0-.56-.23-.64-.64-.3-1.48-.59-2.95-.88-4.43a.58.58,0,0,1,.43-.76.6.6,0,0,1,.72.54l.48,2.43s0,.06,0,.15l.11-.27c.24-.78.48-1.57.73-2.36.1-.34.28-.5.57-.5s.49.15.6.51c.25.79.5,1.58.74,2.38C21.09,9,21.12,9.11,21.17,9.24Z"/><path class="cls-2" d="M6.3,8.64v2.52c0,.5-.19.76-.57.76s-.59-.25-.59-.75V6.74a.59.59,0,0,1,.42-.64.62.62,0,0,1,.69.3L8.12,9.12a1.08,1.08,0,0,0,.28.29V9.15c0-.83,0-1.65,0-2.48a.58.58,0,0,1,1.16,0,1.93,1.93,0,0,1,0,.24c0,.9,0,1.8,0,2.7,0,.55,0,1.1,0,1.64a.61.61,0,0,1-.75.64.91.91,0,0,1-.48-.36c-.63-.88-1.23-1.77-1.84-2.65l-.15-.21Z"/><path class="cls-2" d="M13.28,11.92A2.92,2.92,0,1,1,16.2,9,2.91,2.91,0,0,1,13.28,11.92Zm0-1.16A1.76,1.76,0,1,0,11.51,9,1.77,1.77,0,0,0,13.28,10.76Z"/><path class="cls-2" d="M13.11,21.07a3.6,3.6,0,0,1,.29-.35L16.15,18a.81.81,0,0,1,1.16-.07.8.8,0,0,1-.06,1.18L13.7,22.63a.79.79,0,0,1-1.24,0l-1.71-1.71a.79.79,0,1,1,1.11-1.11Z"/></g></g></svg>