<svg xmlns="http://www.w3.org/2000/svg" viewBox="0 0 28 28"><defs><style>.cls-1{fill:none;}.cls-2{fill:#0091ff;}</style></defs><g id="Layer_2" data-name="Layer 2"><g id="Layer_1-2" data-name="Layer 1"><rect class="cls-1" width="28" height="28"/><path class="cls-2" d="M27.64,26.94v.32a.74.74,0,0,1-.73.38H1.09c-.47,0-.72-.18-.72-.52s.25-.54.73-.54H2c0-.08,0-.13,0-.18v-12A.32.32,0,0,0,1.83,14,3.05,3.05,0,0,1,.37,11.37c0-2.57,0-5.13,0-7.7A1.6,1.6,0,0,1,2.08,2H6.33c0-.31,0-.59,0-.87A.68.68,0,0,1,6.7.36h5.06c.32.22.43.42.36.67s-.29.4-.7.4h-4v3.5H20.59V1.43H16.47a.54.54,0,0,1-.6-.56c0-.25.18-.38.37-.51H21.3a.68.68,0,0,1,.37.73c0,.28,0,.57,0,.87H22c1.34,0,2.68,0,4,0a1.57,1.57,0,0,1,1.49,1c0,.12.08.24.13.35v8.52l-.06.18a3,3,0,0,1-1.38,2,.4.4,0,0,0-.22.4c0,4,0,7.91,0,11.87v.28c.33,0,.63,0,.93,0A.7.7,0,0,1,27.64,26.94ZM4.15,26.55V17.34c0-.49.18-.68.67-.68H9.45c.55,0,.72.17.72.72v9.17H24.9v-12a3.29,3.29,0,0,1-3-1.35,3.17,3.17,0,0,1-2.63,1.36,3.2,3.2,0,0,1-2.6-1.37,3.27,3.27,0,0,1-5.31,0,3.18,3.18,0,0,1-5.22,0,3.26,3.26,0,0,1-3,1.35v12ZM26.57,7.07V3.7c0-.49-.19-.67-.68-.67H21.67V5.39c0,.42-.2.62-.63.62H7c-.43,0-.63-.2-.63-.64V3H2.09c-.47,0-.66.19-.66.67V7.07ZM16.13,8.16H11.87c0,1.15,0,2.29,0,3.42a2.14,2.14,0,0,0,4.24,0C16.16,10.45,16.13,9.31,16.13,8.16ZM5.22,23H9.08V17.74H5.22ZM1.43,8.15v3.21a2.07,2.07,0,0,0,2.09,2.1,2.05,2.05,0,0,0,2.06-2.09c0-1,0-2,0-3,0-.07,0-.14,0-.22Zm5.22,0v3.2a2.08,2.08,0,0,0,2.07,2.11,2.05,2.05,0,0,0,2.08-2.1c0-1,0-2,0-3,0-.08,0-.15,0-.23Zm10.55,0c0,1.09,0,2.14,0,3.2a2.08,2.08,0,1,0,4.15,0v-3a1.79,1.79,0,0,0,0-.23Zm5.22,0v.23c0,1,0,2,0,3a2.08,2.08,0,1,0,4.15,0V8.15ZM9.08,26.55V24.14H5.23v2.41Z"/><path class="cls-2" d="M14.16.36l.13.09a.51.51,0,0,1,.21.6.52.52,0,0,1-1,0,.51.51,0,0,1,.21-.6l.13-.09Z"/><path class="cls-2" d="M17.84,24.12H12.51c-.51,0-.69-.18-.69-.68v-6.1c0-.5.18-.68.69-.68H23.16c.52,0,.69.18.69.71v6c0,.54-.17.71-.72.71ZM16.2,22V23h3.27V22H19a.55.55,0,0,1-.59-.53.54.54,0,0,1,.57-.54H21.1a.54.54,0,0,1,.57.54.55.55,0,0,1-.58.53h-.53V23h2.21v-5.3H12.9V23h2.21V22h-.57a.53.53,0,0,1-.54-.54.54.54,0,0,1,.54-.52h2.23a.51.51,0,0,1,.53.52.52.52,0,0,1-.52.53Z"/></g></g></svg>