<svg xmlns="http://www.w3.org/2000/svg" viewBox="0 0 28 28"><defs><style>.cls-1{fill:none;}.cls-2{fill:#0091ff;}</style></defs><g id="Layer_2" data-name="Layer 2"><g id="Layer_1-2" data-name="Layer 1"><rect class="cls-1" width="28" height="28"/><path class="cls-2" d="M11.74,13.87c.33.31.62.56.89.83a.7.7,0,0,0,.48.24c.29,0,.58.08.89.13v-.53c0-.37.17-.54.54-.54h2.62V11.9a2.07,2.07,0,0,1,.05-.5,1.33,1.33,0,0,1,1.25-1h4.63a1.35,1.35,0,0,1,1.3,1.35V14H27c.4,0,.56.16.56.57V26.14a1.36,1.36,0,0,1-1.4,1.41H1c-.42,0-.58-.15-.58-.58V20.06A5,5,0,0,1,5,14.92a.79.79,0,0,0,.41-.2c.24-.2.44-.43.67-.64A1,1,0,0,1,6.32,14c0-.29,0-.59,0-.89a.48.48,0,0,0-.14-.26A3.89,3.89,0,0,1,5,10.53c0-.19-.15-.21-.28-.25a2.22,2.22,0,0,1-1.57-2A1.33,1.33,0,0,1,3.87,7a.33.33,0,0,0,.2-.35c0-.69,0-1.38,0-2.06A4.07,4.07,0,0,1,8.16.45a21.31,21.31,0,0,1,2.4.06A4,4,0,0,1,14,4.37c0,.72,0,1.44,0,2.17a.46.46,0,0,0,.25.47,1.42,1.42,0,0,1,.56,1.76,2.12,2.12,0,0,1-1.5,1.5.36.36,0,0,0-.28.33A3.72,3.72,0,0,1,12,12.73a.68.68,0,0,0-.22.57C11.75,13.52,11.74,13.75,11.74,13.87ZM14,16c-.3-.07-.57-.11-.83-.18s-.3,0-.39.2c-.34.7-.69,1.4-1.05,2.09-.2.41-.42.48-.81.24-.57-.33-1.13-.67-1.69-1a.36.36,0,0,0-.43,0c-.56.35-1.13.68-1.69,1-.4.24-.61.17-.82-.23L5.25,16a.28.28,0,0,0-.34-.19,4,4,0,0,0-3.55,4c0,1.3,0,2.6,0,3.9,0,.06,0,.12,0,.19H3.61c0-.32,0-.62,0-.92A.41.41,0,0,1,4,22.59a.4.4,0,0,1,.47.28.75.75,0,0,1,0,.3c0,1,0,2.11,0,3.16v.31H14Zm12.63-1.11H14.9V26c0,.55.12.67.68.67H26c.56,0,.68-.12.68-.67V14.92ZM13.09,6.09c0-.63,0-1.24,0-1.85a3,3,0,0,0-2.65-2.82,12.94,12.94,0,0,0-2.64,0A3,3,0,0,0,5.06,3.81a19.1,19.1,0,0,0-.13,2.3A12.6,12.6,0,0,1,13.09,6.09Zm-.85,2.06H5.87c0,.64,0,1.26,0,1.88a3.17,3.17,0,0,0,2.85,3.06,3.07,3.07,0,0,0,3.35-2.37A18.09,18.09,0,0,0,12.24,8.15ZM23.48,14c0-.77,0-1.5,0-2.23a.43.43,0,0,0-.48-.47H18.57a.44.44,0,0,0-.5.51c0,.67,0,1.34,0,2a1.11,1.11,0,0,0,0,.19ZM9,16.12c.59-.49,1.16-1,1.72-1.44a.19.19,0,0,0,.08-.16c0-.3,0-.6,0-.9a4.32,4.32,0,0,1-3.61,0c0,.29,0,.58,0,.87a.28.28,0,0,0,.06.18Zm3.76-9.07,0-.09C11,6.13,6.62,6.14,5.22,7a3.3,3.3,0,0,0,.68.18q3.14,0,6.26,0A2.46,2.46,0,0,0,12.79,7.05ZM1.37,26.63H3.59V24.86H1.37Zm6.88-10L6.36,15.07,6,15.44l1,2Zm1.56,0,1.29.78,1-2-.39-.38ZM5,9.38V8.14a.42.42,0,0,0-.37-.47.54.54,0,0,0-.53.42A1.21,1.21,0,0,0,5,9.38Zm8.13,0,.07.06a4.7,4.7,0,0,0,.5-.38,1.18,1.18,0,0,0,.32-.9.48.48,0,0,0-.51-.46c-.19,0-.39.1-.38.36Z"/><path class="cls-2" d="M22,18.67a3.9,3.9,0,0,1,2.8,3.46h.46a.41.41,0,0,1,.45.35,2,2,0,0,1-.61,1.92,1.73,1.73,0,0,1-1.14.44c-2.13,0-4.27,0-6.4,0a1.8,1.8,0,0,1-1.76-1.78c0-.86,0-.88.84-.93l.1,0a3.84,3.84,0,0,1,2.8-3.44,1.33,1.33,0,0,1,.51-1.74,1.31,1.31,0,0,1,1.51,0A1.42,1.42,0,0,1,22,18.67Zm1.87,3.46a2.93,2.93,0,0,0-3.47-2.7,2.81,2.81,0,0,0-2.71,2.7h1.72a.43.43,0,0,1,.45.43.43.43,0,0,1-.43.46H16.73a.86.86,0,0,0,.92.9h3.61c.88,0,1.77,0,2.65,0a.87.87,0,0,0,.9-.91H23.49a.43.43,0,0,1-.46-.46.44.44,0,0,1,.46-.44Zm-2.66-4a.43.43,0,0,0-.42-.47.44.44,0,0,0-.48.43.45.45,0,0,0,.9,0Z"/><path class="cls-2" d="M21.47,22.13h.25a.41.41,0,0,1,.4.42.42.42,0,0,1-.39.47,2.9,2.9,0,0,1-.51,0,.42.42,0,0,1-.44-.44.44.44,0,0,1,.46-.46Z"/></g></g></svg>