<svg xmlns="http://www.w3.org/2000/svg" viewBox="0 0 28 28"><defs><style>.cls-1{fill:none;}.cls-2{fill:#0091ff;}</style></defs><g id="Layer_2" data-name="Layer 2"><g id="Layer_1-2" data-name="Layer 1"><rect class="cls-1" width="28" height="28"/><path class="cls-2" d="M5.42,28a7.86,7.86,0,0,1-.82-.27A2.45,2.45,0,0,1,3,25.33V6.51A2.81,2.81,0,0,1,5.8,3.67H8.33V2.74c0-.51.19-.71.71-.72s1.16,0,1.74,0a.27.27,0,0,0,.3-.17A3,3,0,0,1,14,0a3,3,0,0,1,2.91,1.83.35.35,0,0,0,.26.16c.54,0,1.09,0,1.64,0a2.22,2.22,0,0,1,.45.05.51.51,0,0,1,.44.57c0,.34,0,.67,0,1h.91a20.05,20.05,0,0,1,2.05.06A2.74,2.74,0,0,1,25,6.43q0,9.51,0,19a2.58,2.58,0,0,1-2.2,2.49,1.52,1.52,0,0,0-.2.06ZM8.33,5,8.24,5H6A1.52,1.52,0,0,0,4.34,6.66V25.43a1.13,1.13,0,0,0,.52.94,1.81,1.81,0,0,0,1.06.29H22.06l.47,0a1.26,1.26,0,0,0,1.13-1.34V6.6A1.49,1.49,0,0,0,22.1,5H19.67V6.44c0,.63-.26.89-.88.89H9.18c-.59,0-.84-.25-.85-.85Zm10-1.7H16.66c-.57,0-.76-.15-.92-.69a1.85,1.85,0,0,0-1.91-1.39,1.91,1.91,0,0,0-1.69,1.45.73.73,0,0,1-.82.63H9.7V6h8.62Z"/><path class="cls-2" d="M17.16,11H20.9a.68.68,0,0,1,.73.49.65.65,0,0,1-.51.82,2,2,0,0,1-.35,0h-7.5a.66.66,0,0,1,0-1.31c.23,0,.47,0,.7,0Z"/><path class="cls-2" d="M17.18,21.65h3.63a1.4,1.4,0,0,1,.41.05.61.61,0,0,1,.43.65.63.63,0,0,1-.5.6,1.12,1.12,0,0,1-.32,0q-3.67,0-7.34,0a1.21,1.21,0,0,1-.43-.07.64.64,0,0,1-.37-.74.65.65,0,0,1,.65-.52h3.84Z"/><path class="cls-2" d="M17.17,16.33h3.74a.69.69,0,0,1,.74.55.67.67,0,0,1-.62.78c-.14,0-.29,0-.44,0H13.44c-.46,0-.75-.24-.76-.63a.64.64,0,0,1,.7-.69h3.79Z"/><path class="cls-2" d="M8.4,16.87c.66-.63,1.32-1.27,2-1.89a1,1,0,0,1,.43-.26.65.65,0,0,1,.74.34.61.61,0,0,1-.15.79L9.16,18c-.12.11-.23.23-.36.33a.62.62,0,0,1-.89,0c-.46-.46-.92-.93-1.37-1.41a.69.69,0,0,1,0-1,.67.67,0,0,1,1,.06l.43.45Z"/><path class="cls-2" d="M8.4,11.54l2-1.94a.66.66,0,0,1,.84-.15.63.63,0,0,1,.17,1c-.87.85-1.76,1.69-2.65,2.52a.59.59,0,0,1-.88,0c-.45-.45-.9-.9-1.33-1.36a.68.68,0,0,1,0-1,.67.67,0,0,1,1,.09c.28.27.55.55.82.83Z"/><path class="cls-2" d="M8.42,22.18l2-1.93a.65.65,0,0,1,.91-.09.63.63,0,0,1,.09,1c-.88.84-1.76,1.68-2.65,2.51a.61.61,0,0,1-.9,0c-.45-.45-.89-.89-1.32-1.35a.66.66,0,1,1,1-.91Z"/></g></g></svg>