<svg xmlns="http://www.w3.org/2000/svg" viewBox="0 0 28 28"><defs><style>.cls-1{fill:none;}.cls-2{fill:#0091ff;}</style></defs><g id="Layer_2" data-name="Layer 2"><g id="Layer_1-2" data-name="Layer 1"><rect class="cls-1" width="28" height="28"/><path class="cls-2" d="M.39,18.84a1.09,1.09,0,0,1,.78-.65c1.32-.44,2.64-.9,4-1.36.68-.23,1-.07,1.27.61,0,0,0,.06.08.16A2.29,2.29,0,0,0,7,17.14a5.94,5.94,0,0,1,9-1.49.7.7,0,0,0,.44.16c.52,0,1.05,0,1.57,0a2.63,2.63,0,0,1,2.54,1.31l.22-.13c1-.65,1.93-1.31,2.92-1.94a2.57,2.57,0,0,1,3.69,1,7.47,7.47,0,0,1,.29.79v.74l-.05.1a2.56,2.56,0,0,1-1.07,1.68C24.67,20.68,22.86,22,21,23.27a8.61,8.61,0,0,1-4.65,1.52c-1.83.07-3.65.12-5.47.17L9,25c.06.65-.1.89-.71,1.1l-2.21.75-2,.73H3.63A1.3,1.3,0,0,1,3,26.79q-.77-2.33-1.58-4.63c-.33-1-.68-2-1-2.95ZM7,19.13c.48,1.4,1,2.78,1.42,4.17.06.18.18.14.3.14,2.47-.08,4.94-.17,7.41-.23A7.19,7.19,0,0,0,20.06,22c1.86-1.28,3.69-2.6,5.52-3.92a1,1,0,0,0,.24-1.41,1,1,0,0,0-1.39-.23c-1.2.79-2.39,1.59-3.58,2.39a.52.52,0,0,0-.17.22,2.5,2.5,0,0,1-2.55,1.78H13.7a.79.79,0,0,1-.14-1.54,1.31,1.31,0,0,1,.39-.05c1.4,0,2.8,0,4.2,0a1.51,1.51,0,0,0,.63-.16.85.85,0,0,0,.37-1,.89.89,0,0,0-.9-.65c-.75,0-1.49,0-2.23,0a1.22,1.22,0,0,1-.95-.38,4.28,4.28,0,0,0-6.55.65,3.74,3.74,0,0,1-1.45,1.37Zm-4.78.39L4.35,25.8l2.89-1L5.09,18.54Z"/><path class="cls-2" d="M18.62.39c.34.07.68.12,1,.2A6.72,6.72,0,1,1,17.07.46l.39-.07Zm4.55,6.75A5.14,5.14,0,1,0,18,12.26,5.13,5.13,0,0,0,23.17,7.14Z"/><path class="cls-2" d="M20.18,5.4a.82.82,0,0,1-.69.95.77.77,0,0,1-.88-.69.36.36,0,0,0-.44-.37,1.41,1.41,0,0,0-.29,0c-.13,0-.31.09-.38.2s.05.28.18.38c.6.44,1.2.88,1.79,1.33a1.86,1.86,0,0,1,.64,2.05A1.91,1.91,0,0,1,19,10.42a.38.38,0,0,0-.19.22.83.83,0,0,1-.82.67.82.82,0,0,1-.77-.68.41.41,0,0,0-.18-.21,1.87,1.87,0,0,1-1.18-1.55.83.83,0,0,1,.69-1,.79.79,0,0,1,.89.73.31.31,0,0,0,.37.32,2,2,0,0,0,.42,0c.12,0,.29-.09.31-.17a.43.43,0,0,0-.13-.35c-.58-.45-1.18-.88-1.76-1.32A1.87,1.87,0,0,1,17,3.85a.33.33,0,0,0,.24-.29A.77.77,0,0,1,18,2.94a.75.75,0,0,1,.77.59.44.44,0,0,0,.3.34A1.78,1.78,0,0,1,20.18,5.4Z"/></g></g></svg>