<svg xmlns="http://www.w3.org/2000/svg" viewBox="0 0 28 28"><defs><style>.cls-1{fill:none;}.cls-2{fill:#0091ff;}</style></defs><g id="Layer_2" data-name="Layer 2"><g id="Layer_1-2" data-name="Layer 1"><rect class="cls-1" width="28" height="28"/><path class="cls-2" d="M0,11.32v-.71a.5.5,0,0,0,.05-.13,2.69,2.69,0,0,1,1.51-2c.39-.2.77-.41,1.17-.6a.63.63,0,0,0,.38-.68c0-.48-.06-1-.07-1.44A2.67,2.67,0,0,1,5.84,3l1.47.07a.57.57,0,0,0,.6-.34c.2-.42.42-.83.63-1.24A2.68,2.68,0,0,1,12.47.46l1.2.77a.55.55,0,0,0,.66,0c.38-.26.78-.5,1.17-.75a2.66,2.66,0,0,1,4,1.06c.21.4.43.8.63,1.21a.57.57,0,0,0,.61.35l1.37-.06A2.66,2.66,0,0,1,25,5.91c0,.45,0,.91-.07,1.36a.62.62,0,0,0,.37.66c.41.19.8.4,1.19.61a2.67,2.67,0,0,1,1.08,3.94c-.24.38-.48.77-.74,1.15a.59.59,0,0,0,0,.75c.26.38.51.78.75,1.17a2.67,2.67,0,0,1-1,3.88q-.64.34-1.29.66a.57.57,0,0,0-.34.59c0,.5.05,1,.07,1.48A2.66,2.66,0,0,1,22.11,25c-.44,0-.89,0-1.34-.06a.63.63,0,0,0-.71.41c-.19.41-.42.8-.63,1.21a2.26,2.26,0,0,1-.91,1,9.28,9.28,0,0,1-1.13.47h-.71a4.31,4.31,0,0,1-1.59-.75c-.23-.15-.47-.28-.69-.44a.62.62,0,0,0-.8,0A6.81,6.81,0,0,1,11.32,28h-.71l-.07,0a2.68,2.68,0,0,1-2-1.55c-.19-.38-.4-.75-.59-1.14a.61.61,0,0,0-.67-.38L5.92,25A2.67,2.67,0,0,1,3,22.11c0-.46,0-.91.07-1.37a.61.61,0,0,0-.38-.67c-.41-.19-.8-.41-1.19-.61a2.38,2.38,0,0,1-1.06-.92A11.61,11.61,0,0,1,0,17.39v-.71a4,4,0,0,1,.69-1.5c.17-.25.31-.52.49-.76a.66.66,0,0,0,0-.84A6.52,6.52,0,0,1,0,11.32ZM21.33,22.69v.08h.85c.42,0,.61-.18.59-.59s-.05-1-.07-1.45a2.67,2.67,0,0,1,1.5-2.56c.41-.23.84-.44,1.26-.66a.5.5,0,0,0,.22-.82c-.25-.41-.53-.81-.78-1.22a2.64,2.64,0,0,1,0-2.94c.24-.41.51-.8.76-1.2s.18-.65-.24-.86l-1.19-.62a2.65,2.65,0,0,1-1.53-2.64c0-.45,0-.89.06-1.34s-.16-.66-.65-.64l-1.34.07a2.69,2.69,0,0,1-2.63-1.52c-.21-.42-.42-.83-.64-1.24a.51.51,0,0,0-.83-.22l-1.19.77a2.66,2.66,0,0,1-3,0c-.41-.25-.81-.52-1.22-.78a.5.5,0,0,0-.81.22c-.23.45-.46.91-.7,1.36a2.46,2.46,0,0,1-2,1.36,16.52,16.52,0,0,1-2,0c-.44,0-.63.17-.61.6s0,1,.07,1.42A2.69,2.69,0,0,1,3.79,9.84l-1.26.65a.5.5,0,0,0-.22.81c.26.41.53.81.78,1.22a2.64,2.64,0,0,1,0,3c-.23.38-.48.75-.72,1.13s-.24.69.26.95.9.45,1.33.7a2.42,2.42,0,0,1,1.29,1.89,15.72,15.72,0,0,1,0,1.94c0,.54.14.7.69.67s.89-.05,1.34-.06a2.67,2.67,0,0,1,2.57,1.49c.22.41.43.84.65,1.26a.52.52,0,0,0,.85.22c.39-.25.78-.51,1.17-.75a2.65,2.65,0,0,1,3,0l1.2.77a.5.5,0,0,0,.82-.22c.24-.45.46-.91.71-1.36A2.48,2.48,0,0,1,20,22.78,10.24,10.24,0,0,1,21.33,22.69Z"/><path class="cls-2" d="M18.79,7.49l-1.45,2.69q-2.76,5.1-5.51,10.19a.38.38,0,0,1-.41.25c-.72,0-1.44,0-2.19,0,0-.11.08-.19.12-.27Q12.77,14,16.18,7.71a.38.38,0,0,1,.38-.22Z"/><path class="cls-2" d="M12.74,10.23A3.28,3.28,0,1,1,9.46,7,3.3,3.3,0,0,1,12.74,10.23ZM9.46,9.13a1.1,1.1,0,1,0,1.09,1.09A1.1,1.1,0,0,0,9.46,9.13Z"/><path class="cls-2" d="M18.48,14.6a3.28,3.28,0,1,1-3.28,3.29A3.3,3.3,0,0,1,18.48,14.6Zm1.1,3.29A1.1,1.1,0,1,0,18.48,19,1.1,1.1,0,0,0,19.58,17.89Z"/></g></g></svg>