<svg xmlns="http://www.w3.org/2000/svg" viewBox="0 0 28 28"><defs><style>.cls-1{fill:none;}.cls-2{fill:#0091ff;}</style></defs><g id="Layer_2" data-name="Layer 2"><g id="Layer_1-2" data-name="Layer 1"><rect class="cls-1" width="28" height="28"/><path class="cls-2" d="M1.36,28a3.37,3.37,0,0,1-.61-.28,1.46,1.46,0,0,1-.69-1.29c0-3.2,0-6.41,0-9.61a1.47,1.47,0,0,1,1.4-1.53c1.27-.05,2.54,0,3.81,0a1.22,1.22,0,0,1,.87.4.23.23,0,0,0,.33,0l1-.55a4.13,4.13,0,0,0,1.91-2.26l1.14-3.17c.2-.54.41-.65,1-.47a9.36,9.36,0,0,1,1.09.39A2.85,2.85,0,0,1,14,11.05a.34.34,0,0,0,.36.23h3.82a.93.93,0,0,1,.7.29c.54.56,1.08,1.1,1.65,1.67l.24-.23c.48-.48,1-1,1.44-1.45a.88.88,0,0,1,.68-.28h3.3c.53,0,.72-.19.72-.73V1.86c0-.53-.19-.72-.73-.72H4.81c-.54,0-.72.19-.72.73v8.69c0,.53.19.71.72.72h.76a.54.54,0,1,1,0,1.08H4.7A1.63,1.63,0,0,1,3,10.66C3,9.58,3,8.5,3,7.42V1.86A1.66,1.66,0,0,1,4.81.05H25.89c1.23,0,1.6.25,2.06,1.36V11c-.46,1.12-.83,1.37-2.06,1.37H23.14a.58.58,0,0,0-.43.18c-.56.58-1.13,1.15-1.71,1.72-.38.38-.64.38-1,0-.58-.57-1.15-1.16-1.73-1.72a.63.63,0,0,0-.4-.17H14.29l.07.05-.83,2.79h4.19a2,2,0,0,1,2.07,1.51,2,2,0,0,1-.18,1.48A2,2,0,0,1,21,20.09,2,2,0,0,1,19.71,22a2,2,0,0,1,.13,1.73A2.12,2.12,0,0,1,18.59,25,2,2,0,0,1,18.54,27a2.14,2.14,0,0,1-1.43.94H8.93a9.91,9.91,0,0,1-2.44-.66.2.2,0,0,0-.18.06,1.73,1.73,0,0,1-1,.6ZM11.44,10.39c-.34.95-.69,1.88-1,2.82a5.13,5.13,0,0,1-2,2.6c-.5.33-1,.6-1.56.89a.38.38,0,0,0-.24.39q0,3.84,0,7.69c0,.4,0,.81,0,1.22a.33.33,0,0,0,.13.22,6.74,6.74,0,0,0,2.79.64h7.19a1,1,0,0,0,.86-.43.89.89,0,0,0-.69-1.37c-.65,0-1.3,0-2,0a.53.53,0,0,1-.59-.56c0-.31.23-.51.61-.52h2.86a1,1,0,0,0,.77-.27.86.86,0,0,0,.2-1,.87.87,0,0,0-.87-.57H15.14c-.51,0-.76-.17-.76-.53s.25-.56.76-.56H19a.91.91,0,0,0,.75-.3.85.85,0,0,0,.15-1,.87.87,0,0,0-.84-.54H15.15a1.55,1.55,0,0,1-.37,0,.53.53,0,0,1-.31-.82.61.61,0,0,1,.55-.23h2.64a2.12,2.12,0,0,0,.44,0,.9.9,0,0,0,.66-1,.92.92,0,0,0-1-.77H13c-.7,0-.89-.27-.67-.92l.75-2.24A2.05,2.05,0,0,0,11.44,10.39ZM3.9,16.3v6.41a1.93,1.93,0,0,1,0,.24c0,.37-.22.59-.53.6A.55.55,0,0,1,2.81,23a2.43,2.43,0,0,1,0-.27V16.3h-1c-.45,0-.61.17-.61.63,0,3.1,0,6.19,0,9.29,0,.48.15.64.63.64H4.91c.5,0,.65-.15.65-.66V16.89c0-.37-.15-.57-.47-.58S4.33,16.3,3.9,16.3Z"/><path class="cls-2" d="M22.59,3.26a.81.81,0,0,1,.76.48c.13.23.23.47.36.7a.44.44,0,0,0,.26.18c.24.06.48.08.73.12a.85.85,0,0,1,.74.59.84.84,0,0,1-.24.92c-.17.18-.37.35-.53.54a.37.37,0,0,0-.1.28c0,.27.09.54.12.81a.86.86,0,0,1-1.27.89c-.24-.11-.46-.25-.7-.36a.41.41,0,0,0-.29,0c-.24.1-.47.24-.7.36a.86.86,0,0,1-.95-.08.77.77,0,0,1-.31-.87A1.25,1.25,0,0,0,20,6.26a.77.77,0,0,1-.26-.93.8.8,0,0,1,.77-.59,1.19,1.19,0,0,0,1.28-.93A.79.79,0,0,1,22.59,3.26Zm.95,4.34a1.47,1.47,0,0,1,.59-1.84,1.45,1.45,0,0,1-1.56-1.14A1.45,1.45,0,0,1,21,5.77a1.46,1.46,0,0,1,.61,1.83A1.45,1.45,0,0,1,23.54,7.6Z"/><path class="cls-2" d="M6.59,7.89a7.73,7.73,0,0,1,.13-.77.31.31,0,0,0-.13-.37l-.5-.5a.83.83,0,0,1-.23-.94.78.78,0,0,1,.76-.57A1.19,1.19,0,0,0,7.9,3.82a.8.8,0,0,1,.82-.56.8.8,0,0,1,.81.57,1.2,1.2,0,0,0,1.27.91.81.81,0,0,1,.78.58.8.8,0,0,1-.27.95,1.23,1.23,0,0,0-.49,1.54.79.79,0,0,1-.34.91.86.86,0,0,1-1,0c-.27-.14-.55-.38-.82-.38s-.55.25-.82.39A.88.88,0,0,1,6.59,7.89ZM8.76,4.65a3.5,3.5,0,0,1-.61.83,3.66,3.66,0,0,1-1,.34,1.4,1.4,0,0,1,.61,1.79,1.44,1.44,0,0,1,1.92,0,1.47,1.47,0,0,1,.59-1.83A1.37,1.37,0,0,1,8.76,4.65Z"/><path class="cls-2" d="M16.75,8.87A5.68,5.68,0,0,1,16,8.5a.56.56,0,0,0-.69,0,4.44,4.44,0,0,1-.53.28.85.85,0,0,1-.92-.09.87.87,0,0,1-.33-.85c0-.25.1-.49.13-.75a.54.54,0,0,0-.11-.32A6.88,6.88,0,0,0,13,6.24a.87.87,0,0,1-.23-.9.78.78,0,0,1,.74-.59,1.23,1.23,0,0,0,1.33-1,.78.78,0,0,1,.8-.54.79.79,0,0,1,.81.54,1.24,1.24,0,0,0,1.33,1,.77.77,0,0,1,.73.56.88.88,0,0,1-.22.93c-.18.19-.39.36-.56.55a.41.41,0,0,0-.09.28c0,.32.11.63.12.95C17.78,8.51,17.38,8.89,16.75,8.87Zm-.2-1.27a3.55,3.55,0,0,1,0-1,3,3,0,0,1,.56-.77,3,3,0,0,1-.92-.31,3,3,0,0,1-.57-.78,3.06,3.06,0,0,1-.55.78,4,4,0,0,1-1,.34,1.38,1.38,0,0,1,.61,1.77A1.38,1.38,0,0,1,16.55,7.6Z"/><path class="cls-2" d="M8.46,11.83a.54.54,0,1,1-.52-.55A.54.54,0,0,1,8.46,11.83Z"/><path class="cls-2" d="M3.36,24.43a.55.55,0,0,1,.53.54.54.54,0,0,1-.56.54A.52.52,0,0,1,2.82,25,.54.54,0,0,1,3.36,24.43Z"/></g></g></svg>