<svg xmlns="http://www.w3.org/2000/svg" viewBox="0 0 28 28"><defs><style>.cls-1{fill:none;}.cls-2{fill:#0091ff;}</style></defs><g id="Layer_2" data-name="Layer 2"><g id="Layer_1-2" data-name="Layer 1"><rect class="cls-1" width="28" height="28"/><path class="cls-2" d="M18.94,27.45H2.66a.21.21,0,0,0-.1,0,2.33,2.33,0,0,1-1.48-.86,2.8,2.8,0,0,1-.52-1.2V2.66s0-.05,0-.07A2.34,2.34,0,0,1,3,.56Q9.7.55,16.4.56A2.15,2.15,0,0,1,18,1.13c.76.72,1.49,1.47,2.25,2.2a2.69,2.69,0,0,1,.83,2c0,1.9,0,3.8,0,5.7v.33l.24-.23c.79-.78,1.55-1.6,2.39-2.33A2.12,2.12,0,0,1,26,8.51a2.24,2.24,0,0,1,1.43,1.8,2.38,2.38,0,0,1-.76,2.16l-5.39,5.38a.69.69,0,0,0-.22.53q0,3.29,0,6.59a2.24,2.24,0,0,1-1,2A5.9,5.9,0,0,1,18.94,27.45ZM14.74,2.13H3a.81.81,0,0,0-.91.93V24.93c0,.65.3.94,1,.94H18.52c.65,0,.95-.29.95-.94v-5c0-.07,0-.15,0-.21a5,5,0,0,1-.53.25l-3.06,1a.82.82,0,0,1-1.1-1.1c.35-1,.67-2,1-3a1.73,1.73,0,0,1,.37-.59c1-1,2.08-2.1,3.13-3.14a.55.55,0,0,0,.18-.43V6.86H15.66a.81.81,0,0,1-.92-.93V2.13Zm4.14,13.69,1.05,1.05,3.71-3.7-1.05-1.05ZM16.33,5.27h3.13a.81.81,0,0,0-.23-.69L17,2.38a.74.74,0,0,0-.69-.23Zm7.42,5.64L24.87,12c.25-.26.52-.52.77-.79a.79.79,0,1,0-1.12-1.11ZM17.69,17c-.68.52-.63,1.35-.94,2,.69-.32,1.55-.26,2-.94Z"/><path class="cls-2" d="M10,8.43h5.44a.79.79,0,0,1,.81,1.07.74.74,0,0,1-.68.5H4.71c-.63,0-1-.29-1-.79s.37-.79,1-.79Z"/><path class="cls-2" d="M8.44,11.58h3.88a.79.79,0,0,1,.78,1.09.76.76,0,0,1-.75.48H4.58a.79.79,0,0,1-.82-1.07.81.81,0,0,1,.81-.5Z"/><path class="cls-2" d="M8.41,16.31H4.55a.79.79,0,0,1-.78-.48A.77.77,0,0,1,3.93,15a.9.9,0,0,1,.7-.25h7.64a.79.79,0,1,1,0,1.57Z"/><path class="cls-2" d="M8.44,17.89c1.29,0,2.59,0,3.88,0A.79.79,0,0,1,13.1,19a.76.76,0,0,1-.75.48H4.58a.79.79,0,0,1-.82-1.07.81.81,0,0,1,.81-.5Z"/><path class="cls-2" d="M13.17,24.3H10.91a.82.82,0,0,1-.9-.79.8.8,0,0,1,.89-.79h4.52a.8.8,0,1,1,0,1.58Z"/></g></g></svg>