<svg xmlns="http://www.w3.org/2000/svg" viewBox="0 0 28 28"><defs><style>.cls-1{fill:none;}.cls-2{fill:#0091ff;}</style></defs><g id="Layer_2" data-name="Layer 2"><g id="Layer_1-2" data-name="Layer 1"><rect class="cls-1" width="28" height="28"/><path class="cls-2" d="M.37,26.62c.33-.77,1-.55,1.65-.6V17.34c0-.71.29-1,1-1H5.9a.82.82,0,0,1,.91.92V26h1.6V20.49c0-.65.3-.95.94-.95h2.9c.66,0,.95.3.95,1V26h1.6V14.16c0-.73.28-1,1-1h2.82c.66,0,1,.3,1,.95V26h1.6V9.38c0-.75.27-1,1-1H25c.68,0,1,.29,1,1V26c.62.05,1.32-.17,1.65.6V27l-.59.59H1L.37,27ZM22.8,10V26h1.57V10Zm-6.39,4.79V26H18V14.76ZM5.19,26V18H3.64V26ZM10,21.15V26h1.56V21.15Z"/><path class="cls-2" d="M23.85.37a2.76,2.76,0,0,1,1.31.6,2.3,2.3,0,0,1,.72,2.41,2.28,2.28,0,0,1-1.94,1.74,2.21,2.21,0,0,1-1.51-.26.25.25,0,0,0-.33,0L19.62,6.75a.27.27,0,0,0-.09.25,2.42,2.42,0,0,1-3.22,2.79.27.27,0,0,0-.26.06c-1,1-2,2-3,3a.32.32,0,0,0-.05.27,2.39,2.39,0,1,1-4.62.83.34.34,0,0,0-.22-.37c-.64-.3-1.27-.62-1.9-.95a.32.32,0,0,0-.4,0,2.27,2.27,0,0,1-2.5.3A2.26,2.26,0,0,1,2,10.72,2.3,2.3,0,0,1,3.47,8.56,2.39,2.39,0,0,1,6.81,10.8a.33.33,0,0,0,.21.37c.64.31,1.27.62,1.9.95a.32.32,0,0,0,.4,0,2.3,2.3,0,0,1,2.33-.37.28.28,0,0,0,.34-.09l2.9-2.89A.27.27,0,0,0,15,8.41a2.39,2.39,0,0,1,.62-2.62,2.34,2.34,0,0,1,2.77-.31.27.27,0,0,0,.33,0l2.46-1.86a.31.31,0,0,0,.1-.25,2.4,2.4,0,0,1,2-2.93l.07,0Zm-.26,3.19a.79.79,0,0,0,.79-.8.8.8,0,1,0-1.59,0A.79.79,0,0,0,23.59,3.56Zm-6.4,3.2a.8.8,0,1,0,.8.8A.81.81,0,0,0,17.19,6.76Zm-12,4a.79.79,0,0,0-.8-.79.8.8,0,0,0,0,1.59A.79.79,0,0,0,5.21,10.75ZM11.6,14a.79.79,0,0,0-.79-.8.8.8,0,1,0,0,1.59A.79.79,0,0,0,11.6,14Z"/></g></g></svg>