<svg xmlns="http://www.w3.org/2000/svg" viewBox="0 0 28 28"><defs><style>.cls-1{fill:none;}.cls-2{fill:#0091ff;}</style></defs><g id="Layer_2" data-name="Layer 2"><g id="Layer_1-2" data-name="Layer 1"><rect class="cls-1" width="28" height="28"/><path class="cls-2" d="M27.65,13a2.65,2.65,0,0,1-.32.54,1,1,0,0,1-1.11.24,1,1,0,0,1-.69-.92,2.67,2.67,0,0,1,0-.4V6.91a2.16,2.16,0,0,0-2.31-2.32H22c0,.38,0,.74,0,1.1a1.06,1.06,0,0,1-1.63.87,1,1,0,0,1-.5-.89c0-.35,0-.69,0-1.06H15v.82c0,.81-.4,1.3-1.06,1.3s-1.07-.49-1.07-1.31V4.61H8.08c0,.34,0,.7,0,1A1.07,1.07,0,0,1,6,5.68c0-.35,0-.71,0-1.11a13.66,13.66,0,0,0-1.83.1,2.09,2.09,0,0,0-1.64,2V23.25a2.09,2.09,0,0,0,1.21,2.06,2.64,2.64,0,0,0,1.08.22c2.62,0,5.24,0,7.86,0a1.17,1.17,0,0,1,.9.33,1.05,1.05,0,0,1-.3,1.7l-.24.11H4.13c-.3-.08-.6-.13-.89-.23a4.26,4.26,0,0,1-2.89-4.1c0-5.52,0-11,0-16.57a2.81,2.81,0,0,1,0-.29A4.14,4.14,0,0,1,.91,4.61,4.25,4.25,0,0,1,4.66,2.46H6c0-.29,0-.55,0-.81A1.18,1.18,0,0,1,6.8.32h.43a1.18,1.18,0,0,1,.85,1.33c0,.26,0,.53,0,.79h4.8c0-.28,0-.53,0-.79A1.18,1.18,0,0,1,13.73.32h.43A1.18,1.18,0,0,1,15,1.65c0,.26,0,.53,0,.79h4.86c0-.28,0-.53,0-.79A1.19,1.19,0,0,1,20.72.32h.43A1.18,1.18,0,0,1,22,1.65c0,.26,0,.53,0,.81.53,0,1,0,1.52,0a4.12,4.12,0,0,1,3.69,2.4,8.21,8.21,0,0,1,.44,1.38Z"/><path class="cls-2" d="M20.67,27.68a16.16,16.16,0,0,1-1.85-.47,6.43,6.43,0,0,1-4-7,6.17,6.17,0,0,1,4.37-5.13,6.17,6.17,0,0,1,6.65,1.67,6.23,6.23,0,0,1,1.75,3.72c0,.06,0,.13,0,.2v1.07c0,.08,0,.17,0,.26a6.35,6.35,0,0,1-4.19,5.26,11.77,11.77,0,0,1-1.68.41Zm.54-2.14a4.33,4.33,0,1,0-4.33-4.33A4.34,4.34,0,0,0,21.21,25.54Z"/><path class="cls-2" d="M8.08,11.53A1.07,1.07,0,1,1,7,10.47,1.08,1.08,0,0,1,8.08,11.53Z"/><path class="cls-2" d="M12.72,11.55a1.07,1.07,0,1,1-1.06-1.08A1.08,1.08,0,0,1,12.72,11.55Z"/><path class="cls-2" d="M17.36,11.55a1.07,1.07,0,1,1-1.07-1.08A1.08,1.08,0,0,1,17.36,11.55Z"/><path class="cls-2" d="M20.93,10.47a1.07,1.07,0,1,1-1.06,1.08A1.08,1.08,0,0,1,20.93,10.47Z"/><path class="cls-2" d="M8.08,16.2A1.07,1.07,0,1,1,7,15.12,1.08,1.08,0,0,1,8.08,16.2Z"/><path class="cls-2" d="M11.64,17.26a1.07,1.07,0,1,1,1.08-1.06A1.07,1.07,0,0,1,11.64,17.26Z"/><path class="cls-2" d="M7,21.91a1.07,1.07,0,1,1,1.07-1.07A1.07,1.07,0,0,1,7,21.91Z"/><path class="cls-2" d="M11.65,19.77a1.07,1.07,0,1,1-1.06,1.08A1.08,1.08,0,0,1,11.65,19.77Z"/><path class="cls-2" d="M22.26,20.15h.55a1.06,1.06,0,0,1,1,1.08,1,1,0,0,1-1,1,15.69,15.69,0,0,1-1.68,0,1,1,0,0,1-1-1c0-.76,0-1.53,0-2.29a1.06,1.06,0,0,1,2.12,0C22.28,19.35,22.26,19.73,22.26,20.15Z"/><rect class="cls-1" width="28" height="28"/></g></g></svg>