<?xml version="1.0" encoding="UTF-8"?><svg id="Layer_2" xmlns="http://www.w3.org/2000/svg" viewBox="0 0 40 40"><defs><style>.cls-1{fill:#0091ff;}.cls-2{fill:none;}</style></defs><g id="Layer_1-2"><g><rect class="cls-2" width="40" height="40"/><path class="cls-1" d="M39.87,13.09v1.39c-.12,.49-.2,.99-.36,1.46-.99,2.88-3.57,4.75-6.62,4.8-.84,.01-1.67,0-2.5,0-.04,.08-.08,.14-.09,.2-.62,2.03-2.5,3.31-4.67,3.29-3.72-.03-7.45,0-11.17,0-2.18,0-3.83-1.16-4.57-3.2-.07-.19-.14-.29-.37-.28-.8,.02-1.6,0-2.4,.01-2.13,.05-3.95,1.57-4.41,3.66-.46,2.07,.6,4.21,2.53,5.15,1.47,.72,3.03,.37,4.54,.47,.05-.13,.08-.22,.11-.3,.69-1.95,2.35-3.17,4.43-3.18,3.84-.02,7.68-.02,11.52,0,1.55,0,2.83,.62,3.75,1.89,.34,.47,.57,1.02,.86,1.55h3.99c-.65-.48-1.23-.92-1.82-1.36,.48-.64,.93-1.25,1.39-1.86,1.98,1.49,3.91,2.94,5.88,4.41-1.99,1.49-3.92,2.94-5.88,4.41-.47-.63-.92-1.24-1.39-1.86,.61-.46,1.19-.89,1.76-1.32-.01-.02-.03-.05-.04-.07h-3.93c-.04,.07-.07,.13-.09,.19-.62,2.05-2.52,3.32-4.7,3.3-3.72-.03-7.45,0-11.17-.01-2.16,0-3.81-1.17-4.54-3.19-.08-.22-.18-.29-.41-.29-.88,0-1.75,.03-2.63-.01-2.72-.12-5.19-1.95-6.11-4.5-.2-.56-.31-1.16-.46-1.75,0-.46,0-.93,0-1.39,.03-.11,.06-.22,.08-.33,.43-2.91,2.68-5.3,5.57-5.77,1.16-.19,2.36-.12,3.54-.15,.23,0,.33-.07,.41-.29,.72-2,2.35-3.18,4.46-3.19,3.83-.02,7.65-.01,11.48,0,1.26,0,2.36,.44,3.28,1.33,.62,.6,1.01,1.32,1.24,2.08,1.1,0,2.18,.1,3.24-.02,2.14-.24,3.84-2.13,3.96-4.26,.12-2.22-1.34-4.31-3.5-4.75-1.18-.24-2.43-.18-3.63-.26-.15,.37-.24,.67-.38,.94-.91,1.74-2.37,2.6-4.32,2.61-3.74,.01-7.47-.01-11.21,.01-2.15,.01-3.99-1.24-4.64-3.23-.03-.09-.1-.24-.15-.24-.36,.01-.73-.12-1.08,.14-1.24,.95-2.49,1.88-3.74,2.81-.12,.09-.24,.17-.38,.27-.47-.63-.92-1.23-1.39-1.85,.6-.45,1.17-.89,1.75-1.32,0-.02-.02-.05-.03-.07H.27v-2.32H4.87s0-.05,0-.08c-.57-.43-1.15-.87-1.74-1.31,.47-.63,.93-1.23,1.37-1.83,.06,.03,.09,.03,.11,.05,1.26,.94,2.52,1.87,3.77,2.83,.34,.26,.67,.37,1.09,.35,.23-.01,.33-.08,.4-.3,.71-1.97,2.34-3.17,4.42-3.19,3.84-.02,7.68-.01,11.52,0,1.26,0,2.36,.44,3.28,1.33,.62,.6,1.01,1.32,1.27,2.16,.95,0,1.9-.06,2.83,.01,2.71,.19,4.73,1.51,5.95,3.94,.36,.71,.49,1.53,.72,2.31Zm-19.77-2.78c1.89,0,3.79,.01,5.68,0,1.63-.01,2.75-1.45,2.32-2.94-.3-1.04-1.19-1.69-2.35-1.69-2.6,0-5.2,0-7.8,0-1.2,0-2.4,0-3.59,0-1.06,0-1.92,.6-2.24,1.52-.55,1.57,.54,3.1,2.24,3.11,1.92,.02,3.84,0,5.76,0Zm-.02,11.6c.24,0,.49,0,.73,0,1.66,0,3.32,.01,4.98,0,1.61-.01,2.72-1.43,2.31-2.92-.29-1.06-1.19-1.71-2.38-1.71-2.96,0-5.92,0-8.88,0-.84,0-1.67,0-2.51,0-1.06,.01-1.91,.61-2.23,1.54-.54,1.57,.55,3.08,2.26,3.1,1.91,.01,3.81,0,5.72,0Zm.04,6.96c-.19,0-.39,0-.58,0-1.73,0-3.45-.01-5.18,0-1.61,.01-2.73,1.42-2.32,2.91,.29,1.06,1.18,1.72,2.37,1.72,2.81,0,5.61,0,8.42,0,.99,0,1.98,0,2.97,0,1.06-.01,1.92-.61,2.24-1.53,.54-1.57-.55-3.09-2.25-3.1-1.89-.02-3.79,0-5.68,0Z"/></g></g></svg>