<svg xmlns="http://www.w3.org/2000/svg" viewBox="0 0 32 32"><defs><style>.cls-1,.cls-3{fill:none;}.cls-2{fill:#b3b3b3;}.cls-3{stroke:#b3b3b3;stroke-miterlimit:10;stroke-width:0.53px;}.cls-4{fill:#0091ff;}</style></defs><g id="Layer_2" data-name="Layer 2"><g id="Layer_1-2" data-name="Layer 1"><rect class="cls-1" width="32" height="32"/><rect class="cls-1" x="1" y="1" width="30" height="30"/><path class="cls-2" d="M29,15.46c-.46,0-.93,0-1.42,0a11.62,11.62,0,0,0-11-11c0-.48,0-.95,0-1.42a.7.7,0,0,0-.38-.73h-.32a.7.7,0,0,0-.38.73c0,.46,0,.93,0,1.42a11.62,11.62,0,0,0-11,11c-.48,0-.95,0-1.42,0a.7.7,0,0,0-.73.38v.32a.7.7,0,0,0,.73.38c.46,0,.93,0,1.42,0a11.62,11.62,0,0,0,11,11c0,.48,0,.95,0,1.42a.7.7,0,0,0,.38.73h.32a.7.7,0,0,0,.38-.73c0-.46,0-.93,0-1.42a11.6,11.6,0,0,0,11-11c.49,0,1,0,1.43,0a.7.7,0,0,0,.73-.38v-.32A.7.7,0,0,0,29,15.46Zm-4.06,1.07h1.53a10.45,10.45,0,0,1-9.92,9.93c0-.51,0-1,0-1.52a.54.54,0,0,0-.5-.59.53.53,0,0,0-.56.57c0,.51,0,1,0,1.53a10.45,10.45,0,0,1-9.93-9.92H7.05a.54.54,0,0,0,.59-.5.53.53,0,0,0-.57-.56H5.54a10.45,10.45,0,0,1,9.92-9.93c0,.51,0,1,0,1.52a.54.54,0,0,0,.5.59.53.53,0,0,0,.56-.57c0-.51,0-1,0-1.53a10.44,10.44,0,0,1,9.93,9.92H25a.53.53,0,1,0,0,1.06ZM4.15,10.13a.54.54,0,0,0,.76-.21c.06-.09.11-.19.16-.28a12,12,0,0,1,4.32-4.4,23.61,23.61,0,0,1,2.43-1.17c.25-.12.41-.26.43-.5a.58.58,0,0,0-.83-.51,13.87,13.87,0,0,0-5.64,3.8A12.45,12.45,0,0,0,4,9.39.52.52,0,0,0,4.15,10.13Zm-.61,2a.52.52,0,0,0,.55-.5.54.54,0,0,0-.53-.55.53.53,0,0,0,0,1.05Zm24.19,9.65a.52.52,0,0,0-.58.18,3.07,3.07,0,0,0-.23.39,12.62,12.62,0,0,1-2.62,3.16,12.77,12.77,0,0,1-4.11,2.4.54.54,0,0,0-.41.69.55.55,0,0,0,.77.31A13.64,13.64,0,0,0,28,22.64c.05-.1.08-.21.11-.28A.56.56,0,0,0,27.73,21.81Zm.72-2a.57.57,0,0,0-.55.55.54.54,0,1,0,.55-.55Z"/><path class="cls-3" d="M29,15.46c-.46,0-.93,0-1.42,0a11.62,11.62,0,0,0-11-11c0-.48,0-.95,0-1.42a.7.7,0,0,0-.38-.73h-.32a.7.7,0,0,0-.38.73c0,.46,0,.93,0,1.42a11.62,11.62,0,0,0-11,11c-.48,0-.95,0-1.42,0a.7.7,0,0,0-.73.38v.32a.7.7,0,0,0,.73.38c.46,0,.93,0,1.42,0a11.62,11.62,0,0,0,11,11c0,.48,0,.95,0,1.42a.7.7,0,0,0,.38.73h.32a.7.7,0,0,0,.38-.73c0-.46,0-.93,0-1.42a11.6,11.6,0,0,0,11-11c.49,0,1,0,1.43,0a.7.7,0,0,0,.73-.38v-.32A.7.7,0,0,0,29,15.46Zm-4.06,1.07h1.53a10.45,10.45,0,0,1-9.92,9.93c0-.51,0-1,0-1.52a.54.54,0,0,0-.5-.59.53.53,0,0,0-.56.57c0,.51,0,1,0,1.53a10.45,10.45,0,0,1-9.93-9.92H7.05a.54.54,0,0,0,.59-.5.53.53,0,0,0-.57-.56H5.54a10.45,10.45,0,0,1,9.92-9.93c0,.51,0,1,0,1.52a.54.54,0,0,0,.5.59.53.53,0,0,0,.56-.57c0-.51,0-1,0-1.53a10.44,10.44,0,0,1,9.93,9.92H25a.53.53,0,1,0,0,1.06ZM4.15,10.13a.54.54,0,0,0,.76-.21c.06-.09.11-.19.16-.28a12,12,0,0,1,4.32-4.4,23.61,23.61,0,0,1,2.43-1.17c.25-.12.41-.26.43-.5a.58.58,0,0,0-.83-.51,13.87,13.87,0,0,0-5.64,3.8A12.45,12.45,0,0,0,4,9.39.52.52,0,0,0,4.15,10.13Zm-.61,2a.52.52,0,0,0,.55-.5.54.54,0,0,0-.53-.55.53.53,0,0,0,0,1.05Zm24.19,9.65a.52.52,0,0,0-.58.18,3.07,3.07,0,0,0-.23.39,12.62,12.62,0,0,1-2.62,3.16,12.77,12.77,0,0,1-4.11,2.4.54.54,0,0,0-.41.69.55.55,0,0,0,.77.31A13.64,13.64,0,0,0,28,22.64c.05-.1.08-.21.11-.28A.56.56,0,0,0,27.73,21.81Zm.72-2a.57.57,0,0,0-.55.55.54.54,0,1,0,.55-.55Z"/><path class="cls-4" d="M18.82,16.51A6.36,6.36,0,0,1,20.36,18a6.9,6.9,0,0,1,1.26,4,.54.54,0,0,1-.55.59H10.92a.54.54,0,0,1-.54-.6,6.59,6.59,0,0,1,2.67-5.41l.07-.06A11.94,11.94,0,0,1,12.44,15a4.48,4.48,0,0,1,1-4.4,3.41,3.41,0,0,1,5.32.18A4.73,4.73,0,0,1,19,16.28ZM14,17.29a5.23,5.23,0,0,0-2.48,4.24h9A5.27,5.27,0,0,0,18,17.29,3.38,3.38,0,0,1,14,17.29Zm4.69-3.57a3.66,3.66,0,0,0-.6-2.06,2.38,2.38,0,0,0-3.91-.33,3.65,3.65,0,0,0,.07,4.76,2.34,2.34,0,0,0,3.51,0A3.44,3.44,0,0,0,18.68,13.72Z"/></g></g></svg>