<svg xmlns="http://www.w3.org/2000/svg" viewBox="0 0 32 32"><defs><style>.cls-1,.cls-3{fill:none;}.cls-2{fill:#b3b3b3;}.cls-3{stroke:#b3b3b3;stroke-miterlimit:10;stroke-width:0.3px;}.cls-4{fill:#0091ff;}</style></defs><g id="Layer_2" data-name="Layer 2"><g id="Layer_1-2" data-name="Layer 1"><rect class="cls-1" width="32" height="32"/><rect class="cls-1" x="0.88" y="0.88" width="30.23" height="30.23"/><path class="cls-2" d="M18.37,2c-.54-.13-1.1-.2-1.65-.29H15.26l-1,.16A10.1,10.1,0,0,0,6.57,15.38a10.28,10.28,0,0,0,2.6,3.81,3.52,3.52,0,0,1,1.19,2.25c.05.51,0,1,0,1.54a3.36,3.36,0,0,0,3.33,3.34c1.52,0,3,0,4.54,0a3.39,3.39,0,0,0,3.34-3.4,14.09,14.09,0,0,1,.09-1.84A4,4,0,0,1,23,19a9.89,9.89,0,0,0,3-8.62A10.05,10.05,0,0,0,18.37,2ZM21.43,17.4a6.35,6.35,0,0,0-1.86,2.91,7.27,7.27,0,0,0-.2,1.4c0,.42,0,.84,0,1.26a1.13,1.13,0,0,1-1.06,1.11c-.38,0-.76,0-1.19,0V19.61H14.88V24a9.32,9.32,0,0,1-1.4,0,1.05,1.05,0,0,1-.85-1.1,17.82,17.82,0,0,0-.09-2.07,5.67,5.67,0,0,0-1.84-3.31,8,8,0,0,1-2.35-4A7.85,7.85,0,1,1,23.77,10.7,7.63,7.63,0,0,1,21.43,17.4Zm6.69-6.77v2.24h2.23V10.63ZM12.64,30.34h6.7V28.13h-6.7ZM29.86,7.82c-.26-.7-.5-1.38-.77-2.1L27,6.48c.25.71.5,1.39.76,2.11ZM27,17l2.11.77.76-2.11-2.1-.76C27.48,15.63,27.24,16.31,27,17ZM2.14,7.82l2.11.76L5,6.48l-2.1-.77C2.64,6.43,2.39,7.12,2.14,7.82Zm0,7.87.77,2.1L5,17l-.77-2.11Zm1.72-5H1.65v2.21H3.86Z"/><path class="cls-3" d="M18.37,2c-.54-.13-1.1-.2-1.65-.29H15.26l-1,.16A10.1,10.1,0,0,0,6.57,15.38a10.28,10.28,0,0,0,2.6,3.81,3.52,3.52,0,0,1,1.19,2.25c.05.51,0,1,0,1.54a3.36,3.36,0,0,0,3.33,3.34c1.52,0,3,0,4.54,0a3.39,3.39,0,0,0,3.34-3.4,14.09,14.09,0,0,1,.09-1.84A4,4,0,0,1,23,19a9.89,9.89,0,0,0,3-8.62A10.05,10.05,0,0,0,18.37,2ZM21.43,17.4a6.35,6.35,0,0,0-1.86,2.91,7.27,7.27,0,0,0-.2,1.4c0,.42,0,.84,0,1.26a1.13,1.13,0,0,1-1.06,1.11c-.38,0-.76,0-1.19,0V19.61H14.88V24a9.32,9.32,0,0,1-1.4,0,1.05,1.05,0,0,1-.85-1.1,17.82,17.82,0,0,0-.09-2.07,5.67,5.67,0,0,0-1.84-3.31,8,8,0,0,1-2.35-4A7.85,7.85,0,1,1,23.77,10.7,7.63,7.63,0,0,1,21.43,17.4Zm6.69-6.77v2.24h2.23V10.63ZM12.64,30.34h6.7V28.13h-6.7ZM29.86,7.82c-.26-.7-.5-1.38-.77-2.1L27,6.48c.25.71.5,1.39.76,2.11ZM27,17l2.11.77.76-2.11-2.1-.76C27.48,15.63,27.24,16.31,27,17ZM2.14,7.82l2.11.76L5,6.48l-2.1-.77C2.64,6.43,2.39,7.12,2.14,7.82Zm0,7.87.77,2.1L5,17l-.77-2.11Zm1.72-5H1.65v2.21H3.86Z"/><path class="cls-4" d="M18.22,14.56l-2.16-2.17-2.22,2.23-3-3,1.55-1.54,1.4,1.41L16,9.23l2.24,2.24L19.63,10l1.56,1.56"/></g></g></svg>