<svg xmlns="http://www.w3.org/2000/svg" viewBox="0 0 140 140"><defs><style>.cls-1{fill:none;}.cls-2{fill:#0091ff;}</style></defs><g id="Layer_2" data-name="Layer 2"><g id="Layer_1-2" data-name="Layer 1"><rect class="cls-1" width="140" height="140"/><path class="cls-2" d="M64.81,4h8.38a8.65,8.65,0,0,0,1,.22,65.53,65.53,0,0,1,25.69,7.33c1.37.71,2.72,1.48,4.18,2.28,2.17-2.19,4.26-4.35,6.39-6.47a3.71,3.71,0,0,1,4.22-.87,3.81,3.81,0,0,1,2.47,3.41c.11,1.17.19,2.34.29,3.51.24,2.77.48,5.54.73,8.37.7.09,1.29.19,1.89.24l9.9.82a3.93,3.93,0,0,1,3.82,3.61,4.11,4.11,0,0,1-1.4,3.38c-2.08,2-4.13,4.11-6.18,6.16a8.51,8.51,0,0,0,.41.81A65.82,65.82,0,0,1,135.08,60c.37,2.27.62,4.56.92,6.84v8.38c-.07.33-.17.67-.22,1-.45,3.1-.74,6.23-1.38,9.3-5.36,26-27.58,47.23-53.73,51.47-2.48.4-5,.69-7.48,1H64.81c-.29-.07-.58-.17-.87-.21-3.06-.45-6.15-.74-9.17-1.35-26-5.2-47.5-27.53-51.72-53.63-.41-2.53-.7-5.08-1-7.62V66.81c.43-3,.75-6,1.3-8.9,5-26.7,27.26-48.48,54-52.88C59.81,4.62,62.32,4.34,64.81,4ZM98.16,19.68C77.4,7.15,44.28,8.32,23.44,33.3a59.19,59.19,0,0,0,5.48,81.23c22.72,21.12,58.49,20.8,81.12-1C132.46,92,131.78,60.38,120.24,41.8c-1.33,1.39-2.64,2.72-3.92,4.08a4.4,4.4,0,0,1-4,1.41c-1.78-.21-3.58-.28-5.51-.43,13.57,21.8,5.77,47.26-10.7,59.78A44.75,44.75,0,0,1,28.61,51.82,43.38,43.38,0,0,1,56.66,28c12.81-3.71,24.94-1.72,36.5,5.22-.16-2-.22-3.76-.44-5.49a4.64,4.64,0,0,1,1.52-4.23C95.57,22.29,96.84,21,98.16,19.68ZM91.91,42.26C80.14,32,58.56,30.05,43.57,44.31A36.87,36.87,0,1,0,95.13,97c14.76-15,13.1-36.79,2.59-49L86.64,59.16a21.23,21.23,0,1,1-5.82-5.8Zm-16.74,17C69.85,56,62.23,57.79,58.31,63A13.33,13.33,0,0,0,78.14,80.7c5-4.61,5.15-12,2.54-15.76-.32.3-.64.58-.94.88-2.56,2.56-5.13,5.12-7.68,7.68a4,4,0,0,1-3.89,1.32,3.75,3.75,0,0,1-2.91-2.71,3.86,3.86,0,0,1,1.13-4C69.28,65.16,72.19,62.27,75.17,59.3ZM110,19.16c-.2,0-.31,0-.36.08q-4.31,4.28-8.6,8.59a1.3,1.3,0,0,0-.38.89c.24,3.25.53,6.49.82,9.77,3.29.28,6.45.57,9.61.79a1.82,1.82,0,0,0,1.21-.54c2.71-2.66,5.38-5.35,8-8a5.57,5.57,0,0,0,.53-.73l-3.27-.3c-1-.1-2.08-.18-3.12-.27a3.94,3.94,0,0,1-3.93-3.91C110.42,23.4,110.23,21.32,110,19.16Z"/></g></g></svg>