<svg xmlns="http://www.w3.org/2000/svg" viewBox="0 0 140 140"><defs><style>.cls-1{fill:none;}.cls-2{fill:#0091ff;}</style></defs><g id="Layer_2" data-name="Layer 2"><g id="Layer_1-2" data-name="Layer 1"><rect class="cls-1" width="140" height="140"/><path class="cls-2" d="M131.19,107.63c1.53-1.62,1.59-2.44.37-4.27l-18.65-27.9c-1.39-2.09-3.27-2.09-4.67,0l-18.68,28c-1.16,1.74-1.1,2.6.35,4.14a30.7,30.7,0,0,1,8.19,16.58,1.34,1.34,0,0,1-.48,1.39,12,12,0,0,0-3.81,6.77c-.54,2.76-.24,3.6,1.57,4.69h30.4a3,3,0,0,0,1.75-3.41,12.25,12.25,0,0,0-4-8,1.34,1.34,0,0,1-.48-1.39A30.68,30.68,0,0,1,131.19,107.63ZM110.56,103a2.41,2.41,0,1,1-2.4,2.43A2.43,2.43,0,0,1,110.56,103ZM99,132.12a6.93,6.93,0,0,1,6.19-4.9c3.6-.13,7.22-.13,10.82,0a7.05,7.05,0,0,1,6.21,4.9Zm19.42-9.58a118.6,118.6,0,0,0-15.66,0,35.64,35.64,0,0,0-8.49-17.42Q101.13,94.82,108,84.55l.15,0v.51q0,6.38,0,12.75a.86.86,0,0,1-.6,1,7.15,7.15,0,0,0-4.11,7.89,7.24,7.24,0,0,0,6.51,5.89,7.24,7.24,0,0,0,3.67-13.78c-.34-.16-.64-.24-.64-.76,0-4.41,0-8.82,0-13.23a2.52,2.52,0,0,1,.08-.37l13.81,20.67A35.68,35.68,0,0,0,118.41,122.54Z"/><path class="cls-2" d="M125.36,50.22a3.81,3.81,0,0,0-5.42.05c-1.79,1.71-3.51,3.49-5.27,5.24-.25.25-.53.46-1,.83V54.72c0-10.16,0-20.33,0-30.5A19.24,19.24,0,0,0,99.37,5.64c-.85-.23-1.72-.43-2.58-.64H55.5a6.55,6.55,0,0,1-.83.25c-8,1.64-13.4,6.36-15.42,14.28-.82,3.24-.56,6.77-.66,10.18a3.79,3.79,0,0,0,3.78,4,3.87,3.87,0,0,0,3.89-4c0-1.66,0-3.33,0-5,0-7,5-12,11.94-12q17.89,0,35.77,0c7,0,12,5,12,12,0,10.13,0,20.25,0,30.38,0,.36,0,.72-.09,1.35-2.13-2.14-4.06-4.13-6-6.06a3.85,3.85,0,1,0-5.45,5.42q6.28,6.31,12.61,12.59a3.72,3.72,0,0,0,5.5.11q6.49-6.37,12.87-12.87A3.74,3.74,0,0,0,125.36,50.22ZM32.15,43a34.6,34.6,0,0,0-14.08,57.67,23.34,23.34,0,0,1,7,17.43c-.05,2.52-.07,5.05.08,7.56A11.06,11.06,0,0,0,34.54,136a54.67,54.67,0,0,0,7.79.07v.21c2.05,0,4.1,0,6.15,0a11.27,11.27,0,0,0,10.83-8.74,42.21,42.21,0,0,0,.42-6.49,78.06,78.06,0,0,1,.56-8.67c.86-4.9,3.65-8.8,7-12.39,8.15-8.63,11.3-18.93,9-30.56A34.5,34.5,0,0,0,32.15,43ZM51.83,125.8a3.54,3.54,0,0,1-3.54,2.8c-3.93,0-7.86.05-11.79,0a3.72,3.72,0,0,1-3.62-3.2A11,11,0,0,1,32.8,124c0-1,0-2,0-3H51.88A36.68,36.68,0,0,1,51.83,125.8Zm9.6-30.73a31.91,31.91,0,0,0-8.9,16.56l-.28,1.53h-6V112c0-7.65,0-15.3,0-22.95a2.93,2.93,0,0,1,.77-1.86c2.7-2.8,5.51-5.5,8.21-8.29a3.83,3.83,0,0,0-1.75-6.55,3.89,3.89,0,0,0-3.83,1.25q-3.54,3.54-7.09,7a5.06,5.06,0,0,0-.45.41c-.82-1-1.61-2-2.48-2.89-1.51-1.57-3.06-3.1-4.62-4.62a3.85,3.85,0,1,0-5.45,5.42c2.73,2.77,5.5,5.49,8.22,8.27a2.37,2.37,0,0,1,.71,1.39q0,12.1,0,24.23a2.21,2.21,0,0,1-.09.36H32.62c-.3-1.32-.53-2.62-.87-3.88a31.09,31.09,0,0,0-8.16-14A26.92,26.92,0,1,1,69,71.85C70.39,80.79,67.76,88.59,61.43,95.07Z"/></g></g></svg>