<svg xmlns="http://www.w3.org/2000/svg" viewBox="0 0 140 140"><defs><style>.cls-1,.cls-3{fill:none;}.cls-2{fill:#0091ff;}.cls-3{stroke:#0091ff;stroke-miterlimit:10;stroke-width:1.67px;}</style></defs><g id="Layer_2" data-name="Layer 2"><g id="Layer_1-2" data-name="Layer 1"><rect class="cls-1" width="140" height="140"/><path class="cls-2" d="M127.23,39.6a43,43,0,0,0-34-32.31c-1.52-.26-3.06-.47-4.59-.71H82.35l-.8.2a94,94,0,0,0-9.92,2.14C48,16.63,36,43.85,46,66.59a44.86,44.86,0,0,0,6.64,10.7c-2.78,2.78-5.51,5.53-8.28,8.24a1.15,1.15,0,0,1-1,.15c-5.23-2-9.77-1-13.71,3-6.15,6.18-12.28,12.38-18.5,18.47-2.59,2.53-4.87,5.17-5.53,8.86v3.12c.2.72.35,1.46.6,2.17a11.74,11.74,0,0,0,8.94,7.91c.26.06.52.16.78.24H19c3.78-.68,6.44-3,9-5.69,6-6.17,12.18-12.24,18.3-18.34,3.95-3.93,5-8.47,3-13.7a1.17,1.17,0,0,1,.14-1c2.7-2.78,5.45-5.51,8.21-8.28l.73.55A42.46,42.46,0,0,0,92,92a42.91,42.91,0,0,0,35.24-32.54c.5-2.25.8-4.55,1.19-6.82V46.41C128,44.14,127.73,41.84,127.23,39.6Zm-85.33,60c-.79.89-1.68,1.71-2.53,2.56q-9.1,9.12-18.23,18.24a5.32,5.32,0,0,1-3.81,1.78,4.5,4.5,0,0,1-4-2.44,4.43,4.43,0,0,1,.29-4.87,7.35,7.35,0,0,1,.87-1q10.17-10.19,20.35-20.37A4.74,4.74,0,0,1,40,92.12,4.61,4.61,0,0,1,41.9,99.64ZM85.44,85.3a35.76,35.76,0,1,1,35.78-35.74A35.69,35.69,0,0,1,85.44,85.3Zm17.77-54.7c-2.12,0-3.59,1.64-3.6,4.06V64.49c0,2.37,1.42,4,3.52,4s3.67-1.59,3.68-4V34.68C106.8,32.27,105.32,30.6,103.21,30.6ZM82.81,41.49a3.64,3.64,0,0,0-3.61-3.7,3.59,3.59,0,0,0-3.57,3.72c0,7.75,0,15.49,0,23.24A3.54,3.54,0,0,0,77.34,68a3.59,3.59,0,0,0,5.47-3.23c0-3.83,0-7.67,0-11.5S82.84,45.41,82.81,41.49Zm8.4,1.1a3.64,3.64,0,0,0-3.59,3.95q0,9,0,18c0,2.37,1.42,4,3.52,4s3.66-1.59,3.67-4c0-3,0-6,0-9s0-6,0-9A3.67,3.67,0,0,0,91.21,42.59Zm-24.07,7.2a3.61,3.61,0,0,0-3.51,3.78c0,1.83,0,3.67,0,5.5s0,3.75,0,5.63a3.59,3.59,0,1,0,7.18.09c0-3.75,0-7.5,0-11.25A3.64,3.64,0,0,0,67.14,49.79Z"/><path class="cls-3" d="M127.23,39.6a43,43,0,0,0-34-32.31c-1.52-.26-3.06-.47-4.59-.71H82.35l-.8.2a94,94,0,0,0-9.92,2.14C48,16.63,36,43.85,46,66.59a44.86,44.86,0,0,0,6.64,10.7c-2.78,2.78-5.51,5.53-8.28,8.24a1.15,1.15,0,0,1-1,.15c-5.23-2-9.77-1-13.71,3-6.15,6.18-12.28,12.38-18.5,18.47-2.59,2.53-4.87,5.17-5.53,8.86v3.12c.2.72.35,1.46.6,2.17a11.74,11.74,0,0,0,8.94,7.91c.26.06.52.16.78.24H19c3.78-.68,6.44-3,9-5.69,6-6.17,12.18-12.24,18.3-18.34,3.95-3.93,5-8.47,3-13.7a1.17,1.17,0,0,1,.14-1c2.7-2.78,5.45-5.51,8.21-8.28l.73.55A42.46,42.46,0,0,0,92,92a42.91,42.91,0,0,0,35.24-32.54c.5-2.25.8-4.55,1.19-6.82V46.41C128,44.14,127.73,41.84,127.23,39.6Zm-85.33,60c-.79.89-1.68,1.71-2.53,2.56q-9.1,9.12-18.23,18.24a5.32,5.32,0,0,1-3.81,1.78,4.5,4.5,0,0,1-4-2.44,4.43,4.43,0,0,1,.29-4.87,7.35,7.35,0,0,1,.87-1q10.17-10.19,20.35-20.37A4.74,4.74,0,0,1,40,92.12,4.61,4.61,0,0,1,41.9,99.64ZM85.44,85.3a35.76,35.76,0,1,1,35.78-35.74A35.69,35.69,0,0,1,85.44,85.3Zm17.77-54.7c-2.12,0-3.59,1.64-3.6,4.06V64.49c0,2.37,1.42,4,3.52,4s3.67-1.59,3.68-4V34.68C106.8,32.27,105.32,30.6,103.21,30.6ZM82.81,41.49a3.64,3.64,0,0,0-3.61-3.7,3.59,3.59,0,0,0-3.57,3.72c0,7.75,0,15.49,0,23.24A3.54,3.54,0,0,0,77.34,68a3.59,3.59,0,0,0,5.47-3.23c0-3.83,0-7.67,0-11.5S82.84,45.41,82.81,41.49Zm8.4,1.1a3.64,3.64,0,0,0-3.59,3.95q0,9,0,18c0,2.37,1.42,4,3.52,4s3.66-1.59,3.67-4c0-3,0-6,0-9s0-6,0-9A3.67,3.67,0,0,0,91.21,42.59Zm-24.07,7.2a3.61,3.61,0,0,0-3.51,3.78c0,1.83,0,3.67,0,5.5s0,3.75,0,5.63a3.59,3.59,0,1,0,7.18.09c0-3.75,0-7.5,0-11.25A3.64,3.64,0,0,0,67.14,49.79Z"/></g></g></svg>