<svg xmlns="http://www.w3.org/2000/svg" viewBox="0 0 28.05 28.05"><defs><style>.cls-1{fill:none;}.cls-2,.cls-3{fill:#0091ff;}.cls-3{stroke:#0091ff;stroke-miterlimit:10;stroke-width:0.33px;}</style></defs><g id="Layer_2" data-name="Layer 2"><g id="Layer_1-2" data-name="Layer 1"><rect class="cls-1" width="28.05" height="28.05"/><path class="cls-2" d="M14,7.78H21.7a1.71,1.71,0,0,1,.45,0,1,1,0,0,1-.07,1.93l-.33,0H6.3A1,1,0,0,1,5.23,8.46a1,1,0,0,1,.92-.68c.52,0,1,0,1.55,0Z"/><path class="cls-2" d="M18,13.7H14a1,1,0,0,1-.95-1.35,1,1,0,0,1,1-.64h7.68a1,1,0,0,1,1.1,1,1,1,0,0,1-1,1H18Z"/><path class="cls-2" d="M26.39,5.34a2.88,2.88,0,0,0-2-1.44l-.16,0H3.84a3.55,3.55,0,0,0-1.42.62A2.88,2.88,0,0,0,1.25,6.79q0,4.94,0,9.87a3,3,0,0,0,2.86,2.92h.53c1.61-.29,1.61-2.5,0-2h-.4a1,1,0,0,1-1-1V6.84a1,1,0,0,1,1.06-1H23.64A1,1,0,0,1,24.81,7v9.41a1,1,0,0,1-1.14,1.15c-.56,0-1.11,0-1.67,0a1.15,1.15,0,0,0-.89.37l-1.93,1.92c-.05.06-.12.11-.22.21V18.71a1,1,0,0,0-1.12-1.12H15.16a1.29,1.29,0,0,0,0,2h0c.58,0,1.16,0,1.77,0v.29c0,.84,0,1.68,0,2.52a1,1,0,0,0,1.79.74l3.37-3.37a.56.56,0,0,1,.44-.19,10.83,10.83,0,0,0,1.71,0,3,3,0,0,0,2.5-2.46s0-.07,0-.11V6.44A8.06,8.06,0,0,0,26.39,5.34Z"/><path class="cls-3" d="M6.52,24.2a.34.34,0,0,1-.21-.38V22.63a.29.29,0,0,1,.33-.33h.43v-.81a.29.29,0,0,1,.31-.32h.35a6.27,6.27,0,0,1-.13-.71.29.29,0,0,0-.2-.26c-.31-.12-.6-.25-.9-.38a.27.27,0,0,1-.19-.29,6.9,6.9,0,0,1,.51-2.38,3.26,3.26,0,0,1,3.62-2l.38.07a.23.23,0,0,0,.11,0l.56-.59a.3.3,0,0,1,.33-.11.29.29,0,0,1,.2.27c.05.39.11.78.17,1.18a.26.26,0,0,0,.05.12l1.54,1.69a.68.68,0,0,1,0,1l-.35.43a.65.65,0,0,1-.77.2l-1.16-.46a.35.35,0,0,0-.5.24.42.42,0,0,0,.08.31l.63.87a.44.44,0,0,1,.09.27c0,.2,0,.4,0,.61h.43a.29.29,0,0,1,.33.33v.81H13c.24,0,.35.1.35.35s0,.79,0,1.18a.35.35,0,0,1-.21.37Zm1.8-3.05h2.93c0-.15,0-.29,0-.44a.37.37,0,0,0-.07-.23c-.19-.25-.37-.51-.55-.76a.85.85,0,0,1-.18-.51.91.91,0,0,1,1.25-.89l1.14.45a.15.15,0,0,0,.21-.06l.29-.36c.1-.12.09-.13,0-.25l-1.59-1.75a.39.39,0,0,1-.12-.25c0-.24-.06-.47-.1-.72l-.3.31a.63.63,0,0,1-.26.16,7,7,0,0,0-.91.33,3.26,3.26,0,0,0-1.93,2.65,5.44,5.44,0,0,0,0,1.66C8.22,20.72,8.27,20.94,8.32,21.15Zm4.45,1.73H6.88v.75h5.89ZM12,21.74H7.65v.56H12ZM7.52,19.63v-.1c0-.29,0-.58.06-.86a3.81,3.81,0,0,1,2.1-3l.1-.05H9.7a2.5,2.5,0,0,0-1.92,1,4.81,4.81,0,0,0-.88,2.67.1.1,0,0,0,0,.07Z"/><path class="cls-3" d="M11.25,17.53a.29.29,0,0,1-.28-.29.29.29,0,0,1,.57,0A.29.29,0,0,1,11.25,17.53Z"/></g></g></svg>