<svg xmlns="http://www.w3.org/2000/svg" viewBox="0 0 140 140"><defs><style>.cls-1,.cls-3{fill:none;}.cls-2{fill:#0091ff;}.cls-3{stroke:#0091ff;stroke-miterlimit:10;stroke-width:2.39px;}</style></defs><g id="Layer_2" data-name="Layer 2"><g id="Layer_1-2" data-name="Layer 1"><rect class="cls-1" width="140" height="140"/><path class="cls-2" d="M75.71,117.65c-.21-.1-.4-.24-.66-.39,9.28-5.12,8.77-15.33,4.3-20.45a13,13,0,0,0-18.62-1,12.13,12.13,0,0,0-4.16,8.81c-.24,5.76,2.53,9.82,7.51,12.64l-.88.46c-5.21,2.57-8.25,6.7-8.74,12.53-.22,2.58-.17,5.17-.24,7.76h30.6c0-2,0-4-.08-6.06C84.56,125.4,81.7,120.54,75.71,117.65ZM60.79,105.34a8.73,8.73,0,1,1,8.71,8.71A8.8,8.8,0,0,1,60.79,105.34Zm19.48,28.27H58.78a11,11,0,0,1,4.66-11.18,10.6,10.6,0,0,1,12-.08A11.09,11.09,0,0,1,80.27,133.61Zm-47.82-91c-.16-6.57-3.1-11.38-9.07-14.27a4,4,0,0,1-.58-.44c7.22-4,8.22-10.72,7-15A13.1,13.1,0,0,0,17.76,3,13.29,13.29,0,0,0,5.19,11.16a13,13,0,0,0-.42,8.52,13.24,13.24,0,0,0,7.06,8.21c-.41.23-.66.39-.94.52A13.92,13.92,0,0,0,4,34.87a45.91,45.91,0,0,0-2,6.07v7.65H32.46C32.46,46.52,32.5,44.55,32.45,42.58ZM8.54,16.26a8.68,8.68,0,0,1,8.58-9A8.8,8.8,0,0,1,26,15.87a8.87,8.87,0,0,1-8.69,8.92A8.78,8.78,0,0,1,8.54,16.26ZM28.08,44.32H6.38c-.38-4.52.79-8.37,4.55-11a10.52,10.52,0,0,1,11.89-.5C26.6,34.92,28.52,39.13,28.08,44.32Zm108.76-3.59a14.62,14.62,0,0,0-7.29-11.58c-.71-.45-1.48-.8-2.3-1.24,7-3.77,8.39-10.54,7.13-15A13.06,13.06,0,0,0,121.94,3a13.22,13.22,0,0,0-12.57,9.26c-1.48,4.59-.36,11.67,7,15.68a8.78,8.78,0,0,0-1.28.66,35.88,35.88,0,0,0-4.73,3.72C106,37,106.46,42.76,106.65,48.54h30.22C136.87,45.89,137,43.29,136.84,40.73ZM113,16a8.82,8.82,0,0,1,8.79-8.67,8.75,8.75,0,0,1,0,17.49A8.89,8.89,0,0,1,113,16Zm19.65,28.32H111c-.44-4.69.89-8.62,4.88-11.22a10.34,10.34,0,0,1,12,0C131.77,35.71,133,39.63,132.68,44.29Zm-48,31.08a5.53,5.53,0,0,0-5.57-4.93c-2.4,0-4.8,0-7.35,0V68.83c0-3.43,0-6.85,0-10.28a2,2,0,0,1,1.15-2.08A6.34,6.34,0,0,0,76,49.77,6.58,6.58,0,0,0,63.21,49a6.41,6.41,0,0,0,3.1,7.53,1.72,1.72,0,0,1,1,1.76c0,3.55,0,7.11,0,10.67,0,.43,0,.86-.08,1.45-2.64,0-5.1-.11-7.55,0a5.35,5.35,0,0,0-5,3.53,5.14,5.14,0,0,0,1.42,5.87,1.46,1.46,0,0,1,.52,1.57A5.31,5.31,0,0,0,62,87.85c5,0,10,.05,15,0a5.3,5.3,0,0,0,5.34-6.44,1.43,1.43,0,0,1,.55-1.56A5,5,0,0,0,84.65,75.37ZM69.43,48.69a2.2,2.2,0,1,1-2.08,2.25A2.18,2.18,0,0,1,69.43,48.69ZM76.5,83.62h-14c-.82,0-1.72-.08-1.72-1.16s.88-1.16,1.72-1.16h14c.83,0,1.71.09,1.71,1.16S77.33,83.62,76.5,83.62Zm2.15-6.54H60.37c-.13,0-.31,0-.39,0-.46-.37-1.17-.7-1.27-1.16-.19-.83.56-1.06,1.28-1.06H78.67c.79,0,1.72-.07,1.7,1.1S79.47,77.08,78.65,77.08ZM100.3,7.5H38.73v4.07H100.3Zm-84.79,49c10.92,16,21.74,31.87,32.61,47.82l3.53-2.4L19,54.07Zm71.87,45.42,3.55,2.38c10.9-16,21.73-31.86,32.61-47.8L120,54.08ZM42.33,69l7.47-4.33L47.63,61l-7.42,4.31C40.92,66.6,41.58,67.73,42.33,69Zm0-36.3c-.73,1.27-1.4,2.43-2.13,3.68l7.47,4.31L49.78,37ZM84,21.56,79.68,29l3.69,2.13c1.45-2.52,2.86-5,4.31-7.47ZM98.85,36.41l-2.17-3.68L89.25,37l2.14,3.69ZM96.71,69l2.12-3.68L91.38,61l-2.14,3.69ZM59.36,29l-4.31-7.46-3.69,2.13,4.31,7.47ZM71.55,18.36h-4v8.47h4ZM45.43,48.88H36.94v4h8.49Zm56.64,0H93.59V53h8.48Z"/><path class="cls-3" d="M75.71,117.65c-.21-.1-.4-.24-.66-.39,9.28-5.12,8.77-15.33,4.3-20.45a13,13,0,0,0-18.62-1,12.13,12.13,0,0,0-4.16,8.81c-.24,5.76,2.53,9.82,7.51,12.64l-.88.46c-5.21,2.57-8.25,6.7-8.74,12.53-.22,2.58-.17,5.17-.24,7.76h30.6c0-2,0-4-.08-6.06C84.56,125.4,81.7,120.54,75.71,117.65ZM60.79,105.34a8.73,8.73,0,1,1,8.71,8.71A8.8,8.8,0,0,1,60.79,105.34Zm19.48,28.27H58.78a11,11,0,0,1,4.66-11.18,10.6,10.6,0,0,1,12-.08A11.09,11.09,0,0,1,80.27,133.61Zm-47.82-91c-.16-6.57-3.1-11.38-9.07-14.27a4,4,0,0,1-.58-.44c7.22-4,8.22-10.72,7-15A13.1,13.1,0,0,0,17.76,3,13.29,13.29,0,0,0,5.19,11.16a13,13,0,0,0-.42,8.52,13.24,13.24,0,0,0,7.06,8.21c-.41.23-.66.39-.94.52A13.92,13.92,0,0,0,4,34.87a45.91,45.91,0,0,0-2,6.07v7.65H32.46C32.46,46.52,32.5,44.55,32.45,42.58ZM8.54,16.26a8.68,8.68,0,0,1,8.58-9A8.8,8.8,0,0,1,26,15.87a8.87,8.87,0,0,1-8.69,8.92A8.78,8.78,0,0,1,8.54,16.26ZM28.08,44.32H6.38c-.38-4.52.79-8.37,4.55-11a10.52,10.52,0,0,1,11.89-.5C26.6,34.92,28.52,39.13,28.08,44.32Zm108.76-3.59a14.62,14.62,0,0,0-7.29-11.58c-.71-.45-1.48-.8-2.3-1.24,7-3.77,8.39-10.54,7.13-15A13.06,13.06,0,0,0,121.94,3a13.22,13.22,0,0,0-12.57,9.26c-1.48,4.59-.36,11.67,7,15.68a8.78,8.78,0,0,0-1.28.66,35.88,35.88,0,0,0-4.73,3.72C106,37,106.46,42.76,106.65,48.54h30.22C136.87,45.89,137,43.29,136.84,40.73ZM113,16a8.82,8.82,0,0,1,8.79-8.67,8.75,8.75,0,0,1,0,17.49A8.89,8.89,0,0,1,113,16Zm19.65,28.32H111c-.44-4.69.89-8.62,4.88-11.22a10.34,10.34,0,0,1,12,0C131.77,35.71,133,39.63,132.68,44.29Zm-48,31.08a5.53,5.53,0,0,0-5.57-4.93c-2.4,0-4.8,0-7.35,0V68.83c0-3.43,0-6.85,0-10.28a2,2,0,0,1,1.15-2.08A6.34,6.34,0,0,0,76,49.77,6.58,6.58,0,0,0,63.21,49a6.41,6.41,0,0,0,3.1,7.53,1.72,1.72,0,0,1,1,1.76c0,3.55,0,7.11,0,10.67,0,.43,0,.86-.08,1.45-2.64,0-5.1-.11-7.55,0a5.35,5.35,0,0,0-5,3.53,5.14,5.14,0,0,0,1.42,5.87,1.46,1.46,0,0,1,.52,1.57A5.31,5.31,0,0,0,62,87.85c5,0,10,.05,15,0a5.3,5.3,0,0,0,5.34-6.44,1.43,1.43,0,0,1,.55-1.56A5,5,0,0,0,84.65,75.37ZM69.43,48.69a2.2,2.2,0,1,1-2.08,2.25A2.18,2.18,0,0,1,69.43,48.69ZM76.5,83.62h-14c-.82,0-1.72-.08-1.72-1.16s.88-1.16,1.72-1.16h14c.83,0,1.71.09,1.71,1.16S77.33,83.62,76.5,83.62Zm2.15-6.54H60.37c-.13,0-.31,0-.39,0-.46-.37-1.17-.7-1.27-1.16-.19-.83.56-1.06,1.28-1.06H78.67c.79,0,1.72-.07,1.7,1.1S79.47,77.08,78.65,77.08ZM100.3,7.5H38.73v4.07H100.3Zm-84.79,49c10.92,16,21.74,31.87,32.61,47.82l3.53-2.4L19,54.07Zm71.87,45.42,3.55,2.38c10.9-16,21.73-31.86,32.61-47.8L120,54.08ZM42.33,69l7.47-4.33L47.63,61l-7.42,4.31C40.92,66.6,41.58,67.73,42.33,69Zm0-36.3c-.73,1.27-1.4,2.43-2.13,3.68l7.47,4.31L49.78,37ZM84,21.56,79.68,29l3.69,2.13c1.45-2.52,2.86-5,4.31-7.47ZM98.85,36.41l-2.17-3.68L89.25,37l2.14,3.69ZM96.71,69l2.12-3.68L91.38,61l-2.14,3.69ZM59.36,29l-4.31-7.46-3.69,2.13,4.31,7.47ZM71.55,18.36h-4v8.47h4ZM45.43,48.88H36.94v4h8.49Zm56.64,0H93.59V53h8.48Z"/></g></g></svg>