<svg xmlns="http://www.w3.org/2000/svg" viewBox="0 0 28 28"><defs><style>.cls-1,.cls-3{fill:none;}.cls-2{fill:#0091ff;}.cls-3{stroke:#0091ff;stroke-miterlimit:10;stroke-width:0.5px;}</style></defs><g id="Layer_2" data-name="Layer 2"><g id="Layer_1-2" data-name="Layer 1"><rect class="cls-1" width="28" height="28"/><path class="cls-2" d="M25.7,2.14,25.33,2H3.72a1.7,1.7,0,0,0-.89.57,1.64,1.64,0,0,0-.29,1q0,8.12,0,16.22v4.43c0,1.06.21,1.38,1.17,1.77H25.33a1.53,1.53,0,0,0,1-.81c.05-.11.09-.24.14-.36V3.17A1.55,1.55,0,0,0,25.7,2.14ZM25.56,7V24.4c0,.51-.14.66-.65.66H4.14c-.51,0-.66-.14-.66-.65V6.7H25.56Zm0-1.22H3.48c0-.78,0-1.55,0-2.32A.45.45,0,0,1,4,2.94H24.88c.55,0,.68.13.68.69Zm-2.78,8.88H14.69c-.48,0-.63.16-.63.63v7.17c0,.48.15.64.63.64h8.09c.48,0,.63-.16.63-.64V15.24C23.41,14.77,23.26,14.61,22.78,14.61Zm-1.09,1-3,2.63-3-2.63ZM15,16.13l3,2.7-3,2.7Zm.76,6,3-2.64,3,2.64Zm6.71-.58-3-2.69,3-2.7ZM6.26,12.59H22.8c.45,0,.61-.16.61-.62V9.51c0-.52-.14-.67-.67-.67H6.27c-.48,0-.64.16-.64.63V12C5.64,12.43,5.8,12.59,6.26,12.59ZM6.59,9.8H22.46v1.84H6.59ZM6.27,23.05h5.28c.48,0,.63-.16.63-.64V15.24c0-.47-.15-.63-.63-.63H6.27c-.48,0-.64.16-.64.63v7.17C5.63,22.89,5.79,23.05,6.27,23.05Zm.32-7.49h4.65v6.53H6.59ZM20.35,3.88H18.62a.47.47,0,1,0,0,.93c.29,0,.57,0,.86,0s.58,0,.87,0a.47.47,0,1,0,0-.93Zm3.74,0H22.36a.47.47,0,1,0,0,.93c.57,0,1.15,0,1.73,0a.47.47,0,1,0,0-.93Zm-7.41,0a.48.48,0,0,0-.47.46.47.47,0,0,0,.93,0A.48.48,0,0,0,16.68,3.88Z"/><path class="cls-3" d="M25.7,2.14,25.33,2H3.72a1.7,1.7,0,0,0-.89.57,1.64,1.64,0,0,0-.29,1q0,8.12,0,16.22v4.43c0,1.06.21,1.38,1.17,1.77H25.33a1.53,1.53,0,0,0,1-.81c.05-.11.09-.24.14-.36V3.17A1.55,1.55,0,0,0,25.7,2.14ZM25.56,7V24.4c0,.51-.14.66-.65.66H4.14c-.51,0-.66-.14-.66-.65V6.7H25.56Zm0-1.22H3.48c0-.78,0-1.55,0-2.32A.45.45,0,0,1,4,2.94H24.88c.55,0,.68.13.68.69Zm-2.78,8.88H14.69c-.48,0-.63.16-.63.63v7.17c0,.48.15.64.63.64h8.09c.48,0,.63-.16.63-.64V15.24C23.41,14.77,23.26,14.61,22.78,14.61Zm-1.09,1-3,2.63-3-2.63ZM15,16.13l3,2.7-3,2.7Zm.76,6,3-2.64,3,2.64Zm6.71-.58-3-2.69,3-2.7ZM6.26,12.59H22.8c.45,0,.61-.16.61-.62V9.51c0-.52-.14-.67-.67-.67H6.27c-.48,0-.64.16-.64.63V12C5.64,12.43,5.8,12.59,6.26,12.59ZM6.59,9.8H22.46v1.84H6.59ZM6.27,23.05h5.28c.48,0,.63-.16.63-.64V15.24c0-.47-.15-.63-.63-.63H6.27c-.48,0-.64.16-.64.63v7.17C5.63,22.89,5.79,23.05,6.27,23.05Zm.32-7.49h4.65v6.53H6.59ZM20.35,3.88H18.62a.47.47,0,1,0,0,.93c.29,0,.57,0,.86,0s.58,0,.87,0a.47.47,0,1,0,0-.93Zm3.74,0H22.36a.47.47,0,1,0,0,.93c.57,0,1.15,0,1.73,0a.47.47,0,1,0,0-.93Zm-7.41,0a.48.48,0,0,0-.47.46.47.47,0,0,0,.93,0A.48.48,0,0,0,16.68,3.88Z"/></g></g></svg>