<svg xmlns="http://www.w3.org/2000/svg" viewBox="0 0 40 40"><defs><style>.cls-1{fill:none;}.cls-2{fill:#fff;}</style></defs><g id="Layer_2" data-name="Layer 2"><g id="Layer_1-2" data-name="Layer 1"><rect class="cls-1" width="40" height="40"/><path class="cls-2" d="M35.62,39H4.89a1.15,1.15,0,0,0-.17-.06,4,4,0,0,1-3.19-2.78c-.08-.23-.13-.47-.19-.71V12.26s0-.06,0-.09A4.06,4.06,0,0,1,5.62,8.72h1V8.27c0-1.92,0-3.84,0-5.76,0-.91.41-1.33,1.33-1.33,5.74,0,11.49,0,17.24,0a1.63,1.63,0,0,1,1.24.51q3.38,3.41,6.77,6.76a1.94,1.94,0,0,1,.76,1.67s0,0,0,0a15.32,15.32,0,0,1,2.07.18,4,4,0,0,1,3.14,4.06c0,5.07,0,10.14,0,15.21,0,1.81,0,3.62,0,5.43a4.05,4.05,0,0,1-2.84,3.79ZM20.23,36.78H34.89A1.87,1.87,0,0,0,37,34.72V18.92a1.88,1.88,0,0,0-2.08-2.08c-4.78,0-9.56,0-14.33,0A1.39,1.39,0,0,1,19.12,16c-.61-1.27-1.27-2.52-1.89-3.79a2,2,0,0,0-2-1.24H5.64A1.87,1.87,0,0,0,3.56,13V34.72a1.86,1.86,0,0,0,2.08,2.06ZM24.32,3.43H8.82V8.72h6.47a4,4,0,0,1,3.9,2.41c.53,1.06,1.06,2.11,1.58,3.17a.49.49,0,0,0,.52.33c3.34,0,6.67,0,10,0h.4V10.79h-.43c-1.31,0-2.61-.07-3.92,0A2.75,2.75,0,0,1,24.3,7.73C24.38,6.31,24.32,4.88,24.32,3.43Zm2.21,1.64c0,.59,0,1.18,0,1.76s.07,1.09.11,1.63c.54,0,1.07.09,1.6.11H30Zm10.39,10c.25-2.26-1.07-2.9-3-2.61v2.17A5.74,5.74,0,0,1,36.92,15.07Z"/><path class="cls-2" d="M16.93,23.49V21.08a1.13,1.13,0,0,1,1.26-1.28h4.14a1.13,1.13,0,0,1,1.25,1.26v2.32s0,.05,0,.11H26a1.14,1.14,0,0,1,1.31,1.31v4.1A1.13,1.13,0,0,1,26,30.14H23.6c0,.11,0,.22,0,.32v2.18a1.12,1.12,0,0,1-1.18,1.19H18.08a1.1,1.1,0,0,1-1.15-1.17c0-.82,0-1.65,0-2.52H14.38a1.09,1.09,0,0,1-1.14-1.06c0-1.51,0-3,0-4.51a1.09,1.09,0,0,1,1.14-1.07Zm4.43,8.11V29.1a1.12,1.12,0,0,1,1.19-1.18H25V25.71H22.7c-.93,0-1.34-.41-1.34-1.36V22H19.14c0,.84,0,1.67,0,2.49A1.1,1.1,0,0,1,18,25.7H15.47v2.21H17.8c.94,0,1.34.41,1.34,1.35V31.6Z"/></g></g></svg>