<svg xmlns="http://www.w3.org/2000/svg" viewBox="0 0 40 40"><defs><style>.cls-1{fill:none;}.cls-2{fill:#fff;}</style></defs><g id="Layer_2" data-name="Layer 2"><g id="Layer_1-2" data-name="Layer 1"><rect class="cls-1" width="40" height="40"/><path class="cls-2" d="M39.41,8.4V35.77a.86.86,0,0,0-.07.21,3.88,3.88,0,0,1-1.81,2.72,10.44,10.44,0,0,1-1.76.71H4.23a.19.19,0,0,0-.1,0A4.16,4.16,0,0,1,.59,35v-26a4.15,4.15,0,0,1,4.3-4.3h3.6l.43,0V4.24c0-.8,0-1.59,0-2.39a1.37,1.37,0,0,1,2.73,0c0,.61,0,1.23,0,1.85v1H28.33c0-1,0-1.9,0-2.83a1.37,1.37,0,0,1,2.73,0c0,.63,0,1.26,0,1.89v1h.46c1.27,0,2.53,0,3.79,0a4.13,4.13,0,0,1,3.89,2.91C39.29,7.91,39.34,8.15,39.41,8.4Zm-36,8.85V35A1.42,1.42,0,0,0,5,36.63H35A1.42,1.42,0,0,0,36.63,35V17.65c0-.13,0-.27,0-.4Zm0-2.82H36.6c0-.1,0-.19,0-.28,0-1.7,0-3.41,0-5.11a1.3,1.3,0,0,0-1.21-1.48c-1.41,0-2.82,0-4.24,0,0,0,0,0-.1,0v.35c0,.72,0,1.44,0,2.16a1.39,1.39,0,1,1-2.75,0c0-.54,0-1.09,0-1.63V7.55H11.68V8c0,.78,0,1.57,0,2.35a1.37,1.37,0,0,1-2.74,0c0-.92,0-1.84,0-2.75a.39.39,0,0,0-.14,0c-1.36,0-2.73,0-4.09,0A1.3,1.3,0,0,0,3.38,8.92c0,1.77,0,3.54,0,5.31A2,2,0,0,0,3.4,14.43Z"/><path class="cls-2" d="M17.21,30.64a4.88,4.88,0,0,1,.35-.45q4.79-4.8,9.57-9.57a2.32,2.32,0,0,1,.73-.52,1.35,1.35,0,0,1,1.58.51,1.38,1.38,0,0,1-.05,1.63,2.7,2.7,0,0,1-.28.31L18.39,33.27a1.43,1.43,0,0,1-2.32,0c-1.75-1.74-3.48-3.49-5.23-5.23a1.44,1.44,0,0,1-.51-1.28,1.32,1.32,0,0,1,.94-1.13,1.36,1.36,0,0,1,1.46.38l4.18,4.18A4.45,4.45,0,0,1,17.21,30.64Z"/></g></g></svg>