<svg xmlns="http://www.w3.org/2000/svg" viewBox="0 0 40 40"><defs><style>.cls-1{fill:none;}.cls-2{fill:#fff;}</style></defs><g id="Layer_2" data-name="Layer 2"><g id="Layer_1-2" data-name="Layer 1"><rect class="cls-1" width="40" height="40"/><path class="cls-2" d="M.62,24.09c.07-.27.13-.55.2-.81a5.54,5.54,0,0,1,5.3-4.07h3.7a5.58,5.58,0,0,1,1-11.09,5.57,5.57,0,0,1,5.27,5.08,5.66,5.66,0,0,1-4.74,6c.42,0,.84,0,1.26,0a24.12,24.12,0,0,1,3.07.07,5.37,5.37,0,0,1,4.69,4.12l.07.25h1.14a1.1,1.1,0,0,1,1.11,1.5c-.36,1.15-.74,2.3-1.13,3.44a.36.36,0,0,0,.11.44,3.32,3.32,0,0,1-1.89,5.76.42.42,0,0,0-.4.34c-.32,1-.67,2-1,3a1.66,1.66,0,0,1-.89,1.14H3.65a1.41,1.41,0,0,1-.82-1.49c0-1.25,0-2.49,0-3.74a.61.61,0,0,0-.24-.53A5.39,5.39,0,0,1,.8,30.68c-.07-.25-.12-.5-.18-.75Zm17.53-.44a1.08,1.08,0,0,0,0-.17,3.29,3.29,0,0,0-3-2.05c-3,0-6.06,0-9.09,0a3.28,3.28,0,0,0-3.22,3.22c0,1.57,0,3.13,0,4.7a3.22,3.22,0,0,0,2.74,3.16,30.66,30.66,0,0,0,3.32.07.31.31,0,0,0,.21-.16c.23-.67.45-1.34.68-2.05H6.27a1.12,1.12,0,0,1-1.21-1.22q0-2.14,0-4.29a1.12,1.12,0,0,1,1.1-1.22,1.13,1.13,0,0,1,1.12,1.21v2.92c0,.12,0,.24,0,.37h3.23l.15-.41c.35-1,.69-2.08,1-3.12a1.18,1.18,0,0,1,1.37-1h5.08ZM9.93,37h6.33a.34.34,0,0,0,.26-.19c.23-.65.45-1.32.67-2-.89-.35-1-.57-1-1.53,0-1.33,0-2.66,0-4a1.11,1.11,0,0,1,1.18-1.18c.6,0,1.2,0,1.81,0,.11,0,.28-.07.31-.15.25-.69.47-1.4.71-2.13H14c-.31,0-.45.07-.55.38-.69,2.15-1.42,4.3-2.13,6.44Zm.7-26.71a3.33,3.33,0,1,0,3.3,3.37A3.33,3.33,0,0,0,10.63,10.33ZM5.08,37H7.42a.24.24,0,0,0,.2-.11l.71-2.13H5.08Zm13.31-4.45c.42,0,.81,0,1.2,0a1.11,1.11,0,0,0,1-1.1,1.08,1.08,0,0,0-.95-1.09c-.41,0-.82,0-1.25,0Z"/><path class="cls-2" d="M22.89,17.06a16.82,16.82,0,0,1-2.11-.23,3.18,3.18,0,0,1-2.39-3q0-4.62,0-9.24a3.28,3.28,0,0,1,3.3-3.18H35a3.33,3.33,0,0,1,3.5,3.47v8.66A3.34,3.34,0,0,1,35,17H29.23a.75.75,0,0,0-.58.24c-1.26,1.28-2.54,2.55-3.81,3.82a1.11,1.11,0,0,1-1.93-.51,2.57,2.57,0,0,1,0-.48Zm2.22.58,2.36-2.37a1.57,1.57,0,0,1,1.21-.51c2.13,0,4.26,0,6.39,0a1.12,1.12,0,0,0,1.21-1.2V4.81A1.12,1.12,0,0,0,35.05,3.6q-6.61,0-13.24,0a1.12,1.12,0,0,0-1.22,1.21v8.73a1.14,1.14,0,0,0,1.25,1.23h2A1.13,1.13,0,0,1,25.11,16Z"/><path class="cls-2" d="M27.3,9.9C28.19,9,29,8.17,29.84,7.36a1.1,1.1,0,0,1,1.89.5,1,1,0,0,1-.28,1c-1.11,1.12-2.22,2.24-3.35,3.34a1.07,1.07,0,0,1-1.56,0q-.84-.81-1.65-1.65A1.11,1.11,0,1,1,26.46,9C26.74,9.27,27,9.57,27.3,9.9Z"/></g></g></svg>