<svg xmlns="http://www.w3.org/2000/svg" viewBox="0 0 40 40"><defs><style>.cls-1{fill:none;}.cls-2{fill:#fff;stroke:#fff;stroke-miterlimit:10;stroke-width:0.76px;}</style></defs><g id="Layer_2" data-name="Layer 2"><g id="Layer_1-2" data-name="Layer 1"><rect class="cls-1" width="40" height="40"/><path class="cls-2" d="M39.59,15.42V27c-.47,1.42-1.62,1.54-2.89,1.42,0,1.09-.07,2.12-.09,3.15,0,.33-.07.62-.41.75a.69.69,0,0,1-.8-.3c-.93-1.06-1.89-2.1-2.8-3.18a1.09,1.09,0,0,0-1.22-.36V29c0,2.42,0,4.84,0,7.26A3.16,3.16,0,0,1,28,39.55c-5.36,0-10.71,0-16.07,0a4.38,4.38,0,0,1-1-.12,3.16,3.16,0,0,1-2.32-3.25v-14c-.5-.11-.92-.11-1.21.36A3.81,3.81,0,0,1,7,23L4.58,25.79a.67.67,0,0,1-.77.28.64.64,0,0,1-.41-.7c0-.17,0-.33,0-.5,0-.88-.06-1.77-.09-2.71-.4,0-.77,0-1.14,0a1.65,1.65,0,0,1-1.37-.71,4.64,4.64,0,0,1-.38-.69V9.08A2.1,2.1,0,0,1,2.72,7.64c1.81.05,3.62,0,5.43,0h.47V7.18c0-1.16,0-2.31,0-3.47A3.16,3.16,0,0,1,11.15.51l.13-.06H28.65c1.94.41,2.79,1.86,2.75,3.81-.07,3.07,0,6.14,0,9.21V14h.46c1.95,0,3.9,0,5.85,0a1.79,1.79,0,0,1,1.62.85A4.34,4.34,0,0,1,39.59,15.42Zm-9.44,13H20.44a1.83,1.83,0,0,1-2-2V22.2H9.86c0,.15,0,.27,0,.4,0,4.53,0,9.06,0,13.59A2,2,0,0,0,12,38.33H28a2,2,0,0,0,2.19-2.2c0-2.4,0-4.81,0-7.21Zm5.25,1.75c0-.25,0-.38,0-.52,0-.58,0-1.17.05-1.75s.23-.69.72-.7h1.38c.58,0,.78-.2.78-.78V16c0-.61-.19-.79-.81-.79h-17c-.64,0-.82.18-.82.82V26.37c0,.71.17.87.89.87,3.86,0,7.73,0,11.59,0a1.22,1.22,0,0,1,1,.47C33.89,28.52,34.62,29.32,35.4,30.21ZM20.31,13.91V9.66c0-.58-.2-.78-.79-.78H2.42c-.59,0-.79.21-.79.78V20.19c0,.56.2.75.77.76H3.74c.55,0,.75.2.78.76s0,1.17,0,1.76c0,.12,0,.24,0,.47l.31-.37c.64-.72,1.29-1.44,1.92-2.18a1.17,1.17,0,0,1,1-.45c3.38,0,6.76,0,10.13,0h.52V16.09A1.89,1.89,0,0,1,20.31,13.91Zm1.22,0h8.62V7.07c0-1.12,0-2.24,0-3.36a1.92,1.92,0,0,0-2-2H11.82a1.87,1.87,0,0,0-2,1.81c0,1.35,0,2.72,0,4.08,0,0,0,0,.07.09H19.5a1.84,1.84,0,0,1,2,2Z"/><path class="cls-2" d="M20,37.36a2.29,2.29,0,1,1,2.29-2.27A2.29,2.29,0,0,1,20,37.36Zm0-1.22a1.06,1.06,0,1,0-1.07-1.06A1.06,1.06,0,0,0,20,36.14Z"/><path class="cls-2" d="M24.67,23.14a1.93,1.93,0,0,1-1.93-1.95,2,2,0,0,1,2-1.94,2,2,0,0,1,1.94,2A2,2,0,0,1,24.67,23.14Zm.73-1.95a.74.74,0,0,0-.75-.71.72.72,0,0,0,0,1.44A.72.72,0,0,0,25.4,21.19Z"/><path class="cls-2" d="M29,23.14a1.95,1.95,0,0,1,0-3.89A2,2,0,0,1,31,21.2,1.93,1.93,0,0,1,29,23.14Zm.71-2a.71.71,0,1,0-1.42,0,.7.7,0,0,0,.72.72A.71.71,0,0,0,29.74,21.18Z"/><path class="cls-2" d="M35.32,21.22a1.94,1.94,0,1,1-3.88,0,2,2,0,0,1,2-1.93A2,2,0,0,1,35.32,21.22Zm-1.23,0a.71.71,0,0,0-.74-.7.74.74,0,0,0-.69.72.73.73,0,0,0,.73.72A.71.71,0,0,0,34.09,21.18Z"/><path class="cls-2" d="M17.26,14.92a1.94,1.94,0,0,1-2,1.94A1.95,1.95,0,1,1,15.37,13,1.93,1.93,0,0,1,17.26,14.92Zm-2-.72a.72.72,0,0,0-.7.74.73.73,0,0,0,.72.7.72.72,0,0,0,.71-.73A.7.7,0,0,0,15.3,14.2Z"/><path class="cls-2" d="M6.63,13a1.95,1.95,0,1,1,0,3.89,1.95,1.95,0,0,1,0-3.89Zm0,1.23a.72.72,0,0,0-.72.73.73.73,0,0,0,.7.71.74.74,0,0,0,.74-.72A.72.72,0,0,0,6.62,14.2Z"/><path class="cls-2" d="M9,14.92a1.94,1.94,0,1,1,2,1.94A1.94,1.94,0,0,1,9,14.92ZM11,14.2a.71.71,0,0,0-.72.72.74.74,0,0,0,.7.72.72.72,0,0,0,.73-.71A.71.71,0,0,0,11,14.2Z"/><path class="cls-2" d="M20,3.34h2.6c.45,0,.72.24.72.61s-.27.61-.72.61q-2.64,0-5.28,0c-.45,0-.72-.24-.72-.61s.27-.6.72-.61Z"/></g></g></svg>