<svg xmlns="http://www.w3.org/2000/svg" width="345" height="307" viewBox="0 0 345 307">
  <g id="Group_933" data-name="Group 933" transform="translate(-14679 -4925)">
    <g id="Group_900" data-name="Group 900" transform="translate(581 673)" opacity="0">
      <rect id="Rectangle_1318" data-name="Rectangle 1318" width="345" height="307" transform="translate(14098 4252)" fill="#fff"/>
    </g>
    <g id="In_sync-rafiki" data-name="In sync-rafiki" transform="translate(14638.89 4852.818)">
      <g id="freepik--Shadow--inject-4" transform="translate(56.11 344.302)">
        <ellipse id="freepik--path--inject-4" cx="156.783" cy="9.154" rx="156.783" ry="9.154" fill="#f5f5f5"/>
      </g>
      <g id="freepik--Connection--inject-4" transform="translate(102.112 151.617)">
        <path id="Path_23083" data-name="Path 23083" d="M113.809,178.97a.809.809,0,0,1-.809-.809h0a.809.809,0,0,1,.809-.809h0a.809.809,0,0,1,.809.849h0a.809.809,0,0,1-.809.768Zm226.251-.226a.809.809,0,0,1-.768-.809h0a.809.809,0,0,1,.809-.809h0a.809.809,0,0,1,.809.809h0a.809.809,0,0,1-.809.809Zm-226.025-4.617a.809.809,0,0,1-.809-.849h0a.809.809,0,0,1,.849-.768h0a.809.809,0,0,1,.768.809h0a.809.809,0,0,1-.809.809Zm226.251-.226a.809.809,0,0,1-.809-.809h0a.809.809,0,0,1,.849-.809h0a.809.809,0,0,1,.768.809h0a.809.809,0,0,1-.809.809Zm-226.041-4.625a.809.809,0,0,1-.809-.809h0a.809.809,0,0,1,.809-.809h0a.809.809,0,0,1,.809.809h0a.809.809,0,0,1-.809.809Zm226.251-.218a.809.809,0,0,1-.768-.809h0a.809.809,0,0,1,.809-.809h0a.809.809,0,0,1,.809.809h0a.809.809,0,0,1-.809.809Zm-4.8-1.617a.809.809,0,0,1,.809-.809h0a.809.809,0,0,1,.809.809h0a.809.809,0,0,1-.809.809h0a.809.809,0,0,1-.809-.784Zm-4.852,0a.809.809,0,0,1,.809-.809h0a.809.809,0,0,1,.809.809h0a.809.809,0,0,1-.809.809h0a.809.809,0,0,1-.809-.784Zm-4.852,0a.809.809,0,0,1,.809-.809h0a.809.809,0,0,1,.809.809h0a.809.809,0,0,1-.809.809h0a.809.809,0,0,1-.809-.784Zm-4.852,0a.809.809,0,0,1,.809-.809h0a.809.809,0,0,1,.809.809h0a.809.809,0,0,1-.809.809h0a.809.809,0,0,1-.809-.784Zm-4.852,0a.809.809,0,0,1,.809-.809h0a.809.809,0,0,1,.809.809h0a.809.809,0,0,1-.809.809h0a.809.809,0,0,1-.809-.784Zm-4.852,0a.809.809,0,0,1,.809-.809h0a.809.809,0,0,1,.809.809h0a.809.809,0,0,1-.809.809h0a.809.809,0,0,1-.809-.784Zm-4.852,0a.809.809,0,0,1,.809-.809h0a.809.809,0,0,1,.809.809h0a.809.809,0,0,1-.809.809h0a.809.809,0,0,1-.809-.784Zm-4.852,0a.809.809,0,0,1,.809-.809h0a.809.809,0,0,1,.809.809h0a.809.809,0,0,1-.809.809h0a.809.809,0,0,1-.809-.784Zm-4.852,0a.809.809,0,0,1,.809-.809h0a.809.809,0,0,1,.809.809h0a.809.809,0,0,1-.809.809h0a.809.809,0,0,1-.809-.784Zm-4.852,0a.809.809,0,0,1,.809-.809h0a.809.809,0,0,1,.809.809h0a.809.809,0,0,1-.809.809h0a.809.809,0,0,1-.809-.784Zm-4.852,0a.809.809,0,0,1,.809-.809h0a.809.809,0,0,1,.809.809h0a.809.809,0,0,1-.809.809h0a.809.809,0,0,1-.809-.784Zm-4.852,0a.809.809,0,0,1,.809-.809h0a.809.809,0,0,1,.809.809h0a.809.809,0,0,1-.809.809h0a.809.809,0,0,1-.809-.784Zm-4.852,0a.809.809,0,0,1,.809-.809h0a.809.809,0,0,1,.809.809h0a.809.809,0,0,1-.809.809h0a.809.809,0,0,1-.809-.784Zm-4.852,0a.809.809,0,0,1,.809-.809h0a.809.809,0,0,1,.809.809h0a.809.809,0,0,1-.809.809h0a.809.809,0,0,1-.809-.784Zm-4.852,0a.809.809,0,0,1,.809-.809h0a.809.809,0,0,1,.809.809h0a.809.809,0,0,1-.809.809h0a.809.809,0,0,1-.809-.784Zm-4.852,0a.809.809,0,0,1,.809-.809h0a.809.809,0,0,1,.809.809h0a.809.809,0,0,1-.809.809h0a.809.809,0,0,1-.809-.784Zm-4.852,0a.809.809,0,0,1,.809-.809h0a.809.809,0,0,1,.809.809h0a.809.809,0,0,1-.809.809h0a.809.809,0,0,1-.809-.784Zm-4.852,0a.809.809,0,0,1,.809-.809h0a.809.809,0,0,1,.809.809h0a.809.809,0,0,1-.809.809h0a.809.809,0,0,1-.809-.784Zm-4.852,0a.809.809,0,0,1,.809-.809h0a.809.809,0,0,1,.809.809h0a.809.809,0,0,1-.809.809h0a.809.809,0,0,1-.809-.784Zm-4.852,0a.809.809,0,0,1,.809-.809h0a.809.809,0,0,1,.809.809h0a.809.809,0,0,1-.809.809h0a.809.809,0,0,1-.809-.784Zm-4.852,0a.809.809,0,0,1,.809-.809h0a.809.809,0,0,1,.809.809h0a.809.809,0,0,1-.809.809h0a.809.809,0,0,1-.809-.784Zm-4.852,0a.809.809,0,0,1,.809-.809h0a.809.809,0,0,1,.809.809h0a.809.809,0,0,1-.809.809h0a.809.809,0,0,1-.809-.784Zm-4.852,0a.809.809,0,0,1,.809-.809h0a.809.809,0,0,1,.809.809h0a.809.809,0,0,1-.809.809h0a.809.809,0,0,1-.809-.784Zm-4.852,0a.809.809,0,0,1,.809-.809h0a.809.809,0,0,1,.809.809h0a.809.809,0,0,1-.809.809h0a.809.809,0,0,1-.809-.784Zm-4.852,0a.809.809,0,0,1,.809-.809h0a.809.809,0,0,1,.809.809h0a.809.809,0,0,1-.809.809h0a.809.809,0,0,1-.809-.784Zm-4.852,0a.809.809,0,0,1,.809-.809h0a.809.809,0,0,1,.809.809h0a.809.809,0,0,1-.809.809h0a.809.809,0,0,1-.809-.784Zm-4.852,0a.809.809,0,0,1,.809-.809h0a.809.809,0,0,1,.809.809h0a.809.809,0,0,1-.809.809h0a.809.809,0,0,1-.809-.784Zm-4.852,0a.809.809,0,0,1,.809-.809h0a.809.809,0,0,1,.809.809h0a.809.809,0,0,1-.809.809h0a.809.809,0,0,1-.809-.784Zm-4.852,0a.809.809,0,0,1,.809-.809h0a.809.809,0,0,1,.809.809h0a.809.809,0,0,1-.809.809h0a.809.809,0,0,1-.809-.784Zm-4.852,0a.809.809,0,0,1,.809-.809h0a.809.809,0,0,1,.809.809h0a.809.809,0,0,1-.809.809h0a.809.809,0,0,1-.809-.784Zm-4.852,0a.809.809,0,0,1,.809-.809h0a.809.809,0,0,1,.809.809h0a.809.809,0,0,1-.809.809h0a.809.809,0,0,1-.809-.784Zm-4.852,0a.809.809,0,0,1,.809-.809h0a.809.809,0,0,1,.809.809h0a.809.809,0,0,1-.809.809h0a.809.809,0,0,1-.809-.784Zm-4.852,0a.809.809,0,0,1,.809-.809h0a.809.809,0,0,1,.809.809h0a.809.809,0,0,1-.809.809h0a.809.809,0,0,1-.809-.784Zm-4.852,0a.809.809,0,0,1,.809-.809h0a.809.809,0,0,1,.809.809h0a.809.809,0,0,1-.809.809h0a.809.809,0,0,1-.809-.784Zm-4.852,0a.809.809,0,0,1,.809-.809h0a.809.809,0,0,1,.809.809h0a.809.809,0,0,1-.809.809h0a.809.809,0,0,1-.809-.784Zm-4.852,0a.809.809,0,0,1,.809-.809h0a.809.809,0,0,1,.809.809h0a.809.809,0,0,1-.809.809h0a.809.809,0,0,1-.809-.784Zm-4.852,0a.809.809,0,0,1,.809-.809h0a.809.809,0,0,1,.809.809h0a.809.809,0,0,1-.809.809h0a.809.809,0,0,1-.809-.784Zm-4.852,0a.809.809,0,0,1,.809-.809h0a.809.809,0,0,1,.809.809h0a.809.809,0,0,1-.809.809h0a.809.809,0,0,1-.809-.784Zm-4.852,0a.809.809,0,0,1,.809-.809h0a.809.809,0,0,1,.809.809h0a.809.809,0,0,1-.809.809h0a.809.809,0,0,1-.809-.784Zm-4.852,0a.809.809,0,0,1,.809-.809h0a.809.809,0,0,1,.809.809h0a.809.809,0,0,1-.809.809h0a.809.809,0,0,1-.809-.784Zm-4.852,0a.809.809,0,0,1,.809-.809h0a.809.809,0,0,1,.809.809h0a.809.809,0,0,1-.809.809h0a.809.809,0,0,1-.809-.784Zm-4.852,0a.809.809,0,0,1,.809-.809h0a.809.809,0,0,1,.809.809h0a.809.809,0,0,1-.809.809h0a.809.809,0,0,1-.809-.784Zm-4.852,0a.809.809,0,0,1,.809-.809h0a.809.809,0,0,1,.809.809h0a.809.809,0,0,1-.809.809h0a.809.809,0,0,1-.809-.784Zm-4.852,0a.809.809,0,0,1,.809-.809h0a.809.809,0,0,1,.809.809h0a.809.809,0,0,1-.809.809h0a.809.809,0,0,1-.809-.784Zm-4.852,0a.809.809,0,0,1,.809-.809h0a.809.809,0,0,1,.809.809h0a.809.809,0,0,1-.809.809h0a.809.809,0,0,1-.809-.784Zm-4.852,0a.809.809,0,0,1,.809-.809h0a.809.809,0,0,1,.809.809h0a.809.809,0,0,1-.809.809h0a.809.809,0,0,1-.809-.784Z" transform="translate(-113 -166.63)" fill="#0091ff"/>
        <path id="Path_23084" data-name="Path 23084" d="M254.709,213.561a.809.809,0,0,1-.809-.809h0a.809.809,0,0,1,.809-.809h0a.809.809,0,0,1,.809.809h0a.809.809,0,0,1-.809.809Zm.218-4.852a.809.809,0,0,1-.809-.809h0a.809.809,0,0,1,.809-.809h0a.809.809,0,0,1,.768.849h0a.809.809,0,0,1-.809.768h0Zm.21-4.852a.809.809,0,0,1-.809-.849h0a.809.809,0,0,1,.809-.768h0a.809.809,0,0,1,.809.809h0a.809.809,0,0,1-.809.809Zm.218-4.852a.809.809,0,0,1-.809-.809h0a.809.809,0,0,1,.809-.809h0a.809.809,0,0,1,.809.809h0a.809.809,0,0,1-.809.809Zm.21-4.852a.809.809,0,0,1-.809-.809h0a.809.809,0,0,1,.849-.809h0a.809.809,0,0,1,.768.809h0a.809.809,0,0,1-.809.809Zm.21-4.852a.809.809,0,0,1-.809-.809h0a.809.809,0,0,1,.809-.809h0a.809.809,0,0,1,.809.809h0a.809.809,0,0,1-.809.768h0Zm.218-4.852a.809.809,0,0,1-.809-.809h0a.809.809,0,0,1,.809-.809h0a.809.809,0,0,1,.768.849h0a.809.809,0,0,1-.809.768h0Zm.21-4.852a.809.809,0,0,1-.768-.849h0a.809.809,0,0,1,.809-.768h0a.809.809,0,0,1,.809.809h0a.809.809,0,0,1-.809.809Zm.218-4.852a.809.809,0,0,1-.809-.809h0a.809.809,0,0,1,.849-.809h0a.809.809,0,0,1,.768.809h0a.809.809,0,0,1-.809.809Z" transform="translate(-139.966 -167.874)" fill="#0091ff"/>
      </g>
      <g id="freepik--Cloud--inject-4" transform="translate(175.195 88.182)">
        <path id="Path_23085" data-name="Path 23085" d="M280.77,109.544a14.175,14.175,0,0,0-18.962-12.5,19.277,19.277,0,0,0-35.029,6.194h-.671a19.486,19.486,0,1,0,0,38.971l47.66,0a17.07,17.07,0,0,0,7-32.644Z" transform="translate(-204 -88.182)" fill="#263238"/>
        <path id="Path_23086" data-name="Path 23086" d="M233.016,92.47l-.566-.574a22.481,22.481,0,0,1,3.5-2.806l.437.679a21.663,21.663,0,0,0-3.372,2.7Z" transform="translate(-208.943 -88.356)" fill="#0091ff"/>
        <path id="Path_23087" data-name="Path 23087" d="M217.347,104.252l-.307-.752A22.173,22.173,0,0,1,224,101.883a21.922,21.922,0,0,1,3.234-6.113l.647.485a21.024,21.024,0,0,0-3.194,6.17l-.089.267h-.275A21.308,21.308,0,0,0,217.347,104.252Z" transform="translate(-205.994 -89.634)" fill="#0091ff"/>
        <path id="Path_23088" data-name="Path 23088" d="M277.53,109.544a14.175,14.175,0,0,0-18.962-12.5,19.277,19.277,0,0,0-35.029,6.194h-.671a19.486,19.486,0,1,0,0,38.971l47.66,0a17.07,17.07,0,0,0,7-32.644Z" transform="translate(-203.38 -88.182)" fill="#0091ff"/>
        <path id="Path_23089" data-name="Path 23089" d="M252.431,121.346l-7.6-7.593a.663.663,0,0,0-.946,0l-7.6,7.593a.671.671,0,0,0,.477,1.148h3.234a.679.679,0,0,1,.671.679v10.6a.671.671,0,0,0,.671.671h6.089a.671.671,0,0,0,.671-.671v-10.6a.679.679,0,0,1,.671-.679H252a.671.671,0,0,0,.429-1.148Z" transform="translate(-209.639 -93.038)" fill="#fff"/>
        <path id="Path_23090" data-name="Path 23090" d="M254.573,126.65l7.6,7.6a.687.687,0,0,0,.954,0l7.593-7.6a.671.671,0,0,0-.469-1.148h-3.234a.679.679,0,0,1-.679-.671V114.221a.671.671,0,0,0-.671-.671h-6.081a.679.679,0,0,0-.679.671V124.83a.671.671,0,0,1-.671.671H255a.671.671,0,0,0-.429,1.148Z" transform="translate(-213.139 -93.037)" fill="#fff"/>
      </g>
      <g id="freepik--Smartphone--inject-4" transform="translate(306.108 174.242)">
        <path id="Path_23091" data-name="Path 23091" d="M404.4,270.127H369.318a2.491,2.491,0,0,1-2.5-2.62l3.1-70.285a2.765,2.765,0,0,1,2.733-2.612h35.086a2.491,2.491,0,0,1,2.507,2.612l-3.105,70.285A2.774,2.774,0,0,1,404.4,270.127Z" transform="translate(-365.571 -194.61)" fill="#263238"/>
        <path id="Path_23092" data-name="Path 23092" d="M402.872,270.127H367.786a2.5,2.5,0,0,1-2.507-2.62l3.1-70.285a2.766,2.766,0,0,1,2.733-2.612H406.2a2.483,2.483,0,0,1,2.5,2.612l-3.1,70.285a2.774,2.774,0,0,1-2.733,2.62Z" transform="translate(-365.276 -194.61)" fill="#0091ff"/>
        <path id="Path_23093" data-name="Path 23093" d="M391.884,285.835h-4.852a.582.582,0,0,1-.582-.615v-.154a.647.647,0,0,1,.639-.606h4.852a.574.574,0,0,1,.582.606v.154A.639.639,0,0,1,391.884,285.835Z" transform="translate(-369.328 -211.806)" opacity="0.3"/>
        <path id="Path_23094" data-name="Path 23094" d="M369.437,266.156a1.269,1.269,0,0,1-1.278-1.342l2.911-66.169a1.415,1.415,0,0,1,1.4-1.334h33.283a1.262,1.262,0,0,1,1.278,1.334l-2.911,66.169a1.415,1.415,0,0,1-1.4,1.342Z" transform="translate(-365.828 -195.127)" fill="#fff" opacity="0.9"/>
        <path id="Path_23095" data-name="Path 23095" d="M385.178,248.39h-5.208a.954.954,0,0,1-.954-.995l.4-9.016a.145.145,0,0,0,0-.113.178.178,0,0,0-.105-.04h-2.733a.93.93,0,0,1-.881-.59.978.978,0,0,1,.243-1.084l6.744-6.469a1.092,1.092,0,0,1,.72-.283.938.938,0,0,1,.663.3l6.178,6.469a.954.954,0,0,1,.186,1.043,1.011,1.011,0,0,1-.922.615h-2.733a.21.21,0,0,0-.194.186l-.4,9.024A1.019,1.019,0,0,1,385.178,248.39Zm-1.8-17.79a.2.2,0,0,0-.137.057l-6.744,6.469a.178.178,0,0,0-.048.2.121.121,0,0,0,.129.081h2.733a.954.954,0,0,1,.687.291.93.93,0,0,1,.259.7l-.4,9.024a.177.177,0,0,0,.04.105.145.145,0,0,0,.105,0h5.175a.21.21,0,0,0,.194-.186l.4-9.016a1.019,1.019,0,0,1,1-.962H389.5a.21.21,0,0,0,.178-.121.154.154,0,0,0,0-.17l-6.178-6.469a.138.138,0,0,0-.129.008Z" transform="translate(-367.256 -201.345)" fill="#0091ff"/>
        <path id="Path_23096" data-name="Path 23096" d="M398.118,248.39h0a.93.93,0,0,1-.663-.291l-6.178-6.469a.97.97,0,0,1-.186-1.051,1.011,1.011,0,0,1,.922-.615h2.733a.2.2,0,0,0,.194-.186l.4-9.016a1.019,1.019,0,0,1,1-.962h5.175a.938.938,0,0,1,.687.291.962.962,0,0,1,.267.7l-.4,9.024a.129.129,0,0,0,0,.105.178.178,0,0,0,.105,0h2.733a.93.93,0,0,1,.881.6.962.962,0,0,1-.243,1.075l-6.744,6.469A1.019,1.019,0,0,1,398.118,248.39Zm-6.283-7.278,6.178,6.469h.105a.2.2,0,0,0,.137-.057L405,241.056a.17.17,0,0,0,.049-.194.129.129,0,0,0-.129-.089h-2.733a.954.954,0,0,1-.671-.3.93.93,0,0,1-.259-.7l.4-9.016a.146.146,0,0,0,0-.105.121.121,0,0,0-.105-.049h-5.175a.21.21,0,0,0-.194.186l-.4,9.024a1.019,1.019,0,0,1-1,.954h-2.733a.21.21,0,0,0-.178.121.17.17,0,0,0,0,.178Z" transform="translate(-370.202 -201.345)" fill="#0091ff"/>
        <path id="Path_23097" data-name="Path 23097" d="M390.375,194.61h-7.949L368.3,270.127h7.949Z" transform="translate(-365.855 -194.61)" fill="#fff" opacity="0.2"/>
        <path id="Path_23098" data-name="Path 23098" d="M403.068,194.61h-1.989L386.96,270.127h1.989Z" transform="translate(-369.426 -194.61)" fill="#fff" opacity="0.3"/>
        <path id="Path_23099" data-name="Path 23099" d="M394.479,195.7a.477.477,0,0,1-.469.445.42.42,0,0,1-.421-.445.469.469,0,0,1,.461-.445.429.429,0,0,1,.429.445Z" transform="translate(-370.695 -194.734)" opacity="0.3"/>
      </g>
      <g id="freepik--Notebook--inject-4" transform="translate(127.578 204.605)">
        <path id="Path_23100" data-name="Path 23100" d="M310.724,326.123h-133.8a3.089,3.089,0,0,1-3.113-3.234l3.849-87.444a3.453,3.453,0,0,1,3.4-3.234h133.81a3.105,3.105,0,0,1,3.113,3.234l-3.857,87.444A3.445,3.445,0,0,1,310.724,326.123Z" transform="translate(-150.103 -232.17)" fill="#263238"/>
        <path id="Path_23101" data-name="Path 23101" d="M308.823,326.123H175.012a3.089,3.089,0,0,1-3.113-3.234l3.857-87.444a3.453,3.453,0,0,1,3.4-3.234h133.81a3.1,3.1,0,0,1,3.113,3.234l-3.857,87.444A3.445,3.445,0,0,1,308.823,326.123Z" transform="translate(-149.738 -232.17)" fill="#0091ff"/>
        <path id="Path_23102" data-name="Path 23102" d="M310.614,350.11H176.8a3.445,3.445,0,0,0-3.234,2.24.752.752,0,0,0,.72,1.011H312.8a.809.809,0,0,0,.809-1.011A3.089,3.089,0,0,0,310.614,350.11Z" transform="translate(-150.049 -254.733)" fill="#263238"/>
        <path id="Path_23103" data-name="Path 23103" d="M302.675,350.11h-154.4a4,4,0,0,0-3.733,2.24.669.669,0,0,0,.105.692.915.915,0,0,0,.716.319H305.223a1,1,0,0,0,.759-.3.727.727,0,0,0,.175-.708A3.539,3.539,0,0,0,302.675,350.11Z" transform="translate(-144.493 -254.733)" fill="#0091ff"/>
        <path id="Path_23104" data-name="Path 23104" d="M240.12,352.37h-24.2a1.536,1.536,0,0,0-1.278,1.423h26.636a1.375,1.375,0,0,0-1.156-1.423Z" transform="translate(-157.918 -255.166)" fill="#fff" opacity="0.8"/>
        <path id="Path_23105" data-name="Path 23105" d="M179.709,322.2a1.221,1.221,0,0,1-1.229-1.286l3.574-81.1a1.367,1.367,0,0,1,1.342-1.286h127.43a1.229,1.229,0,0,1,1.229,1.286l-3.574,81.1a1.367,1.367,0,0,1-1.342,1.286Z" transform="translate(-150.997 -233.377)" fill="#fff" opacity="0.9"/>
        <path id="Path_23106" data-name="Path 23106" d="M248.822,301.946h-8.676a1.31,1.31,0,0,1-1.326-1.383l.671-15.129a.512.512,0,0,0-.518-.534H234.4a1.3,1.3,0,0,1-1.229-.809,1.383,1.383,0,0,1,.34-1.512l11.321-10.844a1.375,1.375,0,0,1,1.933,0l10.358,10.844a1.318,1.318,0,0,1,.251,1.456,1.4,1.4,0,0,1-1.294.865H251.5a.607.607,0,0,0-.6.574l-.671,15.129A1.423,1.423,0,0,1,248.822,301.946ZM245.8,272.14a.606.606,0,0,0-.412.17l-11.321,10.835a.582.582,0,0,0-.146.631.493.493,0,0,0,.477.315h4.577a1.326,1.326,0,0,1,.962.4,1.31,1.31,0,0,1,.364.978l-.671,15.129a.5.5,0,0,0,.518.534h8.676a.606.606,0,0,0,.6-.574l.671-15.129a1.415,1.415,0,0,1,1.407-1.342h4.577a.59.59,0,0,0,.55-.372.517.517,0,0,0-.089-.582L246.17,272.294A.5.5,0,0,0,245.8,272.14Z" transform="translate(-161.446 -239.658)" fill="#0091ff"/>
        <path id="Path_23107" data-name="Path 23107" d="M270.523,301.944a1.326,1.326,0,0,1-.962-.4L259.2,290.7a1.334,1.334,0,0,1-.259-1.456,1.415,1.415,0,0,1,1.3-.865h4.577a.606.606,0,0,0,.6-.574l.671-15.129a1.415,1.415,0,0,1,1.4-1.342h8.684a1.326,1.326,0,0,1,.962.4,1.31,1.31,0,0,1,.364.978l-.671,15.129a.5.5,0,0,0,.137.38.542.542,0,0,0,.38.154h4.577a1.3,1.3,0,0,1,1.229.809,1.383,1.383,0,0,1-.34,1.512l-11.321,10.835A1.391,1.391,0,0,1,270.523,301.944Zm-10.747-11.806,10.366,10.844a.574.574,0,0,0,.809,0l11.321-10.836a.574.574,0,0,0,.154-.631.493.493,0,0,0-.477-.315h-4.577a1.326,1.326,0,0,1-.962-.4,1.31,1.31,0,0,1-.364-.978l.671-15.129a.542.542,0,0,0-.146-.38.509.509,0,0,0-.372-.154h-8.709a.6.6,0,0,0-.59.574l-.655,15.113a1.423,1.423,0,0,1-1.407,1.342h-4.577a.615.615,0,0,0-.558.372.534.534,0,0,0,.1.582Z" transform="translate(-166.376 -239.656)" fill="#0091ff"/>
        <path id="Path_23108" data-name="Path 23108" d="M227.55,232.16H206.5L188.93,326.121h21.048Z" transform="translate(-152.998 -232.16)" fill="#fff" opacity="0.2"/>
        <path id="Path_23109" data-name="Path 23109" d="M241.576,232.16H239.1L221.53,326.121H224Z" transform="translate(-159.237 -232.16)" fill="#fff" opacity="0.2"/>
        <path id="Path_23110" data-name="Path 23110" d="M327.387,232.16h-9.7L300.12,326.121h9.7Z" transform="translate(-174.277 -232.16)" fill="#fff" opacity="0.3"/>
        <path id="Path_23111" data-name="Path 23111" d="M264.19,235.294a1,1,0,0,1-.995.946.9.9,0,0,1-.906-.946,1.011,1.011,0,0,1,.995-.954.906.906,0,0,1,.906.954Z" transform="translate(-167.037 -232.577)" opacity="0.3"/>
      </g>
      <g id="freepik--Tablet--inject-4" transform="translate(62.835 174.242)">
        <path id="Path_23112" data-name="Path 23112" d="M134.488,288.567H69.443a3.105,3.105,0,0,1-3.113-3.234l3.857-87.468a3.445,3.445,0,0,1,3.4-3.234h65.045a3.105,3.105,0,0,1,3.113,3.234l-3.857,87.444A3.445,3.445,0,0,1,134.488,288.567Z" transform="translate(-64.79 -194.614)" fill="#263238"/>
        <path id="Path_23113" data-name="Path 23113" d="M132.588,288.567H67.542a3.1,3.1,0,0,1-3.113-3.235l3.857-87.468a3.437,3.437,0,0,1,3.4-3.234h65.045a3.1,3.1,0,0,1,3.113,3.234l-3.857,87.444A3.445,3.445,0,0,1,132.588,288.567Z" transform="translate(-64.426 -194.614)" fill="#0091ff"/>
        <path id="Path_23114" data-name="Path 23114" d="M110.742,308.1h-6.065a.72.72,0,0,1-.728-.76v-.194a.809.809,0,0,1,.809-.76h6.065a.72.72,0,0,1,.72.76v.194A.809.809,0,0,1,110.742,308.1Z" transform="translate(-71.99 -216.003)" opacity="0.3"/>
        <path id="Path_23115" data-name="Path 23115" d="M69.617,283.633A1.617,1.617,0,0,1,68,281.967l3.631-82.35A1.763,1.763,0,0,1,73.369,198h62.8a1.617,1.617,0,0,1,1.617,1.666L134.153,282a1.763,1.763,0,0,1-1.739,1.666Z" transform="translate(-65.11 -195.259)" fill="#fff" opacity="0.9"/>
        <path id="Path_23116" data-name="Path 23116" d="M100.428,261.19H92.835a1.2,1.2,0,0,1-1.2-1.253l.582-13.229a.4.4,0,0,0-.105-.3.428.428,0,0,0-.291-.121H87.773a1.181,1.181,0,0,1-1.124-.752,1.245,1.245,0,0,1,.307-1.375l9.9-9.477a1.286,1.286,0,0,1,.914-.364,1.245,1.245,0,0,1,.809.372l9.057,9.477a1.229,1.229,0,0,1,.235,1.334,1.294,1.294,0,0,1-1.181.809h-4.043a.493.493,0,0,0-.477.453l-.461,13.172A1.3,1.3,0,0,1,100.428,261.19Zm-2.652-26.07a.469.469,0,0,0-.323.137l-9.9,9.477a.453.453,0,0,0-.113.493.372.372,0,0,0,.372.243h4.043a1.189,1.189,0,0,1,.873.372,1.213,1.213,0,0,1,.332.89l-.623,13.2a.4.4,0,0,0,.105.3.412.412,0,0,0,.291.121h7.593a.485.485,0,0,0,.469-.453l.582-13.229a1.3,1.3,0,0,1,1.286-1.229h4.043a.485.485,0,0,0,.437-.291.412.412,0,0,0-.073-.453l-9.065-9.485a.412.412,0,0,0-.275-.121Z" transform="translate(-68.662 -202.21)" fill="#0091ff"/>
        <path id="Path_23117" data-name="Path 23117" d="M119.426,261.183h0a1.246,1.246,0,0,1-.809-.372l-9.057-9.477a1.229,1.229,0,0,1-.235-1.334,1.294,1.294,0,0,1,1.181-.809h4.043a.485.485,0,0,0,.477-.453l.582-13.229a1.3,1.3,0,0,1,1.278-1.229h7.52a1.2,1.2,0,0,1,.873.372,1.189,1.189,0,0,1,.332.9l-.582,13.221a.4.4,0,0,0,.105.3.412.412,0,0,0,.291.121h4.043a1.172,1.172,0,0,1,1.116.752,1.245,1.245,0,0,1-.307,1.375l-9.97,9.5A1.27,1.27,0,0,1,119.426,261.183Zm-8.992-11.159a.485.485,0,0,0-.437.291.429.429,0,0,0,.073.461l9.065,9.477a.429.429,0,0,0,.275.121.574.574,0,0,0,.34-.137l9.9-9.477a.453.453,0,0,0,.113-.493.372.372,0,0,0-.364-.243h-4.043a1.2,1.2,0,0,1-.873-.372,1.213,1.213,0,0,1-.332-.889l.582-13.229a.4.4,0,0,0-.105-.3.412.412,0,0,0-.291-.121h-7.593a.485.485,0,0,0-.469.461l-.582,13.221a1.3,1.3,0,0,1-1.286,1.229Z" transform="translate(-73 -202.202)" fill="#0091ff"/>
        <path id="Path_23118" data-name="Path 23118" d="M120.08,194.61H99.023L81.46,288.563h21.048Z" transform="translate(-67.686 -194.61)" fill="#fff" opacity="0.2"/>
        <path id="Path_23119" data-name="Path 23119" d="M134.106,194.61h-2.482L114.06,288.563h2.474Z" transform="translate(-73.925 -194.61)" fill="#fff" opacity="0.3"/>
        <path id="Path_23120" data-name="Path 23120" d="M113.969,195.97a.582.582,0,0,1-.574.558.526.526,0,0,1-.526-.558.59.59,0,0,1,.574-.55.517.517,0,0,1,.526.55Z" transform="translate(-73.697 -194.765)" opacity="0.3"/>
      </g>
    </g>
  </g>
</svg>
