<svg xmlns="http://www.w3.org/2000/svg" width="345" height="307" viewBox="0 0 345 307">
  <g id="Group_932" data-name="Group 932" transform="translate(-14679 -4559)">
    <g id="Group_899" data-name="Group 899" transform="translate(581 307)" opacity="0">
      <rect id="Rectangle_1318" data-name="Rectangle 1318" width="345" height="307" transform="translate(14098 4252)" fill="#fff"/>
    </g>
    <g id="Uploading-rafiki" transform="translate(14636.89 4490.88)">
      <g id="freepik--Shadow--inject-53" transform="translate(56.11 339.394)">
        <ellipse id="freepik--path--inject-53" cx="158.964" cy="9.281" rx="158.964" ry="9.281" fill="#f5f5f5"/>
      </g>
      <g id="freepik--Cloud--inject-53" transform="translate(91.281 86.12)">
        <path id="Path_23434" data-name="Path 23434" d="M213.357,141.912a24.7,24.7,0,0,0,.541-5.149,24.448,24.448,0,0,0-24.448-24.448,24.889,24.889,0,0,0-4.517.418c-.623-.115-1.254,0-1.9-.074A28.63,28.63,0,0,0,156.8,96h-9.019a28.7,28.7,0,0,0-28.835,28.63v.533a24.137,24.137,0,0,0,4.427,47.9h88.546a15.594,15.594,0,0,0,1.418-31.155Z" transform="translate(-99.009 -95.999)" fill="#0091ff"/>
        <path id="Path_23435" data-name="Path 23435" d="M213.357,141.912a24.7,24.7,0,0,0,.541-5.149,24.448,24.448,0,0,0-24.448-24.448,24.889,24.889,0,0,0-4.517.418c-.623-.115-1.254,0-1.9-.074A28.63,28.63,0,0,0,156.8,96h-9.019a28.7,28.7,0,0,0-28.835,28.63v.533a24.137,24.137,0,0,0,4.427,47.9h88.546a15.594,15.594,0,0,0,1.418-31.155Z" transform="translate(-99.009 -95.999)" fill="#fff" opacity="0.5"/>
        <path id="Path_23436" data-name="Path 23436" d="M215.338,141.912a24.7,24.7,0,0,0,.541-5.149,24.448,24.448,0,0,0-24.448-24.448,24.889,24.889,0,0,0-4.517.418c-.623-.115-1.254,0-1.9-.074A28.63,28.63,0,0,0,158.784,96h0a28.7,28.7,0,0,0-28.835,28.63v.533a24.137,24.137,0,0,0,4.427,47.9H213.9a15.594,15.594,0,0,0,1.418-31.155Z" transform="translate(-100.99 -95.999)" fill="#fff" opacity="0.4"/>
        <path id="Path_23437" data-name="Path 23437" d="M250.8,228.192h-27.6A41.043,41.043,0,0,1,182.2,187.2V179H174v8.2a49.249,49.249,0,0,0,49.192,49.192h27.6Z" transform="translate(-112.517 -110.95)" fill="#0091ff"/>
        <path id="Path_23438" data-name="Path 23438" d="M177.318,172.34l-7.108,7.1h14.208Z" transform="translate(-111.834 -109.751)" fill="#0091ff"/>
      </g>
      <g id="freepik--Stuff--inject-53" transform="translate(69.958 272.972)">
        <path id="Path_23439" data-name="Path 23439" d="M103.2,362.9,98.28,347.872a21.448,21.448,0,0,1,17.808-4.78l4.1,14.069Z" transform="translate(-77.554 -327.297)" fill="#0091ff"/>
        <path id="Path_23440" data-name="Path 23440" d="M103.2,362.9,98.28,347.872a21.448,21.448,0,0,1,17.808-4.78l4.1,14.069Z" transform="translate(-77.554 -327.297)" fill="#fff" opacity="0.7"/>
        <g id="Group_929" data-name="Group 929" transform="translate(23.071 18.8)" opacity="0.2">
          <path id="Path_23441" data-name="Path 23441" d="M101.14,352.16a13.293,13.293,0,0,1,1.943-1.779,17.444,17.444,0,0,1,2.279-1.492c.435-.23.894-.476,1.377-.689a12.928,12.928,0,0,1,1.484-.574,14.685,14.685,0,0,1,1.533-.426l.762-.172.762-.09c.246,0,.492-.074.73-.09h.705a7.379,7.379,0,0,1,1.3.041c.394.041.754.074,1.074.131l.82.189.7.18h-.721l-.82-.041H114a11.386,11.386,0,0,0-1.238.1,12.02,12.02,0,0,0-1.369.205l-.721.131-.721.189a13.479,13.479,0,0,0-1.459.435c-.5.131-.967.353-1.443.525s-.918.394-1.353.6-.82.41-1.246.631-.762.41-1.1.607c-.672.393-1.23.73-1.64.992Z" transform="translate(-101.14 -346.836)"/>
          <path id="Path_23442" data-name="Path 23442" d="M101.67,353.941s.189-.164.549-.418.869-.623,1.517-1a24.694,24.694,0,0,1,2.271-1.213,27.209,27.209,0,0,1,2.738-1.115c.484-.139.967-.3,1.443-.435a13.171,13.171,0,0,1,1.427-.32c.467-.074.918-.18,1.353-.213s.82-.09,1.222-.1a14.114,14.114,0,0,1,1.82.066l.689.082s-.254.041-.689.082a2.743,2.743,0,0,0-.771.082l-1,.156c-.369.057-.754.164-1.172.238s-.82.213-1.287.312-.9.262-1.369.377-.926.3-1.394.451c-1.869.623-3.7,1.377-5.067,1.96-.68.3-1.263.533-1.64.721Z" transform="translate(-101.235 -347.248)"/>
          <path id="Path_23443" data-name="Path 23443" d="M103.08,357.292a5.734,5.734,0,0,1,.508-.451c.328-.271.82-.656,1.41-1.074a21.322,21.322,0,0,1,2.156-1.3,22.855,22.855,0,0,1,2.632-1.205,19.6,19.6,0,0,1,2.788-.82,11.576,11.576,0,0,1,1.328-.2c.426,0,.82-.09,1.2-.082l1.008.041a5.58,5.58,0,0,1,.771.1l.664.115s-.246,0-.672.041a4.281,4.281,0,0,0-.754.049l-.984.131c-.353.041-.73.139-1.14.2s-.82.213-1.254.3-.869.271-1.32.394-.894.312-1.345.467-.894.336-1.328.525-.869.353-1.271.549c-.82.369-1.582.746-2.23,1.066s-1.2.6-1.566.82Z" transform="translate(-101.489 -347.795)"/>
          <path id="Path_23444" data-name="Path 23444" d="M103.92,359.76a13.378,13.378,0,0,1,1.845-1.525,18.482,18.482,0,0,1,2.115-1.263c.41-.2.82-.393,1.271-.574a13.438,13.438,0,0,1,1.361-.484,14.083,14.083,0,0,1,1.4-.361,10.556,10.556,0,0,1,1.386-.221,9.015,9.015,0,0,1,1.312-.074,7.618,7.618,0,0,1,1.164.049l.984.131.738.18c.4.107.631.18.631.18h-2.361a9.248,9.248,0,0,0-1.123.066,11.933,11.933,0,0,0-1.246.172c-.426.057-.82.18-1.312.279s-.885.238-1.328.369a25.69,25.69,0,0,0-2.574.935c-.82.344-1.55.7-2.181,1.008s-1.156.59-1.517.82Z" transform="translate(-101.641 -348.352)"/>
          <path id="Path_23445" data-name="Path 23445" d="M105.08,362.767a5.609,5.609,0,0,1,.484-.451c.32-.271.771-.656,1.353-1.074a20.039,20.039,0,0,1,2.074-1.3c.385-.221.82-.435,1.23-.631s.877-.369,1.32-.566a12.017,12.017,0,0,1,1.361-.451,11.667,11.667,0,0,1,1.361-.32,12.652,12.652,0,0,1,1.287-.172c.418,0,.82-.066,1.172-.049l.984.066a4.1,4.1,0,0,1,.746.131l.639.148H117.7l-.951.09c-.344.041-.721.131-1.107.18s-.82.2-1.222.279-.82.262-1.287.377a11.121,11.121,0,0,0-1.3.459c-.435.164-.869.328-1.287.517s-.82.353-1.23.549c-.82.369-1.517.746-2.148,1.066s-1.156.59-1.509.82Z" transform="translate(-101.85 -348.801)"/>
        </g>
        <path id="Path_23446" data-name="Path 23446" d="M101.583,365.728l10.1-7.658a1.091,1.091,0,0,1,.877-.2l11.536,2.189a1.107,1.107,0,0,1,.32,2.066l-9.519,5.157a1.2,1.2,0,0,1-.5.131l-12.134.312a1.107,1.107,0,0,1-.68-1.992Z" transform="translate(-78.069 -330.018)" fill="#0091ff"/>
        <path id="Path_23447" data-name="Path 23447" d="M123.89,364.156s15.528-37.575,18.267-39.9,20.087,7.764,20.087,7.764L146.8,371.675Z" transform="translate(-82.167 -323.905)" fill="#0091ff"/>
        <path id="Path_23448" data-name="Path 23448" d="M128.64,364.049s14.872-35.894,17.086-37.443,14.889,5.059,14.889,5.059-13.208-8.068-17.258-6.7S125.5,363.229,125.5,363.229Z" transform="translate(-82.457 -324.068)" opacity="0.2"/>
        <rect id="Rectangle_1552" data-name="Rectangle 1552" width="65.95" height="38.944" transform="translate(11.527 36.562)" fill="#263238"/>
        <rect id="Rectangle_1553" data-name="Rectangle 1553" width="65.95" height="38.944" transform="translate(11.527 36.562)" fill="#fff" opacity="0.2"/>
        <rect id="Rectangle_1554" data-name="Rectangle 1554" width="40.944" height="38.944" transform="translate(36.533 36.562)" fill="#fff" opacity="0.4"/>
        <path id="Path_23449" data-name="Path 23449" d="M117.56,366.253l15.528-12.5,34.639,2.361L158.5,366.253Z" transform="translate(-81.027 -329.281)" fill="#263238"/>
        <path id="Path_23450" data-name="Path 23450" d="M109.533,366.028,97.8,352.5,73,355.165l11.527,10.453Z" transform="translate(-73 -329.056)" fill="#263238"/>
        <path id="Path_23451" data-name="Path 23451" d="M109.533,366.028,97.8,352.5,73,355.165l11.527,10.453Z" transform="translate(-73 -329.056)" fill="#fff" opacity="0.1"/>
        <path id="Path_23452" data-name="Path 23452" d="M117.56,366.253l15.528-12.5,34.639,2.361L158.5,366.253Z" transform="translate(-81.027 -329.281)" fill="#fff" opacity="0.4"/>
        <path id="Path_23453" data-name="Path 23453" d="M149.968,390.36a10.478,10.478,0,1,0,10.478,10.478A10.478,10.478,0,0,0,149.968,390.36Zm0,14.651a4.173,4.173,0,1,1,2.956-1.219A4.181,4.181,0,0,1,149.968,405.011Z" transform="translate(-84.977 -335.875)" fill="#0091ff"/>
        <path id="Path_23454" data-name="Path 23454" d="M159.413,396.288a10.153,10.153,0,0,0-.64-1.123,9.337,9.337,0,0,0-1.049-1.369,10.363,10.363,0,0,0-6.944-3.394,6.738,6.738,0,0,0-.82-.041,10.486,10.486,0,0,0-10.158,13.02,8.589,8.589,0,0,0,.377,1.181,9.436,9.436,0,0,0,.82,1.64,10.453,10.453,0,0,0,8.067,5.042c.3,0,.607.041.91.041a10.486,10.486,0,0,0,9.445-15.02Zm-9.445,8.723a3.159,3.159,0,0,1-.394,0,4.157,4.157,0,0,1-3.468-2.566,4.535,4.535,0,0,1-.23-.738,4.442,4.442,0,0,1-.057-.476,2.785,2.785,0,0,1,0-.369,4.173,4.173,0,0,1,4.173-4.181,1.775,1.775,0,0,1,.3,0,4.148,4.148,0,0,1,2.353.918,3.98,3.98,0,0,1,.459.451,3.2,3.2,0,0,1,.328.418,4.1,4.1,0,0,1,.746,2.378,4.173,4.173,0,0,1-4.206,4.165Z" transform="translate(-84.977 -335.875)" fill="#fff" opacity="0.7"/>
        <path id="Path_23455" data-name="Path 23455" d="M149.9,407.636l-.517,6.28a10.453,10.453,0,0,1-8.067-5.042l5.116-3.8a4.157,4.157,0,0,0,3.468,2.566Z" transform="translate(-85.307 -338.525)" fill="#fff" opacity="0.2"/>
        <path id="Path_23456" data-name="Path 23456" d="M160.091,393.8l-5.108,3.8a4.149,4.149,0,0,0-2.353-.918l.517-6.272A10.363,10.363,0,0,1,160.091,393.8Z" transform="translate(-87.344 -335.884)" fill="#fff" opacity="0.2"/>
        <path id="Path_23457" data-name="Path 23457" d="M145.947,404.066l-5.69,2.878a8.591,8.591,0,0,1-.377-1.181l6.01-2.173a4.437,4.437,0,0,0,.057.476Z" transform="translate(-85.047 -338.259)" fill="#fff" opacity="0.2"/>
        <path id="Path_23458" data-name="Path 23458" d="M162.4,397.343l-6.01,2.173a3.2,3.2,0,0,0-.328-.418l5.7-2.878A10.14,10.14,0,0,1,162.4,397.343Z" transform="translate(-87.962 -336.931)" fill="#fff" opacity="0.2"/>
        <path id="Path_23459" data-name="Path 23459" d="M159.952,393.91c-5.739,0-8.879,4.042-6.911,9.019s8.24,9.019,14.02,9.019,8.887-4.034,6.92-9.019S165.741,393.91,159.952,393.91Zm4.977,12.618a6.362,6.362,0,0,1-5.591-3.6c-.82-1.984.451-3.6,2.755-3.6a6.379,6.379,0,0,1,5.591,3.6c.8,1.984-.451,3.6-2.755,3.6Z" transform="translate(-87.312 -336.515)" fill="#0091ff"/>
        <path id="Path_23460" data-name="Path 23460" d="M171.408,399.017c-.32-.328-.656-.656-1.017-.967a14.6,14.6,0,0,0-1.517-1.172,16.29,16.29,0,0,0-8.092-2.927h-.82c-5.739,0-8.879,4.034-6.911,9.019a10.66,10.66,0,0,0,1.172,2.189,9.847,9.847,0,0,0,.82,1.017,13.239,13.239,0,0,0,1.369,1.435,16.725,16.725,0,0,0,9.773,4.345h.926c5.788,0,8.887-4.042,6.928-9.019a12.412,12.412,0,0,0-2.632-3.919Zm-6.485,7.518h-.4a6.69,6.69,0,0,1-4.337-2.205,4.974,4.974,0,0,1-.475-.639,3.967,3.967,0,0,1-.221-.41,2.78,2.78,0,0,1-.148-.32c-.82-1.992.451-3.6,2.755-3.6a1.781,1.781,0,0,1,.3,0,6.3,6.3,0,0,1,2.665.82,6.017,6.017,0,0,1,.615.394,3.942,3.942,0,0,1,.467.361,5.149,5.149,0,0,1,1.558,2.041c.787,1.943-.459,3.558-2.771,3.558Z" transform="translate(-87.314 -336.522)" fill="#fff" opacity="0.1"/>
        <path id="Path_23461" data-name="Path 23461" d="M165.383,408.784l1.64,5.411a16.725,16.725,0,0,1-9.773-4.345l3.821-3.279A6.69,6.69,0,0,0,165.383,408.784Z" transform="translate(-88.176 -338.795)" fill="#fff" opacity="0.2"/>
        <path id="Path_23462" data-name="Path 23462" d="M170.695,396.873l-3.821,3.279a6.3,6.3,0,0,0-2.665-.82l-1.64-5.4a16.292,16.292,0,0,1,8.125,2.943Z" transform="translate(-89.135 -336.518)" fill="#fff" opacity="0.2"/>
        <path id="Path_23463" data-name="Path 23463" d="M160.084,405.71l-4.714,2.46a9.839,9.839,0,0,1-.82-1.017l5.288-1.853A3.945,3.945,0,0,0,160.084,405.71Z" transform="translate(-87.69 -338.567)" fill="#fff" opacity="0.2"/>
        <path id="Path_23464" data-name="Path 23464" d="M174.309,399.923l-5.272,1.878a3.942,3.942,0,0,0-.467-.361l4.722-2.46A11.079,11.079,0,0,1,174.309,399.923Z" transform="translate(-90.215 -337.428)" fill="#fff" opacity="0.2"/>
      </g>
      <g id="freepik--Chair--inject-53" transform="translate(289.223 271.706)">
        <path id="Path_23465" data-name="Path 23465" d="M372.4,330l.3,12.765,1.345,57.743h4.435l1.336-57.743.3-12.765Z" transform="translate(-346.197 -323.736)" fill="#0091ff"/>
        <path id="Path_23466" data-name="Path 23466" d="M372.4,330l.3,12.765,1.345,57.743h4.435l1.336-57.743.3-12.765Z" transform="translate(-346.197 -323.736)" fill="#fff" opacity="0.4"/>
        <path id="Path_23467" data-name="Path 23467" d="M372.4,330l.3,13.118h7.116l.3-13.118Z" transform="translate(-346.197 -323.736)" opacity="0.2"/>
        <path id="Path_23468" data-name="Path 23468" d="M343.02,400.5l4.1-69.4h6.7l-5.739,69.4Z" transform="translate(-340.905 -323.934)" fill="#0091ff"/>
        <path id="Path_23469" data-name="Path 23469" d="M348.1,400.484H343.03l3.722-63.171.369-6.313h6.7l-.517,6.313Z" transform="translate(-340.907 -323.916)" fill="#fff" opacity="0.5"/>
        <path id="Path_23470" data-name="Path 23470" d="M354.637,331l-.517,6.559H347.57l.369-6.559Z" transform="translate(-341.724 -323.916)" opacity="0.2"/>
        <path id="Path_23471" data-name="Path 23471" d="M403.759,400.5l-5.739-69.4h6.7l4.1,69.4Z" transform="translate(-350.812 -323.934)" fill="#0091ff"/>
        <path id="Path_23472" data-name="Path 23472" d="M403.743,400.484l-5.206-63.171L398.02,331h6.7l.369,6.313,3.722,63.171Z" transform="translate(-350.812 -323.916)" fill="#fff" opacity="0.5"/>
        <path id="Path_23473" data-name="Path 23473" d="M398.02,331l.516,6.559h6.551L404.718,331Z" transform="translate(-350.812 -323.916)" opacity="0.2"/>
        <path id="Path_23474" data-name="Path 23474" d="M0,.016H54.866V5.485a4.1,4.1,0,0,1-4.1,4.1H4.1A4.1,4.1,0,0,1,0,5.485V.016Z" transform="translate(57.489 9.584) rotate(180)" fill="#0091ff"/>
        <rect id="Rectangle_1555" data-name="Rectangle 1555" width="60.121" height="4.788" rx="2.01" transform="translate(60.121 9.56) rotate(180)" fill="#0091ff"/>
        <rect id="Rectangle_1556" data-name="Rectangle 1556" width="60.121" height="4.788" rx="2.01" transform="translate(60.121 9.56) rotate(180)" fill="#fff" opacity="0.6"/>
      </g>
      <g id="freepik--Character--inject-53" transform="translate(224.127 135.48)">
        <g id="freepik--group--inject-53">
          <path id="Path_23475" data-name="Path 23475" d="M343.707,224.207s-.23.623-.648,1.64-1.058,2.566-1.836,4.255c-1.886,4.1-4.624,9.314-7.485,12.126A7.707,7.707,0,0,1,331.2,244c-3.05,1.172-10.7,1.386-17.529,1.32s-12.667-.41-12.667-.41v-5.173l22.456-5.985s11.839-21.366,18.857-24.53Z" transform="translate(-268.24 -165.754)" fill="#263238"/>
          <path id="Path_23476" data-name="Path 23476" d="M350.142,228.51c-.426,1.066-1.058,2.566-1.837,4.255-1.886,4.1-4.624,9.314-7.485,12.126-2.911-10.724,7.854-20.931,7.854-20.931Z" transform="translate(-275.323 -168.409)" opacity="0.2"/>
          <path id="Path_23477" data-name="Path 23477" d="M347.126,405.172l-6.534-.894-.9-15.528,6.518.9Z" transform="translate(-275.209 -198.093)" fill="#ebb376"/>
          <path id="Path_23478" data-name="Path 23478" d="M346.208,389.654l-6.518-.894.517,8.871,6.518.574Z" transform="translate(-275.209 -198.095)" opacity="0.2"/>
          <path id="Path_23479" data-name="Path 23479" d="M343.575,294.785l1.591-9.986,36.582-2.189s3.894,20.775.9,26.31c-5.337,9.879-34.115,4.919-42.543,5.862,5.067,20.62,4.575,60.793,4.575,60.793l-12.027.918s-9.248-43.346-11.126-63.95C320.258,298.671,331.785,299.016,343.575,294.785Z" transform="translate(-271.92 -178.974)" fill="#0091ff"/>
          <path id="Path_23480" data-name="Path 23480" d="M348.062,395.417l-14.454.943-1.238-6.19,15.881-.73Z" transform="translate(-273.89 -198.218)" fill="#0091ff"/>
          <path id="Path_23481" data-name="Path 23481" d="M328.031,398.417l-6.575.484-4.116-15,6.567-.476Z" transform="translate(-271.183 -197.135)" fill="#ebb376"/>
          <path id="Path_23482" data-name="Path 23482" d="M320.532,402.031h-.115c0-.1-.336-1.943-1.131-2.378a.738.738,0,0,0-.656,0,.574.574,0,0,0-.4.6,2.46,2.46,0,0,0,.967,1.336,2.631,2.631,0,0,0-1.836.049.582.582,0,0,0-.23.517.82.82,0,0,0,.418.771,1.763,1.763,0,0,0,1.279,0,8.2,8.2,0,0,0,1.64-.689h.057v-.049a.131.131,0,0,0,.008-.156Zm-1.976-1.837c0-.09,0-.2.221-.287h.074a.41.41,0,0,1,.353.041c.476.254.82,1.254.959,1.853l-.148-.041C319.368,401.375,318.613,400.637,318.556,400.194Zm-.861,2.41a.582.582,0,0,1-.254-.5.3.3,0,0,1,.107-.254c.377-.279,1.574-.041,2.46.221C318.917,402.613,318.081,402.81,317.7,402.6Z" transform="translate(-271.145 -200.044)" fill="#0091ff"/>
          <path id="Path_23483" data-name="Path 23483" d="M323.907,383.43l-6.567.484,2.353,8.568,6.493-.8Z" transform="translate(-271.183 -197.135)" opacity="0.2"/>
          <path id="Path_23484" data-name="Path 23484" d="M309.73,374.223l11.577-3.427s-6.911-39.009-13.938-52.537c.525-.172,1.222-.394,2.082-.648,1.55-.467,3.607-1.049,6.026-1.722,16.824-4.665,50.922-13.413,50.922-13.413L350.822,287.94s-62.048,9.461-63.335,25.809C286.889,321.6,309.73,374.223,309.73,374.223Z" transform="translate(-265.803 -179.934)" fill="#0091ff"/>
          <path id="Path_23485" data-name="Path 23485" d="M326.948,388.048l-13.938,3.944-2.5-5.8,15.381-4.026Z" transform="translate(-269.953 -196.908)" fill="#0091ff"/>
          <path id="Path_23486" data-name="Path 23486" d="M313.875,318.966c1.55-.467,3.607-1.049,6.026-1.722-.484-3.968-.492-8.518,1.418-10.839,3.8-4.624,13.561-7.338,19.119-8.322,4.649-.82,20.267-2.46,20.267-2.46s-20.267-1.943-40.993,4.1C309.48,302.725,311.473,312.735,313.875,318.966Z" transform="translate(-270.21 -181.265)" opacity="0.2"/>
          <path id="Path_23487" data-name="Path 23487" d="M388.12,279.292c2.46-1.878.1-19.341,1.353-36.517,1.91-26.154,0-34.557-1.927-35.369a74.115,74.115,0,0,0-10.765-1.066,137.834,137.834,0,0,0-15.832.344,69.475,69.475,0,0,0-10.658,2.164s-8.625,27.466-3.116,67.024Z" transform="translate(-276.226 -165.22)" fill="#263238"/>
          <path id="Path_23488" data-name="Path 23488" d="M390.143,230.064h0c-.107,3.845-.336,8.305-.713,13.454-1.254,17.176,1.09,34.639-1.353,36.517l-40.952-3.419a184.652,184.652,0,0,1-.041-51.775c3.329-5.2,9.789-11.126,12.757-13.725a6.165,6.165,0,0,0,3.771,1.96c3.189.623,6.829-.82,9.838-2.656,2.378,2.369,6.887,7.166,8.863,11.208a12.871,12.871,0,0,1,.549,1.287c1.254,3.509,5.083-.82,7.035-6.461a122.176,122.176,0,0,1,.246,13.61Z" transform="translate(-276.216 -165.97)" fill="#fff" opacity="0.8"/>
          <path id="Path_23489" data-name="Path 23489" d="M378.191,184.71c-.894,5.116-1.689,14.462,1.943,17.791a16.4,16.4,0,0,1-11.478,5.214c-6.559.287-4.345-4.919-4.345-4.919,5.657-1.476,5.411-5.69,4.337-9.625Z" transform="translate(-279.579 -161.339)" fill="#ebb376"/>
          <path id="Path_23490" data-name="Path 23490" d="M375.329,188.94l-5.649,5.034a16.221,16.221,0,0,1,.549,2.8c2.164-.353,5.091-2.8,5.28-5.083A7.559,7.559,0,0,0,375.329,188.94Z" transform="translate(-280.611 -162.101)" opacity="0.2"/>
          <path id="Path_23491" data-name="Path 23491" d="M364.626,168.11c2.829,1.918,1.541,5.165-4.854,10.257-2.591-3.337-3.025-9.9-.959-11.536S362.166,166.446,364.626,168.11Z" transform="translate(-278.418 -157.98)" fill="#263238"/>
          <path id="Path_23492" data-name="Path 23492" d="M376.663,172.812c-.3,6.911-.139,10.962-3.558,14.569-5.149,5.419-13.725,2.4-15.487-4.46-1.574-6.165-.82-16.4,5.895-19.291a9.42,9.42,0,0,1,13.151,9.183Z" transform="translate(-278.313 -157.402)" fill="#ebb376"/>
          <path id="Path_23493" data-name="Path 23493" d="M368.2,177.28c0,.566-.279,1.025-.648,1.033s-.664-.443-.672-1.008.271-1.017.64-1.025S368.151,176.731,368.2,177.28Z" transform="translate(-280.107 -159.821)" fill="#263238"/>
          <path id="Path_23494" data-name="Path 23494" d="M360.408,177.428c0,.558-.279,1.017-.648,1.025s-.672-.435-.68-1.008.279-1.025.648-1.025S360.4,176.9,360.408,177.428Z" transform="translate(-278.702 -159.846)" fill="#263238"/>
          <path id="Path_23495" data-name="Path 23495" d="M362.679,177.93a20,20,0,0,1-2.6,4.845,3.279,3.279,0,0,0,2.689.459Z" transform="translate(-278.882 -160.118)" fill="#d58745"/>
          <path id="Path_23496" data-name="Path 23496" d="M369.978,174.6a.3.3,0,0,0,.2-.049.328.328,0,0,0,.066-.459,3.28,3.28,0,0,0-2.714-1.32.312.312,0,0,0-.3.336h0a.336.336,0,0,0,.353.3h0a2.607,2.607,0,0,1,2.132,1.066.361.361,0,0,0,.254.131Z" transform="translate(-280.171 -159.188)" fill="#263238"/>
          <path id="Path_23497" data-name="Path 23497" d="M357.038,174.559a.336.336,0,0,0,.3-.189,2.6,2.6,0,0,1,1.828-1.525.336.336,0,0,0,.279-.377.328.328,0,0,0-.369-.279,3.279,3.279,0,0,0-2.337,1.9.328.328,0,0,0,.156.435h0A.263.263,0,0,0,357.038,174.559Z" transform="translate(-278.275 -159.083)" fill="#263238"/>
          <path id="Path_23498" data-name="Path 23498" d="M377.092,167.339c-3.206,1.164-2.747,4.632,2.205,11.126,3.345-2.632,5.37-8.871,3.755-10.962S379.929,166.331,377.092,167.339Z" transform="translate(-281.579 -158.012)" fill="#263238"/>
          <path id="Path_23499" data-name="Path 23499" d="M383.715,180.792a6.559,6.559,0,0,1-3.058,3.985c-2.009,1.131-3.558-.533-3.468-2.706.09-1.968,1.238-4.919,3.476-5.165A2.928,2.928,0,0,1,383.715,180.792Z" transform="translate(-281.963 -159.93)" fill="#ebb376"/>
          <path id="Path_23500" data-name="Path 23500" d="M368.682,185.79a4.821,4.821,0,0,1-4.542,2.156" transform="translate(-279.613 -161.534)" fill="none" stroke="#263238" stroke-linecap="round" stroke-linejoin="round" stroke-width="0.526"/>
          <path id="Path_23501" data-name="Path 23501" d="M366.242,164.432s1.033,6.92,7.7,7.379,8.092-3.681,8.092-3.681a12.743,12.743,0,0,1-1.64.131,6.834,6.834,0,0,0,0-6.559c-1.951-3.206-8.592-6.633-13.52-4.919a11.7,11.7,0,0,0-9.33.9c-4.616,2.681-3.8,8.527-3.8,8.527s-.2-3.55,1.951-4.542c0,0-2.665,7.305,1.328,9.256C357.019,170.9,357.412,163.711,366.242,164.432Z" transform="translate(-277.731 -156.204)" fill="#263238"/>
          <path id="Path_23502" data-name="Path 23502" d="M346.789,245.093s-23.776-.541-25.121-.672-6.977-3.279-8.2-3.452-4.411,4.919-4.813,6.1,9.019,4.378,9.929,4.239a16.965,16.965,0,0,0,3.058-1.14l24.268,3.124Z" transform="translate(-269.617 -171.472)" fill="#ebb376"/>
          <path id="Path_23503" data-name="Path 23503" d="M271,252v2.173c0,.648,1.115,1.107,1.763,1.107h50.66c.656,0,1.689-.459,1.689-1.107V252Z" transform="translate(-262.836 -173.46)" fill="#263238"/>
          <path id="Path_23504" data-name="Path 23504" d="M271,252v2.173c0,.648,1.115,1.107,1.763,1.107h50.66c.656,0,1.689-.459,1.689-1.107V252Z" transform="translate(-262.836 -173.46)" fill="#fff" opacity="0.6"/>
          <path id="Path_23505" data-name="Path 23505" d="M271,252v2.173c0,.648,1.115,1.107,1.763,1.107h33.41c.656,0,1.722-.459,1.722-1.107V252Z" transform="translate(-262.836 -173.46)" opacity="0.2"/>
          <path id="Path_23506" data-name="Path 23506" d="M261.081,219.237l6.034,27.457a2.14,2.14,0,0,0,1.96,1.64H302a1.427,1.427,0,0,0,1.238-1.837l-6.026-27.154a1.886,1.886,0,0,0-1.96-1.345H262.328C261.442,218,260.885,218.343,261.081,219.237Z" transform="translate(-261.042 -167.334)" fill="#263238"/>
          <path id="Path_23507" data-name="Path 23507" d="M261.081,219.237l6.034,27.457a2.14,2.14,0,0,0,1.96,1.64H302a1.427,1.427,0,0,0,1.238-1.837l-6.026-27.154a1.886,1.886,0,0,0-1.96-1.345H262.328C261.442,218,260.885,218.343,261.081,219.237Z" transform="translate(-261.042 -167.334)" fill="#fff" opacity="0.6"/>
          <path id="Path_23508" data-name="Path 23508" d="M261.081,219.237l6.034,27.457a2.14,2.14,0,0,0,1.96,1.64h31.819a1.435,1.435,0,0,0,1.246-1.837l-6.026-27.154a1.886,1.886,0,0,0-1.96-1.345H262.328C261.442,218,260.885,218.343,261.081,219.237Z" transform="translate(-261.042 -167.334)" fill="#fff" opacity="0.4"/>
          <path id="Path_23509" data-name="Path 23509" d="M283.939,239.379c-1.533,0-3.107-1.64-3.509-3.673S280.954,232,282.52,232a2.386,2.386,0,0,1,.82.164,4.706,4.706,0,0,0,2.615,3.353,1.2,1.2,0,0,1,.041.164C286.406,237.739,285.48,239.379,283.939,239.379Z" transform="translate(-264.517 -169.858)" opacity="0.2"/>
          <path id="Path_23510" data-name="Path 23510" d="M396.589,231.39h0c-3.534,5.739-8.477,11.847-13.4,11.56-5.157-.3.041-10.83,5.583-20a12.911,12.911,0,0,1,.549,1.287c1.254,3.509,5.083-.82,7.034-6.461A122.146,122.146,0,0,1,396.589,231.39Z" transform="translate(-282.662 -167.296)" opacity="0.2"/>
          <path id="Path_23511" data-name="Path 23511" d="M388.058,207.66c12.159,4.378-9.183,37.3-15.815,40.7s-24.063-.517-24.063-.517l1.082-10.175s13.8.935,16.545.238,9.273-14.758,13.028-21.358a21.185,21.185,0,0,1,9.224-8.887Z" transform="translate(-276.738 -165.473)" fill="#263238"/>
          <path id="Path_23512" data-name="Path 23512" d="M348.062,395.417l-14.454.943-1.238-6.19,15.881-.73Z" transform="translate(-273.89 -198.218)" fill="#fff" opacity="0.2"/>
          <path id="Path_23513" data-name="Path 23513" d="M326.948,388.048l-13.938,3.944-2.5-5.8,15.381-4.026Z" transform="translate(-269.953 -196.908)" fill="#fff" opacity="0.2"/>
          <path id="Path_23514" data-name="Path 23514" d="M319.611,401.039l7.116-1.984a.475.475,0,0,1,.59.3h0l1.927,5.542a1.172,1.172,0,0,1-.82,1.435c-2.5.648-3.722.82-6.862,1.689a60.952,60.952,0,0,1-8.428,2.074c-2.747.312-2.976-2.41-1.845-2.779a18.144,18.144,0,0,0,7.305-5.608,1.861,1.861,0,0,1,1.017-.664Z" transform="translate(-269.978 -199.946)" fill="#263238"/>
          <path id="Path_23515" data-name="Path 23515" d="M339.2,407.1h0c0-.115-.115-1.976-.82-2.566a.951.951,0,0,0-.738-.172.631.631,0,0,0-.558.492,2.37,2.37,0,0,0,.648,1.509,2.713,2.713,0,0,0-1.82-.336.607.607,0,0,0-.336.459.82.82,0,0,0,.246.82,1.747,1.747,0,0,0,1.246.246,7.635,7.635,0,0,0,1.722-.344.066.066,0,0,0,.057,0v-.049s.156,0,.164-.057.139,0,.139,0Zm-1.812-2.214c0-.09.057-.2.271-.246h.074a.418.418,0,0,1,.336.123c.418.344.533,1.386.558,2.009l-.131-.074a3.1,3.1,0,0,1-1.107-1.812Zm-1.345,2.173a.574.574,0,0,1-.123-.533.271.271,0,0,1,.164-.221c.418-.2,1.541.287,2.337.721a3.291,3.291,0,0,1-2.378.066Z" transform="translate(-274.463 -200.902)" fill="#0091ff"/>
          <path id="Path_23516" data-name="Path 23516" d="M337.927,406.628l7.379-.459a.459.459,0,0,1,.517.41h0l.721,5.821a1.148,1.148,0,0,1-1.074,1.23c-2.574.123-3.812.049-7.059.23a61.2,61.2,0,0,1-8.674.27c-2.755-.271-2.41-2.976-1.222-3.107a18.016,18.016,0,0,0,8.305-3.96,1.837,1.837,0,0,1,1.107-.435Z" transform="translate(-273.036 -201.23)" fill="#263238"/>
        </g>
      </g>
      <g id="freepik--Table--inject-53" transform="translate(200.046 216.963)">
        <path id="Path_23517" data-name="Path 23517" d="M299.93,388.395h5.018l.828-125.645H299.11Z" transform="translate(-243.818 -256.88)" fill="#0091ff"/>
        <path id="Path_23518" data-name="Path 23518" d="M299.1,263l.131,20.275.689,105.164h5.026l.689-105.164L305.766,263Z" transform="translate(-243.816 -256.925)" fill="#fff" opacity="0.4"/>
        <path id="Path_23519" data-name="Path 23519" d="M299.1,263l.131,20.5h6.4l.131-20.5Z" transform="translate(-243.816 -256.925)" opacity="0.2"/>
        <path id="Path_23520" data-name="Path 23520" d="M235.07,388.395h5.018l9.027-125.645h-6.666Z" transform="translate(-232.282 -256.88)" fill="#0091ff"/>
        <path id="Path_23521" data-name="Path 23521" d="M235.06,388.44h5.026l8.584-119.4.443-6.042h-6.665l-.361,6.042Z" transform="translate(-232.281 -256.925)" fill="#fff" opacity="0.5"/>
        <path id="Path_23522" data-name="Path 23522" d="M243.63,268.739h6.584l.443-5.739h-6.666Z" transform="translate(-233.824 -256.925)" opacity="0.2"/>
        <path id="Path_23523" data-name="Path 23523" d="M363.167,388.395h5.018L360.806,262.75H354.14Z" transform="translate(-253.731 -256.88)" fill="#0091ff"/>
        <path id="Path_23524" data-name="Path 23524" d="M354.14,263l.443,6.042,8.584,119.4h5.018l-7.018-119.4L360.806,263Z" transform="translate(-253.731 -256.925)" fill="#fff" opacity="0.5"/>
        <path id="Path_23525" data-name="Path 23525" d="M360.806,263H354.14l.443,5.739h6.583Z" transform="translate(-253.731 -256.925)" opacity="0.2"/>
        <path id="Path_23526" data-name="Path 23526" d="M1.771,0H105.7a1.771,1.771,0,0,1,1.771,1.771V6.288H0V1.771A1.771,1.771,0,0,1,1.771,0Z" transform="translate(112.355 9.019) rotate(180)" fill="#0091ff"/>
        <path id="Path_23527" data-name="Path 23527" d="M1.771,0H105.7a1.771,1.771,0,0,1,1.771,1.771V6.288H0V1.771A1.771,1.771,0,0,1,1.771,0Z" transform="translate(112.355 9.019) rotate(180)" fill="#fff" opacity="0.6"/>
        <rect id="Rectangle_1557" data-name="Rectangle 1557" width="107.468" height="3.148" transform="translate(112.355 5.87) rotate(180)" opacity="0.2"/>
        <path id="Path_23528" data-name="Path 23528" d="M233.441,259.14h113.7a1.779,1.779,0,0,0,1.771-1.779h0a1.771,1.771,0,0,0-1.771-1.771h-113.7a1.771,1.771,0,0,0-1.771,1.771h0a1.779,1.779,0,0,0,1.771,1.779Z" transform="translate(-231.67 -255.59)" fill="#0091ff"/>
        <path id="Path_23529" data-name="Path 23529" d="M233.441,259.14h113.7a1.779,1.779,0,0,0,1.771-1.779h0a1.771,1.771,0,0,0-1.771-1.771h-113.7a1.771,1.771,0,0,0-1.771,1.771h0a1.779,1.779,0,0,0,1.771,1.779Z" transform="translate(-231.67 -255.59)" fill="#fff" opacity="0.6"/>
      </g>
    </g>
  </g>
</svg>
