<svg xmlns="http://www.w3.org/2000/svg" width="345" height="307" viewBox="0 0 345 307">
  <g id="Group_935" data-name="Group 935" transform="translate(-14679 -5291)">
    <g id="Group_901" data-name="Group 901" transform="translate(581 1039)" opacity="0">
      <rect id="Rectangle_1318" data-name="Rectangle 1318" width="345" height="307" transform="translate(14098 4252)" fill="#fff"/>
    </g>
    <g id="Active_Support-pana" data-name="Active Support-pana" transform="translate(14598.823 5271.221)">
      <g id="freepik--background-simple--inject-4" transform="translate(90.871 73.796)">
        <path id="Path_22789" data-name="Path 22789" d="M96.138,184.246c-12.141-23.819-1.7-60.69,15.092-81.479,21.779-26.928,66.761-24.124,92.462-4.612,15.974,12.119,27.019,30.563,44.863,39.708,20.829,10.683,45.858,6.3,68.807,1.667s47.978-9.044,68.812,1.65c17.59,9.01,29.127,28.754,28.262,48.5-.565,12.752-5.867,24.91-12.893,35.571-9.146,13.871-21.581,25.86-36.7,32.784-19.184,8.722-41.025,8.756-62.069,9.253-34.039.786-68.366,3.143-101.93-2.578-45.219-7.7-91.049-33.982-104.711-80.456" transform="translate(-90.871 -83.038)" fill="#ebebeb"/>
      </g>
      <g id="freepik--speech-bubble--inject-4" transform="translate(163.299 61.779)">
        <path id="Path_22802" data-name="Path 22802" d="M272.674,91.227l-4.742,3.957-2.306-1.029L265.15,92.2s5.087-3.759,4.9-3.957a2.928,2.928,0,0,0-1.747-.8,4.675,4.675,0,0,0-3.437.921l-.893.673a5.488,5.488,0,0,0-2.165,5.33,1.707,1.707,0,0,0,.034.175l-14.058,11.684a4.522,4.522,0,1,0,2.99,3.312l13.9-11.667a2.945,2.945,0,0,0,2,.724,5.178,5.178,0,0,0,3.77-1.526l1.176-1.13A4.72,4.72,0,0,0,272.674,91.227Zm-27.132,21.18a23.784,23.784,0,1,1-.023,0Z" transform="translate(-228.934 -72.919)" fill="#0091ff"/>
        <path id="Path_22803" data-name="Path 22803" d="M284.006,107.05l-15.137,1.266.051-.028a28.132,28.132,0,0,1-21.05,10.09,29.211,29.211,0,0,1-9.813-1.554,27.906,27.906,0,0,1-9.293-5.364,28.262,28.262,0,0,1-9.728-20.727,10.131,10.131,0,0,1,0-1.549c0-.514.057-1.034.079-1.554a11.964,11.964,0,0,1,.2-1.549l.254-1.566c.107-.514.254-1.023.379-1.532s.243-1.034.418-1.532.362-.995.565-1.492l.271-.752c.09-.249.226-.486.333-.729a28.709,28.709,0,0,1,7.207-9.694A27.962,27.962,0,0,1,249.894,61.9a28.313,28.313,0,0,1,22.938,16.008,14.324,14.324,0,0,1,.837,1.922c.232.65.475,1.283.69,1.922a30.342,30.342,0,0,1,.854,3.8c.085.622.2,1.227.254,1.831s.057,1.2.085,1.786a5.692,5.692,0,0,0,.045.87,4.261,4.261,0,0,1-.04.854c0,.565-.051,1.13-.079,1.65v-.051c5.364,9.112,8.253,14.012,8.563,14.549l-8.7-14.459h0q.034-.8.068-1.645c0-.283.028-.565.034-.848s-.028-.565-.045-.865c-.028-.565-.062-1.17-.09-1.775s-.181-1.2-.266-1.82a29.877,29.877,0,0,0-.853-3.765c-.215-.633-.458-1.26-.7-1.9a14.836,14.836,0,0,0-.831-1.9,27.962,27.962,0,0,0-43.721-9.044,28.5,28.5,0,0,0-7.122,9.609c-.113.243-.243.469-.333.718l-.271.746-.565,1.475c-.175.5-.271,1.012-.413,1.515s-.271,1.006-.379,1.515-.153,1.029-.232,1.537a12.842,12.842,0,0,0-.192,1.537c-.028.514-.057,1.023-.079,1.537a10.675,10.675,0,0,0,0,1.532,28.059,28.059,0,0,0,18.834,25.871,29.1,29.1,0,0,0,9.722,1.554,27.991,27.991,0,0,0,20.914-9.948h.034Z" transform="translate(-219.008 -61.779)" fill="#263238"/>
      </g>
      <g id="freepik--Device--inject-4" transform="translate(128.397 130.01)">
        <rect id="Rectangle_1483" data-name="Rectangle 1483" width="230.635" height="152.519" rx="14.57" transform="translate(9.321)" fill="#455a64"/>
        <path id="Path_22804" data-name="Path 22804" d="M157.26,432.36H407.136v3.284a10.061,10.061,0,0,1-10.061,10.061H167.321a10.061,10.061,0,0,1-10.061-10.061Z" transform="translate(-157.26 -291.123)" fill="#455a64"/>
        <rect id="Rectangle_1484" data-name="Rectangle 1484" width="217.607" height="128.796" transform="translate(15.838 6.059)" fill="#f5f5f5"/>
        <path id="Path_22805" data-name="Path 22805" d="M338.11,432.269h3.8l10.542-.045,35.254-.073h.26l-.13.226c-.441.757-.921,1.571-1.4,2.4s-1.006,1.7-1.481,2.532l-.045.073h-.085L341.2,437.3h-.04v-.034l-2.261-3.714-.565-.944-.187-.311.22.328c.141.226.345.537.61.944.531.831,1.317,2.046,2.329,3.629l-.057-.034,43.631-.079-.13.073,1.481-2.538c.48-.82.955-1.639,1.4-2.4l.124.226-35.107-.079L342,432.3h-3.64Z" transform="translate(-235.886 -291.032)" fill="#263238"/>
        <path id="Path_22806" data-name="Path 22806" d="M323.911,232.2a7.425,7.425,0,0,1,1.385-1.407l-.328-1.8,2.787-1.193,1.074,1.487a7.425,7.425,0,0,1,1.973,0l1.04-1.5,2.826,1.13-.288,1.809a7.6,7.6,0,0,1,1.407,1.385l1.8-.328,1.193,2.787-1.487,1.074a7.428,7.428,0,0,1,0,1.973l1.5,1.046-1.13,2.826-1.8-.288a7.629,7.629,0,0,1-1.385,1.413l.328,1.8-2.787,1.193-1.074-1.487a7.471,7.471,0,0,1-1.978,0l-1.04,1.509-2.826-1.13.288-1.809a7.459,7.459,0,0,1-1.413-1.385l-1.8.328L321,238.814l1.487-1.074a7.2,7.2,0,0,1,0-1.973L321,234.721l1.13-2.826,1.809.288Zm3.018,3.131a3.25,3.25,0,1,0,1.754-1.768A3.25,3.25,0,0,0,326.929,235.332Z" transform="translate(-228.447 -202.18)" fill="#e0e0e0" fill-rule="evenodd"/>
        <path id="Path_22807" data-name="Path 22807" d="M299.613,329.087A21.828,21.828,0,0,1,303.62,325l-.955-5.223,8.077-3.442,3.115,4.3a21.556,21.556,0,0,1,5.726-.068L322.6,316.2l8.151,3.278-.842,5.234A21.662,21.662,0,0,1,334,328.72l5.223-.95,3.442,8.1-4.3,3.109a21.322,21.322,0,0,1,.062,5.726l4.369,3.018-3.278,8.145-5.234-.842a21.661,21.661,0,0,1-4.008,4.092l.95,5.223-8.077,3.448-3.109-4.3a21.558,21.558,0,0,1-5.726.062l-3.013,4.364-8.151-3.273.842-5.24a21.481,21.481,0,0,1-4.092-4.008l-5.223.955-3.448-8.077,4.3-3.114a21.514,21.514,0,0,1-.062-5.72l-4.364-3,3.273-8.151,5.24.842Zm8.739,9.078a7.245,7.245,0,1,1,0,.011Z" transform="translate(-215.448 -240.622)" fill="#f5f5f5" fill-rule="evenodd"/>
        <path id="Path_22808" data-name="Path 22808" d="M230.357,352.788a12.035,12.035,0,0,1,2.216-2.261l-.526-2.888,4.465-1.9,1.7,2.38a11.627,11.627,0,0,1,3.165-.034l1.667-2.419,4.522,1.814-.475,2.9a11.834,11.834,0,0,1,2.261,2.216l2.888-.526,1.911,4.465-2.38,1.724a12.1,12.1,0,0,1,.034,3.165l2.414,1.7-1.814,4.522-2.894-.464a11.871,11.871,0,0,1-2.221,2.261l.531,2.888-4.46,1.86-1.7-2.38a11.672,11.672,0,0,1-3.171.034l-1.7,2.419-4.522-1.814.469-2.894a12.061,12.061,0,0,1-2.261-2.221l-2.888.531-1.9-4.482,2.38-1.7a11.9,11.9,0,0,1-.034-3.171l-2.414-1.667,1.809-4.522,2.9.469Zm4.833,5.019a2.789,2.789,0,1,0-.028,0Z" transform="translate(-186.98 -253.43)" fill="none"/>
        <path id="Path_22809" data-name="Path 22809" d="M242.138,364.564a3.884,3.884,0,0,1,.565-1.13,5.155,5.155,0,0,1,2.826-2.024,5.262,5.262,0,0,1,4.974,1.131,5.014,5.014,0,0,1,.995,1.176,5.115,5.115,0,0,1,.627,1.475,5.319,5.319,0,1,1-10.4.622,3.986,3.986,0,0,1,.379-1.232,12.236,12.236,0,0,0-.266,1.249,5.223,5.223,0,0,0,.723,3.307,5.091,5.091,0,1,0,7.772-6.41,5.177,5.177,0,0,0-2.391-1.21,5.087,5.087,0,0,0-2.346.073,5.2,5.2,0,0,0-2.826,1.888C242.324,364.14,242.172,364.581,242.138,364.564Z" transform="translate(-193.957 -260.186)" fill="#263238"/>
        <path id="Path_22810" data-name="Path 22810" d="M230.278,352.7H230.1l-.565-.073-2.171-.322.051-.034-1.786,4.522-.028-.09,2.425,1.656.04.034v.051a12.005,12.005,0,0,0,.045,3.143v.057l-.051.04-2.374,1.724.034-.124,1.922,4.46-.13-.068,2.888-.531h.073l.045.062a11.768,11.768,0,0,0,2.261,2.187l.068.045v.079c-.141.9-.3,1.888-.458,2.9l-.085-.147,4.522,1.809-.164.051,1.667-2.419.045-.068h.085a11.906,11.906,0,0,0,3.131-.04h.085l.051.068,1.724,2.38-.175-.045,4.471-1.91-.09.164c-.17-.916-.345-1.9-.526-2.888v-.09l.068-.057a11.717,11.717,0,0,0,2.188-2.233h0l.057-.073h.09l2.9.469-.164.09q.916-2.261,1.814-4.522l.051.175-2.414-1.7-.073-.051V361.3a11.869,11.869,0,0,0-.034-3.131v-.085l.073-.051,2.38-1.7-.051.17-1.9-4.471.153.085-2.894.52h-.079l-.051-.068a11.872,11.872,0,0,0-2.261-2.193l-.062-.045v-.079c.164-.995.317-1.956.469-2.9l.079.136-4.522-1.82.136-.04-1.7,2.408-.04.056h-.062a11.873,11.873,0,0,0-3.143,0h-.057l-.034-.045c-.622-.865-1.187-1.645-1.7-2.385l.1.028-4.482,1.916.04-.073c.2,1.13.373,2.1.509,2.894v.028h0a12.871,12.871,0,0,0-1.735,1.628l-.379.452-.13.147a1.13,1.13,0,0,1,.107-.164c.079-.107.2-.266.362-.469a11.648,11.648,0,0,1,1.7-1.667v.045c-.153-.786-.328-1.735-.565-2.888v-.051h.051l4.46-1.927h.068l.04.057,1.73,2.374-.1-.04a11.992,11.992,0,0,1,3.194-.045l-.1.045c.526-.769,1.074-1.571,1.662-2.419l.051-.073.085.034,4.522,1.8.1.034v.1c-.153.944-.305,1.9-.464,2.9l-.051-.124a12.273,12.273,0,0,1,2.295,2.261l-.13-.045,2.888-.531h.107l.045.1q.921,2.182,1.911,4.465l.045.107-.1.068-2.374,1.7.057-.136a11.922,11.922,0,0,1,.034,3.2l-.062-.136,2.419,1.668.1.068-.045.107-1.809,4.522-.045.107h-.119l-2.9-.464.147-.062h0a12.329,12.329,0,0,1-2.261,2.289l.051-.147c.181.995.362,1.978.531,2.888v.119l-.113-.023-4.471,1.9-.107.045-.068-.09-1.7-2.385.136.062a12.2,12.2,0,0,1-3.2.028l.136-.056-1.7,2.414-.062.09-.1-.04-4.522-1.82-.1-.04v-.107c.164-1.006.328-2,.469-2.894l.051.124a12.13,12.13,0,0,1-2.261-2.261l.119.045-2.888.52h-.09l-.04-.085q-1-2.357-1.894-4.477l-.034-.073.068-.051,2.385-1.7-.04.1a12.118,12.118,0,0,1-.028-3.194l.04.085-2.408-1.7-.051-.034v-.056c.752-1.831,1.368-3.346,1.837-4.522v-.034h.034l2.148.367.565.1Z" transform="translate(-186.902 -253.343)" fill="#263238"/>
        <path id="Path_22811" data-name="Path 22811" d="M207.964,232.689a29.431,29.431,0,0,1,3.719-6.981l-3.318-6.529,9.321-7.733,5.805,4.465a29.524,29.524,0,0,1,7.54-2.334l2.261-6.958,12.057,1.13.95,7.258a29.732,29.732,0,0,1,6.964,3.7l6.528-3.312,7.727,9.321-4.46,5.8a29.863,29.863,0,0,1,2.323,7.529l6.952,2.261-1.13,12.057-7.258.944a29.512,29.512,0,0,1-3.651,6.992l3.312,6.529-9.321,7.732-5.805-4.46a29.508,29.508,0,0,1-7.552,2.306l-2.261,6.958-12.057-1.13-.95-7.252a29.747,29.747,0,0,1-6.992-3.663l-6.523,3.312-7.733-9.321,4.443-5.8a29.89,29.89,0,0,1-2.334-7.54l-6.952-2.261,1.13-12.057,7.252-.95Zm15.12,8.558a13,13,0,1,0,14.131-11.729A13,13,0,0,0,223.084,241.247Z" transform="translate(-175.655 -192.981)" fill="#e0e0e0" fill-rule="evenodd"/>
        <path id="Path_22812" data-name="Path 22812" d="M404.4,432.256c0,.079-51.635.141-115.309.141s-115.309-.062-115.309-.141,51.623-.136,115.309-.136S404.4,432.182,404.4,432.256Z" transform="translate(-164.442 -291.019)" fill="#263238"/>
      </g>
      <g id="freepik--Character--inject-4" transform="translate(183.152 89.587)">
        <path id="Path_22813" data-name="Path 22813" d="M345.438,125.79c-3.555,1.56-5.624,5.4-6.4,9.2s-.526,7.738-.859,11.61-1.4,7.913-4.222,10.576c-2.634,2.487-6.506,3.5-8.75,6.342a7.97,7.97,0,0,0,4.522,12.724c-1.775,2.826-.887,6.732,1.385,9.157s5.6,3.584,8.886,4.081a24.128,24.128,0,0,0,16.816-3.307,18.04,18.04,0,0,0,8.281-14.64" transform="translate(-284.285 -117.416)" fill="#263238"/>
        <path id="Path_22814" data-name="Path 22814" d="M334.3,204.4a4.524,4.524,0,0,1-.627-1.26,7.586,7.586,0,0,1-.226-3.81,10.74,10.74,0,0,1,.814-2.538,14.5,14.5,0,0,1,1.634-2.577,47.763,47.763,0,0,1,4.889-4.946,50.912,50.912,0,0,0,4.754-5.031,23.526,23.526,0,0,0,3.047-4.742,16.581,16.581,0,0,0,1.232-3.589c.107-.435.136-.786.187-1.017a1.515,1.515,0,0,1,.079-.356,1.739,1.739,0,0,1,0,.362c-.034.237-.045.594-.136,1.034a15.215,15.215,0,0,1-1.164,3.651,22.767,22.767,0,0,1-3.018,4.816,48.839,48.839,0,0,1-4.759,5.087,48.607,48.607,0,0,0-4.884,4.906A13.71,13.71,0,0,0,334.5,196.9a10.256,10.256,0,0,0-.831,2.47,7.681,7.681,0,0,0,.136,3.748A11.641,11.641,0,0,0,334.3,204.4Z" transform="translate(-288.552 -138.606)" fill="#455a64"/>
        <path id="Path_22815" data-name="Path 22815" d="M423.854,148.38c0,5.223,2.408,10.01,4.573,11.774,3.069,2.487,7.569,3.691,10.53,4.522a11.741,11.741,0,0,1,8.479,9.44c.565,4.454-2.374,9.208-6.715,10.327,2.73,2.787,1.916,7.58-.328,10.74-4.256,6.042-12.752,8.366-19.783,6.127s-12.435-8.479-14.549-15.561" transform="translate(-320.183 -127.237)" fill="#263238"/>
        <path id="Path_22816" data-name="Path 22816" d="M445.984,211.1a4.561,4.561,0,0,0,1.662-.729,4.8,4.8,0,0,0,1.391-1.594,5.879,5.879,0,0,0,.746-2.691,6.625,6.625,0,0,0-.876-3.256,10.582,10.582,0,0,0-2.538-2.979c-2.142-1.8-5.053-2.928-7.868-4.522a15.464,15.464,0,0,1-3.731-2.934,8.674,8.674,0,0,1-1.306-1.865,8.351,8.351,0,0,1-.735-2.052,14.024,14.024,0,0,1-.181-4c.1-1.249.254-2.4.362-3.454a15.365,15.365,0,0,0-.079-4.974c-.073-.283-.141-.531-.2-.757s-.153-.39-.2-.537a4.119,4.119,0,0,1-.164-.447,2.352,2.352,0,0,1,.215.424c.062.147.158.317.232.531l.232.763a14.737,14.737,0,0,1,.17,5.019c-.1,1.057-.243,2.21-.328,3.448a13.913,13.913,0,0,0,.2,3.957,8.078,8.078,0,0,0,1.99,3.787,15.26,15.26,0,0,0,3.668,2.877c2.787,1.6,5.715,2.741,7.913,4.59a10.7,10.7,0,0,1,2.578,3.064,6.737,6.737,0,0,1,.871,3.391,5.919,5.919,0,0,1-.808,2.764,4.934,4.934,0,0,1-1.464,1.605,4.144,4.144,0,0,1-1.249.565A2.5,2.5,0,0,1,445.984,211.1Z" transform="translate(-331.574 -138.511)" fill="#455a64"/>
        <path id="Path_22817" data-name="Path 22817" d="M456.957,187.876a2.753,2.753,0,0,0,.531-1.453,3.556,3.556,0,0,0-.407-1.764,4.443,4.443,0,0,0-1.6-1.769,7.834,7.834,0,0,0-2.787-.933c-1.051-.187-2.2-.254-3.391-.441a18.178,18.178,0,0,1-7.309-2.888,17.935,17.935,0,0,1-5.4-5.715,18.151,18.151,0,0,1-2.216-6.037,16.983,16.983,0,0,1-.232-4.335,11.534,11.534,0,0,1,.136-1.17,1.694,1.694,0,0,1,.079-.4c.028,0-.068.565-.107,1.583a18.6,18.6,0,0,0,2.561,10.231,17.963,17.963,0,0,0,5.336,5.613,18.286,18.286,0,0,0,7.2,2.866c1.187.192,2.34.271,3.391.463a7.817,7.817,0,0,1,2.826,1,4.488,4.488,0,0,1,1.639,1.865,3.59,3.59,0,0,1,.373,1.837,2.55,2.55,0,0,1-.373,1.13c-.073.107-.147.187-.192.243Z" transform="translate(-332.372 -132.711)" fill="#455a64"/>
        <path id="Path_22818" data-name="Path 22818" d="M359.6,199.083c.746-7.806,1.385-16.036,1.385-16.036s-9.886-2.657-10.677-15.979c-.757-12.7,4.143-41.381,4.143-41.381h0a37.863,37.863,0,0,1,40.98,13.73h0l-7.088,63.307c-.82,7.348-7.795,12.492-15.657,11.548h0C364.751,213.315,358.895,206.521,359.6,199.083Z" transform="translate(-295.91 -116.707)" fill="#b78876"/>
        <path id="Path_22819" data-name="Path 22819" d="M360.353,166.365a1.7,1.7,0,0,0,1.453,1.854,1.611,1.611,0,0,0,1.882-1.345,1.7,1.7,0,0,0-1.453-1.854,1.611,1.611,0,0,0-1.882,1.345Z" transform="translate(-300.307 -134.46)" fill="#263238"/>
        <path id="Path_22820" data-name="Path 22820" d="M355.845,162.478c.187.243,1.554-.565,3.363-.4s3.047,1.221,3.267,1.017c.107-.09-.068-.5-.6-.984a4.64,4.64,0,0,0-2.589-1.085,4.522,4.522,0,0,0-2.7.565C355.981,161.992,355.755,162.371,355.845,162.478Z" transform="translate(-298.343 -132.727)" fill="#263238"/>
        <path id="Path_22821" data-name="Path 22821" d="M393.073,170.155a1.7,1.7,0,0,0,1.458,1.854,1.611,1.611,0,0,0,1.882-1.345,1.7,1.7,0,0,0-1.453-1.854,1.617,1.617,0,0,0-1.888,1.345Z" transform="translate(-314.533 -136.108)" fill="#263238"/>
        <path id="Path_22822" data-name="Path 22822" d="M389.145,166.928c.187.243,1.554-.565,3.363-.39s3.047,1.215,3.267,1.012c.1-.085-.068-.5-.6-.984a4.658,4.658,0,0,0-2.589-1.085,4.522,4.522,0,0,0-2.7.565C389.281,166.442,389.055,166.821,389.145,166.928Z" transform="translate(-312.821 -134.662)" fill="#263238"/>
        <path id="Path_22823" data-name="Path 22823" d="M371.738,179.117a12.4,12.4,0,0,0-2.888-.82c-.458-.1-.882-.232-.933-.565a2.391,2.391,0,0,1,.447-1.34l1.7-3.391c2.391-4.822,4.171-8.806,3.957-8.9s-2.289,3.742-4.68,8.563c-.565,1.193-1.13,2.323-1.662,3.391a2.708,2.708,0,0,0-.418,1.786,1.13,1.13,0,0,0,.7.752,3.11,3.11,0,0,0,.774.187A11.227,11.227,0,0,0,371.738,179.117Z" transform="translate(-303.305 -134.07)" fill="#263238"/>
        <path id="Path_22824" data-name="Path 22824" d="M369.147,226.066a33.479,33.479,0,0,0,18.026-2.956S382,231.7,369,229.181Z" transform="translate(-304.071 -159.727)" fill="#aa6550"/>
        <path id="Path_22825" data-name="Path 22825" d="M375.627,197.751a3.278,3.278,0,0,1,3.041-.927,3.029,3.029,0,0,1,1.95,1.306,1.9,1.9,0,0,1-.073,2.176,2.187,2.187,0,0,1-2.43.362,6.844,6.844,0,0,1-2.176-1.605,2.012,2.012,0,0,1-.464-.565.6.6,0,0,1,.068-.673" transform="translate(-306.854 -148.267)" fill="#aa6550"/>
        <path id="Path_22826" data-name="Path 22826" d="M379.608,193.809c-.294-.045-.492,1.916-2.312,3.148s-3.889.808-3.928,1.08c-.04.119.43.43,1.311.565a4.9,4.9,0,0,0,3.267-.791,4.251,4.251,0,0,0,1.809-2.651C379.942,194.318,379.744,193.809,379.608,193.809Z" transform="translate(-305.969 -146.988)" fill="#263238"/>
        <path id="Path_22827" data-name="Path 22827" d="M417.869,175.872a7.84,7.84,0,0,1,4.194.684,5.471,5.471,0,0,1,2.826,3.109,5.72,5.72,0,0,1-.373,4.194,9.739,9.739,0,0,1-2.736,3.3,6.568,6.568,0,0,1-2.713,1.436,3.12,3.12,0,0,1-2.877-.74" transform="translate(-324.587 -139.168)" fill="#b78876"/>
        <path id="Path_22828" data-name="Path 22828" d="M419.028,186.028c-.164.034.362.944,1.7.724a2.775,2.775,0,0,0,1.7-1.227,6.3,6.3,0,0,0,.933-2.261,3.742,3.742,0,0,0-.35-2.527,2.481,2.481,0,0,0-1.735-1.272c-1.317-.158-1.82.718-1.7.757a2.516,2.516,0,0,1,1.5,0,2.368,2.368,0,0,1,1.2,2.826c-.317,1.374-.984,2.691-1.786,2.945S419.129,185.92,419.028,186.028Z" transform="translate(-325.808 -140.744)" fill="#aa6550"/>
        <path id="Path_22829" data-name="Path 22829" d="M360.384,127.446a16.064,16.064,0,0,1-10.824,9.117,39.171,39.171,0,0,1,.062-9.728,15.352,15.352,0,0,1,4.172-8.626,9.681,9.681,0,0,1,8.948-2.634" transform="translate(-295.5 -112.86)" fill="#263238"/>
        <path id="Path_22830" data-name="Path 22830" d="M369.819,119.615a12.9,12.9,0,0,0,13.334,17.59,5.532,5.532,0,0,1,2.566.051,4.711,4.711,0,0,1,1.944,1.911c2.091,3.126,4.3,6.376,7.6,8.185s8.009,1.628,10.214-1.419a11.3,11.3,0,0,0,1.634-5.172c.837-6.088,1.181-12.627-1.724-18.042a20.587,20.587,0,0,0-10.129-8.835,39.763,39.763,0,0,0-13.34-2.826,17.758,17.758,0,0,0-7.845.837c-2.459,1.006-4.578,3.233-4.72,5.884" transform="translate(-304.031 -110.975)" fill="#263238"/>
        <path id="Path_22831" data-name="Path 22831" d="M408.888,144.633a3.336,3.336,0,0,1-.158-.447c-.09-.294-.243-.729-.441-1.277a23.893,23.893,0,0,0-2.233-4.448,23.278,23.278,0,0,0-4.9-5.466,31.778,31.778,0,0,0-7.851-4.42c-2.962-1.244-5.862-2.261-8.4-3.454a29.349,29.349,0,0,1-6.336-3.872,16.5,16.5,0,0,1-3.358-3.7,10.737,10.737,0,0,1-.673-1.187,2.26,2.26,0,0,1-.2-.43,4.025,4.025,0,0,1,.249.407,13.133,13.133,0,0,0,.712,1.13,17.111,17.111,0,0,0,3.391,3.612,29.472,29.472,0,0,0,6.314,3.787c2.527,1.17,5.426,2.187,8.4,3.431a31.845,31.845,0,0,1,7.913,4.477,22.99,22.99,0,0,1,4.906,5.568,22.7,22.7,0,0,1,2.165,4.522c.186.565.322,1,.39,1.306A2.825,2.825,0,0,1,408.888,144.633Z" transform="translate(-306.392 -113.129)" fill="#455a64"/>
        <path id="Path_22832" data-name="Path 22832" d="M404.812,144.167a2.147,2.147,0,0,1-.22-.373c-.147-.243-.362-.6-.678-1.04a13.848,13.848,0,0,0-3.25-3.137,31.978,31.978,0,0,0-5.969-3.137c-1.17-.5-2.408-1.023-3.663-1.622s-2.538-1.266-3.8-2.024a33.06,33.06,0,0,1-6.579-5.087,25.4,25.4,0,0,1-4.115-5.4,21.3,21.3,0,0,1-1.809-4.205c-.147-.52-.254-.927-.305-1.2a2.272,2.272,0,0,1-.079-.43,2.167,2.167,0,0,1,.13.413c.073.277.2.673.362,1.187a22.542,22.542,0,0,0,1.877,4.138,25.78,25.78,0,0,0,4.121,5.319,33.756,33.756,0,0,0,6.546,5.048c1.255.752,2.527,1.419,3.776,2.024s2.476,1.13,3.646,1.628a30.76,30.76,0,0,1,5.98,3.211A13.311,13.311,0,0,1,404,142.715a9.127,9.127,0,0,1,.633,1.074,2.818,2.818,0,0,1,.175.379Z" transform="translate(-306.392 -113.382)" fill="#455a64"/>
        <path id="Path_22833" data-name="Path 22833" d="M349.068,141.834a1.98,1.98,0,0,1-.124-.305c-.074-.2-.187-.5-.311-.887a15.289,15.289,0,0,1-.565-3.391,16.313,16.313,0,0,1,3.391-10.706,14.723,14.723,0,0,1,2.261-2.351c.82-.667,1.662-1.232,2.464-1.764a25.932,25.932,0,0,0,4.081-3.035,9.044,9.044,0,0,0,2-2.747c.328-.74.4-1.193.43-1.187a1.179,1.179,0,0,1-.051.328,6.314,6.314,0,0,1-.277.9,8.812,8.812,0,0,1-1.961,2.826,25,25,0,0,1-4.075,3.109,29.958,29.958,0,0,0-2.436,1.764,14.883,14.883,0,0,0-2.227,2.306,16.1,16.1,0,0,0-2.781,5.511,16.307,16.307,0,0,0-.627,5.019,17.066,17.066,0,0,0,.475,3.391q.153.565.254.9A1.342,1.342,0,0,1,349.068,141.834Z" transform="translate(-294.963 -112.925)" fill="#455a64"/>
        <path id="Path_22834" data-name="Path 22834" d="M400.7,195.4a12.622,12.622,0,0,1-8.4-3.081l.362-.4a11.9,11.9,0,0,0,19.043-13.21l.5-.2a12.882,12.882,0,0,1-4.488,14.781,12.35,12.35,0,0,1-7.02,2.108Z" transform="translate(-314.201 -140.337)" fill="#0091ff"/>
        <circle id="Ellipse_125" data-name="Ellipse 125" cx="2.606" cy="2.606" r="2.606" transform="translate(76.918 50.157)" fill="#0091ff"/>
        <circle id="Ellipse_126" data-name="Ellipse 126" cx="8.722" cy="8.722" r="8.722" transform="translate(89.519 46.743) rotate(-80.83)" fill="#0091ff"/>
        <path id="Path_22835" data-name="Path 22835" d="M403.959,151.276a10.65,10.65,0,0,1,.045-2.21l.1-2.583c0-1.006.045-2.154,0-3.42,0-.633-.045-1.294-.079-1.978s-.107-1.4-.175-2.142-.2-1.492-.294-2.261c-.073-.384-.147-.78-.22-1.176s-.153-.8-.26-1.2a23.056,23.056,0,0,0-4.567-9.609,21.253,21.253,0,0,0-8.693-6.093,38.313,38.313,0,0,0-8.558-2.148c-2.51-.35-4.561-.458-5.975-.565a10.859,10.859,0,0,1-2.2-.181,11.114,11.114,0,0,1,2.21-.141,53.647,53.647,0,0,1,6.042.288,36.255,36.255,0,0,1,8.767,2.024,21.513,21.513,0,0,1,9.044,6.274,23.322,23.322,0,0,1,4.675,9.982c.1.413.181.825.249,1.238s.136.808.2,1.2c.09.8.215,1.571.26,2.323s.119,1.481.124,2.176.045,1.368,0,2.007c0,1.283-.074,2.436-.13,3.448s-.158,1.877-.243,2.589A11.337,11.337,0,0,1,403.959,151.276Z" transform="translate(-305.845 -112.967)" fill="#0091ff"/>
        <g id="Group_907" data-name="Group 907" transform="translate(91.909 31.687)" opacity="0.4">
          <circle id="Ellipse_127" data-name="Ellipse 127" cx="6.003" cy="6.003" r="6.003" transform="translate(0 4.625) rotate(-22.66)"/>
        </g>
        <path id="Path_22836" data-name="Path 22836" d="M425.211,170.652a1.317,1.317,0,0,1,.271-.136,4.054,4.054,0,0,1,.831-.249,4.759,4.759,0,0,1,3.114.531,4.228,4.228,0,0,1,1.6,1.537,4.662,4.662,0,0,1,.639,2.459,4.522,4.522,0,0,1-6.421,4.019,4.42,4.42,0,0,1-2-1.973,4.579,4.579,0,0,1-.514-2.493,4.732,4.732,0,0,1,.741-2.091,4.341,4.341,0,0,1,2.487-1.933,2.855,2.855,0,0,1,.865-.1,1.278,1.278,0,0,1,.3.045,4.19,4.19,0,0,0-1.13.158,4.347,4.347,0,0,0-2.346,1.939,4.245,4.245,0,0,0-.17,4.358,4.2,4.2,0,0,0,1.888,1.843,4.4,4.4,0,0,0,5.206-1.266,4.341,4.341,0,0,0,.848-2.51,4.425,4.425,0,0,0-.565-2.334,4,4,0,0,0-1.5-1.481,4.72,4.72,0,0,0-3-.6A9.327,9.327,0,0,0,425.211,170.652Z" transform="translate(-327.424 -136.723)" fill="#263238"/>
        <path id="Path_22837" data-name="Path 22837" d="M430.3,189.169a2.985,2.985,0,0,1-.271-1.419,3.035,3.035,0,0,1,.153-1.43,5.048,5.048,0,0,1,.124,1.419,4.95,4.95,0,0,1-.006,1.43Z" transform="translate(-330.592 -143.732)" fill="#263238"/>
        <path id="Path_22838" data-name="Path 22838" d="M435.634,187.352a6.676,6.676,0,0,1-.983-2.532,6.676,6.676,0,0,1,.983,2.532Z" transform="translate(-332.613 -143.08)" fill="#263238"/>
        <path id="Path_22839" data-name="Path 22839" d="M439.066,183.522c-.051.057-.464-.232-.921-.644s-.78-.8-.729-.854.464.232.921.644S439.117,183.466,439.066,183.522Z" transform="translate(-333.813 -141.861)" fill="#263238"/>
        <path id="Path_22840" data-name="Path 22840" d="M439.67,177.858c-.028.073-.322.034-.667-.09s-.6-.283-.565-.356.322-.034.667.09S439.7,177.785,439.67,177.858Z" transform="translate(-334.258 -139.843)" fill="#263238"/>
        <path id="Path_22841" data-name="Path 22841" d="M423.6,187.039a4.646,4.646,0,0,1,1.306-2.549,5.617,5.617,0,0,1-.6,1.3A5.768,5.768,0,0,1,423.6,187.039Z" transform="translate(-327.809 -142.936)" fill="#263238"/>
        <path id="Path_22842" data-name="Path 22842" d="M420.425,182.265c-.057-.057.288-.48.763-.944s.9-.8.961-.746-.288.48-.763.944S420.482,182.322,420.425,182.265Z" transform="translate(-326.426 -141.232)" fill="#263238"/>
        <path id="Path_22843" data-name="Path 22843" d="M422,176.162c0,.073-.226.2-.565.288s-.6.1-.616,0,.22-.209.565-.294S421.978,176.088,422,176.162Z" transform="translate(-326.599 -139.289)" fill="#263238"/>
        <path id="Path_22844" data-name="Path 22844" d="M495.274,236.142a10.384,10.384,0,0,0-2.747-5.839,15.777,15.777,0,0,0-2.764-2.374,16.9,16.9,0,0,0-4.092-1.973c-1.362-.294-1.7-2.063-.565-2.572s4.918.22,8.552,2.888,1.792-4.092,1.17-6.568-2.165-10.22-1.6-11c.9-1.13,2.318-.362,2.888,2.125s2.792,9.835,4.087,9.473-2.074-12.921-2.074-12.921-1.13-2.578.333-3.041c2.679-.842,5.257,12.757,5.472,14.058.147.9,1.571.565,1.362-.4s-3.64-12.464-.921-13.345c2.086-.673,2.227,11.169,4.262,13.193s-1.029-8.993.995-9.558c.752-.209,1.345-.26,2.187,6.3.458,3.521.164,8.377,1.537,15.1" transform="translate(-354.252 -151.551)" fill="#b78876"/>
        <path id="Path_22845" data-name="Path 22845" d="M476.518,278.456l12.356,17.732-5.929-45.728,17.664-6.969s22.293,85.464-7.6,86.663c0,0-20.693-.565-36.136-36.379Z" transform="translate(-342.273 -168.587)" fill="#b78876"/>
        <path id="Path_22846" data-name="Path 22846" d="M519.725,242.9c.034.045-.384.322-.933.933a6.286,6.286,0,0,0-1.447,2.826l-.068.333-.243-.249a7.914,7.914,0,0,0-.916-.8,7.834,7.834,0,0,0-3.753-1.458c-1.046-.113-1.7,0-1.7-.062a3.77,3.77,0,0,1,1.73-.2,7.207,7.207,0,0,1,4.918,2.261l-.317.085a5.89,5.89,0,0,1,1.639-2.939A2.782,2.782,0,0,1,519.725,242.9Z" transform="translate(-365.663 -168.331)" fill="#aa6550"/>
        <path id="Path_22847" data-name="Path 22847" d="M379.5,317.233,364.55,298.269l-3.889,19.4a40.194,40.194,0,0,0,2.329,23.4l1.927,4.618H295.687l1.73-6.167c.978-7.552-.328-15.431-.1-26.25l-1.922-12.192-10.474,44.609H254.13s16.884-69.236,27.488-82.938c13.345-17.268,36.667-14.99,36.667-14.99l14.284,22.395,13.956-20.2s23.977-5.087,42.7,27.132l10.016,17.166h0l-4.652-35.344,21.694-5s7.829,34.723,7.314,53.319c-.458,16.607-7.529,25.317-17.325,26.176C390.845,334.75,379.5,317.233,379.5,317.233Z" transform="translate(-254.13 -170.398)" fill="#0091ff"/>
        <path id="Path_22848" data-name="Path 22848" d="M363.443,245.682l.243-2.792s10.581,2.351,14.131,20.829c0,0,3.561-17.053,14.956-18.766l1.922,4.912-7,18.218-12.288,3.595-11.961-3.595L358,257.281Z" transform="translate(-299.288 -168.326)" fill="#0091ff"/>
        <path id="Path_22849" data-name="Path 22849" d="M315.449,260.83a2.929,2.929,0,0,1,.057.475c0,.339.057.8.1,1.379.073,1.193.2,2.917.367,5.053.345,4.262.927,10.146,1.848,16.607s2.018,12.277,2.883,16.465c.435,2.1.8,3.787,1.063,4.957.119.565.215,1.017.288,1.345a2.731,2.731,0,0,1,.079.475,3.193,3.193,0,0,1-.136-.458q-.13-.492-.339-1.34c-.294-1.159-.69-2.826-1.13-4.935-.916-4.183-2.035-10-2.968-16.471s-1.475-12.362-1.764-16.635c-.147-2.137-.243-3.866-.288-5.059,0-.565-.034-1.04-.045-1.379S315.443,260.83,315.449,260.83Z" transform="translate(-280.788 -176.126)" fill="#263238"/>
        <path id="Path_22850" data-name="Path 22850" d="M409.622,250.56a1.463,1.463,0,0,1-.153.266l-.475.735-1.764,2.691c-1.481,2.261-3.476,5.455-5.556,9.044-.079.141-.164.277-.237.413l-.136.232-.113-.243a8.341,8.341,0,0,0-1.52-2.448,2.764,2.764,0,0,0-2.357-.882,3.239,3.239,0,0,0-1.944,1.277,6.008,6.008,0,0,0-.972,1.86c-.4,1.243-.627,2.289-.927,2.967a6.176,6.176,0,0,1-.367.763q-.153.249-.17.237a8.614,8.614,0,0,0,.441-1.04c.249-.684.458-1.7.842-2.985a5.976,5.976,0,0,1,.972-1.944,3.391,3.391,0,0,1,2.086-1.385,2.99,2.99,0,0,1,2.583.938,8.366,8.366,0,0,1,1.588,2.521h-.249l.237-.413c2.08-3.595,4.109-6.783,5.652-9.01.763-1.13,1.4-2.029,1.837-2.645.215-.283.384-.52.52-.707A1.444,1.444,0,0,1,409.622,250.56Z" transform="translate(-314.475 -171.661)" fill="#263238"/>
        <path id="Path_22851" data-name="Path 22851" d="M394.052,267.966a1.589,1.589,0,0,1-.113.237l-.373.656-1.419,2.385-2.137,3.51-1.272,2.074c-.226.356-.452.724-.684,1.1a1.007,1.007,0,0,1-.266.271.5.5,0,0,1-.43.057,1.074,1.074,0,0,1-.565-.514c-1.984-2.984-3.465-5.873-4.624-7.913-.565-1.023-1.046-1.843-1.374-2.408a7.6,7.6,0,0,1-.5-.887,1.575,1.575,0,0,1,.164.209c.1.141.249.345.424.622.362.565.859,1.357,1.453,2.368,1.2,2.007,2.713,4.878,4.691,7.846.119.192.232.356.384.4s.271-.057.39-.22l.678-1.085,1.283-2.063,2.188-3.482,1.492-2.334c.17-.249.305-.458.424-.627A1.057,1.057,0,0,1,394.052,267.966Z" transform="translate(-308.984 -178.604)" fill="#263238"/>
        <path id="Path_22852" data-name="Path 22852" d="M462.616,272a2.966,2.966,0,0,1-.164.367q-.187.39-.509,1.034c-.452.893-1.085,2.193-1.843,3.81s-1.617,3.567-2.521,5.749-1.826,4.612-2.719,7.19-1.639,5.087-2.261,7.348-1.13,4.341-1.543,6.082-.7,3.16-.893,4.138c-.1.469-.175.842-.232,1.13a2.044,2.044,0,0,1-.1.39,1.9,1.9,0,0,1,.045-.4c.045-.288.107-.667.181-1.13.158-.989.435-2.414.808-4.166s.871-3.821,1.487-6.11,1.385-4.771,2.261-7.348,1.837-5.008,2.741-7.2,1.8-4.126,2.589-5.737,1.441-2.9,1.922-3.776l.565-1.006a1.907,1.907,0,0,1,.187-.367Z" transform="translate(-339.212 -180.982)" fill="#263238"/>
        <path id="Path_22853" data-name="Path 22853" d="M385.278,386.993a4.049,4.049,0,0,1-.43,0l-1.238-.1c-.565-.045-1.193-.1-1.95-.2s-1.628-.181-2.577-.328c-1.911-.26-4.172-.656-6.664-1.17s-5.211-1.2-8.032-2.035-5.46-1.775-7.84-2.685-4.477-1.837-6.218-2.662c-.882-.4-1.656-.8-2.34-1.13s-1.272-.644-1.741-.9l-1.091-.593a2.823,2.823,0,0,1-.367-.22,2.192,2.192,0,0,1,.4.17l1.13.565c.48.243,1.068.565,1.758.859s1.47.712,2.351,1.091c1.752.8,3.861,1.7,6.218,2.6s5.014,1.814,7.823,2.657,5.528,1.5,8,2.052,4.737.944,6.642,1.227c.944.164,1.809.266,2.566.367s1.407.186,1.944.243l1.232.153A2.441,2.441,0,0,1,385.278,386.993Z" transform="translate(-293.545 -225.749)" fill="#263238"/>
        <path id="Path_22854" data-name="Path 22854" d="M388.906,398.379a1.233,1.233,0,0,1-.288.074l-.825.158c-.718.13-1.764.294-3.058.475a102.782,102.782,0,0,1-20.349.707c-1.306-.09-2.357-.181-3.081-.266l-.837-.1a1.939,1.939,0,0,1-.288-.051,1.065,1.065,0,0,1,.294,0l.837.045c.729.051,1.781.113,3.086.175,2.6.124,6.218.209,10.174.073s7.563-.475,10.174-.78c1.294-.153,2.34-.288,3.064-.384l.837-.107A.972.972,0,0,1,388.906,398.379Z" transform="translate(-300.236 -235.926)" fill="#263238"/>
        <path id="Path_22855" data-name="Path 22855" d="M454.35,313.438a2.026,2.026,0,0,1,.079-.407l.288-1.13,1.074-4.234c.91-3.572,2.114-8.518,3.6-13.945.746-2.713,1.509-5.285,2.261-7.608s1.475-4.392,2.142-6.11c.317-.87.644-1.639.916-2.318s.526-1.255.74-1.724l.492-1.08a2.446,2.446,0,0,1,.192-.373,2.6,2.6,0,0,1-.141.4c-.107.271-.254.639-.441,1.1s-.435,1.063-.7,1.747-.565,1.453-.876,2.323c-.644,1.724-1.345,3.8-2.08,6.122s-1.487,4.895-2.233,7.6c-1.481,5.421-2.713,10.361-3.674,13.922-.475,1.781-.87,3.222-1.159,4.211l-.339,1.13A1.846,1.846,0,0,1,454.35,313.438Z" transform="translate(-341.177 -182.073)" fill="#263238"/>
        <path id="Path_22856" data-name="Path 22856" d="M319.14,309.05a3.4,3.4,0,0,1-.294-.339c-.181-.237-.469-.565-.786-1.023a29.47,29.47,0,0,1-2.47-4.058A39.305,39.305,0,0,1,313,297.073a57.905,57.905,0,0,1-1.8-8.439c-.825-6.071-.961-11.621-1.21-15.612-.113-2-.22-3.618-.3-4.737-.04-.537-.074-.967-.1-1.283a3.031,3.031,0,0,1,0-.452,2.627,2.627,0,0,1,.074.447c.034.288.09.724.147,1.283.119,1.13.254,2.73.39,4.725.3,4,.464,9.541,1.289,15.589A59.041,59.041,0,0,0,313.262,297a40.27,40.27,0,0,0,2.5,6.546,33.233,33.233,0,0,0,2.38,4.087c.305.469.565.8.746,1.051A2.32,2.32,0,0,1,319.14,309.05Z" transform="translate(-278.24 -178.613)" fill="#263238"/>
        <path id="Path_22857" data-name="Path 22857" d="M319.388,319.72c0,.085-.8.26-1.7.78s-1.43,1.13-1.492,1.074a3.957,3.957,0,0,1,3.165-1.854Z" transform="translate(-281.115 -201.729)" fill="#263238"/>
        <path id="Path_22858" data-name="Path 22858" d="M317.884,306.877a14.882,14.882,0,0,0-2.114.757,15.268,15.268,0,0,0-1.82,1.311,4.454,4.454,0,0,1,3.957-2.069Z" transform="translate(-280.137 -196.143)" fill="#263238"/>
        <path id="Path_22859" data-name="Path 22859" d="M315.67,295.122a14.887,14.887,0,0,0-1.7.565,15.183,15.183,0,0,0-1.464.989,3.193,3.193,0,0,1,3.137-1.554Z" transform="translate(-279.511 -191.025)" fill="#263238"/>
        <path id="Path_22860" data-name="Path 22860" d="M314.434,282.987c0,.079-.707.22-1.521.565s-1.413.769-1.464.707a2.826,2.826,0,0,1,1.351-.967A2.866,2.866,0,0,1,314.434,282.987Z" transform="translate(-279.05 -185.751)" fill="#263238"/>
        <path id="Path_22861" data-name="Path 22861" d="M313.666,273.208c0,.079-.712.215-1.526.6s-1.379.854-1.43.791a2.685,2.685,0,0,1,1.311-1.046A2.719,2.719,0,0,1,313.666,273.208Z" transform="translate(-278.729 -181.5)" fill="#263238"/>
        <path id="Path_22862" data-name="Path 22862" d="M455.055,327.517c-.068.051-.435-.447-1.13-.712a7.879,7.879,0,0,0-1.294-.266,1.515,1.515,0,0,1,1.4,0C454.817,326.855,455.128,327.494,455.055,327.517Z" transform="translate(-340.43 -204.619)" fill="#263238"/>
        <path id="Path_22863" data-name="Path 22863" d="M458.336,316.824a3.634,3.634,0,0,0-3-1.939c0-.034.209-.107.565-.1a2.742,2.742,0,0,1,1.334.435,2.7,2.7,0,0,1,.944,1.04C458.347,316.6,458.37,316.813,458.336,316.824Z" transform="translate(-341.608 -199.585)" fill="#263238"/>
        <path id="Path_22864" data-name="Path 22864" d="M461,306.269a3.81,3.81,0,0,0-3.154-1.249c0-.028.181-.13.52-.175a2.651,2.651,0,0,1,1.311.17,2.68,2.68,0,0,1,1.068.774C460.965,306.054,461.032,306.258,461,306.269Z" transform="translate(-342.699 -195.253)" fill="#263238"/>
        <path id="Path_22865" data-name="Path 22865" d="M464.951,295.784c-.073.04-.367-.52-1.023-.854a6.042,6.042,0,0,0-1.277-.362c0-.034.147-.1.413-.119a2.052,2.052,0,0,1,1.752.927C464.951,295.6,464.979,295.767,464.951,295.784Z" transform="translate(-344.786 -190.742)" fill="#263238"/>
        <path id="Path_22866" data-name="Path 22866" d="M468.547,286.005a3.851,3.851,0,0,0-1.13-.972,4.026,4.026,0,0,0-1.487-.249c0-.028.147-.136.447-.186a2.137,2.137,0,0,1,2.041.944C468.553,285.8,468.575,285.994,468.547,286.005Z" transform="translate(-346.212 -186.453)" fill="#263238"/>
        <path id="Path_22867" data-name="Path 22867" d="M395.331,273.22a1.164,1.164,0,0,1-.124.26l-.4.724c-.35.622-.87,1.521-1.526,2.623s-1.447,2.4-2.351,3.832c-.458.712-.938,1.458-1.458,2.221a24.616,24.616,0,0,1-1.7,2.3,2.5,2.5,0,0,1-.565.52.39.39,0,0,1-.249.051.8.8,0,0,1-.215-.068,2.3,2.3,0,0,1-.322-.22,8.092,8.092,0,0,1-.989-1.034c-.565-.712-1.13-1.436-1.6-2.125-.972-1.391-1.8-2.674-2.481-3.759s-1.215-1.967-1.577-2.589l-.407-.718a.91.91,0,0,1-.124-.26,1.7,1.7,0,0,1,.17.232l.452.69c.413.633.972,1.492,1.651,2.544s1.549,2.334,2.527,3.708c.492.69,1.017,1.4,1.6,2.1a8.382,8.382,0,0,0,.955.995c.17.136.384.283.492.2a2.4,2.4,0,0,0,.492-.452,25.864,25.864,0,0,0,1.7-2.261c.52-.757,1.006-1.5,1.464-2.21.916-1.419,1.724-2.707,2.4-3.8s1.2-1.927,1.6-2.572l.447-.7C395.263,273.293,395.32,273.214,395.331,273.22Z" transform="translate(-308.527 -181.512)" fill="#263238"/>
        <path id="Path_22868" data-name="Path 22868" d="M386.33,285.534c-.034,0-.1-.192-.073-.52a2.227,2.227,0,0,1,.475-1.164,2.2,2.2,0,0,1,1.023-.735c.311-.1.514-.079.52-.045a4.081,4.081,0,0,0-1.323.955A3.958,3.958,0,0,0,386.33,285.534Z" transform="translate(-311.571 -185.783)" fill="#263238"/>
        <path id="Path_22869" data-name="Path 22869" d="M392.791,291.9a9.873,9.873,0,0,1-.034-4.454,14.47,14.47,0,0,1,.04,2.227A14.742,14.742,0,0,1,392.791,291.9Z" transform="translate(-314.296 -187.699)" fill="#263238"/>
        <path id="Path_22870" data-name="Path 22870" d="M398.838,283.931a5.055,5.055,0,0,0-.842-1.085,5.511,5.511,0,0,0-1.215-.633c0-.034.17-.073.441-.028a2.063,2.063,0,0,1,.955.447,2.029,2.029,0,0,1,.61.859C398.877,283.767,398.871,283.92,398.838,283.931Z" transform="translate(-316.148 -185.401)" fill="#263238"/>
        <path id="Path_22871" data-name="Path 22871" d="M403.886,275.62a5.5,5.5,0,0,0-.7-1.17,5.773,5.773,0,0,0-1.131-.774c0-.034.175-.051.435,0a2.063,2.063,0,0,1,.887.565,2.013,2.013,0,0,1,.5.921C403.948,275.445,403.92,275.614,403.886,275.62Z" transform="translate(-318.444 -181.697)" fill="#263238"/>
        <path id="Path_22872" data-name="Path 22872" d="M381.315,277.464c-.034,0-.124-.209-.136-.565a2.9,2.9,0,0,1,.345-1.424,2.979,2.979,0,0,1,.989-1.085c.322-.2.565-.243.565-.215a3.889,3.889,0,0,0-1.769,3.312Z" transform="translate(-309.366 -181.924)" fill="#263238"/>
        <g id="Group_908" data-name="Group 908" transform="translate(64.008 77.309)" opacity="0.4">
          <path id="Path_22873" data-name="Path 22873" d="M367.37,247.749c1.21,4.646,3.233,12.215,5.421,18.133a1.927,1.927,0,0,0,.418.752,1.521,1.521,0,0,0,2.035-.356,13.7,13.7,0,0,0,1.193-1.826,2.357,2.357,0,0,1,1.735-1.181,2.024,2.024,0,0,1,1.537.769,8.8,8.8,0,0,1,.944,1.509,1.13,1.13,0,0,0,.667.639.4.4,0,0,0,.475-.565l-1.933-5.019s-.887-3.68-3.957-3.109c-3.437.639-1.877,6.291-1.877,6.291S367.319,247.551,367.37,247.749Z" transform="translate(-367.37 -247.747)"/>
        </g>
        <path id="Path_22874" data-name="Path 22874" d="M382,265.849a1.35,1.35,0,0,1-.164-.328c-.1-.22-.243-.565-.418-.967-.345-.882-.831-2.1-1.424-3.6-.153-.379-.317-.774-.492-1.181a3.7,3.7,0,0,0-.707-1.13,3.391,3.391,0,0,0-2.679-1,2.645,2.645,0,0,0-1.413.633,3.521,3.521,0,0,0-.763,1.464,4.144,4.144,0,0,0-.119,1.7,14.472,14.472,0,0,0,.322,1.8c.051.22.107.441.158.644l-.271.079c-.791-2.261-1.7-4.386-2.532-6.291s-1.6-3.623-2.2-5.087-1.04-2.645-1.306-3.482c-.141-.413-.226-.74-.288-.967a1.424,1.424,0,0,1-.079-.339,2.111,2.111,0,0,1,.13.322c.079.22.181.565.339.95.294.82.763,2,1.385,3.437s1.4,3.143,2.261,5.048,1.769,4.019,2.566,6.308l-.266.085c-.051-.209-.107-.43-.164-.65a14.7,14.7,0,0,1-.322-1.837,4.358,4.358,0,0,1,.136-1.831,3.788,3.788,0,0,1,.837-1.571,2.872,2.872,0,0,1,1.571-.7,3.589,3.589,0,0,1,2.877,1.1,4.02,4.02,0,0,1,.735,1.215c.175.413.328.814.48,1.193.565,1.509,1.012,2.741,1.34,3.635.153.407.271.735.367.983A2.051,2.051,0,0,1,382,265.849Z" transform="translate(-303.475 -170.457)" fill="#263238"/>
        <g id="Group_909" data-name="Group 909" transform="translate(78.748 79.47)" opacity="0.4">
          <path id="Path_22875" data-name="Path 22875" d="M393.5,267.357c-.113.079-.028.288.107.317a.492.492,0,0,0,.39-.136,8.528,8.528,0,0,0,1.628-2.159,2.841,2.841,0,0,1,2.159-1.481,2.893,2.893,0,0,1,2.221,1.645,10.383,10.383,0,0,0,1.492,2.47,67.773,67.773,0,0,0,8.2-16.443,9.847,9.847,0,0,0-2.589,3.194q-2.753,4.6-5.505,9.185a7.066,7.066,0,0,0-1.554-2.447,3.018,3.018,0,0,0-2.668-.859,3.973,3.973,0,0,0-2.334,2.193,13.039,13.039,0,0,0-1.475,4.573" transform="translate(-393.447 -251.57)"/>
        </g>
        <path id="Path_22876" data-name="Path 22876" d="M516.533,346.441a3.343,3.343,0,0,1-.367-.616c-.22-.407-.526-1.006-.882-1.747a64.554,64.554,0,0,1-2.481-5.963,63.614,63.614,0,0,1-1.865-6.178c-.2-.8-.339-1.453-.43-1.911a4,4,0,0,1-.107-.707,3.434,3.434,0,0,1,.215.684c.136.5.311,1.13.514,1.882.441,1.588,1.091,3.77,1.939,6.139s1.729,4.465,2.4,5.969c.322.712.565,1.311.8,1.781A3.481,3.481,0,0,1,516.533,346.441Z" transform="translate(-365.546 -205.903)" fill="#263238"/>
        <path id="Path_22877" data-name="Path 22877" d="M510.4,345.018a3.246,3.246,0,0,1-.226-.616c-.13-.407-.294-.995-.475-1.73a37.646,37.646,0,0,1-.927-11.757c.062-.752.13-1.362.2-1.781a2.464,2.464,0,0,1,.13-.644,3.034,3.034,0,0,1,0,.656c-.034.418-.068,1.029-.107,1.781a45.811,45.811,0,0,0,.921,11.7c.158.74.288,1.334.39,1.747A2.532,2.532,0,0,1,510.4,345.018Z" transform="translate(-364.787 -205.542)" fill="#263238"/>
        <path id="Path_22878" data-name="Path 22878" d="M525.475,270.19a2.016,2.016,0,0,1,.43.164l.085.04-.085.034a76.517,76.517,0,0,1-10.774,2.758c-3.154.565-6.042.916-8.134,1.085-1.046.085-1.894.136-2.481.153a5.167,5.167,0,0,1-.916,0,6.494,6.494,0,0,1,.9-.113l2.476-.243c2.08-.22,4.957-.565,8.1-1.164,5.245-.955,9.558-2.227,10.819-2.555v.068A1.981,1.981,0,0,1,525.475,270.19Z" transform="translate(-362.589 -180.195)" fill="#263238"/>
        <path id="Path_22879" data-name="Path 22879" d="M533.19,265.621a.375.375,0,0,1,.226-.141.9.9,0,0,1,.729.164,1.034,1.034,0,0,1,.464,1.006.819.819,0,0,1-.413.565,1.13,1.13,0,0,1-.724.136,1.221,1.221,0,0,1-.667-.311.893.893,0,0,1-.266-.65,1.13,1.13,0,0,1,.6-.927,1.04,1.04,0,0,1,.729-.119c.175.045.243.124.237.136a1.176,1.176,0,0,0-.865.153.944.944,0,0,0-.446.757.729.729,0,0,0,.707.678.712.712,0,0,0,.848-.475.932.932,0,0,0-.916-1.006C533.28,265.6,533.2,265.649,533.19,265.621Z" transform="translate(-375.171 -178.079)" fill="#263238"/>
        <path id="Path_22880" data-name="Path 22880" d="M355.818,287a3.176,3.176,0,0,1-.311.271c-.215.158-.509.43-.933.712a21.2,21.2,0,0,1-3.759,2.142,22.964,22.964,0,0,1-6.172,1.752,23.608,23.608,0,0,1-3.793.2,23.092,23.092,0,0,1-4.047-.5c-2.736-.616-5.2-1.622-7.523-2.261a19.978,19.978,0,0,0-3.329-.656,13.484,13.484,0,0,0-2.968.034,9.044,9.044,0,0,0-4,1.407,15.571,15.571,0,0,0-1.227.989,5.521,5.521,0,0,1,1.164-1.08,8.9,8.9,0,0,1,4.036-1.515,13.739,13.739,0,0,1,3-.062,19.652,19.652,0,0,1,3.391.639c2.346.61,4.81,1.611,7.512,2.221a23.62,23.62,0,0,0,4,.5,24.478,24.478,0,0,0,3.748-.187,23.1,23.1,0,0,0,6.127-1.7,22.244,22.244,0,0,0,3.776-2.046c.435-.266.735-.52.961-.667a1.787,1.787,0,0,1,.345-.2Z" transform="translate(-281.794 -187.504)" fill="#fafafa"/>
        <path id="Path_22881" data-name="Path 22881" d="M394.646,324.678a.808.808,0,0,1-.17-.079l-.492-.254c-.215-.107-.492-.22-.814-.367a7.3,7.3,0,0,0-1.13-.39,17.856,17.856,0,0,0-7.7-.277,44.164,44.164,0,0,0-5.24,1.187c-1.865.509-3.855,1.1-5.992,1.537a22.168,22.168,0,0,1-6.834.418,32.617,32.617,0,0,1-7.15-1.7c-2.391-.8-4.674-1.7-6.919-2.447a35.048,35.048,0,0,0-6.6-1.622,31.031,31.031,0,0,0-11.44.622,34.07,34.07,0,0,0-4.217,1.362c-.594.26-1.159.492-1.662.735s-.961.464-1.362.69l-1.068.594-.763.475-.469.283a.566.566,0,0,1-.17.09l.153-.113.458-.311c.2-.13.447-.305.746-.492l1.057-.622c.4-.232.865-.452,1.362-.712s1.063-.492,1.662-.763a33.5,33.5,0,0,1,4.222-1.407,30.879,30.879,0,0,1,11.525-.684,35.04,35.04,0,0,1,6.653,1.617c2.261.746,4.522,1.639,6.913,2.442a32.735,32.735,0,0,0,7.094,1.7,21.71,21.71,0,0,0,6.755-.4c2.125-.424,4.109-1.006,5.98-1.509a43.985,43.985,0,0,1,5.274-1.159,17.579,17.579,0,0,1,7.716.345c.447.124.825.294,1.159.418a5.734,5.734,0,0,1,.808.39l.475.283A.891.891,0,0,1,394.646,324.678Z" transform="translate(-284.707 -201.928)" fill="#fafafa"/>
        <path id="Path_22882" data-name="Path 22882" d="M398.24,283.657a12.624,12.624,0,0,0,1.447.317,10.508,10.508,0,0,0,3.985-.317,48.942,48.942,0,0,0,5.613-2.1,18.466,18.466,0,0,1,3.425-1.017,16.15,16.15,0,0,1,3.827-.22,22.157,22.157,0,0,1,7.173,1.7,38.045,38.045,0,0,1,5.347,2.775c1.464.893,2.611,1.7,3.391,2.21.379.26.678.469.9.633a2.114,2.114,0,0,1,.305.232,1.741,1.741,0,0,1-.333-.186l-.933-.565c-.814-.509-1.973-1.26-3.448-2.131a41.265,41.265,0,0,0-5.342-2.707,22.44,22.44,0,0,0-7.094-1.7,16.565,16.565,0,0,0-3.765.209,18.755,18.755,0,0,0-3.391.995,41.213,41.213,0,0,1-5.652,2.052,10.055,10.055,0,0,1-4.047.232A5,5,0,0,1,398.24,283.657Z" transform="translate(-316.783 -184.585)" fill="#fafafa"/>
        <path id="Path_22883" data-name="Path 22883" d="M440.669,259.827a5.41,5.41,0,0,1-.8.243c-.266.073-.565.153-.961.226s-.8.175-1.283.243a29.209,29.209,0,0,1-3.391.367,33.584,33.584,0,0,1-4.126-.045,33.182,33.182,0,0,1-4.115-.633,29.789,29.789,0,0,1-3.273-.927c-.458-.147-.859-.322-1.221-.458s-.661-.271-.9-.384a4.923,4.923,0,0,1-.752-.379,4.959,4.959,0,0,1,.791.277c.254.1.565.22.921.339s.769.283,1.227.418c.916.294,2.024.594,3.261.865a33.048,33.048,0,0,0,8.213.7c1.266-.056,2.408-.164,3.358-.3.48-.056.9-.141,1.283-.2s.7-.124.961-.181A4.178,4.178,0,0,1,440.669,259.827Z" transform="translate(-326.174 -174.93)" fill="#fafafa"/>
        <path id="Path_22884" data-name="Path 22884" d="M315.86,260.684a1.787,1.787,0,0,1,.243-.215c.17-.136.418-.339.746-.565.65-.5,1.6-1.2,2.826-2.012a39.407,39.407,0,0,1,10.237-5.053,24.079,24.079,0,0,1,11.339-.791,17.85,17.85,0,0,1,3.335.955c.384.141.667.294.865.379a1.527,1.527,0,0,1,.288.153l-1.187-.43a18.983,18.983,0,0,0-3.335-.859,24.723,24.723,0,0,0-11.226.859,41.657,41.657,0,0,0-10.174,4.952c-1.227.791-2.2,1.47-2.866,1.939l-.774.565A1.2,1.2,0,0,1,315.86,260.684Z" transform="translate(-280.968 -172.159)" fill="#fafafa"/>
        <path id="Path_22885" data-name="Path 22885" d="M393.779,369.56a.519.519,0,0,1-.158.045l-.475.1a5.465,5.465,0,0,1-.78.119l-.5.057H391.3a20.975,20.975,0,0,1-6.709-1.232c-1.379-.43-2.871-.961-4.494-1.441a27.636,27.636,0,0,0-5.285-1.023,45.98,45.98,0,0,0-12.305.882c-4.318.786-8.422,1.764-12.221,2.216a38.13,38.13,0,0,1-10.14.062,21.027,21.027,0,0,1-6.534-1.973l-.95-.5-.678-.4-.407-.266-.13-.1a.526.526,0,0,1,.147.073l.418.237.678.4.955.475a21.807,21.807,0,0,0,6.517,1.877,38.883,38.883,0,0,0,10.078-.124c3.781-.469,7.862-1.453,12.2-2.261a44.625,44.625,0,0,1,12.379-.859,27.414,27.414,0,0,1,5.325,1.057c1.628.492,3.12,1.029,4.488,1.47a21.369,21.369,0,0,0,6.653,1.317h.565l.5-.045a5.13,5.13,0,0,0,.78-.09l.475-.074Z" transform="translate(-287.746 -221.758)" fill="#fafafa"/>
        <g id="Group_910" data-name="Group 910" transform="translate(56.219 151.696)" opacity="0.3">
          <path id="Path_22886" data-name="Path 22886" d="M353.607,379.35c2.561,6.393,7.518,10.932,14.34,11.87s13.724-.622,20.349-2.431c-12.079-1.7-22.768-3.363-34.706-9.44" transform="translate(-353.59 -379.35)"/>
        </g>
        <path id="Path_22887" data-name="Path 22887" d="M395.491,405.5l-.164-.062-.48-.2-1.826-.814c-1.594-.7-3.872-1.769-6.715-3a29.648,29.648,0,0,0-4.788-1.622,15.359,15.359,0,0,0-5.743-.266,20.249,20.249,0,0,0-3.052.7,32.082,32.082,0,0,0-3.058,1.13c-2.04.893-4.07,2-6.161,3.12a49.025,49.025,0,0,1-6.286,2.928,19.438,19.438,0,0,1-6.325,1.283,14.218,14.218,0,0,1-5.726-1.13,38.936,38.936,0,0,1-4.522-2.306c-1.351-.774-2.566-1.475-3.668-2.012a19.612,19.612,0,0,0-2.922-1.187,10.093,10.093,0,0,0-1.131-.3,6.214,6.214,0,0,0-.825-.158l-.514-.085a.7.7,0,0,1-.175-.034.566.566,0,0,1,.175,0l.52.057a5.874,5.874,0,0,1,.837.136,9.647,9.647,0,0,1,1.13.271,19.493,19.493,0,0,1,2.956,1.13c1.13.526,2.346,1.221,3.7,1.978a38.8,38.8,0,0,0,4.522,2.261,14.131,14.131,0,0,0,5.652,1.08,19.321,19.321,0,0,0,6.218-1.289,49.152,49.152,0,0,0,6.218-2.917c2.086-1.13,4.121-2.227,6.178-3.12A31.292,31.292,0,0,1,372.6,399.9a21.324,21.324,0,0,1,3.1-.69,15.538,15.538,0,0,1,5.828.294,28.879,28.879,0,0,1,4.816,1.7c2.826,1.261,5.087,2.357,6.681,3.086l1.8.859.469.232A1.4,1.4,0,0,1,395.491,405.5Z" transform="translate(-287.728 -236.221)" fill="#fafafa"/>
      </g>
    </g>
  </g>
</svg>
