<svg xmlns="http://www.w3.org/2000/svg" viewBox="0 0 40 40"><defs><style>.cls-1{fill:none;}.cls-2{fill:#fff;}</style></defs><g id="Layer_2" data-name="Layer 2"><g id="Layer_1-2" data-name="Layer 1"><rect class="cls-1" width="40" height="40"/><path class="cls-2" d="M34.8,39.33H5.21c0-.1,0-.2,0-.3V7.89c0-.12,0-.25,0-.41H4.36a5.37,5.37,0,0,1-.9-.06A3.4,3.4,0,0,1,4.17.67h27.1a4.21,4.21,0,0,1,1,.12,3.39,3.39,0,0,1,2.51,3.4q0,4.92,0,9.82v.47l.4-.09A3.41,3.41,0,0,1,39.24,17l.09.32v.91a4.8,4.8,0,0,1-1.61,2.57c-.9.85-1.76,1.76-2.65,2.63a.86.86,0,0,0-.29.69c0,4.05,0,8.1,0,12.15C34.79,37.27,34.79,38.3,34.8,39.33ZM31.36,7.49H7.51V37h25v-11l-.1-.06a2.6,2.6,0,0,1-.25.33Q28,30.43,23.92,34.54a.75.75,0,0,1-.47.23c-1.46,0-2.92,0-4.38,0l-.21,0V30.22H9.8V28h.46c3.06,0,6.11,0,9.17,0a2.7,2.7,0,0,0,2.47-1,12.05,12.05,0,0,1,1.19-1.18l-.05-.1H9.81V23.41h.48c4.68,0,9.36,0,14,0a2.13,2.13,0,0,0,1.88-.79c.43-.52.95-.95,1.43-1.43l-.05-.08H9.79V18.87H29.58a.84.84,0,0,0,.66-.27c.67-.69,1.37-1.36,2-2.06a.9.9,0,0,0,.23-.55q0-5.88,0-11.74a1.77,1.77,0,0,0-.07-.52A1.13,1.13,0,1,0,31,5.13a4,4,0,0,0,.41.12ZM28.05,2.94H4a1.12,1.12,0,0,0-1,.7A1.06,1.06,0,0,0,3.22,4.8a1.21,1.21,0,0,0,1,.42H28.05ZM25.17,30l9-9-1.5-1.49-9,9ZM35.94,19.28a9.14,9.14,0,0,0,.88-.88,1.09,1.09,0,0,0-.08-1.47,1.13,1.13,0,0,0-1.48-.12,10.93,10.93,0,0,0-.91.88ZM23.49,31.72l-1.59-1.6c-.24.26-.64.52-.73.86a5.85,5.85,0,0,0,0,1.51C22.09,32.56,23,32.71,23.49,31.72Z"/><path class="cls-2" d="M21.12,14.35v2.21H9.8V14.35Z"/></g></g></svg>