<svg xmlns="http://www.w3.org/2000/svg" viewBox="0 0 28 28"><defs><style>.cls-1{fill:none;}.cls-2{fill:#0091ff;}</style></defs><g id="Layer_2" data-name="Layer 2"><g id="Layer_1-2" data-name="Layer 1"><rect class="cls-1" width="28" height="28"/><path class="cls-2" d="M20.62.64a3.54,3.54,0,0,1,.49.18,1.75,1.75,0,0,1,1,1.67c0,2.6,0,5.2,0,7.8V13a2.35,2.35,0,0,1,0,.26.51.51,0,0,1-.48.46.5.5,0,0,1-.52-.38,1.42,1.42,0,0,1,0-.36V5c0-.66-.23-.89-.89-.89H9.67c-.64,0-.89.24-.89.87v8.53a.4.4,0,0,0,.2.38c.27.19.52.43.79.66a2.63,2.63,0,0,1,1.47-1,2.68,2.68,0,0,1,3.26,3,2.86,2.86,0,0,1-.94,1.79c-.78.7-1.55,1.42-2.32,2.13a2.15,2.15,0,0,1-1.62.72c-.27,0-.54-.12-.82-.18,0,.61,0,1.24,0,1.87a.65.65,0,0,0,.62.57H14.2v-.58a1.92,1.92,0,0,1,.85-1.64c.36-.26.72-.51,1.07-.78a.46.46,0,0,0,.17-.31q0-1.61,0-3.21a.41.41,0,0,0-.15-.29,1.54,1.54,0,0,1-.69-1.28V14.13a1.46,1.46,0,0,1,1.43-1.44c.46,0,.92,0,1.38,0a1.48,1.48,0,0,1,1.52,1.54c0,1.8,0,3.6,0,5.4v.28H21s0-.14,0-.23v-1.9a.53.53,0,0,1,.31-.53.43.43,0,0,1,.53.07.89.89,0,0,1,.2.48c0,.95,0,1.9,0,2.84v.29a1.65,1.65,0,0,1,2.06.94,7.24,7.24,0,0,1,.81,0,1.38,1.38,0,0,1,1.25,1.32c0,1.21,0,2.42,0,3.63a.51.51,0,0,1-.52.54.54.54,0,0,1-.51-.6c0-1,0-2.07,0-3.1,0-.14,0-.27,0-.4a.39.39,0,0,0-.42-.37.41.41,0,0,0-.49.33,1.18,1.18,0,0,1,0,.2.51.51,0,0,1-.53.38.49.49,0,0,1-.47-.47c0-.26,0-.53,0-.8a.59.59,0,0,0-.55-.64c-.33,0-.56.25-.57.64s-.22.66-.55.65a.53.53,0,0,1-.49-.57c0-.33,0-.66,0-1a.64.64,0,1,0-1.26,0v.26a.54.54,0,0,1-.54.57.53.53,0,0,1-.51-.58V17A.73.73,0,0,0,18,16.2a.72.72,0,0,0-.69.79v7.72c0,.37-.21.61-.53.61a.53.53,0,0,1-.51-.6c0-.59,0-1.18,0-1.77V21.62a6.23,6.23,0,0,0-.85.7,1,1,0,0,0-.19.62c0,1.23,0,2.46,0,3.68,0,.57-.16.74-.72.74H9.61a1.76,1.76,0,0,1-1.87-1.88c0-1.73,0-3.46,0-5.19a.5.5,0,0,0-.19-.43l-1.7-1.58a2.77,2.77,0,0,1-.73-3,2.67,2.67,0,0,1,2.52-1.77h.1V2.8A1.85,1.85,0,0,1,9.2.64ZM6,16a2,2,0,0,0,.64,1.59c.82.79,1.66,1.57,2.49,2.34a.79.79,0,0,0,1.15,0c.86-.78,1.72-1.55,2.55-2.36a2.38,2.38,0,0,0,.54-.84,1.64,1.64,0,0,0-1.05-2.09,1.57,1.57,0,0,0-2,1.08,3.83,3.83,0,0,0-.1.59.53.53,0,0,1-.47.45.51.51,0,0,1-.53-.37,1.09,1.09,0,0,1,0-.26,1.66,1.66,0,0,0-1.64-1.59A1.6,1.6,0,0,0,6,16Zm15-12.85c0-.14,0-.32,0-.5.06-.74-.36-1-.94-1H9.71a1.92,1.92,0,0,0-.24,0,.69.69,0,0,0-.68.66c0,.27,0,.55,0,.77.53,0,1-.05,1.54-.05h9.52C20.24,3.08,20.63,3.12,21.05,3.14ZM8.78,24.45v1c0,.59.27.85.86.85h4.53V24.51H10.09C9.66,24.51,9.23,24.47,8.78,24.45Zm7.87-8.63a1.86,1.86,0,0,1,2.09-.54c0-.38,0-.73,0-1.08a.43.43,0,0,0-.47-.47H17a.42.42,0,0,0-.47.47c0,.39,0,.78,0,1.17A2.15,2.15,0,0,0,16.65,15.82Z"/><path class="cls-2" d="M15,9c-1.07,0-2.14,0-3.21,0a1.72,1.72,0,0,1,0-3.43c2.12,0,4.25,0,6.37,0a1.72,1.72,0,1,1,0,3.43C17.07,9.05,16,9,15,9Zm.49-1c.94,0,1.87,0,2.79,0a.58.58,0,0,0,.55-.48.67.67,0,0,0-.69-.85c-.74,0-1.47,0-2.21,0h-.44ZM14.38,8V6.65h-.93c-.55,0-1.11,0-1.66,0a.66.66,0,0,0-.67.69.67.67,0,0,0,.67.66h2.59Z"/><path class="cls-2" d="M4.36,14.34a2.08,2.08,0,0,1-.43-.23c-.35-.33-.68-.67-1-1a.52.52,0,1,1,.73-.74c.35.34.69.68,1,1a.47.47,0,0,1,.1.6A2.11,2.11,0,0,1,4.36,14.34Z"/><path class="cls-2" d="M4.84,18.63a1.33,1.33,0,0,1-.19.34c-.32.34-.66.67-1,1a.52.52,0,1,1-.74-.74c.34-.35.69-.69,1-1a.49.49,0,0,1,.57-.11A.52.52,0,0,1,4.84,18.63Z"/><path class="cls-2" d="M18.56,11.46h-.7a.52.52,0,1,1,0-1c.46,0,.93,0,1.4,0a.52.52,0,1,1,0,1Z"/><path class="cls-2" d="M11.43,11.46h-.7a.52.52,0,1,1,0-1h1.4a.52.52,0,1,1,0,1h-.68Z"/><path class="cls-2" d="M15,11.46h-.7a.51.51,0,0,1-.52-.51.51.51,0,0,1,.51-.52H15.7a.5.5,0,0,1,.5.52.51.51,0,0,1-.52.51Z"/><path class="cls-2" d="M2.91,15.67h.6a.52.52,0,0,1,.52.51.51.51,0,0,1-.51.52c-.42,0-.83,0-1.25,0a.52.52,0,0,1,0-1Z"/><path class="cls-2" d="M22.09,15.43a.51.51,0,0,1-.5.52.52.52,0,1,1,.5-.52Z"/></g></g></svg>