<svg xmlns="http://www.w3.org/2000/svg" viewBox="0 0 28 28"><defs><style>.cls-1{fill:none;}.cls-2{fill:#0091ff;}</style></defs><g id="Layer_2" data-name="Layer 2"><g id="Layer_1-2" data-name="Layer 1"><rect class="cls-1" width="28" height="28"/><path class="cls-2" d="M.62,1.39A.82.82,0,0,1,1.46.81,1.28,1.28,0,0,1,1.92,1c.57.37,1.13.75,1.69,1.13a.23.23,0,0,0,.32,0L5.58,1A.84.84,0,0,1,6.71,1l1.78,1.2L10.41.94a.78.78,0,0,1,.95.05.75.75,0,0,1,.22.87,1,1,0,0,1-.34.41c-.75.52-1.51,1-2.26,1.52a.83.83,0,0,1-1,0L6.14,2.53c-.61.41-1.22.8-1.81,1.21a.87.87,0,0,1-1.11,0c-.68-.47-1.37-.93-2.06-1.38a1.26,1.26,0,0,1-.54-.62Z"/><path class="cls-2" d="M.62,10.08C1,9.41,1.39,9.3,2,9.71l1.56,1a.28.28,0,0,0,.39,0l1.64-1.1a.84.84,0,0,1,1,0c.56.37,1.12.74,1.67,1.12a.27.27,0,0,0,.35,0l1.66-1.12A.79.79,0,1,1,11.21,11L9,12.43a.84.84,0,0,1-1,0c-.56-.38-1.12-.74-1.67-1.12a.26.26,0,0,0-.35,0c-.54.38-1.1.74-1.64,1.11a.86.86,0,0,1-1.09,0c-.68-.46-1.38-.9-2-1.38a4.57,4.57,0,0,1-.56-.6Z"/><path class="cls-2" d="M.62,5.73A.84.84,0,0,1,2,5.38c.52.34,1,.68,1.54,1a.32.32,0,0,0,.43,0C4.52,6,5.07,5.7,5.6,5.33a.86.86,0,0,1,1.06,0c.54.37,1.09.73,1.62,1.1a.32.32,0,0,0,.42,0c.54-.38,1.09-.74,1.64-1.1a.79.79,0,1,1,.88,1.3L9,8.1a.84.84,0,0,1-1,0C7.43,7.73,6.88,7.38,6.34,7a.32.32,0,0,0-.43,0c-.52.37-1.07.71-1.6,1.08a.86.86,0,0,1-1.08,0c-.68-.47-1.37-.93-2.06-1.38A1.3,1.3,0,0,1,.62,6.1Z"/><path class="cls-2" d="M.62,16.36a.89.89,0,0,1,.74-.58.79.79,0,0,1,.82.61.81.81,0,0,1-.49.91A.78.78,0,0,1,.74,17l-.12-.19Z"/><path class="cls-2" d="M.62,21.07a1.63,1.63,0,0,0,.11-.17.79.79,0,1,1,0,.74l-.09-.15Z"/><path class="cls-2" d="M.62,25.83a.87.87,0,0,1,.75-.59.79.79,0,0,1,.32,1.52.79.79,0,0,1-.95-.33L.62,26.2Z"/><path class="cls-2" d="M19.5,3.16h3.94V2c0-.14,0-.28,0-.42a.78.78,0,0,1,1.56,0c0,.48,0,1,0,1.42,0,0,0,.1,0,.18H26.6a.77.77,0,0,1,.77.79.78.78,0,0,1-.76.78H25V8.68h1.39a1.46,1.46,0,0,1,.46.06.78.78,0,0,1,.49.84.76.76,0,0,1-.71.66c-.43,0-.87,0-1.3,0H25v1.53a.81.81,0,0,1-.54.79.77.77,0,0,1-1-.72c0-.52,0-1,0-1.58H19.5v.66c0,.3,0,.6,0,.89a.78.78,0,0,1-.77.79.79.79,0,0,1-.8-.77c0-.43,0-.86,0-1.29v-.3H16.49a1.24,1.24,0,0,1-.43-.06.78.78,0,0,1-.48-.84.79.79,0,0,1,.77-.67h1.56V4.74H16.33A.8.8,0,0,1,15.57,4a.79.79,0,0,1,.78-.79h1.58V2.83c0-.4,0-.81,0-1.21a.79.79,0,0,1,.8-.82.78.78,0,0,1,.77.82C19.51,2.12,19.5,2.63,19.5,3.16Zm0,5.5h3.91V4.76H19.52Z"/><path class="cls-2" d="M16.35,27.2a.76.76,0,0,1-.68-.41.74.74,0,0,1,.05-.82c0-.06.1-.12.15-.18q4.85-4.84,9.7-9.7a1,1,0,0,1,.53-.29.69.69,0,0,1,.77.37.8.8,0,0,1-.06.88l-.15.16L17,26.88A.87.87,0,0,1,16.35,27.2Z"/><path class="cls-2" d="M22.31,16.58a2.49,2.49,0,0,1-.3.56q-2.53,2.55-5.08,5.08a.77.77,0,0,1-1.12,0,.79.79,0,0,1,0-1.15q2.52-2.54,5.06-5.06a.76.76,0,0,1,.88-.2A.91.91,0,0,1,22.31,16.58Z"/><path class="cls-2" d="M21.08,27.2a.75.75,0,0,1-.7-.43.78.78,0,0,1,.08-.84l.16-.17q2.47-2.46,4.93-4.94a.86.86,0,0,1,.71-.31.76.76,0,0,1,.66.49.8.8,0,0,1-.13.81l-.15.15-4.91,4.92A.87.87,0,0,1,21.08,27.2Z"/><path class="cls-2" d="M25.85,27.2a.77.77,0,0,1-.74-.42.74.74,0,0,1,.07-.84,4.42,4.42,0,0,1,.53-.53.8.8,0,0,1,1,0,.73.73,0,0,1,.22.94,4.85,4.85,0,0,1-.78.79A.57.57,0,0,1,25.85,27.2Z"/><path class="cls-2" d="M16.39,17.74a.77.77,0,0,1-.74-.45.72.72,0,0,1,.11-.83,3.94,3.94,0,0,1,.5-.5.77.77,0,0,1,1,0,.7.7,0,0,1,.25.9,5.25,5.25,0,0,1-.84.86C16.57,17.74,16.45,17.73,16.39,17.74Z"/><path class="cls-2" d="M10.86,22.08a.78.78,0,0,1-.79-.78.8.8,0,0,1,.79-.8.82.82,0,0,1,.78.8A.79.79,0,0,1,10.86,22.08Z"/><path class="cls-2" d="M10.07,16.57a.79.79,0,1,1,.79.78A.79.79,0,0,1,10.07,16.57Z"/><path class="cls-2" d="M4.55,18.93a.77.77,0,0,1-.77.78.8.8,0,0,1-.8-.8.81.81,0,0,1,.8-.77A.78.78,0,0,1,4.55,18.93Z"/><path class="cls-2" d="M4.55,23.65a.77.77,0,0,1-.76.79A.8.8,0,0,1,3,23.65a.81.81,0,0,1,.79-.78A.78.78,0,0,1,4.55,23.65Z"/><path class="cls-2" d="M9.28,23.65a.79.79,0,0,1-.77.79.77.77,0,0,1-.8-.76.79.79,0,0,1,.78-.81A.8.8,0,0,1,9.28,23.65Z"/><path class="cls-2" d="M6.91,26a.78.78,0,0,1-.78.78A.81.81,0,0,1,5.34,26a.8.8,0,0,1,.81-.79A.77.77,0,0,1,6.91,26Z"/><path class="cls-2" d="M10.84,25.24a.8.8,0,0,1,.8.77.81.81,0,0,1-.79.8.79.79,0,0,1,0-1.57Z"/><path class="cls-2" d="M6.14,15.78a.77.77,0,0,1,.77.78.78.78,0,0,1-.77.79.79.79,0,1,1,0-1.57Z"/><path class="cls-2" d="M8.48,19.71a.79.79,0,0,1,0-1.57.8.8,0,0,1,.79.81A.79.79,0,0,1,8.48,19.71Z"/><path class="cls-2" d="M6.12,22.08a.8.8,0,0,1-.78-.79.81.81,0,0,1,.79-.79.79.79,0,0,1,0,1.58Z"/></g></g></svg>