<svg xmlns="http://www.w3.org/2000/svg" viewBox="0 0 37.07 37.07"><defs><style>.cls-1{fill:none;}.cls-2{fill:#0091ff;}</style></defs><g id="Layer_2" data-name="Layer 2"><g id="Layer_1-2" data-name="Layer 1"><rect class="cls-1" width="37.07" height="37.07"/><path class="cls-2" d="M17.91,30.18c0-.12,0-.24,0-.39H5.17c-.64,0-.74-.1-.74-.73V4.86c0-.61.1-.71.71-.71h18c.62,0,.73.11.73.73v3h3.28a.56.56,0,0,0,0-.15c0-1.53,0-3.06,0-4.59A2.16,2.16,0,0,0,24.87.91q-10.7,0-21.4,0a2.68,2.68,0,0,0-1.12.23A2.17,2.17,0,0,0,1.11,3.31q0,12.84,0,25.67c0,1.47,0,2.95,0,4.42A2.34,2.34,0,0,0,1.67,35a2.57,2.57,0,0,0,1.49.75H18.4a5.25,5.25,0,0,1-.5-2.41C17.93,32.29,17.91,31.23,17.91,30.18Zm-3.74,3.94a1.37,1.37,0,1,1,1.37-1.35A1.36,1.36,0,0,1,14.17,34.12Zm19.3-23.93c-3.65,0-7.3,0-11,0a3.3,3.3,0,0,0-.77.07,2,2,0,0,0-1.51,2.07V33.6a2.44,2.44,0,0,0,0,.27A1.89,1.89,0,0,0,20.7,35a2.26,2.26,0,0,0,1.38.73h12a2.12,2.12,0,0,0,1.63-1.14c.09-.18.14-.38.21-.56V11.85A2.2,2.2,0,0,0,33.47,10.19ZM28.07,34.6a1.26,1.26,0,0,1,0-2.51,1.26,1.26,0,1,1,0,2.51Zm5.66-12.8v8.75c0,.58-.1.69-.69.69h-9.9c-.59,0-.7-.11-.7-.7V13c0-.6.1-.69.69-.69h9.93c.59,0,.67.08.67.67Z"/></g></g></svg>