<svg xmlns="http://www.w3.org/2000/svg" viewBox="0 0 28 28"><defs><style>.cls-1{fill:none;}.cls-2{fill:#0091ff;stroke:#0091ff;stroke-miterlimit:10;stroke-width:0.2px;}</style></defs><g id="Layer_2" data-name="Layer 2"><g id="Layer_1-2" data-name="Layer 1"><rect class="cls-1" width="28" height="28"/><path class="cls-2" d="M14,27l-3.42-1.8L1.79,20.61c-.21-.11-.4-.24-.4-.51s.18-.4.4-.52L6.18,17.3l.29-.15L6.22,17,1.9,14.76l-.2-.11a.47.47,0,0,1-.31-.47.49.49,0,0,1,.31-.45l2.48-1.29,2-1.07.24-.13-.26-.15L1.79,8.8c-.22-.12-.4-.25-.4-.52s.19-.4.41-.51l12-6.28a.71.71,0,0,1,.69,0l3.94,2.06c.34.18.45.45.3.73a.5.5,0,0,1-.71.18L15.34,3c-.33-.17-.66-.35-1-.51a.37.37,0,0,0-.29,0L3.1,8.22,3,8.28l.16.11L14,14a.37.37,0,0,0,.39,0l9.13-4.75,1.86-1-1-.5c-.75-.39-1.51-.78-2.25-1.19a.64.64,0,0,1-.32-.39.65.65,0,0,1,.19-.48.46.46,0,0,1,.56,0l1.9,1c.67.35,1.34.69,2,1a2.6,2.6,0,0,1,.49.4v.3a3,3,0,0,1-.49.39L22.17,11.1l-.25.14.25.14q2.17,1.13,4.34,2.26A3.72,3.72,0,0,1,27,14v.3a3.06,3.06,0,0,1-.49.4c-1.45.77-2.9,1.52-4.36,2.28a1.38,1.38,0,0,0-.22.13l.24.13,4.34,2.27a3,3,0,0,1,.49.39v.3a2.87,2.87,0,0,1-.46.4L18,25.1,14.34,27ZM3,20.1l.17.1Q8.59,23,14,25.83a.45.45,0,0,0,.36,0l10.86-5.65a1,1,0,0,0,.15-.1L25.14,20c-1.37-.72-2.74-1.42-4.1-2.14a.41.41,0,0,0-.44,0l-6,3.14a.76.76,0,0,1-.77,0c-2-1.06-4-2.1-6.05-3.15a.37.37,0,0,0-.39,0C6,18.53,4.61,19.24,3.23,20Zm22.41-5.91c-.63-.33-1.21-.62-1.79-.94a.43.43,0,0,0-.45,0l-8.9,4.65L12.21,19l.21.13c.48.25,1,.48,1.44.75a.59.59,0,0,0,.66,0l6.89-3.59Zm-3.1-1.61c-.46-.24-.88-.45-1.29-.68a.4.4,0,0,0-.41,0c-2,1.06-4,2.1-6,3.15a.62.62,0,0,1-.68,0,.33.33,0,0,0-.39,0l-3.39,1.76-1,.53c.62.32,1.21.62,1.78.93a.4.4,0,0,0,.42,0l9.27-4.84Zm-12.76.25-1.9-1a.33.33,0,0,0-.25,0L3.19,14.08,3,14.2a13.41,13.41,0,0,1,1.31.69,1.11,1.11,0,0,0,1.33,0C6.9,14.18,8.2,13.54,9.55,12.83ZM6.06,15.78l.19.12,1.57.82a.4.4,0,0,0,.42,0l4.15-2.17.21-.13-1.86-1a.33.33,0,0,0-.27,0L8,14.75Z"/><path class="cls-2" d="M20.84,5.07a.5.5,0,1,1-.5-.49A.5.5,0,0,1,20.84,5.07Z"/></g></g></svg>