<svg xmlns="http://www.w3.org/2000/svg" viewBox="0 0 28 28"><defs><style>.cls-1{fill:none;}.cls-2{fill:#0091ff;}</style></defs><g id="Layer_2" data-name="Layer 2"><g id="Layer_1-2" data-name="Layer 1"><rect class="cls-1" width="28" height="28"/><path class="cls-2" d="M27,7.85a9.31,9.31,0,0,0-7.37-7l-1-.15H17.33l-.18,0A19.6,19.6,0,0,0,15,1.21,9.3,9.3,0,0,0,9.45,13.7,9.56,9.56,0,0,0,10.88,16L9.09,17.8a.28.28,0,0,1-.22,0,2.57,2.57,0,0,0-3,.64c-1.33,1.34-2.66,2.68-4,4A3.59,3.59,0,0,0,.7,24.39v.68a4.77,4.77,0,0,0,.13.47,2.54,2.54,0,0,0,1.94,1.71l.16.05h.68a3.64,3.64,0,0,0,1.95-1.23c1.31-1.34,2.64-2.65,4-4a2.58,2.58,0,0,0,.64-3,.28.28,0,0,1,0-.22L12,17.12l.16.12A9.3,9.3,0,0,0,27,12.15c.11-.48.18-1,.26-1.47V9.32C27.22,8.83,27.15,8.34,27,7.85Zm-18.48,13c-.17.2-.36.37-.54.56q-2,2-3.95,3.95a1.16,1.16,0,0,1-.83.38,1,1,0,0,1-.8-1.58A2,2,0,0,1,2.63,24L7,19.54a1,1,0,0,1,1.11-.32A1,1,0,0,1,8.56,20.85ZM18,17.75A7.75,7.75,0,1,1,25.74,10,7.73,7.73,0,0,1,18,17.75ZM21.84,5.9a.8.8,0,0,0-.78.88v6.46a.78.78,0,1,0,1.56,0V6.78A.8.8,0,0,0,21.84,5.9Zm-5.2,1.56a.77.77,0,0,0-.77.8c0,1.68,0,3.36,0,5a.75.75,0,0,0,.37.69.77.77,0,0,0,1.18-.7q0-1.24,0-2.49c0-.85,0-1.69,0-2.54A.78.78,0,0,0,16.64,7.46Zm2.6,1a.78.78,0,0,0-.77.85c0,1.3,0,2.6,0,3.89a.78.78,0,1,0,1.56,0V11.3c0-.65,0-1.3,0-2A.79.79,0,0,0,19.24,8.5ZM14,10.06a.78.78,0,0,0-.76.81v2.41a.78.78,0,0,0,.78.83.79.79,0,0,0,.78-.8V10.87A.79.79,0,0,0,14,10.06Z"/></g></g></svg>