<svg xmlns="http://www.w3.org/2000/svg" viewBox="0 0 28 28"><defs><style>.cls-1,.cls-3{fill:none;}.cls-2{fill:#0091ff;}.cls-3{stroke:#fff;stroke-miterlimit:10;stroke-width:0.24px;}</style></defs><g id="Layer_2" data-name="Layer 2"><g id="Layer_1-2" data-name="Layer 1"><rect class="cls-1" width="28" height="28"/><path class="cls-2" d="M14.75,6.15a.94.94,0,0,0-.92-1q-1,0-2,0a1,1,0,0,0,0,1.9h1.89A1,1,0,0,0,14.75,6.15Zm6.44,14a.95.95,0,0,0-1.8.4c0,.6,0,1.19,0,1.79a1.89,1.89,0,0,1-1.95,1.95c-3,0-6.11,0-9.16,0a1.9,1.9,0,0,1-2-2q0-8.35,0-16.69a1.9,1.9,0,0,1,2-2H17.4a1.91,1.91,0,0,1,2,2c0,.45,0,.9,0,1.34a1,1,0,1,0,1.9,0c0-.45,0-.91,0-1.36a3.82,3.82,0,0,0-3.87-3.88c-3.05,0-6.11,0-9.16,0A4.35,4.35,0,0,0,7,2,3.78,3.78,0,0,0,4.4,5.69q0,7.68,0,15.35c0,.49,0,1,0,1.48a3.69,3.69,0,0,0,2.15,3.3,7.37,7.37,0,0,0,1.23.4H17.9a.93.93,0,0,1,.13,0,3.76,3.76,0,0,0,3.21-3.26,21.86,21.86,0,0,0,0-2.43A.73.73,0,0,0,21.19,20.17Zm-8.35.76a1,1,0,0,0-.95.94,1,1,0,0,0,1.91,0A1,1,0,0,0,12.84,20.93Zm10.71-7.51a.56.56,0,0,0-.48-.48,1.15,1.15,0,0,1-.9-1.55.55.55,0,0,0-.19-.65A4.43,4.43,0,0,0,20.75,10a.55.55,0,0,0-.67.17,1.14,1.14,0,0,1-1.8,0,.56.56,0,0,0-.66-.16,4.54,4.54,0,0,0-1.14.63.57.57,0,0,0-.2.69,1.15,1.15,0,0,1-1,1.55.55.55,0,0,0-.5.45,4.16,4.16,0,0,0,0,1.45.57.57,0,0,0,.55.54,1,1,0,0,1,.68.35,1.11,1.11,0,0,1,.21,1.25.56.56,0,0,0,.14.66,4.55,4.55,0,0,0,1.28.74l.2,0a.57.57,0,0,0,.45-.24,1.15,1.15,0,0,1,1.87,0,.55.55,0,0,0,.66.18A4.47,4.47,0,0,0,22,17.61a.53.53,0,0,0,.18-.66,1.16,1.16,0,0,1,.92-1.58.54.54,0,0,0,.48-.45A4.2,4.2,0,0,0,23.55,13.42Zm-4.37,2.23a1.48,1.48,0,1,1,1.48-1.48A1.48,1.48,0,0,1,19.18,15.65Z"/><path class="cls-3" d="M14.75,6.15a.94.94,0,0,0-.92-1q-1,0-2,0a1,1,0,0,0,0,1.9h1.89A1,1,0,0,0,14.75,6.15Zm6.44,14a.95.95,0,0,0-1.8.4c0,.6,0,1.19,0,1.79a1.89,1.89,0,0,1-1.95,1.95c-3,0-6.11,0-9.16,0a1.9,1.9,0,0,1-2-2q0-8.35,0-16.69a1.9,1.9,0,0,1,2-2H17.4a1.91,1.91,0,0,1,2,2c0,.45,0,.9,0,1.34a1,1,0,1,0,1.9,0c0-.45,0-.91,0-1.36a3.82,3.82,0,0,0-3.87-3.88c-3.05,0-6.11,0-9.16,0A4.35,4.35,0,0,0,7,2,3.78,3.78,0,0,0,4.4,5.69q0,7.68,0,15.35c0,.49,0,1,0,1.48a3.69,3.69,0,0,0,2.15,3.3,7.37,7.37,0,0,0,1.23.4H17.9a.93.93,0,0,1,.13,0,3.76,3.76,0,0,0,3.21-3.26,21.86,21.86,0,0,0,0-2.43A.73.73,0,0,0,21.19,20.17Zm-8.35.76a1,1,0,0,0-.95.94,1,1,0,0,0,1.91,0A1,1,0,0,0,12.84,20.93Zm10.71-7.51a.56.56,0,0,0-.48-.48,1.15,1.15,0,0,1-.9-1.55.55.55,0,0,0-.19-.65A4.43,4.43,0,0,0,20.75,10a.55.55,0,0,0-.67.17,1.14,1.14,0,0,1-1.8,0,.56.56,0,0,0-.66-.16,4.54,4.54,0,0,0-1.14.63.57.57,0,0,0-.2.69,1.15,1.15,0,0,1-1,1.55.55.55,0,0,0-.5.45,4.16,4.16,0,0,0,0,1.45.57.57,0,0,0,.55.54,1,1,0,0,1,.68.35,1.11,1.11,0,0,1,.21,1.25.56.56,0,0,0,.14.66,4.55,4.55,0,0,0,1.28.74l.2,0a.57.57,0,0,0,.45-.24,1.15,1.15,0,0,1,1.87,0,.55.55,0,0,0,.66.18A4.47,4.47,0,0,0,22,17.61a.53.53,0,0,0,.18-.66,1.16,1.16,0,0,1,.92-1.58.54.54,0,0,0,.48-.45A4.2,4.2,0,0,0,23.55,13.42Zm-4.37,2.23a1.48,1.48,0,1,1,1.48-1.48A1.48,1.48,0,0,1,19.18,15.65Z"/></g></g></svg>