<svg xmlns="http://www.w3.org/2000/svg" viewBox="0 0 28 28"><defs><style>.cls-1{fill:#0091ff;}</style></defs><g id="Layer_2" data-name="Layer 2"><g id="Layer_1-2" data-name="Layer 1"><path class="cls-1" d="M27.53,17.06c-.83-.59-1.66-1.18-2.5-1.76a.36.36,0,0,1-.16-.34c0-.64,0-1.28,0-1.91a.37.37,0,0,1,.18-.36L27.48,11a.92.92,0,0,0,.31-1.42q-1.48-2.55-3-5.09A.94.94,0,0,0,23.41,4L20.67,5.23a.35.35,0,0,1-.39,0c-.56-.33-1.13-.66-1.71-1a.33.33,0,0,1-.2-.31c-.09-.95-.21-1.9-.29-2.85A1.11,1.11,0,0,0,17.39,0H10.61a1.14,1.14,0,0,0-.69,1.07c-.08,1-.2,1.9-.29,2.85a.33.33,0,0,1-.2.31c-.58.31-1.14.63-1.7,1a.39.39,0,0,1-.4,0L4.61,4a1,1,0,0,0-1.43.46l-3,5C.14,9.66.07,9.81,0,10v.39A1.44,1.44,0,0,0,.59,11L3,12.69a.37.37,0,0,1,.18.36c0,.63,0,1.27,0,1.9a.37.37,0,0,1-.18.36C2.16,15.86,1.38,16.43.59,17a1.52,1.52,0,0,0-.59.69v.39c.63,1.08,1.25,2.17,1.88,3.26.44.76.89,1.52,1.34,2.28a.91.91,0,0,0,1.3.42c.93-.4,1.86-.82,2.79-1.24a.38.38,0,0,1,.42,0c.55.33,1.12.65,1.68,1a.35.35,0,0,1,.23.32c.09,1,.2,2.05.31,3.07a.89.89,0,0,0,.93.85h6.24a.88.88,0,0,0,.93-.87c.11-1,.22-2.05.32-3.07a.32.32,0,0,1,.19-.29c.58-.31,1.15-.63,1.71-1a.4.4,0,0,1,.42,0L23.46,24a.92.92,0,0,0,1.33-.44l3-5.16A.91.91,0,0,0,27.53,17.06Zm-4,5-1.7-.75c-.33-.15-.67-.28-1-.45a1.08,1.08,0,0,0-1.26.16,7.51,7.51,0,0,1-2.22,1.26,1.09,1.09,0,0,0-.77,1c-.08.9-.18,1.8-.27,2.69,0,.05,0,.09,0,.15H11.66c-.06-.55-.12-1.1-.17-1.65s-.1-1-.16-1.44a.84.84,0,0,0-.54-.7,9.87,9.87,0,0,1-2.6-1.48.91.91,0,0,0-1-.07L4.69,22l-.27.11-2.33-4,1.39-1c.36-.26.72-.52,1.09-.77A.91.91,0,0,0,5,15.42a9,9,0,0,1,0-2.83.94.94,0,0,0-.43-1L2.35,10.07l-.26-.19,2.33-4c.89.4,1.77.77,2.63,1.18a1.15,1.15,0,0,0,1.36-.16,7.44,7.44,0,0,1,2.18-1.23,1.12,1.12,0,0,0,.79-1.08c.07-.93.18-1.85.27-2.79h4.7c.07.73.15,1.46.22,2.19,0,.29.06.58.1.87a.82.82,0,0,0,.55.72A10,10,0,0,1,19.8,7.07a.91.91,0,0,0,1,.08l2.8-1.25,2.33,4-.26.19c-.72.51-1.44,1-2.17,1.53a1,1,0,0,0-.46,1,9.25,9.25,0,0,1,0,2.78.93.93,0,0,0,.44,1l2.45,1.73Zm-5-9.56-1.93,1.19.93,1.53,1-.63a4.48,4.48,0,0,1-1.15,2.47,4.72,4.72,0,0,1-4.29,1.54c-.1.6-.19,1.17-.29,1.73A6.53,6.53,0,0,0,20.42,15l.65.54,1.15-1.38-1.75-1.46C19.63,12,19.52,12,18.6,12.53Zm-3.82-5a6.35,6.35,0,0,0-3.89.77A6.52,6.52,0,0,0,7.58,13l-.65-.54L5.78,13.87c.74.61,1.45,1.22,2.17,1.8a.87.87,0,0,0,1,.06l.86-.53,1.5-.92-.94-1.53-1,.63a4.54,4.54,0,0,1,1.35-2.69,4.74,4.74,0,0,1,3.86-1.35C14.64,8.75,14.71,8.18,14.78,7.57Zm4,2.08a6.28,6.28,0,0,0-2.11-1.54c-.25.55-.49,1.08-.72,1.57l1.55,1.13ZM9,18.1a6.37,6.37,0,0,0,1.72,1.47l.88-1.5L10.34,17Z"/></g></g></svg>