<svg xmlns="http://www.w3.org/2000/svg" xmlns:xlink="http://www.w3.org/1999/xlink" width="750" height="505.18" viewBox="0 0 750 505.18">
  <defs>
    <clipPath id="clip-path">
      <rect id="Rectangle_2045" data-name="Rectangle 2045" width="750" height="500" fill="none"/>
    </clipPath>
    <clipPath id="clip-path-2">
      <path id="Path_25315" data-name="Path 25315" d="M284.09,248.05l-24-22.53a22.34,22.34,0,0,0-16.71-8.27l-36.88-1.08a8.1,8.1,0,0,0-1.11.05l-.05-.06-6.91.14a25.62,25.62,0,0,0-23.38,15.59,25.28,25.28,0,0,0-1.23,3.9l-6.4,28.9a3.32,3.32,0,0,0,3.14,4l18.58.59L185,322.86h77.79l-1.91-50.74,23.39-18.88a3.66,3.66,0,0,0-.18-5.19Z" fill="none"/>
    </clipPath>
  </defs>
  <g id="Group_1102" data-name="Group 1102" transform="translate(-1069.739 -197.867)">
    <g id="Layer_2" data-name="Layer 2" transform="translate(1069.739 197.867)">
      <g id="OBJECTS">
        <g id="Group_1099" data-name="Group 1099" opacity="0.3">
          <path id="Path_25208" data-name="Path 25208" d="M627.71,113.17S611.1-14.39,474.76,11.45,253.39,229.36,146.42,181.62,115.16,33.32,171.6,51.77C225.69,69.46,549.17,247.9,646.24,184.13" fill="none" stroke="#99bcd4" stroke-linecap="round" stroke-miterlimit="10" stroke-width="3" stroke-dasharray="7 0 0 7 0 0"/>
          <path id="Path_25209" data-name="Path 25209" d="M650.28,193.8l7.24-19.33-20.36,3.39Z" fill="#d4edfe"/>
        </g>
        <path id="Path_25216" data-name="Path 25216" d="M30.1,22.936a3.128,3.128,0,0,1,.259,4.417h0a3.128,3.128,0,0,1-4.417.259L1.05,5.471A3.128,3.128,0,0,1,.791,1.054h0A3.128,3.128,0,0,1,5.207.787Z" transform="translate(168.647 115.67) rotate(103)" fill="#0091ff"/>
        <path id="Path_25217" data-name="Path 25217" d="M40.478,6.153A24.312,24.312,0,1,1,22.881.042a24.312,24.312,0,0,1,17.6,6.111Z" transform="translate(203.145 93.35) rotate(103)" fill="#0091ff"/>
        <path id="Path_25218" data-name="Path 25218" d="M32.684,4.958A19.636,19.636,0,1,1,4.968,6.579,19.636,19.636,0,0,1,32.684,4.958Z" transform="translate(197.51 96.846) rotate(103)" fill="#d4edfe"/>
        <path id="Path_25219" data-name="Path 25219" d="M296.59,119.58s-15.32-10.7-32.24,7.81c0,0,11.5-51.69,48.94-34.94l1.59,18.14Z" fill="#2b2b39"/>
        <path id="Path_25220" data-name="Path 25220" d="M318,139.15s12,14.3-4.89,32.81c0,0,50.45-16.08,30.42-51.87H325.32Z" fill="#2b2b39"/>
        <path id="Path_25221" data-name="Path 25221" d="M368.79,94.29a114.649,114.649,0,0,0,10.37-17.58,63.92,63.92,0,0,1-14.47-10,64,64,0,0,1-11.26-13.52A114.391,114.391,0,0,0,336.85,65.1C312.49,86,291.2,129.87,291.2,129.87l8.57,7.84,8.58,7.84S350.17,120.42,368.79,94.29Z" fill="#0091ff"/>
        <path id="Path_25222" data-name="Path 25222" d="M364.69,66.7a59,59,0,0,0,14.55,9.85c9.63-20.43,8.41-35,8.41-35s-14.58.09-34.07,11.5A59.471,59.471,0,0,0,364.69,66.7Z" fill="#2b2b39"/>
        <path id="Path_25223" data-name="Path 25223" d="M288.23,133.12l17.15,15.68c4.19,3.83,10.13-2.66,5.94-6.49l-17.15-15.68c-4.19-3.83-10.13,2.66-5.94,6.49Z" fill="#acdbff"/>
        <path id="Path_25224" data-name="Path 25224" d="M359.28,96.43a16.06,16.06,0,1,1-1-22.69,16.06,16.06,0,0,1,1,22.69Z" fill="#fff"/>
        <path id="Path_25225" data-name="Path 25225" d="M355.49,93a10.93,10.93,0,1,1-.7-15.44A10.93,10.93,0,0,1,355.49,93Z" fill="#acdbff"/>
        <path id="Path_25226" data-name="Path 25226" d="M313.29,92.45l30.36,27.75c1.35-1.13,2.7-2.29,4-3.46L316.38,88.11Q314.8,90.27,313.29,92.45Z" fill="#acdbff"/>
        <path id="Path_25227" data-name="Path 25227" d="M303.6,107.43l26,23.77c1.4-1,2.84-2.11,4.3-3.22l-27.48-25.13Q305,105.19,303.6,107.43Z" fill="#acdbff"/>
        <path id="Path_25228" data-name="Path 25228" d="M288.79,149.73a21.917,21.917,0,0,1,.4-2.79,41.1,41.1,0,0,1,1.93-6.54,47.712,47.712,0,0,1,4.05-8,55.141,55.141,0,0,1,13.39-14.68,47.128,47.128,0,0,1,7.65-4.75c1.23-.6,2.39-1.11,3.47-1.52s2.05-.74,2.88-1a20.8,20.8,0,0,1,2.75-.64,21.928,21.928,0,0,1-.4,2.79q-.24,1.275-.72,3c-.32,1.15-.72,2.31-1.2,3.58a47.418,47.418,0,0,1-4.05,8,55.561,55.561,0,0,1-13.42,14.65,47.561,47.561,0,0,1-7.65,4.75,40.128,40.128,0,0,1-6.34,2.51,22.279,22.279,0,0,1-2.74.64Z" fill="#2b2b39"/>
        <rect id="Rectangle_2046" data-name="Rectangle 2046" width="24.85" height="7.64" transform="translate(587.24 164.38)" fill="#0091ff"/>
        <path id="Path_25229" data-name="Path 25229" d="M624.41,130.14a24.75,24.75,0,1,0-37.17,21.37v9.11h24.85v-9.11a24.7,24.7,0,0,0,12.32-21.37Z" fill="#ffbf27"/>
        <path id="Path_25230" data-name="Path 25230" d="M610.72,142.43h-4.75v-3.91h-2.02v3.91h-8.56v-3.91h-2.02v3.91h-4.75v2.02h4.75v16.17h2.02V144.45h8.56v16.17h2.02V144.45h4.75Z" fill="#fff"/>
        <path id="Path_25231" data-name="Path 25231" d="M622.76,95.8l-7.23,8.39a.84.84,0,0,0,1.27,1.1L624,96.9a.84.84,0,0,0-1.24-1.1Z" fill="#ffbf27"/>
        <path id="Path_25232" data-name="Path 25232" d="M636.94,113l-10.43,3.78a.842.842,0,0,0,.58,1.58l10.42-3.78a.84.84,0,1,0-.57-1.58Z" fill="#ffbf27"/>
        <path id="Path_25233" data-name="Path 25233" d="M598.83,90.83v11.08a.84.84,0,1,0,1.68,0V90.83a.84.84,0,0,0-1.68,0Z" fill="#ffbf27"/>
        <path id="Path_25234" data-name="Path 25234" d="M576.57,95.8a.84.84,0,0,0-1.27,1.1l7.24,8.39a.84.84,0,0,0,1.27-1.1Z" fill="#ffbf27"/>
        <path id="Path_25235" data-name="Path 25235" d="M572.82,116.77,562.4,113a.84.84,0,1,0-.57,1.58l10.42,3.78a.845.845,0,1,0,.57-1.59Z" fill="#ffbf27"/>
        <line id="Line_150" data-name="Line 150" x1="25.94" y2="130.99" transform="translate(182.93 369.29)" fill="none" stroke="#2b2b39" stroke-miterlimit="10" stroke-width="9.4"/>
        <line id="Line_151" data-name="Line 151" x2="25.93" y2="130.99" transform="translate(250.05 369.29)" fill="none" stroke="#2b2b39" stroke-miterlimit="10" stroke-width="9.4"/>
        <path id="Path_25257" data-name="Path 25257" d="M197.78,204.34h17.56a32.89,32.89,0,0,1,32.89,32.89V358h32.83v18.67h-97.5A18.67,18.67,0,0,1,164.89,358V237.23a32.89,32.89,0,0,1,32.89-32.89Z" fill="#d4edfe"/>
        <path id="Path_25258" data-name="Path 25258" d="M247.78,451.24l-5.26,27.3,15.4,1.03,9.89-28.33Z" fill="#f8bd8c"/>
        <path id="Path_25259" data-name="Path 25259" d="M264.34,474l3.6,3.4,21,19.27a2,2,0,0,1-1.42,3.56l-44.16-1a2.26,2.26,0,0,1-2.22-2.35l.22-22.19Z" fill="#2b2b39"/>
        <path id="Path_25260" data-name="Path 25260" d="M289,496.68l-.73-.67a2,2,0,0,1-1.39.53l-44.16-1a2.26,2.26,0,0,1-1.5-.62v2a2.26,2.26,0,0,0,2.22,2.35l44.16,1a2,2,0,0,0,1.4-3.59Z" fill="#111"/>
        <path id="Path_25261" data-name="Path 25261" d="M282.1,496.83a.535.535,0,0,0,.01-1.07l-40.87-.69a.51.51,0,0,0-.55.53.54.54,0,0,0,.53.55l40.87.68Z" fill="#fff"/>
        <path id="Path_25262" data-name="Path 25262" d="M247.23,489.3a4.36,4.36,0,1,1,.87.09,4.282,4.282,0,0,1-.87-.09Zm-2.45-5a3.37,3.37,0,1,0,4-2.65,2.88,2.88,0,0,0-.65-.07,3.39,3.39,0,0,0-3.35,2.7Z" fill="#fff"/>
        <path id="Path_25268" data-name="Path 25268" d="M260.67,312.28S310.8,329.51,308,351.9,265.11,457,265.11,457l-19.65-3.49,1.09-52.59c5.65-20.29,8.06-31.61,15.55-40.55l-41.19-6.31S230.4,312.82,260.67,312.28Z" fill="#2b2b39"/>
        <path id="Path_25271" data-name="Path 25271" d="M350.67,418.77l13.13,16.14,13.26-9.34-12.19-20.16Z" fill="#f8bd8c"/>
        <path id="Path_25272" data-name="Path 25272" d="M378.33,418l4.92.47,28.44,2.29a2,2,0,0,1,1.06,3.68L377.3,450.78a2.27,2.27,0,0,1-3.19-.5l-13.46-17.64Z" fill="#2b2b39"/>
        <path id="Path_25273" data-name="Path 25273" d="M411.69,420.74l-1-.08a2,2,0,0,1-.78,1.27l-35.44,26.36a2.23,2.23,0,0,1-1.56.43l1.19,1.56a2.27,2.27,0,0,0,3.19.5l35.45-26.36a2,2,0,0,0-1.05-3.68Z" fill="#111"/>
        <path id="Path_25274" data-name="Path 25274" d="M406.35,425.08a.54.54,0,0,0-.65-.86L373,448.79a.53.53,0,0,0-.11.75.54.54,0,0,0,.76.11l32.67-24.57Z" fill="#fff"/>
        <path id="Path_25275" data-name="Path 25275" d="M374.22,440.55a4.527,4.527,0,1,1,2.2-2.62,4.5,4.5,0,0,1-1.48,2.12,5.093,5.093,0,0,1-.72.5Zm-5-2.45a3.38,3.38,0,1,0,1.49-4.53,3.938,3.938,0,0,0-.55.35,3.4,3.4,0,0,0-.96,4.18Z" fill="#fff"/>
        <path id="Path_25281" data-name="Path 25281" d="M373.56,416.33l-17.21,11s-13.5-12.51-30.18-27.29-32.23-32.2-38.74-45.39c0,0-49.21,21.24-75.89,15.94-11.11-2.2-16.11-9.81-18.17-17.94-.3-1.21-.55-2.44-.73-3.66-1.56-10.24.56-28.88.56-28.88s62.77-2.78,95.09-1.66q3.39.1,6.29.42a35.559,35.559,0,0,1,7.69,1.55c4.11,1.44,9.22,5.76,14.8,11.83.2.22.39.44.6.66C341.52,359.22,373.56,416.33,373.56,416.33Z" fill="#2b2b39"/>
        <path id="Path_25282" data-name="Path 25282" d="M317.07,332.24c-17.62,3.12-25.62-7.44-28.78-13.8q3.39.1,6.29.42a35.561,35.561,0,0,1,7.69,1.55C306.38,321.85,311.49,326.17,317.07,332.24Z" fill="#fff" opacity="0.1"/>
        <path id="Path_25286" data-name="Path 25286" d="M273.22,242l14.68,16.7,29.72-29.14,13.12,8.55-23.63,44.6A19.07,19.07,0,0,1,273.89,290l-15-18.28Z" fill="#f8bd8c"/>
        <path id="Path_25287" data-name="Path 25287" d="M283.4,267a.59.59,0,0,1-.26-.07.51.51,0,0,1-.18-.69l4.92-8.4a.51.51,0,0,1,.69-.18.49.49,0,0,1,.18.68l-4.92,8.41A.5.5,0,0,1,283.4,267Z" fill="#7c4e37"/>
        <path id="Path_25288" data-name="Path 25288" d="M322.42,225.31h0l1.09-.84h0c5.77-4.44,11.16-11.3,16.91-15.77a5.141,5.141,0,0,1,1.37-.85,2.47,2.47,0,0,1,3.28,2.43,4,4,0,0,1-1.22,2.45c-.84.9-1.7,1.78-2.53,2.69a1.13,1.13,0,0,0,1.27,1.81c4.07-1.72,8.13-3.43,12.19-5.16a3.83,3.83,0,0,1,2.52-.43,2,2,0,0,1,.94,2.9,3.939,3.939,0,0,1-1.13.89c-2.59,1.54-5.12,3.19-7.77,4.62-2.06,1.12-3.21,2.13-4.77,2.81.51-.22,1.24-.62,1.76-.84,3.11-1.34,6.23-2.64,9.28-4.11a3.2,3.2,0,0,1,1.62-.25,1.65,1.65,0,0,1,.94.42,1.31,1.31,0,0,1,.43.91,1.52,1.52,0,0,1-.48,1.09,6.6,6.6,0,0,1-1.66,1.27c-1.75,1-3.52,1.91-5.27,2.88s-3.69,1.85-5.41,3a8,8,0,0,1,1.6-.67c1.1-.42,2.21-.81,3.32-1.19s2.4-1,3.58-.51a1.35,1.35,0,0,1,.93,1.17,1.2,1.2,0,0,1-.25.68,4.39,4.39,0,0,1-2,1.29l-2.1.92c-1.41.62-2.83,1.24-4.25,1.84l-2.43,1.06,3.33-.51c1.27-.21,3.6.06,3.61,1.35a1.48,1.48,0,0,1-1.26,1.49l-19.38,4.62" fill="#9b6446"/>
        <path id="Path_25289" data-name="Path 25289" d="M322.4,225.28l1.09-.84h0c5.77-4.44,11.16-11.3,16.91-15.77a5.14,5.14,0,0,1,1.37-.85,2.47,2.47,0,0,1,3.28,2.43,4,4,0,0,1-1.22,2.45c-.84.9-1.7,1.78-2.53,2.69a1.13,1.13,0,0,0,1.27,1.81c4.07-1.72,8.13-3.43,12.19-5.16a3.83,3.83,0,0,1,2.52-.43,2,2,0,0,1,.94,2.9,3.939,3.939,0,0,1-1.13.89c-2.59,1.54-5.12,3.19-7.77,4.62-2.06,1.12-3.21,2.13-4.77,2.81.51-.22,1.24-.62,1.76-.84,3.11-1.34,6.23-2.64,9.28-4.11a3.2,3.2,0,0,1,1.62-.25,1.65,1.65,0,0,1,.94.42,1.31,1.31,0,0,1,.43.91,1.52,1.52,0,0,1-.48,1.09,6.6,6.6,0,0,1-1.66,1.27c-1.75,1-3.52,1.91-5.27,2.88s-3.69,1.85-5.41,3a8,8,0,0,1,1.6-.67c1.1-.42,2.21-.81,3.32-1.19s2.4-1,3.58-.51a1.35,1.35,0,0,1,.93,1.17,1.2,1.2,0,0,1-.25.68,4.39,4.39,0,0,1-2,1.29l-2.1.92c-1.41.62-2.83,1.24-4.25,1.84l-2.43,1.06,3.33-.51c1.27-.21,3.6.06,3.61,1.35a1.48,1.48,0,0,1-1.26,1.49l-19.38,4.62-8.83,1.49Z" fill="#f8bd8c"/>
        <path id="Path_25290" data-name="Path 25290" d="M335,223.72h0a.541.541,0,0,1-.1-.16.5.5,0,0,1,0-.38.49.49,0,0,1,.27-.26c5.37-2.17,5.41-6.87,5.41-7.07a.49.49,0,0,1,.15-.35.48.48,0,0,1,.34-.14.5.5,0,0,1,.35.14.48.48,0,0,1,.14.34,9.18,9.18,0,0,1-6,8,.53.53,0,0,1-.39,0Zm.34-.36Z" fill="#e3a36f"/>
        <path id="Path_25291" data-name="Path 25291" d="M284.09,248.05l-24-22.53a22.34,22.34,0,0,0-16.71-8.27l-36.88-1.08a8.1,8.1,0,0,0-1.11.05l-.05-.06-6.91.14a25.62,25.62,0,0,0-23.38,15.59,25.28,25.28,0,0,0-1.23,3.9l-6.4,28.9a3.32,3.32,0,0,0,3.14,4l18.58.59L185,322.86h77.79l-1.91-50.74,23.39-18.88a3.66,3.66,0,0,0-.18-5.19Z" fill="#0091ff"/>
        <path id="Path_25292" data-name="Path 25292" d="M255.38,158.11a7.8,7.8,0,0,0-6.92-6.15,6.39,6.39,0,0,0-1.07,0c-3.79-3.27-6.43-6.81-13.06-5.95a9.09,9.09,0,0,0-6.39,3.78,7.235,7.235,0,0,0-.55.94c-.13.26-3.51.64-4,.77-3.16.87-7.21,2.18-8.79,5.31a10.79,10.79,0,0,0-1,4.51,7.67,7.67,0,0,0-2.39,8.27l2.49,7.84a6.2,6.2,0,0,1,1.62-.21h4.18c1.06.69,2.54,1.38,3.2.4a30.326,30.326,0,0,0,1.12-3.82c.05-.89.07-1.78.11-2.67a29.228,29.228,0,0,1,.36-5.29,5.76,5.76,0,0,0,4,1.58h6.39a6.8,6.8,0,0,0,4.88-2.06,5.828,5.828,0,0,0,.73-.1,5.78,5.78,0,0,0,5.39,3.72h3.15a4.436,4.436,0,0,1,.14.51c.16.9,1.37.3,2.59-1.15a6.85,6.85,0,0,0,4-6.2v-4Z" fill="#2b2b39"/>
        <path id="Path_25293" data-name="Path 25293" d="M245.71,169a5.79,5.79,0,0,1-5.58-4.23,6.83,6.83,0,0,1-5.42,2.67h-6.39a5.78,5.78,0,0,1-5.4-3.73V177.2h-7.54a6.2,6.2,0,0,0-1.62.21,6.72,6.72,0,0,0-5.09,6.5v.66a6.73,6.73,0,0,0,6.71,6.71h1.79l-1.79,22.42a11.91,11.91,0,0,0,10.92,12.82l1.15.09a11.9,11.9,0,0,0,12.82-10.92l.68-8.44a10.88,10.88,0,0,0,10.69-10.87V170.14a11.548,11.548,0,0,0-.15-1.78,6.88,6.88,0,0,1-2.79.6Z" fill="#f8bd8c"/>
        <path id="Path_25294" data-name="Path 25294" d="M214.61,186.83a.51.51,0,0,1-.28-.93l1.81-1.18-2.07-2.3a.51.51,0,0,1,0-.71.5.5,0,0,1,.71,0l2.46,2.74a.48.48,0,0,1-.1.75l-2.3,1.51a.53.53,0,0,1-.23.12Z" fill="#7c4e37"/>
        <path id="Path_25296" data-name="Path 25296" d="M248.27,181.93a1.37,1.37,0,1,1-1.589-1.108A1.38,1.38,0,0,1,248.27,181.93Z" fill="#111"/>
        <path id="Path_25298" data-name="Path 25298" d="M228.16,177.2a5.88,5.88,0,0,0,2.39-.2c.83-.19,1.68-.35,2.41-.46s1.59-.23,2.44-.31a5.8,5.8,0,0,0,2.34-.54c.59-.37.72-1.18-.18-2a6.6,6.6,0,0,0-5.29-1.14,6.41,6.41,0,0,0-4.62,2.7C227.07,176.31,227.48,177,228.16,177.2Z" fill="#2b2b39"/>
        <path id="Path_25299" data-name="Path 25299" d="M251.45,177.28a3.41,3.41,0,0,1-1.65-.15c-.57-.14-1.15-.26-1.66-.35s-1.09-.17-1.68-.23a3.56,3.56,0,0,1-1.59-.42c-.4-.29-.48-.92.16-1.57a4.27,4.27,0,0,1,3.69-.91,4.19,4.19,0,0,1,3.13,2.1C252.22,176.58,251.93,177.15,251.45,177.28Z" fill="#2b2b39"/>
        <path id="Path_25300" data-name="Path 25300" d="M236.36,182.4a1.49,1.49,0,1,1-.357-1.087,1.5,1.5,0,0,1,.357,1.087Z" fill="#111"/>
        <path id="Path_25301" data-name="Path 25301" d="M233.32,183.86A2.15,2.15,0,0,1,236,184" fill="#9b6446"/>
        <path id="Path_25303" data-name="Path 25303" d="M245.86,183.76a2.94,2.94,0,0,1,2.32,0" fill="#9b6446"/>
        <path id="Path_25305" data-name="Path 25305" d="M232.11,188.46a1.21,1.21,0,0,1,1.49.14,8.4,8.4,0,0,0,4.73,2.15A.87.87,0,0,1,239,192c-.55,1.14-2,2.92-5,1.5C230.25,191.77,230.9,189.26,232.11,188.46Z" transform="matrix(0.883, -0.469, 0.469, 0.883, -56.16, 133.251)" fill="#fff"/>
        <path id="Path_25306" data-name="Path 25306" d="M240.88,207.31s-12.24.79-15.26-4.17c0,0,1.68,10.86,14.71,11Z" fill="#e3a36f"/>
        <path id="Path_25316" data-name="Path 25316" d="M245.07,303l-43.39-24.58,1.71-8.87L172,268.59l-1.64,8.27c-3,20.73,23.66,30.78,23.66,30.78l42.48,14.28" fill="#f8bd8c"/>
        <path id="Path_25317" data-name="Path 25317" d="M201.83,278.12h-.09a.51.51,0,0,1-.4-.59L203,269h4.09a1.45,1.45,0,0,0,1.45-1.39l1.09-23a.49.49,0,0,1,.52-.48.5.5,0,0,1,.48.53l-1.08,23a2.45,2.45,0,0,1-2.48,2.35h-3.26l-1.49,7.69a.49.49,0,0,1-.49.42Z" fill="#0277cf"/>
        <path id="Path_25318" data-name="Path 25318" d="M191,282.4a.5.5,0,0,1-.48-.34.52.52,0,0,1,.32-.64l10.59-3.55a.5.5,0,0,1,.64.32.49.49,0,0,1-.32.63l-10.59,3.55A.451.451,0,0,1,191,282.4Z" fill="#7c4e37"/>
        <path id="Path_25319" data-name="Path 25319" d="M234.81,320.49a7.49,7.49,0,0,0,2.47,2.41l14.09,7.68c2.52,1.54,6.09.27,5.07-1.75,1.59,1.66,3.92,2.91,5.75.77,1.14-1.07.78-2.23,0-3.29,1.49,1.48,3.23,2.64,4.88,1,2.05-1.55,1.14-3.46-.21-5,1.13.89,2.46,1.37,3.7.13,3.23-3.85-2.31-7-5.39-9.29-1.53-1-2.92-1.89-4.21-2.75a14.63,14.63,0,0,0,4.91-2,1.9,1.9,0,0,0,.93-1.37,1.44,1.44,0,0,0-.62-1.11,4,4,0,0,0-1.2-.54c-3.92-1.22-15.86-2.59-15.86-2.59a26.289,26.289,0,0,0-4.05.24" fill="#e3a36f"/>
        <path id="Path_25320" data-name="Path 25320" d="M259.86,323.84c.2.18.42.41.65.66C260.27,324.26,260,324,259.86,323.84Z" fill="#9b6446"/>
        <path id="Path_25321" data-name="Path 25321" d="M261,310.35l-7.64-4.19s9.41,2.3,10.73,3.19Z" fill="#7c4e37"/>
        <path id="Path_25322" data-name="Path 25322" d="M262.26,319.61a.48.48,0,0,1,0-.55.47.47,0,0,1,.65-.14,54.255,54.255,0,0,1,4.94,3.52.457.457,0,1,1-.67.62,53.14,53.14,0,0,0-4.74-3.35A.4.4,0,0,1,262.26,319.61Z" fill="#7c4e37"/>
        <path id="Path_25323" data-name="Path 25323" d="M258.23,324.24a.45.45,0,0,1,0-.55.47.47,0,0,1,.65-.12l3.92,2.65a.472.472,0,0,1-.53.78l-3.92-2.66A.32.32,0,0,1,258.23,324.24Z" fill="#7c4e37"/>
        <path id="Path_25324" data-name="Path 25324" d="M254,327.65a.47.47,0,0,1,.64-.68l2.08,1.48a.48.48,0,0,1,.11.66.47.47,0,0,1-.65.11l-2.08-1.48Z" fill="#7c4e37"/>
        <path id="Path_25330" data-name="Path 25330" d="M229,318.74s2.92-12.15,9.88-19.36a7.24,7.24,0,0,1,5.14,1.78,49.4,49.4,0,0,0-10.37,20.29,6.66,6.66,0,0,1-4.65-2.71Z" fill="#2b2b39"/>
        <path id="Path_25331" data-name="Path 25331" d="M242.78,309.37a6.84,6.84,0,1,0-3.982,3.411,6.84,6.84,0,0,0,3.982-3.411Z" fill="#2b2b39"/>
        <path id="Path_25332" data-name="Path 25332" d="M238.94,301.87a4.92,4.92,0,1,0,2.14,6.63A4.92,4.92,0,0,0,238.94,301.87Z" fill="#fff"/>
        <path id="Path_25333" data-name="Path 25333" d="M215.51,216.67s1.31,9.27,11.25,9.88,13.15-9.4,13.15-9.4" fill="none" stroke="#0277cf" stroke-linecap="round" stroke-miterlimit="10" stroke-width="0.92"/>
        <path id="Path_25334" data-name="Path 25334" d="M317.62,229.58l4.78-4.3s.69,9.05.51,9.05-3.7-1.51-3.7-1.51Z" fill="#e3a36f"/>
        <line id="Line_152" data-name="Line 152" y1="14.93" transform="translate(260.8 257.49)" fill="none" stroke="#0277cf" stroke-linecap="round" stroke-miterlimit="10" stroke-width="1"/>
        <line id="Line_153" data-name="Line 153" x2="25.93" y2="130.99" transform="translate(508.43 369.29)" fill="none" stroke="#2b2b39" stroke-miterlimit="10" stroke-width="9.4"/>
        <line id="Line_154" data-name="Line 154" x1="25.94" y2="130.99" transform="translate(441.31 369.29)" fill="none" stroke="#2b2b39" stroke-miterlimit="10" stroke-width="9.4"/>
        <path id="Path_25335" data-name="Path 25335" d="M519.51,204.34H502a32.88,32.88,0,0,0-32.89,32.89V358H436.23v18.67h97.5A18.67,18.67,0,0,0,552.4,358V237.23A32.88,32.88,0,0,0,519.51,204.34Z" fill="#d4edfe"/>
        <path id="Path_25336" data-name="Path 25336" d="M469.52,451.24l5.25,27.3-15.4,1.03-9.89-28.33Z" fill="#c1725c"/>
        <path id="Path_25337" data-name="Path 25337" d="M453,474l-3.6,3.4-21,19.27a2.05,2.05,0,0,0,1.43,3.56l44.16-1a2.26,2.26,0,0,0,2.21-2.35l-.21-22.19Z" fill="#263238"/>
        <path id="Path_25338" data-name="Path 25338" d="M428.32,496.68l.73-.67a2,2,0,0,0,1.39.53l44.16-1a2.22,2.22,0,0,0,1.5-.62v2a2.26,2.26,0,0,1-2.21,2.35l-44.16,1a2.05,2.05,0,0,1-1.41-3.59Z" fill="#111"/>
        <path id="Path_25339" data-name="Path 25339" d="M435.2,496.83a.53.53,0,0,1-.54-.53.52.52,0,0,1,.53-.54l40.87-.69a.53.53,0,0,1,.55.53.55.55,0,0,1-.53.55l-40.88.68Z" fill="#fff"/>
        <path id="Path_25340" data-name="Path 25340" d="M469.19,489.39a4.52,4.52,0,1,1,.87-.09,4.276,4.276,0,0,1-.87.09Zm0-7.83a2.939,2.939,0,0,0-.65.07,3.34,3.34,0,1,0,.65-.07Z" fill="#fff"/>
        <path id="Path_25346" data-name="Path 25346" d="M456.62,312.28s-50.13,17.23-47.36,39.62,42.216,105.251,42.216,105.251l20.354-3.641-1.08-52.59c-5.66-20.29-8.06-31.61-15.55-40.55l41.19-6.31s1.85-18.5-9.54-30.87C480.9,316.73,467,312.47,456.62,312.28Z" fill="#263238"/>
        <path id="Path_25349" data-name="Path 25349" d="M520.38,451.24l5.25,27.3-15.4,1.03-9.89-28.33Z" fill="#c1725c"/>
        <path id="Path_25350" data-name="Path 25350" d="M503.81,474l-3.6,3.4-21,19.27a2,2,0,0,0,1.42,3.56l44.16-1a2.26,2.26,0,0,0,2.22-2.35l-.22-22.19Z" fill="#263238"/>
        <path id="Path_25351" data-name="Path 25351" d="M479.18,496.68l.73-.67a2,2,0,0,0,1.39.53l44.16-1a2.26,2.26,0,0,0,1.5-.62v2a2.26,2.26,0,0,1-2.22,2.35l-44.16,1a2,2,0,0,1-1.4-3.59Z" fill="#111"/>
        <path id="Path_25352" data-name="Path 25352" d="M486.05,496.83a.535.535,0,1,1-.01-1.07l40.88-.69a.51.51,0,0,1,.54.53.54.54,0,0,1-.53.55l-40.87.68Z" fill="#fff"/>
        <path id="Path_25353" data-name="Path 25353" d="M520.05,489.39a4.46,4.46,0,1,1,4.37-5.31,4.36,4.36,0,0,1-.67,3.33,4.41,4.41,0,0,1-2.83,1.89,4.282,4.282,0,0,1-.87.09Zm0-7.83a2.88,2.88,0,0,0-.65.07,3.34,3.34,0,1,0,.65-.07Z" fill="#fff"/>
        <path id="Path_25359" data-name="Path 25359" d="M507.48,312.28s-50.13,17.23-47.36,39.62S503.05,457,503.05,457l19.64-3.49-1.09-52.59c-5.65-20.29-8.06-31.61-15.55-40.55l10.76-2.92a18.31,18.31,0,0,0,13.47-18.6C529.69,327,525.31,312.6,507.48,312.28Z" fill="#263238"/>
        <path id="Path_25362" data-name="Path 25362" d="M448.45,242.16l3.87-10.29a25.16,25.16,0,0,1,23.56-16.33h42.55A25.18,25.18,0,0,1,543,235.36l7.56,34.73-28.3,20.07,6.16,29.95c1.07-1.08-65.61,3.78-73.33.37l5.49-46.69Z" fill="#e28666"/>
        <path id="Path_25363" data-name="Path 25363" d="M448.45,242.16,433.68,259l-17.06-29.33-13.2,8.61,10.93,44.88a19.19,19.19,0,0,0,33.43,7.35l15.07-18.41Z" fill="#db7358"/>
        <path id="Path_25364" data-name="Path 25364" d="M438.21,267.24a.48.48,0,0,0,.26-.07.51.51,0,0,0,.18-.69L433.7,258a.51.51,0,0,0-.69-.18.5.5,0,0,0-.19.69l5,8.46a.5.5,0,0,0,.39.27Z" fill="#af4e4a"/>
        <path id="Path_25365" data-name="Path 25365" d="M448.45,242.16s3-9.28,4.71-12.53c6.48-12.64,13.41-14.34,23.44-14.09,3.9.1-6,17.08,14.82,17.08s11.5-16.59,17.8-17.08c11.07-.86,27.21-.46,33.16,17.43l11.41,35.43-35.07,1.43,9.84,50.6c3.41-.5-69.26,5.42-73.44.05l5.49-48.88Z" fill="#467b6c"/>
        <path id="Path_25366" data-name="Path 25366" d="M497.35,163.12a15.77,15.77,0,0,1,14.37-10.74c5.21-.15,10.57,1.63,10.85,9.46.54,15.29-.57,22.2-.35,23.85.06.48-1.09,7.95,9.8,9.56,0,0-19.1,22.54-27.45-.57C499.11,179.59,494.69,170.93,497.35,163.12Z" fill="#1f1f28"/>
        <path id="Path_25367" data-name="Path 25367" d="M512.86,190.46a13.88,13.88,0,0,0-1.51-12.76l-.22-5.18a14.39,14.39,0,0,0,0-1.61c.32-12.46-9.42-12.07-9.42-12.07a13.549,13.549,0,0,0-4.35-.63l-1.52.12-8.09-3a12.27,12.27,0,0,0-16.26,8.83L469.72,172l.87.11a26,26,0,0,0-1.29,5.9l-.65,6.62,2.52,13.24h26.5S510.41,198.29,512.86,190.46Z" fill="#2b2b39"/>
        <path id="Path_25368" data-name="Path 25368" d="M507,178.31l-2.25-.08L502,183.12a2,2,0,0,1-3.84-.78l-1-10.19a2.09,2.09,0,0,0-3.7-1.11l-2.27,2.82-7.94-.29L481.54,167l-1.36,6.48-6.64-.89-3.26,18.37a14.66,14.66,0,0,0,9.2,16.45l1,8.39a12.2,12.2,0,0,0,13.64,10.49h.27c6.75-.78,11.27,3.09,10.51-3.46l-1.79-30.22,3.4.12a7.12,7.12,0,0,0,7.34-6.85v-.16a7.12,7.12,0,0,0-6.85-7.41Z" fill="#e28666"/>
        <path id="Path_25369" data-name="Path 25369" d="M472.43,183a1.37,1.37,0,1,0,1.6-1.11,1.37,1.37,0,0,0-1.6,1.11Z" fill="#111"/>
        <path id="Path_25370" data-name="Path 25370" d="M483.57,183.49a1.5,1.5,0,0,0,3-.22,1.52,1.52,0,0,0-1.62-1.39,1.49,1.49,0,0,0-1.38,1.61Z" fill="#111"/>
        <path id="Path_25372" data-name="Path 25372" d="M490.45,177.91a4.419,4.419,0,0,1-1.81-.15c-.63-.14-1.27-.27-1.83-.35s-1.2-.17-1.85-.23a4.34,4.34,0,0,1-1.76-.42c-.45-.28-.55-.89.13-1.51a5,5,0,0,1,4-.86,4.84,4.84,0,0,1,3.5,2C491.28,177.24,491,177.78,490.45,177.91Z" fill="#2b2b39"/>
        <path id="Path_25373" data-name="Path 25373" d="M471,177.4a2.73,2.73,0,0,0,1.25-.11c.44-.11.87-.21,1.26-.27s.83-.13,1.27-.18a2.55,2.55,0,0,0,1.21-.31c.31-.22.36-.7-.12-1.2a3.26,3.26,0,0,0-2.8-.68,3.16,3.16,0,0,0-2.37,1.59C470.38,176.87,470.6,177.3,471,177.4Z" fill="#2b2b39"/>
        <path id="Path_25374" data-name="Path 25374" d="M486.62,185a2.15,2.15,0,0,0-2.65.18" fill="#e28666"/>
        <path id="Path_25378" data-name="Path 25378" d="M486,190a1.22,1.22,0,0,0-1.5.15,8.44,8.44,0,0,1-4.75,2.15.87.87,0,0,0-.63,1.26c.55,1.15,2.77,4.55,5.81,3.12A4.052,4.052,0,0,0,486,190Z" transform="matrix(0.921, 0.391, -0.391, 0.921, 109.812, -171.319)" fill="#fff"/>
        <path id="Path_25379" data-name="Path 25379" d="M478.94,180.23l-.54,5.61-1.41.09a1.11,1.11,0,0,0-1.27,1l-.14,1a1.55,1.55,0,0,0,1.31,1.74l2.55.38" fill="#e28666"/>
        <path id="Path_25380" data-name="Path 25380" d="M479.44,190.57h-.08l-2.55-.37a2.08,2.08,0,0,1-1.75-2.34l.14-1a1.62,1.62,0,0,1,.63-1.1,1.69,1.69,0,0,1,1.23-.32l.86-.06.49-5.16a.532.532,0,1,1,1.06.1l-.58,6.06-1.87.11a.74.74,0,0,0-.55.12.63.63,0,0,0-.23.39l-.14,1a1,1,0,0,0,.87,1.15l2.55.38a.53.53,0,0,1,.45.6.54.54,0,0,1-.53.44Z" fill="#af4e4a"/>
        <path id="Path_25381" data-name="Path 25381" d="M507.46,188a.52.52,0,0,1-.29-.09l-2.32-1.51a.51.51,0,0,1-.23-.37.52.52,0,0,1,.13-.43l2.47-2.75a.54.54,0,0,1,.75,0,.53.53,0,0,1,0,.75L506,185.82l1.8,1.17a.53.53,0,0,1-.29,1Z" fill="#af4e4a"/>
        <path id="Path_25382" data-name="Path 25382" d="M479.5,207.55s12.95,1,15.51-3.94h0s.29,8.24-14.67,11.26Z" fill="#af4e4a"/>
        <line id="Line_155" data-name="Line 155" x2="4.45" y2="2.32" transform="translate(503.36 159.02)" fill="none" stroke="#d03f23" stroke-linecap="round" stroke-miterlimit="10" stroke-width="3.13"/>
        <g id="Group_1101" data-name="Group 1101">
          <path id="Path_25392" data-name="Path 25392" d="M473,263.57a5.74,5.74,0,1,1-5.69-5.77A5.74,5.74,0,0,1,473,263.57Z" fill="#253f3d"/>
          <path id="Path_25396" data-name="Path 25396" d="M557.05,265.83a5.74,5.74,0,1,1-5.69-5.77,5.74,5.74,0,0,1,5.69,5.77Z" fill="#253f3d"/>
          <path id="Path_25404" data-name="Path 25404" d="M426.42,293.72c-.06-.23-.13-.46-.2-.7l-.6-2.08q-1.19-4.05-2.47-8.06c.22,0,.43-.05.66-.06a5.73,5.73,0,0,1,2.61,10.9Z" fill="#253f3d"/>
          <path id="Path_25405" data-name="Path 25405" d="M449.1,289.83a5.73,5.73,0,1,1-5.87-5.59,5.73,5.73,0,0,1,5.87,5.59Z" fill="#253f3d"/>
          <path id="Path_25408" data-name="Path 25408" d="M510.87,292a5.73,5.73,0,1,1-5.87-5.59A5.73,5.73,0,0,1,510.87,292Z" fill="#253f3d"/>
          <path id="Path_25409" data-name="Path 25409" d="M532,291.75a5.73,5.73,0,1,1-5.87-5.59,5.73,5.73,0,0,1,5.87,5.59Z" fill="#253f3d"/>
          <path id="Path_25410" data-name="Path 25410" d="M553.1,290.85a5.72,5.72,0,1,1-1.774-4.014A5.73,5.73,0,0,1,553.1,290.85Z" fill="#253f3d"/>
          <path id="Path_25411" data-name="Path 25411" d="M445.35,317.32a5.73,5.73,0,1,1-1.905-3.954,5.73,5.73,0,0,1,1.905,3.954Z" fill="#253f3d"/>
          <path id="Path_25412" data-name="Path 25412" d="M465.56,317.73a5.73,5.73,0,1,1-6.05-5.39,5.73,5.73,0,0,1,6.05,5.39Z" fill="#253f3d"/>
          <path id="Path_25413" data-name="Path 25413" d="M486.49,317.9a5.73,5.73,0,1,1-6.05-5.4,5.73,5.73,0,0,1,6.05,5.4Z" fill="#253f3d"/>
          <path id="Path_25414" data-name="Path 25414" d="M507.87,317.71a5.73,5.73,0,1,1-6.05-5.4,5.73,5.73,0,0,1,6.05,5.4Z" fill="#253f3d"/>
          <path id="Path_25415" data-name="Path 25415" d="M529.41,317a5.73,5.73,0,1,1-6-5.39A5.73,5.73,0,0,1,529.41,317Z" fill="#253f3d"/>
          <path id="Path_25416" data-name="Path 25416" d="M550.82,315.8a5.73,5.73,0,1,1-6.05-5.4,5.73,5.73,0,0,1,6.05,5.4Z" fill="#253f3d"/>
          <path id="Path_25417" data-name="Path 25417" d="M560.93,311.72a22.425,22.425,0,0,1-.29,2.4,4.658,4.658,0,0,1-.2,1,5.436,5.436,0,0,1-.06-.58A5.61,5.61,0,0,1,560.93,311.72Z" fill="#253f3d"/>
        </g>
        <path id="Path_25419" data-name="Path 25419" d="M462.31,276.66a.44.44,0,0,1-.41-.27l-2.73-6.23a19.32,19.32,0,0,1-.38-14.71l3.27-8.62a.46.46,0,0,1,.85.33l-3.27,8.61a18.43,18.43,0,0,0,.36,14l2.73,6.22a.45.45,0,0,1-.23.6A.41.41,0,0,1,462.31,276.66Z" fill="#253f3d"/>
        <path id="Path_25420" data-name="Path 25420" d="M416.62,229.63s-2.64-10.94-6.16-12.7S393,226.66,393,226.66l10.38,11.58Z" fill="#db7358"/>
        <path id="Path_25421" data-name="Path 25421" d="M451.49,267.69c-1.41,0-2.62.5-2.77,2.18-.61,3,2,4.11,4.44,4.35-2.38.46-1.1,4.33,1.87,5.44l15.79,6.85a8,8,0,0,0,3.66.5L528.2,308.2A19.27,19.27,0,0,0,554.15,288l-3.79-19.11-31.64.93,1.73,8.93-37.92-12a28.043,28.043,0,0,0-2.47-3.58s-9-9.2-12.66-11.71a4,4,0,0,0-1.24-.65,1.5,1.5,0,0,0-1.35.21,2,2,0,0,0-.54,1.69,15.871,15.871,0,0,0,1.53,5.47c-1.58-.52-3.26-1.09-5.1-1.74-4-1.1-10.28-3.7-11.41,1.57-.24,1.86,1,2.67,2.55,3-2.21-.1-4.43.38-4.39,3.14C447.13,266.71,449.26,267.41,451.49,267.69Zm2.64.23a3.808,3.808,0,0,1,1,.12Z" fill="#e28666"/>
        <path id="Path_25422" data-name="Path 25422" d="M520.29,278.48h.1a.5.5,0,0,0,.4-.59l-1.65-8.56h-4.12a1.47,1.47,0,0,1-1.47-1.4l-1.09-23.2a.5.5,0,0,0-.53-.48.51.51,0,0,0-.48.53l1.09,23.2a2.45,2.45,0,0,0,2.5,2.36h3.28l1.49,7.73A.5.5,0,0,0,520.29,278.48Z" fill="#253f3d"/>
        <path id="Path_25423" data-name="Path 25423" d="M465.8,258.2l8.59,3.7s-8.16-6.44-9.77-7Z" fill="#af4e4a" opacity="0.5"/>
        <path id="Path_25424" data-name="Path 25424" d="M457.12,263.21a.49.49,0,0,0,.47-.34.5.5,0,0,0-.31-.64,56.193,56.193,0,0,0-6.24-1.86.5.5,0,0,0-.53.48.51.51,0,0,0,.48.53,56,56,0,0,1,6,1.8A.509.509,0,0,0,457.12,263.21Z" fill="#af4e4a"/>
        <path id="Path_25425" data-name="Path 25425" d="M526.07,281.24a.506.506,0,1,0,.16-1l-10.66-3.58a.52.52,0,0,0-.64.32.5.5,0,0,0,.32.64l10.66,3.58Z" fill="#af4e4a"/>
        <path id="Path_25426" data-name="Path 25426" d="M455.86,269.68a.506.506,0,1,0,.15-1l-4.83-1.56a.5.5,0,0,0-.63.32.51.51,0,0,0,.32.64l4.83,1.56Z" fill="#af4e4a"/>
        <path id="Path_25427" data-name="Path 25427" d="M455.77,275.51a.51.51,0,0,0,.49-.36.5.5,0,0,0-.34-.63l-2.62-.78a.521.521,0,1,0-.29,1l2.62.78Z" fill="#af4e4a"/>
        <path id="Path_25430" data-name="Path 25430" d="M13.18,2.72h0a2.58,2.58,0,0,1-2.61,2.53L2.51,5.13A2.58,2.58,0,0,1,0,2.52H0A2.57,2.57,0,0,1,2.61,0l8.06.11A2.58,2.58,0,0,1,13.18,2.72Z" transform="translate(398.558 211.167) rotate(48)" fill="#db7358"/>
        <path id="Path_25431" data-name="Path 25431" d="M13.84,2.73h0a2.58,2.58,0,0,1-2.61,2.53l-8.7-.13A2.57,2.57,0,0,1,0,2.53H0A2.58,2.58,0,0,1,2.61,0l8.7.13a2.57,2.57,0,0,1,2.53,2.6Z" transform="translate(401.864 207.697) rotate(48)" fill="#db7358"/>
        <path id="Path_25432" data-name="Path 25432" d="M412.76,223.21h0a2.57,2.57,0,0,1-3.63,0L403,217a2.57,2.57,0,0,1,0-3.63h0a2.57,2.57,0,0,1,3.63,0l6.09,6.22a2.57,2.57,0,0,1,.04,3.62Z" fill="#db7358"/>
        <path id="Path_25433" data-name="Path 25433" d="M10.36,2.68h0a2.57,2.57,0,0,1-2.6,2.53L2.53,5.14A2.57,2.57,0,0,1,0,2.53H0A2.57,2.57,0,0,1,2.6,0L7.84.08a2.56,2.56,0,0,1,2.52,2.6Z" transform="translate(395.734 214.795) rotate(48)" fill="#db7358"/>
        <path id="Path_25434" data-name="Path 25434" d="M7.71,2.6h0a2.57,2.57,0,0,1-2.6,2.53H2.53A2.57,2.57,0,0,1,0,2.53H0A2.58,2.58,0,0,1,2.61,0H5.18A2.57,2.57,0,0,1,7.71,2.6Z" transform="translate(393.733 220.001) rotate(48)" fill="#db7358"/>
        <path id="Path_25435" data-name="Path 25435" d="M0,.46H0A.46.46,0,0,1,.46,0h8.2a.44.44,0,0,1,.45.46.46.46,0,0,1-.46.46H.45A.45.45,0,0,1,0,.46Z" transform="translate(400.071 212.525) rotate(48)" fill="#af4e4a"/>
        <path id="Path_25436" data-name="Path 25436" d="M0,.45H0A.45.45,0,0,1,.46,0L7.99.08a.46.46,0,0,1,.46.46.47.47,0,0,1-.47.45L.45.91A.45.45,0,0,1,0,.45Z" transform="translate(396.244 215.963) rotate(48)" fill="#af4e4a"/>
        <path id="Path_25437" data-name="Path 25437" d="M0,.57H0A.47.47,0,0,1,.45.1L6.37,0a.47.47,0,0,1,.46.46.44.44,0,0,1-.45.46l-5.91.1A.45.45,0,0,1,0,.57Z" transform="translate(393.698 219.933) rotate(48)" fill="#af4e4a"/>
        <path id="Path_25438" data-name="Path 25438" d="M341.81,246.2h-55a4.38,4.38,0,0,0-4.22,3.209L269.93,295.33H233.09a.84.84,0,0,0-.7,1.3L235.3,301h95.9L346,251.87a4.4,4.4,0,0,0-4.19-5.67Z" fill="#5f5f75"/>
        <path id="Path_25439" data-name="Path 25439" d="M335.93,301.11H273.1l14.23-51.59a4.36,4.36,0,0,1,4.21-3.21h55a4.41,4.41,0,0,1,4.22,5.68Z" fill="#2b2b39"/>
        <path id="Path_25440" data-name="Path 25440" d="M308.6,275.66a7.06,7.06,0,1,1,7.06,7,7.06,7.06,0,0,1-7.06-7Zm1.08,0a6,6,0,1,0,6-6,6,6,0,0,0-6,6Z" fill="#f6eee3"/>
        <rect id="Rectangle_2047" data-name="Rectangle 2047" width="530.7" height="12.74" transform="translate(112.8 300.14)" fill="#243036"/>
        <path id="Path_25441" data-name="Path 25441" d="M616.63,312.84H127.56c0,5.89,4.29,10.67,9.58,10.67H607.06C612.35,323.51,616.63,318.73,616.63,312.84Z" fill="#5b6367"/>
        <path id="Path_25442" data-name="Path 25442" d="M118.01,505.18l36.35-181.67H141.59L105.24,505.18Z" fill="#243036"/>
        <path id="Path_25443" data-name="Path 25443" d="M631.99,505.18,595.64,323.51H608.4l36.35,181.67Z" fill="#243036"/>
        <rect id="Rectangle_2049" data-name="Rectangle 2049" width="530.7" height="1.89" transform="translate(112.8 306.51)" fill="#f3fdff"/>
        <path id="Path_25444" data-name="Path 25444" d="M448,290h1.34v-2H398.71a6.08,6.08,0,0,0,0,12.16h50.64v-1.73H448Z" fill="#f0c86a"/>
        <path id="Path_25445" data-name="Path 25445" d="M448.36,290v8.43H401.89a4.17,4.17,0,0,1-4.11-4.22,4.25,4.25,0,0,1,1.21-3,4,4,0,0,1,2.9-1.23Z" fill="#fcf9ed"/>
        <path id="Path_25446" data-name="Path 25446" d="M448.36,292.13v1.29H403.09a.64.64,0,0,1-.64-.64h0a.64.64,0,0,1,.64-.64Z" fill="#ddd9c2"/>
        <path id="Path_25447" data-name="Path 25447" d="M448.36,295.31v1.28H403.09a.64.64,0,0,1-.64-.64h0a.64.64,0,0,1,.64-.64Z" fill="#ddd9c2"/>
        <path id="Path_25448" data-name="Path 25448" d="M448,277.84h1.34v-2H398.71a6.08,6.08,0,0,0,0,12.16h50.64v-1.73H448Z" fill="#d03f23"/>
        <path id="Path_25449" data-name="Path 25449" d="M448.36,277.84v8.43H401.89a4.17,4.17,0,0,1-4.11-4.22,4.25,4.25,0,0,1,1.21-3,4,4,0,0,1,2.9-1.23Z" fill="#fcf9ed"/>
        <path id="Path_25450" data-name="Path 25450" d="M448.36,280v1.29H403.09a.64.64,0,0,1-.64-.64h0a.64.64,0,0,1,.64-.64Z" fill="#ddd9c2"/>
        <path id="Path_25451" data-name="Path 25451" d="M448.36,283.14v1.29H403.09a.64.64,0,0,1-.64-.64h0a.65.65,0,0,1,.64-.65Z" fill="#ddd9c2"/>
        <path id="Path_25452" data-name="Path 25452" d="M509.7,300.73h84.5l.91-2.07c.58-1.31-.93-2.61-3-2.61h-78a3.22,3.22,0,0,0-3,1.48Z" fill="#2b2b39"/>
        <path id="Path_25453" data-name="Path 25453" d="M611.05,245.36l-10.18,43.06a2.53,2.53,0,0,1-2.47,2H535.67a2.54,2.54,0,0,1-2.47-3.13l10.18-43.06a2.53,2.53,0,0,1,2.47-2h62.73a2.54,2.54,0,0,1,2.47,3.13Z" fill="#2b2b39"/>
        <path id="Path_25454" data-name="Path 25454" d="M604.14,249.63l-.53,1.69h1.6l-.4,2h-1.85l-.58,1.84h-2.12l.59-1.83h-1.31l-.58,1.84h-2.12l.59-1.83h-1.6l.4-2h1.85l.53-1.68h-1.6l.4-2h1.85l.59-1.83h2.11l-.59,1.83h1.31l.59-1.83h2.11l-.59,1.84h1.6l-.4,2Zm-2.11,0h-1.31l-.53,1.69h1.31Z" fill="#d03f23"/>
        <path id="Path_25455" data-name="Path 25455" d="M580.58,268a5.63,5.63,0,0,1-5.45,4.91,4.32,4.32,0,0,1-4.37-4.91,5.63,5.63,0,0,1,5.45-4.91,4.32,4.32,0,0,1,4.37,4.91Z" fill="#5f5f75"/>
        <path id="Path_25456" data-name="Path 25456" d="M548.34,242.23,537.5,290.38h-1.83a2.54,2.54,0,0,1-2.47-3.13l10.18-43.06a2.53,2.53,0,0,1,2.47-2Z" fill="#5f5f75"/>
        <path id="Path_25457" data-name="Path 25457" d="M566.51,290.38l-2.14,10.23h6.28l2.14-10.23Z" fill="#5f5f75"/>
        <path id="Path_25458" data-name="Path 25458" d="M555.2,298.88l1.29-1.81a2.46,2.46,0,0,1,2-1h17.23a2.45,2.45,0,0,1,2.17,1.32l.87,1.66a1.16,1.16,0,0,1-1,1.7H556.15a1.16,1.16,0,0,1-.95-1.87Z" fill="#2b2b39"/>
      </g>
    </g>
  </g>
</svg>
