<svg xmlns="http://www.w3.org/2000/svg" viewBox="0 0 25.27 25.27"><defs><style>.cls-1{fill:#0091ff;}</style></defs><g id="Layer_2" data-name="Layer 2"><g id="Layer_1-2" data-name="Layer 1"><path class="cls-1" d="M24.85,15.4c-.75-.53-1.5-1.07-2.26-1.59a.31.31,0,0,1-.14-.31c0-.57,0-1.15,0-1.72a.3.3,0,0,1,.16-.32L24.8,9.91a.85.85,0,0,0,.29-1.29L22.39,4a.85.85,0,0,0-1.26-.4c-.82.37-1.65.73-2.47,1.11a.36.36,0,0,1-.36,0c-.51-.31-1-.6-1.54-.88a.31.31,0,0,1-.18-.28c-.08-.86-.19-1.71-.26-2.57a1,1,0,0,0-.62-1H9.58A1,1,0,0,0,9,1c-.07.86-.17,1.72-.25,2.58a.32.32,0,0,1-.19.28C8,4.1,7.48,4.39,7,4.7a.34.34,0,0,1-.35,0L4.17,3.63A.87.87,0,0,0,2.87,4L.2,8.59,0,9v.35A1.28,1.28,0,0,0,.53,10c.72.5,1.42,1,2.14,1.5a.34.34,0,0,1,.16.32c0,.58,0,1.15,0,1.73a.34.34,0,0,1-.16.32c-.72.5-1.42,1-2.14,1.5a1.28,1.28,0,0,0-.53.62v.35l1.7,2.94c.4.69.8,1.38,1.21,2.07a.83.83,0,0,0,1.17.38L6.6,20.56a.33.33,0,0,1,.38,0c.5.3,1,.59,1.52.86a.34.34,0,0,1,.2.3c.08.92.18,1.84.28,2.77a.8.8,0,0,0,.84.76h5.63a.8.8,0,0,0,.84-.78c.1-.93.2-1.85.29-2.78a.27.27,0,0,1,.18-.25c.51-.28,1-.57,1.53-.88a.37.37,0,0,1,.38,0l2.5,1.12a.85.85,0,0,0,1.21-.39l2.73-4.66A.83.83,0,0,0,24.85,15.4Zm-3.57,4.54-1.53-.68c-.3-.13-.61-.25-.9-.4a1,1,0,0,0-1.14.14,6.74,6.74,0,0,1-2,1.14,1,1,0,0,0-.7.94c-.07.81-.16,1.62-.25,2.43,0,0,0,.08,0,.13H10.52l-.15-1.49c0-.43-.09-.86-.14-1.3a.75.75,0,0,0-.49-.63,9.25,9.25,0,0,1-2.35-1.33.79.79,0,0,0-.88-.07l-2.27,1-.25.1c-.7-1.19-1.4-2.38-2.1-3.59l1.25-.89,1-.69a.81.81,0,0,0,.38-.85,8.45,8.45,0,0,1,0-2.56.83.83,0,0,0-.39-.87c-.67-.46-1.33-.93-2-1.41l-.23-.16L4,5.33c.81.35,1.6.69,2.38,1.06a1,1,0,0,0,1.22-.14,6.57,6.57,0,0,1,2-1.11,1,1,0,0,0,.72-1c.06-.84.16-1.67.25-2.52h4.23l.21,2c0,.26,0,.52.08.79a.77.77,0,0,0,.5.65,8.66,8.66,0,0,1,2.33,1.32.8.8,0,0,0,.88.07l2.53-1.12c.7,1.19,1.39,2.38,2.1,3.58l-.23.18c-.65.46-1.3.93-1.95,1.38a.87.87,0,0,0-.43.92,7.83,7.83,0,0,1,0,2.51.85.85,0,0,0,.4.88l2.22,1.57Zm-4.49-8.63L15,12.39l.85,1.37.93-.56a4.09,4.09,0,0,1-1,2.23,4.3,4.3,0,0,1-3.87,1.39c-.09.54-.18,1.05-.27,1.56a5.9,5.9,0,0,0,6.78-4.86L19,14l1-1.25-1.58-1.31C17.72,10.81,17.62,10.8,16.79,11.31ZM13.34,6.83a5.74,5.74,0,0,0-3.51.7,5.87,5.87,0,0,0-3,4.23l-.59-.48c-.35.42-.69.82-1,1.24.67.55,1.31,1.1,2,1.62a.77.77,0,0,0,.92.06l.78-.48,1.35-.83c-.29-.47-.56-.92-.85-1.38l-.93.57A4.11,4.11,0,0,1,9.67,9.65a4.21,4.21,0,0,1,3.48-1.22C13.21,7.9,13.28,7.38,13.34,6.83ZM17,8.71a5.84,5.84,0,0,0-1.91-1.39l-.64,1.42,1.39,1ZM8.11,16.34a5.58,5.58,0,0,0,1.55,1.32l.8-1.35-1.13-1Z"/></g></g></svg>