<svg xmlns="http://www.w3.org/2000/svg" viewBox="0 0 28 28"><defs><style>.cls-1{fill:#0091ff;}</style></defs><g id="Layer_2" data-name="Layer 2"><g id="Layer_1-2" data-name="Layer 1"><path class="cls-1" d="M28,20.34V27.4l-.6.6H.6L0,27.4v-7a.61.61,0,0,0,.05-.12l3.23-8.12a.89.89,0,0,1,1-.68H7.85l-.11-.2A7.14,7.14,0,0,1,6.9,5.4,7.11,7.11,0,0,1,11.29.54,15.86,15.86,0,0,1,13.45,0h1.1l.26.05a7.15,7.15,0,0,1,3.34,1.24,7.35,7.35,0,0,1,2.12,10c0,.06-.06.12-.11.21h3.56a.9.9,0,0,1,1,.69q1.14,2.88,2.29,5.76C27.34,18.73,27.67,19.54,28,20.34ZM26.35,21.4H1.66v4.94H26.35ZM2,19.73H26c0-.08,0-.14-.06-.2q-1.25-3.11-2.47-6.21a.27.27,0,0,0-.3-.2c-1.19,0-2.38,0-3.58,0a2.51,2.51,0,0,0-1.51.42,7.29,7.29,0,0,1-8.49-.28.7.7,0,0,0-.39-.13H4.66Zm11.15-18a5.73,5.73,0,0,0,0,11.34c0-.49,0-1,0-1.47a.33.33,0,0,0-.23-.34,2.42,2.42,0,0,1-1.42-2.19.82.82,0,0,1,.53-.79.75.75,0,0,1,.89.23,1.5,1.5,0,0,1,.22.59.84.84,0,0,0,.85.76.83.83,0,0,0,.79-.79.82.82,0,0,0-.77-.84l-.46-.05a2.33,2.33,0,0,1-1.87-1.54A2.42,2.42,0,0,1,13,3.49a.32.32,0,0,0,.16-.22C13.19,2.76,13.18,2.25,13.18,1.71Zm1.64,0c0,.48,0,1,0,1.42a.37.37,0,0,0,.24.41,2.38,2.38,0,0,1,1.4,2.18.83.83,0,0,1-.53.79A.75.75,0,0,1,15,6.28a1.55,1.55,0,0,1-.22-.6A.85.85,0,0,0,14,4.92a.83.83,0,0,0-.79.8.84.84,0,0,0,.77.84c.15,0,.31,0,.46.05a2.33,2.33,0,0,1,1.87,1.53A2.42,2.42,0,0,1,15,11.27c-.07,0-.16.11-.16.18,0,.53,0,1.06,0,1.6a5.73,5.73,0,0,0,0-11.34Z"/><path class="cls-1" d="M14,18.1H7.38a.83.83,0,0,1-.76-.82.81.81,0,0,1,.77-.81h13.1a.82.82,0,1,1,0,1.64Z"/></g></g></svg>