<svg xmlns="http://www.w3.org/2000/svg" viewBox="0 0 28 28"><defs><style>.cls-1{fill:none;}.cls-2{fill:#0091ff;}</style></defs><g id="Layer_2" data-name="Layer 2"><g id="Layer_1-2" data-name="Layer 1"><rect class="cls-1" width="28" height="28"/><path class="cls-2" d="M16.2,1c-.51-.12-1-.18-1.53-.27H13.32c-.32.05-.63.09-.94.15A9.34,9.34,0,0,0,5.27,13.42,9.52,9.52,0,0,0,7.67,17,3.25,3.25,0,0,1,8.78,19a13.68,13.68,0,0,1,0,1.43,3.13,3.13,0,0,0,3.09,3.1c1.4,0,2.8,0,4.2,0a3,3,0,0,0,2.78-1.76,3.11,3.11,0,0,0,.32-1.38,12,12,0,0,1,.08-1.7,3.71,3.71,0,0,1,1.22-1.94,9.17,9.17,0,0,0,2.75-8A9.29,9.29,0,0,0,16.2,1ZM19,15.29A6,6,0,0,0,17.31,18a7,7,0,0,0-.19,1.3c0,.39,0,.78,0,1.17a1,1,0,0,1-1,1c-.35,0-.71,0-1.1,0V17.35H13v4.1a9.38,9.38,0,0,1-1.3,0,1,1,0,0,1-.78-1,15.34,15.34,0,0,0-.09-1.92,5.25,5.25,0,0,0-1.7-3.07,7.26,7.26,0,1,1,12.1-6.34A7,7,0,0,1,19,15.29ZM25.23,9V11.1h2.06V9ZM10.89,27.28h6.2V25.23h-6.2Zm16-20.85-.71-2-2,.72.71,1.94Zm-2.67,8.51,1.95.71c.24-.66.47-1.31.71-2L24.88,13C24.64,13.66,24.41,14.29,24.17,14.94Zm-23-8.52,2,.71c.25-.66.48-1.3.71-1.95L1.87,4.47C1.63,5.14,1.4,5.77,1.16,6.42Zm0,7.29.71,1.95L3.82,15,3.11,13ZM2.76,9h-2v2H2.76ZM16,10.67,14,8.6l-2.06,2.07-1.3-1.3L9.18,10.8,12,13.59l2.07-2.06,2,2,2.74-2.74L17.35,9.35Z"/></g></g></svg>