<?xml version="1.0" encoding="UTF-8"?><svg id="Layer_2" xmlns="http://www.w3.org/2000/svg" viewBox="0 0 40 40"><defs><style>.cls-1{fill:#fff;}.cls-2{fill:none;}</style></defs><g id="Layer_1-2"><g><rect class="cls-2" width="40" height="40"/><g><path class="cls-1" d="M34.03,18.5c-.02-.87-.45-1.65-1.1-2.17,.17-.37,.27-.78,.27-1.21,0-1.59-1.29-2.88-2.88-2.88h-3.34l.02-4.03c0-.79-.3-1.53-.86-2.09-.56-.56-1.3-.87-2.09-.87-1.18,0-2.25,.71-2.71,1.8-.4,.94-1.16,2.33-2.2,4.02-.44,.72-1.24,1.16-2.08,1.16H6.48V28.38H29.47c1.59,0,2.88-1.29,2.88-2.88,0-.43-.09-.83-.26-1.2,.67-.53,1.1-1.35,1.1-2.26,0-.43-.09-.83-.26-1.2,.1-.08,.19-.16,.28-.26,.55-.56,.84-1.3,.81-2.09Zm-21.64,7.59h-3.61V14.53h3.61v11.55Zm19.18-7.1c-.06,.07-.2,.18-.42,.18h-3.13v2.3h2.29c.32,0,.58,.26,.58,.58s-.26,.58-.58,.58h-2.29v2.3h1.46c.32,0,.58,.26,.58,.58s-.26,.58-.58,.58H14.68V14.53h2.37c1.64,0,3.18-.87,4.04-2.26,.77-1.25,1.8-3.01,2.36-4.33,.1-.24,.34-.4,.6-.4,.17,0,.34,.07,.46,.19,.12,.12,.19,.29,.19,.46l-.03,6.33h5.64c.32,0,.58,.26,.58,.58s-.26,.58-.58,.58h-2.29v2.3h3.1c.33,0,.61,.25,.62,.57,0,.22-.1,.36-.16,.42Z"/><path class="cls-1" d="M.93,1.43v31.54h15.2l4.13,5.6,4.13-5.6h15.2V1.43H.93ZM37.28,30.67h-14.07l-2.97,4.03-2.97-4.03H3.22V3.72H37.28V30.67h0Z"/></g></g></g></svg>