<?xml version="1.0" encoding="UTF-8"?><svg id="Layer_2" xmlns="http://www.w3.org/2000/svg" viewBox="0 0 40 40"><defs><style>.cls-1{fill:#fff;}.cls-2,.cls-3{fill:none;}.cls-3{stroke:#fff;stroke-miterlimit:10;stroke-width:.86px;}</style></defs><g id="Layer_1-2"><g><rect class="cls-2" width="40" height="40"/><g><path class="cls-1" d="M37.69,15.63c-1.33-.75-3.71-.78-5.04,.94-1.03,1.33-2.1,2.63-3.15,3.94-.09,.11-.21,.27-.33,.27-.63,.03-1.27,.01-1.93,.01,0-.18,0-.32,0-.45,0-1.52,.03-3.04-.01-4.56-.07-2.5-2.12-4.56-4.62-4.62-1.73-.04-3.46-.04-5.2,0-2.13,.05-4.05,1.56-4.46,3.65-.22,1.13-.14,2.32-.17,3.48-.01,.53,.33,.87,.78,.88,.47,0,.8-.34,.81-.89,.01-.69,0-1.38,0-2.07,0-.34,.02-.68,.11-1,.42-1.55,1.61-2.44,3.28-2.46,1.49-.01,2.99,0,4.48,0,.31,0,.63,.03,.93,.11,1.55,.42,2.44,1.61,2.45,3.28,.01,1.46,0,2.91,0,4.37,0,.08-.02,.17-.03,.25-1.89,.26-2.52,1.46-2.38,3.21h-6.44c0-.22,0-.41,0-.6-.01-1.59-1.01-2.58-2.59-2.59-1.03,0-2.06-.01-3.09,0-.27,0-.43-.08-.6-.29-1.04-1.32-2.09-2.64-3.16-3.94-.65-.79-1.45-1.34-2.52-1.4-1.1-.06-2.16,.03-3.03,.82-.61,.54-.91,1.24-1.08,2.01v11.38s.05,.06,.06,.09c.26,1.86,2.03,3.45,4.17,3.38,1.43-.04,2.86,.02,4.29-.02,.47-.01,.67,.14,.84,.56,.6,1.49,1.25,2.96,1.88,4.43,.21,.49,.51,.68,.91,.62,.6-.09,.84-.62,.56-1.27-.74-1.74-1.5-3.47-2.23-5.22-.21-.51-.54-.72-1.1-.72-1.71,.02-3.42,.02-5.12,0-.43,0-.89-.07-1.27-.25-1-.46-1.39-1.31-1.39-2.38,0-2.52,0-5.05,0-7.57,0-.84,0-1.68,0-2.52,.01-.87,.47-1.54,1.23-1.68,1.02-.19,1.95-.07,2.66,.86,1.06,1.39,2.19,2.72,3.26,4.1,.34,.44,.72,.63,1.28,.62,1.14-.04,2.28-.01,3.43,0,.6,0,.94,.25,.99,.75,.03,.27,0,.55,0,.85-.15,0-.27,.02-.39,.02-2.02,0-4.04,0-6.06,0-.27,0-.44-.09-.59-.3-.61-.83-1.23-1.65-1.85-2.47-.3-.39-.62-.52-.97-.41-.58,.19-.74,.8-.33,1.35,.65,.88,1.32,1.74,1.96,2.63,.12,.16,.19,.38,.2,.58,.02,.79,0,1.58,0,2.37,0,.77,.3,1.07,1.07,1.07,.94,0,1.88,0,2.82,0,.75,.01,1.25,.39,1.52,1.08,.14,.36,.25,.74,.37,1.1,.75,2.23,1.48,4.47,2.25,6.7,.09,.26,.31,.52,.54,.67,.27,.17,.59,.07,.83-.16,.29-.28,.28-.62,.16-.98-.86-2.58-1.72-5.16-2.58-7.74-.19-.57-.49-1.07-.94-1.47-.67-.6-1.47-.83-2.36-.83-.67,0-1.35,0-2.03,0v-1.57H31.21v1.57c-.7,0-1.36,0-2.02,0-1.68,0-2.8,.81-3.33,2.41-.84,2.52-1.69,5.04-2.52,7.56-.05,.15-.09,.32-.1,.48-.02,.36,.21,.66,.55,.77,.35,.11,.72-.03,.91-.35,.09-.15,.14-.32,.2-.49,.83-2.48,1.66-4.97,2.49-7.45,.32-.95,.81-1.3,1.82-1.3,.88,0,1.76,0,2.64,0,.72,0,1.03-.31,1.03-1.03,0-.79-.01-1.58,.01-2.37,0-.22,.09-.47,.22-.65,.44-.63,.91-1.23,1.37-1.84,.22-.29,.45-.57,.65-.88,.32-.51,.07-1.13-.49-1.24-.39-.08-.67,.13-.89,.43-.62,.82-1.24,1.64-1.85,2.47-.16,.21-.32,.3-.59,.3-2.02-.01-4.04,0-6.06,0-.12,0-.24-.01-.4-.02,0-.15,0-.27,0-.4,0-.97,.24-1.2,1.2-1.2,1.12,0,2.23-.02,3.35,0,.47,.01,.8-.16,1.09-.52,1.09-1.39,2.22-2.76,3.31-4.15,.53-.67,1.16-1,2.04-.96,1.25,.06,1.87,.64,1.87,1.89,0,3.3,0,6.6,0,9.91,0,.3-.02,.61-.1,.89-.3,1.12-1.22,1.78-2.48,1.79-1.73,0-3.47,.01-5.2,0-.55,0-.88,.2-1.1,.72-.72,1.72-1.47,3.44-2.2,5.15-.06,.14-.11,.28-.14,.43-.08,.46,.2,.84,.67,.91,.4,.06,.7-.14,.91-.62,.66-1.54,1.33-3.09,1.98-4.63,.11-.25,.23-.35,.52-.35,1.59,.02,3.19,.02,4.78,0,1.22-.02,2.22-.52,3.02-1.45,.51-.59,.75-1.29,.94-2.01v-11.38c-.02-.08-.05-.17-.07-.25-.21-.93-.7-1.67-1.53-2.13ZM7.64,12.31c1.47-1.67,1.49-3.77,.04-5.46-1.51-1.77-4.47-1.73-5.96,.05-.53,.64-.83,1.36-1.01,2.15v1.05c.2,.8,.51,1.53,1.06,2.16,1.49,1.7,4.38,1.73,5.86,.05Zm-2.89-5.16c1.32,.01,2.38,1.08,2.38,2.4,0,1.32-1.07,2.39-2.39,2.41-1.31,.02-2.43-1.1-2.42-2.41,0-1.32,1.1-2.41,2.43-2.4Zm34.45,1.61c-.43-2.17-2.65-3.63-4.78-3.14-2.99,.68-4.16,4.14-2.21,6.51,1.56,1.9,4.53,1.9,6.1,.01,.51-.61,.77-1.3,.97-2.04v-1.05c-.03-.1-.06-.19-.08-.29Zm-3.93,3.2c-1.32,0-2.41-1.1-2.41-2.42,0-1.32,1.07-2.38,2.4-2.39,1.33,0,2.43,1.1,2.41,2.41-.02,1.31-1.09,2.39-2.4,2.4Zm-15.28-2.41c2.21,0,4.02-1.82,4.01-4.04,0-2.22-1.82-4.02-4.04-4-2.2,.02-3.98,1.83-3.98,4.03,0,2.2,1.81,4,4.01,4.01Zm0-6.43c1.32,0,2.42,1.11,2.41,2.43-.01,1.31-1.09,2.38-2.41,2.38-1.32,0-2.4-1.06-2.41-2.38-.01-1.32,1.09-2.43,2.41-2.43Zm-.77,11.27v1.57h1.56v-1.57h-1.56Zm-.03,13.25c0,3.48,0,6.95,0,10.43,0,.08-.02,.16,0,.22,.03,.07,.09,.17,.14,.17,.48,.01,.96,0,1.44,0v-11.24h-1.59v.41Z"/><path class="cls-3" d="M37.69,15.63c-1.33-.75-3.71-.78-5.04,.94-1.03,1.33-2.1,2.63-3.15,3.94-.09,.11-.21,.27-.33,.27-.63,.03-1.27,.01-1.93,.01,0-.18,0-.32,0-.45,0-1.52,.03-3.04-.01-4.56-.07-2.5-2.12-4.56-4.62-4.62-1.73-.04-3.46-.04-5.2,0-2.13,.05-4.05,1.56-4.46,3.65-.22,1.13-.14,2.32-.17,3.48-.01,.53,.33,.87,.78,.88,.47,0,.8-.34,.81-.89,.01-.69,0-1.38,0-2.07,0-.34,.02-.68,.11-1,.42-1.55,1.61-2.44,3.28-2.46,1.49-.01,2.99,0,4.48,0,.31,0,.63,.03,.93,.11,1.55,.42,2.44,1.61,2.45,3.28,.01,1.46,0,2.91,0,4.37,0,.08-.02,.17-.03,.25-1.89,.26-2.52,1.46-2.38,3.21h-6.44c0-.22,0-.41,0-.6-.01-1.59-1.01-2.58-2.59-2.59-1.03,0-2.06-.01-3.09,0-.27,0-.43-.08-.6-.29-1.04-1.32-2.09-2.64-3.16-3.94-.65-.79-1.45-1.34-2.52-1.4-1.1-.06-2.16,.03-3.03,.82-.61,.54-.91,1.24-1.08,2.01v11.38s.05,.06,.06,.09c.26,1.86,2.03,3.45,4.17,3.38,1.43-.04,2.86,.02,4.29-.02,.47-.01,.67,.14,.84,.56,.6,1.49,1.25,2.96,1.88,4.43,.21,.49,.51,.68,.91,.62,.6-.09,.84-.62,.56-1.27-.74-1.74-1.5-3.47-2.23-5.22-.21-.51-.54-.72-1.1-.72-1.71,.02-3.42,.02-5.12,0-.43,0-.89-.07-1.27-.25-1-.46-1.39-1.31-1.39-2.38,0-2.52,0-5.05,0-7.57,0-.84,0-1.68,0-2.52,.01-.87,.47-1.54,1.23-1.68,1.02-.19,1.95-.07,2.66,.86,1.06,1.39,2.19,2.72,3.26,4.1,.34,.44,.72,.63,1.28,.62,1.14-.04,2.28-.01,3.43,0,.6,0,.94,.25,.99,.75,.03,.27,0,.55,0,.85-.15,0-.27,.02-.39,.02-2.02,0-4.04,0-6.06,0-.27,0-.44-.09-.59-.3-.61-.83-1.23-1.65-1.85-2.47-.3-.39-.62-.52-.97-.41-.58,.19-.74,.8-.33,1.35,.65,.88,1.32,1.74,1.96,2.63,.12,.16,.19,.38,.2,.58,.02,.79,0,1.58,0,2.37,0,.77,.3,1.07,1.07,1.07,.94,0,1.88,0,2.82,0,.75,.01,1.25,.39,1.52,1.08,.14,.36,.25,.74,.37,1.1,.75,2.23,1.48,4.47,2.25,6.7,.09,.26,.31,.52,.54,.67,.27,.17,.59,.07,.83-.16,.29-.28,.28-.62,.16-.98-.86-2.58-1.72-5.16-2.58-7.74-.19-.57-.49-1.07-.94-1.47-.67-.6-1.47-.83-2.36-.83-.67,0-1.35,0-2.03,0v-1.57H31.21v1.57c-.7,0-1.36,0-2.02,0-1.68,0-2.8,.81-3.33,2.41-.84,2.52-1.69,5.04-2.52,7.56-.05,.15-.09,.32-.1,.48-.02,.36,.21,.66,.55,.77,.35,.11,.72-.03,.91-.35,.09-.15,.14-.32,.2-.49,.83-2.48,1.66-4.97,2.49-7.45,.32-.95,.81-1.3,1.82-1.3,.88,0,1.76,0,2.64,0,.72,0,1.03-.31,1.03-1.03,0-.79-.01-1.58,.01-2.37,0-.22,.09-.47,.22-.65,.44-.63,.91-1.23,1.37-1.84,.22-.29,.45-.57,.65-.88,.32-.51,.07-1.13-.49-1.24-.39-.08-.67,.13-.89,.43-.62,.82-1.24,1.64-1.85,2.47-.16,.21-.32,.3-.59,.3-2.02-.01-4.04,0-6.06,0-.12,0-.24-.01-.4-.02,0-.15,0-.27,0-.4,0-.97,.24-1.2,1.2-1.2,1.12,0,2.23-.02,3.35,0,.47,.01,.8-.16,1.09-.52,1.09-1.39,2.22-2.76,3.31-4.15,.53-.67,1.16-1,2.04-.96,1.25,.06,1.87,.64,1.87,1.89,0,3.3,0,6.6,0,9.91,0,.3-.02,.61-.1,.89-.3,1.12-1.22,1.78-2.48,1.79-1.73,0-3.47,.01-5.2,0-.55,0-.88,.2-1.1,.72-.72,1.72-1.47,3.44-2.2,5.15-.06,.14-.11,.28-.14,.43-.08,.46,.2,.84,.67,.91,.4,.06,.7-.14,.91-.62,.66-1.54,1.33-3.09,1.98-4.63,.11-.25,.23-.35,.52-.35,1.59,.02,3.19,.02,4.78,0,1.22-.02,2.22-.52,3.02-1.45,.51-.59,.75-1.29,.94-2.01v-11.38c-.02-.08-.05-.17-.07-.25-.21-.93-.7-1.67-1.53-2.13ZM7.64,12.31c1.47-1.67,1.49-3.77,.04-5.46-1.51-1.77-4.47-1.73-5.96,.05-.53,.64-.83,1.36-1.01,2.15v1.05c.2,.8,.51,1.53,1.06,2.16,1.49,1.7,4.38,1.73,5.86,.05Zm-2.89-5.16c1.32,.01,2.38,1.08,2.38,2.4,0,1.32-1.07,2.39-2.39,2.41-1.31,.02-2.43-1.1-2.42-2.41,0-1.32,1.1-2.41,2.43-2.4Zm34.45,1.61c-.43-2.17-2.65-3.63-4.78-3.14-2.99,.68-4.16,4.14-2.21,6.51,1.56,1.9,4.53,1.9,6.1,.01,.51-.61,.77-1.3,.97-2.04v-1.05c-.03-.1-.06-.19-.08-.29Zm-3.93,3.2c-1.32,0-2.41-1.1-2.41-2.42,0-1.32,1.07-2.38,2.4-2.39,1.33,0,2.43,1.1,2.41,2.41-.02,1.31-1.09,2.39-2.4,2.4Zm-15.28-2.41c2.21,0,4.02-1.82,4.01-4.04,0-2.22-1.82-4.02-4.04-4-2.2,.02-3.98,1.83-3.98,4.03,0,2.2,1.81,4,4.01,4.01Zm0-6.43c1.32,0,2.42,1.11,2.41,2.43-.01,1.31-1.09,2.38-2.41,2.38-1.32,0-2.4-1.06-2.41-2.38-.01-1.32,1.09-2.43,2.41-2.43Zm-.77,11.27v1.57h1.56v-1.57h-1.56Zm-.03,13.25c0,3.48,0,6.95,0,10.43,0,.08-.02,.16,0,.22,.03,.07,.09,.17,.14,.17,.48,.01,.96,0,1.44,0v-11.24h-1.59v.41Z"/></g></g></g></svg>