<?xml version="1.0" encoding="UTF-8"?><svg id="Layer_2" xmlns="http://www.w3.org/2000/svg" viewBox="0 0 40 40"><defs><style>.cls-1{fill:#fff;}.cls-2,.cls-3{fill:none;}.cls-3{stroke:#fff;stroke-miterlimit:10;stroke-width:.3px;}</style></defs><g id="Layer_1-2"><g><rect class="cls-2" width="40" height="40"/><g><path class="cls-1" d="M5.53,21.48c0,.49,.2,.68,.69,.69,.54,0,1.08,0,1.63,0s1.08,0,1.63,0c.49,0,.69-.21,.69-.69,0-.94,0-1.89,0-2.83,0-.46-.2-.67-.67-.67-1.1,0-2.19,0-3.29,0-.47,0-.67,.2-.67,.67,0,.94,0,1.89,0,2.83Zm1.15-2.35h2.33v1.88h-2.33v-1.88Zm-.53-7.96c1.12,0,2.24,0,3.36,0,.44,0,.64-.21,.64-.65,0-.96,0-1.91,0-2.87,0-.44-.2-.64-.65-.65-.57,0-1.13,0-1.7,0s-1.08,0-1.63,0c-.45,0-.66,.19-.66,.63,0,.97,0,1.94,0,2.91,0,.43,.2,.63,.63,.63Zm.54-3.02h2.32v1.86h-2.32v-1.86Zm-1.16,7.87c0,.44,.21,.64,.66,.64,1.11,0,2.22,0,3.33,0,.44,0,.65-.21,.65-.65,0-.96,0-1.91,0-2.87,0-.45-.2-.65-.64-.65-.55,0-1.11,0-1.66,0s-1.13,0-1.7,0c-.43,0-.63,.2-.63,.62,0,.97,0,1.94,0,2.91Zm1.15-2.37h2.32v1.87h-2.32v-1.87Zm5.44-2.88c.1,.32,.34,.4,.65,.4,1.54,0,3.07,0,4.61,0,1.56,0,3.12,0,4.69,0,.38,0,.63-.23,.63-.56,0-.32-.25-.55-.63-.57-.09,0-.18,0-.26,0-2.95,0-5.89,0-8.84,0-.14,0-.28,0-.41,.02-.34,.07-.53,.39-.43,.71Zm22.33,6.18c-.02-.29-.2-.44-.47-.52-.05-.01-.09-.03-.14-.05-2.03-.61-4.07-1.22-6.1-1.82-.13-.04-.27-.07-.34-.09-.51,0-.71,.37-.55,.91,.62,2.07,1.24,4.13,1.86,6.2,.09,.3,.23,.55,.57,.57,.34,.02,.51-.21,.62-.5,.33-.84,.68-1.68,1-2.52,.1-.26,.24-.43,.52-.53,.88-.33,1.75-.69,2.63-1.04,.27-.11,.44-.29,.42-.6Zm-3.89,.78c-.21,.11-.42,.32-.53,.53-.24,.48-.42,.99-.62,1.49-.03,0-.06,0-.09-.02-.38-1.26-.76-2.52-1.16-3.86,1.35,.4,2.63,.79,4,1.2-.59,.24-1.12,.42-1.61,.66ZM38.85,2.17c-.37-.48-.9-.71-1.51-.74-.14,0-.28,0-.42,0H3.19c-1.5,0-2.01,.35-2.56,1.73V28.3s.05,.06,.06,.1c.36,1.1,1.06,1.62,2.21,1.63,1.01,0,2.02,0,3.03,0,.45,0,.7-.21,.71-.55,0-.37-.24-.57-.72-.58-.96,0-1.92,0-2.87,0-.95,0-1.27-.32-1.27-1.26,0-7.93,0-15.85,0-23.78,0-.97,.31-1.29,1.28-1.29H36.94c.98,0,1.29,.31,1.29,1.28,0,7.91,0,15.83,0,23.74,0,1-.31,1.31-1.31,1.31-9.27,0-18.53,0-27.8,0-.16,0-.33,0-.49,.01-.27,.04-.43,.21-.46,.48-.03,.28,.09,.5,.36,.59,.14,.05,.3,.05,.45,.05,1.79,0,3.58,0,5.37,0h.43c0,.1,0,.16,0,.22-.26,1.77-.99,3.31-2.23,4.61-.09,.09-.26,.13-.4,.14-.52,.02-1.03,0-1.55,0-.7,.01-1.09,.41-1.11,1.11,0,.38,0,.75,0,1.13,0,.96,.36,1.33,1.32,1.33,4.51,0,9.03,0,13.54,0,.14,0,.28,0,.41-.03,.29-.08,.45-.29,.43-.58-.02-.29-.2-.48-.51-.52-.11-.01-.23,0-.34,0H10.65v-1.28H29.35v1.28c-.68,0-1.33,0-1.98,0-.4,0-.63,.21-.64,.54-.01,.35,.23,.58,.64,.59,.69,0,1.39,.01,2.08,0,.62-.01,1.04-.43,1.06-1.05,.02-.48,.01-.96,0-1.43-.02-.68-.42-1.07-1.1-1.08-.5,0-1.01,.02-1.51-.01-.19-.01-.42-.1-.54-.24-.86-.91-1.47-1.98-1.83-3.17-.15-.49-.24-.99-.37-1.55h.52c3.82,0,7.64,0,11.46,0,1.1,0,1.84-.55,2.16-1.59,.01-.05,.04-.09,.07-.13V3.16c-.17-.33-.3-.7-.52-.99Zm-12.92,32.67s.03,.07,.05,.13H14.01c.06-.1,.09-.16,.13-.22,.98-1.33,1.58-2.82,1.78-4.47,.03-.22,.12-.26,.32-.26,2.51,0,5.02,0,7.53,.01,.11,0,.29,.12,.3,.21,.22,1.7,.84,3.23,1.86,4.6Zm6.79-9.55c1.12,0,2.24,0,3.37,0,.69,0,.84-.16,.84-.85,0-6.57,0-13.13,0-19.7,0-.71-.16-.87-.86-.87-10.71,0-21.43,0-32.14,0-.68,0-.84,.17-.84,.85,0,6.57,0,13.13,0,19.7,0,.72,.15,.87,.86,.87,8.57,0,17.14,0,25.71,0,.11,0,.23,0,.34,0,.31-.04,.48-.23,.5-.52,.02-.3-.15-.51-.44-.58-.14-.04-.3-.02-.45-.02-8.29,0-16.59,0-24.88,0h-.49V5.03h31.54V24.15c-1.03,0-2.04,0-3.05,0-.45,0-.69,.21-.69,.57,0,.36,.25,.56,.7,.56Zm-20.25-3.17c.14,.05,.3,.06,.44,.06,1.5,0,3,0,4.5,0s2.97,0,4.46,0c.16,0,.37,.02,.47-.07,.16-.14,.33-.36,.35-.56,.03-.26-.18-.46-.47-.5-.09-.01-.18,0-.26,0-3.04,0-6.07,0-9.11,0-.09,0-.18,0-.26,0-.27,.04-.43,.2-.47,.47-.04,.28,.08,.5,.35,.6Zm.36-5.44c3.05,0,6.1,0,9.15,0,.47,0,.74-.21,.74-.57,0-.35-.27-.56-.74-.56-1.51,0-3.02,0-4.54,0s-3.07,0-4.61,0c-.45,0-.7,.19-.71,.55-.01,.37,.25,.58,.72,.58Zm12.03,2.43c.37,0,.59-.23,.59-.55,0-.32-.21-.54-.57-.58-.07,0-.15,0-.23,0-2.44,0-4.89,0-7.33,0-.14,0-.28,0-.41,.05-.42,.14-.52,.67-.18,.93,.14,.1,.35,.14,.53,.14,1.23,.01,2.47,0,3.7,0h2.19c.57,0,1.13,0,1.7,0Zm-.13-12.1c-1.25,0-2.49,0-3.74,0-1.27,0-2.55,0-3.82,0-.46,0-.74,.35-.6,.73,.12,.33,.38,.4,.7,.4,2.48,0,4.96,0,7.45,0,.48,0,.74-.2,.74-.56,0-.37-.25-.57-.73-.57Zm0,5.49c-1.23,0-2.47,0-3.7,0s-2.49,0-3.74,0c-.16,0-.38,0-.46,.09-.14,.16-.27,.41-.25,.6,.04,.33,.34,.44,.65,.44,2.51,0,5.01,0,7.52,0,.46,0,.7-.21,.71-.56,0-.37-.24-.57-.72-.57Zm-12.08,6.6c.3,.01,.6,0,.9,0h0c.29,0,.58,.01,.87,0,.33-.02,.56-.23,.57-.53,.01-.29-.21-.57-.53-.58-.61-.02-1.23-.02-1.85,0-.33,.01-.53,.28-.51,.59,.03,.32,.21,.51,.53,.52Zm.09-12.1s-.05,0-.08,0c-.32,.02-.51,.19-.55,.51-.03,.31,.17,.59,.49,.6,.63,.03,1.26,.03,1.88,0,.31-.01,.49-.24,.5-.56,.01-.3-.23-.54-.55-.55-.29-.01-.58,0-.87,0h-.83Zm-.03,5.49c-.37,0-.59,.22-.6,.54,0,.32,.2,.55,.56,.58,.29,.02,.58,0,.87,0h0c.3,0,.6,.01,.9,0,.33-.02,.53-.23,.55-.56,.02-.31-.24-.55-.59-.55-.56-.01-1.13-.01-1.7,0Z"/><path class="cls-3" d="M5.53,21.48c0,.49,.2,.68,.69,.69,.54,0,1.08,0,1.63,0s1.08,0,1.63,0c.49,0,.69-.21,.69-.69,0-.94,0-1.89,0-2.83,0-.46-.2-.67-.67-.67-1.1,0-2.19,0-3.29,0-.47,0-.67,.2-.67,.67,0,.94,0,1.89,0,2.83Zm1.15-2.35h2.33v1.88h-2.33v-1.88Zm-.53-7.96c1.12,0,2.24,0,3.36,0,.44,0,.64-.21,.64-.65,0-.96,0-1.91,0-2.87,0-.44-.2-.64-.65-.65-.57,0-1.13,0-1.7,0s-1.08,0-1.63,0c-.45,0-.66,.19-.66,.63,0,.97,0,1.94,0,2.91,0,.43,.2,.63,.63,.63Zm.54-3.02h2.32v1.86h-2.32v-1.86Zm-1.16,7.87c0,.44,.21,.64,.66,.64,1.11,0,2.22,0,3.33,0,.44,0,.65-.21,.65-.65,0-.96,0-1.91,0-2.87,0-.45-.2-.65-.64-.65-.55,0-1.11,0-1.66,0s-1.13,0-1.7,0c-.43,0-.63,.2-.63,.62,0,.97,0,1.94,0,2.91Zm1.15-2.37h2.32v1.87h-2.32v-1.87Zm5.44-2.88c.1,.32,.34,.4,.65,.4,1.54,0,3.07,0,4.61,0,1.56,0,3.12,0,4.69,0,.38,0,.63-.23,.63-.56,0-.32-.25-.55-.63-.57-.09,0-.18,0-.26,0-2.95,0-5.89,0-8.84,0-.14,0-.28,0-.41,.02-.34,.07-.53,.39-.43,.71Zm22.33,6.18c-.02-.29-.2-.44-.47-.52-.05-.01-.09-.03-.14-.05-2.03-.61-4.07-1.22-6.1-1.82-.13-.04-.27-.07-.34-.09-.51,0-.71,.37-.55,.91,.62,2.07,1.24,4.13,1.86,6.2,.09,.3,.23,.55,.57,.57,.34,.02,.51-.21,.62-.5,.33-.84,.68-1.68,1-2.52,.1-.26,.24-.43,.52-.53,.88-.33,1.75-.69,2.63-1.04,.27-.11,.44-.29,.42-.6Zm-3.89,.78c-.21,.11-.42,.32-.53,.53-.24,.48-.42,.99-.62,1.49-.03,0-.06,0-.09-.02-.38-1.26-.76-2.52-1.16-3.86,1.35,.4,2.63,.79,4,1.2-.59,.24-1.12,.42-1.61,.66ZM38.85,2.17c-.37-.48-.9-.71-1.51-.74-.14,0-.28,0-.42,0H3.19c-1.5,0-2.01,.35-2.56,1.73V28.3s.05,.06,.06,.1c.36,1.1,1.06,1.62,2.21,1.63,1.01,0,2.02,0,3.03,0,.45,0,.7-.21,.71-.55,0-.37-.24-.57-.72-.58-.96,0-1.92,0-2.87,0-.95,0-1.27-.32-1.27-1.26,0-7.93,0-15.85,0-23.78,0-.97,.31-1.29,1.28-1.29H36.94c.98,0,1.29,.31,1.29,1.28,0,7.91,0,15.83,0,23.74,0,1-.31,1.31-1.31,1.31-9.27,0-18.53,0-27.8,0-.16,0-.33,0-.49,.01-.27,.04-.43,.21-.46,.48-.03,.28,.09,.5,.36,.59,.14,.05,.3,.05,.45,.05,1.79,0,3.58,0,5.37,0h.43c0,.1,0,.16,0,.22-.26,1.77-.99,3.31-2.23,4.61-.09,.09-.26,.13-.4,.14-.52,.02-1.03,0-1.55,0-.7,.01-1.09,.41-1.11,1.11,0,.38,0,.75,0,1.13,0,.96,.36,1.33,1.32,1.33,4.51,0,9.03,0,13.54,0,.14,0,.28,0,.41-.03,.29-.08,.45-.29,.43-.58-.02-.29-.2-.48-.51-.52-.11-.01-.23,0-.34,0H10.65v-1.28H29.35v1.28c-.68,0-1.33,0-1.98,0-.4,0-.63,.21-.64,.54-.01,.35,.23,.58,.64,.59,.69,0,1.39,.01,2.08,0,.62-.01,1.04-.43,1.06-1.05,.02-.48,.01-.96,0-1.43-.02-.68-.42-1.07-1.1-1.08-.5,0-1.01,.02-1.51-.01-.19-.01-.42-.1-.54-.24-.86-.91-1.47-1.98-1.83-3.17-.15-.49-.24-.99-.37-1.55h.52c3.82,0,7.64,0,11.46,0,1.1,0,1.84-.55,2.16-1.59,.01-.05,.04-.09,.07-.13V3.16c-.17-.33-.3-.7-.52-.99Zm-12.92,32.67s.03,.07,.05,.13H14.01c.06-.1,.09-.16,.13-.22,.98-1.33,1.58-2.82,1.78-4.47,.03-.22,.12-.26,.32-.26,2.51,0,5.02,0,7.53,.01,.11,0,.29,.12,.3,.21,.22,1.7,.84,3.23,1.86,4.6Zm6.79-9.55c1.12,0,2.24,0,3.37,0,.69,0,.84-.16,.84-.85,0-6.57,0-13.13,0-19.7,0-.71-.16-.87-.86-.87-10.71,0-21.43,0-32.14,0-.68,0-.84,.17-.84,.85,0,6.57,0,13.13,0,19.7,0,.72,.15,.87,.86,.87,8.57,0,17.14,0,25.71,0,.11,0,.23,0,.34,0,.31-.04,.48-.23,.5-.52,.02-.3-.15-.51-.44-.58-.14-.04-.3-.02-.45-.02-8.29,0-16.59,0-24.88,0h-.49V5.03h31.54V24.15c-1.03,0-2.04,0-3.05,0-.45,0-.69,.21-.69,.57,0,.36,.25,.56,.7,.56Zm-20.25-3.17c.14,.05,.3,.06,.44,.06,1.5,0,3,0,4.5,0s2.97,0,4.46,0c.16,0,.37,.02,.47-.07,.16-.14,.33-.36,.35-.56,.03-.26-.18-.46-.47-.5-.09-.01-.18,0-.26,0-3.04,0-6.07,0-9.11,0-.09,0-.18,0-.26,0-.27,.04-.43,.2-.47,.47-.04,.28,.08,.5,.35,.6Zm.36-5.44c3.05,0,6.1,0,9.15,0,.47,0,.74-.21,.74-.57,0-.35-.27-.56-.74-.56-1.51,0-3.02,0-4.54,0s-3.07,0-4.61,0c-.45,0-.7,.19-.71,.55-.01,.37,.25,.58,.72,.58Zm12.03,2.43c.37,0,.59-.23,.59-.55,0-.32-.21-.54-.57-.58-.07,0-.15,0-.23,0-2.44,0-4.89,0-7.33,0-.14,0-.28,0-.41,.05-.42,.14-.52,.67-.18,.93,.14,.1,.35,.14,.53,.14,1.23,.01,2.47,0,3.7,0h2.19c.57,0,1.13,0,1.7,0Zm-.13-12.1c-1.25,0-2.49,0-3.74,0-1.27,0-2.55,0-3.82,0-.46,0-.74,.35-.6,.73,.12,.33,.38,.4,.7,.4,2.48,0,4.96,0,7.45,0,.48,0,.74-.2,.74-.56,0-.37-.25-.57-.73-.57Zm0,5.49c-1.23,0-2.47,0-3.7,0s-2.49,0-3.74,0c-.16,0-.38,0-.46,.09-.14,.16-.27,.41-.25,.6,.04,.33,.34,.44,.65,.44,2.51,0,5.01,0,7.52,0,.46,0,.7-.21,.71-.56,0-.37-.24-.57-.72-.57Zm-12.08,6.6c.3,.01,.6,0,.9,0h0c.29,0,.58,.01,.87,0,.33-.02,.56-.23,.57-.53,.01-.29-.21-.57-.53-.58-.61-.02-1.23-.02-1.85,0-.33,.01-.53,.28-.51,.59,.03,.32,.21,.51,.53,.52Zm.09-12.1s-.05,0-.08,0c-.32,.02-.51,.19-.55,.51-.03,.31,.17,.59,.49,.6,.63,.03,1.26,.03,1.88,0,.31-.01,.49-.24,.5-.56,.01-.3-.23-.54-.55-.55-.29-.01-.58,0-.87,0h-.83Zm-.03,5.49c-.37,0-.59,.22-.6,.54,0,.32,.2,.55,.56,.58,.29,.02,.58,0,.87,0h0c.3,0,.6,.01,.9,0,.33-.02,.53-.23,.55-.56,.02-.31-.24-.55-.59-.55-.56-.01-1.13-.01-1.7,0Z"/></g></g></g></svg>