<?xml version="1.0" encoding="UTF-8"?>
<svg id="Layer_2" data-name="Layer 2" xmlns="http://www.w3.org/2000/svg" viewBox="0 0 40 40">
  <defs>
    <style>
      .cls-1 {
        fill: #0091ff;
      }

      .cls-2, .cls-3 {
        fill: none;
      }

      .cls-3 {
        stroke: #0091ff;
        stroke-miterlimit: 10;
      }
    </style>
  </defs>
  <g id="Layer_1-2" data-name="Layer 1">
    <g>
      <rect class="cls-2" width="40" height="40"/>
      <g>
        <path class="cls-1" d="m6.84,33.16c.48,0,.88-.39.88-.88s-.39-.88-.88-.88-.88.39-.88.88.39.88.88.88Zm4.39-.88c0-.48-.39-.88-.88-.88s-.88.39-.88.88.39.88.88.88.88-.39.88-.88Zm3.51,0c0-.48-.39-.88-.88-.88s-.88.39-.88.88.39.88.88.88.88-.39.88-.88ZM25.26,7.72c0,.48.39.88.88.88s.88-.39.88-.88-.39-.88-.88-.88-.88.39-.88.88Zm3.51,0c0,.48.39.88.88.88s.88-.39.88-.88-.39-.88-.88-.88-.88.39-.88.88Zm4.39-.88c-.48,0-.88.39-.88.88s.39.88.88.88.88-.39.88-.88-.39-.88-.88-.88Zm-25.44,3.51c1.93,0,3.51-1.58,3.51-3.51v-2.63c0-1.49-1.14-2.63-2.63-2.63h-1.75c-1.49,0-2.63,1.14-2.63,2.63v2.63c0,1.93,1.58,3.51,3.51,3.51Zm-1.75-6.14c0-.53.35-.88.88-.88h1.75c.53,0,.88.35.88.88v2.63c0,.96-.79,1.75-1.75,1.75s-1.75-.79-1.75-1.75v-2.63ZM1.58,20.88h12.28c.53,0,.88-.35.88-.88s-.35-.88-.88-.88H2.46v-2.63c0-1.49,1.14-2.63,2.63-2.63h5.26c1.49,0,2.63,1.14,2.63,2.63,0,.53.35.88.88.88s.88-.35.88-.88c0-2.46-1.93-4.39-4.39-4.39h-5.26c-2.46,0-4.39,1.93-4.39,4.39v3.51c0,.53.35.88.88.88Zm30.7,7.02c1.93,0,3.51-1.58,3.51-3.51v-2.63c0-1.49-1.14-2.63-2.63-2.63h-1.75c-1.49,0-2.63,1.14-2.63,2.63v2.63c0,1.93,1.58,3.51,3.51,3.51Zm-1.75-6.14c0-.53.35-.88.88-.88h1.75c.53,0,.88.35.88.88v2.63c0,.96-.79,1.75-1.75,1.75s-1.75-.79-1.75-1.75v-2.63Zm-.88,9.65h5.26c1.49,0,2.63,1.14,2.63,2.63,0,.53.35.88.88.88s.88-.35.88-.88c0-2.46-1.93-4.39-4.39-4.39h-5.26c-2.46,0-4.39,1.93-4.39,4.39v3.51c0,.53.35.88.88.88h12.28c.53,0,.88-.35.88-.88s-.35-.88-.88-.88h-11.4v-2.63c0-1.49,1.14-2.63,2.63-2.63Zm-12.28-5.26h-6.4c-.7,0-1.4-.26-1.84-.79l-2.46-2.46c-.35-.35-.88-.35-1.23,0-.35.35-.35.88,0,1.23l2.46,2.46c.79.79,1.93,1.32,3.07,1.32h6.4c.53,0,.88.35.88.88v7.02c0,.53-.35.88-.88.88H3.33c-.53,0-.88-.35-.88-.88v-7.02c0-.53.35-.88.88-.88h1.75c.53,0,.88-.35.88-.88s-.35-.88-.88-.88h-1.75c-1.49,0-2.63,1.14-2.63,2.63v7.02c0,1.49,1.14,2.63,2.63,2.63h14.03c1.49,0,2.63-1.14,2.63-2.63v-7.02c0-1.49-1.14-2.63-2.63-2.63ZM36.67,1.58h-14.03c-1.49,0-2.63,1.14-2.63,2.63v7.02c0,1.49,1.14,2.63,2.63,2.63h6.4c.7,0,1.4.26,1.84.79l2.46,2.46c.18.18.44.26.61.26s.44-.09.61-.26c.35-.35.35-.88,0-1.23l-2.46-2.46c-.79-.79-1.93-1.32-3.07-1.32h-6.4c-.53,0-.88-.35-.88-.88v-7.02c0-.53.35-.88.88-.88h14.03c.53,0,.88.35.88.88v7.02c0,.53-.35.88-.88.88h-1.75c-.53,0-.88.35-.88.88s.35.88.88.88h1.75c1.49,0,2.63-1.14,2.63-2.63v-7.02c0-1.49-1.14-2.63-2.63-2.63Z"/>
        <path class="cls-3" d="m6.84,33.16c.48,0,.88-.39.88-.88s-.39-.88-.88-.88-.88.39-.88.88.39.88.88.88Zm4.39-.88c0-.48-.39-.88-.88-.88s-.88.39-.88.88.39.88.88.88.88-.39.88-.88Zm3.51,0c0-.48-.39-.88-.88-.88s-.88.39-.88.88.39.88.88.88.88-.39.88-.88ZM25.26,7.72c0,.48.39.88.88.88s.88-.39.88-.88-.39-.88-.88-.88-.88.39-.88.88Zm3.51,0c0,.48.39.88.88.88s.88-.39.88-.88-.39-.88-.88-.88-.88.39-.88.88Zm4.39-.88c-.48,0-.88.39-.88.88s.39.88.88.88.88-.39.88-.88-.39-.88-.88-.88Zm-25.44,3.51c1.93,0,3.51-1.58,3.51-3.51v-2.63c0-1.49-1.14-2.63-2.63-2.63h-1.75c-1.49,0-2.63,1.14-2.63,2.63v2.63c0,1.93,1.58,3.51,3.51,3.51Zm-1.75-6.14c0-.53.35-.88.88-.88h1.75c.53,0,.88.35.88.88v2.63c0,.96-.79,1.75-1.75,1.75s-1.75-.79-1.75-1.75v-2.63ZM1.58,20.88h12.28c.53,0,.88-.35.88-.88s-.35-.88-.88-.88H2.46v-2.63c0-1.49,1.14-2.63,2.63-2.63h5.26c1.49,0,2.63,1.14,2.63,2.63,0,.53.35.88.88.88s.88-.35.88-.88c0-2.46-1.93-4.39-4.39-4.39h-5.26c-2.46,0-4.39,1.93-4.39,4.39v3.51c0,.53.35.88.88.88Zm30.7,7.02c1.93,0,3.51-1.58,3.51-3.51v-2.63c0-1.49-1.14-2.63-2.63-2.63h-1.75c-1.49,0-2.63,1.14-2.63,2.63v2.63c0,1.93,1.58,3.51,3.51,3.51Zm-1.75-6.14c0-.53.35-.88.88-.88h1.75c.53,0,.88.35.88.88v2.63c0,.96-.79,1.75-1.75,1.75s-1.75-.79-1.75-1.75v-2.63Zm-.88,9.65h5.26c1.49,0,2.63,1.14,2.63,2.63,0,.53.35.88.88.88s.88-.35.88-.88c0-2.46-1.93-4.39-4.39-4.39h-5.26c-2.46,0-4.39,1.93-4.39,4.39v3.51c0,.53.35.88.88.88h12.28c.53,0,.88-.35.88-.88s-.35-.88-.88-.88h-11.4v-2.63c0-1.49,1.14-2.63,2.63-2.63Zm-12.28-5.26h-6.4c-.7,0-1.4-.26-1.84-.79l-2.46-2.46c-.35-.35-.88-.35-1.23,0-.35.35-.35.88,0,1.23l2.46,2.46c.79.79,1.93,1.32,3.07,1.32h6.4c.53,0,.88.35.88.88v7.02c0,.53-.35.88-.88.88H3.33c-.53,0-.88-.35-.88-.88v-7.02c0-.53.35-.88.88-.88h1.75c.53,0,.88-.35.88-.88s-.35-.88-.88-.88h-1.75c-1.49,0-2.63,1.14-2.63,2.63v7.02c0,1.49,1.14,2.63,2.63,2.63h14.03c1.49,0,2.63-1.14,2.63-2.63v-7.02c0-1.49-1.14-2.63-2.63-2.63ZM36.67,1.58h-14.03c-1.49,0-2.63,1.14-2.63,2.63v7.02c0,1.49,1.14,2.63,2.63,2.63h6.4c.7,0,1.4.26,1.84.79l2.46,2.46c.18.18.44.26.61.26s.44-.09.61-.26c.35-.35.35-.88,0-1.23l-2.46-2.46c-.79-.79-1.93-1.32-3.07-1.32h-6.4c-.53,0-.88-.35-.88-.88v-7.02c0-.53.35-.88.88-.88h14.03c.53,0,.88.35.88.88v7.02c0,.53-.35.88-.88.88h-1.75c-.53,0-.88.35-.88.88s.35.88.88.88h1.75c1.49,0,2.63-1.14,2.63-2.63v-7.02c0-1.49-1.14-2.63-2.63-2.63Z"/>
      </g>
    </g>
  </g>
</svg>