<?xml version="1.0" encoding="UTF-8"?><svg id="Layer_2" xmlns="http://www.w3.org/2000/svg" viewBox="0 0 40 40"><defs><style>.cls-1{fill:#fff;}.cls-2{fill:none;}</style></defs><g id="Layer_1-2"><g><rect class="cls-2" width="40" height="40"/><g><path class="cls-1" d="M31.5,8.19h-2.86v-.74c0-1.46-1.19-2.65-2.65-2.65h-1.27c-.04-2.59-2.14-4.66-4.73-4.66s-4.69,2.08-4.73,4.66h-1.27c-1.46,0-2.65,1.19-2.65,2.65v.74h-2.86c-.95,0-1.75,.77-1.75,1.71v28.24c0,.95,.8,1.72,1.75,1.72H31.5c.95,0,1.75-.77,1.75-1.72V9.91c0-.95-.8-1.71-1.75-1.71ZM20,2.62c1.22,0,2.22,.97,2.25,2.18h-4.5c.04-1.21,1.03-2.18,2.25-2.18Zm11.07,35.14H8.93V10.29h2.42v1.94H28.64v-1.94h2.42v27.47h0Z"/><path class="cls-1" d="M28,15.87h-5.57c-.88,0-1.59,.65-1.59,1.53s.71,1.53,1.59,1.53h5.57c.88,0,1.59-.66,1.59-1.53s-.71-1.53-1.59-1.53Z"/><path class="cls-1" d="M14.37,17.32l-1.2-.93c-.3-.23-.72-.19-.97,.08l-.69,.76c-.13,.15-.2,.34-.18,.54,.02,.2,.11,.38,.27,.5l2.09,1.65c.5,.4,1.22,.36,1.68-.1l3.66-3.66c.18-.18,.28-.42,.28-.67s-.1-.49-.28-.67l-.42-.42c-.37-.37-.96-.37-1.33,0l-2.9,2.9Z"/><path class="cls-1" d="M28,22.98h-5.57c-.88,0-1.59,.66-1.59,1.53s.71,1.53,1.59,1.53h5.57c.88,0,1.59-.66,1.59-1.53,0-.88-.71-1.53-1.59-1.53Z"/><path class="cls-1" d="M14.37,24.43l-1.2-.93c-.3-.23-.72-.19-.97,.09l-.69,.76c-.13,.15-.2,.34-.18,.54,.02,.2,.11,.38,.27,.5l2.09,1.65c.5,.4,1.23,.35,1.68-.1l3.66-3.66c.18-.18,.28-.42,.28-.67s-.1-.49-.28-.67l-.42-.42c-.37-.37-.96-.37-1.33,0l-2.91,2.9Z"/><path class="cls-1" d="M28,29.84h-5.57c-.88,0-1.59,.66-1.59,1.53s.71,1.53,1.59,1.53h5.57c.88,0,1.59-.66,1.59-1.53s-.71-1.53-1.59-1.53Z"/><path class="cls-1" d="M14.37,31.3l-1.2-.93c-.3-.23-.72-.19-.97,.08l-.69,.76c-.13,.15-.2,.34-.18,.54,.02,.2,.11,.38,.27,.5l2.09,1.65c.5,.4,1.23,.35,1.68-.1l3.66-3.66c.37-.37,.37-.96,0-1.33l-.42-.42c-.18-.18-.42-.28-.67-.28s-.49,.1-.67,.28l-2.9,2.9Z"/></g></g></g></svg>