<?xml version="1.0" encoding="UTF-8"?><svg id="Layer_2" xmlns="http://www.w3.org/2000/svg" viewBox="0 0 40 40"><defs><style>.cls-1{fill:#fff;}.cls-2{fill:none;}</style></defs><g id="Layer_1-2"><g><rect class="cls-2" width="40" height="40"/><g><path class="cls-1" d="M34.94,26.52c-1.46,0-2.65,1.19-2.65,2.65s1.19,2.65,2.65,2.65,2.65-1.19,2.65-2.65-1.19-2.65-2.65-2.65Zm0,3.72c-.59,0-1.07-.48-1.07-1.07s.48-1.07,1.07-1.07,1.07,.48,1.07,1.07-.48,1.07-1.07,1.07Z"/><path class="cls-1" d="M34.94,20.9c-1.46,0-2.65,1.19-2.65,2.65s1.19,2.65,2.65,2.65,2.65-1.19,2.65-2.65-1.19-2.65-2.65-2.65Zm0,3.72c-.59,0-1.07-.48-1.07-1.07s.48-1.07,1.07-1.07,1.07,.48,1.07,1.07-.48,1.07-1.07,1.07Z"/><path class="cls-1" d="M34.94,32.14c-1.46,0-2.65,1.19-2.65,2.65s1.19,2.65,2.65,2.65,2.65-1.19,2.65-2.65-1.19-2.65-2.65-2.65Zm0,3.72c-.59,0-1.07-.48-1.07-1.07s.48-1.07,1.07-1.07,1.07,.48,1.07,1.07-.48,1.07-1.07,1.07Z"/><path class="cls-1" d="M38.82,37.79h-.01c-.44,0-.79,.35-.79,.79s.35,.79,.79,.79h.01c.44,0,.79-.35,.79-.79s-.35-.79-.79-.79Z"/><path class="cls-1" d="M1.67,37.79h-.01c-.44,0-.79,.35-.79,.79s.35,.79,.79,.79h.01c.44,0,.79-.35,.79-.79s-.35-.79-.79-.79Z"/><path class="cls-1" d="M17.36,16.68c-.49,0-.88,.4-.88,.88s.4,.88,.88,.88,.88-.4,.88-.88-.4-.88-.88-.88Z"/><path class="cls-1" d="M23.12,16.68c-.49,0-.88,.4-.88,.88s.4,.88,.88,.88,.88-.4,.88-.88-.4-.88-.88-.88Z"/><path class="cls-1" d="M21.01,20.4h-1.55c-.44,0-.79,.35-.79,.79,0,.86,.7,1.56,1.56,1.56s1.56-.7,1.56-1.56c0-.44-.35-.79-.79-.79Z"/><path class="cls-1" d="M5.29,.63C2.85,.63,.86,2.62,.86,5.06c0,2.17,1.57,3.98,3.64,4.36v8.65c0,.44,.35,.79,.79,.79s.79-.35,.79-.79V9.41c2.07-.37,3.64-2.18,3.64-4.36,0-2.44-1.99-4.43-4.43-4.43Zm0,7.27c-1.57,0-2.85-1.28-2.85-2.85s1.28-2.85,2.85-2.85,2.85,1.28,2.85,2.85c0,1.57-1.28,2.85-2.85,2.85Z"/><path class="cls-1" d="M6.83,4.35H3.75c-.44,0-.79,.35-.79,.79s.35,.79,.79,.79h3.08c.44,0,.79-.35,.79-.79s-.35-.79-.79-.79Z"/><path class="cls-1" d="M15.42,34.39h-.01c-.44,0-.79,.35-.79,.79s.35,.79,.79,.79h.01c.44,0,.79-.35,.79-.79,0-.44-.35-.79-.79-.79Z"/><path class="cls-1" d="M38.81,18.97h-7.74c-.44,0-.79,.35-.79,.79v9.51c-.21-.16-.44-.29-.68-.39l-5.09-2.12c-.18-.08-.3-.25-.3-.45v-1.23l2.08-1.19s.03-.02,.04-.03c1.03-.68,1.7-1.89,1.8-3.25,0-.02,0-.04,0-.06v-.66c1.03-.33,1.77-1.3,1.77-2.44s-.74-2.1-1.77-2.44v-1.31l.26-.85c2.26-1.07,2.75-2.33,2.75-3.22,0-1.4-1.23-2.66-3.47-3.53-2-.78-4.65-1.21-7.45-1.21s-5.44,.43-7.45,1.21c-2.24,.87-3.47,2.13-3.47,3.53,0,.89,.49,2.15,2.74,3.22l.27,.85v1.31c-1.03,.33-1.77,1.3-1.77,2.44s.74,2.1,1.77,2.44v.66s0,.04,0,.06c.1,1.35,.78,2.57,1.82,3.25,.01,0,.03,.02,.04,.03l2.07,1.19v1.23s0,.07,0,.08c-.03,.16-.13,.31-.29,.37l-2.61,1.09v-.02c0-3.44-2.8-6.24-6.24-6.24S.86,24.39,.86,27.83s2.8,6.24,6.24,6.24c.51,0,1.02-.06,1.51-.18v3.9H4.23c-.44,0-.79,.35-.79,.79s.35,.79,.79,.79H36.25c.44,0,.79-.35,.79-.79s-.35-.79-.79-.79h-4.39V20.55h6.16v15.5c0,.44,.35,.79,.79,.79s.79-.35,.79-.79V19.76c0-.44-.35-.79-.79-.79ZM12.11,10.29c-.2,.06-.38,.2-.48,.39-.01,.02-.02,.04-.03,.07-.45-.37-.7-.74-.7-1.09,0-1.32,3.55-3.16,9.33-3.16s9.33,1.84,9.33,3.16c0,.35-.25,.73-.7,1.09-.01-.02-.02-.05-.03-.07-.1-.19-.27-.32-.47-.38-.15-.04-3.64-1.04-8.12-1.04-4.49,0-7.98,1-8.13,1.04Zm15.03,1.32l-.37,1.2H13.71l-.37-1.2c1.25-.29,3.86-.79,6.91-.79s5.66,.5,6.9,.79Zm-12.14,10.93c-.6-.41-1.02-1.17-1.09-2.01v-1.29c0-.44-.35-.79-.79-.79-.54,0-.98-.44-.98-.98s.44-.98,.98-.98c.44,0,.79-.35,.79-.79v-1.31h12.65v1.31c0,.44,.35,.79,.79,.79,.54,0,.98,.44,.98,.98s-.44,.98-.98,.98c-.44,0-.79,.35-.79,.79v1.29c-.07,.85-.47,1.6-1.08,2.01l-4.26,2.43s-.03,.02-.04,.03c-.59,.39-1.3,.39-1.89,0-.01,0-.03-.02-.04-.03l-4.25-2.43Zm7.64,4.9c0,1.33-1.08,2.41-2.41,2.41s-2.41-1.08-2.41-2.41v-1.45l.61,.35c.56,.36,1.18,.54,1.8,.54s1.24-.18,1.8-.54l.61-.35v1.45Zm-11.22-1.37l-1.94,.51,1.43-1.43c.2,.28,.37,.59,.51,.92Zm-4.31-2.89c1,0,1.93,.32,2.69,.86l-1.58,1.58c-.33-.17-.71-.26-1.11-.26s-.77,.09-1.11,.26l-1.58-1.58c.76-.54,1.69-.86,2.69-.86Zm-3.81,1.97l1.43,1.43-1.94-.51c.13-.33,.31-.64,.51-.92Zm3.02,7.28c-2.2-.38-3.87-2.29-3.87-4.59,0-.07,0-.15,0-.22l2.2,.58c.13,.94,.79,1.71,1.67,2v2.24h0Zm.79-3.69c-.5,0-.91-.41-.91-.91s.41-.91,.91-.91,.91,.41,.91,.91c0,.5-.41,.91-.91,.91Zm1.51,3.51c-.24,.08-.48,.14-.72,.18v-2.24c.88-.29,1.54-1.06,1.67-2l2.2-.58c0,.07,0,.15,0,.22,0,.23-.02,.47-.05,.7l-.84,.35c-1.27,.53-2.18,1.9-2.26,3.36Zm1.58,5.54h0v-1.82h2.66c.44,0,.79-.35,.79-.79s-.35-.79-.79-.79h-2.66v-1.95c0-.89,.55-1.79,1.29-2.1l1.86-.78,5.46,8.22H10.2Zm4.64-8.84l1.52-.63c.4,1.78,1.99,3.11,3.89,3.11s3.49-1.33,3.89-3.11l1.51,.63-5.41,8.13-5.4-8.13Zm6.83,8.84l5.47-8.22,1.87,.78c.73,.31,1.29,1.21,1.29,2.1v5.35h-8.62Z"/></g></g></g></svg>