<?xml version="1.0" encoding="UTF-8"?>
<svg id="Layer_2" data-name="Layer 2" xmlns="http://www.w3.org/2000/svg" viewBox="0 0 40 40">
  <defs>
    <style>
      .cls-1 {
        fill: #0091ff;
      }

      .cls-2 {
        fill: none;
      }
    </style>
  </defs>
  <g id="Layer_1-2" data-name="Layer 1">
    <g>
      <rect class="cls-2" width="40" height="40"/>
      <g>
        <path class="cls-1" d="m22.31,39.7c-2.13-.56-4.26-1.13-6.39-1.69-1.61-.43-3.21-.9-4.84-1.27-.66-.15-1.38-.09-2.07-.1-.07,0-.17.13-.22.21-.41.77-1.04,1.17-1.93,1.17-.98,0-1.95,0-2.93,0-1.27,0-2.13-.86-2.13-2.13,0-2.63,0-5.26,0-7.89,0-1.26.87-2.13,2.13-2.14.98,0,1.95,0,2.93,0,.86,0,1.51.38,1.9,1.15.1.19.2.25.41.26.73.03,1.42-.09,2.1-.37,1.07-.44,2.2-.71,3.37-.74,1.86-.04,3.45.68,4.88,1.81.18.14.38.27.53.45.4.49.9.62,1.53.59,1.08-.05,2.16,0,3.24-.02.92-.02,1.73.2,2.4.87.43-.22.85-.43,1.27-.65,1.6-.82,3.2-1.64,4.79-2.46.87-.45,1.77-.53,2.67-.12,1.85.84,2.12,3.36.47,4.66-.91.72-1.89,1.37-2.85,2.04-.37.26-.82.17-1.06-.16-.26-.34-.19-.81.18-1.09.85-.62,1.73-1.2,2.56-1.85.29-.22.56-.56.66-.9.25-.86-.53-1.59-1.44-1.39-.2.04-.39.13-.57.22-1.89.96-3.77,1.93-5.65,2.89-.21.11-.29.2-.26.46.17,1.71-1.08,3.14-2.81,3.16-2.24.03-4.47.01-6.71,0-.53,0-.87-.32-.88-.77,0-.47.34-.77.91-.77,2.17,0,4.34,0,6.51,0,.76,0,1.32-.43,1.43-1.08.14-.81-.46-1.52-1.32-1.53-1.35-.01-2.7-.02-4.05,0-.68.01-1.24-.2-1.74-.67-.83-.8-1.74-1.47-2.84-1.86-1.43-.51-2.84-.33-4.22.17-1.02.37-2.03.74-3.14.64-.05,0-.1.02-.15.04v6.18s.06.04.08.04c1.72-.16,3.32.4,4.94.83,2.55.69,5.1,1.37,7.65,2.07,1.2.33,2.32.19,3.36-.49.68-.44,1.33-.91,2-1.37.28-.19.58-.22.87-.04.28.17.41.43.35.75-.03.15-.1.34-.22.43-1.2.9-2.37,1.85-3.86,2.27-.21.06-.42.11-.62.16h-1.23Zm-14.87-7.73c0-1.29,0-2.59,0-3.88,0-.52-.17-.68-.7-.68-.9,0-1.8,0-2.69,0-.53,0-.7.17-.7.68,0,2.57,0,5.15,0,7.72,0,.51.16.67.66.67.91,0,1.82,0,2.73,0,.56,0,.69-.14.69-.71,0-1.27,0-2.54,0-3.8Z"/>
        <path class="cls-1" d="m14.45,16.26c-.23-.02-.48,0-.71-.06-.77-.16-1.33-.82-1.35-1.62-.02-.94-.03-1.87,0-2.81.03-.94.76-1.63,1.74-1.64.29,0,.41-.09.51-.37.2-.59.46-1.16.72-1.73.09-.2.11-.32-.06-.5-.81-.85-.79-1.8.05-2.64.56-.56,1.12-1.13,1.69-1.69.78-.77,1.78-.79,2.56-.02.19.19.32.19.56.08.57-.27,1.15-.5,1.74-.72.24-.09.34-.17.34-.45,0-1.1.72-1.78,1.83-1.79.82,0,1.64,0,2.47,0,1.08,0,1.8.7,1.81,1.76,0,.29.11.38.36.47.59.22,1.17.46,1.74.72.22.1.34.11.53-.07.79-.78,1.78-.77,2.56,0,.6.58,1.19,1.17,1.77,1.77.76.77.77,1.76.02,2.53-.18.19-.21.31-.1.56.28.58.51,1.17.74,1.77.08.2.14.31.39.32,1.19.03,1.84.71,1.84,1.89,0,.79,0,1.59,0,2.38,0,1.09-.71,1.81-1.8,1.82-.24,0-.35.07-.43.31-.23.61-.48,1.21-.75,1.81-.1.21-.08.33.08.49.78.81.77,1.79-.01,2.59-.57.57-1.14,1.15-1.72,1.71-.81.79-1.78.81-2.59.03-.16-.15-.27-.19-.49-.09-.6.28-1.22.53-1.84.77-.19.07-.28.15-.28.37-.03,1.18-.71,1.84-1.89,1.85-.8,0-1.59,0-2.39,0-1.1-.01-1.81-.71-1.83-1.8,0-.24-.06-.35-.3-.44-.61-.22-1.22-.48-1.81-.75-.21-.09-.33-.09-.5.07-.84.8-1.8.78-2.62-.03-.57-.57-1.15-1.14-1.72-1.71-.77-.78-.78-1.77,0-2.56.17-.18.18-.3.08-.53-.31-.67-.59-1.36-.9-2.07Zm13.9,6.13c.68-.33,1.28-.6,1.86-.92.66-.36.87-.35,1.41.19.13.13.26.25.38.38.17.19.31.18.48,0,.55-.56,1.1-1.11,1.66-1.66.19-.18.21-.33,0-.51-.2-.18-.39-.37-.57-.57-.29-.31-.34-.62-.12-.98.57-.94.99-1.94,1.25-3,.1-.4.38-.6.78-.61.28-.01.57,0,.85,0,.21,0,.31-.08.31-.29,0-.82,0-1.64,0-2.46,0-.22-.12-.28-.32-.28-.28,0-.57,0-.85,0-.4-.02-.68-.22-.77-.62-.26-1.07-.67-2.07-1.25-3-.22-.35-.15-.69.13-.98.19-.19.37-.39.57-.57.18-.17.18-.31,0-.48-.43-.42-.86-.85-1.28-1.28q-.64-.64-1.27-.01c-.06.06-.13.13-.19.19-.3.28-.63.34-.98.12-.94-.58-1.94-.99-3.01-1.25-.41-.1-.6-.37-.62-.78-.01-.27-.01-.54,0-.81,0-.23-.06-.36-.33-.35-.8.01-1.59.01-2.39,0-.26,0-.33.12-.33.35,0,.27.01.54,0,.81-.02.38-.2.67-.59.76-1.09.26-2.12.69-3.08,1.28-.32.2-.64.14-.92-.12-.22-.2-.42-.41-.63-.62-.14-.15-.27-.17-.42-.01-.58.58-1.16,1.16-1.74,1.74-.15.15-.15.28,0,.42.2.19.4.4.6.6.28.29.35.63.13.98-.58.94-.99,1.93-1.25,3-.1.4-.37.6-.77.62-.27.01-.54.02-.81,0-.26-.01-.37.09-.36.36.01.55,0,1.1,0,1.65q0,1.02,1,1.02s.08,0,.12,0c.46.02.72.2.83.65.26,1.05.67,2.04,1.24,2.97.22.35.17.69-.11.98-.19.2-.39.41-.6.6-.17.16-.16.29,0,.45.58.57,1.15,1.14,1.72,1.71.15.15.28.16.43,0,.16-.17.33-.33.49-.49.44-.44.7-.47,1.23-.17.12.07.24.15.37.21.51.24,1.03.47,1.6.73,0-1.05-.01-2,0-2.95,0-.29-.07-.45-.35-.59-3.87-2.04-4.83-7.15-1.96-10.45.61-.7,1.29-1.33,2.21-1.62.8-.25,1.48.17,1.64.98.04.2.06.41.06.61,0,1.31-.02,2.62-.03,3.92,0,.18.02.36.06.53.14.65.75,1.19,1.37,1.24.54.04,1.21-.44,1.42-1.05.07-.21.11-.45.11-.68.01-1.14,0-2.28,0-3.42,0-.38-.03-.77.03-1.15.14-.82.83-1.23,1.63-.99.18.05.36.13.53.22,2.35,1.3,3.76,4.31,3.26,6.94-.42,2.23-1.63,3.89-3.63,4.97-.11.06-.23.22-.23.33-.02,1.01-.01,2.02-.01,3.17Zm-6.09-13.96s-.05-.02-.06-.02c-.04.02-.09.05-.13.08-1.58,1.15-2.39,2.71-2.25,4.66.15,2.12,1.27,3.64,3.22,4.51.52.23.74.55.74,1.11-.02,1.78,0,3.56-.01,5.34,0,.32.11.43.42.42.71-.02,1.41-.02,2.12,0,.38.01.52-.09.51-.49-.02-1.76,0-3.51-.02-5.27,0-.56.2-.89.73-1.11,2.39-1,3.68-3.53,3.1-6.04-.32-1.38-1.09-2.45-2.3-3.25-.02.07-.04.11-.04.14,0,1.23.02,2.46,0,3.69,0,.37-.04.75-.14,1.1-.36,1.31-1.74,2.36-2.96,2.28-1.31-.09-2.49-1.03-2.81-2.32-.12-.48-.13-.99-.14-1.48-.02-1.12,0-2.25,0-3.36Z"/>
        <path class="cls-1" d="m30.32,35.48c-.42,0-.75-.32-.76-.74,0-.43.34-.79.76-.79.41,0,.76.34.77.75.01.42-.34.78-.77.78Z"/>
      </g>
    </g>
  </g>
</svg>