<?xml version="1.0" encoding="UTF-8"?>
<svg id="Layer_2" data-name="Layer 2" xmlns="http://www.w3.org/2000/svg" viewBox="0 0 40 40">
  <defs>
    <style>
      .cls-1 {
        fill: #0091ff;
      }

      .cls-2 {
        fill: none;
      }
    </style>
  </defs>
  <g id="Layer_1-2" data-name="Layer 1">
    <g>
      <rect class="cls-2" width="40" height="40"/>
      <g>
        <path class="cls-1" d="m.76,30.8c.15-.49.25-.99.45-1.46.69-1.62,1.93-2.6,3.62-3.04.73-.19,1.46-.36,2.19-.52.21-.05.27-.14.29-.35.04-.42-.1-.66-.45-.92-1.07-.78-1.75-1.86-1.82-3.18-.08-1.53-.11-3.08.04-4.6.2-2.14,2.21-3.85,4.36-3.94,1.41-.06,2.72.18,3.82,1.13.14.12.27.25.42.37,1.15-2.89,3.22-4.59,6.36-4.59,3.12,0,5.17,1.71,6.28,4.48.63-.37,1.23-.85,1.92-1.09,2.46-.84,5.24-.1,6.38,2.46.26.59.38,1.27.42,1.92.07,1.08.03,2.17.02,3.26-.03,1.66-.7,3-2.09,3.94-.37.25-.21.58-.21.87,0,.09.25.22.4.26.68.18,1.37.31,2.04.5,2.23.61,3.57,2.05,4,4.33.01.06.04.11.06.17v3c-.18.46-.53.61-1,.61-1.8-.01-3.6,0-5.4,0h-.36v3.3c1.47,0,2.88,0,4.29,0,.55,0,.85.2.94.61.08.37-.1.65-.58.89H2.87c-.48-.24-.66-.52-.58-.89.09-.41.39-.61.94-.61,1.21,0,2.43,0,3.64,0h.67v-3.3h-.41c-1.79,0-3.58,0-5.36,0-.48,0-.83-.14-1-.61,0-1,0-2,0-3Zm24.35-12.8c-1.96-.15-2.21-.28-3.65-1.89-.95.68-1.97,1.25-3.12,1.49-1.13.23-2.28.34-3.39.5,0,.89-.09,1.86.02,2.81.27,2.25,2.03,3.97,4.31,4.32,2.15.34,4.33-.84,5.32-2.84.7-1.41.46-2.9.51-4.39Zm-7.05,19.68c-2.26-2.26-4.52-4.51-6.8-6.79-.53.38-.99.89-1.38,1.48-1.09,1.64-.83,3.49-.84,5.31h9.03Zm12.95,0c-.04-1.12,0-2.22-.14-3.3-.19-1.46-.97-2.62-2.12-3.47-2.28,2.27-4.54,4.53-6.79,6.77h9.05ZM14.88,16.46c1.63.1,3.14-.15,4.56-.87,1.01-.51,1.86-1.21,2.6-2.06.36-.42.81-.47,1.15-.17.35.31.34.73-.03,1.16-.17.2-.34.39-.5.58.59,1.05,1.42,1.51,2.46,1.35,0-1.85-.73-3.35-2.28-4.38-1.71-1.13-3.54-1.21-5.33-.21-1.76.98-2.59,2.56-2.62,4.61Zm-1.5,2.81c-.82-.19-1.65-.25-2.36-.57-.78-.35-1.42-.33-2.2,0-.72.31-1.54.38-2.38.57.03.67,0,1.41.12,2.13.08.46.31.93.59,1.31.89,1.23,2.38,1.49,3.86,1.14.91-.21,1.57-.79,2.01-1.62.52-.97.32-2.02.36-2.97Zm20.14,0c-.82-.19-1.64-.26-2.36-.57-.78-.34-1.41-.35-2.2,0-.71.32-1.54.38-2.39.58.03.68,0,1.45.13,2.2.07.43.31.88.57,1.24.9,1.24,2.38,1.49,3.86,1.15.93-.21,1.59-.8,2.03-1.64.5-.96.31-2,.35-2.95Zm4.2,13.63c0-.6.03-1.13,0-1.67-.1-1.51-.83-2.66-2.24-3.23-.94-.38-1.96-.55-2.97-.82-.31,1.19-.58,2.33-.9,3.46-.16.57-.28,1.1.15,1.61.07.08.1.2.13.31.07.27.22.35.51.35,1.14-.02,2.28,0,3.42,0h1.9Zm-35.52-.07c.13.04.15.06.17.06,1.79,0,3.58,0,5.37,0,.1,0,.24-.11.29-.2.17-.3.32-.62.46-.94.05-.11.09-.25.07-.35-.35-1.39-.71-2.78-1.08-4.22-1,.26-2,.45-2.94.8-1.11.42-1.88,1.27-2.12,2.44-.16.78-.15,1.6-.22,2.41Zm17.76,2.42s.06,0,.09,0c.56-2.19,1.15-4.37,1.67-6.56.16-.69.15-1.42.23-2.2-1.33.37-2.57.36-3.9,0,.08.8.1,1.54.25,2.25.28,1.29.64,2.56.97,3.85.23.89.46,1.78.69,2.66ZM6.49,17.65c1.06-.02,2.02-.3,2.89-.84.37-.23.71-.22,1.09,0,.38.22.77.43,1.19.55.55.16,1.13.24,1.7.36.09-1.86-1.33-3.44-3.43-3.44-2.11,0-3.53,1.59-3.44,3.39Zm20.13,0c.99-.04,1.9-.23,2.7-.74.54-.34,1.01-.36,1.52.01.07.05.15.09.23.13.77.38,1.58.58,2.46.59,0-1.25-.46-2.25-1.51-2.86-1.3-.75-2.67-.74-3.96.05-1.01.62-1.44,1.61-1.43,2.82Zm-13.77,12.41c1.93,1.92,3.83,3.83,5.69,5.69-.55-2.15-1.13-4.38-1.71-6.64-1.36.33-2.69.65-3.98.96Zm8.6,5.79c1.96-1.96,3.85-3.84,5.78-5.77-1.34-.32-2.68-.65-4.05-.98-.58,2.25-1.15,4.46-1.73,6.74Zm-8.86-10.17c1.32.4,2.74.51,3.99,1.23.11-.64.14-1.2-.56-1.49-.11-.05-.21-.14-.29-.23-.54-.6-1.08-1.2-1.46-1.63-.35.27-.75.65-1.21.92-.47.26-.55.62-.49,1.08,0,.04.01.07.02.13Zm14.82,0c.09-.52.07-.97-.49-1.23-.18-.09-.33-.26-.47-.42-.21-.23-.41-.48-.63-.74-.57,1.02-1.33,1.82-2.28,2.44-.07.05-.14.15-.14.23-.02.29,0,.59,0,.96,1.28-.74,2.7-.84,4.02-1.25Zm1.52-.25c.02.31,0,.64.07.95.25,1.07.53,2.13.82,3.19.05.19.2.36.3.55.42-1.31.76-2.57,1.07-3.84.07-.27,0-.58,0-.84h-2.26Zm-19.15,4.68c.5-.36,1.42-4.02,1.24-4.68h-2.23c.03,1.61.72,3.08,1,4.68Zm15.09-2.25s.01.06.02.1c1.04.26,2.08.53,3.16.8-.14-.54-.27-1.04-.41-1.57-.94.23-1.86.45-2.77.68Zm-9.74.09s0-.06,0-.09c-.91-.22-1.83-.44-2.76-.67-.14.54-.27,1.04-.4,1.57,1.08-.28,2.12-.54,3.16-.81Z"/>
        <path class="cls-1" d="m25.59,8.32c-.67.01-1.04-.58-.77-1.08.05-.1.13-.19.2-.27.93-.93,1.85-1.86,2.79-2.77.16-.15.4-.28.62-.3.54-.04.9.57.66,1.06-.04.08-.09.15-.15.22-.98.98-1.96,1.96-2.95,2.93-.12.12-.32.17-.4.21Z"/>
        <path class="cls-1" d="m15.21,7.39c0,.69-.57,1.05-1.05.81-.12-.06-.23-.15-.32-.25-.85-.84-1.7-1.69-2.54-2.54-.13-.14-.25-.32-.3-.5-.09-.3.03-.56.28-.75.26-.19.54-.19.81-.03.09.06.18.13.26.21.85.85,1.7,1.69,2.54,2.54.16.17.27.4.33.5Z"/>
        <path class="cls-1" d="m20.75,3.14c0,.5,0,1,0,1.5,0,.51-.31.86-.74.86-.43,0-.75-.34-.75-.85,0-1,0-1.99,0-2.99,0-.51.31-.86.74-.86.43,0,.75.34.76.85,0,.5,0,1,0,1.5Z"/>
        <path class="cls-1" d="m19.98,6.63c.41,0,.75.31.76.71.01.39-.33.75-.73.76-.4.01-.75-.32-.76-.72-.01-.4.32-.74.73-.75Z"/>
      </g>
    </g>
  </g>
</svg>