<?xml version="1.0" encoding="UTF-8"?><svg id="Layer_2" xmlns="http://www.w3.org/2000/svg" viewBox="0 0 28 28"><defs><style>.cls-1{stroke:#fff;stroke-miterlimit:10;stroke-width:.24px;}.cls-1,.cls-2{fill:none;}.cls-3{fill:#0091ff;}</style></defs><g id="Layer_1-2"><g><rect class="cls-2" width="28" height="28"/><g><path class="cls-3" d="M21.19,20.17c-.19-.39-.62-.6-1.03-.51-.45,.09-.76,.45-.77,.91-.01,.6,0,1.19,0,1.79-.02,1.12-.83,1.94-1.95,1.95-3.06,0-6.11,0-9.17,0-1.14,0-1.96-.83-1.96-1.96,0-5.56,0-11.12,0-16.68,0-1.15,.82-1.97,1.98-1.97,3.04,0,6.08,0,9.12,0,1.16,0,1.97,.82,1.98,1.99,0,.45,0,.89,0,1.34,0,.59,.4,1.01,.94,1.02,.56,0,.96-.42,.96-1.02,0-.45,0-.91,0-1.36-.01-2.19-1.68-3.87-3.87-3.87-3.06,0-6.11-.01-9.17,0-.43,0-.88,.07-1.28,.21-1.59,.54-2.58,1.97-2.58,3.69,0,5.12,0,10.23,0,15.35,0,.49-.02,.99,0,1.48,.08,1.51,.8,2.63,2.15,3.31,.38,.19,.82,.27,1.24,.4h10.12s.09-.04,.13-.05c1.68-.25,3.02-1.57,3.2-3.26,.09-.8,.04-1.62,.04-2.43,0-.11-.05-.22-.09-.32ZM14.75,6.15c0-.52-.38-.95-.92-.96-.66-.02-1.32-.02-1.98,0-.54,.02-.93,.45-.91,.97,.01,.52,.42,.92,.96,.93,.32,0,.64,0,.95,0,.31,0,.62,0,.93,0,.55-.01,.97-.41,.97-.94Zm-1.91,14.78c-.51,0-.94,.43-.95,.94,0,.53,.42,.96,.95,.96,.53,0,.96-.42,.96-.95,0-.52-.44-.96-.96-.96Zm10.71-7.51c-.05-.27-.2-.43-.48-.48-.74-.14-1.14-.84-.9-1.55,.09-.26,.03-.48-.19-.65-.37-.3-.78-.54-1.23-.71-.26-.1-.48-.05-.66,.17-.5,.58-1.31,.58-1.81,0-.18-.21-.4-.26-.66-.17-.41,.16-.79,.37-1.14,.64-.23,.18-.3,.41-.2,.69,.26,.72-.19,1.45-.95,1.55-.27,.04-.45,.19-.5,.45-.1,.48-.11,.96-.04,1.45,.05,.34,.21,.49,.55,.54,.27,.04,.5,.15,.68,.36,.33,.37,.4,.79,.21,1.24-.1,.26-.06,.5,.14,.66,.38,.32,.81,.57,1.28,.74,.06,.02,.13,.03,.2,.05,.19-.01,.34-.09,.45-.24,.49-.65,1.36-.66,1.87-.02,.17,.21,.41,.28,.66,.17,.41-.17,.79-.39,1.14-.68,.21-.18,.27-.4,.18-.66-.27-.72,.16-1.46,.92-1.57,.25-.04,.43-.21,.48-.45,.09-.5,.1-1,0-1.5Zm-4.36,2.23c-.82,0-1.48-.66-1.48-1.48,0-.81,.67-1.47,1.49-1.47,.81,0,1.47,.67,1.47,1.47,0,.82-.66,1.48-1.48,1.48Z"/><path class="cls-1" d="M21.19,20.17c-.19-.39-.62-.6-1.03-.51-.45,.09-.76,.45-.77,.91-.01,.6,0,1.19,0,1.79-.02,1.12-.83,1.94-1.95,1.95-3.06,0-6.11,0-9.17,0-1.14,0-1.96-.83-1.96-1.96,0-5.56,0-11.12,0-16.68,0-1.15,.82-1.97,1.98-1.97,3.04,0,6.08,0,9.12,0,1.16,0,1.97,.82,1.98,1.99,0,.45,0,.89,0,1.34,0,.59,.4,1.01,.94,1.02,.56,0,.96-.42,.96-1.02,0-.45,0-.91,0-1.36-.01-2.19-1.68-3.87-3.87-3.87-3.06,0-6.11-.01-9.17,0-.43,0-.88,.07-1.28,.21-1.59,.54-2.58,1.97-2.58,3.69,0,5.12,0,10.23,0,15.35,0,.49-.02,.99,0,1.48,.08,1.51,.8,2.63,2.15,3.31,.38,.19,.82,.27,1.24,.4h10.12s.09-.04,.13-.05c1.68-.25,3.02-1.57,3.2-3.26,.09-.8,.04-1.62,.04-2.43,0-.11-.05-.22-.09-.32ZM14.75,6.15c0-.52-.38-.95-.92-.96-.66-.02-1.32-.02-1.98,0-.54,.02-.93,.45-.91,.97,.01,.52,.42,.92,.96,.93,.32,0,.64,0,.95,0,.31,0,.62,0,.93,0,.55-.01,.97-.41,.97-.94Zm-1.91,14.78c-.51,0-.94,.43-.95,.94,0,.53,.42,.96,.95,.96,.53,0,.96-.42,.96-.95,0-.52-.44-.96-.96-.96Zm10.71-7.51c-.05-.27-.2-.43-.48-.48-.74-.14-1.14-.84-.9-1.55,.09-.26,.03-.48-.19-.65-.37-.3-.78-.54-1.23-.71-.26-.1-.48-.05-.66,.17-.5,.58-1.31,.58-1.81,0-.18-.21-.4-.26-.66-.17-.41,.16-.79,.37-1.14,.64-.23,.18-.3,.41-.2,.69,.26,.72-.19,1.45-.95,1.55-.27,.04-.45,.19-.5,.45-.1,.48-.11,.96-.04,1.45,.05,.34,.21,.49,.55,.54,.27,.04,.5,.15,.68,.36,.33,.37,.4,.79,.21,1.24-.1,.26-.06,.5,.14,.66,.38,.32,.81,.57,1.28,.74,.06,.02,.13,.03,.2,.05,.19-.01,.34-.09,.45-.24,.49-.65,1.36-.66,1.87-.02,.17,.21,.41,.28,.66,.17,.41-.17,.79-.39,1.14-.68,.21-.18,.27-.4,.18-.66-.27-.72,.16-1.46,.92-1.57,.25-.04,.43-.21,.48-.45,.09-.5,.1-1,0-1.5Zm-4.36,2.23c-.82,0-1.48-.66-1.48-1.48,0-.81,.67-1.47,1.49-1.47,.81,0,1.47,.67,1.47,1.47,0,.82-.66,1.48-1.48,1.48Z"/></g></g></g></svg>