<?xml version="1.0" encoding="UTF-8"?><svg id="Layer_2" xmlns="http://www.w3.org/2000/svg" viewBox="0 0 28.65 28.7"><defs><style>.cls-1{fill:#0091ff;}.cls-2{stroke:#0091ff;stroke-miterlimit:10;stroke-width:.25px;}.cls-2,.cls-3{fill:none;}</style></defs><g id="Layer_1-2"><g><rect class="cls-3" x=".32" y=".35" width="28" height="28"/><g><path class="cls-1" d="M28.29,1.74c0-.13,0-.26-.03-.38-.12-.55-.5-.84-1-1.01H1.39C.86,.51,.51,.86,.35,1.39V22.61c.25,.79,.8,1.05,1.6,1.04,3.52-.02,7.04,0,10.56,0,.08,0,.16,0,.25,0,.29-.02,.48-.2,.47-.46-.01-.25-.19-.41-.48-.42-.08,0-.16,0-.25,0H1.86c-.54,0-.64-.09-.64-.63,0-5.57,0-11.14,0-16.7v-.3H27.42v14.01c0,1.03,0,2.06,0,3.09,0,.31-.14,.47-.44,.53-.34,.06-.49,.25-.44,.53,.05,.25,.29,.38,.6,.33,.7-.12,1.15-.66,1.15-1.41,0-6.83,0-13.65,0-20.48Zm-.88,2.41s0,.03-.02,.07H1.22c0-.87,0-1.73,0-2.58,0-.25,.16-.39,.42-.41,.07,0,.15,0,.22,0H26.78c.55,0,.65,.1,.65,.65,0,.76,0,1.51,0,2.27Zm-3.16,14.93c-.51-.16-1.02-.32-1.54-.47-.43-.12-.86-.22-1.3-.33v-.32c0-1.28,.01-2.57-.01-3.85,0-.33-.07-.68-.22-.97-.28-.57-.78-.86-1.42-.82-.61,.04-1.04,.37-1.25,.94-.1,.28-.15,.6-.15,.91-.01,2.64,0,5.28,0,7.93v.34c-.49-.42-.91-.81-1.36-1.18-.22-.17-.46-.33-.72-.43-1.11-.41-2.14,.49-1.92,1.65,.08,.42,.28,.76,.55,1.08,.88,1.07,1.77,2.13,2.62,3.22,.56,.72,1.18,1.32,2.09,1.56h4.8c1.03-.31,1.35-1,1.33-1.95-.03-1.74-.03-3.48,0-5.22,.02-1.01-.75-1.87-1.49-2.11Zm.6,7.53c0,.61-.26,.87-.86,.87-1.28,0-2.57-.01-3.85,0-.62,0-1.11-.23-1.48-.68-1.07-1.29-2.12-2.59-3.17-3.9-.13-.16-.21-.36-.28-.56-.08-.23-.01-.45,.18-.62,.19-.16,.41-.16,.61-.06,.2,.11,.39,.23,.56,.38,.59,.5,1.17,1.02,1.75,1.53,.19,.16,.36,.35,.65,.23,.28-.12,.27-.38,.27-.63,0-1.5,0-3.01,0-4.51s0-3.01,0-4.51c0-.2,.04-.4,.1-.58,.08-.23,.26-.37,.52-.37,.25,0,.46,.1,.55,.33,.08,.19,.13,.42,.13,.63,.01,1.34,0,2.68,0,4.02,0,.6,.21,.84,.79,1,.84,.22,1.68,.45,2.52,.7,.7,.21,1,.66,1,1.38,0,1.79,0,3.57,0,5.36ZM12.17,7.18c-1.36,0-2.71,0-4.07,0-1.36,0-2.71,0-4.07,0-.76,0-1.18,.42-1.18,1.19,0,2.59,0,5.18,0,7.76,0,.78,.41,1.2,1.19,1.2,2.7,0,5.4,0,8.1,0,.77,0,1.18-.41,1.18-1.18,0-2.6,0-5.19,0-7.79,0-.77-.4-1.18-1.17-1.18Zm-5.01,.88h1.89v2.45c-.33-.17-.52-.65-.94-.54-.34,.09-.64,.33-.95,.51v-2.42Zm5.31,2.17c0,1.95,0,3.9,0,5.85,0,.36-.02,.37-.36,.37-2.66,0-5.33,0-7.99,0-.35,0-.37-.03-.37-.37,0-2.55,0-5.1,0-7.65,0-.37,.01-.38,.39-.38,.7,0,1.4,0,2.14,0,0,.87,0,1.69,0,2.52,0,.14,0,.27,0,.41,0,.3,.12,.53,.4,.66,.28,.12,.53,.06,.76-.14,.23-.2,.46-.4,.7-.61,.24,.21,.46,.41,.68,.61,.22,.2,.47,.25,.73,.13,.28-.12,.4-.35,.4-.65,0-.87,0-1.73,0-2.6v-.33h1.35c.28,0,.56,.01,.85,0,.25-.01,.34,.07,.33,.33-.01,.62,0,1.24,0,1.86Zm11.7,4.32c-.36,0-.73,0-1.09,0-.34,0-.52,.15-.52,.42,0,.28,.19,.45,.53,.45,.36,0,.73,0,1.09,0,.85,0,1.4-.55,1.41-1.4,0-.71,.01-1.42,0-2.13-.01-.86-.56-1.39-1.42-1.39-1.24,0-2.47,0-3.71,0s-2.51,0-3.77,0c-.79,0-1.34,.55-1.35,1.33,0,.75-.01,1.49,0,2.24,.01,.91,.85,1.54,1.74,1.33,.23-.06,.37-.21,.35-.45-.01-.24-.16-.38-.4-.4-.07,0-.15,0-.22,0-.44,0-.6-.15-.6-.59,0-.67,0-1.35,0-2.02,0-.41,.15-.57,.55-.57,2.47,0,4.93,0,7.4,0,.39,0,.55,.15,.55,.54,0,.69,0,1.39,0,2.08,0,.39-.17,.55-.55,.55Zm-14.79,4.49c0-.28-.21-.43-.58-.43-.89,0-1.78,0-2.67,0s-1.8,0-2.7,0c-.35,0-.57,.17-.57,.45,0,.27,.21,.43,.56,.43,1.8,0,3.6,0,5.4,0,.36,0,.57-.17,.56-.44Zm-5.04,1.42c-.34,0-.67,0-1.01,0-.28,0-.47,.18-.47,.43,0,.24,.19,.44,.46,.44,.68,0,1.36,0,2.05,0,.28,0,.45-.19,.45-.44,0-.25-.18-.42-.47-.43-.34,0-.67,0-1.01,0ZM25.21,2.31c-.09-.01-.18-.01-.27-.01-4.82,0-9.64,0-14.46,0-.08,0-.16,0-.25,0-.23,.03-.37,.17-.38,.39-.02,.23,.1,.39,.32,.44,.11,.03,.23,.03,.35,.03,2.39,0,4.78,0,7.17,0s4.8,0,7.2,0c.12,0,.24,0,.35-.03,.22-.06,.33-.22,.31-.45-.02-.22-.14-.35-.36-.38Zm-18.58,0c-.23,0-.42,.19-.42,.41,0,.24,.2,.43,.44,.42,.23,0,.41-.2,.41-.43,0-.23-.2-.41-.43-.41Zm-1.85,0c-.23,0-.41,.19-.41,.42,0,.24,.19,.43,.44,.42,.23,0,.4-.2,.4-.43,0-.23-.19-.41-.42-.4Zm-1.82,0c-.24-.01-.44,.18-.44,.42,0,.23,.18,.41,.41,.42,.23,0,.41-.17,.42-.4,0-.24-.16-.42-.39-.43Zm7.85,11.97c-.27,0-.54,0-.82,0s-.55,0-.82,0c-.27,0-.44,.17-.44,.42,0,.24,.16,.44,.42,.45,.56,.02,1.13,.01,1.69,0,.26,0,.42-.21,.42-.45,0-.24-.18-.41-.44-.42Z"/><path class="cls-2" d="M28.29,1.74c0-.13,0-.26-.03-.38-.12-.55-.5-.84-1-1.01H1.39C.86,.51,.51,.86,.35,1.39V22.61c.25,.79,.8,1.05,1.6,1.04,3.52-.02,7.04,0,10.56,0,.08,0,.16,0,.25,0,.29-.02,.48-.2,.47-.46-.01-.25-.19-.41-.48-.42-.08,0-.16,0-.25,0H1.86c-.54,0-.64-.09-.64-.63,0-5.57,0-11.14,0-16.7v-.3H27.42v14.01c0,1.03,0,2.06,0,3.09,0,.31-.14,.47-.44,.53-.34,.06-.49,.25-.44,.53,.05,.25,.29,.38,.6,.33,.7-.12,1.15-.66,1.15-1.41,0-6.83,0-13.65,0-20.48Zm-.88,2.41s0,.03-.02,.07H1.22c0-.87,0-1.73,0-2.58,0-.25,.16-.39,.42-.41,.07,0,.15,0,.22,0H26.78c.55,0,.65,.1,.65,.65,0,.76,0,1.51,0,2.27Zm-3.16,14.93c-.51-.16-1.02-.32-1.54-.47-.43-.12-.86-.22-1.3-.33v-.32c0-1.28,.01-2.57-.01-3.85,0-.33-.07-.68-.22-.97-.28-.57-.78-.86-1.42-.82-.61,.04-1.04,.37-1.25,.94-.1,.28-.15,.6-.15,.91-.01,2.64,0,5.28,0,7.93v.34c-.49-.42-.91-.81-1.36-1.18-.22-.17-.46-.33-.72-.43-1.11-.41-2.14,.49-1.92,1.65,.08,.42,.28,.76,.55,1.08,.88,1.07,1.77,2.13,2.62,3.22,.56,.72,1.18,1.32,2.09,1.56h4.8c1.03-.31,1.35-1,1.33-1.95-.03-1.74-.03-3.48,0-5.22,.02-1.01-.75-1.87-1.49-2.11Zm.6,7.53c0,.61-.26,.87-.86,.87-1.28,0-2.57-.01-3.85,0-.62,0-1.11-.23-1.48-.68-1.07-1.29-2.12-2.59-3.17-3.9-.13-.16-.21-.36-.28-.56-.08-.23-.01-.45,.18-.62,.19-.16,.41-.16,.61-.06,.2,.11,.39,.23,.56,.38,.59,.5,1.17,1.02,1.75,1.53,.19,.16,.36,.35,.65,.23,.28-.12,.27-.38,.27-.63,0-1.5,0-3.01,0-4.51s0-3.01,0-4.51c0-.2,.04-.4,.1-.58,.08-.23,.26-.37,.52-.37,.25,0,.46,.1,.55,.33,.08,.19,.13,.42,.13,.63,.01,1.34,0,2.68,0,4.02,0,.6,.21,.84,.79,1,.84,.22,1.68,.45,2.52,.7,.7,.21,1,.66,1,1.38,0,1.79,0,3.57,0,5.36ZM12.17,7.18c-1.36,0-2.71,0-4.07,0-1.36,0-2.71,0-4.07,0-.76,0-1.18,.42-1.18,1.19,0,2.59,0,5.18,0,7.76,0,.78,.41,1.2,1.19,1.2,2.7,0,5.4,0,8.1,0,.77,0,1.18-.41,1.18-1.18,0-2.6,0-5.19,0-7.79,0-.77-.4-1.18-1.17-1.18Zm-5.01,.88h1.89v2.45c-.33-.17-.52-.65-.94-.54-.34,.09-.64,.33-.95,.51v-2.42Zm5.31,2.17c0,1.95,0,3.9,0,5.85,0,.36-.02,.37-.36,.37-2.66,0-5.33,0-7.99,0-.35,0-.37-.03-.37-.37,0-2.55,0-5.1,0-7.65,0-.37,.01-.38,.39-.38,.7,0,1.4,0,2.14,0,0,.87,0,1.69,0,2.52,0,.14,0,.27,0,.41,0,.3,.12,.53,.4,.66,.28,.12,.53,.06,.76-.14,.23-.2,.46-.4,.7-.61,.24,.21,.46,.41,.68,.61,.22,.2,.47,.25,.73,.13,.28-.12,.4-.35,.4-.65,0-.87,0-1.73,0-2.6v-.33h1.35c.28,0,.56,.01,.85,0,.25-.01,.34,.07,.33,.33-.01,.62,0,1.24,0,1.86Zm11.7,4.32c-.36,0-.73,0-1.09,0-.34,0-.52,.15-.52,.42,0,.28,.19,.45,.53,.45,.36,0,.73,0,1.09,0,.85,0,1.4-.55,1.41-1.4,0-.71,.01-1.42,0-2.13-.01-.86-.56-1.39-1.42-1.39-1.24,0-2.47,0-3.71,0s-2.51,0-3.77,0c-.79,0-1.34,.55-1.35,1.33,0,.75-.01,1.49,0,2.24,.01,.91,.85,1.54,1.74,1.33,.23-.06,.37-.21,.35-.45-.01-.24-.16-.38-.4-.4-.07,0-.15,0-.22,0-.44,0-.6-.15-.6-.59,0-.67,0-1.35,0-2.02,0-.41,.15-.57,.55-.57,2.47,0,4.93,0,7.4,0,.39,0,.55,.15,.55,.54,0,.69,0,1.39,0,2.08,0,.39-.17,.55-.55,.55Zm-14.79,4.49c0-.28-.21-.43-.58-.43-.89,0-1.78,0-2.67,0s-1.8,0-2.7,0c-.35,0-.57,.17-.57,.45,0,.27,.21,.43,.56,.43,1.8,0,3.6,0,5.4,0,.36,0,.57-.17,.56-.44Zm-5.04,1.42c-.34,0-.67,0-1.01,0-.28,0-.47,.18-.47,.43,0,.24,.19,.44,.46,.44,.68,0,1.36,0,2.05,0,.28,0,.45-.19,.45-.44,0-.25-.18-.42-.47-.43-.34,0-.67,0-1.01,0ZM25.21,2.31c-.09-.01-.18-.01-.27-.01-4.82,0-9.64,0-14.46,0-.08,0-.16,0-.25,0-.23,.03-.37,.17-.38,.39-.02,.23,.1,.39,.32,.44,.11,.03,.23,.03,.35,.03,2.39,0,4.78,0,7.17,0s4.8,0,7.2,0c.12,0,.24,0,.35-.03,.22-.06,.33-.22,.31-.45-.02-.22-.14-.35-.36-.38Zm-18.58,0c-.23,0-.42,.19-.42,.41,0,.24,.2,.43,.44,.42,.23,0,.41-.2,.41-.43,0-.23-.2-.41-.43-.41Zm-1.85,0c-.23,0-.41,.19-.41,.42,0,.24,.19,.43,.44,.42,.23,0,.4-.2,.4-.43,0-.23-.19-.41-.42-.4Zm-1.82,0c-.24-.01-.44,.18-.44,.42,0,.23,.18,.41,.41,.42,.23,0,.41-.17,.42-.4,0-.24-.16-.42-.39-.43Zm7.85,11.97c-.27,0-.54,0-.82,0s-.55,0-.82,0c-.27,0-.44,.17-.44,.42,0,.24,.16,.44,.42,.45,.56,.02,1.13,.01,1.69,0,.26,0,.42-.21,.42-.45,0-.24-.18-.41-.44-.42Z"/></g></g></g></svg>