<?xml version="1.0" encoding="UTF-8"?><svg id="Layer_2" xmlns="http://www.w3.org/2000/svg" viewBox="0 0 28 28"><defs><style>.cls-1{fill:#0091ff;}.cls-2{fill:none;}</style></defs><g id="Layer_1-2"><g><rect class="cls-2" width="28" height="28"/><g><path class="cls-1" d="M21.71,10.7v.41c0,5.04,0,10.09,0,15.13,0,.27-.04,.55-.14,.79-.32,.72-1.18,.96-1.88,.54-1.04-.62-2.08-1.23-3.09-1.88-.33-.21-.58-.22-.92,0-1.11,.7-2.26,1.35-3.37,2.03-.59,.36-1.13,.36-1.72,0-1.15-.71-2.32-1.39-3.47-2.09-.25-.15-.44-.15-.69,0-1.07,.66-2.14,1.3-3.23,1.94-.82,.48-1.77,.1-1.99-.79-.03-.14-.04-.29-.04-.43,0-7.56,0-15.11,0-22.67C1.14,1.6,2.75,0,4.83,0c6.12,0,12.23,0,18.35,0,2.07,0,3.67,1.59,3.68,3.66,0,1.58,0,3.16,0,4.73,0,1.35-.95,2.29-2.3,2.3-.93,0-1.87,0-2.85,0Zm-1.87,14.78v-.41c0-7.06,0-14.12,0-21.18,0-.68,.04-1.34,.34-1.96,0,0-.01-.03-.03-.06h-.29c-4.97,0-9.93,0-14.9,0-1.25,0-1.96,.71-1.96,1.95,0,7.11,0,14.21,0,21.32,0,.1,0,.2,0,.35,.86-.52,1.67-.99,2.47-1.49,.85-.52,1.68-.52,2.53,0,1.07,.65,2.15,1.29,3.22,1.95,.15,.09,.26,.1,.42,0,1.06-.65,2.14-1.28,3.2-1.93,.87-.53,1.72-.52,2.58,0,.7,.43,1.42,.85,2.12,1.28,.08,.05,.17,.09,.29,.16Zm1.87-16.65c1,0,1.95,0,2.9,0,.24,0,.38-.14,.38-.38,0-1.65,.02-3.31-.01-4.96-.02-.92-.88-1.65-1.81-1.61-.78,.03-1.48,.7-1.46,1.67,.03,1.65,0,3.31,0,4.96v.32Z"/><path class="cls-1" d="M10.75,7.06c1.21,0,2.41,0,3.62,0,.63,0,1.04,.37,1.04,.93,0,.56-.42,.94-1.04,.94-2.43,0-4.87,0-7.3,0-.54,0-.93-.33-1-.83-.06-.43,.22-.86,.65-.99,.13-.04,.27-.04,.4-.04,1.21,0,2.41,0,3.62,0Z"/><path class="cls-1" d="M10.73,13.93c-1.23,0-2.45,0-3.68,0-.67,0-1.11-.56-.94-1.17,.1-.36,.33-.59,.7-.66,.13-.03,.27-.03,.41-.03,2.36,0,4.71,0,7.07,0,.17,0,.35,0,.52,.06,.42,.13,.66,.56,.6,1.02-.05,.41-.4,.75-.82,.78-.36,.02-.72,.01-1.08,.01-.92,0-1.85,0-2.77,0Z"/><path class="cls-1" d="M10.73,19.05c-1.23,0-2.45,0-3.68,0-.76,0-1.22-.76-.86-1.39,.17-.3,.44-.47,.79-.47,2.51,0,5.02,0,7.54,0,.51,0,.9,.42,.9,.92,0,.53-.39,.94-.95,.94-1.18,0-2.36,0-3.53,0-.07,0-.14,0-.2,0Z"/></g></g></g></svg>