<?xml version="1.0" encoding="UTF-8"?><svg id="Layer_2" xmlns="http://www.w3.org/2000/svg" viewBox="0 0 28 28"><defs><style>.cls-1{fill:#0091ff;}.cls-2{fill:none;}</style></defs><g id="Layer_1-2"><g><rect class="cls-2" width="28" height="28"/><g><path class="cls-1" d="M0,11.32v-.71s.04-.08,.05-.13c.18-.9,.7-1.54,1.51-1.95,.39-.2,.77-.41,1.17-.6,.3-.14,.41-.36,.38-.68-.04-.48-.06-.96-.07-1.45-.04-1.59,1.21-2.82,2.8-2.76,.49,.02,.98,.04,1.47,.07,.28,.02,.47-.09,.59-.34,.21-.42,.42-.83,.64-1.24C9.34,.02,11.02-.44,12.47,.46c.4,.25,.8,.51,1.2,.77,.22,.15,.44,.15,.66,0,.39-.25,.78-.5,1.17-.75,1.47-.93,3.16-.48,3.96,1.06,.21,.4,.42,.81,.62,1.21,.13,.26,.33,.37,.62,.35,.45-.03,.91-.04,1.37-.07,1.7-.08,2.96,1.17,2.89,2.86-.02,.46-.03,.91-.07,1.36-.02,.31,.09,.52,.37,.66,.4,.19,.79,.4,1.19,.61,1.53,.79,1.99,2.49,1.08,3.94-.24,.39-.48,.77-.74,1.15-.18,.26-.17,.49,0,.75,.26,.38,.51,.78,.75,1.17,.88,1.42,.43,3.09-1.04,3.87-.42,.23-.85,.45-1.29,.66-.25,.13-.36,.32-.34,.59,.03,.49,.06,.98,.07,1.47,.05,1.63-1.21,2.87-2.85,2.8-.45-.02-.89-.03-1.34-.07-.34-.03-.57,.09-.72,.41-.19,.41-.42,.81-.62,1.21-.22,.42-.5,.8-.92,1.03-.35,.19-.75,.31-1.13,.46h-.71c-.59-.12-1.1-.41-1.59-.74-.22-.16-.47-.29-.69-.45-.27-.2-.52-.18-.8,0-.73,.46-1.4,1.03-2.28,1.19h-.71s-.05-.03-.07-.04c-.94-.17-1.6-.7-2.02-1.55-.19-.38-.4-.75-.59-1.14-.14-.3-.35-.41-.68-.39-.44,.03-.89,.04-1.34,.07-1.68,.08-2.94-1.17-2.87-2.84,.02-.45,.03-.91,.07-1.36,.02-.32-.09-.54-.38-.68-.4-.19-.79-.41-1.19-.61-.43-.22-.82-.5-1.06-.92C.28,18.18,.16,17.77,0,17.39v-.71c.12-.55,.36-1.04,.69-1.5,.17-.25,.31-.51,.49-.76,.22-.29,.2-.54,0-.85-.46-.72-1.01-1.38-1.18-2.26Zm21.33,11.37v.08c.29,0,.57,0,.85,0,.42,0,.61-.18,.59-.59-.02-.48-.06-.96-.07-1.45-.02-1.15,.47-2.01,1.49-2.56,.42-.22,.84-.43,1.26-.65,.39-.2,.46-.46,.23-.83-.26-.41-.53-.81-.78-1.22-.6-.98-.6-1.96,0-2.94,.25-.4,.51-.8,.76-1.2,.25-.39,.18-.65-.24-.86-.4-.21-.79-.41-1.19-.61-1.07-.56-1.57-1.45-1.54-2.65,.01-.45,.04-.89,.06-1.34,.02-.48-.16-.66-.65-.64-.45,.02-.89,.05-1.34,.06-1.19,.04-2.07-.47-2.63-1.52-.22-.41-.43-.82-.64-1.24-.2-.38-.46-.45-.83-.22-.4,.25-.79,.52-1.2,.76-.98,.61-1.98,.61-2.96,0-.41-.25-.81-.52-1.22-.78-.35-.22-.61-.15-.81,.22-.24,.45-.46,.91-.71,1.35-.43,.77-1.08,1.28-1.96,1.36-.66,.06-1.33,0-1.99-.02-.43-.01-.62,.17-.61,.6,.02,.47,.05,.95,.06,1.42,.03,1.17-.47,2.03-1.5,2.58-.42,.22-.84,.43-1.26,.66-.37,.19-.44,.45-.22,.81,.26,.41,.53,.81,.78,1.22,.6,.99,.6,1.98,0,2.96-.23,.38-.48,.75-.72,1.13-.3,.47-.24,.69,.27,.95,.44,.23,.9,.45,1.33,.7,.73,.42,1.2,1.06,1.28,1.89,.06,.64,0,1.29-.01,1.93-.02,.54,.14,.7,.69,.68,.45-.02,.89-.05,1.34-.06,1.15-.03,2.02,.47,2.57,1.49,.23,.42,.43,.84,.65,1.26,.21,.4,.46,.46,.85,.22,.39-.25,.78-.5,1.17-.75,.99-.62,1.99-.62,2.99,0,.4,.25,.8,.51,1.2,.76,.37,.23,.62,.16,.83-.22,.24-.45,.46-.91,.71-1.36,.38-.7,.97-1.17,1.75-1.32,.44-.09,.9-.06,1.36-.09Z"/><path class="cls-1" d="M18.79,7.49c-.5,.93-.98,1.81-1.45,2.69-1.84,3.39-3.67,6.79-5.5,10.19-.1,.19-.2,.26-.42,.25-.72-.02-1.44,0-2.19,0,.05-.11,.09-.19,.13-.26,2.28-4.21,4.55-8.42,6.83-12.64,.09-.17,.19-.23,.38-.23,.73,.01,1.45,0,2.23,0Z"/><path class="cls-1" d="M12.74,10.23c0,1.8-1.48,3.28-3.29,3.28-1.8,0-3.28-1.49-3.27-3.3,0-1.79,1.48-3.26,3.28-3.26,1.81,0,3.29,1.48,3.29,3.28Zm-3.28-1.09c-.6,0-1.09,.49-1.09,1.09,0,.6,.49,1.09,1.09,1.09,.6,0,1.09-.49,1.09-1.09,0-.6-.49-1.09-1.09-1.09Z"/><path class="cls-1" d="M18.48,14.6c1.81,0,3.28,1.48,3.28,3.29,0,1.8-1.49,3.28-3.29,3.27-1.79,0-3.27-1.48-3.27-3.27,0-1.81,1.48-3.29,3.28-3.29Zm1.09,3.29c0-.6-.49-1.1-1.09-1.1-.6,0-1.1,.49-1.1,1.09,0,.6,.49,1.1,1.09,1.1,.6,0,1.1-.49,1.1-1.09Z"/></g></g></g></svg>