<?xml version="1.0" encoding="UTF-8"?><svg id="Layer_2" xmlns="http://www.w3.org/2000/svg" viewBox="0 0 28 28"><defs><style>.cls-1{fill:#0091ff;}.cls-2{fill:none;}</style></defs><g id="Layer_1-2"><g><rect class="cls-2" width="28" height="28"/><path class="cls-1" d="M.09,8.46v-1.57C.75,4.92,1.4,2.95,2.06,.98,2.28,.32,2.58,.1,3.29,.1c7.14,0,14.28,0,21.42,0,.7,0,1,.22,1.22,.88,.55,1.64,1.08,3.3,1.65,4.93,.25,.7,.35,1.39,.32,2.12-.05,1.51-.61,2.78-1.76,3.76-.17,.14-.23,.28-.23,.5,0,4.11,0,8.22,0,12.32,0,.15,0,.31-.01,.46-.06,1.25-.9,2.33-2.1,2.69-.15,.05-.31,.09-.46,.13H4.65c-.34-.12-.72-.2-1.03-.38-1.06-.6-1.55-1.54-1.55-2.76,0-4.16,0-8.32,0-12.48,0-.2-.04-.33-.21-.46-.62-.5-1.1-1.11-1.37-1.85-.18-.49-.28-1-.41-1.5Zm3.97,4.53v.16c0,3.88,0,7.76,0,11.65,0,.7,.39,1.1,1.09,1.1,1.56,0,3.11,0,4.67,0,.06,0,.12-.01,.2-.02v-.33c0-2.8,0-5.59,0-8.39,0-.81,.36-1.18,1.18-1.18,1.86,0,3.73,0,5.59,0,.81,0,1.17,.37,1.17,1.18,0,2.8,0,5.59,0,8.39v.34c.12,0,.2,.01,.29,.01,1.5,0,3.01,0,4.51,0,.79,0,1.16-.38,1.16-1.17,0-3.85,0-7.69,0-11.54,0-.09,0-.19-.01-.3-1.47,.26-2.78-.05-3.95-.91-.04,.02-.07,.04-.1,.06-1.9,1.21-3.8,1.23-5.71,.03-.14-.09-.22-.05-.33,.02-1.86,1.16-3.73,1.16-5.59,0-.15-.09-.24-.09-.38,0-.59,.42-1.24,.72-1.96,.8-.59,.06-1.18,.05-1.82,.08Zm-1.96-4.94c0,.08,0,.12,0,.16,.02,1.11,.8,2.18,1.88,2.6,1.11,.43,2.36,.17,3.18-.68,.6-.62,1.14-.63,1.75-.03,1.19,1.18,3.06,1.17,4.24-.01,.57-.57,1.13-.57,1.7,0,1.22,1.2,3.08,1.2,4.28,0,.58-.58,1.11-.57,1.68,.02,1.31,1.36,3.5,1.19,4.58-.36,.35-.5,.54-1.05,.52-1.69H2.1Zm9.93,9.93v7.91h3.94v-7.91h-3.94Zm.97-15.87h-3.94v3.93h3.94V2.11Zm5.95,3.94V2.11h-3.93v3.94h3.93Zm-16.47,0H7.02V2.09c-1.04,0-2.06,0-3.08,0-.07,0-.18,.1-.21,.18-.17,.48-.33,.97-.49,1.46l-.77,2.3Zm23.03,.01c0-.05,0-.07,0-.09-.41-1.23-.82-2.46-1.23-3.7-.05-.16-.14-.18-.28-.18-.94,0-1.88,0-2.82,0-.07,0-.14,.01-.2,.02v3.94h4.53Z"/></g></g></svg>