<?xml version="1.0" encoding="UTF-8"?>
<svg id="Layer_2" data-name="Layer 2" xmlns="http://www.w3.org/2000/svg" viewBox="0 0 80 80">
  <defs>
    <style>
      .cls-1 {
        stroke: #ffffff;
        stroke-miterlimit: 10;
        stroke-width: .43px;
      }

      .cls-1, .cls-2 {
        fill: none;
      }

      .cls-3 {
        fill: #ffffff;
      }
    </style>
  </defs>
  <g id="Layer_1-2" data-name="Layer 1">
    <g>
      <rect class="cls-2" width="80" height="80"/>
      <g>
        <path class="cls-3" d="m72.11,24.74c-.86-.14-1.74-.14-2.61-.21.76-8.03-7.77-12.97-14.25-8.55-.17-.15-.35-.3-.52-.46-1.48-1.34-3.15-2.39-5.06-2.98-.54-.17-.75-.43-.83-.99-.62-4.11-4.24-7.32-8.39-7.5-2.07-.09-3.94.51-5.66,1.67C30.47,1.75,25.53.35,19.97,2.3c-5.58,1.96-8.58,6.17-9.43,11.85-1.29.2-2.57.23-3.75.6-3.51,1.1-5.74,4.75-5.19,8.26.61,3.9,3.67,6.67,7.5,6.72,3.26.04,6.52.01,9.77.01,1.17,0,2.34,0,3.56,0-.06.27-.09.48-.14.68-1.1,4.42,1.68,8.79,6.19,9.44,1.99.29,4.05.13,6.07.15,2.02.02,4.04,0,6.35,0-1.21.68-.8,1.7-.96,2.57h-1.03c-10.18,0-20.35,0-30.53,0-2.77,0-4.3,1.55-4.3,4.33,0,7.65,0,15.31,0,22.96v.97c-.32,0-.53,0-.74,0-1.35.02-1.81.59-1.56,1.94.13.68.25,1.37.37,2.05.43,2.56,1.79,3.72,4.37,3.72,14.61,0,29.22,0,43.83,0,.24,0,.48,0,.72,0,1.57-.08,3.09-1.19,3.46-2.66.3-1.16.48-2.36.66-3.55.13-.84-.43-1.44-1.29-1.49-.34-.02-.68,0-1.04,0v-15.45c1.4.18,2.57.01,2.65-1.79,1.42.76,1.77.81,2.4.2,1.21-1.17,2.39-2.37,3.57-3.57.47-.48.51-1.03.2-1.62-.12-.22-.24-.45-.36-.68q1.76-.67,1.76-2.57c0-1.15.05-2.3-.02-3.45-.04-.64-.27-1.27-.42-1.91,1.23,0,2.65,0,4.06,0,1.44,0,2.89.03,4.33-.01,3.92-.1,7.18-3.26,7.43-7.15.26-3.96-2.47-7.47-6.35-8.11Zm-48.64,2.41c-4.73.02-9.45.03-14.18.01-2.91-.01-5.17-2.27-5.18-5.11,0-2.88,2.26-5.13,5.22-5.16.72,0,1.44,0,2.16,0,1.11-.01,1.55-.44,1.6-1.54.21-5.23,3.43-9.48,8.44-10.85,4.49-1.23,8.38-.03,11.6,3.32,1.24,1.29,1.47,1.34,2.82.24,3.6-2.93,9.02-1.19,10.22,3.27.03.12.04.25.07.44-3.85-.19-7.27.85-10.2,3.33-2.9,2.46-4.52,5.63-4.96,9.43-.88.07-1.72.09-2.56.2-1.58.21-2.92.94-4.1,2.02-.24.22-.64.4-.96.4ZM6.67,69.95c0-7.65,0-15.31,0-22.96,0-1.46.38-1.83,1.86-1.83,10.2,0,20.4,0,30.6,0h.87c-.08,1.38-.07,2.69,1.84,2.68-.19.34-.3.55-.42.76-.35.61-.29,1.18.2,1.68,1.17,1.18,2.34,2.35,3.51,3.52.81.81,1.56.31,2.39-.18.13,1.72,1.22,2.02,2.67,1.78v15.46h-.83c-5.5,0-11,.01-16.5-.01-.97,0-1.69.22-1.89,1.28h-5.03c-.21-1.05-.93-1.28-1.9-1.28-5.47.03-10.95.01-16.42.01h-.97v-.91Zm45.43,5.1c-.21.39-.67.68-1.09.91-.23.12-.58.03-.87.03-14.37,0-28.73-.01-43.1.01-1.94,0-2.32-.21-2.44-2.55h18.69c.2,1.03.91,1.28,1.88,1.26,2.22-.04,4.43-.01,6.65-.01,1.17,0,1.39-.15,1.85-1.25h18.72c-.09.57-.06,1.15-.3,1.59Zm8.41-29.64c-.45.12-.91.24-1.36.37-1.1.31-1.43,1.09-.9,2.08.7,1.31.69,1.3-.35,2.38-.35.36-.64.78-.91,1.11q-2.96-1.36-3.91,1.48h-3.08c-.12-.48-.24-.97-.38-1.44-.29-.98-1.09-1.31-2-.84q-1.39.72-2.49-.39c-.32-.32-.68-.6-.97-.86.2-1.02,1.28-1.62.85-2.68-.43-1.08-1.6-.79-2.4-1.24v-3.01q2.89-1.05,1.58-3.7c.73-.7,1.46-1.39,2.26-2.16.73.15,1.33,1.24,2.39.79,1.04-.44.78-1.55,1.2-2.38h3.08c.12.47.23.94.36,1.4.29,1.01,1.06,1.34,1.98.88q1.42-.71,2.56.42s.04.04.06.06q.92.92.26,2.06c-.66,1.15-.33,1.91.98,2.26.39.1.77.21,1.2.32v3.11Zm15.39-12.64c-.23,2.51-2.31,4.59-4.82,4.64-3.07.07-6.14.03-9.21,0-.27,0-.6-.2-.81-.4-.87-.83-1.71-1.7-2.56-2.55-1.22-1.22-1.34-1.24-2.91-.39-.08-.28-.14-.51-.21-.73-.2-.67-.62-1.05-1.33-1.05-1.66,0-3.31,0-4.97,0-.71,0-1.15.36-1.35,1.03-.07.23-.13.46-.21.75-.17-.08-.31-.14-.44-.21-.97-.55-1.35-.51-2.12.26-.95.94-1.87,1.91-2.85,2.82-.28.26-.72.47-1.09.48-3.71.03-7.42.03-11.14.02-2.97-.01-5.25-2.25-5.26-5.12,0-2.88,2.27-5.12,5.23-5.15.72,0,1.44,0,2.16,0,1.11-.01,1.55-.44,1.59-1.54.21-5.22,3.48-9.51,8.45-10.85,4.53-1.22,8.44,0,11.66,3.4,1.14,1.2,1.45,1.25,2.71.2,2.15-1.79,5.19-1.98,7.54-.48,2.35,1.5,3.46,4.34,2.75,7.06-.44,1.69-.03,2.2,1.7,2.22,1.17.02,2.37-.05,3.51.16,2.51.47,4.21,2.89,3.97,5.44Zm-6.39,24.87c0,2.63-1.57,4.21-4.18,4.21-3.02,0-6.03,0-9.05,0h-.84v2.57h.82c2.99,0,5.98,0,8.97,0,4.12,0,6.83-2.71,6.83-6.83,0-4.71,0-9.42,0-14.13v-.85h-2.56c0,5.07,0,10.05,0,15.02Zm-44.91-.86h-2.49v2.46h2.49v-2.46Zm5.09-.01h-2.44v2.5h2.44v-2.5Zm5.16,0h-2.48v2.47h2.48v-2.47Zm16.78-18.03c-2.84-.04-5.18,2.25-5.2,5.08-.02,2.85,2.26,5.18,5.09,5.19,2.8.02,5.13-2.25,5.16-5.04.04-2.85-2.23-5.2-5.05-5.23Zm-.05,7.71c-1.4,0-2.56-1.12-2.59-2.52-.03-1.43,1.15-2.62,2.57-2.61,1.4,0,2.54,1.15,2.55,2.56,0,1.39-1.15,2.56-2.53,2.57Z"/>
        <path class="cls-1" d="m72.11,24.74c-.86-.14-1.74-.14-2.61-.21.76-8.03-7.77-12.97-14.25-8.55-.17-.15-.35-.3-.52-.46-1.48-1.34-3.15-2.39-5.06-2.98-.54-.17-.75-.43-.83-.99-.62-4.11-4.24-7.32-8.39-7.5-2.07-.09-3.94.51-5.66,1.67C30.47,1.75,25.53.35,19.97,2.3c-5.58,1.96-8.58,6.17-9.43,11.85-1.29.2-2.57.23-3.75.6-3.51,1.1-5.74,4.75-5.19,8.26.61,3.9,3.67,6.67,7.5,6.72,3.26.04,6.52.01,9.77.01,1.17,0,2.34,0,3.56,0-.06.27-.09.48-.14.68-1.1,4.42,1.68,8.79,6.19,9.44,1.99.29,4.05.13,6.07.15,2.02.02,4.04,0,6.35,0-1.21.68-.8,1.7-.96,2.57h-1.03c-10.18,0-20.35,0-30.53,0-2.77,0-4.3,1.55-4.3,4.33,0,7.65,0,15.31,0,22.96v.97c-.32,0-.53,0-.74,0-1.35.02-1.81.59-1.56,1.94.13.68.25,1.37.37,2.05.43,2.56,1.79,3.72,4.37,3.72,14.61,0,29.22,0,43.83,0,.24,0,.48,0,.72,0,1.57-.08,3.09-1.19,3.46-2.66.3-1.16.48-2.36.66-3.55.13-.84-.43-1.44-1.29-1.49-.34-.02-.68,0-1.04,0v-15.45c1.4.18,2.57.01,2.65-1.79,1.42.76,1.77.81,2.4.2,1.21-1.17,2.39-2.37,3.57-3.57.47-.48.51-1.03.2-1.62-.12-.22-.24-.45-.36-.68q1.76-.67,1.76-2.57c0-1.15.05-2.3-.02-3.45-.04-.64-.27-1.27-.42-1.91,1.23,0,2.65,0,4.06,0,1.44,0,2.89.03,4.33-.01,3.92-.1,7.18-3.26,7.43-7.15.26-3.96-2.47-7.47-6.35-8.11Zm-48.64,2.41c-4.73.02-9.45.03-14.18.01-2.91-.01-5.17-2.27-5.18-5.11,0-2.88,2.26-5.13,5.22-5.16.72,0,1.44,0,2.16,0,1.11-.01,1.55-.44,1.6-1.54.21-5.23,3.43-9.48,8.44-10.85,4.49-1.23,8.38-.03,11.6,3.32,1.24,1.29,1.47,1.34,2.82.24,3.6-2.93,9.02-1.19,10.22,3.27.03.12.04.25.07.44-3.85-.19-7.27.85-10.2,3.33-2.9,2.46-4.52,5.63-4.96,9.43-.88.07-1.72.09-2.56.2-1.58.21-2.92.94-4.1,2.02-.24.22-.64.4-.96.4ZM6.67,69.95c0-7.65,0-15.31,0-22.96,0-1.46.38-1.83,1.86-1.83,10.2,0,20.4,0,30.6,0h.87c-.08,1.38-.07,2.69,1.84,2.68-.19.34-.3.55-.42.76-.35.61-.29,1.18.2,1.68,1.17,1.18,2.34,2.35,3.51,3.52.81.81,1.56.31,2.39-.18.13,1.72,1.22,2.02,2.67,1.78v15.46h-.83c-5.5,0-11,.01-16.5-.01-.97,0-1.69.22-1.89,1.28h-5.03c-.21-1.05-.93-1.28-1.9-1.28-5.47.03-10.95.01-16.42.01h-.97v-.91Zm45.43,5.1c-.21.39-.67.68-1.09.91-.23.12-.58.03-.87.03-14.37,0-28.73-.01-43.1.01-1.94,0-2.32-.21-2.44-2.55h18.69c.2,1.03.91,1.28,1.88,1.26,2.22-.04,4.43-.01,6.65-.01,1.17,0,1.39-.15,1.85-1.25h18.72c-.09.57-.06,1.15-.3,1.59Zm8.41-29.64c-.45.12-.91.24-1.36.37-1.1.31-1.43,1.09-.9,2.08.7,1.31.69,1.3-.35,2.38-.35.36-.64.78-.91,1.11q-2.96-1.36-3.91,1.48h-3.08c-.12-.48-.24-.97-.38-1.44-.29-.98-1.09-1.31-2-.84q-1.39.72-2.49-.39c-.32-.32-.68-.6-.97-.86.2-1.02,1.28-1.62.85-2.68-.43-1.08-1.6-.79-2.4-1.24v-3.01q2.89-1.05,1.58-3.7c.73-.7,1.46-1.39,2.26-2.16.73.15,1.33,1.24,2.39.79,1.04-.44.78-1.55,1.2-2.38h3.08c.12.47.23.94.36,1.4.29,1.01,1.06,1.34,1.98.88q1.42-.71,2.56.42s.04.04.06.06q.92.92.26,2.06c-.66,1.15-.33,1.91.98,2.26.39.1.77.21,1.2.32v3.11Zm15.39-12.64c-.23,2.51-2.31,4.59-4.82,4.64-3.07.07-6.14.03-9.21,0-.27,0-.6-.2-.81-.4-.87-.83-1.71-1.7-2.56-2.55-1.22-1.22-1.34-1.24-2.91-.39-.08-.28-.14-.51-.21-.73-.2-.67-.62-1.05-1.33-1.05-1.66,0-3.31,0-4.97,0-.71,0-1.15.36-1.35,1.03-.07.23-.13.46-.21.75-.17-.08-.31-.14-.44-.21-.97-.55-1.35-.51-2.12.26-.95.94-1.87,1.91-2.85,2.82-.28.26-.72.47-1.09.48-3.71.03-7.42.03-11.14.02-2.97-.01-5.25-2.25-5.26-5.12,0-2.88,2.27-5.12,5.23-5.15.72,0,1.44,0,2.16,0,1.11-.01,1.55-.44,1.59-1.54.21-5.22,3.48-9.51,8.45-10.85,4.53-1.22,8.44,0,11.66,3.4,1.14,1.2,1.45,1.25,2.71.2,2.15-1.79,5.19-1.98,7.54-.48,2.35,1.5,3.46,4.34,2.75,7.06-.44,1.69-.03,2.2,1.7,2.22,1.17.02,2.37-.05,3.51.16,2.51.47,4.21,2.89,3.97,5.44Zm-6.39,24.87c0,2.63-1.57,4.21-4.18,4.21-3.02,0-6.03,0-9.05,0h-.84v2.57h.82c2.99,0,5.98,0,8.97,0,4.12,0,6.83-2.71,6.83-6.83,0-4.71,0-9.42,0-14.13v-.85h-2.56c0,5.07,0,10.05,0,15.02Zm-44.91-.86h-2.49v2.46h2.49v-2.46Zm5.09-.01h-2.44v2.5h2.44v-2.5Zm5.16,0h-2.48v2.47h2.48v-2.47Zm16.78-18.03c-2.84-.04-5.18,2.25-5.2,5.08-.02,2.85,2.26,5.18,5.09,5.19,2.8.02,5.13-2.25,5.16-5.04.04-2.85-2.23-5.2-5.05-5.23Zm-.05,7.71c-1.4,0-2.56-1.12-2.59-2.52-.03-1.43,1.15-2.62,2.57-2.61,1.4,0,2.54,1.15,2.55,2.56,0,1.39-1.15,2.56-2.53,2.57Z"/>
      </g>
    </g>
  </g>
</svg>