<?xml version="1.0" encoding="UTF-8"?>
<svg id="Layer_2" data-name="Layer 2" xmlns="http://www.w3.org/2000/svg" viewBox="0 0 80 80">
  <defs>
    <style>
      .cls-1 {
        stroke: #ffffff;
        stroke-miterlimit: 10;
        stroke-width: .43px;
      }

       .cls-1, .cls-2 {
          fill: none;
      }

      .cls-3 {
        fill: #ffffff;
      }
    </style>
  </defs>
  <g id="Layer_1-2" data-name="Layer 1">
    <g>
      <rect class="cls-2" width="80" height="80"/>
      <g>
        <path class="cls-3" d="m76.53,62.47c-.22-5.24-4.39-9.78-9.62-10.14-4.07-.28-8.17-.05-12.25-.07-.29,0-.7-.14-.87-.36-2.32-3.09-5.4-4.59-9.24-4.6-3.05,0-6.1,0-9.14,0-3.84,0-6.93,1.52-9.22,4.62-.15.2-.48.36-.73.36-3.86-.01-7.72-.17-11.57-.06-5.31.16-9.66,4.16-10.32,9.44-.25,2-.14,4.05-.15,6.08,0,5.1,3.69,8.8,8.77,8.81,3.71,0,7.42,0,11.12,0h.78v-2.47h-10.95v-13.32h-2.41v13.15c-2.17-.2-4.38-2.25-4.69-4.63-.25-1.9-.17-3.85-.18-5.77-.01-5.19,3.68-8.89,8.86-8.9,3,0,5.99,0,8.99,0h.95c-.18,1.12-.47,2.14-.48,3.16-.05,4.32-.06,8.64-.02,12.95.03,2.64,1.96,5.12,4.55,5.6,1.67.31,3.41.22,5.12.31v-19.54h-2.38v16.97c-3.45.45-5.01-1.78-4.91-4.37.14-3.7.03-7.42.04-11.12.01-5.14,3.69-8.83,8.84-8.85,3.05-.01,6.09,0,9.14,0,5.13.01,8.83,3.72,8.84,8.85,0,3.83,0,7.67,0,11.51,0,2.83-2.01,4.47-4.91,3.92v-16.91h-2.35v19.45c1.32,0,2.59.03,3.86,0,3.11-.09,5.82-2.64,5.8-5.75-.05-5.36.48-10.75-.42-16.12.06-.01.18-.05.3-.05,3.45,0,6.91-.09,10.36.03,3.84.13,7.05,2.86,7.85,6.61.27,1.25.23,2.57.24,3.86.01,1.39.05,2.81-.16,4.17-.37,2.37-2.57,4.45-4.73,4.62v-13.17h-2.42v13.41h-10.92v2.37c.16.01.29.03.41.03,4.01,0,8.03.03,12.04-.01,3.98-.05,7.58-3.11,8.05-7.07.28-2.3.24-4.67.14-6.99ZM10.69,43.55v-2.26c-1.04-.44-1.19-.66-1.19-1.83,0-2.11,0-4.22,0-6.32,0-1.3.39-1.69,1.67-1.7,1.85,0,3.71.01,5.56-.02.23,0,.62-.21.66-.38.65-2.58,1.68-4.99,3.12-7.25-.2-.21-.37-.4-.55-.58-1.33-1.33-2.66-2.65-3.98-3.99-.66-.67-.68-1.29-.06-1.93,1.66-1.68,3.33-3.35,5.01-5.01.59-.58,1.27-.58,1.89,0,.81.77,1.59,1.57,2.38,2.37.73.74,1.43,1.49,2.16,2.25,2.3-1.45,4.63-2.49,7.15-3.08.52-.12.62-.36.61-.83-.02-1.88-.01-3.76,0-5.64,0-1.05.44-1.5,1.47-1.51,2.26-.01,4.52-.01,6.78,0,1.05,0,1.49.45,1.5,1.48,0,1.5,0,3,0,4.5q0,1.78,1.67,2.28c.19.06.39.11.58.19,1.83.79,3.66,1.59,5.62,2.45,1.33-1.34,2.77-2.8,4.22-4.26.85-.85,1.43-.85,2.27-.02,1.53,1.52,3.05,3.05,4.58,4.58.91.92.91,1.45,0,2.37-1.44,1.43-2.88,2.86-4.33,4.3.11.21.18.37.27.51,1.26,2.05,2.19,4.23,2.75,6.57.13.56.38.66.88.65,1.85-.03,3.71-.02,5.56,0,1.09,0,1.53.44,1.53,1.52,0,2.18,0,4.37,0,6.55,0,1.11-.17,1.35-1.19,1.76v2.31c2.04,0,3.6-1.57,3.62-3.61.02-2.36.01-4.72,0-7.09,0-2.37-1.54-3.88-3.93-3.9-1.3,0-2.59,0-3.89-.01-.22,0-.56-.1-.62-.25-.64-1.53-1.24-3.09-1.88-4.71,1.02-1.01,2.1-2.04,3.15-3.11,1.61-1.65,1.61-3.77-.02-5.42-1.6-1.63-3.22-3.25-4.85-4.85-1.69-1.66-3.87-1.65-5.55,0-.94.93-1.86,1.88-2.82,2.79-.16.15-.55.21-.75.13-1.32-.51-2.61-1.11-3.94-1.61-.43-.16-.52-.36-.52-.77.02-1.35.02-2.69,0-4.04-.02-2.14-1.55-3.72-3.69-3.75-2.41-.03-4.83-.03-7.24,0-2.14.03-3.68,1.6-3.7,3.74-.01,1.37-.02,2.74,0,4.11,0,.39-.12.56-.5.7-1.3.5-2.58,1.04-3.85,1.61-.38.17-.61.17-.92-.15-.86-.9-1.75-1.77-2.63-2.65-1.82-1.81-3.96-1.82-5.77-.02-1.55,1.54-3.09,3.09-4.63,4.63-1.79,1.8-1.78,3.88.01,5.69,1.02,1.02,2.05,2.04,2.99,2.98-.63,1.6-1.21,3.11-1.84,4.6-.07.17-.42.32-.64.33-1.37.03-2.74,0-4.11.02-2.01.04-3.65,1.5-3.69,3.42-.06,2.59-.06,5.18,0,7.77.04,1.94,1.79,3.52,3.61,3.36Zm43.96-7.27h2.44c-.31-6.5-3.03-11.56-8.65-14.74-6.03-3.41-12.16-3.17-17.94.63-4.99,3.27-7.39,8.1-7.61,14.09h2.41c.2-8.26,6.62-14.3,14.18-14.56,3.52-.12,6.72.9,9.5,3.09,3.69,2.92,5.5,6.8,5.67,11.49Zm-21.98,2.45c-.01,4.04,3.25,7.32,7.29,7.33,4.04.01,7.33-3.25,7.34-7.28.01-4.02-3.27-7.33-7.29-7.35-4.01-.02-7.33,3.28-7.34,7.29Zm12.19.04c0,2.7-2.19,4.86-4.91,4.85-2.7-.01-4.86-2.21-4.84-4.91.02-2.65,2.22-4.83,4.87-4.83,2.68,0,4.89,2.21,4.88,4.9Zm-25.56-2.46c-4.01-.03-7.34,3.26-7.36,7.28-.02,4.04,3.23,7.33,7.27,7.35,4.04.02,7.34-3.23,7.36-7.26.02-4.02-3.24-7.33-7.27-7.37Zm-.06,12.19c-2.7,0-4.87-2.19-4.86-4.9.01-2.65,2.2-4.83,4.85-4.85,2.68-.02,4.9,2.19,4.9,4.88,0,2.7-2.18,4.87-4.89,4.87Zm41.43,2.44c4.04.01,7.33-3.24,7.35-7.27.02-4.02-3.25-7.33-7.28-7.36-4.01-.03-7.33,3.27-7.35,7.28-.02,4.04,3.24,7.33,7.28,7.34Zm.08-12.19c2.66.02,4.83,2.21,4.84,4.86,0,2.7-2.17,4.88-4.88,4.88s-4.88-2.18-4.88-4.88c0-2.68,2.24-4.89,4.91-4.86Zm-25.58,37.76h9.65v-2.35h-9.65v2.35Z"/>
        <path class="cls-1" d="m76.53,62.47c-.22-5.24-4.39-9.78-9.62-10.14-4.07-.28-8.17-.05-12.25-.07-.29,0-.7-.14-.87-.36-2.32-3.09-5.4-4.59-9.24-4.6-3.05,0-6.1,0-9.14,0-3.84,0-6.93,1.52-9.22,4.62-.15.2-.48.36-.73.36-3.86-.01-7.72-.17-11.57-.06-5.31.16-9.66,4.16-10.32,9.44-.25,2-.14,4.05-.15,6.08,0,5.1,3.69,8.8,8.77,8.81,3.71,0,7.42,0,11.12,0h.78v-2.47h-10.95v-13.32h-2.41v13.15c-2.17-.2-4.38-2.25-4.69-4.63-.25-1.9-.17-3.85-.18-5.77-.01-5.19,3.68-8.89,8.86-8.9,3,0,5.99,0,8.99,0h.95c-.18,1.12-.47,2.14-.48,3.16-.05,4.32-.06,8.64-.02,12.95.03,2.64,1.96,5.12,4.55,5.6,1.67.31,3.41.22,5.12.31v-19.54h-2.38v16.97c-3.45.45-5.01-1.78-4.91-4.37.14-3.7.03-7.42.04-11.12.01-5.14,3.69-8.83,8.84-8.85,3.05-.01,6.09,0,9.14,0,5.13.01,8.83,3.72,8.84,8.85,0,3.83,0,7.67,0,11.51,0,2.83-2.01,4.47-4.91,3.92v-16.91h-2.35v19.45c1.32,0,2.59.03,3.86,0,3.11-.09,5.82-2.64,5.8-5.75-.05-5.36.48-10.75-.42-16.12.06-.01.18-.05.3-.05,3.45,0,6.91-.09,10.36.03,3.84.13,7.05,2.86,7.85,6.61.27,1.25.23,2.57.24,3.86.01,1.39.05,2.81-.16,4.17-.37,2.37-2.57,4.45-4.73,4.62v-13.17h-2.42v13.41h-10.92v2.37c.16.01.29.03.41.03,4.01,0,8.03.03,12.04-.01,3.98-.05,7.58-3.11,8.05-7.07.28-2.3.24-4.67.14-6.99ZM10.69,43.55v-2.26c-1.04-.44-1.19-.66-1.19-1.83,0-2.11,0-4.22,0-6.32,0-1.3.39-1.69,1.67-1.7,1.85,0,3.71.01,5.56-.02.23,0,.62-.21.66-.38.65-2.58,1.68-4.99,3.12-7.25-.2-.21-.37-.4-.55-.58-1.33-1.33-2.66-2.65-3.98-3.99-.66-.67-.68-1.29-.06-1.93,1.66-1.68,3.33-3.35,5.01-5.01.59-.58,1.27-.58,1.89,0,.81.77,1.59,1.57,2.38,2.37.73.74,1.43,1.49,2.16,2.25,2.3-1.45,4.63-2.49,7.15-3.08.52-.12.62-.36.61-.83-.02-1.88-.01-3.76,0-5.64,0-1.05.44-1.5,1.47-1.51,2.26-.01,4.52-.01,6.78,0,1.05,0,1.49.45,1.5,1.48,0,1.5,0,3,0,4.5q0,1.78,1.67,2.28c.19.06.39.11.58.19,1.83.79,3.66,1.59,5.62,2.45,1.33-1.34,2.77-2.8,4.22-4.26.85-.85,1.43-.85,2.27-.02,1.53,1.52,3.05,3.05,4.58,4.58.91.92.91,1.45,0,2.37-1.44,1.43-2.88,2.86-4.33,4.3.11.21.18.37.27.51,1.26,2.05,2.19,4.23,2.75,6.57.13.56.38.66.88.65,1.85-.03,3.71-.02,5.56,0,1.09,0,1.53.44,1.53,1.52,0,2.18,0,4.37,0,6.55,0,1.11-.17,1.35-1.19,1.76v2.31c2.04,0,3.6-1.57,3.62-3.61.02-2.36.01-4.72,0-7.09,0-2.37-1.54-3.88-3.93-3.9-1.3,0-2.59,0-3.89-.01-.22,0-.56-.1-.62-.25-.64-1.53-1.24-3.09-1.88-4.71,1.02-1.01,2.1-2.04,3.15-3.11,1.61-1.65,1.61-3.77-.02-5.42-1.6-1.63-3.22-3.25-4.85-4.85-1.69-1.66-3.87-1.65-5.55,0-.94.93-1.86,1.88-2.82,2.79-.16.15-.55.21-.75.13-1.32-.51-2.61-1.11-3.94-1.61-.43-.16-.52-.36-.52-.77.02-1.35.02-2.69,0-4.04-.02-2.14-1.55-3.72-3.69-3.75-2.41-.03-4.83-.03-7.24,0-2.14.03-3.68,1.6-3.7,3.74-.01,1.37-.02,2.74,0,4.11,0,.39-.12.56-.5.7-1.3.5-2.58,1.04-3.85,1.61-.38.17-.61.17-.92-.15-.86-.9-1.75-1.77-2.63-2.65-1.82-1.81-3.96-1.82-5.77-.02-1.55,1.54-3.09,3.09-4.63,4.63-1.79,1.8-1.78,3.88.01,5.69,1.02,1.02,2.05,2.04,2.99,2.98-.63,1.6-1.21,3.11-1.84,4.6-.07.17-.42.32-.64.33-1.37.03-2.74,0-4.11.02-2.01.04-3.65,1.5-3.69,3.42-.06,2.59-.06,5.18,0,7.77.04,1.94,1.79,3.52,3.61,3.36Zm43.96-7.27h2.44c-.31-6.5-3.03-11.56-8.65-14.74-6.03-3.41-12.16-3.17-17.94.63-4.99,3.27-7.39,8.1-7.61,14.09h2.41c.2-8.26,6.62-14.3,14.18-14.56,3.52-.12,6.72.9,9.5,3.09,3.69,2.92,5.5,6.8,5.67,11.49Zm-21.98,2.45c-.01,4.04,3.25,7.32,7.29,7.33,4.04.01,7.33-3.25,7.34-7.28.01-4.02-3.27-7.33-7.29-7.35-4.01-.02-7.33,3.28-7.34,7.29Zm12.19.04c0,2.7-2.19,4.86-4.91,4.85-2.7-.01-4.86-2.21-4.84-4.91.02-2.65,2.22-4.83,4.87-4.83,2.68,0,4.89,2.21,4.88,4.9Zm-25.56-2.46c-4.01-.03-7.34,3.26-7.36,7.28-.02,4.04,3.23,7.33,7.27,7.35,4.04.02,7.34-3.23,7.36-7.26.02-4.02-3.24-7.33-7.27-7.37Zm-.06,12.19c-2.7,0-4.87-2.19-4.86-4.9.01-2.65,2.2-4.83,4.85-4.85,2.68-.02,4.9,2.19,4.9,4.88,0,2.7-2.18,4.87-4.89,4.87Zm41.43,2.44c4.04.01,7.33-3.24,7.35-7.27.02-4.02-3.25-7.33-7.28-7.36-4.01-.03-7.33,3.27-7.35,7.28-.02,4.04,3.24,7.33,7.28,7.34Zm.08-12.19c2.66.02,4.83,2.21,4.84,4.86,0,2.7-2.17,4.88-4.88,4.88s-4.88-2.18-4.88-4.88c0-2.68,2.24-4.89,4.91-4.86Zm-25.58,37.76h9.65v-2.35h-9.65v2.35Z"/>
      </g>
    </g>
  </g>
</svg>