<?xml version="1.0" encoding="UTF-8"?>
<svg id="Layer_2" data-name="Layer 2" xmlns="http://www.w3.org/2000/svg" viewBox="0 0 80 80">
  <defs>
    <style>
      .cls-1 {
        fill: #ffffff;
      }

      .cls-2 {
        fill: none;
      }
    </style>
  </defs>
  <g id="Layer_1-2" data-name="Layer 1">
    <g>
      <rect class="cls-2" width="80" height="80"/>
      <path class="cls-1" d="m43.6,14.6c.02-1.62-1.21-2.98-2.9-3.03-2.08-.06-4.16-.07-6.23,0-1.69.06-2.91,1.43-2.88,3.05.04,1.63,1.32,2.88,3.01,2.92,1,.02,2,0,3,0,.98,0,1.95.02,2.93,0,1.74-.03,3.04-1.29,3.07-2.95Zm20.26,44.14c-.59-1.22-1.95-1.88-3.25-1.6-1.41.3-2.39,1.41-2.42,2.86-.04,1.88,0,3.76-.02,5.63-.05,3.54-2.6,6.12-6.14,6.13-9.62.03-19.23.03-28.85,0-3.58,0-6.16-2.6-6.17-6.18-.02-17.5-.02-35,0-52.5,0-3.62,2.6-6.19,6.22-6.2,9.57-.02,19.13-.02,28.7,0,3.66,0,6.21,2.59,6.24,6.27.01,1.4,0,2.8,0,4.21.02,1.86,1.25,3.18,2.97,3.2,1.76.02,3.02-1.31,3.04-3.2.01-1.43,0-2.85,0-4.28-.04-6.9-5.29-12.18-12.19-12.19-9.62-.02-19.23-.03-28.85.02-1.35,0-2.76.23-4.04.67-5.01,1.7-8.11,6.2-8.11,11.61,0,16.1,0,32.2,0,48.3,0,1.55-.06,3.11.02,4.66.25,4.75,2.52,8.26,6.75,10.4,1.2.61,2.59.85,3.89,1.25h31.85c.14-.05.27-.12.41-.14,5.3-.8,9.5-4.94,10.08-10.25.28-2.52.13-5.1.14-7.65,0-.33-.14-.69-.29-1Zm-26.28,2.38c-1.62,0-2.96,1.35-2.99,2.96-.02,1.66,1.32,3.02,2.98,3.03,1.66.01,3.02-1.33,3.02-2.99,0-1.65-1.37-3.02-3.01-3.01Zm33.69-23.63c-.16-.85-.64-1.34-1.51-1.5-2.32-.43-3.6-2.63-2.83-4.87.28-.81.08-1.5-.59-2.05-1.17-.96-2.46-1.71-3.88-2.25-.83-.31-1.52-.14-2.09.52-1.58,1.83-4.11,1.83-5.69,0-.56-.65-1.26-.82-2.07-.52-1.29.49-2.49,1.16-3.58,2-.74.57-.95,1.28-.63,2.16.82,2.28-.59,4.57-2.99,4.89-.84.11-1.41.6-1.57,1.41-.31,1.51-.35,3.04-.11,4.56.17,1.07.66,1.54,1.72,1.68.85.12,1.58.48,2.14,1.12,1.03,1.16,1.24,2.48.67,3.92-.33.81-.18,1.56.44,2.08,1.21,1,2.55,1.78,4.03,2.32.2.07.41.1.62.14.6-.04,1.06-.3,1.42-.77,1.55-2.03,4.27-2.07,5.88-.08.54.67,1.3.87,2.08.55,1.3-.53,2.49-1.24,3.58-2.13.67-.55.86-1.26.56-2.08-.85-2.28.5-4.59,2.9-4.95.78-.12,1.35-.66,1.5-1.42.3-1.58.32-3.15.02-4.73Zm-13.73,7.03c-2.58,0-4.65-2.08-4.65-4.66,0-2.56,2.09-4.64,4.68-4.64,2.53,0,4.63,2.1,4.62,4.63,0,2.58-2.08,4.67-4.65,4.67Z"/>
    </g>
  </g>
</svg>