<?xml version="1.0" encoding="UTF-8"?>
<svg id="Layer_2" data-name="Layer 2" xmlns="http://www.w3.org/2000/svg" viewBox="0 0 80 80">
  <defs>
    <style>
      .cls-1 {
        fill: #ffffff;
      }

      .cls-2 {
        fill: none;
      }
    </style>
  </defs>
  <g id="Layer_1-2" data-name="Layer 1">
    <g>
      <rect class="cls-2" x=".18" width="79.82" height="80"/>
      <path class="cls-1" d="m74.55,40.65c-.27-.09-.58-.09-.87-.09-23.98,0-47.95,0-71.93-.01-.74,0-1.34.19-1.74.83v.89c.43.67,1.05.83,1.82.83,23.93-.01,47.85-.01,71.78-.01.32,0,.65,0,.95-.09.55-.17.84-.59.84-1.17,0-.57-.29-.99-.84-1.17Zm-43.43,6.2c-1.01,0-2.01,0-3.02,0-1.3,0-1.72.42-1.72,1.72,0,3.86,0,7.72,0,11.58,0,2.39.04,4.77-.02,7.16-.08,2.97-2.95,5.2-5.86,4.63-2.43-.47-4.14-2.55-4.15-5.11-.01-6.12,0-12.25,0-18.37,0-1.17-.44-1.61-1.59-1.62-.96,0-1.91,0-2.87,0-1.46,0-1.83.38-1.83,1.83,0,5.88,0,11.76,0,17.63,0,.74.04,1.48.12,2.21.53,5.04,5.07,9.41,10.11,9.76,6.79.47,12.37-4.72,12.41-11.56.02-2.95,0-5.9,0-8.85,0-3.15,0-6.3,0-9.44,0-1.12-.46-1.57-1.56-1.58ZM10.05,25.48c.07,6.18,4.94,11.15,11.02,11.3,6.11.15,11.48-4.94,11.58-11.17.1-6.29.03-12.59.02-18.89,0-.94-.46-1.4-1.4-1.42-1.03-.02-2.06,0-3.09,0-1.43,0-1.8.37-1.8,1.78,0,3.64,0,7.28,0,10.92,0,2.56.04,5.12-.02,7.67-.07,3.23-3.29,5.53-6.36,4.61-2.17-.66-3.65-2.65-3.65-4.99-.01-6.12,0-12.25,0-18.37,0-1.18-.42-1.6-1.59-1.61-.96,0-1.91,0-2.87,0-1.48,0-1.84.36-1.84,1.82,0,3.07,0,6.15,0,9.22,0,3.05-.03,6.1,0,9.15Zm31.83-14.32c2.23,0,4.47,0,6.7,0,1.3,0,1.68.37,1.68,1.65,0,5.19,0,10.38,0,15.56,0,1.27-.41,1.67-1.68,1.67-2.31,0-4.61,0-6.92,0-.98,0-1.44.47-1.45,1.45-.01,1.13-.01,2.26,0,3.39.01.94.46,1.4,1.4,1.43.66.02,1.32,0,1.99,0,6.65,0,13.3,0,19.95,0,1.45,0,1.81-.37,1.81-1.84,0-.96,0-1.92,0-2.88-.01-1.12-.45-1.56-1.57-1.56-2.28,0-4.56,0-6.84,0-1.21,0-1.65-.43-1.65-1.64,0-5.21,0-10.43,0-15.64,0-1.22.41-1.61,1.66-1.61,2.23,0,4.47,0,6.7,0,1.29,0,1.7-.43,1.71-1.74,0-.93,0-1.87,0-2.8,0-1.37-.4-1.77-1.74-1.77-3.61,0-7.21,0-10.82,0-3.66,0-7.31,0-10.97,0-1.17,0-1.61.44-1.62,1.59,0,1.01,0,2.02,0,3.02,0,1.27.42,1.69,1.67,1.7Zm22.99,38.47c.36-.5.65-1,.34-1.63-.33-.67-.93-.72-1.57-.71-.79.01-1.57.04-2.36,0-.82-.04-1.37.25-1.85.94-1.96,2.83-3.97,5.62-5.96,8.42-.94,1.32-1.73,1.32-2.67-.01-2.02-2.84-4.05-5.68-6.05-8.54-.39-.56-.86-.82-1.54-.8-.86.02-1.72.01-2.58,0-.61,0-1.2.04-1.52.67-.33.64-.04,1.16.33,1.69,2.9,4.06,5.78,8.13,8.67,12.2.72,1.02.72,1.34,0,2.37-2.89,4.07-5.77,8.14-8.67,12.2-.38.53-.67,1.05-.33,1.69.34.65.95.7,1.59.68.39-.01.79,0,1.18,0,.22,0,.45-.03.66,0,1.2.19,1.94-.35,2.61-1.34,1.86-2.74,3.82-5.42,5.74-8.13.86-1.2,1.68-1.2,2.54.01,2.02,2.84,4.05,5.68,6.05,8.54.46.66.99.96,1.79.91.78-.04,1.57-.02,2.36,0,.65.02,1.24-.06,1.57-.71.34-.65,0-1.17-.37-1.69-2.88-4.04-5.74-8.09-8.61-12.14-.78-1.11-.78-1.33-.01-2.42,2.89-4.07,5.77-8.14,8.66-12.2Z"/>
    </g>
  </g>
</svg>