<?xml version="1.0" encoding="UTF-8"?>
<svg id="Layer_2" data-name="Layer 2" xmlns="http://www.w3.org/2000/svg" viewBox="0 0 80 80">
  <defs>
    <style>
      .cls-1 {
        fill: #ffffff;
      }

      .cls-2 {
        fill: none;
      }
    </style>
  </defs>
  <g id="Layer_1-2" data-name="Layer 1">
    <g>
      <rect class="cls-2" width="80" height="80"/>
      <path class="cls-1" d="m76.75,7.07c-1.25-1.88-3.16-2.7-5.4-2.78-.15,0-.3,0-.45,0-20.61,0-41.21,0-61.82,0-2.94,0-5.22,1.16-6.49,3.86-.44.93-.66,2.05-.67,3.08-.04,14.71-.04,29.41-.02,44.11,0,4.09,2.89,6.96,6.99,6.97,6.05.01,12.1,0,18.15,0h.9c-.23.71-.44,1.36-.65,2.01-.68,2.04-1.39,4.08-2.03,6.13-.2.64-.49.82-1.15.8-2.03-.05-4.07-.02-6.1-.02-1.57,0-2.59.9-2.58,2.25.01,1.32,1.02,2.21,2.54,2.21,14.68,0,29.36,0,44.04,0,1.51,0,2.52-.92,2.51-2.25,0-1.32-1.02-2.21-2.54-2.22-2.11,0-4.22-.02-6.32.01-.5,0-.74-.12-.9-.62-.83-2.59-1.71-5.17-2.57-7.75-.05-.16-.09-.33-.16-.57h.85c6.05,0,12.1,0,18.15,0,2.88,0,5.06-1.23,6.36-3.84.32-.65.46-1.4.68-2.11V10.24c-.44-1.06-.72-2.23-1.34-3.17ZM29.73,71.2c.96-2.88,1.9-5.72,2.86-8.55.05-.15.36-.31.56-.31,4.56-.02,9.12-.02,13.68,0,.21,0,.54.18.6.36.96,2.8,1.89,5.62,2.85,8.5h-20.55Zm43.83-15.12c-.12,1-1,1.69-2.02,1.77-.25.02-.5.01-.74.01-20.53,0-41.05,0-61.58,0-2.09,0-2.85-.77-2.85-2.88,0-.49,0-.99,0-1.56h67.21c0,.89.09,1.79-.02,2.65Zm-47.62-20.27c-.56-.56-1.14-1.09-1.67-1.6,1.1-1.09,2.12-2.12,3.21-3.2.54.54,1.12,1.15,1.71,1.73,1.01.98,1.81,1.07,3.09.47,1.19-.55,2.4-1.06,3.62-1.51,1.31-.48,1.84-1.14,1.85-2.53,0-.77,0-1.54,0-2.31,0-.05.02-.09.04-.19h4.42c0,.83,0,1.67,0,2.5.01,1.38.55,2.04,1.86,2.53,1.23.45,2.43.96,3.62,1.51,1.27.59,2.09.5,3.1-.48.58-.57,1.14-1.17,1.64-1.68,1.07,1.07,2.11,2.11,3.22,3.21-.5.48-1.12,1.05-1.71,1.65-.96.98-1.05,1.79-.49,3.03.56,1.24,1.08,2.49,1.56,3.76.46,1.2,1.15,1.75,2.45,1.76.84.01,1.68,0,2.57,0v4.43h-9.07c.63-4.25-.53-7.87-3.79-10.69-2.25-1.95-4.93-2.8-7.9-2.64-6.18.34-11.6,6.19-10.29,13.31h-9.03v-4.41c.76,0,1.54,0,2.33,0,1.6,0,2.23-.52,2.77-2.05.39-1.12.85-2.21,1.37-3.28.69-1.42.61-2.23-.5-3.34Zm20.54,12.56c-.11.45-.3.58-.75.58-1.91-.02-3.81-.01-5.72-.01s-3.81-.01-5.72,0c-.45,0-.63-.12-.75-.57-.84-3.14.9-6.65,3.93-7.86,3.13-1.25,6.76.01,8.34,2.9.86,1.57,1.09,3.2.67,4.95Zm27.16.53h-9.08v-5.6c0-.32,0-.65,0-.97-.04-1.4-.94-2.3-2.36-2.32-.89-.02-1.79-.04-2.68.01-.52.03-.74-.18-.91-.63-.51-1.3-.53-1.29.47-2.29.49-.49,1-.97,1.46-1.48.83-.91.89-2.15.04-3.03-2.12-2.19-4.28-4.35-6.47-6.47-.88-.85-2.12-.78-3.03.06-.69.64-1.35,1.31-2,2-.31.33-.57.43-1.02.24-1.35-.58-1.36-.55-1.36-2.06,0-.67.02-1.34,0-2.01-.05-1.24-.95-2.17-2.19-2.18-3-.03-6-.03-9,0-1.24.01-2.14.94-2.18,2.18-.03.97-.03,1.93,0,2.9.02.44-.13.66-.54.82-1.37.56-1.36.58-2.42-.48-.47-.47-.93-.96-1.43-1.41-.93-.85-2.18-.9-3.09-.01-2.15,2.09-4.27,4.22-6.37,6.36-.91.93-.86,2.19.04,3.14.63.67,1.27,1.33,1.95,1.94.38.34.42.64.22,1.09-.56,1.29-.54,1.3-1.95,1.3-.55,0-1.09,0-1.64,0-1.8,0-2.65.84-2.66,2.63,0,1.84,0,3.67,0,5.51v.76H6.37v-.78c0-12.2,0-24.4,0-36.6,0-1.94.81-2.75,2.75-2.75,20.58,0,41.17,0,61.75,0,1.95,0,2.75.81,2.75,2.75,0,12.2,0,24.4,0,36.6v.78Zm-11.34-35.67c-3.65.03-6.67,3.06-6.66,6.7,0,3.67,3.11,6.74,6.76,6.68,3.67-.06,6.67-3.12,6.63-6.74-.05-3.66-3.09-6.67-6.72-6.64Zm.05,8.92c-1.21.01-2.23-.99-2.25-2.21-.01-1.21.99-2.23,2.21-2.25,1.21-.01,2.23.99,2.25,2.21.01,1.21-.99,2.23-2.21,2.25Z"/>
    </g>
  </g>
</svg>