<?xml version="1.0" encoding="UTF-8"?><svg id="Layer_2" xmlns="http://www.w3.org/2000/svg" viewBox="0 0 48 48"><defs><style>.cls-1{stroke:#b3b3b3;stroke-miterlimit:10;stroke-width:.95px;}.cls-1,.cls-2{fill:none;}.cls-3{fill:#b3b3b3;}</style></defs><g id="Layer_1-2"><g><rect class="cls-2" width="48" height="48"/><g><path class="cls-3" d="M20.61,20.27c.51,.83,.94,1.71,1.41,2.57,.14,.27,.06,.42-.2,.6-1.64,1.1-1.77,3.5-.15,4.59,.69,.46,.88,.93,.78,1.65,0,.06,0,.12,0,.18,.06,1.61,1.27,2.83,2.88,2.86,1.37,.03,2.73,.03,4.1,0,1.4-.04,2.55-1.1,2.72-2.48,.05-.43,.06-.88,.05-1.32,0-.28,.08-.43,.34-.57,1.98-1.01,2.12-3.69,.27-4.93-.1-.06-.19-.13-.29-.2,.27-1.07,.83-1.98,1.44-2.86,.71-1.04,1.47-2.06,2.1-3.15,.99-1.72,1.24-3.62,1.11-5.57-.04-.54-.42-.89-.92-.87-.5,.02-.83,.39-.84,.94,0,.21,0,.41,.02,.62,.05,1.72-.36,3.32-1.32,4.75-.5,.76-1.04,1.5-1.57,2.23-.74,1.03-1.35,2.13-1.72,3.35-.04,.12-.23,.26-.35,.27-2.09,.02-4.18,0-6.26,.02-.23,0-.3-.09-.39-.3-.45-.98-.88-1.98-1.42-2.91-.46-.8-1.06-1.51-1.59-2.27-1.01-1.45-1.56-3.04-1.57-4.82-.01-2.55,.78-4.76,2.72-6.48,2.8-2.48,6.93-2.69,10.08-.54,.56,.38,1.08,.35,1.39-.1,.31-.45,.19-1.01-.39-1.33-.89-.5-1.81-.96-2.76-1.34-.6-.24-1.28-.31-1.92-.45h-2.03c-.5,.1-1.01,.18-1.5,.31-7.05,1.92-8.73,9.36-6.38,14.15,.59,1.2,1.48,2.25,2.18,3.4Zm7.84,10.69c-.98,0-1.97,0-2.95,0-.83,0-1.27-.45-1.29-1.28,0-.32,0-.64,0-1h6.17c.02,.06,.04,.1,.05,.14,.14,1.75-.21,2.13-1.98,2.13Zm-4.88-6.26c2.51,0,5.03,0,7.54,0,.67,0,1.13,.37,1.21,.93,.08,.55-.21,1.05-.73,1.2-.18,.05-.38,.06-.56,.06-1.24,0-2.47,0-3.71,0s-2.5,0-3.75,0c-.78,0-1.27-.43-1.27-1.09s.51-1.1,1.27-1.1Zm14.36,8.57c-.88-.27-1.71-.1-2.51,.31-2.01,1.03-4.02,2.06-6.03,3.09-.18,.09-.32,.22-.54,.02-.62-.55-1.37-.77-2.19-.75-1.09,.02-2.18-.04-3.26,.02-.87,.05-1.62-.07-2.19-.8-.1-.12-.24-.21-.37-.31-1.56-1.22-3.27-1.99-5.31-1.92-1.24,.04-2.41,.34-3.55,.79-.7,.28-1.39,.44-2.14,.39-.22-.01-.36-.05-.47-.27-.44-.82-1.14-1.23-2.08-1.23-1,0-2,0-3,0-1.53,0-2.43,.9-2.44,2.44,0,1.36,0,2.73,0,4.09,0,1.41,0,2.82,0,4.23,.01,1.41,.94,2.33,2.36,2.35,1.01,.01,2.03,0,3.04,0,.95,0,1.66-.4,2.13-1.24,.06-.1,.17-.24,.26-.24,.72,0,1.47-.08,2.15,.1,3.47,.89,6.92,1.84,10.38,2.77,.97,.26,1.93,.49,2.95,.34,1.27-.18,2.36-.79,3.38-1.51,2.79-1.98,5.58-3.96,8.37-5.94,.69-.49,1.41-.96,2.06-1.5,.92-.77,1.34-1.77,1.09-2.98-.24-1.15-.95-1.89-2.07-2.23ZM7.86,43.3c0,.49-.17,.65-.67,.66-.97,0-1.94,0-2.91,0-.52,0-.67-.16-.67-.69,0-1.38,0-2.75,0-4.13s0-2.7,0-4.04c0-.59,.12-.71,.73-.71,.95,0,1.91,0,2.86,0,.49,0,.66,.16,.66,.66,0,2.75,0,5.51,0,8.26Zm29.65-5.94c-3.4,2.42-6.8,4.83-10.2,7.25-.04,.03-.07,.05-.11,.08-1.37,1.01-2.83,1.24-4.5,.76-3.45-.99-6.94-1.9-10.41-2.82-.41-.11-.84-.14-1.26-.16-.45-.03-.9,0-1.38,0v-6.53s.06-.05,.08-.05c1.16,.09,2.23-.26,3.29-.66,1.37-.51,2.79-.72,4.23-.31,1.19,.34,2.21,.99,3.06,1.84,.72,.72,1.52,1.02,2.53,.97,1.26-.05,2.53-.01,3.79-.01,.93,0,1.53,.53,1.52,1.34,0,.81-.6,1.32-1.54,1.32-2.22,0-4.44,0-6.66,0-.13,0-.27,0-.4,0-.53,.04-.88,.42-.86,.92,.02,.48,.37,.82,.9,.83,.69,.01,1.38,0,2.07,0,1.69,0,3.38,0,5.07,0,1.94-.01,3.28-1.45,3.16-3.38-.02-.26,.04-.39,.28-.51,2-1.01,4-2.05,6-3.07,.84-.43,1.58-.3,1.95,.32,.37,.62,.14,1.32-.64,1.87ZM28.2,11.6c0-.86,0-1.73,0-2.59,0-.65-.34-1.04-.87-1.05-.53,0-.89,.4-.89,1.03,0,1.71,0,3.43,0,5.14,0,.65,.35,1.04,.88,1.04,.54,0,.88-.38,.88-1.03,0-.85,0-1.7,0-2.55Zm12.1,8.45c-.39-.25-.87-.09-1.12,.29-.25,.38-.22,.88,.16,1.14,1.03,.72,2.07,1.44,3.14,2.1,.56,.35,1.29-.13,1.28-.91-.07-.11-.14-.39-.32-.52-1.03-.73-2.08-1.43-3.14-2.11ZM11.31,4.69c.94,.65,1.89,1.28,2.85,1.91,.51,.34,1.03,.26,1.32-.17,.3-.44,.18-.94-.33-1.28-.93-.63-1.87-1.26-2.82-1.88-.16-.11-.37-.15-.48-.2-.5,.03-.79,.23-.91,.63-.13,.42,.02,.75,.37,.99Zm28.99,2.03c1.06-.68,2.11-1.38,3.14-2.1,.33-.23,.41-.61,.25-.99-.15-.36-.43-.54-.92-.54-.07,.03-.24,.08-.4,.16-.16,.08-.29,.19-.44,.29-.84,.56-1.69,1.12-2.52,1.7-.43,.3-.51,.79-.24,1.2,.24,.37,.74,.54,1.12,.29ZM9.77,14.26c.57,.01,1.14,0,1.72,0,.53,0,1.06,0,1.58,0,.03,0,.06,0,.09,0,.6-.02,.99-.38,.98-.9-.01-.51-.38-.85-.97-.85-1.13-.01-2.26-.01-3.39,0-.59,0-.96,.34-.98,.85-.02,.52,.37,.89,.97,.91Zm4.58,5.78c-1.06,.68-2.11,1.38-3.14,2.1-.33,.23-.4,.6-.25,.99,.15,.37,.45,.52,.9,.56,.1-.04,.27-.09,.42-.17,.23-.13,.44-.29,.66-.43,.77-.52,1.54-1.02,2.3-1.55,.42-.29,.5-.76,.26-1.16-.24-.4-.75-.58-1.15-.32Zm30.51-7.54c-.56-.01-1.11,0-1.67,0-.57,0-1.14,0-1.72,0-.59,.01-.95,.35-.96,.86,0,.51,.36,.88,.94,.89,1.14,.01,2.29,.01,3.43,0,.59,0,.95-.35,.96-.87,0-.53-.36-.87-.98-.88Zm-17.53,4.9c-.49,0-.9,.42-.88,.91,.01,.48,.4,.85,.89,.84,.49,0,.86-.38,.85-.88,0-.48-.39-.87-.86-.88Zm7.83-8.65c.5,.01,.9-.38,.89-.88,0-.48-.39-.87-.87-.87-.47,0-.87,.39-.87,.87,0,.48,.37,.87,.85,.89Z"/><path class="cls-1" d="M20.61,20.27c.51,.83,.94,1.71,1.41,2.57,.14,.27,.06,.42-.2,.6-1.64,1.1-1.77,3.5-.15,4.59,.69,.46,.88,.93,.78,1.65,0,.06,0,.12,0,.18,.06,1.61,1.27,2.83,2.88,2.86,1.37,.03,2.73,.03,4.1,0,1.4-.04,2.55-1.1,2.72-2.48,.05-.43,.06-.88,.05-1.32,0-.28,.08-.43,.34-.57,1.98-1.01,2.12-3.69,.27-4.93-.1-.06-.19-.13-.29-.2,.27-1.07,.83-1.98,1.44-2.86,.71-1.04,1.47-2.06,2.1-3.15,.99-1.72,1.24-3.62,1.11-5.57-.04-.54-.42-.89-.92-.87-.5,.02-.83,.39-.84,.94,0,.21,0,.41,.02,.62,.05,1.72-.36,3.32-1.32,4.75-.5,.76-1.04,1.5-1.57,2.23-.74,1.03-1.35,2.13-1.72,3.35-.04,.12-.23,.26-.35,.27-2.09,.02-4.18,0-6.26,.02-.23,0-.3-.09-.39-.3-.45-.98-.88-1.98-1.42-2.91-.46-.8-1.06-1.51-1.59-2.27-1.01-1.45-1.56-3.04-1.57-4.82-.01-2.55,.78-4.76,2.72-6.48,2.8-2.48,6.93-2.69,10.08-.54,.56,.38,1.08,.35,1.39-.1,.31-.45,.19-1.01-.39-1.33-.89-.5-1.81-.96-2.76-1.34-.6-.24-1.28-.31-1.92-.45h-2.03c-.5,.1-1.01,.18-1.5,.31-7.05,1.92-8.73,9.36-6.38,14.15,.59,1.2,1.48,2.25,2.18,3.4Zm7.84,10.69c-.98,0-1.97,0-2.95,0-.83,0-1.27-.45-1.29-1.28,0-.32,0-.64,0-1h6.17c.02,.06,.04,.1,.05,.14,.14,1.75-.21,2.13-1.98,2.13Zm-4.88-6.26c2.51,0,5.03,0,7.54,0,.67,0,1.13,.37,1.21,.93,.08,.55-.21,1.05-.73,1.2-.18,.05-.38,.06-.56,.06-1.24,0-2.47,0-3.71,0s-2.5,0-3.75,0c-.78,0-1.27-.43-1.27-1.09s.51-1.1,1.27-1.1Zm14.36,8.57c-.88-.27-1.71-.1-2.51,.31-2.01,1.03-4.02,2.06-6.03,3.09-.18,.09-.32,.22-.54,.02-.62-.55-1.37-.77-2.19-.75-1.09,.02-2.18-.04-3.26,.02-.87,.05-1.62-.07-2.19-.8-.1-.12-.24-.21-.37-.31-1.56-1.22-3.27-1.99-5.31-1.92-1.24,.04-2.41,.34-3.55,.79-.7,.28-1.39,.44-2.14,.39-.22-.01-.36-.05-.47-.27-.44-.82-1.14-1.23-2.08-1.23-1,0-2,0-3,0-1.53,0-2.43,.9-2.44,2.44,0,1.36,0,2.73,0,4.09,0,1.41,0,2.82,0,4.23,.01,1.41,.94,2.33,2.36,2.35,1.01,.01,2.03,0,3.04,0,.95,0,1.66-.4,2.13-1.24,.06-.1,.17-.24,.26-.24,.72,0,1.47-.08,2.15,.1,3.47,.89,6.92,1.84,10.38,2.77,.97,.26,1.93,.49,2.95,.34,1.27-.18,2.36-.79,3.38-1.51,2.79-1.98,5.58-3.96,8.37-5.94,.69-.49,1.41-.96,2.06-1.5,.92-.77,1.34-1.77,1.09-2.98-.24-1.15-.95-1.89-2.07-2.23ZM7.86,43.3c0,.49-.17,.65-.67,.66-.97,0-1.94,0-2.91,0-.52,0-.67-.16-.67-.69,0-1.38,0-2.75,0-4.13s0-2.7,0-4.04c0-.59,.12-.71,.73-.71,.95,0,1.91,0,2.86,0,.49,0,.66,.16,.66,.66,0,2.75,0,5.51,0,8.26Zm29.65-5.94c-3.4,2.42-6.8,4.83-10.2,7.25-.04,.03-.07,.05-.11,.08-1.37,1.01-2.83,1.24-4.5,.76-3.45-.99-6.94-1.9-10.41-2.82-.41-.11-.84-.14-1.26-.16-.45-.03-.9,0-1.38,0v-6.53s.06-.05,.08-.05c1.16,.09,2.23-.26,3.29-.66,1.37-.51,2.79-.72,4.23-.31,1.19,.34,2.21,.99,3.06,1.84,.72,.72,1.52,1.02,2.53,.97,1.26-.05,2.53-.01,3.79-.01,.93,0,1.53,.53,1.52,1.34,0,.81-.6,1.32-1.54,1.32-2.22,0-4.44,0-6.66,0-.13,0-.27,0-.4,0-.53,.04-.88,.42-.86,.92,.02,.48,.37,.82,.9,.83,.69,.01,1.38,0,2.07,0,1.69,0,3.38,0,5.07,0,1.94-.01,3.28-1.45,3.16-3.38-.02-.26,.04-.39,.28-.51,2-1.01,4-2.05,6-3.07,.84-.43,1.58-.3,1.95,.32,.37,.62,.14,1.32-.64,1.87ZM28.2,11.6c0-.86,0-1.73,0-2.59,0-.65-.34-1.04-.87-1.05-.53,0-.89,.4-.89,1.03,0,1.71,0,3.43,0,5.14,0,.65,.35,1.04,.88,1.04,.54,0,.88-.38,.88-1.03,0-.85,0-1.7,0-2.55Zm12.1,8.45c-.39-.25-.87-.09-1.12,.29-.25,.38-.22,.88,.16,1.14,1.03,.72,2.07,1.44,3.14,2.1,.56,.35,1.29-.13,1.28-.91-.07-.11-.14-.39-.32-.52-1.03-.73-2.08-1.43-3.14-2.11ZM11.31,4.69c.94,.65,1.89,1.28,2.85,1.91,.51,.34,1.03,.26,1.32-.17,.3-.44,.18-.94-.33-1.28-.93-.63-1.87-1.26-2.82-1.88-.16-.11-.37-.15-.48-.2-.5,.03-.79,.23-.91,.63-.13,.42,.02,.75,.37,.99Zm28.99,2.03c1.06-.68,2.11-1.38,3.14-2.1,.33-.23,.41-.61,.25-.99-.15-.36-.43-.54-.92-.54-.07,.03-.24,.08-.4,.16-.16,.08-.29,.19-.44,.29-.84,.56-1.69,1.12-2.52,1.7-.43,.3-.51,.79-.24,1.2,.24,.37,.74,.54,1.12,.29ZM9.77,14.26c.57,.01,1.14,0,1.72,0,.53,0,1.06,0,1.58,0,.03,0,.06,0,.09,0,.6-.02,.99-.38,.98-.9-.01-.51-.38-.85-.97-.85-1.13-.01-2.26-.01-3.39,0-.59,0-.96,.34-.98,.85-.02,.52,.37,.89,.97,.91Zm4.58,5.78c-1.06,.68-2.11,1.38-3.14,2.1-.33,.23-.4,.6-.25,.99,.15,.37,.45,.52,.9,.56,.1-.04,.27-.09,.42-.17,.23-.13,.44-.29,.66-.43,.77-.52,1.54-1.02,2.3-1.55,.42-.29,.5-.76,.26-1.16-.24-.4-.75-.58-1.15-.32Zm30.51-7.54c-.56-.01-1.11,0-1.67,0-.57,0-1.14,0-1.72,0-.59,.01-.95,.35-.96,.86,0,.51,.36,.88,.94,.89,1.14,.01,2.29,.01,3.43,0,.59,0,.95-.35,.96-.87,0-.53-.36-.87-.98-.88Zm-17.53,4.9c-.49,0-.9,.42-.88,.91,.01,.48,.4,.85,.89,.84,.49,0,.86-.38,.85-.88,0-.48-.39-.87-.86-.88Zm7.83-8.65c.5,.01,.9-.38,.89-.88,0-.48-.39-.87-.87-.87-.47,0-.87,.39-.87,.87,0,.48,.37,.87,.85,.89Z"/></g></g></g></svg>