<?xml version="1.0" encoding="UTF-8"?><svg id="Layer_2" xmlns="http://www.w3.org/2000/svg" viewBox="0 0 32 32"><defs><style>.cls-1{stroke:#0091ff;stroke-miterlimit:10;stroke-width:.34px;}.cls-1,.cls-2{fill:none;}.cls-3{fill:#0091ff;}</style></defs><g id="Layer_1-2"><g><rect class="cls-2" width="32" height="32"/><g><path class="cls-3" d="M28.84,9.9c-.34-.06-.7-.06-1.05-.08,.31-3.21-3.11-5.19-5.7-3.42-.07-.06-.14-.12-.21-.18-.59-.54-1.26-.96-2.03-1.19-.22-.07-.3-.17-.33-.39-.25-1.65-1.7-2.93-3.36-3-.83-.04-1.58,.2-2.27,.67C12.19,.7,10.21,.14,7.99,.92c-2.23,.79-3.43,2.47-3.77,4.74-.52,.08-1.03,.09-1.5,.24-1.4,.44-2.3,1.9-2.08,3.3,.25,1.56,1.47,2.67,3,2.69,1.3,.02,2.61,0,3.91,0,.47,0,.94,0,1.43,0-.02,.11-.04,.19-.06,.27-.44,1.77,.67,3.52,2.48,3.78,.8,.11,1.62,.05,2.43,.06,.81,0,1.62,0,2.54,0-.48,.27-.32,.68-.38,1.03h-.41c-4.07,0-8.14,0-12.21,0-1.11,0-1.72,.62-1.72,1.73,0,3.06,0,6.12,0,9.19v.39c-.13,0-.21,0-.3,0-.54,0-.73,.24-.62,.78,.05,.27,.1,.55,.15,.82,.17,1.02,.71,1.49,1.75,1.49,5.84,0,11.69,0,17.53,0,.1,0,.19,0,.29,0,.63-.03,1.23-.48,1.38-1.07,.12-.47,.19-.94,.26-1.42,.05-.34-.17-.57-.52-.6-.14,0-.27,0-.42,0v-6.18c.56,.07,1.03,0,1.06-.72,.57,.3,.71,.32,.96,.08,.48-.47,.96-.95,1.43-1.43,.19-.19,.2-.41,.08-.65-.05-.09-.1-.18-.14-.27q.71-.27,.71-1.03c0-.46,.02-.92,0-1.38-.02-.26-.11-.51-.17-.77,.49,0,1.06,0,1.62,0,.58,0,1.15,.01,1.73,0,1.57-.04,2.87-1.3,2.97-2.86,.1-1.58-.99-2.99-2.54-3.24Zm-19.46,.96c-1.89,.01-3.78,.01-5.67,0-1.16,0-2.07-.91-2.07-2.05,0-1.15,.9-2.05,2.09-2.06,.29,0,.58,0,.86,0,.45,0,.62-.17,.64-.61,.08-2.09,1.37-3.79,3.38-4.34,1.79-.49,3.35-.01,4.64,1.33,.5,.52,.59,.54,1.13,.09,1.44-1.17,3.61-.48,4.09,1.31,.01,.05,.02,.1,.03,.18-1.54-.08-2.91,.34-4.08,1.33-1.16,.98-1.81,2.25-1.98,3.77-.35,.03-.69,.03-1.02,.08-.63,.09-1.17,.38-1.64,.81-.1,.09-.25,.16-.39,.16ZM2.67,27.98c0-3.06,0-6.12,0-9.18,0-.58,.15-.73,.74-.73,4.08,0,8.16,0,12.24,0h.35c-.03,.55-.03,1.08,.74,1.07-.08,.14-.12,.22-.17,.3-.14,.24-.12,.47,.08,.67,.47,.47,.94,.94,1.4,1.41,.32,.32,.62,.12,.96-.07,.05,.69,.49,.81,1.07,.71v6.18h-.33c-2.2,0-4.4,0-6.6,0-.39,0-.67,.09-.76,.51h-2.01c-.08-.42-.37-.51-.76-.51-2.19,.01-4.38,0-6.57,0h-.39v-.36Zm18.17,2.04c-.08,.16-.27,.27-.43,.36-.09,.05-.23,.01-.35,.01-5.75,0-11.49,0-17.24,0-.78,0-.93-.08-.98-1.02h7.48c.08,.41,.37,.51,.75,.5,.89-.02,1.77,0,2.66,0,.47,0,.56-.06,.74-.5h7.49c-.04,.23-.03,.46-.12,.64Zm3.36-11.85c-.18,.05-.36,.1-.54,.15-.44,.12-.57,.44-.36,.83,.28,.53,.28,.52-.14,.95-.14,.14-.26,.31-.36,.44q-1.19-.54-1.56,.59h-1.23c-.05-.19-.09-.39-.15-.58-.12-.39-.44-.52-.8-.34q-.55,.29-1-.16c-.13-.13-.27-.24-.39-.35,.08-.41,.51-.65,.34-1.07-.17-.43-.64-.31-.96-.49v-1.2q1.16-.42,.63-1.48c.29-.28,.58-.56,.9-.86,.29,.06,.53,.49,.96,.32,.41-.18,.31-.62,.48-.95h1.23c.05,.19,.09,.38,.15,.56,.12,.4,.42,.54,.79,.35q.57-.29,1.02,.17l.02,.02q.37,.37,.11,.82c-.26,.46-.13,.77,.39,.9,.15,.04,.31,.08,.48,.13v1.24Zm6.16-5.06c-.09,1-.92,1.83-1.93,1.86-1.23,.03-2.46,.01-3.69,0-.11,0-.24-.08-.32-.16-.35-.33-.68-.68-1.02-1.02-.49-.49-.54-.5-1.16-.16-.03-.11-.06-.2-.08-.29-.08-.27-.25-.42-.53-.42-.66,0-1.32,0-1.99,0-.28,0-.46,.14-.54,.41-.03,.09-.05,.18-.08,.3-.07-.03-.12-.06-.17-.08-.39-.22-.54-.2-.85,.1-.38,.38-.75,.77-1.14,1.13-.11,.1-.29,.19-.44,.19-1.48,.01-2.97,.01-4.45,0-1.19,0-2.1-.9-2.1-2.05,0-1.15,.91-2.05,2.09-2.06,.29,0,.58,0,.87,0,.44,0,.62-.18,.64-.62,.08-2.09,1.39-3.8,3.38-4.34,1.81-.49,3.37,0,4.66,1.36,.46,.48,.58,.5,1.08,.08,.86-.72,2.07-.79,3.02-.19,.94,.6,1.38,1.73,1.1,2.82-.17,.68-.01,.88,.68,.89,.47,0,.95-.02,1.4,.07,1.01,.19,1.68,1.16,1.59,2.18Zm-2.56,9.95c0,1.05-.63,1.68-1.67,1.69-1.21,0-2.41,0-3.62,0h-.33v1.03h.33c1.2,0,2.39,0,3.59,0,1.65,0,2.73-1.08,2.73-2.73,0-1.88,0-3.77,0-5.65v-.34h-1.03c0,2.03,0,4.02,0,6.01Zm-17.96-.34h-1v.98h1v-.98Zm2.04,0h-.97v1h.97v-1Zm2.06,0h-.99v.99h.99v-.99Zm6.71-7.21c-1.14-.01-2.07,.9-2.08,2.03,0,1.14,.9,2.07,2.04,2.08,1.12,0,2.05-.9,2.07-2.02,.01-1.14-.89-2.08-2.02-2.09Zm-.02,3.08c-.56,0-1.03-.45-1.04-1.01-.01-.57,.46-1.05,1.03-1.04,.56,0,1.02,.46,1.02,1.02,0,.56-.46,1.03-1.01,1.03Z"/><path class="cls-1" d="M28.84,9.9c-.34-.06-.7-.06-1.05-.08,.31-3.21-3.11-5.19-5.7-3.42-.07-.06-.14-.12-.21-.18-.59-.54-1.26-.96-2.03-1.19-.22-.07-.3-.17-.33-.39-.25-1.65-1.7-2.93-3.36-3-.83-.04-1.58,.2-2.27,.67C12.19,.7,10.21,.14,7.99,.92c-2.23,.79-3.43,2.47-3.77,4.74-.52,.08-1.03,.09-1.5,.24-1.4,.44-2.3,1.9-2.08,3.3,.25,1.56,1.47,2.67,3,2.69,1.3,.02,2.61,0,3.91,0,.47,0,.94,0,1.43,0-.02,.11-.04,.19-.06,.27-.44,1.77,.67,3.52,2.48,3.78,.8,.11,1.62,.05,2.43,.06,.81,0,1.62,0,2.54,0-.48,.27-.32,.68-.38,1.03h-.41c-4.07,0-8.14,0-12.21,0-1.11,0-1.72,.62-1.72,1.73,0,3.06,0,6.12,0,9.19v.39c-.13,0-.21,0-.3,0-.54,0-.73,.24-.62,.78,.05,.27,.1,.55,.15,.82,.17,1.02,.71,1.49,1.75,1.49,5.84,0,11.69,0,17.53,0,.1,0,.19,0,.29,0,.63-.03,1.23-.48,1.38-1.07,.12-.47,.19-.94,.26-1.42,.05-.34-.17-.57-.52-.6-.14,0-.27,0-.42,0v-6.18c.56,.07,1.03,0,1.06-.72,.57,.3,.71,.32,.96,.08,.48-.47,.96-.95,1.43-1.43,.19-.19,.2-.41,.08-.65-.05-.09-.1-.18-.14-.27q.71-.27,.71-1.03c0-.46,.02-.92,0-1.38-.02-.26-.11-.51-.17-.77,.49,0,1.06,0,1.62,0,.58,0,1.15,.01,1.73,0,1.57-.04,2.87-1.3,2.97-2.86,.1-1.58-.99-2.99-2.54-3.24Zm-19.46,.96c-1.89,.01-3.78,.01-5.67,0-1.16,0-2.07-.91-2.07-2.05,0-1.15,.9-2.05,2.09-2.06,.29,0,.58,0,.86,0,.45,0,.62-.17,.64-.61,.08-2.09,1.37-3.79,3.38-4.34,1.79-.49,3.35-.01,4.64,1.33,.5,.52,.59,.54,1.13,.09,1.44-1.17,3.61-.48,4.09,1.31,.01,.05,.02,.1,.03,.18-1.54-.08-2.91,.34-4.08,1.33-1.16,.98-1.81,2.25-1.98,3.77-.35,.03-.69,.03-1.02,.08-.63,.09-1.17,.38-1.64,.81-.1,.09-.25,.16-.39,.16ZM2.67,27.98c0-3.06,0-6.12,0-9.18,0-.58,.15-.73,.74-.73,4.08,0,8.16,0,12.24,0h.35c-.03,.55-.03,1.08,.74,1.07-.08,.14-.12,.22-.17,.3-.14,.24-.12,.47,.08,.67,.47,.47,.94,.94,1.4,1.41,.32,.32,.62,.12,.96-.07,.05,.69,.49,.81,1.07,.71v6.18h-.33c-2.2,0-4.4,0-6.6,0-.39,0-.67,.09-.76,.51h-2.01c-.08-.42-.37-.51-.76-.51-2.19,.01-4.38,0-6.57,0h-.39v-.36Zm18.17,2.04c-.08,.16-.27,.27-.43,.36-.09,.05-.23,.01-.35,.01-5.75,0-11.49,0-17.24,0-.78,0-.93-.08-.98-1.02h7.48c.08,.41,.37,.51,.75,.5,.89-.02,1.77,0,2.66,0,.47,0,.56-.06,.74-.5h7.49c-.04,.23-.03,.46-.12,.64Zm3.36-11.85c-.18,.05-.36,.1-.54,.15-.44,.12-.57,.44-.36,.83,.28,.53,.28,.52-.14,.95-.14,.14-.26,.31-.36,.44q-1.19-.54-1.56,.59h-1.23c-.05-.19-.09-.39-.15-.58-.12-.39-.44-.52-.8-.34q-.55,.29-1-.16c-.13-.13-.27-.24-.39-.35,.08-.41,.51-.65,.34-1.07-.17-.43-.64-.31-.96-.49v-1.2q1.16-.42,.63-1.48c.29-.28,.58-.56,.9-.86,.29,.06,.53,.49,.96,.32,.41-.18,.31-.62,.48-.95h1.23c.05,.19,.09,.38,.15,.56,.12,.4,.42,.54,.79,.35q.57-.29,1.02,.17l.02,.02q.37,.37,.11,.82c-.26,.46-.13,.77,.39,.9,.15,.04,.31,.08,.48,.13v1.24Zm6.16-5.06c-.09,1-.92,1.83-1.93,1.86-1.23,.03-2.46,.01-3.69,0-.11,0-.24-.08-.32-.16-.35-.33-.68-.68-1.02-1.02-.49-.49-.54-.5-1.16-.16-.03-.11-.06-.2-.08-.29-.08-.27-.25-.42-.53-.42-.66,0-1.32,0-1.99,0-.28,0-.46,.14-.54,.41-.03,.09-.05,.18-.08,.3-.07-.03-.12-.06-.17-.08-.39-.22-.54-.2-.85,.1-.38,.38-.75,.77-1.14,1.13-.11,.1-.29,.19-.44,.19-1.48,.01-2.97,.01-4.45,0-1.19,0-2.1-.9-2.1-2.05,0-1.15,.91-2.05,2.09-2.06,.29,0,.58,0,.87,0,.44,0,.62-.18,.64-.62,.08-2.09,1.39-3.8,3.38-4.34,1.81-.49,3.37,0,4.66,1.36,.46,.48,.58,.5,1.08,.08,.86-.72,2.07-.79,3.02-.19,.94,.6,1.38,1.73,1.1,2.82-.17,.68-.01,.88,.68,.89,.47,0,.95-.02,1.4,.07,1.01,.19,1.68,1.16,1.59,2.18Zm-2.56,9.95c0,1.05-.63,1.68-1.67,1.69-1.21,0-2.41,0-3.62,0h-.33v1.03h.33c1.2,0,2.39,0,3.59,0,1.65,0,2.73-1.08,2.73-2.73,0-1.88,0-3.77,0-5.65v-.34h-1.03c0,2.03,0,4.02,0,6.01Zm-17.96-.34h-1v.98h1v-.98Zm2.04,0h-.97v1h.97v-1Zm2.06,0h-.99v.99h.99v-.99Zm6.71-7.21c-1.14-.01-2.07,.9-2.08,2.03,0,1.14,.9,2.07,2.04,2.08,1.12,0,2.05-.9,2.07-2.02,.01-1.14-.89-2.08-2.02-2.09Zm-.02,3.08c-.56,0-1.03-.45-1.04-1.01-.01-.57,.46-1.05,1.03-1.04,.56,0,1.02,.46,1.02,1.02,0,.56-.46,1.03-1.01,1.03Z"/></g></g></g></svg>