<?xml version="1.0" encoding="UTF-8"?><svg id="Layer_2" xmlns="http://www.w3.org/2000/svg" viewBox="0 0 32 32"><defs><style>.cls-1{fill:#0091ff;}.cls-2{fill:none;}</style></defs><g id="Layer_1-2"><g><rect class="cls-2" width="32" height="32"/><g><path class="cls-1" d="M9.77,26.39c0,1.49,0,2.99,0,4.48,0,.53-.17,.69-.7,.69-1.86,0-3.73,0-5.59-.01-.21,0-.47-.1-.63-.25-.74-.69-1.47-1.41-2.18-2.14-.15-.15-.25-.41-.25-.62-.02-2.23-.01-4.46-.01-6.68,0-.51,.17-.68,.68-.68,2.67,0,5.33,0,8,0,.52,0,.69,.17,.69,.71,0,1.5,0,3.01,0,4.51Zm-1.06,4.12v-8.27H1.44c0,1.91,0,3.79,0,5.67,0,.03,.01,.06,.03,.11,.13-.02,.26-.04,.38-.06,.63-.12,1.25-.25,1.88-.37,.46-.08,.72,.19,.65,.66-.02,.1-.04,.19-.05,.29-.13,.65-.26,1.31-.39,1.98h4.76Zm-6.59-1.55c.28,.31,.58,.64,.9,1,.07-.41,.14-.79,.21-1.22-.44,.09-.82,.16-1.11,.22Z"/><path class="cls-1" d="M16.05,12.27c-.26,0-.52,0-.78,0-.68-.02-1.08-.44-1.09-1.11,0-.2-.03-.33-.24-.39-.07-.02-.14-.06-.2-.1-.39-.29-.76-.46-1.28-.17-.38,.21-.88-.05-1.13-.47-.29-.47-.57-.94-.84-1.42-.31-.55-.16-1.13,.4-1.44,.21-.12,.29-.24,.25-.48-.04-.25-.03-.52,0-.78,.02-.19-.04-.27-.19-.35-.61-.34-.77-.91-.44-1.51,.25-.45,.51-.9,.78-1.35,.34-.56,.9-.72,1.48-.4,.19,.11,.34,.15,.52-.02,.07-.07,.16-.12,.24-.16,.41-.17,.67-.39,.67-.91,0-.43,.47-.78,.93-.79,.6-.02,1.19-.02,1.79,0,.55,.02,.97,.46,.97,1.02,0,.26,.07,.43,.32,.51,.07,.02,.14,.06,.2,.1,.36,.27,.68,.42,1.15,.15,.38-.21,.9,0,1.13,.39,.32,.51,.63,1.04,.91,1.57,.27,.51,.09,1.07-.43,1.36-.21,.12-.3,.25-.24,.48,.02,.08,.01,.17,0,.26-.03,.43-.05,.8,.44,1.07,.39,.21,.45,.76,.23,1.17-.28,.54-.58,1.06-.9,1.57-.3,.47-.87,.61-1.37,.32-.25-.15-.43-.15-.62,.05-.02,.02-.05,.04-.08,.05-.45,.2-.78,.43-.78,1.02,0,.42-.48,.73-.97,.75-.28,.02-.56,0-.85,0,0,0,0,0,0,0Zm-4.68-7.68c.08,.05,.13,.09,.18,.12,.47,.25,.68,.64,.62,1.18-.02,.22-.04,.46,0,.68,.11,.68-.11,1.19-.74,1.49-.01,0-.02,.04-.03,.07,.27,.46,.54,.92,.82,1.4,.5-.34,.97-.43,1.48-.09,.3,.2,.61,.37,.92,.55,.35,.19,.55,.47,.58,.88,0,.13,.02,.25,.03,.39h1.66c-.1-.75,.28-1.17,.92-1.43,.23-.09,.42-.27,.63-.4,.36-.24,.72-.26,1.11-.07,.1,.05,.21,.11,.33,.18,.28-.48,.55-.94,.81-1.4-.02-.03-.03-.05-.05-.07-.04-.03-.09-.06-.14-.09-.5-.27-.68-.68-.61-1.24,.04-.27,.01-.56-.01-.84-.04-.48,.13-.84,.54-1.1,.09-.06,.18-.11,.28-.17-.28-.48-.55-.94-.84-1.43-.62,.47-1.16,.39-1.71-.07-.2-.16-.45-.26-.68-.38-.34-.18-.54-.46-.59-.84-.02-.14-.02-.28-.02-.43h-1.63c0,.13-.02,.25-.03,.36-.03,.4-.23,.68-.58,.88-.33,.18-.65,.38-.97,.58-.37,.24-.75,.25-1.14,.05-.09-.05-.19-.1-.3-.16-.28,.48-.55,.94-.83,1.41Z"/><path class="cls-1" d="M25.89,19.6c1.7,.09,3.02,.8,3.75,2.33,.73,1.51,.51,2.96-.51,4.29-.66,.85-1.02,1.8-1.04,2.87,0,.62-.1,1.2-.51,1.7-.57,.7-1.54,.99-2.4,.7-.88-.3-1.51-1.09-1.5-1.99,.02-1.31-.41-2.43-1.2-3.48-1.79-2.36-.32-5.88,2.61-6.34,.27-.04,.54-.06,.79-.09Zm1.29,8.32c.22-.85,.57-1.64,1.13-2.31,1.52-1.81,.48-4.6-2.05-4.93-1.24-.17-2.46,.42-3.09,1.49-.63,1.08-.53,2.33,.25,3.37,.28,.38,.54,.78,.76,1.2,.19,.37,.3,.78,.44,1.16h.75c0-.58,0-1.13,0-1.68,0-.1-.07-.22-.14-.3-.24-.25-.49-.48-.69-.68,.25-.28,.47-.52,.76-.84,.2,.25,.39,.49,.65,.81,.23-.3,.41-.54,.59-.76,.28,.27,.52,.49,.8,.76-.26,.24-.51,.46-.75,.69-.07,.06-.16,.15-.16,.23-.01,.59,0,1.18,0,1.78h.76Zm-2.43,1.07c-.07,.58,.02,1.08,.54,1.4,.41,.26,.85,.25,1.25-.02,.49-.33,.57-.83,.5-1.38h-2.29Z"/><path class="cls-1" d="M4.56,19.47c-.34,.1-.66,.2-1.01,.3-1.13-4.07-.51-7.81,1.85-11.28-.37-.29-.72-.57-1.08-.84-.2-.15-.34-.33-.29-.6,.05-.26,.23-.37,.46-.45,1.11-.36,2.22-.73,3.33-1.09,.51-.17,.82,.06,.78,.59-.08,1.2-.17,2.39-.27,3.59-.04,.48-.48,.68-.87,.39-.4-.3-.79-.61-1.22-.95-1.08,1.51-1.75,3.17-2.05,4.98-.3,1.81-.17,3.59,.37,5.37Zm2.78-10.79c.05-.7,.1-1.32,.15-1.98-.64,.21-1.24,.41-1.88,.62,.59,.46,1.13,.89,1.73,1.36Z"/><path class="cls-1" d="M27.88,14.43c-.51-3.4-2.13-6.1-4.88-8.15,.2-.28,.39-.55,.6-.84,3.03,2.26,4.79,5.23,5.33,8.99,.39,0,.78,0,1.18,0,.13,0,.26,0,.39,0,.52,.01,.76,.43,.47,.87-.53,.82-1.08,1.62-1.62,2.43-.13,.2-.26,.4-.4,.59-.26,.35-.64,.36-.89,0-.69-1.02-1.38-2.04-2.05-3.08-.27-.41-.02-.81,.48-.82,.44,0,.89,0,1.39,0Zm.62,2.7c.38-.56,.72-1.09,1.1-1.64h-2.19c.37,.56,.72,1.08,1.1,1.64Z"/><path class="cls-1" d="M15.47,27.92c1.94,.08,3.77-.27,5.51-1.05,.05,.08,.09,.14,.12,.21,.11,.23,.22,.47,.33,.72-1,.47-2.01,.82-3.07,.96-.93,.12-1.87,.17-2.81,.19-.31,0-.43,.1-.5,.39-.09,.41-.21,.81-.34,1.22-.15,.51-.61,.62-.96,.23-.8-.91-1.58-1.84-2.36-2.76-.29-.35-.19-.73,.24-.87,1.16-.38,2.33-.75,3.49-1.11,.46-.14,.79,.18,.69,.66-.04,.2-.11,.39-.17,.59-.06,.2-.11,.39-.17,.63Zm-1.54,1.5c.21-.73,.41-1.4,.62-2.13-.67,.23-1.27,.43-1.9,.64,.43,.51,.83,.96,1.28,1.49Z"/><path class="cls-1" d="M22.21,20.82c-.2-.21-.43-.44-.67-.68,.24-.21,.48-.43,.75-.67,.18,.2,.4,.45,.63,.7-.2,.19-.45,.41-.71,.65Z"/><path class="cls-1" d="M30.1,19.98c.2,.2,.43,.43,.66,.66-.25,.22-.49,.44-.74,.67-.18-.19-.4-.43-.64-.69,.2-.18,.45-.4,.72-.64Z"/><path class="cls-1" d="M25.39,19.08v-1h1.01v1h-1.01Z"/><path class="cls-1" d="M20.19,22.75h1v1h-1v-1Z"/><path class="cls-1" d="M30.6,23.76v-1h1v1h-1Z"/><path class="cls-1" d="M2.5,24.27v-1H7.66v1H2.5Z"/><path class="cls-1" d="M2.5,26.87v-1H7.66v1H2.5Z"/><path class="cls-1" d="M7.66,29.47h-2.04v-1h2.04v1Z"/><path class="cls-1" d="M16,3.71c1.44,0,2.61,1.16,2.61,2.59,0,1.42-1.16,2.59-2.57,2.6-1.46,0-2.63-1.16-2.63-2.61,0-1.42,1.17-2.58,2.59-2.58Zm1.57,2.59c0-.86-.71-1.56-1.58-1.55-.85,0-1.55,.71-1.54,1.56,0,.86,.71,1.56,1.58,1.56,.85,0,1.54-.71,1.54-1.56Z"/></g></g></g></svg>