<svg xmlns="http://www.w3.org/2000/svg" width="751" height="751" viewBox="0 0 751 751">
  <g id="Group_4735" data-name="Group 4735" transform="translate(15995 -1327)">
    <rect id="Rectangle_4922" data-name="Rectangle 4922" width="751" height="751" transform="translate(-15995 1327)" fill="#fff" opacity="0"/>
    <g id="Light_bulb-rafiki" data-name="Light bulb-rafiki" transform="translate(-15981.596 1385.412)">
      <g id="freepik--background-complete--inject-43" transform="translate(0 55)">
        <rect id="Rectangle_4877" data-name="Rectangle 4877" width="48.858" height="0.369" transform="translate(614.83 506.713)" fill="#ebebeb"/>
        <rect id="Rectangle_4878" data-name="Rectangle 4878" width="12.819" height="0.369" transform="translate(475.793 510.726)" fill="#ebebeb"/>
        <rect id="Rectangle_4879" data-name="Rectangle 4879" width="28.309" height="0.369" transform="translate(585.046 493.024)" fill="#ebebeb"/>
        <rect id="Rectangle_4880" data-name="Rectangle 4880" width="63.714" height="0.369" transform="translate(77.389 495.502)" fill="#ebebeb"/>
        <rect id="Rectangle_4881" data-name="Rectangle 4881" width="9.338" height="0.369" transform="translate(154.246 495.502)" fill="#ebebeb"/>
        <rect id="Rectangle_4882" data-name="Rectangle 4882" width="138.196" height="0.369" transform="translate(193.943 501.727)" fill="#ebebeb"/>
        <path id="Path_50638" data-name="Path 50638" d="M331.463,472.184H46.619a8.423,8.423,0,0,1-8.409-8.423V63.35A8.423,8.423,0,0,1,46.619,55H331.463a8.423,8.423,0,0,1,8.423,8.423V463.761A8.423,8.423,0,0,1,331.463,472.184ZM46.619,55.3a8.055,8.055,0,0,0-8.04,8.055V463.761a8.055,8.055,0,0,0,8.04,8.055H331.463a8.069,8.069,0,0,0,8.055-8.055V63.35a8.069,8.069,0,0,0-8.055-8.055Z" transform="translate(18.157 -55)" fill="#ebebeb"/>
        <path id="Path_50639" data-name="Path 50639" d="M547.783,472.184H262.923a8.438,8.438,0,0,1-8.423-8.423V63.35A8.438,8.438,0,0,1,262.923,55H547.783a8.423,8.423,0,0,1,8.394,8.35V463.761A8.423,8.423,0,0,1,547.783,472.184ZM262.923,55.3a8.069,8.069,0,0,0-8.055,8.055V463.761a8.069,8.069,0,0,0,8.055,8.054H547.783a8.069,8.069,0,0,0,8.055-8.055V63.35a8.069,8.069,0,0,0-8.055-8.055Z" transform="translate(120.936 -55)" fill="#ebebeb"/>
        <rect id="Rectangle_4883" data-name="Rectangle 4883" width="737.596" height="0.369" transform="translate(0 482.978)" fill="#ebebeb"/>
        <rect id="Rectangle_4884" data-name="Rectangle 4884" width="110.403" height="102.88" transform="translate(314.422 367.382)" fill="#e6e6e6"/>
        <rect id="Rectangle_4885" data-name="Rectangle 4885" width="14.088" height="8.984" transform="translate(317.889 473.492)" fill="#e0e0e0"/>
        <rect id="Rectangle_4886" data-name="Rectangle 4886" width="224.2" height="101.877" transform="translate(424.84 367.382)" fill="#e6e6e6"/>
        <rect id="Rectangle_4887" data-name="Rectangle 4887" width="14.088" height="122.677" transform="translate(652.049 359.814)" fill="#e6e6e6"/>
        <rect id="Rectangle_4888" data-name="Rectangle 4888" width="97.186" height="89.013" transform="translate(435.757 375.495)" fill="#f5f5f5"/>
        <path id="Path_50640" data-name="Path 50640" d="M306.52,398.553h25.949l9.353-89.013H315.873Z" transform="translate(145.656 65.955)" fill="#fafafa"/>
        <path id="Path_50641" data-name="Path 50641" d="M328.61,398.553h5.163l9.353-89.013h-5.163Z" transform="translate(156.153 65.955)" fill="#fafafa"/>
        <rect id="Rectangle_4889" data-name="Rectangle 4889" width="97.186" height="89.013" transform="translate(324.94 375.495)" fill="#f5f5f5"/>
        <rect id="Rectangle_4890" data-name="Rectangle 4890" width="97.186" height="89.013" transform="translate(547.65 375.495)" fill="#f5f5f5"/>
        <path id="Path_50642" data-name="Path 50642" d="M548.475,298.91H210.42V421.587h7.524v-6.874H544.669v6.874h7.523V298.91ZM217.943,310H321.207v42.618H217.943Zm0,93.6V358.965H321.207V403.6Zm215.024,0H328.73V310H432.967Zm111.746,0H440.476V358.965H544.669Zm0-50.983H440.476V310H544.669Z" transform="translate(99.99 60.904)" fill="#f0f0f0"/>
        <circle id="Ellipse_717" data-name="Ellipse 717" cx="4.514" cy="4.514" r="4.514" transform="translate(366.098 381.544)" fill="#ebebeb"/>
        <path id="Path_50643" data-name="Path 50643" d="M252.682,320.611a4.5,4.5,0,0,1-4.086-2.641,4.514,4.514,0,1,0,8.187,0A4.514,4.514,0,0,1,252.682,320.611Z" transform="translate(117.931 69.961)" fill="#e0e0e0"/>
        <path id="Path_50644" data-name="Path 50644" d="M257.2,353.714a4.514,4.514,0,1,1-4.514-4.514A4.514,4.514,0,0,1,257.2,353.714Z" transform="translate(117.928 84.801)" fill="#ebebeb"/>
        <path id="Path_50645" data-name="Path 50645" d="M252.682,356.171a4.426,4.426,0,0,1-4.086-2.641,4.514,4.514,0,1,0,8.187,0,4.426,4.426,0,0,1-4.1,2.641Z" transform="translate(117.931 86.859)" fill="#e0e0e0"/>
        <circle id="Ellipse_718" data-name="Ellipse 718" cx="4.514" cy="4.514" r="4.514" transform="translate(593.927 381.544)" fill="#ebebeb"/>
        <path id="Path_50646" data-name="Path 50646" d="M407.124,320.611a4.529,4.529,0,0,1-4.1-2.641,4.426,4.426,0,0,0-.413,1.874,4.514,4.514,0,1,0,8.6-1.873A4.5,4.5,0,0,1,407.124,320.611Z" transform="translate(191.317 69.961)" fill="#e0e0e0"/>
        <path id="Path_50647" data-name="Path 50647" d="M357.968,342.939a4.514,4.514,0,1,1-1.317-3.2,4.514,4.514,0,0,1,1.317,3.2Z" transform="translate(165.813 79.674)" fill="#ebebeb"/>
        <path id="Path_50648" data-name="Path 50648" d="M353.454,345.391a4.529,4.529,0,0,1-4.1-2.641,4.425,4.425,0,0,0-.413,1.873,4.514,4.514,0,1,0,8.6-1.873,4.5,4.5,0,0,1-4.086,2.641Z" transform="translate(165.813 81.736)" fill="#e0e0e0"/>
        <path id="Path_50649" data-name="Path 50649" d="M411.638,353.714a4.514,4.514,0,1,1-4.514-4.514A4.514,4.514,0,0,1,411.638,353.714Z" transform="translate(191.317 84.801)" fill="#ebebeb"/>
        <path id="Path_50650" data-name="Path 50650" d="M407.131,356.171a4.5,4.5,0,0,1-4.1-2.641,4.529,4.529,0,1,0,8.187,0,4.425,4.425,0,0,1-4.086,2.641Z" transform="translate(191.31 86.859)" fill="#e0e0e0"/>
        <rect id="Rectangle_4891" data-name="Rectangle 4891" width="93.984" height="122.102" transform="translate(116.599 71.798)" fill="#f5f5f5"/>
        <rect id="Rectangle_4892" data-name="Rectangle 4892" width="79.513" height="103.308" transform="translate(123.828 81.195)" fill="#ebebeb"/>
        <rect id="Rectangle_4893" data-name="Rectangle 4893" width="69.57" height="90.385" transform="translate(128.799 87.656)" fill="#ebebeb"/>
        <path id="Path_50651" data-name="Path 50651" d="M111.872,149.04,87.31,173.617v14.737h63.876Z" transform="translate(41.489 -10.313)" fill="#fafafa"/>
        <path id="Path_50652" data-name="Path 50652" d="M134.158,139.639a9.559,9.559,0,1,1-9.559-9.559A9.559,9.559,0,0,1,134.158,139.639Z" transform="translate(54.666 -19.323)" fill="#fff"/>
        <path id="Path_50653" data-name="Path 50653" d="M56.49,300.184c0-12.554,14.752-23.19,35.183-26.819l-20.166-24.1h71.3l-20.21,24.1c20.417,3.629,35.2,14.265,35.2,26.819,0,13.837-17.924,114.976-41.556,137.193l7.45,8.851h-33.1l7.464-8.851C74.414,415.16,56.49,314.021,56.49,300.184Z" transform="translate(26.844 37.311)" fill="#f0f0f0"/>
        <path id="Path_50654" data-name="Path 50654" d="M113.954,377.117c-8.5-6.166-14.354-18.956-14.354-33.782,0-20.83,11.551-37.735,25.816-37.735a18.293,18.293,0,0,1,6.978,1.475C128.307,328.318,121.89,355.388,113.954,377.117Z" transform="translate(47.329 64.083)" fill="#e0e0e0"/>
        <path id="Path_50655" data-name="Path 50655" d="M71.966,270.06c9.485,5.576,16.227,19.177,16.227,34.992,0,19.384-10,35.4-22.865,37.47C59.8,317.856,56.55,296.186,56.55,290.3,56.462,282.348,62.392,275.179,71.966,270.06Z" transform="translate(26.872 47.195)" fill="#e6e6e6"/>
        <path id="Path_50656" data-name="Path 50656" d="M397.15,209.71h0a1.918,1.918,0,0,1,1.918,1.918V333.08A1.918,1.918,0,0,1,397.15,335h0Z" transform="translate(188.722 18.517)" fill="#e0e0e0"/>
        <rect id="Rectangle_4894" data-name="Rectangle 4894" width="209.861" height="125.288" transform="translate(376.026 228.227)" fill="#ebebeb"/>
        <rect id="Rectangle_4895" data-name="Rectangle 4895" width="202.942" height="118.384" transform="translate(379.478 231.679)" fill="#e0e0e0"/>
        <path id="Path_50657" data-name="Path 50657" d="M311.61,330.434h30.654l18.75-118.384H330.36Z" transform="translate(148.074 19.629)" fill="#fafafa" opacity="0.1"/>
        <path id="Path_50658" data-name="Path 50658" d="M336.09,330.434h6.874l18.75-118.384H354.84Z" transform="translate(159.707 19.629)" fill="#fafafa" opacity="0.2"/>
        <path id="Path_50659" data-name="Path 50659" d="M344.05,294.659v4.426h6.24a2.773,2.773,0,0,0,2.773-2.788v-1.7Z" transform="translate(163.49 58.856)" fill="#e0e0e0"/>
        <path id="Path_50660" data-name="Path 50660" d="M364.067,299.106H307.656a4.426,4.426,0,0,1-4.426-4.426h65.38a4.425,4.425,0,0,1-4.544,4.426Z" transform="translate(144.092 58.894)" fill="#f0f0f0"/>
      </g>
      <g id="freepik--Shadow--inject-43" transform="translate(82.773 570.388)">
        <ellipse id="freepik--path--inject-43" cx="286.025" cy="16.699" rx="286.025" ry="16.699" fill="#f5f5f5"/>
      </g>
      <g id="freepik--character-2--inject-43" transform="translate(431.434 240.258)">
        <path id="Path_50661" data-name="Path 50661" d="M359.227,403.923l-.325,9.53-9.25.782-.413-10.444Z" transform="translate(-265.478 -74.516)" fill="#b55b52"/>
        <path id="Path_50662" data-name="Path 50662" d="M347.077,412.379a4.6,4.6,0,0,1-3.172-.738.959.959,0,0,1,0-1.092,1.3,1.3,0,0,1,.782-.62c1.785-.546,5.576,1.475,5.739,1.593a.251.251,0,0,1,.133.251.31.31,0,0,1-.207.221A18.712,18.712,0,0,1,347.077,412.379Zm-1.755-2.036a1.863,1.863,0,0,0-.487.074.694.694,0,0,0-.487.369c-.177.325-.118.472,0,.561.516.679,3.216.62,5.207.324a11.7,11.7,0,0,0-4.308-1.328Z" transform="translate(-268.095 -71.643)" fill="#0091ff"/>
        <path id="Path_50663" data-name="Path 50663" d="M349.369,412.824h-.1c-1.283-.531-3.924-2.788-3.732-4,0-.3.236-.649.929-.738a1.829,1.829,0,0,1,1.475.4c1.4,1.077,1.755,3.968,1.77,4.1a.221.221,0,0,1-.1.221.192.192,0,0,1-.236.015Zm-2.729-4.263h-.148c-.442,0-.472.236-.487.3,0,.723,1.682,2.493,2.95,3.245a5.9,5.9,0,0,0-1.475-3.245,1.475,1.475,0,0,0-.885-.3Z" transform="translate(-267.245 -72.486)" fill="#0091ff"/>
        <path id="Path_50664" data-name="Path 50664" d="M354.016,410.36l11.669-.31a.959.959,0,0,1,.944.723l2.36,9.441a1.564,1.564,0,0,1-1.121,1.9h-.339c-4.2,0-7.951-.1-13.277,0-6.181.162-4.588.856-11.8,1.151-4.426.177-5.325-4.78-3.467-5.075,8.482-1.3,9.294-3.894,12.495-7.022a3.746,3.746,0,0,1,2.537-.811Z" transform="translate(-270.785 -71.541)" fill="#263238"/>
        <path id="Path_50665" data-name="Path 50665" d="M318.388,400.12l-3.363,17.422-9.515-3.186L308.7,397.73Z" transform="translate(-286.259 -77.396)" fill="#b55b52"/>
        <path id="Path_50666" data-name="Path 50666" d="M302.527,408.428c-1.283-.4-2.523-1.033-2.773-1.711a.959.959,0,0,1,.339-1.047,1.357,1.357,0,0,1,.944-.339c1.844,0,4.794,3.2,4.927,3.334a.265.265,0,0,1,0,.3.251.251,0,0,1-.251.133,19.749,19.749,0,0,1-3.186-.664Zm-1.018-2.493a1.479,1.479,0,0,0-.487-.089.693.693,0,0,0-.575.192c-.28.251-.265.413-.221.516.28.811,2.847,1.623,4.824,1.977a11.565,11.565,0,0,0-3.54-2.6Z" transform="translate(-289.014 -73.785)" fill="#0091ff"/>
        <path id="Path_50667" data-name="Path 50667" d="M304.566,409.615a.1.1,0,0,1-.089,0c-1.062-.915-2.847-3.895-2.272-4.971.118-.266.428-.546,1.106-.413a1.888,1.888,0,0,1,1.224.826c.974,1.475.4,4.322.384,4.426a.3.3,0,0,1-.177.192Zm-1.224-4.912h-.133c-.457-.089-.531.074-.575.133-.266.679.811,2.95,1.844,4.042a5.9,5.9,0,0,0-.4-3.555,1.284,1.284,0,0,0-.738-.561Z" transform="translate(-287.882 -74.323)" fill="#0091ff"/>
        <path id="Path_50668" data-name="Path 50668" d="M310.664,407.185l11.182,3.422a.959.959,0,0,1,.664.974l-.767,9.707a1.579,1.579,0,0,1-1.682,1.475h-.324c-4-1.3-7.523-2.626-12.539-4.16-5.9-1.815-4.632-.634-11.61-2.67-4.219-1.239-3.526-6.24-1.667-5.9,8.438,1.475,10.046-.723,14.073-2.67a3.7,3.7,0,0,1,2.67-.177Z" transform="translate(-292.46 -72.983)" fill="#263238"/>
        <path id="Path_50669" data-name="Path 50669" d="M316.007,408.812l.723-4.116L307.1,402.07l-.8,4.131Z" transform="translate(-285.883 -75.333)" opacity="0.2"/>
        <path id="Path_50670" data-name="Path 50670" d="M359.09,409.151l.118-5.871-9.928.148.089,5.724Z" transform="translate(-265.459 -74.758)" opacity="0.2"/>
        <path id="Path_50671" data-name="Path 50671" d="M386.8,275.212l-44.566-8.822-6.7,29.105-17.584,76.4L303.25,466.942l16.552,3.777,21.862-94.87,22.157-71.635,23.928,1.638Z" transform="translate(-287.333 -139.807)" fill="#263238"/>
        <path id="Path_50672" data-name="Path 50672" d="M303.64,398.81l18.986,4.249-2.051,5.473-18.145-4.6Z" transform="translate(-287.722 -76.883)" fill="#0091ff"/>
        <path id="Path_50673" data-name="Path 50673" d="M364.764,370.494l6.756-69.555a102.039,102.039,0,0,0-.384-24.65l-.752-.192-10.7-1.387-16.227,4.042-3.2,90.651a18.237,18.237,0,0,0,0,2.2l7.627,94.693,18.558-.856Z" transform="translate(-269.761 -135.854)" fill="#263238"/>
        <path id="Path_50674" data-name="Path 50674" d="M343.085,304.173l-2.95-14.073-.6,25.654Z" transform="translate(-270.093 -128.541)" opacity="0.3"/>
        <path id="Path_50675" data-name="Path 50675" d="M340.143,231.832,323.62,253.06a77.682,77.682,0,0,0,1.932,26.553s6.093,4.426,5.9,7.523,1.992,10.326,1.992,10.326l-4.853,2.478-5.37-1.018-2.139-7.538-.974-9.058s-13.277-26.3-5.9-37.219a273.359,273.359,0,0,1,16.98-21.479Z" transform="translate(-283.185 -160.127)" fill="#b55b52"/>
        <path id="Path_50676" data-name="Path 50676" d="M343.551,223.358s.384,8.541-14.427,24.724L315.05,236.827l7.214-8.6a24.164,24.164,0,0,1,16.227-8.527h0Z" transform="translate(-281.725 -161.994)" fill="#0091ff"/>
        <path id="Path_50677" data-name="Path 50677" d="M335.67,230.487l1.239-2.257c-3.5,2.346-13.055,11.211-14,13.026l2.847,2.36A72.423,72.423,0,0,0,335.67,230.487Z" transform="translate(-277.99 -157.941)" opacity="0.2"/>
        <path id="Path_50678" data-name="Path 50678" d="M328.592,246.257l2.331-3.172L315.964,230.62l-2.434,2.729Z" transform="translate(-282.448 -156.805)" fill="#0091ff"/>
        <path id="Path_50679" data-name="Path 50679" d="M328.592,246.257l2.331-3.172L315.964,230.62l-2.434,2.729Z" transform="translate(-282.448 -156.805)" fill="#fff" opacity="0.5"/>
        <path id="Path_50680" data-name="Path 50680" d="M375.432,272.994c.723-12.495,3.26-48.534,3.26-48.534a49.431,49.431,0,0,0-10.547-3.777c-4.263,2.242-13.764,7.037-16.98,7.022-2.862,0-4.839-5.635-5.783-9.176a87.4,87.4,0,0,0-13.572,1.726h0a111.263,111.263,0,0,0-4.057,27.247c-.3,12.554-.457,31.894.487,52.148,0,0,9.6,7.037,32.174,6.343a62.239,62.239,0,0,0,16.714-2.95S375.034,280.813,375.432,272.994Z" transform="translate(-275.798 -162.55)" fill="#0091ff"/>
        <path id="Path_50681" data-name="Path 50681" d="M372.523,239.365l10.12,8.851s8.851-12.7,15.431-21.051c0,0-1.623-5.606,1.4-9.043l1.475-5.207,4.75-1.475,6.52,8.453L404.2,230.47s-14.088,30.492-19.074,31.274-19.281-12.333-19.281-12.333Z" transform="translate(-257.59 -165.919)" fill="#b55b52"/>
        <path id="Path_50682" data-name="Path 50682" d="M358.934,221.05s6.786-.428,23.455,13.837L371.621,249.33l-10.533-7.243L354.42,227.2Z" transform="translate(-263.017 -161.353)" fill="#0091ff"/>
        <path id="Path_50683" data-name="Path 50683" d="M380.589,231.918l-3.245-2.228L365.38,245.076l2.818,2.331Z" transform="translate(-257.809 -157.247)" fill="#0091ff"/>
        <path id="Path_50684" data-name="Path 50684" d="M380.589,231.918l-3.245-2.228L365.38,245.076l2.818,2.331Z" transform="translate(-257.809 -157.247)" fill="#fff" opacity="0.5"/>
        <path id="Path_50685" data-name="Path 50685" d="M361.874,230.72c-.192,2.788-.413,5.9-.634,9.1l3.747,2.582A41.217,41.217,0,0,0,361.874,230.72Z" transform="translate(-259.776 -156.757)" opacity="0.2"/>
        <path id="Path_50686" data-name="Path 50686" d="M358.678,225.028c-3.142-3.452-.649-17.378-.649-17.378l-10.68,4.293s-.841,9.618-3.5,11.654c-1.047.8-2.655,0-4.042.089l3.142,9.028,7.14.487,12.849-7.184C361.628,225.662,359.74,226.178,358.678,225.028Z" transform="translate(-269.96 -167.72)" fill="#b55b52"/>
        <path id="Path_50687" data-name="Path 50687" d="M344.16,218.611a13.837,13.837,0,0,0,11.551-9.308c.147-1.018.251-1.652.251-1.652l-10.68,4.293A49.48,49.48,0,0,1,344.16,218.611Z" transform="translate(-267.892 -167.72)" opacity="0.1"/>
        <path id="Path_50688" data-name="Path 50688" d="M341.8,218.04l4.957,10.105L338.984,233l-.664-14.781Z" transform="translate(-270.668 -162.783)" fill="#0091ff"/>
        <path id="Path_50689" data-name="Path 50689" d="M341.8,218.04l4.957,10.105L338.984,233l-.664-14.781Z" transform="translate(-270.668 -162.783)" fill="#fff" opacity="0.5"/>
        <path id="Path_50690" data-name="Path 50690" d="M360.262,219.28l-17.142,7.878,6.2,7.641,14.073-14.206Z" transform="translate(-268.387 -162.194)" fill="#0091ff"/>
        <path id="Path_50691" data-name="Path 50691" d="M360.262,219.28l-17.142,7.878,6.2,7.641,14.073-14.206Z" transform="translate(-268.387 -162.194)" fill="#fff" opacity="0.5"/>
        <path id="Path_50692" data-name="Path 50692" d="M341.273,190.64a5.9,5.9,0,0,1,8.158-7.568,17.7,17.7,0,0,1,15.947-1.092,15.725,15.725,0,0,1,8.689,12.244c2.729,2.508,5.665,5.9,6.55,9.471a8.6,8.6,0,0,1-.147,5.547,4.175,4.175,0,0,1-4.529,2.537,8.217,8.217,0,0,1-6.048,6.579l-12.185,5.016h.767c-6.2,0-12.244-4.16-15.534-9.412s-4.426-11.595-4.529-17.791C338.366,193.959,339.089,191.2,341.273,190.64Z" transform="translate(-270.625 -180.582)" fill="#263238"/>
        <path id="Path_50693" data-name="Path 50693" d="M367.552,205.11c-3.54,9.367-4.839,13.395-11.167,16.8-9.53,5.134-20.254-1.269-19.605-11.492.6-9.205,6.3-23.028,16.8-23.883a13.675,13.675,0,0,1,13.97,18.573Z" transform="translate(-271.413 -177.779)" fill="#b55b52"/>
        <path id="Path_50694" data-name="Path 50694" d="M347.416,198.18c-.251.767-.856,1.269-1.357,1.121s-.723-.915-.5-1.7.856-1.283,1.357-1.136S347.593,197.427,347.416,198.18Z" transform="translate(-267.269 -173.046)" fill="#263238"/>
        <path id="Path_50695" data-name="Path 50695" d="M341.454,196.341c-.251.8-.856,1.283-1.357,1.136s-.723-.929-.487-1.7.856-1.283,1.357-1.121S341.705,195.574,341.454,196.341Z" transform="translate(-270.099 -173.907)" fill="#263238"/>
        <path id="Path_50696" data-name="Path 50696" d="M343.758,197.31a21.5,21.5,0,0,1-4.307,4.116,3.6,3.6,0,0,0,2.611,1.372Z" transform="translate(-270.131 -172.634)" fill="#842828"/>
        <path id="Path_50697" data-name="Path 50697" d="M350.721,198.686a.472.472,0,0,1-.4-.4,5.664,5.664,0,0,0-2.95-3.422.472.472,0,0,1-.236-.649.457.457,0,0,1,.62-.221h0a6.505,6.505,0,0,1,3.481,4.145.472.472,0,0,1-.383.546h-.148Z" transform="translate(-266.503 -174.231)" fill="#263238"/>
        <path id="Path_50698" data-name="Path 50698" d="M340.029,192.922a.472.472,0,0,1-.118-.915,4.647,4.647,0,0,1,4.426.3.457.457,0,0,1,.148.634h0a.472.472,0,0,1-.649.118h0a3.806,3.806,0,0,0-3.452-.192.4.4,0,0,1-.354.059Z" transform="translate(-270.06 -175.356)" fill="#263238"/>
        <path id="Path_50699" data-name="Path 50699" d="M340.73,203.376a15.991,15.991,0,0,0,7.73-.236s-.089,5.045-6.432,4.2l-1.18-.207a7.376,7.376,0,0,0-.118-3.762Z" transform="translate(-269.522 -169.863)" fill="#263238"/>
        <path id="Path_50700" data-name="Path 50700" d="M341.44,203.544v1.165a10.857,10.857,0,0,0,6.314-.074,4.851,4.851,0,0,0,.339-1.475,14.4,14.4,0,0,1-6.653.384Z" transform="translate(-269.185 -169.854)" fill="#fff"/>
        <path id="Path_50701" data-name="Path 50701" d="M347.118,204.965a11.413,11.413,0,0,0-1.623-.074c-2.154,0-3.88.752-4.116,1.564h.339C344.67,206.9,346.263,206.027,347.118,204.965Z" transform="translate(-269.213 -169.033)" fill="#c13b37"/>
        <path id="Path_50702" data-name="Path 50702" d="M360.27,206.351a7.2,7.2,0,0,1-4.691,2.832c-2.493.339-3.408-1.962-2.449-4.16.885-1.977,3.245-4.529,5.635-3.924a3.231,3.231,0,0,1,2.183,4.013A3.289,3.289,0,0,1,360.27,206.351Z" transform="translate(-263.807 -170.876)" fill="#b55b52"/>
        <path id="Path_50703" data-name="Path 50703" d="M360.907,186.36a5.65,5.65,0,0,1,4.868,3.216c.974,1.8,4.027,6.52,4.042,8.571,0,5.532.251,8.379-7.243,13.439a9.485,9.485,0,0,0,.177-7.922c-1.313-.531-2.714-.428-3.452-1.652s-.561-4.426.841-4.676c-2.478-.118-4.588-2.36-5.561-4.647a7.582,7.582,0,0,1-6.9-1.475,5.9,5.9,0,0,1-6.284,1.682,15.032,15.032,0,0,1,7.671-8.187,13.675,13.675,0,0,1,10.666.472Z" transform="translate(-269.209 -179.031)" fill="#263238"/>
        <path id="Path_50704" data-name="Path 50704" d="M397.17,208.06s1.328-1.8,2.006-.221c.354.826-5.488,10.326-5.488,10.326l-2.449-1.313Z" transform="translate(-245.52 -167.939)" fill="#b55b52"/>
        <path id="Path_50705" data-name="Path 50705" d="M344.33,400.376l20.785-1.136-.236,6.934-20.018.457Z" transform="translate(-267.812 -76.678)" fill="#0091ff"/>
      </g>
      <g id="freepik--character-1--inject-43" transform="translate(206.291 217.993)">
        <g id="freepik--freepik--Character--inject-282--inject-43" transform="translate(42.854)">
          <path id="Path_50706" data-name="Path 50706" d="M212.78,179.8a33.543,33.543,0,0,0,3.275,6.2,2.552,2.552,0,0,1-2.493,1.092Z" transform="translate(-148.034 -158.689)" fill="#df5753"/>
          <path id="Path_50707" data-name="Path 50707" d="M212.989,177.552c.679-.074,1.313.708,1.475,1.741s-.354,1.918-1.018,1.977-1.3-.693-1.475-1.726S212.325,177.625,212.989,177.552Z" transform="translate(-148.435 -159.76)" fill="#263238"/>
          <path id="Path_50708" data-name="Path 50708" d="M192.21,190.1c2.272,7.376,5.193,21.007.428,26.553,0,0,2.877,7.376,16.876,5.9,15.386-1.608,6.535-8.394,6.535-8.394-8.6-1.136-9.043-7.376-8.187-13.395Z" transform="translate(-157.809 -153.794)" fill="#e58a7b"/>
          <path id="Path_50709" data-name="Path 50709" d="M188.3,184.645c2.095,12.48,2.714,17.82,9.736,23.6,10.577,8.718,25.462,3.422,27.158-9.367,1.475-11.61-.31-27.837-13.188-31.554-9.146-2.7-20.564.325-23.264,9.471A17.214,17.214,0,0,0,188.3,184.645Z" transform="translate(-159.788 -165.068)" fill="#b55b52"/>
          <path id="Path_50710" data-name="Path 50710" d="M189.574,211.6h0a2.95,2.95,0,0,1,2.021-3.481c5.591-1.475,18.337-4.794,24.945-4.573,4.912.177,6.476,2.862,6.919,5.148a2.847,2.847,0,0,1-2.257,3.334h-.457l-28.265,1.652A2.95,2.95,0,0,1,189.574,211.6Z" transform="translate(-159.097 -147.411)" fill="#0091ff"/>
          <path id="Path_50711" data-name="Path 50711" d="M189.574,211.6h0a2.95,2.95,0,0,1,2.021-3.481c5.591-1.475,18.337-4.794,24.945-4.573,4.912.177,6.476,2.862,6.919,5.148a2.847,2.847,0,0,1-2.257,3.334h-.457l-28.265,1.652A2.95,2.95,0,0,1,189.574,211.6Z" transform="translate(-159.097 -147.411)" opacity="0.6"/>
          <path id="Path_50712" data-name="Path 50712" d="M192.166,220.766l-8.173,23.6,18.986,25.314-7.376,4.942s-21.494-17.245-26.642-27.173c-1.151-2.242,13.277-35.272,13.277-35.272Z" transform="translate(-168.887 -143.302)" fill="#b55b52"/>
          <path id="Path_50713" data-name="Path 50713" d="M188.687,241.529l-19.8-9.958s9.722-22.511,16.345-24.931C208.13,200.873,188.687,241.529,188.687,241.529Z" transform="translate(-168.89 -146.201)" fill="#0091ff"/>
          <path id="Path_50714" data-name="Path 50714" d="M194.381,251.16l9.5,5.4s3.526,9.353,1.667,10.149-8.7,3.113-8.7,3.113-4.1-5.679-5.9-7.022-3.953-6.7-3.953-6.7Z" transform="translate(-160.289 -124.779)" fill="#b55b52"/>
          <path id="Path_50715" data-name="Path 50715" d="M244.667,207.463s-2.862,14.309,1.947,77.241l-50.275-.177c-1.342-21.125-3.924-28.486-18.469-70.44a153.1,153.1,0,0,1,21.582-5.163,159.889,159.889,0,0,1,23.411-2.449C233.027,206.327,244.667,207.463,244.667,207.463Z" transform="translate(-164.623 -146.02)" fill="#0091ff"/>
          <path id="Path_50716" data-name="Path 50716" d="M233.69,186.98s0-2.051,1.372-1.239c.723.443,1.387,10.666,1.387,10.666l-2.537.325Z" transform="translate(-138.098 -155.956)" fill="#b55b52"/>
          <path id="Path_50717" data-name="Path 50717" d="M229.851,223.985l7.376,12.17a194.727,194.727,0,0,0,4-28.029s-1.475-3.526-3.363-8.851l.413-6.358a2.272,2.272,0,0,1,2.818-2.065l7.376,1.874a2.272,2.272,0,0,1,1.7,2.493l-1.741,12.819s3.186,43.238-6,45.082c-9.766,1.873-21.42-22.91-21.42-22.91Z" transform="translate(-144.128 -153.469)" fill="#b55b52"/>
          <path id="Path_50718" data-name="Path 50718" d="M226,232.65,215.67,214.49l3.968,17.7C222.058,239.376,226.114,236.574,226,232.65Z" transform="translate(-146.661 -142.204)" opacity="0.2"/>
          <path id="Path_50719" data-name="Path 50719" d="M236.082,214.714c4.868,10.326,6.314,11.993,6.314,11.993l-14.575,11.979s-17.584-24.591-15.873-31.436C213,203.089,224.546,194.371,236.082,214.714Z" transform="translate(-148.485 -148.241)" fill="#0091ff"/>
          <path id="Path_50720" data-name="Path 50720" d="M225.208,175.094a20.18,20.18,0,0,1-1.254,10.961c-2.375,5.237-1.947,14.929,1.593,19.428,2.847,3.614,7.745,4.853,11.049,8.069s5.281,7.878,3.29,12.495c-1.785,4.1-9.736,3.2-11.964,7.022-3.039,5.163-1.608,15.283-8.615,15.357-9.972.177-12.347-8.645-19.266-7.051s-17.422,4.189-20.181-6.476c-1.7-6.55,2.877-11.182,3.54-17.348.487-4.426-2.508-7.878-3.157-12.067a16.6,16.6,0,0,1,3.039-12.392c1.888-2.582,4.426-4.426,5.4-7.656.811-2.523,1.313-5.134,2.08-7.686a15.032,15.032,0,0,1,11.2-11.049C218.467,162.968,223.615,168.456,225.208,175.094Z" transform="translate(-163.855 -165.489)" fill="#263238"/>
          <path id="Path_50721" data-name="Path 50721" d="M206.719,182.874a12.628,12.628,0,0,0,2.685,6.55c1.977,2.4,3.894,1.21,4.116-1.608.192-2.493-.6-6.771-2.95-8.232S206.439,179.982,206.719,182.874Z" transform="translate(-150.928 -159.033)" fill="#b55b52"/>
          <path id="Path_50722" data-name="Path 50722" d="M220.08,170.621a4.676,4.676,0,0,1-1.844,6.063,7.715,7.715,0,0,1-8.409,7.848c1.933-.959,1.962-3.835.856-5.679-2.05-3.408-8.246-6.86-3.747-10.9C210.373,164.882,218.192,166.535,220.08,170.621Z" transform="translate(-151.572 -165.073)" fill="#263238"/>
        </g>
        <path id="Path_50723" data-name="Path 50723" d="M215.339,177.029a3.968,3.968,0,0,0-3.6.708h0l-.133.1a.516.516,0,0,1-.575-.841,5.016,5.016,0,0,1,4.455-.944.516.516,0,0,1,.162.929.56.56,0,0,1-.31.044Z" transform="translate(-106.086 -160.55)" fill="#263238"/>
        <path id="Path_50724" data-name="Path 50724" d="M208.913,259.394s-9.545,13.409-18.263,59.317c-11.492,48.49-39.24,147.519-39.24,147.519l19.635,4.308s40.494-115.316,51.13-150.071a405.43,405.43,0,0,1,25.152-61.117Z" transform="translate(-134.342 -120.887)" fill="#263238"/>
        <path id="Path_50725" data-name="Path 50725" d="M204.513,259.38s2.508,81.386,1.682,119.21c-3.717,36.3-2.714,79.233-1.814,92.775h18.853S236.51,349.854,240.33,314.6c3.7-33.929-5.9-55.039-5.9-55.039Z" transform="translate(-109.57 -120.873)" fill="#263238"/>
        <path id="Path_50726" data-name="Path 50726" d="M218.431,293.077h0c-1.092-.251-6.638-1.815-12.406-9.736-1.637-2.257-5.355-9.781-5.355-9.781a71.36,71.36,0,0,0,3.526,13.513C206.541,292.59,215.1,297.06,218.431,293.077Z" transform="translate(-110.934 -114.135)" opacity="0.3"/>
        <path id="Path_50727" data-name="Path 50727" d="M214.07,414.24a.236.236,0,0,1-.207-.221.221.221,0,0,1,.118-.265c.207-.089,4.1-2.3,5.9-1.8a1.3,1.3,0,0,1,.856.62,1,1,0,0,1,0,1.136c-.472.664-1.785.856-3.275.856a20.658,20.658,0,0,1-3.393-.325Zm5.207-1.873a12.154,12.154,0,0,0-4.426,1.475c2.065.28,4.883.266,5.4-.443.118-.1.177-.251,0-.575a.723.723,0,0,0-.516-.384h-.5Z" transform="translate(-104.67 -48.406)" fill="#0091ff"/>
        <path id="Path_50728" data-name="Path 50728" d="M213.938,415.046a.266.266,0,0,1-.118-.236c0-.133.251-3.113,1.741-4.293a1.888,1.888,0,0,1,1.475-.443c.723.074.974.443.974.738.207,1.3-2.449,3.658-3.806,4.263h-.118A.192.192,0,0,1,213.938,415.046Zm2.95-4.426a1.386,1.386,0,0,0-.929.384,6.24,6.24,0,0,0-1.475,3.437c1.387-.826,3.186-2.714,3.068-3.481,0,0,0-.3-.531-.3h-.148Z" transform="translate(-104.686 -49.272)" fill="#0091ff"/>
        <path id="Path_50729" data-name="Path 50729" d="M206.841,400.275l11.123-1.475-1.121,21.361H205.72Z" transform="translate(-108.535 -54.622)" fill="#b55b52"/>
        <path id="Path_50730" data-name="Path 50730" d="M220.792,413.261c7.523,4.647,9.84,4.853,18.558,6.756,1.9.413.634,5.045-3.924,5.045-7.553,0-8.35-.369-14.752-.369-5.517,0-11.8.265-16.227.339a1.865,1.865,0,0,1-.413,0,1.608,1.608,0,0,1-1.18-1.933l2.183-9.9a.974.974,0,0,1,.944-.752h12.17A5.118,5.118,0,0,1,220.792,413.261Z" transform="translate(-109.917 -48.136)" fill="#263238"/>
        <path id="Path_50731" data-name="Path 50731" d="M206.655,399.81l-.575,8.689h11.152l.561-8.689Z" transform="translate(-108.363 -54.142)" opacity="0.2"/>
        <path id="Path_50732" data-name="Path 50732" d="M202.22,398.831l.634,6.978h22.924s1.151-7.818,1.062-7.818Z" transform="translate(-110.198 -55.007)" fill="#0091ff"/>
        <path id="Path_50733" data-name="Path 50733" d="M151.749,415.593a.236.236,0,0,1-.207.207.221.221,0,0,1-.266-.133c-.1-.192-2.3-4.1-1.77-5.9a1.328,1.328,0,0,1,.6-.826,1,1,0,0,1,1.165,0c.634.472.811,1.8.811,3.275a20.389,20.389,0,0,1-.339,3.378Zm-1.814-5.207a12.036,12.036,0,0,0,1.357,4.426c.31-2.065.31-4.883-.4-5.4-.089-.118-.266-.177-.59,0a.752.752,0,0,0-.369.516,1.475,1.475,0,0,0,0,.5Z" transform="translate(-135.286 -49.892)" fill="#0091ff"/>
        <path id="Path_50734" data-name="Path 50734" d="M152.6,414.779a.207.207,0,0,1-.236.1c-.118,0-3.127-.266-4.263-1.741a1.962,1.962,0,0,1-.457-1.475c.074-.723.457-.974.752-.974,1.254-.192,3.644,2.493,4.234,3.821v.1a.236.236,0,0,1-.029.162Zm-4.426-2.95a1.475,1.475,0,0,0,.369.915,6.152,6.152,0,0,0,3.422,1.475c-.826-1.387-2.7-3.2-3.452-3.083,0,0-.3,0-.3.516v.162Z" transform="translate(-136.137 -48.975)" fill="#0091ff"/>
        <path id="Path_50735" data-name="Path 50735" d="M155.96,398.91l10.843.826-5,21.316-10.872-.782Z" transform="translate(-134.57 -54.57)" fill="#b55b52"/>
        <path id="Path_50736" data-name="Path 50736" d="M155.138,398.5l-2.2,9.382,10.857.782,2.213-9.412Z" transform="translate(-133.615 -54.764)" opacity="0.2"/>
        <path id="Path_50737" data-name="Path 50737" d="M153.574,413.134c-2.95,3.467-4.426,5.252-12.982,7.922-1.874.575-.192,5.075,4.426,4.676,7.523-.679,3.378-.664,9.781-1.224,5.488-.487,11.8-.782,16.227-1.106a1.474,1.474,0,0,0,.443-.074,1.623,1.623,0,0,0,1.047-2.036l-3.068-9.662a.959.959,0,0,0-1-.679l-12.111,1.077A3.776,3.776,0,0,0,153.574,413.134Z" transform="translate(-139.84 -48.85)" fill="#263238"/>
        <path id="Path_50738" data-name="Path 50738" d="M149.853,397.15l-.1,7.022,23.6,2.523s2.021-7.656,1.932-7.656Z" transform="translate(-135.131 -55.406)" fill="#0091ff"/>
      </g>
      <g id="freepik--lamp-1--inject-43" transform="translate(78.569 216.703)">
        <path id="Path_50739" data-name="Path 50739" d="M89.74,194.936l-6.535-.044-1.785-2.3,10.149.059Z" transform="translate(-39.879 -151.321)" fill="#0091ff"/>
        <path id="Path_50740" data-name="Path 50740" d="M89.74,194.936l-6.535-.044-1.785-2.3,10.149.059Z" transform="translate(-39.879 -151.321)" fill="#fff" opacity="0.5"/>
        <path id="Path_50741" data-name="Path 50741" d="M103.835,178.888a13.66,13.66,0,0,1-4.853,10.326,8.94,8.94,0,0,0-3.3,6.756v1.047l-12.465-.088v-1.047a9,9,0,0,0-3.2-6.786A13.6,13.6,0,0,1,75.29,178.77a14.266,14.266,0,1,1,28.53.221Z" transform="translate(-42.792 -164.615)" fill="#0091ff"/>
        <path id="Path_50742" data-name="Path 50742" d="M103.835,178.888a13.66,13.66,0,0,1-4.853,10.326,8.94,8.94,0,0,0-3.3,6.756v1.047l-12.465-.088v-1.047a9,9,0,0,0-3.2-6.786A13.6,13.6,0,0,1,75.29,178.77a14.266,14.266,0,1,1,28.53.221Z" transform="translate(-42.792 -164.615)" fill="#fff" opacity="0.5"/>
        <path id="Path_50743" data-name="Path 50743" d="M84.275,190.3,82,179.011a.325.325,0,0,1,.28-.4h0a.325.325,0,0,1,.4.266l2.272,11.285Z" transform="translate(-39.606 -157.967)" fill="#0091ff"/>
        <path id="Path_50744" data-name="Path 50744" d="M86.5,190.306l-.693-.133,2.464-11.256a.354.354,0,0,1,.413-.266h0a.339.339,0,0,1,.266.413Z" transform="translate(-37.793 -157.947)" fill="#0091ff"/>
        <path id="Path_50745" data-name="Path 50745" d="M87.653,183.314l-1.4-2.478-1.416,2.449L82.21,180.32l.531-.443,1.977,2.242,1.549-2.7,1.519,2.714,2.006-2.213.531.457Z" transform="translate(-39.503 -157.579)" fill="#0091ff"/>
        <path id="Path_50746" data-name="Path 50746" d="M94.438,188.247a1.578,1.578,0,0,1-1.593,1.475H91.237a1.477,1.477,0,0,1-.369,0H81.574a1.534,1.534,0,1,1,0-3.068h1.652a1.149,1.149,0,0,1,.325,0h9.294a1.564,1.564,0,0,1,1.593,1.593Z" transform="translate(-40.534 -154.147)" fill="#0091ff"/>
        <path id="Path_50747" data-name="Path 50747" d="M93.725,190.219a1.475,1.475,0,0,1-1.475,1.475H90.775a1.211,1.211,0,0,1-.325,0H81.806a1.513,1.513,0,0,1,0-3.024H92.221a1.475,1.475,0,0,1,1.5,1.549Z" transform="translate(-40.397 -153.184)" fill="#0091ff"/>
        <path id="Path_50748" data-name="Path 50748" d="M93,192.243a1.475,1.475,0,0,1-1.357,1.475h-1.7l-8-.074a1.522,1.522,0,0,1-.015-3.024h9.751A1.475,1.475,0,0,1,93,192.243Z" transform="translate(-40.274 -152.257)" fill="#0091ff"/>
        <path id="Path_50749" data-name="Path 50749" d="M81.22,193.551v-.841l10.68.059v.826Z" transform="translate(-39.974 -151.264)" fill="#0091ff"/>
        <rect id="Rectangle_4896" data-name="Rectangle 4896" width="12.451" height="0.841" transform="translate(40.42 31.857)" fill="#0091ff"/>
        <g id="Group_4710" data-name="Group 4710" transform="translate(33.929 2.203)" opacity="0.4">
          <path id="Path_50750" data-name="Path 50750" d="M76.482,175.567a4.736,4.736,0,0,0-.162,2.183h0a.944.944,0,0,0,1.785.074,9.663,9.663,0,0,1,6.181-5.724c2.169-.649,4.839-.723,5.517-3.334a2.434,2.434,0,0,0-.162-1.4h0C87.855,163.706,78.222,168.516,76.482,175.567Z" transform="translate(-76.259 -166.108)" fill="#fff"/>
        </g>
        <path id="Path_50751" data-name="Path 50751" d="M86.447,168.053a2.021,2.021,0,0,0,.575,2.065,2.773,2.773,0,0,0,1.741.531,2.227,2.227,0,0,0,1.785-.531,1.918,1.918,0,0,0,0-2.124C89.559,165.884,87.111,165.427,86.447,168.053Z" transform="translate(-37.529 -163.84)" fill="#fff" opacity="0.4"/>
        <path id="Path_50752" data-name="Path 50752" d="M91.489,196.56v3.865a41.491,41.491,0,0,1-4.927.3,42.123,42.123,0,0,1-4.942-.3V196.56Z" transform="translate(-39.784 -149.435)" fill="#263238"/>
        <line id="Line_374" data-name="Line 374" y1="275.595" transform="translate(46.778 88.269)" fill="none" stroke="#263238" stroke-linecap="round" stroke-linejoin="round" stroke-width="4"/>
        <path id="Path_50753" data-name="Path 50753" d="M139.649,172.19a40.1,40.1,0,0,1-25.078,36.88A17.864,17.864,0,0,0,103.2,225.415v23.9h-9.84v-23.9A17.864,17.864,0,0,0,82,209.07,40.11,40.11,0,0,1,56.92,172.19Z" transform="translate(-51.521 -161.015)" fill="#0091ff"/>
        <path id="Path_50754" data-name="Path 50754" d="M53.747,414l.31.251-.8-.118Z" transform="translate(-53.26 -46.109)" fill="#0091ff"/>
        <path id="Path_50755" data-name="Path 50755" d="M117.252,414.143l-.782.1a2.577,2.577,0,0,0,.3-.236Z" transform="translate(-23.223 -46.104)" fill="#0091ff"/>
        <path id="Path_50756" data-name="Path 50756" d="M147.284,417.068a1.283,1.283,0,0,1-.487.915,2.568,2.568,0,0,1-.295.236c-4.013,2.95-23.19,5.222-46.232,5.222s-42.161-2.242-46.2-5.207l-.31-.251a1.283,1.283,0,0,1-.487-.915c0-1.593,4.249-3.039,11.27-4.16a239.354,239.354,0,0,0,29.637-6.742l1.814-.516H104.4l1.932.546a233.179,233.179,0,0,0,29.356,6.624C142.858,413.985,147.284,415.445,147.284,417.068Z" transform="translate(-53.255 -50.077)" fill="#263238"/>
      </g>
      <g id="freepik--light-bulb--inject-43" transform="translate(315.086 67.76)">
        <path id="Path_50757" data-name="Path 50757" d="M276.326,193.436l-20.815-7.081-3.231-9.515,32.4,10.99Z" transform="translate(-195.205 -9.863)" fill="#0091ff"/>
        <path id="Path_50758" data-name="Path 50758" d="M276.326,193.436l-20.815-7.081-3.231-9.515,32.4,10.99Z" transform="translate(-195.205 -9.863)" fill="#fff" opacity="0.5"/>
        <path id="Path_50759" data-name="Path 50759" d="M344.745,151.054a48.047,48.047,0,0,1-26.775,28.707,31.54,31.54,0,0,0-17.938,18.764l-1.18,3.452-39.727-13.5,1.165-3.452a31.554,31.554,0,0,0-2.788-25.772,48.077,48.077,0,1,1,87.243-8.2Z" transform="translate(-195.721 -52.378)" fill="#0091ff"/>
        <path id="Path_50760" data-name="Path 50760" d="M344.745,151.054a48.047,48.047,0,0,1-26.775,28.707,31.54,31.54,0,0,0-17.938,18.764l-1.18,3.452-39.727-13.5,1.165-3.452a31.554,31.554,0,0,0-2.788-25.772,48.077,48.077,0,1,1,87.243-8.2Z" transform="translate(-195.721 -52.378)" fill="#fff" opacity="0.5"/>
        <circle id="Ellipse_719" data-name="Ellipse 719" cx="30.536" cy="30.536" r="30.536" transform="matrix(0.479, -0.878, 0.878, 0.479, 55.72, 113.807)" fill="#fff" opacity="0.4"/>
        <path id="Path_50761" data-name="Path 50761" d="M265.73,172.219l5.016-39.653a1.2,1.2,0,0,1,1.328-1.033h0a1.18,1.18,0,0,1,1.018,1.328l-5.016,39.653Z" transform="translate(-188.814 -31.397)" fill="#0091ff"/>
        <path id="Path_50762" data-name="Path 50762" d="M275.1,173.788l-2.036-1.18,20.166-34.519a1.18,1.18,0,0,1,1.608-.428h0a1.166,1.166,0,0,1,.428,1.623Z" transform="translate(-185.33 -28.556)" fill="#0091ff"/>
        <path id="Path_50763" data-name="Path 50763" d="M282.7,152.2l-1.726-9.662-7.273,6.594L268.57,136.56l2.183-.9,3.865,9.456,7.922-7.214,1.9,10.548,8.807-5.148,1.195,2.036Z" transform="translate(-187.464 -29.431)" fill="#0091ff"/>
        <path id="Path_50764" data-name="Path 50764" d="M299.368,175.838a5.34,5.34,0,0,1-6.756,3.334l-5.134-1.726a4.794,4.794,0,0,1-1.195-.251l-29.666-10.017a5.328,5.328,0,1,1,3.29-10.135h.118l5.134,1.726a4.664,4.664,0,0,1,1.077.221h.118l29.666,10.017a5.34,5.34,0,0,1,3.349,6.83Z" transform="translate(-194.895 -19.394)" fill="#0091ff"/>
        <path id="Path_50765" data-name="Path 50765" d="M294.9,181.693a5.119,5.119,0,0,1-6.388,3.437l-4.78-1.608a4.752,4.752,0,0,1-1.107-.221l-27.557-9.368a5.34,5.34,0,0,1,3.275-10.135h.118l4.765,1.623a4.942,4.942,0,0,1,1.018.192h.1l27.6,9.426A5.178,5.178,0,0,1,294.9,181.693Z" transform="translate(-195.458 -16.132)" fill="#0091ff"/>
        <path id="Path_50766" data-name="Path 50766" d="M290.432,187.544a4.971,4.971,0,0,1-6.019,3.57l-4.426-1.475a3.646,3.646,0,0,1-1.033-.192l-25.477-8.7a5.045,5.045,0,0,1-2.655-6.55,4.986,4.986,0,0,1,5.9-3.585h.1l4.426,1.475a4.087,4.087,0,0,1,.944.162h.1l25.477,8.718a5.045,5.045,0,0,1,2.655,6.579Z" transform="translate(-196.079 -12.881)" fill="#0091ff"/>
        <path id="Path_50767" data-name="Path 50767" d="M250.9,179.809l.915-2.759,34.077,11.492-.915,2.759Z" transform="translate(-195.861 -9.763)" fill="#0091ff"/>
        <rect id="Rectangle_4897" data-name="Rectangle 4897" width="2.891" height="41.969" transform="translate(62.954 137.48) rotate(-71.58)" fill="#0091ff"/>
        <g id="Group_4711" data-name="Group 4711" transform="translate(62.967 40.691)" opacity="0.4">
          <path id="Path_50768" data-name="Path 50768" d="M259.233,112.014a17.038,17.038,0,0,0-2.95,6.86h0a3.127,3.127,0,0,0,5.591,2.154,33.118,33.118,0,0,1,26.067-12.333c7.612.162,16.227,2.759,21.257-5.119a8.35,8.35,0,0,0,1.033-4.78v-.1C308.564,84.988,272.51,90.594,259.233,112.014Z" transform="translate(-256.274 -91.234)" fill="#fff"/>
        </g>
        <path id="Path_50769" data-name="Path 50769" d="M296.189,100.68a7.376,7.376,0,0,0-.413,7.376,9.427,9.427,0,0,0,4.986,3.585,7.583,7.583,0,0,0,6.27.148c2.272-1.3,2.95-4.337,2.552-6.933C308.507,96.9,301.2,92.7,296.189,100.68Z" transform="translate(-174.914 -48.089)" fill="#fff" opacity="0.4"/>
        <path id="Path_50770" data-name="Path 50770" d="M255.63,63.65,272.4,87.12" transform="translate(-193.613 -63.65)" fill="#fff" stroke="#0091ff" stroke-miterlimit="10" stroke-width="1.5"/>
        <path id="Path_50771" data-name="Path 50771" d="M213.59,88.17,253.228,107.1" transform="translate(-213.59 -51.998)" fill="#fff" stroke="#0091ff" stroke-miterlimit="10" stroke-width="1.5"/>
        <path id="Path_50772" data-name="Path 50772" d="M216.61,136.06l29.637.988" transform="translate(-212.155 -29.241)" fill="#fff" stroke="#0091ff" stroke-miterlimit="10" stroke-width="1.5"/>
        <path id="Path_50773" data-name="Path 50773" d="M347.11,91.77,319.48,100.1" transform="translate(-163.272 -50.288)" fill="#fff" stroke="#0091ff" stroke-miterlimit="10" stroke-width="1.5"/>
        <path id="Path_50774" data-name="Path 50774" d="M370.388,139.806,327.43,130.63" transform="translate(-159.494 -31.822)" fill="#fff" stroke="#0091ff" stroke-miterlimit="10" stroke-width="1.5"/>
        <path id="Path_50775" data-name="Path 50775" d="M332.7,178.514l-24.075-17.3" transform="translate(-168.433 -17.29)" fill="#fff" stroke="#0091ff" stroke-miterlimit="10" stroke-width="1.5"/>
      </g>
      <g id="freepik--lamp-2--inject-43" transform="translate(562.889 55.295)">
        <path id="Path_50776" data-name="Path 50776" d="M400.543,113.7l4.662.03,1.283,1.7-7.258-.044Z" transform="translate(-373.178 -27.401)" fill="#0091ff"/>
        <path id="Path_50777" data-name="Path 50777" d="M400.543,113.7l4.662.03,1.283,1.7-7.258-.044Z" transform="translate(-373.178 -27.401)" fill="#fff" opacity="0.5"/>
        <path id="Path_50778" data-name="Path 50778" d="M394.7,132.651a10.193,10.193,0,0,1,3.467-7.568,6.727,6.727,0,0,0,2.36-4.971v-.782h8.851v.782a6.682,6.682,0,0,0,2.286,5,10.194,10.194,0,0,1-7.376,17.7,10.326,10.326,0,0,1-9.589-10.164Z" transform="translate(-375.331 -24.726)" fill="#0091ff"/>
        <path id="Path_50779" data-name="Path 50779" d="M394.7,132.651a10.193,10.193,0,0,1,3.467-7.568,6.727,6.727,0,0,0,2.36-4.971v-.782h8.851v.782a6.682,6.682,0,0,0,2.286,5,10.194,10.194,0,0,1-7.376,17.7,10.326,10.326,0,0,1-9.589-10.164Z" transform="translate(-375.331 -24.726)" fill="#fff" opacity="0.5"/>
        <path id="Path_50780" data-name="Path 50780" d="M402.787,119.34l1.637,8.32a.251.251,0,0,1-.192.3h0a.251.251,0,0,1-.28-.207l-1.652-8.32Z" transform="translate(-371.719 -24.721)" fill="#0091ff"/>
        <path id="Path_50781" data-name="Path 50781" d="M401.233,119.32l.5.1L399.98,127.7a.251.251,0,0,1-.3.192h0a.236.236,0,0,1-.192-.3Z" transform="translate(-373.057 -24.731)" fill="#0091ff"/>
        <path id="Path_50782" data-name="Path 50782" d="M401.553,122.63l1,1.829,1.018-1.814,1.874,2.2-.384.325-1.4-1.652-1.121,1.992-1.077-2.006-1.431,1.623-.384-.325Z" transform="translate(-372.979 -23.158)" fill="#0091ff"/>
        <path id="Path_50783" data-name="Path 50783" d="M398.16,118.815a1.136,1.136,0,0,1,1.136-1.121h1.151a.694.694,0,0,1,.251,0h6.638a1.136,1.136,0,0,1,0,2.257H399.3a1.121,1.121,0,0,1-1.136-1.136Z" transform="translate(-373.687 -25.509)" fill="#0091ff"/>
        <path id="Path_50784" data-name="Path 50784" d="M398.441,117.365a1.092,1.092,0,0,1,1.047-1.121h1.077a.6.6,0,0,1,.236,0h6.181a1.136,1.136,0,1,1,0,2.272H399.5a1.077,1.077,0,0,1-1.062-1.151Z" transform="translate(-373.554 -26.198)" fill="#0091ff"/>
        <path id="Path_50785" data-name="Path 50785" d="M398.711,115.875a1.077,1.077,0,0,1,.974-1.121h.929a.575.575,0,0,1,.221,0h5.724a1.062,1.062,0,0,1,.959,1.136,1.047,1.047,0,0,1-.944,1.121h-6.919a1.077,1.077,0,0,1-.944-1.136Z" transform="translate(-373.426 -26.906)" fill="#0091ff"/>
        <path id="Path_50786" data-name="Path 50786" d="M406.747,114.37v.62l-7.627-.044v-.6Z" transform="translate(-373.23 -27.097)" fill="#0091ff"/>
        <rect id="Rectangle_4898" data-name="Rectangle 4898" width="8.91" height="0.62" transform="translate(25.196 94.353)" fill="#0091ff"/>
        <g id="Group_4712" data-name="Group 4712" transform="translate(29.057 107.811)" opacity="0.4">
          <path id="Path_50787" data-name="Path 50787" d="M410.786,130.329a3.6,3.6,0,0,0,.133-1.578h0a.664.664,0,0,0-1.269,0,6.992,6.992,0,0,1-4.426,4.219c-1.475.487-3.452.546-3.924,2.464a1.784,1.784,0,0,0,.1,1.033h0C402.673,139.062,409.547,135.522,410.786,130.329Z" transform="translate(-401.267 -128.283)" fill="#fff"/>
        </g>
        <path id="Path_50788" data-name="Path 50788" d="M401.583,133.993a1.475,1.475,0,0,0-.413-1.475,2.021,2.021,0,0,0-1.239-.384,1.593,1.593,0,0,0-1.269.384,1.475,1.475,0,0,0,0,1.564C399.356,135.572,401.111,135.926,401.583,133.993Z" transform="translate(-373.554 -18.648)" fill="#fff" opacity="0.4"/>
        <rect id="Rectangle_4899" data-name="Rectangle 4899" width="7.051" height="30.33" transform="translate(26.037 50.702)" fill="#263238"/>
        <line id="Line_375" data-name="Line 375" y2="50.702" transform="translate(29.563)" fill="none" stroke="#263238" stroke-linecap="round" stroke-linejoin="round" stroke-width="1"/>
        <line id="Line_376" data-name="Line 376" x2="7.155" transform="translate(26.022 73.391)" fill="none" stroke="#fff" stroke-linecap="round" stroke-linejoin="round" stroke-width="1"/>
        <path id="Path_50789" data-name="Path 50789" d="M381.57,137.633a29.563,29.563,0,1,1,59.126,0Z" transform="translate(-381.57 -30.077)" fill="#263238"/>
      </g>
    </g>
  </g>
</svg>
