<svg xmlns="http://www.w3.org/2000/svg" width="751" height="751" viewBox="0 0 751 751">
  <g id="Group_4736" data-name="Group 4736" transform="translate(15995 -2312)">
    <rect id="Rectangle_4923" data-name="Rectangle 4923" width="751" height="751" transform="translate(-15995 2312)" fill="#fff" opacity="0"/>
    <g id="Business_solution-rafiki" data-name="Business solution-rafiki" transform="translate(-16054.767 2305.973)">
      <g id="freepik--background-complete--inject-1" transform="translate(59.767 55)">
        <rect id="Rectangle_4926" data-name="Rectangle 4926" width="684.944" height="0.438" transform="translate(28.771 573.894)" fill="#ebebeb"/>
        <rect id="Rectangle_4927" data-name="Rectangle 4927" width="58.055" height="0.438" transform="translate(663.589 602.097)" fill="#ebebeb"/>
        <rect id="Rectangle_4928" data-name="Rectangle 4928" width="15.233" height="0.438" transform="translate(498.379 606.865)" fill="#ebebeb"/>
        <rect id="Rectangle_4929" data-name="Rectangle 4929" width="33.638" height="0.438" transform="translate(628.198 585.831)" fill="#ebebeb"/>
        <rect id="Rectangle_4930" data-name="Rectangle 4930" width="75.707" height="0.438" transform="translate(24.979 588.776)" fill="#ebebeb"/>
        <rect id="Rectangle_4931" data-name="Rectangle 4931" width="11.096" height="0.438" transform="translate(116.304 588.776)" fill="#ebebeb"/>
        <rect id="Rectangle_4932" data-name="Rectangle 4932" width="164.21" height="0.438" transform="translate(163.474 596.173)" fill="#ebebeb"/>
        <path id="Path_51116" data-name="Path 51116" d="M386.665,550.715H48.2a10.009,10.009,0,0,1-9.991-10.009V64.921A10.009,10.009,0,0,1,48.2,55H386.665a10.009,10.009,0,0,1,10.009,10.009v475.7A10.009,10.009,0,0,1,386.665,550.715ZM48.2,55.351a9.571,9.571,0,0,0-9.553,9.571V540.706a9.571,9.571,0,0,0,9.553,9.571H386.665a9.588,9.588,0,0,0,9.571-9.571V64.921a9.588,9.588,0,0,0-9.571-9.571Z" transform="translate(-38.21 -55)" fill="#ebebeb"/>
        <path id="Path_51117" data-name="Path 51117" d="M602.991,550.715H264.509A10.027,10.027,0,0,1,254.5,540.706V64.921A10.026,10.026,0,0,1,264.509,55H602.991a10.009,10.009,0,0,1,9.974,9.921V540.706A10.009,10.009,0,0,1,602.991,550.715ZM264.509,55.351a9.588,9.588,0,0,0-9.571,9.571V540.706a9.588,9.588,0,0,0,9.571,9.571H602.991a9.588,9.588,0,0,0,9.571-9.571V64.921a9.588,9.588,0,0,0-9.571-9.571Z" transform="translate(124.631 -55)" fill="#ebebeb"/>
        <path id="Path_51118" data-name="Path 51118" d="M344.285,205.345a106.049,106.049,0,0,0-15.268-36.723l13.147-15.881-28.046-28.046-15.881,13.129a106.347,106.347,0,0,0-36.723-15.25L259.586,102.1H219.778l-1.928,20.474a106.12,106.12,0,0,0-36.705,15.25l-15.881-13.112-28.046,28.046,13.147,15.881a106.383,106.383,0,0,0-15.338,36.705l-20.456,1.928v39.755l20.456,1.928a106.294,106.294,0,0,0,15.355,36.758L137.235,301.6l28.046,28.046L181.162,316.5a106.155,106.155,0,0,0,36.705,15.268l1.928,20.456h39.755l1.928-20.456A106.384,106.384,0,0,0,298.2,316.5l15.881,13.147L342.129,301.6l-13.147-15.881a105.961,105.961,0,0,0,15.268-36.705l20.474-1.928V207.326Zm-50.834,21.806a291.589,291.589,0,1,0,.018.053Z" transform="translate(19.28 -19.539)" fill="#f0f0f0"/>
        <path id="Path_51119" data-name="Path 51119" d="M342.515,340.721l1.385,14.707h28.572l1.385-14.689a76.567,76.567,0,0,0,26.293-10.973l11.5,9.448,20.193-20.193-9.448-11.359a76.567,76.567,0,0,0,10.973-26.381l14.689-1.385V251.324l-14.689-1.385a76.564,76.564,0,0,0-10.973-26.293l9.448-11.411-20.193-20.263-11.411,9.448a76.566,76.566,0,0,0-26.293-10.973l-1.385-14.707H343.987L342.6,190.447a76.566,76.566,0,0,0-26.381,10.973l-11.5-9.448-20.193,20.193,9.5,11.359a76.567,76.567,0,0,0-10.973,26.293L268.35,251.2v28.572l14.707,1.385a76.566,76.566,0,0,0,10.973,26.5l-9.448,11.411,20.141,20.141,11.411-9.448A76.2,76.2,0,0,0,342.515,340.721Zm15.671-36.565a38.669,38.669,0,1,1,38.669-38.563,38.669,38.669,0,0,1-38.669,38.563Z" transform="translate(135.058 35.903)" fill="#f0f0f0"/>
        <path id="Path_51120" data-name="Path 51120" d="M262.808,475.942h34.006l1.648-17.529a91.151,91.151,0,0,0,31.412-13.059l13.585,11.236,24.032-24.032-11.236-13.585a91.15,91.15,0,0,0,13.059-31.412l17.529-1.648V351.908l-17.529-1.648a90.941,90.941,0,0,0-13.059-31.412l11.236-13.585-24.032-24.05-13.585,11.254a90.746,90.746,0,0,0-31.412-13.059l-1.648-17.529H262.808l-1.648,17.529a90.746,90.746,0,0,0-31.412,13.059l-13.585-11.254-24.05,24.05,11.253,13.585a90.94,90.94,0,0,0-13.059,31.412l-17.529,1.648v34.006l17.529,1.648a90.851,90.851,0,0,0,13.059,31.394l-11.253,13.6,24.05,24.032,13.585-11.236a91.151,91.151,0,0,0,31.412,13.059Zm17-60.965a46,46,0,1,0,0-.07Z" transform="translate(63.105 100.756)" fill="#f0f0f0"/>
        <path id="Path_51121" data-name="Path 51121" d="M337.281,151.239a14.023,14.023,0,1,1-19.106-5.118A14.023,14.023,0,0,1,337.281,151.239Z" transform="translate(167.268 12.2)" fill="#f0f0f0"/>
        <path id="Path_51122" data-name="Path 51122" d="M317.217,152.524c.421.754,1.3.719,2.349.456l-1.6-2.77C316.989,151.016,316.814,151.84,317.217,152.524Z" transform="translate(171.697 16.682)" fill="#e0e0e0"/>
        <path id="Path_51123" data-name="Path 51123" d="M319.93,152.7l1.6,2.77c1.034-.841,1.209-1.648.824-2.314S321.017,152.416,319.93,152.7Z" transform="translate(173.892 18.437)" fill="#e0e0e0"/>
        <path id="Path_51124" data-name="Path 51124" d="M318.3,147.018a11.937,11.937,0,1,0,9.068-1.193A11.955,11.955,0,0,0,318.3,147.018Zm9.939,15.5,1,1.753-1.28.736-1-1.753a7.765,7.765,0,0,1-4.557.911l-.123-1.946a6.8,6.8,0,0,0,3.8-.614l-1.753-3.1c-1.963.578-4.154,1.087-5.4-1.087-.911-1.6-.561-3.646,1.753-5.259L319.67,150.4l1.28-.736,1,1.753a7.905,7.905,0,0,1,3.716-.876l.263,1.946a7.24,7.24,0,0,0-3.015.613l1.753,3.155c1.963-.578,4.172-1.122,5.416,1.034.841,1.525.456,3.576-1.841,5.224Z" transform="translate(168.157 13.073)" fill="#e0e0e0"/>
        <circle id="Ellipse_723" data-name="Ellipse 723" cx="22.77" cy="22.77" r="22.77" transform="translate(89.781 525.686) rotate(-50.57)" fill="#f0f0f0"/>
        <path id="Path_51125" data-name="Path 51125" d="M106.415,350.635c-.438,1.332.561,2.331,2.033,3.33l1.6-4.961C107.957,348.671,106.8,349.408,106.415,350.635Z" transform="translate(13.062 166.29)" fill="#e0e0e0"/>
        <path id="Path_51126" data-name="Path 51126" d="M108.788,354.48l-1.578,4.926c2.139.351,3.3-.316,3.681-1.525S110.348,355.479,108.788,354.48Z" transform="translate(13.739 170.473)" fill="#e0e0e0"/>
        <path id="Path_51127" data-name="Path 51127" d="M122.015,342.932a19.439,19.439,0,1,0,12.568,24.435,19.439,19.439,0,0,0-12.568-24.435ZM114.2,371.8l-1,3.12-2.279-.736.982-3.085a12.866,12.866,0,0,1-6.082-4.5l2.156-2.419a11.289,11.289,0,0,0,4.891,3.909l1.753-5.574c-2.857-1.753-5.855-3.821-4.61-7.7.911-2.857,3.769-4.663,8.256-3.7l1.017-3.155,2.3.736-1,3.1a12.516,12.516,0,0,1,5.118,3.506l-2.051,2.454a11.972,11.972,0,0,0-4.032-2.945l-1.753,5.627c2.857,1.753,5.907,3.8,4.663,7.678C121.595,371.031,118.72,372.8,114.2,371.8Z" transform="translate(5.77 161.074)" fill="#e0e0e0"/>
        <circle id="Ellipse_724" data-name="Ellipse 724" cx="22.77" cy="22.77" r="22.77" transform="translate(628.805 384.376) rotate(-18.12)" fill="#f0f0f0"/>
        <path id="Path_51128" data-name="Path 51128" d="M410.13,283.094c.719,1.209,2.138,1.122,3.856.684L411.3,279.29C409.762,280.64,409.534,281.989,410.13,283.094Z" transform="translate(241.574 113.864)" fill="#e0e0e0"/>
        <path id="Path_51129" data-name="Path 51129" d="M414.63,283.312l2.647,4.452c1.753-1.385,1.946-2.7,1.3-3.786S416.383,282.839,414.63,283.312Z" transform="translate(245.19 116.678)" fill="#e0e0e0"/>
        <path id="Path_51130" data-name="Path 51130" d="M411.723,274.177a19.439,19.439,0,1,0,26.661,6.749A19.439,19.439,0,0,0,411.723,274.177Zm16.53,25L429.918,302l-2.051,1.227-1.665-2.787a12.883,12.883,0,0,1-7.415,1.578l-.386-3.208a11.306,11.306,0,0,0,6.17-1.087l-3-5.031c-3.19.982-6.731,1.858-8.764-1.648-1.525-2.559-1-5.907,2.7-8.624l-1.753-2.84,2.068-1.227,1.665,2.787a12.481,12.481,0,0,1,6.012-1.507l.491,3.155a12.131,12.131,0,0,0-4.891,1.069l3.032,5.083c3.208-.982,6.766-1.928,8.852,1.578,1.525,2.612.964,5.96-2.734,8.712Z" transform="translate(235.861 107.951)" fill="#e0e0e0"/>
        <path id="Path_51131" data-name="Path 51131" d="M305.473,133.858a22.787,22.787,0,1,1-4.522-31.9,22.787,22.787,0,0,1,4.522,31.9Z" transform="translate(132.134 -23.093)" fill="#f0f0f0"/>
        <path id="Path_51132" data-name="Path 51132" d="M277.409,107.331c-.841,1.122-.228,2.4.824,3.821l3.138-4.172C279.513,105.982,278.181,106.3,277.409,107.331Z" transform="translate(141.582 -16.322)" fill="#e0e0e0"/>
        <path id="Path_51133" data-name="Path 51133" d="M278.713,111.82l-3.1,4.137c1.893,1.034,3.225.771,3.979-.228S279.8,113.257,278.713,111.82Z" transform="translate(140.524 -12.221)" fill="#e0e0e0"/>
        <path id="Path_51134" data-name="Path 51134" d="M297.507,103.186a19.439,19.439,0,1,0,3.856,27.222A19.439,19.439,0,0,0,297.507,103.186Zm-16.88,24.751-1.963,2.629-1.928-1.437,1.963-2.612a12.744,12.744,0,0,1-4.277-6.24l2.822-1.578a11.412,11.412,0,0,0,3.348,5.259l3.506-4.68c-2.121-2.577-4.277-5.522-1.753-8.764,1.753-2.384,5.083-3.155,9.01-.771l1.981-2.647,1.928,1.455-1.963,2.594a12.551,12.551,0,0,1,3.681,5l-2.735,1.648a12.269,12.269,0,0,0-2.84-4.119L287.9,118.4c2.121,2.577,4.33,5.539,1.893,8.764-1.911,2.437-5.206,3.173-9.168.771Z" transform="translate(133.579 -21.659)" fill="#e0e0e0"/>
        <path id="Path_51135" data-name="Path 51135" d="M100.933,160.012a15.285,15.285,0,1,1-20.649,6.363,15.285,15.285,0,0,1,20.649-6.363Z" transform="translate(-7.873 22.726)" fill="#f0f0f0"/>
        <path id="Path_51136" data-name="Path 51136" d="M85.4,168.577c.841.456,1.613-.088,2.454-.947L84.666,166C84.211,167.332,84.561,168.174,85.4,168.577Z" transform="translate(-3.385 28.57)" fill="#e0e0e0"/>
        <path id="Path_51137" data-name="Path 51137" d="M88.18,167.339l3.085,1.63c.473-1.367.175-2.226-.578-2.612S89.039,166.462,88.18,167.339Z" transform="translate(-0.588 28.739)" fill="#e0e0e0"/>
        <path id="Path_51138" data-name="Path 51138" d="M81.3,166.448a13.059,13.059,0,1,0,17.634-5.416A13.059,13.059,0,0,0,81.3,166.448Zm18.16,8.572,1.946,1.034-.754,1.42-1.928-1.017a8.659,8.659,0,0,1-3.7,3.506l-1.332-1.753a7.642,7.642,0,0,0,3.155-2.787l-3.506-1.841c-1.49,1.753-3.225,3.418-5.627,2.138-1.753-.929-2.647-3.032-1.472-5.89L84.277,168.8l.754-1.42,1.928,1.017a8.466,8.466,0,0,1,2.927-2.962l1.385,1.648a7.924,7.924,0,0,0-2.331,2.349l3.506,1.858c1.49-1.753,3.208-3.506,5.609-2.191C99.808,170.041,100.649,172.145,99.457,175.019Z" transform="translate(-6.922 23.687)" fill="#e0e0e0"/>
        <path id="Path_51139" data-name="Path 51139" d="M256.728,238.367a14.549,14.549,0,1,1-19.685,6.065,14.549,14.549,0,0,1,19.685-6.065Z" transform="translate(110.22 81.779)" fill="#f0f0f0"/>
        <path id="Path_51140" data-name="Path 51140" d="M241.848,246.542c.806.421,1.543-.105,2.331-.911l-2.945-1.56C240.8,245.332,241.129,246.156,241.848,246.542Z" transform="translate(114.495 87.347)" fill="#e0e0e0"/>
        <path id="Path_51141" data-name="Path 51141" d="M244.58,245.344l2.927,1.56c.456-1.315.158-2.121-.543-2.489S245.316,244.5,244.58,245.344Z" transform="translate(117.162 87.51)" fill="#e0e0e0"/>
        <path id="Path_51142" data-name="Path 51142" d="M238.025,244.493a12.428,12.428,0,1,0,16.793-5.154A12.428,12.428,0,0,0,238.025,244.493Zm17.319,8.168,1.858.982-.719,1.367-1.841-.982a8.291,8.291,0,0,1-3.506,3.33l-1.28-1.63a7.274,7.274,0,0,0,3.015-2.647l-3.313-1.753c-1.42,1.613-3.05,3.26-5.364,2.033-1.753-.894-2.507-2.892-1.385-5.609l-1.876-.982.719-1.367,1.753.982a7.958,7.958,0,0,1,2.787-2.822l1.315,1.56a7.782,7.782,0,0,0-2.314,2.209l3.348,1.753c1.42-1.6,3.05-3.3,5.346-2.086C255.659,247.911,256.448,249.927,255.343,252.661Z" transform="translate(111.132 82.7)" fill="#e0e0e0"/>
        <path id="Path_51143" data-name="Path 51143" d="M398.168,363.487A33.2,33.2,0,1,1,396.1,338.13a33.182,33.182,0,0,1,2.066,25.357Z" transform="translate(184.034 144.586)" fill="#f0f0f0"/>
        <path id="Path_51144" data-name="Path 51144" d="M350.4,335.492c-.613,1.946.841,3.4,2.98,4.855l2.314-7.239C352.662,332.635,350.979,333.7,350.4,335.492Z" transform="translate(196.726 154.298)" fill="#e0e0e0"/>
        <path id="Path_51145" data-name="Path 51145" d="M353.884,341.09l-2.314,7.187c3.1.508,4.82-.473,5.381-2.209S356.092,342.562,353.884,341.09Z" transform="translate(197.713 160.392)" fill="#e0e0e0"/>
        <path id="Path_51146" data-name="Path 51146" d="M373.131,324.263a28.309,28.309,0,1,0,16.551,14.009A28.327,28.327,0,0,0,373.131,324.263Zm-11.376,42.069L360.3,370.89l-3.33-1.069,1.437-4.522a18.528,18.528,0,0,1-8.87-6.556l3.138-3.506a16.46,16.46,0,0,0,7.134,5.7l2.612-8.133c-4.154-2.542-8.519-5.557-6.714-11.2,1.332-4.137,5.487-6.8,12.025-5.381l1.472-4.593,3.331,1.069-1.437,4.522a18.318,18.318,0,0,1,7.45,5.118l-2.98,3.506a17.53,17.53,0,0,0-5.872-4.312l-2.647,8.2c4.172,2.559,8.624,5.557,6.819,11.2-1.332,4.207-5.522,6.871-12.112,5.469Z" transform="translate(186.108 146.701)" fill="#e0e0e0"/>
        <circle id="Ellipse_725" data-name="Ellipse 725" cx="33.182" cy="33.182" r="33.182" transform="translate(28.77 345.064) rotate(-19.58)" fill="#f0f0f0"/>
        <path id="Path_51147" data-name="Path 51147" d="M81.235,258.8c-1.753,1-1.753,3.05-1.192,5.574l6.661-3.664C84.828,258.275,82.882,257.907,81.235,258.8Z" transform="translate(-6.965 98.104)" fill="#e0e0e0"/>
        <path id="Path_51148" data-name="Path 51148" d="M80.686,265.2l-6.626,3.646c1.911,2.507,3.821,2.962,5.434,2.068S81.282,267.794,80.686,265.2Z" transform="translate(-11.219 103.256)" fill="#e0e0e0"/>
        <path id="Path_51149" data-name="Path 51149" d="M115.83,261.867a28.327,28.327,0,1,0-11.183,38.476,28.327,28.327,0,0,0,11.183-38.476ZM78.581,284.654l-4.189,2.3-1.753-3.068,4.154-2.279a18.7,18.7,0,0,1-1.928-10.868l4.7-.4a16.249,16.249,0,0,0,1.28,9.045l7.467-4.1c-1.262-4.715-2.366-9.9,2.84-12.761,3.8-2.1,8.659-1.157,12.428,4.365l4.224-2.314,1.753,3.068-4.242,2.279a18.388,18.388,0,0,1,1.893,8.852l-4.61.526a17.844,17.844,0,0,0-1.315-7.169l-7.555,4.154c1.262,4.715,2.454,9.956-2.752,12.814-3.769,2.1-8.589,1.1-12.428-4.435Z" transform="translate(-19.79 89.691)" fill="#e0e0e0"/>
      </g>
      <g id="freepik--Shadow--inject-1" transform="translate(91.144 668.369)">
        <ellipse id="freepik--path--inject-1" cx="339.866" cy="19.843" rx="339.866" ry="19.843" fill="#f5f5f5"/>
      </g>
      <g id="freepik--Coin--inject-1" transform="translate(624.283 145.782)">
        <path id="Path_51150" data-name="Path 51150" d="M402.227,106.79h-7.012c-19.282,0-34.935,18.879-34.935,42.174s15.636,42.174,34.935,42.174h7.012c19.282,0,34.952-18.879,34.952-42.174S421.526,106.79,402.227,106.79Z" transform="translate(-360.245 -106.79)" fill="#0091ff"/>
        <path id="Path_51151" data-name="Path 51151" d="M402.227,106.79h-7.012c-19.282,0-34.935,18.879-34.935,42.174s15.636,42.174,34.935,42.174h7.012c19.282,0,34.952-18.879,34.952-42.174S421.526,106.79,402.227,106.79Z" transform="translate(-360.245 -106.79)" opacity="0.2"/>
        <ellipse id="Ellipse_726" data-name="Ellipse 726" cx="34.952" cy="42.174" rx="34.952" ry="42.174" fill="#0091ff"/>
        <ellipse id="Ellipse_727" data-name="Ellipse 727" cx="29.834" cy="36.004" rx="29.834" ry="36.004" transform="translate(5.118 6.17)" fill="#fff" opacity="0.3"/>
        <path id="Path_51152" data-name="Path 51152" d="M387.729,161.171v6.083h-3.681v-5.942a17.7,17.7,0,0,1-11.008-4.5l2.016-5.486a15.6,15.6,0,0,0,8.992,4.119V144.606c-5-1.472-10.342-3.506-10.342-10.956,0-5.539,3.33-10.36,10.342-11.183V116.35h3.681v6.012a17.02,17.02,0,0,1,9.133,3.313l-1.84,5.469a16.635,16.635,0,0,0-7.292-2.927v10.956c5,1.472,10.43,3.366,10.43,10.9C398.159,155.544,394.793,160.312,387.729,161.171Zm-3.681-23.208V128.3a4.873,4.873,0,0,0-4.54,4.943C379.508,135.86,381.436,137.052,384.048,137.963Zm8.361,12.533c0-2.664-1.981-3.909-4.68-4.82v9.588c3.278-.6,4.68-2.436,4.68-4.768Z" transform="translate(-350.638 -99.592)" fill="#0091ff"/>
      </g>
      <g id="freepik--Bars--inject-1" transform="translate(448.539 256.949)">
        <path id="Path_51153" data-name="Path 51153" d="M456.376,170.21H360.493a8.133,8.133,0,0,0-8.133,8.133V601.051H464.544V178.343a8.116,8.116,0,0,0-8.168-8.133Z" transform="translate(-190.464 -170.21)" fill="#0091ff"/>
        <path id="Path_51154" data-name="Path 51154" d="M456.376,170.21H360.493a8.133,8.133,0,0,0-8.133,8.133V601.051H464.544V178.343a8.116,8.116,0,0,0-8.168-8.133Z" transform="translate(-190.464 -170.21)" fill="#fff" opacity="0.1"/>
        <path id="Path_51155" data-name="Path 51155" d="M360.478,170.21h90.694a8.133,8.133,0,0,1,8.133,8.133V601.051H352.38V178.343a8.133,8.133,0,0,1,8.1-8.133Z" transform="translate(-190.449 -170.21)" fill="#fff" opacity="0.3"/>
        <path id="Path_51156" data-name="Path 51156" d="M364.016,250.26H268.063A8.133,8.133,0,0,0,260,258.393v74.445h49.782a13.479,13.479,0,0,1-3.962-9.606,13.234,13.234,0,0,1,10.289-13.059,13.217,13.217,0,0,1,10.272,13.059,13.48,13.48,0,0,1-3.944,9.606h49.747V258.393a8.116,8.116,0,0,0-8.168-8.133Z" transform="translate(-260 -109.942)" fill="#0091ff"/>
        <path id="Path_51157" data-name="Path 51157" d="M327.626,343.45h-5.259a13.48,13.48,0,0,1,3.944,9.606,13.217,13.217,0,0,1-10.272,13.059,13.234,13.234,0,0,1-10.289-13.059,13.48,13.48,0,0,1,3.962-9.606H260V470.622H372.184V343.45Z" transform="translate(-260 -39.781)" fill="#0091ff"/>
        <path id="Path_51158" data-name="Path 51158" d="M364.016,250.26H268.063A8.133,8.133,0,0,0,260,258.393v74.445h49.782a13.479,13.479,0,0,1-3.962-9.606,13.234,13.234,0,0,1,10.289-13.059,13.217,13.217,0,0,1,10.272,13.059,13.48,13.48,0,0,1-3.944,9.606h49.747V258.393a8.116,8.116,0,0,0-8.168-8.133Z" transform="translate(-260 -109.942)" fill="#fff" opacity="0.1"/>
        <path id="Path_51159" data-name="Path 51159" d="M327.626,343.45h-5.259a13.48,13.48,0,0,1,3.944,9.606,13.217,13.217,0,0,1-10.272,13.059,13.234,13.234,0,0,1-10.289-13.059,13.48,13.48,0,0,1,3.962-9.606H260V470.622H372.184V343.45Z" transform="translate(-260 -39.781)" fill="#fff" opacity="0.1"/>
        <path id="Path_51160" data-name="Path 51160" d="M322.368,343.45a13.48,13.48,0,0,1,3.944,9.606,12.919,12.919,0,1,1-25.82,0,13.48,13.48,0,0,1,3.962-9.606H260V470.622H366.926V343.45Z" transform="translate(-260 -39.781)" fill="#fff" opacity="0.3"/>
        <path id="Path_51161" data-name="Path 51161" d="M260,258.393v74.445h44.523a13.479,13.479,0,0,1-3.962-9.606,12.919,12.919,0,1,1,25.82,0,13.48,13.48,0,0,1-3.944,9.606h44.488V258.393a8.116,8.116,0,0,0-8.116-8.133H268.063A8.133,8.133,0,0,0,260,258.393Z" transform="translate(-260 -109.942)" fill="#fff" opacity="0.3"/>
      </g>
      <g id="freepik--speech-bubble--inject-1" transform="translate(253.215 234.145)">
        <path id="Path_51162" data-name="Path 51162" d="M206.853,157.2H162.3a13.708,13.708,0,0,0-13.725,13.708v45a13.725,13.725,0,0,0,13.708,13.725h17.634l4.663,12.27,4.645-12.27h17.634A13.725,13.725,0,0,0,220.561,215.9V170.873A13.707,13.707,0,0,0,206.853,157.2Z" transform="translate(-148.57 -157.2)" fill="#0091ff"/>
        <path id="Path_51163" data-name="Path 51163" d="M206.853,157.2H162.3a13.708,13.708,0,0,0-13.725,13.708v45a13.725,13.725,0,0,0,13.708,13.725h17.634l4.663,12.27,4.645-12.27h17.634A13.725,13.725,0,0,0,220.561,215.9V170.873A13.707,13.707,0,0,0,206.853,157.2Z" transform="translate(-148.57 -157.2)" fill="#fff" opacity="0.4"/>
        <ellipse id="Ellipse_728" data-name="Ellipse 728" cx="7.415" cy="4.382" rx="7.415" ry="4.382" transform="translate(28.746 55.575) rotate(-0.42)" fill="#263238"/>
        <ellipse id="Ellipse_729" data-name="Ellipse 729" cx="7.415" cy="4.382" rx="7.415" ry="4.382" transform="translate(28.746 55.575) rotate(-0.42)" fill="#fff" opacity="0.4"/>
        <path id="Path_51164" data-name="Path 51164" d="M184.654,189.172a2.156,2.156,0,0,0,.649-1.455c0-2.366-5.083-4.26-11.306-4.207s-11.253,2-11.236,4.382a2.139,2.139,0,0,0,.666,1.437,1.894,1.894,0,0,0-.175.754,2.016,2.016,0,0,0,.684,1.42,1.752,1.752,0,0,0-.193.771,2.051,2.051,0,0,0,.7,1.42,1.56,1.56,0,0,0-.21.789,2,2,0,0,0,.719,1.4,1.63,1.63,0,0,0-.228.789c0,1.981,4.224,3.506,9.4,3.506s9.36-1.753,9.343-3.646a1.49,1.49,0,0,0-.245-.789,1.911,1.911,0,0,0,.7-1.4,1.42,1.42,0,0,0-.228-.789,1.753,1.753,0,0,0,.526-2.174,2.138,2.138,0,0,0,.666-1.437A1.753,1.753,0,0,0,184.654,189.172Z" transform="translate(-137.887 -137.392)" fill="#263238"/>
        <path id="Path_51165" data-name="Path 51165" d="M197.626,183.215a19.948,19.948,0,1,0-32.411,15.653,3.331,3.331,0,0,1,1.245,2.84.49.49,0,0,0,0,.158c0,2.4,5.153,4.33,11.481,4.277s11.429-2.033,11.411-4.452v-.158a3.313,3.313,0,0,1,1.21-2.857A19.948,19.948,0,0,0,197.626,183.215Z" transform="translate(-141.674 -152.575)" fill="#0091ff"/>
        <path id="Path_51166" data-name="Path 51166" d="M197.626,183.215a19.948,19.948,0,1,0-32.411,15.653,3.331,3.331,0,0,1,1.245,2.84.49.49,0,0,0,0,.158c0,2.4,5.153,4.33,11.481,4.277s11.429-2.033,11.411-4.452v-.158a3.313,3.313,0,0,1,1.21-2.857A19.948,19.948,0,0,0,197.626,183.215Z" transform="translate(-141.674 -152.575)" fill="#fff" opacity="0.9"/>
        <g id="Group_4734" data-name="Group 4734" transform="translate(25.434 33.778)" opacity="0.2">
          <path id="Path_51167" data-name="Path 51167" d="M169.689,193.508a.719.719,0,0,1-.719-.719c0-6.871-5.627-12.13-5.679-12.183a.719.719,0,0,1,.491-1.227h3.278l1-2.384a.71.71,0,0,1,1.28-.07l1.876,3.383,1.753-3.418a.806.806,0,0,1,.649-.386.789.789,0,0,1,.631.4l1.858,3.821,1.753-3.839a.754.754,0,0,1,.649-.421.736.736,0,0,1,.649.438l1.034,2.384h3.278a.72.72,0,0,1,.368,1.332c-4.68,2.77-5.995,12.183-6.012,12.27a.719.719,0,0,1-1.42-.193c0-.368,1.122-8.028,5.013-11.955h-1.753a.7.7,0,0,1-.666-.421l-.6-1.367-1.753,3.769a.719.719,0,0,1-.649.4.754.754,0,0,1-.649-.4l-1.911-3.891-1.753,3.348a.725.725,0,0,1-1.262,0l-1.753-3.243-.6,1.455a.736.736,0,0,1-.666.438h-2.1a19.281,19.281,0,0,1,4.961,12.007.719.719,0,0,1-.7.719Z" transform="translate(-163.08 -176.47)"/>
        </g>
      </g>
      <g id="freepik--Character--inject-1" transform="translate(124.694 347.086)">
        <path id="Path_51168" data-name="Path 51168" d="M179.319,395.35H83.383A8.116,8.116,0,0,0,75.25,403.5v28.046H187.434V403.5a8.116,8.116,0,0,0-8.116-8.151Z" transform="translate(-75.25 -90.843)" fill="#0091ff"/>
        <path id="Path_51169" data-name="Path 51169" d="M179.319,395.35H83.383A8.116,8.116,0,0,0,75.25,403.5v28.046H187.434V403.5a8.116,8.116,0,0,0-8.116-8.151Z" transform="translate(-75.25 -90.843)" fill="#fff" opacity="0.1"/>
        <path id="Path_51170" data-name="Path 51170" d="M83.368,395.35h90.694a8.133,8.133,0,0,1,8.133,8.133v28.064H75.27V403.5a8.133,8.133,0,0,1,8.1-8.151Z" transform="translate(-75.235 -90.843)" fill="#fff" opacity="0.3"/>
        <path id="Path_51171" data-name="Path 51171" d="M271.714,345.9H175.726a8.116,8.116,0,0,0-8.116,8.133V468.777H279.794V353.963a8.133,8.133,0,0,0-8.081-8.063Z" transform="translate(-5.714 -128.073)" fill="#0091ff"/>
        <path id="Path_51172" data-name="Path 51172" d="M271.714,345.9H175.726a8.116,8.116,0,0,0-8.116,8.133V468.777H279.794V353.963a8.133,8.133,0,0,0-8.081-8.063Z" transform="translate(-5.714 -128.073)" fill="#fff" opacity="0.1"/>
        <path id="Path_51173" data-name="Path 51173" d="M175.7,345.9h90.729a8.133,8.133,0,0,1,8.133,8.133V468.777H167.64V353.963A8.133,8.133,0,0,1,175.7,345.9Z" transform="translate(-5.691 -128.073)" fill="#fff" opacity="0.3"/>
        <path id="Path_51174" data-name="Path 51174" d="M187.854,254.78c6.626,4.154,19.106,29.133,19.106,29.133l-10.991,8.519L181,275.534Z" transform="translate(4.367 -196.675)" fill="#263238"/>
        <path id="Path_51175" data-name="Path 51175" d="M206.96,283.913l-10.991,8.519-8.274-9.22-6.7-7.678,2.454-7.345,4.487-13.41C194.48,258.934,206.96,283.913,206.96,283.913Z" transform="translate(4.367 -196.675)" fill="#fff" opacity="0.4"/>
        <path id="Path_51176" data-name="Path 51176" d="M187.7,277.452l-6.7-7.678,2.454-7.345A56.1,56.1,0,0,1,187.7,277.452Z" transform="translate(4.367 -190.916)" opacity="0.2"/>
        <path id="Path_51177" data-name="Path 51177" d="M197.277,325.337l-45.417-6.591,4.873-49.607,46.1,5.048Z" transform="translate(-17.572 -185.864)" fill="#263238"/>
        <path id="Path_51178" data-name="Path 51178" d="M197.277,325.337l-45.417-6.591,4.873-49.607,46.1,5.048Z" transform="translate(-17.572 -185.864)" fill="#fff" opacity="0.3"/>
        <path id="Path_51179" data-name="Path 51179" d="M142.461,348.164l35.706,2.471-.806-13.865-38.581,3.944" transform="translate(-27.419 -134.946)" fill="#ffc2bc"/>
        <path id="Path_51180" data-name="Path 51180" d="M139.06,336.368l-.543,1.946,2.244,1.209a42.3,42.3,0,0,0-6.451,9.431,33.3,33.3,0,0,0-2.91,12.375s1.858,3.313,6.135-3.821a5.715,5.715,0,0,1,.719-.964c3.12-3.506,11.306-7.573,11.306-7.573l2.559-8.9a12.35,12.35,0,0,0-1.087-1.087,11.762,11.762,0,0,0-11.972-2.612Z" transform="translate(-32.976 -135.736)" fill="#263238"/>
        <path id="Path_51181" data-name="Path 51181" d="M148.253,337.58h0c.964,1.56-6.31,5.259-9.4,8.624-2.735,3-4.628,6.7-3.366,8.957,3.12-3.506,13.392-7.643,13.392-7.643l2.051-7.152S148.954,338.316,148.253,337.58Z" transform="translate(-30.196 -134.337)" fill="#ffc2bc"/>
        <path id="Path_51182" data-name="Path 51182" d="M192.967,290.2,198,313.427s46.223,44.8,46.031,62.227c0,3.611,3.681,14.584-24.418,18-14.181,1.753-71.43-2.489-71.43-2.489V378.634s39.738-6.118,61.07-6.521l-47.1-41.964L146.27,309.939,158.54,281.7Z" transform="translate(-21.78 -176.408)" fill="#263238"/>
        <path id="Path_51183" data-name="Path 51183" d="M219.611,393.657a181.926,181.926,0,0,1-21.929.21c-21.666-.649-49.5-2.7-49.5-2.7V378.634s27.7-4.259,49.256-5.907c4.277-.315,8.291-.543,11.814-.613l-16.039-14.286L162.151,330.15l-6.082-7.748-9.8-12.463L158.54,281.7l34.479,8.537,5.031,23.226s46.224,44.8,46.031,62.227C243.958,379.265,247.709,390.238,219.611,393.657Z" transform="translate(-21.78 -176.408)" fill="#fff" opacity="0.2"/>
        <path id="Path_51184" data-name="Path 51184" d="M157.943,315.735l-6.083-7.748,11.622-7.187S178.627,314.385,189,343.413Z" transform="translate(-17.572 -162.028)" opacity="0.2"/>
        <path id="Path_51185" data-name="Path 51185" d="M196.861,354.77c-21.666-.649-49.5-2.7-49.5-2.7V339.537s27.7-4.259,49.256-5.907a76.391,76.391,0,0,1,.245,21.14Z" transform="translate(-20.96 -137.311)" opacity="0.2"/>
        <path id="Path_51186" data-name="Path 51186" d="M119.626,400.662h2.016l.631-2.471,6.573,3.208,16.863.491s2.752-2.612-5.259-5a7.52,7.52,0,0,1-1.139-.473c-4.224-2.139-10.114-9.1-10.114-9.1l-9.255-.263a12.463,12.463,0,0,0-.368,13.55Z" transform="translate(-43.253 -97.084)" fill="#263238"/>
        <path id="Path_51187" data-name="Path 51187" d="M118.58,389.24h0c1.262-1.332,6.643,4.82,10.658,7.012,3.506,1.911,7.643,2.84,9.5,1.052-4.224-2.138-10.693-11.1-10.693-11.1l-7.45-.228S119.036,388.381,118.58,389.24Z" transform="translate(-42.628 -97.897)" fill="#ffc2bc"/>
        <path id="Path_51188" data-name="Path 51188" d="M127.758,401.68l25.61-24.979L142.5,368.06l-22.77,31.394" transform="translate(-41.762 -111.389)" fill="#ffc2bc"/>
        <path id="Path_51189" data-name="Path 51189" d="M208.376,381.53c-3.085-20.859-9.4-47.626-14.654-68.362l-2.366-26.293-25.294-4.365s-12.27,21.718-6.608,42.227c4.347,15.951,14.023,35.338,26.767,58.143-27.818,22.156-50.711,50.728-63.7,70.238a19.126,19.126,0,0,0,3.926,4.715,18.2,18.2,0,0,0,6.223,3.944c20.421-19.527,48.38-43.822,68.082-62.245C207.342,393.59,210.024,388.647,208.376,381.53Z" transform="translate(-39.661 -175.798)" fill="#263238"/>
        <path id="Path_51190" data-name="Path 51190" d="M208.376,381.53c-3.085-20.859-9.4-47.626-14.654-68.362l-2.366-26.293-25.294-4.365s-12.27,21.718-6.608,42.227c4.347,15.951,14.023,35.338,26.767,58.143-27.818,22.156-50.711,50.728-63.7,70.238a19.126,19.126,0,0,0,3.926,4.715,18.2,18.2,0,0,0,6.223,3.944c20.421-19.527,48.38-43.822,68.082-62.245C207.342,393.59,210.024,388.647,208.376,381.53Z" transform="translate(-39.661 -175.798)" fill="#fff" opacity="0.2"/>
        <path id="Path_51191" data-name="Path 51191" d="M213.181,260.882S209.324,292,192.146,316.571c0,0-36.635-4.61-44.786-7.012,5.066-15,8.1-25.031,10.2-53.182.508-6.784,6.661-10.693,13.375-9.483a77.479,77.479,0,0,1,19.4,3.856A212.1,212.1,0,0,1,213.181,260.882Z" transform="translate(-20.96 -202.777)" fill="#0091ff"/>
        <path id="Path_51192" data-name="Path 51192" d="M213.188,260.882a142.093,142.093,0,0,1-5.364,22.928,122.964,122.964,0,0,1-15.671,32.761s-36.635-4.61-44.8-7.012c.964-2.822,1.858-5.469,2.664-8.1a146,146,0,0,0,5.82-27.345c.578-4.382,1.052-9.343,1.543-15.075,0-.859.123-1.753.193-2.647.508-6.8,6.661-10.71,13.375-9.5.947.175,2.962.21,6.135.666a2.363,2.363,0,0,1,.859.105,80.85,80.85,0,0,1,12.41,3.033c2.033.649,4.435,1.6,7.012,2.664h0C204.9,256.622,213.188,260.882,213.188,260.882Z" transform="translate(-20.967 -202.777)" fill="#fff" opacity="0.8"/>
        <path id="Path_51193" data-name="Path 51193" d="M181.53,281.553h0c-.456,3.874-.982,7.993-1.665,12.375-.105.631-.175.982-.175.982-.7,4.452-1.56,9.15-2.577,14.023a311.453,311.453,0,0,1-8.5,32.393l-28.151-8.063s13.48-33.3,16.74-44.3a36.806,36.806,0,0,0,.911-3.856c1.192-6.31,1.648-14.619,2.349-21.648.6-5.96,1.385-11.026,2.945-13.2,2.84-3.944,12.27-3.506,16.985-3.12h.175a10.462,10.462,0,0,1,1.876.228h.684A217.547,217.547,0,0,1,181.53,281.553Z" transform="translate(-26.154 -202.606)" fill="#263238"/>
        <path id="Path_51194" data-name="Path 51194" d="M175.84,250.51s9.658,20.894,1.315,90.273l6.03-1.613,3.453-46.5s5.118-25.645,5.153-34.672C191.739,257.995,179.994,250.79,175.84,250.51Z" transform="translate(0.482 -199.89)" fill="#263238"/>
        <path id="Path_51195" data-name="Path 51195" d="M181.53,281.553h0c-.456,3.874-.982,7.993-1.665,12.375-.105.631-.175.982-.175.982-.7,4.452-1.56,9.15-2.577,14.023a311.453,311.453,0,0,1-8.5,32.393l-28.151-8.063s13.48-33.3,16.74-44.3a36.806,36.806,0,0,0,.911-3.856c1.192-6.31,1.648-14.619,2.349-21.648.6-5.96,1.385-11.026,2.945-13.2,2.84-3.944,12.27-3.506,16.985-3.12h.175a10.462,10.462,0,0,1,1.876.228h.684A217.547,217.547,0,0,1,181.53,281.553Z" transform="translate(-26.154 -202.606)" fill="#fff" opacity="0.4"/>
        <path id="Path_51196" data-name="Path 51196" d="M175.84,250.51s9.658,20.894,1.315,90.273l6.03-1.613,3.453-46.5s5.118-25.645,5.153-34.672C191.739,257.995,179.994,250.79,175.84,250.51Z" transform="translate(0.482 -199.89)" fill="#fff" opacity="0.4"/>
        <path id="Path_51197" data-name="Path 51197" d="M168.517,282h0c-.736,5.557-1.49,9.991-1.753,11.885-.105.631-.175.982-.175.982l-4.347-26.889h0l-1.3-8.274,6.24,1.472L158,253.1l9.185-6.03h.175l1.876.228h.684C171.445,256.08,169.955,271.12,168.517,282Z" transform="translate(-12.949 -202.48)" fill="#263238"/>
        <path id="Path_51198" data-name="Path 51198" d="M176.375,251.218l-1.245-1.648s8.764,5.557,12.147,12.27l-5.364,2.3,4.365,1.56-5.136,29.361s-1.753-32.569-4.68-42.665" transform="translate(-0.052 -200.598)" fill="#263238"/>
        <path id="Path_51199" data-name="Path 51199" d="M168.517,282h0c-.736,5.557-1.49,9.991-1.753,11.885-.105.631-.175.982-.175.982l-4.347-26.889h0l-1.3-8.274,6.24,1.472L158,253.1l9.185-6.03h.175l1.876.228h.684C171.445,256.08,169.955,271.12,168.517,282Z" transform="translate(-12.949 -202.48)" fill="#fff" opacity="0.2"/>
        <path id="Path_51200" data-name="Path 51200" d="M176.375,251.218l-1.245-1.648s8.764,5.557,12.147,12.27l-5.364,2.3,4.365,1.56-5.136,29.361s-1.753-32.569-4.68-42.665" transform="translate(-0.052 -200.598)" fill="#fff" opacity="0.2"/>
        <path id="Path_51201" data-name="Path 51201" d="M174.1,275.757h0c-.736,5.557-1.49,9.991-1.753,11.885-.105.631-.175.982-.175.982-.7,4.452-1.56,9.15-2.577,14.023-8.239-2.542-14.707-13.76-19-23.822,1.192-6.31,1.648-14.619,2.349-21.648,4.119-1.753,8.764-2.77,11.5-.491a19.6,19.6,0,0,1,3.506,4.978h0a97.852,97.852,0,0,1,6.083,13.532h0Z" transform="translate(-18.528 -196.232)" opacity="0.2"/>
        <path id="Path_51202" data-name="Path 51202" d="M163.173,263.724s-4.277-24.365,15-16.372c12.165,5.031,12.27,23.173,12.27,23.173L185.067,265a114.518,114.518,0,0,1-5.749,15.618,53.042,53.042,0,0,1-9.834-19.545Z" transform="translate(-9.358 -203.48)" fill="#0091ff"/>
        <path id="Path_51203" data-name="Path 51203" d="M163.173,263.724s-4.277-24.365,15-16.372c12.165,5.031,12.27,23.173,12.27,23.173L185.067,265a114.518,114.518,0,0,1-5.749,15.618,53.042,53.042,0,0,1-9.834-19.545Z" transform="translate(-9.358 -203.48)" fill="#fff" opacity="0.7"/>
        <path id="Path_51204" data-name="Path 51204" d="M180.713,262.616c.614,7.275-4.33,22.314-4.33,22.314-7.485-7.31-9.834-30.851-9.834-30.851,2.209-.245,3.225-4.049,3.7-7.713a54.527,54.527,0,0,0,.4-6.906l12.06,4.1a34.778,34.778,0,0,0-3.1,12.621,14.411,14.411,0,0,0,.316,3.839,24.693,24.693,0,0,0,.789,2.594Z" transform="translate(-6.512 -208.209)" fill="#ffc2bc"/>
        <path id="Path_51205" data-name="Path 51205" d="M181.146,243.554a34.778,34.778,0,0,0-3.1,12.621,22.787,22.787,0,0,1-9.413-9.8,54.524,54.524,0,0,0,.4-6.906Z" transform="translate(-4.946 -208.202)" opacity="0.2"/>
        <path id="Path_51206" data-name="Path 51206" d="M171.229,226.589s-3.506-7.345-11.026-4.154-7.169,18.879,5.1,14.023S171.229,226.589,171.229,226.589Z" transform="translate(-15.064 -221.632)" fill="#263238"/>
        <path id="Path_51207" data-name="Path 51207" d="M171.635,224.245s-4.259-1.841-8.764,3.4-1.437,11.341-.263,10.693S172.231,227.558,171.635,224.245Z" transform="translate(-11.071 -219.901)" fill="#0091ff"/>
        <path id="Path_51208" data-name="Path 51208" d="M181.143,257.306s-12.551,7.2-19.562-10.868,18.9-33.3,27.012-17.914S181.143,257.306,181.143,257.306Z" transform="translate(-11.149 -221.217)" fill="#263238"/>
        <path id="Path_51209" data-name="Path 51209" d="M164.366,241.741c3.506,10.324,4.8,14.759,11.587,18.984,10.219,6.345,22.156.473,21.788-10.517-.333-9.9-6.047-25.119-17.529-27.047a14.023,14.023,0,0,0-15.846,18.581Z" transform="translate(-8.798 -220.675)" fill="#ffc2bc"/>
        <path id="Path_51210" data-name="Path 51210" d="M173.7,231.172c-4.768,8.4,8.519,15.355-3.506,16.582s-9.676-16.46-3.085-21.35S173.7,231.172,173.7,231.172Z" transform="translate(-10.189 -219.08)" fill="#263238"/>
        <path id="Path_51211" data-name="Path 51211" d="M164.76,228.784c2.542,7.012,3.979,8.764,10.132,5.837a7.59,7.59,0,0,1-1.911-4.75,7.2,7.2,0,0,0,4.189,3.506,26.29,26.29,0,0,1,5.118-2.419,7.012,7.012,0,0,1-.771-3.085,6.766,6.766,0,0,0,2.857,2.612,18.32,18.32,0,0,1,5.96.175C189.2,222.982,175.084,216.724,164.76,228.784Z" transform="translate(-7.859 -221.338)" fill="#263238"/>
        <path id="Path_51212" data-name="Path 51212" d="M173.732,234.047c.263.876.929,1.49,1.507,1.35s.824-.929.561-1.753-.929-1.49-1.508-1.367S173.487,233.153,173.732,234.047Z" transform="translate(-1.178 -213.629)" fill="#263238"/>
        <path id="Path_51213" data-name="Path 51213" d="M179.874,232.767c.245.876.929,1.49,1.49,1.35s.824-.929.561-1.753-.929-1.49-1.49-1.367S179.611,231.908,179.874,232.767Z" transform="translate(3.442 -214.593)" fill="#263238"/>
        <path id="Path_51214" data-name="Path 51214" d="M180,231.459l1.911-1.069S181.35,232.336,180,231.459Z" transform="translate(3.614 -215.038)" fill="#263238"/>
        <path id="Path_51215" data-name="Path 51215" d="M178.37,233.21a26.5,26.5,0,0,0,4.75,4.943,3.646,3.646,0,0,1-2.927,1.262Z" transform="translate(2.387 -212.915)" fill="#d4827d"/>
        <path id="Path_51216" data-name="Path 51216" d="M179.493,240.235a9.4,9.4,0,0,0,1.49-.193.245.245,0,0,0,.175-.315.263.263,0,0,0-.333-.21,7.677,7.677,0,0,1-6.416-1.472.263.263,0,1,0-.351.368,8.063,8.063,0,0,0,5.434,1.823Z" transform="translate(-0.961 -209.37)" fill="#263238"/>
        <path id="Path_51217" data-name="Path 51217" d="M164.647,242.519a7.485,7.485,0,0,0,5.083,3.3c2.577.3,3.225-2.682,2-5.4-1.1-2.436-3.769-5.522-6.1-4.557S163.052,240.2,164.647,242.519Z" transform="translate(-8.711 -211.058)" fill="#ffc2bc"/>
        <path id="Path_51218" data-name="Path 51218" d="M171.847,232.065a.491.491,0,0,0,.351-.21,3.961,3.961,0,0,1,3.243-1.753.491.491,0,0,0,.526-.491.6.6,0,0,0-.543-.561,4.943,4.943,0,0,0-4.137,2.244.543.543,0,0,0,.175.754.631.631,0,0,0,.386.018Z" transform="translate(-3.009 -216.047)" fill="#263238"/>
        <path id="Path_51219" data-name="Path 51219" d="M182.889,229.884a.508.508,0,0,0,.351-.158.543.543,0,0,0-.088-.754,5.557,5.557,0,0,0-4.785-1.35.491.491,0,0,0-.333.649.561.561,0,0,0,.666.368,4.575,4.575,0,0,1,3.786,1.1.526.526,0,0,0,.4.14Z" transform="translate(2.11 -217.196)" fill="#263238"/>
        <path id="Path_51220" data-name="Path 51220" d="M173.88,232.759l1.911-1.069S175.195,233.566,173.88,232.759Z" transform="translate(-0.993 -214.059)" fill="#263238"/>
        <path id="Path_51221" data-name="Path 51221" d="M266.773,376.56l30.921-74.62-40.457-16.758a13.742,13.742,0,0,0,8.028-9.834,12.989,12.989,0,0,0-5.136-13.532,12.27,12.27,0,0,0-9.816-1.753,13.287,13.287,0,0,0-12.779,8.361,13.707,13.707,0,0,0-.7,8.326L200.5,261.693l-3.506.333-30.921,74.6L206.527,353.4a13.743,13.743,0,0,0-8.046,9.816,12.989,12.989,0,0,0,5.153,13.532,12.27,12.27,0,0,0,9.816,1.753,13.287,13.287,0,0,0,12.779-8.361,13.708,13.708,0,0,0,.7-8.326l36.337,15.057Z" transform="translate(-6.873 -192.966)" fill="#0091ff"/>
        <path id="Path_51222" data-name="Path 51222" d="M266.773,376.56l30.921-74.62-40.457-16.758a13.742,13.742,0,0,0,8.028-9.834,12.989,12.989,0,0,0-5.136-13.532,12.27,12.27,0,0,0-9.816-1.753,13.287,13.287,0,0,0-12.779,8.361,13.707,13.707,0,0,0-.7,8.326L200.5,261.693l-3.506.333-30.921,74.6L206.527,353.4a13.743,13.743,0,0,0-8.046,9.816,12.989,12.989,0,0,0,5.153,13.532,12.27,12.27,0,0,0,9.816,1.753,13.287,13.287,0,0,0,12.779-8.361,13.708,13.708,0,0,0,.7-8.326l36.337,15.057Z" transform="translate(-6.873 -192.966)" opacity="0.3"/>
        <path id="Path_51223" data-name="Path 51223" d="M296.188,302.057,255.732,285.3a13.743,13.743,0,0,0,8.028-9.834,12.656,12.656,0,0,0-24.225-7.292,13.638,13.638,0,0,0-.088,10.377l-40.457-16.775-30.921,74.6,40.456,16.863a13.742,13.742,0,0,0-8.046,9.834,12.673,12.673,0,0,0,24.242,7.275,13.6,13.6,0,0,0,0-10.36L265.2,376.765Z" transform="translate(-5.367 -193.083)" fill="#0091ff"/>
        <path id="Path_51224" data-name="Path 51224" d="M222.05,280.076l-3.681-3.681a1.63,1.63,0,0,1,0-2.366l1.753-1.508a3.4,3.4,0,0,1,5.048.526l4.417,6.083.508,1.753-2.7-1.122-3.33.789a2.156,2.156,0,0,1-2.016-.473Z" transform="translate(32.118 -183.986)" fill="#ffc2bc"/>
        <path id="Path_51225" data-name="Path 51225" d="M164.463,258.629c2.77,10.377,4.873,21.6,9.711,31.166,0,.158.526.649,1.753,1.157,5.1,2.033,12.183,2.174,18.037,2.331,6.661.088,13.5-.3,20.141-.736a3.4,3.4,0,0,1,1.122,6.679,140.545,140.545,0,0,1-20.737,3.962c-7.713.754-14.689,1.315-22.665-1.017a15.2,15.2,0,0,1-8.168-5.942l-.929-1.385c-4.33-7.257-6.7-15.092-9.062-22.98-.912-3.506-1.753-6.749-2.507-10.307a6.837,6.837,0,0,1,13.357-2.927Z" transform="translate(-18.22 -197.824)" fill="#ebc0bb"/>
        <path id="Path_51226" data-name="Path 51226" d="M186.47,278.3l8.063-5.346,1.507,11.218a13.006,13.006,0,0,1-11.131-2.051Z" transform="translate(7.311 -182.995)" fill="#ffc2bc"/>
        <path id="Path_51227" data-name="Path 51227" d="M199.883,273.754l-.438,8.554-7.537,1.84L190.4,272.93Z" transform="translate(11.444 -183.01)" fill="#ffc2bc"/>
        <path id="Path_51228" data-name="Path 51228" d="M158.1,247.8c-9.711,3.506-8.87,17.319-3.856,33.971s12.814,26.959,20.421,28.046l6.906-13.6a32.413,32.413,0,0,1-5.925-4.172c-2.84-3.506-12.06-38.248-12.06-38.248Z" transform="translate(-18.53 -201.93)" fill="#263238"/>
        <path id="Path_51229" data-name="Path 51229" d="M158.1,247.8c-9.711,3.506-8.87,17.319-3.856,33.971s12.814,26.959,20.421,28.046l6.906-13.6a32.413,32.413,0,0,1-5.925-4.172c-2.84-3.506-12.06-38.248-12.06-38.248Z" transform="translate(-18.53 -201.93)" fill="#fff" opacity="0.4"/>
        <path id="Path_51230" data-name="Path 51230" d="M175.33,275.788l-3.909-1.928L160.08,290.127l8.414.789Z" transform="translate(-11.383 -182.31)" fill="#263238"/>
        <path id="Path_51231" data-name="Path 51231" d="M175.33,275.788l-3.909-1.928L160.08,290.127l8.414.789Z" transform="translate(-11.383 -182.31)" fill="#fff" opacity="0.2"/>
      </g>
    </g>
  </g>
</svg>
