<svg id="Layer_1-2" xmlns="http://www.w3.org/2000/svg" width="48" height="48" viewBox="0 0 48 48">
  <g id="Group_1" data-name="Group 1">
    <rect id="Rectangle_2" data-name="Rectangle 2" width="48" height="48" fill="none"/>
    <path id="Path_1" data-name="Path 1" d="M46.99,33.38c-.52-1.25-1.04-2.5-1.58-3.74a1.386,1.386,0,0,0-2.01-.83c-1.26.53-2.52,1.06-3.78,1.6a1.356,1.356,0,0,0-.83,1.83,1.393,1.393,0,0,0,1.91.66c.3-.12.6-.25.97-.4-.08.2-.12.31-.17.42-3.09,6.46-8.16,10.33-15.26,11.32a18.712,18.712,0,0,1-15.36-4.69,19.043,19.043,0,0,1-5.93-9.57,1.359,1.359,0,1,0-2.61.71Q6.33,43.9,19.83,46.78c.83.18,1.69.24,2.54.36h2.71c.94-.13,1.89-.2,2.81-.4A21.958,21.958,0,0,0,44,33.94c.03-.07.08-.14.15-.27l.33.76a1.363,1.363,0,1,0,2.5-1.05ZM4.46,18.95c1.35-.55,2.7-1.12,4.03-1.7a1.335,1.335,0,0,0,.72-1.8,1.36,1.36,0,0,0-1.79-.68c-.29.11-.57.23-.94.39.1-.23.15-.36.21-.49,3.33-6.54,8.62-10.32,15.93-11A18.719,18.719,0,0,1,38.36,9.64a19.069,19.069,0,0,1,4.71,8.43,1.354,1.354,0,1,0,2.6-.73,28.229,28.229,0,0,0-.92-2.73A21.882,21.882,0,0,0,21.59,1.05C13.57,2.06,7.79,6.4,4.19,13.64c-.08.16-.16.31-.27.55-.17-.4-.3-.73-.45-1.05a1.374,1.374,0,0,0-1.65-.76,1.636,1.636,0,0,0-.95.96v.72a3.718,3.718,0,0,1,.19.34c.54,1.26,1.06,2.52,1.61,3.78a1.323,1.323,0,0,0,1.81.79ZM35.54,28a4.068,4.068,0,0,0,3.2-5.33,3.894,3.894,0,0,0-3.13-2.68.846.846,0,0,1-.6-1.33,3.94,3.94,0,0,0,.76-2.19,3.892,3.892,0,0,0-2.16-3.78,3.95,3.95,0,0,0-4.35.34.766.766,0,0,1-.3.17,1.084,1.084,0,0,1-.95-.82,4.061,4.061,0,0,0-8.01.06.835.835,0,0,1-1.29.54,4.2,4.2,0,0,0-2.68-.77,3.9,3.9,0,0,0-3.32,2.18,3.984,3.984,0,0,0,.32,4.27.838.838,0,0,1-.54,1.29,4.051,4.051,0,0,0-3.21,5.28,3.9,3.9,0,0,0,3.14,2.73.85.85,0,0,1,.6,1.33,4.058,4.058,0,0,0,1.4,5.96,3.931,3.931,0,0,0,4.35-.34.655.655,0,0,1,.35-.16,1.011,1.011,0,0,1,.92.89,1.981,1.981,0,0,0,.06.26,4.065,4.065,0,0,0,7.93-.37.842.842,0,0,1,1.34-.56,4.065,4.065,0,0,0,5.67-5.67.834.834,0,0,1,.52-1.33ZM34.1,25.35a1.346,1.346,0,0,0-1.24.9c-.33.81-.67,1.61-1,2.41a1.327,1.327,0,0,0,.25,1.51c.16.18.34.34.51.52a1.359,1.359,0,1,1-1.92,1.92c-.18-.16-.34-.35-.52-.51a1.351,1.351,0,0,0-1.55-.23c-.77.33-1.55.66-2.33.97a1.363,1.363,0,0,0-.94,1.3v.81a1.352,1.352,0,0,1-2.7,0c-.02-.27,0-.54,0-.81a1.357,1.357,0,0,0-.93-1.3c-.78-.31-1.56-.63-2.33-.97a1.4,1.4,0,0,0-1.59.25c-.2.18-.38.39-.58.57a1.351,1.351,0,0,1-1.89-1.93c.18-.2.39-.38.57-.58a1.351,1.351,0,0,0,.24-1.55c-.33-.77-.66-1.55-.97-2.33a1.357,1.357,0,0,0-1.34-.95h-.77a1.363,1.363,0,0,1-1.3-1.36,1.277,1.277,0,0,1,1.31-1.33,1.938,1.938,0,0,0,2.36-1.76,7.048,7.048,0,0,1,.64-1.44,1.372,1.372,0,0,0-.26-1.73c-.18-.19-.37-.36-.54-.55a1.348,1.348,0,0,1,1.87-1.93c.22.18.41.4.62.59a1.4,1.4,0,0,0,1.62.27c.76-.33,1.52-.65,2.28-.95a1.374,1.374,0,0,0,.96-1.33v-.77a1.356,1.356,0,0,1,2.71-.01c.01.24,0,.48,0,.72a1.4,1.4,0,0,0,1,1.4c.74.28,1.48.59,2.2.91a1.4,1.4,0,0,0,1.7-.27,6.276,6.276,0,0,1,.66-.61,1.291,1.291,0,0,1,1.41-.11,1.529,1.529,0,0,1,.8,1.25,7.561,7.561,0,0,1-.47.89,4.592,4.592,0,0,1-.53.55,1.38,1.38,0,0,0-.25,1.59c.33.76.65,1.52.95,2.28a1.38,1.38,0,0,0,1.32.97h.72a1.344,1.344,0,0,1,1.36,1.34,1.362,1.362,0,0,1-1.38,1.37c-.26,0-.51-.01-.77,0ZM24.03,19.92a4.065,4.065,0,1,0,4.04,4.11A4.08,4.08,0,0,0,24.03,19.92Zm0,5.42A1.355,1.355,0,1,1,24,22.63a1.355,1.355,0,0,1,.03,2.71Z" fill="#28a1ff"/>
  </g>
</svg>
