<svg id="Layer_1-2" xmlns="http://www.w3.org/2000/svg" width="48" height="48" viewBox="0 0 48 48">
  <g id="Group_2" data-name="Group 2">
    <rect id="Rectangle_3" data-name="Rectangle 3" width="48" height="48" fill="none"/>
    <path id="Path_2" data-name="Path 2" d="M13.8,37.05V25.44c-1.41,0-2.8.03-4.19-.01a8.367,8.367,0,0,1-2.06-.26,6.925,6.925,0,0,1-5.22-5.68,6.932,6.932,0,0,1,2.79-7.07,1.047,1.047,0,0,0,.44-.73,11.611,11.611,0,0,1,9.45-9.28A11.393,11.393,0,0,1,25.19,5.66a.616.616,0,0,0,.64.18A8.619,8.619,0,0,1,33.84,7.9a.813.813,0,0,0,.55.2,7.189,7.189,0,0,1,6.86,3.15,1.663,1.663,0,0,0,.52.47,7.251,7.251,0,0,1-3.26,13.73h-4.3v8.68h3.12a4.422,4.422,0,0,1,5.21-2.74,4.355,4.355,0,0,1-.1,8.46,4.425,4.425,0,0,1-5.11-2.79H33.01c-1.18,0-1.73-.54-1.73-1.71V25.48H25.49V37.31a4.388,4.388,0,0,1,2.56,2.47,4.354,4.354,0,1,1-5.94-2.27.679.679,0,0,0,.46-.74c-.02-3.6-.01-7.19-.01-10.79v-.52H16.74V38.2c0,1.21-.53,1.74-1.74,1.74H10.68a4.372,4.372,0,1,1-.21-3.35.669.669,0,0,0,.74.46c.86-.03,1.72-.01,2.61-.01ZM23.98,22.54H38.52a4.342,4.342,0,0,0,1.62-8.37,2.207,2.207,0,0,1-1.16-1.01,4.221,4.221,0,0,0-4.83-2.05,1.6,1.6,0,0,1-1.75-.52,5.8,5.8,0,0,0-6.7-1.68A1.554,1.554,0,0,1,24.69,9a3.365,3.365,0,0,1-1.09-.83,8.479,8.479,0,0,0-8.04-2.88A8.539,8.539,0,0,0,8.34,12.9a1.954,1.954,0,0,1-1.05,1.57,4.117,4.117,0,0,0-2.16,3.56,4.326,4.326,0,0,0,4.42,4.51c4.81.01,9.63,0,14.44,0ZM41.45,37.05A1.445,1.445,0,1,0,40,35.61,1.449,1.449,0,0,0,41.45,37.05Zm-34.87,0a1.469,1.469,0,0,0-1.47,1.42,1.45,1.45,0,1,0,1.46-1.43ZM24,42.85a1.445,1.445,0,1,0-1.44-1.45A1.469,1.469,0,0,0,24,42.85Z" fill="#28a1ff"/>
  </g>
</svg>
