<?xml version="1.0" encoding="UTF-8"?><svg id="Layer_2" xmlns="http://www.w3.org/2000/svg" viewBox="0 0 48 48"><defs><style>.cls-1{fill:#0091ff;}.cls-2{fill:none;}</style></defs><g id="Layer_1-2"><g><rect class="cls-2" width="48" height="48"/><g><g><polygon class="cls-1" points="30.06 13.46 27.86 11.06 33.58 5.82 47.27 5.82 47.27 9.07 34.84 9.07 30.06 13.46"/><polygon class="cls-1" points="14.49 42.18 .73 42.18 .73 38.93 13.08 38.93 17.58 34.14 19.95 36.36 14.49 42.18"/></g><path class="cls-1" d="M22.13,32.11c-5.03,0-9.13-4.1-9.13-9.13s4.09-9.13,9.13-9.13,9.13,4.1,9.13,9.13-4.09,9.13-9.13,9.13Zm0-15.01c-3.24,0-5.88,2.64-5.88,5.88s2.64,5.88,5.88,5.88,5.88-2.64,5.88-5.88-2.64-5.88-5.88-5.88Z"/><path class="cls-1" d="M24.71,22.58c-.65,0-1.18-.53-1.18-1.18,0-.47,.28-.87,.67-1.06-.57-.45-1.29-.72-2.08-.72-1.86,0-3.37,1.51-3.37,3.37s1.51,3.37,3.37,3.37,3.37-1.51,3.37-3.37c0-.22-.02-.44-.06-.65-.2,.15-.45,.25-.72,.25Z"/><path class="cls-1" d="M23.59,37.25l-.33-3.23c1.21-.12,2.38-.44,3.47-.94l1.35,2.95c-1.42,.65-2.94,1.06-4.5,1.22Zm-3.5-.07c-1.55-.22-3.05-.69-4.45-1.4l1.47-2.9c1.08,.55,2.24,.91,3.43,1.08l-.46,3.21Zm10.97-2.99l-2.03-2.54c.95-.76,1.76-1.66,2.42-2.68l2.73,1.76c-.85,1.32-1.9,2.48-3.12,3.46Zm-18.33-.37c-1.18-1.03-2.19-2.23-2.98-3.58l2.8-1.65c.61,1.04,1.39,1.98,2.31,2.77l-2.13,2.45Zm22.97-6.25l-3.08-1.04c.39-1.14,.58-2.34,.58-3.56v-.03h3.25v.03c0,1.57-.25,3.12-.75,4.6Zm-27.34-.54c-.39-1.31-.58-2.67-.58-4.05,0-.19,0-.38,.01-.57l3.24,.13c0,.15,0,.29,0,.44,0,1.07,.15,2.12,.45,3.14l-3.12,.92Zm24.52-6.77c-.29-1.17-.78-2.28-1.44-3.3l2.73-1.76c.85,1.32,1.48,2.76,1.86,4.27l-3.15,.79Zm-21.41-.4l-3.12-.91c.44-1.5,1.12-2.92,2.02-4.2l2.66,1.86c-.7,.99-1.22,2.09-1.56,3.25Zm18.23-4.98c-.89-.83-1.89-1.51-2.99-2.01l1.35-2.96c1.42,.65,2.73,1.52,3.87,2.59l-2.22,2.37Zm-14.86-.28l-2.13-2.45c1.18-1.03,2.52-1.85,3.96-2.45l1.23,3c-1.12,.46-2.15,1.1-3.07,1.89Zm9.28-2.54c-.66-.12-1.33-.18-2.01-.18h0c-.54,0-1.07,.04-1.6,.11l-.46-3.21c.68-.1,1.37-.15,2.06-.15h0c.87,0,1.74,.08,2.59,.23l-.58,3.19Z"/><g><rect class="cls-1" x="38.66" y="1" width="8.61" height="3.25"/><rect class="cls-1" x=".73" y="43.75" width="8.61" height="3.25"/><rect class="cls-1" x="38.66" y="43.75" width="8.61" height="3.25"/><rect class="cls-1" x="38.66" y="38.93" width="8.61" height="3.25"/><rect class="cls-1" x="38.66" y="34.11" width="8.61" height="3.25"/></g></g></g></g></svg>