<svg xmlns="http://www.w3.org/2000/svg" viewBox="0 0 32 32"><defs><style>.cls-1{fill:none;}.cls-2{fill:#b4b7c9;}.cls-3{fill:#0091ff;}</style></defs><g id="Layer_2" data-name="Layer 2"><g id="Layer_1-2" data-name="Layer 1"><rect class="cls-1" width="32" height="32"/><path class="cls-2" d="M26.74,6.88,19.57,2.74a8.27,8.27,0,0,0-3.11-1.33h-.91a6.45,6.45,0,0,0-2.21.8c-2.7,1.57-5.42,3.12-8.13,4.7a4.7,4.7,0,0,0-2.49,4.31v9.57a4.68,4.68,0,0,0,2.47,4.29c2.78,1.61,5.55,3.22,8.34,4.8a5.5,5.5,0,0,0,1.47.58,4.59,4.59,0,0,0,3.5-.58l8.24-4.75a4.77,4.77,0,0,0,2.54-4.4V11.27A4.74,4.74,0,0,0,26.74,6.88ZM25.66,23.12l-8.31,4.79a2.53,2.53,0,0,1-2.7,0l-8.3-4.79A2.49,2.49,0,0,1,5,20.79C5,19.19,5,17.6,5,16s0-3.19,0-4.78A2.49,2.49,0,0,1,6.35,8.88l8.3-4.79a2.51,2.51,0,0,1,2.7,0l8.3,4.79A2.49,2.49,0,0,1,27,11.21v9.57A2.5,2.5,0,0,1,25.66,23.12Z"/><path class="cls-3" d="M12.41,16,9.34,13.4a1.24,1.24,0,0,1-.52-.85,1.09,1.09,0,0,1,.57-1.12,1.05,1.05,0,0,1,1.25.1c.57.45,1.11.92,1.66,1.39L14.8,15a1.16,1.16,0,0,1,0,1.94l-4,3.4a1.14,1.14,0,1,1-1.5-1.71l2.37-2Z"/><path class="cls-3" d="M19.48,18.45H22.1a1.13,1.13,0,0,1,.38,2.18,1.33,1.33,0,0,1-.44.09q-2.55,0-5.1,0a1.13,1.13,0,0,1-.3-2.23,1.5,1.5,0,0,1,.42,0Z"/></g></g></svg>