<svg xmlns="http://www.w3.org/2000/svg" width="335" height="285.699" viewBox="0 0 335 285.699">
  <g id="Group_1316" data-name="Group 1316" transform="translate(-16343 -4628.301)">
    <rect id="Rectangle_2497" data-name="Rectangle 2497" width="335" height="285" transform="translate(16343 4629)" fill="none"/>
    <g id="freepik--background-complete--inject-36" transform="translate(16343 4628.301)">
      <rect id="Rectangle_2379" data-name="Rectangle 2379" width="335" height="0.185" transform="translate(0 252.207)" fill="#ebebeb"/>
      <rect id="Rectangle_2380" data-name="Rectangle 2380" width="24.563" height="0.185" transform="translate(273.281 264.139)" fill="#ebebeb"/>
      <rect id="Rectangle_2381" data-name="Rectangle 2381" width="6.445" height="0.185" transform="translate(215.686 266.157)" fill="#ebebeb"/>
      <rect id="Rectangle_2382" data-name="Rectangle 2382" width="14.232" height="0.185" transform="translate(264.581 257.257)" fill="#ebebeb"/>
      <rect id="Rectangle_2383" data-name="Rectangle 2383" width="32.031" height="0.185" transform="translate(38.906 258.503)" fill="#ebebeb"/>
      <rect id="Rectangle_2384" data-name="Rectangle 2384" width="4.695" height="0.185" transform="translate(69.959 258.503)" fill="#ebebeb"/>
      <rect id="Rectangle_2385" data-name="Rectangle 2385" width="69.476" height="0.185" transform="translate(85.914 261.633)" fill="#ebebeb"/>
      <path id="Path_29162" data-name="Path 29162" d="M185.639,264.733H42.437A4.235,4.235,0,0,1,38.21,260.5V59.2A4.235,4.235,0,0,1,42.437,55h143.2a4.235,4.235,0,0,1,4.235,4.235V260.5A4.235,4.235,0,0,1,185.639,264.733ZM42.437,55.148A4.049,4.049,0,0,0,38.4,59.2V260.5a4.049,4.049,0,0,0,4.042,4.049h143.2a4.057,4.057,0,0,0,4.049-4.049V59.2a4.057,4.057,0,0,0-4.049-4.049Z" transform="translate(-9.872 -45.604)" fill="#ebebeb"/>
      <path id="Path_29163" data-name="Path 29163" d="M401.944,264.733H258.735A4.242,4.242,0,0,1,254.5,260.5V59.2a4.242,4.242,0,0,1,4.235-4.2H401.944a4.235,4.235,0,0,1,4.22,4.2V260.5A4.235,4.235,0,0,1,401.944,264.733ZM258.735,55.148a4.057,4.057,0,0,0-4.049,4.049V260.5a4.057,4.057,0,0,0,4.049,4.049H401.944a4.057,4.057,0,0,0,4.049-4.049V59.2a4.057,4.057,0,0,0-4.049-4.049Z" transform="translate(-101.571 -45.604)" fill="#ebebeb"/>
      <path id="Path_29164" data-name="Path 29164" d="M277.614,135.631l-.334-9.745,5.985-1.951a57.847,57.847,0,0,1,1.594-9.79l-5.073-3.708,3.441-9.159,6.274.512a57.581,57.581,0,0,1,5.191-8.418l-3.248-5.429,6.675-7.127,5.651,2.84a62.023,62.023,0,0,1,8.039-5.807l-.9-6.222,8.9-4.042,4.079,4.776a60.614,60.614,0,0,1,9.641-2.225l1.483-6.1,9.775-.341,1.928,5.985a61.309,61.309,0,0,1,9.782,1.594l3.767-5.043,9.159,3.419-.512,6.274a59.679,59.679,0,0,1,8.418,5.243l5.4-3.248,7.157,6.675-2.87,5.629a58,58,0,0,1,5.785,8.039l6.222-.934,4.131,8.862-4.806,4.079a58.071,58.071,0,0,1,2.225,9.641l6.126,1.535.334,9.745-6.007,1.958a57.367,57.367,0,0,1-1.595,9.79l5.073,3.708-3.449,9.152-6.267-.5a57.382,57.382,0,0,1-5.228,8.418l3.256,5.421-6.675,7.134-5.607-2.878a59.932,59.932,0,0,1-8.039,5.814l.934,6.222-8.9,4.034-4.1-4.776a59.821,59.821,0,0,1-9.641,2.262l-1.483,6.1-9.775.334L337.6,187.4a59.643,59.643,0,0,1-9.79-1.594l-3.708,5.043-9.2-3.389.482-6.267a60.331,60.331,0,0,1-8.417-5.251l-5.414,3.248-7.157-6.675,2.87-5.636a57.553,57.553,0,0,1-5.8-8.032l-6.23.949-4.064-8.9,4.806-4.079a57.551,57.551,0,0,1-2.262-9.641ZM343.463,167.2A38.684,38.684,0,1,0,303.5,129.883,38.683,38.683,0,0,0,343.463,167.2Z" transform="translate(-107.456 -47.851)" fill="#ebebeb"/>
      <path id="Path_29165" data-name="Path 29165" d="M119.718,305.134l-.148-4.39,2.7-.883a26.453,26.453,0,0,1,.742-4.413l-2.284-1.684,1.55-4.131,2.826.23a25.955,25.955,0,0,1,2.358-3.8l-1.483-2.447L129,280.408l2.522,1.3a28.015,28.015,0,0,1,3.627-2.625l-.408-2.8,4.012-1.824,1.832,2.18a27.785,27.785,0,0,1,4.353-1.023l.682-2.751,4.405-.148.868,2.7a26.858,26.858,0,0,1,4.413.742l1.7-2.277,4.131,1.543-.23,2.826a28.06,28.06,0,0,1,3.8,2.366l2.433-1.483,3.226,2.967-1.3,2.544a25.275,25.275,0,0,1,2.611,3.627l2.811-.423,1.832,4.012-2.166,1.839a26.55,26.55,0,0,1,1.016,4.353l2.766.69.148,4.4-2.707.883a26.209,26.209,0,0,1-.742,4.413l2.284,1.684-1.55,4.131-2.833-.23a26.565,26.565,0,0,1-2.351,3.8l1.483,2.44-3.011,3.219-2.529-1.3a26.578,26.578,0,0,1-3.627,2.625l.423,2.8-4.012,1.817-1.847-2.151a27.976,27.976,0,0,1-4.353,1.023l-.682,2.751-4.405.148-.875-2.7a26.976,26.976,0,0,1-4.45-.742l-1.639,2.284-4.138-1.483.222-2.826a28.063,28.063,0,0,1-3.8-2.366l-2.433,1.483-3.226-2.967,1.29-2.544a25.863,25.863,0,0,1-2.611-3.627l-2.8.423-1.832-4.012,2.166-1.839a26.208,26.208,0,0,1-1.023-4.353Zm29.665,14.239a18.1,18.1,0,1,1,.03,0Z" transform="translate(-41.063 -101.853)" fill="#f5f5f5"/>
      <path id="Path_29166" data-name="Path 29166" d="M114.789,82.133l-2.455-2.225.979-1.936a20.083,20.083,0,0,1-2-2.818l-2.151.326-1.387-3.07L109.419,71a19.824,19.824,0,0,1-.742-3.323l-2.114-.534-.1-3.367,2.062-.667a20.915,20.915,0,0,1,.549-3.374l-1.743-1.3,1.187-3.152,2.158.171a20.951,20.951,0,0,1,1.8-2.907L111.31,50.7l2.3-2.47,1.936.994a21,21,0,0,1,2.774-2l-.3-2.166,3.063-1.4,1.409,1.654a20.64,20.64,0,0,1,3.33-.742l.527-2.106,3.367-.126.675,2.077a19.282,19.282,0,0,1,3.367.549l1.283-1.75,3.159,1.172-.193,2.158a19.713,19.713,0,0,1,2.967,1.81l1.869-1.112L145.27,49.5l-.994,1.943a19.28,19.28,0,0,1,2,2.774l2.114-.267,1.394,3.078L148.162,58.4a19.9,19.9,0,0,1,.779,3.33l2.121.527.1,3.367-2.069.667a20.319,20.319,0,0,1-.541,3.382l1.75,1.283-1.172,3.152-2.18-.133a20.877,20.877,0,0,1-1.8,2.9l1.12,1.861-2.329,2.433-1.928-.986a20.943,20.943,0,0,1-2.774,1.995l.319,2.143-3.033,1.4-1.409-1.646a21.463,21.463,0,0,1-3.33.742l-.527,2.106-3.367.119-.675-2.069a19.919,19.919,0,0,1-3.367-.549l-1.29,1.743L119.4,84.989l.171-2.166a19.794,19.794,0,0,1-2.9-1.8Zm17.517-14.187a2.022,2.022,0,1,0,0,.03Z" transform="translate(-36.177 -42.33)" fill="#ebebeb"/>
      <path id="Path_29167" data-name="Path 29167" d="M209.38,299.877l5.607-3.871h0a30.482,30.482,0,0,1,2.225-5.837l-1.439-5.644,8.158-8.714,5.725,1.053a30.614,30.614,0,0,1,5.666-2.648h0l3.486-5.859,11.911-.408,3.871,5.607h0a30.274,30.274,0,0,1,5.837,2.225l5.636-1.431,8.714,8.158-1.046,5.711h0a29.85,29.85,0,0,1,2.648,5.688l5.866,3.478.408,11.918-5.614,3.871a30.315,30.315,0,0,1-2.225,5.874h0l1.431,5.622-8.158,8.714-5.7-1.046a31.376,31.376,0,0,1-5.718,2.655h0l-3.478,5.851-11.911.408-3.871-5.6a31.467,31.467,0,0,1-5.889-2.225h0l-5.607,1.424-8.714-8.158,1.046-5.718a29.909,29.909,0,0,1-2.648-5.7h0l-5.866-3.478Zm37.126,18.111a12.958,12.958,0,1,0,0,.015Z" transform="translate(-72.789 -100.623)" fill="#ebebeb"/>
      <path id="Path_29168" data-name="Path 29168" d="M67.356,105.6a.831.831,0,0,1-.69-.363L64.6,102.266a19.328,19.328,0,0,1-2.967-1.142l-2.967.742a.823.823,0,0,1-.786-.2l-5.043-4.709a.823.823,0,0,1-.26-.742l.556-2.967a17.97,17.97,0,0,1-1.342-2.885l-3.137-1.869a.853.853,0,0,1-.415-.69L48,80.781a.853.853,0,0,1,.363-.742L51.33,77.97A17.7,17.7,0,0,1,52.472,75l-.742-2.967a.868.868,0,0,1,.2-.786l4.717-5.043a.838.838,0,0,1,.742-.252L60.4,66.5a18.74,18.74,0,0,1,2.878-1.342l1.861-3.137a.838.838,0,0,1,.7-.408l6.9-.237a.853.853,0,0,1,.742.363l2.069,2.967a18.858,18.858,0,0,1,2.967,1.142l2.967-.742a.853.853,0,0,1,.742.2l5.088,4.754a.838.838,0,0,1,.252.742l-.549,2.967a18.994,18.994,0,0,1,1.342,2.892l3.137,1.862a.831.831,0,0,1,.408.69l.237,6.9a.845.845,0,0,1-.363.742L88.8,88.939a18.542,18.542,0,0,1-1.135,2.967l.742,2.967a.845.845,0,0,1-.2.786L83.5,100.7a.86.86,0,0,1-.742.252l-2.967-.549a18.281,18.281,0,0,1-2.9,1.35l-1.862,3.13a.838.838,0,0,1-.7.408l-6.9.237ZM61.7,99.359a.86.86,0,0,1,.378.089,16.554,16.554,0,0,0,3.248,1.246.838.838,0,0,1,.475.334l1.98,2.87,5.985-.2,1.772-2.967a.883.883,0,0,1,.475-.378,17.1,17.1,0,0,0,3.137-1.483.853.853,0,0,1,.586-.1l2.84.519,4.086-4.376L85.927,92.1a.868.868,0,0,1,.067-.593,16.4,16.4,0,0,0,1.239-3.234.816.816,0,0,1,.341-.475l2.87-1.98-.171-6.022-2.967-1.78a.816.816,0,0,1-.363-.452,16.627,16.627,0,0,0-1.483-3.115.875.875,0,0,1-.119-.608l.482-2.863L81.447,66.9l-2.818.742a.912.912,0,0,1-.593-.067,16.991,16.991,0,0,0-3.189-1.283.86.86,0,0,1-.482-.334L72.377,63.1l-5.978.222-1.787,2.967a.779.779,0,0,1-.326.311l-.171.074a16.13,16.13,0,0,0-3.085,1.446.845.845,0,0,1-.586.1L57.582,67.7,53.5,72.074l.742,2.818a.86.86,0,0,1-.059.593A16.694,16.694,0,0,0,52.931,78.7a.868.868,0,0,1-.341.482l-2.87,1.98.208,5.985,2.967,1.78a.845.845,0,0,1,.363.452,16.634,16.634,0,0,0,1.483,3.137.853.853,0,0,1,.1.586l-.519,2.855,4.376,4.086,2.8-.742a.638.638,0,0,1,.2.015ZM86.179,74.024ZM70.071,96.1a12.608,12.608,0,1,1,.445,0Zm0-23.547h-.386A10.934,10.934,0,1,0,70.427,94.4h0a10.933,10.933,0,1,0-.363-21.863Z" transform="translate(-12.401 -47.252)" fill="#ebebeb"/>
    </g>
    <g id="freepik--Shadow--inject-36" transform="translate(16366.705 4897.209)">
      <ellipse id="freepik--path--inject-36" cx="143.795" cy="8.395" rx="143.795" ry="8.395" fill="#f5f5f5"/>
    </g>
    <g id="freepik--Website--inject-36" transform="translate(16375.701 4657.663)">
      <rect id="Rectangle_2386" data-name="Rectangle 2386" width="268.797" height="179.779" rx="14.81" transform="translate(0.4 0.4)" fill="#fff"/>
      <path id="Path_29169" data-name="Path 29169" d="M435,238.669h-.742v-6.675H435Zm0-11.94h-.742V212.89H435Z" transform="translate(-162.808 -115.759)" fill="#0091ff"/>
      <path id="Path_29170" data-name="Path 29170" d="M326.454,262.5H79.624A11.4,11.4,0,0,1,68.24,251.116V93.3A11.391,11.391,0,0,1,79.624,81.92h246.83A11.391,11.391,0,0,1,337.838,93.3V251.116A11.4,11.4,0,0,1,326.454,262.5ZM79.624,82.721A10.59,10.59,0,0,0,69.041,93.3V251.116A10.59,10.59,0,0,0,79.624,261.7h246.83a10.59,10.59,0,0,0,10.583-10.583V93.3a10.591,10.591,0,0,0-10.583-10.583Z" transform="translate(-68.24 -81.92)" fill="#0091ff"/>
      <path id="Path_29171" data-name="Path 29171" d="M163.961,240.477h-3.708v-.8h3.708l.067.8Zm-7.476,0H152.74v-.8h3.745Zm-7.483,0h-3.708v-.8H149Zm-7.476,0h-3.745v-.8h3.745Zm-7.483,0h-3.708v-.8h3.708Zm-7.483,0h-3.708v-.8h3.708Zm-7.476,0h-3.708v-.8h3.708Zm-7.483,0h-3.708v-.8H111.6Zm-7.476,0h-3.708v-.8h3.708Zm-7.483,0H95.248a5.37,5.37,0,0,1-2.44-.579l.356-.742a4.613,4.613,0,0,0,2.084.5H96.62Zm71.041-1.483-.541-.586a4.643,4.643,0,0,0,1.483-3.033l.8.067a5.458,5.458,0,0,1-1.743,3.567Zm-77.53-2.039a5.562,5.562,0,0,1-.363-1.965v-1.884h.8v1.884a4.606,4.606,0,0,0,.311,1.676Zm79.266-5.3h-.8v-3.708h.8ZM90.591,229.4h-.8v-3.708h.8Zm78.828-5.191h-.8V220.5h.8Zm-78.828-2.284h-.8v-3.708h.8Zm78.828-5.191h-.8v-3.708h.8Zm-78.828-2.292h-.8v-3.708h.8Zm78.828-5.191h-.8v-3.708h.8Zm-78.828-2.284h-.8v-3.745h.8Zm78.828-5.191h-.8v-3.708h.8ZM90.591,199.48h-.8v-3.708h.8Zm78.828-5.191h-.8v-3.745h.8ZM90.591,192h-.8v-3.708h.8Zm78.828-5.191h-.8V183.1h.8Zm-78.828-2.284h-.8v-3.708h.8Zm78.828-5.191h-.8v-3.745h.8Zm-78.828-2.292h-.8V173.33h.8Zm78.828-5.191h-.8v-3.708h.8Zm-78.828-2.284h-.8v-3.708h.8Zm78.828-5.191h-.8v-3.708h.8ZM90.591,162.05h-.8v-3.708h.8Zm78.828-5.191h-.8V153.15h.8Zm-78.828-2.225h-.8v-3.745h.8Zm78.828-5.191h-.8V147.6a4.576,4.576,0,0,0-.319-1.7l.742-.3a5.384,5.384,0,0,1,.378,1.995Zm-78.806-2.225-.8-.067a5.473,5.473,0,0,1,1.735-3.545l.549.593a4.6,4.6,0,0,0-1.483,2.959Zm75.409-3.775a4.605,4.605,0,0,0-2.062-.482h-1.424v-.86h1.424a5.459,5.459,0,0,1,2.418.564Zm-7.223-.482h-3.708v-.86H158.8Zm-7.483,0h-3.708v-.86h3.708Zm-7.476,0h-3.708v-.86h3.708Zm-7.483,0h-3.708v-.86h3.708Zm-7.476,0h-3.745v-.86h3.745Zm-7.483,0H117.69v-.86H121.4Zm-7.476,0h-3.708v-.86h3.708Zm-7.483,0h-3.708v-.86h3.708Zm-7.483,0H95.248v-.8h3.708Z" transform="translate(-73.808 -97.469)" fill="#0091ff" opacity="0.5"/>
      <path id="Path_29172" data-name="Path 29172" d="M94.95,96.825a3.545,3.545,0,1,1-3.538-3.545A3.545,3.545,0,0,1,94.95,96.825Z" transform="translate(-73.309 -84.855)" fill="#0091ff"/>
      <path id="Path_29173" data-name="Path 29173" d="M121.988,99.406H104.627a2.084,2.084,0,0,1-2.077-2.069h0a2.084,2.084,0,0,1,2.077-2.077h17.362a2.084,2.084,0,0,1,2.077,2.077h0A2.084,2.084,0,0,1,121.988,99.406Z" transform="translate(-77.105 -85.367)" fill="#0091ff" opacity="0.2"/>
      <path id="Path_29174" data-name="Path 29174" d="M237.02,98.8H224.835a1.135,1.135,0,0,1-1.135-1.135h0a1.127,1.127,0,0,1,1.135-1.135H237.02a1.127,1.127,0,0,1,1.135,1.135h0A1.135,1.135,0,0,1,237.02,98.8Z" transform="translate(-108.406 -85.695)" fill="#0091ff" opacity="0.2"/>
      <path id="Path_29175" data-name="Path 29175" d="M273.89,98.8H261.7a1.142,1.142,0,0,1-1.135-1.135h0A1.135,1.135,0,0,1,261.7,96.53H273.89a1.127,1.127,0,0,1,1.135,1.135h0A1.135,1.135,0,0,1,273.89,98.8Z" transform="translate(-117.932 -85.695)" fill="#0091ff" opacity="0.2"/>
      <path id="Path_29176" data-name="Path 29176" d="M310.767,98.8H298.6a1.142,1.142,0,0,1-1.135-1.135h0A1.135,1.135,0,0,1,298.6,96.53h12.163a1.135,1.135,0,0,1,1.142,1.135h0A1.142,1.142,0,0,1,310.767,98.8Z" transform="translate(-127.466 -85.695)" fill="#0091ff" opacity="0.2"/>
      <path id="Path_29177" data-name="Path 29177" d="M347.637,98.8H335.445a1.142,1.142,0,0,1-1.135-1.135h0a1.135,1.135,0,0,1,1.135-1.135h12.192a1.135,1.135,0,0,1,1.135,1.135h0a1.142,1.142,0,0,1-1.135,1.135Z" transform="translate(-136.984 -85.695)" fill="#0091ff" opacity="0.2"/>
      <path id="Path_29178" data-name="Path 29178" d="M392.339,99.362H373.9a2,2,0,0,1-2-2h0a2,2,0,0,1,2-2.01h18.437a2,2,0,0,1,2,2.01h0A2,2,0,0,1,392.339,99.362Z" transform="translate(-146.696 -85.39)" fill="#0091ff" opacity="0.7"/>
      <rect id="Rectangle_2387" data-name="Rectangle 2387" width="43.074" height="9.471" rx="4.735" transform="translate(115.294 140.035)" fill="#0091ff" opacity="0.7"/>
      <path id="Path_29179" data-name="Path 29179" d="M399.1,200.733V164.675a1.127,1.127,0,0,1,1.135-1.135h0a1.135,1.135,0,0,1,1.135,1.135v36.058a1.135,1.135,0,0,1-1.135,1.135h0a1.127,1.127,0,0,1-1.135-1.135Z" transform="translate(-153.724 -103.008)" fill="#0091ff" opacity="0.2"/>
      <circle id="Ellipse_258" data-name="Ellipse 258" cx="1.135" cy="1.135" r="1.135" transform="translate(245.376 106.877)" fill="#0091ff" opacity="0.2"/>
      <circle id="Ellipse_259" data-name="Ellipse 259" cx="1.135" cy="1.135" r="1.135" transform="translate(245.376 122.911)" fill="#0091ff" opacity="0.2"/>
      <circle id="Ellipse_260" data-name="Ellipse 260" cx="1.135" cy="1.135" r="1.135" transform="translate(245.376 138.945)" fill="#0091ff" opacity="0.2"/>
      <rect id="Rectangle_2388" data-name="Rectangle 2388" width="106.068" height="18.207" rx="9.104" transform="translate(115.294 45.032)" fill="#0091ff" opacity="0.2"/>
      <path id="Path_29180" data-name="Path 29180" d="M288.45,196.494H232.827a9.129,9.129,0,0,1-9.107-9.107h0a9.129,9.129,0,0,1,9.107-9.107H288.45a9.13,9.13,0,0,1,9.1,9.107h0A9.129,9.129,0,0,1,288.45,196.494Z" transform="translate(-108.411 -106.816)" fill="#0091ff" opacity="0.2"/>
      <path id="Path_29181" data-name="Path 29181" d="M304.76,230.067H225.828a2.136,2.136,0,0,1-2.128-2.128h0a2.136,2.136,0,0,1,2.128-2.128H304.76a2.136,2.136,0,0,1,2.128,2.128h0a2.136,2.136,0,0,1-2.128,2.128Z" transform="translate(-108.406 -119.097)" fill="#ebebeb"/>
      <path id="Path_29182" data-name="Path 29182" d="M354.495,230.067h-8.076a2.136,2.136,0,0,1-2.129-2.128h0a2.136,2.136,0,0,1,2.129-2.128h8.076a2.136,2.136,0,0,1,2.128,2.128h0a2.136,2.136,0,0,1-2.129,2.128Z" transform="translate(-139.563 -119.097)" fill="#ebebeb"/>
      <path id="Path_29183" data-name="Path 29183" d="M272.728,237.69h33.944a2.136,2.136,0,0,1,2.128,2.128h0a2.136,2.136,0,0,1-2.128,2.128H272.728a2.136,2.136,0,0,1-2.128-2.128h0A2.136,2.136,0,0,1,272.728,237.69Z" transform="translate(-120.523 -122.166)" fill="#ebebeb"/>
      <path id="Path_29184" data-name="Path 29184" d="M225.828,237.69h24.3a2.136,2.136,0,0,1,2.128,2.128h0a2.136,2.136,0,0,1-2.128,2.128h-24.3a2.136,2.136,0,0,1-2.128-2.128h0A2.136,2.136,0,0,1,225.828,237.69Z" transform="translate(-108.406 -122.166)" fill="#ebebeb"/>
      <path id="Path_29185" data-name="Path 29185" d="M273.656,253.827H225.828A2.136,2.136,0,0,1,223.7,251.7h0a2.136,2.136,0,0,1,2.128-2.128h47.828a2.136,2.136,0,0,1,2.128,2.128h0A2.136,2.136,0,0,1,273.656,253.827Z" transform="translate(-108.406 -125.235)" fill="#ebebeb"/>
      <path id="Path_29186" data-name="Path 29186" d="M328.779,253.827h-24.34a2.136,2.136,0,0,1-2.128-2.128h0a2.136,2.136,0,0,1,2.128-2.128h24.34a2.136,2.136,0,0,1,2.128,2.128h0A2.136,2.136,0,0,1,328.779,253.827Z" transform="translate(-128.716 -125.235)" fill="#ebebeb"/>
    </g>
    <g id="freepik--Character--inject-36" transform="translate(16397.35 4690.079)">
      <rect id="Rectangle_2389" data-name="Rectangle 2389" width="78.828" height="97.569" rx="6.7" transform="translate(0 14.744) rotate(-10.78)" fill="#0091ff"/>
      <g id="Group_1296" data-name="Group 1296" transform="translate(3.345 3.908)" opacity="0.2">
        <path id="Path_29187" data-name="Path 29187" d="M124.991,233.675a.393.393,0,0,1-.178-.044.378.378,0,0,1-.148-.5l54.6-102.034a.372.372,0,1,1,.653.356l-54.6,102.026a.378.378,0,0,1-.326.2Z" transform="translate(-107.801 -130.899)" fill="#fff"/>
        <path id="Path_29188" data-name="Path 29188" d="M190.565,224.813a.378.378,0,0,1-.237-.089l-88.254-74.831a.363.363,0,0,1-.044-.519.378.378,0,0,1,.527-.045l88.254,74.823a.386.386,0,0,1,.044.527.371.371,0,0,1-.289.133Z" transform="translate(-101.94 -135.638)" fill="#fff"/>
      </g>
      <path id="Path_29189" data-name="Path 29189" d="M209.77,264.07s9.641,33.618,13.6,50.127c4.123,17.339,16.383,43.549,17.406,55.044,1.061.423,4.494-.052,6.326-.942,0,0-1.676-36.644-11.644-53.331,2.225-41.079-8.9-50.9-8.9-50.9Z" transform="translate(-126.455 -161.398)" fill="#0091ff"/>
      <path id="Path_29190" data-name="Path 29190" d="M224.774,286.84,219.33,295.2c1.728,6.3,3.493,12.875,4.932,18.541C225.76,303.942,224.774,286.84,224.774,286.84Z" transform="translate(-128.925 -167.281)" opacity="0.1"/>
      <path id="Path_29191" data-name="Path 29191" d="M231.745,224.122c.156.46.267.786.378,1.172s.208.742.311,1.1c.2.742.356,1.483.512,2.225a43.071,43.071,0,0,1,.667,4.45,35.806,35.806,0,0,1,.193,4.554,33.437,33.437,0,0,1-.371,4.613v.252a2.789,2.789,0,0,1-.126.5,7.736,7.736,0,0,1-1.483,2.44,10.019,10.019,0,0,1-1.795,1.557,14.262,14.262,0,0,1-3.582,1.684,21.292,21.292,0,0,1-3.471.742,22.247,22.247,0,0,1-3.471.2,2.025,2.025,0,0,1-.794-3.856l.171-.082c.845-.386,1.8-.794,2.662-1.216a27.521,27.521,0,0,0,2.47-1.35,9.922,9.922,0,0,0,1.869-1.483c.46-.475.586-.9.512-.934l-.163.742c0-1.231,0-2.455-.074-3.708a35.889,35.889,0,0,0-.43-3.708c-.2-1.216-.415-2.514-.7-3.753-.133-.623-.289-1.246-.438-1.861l-.23-.9-.222-.823-.059-.215a4.02,4.02,0,0,1,7.661-2.336Z" transform="translate(-128.465 -150.425)" fill="#ff8b7b"/>
      <path id="Path_29192" data-name="Path 29192" d="M220.179,253.718l-4.843-1.379a2.967,2.967,0,0,0-2.091.163l-1.81.823a1.743,1.743,0,0,0-.845,2.344l.845,1.75a1.735,1.735,0,0,0,1.936.949l3.248-.7s3.649.237,4.939-1.928Z" transform="translate(-126.622 -158.336)" fill="#ff8b7b"/>
      <path id="Path_29193" data-name="Path 29193" d="M228.479,215.84c-2.6,2.692-3.983,6.749-1.876,14.5,2.774,1.372,9.493-.408,9.493-.408S236.192,218.287,228.479,215.84Z" transform="translate(-130.539 -148.937)" fill="#0091ff"/>
      <path id="Path_29194" data-name="Path 29194" d="M228.479,215.84c-2.6,2.692-3.983,6.749-1.876,14.5,2.774,1.372,9.493-.408,9.493-.408S236.192,218.287,228.479,215.84Z" transform="translate(-130.539 -148.937)" fill="#fff" opacity="0.7"/>
      <path id="Path_29195" data-name="Path 29195" d="M235.757,223.117a.237.237,0,0,0-.237.252.245.245,0,0,0,.245.23h0l1.209-.044c-.067-.156-.141-.319-.215-.475Z" transform="translate(-133.108 -150.807)" fill="#263238"/>
      <path id="Path_29196" data-name="Path 29196" d="M235.316,229.566a.244.244,0,0,0-.341.349l3.486,2.967a4.5,4.5,0,0,0-.037-.667Z" transform="translate(-132.948 -152.465)" fill="#263238"/>
      <path id="Path_29197" data-name="Path 29197" d="M225.969,229.735l3.923-2.462a.245.245,0,1,0-.26-.415l-3.753,2.358A1.418,1.418,0,0,0,225.969,229.735Z" transform="translate(-130.617 -151.774)" fill="#0091ff"/>
      <path id="Path_29198" data-name="Path 29198" d="M217.379,200.19c-.489,3.4-.838,9.582,1.572,11.518,0,0-3.182-.082-9.307,4.835-2.225-2.522-.942-3.575-.942-3.575,3.634-1.335,3.411-4.079,2.648-6.586Z" transform="translate(-126.084 -144.893)" fill="#ff8b7b"/>
      <path id="Path_29199" data-name="Path 29199" d="M207.177,194.267a.887.887,0,0,1-.742.742c-.3,0-.43-.452-.319-.9a.879.879,0,0,1,.742-.742C207.169,193.37,207.288,193.837,207.177,194.267Z" transform="translate(-125.501 -143.131)" fill="#263238"/>
      <path id="Path_29200" data-name="Path 29200" d="M206.952,193.267l-.972-.5S206.306,193.682,206.952,193.267Z" transform="translate(-125.476 -142.976)" fill="#263238"/>
      <path id="Path_29201" data-name="Path 29201" d="M206.507,195.72a13.446,13.446,0,0,1-2.277,2.559,1.824,1.824,0,0,0,1.483.578Z" transform="translate(-125.024 -143.738)" fill="#ff5652"/>
      <path id="Path_29202" data-name="Path 29202" d="M207.043,189.506a.245.245,0,0,1,0-.193.267.267,0,0,1,.349-.141,2.8,2.8,0,0,1,1.758,1.758.245.245,0,0,1-.2.3.3.3,0,0,1-.326-.208,2.225,2.225,0,0,0-1.409-1.379A.245.245,0,0,1,207.043,189.506Z" transform="translate(-125.745 -142.041)" fill="#263238"/>
      <path id="Path_29203" data-name="Path 29203" d="M221.868,192.7c-1.557,5.191-2.106,7.476-5.414,9.715-4.984,3.374-11.058.682-11.124-4.821,0-4.954,2.522-12.674,8.2-13.868a6.994,6.994,0,0,1,8.336,8.974Z" transform="translate(-125.308 -140.586)" fill="#ff8b7b"/>
      <path id="Path_29204" data-name="Path 29204" d="M210.712,191.644c-3.1-2.225-1.587-6.245,1.253-6.371-3.708-2.6-1.773-7.29,2.759-7.1s5.191,2.967,5.191,2.967,7.312.371,8.336,5.681c1.209,6.259-2.611,10.264-7.312,12.118,3.2,2.618-4.339,4.45-8.091,2.344S207.664,194.432,210.712,191.644Z" transform="translate(-126.255 -139.202)" fill="#263238"/>
      <path id="Path_29205" data-name="Path 29205" d="M232.913,186.846c-3.983-.742-5.985,4.776-3.389,7.995a6.273,6.273,0,0,0,1.335,1.261,2.6,2.6,0,0,0,4-1.98C235.071,191.474,235.064,187.239,232.913,186.846Z" transform="translate(-131.257 -141.428)" fill="#fff"/>
      <path id="Path_29206" data-name="Path 29206" d="M244.475,188.646A1.209,1.209,0,0,0,245,187.8a2.591,2.591,0,0,0-2.425-2.8c-.853-2.707-4.45-2.759-6.474-.816-1.661-.845-3.5,1.016-3.278,2.967-1.743.742-2.225,3.708-.608,5.355a4.064,4.064,0,0,0,.964.742,1.327,1.327,0,0,0,.237.1,3,3,0,0,0,2.344,2.514,3.419,3.419,0,0,0,1,.059,1.365,1.365,0,0,0,1.112-.823c1.157.949,2.4,1.572,3.278.957a2.84,2.84,0,0,0,1.261-2.529,1.706,1.706,0,0,0,1.661-.059C245.78,192.3,245.632,190.182,244.475,188.646Z" transform="translate(-131.999 -140.41)" fill="#263238"/>
      <path id="Path_29207" data-name="Path 29207" d="M212.268,196.225a3.708,3.708,0,0,1-2.447,1.78c-1.276.215-1.684-1.253-1.142-2.64.489-1.246,1.743-2.863,2.967-2.447S213.01,195.03,212.268,196.225Z" transform="translate(-126.113 -142.997)" fill="#ff8b7b"/>
      <path id="Path_29208" data-name="Path 29208" d="M211.31,189.533c1.09-2.084,7.06-7.772,11.035-7.565a11.733,11.733,0,0,1,2.351.934.148.148,0,0,1-.059.282c-1.557.185-6.615,1.357-11.362,8.818a7.609,7.609,0,0,1-1.965-2.47Z" transform="translate(-126.853 -140.184)" fill="#0091ff"/>
      <path id="Path_29209" data-name="Path 29209" d="M212.55,196.074c-.957,2.128-2.878,3.345-4.294,2.707s-1.787-2.878-.831-5.013,2.885-3.345,4.3-2.707S213.506,193.938,212.55,196.074Z" transform="translate(-125.712 -142.491)" fill="#fff"/>
      <path id="Path_29210" data-name="Path 29210" d="M211.27,195.572c-.86,1.921-2.522,3.056-3.708,2.522s-1.439-2.522-.571-4.45,2.522-3.056,3.708-2.529S212.137,193.644,211.27,195.572Z" transform="translate(-125.604 -142.515)" fill="#0091ff"/>
      <path id="Path_29211" data-name="Path 29211" d="M246.482,413.213c4.161-.623,4.242-1.313,6.474-2.1,1.913-.675,2.455-.571,4-1.1,1.29-.43.853-1.661,0-2.967a14.774,14.774,0,0,1-.957-2.44l-6.326.942c-.616,1.765-.838,4.027-4.45,5.318C243.078,411.641,244.8,413.458,246.482,413.213Z" transform="translate(-135.356 -197.709)" fill="#263238"/>
      <path id="Path_29212" data-name="Path 29212" d="M194.551,414.238c4.138,0,4.932-.274,7.261-.356,1.995-.067,2.321.356,4.346.356,1.335,0,1.52-1.483,1.031-2.64a21.739,21.739,0,0,1-.742-3.078h-5.7c-1.031,1.81-3.842,3.145-6.979,3.374C191.548,412.058,192.9,414.238,194.551,414.238Z" transform="translate(-122.02 -198.719)" fill="#263238"/>
      <path id="Path_29213" data-name="Path 29213" d="M201.683,264.07s-.823,29.784.942,48.7c-.111,17.755.438,58.426.438,58.426.133.9,4.9.541,5.7,0,0,0,8.9-29.621,4.962-58.426,9.916-30.043,7.78-48.7,7.78-48.7Z" transform="translate(-124.316 -161.398)" fill="#0091ff"/>
      <path id="Path_29214" data-name="Path 29214" d="M250.459,402.2a16.367,16.367,0,0,1,.126,2.373.5.5,0,0,0,.5.519,25.031,25.031,0,0,0,6.675-1.357.489.489,0,0,0,.326-.46v-2.225a.489.489,0,0,0-.571-.489l-6.675,1.12a.482.482,0,0,0-.378.519Z" transform="translate(-136.967 -196.66)" fill="#0091ff"/>
      <path id="Path_29215" data-name="Path 29215" d="M250.459,402.2a16.367,16.367,0,0,1,.126,2.373.5.5,0,0,0,.5.519,25.031,25.031,0,0,0,6.675-1.357.489.489,0,0,0,.326-.46v-2.225a.489.489,0,0,0-.571-.489l-6.675,1.12a.482.482,0,0,0-.378.519Z" transform="translate(-136.967 -196.66)" fill="#fff" opacity="0.5"/>
      <path id="Path_29216" data-name="Path 29216" d="M202.691,404.979c0,.623-.059,1.721-.111,2.529a.512.512,0,0,0,.452.541,33.67,33.67,0,0,0,6.3-.067.475.475,0,0,0,.415-.378l.423-2.225a.519.519,0,0,0-.489-.608l-6.5-.252a.46.46,0,0,0-.49.46Z" transform="translate(-124.597 -197.685)" fill="#0091ff"/>
      <path id="Path_29217" data-name="Path 29217" d="M202.691,404.979c0,.623-.059,1.721-.111,2.529a.512.512,0,0,0,.452.541,33.67,33.67,0,0,0,6.3-.067.475.475,0,0,0,.415-.378l.423-2.225a.519.519,0,0,0-.489-.608l-6.5-.252a.46.46,0,0,0-.49.46Z" transform="translate(-124.597 -197.685)" fill="#fff" opacity="0.5"/>
      <path id="Path_29218" data-name="Path 29218" d="M196.662,226.555a101.9,101.9,0,0,0,1.417,10.3c.742,4.45,1.261,8.818,2.314,16.175,10.227,1.075,22.249.208,22.775-1.483-.8-6.371-.742-14.974,1.483-29.769a5.31,5.31,0,0,0-5.347-6.289c-.9,0-1.861.059-2.84.133a72.239,72.239,0,0,0-10.249,1.261c-1.1.237-2.225.519-3.323.808a8.558,8.558,0,0,0-6.23,8.862Z" transform="translate(-123.062 -148.846)" fill="#0091ff"/>
      <path id="Path_29219" data-name="Path 29219" d="M196.662,226.555a101.9,101.9,0,0,0,1.417,10.3c.742,4.45,1.261,8.818,2.314,16.175,10.227,1.075,22.249.208,22.775-1.483-.8-6.371-.742-14.974,1.483-29.769a5.31,5.31,0,0,0-5.347-6.289c-.9,0-1.861.059-2.84.133a72.239,72.239,0,0,0-10.249,1.261c-1.1.237-2.225.519-3.323.808a8.558,8.558,0,0,0-6.23,8.862Z" transform="translate(-123.062 -148.846)" fill="#fff" opacity="0.8"/>
      <path id="Path_29220" data-name="Path 29220" d="M199.13,222.256l1.194,1.483a.237.237,0,0,0,.185.089.23.23,0,0,0,.156-.052.245.245,0,0,0,.037-.341l-1.246-1.565A2.876,2.876,0,0,0,199.13,222.256Z" transform="translate(-123.706 -150.495)" fill="#263238"/>
      <path id="Path_29221" data-name="Path 29221" d="M206.383,220.355h0a.252.252,0,0,0,.245-.23l.133-2.225-.5.126-.126,2.04a.245.245,0,0,0,.245.289Z" transform="translate(-125.516 -149.469)" fill="#0091ff"/>
      <path id="Path_29222" data-name="Path 29222" d="M218.63,222.257a.238.238,0,0,0,.141,0,.245.245,0,0,0,.133-.445l-6.237-4.116a.252.252,0,0,0-.341.067.237.237,0,0,0,.074.334Z" transform="translate(-127.105 -149.406)" fill="#0091ff"/>
      <path id="Path_29223" data-name="Path 29223" d="M206.494,225.661a.245.245,0,0,0,.141.319l6.957,2.722h.089a.252.252,0,0,0,.23-.156.245.245,0,0,0-.141-.311l-6.964-2.729a.245.245,0,0,0-.311.156Z" transform="translate(-125.604 -151.431)" fill="#263238"/>
      <path id="Path_29224" data-name="Path 29224" d="M201.048,240.086a.245.245,0,0,0,.334-.074l4.057-6.282a.245.245,0,0,0-.074-.334.237.237,0,0,0-.334.074l-4.042,6.3A.252.252,0,0,0,201.048,240.086Z" transform="translate(-124.178 -153.463)" fill="#0091ff"/>
      <path id="Path_29225" data-name="Path 29225" d="M198,234.4a.26.26,0,0,0,.171.067.245.245,0,0,0,.163-.423l-1.483-1.365a6.6,6.6,0,0,0,.074.742Z" transform="translate(-123.117 -153.288)" fill="#0091ff"/>
      <path id="Path_29226" data-name="Path 29226" d="M228.013,240.217a.252.252,0,0,0-.148.319.245.245,0,0,0,.23.156.163.163,0,0,0,.082,0l3.085-1.127c0-.178.037-.356.052-.534Z" transform="translate(-131.127 -154.928)" fill="#0091ff"/>
      <path id="Path_29227" data-name="Path 29227" d="M226.2,232.457a.252.252,0,0,0,.126-.037l5.347-3.36.089-.63-5.7,3.575a.247.247,0,0,0,.133.452Z" transform="translate(-130.638 -152.19)" fill="#0091ff"/>
      <path id="Path_29228" data-name="Path 29228" d="M219.008,235.081a.252.252,0,0,0-.341-.074l-6.326,3.975a.252.252,0,0,0-.074.341.26.26,0,0,0,.208.111.252.252,0,0,0,.126-.037l6.326-3.975A.252.252,0,0,0,219.008,235.081Z" transform="translate(-127.091 -153.879)" fill="#0091ff"/>
      <path id="Path_29229" data-name="Path 29229" d="M227.687,221.636h.089a.252.252,0,0,0,.141-.319l-2.225-5.807h-.512l2.225,5.933a.245.245,0,0,0,.282.193Z" transform="translate(-130.437 -148.851)" fill="#263238"/>
      <path id="Path_29230" data-name="Path 29230" d="M219.96,264.725a.237.237,0,0,0-.334.067.252.252,0,0,0,.067.341l1.387.912.8-.052Z" transform="translate(-128.991 -161.556)" fill="#0091ff"/>
      <path id="Path_29231" data-name="Path 29231" d="M230.144,260.884l-5.4-2.114a.245.245,0,1,0-.178.452l5.629,2.225C230.173,261.247,230.158,261.062,230.144,260.884Z" transform="translate(-130.231 -160.021)" fill="#0091ff"/>
      <path id="Path_29232" data-name="Path 29232" d="M201.38,263.8a3.292,3.292,0,0,0,.059.452.233.233,0,0,0-.059-.452Z" transform="translate(-124.287 -161.328)" fill="#263238"/>
      <path id="Path_29233" data-name="Path 29233" d="M200.874,253.195a.245.245,0,0,0,.156-.43l-1.35-1.135a5.735,5.735,0,0,0,.1.742l.927.786a.274.274,0,0,0,.163.037Z" transform="translate(-123.848 -158.184)" fill="#0091ff"/>
      <path id="Path_29234" data-name="Path 29234" d="M214.141,249.33a.252.252,0,0,0,.23-.156.245.245,0,0,0-.141-.311l-6.957-2.729a.245.245,0,0,0-.319.141.237.237,0,0,0,.141.311l6.957,2.729Z" transform="translate(-125.723 -156.759)" fill="#263238"/>
      <path id="Path_29235" data-name="Path 29235" d="M212.235,254.777l-6.334,3.975a.252.252,0,0,0-.074.341.237.237,0,0,0,.208.111.252.252,0,0,0,.126-.037l6.334-3.975a.252.252,0,0,0,.074-.341A.245.245,0,0,0,212.235,254.777Z" transform="translate(-125.427 -158.987)" fill="#0091ff"/>
      <path id="Path_29236" data-name="Path 29236" d="M222.338,250.732a.252.252,0,0,0,.208.119.238.238,0,0,0,.133-.044l6.326-3.975a.245.245,0,0,0-.26-.408l-6.326,3.975A.245.245,0,0,0,222.338,250.732Z" transform="translate(-129.693 -156.833)" fill="#263238"/>
      <path id="Path_29237" data-name="Path 29237" d="M212.524,264.945a.247.247,0,1,0-.46.178l.408,1.075h.519Z" transform="translate(-127.043 -161.583)" fill="#263238"/>
      <path id="Path_29238" data-name="Path 29238" d="M196.986,229.049c-.059.489-.1.831-.163,1.224s-.133.742-.2,1.127c-.141.742-.3,1.483-.482,2.225a40.565,40.565,0,0,1-1.313,4.309,37.6,37.6,0,0,1-1.787,4.19,34.419,34.419,0,0,1-2.321,4l-.156.237a2.174,2.174,0,0,1-.311.371,31.563,31.563,0,0,1-3.864,3.041c-1.253.875-2.536,1.683-3.812,2.47s-2.581,1.528-3.894,2.225-2.625,1.409-4,2.047a2.017,2.017,0,0,1-2.225-3.285h0c1.061-1,2.173-1.973,3.256-2.967l3.278-2.907c1.09-.949,2.158-1.921,3.211-2.863.519-.475,1.023-.957,1.483-1.431l.69-.69c.222-.23.386-.43.586-.645l-.467.608a31.561,31.561,0,0,0,1.483-3.367c.415-1.142.868-2.358,1.231-3.575s.742-2.44.994-3.708c.148-.616.289-1.239.408-1.861l.334-1.758.074-.208a4.02,4.02,0,0,1,7.943,1.2Z" transform="translate(-116.66 -151.199)" fill="#ff8b7b"/>
      <path id="Path_29239" data-name="Path 29239" d="M172.108,262.528l-4.161-1.231a3.033,3.033,0,0,0-2.091.141l-1.817.808a1.735,1.735,0,0,0-.868,2.336L164,266.34a1.735,1.735,0,0,0,1.928.964l3.248-.675a8.112,8.112,0,0,0,3.085-.43,1.936,1.936,0,0,0,.9-2.892h0a1.965,1.965,0,0,0-1.061-.779Z" transform="translate(-114.372 -160.65)" fill="#ff8b7b"/>
      <path id="Path_29240" data-name="Path 29240" d="M200.43,219.23c-3.508,1.313-6.5,4.376-7.95,12.274,1.913,2.433,8.744,3.708,8.744,3.708S206.326,224.755,200.43,219.23Z" transform="translate(-121.988 -149.813)" fill="#0091ff"/>
      <path id="Path_29241" data-name="Path 29241" d="M200.43,219.23c-3.508,1.313-6.5,4.376-7.95,12.274,1.913,2.433,8.744,3.708,8.744,3.708S206.326,224.755,200.43,219.23Z" transform="translate(-121.988 -149.813)" fill="#fff" opacity="0.8"/>
      <path id="Path_29242" data-name="Path 29242" d="M200.226,223.651a.237.237,0,0,0,.185.089.23.23,0,0,0,.156-.052.245.245,0,0,0,.037-.341l-1.483-1.847c-.126.1-.252.208-.371.319Z" transform="translate(-123.608 -150.399)" fill="#263238"/>
      <path id="Path_29243" data-name="Path 29243" d="M206.494,225.663a.245.245,0,0,0,.141.319h.082a2.136,2.136,0,0,0-.1-.482A.223.223,0,0,0,206.494,225.663Z" transform="translate(-125.604 -151.433)" fill="#263238"/>
      <path id="Path_29244" data-name="Path 29244" d="M202.564,238.633l2.618-4.057c.1-.386.178-.779.252-1.187a.23.23,0,0,0-.119.089l-3.256,5.036Z" transform="translate(-124.463 -153.471)" fill="#0091ff"/>
      <path id="Path_29245" data-name="Path 29245" d="M197.2,233.708a.26.26,0,0,0,.171.067.245.245,0,0,0,.163-.423l-3.6-3.352c-.059.163-.119.334-.171.5Z" transform="translate(-122.321 -152.595)" fill="#0091ff"/>
    </g>
    <g id="freepik--Plant--inject-36" transform="translate(16562.133 4793.774)">
      <path id="Path_29246" data-name="Path 29246" d="M333.868,323.839c-1.031-4.02.215-5.547,1.676-7.149a6.589,6.589,0,0,0,1.3-4.279,19.074,19.074,0,0,1,1.6,9.871C337.784,327.636,334.61,326.775,333.868,323.839Z" transform="translate(-323.203 -277.583)" fill="#263238"/>
      <path id="Path_29247" data-name="Path 29247" d="M338.048,369.307c-1.535-2.573-8.076-8-13.038-5.866,3.968,1.646,8.343,11.681,14.217,11.258Z" transform="translate(-321.013 -290.642)" fill="#263238"/>
      <path id="Path_29248" data-name="Path 29248" d="M344.13,378.79a.742.742,0,0,1-.675-.534c-.957-3.923-9.434-39.077-12.756-64.032a.742.742,0,0,1,.6-.786.69.69,0,0,1,.786.6c3.308,24.882,11.77,59.976,12.726,63.892a.742.742,0,0,1-.512.845Z" transform="translate(-322.482 -277.846)" fill="#0091ff"/>
      <path id="Path_29249" data-name="Path 29249" d="M329.543,313.693c.089-2.967-1.283-4.754-4.732-5.073s-4.539-1.758-5.191-3.1c1.164,6.779,9.293,8.477,10.079,11.822C329.543,314.835,329.543,313.693,329.543,313.693Z" transform="translate(-319.62 -275.803)" fill="#0091ff"/>
      <path id="Path_29250" data-name="Path 29250" d="M331.753,329.494c-.282-3.085-2.774-3.508-5.614-3.879a4.852,4.852,0,0,1-3.775-2.225,7.209,7.209,0,0,0,2.054,7.157C327.763,333.751,331.96,331.748,331.753,329.494Z" transform="translate(-320.265 -280.42)" fill="#0091ff"/>
      <path id="Path_29251" data-name="Path 29251" d="M341.447,364.888c-.49-3.449,1.876-4.873,1.483-9.938C349.731,366.527,342.218,370.294,341.447,364.888Z" transform="translate(-325.242 -288.574)" fill="#0091ff"/>
      <path id="Path_29252" data-name="Path 29252" d="M334.518,347.14c-1.913-2.915-4.628-2.418-7.7-6.46C329.386,353.844,337.514,351.7,334.518,347.14Z" transform="translate(-321.48 -284.887)" fill="#0091ff"/>
      <path id="Path_29253" data-name="Path 29253" d="M353.853,346.222c.171-4.657-4.146-7.112-7.453-11.762C348.41,343.716,353.586,353.52,353.853,346.222Z" transform="translate(-326.539 -283.28)" fill="#263238"/>
      <path id="Path_29254" data-name="Path 29254" d="M353.307,367.618h-.067a.816.816,0,0,1-.742-.883c.742-9.782,3.5-51.914,2.737-79.488a.816.816,0,0,1,.794-.838.794.794,0,0,1,.838.794c.742,27.633-1.965,69.862-2.737,79.659a.823.823,0,0,1-.823.757Z" transform="translate(-328.114 -270.865)" fill="#0091ff"/>
      <path id="Path_29255" data-name="Path 29255" d="M356.353,284.05c-1.038-5.644,1.075-9.53,7.624-11.125s8.225-4.7,9.07-7.476c-.252,13.349-15.4,19.023-15.938,25.7C356.686,286.245,356.353,284.05,356.353,284.05Z" transform="translate(-329.046 -265.45)" fill="#0091ff"/>
      <path id="Path_29256" data-name="Path 29256" d="M350.554,299.614c1.046-6.764-4.057-9-9.93-11.325s-6.912-6.719-6.912-6.719a15.952,15.952,0,0,0,.564,16.42C339.734,306.578,349.79,304.546,350.554,299.614Z" transform="translate(-322.743 -269.615)" fill="#0091ff"/>
      <path id="Path_29257" data-name="Path 29257" d="M357.058,326.129c1.12-5.362,5.584-5.6,10.642-5.673s7.083-3.085,7.083-3.085a12.778,12.778,0,0,1-5.065,12.148C363.2,334.413,356.257,330.044,357.058,326.129Z" transform="translate(-329.276 -278.865)" fill="#0091ff"/>
      <path id="Path_29258" data-name="Path 29258" d="M355.722,360.923c1.231-3.3,7.631-10.961,13.817-9.552-4.235,2.744-7.164,15.263-14.039,16.027C355.693,361.864,355.722,360.923,355.722,360.923Z" transform="translate(-328.89 -287.605)" fill="#0091ff"/>
      <path id="Path_29259" data-name="Path 29259" d="M356,386.15H335.4a1.713,1.713,0,0,0-1.639,2.225l5.584,18.875a1.706,1.706,0,0,0,1.639,1.231h9.471a1.706,1.706,0,0,0,1.639-1.231l5.555-18.9a1.713,1.713,0,0,0-1.646-2.2Z" transform="translate(-323.254 -296.635)" fill="#0091ff"/>
      <path id="Path_29260" data-name="Path 29260" d="M356,386.15H335.4a1.713,1.713,0,0,0-1.639,2.225l5.584,18.875a1.706,1.706,0,0,0,1.639,1.231h9.471a1.706,1.706,0,0,0,1.639-1.231l5.555-18.9a1.713,1.713,0,0,0-1.646-2.2Z" transform="translate(-323.254 -296.635)" fill="#0091ff" opacity="0.2"/>
      <path id="Path_29261" data-name="Path 29261" d="M356,386.15H335.4a1.713,1.713,0,0,0-1.639,2.225l5.584,18.875a1.706,1.706,0,0,0,1.639,1.231h9.471a1.706,1.706,0,0,0,1.639-1.231l5.555-18.9a1.713,1.713,0,0,0-1.646-2.2Z" transform="translate(-323.254 -296.635)" fill="#fff" opacity="0.7"/>
    </g>
  </g>
</svg>
