<svg xmlns="http://www.w3.org/2000/svg" viewBox="0 0 40 40"><defs><style>.cls-1{fill:none;}.cls-2{fill:#fff;}</style></defs><g id="Layer_2" data-name="Layer 2"><g id="Layer_1-2" data-name="Layer 1"><rect class="cls-1" width="40" height="40"/><path class="cls-2" d="M24.56,22.73c2,0,3.89,0,5.8,0a2.73,2.73,0,0,1,2.71,2.9,2.69,2.69,0,0,1-.68,1.65,2.8,2.8,0,0,1,.68,2.07,2.71,2.71,0,0,1-1,1.91,2.79,2.79,0,0,1-.6,3.67,2.84,2.84,0,0,1,.36,2,2.71,2.71,0,0,1-2.6,2.17q-6.16,0-12.35,0a8.35,8.35,0,0,1-1.6-.34,1.18,1.18,0,0,1-1,.36H8.64c-.78,0-1.11-.34-1.11-1.11V23.82c0-.75.34-1.09,1.09-1.09,1.89,0,3.77,0,5.66,0,.83,0,1.16.32,1.16,1.14v.53c.94-.72,2-1.08,2.57-2.2a14.29,14.29,0,0,0,1-1.8,8,8,0,0,0,.05-2.08c0-.83,0-1.65,0-2.47a.91.91,0,0,1,1-1,7.59,7.59,0,0,1,1.5.18,3.71,3.71,0,0,1,2.92,3.92c0,1.12,0,2.23,0,3.35Zm-3.65-6c0,1.23,0,2.43,0,3.64a1.8,1.8,0,0,1-.3,1c-.48.75-1,1.49-1.38,2.27a2.51,2.51,0,0,1-1,1.07c-.82.52-1.63,1.08-2.45,1.59a.64.64,0,0,0-.34.64q0,4.31,0,8.59a1.56,1.56,0,0,0,1.75,1.76h12a.91.91,0,0,0,0-1.81c-.2,0-.4,0-.61,0a.91.91,0,1,1,0-1.82c.38,0,.76,0,1.14,0a.9.9,0,0,0,.92-.91.92.92,0,0,0-.92-.91c-.37,0-.74,0-1.11,0a.92.92,0,0,1-1-.91.91.91,0,0,1,1-.91c.53,0,1.06,0,1.59,0a.94.94,0,0,0,1.05-.91.93.93,0,0,0-1-.92c-.53,0-1.06,0-1.6,0a.93.93,0,0,1-1-.9.92.92,0,0,1,1-.92h1.68a.89.89,0,0,0,.87-.56.91.91,0,0,0-.95-1.26H23.81a.94.94,0,0,1-1.07-1.08c0-.74,0-1.49,0-2.24,0-.94,0-1.88-.08-2.81A1.78,1.78,0,0,0,20.91,16.74ZM13.6,24.58H9.38V37.31H13.6Z"/><path class="cls-2" d="M15.76,11.93c.15-.91.3-1.86.48-2.8A.8.8,0,0,0,16,8.26c-.67-.59-1.28-1.23-1.92-1.84a.94.94,0,0,1-.32-1,.93.93,0,0,1,.85-.65c.94-.13,1.87-.29,2.81-.41A.52.52,0,0,0,17.88,4c.4-.84.82-1.66,1.22-2.49A1,1,0,0,1,20,.84a1,1,0,0,1,.89.65L22.13,4a.51.51,0,0,0,.45.33c1,.12,1.9.28,2.85.41a.91.91,0,0,1,.83.68.92.92,0,0,1-.32,1c-.66.64-1.3,1.28-2,1.9a.69.69,0,0,0-.23.73c.17.91.31,1.82.48,2.73a.89.89,0,0,1-.34.94.87.87,0,0,1-1,.07c-.86-.46-1.72-.92-2.59-1.35a.65.65,0,0,0-.51,0c-.89.44-1.75.92-2.63,1.36A.91.91,0,0,1,15.76,11.93ZM20,3.82c-.27.55-.53,1-.74,1.5a1.18,1.18,0,0,1-1.08.76c-.51,0-1,.14-1.54.22.36.38.68.76,1.05,1.08a1.33,1.33,0,0,1,.46,1.45c-.12.47-.17.95-.26,1.5.52-.27,1-.48,1.41-.75a1.25,1.25,0,0,1,1.42,0c.43.26.88.47,1.39.73-.1-.63-.19-1.19-.29-1.75a1.06,1.06,0,0,1,.36-1.05c.39-.39.76-.8,1.17-1.23-.53-.07-1.06-.16-1.59-.22a1.13,1.13,0,0,1-1-.71C20.54,4.87,20.28,4.39,20,3.82Z"/><path class="cls-2" d="M36.18,10.64c0,.51,0,1,0,1.52a.59.59,0,0,0,.21.43c.73.57,1.47,1.12,2.22,1.67a.95.95,0,0,1-.35,1.8c-.88.23-1.75.5-2.63.73a.53.53,0,0,0-.43.41c-.29.89-.61,1.77-.9,2.66a.94.94,0,0,1-.78.73,1,1,0,0,1-1-.51c-.51-.79-1-1.56-1.55-2.35a.49.49,0,0,0-.48-.26l-2.89,0a.92.92,0,0,1-.74-1.55c.59-.74,1.17-1.49,1.77-2.23a.55.55,0,0,0,.11-.61c-.29-.88-.54-1.77-.82-2.65a.94.94,0,0,1,1.3-1.22c.88.34,1.76.64,2.63,1a.5.5,0,0,0,.55-.07C33.19,9.52,34,9,34.73,8.44a.94.94,0,0,1,1.56.83c0,.46,0,.92,0,1.37Zm-6,.82c.17.58.3,1.09.48,1.57a1.16,1.16,0,0,1-.24,1.3c-.34.39-.65.82-1,1.32h1.77a1,1,0,0,1,1,.52c.31.48.63.95,1,1.47.2-.56.4-1.06.54-1.58a1.15,1.15,0,0,1,.94-.87c.52-.12,1-.29,1.6-.45-.5-.37-.92-.71-1.36-1a1.16,1.16,0,0,1-.54-1.13c0-.53,0-1.06,0-1.62-.44.31-.89.61-1.32.93a1.16,1.16,0,0,1-1.21.16C31.29,11.85,30.78,11.68,30.2,11.46Z"/><path class="cls-2" d="M6.62,20.6a.9.9,0,0,1-.91-.67c-.31-.9-.62-1.79-.91-2.69a.59.59,0,0,0-.47-.46c-.9-.23-1.78-.5-2.67-.74a1,1,0,0,1-.8-.77,1,1,0,0,1,.47-1c.73-.54,1.45-1.1,2.19-1.63a.64.64,0,0,0,.31-.62c-.06-.94-.07-1.88-.12-2.81a.94.94,0,0,1,.47-.93.92.92,0,0,1,1.06.11C6,9,6.78,9.49,7.54,10.05a.56.56,0,0,0,.61.08c.87-.34,1.76-.65,2.63-1a.94.94,0,0,1,1.06.15.92.92,0,0,1,.22,1c-.27.89-.54,1.79-.83,2.68a.55.55,0,0,0,.11.61c.59.73,1.16,1.48,1.75,2.2a.93.93,0,0,1-.76,1.58c-.94,0-1.87,0-2.81,0a.57.57,0,0,0-.54.31c-.51.78-1,1.56-1.56,2.34A.92.92,0,0,1,6.62,20.6ZM9.8,11.47A13.2,13.2,0,0,0,8.51,12a1.45,1.45,0,0,1-1.78-.24A12,12,0,0,0,5.66,11a10.49,10.49,0,0,0,0,1.38A1.41,1.41,0,0,1,5,13.88c-.38.24-.73.54-1.15.86.6.17,1.12.33,1.65.46a1.13,1.13,0,0,1,.86.81c.16.53.36,1,.56,1.63.33-.5.66-.95,1-1.42a1.1,1.1,0,0,1,1.07-.57c.54,0,1.07,0,1.71,0-.41-.53-.74-1-1.1-1.4a1.06,1.06,0,0,1-.21-1.13C9.46,12.6,9.62,12.07,9.8,11.47Z"/><path class="cls-2" d="M10.57,35.9a.91.91,0,1,1,1.82,0,.91.91,0,0,1-.88.9A.92.92,0,0,1,10.57,35.9Z"/></g></g></svg>