<svg xmlns="http://www.w3.org/2000/svg" viewBox="0 0 40 40"><defs><style>.cls-1{fill:none;}.cls-2{fill:#fff;stroke:#fff;stroke-miterlimit:10;stroke-width:0.61px;}</style></defs><g id="Layer_2" data-name="Layer 2"><g id="Layer_1-2" data-name="Layer 1"><rect class="cls-1" width="40" height="40"/><path class="cls-2" d="M39.09,16.16l-.9,2.4a1.21,1.21,0,0,1-1.8.83c-.71-.26-1.43-.51-2.13-.78a.39.39,0,0,0-.54.14c-.38.51-.4.5-.08,1.05l1.06,1.84a1.14,1.14,0,0,1-.44,1.69q-1.09.65-2.19,1.26a1.14,1.14,0,0,1-1.66-.45c-.42-.71-.83-1.41-1.23-2.13a.38.38,0,0,0-.5-.23c-.61.14-.62.13-.73.76s-.24,1.32-.35,2a1.19,1.19,0,0,1-1.53,1.1l-2.42-.43a1.11,1.11,0,0,1-1-1.31c.11-.8.24-1.6.41-2.38.08-.36,0-.57-.32-.7a2.86,2.86,0,0,1-.44-.25l-2,1.72a1.19,1.19,0,0,1-1.88-.15l-1.51-1.8a1.19,1.19,0,0,1,.17-1.85c.61-.51,1.22-1,1.84-1.53a.36.36,0,0,0,.13-.49c-.25-.62-.24-.62-.91-.62H16.07a1.18,1.18,0,0,1-1.29-1.3c0-.81,0-1.61,0-2.42A1.16,1.16,0,0,1,16,10.86H18.5a.35.35,0,0,0,.4-.28c.21-.65.22-.65-.29-1.08L17,8.14a1.14,1.14,0,0,1-.16-1.68c.55-.66,1.1-1.32,1.66-2a1.13,1.13,0,0,1,1.68-.16c.64.52,1.28,1.06,1.91,1.6a.37.37,0,0,0,.54.05c.54-.35.55-.33.44-1s-.22-1.27-.34-1.91c-.18-1,.17-1.47,1.16-1.64.75-.12,1.49-.26,2.24-.4a1.16,1.16,0,0,1,1.47,1c.14.75.29,1.49.38,2.24.05.38.17.59.57.59A2.89,2.89,0,0,1,29,5c.06-.1.13-.2.19-.31L30.4,2.56a1.14,1.14,0,0,1,1.65-.47c.76.42,1.52.85,2.26,1.3A1.13,1.13,0,0,1,34.73,5c-.41.73-.82,1.45-1.25,2.16a.37.37,0,0,0,.05.54c.43.48.42.48,1,.27l1.92-.7a1.17,1.17,0,0,1,1.7.8c.3.81.61,1.62.92,2.42v.6A1.61,1.61,0,0,1,38,12c-.59.18-1.17.42-1.75.63s-.59.22-.61.87a.36.36,0,0,0,.29.43c.7.24,1.39.52,2.1.75a1.51,1.51,0,0,1,1.06,1ZM17.64,7.23l.39.33,2.06,1.73a.64.64,0,0,1,.2.85c-.18.42-.33.86-.48,1.29s-.28.55-.75.55H15.92v2.71l.41,0h2.76a.66.66,0,0,1,.73.54,10,10,0,0,0,.47,1.29.66.66,0,0,1-.2.86L17.9,19.24c-.09.07-.16.15-.25.23l1.74,2.07c.85-.71,1.66-1.38,2.46-2.06a.62.62,0,0,1,.85-.05c.23.16.48.32.72.46,1,.55,1,.55.79,1.69-.15.81-.29,1.63-.44,2.49l2.68.48c.19-1.1.38-2.13.56-3.17a.65.65,0,0,1,.61-.59A12.6,12.6,0,0,0,29,20.55a.68.68,0,0,1,.84.37c.43.77.88,1.53,1.32,2.29.08.15.17.29.27.46l2.34-1.36c-.07-.12-.12-.23-.18-.34-.47-.81-.93-1.62-1.4-2.42a.66.66,0,0,1,.11-.9,13.2,13.2,0,0,0,.9-1.08.62.62,0,0,1,.78-.24l1.4.5,1.65.6L38,15.87l-2.91-1.06c-.52-.19-.61-.34-.57-.89a7.2,7.2,0,0,0,0-1c0-.73,0-.79.68-1.05l2.78-1L37,8.26,34.11,9.32c-.52.18-.64.14-1-.31s-.5-.62-.77-.91-.41-.56-.12-1l1.54-2.67L31.44,3c-.07.13-.14.23-.2.33-.47.81-.94,1.61-1.4,2.42a.65.65,0,0,1-.83.36,11.23,11.23,0,0,0-1.39-.24A.63.63,0,0,1,27,5.34l-.15-.88c-.13-.77-.27-1.53-.41-2.32l-2.66.48c0,.14,0,.26,0,.38l.48,2.68c.09.51,0,.66-.44.89s-.66.35-1,.55c-.63.4-.68.4-1.26-.09L19.39,5.14Z"/><path class="cls-2" d="M.91,24.66A.77.77,0,0,0,1,24.5a2.76,2.76,0,0,1,2.53-2.18,17.49,17.49,0,0,1,2.61,0,2.81,2.81,0,0,1,2.58,2.5h8a3,3,0,0,1,2.27.94c1.18,1.2,2.4,2.38,3.58,3.59.4.41.73.89,1.15,1.39l2.66-.66,10-2.52a2.18,2.18,0,0,1,2.53,1.28A2.21,2.21,0,0,1,38,31.55c-.38.24-.73.21-.92-.09s-.07-.59.29-.84a1.06,1.06,0,0,0,.41-1.37,1,1,0,0,0-1.26-.59L23.89,31.83a.47.47,0,0,0-.37.35,2.34,2.34,0,0,1-3.89,1C18.4,31.94,17.2,30.72,16,29.5c-.31-.3-.34-.63-.09-.88s.57-.22.88.09l3.56,3.56a1.24,1.24,0,0,0,1.32.36,1.17,1.17,0,0,0,.84-1,1.13,1.13,0,0,0-.29-1.07c-1.42-1.44-2.83-2.87-4.28-4.27A1.57,1.57,0,0,0,17,26c-2.7,0-5.4,0-8.09,0a.63.63,0,0,0-.14,0c0,.12,0,.26,0,.39,0,2.06,0,4.12,0,6.19,0,.31.09.43.4.46a20.12,20.12,0,0,1,7.46,2.52c1.11.6,2.23,1.15,3.34,1.74a4.57,4.57,0,0,0,4.46,0l10.88-5.54a.58.58,0,0,1,.86.21c.14.31,0,.6-.39.8C32.3,34.48,28.87,36.2,25.46,38a7.79,7.79,0,0,1-2.6,1,6.3,6.3,0,0,1-3.79-.8c-2.21-1.14-4.44-2.26-6.74-3.23a18.06,18.06,0,0,0-3.4-.76,1.59,1.59,0,0,0-.22,0v.79a2.86,2.86,0,0,1-3,3H3.84A2.84,2.84,0,0,1,1,35.68s0-.09-.07-.13V32.86c.2-.22.41-.44.76-.3S2,33,2,33.3c0,.54,0,1.09,0,1.64A1.73,1.73,0,0,0,3.89,36.8H5.72a1.72,1.72,0,0,0,1.86-1.86q0-4.84,0-9.69a1.71,1.71,0,0,0-1.84-1.84H3.9A1.73,1.73,0,0,0,2,25.3v5.33c0,.32,0,.61-.39.73S1.08,31.28.91,31Z"/><path class="cls-2" d="M2.88,33.74A4.21,4.21,0,0,1,3,33.13a.5.5,0,0,1,.6-.31.55.55,0,0,1,.44.61c0,.11,0,.22,0,.33a.76.76,0,0,0,.62.78.78.78,0,0,0,.6-1.4c-.48-.35-.59-.62-.38-.92s.59-.31,1,0a1.9,1.9,0,0,1-1.56,3.38A1.94,1.94,0,0,1,2.88,33.74Z"/><path class="cls-2" d="M25.18,16.05a2.65,2.65,0,0,1,.24-.35l5.8-5.8a2.2,2.2,0,0,1,.27-.26.51.51,0,0,1,.71.06.51.51,0,0,1,.07.71,3.2,3.2,0,0,1-.25.27l-6,6c-.67.67-1.16.66-1.84,0l-2.43-2.43a.61.61,0,0,1-.22-.69.56.56,0,0,1,1-.13c.78.76,1.55,1.54,2.33,2.31C24.92,15.81,25,15.89,25.18,16.05Z"/></g></g></svg>