<svg xmlns="http://www.w3.org/2000/svg" viewBox="0 0 40 40"><defs><style>.cls-1{fill:none;}.cls-2{fill:#fff;}</style></defs><g id="Layer_2" data-name="Layer 2"><g id="Layer_1-2" data-name="Layer 1"><rect class="cls-1" width="40" height="40"/><path class="cls-2" d="M37.66,36.77c-.32,0-.64,0-1,0V22.28A1.16,1.16,0,0,0,35.35,21H31.07c-1,0-1.41.38-1.41,1.41v14.4c-.73,0-1.41,0-2.09,0-.37,0-.49-.08-.48-.47,0-2.86,0-5.72,0-8.58a1.13,1.13,0,0,0-1.27-1.26H21.44c-.94,0-1.36.42-1.36,1.36v8.91H17.54V33.27A1.16,1.16,0,0,0,16.28,32h-4.5a1.14,1.14,0,0,0-1.26,1.27c0,1,0,2.06,0,3.09,0,.13,0,.26,0,.4H8V19.59l.42.09a9,9,0,0,0,3.73.07A9.52,9.52,0,0,0,19.8,9,9.2,9.2,0,0,0,13,1.34c-.67-.16-1.36-.24-2-.35H10c-.62.1-1.25.16-1.86.3A9.06,9.06,0,0,0,1.09,9c0,.29-.1.58-.15.87v1.41c.09.48.17,1,.29,1.45a9.31,9.31,0,0,0,4.16,5.74.64.64,0,0,1,.34.62q0,9.27,0,18.53c0,1,.4,1.43,1.44,1.43H37.64a1.3,1.3,0,0,0,1.42-.87v-.52A1.26,1.26,0,0,0,37.66,36.77ZM3.17,10.43a7.26,7.26,0,0,1,7.2-7.24,7.07,7.07,0,0,1,7.26,7.23,7.08,7.08,0,0,1-7.25,7.25A7.28,7.28,0,0,1,3.17,10.43Zm12.1,26.32H12.78V34.24h2.49Zm9.57,0h-2.5v-8h2.5Zm9.57,0h-2.5V23.23h2.5ZM32,13.56l.59.18-.39.24L16,23.35l-4.86,2.8a1.09,1.09,0,0,0-.58,1.19,1.13,1.13,0,0,0,.84.89,1.33,1.33,0,0,0,1-.22L30.21,17.72l3.56-2c-.06.24-.1.42-.15.6a1.15,1.15,0,0,0,.75,1.42,1.12,1.12,0,0,0,1.4-.83c.3-1.07.59-2.15.86-3.23a1.09,1.09,0,0,0-.76-1.34c-.21-.07-.43-.12-.64-.18l-2.58-.69a1.1,1.1,0,0,0-1.43.78A1.08,1.08,0,0,0,32,13.56ZM15.1,10.22A1.06,1.06,0,0,0,14,9.31H11.55V6a2.58,2.58,0,0,0,0-.48,1.06,1.06,0,0,0-1.08-.92,1,1,0,0,0-1.09.91,11.23,11.23,0,0,0,0,1.3c0,1.18,0,2.37,0,3.56a1.09,1.09,0,0,0,1,1.21q1.86,0,3.72,0A1.07,1.07,0,0,0,15.1,10.22Z"/></g></g></svg>