<?xml version="1.0" encoding="UTF-8"?><svg id="Layer_2" xmlns="http://www.w3.org/2000/svg" viewBox="0 0 40 40"><defs><style>.cls-1{fill:#fff;}.cls-2{fill:none;}</style></defs><g id="Layer_1-2"><g><rect class="cls-2" width="40" height="40"/><g><path class="cls-1" d="M.24,6.42c.06-.28,.12-.57,.19-.85C1.19,2.58,3.94,.57,7.01,.76c3.01,.18,5.49,2.51,5.89,5.54,.41,3.11-1.57,6.11-4.6,6.94-.13,.04-.26,.07-.43,.12,.57,.98,1.16,1.92,1.66,2.91,.31,.63,.69,.91,1.41,.81,.5-.07,1.02,0,1.53-.02,.15,0,.34-.1,.42-.22,1.38-2.04,3.25-3.35,5.67-3.87,.17-.04,.35-.14,.48-.27,.82-.8,1.64-1.62,2.44-2.44,.22-.23,.46-.32,.78-.32,1.56,.01,3.12,0,4.68,0,.14,0,.27,0,.44,0-.15-.46-.32-.87-.43-1.3-.92-3.53,1.4-7.12,5.03-7.81,3.52-.66,6.98,1.85,7.43,5.4,.5,3.97-2.55,7.34-6.54,7.22-1.74-.05-3.21-.76-4.4-2.02-.18-.2-.36-.27-.63-.27-1.74,.01-3.47,0-5.21,.02-.18,0-.39,.1-.53,.22-.46,.42-.9,.87-1.42,1.38,3.34,.31,5.86,1.82,7.4,4.71,1.54,2.89,1.37,5.81-.14,8.58,.58,.62,1.12,1.21,1.68,1.79,.07,.07,.23,.08,.34,.06,.48-.09,.89,.04,1.23,.37,1.5,1.45,3,2.89,4.48,4.35,.57,.56,.58,1.34,.04,1.92-.54,.58-1.09,1.15-1.66,1.7-.53,.52-1.33,.54-1.87,.02-1.51-1.45-3.01-2.91-4.51-4.37-.39-.38-.48-.85-.38-1.38,.02-.12,.02-.29-.05-.37-.48-.55-.97-1.08-1.46-1.62-2.61,1.89-5.34,2.32-8.33,1.43,0,.73-.01,1.44,0,2.13,.01,.42-.15,.69-.52,.89-1.33,.75-2.66,1.52-3.98,2.3-.15,.09-.31,.24-.37,.4-.93,2.4-2.65,3.81-5.19,4.22-.05,0-.09,.04-.13,.06h-1.38c-.07-.02-.14-.06-.21-.07-2.56-.37-4.63-2.23-5.27-4.75-.07-.28-.13-.57-.19-.85v-1.38c.02-.07,.06-.14,.07-.22,.45-3.02,2.95-5.31,5.94-5.45,3.08-.14,5.79,1.85,6.53,4.83,.14,.56,.17,1.15,.26,1.76,1.03-.59,2.07-1.19,3.09-1.8,.08-.05,.12-.21,.12-.32,.01-.63-.02-1.25,.01-1.88,.02-.33-.11-.49-.38-.65-3.15-1.8-4.89-5.55-4.23-9.1,.11-.61,.29-1.2,.45-1.82-.73,0-1.46-.02-2.19,0-.42,.01-.69-.15-.89-.51-.76-1.34-1.54-2.67-2.31-4.02-.12-.21-.24-.3-.5-.32-2.75-.17-5.05-2.07-5.76-4.73-.08-.31-.14-.62-.21-.93v-1.38ZM20.32,29.21c4.19,0,7.58-3.38,7.59-7.57,.01-4.19-3.4-7.62-7.59-7.62-4.17,0-7.59,3.41-7.59,7.58,0,4.2,3.39,7.6,7.59,7.61ZM8.53,7.47c1.09,.52,1.85,1.33,2.35,2.41,1.27-1.77,1.26-4.78-.95-6.68-2.09-1.79-5.19-1.61-7.09,.42-1.9,2.02-1.59,4.91-.5,6.24,.49-1.08,1.26-1.88,2.32-2.39-.98-1.47-.9-2.86,.21-3.83,.99-.87,2.47-.85,3.47,.02,.84,.73,1.4,2.29,.19,3.82Zm22.66,0c-1.2-1.5-.67-3.05,.16-3.79,.99-.88,2.47-.92,3.47-.06,1.14,.97,1.23,2.36,.28,3.79,.45,.36,.95,.67,1.34,1.07,.39,.4,.68,.9,1.01,1.35,1.47-2.1,.9-5.21-1.25-6.83-2.19-1.65-5.31-1.27-7.06,.86-1.73,2.1-1.26,4.89-.28,5.99,.48-1.07,1.25-1.86,2.32-2.38ZM10.89,36.37c1.14-1.48,1.33-4.45-.75-6.45-1.95-1.86-5.06-1.89-7.02-.06-2.12,1.98-1.98,4.97-.79,6.54,.49-1.09,1.28-1.89,2.34-2.41-1.17-1.44-.7-3,.14-3.76,.98-.89,2.46-.94,3.47-.1,1.16,.96,1.25,2.3,.28,3.87q1.22,.75,2.34,2.38ZM6.58,12.25c1.14-.02,2.17-.35,3.1-1.03,.19-.14,.25-.27,.18-.51-.42-1.42-1.77-2.43-3.26-2.43-1.5,0-2.85,1.02-3.26,2.43-.07,.24,0,.37,.18,.51,.91,.67,1.93,1.01,3.07,1.03Zm26.55,0c1.14-.02,2.17-.36,3.09-1.04,.2-.15,.23-.29,.16-.52-.43-1.41-1.75-2.4-3.24-2.41-1.49-.01-2.81,.96-3.26,2.38-.08,.26-.05,.41,.18,.58,.92,.66,1.94,1,3.07,1.02ZM6.58,38.78c1.15-.02,2.17-.36,3.09-1.02,.21-.15,.27-.29,.19-.54-.44-1.43-1.78-2.42-3.28-2.41-1.49,.01-2.81,1-3.24,2.41-.07,.23-.04,.37,.16,.52,.92,.68,1.95,1.02,3.08,1.04Zm28.36-5.16l-4.61-4.47c-.57,.53-1.1,1.03-1.64,1.51-.21,.19-.21,.32,0,.52,.69,.65,1.36,1.31,2.04,1.97,.71,.69,1.43,1.39,2.14,2.08,.13,.13,.25,.28,.44,.08,.53-.55,1.06-1.1,1.63-1.69ZM6.61,7.04c.79,0,1.41-.63,1.4-1.42,0-.78-.64-1.42-1.42-1.41-.78,0-1.41,.64-1.4,1.43,0,.79,.63,1.4,1.42,1.4Zm26.53,0c.79,0,1.4-.64,1.4-1.42,0-.78-.65-1.42-1.42-1.41-.78,.01-1.4,.65-1.4,1.43,0,.79,.63,1.4,1.42,1.39ZM6.55,33.57c.8,.02,1.43-.57,1.46-1.36,.03-.8-.6-1.46-1.4-1.47-.76,0-1.39,.6-1.42,1.37-.03,.79,.58,1.44,1.36,1.46Zm20.09-5.79l.12-.06,1.45,1.58,.51-.42-1.55-1.69-.53,.59Z"/><path class="cls-1" d="M20.31,28.06c-3.55,0-6.43-2.88-6.43-6.43,0-3.56,2.91-6.46,6.47-6.44,3.54,.02,6.42,2.91,6.41,6.46,0,3.55-2.89,6.42-6.45,6.41Zm-.01-1.23c2.88,0,5.23-2.31,5.23-5.19,0-2.88-2.32-5.23-5.19-5.24-2.87-.01-5.23,2.33-5.23,5.2,0,2.88,2.31,5.22,5.19,5.23Z"/><path class="cls-1" d="M21.84,21.48c0-.83,0-1.66,0-2.49,0-.46,.23-.73,.59-.74,.37,0,.63,.29,.63,.75,0,1.65,0,3.29,0,4.94,0,.48-.23,.76-.62,.75-.38,0-.6-.27-.6-.76,0-.82,0-1.63,0-2.45Z"/><path class="cls-1" d="M20.56,22.22c0,.6,0,1.2,0,1.8,0,.43-.24,.68-.61,.68-.36,0-.61-.26-.61-.68,0-1.21,0-2.42,0-3.63,0-.45,.26-.71,.64-.7,.36,.01,.58,.26,.59,.7,0,.61,0,1.22,0,1.84Z"/><path class="cls-1" d="M16.86,22.98c0-.36,0-.71,0-1.07,.01-.37,.25-.61,.58-.62,.34,0,.62,.22,.63,.58,.02,.75,.02,1.5,0,2.25-.01,.36-.3,.58-.64,.57-.32-.02-.55-.25-.57-.6-.01-.37,0-.74,0-1.11Z"/></g></g></g></svg>