<svg xmlns="http://www.w3.org/2000/svg" viewBox="0 0 28 28"><defs><style>.cls-1{fill:none;}.cls-2{fill:#0091ff;}</style></defs><g id="Layer_2" data-name="Layer 2"><g id="Layer_1-2" data-name="Layer 1"><rect class="cls-1" width="28" height="28"/><path class="cls-2" d="M23.68,5.78,17.4,2.16A7.31,7.31,0,0,0,14.68,1h-.8A5.55,5.55,0,0,0,12,1.7C9.59,3.07,7.21,4.43,4.84,5.81A4.13,4.13,0,0,0,2.66,9.58V18a4.09,4.09,0,0,0,2.17,3.75c2.42,1.41,4.85,2.82,7.29,4.2a5,5,0,0,0,1.29.51,4,4,0,0,0,3.06-.51l7.2-4.16a4.14,4.14,0,0,0,2.23-3.84V9.63A4.18,4.18,0,0,0,23.68,5.78ZM22.73,20l-7.27,4.19a2.19,2.19,0,0,1-2.36,0Q9.47,22.09,5.83,20A2.19,2.19,0,0,1,4.66,18V13.77c0-1.4,0-2.79,0-4.19a2.19,2.19,0,0,1,1.18-2c2.43-1.4,4.85-2.79,7.27-4.2a2.23,2.23,0,0,1,2.36,0c2.42,1.41,4.84,2.8,7.27,4.19a2.21,2.21,0,0,1,1.18,2.05q0,4.18,0,8.37A2.21,2.21,0,0,1,22.73,20ZM11.05,11.07c-.49-.41-1-.82-1.45-1.22a.92.92,0,0,0-1.1-.08.94.94,0,0,0-.5,1,1.12,1.12,0,0,0,.45.74l2.69,2.27-.67.57L8.4,16.09a1,1,0,1,0,1.31,1.5l3.52-3a1,1,0,0,0,0-1.69Zm8.57,4.84H15.21a1.54,1.54,0,0,0-.37,0,1,1,0,0,0,.27,2c1.48,0,3,0,4.46,0a1.23,1.23,0,0,0,.38-.08,1,1,0,0,0-.33-1.91Z"/></g></g></svg>