<svg xmlns="http://www.w3.org/2000/svg" viewBox="0 0 32 32"><defs><style>.cls-1{fill:none;}.cls-2{fill:#b4b7c9;}.cls-3{fill:#0091ff;}</style></defs><g id="Layer_2" data-name="Layer 2"><g id="Layer_1-2" data-name="Layer 1"><rect class="cls-1" width="32" height="32"/><path class="cls-2" d="M29.34,14.13a.48.48,0,0,1-.19-.31c-.12-.75-.16-1.51-.33-2.24A13.15,13.15,0,0,0,2.87,13.77a.42.42,0,0,1-.24.39,2.77,2.77,0,0,0-1.57,2.29,36,36,0,0,0,0,4.28,2.94,2.94,0,0,0,2.51,2.63A2,2,0,0,0,6.1,21.29V15.83a2,2,0,0,0-1.41-2l-.38-.1a11.71,11.71,0,0,1,23.37,0l-.25.07a1.93,1.93,0,0,0-1.52,1.84c0,1.93,0,3.87,0,5.81A1.93,1.93,0,0,0,27.3,23.3l.42.11c0,.52,0,1,0,1.55a2.83,2.83,0,0,1-2.45,2.71,22.52,22.52,0,0,1-2.47,0c-.07,0-.18-.1-.22-.18a2,2,0,0,0-1.85-1.25c-.82,0-1.64,0-2.45,0a2.16,2.16,0,0,0,.13,4.31h2.15a2.12,2.12,0,0,0,2-1.25.3.3,0,0,1,.31-.19c.67,0,1.34,0,2,0a4.3,4.3,0,0,0,4.21-3.64,15.26,15.26,0,0,0,.07-2.14.34.34,0,0,1,.2-.35A3,3,0,0,0,31,20.28c0-1.13,0-2.25,0-3.37A3.07,3.07,0,0,0,29.34,14.13ZM4.66,15.84c0,.92,0,1.83,0,2.74s0,1.79,0,2.69c0,.53-.22.74-.76.69a1.64,1.64,0,0,1-1.45-1.59c0-1.19,0-2.37,0-3.55A1.64,1.64,0,0,1,4,15.21.56.56,0,0,1,4.66,15.84ZM20.57,29.17H18.42a.73.73,0,0,1-.77-.74.7.7,0,0,1,.75-.71c.73,0,1.46,0,2.18,0a.7.7,0,0,1,.75.75A.71.71,0,0,1,20.57,29.17Zm9-8.79A1.63,1.63,0,0,1,28.05,22c-.48,0-.71-.17-.71-.65,0-.9,0-1.81,0-2.71s0-1.81,0-2.71c0-.52.23-.72.75-.67a1.64,1.64,0,0,1,1.46,1.59Q29.58,18.6,29.55,20.38ZM17.06,14.55A1.06,1.06,0,1,0,16,15.62,1.08,1.08,0,0,0,17.06,14.55ZM12.5,13.5a1.06,1.06,0,1,0,1.07,1.05A1.07,1.07,0,0,0,12.5,13.5Zm8,1.07a1.06,1.06,0,1,0-2.11,0,1.06,1.06,0,0,0,2.11,0Z"/><path class="cls-3" d="M11.41,20.82a3.17,3.17,0,0,1-1.64-.47,3,3,0,0,1-1.45-2.64c0-2,0-4,0-6.05a3,3,0,0,1,3.13-3.09h9.09a3,3,0,0,1,3.13,3.08q0,3,0,6.08a3,3,0,0,1-3.17,3.08c-1.21,0-2.41,0-3.62,0a.58.58,0,0,0-.46.2c-.83.83-1.66,1.66-2.51,2.47a1.47,1.47,0,0,1-2.47-.83,3.65,3.65,0,0,1,0-.66C11.4,21.61,11.41,21.22,11.41,20.82Zm1.43,1.59.07,0,.24-.21c.84-.84,1.68-1.66,2.51-2.51a1.11,1.11,0,0,1,.88-.35c1.29,0,2.58,0,3.88,0a1.64,1.64,0,0,0,1.83-1.82V11.81A1.63,1.63,0,0,0,20.42,10H11.58a1.63,1.63,0,0,0-1.83,1.82v5.75a2.42,2.42,0,0,0,0,.38,1.54,1.54,0,0,0,1.31,1.39,4.91,4.91,0,0,0,.86,0c.66,0,.9.24.9.9Z"/></g></g></svg>