<svg xmlns="http://www.w3.org/2000/svg" viewBox="0 0 28 28"><defs><style>.cls-1,.cls-3{fill:none;}.cls-2{fill:#0091ff;}.cls-3{stroke:#0091ff;stroke-miterlimit:10;stroke-width:0.37px;}</style></defs><g id="Layer_2" data-name="Layer 2"><g id="Layer_1-2" data-name="Layer 1"><rect class="cls-1" width="28" height="28"/><path class="cls-2" d="M18.42,11.22A1.58,1.58,0,0,0,16.75,10H3a1.57,1.57,0,0,0-1.45,1.07,1.55,1.55,0,0,1-.08.23V25.65a1.59,1.59,0,0,0,.64,1,5.6,5.6,0,0,0,.7.33H17.15a1.77,1.77,0,0,0,1.32-2c0-4.41,0-8.82,0-13.23A2.73,2.73,0,0,0,18.42,11.22Zm-1,7.27v6.75c0,.51-.19.7-.69.7H3.2c-.52,0-.7-.19-.7-.71V11.75c0-.53.18-.71.7-.71H16.71c.51,0,.69.18.69.7Zm7.79-17H3A1.57,1.57,0,0,0,1.53,2.54l-.09.22V6.5a.78.78,0,0,0,.05.14A1.59,1.59,0,0,0,3.11,7.85H25.3A1.59,1.59,0,0,0,27,6.18c0-1,0-1.95,0-2.92A1.62,1.62,0,0,0,25.19,1.47Zm.72,4.63c0,.49-.19.69-.67.69H3.17c-.48,0-.67-.2-.67-.69V3.21c0-.49.19-.68.7-.68H25.14c.62,0,.78.16.78.78C25.92,4.24,25.92,5.17,25.91,6.1ZM23.78,10A3.19,3.19,0,1,0,27,13.16,3.2,3.2,0,0,0,23.78,10Zm0,5.31a2.13,2.13,0,1,1,2.13-2.11A2.13,2.13,0,0,1,23.78,15.29Zm2.82,3.23a1.12,1.12,0,0,0-.32,0H21a.53.53,0,0,0-.44.53.54.54,0,0,0,.43.51l.27,0h5a1.12,1.12,0,0,0,.32,0A.5.5,0,0,0,27,19,.51.51,0,0,0,26.6,18.52Zm-5.3,4.23h3.34c.56,0,1.13,0,1.69,0a.86.86,0,0,0,.49-.18.43.43,0,0,0,.11-.54.53.53,0,0,0-.55-.34H21.29a1.09,1.09,0,0,0-.31,0,.52.52,0,0,0,0,1A1.73,1.73,0,0,0,21.3,22.75Zm5.08,2.12c-.86,0-1.72,0-2.59,0H21.3a1.19,1.19,0,0,0-.32,0,.51.51,0,0,0-.39.51.54.54,0,0,0,.38.5l.32,0h5.08a.54.54,0,0,0,.6-.53A.53.53,0,0,0,26.38,24.87Z"/><path class="cls-3" d="M18.42,11.22A1.58,1.58,0,0,0,16.75,10H3a1.57,1.57,0,0,0-1.45,1.07,1.55,1.55,0,0,1-.08.23V25.65a1.59,1.59,0,0,0,.64,1,5.6,5.6,0,0,0,.7.33H17.15a1.77,1.77,0,0,0,1.32-2c0-4.41,0-8.82,0-13.23A2.73,2.73,0,0,0,18.42,11.22Zm-1,7.27v6.75c0,.51-.19.7-.69.7H3.2c-.52,0-.7-.19-.7-.71V11.75c0-.53.18-.71.7-.71H16.71c.51,0,.69.18.69.7Zm7.79-17H3A1.57,1.57,0,0,0,1.53,2.54l-.09.22V6.5a.78.78,0,0,0,.05.14A1.59,1.59,0,0,0,3.11,7.85H25.3A1.59,1.59,0,0,0,27,6.18c0-1,0-1.95,0-2.92A1.62,1.62,0,0,0,25.19,1.47Zm.72,4.63c0,.49-.19.69-.67.69H3.17c-.48,0-.67-.2-.67-.69V3.21c0-.49.19-.68.7-.68H25.14c.62,0,.78.16.78.78C25.92,4.24,25.92,5.17,25.91,6.1ZM23.78,10A3.19,3.19,0,1,0,27,13.16,3.2,3.2,0,0,0,23.78,10Zm0,5.31a2.13,2.13,0,1,1,2.13-2.11A2.13,2.13,0,0,1,23.78,15.29Zm2.82,3.23a1.12,1.12,0,0,0-.32,0H21a.53.53,0,0,0-.44.53.54.54,0,0,0,.43.51l.27,0h5a1.12,1.12,0,0,0,.32,0A.5.5,0,0,0,27,19,.51.51,0,0,0,26.6,18.52Zm-5.3,4.23h3.34c.56,0,1.13,0,1.69,0a.86.86,0,0,0,.49-.18.43.43,0,0,0,.11-.54.53.53,0,0,0-.55-.34H21.29a1.09,1.09,0,0,0-.31,0,.52.52,0,0,0,0,1A1.73,1.73,0,0,0,21.3,22.75Zm5.08,2.12c-.86,0-1.72,0-2.59,0H21.3a1.19,1.19,0,0,0-.32,0,.51.51,0,0,0-.39.51.54.54,0,0,0,.38.5l.32,0h5.08a.54.54,0,0,0,.6-.53A.53.53,0,0,0,26.38,24.87Z"/></g></g></svg>