<svg xmlns="http://www.w3.org/2000/svg" viewBox="0 0 28 28"><defs><style>.cls-1{fill:none;}.cls-2{fill:#0091ff;}</style></defs><g id="Layer_2" data-name="Layer 2"><g id="Layer_1-2" data-name="Layer 1"><rect class="cls-1" width="28" height="28"/><path class="cls-2" d="M25.82,20.09a2.09,2.09,0,0,0,.48-.54V19.2L25,16.94a.76.76,0,0,0-1.12-.34c-.15.07-.29.16-.45.22a.39.39,0,0,1-.26,0,.76.76,0,0,1-.57-.94.56.56,0,0,0,0-.22.71.71,0,0,0-.69-.58H19.33a.73.73,0,0,0-.71.71c0,.16,0,.33,0,.49s-.08.26-.22.37a.69.69,0,0,1-.95,0l-.18-.08a.71.71,0,0,0-1,.28c-.43.72-.85,1.46-1.26,2.2a.7.7,0,0,0,.22.95,3,3,0,0,0,.42.27.43.43,0,0,1,.23.41.68.68,0,0,1-.44.8.76.76,0,0,0-.19.12.72.72,0,0,0-.23,1c.4.72.82,1.44,1.24,2.16a.72.72,0,0,0,1,.29l.54-.27a.35.35,0,0,1,.2,0c.57.25.58.29.62.92v.12a.74.74,0,0,0,.76.74h2.46a.74.74,0,0,0,.77-.73c0-.19,0-.38,0-.57a.31.31,0,0,1,.11-.2c.52-.35.52-.35,1.07-.07l.07,0A.77.77,0,0,0,25,24.66l1.29-2.27V22a1.39,1.39,0,0,0-.75-.72.42.42,0,0,1-.21-.37A.77.77,0,0,1,25.82,20.09Zm-2,1.26a.83.83,0,0,0,.41.88c.12.07.22.15.34.23l-.53.91-.43-.21a.8.8,0,0,0-.86.09,10,10,0,0,1-1.06.6.82.82,0,0,0-.5.73c0,.14,0,.28,0,.44H20.06v-.39a.84.84,0,0,0-.56-.8,4.68,4.68,0,0,1-.92-.53.88.88,0,0,0-1-.09c-.1.06-.21.1-.33.16l-.53-.91.4-.27a.77.77,0,0,0,.36-.72c0-.45,0-.89,0-1.34a.78.78,0,0,0-.37-.73l-.39-.26c.17-.31.35-.61.53-.92l.41.21a.83.83,0,0,0,.89-.09,6.16,6.16,0,0,1,1-.56.86.86,0,0,0,.59-.86v-.34h1.09c0,.12,0,.25,0,.38a.82.82,0,0,0,.57.81,4.68,4.68,0,0,1,.92.53.86.86,0,0,0,1,.09l.33-.17c.18.3.36.6.54.92l-.42.27a.79.79,0,0,0-.34.75A7.89,7.89,0,0,1,23.8,21.35ZM7.49,6.58a.75.75,0,0,0,.76-.78v-1A2.24,2.24,0,0,1,10.57,2.5h7a2.24,2.24,0,0,1,2.34,2.33v5.91c0,.07,0,.14,0,.26-.42-.41-.79-.8-1.18-1.18a.75.75,0,1,0-1.05,1.06l2.45,2.45a.73.73,0,0,0,1.07,0c.84-.83,1.67-1.66,2.5-2.51a.73.73,0,0,0,0-1.05.74.74,0,0,0-1.05,0l-1,1-.19.16v-.31c0-2,0-4,0-5.93a3.76,3.76,0,0,0-2.78-3.62L18.07,1H10l-.16.05a3.63,3.63,0,0,0-3,2.78,9.2,9.2,0,0,0-.12,2A.72.72,0,0,0,7.49,6.58Zm-2,1.8A6.73,6.73,0,0,0,2.77,19.6,4.57,4.57,0,0,1,4.14,23c0,.49,0,1,0,1.47a2.16,2.16,0,0,0,1.82,2,10.86,10.86,0,0,0,1.51,0v0h1.2a2.19,2.19,0,0,0,2.11-1.7,10.52,10.52,0,0,0,.08-1.26A13.57,13.57,0,0,1,11,21.88a4.75,4.75,0,0,1,1.36-2.41,6.46,6.46,0,0,0,1.76-5.94A6.72,6.72,0,0,0,5.5,8.38ZM9.33,24.49a.68.68,0,0,1-.69.54H6.35a.71.71,0,0,1-.7-.62,1.23,1.23,0,0,1,0-.27v-.58H9.34A7.22,7.22,0,0,1,9.33,24.49Zm1.87-6a6.21,6.21,0,0,0-1.73,3.22l-.06.3H8.25V21.8c0-1.49,0-3,0-4.46A.62.62,0,0,1,8.41,17c.52-.54,1.07-1.06,1.59-1.61a.75.75,0,1,0-1.08-1L7.54,15.7l-.09.08c-.16-.19-.31-.38-.48-.56l-.9-.9A.75.75,0,1,0,5,15.38L6.61,17a.45.45,0,0,1,.14.27V22s0,0,0,.07H5.6c-.06-.26-.11-.51-.17-.76a6.15,6.15,0,0,0-1.59-2.72A5.24,5.24,0,1,1,12.67,14,5.06,5.06,0,0,1,11.2,18.51Zm9.43,1.14a1.15,1.15,0,1,0,0,2.3,1.17,1.17,0,0,0,1.15-1.14A1.16,1.16,0,0,0,20.63,19.65Z"/></g></g></svg>