<svg xmlns="http://www.w3.org/2000/svg" viewBox="0 0 28 28"><defs><style>.cls-1{fill:none;}.cls-2{fill:#0091ff;}</style></defs><g id="Layer_2" data-name="Layer 2"><g id="Layer_1-2" data-name="Layer 1"><rect class="cls-1" width="28" height="28"/><path class="cls-2" d="M26.53,16.82l-2.25-1.6a.3.3,0,0,1-.15-.3c0-.57,0-1.15,0-1.72a.35.35,0,0,1,.16-.33c.74-.51,1.47-1,2.2-1.55A.84.84,0,0,0,26.77,10q-1.34-2.29-2.69-4.59A.85.85,0,0,0,22.82,5l-2.48,1.1a.32.32,0,0,1-.35,0l-1.54-.88A.28.28,0,0,1,18.26,5c-.08-.86-.18-1.72-.25-2.58a1,1,0,0,0-.63-1H11.26a1,1,0,0,0-.62,1c-.07.86-.18,1.72-.26,2.58a.28.28,0,0,1-.18.27l-1.54.88a.34.34,0,0,1-.36,0L5.85,5.05a.87.87,0,0,0-1.3.41L1.89,10a3.6,3.6,0,0,0-.2.39v.35a1.28,1.28,0,0,0,.53.62l2.13,1.5a.34.34,0,0,1,.16.32c0,.58,0,1.15,0,1.72a.35.35,0,0,1-.16.33l-2.13,1.5a1.28,1.28,0,0,0-.53.62v.35l1.69,2.94,1.21,2.06a.82.82,0,0,0,1.17.38c.85-.36,1.69-.74,2.52-1.12a.35.35,0,0,1,.38,0c.5.3,1,.58,1.52.86a.31.31,0,0,1,.2.29c.09.93.19,1.85.29,2.78a.8.8,0,0,0,.84.76h5.62A.81.81,0,0,0,18,25.9c.1-.92.19-1.84.28-2.77a.3.3,0,0,1,.18-.25L20,22a.35.35,0,0,1,.38,0l2.5,1.12a.83.83,0,0,0,1.2-.4L26.79,18A.82.82,0,0,0,26.53,16.82ZM23,21.36l-1.53-.68c-.31-.13-.61-.25-.9-.4a1,1,0,0,0-1.14.14,7.15,7.15,0,0,1-2,1.14,1,1,0,0,0-.7.94c-.06.81-.16,1.61-.24,2.42a.69.69,0,0,1,0,.13H12.21c-.05-.49-.11-1-.16-1.48s-.09-.87-.14-1.3a.72.72,0,0,0-.48-.63A9,9,0,0,1,9.08,20.3a.82.82,0,0,0-.89-.06l-2.27,1-.24.11L3.57,17.77l1.25-.89,1-.7a.82.82,0,0,0,.38-.85,8.08,8.08,0,0,1,0-2.55.87.87,0,0,0-.39-.87c-.67-.46-1.33-.94-2-1.41l-.23-.16L5.68,6.75c.8.35,1.6.68,2.37,1.06a1.06,1.06,0,0,0,1.23-.14,6.48,6.48,0,0,1,2-1.12,1,1,0,0,0,.72-1c.06-.83.16-1.66.24-2.51h4.24c.07.66.13,1.32.2,2l.09.78a.75.75,0,0,0,.5.65A9.07,9.07,0,0,1,19.55,7.8a.82.82,0,0,0,.89.07L23,6.75c.69,1.19,1.39,2.37,2.1,3.58l-.23.18-2,1.38a.87.87,0,0,0-.42.92,8.13,8.13,0,0,1,0,2.51.83.83,0,0,0,.4.88l2.21,1.57Zm-4.49-8.63-1.75,1.08c.29.46.56.91.84,1.37l.94-.56a4.06,4.06,0,0,1-1,2.23,4.29,4.29,0,0,1-3.87,1.39c-.09.54-.18,1.05-.26,1.55a5.89,5.89,0,0,0,6.78-4.86l.58.48,1-1.24-1.58-1.32C19.41,12.22,19.31,12.22,18.48,12.73ZM15,8.25a5.64,5.64,0,0,0-3.51.7,5.84,5.84,0,0,0-3,4.23l-.59-.49-1,1.25,2,1.62a.77.77,0,0,0,.93,0l.77-.47,1.36-.84-.85-1.37-.94.56a4.17,4.17,0,0,1,1.22-2.42,4.24,4.24,0,0,1,3.48-1.22C14.9,9.32,15,8.8,15,8.25Zm3.62,1.88a5.66,5.66,0,0,0-1.9-1.39c-.22.49-.44,1-.65,1.41l1.4,1ZM9.8,17.75a5.62,5.62,0,0,0,1.55,1.33l.8-1.35-1.13-1Z"/></g></g></svg>