<svg xmlns="http://www.w3.org/2000/svg" viewBox="0 0 32 32"><defs><style>.cls-1{fill:none;}.cls-2{fill:#0091ff;}.cls-3{fill:#b4b7c9;}</style></defs><g id="Layer_2" data-name="Layer 2"><g id="Layer_1-2" data-name="Layer 1"><rect class="cls-1" width="32" height="32"/><path class="cls-2" d="M10.48,31a12.34,12.34,0,0,1-1.71-.47A5.81,5.81,0,0,1,5,25.28c-.09-1.54,0-3.1,0-4.65a1.12,1.12,0,0,1,1.16-1.16,1.15,1.15,0,0,1,1.17,1.2c0,1.4,0,2.8,0,4.21a3.58,3.58,0,0,0,1.45,3,3.51,3.51,0,0,0,3.9.4,3.54,3.54,0,0,0,2.1-3.35c0-5.91,0-11.83,0-17.74a5.85,5.85,0,0,1,3-5.31A6.05,6.05,0,0,1,26.92,6.8c.06,1.52,0,3.06,0,4.59a1.14,1.14,0,0,1-1.16,1.2,1.16,1.16,0,0,1-1.17-1.22c0-1.4,0-2.79,0-4.18a3.73,3.73,0,1,0-7.45-.06c0,5.91,0,11.83,0,17.74a6.06,6.06,0,0,1-4.5,5.92c-.33.09-.66.14-1,.21Z"/><path class="cls-3" d="M1,4a4,4,0,0,1,.68-1.59A3.28,3.28,0,0,1,4.3,1.06c1.25,0,2.51,0,3.77,0a3.32,3.32,0,0,1,3.28,3.32q0,4.74,0,9.5A3.34,3.34,0,0,1,8,17.2c-1.23,0-2.46,0-3.69,0a3.36,3.36,0,0,1-3.3-2.79A.78.78,0,0,0,1,14.27ZM9,9.13V4.51A1,1,0,0,0,7.91,3.4H4.46A1,1,0,0,0,3.34,4.52v9.21a1,1,0,0,0,1.12,1.13H7.88A1,1,0,0,0,9,13.72Z"/><path class="cls-3" d="M23.52,31a4,4,0,0,1-1.64-.71,3.23,3.23,0,0,1-1.28-2.55c0-3.21,0-6.41,0-9.62a3.3,3.3,0,0,1,3.22-3.25c1.3,0,2.6,0,3.89,0a3.31,3.31,0,0,1,3.23,3.28c0,3.18,0,6.37,0,9.55a3.31,3.31,0,0,1-2.76,3.24L28,31Zm-.59-8.09V27.5a1,1,0,0,0,1.15,1.16h3.39a1,1,0,0,0,1.14-1.14V18.34a1,1,0,0,0-1.13-1.14h-3.4a1,1,0,0,0-1.15,1.15Z"/></g></g></svg>