<svg xmlns="http://www.w3.org/2000/svg" viewBox="0 0 32 32"><defs><style>.cls-1{fill:none;}.cls-2{fill:#b4b7c9;}.cls-3{font-size:8.83px;fill:#0091ff;font-family:Montserrat-Bold, Montserrat;font-weight:700;}.cls-4{letter-spacing:0em;}.cls-5{letter-spacing:-0.01em;}</style></defs><g id="Layer_2" data-name="Layer 2"><g id="Layer_1-2" data-name="Layer 1"><rect class="cls-1" width="32" height="32"/><path class="cls-2" d="M27.87,1.41Q16,1.4,4.19,1.41A2.53,2.53,0,0,0,1.6,3.48l0,.13V28c0,.15.07.31.12.46a2.54,2.54,0,0,0,2.43,1.74h23.7a2.54,2.54,0,0,0,2.59-1.9,2.5,2.5,0,0,0,.09-.72q0-11.81,0-23.6A2.53,2.53,0,0,0,27.87,1.41Zm.93,8.79V27.52c0,.7-.32,1-1,1H4.28c-.72,0-1-.32-1-1V9.9H28.8Zm0-2H3.26c0-.1,0-.19,0-.28V4.09a.88.88,0,0,1,1-1H27.81a.88.88,0,0,1,1,1V8.18Z"/><text class="cls-3" transform="translate(5.6 21.19)"><tspan class="cls-4">M</tspan><tspan class="cls-5" x="8.4" y="0">V</tspan><tspan x="14.85" y="0">P</tspan></text></g></g></svg>