<?xml version="1.0" encoding="UTF-8"?><svg id="Layer_2" xmlns="http://www.w3.org/2000/svg" viewBox="0 0 48 48"><defs><style>.cls-1{fill:#0091ff;}.cls-2{fill:none;}</style></defs><g id="Layer_1-2"><g><rect class="cls-2" width="48" height="48"/><rect class="cls-2" x="1.32" y="1.32" width="45.35" height="45.35"/><path class="cls-1" d="M3.21,11.73c1.07,.39,2.1,.76,3.16,1.15,.39-1.07,.76-2.1,1.15-3.16-1.06-.39-2.08-.76-3.16-1.15-.39,1.08-.77,2.11-1.15,3.16Zm41.58,0c-.38-1.06-.76-2.08-1.15-3.16-1.08,.39-2.11,.77-3.16,1.15,.39,1.07,.76,2.09,1.15,3.15,1.06-.39,2.09-.76,3.16-1.15ZM18.96,45.51h10.04v-3.31h-10.04v3.31ZM5.79,15.96H2.48v3.31h3.31v-3.31Zm-2.59,7.57c.39,1.06,.76,2.09,1.15,3.16,1.07-.39,2.1-.76,3.16-1.15-.39-1.07-.77-2.1-1.15-3.16-1.07,.39-2.1,.77-3.16,1.15Zm37.27,1.98c1.06,.38,2.09,.76,3.16,1.15,.39-1.07,.77-2.11,1.15-3.16-1.08-.39-2.11-.76-3.16-1.14-.39,1.08-.76,2.1-1.15,3.15Zm1.71-9.57v3.36h3.34v-3.36h-3.34ZM27.56,2.92c-.81-.19-1.65-.29-2.47-.43h-2.19c-.51,.08-1.02,.15-1.53,.24-9.39,1.67-14.92,11.45-11.51,20.34,.85,2.21,2.17,4.1,3.89,5.71,.98,.92,1.66,2.02,1.79,3.38,.08,.76,.03,1.54,.04,2.31,.03,2.76,2.25,5,5,5.02,2.27,.02,4.54,.04,6.81,0,2.06-.04,3.56-1.03,4.5-2.86,.36-.7,.49-1.45,.51-2.23,.02-.92-.02-1.86,.13-2.76,.22-1.29,1.07-2.23,1.98-3.14,3.57-3.58,5.09-7.9,4.45-12.92-.78-6.11-5.42-11.22-11.41-12.64Zm4.59,23.17c-1.27,1.25-2.33,2.62-2.78,4.37-.18,.68-.25,1.4-.31,2.11-.05,.63,0,1.26-.02,1.89-.02,.9-.7,1.61-1.58,1.65-.57,.03-1.15,0-1.78,0v-6.7h-3.35v6.64c-.72,0-1.43,.08-2.1-.02-.79-.12-1.25-.82-1.27-1.65-.03-1.03,.02-2.08-.14-3.1-.29-1.98-1.31-3.61-2.76-4.97-1.76-1.66-2.95-3.64-3.52-5.99-1.65-6.88,3.23-13.72,10.28-14.41,6.34-.62,12.02,3.82,12.84,10.13,.51,3.9-.7,7.28-3.5,10.04Zm-4.82-8.89c-1.12-1.12-2.22-2.22-3.35-3.36-1.1,1.11-2.2,2.21-3.34,3.35-.73-.73-1.44-1.44-2.1-2.11-.8,.8-1.58,1.58-2.31,2.31,1.47,1.47,2.97,2.97,4.53,4.53,1.07-1.07,2.18-2.18,3.34-3.35,1.1,1.11,2.2,2.22,3.24,3.26l4.44-4.44c-.74-.74-1.52-1.52-2.34-2.34-.66,.67-1.36,1.37-2.12,2.14Z"/></g></g></svg>