<svg id="Layer_1-2" xmlns="http://www.w3.org/2000/svg" width="48" height="48" viewBox="0 0 48 48">
  <g id="Group_4" data-name="Group 4">
    <rect id="Rectangle_4" data-name="Rectangle 4" width="48" height="48" fill="none"/>
    <g id="Group_3" data-name="Group 3">
      <path id="Path_3" data-name="Path 3" d="M45.92,37.48a6.372,6.372,0,0,0-5.77-6.08c-2.44-.17-4.9-.03-7.35-.04a.732.732,0,0,1-.52-.22,6.606,6.606,0,0,0-5.54-2.76H21.25a6.522,6.522,0,0,0-5.53,2.77.624.624,0,0,1-.43.22c-2.31,0-4.63-.1-6.94-.03A6.423,6.423,0,0,0,2.16,37a29.563,29.563,0,0,0-.09,3.65,5.109,5.109,0,0,0,5.26,5.29h7.14V44.46H7.88V36.47H6.43v7.89a3.372,3.372,0,0,1-2.82-2.78,28.509,28.509,0,0,1-.11-3.46,5.134,5.134,0,0,1,5.31-5.34h5.96a13.494,13.494,0,0,0-.29,1.9c-.03,2.59-.04,5.18,0,7.77a3.489,3.489,0,0,0,2.73,3.36,22.4,22.4,0,0,0,3.07.18V34.27H18.85V44.45a2.388,2.388,0,0,1-2.95-2.62c.08-2.22.02-4.45.02-6.67a5.13,5.13,0,0,1,5.3-5.31h5.49a5.124,5.124,0,0,1,5.3,5.31v6.9a2.271,2.271,0,0,1-2.94,2.35V34.26H27.66V45.93c.79,0,1.56.02,2.32,0a3.557,3.557,0,0,0,3.48-3.45c-.03-3.22.29-6.45-.25-9.67a1.645,1.645,0,0,1,.18-.03c2.07,0,4.15-.06,6.22.02a4.977,4.977,0,0,1,4.71,3.97,11.178,11.178,0,0,1,.14,2.32,15.99,15.99,0,0,1-.1,2.5,3.4,3.4,0,0,1-2.84,2.77v-7.9H40.07V44.5H33.52v1.42c.1,0,.17.02.25.02,2.41,0,4.82.02,7.22,0a4.961,4.961,0,0,0,4.83-4.24,25.58,25.58,0,0,0,.08-4.2ZM6.42,26.13V24.77c-.63-.27-.71-.4-.71-1.1V19.88c0-.78.23-1.02,1-1.02,1.11,0,2.23,0,3.34-.01.14,0,.37-.12.4-.23a14.84,14.84,0,0,1,1.87-4.35c-.12-.13-.22-.24-.33-.35-.8-.8-1.6-1.59-2.39-2.39a.722.722,0,0,1-.03-1.16q1.5-1.515,3.01-3.01a.739.739,0,0,1,1.13,0c.48.46.96.94,1.43,1.42.44.44.86.9,1.29,1.35a13.851,13.851,0,0,1,4.29-1.85c.31-.07.37-.21.37-.5-.01-1.13,0-2.26,0-3.38,0-.63.26-.9.88-.9h4.07c.63,0,.89.27.9.89v2.7a1.3,1.3,0,0,0,1,1.37c.12.04.24.07.35.11l3.37,1.47c.8-.8,1.66-1.68,2.53-2.55.51-.51.86-.51,1.36-.01.92.91,1.83,1.83,2.75,2.75.55.55.55.87,0,1.42-.86.86-1.73,1.72-2.6,2.58.07.12.11.22.16.31a13.243,13.243,0,0,1,1.65,3.94c.08.33.23.39.53.39,1.11-.02,2.23-.01,3.34,0,.66,0,.92.26.92.91v3.93c0,.66-.1.81-.71,1.06v1.39A2.141,2.141,0,0,0,43.76,24c.01-1.42,0-2.83,0-4.25a2.2,2.2,0,0,0-2.36-2.34H39.07c-.13,0-.34-.06-.37-.15-.39-.92-.75-1.85-1.13-2.83.61-.6,1.26-1.23,1.89-1.87a2.186,2.186,0,0,0,0-3.25Q38.02,7.84,36.55,6.4a2.231,2.231,0,0,0-3.33,0c-.56.56-1.11,1.13-1.69,1.67a.519.519,0,0,1-.45.08c-.79-.31-1.57-.67-2.36-.97a.4.4,0,0,1-.31-.46c.01-.81.01-1.62,0-2.42A2.183,2.183,0,0,0,26.2,2.05c-1.45-.02-2.9-.02-4.34,0a2.183,2.183,0,0,0-2.22,2.24V6.76a.381.381,0,0,1-.3.42c-.78.3-1.55.63-2.31.97a.407.407,0,0,1-.55-.09C15.97,7.52,15.43,7,14.9,6.47a2.246,2.246,0,0,0-3.46-.01c-.93.92-1.86,1.85-2.78,2.78a2.212,2.212,0,0,0,0,3.41c.61.61,1.23,1.22,1.79,1.79-.38.96-.73,1.87-1.1,2.76a.53.53,0,0,1-.39.2c-.82.02-1.65,0-2.47.01a2.171,2.171,0,0,0-2.22,2.05c-.04,1.55-.04,3.11,0,4.66a2.072,2.072,0,0,0,2.16,2.01ZM32.8,21.77h1.47a10.032,10.032,0,0,0-5.19-8.84,9.748,9.748,0,0,0-10.77.38,9.969,9.969,0,0,0-4.57,8.46h1.44a8.832,8.832,0,0,1,8.51-8.74,8.493,8.493,0,0,1,5.7,1.86,8.776,8.776,0,0,1,3.4,6.89ZM19.61,23.24a4.385,4.385,0,1,0,4.4-4.38,4.394,4.394,0,0,0-4.4,4.38Zm7.31.02a2.925,2.925,0,1,1-2.93-2.94A2.949,2.949,0,0,1,26.92,23.26ZM11.59,21.78a4.425,4.425,0,1,1,0,.01Zm-.04,7.31a2.925,2.925,0,1,1,2.93-2.92,2.921,2.921,0,0,1-2.93,2.92Zm24.86,1.46a4.385,4.385,0,1,0-4.37-4.4,4.387,4.387,0,0,0,4.37,4.4Zm.05-7.31a2.955,2.955,0,1,1-.01,0ZM21.11,45.89H26.9V44.48H21.11v1.41Z" fill="#28a1ff"/>
      <path id="Path_4" data-name="Path 4" d="M45.92,37.48a6.372,6.372,0,0,0-5.77-6.08c-2.44-.17-4.9-.03-7.35-.04a.732.732,0,0,1-.52-.22,6.606,6.606,0,0,0-5.54-2.76H21.25a6.522,6.522,0,0,0-5.53,2.77.624.624,0,0,1-.43.22c-2.31,0-4.63-.1-6.94-.03A6.423,6.423,0,0,0,2.16,37a29.563,29.563,0,0,0-.09,3.65,5.109,5.109,0,0,0,5.26,5.29h7.14V44.46H7.88V36.47H6.43v7.89a3.372,3.372,0,0,1-2.82-2.78,28.509,28.509,0,0,1-.11-3.46,5.134,5.134,0,0,1,5.31-5.34h5.96a13.494,13.494,0,0,0-.29,1.9c-.03,2.59-.04,5.18,0,7.77a3.489,3.489,0,0,0,2.73,3.36,22.4,22.4,0,0,0,3.07.18V34.27H18.85V44.45a2.388,2.388,0,0,1-2.95-2.62c.08-2.22.02-4.45.02-6.67a5.13,5.13,0,0,1,5.3-5.31h5.49a5.124,5.124,0,0,1,5.3,5.31v6.9a2.271,2.271,0,0,1-2.94,2.35V34.26H27.66V45.93c.79,0,1.56.02,2.32,0a3.557,3.557,0,0,0,3.48-3.45c-.03-3.22.29-6.45-.25-9.67a1.645,1.645,0,0,1,.18-.03c2.07,0,4.15-.06,6.22.02a4.977,4.977,0,0,1,4.71,3.97,11.178,11.178,0,0,1,.14,2.32,15.99,15.99,0,0,1-.1,2.5,3.4,3.4,0,0,1-2.84,2.77v-7.9H40.07V44.5H33.52v1.42c.1,0,.17.02.25.02,2.41,0,4.82.02,7.22,0a4.961,4.961,0,0,0,4.83-4.24,25.58,25.58,0,0,0,.08-4.2ZM6.42,26.13V24.77c-.63-.27-.71-.4-.71-1.1V19.88c0-.78.23-1.02,1-1.02,1.11,0,2.23,0,3.34-.01.14,0,.37-.12.4-.23a14.84,14.84,0,0,1,1.87-4.35c-.12-.13-.22-.24-.33-.35-.8-.8-1.6-1.59-2.39-2.39a.722.722,0,0,1-.03-1.16q1.5-1.515,3.01-3.01a.739.739,0,0,1,1.13,0c.48.46.96.94,1.43,1.42.44.44.86.9,1.29,1.35a13.851,13.851,0,0,1,4.29-1.85c.31-.07.37-.21.37-.5-.01-1.13,0-2.26,0-3.38,0-.63.26-.9.88-.9h4.07c.63,0,.89.27.9.89v2.7a1.3,1.3,0,0,0,1,1.37c.12.04.24.07.35.11l3.37,1.47c.8-.8,1.66-1.68,2.53-2.55.51-.51.86-.51,1.36-.01.92.91,1.83,1.83,2.75,2.75.55.55.55.87,0,1.42-.86.86-1.73,1.72-2.6,2.58.07.12.11.22.16.31a13.243,13.243,0,0,1,1.65,3.94c.08.33.23.39.53.39,1.11-.02,2.23-.01,3.34,0,.66,0,.92.26.92.91v3.93c0,.66-.1.81-.71,1.06v1.39A2.141,2.141,0,0,0,43.76,24c.01-1.42,0-2.83,0-4.25a2.2,2.2,0,0,0-2.36-2.34H39.07c-.13,0-.34-.06-.37-.15-.39-.92-.75-1.85-1.13-2.83.61-.6,1.26-1.23,1.89-1.87a2.186,2.186,0,0,0,0-3.25Q38.02,7.84,36.55,6.4a2.231,2.231,0,0,0-3.33,0c-.56.56-1.11,1.13-1.69,1.67a.519.519,0,0,1-.45.08c-.79-.31-1.57-.67-2.36-.97a.4.4,0,0,1-.31-.46c.01-.81.01-1.62,0-2.42A2.183,2.183,0,0,0,26.2,2.05c-1.45-.02-2.9-.02-4.34,0a2.183,2.183,0,0,0-2.22,2.24V6.76a.381.381,0,0,1-.3.42c-.78.3-1.55.63-2.31.97a.407.407,0,0,1-.55-.09C15.97,7.52,15.43,7,14.9,6.47a2.246,2.246,0,0,0-3.46-.01c-.93.92-1.86,1.85-2.78,2.78a2.212,2.212,0,0,0,0,3.41c.61.61,1.23,1.22,1.79,1.79-.38.96-.73,1.87-1.1,2.76a.53.53,0,0,1-.39.2c-.82.02-1.65,0-2.47.01a2.171,2.171,0,0,0-2.22,2.05c-.04,1.55-.04,3.11,0,4.66a2.072,2.072,0,0,0,2.16,2.01ZM32.8,21.77h1.47a10.032,10.032,0,0,0-5.19-8.84,9.748,9.748,0,0,0-10.77.38,9.969,9.969,0,0,0-4.57,8.46h1.44a8.832,8.832,0,0,1,8.51-8.74,8.493,8.493,0,0,1,5.7,1.86,8.776,8.776,0,0,1,3.4,6.89ZM19.61,23.24a4.385,4.385,0,1,0,4.4-4.38,4.394,4.394,0,0,0-4.4,4.38Zm7.31.02a2.925,2.925,0,1,1-2.93-2.94A2.949,2.949,0,0,1,26.92,23.26ZM11.59,21.78a4.425,4.425,0,1,1,0,.01Zm-.04,7.31a2.925,2.925,0,1,1,2.93-2.92,2.921,2.921,0,0,1-2.93,2.92Zm24.86,1.46a4.385,4.385,0,1,0-4.37-4.4,4.387,4.387,0,0,0,4.37,4.4Zm.05-7.31a2.955,2.955,0,1,1-.01,0ZM21.11,45.89H26.9V44.48H21.11v1.41Z" fill="none" stroke="#28a1ff" stroke-miterlimit="10" stroke-width="0.84"/>
    </g>
  </g>
</svg>
