<svg id="Layer_1-2" xmlns="http://www.w3.org/2000/svg" width="48" height="48" viewBox="0 0 48 48">
  <g id="Group_5" data-name="Group 5">
    <rect id="Rectangle_5" data-name="Rectangle 5" width="48" height="48" fill="none"/>
    <path id="Path_5" data-name="Path 5" d="M44.97,35.45c-.87.05-1.74.02-2.61,0-.78-.01-1-.19-1.24-.92-.27-.83-.53-1.66-.8-2.48-.22-.66-.55-.96-1.1-.96s-.9.29-1.11.94c-.27.81-.53,1.63-.79,2.44s-.48.97-1.33.98H33.21a1.1,1.1,0,0,0-1.22.79,1.148,1.148,0,0,0,.51,1.37c.76.55,1.53,1.1,2.29,1.66a1.121,1.121,0,0,1,.46,1.49c-.29.86-.6,1.72-.89,2.59a1.076,1.076,0,0,0,.31,1.38,1.15,1.15,0,0,0,1.46-.06c.77-.55,1.53-1.1,2.29-1.65a1.123,1.123,0,0,1,1.56,0c.78.56,1.55,1.12,2.33,1.68a1.144,1.144,0,0,0,1.43.03,1.075,1.075,0,0,0,.32-1.34c-.3-.89-.62-1.78-.92-2.67a1.093,1.093,0,0,1,.44-1.42c.69-.51,1.4-.99,2.08-1.51a9.288,9.288,0,0,0,.83-.83v-.69a1.409,1.409,0,0,0-1.53-.82ZM10.71,28.07a1.9,1.9,0,0,0,1.53-.96,14.54,14.54,0,0,1,14.35-6.23,14.281,14.281,0,0,1,10.18,6.3,1.721,1.721,0,1,0,2.82-1.95,18.245,18.245,0,0,0-7.83-6.45c-.34-.15-.68-.28-1.03-.43a9.7,9.7,0,1,0-12.36-.03,18.342,18.342,0,0,0-9.09,7.03,1.653,1.653,0,0,0-.11,1.82,1.636,1.636,0,0,0,1.55.89Zm7.58-17.24a6.275,6.275,0,1,0,0-.01ZM30.51,29.46c-.96,0-1.91.01-2.87,0a1.006,1.006,0,0,1-1.16-.85c-.28-.87-.56-1.74-.85-2.6-.21-.63-.55-.91-1.09-.91s-.88.28-1.09.91c-.29.88-.59,1.76-.85,2.64a1,1,0,0,1-1.02.8c-.54.01-1.08,0-1.63,0h0c-.49.01-.97,0-1.46.01a1.067,1.067,0,0,0-1.17.79,1.123,1.123,0,0,0,.49,1.34c.73.53,1.46,1.05,2.19,1.58a1.2,1.2,0,0,1,.55,1.71c-.28.82-.57,1.64-.85,2.47a1.088,1.088,0,0,0,.31,1.38,1.163,1.163,0,0,0,1.46-.06c.77-.55,1.53-1.1,2.29-1.65a1.123,1.123,0,0,1,1.56,0c.78.56,1.55,1.12,2.33,1.68a1.144,1.144,0,0,0,1.43.03,1.078,1.078,0,0,0,.33-1.34l-.9-2.58A1.135,1.135,0,0,1,29,33.26c.74-.54,1.48-1.07,2.22-1.6a1.149,1.149,0,0,0,.55-1.39c-.18-.56-.54-.79-1.26-.79Zm-14.68,6c-.94,0-1.88.01-2.83,0-.74-.01-.97-.19-1.19-.87-.28-.85-.55-1.71-.83-2.56-.21-.63-.54-.92-1.08-.93a1.115,1.115,0,0,0-1.12.93c-.29.88-.59,1.76-.85,2.64a.985.985,0,0,1-.99.78c-.56.01-1.11,0-1.67,0h0c-.47.01-.94.01-1.41.02a1.085,1.085,0,0,0-1.19.77,1.127,1.127,0,0,0,.5,1.37c.75.55,1.51,1.08,2.26,1.63a1.153,1.153,0,0,1,.49,1.59c-.3.88-.64,1.74-.89,2.63a1.464,1.464,0,0,0,.07.97,1.085,1.085,0,0,0,1.63.31c.8-.56,1.58-1.13,2.36-1.7a1.144,1.144,0,0,1,1.6,0c.77.55,1.53,1.11,2.29,1.65a1.147,1.147,0,0,0,1.43.06,1.076,1.076,0,0,0,.34-1.37c-.29-.85-.59-1.7-.88-2.54a1.161,1.161,0,0,1,.49-1.59c.73-.53,1.46-1.05,2.19-1.58a1.151,1.151,0,0,0,.56-1.42c-.19-.55-.55-.77-1.27-.77Z" fill="#28a1ff"/>
  </g>
</svg>
