<svg xmlns="http://www.w3.org/2000/svg" viewBox="0 0 40 40"><defs><style>.cls-1{fill:none;}.cls-2{fill:#fff;}</style></defs><g id="Layer_2" data-name="Layer 2"><g id="Layer_1-2" data-name="Layer 1"><rect class="cls-1" width="40" height="40"/><path class="cls-2" d="M.79,8.39A12.61,12.61,0,0,1,1.4,6.47,5.75,5.75,0,0,1,6.52,3.15c.66,0,1.32,0,2,0V1.8A1.5,1.5,0,0,1,10,.19a1.48,1.48,0,0,1,1.48,1.59c0,.44,0,.88,0,1.34h6.65c0-.49,0-1,0-1.48a1.47,1.47,0,0,1,2.94,0c0,.48,0,1,0,1.46h6.72c0-.49,0-1,0-1.48A1.46,1.46,0,0,1,30.08.42a1.45,1.45,0,0,1,.69,1.27c0,.47,0,.94,0,1.45h1.74a6.06,6.06,0,0,1,2.31.41A5.94,5.94,0,0,1,38.6,9a1.48,1.48,0,1,1-3,.11,3,3,0,0,0-3.21-3H30.77c0,.46,0,.9,0,1.33a1.48,1.48,0,1,1-2.95,0V6.12H21.1V7.41a1.49,1.49,0,1,1-3,0V6.12H11.49c0,.49,0,1,0,1.48A1.46,1.46,0,0,1,9.55,9a1.48,1.48,0,0,1-1-1.41c0-.47,0-.95,0-1.5A18.93,18.93,0,0,0,6,6.2,2.88,2.88,0,0,0,3.74,9V31.88a2.88,2.88,0,0,0,1.67,2.84A3.64,3.64,0,0,0,6.87,35c2,0,4,0,6,0a1.42,1.42,0,0,1,1.4.9A1.34,1.34,0,0,1,14,37.52a3.71,3.71,0,0,1-.77.48H6a1.11,1.11,0,0,0-.16-.07,5.71,5.71,0,0,1-4.5-3.33,13.1,13.1,0,0,1-.58-1.84Z"/><path class="cls-2" d="M25.23,38c-.91-.17-1.85-.27-2.74-.52a12.23,12.23,0,0,1-6.4-4.26,12.07,12.07,0,0,1-2.43-5,12.6,12.6,0,0,1,6.11-13.74A12.2,12.2,0,0,1,27,12.87a12.4,12.4,0,0,1,8.46,4.3l.1.1s0,0,.08,0c0-.72,0-1.44,0-2.15a1.46,1.46,0,0,1,2-1.4,1.32,1.32,0,0,1,1,1.22,30.61,30.61,0,0,1-.07,3.83,4.31,4.31,0,0,1-4.07,3.71c-1.06,0-2.12,0-3.18,0a1.47,1.47,0,0,1,0-2.94h2.31a8.74,8.74,0,0,0-2.5-2.29,9.32,9.32,0,0,0-8.63-.8,9.21,9.21,0,0,0-6,7.42,9.19,9.19,0,0,0,3.32,8.9A9.31,9.31,0,0,0,26.86,35a10.15,10.15,0,0,0,3.82-1.16,1.47,1.47,0,0,1,2.2,1,1.44,1.44,0,0,1-.74,1.59,12.18,12.18,0,0,1-4.26,1.46l-1,.15Z"/><path class="cls-2" d="M27.45,23.16c0,.7,0,1.4,0,2.1a1.62,1.62,0,0,1-.59,1.33c-.76.64-1.52,1.29-2.29,1.92a1.47,1.47,0,0,1-2.08-.16,1.45,1.45,0,0,1,.17-2.08c.5-.45,1-.88,1.55-1.3a.69.69,0,0,0,.29-.62c0-1.15,0-2.29,0-3.43a1.47,1.47,0,0,1,2.81-.58,2,2,0,0,1,.13.72C27.46,21.76,27.45,22.46,27.45,23.16Z"/><path class="cls-2" d="M37.12,24.64a1.47,1.47,0,0,1,1.46,1.48,1.5,1.5,0,0,1-1.49,1.47,1.48,1.48,0,0,1-1.46-1.49A1.46,1.46,0,0,1,37.12,24.64Z"/><path class="cls-2" d="M35.24,30.14a1.47,1.47,0,1,1-1.46,1.48A1.47,1.47,0,0,1,35.24,30.14Z"/></g></g></svg>