<svg xmlns="http://www.w3.org/2000/svg" viewBox="0 0 40 40"><defs><style>.cls-1{fill:none;}.cls-2{fill:#fff;}</style></defs><g id="Layer_2" data-name="Layer 2"><g id="Layer_1-2" data-name="Layer 1"><rect class="cls-1" width="40" height="40"/><path class="cls-2" d="M39.45,4.85V34.17a1.3,1.3,0,0,1-1.27.83H2.62a1.12,1.12,0,0,1-1.26-1.25V5.28a1.65,1.65,0,0,1,0-.44C1.56,4.28,2,4,2.7,4H38A1.39,1.39,0,0,1,39.45,4.85Zm-10,27.89h3c0-.38,0-.72,0-1.07a1.12,1.12,0,1,1,2.23,0c0,.35,0,.69,0,1.05h2.5V6.29H34.69c0,.35,0,.67,0,1A1.1,1.1,0,0,1,33.58,8.5a1.12,1.12,0,0,1-1.12-1.22v-1h-3v.57c0,.19,0,.39,0,.59a1.06,1.06,0,0,1-.72,1,1.11,1.11,0,0,1-1.5-1.09c0-.35,0-.71,0-1.08H24.14v1A1.1,1.1,0,0,1,23,8.5a1.13,1.13,0,0,1-1.13-1.22c0-.33,0-.66,0-1H18.86c0,.4,0,.78,0,1.17a1,1,0,0,1-.69,1,1.09,1.09,0,0,1-1.51-.9c0-.4,0-.81,0-1.23H13.58c0,.43,0,.83,0,1.22a1,1,0,0,1-.7.92,1.08,1.08,0,0,1-1.48-.94c0-.4,0-.81,0-1.23H8.33c0,.37,0,.7,0,1a1.11,1.11,0,1,1-2.22,0c0-.33,0-.66,0-1H3.61V32.73H6.1v-1a1.12,1.12,0,1,1,2.23,0c0,.33,0,.66,0,1h3c0-.4,0-.78,0-1.16a1,1,0,0,1,.71-1,1.11,1.11,0,0,1,1.51,1.09c0,.35,0,.7,0,1h3c0-.36,0-.69,0-1a2,2,0,0,1,.21-.73A1,1,0,0,1,18,30.55a1,1,0,0,1,.82.89c0,.43,0,.86,0,1.3h3.07c0-.36,0-.69,0-1a1.12,1.12,0,1,1,2.23,0c0,.33,0,.66,0,1H27.2c0-.37,0-.73,0-1.08a1.11,1.11,0,1,1,2.22,0C29.43,32,29.42,32.37,29.42,32.74Z"/><path class="cls-2" d="M29.8,10.79h3.12A1.12,1.12,0,0,1,34.16,12c0,1.88,0,3.75,0,5.62A1.13,1.13,0,0,1,33,18.89H26.63a1.13,1.13,0,0,1-1.21-1.22c0-1.89,0-3.79,0-5.69a1.12,1.12,0,0,1,1.22-1.19Zm-2.13,5.85h4.24V13.05H27.67Z"/><path class="cls-2" d="M19.29,19.47c0-2.52,0-5,0-7.55a1.11,1.11,0,0,1,1.51-1.1,1.07,1.07,0,0,1,.71.92,1.62,1.62,0,0,1,0,.22V27a1.14,1.14,0,0,1-.62,1.14,1.1,1.1,0,0,1-1.61-1c0-.73,0-1.47,0-2.2Z"/><path class="cls-2" d="M11.37,26h4.31a1.1,1.1,0,0,1,1,1.63,1.15,1.15,0,0,1-1.15.6H11.18c-1.36,0-2.71,0-4.06,0a1.11,1.11,0,0,1-1.24-1.05A1.08,1.08,0,0,1,7,26h4.35Z"/><path class="cls-2" d="M11.4,21.78h4.24A1.09,1.09,0,0,1,16.83,23,1,1,0,0,1,16,24a2.19,2.19,0,0,1-.51,0H6.87a1.11,1.11,0,0,1,0-2.21h4.5Z"/></g></g></svg>