<?xml version="1.0" encoding="UTF-8"?><svg id="Layer_2" xmlns="http://www.w3.org/2000/svg" viewBox="0 0 28 28"><defs><style>.cls-1{fill:#0091ff;}.cls-2{fill:none;}</style></defs><g id="Layer_1-2"><g><rect class="cls-2" width="28" height="28"/><g><path class="cls-1" d="M1.1,25.37V3.38c.09,0,.19,.01,.28,.01,8.62,0,17.24,0,25.86,0,.09,0,.19,0,.28-.01V25.37c-.1,0-.21-.01-.31-.01-8.6,0-17.2,0-25.8,0-.1,0-.21,0-.31,.01Zm24.65-1.76V5.16H2.87V23.61H25.75Z"/><path class="cls-1" d="M15.3,10.44l1.65,.55-3.62,10.85-1.66-.55,3.62-10.86Z"/><path class="cls-1" d="M10.41,12.34l1.32,1.15-2.8,2.68,2.77,2.65-1.2,1.26-4.09-3.9,4.01-3.84Z"/><path class="cls-1" d="M16.93,13.52l1.21-1.26,4.09,3.91-4.02,3.84-1.31-1.16,2.8-2.68-2.77-2.65Z"/><path class="cls-1" d="M6.35,6.92v1.73c-.55,0-1.07,0-1.6,0-.04,0-.12-.1-.12-.15,0-.47-.01-.94,0-1.41,0-.06,.09-.15,.14-.16,.52-.01,1.04,0,1.58,0Z"/><path class="cls-1" d="M8.17,8.65v-1.71h1.73c0,.53,0,1.06,0,1.59,0,.04-.08,.12-.13,.12-.52,0-1.04,0-1.6,0Z"/><path class="cls-1" d="M11.69,6.93h1.71v1.7h-1.71v-1.7Z"/></g></g></g></svg>