<svg xmlns="http://www.w3.org/2000/svg" viewBox="0 0 28 28"><defs><style>.cls-1{fill:none;}.cls-2{fill:#0091ff;}</style></defs><g id="Layer_2" data-name="Layer 2"><g id="Layer_1-2" data-name="Layer 1"><rect class="cls-1" width="28" height="28"/><path class="cls-2" d="M27.41,11.06a4,4,0,0,0-3.78-2.89h-3.8V4.53A4,4,0,0,0,16.42.48l-.09,0H11.67l-.51.12a4,4,0,0,0-3,3.82c0,1.16,0,2.33,0,3.49v.31H4.53A4,4,0,0,0,.47,11.58a.18.18,0,0,1,0,.09v4.66c0,.18.09.36.13.53a4,4,0,0,0,3.83,3c1.16,0,2.32,0,3.47,0h.31v3.64a4,4,0,0,0,3.41,4.05l.09.05h4.66l.53-.13a4,4,0,0,0,3-3.83c0-1.16,0-2.32,0-3.47v-.31h3.64a4,4,0,0,0,4.05-3.41.41.41,0,0,1,.05-.09V11.67C27.52,11.47,27.47,11.26,27.41,11.06ZM8.16,14.3c0,1.21,0,2.42,0,3.63v.31H4.5A2.39,2.39,0,0,1,2,15.77V12.22A2.39,2.39,0,0,1,4.48,9.76H13.8a1.35,1.35,0,0,0,.35,0A.79.79,0,0,0,14,8.17H9.76V4.52A2.38,2.38,0,0,1,12.26,2h3.5a2.39,2.39,0,0,1,2.48,2.47v8.72h-.35c-2.87,0-5.74,0-8.61,0C8.47,13.19,8.14,13.55,8.16,14.3ZM26,15.77a2.38,2.38,0,0,1-2.47,2.47H14.07a.8.8,0,0,0-.8,1.11.81.81,0,0,0,.81.48h4.15c0,.09,0,.16,0,.22v3.47A2.39,2.39,0,0,1,15.78,26H12.22a2.39,2.39,0,0,1-2.46-2.46V14.79h.34c2.92,0,5.85,0,8.77,0,.66,0,1-.29,1-.94V9.77h3.66A2.39,2.39,0,0,1,26,12.24ZM12.14,4.41a.8.8,0,0,0-.79.79.8.8,0,1,0,.79-.79Zm3.69,19.18a.8.8,0,0,0,.82-.79.8.8,0,0,0-1.59,0A.81.81,0,0,0,15.83,23.59Z"/></g></g></svg>