<svg xmlns="http://www.w3.org/2000/svg" viewBox="0 0 28 28"><defs><style>.cls-1{fill:none;}.cls-2{fill:#0091ff;}</style></defs><g id="Layer_2" data-name="Layer 2"><g id="Layer_1-2" data-name="Layer 1"><rect class="cls-1" width="28" height="28"/><path class="cls-2" d="M14.66,21c-.44,0-.88,0-1.33,0a.57.57,0,0,0-.53.62.58.58,0,0,0,.55.57c.22,0,.43,0,.65,0h.65a.58.58,0,0,0,.55-.58A.57.57,0,0,0,14.66,21Zm0,2.42h-1.3a.59.59,0,0,0-.06,1.18,11.06,11.06,0,0,0,1.41,0,.6.6,0,0,0-.05-1.18ZM3.71,24.57H4.93a.6.6,0,0,0,.59-.6.59.59,0,0,0-.59-.59H3.71A.59.59,0,0,0,3.1,24,.61.61,0,0,0,3.71,24.57Zm0-4.83c.21,0,.41,0,.62,0h0c.21,0,.42,0,.63,0a.6.6,0,0,0,.57-.59.59.59,0,0,0-.58-.61c-.41,0-.83,0-1.25,0a.6.6,0,0,0-.59.61A.61.61,0,0,0,3.7,19.74Zm22.73-3.62H24.29V6.05c0-.64-.18-.81-.83-.81h-3l-.32,0V4.88c0-.81,0-1.63,0-2.44A1.31,1.31,0,0,0,18.66,1H9.35A1.31,1.31,0,0,0,7.9,2.44c0,.82,0,1.64,0,2.46v.34H4.55c-.67,0-.84.16-.84.84v10H1.49c-.63,0-.81.19-.81.81v9.24c0,.63.2.83.83.83H7.1c.66,0,.84-.18.84-.84v-9c0-.94-.09-1-1-1h-2V6.46h3v.36c0,.94,0,1.89,0,2.83a1.31,1.31,0,0,0,1.44,1.44h4v5H13c-.66,0-1.32,0-2,0a.6.6,0,0,0-.68.68v9.52A.61.61,0,0,0,11,27H17a.61.61,0,0,0,.67-.68V16.77a.59.59,0,0,0-.65-.65c-.68,0-1.36,0-2,0h-.31v-5h4A1.31,1.31,0,0,0,20.1,9.63c0-1,0-1.91,0-2.86,0-.1,0-.21,0-.31h2.95v9.66H20.82c-.57,0-.76.19-.76.77v9.32c0,.59.2.79.81.79h5.61c.65,0,.84-.2.84-.85V17C27.32,16.28,27.16,16.12,26.43,16.12ZM6.72,17.33v8.43H1.91V17.33Zm2.4-15c0-.05.1-.12.17-.16a.44.44,0,0,1,.2,0h9c.38,0,.38,0,.38.37V3.72h-.34c-1.17,0-2.35,0-3.52,0a3.67,3.67,0,0,0-1.7.33,2.07,2.07,0,0,1-1,.19c-1,0-1.91,0-2.87,0H9.11C9.11,3.59,9.11,3,9.12,2.37Zm7.28,15v8.42H11.59V17.34Zm2.2-7.45H9.41c-.23,0-.3-.07-.3-.31,0-1.3,0-2.6,0-3.91,0-.07,0-.14,0-.25h.31c.92,0,1.84,0,2.75,0a3.58,3.58,0,0,0,1.71-.32,2.18,2.18,0,0,1,1-.2h4V6.41c0,1.06,0,2.13,0,3.2C18.89,9.83,18.82,9.9,18.6,9.89Zm7.48,15.88H21.29V17.34h4.79ZM3.68,22.15c.21,0,.42,0,.63,0h0c.21,0,.43,0,.65,0a.59.59,0,0,0,.56-.6A.57.57,0,0,0,5,21c-.45,0-.89,0-1.34,0a.59.59,0,0,0-.55.61A.6.6,0,0,0,3.68,22.15Zm9.71-2.41c.19,0,.39,0,.59,0h0c.22,0,.44,0,.65,0a.58.58,0,0,0,.57-.59.57.57,0,0,0-.57-.61c-.42,0-.83,0-1.25,0a.59.59,0,0,0-.58.61A.59.59,0,0,0,13.39,19.74Zm9.7,0c.4,0,.8,0,1.19,0a.61.61,0,0,0,.62-.61.62.62,0,0,0-.63-.6c-.19,0-.38,0-.57,0s-.4,0-.6,0a.61.61,0,1,0,0,1.21ZM23,22.15c.21,0,.43,0,.65,0h0c.21,0,.42,0,.62,0a.6.6,0,0,0,.59-.58.59.59,0,0,0-.55-.61c-.44,0-.89,0-1.33,0a.58.58,0,0,0-.54.59A.59.59,0,0,0,23,22.15Zm0,2.41a11.82,11.82,0,0,0,1.33,0A.6.6,0,0,0,24.9,24a.59.59,0,0,0-.58-.58H23a.6.6,0,0,0-.56.59A.57.57,0,0,0,23,24.56Z"/></g></g></svg>