<svg xmlns="http://www.w3.org/2000/svg" viewBox="0 0 28 28"><defs><style>.cls-1{fill:none;}.cls-2{fill:#0091ff;}</style></defs><g id="Layer_2" data-name="Layer 2"><g id="Layer_1-2" data-name="Layer 1"><rect class="cls-1" width="28" height="28"/><path class="cls-2" d="M22.25,20.7a1,1,0,0,0-2,.44c0,.66,0,1.32,0,2a2.11,2.11,0,0,1-2.16,2.16H8A2.11,2.11,0,0,1,5.78,23.1V4.64A2.11,2.11,0,0,1,8,2.46H18.06a2.12,2.12,0,0,1,2.19,2.21c0,.49,0,1,0,1.48a1.06,1.06,0,1,0,2.11,0V4.64A4.23,4.23,0,0,0,18.08.35Q13,.34,7.94.36A4.59,4.59,0,0,0,6.52.59,4.19,4.19,0,0,0,3.67,4.68v17c0,.54,0,1.09,0,1.63A4.08,4.08,0,0,0,6.05,27a7.82,7.82,0,0,0,1.37.44h11.2l.14-.05a4.15,4.15,0,0,0,3.55-3.6,26.78,26.78,0,0,0,.05-2.69A.89.89,0,0,0,22.25,20.7ZM11.33,13.45l2.35-2A1,1,0,0,0,13.83,10a1,1,0,0,0-1.46-.16c-.94.76-1.87,1.54-2.78,2.34a2.36,2.36,0,0,0-.75,1.76,2.44,2.44,0,0,0,.75,1.76,7.92,7.92,0,0,0,.7.6c.66.56,1.33,1.13,2,1.68a1.06,1.06,0,1,0,1.36-1.61c-.82-.7-1.65-1.39-2.48-2.08-.29-.25-.29-.45,0-.7Zm14.45-1.3c-.22-.21-.45-.39-.68-.59L23.16,9.9a1.06,1.06,0,1,0-1.36,1.61l2.34,2c.39.33.39.49,0,.82L21.74,16.4a1,1,0,0,0-.14,1.47,1,1,0,0,0,1.47.16c.93-.77,1.84-1.55,2.74-2.36a2.31,2.31,0,0,0,.73-1.73A2.43,2.43,0,0,0,25.78,12.15Zm-7-3.52a1.14,1.14,0,0,0-.84.9c-.51,1.81-1,3.63-1.54,5.45-.27,1-.56,1.93-.81,2.91a1,1,0,0,0,1,1.26,1.1,1.1,0,0,0,1.1-.84c.48-1.66.95-3.33,1.43-5,.32-1.15.66-2.3,1-3.45A1,1,0,0,0,18.78,8.63ZM15.13,5.18a1,1,0,0,0-1-1.07q-1.09,0-2.19,0A1.05,1.05,0,0,0,12,6.21h2.08A1.05,1.05,0,0,0,15.13,5.18ZM13,23.64a1,1,0,0,0,1.06-1.05A1.06,1.06,0,1,0,13,23.64Z"/></g></g></svg>