<svg xmlns="http://www.w3.org/2000/svg" viewBox="0 0 28 28"><defs><style>.cls-1,.cls-3{fill:none;}.cls-2{fill:#0091ff;}.cls-3{stroke:#0091ff;stroke-miterlimit:10;stroke-width:0.3px;}</style></defs><g id="Layer_2" data-name="Layer 2"><g id="Layer_1-2" data-name="Layer 1"><rect class="cls-1" width="28" height="28"/><path class="cls-2" d="M5.89,11.77h3.5a.29.29,0,0,1,.3.17,1.3,1.3,0,0,0,1.91.5.29.29,0,0,1,.35,0l1.44.8a.29.29,0,0,1,.17.31,1.34,1.34,0,0,0,1.33,1.36,1.35,1.35,0,0,0,1.36-1.38.4.4,0,0,1,.16-.27c.49-.29,1-.57,1.49-.83a.33.33,0,0,1,.29,0,1.35,1.35,0,0,0,1.9-.43,1.33,1.33,0,0,0-.53-1.87.44.44,0,0,1-.17-.27q0-.78,0-1.56A.38.38,0,0,1,19.56,8a1.34,1.34,0,0,0,.53-1.87,1.32,1.32,0,0,0-1.9-.42.26.26,0,0,1-.32,0c-.48-.28-1-.54-1.46-.82a.42.42,0,0,1-.16-.28,1.35,1.35,0,1,0-2.7,0,.33.33,0,0,1-.14.26c-.54.32-1.09.61-1.65.92a1.34,1.34,0,0,0-2.1.44.38.38,0,0,1-.27.12c-1.17,0-2.33,0-3.5,0a.61.61,0,0,1-.36-.15c-.45-.43-.9-.87-1.33-1.33a.85.85,0,0,0-.76-.31.33.33,0,0,1-.39-.21,1.29,1.29,0,0,0-1.5-.63,1.34,1.34,0,0,0,0,2.58,1.33,1.33,0,0,0,1.51-.62c.17-.28.36-.31.59-.08.45.45.92.9,1.36,1.36a.85.85,0,0,0,.72.29H9.31a.38.38,0,0,1,.41.23.91.91,0,0,0,.4.42c.34.15.33.39.28.69h-7c-.17,0-.23-.08-.3-.21a1.34,1.34,0,1,0-1.51,1.94,1.29,1.29,0,0,0,1.5-.64.35.35,0,0,1,.37-.21h7c.08.34,0,.56-.29.71a1.1,1.1,0,0,0-.4.45.32.32,0,0,1-.33.18H5.65a.79.79,0,0,0-.6.25c-.46.48-.94,1-1.42,1.43a.31.31,0,0,1-.55-.07,1.33,1.33,0,0,0-1.5-.66,1.33,1.33,0,0,0-1,1.3,1.34,1.34,0,0,0,1,1.29,1.3,1.3,0,0,0,1.49-.65.33.33,0,0,1,.38-.2.84.84,0,0,0,.76-.31c.43-.45.88-.89,1.33-1.32A.58.58,0,0,1,5.89,11.77ZM1.9,5.5a.46.46,0,0,1-.44-.45.45.45,0,0,1,.89,0A.45.45,0,0,1,1.9,5.5Zm0,4a.44.44,0,0,1-.43-.46.46.46,0,0,1,.46-.43.45.45,0,1,1,0,.89Zm12.3,2.91a.32.32,0,0,1-.37,0l-1.44-.8a.38.38,0,0,1,0-.66l1.44-.79a.43.43,0,0,1,.62.38c0,.26,0,.52,0,.78s0,.41,0,.61A.4.4,0,0,1,14.19,12.43Zm.27-3.35a.45.45,0,1,1,.89,0,.45.45,0,0,1-.89,0ZM14.9,14a.45.45,0,0,1-.44-.45.45.45,0,0,1,.89,0A.46.46,0,0,1,14.9,14Zm2.55-2.37-1.61.89c-.49-.1-.52-.42-.49-.79s0-.8,0-1.2a.45.45,0,0,1,.6-.36l1.49.83A.38.38,0,0,1,17.45,11.63Zm1.48.13a.45.45,0,1,1,0-.89.45.45,0,0,1,.43.46A.44.44,0,0,1,18.93,11.76Zm0-5.36a.44.44,0,0,1,.44.45.45.45,0,0,1-.45.44.46.46,0,0,1-.44-.46A.44.44,0,0,1,18.94,6.4ZM17.88,7.94a.46.46,0,0,1,.61.35v.78c0,.21,0,.41,0,.62a.44.44,0,0,1-.28.52.34.34,0,0,1-.35,0l-1.44-.8a.38.38,0,0,1,0-.66ZM15.63,5.71a.34.34,0,0,1,.35,0l1.44.8a.38.38,0,0,1,0,.66L16,8a.46.46,0,0,1-.61-.35V6.85c0-.21,0-.41,0-.62A.43.43,0,0,1,15.63,5.71Zm-.71-1.55a.45.45,0,1,1,0,.89.45.45,0,0,1,0-.89ZM12.34,6.54,14,5.62l.06,0c.37.13.45.39.41.76a7.36,7.36,0,0,0,0,1c0,.26,0,.43-.29.52a.59.59,0,0,0-.16.1l-1.67-.93A.38.38,0,0,1,12.34,6.54Zm-1,1.73A.46.46,0,0,1,11.46,8a2.81,2.81,0,0,1,.31-.19l1.64.91a.37.37,0,0,1,0,.63c-.5.29-1,.57-1.51.84a.47.47,0,0,1-.58-.34Q11.31,9.08,11.32,8.27Zm-.9-1.42a.45.45,0,0,1,.44-.45.44.44,0,0,1,.45.43.45.45,0,0,1-.43.46A.46.46,0,0,1,10.42,6.85Zm.46,4a.45.45,0,0,1,.43.46.44.44,0,0,1-.45.43.46.46,0,0,1-.44-.46A.45.45,0,0,1,10.88,10.87Zm-9,2.68a.45.45,0,0,1-.43-.46.45.45,0,0,1,.89,0A.46.46,0,0,1,1.89,13.55Zm25.48,3.69q-1-3.24-2-6.5a6.8,6.8,0,0,1-.17-.9,20,20,0,0,0-.39-2A10,10,0,0,0,8.61,3a9.74,9.74,0,0,0-2,2.26l.74.47.17-.21a9,9,0,0,1,9-3.93,9.12,9.12,0,0,1,7.68,7.74,7.6,7.6,0,0,0,.15,1.27c.63,2.08,1.29,4.16,1.94,6.23l.09.3H23.58c-.46,0-.61.14-.61.6v1.64H21.61a1.34,1.34,0,0,1-1.29-1L20.26,18h-.87a2.25,2.25,0,0,0,2.27,2.22H23V23H17.29c-.44,0-.59.14-.59.58v3H10.51c-.13-1.28-.21-2.53-.41-3.77a21.32,21.32,0,0,0-2.67-7.09c-.42-.72-.72-1.51-1.07-2.27A1.89,1.89,0,0,1,6.24,13l-.86.23A11.1,11.1,0,0,0,6.64,16.1,20.55,20.55,0,0,1,8.8,21.05a19.28,19.28,0,0,1,.73,5.8c0,.41.15.57.55.57h7c.38,0,.54-.16.54-.55v-3h5.66c.48,0,.62-.14.62-.61V18c1,0,2,0,2.92,0C27.39,18,27.55,17.81,27.37,17.24Z"/><path class="cls-3" d="M5.89,11.77h3.5a.29.29,0,0,1,.3.17,1.3,1.3,0,0,0,1.91.5.29.29,0,0,1,.35,0l1.44.8a.29.29,0,0,1,.17.31,1.34,1.34,0,0,0,1.33,1.36,1.35,1.35,0,0,0,1.36-1.38.4.4,0,0,1,.16-.27c.49-.29,1-.57,1.49-.83a.33.33,0,0,1,.29,0,1.35,1.35,0,0,0,1.9-.43,1.33,1.33,0,0,0-.53-1.87.44.44,0,0,1-.17-.27q0-.78,0-1.56A.38.38,0,0,1,19.56,8a1.34,1.34,0,0,0,.53-1.87,1.32,1.32,0,0,0-1.9-.42.26.26,0,0,1-.32,0c-.48-.28-1-.54-1.46-.82a.42.42,0,0,1-.16-.28,1.35,1.35,0,1,0-2.7,0,.33.33,0,0,1-.14.26c-.54.32-1.09.61-1.65.92a1.34,1.34,0,0,0-2.1.44.38.38,0,0,1-.27.12c-1.17,0-2.33,0-3.5,0a.61.61,0,0,1-.36-.15c-.45-.43-.9-.87-1.33-1.33a.85.85,0,0,0-.76-.31.33.33,0,0,1-.39-.21,1.29,1.29,0,0,0-1.5-.63,1.34,1.34,0,0,0,0,2.58,1.33,1.33,0,0,0,1.51-.62c.17-.28.36-.31.59-.08.45.45.92.9,1.36,1.36a.85.85,0,0,0,.72.29H9.31a.38.38,0,0,1,.41.23.91.91,0,0,0,.4.42c.34.15.33.39.28.69h-7c-.17,0-.23-.08-.3-.21a1.34,1.34,0,1,0-1.51,1.94,1.29,1.29,0,0,0,1.5-.64.35.35,0,0,1,.37-.21h7c.08.34,0,.56-.29.71a1.1,1.1,0,0,0-.4.45.32.32,0,0,1-.33.18H5.65a.79.79,0,0,0-.6.25c-.46.48-.94,1-1.42,1.43a.31.31,0,0,1-.55-.07,1.33,1.33,0,0,0-1.5-.66,1.33,1.33,0,0,0-1,1.3,1.34,1.34,0,0,0,1,1.29,1.3,1.3,0,0,0,1.49-.65.33.33,0,0,1,.38-.2.84.84,0,0,0,.76-.31c.43-.45.88-.89,1.33-1.32A.58.58,0,0,1,5.89,11.77ZM1.9,5.5a.46.46,0,0,1-.44-.45.45.45,0,0,1,.89,0A.45.45,0,0,1,1.9,5.5Zm0,4a.44.44,0,0,1-.43-.46.46.46,0,0,1,.46-.43.45.45,0,1,1,0,.89Zm12.3,2.91a.32.32,0,0,1-.37,0l-1.44-.8a.38.38,0,0,1,0-.66l1.44-.79a.43.43,0,0,1,.62.38c0,.26,0,.52,0,.78s0,.41,0,.61A.4.4,0,0,1,14.19,12.43Zm.27-3.35a.45.45,0,1,1,.89,0,.45.45,0,0,1-.89,0ZM14.9,14a.45.45,0,0,1-.44-.45.45.45,0,0,1,.89,0A.46.46,0,0,1,14.9,14Zm2.55-2.37-1.61.89c-.49-.1-.52-.42-.49-.79s0-.8,0-1.2a.45.45,0,0,1,.6-.36l1.49.83A.38.38,0,0,1,17.45,11.63Zm1.48.13a.45.45,0,1,1,0-.89.45.45,0,0,1,.43.46A.44.44,0,0,1,18.93,11.76Zm0-5.36a.44.44,0,0,1,.44.45.45.45,0,0,1-.45.44.46.46,0,0,1-.44-.46A.44.44,0,0,1,18.94,6.4ZM17.88,7.94a.46.46,0,0,1,.61.35v.78c0,.21,0,.41,0,.62a.44.44,0,0,1-.28.52.34.34,0,0,1-.35,0l-1.44-.8a.38.38,0,0,1,0-.66ZM15.63,5.71a.34.34,0,0,1,.35,0l1.44.8a.38.38,0,0,1,0,.66L16,8a.46.46,0,0,1-.61-.35V6.85c0-.21,0-.41,0-.62A.43.43,0,0,1,15.63,5.71Zm-.71-1.55a.45.45,0,1,1,0,.89.45.45,0,0,1,0-.89ZM12.34,6.54,14,5.62l.06,0c.37.13.45.39.41.76a7.36,7.36,0,0,0,0,1c0,.26,0,.43-.29.52a.59.59,0,0,0-.16.1l-1.67-.93A.38.38,0,0,1,12.34,6.54Zm-1,1.73A.46.46,0,0,1,11.46,8a2.81,2.81,0,0,1,.31-.19l1.64.91a.37.37,0,0,1,0,.63c-.5.29-1,.57-1.51.84a.47.47,0,0,1-.58-.34Q11.31,9.08,11.32,8.27Zm-.9-1.42a.45.45,0,0,1,.44-.45.44.44,0,0,1,.45.43.45.45,0,0,1-.43.46A.46.46,0,0,1,10.42,6.85Zm.46,4a.45.45,0,0,1,.43.46.44.44,0,0,1-.45.43.46.46,0,0,1-.44-.46A.45.45,0,0,1,10.88,10.87Zm-9,2.68a.45.45,0,0,1-.43-.46.45.45,0,0,1,.89,0A.46.46,0,0,1,1.89,13.55Zm25.48,3.69q-1-3.24-2-6.5a6.8,6.8,0,0,1-.17-.9,20,20,0,0,0-.39-2A10,10,0,0,0,8.61,3a9.74,9.74,0,0,0-2,2.26l.74.47.17-.21a9,9,0,0,1,9-3.93,9.12,9.12,0,0,1,7.68,7.74,7.6,7.6,0,0,0,.15,1.27c.63,2.08,1.29,4.16,1.94,6.23l.09.3H23.58c-.46,0-.61.14-.61.6v1.64H21.61a1.34,1.34,0,0,1-1.29-1L20.26,18h-.87a2.25,2.25,0,0,0,2.27,2.22H23V23H17.29c-.44,0-.59.14-.59.58v3H10.51c-.13-1.28-.21-2.53-.41-3.77a21.32,21.32,0,0,0-2.67-7.09c-.42-.72-.72-1.51-1.07-2.27A1.89,1.89,0,0,1,6.24,13l-.86.23A11.1,11.1,0,0,0,6.64,16.1,20.55,20.55,0,0,1,8.8,21.05a19.28,19.28,0,0,1,.73,5.8c0,.41.15.57.55.57h7c.38,0,.54-.16.54-.55v-3h5.66c.48,0,.62-.14.62-.61V18c1,0,2,0,2.92,0C27.39,18,27.55,17.81,27.37,17.24Z"/></g></g></svg>