<svg xmlns="http://www.w3.org/2000/svg" viewBox="0 0 28 28"><defs><style>.cls-1,.cls-3{fill:none;}.cls-2{fill:#0091ff;}.cls-3{stroke:#0091ff;stroke-miterlimit:10;stroke-width:0.34px;}</style></defs><g id="Layer_2" data-name="Layer 2"><g id="Layer_1-2" data-name="Layer 1"><rect class="cls-1" width="28" height="28"/><path class="cls-2" d="M12.72,15.75h2.57a.87.87,0,0,0,.91-.86q0-.45,0-.9a.88.88,0,0,0-.92-.87H12.71a.88.88,0,0,0-.91.86q0,.45,0,.9A.88.88,0,0,0,12.72,15.75Zm0-1.74h2.6v.85H12.7Zm2.58,2.62H12.73a.88.88,0,0,0-.93.91c0,.27,0,.53,0,.8a.86.86,0,0,0,.92.91h2.57a.88.88,0,0,0,.91-.89q0-.42,0-.84A.88.88,0,0,0,15.28,16.63Zm0,1.73H12.69v-.85H15.3Zm11,3.53V6.64a2.18,2.18,0,0,0-1.69-2.22A2.65,2.65,0,0,0,24,4.35c-.71,0-1.41,0-2.11,0a.55.55,0,0,1-.37-.16A10.08,10.08,0,0,0,15.58,1c-.3,0-.61-.08-.91-.12H13.33c-.43.06-.86.11-1.29.2a9.83,9.83,0,0,0-5.44,3A.72.72,0,0,1,6,4.36c-.81,0-1.62,0-2.42,0A2.14,2.14,0,0,0,1.7,6.49c0,.34,0,.69,0,1V21.88a1,1,0,0,0-.88.7v1.9a7.1,7.1,0,0,0,.31.92,2.92,2.92,0,0,0,2.75,1.74c6.75,0,13.49,0,20.24,0a3.07,3.07,0,0,0,3-2.5,1.09,1.09,0,0,1,.05-.17v-1.9A1,1,0,0,0,26.3,21.89ZM14,1.72a9.21,9.21,0,1,1-9.23,9.19A9.22,9.22,0,0,1,14,1.72ZM2.58,21.6c0-5,0-10,0-14.92A1.33,1.33,0,0,1,4,5.23c.53,0,1,0,1.63,0a10,10,0,0,0-1.42,8.3,9.67,9.67,0,0,0,3.54,5.34A10.07,10.07,0,0,0,20.06,19,9.86,9.86,0,0,0,24,12.58a10,10,0,0,0-1.6-7.32c.7,0,1.37,0,2,0a1.24,1.24,0,0,1,1,1.19,2.26,2.26,0,0,1,0,.26V21.88H2.58ZM17,24.09c-1.94,0-3.88,0-5.81,0a1,1,0,0,1-1.08-1.31h7.84A1,1,0,0,1,17,24.09Zm9.24.59a2.11,2.11,0,0,1-2,1.59H4a2.16,2.16,0,0,1-2.22-1.7,15,15,0,0,1-.1-1.79h7.5c0,.13,0,.26,0,.39A1.73,1.73,0,0,0,10.92,25q3.08,0,6.15,0a1.73,1.73,0,0,0,1.76-1.76c0-.13,0-.26,0-.4h7.51A13,13,0,0,1,26.2,24.68ZM11.14,8.3h.66v3a.89.89,0,0,0,1,1H15.2a.9.9,0,0,0,1-1V8.3h.69a1.53,1.53,0,0,0,1.4-1,1.39,1.39,0,0,0-.38-1.59C17,4.85,16.06,4,15.13,3.07a1.57,1.57,0,0,0-2.26,0L10.1,5.73a1.41,1.41,0,0,0-.39,1.61A1.54,1.54,0,0,0,11.14,8.3Zm-.41-2,2.72-2.59a.72.72,0,0,1,1.11,0l2.71,2.59a.58.58,0,0,1,.19.69.62.62,0,0,1-.63.4h-1c-.38,0-.54.15-.54.53v3.41H12.68V8c0-.46-.14-.6-.6-.6h-.9a.65.65,0,0,1-.65-.4A.61.61,0,0,1,10.73,6.33ZM7.85,23.65H6.56a.44.44,0,0,0-.46.42.42.42,0,0,0,.42.45c.45,0,.9,0,1.34,0a.44.44,0,1,0,0-.87ZM3,23.65a.44.44,0,0,0-.42.43.45.45,0,0,0,.44.44.44.44,0,0,0,.43-.45A.42.42,0,0,0,3,23.65Zm1.77,0a.43.43,0,0,0-.43.42.44.44,0,0,0,.43.45.43.43,0,0,0,.44-.44A.42.42,0,0,0,4.77,23.65Z"/><path class="cls-3" d="M12.72,15.75h2.57a.87.87,0,0,0,.91-.86q0-.45,0-.9a.88.88,0,0,0-.92-.87H12.71a.88.88,0,0,0-.91.86q0,.45,0,.9A.88.88,0,0,0,12.72,15.75Zm0-1.74h2.6v.85H12.7Zm2.58,2.62H12.73a.88.88,0,0,0-.93.91c0,.27,0,.53,0,.8a.86.86,0,0,0,.92.91h2.57a.88.88,0,0,0,.91-.89q0-.42,0-.84A.88.88,0,0,0,15.28,16.63Zm0,1.73H12.69v-.85H15.3Zm11,3.53V6.64a2.18,2.18,0,0,0-1.69-2.22A2.65,2.65,0,0,0,24,4.35c-.71,0-1.41,0-2.11,0a.55.55,0,0,1-.37-.16A10.08,10.08,0,0,0,15.58,1c-.3,0-.61-.08-.91-.12H13.33c-.43.06-.86.11-1.29.2a9.83,9.83,0,0,0-5.44,3A.72.72,0,0,1,6,4.36c-.81,0-1.62,0-2.42,0A2.14,2.14,0,0,0,1.7,6.49c0,.34,0,.69,0,1V21.88a1,1,0,0,0-.88.7v1.9a7.1,7.1,0,0,0,.31.92,2.92,2.92,0,0,0,2.75,1.74c6.75,0,13.49,0,20.24,0a3.07,3.07,0,0,0,3-2.5,1.09,1.09,0,0,1,.05-.17v-1.9A1,1,0,0,0,26.3,21.89ZM14,1.72a9.21,9.21,0,1,1-9.23,9.19A9.22,9.22,0,0,1,14,1.72ZM2.58,21.6c0-5,0-10,0-14.92A1.33,1.33,0,0,1,4,5.23c.53,0,1,0,1.63,0a10,10,0,0,0-1.42,8.3,9.67,9.67,0,0,0,3.54,5.34A10.07,10.07,0,0,0,20.06,19,9.86,9.86,0,0,0,24,12.58a10,10,0,0,0-1.6-7.32c.7,0,1.37,0,2,0a1.24,1.24,0,0,1,1,1.19,2.26,2.26,0,0,1,0,.26V21.88H2.58ZM17,24.09c-1.94,0-3.88,0-5.81,0a1,1,0,0,1-1.08-1.31h7.84A1,1,0,0,1,17,24.09Zm9.24.59a2.11,2.11,0,0,1-2,1.59H4a2.16,2.16,0,0,1-2.22-1.7,15,15,0,0,1-.1-1.79h7.5c0,.13,0,.26,0,.39A1.73,1.73,0,0,0,10.92,25q3.08,0,6.15,0a1.73,1.73,0,0,0,1.76-1.76c0-.13,0-.26,0-.4h7.51A13,13,0,0,1,26.2,24.68ZM11.14,8.3h.66v3a.89.89,0,0,0,1,1H15.2a.9.9,0,0,0,1-1V8.3h.69a1.53,1.53,0,0,0,1.4-1,1.39,1.39,0,0,0-.38-1.59C17,4.85,16.06,4,15.13,3.07a1.57,1.57,0,0,0-2.26,0L10.1,5.73a1.41,1.41,0,0,0-.39,1.61A1.54,1.54,0,0,0,11.14,8.3Zm-.41-2,2.72-2.59a.72.72,0,0,1,1.11,0l2.71,2.59a.58.58,0,0,1,.19.69.62.62,0,0,1-.63.4h-1c-.38,0-.54.15-.54.53v3.41H12.68V8c0-.46-.14-.6-.6-.6h-.9a.65.65,0,0,1-.65-.4A.61.61,0,0,1,10.73,6.33ZM7.85,23.65H6.56a.44.44,0,0,0-.46.42.42.42,0,0,0,.42.45c.45,0,.9,0,1.34,0a.44.44,0,1,0,0-.87ZM3,23.65a.44.44,0,0,0-.42.43.45.45,0,0,0,.44.44.44.44,0,0,0,.43-.45A.42.42,0,0,0,3,23.65Zm1.77,0a.43.43,0,0,0-.43.42.44.44,0,0,0,.43.45.43.43,0,0,0,.44-.44A.42.42,0,0,0,4.77,23.65Z"/></g></g></svg>