<?xml version="1.0" encoding="UTF-8"?><svg id="Layer_2" xmlns="http://www.w3.org/2000/svg" viewBox="0 0 40 40"><defs><style>.cls-1{fill:#fff;}.cls-2{fill:none;}</style></defs><g id="Layer_1-2"><g><rect class="cls-2" width="40" height="40"/><path class="cls-1" d="M1.46,30.8c-.36,.05-.7-.2-.75-.56l-.55-3.93c-.15-1.03,.33-2.01,1.13-2.56l1.6-6.51,.66-.09,1.31-.18,6.55-.92,1.31-.18,.66-.09,3.33,5.82c.93,.31,1.65,1.11,1.8,2.15l.55,3.93c.05,.36-.2,.7-.56,.75l-.66,.09,.18,1.31c.1,.72-.4,1.39-1.13,1.49-.72,.1-1.39-.4-1.49-1.13l-.18-1.31-10.49,1.47,.18,1.31c.1,.72-.4,1.39-1.13,1.49-.72,.1-1.39-.4-1.49-1.13l-.18-1.31-.66,.09Zm1.87-7.61l11.27-1.58-2.13-3.71-8.13,1.14-1.02,4.15Zm.06,1.16c-.72,.1-1.37,.96-1.27,1.68,.1,.72,.96,1.37,1.68,1.27,.72-.1,1.37-.96,1.27-1.68-.1-.72-.96-1.37-1.68-1.27Zm11.47-1.61c-.72,.1-1.37,.96-1.27,1.68,.1,.72,.96,1.37,1.68,1.27,.72-.1,1.37-.96,1.27-1.68-.1-.72-.96-1.37-1.68-1.27Zm6.65,5.57c-.36-.05-.61-.39-.56-.75l.55-3.93c.15-1.03,.87-1.84,1.8-2.15l3.33-5.82,.66,.09,1.31,.18,6.55,.92,1.31,.18,.66,.09,1.6,6.51c.81,.55,1.28,1.53,1.13,2.56l-.55,3.93c-.05,.36-.39,.61-.75,.56l-.66-.09-.18,1.31c-.1,.72-.77,1.23-1.49,1.13-.72-.1-1.23-.77-1.13-1.5l.18-1.31-10.49-1.47-.18,1.31c-.1,.72-.77,1.23-1.49,1.13-.72-.1-1.23-.77-1.13-1.5l.18-1.31-.66-.09Zm3.9-6.8l11.27,1.58-1.02-4.15-8.13-1.14-2.13,3.71Zm-.26,1.13c-.72-.1-1.58,.54-1.68,1.27-.1,.72,.54,1.58,1.27,1.68,.72,.1,1.58-.54,1.68-1.27,.1-.72-.54-1.58-1.27-1.68Zm11.47,1.61c-.72-.1-1.58,.54-1.68,1.27-.1,.72,.54,1.58,1.27,1.68,.72,.1,1.58-.54,1.68-1.27,.1-.72-.54-1.58-1.27-1.68ZM13.16,7.98l2.28-1.14,2.28,12.55L13.16,7.98Zm5.42-1.14h2.28l-2,12.54-.29-12.54Zm5.99,1.14l2.28,1.14-5.7,11.4,3.42-12.55Z"/></g></g></svg>