<?xml version="1.0" encoding="UTF-8"?>
<svg id="Layer_2" data-name="Layer 2" xmlns="http://www.w3.org/2000/svg" viewBox="0 0 40 40">
  <defs>
    <style>
      .cls-1 {
        fill: #0091ff;
      }

      .cls-2 {
        fill: none;
      }
    </style>
  </defs>
  <g id="Layer_2-2" data-name="Layer 2">
    <g>
      <rect class="cls-2" width="40" height="40"/>
      <g>
        <path class="cls-1" d="m36.91,28.77c.38,0,.83,0,1.29,0,.9,0,1.52.6,1.51,1.42-.01.8-.63,1.34-1.53,1.34-.44,0-.89,0-1.28,0-.35.83-.68,1.62-1.07,2.55.26.24.63.54.96.87.63.63.66,1.46.09,2.03-.56.57-1.4.54-2.03-.08-.33-.32-.65-.65-.94-.95-.81.35-1.6.68-2.47,1.05,0,.37,0,.83,0,1.3,0,.92-.53,1.48-1.36,1.49-.86,0-1.39-.56-1.39-1.5,0-.46,0-.91,0-1.3-.84-.35-1.63-.69-2.53-1.06-.27.29-.58.66-.93,1-.62.62-1.4.62-1.98.04-.58-.58-.57-1.36.04-1.99.34-.35.69-.68.98-.98-.36-.85-.69-1.64-1.04-2.48-.42,0-.91,0-1.39,0-.85,0-1.4-.54-1.41-1.35-.01-.82.54-1.39,1.41-1.4.49-.01.97,0,1.39,0,.35-.84.68-1.63,1.06-2.54-.28-.26-.65-.57-.99-.92-.61-.62-.62-1.41-.04-1.98.59-.58,1.36-.57,1.98.04.34.33.65.68.94.98.85-.36,1.64-.7,2.51-1.07,0-.37,0-.83,0-1.3,0-.87.58-1.49,1.38-1.5.8,0,1.37.61,1.38,1.49,0,.46,0,.92,0,1.31.84.35,1.62.68,2.53,1.06.25-.27.56-.63.89-.96.62-.63,1.46-.64,2.02-.06.55.57.53,1.38-.08,2-.32.33-.65.65-.95.94.35.83.68,1.63,1.04,2.49Zm-10.97,1.33c-.02,2.29,1.8,4.15,4.08,4.18,2.29.02,4.15-1.8,4.18-4.08.03-2.32-1.8-4.18-4.1-4.2-2.29-.01-4.14,1.81-4.16,4.1Z"/>
        <path class="cls-1" d="m17.66,1.18c4.55,0,8.28,3.71,8.28,8.27,0,4.56-3.72,8.29-8.27,8.28-4.53,0-8.25-3.72-8.26-8.25-.01-4.56,3.7-8.3,8.24-8.3Zm-5.49,8.25c0,3.06,2.43,5.53,5.46,5.54,3.07.02,5.54-2.43,5.55-5.49,0-3.06-2.42-5.52-5.46-5.54-3.07-.02-5.54,2.43-5.55,5.49Z"/>
        <path class="cls-1" d="m3.92,34.29c.2,0,.37,0,.54,0,4.3,0,8.6,0,12.9,0,1.06,0,1.73.85,1.43,1.79-.17.53-.64.91-1.21.96-.14.01-.29,0-.43,0-4.04,0-8.09-.02-12.13,0-4.13.02-3.92.21-3.87-3.91.01-.9.09-1.81.25-2.69.98-5.26,5.54-9.45,10.87-9.86,2.28-.18,4.58-.08,6.88-.09.75,0,1.31.64,1.3,1.39-.01.76-.59,1.35-1.38,1.36-1.88.01-3.76,0-5.63,0-4.39.04-8.11,2.95-9.23,7.2-.33,1.24-.33,2.5-.3,3.83Z"/>
      </g>
    </g>
  </g>
</svg>