<?xml version="1.0" encoding="UTF-8"?><svg id="Layer_2" xmlns="http://www.w3.org/2000/svg" viewBox="0 0 40 40"><defs><style>.cls-1{fill:#fff;}.cls-2{fill:none;}</style></defs><g id="Layer_1-2"><g><rect class="cls-2" width="40" height="40"/><g><path class="cls-1" d="M14.19,23.89c.41,.37,1,.46,1.5,.21l4.75-2.38,4.75,2.38c.19,.09,.39,.14,.59,.14h.01c.73,0,1.32-.6,1.32-1.33,0-.21-.05-.4-.13-.57l-5.32-13.28c-.2-.5-.69-.84-1.23-.84-.54,0-1.03,.33-1.23,.84l-5.35,13.36c-.21,.51-.07,1.1,.33,1.47Zm6.25-10.76l2.81,7.02-2.22-1.11c-.19-.09-.39-.14-.6-.14s-.41,.05-.6,.14l-2.22,1.11,2.81-7.02Z"/><path class="cls-1" d="M29.05,.04H11.83C9.19,.04,7.04,2.19,7.04,4.83v30.38c0,2.64,2.15,4.79,4.79,4.79H29.05c2.64,0,4.79-2.15,4.79-4.79V4.83C33.84,2.19,31.69,.04,29.05,.04ZM11.83,2.7H29.05c1.17,0,2.13,.95,2.13,2.13V28.56H9.7V4.83c0-1.17,.95-2.13,2.13-2.13ZM29.05,37.34H11.83c-1.17,0-2.13-.95-2.13-2.13v-3.99H31.18v3.99c0,1.17-.95,2.13-2.13,2.13Z"/><path class="cls-1" d="M21.54,32.95h-2.19c-.73,0-1.33,.6-1.33,1.33s.6,1.33,1.33,1.33h2.19c.73,0,1.33-.6,1.33-1.33s-.6-1.33-1.33-1.33Z"/></g></g></g></svg>