<?xml version="1.0" encoding="UTF-8"?><svg id="Layer_2" xmlns="http://www.w3.org/2000/svg" viewBox="0 0 40 40"><defs><style>.cls-1{fill:#fff;}.cls-2{fill:rgba(255,255,255,0);}.cls-3{fill:none;}</style></defs><g id="Layer_1-2"><g><rect class="cls-3" width="40" height="40"/><g><path class="cls-1" d="M22.31,37.41H6.83c-1.69,.05-3.1-1.27-3.15-2.96,0-.03,0-.07,0-.1V5.7c.06-1.74,1.53-3.1,3.26-3.04h15.47c1.63-.04,2.99,1.26,3.03,2.89,0,.05,0,.1,0,.14v28.65c0,1.69-1.38,3.06-3.08,3.06h-.06ZM6.83,4.77c-.52-.02-.96,.39-.98,.91v28.67c0,.52,.42,.95,.95,.95h15.5c.54,0,.99-.41,1.03-.95V5.7c-.05-.53-.5-.94-1.03-.94H6.83Z"/><path class="cls-1" d="M32.55,37.41c-2.1,.02-3.82-1.67-3.84-3.78v-8.19c0-1.2-.97-2.18-2.18-2.18h-1.56c-.6,0-1.09-.49-1.09-1.09s.49-1.09,1.09-1.09h1.56c2.4,0,4.35,1.95,4.35,4.35v8.16c0,.9,.73,1.63,1.63,1.63s1.63-.73,1.63-1.63v-14.36l-3.41-7.62c-.42-.87-1.29-1.42-2.25-1.41h-.79c-.6,0-1.09-.49-1.09-1.09s.49-1.09,1.09-1.09h.79c1.85,0,3.52,1.09,4.28,2.77l3.49,7.79c.06,.14,.1,.29,.1,.45v14.56c0,2.1-1.7,3.81-3.81,3.81Z"/><path class="cls-1" d="M20,10.21H9.12c-.6,0-1.09-.49-1.09-1.09s.49-1.09,1.09-1.09h10.88c.6,0,1.09,.49,1.09,1.09s-.49,1.09-1.09,1.09Z"/><path class="cls-1" d="M20,14.56H9.12c-.6,0-1.09-.49-1.09-1.09s.49-1.09,1.09-1.09h10.88c.6,0,1.09,.49,1.09,1.09s-.49,1.09-1.09,1.09Z"/><path class="cls-1" d="M27.62,13.56c-.6,0-1.09-.49-1.09-1.09V5.94c0-.6,.49-1.09,1.09-1.09s1.09,.49,1.09,1.09v6.53c0,.6-.49,1.09-1.09,1.09Z"/><rect class="cls-2" x=".41" y=".41" width="39.17" height="39.17"/></g></g></g></svg>