<?xml version="1.0" encoding="UTF-8"?><svg id="Layer_2" xmlns="http://www.w3.org/2000/svg" viewBox="0 0 40 40"><defs><style>.cls-1{fill:#fff;}.cls-2{fill:none;}</style></defs><g id="Layer_1-2"><g><rect class="cls-2" width="40" height="40"/><g><path class="cls-1" d="M11.76,22.54c0,1.12-.91,2.02-2.02,2.02s-2.02-.91-2.02-2.02,.91-2.02,2.02-2.02,2.02,.91,2.02,2.02Z"/><path class="cls-1" d="M29.97,24.56c1.12,0,2.02-.91,2.02-2.02s-.91-2.02-2.02-2.02-2.02,.91-2.02,2.02,.91,2.02,2.02,2.02Z"/><path class="cls-1" d="M14.76,26.08c0-.84,.68-1.52,1.52-1.52h7.06c.84,0,1.52,.68,1.52,1.52s-.68,1.52-1.52,1.52h-7.06c-.84,0-1.52-.68-1.52-1.52Z"/><path class="cls-1" d="M14.31,.25c-.84,0-1.52,.68-1.52,1.52v3.56h-1.34c-2.9,0-5.45,1.89-6.29,4.66l-.12,.4h-1.89c-.84,0-1.52,.68-1.52,1.52s.68,1.52,1.52,1.52h1.08l-.41,1.67c-1.31,.8-2.19,2.24-2.19,3.89v17.21c0,1.96,1.59,3.54,3.54,3.54h3.04c1.96,0,3.54-1.59,3.54-3.54v-2.53H27.95v2.53c0,1.96,1.59,3.54,3.54,3.54h3.04c1.96,0,3.54-1.59,3.54-3.54V19c0-1.65-.88-3.1-2.19-3.9l-.42-1.67h1.09c.84,0,1.52-.68,1.52-1.52s-.68-1.52-1.52-1.52h-1.91l-.11-.37c-.84-2.78-3.4-4.69-6.3-4.69h-1.3V1.77c0-.84-.68-1.52-1.52-1.52H14.31Zm9.59,5.08H15.83V3.29h8.07v2.04Zm-12.45,3.04H28.23c1.56,0,2.94,1.03,3.39,2.53l.43,1.42,.53,2.13H7.1l.52-2.13,.44-1.43c.45-1.49,1.83-2.51,3.39-2.51ZM4.66,30.64v-11.64c0-.84,.68-1.52,1.52-1.52h27.33c.84,0,1.52,.68,1.52,1.52v11.64H4.66Zm0,5.57v-2.53h4.05v2.53c0,.28-.23,.51-.51,.51h-3.04c-.28,0-.51-.23-.51-.51Zm30.37-2.53v2.53c0,.28-.23,.51-.51,.51h-3.04c-.28,0-.51-.23-.51-.51v-2.53h4.05Z"/></g></g></g></svg>