<svg xmlns="http://www.w3.org/2000/svg" viewBox="0 0 28 28"><defs><style>.cls-1{fill:none;}.cls-2{fill:#0091ff;stroke:#0091ff;stroke-miterlimit:10;stroke-width:0.44px;}</style></defs><g id="Layer_2" data-name="Layer 2"><g id="Layer_1-2" data-name="Layer 1"><rect class="cls-1" width="28" height="28"/><path class="cls-2" d="M10.8,27.21a8.3,8.3,0,0,1-1-.26A4.77,4.77,0,0,1,6.57,23c0-.17-.08-.23-.26-.23q-.93,0-1.86,0c-.15,0-.21.05-.27.2a1.75,1.75,0,0,1-3.39-.65,1.76,1.76,0,0,1,3.4-.62c0,.14.1.2.25.19H6.32c.17,0,.22-.06.25-.21a4.83,4.83,0,0,1,8.85-2l.15.24c.57-.43,1.13-.84,1.67-1.27.06,0,.05-.19,0-.28a4.86,4.86,0,0,1,3.24-6l.21-.07-2-2.61a4.88,4.88,0,0,1-7.32-3.24l-2,1.7c.27.53.55,1,.75,1.52a7.67,7.67,0,0,1,.27,1.15.83.83,0,0,0,.19.36c.69.56,1.4,1.09,2.09,1.65a.29.29,0,0,0,.38,0A1.66,1.66,0,0,1,15,13a1.62,1.62,0,0,1,.72,1.73,1.75,1.75,0,0,1-3,.94A1.64,1.64,0,0,1,12.31,14a.32.32,0,0,0-.15-.42l-1.69-1.31a16.28,16.28,0,0,1-.74,1.65,4.75,4.75,0,0,1-4.8,2.24A4.65,4.65,0,0,1,1,12.65,4.8,4.8,0,0,1,5,6.57c.17,0,.23-.08.23-.26q0-.93,0-1.86A.24.24,0,0,0,5,4.18a1.76,1.76,0,1,1,1.26,0c-.13,0-.19.1-.18.25V6.32c0,.12,0,.22.16.24A4.83,4.83,0,0,1,8.71,7.61l.06,0,2.5-2.14a.44.44,0,0,0,.1-.22A4.82,4.82,0,0,1,18,1.15,4.71,4.71,0,0,1,21,4.7a.49.49,0,0,0,.22.27c1,.48,2,1,2.94,1.42a.35.35,0,0,0,.3,0,1.77,1.77,0,0,1,2.75,1.06s0,.06,0,.09v.56c0,.08-.06.15-.08.22a1.75,1.75,0,0,1-2.86.8,1.77,1.77,0,0,1-.48-1.91L21,5.89a5,5,0,0,1-1.59,3.34c.71.95,1.42,1.89,2.12,2.84a.4.4,0,0,0,.36.18A4.81,4.81,0,0,1,26.67,18,4.61,4.61,0,0,1,23,21.81,4.63,4.63,0,0,1,18.09,20c-.14-.17-.26-.35-.39-.54l-1.62,1.23A.31.31,0,0,0,16,21c.06.45.15.91.19,1.37a.32.32,0,0,0,.21.3L19.26,24a.32.32,0,0,0,.38,0,1.75,1.75,0,0,1,2.49,2.33,1.91,1.91,0,0,1-1.27.89h-.51a2,2,0,0,1-1-.58A1.77,1.77,0,0,1,19,24.84l-2.86-1.38a1.14,1.14,0,0,0-.06.15A4.81,4.81,0,0,1,12.85,27c-.3.1-.61.16-.92.23ZM14,25.28a3.89,3.89,0,0,0,1.13-4.13,4,4,0,0,0-7.66.43,3.81,3.81,0,0,0,1.24,3.67,1,1,0,0,1,0-.18,1.33,1.33,0,0,1,1.39-1.37c.87,0,1.74,0,2.61,0A1.33,1.33,0,0,1,14,25Zm-5.73-11a4,4,0,1,0-6.5-3.83A3.86,3.86,0,0,0,3,14.25a1.28,1.28,0,0,0,0-.19A1.29,1.29,0,0,1,4.28,12.7c.94,0,1.89,0,2.83,0a1.28,1.28,0,0,1,1.16,1.22ZM24.58,20a3.82,3.82,0,0,0,1.12-4.08,4,4,0,0,0-7.62.23A3.82,3.82,0,0,0,19.27,20a2.28,2.28,0,0,1,0-.26,1.28,1.28,0,0,1,1.26-1.28c.93,0,1.86,0,2.79,0a1.28,1.28,0,0,1,1.23,1.28A2.26,2.26,0,0,1,24.58,20ZM18.85,8.54A3.9,3.9,0,0,0,19.93,4.3a4,4,0,0,0-7.61.54,3.8,3.8,0,0,0,1.22,3.67c0-.08,0-.14,0-.21A1.3,1.3,0,0,1,14.89,7c.88,0,1.77,0,2.65,0a1.33,1.33,0,0,1,.9.39A1.48,1.48,0,0,1,18.85,8.54Zm3.08,10.74H20.74c-.41,0-.57.18-.58.59,0,.18,0,.36,0,.54s.06.24.21.3a4,4,0,0,0,2.85.1c.47-.15.47-.15.47-.65V19.9c0-.44-.17-.61-.6-.62ZM5.65,13.56H4.41a.48.48,0,0,0-.54.54c0,.2,0,.4,0,.6a.25.25,0,0,0,.19.28,4,4,0,0,0,3,.08c.39-.14.38-.15.38-.57v-.33c0-.42-.16-.59-.59-.6Zm5.72,11H10.11a.46.46,0,0,0-.51.51c0,.2,0,.4,0,.59a.3.3,0,0,0,.22.33,4.14,4.14,0,0,0,3,.06c.28-.1.4-.24.35-.54a2.8,2.8,0,0,1,0-.41.48.48,0,0,0-.54-.54ZM16.21,9.63c.44-.09.89-.16,1.32-.29s.44-.14.44-.6V8.33c0-.3-.17-.48-.47-.48-.86,0-1.73,0-2.6,0-.29,0-.44.17-.46.48s0,.42,0,.64a.25.25,0,0,0,.19.28A5.22,5.22,0,0,0,16.21,9.63ZM3.42,22.39a.87.87,0,0,0-.87-.9.89.89,0,0,0-.88.86.88.88,0,0,0,.87.89A.86.86,0,0,0,3.42,22.39Zm2.21-19a.88.88,0,1,0-.87-.86A.86.86,0,0,0,5.63,3.42Zm7.49,11a.88.88,0,1,0,.88-.89A.88.88,0,0,0,13.12,14.45Zm8.36,11a.88.88,0,1,0-.87.87A.88.88,0,0,0,21.48,25.46Zm4-18.5a.86.86,0,0,0-.88.85.88.88,0,0,0,.86.9.89.89,0,0,0,.89-.88A.87.87,0,0,0,25.46,7Z"/><path class="cls-2" d="M9.6,21.05a1.76,1.76,0,0,1,1.74-1.76A1.76,1.76,0,1,1,9.6,21.05Zm.88,0a.88.88,0,1,0,.88-.89A.88.88,0,0,0,10.48,21.06Z"/><path class="cls-2" d="M5.59,11.79a1.76,1.76,0,0,1,.07-3.52,1.78,1.78,0,0,1,1.73,1.78A1.76,1.76,0,0,1,5.59,11.79Zm0-.88A.88.88,0,0,0,6.51,10a.88.88,0,0,0-1.75,0A.87.87,0,0,0,5.62,10.91Z"/><path class="cls-2" d="M21.93,17.52a1.76,1.76,0,1,1,0-3.52,1.76,1.76,0,1,1,0,3.52Zm0-.88a.88.88,0,1,0,0-1.76.88.88,0,0,0,0,1.76Z"/><path class="cls-2" d="M16.2,6.06a1.76,1.76,0,0,1,0-3.51,1.76,1.76,0,1,1,0,3.51Zm0-.88a.88.88,0,0,0,.87-.87.89.89,0,0,0-.89-.88.88.88,0,0,0,0,1.75Z"/></g></g></svg>