<svg xmlns="http://www.w3.org/2000/svg" viewBox="0 0 28 28"><defs><style>.cls-1{fill:none;}.cls-2{fill:#0091ff;}</style></defs><g id="Layer_2" data-name="Layer 2"><g id="Layer_1-2" data-name="Layer 1"><rect class="cls-1" width="28" height="28"/><path class="cls-2" d="M27.65,26.64H.35v-5h2.7V11.49h7.56V1.36H22.34V11.47h2.58V21.62h2.73ZM6.42,13.1H4.67v8.49h8.5V13.1H11.42v3.45h-5Zm10.13,3.45V13.1H14.81v8.49H23.3v-8.5H21.56v3.46Zm-4.32-5.09h8.5V3H19V6.41H14V3H12.23ZM1.94,25H26V23.23H1.94ZM17.36,4.82V3H15.61V4.82ZM8,13.09V15H9.81V13.09ZM19.94,15V13.09H18.17V15Z"/></g></g></svg>