<svg xmlns="http://www.w3.org/2000/svg" viewBox="0 0 28 28"><defs><style>.cls-1{fill:none;}.cls-2{fill:#0091ff;stroke:#0091ff;stroke-miterlimit:10;stroke-width:0.6px;}</style></defs><g id="Layer_2" data-name="Layer 2"><g id="Layer_1-2" data-name="Layer 1"><rect class="cls-1" width="28" height="28"/><path class="cls-2" d="M11.59.32A14.4,14.4,0,0,1,13.06.7,5.68,5.68,0,1,1,10.37.37l.16,0Zm4,5.69a4.55,4.55,0,1,0-4.53,4.57A4.55,4.55,0,0,0,15.61,6Z"/><path class="cls-2" d="M27.2,17.81a1.18,1.18,0,0,1-.49,1c-.33.25-.68.48-1,.74a.4.4,0,0,0-.12.28c0,.22,0,.45,0,.66a.45.45,0,0,0,.26.52c.29.19.58.41.86.62A1.12,1.12,0,0,1,27,23.2c-.29.52-.58,1-.88,1.53a1.12,1.12,0,0,1-1.5.48l-1.12-.5a.5.5,0,0,0-.32,0,4,4,0,0,0-.67.39.45.45,0,0,0-.19.28c-.06.39-.09.79-.13,1.19a1.13,1.13,0,0,1-1.17,1.08H19.29a1.1,1.1,0,0,1-1.14-1c-.07-.43-.09-.87-.15-1.3a.47.47,0,0,0-.19-.27c-.16-.12-.37-.18-.52-.31a.49.49,0,0,0-.62,0c-.32.17-.65.3-1,.44a1.12,1.12,0,0,1-1.5-.48c-.3-.51-.59-1-.88-1.53a1.12,1.12,0,0,1,.34-1.53c.3-.23.61-.46.93-.67a.36.36,0,0,0,.2-.41,1.75,1.75,0,0,1,0-.56.47.47,0,0,0-.25-.54c-.31-.19-.6-.42-.89-.64a1.11,1.11,0,0,1-.32-1.51c.29-.52.59-1,.89-1.55a1.13,1.13,0,0,1,1.48-.47l1.09.49a.33.33,0,0,0,.41,0,1.07,1.07,0,0,1,.37-.22c.39-.12.48-.39.49-.76a7.93,7.93,0,0,1,.1-1,1.08,1.08,0,0,1,1.09-1h1.87a1.11,1.11,0,0,1,1.11,1c0,.4.08.8.11,1.2a.33.33,0,0,0,.22.32,3.25,3.25,0,0,1,.6.35.38.38,0,0,0,.44,0l1.07-.49a1.12,1.12,0,0,1,1.49.49c.3.5.6,1,.88,1.52A4.16,4.16,0,0,1,27.2,17.81ZM19.27,14c0,.11,0,.22,0,.32-.05.47-.1.94-.14,1.41a.69.69,0,0,1-.43.56,7.78,7.78,0,0,0-1.12.65.73.73,0,0,1-.82.08l-1.52-.69-.9,1.58c.45.32.88.65,1.33.95a.76.76,0,0,1,.34.8,7.88,7.88,0,0,0,0,1.19.76.76,0,0,1-.34.8c-.45.3-.88.63-1.33.95l.9,1.57c.54-.24,1.05-.46,1.56-.7a.68.68,0,0,1,.7.05c.41.26.84.5,1.26.73a.61.61,0,0,1,.36.49c0,.14,0,.27.05.4.05.46.09.92.14,1.37h1.81c.06-.57.13-1.12.17-1.67a.7.7,0,0,1,.44-.61,10,10,0,0,0,1.14-.67.7.7,0,0,1,.77-.08c.51.24,1,.46,1.55.69l.91-1.56-1.4-1a.66.66,0,0,1-.28-.69,6.53,6.53,0,0,0,0-1.25.75.75,0,0,1,.34-.79c.45-.31.88-.63,1.34-1l-.91-1.57c-.52.23-1,.45-1.52.69a.75.75,0,0,1-.82-.09,7.78,7.78,0,0,0-1.12-.65.7.7,0,0,1-.44-.61c0-.56-.11-1.11-.17-1.68Z"/><path class="cls-2" d="M2,23.12h8.41c.43,0,.69.22.69.57s-.27.56-.7.56H1.5c-.49,0-.7-.2-.7-.7,0-1.47,0-2.93,0-4.4A5.12,5.12,0,0,1,5.94,14h6.73c.46,0,.74.3.65.69a.52.52,0,0,1-.48.43,1.74,1.74,0,0,1-.32,0H6a4,4,0,0,0-3.93,3,3.65,3.65,0,0,0-.12.93c0,1.27,0,2.54,0,3.81A2,2,0,0,0,2,23.12Z"/><path class="cls-2" d="M23,20.26a2.85,2.85,0,1,1-2.85-2.84A2.86,2.86,0,0,1,23,20.26ZM20.19,22a1.71,1.71,0,1,0-1.72-1.71A1.7,1.7,0,0,0,20.19,22Z"/></g></g></svg>