<svg xmlns="http://www.w3.org/2000/svg" viewBox="0 0 28 28"><defs><style>.cls-1{fill:none;}.cls-2{fill:#0091ff;}</style></defs><g id="Layer_2" data-name="Layer 2"><g id="Layer_1-2" data-name="Layer 1"><rect class="cls-1" width="28" height="28"/><path class="cls-2" d="M14.38.32l.54.13a3.93,3.93,0,0,1,1.87,1.08C17.89,2.67,19,3.8,20.09,5a4,4,0,0,1,1.1,2.89c0,2.27,0,4.54,0,6.81V15l1,.25a6.36,6.36,0,1,1-6.1,10.82.68.68,0,0,0-.4-.13c-4,0-8,0-12,0A2.41,2.41,0,0,1,1.26,24a3.44,3.44,0,0,1-.05-.72q0-10.17,0-20.35a2.41,2.41,0,0,1,2-2.59s0,0,0,0ZM19.57,15a2.15,2.15,0,0,0,0-.23c0-2.32,0-4.64,0-7a2.59,2.59,0,0,0-.78-1.89c-1-1-2-2.09-3-3.15a2.63,2.63,0,0,0-2-.84h-10a.83.83,0,0,0-1,1V23.35a.83.83,0,0,0,1,1h11A6.42,6.42,0,0,1,19.57,15Zm5.62,6.32a4.78,4.78,0,1,0-4.82,4.76A4.77,4.77,0,0,0,25.19,21.32Z"/><path class="cls-2" d="M7.56,9.67H5.5a.8.8,0,1,1,0-1.6H9.62a.81.81,0,0,1,.88.81.8.8,0,0,1-.88.79Z"/><path class="cls-2" d="M7.54,14h-2a.8.8,0,1,1,0-1.6H9.62a.8.8,0,1,1,0,1.6Z"/><path class="cls-2" d="M7.58,16.62h2a.81.81,0,1,1,0,1.6H5.52a.8.8,0,0,1-.89-.79.81.81,0,0,1,.89-.81Z"/><path class="cls-2" d="M14.39,9.67h-.46a.8.8,0,0,1-.75-.81.78.78,0,0,1,.76-.78,7.21,7.21,0,0,1,.93,0,.79.79,0,0,1,.76.78.81.81,0,0,1-.76.81Z"/><path class="cls-2" d="M14.38,14a3.53,3.53,0,0,1-.46,0,.8.8,0,0,1,0-1.59,7.69,7.69,0,0,1,1,0,.8.8,0,0,1,0,1.59A4.13,4.13,0,0,1,14.38,14Z"/><path class="cls-2" d="M19.76,21.15l1.3-1.57a.8.8,0,0,1,.82-.32.78.78,0,0,1,.48,1.25c-.71.9-1.45,1.78-2.2,2.64A.77.77,0,0,1,18.89,23c-.31-.58-.6-1.17-.88-1.76a.8.8,0,0,1,1.42-.72C19.54,20.7,19.63,20.9,19.76,21.15Z"/></g></g></svg>