<svg xmlns="http://www.w3.org/2000/svg" viewBox="0 0 28.35 28.4"><defs><style>.cls-1,.cls-3{fill:none;}.cls-2{fill:#0091ff;}.cls-3{stroke:#0091ff;stroke-miterlimit:10;stroke-width:0.4px;}</style></defs><g id="Layer_2" data-name="Layer 2"><g id="Layer_1-2" data-name="Layer 1"><rect class="cls-1" x="0.17" y="0.2" width="28" height="28"/><path class="cls-2" d="M28.14,1.59a1.67,1.67,0,0,0,0-.38,1.37,1.37,0,0,0-1-1H1.24a1.48,1.48,0,0,0-1,1V22.46a1.44,1.44,0,0,0,1.6,1c3.52,0,7,0,10.56,0a2.08,2.08,0,0,0,.25,0,.45.45,0,0,0,.47-.46.44.44,0,0,0-.48-.41H1.71c-.54,0-.64-.1-.64-.63V5h26.2v17.1a.48.48,0,0,1-.43.54c-.34.06-.5.25-.44.53a.47.47,0,0,0,.6.33,1.36,1.36,0,0,0,1.15-1.41Q28.15,11.83,28.14,1.59ZM27.27,4l0,.07H1.07c0-.87,0-1.73,0-2.58a.39.39,0,0,1,.42-.41,1.61,1.61,0,0,1,.22,0H26.63c.54,0,.64.09.64.65ZM24.11,18.93c-.51-.17-1-.32-1.54-.47s-.86-.21-1.3-.32v-.32c0-1.29,0-2.57,0-3.86a2.32,2.32,0,0,0-.21-1,1.38,1.38,0,0,0-1.42-.81,1.36,1.36,0,0,0-1.26.94,2.74,2.74,0,0,0-.15.9q0,4,0,7.93v.34c-.48-.42-.91-.81-1.36-1.17a2.42,2.42,0,0,0-.72-.43,1.42,1.42,0,0,0-1.92,1.65,2.37,2.37,0,0,0,.55,1.08c.87,1.07,1.76,2.13,2.62,3.22a3.93,3.93,0,0,0,2.09,1.56h4.8a1.73,1.73,0,0,0,1.33-1.95q0-2.61,0-5.22A2.27,2.27,0,0,0,24.11,18.93Zm.6,7.53c0,.6-.26.86-.86.86-1.28,0-2.56,0-3.84,0a1.82,1.82,0,0,1-1.49-.68c-1.07-1.29-2.12-2.59-3.17-3.9a1.91,1.91,0,0,1-.28-.55.55.55,0,0,1,.18-.62.51.51,0,0,1,.61-.06,3.53,3.53,0,0,1,.57.38c.58.5,1.16,1,1.74,1.53.19.16.37.35.65.23s.27-.38.27-.63c0-1.5,0-3,0-4.51s0-3,0-4.51a2,2,0,0,1,.1-.59.59.59,0,0,1,1.07-.05,1.55,1.55,0,0,1,.13.63c0,1.34,0,2.68,0,4a.87.87,0,0,0,.79,1c.84.22,1.69.45,2.52.7a1.28,1.28,0,0,1,1,1.38ZM12,7H3.89A1.06,1.06,0,0,0,2.72,8.22c0,2.59,0,5.17,0,7.76a1.07,1.07,0,0,0,1.19,1.2q4.05,0,8.1,0A1.06,1.06,0,0,0,13.2,16V8.21A1.06,1.06,0,0,0,12,7ZM7,7.91h1.9v2.45c-.33-.17-.53-.65-.94-.54a4.45,4.45,0,0,0-1,.51Zm5.31,2.18v5.84c0,.36,0,.38-.36.38H4c-.35,0-.38,0-.38-.37V8.28c0-.36,0-.38.39-.38H6.12v2.94a.67.67,0,0,0,.4.66.69.69,0,0,0,.76-.14l.7-.62.68.61a.67.67,0,0,0,1.14-.52V7.9h1.35c.28,0,.56,0,.84,0s.35.07.34.33C12.31,8.85,12.32,9.47,12.32,10.09ZM24,14.41H22.93c-.34,0-.52.15-.52.42s.19.45.53.45H24a1.33,1.33,0,0,0,1.42-1.4q0-1.07,0-2.13A1.32,1.32,0,0,0,24,10.36H16.55A1.31,1.31,0,0,0,15.2,11.7c0,.75,0,1.49,0,2.24a1.39,1.39,0,0,0,1.74,1.33.42.42,0,0,0,.35-.45.41.41,0,0,0-.4-.41h-.22c-.45,0-.6-.15-.6-.59v-2c0-.41.15-.57.56-.57H24c.4,0,.55.16.56.55v2.08C24.57,14.24,24.41,14.4,24,14.41ZM9.24,18.9c0-.28-.21-.43-.58-.43H3.28c-.35,0-.57.17-.56.45s.21.42.55.42c1.81,0,3.61,0,5.41,0C9,19.34,9.25,19.18,9.24,18.9Zm-5,1.42h-1a.44.44,0,1,0,0,.87h2a.42.42,0,0,0,.45-.44.43.43,0,0,0-.46-.43ZM25.06,2.16h-15a.41.41,0,0,0-.39.39A.42.42,0,0,0,10,3a2,2,0,0,0,.35,0H24.76a1.38,1.38,0,0,0,.35,0,.39.39,0,0,0,.31-.45A.39.39,0,0,0,25.06,2.16Zm-18.58,0a.41.41,0,0,0-.42.41A.42.42,0,0,0,6.5,3a.43.43,0,0,0,.41-.43A.42.42,0,0,0,6.48,2.17Zm-1.84,0a.42.42,0,1,0,0,.83.42.42,0,0,0,.4-.43A.41.41,0,0,0,4.64,2.17Zm-1.82,0a.42.42,0,1,0,.39.43A.4.4,0,0,0,2.82,2.17Zm7.85,12H9a.42.42,0,0,0-.45.41A.42.42,0,0,0,9,15c.56,0,1.13,0,1.69,0a.42.42,0,0,0,.42-.45A.42.42,0,0,0,10.67,14.14Z"/><path class="cls-3" d="M28.14,1.59a1.67,1.67,0,0,0,0-.38,1.37,1.37,0,0,0-1-1H1.24a1.48,1.48,0,0,0-1,1V22.46a1.44,1.44,0,0,0,1.6,1c3.52,0,7,0,10.56,0a2.08,2.08,0,0,0,.25,0,.45.45,0,0,0,.47-.46.44.44,0,0,0-.48-.41H1.71c-.54,0-.64-.1-.64-.63V5h26.2v17.1a.48.48,0,0,1-.43.54c-.34.06-.5.25-.44.53a.47.47,0,0,0,.6.33,1.36,1.36,0,0,0,1.15-1.41Q28.15,11.83,28.14,1.59ZM27.27,4l0,.07H1.07c0-.87,0-1.73,0-2.58a.39.39,0,0,1,.42-.41,1.61,1.61,0,0,1,.22,0H26.63c.54,0,.64.09.64.65ZM24.11,18.93c-.51-.17-1-.32-1.54-.47s-.86-.21-1.3-.32v-.32c0-1.29,0-2.57,0-3.86a2.32,2.32,0,0,0-.21-1,1.38,1.38,0,0,0-1.42-.81,1.36,1.36,0,0,0-1.26.94,2.74,2.74,0,0,0-.15.9q0,4,0,7.93v.34c-.48-.42-.91-.81-1.36-1.17a2.42,2.42,0,0,0-.72-.43,1.42,1.42,0,0,0-1.92,1.65,2.37,2.37,0,0,0,.55,1.08c.87,1.07,1.76,2.13,2.62,3.22a3.93,3.93,0,0,0,2.09,1.56h4.8a1.73,1.73,0,0,0,1.33-1.95q0-2.61,0-5.22A2.27,2.27,0,0,0,24.11,18.93Zm.6,7.53c0,.6-.26.86-.86.86-1.28,0-2.56,0-3.84,0a1.82,1.82,0,0,1-1.49-.68c-1.07-1.29-2.12-2.59-3.17-3.9a1.91,1.91,0,0,1-.28-.55.55.55,0,0,1,.18-.62.51.51,0,0,1,.61-.06,3.53,3.53,0,0,1,.57.38c.58.5,1.16,1,1.74,1.53.19.16.37.35.65.23s.27-.38.27-.63c0-1.5,0-3,0-4.51s0-3,0-4.51a2,2,0,0,1,.1-.59.59.59,0,0,1,1.07-.05,1.55,1.55,0,0,1,.13.63c0,1.34,0,2.68,0,4a.87.87,0,0,0,.79,1c.84.22,1.69.45,2.52.7a1.28,1.28,0,0,1,1,1.38ZM12,7H3.89A1.06,1.06,0,0,0,2.72,8.22c0,2.59,0,5.17,0,7.76a1.07,1.07,0,0,0,1.19,1.2q4.05,0,8.1,0A1.06,1.06,0,0,0,13.2,16V8.21A1.06,1.06,0,0,0,12,7ZM7,7.91h1.9v2.45c-.33-.17-.53-.65-.94-.54a4.45,4.45,0,0,0-1,.51Zm5.31,2.18v5.84c0,.36,0,.38-.36.38H4c-.35,0-.38,0-.38-.37V8.28c0-.36,0-.38.39-.38H6.12v2.94a.67.67,0,0,0,.4.66.69.69,0,0,0,.76-.14l.7-.62.68.61a.67.67,0,0,0,1.14-.52V7.9h1.35c.28,0,.56,0,.84,0s.35.07.34.33C12.31,8.85,12.32,9.47,12.32,10.09ZM24,14.41H22.93c-.34,0-.52.15-.52.42s.19.45.53.45H24a1.33,1.33,0,0,0,1.42-1.4q0-1.07,0-2.13A1.32,1.32,0,0,0,24,10.36H16.55A1.31,1.31,0,0,0,15.2,11.7c0,.75,0,1.49,0,2.24a1.39,1.39,0,0,0,1.74,1.33.42.42,0,0,0,.35-.45.41.41,0,0,0-.4-.41h-.22c-.45,0-.6-.15-.6-.59v-2c0-.41.15-.57.56-.57H24c.4,0,.55.16.56.55v2.08C24.57,14.24,24.41,14.4,24,14.41ZM9.24,18.9c0-.28-.21-.43-.58-.43H3.28c-.35,0-.57.17-.56.45s.21.42.55.42c1.81,0,3.61,0,5.41,0C9,19.34,9.25,19.18,9.24,18.9Zm-5,1.42h-1a.44.44,0,1,0,0,.87h2a.42.42,0,0,0,.45-.44.43.43,0,0,0-.46-.43ZM25.06,2.16h-15a.41.41,0,0,0-.39.39A.42.42,0,0,0,10,3a2,2,0,0,0,.35,0H24.76a1.38,1.38,0,0,0,.35,0,.39.39,0,0,0,.31-.45A.39.39,0,0,0,25.06,2.16Zm-18.58,0a.41.41,0,0,0-.42.41A.42.42,0,0,0,6.5,3a.43.43,0,0,0,.41-.43A.42.42,0,0,0,6.48,2.17Zm-1.84,0a.42.42,0,1,0,0,.83.42.42,0,0,0,.4-.43A.41.41,0,0,0,4.64,2.17Zm-1.82,0a.42.42,0,1,0,.39.43A.4.4,0,0,0,2.82,2.17Zm7.85,12H9a.42.42,0,0,0-.45.41A.42.42,0,0,0,9,15c.56,0,1.13,0,1.69,0a.42.42,0,0,0,.42-.45A.42.42,0,0,0,10.67,14.14Z"/></g></g></svg>