<svg xmlns="http://www.w3.org/2000/svg" viewBox="0 0 28 28"><defs><style>.cls-1{fill:none;}.cls-2{fill:#0091ff;}</style></defs><g id="Layer_2" data-name="Layer 2"><g id="Layer_1-2" data-name="Layer 1"><rect class="cls-1" width="28" height="28"/><path class="cls-2" d="M27.68,17.42a1,1,0,0,1-1.05.59c-3.07,0-6.15,0-9.22,0a1.19,1.19,0,0,1-.92-.38c-.75-.77-1.51-1.51-2.26-2.27L14,15.15l-.22.2c-.76.77-1.54,1.53-2.3,2.31a1.13,1.13,0,0,1-.85.35c-3.11,0-6.22,0-9.32,0A1.67,1.67,0,0,1,1,18a.78.78,0,0,1-.63-.55.8.8,0,0,1,.25-.85l2.57-2.53c1-1,.68-.86,2.11-.86H23.4a1.26,1.26,0,0,1,1,.39c.93.94,1.88,1.85,2.81,2.78a7.91,7.91,0,0,1,.52.63Z"/><path class="cls-2" d="M21.43.32A1,1,0,0,1,22,1.4c0,3.28,0,6.57,0,9.85v.33h-3.2v-.3c0-3.29,0-6.59,0-9.88A1,1,0,0,1,19.4.32Z"/><path class="cls-2" d="M24.42,19.61v7.1c0,.66-.3,1-1,1H14.82V18.19l.56.59a2.56,2.56,0,0,0,2,.83h7Z"/><path class="cls-2" d="M3.58,19.61h7a2.61,2.61,0,0,0,2.05-.85c.16-.17.32-.35.54-.57v9.49H4.54c-.66,0-1-.31-1-1v-7.1Z"/><path class="cls-2" d="M15.6,11.59H12.41c0-.09,0-.18,0-.27V6.12a.82.82,0,0,1,.93-.93c.49,0,1,0,1.47,0a.79.79,0,0,1,.8.76C15.61,7.82,15.6,9.69,15.6,11.59Z"/><path class="cls-2" d="M9.19,11.59H6c0-.32,0-.63,0-.93A.77.77,0,0,1,6.76,10H8.42a.79.79,0,0,1,.77.74C9.2,11,9.19,11.29,9.19,11.59Z"/></g></g></svg>