<svg xmlns="http://www.w3.org/2000/svg" viewBox="0 0 28 28"><defs><style>.cls-1{fill:none;}.cls-2{fill:#0091ff;stroke:#0091ff;stroke-miterlimit:10;stroke-width:0.56px;}</style></defs><g id="Layer_2" data-name="Layer 2"><g id="Layer_1-2" data-name="Layer 1"><rect class="cls-1" width="28" height="28"/><path class="cls-2" d="M3.33,26.63H16v.87H3.45a.89.89,0,0,1-1-1v-25a.88.88,0,0,1,1-1H19.79a.88.88,0,0,1,1,1V18.34H19.9V1.39H3.33Z"/><path class="cls-2" d="M23.33,23.15A3,3,0,0,0,21,20.61a3.05,3.05,0,1,0,.87,5.62l.42.72a3.83,3.83,0,0,1-4.17-.14,3.91,3.91,0,0,1,2.36-7.14,4,4,0,0,1,3.78,3.48h.8c.45,0,.64.33.42.71-.41.69-.82,1.37-1.24,2.05a.43.43,0,0,1-.81,0c-.43-.68-.84-1.37-1.25-2.07-.22-.37,0-.69.41-.7Zm.49,1.76.53-.88H23.29Z"/><path class="cls-2" d="M4.62,21V18.9c0-.39.15-.54.54-.54H9.31c.39,0,.55.15.55.54V23c0,.39-.16.54-.55.54H5.17c-.4,0-.55-.15-.55-.54Zm.88,1.72H9V19.24H5.5Z"/><path class="cls-2" d="M9.85,12.72a1.26,1.26,0,0,1-.18.28,9,9,0,0,1-.7.68.38.38,0,0,0-.13.43,6.38,6.38,0,0,1,.15,1,.63.63,0,0,1-.17.47.58.58,0,0,1-.47,0c-.32-.13-.61-.33-.92-.47a.52.52,0,0,0-.37,0c-.31.14-.6.33-.92.46a.59.59,0,0,1-.49,0,.58.58,0,0,1-.17-.47,6.41,6.41,0,0,1,.16-1,.4.4,0,0,0-.14-.43A5.07,5.07,0,0,1,4.8,13a.56.56,0,0,1-.13-.47.6.6,0,0,1,.4-.3c.33-.08.68-.1,1-.17a.45.45,0,0,0,.28-.2c.16-.28.3-.58.44-.87a.47.47,0,0,1,.43-.32.48.48,0,0,1,.46.33c.11.24.26.48.35.73a.53.53,0,0,0,.52.38,8.66,8.66,0,0,1,.89.12A.45.45,0,0,1,9.85,12.72ZM8,14.35a2,2,0,0,1,0-.77c.07-.23.31-.41.48-.62a2.06,2.06,0,0,1-.75-.21,2.29,2.29,0,0,1-.46-.7A1.06,1.06,0,0,1,6,13a1,1,0,0,1,.44,1.43,2.43,2.43,0,0,1,.77-.3A2.52,2.52,0,0,1,8,14.35Z"/><path class="cls-2" d="M7.21,7.9h-2c-.48,0-.67-.29-.46-.71L6.79,3a.49.49,0,0,1,.46-.33A.5.5,0,0,1,7.68,3c.69,1.39,1.39,2.77,2.08,4.16.21.43,0,.72-.45.72Zm0-3.81L5.77,7H8.7Z"/><path class="cls-2" d="M11.63,4.86h6.93v.85H11.63Z"/><path class="cls-2" d="M11.62,12.7h7v.84h-7Z"/><path class="cls-2" d="M11.61,21.38v-.83h4.33v.83Z"/><path class="cls-2" d="M19.22,25.06l-.39-.78c.3-.15.58-.3.86-.43a.32.32,0,0,0,.21-.33c0-.69,0-1.39,0-2.1h.87c0,.88,0,1.76,0,2.64a.51.51,0,0,1-.25.35C20.09,24.64,19.66,24.84,19.22,25.06Z"/></g></g></svg>