<svg xmlns="http://www.w3.org/2000/svg" viewBox="0 0 28 28"><defs><style>.cls-1{fill:none;}.cls-2{fill:#0091ff;}</style></defs><g id="Layer_2" data-name="Layer 2"><g id="Layer_1-2" data-name="Layer 1"><rect class="cls-1" width="28" height="28"/><path class="cls-2" d="M27.45,7.48A12,12,0,0,1,27.23,9a6.73,6.73,0,0,1-4.54,4.92,6.57,6.57,0,0,1-2.25.33H20c.18.4.34.76.49,1.13a2.68,2.68,0,0,1,.24.76,1,1,0,0,1-1.84.63,9.39,9.39,0,0,1-.74-1.53c-.17-.45-.23-.94-.37-1.41a.51.51,0,0,0-.25-.29,6.76,6.76,0,0,1-3.64-4.69A6.87,6.87,0,0,1,14,5.59a13,13,0,0,0-1.5-.35,6.06,6.06,0,0,0-6.84,5.2,9.68,9.68,0,0,0-.07,1.7A8.73,8.73,0,0,1,4.34,17,28.64,28.64,0,0,0,3,19.7a6.28,6.28,0,0,0-.33,1.22,1,1,0,0,0,.95,1.27H19.5a1,1,0,0,0,1.13-.71,2.14,2.14,0,0,0,0-.67,1.06,1.06,0,0,1,2.1-.19,3.15,3.15,0,0,1-3,3.66c-1.54,0-3.08,0-4.62,0h-.29A3.26,3.26,0,0,1,14,26.4a3,3,0,0,1-1.85,1,.56.56,0,0,0-.12,0h-.74l-.12,0a3,3,0,0,1-2.48-2.08,6.72,6.72,0,0,1-.23-1H3.75a3.12,3.12,0,0,1-2.64-1.36,3.69,3.69,0,0,1-.56-1.43v-.73c.15-.58.27-1.16.45-1.72a15.71,15.71,0,0,1,1.6-3.3,6.26,6.26,0,0,0,.88-3.38,15.74,15.74,0,0,1,.07-2.17,7.81,7.81,0,0,1,2-4.41A8.05,8.05,0,0,1,10.4,3.18c.18,0,.23-.1.22-.27,0-.33,0-.67,0-1A1.22,1.22,0,0,1,11.43.55h.47a1.19,1.19,0,0,1,.82,1.35c0,.34,0,.68,0,1,0,.16.06.21.21.25.55.13,1.09.25,1.62.43A.34.34,0,0,0,15,3.45,6.72,6.72,0,0,1,18.81.79c.41-.11.82-.16,1.23-.24h1.05c.3,0,.59.07.88.14a6.74,6.74,0,0,1,5.26,5.09,12.44,12.44,0,0,1,.22,1.49Zm-2.12-.1a4.73,4.73,0,1,0-4.73,4.73A4.75,4.75,0,0,0,25.33,7.38ZM12.72,24.31H10.66a1,1,0,1,0,2.06,0Z"/><path class="cls-2" d="M19.71,7.51a1.14,1.14,0,0,1-1-.31,1,1,0,0,1,0-1.44,13.14,13.14,0,0,1,1.57-1.18,1,1,0,0,1,1.52.76c0,.11,0,.21,0,.32V9a1.12,1.12,0,0,1-.41,1,1,1,0,0,1-1.06.13.94.94,0,0,1-.61-.85c0-.49,0-1,0-1.47Z"/></g></g></svg>