<svg xmlns="http://www.w3.org/2000/svg" viewBox="0 0 28 28"><defs><style>.cls-1{fill:none;}.cls-2{fill:#0091ff;}</style></defs><g id="Layer_2" data-name="Layer 2"><g id="Layer_1-2" data-name="Layer 1"><rect class="cls-1" width="28" height="28"/><path class="cls-2" d="M14.54,0c.42.08.85.12,1.26.24a7.16,7.16,0,0,1,5.46,5.78,7.14,7.14,0,0,1-2.5,7.07,2.11,2.11,0,0,0-.23.19s0,0-.06.07l.45.17a1.09,1.09,0,0,1,.71,1.39,1.1,1.1,0,0,1-1.41.68A26.39,26.39,0,0,0,15.63,15a10.76,10.76,0,0,0-4.72.28,12.1,12.1,0,0,0-8.63,9,1.16,1.16,0,0,0,1.21,1.54H7.17a1.07,1.07,0,0,1,1.12,1,1.06,1.06,0,0,1-1,1.14c-1.39,0-2.78,0-4.17,0a3.29,3.29,0,0,1-3-4,14.28,14.28,0,0,1,3.93-7.13,13.71,13.71,0,0,1,5.17-3.25l.31-.12c-.29-.28-.58-.52-.84-.8a7.05,7.05,0,0,1-2-5.89A7.15,7.15,0,0,1,11.3.57a13,13,0,0,1,2-.5l.15,0ZM14,2.21a5.24,5.24,0,1,0,5.22,5.25A5.26,5.26,0,0,0,14,2.21Z"/><path class="cls-2" d="M28,23.15c0,.21-.07.42-.11.64a8.87,8.87,0,0,1-.8,2.56,2.75,2.75,0,0,1-2.46,1.58c-1.24.05-2.48.05-3.71,0A2.81,2.81,0,0,1,18.25,26a11,11,0,0,1-.4-1.27,1.09,1.09,0,0,1,2.09-.59c.11.34.2.69.32,1a.79.79,0,0,0,.86.62h3.22a.79.79,0,0,0,.85-.58,6.15,6.15,0,0,0,.52-3.4,15,15,0,0,0-.58-2.06.67.67,0,0,0-.69-.45H21a.7.7,0,0,0-.71.52c-.11.31-.21.62-.31.93a1.13,1.13,0,0,1-1.27.95H11.68a.58.58,0,0,0-.44.19c-.21.21-.44.39-.73.63.35.32.61.58.9.81.06.06.18.06.27.07,1,0,1.89,0,2.84,0a1,1,0,0,1,1,.58,1,1,0,0,1,0,1.08,1,1,0,0,1-.88.51c-1.21,0-2.42,0-3.62,0a1.07,1.07,0,0,1-.77-.35c-.62-.63-1.25-1.26-1.85-1.89a1.06,1.06,0,0,1,0-1.56c.6-.64,1.22-1.26,1.82-1.88a1.22,1.22,0,0,1,.94-.37h6.73a.34.34,0,0,0,.39-.27,2.89,2.89,0,0,1,3-2.13h3.08a2.94,2.94,0,0,1,2.91,2,9.29,9.29,0,0,1,.69,2.68,1.42,1.42,0,0,0,.05.16Z"/><path class="cls-2" d="M23.55,21.41a1.09,1.09,0,1,1-1.1,1.08A1.09,1.09,0,0,1,23.55,21.41Z"/></g></g></svg>