<svg xmlns="http://www.w3.org/2000/svg" viewBox="0 0 28 28"><defs><style>.cls-1{fill:none;}.cls-2{fill:#0091ff;}</style></defs><g id="Layer_2" data-name="Layer 2"><g id="Layer_1-2" data-name="Layer 1"><rect class="cls-1" width="28" height="28"/><path class="cls-2" d="M26.13,26.18V9.27c0-.69-.3-1-1-1H22.32c-.76,0-1,.28-1,1V26.17H19.66V14.1c0-.66-.3-1-1-1H15.83c-.74,0-1,.28-1,1v12H13.19V20.59c0-.68-.3-1-1-1H9.29a.83.83,0,0,0-.95,1v5.6H6.72V17.31a.83.83,0,0,0-.93-.94H2.88c-.72,0-1,.29-1,1v8.8c-.63,0-1.34-.18-1.67.6v.43l.59.59H27.21l.59-.59v-.43C27.47,26,26.76,26.22,26.13,26.18Zm-21,0H3.5V18H5.08Zm6.48,0H10V21.24h1.59Zm6.47,0H16.45V14.77H18Zm6.47,0H22.92V9.91H24.5ZM3.27,12.89a2.29,2.29,0,0,0,2.53-.3.32.32,0,0,1,.4,0c.64.33,1.28.66,1.93,1a.34.34,0,0,1,.22.36A2.42,2.42,0,1,0,13,13.06a.28.28,0,0,1,.05-.27c1-1,2-2,3-3a.33.33,0,0,1,.27,0,2.38,2.38,0,0,0,2.53-.5,2.34,2.34,0,0,0,.73-2.33.31.31,0,0,1,.09-.26c.83-.63,1.68-1.26,2.51-1.9a.27.27,0,0,1,.34,0A2.22,2.22,0,0,0,24.07,5a2.32,2.32,0,0,0,2-1.76A2.33,2.33,0,0,0,25.3.8,2.7,2.7,0,0,0,24,.2h-.54l-.07,0a2.43,2.43,0,0,0-2,3,.32.32,0,0,1-.11.25L18.75,5.33a.27.27,0,0,1-.34,0,2.37,2.37,0,0,0-2.8.31A2.42,2.42,0,0,0,15,8.34a.27.27,0,0,1-.08.33c-1,1-2,1.95-2.93,2.93a.29.29,0,0,1-.35.09,2.33,2.33,0,0,0-2.36.37.31.31,0,0,1-.4,0c-.64-.33-1.28-.65-1.93-1a.34.34,0,0,1-.22-.37A2.42,2.42,0,0,0,3.33,8.49a2.32,2.32,0,0,0-1.45,2.19A2.28,2.28,0,0,0,3.27,12.89ZM23.69,1.81a.82.82,0,0,1,.82.8.81.81,0,0,1-.79.82.82.82,0,0,1-.82-.8A.81.81,0,0,1,23.69,1.81ZM17.23,6.67a.81.81,0,1,1-.8.81A.81.81,0,0,1,17.23,6.67Zm-6.46,6.47a.81.81,0,1,1-.81.8A.8.8,0,0,1,10.77,13.14ZM4.29,9.9a.81.81,0,0,1,.81.8.83.83,0,0,1-.8.82.81.81,0,0,1-.81-.8A.82.82,0,0,1,4.29,9.9Z"/></g></g></svg>