<svg xmlns="http://www.w3.org/2000/svg" viewBox="0 0 28 28"><defs><style>.cls-1{fill:none;}.cls-2{fill:#0091ff;}</style></defs><g id="Layer_2" data-name="Layer 2"><g id="Layer_1-2" data-name="Layer 1"><rect class="cls-1" width="28" height="28"/><path class="cls-2" d="M.34,10V9c0-.13.06-.27.1-.41C1,6.33,1.54,4.1,2.11,1.87A2,2,0,0,1,3.57.41l.3-.1H24.09l.07,0A2.18,2.18,0,0,1,26,2.12c.4,1.6.81,3.19,1.2,4.79a15.24,15.24,0,0,1,.49,2.38,5.24,5.24,0,0,1-3.41,5.19,5.16,5.16,0,0,1-5.89-1.67l-.14-.16a5.12,5.12,0,0,1-8.35,0,5.31,5.31,0,0,1-6.23,1.79.25.25,0,0,0,0,.07V25.43c0,.31.08.39.4.39H9.8V18.58c0-.77.35-1.13,1.12-1.13h6.14c.8,0,1.15.35,1.15,1.16v7.21h4c.61,0,1.22,0,1.84,0,.25,0,.36-.11.37-.35v-8a1,1,0,1,1,1.92,0q0,4,0,8a2.14,2.14,0,0,1-1.43,2l-.42.14H3.55l0,0a2.18,2.18,0,0,1-1.82-2.37q0-6,0-11.94a1,1,0,0,0-.16-.51,7.19,7.19,0,0,1-1-2C.46,10.54.41,10.26.34,10ZM10.87,2.2a1.7,1.7,0,0,0,0,.22c0,2.36,0,4.73,0,7.09a4.89,4.89,0,0,0,.05.66,3.21,3.21,0,0,0,3.91,2.65,3.28,3.28,0,0,0,2.44-3.16c0-2.44,0-4.87,0-7.3a1,1,0,0,0,0-.16Zm-1.95,0H4.36a.42.42,0,0,0-.48.37c-.51,2.06-1,4.11-1.54,6.16a3.38,3.38,0,0,0,3.78,4.16A3.37,3.37,0,0,0,8.93,9.53c0-2.36,0-4.73,0-7.1C8.93,2.36,8.92,2.29,8.92,2.18Zm10.23,0a1.7,1.7,0,0,0,0,.21V9.57c0,.15,0,.3,0,.45A3.31,3.31,0,1,0,25.7,8.93c-.5-2.16-1.07-4.3-1.6-6.45-.06-.24-.21-.3-.43-.3H19.38ZM16.27,19.4H11.74v6.4h4.53Z"/></g></g></svg>