<svg xmlns="http://www.w3.org/2000/svg" viewBox="0 0 28 28"><defs><style>.cls-1{fill:none;}.cls-2{fill:#0091ff;stroke:#0091ff;stroke-miterlimit:10;stroke-width:0.6px;}</style></defs><g id="Layer_2" data-name="Layer 2"><g id="Layer_1-2" data-name="Layer 1"><rect class="cls-1" width="28" height="28"/><path class="cls-2" d="M14,.31c.15.12.31.23.45.36l5.51,5.79a.91.91,0,0,1,.29.71v4.95c.52.18,1,.32,1.5.53a7.57,7.57,0,0,1,4.61,5.82A7.58,7.58,0,0,1,23.41,26a7.44,7.44,0,0,1-4.14,1.62l-.13,0H18l-.15-.05A7.72,7.72,0,0,1,12,24.1a.45.45,0,0,0-.43-.22c-2.26,0-4.53,0-6.79,0A4.08,4.08,0,0,1,4,23.8a3,3,0,0,1-2.41-3.05V8.83c0-1.8,0-3.6,0-5.4A2.93,2.93,0,0,1,2.86.88,8.14,8.14,0,0,1,4.22.31ZM12.34,15.1H6.44a2.6,2.6,0,0,1-.4,0,.55.55,0,0,1-.44-.51A.53.53,0,0,1,6,14,1.27,1.27,0,0,1,6.39,14h6.77a.75.75,0,0,0,.45-.16,7.93,7.93,0,0,1,3.76-1.68c.55-.08,1.11-.09,1.69-.14V7.56h-.31c-.92,0-1.85,0-2.78,0a3.81,3.81,0,0,1-.82-.09A2.48,2.48,0,0,1,13.25,5V1.47l-.24,0H4.72a2.3,2.3,0,0,0-.58.07A2,2,0,0,0,2.69,3.59v17a2.9,2.9,0,0,0,.07.66,1.9,1.9,0,0,0,2,1.46H11l.27,0A8,8,0,0,1,11,18H6.36A1.18,1.18,0,0,1,6,18a.54.54,0,0,1-.39-.56.54.54,0,0,1,.47-.51,1.94,1.94,0,0,1,.34,0c1.56,0,3.12,0,4.68,0a.34.34,0,0,0,.36-.23c.22-.43.47-.84.71-1.25Zm6.28,11.46a6.71,6.71,0,1,0-6.71-6.69A6.72,6.72,0,0,0,18.62,26.56ZM14.39,2.31v.28c0,.81,0,1.63,0,2.45A1.37,1.37,0,0,0,15.8,6.41h2.47Z"/><path class="cls-2" d="M9.06,11.1h2.8c.5,0,.79.43.58.82a.63.63,0,0,1-.63.32H6.2a.55.55,0,0,1-.58-.44.53.53,0,0,1,.32-.63,1,1,0,0,1,.39-.06Z"/><path class="cls-2" d="M19.19,17.56v5.92c0,.51-.2.78-.57.79S18,24,18,23.48V17.56l-.08,0c-.06.08-.11.16-.17.23-.66.71-1.32,1.42-2,2.12a1,1,0,0,1-.43.28.48.48,0,0,1-.56-.21.51.51,0,0,1,0-.6,1.63,1.63,0,0,1,.23-.29l3.06-3.29c.38-.4.69-.4,1.06,0l3.16,3.38a.61.61,0,0,1,.19.67.55.55,0,0,1-.84.26,1.51,1.51,0,0,1-.23-.21c-.66-.7-1.31-1.41-2-2.12l-.17-.22Z"/></g></g></svg>