<svg xmlns="http://www.w3.org/2000/svg" viewBox="0 0 40 40"><defs><style>.cls-1{fill:none;}.cls-2{fill:#0091ff;}</style></defs><g id="Layer_2" data-name="Layer 2"><g id="Layer_1-2" data-name="Layer 1"><rect class="cls-1" width="40" height="40"/><path class="cls-2" d="M.53,24.27V23.12a11.09,11.09,0,0,1,.64-1.81,4.63,4.63,0,0,1,4.14-2.45c.84,0,1.67,0,2.54,0v-.49q0-4.53,0-9.06c0-1.07.39-1.47,1.46-1.47h9.54c0-.91,0-1.79,0-2.66a4.73,4.73,0,0,1,1.9-3.7,5.49,5.49,0,0,1,2.35-1h1.14a1.22,1.22,0,0,0,.17.07,4.73,4.73,0,0,1,3.76,3.12,7.08,7.08,0,0,1,.28,2.67V7.84h9.65A1.18,1.18,0,0,1,39.46,9.2V19.78c0,.94-.43,1.36-1.38,1.36H34.89c-.21,0-.43,0-.64.05a2.49,2.49,0,0,0-2.1,2.58,2.43,2.43,0,0,0,2.33,2.4c1.19,0,2.38,0,3.57,0,1,0,1.41.42,1.41,1.41,0,3.45,0,6.9,0,10.36a1.47,1.47,0,0,1-.85,1.53H27.07a1.35,1.35,0,0,1-.9-1.46c0-1.19,0-2.38,0-3.57a2.29,2.29,0,0,0-1.21-1.95,2.51,2.51,0,0,0-3.8,2.18c0,1.09,0,2.18,0,3.27a1.44,1.44,0,0,1-.85,1.53H8.74A1.36,1.36,0,0,1,7.85,38c0-3,0-6,0-9.06v-.5H7.41c-.76,0-1.52,0-2.28,0a4.51,4.51,0,0,1-3.88-2.3A11.9,11.9,0,0,1,.53,24.27ZM18.85,37.2c0-.74,0-1.45,0-2.15a8,8,0,0,1,.06-1.1,4.8,4.8,0,0,1,4.66-4.07,4.72,4.72,0,0,1,4.77,3.91,24.42,24.42,0,0,1,.11,3v.42h8.7v-8.7h-.43c-.77,0-1.55,0-2.32,0a4.8,4.8,0,0,1,.36-9.6h2.38V10.12H27.62c-1.05,0-1.44-.39-1.44-1.45s0-2.38,0-3.58A2.28,2.28,0,0,0,25,3.17a2.51,2.51,0,0,0-3.83,2.17c0,1.1,0,2.21,0,3.31s-.39,1.47-1.46,1.47h-9c-.49,0-.49,0-.49.49v9.18c0,.93-.43,1.35-1.35,1.35H5.56a3.5,3.5,0,0,0-.72.06,2.51,2.51,0,0,0-2,2.58,2.47,2.47,0,0,0,2.32,2.38c1.18,0,2.36,0,3.54,0s1.46.39,1.46,1.47V37.2Z"/></g></g></svg>