<svg xmlns="http://www.w3.org/2000/svg" viewBox="0 0 40 40"><defs><style>.cls-1{fill:none;}.cls-2{fill:#0091ff;stroke:#0091ff;stroke-miterlimit:10;stroke-width:0.48px;}</style></defs><g id="Layer_2" data-name="Layer 2"><g id="Layer_1-2" data-name="Layer 1"><rect class="cls-1" width="40" height="40"/><path class="cls-2" d="M38.47,28.74a5.07,5.07,0,0,1-.29.57,1.66,1.66,0,0,1-1.37.82c-.38,0-.77,0-1.15,0H23.76a1.78,1.78,0,0,1-1.91-1.36,2.41,2.41,0,0,1-.05-.54c0-.65,0-1.3,0-1.95a1.89,1.89,0,0,1,1.77-2.14V23a1.8,1.8,0,0,1-1.71-1.38,3.12,3.12,0,0,1-.05-.75q0-1,0-1.95A1.77,1.77,0,0,1,23.44,17l.12,0V15.84a1.8,1.8,0,0,1-1.71-1.38,2.16,2.16,0,0,1-.05-.57q0-1.07,0-2.13a1.76,1.76,0,0,1,1.89-1.9h6.38c2,0,4.06,0,6.09,0a2.09,2.09,0,0,1,2.31,1.42v3.1a1.9,1.9,0,0,1-.84,1.17,6.9,6.9,0,0,1-.93.36V17a1.88,1.88,0,0,1,1.77,1.47v3a1.89,1.89,0,0,1-.77,1.13,7.5,7.5,0,0,1-1,.42v1.1a1.9,1.9,0,0,1,1.77,1.47ZM30.11,11H23.73c-.53,0-.75.21-.75.74,0,.69,0,1.39,0,2.09,0,.53.21.75.74.75h12.8c.54,0,.75-.21.75-.74s0-1.35,0-2-.19-.82-.82-.83Zm0,17.92h6.42c.51,0,.73-.2.73-.71,0-.71,0-1.43,0-2.14,0-.53-.21-.73-.75-.73q-6.41,0-12.8,0c-.53,0-.74.22-.74.75s0,1.33,0,2,.18.84.83.85Zm0-7.16h6.38c.59,0,.79-.2.79-.78s0-1.37,0-2.06-.21-.76-.73-.76H23.74c-.55,0-.76.22-.76.78s0,1.28,0,1.91.18.91.89.91ZM24.78,17H35.47V15.84H24.78Zm0,7.16H35.47V23H24.78Z"/><path class="cls-2" d="M27.94,1.5l4.69,3c.64.41.64.86,0,1.26l-4.4,2.76a.64.64,0,0,1-1.08-.61v-1H8.7V5.68H27.38c.84,0,1,.12,1,1,0,.08,0,.17,0,.33l3-1.89-3-1.9v.58c0,.51-.22.71-.74.71H7.53V3.31H27.15c0-.37,0-.69,0-1a.76.76,0,0,1,.44-.8Z"/><path class="cls-2" d="M12.07,38.5,7.4,35.57c-.68-.44-.68-.87,0-1.3l4.37-2.74a.64.64,0,0,1,1.08.61c0,.31,0,.62,0,1H31.3v1.2H12.66c-.89,0-1-.1-1-1,0-.07,0-.15,0-.3l-3,1.89,3,1.88c0-.16,0-.27,0-.38,0-.76.15-.9.91-.9H32.49v1.17H12.86c0,.36,0,.67,0,1a.79.79,0,0,1-.43.83Z"/><path class="cls-2" d="M3.31,24.15V23L3.26,23a1.82,1.82,0,0,1-1.72-2V19.13A1.86,1.86,0,0,1,3.31,17V15.84L3,15.8a1.8,1.8,0,0,1-1.48-1.75c0-.81,0-1.62,0-2.42a1.76,1.76,0,0,1,1.7-1.76c.47,0,.94,0,1.41,0H16.26a1.77,1.77,0,0,1,1.89,1.34,1.92,1.92,0,0,1,.06.53v2.06a1.82,1.82,0,0,1-1.76,2.05V17l.24.05a1.75,1.75,0,0,1,1.51,1.71c0,.72,0,1.45,0,2.17A1.83,1.83,0,0,1,16.45,23v1.15l.45.1a1.73,1.73,0,0,1,1.3,1.66c0,.83,0,1.66,0,2.5a1.73,1.73,0,0,1-1.65,1.72H3.5a1.79,1.79,0,0,1-2-2V27.11c0-.36,0-.72,0-1.08a1.78,1.78,0,0,1,1.62-1.84ZM9.87,11H3.49c-.54,0-.75.2-.76.73,0,.71,0,1.42,0,2.13,0,.51.22.72.74.72H16.3c.51,0,.72-.22.73-.73,0-.68,0-1.35,0-2s-.2-.82-.81-.82ZM9.87,29h6.38c.57,0,.78-.2.78-.78v-2c0-.57-.21-.77-.79-.77H3.51c-.58,0-.78.2-.78.79v2c0,.63.19.81.82.82Zm0-7.16h6.35c.6,0,.81-.21.81-.8V19c0-.56-.21-.78-.76-.78H3.47c-.52,0-.73.22-.74.73,0,.67,0,1.34,0,2s.18.85.86.85ZM4.53,17H15.21V15.85H4.53Zm10.69,6H4.54v1.16H15.22Z"/><path class="cls-2" d="M5.09,6.85H3.94V5.71H5.09Z"/><path class="cls-2" d="M6.33,5.7H7.48V6.84H6.33Z"/><path class="cls-2" d="M32.53,34.29V33.16h1.16v1.13Z"/><path class="cls-2" d="M36.06,34.3H34.92V33.15h1.14Z"/></g></g></svg>