<svg xmlns="http://www.w3.org/2000/svg" xmlns:xlink="http://www.w3.org/1999/xlink" width="621.074" height="522.589" viewBox="0 0 621.074 522.589">
  <defs>
    <linearGradient id="linear-gradient" x1="0.662" y1="0.768" x2="0.5" y2="0.868" gradientUnits="objectBoundingBox">
      <stop offset="0" stop-color="#3ab764"/>
      <stop offset="1" stop-color="#49d879"/>
    </linearGradient>
  </defs>
  <g id="Asset_1" data-name="Asset 1" transform="translate(-167.698 -0.327)">
    <g id="Layer_2" data-name="Layer 2" transform="translate(167.698 0.327)">
      <g id="OBJECTS" transform="translate(0 0)">
        <text id="C_" data-name="C++" transform="translate(150.997 330.405)" fill="#d9d9fc" font-size="41" font-family="SegoeUI, Segoe UI"><tspan x="0" y="0">C++</tspan></text>
        <text id="CSS" transform="translate(155.396 211.798)" fill="#d9d9fc" font-size="41" font-family="SegoeUI, Segoe UI"><tspan x="0" y="0">CSS</tspan></text>
        <g id="Group_1091" data-name="Group 1091" transform="translate(453.631 207.437)">
          <path id="Path_25076" data-name="Path 25076" d="M575.481,392.273c0,5.16-19.994,9.416-44.657,9.416s-44.644-4.205-44.644-9.416,19.994-9.4,44.644-9.4S575.481,387.088,575.481,392.273Z" transform="translate(-459.737 -102.301)" fill="#010101" opacity="0.02"/>
          <path id="Path_25094" data-name="Path 25094" d="M533.621,272.539s-3.779-33.641,11.8-61.181,68.12-46,68.12-46-31.487,59.749-46.024,76.814S533.621,272.539,533.621,272.539Z" transform="translate(-446.1 -165.36)" fill="url(#linear-gradient)"/>
          <path id="Path_25095" data-name="Path 25095" d="M532.21,332.3s2.825-28.507,12.138-46.347,42.761-43.019,59.607-49.752C603.955,236.2,582.955,317.052,532.21,332.3Z" transform="translate(-446.392 -144.822)" fill="url(#linear-gradient)"/>
          <path id="Path_25096" data-name="Path 25096" d="M518.8,315.5s-24.2-14.873-37.3-41.509-15.814-64.3-15.814-64.3S524.448,257.21,518.8,315.5Z" transform="translate(-465.68 -152.508)" fill="url(#linear-gradient)"/>
          <path id="Path_25097" data-name="Path 25097" d="M526.735,433.549a302.3,302.3,0,0,1-6.05-99.594,274.744,274.744,0,0,1,5.456-33.009,251.073,251.073,0,0,1,9.842-31.99l2.993-7.8c1.032-2.58,2.154-5.16,3.238-7.74l1.625-3.87q.851-1.935,1.741-3.87c1.2-2.515,2.348-5.056,3.6-7.546a259.89,259.89,0,0,1,16.627-28.984c1.574-2.309,3.2-4.566,4.837-6.824s3.354-4.437,5.16-6.566a90.122,90.122,0,0,1,11.609-11.983,64.9,64.9,0,0,0-5.792,5.972c-.941,1.032-1.819,2.09-2.7,3.173s-1.754,2.141-2.58,3.251c-1.729,2.167-3.3,4.45-4.927,6.695s-3.1,4.605-4.579,6.94a261.508,261.508,0,0,0-15.93,29.152c-1.2,2.5-2.283,5.056-3.418,7.572l-1.7,3.792-1.6,3.87c-1.045,2.58-2.141,5.16-3.147,7.739l-2.928,7.74a245.665,245.665,0,0,0-9.545,31.758,300.549,300.549,0,0,0-7.636,65.786,332.394,332.394,0,0,0,1.29,33.228,281.394,281.394,0,0,0,4.515,33.112Z" transform="translate(-450.217 -160.023)" fill="#100e3a"/>
          <path id="Path_25098" data-name="Path 25098" d="M492.53,167.09c3.47,9.984,6.579,20.1,9.661,30.223s5.843,20.342,8.513,30.6c1.29,5.16,2.644,10.255,3.805,15.414l1.767,7.739,1.651,7.739c2.1,10.384,4.115,20.793,5.443,31.332s2.3,21.064,3.147,31.616,1.625,21.116,2.128,31.68.98,21.142,1.29,31.719.542,21.142.555,31.732c-.568-10.564-1.084-21.129-1.767-31.68s-1.29-21.1-2.012-31.654c-1.522-21.077-3.109-42.167-5.818-63.1s-7.2-41.574-12.061-62.122c-2.438-10.319-5.1-20.51-7.843-30.713S495.471,177.293,492.53,167.09Z" transform="translate(-457.896 -164.858)" fill="#100e3a"/>
          <path id="Path_25099" data-name="Path 25099" d="M572.656,264.63q-7.74,11.97-15.157,24.005c-4.979,8.036-9.906,16.111-14.589,24.3s-9.2,16.485-13.222,25a139.979,139.979,0,0,0-5.379,13.041,46.439,46.439,0,0,0-2.941,13.751,29.835,29.835,0,0,1,.31-7.107l.258-1.78.374-1.741.387-1.754.464-1.728a112.769,112.769,0,0,1,4.773-13.467c1.832-4.386,3.87-8.668,6.037-12.9s4.463-8.4,6.811-12.525,4.824-8.178,7.34-12.2,5.1-8,7.739-11.906Q563.82,275.8,572.656,264.63Z" transform="translate(-449.56 -136.58)" fill="#100e3a"/>
          <path id="Path_25100" data-name="Path 25100" d="M485.06,244c5.959,10.384,11.442,21.038,16.55,31.861S511.49,297.7,515.8,308.883A304.933,304.933,0,0,1,526.866,343.1a168.4,168.4,0,0,1,3.483,17.672,80.5,80.5,0,0,1,.606,17.956,90.08,90.08,0,0,0-1.793-17.762c-1.1-5.856-2.58-11.609-4.154-17.362s-3.431-11.416-5.379-17.04-3.973-11.248-6.127-16.769-4.347-11.106-6.63-16.627-4.631-10.99-7-16.472Q492.651,260.292,485.06,244Z" transform="translate(-460.061 -142.561)" fill="#100e3a"/>
          <path id="Path_25101" data-name="Path 25101" d="M556.46,322.81l-.413,6.682-.026.258-.116,1.716v.129l-.013.129-.1,1.716-.013.271-.116,1.69-.013.258-.9,14.4-.026.4-.1,1.561-.026.413-.039.581-.065.98-.026.4-.1,1.574-.026.4-3.289,51.893h-47.4L500.4,357.135l-.052-.645-.077-1.316-.052-.658-.077-1.3-.013-.206-.026-.464-.09-1.3-.039-.658-1.006-15.918-.026-.451-.1-1.522-.026-.477-.039-.619-.052-.851-.039-.464-.09-1.535-.026-.451-.348-5.482Z" transform="translate(-456.246 -119.713)" fill="#bee1f4"/>
          <path id="Path_25102" data-name="Path 25102" d="M555.78,329.62l-.013.129-.1,1.716-.013.271-.116,1.69-.013.258-.9,14.4-.026.4-.1,1.561-.026.413-.039.581H500l-.026-.464-.09-1.3-.039-.658-1.006-15.918-.026-.451-.1-1.522-.026-.477-.039-.619Z" transform="translate(-456.122 -117.739)" fill="#bee1f4"/>
          <rect id="Rectangle_2021" data-name="Rectangle 2021" width="67.166" height="16.55" transform="translate(37.511 200.053)" fill="#7aabbc"/>
        </g>
        <path id="Path_25106" data-name="Path 25106" d="M368.854,93.775a51.882,51.882,0,0,1-9.829,6.527c5.16-9.339,3.728-30.042,3.147-27.088-2.76,14.189-11.2,29.965-14.55,30.829h0a38.994,38.994,0,0,1-24.366-4.4h0c6.708-10.59,5.8-31.654,5.366-30.365-4.747,13.905-15.144,22.251-16.988,22.277h0c-7.03-6.321-10.835-12.731-9.881-13.415,6.94-5.018,12.6-17.607,17.646-30.881h0c5-13.093,9.391-26.817,13.841-34.608h0v-.064l.387-.645C342.733-3.175,356.29-.556,364.8,3.752,393.607,18.38,373.136,90.176,368.854,93.775Z" transform="translate(-101.3 0.124)" fill="#100e3a"/>
        <path id="Path_25107" data-name="Path 25107" d="M345.44,2.515c-5.65,1.509-10.177,6.862-13.015,11.777-3.767,6.514-6.166,13.854-9.236,20.729a142.38,142.38,0,0,1-23.721,37.188.251.251,0,0,0,.348.361c10.8-8.655,18.059-20.819,23.85-33.28,2.993-6.359,5.289-13,8.1-19.439a42.475,42.475,0,0,1,5.818-9.945,26.353,26.353,0,0,1,8.307-6.45.529.529,0,0,0-.452-.942Z" transform="translate(-101.943 0.729)" fill="#100e3a"/>
        <path id="Path_25108" data-name="Path 25108" d="M372,39.879c-9.661,4.811-16.408,51.855-21.929,54.46-9.365,4.437-32.506.168-40.671,1.161-5.031.606-18.059,18.407-15.066,21.929s57.337,10.19,70.842,4.205c7.649-3.392,14.473-36.04,15.479-50.371S376.391,37.686,372,39.879Z" transform="translate(-103.535 11.517)" fill="#eb9481"/>
        <path id="Path_25109" data-name="Path 25109" d="M368.7,122.281a11.468,11.468,0,0,1-1.29,1.47c-8.952,8.191-64.5,6-67.269,3.6s-1.122-6.14-1.122-6.14l14.06-24.289a7.327,7.327,0,0,1,6.695-3.547c4.786.232,24.431,2.683,28.752.568s9.12-40.723,20.587-53.557c1.574-1.767,3.07-1.857,4.45-.8,4.025,3.1,6.94,16.008,7.236,25.8C381.174,77.843,376.814,111.858,368.7,122.281Z" transform="translate(-102.192 11.283)" fill="#67c6b4"/>
        <path id="Path_25110" data-name="Path 25110" d="M317.426,81.636l-15.956,30.3s-7.739-4.863-7.739-4.992,13.4-25.489,14.047-25.8S317.426,81.636,317.426,81.636Z" transform="translate(-103.584 23.51)" fill="#67c6b4"/>
        <path id="Path_25111" data-name="Path 25111" d="M300.174,111.107c2.58-4.515,13.7-23.644,15.479-29.049.064-.193-.206-.361-.323-.181-3.005,4.489-13.273,23.709-15.543,29.036C299.658,111.313,299.955,111.481,300.174,111.107Z" transform="translate(-101.837 23.721)" fill="#100e3a"/>
        <path id="Path_25112" data-name="Path 25112" d="M354.168,122.126l-5.508-55.84L358.979,39.43c4.025,3.1,6.94,16.008,7.236,25.8C366.641,77.689,362.281,111.7,354.168,122.126Z" transform="translate(-87.659 11.437)" fill="#100e3a"/>
        <path id="Path_25113" data-name="Path 25113" d="M357.316,39.243c-3.16,6.6-10.874,35.369-8.049,43.032s11.442,10.4,11.442,10.4,6.359,31.435,10.242,34.724,45.869,4.36,61.4-23.58C435.33,98.437,413,57.843,396.62,44.4,384.417,34.431,364.888,23.377,357.316,39.243Z" transform="translate(-87.66 9.07)" fill="#67c6b4"/>
        <path id="Path_25114" data-name="Path 25114" d="M384.326,69.9c-2.786,2.722-5.25,5.5-9.094,6.72s-8.1,1.161-12.112,1.612a.1.1,0,0,0,0,.193c4.6,0,9.442.632,13.841-1.071a17.2,17.2,0,0,0,7.856-7.082C385.022,69.977,384.571,69.654,384.326,69.9Z" transform="translate(-83.492 20.245)" fill="#100e3a"/>
        <path id="Path_25115" data-name="Path 25115" d="M368.749,77.141a47.948,47.948,0,0,0-8.939,1.6c-.129,0-.1.245,0,.232a47.816,47.816,0,0,0,9.029-1.393.224.224,0,0,0-.09-.439Z" transform="translate(-84.452 22.369)" fill="#100e3a"/>
        <path id="Path_25116" data-name="Path 25116" d="M361.408,86.372a.413.413,0,0,0-.284-.335c-6.579-2.58-11.609-7.623-11.867-14.937s.722-11.712,2.7-18.859c0-.142-.155-.193-.219-.064-3.405,8.088-4.115,18.368-3.225,22.445,1.29,6.05,6.45,10.319,12.125,12.164.426,1.87.722,3.87,1.29,5.637a.193.193,0,0,0,.387,0,29.063,29.063,0,0,0-.9-6.05Z" transform="translate(-87.804 15.111)" fill="#100e3a"/>
        <path id="Path_25117" data-name="Path 25117" d="M377.08,53.23l29.475,43.676,9.133-22.29Z" transform="translate(-79.42 15.438)" fill="#100e3a"/>
        <path id="Path_25118" data-name="Path 25118" d="M353.487,41.528a64.138,64.138,0,0,0-2.877,6.45s3.354,5.921,11.751,3.238,9.855-19.594,9.855-19.594-6.05-1.29-10.384.735S353.487,41.528,353.487,41.528Z" transform="translate(-87.094 9.056)" fill="#eb9481"/>
        <path id="Path_25119" data-name="Path 25119" d="M361.889,52.683c-2.735,1.084-5.921-5.16-7.017-7.61-.245-.542-.387-.877-.387-.877l-.168-.168-.529-.516-7.959-8.359,7.03-14.189,1.071-1.974s2.244,2.7,4.927,5.972l.413.5c.387.451.761.916,1.148,1.393s.58.709.864,1.084.58.774.877,1.148a75.652,75.652,0,0,1,5.818,8.513C368.339,38.919,367.642,50.4,361.889,52.683Z" transform="translate(-88.479 5.511)" fill="#eb9481"/>
        <path id="Path_25120" data-name="Path 25120" d="M354.872,45.072c-.245-.542-.387-.877-.387-.877l-.168-.168-.529-.516-7.959-8.359,7.03-14.189,1.071-1.974s2.244,2.7,4.927,5.972C360.019,29.322,361.838,40.028,354.872,45.072Z" transform="translate(-88.479 5.511)" fill="#100e3a"/>
        <path id="Path_25121" data-name="Path 25121" d="M329.027,30.066c4.979,19.839,18.175,18.317,21.7,18.059,3.986-.322,16.975-4.8,14.086-25.05S351.123-1.163,342.12.6,324.061,10.253,329.027,30.066Z" transform="translate(-93.76 0.072)" fill="#eb9481"/>
        <path id="Path_25122" data-name="Path 25122" d="M331.231,20.914c.439-.206.813-.464,1.29-.709a2.232,2.232,0,0,0,1.109-.955.722.722,0,0,0-.271-.838,1.806,1.806,0,0,0-1.832.142,2.7,2.7,0,0,0-1.29,1.406.774.774,0,0,0,.993.955Z" transform="translate(-93.009 5.29)" fill="#100e3a"/>
        <path id="Path_25123" data-name="Path 25123" d="M342.216,17.637a12.981,12.981,0,0,1-1.406.142,2.245,2.245,0,0,1-1.458-.116.735.735,0,0,1-.284-.838,1.819,1.819,0,0,1,1.561-.955,2.58,2.58,0,0,1,1.883.374.787.787,0,0,1-.3,1.393Z" transform="translate(-90.45 4.594)" fill="#100e3a"/>
        <path id="Path_25124" data-name="Path 25124" d="M340.73,21.7c0-.064.129,0,.142.077.361,1.354.993,2.838,2.335,2.915,0,0,.065,0,0,.077C341.685,25,340.859,23.025,340.73,21.7Z" transform="translate(-89.958 6.288)" fill="#100e3a"/>
        <path id="Path_25125" data-name="Path 25125" d="M341.505,20.353c2.1-.813,3.56,3.444,1.612,4.192S339.789,21.024,341.505,20.353Z" transform="translate(-89.959 5.877)" fill="#100e3a"/>
        <path id="Path_25126" data-name="Path 25126" d="M342.037,20.5c.451.116.967.413,1.419.3s.774-.7.967-1.29h.09a1.638,1.638,0,0,1-.568,2.18c-.748.387-1.574-.142-2.064-.89C341.844,20.723,341.908,20.452,342.037,20.5Z" transform="translate(-89.627 5.662)" fill="#100e3a"/>
        <path id="Path_25127" data-name="Path 25127" d="M334.232,23.42s-.09.1-.064.155c.5,1.29.864,2.864-.168,3.728v.064C335.406,26.658,334.916,24.568,334.232,23.42Z" transform="translate(-91.909 6.796)" fill="#100e3a"/>
        <path id="Path_25128" data-name="Path 25128" d="M333.14,22.689c-2.167.58-.838,4.876,1.174,4.334S334.959,22.2,333.14,22.689Z" transform="translate(-92.481 6.572)" fill="#100e3a"/>
        <path id="Path_25129" data-name="Path 25129" d="M332.774,23.121c-.258.335-.464.851-.864,1.006s-.955-.181-1.393-.542c0,0-.065,0,0,.077.232.826.761,1.6,1.6,1.509s1.083-.955,1.019-1.832C333.07,23.185,332.89,22.979,332.774,23.121Z" transform="translate(-92.927 6.695)" fill="#100e3a"/>
        <path id="Path_25130" data-name="Path 25130" d="M343.439,29.715c-.181.426-.335.967-.787,1.2a3.792,3.792,0,0,1-1.522.219v.09a1.87,1.87,0,0,0,1.922,0,1.5,1.5,0,0,0,.568-1.548.092.092,0,0,0-.181.039Z" transform="translate(-89.842 8.588)" fill="#100e3a"/>
        <path id="Path_25131" data-name="Path 25131" d="M338.271,30.328s.387,2.064.684,3.006c0,.077.271,0,.593,0h0a4.644,4.644,0,0,0,3.754-3.07c0-.116-.116-.168-.181-.09a6.953,6.953,0,0,1-3.663,2.5c-.142-.232-.529-3.56-.684-3.521a8.784,8.784,0,0,0-1.948,1.174c-.929-4.27-1.148-8.668-2.128-12.9a.129.129,0,0,0-.258,0,70.607,70.607,0,0,0,1.69,14.008C336.272,31.953,337.949,30.612,338.271,30.328Z" transform="translate(-91.781 5.021)" fill="#100e3a"/>
        <path id="Path_25132" data-name="Path 25132" d="M338.28,29.7a5.779,5.779,0,0,0,2.58,1.29,2.5,2.5,0,0,0,1.548-.219c1.045-.516.864-1.535.477-2.361a5.8,5.8,0,0,0-.774-1.225A7.34,7.34,0,0,1,338.28,29.7Z" transform="translate(-90.668 7.886)" fill="#100e3a"/>
        <path id="Path_25133" data-name="Path 25133" d="M340.29,30.69a2.5,2.5,0,0,0,1.548-.219c1.045-.516.864-1.535.477-2.361A2.58,2.58,0,0,0,340.29,30.69Z" transform="translate(-90.086 8.155)" fill="#ff9cbd"/>
        <path id="Path_25134" data-name="Path 25134" d="M363.245,25.49c-2.038,0-4.192-5.353-4.192-5.353a29.771,29.771,0,0,1-14.46-4.205,21,21,0,0,1-6.9-6.566c-1.174,11.751-9.816,15.969-9.816,15.969s-3.031-8.6.116-14.408S338.311-2.179,350.307.608c0,0,8.733,1.716,12.138,8.023S365.953,25.567,363.245,25.49Z" transform="translate(-94.066 0.004)" fill="#100e3a"/>
        <path id="Path_25135" data-name="Path 25135" d="M334.75,6.29h.1c1.29,5.289,6.243,8.436,11.055,10.19a30.842,30.842,0,0,0,13.531,1.38.1.1,0,0,1,0,.206A25.36,25.36,0,0,1,344.7,16.4C340.232,14.533,335.576,11.4,334.75,6.29Z" transform="translate(-91.692 1.829)" fill="#100e3a"/>
        <path id="Path_25136" data-name="Path 25136" d="M354.42,21.924s2.141-7.494,5.392-6.927,3.109,10.4.31,12.706a3.457,3.457,0,0,1-4.992-.245Z" transform="translate(-85.989 4.345)" fill="#eb9481"/>
        <path id="Path_25137" data-name="Path 25137" d="M359.237,17.18v.077c-1.935,1.69-2.4,4.192-2.49,6.643a1.909,1.909,0,0,1,2.58-1.432.077.077,0,0,1,0,.142,2.154,2.154,0,0,0-2.038,1.471,10.142,10.142,0,0,0-.439,2.154c0,.245-.439.258-.451,0v-.064C355.406,23.32,356.257,18.522,359.237,17.18Z" transform="translate(-85.53 4.987)" fill="#100e3a"/>
        <path id="Path_25138" data-name="Path 25138" d="M357.878,24.155a1.664,1.664,0,1,1-.968,2.085,1.664,1.664,0,0,1,.968-2.085Z" transform="translate(-85.293 6.989)" fill="#f3f8fe"/>
        <ellipse id="Ellipse_192" data-name="Ellipse 192" cx="30.919" cy="22.844" rx="30.919" ry="22.844" transform="translate(164.851 41.09)" fill="#ffc727"/>
        <path id="Path_25139" data-name="Path 25139" d="M311.16,38.494l15.131-3.844-5.585,12.486Z" transform="translate(-98.531 10.051)" fill="#ffc727"/>
        <path id="Path_25140" data-name="Path 25140" d="M290.9,50.3a3.212,3.212,0,1,0-3.173,3.147A3.212,3.212,0,0,0,290.9,50.3Z" transform="translate(-106.265 13.638)" fill="#100e3a"/>
        <path id="Path_25141" data-name="Path 25141" d="M302.014,50.3a3.212,3.212,0,1,0-3.2,3.147,3.212,3.212,0,0,0,3.2-3.147Z" transform="translate(-103.045 13.638)" fill="#100e3a"/>
        <path id="Path_25142" data-name="Path 25142" d="M313.124,50.3a3.212,3.212,0,1,0-3.2,3.147,3.212,3.212,0,0,0,3.2-3.147Z" transform="translate(-99.824 13.638)" fill="#100e3a"/>
        <rect id="Rectangle_2022" data-name="Rectangle 2022" width="448.941" height="334.062" rx="20" transform="translate(0.013 112.254)" fill="#142025"/>
        <rect id="Rectangle_2023" data-name="Rectangle 2023" width="403.614" height="239.924" transform="translate(22.664 133.976)" fill="#fff"/>
        <path id="Path_25143" data-name="Path 25143" d="M595.274,307.842V336.22a20.884,20.884,0,0,1-20.9,20.858H167.217a20.884,20.884,0,0,1-20.9-20.909V307.79Z" transform="translate(-146.32 89.238)" fill="#c9e2ff"/>
        <path id="Path_25144" data-name="Path 25144" d="M258.942,392.73H424.786a12.822,12.822,0,0,1,12.822,12.822v3.173H246.12v-3.173A12.822,12.822,0,0,1,258.942,392.73Z" transform="translate(-117.387 113.864)" fill="#96bde9"/>
        <path id="Path_25145" data-name="Path 25145" d="M409.679,406.279H263.79l3.715-27.772.181-1.316.348-2.606.168-1.3.348-2.606.052-.413.129-.9.348-2.606.168-1.3,2.606-19.413H401.63l2.451,18.3.116.89.413,3.031.1.877.168,1.122.258,1.909.1.89.4,3.044.129.864Z" transform="translate(-112.264 100.327)" fill="#c9e2ff"/>
        <rect id="Rectangle_2024" data-name="Rectangle 2024" width="403.614" height="12.977" transform="translate(22.664 133.976)" fill="#0091ff"/>
        <rect id="Rectangle_2025" data-name="Rectangle 2025" width="109.049" height="78.324" rx="11" transform="translate(47.469 185.47)" fill="#c9e2ff"/>
        <path id="Path_25146" data-name="Path 25146" d="M270.3,180.456a22.187,22.187,0,0,1-39.987,13.273h9.649v-15.7H226.09a22.174,22.174,0,0,1,44.205,2.425Z" transform="translate(-123.194 45.917)" fill="#fff"/>
        <path id="Path_25147" data-name="Path 25147" d="M240.034,189.308H192.72v-15.7h43.044a21.5,21.5,0,0,0-.129,2.425,22.186,22.186,0,0,0,4.4,13.273Z" transform="translate(-132.868 50.338)" fill="#fff"/>
        <rect id="Rectangle_2026" data-name="Rectangle 2026" width="229.037" height="74.609" transform="translate(170.978 277.118)" fill="none" stroke="#d9d9fc" stroke-miterlimit="10" stroke-width="1"/>
        <line id="Line_148" data-name="Line 148" x2="229.037" y2="74.609" transform="translate(170.978 277.118)" fill="none" stroke="#d9d9fc" stroke-miterlimit="10" stroke-width="1"/>
        <line id="Line_149" data-name="Line 149" x1="229.037" y2="74.609" transform="translate(170.978 277.118)" fill="none" stroke="#d9d9fc" stroke-miterlimit="10" stroke-width="1"/>
        <rect id="Rectangle_2027" data-name="Rectangle 2027" width="105.528" height="3.831" rx="1.916" transform="translate(170.978 185.47)" fill="#e2efff"/>
        <rect id="Rectangle_2028" data-name="Rectangle 2028" width="105.528" height="3.831" rx="1.916" transform="translate(170.978 194.538)" fill="#e2efff"/>
        <rect id="Rectangle_2029" data-name="Rectangle 2029" width="105.528" height="3.831" rx="1.916" transform="translate(170.978 203.606)" fill="#e2efff"/>
        <rect id="Rectangle_2030" data-name="Rectangle 2030" width="105.528" height="3.831" rx="1.916" transform="translate(170.978 212.674)" fill="#e2efff"/>
        <rect id="Rectangle_2031" data-name="Rectangle 2031" width="61.271" height="3.831" rx="1.916" transform="translate(170.978 221.742)" fill="#e2efff"/>
        <rect id="Rectangle_2032" data-name="Rectangle 2032" width="105.528" height="3.831" rx="1.916" transform="translate(170.978 230.81)" fill="#e2efff"/>
        <rect id="Rectangle_2033" data-name="Rectangle 2033" width="105.528" height="3.831" rx="1.916" transform="translate(170.978 239.878)" fill="#e2efff"/>
        <rect id="Rectangle_2034" data-name="Rectangle 2034" width="105.528" height="3.831" rx="1.916" transform="translate(170.978 248.959)" fill="#e2efff"/>
        <rect id="Rectangle_2035" data-name="Rectangle 2035" width="79.755" height="3.831" rx="1.916" transform="translate(170.978 258.027)" fill="#e2efff"/>
        <rect id="Rectangle_2036" data-name="Rectangle 2036" width="108.933" height="74.609" rx="8" transform="translate(47.585 277.118)" fill="#67c6b4"/>
        <rect id="Rectangle_2037" data-name="Rectangle 2037" width="6.591" height="6.591" transform="translate(56.898 345.135)" fill="#fff" opacity="0.38"/>
        <rect id="Rectangle_2038" data-name="Rectangle 2038" width="6.591" height="25.463" transform="translate(70.855 326.277)" fill="#fff" opacity="0.23"/>
        <rect id="Rectangle_2039" data-name="Rectangle 2039" width="6.591" height="37.304" transform="translate(84.799 314.422)" fill="#fff" opacity="0.23"/>
        <rect id="Rectangle_2040" data-name="Rectangle 2040" width="6.591" height="54.421" transform="translate(98.756 297.305)" fill="#fff" opacity="0.23"/>
        <rect id="Rectangle_2041" data-name="Rectangle 2041" width="6.591" height="67.837" transform="translate(112.713 283.903)" fill="#fff" opacity="0.23"/>
        <rect id="Rectangle_2042" data-name="Rectangle 2042" width="6.591" height="17.246" transform="translate(126.67 334.48)" fill="#fff" opacity="0.23"/>
        <rect id="Rectangle_2043" data-name="Rectangle 2043" width="6.591" height="39.342" transform="translate(140.626 312.397)" fill="#fff" opacity="0.23"/>
        <path id="Path_25148" data-name="Path 25148" d="M479.649,229.806,371.89,215.165l12.473-77.485,107.759,14.641Z" transform="translate(-80.924 39.921)" fill="#ffc727"/>
        <path id="Path_25149" data-name="Path 25149" d="M457.338,214.05l-37.9-5.147,26.946-52.2Z" transform="translate(-67.139 45.435)" fill="rgba(255,255,255,0.26)"/>
        <path id="Path_25150" data-name="Path 25150" d="M423.395,195.642,385.51,190.5l23.734-28.765Z" transform="translate(-76.976 46.894)" fill="rgba(255,255,255,0.26)"/>
        <path id="Path_25151" data-name="Path 25151" d="M173.34,109.615a3.212,3.212,0,1,1-.936-2.279A3.225,3.225,0,0,1,173.34,109.615Z" transform="translate(-140.357 30.85)" fill="#ff9cbd"/>
        <path id="Path_25152" data-name="Path 25152" d="M183.53,109.615a3.212,3.212,0,1,1-.941-2.284,3.225,3.225,0,0,1,.941,2.284Z" transform="translate(-137.402 30.85)" fill="#fff"/>
        <path id="Path_25153" data-name="Path 25153" d="M193.72,109.615a3.212,3.212,0,1,1-.941-2.284A3.225,3.225,0,0,1,193.72,109.615Z" transform="translate(-134.448 30.85)" fill="#ffc727"/>
        <path id="Path_25154" data-name="Path 25154" d="M330.2,326.189a8.127,8.127,0,1,1-2.38-5.759,8.139,8.139,0,0,1,2.38,5.759Z" transform="translate(-97.73 92.213)" fill="#96bde9"/>
        <path id="Path_25155" data-name="Path 25155" d="M403.8,370.265H267.52l.129-.9.348-2.606.168-1.3,2.606-19.413H400.549l2.451,18.3.116.89.413,3.031.1.877Z" transform="translate(-111.183 100.327)" fill="#142025"/>
        <path id="Path_25156" data-name="Path 25156" d="M319.3,85.664c-4.54-1.174-10.668-5.16-14.189-4.9a4,4,0,0,0-3.715,2.98s-2.348-3.057-5.469-2.309c-1.612.374-2.4,3.276-2.4,3.276a4.76,4.76,0,0,0-4.721-1.535c-2.18.658-2.657,3.47-2.657,3.47s-2.967-1.393-4.966,0c-4.05,2.812-.348,22.006,7.288,23.593,3.56.748,2.4-3.87,2.4-3.87s3.276,6.256,7.249,5.6,2.115-6.591,2.115-6.591,3.225,6.037,7.275,4.94,1.29-6.759,1.29-6.759,3.715,3.7,6.63,2.141c4.8-2.58-4.063-11.841-3.87-16.24h7.74Z" transform="translate(-107.703 23.417)" fill="#eb9481"/>
        <path id="Path_25157" data-name="Path 25157" d="M305.1,83.64c4.4.735,8.488-5.327,12.783-5.16,5.83.129,1.419,9.958-6.617,11.687H305.1Z" transform="translate(-100.288 22.757)" fill="#eb9481"/>
        <path id="Path_25158" data-name="Path 25158" d="M284.623,85.668s-.1-.077-.1,0a33.861,33.861,0,0,0,4.992,19.529c.116.181.464,0,.374-.155a69.294,69.294,0,0,1-5.263-19.374Z" transform="translate(-106.267 24.832)" fill="#100e3a"/>
        <path id="Path_25159" data-name="Path 25159" d="M290.4,83.772c0-.077-.129-.065-.129,0a31.719,31.719,0,0,0,6.772,20.948c.168.206.516.219.348,0C294.394,100.528,291.066,90.054,290.4,83.772Z" transform="translate(-104.596 24.277)" fill="#100e3a"/>
        <path id="Path_25160" data-name="Path 25160" d="M304.512,103.129c-4.528-5.869-6.72-12.59-7.985-19.826,0-.09-.142-.064-.155,0-.348,3.7.942,8.23,2.232,11.609a19.478,19.478,0,0,0,5.7,8.307C304.409,103.374,304.6,103.258,304.512,103.129Z" transform="translate(-102.834 24.14)" fill="#100e3a"/>
        <path id="Path_25161" data-name="Path 25161" d="M371.381,33.592c10.448-.5,48.127,17.956,66.947,39.3,13.235,15.015-7.017,81.136-11.364,82.335s-24.7-3.431-27.94-7.017,16.227-58.046,14.731-61.387S391,68.949,377.947,54.927C370.44,46.853,364.016,33.941,371.381,33.592Z" transform="translate(-82.015 9.742)" fill="#eb9481"/>
        <path id="Path_25162" data-name="Path 25162" d="M395.234,111.75c-.748,2.993-7.224,23.051-7.353,28.378s2.309,19.994,6.45,20.523,4.257-4.025,4.257-4.025,1.29,6.45,5.521,6.63,4.179-6.94,4.179-6.94,1.87,6.579,6.05,6.45,2.98-7.275,2.98-7.275,2.98,5.83,6.372,4.27c4.076-1.9-1.29-16.176-1.445-17.517s6.243-10.319,3.65-18.575L429,114.317Z" transform="translate(-76.29 32.404)" fill="#eb9481"/>
        <path id="Path_25163" data-name="Path 25163" d="M411.557,149.991c-3.38-7.83-3.509-11.841-2.206-20.123,0-.168-.206-.245-.245-.077-2.012,8.01-2.58,13.054,2.077,20.381C411.415,150.533,411.725,150.365,411.557,149.991Z" transform="translate(-70.568 37.607)" fill="#100e3a"/>
        <path id="Path_25164" data-name="Path 25164" d="M404.639,151.445c-2.8-8.436-2.98-12.783-2.257-21.567a.116.116,0,0,0-.219,0c-1.432,8.565-1.883,13.609,2.025,21.671C404.368,151.883,404.833,151.819,404.639,151.445Z" transform="translate(-72.448 37.636)" fill="#100e3a"/>
        <path id="Path_25165" data-name="Path 25165" d="M396.807,151.382c-2.116-8.359-2.515-13.118-.722-21.567a.16.16,0,0,0-.31-.077c-2.657,8.423-2.219,14.37.774,21.683C396.755,151.911,396.936,151.911,396.807,151.382Z" transform="translate(-74.509 37.583)" fill="#100e3a"/>
        <path id="Path_25166" data-name="Path 25166" d="M370.211,45c9.7,18.059,41.677,39.1,42.27,41.638s-12.835,31.758-13.286,37.653,2.58,8.1,2.58,8.1l33.318,3.87s5.018.89,8.9-8.294,4.025-42.786-2.58-52.487S413.036,44.523,377.2,33.843C368.276,31.108,364.187,33.778,370.211,45Z" transform="translate(-82.237 9.53)" fill="#67c6b4"/>
        <path id="Path_25167" data-name="Path 25167" d="M394.644,110l34,3.87s-2.49,8.888-2.58,9.029-33.731-3.87-34.234-4.373S394.644,110,394.644,110Z" transform="translate(-75.158 31.896)" fill="#67c6b4"/>
        <path id="Path_25168" data-name="Path 25168" d="M427.218,113.724c-5.16-.774-27-4.154-32.7-3.87a.181.181,0,0,0,0,.361c5.276,1.174,26.908,3.741,32.7,3.87C427.6,114.123,427.656,113.788,427.218,113.724Z" transform="translate(-74.413 31.849)" fill="#100e3a"/>
        <path id="Path_25169" data-name="Path 25169" d="M375.172,34.423c-1.393,6.114-2.825,13.686-8.075,17.336s-12.4,2.8-17.207-1.69c0,0-.129,0-.077.09,4.283,5.16,10.926,6.72,16.691,3.431,6.179-3.547,8.191-12.1,9.029-19.117C375.572,34.242,375.224,34.2,375.172,34.423Z" transform="translate(-87.328 9.943)" fill="#100e3a"/>
      </g>
    </g>
  </g>
</svg>
