<svg xmlns="http://www.w3.org/2000/svg" viewBox="0 0 28 28"><defs><style>.cls-1,.cls-3{fill:none;}.cls-2{fill:#0091ff;}.cls-3{stroke:#0091ff;stroke-miterlimit:10;stroke-width:0.6px;}</style></defs><g id="Layer_2" data-name="Layer 2"><g id="Layer_1-2" data-name="Layer 1"><rect class="cls-1" width="28" height="28"/><path class="cls-2" d="M26.38,10.94a2.85,2.85,0,0,0-3.53.66c-.72.93-1.47,1.84-2.21,2.76-.06.08-.15.19-.23.19-.44,0-.88,0-1.35,0v-.32c0-1.06,0-2.13,0-3.19a3.33,3.33,0,0,0-3.23-3.23c-1.21,0-2.42,0-3.64,0a3.25,3.25,0,0,0-3.12,2.55,15.23,15.23,0,0,0-.12,2.44.56.56,0,0,0,.55.62c.33,0,.56-.24.57-.63s0-1,0-1.45a3.34,3.34,0,0,1,.08-.7,2.24,2.24,0,0,1,2.29-1.72h3.14a2.36,2.36,0,0,1,.65.08,2.24,2.24,0,0,1,1.72,2.3c0,1,0,2,0,3.06a1.11,1.11,0,0,1,0,.17c-1.32.18-1.76,1-1.66,2.25H11.75v-.42a1.7,1.7,0,0,0-1.82-1.81H7.77a.45.45,0,0,1-.42-.2c-.73-.92-1.46-1.84-2.21-2.75a2.37,2.37,0,0,0-1.76-1,2.7,2.7,0,0,0-2.12.57A2.52,2.52,0,0,0,.5,12.61v8s0,0,0,.06A2.85,2.85,0,0,0,3.46,23c1,0,2,0,3,0a.51.51,0,0,1,.58.39c.42,1,.88,2.07,1.32,3.1.15.34.36.48.64.44s.59-.44.39-.89c-.52-1.22-1.05-2.44-1.56-3.66a.73.73,0,0,0-.77-.5c-1.19,0-2.39,0-3.58,0a2.21,2.21,0,0,1-.89-.18,1.67,1.67,0,0,1-1-1.66V13a1.11,1.11,0,0,1,.87-1.17,1.73,1.73,0,0,1,1.86.6c.74,1,1.53,1.9,2.28,2.87a1,1,0,0,0,.89.43c.8,0,1.6,0,2.4,0,.42,0,.66.18.7.53a5.8,5.8,0,0,1,0,.59H6.1a.45.45,0,0,1-.41-.21c-.43-.59-.86-1.16-1.3-1.73a.57.57,0,0,0-.67-.29.57.57,0,0,0-.24.94c.46.62.92,1.22,1.37,1.84a.75.75,0,0,1,.14.41c0,.55,0,1.1,0,1.66s.2.75.75.75,1.31,0,2,0A1.08,1.08,0,0,1,8.78,21c.1.26.18.52.26.77.53,1.57,1,3.14,1.58,4.69a.92.92,0,0,0,.38.47.45.45,0,0,0,.57-.11.59.59,0,0,0,.11-.69l-1.8-5.42a2.47,2.47,0,0,0-.66-1,2.32,2.32,0,0,0-1.65-.57H6.15V18h15.7v1.11H20.43a2.25,2.25,0,0,0-2.33,1.68L16.33,26a1.28,1.28,0,0,0-.06.33.51.51,0,0,0,.38.54.55.55,0,0,0,.64-.24,1.58,1.58,0,0,0,.13-.34c.59-1.74,1.16-3.48,1.74-5.22a1.16,1.16,0,0,1,1.28-.91h1.84c.51,0,.72-.22.72-.73s0-1.1,0-1.66a1,1,0,0,1,.15-.45c.31-.44.64-.86,1-1.29.16-.2.32-.4.46-.61a.56.56,0,0,0-.35-.87.59.59,0,0,0-.62.3c-.44.57-.87,1.15-1.3,1.73a.45.45,0,0,1-.41.21H17.38v-.28c0-.67.16-.84.83-.84s1.57,0,2.35,0a.87.87,0,0,0,.76-.37c.77-1,1.55-1.93,2.32-2.91a1.61,1.61,0,0,1,1.43-.67c.87,0,1.31.45,1.31,1.32V20a2.15,2.15,0,0,1-.08.62,1.66,1.66,0,0,1-1.73,1.25H20.93a.73.73,0,0,0-.77.5c-.5,1.21-1,2.41-1.54,3.61a1,1,0,0,0-.09.3.53.53,0,0,0,.46.64c.28,0,.49-.1.64-.44.46-1.08.93-2.16,1.38-3.24a.34.34,0,0,1,.37-.25c1.11,0,2.23,0,3.34,0a2.73,2.73,0,0,0,2.12-1,3.39,3.39,0,0,0,.66-1.41v-8a1.21,1.21,0,0,1-.05-.18A2.16,2.16,0,0,0,26.38,10.94Zm-21-2.33a2.77,2.77,0,0,0,0-3.82,2.8,2.8,0,0,0-4.17,0A3.31,3.31,0,0,0,.5,6.33v.74a3.45,3.45,0,0,0,.74,1.51A2.82,2.82,0,0,0,5.35,8.61ZM3.33,5a1.69,1.69,0,0,1,0,3.37A1.69,1.69,0,1,1,3.33,5ZM27.45,6.13a2.84,2.84,0,0,0-3.35-2.2A2.81,2.81,0,1,0,26.82,8.5a3.5,3.5,0,0,0,.68-1.43V6.33A1.46,1.46,0,0,1,27.45,6.13ZM24.69,8.37a1.69,1.69,0,1,1,1.68-1.68A1.69,1.69,0,0,1,24.69,8.37ZM14,6.68a2.81,2.81,0,1,0-2.81-2.8A2.82,2.82,0,0,0,14,6.68Zm0-4.5a1.72,1.72,0,0,1,1.69,1.7A1.69,1.69,0,1,1,14,2.18Zm-.54,7.9v1.1h1.09v-1.1Zm0,9.27v7.3a.42.42,0,0,0,0,.16c0,.05.06.12.1.12h1V19.07H13.43Z"/><path class="cls-3" d="M26.38,10.94a2.85,2.85,0,0,0-3.53.66c-.72.93-1.47,1.84-2.21,2.76-.06.08-.15.19-.23.19-.44,0-.88,0-1.35,0v-.32c0-1.06,0-2.13,0-3.19a3.33,3.33,0,0,0-3.23-3.23c-1.21,0-2.42,0-3.64,0a3.25,3.25,0,0,0-3.12,2.55,15.23,15.23,0,0,0-.12,2.44.56.56,0,0,0,.55.62c.33,0,.56-.24.57-.63s0-1,0-1.45a3.34,3.34,0,0,1,.08-.7,2.24,2.24,0,0,1,2.29-1.72h3.14a2.36,2.36,0,0,1,.65.08,2.24,2.24,0,0,1,1.72,2.3c0,1,0,2,0,3.06a1.11,1.11,0,0,1,0,.17c-1.32.18-1.76,1-1.66,2.25H11.75v-.42a1.7,1.7,0,0,0-1.82-1.81H7.77a.45.45,0,0,1-.42-.2c-.73-.92-1.46-1.84-2.21-2.75a2.37,2.37,0,0,0-1.76-1,2.7,2.7,0,0,0-2.12.57A2.52,2.52,0,0,0,.5,12.61v8s0,0,0,.06A2.85,2.85,0,0,0,3.46,23c1,0,2,0,3,0a.51.51,0,0,1,.58.39c.42,1,.88,2.07,1.32,3.1.15.34.36.48.64.44s.59-.44.39-.89c-.52-1.22-1.05-2.44-1.56-3.66a.73.73,0,0,0-.77-.5c-1.19,0-2.39,0-3.58,0a2.21,2.21,0,0,1-.89-.18,1.67,1.67,0,0,1-1-1.66V13a1.11,1.11,0,0,1,.87-1.17,1.73,1.73,0,0,1,1.86.6c.74,1,1.53,1.9,2.28,2.87a1,1,0,0,0,.89.43c.8,0,1.6,0,2.4,0,.42,0,.66.18.7.53a5.8,5.8,0,0,1,0,.59H6.1a.45.45,0,0,1-.41-.21c-.43-.59-.86-1.16-1.3-1.73a.57.57,0,0,0-.67-.29.57.57,0,0,0-.24.94c.46.62.92,1.22,1.37,1.84a.75.75,0,0,1,.14.41c0,.55,0,1.1,0,1.66s.2.75.75.75,1.31,0,2,0A1.08,1.08,0,0,1,8.78,21c.1.26.18.52.26.77.53,1.57,1,3.14,1.58,4.69a.92.92,0,0,0,.38.47.45.45,0,0,0,.57-.11.59.59,0,0,0,.11-.69l-1.8-5.42a2.47,2.47,0,0,0-.66-1,2.32,2.32,0,0,0-1.65-.57H6.15V18h15.7v1.11H20.43a2.25,2.25,0,0,0-2.33,1.68L16.33,26a1.28,1.28,0,0,0-.06.33.51.51,0,0,0,.38.54.55.55,0,0,0,.64-.24,1.58,1.58,0,0,0,.13-.34c.59-1.74,1.16-3.48,1.74-5.22a1.16,1.16,0,0,1,1.28-.91h1.84c.51,0,.72-.22.72-.73s0-1.1,0-1.66a1,1,0,0,1,.15-.45c.31-.44.64-.86,1-1.29.16-.2.32-.4.46-.61a.56.56,0,0,0-.35-.87.59.59,0,0,0-.62.3c-.44.57-.87,1.15-1.3,1.73a.45.45,0,0,1-.41.21H17.38v-.28c0-.67.16-.84.83-.84s1.57,0,2.35,0a.87.87,0,0,0,.76-.37c.77-1,1.55-1.93,2.32-2.91a1.61,1.61,0,0,1,1.43-.67c.87,0,1.31.45,1.31,1.32V20a2.15,2.15,0,0,1-.08.62,1.66,1.66,0,0,1-1.73,1.25H20.93a.73.73,0,0,0-.77.5c-.5,1.21-1,2.41-1.54,3.61a1,1,0,0,0-.09.3.53.53,0,0,0,.46.64c.28,0,.49-.1.64-.44.46-1.08.93-2.16,1.38-3.24a.34.34,0,0,1,.37-.25c1.11,0,2.23,0,3.34,0a2.73,2.73,0,0,0,2.12-1,3.39,3.39,0,0,0,.66-1.41v-8a1.21,1.21,0,0,1-.05-.18A2.16,2.16,0,0,0,26.38,10.94Zm-21-2.33a2.77,2.77,0,0,0,0-3.82,2.8,2.8,0,0,0-4.17,0A3.31,3.31,0,0,0,.5,6.33v.74a3.45,3.45,0,0,0,.74,1.51A2.82,2.82,0,0,0,5.35,8.61ZM3.33,5a1.69,1.69,0,0,1,0,3.37A1.69,1.69,0,1,1,3.33,5ZM27.45,6.13a2.84,2.84,0,0,0-3.35-2.2A2.81,2.81,0,1,0,26.82,8.5a3.5,3.5,0,0,0,.68-1.43V6.33A1.46,1.46,0,0,1,27.45,6.13ZM24.69,8.37a1.69,1.69,0,1,1,1.68-1.68A1.69,1.69,0,0,1,24.69,8.37ZM14,6.68a2.81,2.81,0,1,0-2.81-2.8A2.82,2.82,0,0,0,14,6.68Zm0-4.5a1.72,1.72,0,0,1,1.69,1.7A1.69,1.69,0,1,1,14,2.18Zm-.54,7.9v1.1h1.09v-1.1Zm0,9.27v7.3a.42.42,0,0,0,0,.16c0,.05.06.12.1.12h1V19.07H13.43Z"/></g></g></svg>