<svg xmlns="http://www.w3.org/2000/svg" viewBox="0 0 48 48"><defs><style>.cls-1{fill:none;}.cls-2{fill:#b3b3b3;}</style></defs><g id="Layer_2" data-name="Layer 2"><g id="Layer_1-2" data-name="Layer 1"><rect class="cls-1" width="48" height="48"/><path class="cls-2" d="M20.25,39.78c-1-.26-2.05-.45-3-.77A17.47,17.47,0,0,1,6,18.2,17.23,17.23,0,0,1,25.63,5.47c6.54,1.13,11,5,13.44,11.17a21.6,21.6,0,0,1,.88,3.5,1.79,1.79,0,0,0,2,1.55,1.73,1.73,0,0,0,1.43-2.1c-.13-.7-.22-1.42-.42-2.11C40.5,9,35,3.87,26.38,2.07c-.76-.16-1.53-.22-2.3-.33H21.5c-.8.11-1.6.2-2.38.34A20.34,20.34,0,0,0,7.28,8.71,20.37,20.37,0,0,0,2.2,19.61c-.08.56-.14,1.11-.21,1.67v2.59a2,2,0,0,1,.08.33,18.31,18.31,0,0,0,1.06,5.14A20.6,20.6,0,0,0,19.39,43.13a1.78,1.78,0,0,0,1.45-.26,1.73,1.73,0,0,0-.59-3.09Zm24.68-5.29A1.74,1.74,0,0,0,42.72,36a8.2,8.2,0,1,1-5.87-9.61,1.72,1.72,0,1,0,.89-3.33,11.54,11.54,0,0,0-5-.25,11.66,11.66,0,0,0-2,22.5,29,29,0,0,0,2.93.68h1.9a2,2,0,0,1,.33-.08,11.66,11.66,0,0,0,10.17-9.46A1.74,1.74,0,0,0,44.93,34.49ZM15.31,27.7A1.89,1.89,0,0,0,14.68,29a1.72,1.72,0,0,0,1,1.67,1.69,1.69,0,0,0,2-.41c2.1-2.12,4.18-4.24,6.27-6.36a1.9,1.9,0,0,0,.56-1.41c0-2.1,0-4.2,0-6.31s0-4.23,0-6.35a1.72,1.72,0,1,0-3.44,0q0,5.84,0,11.67a.87.87,0,0,1-.27.68C19,24,17.14,25.85,15.31,27.7Zm26.52-.21c-2.26,2.25-4.52,4.48-6.78,6.72l-.37.35-2.11-2.12a1.74,1.74,0,1,0-2.44,2.45l2.29,2.29a3,3,0,0,0,4.55,0l5.64-5.59c.59-.59,1.2-1.16,1.77-1.77a1.73,1.73,0,1,0-2.55-2.33Z"/></g></g></svg>