<svg xmlns="http://www.w3.org/2000/svg" viewBox="0 0 48 48"><defs><style>.cls-1{fill:none;}.cls-2{fill:#b3b3b3;}</style></defs><g id="Layer_2" data-name="Layer 2"><g id="Layer_1-2" data-name="Layer 1"><rect class="cls-1" width="48" height="48"/><path class="cls-2" d="M35.18,34.21c-1.58-.93-3.16-1.86-4.76-2.74A3.61,3.61,0,0,0,29.08,31a3.27,3.27,0,0,0-3.36,1.82,2,2,0,0,1-3.18.62c-.73-.57-1.45-1.14-2.15-1.75a40.88,40.88,0,0,1-5.89-6.3,2,2,0,0,1,.62-3.1l.38-.23a3.26,3.26,0,0,0,1.14-4.3c-1-1.77-2-3.5-3-5.22a3.16,3.16,0,0,0-3.81-1.32c-1.26.47-2.49,1-3.71,1.57A4.72,4.72,0,0,0,3.44,16c-.14.45-.21.92-.31,1.38v1.72l.12.71a20.3,20.3,0,0,0,2.48,6.77,41.45,41.45,0,0,0,9.33,11.22,33.3,33.3,0,0,0,9.37,5.89,12.8,12.8,0,0,0,6.51,1.09,5.08,5.08,0,0,0,4.31-3c.49-1.09,1-2.19,1.4-3.29A3.26,3.26,0,0,0,35.18,34.21Zm-.89,3.13c-.53,1.26-1,2.53-1.64,3.76a2.11,2.11,0,0,1-1.52,1,7.43,7.43,0,0,1-3.94-.22,24.31,24.31,0,0,1-7.83-4A39.79,39.79,0,0,1,8.06,25.41a17.69,17.69,0,0,1-2.19-5.75c-.08-.46-.11-.92-.17-1.45a12.67,12.67,0,0,1,.22-1.38A2.34,2.34,0,0,1,7.33,15.1l3.22-1.36a.7.7,0,0,1,1,.35q1.38,2.37,2.75,4.76c.28.49.16.85-.36,1.14a4.57,4.57,0,0,0-2.39,3.15,4.48,4.48,0,0,0,.82,3.74,44.1,44.1,0,0,0,8.79,8.79,4.62,4.62,0,0,0,6.72-1.3l.18-.31a.75.75,0,0,1,1.17-.3l4.65,2.69.18.11A.62.62,0,0,1,34.29,37.34ZM44.64,17.29A17,17,0,0,0,31.55,3.53c-.85-.18-1.71-.28-2.57-.41H26.7c-.58.08-1.16.15-1.73.25A16.75,16.75,0,0,0,15.9,8.08a1.29,1.29,0,0,0-.27,1.5,1.37,1.37,0,0,0,2.23.25A14.26,14.26,0,0,1,34,7.1a14.43,14.43,0,0,1,8,16,14.59,14.59,0,0,1-3.8,7.13,1.79,1.79,0,0,0-.46.84,1.24,1.24,0,0,0,.72,1.37A1.32,1.32,0,0,0,40,32,16.67,16.67,0,0,0,44.64,17.29Zm-20,1.62c-.76.64-1.54,1.26-2.3,1.89a10.86,10.86,0,0,0-2.92,3.3,1.31,1.31,0,0,0,1.22,2h6.2a1.31,1.31,0,1,0,0-2.61H23.65l-.52,0c.74-.59,1.39-1.08,2-1.62A14.83,14.83,0,0,0,27,20.12a4.24,4.24,0,0,0-1.53-6.45A5,5,0,0,0,23,13.23a4,4,0,0,0-3.81,4.32,1.33,1.33,0,0,0,1.17,1.31,1.29,1.29,0,0,0,1.44-1.34,1.52,1.52,0,0,1,.36-1.25,2.09,2.09,0,0,1,2.26-.2,1.49,1.49,0,0,1,.82,1.66A1.67,1.67,0,0,1,24.61,18.91Zm12-4.2a1.34,1.34,0,0,0-.88-1.41,1.31,1.31,0,0,0-1.54.53l-6,7.27a1.37,1.37,0,0,0-.29,1.54,1.35,1.35,0,0,0,1.38.75c.68,0,1.36,0,2,0H34c0,.09,0,.11,0,.14,0,.41,0,.82,0,1.22a1.87,1.87,0,0,0,.18.74,1.27,1.27,0,0,0,1.42.62,1.3,1.3,0,0,0,1-1.25c0-.47,0-1,0-1.41,1.11-.25,1.53-.6,1.53-1.31a1.74,1.74,0,0,0-.24-.8,1.45,1.45,0,0,0-1.29-.58v-6Zm-2.65,6H31.89L34,18.21Z"/></g></g></svg>