<svg xmlns="http://www.w3.org/2000/svg" xmlns:xlink="http://www.w3.org/1999/xlink" width="676.168" height="581.967" viewBox="0 0 676.168 581.967">
  <defs>
    <filter id="Rectangle_2059" x="468.405" y="40.42" width="207.763" height="170.596" filterUnits="userSpaceOnUse">
      <feOffset dy="3" input="SourceAlpha"/>
      <feGaussianBlur stdDeviation="14.5" result="blur"/>
      <feFlood flood-color="#7a9ab2" flood-opacity="0.161"/>
      <feComposite operator="in" in2="blur"/>
      <feComposite in="SourceGraphic"/>
    </filter>
    <filter id="Rectangle_2060" x="0" y="20.645" width="215.859" height="163.221" filterUnits="userSpaceOnUse">
      <feOffset dy="3" input="SourceAlpha"/>
      <feGaussianBlur stdDeviation="14.5" result="blur-2"/>
      <feFlood flood-color="#7a9ab2" flood-opacity="0.161"/>
      <feComposite operator="in" in2="blur-2"/>
      <feComposite in="SourceGraphic"/>
    </filter>
  </defs>
  <g id="Group_1224" data-name="Group 1224" transform="translate(-1092.012 -217.033)">
    <g id="Group_1223" data-name="Group 1223">
      <g id="Layer_2" data-name="Layer 2" transform="translate(1088.089 217.033)">
        <g id="OBJECTS">
          <g transform="matrix(1, 0, 0, 1, 3.92, 0)" filter="url(#Rectangle_2059)">
            <rect id="Rectangle_2059-2" data-name="Rectangle 2059" width="120.763" height="83.596" rx="6" transform="translate(511.9 80.92)" fill="#263238"/>
          </g>
          <path id="Path_27671" data-name="Path 27671" d="M331.146,65.1a9.45,9.45,0,0,1,9.639,7.118h-5.454a4.459,4.459,0,0,0-4.254-2.59c-3.036,0-5.145,2.247-5.145,5.831s2.075,5.849,5.145,5.849a4.476,4.476,0,0,0,4.254-2.641h5.454a9.416,9.416,0,0,1-9.639,7.1,10.351,10.351,0,1,1,0-20.7Z" transform="translate(229.413 46.534)" fill="#71889a"/>
          <path id="Path_27672" data-name="Path 27672" d="M341.8,85.865c-4.374,0-7.787-2.178-7.924-6.277h5.351a2.315,2.315,0,0,0,2.5,2.315c1.458,0,2.384-.72,2.384-1.9,0-3.773-10.154-1.715-10.1-8.953,0-3.842,3.156-5.986,7.409-5.986s7.409,2.2,7.615,6.072h-5.368a2.2,2.2,0,0,0-2.333-2.11,1.8,1.8,0,0,0-2.11,1.852c0,3.533,10.051,1.938,10.051,8.747C349.213,83.035,346.555,85.865,341.8,85.865Z" transform="translate(238.771 46.527)" fill="#71889a"/>
          <path id="Path_27673" data-name="Path 27673" d="M352.174,85.865c-4.374,0-7.787-2.178-7.924-6.277h5.266a2.333,2.333,0,0,0,2.521,2.315c1.441,0,2.367-.72,2.367-1.9,0-3.773-10.154-1.715-10.1-8.953,0-3.842,3.156-5.986,7.409-5.986s7.409,2.2,7.615,6.072h-5.351a2.2,2.2,0,0,0-2.35-2.11,1.715,1.715,0,0,0-2.075,1.852c0,3.533,10.034,1.938,10.034,8.747C359.583,83.035,356.925,85.865,352.174,85.865Z" transform="translate(246.187 46.527)" fill="#71889a"/>
          <line id="Line_158" data-name="Line 158" x2="4.288" transform="translate(636.694 121.981)" fill="none" stroke="#aac2d3" stroke-miterlimit="10" stroke-width="1"/>
          <line id="Line_159" data-name="Line 159" x2="8.713" transform="translate(646.779 121.981)" fill="none" stroke="#aac2d3" stroke-miterlimit="10" stroke-width="1" stroke-dasharray="3.39 3.39"/>
          <path id="Path_27674" data-name="Path 27674" d="M383.88,71.12h4.288v4.288" transform="translate(274.528 50.861)" fill="none" stroke="#aac2d3" stroke-miterlimit="10" stroke-width="1"/>
          <line id="Line_160" data-name="Line 160" y2="120.866" transform="translate(662.696 135.222)" fill="none" stroke="#aac2d3" stroke-miterlimit="10" stroke-width="1" stroke-dasharray="5.22 5.22"/>
          <path id="Path_27675" data-name="Path 27675" d="M388.168,151.92v4.288H383.88" transform="translate(274.528 108.644)" fill="none" stroke="#aac2d3" stroke-miterlimit="10" stroke-width="1"/>
          <line id="Line_161" data-name="Line 161" x1="151.636" transform="translate(498.111 264.852)" fill="none" stroke="#aac2d3" stroke-miterlimit="10" stroke-width="1" stroke-dasharray="5.05 5.05"/>
          <path id="Path_27676" data-name="Path 27676" d="M289.678,154.42H285.39v4.288" transform="translate(204.094 110.432)" fill="none" stroke="#aac2d3" stroke-miterlimit="10" stroke-width="1"/>
          <line id="Line_162" data-name="Line 162" y2="26.945" transform="translate(489.484 276.841)" fill="none" stroke="#aac2d3" stroke-miterlimit="10" stroke-width="1" stroke-dasharray="4.49 4.49"/>
          <line id="Line_163" data-name="Line 163" y2="4.288" transform="translate(489.484 307.645)" fill="none" stroke="#f699d5" stroke-miterlimit="10" stroke-width="1"/>
          <line id="Line_164" data-name="Line 164" x1="44.697" transform="translate(470.909 118.173)" fill="none" stroke="#aac2d3" stroke-miterlimit="10" stroke-width="1" stroke-dasharray="5"/>
          <line id="Line_165" data-name="Line 165" y1="4.288" transform="translate(111.844 56.857)" fill="none" stroke="#aac2d3" stroke-miterlimit="10" stroke-width="1"/>
          <path id="Path_27677" data-name="Path 27677" d="M65.21,29.4V25.11H69.5" transform="translate(46.634 17.957)" fill="none" stroke="#aac2d3" stroke-miterlimit="10" stroke-width="1"/>
          <line id="Line_166" data-name="Line 166" x2="59.618" transform="translate(124.09 43.067)" fill="none" stroke="#c5e1f3" stroke-miterlimit="10" stroke-width="1" stroke-dasharray="4.64 4.64"/>
          <line id="Line_167" data-name="Line 167" x2="4.288" transform="translate(187.688 43.067)" fill="none" stroke="#f699d5" stroke-miterlimit="10" stroke-width="1"/>
          <line id="Line_168" data-name="Line 168" y1="97.523" transform="translate(111.844 137.383)" fill="none" stroke="#aac2d3" stroke-miterlimit="10" stroke-width="1" stroke-dasharray="5"/>
          <g transform="matrix(1, 0, 0, 1, 3.92, 0)" filter="url(#Rectangle_2060)">
            <rect id="Rectangle_2060-2" data-name="Rectangle 2060" width="128.858" height="76.221" rx="6" transform="translate(43.5 61.14)" fill="#263238"/>
          </g>
          <path id="Path_27678" data-name="Path 27678" d="M42.058,51.178H38.8L35.71,47.819,38.8,44.46h3.255l-3.093,3.359Z" transform="translate(32.485 34.608)" fill="#71889a"/>
          <path id="Path_27679" data-name="Path 27679" d="M51.509,40.57h2.5L49.941,57.823h-2.5Z" transform="translate(28.301 32.742)" fill="#71889a"/>
          <path id="Path_27680" data-name="Path 27680" d="M60.078,47.809,57,44.45h3.255l3.093,3.359L60.24,51.183H57Z" transform="translate(26.508 34.603)" fill="#71889a"/>
          <rect id="Rectangle_2061" data-name="Rectangle 2061" width="76.292" height="2.279" rx="1.139" transform="translate(65.458 98.91)" fill="#71889a"/>
          <rect id="Rectangle_2062" data-name="Rectangle 2062" width="92.79" height="2.279" rx="1.139" transform="translate(65.458 108.336)" fill="#71889a"/>
          <rect id="Rectangle_2063" data-name="Rectangle 2063" width="76.292" height="2.279" rx="1.139" transform="translate(65.458 117.894)" fill="#71889a"/>
          <path id="Path_27688" data-name="Path 27688" d="M122.223,227.716c-4.6,14.15-6,29.912-8.387,44.594-2.024,12.521-5.248,26-4.271,38.779.189,2.4,3.893,1.955,3.7-.429-.943-12.383,2.3-25.641,4.271-37.733,2.315-14.287,3.636-29.895,8.113-43.667.738-2.281-2.693-3.79-3.43-1.492Z" transform="translate(78.226 162.067)" fill="#fce0e3"/>
          <g id="Group_1220" data-name="Group 1220" transform="translate(187.611 388.69)">
            <path id="Path_27689" data-name="Path 27689" d="M122.223,227.716c-4.6,14.15-6,29.912-8.387,44.594-2.024,12.521-5.248,26-4.271,38.779.189,2.4,3.893,1.955,3.7-.429-.943-12.383,2.3-25.641,4.271-37.733,2.315-14.287,3.636-29.895,8.113-43.667.738-2.281-2.693-3.79-3.43-1.492Z" transform="translate(-109.385 -226.623)" fill="#fce0e3"/>
          </g>
          <path id="Path_27697" data-name="Path 27697" d="M141.86,240.82a23.257,23.257,0,0,0-17.151-2.556c-.412.086-.343.772,0,.669a22.742,22.742,0,0,1,16.86,2.5C141.963,241.695,142.237,241.026,141.86,240.82Z" transform="translate(88.981 169.939)" fill="#fce0e3" opacity="0.49"/>
          <path id="Path_27698" data-name="Path 27698" d="M141.292,230.275a14.6,14.6,0,0,0-6.672-1.235,14.1,14.1,0,0,0-3.156.515,29.831,29.831,0,0,1-3.516,1.355l-.137-.086a.274.274,0,0,0-.377.1,1.046,1.046,0,0,1-.326,0,.771.771,0,0,0-.189,0l-.395-.875h0c1.715-1.99,8.473-8.576,11.526-5.917.326.274.738-.257.412-.532-1.715-1.544-4.031-.292-5.78.652a25.075,25.075,0,0,0-6.466,5.145c-.343-.755-.7-1.492-1.046-2.23-.172-.394-.806-.137-.617.257.377.823.772,1.715,1.166,2.47a.343.343,0,0,0-.412-.154c-3.036,1.063-6.861-.154-10.051.583a18.077,18.077,0,0,0-6.861,3.259.331.331,0,0,0,.395.532,17.014,17.014,0,0,1,9.142-3.516c2.641-.154,5.025.652,7.564-.24a.292.292,0,0,0,.189-.377c.343.72.669,1.441,1.012,2.178a23.446,23.446,0,0,0-12.315,8.25.343.343,0,0,0,.532.412,22.846,22.846,0,0,1,12.006-8.061c.463.995.96,1.99,1.458,2.984a.412.412,0,0,0,0,.154q0,.72,0,1.441a.274.274,0,0,0-.412,0,25.417,25.417,0,0,0-3.979,7.907c-.12.412.5.686.617.274a25.555,25.555,0,0,1,3.808-7.65,59.5,59.5,0,0,1-.446,11.046.33.33,0,1,0,.652.1,57.422,57.422,0,0,0,.429-11.886c1.458,3,2.933,6.02,4.339,9.09a.292.292,0,0,0-.257.172,122.73,122.73,0,0,0-6.363,14.424c-.137.412.48.686.635.275a122.517,122.517,0,0,1,6.26-14.253c3.688,8.147,6.775,16.551,7.478,25.127,0,.429.7.36.669,0-1.012-12.452-6.861-24.372-12.538-35.812a29.912,29.912,0,0,1,8.3,4.785.343.343,0,0,0,.412-.532A30.769,30.769,0,0,0,129.2,235.4a.343.343,0,0,0-.292,0c-.635-1.286-1.252-2.573-1.869-3.859h.583l7.564,4.322c.377.206.652-.412.274-.617l-6.861-3.911c1.235-.36,2.436-1.132,3.67-1.389a14,14,0,0,1,8.576.892C141.429,231.047,141.7,230.429,141.292,230.275Z" transform="translate(77.423 159.388)" fill="#fce0e3" opacity="0.49"/>
          <path id="Path_27700" data-name="Path 27700" d="M45.79,140.995c0-.412-.772-.343-.669.086a21.817,21.817,0,0,1-.274,11.217c-.12.412.5.686.617.274a22.468,22.468,0,0,0,.326-11.577Z" transform="translate(32.06 100.634)" fill="#fce0e3" opacity="0.49"/>
          <path id="Path_27701" data-name="Path 27701" d="M53.959,136.918c-.412-.137-.686.48-.274.617A15.676,15.676,0,0,1,64.4,151.257a.343.343,0,0,0,.669,0A16.311,16.311,0,0,0,53.959,136.918Z" transform="translate(38.247 97.902)" fill="#fce0e3" opacity="0.49"/>
          <rect id="Rectangle_2064" data-name="Rectangle 2064" width="283.324" height="575.155" rx="34" transform="translate(187.585)" fill="#263238"/>
          <path id="Path_27709" data-name="Path 27709" d="M377.692,30.549V501.818H115.55V30.549c0-13.2,11.518-23.909,25.727-23.909h55.931V18.563c.009,5.217,4.558,9.443,10.171,9.452h78.571c5.617,0,10.171-4.232,10.171-9.452V6.688h55.931c14.155.044,25.613,10.706,25.641,23.862Z" transform="translate(82.634 4.749)" fill="#fff"/>
          <path id="Path_27710" data-name="Path 27710" d="M328.857,198.395h-185.9a15.213,15.213,0,0,1-15.213-15.2V92.536a15.2,15.2,0,0,1,15.213-15.2h185.9a15.2,15.2,0,0,1,15.213,15.2V183.2A15.213,15.213,0,0,1,328.857,198.395Z" transform="translate(91.352 55.309)" fill="none" stroke="#d4edfe" stroke-miterlimit="10" stroke-width="1" stroke-dasharray="3 2"/>
          <rect id="Rectangle_2065" data-name="Rectangle 2065" width="216.245" height="121.072" rx="8.87" transform="translate(219.092 271.747)" fill="#d4edfe"/>
          <path id="Path_27711" data-name="Path 27711" d="M266.77,75.793H173.278A18.661,18.661,0,0,1,154.6,57.115h0a18.678,18.678,0,0,1,18.678-18.7H266.77a18.7,18.7,0,0,1,18.7,18.7h0a18.678,18.678,0,0,1-18.7,18.678Z" transform="translate(110.561 27.476)" fill="none" stroke="#0091ff" stroke-miterlimit="10" stroke-width="1"/>
          <path id="Path_27712" data-name="Path 27712" d="M177.617,44.55V58.528h5.471V61.17h-8.8V44.55Z" transform="translate(124.642 31.86)" fill="#0091ff"/>
          <path id="Path_27713" data-name="Path 27713" d="M188.762,61.481a8.576,8.576,0,1,1,8.49-8.576,8.336,8.336,0,0,1-8.49,8.576Zm0-2.967a5.025,5.025,0,0,0,5.145-5.54,5.145,5.145,0,1,0-10.171,0,5.025,5.025,0,0,0,5.025,5.54Z" transform="translate(128.797 31.702)" fill="#0091ff"/>
          <path id="Path_27714" data-name="Path 27714" d="M207.451,49.651h-3.825a4.185,4.185,0,0,0-3.928-2.144,4.957,4.957,0,0,0-5.042,5.42A5.008,5.008,0,0,0,199.8,58.4a4.511,4.511,0,0,0,4.7-3.825H198.79V52.018h9v2.916a8.13,8.13,0,0,1-8.1,6.466,8.49,8.49,0,1,1,0-16.963,7.632,7.632,0,0,1,7.752,5.214Z" transform="translate(136.468 31.767)" fill="#0091ff"/>
          <path id="Path_27715" data-name="Path 27715" d="M210.3,61.481a8.576,8.576,0,1,1,8.49-8.576,8.353,8.353,0,0,1-8.49,8.576Zm0-2.967a5.008,5.008,0,0,0,5.06-5.54,5.145,5.145,0,1,0-10.154,0,5.025,5.025,0,0,0,5.094,5.54Z" transform="translate(144.201 31.702)" fill="#0091ff"/>
          <rect id="Rectangle_2066" data-name="Rectangle 2066" width="52.209" height="49.087" rx="5" transform="translate(219.092 412.285)" fill="#68b7f7"/>
          <rect id="Rectangle_2068" data-name="Rectangle 2068" width="87.644" height="2.641" rx="1.321" transform="translate(278.093 414.927)" fill="#d4edfe"/>
          <rect id="Rectangle_2069" data-name="Rectangle 2069" width="87.644" height="2.641" rx="1.321" transform="translate(278.093 444.667)" fill="#d4edfe"/>
          <rect id="Rectangle_2070" data-name="Rectangle 2070" width="53.752" height="2.641" rx="1.321" transform="translate(278.093 424.84)" fill="#d4edfe"/>
          <rect id="Rectangle_2071" data-name="Rectangle 2071" width="53.752" height="2.641" rx="1.321" transform="translate(278.093 454.564)" fill="#d4edfe"/>
          <rect id="Rectangle_2072" data-name="Rectangle 2072" width="70.407" height="2.641" rx="1.321" transform="translate(278.093 434.754)" fill="#d4edfe"/>
          <path id="Path_27716" data-name="Path 27716" d="M272.42,259.538H230.348a9.571,9.571,0,0,1-9.588-9.571h0a9.588,9.588,0,0,1,9.588-9.588H272.42a9.571,9.571,0,0,1,9.57,9.588h0A9.571,9.571,0,0,1,272.42,259.538Z" transform="translate(157.874 171.905)" fill="#c5e1f3"/>
          <path id="Path_27717" data-name="Path 27717" d="M225.474,225.335H143.148a9.588,9.588,0,0,1-9.588-9.588h0a9.588,9.588,0,0,1,9.588-9.588h82.327a9.57,9.57,0,0,1,9.57,9.588h0a9.588,9.588,0,0,1-9.57,9.588Z" transform="translate(95.514 147.433)" fill="#c5e1f3"/>
          <path id="Path_27718" data-name="Path 27718" d="M225.474,146.988H143.148a9.571,9.571,0,0,1-9.588-9.571h0a9.588,9.588,0,0,1,9.588-9.588h82.327a9.57,9.57,0,0,1,9.57,9.588h0a9.57,9.57,0,0,1-9.57,9.57Z" transform="translate(95.514 91.416)" fill="none" stroke="#c5e1f3" stroke-miterlimit="10" stroke-width="1" stroke-dasharray="5 2"/>
          <rect id="Rectangle_2078" data-name="Rectangle 2078" width="178.357" height="2.641" rx="1.321" transform="translate(230.909 147.999)" fill="#c5e1f3"/>
          <rect id="Rectangle_2079" data-name="Rectangle 2079" width="141.705" height="2.641" rx="1.321" transform="translate(230.909 158.925)" fill="#c5e1f3"/>
          <rect id="Rectangle_2080" data-name="Rectangle 2080" width="155.941" height="2.641" rx="1.321" transform="translate(230.909 169.85)" fill="#c5e1f3"/>
          <rect id="Rectangle_2081" data-name="Rectangle 2081" width="141.705" height="2.641" rx="1.321" transform="translate(230.909 180.93)" fill="#c5e1f3"/>
          <rect id="Rectangle_2082" data-name="Rectangle 2082" width="155.941" height="2.641" rx="1.321" transform="translate(230.909 191.856)" fill="#c5e1f3"/>
          <rect id="Rectangle_2083" data-name="Rectangle 2083" width="102.411" height="2.641" rx="1.321" transform="translate(230.909 290.751)" fill="#c5e1f3"/>
          <rect id="Rectangle_2084" data-name="Rectangle 2084" width="65.776" height="2.641" rx="1.321" transform="translate(230.909 301.676)" fill="#c5e1f3"/>
          <rect id="Rectangle_2085" data-name="Rectangle 2085" width="79.994" height="2.641" rx="1.321" transform="translate(230.909 312.601)" fill="#c5e1f3"/>
          <rect id="Rectangle_2086" data-name="Rectangle 2086" width="65.776" height="2.641" rx="1.321" transform="translate(230.909 323.681)" fill="#c5e1f3"/>
          <rect id="Rectangle_2087" data-name="Rectangle 2087" width="79.994" height="2.641" rx="1.321" transform="translate(230.909 334.607)" fill="#c5e1f3"/>
          <path id="Path_27720" data-name="Path 27720" d="M337.416,187.58l-17.94,2.247-3.859,11.817c-.84,2.264-1.629,4.614-2.315,7l-1.955.755a23.309,23.309,0,0,0-7.855,4.94l-5.145,4.922c-.823.96,0,2.247,1.424,1.561l4.545-3.43-2.264,3.636a50.266,50.266,0,0,0-3.276,6.329l-1.424,3.43a1.218,1.218,0,0,0,2.2.772l4.957-8.576-2.607,5.488-2.435,5.917c-.377,1.389,1.6,1.715,2.058.823l2.384-4.957,3.43-5.883-1.3,4.871a10.91,10.91,0,0,0-.394,3.242l.137,3.7c.789,1.612,1.715,1.1,2.5.086v-3.259a9.141,9.141,0,0,1,.737-3.6l1.9-4.614.412,9.227c.343,1.3,2.624.858,2.35-.429a40.924,40.924,0,0,1,.549-9.159,21.148,21.148,0,0,0,7.2-9.845l1.715-5.145Z" transform="translate(212.647 134.146)" fill="#f8b58e"/>
          <path id="Path_27721" data-name="Path 27721" d="M317.559,152.059l6.037,35.023L307.56,246.649l8.576,7.547,20.787-37.253A86.649,86.649,0,0,0,348,172.8l-.5-21.165a22.932,22.932,0,0,0-10.394-18.661c-8.233-5.386-14.664-3.43-18.7,8.284A21.971,21.971,0,0,0,317.559,152.059Z" transform="translate(219.948 93.051)" fill="#3470b4"/>
          <path id="Path_27722" data-name="Path 27722" d="M344.62,172.8l-.5-21.165a22.932,22.932,0,0,0-10.394-18.661c-3.808-2.487-7.221-3.43-10.291-2.5-4.031,6.535-3.911,15.025-2.933,22.417a125.206,125.206,0,0,0,5.454,21.628,87.594,87.594,0,0,1,3.6,14.664,47.27,47.27,0,0,1-.292,14.99,120.188,120.188,0,0,1-4.219,14.6,146.975,146.975,0,0,1-5.231,14.047c-.995,2.333-2.144,4.6-3.19,6.861a50.2,50.2,0,0,0-2.487,7.135c-.635,2.3-1.2,4.6-1.852,6.861l.463.412,20.787-37.253A86.648,86.648,0,0,0,344.62,172.8Z" transform="translate(223.331 93.051)" fill="#3470b4" opacity="0.55"/>
          <path id="Path_27723" data-name="Path 27723" d="M396.1,430.2l-10.6.24-20.8-120.523V227.846l-5.368.909-6.912,101.228-9.21,100.3H329.38V306.262L333.994,193.2h59.858l-3.825,122.187Z" transform="translate(235.553 138.165)" fill="#263238"/>
          <path id="Path_27724" data-name="Path 27724" d="M315.51,141.678l4.151,18.4a169.4,169.4,0,0,0,12.761,36.5l9.193,18.969,1.526,41.043c25.333,12.761,65.175-4.3,65.175-4.3l-14.167-89.942c-3.516-29.363-15.762-38.179-24.389-40.151a41.283,41.283,0,0,0-14.356-.72l-1.235.172a36.788,36.788,0,0,0-5.248,1.166L337.944,126a40.924,40.924,0,0,0-10.291,4.631h-.137a17.812,17.812,0,0,0-1.715,1.183A47.184,47.184,0,0,0,315.51,141.678Z" transform="translate(225.634 86.641)" fill="#0091ff"/>
          <path id="Path_27725" data-name="Path 27725" d="M377.543,157.653a63.838,63.838,0,0,0-1.887-15.608c-1.132-4.1-3.55-7.907-4.065-12.16A25.179,25.179,0,0,0,361.3,122.27a24.715,24.715,0,0,0-7.307,10.617,42.467,42.467,0,0,0-1.887,13.91c0,9.656.995,19.278,1.029,28.934a116.633,116.633,0,0,1-3.07,29.552A68.758,68.758,0,0,1,345.058,219a75.737,75.737,0,0,1-8.421,12.726c-1.715,2.281-3.585,4.545-5.437,6.861l.652,17.357a32.946,32.946,0,0,0,6.638,2.453c.7-.772,1.406-1.544,2.127-2.3,3.585-3.739,7.307-7.341,10.7-11.269a76.583,76.583,0,0,0,8.987-12.486,123.143,123.143,0,0,0,6.586-13.43,137.946,137.946,0,0,0,8.353-28.934,165.56,165.56,0,0,0,2.3-32.33Z" transform="translate(236.854 87.44)" fill="#5e85ff" opacity="0.55"/>
          <path id="Path_27726" data-name="Path 27726" d="M353.979,127.962a23.411,23.411,0,0,1,1.8-3.122c-.463.377-.926.789-1.372,1.2a21.405,21.405,0,0,0-6.106,11.08,70.427,70.427,0,0,0-1.269,11.217c-.24,4.374-.412,8.73-.463,13.087-.137,9.039-.223,18.163-2.418,26.979-2.59,10.445-7.89,19.621-13.361,28.729l.635,17.151c2.47-2.984,4.905-6,7.2-9.107,12.229-16.482,13.721-37.544,13.207-57.371-.137-4.854-.412-9.691-.652-14.544a102.329,102.329,0,0,1,0-13.567,33.808,33.808,0,0,1,2.8-11.732Z" transform="translate(236.561 89.278)" fill="#5e85ff" opacity="0.55"/>
          <path id="Path_27727" data-name="Path 27727" d="M360.408,187.049l-18.129-.309-5.506,12.692c-1.166,2.435-2.3,4.94-3.327,7.529l-2.041.549a22.3,22.3,0,0,0-8.576,4.3l-5.9,4.734c-.943.96-.377,2.521,1.183,1.972l5.008-3.122-2.779,3.739a59.741,59.741,0,0,0-4.168,6.62l-1.921,3.619a1.235,1.235,0,0,0,2.075,1.218l6.157-8.816-3.43,5.694-3.276,6.277c-.583,1.526,1.321,2.264,1.9,1.269l3.1-5.145,4.254-6.089-2.007,5.283a14.371,14.371,0,0,0-.858,3.585l-.412,4.2c.549,1.938,1.492,1.509,2.47.5l.532-3.67a11.456,11.456,0,0,1,1.269-3.945l2.556-4.888-.943,10.462a1.2,1.2,0,1,0,2.4-.12,50.548,50.548,0,0,1,1.887-10.291,23.19,23.19,0,0,0,8.576-9.948l2.538-5.591Z" transform="translate(224.695 133.545)" fill="#f8b58e"/>
          <path id="Path_27728" data-name="Path 27728" d="M350.332,145.081l.858,40.409L326.56,250.047l7.409,9.845,26.07-38.676a106.613,106.613,0,0,0,17.443-48.024l2.624-24.012a27.819,27.819,0,0,0-7.581-22.657c-7.375-7.358-14.047-6.226-19.758,6.38a27.922,27.922,0,0,0-2.436,12.178Z" transform="translate(233.536 87.218)" fill="#3470b4"/>
          <path id="Path_27729" data-name="Path 27729" d="M317.1,342.566a2.538,2.538,0,0,0,2.641,2.4h27.94c2.984,0,6.449-2.058,5.42-4.991l-1.715-8.576H341.181c0,.172-22.022,8.37-23.189,9.313a2.264,2.264,0,0,0-.892,1.852Z" transform="translate(226.771 236.997)" fill="#263238"/>
          <path id="Path_27730" data-name="Path 27730" d="M348.29,342.566a2.556,2.556,0,0,0,2.658,2.4h27.922c2.984,0,6.466-2.058,5.42-4.991l-1.715-8.576H372.371c0,.172-22.005,8.37-23.172,9.313a2.23,2.23,0,0,0-.909,1.852Z" transform="translate(249.076 236.997)" fill="#263238"/>
          <path id="Path_27731" data-name="Path 27731" d="M343.528,133.321a9.759,9.759,0,0,1-4.614,9.056,9.588,9.588,0,0,1-2.539,1.081,8.576,8.576,0,0,1-10.531-8.1v-3.43l-.514-10.154c0-.686,7.066-1.475,7.066-1.475l3.739-2.761,5.643-4.151.257-.172v1.6l.96,12.212.257,2.916Z" transform="translate(232.657 80.968)" fill="#f8b58e"/>
          <path id="Path_27732" data-name="Path 27732" d="M338.176,115.06a18.867,18.867,0,0,1-12.332,18.987v-3.43l-.515-10.154a2.024,2.024,0,0,1,.978-1.715l6.089.24,3.739-2.761Z" transform="translate(232.657 82.284)" fill="#f8b58e" opacity="0.64"/>
          <path id="Path_27733" data-name="Path 27733" d="M348.432,134.434a34.715,34.715,0,0,0-1.2-13.721,2.213,2.213,0,0,0-.995-1.492,2.264,2.264,0,0,0-1.595.171,78.724,78.724,0,0,1-18.712,4.133,2.9,2.9,0,0,0-2.2.875,2.813,2.813,0,0,0-.292,1.715c0,1.818.154,3.636.292,5.454l1.578,6.861a8.233,8.233,0,0,0,5.471,6.861,14.836,14.836,0,0,0,7.307,0,13.824,13.824,0,0,0,7.169-2.933,12.4,12.4,0,0,0,3.173-7.924Z" transform="translate(231.285 85.207)" fill="#0091ff"/>
          <path id="Path_27734" data-name="Path 27734" d="M316.082,111.842c-.823-4.374,1.1-9.776,2.676-13.224a21.3,21.3,0,0,1,4.511-6.552c11.389-11.063,24.9-3.533,24.9-3.533,9.313,2.881,7.752,18.369,7.752,18.369v2.47a3.7,3.7,0,0,1,1.715,0c2.8.652,4.305,4.391,3.43,8.353-.875,3.688-3.533,6.209-6.157,6.037A26.533,26.533,0,0,1,343.387,140.4l-1.046.617A12.261,12.261,0,0,1,339.2,142.2a17.151,17.151,0,0,1-19.878-11.629,73.031,73.031,0,0,1-3.242-18.729Z" transform="translate(225.902 61.524)" fill="#f8b58e"/>
          <path id="Path_27735" data-name="Path 27735" d="M367.028,99.909a17.666,17.666,0,0,0-7.564-12.692c-4.151-2.624-9.33-2.916-14.236-2.744s-9.914.669-14.647-.583l1.269,2.624a21.113,21.113,0,0,0-16.139,14.459,39.435,39.435,0,0,1-1.458,4.905,5.832,5.832,0,0,1-3.533,3.43,3.979,3.979,0,0,0,3.07,0,12.2,12.2,0,0,0,3.859,12.418,12.3,12.3,0,0,1,2.436,2.178,2.5,2.5,0,0,1,.1,3.036c.5-.1.943.326,1.441.223-.96-6.552-1.715-10.291-2.007-15.608a37.733,37.733,0,0,0,12.418-9.159,5.437,5.437,0,0,1-2.436,5.265,24.75,24.75,0,0,0,16.414-6.655c-1.527,1.715-1.081,4.511.086,6.518s2.95,3.619,4.116,5.643,1.561,4.785,0,6.518a3.619,3.619,0,0,0,3.207-1.938,4.048,4.048,0,0,0,3.859,5.729,8.25,8.25,0,0,1,6.295-10.908l1.321,2.281a32.038,32.038,0,0,0,2.127-14.939Z" transform="translate(222.208 59.993)" fill="#0c0b0b"/>
          <path id="Path_27736" data-name="Path 27736" d="M321.187,113.427c.635-3.43,1.527-6.758,2.281-10.119.189-.789,1.424-.583,1.252.206l-1.852,8.2c-.24,1.029-1.063,2.847.137,3.43a5.437,5.437,0,0,0,3.79,0c.772-.223,1.235.96.446,1.183C324.875,117.046,320.536,116.858,321.187,113.427Z" transform="translate(229.647 73.523)" fill="#f8b58e" opacity="0.64"/>
          <path id="Path_27737" data-name="Path 27737" d="M324.774,115.164a10.291,10.291,0,0,0,7.512-4.957.652.652,0,0,1,.892-.1.635.635,0,0,1,.1.892,11.491,11.491,0,0,1-8.37,5.42.635.635,0,0,1-.137-1.252Z" transform="translate(231.909 78.647)" fill="#f8b58e" opacity="0.64"/>
          <path id="Path_27738" data-name="Path 27738" d="M330.493,104.884c0,1.269-.686,2.333-1.561,2.367s-1.6-.995-1.612-2.264.686-2.35,1.561-2.367S330.476,103.6,330.493,104.884Z" transform="translate(234.08 73.388)" fill="#47333c"/>
          <path id="Path_27739" data-name="Path 27739" d="M322.176,105.434c0,1.269-.686,2.333-1.561,2.35s-1.6-.978-1.6-2.264.686-2.333,1.561-2.35S322.176,104.148,322.176,105.434Z" transform="translate(228.144 73.781)" fill="#47333c"/>
          <path id="Path_27740" data-name="Path 27740" d="M333.969,103.2h0a.343.343,0,0,1,.189,0,7.221,7.221,0,0,0-5.591-4.185,1.955,1.955,0,0,0-1.132.1.892.892,0,0,0-.583.892c0,.429.463.7.858.858a11.114,11.114,0,0,0,2.59.583,7.633,7.633,0,0,1,2.521.738A3.156,3.156,0,0,1,333.969,103.2Z" transform="translate(233.743 70.782)" fill="#47333c"/>
          <path id="Path_27741" data-name="Path 27741" d="M322.605,99.339a1.715,1.715,0,0,0-.943-.12,4.562,4.562,0,0,0-3.842,4.065,2.519,2.519,0,0,1,.515-.789h0a2.073,2.073,0,0,1,.412-.36,4.8,4.8,0,0,1,1.921-.635,6.859,6.859,0,0,0,1.99-.48.84.84,0,0,0,.549-.789,1.132,1.132,0,0,0-.6-.892Z" transform="translate(227.286 70.941)" fill="#47333c"/>
          <path id="Path_27742" data-name="Path 27742" d="M363.306,240.7H271.7a4.254,4.254,0,0,1-4.168-3.43l-11.423-54.4a4.254,4.254,0,0,1,4.168-5.145h91.588a4.236,4.236,0,0,1,4.168,3.43l11.44,54.421a4.271,4.271,0,0,1-4.168,5.128Z" transform="translate(183.086 127.095)" fill="#d4edfe"/>
          <path id="Path_27743" data-name="Path 27743" d="M282.713,200.055a8.233,8.233,0,1,0,8.2-7.512A7.873,7.873,0,0,0,282.713,200.055Z" transform="translate(202.157 137.69)" fill="#0091ff"/>
          <rect id="Rectangle_2088" data-name="Rectangle 2088" width="86.632" height="5.471" transform="translate(460.91 367.795)" fill="#0091ff"/>
          <rect id="Rectangle_2089" data-name="Rectangle 2089" width="45.142" height="5.471" transform="translate(547.541 367.795)" fill="#fff"/>
          <path id="Path_27744" data-name="Path 27744" d="M342.09,217.63h6.26l43.7,208.7h-6.277Z" transform="translate(244.642 155.636)" fill="#515d63"/>
          <path id="Path_27745" data-name="Path 27745" d="M283.029,217.63h6.26l-34.612,208.7H248.4Z" transform="translate(177.641 155.636)" fill="#515d63"/>
          <path id="Path_27746" data-name="Path 27746" d="M260.792,222.969H422.7a3.1,3.1,0,0,0,3.1-3.1h0a3.1,3.1,0,0,0-3.1-3.1H260.792a3.122,3.122,0,0,0-3.122,3.1h0A3.122,3.122,0,0,0,260.792,222.969Z" transform="translate(184.27 155.014)" fill="#515d63"/>
          <path id="Path_27747" data-name="Path 27747" d="M121.254,201.4a16.071,16.071,0,0,1-1.612-10.068c.36-3.43,1.2-6.861,1.252-10.291.206-15.162-14.579-27.339-14.785-42.5-.1-7.084,3.053-13.875,3.156-20.959a15.985,15.985,0,0,0-.909-4.8C101.5,90.723,74.482,82.473,55.993,96.349h0a28.729,28.729,0,0,0-11.354,26.293,91.039,91.039,0,0,1,.686,15.128c-.463,10.394-3.43,21.01-10.291,28.9-2.264,2.624-4.922,4.922-6.946,7.718a12.452,12.452,0,0,0-2.658,9.742c1.029,4.545,5.523,7.512,7.152,11.869a12.521,12.521,0,0,1-2.3,11.886c-.257.326-.532.652-.823.96a7.341,7.341,0,0,0,4.8,12.16,50.561,50.561,0,0,0,10.068-.172c2.881-.309,5.763-.737,8.576-.806,7.015-.137,13.875,1.852,20.8,2.8a39.811,39.811,0,0,0,11.148.12,7.512,7.512,0,0,0,6.192-7.529h0A33.325,33.325,0,0,0,119.8,213.7a7.341,7.341,0,0,0,2.092-11.2,7.9,7.9,0,0,1-.635-1.1Z" transform="translate(18.084 64.034)" fill="#263238"/>
          <path id="Path_27748" data-name="Path 27748" d="M45,328.85c-4.905,1.424-7.152,1.183-12.109,2.418-.463,1.2-3.962,11.028,2.813,11.148l31.867.549c1.115,0,2.47-.274,2.9-1.321C72.851,335.968,52.08,330.6,45,328.85Z" transform="translate(22.58 235.174)" fill="#47333c"/>
          <path id="Path_27749" data-name="Path 27749" d="M75.967,328.909c-5.283-.669-7.152,1.183-12.109,2.418-.463,1.2-3.962,11.028,2.813,11.148l31.85.549c1.132,0,2.487-.274,2.916-1.321C103.821,336.027,83.033,330.658,75.967,328.909Z" transform="translate(44.728 235.115)" fill="#47333c"/>
          <path id="Path_27750" data-name="Path 27750" d="M171.557,155.044l-11.286,1.8.515,1.955c10.84-.5,6.415,2.4,6.415,2.4l-12.366.206c-9.382,5.145-15.642,2.659-15.642,2.659l-34.251,33.411a12.864,12.864,0,0,1-19.175-3.207l-6.483-10.582-1.372-2.264L59.49,151.237a16.105,16.105,0,0,1,.72-17.906,9.742,9.742,0,0,1,5.711-3.79h0c4.185,0,8.318,1.3,10.291,3.962l.36.583L94.8,164.632h0l1.955,3.43L101,175.2c8.13-4.3,34.56-19.141,34.56-19.141l.738-5.145a12.178,12.178,0,0,1,3.156-6.449,20.581,20.581,0,0,0,5.06-9.193c4.168,2.11-.892,9.5-.892,9.5l1.921,3.293,7.2-2.178c15.917-12.195,14.63-5.763,14.63-5.763l-10.977,7.6,1.115,2.075c14.75-9.673,13.121-4.013,13.121-4.013l-12.006,6.569.755,2.315C175.416,150.465,171.557,155.044,171.557,155.044Z" transform="translate(40.846 92.639)" fill="#f8b58e"/>
          <path id="Path_27751" data-name="Path 27751" d="M98.228,168.062c-4.665,4.477-9.313,9.022-14.253,13.207-1.012.875-2.092,1.715-3.19,2.487l-1.372-2.264L60.958,151.237c-3.43-5.557-8.336-12.126-4.494-17.409C58.54,131,63,129.54,67.39,129.54h0c4.185,0,8.318,1.3,10.291,3.962l.36.583,18.232,30.547h0Z" transform="translate(39.377 92.639)" fill="#473db1"/>
          <path id="Path_27752" data-name="Path 27752" d="M98.228,168.062c-4.665,4.477-9.313,9.022-14.253,13.207-1.012.875-2.092,1.715-3.19,2.487l-1.372-2.264L60.958,151.237c-3.43-5.557-8.336-12.126-4.494-17.409C58.54,131,63,129.54,67.39,129.54h0c4.185,0,8.318,1.3,10.291,3.962l.36.583,18.232,30.547h0Z" transform="translate(39.377 92.639)" fill="#67c6b4"/>
          <path id="Path_27753" data-name="Path 27753" d="M32.34,434.782s12.006-1.938,12.109-2.418l21.062-68.606a259.82,259.82,0,0,0,7.975-36.018c.1-.635.206-1.252.292-1.887s.257-1.715.326-2.59l2.727-21.045c1.081-8.216,4.7-50.545,5.917-58.744-2.247,15.179,9.485,95.482,9.485,95.482s-13.6,30.049-6.861,95.928l12.109-2.418,12.143-71.024a253.263,253.263,0,0,0,3.585-33.7c0-1.715.12-3.43.137-5.146v-2.607l.206-17.357.532-33.582c.6-10.016.943-20.067.943-30.135,0-3.1,0-6.157-.1-9.227v-3.825l-1.715-31.73-.309-6.209h-.257L85.3,185.229l-11.08-1.1a4.906,4.906,0,0,0-2.624.446,4.922,4.922,0,0,0-3.962,1.252,21.778,21.778,0,0,0-1.99,1.99,31.558,31.558,0,0,0-5.54,8.233l-3.533,7.529a98.055,98.055,0,0,0-9.468,43.5c.24,15.934,4.425,91.657,3.773,92.154C35.65,351.169,32.889,412.039,32.34,434.782Z" transform="translate(23.128 131.66)" fill="#263238"/>
          <path id="Path_27754" data-name="Path 27754" d="M105.152,224.783v.789q-2.333.7-4.734,1.286a118.344,118.344,0,0,1-34.543,3.1c-4.631-.24-9.245-.7-13.824-1.355.755-1.269,1.526-2.538,2.333-3.773s1.715-2.453,2.521-3.653c1.132-1.544,2.333-3.087,3.567-4.6a4.974,4.974,0,0,0,.806-1.3,4.322,4.322,0,0,0,.429-1.852,64.043,64.043,0,0,0-3.242-18.438c-.737-2.247-1.509-4.459-2.333-6.672-3.43-9.125-7.5-18.06-9.742-27.442-.309-1.338-.858-3.293-1.406-5.523-1.715-6.861-3.43-16.345.858-19.656a6.981,6.981,0,0,1,.943-.635,14.648,14.648,0,0,1,1.715-.875l.5-.206c.772-.309,1.887-.652,2.744-.909h.326a2.4,2.4,0,0,1,.5-.154,3.018,3.018,0,0,1,.429-.12l1.715-.48,1.372-.377.772-.24a6.467,6.467,0,0,0,.995-.429h0l.172-.12h.223a.789.789,0,0,1,.292-.12h.172l.309-.086h.5l1.441-.189h.412c.6,0,6.174-.909,6.775-.926a9.262,9.262,0,0,1,5.3.377l.412.172.206.12a9.144,9.144,0,0,1,1.029.652l.549.429h0c3.43,2.607,6.963,5.283,10.411,7.975,1.715,1.269,3.31,2.573,4.957,3.876s2.813,2.213,4.219,3.345c.1,0,.1,0,.172.12,5.729,4.545,12.16,8.336,12.521,16.345.154,4.785-2.3,8.456-5.952,11.714a22.657,22.657,0,0,0,.154,3.019v.738c0,1.475.137,2.984.223,4.494.412,9.159,1.012,18.283,1.715,27.442,0,.909.12,1.818.189,2.744l.394,4.356c0,1.218.154,2.4.223,3.585a13.749,13.749,0,0,0,.1,1.6v1.2Z" transform="translate(30.859 92.689)" fill="#473db1"/>
          <path id="Path_27755" data-name="Path 27755" d="M105.152,224.783v.789q-2.333.7-4.734,1.286a118.344,118.344,0,0,1-34.543,3.1c-4.631-.24-9.245-.7-13.824-1.355.755-1.269,1.526-2.538,2.333-3.773s1.715-2.453,2.521-3.653c1.132-1.544,2.333-3.087,3.567-4.6a4.974,4.974,0,0,0,.806-1.3,4.322,4.322,0,0,0,.429-1.852,64.043,64.043,0,0,0-3.242-18.438c-.737-2.247-1.509-4.459-2.333-6.672-3.43-9.125-7.5-18.06-9.742-27.442-.309-1.338-.858-3.293-1.406-5.523-1.715-6.861-3.43-16.345.858-19.656a6.981,6.981,0,0,1,.943-.635,14.648,14.648,0,0,1,1.715-.875l.5-.206a16.859,16.859,0,0,1,2.315-.806l.429-.1h.326a2.4,2.4,0,0,1,.5-.154,2.328,2.328,0,0,1,.429-.12l1.715-.48,1.372-.377.772-.24a6.467,6.467,0,0,0,.995-.429h0l.172-.12h.223l.292-.12h.172l.309-.086h.5l1.441-.189h.412c.6,0,6.174-.909,6.775-.926a9.262,9.262,0,0,1,5.3.377l.412.172.206.12a9.144,9.144,0,0,1,1.029.652l.549.429h0c3.43,2.607,6.963,5.283,10.411,7.975,1.715,1.269,3.31,2.573,4.957,3.876s2.813,2.213,4.219,3.345c.1,0,.1,0,.172.12,5.729,4.545,12.16,8.336,12.521,16.345.154,4.785-2.3,8.456-5.952,11.714a22.657,22.657,0,0,0,.154,3.019v.738c0,1.475.137,2.984.223,4.494.412,9.159,1.012,18.283,1.715,27.442,0,.909.12,1.818.189,2.744l.394,4.356c0,1.218.154,2.4.223,3.585a13.749,13.749,0,0,0,.1,1.6v1.2Z" transform="translate(30.859 92.689)" fill="#67c6b4"/>
          <path id="Path_27756" data-name="Path 27756" d="M82.075,156.708c-12.641-2.59-33.445-23.84-33.154-23.909l1.715-.48a13.346,13.346,0,0,0,3.139-1.046h0c.429-.274.394-.377,3.1-.7h.412c.6,0,6.174-.909,6.775-.926a9.262,9.262,0,0,1,5.3.377,3.429,3.429,0,0,1,.617.292,9.137,9.137,0,0,1,1.029.652l.549.429h0C73.791,143.021,82.075,156.708,82.075,156.708Z" transform="translate(34.983 92.553)" fill="#f8b58e"/>
          <path id="Path_27757" data-name="Path 27757" d="M69.076,139.674a.257.257,0,0,0,0,.1v1.1a9.4,9.4,0,0,1-4.339,7.924,8.1,8.1,0,0,1-6.775.858,10.445,10.445,0,0,1-7.2-9.759l-.1-3.43L49.42,117.5l18.146-.5.257,3.533.806,11.594Z" transform="translate(35.342 83.671)" fill="#f8b58e"/>
          <path id="Path_27758" data-name="Path 27758" d="M68.038,139.388a.258.258,0,0,0,0,.1C49.669,139.165,50.887,117.4,50.887,117.4l15.779,2.83.806,11.594Z" transform="translate(36.379 83.957)" fill="#f8b58e" opacity="0.64"/>
          <rect id="Rectangle_2090" data-name="Rectangle 2090" width="154.088" height="70.338" rx="4.45" transform="matrix(0.92, -0.392, 0.392, 0.92, 54.321, 264.927)" fill="#ffc727"/>
          <path id="Path_27759" data-name="Path 27759" d="M82.51,146.424,44.143,162.746a2.822,2.822,0,0,1-3.7-1.491h0a2.822,2.822,0,0,1,1.491-3.7L80.3,141.23a2.822,2.822,0,0,1,3.7,1.491h0a2.822,2.822,0,0,1-1.491,3.7Z" transform="translate(29.507 121.802)" fill="rgba(255,255,255,0.29)" opacity="0.93"/>
          <path id="Path_27760" data-name="Path 27760" d="M115.05,141.361,46.8,170.3a1,1,0,0,1-1.271-.52h0a1,1,0,0,1,.51-1.271L114.25,139.58a1,1,0,0,1,1.271.51h0A1,1,0,0,1,115.05,141.361Z" transform="translate(30.333 125.081)" fill="rgba(255,255,255,0.29)" opacity="0.93"/>
          <path id="Path_27761" data-name="Path 27761" d="M111.786,149,49.051,175.6a1,1,0,0,1-1.271-.51h0a1,1,0,0,1,.52-1.271l62.745-26.609a1,1,0,0,1,1.271.51h0A1,1,0,0,1,111.786,149Z" transform="translate(30.742 126.649)" fill="rgba(255,255,255,0.29)" opacity="0.93"/>
          <path id="Path_27762" data-name="Path 27762" d="M108.292,156.351,51.361,180.489a1,1,0,0,1-1.271-.51h0a1,1,0,0,1,.51-1.271l56.941-24.137a1,1,0,0,1,1.271.51h0A1,1,0,0,1,108.292,156.351Z" transform="translate(31.411 129.092)" fill="rgba(255,255,255,0.29)" opacity="0.93"/>
          <path id="Path_27763" data-name="Path 27763" d="M69.01,196.556l40.735,7.341h0a21.045,21.045,0,0,1,12.572-7.615l7.89-1.475a1.235,1.235,0,0,1,1.406,1.715c-.789,1.852-3.19,4.511-10.291,5.626L141.9,197.4l-3.533,9.348a8.37,8.37,0,0,1-4.528,3.43l-1.081.326-2.11,2.916a8.3,8.3,0,0,1-6.106,3.43l-3.636.274a16.62,16.62,0,0,1-10.394-2.659h0l-42.535-.823s-13.172,1.424-14.064-7.941L39.7,148.412a12.486,12.486,0,0,1,5.334-13.858h0a12.5,12.5,0,0,1,19.038,8.49Z" transform="translate(28.067 94.83)" fill="#f8b58e"/>
          <path id="Path_27764" data-name="Path 27764" d="M60.687,182.611a59.393,59.393,0,0,0,6.723-2.435L64.1,143.918c-.206-6.638-8.267-12.538-8.267-12.538a66.973,66.973,0,0,0-10.771,4.048h0a12.486,12.486,0,0,0-5.334,13.858l4.219,35.864a69.945,69.945,0,0,0,16.74-2.538Z" transform="translate(28.088 93.955)" fill="#473db1"/>
          <path id="Path_27765" data-name="Path 27765" d="M60.687,182.611a59.393,59.393,0,0,0,6.723-2.435L64.1,143.918c-.206-6.638-8.267-12.538-8.267-12.538a66.973,66.973,0,0,0-10.771,4.048h0a12.486,12.486,0,0,0-5.334,13.858l4.219,35.864a69.945,69.945,0,0,0,16.74-2.538Z" transform="translate(28.088 93.955)" fill="#67c6b4"/>
          <path id="Path_27766" data-name="Path 27766" d="M86.8,123.7c-.377-2.8-.738-5.574-.892-8.387-.24-4.031-2.624-8.078-4.991-11.474a22.3,22.3,0,0,0-5.471-5.591,22.623,22.623,0,0,0-20.582-2.007c-8.987,3.739-9.9,12.726-7.358,20.908-5.746-2.83-6,4.511-6,4.511-.24,7.324,6.861,7.289,6.861,7.289a26.876,26.876,0,0,0,6.861,11.268,36.018,36.018,0,0,0,11.7,7.547A14.493,14.493,0,0,0,84.175,141.8a23.189,23.189,0,0,0,2.984-15.539C86.954,125.4,86.954,124.561,86.8,123.7Z" transform="translate(29.676 67.689)" fill="#f8b58e"/>
          <path id="Path_27767" data-name="Path 27767" d="M65.25,118.941a9.244,9.244,0,0,0-1.115-1.475,10.292,10.292,0,0,1-1.149-1.715,11.7,11.7,0,0,1-1.286-3.893.72.72,0,0,0-.84-.532.669.669,0,0,0-.48.823,12.675,12.675,0,0,0,2.8,6.243c.566.7,1.372,1.441.669,2.281s-2.024.7-3.053.635-.892,1.3,0,1.372a5.145,5.145,0,0,0,3.773-.755,2.47,2.47,0,0,0,.686-2.984Z" transform="translate(42.958 79.604)" fill="#f8b58e" opacity="0.64"/>
          <path id="Path_27768" data-name="Path 27768" d="M55.023,113.4c.24,1.252,1.132,2.178,1.972,2.075s1.355-1.218,1.115-2.47-1.132-2.2-1.99-2.075S54.8,112.152,55.023,113.4Z" transform="translate(39.309 79.326)" fill="#47333c"/>
          <path id="Path_27769" data-name="Path 27769" d="M62.928,112.924c.24,1.252,1.132,2.178,1.972,2.075s1.355-1.218,1.115-2.47-1.132-2.2-1.99-2.075S62.671,111.672,62.928,112.924Z" transform="translate(44.954 78.983)" fill="#47333c"/>
          <path id="Path_27770" data-name="Path 27770" d="M63.112,106.692a1.715,1.715,0,0,1,.892-.137,4.356,4.356,0,0,1,3.756,3.859,1.938,1.938,0,0,0-.5-.755h0a1.834,1.834,0,0,0-.394-.343,4.3,4.3,0,0,0-1.852-.549,6.415,6.415,0,0,1-1.9-.429.789.789,0,0,1-.532-.738,1.149,1.149,0,0,1,.532-.909Z" transform="translate(44.753 76.194)" fill="#47333c"/>
          <path id="Path_27771" data-name="Path 27771" d="M58.031,106.807a1.715,1.715,0,0,0-.875-.257,3.876,3.876,0,0,0-3.876,3.43,1.938,1.938,0,0,1,.532-.686h0a1.389,1.389,0,0,1,.412-.292,3.911,3.911,0,0,1,1.852-.309,6.311,6.311,0,0,0,1.9-.189.686.686,0,0,0,.566-.669,1.269,1.269,0,0,0-.515-1.029Z" transform="translate(38.103 76.198)" fill="#47333c"/>
          <path id="Path_27772" data-name="Path 27772" d="M55.9,118.081a9.656,9.656,0,0,0,8.576,2.727.69.69,0,1,1,.257,1.355,11.046,11.046,0,0,1-9.793-3.242C54.238,118.356,55.216,117.5,55.9,118.081Z" transform="translate(39.117 84.305)" fill="#f8b58e" opacity="0.64"/>
          <path id="Path_27773" data-name="Path 27773" d="M73.663,97.909s9.656,14.819-18.215,19.467c0,0-7.65,5.145,1.835,20.582,0,0-15.333-4.391-15.333-24.99l4.6-12.006L63.7,92.18l20.17,7.907s5.334,23,5.145,22.811C78.808,111.064,71.725,102.814,73.663,97.909Z" transform="translate(30 65.922)" fill="#263238"/>
          <path id="Path_27774" data-name="Path 27774" d="M44.15,113.862a9.759,9.759,0,0,1-.154-4.82,7.427,7.427,0,0,1,.669-1.612c-3.036.395-3.224,5.145-3.224,5.145a6.38,6.38,0,0,0,5.265,7.066,14.493,14.493,0,0,1-2.556-5.78Z" transform="translate(29.601 76.827)" fill="#f8b58e"/>
          <path id="Path_27777" data-name="Path 27777" d="M48.008,105.51A3,3,0,0,1,46.4,107.5a18.868,18.868,0,0,0-2.281,1.338,5.334,5.334,0,0,0-1.166,5.814,14.562,14.562,0,0,0,3.7,5.043c.463.463,1.149.96,1.715.617a1.544,1.544,0,0,0,.48-1.286l.429-8.576" transform="translate(30.425 75.454)" fill="#263238"/>
          <circle id="Ellipse_193" data-name="Ellipse 193" cx="19.896" cy="19.896" r="19.896" transform="translate(411.376 21.01)" fill="#d4edfe"/>
          <path id="Path_27778" data-name="Path 27778" d="M258.247,20.683H246.221a1.311,1.311,0,0,1-1.311-1.311h0a1.311,1.311,0,0,1,1.311-1.311h12.026a1.311,1.311,0,0,1,1.334,1.311h0a1.311,1.311,0,0,1-1.334,1.311Z" transform="translate(179.035 16.354)" fill="#0091ff"/>
          <path id="Path_27779" data-name="Path 27779" d="M258.247,25.284H246.221a1.311,1.311,0,0,1-1.311-1.311h0a1.311,1.311,0,0,1,1.311-1.322h12.026a1.311,1.311,0,0,1,1.334,1.345h0a1.311,1.311,0,0,1-1.334,1.289Z" transform="translate(179.035 16.908)" fill="#0091ff"/>
          <path id="Path_27780" data-name="Path 27780" d="M258.247,29.913H246.221A1.311,1.311,0,0,1,244.91,28.6h0a1.311,1.311,0,0,1,1.311-1.311h12.026a1.311,1.311,0,0,1,1.334,1.311h0a1.311,1.311,0,0,1-1.334,1.311Z" transform="translate(179.035 17.468)" fill="#0091ff"/>
          <ellipse id="Ellipse_194" data-name="Ellipse 194" cx="18.549" cy="18.549" rx="18.549" ry="18.549" transform="translate(314.771 523.735)" fill="#0a212c"/>
          <path id="Path_27781" data-name="Path 27781" d="M171.84,243.428a7.838,7.838,0,1,1,7.838,7.838,7.838,7.838,0,0,1-7.838-7.838Z" transform="translate(153.643 298.857)" fill="#4e8ef7"/>
        </g>
      </g>
    </g>
    <circle id="Ellipse_195" data-name="Ellipse 195" cx="26.381" cy="26.381" r="26.381" transform="translate(1268.466 508.017) rotate(-146)" fill="#fafafa"/>
    <g id="Group_1222" data-name="Group 1222" transform="matrix(0.454, -0.891, 0.891, 0.454, 1237.013, 479.261)">
      <path id="Path_24855" data-name="Path 24855" d="M22.853,17.96A10.838,10.838,0,0,0,19.1,3.112L16.439,1.521A10.853,10.853,0,0,0,1.591,5.277L0,7.934,21.245,20.666Z" transform="translate(1.135 12.342) rotate(8)" fill="#ffc727"/>
      <path id="Path_24856" data-name="Path 24856" d="M9.357.877A6.175,6.175,0,1,1,4.67.189,6.191,6.191,0,0,1,9.357.877Z" transform="translate(18.251 3.763) rotate(8)" fill="#ffc727"/>
    </g>
  </g>
</svg>
