<svg xmlns="http://www.w3.org/2000/svg" viewBox="0 0 28 28"><defs><style>.cls-1{fill:none;}.cls-2{fill:#0091ff;}</style></defs><g id="Layer_2" data-name="Layer 2"><g id="Layer_1-2" data-name="Layer 1"><rect class="cls-1" width="28" height="28"/><path class="cls-2" d="M26.6,13.77c-1.27,0-2.54,0-3.81,0-.7,0-1,.28-1,1v9.41H19.06v-4c0-.65-.29-.94-.94-.94-1.3,0-2.59,0-3.89,0-.69,0-1,.29-1,1v4H10.59v-7.5c0-.67-.29-1-1-1H5.78c-.71,0-1,.28-1,1v7.47H2.49V14.78a1.84,1.84,0,0,0,0-.41.79.79,0,0,0-.66-.59A.83.83,0,0,0,1,14.2l-.1.21V25.16a1,1,0,0,0,1,.64q12.33,0,24.68,0a.93.93,0,0,0,1-.64V14.41A.93.93,0,0,0,26.6,13.77ZM9,24.17H6.41V17.33H9Zm8.48,0H14.88V20.82h2.56Zm8.55,0H23.43V15.4H26Zm.64-18.85A25.29,25.29,0,0,0,20,1.64,16.25,16.25,0,0,0,9.24,1.38a23.26,23.26,0,0,0-5.9,2.89c-.5.33-1,.71-1.48,1.06a2.2,2.2,0,0,0-1,1.35v.47a2.12,2.12,0,0,0,1,1.36c.95.64,1.88,1.32,2.86,1.91a20.73,20.73,0,0,0,5.6,2.35A16,16,0,0,0,19,12.55a24.38,24.38,0,0,0,7.68-4,2.27,2.27,0,0,0,1-1.36V6.68A2.33,2.33,0,0,0,26.63,5.32Zm-18.55,5A24.14,24.14,0,0,1,2.62,7.08c-.13-.11-.17-.18,0-.3A23,23,0,0,1,9,3.16a.49.49,0,0,1,.14,0,6.45,6.45,0,0,0,0,7.61C8.77,10.6,8.42,10.48,8.08,10.34Zm6.17,1.33A4.75,4.75,0,1,1,19,6.91,4.77,4.77,0,0,1,14.25,11.67ZM25.86,7.09a23,23,0,0,1-6.32,3.58l-.23.08a6.33,6.33,0,0,0,1.28-3.81,6.67,6.67,0,0,0-1.2-3.82c.35.13.71.26,1.07.41a23.75,23.75,0,0,1,5.39,3.22C26,6.88,26,7,25.86,7.09ZM14.22,3.6a3.33,3.33,0,1,0,3.36,3.31A3.34,3.34,0,0,0,14.22,3.6Z"/></g></g></svg>