<svg xmlns="http://www.w3.org/2000/svg" viewBox="0 0 32 32"><defs><style>.cls-1{fill:none;}.cls-2{fill:#b4b7c9;}.cls-3{fill:#0091ff;}</style></defs><g id="Layer_2" data-name="Layer 2"><g id="Layer_1-2" data-name="Layer 1"><rect class="cls-1" width="32" height="32"/><path class="cls-2" d="M30.86,14.57l-2.94-2.21a.31.31,0,0,1-.14-.41c.37-1.18.73-2.36,1.08-3.55a1.71,1.71,0,0,0-1.68-2.29c-1.2,0-2.41-.05-3.62-.05a.38.38,0,0,1-.43-.31c-.38-1.14-.78-2.28-1.17-3.42a1.71,1.71,0,0,0-2.74-.88l-3,2.09a.32.32,0,0,1-.45,0c-1-.7-2-1.39-3-2.08a1.72,1.72,0,0,0-2.77.9L8.86,5.81a.29.29,0,0,1-.32.24l-3.66.06A1.71,1.71,0,0,0,3.16,8.44c.34,1.13.68,2.27,1,3.4a.46.46,0,0,1-.2.6c-1,.69-1.89,1.41-2.82,2.12a1.7,1.7,0,0,0,0,2.87c1,.74,1.94,1.48,2.91,2.2a.33.33,0,0,1,.15.43c-.38,1.18-.73,2.36-1.09,3.55a1.72,1.72,0,0,0,1.67,2.28c1.21,0,2.41.05,3.62.05a.42.42,0,0,1,.46.32c.36,1.12.75,2.23,1.14,3.34a1.72,1.72,0,0,0,2.82.91c1-.68,2-1.37,2.94-2.06a.32.32,0,0,1,.43,0c1,.71,2,1.4,3,2.1a1.71,1.71,0,0,0,2.75-.9c.4-1.14.79-2.27,1.18-3.42a.35.35,0,0,1,.38-.29c1.22,0,2.43,0,3.65-.05a1.71,1.71,0,0,0,1.68-2.31c-.33-1.14-.67-2.27-1-3.4a.48.48,0,0,1,.22-.63c1-.69,1.89-1.42,2.84-2.13a1.72,1.72,0,0,0,0-2.85Zm-1,1.76-3.31,2.5a.82.82,0,0,0-.35,1.09l1.23,4c.11.38.05.47-.36.47l-4.18.07c-.57,0-.75.15-.94.7-.45,1.31-.9,2.62-1.36,3.94-.14.4-.24.43-.59.18l-3.39-2.37a.81.81,0,0,0-1.19,0L12,29.31c-.34.24-.44.21-.58-.18-.45-1.32-.91-2.65-1.37-4a.8.8,0,0,0-.92-.67l-4.2-.08c-.39,0-.46-.09-.35-.46.4-1.33.81-2.66,1.21-4,0-.14.07-.29.09-.35a.84.84,0,0,0-.41-.77l-3.31-2.5c-.41-.31-.4-.37,0-.69l3.25-2.46a.84.84,0,0,0,.37-1.14c-.41-1.33-.81-2.66-1.22-4-.11-.38,0-.47.36-.47l4.18-.07c.57,0,.75-.15.94-.7.45-1.31.9-2.62,1.36-3.93.14-.41.24-.44.59-.19l3.37,2.35c.54.38.72.38,1.27,0L20,2.69c.34-.24.44-.2.58.18.45,1.32.91,2.65,1.37,4a.8.8,0,0,0,.92.67l4.2.08c.39,0,.46.09.35.46-.4,1.33-.81,2.66-1.21,4a.84.84,0,0,0,.37,1.16c1.1.82,2.19,1.65,3.28,2.48C30.24,16,30.24,16.05,29.86,16.33ZM16,7.34A8.66,8.66,0,1,0,24.67,16,8.66,8.66,0,0,0,16,7.34Zm0,15.85A7.19,7.19,0,1,1,23.19,16,7.19,7.19,0,0,1,16,23.19Z"/><path class="cls-3" d="M14.87,17.11c.63-.63,1.24-1.25,1.86-1.86l1.89-1.89a.89.89,0,0,1,1-.18.8.8,0,0,1,.45.89,1.29,1.29,0,0,1-.28.53q-2.13,2.15-4.27,4.27a.88.88,0,0,1-1.33,0c-.69-.69-1.38-1.37-2.06-2.06a.86.86,0,0,1,0-1.26.84.84,0,0,1,1.23,0C13.87,16.09,14.36,16.6,14.87,17.11Z"/></g></g></svg>