<svg xmlns="http://www.w3.org/2000/svg" viewBox="0 0 32 32"><defs><style>.cls-1,.cls-3{fill:none;}.cls-2{fill:#b4b7c9;}.cls-3{stroke:#b4b7c9;stroke-width:0.7px;}.cls-3,.cls-4{stroke-miterlimit:10;}.cls-4,.cls-5{fill:#0091ff;}.cls-4{stroke:#0091ff;stroke-width:0.37px;}</style></defs><g id="Layer_2" data-name="Layer 2"><g id="Layer_1-2" data-name="Layer 1"><rect class="cls-1" width="32" height="32"/><path class="cls-2" d="M26.84,14.06a4.25,4.25,0,0,1,3.29,3.57,7.3,7.3,0,0,1,.05.94c0,.25,0,.48.3.57s.45-.06.59-.27V17.7a.39.39,0,0,1-.05-.14A5,5,0,0,0,28.85,14a12.27,12.27,0,0,0-1.08-.63,3.21,3.21,0,0,0,1.36-2.33,3.14,3.14,0,0,0-.88-2.56,3.22,3.22,0,0,0-4.42-.23,3,3,0,0,0-1.11,2,3.25,3.25,0,0,0,1.37,3.11,5.16,5.16,0,0,0-2.37,1.83,21.47,21.47,0,0,0-1.59-1.45,18.32,18.32,0,0,0-1.81-1A4.92,4.92,0,1,0,12.48,5a5,5,0,0,0,1.28,7.84,7.07,7.07,0,0,0-3.33,2.37c-.39-.33-.76-.69-1.17-1s-.86-.54-1.3-.81A3.24,3.24,0,1,0,4,8.25a3.12,3.12,0,0,0-1.12,2.13,3.24,3.24,0,0,0,1.37,3l-.13.07A5.2,5.2,0,0,0,.94,18.66c0,.32.18.51.45.51s.42-.2.43-.52v-.53A4.26,4.26,0,0,1,9.65,15.9a.44.44,0,0,1,0,.5A6.25,6.25,0,0,0,9,19.14c0,1,0,2,0,3v.36H1.82v-.4c0-.47,0-.95,0-1.42a.41.41,0,0,0-.44-.44.44.44,0,0,0-.43.44,1.76,1.76,0,0,0,0,.23v3.8c0,.59.11.7.71.7H9c0,.14,0,.24,0,.35v2.2c0,.41.15.55.55.56s.53,0,.8,0a.44.44,0,1,0,0-.87l-.45,0V26.52H22.13v1.09H12.55a1.84,1.84,0,0,0-.41,0,.38.38,0,0,0-.32.4.39.39,0,0,0,.33.43,1.1,1.1,0,0,0,.26,0c3.34,0,6.69,0,10,0,.45,0,.59-.14.59-.6,0-.73,0-1.45,0-2.18,0-.1,0-.21,0-.33h7.36a.62.62,0,0,0,.66-.33V20.52c-.13-.22-.3-.37-.57-.29s-.32.32-.32.57c0,.55,0,1.11,0,1.68H23v-.36c0-1,0-2,0-3a6.45,6.45,0,0,0-.7-2.76.42.42,0,0,1,0-.48A4.28,4.28,0,0,1,26.84,14.06Zm-3.27-3.33a2.35,2.35,0,1,1,2.34,2.34A2.35,2.35,0,0,1,23.57,10.73ZM6.09,13.07a2.35,2.35,0,1,1,2.34-2.34A2.35,2.35,0,0,1,6.09,13.07ZM9,24.47H1.84V23.4H9ZM12,8.38a4,4,0,1,1,4,4A4,4,0,0,1,12,8.38ZM22.13,25.59H9.89a1.13,1.13,0,0,1,0-.18c0-2.1,0-4.2,0-6.3a5.72,5.72,0,0,1,2.77-4.79,6.14,6.14,0,0,1,9.49,5.18v5.91A1.62,1.62,0,0,1,22.13,25.59Zm.93-2.18h7.11v1.06H23.06Z"/><path class="cls-3" d="M26.84,14.06a4.25,4.25,0,0,1,3.29,3.57,7.3,7.3,0,0,1,.05.94c0,.25,0,.48.3.57s.45-.06.59-.27V17.7a.39.39,0,0,1-.05-.14A5,5,0,0,0,28.85,14a12.27,12.27,0,0,0-1.08-.63,3.21,3.21,0,0,0,1.36-2.33,3.14,3.14,0,0,0-.88-2.56,3.22,3.22,0,0,0-4.42-.23,3,3,0,0,0-1.11,2,3.25,3.25,0,0,0,1.37,3.11,5.16,5.16,0,0,0-2.37,1.83,21.47,21.47,0,0,0-1.59-1.45,18.32,18.32,0,0,0-1.81-1A4.92,4.92,0,1,0,12.48,5a5,5,0,0,0,1.28,7.84,7.07,7.07,0,0,0-3.33,2.37c-.39-.33-.76-.69-1.17-1s-.86-.54-1.3-.81A3.24,3.24,0,1,0,4,8.25a3.12,3.12,0,0,0-1.12,2.13,3.24,3.24,0,0,0,1.37,3l-.13.07A5.2,5.2,0,0,0,.94,18.66c0,.32.18.51.45.51s.42-.2.43-.52v-.53A4.26,4.26,0,0,1,9.65,15.9a.44.44,0,0,1,0,.5A6.25,6.25,0,0,0,9,19.14c0,1,0,2,0,3v.36H1.82v-.4c0-.47,0-.95,0-1.42a.41.41,0,0,0-.44-.44.44.44,0,0,0-.43.44,1.76,1.76,0,0,0,0,.23v3.8c0,.59.11.7.71.7H9c0,.14,0,.24,0,.35v2.2c0,.41.15.55.55.56s.53,0,.8,0a.44.44,0,1,0,0-.87l-.45,0V26.52H22.13v1.09H12.55a1.84,1.84,0,0,0-.41,0,.38.38,0,0,0-.32.4.39.39,0,0,0,.33.43,1.1,1.1,0,0,0,.26,0c3.34,0,6.69,0,10,0,.45,0,.59-.14.59-.6,0-.73,0-1.45,0-2.18,0-.1,0-.21,0-.33h7.36a.62.62,0,0,0,.66-.33V20.52c-.13-.22-.3-.37-.57-.29s-.32.32-.32.57c0,.55,0,1.11,0,1.68H23v-.36c0-1,0-2,0-3a6.45,6.45,0,0,0-.7-2.76.42.42,0,0,1,0-.48A4.28,4.28,0,0,1,26.84,14.06Zm-3.27-3.33a2.35,2.35,0,1,1,2.34,2.34A2.35,2.35,0,0,1,23.57,10.73ZM6.09,13.07a2.35,2.35,0,1,1,2.34-2.34A2.35,2.35,0,0,1,6.09,13.07ZM9,24.47H1.84V23.4H9ZM12,8.38a4,4,0,1,1,4,4A4,4,0,0,1,12,8.38ZM22.13,25.59H9.89a1.13,1.13,0,0,1,0-.18c0-2.1,0-4.2,0-6.3a5.72,5.72,0,0,1,2.77-4.79,6.14,6.14,0,0,1,9.49,5.18v5.91A1.62,1.62,0,0,1,22.13,25.59Zm.93-2.18h7.11v1.06H23.06Z"/><path class="cls-4" d="M5.14,18.63l1.15,1a2.5,2.5,0,0,1,.24.22.43.43,0,0,1-.56.64A6.89,6.89,0,0,1,5.36,20C5,19.65,4.6,19.34,4.23,19a.45.45,0,0,1,0-.77c.54-.46,1.09-.92,1.65-1.37a.46.46,0,0,1,.68,0,.45.45,0,0,1-.11.65C6,17.9,5.6,18.25,5.14,18.63Z"/><path class="cls-4" d="M26.52,18.64c-.43-.37-.84-.7-1.24-1.05a.6.6,0,0,1-.24-.34.63.63,0,0,1,.17-.43.39.39,0,0,1,.54,0l.93.77c.25.21.52.42.76.64a.44.44,0,0,1,0,.75l-1.67,1.4a.46.46,0,0,1-.68,0,.45.45,0,0,1,.13-.65Z"/><path class="cls-5" d="M14.92,21.37a1.66,1.66,0,0,1,.21-.31l3.21-3.16a3.2,3.2,0,0,1,.27-.25.91.91,0,0,1,1.2.07.89.89,0,0,1,.09,1.19,2.09,2.09,0,0,1-.2.22l-4,4a1,1,0,0,1-1.56,0l-1.52-1.5a.85.85,0,0,1-.22-.92.87.87,0,0,1,.73-.61,1,1,0,0,1,.84.3Z"/></g></g></svg>