<svg xmlns="http://www.w3.org/2000/svg" viewBox="0 0 28 28"><defs><style>.cls-1{fill:none;}.cls-2{fill:#0091ff;}</style></defs><g id="Layer_2" data-name="Layer 2"><g id="Layer_1-2" data-name="Layer 1"><rect class="cls-1" width="28" height="28"/><path class="cls-2" d="M25.74,7.26a1.91,1.91,0,0,0-1.26-1.79A4.42,4.42,0,0,1,21.72,2.7,1.71,1.71,0,0,0,21,1.77a5.46,5.46,0,0,0-.82-.35H8.7s0,0-.08,0a1.93,1.93,0,0,0-1.45,1.3A4.36,4.36,0,0,1,4.49,5.45,1.94,1.94,0,0,0,3.17,7.37q0,1.35,0,2.7a16.61,16.61,0,0,0,.61,4.6A17.4,17.4,0,0,0,13.43,26a2.25,2.25,0,0,0,2.05,0,17.31,17.31,0,0,0,8.16-7.63,16.61,16.61,0,0,0,2.06-7.21C25.76,9.87,25.74,8.56,25.74,7.26Zm-1.5,3.84a15.52,15.52,0,0,1-2.49,7.64,16,16,0,0,1-6.9,6,.86.86,0,0,1-.78,0,15.9,15.9,0,0,1-9-11,14.46,14.46,0,0,1-.41-3.41V7.4A.53.53,0,0,1,5,6.8,5.81,5.81,0,0,0,8.52,3.31a.56.56,0,0,1,.64-.44H19.74a.57.57,0,0,1,.66.45,5.72,5.72,0,0,0,3.42,3.45c.38.15.47.28.47.67C24.28,8.66,24.31,9.89,24.24,11.1ZM18,10.92c-.15,0-.31-.05-.49-.08v-.27c0-.63,0-1.26,0-1.89a3,3,0,0,0-6.08.11v2.05a1.81,1.81,0,0,1-.23,0,1.72,1.72,0,0,0-1.56,1.67c0,1.48,0,3,0,4.46a3.22,3.22,0,0,0,3.12,3.06q1.71,0,3.42,0a3.22,3.22,0,0,0,3.13-3c0-1.49,0-3,0-4.47A1.69,1.69,0,0,0,18,10.92ZM12.87,9.67V8.75a1.59,1.59,0,0,1,3.17,0c0,.65,0,1.3,0,1.94a.77.77,0,0,1,0,.15H12.87Zm5,7a1.8,1.8,0,0,1-1.95,1.94H13a1.79,1.79,0,0,1-1.88-1.87c0-1.33,0-2.67,0-4,0-.34.08-.42.41-.42h5.9c.39,0,.46.07.46.46C17.84,14.08,17.85,15.37,17.84,16.67Zm-3.37-2.62a.73.73,0,0,0-.74.74c0,.22,0,.45,0,.68s0,.45,0,.67a.73.73,0,0,0,.71.74.72.72,0,0,0,.74-.74q0-.68,0-1.35A.73.73,0,0,0,14.47,14.05Z"/></g></g></svg>