<svg xmlns="http://www.w3.org/2000/svg" width="583.989" height="521.389" viewBox="0 0 583.989 521.389">
  <g id="Group_1264" data-name="Group 1264" transform="translate(1421.256 -1542.56)">
    <g id="Group_1263" data-name="Group 1263">
      <g id="Group_1262" data-name="Group 1262" transform="translate(-2554.624 1343.447)">
        <g id="Asset_1" data-name="Asset 1" transform="translate(832.054 107.293)">
          <g id="Layer_2" data-name="Layer 2" transform="translate(272.82 91.82)">
            <g id="OBJECTS">
              <path id="Path_28296" data-name="Path 28296" d="M596.768,335.814s-17.713-2.824-11.5-33.794C585.271,301.983,611.162,314.067,596.768,335.814Z" transform="translate(-13.458 83.406)" fill="#d7dee2"/>
              <path id="Path_28297" data-name="Path 28297" d="M722.3,117.821v458.4a26,26,0,0,1-26.019,26H468.056A26.019,26.019,0,0,1,442,576.1V117.821a26,26,0,0,1,26-26H696.286a26,26,0,0,1,26.019,26Z" transform="translate(-131.789 -91.82)" fill="#212019"/>
              <path id="Path_28298" data-name="Path 28298" d="M443.808,159.3h1.834a.7.7,0,0,1,.7.7v59.152a.7.7,0,0,1-.7.7h-1.834a6.968,6.968,0,0,1-6.968-6.968V166.286a6.968,6.968,0,0,1,6.968-6.986Z" transform="translate(-136.09 -35.568)" fill="#595959"/>
              <path id="Path_28299" data-name="Path 28299" d="M6.968,0H8.8a.7.7,0,0,1,.7.7V59.849a.7.7,0,0,1-.7.7H6.968A6.968,6.968,0,0,1,0,53.578V6.986A6.968,6.968,0,0,1,6.968.018Z" transform="translate(599.831 184.297) rotate(180)" fill="#595959"/>
              <path id="Path_28300" data-name="Path 28300" d="M443.808,196.81h1.834a.7.7,0,0,1,.7.7v59.152a.7.7,0,0,1-.7.7h-1.834a6.968,6.968,0,0,1-6.968-6.968V203.778A6.968,6.968,0,0,1,443.808,196.81Z" transform="translate(-136.09 -4.299)" fill="#595959"/>
              <path id="Path_28301" data-name="Path 28301" d="M703.414,113.034V569.091a14.192,14.192,0,0,1-14.174,14.174H463.266a14.155,14.155,0,0,1-12.706-7.92v0a13.844,13.844,0,0,1-1.449-6.216V113.034A14.192,14.192,0,0,1,463.284,98.86H689.24a14.119,14.119,0,0,1,6.784,1.724h0A14.192,14.192,0,0,1,703.414,113.034Z" transform="translate(-125.862 -85.951)" fill="#fff"/>
              <path id="Path_28302" data-name="Path 28302" d="M508.649,315.49h-4.565a.733.733,0,0,0-.7.533l-.666,2.443H460.793a.755.755,0,0,0-.555.244.722.722,0,0,0-.167.578l.677,4.82a.5.5,0,0,0,0,.178.777.777,0,0,0,.1.366l.855,6.1.2,1.455.8,5.742.2,1.444.711,5.076a.722.722,0,0,0,.711.622h31.031l-1.011,3.632a3.965,3.965,0,0,1-3.8,2.888H468.423a.755.755,0,0,0-.755.655.722.722,0,0,0,.722.789h2.71a2.843,2.843,0,1,0,3.065,0h12.483a2.854,2.854,0,1,0,3.076,0h.777a5.409,5.409,0,0,0,5.187-3.943l1.244-4.443h0v-.089l1.433-5.175.411-1.444,1.6-5.742.4-1.455,1.655-5.931.2-.722h0l1.311-4.709a.078.078,0,0,0,0-.056l.655-2.377h4a.733.733,0,1,0,0-1.455Zm-11.906,24.5h0v.089l-.988,3.554H464.924l-.589-4.254H496.91Zm.578-2.044h-33.2l-.8-5.742h35.6Zm2-7.2h-36.2l-.8-5.742H500.92Zm2-7.186H462.125l-.511-3.654h40.727Z" transform="translate(-100.667 108.572)" fill="#d5e1eb"/>
              <path id="Path_28303" data-name="Path 28303" d="M637.871,215.736H486.524a22.81,22.81,0,1,1,0-45.6H637.871a22.81,22.81,0,1,1,0,45.6ZM486.524,172.555a20.39,20.39,0,1,0,0,40.761H637.871a20.39,20.39,0,0,0,0-40.761Z" transform="translate(-114.227 -26.544)" fill="#eff6fc"/>
              <path id="Path_28304" data-name="Path 28304" d="M484.713,192.93l-6.954,3.65,1.327-7.733-5.626-5.482,7.776-1.125,3.477-7.04,3.477,7.04,7.761,1.125-5.626,5.482,1.327,7.733Z" transform="translate(-82.946 -19.416)" fill="#ffc55a"/>
              <path id="Path_28305" data-name="Path 28305" d="M509.278,192.93l-6.953,3.65,1.327-7.733-5.612-5.482,7.761-1.125,3.477-7.04,3.477,7.04,7.761,1.125-5.612,5.482,1.313,7.733Z" transform="translate(-72.066 -19.416)" fill="#ffc55a"/>
              <path id="Path_28306" data-name="Path 28306" d="M533.848,192.93l-6.954,3.65,1.327-7.733-5.612-5.482,7.761-1.125,3.477-7.04,3.477,7.04,7.761,1.125-5.612,5.482,1.327,7.733Z" transform="translate(-61.191 -19.416)" fill="#ffc55a"/>
              <path id="Path_28307" data-name="Path 28307" d="M558.331,192.793l-6.9,3.622,1.331-7.673-5.583-5.44,7.7-1.117,3.45-6.986,3.45,6.986,7.7,1.117-5.569,5.44,1.317,7.673Z" transform="translate(-54.3 -19.416)" fill="#eff6fc"/>
              <rect id="Rectangle_2244" data-name="Rectangle 2244" width="223.995" height="80.624" rx="9" transform="translate(340.851 214.955)" fill="rgba(215,232,247,0.41)"/>
              <rect id="Rectangle_2250" data-name="Rectangle 2250" width="69.527" height="80.624" rx="9" transform="translate(340.851 52.102)" fill="rgba(215,232,247,0.41)"/>
              <rect id="Rectangle_2251" data-name="Rectangle 2251" width="69.527" height="80.624" rx="9" transform="translate(418.085 52.102)" fill="rgba(215,232,247,0.41)"/>
              <rect id="Rectangle_2252" data-name="Rectangle 2252" width="69.527" height="80.624" rx="9" transform="translate(495.319 52.102)" fill="rgba(215,232,247,0.41)"/>
              <path id="Path_28308" data-name="Path 28308" d="M530.382,229.664v25.047H520.315c-.9,0-2.457-1.247-3.154-1.229a57.444,57.444,0,0,0-8.746,1.229H465.05a10.746,10.746,0,0,1,1.357-4.016c5.941-10.635,28.476-15.439,32.125-20.17a58.672,58.672,0,0,1,3.887-4.566,23.506,23.506,0,0,1,3.355-3.392c1.98-1.339,4.969,3.979,4.969,3.979,4.6,2.2,11.68,1.247,15.971.33a3.025,3.025,0,0,1,3.667,2.787Z" transform="translate(-112.574 16.994)" fill="#0091ff"/>
              <path id="Path_28309" data-name="Path 28309" d="M530.382,237.75v4.126H520.315c-.9,0-2.457-1.247-3.154-1.229a57.444,57.444,0,0,0-8.746,1.229H465.05a10.746,10.746,0,0,1,1.357-4.016Z" transform="translate(-112.574 29.83)" fill="#005799"/>
              <path id="Path_28310" data-name="Path 28310" d="M472.92,233.845l2.805-1.357a3.429,3.429,0,0,1,3.044-1.137,7.7,7.7,0,0,1,4.492,3.337.844.844,0,0,0,1.155.238h0a.825.825,0,0,0,.294-1.173,8.087,8.087,0,0,0-4.566-3.777A6.069,6.069,0,0,0,472.92,233.845Z" transform="translate(-106.013 23.191)" fill="#005799"/>
              <path id="Path_28311" data-name="Path 28311" d="M474.86,232.972s1.742-.77,2.787-1.3a3.429,3.429,0,0,1,3.044-1.192,7.977,7.977,0,0,1,4.511,3.337.843.843,0,0,0,1.155.257h0a.862.862,0,0,0,.294-1.192,8.086,8.086,0,0,0-4.566-3.8A6.069,6.069,0,0,0,474.86,232.972Z" transform="translate(-104.396 22.45)" fill="#005799"/>
              <path id="Path_28312" data-name="Path 28312" d="M476.69,232.235l2.787-1.357a3.447,3.447,0,0,1,3.044-1.137,7.774,7.774,0,0,1,4.492,3.337.9.9,0,0,0,1.174.257h0a.88.88,0,0,0,.293-1.192,8.086,8.086,0,0,0-4.566-3.777A6.069,6.069,0,0,0,476.69,232.235Z" transform="translate(-102.871 21.849)" fill="#005799"/>
              <path id="Path_28313" data-name="Path 28313" d="M478.56,231.3l2.787-1.3a3.429,3.429,0,0,1,3.044-1.192,7.811,7.811,0,0,1,4.511,3.429.862.862,0,0,0,1.155.238h0a.862.862,0,0,0,.293-1.174,8.087,8.087,0,0,0-4.566-3.777,6.069,6.069,0,0,0-7.224,3.777Z" transform="translate(-101.312 21.137)" fill="#005799"/>
              <path id="Path_28314" data-name="Path 28314" d="M607.268,218.522h-99.65a1.008,1.008,0,0,1-.878-1.1,1.232,1.232,0,0,1,.258-.772.781.781,0,0,1,.62-.31h99.65a.781.781,0,0,1,.62.31,1.232,1.232,0,0,1,.258.771,1.008,1.008,0,0,1-.878,1.1Z" transform="translate(-73.427 11.982)" fill="rgba(192,216,236,0.54)"/>
              <path id="Path_28315" data-name="Path 28315" d="M607.268,225.632h-99.65a.781.781,0,0,1-.62-.31,1.232,1.232,0,0,1-.258-.772,1.008,1.008,0,0,1,.878-1.1h99.65a1.008,1.008,0,0,1,.878,1.1,1.231,1.231,0,0,1-.258.772.781.781,0,0,1-.62.31Z" transform="translate(-73.427 17.909)" fill="rgba(192,216,236,0.54)"/>
              <path id="Path_28316" data-name="Path 28316" d="M607.268,232.752h-99.65a1.008,1.008,0,0,1-.878-1.1,1.232,1.232,0,0,1,.258-.772.781.781,0,0,1,.62-.31h99.65a.781.781,0,0,1,.62.31,1.232,1.232,0,0,1,.258.771,1.008,1.008,0,0,1-.878,1.1Z" transform="translate(-73.427 23.844)" fill="rgba(192,216,236,0.54)"/>
              <path id="Path_28317" data-name="Path 28317" d="M607.268,239.862h-99.65a.781.781,0,0,1-.62-.31,1.232,1.232,0,0,1-.258-.772,1.008,1.008,0,0,1,.878-1.1h99.65a1.008,1.008,0,0,1,.878,1.1,1.232,1.232,0,0,1-.258.772A.781.781,0,0,1,607.268,239.862Z" transform="translate(-73.427 29.772)" fill="rgba(192,216,236,0.54)"/>
              <path id="Path_28318" data-name="Path 28318" d="M596.055,246.992H507.52c-.431,0-.78-.493-.78-1.1a1.335,1.335,0,0,1,.229-.772.67.67,0,0,1,.551-.31h88.535a.67.67,0,0,1,.551.31,1.335,1.335,0,0,1,.229.771c0,.608-.349,1.1-.78,1.1Z" transform="translate(-73.427 35.715)" fill="rgba(192,216,236,0.54)"/>
              <rect id="Rectangle_2245" data-name="Rectangle 2245" width="223.995" height="80.624" rx="10" transform="translate(340.851 313.237)" fill="rgba(215,232,247,0.41)"/>
              <path id="Path_28319" data-name="Path 28319" d="M511.6,295.189l-.477.147v1.008h0c.293,10.158.44,21.655.477,29.466a90.909,90.909,0,0,1-36.1-.037c0-7.848,0-19.436.257-29.595V294.6H475.6a9.79,9.79,0,0,1-3.3-.752,11.943,11.943,0,0,1-2.109-1.155l-.55-.385a11.368,11.368,0,0,1-1.834-1.705,42.453,42.453,0,0,1,2.457-5.153c.33-.623.678-1.21,1.027-1.834a87.683,87.683,0,0,1,5.978-8.8h0a21.436,21.436,0,0,1,5.244-3.851l1.485-.88a6.081,6.081,0,0,1,1.1-.532l.642-.2a7.02,7.02,0,0,1,1.834-.238.624.624,0,0,1,.623.623h0a5.666,5.666,0,0,0,5.868,5.666,5.776,5.776,0,0,0,5.5-5.794h0a.5.5,0,0,1,.513-.513,4.318,4.318,0,0,1,.7,0,5.354,5.354,0,0,1,2.109.733l.477.275a25.489,25.489,0,0,1,6.014,4.364,89.259,89.259,0,0,1,9.645,16.026,17.291,17.291,0,0,1-7.426,4.694Z" transform="translate(-110.273 55.949)" fill="#dc5f34"/>
              <path id="Path_28320" data-name="Path 28320" d="M476.371,280.219l-4.126,7.334V286.27a3.242,3.242,0,0,1,0-.422h-.165l3.41-6.069a.477.477,0,1,1,.825.458Z" transform="translate(-106.714 64.611)" fill="#b11722"/>
              <path id="Path_28321" data-name="Path 28321" d="M493.383,286.664v1.008l-4.2-7.444a.477.477,0,1,1,.825-.458l3.814,6.766Z" transform="translate(-92.536 64.602)" fill="#b11722"/>
              <path id="Path_28322" data-name="Path 28322" d="M478.565,269.877a1.467,1.467,0,0,1-1.467,1.467,1.5,1.5,0,0,1-1.229-.642l1.485-.88a6.09,6.09,0,0,1,1.1-.532A1.522,1.522,0,0,1,478.565,269.877Z" transform="translate(-103.554 56.122)" fill="#b11722"/>
              <path id="Path_28323" data-name="Path 28323" d="M488.572,270.07a1.485,1.485,0,0,1-2.952,0,1.521,1.521,0,0,1,.367-.99,5.356,5.356,0,0,1,2.109.733Z" transform="translate(-95.426 55.947)" fill="#b11722"/>
              <circle id="Ellipse_211" data-name="Ellipse 211" cx="1.467" cy="1.467" r="1.467" transform="translate(366.045 331.976)" fill="#b11722"/>
              <circle id="Ellipse_212" data-name="Ellipse 212" cx="1.467" cy="1.467" r="1.467" transform="translate(372.077 331.976)" fill="#b11722"/>
              <circle id="Ellipse_213" data-name="Ellipse 213" cx="1.467" cy="1.467" r="1.467" transform="translate(378.128 331.976)" fill="#b11722"/>
              <circle id="Ellipse_214" data-name="Ellipse 214" cx="1.467" cy="1.467" r="1.467" transform="translate(384.161 331.976)" fill="#b11722"/>
              <circle id="Ellipse_215" data-name="Ellipse 215" cx="1.467" cy="1.467" r="1.467" transform="translate(390.194 331.976)" fill="#b11722"/>
              <circle id="Ellipse_216" data-name="Ellipse 216" cx="1.467" cy="1.467" r="1.467" transform="translate(396.244 331.976)" fill="#b11722"/>
              <path id="Path_28324" data-name="Path 28324" d="M472.077,278.4a1.475,1.475,0,0,1-2.9.385c.33-.623.678-1.21,1.027-1.834h.385a1.485,1.485,0,0,1,1.485,1.449Z" transform="translate(-109.131 62.507)" fill="#b11722"/>
              <circle id="Ellipse_217" data-name="Ellipse 217" cx="1.467" cy="1.467" r="1.467" transform="translate(366.045 339.439)" fill="#b11722"/>
              <circle id="Ellipse_218" data-name="Ellipse 218" cx="1.467" cy="1.467" r="1.467" transform="translate(372.077 339.439)" fill="#b11722"/>
              <circle id="Ellipse_219" data-name="Ellipse 219" cx="1.467" cy="1.467" r="1.467" transform="translate(378.128 339.439)" fill="#b11722"/>
              <circle id="Ellipse_220" data-name="Ellipse 220" cx="1.467" cy="1.467" r="1.467" transform="translate(384.161 339.439)" fill="#b11722"/>
              <circle id="Ellipse_221" data-name="Ellipse 221" cx="1.467" cy="1.467" r="1.467" transform="translate(390.194 339.439)" fill="#b11722"/>
              <circle id="Ellipse_222" data-name="Ellipse 222" cx="1.467" cy="1.467" r="1.467" transform="translate(396.244 339.439)" fill="#b11722"/>
              <circle id="Ellipse_223" data-name="Ellipse 223" cx="1.467" cy="1.467" r="1.467" transform="translate(402.277 339.439)" fill="#b11722"/>
              <path id="Path_28325" data-name="Path 28325" d="M471.28,283.739a1.5,1.5,0,0,0,.825-1.339,1.485,1.485,0,0,0-2.952,0,.57.57,0,0,0,0,.183Z" transform="translate(-109.159 65.95)" fill="#b11722"/>
              <path id="Path_28326" data-name="Path 28326" d="M475.4,282.467A1.485,1.485,0,1,1,473.934,281a1.467,1.467,0,0,1,1.467,1.467Z" transform="translate(-106.422 65.883)" fill="#b11722"/>
              <path id="Path_28327" data-name="Path 28327" d="M478.7,282.467A1.485,1.485,0,1,1,477.215,281a1.485,1.485,0,0,1,1.485,1.467Z" transform="translate(-103.671 65.884)" fill="#b11722"/>
              <path id="Path_28328" data-name="Path 28328" d="M481.99,282.467A1.485,1.485,0,1,1,480.524,281a1.467,1.467,0,0,1,1.467,1.467Z" transform="translate(-100.928 65.883)" fill="#b11722"/>
              <path id="Path_28329" data-name="Path 28329" d="M485.264,282.467A1.467,1.467,0,1,1,483.8,281a1.467,1.467,0,0,1,1.467,1.467Z" transform="translate(-98.169 65.884)" fill="#b11722"/>
              <path id="Path_28330" data-name="Path 28330" d="M488.58,282.467A1.485,1.485,0,1,1,487.1,281a1.485,1.485,0,0,1,1.485,1.467Z" transform="translate(-95.435 65.884)" fill="#b11722"/>
              <path id="Path_28331" data-name="Path 28331" d="M491.87,282.467A1.485,1.485,0,1,1,490.4,281a1.467,1.467,0,0,1,1.467,1.467Z" transform="translate(-92.692 65.883)" fill="#b11722"/>
              <path id="Path_28332" data-name="Path 28332" d="M495.144,282.467A1.467,1.467,0,1,1,493.677,281a1.467,1.467,0,0,1,1.467,1.467Z" transform="translate(-89.933 65.884)" fill="#b11722"/>
              <circle id="Ellipse_224" data-name="Ellipse 224" cx="1.467" cy="1.467" r="1.467" transform="translate(366.045 354.346)" fill="#b11722"/>
              <circle id="Ellipse_225" data-name="Ellipse 225" cx="1.467" cy="1.467" r="1.467" transform="translate(372.077 354.346)" fill="#b11722"/>
              <circle id="Ellipse_226" data-name="Ellipse 226" cx="1.467" cy="1.467" r="1.467" transform="translate(378.128 354.346)" fill="#b11722"/>
              <circle id="Ellipse_227" data-name="Ellipse 227" cx="1.467" cy="1.467" r="1.467" transform="translate(384.161 354.346)" fill="#b11722"/>
              <circle id="Ellipse_228" data-name="Ellipse 228" cx="1.467" cy="1.467" r="1.467" transform="translate(390.194 354.346)" fill="#b11722"/>
              <circle id="Ellipse_229" data-name="Ellipse 229" cx="1.467" cy="1.467" r="1.467" transform="translate(396.244 354.346)" fill="#b11722"/>
              <circle id="Ellipse_230" data-name="Ellipse 230" cx="1.467" cy="1.467" r="1.467" transform="translate(366.045 361.791)" fill="#b11722"/>
              <circle id="Ellipse_231" data-name="Ellipse 231" cx="1.467" cy="1.467" r="1.467" transform="translate(372.077 361.791)" fill="#b11722"/>
              <circle id="Ellipse_232" data-name="Ellipse 232" cx="1.467" cy="1.467" r="1.467" transform="translate(378.128 361.791)" fill="#b11722"/>
              <circle id="Ellipse_233" data-name="Ellipse 233" cx="1.467" cy="1.467" r="1.467" transform="translate(384.161 361.791)" fill="#b11722"/>
              <circle id="Ellipse_234" data-name="Ellipse 234" cx="1.467" cy="1.467" r="1.467" transform="translate(390.194 361.791)" fill="#b11722"/>
              <circle id="Ellipse_235" data-name="Ellipse 235" cx="1.467" cy="1.467" r="1.467" transform="translate(396.244 361.791)" fill="#b11722"/>
              <circle id="Ellipse_236" data-name="Ellipse 236" cx="1.467" cy="1.467" r="1.467" transform="translate(366.045 369.254)" fill="#b11722"/>
              <circle id="Ellipse_237" data-name="Ellipse 237" cx="1.467" cy="1.467" r="1.467" transform="translate(372.077 369.254)" fill="#b11722"/>
              <circle id="Ellipse_238" data-name="Ellipse 238" cx="1.467" cy="1.467" r="1.467" transform="translate(378.128 369.254)" fill="#b11722"/>
              <circle id="Ellipse_239" data-name="Ellipse 239" cx="1.467" cy="1.467" r="1.467" transform="translate(384.161 369.254)" fill="#b11722"/>
              <circle id="Ellipse_240" data-name="Ellipse 240" cx="1.467" cy="1.467" r="1.467" transform="translate(390.194 369.254)" fill="#b11722"/>
              <circle id="Ellipse_241" data-name="Ellipse 241" cx="1.467" cy="1.467" r="1.467" transform="translate(396.244 369.254)" fill="#b11722"/>
              <circle id="Ellipse_242" data-name="Ellipse 242" cx="1.467" cy="1.467" r="1.467" transform="translate(366.045 376.716)" fill="#b11722"/>
              <circle id="Ellipse_243" data-name="Ellipse 243" cx="1.467" cy="1.467" r="1.467" transform="translate(372.077 376.716)" fill="#b11722"/>
              <circle id="Ellipse_244" data-name="Ellipse 244" cx="1.467" cy="1.467" r="1.467" transform="translate(378.128 376.716)" fill="#b11722"/>
              <circle id="Ellipse_245" data-name="Ellipse 245" cx="1.467" cy="1.467" r="1.467" transform="translate(384.161 376.716)" fill="#b11722"/>
              <circle id="Ellipse_246" data-name="Ellipse 246" cx="1.467" cy="1.467" r="1.467" transform="translate(390.194 376.716)" fill="#b11722"/>
              <circle id="Ellipse_247" data-name="Ellipse 247" cx="1.467" cy="1.467" r="1.467" transform="translate(396.244 376.716)" fill="#b11722"/>
              <path id="Path_28333" data-name="Path 28333" d="M611.471,271.774H507.65a1.1,1.1,0,0,1,0-2.164H611.471a1.1,1.1,0,0,1,0,2.164Z" transform="translate(-77.812 56.389)" fill="#d5e5f3"/>
              <path id="Path_28334" data-name="Path 28334" d="M611.571,278.906H507.7a.869.869,0,0,1-.89-.5,1.291,1.291,0,0,1,0-1.181.869.869,0,0,1,.89-.5H611.571a.869.869,0,0,1,.89.5,1.29,1.29,0,0,1,0,1.181A.869.869,0,0,1,611.571,278.906Z" transform="translate(-77.885 62.311)" fill="#d5e5f3"/>
              <path id="Path_28335" data-name="Path 28335" d="M611.483,285.992H507.655a1.02,1.02,0,0,1-.915-1.1,1.2,1.2,0,0,1,.269-.772.826.826,0,0,1,.646-.31H611.483a.826.826,0,0,1,.646.31,1.2,1.2,0,0,1,.269.772A1.02,1.02,0,0,1,611.483,285.992Z" transform="translate(-77.82 68.226)" fill="#d5e5f3"/>
              <path id="Path_28336" data-name="Path 28336" d="M611.571,293.136H507.7a.869.869,0,0,1-.89-.5,1.291,1.291,0,0,1,0-1.181.869.869,0,0,1,.89-.5H611.571a.869.869,0,0,1,.89.5,1.29,1.29,0,0,1,0,1.181A.869.869,0,0,1,611.571,293.136Z" transform="translate(-77.885 74.174)" fill="#d5e5f3"/>
              <path id="Path_28337" data-name="Path 28337" d="M611.483,300.252H507.655a1.02,1.02,0,0,1-.915-1.1,1.2,1.2,0,0,1,.269-.772.827.827,0,0,1,.646-.31H611.483a.827.827,0,0,1,.646.31,1.2,1.2,0,0,1,.269.772,1.02,1.02,0,0,1-.915,1.1Z" transform="translate(-77.82 80.113)" fill="#d5e5f3"/>
              <rect id="Rectangle_2248" data-name="Rectangle 2248" width="157.306" height="26.386" rx="5.8" transform="translate(371.729 9.461)" fill="#212019"/>
              <rect id="Rectangle_2249" data-name="Rectangle 2249" width="94.285" height="6.491" rx="1.43" transform="translate(396.721 17.676)" fill="#595959"/>
              <path id="Path_28349" data-name="Path 28349" d="M556.655,104.869A3.887,3.887,0,1,1,552.767,101,3.887,3.887,0,0,1,556.655,104.869Z" transform="translate(-42.692 -84.167)" fill="#595959"/>
              <path id="Path_28355" data-name="Path 28355" d="M438.528,248.7c-7.334,4.932-24.222,8.93-41.256,10.818-22,2.439-44.263,1.394-47.142-5.684a24.923,24.923,0,0,1-.88-2.494h0c-.183-.642-.367-1.3-.532-1.98-.293-1.192-.55-2.439-.77-3.667-.128-.733-.238-1.5-.33-2.255a121.021,121.021,0,0,1-.183-24.552l83.338-17.419s8.2,23.837,9.5,37.791c0,.77.11,1.5.147,2.219C440.6,245.018,440.013,247.732,438.528,248.7Z" transform="translate(-211.068 -0.414)" fill="#212019"/>
              <path id="Path_28356" data-name="Path 28356" d="M396.12,348.96l4.034,18.868,17.786-3.117-3.374-17.841Z" transform="translate(-170.035 120.794)" fill="#f6ad84"/>
              <path id="Path_28357" data-name="Path 28357" d="M464.534,374.731,401.99,390.207a8.985,8.985,0,0,1-1.687-3.282c-1.705-5.189-2.09-14.046-2.586-19.583a14.427,14.427,0,0,0-.183-1.834,17.81,17.81,0,0,0-.348-2.219,3.282,3.282,0,0,1,2.952-4.547c7.866,4.639,12.744-6.436,17.676-4.419,0,0,2.127.843,8.2,4.089s15.237,4.107,23.177,5.336c10.25,1.577,13.844,4.8,15.017,7.334a5.024,5.024,0,0,1,.33,3.649Z" transform="translate(-169.359 126.8)" fill="#dc5f34"/>
              <path id="Path_28358" data-name="Path 28358" d="M463,366.974,400.457,382.45a8.986,8.986,0,0,1-1.687-3.282l63.9-15.787a5.024,5.024,0,0,1,.33,3.594Z" transform="translate(-167.826 134.557)" fill="#b11722"/>
              <path id="Path_28359" data-name="Path 28359" d="M409.19,356.807s.44-3.007,3.136-2.75,3.466,4.419,3.466,4.419S415.223,362.565,409.19,356.807Z" transform="translate(-159.14 126.772)" fill="#fff"/>
              <path id="Path_28360" data-name="Path 28360" d="M411.221,367.781a1.064,1.064,0,0,1-1.284-.77,13.477,13.477,0,0,1,1.65-10.708,1.082,1.082,0,0,1,1.485-.257,1.1,1.1,0,0,1,.238,1.485,11.46,11.46,0,0,0-1.32,8.966,1.045,1.045,0,0,1-.77,1.284Z" transform="translate(-158.897 128.286)" fill="#fff"/>
              <path id="Path_28361" data-name="Path 28361" d="M420.846,357.346a.99.99,0,0,1-.752-.092c-1.6-.825-5.5-.092-7.573.568a1.082,1.082,0,0,1-1.339-.7,1.064,1.064,0,0,1,.7-1.339c.642-.2,6.308-1.834,9.168-.4a1.064,1.064,0,0,1,.44,1.43,1.082,1.082,0,0,1-.642.532Z" transform="translate(-157.52 127.407)" fill="#fff"/>
              <path id="Path_28362" data-name="Path 28362" d="M418.044,356.651l-.733-.4c-.385-.22-.935-.5-1.559-.807l-.385-.183a23.414,23.414,0,0,0-4.878-1.669,9.169,9.169,0,0,0-3.979,0h-.092a4.456,4.456,0,0,0-2.879,2.164,3.283,3.283,0,0,0,0,3.356l.11.183a4.749,4.749,0,0,0,2,1.65,10.268,10.268,0,0,0,5.5.678,38.071,38.071,0,0,0,4.657-.733l.422-.11a17.029,17.029,0,0,0,1.962-.587l.22-.11-.953-2.017h0l.4-.66Zm-5.941,2.494-1.339.165c-2.824.293-4.657-.44-5.226-1.32l-.11-.183a.972.972,0,0,1,.11-.935,2.218,2.218,0,0,1,1.467-1.1h0a5.1,5.1,0,0,1,1.522-.11,11.977,11.977,0,0,1,2.64.513,24.121,24.121,0,0,1,3.062,1.155h0c.788.348,1.467.7,2.017,1.008l-.752.183A32.366,32.366,0,0,1,412.1,359.145Z" transform="translate(-164.234 126.213)" fill="#fff"/>
              <path id="Path_28363" data-name="Path 28363" d="M414.079,361.282l-1.467-1.834c1.834-1.485,3.154-4.529,2.64-6.051-.11-.367-.385-.788-1.43-.825a1.32,1.32,0,0,0-1.192.44c-.862,1.1-.513,4.016,0,5.5l-2.219.623c-.147-.532-1.375-5.262.5-7.628a3.521,3.521,0,0,1,3.08-1.3,3.484,3.484,0,0,1,3.521,2.4C418.351,355.341,416.389,359.394,414.079,361.282Z" transform="translate(-158.564 123.563)" fill="#fff"/>
              <path id="Path_28364" data-name="Path 28364" d="M408.088,383.432l-1.834.458a14.228,14.228,0,0,0,.88-10.855,18.189,18.189,0,0,0-9.681-10.892,14.426,14.426,0,0,0-.183-1.833A19.821,19.821,0,0,1,408.6,372.559a15.623,15.623,0,0,1-.513,10.873Z" transform="translate(-169.076 131.998)" fill="#b11722"/>
              <path id="Path_28365" data-name="Path 28365" d="M413.323,360.425a1.063,1.063,0,0,1-.752-1.98l3.667-1.944a1.063,1.063,0,0,1,.99,1.834l-3.667,1.925a1.372,1.372,0,0,1-.238.165Z" transform="translate(-156.819 128.784)" fill="#fff"/>
              <path id="Path_28366" data-name="Path 28366" d="M415.75,361.126a1.063,1.063,0,0,1-1.192-.55,1.045,1.045,0,0,1,.44-1.43l3.667-1.925a1.063,1.063,0,0,1,.99,1.834L415.988,361Z" transform="translate(-154.771 129.384)" fill="#fff"/>
              <path id="Path_28367" data-name="Path 28367" d="M418.154,361.831a1.064,1.064,0,0,1-.752-1.962l3.667-1.944a1.082,1.082,0,0,1,1.449.44,1.064,1.064,0,0,1-.458,1.43l-3.667,1.944Z" transform="translate(-152.738 129.908)" fill="#fff"/>
              <path id="Path_28368" data-name="Path 28368" d="M420.768,362.316a1.063,1.063,0,0,1-1.192-.532,1.082,1.082,0,0,1,.44-1.449l3.667-1.925a1.063,1.063,0,0,1,.99,1.834l-3.667,1.944Z" transform="translate(-150.584 130.376)" fill="#fff"/>
              <path id="Path_28369" data-name="Path 28369" d="M423.517,362.661a1.045,1.045,0,0,1-1.192-.532,1.063,1.063,0,0,1,.44-1.43l3.667-1.944a1.064,1.064,0,0,1,1.43.44,1.082,1.082,0,0,1-.44,1.449l-3.667,1.834a.642.642,0,0,1-.238.183Z" transform="translate(-148.291 130.6)" fill="#fff"/>
              <path id="Path_28370" data-name="Path 28370" d="M437.348,459.731l-24.405,2.659s-15.347-83.338-13.77-103.343l-22.81-116.4L373.08,225.89l33.005-2.9,1.834-1.063,1.118-.623,1.834-1.027,4.749-2.659c.128.642.238,1.284.367,1.834l.825,4.492c.147.788.293,1.559.422,2.329a1.814,1.814,0,0,1,0,.312l.385,2.127c8.49,46.445,15.109,89.077,17.694,120.1v2.567Z" transform="translate(-189.242 13.049)" fill="#212019"/>
              <path id="Path_28371" data-name="Path 28371" d="M412.607,291.612a41.918,41.918,0,0,1-11,1.5h0a1.045,1.045,0,0,1,0-2.09h0a40.344,40.344,0,0,0,11-1.6Z" transform="translate(-166.334 72.911)" fill="#595959"/>
              <path id="Path_28372" data-name="Path 28372" d="M412.959,439.19c-14.247-70.007-10.873-99.51-10.837-99.8a1.993,1.993,0,0,0,0-.33L380.3,235.879a1.045,1.045,0,0,0-1.118-.807h0a1.009,1.009,0,0,0-.843,1.21L400.124,339.3c-.257,2.567-2.86,32.693,10.873,100.28a1.045,1.045,0,0,0,1.082.825h.128A1.045,1.045,0,0,0,412.959,439.19Z" transform="translate(-184.875 27.593)" fill="#595959"/>
              <path id="Path_28373" data-name="Path 28373" d="M406.156,234.89h-.238a19.822,19.822,0,0,1-4.346-2.109l-1.082-.752a23.49,23.49,0,0,1-3.667-3.264,41.769,41.769,0,0,1-8.856-18.336,1.045,1.045,0,0,1,.825-1.192,1.027,1.027,0,0,1,1.192.825c0,.128,2.072,10.8,8.8,17.841a22.137,22.137,0,0,0,3.282,2.842l.532.348a17.282,17.282,0,0,0,3.337,1.687,3.337,3.337,0,0,1,.22,2.109Z" transform="translate(-176.844 6.047)" fill="#595959"/>
              <path id="Path_28374" data-name="Path 28374" d="M381.149,251.6a.807.807,0,0,1-.788.862h0a.844.844,0,0,1-.88-.77c-.147-3.08-.33-6.253-.532-9.388l-.11-1.669c-.66-10.3-1.5-20.408-2.127-27.5a16.442,16.442,0,0,0-.165-1.687c-.128-1.559-.257-2.952-.367-4.126l1.687-.275c.11,1.174.238,2.585.367,4.162,0,.532.11,1.1.165,1.669.623,7.078,1.467,17.108,2.127,27.339l.11,1.705C380.819,245.143,381,248.406,381.149,251.6Z" transform="translate(-186.657 4.229)" fill="#595959"/>
              <path id="Path_28375" data-name="Path 28375" d="M386.747,240.3a24.09,24.09,0,0,1-2.97,1.137l-1.687.422a16.145,16.145,0,0,1-1.614.2,5.886,5.886,0,0,1-2.86-.458,3.447,3.447,0,0,1-1.925-2.6c-.623-3.172-1.834-16.282-2.787-25.561a16.144,16.144,0,0,0-.147-1.669c-.147-1.485-.257-2.842-.367-3.979l1.687-.22c.11,1.155.238,2.53.385,4.034,0,.532.092,1.082.147,1.669.862,9.168,2.145,22.352,2.75,25.432a1.834,1.834,0,0,0,1.027,1.43,5.9,5.9,0,0,0,3.667,0c.587-.128,1.155-.293,1.687-.458a20.576,20.576,0,0,0,2.329-.917.88.88,0,0,1,1.155.367.843.843,0,0,1-.477,1.174Z" transform="translate(-189.817 4.671)" fill="#595959"/>
              <path id="Path_28376" data-name="Path 28376" d="M306.7,343.39l-8.893,14.321,16.063,13.825,10.782-15.457Z" transform="translate(-251.988 117.893)" fill="#f6ad84"/>
              <path id="Path_28377" data-name="Path 28377" d="M310.005,371.526a.99.99,0,0,1-.22-.66c0-1.65-2.09-4.584-3.466-6.051a.972.972,0,1,1,1.375-1.375c.422.44,4.126,4.474,4.016,7.463a.99.99,0,0,1-1.008.953,1.027,1.027,0,0,1-.7-.33Z" transform="translate(-245.132 134.369)" fill="#fff"/>
              <path id="Path_28378" data-name="Path 28378" d="M347.3,394.946h-45.18a206.489,206.489,0,0,1-11.24-19.931c-.2-.422-.385-.843-.568-1.247-1.394-3.172-2.219-5.849-1.834-7.206a6.2,6.2,0,0,1,.77-1.834c1.98-3.135,6.876-6.638,10.1-8.728h0l1.284-.825c1.045-.642,5.281-4.676,5.281-4.676,5.244-.9,11.5,12.634,11.5,12.634s7.866-.752,7.756,5.1c0,2.035-4.932,8.16-4.932,8.16s12.835,2.9,17.254,5.409c6.161,3.557,8.508,7.188,9.388,9.718A7.336,7.336,0,0,1,347.3,394.946Z" transform="translate(-259.85 123.784)" fill="#dc5f34"/>
              <path id="Path_28379" data-name="Path 28379" d="M297.768,366.555a14.3,14.3,0,0,1-7.72,6.253c-.2-.422-.385-.844-.568-1.247a13.11,13.11,0,0,0,7.078-5.758,16.3,16.3,0,0,0,1.834-11.919h0l1.284-.825a17.713,17.713,0,0,1-1.907,13.5Z" transform="translate(-258.932 125.954)" fill="#b11722"/>
              <path id="Path_28380" data-name="Path 28380" d="M306.215,361.524s2.677-.825,3.539,1.522-2.292,4.621-2.292,4.621S303.85,368.822,306.215,361.524Z" transform="translate(-245.651 132.892)" fill="#fff"/>
              <path id="Path_28381" data-name="Path 28381" d="M300.8,367.2a.99.99,0,0,1,.128-1.394,12.506,12.506,0,0,1,9.553-2.9.978.978,0,1,1-.348,1.925,10.562,10.562,0,0,0-7.958,2.494,1.009,1.009,0,0,1-1.375-.128Z" transform="translate(-249.683 134.093)" fill="#fff"/>
              <path id="Path_28382" data-name="Path 28382" d="M306.671,368.657a38.093,38.093,0,0,1-2.732-3.887c-1.632-2.659-2.017-5.372-.99-7.078a3.044,3.044,0,0,1,2.879-1.467,4.236,4.236,0,0,1,2.97,1.54h0c2.6,3.154,2.054,10.03,1.98,10.818l-1.412-.128h0l-1.339,1.632a10.34,10.34,0,0,1-1.357-1.43Zm.55-9.48h0a2.054,2.054,0,0,0-1.5-.788.935.935,0,0,0-.935.44c-.5.825-.367,2.64,1.008,4.877a29.571,29.571,0,0,0,3.025,4.181c.073-2.219-.018-6.766-1.632-8.673Z" transform="translate(-248.178 128.583)" fill="#fff"/>
              <path id="Path_28383" data-name="Path 28383" d="M306.47,367.182l.9-1.834c1.944.917,5.006.807,6.051-.22.257-.257.513-.642.128-1.522s-.587-.752-.843-.807c-1.265-.293-3.521,1.155-4.657,2.145l-1.394-1.6c.385-.33,3.814-3.227,6.509-2.622a3.667,3.667,0,0,1,1.742,5.923C313.034,368.392,308.945,368.356,306.47,367.182Z" transform="translate(-244.769 132.277)" fill="#fff"/>
              <path id="Path_28384" data-name="Path 28384" d="M306.171,366.541a.972.972,0,0,1,0-1.925l3.8-.4a.977.977,0,0,1,.2,1.944l-3.8.4Z" transform="translate(-245.717 135.246)" fill="#fff"/>
              <path id="Path_28385" data-name="Path 28385" d="M308.6,367.361a.972.972,0,0,1-.844-.862.99.99,0,0,1,.88-1.082l3.8-.385a.977.977,0,0,1,.2,1.944l-3.8.385Z" transform="translate(-243.704 135.93)" fill="#fff"/>
              <path id="Path_28386" data-name="Path 28386" d="M311.066,368.141a.972.972,0,0,1-.843-.862.99.99,0,0,1,.88-1.082l3.8-.385a.977.977,0,0,1,.2,1.944l-3.8.385Z" transform="translate(-241.645 136.58)" fill="#fff"/>
              <path id="Path_28387" data-name="Path 28387" d="M347.311,388.458h-45.18s-14.944-23.305-13.7-28.384a6.194,6.194,0,0,1,.77-1.834c4,7.573,12.835,23.837,15.7,26.9l41.935-.11A7.334,7.334,0,0,1,347.311,388.458Z" transform="translate(-259.866 130.272)" fill="#b11722"/>
              <path id="Path_28388" data-name="Path 28388" d="M434.613,238.894,400.929,343.722v.22l-1.1,1.724-77.617,120.6L298.87,451.3s24.79-54.092,35.15-75.178a166.324,166.324,0,0,1,26.129-37.479c10.36-28.843,28.843-117.113,28.843-117.113Z" transform="translate(-251.104 16.308)" fill="#212019"/>
              <path id="Path_28389" data-name="Path 28389" d="M360.909,290.218v.22l-1.1,1.724a44.886,44.886,0,0,1-12.505-4.621,1.063,1.063,0,0,1,1.045-1.834,43.493,43.493,0,0,0,12.56,4.511Z" transform="translate(-211.085 69.74)" fill="#595959"/>
              <path id="Path_28390" data-name="Path 28390" d="M302.852,446.1a1.063,1.063,0,0,1-.935-1.522c.22-.422,21.82-43.072,33.335-70.686s26.037-38.359,28.2-39.881c8.893-19.528,25.4-102,25.561-102.848a1.064,1.064,0,0,1,2.072.422c-.7,3.429-16.888,84.346-25.836,103.581a1.118,1.118,0,0,1-.385.44c-.147,0-15.824,10.69-27.669,39.093-11.552,27.688-33.188,70.392-33.39,70.833A1.082,1.082,0,0,1,302.852,446.1Z" transform="translate(-248.651 23.725)" fill="#595959"/>
              <path id="Path_28391" data-name="Path 28391" d="M354.124,258.115a13.112,13.112,0,0,0,6.234-.147c15.861-4.052,20.9-40.67,21.123-42.173a1.192,1.192,0,0,0-1.027-1.32,1.173,1.173,0,0,0-1.32,1.009c0,.367-5.042,36.672-19.363,40.248a9.168,9.168,0,0,1-9.351-2.365c-3.007-3.209-3.851-8.691-2.127-13.936a1.18,1.18,0,1,0-2.237-.752c-2,6.069-.954,12.469,2.64,16.3A10.8,10.8,0,0,0,354.124,258.115Z" transform="translate(-212.605 10.418)" fill="#fab655"/>
              <path id="Path_28392" data-name="Path 28392" d="M351.551,235.046a18,18,0,0,1-4.309,3.135,2.31,2.31,0,0,1,.238-2.384,12.674,12.674,0,0,0,2.512-2.145c6.656-7.426,5.042-21.838,5.024-22a1.045,1.045,0,0,1,.935-1.155,1.027,1.027,0,0,1,1.155.917C357.181,212.053,358.849,226.942,351.551,235.046Z" transform="translate(-210.968 7.101)" fill="#595959"/>
              <path id="Path_28393" data-name="Path 28393" d="M453.033,148.383l-.752-.7a18.133,18.133,0,0,1-5.061-8.27l-22.7-7.646a33.662,33.662,0,0,1-6.216,1.449l-1.119.147a43.84,43.84,0,0,1-12.358-.385c-10.727-1.834-20.17,7.023-27.229,24.2l-2,4.841c-.128.367-.275.715-.422,1.064-2.677,6.509-5.244,12.725-7.628,18.831l-.7,1.614a269.749,269.749,0,0,0-9.535,28.439c-.513,1.98-1.008,3.942-1.467,5.941-2.054,9.04-9.718,56.347-10.672,69.256,12.285,11.24,62.068,11.808,96.595,2.072a242.652,242.652,0,0,1,1.375-49.361c.367-2.072.77-4.071,1.174-6.014s.788-3.667,1.21-5.5c.458-2.054.953-4.034,1.43-5.959s1.064-4.034,1.614-5.941,1.174-4,1.834-5.886c8.068-25.671,16.961-36.562,17.8-43.072C469.536,157.056,459.909,154.58,453.033,148.383Z" transform="translate(-212.5 -58.517)" fill="#0091ff"/>
              <path id="Path_28394" data-name="Path 28394" d="M397.443,165.316h0c-12.927-4.456-11.332-31.538-11.258-32.693a.807.807,0,0,1,.862-.752.825.825,0,0,1,.752.862c0,.275-1.614,27.009,10.158,31.061a7.921,7.921,0,0,0,7.188-.623c7.059-4.419,8.985-19.62,9-19.766a.807.807,0,0,1,.9-.7.825.825,0,0,1,.715.9c-.092.642-2.035,16.1-9.755,20.94a9.553,9.553,0,0,1-8.563.77Z" transform="translate(-178.4 -58.435)" fill="#fff"/>
              <path id="Path_28396" data-name="Path 28396" d="M399.651,146.045c-5.354-1.834-10.012-8.49-10.268-8.856a.623.623,0,0,1,.11-.788.513.513,0,0,1,.734,0c.092.11,7.884,11.3,14.247,8.4a.5.5,0,0,1,.678.293.587.587,0,0,1-.312.733A6.785,6.785,0,0,1,399.651,146.045Z" transform="translate(-175.729 -54.786)" fill="#383cc5"/>
              <path id="Path_28401" data-name="Path 28401" d="M382.729,181.952a.88.88,0,0,1-.752-.385.917.917,0,0,1,.22-1.284l5.5-3.942a.954.954,0,0,1,1.284.22.935.935,0,0,1-.22,1.284l-5.5,3.942A.862.862,0,0,1,382.729,181.952Z" transform="translate(-181.967 -21.492)" fill="#383cc5"/>
              <path id="Path_28405" data-name="Path 28405" d="M353.791,204.273a.917.917,0,0,1-.477-1.705l5.776-3.667a.935.935,0,0,1,1.265.293.917.917,0,0,1-.293,1.265l-5.776,3.667a1.027,1.027,0,0,1-.5.147Z" transform="translate(-206.093 -2.667)" fill="#383cc5"/>
              <path id="Path_28407" data-name="Path 28407" d="M362.446,217.936a.954.954,0,0,1-.7-.312l-4.456-5.171a.9.9,0,0,1,.092-1.284.935.935,0,0,1,1.3,0l4.456,5.152a.935.935,0,0,1-.11,1.3A.9.9,0,0,1,362.446,217.936Z" transform="translate(-202.591 7.452)" fill="#383cc5"/>
              <path id="Path_28414" data-name="Path 28414" d="M369.48,183.445a.88.88,0,0,1-.7-.312.9.9,0,0,1,.092-1.284l5.1-4.529a.935.935,0,0,1,1.3.092.9.9,0,0,1-.092,1.283l-5.1,4.529a.99.99,0,0,1-.605.22Z" transform="translate(-193.013 -20.73)" fill="#383cc5"/>
              <path id="Path_28415" data-name="Path 28415" d="M367.777,204.837a.935.935,0,0,1-.862-.587l-2.42-6.381a.92.92,0,0,1,1.724-.642l2.42,6.381a.935.935,0,0,1-.55,1.173A.863.863,0,0,1,367.777,204.837Z" transform="translate(-196.444 -4.441)" fill="#383cc5"/>
              <path id="Path_28416" data-name="Path 28416" d="M380.1,175.764a.935.935,0,0,1-.862-.587l-2.53-6.326a.917.917,0,1,1,1.687-.678l2.622,6.308a.917.917,0,0,1-.513,1.192,1.063,1.063,0,0,1-.4.092Z" transform="translate(-186.319 -28.744)" fill="#383cc5"/>
              <path id="Path_28418" data-name="Path 28418" d="M413.394,143.688l-1.98,5.868a20.163,20.163,0,0,1-2.567.752c-12.23,2.677-20.647-8.581-20.647-8.581l6.839-20.316,16.154,19.62Z" transform="translate(-176.637 -67.153)" fill="#f6ad84"/>
              <path id="Path_28419" data-name="Path 28419" d="M408.892,138.537l-1.98,5.868a20.165,20.165,0,0,1-2.567.752c-7.5-6.344-10.745-17.566-10.745-17.566l13.092,8.288Z" transform="translate(-172.136 -62.002)" fill="#212019"/>
              <path id="Path_28420" data-name="Path 28420" d="M397.577,109.65s-6.858,0-7.444,3.942a3.667,3.667,0,0,0,2.64,4.492s-8.27,3.209-6.454,6.876a4.914,4.914,0,0,0,5.079,3.062s-6.014,6.8-2.054,10.177,12.725-2.512,12.725-2.512S409.165,112.529,397.577,109.65Z" transform="translate(-178.423 -76.957)" fill="#212019"/>
              <path id="Path_28421" data-name="Path 28421" d="M412.626,107.61s10.4,6.674,3.08,14.541C415.707,122.151,410.994,111.369,412.626,107.61Z" transform="translate(-156.562 -78.657)" fill="#212019"/>
              <path id="Path_28422" data-name="Path 28422" d="M412.059,121.136s4.657-2.824,5.207,1.834-3.667,12.047-8.2,9.04Z" transform="translate(-159.24 -68.089)" fill="#e2806d"/>
              <path id="Path_28423" data-name="Path 28423" d="M425.864,149.2s-4.052,12.12-16.649,7.848S391.483,140.105,391.19,139.5h0l.715-2.6,3.667-13.44,2-7.206s2.677-13.257,15.531-11.5c9.406,1.284,17.2,5.5,19.821,11.552a11.424,11.424,0,0,1,.623,7.334l-3.887,12.835-.953,3.154Z" transform="translate(-174.145 -81.173)" fill="#f6ad84"/>
              <path id="Path_28424" data-name="Path 28424" d="M404.456,129.056a6.693,6.693,0,0,1-2.53-1.394.513.513,0,0,1,.7-.733h0a5.354,5.354,0,0,0,4.364,1.265.505.505,0,0,1,.2.99,5.592,5.592,0,0,1-2.732-.128Z" transform="translate(-165.279 -62.624)" fill="#e2806d"/>
              <path id="Path_28425" data-name="Path 28425" d="M408.717,124.909a14.246,14.246,0,0,1-2.365-.22.44.44,0,0,1-.367-.532.458.458,0,0,1,.513-.367,11.422,11.422,0,0,0,2.9.2l-2.292-3.667a.44.44,0,0,1,0-.367l.807-2.659a.44.44,0,0,1,.55-.312.458.458,0,0,1,.312.568l-.752,2.475,2.549,4.052a.5.5,0,0,1-.293.66,5.245,5.245,0,0,1-1.559.165Z" transform="translate(-161.82 -70.854)"/>
              <path id="Path_28426" data-name="Path 28426" d="M401.859,121.67a97.182,97.182,0,0,0,11.093,5.776,6.619,6.619,0,0,1-8.16,2.934C400.3,128.528,401.859,121.67,401.859,121.67Z" transform="translate(-165.469 -66.937)" fill="#fff"/>
              <path id="Path_28427" data-name="Path 28427" d="M409.612,115.589a1.522,1.522,0,0,0,.917-2.274,3.667,3.667,0,0,0-2.952-1.705c-3.429-.312-8.453,2.7-6.619,4.474C402.3,117.386,407.119,116.286,409.612,115.589Z" transform="translate(-166.328 -75.341)" fill="#212019"/>
              <path id="Path_28428" data-name="Path 28428" d="M409.948,116.137a1.522,1.522,0,0,1,.495-2.4,3.667,3.667,0,0,1,3.411.22c3.026,1.632,5.024,6.839,2.512,7.334C414.532,121.62,411.635,118.154,409.948,116.137Z" transform="translate(-158.834 -73.817)" fill="#212019"/>
              <path id="Path_28429" data-name="Path 28429" d="M392.374,116.033a10.71,10.71,0,0,0,.128,5.648,7.848,7.848,0,0,1,4.346,6.528l2.989,1.485a33,33,0,0,0,2.384-9.168c.183-3.264,3.3-3.264,4.841-5.666a3.52,3.52,0,0,0,.77-2.292,12.359,12.359,0,0,1,10.452,1.522c4.8,3.466,9.517,5.684,13.074,3.264a3.282,3.282,0,0,0,.917-.9c-2.622-6.014-10.415-10.268-19.8-11.552-12.835-1.834-17.584,3.19-17.584,3.19C392.943,110.661,392.979,113.374,392.374,116.033Z" transform="translate(-173.422 -81.249)" fill="#212019"/>
              <g id="Group_1261" data-name="Group 1261">
                <path id="Path_28430" data-name="Path 28430" d="M392.62,111.579s22.242-1.155,36.342,3.062l1.082.348a25.928,25.928,0,0,1,4,1.65,17.529,17.529,0,0,0-9.168-13.349,24.886,24.886,0,0,0-3.355-1.687,32.789,32.789,0,0,0-5.5-1.834h-.22c-.532-.11-1.082-.22-1.6-.293a25.267,25.267,0,0,0-4.547-.367h-1.082a19.051,19.051,0,0,0-6.876,1.65,16.949,16.949,0,0,0-1.834.953,15.971,15.971,0,0,0-7.243,9.865Z" transform="translate(-172.953 -85.743)" fill="#dc5f34"/>
                <path id="Path_28431" data-name="Path 28431" d="M408.42,100.47a19.253,19.253,0,0,1,7.335,13.037,4.682,4.682,0,0,0,.092,1.119h1.045a4.693,4.693,0,0,0,0-.715,19.821,19.821,0,0,0-5.1-11.7,24.882,24.882,0,0,0-3.374-1.742Z" transform="translate(-159.782 -84.609)" fill="#b11722"/>
                <path id="Path_28432" data-name="Path 28432" d="M404.39,99.33a17,17,0,0,1,4.621,10.232h1.045a18.52,18.52,0,0,0-3.851-9.828h-.22A6,6,0,0,0,404.39,99.33Z" transform="translate(-163.141 -85.559)" fill="#b11722"/>
                <path id="Path_28433" data-name="Path 28433" d="M401.484,99.167c-.5,2.585-1.008,8.123,2.329,12.157l.807-.678c-3.117-3.777-2.512-9.168-2.054-11.515Z" transform="translate(-165.865 -85.726)" fill="#b11722"/>
                <path id="Path_28434" data-name="Path 28434" d="M395.567,110.593l1.027-.22c-.77-3.667,1.1-7.7,2.769-10.323a16.949,16.949,0,0,0-1.834.953A14.485,14.485,0,0,0,395.567,110.593Z" transform="translate(-170.619 -84.959)" fill="#b11722"/>
                <path id="Path_28435" data-name="Path 28435" d="M434.694,116.868a53.78,53.78,0,0,0-41.861-2.475,6.6,6.6,0,0,1,.385-7.059s22.627-9.81,41.751,4.034A5.079,5.079,0,0,1,434.694,116.868Z" transform="translate(-173.477 -81.699)" fill="#b11722"/>
              </g>
              <path id="Path_28438" data-name="Path 28438" d="M405.679,117.694c-.4,1.21-1.284,2.017-1.962,1.834s-.9-1.394-.5-2.6,1.284-2,1.962-1.834S406.082,116.483,405.679,117.694Z" transform="translate(-164.283 -72.44)" fill="#212019"/>
              <path id="Path_28439" data-name="Path 28439" d="M412.211,119.894c-.422,1.21-1.3,2.017-1.98,1.834s-.88-1.394-.477-2.6,1.284-2,1.962-1.834S412.633,118.61,412.211,119.894Z" transform="translate(-158.842 -70.606)" fill="#212019"/>
              <path id="Path_28440" data-name="Path 28440" d="M396.783,121.67c-.092.11-2.934,3.282-5.593,3.667h0l.715-2.6a9.168,9.168,0,0,0,4.877-1.063Z" transform="translate(-174.145 -66.937)" fill="#212019"/>
              <path id="Path_28441" data-name="Path 28441" d="M399.243,119.07s-2.659-8.123-7.921-4.217c-4.346,3.227-2.512,16.081,4.547,14.266Z" transform="translate(-175.982 -73.505)" fill="#f6ad84"/>
              <path id="Path_28442" data-name="Path 28442" d="M390.469,120.484a1.173,1.173,0,1,0,1.485-.733,1.155,1.155,0,0,0-1.485.733Z" transform="translate(-174.799 -68.592)" fill="#fff"/>
              <path id="Path_28443" data-name="Path 28443" d="M394.176,125.513h0a.55.55,0,0,0,.642-.4,9.883,9.883,0,0,0-2.934-9.37.513.513,0,0,0-.733,0,.532.532,0,0,0,0,.752h0a8.765,8.765,0,0,1,2.585,8.325.532.532,0,0,0,.44.7Z" transform="translate(-174.307 -72.008)" fill="#212019"/>
              <path id="Path_28444" data-name="Path 28444" d="M390.909,119.091a.459.459,0,0,0,.348,0h0a4.144,4.144,0,0,1,2.952-.11.532.532,0,0,0,.568-.88,4.951,4.951,0,0,0-3.887,0,.5.5,0,0,0-.293.66.513.513,0,0,0,.312.33Z" transform="translate(-174.671 -70.243)" fill="#212019"/>
              <path id="Path_28445" data-name="Path 28445" d="M407.689,221.553l-1.247.11h-1.155l-2.255.147c-1.5,0-2.989.165-4.474.2-2.989.11-5.978.147-8.985.11a132.862,132.862,0,0,1-18.336-1.375,83.684,83.684,0,0,1-9.7-2.072,48.812,48.812,0,0,1-10.342-4.162,32.8,32.8,0,0,1-5.5-3.667,27.284,27.284,0,0,1-5.116-5.629,25.178,25.178,0,0,1-2.035-3.667c-.293-.642-.568-1.3-.807-1.98l-.33-1.008v-.165a5.841,5.841,0,0,1-.147-.605,9.417,9.417,0,0,1-.238-1.21,14.952,14.952,0,0,1-.165-2.109,7.965,7.965,0,0,1,0-.954V191.94a1.348,1.348,0,0,1,.128-.7,8.7,8.7,0,0,0,.293-1.192l.33-.972a18.334,18.334,0,0,1,1.284-2.769,19.578,19.578,0,0,1,1.137-1.834c.348-.5.715-1.008,1.045-1.467,1.339-1.724,2.549-3.044,3.667-4.291s2.329-2.347,3.484-3.429c2.274-2.145,4.547-4.107,6.8-6.033,4.529-3.814,9.076-7.334,13.642-10.892s9.168-6.894,13.77-10.25c2.292-1.687,4.621-3.356,6.931-5.006l3.5-2.475,3.557-2.494a13.925,13.925,0,1,1,15.952,22.829l-.44.293-.183.11-3.117,2.237-3.466,2.255q-3.466,2.255-6.894,4.547-6.876,4.6-13.569,9.333c-4.456,3.154-8.856,6.363-13.019,9.626-2.072,1.632-4.089,3.264-5.959,4.9h-.092a26.642,26.642,0,0,0,2.934,1.119,50.994,50.994,0,0,0,6.693,1.669,105.9,105.9,0,0,0,15.054,1.669c2.585.128,5.207.165,7.83.165h8.086a11.442,11.442,0,1,1,1.577,22.829Z" transform="translate(-219.45 -55.299)" fill="#f6ad84"/>
              <path id="Path_28446" data-name="Path 28446" d="M346.512,167.884a.605.605,0,0,1-.312-.513.623.623,0,0,1,.587-.66,46.871,46.871,0,0,1,10.452,1.137.642.642,0,0,1,.477.752.6.6,0,0,1-.752.477,47.823,47.823,0,0,0-10.1-1.119.568.568,0,0,1-.348-.073Z" transform="translate(-211.65 -29.391)" fill="#e2806d"/>
              <path id="Path_28447" data-name="Path 28447" d="M354.4,170.441a.586.586,0,0,1-.257-.257,13.239,13.239,0,0,0-5.372-4.346.628.628,0,1,1,.5-1.155,14.027,14.027,0,0,1,6,4.914.63.63,0,0,1-.862.843Z" transform="translate(-209.822 -31.123)" fill="#e2806d"/>
              <path id="Path_28448" data-name="Path 28448" d="M374.418,174.48s-.55-7.628,4.456-7.646a38.85,38.85,0,0,1,8.948.843Z" transform="translate(-188.141 -29.295)" fill="#f6ad84"/>
              <path id="Path_28449" data-name="Path 28449" d="M376.217,166.086l5.813,34.38a.935.935,0,0,0,1.045.843l17.4-2.952a.935.935,0,0,0,.715-1.137L395.378,162.9a.953.953,0,0,0-1.045-.843L376.932,165a.935.935,0,0,0-.715,1.082Z" transform="translate(-186.64 -33.277)" fill="#212019"/>
              <path id="Path_28450" data-name="Path 28450" d="M399.087,188.131c-5.886,1.119-11.643,7.921-18.483,7.921-3.979,0-7.335-3.869-8.251-11a12.3,12.3,0,0,1,6.674-12.3,70.505,70.505,0,0,1,16.759-6.436c9.168-1.944,8.728.642,8.673,2.9,0,.953-1.008,1.412-2.475,2.219,0,0,1.6-.348,1.577,1.834a4,4,0,0,1-1.449,3.209s1.449,1.21,1.192,2.494a6.141,6.141,0,0,1-1.045,2.274,2.824,2.824,0,0,1,2.219,2.2C404.771,184.446,404.478,187.086,399.087,188.131Z" transform="translate(-189.908 -30.294)" fill="#f6ad84"/>
              <path id="Path_28451" data-name="Path 28451" d="M371.508,170.89s-1.834,12.634,1.834,22.407a7.426,7.426,0,0,0,5.611,0,46.115,46.115,0,0,1-1.705-23.049C375.231,169.625,372.3,169.754,371.508,170.89Z" transform="translate(-190.934 -26.75)" fill="#212019"/>
              <path id="Path_28452" data-name="Path 28452" d="M382.642,174.747c.183,2.989-2.842,5.593-6.766,5.849s-7.334-1.98-7.444-4.969,2.842-5.611,6.766-5.849S382.458,171.758,382.642,174.747Z" transform="translate(-193.119 -26.848)" fill="#212019"/>
              <path id="Path_28453" data-name="Path 28453" d="M382.641,174.624c.238,4.217-2.842,6.4-6.766,6.638s-7.463-1.834-7.444-6.2c0-2.989,2.842-4.364,6.766-4.6S382.476,171.635,382.641,174.624Z" transform="translate(-193.118 -26.284)" fill="#212019"/>
              <path id="Path_28454" data-name="Path 28454" d="M374.877,178.422c-2.824.183-5.226-1.43-5.354-3.667s2.035-4.034,4.859-4.2,5.226,1.412,5.354,3.667S377.737,178.257,374.877,178.422Z" transform="translate(-192.212 -26.195)" fill="#fff"/>
              <path id="Path_28455" data-name="Path 28455" d="M373.958,185.051l-1.412-1.705-.55-.678L362.682,171.3l-.568-.7L351.9,158.152a84.677,84.677,0,0,1,10.085-8.013c.458-.33.917-.678,1.43-1.027,3.135-2.237,7.188-5.061,12.56-8.765A34.324,34.324,0,0,1,385.6,135.4l.88-.238a23.838,23.838,0,0,1,5.061-.678,16.209,16.209,0,0,1,16.191,11,15.769,15.769,0,0,1-.9,12.157C400.986,169.612,373.958,185.051,373.958,185.051Z" transform="translate(-206.898 -56.276)" fill="#0091ff"/>
              <path id="Path_28461" data-name="Path 28461" d="M363.909,170.15a.458.458,0,0,1-.22-.2.624.624,0,0,1,.183-.88l24.479-15.916a.642.642,0,1,1,.7,1.063l-24.5,15.916A.623.623,0,0,1,363.909,170.15Z" transform="translate(-197.16 -40.825)" fill="#383cc5"/>
              <path id="Path_28463" data-name="Path 28463" d="M345.183,180.4l61.94,21.27s-11.478,54.183-38.084,61.683c-22.168,6.253-48.022-11-41.11-37.992a195.358,195.358,0,0,1,17.254-44.96Z" transform="translate(-227.831 -17.978)" fill="#dc5f34"/>
              <path id="Path_28464" data-name="Path 28464" d="M348.191,186.58a2.842,2.842,0,1,1-.832-2.028,2.86,2.86,0,0,1,.832,2.028Z" transform="translate(-214.759 -15.211)" fill="#b11722"/>
              <path id="Path_28465" data-name="Path 28465" d="M363.731,192.63a2.842,2.842,0,1,1-.826-2.021A2.86,2.86,0,0,1,363.731,192.63Z" transform="translate(-201.804 -10.167)" fill="#b11722"/>
              <path id="Path_28467" data-name="Path 28467" d="M346.27,178.83c-1.925,6.949-2.97,11.405-2.989,11.5a1.449,1.449,0,1,0,2.824.642c0-.165,1.008-4.327,2.805-10.818A22.163,22.163,0,0,0,346.27,178.83Z" transform="translate(-214.121 -19.287)" fill="#212019"/>
              <path id="Path_28468" data-name="Path 28468" d="M368.831,143.343a34.84,34.84,0,0,1,8.1-6.6,16.393,16.393,0,0,1,13.825-1.6,8.655,8.655,0,0,1,5.666,5.666c4.4,12.267-6.4,38.873-17.749,61.518a29.32,29.32,0,0,0,3.355-.128c11.313-22.829,21.783-49.508,17.126-62.343a11.625,11.625,0,0,0-7.481-7.463,19.4,19.4,0,0,0-16.154,1.834q-7.536,4.208-14.834,14.669c2.512-1.742,5.006-3.484,7.334-5.372a.7.7,0,0,1,.807-.183Z" transform="translate(-199.57 -58.813)" fill="#212019"/>
              <path id="Path_28469" data-name="Path 28469" d="M367.792,182.811c-5.171,9.168-8.655,14.669-8.8,14.926a1.449,1.449,0,0,0,.458,2,1.485,1.485,0,0,0,.77.22,1.412,1.412,0,0,0,1.229-.7c.568-.88,4.456-6.821,9.847-16.374C370.194,182.921,368.929,182.792,367.792,182.811Z" transform="translate(-201.172 -15.97)" fill="#212019"/>
              <path id="Path_28470" data-name="Path 28470" d="M403.792,179.192l.458.99.422.917.862,1.834,1.834,3.667c1.21,2.384,2.42,4.767,3.667,7.133s2.585,4.731,3.942,7.059,2.787,4.676,4.254,7,3.025,4.621,4.676,6.931,3.374,4.621,5.354,6.931c.99,1.155,2.035,2.329,3.19,3.5a47.685,47.685,0,0,0,3.906,3.667c.385.293.77.605,1.192.9l.623.458.165.128.238.165.513.33a18.006,18.006,0,0,0,5.647,2.347,16.5,16.5,0,0,0,3.869.367,16.117,16.117,0,0,0,7.243-2,15.892,15.892,0,0,0,2.494-1.65,18.622,18.622,0,0,0,1.834-1.669,20.176,20.176,0,0,0,1.375-1.577,27.127,27.127,0,0,0,1.98-2.86,38.485,38.485,0,0,0,2.457-4.951c.66-1.54,1.173-3.026,1.65-4.474s.862-2.842,1.247-4.236c.752-2.787,1.375-5.5,1.944-8.141s1.045-5.318,1.5-7.94l.678-3.906.623-3.869,1.21-7.646c.385-2.512.788-5.006,1.21-7.335.2-1.21.422-2.4.642-3.557s.458-2.255.7-3.264v-.257a9.5,9.5,0,0,0-18.135-5.5c-1.1,2.915-1.834,5.5-2.64,8.178s-1.394,5.207-2.054,7.756L450.9,189.588c-.623,2.457-1.265,4.859-1.944,7.206s-1.339,4.676-2.072,6.839l-.275.788-.165-.238-.385-.513-.44-.807c-.532-.715-1.045-1.467-1.577-2.219-1.32-1.944-2.6-3.942-3.887-6s-2.549-4.162-3.8-6.289-2.475-4.272-3.667-6.454-2.42-4.346-3.667-6.546c-.605-1.1-1.192-2.2-1.834-3.282l-1.705-3.227-.11-.2A12.067,12.067,0,0,0,403.7,179.265Z" transform="translate(-164.744 -41.175)" fill="#f6ad84"/>
              <path id="Path_28471" data-name="Path 28471" d="M424.132,191.937a.568.568,0,0,0,.5.642h0a.55.55,0,0,0,.623-.5,50.46,50.46,0,0,1,3.062-11l-.385-.513-.367-.568-.642,1.632c-.165.458-.348.954-.532,1.485A48.108,48.108,0,0,0,424.132,191.937Z" transform="translate(-146.688 -18.312)" fill="#e2806d"/>
              <path id="Path_28472" data-name="Path 28472" d="M423.751,184.32a.569.569,0,0,0,.4-.11,15.441,15.441,0,0,1,4.052-2.255.587.587,0,0,0,.44-.7.55.55,0,0,0-.678-.44,16.392,16.392,0,0,0-4.511,2.457.605.605,0,0,0-.128.825.568.568,0,0,0,.422.22Z" transform="translate(-147.443 -17.644)" fill="#e2806d"/>
              <path id="Path_28473" data-name="Path 28473" d="M434.956,171.09s3.924,9.443,11.57,9.5c6.161,0,10.36-6.858,11.735-9.517.33-.623.5-1.027.5-1.027a9.392,9.392,0,0,0,1.1-.22c1.522-.367,4.144-1.32,4.767-3.447.88-3.007-5.042-3.539-5.042-3.539s2.237-3.19,1.1-4.841-4.987-1.137-4.987-1.137,3.447-3.667,1.54-5.5c-2.86-2.989-6.179,1.834-6.454,2.109.183-.367,9.755-15.256,6.638-15.567-2.714-.257-11.772,11.735-13.844,15.182l-.513.862a4.312,4.312,0,0,0-.513-.2c-1.577-.605-6.326-2.054-8.471.788C431.49,157.98,434.956,171.09,434.956,171.09Z" transform="translate(-139.193 -53.409)" fill="#f6ad84"/>
              <path id="Path_28474" data-name="Path 28474" d="M446.745,155.666A6.2,6.2,0,0,0,444.71,159a1.834,1.834,0,0,0,.642,1.705,3.8,3.8,0,0,0,1.449.623,19.876,19.876,0,0,0,4.969.183c.33-.623.495-1.027.495-1.027a9.388,9.388,0,0,0,1.1-.22.641.641,0,0,0-.33,0c-2.182.238-6,.348-6.931-.422a.734.734,0,0,1-.22-.678,7.206,7.206,0,0,1,3.539-3.979.568.568,0,0,0,.293-.733.6.6,0,0,0-.7-.367c-1.412.367-5.373,1.045-6.748-.092-.183-.183-.183-.293-.165-.348a1.98,1.98,0,0,1,.678-1.009,14.283,14.283,0,0,1,3.1-2.072.587.587,0,0,0,.257-.257.605.605,0,0,0,0-.532.623.623,0,0,0-.807-.275,16.245,16.245,0,0,0-3.117,2.054,5.021,5.021,0,0,0-1.027,1.173,2.162,2.162,0,0,0-.275.77,1.541,1.541,0,0,0,.587,1.394,7.481,7.481,0,0,0,5.244.77Z" transform="translate(-132.702 -43.779)" fill="#e2806d"/>
              <path id="Path_28475" data-name="Path 28475" d="M441.115,148.6a.568.568,0,0,1,.2.642,3.778,3.778,0,0,0-.2,1.834.66.66,0,0,0,.422.532,2.365,2.365,0,0,0,1.045,0,16.5,16.5,0,0,0,3.906-1.229.531.531,0,0,1-.257.238,14.355,14.355,0,0,0-3.1,2.09h-.4a4.237,4.237,0,0,1-1.174,0l-.4-.092a1.834,1.834,0,0,1-1.192-1.375,4.989,4.989,0,0,1,.238-2.53.587.587,0,0,1,.917-.275Z" transform="translate(-133.545 -44.727)" fill="#e2806d"/>
              <path id="Path_28476" data-name="Path 28476" d="M435.07,153.313a19.107,19.107,0,0,0,4.364,1.65,6.472,6.472,0,0,0,3.5,0,2.916,2.916,0,0,0,1.834-1.65c1.247-2.879-1.064-5.7-2.549-7.133l-.513.862a4.3,4.3,0,0,0-.513-.2c1.265,1.155,3.521,3.667,2.494,6a1.833,1.833,0,0,1-1.1,1.027c-1.98.678-5.666-.917-6.931-1.6a.6.6,0,0,0-.587,1.045Z" transform="translate(-137.804 -46.505)" fill="#e2806d"/>
              <path id="Path_28477" data-name="Path 28477" d="M440.109,164.635a.642.642,0,0,0,.568-.165.605.605,0,0,0,0-.843,5.3,5.3,0,0,1-1.834-4.089c.092-3.906,4.419-7.61,4.456-7.646a.587.587,0,1,0-.752-.9c-.2.165-4.786,4.089-4.877,8.508a6.436,6.436,0,0,0,2.255,4.987.676.676,0,0,0,.183.147Z" transform="translate(-135.399 -42.626)" fill="#e2806d"/>
              <path id="Path_28478" data-name="Path 28478" d="M421.543,148.26s9.406,25.267,16.5,34.839c0,0-11.148,16.338-27.816,17.456l-9.48-18.63S408.194,151.322,421.543,148.26Z" transform="translate(-166.176 -44.771)" fill="#0091ff"/>
              <path id="Path_28481" data-name="Path 28481" d="M403.688,184.912h0a.623.623,0,0,1-.367-.825c0-.183,6.8-18.171,12.67-27.027a.642.642,0,0,1,.88-.183.66.66,0,0,1,.183.9c-5.776,8.728-12.469,26.587-12.542,26.771A.642.642,0,0,1,403.688,184.912Z" transform="translate(-164.071 -37.673)" fill="#383cc5"/>
              <path id="Path_28483" data-name="Path 28483" d="M539.73,435.42H656.861L640.744,305.05H555.866Z" transform="translate(-50.32 85.932)" fill="#cb7c1d"/>
              <path id="Path_28484" data-name="Path 28484" d="M542.96,435.42H660.11L643.974,305.05H559.1Z" transform="translate(-47.627 85.932)" fill="#fab655"/>
              <path id="Path_28485" data-name="Path 28485" d="M601.827,357.363c-1.834-3.8-5.684-5.739-9.718-6.986-4.6-1.43-9.37-1.944-11.313-3.3a1.833,1.833,0,0,1-.88-1.5c0-1.357,1.229-2.475,4.841-2.512h.733a25.34,25.34,0,0,1,10.837,3.025l.844.44,1.082-2.42,3.5-7.775a28.233,28.233,0,0,0-7.463-2.989,35.927,35.927,0,0,0-4.694-.862l.11-3.887v-2.585l-8.526-.238L581,332.353c-9.938,1.1-15.054,6.711-15.256,13.532a11.5,11.5,0,0,0,1.21,5.758,11.369,11.369,0,0,0,4.694,4.658,41.387,41.387,0,0,0,11,3.667c3.484.844,6.088,1.614,6.033,3.41,0,1.449-1.522,2.255-5.5,2.127a24.683,24.683,0,0,1-5.208-.715,28.46,28.46,0,0,1-8.636-3.539l-4.9,10.25a23.642,23.642,0,0,0,4.676,2.31,41.44,41.44,0,0,0,10.727,2.365l-.092,3.667v2.714l8.526.238.183-6.693c9.406-1.375,14.284-6.913,14.467-13.44a11.7,11.7,0,0,0-1.1-5.3Z" transform="translate(-29.721 103.204)" fill="#cb7c1d"/>
              <path id="Path_28486" data-name="Path 28486" d="M582.89,310.427a3.979,3.979,0,1,0,1.165-2.832,4,4,0,0,0-1.165,2.832Z" transform="translate(-14.341 87.082)" fill="#cb7c1d"/>
              <path id="Path_28487" data-name="Path 28487" d="M560.56,310.427a4.016,4.016,0,1,0,4-4A4.016,4.016,0,0,0,560.56,310.427Z" transform="translate(-32.955 87.082)" fill="#cb7c1d"/>
              <path id="Path_28488" data-name="Path 28488" d="M604.174,333.519h0a1.669,1.669,0,0,0,1.614-1.834,176.828,176.828,0,0,0-3.117-25.377c-3.887-18.666-10.4-28.128-19.326-28.128s-15.274,9.461-18.831,28.146A174.077,174.077,0,0,0,562,331.795a1.668,1.668,0,0,0,1.65,1.724h0a1.669,1.669,0,0,0,1.669-1.632c.348-15.439,4.016-50.369,18.061-50.369s18.446,34.839,19.106,50.333a1.687,1.687,0,0,0,1.687,1.668Z" transform="translate(-31.755 63.533)" fill="#212019"/>
              <path id="Path_28489" data-name="Path 28489" d="M599.632,332.693h0a1.613,1.613,0,0,0,1.558-1.705,169.476,169.476,0,0,0-3.08-24.625c-3.667-18.043-10.048-27.193-18.685-27.193s-14.779,9.168-18.208,27.229a167.74,167.74,0,0,0-2.567,24.552,1.632,1.632,0,0,0,1.6,1.669h0a1.632,1.632,0,0,0,1.632-1.577c.367-14.944,4.016-48.627,17.548-48.627s17.841,33.72,18.483,48.664a1.614,1.614,0,0,0,1.724,1.613Z" transform="translate(-34.548 64.358)" fill="#212019"/>
              <path id="Path_28490" data-name="Path 28490" d="M570.327,357.412h0c.715,0,1.265-.972,1.21-2.054a90.421,90.421,0,0,0-3.3-19.363c-4.254-14.229-11.79-21.765-21.765-21.765s-17.4,7.555-21.4,21.8a89.184,89.184,0,0,0-2.934,19.381c0,1.082.532,2,1.247,2h0c.678,0,1.21-.77,1.265-1.834a82.917,82.917,0,0,1,2.769-18.226c3.667-12.835,10.03-19.4,19.051-19.4s15.6,6.564,19.473,19.528a83.167,83.167,0,0,1,3.081,18.153C569.117,356.678,569.667,357.43,570.327,357.412Z" transform="translate(-64.983 93.585)" fill="#212019"/>
              <path id="Path_28491" data-name="Path 28491" d="M503.22,414.7H623.487l-11.075-84.75H514.3Z" transform="translate(-80.755 106.689)" fill="#383cc5"/>
              <path id="Path_28492" data-name="Path 28492" d="M506.68,414.7H626.947l-11.075-84.75H517.755Z" transform="translate(-77.871 106.689)" fill="#5a78ed"/>
              <path id="Path_28493" data-name="Path 28493" d="M527.34,363.552a22.26,22.26,0,1,0,22.242-22.242A22.26,22.26,0,0,0,527.34,363.552Zm12.487,8.233a28.9,28.9,0,0,1-1.192-7.811H548.72v7.811Zm5.244,11.735a20.371,20.371,0,0,1-13.33-9.957h6.784a24.794,24.794,0,0,0,3.869,7.1,22.142,22.142,0,0,0,2.659,2.86Zm3.667-9.957v10.452a18.814,18.814,0,0,1-4.951-4.511,23.409,23.409,0,0,1-3.319-5.941Zm-7.775-20.958a27.963,27.963,0,0,1,6.968-9.443h.807v9.5Zm-8.618,0a20.683,20.683,0,0,1,12.469-8.948,29.142,29.142,0,0,0-2.805,3.484,27.367,27.367,0,0,0-3.007,5.5Zm6.344,9.59a25.272,25.272,0,0,1,1.54-7.811h8.49v7.811Zm-9.48,0a20.428,20.428,0,0,1,2.127-7.811h6.986a27.067,27.067,0,0,0-1.43,7.811Zm7.665,1.834a31.5,31.5,0,0,0,1.118,7.811h-7.115a20.407,20.407,0,0,1-1.705-7.811Zm25.285,0h7.921a20.408,20.408,0,0,1-1.705,7.811h-7.334a31.5,31.5,0,0,0,1.082-7.866ZM550.517,352.66v-9.5h.568a26.994,26.994,0,0,1,4.529,5.061,26.567,26.567,0,0,1,2.475,4.4Zm8.306,1.834a26.034,26.034,0,0,1,1.54,7.811h-9.81v-7.811Zm1.229-1.834a29.345,29.345,0,0,0-3.007-5.5,30.261,30.261,0,0,0-2.879-3.539,20.573,20.573,0,0,1,12.744,9Zm.33,11.368a29.623,29.623,0,0,1-1.192,7.811h-8.636v-7.811Zm1.834-1.834a27.724,27.724,0,0,0-1.449-7.811h7.206a20.425,20.425,0,0,1,2.127,7.811Zm5.318,11.368a20.646,20.646,0,0,1-13.605,10.012,20.822,20.822,0,0,0,2.75-2.915,24.792,24.792,0,0,0,3.869-7.1Zm-8.893,0a21.105,21.105,0,0,1-8.068,10.323V373.563Z" transform="translate(-60.648 116.159)" fill="#383cc5"/>
              <path id="Path_28494" data-name="Path 28494" d="M524.76,335.982a3.851,3.851,0,1,0,3.851-4.052,3.961,3.961,0,0,0-3.851,4.052Z" transform="translate(-62.799 108.34)" fill="#383cc5"/>
              <path id="Path_28495" data-name="Path 28495" d="M550.1,335.982a3.851,3.851,0,1,0,3.851-4.052,3.961,3.961,0,0,0-3.851,4.052Z" transform="translate(-41.675 108.34)" fill="#383cc5"/>
              <path id="Path_28496" data-name="Path 28496" d="M573.868,352.3a1.265,1.265,0,0,1-1.247-1.137,80.978,80.978,0,0,0-2.75-14.137C566,324.062,559.437,317.5,550.4,317.5s-15.421,6.509-19.051,19.381a80.982,80.982,0,0,0-2.512,14.266,1.265,1.265,0,0,1-1.247,1.155h0a1.265,1.265,0,0,1-1.265-1.375,84.354,84.354,0,0,1,2.7-15.4c3.979-14.266,11.387-21.8,21.38-21.8s17.511,7.518,21.765,21.747a86.353,86.353,0,0,1,2.971,15.439,1.284,1.284,0,0,1-1.265,1.394Z" transform="translate(-61.5 93.159)" fill="#212019"/>
            </g>
          </g>
        </g>
        <path id="Icon_awesome-cart-plus" data-name="Icon awesome-cart-plus" d="M13.633,8.644H5.715l.177.864h7.25a.648.648,0,0,1,.632.792l-.149.656a1.513,1.513,0,1,1-1.718.281H6.245a1.513,1.513,0,1,1-1.811-.231l-1.9-9.277H.648A.648.648,0,0,1,0,1.08V.648A.648.648,0,0,1,.648,0h2.77a.648.648,0,0,1,.635.518L4.3,1.729H14.91a.648.648,0,0,1,.632.792L14.266,8.139A.648.648,0,0,1,13.633,8.644ZM11.021,4.538h-1.3V3.458a.432.432,0,0,0-.432-.432H8.86a.432.432,0,0,0-.432.432v1.08h-1.3A.432.432,0,0,0,6.7,4.97V5.4a.432.432,0,0,0,.432.432h1.3v1.08a.432.432,0,0,0,.432.432h.432a.432.432,0,0,0,.432-.432V5.835h1.3a.432.432,0,0,0,.432-.432V4.97A.432.432,0,0,0,11.021,4.538Z" transform="translate(1487.733 311.296)" fill="rgba(0,145,255,0.09)"/>
        <path id="Icon_awesome-cart-plus-2" data-name="Icon awesome-cart-plus" d="M13.633,8.644H5.715l.177.864h7.25a.648.648,0,0,1,.632.792l-.149.656a1.513,1.513,0,1,1-1.718.281H6.245a1.513,1.513,0,1,1-1.811-.231l-1.9-9.277H.648A.648.648,0,0,1,0,1.08V.648A.648.648,0,0,1,.648,0h2.77a.648.648,0,0,1,.635.518L4.3,1.729H14.91a.648.648,0,0,1,.632.792L14.266,8.139A.648.648,0,0,1,13.633,8.644ZM11.021,4.538h-1.3V3.458a.432.432,0,0,0-.432-.432H8.86a.432.432,0,0,0-.432.432v1.08h-1.3A.432.432,0,0,0,6.7,4.97V5.4a.432.432,0,0,0,.432.432h1.3v1.08a.432.432,0,0,0,.432.432h.432a.432.432,0,0,0,.432-.432V5.835h1.3a.432.432,0,0,0,.432-.432V4.97A.432.432,0,0,0,11.021,4.538Z" transform="translate(1570.733 311.296)" fill="rgba(0,145,255,0.09)"/>
        <path id="Icon_awesome-cart-plus-3" data-name="Icon awesome-cart-plus" d="M13.633,8.644H5.715l.177.864h7.25a.648.648,0,0,1,.632.792l-.149.656a1.513,1.513,0,1,1-1.718.281H6.245a1.513,1.513,0,1,1-1.811-.231l-1.9-9.277H.648A.648.648,0,0,1,0,1.08V.648A.648.648,0,0,1,.648,0h2.77a.648.648,0,0,1,.635.518L4.3,1.729H14.91a.648.648,0,0,1,.632.792L14.266,8.139A.648.648,0,0,1,13.633,8.644ZM11.021,4.538h-1.3V3.458a.432.432,0,0,0-.432-.432H8.86a.432.432,0,0,0-.432.432v1.08h-1.3A.432.432,0,0,0,6.7,4.97V5.4a.432.432,0,0,0,.432.432h1.3v1.08a.432.432,0,0,0,.432.432h.432a.432.432,0,0,0,.432-.432V5.835h1.3a.432.432,0,0,0,.432-.432V4.97A.432.432,0,0,0,11.021,4.538Z" transform="translate(1648.733 311.296)" fill="rgba(0,145,255,0.09)"/>
      </g>
      <path id="Path_28497" data-name="Path 28497" d="M397.574,92.6a11.4,11.4,0,0,1-3.7,3.08,11.356,11.356,0,0,1-3.7-3.08c-1.307-1.655-1.242-4.248.617-4.789a2.644,2.644,0,0,1,3.084,1.277,2.65,2.65,0,0,1,3.076-1.3C398.808,88.368,398.877,90.941,397.574,92.6Z" transform="translate(-1291.679 1681.485)" fill="#fc335b"/>
    </g>
  </g>
</svg>
