<svg xmlns="http://www.w3.org/2000/svg" viewBox="0 0 28 28"><defs><style>.cls-1{fill:none;}.cls-2{fill:#0091ff;}</style></defs><g id="Layer_2" data-name="Layer 2"><g id="Layer_2-2" data-name="Layer 2"><rect class="cls-1" width="28" height="28"/><path class="cls-2" d="M24.24,5.63a3.77,3.77,0,0,1,2.31.81A3.55,3.55,0,0,1,28,9.28q0,6.59,0,13.16a3.68,3.68,0,0,1-3.66,3.64q-10.31,0-20.61,0A3.68,3.68,0,0,1,0,22.43q0-7.53,0-15A5.53,5.53,0,0,1,5.48,1.93c5,0,10,0,15.07,0a3.56,3.56,0,0,1,3.34,1.9,5.24,5.24,0,0,1,.35,1.32A2.56,2.56,0,0,1,24.24,5.63Zm-1.87,0a1.49,1.49,0,0,0-1.2-1.76,2.44,2.44,0,0,0-.71-.1H5.64A3.71,3.71,0,0,0,1.9,7.53q0,7.36,0,14.75a1.86,1.86,0,0,0,2,1.95H24.14a1.87,1.87,0,0,0,2-2V18.94c0-.09,0-.18,0-.25a10.94,10.94,0,0,1-1.56-.13,2.77,2.77,0,0,1-2.15-3,2.81,2.81,0,0,1,2.75-2.52h1V9.59A1.88,1.88,0,0,0,24,7.5H7.44a.93.93,0,0,1-.16-1.83,1.85,1.85,0,0,1,.41,0H22.37Zm3.71,11.15V14.93c-.33,0-.64,0-.95,0a.92.92,0,0,0,0,1.84C25.42,16.81,25.75,16.79,26.08,16.79Z"/><path class="cls-2" d="M14,11.21a7.47,7.47,0,0,1,5.19,2.1,1,1,0,0,1,.1,1.37.92.92,0,0,1-1.39,0,5.6,5.6,0,0,0-7.8,0,.93.93,0,1,1-1.28-1.34A7.39,7.39,0,0,1,14,11.21Z"/><path class="cls-2" d="M14,15a3.63,3.63,0,0,1,2.51,1,.92.92,0,0,1,.12,1.36.93.93,0,0,1-1.37,0,1.9,1.9,0,0,0-2.58,0,.94.94,0,0,1-1.37,0,.92.92,0,0,1,.12-1.36A3.71,3.71,0,0,1,14,15Z"/><path class="cls-2" d="M14,18.65a.93.93,0,1,1-.92.93A.94.94,0,0,1,14,18.65Z"/></g></g></svg>