<svg xmlns="http://www.w3.org/2000/svg" viewBox="0 0 28 28"><defs><style>.cls-1{fill:none;}.cls-2{fill:#0091ff;}</style></defs><g id="Layer_2" data-name="Layer 2"><g id="Layer_2-2" data-name="Layer 2"><rect class="cls-1" width="28" height="28"/><path class="cls-2" d="M1.44,27.55H1A1.19,1.19,0,0,1,.43,27V11.09a1,1,0,0,0,0-.1A2.38,2.38,0,0,1,3,9H12.2V5.58a.8.8,0,0,1,.88-.89h2.81c.72,0,.87.1,1.12.79l.81-.24A1.75,1.75,0,0,0,19,3.84a7.81,7.81,0,0,0,.05-1.08A2.4,2.4,0,0,1,21.3.46a2.32,2.32,0,0,1,2.5,2,15.82,15.82,0,0,1,.06,2v.32c.32,0,.6,0,.88,0a2.84,2.84,0,0,1,2.52,1.62,7.1,7.1,0,0,1,.31.92v5s0,.08-.05.12a2.81,2.81,0,0,1-2.44,2.37,23,23,0,0,1-2.35.05h-.57v8.12a2.75,2.75,0,0,1,0,.5,2.37,2.37,0,0,1-2.45,2.07H4.9a.86.86,0,0,0-.46.14C3.43,26.23,2.44,26.89,1.44,27.55ZM12.2,10.62H2.87a.8.8,0,0,0-.85.9V25c0,.07,0,.14,0,.25.6-.41,1.18-.78,1.74-1.17a1.42,1.42,0,0,1,.85-.25h15c.68,0,1-.29,1-1V14.73A5.68,5.68,0,0,1,17,14a.92.92,0,0,1-1,.71c-.93,0-1.87,0-2.81,0a.82.82,0,0,1-.93-.94ZM17,7.14s0,.08,0,.11v4.47a.56.56,0,0,0,.12.31,2.79,2.79,0,0,0,2.24,1.12h5.3A1.31,1.31,0,0,0,26,11.81q0-2.1,0-4.2a1.31,1.31,0,0,0-1.35-1.33H23.17a.8.8,0,0,1-.9-.89c0-.85,0-1.7,0-2.54a.8.8,0,1,0-1.59,0c0,.23,0,.46,0,.69A3.45,3.45,0,0,1,18.3,6.75Zm-3.18,6h1.56V6.29H13.8Z"/><path class="cls-2" d="M11.27,18.55H4.48a.8.8,0,0,1-.82-1.07A.82.82,0,0,1,4.43,17H18a1.34,1.34,0,0,1,.35,0,.79.79,0,0,1-.21,1.56H11.27Z"/><path class="cls-2" d="M11.3,21.73H4.47a.8.8,0,0,1-.8-1.09.78.78,0,0,1,.67-.49,1.47,1.47,0,0,1,.21,0H18a1.67,1.67,0,0,1,.32,0,.79.79,0,0,1-.19,1.56H11.3Z"/><path class="cls-2" d="M7.06,15.38H4.49a.8.8,0,1,1,0-1.59H9.61a.8.8,0,1,1,0,1.59Z"/></g></g></svg>