<svg xmlns="http://www.w3.org/2000/svg" viewBox="0 0 28 28"><defs><style>.cls-1,.cls-3{fill:none;}.cls-2{fill:#0091ff;}.cls-3{stroke:#0091ff;stroke-miterlimit:10;stroke-width:0.7px;}</style></defs><g id="Layer_2" data-name="Layer 2"><g id="Layer_1-2" data-name="Layer 1"><rect class="cls-1" width="28" height="28"/><rect class="cls-1" x="8.11" y="8.11" width="11.77" height="11.77"/><path class="cls-2" d="M25.67,12.37a.45.45,0,0,1-.17-.27c-.1-.65-.13-1.32-.28-2A11.51,11.51,0,0,0,2.51,12.06a.37.37,0,0,1-.21.34,2.43,2.43,0,0,0-1.37,2,31.28,31.28,0,0,0,0,3.75,2.56,2.56,0,0,0,2.19,2.3,1.78,1.78,0,0,0,2.21-1.82V13.86a1.73,1.73,0,0,0-1.23-1.71,3.37,3.37,0,0,0-.34-.09,10.25,10.25,0,0,1,20.45,0l-.22.06a1.69,1.69,0,0,0-1.33,1.61c0,1.69,0,3.39,0,5.08a1.7,1.7,0,0,0,1.22,1.59,3.15,3.15,0,0,0,.36.09c0,.46,0,.91,0,1.36a2.48,2.48,0,0,1-2.14,2.37c-.72.08-1.45,0-2.17.05-.06,0-.15-.1-.19-.17A1.81,1.81,0,0,0,18.13,23c-.72,0-1.43,0-2.15,0a1.85,1.85,0,0,0-1.79,1.92,1.89,1.89,0,0,0,1.91,1.85H18a1.87,1.87,0,0,0,1.76-1.09.26.26,0,0,1,.27-.18c.59,0,1.17,0,1.75,0a3.76,3.76,0,0,0,3.69-3.18,14.71,14.71,0,0,0,.06-1.88.3.3,0,0,1,.18-.3,2.67,2.67,0,0,0,1.43-2.41c0-1,0-2,0-2.95A2.68,2.68,0,0,0,25.67,12.37ZM4.08,13.87c0,.8,0,1.6,0,2.4v2.35c0,.47-.2.64-.66.6a1.43,1.43,0,0,1-1.28-1.39c0-1,0-2.07,0-3.1a1.44,1.44,0,0,1,1.35-1.41C3.88,13.3,4.08,13.48,4.08,13.87ZM18,25.53H16.11a.63.63,0,0,1-.67-.64.63.63,0,0,1,.66-.63c.64,0,1.28,0,1.91,0a.64.64,0,1,1,0,1.27Zm7.86-7.69a1.44,1.44,0,0,1-1.32,1.39c-.42,0-.62-.15-.62-.57V13.91c0-.45.21-.63.66-.59a1.44,1.44,0,0,1,1.28,1.39C25.87,15.76,25.88,16.8,25.86,17.84Zm-10.19.44c0-.39.08-.78.11-1.17a.15.15,0,0,1,.08-.11c.22-.11.43-.24.65-.37a.18.18,0,0,1,.16,0l1,.47a.34.34,0,0,0,.5-.16c.39-.65.77-1.31,1.15-2a.35.35,0,0,0-.11-.51c-.31-.23-.63-.45-1-.67a.16.16,0,0,1-.06-.13q0-.36,0-.72a.15.15,0,0,1,.07-.14l.92-.65a.35.35,0,0,0,.12-.54L18.23,9.68a.36.36,0,0,0-.53-.17l-1,.46a.14.14,0,0,1-.15,0c-.21-.13-.43-.25-.65-.37a.15.15,0,0,1-.08-.12c0-.36-.07-.72-.1-1.08A.45.45,0,0,0,15.41,8H12.84a.44.44,0,0,0-.26.41c0,.36-.07.72-.11,1.08a.12.12,0,0,1-.08.12l-.64.37a.14.14,0,0,1-.15,0l-1-.46a.37.37,0,0,0-.55.17L8.9,11.6a1.19,1.19,0,0,0-.08.16v.15a.55.55,0,0,0,.22.26c.3.2.6.42.9.63a.11.11,0,0,1,.06.13v.73a.11.11,0,0,1-.06.13c-.3.21-.6.43-.9.63a.53.53,0,0,0-.22.27v.14l.71,1.24.51.87a.35.35,0,0,0,.49.16l1.06-.48a.18.18,0,0,1,.16,0l.64.37a.13.13,0,0,1,.08.12l.12,1.17a.34.34,0,0,0,.35.32h2.37A.35.35,0,0,0,15.67,18.28Zm-.55-1.44c0,.35-.06.69-.1,1v.05H13.24c0-.21,0-.42-.07-.62s0-.37-.05-.55a.33.33,0,0,0-.21-.27,3.61,3.61,0,0,1-1-.56.33.33,0,0,0-.37,0l-1,.42-.11.05-.88-1.51.53-.38.41-.29a.34.34,0,0,0,.16-.36,3.2,3.2,0,0,1,0-1.07.35.35,0,0,0-.17-.36l-.83-.6-.1-.07c.3-.5.59-1,.88-1.51.34.15.68.29,1,.45a.44.44,0,0,0,.52-.06,2.78,2.78,0,0,1,.82-.47.41.41,0,0,0,.3-.41c0-.35.07-.7.11-1.06H15c0,.28.05.56.08.84,0,.11,0,.22,0,.33a.33.33,0,0,0,.21.27,3.83,3.83,0,0,1,1,.56.35.35,0,0,0,.37,0l1.06-.48.89,1.51-.1.07-.82.58a.37.37,0,0,0-.18.39,3.76,3.76,0,0,1,0,1.06.34.34,0,0,0,.17.37l.93.66-.89,1.51-.64-.29-.38-.17a.41.41,0,0,0-.48.06,2.7,2.7,0,0,1-.84.48A.43.43,0,0,0,15.12,16.84Zm-1-5A1.48,1.48,0,1,0,15.6,13.3,1.47,1.47,0,0,0,14.13,11.82Z"/><path class="cls-3" d="M25.67,12.37a.45.45,0,0,1-.17-.27c-.1-.65-.13-1.32-.28-2A11.51,11.51,0,0,0,2.51,12.06a.37.37,0,0,1-.21.34,2.43,2.43,0,0,0-1.37,2,31.28,31.28,0,0,0,0,3.75,2.56,2.56,0,0,0,2.19,2.3,1.78,1.78,0,0,0,2.21-1.82V13.86a1.73,1.73,0,0,0-1.23-1.71,3.37,3.37,0,0,0-.34-.09,10.25,10.25,0,0,1,20.45,0l-.22.06a1.69,1.69,0,0,0-1.33,1.61c0,1.69,0,3.39,0,5.08a1.7,1.7,0,0,0,1.22,1.59,3.15,3.15,0,0,0,.36.09c0,.46,0,.91,0,1.36a2.48,2.48,0,0,1-2.14,2.37c-.72.08-1.45,0-2.17.05-.06,0-.15-.1-.19-.17A1.81,1.81,0,0,0,18.13,23c-.72,0-1.43,0-2.15,0a1.85,1.85,0,0,0-1.79,1.92,1.89,1.89,0,0,0,1.91,1.85H18a1.87,1.87,0,0,0,1.76-1.09.26.26,0,0,1,.27-.18c.59,0,1.17,0,1.75,0a3.76,3.76,0,0,0,3.69-3.18,14.71,14.71,0,0,0,.06-1.88.3.3,0,0,1,.18-.3,2.67,2.67,0,0,0,1.43-2.41c0-1,0-2,0-2.95A2.68,2.68,0,0,0,25.67,12.37ZM4.08,13.87c0,.8,0,1.6,0,2.4v2.35c0,.47-.2.64-.66.6a1.43,1.43,0,0,1-1.28-1.39c0-1,0-2.07,0-3.1a1.44,1.44,0,0,1,1.35-1.41C3.88,13.3,4.08,13.48,4.08,13.87ZM18,25.53H16.11a.63.63,0,0,1-.67-.64.63.63,0,0,1,.66-.63c.64,0,1.28,0,1.91,0a.64.64,0,1,1,0,1.27Zm7.86-7.69a1.44,1.44,0,0,1-1.32,1.39c-.42,0-.62-.15-.62-.57V13.91c0-.45.21-.63.66-.59a1.44,1.44,0,0,1,1.28,1.39C25.87,15.76,25.88,16.8,25.86,17.84Zm-10.19.44c0-.39.08-.78.11-1.17a.15.15,0,0,1,.08-.11c.22-.11.43-.24.65-.37a.18.18,0,0,1,.16,0l1,.47a.34.34,0,0,0,.5-.16c.39-.65.77-1.31,1.15-2a.35.35,0,0,0-.11-.51c-.31-.23-.63-.45-1-.67a.16.16,0,0,1-.06-.13q0-.36,0-.72a.15.15,0,0,1,.07-.14l.92-.65a.35.35,0,0,0,.12-.54L18.23,9.68a.36.36,0,0,0-.53-.17l-1,.46a.14.14,0,0,1-.15,0c-.21-.13-.43-.25-.65-.37a.15.15,0,0,1-.08-.12c0-.36-.07-.72-.1-1.08A.45.45,0,0,0,15.41,8H12.84a.44.44,0,0,0-.26.41c0,.36-.07.72-.11,1.08a.12.12,0,0,1-.08.12l-.64.37a.14.14,0,0,1-.15,0l-1-.46a.37.37,0,0,0-.55.17L8.9,11.6a1.19,1.19,0,0,0-.08.16v.15a.55.55,0,0,0,.22.26c.3.2.6.42.9.63a.11.11,0,0,1,.06.13v.73a.11.11,0,0,1-.06.13c-.3.21-.6.43-.9.63a.53.53,0,0,0-.22.27v.14l.71,1.24.51.87a.35.35,0,0,0,.49.16l1.06-.48a.18.18,0,0,1,.16,0l.64.37a.13.13,0,0,1,.08.12l.12,1.17a.34.34,0,0,0,.35.32h2.37A.35.35,0,0,0,15.67,18.28Zm-.55-1.44c0,.35-.06.69-.1,1v.05H13.24c0-.21,0-.42-.07-.62s0-.37-.05-.55a.33.33,0,0,0-.21-.27,3.61,3.61,0,0,1-1-.56.33.33,0,0,0-.37,0l-1,.42-.11.05-.88-1.51.53-.38.41-.29a.34.34,0,0,0,.16-.36,3.2,3.2,0,0,1,0-1.07.35.35,0,0,0-.17-.36l-.83-.6-.1-.07c.3-.5.59-1,.88-1.51.34.15.68.29,1,.45a.44.44,0,0,0,.52-.06,2.78,2.78,0,0,1,.82-.47.41.41,0,0,0,.3-.41c0-.35.07-.7.11-1.06H15c0,.28.05.56.08.84,0,.11,0,.22,0,.33a.33.33,0,0,0,.21.27,3.83,3.83,0,0,1,1,.56.35.35,0,0,0,.37,0l1.06-.48.89,1.51-.1.07-.82.58a.37.37,0,0,0-.18.39,3.76,3.76,0,0,1,0,1.06.34.34,0,0,0,.17.37l.93.66-.89,1.51-.64-.29-.38-.17a.41.41,0,0,0-.48.06,2.7,2.7,0,0,1-.84.48A.43.43,0,0,0,15.12,16.84Zm-1-5A1.48,1.48,0,1,0,15.6,13.3,1.47,1.47,0,0,0,14.13,11.82Z"/></g></g></svg>