<svg xmlns="http://www.w3.org/2000/svg" viewBox="0 0 28 28"><defs><style>.cls-1{fill:none;}.cls-2{fill:#0091ff;}</style></defs><g id="Layer_2" data-name="Layer 2"><g id="Layer_2-2" data-name="Layer 2"><rect class="cls-1" width="28" height="28"/><path class="cls-2" d="M27.24,17.83a2.51,2.51,0,0,1-.32.52,1,1,0,0,1-1.07.24,1,1,0,0,1-.67-.87c0-.11,0-.23,0-.34V5.05a2,2,0,0,0-1.17-2,2.27,2.27,0,0,0-1-.22H5A2.06,2.06,0,0,0,2.83,5V23A2.07,2.07,0,0,0,5,25.17H17.38a1.73,1.73,0,0,1,.56.08,1,1,0,0,1,.66.91,1,1,0,0,1-.59,1l-.23.1H4.43l-.11,0a4,4,0,0,1-3.15-2.33,8.41,8.41,0,0,1-.41-1.29V4.43a.54.54,0,0,0,.05-.11A4,4,0,0,1,3.14,1.17,8.41,8.41,0,0,1,4.43.76H23.57l.11.05a4,4,0,0,1,3.15,2.33,8.41,8.41,0,0,1,.41,1.29Z"/><path class="cls-2" d="M23.78,27.24a3.51,3.51,0,0,1-1.49-.62,5.34,5.34,0,0,1-.44-.39c-1.82-1.81-3.64-3.63-5.44-5.46a1.69,1.69,0,0,1-.42-.72c-.38-1.28-.73-2.58-1.09-3.88a1,1,0,0,1,.69-1.39,1.43,1.43,0,0,1,.68,0c1.29.38,2.59.77,3.87,1.18a1.44,1.44,0,0,1,.61.37c1.85,1.84,3.69,3.69,5.54,5.54a3.12,3.12,0,0,1,.91,1.78s0,.06,0,.1v.72a.56.56,0,0,0,0,.12,3.12,3.12,0,0,1-1.28,2.06,3.87,3.87,0,0,1-1.42.56Zm-6.42-9.95c.19.7.37,1.34.55,2a.83.83,0,0,0,.2.3L21.57,23l.15.14,1.48-1.46L19.45,18s-.06-.07-.1-.08Zm5.88,7.4a1.08,1.08,0,0,0,1.14.45,1,1,0,0,0,.77-.82,1.08,1.08,0,0,0-.46-1.08Z"/><path class="cls-2" d="M14,7.64H7.07A1,1,0,0,1,6,7a1,1,0,0,1,.84-1.44h14A1.06,1.06,0,0,1,22,6.22a1,1,0,0,1-.88,1.41H14Z"/><path class="cls-2" d="M14,11.78H7.07a1,1,0,0,1-1-.62,1,1,0,0,1,.85-1.45h14a1.06,1.06,0,0,1,1.11.67,1,1,0,0,1-.89,1.39H14Z"/><path class="cls-2" d="M9.36,13.84h2.32a1,1,0,1,1,0,2.06H7a1,1,0,0,1-1-.86,1,1,0,0,1,.6-1.11,1.6,1.6,0,0,1,.53-.09Z"/></g></g></svg>