<?xml version="1.0" encoding="UTF-8"?><svg id="Layer_2" xmlns="http://www.w3.org/2000/svg" viewBox="0 0 40 40"><defs><style>.cls-1{fill:#fff;}.cls-2{fill:none;}</style></defs><g id="Layer_1-2"><g><rect class="cls-2" width="40" height="40"/><g><path class="cls-1" d="M34.11,13.35c-.54-.57-1.3-.9-2.08-.9h-1.9c-.79,0-1.54,.33-2.08,.9s-.82,1.35-.76,2.13l.08,1.3,.2,3.03c.08,1.21,.76,2.27,1.82,2.86,.53,.29,1.11,.44,1.7,.44s1.17-.15,1.7-.44c1.06-.58,1.74-1.65,1.82-2.86l.23-3.46,.06-.86c.05-.78-.23-1.56-.76-2.13Zm-5.27,2.03c-.02-.36,.1-.7,.34-.96s.58-.41,.94-.41h1.37l-.26,.69c-.12,.17-.71,.9-2.37,1.17l-.03-.49Zm4.19,4.33c-.04,.67-.42,1.26-1.01,1.59-.59,.32-1.3,.32-1.89,0-.59-.32-.97-.92-1.01-1.59l-.15-2.27c1.39-.2,2.29-.67,2.85-1.11,.11,.08,.22,.15,.35,.21,.24,.12,.58,.24,1.03,.37l-.18,2.81Zm-.13-4.57c-.05-.03-.09-.05-.12-.07l.23-.61c.2,.24,.31,.53,.31,.84-.24-.08-.36-.13-.42-.16Z"/><path class="cls-1" d="M39.7,29.76l-.32-1.74c-.39-2.15-2.09-3.86-4.23-4.26-.32-.06-.65-.09-.98-.09h-.95c-.21,0-.41,.08-.55,.23l-1.6,1.6-1.6-1.6c-.15-.15-.35-.23-.55-.23h-.95c-.33,0-.66,.03-.98,.09-.7,.13-1.35,.4-1.94,.79-.28-.03-.55-.05-.83-.05h-1.73c-.21,0-.41,.08-.55,.23l-1.89,1.9-1.94-1.9c-.15-.14-.34-.22-.55-.22h-1.68c-.27,0-.54,.02-.81,.05-.59-.39-1.24-.65-1.93-.78-.32-.06-.65-.09-.98-.09h-.95c-.21,0-.41,.08-.55,.23l-1.6,1.6-1.6-1.6c-.15-.15-.35-.23-.55-.23h-.95c-.33,0-.66,.03-.98,.09-2.14,.4-3.84,2.12-4.23,4.26l-.32,1.74c-.04,.23,.02,.46,.17,.64,.15,.18,.37,.28,.6,.28h7.84l-.32,1.78c-.04,.23,.02,.46,.17,.64s.37,.28,.6,.28H30.62c.23,0,.45-.1,.6-.28,.15-.18,.21-.41,.17-.64l-.32-1.78h7.87c.23,0,.45-.1,.6-.28,.15-.18,.21-.41,.17-.64Zm-22.46-3.7l2.26,2.22c.31,.3,.8,.3,1.1,0l2.21-2.22h.75l-3.51,3.51-3.51-3.51h.7Zm-7.83,3.06H2.14l.15-.82c.27-1.51,1.47-2.72,2.98-3,.23-.04,.46-.06,.69-.06h.63l1.92,1.92c.31,.31,.8,.31,1.11,0l1.92-1.92h.63c.19,0,.37,.01,.56,.04-1.54,.81-2.73,2.18-3.31,3.84Zm1.02,2.7l.26-1.42c.36-2.01,1.88-3.63,3.83-4.16l4.99,4.99c.31,.31,.8,.31,1.11,0l4.99-4.99c1.95,.53,3.46,2.15,3.83,4.16l.26,1.42H10.43Zm20.27-2.7c-.57-1.66-1.77-3.03-3.3-3.84,.19-.03,.38-.05,.58-.05h.63l1.92,1.92c.15,.15,.35,.23,.55,.23s.41-.08,.55-.23l1.92-1.92h.63c.23,0,.46,.02,.69,.06,1.51,.28,2.7,1.49,2.98,3l.15,.82h-7.3Z"/><path class="cls-1" d="M12.09,13.35c-.54-.57-1.3-.9-2.08-.9h-1.9c-.79,0-1.54,.33-2.08,.9-.54,.57-.82,1.35-.76,2.13l.08,1.3,.2,3.03c.08,1.21,.76,2.27,1.82,2.86,.53,.29,1.11,.44,1.7,.44s1.17-.15,1.7-.44c1.06-.58,1.74-1.65,1.82-2.86l.23-3.46,.06-.86c.05-.78-.23-1.56-.76-2.13Zm-5.27,2.03c-.02-.36,.1-.7,.34-.96,.25-.26,.58-.41,.94-.41h1.37l-.26,.69c-.1,.14-.7,.89-2.36,1.16l-.03-.48Zm4.19,4.33c-.04,.67-.42,1.26-1.01,1.59-.59,.32-1.3,.32-1.89,0-.59-.32-.97-.92-1.01-1.59l-.15-2.27c1.39-.2,2.29-.67,2.85-1.11,.11,.08,.22,.15,.35,.21,.24,.12,.58,.24,1.03,.37l-.18,2.81Zm-.13-4.57c-.05-.03-.09-.05-.12-.07l.23-.61c.2,.24,.31,.53,.31,.84-.24-.08-.36-.13-.42-.16Z"/><path class="cls-1" d="M23.93,11.47c-.67-.72-1.62-1.13-2.6-1.13h-2.56c-.98,0-1.93,.41-2.6,1.13-.67,.72-1.02,1.69-.96,2.67l.11,1.74,.27,4.07c.1,1.53,.96,2.88,2.3,3.62,.67,.37,1.41,.56,2.15,.56s1.48-.19,2.15-.56c1.34-.74,2.2-2.09,2.3-3.62l.3-4.65h0l.08-1.16c.06-.98-.28-1.95-.96-2.67Zm-7.09,3.51l-.06-.94c-.04-.56,.15-1.09,.54-1.5,.38-.41,.9-.63,1.46-.63h2.23l-.49,1.32c-.15,.22-1.04,1.42-3.67,1.75Zm6.1,4.87c-.06,.99-.62,1.87-1.5,2.35-.87,.48-1.92,.48-2.79,0-.87-.48-1.43-1.36-1.5-2.35l-.22-3.31c2.08-.25,3.36-.99,4.1-1.62,.17,.14,.37,.28,.61,.4,.34,.18,.85,.35,1.55,.53l-.26,4Zm.38-5.82v.23c-.56-.15-.83-.27-.95-.33-.2-.1-.31-.19-.37-.24l.52-1.38c.09,.07,.18,.15,.26,.23,.38,.41,.57,.94,.54,1.5Z"/></g></g></g></svg>