<svg xmlns="http://www.w3.org/2000/svg" width="345" height="307" viewBox="0 0 345 307">
  <g id="Group_4514" data-name="Group 4514" transform="translate(-19243 -4679)">
    <rect id="Rectangle_4508" data-name="Rectangle 4508" width="345" height="307" transform="translate(19243 4679)" fill="none"/>
    <g id="Sponsor-rafiki" transform="translate(19243 4648.967)">
      <g id="freepik--background-complete--inject-178" transform="translate(0 55)">
        <rect id="Rectangle_4575" data-name="Rectangle 4575" width="345" height="0.172" transform="translate(0 225.906)" fill="#ebebeb"/>
        <rect id="Rectangle_4576" data-name="Rectangle 4576" width="22.853" height="0.172" transform="translate(287.578 237.008)" fill="#ebebeb"/>
        <rect id="Rectangle_4577" data-name="Rectangle 4577" width="5.996" height="0.172" transform="translate(222.546 238.885)" fill="#ebebeb"/>
        <rect id="Rectangle_4578" data-name="Rectangle 4578" width="13.241" height="0.172" transform="translate(273.647 230.605)" fill="#ebebeb"/>
        <rect id="Rectangle_4579" data-name="Rectangle 4579" width="29.801" height="0.172" transform="translate(36.197 231.764)" fill="#ebebeb"/>
        <rect id="Rectangle_4580" data-name="Rectangle 4580" width="4.368" height="0.172" transform="translate(72.146 231.764)" fill="#ebebeb"/>
        <rect id="Rectangle_4581" data-name="Rectangle 4581" width="64.639" height="0.172" transform="translate(90.714 234.676)" fill="#ebebeb"/>
        <path id="Path_49195" data-name="Path 49195" d="M175.375,250.132H42.143a3.94,3.94,0,0,1-3.933-3.94V58.905A3.94,3.94,0,0,1,42.143,55H175.375a3.94,3.94,0,0,1,3.94,3.94V246.192A3.94,3.94,0,0,1,175.375,250.132ZM42.143,55.138a3.767,3.767,0,0,0-3.761,3.767V246.192a3.767,3.767,0,0,0,3.76,3.767H175.375a3.774,3.774,0,0,0,3.767-3.767V58.905a3.774,3.774,0,0,0-3.767-3.767Z" transform="translate(-11.845 -55)" fill="#ebebeb"/>
        <path id="Path_49196" data-name="Path 49196" d="M391.679,250.132H258.44a3.947,3.947,0,0,1-3.94-3.94V58.905A3.947,3.947,0,0,1,258.44,55H391.679a3.94,3.94,0,0,1,3.926,3.905V246.192A3.94,3.94,0,0,1,391.679,250.132ZM258.44,55.138a3.774,3.774,0,0,0-3.767,3.767V246.192a3.774,3.774,0,0,0,3.767,3.767H391.679a3.774,3.774,0,0,0,3.767-3.767V58.905a3.774,3.774,0,0,0-3.767-3.767Z" transform="translate(-78.895 -55)" fill="#ebebeb"/>
        <path id="Path_49197" data-name="Path 49197" d="M316.644,200.316c-5.285-7.355-14.228-9.971-19.976-5.844s-6.12,13.441-.835,20.8,14.228,10.012,19.975,5.872S321.929,207.678,316.644,200.316Z" transform="translate(-90.551 -97.63)" fill="#ebebeb"/>
        <path id="Path_49198" data-name="Path 49198" d="M377.267,143.988,359.03,117.92s-7.976,23.833-22.19,34.045l9.267,12.889,1.456,2.036,9.274,12.91c14.214-10.212,39.33-10.171,39.33-10.171Z" transform="translate(-104.42 -74.505)" fill="#ebebeb"/>
        <path id="Path_49199" data-name="Path 49199" d="M328.86,223.3s12.717,14.587,23.557,19.2a1.718,1.718,0,0,0,2.07-.69l7.466-11.778a1.718,1.718,0,0,0-.932-2.567c-4.519-1.38-15.09-5.154-21.652-11.33C330.9,208.114,328.86,223.3,328.86,223.3Z" transform="translate(-101.947 -104.227)" fill="#ebebeb"/>
        <path id="Path_49200" data-name="Path 49200" d="M405.3,170.162c-3.257,2.339-14.38-7.59-24.84-22.121s-16.3-28.29-13.041-30.6,14.38,7.59,24.84,22.128S408.552,167.851,405.3,170.162Z" transform="translate(-113.619 -74.252)" fill="#f0f0f0"/>
        <path id="Path_49201" data-name="Path 49201" d="M404.7,166.751c-2.436,1.753-11.116-6.051-19.8-17.7-.5-.656-.994-1.345-1.49-2.035-.6-.835-1.18-1.642-1.732-2.45-8.094-11.82-12.606-22.308-10.191-24.04,2.6-1.87,12.151,6.969,21.321,19.734S407.292,164.881,404.7,166.751Z" transform="translate(-114.96 -75.236)" fill="#e6e6e6"/>
        <path id="Path_49202" data-name="Path 49202" d="M315.364,214.888s-4.036-2.229-12.178-13.565c-8.811-12.227-9.025-15.953-9.025-15.953L325.9,162.6s.945,4.713,9.212,16.215,11.992,13.31,11.992,13.31Z" transform="translate(-91.19 -88.356)" fill="#e0e0e0"/>
        <path id="Path_49203" data-name="Path 49203" d="M389.772,159.257c-.5-.655-.994-1.345-1.49-2.035-.6-.835-1.18-1.642-1.732-2.45l3.381-1.5a1.642,1.642,0,0,1,2.022.69l.338.469a1.628,1.628,0,0,1,0,2.125Z" transform="translate(-119.831 -85.427)" fill="#fff"/>
        <path id="Path_49204" data-name="Path 49204" d="M389.772,159.257c-.5-.655-.994-1.345-1.49-2.035-.6-.835-1.18-1.642-1.732-2.45l3.381-1.5a1.642,1.642,0,0,1,2.022.69l.338.469a1.628,1.628,0,0,1,0,2.125Z" transform="translate(-119.831 -85.427)" fill="#fafafa"/>
        <rect id="Rectangle_4582" data-name="Rectangle 4582" width="11.93" height="36.342" transform="translate(144.189 158.224) rotate(180)" fill="#ebebeb"/>
        <rect id="Rectangle_4583" data-name="Rectangle 4583" width="11.93" height="46.782" transform="translate(122.082 158.231) rotate(180)" fill="#ebebeb"/>
        <rect id="Rectangle_4584" data-name="Rectangle 4584" width="11.93" height="65.074" transform="translate(99.967 158.224) rotate(180)" fill="#ebebeb"/>
        <rect id="Rectangle_4585" data-name="Rectangle 4585" width="11.93" height="86.836" transform="translate(77.86 158.224) rotate(180)" fill="#ebebeb"/>
        <path id="Path_49205" data-name="Path 49205" d="M122.565,125.747a191.931,191.931,0,0,1,58.243,61.928l-5.989,3.491a184.976,184.976,0,0,0-55.89-59.547c-17.147-11.551-30.36-16.125-30.609-16.215l2.208-6.534C91.094,109.063,104.618,113.7,122.565,125.747ZM88.32,115.4h0l1.1-3.264Z" transform="translate(-27.379 -71.7)" fill="#ebebeb"/>
        <path id="Path_49206" data-name="Path 49206" d="M99.624,118.04,85.81,111.333l15.525-8.563Z" transform="translate(59.856 13.55)" fill="#ebebeb"/>
        <ellipse id="Ellipse_686" data-name="Ellipse 686" cx="22.21" cy="22.211" rx="22.21" ry="22.211" transform="translate(11.328 77.821) rotate(-76.72)" fill="#0091ff"/>
        <ellipse id="Ellipse_687" data-name="Ellipse 687" cx="17.205" cy="17.204" rx="17.205" ry="17.204" transform="translate(20.85 44.113)" fill="#33a7ff"/>
        <path id="Path_49207" data-name="Path 49207" d="M162.616,128.068v2.3h-2.051v-2.243a9.642,9.642,0,0,1-5.115-1.641l1.121-2.5a8.4,8.4,0,0,0,3.994,1.45v-3.487c-2.284-.547-4.828-1.368-4.828-4.253,0-2.174,1.573-4.1,4.828-4.417V111h2.051v2.243A9.287,9.287,0,0,1,166.8,114.5l-1.039,2.53a8.206,8.206,0,0,0-3.146-1.08v3.5c2.284.533,4.8,1.368,4.8,4.2C167.417,125.825,165.844,127.671,162.616,128.068Zm-2.051-9.095V116.06c-1.094.246-1.518.848-1.518,1.518S159.662,118.686,160.565,118.973Zm3.542,4.964c0-.725-.6-1.108-1.491-1.368V125.4C163.656,125.127,164.107,124.594,164.107,123.938Z" transform="translate(-123.372 -59.393)" fill="#fff"/>
        <circle id="Ellipse_688" data-name="Ellipse 688" cx="5.603" cy="5.603" r="5.603" transform="translate(36.784 131.59)" fill="#ebebeb"/>
        <path id="Path_49208" data-name="Path 49208" d="M63.82,251.883a4.34,4.34,0,1,1-4.34-4.333A4.34,4.34,0,0,1,63.82,251.883Z" transform="translate(-17.093 -114.691)" fill="#e0e0e0"/>
        <path id="Path_49209" data-name="Path 49209" d="M61.048,254.6v.58H60.53v-.566a2.5,2.5,0,0,1-1.29-.414l.283-.635a2.07,2.07,0,0,0,1.007.366v-.862c-.573-.138-1.214-.331-1.214-1.076,0-.545.4-1.021,1.214-1.111v-.58h.517v.566a2.4,2.4,0,0,1,1.056.317l-.262.635a2.256,2.256,0,0,0-.793-.269v.883c.58.138,1.214.324,1.214,1.056C62.262,254.033,61.869,254.5,61.048,254.6Zm-.517-2.3v-.731c-.276.062-.38.207-.38.379S60.3,252.232,60.53,252.3Zm.9,1.249c0-.179-.152-.276-.38-.352v.69c.262-.035.38-.166.38-.345Z" transform="translate(-18.364 -115.543)" fill="#f0f0f0"/>
        <circle id="Ellipse_689" data-name="Ellipse 689" cx="5.603" cy="5.603" r="5.603" transform="translate(157.396 58.146)" fill="#ebebeb"/>
        <path id="Path_49210" data-name="Path 49210" d="M238.62,145.44a4.34,4.34,0,1,1-4.34-4.34A4.34,4.34,0,0,1,238.62,145.44Z" transform="translate(-71.281 -81.691)" fill="#e0e0e0"/>
        <path id="Path_49211" data-name="Path 49211" d="M235.858,148.149v.58h-.518v-.566a2.484,2.484,0,0,1-1.29-.414l.283-.635a2.07,2.07,0,0,0,1.007.366v-.863c-.58-.138-1.221-.331-1.221-1.076,0-.545.4-1.021,1.221-1.111v-.58h.517v.566a2.4,2.4,0,0,1,1.049.317l-.255.642a2.187,2.187,0,0,0-.793-.276v.883c.573.138,1.208.331,1.208,1.063C237.065,147.583,236.672,148.045,235.858,148.149Zm-.518-2.3v-.731c-.276.062-.386.207-.386.38S235.113,145.782,235.34,145.851Zm.89,1.256c0-.186-.152-.283-.373-.359v.69C236.086,147.4,236.23,147.272,236.23,147.107Z" transform="translate(-72.556 -82.544)" fill="#f0f0f0"/>
        <circle id="Ellipse_690" data-name="Ellipse 690" cx="8.873" cy="8.873" r="8.873" transform="translate(81.436 183.698) rotate(-45)" fill="#ebebeb"/>
        <circle id="Ellipse_691" data-name="Ellipse 691" cx="6.872" cy="6.872" r="6.872" transform="translate(86.103 189.395) rotate(-80.78)" fill="#e0e0e0"/>
        <path id="Path_49212" data-name="Path 49212" d="M135.6,322.433v.925h-.821v-.9a3.919,3.919,0,0,1-2.07-.656l.455-1.007a3.284,3.284,0,0,0,1.594.586V320c-.911-.221-1.932-.524-1.932-1.7,0-.869.635-1.621,1.932-1.766v-.911h.821v.89a3.74,3.74,0,0,1,1.663.5l-.407,1.014a3.318,3.318,0,0,0-1.256-.428v1.38c.911.214,1.911.517,1.911,1.677C137.512,321.543,136.891,322.282,135.6,322.433Zm-.821-3.629v-1.166c-.435.1-.607.338-.607.607s.242.448.607.559Zm1.38,1.98c0-.29-.242-.442-.593-.566v1.132c.442-.09.628-.3.628-.566Z" transform="translate(-41.14 -135.795)" fill="#f0f0f0"/>
        <path id="Path_49213" data-name="Path 49213" d="M379.991,307.208v-4.961l-2.553-.235a13.2,13.2,0,0,0-1.9-4.582l1.642-1.98-3.505-3.505-1.96,1.642a13.2,13.2,0,0,0-4.582-1.9l-.241-2.553h-4.954l-.242,2.553a13.11,13.11,0,0,0-4.575,1.9l-1.98-1.642-3.512,3.505,1.642,1.98a13.33,13.33,0,0,0-1.9,4.582l-2.553.235v4.961l2.553.242a13.351,13.351,0,0,0,1.9,4.575L351.625,314l3.512,3.505,1.98-1.635a13.228,13.228,0,0,0,4.575,1.9l.242,2.553h4.947l.242-2.553a13.317,13.317,0,0,0,4.582-1.9l1.98,1.635L377.19,314l-1.642-1.98a13.22,13.22,0,0,0,1.9-4.575Zm-15.6,4.23a6.732,6.732,0,1,0-.007,0Z" transform="translate(-108.131 -127.58)" fill="#e0e0e0"/>
        <path id="Path_49214" data-name="Path 49214" d="M384.809,262a10.385,10.385,0,0,0-3.588,1.49l-1.552-1.283-2.76,2.76,1.283,1.552a10.384,10.384,0,0,0-1.49,3.588l-2,.186v3.885l2,.193a10.348,10.348,0,0,0,1.49,3.581l-1.283,1.552,2.76,2.76,1.552-1.283a10.254,10.254,0,0,0,3.588,1.49l.186,2h3.885l.186-2a10.254,10.254,0,0,0,3.588-1.49l1.552,1.283,2.76-2.76-1.3-1.573a10.35,10.35,0,0,0,1.49-3.581l2-.193v-3.885l-2-.186a10.386,10.386,0,0,0-1.49-3.588l1.283-1.552-2.76-2.76-1.553,1.283a10.385,10.385,0,0,0-3.588-1.49l-.186-2h-3.885Zm7.39,10.226a5.265,5.265,0,1,1-5.258-5.258,5.265,5.265,0,0,1,5.258,5.258Z" transform="translate(-116.157 -118.544)" fill="#e0e0e0"/>
        <path id="Path_49215" data-name="Path 49215" d="M399.449,292.072l-1.318-1.083-2.312,2.311,1.083,1.3a8.735,8.735,0,0,0-1.256,3.008l-1.677.159v3.264l1.677.159a8.708,8.708,0,0,0,1.256,3.015l-1.083,1.3,2.312,2.3,1.3-1.076a8.721,8.721,0,0,0,3.008,1.249l.159,1.684h3.264l.159-1.684a8.7,8.7,0,0,0,3.015-1.249l1.3,1.076,2.3-2.3-1.063-1.283a8.7,8.7,0,0,0,1.249-3.015l1.684-.159v-3.264l-1.684-.159a8.721,8.721,0,0,0-1.249-3.008l1.076-1.3-2.3-2.311-1.3,1.083a8.708,8.708,0,0,0-3.015-1.256l-.159-1.677h-3.264l-.159,1.677a8.736,8.736,0,0,0-3.008,1.235Zm9.218,7.328a4.416,4.416,0,1,1-4.416-4.416,4.416,4.416,0,0,1,4.416,4.416Z" transform="translate(-122.131 -127.59)" fill="#e0e0e0"/>
        <path id="Path_49216" data-name="Path 49216" d="M300.539,89.919l-1.3-1.083-2.318,2.3,1.076,1.3a8.756,8.756,0,0,0-1.249,3.015l-1.684.159v3.264l1.684.159a8.756,8.756,0,0,0,1.249,3.015l-1.076,1.3,2.3,2.3,1.3-1.076a8.832,8.832,0,0,0,3.015,1.249l.159,1.684h3.264l.159-1.684a8.8,8.8,0,0,0,3.008-1.249l1.3,1.076,2.311-2.3-1.083-1.3a8.769,8.769,0,0,0,1.256-3.015l1.677-.159V95.618l-1.677-.159a8.769,8.769,0,0,0-1.256-3.015l1.083-1.3-2.311-2.311-1.3,1.083a8.68,8.68,0,0,0-3.008-1.256L306.963,87H303.7l-.159,1.677A8.708,8.708,0,0,0,300.539,89.919Zm9.218,7.335a4.409,4.409,0,1,0-.014,0Z" transform="translate(-91.469 -64.92)" fill="#e0e0e0"/>
        <path id="Path_49217" data-name="Path 49217" d="M412.469,109.29l-.69-.587-1.235,1.277.586.69a4.706,4.706,0,0,0-.69,1.635l-.911.083v1.773l.911.083a4.686,4.686,0,0,0,.69,1.642l-.586.69,1.256,1.256.69-.586a4.706,4.706,0,0,0,1.635.69l.09.911h1.773l.083-.911a4.706,4.706,0,0,0,1.635-.69l.69.586,1.249-1.256-.587-.69a4.686,4.686,0,0,0,.69-1.642l.911-.083v-1.773l-.911-.083a4.705,4.705,0,0,0-.69-1.635l.587-.69-1.249-1.256-.69.587a4.829,4.829,0,0,0-1.635-.69l-.083-.911h-1.773l-.09.911a4.83,4.83,0,0,0-1.656.669Zm5.009,3.988a2.4,2.4,0,1,1,0-.007Z" transform="translate(-126.954 -71.34)" fill="#e0e0e0"/>
        <path id="Path_49218" data-name="Path 49218" d="M267.38,248.518l-.69-.587-1.256,1.256.586.69a4.831,4.831,0,0,0-.69,1.642l-.911.083v1.773l.911.083a4.831,4.831,0,0,0,.69,1.642l-.587.69,1.256,1.256.69-.586a4.672,4.672,0,0,0,1.642.69l.083.918h1.773l.083-.918a4.692,4.692,0,0,0,1.635-.69l.69.586,1.256-1.256-.587-.69a4.92,4.92,0,0,0,.69-1.642l.911-.083V251.6l-.911-.083a4.92,4.92,0,0,0-.69-1.642l.587-.69-1.256-1.256-.69.587a4.692,4.692,0,0,0-1.635-.69l-.083-.918h-1.773l-.083.918a4.671,4.671,0,0,0-1.642.69Zm5.03,3.974a2.4,2.4,0,1,1-2.4-2.394,2.4,2.4,0,0,1,2.4,2.394Z" transform="translate(-81.97 -114.492)" fill="#e0e0e0"/>
      </g>
      <g id="freepik--Shadow--inject-178" transform="translate(38.716 296.445)">
        <ellipse id="freepik--path--inject-178" cx="133.784" cy="7.811" rx="133.784" ry="7.811" fill="#f5f5f5"/>
      </g>
      <g id="freepik--plant-2--inject-178" transform="translate(259.28 239.477)">
        <path id="Path_49219" data-name="Path 49219" d="M404.42,373.431h-.69c0-.932.773-22.8,4.582-26.51,3.933-3.823,8.549-.055,8.6,0l-.442.531c-.172-.145-4.188-3.409-7.673,0C405.179,350.909,404.427,373.21,404.42,373.431Z" transform="translate(-384.436 -329.442)" fill="#0091ff"/>
        <path id="Path_49220" data-name="Path 49220" d="M400.789,375.424l-.69-.069c0-.262,2.456-26.531-7.059-37.446l.524-.449C403.28,348.6,400.9,374.334,400.789,375.424Z" transform="translate(-381.122 -327.039)" fill="#0091ff"/>
        <path id="Path_49221" data-name="Path 49221" d="M404.5,371.695c-.083-1.242-1.918-30.464,5.41-37.2l.469.5c-7.086,6.52-5.21,36.349-5.189,36.653Z" transform="translate(-384.594 -326.119)" fill="#0091ff"/>
        <path id="Path_49222" data-name="Path 49222" d="M397.089,377.59c0-.2-.228-19.81-5.417-22.77a3.264,3.264,0,0,0-3-.317c-3.036,1.256-4.658,7.066-4.671,7.128l-.69-.186c.069-.248,1.725-6.21,5.078-7.59a3.954,3.954,0,0,1,3.609.352c5.52,3.167,5.755,22.549,5.761,23.37Z" transform="translate(-378.106 -332.034)" fill="#0091ff"/>
        <path id="Path_49223" data-name="Path 49223" d="M406.343,378.013c-.035-.628-.842-15.518,3.381-21.038,1.132-1.47,2.387-2.18,3.747-2.07,3.015.214,5.348,4.292,5.444,4.464l-.6.338c0-.041-2.249-3.926-4.892-4.14a3.736,3.736,0,0,0-3.146,1.808c-4.071,5.313-3.257,20.424-3.243,20.576Z" transform="translate(-385.22 -332.444)" fill="#0091ff"/>
        <path id="Path_49224" data-name="Path 49224" d="M404.181,372.449l-.69-.055c0-.359,2.657-35.8-1.711-41.7l.552-.407C406.852,336.4,404.292,370.979,404.181,372.449Z" transform="translate(-383.832 -324.817)" fill="#0091ff"/>
        <path id="Path_49225" data-name="Path 49225" d="M384.9,358.162s2.7.994,1.9,3.347-9.349,6.21-9.349,6.21-3.574-3.277-.29-8.611S384.795,356.479,384.9,358.162Z" transform="translate(-375.768 -332.776)" fill="#0091ff"/>
        <path id="Path_49226" data-name="Path 49226" d="M384.9,358.162s2.7.994,1.9,3.347-9.349,6.21-9.349,6.21-3.574-3.277-.29-8.611S384.795,356.479,384.9,358.162Z" transform="translate(-375.768 -332.776)" fill="#fff" opacity="0.5"/>
        <path id="Path_49227" data-name="Path 49227" d="M404.632,352.175s-2.877-.117-3.043,2.36,6.21,9.336,6.21,9.336,4.568-1.649,3.581-7.832S405.322,350.65,404.632,352.175Z" transform="translate(-383.771 -331.266)" fill="#0091ff"/>
        <path id="Path_49228" data-name="Path 49228" d="M404.632,352.175s-2.877-.117-3.043,2.36,6.21,9.336,6.21,9.336,4.568-1.649,3.581-7.832S405.322,350.65,404.632,352.175Z" transform="translate(-383.771 -331.266)" fill="#fff" opacity="0.5"/>
        <path id="Path_49229" data-name="Path 49229" d="M408.706,333.944s-1.911-.207-1.759-1.38,7.452-4.175,11.764.69c0,0-2.76,4.733-6.748,4.8S408.706,333.944,408.706,333.944Z" transform="translate(-385.431 -324.903)" fill="#0091ff"/>
        <path id="Path_49230" data-name="Path 49230" d="M408.706,333.944s-1.911-.207-1.759-1.38,7.452-4.175,11.764.69c0,0-2.76,4.733-6.748,4.8S408.706,333.944,408.706,333.944Z" transform="translate(-385.431 -324.903)" fill="#fff" opacity="0.5"/>
        <path id="Path_49231" data-name="Path 49231" d="M400.678,328.562s1.732.842,2.222-.235-4.14-7.486-10.35-5.637c0,0-.166,5.479,3.188,7.645S400.678,328.562,400.678,328.562Z" transform="translate(-380.97 -322.358)" fill="#0091ff"/>
        <path id="Path_49232" data-name="Path 49232" d="M400.678,328.562s1.732.842,2.222-.235-4.14-7.486-10.35-5.637c0,0-.166,5.479,3.188,7.645S400.678,328.562,400.678,328.562Z" transform="translate(-380.97 -322.358)" fill="#fff" opacity="0.5"/>
        <path id="Path_49233" data-name="Path 49233" d="M417.087,356.981s-1.325-1.069.1-1.594,8.432-.373,8.508,6.569c0,0-8.163,1.38-9.17-1.283S417.087,356.981,417.087,356.981Z" transform="translate(-388.299 -332.54)" fill="#0091ff"/>
        <path id="Path_49234" data-name="Path 49234" d="M417.087,356.981s-1.325-1.069.1-1.594,8.432-.373,8.508,6.569c0,0-8.163,1.38-9.17-1.283S417.087,356.981,417.087,356.981Z" transform="translate(-388.299 -332.54)" fill="#fff" opacity="0.5"/>
        <path id="Path_49235" data-name="Path 49235" d="M389.491,334.415s1.325-1.07-.1-1.587-8.439-.38-8.508,6.569c0,0,8.163,1.38,9.17-1.29S389.491,334.415,389.491,334.415Z" transform="translate(-377.353 -325.547)" fill="#0091ff"/>
        <path id="Path_49236" data-name="Path 49236" d="M389.491,334.415s1.325-1.07-.1-1.587-8.439-.38-8.508,6.569c0,0,8.163,1.38,9.17-1.29S389.491,334.415,389.491,334.415Z" transform="translate(-377.353 -325.547)" fill="#fff" opacity="0.5"/>
        <path id="Path_49237" data-name="Path 49237" d="M398.034,342.91s.11-1.3-.938-.793-4.7,4.45-.911,8.19c0,0,5.1-3.774,4.174-5.741S398.034,342.91,398.034,342.91Z" transform="translate(-381.576 -328.446)" fill="#0091ff"/>
        <path id="Path_49238" data-name="Path 49238" d="M398.034,342.91s.11-1.3-.938-.793-4.7,4.45-.911,8.19c0,0,5.1-3.774,4.174-5.741S398.034,342.91,398.034,342.91Z" transform="translate(-381.576 -328.446)" fill="#fff" opacity="0.5"/>
        <path id="Path_49239" data-name="Path 49239" d="M418.694,345.472s-.793-1.035.366-1.166,6.355,1.256,5.147,6.445c0,0-6.327-.476-6.6-2.629S418.694,345.472,418.694,345.472Z" transform="translate(-388.726 -329.159)" fill="#0091ff"/>
        <path id="Path_49240" data-name="Path 49240" d="M418.694,345.472s-.793-1.035.366-1.166,6.355,1.256,5.147,6.445c0,0-6.327-.476-6.6-2.629S418.694,345.472,418.694,345.472Z" transform="translate(-388.726 -329.159)" fill="#fff" opacity="0.5"/>
        <path id="Path_49241" data-name="Path 49241" d="M387.169,405.584h21.707l2.346-23.764H384.83Z" transform="translate(-378.577 -340.791)" fill="#263238"/>
        <path id="Path_49242" data-name="Path 49242" d="M387.169,405.584h21.707l2.346-23.764H384.83Z" transform="translate(-378.577 -340.791)" fill="#fff" opacity="0.2"/>
        <rect id="Rectangle_4586" data-name="Rectangle 4586" width="28.711" height="5.244" transform="translate(33.804 43.651) rotate(180)" fill="#263238"/>
        <rect id="Rectangle_4587" data-name="Rectangle 4587" width="28.711" height="5.244" transform="translate(33.804 43.651) rotate(180)" fill="#fff" opacity="0.4"/>
      </g>
      <g id="freepik--plant-1--inject-178" transform="translate(46.52 247.203)">
        <path id="Path_49243" data-name="Path 49243" d="M98.655,339.971c-.145,1.014,2.6,1.677,4.83,2.07-.179,1.842-1.38,3.7-3.1,5.437-2.125-1.2-5.168-2.76-5.727-2.394s2.5,2.436,4.444,3.616a39.378,39.378,0,0,1-4.409,3.34c-.952-.89-2.07-1.67-2.76-1.249s-.5,1.815-.166,3.05c-2.312,1.38-4.05,2.173-4.05,2.173a46.573,46.573,0,0,1-1.546-6.576c.117-.235.235-.469.338-.69.373-.862,0-1.235-.607-1.38a22.708,22.708,0,0,1,0-4.74c2.622-.545,5.81-1.566,4.616-3.139-.69-.945-2.07-1.056-3.45-.814a5.94,5.94,0,0,1,.649-.883c4.775-5.258,8.1,0,8.1,0,2.76-2.312,6.665-1.684,7.507,1.925C101.8,339.281,98.835,338.7,98.655,339.971Z" transform="translate(-73.112 -334.143)" fill="#0091ff"/>
        <path id="Path_49244" data-name="Path 49244" d="M98.655,339.971c-.145,1.014,2.6,1.677,4.83,2.07-.179,1.842-1.38,3.7-3.1,5.437-2.125-1.2-5.168-2.76-5.727-2.394s2.5,2.436,4.444,3.616a39.378,39.378,0,0,1-4.409,3.34c-.952-.89-2.07-1.67-2.76-1.249s-.5,1.815-.166,3.05c-2.312,1.38-4.05,2.173-4.05,2.173a46.573,46.573,0,0,1-1.546-6.576c.117-.235.235-.469.338-.69.373-.862,0-1.235-.607-1.38a22.708,22.708,0,0,1,0-4.74c2.622-.545,5.81-1.566,4.616-3.139-.69-.945-2.07-1.056-3.45-.814a5.94,5.94,0,0,1,.649-.883c4.775-5.258,8.1,0,8.1,0,2.76-2.312,6.665-1.684,7.507,1.925C101.8,339.281,98.835,338.7,98.655,339.971Z" transform="translate(-73.112 -334.143)" fill="#fff" opacity="0.3"/>
        <path id="Path_49245" data-name="Path 49245" d="M95.575,380.089l.69-.055c0-.352-2.829-35.549,5.071-38.868a2.677,2.677,0,0,1,2.394.055c2.857,1.49,4.223,7.652,4.237,7.714l.69-.152c-.062-.262-1.449-6.534-4.6-8.17a3.367,3.367,0,0,0-2.981-.083C92.711,344.009,95.458,378.592,95.575,380.089Z" transform="translate(-75.986 -335.622)" fill="#0091ff"/>
        <path id="Path_49246" data-name="Path 49246" d="M90,377.235c.138-1.587,3.36-38.826-2.663-42.78-1.449-.945-2.76-1.152-3.83-.593-2.85,1.435-3.222,7.528-3.243,7.783l.69.041c0-.062.366-5.955,2.863-7.21.856-.435,1.911-.248,3.14.559,5.686,3.726,2.387,41.752,2.353,42.138Z" transform="translate(-71.4 -333.555)" fill="#0091ff"/>
        <path id="Path_49247" data-name="Path 49247" d="M86.794,386.583c.048-1.214,1.042-29.718-4.451-32.216a3.857,3.857,0,0,0-3.264,0c-3.767,1.656-6.093,8.673-6.21,8.97l.655.214c0-.069,2.325-7.024,5.81-8.556a3.146,3.146,0,0,1,2.7,0c4.209,1.918,4.347,23.46,4.043,31.561Z" transform="translate(-69.11 -339.894)" fill="#0091ff"/>
        <path id="Path_49248" data-name="Path 49248" d="M94.418,383.6l.69-.076c-.966-8.487-2.815-31.091.207-33.81a1.18,1.18,0,0,1,1.235-.386c2.022.78,3.257,8.135,3.56,10.9l.69-.076c-.117-1.063-1.221-10.4-4-11.468a1.849,1.849,0,0,0-1.946.511C90.913,352.7,94.273,382.346,94.418,383.6Z" transform="translate(-75.333 -338.217)" fill="#0091ff"/>
        <path id="Path_49249" data-name="Path 49249" d="M100.632,376.02H75.84l2.07,27.766H98.562Z" transform="translate(-70.03 -346.719)" fill="#0091ff"/>
        <path id="Path_49250" data-name="Path 49250" d="M93.1,376.02l-.69,27.766H77.91L75.84,376.02Z" transform="translate(-70.03 -346.719)" fill="#fff" opacity="0.2"/>
        <path id="Path_49251" data-name="Path 49251" d="M103.472,360.017c.262.69,2.187.145,3.7-.393a6.926,6.926,0,0,1-.048,4.423c-1.725,0-4.14.048-4.354.483s2.374.642,3.981.69a27.634,27.634,0,0,1-1.573,3.574c-.9-.221-1.849-.324-2.118.166s.317,1.3.945,1.939c-.966,1.621-1.753,2.725-1.753,2.725a33.2,33.2,0,0,1-3.208-3.526c0-.179,0-.366,0-.552-.062-.69-.414-.766-.835-.628a16.3,16.3,0,0,1-1.684-2.864c1.428-1.242,3.043-2.96,1.766-3.519a2.34,2.34,0,0,0-2.381.69,4.652,4.652,0,0,1,.1-.766c1.139-4.878,5-2.76,5-2.76.918-2.381,3.533-3.326,5.292-1.38C105.2,358.527,103.155,359.155,103.472,360.017Z" transform="translate(-76.252 -340.908)" fill="#0091ff"/>
        <path id="Path_49252" data-name="Path 49252" d="M103.472,360.017c.262.69,2.187.145,3.7-.393a6.926,6.926,0,0,1-.048,4.423c-1.725,0-4.14.048-4.354.483s2.374.642,3.981.69a27.634,27.634,0,0,1-1.573,3.574c-.9-.221-1.849-.324-2.118.166s.317,1.3.945,1.939c-.966,1.621-1.753,2.725-1.753,2.725a33.2,33.2,0,0,1-3.208-3.526c0-.179,0-.366,0-.552-.062-.69-.414-.766-.835-.628a16.3,16.3,0,0,1-1.684-2.864c1.428-1.242,3.043-2.96,1.766-3.519a2.34,2.34,0,0,0-2.381.69,4.652,4.652,0,0,1,.1-.766c1.139-4.878,5-2.76,5-2.76.918-2.381,3.533-3.326,5.292-1.38C105.2,358.527,103.155,359.155,103.472,360.017Z" transform="translate(-76.252 -340.908)" fill="#fff" opacity="0.3"/>
        <path id="Path_49253" data-name="Path 49253" d="M76.238,363.061a9.308,9.308,0,0,1,2.263.476,5.079,5.079,0,0,0,.331-1.635c.159-5-3.45-2.9-5.313-4.361a4.044,4.044,0,0,0-3.16-.994,7.591,7.591,0,0,1,.428.856.787.787,0,0,1-.607,1.069,2.27,2.27,0,0,1-1.38-.166,2.308,2.308,0,0,1-.366-.255,6.9,6.9,0,0,0-.69,1.677,9.266,9.266,0,0,0-.324,2.139,7.161,7.161,0,0,1,.835.235.773.773,0,0,1,.311,1.187,3.526,3.526,0,0,1-1.028.724,11.731,11.731,0,0,0,.628,2.346l.255.034a5.146,5.146,0,0,1,.538.138,2.255,2.255,0,0,1,.3.1.787.787,0,0,1,.462.607.766.766,0,0,1-.29.725,2.992,2.992,0,0,1-.373.228,5.52,5.52,0,0,0,1.98,2,20.761,20.761,0,0,0,2.07-1.118c-.152-.2-.3-.4-.435-.607a1.132,1.132,0,0,1-.214-.78,1.063,1.063,0,0,1,.407-.69,1.076,1.076,0,0,1,1.49.193,6.952,6.952,0,0,0,.524.69,12.992,12.992,0,0,0,2.594-2.436H77.4a7.5,7.5,0,0,0-1.38-.235A1.065,1.065,0,0,1,76.3,363.1Z" transform="translate(-67.42 -340.674)" fill="#0091ff"/>
        <path id="Path_49254" data-name="Path 49254" d="M76.238,363.061a9.308,9.308,0,0,1,2.263.476,5.079,5.079,0,0,0,.331-1.635c.159-5-3.45-2.9-5.313-4.361a4.044,4.044,0,0,0-3.16-.994,7.591,7.591,0,0,1,.428.856.787.787,0,0,1-.607,1.069,2.27,2.27,0,0,1-1.38-.166,2.308,2.308,0,0,1-.366-.255,6.9,6.9,0,0,0-.69,1.677,9.266,9.266,0,0,0-.324,2.139,7.161,7.161,0,0,1,.835.235.773.773,0,0,1,.311,1.187,3.526,3.526,0,0,1-1.028.724,11.731,11.731,0,0,0,.628,2.346l.255.034a5.146,5.146,0,0,1,.538.138,2.255,2.255,0,0,1,.3.1.787.787,0,0,1,.462.607.766.766,0,0,1-.29.725,2.992,2.992,0,0,1-.373.228,5.52,5.52,0,0,0,1.98,2,20.761,20.761,0,0,0,2.07-1.118c-.152-.2-.3-.4-.435-.607a1.132,1.132,0,0,1-.214-.78,1.063,1.063,0,0,1,.407-.69,1.076,1.076,0,0,1,1.49.193,6.952,6.952,0,0,0,.524.69,12.992,12.992,0,0,0,2.594-2.436H77.4a7.5,7.5,0,0,0-1.38-.235A1.065,1.065,0,0,1,76.3,363.1Z" transform="translate(-67.42 -340.674)" fill="#fff" opacity="0.5"/>
        <path id="Path_49255" data-name="Path 49255" d="M77.355,339.725a6.651,6.651,0,0,0-1.38-.745,3.663,3.663,0,0,1,.545-1.007c2.111-2.7,3.07,0,4.706.041a2.76,2.76,0,0,1,2.07.869,5.1,5.1,0,0,0-.6.262.538.538,0,0,0-.152.828,1.608,1.608,0,0,0,.814.524,1.439,1.439,0,0,0,.3,0,4.582,4.582,0,0,1-.373,1.18,6.556,6.556,0,0,1-.766,1.263,5.459,5.459,0,0,0-.545-.241.531.531,0,0,0-.69.49,2.339,2.339,0,0,0,.221.835,8.483,8.483,0,0,1-1.38.952l-.152-.09c-.11-.062-.228-.117-.338-.166a.834.834,0,0,0-.207-.076.531.531,0,0,0-.69.621,1.95,1.95,0,0,0,.1.283,3.8,3.8,0,0,1-1.918.179,13.62,13.62,0,0,1-.614-1.511l.5-.124a.793.793,0,0,0,.476-.262.773.773,0,0,0,.1-.552.731.731,0,0,0-.869-.552c-.193.055-.393.1-.593.145a8.742,8.742,0,0,1-.248-2.408h.048a5.183,5.183,0,0,1,.842.5.738.738,0,0,0,.807-1.235Z" transform="translate(-69.972 -334.553)" fill="#0091ff"/>
        <path id="Path_49256" data-name="Path 49256" d="M77.355,339.725a6.651,6.651,0,0,0-1.38-.745,3.663,3.663,0,0,1,.545-1.007c2.111-2.7,3.07,0,4.706.041a2.76,2.76,0,0,1,2.07.869,5.1,5.1,0,0,0-.6.262.538.538,0,0,0-.152.828,1.608,1.608,0,0,0,.814.524,1.439,1.439,0,0,0,.3,0,4.582,4.582,0,0,1-.373,1.18,6.556,6.556,0,0,1-.766,1.263,5.459,5.459,0,0,0-.545-.241.531.531,0,0,0-.69.49,2.339,2.339,0,0,0,.221.835,8.483,8.483,0,0,1-1.38.952l-.152-.09c-.11-.062-.228-.117-.338-.166a.834.834,0,0,0-.207-.076.531.531,0,0,0-.69.621,1.95,1.95,0,0,0,.1.283,3.8,3.8,0,0,1-1.918.179,13.62,13.62,0,0,1-.614-1.511l.5-.124a.793.793,0,0,0,.476-.262.773.773,0,0,0,.1-.552.731.731,0,0,0-.869-.552c-.193.055-.393.1-.593.145a8.742,8.742,0,0,1-.248-2.408h.048a5.183,5.183,0,0,1,.842.5.738.738,0,0,0,.807-1.235Z" transform="translate(-69.972 -334.553)" fill="#fff" opacity="0.3"/>
        <path id="Path_49257" data-name="Path 49257" d="M105.23,346.272c.145,1.014-2.608,1.684-4.83,2.07a9.622,9.622,0,0,0,3.1,5.444c2.132-1.2,5.168-2.76,5.727-2.4s-2.5,2.436-4.444,3.622a40.021,40.021,0,0,0,4.409,3.34c.952-.9,2.07-1.677,2.76-1.256s.5,1.822.166,3.05c2.318,1.38,4.05,2.173,4.05,2.173a46.577,46.577,0,0,0,1.546-6.576c-.117-.228-.235-.462-.338-.69-.373-.862,0-1.228.607-1.38a22.646,22.646,0,0,0,0-4.733c-2.615-.552-5.8-1.566-4.609-3.139.69-.952,2.035-1.056,3.409-.821a5.941,5.941,0,0,0-.649-.883c-4.768-5.251-8.1,0-8.1,0-2.76-2.3-6.665-1.684-7.507,1.925C102.07,345.616,105.051,345.023,105.23,346.272Z" transform="translate(-77.644 -336.098)" fill="#0091ff"/>
        <path id="Path_49258" data-name="Path 49258" d="M105.23,346.272c.145,1.014-2.608,1.684-4.83,2.07a9.622,9.622,0,0,0,3.1,5.444c2.132-1.2,5.168-2.76,5.727-2.4s-2.5,2.436-4.444,3.622a40.021,40.021,0,0,0,4.409,3.34c.952-.9,2.07-1.677,2.76-1.256s.5,1.822.166,3.05c2.318,1.38,4.05,2.173,4.05,2.173a46.577,46.577,0,0,0,1.546-6.576c-.117-.228-.235-.462-.338-.69-.373-.862,0-1.228.607-1.38a22.646,22.646,0,0,0,0-4.733c-2.615-.552-5.8-1.566-4.609-3.139.69-.952,2.035-1.056,3.409-.821a5.941,5.941,0,0,0-.649-.883c-4.768-5.251-8.1,0-8.1,0-2.76-2.3-6.665-1.684-7.507,1.925C102.07,345.616,105.051,345.023,105.23,346.272Z" transform="translate(-77.644 -336.098)" fill="#fff" opacity="0.5"/>
      </g>
      <g id="freepik--character-2--inject-178" transform="translate(159.259 112.28)">
        <path id="Path_49259" data-name="Path 49259" d="M276.271,186.833c-.179,1.035-.366,1.9-.593,2.829s-.469,1.815-.738,2.712a48.134,48.134,0,0,1-1.891,5.334,29.623,29.623,0,0,1-6.465,10,15.576,15.576,0,0,1-2.629,2.035c-.242.138-.511.3-.731.421l-.635.324c-.428.214-.842.414-1.27.6-1.691.766-3.36,1.456-5.058,2.07a99.65,99.65,0,0,1-10.274,3.243l-1.3-3.3c3.07-1.725,6.21-3.388,9.246-5.051,1.518-.842,3.043-1.663,4.492-2.532.359-.214.69-.421,1.069-.642l.524-.324c.159-.1.262-.186.393-.276a9.22,9.22,0,0,0,1.47-1.318A25.2,25.2,0,0,0,266.439,195c.607-1.511,1.111-3.091,1.594-4.678.235-.8.455-1.6.69-2.408s.4-1.649.545-2.346Z" transform="translate(-235.113 -152.757)" fill="#ce7a63"/>
        <path id="Path_49260" data-name="Path 49260" d="M269.58,194.872l7.452,5.561s.29-.317.759-.862c.345-.4.794-.932,1.3-1.553,2.9-3.533,7.135-9.971,7.169-13.11.048-4.706-4.83-5.4-10.309-.587-2.367,2.07-3.6,5.52-4.83,7.652-.4.69-.731,1.325-.994,1.8C269.787,194.458,269.58,194.872,269.58,194.872Z" transform="translate(-242.829 -151.35)" fill="#0091ff"/>
        <path id="Path_49261" data-name="Path 49261" d="M289.009,187.3c-1.684-1.111-2.912,1.773-6.244,4.209-1.484,1.083-4.733,8.163-4.471,9.722l1.442,1.069S289.044,191.992,289.009,187.3Z" transform="translate(-245.525 -153.217)" opacity="0.3"/>
        <path id="Path_49262" data-name="Path 49262" d="M243.842,224.2l-6.162-1.628.435,6.107s6.017.607,6.576-1.2Z" transform="translate(-232.94 -164.227)" fill="#ce7a63"/>
        <path id="Path_49263" data-name="Path 49263" d="M230.81,225.73l1.4,4.168,3.774-1.221-.435-6.106Z" transform="translate(-230.81 -164.227)" fill="#ce7a63"/>
        <path id="Path_49264" data-name="Path 49264" d="M282.371,221.684H307.6c.173-2.249-.345-9.584.041-18.913a120.539,120.539,0,0,1,2.5-20.583l.352-1.518s-1.276-.262-3.112-.531c-1.518-.221-3.45-.448-5.3-.538a94.153,94.153,0,0,0-10.723,0,42.74,42.74,0,0,0-4.54.69c-1.642.331-2.615.614-2.615.614S278,195.161,282.371,221.684Z" transform="translate(-246.311 -150.859)" fill="#0091ff"/>
        <path id="Path_49265" data-name="Path 49265" d="M318.485,203.988a120.459,120.459,0,0,1,2.5-20.576c-1.684-.152-4.568,0-5.044,2.76C315.428,189.077,316.076,195.963,318.485,203.988Z" transform="translate(-257.15 -152.076)" opacity="0.3"/>
        <path id="Path_49266" data-name="Path 49266" d="M306.29,164l-2.87,2.38-3.905,3.243a14.686,14.686,0,0,1,.248,1.58c.207,2.118-.338,2.85-3.45,3.588,0,0-3.7,2.45,1.787,2.9a7.386,7.386,0,0,0,.276,1.759,6.9,6.9,0,0,1,1.766-1.7c6-.1,6.8-2.884,6.8-2.884C304.592,172.535,305.5,167.45,306.29,164Z" transform="translate(-250.738 -146.07)" fill="#ce7a63"/>
        <path id="Path_49267" data-name="Path 49267" d="M301.5,170.663a14.671,14.671,0,0,1,.248,1.58c1.456-.29,3.4-1.842,3.609-3.333a7.04,7.04,0,0,0,.048-1.49Z" transform="translate(-252.724 -147.13)" opacity="0.2"/>
        <path id="Path_49268" data-name="Path 49268" d="M283.49,404.054l-5.306.559-.269-3.077-.725-8.37,5.306-.566.807,9.253Z" transform="translate(-245.188 -216.936)" fill="#9f5b53"/>
        <path id="Path_49269" data-name="Path 49269" d="M322.208,402.935h-5.14l-.048-1.166-.007-.145-.262-7.459-.007-.152-.1-2.863h5.154Z" transform="translate(-257.417 -216.487)" fill="#9f5b53"/>
        <path id="Path_49270" data-name="Path 49270" d="M282.5,392.6l.807,9.253-5.389-.317-.725-8.37Z" transform="translate(-245.188 -216.936)" opacity="0.2"/>
        <path id="Path_49271" data-name="Path 49271" d="M322.227,403.752h-.007l-5.154-.656h-.007l-.269-7.2h.007l5.161.407.262,7.217Z" transform="translate(-257.464 -217.959)" opacity="0.2"/>
        <path id="Path_49272" data-name="Path 49272" d="M311.921,407.779h6.21a.448.448,0,0,1,.442.352l1.014,4.582a.759.759,0,0,1-.587.9h-.166c-2.022-.034-3.5-.159-6.038-.159-1.559,0-6.279.159-8.439.159s-2.443-2.132-1.559-2.325c3.967-.863,6.948-2.07,8.218-3.2a1.249,1.249,0,0,1,.9-.3Z" transform="translate(-252.981 -221.641)" fill="#263238"/>
        <path id="Path_49273" data-name="Path 49273" d="M273.52,407.54h6.251a.448.448,0,0,1,.442.352l1.014,4.582a.759.759,0,0,1-.586.9h-.166c-2.022,0-3.5-.159-6.038-.159-1.566,0-6.279.166-8.439.166s-2.443-2.132-1.559-2.332c3.967-.862,6.948-2.07,8.218-3.2A1.242,1.242,0,0,1,273.52,407.54Z" transform="translate(-241.09 -221.567)" fill="#263238"/>
        <path id="Path_49274" data-name="Path 49274" d="M309.464,354.317h-7.445s-6-32.106-8.377-48.466c-.366-2.539-.766-5.872-1.166-9.75-.628-6.279-1.276-13.8-1.856-21.045-1.78,4.789-3.139,11.626-4.188,19.389-3.733,27.807-3.353,59.216-3.353,59.216H275.53c-5.824-44.5,1.953-99.257,4.547-113H305.3c.041,3.271,1.428,49.68,2.4,67.158C308.581,323.895,309.464,354.317,309.464,354.317Z" transform="translate(-244.018 -169.835)" fill="#263238"/>
        <path id="Path_49275" data-name="Path 49275" d="M275.25,401.35l.373,2.125h8.915v-1.96Z" transform="translate(-244.586 -219.649)" fill="#0091ff"/>
        <path id="Path_49276" data-name="Path 49276" d="M313.62,402.53l.856,1.966h7.48l.49-1.966Z" transform="translate(-256.481 -220.015)" fill="#0091ff"/>
        <path id="Path_49277" data-name="Path 49277" d="M305.158,156.359s1.532.759,1.994-.117,0-2.229.752-2.484,2.381-.29,2.277-1.207-1.138-1.656-.428-2.249,2.167-1.435,1.518-2.153-1.249-1.9-.69-2.325-.172-2.877-1.621-2.712-1.208-1.021-1.173-2.07-2.125-1.925-2.636-.883-1.621-.283-1.925-1.207-.925-1.242-2.229-.593-1.5,2.836-2.167,1.573-2.153-2.07-2.877-1.38-.29,1.6-1.428,1.553-2.719,2.015-2.16,2.332.476.883-.29,1.5-1.656,1.628-.655,2.07.938,1.173.642,1.47.6,1.739,1.946,1.656S305.158,156.359,305.158,156.359Z" transform="translate(-249.461 -138.015)" fill="#263238"/>
        <path id="Path_49278" data-name="Path 49278" d="M293.891,145.72s-2.567,6.093.179,9.384S299.8,146.6,299.8,146.6Z" transform="translate(-250.027 -140.403)" fill="#263238"/>
        <path id="Path_49279" data-name="Path 49279" d="M302.328,162.534a5.92,5.92,0,0,1-7.162.559,6.569,6.569,0,0,1-2.9-3.9,6.744,6.744,0,0,1-.152-.69c-.69-4.292.5-11.2,5.244-12.7a6.438,6.438,0,0,1,8.335,7.1C305.012,157.572,304.853,160.332,302.328,162.534Z" transform="translate(-249.757 -140.333)" fill="#ce7a63"/>
        <path id="Path_49280" data-name="Path 49280" d="M300.963,157c0,.38-.255.69-.511.656s-.421-.345-.393-.731.255-.69.5-.649S300.99,156.616,300.963,157Z" transform="translate(-252.276 -143.675)" fill="#263238"/>
        <path id="Path_49281" data-name="Path 49281" d="M294.713,156.513c0,.379-.262.69-.5.655s-.428-.345-.4-.731.262-.69.5-.649S294.74,156.154,294.713,156.513Z" transform="translate(-250.339 -143.523)" fill="#263238"/>
        <path id="Path_49282" data-name="Path 49282" d="M296.15,157.27a13.5,13.5,0,0,1-2.07,3.119,2.208,2.208,0,0,0,1.808.483Z" transform="translate(-250.424 -143.984)" fill="#ba4d3c"/>
        <path id="Path_49283" data-name="Path 49283" d="M292.95,153.772a.221.221,0,0,0,.235,0,1.829,1.829,0,0,1,1.615-.172.221.221,0,1,0,.186-.4h0a2.242,2.242,0,0,0-2.035.2.228.228,0,0,0-.083.3h0A.393.393,0,0,0,292.95,153.772Z" transform="translate(-250.039 -142.674)" fill="#263238"/>
        <path id="Path_49284" data-name="Path 49284" d="M301.9,154.479a.214.214,0,0,0,.131,0,.228.228,0,0,0,0-.317h0a2.242,2.242,0,0,0-1.932-.69.228.228,0,0,0-.173.269h0a.228.228,0,0,0,.262.173h0a1.815,1.815,0,0,1,1.525.566.221.221,0,0,0,.186,0Z" transform="translate(-252.235 -142.8)" fill="#263238"/>
        <path id="Path_49285" data-name="Path 49285" d="M307.268,147.39l-.518.828c1.477.69.945,2.45.531,3.215a5.633,5.633,0,0,0,.952,5.686s.131-.745.745-.49,0,3.45,0,3.45.531.918,2.1-3.043c1.449-3.664,1.973-6.8,1.38-8.363Z" transform="translate(-254.351 -140.921)" fill="#263238"/>
        <path id="Path_49286" data-name="Path 49286" d="M312.252,160.6a4.423,4.423,0,0,1-2.726,2.07c-1.525.386-2.242-.987-1.787-2.4.414-1.256,1.7-3.008,3.215-2.76a1.994,1.994,0,0,1,1.3,3.091Z" transform="translate(-254.616 -144.051)" fill="#ce7a63"/>
        <path id="Path_49287" data-name="Path 49287" d="M297,163.118a13.975,13.975,0,0,1,.959,1.8l.345-.1c1.566-.428,2.153-1.145,2.325-1.808a2.069,2.069,0,0,0,0-.994,2.16,2.16,0,0,0-.2-.531,7.589,7.589,0,0,1-2.9,1.477C297.2,163.07,297,163.118,297,163.118Z" transform="translate(-251.329 -145.292)" fill="#263238"/>
        <path id="Path_49288" data-name="Path 49288" d="M297.76,162.967l.3.524c1.477-.407,2.456-.9,2.8-1.47a2.16,2.16,0,0,0-.2-.531A7.589,7.589,0,0,1,297.76,162.967Z" transform="translate(-251.564 -145.292)" fill="#fff"/>
        <path id="Path_49289" data-name="Path 49289" d="M298.88,165.508c1.566-.428,2.153-1.145,2.325-1.808a5.237,5.237,0,0,0-1.642.821A1.939,1.939,0,0,0,298.88,165.508Z" transform="translate(-251.912 -145.977)" fill="#de5753"/>
        <path id="Path_49290" data-name="Path 49290" d="M300.044,143.253s-2.532,0-3.823,1.056-2.16,2.691-1.7,2.843,1.787-.607,2.132-.442.345,2.173,1.622,1.49.559-.69,1.594-.938,1.622,1.035,2.07.945a2.636,2.636,0,0,0,.9-.428s-1.38-.455-1.456-.9-1.38-.69-1.38-.69,1.649-.559,2.16-.1.214,1.483,1.559,1.456,3.45,1.152,3.643-.559S303.093,142.121,300.044,143.253Z" transform="translate(-250.522 -139.564)" fill="#263238"/>
        <path id="Path_49291" data-name="Path 49291" d="M308.4,176.32l-6.424,2.76-2.139,4.168,2.139-1.408,2.629,2.525,5.561-5.575Z" transform="translate(-252.209 -149.889)" fill="#0091ff"/>
        <path id="Path_49292" data-name="Path 49292" d="M297.493,183.248l-.69-3.691a3.207,3.207,0,0,1,1.518-2.139l-2.291-1.1s-3.547,4.264-3.76,6.9l3.105-2.07Z" transform="translate(-249.863 -149.889)" fill="#0091ff"/>
        <path id="Path_49293" data-name="Path 49293" d="M308.4,176.32l-6.424,2.76-2.139,4.168,2.139-1.408,2.629,2.525,5.561-5.575Z" transform="translate(-252.209 -149.889)" fill="#fff" opacity="0.2"/>
        <path id="Path_49294" data-name="Path 49294" d="M297.493,183.248l-.69-3.691a3.207,3.207,0,0,1,1.518-2.139l-2.291-1.1s-3.547,4.264-3.76,6.9l3.105-2.07Z" transform="translate(-249.863 -149.889)" fill="#fff" opacity="0.2"/>
        <path id="Path_49295" data-name="Path 49295" d="M272.9,407.738a.593.593,0,0,1,.055-.607.393.393,0,0,1,.338-.221c.614-.034,1.608,1.242,1.718,1.38a.117.117,0,0,1,0,.124.124.124,0,0,1-.1.055,5.928,5.928,0,0,1-1.249-.228A1.263,1.263,0,0,1,272.9,407.738Zm.407-.607a.179.179,0,0,0-.166.11.4.4,0,0,0-.048.393c.145.276.724.5,1.58.593C274.263,407.731,273.642,407.11,273.311,407.13Z" transform="translate(-243.841 -221.372)" fill="#0091ff"/>
        <path id="Path_49296" data-name="Path 49296" d="M275.492,408.126a2.445,2.445,0,0,1-.462-2.022.407.407,0,0,1,.483-.193.538.538,0,0,1,.393.29c.311.58-.207,1.835-.228,1.891a.117.117,0,0,1-.083.069h-.055Zm0-2c-.159-.035-.221,0-.248.09a2.215,2.215,0,0,0,.324,1.608,2.422,2.422,0,0,0,.166-1.518.324.324,0,0,0-.193-.166Z" transform="translate(-244.491 -221.057)" fill="#0091ff"/>
        <path id="Path_49297" data-name="Path 49297" d="M311.314,407.738a.593.593,0,0,1,.055-.607.393.393,0,0,1,.338-.221c.621-.034,1.608,1.242,1.718,1.38a.117.117,0,0,1,0,.124.124.124,0,0,1-.1.055,6.008,6.008,0,0,1-1.249-.228,1.284,1.284,0,0,1-.759-.5Zm.407-.607a.179.179,0,0,0-.166.11.4.4,0,0,0-.048.393c.145.276.724.5,1.58.593C312.673,407.731,312.052,407.11,311.721,407.13Z" transform="translate(-255.748 -221.372)" fill="#0091ff"/>
        <path id="Path_49298" data-name="Path 49298" d="M313.909,408.126a2.574,2.574,0,0,1-.462-2.022.407.407,0,0,1,.483-.193.538.538,0,0,1,.393.29c.31.58-.207,1.835-.228,1.891a.117.117,0,0,1-.083.069h-.055Zm0-2c-.159-.035-.221,0-.248.09a2.215,2.215,0,0,0,.324,1.608,2.422,2.422,0,0,0,.166-1.518.31.31,0,0,0-.193-.166Z" transform="translate(-256.404 -221.057)" fill="#0091ff"/>
        <path id="Path_49299" data-name="Path 49299" d="M296.191,285.931c-1.78,4.789-3.139,11.627-4.188,19.389-2.532-10.35,3.533-29.58,3.533-29.58Z" transform="translate(-249.588 -180.71)" opacity="0.3"/>
        <path id="Path_49300" data-name="Path 49300" d="M345.96,237.32c2.125.78,2.76,4.326,1.449,7.928s-4.14,5.872-6.21,5.092-2.76-4.333-1.449-7.928S343.855,236.534,345.96,237.32Z" transform="translate(-264.374 -168.752)" fill="#263238"/>
        <path id="Path_49301" data-name="Path 49301" d="M335.859,229.026a2.015,2.015,0,0,0-1.056-1.07c-2.07-.766-5.41,3.05-7.424,8.521s-1.953,10.529.131,11.3a1.98,1.98,0,0,0,1.483-.117,1.615,1.615,0,0,0,.607.414,1.925,1.925,0,0,0,1.47-.131,1.649,1.649,0,0,0,.621.428,1.9,1.9,0,0,0,1.463-.159,1.5,1.5,0,0,0,.621.449,1.829,1.829,0,0,0,1.47-.173,1.463,1.463,0,0,0,.621.469c1.732.642,4.5-2.532,6.21-7.079s1.622-8.756-.11-9.4a1.38,1.38,0,0,0-.78-.041,1.842,1.842,0,0,0-1-1.083,1.5,1.5,0,0,0-.766-.062,1.891,1.891,0,0,0-1.028-1.056,1.524,1.524,0,0,0-.752-.076,1.925,1.925,0,0,0-1.028-1.056A1.621,1.621,0,0,0,335.859,229.026Z" transform="translate(-260.29 -165.866)" fill="#263238"/>
        <path id="Path_49302" data-name="Path 49302" d="M335.859,229.026a2.015,2.015,0,0,0-1.056-1.07c-2.07-.766-5.41,3.05-7.424,8.521s-1.953,10.529.131,11.3a1.98,1.98,0,0,0,1.483-.117,1.615,1.615,0,0,0,.607.414,1.925,1.925,0,0,0,1.47-.131,1.649,1.649,0,0,0,.621.428,1.9,1.9,0,0,0,1.463-.159,1.5,1.5,0,0,0,.621.449,1.829,1.829,0,0,0,1.47-.173,1.463,1.463,0,0,0,.621.469c1.732.642,4.5-2.532,6.21-7.079s1.622-8.756-.11-9.4a1.38,1.38,0,0,0-.78-.041,1.842,1.842,0,0,0-1-1.083,1.5,1.5,0,0,0-.766-.062,1.891,1.891,0,0,0-1.028-1.056,1.524,1.524,0,0,0-.752-.076,1.925,1.925,0,0,0-1.028-1.056A1.621,1.621,0,0,0,335.859,229.026Z" transform="translate(-260.29 -165.866)" fill="#fff" opacity="0.2"/>
        <path id="Path_49303" data-name="Path 49303" d="M306.582,207.251a18.685,18.685,0,1,0,3,33.644,3.077,3.077,0,0,1,2.884-.152.836.836,0,0,0,.138.062c2.118.78,5.52-3.091,7.542-8.653s1.987-10.695-.131-11.475l-.145-.041a3.112,3.112,0,0,1-2.111-2.008A18.63,18.63,0,0,0,306.582,207.251Z" transform="translate(-246.504 -159.12)" fill="#0091ff"/>
        <path id="Path_49304" data-name="Path 49304" d="M306.582,207.251a18.685,18.685,0,1,0,3,33.644,3.077,3.077,0,0,1,2.884-.152.836.836,0,0,0,.138.062c2.118.78,5.52-3.091,7.542-8.653s1.987-10.695-.131-11.475l-.145-.041a3.112,3.112,0,0,1-2.111-2.008A18.63,18.63,0,0,0,306.582,207.251Z" transform="translate(-246.504 -159.12)" fill="#fff" opacity="0.7"/>
        <path id="Path_49305" data-name="Path 49305" d="M311.7,241.168a.232.232,0,0,1-.214-.3l1.166-3.16-1.987-1.87a.228.228,0,0,1-.062-.228.234.234,0,0,1,.186-.159l4.4-.642-2.939-3.34a.228.228,0,0,1-.034-.235.221.221,0,0,1,.186-.138l4.885-.462-3.45-3.519a.214.214,0,0,1-.048-.235.235.235,0,0,1,.2-.145l2.719-.131,1.166-3.16a.221.221,0,0,1,.228-.152.228.228,0,0,1,.2.186c.931,5.223,8.922,9.584,9,9.626a.224.224,0,1,1-.214.393c-.317-.173-7.555-4.14-9.06-9.2l-.952,2.6a.228.228,0,0,1-.2.152l-2.374.117,3.4,3.5a.214.214,0,0,1,.048.228.235.235,0,0,1-.186.152l-4.92.455,2.919,3.326a.214.214,0,0,1,.041.228.228.228,0,0,1-.172.145l-4.354.635,1.753,1.649a.228.228,0,0,1,.055.242l-1.028,2.8c1.677-.69,7.342-2.76,12.765-.773a.235.235,0,0,1,.131.29.221.221,0,0,1-.29.131c-6.21-2.3-12.834.938-12.9.973a.256.256,0,0,1-.069.028Z" transform="translate(-255.544 -164.45)" fill="#263238"/>
        <path id="Path_49306" data-name="Path 49306" d="M322.778,184.22c.8.6,1.442,1.118,2.125,1.711s1.332,1.166,1.973,1.766a47.6,47.6,0,0,1,3.678,3.864,36.4,36.4,0,0,1,3.243,4.416,23.164,23.164,0,0,1,2.47,5.237c.138.49.29.973.393,1.49a9.563,9.563,0,0,1,.241,1.78,13.923,13.923,0,0,1-.255,3.1,33.315,33.315,0,0,1-1.435,5.216,60.226,60.226,0,0,1-4.292,9.363l-3.264-1.38c.814-3.139,1.635-6.355,2.256-9.46a37.481,37.481,0,0,0,.662-4.492,9.5,9.5,0,0,0-.034-1.863,3.229,3.229,0,0,0-.173-.69,9.216,9.216,0,0,0-.311-.9,25.461,25.461,0,0,0-4.83-7.128c-1.021-1.138-2.132-2.222-3.264-3.291-.566-.538-1.145-1.056-1.732-1.566s-1.214-1.035-1.732-1.449Z" transform="translate(-257.994 -152.338)" fill="#ce7a63"/>
        <path id="Path_49307" data-name="Path 49307" d="M315.49,190.93a89.158,89.158,0,0,0,6.431,8.2c.5.587.966,1.111,1.339,1.532.69.738,1.069,1.18,1.069,1.18l7.866-7.59s-.221-.359-.607-.952c-.29-.448-.69-1.042-1.125-1.711-2.684-3.967-7.942-10.943-11.143-10.591C314.537,181.574,312.143,185.907,315.49,190.93Z" transform="translate(-256.577 -151.334)" fill="#0091ff"/>
        <path id="Path_49308" data-name="Path 49308" d="M334.068,237.4l-2.408,4.644-3.139-5.72s2.87-3.719,4.671-2.07Z" transform="translate(-261.1 -167.717)" fill="#ce7a63"/>
        <path id="Path_49309" data-name="Path 49309" d="M325.177,244.388l-2.367-4.844,3.94-2.1,3.139,5.713Z" transform="translate(-259.33 -168.837)" fill="#ce7a63"/>
      </g>
      <g id="freepik--character-1--inject-178" transform="translate(112.73 127.268)">
        <path id="Path_49310" data-name="Path 49310" d="M202.321,281.26l30.864,4.589.248,24.978-7.693,7.217-33.3-6.169,1.49-26.634Z" transform="translate(-172.386 -197.409)" fill="#0091ff"/>
        <path id="Path_49311" data-name="Path 49311" d="M233.43,310.826l-2.995,2.815-.669.621-4.03,3.781-33.306-6.169,1.5-26.634,3.581-1.7,1.1-.524,3.705-1.76,30.864,4.589Z" transform="translate(-172.383 -197.409)" opacity="0.4"/>
        <path id="Path_49312" data-name="Path 49312" d="M194.6,285.241l30.422,4.906,8.832-4.3L202.99,281.26Z" transform="translate(-173.056 -197.409)" fill="#fff" opacity="0.2"/>
        <path id="Path_49313" data-name="Path 49313" d="M238.69,292.209l1.387,27.9,7.693-7.217-.248-24.978Z" transform="translate(-186.724 -199.47)" fill="#fff" opacity="0.1"/>
        <path id="Path_49314" data-name="Path 49314" d="M232.717,314.432l-.669.621-1.194-26.1-31.064-4.616,1.1-.524,30.643,4.8Z" transform="translate(-174.665 -198.199)" fill="#263238"/>
        <path id="Path_49315" data-name="Path 49315" d="M215.12,285.713l1.925-.883,7.811,1.056-1.773,1.069Z" transform="translate(-179.417 -198.516)" fill="#263238"/>
        <path id="Path_49316" data-name="Path 49316" d="M210.74,281.818s2.167-7.845,2.553-8.28,11.3,1.228,12.116,1.332,1.808,8.735,1.808,8.735l-.883.69-2.07-.373s-.373-7.307-.58-7.542a81.884,81.884,0,0,0-8.908-1.38c-.276.09-1.332,6.279-1.332,6.279l-.987.752Z" transform="translate(-178.059 -194.992)" fill="#263238"/>
        <path id="Path_49317" data-name="Path 49317" d="M249.1,315.925l-3.043,2.125v-.628l-.228-4.933V311.9l-.048-1.056s.4.911.994,1.987a9.735,9.735,0,0,0,2.325,3.1Z" transform="translate(-188.922 -206.579)" fill="#0091ff"/>
        <path id="Path_49318" data-name="Path 49318" d="M248.335,316.379l-2.3,1.518-.228-4.934v-.593A9.33,9.33,0,0,0,248.335,316.379Z" transform="translate(-188.931 -207.053)" fill="#fff" opacity="0.2"/>
        <path id="Path_49319" data-name="Path 49319" d="M246.694,312.827c-.31-.131-.628-.241-.918-.338l-.076-1.649S246.1,311.751,246.694,312.827Z" transform="translate(-188.897 -206.579)" opacity="0.2"/>
        <path id="Path_49320" data-name="Path 49320" d="M251.625,309.183l-.883,4.1a9.563,9.563,0,0,0-5.009-2.394v-.614l-.173-3.823v-.4A13.5,13.5,0,0,1,251.625,309.183Z" transform="translate(-188.854 -205.094)" fill="#0091ff"/>
        <path id="Path_49321" data-name="Path 49321" d="M249.5,297.1a15.87,15.87,0,0,1-4.292,3.043v-.462l-.041-1.214-.069-2.022-.034-.98v-.283a17.494,17.494,0,0,0,2.18-2.07Z" transform="translate(-188.699 -201.082)" fill="#0091ff"/>
        <path id="Path_49322" data-name="Path 49322" d="M241.82,287.252a8.417,8.417,0,0,0-1.566,1.711l-.49-.069-.69-.1-1.07-.152-1.028-.152-.366-.055a6.645,6.645,0,0,1,2.939-3.6Z" transform="translate(-186.079 -198.516)" fill="#0091ff"/>
        <path id="Path_49323" data-name="Path 49323" d="M239.606,285.57a6.833,6.833,0,0,0-2.436,3.146l1.028.152a.69.69,0,0,1-.117-.393.725.725,0,0,1,1.449,0,.69.69,0,0,1-.262.545l.69.1a10.681,10.681,0,0,1,1.38-1.739Z" transform="translate(-186.253 -198.745)" fill="#fff" opacity="0.2"/>
        <path id="Path_49324" data-name="Path 49324" d="M245.52,306.63l.173,3.823a13.7,13.7,0,0,1,4.83,2.277l.793-3.3a12.5,12.5,0,0,0-5.8-2.8Zm3.1,2.7a1.221,1.221,0,1,1-.752-1.3,1.076,1.076,0,0,1,.745,1.3Z" transform="translate(-188.841 -205.274)" fill="#fff" opacity="0.2"/>
        <path id="Path_49325" data-name="Path 49325" d="M247.095,294.14a8.24,8.24,0,0,1-2.015,1.642l.035.98h.048a1.021,1.021,0,0,1,0,2.029l.041,1.214a19.419,19.419,0,0,0,3.685-2.581Z" transform="translate(-188.705 -201.402)" fill="#fff" opacity="0.2"/>
        <path id="Path_49326" data-name="Path 49326" d="M208.593,202.25c3.961,2.622,4.326,20.093,4.685,25.006s3.45,18.561,3.45,18.561L213.451,247s-3.616-13.041-4.871-20.472C208.117,223.661,208.593,202.25,208.593,202.25Z" transform="translate(-177.327 -172.916)" fill="#263238"/>
        <path id="Path_49327" data-name="Path 49327" d="M216.735,245.824,213.465,247s-3.616-13.034-4.871-20.472a7.966,7.966,0,0,1-.083-.849c-.145-2.07-.152-6.679-.11-11.254.055-6.107.193-12.179.193-12.179,2.3,1.525,3.395,8.08,3.967,14.255.214,2.3.359,4.561.469,6.479.1,1.787.179,3.284.248,4.271C213.637,232.175,216.735,245.824,216.735,245.824Z" transform="translate(-177.327 -172.916)" fill="#fff" opacity="0.2"/>
        <path id="Path_49328" data-name="Path 49328" d="M213.03,228.456a29.3,29.3,0,0,1-4.519,2.7c-.145-2.07-.152-6.679-.11-11.254l1.076,2.456,3.084-.38C212.775,224.282,212.947,226.538,213.03,228.456Z" transform="translate(-177.327 -178.387)" opacity="0.2"/>
        <path id="Path_49329" data-name="Path 49329" d="M223.748,224.452l4.761-2.622.9,5.141s-4.83,1.746-5.692.366Z" transform="translate(-182.083 -178.986)" fill="#ffb573"/>
        <path id="Path_49330" data-name="Path 49330" d="M235.242,223.465l-.3,3.74-3.374-.235-.9-5.141Z" transform="translate(-184.234 -178.986)" fill="#ffb573"/>
        <path id="Path_49331" data-name="Path 49331" d="M175.447,163.989s1.47-4.865,9.149-4.188,9.66,7.59,7.59,13.069a12.951,12.951,0,0,0,.186,9.908,3.126,3.126,0,0,1-1.732-2.07,5.03,5.03,0,0,0,.455,2.76s-10.088,2-15.18.5a5.768,5.768,0,0,0,.973-3.919s-.255,2.256-1.166,3.015a9.232,9.232,0,0,0,.455-4.513c-.5-1.863-3.547-2.07-4.092-7S173.377,163.486,175.447,163.989Z" transform="translate(-166.047 -159.737)" fill="#263238"/>
        <path id="Path_49332" data-name="Path 49332" d="M199.6,247.378s3.595,27.945,3.284,45.692c1.242,16.636,2.284,51.571,4.181,55.345-.069.849-2.5,1.228-3.3.69,0,0-12.979-29.042-11.3-56.062-11.433-28.186-10.75-45.692-10.75-45.692Z" transform="translate(-169.06 -186.897)" fill="#ffb573"/>
        <path id="Path_49333" data-name="Path 49333" d="M189.054,247.39s-8.17,31.54-11.406,47.03c-3.4,16.263-6.9,35.88-6.934,54.407-.911.538-1.221,1.49-3.064.925,0,0-8.66-37.2-1.325-54.613-3.222-38.53,6.969-47.748,6.969-47.748Z" transform="translate(-163.377 -186.909)" fill="#ffb573"/>
        <path id="Path_49334" data-name="Path 49334" d="M165.45,289.2a6.989,6.989,0,0,0,1.9,1.477,11.248,11.248,0,0,1,1.125-5.237,17.346,17.346,0,0,0,.552,6.058c5.451,2.3,15.96,3.829,29.1.607,0-15.415-3.05-41.359-3.257-43.891,0,0-15.587.414-21.914.414C166.023,256.883,164.167,283.386,165.45,289.2Z" transform="translate(-163.902 -187.163)" fill="#263238"/>
        <path id="Path_49335" data-name="Path 49335" d="M168.587,395.74s-1.939.524-2.153,3.395a99.737,99.737,0,0,0,.6,10.764h.724s-.207-7.155.076-8.446c.228,3.74,2.9,8.446,6.445,8.446,1.263,0-1.477-5.713-1.925-9.191s-.58-4.692-.58-4.692Z" transform="translate(-164.313 -232.898)" fill="#263238"/>
        <path id="Path_49336" data-name="Path 49336" d="M172.682,392.47l-3.112,2.256c.166,3.871,1.539,8.825,3.353,10.433a.738.738,0,0,0,1.166-.731,58.648,58.648,0,0,1-1.408-11.958Z" transform="translate(-165.297 -231.884)" fill="#ffb573"/>
        <path id="Path_49337" data-name="Path 49337" d="M213.591,395.74s-1.939.524-2.146,3.395a101.606,101.606,0,0,0,.6,10.764h.69a84.4,84.4,0,0,1,.076-8.446c.221,3.74,2.9,8.446,6.445,8.446,1.256,0-1.483-5.713-1.925-9.191a40.222,40.222,0,0,0-.856-4.968Z" transform="translate(-178.267 -232.898)" fill="#263238"/>
        <path id="Path_49338" data-name="Path 49338" d="M216.5,391.916c-.338-.9-3.064,1.746-3.064,1.746.166,3.878,2.318,9.66,4.14,11.3a.738.738,0,0,0,1.166-.731C217.345,398.491,217.49,394.5,216.5,391.916Z" transform="translate(-178.896 -231.654)" fill="#ffb573"/>
        <path id="Path_49339" data-name="Path 49339" d="M165.45,289.2a6.989,6.989,0,0,0,1.9,1.477,11.248,11.248,0,0,1,1.125-5.237,17.346,17.346,0,0,0,.552,6.058c5.451,2.3,15.96,3.829,29.1.607,0-15.415-3.05-41.359-3.257-43.891,0,0-15.587.414-21.914.414C166.023,256.883,164.167,283.386,165.45,289.2Z" transform="translate(-163.902 -187.163)" fill="#fff" opacity="0.2"/>
        <path id="Path_49340" data-name="Path 49340" d="M174.3,215.5h23.922a84.857,84.857,0,0,0,.11-8.625,7.745,7.745,0,0,0-6.852-7.107c-1.042-.138-2.132-.262-3.188-.352a71.971,71.971,0,0,0-9.66,0c-.918.041-1.815.11-2.657.186-3.167.3-5.348,3.2-4.257,6.086A47.7,47.7,0,0,1,174.3,215.5Z" transform="translate(-165.876 -171.987)" fill="#0091ff"/>
        <path id="Path_49341" data-name="Path 49341" d="M174.3,215.5h23.922a84.857,84.857,0,0,0,.11-8.625,7.745,7.745,0,0,0-6.852-7.107c-1.042-.138-2.132-.262-3.188-.352a71.971,71.971,0,0,0-9.66,0c-.918.041-1.815.11-2.657.186-3.167.3-5.348,3.2-4.257,6.086A47.7,47.7,0,0,1,174.3,215.5Z" transform="translate(-165.876 -171.987)" fill="#fff" opacity="0.7"/>
        <path id="Path_49342" data-name="Path 49342" d="M178.229,198.93,188.448,211.4s1.987-6.424.938-11.944c0,0,4.5-.048,7.459,1.766,0,0,4.319,7.086,0,27.1l1.256,9.55-7.252,2.187-2.38-6.935-2.877,7.293L171.66,236.5l3.912-7.362s-1.27-16.919-5.092-24.654C170.508,204.5,171.115,198.854,178.229,198.93Z" transform="translate(-165.579 -171.886)" fill="#263238"/>
        <path id="Path_49343" data-name="Path 49343" d="M196.729,208.9l-5.127,3.45.9,3.25c-3.595-5.637-10.536-6.7-10.536-6.7l2.173-2.946h-5.375c-.117-3.747,2.546-7.687,2.546-7.687l.945-.166a80.145,80.145,0,0,0,8.687,12.316s2.07-8.328-1.035-11.82a12.241,12.241,0,0,1,7.273,6.445l-3.264,1.007Z" transform="translate(-168.147 -171.629)" fill="#263238"/>
        <path id="Path_49344" data-name="Path 49344" d="M196.729,208.9l-5.127,3.45.9,3.25c-3.595-5.637-10.536-6.7-10.536-6.7l2.173-2.946h-5.375c-.117-3.747,2.546-7.687,2.546-7.687l.945-.166a80.145,80.145,0,0,0,8.687,12.316s2.07-8.328-1.035-11.82a12.241,12.241,0,0,1,7.273,6.445l-3.264,1.007Z" transform="translate(-168.147 -171.629)" fill="#fff" opacity="0.2"/>
        <path id="Path_49345" data-name="Path 49345" d="M182.708,183.7c.842,3.119,1.877,8.825-.152,10.9,0,0-1.449,2.76,6.776,2.491.69,1.711,2.1,4.83,2.1,4.83s.1-3.691-.469-4.94c5.292-.455,1.276-2.4,1.276-2.4-3.533-.828-3.636-3.409-3.215-5.824Z" transform="translate(-169.292 -167.165)" fill="#ffb573"/>
        <path id="Path_49346" data-name="Path 49346" d="M186.528,186.7l3.747,3a9.734,9.734,0,0,0-.173,1.718c-1.339-.186-3.271-1.649-3.519-3.036A4.761,4.761,0,0,1,186.528,186.7Z" transform="translate(-170.538 -168.095)" opacity="0.2"/>
        <path id="Path_49347" data-name="Path 49347" d="M178.93,171.042c.945,5.037,1.242,7.176,4.14,9.591,4.319,3.629,10.253,1.711,10.819-3.45.511-4.616-1.125-12.068-6.307-13.731a6.562,6.562,0,0,0-8.653,7.59Z" transform="translate(-168.149 -160.765)" fill="#ffb573"/>
        <path id="Path_49348" data-name="Path 49348" d="M182.438,167.975c-2.76,3.581,2.926,7.7-2.76,7.459s-3.388-8.28,0-10.122S182.438,167.975,182.438,167.975Z" transform="translate(-167.359 -161.327)" fill="#263238"/>
        <path id="Path_49349" data-name="Path 49349" d="M181.23,164.55c.69,3.45,1.27,4.326,4.319,3.395a3.581,3.581,0,0,1-.573-2.339,3.45,3.45,0,0,0,1.711,1.891,11.95,11.95,0,0,1,2.546-.78,3.284,3.284,0,0,1-.152-1.484,3.229,3.229,0,0,0,1.152,1.38,8.638,8.638,0,0,1,2.76.483C192.974,163.5,186.847,159.6,181.23,164.55Z" transform="translate(-168.911 -160.504)" fill="#263238"/>
        <path id="Path_49350" data-name="Path 49350" d="M190.5,175.487c.062.428.331.752.607.731s.442-.379.38-.807-.331-.752-.6-.731S190.442,175.059,190.5,175.487Z" transform="translate(-171.782 -164.369)" fill="#263238"/>
        <path id="Path_49351" data-name="Path 49351" d="M197.99,175.047c.062.428.331.752.607.731s.442-.379.379-.807-.331-.752-.6-.731S197.9,174.619,197.99,175.047Z" transform="translate(-174.1 -164.232)" fill="#263238"/>
        <path id="Path_49352" data-name="Path 49352" d="M198.35,174.123l.959-.373S198.909,174.613,198.35,174.123Z" transform="translate(-174.218 -164.081)" fill="#263238"/>
        <path id="Path_49353" data-name="Path 49353" d="M196,176.57a12.544,12.544,0,0,0,1.877,2.608,1.711,1.711,0,0,1-1.442.4Z" transform="translate(-173.49 -164.955)" fill="#ed893e"/>
        <path id="Path_49354" data-name="Path 49354" d="M192.411,182.827a4.008,4.008,0,0,0,.69,0,.124.124,0,0,0,.1-.138.145.145,0,0,0-.145-.117,3.54,3.54,0,0,1-2.877-1.118.131.131,0,0,0-.179,0,.117.117,0,0,0,0,.173A3.754,3.754,0,0,0,192.411,182.827Z" transform="translate(-171.619 -166.458)" fill="#263238"/>
        <path id="Path_49355" data-name="Path 49355" d="M178.124,180.293a3.54,3.54,0,0,0,2.139,1.87c1.173.311,1.684-1.028,1.29-2.374-.352-1.208-1.38-2.822-2.525-2.525S177.537,179.141,178.124,180.293Z" transform="translate(-167.861 -165.159)" fill="#ffb573"/>
        <path id="Path_49356" data-name="Path 49356" d="M188.308,171.983a.228.228,0,0,0,.179-.076,1.828,1.828,0,0,1,1.628-.621.235.235,0,0,0,.276-.2.283.283,0,0,0-.214-.3,2.318,2.318,0,0,0-2.07.766.262.262,0,0,0,0,.359A.242.242,0,0,0,188.308,171.983Z" transform="translate(-171.021 -163.156)" fill="#263238"/>
        <path id="Path_49357" data-name="Path 49357" d="M198.668,171.258a.235.235,0,0,0,.172-.062.248.248,0,0,0,0-.345,2.629,2.629,0,0,0-2.132-.952.235.235,0,0,0-.2.276.276.276,0,0,0,.29.221,2.118,2.118,0,0,1,1.684.766A.276.276,0,0,0,198.668,171.258Z" transform="translate(-173.646 -162.886)" fill="#263238"/>
        <path id="Path_49358" data-name="Path 49358" d="M190.9,174.563l.959-.373S191.459,175.025,190.9,174.563Z" transform="translate(-171.909 -164.217)" fill="#263238"/>
        <path id="Path_49359" data-name="Path 49359" d="M220.095,274.245l.849-1.346a1.856,1.856,0,0,0,.145-1.69l-1.063-2.588a3.45,3.45,0,0,0-2.415-2.07l-.69-.152a11.715,11.715,0,0,0-1.663,5.6l-.138.98a1.546,1.546,0,0,0,1.27,1.787l1.946.3a1.773,1.773,0,0,0,1.76-.814Z" transform="translate(-179.41 -192.802)" fill="#ffb573"/>
        <path id="Path_49360" data-name="Path 49360" d="M198.031,248.589a100.554,100.554,0,0,1-21.942-.041.49.49,0,0,1-.38-.69c.179-.407.352-.821.531-1.228a.462.462,0,0,1,.469-.29,98.05,98.05,0,0,0,21.1,0,.476.476,0,0,1,.511.435c.041.421.083.849.131,1.277a.483.483,0,0,1-.421.538Z" transform="translate(-167.186 -186.583)" fill="#263238"/>
        <path id="Path_49361" data-name="Path 49361" d="M193,197.68a4.86,4.86,0,0,1,1.235,3.657l3.595.759A5.237,5.237,0,0,0,193,197.68Z" transform="translate(-172.56 -171.499)" fill="#0091ff"/>
        <path id="Path_49362" data-name="Path 49362" d="M188.786,201.191s-4.83-2.76-5.879-4.271l-2.139,1.608s-.69,2.512,2.229,4.761Z" transform="translate(-168.746 -171.263)" fill="#0091ff"/>
        <path id="Path_49363" data-name="Path 49363" d="M193,197.68a4.86,4.86,0,0,1,1.235,3.657l3.595.759A5.237,5.237,0,0,0,193,197.68Z" transform="translate(-172.56 -171.499)" fill="#fff" opacity="0.6"/>
        <path id="Path_49364" data-name="Path 49364" d="M188.786,201.191s-4.83-2.76-5.879-4.271l-2.139,1.608s-.69,2.512,2.229,4.761Z" transform="translate(-168.746 -171.263)" fill="#fff" opacity="0.6"/>
        <path id="Path_49365" data-name="Path 49365" d="M207.181,222.532a85.451,85.451,0,0,1-10.012,1.711c-1.78.2-3.574.324-5.41.366a28.576,28.576,0,0,1-5.741-.386,10.909,10.909,0,0,1-3.319-1.138l-.449-.283-.3-.2-.593-.4c-.4-.269-.8-.538-1.173-.835a32.782,32.782,0,0,1-4.243-3.823,38.639,38.639,0,0,1-3.553-4.45c-.524-.794-1.028-1.6-1.49-2.443-.242-.414-.455-.849-.69-1.276l-.311-.69c-.11-.242-.2-.435-.324-.766-.69-1.649-.173-4.375,1.477-5.037s3.678.925,4.409,2.436l.1.2.2.435.262.5c.172.338.352.69.545,1.021.373.69.8,1.38,1.228,2.022a32.43,32.43,0,0,0,2.836,3.809,32.058,32.058,0,0,0,3.333,3.374c.283.269.586.511.9.759l.787.655a5.747,5.747,0,0,0,1.573.635,27.394,27.394,0,0,0,4.651.69c1.642.117,3.34.145,5.03.166a99.61,99.61,0,0,0,10.046-.98Z" transform="translate(-165.206 -173.063)" fill="#263238"/>
        <path id="Path_49366" data-name="Path 49366" d="M207.181,222.532a85.451,85.451,0,0,1-10.012,1.711c-1.78.2-3.574.324-5.41.366a28.576,28.576,0,0,1-5.741-.386,10.909,10.909,0,0,1-3.319-1.138l-.449-.283-.3-.2-.593-.4c-.4-.269-.8-.538-1.173-.835a32.782,32.782,0,0,1-4.243-3.823,38.639,38.639,0,0,1-3.553-4.45c-.524-.794-1.028-1.6-1.49-2.443-.242-.414-.455-.849-.69-1.276l-.311-.69c-.11-.242-.2-.435-.324-.766-.69-1.649-.173-4.375,1.477-5.037s3.678.925,4.409,2.436l.1.2.2.435.262.5c.172.338.352.69.545,1.021.373.69.8,1.38,1.228,2.022a32.43,32.43,0,0,0,2.836,3.809,32.058,32.058,0,0,0,3.333,3.374c.283.269.586.511.9.759l.787.655a5.747,5.747,0,0,0,1.573.635,27.394,27.394,0,0,0,4.651.69c1.642.117,3.34.145,5.03.166a99.61,99.61,0,0,0,10.046-.98Z" transform="translate(-165.206 -173.063)" fill="#fff" opacity="0.2"/>
        <path id="Path_49367" data-name="Path 49367" d="M221.19,224.929l.38,5.023,2.084-.393-.31-4.7Z" transform="translate(-181.299 -179.925)" fill="#0091ff"/>
        <path id="Path_49368" data-name="Path 49368" d="M221.19,224.929l.38,5.023,2.084-.393-.31-4.7Z" transform="translate(-181.299 -179.925)" fill="#fff" opacity="0.7"/>
        <path id="Path_49369" data-name="Path 49369" d="M219.36,264.87l-4.92,1.083.683,2.008,4.609-.973Z" transform="translate(-179.206 -192.328)" fill="#0091ff"/>
        <path id="Path_49370" data-name="Path 49370" d="M219.36,264.87l-4.92,1.083.683,2.008,4.609-.973Z" transform="translate(-179.206 -192.328)" fill="#fff" opacity="0.7"/>
      </g>
    </g>
  </g>
</svg>
