<svg xmlns="http://www.w3.org/2000/svg" width="345" height="307" viewBox="0 0 345 307">
  <g id="Group_4513" data-name="Group 4513" transform="translate(-19243 -4331)">
    <rect id="Rectangle_4507" data-name="Rectangle 4507" width="345" height="307" transform="translate(19243 4331)" fill="none"/>
    <g id="Experts-rafiki" transform="translate(19243 4306.471)">
      <g id="freepik--background-complete--inject-38" transform="translate(0 52.395)">
        <rect id="Rectangle_4511" data-name="Rectangle 4511" width="345" height="0.173" transform="translate(0 225.906)" fill="#ebebeb"/>
        <rect id="Rectangle_4512" data-name="Rectangle 4512" width="38.109" height="0.173" transform="translate(272.322 237.008)" fill="#ebebeb"/>
        <rect id="Rectangle_4513" data-name="Rectangle 4513" width="5.996" height="0.173" transform="translate(222.049 233.393)" fill="#ebebeb"/>
        <rect id="Rectangle_4514" data-name="Rectangle 4514" width="13.241" height="0.173" transform="translate(257.004 230.605)" fill="#ebebeb"/>
        <rect id="Rectangle_4515" data-name="Rectangle 4515" width="29.801" height="0.173" transform="translate(36.197 231.764)" fill="#ebebeb"/>
        <rect id="Rectangle_4516" data-name="Rectangle 4516" width="31.547" height="0.173" transform="translate(148.578 236.221)" fill="#ebebeb"/>
        <rect id="Rectangle_4517" data-name="Rectangle 4517" width="64.639" height="0.173" transform="translate(96.917 233.303)" fill="#ebebeb"/>
        <path id="Path_49123" data-name="Path 49123" d="M179.322,246.192a3.94,3.94,0,0,1-3.947,3.94H42.143a3.94,3.94,0,0,1-3.933-3.94V58.905A3.94,3.94,0,0,1,42.143,55H175.375a3.94,3.94,0,0,1,3.94,3.94m-.173,0a3.774,3.774,0,0,0-3.767-3.8H42.143a3.767,3.767,0,0,0-3.761,3.767V246.192a3.767,3.767,0,0,0,3.76,3.767H175.375a3.774,3.774,0,0,0,3.767-3.767" transform="translate(-11.845 -55)" fill="#ebebeb"/>
        <path id="Path_49124" data-name="Path 49124" d="M391.679,250.132H258.44a3.947,3.947,0,0,1-3.94-3.94V58.905A3.947,3.947,0,0,1,258.44,55H391.679a3.94,3.94,0,0,1,3.926,3.905V246.192A3.94,3.94,0,0,1,391.679,250.132ZM258.44,55.138a3.774,3.774,0,0,0-3.767,3.767V246.192a3.774,3.774,0,0,0,3.767,3.767H391.679a3.774,3.774,0,0,0,3.767-3.767V58.905a3.774,3.774,0,0,0-3.767-3.767Z" transform="translate(-78.895 -55)" fill="#ebebeb"/>
        <rect id="Rectangle_4518" data-name="Rectangle 4518" width="41.503" height="87.195" transform="translate(90.259 225.906) rotate(180)" fill="#e6e6e6"/>
        <path id="Path_49125" data-name="Path 49125" d="M74.845,377.065H70.67V365.19h8.549Z" transform="translate(-21.908 -151.159)" fill="#f0f0f0"/>
        <rect id="Rectangle_4519" data-name="Rectangle 4519" width="41.503" height="87.195" transform="translate(200.003 225.906) rotate(180)" fill="#e6e6e6"/>
        <rect id="Rectangle_4520" data-name="Rectangle 4520" width="113.381" height="79.909" transform="translate(162.136 218.62) rotate(180)" fill="#f0f0f0"/>
        <rect id="Rectangle_4521" data-name="Rectangle 4521" width="106.909" height="21.914" transform="translate(158.9 164.165) rotate(180)" fill="#e6e6e6"/>
        <path id="Path_49126" data-name="Path 49126" d="M134.051,267.652H149.19a23.95,23.95,0,0,0,17.388-7.452H116.67A23.922,23.922,0,0,0,134.051,267.652Z" transform="translate(-36.168 -118.612)" fill="#f0f0f0"/>
        <path id="Path_49127" data-name="Path 49127" d="M226.972,377.065h4.175V365.19H222.59Z" transform="translate(-69.003 -151.159)" fill="#f0f0f0"/>
        <rect id="Rectangle_4522" data-name="Rectangle 4522" width="106.909" height="21.914" transform="translate(158.9 189.619) rotate(180)" fill="#e6e6e6"/>
        <path id="Path_49128" data-name="Path 49128" d="M134.051,304.57H149.19a23.955,23.955,0,0,0,17.386-7.478l-49.906,0a23.929,23.929,0,0,0,17.381,7.48Z" transform="translate(-36.168 -130.048)" fill="#f0f0f0"/>
        <rect id="Rectangle_4523" data-name="Rectangle 4523" width="106.909" height="21.914" transform="translate(158.9 215.073) rotate(180)" fill="#e6e6e6"/>
        <path id="Path_49129" data-name="Path 49129" d="M134.051,341.466H149.19A23.957,23.957,0,0,0,166.578,334H116.67A23.929,23.929,0,0,0,134.051,341.466Z" transform="translate(-36.168 -141.49)" fill="#f0f0f0"/>
        <rect id="Rectangle_4524" data-name="Rectangle 4524" width="3.774" height="28.649" rx="0.59" transform="translate(57.449 110.062)" fill="#ebebeb"/>
        <rect id="Rectangle_4525" data-name="Rectangle 4525" width="3.774" height="10.426" transform="translate(57.449 113.015)" fill="#fafafa"/>
        <rect id="Rectangle_4526" data-name="Rectangle 4526" width="3.774" height="6.431" transform="translate(57.449 126.656)" fill="#fafafa"/>
        <rect id="Rectangle_4527" data-name="Rectangle 4527" width="16.084" height="28.649" rx="0.59" transform="translate(61.224 110.062)" fill="#e0e0e0"/>
        <rect id="Rectangle_4528" data-name="Rectangle 4528" width="4.168" height="31.602" rx="0.65" transform="translate(63.121 107.109)" fill="#ebebeb"/>
        <rect id="Rectangle_4529" data-name="Rectangle 4529" width="4.168" height="2.822" transform="translate(63.114 111.242)" fill="#fafafa"/>
        <rect id="Rectangle_4530" data-name="Rectangle 4530" width="4.168" height="2.822" transform="translate(63.114 119.425)" fill="#fafafa"/>
        <rect id="Rectangle_4531" data-name="Rectangle 4531" width="4.168" height="2.822" transform="translate(63.114 127.616)" fill="#fafafa"/>
        <rect id="Rectangle_4532" data-name="Rectangle 4532" width="17.74" height="31.602" rx="0.65" transform="translate(67.316 107.109)" fill="#e0e0e0"/>
        <rect id="Rectangle_4533" data-name="Rectangle 4533" width="3.774" height="28.649" rx="0.59" transform="translate(69.179 110.062)" fill="#ebebeb"/>
        <rect id="Rectangle_4534" data-name="Rectangle 4534" width="3.774" height="5.347" transform="translate(69.179 115.692)" fill="#fafafa"/>
        <rect id="Rectangle_4535" data-name="Rectangle 4535" width="3.774" height="3.298" transform="translate(69.179 122.689)" fill="#fafafa"/>
        <rect id="Rectangle_4536" data-name="Rectangle 4536" width="16.084" height="28.649" rx="0.59" transform="translate(72.961 110.062)" fill="#e0e0e0"/>
        <rect id="Rectangle_4537" data-name="Rectangle 4537" width="4.168" height="24.654" rx="0.65" transform="translate(74.382 114.064)" fill="#ebebeb"/>
        <rect id="Rectangle_4538" data-name="Rectangle 4538" width="4.168" height="4.561" transform="translate(74.375 119.605)" fill="#fafafa"/>
        <rect id="Rectangle_4539" data-name="Rectangle 4539" width="4.168" height="1.083" transform="translate(74.375 134.564)" fill="#fafafa"/>
        <rect id="Rectangle_4540" data-name="Rectangle 4540" width="4.168" height="4.561" transform="translate(74.375 125.18)" fill="#fafafa"/>
        <rect id="Rectangle_4541" data-name="Rectangle 4541" width="17.74" height="24.654" rx="0.65" transform="translate(78.577 114.064)" fill="#e0e0e0"/>
        <rect id="Rectangle_4542" data-name="Rectangle 4542" width="3.774" height="29.463" rx="0.6" transform="translate(80.268 109.255)" fill="#ebebeb"/>
        <rect id="Rectangle_4543" data-name="Rectangle 4543" width="3.774" height="10.723" transform="translate(80.268 112.291)" fill="#fafafa"/>
        <rect id="Rectangle_4544" data-name="Rectangle 4544" width="3.774" height="6.61" transform="translate(80.268 126.311)" fill="#fafafa"/>
        <rect id="Rectangle_4545" data-name="Rectangle 4545" width="16.084" height="29.463" rx="0.6" transform="translate(84.042 109.255)" fill="#e0e0e0"/>
        <rect id="Rectangle_4546" data-name="Rectangle 4546" width="4.168" height="26.344" rx="0.6" transform="translate(85.933 112.367)" fill="#ebebeb"/>
        <rect id="Rectangle_4547" data-name="Rectangle 4547" width="4.168" height="2.353" transform="translate(85.933 115.81)" fill="#fafafa"/>
        <rect id="Rectangle_4548" data-name="Rectangle 4548" width="4.168" height="2.353" transform="translate(85.933 122.634)" fill="#fafafa"/>
        <rect id="Rectangle_4549" data-name="Rectangle 4549" width="4.168" height="2.353" transform="translate(85.933 129.458)" fill="#fafafa"/>
        <rect id="Rectangle_4550" data-name="Rectangle 4550" width="17.74" height="26.344" rx="0.6" transform="translate(90.135 112.367)" fill="#e0e0e0"/>
        <rect id="Rectangle_4551" data-name="Rectangle 4551" width="3.774" height="28.649" rx="0.59" transform="translate(91.998 110.062)" fill="#ebebeb"/>
        <rect id="Rectangle_4552" data-name="Rectangle 4552" width="3.774" height="5.347" transform="translate(91.998 115.692)" fill="#fafafa"/>
        <rect id="Rectangle_4553" data-name="Rectangle 4553" width="3.774" height="3.298" transform="translate(91.998 122.689)" fill="#fafafa"/>
        <rect id="Rectangle_4554" data-name="Rectangle 4554" width="16.084" height="28.649" rx="0.59" transform="translate(95.772 110.062)" fill="#e0e0e0"/>
        <rect id="Rectangle_4555" data-name="Rectangle 4555" width="4.168" height="24.654" rx="0.65" transform="translate(97.2 114.064)" fill="#ebebeb"/>
        <rect id="Rectangle_4556" data-name="Rectangle 4556" width="4.168" height="4.561" transform="translate(97.193 119.605)" fill="#fafafa"/>
        <rect id="Rectangle_4557" data-name="Rectangle 4557" width="4.168" height="1.083" transform="translate(97.193 134.564)" fill="#fafafa"/>
        <rect id="Rectangle_4558" data-name="Rectangle 4558" width="4.168" height="4.561" transform="translate(97.193 125.18)" fill="#fafafa"/>
        <rect id="Rectangle_4559" data-name="Rectangle 4559" width="17.74" height="24.654" rx="0.65" transform="translate(101.396 114.064)" fill="#e0e0e0"/>
        <rect id="Rectangle_4560" data-name="Rectangle 4560" width="150.965" height="45.45" transform="translate(198.886 76.832) rotate(180)" fill="#e6e6e6"/>
        <rect id="Rectangle_4561" data-name="Rectangle 4561" width="152.669" height="45.45" transform="translate(197.388 76.832) rotate(180)" fill="#f0f0f0"/>
        <rect id="Rectangle_4562" data-name="Rectangle 4562" width="150.965" height="5.948" transform="translate(198.886 82.786) rotate(180)" fill="#e6e6e6"/>
        <rect id="Rectangle_4563" data-name="Rectangle 4563" width="152.669" height="5.948" transform="translate(192.055 82.786) rotate(180)" fill="#f0f0f0"/>
        <rect id="Rectangle_4564" data-name="Rectangle 4564" width="36.487" height="143.706" transform="translate(192.903 35.866) rotate(90)" fill="#fafafa"/>
        <path id="Path_49130" data-name="Path 49130" d="M200.544,143.467l-26.31-36.487H147.31l26.31,36.487Z" transform="translate(-45.666 -71.114)" fill="#fff"/>
        <path id="Path_49131" data-name="Path 49131" d="M276.417,141.156a.324.324,0,0,0,.324-.324V111.086a.324.324,0,0,0-.642,0v29.746a.324.324,0,0,0,.317.324Z" transform="translate(-85.591 -72.301)" fill="#f0f0f0"/>
        <path id="Path_49132" data-name="Path 49132" d="M154.762,143.467,128.445,106.98H119.13l26.31,36.487Z" transform="translate(-36.93 -71.114)" fill="#fff"/>
        <rect id="Rectangle_4565" data-name="Rectangle 4565" width="36.487" height="0.573" transform="translate(49.77 35.866) rotate(90)" fill="#e6e6e6"/>
        <path id="Path_49133" data-name="Path 49133" d="M63.27,112.284H214.235l.414-2.774H63.684Z" transform="translate(-19.614 -71.898)" fill="#e6e6e6" opacity="0.4"/>
        <path id="Path_49134" data-name="Path 49134" d="M63.27,118.924H214.235l.414-2.774H63.684Z" transform="translate(-19.614 -73.957)" fill="#e6e6e6" opacity="0.4"/>
        <path id="Path_49135" data-name="Path 49135" d="M63.27,125.574H214.235l.414-2.774H63.684Z" transform="translate(-19.614 -76.018)" fill="#e6e6e6" opacity="0.4"/>
        <path id="Path_49136" data-name="Path 49136" d="M63.27,132.214H214.235l.414-2.774H63.684Z" transform="translate(-19.614 -78.076)" fill="#e6e6e6" opacity="0.4"/>
        <path id="Path_49137" data-name="Path 49137" d="M63.27,138.861H214.235l.414-2.781H63.684Z" transform="translate(-19.614 -80.135)" fill="#e6e6e6" opacity="0.4"/>
        <path id="Path_49138" data-name="Path 49138" d="M63.27,145.5H214.235l.414-2.774H63.684Z" transform="translate(-19.614 -82.196)" fill="#e6e6e6" opacity="0.4"/>
        <rect id="Rectangle_4566" data-name="Rectangle 4566" width="58.243" height="103.21" transform="translate(281.596 134.591) rotate(180)" fill="#e6e6e6"/>
        <path id="Path_49139" data-name="Path 49139" d="M333.915,100.407a.469.469,0,0,0,.248-.069c.138-.083,13.841-8.232,18.161-8.232s17.381,8.142,17.512,8.225a.483.483,0,0,0,.69-.152.5.5,0,0,0-.152-.69c-.552-.338-13.441-8.37-18.03-8.37s-18.085,8.025-18.63,8.37a.483.483,0,0,0,.248.9Z" transform="translate(-103.379 -66.197)" fill="#f0f0f0"/>
        <rect id="Rectangle_4567" data-name="Rectangle 4567" width="60.161" height="103.21" transform="translate(277.201 134.591) rotate(180)" fill="#f0f0f0"/>
        <rect id="Rectangle_4568" data-name="Rectangle 4568" width="93.129" height="50.08" transform="translate(272.171 36.425) rotate(90)" fill="#fff"/>
        <rect id="Rectangle_4569" data-name="Rectangle 4569" width="36.294" height="43.491" transform="translate(251.519 182.415)" fill="#e0e0e0"/>
        <path id="Path_49140" data-name="Path 49140" d="M400.8,313.542H364.51L371.8,300.57H408.09Z" transform="translate(-112.998 -131.127)" fill="#e0e0e0"/>
        <path id="Path_49141" data-name="Path 49141" d="M296.934,300.57H260.64l7.286,12.972H304.22Z" transform="translate(-80.798 -131.127)" fill="#f5f5f5"/>
        <rect id="Rectangle_4570" data-name="Rectangle 4570" width="64.391" height="43.491" transform="translate(251.512 225.906) rotate(180)" fill="#f5f5f5"/>
        <rect id="Rectangle_4571" data-name="Rectangle 4571" width="20.258" height="20.258" transform="translate(251.512 214.293) rotate(180)" fill="#f0f0f0"/>
        <rect id="Rectangle_4572" data-name="Rectangle 4572" width="11.654" height="11.654" transform="translate(207.462 205.689) rotate(180)" fill="#f0f0f0"/>
        <rect id="Rectangle_4573" data-name="Rectangle 4573" width="11.654" height="11.654" transform="translate(207.462 220.117) rotate(180)" fill="#f0f0f0"/>
        <rect id="Rectangle_4574" data-name="Rectangle 4574" width="10.453" height="20.258" transform="translate(251.519 194.028)" fill="#e6e6e6"/>
      </g>
      <g id="freepik--Shadow--inject-38" transform="translate(38.716 293.84)">
        <ellipse id="freepik--path--inject-38" cx="133.784" cy="7.811" rx="133.784" ry="7.811" fill="#f5f5f5"/>
      </g>
      <g id="freepik--Icons--inject-38" transform="translate(97.683 46.597)">
        <circle id="Ellipse_680" data-name="Ellipse 680" cx="10.357" cy="10.357" r="10.357" transform="translate(0 57.732) rotate(-34.38)" fill="#0091ff"/>
        <path id="Path_49142" data-name="Path 49142" d="M158.4,131.718l-5.8-2.47a.766.766,0,0,1,.414-.117h12.813a.78.78,0,0,1,.414.117l-5.8,2.47a2.643,2.643,0,0,1-2.049,0Z" transform="translate(-144.989 -72.182)" fill="#fff"/>
        <path id="Path_49143" data-name="Path 49143" d="M166.422,130.594v5.624a.835.835,0,0,1-.835.835H152.774a.835.835,0,0,1-.835-.835v-5.624a.455.455,0,0,1,0-.1l5.927,2.518a3.45,3.45,0,0,0,1.3.269,3.491,3.491,0,0,0,1.318-.269l5.92-2.518a.454.454,0,0,1,.014.1Z" transform="translate(-144.783 -72.604)" fill="#fff"/>
        <circle id="Ellipse_681" data-name="Ellipse 681" cx="10.357" cy="10.357" r="10.357" transform="translate(51.475 19.861) rotate(-73.5)" fill="#0091ff"/>
        <path id="Path_49144" data-name="Path 49144" d="M236.73,58.42h-9.874A1.891,1.891,0,0,0,225,60.3v5.085a1.891,1.891,0,0,0,1.884,1.884h7.224l-.055,1.78,1.829-1.78h.849a1.9,1.9,0,0,0,1.884-1.884V60.3A1.891,1.891,0,0,0,236.73,58.42Zm-10.067,2.167a.531.531,0,0,1,.524-.531h2.263a.531.531,0,0,1,.524.531.524.524,0,0,1-.524.517h-2.263a.524.524,0,0,1-.552-.517Zm9.508,4.913h-3.919a.518.518,0,0,1,0-1.035h3.919a.518.518,0,1,1,0,1.035Zm0-2.194h-8.487a.524.524,0,0,1-.518-.524.518.518,0,0,1,.518-.517h8.459a.518.518,0,0,1,.518.517.524.524,0,0,1-.518.524Zm0-2.2h-5.009a.517.517,0,0,1-.518-.517.524.524,0,0,1,.518-.531h5.009a.531.531,0,0,1,.518.531.524.524,0,0,1-.545.517Z" transform="translate(-167.433 -50.262)" fill="#fff"/>
        <circle id="Ellipse_682" data-name="Ellipse 682" cx="10.357" cy="10.357" r="10.357" transform="translate(17.911 32.308) rotate(-60.85)" fill="#0091ff"/>
        <path id="Path_49145" data-name="Path 49145" d="M189.665,81.27H180.7A1.635,1.635,0,0,0,179.06,82.9v5.52a1.635,1.635,0,0,0,1.649,1.635h8.97a1.635,1.635,0,0,0,1.635-1.628v-5.52a1.635,1.635,0,0,0-1.649-1.635Zm-5.906,6.714v-4.63l3.988,2.3Z" transform="translate(-153.192 -57.346)" fill="#fff"/>
        <circle id="Ellipse_683" data-name="Ellipse 683" cx="10.357" cy="10.357" r="10.357" transform="translate(87.196 14.769) rotate(-25.24)" fill="#0091ff"/>
        <path id="Path_49146" data-name="Path 49146" d="M290,73.934a4.14,4.14,0,1,0-6.21-.359c-.283.221-.552.449-.821.69-.393.331-.773.69-1.145,1.007s-.745.69-1.111,1.049l-.545.538a1,1,0,0,0-.228.3.729.729,0,0,0-.069.455.628.628,0,0,0,.586.586,1,1,0,0,0,.255,0l.2-.069a.946.946,0,0,0,.3-.235c.179-.179.366-.359.538-.545.359-.359.69-.731,1.049-1.1s.69-.759,1.007-1.152c.235-.269.455-.538.69-.821a4.14,4.14,0,0,0,5.5-.345Zm-5.272-.621a3.291,3.291,0,1,1,4.651,0,3.291,3.291,0,0,1-4.651,0Z" transform="translate(-184.441 -52.887)" fill="#fff"/>
        <circle id="Ellipse_684" data-name="Ellipse 684" cx="10.357" cy="10.357" r="10.357" transform="translate(111.141 43.142) rotate(-34.38)" fill="#0091ff"/>
        <path id="Path_49147" data-name="Path 49147" d="M327.169,110.021v-.041a7.353,7.353,0,0,0-.083-1.021,6.631,6.631,0,0,0-6.4-5.568h-.331a6.257,6.257,0,0,0-.876.076,6.645,6.645,0,0,0-5.575,6.555v.076a7.345,7.345,0,0,0,.076,1.021,6.652,6.652,0,0,0,6.534,5.575h0a6.784,6.784,0,0,0,1.049-.083,6.652,6.652,0,0,0,5.568-6.514A.118.118,0,0,0,327.169,110.021Zm-1.746,2.622h-1.159a10.457,10.457,0,0,0,.31-2.07h1.484a5.4,5.4,0,0,1-.635,2.1Zm-9.784-5.244H316.8a10.533,10.533,0,0,0-.31,2.07H315a5.471,5.471,0,0,1,.635-2.042Zm7.825,1.7v.386h-2.422v-2.07h2.07a9.137,9.137,0,0,1,.352,1.711Zm-2.394-2.76v-1.76a2.291,2.291,0,0,1,.448.228,3.919,3.919,0,0,1,1.208,1.532Zm-1.076-1.753v1.753H318.33a3.243,3.243,0,0,1,1.663-1.739Zm0,2.829v2.07h-2.422a9.389,9.389,0,0,1,.352-2.07Zm-4.947,3.512a1.025,1.025,0,0,0-.041-.352h1.49v.49a10.35,10.35,0,0,0,.276,1.594H315.6a5.352,5.352,0,0,1-.559-1.718Zm2.553.041v-.393h2.422v2.07h-2.07a9.057,9.057,0,0,1-.352-1.663Zm2.394,2.76v1.815a1.967,1.967,0,0,1-.448-.228,3.919,3.919,0,0,1-1.207-1.532Zm1.076,1.759v-1.739h1.663a3.284,3.284,0,0,1-1.663,1.794Zm0-2.836v-2.07h2.422a9.32,9.32,0,0,1-.352,2.07Zm3.5-3.16V109a11.288,11.288,0,0,0-.276-1.594h1.166a5.589,5.589,0,0,1,.587,1.732,1.024,1.024,0,0,0,.041.352Zm.11-3.16H323.9a6.614,6.614,0,0,0-.545-1.083,4.872,4.872,0,0,1,.421.276,5.519,5.519,0,0,1,.9.828Zm-6.983-1.076a6.833,6.833,0,0,0-.545,1.076h-.766a5.63,5.63,0,0,1,1.311-1.056Zm-1.3,8.473h.766a7,7,0,0,0,.552,1.09,5.418,5.418,0,0,1-1.318-1.07Zm6.976,1.125a6.9,6.9,0,0,0,.545-1.083h.766A5.837,5.837,0,0,1,323.367,114.851Z" transform="translate(-194.992 -64.203)" fill="#fff"/>
        <circle id="Ellipse_685" data-name="Ellipse 685" cx="10.357" cy="10.357" r="10.357" transform="translate(115.901 79.462) rotate(-34.38)" fill="#0091ff"/>
        <path id="Path_49148" data-name="Path 49148" d="M328,156.66a5.52,5.52,0,0,0-1.256,10.854l1.256,1.6,1.256-1.6h0A5.52,5.52,0,0,0,328,156.66Zm0,7.79a.953.953,0,1,1,0,.035Z" transform="translate(-197.701 -80.717)" fill="#fff"/>
      </g>
      <g id="freepik--Character--inject-38" transform="translate(111.801 87.254)">
        <path id="Path_49149" data-name="Path 49149" d="M238.538,402.083h-5.32l-.228-12.323h5.32Z" transform="translate(-184.028 -193.634)" fill="#b55b52"/>
        <path id="Path_49150" data-name="Path 49150" d="M283.884,402.083h-5.32L276.19,389.76h5.32Z" transform="translate(-197.42 -193.634)" fill="#b55b52"/>
        <path id="Path_49151" data-name="Path 49151" d="M275.321,406.73H281.3a.448.448,0,0,1,.442.366l.938,4.727a.807.807,0,0,1-.8.952c-2.07-.041-3.1-.159-5.727-.159-1.621,0-4.954.166-7.19.166s-2.47-2.208-1.552-2.408c4.14-.9,5.7-2.132,7.038-3.312a1.311,1.311,0,0,1,.869-.331Z" transform="translate(-194.543 -198.895)" fill="#263238"/>
        <path id="Path_49152" data-name="Path 49152" d="M227.564,406.73h5.817a.448.448,0,0,1,.442.366l.932,4.727a.794.794,0,0,1-.787.952c-2.07-.041-5.12-.159-7.756-.159-3.084,0-5.748.166-9.363.166-2.18,0-2.76-2.208-1.815-2.408,4.188-.911,7.59-1.007,11.24-3.229a2.5,2.5,0,0,1,1.29-.414Z" transform="translate(-178.326 -198.895)" fill="#263238"/>
        <path id="Path_49153" data-name="Path 49153" d="M214.892,163.262l-5.679-5.092s-13.945,12.806-16.677,12.765c-3.726-.062-11.468-.448-15.787-1.38a7.762,7.762,0,0,0-2.519,3.057c4.947,3.912,17.837,6.714,21.073,5.623C202.672,175.765,214.892,163.262,214.892,163.262Z" transform="translate(-165.812 -121.842)" fill="#b55b52"/>
        <path id="Path_49154" data-name="Path 49154" d="M228.158,158.754c-.041,5.085-13.558,15.235-13.558,15.235l-7.859-9.025a67.682,67.682,0,0,1,10.219-9.66C222.493,151.282,228.2,153.172,228.158,158.754Z" transform="translate(-175.89 -120.287)" fill="#263238"/>
        <path id="Path_49155" data-name="Path 49155" d="M218.13,176.642s12.482-9.37,13.49-14.614C230.026,160.393,221.49,165.071,218.13,176.642Z" transform="translate(-179.421 -122.939)" opacity="0.2"/>
        <path id="Path_49156" data-name="Path 49156" d="M175.092,173.12l-4.713-4.34-4.23,5.423a23.633,23.633,0,0,0,6.762,2.436Z" transform="translate(-163.307 -125.131)" fill="#b55b52"/>
        <path id="Path_49157" data-name="Path 49157" d="M163.486,165.08l-1.456,4.092,2.843,3.885,4.23-5.423Z" transform="translate(-162.03 -123.984)" fill="#b55b52"/>
        <path id="Path_49158" data-name="Path 49158" d="M232.99,389.77l.117,6.348h5.327l-.117-6.348Z" transform="translate(-184.028 -193.638)" opacity="0.2"/>
        <path id="Path_49159" data-name="Path 49159" d="M281.517,389.77H276.19l1.228,6.348h5.32Z" transform="translate(-197.42 -193.638)" opacity="0.2"/>
        <path id="Path_49160" data-name="Path 49160" d="M226.231,152.749s-6.679,16.077-1.442,46h28.462c.3-4.368-1.918-25.682,2.8-46.271a73.932,73.932,0,0,0-9.5-1.207,105.5,105.5,0,0,0-12.1,0A54.355,54.355,0,0,0,226.231,152.749Z" transform="translate(-180.864 -119.649)" fill="#263238"/>
        <path id="Path_49161" data-name="Path 49161" d="M261.789,159.052c-.559,3.395.311,11.5,3.312,20.866a136.4,136.4,0,0,1,2.546-23.895v-.048C265.777,155.788,262.32,155.878,261.789,159.052Z" transform="translate(-192.906 -121.143)" opacity="0.2"/>
        <path id="Path_49162" data-name="Path 49162" d="M250.1,135c-.856,3.892-1.38,8.722,1.3,11.316,0,0-1.656,3.954-8.894,3.954-6.61,0-3.2-3.954-3.2-3.954,4.361-1.035,4.271-6.4,3.588-9.425Z" transform="translate(-185.713 -114.659)" fill="#b55b52"/>
        <path id="Path_49163" data-name="Path 49163" d="M243.083,156.545l-1.566,1.739a.462.462,0,0,0-.1.448l.5,1.525a.428.428,0,0,0,.4.3l1.684.083a.476.476,0,0,0,.414-.207l1.007-1.477a.462.462,0,0,0,0-.559l-1.635-1.856a.462.462,0,0,0-.711,0Z" transform="translate(-186.634 -121.286)" fill="#0091ff"/>
        <path id="Path_49164" data-name="Path 49164" d="M244.35,153.9a9.219,9.219,0,0,1,1.29,4.437s9.136-3.2,8.832-7.88c0,0-1.27-.766-2.07-1.38C252.389,149.073,252.023,152.026,244.35,153.9Z" transform="translate(-187.549 -119.024)" fill="#fff"/>
        <path id="Path_49165" data-name="Path 49165" d="M242.178,154.272a13.041,13.041,0,0,0-1.87,4.14s-4.036-2.76-2.691-7.411a15.7,15.7,0,0,1,2.339-.731A3.5,3.5,0,0,0,242.178,154.272Z" transform="translate(-185.377 -119.392)" fill="#fff"/>
        <path id="Path_49166" data-name="Path 49166" d="M242.083,162.09s-2.587,19.051-2.643,22.363A32.2,32.2,0,0,0,240.9,193.7a24.3,24.3,0,0,0,2.07-9.384c.3-6.017-.062-18.851.069-22.225Z" transform="translate(-186.027 -123.057)" fill="#0091ff"/>
        <path id="Path_49167" data-name="Path 49167" d="M244.806,136.841a11.632,11.632,0,0,1-.186,6.389,7,7,0,0,0,1.96-.593c2.477-1.152,3.726-2.967,5.044-5.665.117-.69.248-1.38.393-2.022Z" transform="translate(-187.633 -114.643)" opacity="0.2"/>
        <path id="Path_49168" data-name="Path 49168" d="M236.38,128.964a4.83,4.83,0,0,0,2.07,3.16c1.463.952,2.76-.248,2.808-1.918.048-1.5-.642-3.809-2.332-4.085a2.311,2.311,0,0,0-2.546,2.843Z" transform="translate(-185.058 -111.9)" fill="#b55b52"/>
        <path id="Path_49169" data-name="Path 49169" d="M236.38,128.964a4.83,4.83,0,0,0,2.07,3.16c1.463.952,2.76-.248,2.808-1.918.048-1.5-.642-3.809-2.332-4.085a2.311,2.311,0,0,0-2.546,2.843Z" transform="translate(-185.058 -111.9)" opacity="0.2"/>
        <path id="Path_49170" data-name="Path 49170" d="M244.425,115.5c-2.85.131-6.9,6.527-4.388,9.274S249.807,115.25,244.425,115.5Z" transform="translate(-185.968 -108.612)" fill="#263238"/>
        <path id="Path_49171" data-name="Path 49171" d="M253.366,125.685c-2.249,4.83-3.326,7.769-6.8,9.391-5.23,2.429-10.35-2.07-9.612-7.466.69-4.83,4.257-11.923,9.826-12.1a7.045,7.045,0,0,1,6.583,10.178Z" transform="translate(-185.236 -108.614)" fill="#b55b52"/>
        <path id="Path_49172" data-name="Path 49172" d="M258.863,116.381c2.76,1.78-1.152,9.66-4.7,9.446-1.566-.1-1.277-3.919.29-7.21-2.857-.124-12.268-2.208-11.958-6.659.1-1.435,1.566-2.3,3.671-3.395a2.5,2.5,0,0,0,1.414-3.043,3.381,3.381,0,0,1,.793,3.609c-.8,2.18,3.567,1.318,6.086,1.256C258.96,110.26,261.541,113.621,258.863,116.381Z" transform="translate(-186.972 -105.52)" fill="#263238"/>
        <path id="Path_49173" data-name="Path 49173" d="M265.32,121.18s2.215-.835,2.967,1.1A6.617,6.617,0,0,0,265.32,121.18Z" transform="translate(-194.05 -110.319)" fill="#263238"/>
        <path id="Path_49174" data-name="Path 49174" d="M258.523,137.526a5.106,5.106,0,0,1-3.726.994c-1.739-.242-1.87-1.967-.766-3.25.987-1.152,3.091-2.415,4.533-1.525A2.247,2.247,0,0,1,258.523,137.526Z" transform="translate(-190.33 -114.177)" fill="#b55b52"/>
        <path id="Path_49175" data-name="Path 49175" d="M225,220.151s-1.711,39.792-1.532,56.021c.193,16.884,4.733,66.13,4.733,66.13h9.018s1.656-48.259,2.463-64.86c.883-18.071,4.03-57.311,4.03-57.311Z" transform="translate(-181.071 -141.049)" fill="#0091ff"/>
        <path id="Path_49176" data-name="Path 49176" d="M239.5,393.026c.041,0-.076,2.946-.076,2.946H229.029l-.359-3.312Z" transform="translate(-182.688 -194.533)" fill="#263238"/>
        <path id="Path_49177" data-name="Path 49177" d="M243.333,235.43c-.311,19.741.587,31.74,2.76,41.4.545-9.419,1.435-21.873,2.215-32.216Z" transform="translate(-187.215 -145.792)" opacity="0.2"/>
        <path id="Path_49178" data-name="Path 49178" d="M240.32,220.16s5.044,40.71,7.99,55.89c3.215,16.684,15.539,66.24,15.539,66.24h9.743s-7.687-48.183-9.343-64.708c-1.808-17.94-5.52-57.422-5.52-57.422Z" transform="translate(-186.3 -141.058)" fill="#0091ff"/>
        <path id="Path_49179" data-name="Path 49179" d="M283.614,393.327c.041,0,.421,2.725.421,2.725H273.319l-.869-3.133Z" transform="translate(-196.26 -194.614)" fill="#263238"/>
        <path id="Path_49180" data-name="Path 49180" d="M276.927,339.138a.083.083,0,0,1-.083-.076c-.069-.49-7.01-43.429-8.508-58.27-1.622-16.1-5-51.819-5.037-52.178a.09.09,0,1,1,.179-.021c.034.359,3.415,36.066,5.037,52.178,1.5,14.835,8.439,57.774,8.508,58.264a.09.09,0,0,1-.076.1Z" transform="translate(-193.423 -143.647)" opacity="0.2"/>
        <path id="Path_49181" data-name="Path 49181" d="M248.741,127.834c-.159.407-.5.649-.759.552s-.338-.5-.179-.9.5-.649.759-.552S248.9,127.434,248.741,127.834Z" transform="translate(-188.594 -112.151)" fill="#263238"/>
        <path id="Path_49182" data-name="Path 49182" d="M242.21,125.4c-.159.4-.5.649-.759.552s-.345-.5-.186-.9.5-.69.759-.559S242.369,124.989,242.21,125.4Z" transform="translate(-186.568 -111.389)" fill="#263238"/>
        <path id="Path_49183" data-name="Path 49183" d="M243.164,126.88a15.794,15.794,0,0,1-3.264,2.76,2.415,2.415,0,0,0,1.766,1.076Z" transform="translate(-186.17 -112.142)" fill="#a02724"/>
        <path id="Path_49184" data-name="Path 49184" d="M243.474,134.382a.117.117,0,0,1-.069-.159.138.138,0,0,1,.166-.076,3.45,3.45,0,0,0,3.064-.283.127.127,0,1,1,.179.179A3.623,3.623,0,0,1,243.474,134.382Z" transform="translate(-187.253 -114.296)" fill="#263238"/>
        <path id="Path_49185" data-name="Path 49185" d="M251.319,125.942a.276.276,0,0,1-.152-.166,1.918,1.918,0,0,0-1.187-1.38.255.255,0,0,1-.166-.317.269.269,0,0,1,.317-.173,2.415,2.415,0,0,1,1.525,1.691.255.255,0,0,1-.179.311A.249.249,0,0,1,251.319,125.942Z" transform="translate(-189.24 -111.217)" fill="#263238"/>
        <path id="Path_49186" data-name="Path 49186" d="M240.582,121.908a.242.242,0,0,1-.048-.421,2.546,2.546,0,0,1,2.242-.566.248.248,0,0,1,.166.317.262.262,0,0,1-.317.166h0a2.07,2.07,0,0,0-1.773.469A.255.255,0,0,1,240.582,121.908Z" transform="translate(-186.335 -110.275)" fill="#263238"/>
        <path id="Path_49187" data-name="Path 49187" d="M264.26,164.708l7.411-2.408s6.8,17.347,9.329,18.347c3.45,1.38,10.4,5.023,14.731,5.893a7.367,7.367,0,0,1,.952,3.774c-6.21,1.615-18.851-1.787-21.342-4.023C269.649,181.2,264.26,164.708,264.26,164.708Z" transform="translate(-193.721 -123.122)" fill="#b55b52"/>
        <path id="Path_49188" data-name="Path 49188" d="M267.576,153.059c5.016.731,10.35,18.182,10.35,18.182L267.2,177.209a123.5,123.5,0,0,1-6.6-14.49C258.364,156.295,262.194,152.3,267.576,153.059Z" transform="translate(-192.386 -120.228)" fill="#263238"/>
        <path id="Path_49189" data-name="Path 49189" d="M275.947,407.464a1.58,1.58,0,0,1-1.014-.269.731.731,0,0,1-.248-.69.421.421,0,0,1,.228-.359c.587-.3,2.284.752,2.477.876a.124.124,0,0,1,.055.124.138.138,0,0,1-.1.1A6.355,6.355,0,0,1,275.947,407.464Zm-.766-1.1a.36.36,0,0,0-.159,0c-.034,0-.076.048-.083.145a.49.49,0,0,0,.159.462,2.547,2.547,0,0,0,1.884.09A5.023,5.023,0,0,0,275.182,406.36Z" transform="translate(-196.949 -198.698)" fill="#0091ff"/>
        <path id="Path_49190" data-name="Path 49190" d="M277.816,406.729h-.055c-.545-.3-1.58-1.47-1.456-2.07a.435.435,0,0,1,.407-.331.69.69,0,0,1,.538.166c.6.5.69,2.07.69,2.1a.138.138,0,0,1-.062.117A.118.118,0,0,1,277.816,406.729Zm-1.035-2.16h-.055c-.166,0-.179.09-.186.124-.076.352.58,1.228,1.118,1.649a2.968,2.968,0,0,0-.587-1.67A.435.435,0,0,0,276.782,404.569Z" transform="translate(-197.452 -198.149)" fill="#0091ff"/>
        <path id="Path_49191" data-name="Path 49191" d="M229.471,407.472a2,2,0,0,1-1.283-.324.69.69,0,0,1-.221-.614.414.414,0,0,1,.214-.338c.655-.366,2.76.69,3.008.849a.124.124,0,0,1,.062.131.117.117,0,0,1-.1.1A9.039,9.039,0,0,1,229.471,407.472Zm-.938-1.1a.476.476,0,0,0-.235.048.159.159,0,0,0-.083.131.469.469,0,0,0,.145.407,3.357,3.357,0,0,0,2.374.145,6.76,6.76,0,0,0-2.2-.731Z" transform="translate(-182.468 -198.706)" fill="#0091ff"/>
        <path id="Path_49192" data-name="Path 49192" d="M231.729,406.72h-.055c-.635-.29-1.877-1.435-1.766-2.07,0-.138.131-.317.476-.352a.9.9,0,0,1,.69.221,3.294,3.294,0,0,1,.773,2.07.11.11,0,0,1-.055.11A.1.1,0,0,1,231.729,406.72Zm-1.249-2.16H230.4c-.228,0-.242.11-.248.138-.069.359.773,1.263,1.421,1.663a2.871,2.871,0,0,0-.69-1.642A.69.69,0,0,0,230.48,404.56Z" transform="translate(-183.07 -198.14)" fill="#0091ff"/>
        <path id="Path_49193" data-name="Path 49193" d="M309.285,200.7l5.065.242-2.691-5.52s-4.437-.069-5.168,3.346Z" transform="translate(-206.813 -133.389)" fill="#b55b52"/>
        <path id="Path_49194" data-name="Path 49194" d="M320.777,197.358l-2.684-4.878-4.112,2.029,2.691,5.52Z" transform="translate(-209.135 -132.478)" fill="#b55b52"/>
      </g>
    </g>
  </g>
</svg>
