<?xml version="1.0" encoding="UTF-8"?><svg id="Layer_2" xmlns="http://www.w3.org/2000/svg" viewBox="0 0 40 40"><defs><style>.cls-1{fill:none;}.cls-2{fill:#0091ff;stroke:#0091ff;stroke-miterlimit:10;stroke-width:.7px;}</style></defs><g id="Layer_1-2"><g><rect class="cls-1" width="40" height="40"/><g><path class="cls-2" d="M39.3,6.85c-.34-1.09-1.38-1.84-2.49-1.8-1.2,.04-2.19,.85-2.41,2.03-.15,.79-.2,1.6-.28,2.41-.24,2.31-.46,4.63-.71,6.94-.01,.11-.14,.24-.24,.31-.34,.23-.74,.39-1.04,.67-2.47,2.27-4.91,4.56-7.37,6.84-1.19,1.1-1.78,2.46-1.77,4.07,0,2.57,0,5.13,0,7.7,0,.32,.07,.43,.41,.43,2.72-.02,5.44,0,8.16,0,.12,0,.25-.01,.41-.02v-.43c0-1.05,.02-2.1,0-3.15-.02-.87,.28-1.56,.89-2.16,1.63-1.61,3.21-3.26,4.84-4.87,.84-.83,1.58-1.7,1.74-2.93V7.24c-.04-.13-.09-.26-.13-.39Zm-2.15,17.38c-1.8,1.81-3.59,3.64-5.4,5.44-.88,.87-1.33,1.88-1.28,3.12,.02,.7,0,1.41,0,2.15h-5.99v-.41c0-2.07,0-4.15,0-6.22,0-1.15,.4-2.12,1.25-2.9,2.47-2.3,4.94-4.6,7.41-6.9,.47-.44,1.09-.47,1.45-.08,.43,.46,.37,1.04-.16,1.53-1.75,1.59-3.5,3.18-5.26,4.77-.12,.11-.24,.22-.38,.34,.34,.37,.66,.72,1,1.1,.82-.74,1.62-1.47,2.43-2.2,1.08-.98,2.15-1.95,3.23-2.93,1.37-1.24,1.19-3.12-.38-4.1-.1-.06-.19-.24-.17-.35,.29-2.97,.59-5.94,.89-8.91,.06-.62,.37-.99,.88-1.09,.46-.09,.91,.1,1.12,.52,.08,.17,.13,.39,.13,.58,0,4.92,0,9.84,0,14.76,0,.72-.29,1.29-.78,1.79Z"/><path class="cls-2" d="M15.29,24.29c-2.49-2.31-4.96-4.62-7.45-6.92-.27-.25-.62-.44-.96-.59-.21-.09-.29-.19-.31-.4-.25-2.6-.51-5.21-.78-7.81-.06-.6-.1-1.22-.28-1.79-.38-1.22-1.57-1.88-2.84-1.67-1.23,.2-2.1,1.26-2.1,2.59,0,4.91,0,9.82,0,14.73,0,.94,.27,1.8,.92,2.5,.63,.68,1.28,1.33,1.93,1.99,1.26,1.28,2.52,2.56,3.79,3.83,.57,.57,.85,1.23,.83,2.04-.02,1.07,0,2.15,0,3.23,0,.14,.01,.27,.02,.42,.11,.01,.18,.03,.25,.03,2.8,0,5.59,0,8.39,0,.33,0,.32-.17,.32-.4,0-2.59,0-5.19,0-7.78,0-1.58-.57-2.9-1.73-3.98Zm.23,10.63h-5.99c0-.73-.02-1.45,0-2.17,.04-1.21-.4-2.2-1.26-3.06-1.8-1.79-3.57-3.62-5.37-5.41-.57-.57-.84-1.22-.84-2.03,.01-4.81,0-9.61,0-14.42,0-.19,0-.38,.05-.56,.12-.43,.53-.72,.97-.72,.48,0,.93,.28,1.02,.75,.12,.62,.17,1.25,.24,1.88,.25,2.45,.49,4.91,.75,7.36,.02,.21-.03,.31-.21,.42-1.47,.85-1.72,2.78-.48,3.93,1.9,1.77,3.83,3.49,5.79,5.26,.33-.37,.66-.73,1.01-1.11-.98-.89-1.94-1.76-2.91-2.64-.94-.85-1.88-1.69-2.81-2.55-.39-.36-.47-.82-.23-1.23,.23-.4,.66-.59,1.1-.45,.17,.06,.34,.17,.48,.29,2.5,2.32,5,4.65,7.5,6.98,.8,.75,1.19,1.68,1.19,2.77,0,2.12,0,4.25,0,6.37v.33Z"/><path class="cls-2" d="M28.71,12.73c1.19-1.24,1.62-2.8,1.36-4.49-.6-3.86-4.56-5.83-8-3.99-.74,.39-1.4,.94-2.05,1.39-.74-.49-1.44-1.06-2.23-1.47-2.36-1.24-5.14-.61-6.75,1.46-1.74,2.25-1.53,5.34,.54,7.42,2.72,2.74,5.45,5.46,8.18,8.19,.08,.08,.16,.14,.26,.23,.96-.96,1.9-1.9,2.84-2.84,1.96-1.96,3.94-3.9,5.85-5.9Zm-8.37,6.3c-.1,.1-.17,.25-.26,.39-.17-.15-.23-.2-.29-.26-2.4-2.4-4.8-4.78-7.19-7.19-1.5-1.51-1.67-3.73-.43-5.35,1.38-1.81,4.02-2.11,5.83-.63,.59,.49,1.12,1.05,1.68,1.58,.1,.09,.2,.19,.34,.32,.48-.49,.94-.98,1.42-1.45,.78-.75,1.68-1.27,2.8-1.38,1.62-.15,3.19,.65,3.94,2.09,.76,1.46,.56,3.28-.5,4.51-.14,.16-.29,.32-.44,.47-2.3,2.3-4.6,4.6-6.89,6.9Z"/></g></g></g></svg>