<?xml version="1.0" encoding="UTF-8"?><svg id="Layer_2" xmlns="http://www.w3.org/2000/svg" viewBox="0 0 32 32"><defs><style>.cls-1{fill:#0091ff;}.cls-2{fill:none;}</style></defs><g id="Layer_1-2"><g><rect class="cls-2" width="32" height="32"/><g><path class="cls-1" d="M24.44,4.52H7.56c-.56,0-1.01,.45-1.01,1.01v12.16c0,.56,.45,1.01,1.01,1.01H24.44c.56,0,1.01-.45,1.01-1.01V5.53c0-.56-.45-1.01-1.01-1.01Zm-11.48,12.16h-4.39V6.54h4.39v10.13Zm10.47,0H14.99v-4.05h8.44v4.05Zm0-6.08H14.99V6.54h8.44v4.05Z"/><path class="cls-1" d="M30.52,20.73h-1.01V2.49h1.01c.56,0,1.01-.45,1.01-1.01s-.45-1.01-1.01-1.01H1.48C.92,.47,.47,.92,.47,1.48s.45,1.01,1.01,1.01h1.01V20.73H1.48c-.56,0-1.01,.45-1.01,1.01s.45,1.01,1.01,1.01H14.99v5.01l-5.39,1.8c-.53,.18-.82,.75-.64,1.28,.18,.53,.75,.82,1.28,.64l5.76-1.92,5.76,1.92c.53,.18,1.1-.11,1.28-.64,.18-.53-.11-1.1-.64-1.28l-5.39-1.8v-5.01h13.51c.56,0,1.01-.45,1.01-1.01,0-.56-.45-1.01-1.01-1.01Zm-3.04,0H4.52V2.49H27.48V20.73Z"/></g></g></g></svg>