<?xml version="1.0" encoding="UTF-8"?><svg id="Layer_2" xmlns="http://www.w3.org/2000/svg" viewBox="0 0 28 28"><defs><style>.cls-1{fill:#0091ff;}.cls-2{fill:none;}</style></defs><g id="Layer_1-2"><g><rect class="cls-2" width="28" height="28"/><g><rect class="cls-2" x=".53" y=".53" width="26.93" height="26.93"/><path class="cls-1" d="M25.51,14.34c-1.51,0-3.02,0-4.53,0h-.25c-.14-.58-.26-1.14-.4-1.73h.27c1.64,0,3.28,0,4.92,0,.65,0,.92-.29,.91-.94-.05-2.95-1.13-5.46-3.27-7.48-1.73-1.64-3.81-2.56-6.19-2.77-.07,0-.14-.03-.21-.04h-.89c-.43,.21-.55,.56-.54,1.03,.02,1.68,0,3.37,0,5.05v.3c-.56-.12-1.11-.23-1.68-.35v-1.9c0-.27,0-.54,0-.81,0-.49-.32-.8-.81-.79-2.76,.04-5.21,.93-7.3,2.73-2.1,1.81-3.4,4.09-3.82,6.83-.52,3.41,.32,6.47,2.53,9.13,1.68,2.02,3.84,3.27,6.41,3.81,.43,.09,.87,.13,1.31,.19,.07,.01,.14,.03,.21,.04h1.48c.54-.08,1.09-.14,1.62-.25,1.65-.34,3.14-1.04,4.48-2.05,.38-.28,.43-.72,.14-1.11-.48-.63-.96-1.25-1.44-1.87-.07-.1-.15-.19-.21-.27,.45-.53,.88-1.05,1.32-1.58,.43,.56,.88,1.14,1.33,1.72,.25,.32,.5,.65,.75,.97,.3,.38,.73,.43,1.1,.13,2.28-1.82,3.48-4.2,3.59-7.12,.02-.56-.28-.85-.84-.85Zm-7.24,9.2c-3.06,2.08-7.67,2.29-11.22-.34-3.52-2.61-4.91-7.28-3.37-11.38,1.58-4.21,5.46-6.26,8.49-6.38,0,.06,.01,.13,.01,.19,0,.6,0,1.2,0,1.77-3.62,.61-6.08,2.57-6.89,6.18-.73,3.21,.3,5.96,2.93,7.94,2.79,2.1,5.79,2.1,8.85,.46,.39,.51,.8,1.04,1.21,1.57Zm-5.36-1.9c-3.5,0-6.35-2.85-6.36-6.37,0-3.51,2.83-6.37,6.34-6.38,3.5-.02,6.37,2.86,6.37,6.38,0,3.51-2.85,6.37-6.35,6.37Zm6.55-10.68c-.64-.99-1.47-1.78-2.46-2.41-.08-.05-.17-.17-.17-.25,0-1.76,0-3.52,0-5.27,0-.03,.01-.06,.02-.09,3.7,.14,7.78,3.4,8.07,8.18-.09,0-.17,.01-.26,.01-1.62,0-3.23,0-4.85,0-.15,0-.25-.03-.35-.17Zm2.92,9.74c-.09-.11-.16-.21-.24-.3-.58-.75-1.15-1.5-1.73-2.24-.09-.12-.11-.22-.07-.38,.17-.63,.31-1.27,.46-1.94h4.02c-.23,1.92-1.04,3.52-2.45,4.86Zm-8.58-6.58l-1.45-.02c-.12,0-.25,0-.37-.05-.27-.09-.41-.36-.38-.65,.03-.28,.25-.5,.55-.52,.41-.02,.82,0,1.23-.01,.35-.01,.64,.08,.9,.33,.27,.26,.68,.24,.93-.03,.25-.27,.25-.67-.02-.93-.18-.17-.39-.35-.62-.45-.3-.14-.63-.21-.98-.32,0-.14,0-.33,0-.51-.01-.38-.31-.68-.67-.67-.36,0-.64,.29-.65,.67,0,.18,0,.37,0,.54-.03,.02-.04,.03-.05,.03-.07,.01-.15,.02-.22,.03-.63,.08-1.12,.38-1.45,.93-.78,1.31,.14,2.91,1.71,2.95,.44,0,.88-.01,1.32,0,.16,0,.35,.07,.48,.17,.2,.16,.25,.39,.16,.64-.09,.26-.29,.41-.59,.41-.39,0-.78,0-1.17,0-.32,0-.62-.04-.9-.21-.3-.18-.69-.06-.87,.23-.19,.3-.12,.7,.19,.9,.23,.14,.48,.25,.73,.34,.2,.07,.43,.07,.66,.11,0,.19,0,.36,0,.54,0,.39,.29,.68,.66,.68s.65-.3,.66-.68c0-.18,0-.35,0-.55,.11-.01,.2-.03,.28-.04,1-.12,1.72-.95,1.7-1.97-.02-.99-.79-1.82-1.77-1.88Z"/></g></g></g></svg>