<?xml version="1.0" encoding="UTF-8"?><svg id="Layer_2" xmlns="http://www.w3.org/2000/svg" viewBox="0 0 28 28"><defs><style>.cls-1{fill:#0091ff;}.cls-2{fill:none;}</style></defs><g id="Layer_1-2"><g><rect class="cls-2" width="28" height="28"/><path class="cls-1" d="M17.79,23.5h-7.59c0,.14,0,.27,0,.4-.02,.63,.03,1.27-.07,1.89-.13,.85-.9,1.47-1.76,1.48-1.95,.01-3.89,.02-5.84,0-.99,0-1.81-.84-1.82-1.83-.01-1.94-.01-3.87,0-5.81,0-1,.84-1.81,1.84-1.83,.63-.01,1.26,0,1.92,0v-7.59c-.12,0-.24,0-.36,0-.63-.01-1.27,.03-1.89-.06-.88-.13-1.51-.91-1.51-1.79-.01-1.93-.01-3.85,0-5.78,0-1.02,.84-1.84,1.86-1.85,1.92-.01,3.83-.01,5.75,0,1.04,0,1.85,.83,1.87,1.88,.01,.62,0,1.24,0,1.89h7.59c0-.12,0-.24,0-.36,.01-.63-.03-1.27,.06-1.89,.13-.88,.91-1.51,1.79-1.51,1.93-.01,3.85-.01,5.78,0,1.01,0,1.84,.83,1.85,1.83,.02,1.94,.02,3.87,0,5.81,0,1.01-.84,1.81-1.84,1.84-.63,.01-1.26,0-1.92,0v7.59c.12,0,.24,0,.36,0,.63,.01,1.27-.03,1.89,.06,.88,.13,1.5,.9,1.51,1.79,.01,1.93,.01,3.85,0,5.78,0,1.02-.84,1.84-1.86,1.85-1.92,.01-3.83,.01-5.75,0-1.04,0-1.85-.84-1.87-1.88,0-.62,0-1.24,0-1.9ZM6.43,10.21v7.59c.64,0,1.26,0,1.89,0,.55,0,1.02,.21,1.39,.62,.33,.36,.5,.8,.5,1.3,0,.62,0,1.24,0,1.85h7.59c0-.12,0-.22,0-.31,0-.53,0-1.07,0-1.6,.02-1.02,.84-1.84,1.86-1.85,.64-.01,1.28,0,1.91,0v-7.59c-.12,0-.22,0-.31,0-.52,0-1.05,0-1.57,0-1.05-.02-1.87-.83-1.89-1.89,0-.63,0-1.26,0-1.88h-7.59c0,.61,0,1.2,0,1.8,0,1.16-.81,1.97-1.98,1.98-.59,0-1.18,0-1.79,0ZM2.64,2.63v5.65h5.66V2.63H2.64Zm22.72,5.66V2.64h-5.65v5.65h5.65ZM2.64,19.7v5.65h5.65v-5.65H2.64Zm17.07,0v5.65h5.65v-5.65h-5.65Z"/></g></g></svg>