<?xml version="1.0" encoding="UTF-8"?><svg id="Layer_2" xmlns="http://www.w3.org/2000/svg" viewBox="0 0 28.07 28"><defs><style>.cls-1{fill:#0091ff;}.cls-2{fill:none;}</style></defs><g id="Layer_1-2"><g><rect class="cls-2" x=".04" width="28" height="28"/><g><path class="cls-1" d="M3.09,11.93c.13,.03,.25,.06,.36,.09,.81,.25,1.31,.94,1.32,1.83,0,1.7,0,3.4,0,5.1,0,1.34-1.04,2.19-2.36,1.94-1.26-.24-2.25-1.18-2.35-2.46-.1-1.33-.07-2.68,0-4.01,.05-.96,.62-1.67,1.46-2.14,.16-.09,.21-.18,.22-.36C2.05,6.56,5.84,1.99,11.06,.69c6.67-1.66,13.44,2.48,14.97,9.18,.16,.69,.19,1.4,.3,2.09,.02,.11,.09,.24,.18,.29,1.01,.58,1.53,1.45,1.54,2.6,.01,1.05,.01,2.1,0,3.15-.02,1.14-.53,2.01-1.53,2.57-.14,.08-.19,.17-.19,.33,0,.67,.03,1.35-.06,2-.29,1.95-1.96,3.37-3.94,3.41-.62,.01-1.25,0-1.87,0-.15,0-.22,.05-.29,.18-.39,.77-1.02,1.16-1.88,1.17-.67,0-1.34,0-2.01,0-1.14-.01-2.01-.86-2.04-1.98-.03-1.09,.79-2,1.92-2.06,.76-.04,1.53-.03,2.29,0,.81,.03,1.38,.45,1.74,1.17,.04,.08,.13,.17,.2,.17,.77,0,1.55,.03,2.32-.05,1.26-.13,2.25-1.27,2.29-2.53,.01-.48,0-.96,0-1.46-.14-.03-.26-.06-.39-.1-.75-.23-1.3-.91-1.3-1.7-.01-1.81-.02-3.63,0-5.44,0-.83,.6-1.52,1.42-1.72,.08-.02,.16-.04,.23-.06-.24-5.23-4.56-9.99-10.43-10.24C8.37,1.41,3.45,6.17,3.09,11.93Zm21.55,4.51c0,.85,0,1.69,0,2.54,0,.45,.22,.64,.67,.61,.75-.05,1.39-.69,1.4-1.48,.02-1.11,.02-2.23,0-3.35-.01-.77-.63-1.42-1.37-1.49-.48-.04-.7,.15-.7,.63,0,.85,0,1.69,0,2.54Zm-21.21-.01c0-.86,0-1.71,0-2.57,0-.42-.22-.61-.63-.59-.77,.03-1.43,.7-1.44,1.5-.02,1.11-.02,2.21,0,3.32,.01,.77,.63,1.42,1.36,1.49,.5,.04,.71-.14,.71-.65,0-.84,0-1.67,0-2.51Zm13.87,9.91c.34,0,.67,0,1.01,0,.42,0,.71-.27,.72-.66,.01-.4-.27-.69-.7-.7-.68-.01-1.36-.01-2.04,0-.42,0-.7,.29-.7,.67,0,.4,.29,.68,.72,.69,.34,0,.67,0,1.01,0Z"/><path class="cls-1" d="M9.74,18.29c-.56-.03-1.08-.14-1.53-.43-.9-.58-1.35-1.41-1.36-2.48,0-1.89-.02-3.77,0-5.66,.02-1.7,1.24-2.88,2.93-2.89,2.83,0,5.66,0,8.5,0,1.7,0,2.92,1.18,2.94,2.88,.02,1.9,.03,3.79,0,5.69-.02,1.71-1.25,2.88-2.97,2.88-1.13,0-2.25,0-3.38,0-.18,0-.31,.06-.44,.18-.77,.78-1.55,1.55-2.34,2.32-.39,.38-.88,.48-1.4,.31-.52-.18-.83-.55-.92-1.09-.03-.2-.03-.41-.03-.61,0-.36,0-.72,0-1.1Zm1.34,1.49s.05,.02,.07,.04c.07-.07,.15-.13,.22-.2,.79-.78,1.58-1.55,2.35-2.34,.23-.24,.49-.34,.82-.33,1.21,.01,2.42,0,3.63,0,1.11,0,1.71-.6,1.71-1.7,0-1.79,0-3.59,0-5.38,0-1.11-.6-1.7-1.71-1.7-2.76,0-5.51,0-8.27,0-1.12,0-1.71,.59-1.71,1.7,0,1.79,0,3.59,0,5.38,0,.12,0,.24,.02,.36,.07,.67,.56,1.2,1.22,1.3,.26,.04,.54,.03,.81,.04,.62,0,.84,.22,.84,.84,0,.67,0,1.33,0,2Z"/><path class="cls-1" d="M14.04,13.65c-.54,0-1-.46-.99-1,0-.54,.47-.99,1.01-.98,.53,0,.97,.45,.98,.98,0,.54-.45,1-.99,1Z"/><path class="cls-1" d="M11.76,12.65c0,.55-.43,1-.98,1-.54,0-.99-.45-.99-.99,0-.53,.43-.97,.97-.99,.54-.01,1,.43,1.01,.98Z"/><path class="cls-1" d="M16.31,12.67c0-.55,.44-1,.98-1,.54,0,.99,.45,.99,.99,0,.53-.44,.97-.97,.99-.54,.01-1-.43-1-.98Z"/></g></g></g></svg>