<?xml version="1.0" encoding="UTF-8"?><svg id="Layer_2" xmlns="http://www.w3.org/2000/svg" viewBox="0 0 28 28"><defs><style>.cls-1{fill:#0091ff;}.cls-2{fill:none;}</style></defs><g id="Layer_1-2"><g><rect class="cls-2" width="28" height="28"/><g><path class="cls-1" d="M21.83,27.71h-1.18s-.06-.03-.1-.04c-2.26-.29-3.93-1.46-5.02-3.45-.08-.14-.15-.15-.3-.12-1.36,.33-2.74,.43-4.12,.27-2.17-.24-4.15-.98-5.9-2.28-2.55-1.89-4.14-4.39-4.74-7.5-.09-.48-.14-.97-.21-1.45,0-.5,0-1,0-1.5,.02-.08,.03-.15,.05-.23,.09-.58,.15-1.17,.28-1.74C2.07,3.13,8.76-.97,15.28,.64c6.38,1.58,10.37,8.06,8.87,14.44-.07,.29,0,.4,.25,.54,1.65,.93,2.71,2.32,3.16,4.15,.07,.28,.11,.57,.17,.86v1.18c-.02,.06-.04,.12-.05,.18-.4,2.61-1.84,4.39-4.3,5.33-.49,.19-1.03,.26-1.55,.38Zm.69-12.79c1.07-4.06-.52-9.1-5.02-11.67C13.3,.83,7.85,1.73,4.57,5.38c-3.34,3.72-3.62,9.18-.64,13.19,2.99,4.04,7.83,4.83,10.99,3.92-.37-2.22,.17-4.19,1.77-5.79,1.61-1.61,3.59-2.15,5.84-1.79Zm-1.26,1.49c-2.66,0-4.84,2.14-4.85,4.79-.01,2.69,2.15,4.89,4.81,4.9,2.64,0,4.89-2.21,4.9-4.84,.01-2.66-2.17-4.84-4.86-4.85Z"/><path class="cls-1" d="M11.61,6.78h1.58v4.8h3.21v1.6h-4.79V6.78Z"/><path class="cls-1" d="M5.62,6.69c.35-.35,.71-.71,1.06-1.06,.36,.36,.73,.73,1.08,1.08-.34,.34-.71,.71-1.06,1.06-.34-.34-.71-.71-1.08-1.08Z"/><path class="cls-1" d="M18.05,7.79c-.34-.34-.7-.71-1.05-1.05,.36-.36,.73-.73,1.08-1.07,.33,.33,.7,.7,1.05,1.05-.33,.33-.71,.7-1.08,1.07Z"/><path class="cls-1" d="M6.72,17.01c.34,.34,.7,.7,1.04,1.04-.35,.35-.72,.72-1.07,1.07-.33-.33-.7-.7-1.04-1.04,.33-.33,.7-.7,1.06-1.07Z"/><path class="cls-1" d="M11.6,5.15v-1.57h1.58v1.57h-1.58Z"/><path class="cls-1" d="M5.14,11.61v1.57h-1.59v-1.57h1.59Z"/><path class="cls-1" d="M21.23,11.61v1.57h-1.58v-1.57h1.58Z"/><path class="cls-1" d="M11.6,19.63h1.58v1.57h-1.58v-1.57Z"/><path class="cls-1" d="M18.31,21.79c.36-.36,.72-.72,1.11-1.1,.32,.33,.66,.67,1,1.02,.9-.9,1.77-1.77,2.62-2.62,.39,.39,.76,.76,1.12,1.11-1.22,1.22-2.48,2.47-3.72,3.71-.69-.69-1.4-1.4-2.12-2.12Z"/></g></g></g></svg>