<?xml version="1.0" encoding="UTF-8"?><svg id="Layer_2" xmlns="http://www.w3.org/2000/svg" viewBox="0 0 28 28"><defs><style>.cls-1{fill:#0091ff;}.cls-2{fill:none;}</style></defs><g id="Layer_1-2"><g><rect class="cls-2" width="28" height="28"/><g><path class="cls-1" d="M27.66,23.87c-.1,.21-.23,.38-.49,.39-.35,.02-.58-.21-.58-.61,0-1.32,0-2.65,0-3.97,0-.7-.25-.95-.94-.95-2.02,0-4.03,0-6.05,0-.69,0-.94,.26-.94,.95,0,1.84,0,3.68,0,5.52,0,.65,.27,.93,.92,.93,1.48,0,2.97,0,4.45,0,.44,0,.67,.19,.66,.55,0,.26-.17,.45-.43,.5-.1,.02-.19,.02-.29,.02-1.46,0-2.91,0-4.37,0-1.26,0-2-.74-2-2.01,0-1.85,.02-3.7,0-5.55-.02-1.16,.83-2.02,2-1.99,1.95,.04,3.91,.04,5.86,0,1.03-.02,1.87,.3,2.21,1.52v4.69Z"/><path class="cls-1" d="M27.66,5.89c-.04,.18-.07,.36-.11,.54-.47,2.3-2.55,3.93-4.96,3.89-2.29-.04-4.31-1.78-4.69-4.05-.39-2.28,.77-4.47,2.82-5.35,2.11-.91,4.63-.28,5.95,1.48,.53,.71,.82,1.51,.94,2.37,.01,.09,.04,.17,.05,.26v.85ZM22.72,1.55c-2.1,0-3.84,1.72-3.85,3.8,0,2.2,1.67,3.88,3.86,3.88,2.19,0,3.86-1.68,3.86-3.88,0-2.09-1.75-3.81-3.87-3.8Z"/><path class="cls-1" d="M3.15,5.08c-.62-.98-.64-2.02-.26-3.05,.38-1.04,1.46-1.63,2.62-1.51,1.13,.12,2.02,.93,2.2,2.04,.14,.88,.13,1.74-.44,2.52,.15,.04,.28,.07,.4,.11,1.38,.42,2.33,1.66,2.38,3.11,.02,.53,0,1.07,0,1.6,0,.42-.2,.62-.62,.63-.8,0-1.6,0-2.4,0-1.97,0-3.95,0-5.92,0-.55,0-.73-.16-.72-.71,0-.65-.05-1.31,.05-1.94,.23-1.43,1.11-2.34,2.51-2.73,.07-.02,.13-.04,.21-.06Zm5.83,4.36c0-.4,.02-.79,0-1.18-.07-1.21-1.05-2.14-2.26-2.15-1,0-2.01,0-3.01,0-.5,0-.95,.15-1.34,.46-.95,.75-.99,1.59-.87,2.87h1.04c0-.34,0-.66,0-.98,0-.44,.19-.68,.53-.69,.34,0,.54,.24,.54,.68,0,.33,0,.65,0,.98h3.24c0-.21,0-.4,0-.58,0-.19,0-.37,0-.56,.03-.41,.43-.64,.79-.45,.21,.12,.27,.32,.27,.54,0,.35,0,.7,0,1.06h1.07ZM6.71,3.3s-.01,0-.02,0c0-.12,0-.23,0-.35-.05-.75-.59-1.33-1.31-1.38-.79-.06-1.44,.37-1.59,1.11-.07,.33-.06,.67-.04,1.01,.06,.77,.62,1.3,1.4,1.34,.73,.04,1.35-.44,1.5-1.17,.04-.18,.04-.37,.06-.55Z"/><path class="cls-1" d="M10.13,21.08c-.11,.24-.22,.5-.35,.76-.06,.11-.18,.2-.27,.29-.29,.3-.29,.3,0,.59,.36,.35,.64,.73,.55,1.26-.03,.16-.08,.33-.16,.47-.18,.34-.38,.68-.58,1.02-.32,.53-.82,.74-1.43,.6q-.66-.15-.86,.5c-.18,.6-.61,.93-1.24,.93-.38,0-.76,0-1.15,0-.62,0-1.06-.34-1.24-.93q-.2-.66-.85-.5c-.61,.14-1.12-.07-1.43-.6-.2-.34-.4-.67-.59-1.01-.3-.53-.22-1.08,.19-1.52q.48-.51,0-1.01c-.42-.44-.49-.99-.2-1.52,.19-.34,.39-.68,.59-1.01,.32-.54,.82-.75,1.43-.6q.66,.16,.86-.5c.18-.6,.63-.93,1.27-.94,.38,0,.76,0,1.15,0,.59,0,1.03,.34,1.21,.9,.04,.14,.09,.29,.12,.44,.04,.21,.16,.24,.35,.2,1.21-.27,1.45-.17,2.06,.9,.12,.21,.25,.41,.35,.63,.09,.19,.14,.4,.23,.66Zm-7.14,3.79c.66,0,1.11,.34,1.28,.88q.22,.68,.94,.68t.94-.69c.21-.66,.81-1,1.49-.84q.68,.16,1.03-.45,.37-.64-.12-1.2c-.44-.5-.44-1.17,0-1.67q.49-.54,.12-1.18-.35-.61-1.04-.45c-.66,.15-1.26-.19-1.47-.83-.08-.22-.1-.54-.25-.65-.17-.12-.48-.05-.72-.05-.68,0-.68,0-.9,.66-.21,.67-.82,1.02-1.5,.86-.67-.15-.67-.16-1.02,.45-.12,.21-.33,.45-.31,.65,.02,.19,.28,.36,.44,.54,.44,.5,.44,1.17,0,1.67-.11,.13-.23,.25-.35,.36-.12,.11-.13,.21-.05,.35,.18,.29,.35,.58,.51,.88,.09,.18,.21,.21,.39,.15,.24-.07,.48-.11,.62-.14Z"/><path class="cls-1" d="M14.59,21.83c-.16-.15-.32-.3-.47-.45-.24-.25-.25-.57-.04-.78,.21-.22,.54-.21,.78,.03,.47,.46,.94,.92,1.39,1.39,.27,.28,.26,.56-.01,.84-.45,.46-.9,.91-1.36,1.36-.26,.25-.59,.27-.8,.05-.22-.22-.2-.54,.05-.8,.14-.15,.28-.29,.43-.44,0,0,0-.01,.02-.05-.08,0-.15-.02-.23-.02-.76,0-1.53,0-2.29,0-.4,0-.63-.2-.63-.53,0-.33,.23-.54,.62-.54,.83,0,1.67,0,2.5,0,.01-.02,.03-.04,.04-.06Z"/><path class="cls-1" d="M14.56,5.97c-.09,0-.19,0-.28,0-.76,0-1.53,0-2.29,0-.34,0-.55-.22-.56-.52,0-.31,.21-.52,.56-.54,.07,0,.14,0,.21,0,.68,0,1.37,0,2.05,0,.1,0,.19,0,.38,0-.19-.19-.33-.33-.46-.47-.28-.29-.31-.61-.08-.84,.23-.23,.54-.2,.82,.08,.44,.44,.88,.88,1.32,1.32,.31,.31,.31,.58,0,.9-.44,.44-.88,.88-1.32,1.32-.28,.28-.59,.3-.82,.07-.22-.22-.19-.55,.08-.82,.14-.14,.29-.28,.43-.42-.01-.02-.02-.04-.03-.06Z"/><path class="cls-1" d="M22.06,14.34c0-.68,0-1.36,0-2.04,0-.23,.06-.42,.26-.55,.36-.22,.8,.03,.8,.48,0,.7,0,1.4,0,2.18,.19-.18,.33-.32,.48-.46,.28-.27,.59-.3,.82-.08,.24,.23,.21,.56-.07,.84-.43,.44-.86,.87-1.3,1.3-.32,.32-.59,.31-.92,0-.44-.43-.87-.86-1.3-1.3-.27-.28-.3-.59-.08-.82,.23-.24,.56-.21,.84,.07,.14,.14,.26,.29,.39,.43,.02-.01,.05-.03,.07-.04Z"/><path class="cls-1" d="M5.91,14.37c.15-.16,.3-.33,.46-.48,.23-.22,.55-.22,.76-.02,.21,.21,.22,.53-.01,.76-.47,.48-.95,.96-1.43,1.43-.25,.24-.54,.24-.78,0-.48-.47-.96-.95-1.43-1.43-.23-.24-.23-.55-.01-.76,.21-.21,.53-.21,.76,.02,.16,.16,.3,.34,.45,.51,.03-.02,.06-.03,.09-.05,0-.14,0-.27,0-.41,0-.56,0-1.12,0-1.68,0-.35,.22-.58,.52-.59,.3,0,.53,.23,.54,.57,0,.61,0,1.23,0,1.84,0,.09,0,.17,.01,.26,.02,0,.04,.02,.07,.03Z"/><path class="cls-1" d="M22.56,20.5c.59,0,1.17,0,1.76,0,.39,0,.61,.19,.61,.52,0,.33-.22,.55-.61,.55-1.19,0-2.38,0-3.57,0-.45,0-.7-.34-.57-.72,.09-.25,.29-.35,.54-.35,.61,0,1.23,0,1.84,0Z"/><path class="cls-1" d="M21.67,23.22c.31,0,.62,0,.93,0,.34,.01,.55,.22,.55,.52,0,.3-.21,.53-.54,.53-.64,.01-1.28,.01-1.92,0-.33,0-.55-.24-.54-.54,0-.3,.22-.51,.56-.52,.32,0,.64,0,.96,0Z"/><path class="cls-1" d="M26.73,26.85c-.29,0-.54-.26-.53-.55,0-.29,.24-.51,.53-.51,.3,0,.52,.23,.52,.52,0,.29-.24,.53-.52,.53Z"/><path class="cls-1" d="M22.12,5.81c.64-.64,1.24-1.24,1.84-1.85,.16-.16,.34-.25,.57-.2,.41,.09,.54,.58,.23,.9-.34,.36-.7,.71-1.05,1.06-.38,.38-.76,.77-1.15,1.15-.3,.29-.57,.29-.86,0-.34-.33-.67-.66-1-1-.26-.26-.28-.58-.05-.8,.22-.22,.55-.21,.8,.05,.22,.22,.43,.45,.67,.69Z"/><path class="cls-1" d="M7.12,22.43c0,1.09-.84,1.91-1.92,1.9-1.08,0-1.9-.84-1.9-1.92,0-1.03,.88-1.9,1.92-1.89,1.04,0,1.91,.88,1.9,1.91Zm-1.07,0c0-.48-.37-.84-.85-.84-.47,0-.84,.38-.83,.85,0,.45,.39,.83,.84,.83,.46,0,.85-.39,.84-.85Z"/></g></g></g></svg>