<?xml version="1.0" encoding="UTF-8"?><svg id="Layer_2" xmlns="http://www.w3.org/2000/svg" viewBox="0 0 28 28"><defs><style>.cls-1{fill:#0091ff;}.cls-2{fill:none;}</style></defs><g id="Layer_1-2"><g><rect class="cls-2" width="28" height="28"/><path class="cls-1" d="M27,12.67c0-.08,0-.17,0-.25-.03-.41-.37-.72-.78-.71-.45,0-.74,.35-.74,.85,0,3.73,0,7.46,0,11.19,0,1.1-.62,1.71-1.71,1.71-6.51,0-13.02,0-19.53,0-1.09,0-1.71-.62-1.71-1.72V4.26c0-1.12,.61-1.73,1.72-1.73,3.74,0,7.48,0,11.22,0,.49,0,.83-.32,.82-.77,0-.44-.34-.75-.82-.75-3.83,0-7.65,0-11.48,0-.97,0-1.76,.43-2.36,1.19-.34,.43-.49,.93-.63,1.44V24.36c.19,.44,.31,.93,.57,1.33,.45,.71,1.15,1.12,1.98,1.27,.05,0,.09,.03,.14,.04H24.3s.04-.03,.07-.03c1.37-.17,2.65-1.42,2.64-3.25-.04-3.68-.01-7.36-.01-11.04Zm-12.24-4.67c0-.58-.29-.88-.87-.88-1.97,0-3.94,0-5.92,0-.56,0-.86,.3-.86,.87,0,4.01,0,8.02,0,12.03,0,.56,.3,.87,.86,.87,4.01,0,8.02,0,12.04,0,.56,0,.87-.3,.87-.86,0-1.97,0-3.94,0-5.92,0-.58-.3-.87-.88-.87-1.64,0-3.28,0-4.93,0h-.31v-.31c0-1.64,0-3.28,0-4.93Zm-6.1,.67h4.56v4.55h-4.56v-4.55Zm4.57,10.66h-4.56v-4.55h4.56v4.55Zm1.55-4.55h4.55v4.55h-4.55v-4.55Zm5.43-6.13c1.98,0,3.96,0,5.94,0,.56,0,.86-.31,.86-.87,0-1.97,0-3.94,0-5.91,0-.56-.31-.86-.86-.86-.98,0-1.96,0-2.94,0s-1.98,0-2.97,0c-.56,0-.87,.3-.87,.86,0,1.98,0,3.96,0,5.94,0,.54,.31,.85,.85,.85Zm.7-6.11h4.56V7.09h-4.56V2.54Z"/></g></g></svg>