<?xml version="1.0" encoding="UTF-8"?><svg id="Layer_2" xmlns="http://www.w3.org/2000/svg" viewBox="0 0 28.06 28"><defs><style>.cls-1{fill:#0091ff;}.cls-2{fill:none;}</style></defs><g id="Layer_1-2"><g><rect class="cls-2" x=".06" width="28" height="28"/><path class="cls-1" d="M27.43,13.58c-.1-.03-.21-.03-.32-.03-8.82,0-17.65,0-26.47,0-.27,0-.49,.07-.64,.3v.33c.16,.25,.39,.31,.67,.31,8.81,0,17.61,0,26.42,0,.12,0,.24,0,.35-.03,.2-.06,.31-.22,.31-.43,0-.21-.11-.37-.31-.43Zm-15.98,2.28c-.37,0-.74,0-1.11,0-.48,0-.63,.15-.63,.63,0,1.42,0,2.84,0,4.25,0,.88,.02,1.75,0,2.63-.03,1.09-1.09,1.91-2.16,1.7-.89-.17-1.52-.94-1.53-1.88,0-2.25,0-4.5,0-6.75,0-.43-.16-.59-.59-.59-.35,0-.7,0-1.06,0-.54,0-.67,.14-.67,.67,0,2.16,0,4.32,0,6.48,0,.27,.02,.54,.04,.81,.2,1.85,1.86,3.46,3.72,3.58,2.5,.17,4.55-1.73,4.57-4.24,0-1.08,0-2.17,0-3.25,0-1.16,0-2.31,0-3.47,0-.41-.17-.58-.58-.58ZM3.7,8.01c.03,2.27,1.82,4.09,4.06,4.15,2.25,.05,4.22-1.81,4.26-4.1,.04-2.31,.01-4.62,0-6.94,0-.35-.17-.52-.52-.52-.38,0-.76,0-1.14,0-.52,0-.66,.14-.66,.65,0,1.34,0,2.67,0,4.01,0,.94,.01,1.88,0,2.82-.03,1.19-1.21,2.03-2.34,1.69-.8-.24-1.34-.97-1.34-1.83,0-2.25,0-4.5,0-6.75,0-.43-.15-.59-.58-.59-.35,0-.7,0-1.06,0-.54,0-.68,.13-.68,.67,0,1.13,0,2.26,0,3.39,0,1.12-.01,2.24,0,3.36Zm19.71,7.84c-1.33,0-2.65,0-3.98,0s-2.69,0-4.04,0c-.43,0-.59,.16-.6,.58,0,.37,0,.74,0,1.11,0,.47,.15,.62,.61,.62,.82,0,1.64,0,2.46,0,.48,0,.62,.14,.62,.61,0,1.91,0,3.81,0,5.72,0,.47-.15,.61-.62,.62-.85,0-1.7,0-2.55,0-.36,0-.53,.17-.53,.53,0,.42,0,.83,0,1.25,0,.35,.17,.51,.52,.52,.24,0,.49,0,.73,0,2.45,0,4.89,0,7.34,0,.53,0,.67-.14,.67-.68,0-.35,0-.7,0-1.06,0-.41-.16-.57-.58-.57-.84,0-1.68,0-2.52,0-.44,0-.61-.16-.61-.6,0-1.91,0-3.83,0-5.74,0-.45,.15-.59,.61-.59,.82,0,1.64,0,2.46,0,.47,0,.63-.16,.63-.64,0-.34,0-.69,0-1.03,0-.5-.15-.65-.64-.65Zm-8.89-4.56c-.14,.19-.25,.39-.12,.62,.12,.24,.35,.26,.58,.25,.14,0,.29,0,.43,0,.08,0,.16-.01,.24,0,.44,.07,.71-.13,.96-.49,.68-1.01,1.41-1.99,2.11-2.98,.32-.44,.62-.44,.93,0,.74,1.04,1.49,2.09,2.23,3.14,.17,.24,.37,.35,.66,.34,.29-.02,.58,0,.87,0,.24,0,.46-.02,.58-.26,.12-.24,0-.43-.13-.62-1.06-1.48-2.11-2.97-3.17-4.46-.29-.41-.29-.49,0-.89,1.06-1.49,2.12-2.99,3.19-4.48,.13-.18,.24-.37,.13-.6-.12-.24-.34-.26-.58-.26-.29,0-.58,.01-.87,0-.3-.02-.5,.09-.68,.34-.72,1.04-1.46,2.06-2.19,3.09-.35,.49-.64,.48-.98,0-.74-1.04-1.49-2.09-2.23-3.14-.14-.21-.32-.3-.57-.29-.32,0-.63,0-.95,0-.23,0-.44,.02-.56,.25-.12,.24-.02,.43,.12,.62,1.07,1.49,2.13,2.98,3.19,4.48,.27,.37,.27,.49,0,.87-1.06,1.49-2.12,2.99-3.19,4.48Z"/></g></g></svg>