<?xml version="1.0" encoding="UTF-8"?><svg id="Layer_2" xmlns="http://www.w3.org/2000/svg" viewBox="0 0 28 28"><defs><style>.cls-1{fill:#0091ff;}.cls-2{fill:none;}</style></defs><g id="Layer_1-2"><g><rect class="cls-2" width="28" height="28"/><g><path class="cls-1" d="M21.48,22.91c-3.05,2.49-6.52,3.53-10.41,2.96-3.31-.49-6.05-2.06-8.16-4.66C-1.3,16.01-.89,8.51,3.82,3.85,8.61-.88,16.08-1.22,21.3,3.03c5.35,4.36,6.53,12.74,1.61,18.46,.08,.08,.15,.16,.23,.24,1.5,1.5,3,2.99,4.5,4.49,.28,.27,.42,.59,.34,.98-.17,.76-1.05,1.05-1.63,.54-.23-.21-.44-.44-.66-.66-1.32-1.32-2.65-2.64-3.97-3.96-.07-.07-.15-.14-.23-.22ZM13.06,2.12c-6.06,0-10.99,4.9-10.99,10.92,0,6.06,4.92,10.99,10.96,10.98,6.08,0,11-4.92,10.99-10.99,0-6.01-4.94-10.92-10.96-10.92Z"/><path class="cls-1" d="M15.99,12.81c.38,.3,.79,.57,1.14,.9,1.23,1.15,1.85,2.58,1.9,4.25,.02,.67-.4,1.09-1.08,1.09-3.27,0-6.55,0-9.82,0-.67,0-1.1-.43-1.07-1.1,.08-2.13,1.02-3.78,2.81-4.95,.07-.05,.14-.09,.21-.13,.02-.01,.02-.03,.03-.05-1.82-2.14-1.01-4.61,.31-5.74,1.49-1.28,3.74-1.29,5.23-.02,1.3,1.1,2.18,3.58,.34,5.75Zm-6.79,4.24h7.68c-.25-1.55-1.93-2.92-3.63-2.97-1.92-.06-3.63,1.19-4.04,2.97Zm5.84-6.96c0-1.1-.9-1.99-2.01-1.99-1.1,0-1.99,.91-1.98,2.01,0,1.08,.9,1.97,1.99,1.97,1.1,0,2-.89,2-2Z"/></g></g></g></svg>