<svg xmlns="http://www.w3.org/2000/svg" viewBox="0 0 40 40"><defs><style>.cls-1{fill:none;}.cls-2{fill:#fff;}</style></defs><g id="Layer_2" data-name="Layer 2"><g id="Layer_1-2" data-name="Layer 1"><rect class="cls-1" width="40" height="40"/><path class="cls-2" d="M33.55,38.89H6.26a1.42,1.42,0,0,1-.82-1.49c0-3.15,0-6.29,0-9.44a.91.91,0,0,0-.14-.51,11.62,11.62,0,0,1-2-5.48,8.93,8.93,0,0,1,6-9.38,9.59,9.59,0,0,1,3.34-.49A5.63,5.63,0,0,1,7.7,6a5.56,5.56,0,0,1,11-.53,5.33,5.33,0,0,1-1,4.28A5.78,5.78,0,0,1,14,12.1H17.6a3.5,3.5,0,0,1,2.31.84,3.4,3.4,0,0,1,2.19-.84h3.68a5.65,5.65,0,0,1-4.74-6,5.56,5.56,0,0,1,5.34-5,5.63,5.63,0,0,1,5.69,4.62,5.66,5.66,0,0,1-4.7,6.47h.4a8.83,8.83,0,0,1,8.46,6.43,10.39,10.39,0,0,1-1.63,8.8,1.29,1.29,0,0,0-.22.71c0,3.12,0,6.24,0,9.36A1.44,1.44,0,0,1,33.55,38.89Zm-15.2-24.4a3.11,3.11,0,0,0-.72-.16c-1.92,0-3.84,0-5.75,0a6.64,6.64,0,0,0-6.42,6.3A8.65,8.65,0,0,0,9,28.09a9.31,9.31,0,0,0,6.54,1.76,1.1,1.1,0,0,0-.06-2.2c-.38,0-.76,0-1.15,0A6.7,6.7,0,0,1,7.67,21a1.11,1.11,0,0,1,2.18-.31,2.42,2.42,0,0,1,.05.47,4.46,4.46,0,0,0,4.36,4.24.47.47,0,0,0,.35-.2,3.34,3.34,0,0,1,3.23-2h1.34c-2.17-.61-3.49-1.94-3.68-3.95C15.28,17,16.36,15.51,18.35,14.49Zm2.29,8.71h1.48a3.26,3.26,0,0,1,3,1.94.42.42,0,0,0,.48.28,4.48,4.48,0,0,0,4.29-4.36,1.11,1.11,0,1,1,2.22.05,6.64,6.64,0,0,1-5.3,6.37,18.52,18.52,0,0,1-2.47.16,1.12,1.12,0,0,0-1.12,1.06,1.07,1.07,0,0,0,1,1.14,16,16,0,0,0,3-.19,8.83,8.83,0,0,0,7.06-8.06,6.67,6.67,0,0,0-6.41-7.26c-1.92,0-3.83,0-5.75,0a3.31,3.31,0,0,0-.73.16v.1a4.5,4.5,0,0,1,2.24,1.86,4.09,4.09,0,0,1,.61,2.87A4.53,4.53,0,0,1,20.64,23.2Zm2.58,13.46c0-.07,0-.11,0-.14,0-1.47,0-2.94,0-4.4,0-.24-.14-.28-.29-.35a3.32,3.32,0,0,1-.35-5.85l.26-.17v-.11a3,3,0,0,0-.75-.21c-1.49,0-3,0-4.45,0a3.1,3.1,0,0,0-.83.26l.21.14a3.22,3.22,0,0,1,1.72,3.09,3.18,3.18,0,0,1-2,2.87c-.21.1-.21.23-.21.41v4.14c0,.11,0,.21,0,.32ZM7.69,29.87v6.78h6.63V32.09A11.29,11.29,0,0,1,7.69,29.87Zm24.44,0a11.25,11.25,0,0,1-6.64,2.22v4.55h6.64ZM13.25,3.22a3.33,3.33,0,1,0,3.32,3.36A3.34,3.34,0,0,0,13.25,3.22Zm13.35,0a3.33,3.33,0,1,0,3.32,3.37A3.35,3.35,0,0,0,26.6,3.22ZM19.92,16.54a2.22,2.22,0,1,0,2.21,2.22A2.23,2.23,0,0,0,19.92,16.54Z"/></g></g></svg>