<svg xmlns="http://www.w3.org/2000/svg" viewBox="0 0 40 40"><defs><style>.cls-1{fill:none;}.cls-2{fill:#fff;}</style></defs><g id="Layer_2" data-name="Layer 2"><g id="Layer_1-2" data-name="Layer 1"><rect class="cls-1" width="40" height="40"/><path class="cls-2" d="M1.5,15.65a11.94,11.94,0,0,1,.58-1.81,5.22,5.22,0,0,1,4.68-3c1.29-.06,2.59,0,3.89,0A4.47,4.47,0,0,1,7.76,9,4.3,4.3,0,0,1,7,5.65,4.42,4.42,0,0,1,11.47,2a4.42,4.42,0,0,1,.47,8.78,4.54,4.54,0,0,1,4.72,1.91l.08-.08v-.38c0-2.28,0-4.55,0-6.83a3.15,3.15,0,0,1,1.86-3.06A3.72,3.72,0,0,1,20.11,2c5.06,0,10.12,0,15.18,0A3.26,3.26,0,0,1,38.67,5.4V16.07a3.29,3.29,0,0,1-3.43,3.43c-4,0-7.89,0-11.83,0a2,2,0,0,0-.83.19c-1.17.55-2.31,1.14-3.48,1.7a3,3,0,0,1-2.09.15l-.27,0V35.7a3.25,3.25,0,0,1-1.87,3.14,7.27,7.27,0,0,1-1,.33h-.73a4,4,0,0,1-1.67-.72.28.28,0,0,0-.28,0,3.94,3.94,0,0,1-1.68.72H8.76a8.89,8.89,0,0,1-1.55-.65,3.19,3.19,0,0,1-1.36-2.81c0-3.13,0-6.26,0-9.39v-.45l-.28.05A3.21,3.21,0,0,1,2.23,24.8a3.74,3.74,0,0,1-.73-1.67ZM25.35,17.3l.18,0h9.8a1.1,1.1,0,0,0,1.16-1.24V5.42a1.11,1.11,0,0,0-1.23-1.24H20.16a1.11,1.11,0,0,0-1.24,1.24v8.49c0,.08,0,.17,0,.27.7-.33,1.35-.69,2-1a3.08,3.08,0,0,1,3.21.45.48.48,0,0,0,.6.05L30,11.1a4.27,4.27,0,0,1,.53-.24,1.07,1.07,0,0,1,1.39.68,1.09,1.09,0,0,1-.66,1.36l-5.54,2.78c-.11.06-.26.18-.27.28C25.4,16.4,25.38,16.85,25.35,17.3ZM8,26.06v9.55c0,.13,0,.26,0,.4a1.09,1.09,0,0,0,2.16,0,2.64,2.64,0,0,0,0-.4V25.23a2.71,2.71,0,0,1,0-.4,1.11,1.11,0,0,1,1.08-1,1.09,1.09,0,0,1,1.08,1c0,.13,0,.27,0,.4V35.61c0,.87.4,1.38,1.09,1.38s1.09-.51,1.09-1.38V19.68c0-.12,0-.24,0-.36a1.08,1.08,0,0,1,1.84-.78c.21.18.39.39.6.58a1.09,1.09,0,0,0,1.39.22l4.21-2.11a1.49,1.49,0,0,0,.47-.39,1.08,1.08,0,0,0-1.38-1.57c-.92.43-1.82.9-2.73,1.35a1.2,1.2,0,0,1-1.66-.27l-2.95-3a1.28,1.28,0,0,0-1-.44C11.27,13,9.15,13,7,13a3.15,3.15,0,0,0-3.3,3c-.11,2.3,0,4.6,0,6.9a1,1,0,0,0,.68.9A1.08,1.08,0,0,0,5.85,22.7c0-1.82,0-3.63,0-5.45,0-.36,0-.73,0-1.09a1.09,1.09,0,0,1,1.08-1,1.11,1.11,0,0,1,1.09,1c0,.13,0,.26,0,.39ZM13.47,6.44a2.26,2.26,0,0,0-2.14-2.26A2.27,2.27,0,0,0,9.12,6.43a2.18,2.18,0,1,0,4.35,0Z"/></g></g></svg>