<svg xmlns="http://www.w3.org/2000/svg" viewBox="0 0 40 40"><defs><style>.cls-1{fill:none;}.cls-2{fill:#fff;}</style></defs><g id="Layer_2" data-name="Layer 2"><g id="Layer_1-2" data-name="Layer 1"><rect class="cls-1" width="40" height="40"/><path class="cls-2" d="M27.8,38.36h-.66a1.83,1.83,0,0,1-.88-.77c-1-1.76-2-3.5-3-5.25a1.64,1.64,0,0,1-.2-.5,1.27,1.27,0,0,1,.77-1.46,1.26,1.26,0,0,1,1.58.52c.53.89,1,1.79,1.55,2.69l.22.35c.35-1,.66-1.92,1-2.85a1.29,1.29,0,0,1,1.68-.87l.8.24,1.29.37-3-5.11c-5.79,4-11.57,4.06-17.41.08l-2.93,5,2-.59a1.84,1.84,0,0,1,.61-.09,1.27,1.27,0,0,1,1.14.93c.33.93.65,1.87,1,2.85.09-.15.16-.25.22-.36.47-.82.94-1.64,1.42-2.46a1.21,1.21,0,0,1,1.27-.66,1.27,1.27,0,0,1,.95,2c-.92,1.64-1.88,3.27-2.8,4.91a2.11,2.11,0,0,1-1,1h-.66a1.76,1.76,0,0,1-1-1.28c-.26-.84-.56-1.66-.85-2.48l-.54-1.55-.42.12L6.27,34.24a1.29,1.29,0,0,1-1.64-.83,1.38,1.38,0,0,1,.19-1.21q2.34-4,4.69-8a.4.4,0,0,0,0-.54,13.23,13.23,0,0,1-2.9-11.2C7.7,6.68,11.22,3,16.86,1.43A24.1,24.1,0,0,1,19.26,1h1.89l.94.13A13.54,13.54,0,0,1,31,6.18a13.74,13.74,0,0,1,0,17.37.39.39,0,0,0,0,.51c.69,1.15,1.35,2.3,2,3.46l2.77,4.75a1.31,1.31,0,0,1-1.54,1.95c-1.32-.38-2.65-.78-4-1.18-.05.13-.1.24-.13.35-.43,1.24-.88,2.47-1.28,3.72A1.78,1.78,0,0,1,27.8,38.36Zm3.7-23.48A11.3,11.3,0,1,0,20.21,26.16,11.3,11.3,0,0,0,31.5,14.88Z"/><path class="cls-2" d="M14.71,20.77c.15-.94.27-2.05.51-3.12A1.45,1.45,0,0,0,14.68,16c-.8-.63-1.52-1.37-2.28-2.05A1.31,1.31,0,0,1,12,12.5a1.33,1.33,0,0,1,1.19-.93c1.23-.18,2.47-.39,3.7-.58a.53.53,0,0,0,.46-.35c.52-1.09,1.06-2.18,1.58-3.28a1.31,1.31,0,0,1,1.23-.86,1.33,1.33,0,0,1,1.23.82l1.72,3.26a.46.46,0,0,0,.41.29c1.29.15,2.57.32,3.86.48a1.26,1.26,0,0,1,1.11.87,1.22,1.22,0,0,1-.33,1.37c-.88.88-1.77,1.77-2.68,2.63a.6.6,0,0,0-.19.61c.24,1.16.46,2.33.7,3.5a1.33,1.33,0,0,1-2,1.52c-1.09-.55-2.2-1.07-3.29-1.63a.69.69,0,0,0-.73,0c-1.08.59-2.16,1.16-3.24,1.74a1.43,1.43,0,0,1-1.43,0A1.19,1.19,0,0,1,14.71,20.77Zm5.46-10.11c-.32.65-.63,1.26-.91,1.87a1.44,1.44,0,0,1-1.2.89c-.65.08-1.3.2-2,.32.5.46.91.88,1.37,1.25A1.59,1.59,0,0,1,18,16.71c-.12.58-.19,1.16-.28,1.81.6-.32,1.14-.57,1.64-.89a1.72,1.72,0,0,1,1.92,0c.51.3,1.07.54,1.66.82-.14-.73-.26-1.4-.4-2.06a1.32,1.32,0,0,1,.38-1.27L24.05,14l.35-.37c-.73-.09-1.38-.19-2-.26a1.39,1.39,0,0,1-1.22-.84C20.84,11.9,20.51,11.3,20.17,10.66Z"/></g></g></svg>