<svg xmlns="http://www.w3.org/2000/svg" viewBox="0 0 40 40"><defs><style>.cls-1{fill:none;}.cls-2{fill:#0091ff;stroke:#0091ff;stroke-miterlimit:10;stroke-width:0.46px;}</style></defs><g id="Layer_2" data-name="Layer 2"><g id="Layer_1-2" data-name="Layer 1"><rect class="cls-1" width="40" height="40"/><path class="cls-2" d="M1,33.21v-26A.58.58,0,0,0,1,7,4.3,4.3,0,0,1,5.52,3.36H34.46a5.74,5.74,0,0,1,.93.05A4.31,4.31,0,0,1,39.05,7.8V31c0,.6,0,1.19,0,1.79a4,4,0,0,1-.58,2,4.36,4.36,0,0,1-4,2.16h-29L5,37a4.24,4.24,0,0,1-3.8-2.82C1.1,33.83,1,33.52,1,33.21ZM2.23,12v.34q0,10.05,0,20.09a3.88,3.88,0,0,0,.11,1,3,3,0,0,0,3.16,2.29H34.45a3.08,3.08,0,0,0,3.32-3.32V12Zm.07-1.34H37.74c0-1.08,0-2.13,0-3.18a2.63,2.63,0,0,0-.28-1.1,3,3,0,0,0-2.95-1.74H5.21A2.92,2.92,0,0,0,2.33,7.08,32.8,32.8,0,0,0,2.3,10.66Z"/><path class="cls-2" d="M18.89,24.14v6.77c0,.67-.21.89-.89.89H6.81c-.68,0-.88-.22-.88-.9q0-6.73,0-13.46c0-.71.2-.9.91-.9H18c.71,0,.9.19.9.9ZM17.6,17.85H7.23V30.47H17.6Z"/><path class="cls-2" d="M28.15,22.48h-4.9c-.48,0-.77-.25-.78-.63s.29-.66.78-.66h9.66c.64,0,.94.21,1,.64s-.3.66-1,.66Z"/><path class="cls-2" d="M28.18,30.51H32.9a3.17,3.17,0,0,1,.44,0,.57.57,0,0,1,.52.55.58.58,0,0,1-.43.66,1.29,1.29,0,0,1-.4.05c-3.24,0-6.49,0-9.73,0a1.31,1.31,0,0,1-.44-.07A.62.62,0,0,1,23,30.54a2.17,2.17,0,0,1,.44,0Z"/><path class="cls-2" d="M28.16,16.54h4.9a.72.72,0,0,1,.71.31.63.63,0,0,1-.42.95,2.75,2.75,0,0,1-.41,0H23.17a.66.66,0,0,1-.7-.63.65.65,0,0,1,.71-.65Z"/><path class="cls-2" d="M28.15,27.13H23.43a2.75,2.75,0,0,1-.41,0,.59.59,0,0,1-.54-.57.58.58,0,0,1,.41-.64,1.54,1.54,0,0,1,.48,0H33a1.84,1.84,0,0,1,.41,0,.6.6,0,0,1,.46.67.59.59,0,0,1-.55.56,2.75,2.75,0,0,1-.41,0Z"/><path class="cls-2" d="M8.24,7.66a2,2,0,0,1,4,0,2,2,0,0,1-2,2A2,2,0,0,1,8.24,7.66Zm2.7,0a.73.73,0,0,0-.72-.7.75.75,0,0,0-.69.73.71.71,0,0,0,1.41,0Z"/><path class="cls-2" d="M16.88,7.68a2,2,0,1,1-2-2A2,2,0,0,1,16.88,7.68Zm-1.29,0A.74.74,0,0,0,14.91,7a.7.7,0,0,0-.73.67.68.68,0,0,0,.62.73A.71.71,0,0,0,15.59,7.71Z"/><path class="cls-2" d="M7.59,7.67a2,2,0,1,1-4,0,2,2,0,1,1,4,0Zm-2,.71a.7.7,0,0,0,.7-.71A.74.74,0,0,0,5.59,7a.73.73,0,0,0-.7.72A.7.7,0,0,0,5.6,8.38Z"/></g></g></svg>