<svg xmlns="http://www.w3.org/2000/svg" viewBox="0 0 28 28"><defs><style>.cls-1,.cls-3{fill:none;}.cls-2{fill:#0091ff;}.cls-3{stroke:#0091ff;stroke-miterlimit:10;stroke-width:0.33px;}</style></defs><g id="Layer_2" data-name="Layer 2"><g id="Layer_1-2" data-name="Layer 1"><rect class="cls-1" width="28" height="28"/><path class="cls-2" d="M26.83,24.69A13.8,13.8,0,0,0,26.75,23a5.19,5.19,0,0,0-3-3.94.35.35,0,0,1-.15-.24c0-.45,0-.89,0-1.34a2,2,0,0,0-2.12-2.13H18.23L19,13.27a.47.47,0,0,1,.16-.21c.48-.4,1-.77,1.45-1.18a1.4,1.4,0,0,0,.46-1.51A1.45,1.45,0,0,0,20,9.3l-.24-.06c0-.1.06-.18.09-.26.29-.79.6-1.57.85-2.37A4.14,4.14,0,0,0,17,1.2a47.77,47.77,0,0,0-5.35.1A12.07,12.07,0,0,0,6,3.25a.48.48,0,0,0-.21.4.53.53,0,0,0,.3.34A8.33,8.33,0,0,0,7,4.28a1,1,0,0,1,.71,1.43,1.92,1.92,0,0,0,.1,1.54c.3.59.59,1.18.89,1.76,0,.08.07.16.1.25l-.09,0a1.44,1.44,0,0,0-1.22,1.16A1.49,1.49,0,0,0,8.08,12c.43.34.86.68,1.28,1a.48.48,0,0,1,.17.18c.28.69.54,1.39.82,2.1H7A2,2,0,0,0,5,17a10.18,10.18,0,0,0,0,1.66.39.39,0,0,1-.27.43,5,5,0,0,0-2.91,4.1,21.61,21.61,0,0,0-.06,2.42c0,.53.1.63.64.63h24a.41.41,0,0,0,.46-.45C26.83,25.43,26.84,25.06,26.83,24.69ZM5,25.43H2.55a10,10,0,0,1,.25-3A4.46,4.46,0,0,1,4.73,20,2.6,2.6,0,0,1,5,19.88ZM20.3,10.5a.66.66,0,0,1-.2.79c-.22.19-.45.37-.7.57.05-.62.11-1.19.16-1.77A.68.68,0,0,1,20.3,10.5Zm-11.88.73a.61.61,0,0,1-.14-.74A.69.69,0,0,1,9,10.08c.06.58.11,1.16.17,1.78A8.48,8.48,0,0,1,8.42,11.23Zm.72-3.06c-.25-.49-.5-.93-.69-1.41a1.21,1.21,0,0,1,0-.68A1.89,1.89,0,0,0,7.23,3.5a1.4,1.4,0,0,1,.18-.12A12.84,12.84,0,0,1,13,2c1.24,0,2.48,0,3.72,0a3.37,3.37,0,0,1,3.2,4.42,8,8,0,0,1-.38,1,7.9,7.9,0,0,0-1.63-3.18.39.39,0,0,0-.63-.1c-.3.22-.58.46-.87.69a3.48,3.48,0,0,1-2.25.82,4.12,4.12,0,0,0-2.28.73Zm.7.61A.28.28,0,0,1,10,8.6c.85-.57,1.7-1.14,2.56-1.7A2.73,2.73,0,0,1,14,6.44a4.39,4.39,0,0,0,3-1.15L17.4,5a4.86,4.86,0,0,1,1.29,4.24H15.31c-.51,0-.61.09-.62.61v.19h-.81c0-.12,0-.22,0-.33,0-.33-.15-.47-.48-.47H9.84C9.84,9.09,9.83,8.93,9.84,8.78Zm7.27,2.58a.36.36,0,0,1-.37.33h-.85a.39.39,0,0,1-.39-.42V10.08h1.61C17.11,10.51,17.13,10.94,17.11,11.36Zm-4-1.27c0,.42,0,.83,0,1.23a.37.37,0,0,1-.38.37h-.84a.38.38,0,0,1-.39-.38c0-.4,0-.81,0-1.22Zm-3.22.24v-.25h.8v1A1.24,1.24,0,0,0,12,12.5h.63a1.21,1.21,0,0,0,1.22-1.22c0-.12,0-.24,0-.38h.81v.38a1.21,1.21,0,0,0,1.23,1.22h.81a1.21,1.21,0,0,0,1.2-1.21v-1.2h.81c0,.3,0,.6-.06.89a10.75,10.75,0,0,1-1.33,4.16.36.36,0,0,1-.36.2H11.58a.35.35,0,0,1-.35-.2A10.73,10.73,0,0,1,9.85,10.33Zm12.93,14.8v.3h-17V17.51a1.23,1.23,0,0,1,1.38-1.37H21.4a1.23,1.23,0,0,1,1.38,1.39Zm3,.32H23.61V19.88a4.25,4.25,0,0,1,1.45,1.2,4.4,4.4,0,0,1,1,2.69c0,.55,0,1.09,0,1.68ZM14.28,21a1.62,1.62,0,1,0,1.63,1.61A1.62,1.62,0,0,0,14.28,21Zm0,2.42a.81.81,0,0,1-.82-.79.8.8,0,0,1,.78-.82.81.81,0,1,1,0,1.61Zm-2.16-6.17-.56-.56c-.55.54-1.1,1.07-1.64,1.62a.35.35,0,0,0,0,.5c.54.56,1.1,1.09,1.63,1.62l.59-.55-1.33-1.32ZM17,16.72l-.6.54,1.34,1.32-1.31,1.29.55.58,1.64-1.62a.36.36,0,0,0,0-.51C18.1,17.77,17.55,17.24,17,16.72Zm-1.19.47-.65-.48-2.43,3.23.65.49Z"/><path class="cls-3" d="M26.83,24.69A13.8,13.8,0,0,0,26.75,23a5.19,5.19,0,0,0-3-3.94.35.35,0,0,1-.15-.24c0-.45,0-.89,0-1.34a2,2,0,0,0-2.12-2.13H18.23L19,13.27a.47.47,0,0,1,.16-.21c.48-.4,1-.77,1.45-1.18a1.4,1.4,0,0,0,.46-1.51A1.45,1.45,0,0,0,20,9.3l-.24-.06c0-.1.06-.18.09-.26.29-.79.6-1.57.85-2.37A4.14,4.14,0,0,0,17,1.2a47.77,47.77,0,0,0-5.35.1A12.07,12.07,0,0,0,6,3.25a.48.48,0,0,0-.21.4.53.53,0,0,0,.3.34A8.33,8.33,0,0,0,7,4.28a1,1,0,0,1,.71,1.43,1.92,1.92,0,0,0,.1,1.54c.3.59.59,1.18.89,1.76,0,.08.07.16.1.25l-.09,0a1.44,1.44,0,0,0-1.22,1.16A1.49,1.49,0,0,0,8.08,12c.43.34.86.68,1.28,1a.48.48,0,0,1,.17.18c.28.69.54,1.39.82,2.1H7A2,2,0,0,0,5,17a10.18,10.18,0,0,0,0,1.66.39.39,0,0,1-.27.43,5,5,0,0,0-2.91,4.1,21.61,21.61,0,0,0-.06,2.42c0,.53.1.63.64.63h24a.41.41,0,0,0,.46-.45C26.83,25.43,26.84,25.06,26.83,24.69ZM5,25.43H2.55a10,10,0,0,1,.25-3A4.46,4.46,0,0,1,4.73,20,2.6,2.6,0,0,1,5,19.88ZM20.3,10.5a.66.66,0,0,1-.2.79c-.22.19-.45.37-.7.57.05-.62.11-1.19.16-1.77A.68.68,0,0,1,20.3,10.5Zm-11.88.73a.61.61,0,0,1-.14-.74A.69.69,0,0,1,9,10.08c.06.58.11,1.16.17,1.78A8.48,8.48,0,0,1,8.42,11.23Zm.72-3.06c-.25-.49-.5-.93-.69-1.41a1.21,1.21,0,0,1,0-.68A1.89,1.89,0,0,0,7.23,3.5a1.4,1.4,0,0,1,.18-.12A12.84,12.84,0,0,1,13,2c1.24,0,2.48,0,3.72,0a3.37,3.37,0,0,1,3.2,4.42,8,8,0,0,1-.38,1,7.9,7.9,0,0,0-1.63-3.18.39.39,0,0,0-.63-.1c-.3.22-.58.46-.87.69a3.48,3.48,0,0,1-2.25.82,4.12,4.12,0,0,0-2.28.73Zm.7.61A.28.28,0,0,1,10,8.6c.85-.57,1.7-1.14,2.56-1.7A2.73,2.73,0,0,1,14,6.44a4.39,4.39,0,0,0,3-1.15L17.4,5a4.86,4.86,0,0,1,1.29,4.24H15.31c-.51,0-.61.09-.62.61v.19h-.81c0-.12,0-.22,0-.33,0-.33-.15-.47-.48-.47H9.84C9.84,9.09,9.83,8.93,9.84,8.78Zm7.27,2.58a.36.36,0,0,1-.37.33h-.85a.39.39,0,0,1-.39-.42V10.08h1.61C17.11,10.51,17.13,10.94,17.11,11.36Zm-4-1.27c0,.42,0,.83,0,1.23a.37.37,0,0,1-.38.37h-.84a.38.38,0,0,1-.39-.38c0-.4,0-.81,0-1.22Zm-3.22.24v-.25h.8v1A1.24,1.24,0,0,0,12,12.5h.63a1.21,1.21,0,0,0,1.22-1.22c0-.12,0-.24,0-.38h.81v.38a1.21,1.21,0,0,0,1.23,1.22h.81a1.21,1.21,0,0,0,1.2-1.21v-1.2h.81c0,.3,0,.6-.06.89a10.75,10.75,0,0,1-1.33,4.16.36.36,0,0,1-.36.2H11.58a.35.35,0,0,1-.35-.2A10.73,10.73,0,0,1,9.85,10.33Zm12.93,14.8v.3h-17V17.51a1.23,1.23,0,0,1,1.38-1.37H21.4a1.23,1.23,0,0,1,1.38,1.39Zm3,.32H23.61V19.88a4.25,4.25,0,0,1,1.45,1.2,4.4,4.4,0,0,1,1,2.69c0,.55,0,1.09,0,1.68ZM14.28,21a1.62,1.62,0,1,0,1.63,1.61A1.62,1.62,0,0,0,14.28,21Zm0,2.42a.81.81,0,0,1-.82-.79.8.8,0,0,1,.78-.82.81.81,0,1,1,0,1.61Zm-2.16-6.17-.56-.56c-.55.54-1.1,1.07-1.64,1.62a.35.35,0,0,0,0,.5c.54.56,1.1,1.09,1.63,1.62l.59-.55-1.33-1.32ZM17,16.72l-.6.54,1.34,1.32-1.31,1.29.55.58,1.64-1.62a.36.36,0,0,0,0-.51C18.1,17.77,17.55,17.24,17,16.72Zm-1.19.47-.65-.48-2.43,3.23.65.49Z"/></g></g></svg>