<svg xmlns="http://www.w3.org/2000/svg" viewBox="0 0 28 28"><defs><style>.cls-1,.cls-3{fill:none;}.cls-2{fill:#0091ff;}.cls-3{stroke:#fff;stroke-miterlimit:10;stroke-width:0.26px;}</style></defs><g id="Layer_2" data-name="Layer 2"><g id="Layer_1-2" data-name="Layer 1"><rect class="cls-1" width="28" height="28"/><path class="cls-2" d="M15.65,5.1a1,1,0,0,0-1-1.07c-.73,0-1.46,0-2.18,0a1,1,0,0,0-1,1.07,1,1,0,0,0,1.05,1h2.08A1,1,0,0,0,15.65,5.1Zm7.11,15.49a1,1,0,0,0-2,.44c0,.66,0,1.32,0,2a2.11,2.11,0,0,1-2.16,2.15c-3.38,0-6.75,0-10.13,0A2.09,2.09,0,0,1,6.32,23V4.56A2.1,2.1,0,0,1,8.51,2.39q5,0,10.07,0a2.11,2.11,0,0,1,2.19,2.19c0,.5,0,1,0,1.48a1.06,1.06,0,1,0,2.11,0V4.56A4.22,4.22,0,0,0,18.6.28c-3.38,0-6.75,0-10.13,0A4.79,4.79,0,0,0,7.06.52,4.18,4.18,0,0,0,4.21,4.59v17c0,.55,0,1.1,0,1.64a4.08,4.08,0,0,0,2.37,3.65A9,9,0,0,0,8,27.27H19.13l.15-.05a4.15,4.15,0,0,0,3.54-3.6,26.58,26.58,0,0,0,0-2.68A.88.88,0,0,0,22.76,20.59Zm-9.22.83a1.07,1.07,0,0,0-1,1,1.05,1.05,0,0,0,1,1.07,1.06,1.06,0,1,0,0-2.11Zm11.82-8.29a.6.6,0,0,0-.53-.53,1.27,1.27,0,0,1-1-1.71.6.6,0,0,0-.21-.72,4.72,4.72,0,0,0-1.36-.78.59.59,0,0,0-.73.18,1.28,1.28,0,0,1-2,0,.61.61,0,0,0-.72-.18,4.6,4.6,0,0,0-1.26.71.6.6,0,0,0-.22.75,1.28,1.28,0,0,1-1.05,1.72.59.59,0,0,0-.55.49,4.36,4.36,0,0,0,0,1.61.62.62,0,0,0,.6.59,1.2,1.2,0,0,1,.75.39A1.24,1.24,0,0,1,17.29,17a.59.59,0,0,0,.15.73,4.77,4.77,0,0,0,1.41.82,1.74,1.74,0,0,0,.22.05.64.64,0,0,0,.5-.27,1.27,1.27,0,0,1,2.06,0,.6.6,0,0,0,.73.2,5,5,0,0,0,1.26-.75.61.61,0,0,0,.19-.73,1.27,1.27,0,0,1,1-1.74.6.6,0,0,0,.52-.5A4.22,4.22,0,0,0,25.36,13.13ZM20.54,15.6A1.64,1.64,0,1,1,22.17,14,1.64,1.64,0,0,1,20.54,15.6Z"/><path class="cls-3" d="M15.65,5.1a1,1,0,0,0-1-1.07c-.73,0-1.46,0-2.18,0a1,1,0,0,0-1,1.07,1,1,0,0,0,1.05,1h2.08A1,1,0,0,0,15.65,5.1Zm7.11,15.49a1,1,0,0,0-2,.44c0,.66,0,1.32,0,2a2.11,2.11,0,0,1-2.16,2.15c-3.38,0-6.75,0-10.13,0A2.09,2.09,0,0,1,6.32,23V4.56A2.1,2.1,0,0,1,8.51,2.39q5,0,10.07,0a2.11,2.11,0,0,1,2.19,2.19c0,.5,0,1,0,1.48a1.06,1.06,0,1,0,2.11,0V4.56A4.22,4.22,0,0,0,18.6.28c-3.38,0-6.75,0-10.13,0A4.79,4.79,0,0,0,7.06.52,4.18,4.18,0,0,0,4.21,4.59v17c0,.55,0,1.1,0,1.64a4.08,4.08,0,0,0,2.37,3.65A9,9,0,0,0,8,27.27H19.13l.15-.05a4.15,4.15,0,0,0,3.54-3.6,26.58,26.58,0,0,0,0-2.68A.88.88,0,0,0,22.76,20.59Zm-9.22.83a1.07,1.07,0,0,0-1,1,1.05,1.05,0,0,0,1,1.07,1.06,1.06,0,1,0,0-2.11Zm11.82-8.29a.6.6,0,0,0-.53-.53,1.27,1.27,0,0,1-1-1.71.6.6,0,0,0-.21-.72,4.72,4.72,0,0,0-1.36-.78.59.59,0,0,0-.73.18,1.28,1.28,0,0,1-2,0,.61.61,0,0,0-.72-.18,4.6,4.6,0,0,0-1.26.71.6.6,0,0,0-.22.75,1.28,1.28,0,0,1-1.05,1.72.59.59,0,0,0-.55.49,4.36,4.36,0,0,0,0,1.61.62.62,0,0,0,.6.59,1.2,1.2,0,0,1,.75.39A1.24,1.24,0,0,1,17.29,17a.59.59,0,0,0,.15.73,4.77,4.77,0,0,0,1.41.82,1.74,1.74,0,0,0,.22.05.64.64,0,0,0,.5-.27,1.27,1.27,0,0,1,2.06,0,.6.6,0,0,0,.73.2,5,5,0,0,0,1.26-.75.61.61,0,0,0,.19-.73,1.27,1.27,0,0,1,1-1.74.6.6,0,0,0,.52-.5A4.22,4.22,0,0,0,25.36,13.13ZM20.54,15.6A1.64,1.64,0,1,1,22.17,14,1.64,1.64,0,0,1,20.54,15.6Z"/></g></g></svg>