<?xml version="1.0" encoding="UTF-8"?><svg id="Layer_2" xmlns="http://www.w3.org/2000/svg" viewBox="0 0 28 28"><defs><style>.cls-1{fill:#0091ff;}.cls-2{fill:none;}</style></defs><g id="Layer_1-2"><g><rect class="cls-2" width="28" height="28"/><g><path class="cls-1" d="M24.36,27.53H3.64c0-.07,0-.14,0-.21,0-7.27,0-14.53,0-21.8,0-.09,0-.17-.01-.29-.21,0-.4,0-.59,0-.21,0-.43,0-.63-.04-1.21-.24-2.05-1.36-1.94-2.56C.6,1.39,1.63,.47,2.92,.47c6.32,0,12.64,0,18.97,0,.23,0,.48,.03,.7,.09,1.07,.29,1.76,1.22,1.76,2.38,0,2.29,0,4.58,0,6.87,0,.1,0,.21,0,.33,.11-.02,.2-.04,.28-.06,1.29-.28,2.53,.51,2.84,1.79,.02,.08,.04,.15,.06,.23v.63c-.14,.75-.59,1.29-1.13,1.8-.63,.6-1.23,1.23-1.86,1.84-.14,.14-.2,.28-.2,.48,0,2.84,0,5.67,0,8.51,0,.72,0,1.44,0,2.17Zm-2.41-22.29H5.25V25.93H22.74v-7.7s-.04-.03-.06-.04c-.06,.08-.11,.16-.18,.23-1.92,1.92-3.83,3.84-5.76,5.75-.08,.08-.22,.16-.33,.17-1.02,.01-2.04,0-3.06,0-.04,0-.08-.01-.15-.02v-3.17H6.86v-1.58c.12,0,.22,0,.32,0,2.14,0,4.28-.03,6.42,.02,.73,.02,1.28-.14,1.73-.72,.24-.31,.55-.55,.83-.83-.01-.02-.02-.05-.04-.07H6.87v-1.58h.34c3.28,0,6.55-.01,9.83,.01,.56,0,.97-.12,1.32-.56,.3-.36,.66-.67,1-1-.01-.02-.02-.04-.03-.06H6.86v-1.58c.12,0,.22,0,.32,0,4.51,0,9.02,0,13.53,0,.19,0,.33-.05,.46-.19,.47-.49,.96-.96,1.43-1.45,.09-.1,.16-.25,.16-.38,0-2.74,0-5.48,0-8.22,0-.12-.01-.25-.05-.36-.1-.35-.45-.58-.81-.55-.36,.03-.67,.3-.73,.66-.06,.38,.13,.73,.48,.87,.09,.04,.18,.05,.29,.09v1.57Zm-2.32-3.19c-.05,0-.15,0-.26,0-5.44,0-10.88,0-16.32,0-.09,0-.18,0-.26,0-.31,.04-.54,.2-.67,.49-.13,.29-.07,.57,.13,.81,.19,.23,.44,.29,.73,.29,5.48,0,10.97,0,16.45,0,.08,0,.17,0,.2,0v-1.59Zm-2.02,18.92c2.1-2.1,4.22-4.23,6.33-6.33-.34-.34-.71-.7-1.05-1.04-2.1,2.1-4.22,4.22-6.33,6.33,.35,.35,.71,.71,1.05,1.05Zm7.54-7.48c.2-.19,.43-.39,.62-.61,.25-.31,.21-.75-.06-1.03-.27-.27-.73-.33-1.03-.08-.24,.19-.44,.42-.64,.62,.39,.38,.75,.75,1.12,1.11Zm-8.72,8.7c-.36-.36-.73-.73-1.12-1.12-.16,.19-.44,.37-.51,.61-.09,.33-.02,.7-.02,1.06,.67,.05,1.32,.15,1.65-.54Z"/><path class="cls-1" d="M14.79,10.05v1.54H6.86v-1.54h7.92Z"/></g></g></g></svg>