<?xml version="1.0" encoding="UTF-8"?><svg id="Layer_2" xmlns="http://www.w3.org/2000/svg" viewBox="0 0 40 40"><defs><style>.cls-1{fill:#fff;}.cls-2{fill:none;}</style></defs><g id="Layer_1-2"><g><rect class="cls-2" width="40" height="40"/><g><rect class="cls-2" x=".76" y=".76" width="38.47" height="38.47"/><path class="cls-1" d="M36.45,20.48c-2.16,0-4.31,0-6.47,0h-.36c-.19-.83-.38-1.63-.58-2.47h.38c2.34,0,4.69,0,7.03,0,.93,0,1.32-.41,1.3-1.35-.08-4.21-1.62-7.8-4.67-10.69-2.48-2.34-5.44-3.65-8.84-3.95-.1,0-.2-.04-.31-.06h-1.27c-.61,.3-.78,.81-.77,1.47,.03,2.41,.01,4.81,.01,7.22v.43c-.81-.17-1.59-.33-2.4-.5v-2.72c0-.39,0-.77,0-1.16,0-.7-.45-1.14-1.15-1.13-3.94,.06-7.44,1.33-10.43,3.9-3.01,2.58-4.86,5.84-5.46,9.76-.74,4.87,.46,9.25,3.61,13.04,2.4,2.88,5.48,4.68,9.15,5.44,.62,.13,1.25,.18,1.88,.27,.1,.01,.2,.04,.3,.06h2.11c.77-.12,1.55-.2,2.32-.36,2.35-.48,4.48-1.48,6.39-2.93,.54-.41,.62-1.03,.21-1.58-.68-.9-1.37-1.78-2.06-2.67-.11-.14-.21-.28-.29-.39,.64-.76,1.26-1.5,1.89-2.26,.62,.8,1.26,1.63,1.89,2.45,.36,.46,.71,.93,1.08,1.39,.43,.54,1.04,.62,1.58,.19,3.26-2.6,4.98-5.99,5.14-10.17,.03-.8-.4-1.22-1.2-1.22Zm-10.35,13.14c-4.38,2.98-10.96,3.28-16.03-.49-5.03-3.73-7.02-10.4-4.82-16.26,2.26-6.01,7.8-8.94,12.13-9.11,0,.09,.02,.18,.02,.27,0,.85,0,1.71,0,2.53-5.17,.88-8.68,3.68-9.85,8.83-1.04,4.58,.43,8.51,4.18,11.34,3.98,3,8.26,3,12.64,.65,.56,.73,1.15,1.48,1.73,2.24Zm-7.65-2.72c-5,0-9.07-4.07-9.08-9.1,0-5.02,4.04-9.09,9.06-9.12,5-.03,9.1,4.08,9.1,9.11,0,5.01-4.08,9.1-9.08,9.1Zm9.35-15.26c-.91-1.41-2.1-2.54-3.52-3.44-.12-.07-.25-.24-.25-.36-.01-2.51,0-5.02,0-7.53,0-.04,.01-.09,.02-.13,5.29,.2,11.12,4.86,11.53,11.68-.12,0-.24,.02-.37,.02-2.31,0-4.61,0-6.92,0-.21,0-.36-.04-.49-.24Zm4.17,13.91c-.12-.16-.23-.29-.34-.43-.82-1.07-1.65-2.14-2.48-3.2-.13-.17-.16-.31-.1-.54,.24-.9,.44-1.82,.66-2.78h5.75c-.33,2.74-1.48,5.03-3.49,6.95Zm-12.26-9.4l-2.08-.03c-.18,0-.36-.01-.52-.07-.38-.14-.59-.52-.54-.93,.05-.4,.36-.72,.78-.74,.59-.03,1.17,0,1.76-.02,.5-.02,.92,.11,1.28,.47,.38,.38,.98,.34,1.33-.04,.36-.38,.36-.96-.04-1.33-.26-.25-.56-.49-.88-.64-.43-.2-.91-.3-1.4-.45,0-.2,0-.47,0-.73-.02-.55-.44-.97-.96-.96-.51,0-.92,.42-.93,.96,0,.26,0,.52,0,.77-.04,.02-.06,.04-.08,.04-.1,.01-.21,.03-.31,.04-.9,.11-1.6,.55-2.07,1.33-1.12,1.88,.21,4.16,2.44,4.21,.63,.01,1.26-.02,1.89,.01,.23,.01,.5,.1,.68,.24,.29,.22,.35,.56,.23,.91-.13,.37-.42,.58-.84,.59-.56,.01-1.11,0-1.67,0-.46,.01-.88-.05-1.29-.3-.43-.26-.98-.09-1.24,.32-.27,.43-.17,1,.27,1.28,.32,.2,.68,.36,1.05,.48,.29,.1,.61,.1,.94,.15,0,.26,0,.52,0,.77,.01,.56,.42,.98,.94,.98,.52,0,.93-.42,.95-.98,0-.25,0-.5,0-.78,.16-.02,.28-.04,.4-.05,1.43-.17,2.46-1.36,2.43-2.82-.02-1.41-1.13-2.6-2.54-2.69Z"/></g></g></g></svg>