<?xml version="1.0" encoding="UTF-8"?><svg id="Layer_2" xmlns="http://www.w3.org/2000/svg" viewBox="0 0 40 40"><defs><style>.cls-1{fill:#fff;}</style></defs><g id="Layer_1-2"><path class="cls-1" d="M39.33,24.37c-1.19-.85-2.38-1.69-3.57-2.52-.18-.13-.24-.26-.23-.48,.02-.91,.02-1.82,0-2.73,0-.24,.06-.37,.25-.51,1.16-.81,2.32-1.63,3.48-2.45,.82-.58,.95-1.18,.45-2.04-1.42-2.42-2.84-4.85-4.26-7.27-.51-.86-1.08-1.04-2-.64-1.31,.58-2.61,1.16-3.92,1.75-.22,.1-.36,.08-.57-.05-.8-.48-1.61-.95-2.43-1.39-.2-.11-.27-.21-.3-.44-.13-1.36-.3-2.72-.4-4.08-.06-.71-.33-1.24-.99-1.53H15.16c-.66,.29-.94,.81-.99,1.53-.1,1.36-.27,2.72-.4,4.08-.02,.22-.09,.33-.29,.44-.82,.45-1.63,.91-2.43,1.39-.2,.12-.35,.14-.57,.05-1.29-.58-2.59-1.16-3.88-1.73-.97-.43-1.52-.25-2.05,.65C3.13,8.8,1.72,11.2,.32,13.6c-.12,.2-.21,.41-.32,.62v.55c.16,.43,.47,.73,.84,.98,1.13,.78,2.25,1.59,3.38,2.38,.19,.13,.26,.27,.25,.51-.02,.91-.02,1.82,0,2.73,0,.24-.06,.38-.25,.51-1.13,.79-2.25,1.6-3.38,2.38-.37,.26-.68,.55-.84,.98v.55c.9,1.55,1.79,3.11,2.69,4.66,.63,1.09,1.27,2.18,1.92,3.26,.45,.76,1.04,.96,1.85,.6,1.33-.58,2.66-1.17,3.99-1.77,.22-.1,.38-.1,.6,.04,.79,.48,1.59,.93,2.4,1.37,.21,.11,.3,.23,.32,.47,.14,1.46,.29,2.93,.45,4.39,.08,.74,.58,1.2,1.33,1.21,2.97,0,5.94,0,8.9,0,.77,0,1.26-.47,1.34-1.24,.15-1.46,.31-2.92,.45-4.39,.02-.21,.1-.3,.28-.4,.82-.45,1.64-.91,2.43-1.39,.22-.13,.37-.14,.6-.04,1.31,.6,2.63,1.18,3.95,1.76,.84,.37,1.44,.18,1.91-.62,1.44-2.45,2.88-4.91,4.32-7.37,.45-.77,.31-1.41-.41-1.93Zm-5.64,7.19c-.82-.36-1.62-.72-2.43-1.08-.48-.21-.96-.4-1.42-.64-.66-.34-1.23-.24-1.8,.22-.96,.77-2.02,1.38-3.18,1.8-.72,.26-1.05,.73-1.11,1.48-.1,1.28-.25,2.56-.38,3.84,0,.06-.02,.12-.03,.2h-6.69c-.08-.78-.16-1.56-.24-2.35-.07-.69-.14-1.37-.22-2.06-.06-.48-.32-.83-.77-1-1.34-.53-2.58-1.23-3.71-2.12-.43-.34-.91-.32-1.4-.1-1.2,.54-2.4,1.07-3.6,1.6-.12,.05-.24,.1-.39,.17-1.11-1.89-2.21-3.77-3.33-5.68,.67-.48,1.32-.94,1.98-1.41,.52-.37,1.04-.74,1.56-1.1,.47-.33,.68-.77,.59-1.34-.21-1.35-.21-2.7,0-4.04,.09-.59-.13-1.03-.61-1.37-1.06-.74-2.1-1.49-3.15-2.23-.12-.08-.23-.16-.37-.26,1.11-1.9,2.22-3.78,3.33-5.68,1.27,.56,2.53,1.09,3.76,1.68,.72,.35,1.32,.29,1.94-.22,.93-.76,1.98-1.35,3.11-1.76,.75-.27,1.07-.78,1.13-1.55,.1-1.32,.26-2.64,.39-3.98h6.71c.11,1.05,.21,2.09,.32,3.14,.04,.41,.08,.83,.14,1.24,.06,.5,.33,.85,.79,1.03,1.33,.51,2.56,1.21,3.68,2.1,.43,.34,.91,.34,1.4,.12,1.32-.59,2.63-1.17,4-1.78,1.1,1.88,2.21,3.76,3.33,5.68-.13,.1-.25,.19-.37,.28-1.03,.73-2.05,1.47-3.09,2.18-.53,.36-.77,.82-.67,1.46,.21,1.32,.2,2.64,0,3.97-.09,.61,.13,1.06,.63,1.4,1.16,.81,2.31,1.63,3.51,2.48-1.11,1.89-2.21,3.77-3.33,5.69Zm-7.11-13.67c-.92,.56-1.83,1.13-2.77,1.71,.46,.74,.9,1.45,1.34,2.17,.5-.3,.96-.58,1.48-.89-.21,1.4-.75,2.56-1.64,3.53-1.65,1.79-3.71,2.49-6.12,2.2-.15,.86-.28,1.66-.42,2.46,4.53,.93,9.86-2.27,10.73-7.69,.31,.26,.61,.5,.93,.76,.56-.67,1.09-1.3,1.64-1.97-.84-.7-1.67-1.39-2.5-2.09-1.19-1-1.35-1.01-2.66-.2Zm-5.77-4.55c.1-.84,.2-1.66,.31-2.53-2.01-.22-3.85,.14-5.55,1.1-2.6,1.47-4.18,3.71-4.73,6.69-.33-.27-.62-.51-.93-.76-.56,.67-1.09,1.31-1.64,1.96,1.06,.88,2.07,1.74,3.1,2.57,.45,.36,.96,.37,1.46,.08,.42-.24,.82-.5,1.23-.75,.71-.44,1.41-.87,2.14-1.32-.46-.74-.9-1.45-1.34-2.18-.5,.3-.96,.58-1.48,.89,.23-1.56,.87-2.81,1.93-3.84,1.52-1.48,3.36-2.11,5.51-1.93Zm6.04,.44c-.87-.95-1.85-1.67-3.01-2.2-.36,.78-.71,1.54-1.02,2.24,.76,.55,1.46,1.07,2.21,1.62,.57-.51,1.18-1.07,1.83-1.66Zm-14.01,12.07c.71,.86,1.5,1.55,2.45,2.1,.44-.74,.86-1.46,1.26-2.14-.61-.53-1.2-1.03-1.79-1.54-.63,.52-1.27,1.04-1.92,1.58Z"/></g></svg>