<svg xmlns="http://www.w3.org/2000/svg" viewBox="0 0 40 40"><defs><style>.cls-1{fill:none;}.cls-2{fill:#fff;}</style></defs><g id="Layer_2" data-name="Layer 2"><g id="Layer_1-2" data-name="Layer 1"><rect class="cls-1" width="40" height="40"/><path class="cls-2" d="M32.37,8.28V9.56l.4,0h3.17c.78,0,1,.18,1,.95V28.19c0,.73-.2.93-.91.93H4c-.67,0-.89-.21-.89-.87V10.43c0-.64.22-.85.86-.85H7.63V8.31a2.53,2.53,0,0,0-.3,0H2.62c-.6,0-.81.21-.82.8,0,.35,0,.71,0,1.06s-.24.75-.66.75-.63-.27-.63-.73,0-.82,0-1.22a1.94,1.94,0,0,1,2-2C4.18,7,5.88,7,7.65,7V1.33c0-.65.22-.87.85-.87h5.44c.66,0,.86.22.86.89V2.42h5c.63,0,.85.22.85.86V4.35H25.2V1.24c0-.53.23-.77.76-.78h5.61c.55,0,.78.24.78.8V7h5a2,2,0,0,1,2.11,2.1V32.23a2,2,0,0,1-2.08,2.1H24a6.1,6.1,0,0,0,.84,2.11c.09.17.2.32.3.48.86,1.31.86,1.31,2.42,1.32a1.79,1.79,0,0,1,.4,0,.65.65,0,0,1,0,1.26,1.68,1.68,0,0,1-.45,0H12.22a.65.65,0,1,1,0-1.29H13.6a.48.48,0,0,0,.36-.12A8.73,8.73,0,0,0,16,34.33H2.72A2,2,0,0,1,.5,32.09V16.42a2.26,2.26,0,0,1,0-.45.59.59,0,0,1,.61-.53.6.6,0,0,1,.66.53,2.26,2.26,0,0,1,0,.45V32.05c0,.81.17,1,1,1H37.22c.82,0,1-.17,1-1V9.27c0-.84-.16-1-1-1Zm3.2,19.52V10.91H32.38v11.7h1.15c.53,0,.76.24.77.77v2.24c0,.69-.21.89-.9.89H6.6c-.69,0-.9-.2-.9-.89V23.51c0-.7.2-.9.89-.9h1V10.9H4.43V27.8ZM31,16.08V1.8h-4.5V16.08ZM9,8.3V22.57h4.5V8.3Zm5.85-4.56V16.06h4.5V3.74Zm5.85,8.47V22.57h4.5V12.21ZM33,23.93H7v1.26H33ZM22.65,34.35H17.36a8.81,8.81,0,0,1-1.77,3.85h8.83A8.85,8.85,0,0,1,22.65,34.35ZM9,1.78V4.34h4.48V1.78ZM25.18,5.7h-4.5V8.26h4.5ZM19.33,20h-4.5v2.55h4.5ZM31,20h-4.5v2.55H31ZM13.48,5.7H9V7h4.49Zm7.19,5.15h4.5V9.6h-4.5Zm-1.34,6.57h-4.5v1.26h4.5Zm11.7,0h-4.5v1.26H31Z"/><path class="cls-2" d="M20,31.72c-.4,0-.81,0-1.22,0a.65.65,0,1,1,0-1.3h2.48a.65.65,0,1,1,0,1.3H20Z"/><path class="cls-2" d="M.5,13.18c0-.11,0-.22,0-.33a.64.64,0,0,1,.65-.67.65.65,0,0,1,.64.69c0,.2,0,.41,0,.61a.62.62,0,0,1-.66.66.61.61,0,0,1-.63-.68A2.62,2.62,0,0,1,.5,13.18Z"/></g></g></svg>