<?xml version="1.0" encoding="UTF-8"?><svg id="Layer_2" xmlns="http://www.w3.org/2000/svg" viewBox="0 0 28 28"><defs><style>.cls-1{fill:#0091ff;}.cls-2{stroke:#0091ff;stroke-miterlimit:10;stroke-width:.28px;}.cls-2,.cls-3{fill:none;}</style></defs><g id="Layer_1-2"><g><rect class="cls-3" width="28" height="28"/><g><path class="cls-1" d="M26.65,23.45c-.49,.02-.99,0-1.5,0v-.34c0-2.96,0-5.91,0-8.87,0-.1,0-.19,0-.29-.02-.3-.25-.52-.55-.52-.29,0-.53,.22-.55,.52,0,.09,0,.17,0,.26,0,2.97,0,5.95,0,8.92v.3H3.97c0-.06,0-.1,0-.15,0-4.02,0-8.03,0-12.05,0-.67,.48-1.14,1.16-1.14,1.25,0,2.49,0,3.74,0,.42,0,.68-.22,.67-.56,0-.33-.25-.55-.66-.55-1.25,0-2.51,0-3.76,0-.28,0-.58,.05-.84,.15-.92,.34-1.43,1.14-1.43,2.21,0,3.92,0,7.84,0,11.76v.34c-.53,0-1.02,.01-1.5,0-.34-.01-.59,.1-.73,.42v.31c.17,.3,.42,.39,.76,.38,.87-.02,1.74,0,2.61,0,7.55,0,15.1,0,22.64,0,.34,0,.59-.09,.76-.38v-.31c-.14-.32-.39-.43-.73-.42ZM10.91,11.1c.36,.08,.73,.17,1.09,.26,.39,.09,.78,.19,1.2,.29-.25,.39-.11,.66,.16,.93,1.26,1.25,2.52,2.5,3.77,3.76,.31,.3,.48,.33,.88,.14,.02,.08,.04,.13,.06,.19,.16,.68,.33,1.37,.49,2.05,.06,.25,.17,.44,.43,.5,.25,.06,.45-.03,.6-.22,.23-.28,.48-.55,.68-.86,.95-1.44,1.31-3.07,1.42-4.76,0-.13,.07-.29,.17-.38,1.27-1.17,2.28-2.53,3.06-4.06,.76-1.5,1.26-3.08,1.34-4.78,.03-.52-.18-.77-.7-.73-.51,.03-1.03,.08-1.53,.18-2.88,.6-5.31,2.03-7.32,4.17-.14,.15-.28,.2-.47,.22-.68,.08-1.37,.14-2.04,.29-1.34,.29-2.56,.84-3.57,1.8-.18,.17-.27,.36-.2,.61,.06,.24,.23,.35,.46,.41Zm8.51,6.35c-.15-.63-.29-1.19-.42-1.75-.01-.04,0-.11,.02-.14,.47-.43,.95-.86,1.47-1.34-.17,1.17-.46,2.21-1.08,3.22Zm-1.42-9.35c1.82-1.82,4.02-2.99,6.57-3.45,.17-.03,.34-.04,.59-.07-.12,.56-.19,1.1-.34,1.62-.71,2.48-2.06,4.55-4.01,6.25-1,.87-1.97,1.77-2.95,2.65-.06,.05-.12,.1-.18,.16-1.09-1.09-2.17-2.16-3.26-3.26,.11-.12,.23-.25,.35-.39,1.07-1.18,2.1-2.4,3.22-3.52Zm-2.6,1.16c-.08,.08-.15,.17-.23,.25-.32,.36-.64,.71-.96,1.06-.06,.06-.17,.12-.23,.11-.56-.12-1.11-.26-1.74-.41,1.01-.62,2.05-.91,3.17-1.02Zm-5.11,10.84c.2-.06,.4-.12,.6-.18,1.16-.39,2.33-.75,3.4-1.37,.91-.53,1.32-1.56,1.04-2.58-.28-1-1.17-1.68-2.41-1.69-.65,.02-1.34,.35-1.76,1.09-.73,1.27-1.16,2.67-1.58,4.07-.13,.44,.27,.78,.72,.66Zm1.85-4.21c.23-.39,.74-.57,1.19-.48,.5,.11,.87,.47,.95,.95,.09,.5-.09,.99-.53,1.21-.67,.33-1.37,.6-2.05,.89-.22,.09-.45,.16-.73,.25,.35-1,.65-1.96,1.17-2.82Z"/><path class="cls-2" d="M26.65,23.45c-.49,.02-.99,0-1.5,0v-.34c0-2.96,0-5.91,0-8.87,0-.1,0-.19,0-.29-.02-.3-.25-.52-.55-.52-.29,0-.53,.22-.55,.52,0,.09,0,.17,0,.26,0,2.97,0,5.95,0,8.92v.3H3.97c0-.06,0-.1,0-.15,0-4.02,0-8.03,0-12.05,0-.67,.48-1.14,1.16-1.14,1.25,0,2.49,0,3.74,0,.42,0,.68-.22,.67-.56,0-.33-.25-.55-.66-.55-1.25,0-2.51,0-3.76,0-.28,0-.58,.05-.84,.15-.92,.34-1.43,1.14-1.43,2.21,0,3.92,0,7.84,0,11.76v.34c-.53,0-1.02,.01-1.5,0-.34-.01-.59,.1-.73,.42v.31c.17,.3,.42,.39,.76,.38,.87-.02,1.74,0,2.61,0,7.55,0,15.1,0,22.64,0,.34,0,.59-.09,.76-.38v-.31c-.14-.32-.39-.43-.73-.42ZM10.91,11.1c.36,.08,.73,.17,1.09,.26,.39,.09,.78,.19,1.2,.29-.25,.39-.11,.66,.16,.93,1.26,1.25,2.52,2.5,3.77,3.76,.31,.3,.48,.33,.88,.14,.02,.08,.04,.13,.06,.19,.16,.68,.33,1.37,.49,2.05,.06,.25,.17,.44,.43,.5,.25,.06,.45-.03,.6-.22,.23-.28,.48-.55,.68-.86,.95-1.44,1.31-3.07,1.42-4.76,0-.13,.07-.29,.17-.38,1.27-1.17,2.28-2.53,3.06-4.06,.76-1.5,1.26-3.08,1.34-4.78,.03-.52-.18-.77-.7-.73-.51,.03-1.03,.08-1.53,.18-2.88,.6-5.31,2.03-7.32,4.17-.14,.15-.28,.2-.47,.22-.68,.08-1.37,.14-2.04,.29-1.34,.29-2.56,.84-3.57,1.8-.18,.17-.27,.36-.2,.61,.06,.24,.23,.35,.46,.41Zm8.51,6.35c-.15-.63-.29-1.19-.42-1.75-.01-.04,0-.11,.02-.14,.47-.43,.95-.86,1.47-1.34-.17,1.17-.46,2.21-1.08,3.22Zm-1.42-9.35c1.82-1.82,4.02-2.99,6.57-3.45,.17-.03,.34-.04,.59-.07-.12,.56-.19,1.1-.34,1.62-.71,2.48-2.06,4.55-4.01,6.25-1,.87-1.97,1.77-2.95,2.65-.06,.05-.12,.1-.18,.16-1.09-1.09-2.17-2.16-3.26-3.26,.11-.12,.23-.25,.35-.39,1.07-1.18,2.1-2.4,3.22-3.52Zm-2.6,1.16c-.08,.08-.15,.17-.23,.25-.32,.36-.64,.71-.96,1.06-.06,.06-.17,.12-.23,.11-.56-.12-1.11-.26-1.74-.41,1.01-.62,2.05-.91,3.17-1.02Zm-5.11,10.84c.2-.06,.4-.12,.6-.18,1.16-.39,2.33-.75,3.4-1.37,.91-.53,1.32-1.56,1.04-2.58-.28-1-1.17-1.68-2.41-1.69-.65,.02-1.34,.35-1.76,1.09-.73,1.27-1.16,2.67-1.58,4.07-.13,.44,.27,.78,.72,.66Zm1.85-4.21c.23-.39,.74-.57,1.19-.48,.5,.11,.87,.47,.95,.95,.09,.5-.09,.99-.53,1.21-.67,.33-1.37,.6-2.05,.89-.22,.09-.45,.16-.73,.25,.35-1,.65-1.96,1.17-2.82Z"/></g></g></g></svg>