<?xml version="1.0" encoding="UTF-8"?><svg id="Layer_2" xmlns="http://www.w3.org/2000/svg" viewBox="0 0 28 28"><defs><style>.cls-1{stroke:#0091ff;stroke-miterlimit:10;stroke-width:.5px;}.cls-1,.cls-2{fill:none;}.cls-3{fill:#0091ff;}</style></defs><g id="Layer_1-2"><g><rect class="cls-2" width="28" height="28"/><g><path class="cls-3" d="M13.47,11.08c1.26,0,2.29-1.03,2.29-2.29,0-1.28-1.02-2.31-2.3-2.31-1.28,0-2.3,1.02-2.3,2.31,0,1.26,1.03,2.29,2.3,2.29Zm0-3.68c.78,0,1.38,.61,1.38,1.39,0,.76-.62,1.37-1.39,1.37-.76,0-1.37-.63-1.37-1.39,0-.76,.62-1.37,1.38-1.36Zm-3.2,6.64c-.05,.29,.1,.53,.36,.57,.28,.05,.51-.13,.55-.43,.09-.7,.65-1.29,1.35-1.34,.6-.05,1.2-.03,1.8-.02,.36,0,.68,.17,.95,.42,.31,.29,.45,.65,.51,1.06,.03,.24,.28,.41,.51,.38,.23-.03,.4-.24,.39-.49v-.05c-.1-1.2-1.19-2.21-2.42-2.23-.51,0-1.02,0-1.54,0-.5,0-.97,.14-1.38,.43-.6,.41-.96,.98-1.08,1.7Zm13.24,4.76c-.68,0-1.35,0-2.03,0-.07,0-.14,0-.21,0-.07,0-.14,.02-.22,.02-.09,0-.16-.01-.24-.03-.01,0-.02,0-.04,0-.04,0-.08,0-.13-.01-.09,.02-.19,.03-.3,.03-.06,0-.11-.01-.16-.02-.02,0-.03,0-.05,0-.68,0-1.35,0-2.03,0-.57,0-.97,.24-1.22,.73-.07,.15-.21,.25-.38,.25-1.07,0-2.14,0-3.21,0-.01,0-.03-.01-.07-.03,0-.6-.01-1.21,0-1.82,0-.22,.19-.4,.42-.4,.4,0,.81,0,1.21,0-.02-.1-.03-.19-.03-.3v-.02h0v-.08s.01-.03,.01-.05c0-.05,.01-.09,.02-.13v-.02s0-.05,.01-.08c0-.03,0-.05,0-.08-.4,0-.8,0-1.19,0-.67,0-1.21,.55-1.21,1.22,0,.52,0,1.03,0,1.55,0,.08,0,.16-.01,.26-.62,0-1.21,0-1.8,0-.07,0-.15-.08-.19-.15-.23-.43-.58-.69-1.06-.71-.44-.02-.88-.03-1.32,0-.65,.04-1.11,.52-1.17,1.16-.05,.6,.35,1.15,.97,1.31,.15,.04,.31,.05,.48,.07,0,.37,0,.73,0,1.09,.01,.64,.55,1.14,1.18,1.16,.44,0,.88,0,1.33,0,.29,0,.47-.16,.47-.39,0-.23-.18-.37-.48-.37-.42,0-.85,0-1.27,0-.28,0-.45-.15-.46-.4-.01-.36,0-.72,0-1.09,.04-.01,.07-.02,.09-.02,.58,0,1-.25,1.28-.77,.03-.06,.16-.11,.24-.11,1.97,0,3.93,0,5.9,0,.14,0,.26,.08,.34,.19,.27,.37,.62,.57,1.08,.58,.29,0,.58,0,.86,0h1.5c0,.11,.02,.19,.01,.27-.07,1.06-.03,2.12,0,3.18,.03,.9-.53,1.48-1.42,1.48-3.89,0-7.77,0-11.66,0-.12,0-.24,0-.35-.02-.68-.14-1.08-.66-1.08-1.42,0-7.19,0-14.39,0-21.58,0-.06,0-.12,0-.18,.03-.61,.44-1.16,1.05-1.23,.46-.05,.94-.03,1.41-.02,.19,0,.36,.14,.4,.33,.04,.2,.08,.41,.13,.61,.19,.81,.94,1.36,1.77,1.37,1.68,.01,3.35,.01,5.03,0,.8,0,1.53-.54,1.72-1.32,.07-.28,.11-.57,.17-.86,.01-.06,.08-.15,.12-.15,.56,0,1.12-.04,1.67,.04,.66,.09,1.04,.65,1.04,1.39,0,3.59,0,7.18,0,10.76,0,.1,0,.2,0,.3,.02,.21,.15,.32,.35,.33,.19,.01,.33-.09,.37-.28,.02-.1,.03-.2,.03-.3,0-1.57,0-3.13,0-4.7,0-2.05,0-4.1,0-6.14,0-1.21-.98-2.18-2.19-2.18-3.89,0-7.77,0-11.65,0-.23,0-.48,.03-.7,.09-.94,.27-1.49,1.07-1.49,2.12,0,7.19,0,14.39,0,21.58,0,.08,0,.15,0,.23,.07,.84,.48,1.44,1.25,1.8,.17,.08,.35,.12,.52,.18h12.49s.03-.04,.05-.03c.92,.3,1.71-.86,1.71-1.82,0-1.18,0-2.36,0-3.54v-.3h.27c.68,0,1.35,0,2.03,0,.79,0,1.36-.54,1.36-1.27,0-.72-.57-1.25-1.35-1.25Zm-14.19,1.86c-.19,0-.39,0-.58,0-.19,0-.37,0-.56,0-.3-.01-.5-.22-.5-.5,0-.27,.19-.48,.48-.49,.4-.02,.79-.02,1.19,0,.28,.01,.48,.23,.48,.49,0,.27-.21,.48-.51,.5ZM16.85,1.78c-.07,.34-.11,.66-.22,.97-.12,.37-.5,.59-.88,.59-1.69,0-3.39,0-5.08,0-.41,0-.81-.23-.96-.61-.11-.3-.15-.62-.22-.95h7.36Zm6.69,18.77c-.91,0-1.81,0-2.72,0-.91,0-1.81,0-2.72,0-.3,0-.5-.14-.56-.38-.07-.29,.1-.55,.4-.6,.09-.02,.19-.02,.28-.02,1.73,0,3.45,0,5.18,0,.05,0,.1,0,.15,0,.32,.02,.53,.22,.54,.49,0,.29-.22,.5-.55,.5Zm-8.29,4.02c.53,0,1.07,0,1.6,0,.72,0,1.27-.54,1.28-1.24,0-.71-.52-1.27-1.26-1.27-1.07-.01-2.13-.01-3.2,0-.73,0-1.29,.56-1.28,1.26,0,.7,.56,1.24,1.29,1.25,.52,0,1.05,0,1.57,0Zm-2.1-1.26c0-.32,.26-.53,.66-.49,.97,.11,1.94,.05,2.92,0,.4-.02,.64,.18,.63,.5,0,.3-.22,.48-.56,.48-.52,0-1.03,0-1.55,0s-1.03,0-1.55,0c-.33,0-.56-.21-.56-.49ZM18.4,2.98c0,.21,.15,.38,.36,.38,.2,0,.38-.16,.38-.36,0-.2-.16-.37-.36-.38-.21,0-.38,.15-.38,.36Z"/><path class="cls-1" d="M13.47,11.08c1.26,0,2.29-1.03,2.29-2.29,0-1.28-1.02-2.31-2.3-2.31-1.28,0-2.3,1.02-2.3,2.31,0,1.26,1.03,2.29,2.3,2.29Zm0-3.68c.78,0,1.38,.61,1.38,1.39,0,.76-.62,1.37-1.39,1.37-.76,0-1.37-.63-1.37-1.39,0-.76,.62-1.37,1.38-1.36Zm-3.2,6.64c-.05,.29,.1,.53,.36,.57,.28,.05,.51-.13,.55-.43,.09-.7,.65-1.29,1.35-1.34,.6-.05,1.2-.03,1.8-.02,.36,0,.68,.17,.95,.42,.31,.29,.45,.65,.51,1.06,.03,.24,.28,.41,.51,.38,.23-.03,.4-.24,.39-.49v-.05c-.1-1.2-1.19-2.21-2.42-2.23-.51,0-1.02,0-1.54,0-.5,0-.97,.14-1.38,.43-.6,.41-.96,.98-1.08,1.7Zm13.24,4.76c-.68,0-1.35,0-2.03,0-.07,0-.14,0-.21,0-.07,0-.14,.02-.22,.02-.09,0-.16-.01-.24-.03-.01,0-.02,0-.04,0-.04,0-.08,0-.13-.01-.09,.02-.19,.03-.3,.03-.06,0-.11-.01-.16-.02-.02,0-.03,0-.05,0-.68,0-1.35,0-2.03,0-.57,0-.97,.24-1.22,.73-.07,.15-.21,.25-.38,.25-1.07,0-2.14,0-3.21,0-.01,0-.03-.01-.07-.03,0-.6-.01-1.21,0-1.82,0-.22,.19-.4,.42-.4,.4,0,.81,0,1.21,0-.02-.1-.03-.19-.03-.3v-.02h0v-.08s.01-.03,.01-.05c0-.05,.01-.09,.02-.13v-.02s0-.05,.01-.08c0-.03,0-.05,0-.08-.4,0-.8,0-1.19,0-.67,0-1.21,.55-1.21,1.22,0,.52,0,1.03,0,1.55,0,.08,0,.16-.01,.26-.62,0-1.21,0-1.8,0-.07,0-.15-.08-.19-.15-.23-.43-.58-.69-1.06-.71-.44-.02-.88-.03-1.32,0-.65,.04-1.11,.52-1.17,1.16-.05,.6,.35,1.15,.97,1.31,.15,.04,.31,.05,.48,.07,0,.37,0,.73,0,1.09,.01,.64,.55,1.14,1.18,1.16,.44,0,.88,0,1.33,0,.29,0,.47-.16,.47-.39,0-.23-.18-.37-.48-.37-.42,0-.85,0-1.27,0-.28,0-.45-.15-.46-.4-.01-.36,0-.72,0-1.09,.04-.01,.07-.02,.09-.02,.58,0,1-.25,1.28-.77,.03-.06,.16-.11,.24-.11,1.97,0,3.93,0,5.9,0,.14,0,.26,.08,.34,.19,.27,.37,.62,.57,1.08,.58,.29,0,.58,0,.86,0h1.5c0,.11,.02,.19,.01,.27-.07,1.06-.03,2.12,0,3.18,.03,.9-.53,1.48-1.42,1.48-3.89,0-7.77,0-11.66,0-.12,0-.24,0-.35-.02-.68-.14-1.08-.66-1.08-1.42,0-7.19,0-14.39,0-21.58,0-.06,0-.12,0-.18,.03-.61,.44-1.16,1.05-1.23,.46-.05,.94-.03,1.41-.02,.19,0,.36,.14,.4,.33,.04,.2,.08,.41,.13,.61,.19,.81,.94,1.36,1.77,1.37,1.68,.01,3.35,.01,5.03,0,.8,0,1.53-.54,1.72-1.32,.07-.28,.11-.57,.17-.86,.01-.06,.08-.15,.12-.15,.56,0,1.12-.04,1.67,.04,.66,.09,1.04,.65,1.04,1.39,0,3.59,0,7.18,0,10.76,0,.1,0,.2,0,.3,.02,.21,.15,.32,.35,.33,.19,.01,.33-.09,.37-.28,.02-.1,.03-.2,.03-.3,0-1.57,0-3.13,0-4.7,0-2.05,0-4.1,0-6.14,0-1.21-.98-2.18-2.19-2.18-3.89,0-7.77,0-11.65,0-.23,0-.48,.03-.7,.09-.94,.27-1.49,1.07-1.49,2.12,0,7.19,0,14.39,0,21.58,0,.08,0,.15,0,.23,.07,.84,.48,1.44,1.25,1.8,.17,.08,.35,.12,.52,.18h12.49s.03-.04,.05-.03c.92,.3,1.71-.86,1.71-1.82,0-1.18,0-2.36,0-3.54v-.3h.27c.68,0,1.35,0,2.03,0,.79,0,1.36-.54,1.36-1.27,0-.72-.57-1.25-1.35-1.25Zm-14.19,1.86c-.19,0-.39,0-.58,0-.19,0-.37,0-.56,0-.3-.01-.5-.22-.5-.5,0-.27,.19-.48,.48-.49,.4-.02,.79-.02,1.19,0,.28,.01,.48,.23,.48,.49,0,.27-.21,.48-.51,.5ZM16.85,1.78c-.07,.34-.11,.66-.22,.97-.12,.37-.5,.59-.88,.59-1.69,0-3.39,0-5.08,0-.41,0-.81-.23-.96-.61-.11-.3-.15-.62-.22-.95h7.36Zm6.69,18.77c-.91,0-1.81,0-2.72,0-.91,0-1.81,0-2.72,0-.3,0-.5-.14-.56-.38-.07-.29,.1-.55,.4-.6,.09-.02,.19-.02,.28-.02,1.73,0,3.45,0,5.18,0,.05,0,.1,0,.15,0,.32,.02,.53,.22,.54,.49,0,.29-.22,.5-.55,.5Zm-8.29,4.02c.53,0,1.07,0,1.6,0,.72,0,1.27-.54,1.28-1.24,0-.71-.52-1.27-1.26-1.27-1.07-.01-2.13-.01-3.2,0-.73,0-1.29,.56-1.28,1.26,0,.7,.56,1.24,1.29,1.25,.52,0,1.05,0,1.57,0Zm-2.1-1.26c0-.32,.26-.53,.66-.49,.97,.11,1.94,.05,2.92,0,.4-.02,.64,.18,.63,.5,0,.3-.22,.48-.56,.48-.52,0-1.03,0-1.55,0s-1.03,0-1.55,0c-.33,0-.56-.21-.56-.49ZM18.4,2.98c0,.21,.15,.38,.36,.38,.2,0,.38-.16,.38-.36,0-.2-.16-.37-.36-.38-.21,0-.38,.15-.38,.36Z"/></g></g></g></svg>