<?xml version="1.0" encoding="UTF-8"?><svg id="Layer_2" xmlns="http://www.w3.org/2000/svg" viewBox="0 0 28 28"><defs><style>.cls-1{stroke:#0091ff;stroke-miterlimit:10;stroke-width:.21px;}.cls-1,.cls-2{fill:none;}.cls-3{fill:#0091ff;}</style></defs><g id="Layer_1-2"><g><rect class="cls-2" width="28" height="28"/><g><path class="cls-3" d="M3.87,15.04c0,.34,.14,.48,.48,.48,.38,0,.76,0,1.14,0,.38,0,.76,0,1.14,0,.34,0,.48-.15,.49-.48,0-.66,0-1.32,0-1.98,0-.32-.14-.47-.47-.47-.77,0-1.54,0-2.3,0-.33,0-.47,.14-.47,.47,0,.66,0,1.32,0,1.98Zm.81-1.64h1.63v1.32h-1.63v-1.32Zm-.37-5.57c.79,0,1.57,0,2.36,0,.31,0,.45-.14,.45-.46,0-.67,0-1.34,0-2.01,0-.31-.14-.45-.45-.45-.4,0-.79,0-1.19,0s-.76,0-1.14,0c-.32,0-.46,.13-.46,.44,0,.68,0,1.36,0,2.03,0,.3,.14,.44,.44,.44Zm.38-2.11h1.63v1.3h-1.63v-1.3Zm-.82,5.51c0,.31,.15,.45,.46,.45,.78,0,1.55,0,2.33,0,.31,0,.45-.15,.46-.46,0-.67,0-1.34,0-2.01,0-.31-.14-.45-.45-.46-.39,0-.78,0-1.16,0s-.79,0-1.19,0c-.3,0-.44,.14-.44,.44,0,.68,0,1.36,0,2.03Zm.81-1.66h1.63v1.31h-1.63v-1.31Zm12.72,3.81c.26,0,.41-.16,.42-.38,0-.23-.15-.38-.4-.4-.05,0-.11,0-.16,0-1.71,0-3.42,0-5.13,0-.1,0-.2,0-.29,.03-.29,.1-.37,.47-.12,.65,.1,.07,.24,.1,.37,.1,.86,0,1.73,0,2.59,0,.51,0,1.02,0,1.53,0,.4,0,.79,0,1.19,0Zm6.72-1.5c-.02-.2-.14-.31-.33-.36-.03,0-.07-.02-.1-.03-1.42-.43-2.85-.85-4.27-1.28-.09-.03-.19-.05-.24-.06-.36,0-.5,.26-.39,.64,.43,1.45,.87,2.89,1.3,4.34,.06,.21,.16,.39,.4,.4,.24,.01,.36-.15,.44-.35,.23-.59,.47-1.17,.7-1.76,.07-.18,.17-.3,.36-.37,.62-.23,1.23-.48,1.84-.73,.19-.08,.31-.2,.29-.42Zm-2.72,.55c-.15,.07-.29,.22-.37,.37-.17,.34-.29,.69-.43,1.04h-.06c-.26-.89-.53-1.77-.81-2.71,.95,.28,1.84,.55,2.8,.84-.42,.17-.78,.29-1.13,.46Zm-4.09-3.67c-.86,0-1.73,0-2.59,0s-1.75,0-2.62,0c-.11,0-.27,0-.32,.06-.1,.11-.19,.29-.18,.42,.03,.23,.24,.31,.46,.31,1.75,0,3.51,0,5.26,0,.32,0,.49-.14,.5-.39,0-.26-.17-.4-.51-.4Zm0-3.84c-.87,0-1.75,0-2.62,0-.89,0-1.78,0-2.67,0-.32,0-.52,.25-.42,.51,.08,.23,.27,.28,.49,.28,1.74,0,3.48,0,5.21,0,.34,0,.52-.14,.52-.39,0-.26-.17-.4-.51-.4ZM27.19,1.52c-.26-.34-.63-.49-1.06-.52-.1,0-.19,0-.29,0-7.87,0-15.74,0-23.61,0-1.05,0-1.4,.24-1.79,1.21V19.81s.03,.04,.04,.07c.25,.77,.74,1.14,1.55,1.14,.71,0,1.41,0,2.12,0,.31,0,.49-.15,.5-.39,0-.26-.17-.4-.5-.4-.67,0-1.34,0-2.01,0-.66,0-.89-.23-.89-.88V2.7c0-.68,.22-.9,.9-.9H25.86c.68,0,.9,.22,.9,.9V19.31c0,.7-.22,.92-.91,.92-6.49,0-12.97,0-19.46,0-.11,0-.23,0-.34,.01-.19,.03-.3,.14-.32,.33-.02,.2,.06,.35,.25,.41,.1,.03,.21,.03,.31,.04,1.25,0,2.51,0,3.76,0h.3c0,.07,0,.11,0,.15-.18,1.24-.69,2.32-1.56,3.22-.06,.06-.19,.09-.28,.1-.36,.01-.72,0-1.09,0-.49,0-.76,.29-.77,.78,0,.26,0,.53,0,.79,0,.67,.25,.93,.92,.93,3.16,0,6.32,0,9.48,0,.1,0,.2,0,.29-.02,.2-.05,.32-.2,.3-.41-.02-.21-.14-.34-.36-.36-.08,0-.16,0-.24,0H7.46v-.9h13.09v.9c-.47,0-.93,0-1.39,0-.28,0-.44,.14-.45,.38,0,.24,.16,.41,.44,.41,.49,0,.97,0,1.46,0,.44,0,.73-.3,.74-.73,.01-.33,0-.67,0-1-.01-.47-.29-.75-.77-.76-.35,0-.71,.01-1.06,0-.13,0-.29-.07-.38-.17-.61-.64-1.03-1.38-1.28-2.22-.1-.34-.17-.69-.26-1.08h.36c2.67,0,5.35,0,8.02,0,.77,0,1.29-.39,1.51-1.11,.01-.03,.03-.06,.05-.09V2.21c-.12-.23-.21-.49-.36-.69Zm-9.05,22.87s.02,.05,.04,.09H9.8c.04-.07,.06-.11,.09-.15,.69-.93,1.11-1.98,1.25-3.13,.02-.15,.09-.18,.22-.18,1.76,0,3.51,0,5.27,0,.07,0,.2,.09,.21,.14,.15,1.19,.59,2.26,1.3,3.22Zm4.75-6.68c.79,0,1.57,0,2.36,0,.48,0,.59-.11,.59-.59,0-4.6,0-9.19,0-13.79,0-.5-.11-.61-.6-.61-7.5,0-15,0-22.5,0-.48,0-.59,.12-.59,.6,0,4.6,0,9.19,0,13.79,0,.5,.1,.61,.6,.61,6,0,12,0,18,0,.08,0,.16,0,.24,0,.21-.03,.34-.16,.35-.37,.01-.21-.1-.35-.31-.4-.1-.02-.21-.02-.32-.02-5.81,0-11.61,0-17.42,0h-.34V3.52H25.03v13.39c-.72,0-1.43,0-2.13,0-.31,0-.49,.15-.49,.4,0,.25,.17,.39,.49,.39Zm-13.93-6.03c2.13,0,4.27,0,6.4,0,.33,0,.52-.15,.52-.4,0-.25-.19-.39-.52-.39-1.06,0-2.12,0-3.17,0s-2.15,0-3.23,0c-.32,0-.49,.14-.5,.38,0,.26,.17,.41,.5,.41Zm-.25,3.81c.1,.03,.21,.04,.31,.04,1.05,0,2.1,0,3.15,0s2.08,0,3.12,0c.11,0,.26,.01,.33-.05,.11-.1,.23-.25,.24-.39,.02-.19-.12-.32-.33-.35-.06,0-.12,0-.18,0-2.12,0-4.25,0-6.37,0-.06,0-.12,0-.18,0-.19,.03-.3,.14-.33,.33-.03,.2,.05,.35,.24,.42Zm-.23-7.93c.07,.22,.24,.28,.45,.28,1.08,0,2.15,0,3.23,0,1.09,0,2.19,0,3.28,0,.27,0,.44-.16,.44-.39,0-.22-.17-.38-.44-.4-.06,0-.12,0-.19,0-2.06,0-4.13,0-6.19,0-.1,0-.2,0-.29,.01-.24,.05-.37,.27-.3,.5Zm.36,5.82c.21,0,.42,0,.63,0h0c.2,0,.4,0,.61,0,.23-.01,.39-.16,.4-.37,0-.2-.14-.4-.37-.41-.43-.02-.86-.02-1.29,0-.23,0-.37,.2-.35,.41,.02,.22,.15,.35,.37,.36Zm.07-8.47s-.04,0-.05,0c-.22,.01-.36,.13-.39,.36-.02,.21,.12,.41,.34,.42,.44,.02,.88,.02,1.32,0,.22-.01,.34-.17,.35-.39,0-.21-.16-.37-.39-.39-.2,0-.4,0-.61,0h-.58Zm-.02,3.85c-.26,0-.41,.15-.42,.38,0,.23,.14,.39,.39,.41,.2,.01,.4,0,.61,0h0c.21,0,.42,.01,.63,0,.23-.02,.37-.16,.38-.39,.01-.21-.17-.38-.41-.39-.4,0-.79,0-1.19,0Z"/><path class="cls-1" d="M3.87,15.04c0,.34,.14,.48,.48,.48,.38,0,.76,0,1.14,0,.38,0,.76,0,1.14,0,.34,0,.48-.15,.49-.48,0-.66,0-1.32,0-1.98,0-.32-.14-.47-.47-.47-.77,0-1.54,0-2.3,0-.33,0-.47,.14-.47,.47,0,.66,0,1.32,0,1.98Zm.81-1.64h1.63v1.32h-1.63v-1.32Zm-.37-5.57c.79,0,1.57,0,2.36,0,.31,0,.45-.14,.45-.46,0-.67,0-1.34,0-2.01,0-.31-.14-.45-.45-.45-.4,0-.79,0-1.19,0s-.76,0-1.14,0c-.32,0-.46,.13-.46,.44,0,.68,0,1.36,0,2.03,0,.3,.14,.44,.44,.44Zm.38-2.11h1.63v1.3h-1.63v-1.3Zm-.82,5.51c0,.31,.15,.45,.46,.45,.78,0,1.55,0,2.33,0,.31,0,.45-.15,.46-.46,0-.67,0-1.34,0-2.01,0-.31-.14-.45-.45-.46-.39,0-.78,0-1.16,0s-.79,0-1.19,0c-.3,0-.44,.14-.44,.44,0,.68,0,1.36,0,2.03Zm.81-1.66h1.63v1.31h-1.63v-1.31Zm12.72,3.81c.26,0,.41-.16,.42-.38,0-.23-.15-.38-.4-.4-.05,0-.11,0-.16,0-1.71,0-3.42,0-5.13,0-.1,0-.2,0-.29,.03-.29,.1-.37,.47-.12,.65,.1,.07,.24,.1,.37,.1,.86,0,1.73,0,2.59,0,.51,0,1.02,0,1.53,0,.4,0,.79,0,1.19,0Zm6.72-1.5c-.02-.2-.14-.31-.33-.36-.03,0-.07-.02-.1-.03-1.42-.43-2.85-.85-4.27-1.28-.09-.03-.19-.05-.24-.06-.36,0-.5,.26-.39,.64,.43,1.45,.87,2.89,1.3,4.34,.06,.21,.16,.39,.4,.4,.24,.01,.36-.15,.44-.35,.23-.59,.47-1.17,.7-1.76,.07-.18,.17-.3,.36-.37,.62-.23,1.23-.48,1.84-.73,.19-.08,.31-.2,.29-.42Zm-2.72,.55c-.15,.07-.29,.22-.37,.37-.17,.34-.29,.69-.43,1.04h-.06c-.26-.89-.53-1.77-.81-2.71,.95,.28,1.84,.55,2.8,.84-.42,.17-.78,.29-1.13,.46Zm-4.09-3.67c-.86,0-1.73,0-2.59,0s-1.75,0-2.62,0c-.11,0-.27,0-.32,.06-.1,.11-.19,.29-.18,.42,.03,.23,.24,.31,.46,.31,1.75,0,3.51,0,5.26,0,.32,0,.49-.14,.5-.39,0-.26-.17-.4-.51-.4Zm0-3.84c-.87,0-1.75,0-2.62,0-.89,0-1.78,0-2.67,0-.32,0-.52,.25-.42,.51,.08,.23,.27,.28,.49,.28,1.74,0,3.48,0,5.21,0,.34,0,.52-.14,.52-.39,0-.26-.17-.4-.51-.4ZM27.19,1.52c-.26-.34-.63-.49-1.06-.52-.1,0-.19,0-.29,0-7.87,0-15.74,0-23.61,0-1.05,0-1.4,.24-1.79,1.21V19.81s.03,.04,.04,.07c.25,.77,.74,1.14,1.55,1.14,.71,0,1.41,0,2.12,0,.31,0,.49-.15,.5-.39,0-.26-.17-.4-.5-.4-.67,0-1.34,0-2.01,0-.66,0-.89-.23-.89-.88V2.7c0-.68,.22-.9,.9-.9H25.86c.68,0,.9,.22,.9,.9V19.31c0,.7-.22,.92-.91,.92-6.49,0-12.97,0-19.46,0-.11,0-.23,0-.34,.01-.19,.03-.3,.14-.32,.33-.02,.2,.06,.35,.25,.41,.1,.03,.21,.03,.31,.04,1.25,0,2.51,0,3.76,0h.3c0,.07,0,.11,0,.15-.18,1.24-.69,2.32-1.56,3.22-.06,.06-.19,.09-.28,.1-.36,.01-.72,0-1.09,0-.49,0-.76,.29-.77,.78,0,.26,0,.53,0,.79,0,.67,.25,.93,.92,.93,3.16,0,6.32,0,9.48,0,.1,0,.2,0,.29-.02,.2-.05,.32-.2,.3-.41-.02-.21-.14-.34-.36-.36-.08,0-.16,0-.24,0H7.46v-.9h13.09v.9c-.47,0-.93,0-1.39,0-.28,0-.44,.14-.45,.38,0,.24,.16,.41,.44,.41,.49,0,.97,0,1.46,0,.44,0,.73-.3,.74-.73,.01-.33,0-.67,0-1-.01-.47-.29-.75-.77-.76-.35,0-.71,.01-1.06,0-.13,0-.29-.07-.38-.17-.61-.64-1.03-1.38-1.28-2.22-.1-.34-.17-.69-.26-1.08h.36c2.67,0,5.35,0,8.02,0,.77,0,1.29-.39,1.51-1.11,.01-.03,.03-.06,.05-.09V2.21c-.12-.23-.21-.49-.36-.69Zm-9.05,22.87s.02,.05,.04,.09H9.8c.04-.07,.06-.11,.09-.15,.69-.93,1.11-1.98,1.25-3.13,.02-.15,.09-.18,.22-.18,1.76,0,3.51,0,5.27,0,.07,0,.2,.09,.21,.14,.15,1.19,.59,2.26,1.3,3.22Zm4.75-6.68c.79,0,1.57,0,2.36,0,.48,0,.59-.11,.59-.59,0-4.6,0-9.19,0-13.79,0-.5-.11-.61-.6-.61-7.5,0-15,0-22.5,0-.48,0-.59,.12-.59,.6,0,4.6,0,9.19,0,13.79,0,.5,.1,.61,.6,.61,6,0,12,0,18,0,.08,0,.16,0,.24,0,.21-.03,.34-.16,.35-.37,.01-.21-.1-.35-.31-.4-.1-.02-.21-.02-.32-.02-5.81,0-11.61,0-17.42,0h-.34V3.52H25.03v13.39c-.72,0-1.43,0-2.13,0-.31,0-.49,.15-.49,.4,0,.25,.17,.39,.49,.39Zm-13.93-6.03c2.13,0,4.27,0,6.4,0,.33,0,.52-.15,.52-.4,0-.25-.19-.39-.52-.39-1.06,0-2.12,0-3.17,0s-2.15,0-3.23,0c-.32,0-.49,.14-.5,.38,0,.26,.17,.41,.5,.41Zm-.25,3.81c.1,.03,.21,.04,.31,.04,1.05,0,2.1,0,3.15,0s2.08,0,3.12,0c.11,0,.26,.01,.33-.05,.11-.1,.23-.25,.24-.39,.02-.19-.12-.32-.33-.35-.06,0-.12,0-.18,0-2.12,0-4.25,0-6.37,0-.06,0-.12,0-.18,0-.19,.03-.3,.14-.33,.33-.03,.2,.05,.35,.24,.42Zm-.23-7.93c.07,.22,.24,.28,.45,.28,1.08,0,2.15,0,3.23,0,1.09,0,2.19,0,3.28,0,.27,0,.44-.16,.44-.39,0-.22-.17-.38-.44-.4-.06,0-.12,0-.19,0-2.06,0-4.13,0-6.19,0-.1,0-.2,0-.29,.01-.24,.05-.37,.27-.3,.5Zm.36,5.82c.21,0,.42,0,.63,0h0c.2,0,.4,0,.61,0,.23-.01,.39-.16,.4-.37,0-.2-.14-.4-.37-.41-.43-.02-.86-.02-1.29,0-.23,0-.37,.2-.35,.41,.02,.22,.15,.35,.37,.36Zm.07-8.47s-.04,0-.05,0c-.22,.01-.36,.13-.39,.36-.02,.21,.12,.41,.34,.42,.44,.02,.88,.02,1.32,0,.22-.01,.34-.17,.35-.39,0-.21-.16-.37-.39-.39-.2,0-.4,0-.61,0h-.58Zm-.02,3.85c-.26,0-.41,.15-.42,.38,0,.23,.14,.39,.39,.41,.2,.01,.4,0,.61,0h0c.21,0,.42,.01,.63,0,.23-.02,.37-.16,.38-.39,.01-.21-.17-.38-.41-.39-.4,0-.79,0-1.19,0Z"/></g></g></g></svg>