<svg xmlns="http://www.w3.org/2000/svg" xmlns:xlink="http://www.w3.org/1999/xlink" width="693.492" height="561.316" viewBox="0 0 693.492 561.316">
  <defs>
    <filter id="Path_23684" x="127.811" y="110.379" width="108.383" height="138.306" filterUnits="userSpaceOnUse">
      <feOffset dy="3" input="SourceAlpha"/>
      <feGaussianBlur stdDeviation="7.5" result="blur"/>
      <feFlood flood-color="#0447a2" flood-opacity="0.161"/>
      <feComposite operator="in" in2="blur"/>
      <feComposite in="SourceGraphic"/>
    </filter>
    <clipPath id="clip-path">
      <path id="Path_23688" data-name="Path 23688" d="M433.33,294.678a28.261,28.261,0,0,1,6.257-15.929c12.967-14.085,29.258-4.081,31.072-10.639.846-3.023-4.473-8.493-10.4-10.246-15.113-4.473-15.113,6.559-19.284,3.234-5.048-4.05,15.9-24.392,6.952-42.527-4.564-9.34-17.742-15.6-24.573-12.09-5.5,3.023-6.468,12.09-6.619,13.873-.756,9.068,7.315,19.435,3.536,25.057-7.1,10.549-5.622-15.687-24.6-11.153-9.884,2.388-10.821,9.068-9.672,11.4,1.934,4.111,8.826.272,17.833,5.894,6.287,3.929,9.823,11.123,8.342,13.088s-9.612-4.594-17.349-1.33c-4.534,1.874-7.707,7.133-6.77,9.37.7,1.572,3.264,1.179,7.889,2.055,2.6.484,14.78,2.781,17.5,9.763a12.09,12.09,0,0,1-1.421,10.1Z" transform="translate(-385.613 -205.493)" fill="none"/>
    </clipPath>
  </defs>
  <g id="Layer_2" data-name="Layer 2" transform="translate(-1484.161 -455.508)">
    <g id="Objects" transform="translate(1484.161 455.508)">
      <ellipse id="Ellipse_133" data-name="Ellipse 133" cx="106.001" cy="6.045" rx="106.001" ry="6.045" transform="translate(434.974 382.261)" fill="#afccd3"/>
      <path id="Path_23645" data-name="Path 23645" d="M563.071,106.54V381.591a16.11,16.11,0,0,1-16.11,16.11H367.18a16.11,16.11,0,0,1-16.11-16.11V106.54a16.11,16.11,0,0,1,16.11-16.11H546.961a16.11,16.11,0,0,1,16.11,16.11Z" transform="translate(83.904 -9.275)" fill="#152235"/>
      <rect id="Rectangle_1582" data-name="Rectangle 1582" width="179.75" height="274.93" rx="1.55" transform="translate(451.084 97.265)" fill="#f7fbfe"/>
      <rect id="Rectangle_1583" data-name="Rectangle 1583" width="151.55" height="71.607" transform="translate(465.199 111.438)" fill="#e0f2ff"/>
      <rect id="Rectangle_1584" data-name="Rectangle 1584" width="71.179" height="47.847" transform="translate(468.412 240.156)" fill="#e0f2ff"/>
      <rect id="Rectangle_1585" data-name="Rectangle 1585" width="71.179" height="47.847" transform="translate(545.571 240.156)" fill="#e0f2ff"/>
      <rect id="Rectangle_1587" data-name="Rectangle 1587" width="71.179" height="47.847" transform="translate(468.412 188.591)" fill="#0091ff"/>
      <rect id="Rectangle_1588" data-name="Rectangle 1588" width="71.179" height="47.847" transform="translate(545.571 188.591)" fill="#e0f2ff"/>
      <path id="Path_23646" data-name="Path 23646" d="M415,160a36.27,36.27,0,0,0-52.955,16.2L395.3,190.557Z" transform="translate(106.111 119.767)" fill="#ffe0c6"/>
      <path id="Path_23647" data-name="Path 23647" d="M431.727,162.39l-34.366,11.667-36.271-1.209v1.209a36.271,36.271,0,0,0,72.541,0,35.518,35.518,0,0,0-1.9-11.667Z" transform="translate(104.17 136.267)" fill="#e6dfff"/>
      <path id="Path_23648" data-name="Path 23648" d="M407.456,175.031a36.27,36.27,0,0,0-14.78-18.891L373.09,186.7Z" transform="translate(128.44 123.626)" fill="#ff8724"/>
      <path id="Path_23649" data-name="Path 23649" d="M364.073,161.5a36,36,0,0,0-3.023,13.148l36.27,1.209Z" transform="translate(104.089 134.467)" fill="#dfefff"/>
      <rect id="Rectangle_1590" data-name="Rectangle 1590" width="64.169" height="11.062" transform="translate(552.581 335.563)" fill="#e0f2ff"/>
      <rect id="Rectangle_1591" data-name="Rectangle 1591" width="64.169" height="11.062" transform="translate(552.581 317.095)" fill="#e0f2ff"/>
      <g id="Group_953" data-name="Group 953" transform="translate(583.683 81.155)" opacity="0.3">
        <path id="Path_23652" data-name="Path 23652" d="M463.562,106.54v58.879H400.27V90.43h47.182a16.11,16.11,0,0,1,16.11,16.11Z" transform="translate(-400.27 -90.43)" fill="#4c4c4c"/>
      </g>
      <path id="Path_23654" data-name="Path 23654" d="M207.16,225.375c0,3.355,104.429,6.045,233.219,6.045S673.6,228.73,673.6,225.375s-104.4-6.045-233.219-6.045S207.16,222.05,207.16,225.375Z" transform="translate(-207.16 251.431)" fill="#e0f2ff"/>
      <path id="Path_23655" data-name="Path 23655" d="M673.765,221.674a12.846,12.846,0,0,1-12.09,8.252H219.84a12.906,12.906,0,0,1-12.09-8.251,3.385,3.385,0,0,1,3.2-4.594H670.591a3.385,3.385,0,0,1,3.174,4.594Z" transform="translate(-206.42 246.88)" fill="#576270"/>
      <path id="Path_23656" data-name="Path 23656" d="M674.988,143.183V391.7a24.543,24.543,0,0,1-24.543,24.543H231.883a24.482,24.482,0,0,1-23.546-17.682,23.393,23.393,0,0,1-1-6.861V143.183a24.543,24.543,0,0,1,24.543-24.513H650.445a24.513,24.513,0,0,1,24.543,24.513Z" transform="translate(-206.796 47.842)" fill="#152235"/>
      <rect id="Rectangle_1592" data-name="Rectangle 1592" width="418.561" height="248.392" rx="2.37" transform="translate(25.087 191.025)" fill="#f7fbfe"/>
      <rect id="Rectangle_1593" data-name="Rectangle 1593" width="122.141" height="122.141" transform="translate(47.696 220.676)" fill="#d6eeff"/>
      <rect id="Rectangle_1594" data-name="Rectangle 1594" width="58.788" height="58.788" transform="translate(174.461 220.676)" fill="#0091ff"/>
      <rect id="Rectangle_1595" data-name="Rectangle 1595" width="58.788" height="58.788" transform="translate(237.813 220.676)" fill="#d6eeff"/>
      <rect id="Rectangle_1596" data-name="Rectangle 1596" width="113.466" height="14.055" transform="translate(307.574 220.676)" fill="#ff8724"/>
      <rect id="Rectangle_1597" data-name="Rectangle 1597" width="113.466" height="14.055" transform="translate(307.574 241.38)" fill="#d6eeff"/>
      <rect id="Rectangle_1598" data-name="Rectangle 1598" width="113.466" height="14.055" transform="translate(307.574 262.054)" fill="#d6eeff"/>
      <rect id="Rectangle_1599" data-name="Rectangle 1599" width="61.72" height="14.055" transform="translate(307.574 282.759)" fill="#d6eeff"/>
      <rect id="Rectangle_1600" data-name="Rectangle 1600" width="58.788" height="58.788" transform="translate(174.461 284.028)" fill="#d6eeff"/>
      <rect id="Rectangle_1601" data-name="Rectangle 1601" width="58.788" height="58.788" transform="translate(237.813 284.028)" fill="#d6eeff"/>
      <rect id="Rectangle_1602" data-name="Rectangle 1602" width="373.344" height="25.299" transform="translate(47.696 392.658)" fill="#d6eeff"/>
      <path id="Path_23657" data-name="Path 23657" d="M354.655,217.08v2.086a4.383,4.383,0,0,1-4.352,4.352h-75.14a4.352,4.352,0,0,1-4.322-4.352V217.08Z" transform="translate(-78.365 246.88)" fill="#ddd"/>
      <ellipse id="Ellipse_134" data-name="Ellipse 134" cx="57.519" cy="3.234" rx="57.519" ry="3.234" transform="translate(578.454 513.983)" fill="#afccd3"/>
      <path id="Path_23660" data-name="Path 23660" d="M509.41,179.587V356.164a10.367,10.367,0,0,1-10.337,10.367H409.727a10.367,10.367,0,0,1-10.367-10.367V179.587a10.367,10.367,0,0,1,10.367-10.367h89.346a11.092,11.092,0,0,1,3.2.484,10.458,10.458,0,0,1,7.133,9.884Z" transform="translate(181.572 150.081)" fill="#152235"/>
      <rect id="Rectangle_1603" data-name="Rectangle 1603" width="89.346" height="167.328" rx="1" transform="translate(591.3 329.638)" fill="#f7fbfe" stroke="#f7fbfe" stroke-width="1"/>
      <path id="Path_23662" data-name="Path 23662" d="M421.089,239.949h0a5.259,5.259,0,0,1-5.259-5.259h0a5.259,5.259,0,0,1,5.259-5.259h0a5.259,5.259,0,0,1,5.259,5.259h0A5.259,5.259,0,0,1,421.089,239.949Z" transform="translate(214.884 271.858)" fill="#2a3b4f"/>
      <rect id="Rectangle_1605" data-name="Rectangle 1605" width="22.125" height="42.104" transform="translate(599.279 445.583)" fill="#e0f2ff" opacity="0.48"/>
      <rect id="Rectangle_1606" data-name="Rectangle 1606" width="22.125" height="42.104" transform="translate(624.91 445.583)" fill="#e0f2ff" opacity="0.48"/>
      <rect id="Rectangle_1607" data-name="Rectangle 1607" width="22.125" height="42.104" transform="translate(650.511 445.583)" fill="#e0f2ff" opacity="0.48"/>
      <rect id="Rectangle_1609" data-name="Rectangle 1609" width="78.828" height="78.828" rx="8" transform="translate(598.493 62.506)" fill="#0091ff"/>
      <path id="Path_23665" data-name="Path 23665" d="M415.88,226.27v26.9l18.679-13.438Z" transform="translate(214.955 -137.799)" fill="#fff"/>
      <rect id="Rectangle_1610" data-name="Rectangle 1610" width="42.376" height="42.376" transform="translate(376.122 319.067) rotate(-45)" fill="#00658f"/>
      <path id="Path_23666" data-name="Path 23666" d="M354.49,235.8c0,1.783,18.135,3.2,40.8,3.2s40.8-1.421,40.8-3.2-18.286-3.234-40.8-3.234S354.49,234.021,354.49,235.8Z" transform="translate(90.821 278.209)" fill="#e0f2ff"/>
      <path id="Path_23667" data-name="Path 23667" d="M356.5,166.212a5.832,5.832,0,0,0,.907,1.753,31.764,31.764,0,0,1-5.168,1.753c-1.723.272-2.327-.786-4.262-1.118s-2.539-.423-2.69-3.023a2.6,2.6,0,0,1,3.415-2.539c1.451.453,3.415,2.63,4.624,2.479a24.879,24.879,0,0,0,3.023-.665,5.048,5.048,0,0,0,.151,1.36Z" transform="translate(72.213 137.312)" fill="#f8b7b0"/>
      <path id="Path_23668" data-name="Path 23668" d="M368.528,164.181a7.133,7.133,0,0,1-6.831-.786c-.877-.7,1.118-2.055,1.723-3.022a2.841,2.841,0,0,0,0-1.844,22.252,22.252,0,0,0-1.39-3.657l6.589-2.841s.574,3.446.876,4.715a1.422,1.422,0,0,0,.242.574c.423.725,1.33.876,2.872,1.6S371.822,162.911,368.528,164.181Z" transform="translate(104.953 115.314)" fill="#f8b7b0"/>
      <path id="Path_23669" data-name="Path 23669" d="M373.291,158.525c0,4.715,0,6.982-1.753,9.068a7.587,7.587,0,0,1-4.866,3.234c-1.844.151-4.836-3.023-5.471-4.866a40.771,40.771,0,0,1-1.6-12.392,6.922,6.922,0,0,1,5.531-6.2C368.031,147.04,373.381,146.979,373.291,158.525Z" transform="translate(101.127 105.705)" fill="#f8b7b0"/>
      <path id="Path_23670" data-name="Path 23670" d="M359.663,154.163c.514,1.662,1.632,2.811,2.509,2.539s1.179-1.844.665-3.506-1.662-2.811-2.539-2.539S359.149,152.5,359.663,154.163Z" transform="translate(100.76 112.456)" fill="#f8b7b0"/>
      <path id="Path_23671" data-name="Path 23671" d="M363.823,152.636c-.514,1.693-.242,3.264.635,3.536s1.995-.846,2.539-2.509.242-3.264-.635-3.536S364.367,150.974,363.823,152.636Z" transform="translate(109.174 111.383)" fill="#f8b7b0"/>
      <path id="Path_23672" data-name="Path 23672" d="M372.264,200.777c4.745-.574,8.8-2.146,8.8.786,0,2.479-.212,2.3-8.342,3.023-4.745.363-8.675.242-8.8-.786S367.549,201.352,372.264,200.777Z" transform="translate(109.892 212.011)" fill="#0091ff"/>
      <path id="Path_23673" data-name="Path 23673" d="M408.228,156.436c5.894,5.41,15.536,18.135,16.926,24.845a3.023,3.023,0,0,1-2.055,3.385l-21.158,5.713a1.058,1.058,0,0,1-1.239-.544l-.756-1.572a1.058,1.058,0,0,1,.514-1.421l15.808-8.372c-4.534-8.584-7.768-10.4-7.768-10.4.544,10.67,10.035,34.638,10.639,37.51.786,3.506,1.36,6.408.151,6.65-3.929.816-13.118,1.33-21.158,2.66-5.833.967-5.864-1.209-5.048-10.79,1.209-14.418-2.66-20.342-5.622-25.329a14.568,14.568,0,0,1-2.025-8.433l-9.068,12.09a5.259,5.259,0,0,1-3.385,1.934l-22.941,2.509a1.572,1.572,0,0,1-1.814-1.572v-.635a1.542,1.542,0,0,1,1.179-1.511l21.611-5.713s6.045-9.823,9.068-13.873c1.209-1.693,3.476-6.68,7.98-7.5C401.941,153.353,404.056,152.568,408.228,156.436Z" transform="translate(78.16 118.857)" fill="#0091ff"/>
      <path id="Path_23674" data-name="Path 23674" d="M362.871,174.752s.181,2.327.484,6.045v1c.877,10.942,2.569,31.465,3.234,36.27a408.034,408.034,0,0,0,11.486,39.5,1.33,1.33,0,0,0,1.3.907h2.267a1.36,1.36,0,0,0,1.3-1.511c-.665-7.617-5.471-32.281-6.619-37.661s-1.783-22.971.877-31.132a1.451,1.451,0,0,1,2.781,0c1.844,6.65,6.045,21.158,8.373,27.445,2.871,7.315,35.152-1.662,40.955-3.355a.937.937,0,0,0,.665-.816v-1.632a.876.876,0,0,0-.937-1c-5.561.453-31.737,2.388-32.946-2.63s-3.355-17.984-4.715-26.3h0a7.75,7.75,0,0,0-.212-1.209l-.907-5.713a1.174,1.174,0,0,0-1.118-1.209h-.967a102.448,102.448,0,0,0-12.574.967c-4.776.484-7.859.846-9.823,1.149h-.786C363.264,174.087,362.841,174.359,362.871,174.752Z" transform="translate(107.769 155.218)" fill="#001f2c"/>
      <path id="Path_23675" data-name="Path 23675" d="M384.3,191.847c1.088-4.624,2.751-8.221,3.748-7.98s2.086,1,0,8.826c-1.3,4.594-2.75,8.221-3.748,7.98S383.238,196.381,384.3,191.847Z" transform="translate(149.545 179.683)" fill="#0091ff"/>
      <path id="Path_23676" data-name="Path 23676" d="M369.06,163.952l3.174-1.662,3.929,6.468-5.229,1.421C370.269,168.124,369.634,166.008,369.06,163.952Z" transform="translate(120.289 136.065)" fill="#001f2c"/>
      <path id="Path_23677" data-name="Path 23677" d="M361.7,163.82c1.9,4.776.725,13.541,2.358,21.158s13.934,20.16,24.543,11.335c12.09-10.126-3.446-21.369-6.287-28.533-3.2-8.04-3.023-14.327-7.375-18.74a9.521,9.521,0,0,0-12.6-.332C357.109,153.271,360.131,159.83,361.7,163.82Z" transform="translate(100.746 104.098)" fill="#0c0c0c"/>
      <path id="Path_23678" data-name="Path 23678" d="M362,202.118a1.088,1.088,0,0,1,.937,1.209l-.242,1.965h39.323l-.242-1.965a1.058,1.058,0,1,1,2.085-.363,2.116,2.116,0,0,0-2.085-1.9h-38.84a2.086,2.086,0,0,0-2.086,1.874,1.088,1.088,0,0,1,1.149-.816Z" transform="translate(103.684 214.479)" fill="#00658f"/>
      <path id="Path_23679" data-name="Path 23679" d="M411.868,202.319h0a1.058,1.058,0,1,0-2.086.363l.242,1.965,4.08,33.067H366.59l4.08-33.067.242-1.965a1.061,1.061,0,1,0-2.086-.393h0l-8.433,68.219a.937.937,0,0,0-.151.514.877.877,0,0,0,0,.272l-3.325,26.961a1.058,1.058,0,0,0,.937,1.209h0a1.118,1.118,0,0,0,1.088-.937l3.234-26.447h55.977l3.264,26.447a1.088,1.088,0,0,0,1.088.937h0a1.088,1.088,0,0,0,.937-1.209ZM362.6,269.963l3.718-30.225h48l3.748,30.225Z" transform="translate(95.708 215.215)" fill="#00658f"/>
      <path id="Path_23680" data-name="Path 23680" d="M365.055,174.385a7.167,7.167,0,0,0-.272-1.965h.786a6.774,6.774,0,0,1,.3,2.055,7.708,7.708,0,0,1-2.811,6.045q0-.544,0-1A6.952,6.952,0,0,0,365.055,174.385Z" transform="translate(108.154 156.553)" fill="#0091ff"/>
      <path id="Path_23681" data-name="Path 23681" d="M371.441,171.69h.846a6.417,6.417,0,0,0-.242,1.723,6.831,6.831,0,0,0,2.388,5.2,2.506,2.506,0,0,0,.212,1.209,7.738,7.738,0,0,1-3.416-6.408,8.189,8.189,0,0,1,.212-1.723Z" transform="translate(124.678 155.077)" fill="#0091ff"/>
      <g id="Group_959" data-name="Group 959" transform="translate(135.198 166.512)" opacity="0.3">
        <path id="Path_23682" data-name="Path 23682" d="M286.468,295.692l9.944,23.969-14.357,5.954-9.944-23.969L251.89,321.867V253.83h21.521l41.862,41.862Z" transform="translate(-251.89 -253.83)" fill="#4c4c4c"/>
        <path id="Path_23683" data-name="Path 23683" d="M251.92,276.34Z" transform="translate(-251.89 -208.303)" fill="#4c4c4c"/>
      </g>
      <g transform="matrix(1, 0, 0, 1, 0, 0)" filter="url(#Path_23684)">
        <path id="Path_23684-2" data-name="Path 23684" d="M320.273,305.093l-18.589-18.619-30.558-30.558L256.89,241.71v52.532h0v37.026l20.221-20.221,9.944,23.969,14.357-5.954-9.944-23.969Z" transform="translate(-106.58 -111.83)" fill="#fff"/>
      </g>
      <path id="Path_23685" data-name="Path 23685" d="M256.89,271.34Z" transform="translate(-106.579 -51.904)" fill="#fff"/>
      <ellipse id="Ellipse_135" data-name="Ellipse 135" cx="22.82" cy="2.267" rx="22.82" ry="2.267" transform="translate(553.699 556.782)" fill="#e0f2ff"/>
      <path id="Path_23686" data-name="Path 23686" d="M433.33,294.678a28.261,28.261,0,0,1,6.257-15.929c12.967-14.085,29.258-4.081,31.072-10.639.846-3.023-4.473-8.493-10.4-10.246-15.113-4.473-15.113,6.559-19.284,3.234-5.048-4.05,15.9-24.392,6.952-42.527-4.564-9.34-17.742-15.6-24.573-12.09-5.5,3.023-6.468,12.09-6.619,13.873-.756,9.068,7.315,19.435,3.536,25.057-7.1,10.549-5.622-15.687-24.6-11.153-9.884,2.388-10.821,9.068-9.672,11.4,1.934,4.111,8.826.272,17.833,5.894,6.287,3.929,9.823,11.123,8.342,13.088s-9.612-4.594-17.349-1.33c-4.534,1.874-7.707,7.133-6.77,9.37.7,1.572,3.264,1.179,7.889,2.055,2.6.484,14.78,2.781,17.5,9.763a12.09,12.09,0,0,1-1.421,10.1Z" transform="translate(153.768 223.446)" fill="#0e8ae8"/>
      <g id="Group_960" data-name="Group 960" transform="translate(539.381 428.939)" clip-path="url(#clip-path)">
        <path id="Path_23687" data-name="Path 23687" d="M485.71,401.082c1.028-9.219,3.96-25.389,14.538-36.935,30.044-32.7,67.886-9.461,72.057-24.694,1.995-7.254-10.337-19.647-24.18-23.757-34.88-10.4-35.182,15.113-44.764,7.526-11.667-9.4,36.936-56.582,16.2-98.716-10.609-21.611-41.2-36.27-57.035-27.777-12.725,6.74-15.113,27.928-15.354,32.16-1.753,21.339,16.987,45.1,8.191,58.154-16.473,24.452-13.057-36.452-57.035-25.873-22.941,5.5-25.178,20.765-22.488,26.447,4.473,9.491,20.463.635,41.379,13.662,14.6,9.068,22.82,25.812,19.375,30.225-4.05,5.289-22.276-10.67-40.29-3.023-10.458,4.383-17.863,16.533-15.657,21.762,1.572,3.657,7.526,2.72,18.135,4.745,6.045,1.149,34.306,6.468,40.563,22.669,1.179,3.023,3.264,10.73-3.264,23.394Z" transform="translate(-407.193 -228.173)" fill="#0091ff"/>
      </g>
      <path id="Path_23689" data-name="Path 23689" d="M444.548,255.116a27.929,27.929,0,0,1-28.473,27.928,28.533,28.533,0,0,1-27.414-28.865V238.19a6.71,6.71,0,0,1,6.71-6.71h42.467a6.71,6.71,0,0,1,6.71,6.71Z" transform="translate(159.929 276.005)" fill="#e0f2ff"/>
      <path id="Path_23690" data-name="Path 23690" d="M413.193,285.083a.756.756,0,0,1-.7-.484c-1.662-4.262-7.677-7.556-16.926-9.309-1.451-.272-2.69-.423-3.778-.544-2.418-.272-4.02-.453-4.655-1.934a4.472,4.472,0,0,1,.272-3.476,13.42,13.42,0,0,1,6.861-6.891,17.681,17.681,0,0,1,13.087.816c1.783.635,3.6,1.239,3.99.756a2.3,2.3,0,0,0,0-1.511,19.073,19.073,0,0,0-8.252-10.488,24.181,24.181,0,0,0-11.516-3.536c-3.023-.212-5.289-.423-6.408-2.75a6.982,6.982,0,0,1,.393-5.743,13.42,13.42,0,0,1,9.823-6.71c11.153-2.69,15.6,4.836,18.558,9.823,1.149,1.934,2.237,3.808,3.174,3.839.484,0,1.179-.363,2.418-2.206,1.844-2.781.453-6.982-1.179-11.818a33.759,33.759,0,0,1-2.479-12.876c.212-2.63,1.36-11.486,7.012-14.478a13.813,13.813,0,0,1,10.609-.151,26.236,26.236,0,0,1,15.113,12.453c5.652,11.486-.151,23.546-4.413,32.311-2.267,4.745-4.232,8.8-2.75,10,1.028.846,1.542.484,3.023-.846,2.358-2.025,6.317-5.41,15.929-2.539,6.408,1.9,11.909,7.526,10.911,11.153a.786.786,0,0,1-.937.544.756.756,0,0,1-.514-.937c.7-2.509-4.08-7.587-9.884-9.309-8.826-2.63-12.241.3-14.508,2.237-1.451,1.239-3.023,2.539-5.048.876s-.393-6.045,2.358-11.818c4.111-8.524,9.733-20.16,4.413-31.011a24.815,24.815,0,0,0-14.085-11.7,12.483,12.483,0,0,0-9.461,0c-5.108,2.72-6.045,11.516-6.226,13.269a32.068,32.068,0,0,0,2.448,12.271c1.662,5.017,3.264,9.763.967,13.148-1.3,1.934-2.478,3.023-3.627,3.023h0c-1.753,0-3.023-2.025-4.413-4.564-3.023-4.866-6.831-11.546-16.926-9.068a12.09,12.09,0,0,0-8.8,6.045,5.379,5.379,0,0,0-.363,4.443c.7,1.481,2.146,1.662,5.138,1.9a25.118,25.118,0,0,1,12.393,3.657,20.131,20.131,0,0,1,9.067,11.486,3.294,3.294,0,0,1-.393,2.69c-1.028,1.39-3.022.665-5.652-.212a16.473,16.473,0,0,0-12.09-.876,12.091,12.091,0,0,0-6.045,6.045,3.356,3.356,0,0,0-.272,2.327c.272.635,1.3.786,3.446,1.058a24.494,24.494,0,0,1,3.869.544c9.944,1.874,16.171,5.41,18.135,10.246a.725.725,0,0,1-.423.967Z" transform="translate(151.992 221.283)" fill="#0091ff" opacity="0.35"/>
      <g id="Group_961" data-name="Group 961" transform="translate(355.058)" opacity="0.4">
        <path id="Path_23691" data-name="Path 23691" d="M329.164,155.526a4.534,4.534,0,0,1-4.534-4.534A87.261,87.261,0,0,1,411.891,63.58h0a4.594,4.594,0,0,1,4.534,4.564,4.534,4.534,0,0,1-4.534,4.5h0A78.223,78.223,0,0,0,333.7,150.9a4.534,4.534,0,0,1-4.534,4.534Z" transform="translate(-324.63 -63.58)" fill="#9dc2ca"/>
        <path id="Path_23692" data-name="Path 23692" d="M329.164,155.526a4.534,4.534,0,0,1-4.534-4.534A87.261,87.261,0,0,1,411.891,63.58h0a4.594,4.594,0,0,1,4.534,4.564,4.534,4.534,0,0,1-4.534,4.5h0A78.223,78.223,0,0,0,333.7,150.9a4.534,4.534,0,0,1-4.534,4.534Z" transform="translate(-324.63 -63.58)" fill="#0091ff"/>
        <path id="Path_23693" data-name="Path 23693" d="M337.374,138.9a4.534,4.534,0,0,1-4.534-4.534A62.476,62.476,0,0,1,395.346,71.8a4.534,4.534,0,1,1,0,9.068,53.469,53.469,0,0,0-53.438,53.408,4.534,4.534,0,0,1-4.534,4.624Z" transform="translate(-308.025 -46.955)" fill="#9dc2ca"/>
        <path id="Path_23694" data-name="Path 23694" d="M345.594,122.316a4.534,4.534,0,0,1-4.534-4.534A37.6,37.6,0,0,1,378.721,80a4.534,4.534,0,0,1,0,9.068,28.593,28.593,0,0,0-28.593,28.563,4.534,4.534,0,0,1-4.534,4.685Z" transform="translate(-291.4 -30.37)" fill="#0091ff"/>
        <path id="Path_23695" data-name="Path 23695" d="M337.374,138.9a4.534,4.534,0,0,1-4.534-4.534A62.476,62.476,0,0,1,395.346,71.8a4.534,4.534,0,1,1,0,9.068,53.469,53.469,0,0,0-53.438,53.408,4.534,4.534,0,0,1-4.534,4.624Z" transform="translate(-308.025 -46.955)" fill="#0091ff"/>
      </g>
      <rect id="Rectangle_1615" data-name="Rectangle 1615" width="79.553" height="37.588" transform="translate(596.196 334.898)" fill="#e0f2ff"/>
      <rect id="Rectangle_1612" data-name="Rectangle 1612" width="37.364" height="25.116" transform="translate(597.883 402.465)" fill="#e0f2ff"/>
      <rect id="Rectangle_1613" data-name="Rectangle 1613" width="37.364" height="25.116" transform="translate(638.386 402.465)" fill="#e0f2ff"/>
      <rect id="Rectangle_1611" data-name="Rectangle 1611" width="37.364" height="25.116" transform="translate(597.883 375.397)" fill="#0091ff"/>
      <rect id="Rectangle_1614" data-name="Rectangle 1614" width="37.364" height="25.116" transform="translate(638.386 375.397)" fill="#e0f2ff"/>
    </g>
  </g>
</svg>
