<svg xmlns="http://www.w3.org/2000/svg" viewBox="0 0 28 28"><defs><style>.cls-1,.cls-3{fill:none;}.cls-2{fill:#0091ff;}.cls-3{stroke:#0091ff;stroke-miterlimit:10;stroke-width:0.34px;}</style></defs><g id="Layer_2" data-name="Layer 2"><g id="Layer_1-2" data-name="Layer 1"><rect class="cls-1" width="28" height="28"/><path class="cls-2" d="M14.13,1.52A12.74,12.74,0,1,0,26.84,14.29,12.74,12.74,0,0,0,14.13,1.52Zm0,24.13a11.39,11.39,0,1,1,11.35-11.4A11.38,11.38,0,0,1,14.14,25.65ZM16.62,12.7c1.48-1.47,3-3,4.44-4.44.1-.1.25-.2.29-.32a1.58,1.58,0,0,0,0-.68.48.48,0,0,0-.56-.35,1.23,1.23,0,0,0-.61.31c-1.58,1.56-3.14,3.13-4.73,4.73a2.69,2.69,0,1,0,1,1.17A.3.3,0,0,1,16.62,12.7Zm-2.48,2.89a1.33,1.33,0,1,1,0-2.66,1.33,1.33,0,0,1,0,2.66Zm2.95-8.08c.48.2.85.1,1-.27s0-.75-.5-1a9.24,9.24,0,0,0-3.74-.74A8.52,8.52,0,0,0,7.15,9.06a8.49,8.49,0,0,0-1.73,5,.72.72,0,0,0,.45.78c.46.16.85-.16.9-.71A11.85,11.85,0,0,1,7,12.39,7.35,7.35,0,0,1,17.09,7.51Zm5.72,6.36c0-.16,0-.28,0-.39a8.52,8.52,0,0,0-.73-2.81.66.66,0,0,0-.67-.43.56.56,0,0,0-.56.42,1.22,1.22,0,0,0,0,.6c.19.73.41,1.45.58,2.18.07.3,0,.62.07.93a.66.66,0,0,0,1.3,0A2.63,2.63,0,0,0,22.81,13.87Z"/><path class="cls-3" d="M14.13,1.52A12.74,12.74,0,1,0,26.84,14.29,12.74,12.74,0,0,0,14.13,1.52Zm0,24.13a11.39,11.39,0,1,1,11.35-11.4A11.38,11.38,0,0,1,14.14,25.65ZM16.62,12.7c1.48-1.47,3-3,4.44-4.44.1-.1.25-.2.29-.32a1.58,1.58,0,0,0,0-.68.48.48,0,0,0-.56-.35,1.23,1.23,0,0,0-.61.31c-1.58,1.56-3.14,3.13-4.73,4.73a2.69,2.69,0,1,0,1,1.17A.3.3,0,0,1,16.62,12.7Zm-2.48,2.89a1.33,1.33,0,1,1,0-2.66,1.33,1.33,0,0,1,0,2.66Zm2.95-8.08c.48.2.85.1,1-.27s0-.75-.5-1a9.24,9.24,0,0,0-3.74-.74A8.52,8.52,0,0,0,7.15,9.06a8.49,8.49,0,0,0-1.73,5,.72.72,0,0,0,.45.78c.46.16.85-.16.9-.71A11.85,11.85,0,0,1,7,12.39,7.35,7.35,0,0,1,17.09,7.51Zm5.72,6.36c0-.16,0-.28,0-.39a8.52,8.52,0,0,0-.73-2.81.66.66,0,0,0-.67-.43.56.56,0,0,0-.56.42,1.22,1.22,0,0,0,0,.6c.19.73.41,1.45.58,2.18.07.3,0,.62.07.93a.66.66,0,0,0,1.3,0A2.63,2.63,0,0,0,22.81,13.87Z"/></g></g></svg>