<?xml version="1.0" encoding="UTF-8"?><svg id="Layer_2" xmlns="http://www.w3.org/2000/svg" viewBox="0 0 28 28"><defs><style>.cls-1{fill:#0091ff;}.cls-2{stroke:#0091ff;stroke-miterlimit:10;stroke-width:.26px;}.cls-2,.cls-3{fill:none;}</style></defs><g id="Layer_1-2"><g><rect class="cls-3" width="28" height="28"/><g><path class="cls-1" d="M25.68,14.99c-1.34-1.57-2.74-3.08-4.15-4.58-1.05-1.12-2.87-.73-3.44,.7-.02,.05-.05,.1-.07,.15-1.05-.74-2.68-.47-3.28,1.09-.58-.4-1.21-.52-1.89-.3-.67,.22-1.11,.69-1.38,1.43-.1-.14-.16-.24-.24-.32-.62-.62-1.22-1.27-1.88-1.83-1.05-.9-2.8-.35-3.22,.96-.28,.88-.04,1.62,.6,2.26,2.35,2.35,4.71,4.71,7.06,7.06,.07,.07,.17,.1,.26,.15l-.07,.09s-.06,.02-.09,.03c-1.34,.21-2.67,.42-4.01,.62-.79,.12-1.48,.42-1.92,1.12-.42,.67-.58,1.38-.2,2.12,.24,.47,.68,.7,1.16,.84h11.08c.07-.02,.15-.04,.22-.05,1.24-.17,2.34-.66,3.25-1.52,.68-.64,1.34-1.29,1.97-1.96,2.2-2.34,2.31-5.64,.22-8.09Zm-.84,7.14c-.64,.7-1.32,1.36-2,2.01-.98,.95-2.17,1.37-3.52,1.37-1.57,0-3.15,0-4.72,0-1.73,0-3.46-.01-5.18,0-.71,0-.9-.42-.7-1,.18-.51,.56-.8,1.09-.89,1.74-.28,3.48-.55,5.22-.82,.08-.01,.17-.03,.25-.05,.43-.11,.57-.56,.29-.9-.06-.07-.13-.14-.2-.2-2.62-2.62-5.25-5.25-7.87-7.87-.42-.42-.52-.85-.28-1.28,.29-.55,1-.7,1.49-.31,.09,.07,.16,.15,.24,.23,1.71,1.71,3.42,3.42,5.13,5.13,.08,.08,.17,.17,.27,.23,.21,.14,.48,.11,.66-.06,.18-.17,.22-.46,.08-.68-.06-.09-.14-.17-.22-.25-.67-.68-1.35-1.34-2.02-2.02-.5-.5-.44-1.22,.12-1.58,.41-.27,.91-.2,1.3,.19,.67,.66,1.33,1.32,1.99,1.98,.05,.05,.09,.1,.15,.14,.26,.24,.58,.25,.8,.03,.22-.22,.22-.54-.03-.8-.36-.37-.74-.73-1.1-1.11-.55-.59-.26-1.51,.52-1.67,.36-.07,.67,.05,.93,.31,.35,.35,.7,.7,1.05,1.05,.17,.17,.38,.26,.63,.16,.21-.09,.35-.25,.33-.47-.02-.18-.12-.37-.24-.51-.45-.58-.23-1.38,.46-1.6,.38-.12,.73-.05,1.01,.25,1.42,1.56,2.87,3.1,4.25,4.7,1.52,1.78,1.43,4.55-.15,6.28Zm-19.07,3.39c-.3,0-.6,0-.89,0-1.23-.02-2.27-.75-2.63-1.86-.27-.81-.11-1.65-.15-2.5h.34c2.71,0,5.43,0,8.14,0,.11,0,.22,0,.33-.02,.25-.04,.42-.24,.44-.49,.02-.24-.13-.47-.37-.54-.12-.03-.25-.04-.38-.04-2.73,0-5.46,0-8.2,0h-.29V5.92H15.17v.29c0,1.11,0,2.23,0,3.34,0,.22,.02,.43,.21,.57,.18,.14,.37,.16,.57,.06,.26-.13,.31-.36,.31-.62,0-1.74,.01-3.49,0-5.23-.02-2.16-1.63-3.85-3.73-3.88-2.6-.03-5.21-.02-7.81,0-1.57,.01-2.95,1.03-3.48,2.51-.1,.28-.16,.57-.24,.85V23.23c.07,.26,.12,.53,.21,.78,.53,1.43,1.55,2.28,3.05,2.54,.04,0,.08,.03,.11,.05h1.63c.36-.17,.48-.36,.42-.66-.06-.29-.27-.42-.66-.42ZM4.86,1.55c2.52-.02,5.04-.02,7.56,0,1.76,.02,2.99,1.5,2.73,3.25H2.13c-.27-1.73,.99-3.23,2.74-3.25Zm2.21,2.17c1.04,0,2.09,0,3.13,0,.37,0,.61-.23,.61-.55,0-.31-.25-.53-.62-.53-.52,0-1.04,0-1.55,0-.5,0-1,0-1.5,0-.12,0-.24,.01-.35,.05-.24,.09-.36,.35-.31,.61,.05,.26,.27,.42,.59,.42Zm5.39,0c.29,0,.56-.25,.55-.55,0-.29-.25-.53-.54-.53-.3,0-.53,.23-.54,.53,0,.29,.23,.54,.53,.55Z"/><path class="cls-2" d="M25.68,14.99c-1.34-1.57-2.74-3.08-4.15-4.58-1.05-1.12-2.87-.73-3.44,.7-.02,.05-.05,.1-.07,.15-1.05-.74-2.68-.47-3.28,1.09-.58-.4-1.21-.52-1.89-.3-.67,.22-1.11,.69-1.38,1.43-.1-.14-.16-.24-.24-.32-.62-.62-1.22-1.27-1.88-1.83-1.05-.9-2.8-.35-3.22,.96-.28,.88-.04,1.62,.6,2.26,2.35,2.35,4.71,4.71,7.06,7.06,.07,.07,.17,.1,.26,.15l-.07,.09s-.06,.02-.09,.03c-1.34,.21-2.67,.42-4.01,.62-.79,.12-1.48,.42-1.92,1.12-.42,.67-.58,1.38-.2,2.12,.24,.47,.68,.7,1.16,.84h11.08c.07-.02,.15-.04,.22-.05,1.24-.17,2.34-.66,3.25-1.52,.68-.64,1.34-1.29,1.97-1.96,2.2-2.34,2.31-5.64,.22-8.09Zm-.84,7.14c-.64,.7-1.32,1.36-2,2.01-.98,.95-2.17,1.37-3.52,1.37-1.57,0-3.15,0-4.72,0-1.73,0-3.46-.01-5.18,0-.71,0-.9-.42-.7-1,.18-.51,.56-.8,1.09-.89,1.74-.28,3.48-.55,5.22-.82,.08-.01,.17-.03,.25-.05,.43-.11,.57-.56,.29-.9-.06-.07-.13-.14-.2-.2-2.62-2.62-5.25-5.25-7.87-7.87-.42-.42-.52-.85-.28-1.28,.29-.55,1-.7,1.49-.31,.09,.07,.16,.15,.24,.23,1.71,1.71,3.42,3.42,5.13,5.13,.08,.08,.17,.17,.27,.23,.21,.14,.48,.11,.66-.06,.18-.17,.22-.46,.08-.68-.06-.09-.14-.17-.22-.25-.67-.68-1.35-1.34-2.02-2.02-.5-.5-.44-1.22,.12-1.58,.41-.27,.91-.2,1.3,.19,.67,.66,1.33,1.32,1.99,1.98,.05,.05,.09,.1,.15,.14,.26,.24,.58,.25,.8,.03,.22-.22,.22-.54-.03-.8-.36-.37-.74-.73-1.1-1.11-.55-.59-.26-1.51,.52-1.67,.36-.07,.67,.05,.93,.31,.35,.35,.7,.7,1.05,1.05,.17,.17,.38,.26,.63,.16,.21-.09,.35-.25,.33-.47-.02-.18-.12-.37-.24-.51-.45-.58-.23-1.38,.46-1.6,.38-.12,.73-.05,1.01,.25,1.42,1.56,2.87,3.1,4.25,4.7,1.52,1.78,1.43,4.55-.15,6.28Zm-19.07,3.39c-.3,0-.6,0-.89,0-1.23-.02-2.27-.75-2.63-1.86-.27-.81-.11-1.65-.15-2.5h.34c2.71,0,5.43,0,8.14,0,.11,0,.22,0,.33-.02,.25-.04,.42-.24,.44-.49,.02-.24-.13-.47-.37-.54-.12-.03-.25-.04-.38-.04-2.73,0-5.46,0-8.2,0h-.29V5.92H15.17v.29c0,1.11,0,2.23,0,3.34,0,.22,.02,.43,.21,.57,.18,.14,.37,.16,.57,.06,.26-.13,.31-.36,.31-.62,0-1.74,.01-3.49,0-5.23-.02-2.16-1.63-3.85-3.73-3.88-2.6-.03-5.21-.02-7.81,0-1.57,.01-2.95,1.03-3.48,2.51-.1,.28-.16,.57-.24,.85V23.23c.07,.26,.12,.53,.21,.78,.53,1.43,1.55,2.28,3.05,2.54,.04,0,.08,.03,.11,.05h1.63c.36-.17,.48-.36,.42-.66-.06-.29-.27-.42-.66-.42ZM4.86,1.55c2.52-.02,5.04-.02,7.56,0,1.76,.02,2.99,1.5,2.73,3.25H2.13c-.27-1.73,.99-3.23,2.74-3.25Zm2.21,2.17c1.04,0,2.09,0,3.13,0,.37,0,.61-.23,.61-.55,0-.31-.25-.53-.62-.53-.52,0-1.04,0-1.55,0-.5,0-1,0-1.5,0-.12,0-.24,.01-.35,.05-.24,.09-.36,.35-.31,.61,.05,.26,.27,.42,.59,.42Zm5.39,0c.29,0,.56-.25,.55-.55,0-.29-.25-.53-.54-.53-.3,0-.53,.23-.54,.53,0,.29,.23,.54,.53,.55Z"/></g></g></g></svg>