<?xml version="1.0" encoding="UTF-8"?><svg id="Layer_2" xmlns="http://www.w3.org/2000/svg" viewBox="0 0 28 28"><defs><style>.cls-1{fill:#0091ff;}.cls-2{fill:none;}</style></defs><g id="Layer_1-2"><g><rect class="cls-2" width="28" height="28"/><path class="cls-1" d="M27.59,1.51c-9.05,0-18.1,0-27.15,0H.12V26.48c.09,0,.17,.01,.26,.01,9.09,0,18.17,0,27.26,0,.08,0,.16,0,.24-.01V1.52c-.1,0-.2-.01-.3-.01Zm-1.68,23.01H2.06V9.56H25.91v14.96Zm0-16.95H2.07V3.48H25.91V7.56ZM9.81,21.45c-1.26-2.37-.48-4.79,1.09-6.1,1.68-1.4,4.03-1.51,5.82-.28,.88,.61,1.5,1.43,1.84,2.45,.45,1.36,.29,2.67-.39,3.93,.45,.26,.89,.51,1.32,.76,1.3-2.04,1.35-5.52-1.18-7.86-2.44-2.26-6.19-2.26-8.63-.02-2.56,2.35-2.49,5.85-1.2,7.88,.44-.25,.88-.51,1.32-.76Zm3.68-2.35c.37,.37,.73,.73,1.09,1.09,.84-1.19,1.69-2.39,2.55-3.6l-.04-.04c-1.21,.86-2.42,1.71-3.59,2.54Zm-.97-14.35H5.15v1.53h7.36v-1.53Zm9.99,1.75c.54,0,.98-.44,.98-.98,0-.55-.43-.98-.98-.97-.54,0-.98,.44-.97,.98,0,.52,.45,.96,.97,.97Zm-7.04,0c.54,0,.98-.44,.98-.98,0-.55-.43-.97-.98-.97-.53,0-.96,.43-.97,.96,0,.53,.44,.99,.97,.99Zm3.53,0c.53,0,.96-.43,.97-.96,0-.55-.41-.99-.96-.99-.55,0-.99,.42-.99,.97,0,.53,.45,.99,.98,.99Z"/></g></g></svg>