<svg xmlns="http://www.w3.org/2000/svg" viewBox="0 0 28 28"><defs><style>.cls-1{fill:none;}.cls-2{fill:#0091ff;}</style></defs><g id="Layer_2" data-name="Layer 2"><g id="Layer_1-2" data-name="Layer 1"><rect class="cls-1" width="28" height="28"/><path class="cls-2" d="M21.71,3.31c-.13,0-.21-.07-.21-.24a2.35,2.35,0,0,0-2-2.5l0,0H8.54a6.09,6.09,0,0,0-1,.4A2.28,2.28,0,0,0,6.5,3c0,.16,0,.27-.21.33A3.89,3.89,0,0,0,3.56,7.08c0,2.93,0,5.87,0,8.8v7.51a3.93,3.93,0,0,0,3.37,4s.06,0,.09,0H21l.6-.15a3.91,3.91,0,0,0,2.86-3.73q0-8.26,0-16.53A3.9,3.9,0,0,0,21.71,3.31ZM8.07,3a.79.79,0,0,1,.85-.85H19.07a.79.79,0,0,1,.86.87V4.77a.79.79,0,0,1-.87.87H9a.82.82,0,0,1-.93-.94Zm12.3,22.91H7.64a2.37,2.37,0,0,1-2.51-2.52V7.15A2.34,2.34,0,0,1,6.34,5l.07,0h.06c0,.18.07.37.12.55A2.33,2.33,0,0,0,8.8,7.21H19.19a2.32,2.32,0,0,0,2.27-1.95l.06-.34a2.38,2.38,0,0,1,1.29,1.64,3.05,3.05,0,0,1,.06.6V23.38A2.37,2.37,0,0,1,20.37,25.88Zm-10.53-6a.25.25,0,0,1,0-.35,10.13,10.13,0,0,0,.61-.85.77.77,0,0,0-.19-1.09.78.78,0,0,0-1.09.19l-.41.56-.37-.52a.79.79,0,0,0-1.13-.23.78.78,0,0,0-.15,1.15c.19.28.4.54.57.82a.3.3,0,0,1,0,.29c-.17.28-.38.54-.57.81a.79.79,0,1,0,1.28.93L8.75,21l.38.51a.79.79,0,1,0,1.28-.91C10.22,20.37,10,20.1,9.84,19.85Zm1-8.3a.77.77,0,0,0-.8.28L8.71,13.4l-.31-.6A.79.79,0,0,0,7,13.49c.28.57.56,1.15.86,1.71a.77.77,0,0,0,1.29.14c.71-.83,1.42-1.67,2.09-2.53a1,1,0,0,0,.17-.65A.7.7,0,0,0,10.82,11.55Zm4.95,2.82H20.2a.79.79,0,1,0,0-1.58H15.79a.8.8,0,1,0,0,1.58ZM20.24,19H15.73a.8.8,0,0,0-.84.78.79.79,0,0,0,.86.79c.74,0,1.48,0,2.23,0s1.5,0,2.25,0a.78.78,0,0,0,.85-.76A.79.79,0,0,0,20.24,19Z"/></g></g></svg>