<svg xmlns="http://www.w3.org/2000/svg" viewBox="0 0 28 28"><defs><style>.cls-1{fill:none;}.cls-2{fill:#0091ff;}</style></defs><g id="Layer_2" data-name="Layer 2"><g id="Layer_1-2" data-name="Layer 1"><rect class="cls-1" width="28" height="28"/><path class="cls-2" d="M8.05,21.61V14.84c-.82,0-1.63,0-2.44,0a4.81,4.81,0,0,1-1.2-.15,4,4,0,0,1-3-3.31A4.06,4.06,0,0,1,3,7.24a.67.67,0,0,0,.26-.42A6.77,6.77,0,0,1,8.76,1.4a6.64,6.64,0,0,1,5.93,1.9.38.38,0,0,0,.38.1,5,5,0,0,1,4.67,1.2.49.49,0,0,0,.32.12,4.18,4.18,0,0,1,4,1.84,1,1,0,0,0,.31.27,4.23,4.23,0,0,1-1.91,8H20V19.9h1.81a2.6,2.6,0,0,1,3-1.6,2.54,2.54,0,0,1,0,4.94,2.58,2.58,0,0,1-3-1.63H19.25a.88.88,0,0,1-1-1V14.86H14.86v6.9a2.59,2.59,0,0,1,1.5,1.44,2.54,2.54,0,1,1-3.47-1.32.39.39,0,0,0,.27-.43q0-3.14,0-6.29v-.3H9.76v7.43c0,.7-.31,1-1,1H6.22a2.58,2.58,0,0,1-1.43,1.5A2.54,2.54,0,1,1,6.1,21.35a.38.38,0,0,0,.43.27C7,21.6,7.53,21.61,8.05,21.61ZM14,13.15h8.48a2.53,2.53,0,0,0,.94-4.88,1.33,1.33,0,0,1-.68-.6,2.46,2.46,0,0,0-2.82-1.19.93.93,0,0,1-1-.31,3.4,3.4,0,0,0-3.91-1,.91.91,0,0,1-.58.06,1.89,1.89,0,0,1-.64-.49A5,5,0,0,0,9.07,3.08,5,5,0,0,0,4.85,7.53a1.12,1.12,0,0,1-.61.91A2.42,2.42,0,0,0,3,10.52a2.54,2.54,0,0,0,2.58,2.63Zm10.19,8.46a.85.85,0,0,0,.84-.84.84.84,0,0,0-.83-.85.85.85,0,1,0,0,1.69Zm-20.35,0a.85.85,0,1,0,.84.85A.85.85,0,0,0,3.83,21.61ZM14,25a.84.84,0,1,0-.84-.84A.85.85,0,0,0,14,25Z"/></g></g></svg>