<svg xmlns="http://www.w3.org/2000/svg" viewBox="0 0 28 28"><defs><style>.cls-1{fill:none;}.cls-2{fill:#0091ff;}</style></defs><g id="Layer_2" data-name="Layer 2"><g id="Layer_1-2" data-name="Layer 1"><rect class="cls-1" width="28" height="28"/><path class="cls-2" d="M26.78,12.65a6.28,6.28,0,0,0-5.11-3.34l-.12-.64A7.71,7.71,0,0,0,6.42,8.8c-.1.51-.1.51-.61.59A6.27,6.27,0,0,0,4,21.23a8.83,8.83,0,0,0,1.76.57.89.89,0,0,0,1.1-1A.94.94,0,0,0,6,20a4.49,4.49,0,0,1-.66-8.67,5.7,5.7,0,0,1,1.83-.25.88.88,0,0,0,.94-.93c0-.2,0-.39,0-.59a5.91,5.91,0,0,1,11.77.27c.1,1.11.22,1.22,1.36,1.25A4.5,4.5,0,0,1,22,20a.91.91,0,0,0-.82,1.07.91.91,0,0,0,1.08.71A6.29,6.29,0,0,0,26.78,12.65ZM19,16.76H17.83c0-.36,0-.69,0-1a3.83,3.83,0,0,0-7.66.16v.87H9a.9.9,0,0,0-.95.95q0,3.42,0,6.83a.89.89,0,0,0,.95,1H19a.88.88,0,0,0,.93-1q0-3.39,0-6.8A.92.92,0,0,0,19,16.76Zm-7-1.08a2,2,0,0,1,4,.1c0,.32,0,.63,0,1H12C12,16.39,12,16,12,15.68Zm6.12,8H9.89v-5.1H18.1Z"/></g></g></svg>