<svg xmlns="http://www.w3.org/2000/svg" viewBox="0 0 28 28"><defs><style>.cls-1{fill:none;}.cls-2{fill:#0091ff;}</style></defs><g id="Layer_2" data-name="Layer 2"><g id="Layer_1-2" data-name="Layer 1"><rect class="cls-1" width="28" height="28"/><path class="cls-2" d="M25.19,14.62a.79.79,0,0,0-.8-.46H21.22V3.88c0-.14,0-.29,0-.43a2.33,2.33,0,0,0-2.34-2.2q-4.86,0-9.72,0a2.54,2.54,0,0,0-1,.22A2.34,2.34,0,0,0,6.79,3.78V14.16H3.54a.74.74,0,0,0-.72.46.7.7,0,0,0,.14.81l.15.17L13.24,26.49a5.23,5.23,0,0,0,.56.48h.4a3.25,3.25,0,0,0,.42-.31L25,15.51A.77.77,0,0,0,25.19,14.62ZM14,25.11,5.23,15.67H7.39c.63,0,.91-.28.91-.91v-11c0-.55.22-.88.67-1a1.12,1.12,0,0,1,.32,0h9.42a.88.88,0,0,1,1,1V14.89a.76.76,0,0,0,.8.78h2.26Zm.88-15c-.54,0-1.09,0-1.63,0a.85.85,0,0,1-.81-.46.86.86,0,0,1,.79-1.27h2.26A1.29,1.29,0,0,0,16,8.3a.74.74,0,0,0-.3-1.4c-.3,0-.6,0-.91,0,0-.31,0-.58,0-.84a.75.75,0,1,0-1.5,0v.82l-.26,0a2.35,2.35,0,0,0-2.16,2.26,2.31,2.31,0,0,0,2,2.42c.6.07,1.2,0,1.81.05a1.26,1.26,0,0,1,.39,0,.85.85,0,0,1-.26,1.67H12.52c-.54,0-.88.29-.88.75s.34.76.89.76h.72v.83a.76.76,0,1,0,1.51,0V14.9a6.58,6.58,0,0,0,.82-.18,2.36,2.36,0,0,0-.7-4.59Z"/></g></g></svg>