<svg xmlns="http://www.w3.org/2000/svg" viewBox="0 0 28 28"><defs><style>.cls-1{fill:none;}.cls-2{fill:#0091ff;}</style></defs><g id="Layer_2" data-name="Layer 2"><g id="Layer_1-2" data-name="Layer 1"><rect class="cls-1" width="28" height="28"/><rect class="cls-1" x="8.2" y="7.98" width="11.72" height="11.35"/><path class="cls-2" d="M25.56,12.76a.43.43,0,0,1-.18-.26c-.1-.63-.13-1.27-.28-1.89A11.48,11.48,0,0,0,11.17,2.33,11.2,11.2,0,0,0,2.5,12.46a.33.33,0,0,1-.21.32A2.34,2.34,0,0,0,.93,14.71a27.33,27.33,0,0,0,0,3.62,2.54,2.54,0,0,0,2.19,2.22A1.74,1.74,0,0,0,5.31,18.8c0-1.54,0-3.07,0-4.6a1.67,1.67,0,0,0-1.22-1.66l-.34-.08A10.09,10.09,0,0,1,14.4,3.22a10,10,0,0,1,9.71,9.24l-.22.06a1.64,1.64,0,0,0-1.32,1.55c0,1.63,0,3.26,0,4.9a1.64,1.64,0,0,0,1.21,1.53l.36.09c0,.44,0,.87,0,1.31A2.43,2.43,0,0,1,22,24.18c-.71.07-1.43,0-2.15,0-.06,0-.15-.08-.19-.15A1.8,1.8,0,0,0,18,23Q17,23,15.91,23a1.82,1.82,0,0,0-1.79,1.85A1.85,1.85,0,0,0,16,26.65H17.9a1.88,1.88,0,0,0,1.75-1.06.24.24,0,0,1,.27-.16h1.74a3.72,3.72,0,0,0,3.67-3.07,13.69,13.69,0,0,0,.06-1.81.28.28,0,0,1,.18-.29A2.53,2.53,0,0,0,27,18q0-1.43,0-2.85A2.57,2.57,0,0,0,25.56,12.76ZM4.06,14.21c0,.77,0,1.54,0,2.31v2.26c0,.45-.2.62-.66.58A1.4,1.4,0,0,1,2.13,18c0-1,0-2,0-3a1.41,1.41,0,0,1,1.34-1.36C3.86,13.66,4.06,13.83,4.06,14.21ZM17.91,25.45H16a.62.62,0,1,1,0-1.23h1.9a.61.61,0,0,1,.65.63A.62.62,0,0,1,17.91,25.45ZM25.74,18a1.41,1.41,0,0,1-1.31,1.34c-.42,0-.62-.15-.62-.55V14.24c0-.43.2-.6.65-.56A1.4,1.4,0,0,1,25.74,15C25.76,16,25.76,17,25.74,18Zm-10.15.42.12-1.12a.11.11,0,0,1,.08-.1l.64-.36a.15.15,0,0,1,.16,0l1,.45a.35.35,0,0,0,.51-.16l1.14-1.89a.33.33,0,0,0-.11-.49l-.94-.65a.11.11,0,0,1-.06-.12v-.7a.14.14,0,0,1,.06-.13l.92-.63a.33.33,0,0,0,.12-.52l-1.12-1.86a.36.36,0,0,0-.53-.16l-1,.45a.17.17,0,0,1-.15,0c-.21-.12-.42-.24-.64-.35a.15.15,0,0,1-.08-.11c0-.35-.08-.7-.11-1.05a.41.41,0,0,0-.26-.39H12.78a.42.42,0,0,0-.26.39c0,.35-.07.7-.11,1.05a.12.12,0,0,1-.07.11l-.65.35a.16.16,0,0,1-.15,0l-1-.45a.36.36,0,0,0-.54.17c-.38.61-.75,1.23-1.12,1.84l-.08.16v.14a.49.49,0,0,0,.22.25l.89.61a.15.15,0,0,1,.07.13c0,.23,0,.47,0,.7a.14.14,0,0,1-.07.13L9,14.74a.49.49,0,0,0-.22.25v.14c.23.4.47.8.71,1.19s.33.56.5.84a.35.35,0,0,0,.49.15l1.06-.45a.14.14,0,0,1,.16,0l.63.35a.12.12,0,0,1,.08.12l.12,1.12a.34.34,0,0,0,.36.31h2.35A.33.33,0,0,0,15.59,18.45Zm-.54-1.38c0,.33-.06.66-.1,1v.05H13.18c0-.2,0-.4-.07-.6s0-.35-.06-.53a.3.3,0,0,0-.2-.26,3.76,3.76,0,0,1-1-.54.35.35,0,0,0-.37,0l-.95.41-.1,0-.89-1.45.53-.36.41-.29a.32.32,0,0,0,.16-.34,3,3,0,0,1,0-1,.35.35,0,0,0-.16-.35l-.84-.57-.1-.07.89-1.45,1,.43a.44.44,0,0,0,.51-.06,3.11,3.11,0,0,1,.82-.45.41.41,0,0,0,.3-.4c0-.33.07-.67.11-1H15c0,.27.06.54.08.81,0,.1,0,.21,0,.32a.33.33,0,0,0,.21.26,3.55,3.55,0,0,1,1,.54.38.38,0,0,0,.37,0l1.06-.46.88,1.45-.1.07c-.27.19-.54.38-.82.56a.36.36,0,0,0-.17.38,3.42,3.42,0,0,1,0,1,.33.33,0,0,0,.16.36l.93.64-.88,1.45L17,16.34l-.38-.17a.41.41,0,0,0-.47.06,3.13,3.13,0,0,1-.84.46A.41.41,0,0,0,15.05,17.07Zm-1-4.84a1.42,1.42,0,1,0,1.47,1.42A1.44,1.44,0,0,0,14.06,12.23Z"/></g></g></svg>