<svg xmlns="http://www.w3.org/2000/svg" viewBox="0 0 28 28"><defs><style>.cls-1,.cls-3{fill:none;}.cls-2{fill:#0091ff;}.cls-3{stroke:#0091ff;stroke-miterlimit:10;stroke-width:0.28px;}</style></defs><g id="Layer_2" data-name="Layer 2"><g id="Layer_1-2" data-name="Layer 1"><rect class="cls-1" width="28" height="28"/><path class="cls-2" d="M26.65,23.45c-.49,0-1,0-1.5,0V14.25a2.81,2.81,0,0,0,0-.29.54.54,0,0,0-.54-.52A.56.56,0,0,0,24,14a2.26,2.26,0,0,0,0,.26v9.22H4c0-.06,0-.1,0-.15v-12A1.11,1.11,0,0,1,5.13,10.1H8.86c.42,0,.68-.22.68-.56S9.28,9,8.88,9C7.63,9,6.37,9,5.12,9a2.4,2.4,0,0,0-.84.15,2.18,2.18,0,0,0-1.43,2.2V23.46c-.53,0-1,0-1.5,0a.67.67,0,0,0-.73.43v.31a.73.73,0,0,0,.75.38c.87,0,1.74,0,2.61,0H26.63a.76.76,0,0,0,.75-.38v-.31A.69.69,0,0,0,26.65,23.45ZM10.91,11.1l1.09.26,1.2.29a.64.64,0,0,0,.16.92c1.27,1.25,2.52,2.51,3.78,3.76.3.31.47.34.88.14a1.45,1.45,0,0,0,.06.19c.16.69.33,1.37.49,2.06a.58.58,0,0,0,.43.5.56.56,0,0,0,.6-.22c.23-.28.48-.56.68-.86a9.55,9.55,0,0,0,1.42-4.76.59.59,0,0,1,.16-.38,14,14,0,0,0,3.06-4.06,11.57,11.57,0,0,0,1.34-4.78c0-.52-.18-.77-.69-.73A11.2,11.2,0,0,0,24,3.61a13.81,13.81,0,0,0-7.32,4.17.67.67,0,0,1-.47.22,19.45,19.45,0,0,0-2,.29,7.34,7.34,0,0,0-3.57,1.79.58.58,0,0,0-.2.61A.56.56,0,0,0,10.91,11.1Zm8.5,6.34c-.15-.62-.28-1.18-.42-1.74,0,0,0-.12,0-.14l1.47-1.34A7.94,7.94,0,0,1,19.41,17.44ZM18,8.09a12.18,12.18,0,0,1,6.57-3.45l.59-.07c-.12.56-.19,1.1-.34,1.62a12.82,12.82,0,0,1-4,6.25c-1,.87-2,1.77-2.95,2.66l-.17.15L14.42,12c.11-.12.22-.26.35-.39C15.84,10.43,16.86,9.21,18,8.09Zm-2.6,1.16-.23.25c-.32.35-.63.71-1,1.06-.06.06-.17.13-.24.11l-1.74-.4A7.09,7.09,0,0,1,15.39,9.25ZM10.28,20.09l.6-.19a17.53,17.53,0,0,0,3.4-1.37,2.24,2.24,0,0,0,1-2.57,2.36,2.36,0,0,0-2.41-1.69,2.11,2.11,0,0,0-1.77,1.09,18.43,18.43,0,0,0-1.57,4.07A.54.54,0,0,0,10.28,20.09Zm1.85-4.21a1.11,1.11,0,0,1,1.18-.48,1.18,1.18,0,0,1,1,1,1.11,1.11,0,0,1-.53,1.21c-.67.32-1.37.6-2.05.89-.22.09-.46.16-.73.25A14.78,14.78,0,0,1,12.13,15.88Z"/><path class="cls-3" d="M26.65,23.45c-.49,0-1,0-1.5,0V14.25a2.81,2.81,0,0,0,0-.29.54.54,0,0,0-.54-.52A.56.56,0,0,0,24,14a2.26,2.26,0,0,0,0,.26v9.22H4c0-.06,0-.1,0-.15v-12A1.11,1.11,0,0,1,5.13,10.1H8.86c.42,0,.68-.22.68-.56S9.28,9,8.88,9C7.63,9,6.37,9,5.12,9a2.4,2.4,0,0,0-.84.15,2.18,2.18,0,0,0-1.43,2.2V23.46c-.53,0-1,0-1.5,0a.67.67,0,0,0-.73.43v.31a.73.73,0,0,0,.75.38c.87,0,1.74,0,2.61,0H26.63a.76.76,0,0,0,.75-.38v-.31A.69.69,0,0,0,26.65,23.45ZM10.91,11.1l1.09.26,1.2.29a.64.64,0,0,0,.16.92c1.27,1.25,2.52,2.51,3.78,3.76.3.31.47.34.88.14a1.45,1.45,0,0,0,.06.19c.16.69.33,1.37.49,2.06a.58.58,0,0,0,.43.5.56.56,0,0,0,.6-.22c.23-.28.48-.56.68-.86a9.55,9.55,0,0,0,1.42-4.76.59.59,0,0,1,.16-.38,14,14,0,0,0,3.06-4.06,11.57,11.57,0,0,0,1.34-4.78c0-.52-.18-.77-.69-.73A11.2,11.2,0,0,0,24,3.61a13.81,13.81,0,0,0-7.32,4.17.67.67,0,0,1-.47.22,19.45,19.45,0,0,0-2,.29,7.34,7.34,0,0,0-3.57,1.79.58.58,0,0,0-.2.61A.56.56,0,0,0,10.91,11.1Zm8.5,6.34c-.15-.62-.28-1.18-.42-1.74,0,0,0-.12,0-.14l1.47-1.34A7.94,7.94,0,0,1,19.41,17.44ZM18,8.09a12.18,12.18,0,0,1,6.57-3.45l.59-.07c-.12.56-.19,1.1-.34,1.62a12.82,12.82,0,0,1-4,6.25c-1,.87-2,1.77-2.95,2.66l-.17.15L14.42,12c.11-.12.22-.26.35-.39C15.84,10.43,16.86,9.21,18,8.09Zm-2.6,1.16-.23.25c-.32.35-.63.71-1,1.06-.06.06-.17.13-.24.11l-1.74-.4A7.09,7.09,0,0,1,15.39,9.25ZM10.28,20.09l.6-.19a17.53,17.53,0,0,0,3.4-1.37,2.24,2.24,0,0,0,1-2.57,2.36,2.36,0,0,0-2.41-1.69,2.11,2.11,0,0,0-1.77,1.09,18.43,18.43,0,0,0-1.57,4.07A.54.54,0,0,0,10.28,20.09Zm1.85-4.21a1.11,1.11,0,0,1,1.18-.48,1.18,1.18,0,0,1,1,1,1.11,1.11,0,0,1-.53,1.21c-.67.32-1.37.6-2.05.89-.22.09-.46.16-.73.25A14.78,14.78,0,0,1,12.13,15.88Z"/></g></g></svg>