<svg xmlns="http://www.w3.org/2000/svg" viewBox="0 0 28 28"><defs><style>.cls-1{fill:none;}.cls-2{fill:#0091ff;}</style></defs><g id="Layer_2" data-name="Layer 2"><g id="Layer_1-2" data-name="Layer 1"><rect class="cls-1" width="28" height="28"/><path class="cls-2" d="M26.87,16.76v-.7c0-.16-.07-.32-.12-.48a2.82,2.82,0,0,0-1-1.5A2.9,2.9,0,0,0,23.2,9.73h-5l.13-.29a20.06,20.06,0,0,0,1.34-3.61,5.4,5.4,0,0,0,.11-2.12,3.22,3.22,0,0,0-2.58-2.53L17,1.13h-.75l0,0a3.23,3.23,0,0,0-2.54,2.31,21.22,21.22,0,0,1-.91,2.33,11.72,11.72,0,0,1-2.56,3.33,5.24,5.24,0,0,1-2.92,1.4,21.84,21.84,0,0,1-2.43.1,3.67,3.67,0,0,0-3.7,3.47c-.07,1.62,0,3.24,0,4.85a1,1,0,0,0,.71.93,1,1,0,0,0,1.29-1c0-1.49,0-3,0-4.49a1.7,1.7,0,0,1,1.75-1.75c.53,0,1,0,1.58,0a7.83,7.83,0,0,0,5.33-2.26,14.2,14.2,0,0,0,3.75-6.14A3,3,0,0,1,16,3.45a.77.77,0,0,1,.74-.3,1.12,1.12,0,0,1,1.06,1,4.17,4.17,0,0,1-.27,2,32.21,32.21,0,0,1-1.78,4.09,1,1,0,0,0,1,1.56h6.48a.84.84,0,0,1,.87.58.86.86,0,0,1-.85,1.17H20.79a1,1,0,0,0-1,.69,1,1,0,0,0,1,1.31h3.14a.88.88,0,1,1,0,1.75H20.8a1,1,0,1,0,0,2h3a.88.88,0,1,1,0,1.75h-3a1.33,1.33,0,0,0-.58.13A1,1,0,0,0,20.73,23c.55,0,1.11,0,1.66,0a.84.84,0,0,1,.68.32.89.89,0,0,1-.7,1.49H12.3a1,1,0,0,0-1,.71,1,1,0,0,0,1.05,1.29h10a2.91,2.91,0,0,0,2.65-4.09,2.93,2.93,0,0,0,1.05-4.39,5.67,5.67,0,0,0,.45-.72C26.7,17.37,26.77,17.06,26.87,16.76Zm-12.18.62a1,1,0,0,0-1.49.14l-6,6.75a1.39,1.39,0,0,1-2.23.05c-.68-.69-1.35-1.38-2-2.06a1,1,0,0,0-1.44,0,1,1,0,0,0,0,1.44c.74.76,1.48,1.52,2.24,2.26a3.34,3.34,0,0,0,4.83-.19l6.17-6.88A1,1,0,0,0,14.69,17.38Z"/></g></g></svg>