<svg xmlns="http://www.w3.org/2000/svg" viewBox="0 0 28 28"><defs><style>.cls-1{fill:none;}.cls-2{fill:#0091ff;}</style></defs><g id="Layer_2" data-name="Layer 2"><g id="Layer_1-2" data-name="Layer 1"><rect class="cls-1" width="28" height="28"/><path class="cls-2" d="M1.17,24.92c.06-.25.1-.5.18-.75a3.89,3.89,0,0,1,1.9-2.27.64.64,0,0,0,.14-.08,10.29,10.29,0,0,1-.57-1.4,3.33,3.33,0,0,1,5.94-2.73.38.38,0,0,0,.53.16l2.56-.79c.12,0,.2-.08.22-.24A2.28,2.28,0,0,1,13.46,15a.26.26,0,0,0,.13-.18c0-1.06,0-2.11,0-3.21H10.35a.78.78,0,0,1-.88-.87A10.5,10.5,0,0,1,9.6,8.82a3.7,3.7,0,0,1,2-2.49l.21-.11a3.38,3.38,0,0,1-.62-3.06,3.35,3.35,0,0,1,6.56.62A3.36,3.36,0,0,1,17,6.22,4.06,4.06,0,0,1,18.54,7.5a3.86,3.86,0,0,1,.73,2.19v1a.78.78,0,0,1-.86.86H15.14V13c0,.58,0,1.17,0,1.75a.34.34,0,0,0,.14.25,2.36,2.36,0,0,1,1.39,1.86c0,.08.06.19.12.21,1,.32,2,.62,3,.93a3.37,3.37,0,1,1,5.52,3.84l.21.12a3.83,3.83,0,0,1,2.07,3.39c0,.27,0,.53,0,.8a1,1,0,0,1-.58,1H18.34a.94.94,0,0,1-.57-1c0-.26,0-.52,0-.77a3.85,3.85,0,0,1,1.81-3.26c.15-.11.32-.19.49-.29a3.47,3.47,0,0,1-.76-2.24c0-.05-.09-.13-.15-.15-.92-.3-1.85-.59-2.78-.86a.29.29,0,0,0-.27.09,2.31,2.31,0,0,1-3.48,0,.24.24,0,0,0-.3-.09c-.9.29-1.8.57-2.71.84-.17.05-.21.14-.21.31a3.17,3.17,0,0,1-.57,1.86,2,2,0,0,1-.18.26l.28.14a3.89,3.89,0,0,1,1.87,2.3A6.9,6.9,0,0,1,11,26.1a1,1,0,0,1-.57,1H1.73a1.24,1.24,0,0,1-.56-.57ZM11,10H17.7a2.3,2.3,0,0,0-2.21-2.55c-.72,0-1.44,0-2.16,0A2.32,2.32,0,0,0,11,10ZM2.73,25.57H9.4a2.23,2.23,0,0,0-1.94-2.5,12.22,12.22,0,0,0-2.77,0A2.25,2.25,0,0,0,2.73,25.57Zm23.28,0A2.33,2.33,0,0,0,23.68,23H21.62a2.22,2.22,0,0,0-1.44.53,2.28,2.28,0,0,0-.85,2ZM12.56,4.1a1.81,1.81,0,1,0,1.8-1.82A1.81,1.81,0,0,0,12.56,4.1ZM7.87,19.66a1.81,1.81,0,1,0-1.8,1.8A1.81,1.81,0,0,0,7.87,19.66Zm13,0a1.81,1.81,0,1,0,1.79-1.81A1.8,1.8,0,0,0,20.87,19.67Zm-5.73-2.58a.77.77,0,0,0-1.54,0,.77.77,0,1,0,1.54,0Z"/></g></g></svg>