<svg xmlns="http://www.w3.org/2000/svg" viewBox="0 0 28 28"><defs><style>.cls-1{fill:none;}.cls-2{fill:#0091ff;}</style></defs><g id="Layer_2" data-name="Layer 2"><g id="Layer_1-2" data-name="Layer 1"><rect class="cls-1" width="28" height="28"/><path class="cls-2" d="M26.24,20.68c-.51,0-1,0-1.53,0s-.58-.11-.72-.53-.31-1-.47-1.45-.32-.56-.64-.56-.52.16-.65.55l-.46,1.42c-.15.47-.28.57-.77.57H19.37a.64.64,0,0,0-.71.46.66.66,0,0,0,.3.79l1.34,1a.66.66,0,0,1,.27.87c-.17.5-.35,1-.52,1.51a.62.62,0,0,0,.18.8.68.68,0,0,0,.85,0l1.34-1a.66.66,0,0,1,.91,0c.45.33.9.66,1.36,1a.65.65,0,0,0,.83,0,.63.63,0,0,0,.19-.78l-.54-1.56a.64.64,0,0,1,.26-.83c.4-.29.82-.57,1.21-.88a4.35,4.35,0,0,0,.48-.48v-.4A.81.81,0,0,0,26.24,20.68Zm-20-4.3a1.12,1.12,0,0,0,.89-.56,8.47,8.47,0,0,1,8.37-3.64,8.36,8.36,0,0,1,5.94,3.68,1,1,0,1,0,1.64-1.14A10.55,10.55,0,0,0,18.52,11c-.19-.09-.39-.17-.6-.25a5.66,5.66,0,1,0-7.21,0,11,11,0,0,0-2.87,1.54A10.79,10.79,0,0,0,5.41,14.8a1,1,0,0,0,.84,1.58ZM10.67,6.32A3.65,3.65,0,1,1,14.32,10,3.66,3.66,0,0,1,10.67,6.32ZM17.8,17.19H16.13c-.42,0-.55-.11-.68-.5L15,15.17c-.12-.37-.32-.53-.64-.53s-.51.16-.63.53-.35,1-.5,1.54a.59.59,0,0,1-.6.47h-.95c-.28,0-.57,0-.85,0a.62.62,0,0,0-.68.46.65.65,0,0,0,.28.78l1.28.92a.7.7,0,0,1,.32,1l-.49,1.44a.62.62,0,0,0,.18.8.68.68,0,0,0,.85,0l1.34-1a.67.67,0,0,1,.91,0c.45.33.9.66,1.36,1a.65.65,0,0,0,.83,0,.63.63,0,0,0,.19-.78c-.17-.5-.35-1-.53-1.51a.68.68,0,0,1,.29-.91l1.29-.93a.67.67,0,0,0,.33-.81C18.43,17.32,18.22,17.19,17.8,17.19Zm-8.56,3.5H7.59c-.43,0-.56-.11-.69-.51s-.33-1-.49-1.49-.32-.54-.63-.54-.53.16-.65.54-.34,1-.5,1.54a.58.58,0,0,1-.58.46h-1c-.28,0-.55,0-.83,0a.64.64,0,0,0-.69.45.67.67,0,0,0,.29.8l1.32.95a.67.67,0,0,1,.28.92c-.17.52-.37,1-.52,1.54a.83.83,0,0,0,0,.56.62.62,0,0,0,1,.18c.46-.32.92-.66,1.37-1a.68.68,0,0,1,.94,0l1.33,1a.69.69,0,0,0,.84,0,.64.64,0,0,0,.19-.8l-.51-1.49a.66.66,0,0,1,.29-.92L9.65,22a.68.68,0,0,0,.33-.83C9.87,20.82,9.66,20.69,9.24,20.69Z"/></g></g></svg>