<svg xmlns="http://www.w3.org/2000/svg" viewBox="0 0 28 28"><defs><style>.cls-1{fill:none;}.cls-2{fill:#0091ff;}</style></defs><g id="Layer_2" data-name="Layer 2"><g id="Layer_1-2" data-name="Layer 1"><rect class="cls-1" width="28" height="28"/><path class="cls-2" d="M14,7.46a6.81,6.81,0,0,0-6.86,6.73,6.86,6.86,0,0,0,13.72,0A6.82,6.82,0,0,0,14,7.46Zm0,11.9a5.16,5.16,0,1,1,5.24-5.16A5.23,5.23,0,0,1,14,19.36ZM25.64,6.87a2.71,2.71,0,0,0-.56-1.54,3,3,0,0,0-2.42-1.21,11.42,11.42,0,0,1-6.48-2.33c-.41-.32-.78-.68-1.19-1A1.6,1.6,0,0,0,13.24.65a5.79,5.79,0,0,0-1,.74A11.24,11.24,0,0,1,10,2.89,11.74,11.74,0,0,1,5.27,4.12a3,3,0,0,0-3,3.05c0,1.67,0,3.35,0,5a20.87,20.87,0,0,0,.8,5.26,13.74,13.74,0,0,0,5.43,7.61,18.48,18.48,0,0,0,5.16,2.48h.54a3.88,3.88,0,0,0,.45-.14,19.45,19.45,0,0,0,4.24-2,13.73,13.73,0,0,0,4.66-4.95,17.92,17.92,0,0,0,2-7.37A53.1,53.1,0,0,0,25.64,6.87Zm-2,8.53A12.63,12.63,0,0,1,16.35,25c-.69.33-1.42.6-2.13.88a.64.64,0,0,1-.41,0A16.26,16.26,0,0,1,8.6,23.09a12.29,12.29,0,0,1-4.09-6.7,25.73,25.73,0,0,1-.64-6.19c0-1,0-2.09,0-3.14A1.28,1.28,0,0,1,5.09,5.74c.83-.12,1.68-.17,2.5-.34a12.1,12.1,0,0,0,6-3.07c.36-.33.37-.33.73,0a12.18,12.18,0,0,0,6,3.07c.82.17,1.66.22,2.5.34A1.27,1.27,0,0,1,24,7.05c0,1,0,2,0,3A25.6,25.6,0,0,1,23.66,15.4Zm-7.55-3.35-.24.21L13.06,15a2.28,2.28,0,0,0-.18.26L12,14.43a.8.8,0,0,0-.73-.26.76.76,0,0,0-.64.54.77.77,0,0,0,.19.8l1.33,1.31a.85.85,0,0,0,1.37,0l3.53-3.47c.06-.07.13-.13.18-.2a.77.77,0,0,0-.08-1A.79.79,0,0,0,16.11,12.05Z"/></g></g></svg>