<svg xmlns="http://www.w3.org/2000/svg" viewBox="0 0 28 28"><defs><style>.cls-1,.cls-3{fill:none;}.cls-2{fill:#0091ff;}.cls-3{stroke:#0091ff;stroke-miterlimit:10;stroke-width:0.28px;}</style></defs><g id="Layer_2" data-name="Layer 2"><g id="Layer_1-2" data-name="Layer 1"><rect class="cls-1" width="28" height="28"/><path class="cls-2" d="M26.86,23.61c-.5,0-1,0-1.53,0V14.25c0-.09,0-.19,0-.29a.54.54,0,0,0-.55-.53.58.58,0,0,0-.57.53v9.63H3.81a.81.81,0,0,1,0-.15V11.2A1.12,1.12,0,0,1,5,10h3.8c.42,0,.69-.22.69-.57s-.26-.56-.67-.56c-1.28,0-2.55,0-3.83,0a2.5,2.5,0,0,0-.85.15,2.23,2.23,0,0,0-1.45,2.24v12.3c-.54,0-1,0-1.53,0A.67.67,0,0,0,.4,24v.31a.77.77,0,0,0,.77.39H26.83a.79.79,0,0,0,.77-.39V24A.67.67,0,0,0,26.86,23.61Zm-16-12.56,1.11.26,1.22.3a.67.67,0,0,0,.16.94c1.29,1.27,2.56,2.55,3.84,3.82a.62.62,0,0,0,.89.14,1.08,1.08,0,0,1,.06.2c.17.69.34,1.39.5,2.08a.6.6,0,0,0,.44.51.56.56,0,0,0,.61-.22c.23-.29.49-.56.69-.87a9.66,9.66,0,0,0,1.44-4.84A.58.58,0,0,1,22,13,14.44,14.44,0,0,0,25.1,8.86,12,12,0,0,0,26.46,4c0-.53-.18-.78-.71-.74a11.5,11.5,0,0,0-1.55.18,14,14,0,0,0-7.43,4.24.72.72,0,0,1-.48.22c-.69.09-1.39.15-2.07.29A7.44,7.44,0,0,0,10.6,10a.58.58,0,0,0-.21.62A.54.54,0,0,0,10.86,11.05ZM19.5,17.5c-.15-.64-.29-1.21-.42-1.78a.17.17,0,0,1,0-.14l1.5-1.35A8.19,8.19,0,0,1,19.5,17.5ZM18.05,8a12.45,12.45,0,0,1,6.68-3.51c.17,0,.35,0,.6-.07-.12.57-.19,1.12-.35,1.64a13.06,13.06,0,0,1-4.07,6.36c-1,.88-2,1.79-3,2.69l-.18.16L14.43,12c.1-.13.22-.26.35-.4C15.87,10.38,16.91,9.14,18.05,8ZM15.41,9.17c-.07.09-.15.17-.23.26l-1,1.08a.35.35,0,0,1-.24.11l-1.77-.41A7.19,7.19,0,0,1,15.41,9.17Zm-5.19,11c.2-.05.41-.11.61-.18a19.54,19.54,0,0,0,3.46-1.39A2.29,2.29,0,0,0,15.34,16a2.4,2.4,0,0,0-2.45-1.72,2.15,2.15,0,0,0-1.79,1.11,19.77,19.77,0,0,0-1.61,4.13A.55.55,0,0,0,10.22,20.18Zm1.88-4.27a1.14,1.14,0,0,1,1.2-.49,1.2,1.2,0,0,1,1,1,1.11,1.11,0,0,1-.53,1.23c-.68.33-1.39.61-2.09.9l-.74.26A15.31,15.31,0,0,1,12.1,15.91Z"/><path class="cls-3" d="M26.86,23.61c-.5,0-1,0-1.53,0V14.25c0-.09,0-.19,0-.29a.54.54,0,0,0-.55-.53.58.58,0,0,0-.57.53v9.63H3.81a.81.81,0,0,1,0-.15V11.2A1.12,1.12,0,0,1,5,10h3.8c.42,0,.69-.22.69-.57s-.26-.56-.67-.56c-1.28,0-2.55,0-3.83,0a2.5,2.5,0,0,0-.85.15,2.23,2.23,0,0,0-1.45,2.24v12.3c-.54,0-1,0-1.53,0A.67.67,0,0,0,.4,24v.31a.77.77,0,0,0,.77.39H26.83a.79.79,0,0,0,.77-.39V24A.67.67,0,0,0,26.86,23.61Zm-16-12.56,1.11.26,1.22.3a.67.67,0,0,0,.16.94c1.29,1.27,2.56,2.55,3.84,3.82a.62.62,0,0,0,.89.14,1.08,1.08,0,0,1,.06.2c.17.69.34,1.39.5,2.08a.6.6,0,0,0,.44.51.56.56,0,0,0,.61-.22c.23-.29.49-.56.69-.87a9.66,9.66,0,0,0,1.44-4.84A.58.58,0,0,1,22,13,14.44,14.44,0,0,0,25.1,8.86,12,12,0,0,0,26.46,4c0-.53-.18-.78-.71-.74a11.5,11.5,0,0,0-1.55.18,14,14,0,0,0-7.43,4.24.72.72,0,0,1-.48.22c-.69.09-1.39.15-2.07.29A7.44,7.44,0,0,0,10.6,10a.58.58,0,0,0-.21.62A.54.54,0,0,0,10.86,11.05ZM19.5,17.5c-.15-.64-.29-1.21-.42-1.78a.17.17,0,0,1,0-.14l1.5-1.35A8.19,8.19,0,0,1,19.5,17.5ZM18.05,8a12.45,12.45,0,0,1,6.68-3.51c.17,0,.35,0,.6-.07-.12.57-.19,1.12-.35,1.64a13.06,13.06,0,0,1-4.07,6.36c-1,.88-2,1.79-3,2.69l-.18.16L14.43,12c.1-.13.22-.26.35-.4C15.87,10.38,16.91,9.14,18.05,8ZM15.41,9.17c-.07.09-.15.17-.23.26l-1,1.08a.35.35,0,0,1-.24.11l-1.77-.41A7.19,7.19,0,0,1,15.41,9.17Zm-5.19,11c.2-.05.41-.11.61-.18a19.54,19.54,0,0,0,3.46-1.39A2.29,2.29,0,0,0,15.34,16a2.4,2.4,0,0,0-2.45-1.72,2.15,2.15,0,0,0-1.79,1.11,19.77,19.77,0,0,0-1.61,4.13A.55.55,0,0,0,10.22,20.18Zm1.88-4.27a1.14,1.14,0,0,1,1.2-.49,1.2,1.2,0,0,1,1,1,1.11,1.11,0,0,1-.53,1.23c-.68.33-1.39.61-2.09.9l-.74.26A15.31,15.31,0,0,1,12.1,15.91Z"/></g></g></svg>