<?xml version="1.0" encoding="UTF-8"?>
<svg id="Layer_2" data-name="Layer 2" xmlns="http://www.w3.org/2000/svg" viewBox="0 0 80 80">
  <defs>
    <style>
      .cls-1 {
        fill: #ffffff;
      }

      .cls-2 {
        fill: none;
      }
    </style>
  </defs>
  <g id="Layer_1-2" data-name="Layer 1">
    <g>
      <rect class="cls-2" width="80" height="80"/>
      <g>
        <rect class="cls-2" width="80" height="80"/>
        <g>
          <path class="cls-1" d="m54.81,79.47c-1.49-.35-3.03-.57-4.47-1.07-4.6-1.61-7.99-4.65-10.18-8.99-.28-.55-.58-.76-1.21-.76-10.15.02-20.3.02-30.45.02-2.2,0-3.01-.82-3.01-3.04,0-6.63,0-13.25,0-19.88,0-6.66,3.49-11.39,9.84-13.36.91-.28,1.81-.57,2.72-.84,1.61-.48,2.7.06,3.28,1.65,1.45,3.95,2.88,7.9,4.32,11.85.14.38.28.76.57,1.14.37-1.57.64-3.17,1.14-4.7.53-1.64.38-3.06-.68-4.43-.53-.68-.91-1.49-1.32-2.26-.83-1.53,0-2.97,1.73-3,1.67-.04,3.34-.03,5.01,0,1.77.04,2.59,1.49,1.72,3.06-.71,1.28-1.47,2.53-2.18,3.81-.14.25-.26.59-.2.84.47,2.15.98,4.3,1.48,6.45.01.06.07.12.16.27.12-.3.22-.52.31-.74,1.48-4.05,2.95-8.09,4.43-12.14.65-1.79,1.68-2.31,3.47-1.74,2.1.67,4.26,1.14,6.16,2.35,3.18,2.01,5.17,4.84,5.95,8.52.05.23.09.45.15.68.02.07.05.14.09.22.82-.05,1.64-.12,2.45-.13,8.76-.13,16.38,6.06,18.06,14.66,1.89,9.73-4.5,19.26-14.22,21.22-.68.14-1.36.24-2.04.36h-3.08Zm1.58-4.66c7.43-.04,13.49-6.14,13.42-13.53-.07-7.43-6.08-13.42-13.47-13.4-7.42.02-13.47,6.11-13.42,13.53.05,7.41,6.11,13.44,13.47,13.41Zm-46.12-10.87h17.38c-3.36-9.17-6.7-18.25-10.04-27.36-.58.18-1.1.32-1.6.49-3.43,1.19-5.69,4.04-5.75,7.67-.1,6.29-.04,12.58-.04,18.87,0,.1.04.2.06.33Zm31.35-27.34c-3.34,9.09-6.67,18.17-10.04,27.34h6.8c-.02-.29-.03-.51-.05-.74-.63-7.6,3.07-14.48,9.61-17.9q1.22-.64.9-2c-.91-3.8-3.47-5.83-7.21-6.71Z"/>
          <path class="cls-1" d="m29.6,26.94c-7.31-.02-13.22-5.96-13.18-13.26.03-7.26,5.98-13.17,13.23-13.15,7.29.02,13.22,5.99,13.18,13.27-.05,7.29-5.95,13.16-13.22,13.14Zm.02-4.66c4.7,0,8.54-3.82,8.55-8.51,0-4.69-3.8-8.53-8.5-8.58-4.68-.04-8.61,3.87-8.6,8.57,0,4.68,3.85,8.51,8.55,8.52Z"/>
          <path class="cls-1" d="m54.15,62.7c.39-.46.68-.85,1.02-1.19,2.06-2.08,4.13-4.15,6.21-6.21,1.06-1.05,2.48-1.09,3.43-.14.95.94.91,2.39-.13,3.43-2.93,2.95-5.87,5.89-8.83,8.82-1.11,1.1-2.41,1.08-3.54-.02-1.43-1.4-2.85-2.82-4.25-4.24-1.05-1.07-1.1-2.47-.16-3.43.96-.98,2.34-.95,3.43.11.92.89,1.79,1.83,2.82,2.88Z"/>
        </g>
      </g>
    </g>
  </g>
</svg>