<?xml version="1.0" encoding="UTF-8"?>
<svg id="Layer_2" data-name="Layer 2" xmlns="http://www.w3.org/2000/svg" viewBox="0 0 40 40">
  <defs>
    <style>
      .cls-1 {
        fill: #0091ff;
      }

      .cls-2 {
        fill: none;
      }
    </style>
  </defs>
  <g id="Layer_1-2" data-name="Layer 1">
    <g>
      <rect class="cls-2" width="40" height="40"/>
      <g>
        <path class="cls-1" d="m11.53,20.93c0-1.31,0-1.33,1.34-1.3.4,0,.56-.11.68-.49.2-.59.49-1.15.78-1.71.11-.21.1-.33-.07-.49-.22-.2-.43-.41-.64-.62-.29-.29-.28-.6,0-.89.32-.33.66-.64.99-.96.3-.29.62-.28.93-.03.34.27.64.72,1,.76.36.04.77-.34,1.17-.5.32-.13.65-.23.99-.31.29-.07.38-.22.37-.5-.07-1.55.18-1.43,1.48-1.42,1.28,0,1.32.01,1.28,1.24-.01.46.16.62.59.75.57.17,1.12.43,1.65.69.25.13.4.13.58-.07.19-.21.4-.4.61-.59.3-.28.62-.28.92,0,.35.32.7.65,1.03.98.28.28.26.58,0,.86-.29.32-.76.59-.82.94-.06.32.33.72.51,1.08.09.2.17.4.23.61.26.86.09.71,1.03.73.15,0,.3,0,.45,0,.38.05.61.25.61.63,0,.47,0,.93,0,1.4,0,.41-.26.68-.66.61-1.01-.18-1.43.27-1.61,1.16-.07.36-.31.69-.52,1.01-.16.24-.13.38.08.56.2.17.39.36.58.55.32.33.34.6.03.92-.33.34-.67.67-1.02.99-.29.26-.6.24-.89,0-.33-.28-.62-.73-.98-.79-.34-.05-.74.32-1.13.49-.2.09-.42.17-.64.23-.93.25-.73.13-.75.95,0,.16.01.32-.01.48-.05.36-.26.58-.66.59-.48,0-.97,0-1.45,0-.42,0-.71-.25-.63-.63.18-.97-.28-1.38-1.21-1.54-.36-.06-.7-.28-1.01-.48-.28-.18-.45-.14-.65.08-.16.19-.36.36-.54.53-.34.31-.62.33-.95.03-.36-.32-.7-.65-1.03-.98-.28-.28-.3-.64.01-.85.87-.58.84-1.21.3-1.98-.2-.29-.28-.67-.36-1.03-.06-.28-.21-.35-.47-.34-.26.01-.51,0-.77,0-.5-.01-.72-.22-.73-.69,0-.22,0-.44,0-.65Zm12.98.04c.01-2.17-1.81-3.94-4.09-3.95-2.24-.01-4.11,1.76-4.14,3.91-.02,2.17,1.84,3.96,4.12,3.97,2.26,0,4.09-1.75,4.1-3.93Z"/>
        <path class="cls-1" d="m10.3,18.53c-.87-.06-1.76-.01-2.61-.19-1.29-.27-2.12-1.38-2.17-2.64,0-.16-.02-.32,0-.48.03-.3-.09-.46-.39-.59-.87-.37-1.45-1.38-1.3-2.2.18-1.03.97-1.78,2.02-1.91.96-.12,1.92.44,2.32,1.34.45,1.03-.03,2.28-1.12,2.76-.32.14-.41.32-.4.63,0,1.54.68,2.2,2.29,2.2,1.12,0,2.24.02,3.36,0,.46-.01.46.22.46.54,0,.33-.04.52-.46.5-.66-.03-1.33,0-1.99,0,0,.02,0,.04,0,.05Zm-3.07-5.83c0-.63-.52-1.14-1.17-1.15-.65,0-1.19.52-1.18,1.14,0,.61.52,1.11,1.15,1.12.65.01,1.2-.49,1.2-1.11Z"/>
        <path class="cls-1" d="m10.25,23.47c.6,0,1.21,0,1.81,0,.6,0,.56,0,.61.57.05.54-.31.46-.63.46-1.09,0-2.18,0-3.26,0-1.5,0-2.39.98-2.16,2.41.02.15.24.31.4.39.87.43,1.35,1.26,1.26,2.23-.08.84-.73,1.57-1.61,1.81-1.1.3-2.25-.22-2.69-1.23-.44-.99-.08-2.18.93-2.67.54-.26.61-.58.61-1.09-.02-1.48,1.1-2.73,2.56-2.85.72-.06,1.45-.01,2.17-.01,0,0,0-.01,0-.02Zm-4.22,4.66c-.65,0-1.18.54-1.16,1.16.02.61.54,1.1,1.18,1.1.65,0,1.18-.51,1.18-1.14,0-.62-.55-1.13-1.2-1.12Z"/>
        <path class="cls-1" d="m30.49,23.47c.57,0,1.15,0,1.72,0,1.75.01,3.03,1.23,3.03,2.92,0,.5.09.8.61,1.05.9.42,1.33,1.49,1.07,2.33-.32,1.04-1.22,1.7-2.28,1.66-1.01-.03-1.91-.75-2.12-1.68-.22-1,.28-2.02,1.23-2.43.34-.15.42-.34.42-.67-.01-1.46-.73-2.16-2.26-2.16-1.12,0-2.24-.02-3.36,0-.46.01-.5-.19-.51-.55-.01-.4.14-.5.53-.49.63.02,1.27,0,1.91,0Zm5.36,5.79c0-.64-.52-1.13-1.18-1.12-.63,0-1.12.51-1.12,1.13,0,.63.54,1.14,1.19,1.12.64-.01,1.12-.5,1.11-1.14Z"/>
        <path class="cls-1" d="m30.48,18.47c-.59,0-1.18,0-1.77,0-.6,0-.57,0-.61-.57-.04-.49.25-.46.59-.46,1.13,0,2.27-.01,3.4,0,1.35.02,2.31-.82,2.1-2.46-.02-.13-.24-.27-.39-.35-.85-.41-1.36-1.26-1.28-2.18.07-.83.7-1.58,1.53-1.83,1.12-.34,2.27.16,2.74,1.19.45.99.11,2.16-.91,2.67-.54.27-.62.58-.61,1.09.01,1.5-1.11,2.74-2.61,2.86-.72.06-1.45,0-2.18,0,0,0,0,.01,0,.02Zm5.37-5.78c0-.64-.51-1.15-1.16-1.15-.63,0-1.14.5-1.14,1.12,0,.63.52,1.14,1.17,1.15.64,0,1.13-.47,1.13-1.11Z"/>
        <path class="cls-1" d="m23.01,11.25c0-.58-.01-1.16,0-1.75.03-1.57,1.27-2.78,2.91-2.84.2,0,.41.04.59-.02.17-.05.38-.16.46-.3.45-.84,1.17-1.34,2.12-1.33.88.01,1.59.46,1.98,1.25.39.79.3,1.56-.26,2.26-1.01,1.25-3.05,1.06-3.77-.37-.17-.34-.37-.46-.73-.41-.37.05-.77.02-1.11.15-.78.3-1.15.92-1.15,1.72,0,1.16-.01,2.33,0,3.49,0,.36-.11.49-.49.48-.35-.01-.58-.03-.56-.46.03-.62,0-1.25,0-1.88h0Zm6.01-2.94c.65,0,1.18-.53,1.16-1.15-.01-.61-.53-1.11-1.16-1.11-.63,0-1.19.52-1.19,1.13,0,.62.54,1.13,1.18,1.13Z"/>
        <path class="cls-1" d="m17.79,11.25c0,.65-.01,1.31,0,1.96.01.51-.37.33-.63.37-.31.04-.44-.06-.44-.38.01-1.15-.01-2.3,0-3.45.03-1.26-.78-2.23-2.55-2.04-.15.02-.31.24-.39.41-.44.81-1.3,1.27-2.29,1.19-.86-.07-1.62-.67-1.88-1.49-.34-1.07.19-2.2,1.24-2.65,1.05-.44,2.28-.1,2.8.9.27.51.59.57,1.09.57,1.54,0,2.87,1.09,3,2.5.06.69.01,1.39.01,2.09,0,0,.01,0,.02,0Zm-4.85-4.07c0-.62-.53-1.14-1.18-1.14-.63,0-1.15.49-1.17,1.11-.02.62.51,1.15,1.16,1.16.65,0,1.19-.5,1.19-1.12Z"/>
        <path class="cls-1" d="m17.85,30.76c-.06.84-.03,1.7-.22,2.51-.28,1.21-1.45,2-2.74,2.02-.15,0-.3.01-.45,0-.32-.03-.51.07-.65.38-.42.93-1.51,1.42-2.52,1.2-1.02-.23-1.76-1.11-1.77-2.11,0-.98.74-1.89,1.71-2.11,1.02-.23,2.11.24,2.55,1.15.17.36.4.44.77.43,1.47-.02,2.19-.71,2.2-2.13,0-1.09.01-2.18,0-3.27,0-.34.1-.48.47-.44.32.03.64-.06.61.44-.04.64,0,1.28,0,1.92.02,0,.04,0,.06,0Zm-6.07,2.87c-.65,0-1.19.5-1.2,1.12,0,.62.53,1.14,1.18,1.14.62,0,1.16-.51,1.17-1.1.02-.62-.51-1.15-1.16-1.16Z"/>
        <path class="cls-1" d="m24.05,30.67c0,.61-.02,1.22,0,1.83.05,1.22,1.39,2.12,2.6,1.75.13-.04.23-.21.3-.34.45-.89,1.34-1.37,2.42-1.27.84.08,1.55.7,1.81,1.56.3,1.04-.29,2.18-1.33,2.57-1.07.4-2.35-.02-2.82-1.02-.21-.44-.48-.47-.88-.46-1.6,0-2.71-.78-3.09-2.18-.06-.21-.08-.43-.08-.65,0-1.21.02-2.41-.02-3.62-.01-.5.29-.42.61-.45.37-.03.48.11.46.44-.02.61,0,1.22,0,1.83h0Zm3.79,4.09c0,.62.54,1.14,1.18,1.13.62,0,1.15-.52,1.16-1.11.01-.61-.52-1.14-1.17-1.15-.65,0-1.18.51-1.18,1.13Z"/>
        <path class="cls-1" d="m20.91,31.66c0,.06,0,.12,0,.17-.08.51.07.82.61,1.07.91.42,1.32,1.53,1.04,2.42-.33,1.03-1.19,1.63-2.31,1.59-.99-.04-1.85-.75-2.07-1.72-.21-.94.31-1.97,1.26-2.38.31-.14.43-.3.41-.62-.03-.42,0-.84-.01-1.26-.02-.43.3-.35.56-.36.26,0,.54-.05.52.35-.02.25,0,.49,0,.74Zm-1.7,3.09c-.01.62.52,1.14,1.17,1.15.63,0,1.19-.53,1.19-1.14,0-.59-.53-1.11-1.15-1.12-.64-.01-1.2.5-1.21,1.11Z"/>
        <path class="cls-1" d="m19.84,10.34c0-.09-.01-.18,0-.26.07-.47-.06-.76-.57-1.01-.85-.42-1.21-1.19-1.12-2.11.09-.84.77-1.5,1.61-1.83.98-.38,2.37.39,2.71,1.27.42,1.09-.02,2.28-1.11,2.76-.35.16-.46.35-.43.7.03.4,0,.81.01,1.22.01.39-.25.36-.52.35-.25-.01-.59.1-.58-.34,0-.25,0-.49,0-.74Zm.53-2.03c.65,0,1.19-.51,1.19-1.13,0-.62-.55-1.14-1.19-1.13-.63,0-1.16.51-1.17,1.11-.01.62.53,1.15,1.17,1.15Z"/>
        <path class="cls-1" d="m9.31,21.49s-.09,0-.14,0c-.55-.07-.91.05-1.2.61-.46.88-1.6,1.24-2.53.94-1.01-.32-1.68-1.23-1.62-2.17.06-.99.86-1.85,1.88-2.03.98-.17,2.01.33,2.41,1.23.15.33.33.43.68.41.42-.03.85.01,1.27-.01.46-.03.4.26.41.54.01.3-.03.52-.43.48-.24-.02-.48,0-.72,0Zm-2.08-.5c0-.62-.53-1.15-1.17-1.16-.63,0-1.13.48-1.14,1.12,0,.64.5,1.15,1.15,1.16.62,0,1.14-.5,1.15-1.12Z"/>
        <path class="cls-1" d="m31.45,21.49c-.17,0-.33-.02-.5,0-.45.06-.62-.1-.6-.55.02-.35.11-.51.49-.47.18.02.36-.01.54,0,.66.07,1.13-.03,1.51-.72.48-.88,1.69-1.14,2.68-.77.9.34,1.49,1.27,1.4,2.23-.09.9-.91,1.73-1.87,1.9-.98.17-2-.33-2.42-1.24-.14-.31-.33-.42-.66-.38-.19.02-.39,0-.59,0Zm4.4-.52c0-.64-.52-1.15-1.17-1.14-.62,0-1.13.52-1.13,1.13,0,.62.54,1.15,1.18,1.14.63,0,1.12-.5,1.12-1.13Z"/>
        <path class="cls-1" d="m23,20.97c0,1.39-1.14,2.48-2.59,2.49-1.44,0-2.61-1.1-2.61-2.48,0-1.36,1.18-2.5,2.6-2.5,1.43,0,2.59,1.12,2.6,2.49Z"/>
      </g>
    </g>
  </g>
</svg>