<?xml version="1.0" encoding="UTF-8"?>
<svg id="Layer_2" data-name="Layer 2" xmlns="http://www.w3.org/2000/svg" viewBox="0 0 40 40">
  <defs>
    <style>
      .cls-1 {
        fill: #0091ff;
      }

      .cls-2 {
        fill: none;
      }
    </style>
  </defs>
  <g id="Layer_1-2" data-name="Layer 1">
    <g>
      <rect class="cls-2" y="0" width="40" height="40"/>
      <g>
        <path class="cls-1" d="m32.92,35.14V4.25h-15.48c-.01.33-.04.71-.04,1.09,0,5.61,0,11.23-.02,16.84,0,.52-.28,1.04-.43,1.56-.19.67-.49,1.33-.56,2.02-.1,1-.03,2.03-.03,3.04,0,1.71-.02,1.73-1.71,1.4,0-.39,0-.82,0-1.24,0-6.48.02-12.97-.02-19.45,0-.89-.42-1.8-.38-2.68.07-1.62.27-3.25.54-4.84C14.99.87,15.99.03,17.05.02c5.42-.03,10.84-.03,16.26,0,1.32,0,2.29,1.21,2.36,2.74.04.83-.03,1.67.03,2.5.04.54.34,1.09.3,1.61-.12,1.38-.13,2.75-.02,4.14.04.49-.28,1-.28,1.51-.02,7.97-.01,15.94-.01,23.91,0,2.53-.9,3.57-3.09,3.57-4.98,0-9.95,0-14.93,0-2.07,0-2.99-1.07-3.01-3.46,0-1.08,0-2.15,0-3.26.95-.1,1.79-.18,2.72-.28v2.13h15.55ZM25.21,2.56s0,0,0,0c.6,0,1.2.05,1.79-.02.21-.02.39-.33.59-.51-.19-.15-.38-.41-.58-.42-1.2-.04-2.4-.04-3.59,0-.18,0-.36.3-.54.45.18.16.34.45.53.46.59.06,1.2.02,1.8.02Zm1.18,35.09c-.56-.48-.89-.98-1.18-.94-.31.03-.59.55-.88.86.27.33.51.87.82.92.29.05.64-.41,1.24-.84Z"/>
        <path class="cls-1" d="m6.18,22.76c-1.47-.49-2.42-1.44-2.54-3.18-.13-1.76.89-3.27,2.41-3.64,1.45-.35,2.95.68,3.42,2.36.45,1.62-.18,3.43-1.58,4.06-.73.33-.9.76-.88,1.58.05,1.92,0,3.84.02,5.76.01,1.19.35,1.57,1.37,1.58,2.47.01,4.94.01,7.41,0,1.02,0,1.37-.4,1.39-1.56.01-1.3,0-2.61,0-3.91.02-1.34.79-2.28,1.84-2.29,1.01-.01,1.82.87,1.87,2.15.05,1.34,0,2.68.02,4.02.01,1.2.37,1.62,1.35,1.6.91-.02,1.25-.43,1.26-1.58.01-1.85.08-3.7-.02-5.54-.05-1-.41-1.97-.63-2.98-.63-.37-1.33-.77-2.03-1.19-1.41-.85-1.29-2.59-1.5-3.95-.3-1.93-.15-3.96-.15-5.95,0-.29.14-.78.32-.85.95-.38,1.92-.72,2.91-.91.14-.03.41.78.62,1.21-.38.23-.74.51-1.15.65-.13.05-.35-.28-.55-.37-.82-.4-1.32-.02-1.33,1,0,1.23-.06,2.47.02,3.69.06.88.05,2.18.51,2.53,1.12.85,2.12,2.3,3.75,1.9.25-.06.5-.1.74-.19,2.02-.8,2.81-2.08,2.81-4.51,0-1.05,0-2.1,0-3.15,0-1.45-.45-1.74-1.6-1.08-.24.14-.68.29-.77.17-.28-.35-.63-.87-.58-1.25.1-.66.63-.81,1.2-.58.43.17.87.34,1.32.41.77.12,1.29.53,1.25,1.45-.11,2.47.1,4.92-.4,7.43-.39,1.96-1.41,2.58-2.66,3.18-.53.26-.58.59-.74,1.14-.8,2.67-.33,5.41-.48,8.11-.08,1.4-.85,2.14-2.17,2.14-1.31,0-2.09-.76-2.13-2.17-.04-1.34-.02-2.68,0-4.02,0-.82-.19-1.48-1.02-1.49-.81,0-1.07.63-1.07,1.46,0,1.3.01,2.61,0,3.91-.02,1.51-.69,2.3-1.98,2.31-2.6.02-5.2.02-7.8,0-1.32-.01-2.01-.84-2.02-2.4-.01-1.16,0-2.32,0-3.48,0-1.16,0-2.31,0-3.57Zm.25-2.08c.14,0,.28,0,.43-.01.27-.45.71-.86.77-1.34.09-.73-.4-1.22-1.05-1.19-.64.03-1.12.51-.97,1.27.09.48.53.86.82,1.29Z"/>
      </g>
    </g>
  </g>
</svg>