<svg xmlns="http://www.w3.org/2000/svg" viewBox="0 0 28 28"><defs><style>.cls-1{fill:none;}.cls-2{fill:#0091ff;}</style></defs><g id="Layer_2" data-name="Layer 2"><g id="Layer_1-2" data-name="Layer 1"><rect class="cls-1" width="28" height="28"/><path class="cls-2" d="M28,14.82c-.07.54-.13,1.08-.22,1.62a13.78,13.78,0,0,1-2.15,5.33,1.09,1.09,0,0,1-1.82-1.21,11.29,11.29,0,0,0,1.79-4.4A11.55,11.55,0,0,0,21,4.49,11.29,11.29,0,0,0,13.45,2.2a11.8,11.8,0,0,0-3,23.06A11.53,11.53,0,0,0,20,24.18a1.29,1.29,0,0,1,.91-.21,1.09,1.09,0,0,1,.33,2,12.67,12.67,0,0,1-3.72,1.56c-.79.18-1.61.27-2.42.4l-.2.05H13.13L12.91,28c-.65-.09-1.32-.15-2-.29A14,14,0,0,1,.22,16.44c-.09-.52-.15-1-.22-1.56V13.13a2,2,0,0,0,.05-.24C.14,12.26.2,11.62.33,11A14,14,0,0,1,11.56.22c.52-.09,1-.15,1.57-.22h1.75l.21.05c.71.11,1.44.17,2.15.33A14,14,0,0,1,27.79,11.59c.08.51.14,1,.21,1.54Z"/><path class="cls-2" d="M14.1,21.93a1.1,1.1,0,0,1-1-.76l-1.31-3.39a3,3,0,0,0-.45-1,2.65,2.65,0,0,0-1-.44L6.89,15a1.09,1.09,0,0,1-.7-1.41,1.15,1.15,0,0,1,.7-.68l5.3-2.32c2.18-.95,4.35-1.91,6.53-2.85a1.65,1.65,0,0,1,.84-.15,1.06,1.06,0,0,1,.8,1.48c-.18.46-.38.92-.58,1.38L15.19,21.1A1.18,1.18,0,0,1,14.1,21.93Zm3.16-11.18-7.15,3.13.3.12,2.09.8a1.21,1.21,0,0,1,.75.75c.26.7.53,1.39.8,2.09l.13.28Z"/></g></g></svg>