<svg xmlns="http://www.w3.org/2000/svg" viewBox="0 0 28 28"><defs><style>.cls-1{fill:none;}.cls-2{fill:#0091ff;}</style></defs><g id="Layer_2" data-name="Layer 2"><g id="Layer_1-2" data-name="Layer 1"><rect class="cls-1" width="28" height="28"/><path class="cls-2" d="M20.09.2l.27.11A1.82,1.82,0,0,1,21.6,2c0,.13,0,.26,0,.38,0,7.73,0,15.46,0,23.2A2,2,0,0,1,20,27.8H8a4.51,4.51,0,0,1-.64-.26A1.75,1.75,0,0,1,6.4,26c0-.12,0-.25,0-.37,0-7.72,0-15.43,0-23.14A2.06,2.06,0,0,1,7.91.2ZM7.24,22.92H20.75V2.3a1.92,1.92,0,0,0,0-.24,1,1,0,0,0-1-1H8.26a1.18,1.18,0,0,0-.6.19,1,1,0,0,0-.42,1q0,10.2,0,20.39Zm6.75,3a.79.79,0,1,0,0-1.58.79.79,0,0,0,0,1.58Z"/><path class="cls-2" d="M14,15.86a3.68,3.68,0,1,1,3.68-3.69A3.68,3.68,0,0,1,14,15.86Zm-.53-3.41c-.14-.15-.23-.29-.35-.4a.42.42,0,0,0-.6,0,.41.41,0,0,0,0,.6q.32.35.66.66a.39.39,0,0,0,.6,0q.87-.84,1.71-1.71a.4.4,0,0,0-.11-.65.46.46,0,0,0-.56.13Z"/><path class="cls-2" d="M14,3.33H12.14c-.33,0-.51-.14-.52-.41s.18-.44.52-.44h3.72c.34,0,.53.16.52.44s-.19.41-.52.41Z"/></g></g></svg>