<svg xmlns="http://www.w3.org/2000/svg" viewBox="0 0 28 28"><defs><style>.cls-1{fill:none;}.cls-2{fill:#0091ff;}</style></defs><g id="Layer_2" data-name="Layer 2"><g id="Layer_1-2" data-name="Layer 1"><rect class="cls-1" width="28" height="28"/><path class="cls-2" d="M20.57,0,21,.14A2,2,0,0,1,22.33,2c0,1.3,0,2.61,0,3.91a3,3,0,0,1,0,.3,11.7,11.7,0,0,1,1.31-.06,2.09,2.09,0,0,1,2,1.38,2.12,2.12,0,0,1-.45,2.35l-.1.1,0,0a2.22,2.22,0,0,1,0,3.32A2.21,2.21,0,0,1,25.77,15,2.25,2.25,0,0,1,25,16.68a2.21,2.21,0,0,1,.44,2.76c-.73,1.21-1.88,1.25-3.14,1,0,.2,0,.38,0,.57a2.06,2.06,0,0,1-2.07,2.1,1.79,1.79,0,0,0-1.26.46,9.11,9.11,0,0,1-4.09,1.8c-.34.07-.68.1-1,.18a.72.72,0,0,0-.36.2c-.56.64-1.1,1.29-1.64,1.94a.8.8,0,0,1-.67.31c-2.76,0-5.53,0-8.3,0-.52,0-.7-.19-.7-.72,0-1.37,0-2.75,0-4.12a1.08,1.08,0,0,1,.19-.58c.42-.6.88-1.19,1.31-1.78a.64.64,0,0,0,.13-.32,15.21,15.21,0,0,1,1-4.76,8,8,0,0,0,.51-2.86c0-2.09,0-4.19,0-6.28a1.31,1.31,0,0,1,.27-.92,1.17,1.17,0,0,1,1.19-.39A4,4,0,0,1,8.9,6.45c0-.14,0-.23,0-.32,0-1.21,0-2.41,0-3.61A2.25,2.25,0,0,1,10.71,0ZM13.5,1.09H11.24c-.87,0-1.23.37-1.23,1.23V13.07c0,.1,0,.21,0,.32a.55.55,0,0,1-.51.49A.53.53,0,0,1,9,13.47a1.34,1.34,0,0,1,0-.35c0-1.29,0-2.59,0-3.88A2.93,2.93,0,0,0,7.06,6.49a4.86,4.86,0,0,0-.6-.18v.35c0,2.05,0,4.09,0,6.13a9.37,9.37,0,0,1-.61,3.39A13.58,13.58,0,0,0,5,20.76a1,1,0,0,1-.18.47c-.42.6-.87,1.17-1.29,1.77a.88.88,0,0,0-.16.47c0,.8,0,1.6,0,2.4v1H11a.43.43,0,0,0,.29-.15c.56-.65,1.11-1.31,1.66-2a.82.82,0,0,1,.56-.3,11.27,11.27,0,0,0,3.23-.81c.34-.14.67-.32,1-.49l0-.07H11.1a2,2,0,0,1-2.16-1.89c-.07-1,0-2.08,0-3.12a.53.53,0,0,1,.54-.51.54.54,0,0,1,.55.59v2.6c0,.86.37,1.24,1.23,1.24,2.92,0,5.84,0,8.76,0a1.14,1.14,0,0,0,1.25-1.26c0-6.15,0-12.3,0-18.45V2.06a1,1,0,0,0-.86-.95c-.87,0-1.73,0-2.6,0-.24,1.51-1,2.29-2.25,2.23A2.15,2.15,0,0,1,13.5,1.09Zm8.84,17.24c0,1,.19,1.14,1.13,1.14h.13a1.12,1.12,0,0,0,1.07-1,1.07,1.07,0,0,0-.85-1.16,2.81,2.81,0,0,0-.87,0,.72.72,0,0,0-.61.68C22.33,18.06,22.34,18.2,22.34,18.33Zm0-6.65h0a2.43,2.43,0,0,0,0,.27.75.75,0,0,0,.85.85h.41a1.11,1.11,0,0,0,1.07-1,1.09,1.09,0,0,0-.93-1.16,3.56,3.56,0,0,0-.73,0,.71.71,0,0,0-.67.68C22.33,11.4,22.34,11.54,22.34,11.68Zm0,3.33h0c0,.1,0,.2,0,.3a.75.75,0,0,0,.84.82,3.09,3.09,0,0,0,.43,0,1.11,1.11,0,0,0,.2-2.19,2.74,2.74,0,0,0-.81,0,.71.71,0,0,0-.66.69C22.33,14.74,22.34,14.88,22.34,15Zm0-6.64a2.08,2.08,0,0,0,0,.25.76.76,0,0,0,.85.86h.46a1.1,1.1,0,0,0,0-2.2,3.62,3.62,0,0,0-.57,0,.74.74,0,0,0-.78.8C22.33,8.16,22.34,8.26,22.34,8.37ZM14.61,1.11a1,1,0,0,0,.52,1,1,1,0,0,0,1.08-.05,1,1,0,0,0,.44-.94Z"/><path class="cls-2" d="M13.82,7c.13-1.45.69-2.14,1.77-2.17A1.72,1.72,0,0,1,17,5.48c.24.28.26.38.45,1.54h1.19c.57,0,.72.15.78.71.16,1.6.33,3.2.51,4.81,0,.49-.16.74-.66.74H12c-.5,0-.71-.22-.66-.72.15-1.47.31-2.93.47-4.4,0-.19,0-.38.06-.57.06-.41.23-.56.66-.57h1.32Zm-1.37,5.16H18.8l-.43-4h-.95c0,.18,0,.34,0,.5a.55.55,0,1,1-1.09,0c0-.16,0-.32,0-.5H15.11l-.18,0c0,.16,0,.31,0,.47a.52.52,0,0,1-.52.58.54.54,0,0,1-.57-.56c0-.17,0-.33,0-.5h-1ZM16.31,7c0-.4,0-.77-.34-1a.67.67,0,0,0-.75.05A.84.84,0,0,0,15,7Z"/><path class="cls-2" d="M15.62,15.68c.48,0,1,0,1.45,0a1.85,1.85,0,0,1,1.75,1.77,1.8,1.8,0,0,1-1.61,1.95,22.64,22.64,0,0,1-3.19,0,1.82,1.82,0,0,1-1.6-1.91,1.87,1.87,0,0,1,1.75-1.8C14.65,15.66,15.14,15.68,15.62,15.68Zm0,2.68c.41,0,.82,0,1.23,0a.81.81,0,0,0,.87-.79.79.79,0,0,0-.85-.8H14.39a.79.79,0,0,0-.87.78.82.82,0,0,0,.88.81C14.81,18.37,15.22,18.36,15.63,18.36Z"/><path class="cls-2" d="M10,15.71a.54.54,0,0,1-.54.54.55.55,0,1,1,.54-.54Z"/></g></g></svg>