<svg xmlns="http://www.w3.org/2000/svg" viewBox="0 0 200 200"><defs><style>.cls-1{fill:none;}.cls-2{fill:#fff;}</style></defs><g id="Layer_2" data-name="Layer 2"><g id="Layer_1-2" data-name="Layer 1"><rect class="cls-1" width="200" height="200"/><path d="M100,175.93c-41.94.69-76.12-35.08-76.1-75.85,0-41.37,34.69-76,76.08-76s76,34.64,76,75.94C176.11,140.8,141.93,176.58,100,175.93Zm-3.65-73.6a7.86,7.86,0,0,0,.13-1c-.06-6.35-1.1-12.49-4.2-18.13-3-5.48-7.26-9.69-13.36-11.48-12.15-3.58-25.5.74-31.54,13.75-5,10.81-4.11,21.68,1.26,32.09,3.19,6.2,8.68,9.81,15.47,11.34a31.3,31.3,0,0,0,13.07.24c9.22-1.85,15.59-7,18.06-16.3.12-.45.17-.92.28-1.52-2.83,0-5.49,0-8.15,0-.82,0-1.13.28-1.32,1a10.94,10.94,0,0,1-4.1,6c-3.55,2.78-7.65,3.36-12,3.12-8-.45-13.92-5.51-15.39-13.28-.35-1.85-.38-3.76-.57-5.78Zm56.78-31.68c-.61,0-1-.07-1.32-.08-3,0-6.07,0-9.11,0a2.06,2.06,0,0,0-1.91,1Q134.29,80.79,127.7,90c-.25.35-.53.68-.88,1.14-.37-.52-.66-.9-.93-1.3-4.17-6.08-8.36-12.16-12.5-18.26a2,2,0,0,0-1.91-1c-3.28,0-6.56,0-9.84,0-.38,0-.76,0-1.37.08.43.6.7,1,1,1.39C107.5,80.54,113.72,89,120,97.5a1.49,1.49,0,0,1,0,2.11q-10.26,14.28-20.44,28.61c-.28.38-.52.78-.92,1.39h1.46c3,0,6,0,9,0a2.18,2.18,0,0,0,2.09-1.12q7.34-11,14.75-21.94c.26-.39.55-.76.91-1.26.36.5.62.86.86,1.23q7.42,11,14.82,22a2.06,2.06,0,0,0,2,1c3.24-.06,6.48,0,9.72,0,.41,0,.83-.05,1.44-.08l-1-1.43c-7-9.69-13.89-19.39-20.89-29a1.8,1.8,0,0,1,.06-2.6q9.24-12.21,18.37-24.5C152.51,71.6,152.76,71.23,153.17,70.65Z"/><path class="cls-2" d="M96.39,102.33H54.06c.19,2,.22,3.93.57,5.78C56.1,115.88,62,120.94,70,121.39c4.32.24,8.42-.34,12-3.12a10.94,10.94,0,0,0,4.1-6c.19-.77.5-1.06,1.32-1,2.66,0,5.32,0,8.15,0-.11.6-.16,1.07-.28,1.52-2.47,9.35-8.84,14.45-18.06,16.3a31.3,31.3,0,0,1-13.07-.24c-6.79-1.53-12.28-5.14-15.47-11.34-5.37-10.41-6.28-21.28-1.26-32.09,6-13,19.39-17.33,31.54-13.75,6.1,1.79,10.35,6,13.36,11.48,3.1,5.64,4.14,11.78,4.2,18.13A7.86,7.86,0,0,1,96.39,102.33Zm-9.83-7.74c-.63-6.14-3.08-11-8.58-13.89-5.87-3-11.76-2.75-17.19,1.12-4.3,3.06-6.13,7.54-6.62,12.77Z"/><path class="cls-2" d="M153.17,70.65c-.41.58-.66.95-.93,1.3q-9.17,12.26-18.37,24.5a1.8,1.8,0,0,0-.06,2.6c7,9.66,13.93,19.36,20.89,29.05l1,1.43c-.61,0-1,.07-1.44.08-3.24,0-6.48,0-9.72,0a2.06,2.06,0,0,1-2-1q-7.36-11.06-14.82-22c-.24-.37-.5-.73-.86-1.23-.36.5-.65.87-.91,1.26q-7.39,11-14.75,21.94a2.18,2.18,0,0,1-2.09,1.12c-3-.06-6,0-9,0H98.66c.4-.61.64-1,.92-1.39q10.2-14.31,20.44-28.61a1.49,1.49,0,0,0,0-2.11c-6.28-8.46-12.5-17-18.74-25.45-.29-.38-.56-.79-1-1.39.61,0,1-.08,1.37-.08,3.28,0,6.56,0,9.84,0a2,2,0,0,1,1.91,1c4.14,6.1,8.33,12.18,12.5,18.26.27.4.56.78.93,1.3.35-.46.63-.79.88-1.14q6.58-9.21,13.13-18.43a2.06,2.06,0,0,1,1.91-1c3,0,6.07,0,9.11,0C152.2,70.58,152.56,70.61,153.17,70.65Z"/><path d="M86.56,94.59H54.17c.49-5.23,2.32-9.71,6.62-12.77C66.22,78,72.11,77.67,78,80.7,83.48,83.54,85.93,88.45,86.56,94.59Z"/></g></g></svg>