<svg xmlns="http://www.w3.org/2000/svg" viewBox="0 0 28 28"><defs><style>.cls-1{fill:none;}.cls-2{fill:#0091ff;}</style></defs><g id="Layer_2" data-name="Layer 2"><g id="Layer_1-2" data-name="Layer 1"><rect class="cls-1" width="28" height="28"/><path class="cls-2" d="M25.93,6.29a9.39,9.39,0,0,1-1,4.05A28.31,28.31,0,0,1,21,16.15a1.77,1.77,0,0,1-2.74.06,26.2,26.2,0,0,1-4.21-6.49,8.16,8.16,0,0,1-.76-3.34A6.4,6.4,0,0,1,18.75.13a6.3,6.3,0,0,1,7,4.92C25.85,5.53,25.89,6,25.93,6.29ZM19.61,8.62a2.25,2.25,0,0,0,0-4.5,2.28,2.28,0,0,0-2.26,2.25A2.25,2.25,0,0,0,19.61,8.62Z"/><path class="cls-2" d="M11.9,16.78l1.46,4,1.24-.44,8.53-3.12a1.65,1.65,0,0,1,.44-.1.66.66,0,0,1,.61.53.6.6,0,0,1-.37.73c-.38.17-.78.3-1.18.45l-.35.14c.18.5.36,1,.53,1.46a.63.63,0,0,1-.15.7.57.57,0,0,1-.67.17,1.05,1.05,0,0,1-.45-.46c-.21-.46-.36-.94-.53-1.43L13.82,22c0,.12.08.23.11.33.44,1.2.88,2.39,1.31,3.59a.68.68,0,1,1-1.26.45q-1.79-4.85-3.55-9.68a.73.73,0,0,1,.5-1.08l2.88-1.05a1.26,1.26,0,0,1,.58,0,.61.61,0,0,1,.47.59.67.67,0,0,1-.44.68c-.6.24-1.2.45-1.79.68Z"/><path class="cls-2" d="M8.69,19.89l-2.86,1-2.72,1c-.5.18-.85,0-1-.36s.07-.77.56-.95l5.39-1.95.17-.07a2.47,2.47,0,0,0-.1-.29l-2-5.46a1.41,1.41,0,0,1-.09-.49.67.67,0,0,1,1.3-.1c.28.74.54,1.48.81,2.22q2.25,6.18,4.49,12.37a1.49,1.49,0,0,1,.11.54.67.67,0,0,1-1.3.1l-.93-2.54q-.85-2.37-1.73-4.74C8.77,20.09,8.74,20,8.69,19.89Z"/><path class="cls-2" d="M10.5,13l1.37-.5a.71.71,0,0,1,1,.4.66.66,0,0,1-.48.87l-2,.72A.64.64,0,0,1,9.46,14c-.28-.75-.55-1.51-.82-2.27a.66.66,0,0,1,.4-.89.67.67,0,0,1,.87.45C10.11,11.86,10.29,12.4,10.5,13Z"/></g></g></svg>