<svg xmlns="http://www.w3.org/2000/svg" viewBox="0 0 28 28"><defs><style>.cls-1{fill:none;}.cls-2{fill:#0091ff;}</style></defs><g id="Layer_2" data-name="Layer 2"><g id="Layer_1-2" data-name="Layer 1"><rect class="cls-1" width="28" height="28"/><path class="cls-2" d="M7.15,27.68c-.32-.09-.65-.15-1-.26a4.56,4.56,0,0,1-3.08-4.2v-1l-.24,0a.89.89,0,0,1-.75-1,.91.91,0,0,1,.94-.84H5.81a1.76,1.76,0,0,1,.07-.27.91.91,0,0,1,1-.64.88.88,0,0,1,.8.83c0,.71,0,1.43,0,2.14a.87.87,0,0,1-.87.84.91.91,0,0,1-.93-.75c0-.1,0-.19,0-.31H5c-.2,1.63.34,2.94,1.84,3.47a2.78,2.78,0,0,0,1,.15H21.25A2.74,2.74,0,0,0,24.07,23V9c0-1.33,0-2.67,0-4A2.73,2.73,0,0,0,22,2.23a3.11,3.11,0,0,0-.74-.08H7.77A2.72,2.72,0,0,0,5,4.13.92.92,0,1,1,3.3,3.58,4.54,4.54,0,0,1,7.57.33q6.91,0,13.83,0a4.55,4.55,0,0,1,4.49,4.54c0,.85,0,1.71,0,2.56,0,5.2,0,10.4,0,15.6a4.57,4.57,0,0,1-3.48,4.52l-.57.13Z"/><path class="cls-2" d="M15,8.32a3.42,3.42,0,0,1,0,6.84,3.42,3.42,0,1,1,0-6.84Zm1.56,3.46a1.56,1.56,0,1,0-3.12,0,1.56,1.56,0,0,0,3.12,0Z"/><path class="cls-2" d="M5.81,7.63H4.92v3.64a.91.91,0,0,1-.9,1,.93.93,0,0,1-.92-1V7.65l-.18,0a.9.9,0,0,1-.81-1,.91.91,0,0,1,.94-.86H5.81a3.79,3.79,0,0,1,.06-.38.89.89,0,0,1,.91-.7.87.87,0,0,1,.86.77c0,.76,0,1.53,0,2.29a.87.87,0,0,1-.85.76.92.92,0,0,1-.91-.64A2.5,2.5,0,0,1,5.81,7.63Z"/><path class="cls-2" d="M3,15a3,3,0,0,1-.62-.54.88.88,0,0,1,.76-1.35H5.82a3.09,3.09,0,0,1,0-.35A.89.89,0,0,1,6.8,12a.85.85,0,0,1,.85.8q0,1.18,0,2.37A.87.87,0,0,1,6.8,16a.9.9,0,0,1-.94-.74,3,3,0,0,1,0-.33h-.9v3.64a.9.9,0,0,1-.91,1,.91.91,0,0,1-.91-1V14.94Z"/><path class="cls-2" d="M14.85,16a5.92,5.92,0,0,1,4.37,1.88.89.89,0,0,1,.16,1.08.84.84,0,0,1-1,.45,1.51,1.51,0,0,1-.6-.37,4,4,0,0,0-5.22-.47,5.09,5.09,0,0,0-.69.62.92.92,0,1,1-1.33-1.25,6,6,0,0,1,3.49-1.86C14.36,16,14.65,16,14.85,16Z"/></g></g></svg>