<svg xmlns="http://www.w3.org/2000/svg" viewBox="0 0 28 28"><defs><style>.cls-1{fill:none;}.cls-2{fill:#0091ff;}</style></defs><g id="Layer_2" data-name="Layer 2"><g id="Layer_1-2" data-name="Layer 1"><rect class="cls-1" width="28" height="28"/><path class="cls-2" d="M.28,24.14a9.14,9.14,0,0,1,1.26-2.92,10.47,10.47,0,0,1,4.82-4l.29-.12A5.42,5.42,0,0,1,5,12.24,5.29,5.29,0,0,1,7.3,8.58,5.47,5.47,0,0,1,15.43,11l2.28-1.24a5.44,5.44,0,0,1-1.61-5.1A5.12,5.12,0,0,1,18.05,1.5a5.46,5.46,0,0,1,7.1,8.3c.28.14.56.25.83.4s.81.45,1.2.7a1.08,1.08,0,0,1,.36,1.52A1.06,1.06,0,0,1,26,12.7a8.16,8.16,0,0,0-2.73-1.21,8,8,0,0,0-7.39,2,.5.5,0,0,0-.13.25A5.42,5.42,0,0,1,14.13,17l-.08.1c.27.12.53.23.78.36.42.23.84.47,1.25.73a1.06,1.06,0,0,1,.37,1.51,1,1,0,0,1-1.52.28,8.17,8.17,0,0,0-2.75-1.21A8.26,8.26,0,0,0,4.4,21.07a7.54,7.54,0,0,0-1.87,3,1.09,1.09,0,0,0,1.1,1.56h9.08a1.08,1.08,0,0,1,1.15.83,1,1,0,0,1-1,1.26H3.4A2.94,2.94,0,0,1,.65,26a6.24,6.24,0,0,1-.37-1.08Zm13.4-11a3.32,3.32,0,1,0-3.33,3.31A3.33,3.33,0,0,0,13.68,13.11ZM24.77,5.77a3.32,3.32,0,1,0-3.33,3.32A3.34,3.34,0,0,0,24.77,5.77Z"/><path class="cls-2" d="M23.7,23.71v2.77a1.53,1.53,0,0,1,0,.37c-.14.54-.44.92-1.31.83a1,1,0,0,1-.81-1c0-.88,0-1.76,0-2.65v-.32H18.73a1.08,1.08,0,1,1,0-2.14h2.83v-.31c0-.84,0-1.69,0-2.54a1.07,1.07,0,1,1,2.14,0v2.84h2.85a1.07,1.07,0,1,1,0,2.14Z"/></g></g></svg>