<svg xmlns="http://www.w3.org/2000/svg" viewBox="0 0 28 28"><defs><style>.cls-1{fill:none;}.cls-2{fill:#0091ff;}</style></defs><g id="Layer_2" data-name="Layer 2"><g id="Layer_1-2" data-name="Layer 1"><rect class="cls-1" width="28" height="28"/><path class="cls-2" d="M27.62,26.61H.38v-5H3.07V11.49h7.55V1.38H22.33V11.47H24.9V21.61h2.72ZM6.43,13.1H4.69v8.47h8.49V13.1H11.42v3.45h-5Zm10.11,3.45V13.1H14.81v8.48h8.48V13.09H21.55v3.46Zm-4.31-5.09h8.49V3H19V6.43H14V3H12.23ZM2,25H26V23.21H2ZM17.36,4.84V3H15.6V4.84ZM8.05,13.09V15H9.81V13.09ZM19.93,15V13.1H18.16V15Z"/></g></g></svg>