<svg xmlns="http://www.w3.org/2000/svg" viewBox="0 0 28 28"><defs><style>.cls-1{fill:none;}.cls-2{fill:#0091ff;}</style></defs><g id="Layer_2" data-name="Layer 2"><g id="Layer_1-2" data-name="Layer 1"><rect class="cls-1" width="28" height="28"/><path class="cls-2" d="M24.49,27.68H16.68l-.15-.05a3.13,3.13,0,0,1-2.6-2.92c0-.27,0-.53,0-.83H1.75c-.71,0-1-.28-1-1V1.29c0-.68.3-1,1-1H20.36c.72,0,1,.29,1,1v8c0,.13,0,.22.17.28a3.11,3.11,0,0,1,2.24,3.18v1h2.57a1.09,1.09,0,0,1,.31,0c.41.11.6.41.6.92v9.67c0,.13,0,.25,0,.38a3.12,3.12,0,0,1-2.33,2.78ZM2.38,1.94V22.26H13.92v-6c0-.54,0-1.08,0-1.63a.8.8,0,0,1,.89-.87h2.6c0-.47,0-.92,0-1.36a3,3,0,0,1,2.07-2.78c.2-.08.27-.16.27-.37,0-2.35,0-4.7,0-7.06,0-.09,0-.18,0-.28ZM15.53,15.39v.29c0,2.91,0,5.81,0,8.71a1.55,1.55,0,0,0,1.7,1.68h6.66a1.56,1.56,0,0,0,1.75-1.74V15.41H23.77v.36c0,.58,0,1.16,0,1.74a.78.78,0,0,1-.8.79.79.79,0,0,1-.79-.79c0-.47,0-.94,0-1.41v-.7H19v2c0,.57-.31.93-.8.94a.82.82,0,0,1-.81-.93V15.69c0-.1,0-.19,0-.3H15.53Zm6.62-1.62c0-.44,0-.87,0-1.29a1.57,1.57,0,0,0-3-.36A11.14,11.14,0,0,0,19,13.77Z"/><path class="cls-2" d="M13.76,4.36h3.53a.8.8,0,0,1,.19,1.58,2.36,2.36,0,0,1-.38,0h-7a.8.8,0,0,1-.7-.82.79.79,0,0,1,.75-.76c.45,0,.91,0,1.36,0Z"/><path class="cls-2" d="M12.45,9.22h2.22a.79.79,0,0,1,.4,1.47,1,1,0,0,1-.48.12H10.25a.8.8,0,0,1-.86-.64.78.78,0,0,1,.47-.89,1.48,1.48,0,0,1,.42-.07Z"/><path class="cls-2" d="M5.46,4.75l.85-.91A.8.8,0,1,1,7.48,4.93L6.06,6.46a.81.81,0,0,1-1.34,0l-.54-.67a.82.82,0,0,1,.05-1.15.81.81,0,0,1,1.15.09Z"/><path class="cls-2" d="M5.46,9.61l.85-.91A.81.81,0,1,1,7.48,9.8c-.47.51-.94,1-1.42,1.52a.81.81,0,0,1-1.34-.05l-.54-.67a.82.82,0,0,1,.05-1.15.81.81,0,0,1,1.15.09Z"/><path class="cls-2" d="M5.46,14.47l.84-.89a.81.81,0,1,1,1.17,1.09c-.47.51-.94,1-1.42,1.52a.81.81,0,0,1-1.33-.05l-.53-.67a.82.82,0,0,1,0-1.15.8.8,0,0,1,1.15.07Z"/><path class="cls-2" d="M10.85,14.08h.67a.8.8,0,0,1,.79.78.76.76,0,0,1-.73.8,12,12,0,0,1-1.47,0,.78.78,0,0,1-.74-.8.8.8,0,0,1,.79-.78Z"/></g></g></svg>