<svg xmlns="http://www.w3.org/2000/svg" viewBox="0 0 28 28"><defs><style>.cls-1{fill:none;}.cls-2{fill:#0091ff;}</style></defs><g id="Layer_2" data-name="Layer 2"><g id="Layer_1-2" data-name="Layer 1"><rect class="cls-1" width="28" height="28"/><path class="cls-2" d="M0,15.86a.77.77,0,0,1,.78-.43h6.5a1.34,1.34,0,0,1,.35,0,.54.54,0,0,1,.42.54.55.55,0,0,1-.43.53,1.16,1.16,0,0,1-.32,0H.76A.71.71,0,0,1,0,16.14Z"/><path class="cls-2" d="M18.54,7.08h4.6a1,1,0,0,1,.72.26l3.83,3.17a.79.79,0,0,1,.31.66c0,2.81,0,5.61-.05,8.42a.58.58,0,0,1-.64.65c-.34,0-.69,0-1,0a.57.57,0,0,1-.61-.54.58.58,0,0,1,.56-.59,5.6,5.6,0,0,1,.58,0c0-.12,0-.21,0-.3q0-3.64,0-7.27a.46.46,0,0,0-.18-.39L23.3,8.36A.61.61,0,0,0,23,8.22H18.56V19.12h.82a2.75,2.75,0,0,1,.41,0,.54.54,0,0,1,.46.53.55.55,0,0,1-.46.57H13c-.53,0-.8-.19-.79-.57s.27-.56.78-.56h4.43V5.59h-13c-.28,0-.35.07-.35.35C4,7,4,8,4,9.05c0,.41-.15.63-.44.69a.54.54,0,0,1-.68-.45,2.11,2.11,0,0,1,0-.25V5.19c0-.53.21-.73.73-.73H17.8c.54,0,.74.21.74.75Z"/><path class="cls-2" d="M19.68,12.63V10.41c0-.48.2-.68.68-.68H23a.88.88,0,0,1,.62.24c.49.45,1,.9,1.48,1.34a.83.83,0,0,1,.32.69c0,.94,0,1.89,0,2.84,0,.5-.21.7-.72.71H20.38c-.49,0-.7-.2-.7-.69Zm1.15,1.76h3.49a9.49,9.49,0,0,1,0-1.31,1.69,1.69,0,0,0-.73-1.67,1.87,1.87,0,0,0-1.52-.56,8.51,8.51,0,0,1-1,0l-.24,0Z"/><path class="cls-2" d="M11.5,21A2.55,2.55,0,0,1,9,23.54a2.56,2.56,0,1,1,0-5.12A2.55,2.55,0,0,1,11.5,21ZM9,19.56A1.43,1.43,0,1,0,10.37,21,1.43,1.43,0,0,0,9,19.56Z"/><path class="cls-2" d="M22.89,23.54a2.56,2.56,0,1,1,0-5.12,2.56,2.56,0,0,1,0,5.12ZM24.29,21a1.41,1.41,0,0,0-1.39-1.43,1.43,1.43,0,1,0,0,2.85A1.43,1.43,0,0,0,24.29,21Z"/><path class="cls-2" d="M6.34,10.23H9.73c.45,0,.75.33.6.71a.87.87,0,0,1-.38.38.73.73,0,0,1-.37,0H3.11l-.33,0a.54.54,0,0,1-.45-.56.57.57,0,0,1,.52-.55H6.34Z"/><path class="cls-2" d="M5.16,14H1.82c-.48,0-.76-.35-.62-.76a.62.62,0,0,1,.64-.38h1.5l5.19,0c.39,0,.61.16.67.47a.54.54,0,0,1-.42.64,1.34,1.34,0,0,1-.35,0H5.16Z"/><path class="cls-2" d="M4,19.13c.43,0,.82,0,1.21,0a.54.54,0,0,1,.47.75.51.51,0,0,1-.48.35c-.6,0-1.2,0-1.81,0a.49.49,0,0,1-.5-.51q0-1.08,0-2.16A.53.53,0,0,1,3.44,17a.53.53,0,0,1,.56.52C4,18.06,4,18.56,4,19.13Z"/></g></g></svg>