<svg xmlns="http://www.w3.org/2000/svg" viewBox="0 0 28 28"><defs><style>.cls-1{fill:none;}.cls-2{fill:#0091ff;}</style></defs><g id="Layer_2" data-name="Layer 2"><g id="Layer_1-2" data-name="Layer 1"><rect class="cls-1" width="28" height="28"/><path class="cls-2" d="M27.73.87V23a1,1,0,0,1-1,.65H18.05v2.47h.47a.76.76,0,0,1,.74.58.8.8,0,0,1-.82,1H9.68c-.6,0-1-.3-1-.8s.36-.81,1-.81H10V23.64H9.64c-2.76,0-5.52,0-8.28,0-.65,0-1.09-.26-1.09-1.1Q.3,12,.28,1.36A1,1,0,0,1,.87.28H27.14A1.25,1.25,0,0,1,27.73.87ZM1.91,1.9V17.5H26.1V1.9ZM1.9,22H26.1V19.15H1.9Zm9.71,4.07H16.4V23.66H11.61Z"/><path class="cls-2" d="M7.17,9.62a2.81,2.81,0,0,1,.29-3.87,2.77,2.77,0,0,1,3.67,0,2.81,2.81,0,0,1,.33,3.93l.12.1A3.89,3.89,0,0,1,13.19,13v.56a.82.82,0,0,1-.85.85h-6a.77.77,0,0,1-.81-.67,4.2,4.2,0,0,1,.95-3.38C6.65,10.07,6.92,9.86,7.17,9.62Zm4.37,3.13a2.22,2.22,0,0,0-4.43,0ZM9.33,6.65a1.18,1.18,0,1,0,1.18,1.17A1.18,1.18,0,0,0,9.33,6.65Z"/><path class="cls-2" d="M19.31,5h2.44a.79.79,0,0,1,.77,1,.8.8,0,0,1-.88.62H17.19a3.39,3.39,0,0,1-.45,0A.8.8,0,0,1,16.84,5Z"/><path class="cls-2" d="M19.31,12.76h2.36a.81.81,0,1,1,0,1.61H17a.81.81,0,0,1-.89-.82.8.8,0,0,1,.89-.79Z"/><path class="cls-2" d="M19.31,8.9h2.44a.79.79,0,0,1,.77,1,.76.76,0,0,1-.77.61H16.87a.78.78,0,0,1-.81-.82.79.79,0,0,1,.84-.78Z"/></g></g></svg>