<svg xmlns="http://www.w3.org/2000/svg" viewBox="0 0 28 28"><defs><style>.cls-1{fill:none;}.cls-2{fill:#0091ff;}</style></defs><g id="Layer_2" data-name="Layer 2"><g id="Layer_1-2" data-name="Layer 1"><rect class="cls-1" width="28" height="28"/><path class="cls-2" d="M27.77,22.06a4.34,4.34,0,0,1-.2.64,2.5,2.5,0,0,1-4,.89c-1.06-1-2.07-2.06-3.11-3.09s-2-2-2.94-2.95a.3.3,0,0,0-.39-.07,7.15,7.15,0,1,1,4.3-7.59A7,7,0,0,1,21,13.51a.37.37,0,0,0,.09.48c1.83,1.81,3.64,3.64,5.47,5.45a3.76,3.76,0,0,1,1.23,1.92ZM14.33,16.42a5.54,5.54,0,1,0-5.54-5.53A5.51,5.51,0,0,0,14.33,16.42Zm4.45.17.18.15,5.12,5.11c.19.19.37.39.57.57A.9.9,0,0,0,26.12,22a1,1,0,0,0-.31-1c-1.89-1.87-3.76-3.76-5.65-5.64L20,15.24l.07.1Z"/><path class="cls-2" d="M9.86,23.73H1.2a1.47,1.47,0,0,1-.42-.05.8.8,0,0,1-.55-.83A.82.82,0,0,1,1,22.12a2.43,2.43,0,0,1,.27,0H18.5a1.82,1.82,0,0,1,.33,0,.81.81,0,0,1-.1,1.6H9.86Z"/><path class="cls-2" d="M5.12,18.67h4a.81.81,0,0,1,.8,1.1.77.77,0,0,1-.75.51H1a.8.8,0,1,1,0-1.6Z"/><path class="cls-2" d="M3.4,15.23H5.66a.81.81,0,1,1,0,1.61H1.14a.81.81,0,1,1,0-1.61Z"/><path class="cls-2" d="M2.78,11.79H4.42a.81.81,0,1,1,0,1.61H1.1a.81.81,0,0,1-.87-.8.8.8,0,0,1,.85-.81Z"/></g></g></svg>