<svg xmlns="http://www.w3.org/2000/svg" viewBox="0 0 28 28"><defs><style>.cls-1{fill:none;}.cls-2{fill:#0091ff;stroke:#0091ff;stroke-miterlimit:10;stroke-width:0.3px;}</style></defs><g id="Layer_2" data-name="Layer 2"><g id="Layer_1-2" data-name="Layer 1"><rect class="cls-1" width="28" height="28"/><path class="cls-2" d="M.19,15.84A.76.76,0,0,1,1,15.41H7.38a1.32,1.32,0,0,1,.34,0,.52.52,0,0,1,.41.53.54.54,0,0,1-.42.53,1.67,1.67,0,0,1-.32,0H1a.72.72,0,0,1-.76-.44Z"/><path class="cls-2" d="M18.48,7.18H23a1,1,0,0,1,.71.26l3.78,3.13a.79.79,0,0,1,.31.65l-.06,8.3a.56.56,0,0,1-.62.64c-.34,0-.69,0-1,0a.56.56,0,0,1-.6-.52.57.57,0,0,1,.55-.59,5.42,5.42,0,0,1,.57,0c0-.12,0-.21,0-.3q0-3.58,0-7.17a.43.43,0,0,0-.18-.38c-1.11-.92-2.21-1.84-3.33-2.75a.58.58,0,0,0-.33-.14c-1.39,0-2.78,0-4.18,0H18.5V19.05h.81a2.68,2.68,0,0,1,.4,0,.52.52,0,0,1,.45.53.53.53,0,0,1-.45.55,1.67,1.67,0,0,1-.32,0H13c-.52,0-.78-.2-.78-.57s.27-.55.78-.55h4.37V5.71H4.49c-.27,0-.34.08-.34.35,0,1,0,2.05,0,3.07,0,.4-.15.62-.44.68a.53.53,0,0,1-.67-.45,1.93,1.93,0,0,1,0-.24V5.31c0-.52.2-.72.72-.72h14c.53,0,.73.21.73.74Z"/><path class="cls-2" d="M19.6,12.65V10.46c0-.47.2-.67.67-.67h2.65a.83.83,0,0,1,.6.24c.49.44,1,.88,1.47,1.31a.86.86,0,0,1,.31.68c0,.94,0,1.87,0,2.81,0,.5-.21.69-.72.69H20.3c-.49,0-.7-.2-.7-.68Zm1.14,1.74h3.44a9.33,9.33,0,0,1,0-1.3,1.68,1.68,0,0,0-.72-1.64,1.83,1.83,0,0,0-1.5-.56,8.34,8.34,0,0,1-1,0l-.23,0Z"/><path class="cls-2" d="M11.54,20.89A2.52,2.52,0,0,1,9,23.41a2.53,2.53,0,1,1,0-5.05A2.53,2.53,0,0,1,11.54,20.89Zm-2.49-1.4a1.41,1.41,0,0,0-1.43,1.38A1.43,1.43,0,0,0,9,22.29a1.41,1.41,0,0,0,1.38-1.4A1.39,1.39,0,0,0,9.05,19.49Z"/><path class="cls-2" d="M22.77,23.41a2.53,2.53,0,1,1,0-5.05,2.53,2.53,0,0,1,0,5.05Zm1.37-2.52a1.37,1.37,0,0,0-1.36-1.4,1.43,1.43,0,0,0-1.44,1.4,1.44,1.44,0,0,0,1.42,1.4A1.39,1.39,0,0,0,24.14,20.89Z"/><path class="cls-2" d="M6.45,10.28H9.79c.44,0,.73.33.59.7a.9.9,0,0,1-.37.38.74.74,0,0,1-.37,0H3.26a1.12,1.12,0,0,1-.32,0,.52.52,0,0,1-.45-.55A.55.55,0,0,1,3,10.29a3.53,3.53,0,0,1,.46,0Z"/><path class="cls-2" d="M5.28,14H2c-.47,0-.75-.35-.61-.75A.59.59,0,0,1,2,12.83H3.49l5.12,0c.38,0,.6.16.65.46a.52.52,0,0,1-.4.63,1.34,1.34,0,0,1-.35,0H5.28Z"/><path class="cls-2" d="M4.15,19.06c.42,0,.81,0,1.19,0a.53.53,0,0,1,.46.74.5.5,0,0,1-.47.35c-.59,0-1.19,0-1.78,0a.5.5,0,0,1-.5-.5q0-1.06,0-2.13A.53.53,0,0,1,3.59,17a.52.52,0,0,1,.55.51C4.16,18,4.15,18.5,4.15,19.06Z"/></g></g></svg>