<?xml version="1.0" encoding="UTF-8"?><svg id="Layer_2" xmlns="http://www.w3.org/2000/svg" viewBox="0 0 48 48"><defs><style>.cls-1{fill:none;}.cls-2{fill:#b3b3b3;}</style></defs><g id="Layer_1-2"><g><rect class="cls-1" width="48" height="48"/><path class="cls-2" d="M21.61,38.08c-.01,.96,.76,1.75,1.72,1.75,.96,0,1.75-.77,1.75-1.73,0-.95-.79-1.75-1.74-1.74-.94,0-1.71,.78-1.73,1.71Zm13.64-29.47c0,.81,0,1.62,0,2.43,0,1.08,.72,1.84,1.72,1.85,1.02,0,1.75-.76,1.76-1.85,0-.83,0-1.65,0-2.48-.02-3.99-3.06-7.04-7.05-7.05-5.56-.01-11.13-.02-16.69,.01-.78,0-1.6,.13-2.34,.39-2.9,.98-4.69,3.59-4.69,6.72,0,9.31,0,18.63,0,27.94,0,.9-.04,1.8,.01,2.69,.15,2.75,1.46,4.78,3.91,6.02,.69,.35,1.5,.49,2.25,.72h18.43c.08-.03,.16-.07,.24-.08,3.06-.46,5.5-2.86,5.83-5.93,.16-1.46,.07-2.95,.08-4.42,0-.19-.08-.4-.17-.58-.34-.71-1.13-1.09-1.88-.93-.81,.17-1.38,.82-1.4,1.66-.02,1.09,0,2.17-.01,3.26-.03,2.05-1.5,3.54-3.55,3.55-5.56,.02-11.13,.01-16.69,0-2.07,0-3.56-1.5-3.57-3.58,0-10.12,0-20.25,0-30.37,0-2.09,1.5-3.58,3.6-3.59,5.53-.01,11.07-.01,16.6,0,2.12,0,3.59,1.5,3.61,3.62Zm-11.9,2.55c.56,0,1.13,0,1.69,0,1.01-.02,1.76-.74,1.77-1.7,.01-.94-.7-1.73-1.68-1.75-1.2-.04-2.4-.04-3.6,0-.98,.03-1.69,.83-1.66,1.77,.02,.94,.76,1.67,1.74,1.69,.58,.01,1.16,0,1.74,0Zm7.74,11.85c-2.01-3.02-4.03-6.03-6.05-9.05-.04-.06-.09-.12-.16-.21v7.58c.06,.03,.11,.06,.17,.08,1.48,.69,1.89,2.48,.85,3.74-.63,.76-1.64,1.04-2.62,.72-.92-.3-1.56-1.15-1.63-2.18-.06-.91,.5-1.85,1.37-2.24,.18-.08,.24-.17,.24-.38,0-2.35,0-4.7,0-7.05v-.3c-.1,.14-.16,.21-.21,.29-1.14,1.71-2.28,3.42-3.43,5.13-.87,1.3-1.74,2.6-2.6,3.9-.3,.45-.28,.78,.08,1.19,.08,.09,.16,.17,.24,.26,.85,.93,1.51,1.97,1.94,3.15,.23,.63,.4,1.27,.6,1.92,.03,0,.08-.01,.13-.03,.6-.22,1.21-.3,1.84-.3,1.5,0,3.01-.01,4.51,.01,.49,0,.97,.12,1.46,.19,.15,.02,.3,.09,.46,.14,.02-.09,.05-.14,.06-.2,.4-1.97,3.33-6.08,2.67-5.13,.39-.41,.4-.74,.07-1.23Zm-1.57,10.03c-.48-1.31-1.65-2.18-3.04-2.2-1.61-.02-3.22-.02-4.83,0-1.39,.02-2.56,.88-3.04,2.2-.14,.4,0,.77,.38,.97,.06,.03,.12,.06,.19,.1h9.78c.56-.29,.73-.61,.56-1.07Z"/></g></g></svg>