<?xml version="1.0" encoding="UTF-8"?><svg id="Layer_2" xmlns="http://www.w3.org/2000/svg" viewBox="0 0 32 32"><defs><style>.cls-1{fill:#0091ff;}.cls-2{fill:none;}</style></defs><g id="Layer_2-2"><g><rect class="cls-2" width="32" height="32"/><g><path class="cls-1" d="M9.72,.39c.47,.2,.76,.51,.76,1.06,0,.08,.13,.19,.22,.23,.61,.29,1.08,.71,1.41,1.3,.28,.51,.15,1.08-.31,1.36-.48,.29-1.05,.14-1.37-.37-.23-.38-.55-.61-.99-.58-.4,.02-.72,.21-.9,.58-.18,.37-.13,.72,.22,.94,.4,.25,.84,.45,1.26,.66,.37,.19,.75,.36,1.11,.58,.94,.58,1.45,1.42,1.38,2.54-.08,1.17-.7,2.01-1.77,2.5-.19,.09-.27,.18-.28,.4-.01,.51-.42,.89-.92,.92-.48,.02-.95-.34-.99-.84-.02-.3-.15-.43-.4-.55-.56-.26-.97-.69-1.26-1.24-.27-.5-.12-1.08,.36-1.35,.46-.26,1.05-.13,1.32,.37,.33,.61,1.09,.8,1.63,.37,.52-.41,.52-1.08-.04-1.43-.46-.29-.97-.5-1.47-.74-.56-.27-1.1-.57-1.54-1.02-.07-.07-.19-.11-.29-.11-.84,0-1.69,0-2.53,0-.42,0-.63,.21-.63,.61,0,4.74,0,9.47,0,14.21,0,.04,0,.08,.01,.13H28.32c0-.12,0-.23,0-.34,0-4.61,0-9.23,0-13.84,0-.62-.16-.78-.78-.78-4.23,0-8.46,0-12.69,0-.64,0-1.01-.25-1.13-.76-.13-.53,.21-1.07,.75-1.17,.14-.03,.28-.03,.42-.03,4.22,0,8.44,0,12.66,0,1.68,0,2.72,1.03,2.72,2.72,0,6,0,11.99,0,17.99,0,1.64-1.04,2.69-2.68,2.69-2.41,0-4.82,0-7.23,0h-.38c.2,.77,.4,1.51,.6,2.25,.8,0,1.59,0,2.37,0,.65,0,1.09,.39,1.1,.97,0,.58-.44,.98-1.08,.98-4.65,0-9.29,0-13.94,0-.64,0-1.09-.41-1.08-.98,0-.58,.45-.97,1.1-.97,.78,0,1.56,0,2.37,0,.2-.74,.4-1.48,.6-2.25h-.35c-2.42,0-4.84,0-7.26,0-1.64,0-2.68-1.05-2.68-2.69,0-6.01,0-12.02,0-18.02,0-1.64,1.04-2.68,2.69-2.69,.6,0,1.2,0,1.8,0,.2,0,.29-.04,.34-.27,.22-.98,.82-1.66,1.73-2.07,.16-.07,.23-.14,.23-.33,0-.49,.31-.76,.71-.97h.49ZM3.68,22.91c0,.59,0,1.16,0,1.73,0,.68,.14,.82,.82,.82,7.66,0,15.33,0,22.99,0,.11,0,.23,0,.34,0,.27-.04,.47-.2,.48-.47,.02-.69,0-1.38,0-2.08H3.68Zm9.76,6.74h5.11c-.19-.71-.36-1.39-.56-2.07-.02-.07-.15-.16-.23-.16-1.18-.01-2.36,0-3.54,0-.08,0-.2,.07-.22,.14-.2,.69-.38,1.39-.56,2.1Z"/><path class="cls-1" d="M18.13,14.09c1.35-1.31,2.68-2.59,4.06-3.93-.27,0-.47,0-.67,0-.57-.02-.97-.43-.98-.96,0-.54,.42-.98,.99-.98,1.03,0,2.05,0,3.08,.03,.5,.01,.9,.43,.9,.94,0,1.01-.02,2.01-.05,3.02-.02,.5-.44,.89-.94,.89-.52,0-.95-.38-.99-.92-.01-.16,0-.32,0-.54-.13,.12-.21,.19-.28,.27-1.34,1.36-2.69,2.72-4.03,4.07-.56,.56-.96,.59-1.61,.13-1.16-.82-2.31-1.65-3.49-2.49-.76,.56-1.52,1.13-2.27,1.69-.96,.71-1.92,1.44-2.89,2.14-.64,.46-1.45,.15-1.58-.6-.07-.44,.13-.76,.48-1.01,1.53-1.13,3.05-2.26,4.57-3.4,.3-.22,.6-.45,.91-.67,.6-.44,.92-.44,1.54,0,1.12,.79,2.23,1.59,3.27,2.33Z"/></g></g></g></svg>