<?xml version="1.0" encoding="UTF-8"?><svg id="Layer_2" xmlns="http://www.w3.org/2000/svg" viewBox="0 0 1887.2 1539.48"><defs><style>.cls-1{fill:#ebf2ff;}.cls-2{fill:#fff;}.cls-3{fill:#ff4731;}.cls-4{fill:#ffc861;}.cls-5{fill:#00b25e;}.cls-6{fill:#3c89ff;}.cls-7{fill:#cde8f9;}.cls-8{fill:#2264c4;}.cls-9{fill:#353535;}.cls-10{fill:#fd924b;}</style></defs><g id="landing_illustration"><g id="illustration"><rect class="cls-1" x="281.28" y="727.49" width="1324.64" height="811" rx="31" ry="31"/><g><rect class="cls-4" x="768.29" y="392.43" width="23.82" height="90.52"/><rect class="cls-6" x="755.71" y="392.43" width="48.97" height="48.97"/></g><g><rect class="cls-4" x="931.69" y="392.43" width="23.82" height="90.52"/><rect class="cls-6" x="919.11" y="392.43" width="48.97" height="48.97"/></g><g><rect class="cls-4" x="1095.1" y="392.43" width="23.82" height="90.52"/><rect class="cls-6" x="1082.52" y="392.43" width="48.97" height="48.97"/></g><g><path class="cls-6" d="M1247.72,253.5c-6.4,0-12.58,.96-18.4,2.73,7.69-65.83-54.41-122.31-119.17-108.66-5.94-26.34-17.34-50.61-32.95-71.57-87.72-121.25-281.67-91.4-330.87,46.71-40.07-12.65-86.95-4.11-119.86,22.41-97.32,73.3-41.38,237.2,81.28,234.72,0,0,539.96,0,539.96,0,23.33,0,43.69-12.65,54.63-31.47,24.75-40.45-7.02-96.1-54.63-94.89Z"/><g><path class="cls-2" d="M842.09,222.78c-.64,1.02-1.31,1.79-2.01,2.3-.7,.51-1.61,.77-2.71,.77-.98,0-2.03-.31-3.16-.93-1.13-.62-2.4-1.31-3.83-2.08-1.43-.77-3.05-1.46-4.88-2.07-1.83-.62-3.92-.93-6.26-.93-4.04,0-7.05,.86-9.03,2.59-1.98,1.72-2.97,4.05-2.97,6.99,0,1.87,.6,3.43,1.79,4.66,1.19,1.23,2.75,2.3,4.69,3.19,1.94,.89,4.15,1.71,6.64,2.46,2.49,.75,5.03,1.58,7.63,2.49,2.6,.92,5.14,1.99,7.63,3.22,2.49,1.23,4.7,2.81,6.64,4.72,1.94,1.92,3.5,4.25,4.69,6.99,1.19,2.74,1.79,6.05,1.79,9.93,0,4.3-.75,8.32-2.23,12.07-1.49,3.75-3.65,7.01-6.48,9.8-2.83,2.79-6.32,4.98-10.47,6.58-4.15,1.6-8.86,2.39-14.14,2.39-2.89,0-5.84-.3-8.84-.89-3-.59-5.91-1.44-8.71-2.52-2.81-1.09-5.45-2.37-7.92-3.86-2.47-1.49-4.62-3.15-6.45-4.98l6.38-10.09c.51-.72,1.18-1.33,2.01-1.82,.83-.49,1.73-.73,2.71-.73,1.28,0,2.56,.4,3.86,1.21,1.3,.81,2.77,1.7,4.41,2.68,1.64,.98,3.52,1.87,5.65,2.68,2.13,.81,4.64,1.21,7.53,1.21,3.92,0,6.96-.86,9.13-2.59,2.17-1.72,3.26-4.46,3.26-8.2,0-2.17-.6-3.94-1.79-5.3-1.19-1.36-2.76-2.49-4.69-3.38-1.94-.89-4.14-1.68-6.61-2.36-2.47-.68-5-1.44-7.6-2.27-2.6-.83-5.13-1.85-7.6-3.06-2.47-1.21-4.67-2.81-6.61-4.79-1.94-1.98-3.5-4.45-4.69-7.41-1.19-2.96-1.79-6.61-1.79-10.95,0-3.49,.7-6.9,2.11-10.21,1.4-3.32,3.47-6.28,6.19-8.87,2.72-2.6,6.06-4.67,10.02-6.22,3.96-1.55,8.49-2.33,13.6-2.33,2.85,0,5.63,.22,8.33,.67,2.7,.45,5.27,1.11,7.69,1.98,2.43,.87,4.69,1.92,6.8,3.13,2.11,1.21,3.99,2.59,5.65,4.12l-5.36,10.02Z"/><path class="cls-2" d="M903.96,296.9c-1.87,0-3.29-.26-4.25-.77-.96-.51-1.76-1.57-2.39-3.19l-1.4-3.64c-1.66,1.4-3.26,2.64-4.79,3.7-1.53,1.06-3.12,1.97-4.76,2.71-1.64,.75-3.38,1.3-5.23,1.66-1.85,.36-3.91,.54-6.16,.54-3.02,0-5.77-.39-8.24-1.18-2.47-.79-4.56-1.95-6.29-3.48-1.72-1.53-3.05-3.44-3.99-5.71-.94-2.28-1.4-4.9-1.4-7.88,0-2.34,.6-4.75,1.79-7.21,1.19-2.47,3.26-4.71,6.19-6.74,2.94-2.02,6.89-3.71,11.87-5.08,4.98-1.36,11.26-2.13,18.83-2.3v-2.81c0-3.87-.8-6.67-2.39-8.4-1.6-1.72-3.86-2.59-6.8-2.59-2.34,0-4.26,.25-5.75,.77-1.49,.51-2.82,1.09-3.99,1.72-1.17,.64-2.31,1.21-3.42,1.72-1.11,.51-2.43,.77-3.96,.77-1.36,0-2.51-.34-3.45-1.02-.94-.68-1.7-1.49-2.3-2.43l-3.57-6.19c4-3.53,8.44-6.16,13.31-7.88,4.87-1.72,10.1-2.59,15.67-2.59,4,0,7.61,.65,10.82,1.95,3.21,1.3,5.94,3.11,8.17,5.43,2.23,2.32,3.95,5.08,5.14,8.27,1.19,3.19,1.79,6.68,1.79,10.47v41.37h-9.07Zm-22.73-12.07c2.55,0,4.79-.45,6.7-1.34,1.92-.89,3.85-2.34,5.81-4.34v-9.19c-3.96,.17-7.21,.51-9.77,1.02-2.55,.51-4.58,1.15-6.06,1.92-1.49,.77-2.52,1.64-3.1,2.62-.57,.98-.86,2.04-.86,3.19,0,2.26,.62,3.84,1.85,4.76,1.23,.92,3.04,1.37,5.43,1.37Z"/><path class="cls-2" d="M971.31,296.9c-1.87,0-3.29-.26-4.25-.77-.96-.51-1.76-1.57-2.39-3.19l-1.4-3.64c-1.66,1.4-3.26,2.64-4.79,3.7-1.53,1.06-3.12,1.97-4.76,2.71-1.64,.75-3.38,1.3-5.23,1.66-1.85,.36-3.91,.54-6.16,.54-3.02,0-5.77-.39-8.24-1.18-2.47-.79-4.56-1.95-6.29-3.48-1.72-1.53-3.05-3.44-3.99-5.71-.94-2.28-1.4-4.9-1.4-7.88,0-2.34,.6-4.75,1.79-7.21,1.19-2.47,3.26-4.71,6.19-6.74,2.94-2.02,6.89-3.71,11.87-5.08,4.98-1.36,11.26-2.13,18.83-2.3v-2.81c0-3.87-.8-6.67-2.39-8.4-1.6-1.72-3.86-2.59-6.8-2.59-2.34,0-4.26,.25-5.75,.77-1.49,.51-2.82,1.09-3.99,1.72-1.17,.64-2.31,1.21-3.42,1.72-1.11,.51-2.43,.77-3.96,.77-1.36,0-2.51-.34-3.45-1.02-.94-.68-1.7-1.49-2.3-2.43l-3.57-6.19c4-3.53,8.44-6.16,13.31-7.88,4.87-1.72,10.1-2.59,15.67-2.59,4,0,7.61,.65,10.82,1.95,3.21,1.3,5.94,3.11,8.17,5.43,2.23,2.32,3.95,5.08,5.14,8.27,1.19,3.19,1.79,6.68,1.79,10.47v41.37h-9.07Zm-22.73-12.07c2.55,0,4.79-.45,6.7-1.34,1.92-.89,3.85-2.34,5.81-4.34v-9.19c-3.96,.17-7.21,.51-9.77,1.02-2.55,.51-4.58,1.15-6.06,1.92-1.49,.77-2.52,1.64-3.1,2.62-.57,.98-.86,2.04-.86,3.19,0,2.26,.62,3.84,1.85,4.76,1.23,.92,3.04,1.37,5.43,1.37Z"/><path class="cls-2" d="M1047.22,222.78c-.64,1.02-1.31,1.79-2.01,2.3-.7,.51-1.61,.77-2.71,.77-.98,0-2.03-.31-3.16-.93-1.13-.62-2.4-1.31-3.83-2.08-1.43-.77-3.05-1.46-4.88-2.07-1.83-.62-3.92-.93-6.26-.93-4.04,0-7.05,.86-9.03,2.59-1.98,1.72-2.97,4.05-2.97,6.99,0,1.87,.6,3.43,1.79,4.66,1.19,1.23,2.75,2.3,4.69,3.19,1.94,.89,4.15,1.71,6.64,2.46,2.49,.75,5.03,1.58,7.63,2.49,2.6,.92,5.14,1.99,7.63,3.22,2.49,1.23,4.7,2.81,6.64,4.72,1.94,1.92,3.5,4.25,4.69,6.99,1.19,2.74,1.79,6.05,1.79,9.93,0,4.3-.75,8.32-2.23,12.07-1.49,3.75-3.65,7.01-6.48,9.8-2.83,2.79-6.32,4.98-10.47,6.58-4.15,1.6-8.86,2.39-14.14,2.39-2.89,0-5.84-.3-8.84-.89-3-.59-5.91-1.44-8.71-2.52-2.81-1.09-5.45-2.37-7.92-3.86-2.47-1.49-4.62-3.15-6.45-4.98l6.38-10.09c.51-.72,1.18-1.33,2.01-1.82,.83-.49,1.73-.73,2.71-.73,1.28,0,2.56,.4,3.86,1.21,1.3,.81,2.77,1.7,4.41,2.68,1.64,.98,3.52,1.87,5.65,2.68,2.13,.81,4.64,1.21,7.53,1.21,3.92,0,6.96-.86,9.13-2.59,2.17-1.72,3.26-4.46,3.26-8.2,0-2.17-.6-3.94-1.79-5.3-1.19-1.36-2.76-2.49-4.69-3.38-1.94-.89-4.14-1.68-6.61-2.36-2.47-.68-5-1.44-7.6-2.27-2.6-.83-5.13-1.85-7.6-3.06-2.47-1.21-4.67-2.81-6.61-4.79-1.94-1.98-3.5-4.45-4.69-7.41-1.19-2.96-1.79-6.61-1.79-10.95,0-3.49,.7-6.9,2.11-10.21,1.4-3.32,3.47-6.28,6.19-8.87,2.72-2.6,6.06-4.67,10.02-6.22,3.96-1.55,8.49-2.33,13.6-2.33,2.85,0,5.63,.22,8.33,.67,2.7,.45,5.27,1.11,7.69,1.98,2.43,.87,4.69,1.92,6.8,3.13,2.11,1.21,3.99,2.59,5.65,4.12l-5.36,10.02Z"/></g></g><g><path d="M1159.44,1115.37h595.62c4.97,0,9,4.03,9,9v389.85h-613.62v-389.85c0-4.97,4.03-9,9-9Z"/><rect class="cls-1" x="1170.82" y="1135.52" width="572.86" height="355.49"/><path class="cls-2" d="M1723.69,1195.02v265.99c0,5.52-4.48,10-10,10h-512.86c-5.52,0-10-4.48-10-10v-295.49c0-5.52,4.48-10,10-10h74.84c5.52,0,10,4.48,10,10v9.5c0,5.52,4.48,10,10,10h418.02c5.52,0,10,4.48,10,10Z"/><polygon class="cls-6" points="1764.06 1538.48 1150.44 1538.48 1094.89 1523.5 1094.89 1514.22 1819.62 1514.22 1819.62 1523.5 1764.06 1538.48"/><g><circle class="cls-3" cx="1215.37" cy="1170.27" r="6.37"/><circle class="cls-4" cx="1238.25" cy="1170.27" r="6.37"/><circle class="cls-5" cx="1261.13" cy="1170.27" r="6.37"/></g></g><rect y="1537.48" width="1887.2" height="2"/><g><rect class="cls-6" x="123.15" y="905.23" width="761.02" height="515.31" rx="9" ry="9"/><path d="M132.15,882.06H875.18c4.97,0,9,4.03,9,9v460.67H123.15v-460.67c0-4.97,4.03-9,9-9Z"/><rect class="cls-2" x="148.43" y="907.06" width="710.48" height="415.9"/><rect class="cls-6" x="418.01" y="1420.54" width="171.3" height="92.67"/><rect class="cls-8" x="352.02" y="1513.21" width="303.29" height="25.27"/><circle class="cls-2" cx="503.66" cy="1384.73" r="16.15"/><polygon class="cls-8" points="589.32 1459.85 418.01 1485.13 418.01 1420.54 589.32 1420.54 589.32 1459.85"/><circle class="cls-3" cx="177.12" cy="935.75" r="9.59" transform="translate(-774.29 893.14) rotate(-76.72)"/><circle class="cls-4" cx="211.56" cy="935.75" r="9.59" transform="translate(-747.77 926.66) rotate(-76.72)"/><circle class="cls-5" cx="245.99" cy="935.75" r="9.59" transform="translate(-721.25 960.17) rotate(-76.72)"/></g><circle class="cls-6" cx="1457.25" cy="1288.52" r="76.38" transform="translate(-187.58 250.06) rotate(-9.22)"/><g><path class="cls-6" d="M1577.31,1458.41c-25.74,0-46.68-20.94-46.68-46.68s20.94-46.68,46.68-46.68,46.68,20.94,46.68,46.68-20.94,46.68-46.68,46.68Zm0-87.35c-22.43,0-40.68,18.25-40.68,40.68s18.25,40.68,40.68,40.68,40.68-18.25,40.68-40.68-18.25-40.68-40.68-40.68Z"/><g><path class="cls-6" d="M1591.72,1439.23c-1.66,0-3-1.34-3-3v-2.92c0-6.29-5.12-11.41-11.41-11.41s-11.41,5.12-11.41,11.41v2.92c0,1.66-1.34,3-3,3s-3-1.34-3-3v-2.92c0-9.6,7.81-17.41,17.41-17.41s17.41,7.81,17.41,17.41v2.92c0,1.66-1.34,3-3,3Z"/><path class="cls-6" d="M1577.31,1410.51c-7.25,0-13.14-5.89-13.14-13.14s5.89-13.14,13.14-13.14,13.14,5.89,13.14,13.14-5.89,13.14-13.14,13.14Zm0-20.28c-3.94,0-7.14,3.2-7.14,7.14s3.2,7.14,7.14,7.14,7.14-3.2,7.14-7.14-3.2-7.14-7.14-7.14Z"/></g></g><g><path class="cls-6" d="M1337.19,1458.41c-25.74,0-46.68-20.94-46.68-46.68s20.94-46.68,46.68-46.68,46.68,20.94,46.68,46.68-20.94,46.68-46.68,46.68Zm0-87.35c-22.43,0-40.68,18.25-40.68,40.68s18.25,40.68,40.68,40.68,40.68-18.25,40.68-40.68-18.25-40.68-40.68-40.68Z"/><g><path class="cls-6" d="M1351.6,1439.23c-1.66,0-3-1.34-3-3v-2.92c0-6.29-5.12-11.41-11.41-11.41s-11.41,5.12-11.41,11.41v2.92c0,1.66-1.34,3-3,3s-3-1.34-3-3v-2.92c0-9.6,7.81-17.41,17.41-17.41s17.41,7.81,17.41,17.41v2.92c0,1.66-1.34,3-3,3Z"/><path class="cls-6" d="M1337.19,1410.51c-7.25,0-13.14-5.89-13.14-13.14s5.89-13.14,13.14-13.14,13.14,5.89,13.14,13.14-5.89,13.14-13.14,13.14Zm0-20.28c-3.94,0-7.14,3.2-7.14,7.14s3.2,7.14,7.14,7.14,7.14-3.2,7.14-7.14-3.2-7.14-7.14-7.14Z"/></g></g><path class="cls-6" d="M506.67,844.24h-6v-8h6v8Zm0-24h-6v-8h6v8Zm.02-23.95l-6-.11c.05-2.72,.18-5.47,.4-8.17l5.98,.47c-.21,2.58-.33,5.21-.38,7.8Zm2.57-23.27l-5.88-1.21c.55-2.66,1.18-5.34,1.89-7.96l5.79,1.57c-.68,2.5-1.28,5.06-1.8,7.6Zm6.81-22.39l-5.55-2.27c1.02-2.51,2.14-5.02,3.32-7.46l5.4,2.61c-1.13,2.33-2.19,4.73-3.17,7.12Zm10.81-20.73l-5.04-3.25c1.47-2.28,3.03-4.54,4.64-6.73l4.83,3.56c-1.54,2.09-3.03,4.25-4.43,6.43Zm14.44-18.42l-4.36-4.12c1.86-1.97,3.81-3.92,5.8-5.77l4.1,4.38c-1.89,1.77-3.76,3.63-5.54,5.51Zm17.57-15.48l-3.54-4.85c2.2-1.6,4.47-3.16,6.76-4.62l3.23,5.05c-2.19,1.4-4.36,2.88-6.45,4.41Zm20.11-12l-2.59-5.41c2.46-1.17,4.98-2.28,7.5-3.3l2.25,5.56c-2.41,.97-4.81,2.03-7.16,3.15Zm21.98-8.09l-1.54-5.8c2.62-.7,5.3-1.32,7.97-1.85l1.18,5.88c-2.55,.51-5.1,1.11-7.61,1.77Zm23.08-3.89l-.45-5.98c2.7-.2,5.45-.32,8.17-.36l.08,6c-2.6,.04-5.23,.15-7.8,.35Zm26.19-.36h-2.42v-6h2.39c1.83-.01,3.66-.04,5.48-.12l.25,5.99c-1.89,.08-3.81,.12-5.7,.12Zm21.97-1.81l-.99-5.92c2.56-.43,5.14-.94,7.66-1.52l1.35,5.85c-2.64,.61-5.34,1.15-8.02,1.59Zm23.7-6.25l-2.06-5.63c2.43-.89,4.86-1.86,7.24-2.9l2.41,5.5c-2.49,1.09-5.04,2.11-7.58,3.04Zm22.12-10.51l-3.06-5.16c2.23-1.32,4.44-2.73,6.59-4.19l3.37,4.96c-2.24,1.53-4.56,3-6.9,4.39Zm19.83-14.4l-3.96-4.51c1.95-1.71,3.87-3.5,5.71-5.33l4.22,4.26c-1.93,1.91-3.94,3.79-5.98,5.58Zm16.87-17.78l-4.71-3.71c1.6-2.03,3.17-4.15,4.65-6.28l4.93,3.42c-1.55,2.24-3.19,4.45-4.87,6.58Zm13.34-20.57l-5.31-2.79c1.21-2.3,2.35-4.67,3.41-7.04l5.48,2.45c-1.11,2.48-2.31,4.96-3.58,7.37Zm9.33-22.69l-5.74-1.76c.76-2.48,1.45-5.01,2.05-7.54l5.83,1.4c-.63,2.64-1.36,5.3-2.15,7.89Zm4.97-24l-5.96-.67c.29-2.58,.5-5.2,.63-7.79l5.99,.3c-.14,2.71-.36,5.45-.66,8.15Zm.83-24.3h-6v-8h6v8Zm0-24h-6v-8h6v8Z"/><path class="cls-6" d="M1460.25,1082.54h-6v-8h6v8Zm0-24h-6v-8h6v8Zm0-24h-6v-8h6v8Zm0-24h-6v-8h6v8Zm0-24h-6v-8h6v8Zm0-24h-6v-8h6v8Zm0-24h-6v-8h6v8Zm0-24h-6v-8h6v8Zm0-24h-6v-8h6v8Zm0-24h-6v-8h6v8Zm0-24h-6v-8h6v8Zm0-24h-6v-6.03c0-.64,0-1.28-.01-1.92l6-.09c.01,.67,.02,1.34,.02,2.01v6.03Zm-7.19-23.53c-.35-2.57-.79-5.16-1.3-7.7l5.88-1.18c.54,2.66,1,5.38,1.37,8.07l-5.94,.82Zm-5.33-22.79c-.82-2.45-1.73-4.92-2.7-7.33l5.56-2.25c1.02,2.52,1.97,5.1,2.83,7.68l-5.69,1.9Zm-9.44-21.4c-1.26-2.27-2.61-4.52-4-6.7l5.05-3.24c1.46,2.28,2.87,4.64,4.19,7.02l-5.24,2.92Zm-13.21-19.31c-1.66-2-3.39-3.97-5.17-5.86l4.38-4.1c1.86,1.98,3.68,4.04,5.41,6.13l-4.62,3.83Zm-16.53-16.58c-1.99-1.66-4.06-3.28-6.15-4.82l3.55-4.83c2.19,1.61,4.36,3.31,6.44,5.05l-3.84,4.61Zm-19.28-13.28c-2.27-1.27-4.6-2.49-6.94-3.61l2.6-5.41c2.45,1.18,4.89,2.45,7.27,3.78l-2.93,5.23Zm-21.4-9.51c-2.45-.83-4.97-1.59-7.47-2.27l1.56-5.79c2.63,.71,5.26,1.51,7.83,2.37l-1.92,5.68Zm-22.77-5.39c-2.56-.36-5.17-.65-7.76-.85l.47-5.98c2.71,.21,5.45,.51,8.13,.89l-.84,5.94Zm-23.51-1.24h-8v-6h8v6Zm-24,0h-8v-6h8v6Zm-24,0h-8v-6h8v6Zm-24,0h-8v-6h8v6Zm-24.24-.5c-2.71-.24-5.44-.56-8.12-.96l.88-5.93c2.56,.38,5.17,.69,7.76,.91l-.52,5.98Zm-24.12-4.37c-2.62-.73-5.24-1.55-7.81-2.44l1.97-5.67c2.45,.85,4.96,1.63,7.46,2.33l-1.61,5.78Zm-22.9-8.75c-2.43-1.2-4.86-2.49-7.22-3.84l2.98-5.21c2.25,1.29,4.57,2.52,6.89,3.66l-2.65,5.38Zm-20.89-12.81c-2.17-1.63-4.33-3.34-6.4-5.1l3.88-4.58c1.98,1.68,4.03,3.31,6.11,4.87l-3.59,4.8Zm-18.2-16.41c-1.84-1.99-3.64-4.07-5.36-6.18l4.65-3.79c1.64,2.01,3.36,4,5.12,5.9l-4.41,4.07Zm-14.9-19.47c-1.45-2.3-2.84-4.68-4.14-7.06l5.27-2.87c1.24,2.28,2.58,4.55,3.96,6.74l-5.08,3.19Zm-11.08-21.88c-1-2.54-1.93-5.13-2.77-7.71l5.71-1.85c.8,2.47,1.69,4.94,2.65,7.36l-5.58,2.2Zm-6.85-23.55c-.51-2.66-.95-5.38-1.3-8.08l5.95-.77c.33,2.58,.75,5.17,1.24,7.71l-5.89,1.13Zm-2.39-24.39v-8.02s6,0,6,0v7.98s-6,.04-6,.04Zm6-24.02h-6v-8h6v8Zm0-24h-6v-8h6v8Z"/><path class="cls-6" d="M1069.92,1050.39h-8v-6h8v6Zm-24,0h-8v-6h8v6Zm40.06-.03l-.12-6c2.6-.05,5.22-.19,7.79-.4l.5,5.98c-2.7,.23-5.45,.37-8.18,.42Zm24.37-2.84l-1.26-5.87c2.53-.55,5.07-1.18,7.57-1.89l1.64,5.77c-2.62,.75-5.29,1.41-7.95,1.99Zm23.37-7.48l-2.38-5.51c2.38-1.03,4.75-2.14,7.05-3.32l2.73,5.34c-2.42,1.23-4.91,2.4-7.4,3.48Zm21.47-11.84l-3.39-4.95c2.14-1.46,4.25-3.02,6.29-4.61l3.7,4.72c-2.14,1.68-4.36,3.3-6.6,4.84Zm18.81-15.74l-4.27-4.21c1.82-1.84,3.6-3.77,5.3-5.73l4.53,3.93c-1.78,2.06-3.65,4.08-5.56,6.01Zm15.47-19.05l-5-3.32c1.43-2.16,2.81-4.39,4.11-6.64l5.2,2.99c-1.36,2.36-2.81,4.71-4.31,6.97Zm11.53-21.67l-5.54-2.29c.99-2.4,1.92-4.86,2.75-7.31l5.68,1.93c-.87,2.58-1.85,5.16-2.89,7.68Zm7.13-23.51l-5.88-1.18c.51-2.54,.94-5.13,1.28-7.7l5.95,.79c-.36,2.7-.81,5.41-1.34,8.08Zm2.47-24.41l-6-.03v-.63c0-2.39-.07-4.81-.21-7.18l5.99-.35c.15,2.48,.22,5.02,.22,7.53v.66Zm-8.11-23.31c-.48-2.55-1.05-5.11-1.7-7.61l5.81-1.49c.68,2.63,1.28,5.32,1.78,7.99l-5.9,1.11Zm-6.55-22.44c-.96-2.4-2.02-4.8-3.13-7.13l5.41-2.59c1.17,2.45,2.28,4.97,3.29,7.49l-5.57,2.23Zm-10.75-20.74c-1.41-2.17-2.9-4.33-4.45-6.41l4.82-3.58c1.62,2.18,3.19,4.44,4.67,6.72l-5.04,3.26Zm-14.54-18.3c-1.8-1.87-3.68-3.7-5.59-5.44l4.04-4.43c2.01,1.83,3.98,3.75,5.87,5.71l-4.32,4.17Zm-17.77-15.2c-2.13-1.49-4.32-2.93-6.54-4.27l3.12-5.12c2.32,1.41,4.63,2.92,6.86,4.49l-3.44,4.91Zm-20.36-11.51c-2.37-1.05-4.81-2.04-7.24-2.94l2.07-5.63c2.55,.94,5.11,1.98,7.6,3.08l-2.43,5.48Zm-22.21-7.37c-2.53-.57-5.1-1.07-7.66-1.48l.95-5.92c2.68,.43,5.39,.95,8.04,1.55l-1.33,5.85Zm-23.19-2.94c-1.24-.04-2.48-.06-3.73-.06h-4.18v-6h4.18c1.31,0,2.61,.02,3.91,.06l-.18,6Zm-24.02-.14c-2.72-.1-5.47-.29-8.17-.56l.6-5.97c2.57,.26,5.19,.44,7.79,.53l-.22,6Zm-24.32-3.24c-2.65-.62-5.31-1.33-7.91-2.12l1.74-5.74c2.48,.75,5.01,1.43,7.54,2.02l-1.36,5.84Zm-23.24-7.87c-2.47-1.12-4.94-2.33-7.34-3.6l2.81-5.3c2.29,1.22,4.64,2.37,7,3.43l-2.47,5.47Zm-21.27-12.2c-2.21-1.57-4.41-3.24-6.52-4.95l3.78-4.66c2.01,1.63,4.1,3.22,6.22,4.72l-3.47,4.89Zm-18.55-16.05c-1.88-1.97-3.72-4.02-5.46-6.11l4.6-3.85c1.66,1.98,3.41,3.94,5.2,5.82l-4.34,4.14Zm-15.15-19.3c-1.47-2.29-2.88-4.66-4.19-7.04l5.25-2.9c1.25,2.27,2.6,4.53,4,6.71l-5.05,3.23Zm-11.17-21.86c-1-2.53-1.93-5.13-2.76-7.73l5.71-1.83c.79,2.47,1.67,4.95,2.63,7.36l-5.58,2.2Zm-6.74-23.61c-.49-2.67-.9-5.4-1.21-8.1l5.96-.7c.3,2.57,.69,5.17,1.15,7.72l-5.9,1.08Zm3.93-24.41h-6v-8h6v8Zm0-24h-6v-8h6v8Zm0-24h-6v-8h6v8Zm0-24h-6v-8h6v8Zm0-24h-6v-8h6v8Zm0-24h-6v-8h6v8Zm0-24h-6v-8h6v8Zm0-24h-6v-8h6v8Z"/><g><path class="cls-6" d="M577.65,1193.92h-193.14c-1.02,0-1.97-.52-2.52-1.38-.55-.86-.63-1.94-.2-2.87l47.08-102.82c.49-1.07,1.55-1.75,2.73-1.75h191.22c1.01,0,1.96,.51,2.51,1.36,.55,.85,.64,1.92,.23,2.85l-45.16,102.82c-.48,1.09-1.56,1.79-2.75,1.79Zm-188.47-6h186.51l42.53-96.82h-184.7l-44.34,96.82Z"/><path class="cls-6" d="M384.51,1193.92c-1.66,0-3-1.34-3-3v-151.82c0-1.66,1.34-3,3-3h65.34c1.16,0,2.22,.67,2.71,1.72l6.88,14.61h120.13c1.66,0,3,1.34,3,3v15.49c0,1.66-1.34,3-3,3s-3-1.34-3-3v-12.49h-119.04c-1.16,0-2.22-.67-2.71-1.72l-6.88-14.61h-60.44v148.82c0,1.66-1.34,3-3,3Z"/></g><g><polygon class="cls-4" points="1694.58 958.6 1694.58 1163.9 1516.15 1163.9 1516.15 913.21 1649.19 913.21 1694.58 958.6"/><polygon class="cls-10" points="1649.19 913.21 1694.58 958.6 1649.19 958.6 1649.19 913.21"/><g><path class="cls-2" d="M1651.94,1104.84h-93.15c-1.66,0-3-1.34-3-3v-25.92c0-1.66,1.34-3,3-3s3,1.34,3,3v22.92h87.15v-22.92c0-1.66,1.34-3,3-3s3,1.34,3,3v25.92c0,1.66-1.34,3-3,3Z"/><path class="cls-2" d="M1605.36,1071.22c-.97,0-1.88-.47-2.44-1.26l-27.79-39c-.65-.91-.74-2.12-.22-3.12,.51-1,1.54-1.63,2.67-1.63h8.72v-50.95c0-1.07,.57-2.05,1.49-2.59,.92-.54,2.06-.54,2.99-.02l14.6,8.27,14.6-8.27c.93-.53,2.07-.52,2.99,.02,.92,.54,1.49,1.52,1.49,2.59v50.95h8.72c1.12,0,2.15,.63,2.67,1.63,.51,1,.43,2.2-.22,3.12l-27.8,39c-.56,.79-1.47,1.26-2.44,1.26Zm-21.97-39l21.97,30.83,21.97-30.83h-5.9c-1.66,0-3-1.34-3-3v-48.81l-11.6,6.57c-.92,.52-2.04,.52-2.96,0l-11.6-6.57v48.81c0,1.66-1.34,3-3,3h-5.9Z"/></g></g><path class="cls-6" d="M1546.84,1383.46c-.78,0-1.56-.3-2.15-.91l-36.28-37.23c-1.16-1.19-1.13-3.09,.05-4.24,1.19-1.16,3.09-1.13,4.24,.05l36.28,37.23c1.16,1.19,1.13,3.09-.05,4.24-.58,.57-1.34,.85-2.09,.85Z"/><path class="cls-6" d="M1367.67,1383.46c-.75,0-1.51-.28-2.09-.85-1.19-1.16-1.21-3.06-.05-4.24l36.28-37.24c1.15-1.19,3.05-1.21,4.24-.05,1.19,1.16,1.21,3.06,.05,4.24l-36.28,37.24c-.59,.6-1.37,.91-2.15,.91Z"/><path class="cls-6" d="M1533.64,1414.73h-152.77c-1.66,0-3-1.34-3-3s1.34-3,3-3h152.77c1.66,0,3,1.34,3,3s-1.34,3-3,3Z"/><g><g><rect x="772.98" y="939.98" width="195.33" height="338" rx="20" ry="20"/><path class="cls-2" d="M792.98,1265.98c-4.41,0-8-3.59-8-8v-298c0-4.41,3.59-8,8-8h14.55c2.39,0,4.33,1.94,4.33,4.33,0,9.37,7.63,17,17,17h83.58c9.37,0,17-7.63,17-17,0-2.39,1.94-4.33,4.33-4.33h14.55c4.41,0,8,3.59,8,8v298c0,4.41-3.59,8-8,8h-155.33Z"/><g><path class="cls-9" d="M897.31,953.56h-39.65c-1.79,0-3.25,1.46-3.25,3.25s1.46,3.25,3.25,3.25h39.65c1.79,0,3.25-1.46,3.25-3.25s-1.46-3.25-3.25-3.25Z"/><circle class="cls-9" cx="843.99" cy="956.81" r="3.25"/></g></g><g><path class="cls-6" d="M847.54,1031.85h-37.56c-1.66,0-3-1.34-3-3s1.34-3,3-3h37.56c1.66,0,3,1.34,3,3s-1.34,3-3,3Z"/><path class="cls-6" d="M871.51,1050.39h-61.54c-1.66,0-3-1.34-3-3s1.34-3,3-3h61.54c1.66,0,3,1.34,3,3s-1.34,3-3,3Z"/><path class="cls-6" d="M871.51,1068.93h-61.54c-1.66,0-3-1.34-3-3s1.34-3,3-3h61.54c1.66,0,3,1.34,3,3s-1.34,3-3,3Z"/></g><g><circle class="cls-5" cx="968.32" cy="1047.39" r="42.58" transform="translate(-457.01 991.48) rotate(-45)"/><path class="cls-2" d="M963.71,1061.58s-.07,0-.1,0c-1.97-.07-3.81-.89-5.16-2.33l-11.7-11.92c-1.16-1.18-1.14-3.08,.04-4.24,1.18-1.16,3.08-1.14,4.24,.04l11.74,11.96c.27,.29,.6,.45,.95,.48,.35-.03,.67-.19,.92-.44l21-21.05c1.17-1.17,3.07-1.18,4.24,0,1.17,1.17,1.18,3.07,0,4.24l-20.96,21c-1.32,1.38-3.15,2.19-5.12,2.25-.03,0-.06,0-.09,0Z"/></g><g><polygon class="cls-7" points="877.48 1107.61 692.43 1107.61 692.43 1221.07 816.68 1221.07 837.21 1241.6 837.21 1221.07 877.48 1221.07 877.48 1107.61"/><g><path class="cls-2" d="M817.63,1148.78h-65.35c-1.66,0-3-1.34-3-3s1.34-3,3-3h65.35c1.66,0,3,1.34,3,3s-1.34,3-3,3Z"/><path class="cls-2" d="M842.02,1167.46h-114.13c-1.66,0-3-1.34-3-3s1.34-3,3-3h114.13c1.66,0,3,1.34,3,3s-1.34,3-3,3Z"/><path class="cls-2" d="M842.02,1186.15h-114.13c-1.66,0-3-1.34-3-3s1.34-3,3-3h114.13c1.66,0,3,1.34,3,3s-1.34,3-3,3Z"/></g></g></g><g><path class="cls-2" d="M1482.46,1331.94c-1.66,0-3-1.34-3-3v-5.11c0-12.24-9.96-22.2-22.2-22.2s-22.2,9.96-22.2,22.2v5.11c0,1.66-1.34,3-3,3s-3-1.34-3-3v-5.11c0-15.55,12.65-28.2,28.2-28.2s28.2,12.65,28.2,28.2v5.11c0,1.66-1.34,3-3,3Z"/><path class="cls-2" d="M1457.25,1286.57c-11.43,0-20.73-9.3-20.73-20.73s9.3-20.73,20.73-20.73,20.73,9.3,20.73,20.73-9.3,20.73-20.73,20.73Zm0-35.47c-8.12,0-14.73,6.61-14.73,14.73s6.61,14.73,14.73,14.73,14.73-6.61,14.73-14.73-6.61-14.73-14.73-14.73Z"/></g></g></g></svg>