<?xml version="1.0" encoding="UTF-8"?><svg id="Layer_2" xmlns="http://www.w3.org/2000/svg" viewBox="0 0 48 48"><defs><style>.cls-1,.cls-2{fill:none;}.cls-3{fill:#b3b3b3;}.cls-2{stroke:#b3b3b3;stroke-miterlimit:10;stroke-width:.84px;}</style></defs><g id="Layer_1-2"><g><rect class="cls-1" width="48" height="48"/><g><path class="cls-3" d="M45.92,37.48c-.13-3.14-2.64-5.87-5.77-6.08-2.44-.17-4.9-.03-7.35-.04-.18,0-.42-.09-.52-.22-1.39-1.85-3.24-2.75-5.54-2.76-1.83,0-3.66,0-5.49,0-2.3,0-4.16,.91-5.53,2.77-.09,.12-.29,.22-.43,.22-2.31,0-4.63-.1-6.94-.03-3.19,.1-5.8,2.49-6.19,5.66-.15,1.2-.09,2.43-.09,3.65,0,3.06,2.21,5.28,5.26,5.29,2.22,0,4.45,0,6.67,0h.47v-1.48H7.88v-7.99h-1.45v7.89c-1.3-.12-2.63-1.35-2.82-2.78-.15-1.14-.1-2.31-.11-3.46,0-3.11,2.21-5.33,5.31-5.34,1.8,0,3.6,0,5.39,0h.57c-.11,.67-.28,1.28-.29,1.9-.03,2.59-.04,5.18,0,7.77,.02,1.59,1.18,3.07,2.73,3.36,1,.19,2.05,.13,3.07,.18v-11.72h-1.43v10.18c-2.07,.27-3-1.07-2.95-2.62,.08-2.22,.02-4.45,.02-6.67,0-3.08,2.22-5.3,5.3-5.31,1.83,0,3.66,0,5.49,0,3.08,0,5.3,2.23,5.3,5.31,0,2.3,0,4.6,0,6.9,0,1.7-1.21,2.68-2.94,2.35v-10.15h-1.41v11.67c.79,0,1.56,.02,2.32,0,1.86-.05,3.49-1.58,3.48-3.45-.03-3.22,.29-6.45-.25-9.67,.03,0,.11-.03,.18-.03,2.07,0,4.15-.06,6.22,.02,2.31,.08,4.23,1.71,4.71,3.97,.16,.75,.14,1.54,.14,2.32,0,.84,.03,1.68-.1,2.5-.22,1.42-1.54,2.67-2.84,2.77v-7.9h-1.45v8.04h-6.55v1.42c.1,0,.17,.02,.25,.02,2.41,0,4.82,.02,7.22,0,2.39-.03,4.55-1.87,4.83-4.24,.17-1.38,.14-2.8,.08-4.2ZM6.42,26.13v-1.36c-.63-.27-.71-.4-.71-1.1,0-1.26,0-2.53,0-3.79,0-.78,.23-1.02,1-1.02,1.11,0,2.23,0,3.34-.01,.14,0,.37-.12,.4-.23,.39-1.55,1.01-2.99,1.87-4.35-.12-.13-.22-.24-.33-.35-.8-.8-1.6-1.59-2.39-2.39-.4-.4-.41-.77-.03-1.16,1-1.01,2-2.01,3.01-3.01,.36-.35,.76-.35,1.13,0,.48,.46,.96,.94,1.43,1.42,.44,.44,.86,.9,1.29,1.35,1.38-.87,2.78-1.5,4.29-1.85,.31-.07,.37-.21,.37-.5-.01-1.13,0-2.26,0-3.38,0-.63,.26-.9,.88-.9,1.36,0,2.71,0,4.07,0,.63,0,.89,.27,.9,.89,0,.9,0,1.8,0,2.7q0,1.07,1,1.37c.12,.03,.24,.07,.35,.11,1.1,.48,2.2,.95,3.37,1.47,.8-.8,1.66-1.68,2.53-2.55,.51-.51,.86-.51,1.36-.01,.92,.91,1.83,1.83,2.75,2.75,.55,.55,.55,.87,0,1.42-.86,.86-1.73,1.72-2.6,2.58,.07,.12,.11,.22,.16,.31,.76,1.23,1.32,2.54,1.65,3.94,.08,.33,.23,.39,.53,.39,1.11-.02,2.23,0,3.34,0,.66,0,.92,.26,.92,.91,0,1.31,0,2.62,0,3.93,0,.66-.1,.81-.71,1.06v1.39c1.22,0,2.16-.94,2.17-2.16,.01-1.42,0-2.83,0-4.25,0-1.42-.92-2.33-2.36-2.34-.78,0-1.55,0-2.33,0-.13,0-.34-.06-.37-.15-.39-.92-.75-1.85-1.13-2.83,.61-.6,1.26-1.23,1.89-1.87,.97-.99,.96-2.26,0-3.25-.96-.98-1.93-1.95-2.91-2.91-1.01-1-2.32-.99-3.33,0-.56,.56-1.11,1.13-1.69,1.67-.1,.09-.33,.13-.45,.08-.79-.31-1.57-.67-2.36-.97-.26-.1-.31-.22-.31-.46,.01-.81,.01-1.62,0-2.42-.01-1.29-.93-2.23-2.21-2.25-1.45-.02-2.9-.02-4.34,0-1.29,.02-2.21,.96-2.22,2.24,0,.82,0,1.65,0,2.47,0,.24-.07,.33-.3,.42-.78,.3-1.55,.63-2.31,.97-.23,.1-.37,.1-.55-.09-.51-.54-1.05-1.06-1.58-1.59-1.09-1.09-2.38-1.09-3.46-.01-.93,.92-1.86,1.85-2.78,2.78-1.07,1.08-1.07,2.33,0,3.41,.61,.61,1.23,1.22,1.79,1.79-.38,.96-.73,1.87-1.1,2.76-.04,.1-.25,.19-.39,.2-.82,.02-1.65,0-2.47,.01-1.21,.02-2.19,.9-2.22,2.05-.04,1.55-.04,3.11,0,4.66,.03,1.16,1.07,2.11,2.16,2.01Zm26.38-4.36h1.47c-.19-3.9-1.82-6.94-5.19-8.84-3.62-2.05-7.3-1.9-10.77,.38-2.99,1.96-4.44,4.86-4.57,8.46h1.44c.12-4.96,3.97-8.58,8.51-8.74,2.11-.07,4.03,.54,5.7,1.86,2.21,1.75,3.3,4.08,3.4,6.89Zm-13.19,1.47c0,2.42,1.95,4.39,4.37,4.4,2.43,0,4.4-1.95,4.4-4.37,0-2.41-1.96-4.4-4.37-4.41-2.41-.01-4.4,1.97-4.4,4.38Zm7.31,.02c0,1.62-1.32,2.92-2.94,2.91-1.62,0-2.92-1.32-2.91-2.95,.01-1.59,1.33-2.9,2.92-2.9,1.61,0,2.93,1.33,2.93,2.94Zm-15.33-1.47c-2.4-.02-4.4,1.96-4.42,4.37-.01,2.42,1.94,4.4,4.36,4.41,2.43,.01,4.4-1.94,4.42-4.35,.01-2.41-1.95-4.4-4.36-4.42Zm-.04,7.31c-1.62,0-2.93-1.32-2.92-2.94,0-1.59,1.32-2.9,2.91-2.91,1.61,0,2.94,1.32,2.94,2.93,0,1.62-1.31,2.92-2.93,2.92Zm24.86,1.46c2.43,0,4.4-1.94,4.41-4.36,.01-2.41-1.95-4.4-4.37-4.41-2.4-.02-4.4,1.96-4.41,4.37-.01,2.42,1.95,4.39,4.37,4.4Zm.05-7.31c1.59,.01,2.9,1.33,2.9,2.92,0,1.62-1.3,2.93-2.93,2.93s-2.93-1.31-2.93-2.93c0-1.61,1.34-2.93,2.95-2.92Zm-15.35,22.65h5.79v-1.41h-5.79v1.41Z"/><path class="cls-2" d="M45.92,37.48c-.13-3.14-2.64-5.87-5.77-6.08-2.44-.17-4.9-.03-7.35-.04-.18,0-.42-.09-.52-.22-1.39-1.85-3.24-2.75-5.54-2.76-1.83,0-3.66,0-5.49,0-2.3,0-4.16,.91-5.53,2.77-.09,.12-.29,.22-.43,.22-2.31,0-4.63-.1-6.94-.03-3.19,.1-5.8,2.49-6.19,5.66-.15,1.2-.09,2.43-.09,3.65,0,3.06,2.21,5.28,5.26,5.29,2.22,0,4.45,0,6.67,0h.47v-1.48H7.88v-7.99h-1.45v7.89c-1.3-.12-2.63-1.35-2.82-2.78-.15-1.14-.1-2.31-.11-3.46,0-3.11,2.21-5.33,5.31-5.34,1.8,0,3.6,0,5.39,0h.57c-.11,.67-.28,1.28-.29,1.9-.03,2.59-.04,5.18,0,7.77,.02,1.59,1.18,3.07,2.73,3.36,1,.19,2.05,.13,3.07,.18v-11.72h-1.43v10.18c-2.07,.27-3-1.07-2.95-2.62,.08-2.22,.02-4.45,.02-6.67,0-3.08,2.22-5.3,5.3-5.31,1.83,0,3.66,0,5.49,0,3.08,0,5.3,2.23,5.3,5.31,0,2.3,0,4.6,0,6.9,0,1.7-1.21,2.68-2.94,2.35v-10.15h-1.41v11.67c.79,0,1.56,.02,2.32,0,1.86-.05,3.49-1.58,3.48-3.45-.03-3.22,.29-6.45-.25-9.67,.03,0,.11-.03,.18-.03,2.07,0,4.15-.06,6.22,.02,2.31,.08,4.23,1.71,4.71,3.97,.16,.75,.14,1.54,.14,2.32,0,.84,.03,1.68-.1,2.5-.22,1.42-1.54,2.67-2.84,2.77v-7.9h-1.45v8.04h-6.55v1.42c.1,0,.17,.02,.25,.02,2.41,0,4.82,.02,7.22,0,2.39-.03,4.55-1.87,4.83-4.24,.17-1.38,.14-2.8,.08-4.2ZM6.42,26.13v-1.36c-.63-.27-.71-.4-.71-1.1,0-1.26,0-2.53,0-3.79,0-.78,.23-1.02,1-1.02,1.11,0,2.23,0,3.34-.01,.14,0,.37-.12,.4-.23,.39-1.55,1.01-2.99,1.87-4.35-.12-.13-.22-.24-.33-.35-.8-.8-1.6-1.59-2.39-2.39-.4-.4-.41-.77-.03-1.16,1-1.01,2-2.01,3.01-3.01,.36-.35,.76-.35,1.13,0,.48,.46,.96,.94,1.43,1.42,.44,.44,.86,.9,1.29,1.35,1.38-.87,2.78-1.5,4.29-1.85,.31-.07,.37-.21,.37-.5-.01-1.13,0-2.26,0-3.38,0-.63,.26-.9,.88-.9,1.36,0,2.71,0,4.07,0,.63,0,.89,.27,.9,.89,0,.9,0,1.8,0,2.7q0,1.07,1,1.37c.12,.03,.24,.07,.35,.11,1.1,.48,2.2,.95,3.37,1.47,.8-.8,1.66-1.68,2.53-2.55,.51-.51,.86-.51,1.36-.01,.92,.91,1.83,1.83,2.75,2.75,.55,.55,.55,.87,0,1.42-.86,.86-1.73,1.72-2.6,2.58,.07,.12,.11,.22,.16,.31,.76,1.23,1.32,2.54,1.65,3.94,.08,.33,.23,.39,.53,.39,1.11-.02,2.23,0,3.34,0,.66,0,.92,.26,.92,.91,0,1.31,0,2.62,0,3.93,0,.66-.1,.81-.71,1.06v1.39c1.22,0,2.16-.94,2.17-2.16,.01-1.42,0-2.83,0-4.25,0-1.42-.92-2.33-2.36-2.34-.78,0-1.55,0-2.33,0-.13,0-.34-.06-.37-.15-.39-.92-.75-1.85-1.13-2.83,.61-.6,1.26-1.23,1.89-1.87,.97-.99,.96-2.26,0-3.25-.96-.98-1.93-1.95-2.91-2.91-1.01-1-2.32-.99-3.33,0-.56,.56-1.11,1.13-1.69,1.67-.1,.09-.33,.13-.45,.08-.79-.31-1.57-.67-2.36-.97-.26-.1-.31-.22-.31-.46,.01-.81,.01-1.62,0-2.42-.01-1.29-.93-2.23-2.21-2.25-1.45-.02-2.9-.02-4.34,0-1.29,.02-2.21,.96-2.22,2.24,0,.82,0,1.65,0,2.47,0,.24-.07,.33-.3,.42-.78,.3-1.55,.63-2.31,.97-.23,.1-.37,.1-.55-.09-.51-.54-1.05-1.06-1.58-1.59-1.09-1.09-2.38-1.09-3.46-.01-.93,.92-1.86,1.85-2.78,2.78-1.07,1.08-1.07,2.33,0,3.41,.61,.61,1.23,1.22,1.79,1.79-.38,.96-.73,1.87-1.1,2.76-.04,.1-.25,.19-.39,.2-.82,.02-1.65,0-2.47,.01-1.21,.02-2.19,.9-2.22,2.05-.04,1.55-.04,3.11,0,4.66,.03,1.16,1.07,2.11,2.16,2.01Zm26.38-4.36h1.47c-.19-3.9-1.82-6.94-5.19-8.84-3.62-2.05-7.3-1.9-10.77,.38-2.99,1.96-4.44,4.86-4.57,8.46h1.44c.12-4.96,3.97-8.58,8.51-8.74,2.11-.07,4.03,.54,5.7,1.86,2.21,1.75,3.3,4.08,3.4,6.89Zm-13.19,1.47c0,2.42,1.95,4.39,4.37,4.4,2.43,0,4.4-1.95,4.4-4.37,0-2.41-1.96-4.4-4.37-4.41-2.41-.01-4.4,1.97-4.4,4.38Zm7.31,.02c0,1.62-1.32,2.92-2.94,2.91-1.62,0-2.92-1.32-2.91-2.95,.01-1.59,1.33-2.9,2.92-2.9,1.61,0,2.93,1.33,2.93,2.94Zm-15.33-1.47c-2.4-.02-4.4,1.96-4.42,4.37-.01,2.42,1.94,4.4,4.36,4.41,2.43,.01,4.4-1.94,4.42-4.35,.01-2.41-1.95-4.4-4.36-4.42Zm-.04,7.31c-1.62,0-2.93-1.32-2.92-2.94,0-1.59,1.32-2.9,2.91-2.91,1.61,0,2.94,1.32,2.94,2.93,0,1.62-1.31,2.92-2.93,2.92Zm24.86,1.46c2.43,0,4.4-1.94,4.41-4.36,.01-2.41-1.95-4.4-4.37-4.41-2.4-.02-4.4,1.96-4.41,4.37-.01,2.42,1.95,4.39,4.37,4.4Zm.05-7.31c1.59,.01,2.9,1.33,2.9,2.92,0,1.62-1.3,2.93-2.93,2.93s-2.93-1.31-2.93-2.93c0-1.61,1.34-2.93,2.95-2.92Zm-15.35,22.65h5.79v-1.41h-5.79v1.41Z"/></g></g></g></svg>