<?xml version="1.0" encoding="UTF-8"?><svg id="Layer_2" xmlns="http://www.w3.org/2000/svg" viewBox="0 0 32 32"><defs><style>.cls-1{stroke:#0091ff;stroke-miterlimit:10;stroke-width:.39px;}.cls-1,.cls-2{fill:none;}.cls-3{fill:#0091ff;}</style></defs><g id="Layer_1-2"><g><rect class="cls-2" width="32" height="32"/><g><path class="cls-3" d="M30.06,25.02v-.37c0-5.68,0-11.37,0-17.05,0-1.27-.75-2.26-1.93-2.54-.24-.06-.48-.07-.73-.08-.8,0-1.61,0-2.41-.01-.14,0-.32-.08-.42-.19-1.84-1.99-4.09-3.22-6.76-3.66-.35-.06-.7-.1-1.04-.14h-1.53c-.49,.08-.99,.13-1.48,.23-2.45,.49-4.53,1.65-6.22,3.48-.19,.21-.38,.3-.68,.3-.92,0-1.85-.04-2.76,.04-1.22,.11-2.13,1.17-2.16,2.4-.01,.39,0,.78,0,1.17V25.01c-.53,.04-.84,.34-1,.8v2.17c.12,.35,.19,.72,.35,1.05,.64,1.29,1.7,2,3.14,2,7.71,.02,15.42,.01,23.14,0,1.69,0,3.11-1.2,3.43-2.86,.01-.06,.04-.13,.06-.19v-2.17c-.17-.44-.45-.75-1-.79ZM16.01,1.97c5.82,0,10.55,4.74,10.53,10.55-.02,5.82-4.74,10.51-10.54,10.5-5.84-.01-10.55-4.73-10.53-10.54,.02-5.8,4.74-10.51,10.55-10.5ZM2.94,24.69c0-5.69,0-11.37,0-17.06,0-1.04,.62-1.66,1.67-1.66,.6,0,1.2,0,1.86,0-1.93,2.97-2.5,6.12-1.62,9.49,.64,2.48,2.01,4.53,4.04,6.11,4.18,3.23,9.92,3.28,14.04,.15,2.45-1.86,3.96-4.31,4.46-7.34,.5-3.01-.15-5.8-1.83-8.36,.8,0,1.57-.05,2.33,.02,.64,.06,1.12,.69,1.17,1.37,0,.1,0,.2,0,.29,0,5.66,0,11.31,0,16.97v.34H2.94v-.31Zm16.44,2.84c-2.21-.03-4.43-.04-6.64,0-.97,.02-1.39-.61-1.23-1.5h8.97c.24,.98-.39,1.5-1.1,1.49Zm10.56,.67c-.23,1.06-1.2,1.78-2.29,1.82-.07,0-.14,0-.21,0-7.63,0-15.25,0-22.88,0-1.27,0-2.33-.77-2.54-1.93-.12-.66-.08-1.36-.11-2.05H10.47c0,.15,0,.3,0,.46,.02,1.15,.86,2.01,2.01,2.02,2.34,.01,4.69,.01,7.03,0,1.15,0,1.99-.87,2.01-2.01,0-.15,0-.29,0-.46h8.58c-.05,.73-.02,1.46-.17,2.16Zm-15.4-10.2c.49,0,.98,0,1.47,0,.49,0,.98,0,1.47,0,.59,0,1-.39,1.03-.98,.02-.34,.02-.68,0-1.03-.03-.6-.44-.99-1.05-.99-.98,0-1.96,0-2.94,0-.59,0-1,.39-1.03,.98-.02,.34-.02,.68,0,1.03,.03,.6,.44,.99,1.05,.99Zm-.03-1.99h2.98v.97h-2.98v-.97Zm2.95,2.99c-.97,0-1.94,0-2.91,0-.63,0-1.05,.41-1.06,1.04,0,.3,0,.61,0,.91,.02,.64,.41,1.04,1.05,1.05,.48,0,.96,0,1.44,0,.48,0,.96,0,1.44,0,.02,0,.04,0,.06,0,.61-.02,1.01-.4,1.03-1.01,.01-.32,.01-.65,0-.97-.02-.62-.43-1.02-1.05-1.03Zm.03,1.98h-2.98v-.97h2.98v.97Zm-4.76-11.5c.23,0,.47,0,.75,0v.35c0,1.02,0,2.04,0,3.05,0,.7,.41,1.11,1.12,1.11,.92,0,1.84,0,2.76,0,.74,0,1.14-.4,1.14-1.15,0-1.01,0-2.02,0-3.02v-.35c.28,0,.54,0,.79,0,.71-.01,1.35-.44,1.59-1.1,.26-.69,.11-1.31-.43-1.82-1.06-1.02-2.12-2.04-3.18-3.05-.77-.73-1.81-.73-2.58,0-1.06,1.01-2.11,2.02-3.16,3.03-.55,.53-.7,1.2-.44,1.85,.27,.67,.89,1.08,1.63,1.09Zm-.46-2.25c1.04-.98,2.07-1.98,3.1-2.96,.42-.4,.85-.4,1.27,0,1.03,.99,2.06,1.98,3.1,2.97,.23,.22,.35,.47,.22,.79-.13,.31-.38,.46-.72,.46-.37,0-.74,0-1.12,0-.43,0-.61,.17-.61,.6,0,1.18,0,2.37,0,3.55v.35h-3.02v-.35c0-1.15,0-2.31,0-3.46,0-.53-.15-.68-.68-.68-.34,0-.69,0-1.03,0-.37,0-.64-.17-.75-.46-.12-.32,0-.56,.23-.79Zm-3.3,19.8c-.24,0-.49,0-.74,0-.24,0-.49,0-.73,0-.31,0-.52,.2-.53,.47-.01,.27,.19,.51,.49,.52,.51,.02,1.02,.02,1.53,0,.3,0,.5-.25,.48-.52-.01-.27-.21-.46-.5-.47Zm-5.54,0c-.27,0-.48,.23-.48,.49,0,.27,.24,.51,.51,.5,.27,0,.5-.24,.49-.51,0-.28-.23-.49-.51-.48Zm2.02,0c-.27,0-.49,.22-.49,.48,0,.27,.22,.51,.49,.52,.27,0,.5-.22,.5-.5,0-.28-.21-.5-.5-.49Z"/><path class="cls-1" d="M30.06,25.02v-.37c0-5.68,0-11.37,0-17.05,0-1.27-.75-2.26-1.93-2.54-.24-.06-.48-.07-.73-.08-.8,0-1.61,0-2.41-.01-.14,0-.32-.08-.42-.19-1.84-1.99-4.09-3.22-6.76-3.66-.35-.06-.7-.1-1.04-.14h-1.53c-.49,.08-.99,.13-1.48,.23-2.45,.49-4.53,1.65-6.22,3.48-.19,.21-.38,.3-.68,.3-.92,0-1.85-.04-2.76,.04-1.22,.11-2.13,1.17-2.16,2.4-.01,.39,0,.78,0,1.17V25.01c-.53,.04-.84,.34-1,.8v2.17c.12,.35,.19,.72,.35,1.05,.64,1.29,1.7,2,3.14,2,7.71,.02,15.42,.01,23.14,0,1.69,0,3.11-1.2,3.43-2.86,.01-.06,.04-.13,.06-.19v-2.17c-.17-.44-.45-.75-1-.79ZM16.01,1.97c5.82,0,10.55,4.74,10.53,10.55-.02,5.82-4.74,10.51-10.54,10.5-5.84-.01-10.55-4.73-10.53-10.54,.02-5.8,4.74-10.51,10.55-10.5ZM2.94,24.69c0-5.69,0-11.37,0-17.06,0-1.04,.62-1.66,1.67-1.66,.6,0,1.2,0,1.86,0-1.93,2.97-2.5,6.12-1.62,9.49,.64,2.48,2.01,4.53,4.04,6.11,4.18,3.23,9.92,3.28,14.04,.15,2.45-1.86,3.96-4.31,4.46-7.34,.5-3.01-.15-5.8-1.83-8.36,.8,0,1.57-.05,2.33,.02,.64,.06,1.12,.69,1.17,1.37,0,.1,0,.2,0,.29,0,5.66,0,11.31,0,16.97v.34H2.94v-.31Zm16.44,2.84c-2.21-.03-4.43-.04-6.64,0-.97,.02-1.39-.61-1.23-1.5h8.97c.24,.98-.39,1.5-1.1,1.49Zm10.56,.67c-.23,1.06-1.2,1.78-2.29,1.82-.07,0-.14,0-.21,0-7.63,0-15.25,0-22.88,0-1.27,0-2.33-.77-2.54-1.93-.12-.66-.08-1.36-.11-2.05H10.47c0,.15,0,.3,0,.46,.02,1.15,.86,2.01,2.01,2.02,2.34,.01,4.69,.01,7.03,0,1.15,0,1.99-.87,2.01-2.01,0-.15,0-.29,0-.46h8.58c-.05,.73-.02,1.46-.17,2.16Zm-15.4-10.2c.49,0,.98,0,1.47,0,.49,0,.98,0,1.47,0,.59,0,1-.39,1.03-.98,.02-.34,.02-.68,0-1.03-.03-.6-.44-.99-1.05-.99-.98,0-1.96,0-2.94,0-.59,0-1,.39-1.03,.98-.02,.34-.02,.68,0,1.03,.03,.6,.44,.99,1.05,.99Zm-.03-1.99h2.98v.97h-2.98v-.97Zm2.95,2.99c-.97,0-1.94,0-2.91,0-.63,0-1.05,.41-1.06,1.04,0,.3,0,.61,0,.91,.02,.64,.41,1.04,1.05,1.05,.48,0,.96,0,1.44,0,.48,0,.96,0,1.44,0,.02,0,.04,0,.06,0,.61-.02,1.01-.4,1.03-1.01,.01-.32,.01-.65,0-.97-.02-.62-.43-1.02-1.05-1.03Zm.03,1.98h-2.98v-.97h2.98v.97Zm-4.76-11.5c.23,0,.47,0,.75,0v.35c0,1.02,0,2.04,0,3.05,0,.7,.41,1.11,1.12,1.11,.92,0,1.84,0,2.76,0,.74,0,1.14-.4,1.14-1.15,0-1.01,0-2.02,0-3.02v-.35c.28,0,.54,0,.79,0,.71-.01,1.35-.44,1.59-1.1,.26-.69,.11-1.31-.43-1.82-1.06-1.02-2.12-2.04-3.18-3.05-.77-.73-1.81-.73-2.58,0-1.06,1.01-2.11,2.02-3.16,3.03-.55,.53-.7,1.2-.44,1.85,.27,.67,.89,1.08,1.63,1.09Zm-.46-2.25c1.04-.98,2.07-1.98,3.1-2.96,.42-.4,.85-.4,1.27,0,1.03,.99,2.06,1.98,3.1,2.97,.23,.22,.35,.47,.22,.79-.13,.31-.38,.46-.72,.46-.37,0-.74,0-1.12,0-.43,0-.61,.17-.61,.6,0,1.18,0,2.37,0,3.55v.35h-3.02v-.35c0-1.15,0-2.31,0-3.46,0-.53-.15-.68-.68-.68-.34,0-.69,0-1.03,0-.37,0-.64-.17-.75-.46-.12-.32,0-.56,.23-.79Zm-3.3,19.8c-.24,0-.49,0-.74,0-.24,0-.49,0-.73,0-.31,0-.52,.2-.53,.47-.01,.27,.19,.51,.49,.52,.51,.02,1.02,.02,1.53,0,.3,0,.5-.25,.48-.52-.01-.27-.21-.46-.5-.47Zm-5.54,0c-.27,0-.48,.23-.48,.49,0,.27,.24,.51,.51,.5,.27,0,.5-.24,.49-.51,0-.28-.23-.49-.51-.48Zm2.02,0c-.27,0-.49,.22-.49,.48,0,.27,.22,.51,.49,.52,.27,0,.5-.22,.5-.5,0-.28-.21-.5-.5-.49Z"/></g></g></g></svg>