<svg xmlns="http://www.w3.org/2000/svg" viewBox="0 0 40 40"><defs><style>.cls-1{fill:none;}.cls-2{fill:#fff;stroke:#fff;stroke-miterlimit:10;stroke-width:0.1px;}</style></defs><g id="Layer_2" data-name="Layer 2"><g id="Layer_1-2" data-name="Layer 1"><rect class="cls-1" width="40" height="40"/><path class="cls-2" d="M.55,4.24A6.49,6.49,0,0,1,1,3.37a1.94,1.94,0,0,1,1.53-.79H37.2a2.07,2.07,0,0,1,2.21,1.72,2.32,2.32,0,0,1,0,.53V27.65A2.07,2.07,0,0,1,37.2,29.9H23.89c.16.52.28,1,.46,1.45.26.68.54,1.34.85,2a.68.68,0,0,0,.39.34,2.78,2.78,0,0,1,1.94,3.25.56.56,0,0,1-.52.48,1.53,1.53,0,0,1-.37,0H13.38c-.77,0-.93-.16-.93-.94a2.65,2.65,0,0,1,2.05-2.83.53.53,0,0,0,.23-.16,14.12,14.12,0,0,0,1.32-3.6h-13A2.19,2.19,0,0,1,.55,28.22ZM4.07,6.08V25.27H35.92V6.08Zm-2.3,19.2H2.83V5.78c0-.75.17-.92.91-.92H36.25c.75,0,.92.17.92.91V25.28h1.06V4.91c0-.84-.28-1.12-1.12-1.12H2.89c-.85,0-1.12.27-1.12,1.14V25.28Zm0,1.26V27.6c0,.79.28,1.08,1.07,1.08H37.47A.77.77,0,0,0,38.2,28c0-.48,0-1,0-1.47Zm20.81,3.38H17.41l-1.28,3.66h7.74Zm3.73,6.27a1.93,1.93,0,0,0,0-.26,1.43,1.43,0,0,0-1.52-1.11H15.22a2.36,2.36,0,0,0-.38,0,1.31,1.31,0,0,0-1.12,1.35Z"/><path class="cls-2" d="M20.61,27.61a.61.61,0,1,0-1.22,0,.61.61,0,0,0,1.22,0Z"/><path class="cls-2" d="M20,23.06H14.19a1.62,1.62,0,0,1-1.82-1.83q0-5.65,0-11.33a1.66,1.66,0,0,1,1.86-1.85H25.77a1.66,1.66,0,0,1,1.86,1.88c0,3.75,0,7.51,0,11.26a1.64,1.64,0,0,1-1.86,1.87Zm6.4-8.12c0-.14,0-.26,0-.39V9.92c0-.54-.11-.65-.65-.65H21l-.33,0v5.65Zm-7-5.67H14.23c-.54,0-.65.11-.65.64v4.68c0,.11,0,.22,0,.34h5.77ZM13.61,16.2c0,.1,0,.16,0,.22v4.87c0,.45.11.55.57.55,1.65,0,3.29,0,4.94,0l.28,0V16.2Zm7,5.65h5.15c.55,0,.64-.09.64-.64V16.57c0-.13,0-.25,0-.37H20.63Z"/><path class="cls-2" d="M20.61,27.61a.61.61,0,0,1-1.22,0,.61.61,0,1,1,1.22,0Z"/><path class="cls-2" d="M23.54,19.21c-.52,0-1,0-1.55,0s-.69.26-.68.6a.62.62,0,0,0,.68.61h3c.44,0,.68-.22.69-.59s-.24-.61-.69-.62S24,19.21,23.54,19.21Zm0-1.6H22c-.44,0-.72.25-.71.61a.63.63,0,0,0,.69.6h3c.46,0,.7-.25.69-.63s-.26-.57-.7-.58Z"/><path class="cls-2" d="M25.33,11a3.19,3.19,0,0,1-.32.52c-.71.73-1.42,1.44-2.14,2.15a.62.62,0,0,1-.91.06.6.6,0,0,1,.05-.91c.71-.73,1.44-1.45,2.16-2.17a.56.56,0,0,1,.72-.15A2.21,2.21,0,0,1,25.33,11Z"/><path class="cls-2" d="M22.39,10.39A.58.58,0,0,1,23,11a.6.6,0,0,1-.61.6.61.61,0,0,1-.59-.62A.58.58,0,0,1,22.39,10.39Z"/><path class="cls-2" d="M25.24,13.24a.59.59,0,0,1-.58.61.62.62,0,0,1-.63-.59.64.64,0,0,1,.6-.62A.6.6,0,0,1,25.24,13.24Z"/><path class="cls-2" d="M17.1,12.72v.86c0,.47-.24.74-.63.74s-.58-.27-.58-.73c0-.24,0-.48,0-.72a1.16,1.16,0,0,0,0-.15H15c-.46,0-.71-.22-.72-.59s.25-.61.74-.62h.86c0-.32,0-.6,0-.89,0-.45.23-.71.6-.71s.6.28.61.72c0,.28,0,.56,0,.88h.6c.69,0,1,.18,1,.6s-.29.61-1,.61Z"/><path class="cls-2" d="M17.26,19c.31.27.55.46.76.67a.59.59,0,0,1,0,.88.59.59,0,0,1-.88,0c-.11-.1-.22-.21-.32-.32s-.19-.24-.35-.44c-.26.29-.45.52-.66.73a.61.61,0,0,1-.91.06.62.62,0,0,1,.07-.93c.2-.21.41-.4.66-.64-.26-.24-.48-.45-.69-.67a.6.6,0,0,1-.05-.88.61.61,0,0,1,.91,0c.11.1.22.21.32.32l.3.36c.25-.25.46-.46.68-.66a.61.61,0,1,1,.87.84C17.79,18.56,17.57,18.74,17.26,19Z"/><path class="cls-2" d="M23.54,19.21c.49,0,1,0,1.48,0s.7.24.69.62-.25.59-.69.59H22a.62.62,0,0,1-.68-.61c0-.34.26-.59.68-.6S23,19.21,23.54,19.21Z"/><path class="cls-2" d="M23.53,17.61H25c.44,0,.69.21.7.58s-.23.62-.69.63H22a.63.63,0,0,1-.69-.6c0-.36.27-.61.71-.61Z"/></g></g></svg>