<svg xmlns="http://www.w3.org/2000/svg" viewBox="0 0 39.86 39.86"><defs><style>.cls-1{fill:none;}.cls-2{fill:#fff;}</style></defs><g id="Layer_2" data-name="Layer 2"><g id="Layer_1-2" data-name="Layer 1"><rect class="cls-1" width="39.86" height="39.86"/><path class="cls-2" d="M39.09,26.83a8,8,0,0,1-.32,1,3.66,3.66,0,0,1-3.51,2.24H24.08v2.63H25a3.78,3.78,0,0,1,3.89,4.09.75.75,0,0,1-.78.78,2.25,2.25,0,0,1-.26,0H12c-.79,0-1-.23-1-1a3.75,3.75,0,0,1,3.83-3.84h1V30.05H4.73a3.75,3.75,0,0,1-4-4V6.28a3.76,3.76,0,0,1,4-4h11.9a.78.78,0,0,1,.67.74.76.76,0,0,1-.66.74,2.29,2.29,0,0,1-.37,0H9V23.28H37.59V22.9c0-5.55,0-11.1,0-16.65A2.26,2.26,0,0,0,35.14,3.8H23.61a2.77,2.77,0,0,1-.41,0,.72.72,0,0,1-.65-.74.74.74,0,0,1,.66-.74H35.15A3.74,3.74,0,0,1,39,5.44s0,.06.05.09Zm-36.82-2c0,.58,0,1.13,0,1.68a2.24,2.24,0,0,0,2.38,2.05H35.42a2.16,2.16,0,0,0,2.1-1.75,16.21,16.21,0,0,0,.1-2Zm0-14.55v13H7.48v-13ZM27.34,36a2.18,2.18,0,0,0-2.11-1.86H23.4a.76.76,0,0,1-.85-.86V30.43c0-.12,0-.24,0-.35H17.31V33.3a.78.78,0,0,1-.87.88H14.6A2.15,2.15,0,0,0,12.52,36ZM7.48,3.8h-3A2.23,2.23,0,0,0,2.27,6.06c0,.82,0,1.63,0,2.44a2,2,0,0,0,0,.24H7.48Z"/><path class="cls-2" d="M32.47,12.94c-.4,1.43-.77,2.75-1.16,4.06a.89.89,0,0,1-1.73,0l-.06-.18-1-3.37a.81.81,0,0,0-.2-.36c-.2,1.13-.41,2.27-.61,3.4,0,.15,0,.3-.08.45a.75.75,0,1,1-1.48-.27c.2-1.13.41-2.26.62-3.39s.36-2,.55-3a.9.9,0,0,1,1.79-.08c.41,1.35.8,2.7,1.2,4.06,0,.09.07.18.13.34.42-1.5.83-2.94,1.24-4.37a.94.94,0,0,1,.92-.79.89.89,0,0,1,.87.74q.63,3.27,1.25,6.54a.75.75,0,1,1-1.47.27c-.23-1.18-.45-2.37-.68-3.56C32.56,13.3,32.53,13.18,32.47,12.94Z"/><path class="cls-2" d="M22.36,14.33l1.74,1.74c.12.12.24.23.34.35a.74.74,0,0,1,0,1,.72.72,0,0,1-1,0c-.41-.38-.8-.78-1.19-1.18l-.82-.87-.1,0c0,.48,0,1,0,1.44a.74.74,0,0,1-.69.78.75.75,0,0,1-.8-.83V10.32a.77.77,0,0,1,.86-.89h1.5a2.54,2.54,0,0,1,2.5,2.24,2.42,2.42,0,0,1-2,2.57ZM21.29,12.8c.33,0,.63,0,.92,0a1,1,0,0,0,.93-.86,1,1,0,0,0-.88-1,7.83,7.83,0,0,0-1,0Z"/><path class="cls-2" d="M11.55,13.54A4,4,0,0,1,17.45,10a1.84,1.84,0,0,1,.39.28.72.72,0,0,1,.08.93.73.73,0,0,1-.85.29l-.24-.12a2.25,2.25,0,0,0-2.63,0,2.55,2.55,0,0,0-1.14,2.53,2.54,2.54,0,0,0,2.32,2.31,1.78,1.78,0,0,0,1.53-.63.75.75,0,1,1,1.13,1,3.2,3.2,0,0,1-3,1.11A4.06,4.06,0,0,1,11.55,13.54Z"/><path class="cls-2" d="M20.67,3.07a.76.76,0,0,1-.78.73A.74.74,0,0,1,19.18,3,.73.73,0,0,1,20,2.31.76.76,0,0,1,20.67,3.07Z"/><path class="cls-2" d="M5.63,13.25a.76.76,0,0,1-.76.75.75.75,0,0,1-.73-.74.74.74,0,0,1,.76-.75A.75.75,0,0,1,5.63,13.25Z"/><path class="cls-2" d="M4.87,17.38a.76.76,0,0,1-.73-.78.75.75,0,0,1,.75-.72.75.75,0,1,1,0,1.5Z"/><path class="cls-2" d="M5.63,20a.75.75,0,1,1-.71-.76A.75.75,0,0,1,5.63,20Z"/></g></g></svg>