<svg xmlns="http://www.w3.org/2000/svg" viewBox="0 0 39.86 39.86"><defs><style>.cls-1{fill:none;}.cls-2{fill:#fff;}</style></defs><g id="Layer_2" data-name="Layer 2"><g id="Layer_1-2" data-name="Layer 1"><rect class="cls-1" width="39.86" height="39.86"/><path class="cls-2" d="M16.55,39.11h-.07a.54.54,0,0,0-.12-.09c-1.73-.87-3.46-1.74-5.21-2.6a.67.67,0,0,0-.5,0L6.2,38.66l-.81.45H5.32c0-2.9,0-5.79,0-8.69A1.06,1.06,0,0,0,5,29.65,7.83,7.83,0,0,1,7.4,17.48c.75-.36,1.58-.58,2.41-.88v-.34q0-3.89,0-7.75a.77.77,0,0,1,.26-.62l6.83-6.83a3.56,3.56,0,0,0,.26-.31H36.78c0,.15,0,.3,0,.45V34.6H16.55ZM18.78,3V9.75H12.07v7l.35.08A7.59,7.59,0,0,1,16.54,19a7.82,7.82,0,0,1,.22,10.75c-.08.1-.2.21-.2.31,0,.76,0,1.51,0,2.27H34.49V3ZM10.94,18.88a5.61,5.61,0,1,0,5.61,5.62A5.61,5.61,0,0,0,10.94,18.88Zm3.34,12.71a7.65,7.65,0,0,1-3.34.75,7.82,7.82,0,0,1-3.35-.74v3.82l.1,0,1.94-1c.43-.21.85-.59,1.27-.59s.88.37,1.32.58l2.06,1ZM16.53,4.73,13.79,7.47h2.74Z"/><path class="cls-2" d="M11,21.12a3.37,3.37,0,1,0,0,6.74,3.37,3.37,0,0,0,0-6.74Z"/><path class="cls-2" d="M30,10.85H27.81c0-.09,0-.17-.07-.25a1.12,1.12,0,0,0-2.2.3A1.17,1.17,0,0,0,26.59,12a5.86,5.86,0,0,1,1.61.41,3.12,3.12,0,0,1,1.81,3,3.38,3.38,0,0,1-1.89,3.1.52.52,0,0,0-.34.56c0,.67,0,1.35,0,2H25.54c0-.47,0-.95,0-1.43a1.28,1.28,0,0,0-.7-1.42,3.24,3.24,0,0,1-1.55-2.86h2.22c0,.12.06.26.1.38a1.16,1.16,0,0,0,1.18.85,1.33,1.33,0,0,0,1-1.29,1.13,1.13,0,0,0-1.05-1.08A3.84,3.84,0,0,1,25,13.78a3.24,3.24,0,0,1-1.7-3.07A3.16,3.16,0,0,1,25.2,7.84a.5.5,0,0,0,.34-.56c0-.66,0-1.32,0-2h2.24c0,.7,0,1.4,0,2.09a.41.41,0,0,0,.27.45A3.37,3.37,0,0,1,30,10.85Z"/><path class="cls-2" d="M32.26,23.39v2.2H21.06v-2.2Z"/><path class="cls-2" d="M32.26,27.89v2.19H21.06V27.89Z"/><path class="cls-2" d="M11,21.12a3.37,3.37,0,1,1-3.38,3.34A3.4,3.4,0,0,1,11,21.12Z"/></g></g></svg>