<svg xmlns="http://www.w3.org/2000/svg" viewBox="0 0 39.86 39.86"><defs><style>.cls-1{fill:none;}.cls-2{fill:#fff;stroke:#fff;stroke-miterlimit:10;stroke-width:0.32px;}</style></defs><g id="Layer_2" data-name="Layer 2"><g id="Layer_1-2" data-name="Layer 1"><rect class="cls-1" width="39.86" height="39.86"/><path class="cls-2" d="M4.66,15.47V3A1.94,1.94,0,0,1,6.79.79H21.63a2,2,0,0,1,2.13,2.13v1.9a7.11,7.11,0,0,1,1.64-.15,2.49,2.49,0,0,1,2.18,2.57V17.69A2.6,2.6,0,0,1,31,18.6a2.56,2.56,0,0,1,3.81.64A2.6,2.6,0,0,1,37,18.71a2.41,2.41,0,0,1,2,2.18,20.33,20.33,0,0,1-.08,3.66A12,12,0,0,1,38.13,27c-.72,2-1.45,4.07-2.17,6.11a1.65,1.65,0,0,0-.1.58c0,1.5,0,3,0,4.51,0,.6-.21.82-.8.82H22.67c-.61,0-.82-.21-.82-.84,0-1.11,0-2.21,0-3.31A6.73,6.73,0,0,0,21.35,32c-.25-.58-.23-.55-.85-.6a1.12,1.12,0,0,0-1.18.62c-.55.86-1.17,1.67-1.74,2.52a1.1,1.1,0,0,0-.18.58c0,1.05,0,2.1,0,3.15,0,.57-.23.79-.8.79H2.9c-.57,0-.81-.22-.79-.8a74.42,74.42,0,0,0-.61-10C1.28,26,1,23.7.86,21.43a23.57,23.57,0,0,1,0-3,3.17,3.17,0,0,1,3-2.93Zm17.82.33V3c0-.74-.18-.92-.91-.92H6.84c-.73,0-.91.18-.91.92V15.47c.92,0,1.78,0,2.64,0a3.18,3.18,0,0,1,3.08,2.93,3.11,3.11,0,0,1-2.58,3.36,21.37,21.37,0,0,1-2.66.08c-.15,0-.31,0-.46,0v4.47H17.36v1.28H5.93v1.62c0,.75.18.92.94.92H20.66c-.06-.17-.1-.29-.14-.42-.51-1.41-1-2.81-1.5-4.23a5.59,5.59,0,0,1-.34-1.59c0-2,0-4,0-5.94a2.52,2.52,0,0,1,2-2.42A2.66,2.66,0,0,1,22.48,15.8Zm3.82,7.3V7.53c0-.13,0-.26,0-.39a1.27,1.27,0,0,0-2.5-.26,2.59,2.59,0,0,0,0,.56V23.09H22.48c0-1.66,0-3.29,0-4.92a1.28,1.28,0,1,0-2.54,0c0,1.79,0,3.59,0,5.38A5,5,0,0,0,20.2,25c.85,2.43,1.73,4.84,2.58,7.27a.49.49,0,0,0,.55.41c3.69,0,7.37,0,11.06,0,.28,0,.41-.06.51-.34.86-2.46,1.75-4.9,2.61-7.35a4.4,4.4,0,0,0,.24-1.12c0-.89,0-1.78,0-2.67a1.23,1.23,0,0,0-.52-1,1.27,1.27,0,0,0-2,1c0,.85,0,1.69,0,2.54H33.94v-.47c0-.9,0-1.8,0-2.71a1.27,1.27,0,0,0-2.54,0c0,.5,0,1,0,1.48V23.1H30.12v-.45c0-.91,0-1.83,0-2.75a1.27,1.27,0,0,0-2.51-.23,2.15,2.15,0,0,0,0,.51V23.1Zm-8.1,8.31H6.71a1.92,1.92,0,0,1-2-2c0-2.66,0-5.32,0-8,0-.63.21-.84.83-.84,1,0,2,0,3.06,0a1.91,1.91,0,0,0,0-3.81c-1.53,0-3.07,0-4.61,0a1.84,1.84,0,0,0-1.81,1.77,38.27,38.27,0,0,0,.1,3.86c.25,3,.55,5.94.84,8.92.08.88.17,1.76.26,2.62l.11,0H16.21a.43.43,0,0,0,.32-.16C17.08,33,17.61,32.26,18.2,31.41ZM3.4,35.25v2.52H16.09V35.25ZM25,34H23.15v3.78H25Zm1.32,0v3.78h1.86V34Zm3.19,0v3.78h1.86V34Zm3.18,0v3.78h1.86V34Z"/><path class="cls-2" d="M32.48,9.57l-1.41,1.32.05.09h7.26v1.28H31.05l1.48,1.4-1,.89c-.82-.82-1.7-1.66-2.56-2.53a.54.54,0,0,1,0-.77c.86-.86,1.74-1.71,2.62-2.58Z"/><path class="cls-2" d="M36.31,9.52l-.83-.9,1.37-1.3-.08-.13H29.51V5.91h7.24l0-.08-1.45-1.3,1-.93,1.68,1.69c.25.25.52.5.76.76a.6.6,0,0,1,0,.9C38,7.81,37.17,8.66,36.31,9.52Z"/><path class="cls-2" d="M14.22,3.35A6.38,6.38,0,1,1,7.84,9.69,6.38,6.38,0,0,1,14.22,3.35ZM9.11,9.71a5.1,5.1,0,1,0,5.14-5.09A5.11,5.11,0,0,0,9.11,9.71Z"/><path class="cls-2" d="M14.87,13.54H13.56c.18-.58-.19-.84-.59-1.12A1.7,1.7,0,0,1,12.3,11h1.23a2,2,0,0,0,.12.26.63.63,0,0,0,1.19-.3.61.61,0,0,0-.53-.61c-.18,0-.37,0-.55-.08a1.8,1.8,0,0,1-1.39-1.42A1.72,1.72,0,0,1,13,7c.37-.29.73-.51.51-1.07h1.26s0,0,0,.06a.88.88,0,0,0,.52,1,1.69,1.69,0,0,1,.76,1.48H14.87l-.06-.18A.65.65,0,0,0,14,7.83a.64.64,0,0,0,.17,1.25A1.89,1.89,0,0,1,16,10.29a1.78,1.78,0,0,1-.62,2.2C15,12.76,14.73,13,14.87,13.54Z"/></g></g></svg>