<?xml version="1.0" encoding="UTF-8"?>
<svg id="Layer_2" data-name="Layer 2" xmlns="http://www.w3.org/2000/svg" viewBox="0 0 40 40">
  <defs>
    <style>
      .cls-1 {
        fill: #fff;
      }

      .cls-2 {
        fill: #0091ff;
      }

      .cls-3 {
        fill: none;
      }
    </style>
  </defs>
  <g id="Layer_1-2" data-name="Layer 1">
    <g>
      <rect class="cls-3" width="40" height="40"/>
      <g>
        <path class="cls-2" d="m13.89,39.8c-.2-.24-.45-.46-.58-.73-.92-1.81-1.82-3.63-2.71-5.46-.84-1.74.08-3.68,1.93-4.12,1.14-.27,2.32.21,2.99,1.22.33.5.64,1.02,1.04,1.51v-.37c0-3.48,0-6.96,0-10.44,0-.28-.07-.43-.35-.55-3.2-1.38-5.17-4.79-4.71-8.15.5-3.65,3.21-6.41,6.8-6.91,4.36-.61,8.43,2.58,8.9,6.97.37,3.47-1.54,6.74-4.75,8.12-.28.12-.37.26-.37.56.02,1.24,0,2.47,0,3.84.88-.34,1.73-.6,2.52-.98,4.25-2.04,6.86-6.49,6.63-11.21-.11-2.15-.73-4.12-1.89-5.93-.15-.24-.27-.32-.58-.21-1.32.47-2.77-.08-3.48-1.28-.72-1.22-.47-2.75.59-3.69,1.04-.92,2.6-.98,3.71-.14,1.11.84,1.49,2.35.88,3.6-.14.28-.13.46.05.71,4.53,6.7,2.03,16-5.25,19.53-.13.06-.25.13-.4.21.16.14.29.25.42.36,1.58-1.45,3.88-.91,4.67,1.09.59-.3,1.22-.41,1.87-.28,1.28.26,2.21,1.34,2.22,2.66.02,3.07,0,6.13.01,9.2,0,.41-.22.66-.54.87h-.46c-.43-.22-.56-.57-.56-1.04.02-2.91.01-5.82,0-8.74,0-.24-.03-.5-.11-.72-.21-.54-.78-.82-1.35-.72-.55.1-.97.6-.98,1.23-.01.86,0,1.73,0,2.59,0,.45-.32.77-.74.78-.42.01-.75-.28-.8-.73-.01-.11,0-.23,0-.35,0-1.29,0-2.58,0-3.87,0-.56-.29-.99-.77-1.18-.79-.31-1.64.26-1.65,1.13-.02,1.28,0,2.55,0,3.83,0,.13,0,.26,0,.39-.05.44-.39.75-.8.74-.42-.02-.73-.33-.74-.79-.01-1.31,0-2.63-.01-3.94,0-.23-.03-.47-.11-.68-.2-.53-.78-.84-1.31-.74-.6.11-1.02.59-1.03,1.22-.01,1.26,0,2.53,0,3.79,0,.52-.3.84-.75.85-.47,0-.78-.32-.79-.85,0-.1,0-.21,0-.31,0-4.65,0-9.3,0-13.95,0-.14,0-.28,0-.43-.03-.53-.42-.98-.93-1.1-.53-.12-1.08.09-1.31.57-.13.28-.18.62-.18.93-.01,5.68,0,11.36,0,17.05,0,.18,0,.36-.03.54-.05.31-.24.56-.54.57-.25.01-.53-.1-.77-.21-.11-.05-.17-.22-.24-.34-.75-1.23-1.5-2.46-2.25-3.69-.32-.52-.87-.74-1.43-.62-.53.11-.97.56-1,1.14-.02.29.07.62.19.88.88,1.82,1.79,3.62,2.68,5.43.32.66.24.97-.37,1.35h-.46Zm8.2-20.49c2.12-.86,4.19-3.71,3.48-7.01-.66-3.11-3.6-5.32-6.92-4.99-3,.3-5.51,2.94-5.63,6.02-.09,2.56,1.72,5.62,3.53,5.91,0-.31-.02-.62,0-.93.04-.61.07-1.23.18-1.83.05-.25.05-.4-.11-.61-.98-1.2-1.07-2.82-.27-4.11.8-1.28,2.3-1.91,3.78-1.58,2.61.58,3.64,3.71,1.91,5.77-.09.11-.16.29-.14.42.04.46.15.91.18,1.37.03.51,0,1.03,0,1.58Zm-4.15-4.32c.88-.45,1.76-.48,2.65-.07.09.04.29-.02.36-.11.65-.8.5-2.02-.31-2.71-.8-.68-2.01-.61-2.73.15-.73.77-.74,1.96.02,2.74Zm11.28-10.79c0-.78-.6-1.4-1.37-1.41-.77,0-1.41.63-1.4,1.39,0,.75.61,1.37,1.37,1.38.79.01,1.4-.58,1.41-1.36Z"/>
        <path class="cls-2" d="m18.84.2c.3.18.55.38.55.77,0,.45-.3.74-.83.78-3.03.24-5.61,1.43-7.74,3.6-3.85,3.93-4.45,10.14-1.43,14.74.06.1.13.19.21.31.66-.27,1.34-.36,2.04-.18,1.64.43,2.57,2.14,2.04,3.75-.53,1.61-2.29,2.44-3.87,1.82-1.57-.62-2.31-2.45-1.57-3.97.15-.32.11-.51-.07-.79C3.01,13.23,7.15,2.69,16.37.52c.59-.14,1.19-.22,1.78-.32.23,0,.46,0,.7,0Zm-6.56,22.86c0-.78-.61-1.39-1.39-1.39-.77,0-1.4.63-1.39,1.4,0,.75.63,1.37,1.38,1.38.78,0,1.4-.61,1.4-1.38Z"/>
        <path class="cls-1" d="m22.13.49c.43,0,.75.34.75.77,0,.42-.34.76-.76.76-.43,0-.79-.37-.77-.8.02-.42.37-.74.79-.73Z"/>
      </g>
    </g>
  </g>
</svg>