<?xml version="1.0" encoding="UTF-8"?>
<svg id="Layer_2" data-name="Layer 2" xmlns="http://www.w3.org/2000/svg" viewBox="0 0 40 40">
  <defs>
    <style>
      .cls-1 {
        fill: #fff;
      }

      .cls-2 {
        fill: #0091ff;
      }

      .cls-3 {
        fill: none;
      }
    </style>
  </defs>
  <g id="Layer_1-2" data-name="Layer 1">
    <g>
      <rect class="cls-3" width="40" height="40"/>
      <g>
        <path class="cls-1" d="m2.04,32.03s-.03,0-.04,0c0,1.75,0,3.51,0,5.26,0,.32.39.71.7.71,1.36,0,2.71,0,4.07,0,.73,0,1.45-.03,2.18-.07.36-.02.5-.17.52-.53.04-.53.05-1.07.07-1.6,0-.13.04-.19.17-.22.44-.1.87-.22,1.31-.3.83-.16,1.61-.14,2.42.22,2.29,1.01,4.7,1.63,7.18,1.94,1.52.19,3.04.2,4.56.11.79-.05,1.58-.17,2.32-.5,2.24-1,4.48-1.99,6.72-3,.81-.36,1.62-.72,2.4-1.14,1.25-.67,1.72-2.21,1.11-3.46-.6-1.24-2.12-1.81-3.41-1.24-1.92.85-3.83,1.73-5.74,2.6-.16.07-.26.07-.4-.05-.34-.3-.72-.54-1.16-.66-2.36-.68-4.73-1.34-7.08-2.08-1.9-.6-3.83-.85-5.81-.79-1.45.04-2.89.15-4.33.23-.27.02-.29,0-.29-.28,0-.22,0-.44-.02-.65-.04-.39-.28-.61-.67-.63-.76-.03-1.51-.07-2.27-.06-1.3,0-2.61.04-3.91.07-.41.01-.52.14-.58.55-.02.13-.03.25-.03.38,0,1.73,0,3.46,0,5.19ZM27.02,11.99c.05-.12.1-.24.15-.36.42-1.01.67-2.07.58-3.17-.15-1.8-.86-3.34-2.19-4.59-1.55-1.46-3.38-2.07-5.46-1.82-1.61.19-2.95.96-4.05,2.14-1.7,1.83-2.28,4-1.6,6.39.67,2.34,2.26,3.9,4.56,4.72.36.13.36.13.23.49-.19.53-.43,1.05-.53,1.6-.37,2.07.11,3.95,1.47,5.56,1.25,1.48,2.83,2.38,4.77,2.5,2.06.13,3.82-.6,5.24-2.08,1.45-1.5,2.16-3.32,1.92-5.41-.28-2.45-1.62-4.21-3.75-5.37-.42-.23-.87-.39-1.34-.59Z"/>
        <path class="cls-2" d="m2.04,32.03c0-1.73,0-3.46,0-5.19,0-.13.02-.26.03-.38.06-.41.17-.54.58-.55,1.3-.04,2.61-.06,3.91-.07.76,0,1.51.03,2.27.06.39.02.62.24.67.63.02.22.01.44.02.65,0,.29.02.29.29.28,1.44-.08,2.89-.19,4.33-.23,1.98-.06,3.91.19,5.81.79,2.34.74,4.71,1.39,7.08,2.08.44.13.82.37,1.16.66.13.12.24.12.4.05,1.91-.87,3.82-1.75,5.74-2.6,1.28-.57,2.8,0,3.41,1.24.61,1.25.14,2.79-1.11,3.46-.78.42-1.59.78-2.4,1.14-2.24,1.01-4.48,1.99-6.72,3-.74.33-1.52.45-2.32.5-1.52.09-3.04.08-4.56-.11-2.48-.31-4.89-.94-7.18-1.94-.81-.36-1.6-.38-2.42-.22-.44.08-.88.21-1.31.3-.13.03-.17.09-.17.22-.02.53-.03,1.07-.07,1.6-.03.36-.16.51-.52.53-.73.04-1.45.07-2.18.07-1.36.01-2.71,0-4.07,0-.31,0-.7-.39-.7-.71,0-1.75,0-3.51,0-5.26.01,0,.03,0,.04,0Zm7.47,2c.43-.09.83-.18,1.22-.25,1.09-.19,2.15-.2,3.19.27,1.5.67,3.07,1.15,4.68,1.51,2.07.45,4.15.71,6.27.54.8-.06,1.56-.22,2.3-.56,1.93-.88,3.88-1.73,5.81-2.61,1.02-.46,2.04-.96,3.05-1.44.26-.12.47-.31.5-.6.06-.51-.14-.95-.52-1.28-.33-.3-.68-.2-1.05-.04-1.83.83-3.66,1.67-5.5,2.47-.39.17-.55.38-.56.8,0,1.28-1.47,2.76-3.14,2.33-1.17-.3-2.33-.62-3.49-.97-1.84-.55-3.67-1.12-5.5-1.69-.42-.13-.6-.49-.47-.88.13-.39.5-.6.9-.49,1.88.54,3.76,1.09,5.64,1.63,1.11.32,2.22.64,3.34.92.7.17.97-.02,1.18-.71.02-.05.03-.1.04-.15.14-.61-.11-1.05-.7-1.25-.09-.03-.17-.06-.26-.08-2.41-.71-4.81-1.42-7.23-2.12-.68-.2-1.37-.44-2.07-.49-1.55-.1-3.1-.11-4.65-.1-.92,0-1.84.14-2.75.21-.2.01-.24.1-.24.29,0,1.5,0,3,0,4.49v.25Zm-1.51,2.45v-9.07H3.51v9.07h4.5Z"/>
        <path class="cls-2" d="m27.02,11.99c.46.2.92.37,1.34.59,2.13,1.16,3.48,2.92,3.75,5.37.24,2.09-.47,3.91-1.92,5.41-1.43,1.48-3.19,2.21-5.24,2.08-1.94-.12-3.52-1.02-4.77-2.5-1.36-1.61-1.84-3.49-1.47-5.56.1-.55.34-1.07.53-1.6.13-.36.13-.36-.23-.49-2.3-.82-3.89-2.37-4.56-4.72-.68-2.39-.1-4.56,1.6-6.39,1.1-1.19,2.44-1.96,4.05-2.14,2.09-.24,3.91.37,5.46,1.82,1.33,1.25,2.04,2.79,2.19,4.59.09,1.09-.16,2.15-.58,3.17-.05.12-.1.23-.15.36Zm3.58,6.66c-.02-.39,0-.79-.07-1.17-.22-1.13-.77-2.09-1.65-2.83-1.66-1.4-3.56-1.66-5.55-.9-1.93.74-2.97,2.25-3.23,4.29-.34,2.76,1.47,5.31,4.15,5.81,1.47.27,2.9.09,4.13-.8,1.47-1.06,2.3-2.51,2.2-4.4Zm-4.39-9.82c-.03-.4-.02-.82-.09-1.21-.23-1.27-.94-2.24-1.92-3.04-.87-.71-1.89-1-3-1.05-1.35-.06-2.58.28-3.62,1.15-1.65,1.38-2.13,3.2-1.78,5.24.34,2.02,2,3.6,4.05,4.07.37.08.65,0,.93-.27,1.17-1.15,2.6-1.76,4.23-1.88.29-.02.45-.13.58-.37.45-.83.68-1.7.63-2.65Z"/>
        <path class="cls-2" d="m24.26,16.98c-.01.21.09.4.28.5.25.13.51.25.78.34.59.19,1.16.4,1.66.77.91.67,1.19,1.58.74,2.51-.26.54-.7.94-1.23,1.22-.24.13-.41.25-.43.56-.03.37-.4.63-.77.61-.36-.02-.66-.29-.68-.65-.01-.23-.12-.32-.31-.41-.41-.19-.82-.4-1.22-.63-.17-.1-.33-.24-.45-.4-.23-.29-.2-.66.04-.91.25-.27.6-.34.92-.15.14.08.26.18.39.27.55.39,1.15.54,1.81.42.37-.07.55-.27.61-.65.05-.31-.06-.51-.4-.67-.31-.15-.65-.24-.96-.38-.43-.19-.88-.36-1.27-.61-1.26-.81-1.38-2.26-.28-3.29.25-.24.57-.41.87-.59.15-.09.25-.19.26-.38.02-.39.27-.67.62-.71.38-.04.75.19.81.59.05.31.22.46.48.59.4.19.73.47.99.83.36.5.07,1.15-.53,1.18-.16,0-.33-.09-.49-.16-.07-.03-.12-.11-.18-.17-.43-.52-.98-.51-1.56-.35-.33.1-.49.35-.49.72Z"/>
        <path class="cls-2" d="m23.16,6.6c0,.45-.17.67-.46.81-.28.13-.52.09-.75-.11-.06-.05-.11-.1-.16-.16-.32-.41-.75-.4-1.19-.3-.22.05-.36.2-.39.45-.03.24.1.39.29.48.24.11.5.2.75.31.36.16.74.29,1.08.5,1.31.8,1.38,2.26.17,3.21-.16.13-.36.21-.53.34-.09.07-.18.18-.2.29-.08.35-.39.68-.68.68-.42,0-.76-.29-.81-.69-.02-.14-.07-.19-.2-.25-.43-.21-.86-.43-1.25-.71-.42-.3-.43-.79-.09-1.16.19-.21.42-.27.67-.16.27.12.53.28.79.42.38.21.77.34,1.2.21.18-.05.33-.13.4-.33.09-.29.04-.49-.24-.62-.29-.13-.61-.22-.9-.36-.44-.21-.9-.4-1.28-.69-.8-.61-.89-1.7-.27-2.49.25-.32.55-.6.93-.77.15-.07.23-.16.25-.34.04-.34.41-.67.74-.67.37,0,.66.24.72.64.03.19.17.26.31.36.29.2.58.39.84.64.15.14.21.37.26.46Z"/>
      </g>
    </g>
  </g>
</svg>