<svg xmlns="http://www.w3.org/2000/svg" viewBox="0 0 39.86 39.86"><defs><style>.cls-1{fill:none;}.cls-2{fill:#fff;}</style></defs><g id="Layer_2" data-name="Layer 2"><g id="Layer_1-2" data-name="Layer 1"><rect class="cls-1" width="39.86" height="39.86"/><path class="cls-2" d="M30,39.43h-.61c-.09,0-.18-.1-.27-.13a12.7,12.7,0,0,1-8.41-8.23.42.42,0,0,0-.49-.33c-3.73,0-7.47,0-11.2,0a3.43,3.43,0,0,1-3.58-3.59V25.79c-.58,0-1.12,0-1.66,0A3.43,3.43,0,0,1,.64,23.44c-.07-.2-.12-.41-.18-.62V3.4l.09-.33A3.34,3.34,0,0,1,2.19.89,8.76,8.76,0,0,1,3.43.43h28a6.12,6.12,0,0,1,1,.32,3.33,3.33,0,0,1,2,3c0,.53,0,1,0,1.59h1.54a3.41,3.41,0,0,1,3.47,3.47c0,6.1,0,12.2,0,18.3A12.87,12.87,0,0,1,31.27,39Zm-10-11V26h-1.2a1.15,1.15,0,1,1,0-2.29h1.2V20.93c0-1.06.38-1.44,1.43-1.46a11.93,11.93,0,0,0,7.27-2.6,1.24,1.24,0,0,1,1.89,0,11.73,11.73,0,0,0,4.63,2.27c.58.14,1.18.22,1.78.33v-5h-16c0,.41,0,.79,0,1.16a1.14,1.14,0,0,1-1.23,1.24H11.51a1.15,1.15,0,0,1-1.24-1.23V14.39H7.76v12.7a1.19,1.19,0,0,0,1.37,1.37H20.08ZM29.73,19a14.38,14.38,0,0,1-7.31,2.7,60.84,60.84,0,0,0,0,6.34A10.25,10.25,0,0,0,29.36,37a1.16,1.16,0,0,0,.76,0,10.63,10.63,0,0,0,7-10c0-1.62,0-3.24,0-4.87,0-.12,0-.24,0-.39A14.41,14.41,0,0,1,29.73,19ZM32.09,5.38V4.08a1.19,1.19,0,0,0-1.37-1.37H4.11c-.94,0-1.37.43-1.37,1.38v18.2a1.1,1.1,0,0,0,.92,1.18c.59.06,1.2,0,1.82,0V23q0-7,0-14a4.52,4.52,0,0,1,.12-1.1A3.39,3.39,0,0,1,9.05,5.38h23Zm-11,6.68H37.11c0-1.08,0-2.14,0-3.19a1.13,1.13,0,0,0-1.22-1.2H9A1.15,1.15,0,0,0,7.76,8.89v2.89a2.4,2.4,0,0,0,0,.28h2.48V10.87a1.14,1.14,0,0,1,1.21-1.22h8.36a1.14,1.14,0,0,1,1.22,1.24C21.07,11.27,21.06,11.65,21.06,12.06Zm-8.49,2.43h6.18V12H12.57Z"/><path class="cls-2" d="M12.68,26H13.9a1.14,1.14,0,0,0,1.16-1.15,1.15,1.15,0,0,0-1.18-1.13H11.53a1.14,1.14,0,0,0-1.18,1.13A1.16,1.16,0,0,0,11.55,26Z"/><path class="cls-2" d="M12.68,26H11.55a1.16,1.16,0,0,1-1.2-1.16,1.14,1.14,0,0,1,1.18-1.13h2.35a1.15,1.15,0,0,1,1.18,1.13,1.14,1.14,0,0,1-1.16,1.15Z"/><path class="cls-2" d="M29.72,28.23l1.38-1.39c.83-.83,1.66-1.67,2.5-2.5a1.14,1.14,0,0,1,1.95.5,1.06,1.06,0,0,1-.28,1.05c-1.58,1.6-3.16,3.19-4.76,4.77a1.08,1.08,0,0,1-1.57,0c-.83-.8-1.65-1.62-2.45-2.45a1.13,1.13,0,1,1,1.61-1.6C28.64,27.11,29.15,27.65,29.72,28.23Z"/></g></g></svg>