<?xml version="1.0" encoding="UTF-8"?>
<svg id="Layer_2" data-name="Layer 2" xmlns="http://www.w3.org/2000/svg" viewBox="0 0 40 40">
  <defs>
    <style>
      .cls-1 {
        fill: #0091ff;
      }

      .cls-2 {
        fill: none;
      }
    </style>
  </defs>
  <g id="Layer_1-2" data-name="Layer 1">
    <g>
      <rect class="cls-2" width="40" height="40"/>
      <g>
        <path class="cls-1" d="m20.48,38.95h-.96c-.55-.23-1.12-.43-1.66-.69-5.15-2.51-9.1-6.28-11.84-11.31-1.88-3.44-2.96-7.12-3.15-11.03-.1-1.96-.07-3.92-.07-5.88,0-1.3.73-2.38,1.95-2.83,2.06-.76,3.45-2.17,4.2-4.23.29-.79.84-1.35,1.61-1.7.22-.1.46-.17.68-.25,5.83,0,11.65,0,17.48,0,1.35.29,2.09,1.16,2.58,2.43.69,1.81,2.05,3.01,3.86,3.7,1.34.5,2.07,1.55,2.08,2.96,0,1.36,0,2.71,0,4.07,0,2.13-.21,4.24-.75,6.3-2.33,8.74-7.56,14.98-15.98,18.45Zm-.46-35.69c-2.7,0-5.4,0-8.11,0-.56,0-.77.14-.97.67-.97,2.56-2.73,4.32-5.28,5.31-.51.2-.66.4-.66.94,0,1.25,0,2.49,0,3.74,0,1.58.09,3.16.4,4.71,1.7,8.31,6.37,14.3,14.05,17.94.4.19.74.16,1.12-.01,4.4-2,7.91-5.02,10.52-9.08,2.29-3.55,3.6-7.45,3.82-11.67.1-1.85.06-3.7.07-5.55,0-.63-.13-.82-.72-1.05-2.51-.97-4.24-2.73-5.2-5.24-.22-.57-.41-.7-1.02-.7-2.68,0-5.35,0-8.03,0Z"/>
        <path class="cls-1" d="m24.64,15.41c.27.05.52.07.75.13,1.16.3,1.97,1.28,1.98,2.47.02,2.27.05,4.54,0,6.81-.06,2.51-2.24,4.62-4.76,4.66-1.74.03-3.48.03-5.22,0-2.52-.04-4.69-2.15-4.75-4.67-.06-2.27-.04-4.54,0-6.81.02-1.34,1.05-2.39,2.39-2.53.11-.01.22-.03.35-.05,0-1.06,0-2.09,0-3.13.02-2.66,2.16-4.72,4.81-4.65,2.39.07,4.41,2.08,4.46,4.48.02.96,0,1.92,0,2.89,0,.13,0,.27,0,.41Zm-4.64,2.25c-1.51,0-3.01,0-4.52,0-.53,0-.65.12-.65.66,0,2.02,0,4.05,0,6.07,0,1.72,1.17,2.87,2.89,2.87,1.49,0,2.99,0,4.48,0,1.82,0,2.96-1.13,2.97-2.95,0-1.99,0-3.97,0-5.96,0-.58-.11-.7-.69-.7-1.49,0-2.99,0-4.48,0Zm2.39-2.24c0-.08.02-.16.02-.23,0-.99.01-1.97,0-2.96-.02-1.24-.94-2.23-2.17-2.37-1.18-.13-2.31.66-2.58,1.85-.08.35-.07.73-.07,1.1,0,.86,0,1.72,0,2.6h4.81Z"/>
        <path class="cls-1" d="m18.89,22.46c0-.33,0-.66,0-1,.02-.67.48-1.15,1.1-1.16.61,0,1.1.47,1.12,1.13.02.69.02,1.38,0,2.07-.02.65-.48,1.11-1.09,1.12-.62,0-1.09-.46-1.12-1.13-.01-.34,0-.69,0-1.03Z"/>
      </g>
    </g>
  </g>
</svg>