<?xml version="1.0" encoding="UTF-8"?>
<svg id="Layer_2" data-name="Layer 2" xmlns="http://www.w3.org/2000/svg" viewBox="0 0 40 40">
  <defs>
    <style>
      .cls-1 {
        fill: #0091ff;
      }

      .cls-2 {
        fill: none;
      }
    </style>
  </defs>
  <g id="Layer_1-2" data-name="Layer 1">
    <g>
      <rect class="cls-2" width="40" height="40"/>
      <rect class="cls-2" x=".52" y=".52" width="38.97" height="38.97"/>
      <path class="cls-1" d="m36.2,10.08c-.03-.79-.3-1.51-.78-2.15-.84-1.12-2-1.6-3.38-1.68-3.33-.21-6.37-1.18-9.01-3.24-.57-.44-1.08-.95-1.66-1.37-.75-.55-1.61-.64-2.43-.21-.5.26-.92.66-1.35,1.03-.95.82-1.98,1.52-3.11,2.09-2.08,1.05-4.31,1.59-6.64,1.7-2.5.12-4.16,1.98-4.13,4.24.03,2.33-.04,4.66.03,6.99.07,2.48.42,4.93,1.12,7.32,1.29,4.38,3.75,7.95,7.55,10.59,2.2,1.53,4.61,2.67,7.18,3.46h.75c.21-.06.43-.12.64-.19,2.07-.72,4.05-1.64,5.89-2.83,2.74-1.77,4.92-4.05,6.49-6.89,1.76-3.2,2.48-6.67,2.77-10.25.23-2.86.16-5.73.07-8.6Zm-2.76,11.87c-1.13,6.12-4.47,10.62-10.18,13.36-.96.46-1.96.83-2.96,1.23-.17.07-.4.09-.57.03-2.64-.9-5.11-2.13-7.26-3.92-2.97-2.48-4.77-5.63-5.69-9.32-.7-2.83-.89-5.71-.89-8.61,0-1.46.04-2.92.07-4.38.02-1.02.61-1.69,1.63-1.83,1.16-.17,2.33-.24,3.48-.47,3.2-.63,6-2.07,8.38-4.27.5-.46.52-.46,1.01,0,2.38,2.2,5.18,3.64,8.38,4.28,1.14.23,2.32.3,3.48.47,1.03.15,1.62.81,1.64,1.82.01,1.37,0,2.75,0,4.12.07,2.52-.06,5.02-.52,7.5Z"/>
      <path class="cls-1" d="m29.55,20.28c0,5.15-4.26,9.36-9.54,9.39-5.23.03-9.6-4.27-9.56-9.4.04-5.19,4.32-9.39,9.55-9.37,5.25.02,9.53,4.23,9.54,9.39Zm-2.25,0c-.01-3.96-3.32-7.2-7.31-7.17-4.03.03-7.26,3.21-7.28,7.16-.03,3.93,3.27,7.18,7.3,7.19,4.01,0,7.31-3.24,7.3-7.18Z"/>
      <path class="cls-1" d="m18.44,21.8c.1-.15.16-.28.26-.37,1.3-1.29,2.6-2.57,3.91-3.85.11-.1.21-.21.33-.3.45-.34,1.06-.3,1.47.08.39.38.44,1,.11,1.44-.07.1-.16.18-.25.27-1.64,1.61-3.28,3.22-4.91,4.83-.66.65-1.25.65-1.9.01-.62-.61-1.24-1.21-1.85-1.82-.32-.32-.4-.7-.27-1.12.14-.42.45-.67.89-.74.4-.07.73.08,1.01.36.38.37.75.75,1.21,1.21Z"/>
    </g>
  </g>
</svg>