<svg xmlns="http://www.w3.org/2000/svg" viewBox="0 0 28 28"><defs><style>.cls-1{fill:none;}.cls-2{fill:#0091ff;}</style></defs><g id="Layer_2" data-name="Layer 2"><g id="Layer_1-2" data-name="Layer 1"><rect class="cls-1" width="28" height="28"/><rect class="cls-1" x="0.53" y="0.53" width="26.93" height="26.93"/><path class="cls-2" d="M25.51,14.34H20.73c-.13-.58-.26-1.14-.4-1.73h5.19c.65,0,.92-.29.91-.95a10.21,10.21,0,0,0-3.27-7.48A10.1,10.1,0,0,0,17,1.42l-.21,0h-.89a1,1,0,0,0-.54,1c0,1.69,0,3.37,0,5.06v.29l-1.68-.34V4.69a.76.76,0,0,0-.81-.8A11.21,11.21,0,0,0,5.54,6.63a11,11,0,0,0-3.82,6.83,11.07,11.07,0,0,0,2.53,9.12,11,11,0,0,0,6.41,3.81c.43.09.87.13,1.31.19l.21,0h1.48c.54-.08,1.08-.14,1.62-.25a10.9,10.9,0,0,0,4.48-2.05.74.74,0,0,0,.14-1.1l-1.44-1.87-.21-.28,1.32-1.58L20.9,21.2l.75,1a.74.74,0,0,0,1.11.13,9.15,9.15,0,0,0,3.59-7.12A.75.75,0,0,0,25.51,14.34Zm-7.24,9.2a9.86,9.86,0,1,1-6.11-18.1,1.11,1.11,0,0,1,0,.19V7.39C8.55,8,6.1,10,5.28,13.57a7.38,7.38,0,0,0,2.93,7.94c2.79,2.1,5.79,2.1,8.85.46Zm-5.35-1.91a6.38,6.38,0,1,1,6.35-6.37A6.37,6.37,0,0,1,12.92,21.63ZM19.46,11A8,8,0,0,0,17,8.55a.38.38,0,0,1-.17-.26c0-1.75,0-3.51,0-5.27a.29.29,0,0,1,0-.09,8.79,8.79,0,0,1,8.07,8.18h-5.1A.37.37,0,0,1,19.46,11Zm2.92,9.74-.24-.3c-.57-.75-1.15-1.49-1.73-2.24a.39.39,0,0,1-.07-.38c.16-.63.3-1.27.46-1.94h4A7.76,7.76,0,0,1,22.38,20.69ZM13.8,14.11l-1.45,0A1.18,1.18,0,0,1,12,14a.61.61,0,0,1,.17-1.17c.41,0,.82,0,1.23,0a1.15,1.15,0,0,1,.9.33.66.66,0,0,0,.91-1,2.73,2.73,0,0,0-.62-.45,7,7,0,0,0-1-.31V11a.67.67,0,1,0-1.33,0v.54l0,0-.22,0a1.85,1.85,0,0,0-1.44.93,2,2,0,0,0,1.7,2.95c.44,0,.89,0,1.32,0a.87.87,0,0,1,.48.17.54.54,0,0,1,.16.64.6.6,0,0,1-.59.42c-.39,0-.78,0-1.16,0a1.53,1.53,0,0,1-.91-.21.66.66,0,0,0-.68,1.12,3.31,3.31,0,0,0,.74.34,4.41,4.41,0,0,0,.65.11v.53a.67.67,0,1,0,1.33,0V18l.28,0a2,2,0,0,0,1.71-2A1.92,1.92,0,0,0,13.8,14.11Z"/></g></g></svg>