<svg xmlns="http://www.w3.org/2000/svg" viewBox="0 0 28 28"><defs><style>.cls-1{fill:none;}.cls-2{fill:#0091ff;}</style></defs><g id="Layer_2" data-name="Layer 2"><g id="Layer_1-2" data-name="Layer 1"><rect class="cls-1" width="28" height="28"/><path class="cls-2" d="M10.66,27.36a.83.83,0,0,1-.58-.83.77.77,0,0,1,.71-.74H23.34a2.36,2.36,0,0,0,.4-4.69,5.63,5.63,0,0,0-.58,0H17.24a3.93,3.93,0,0,1-.73-7.8,11.71,11.71,0,0,1,1.45,0,.76.76,0,0,1,.75.78.78.78,0,0,1-.76.78c-.41,0-.82,0-1.22.05a2.33,2.33,0,0,0-1.94,2.47A2.3,2.3,0,0,0,17,19.48c2.11,0,4.23,0,6.34,0a3.86,3.86,0,0,1,3.34,1.74,3.58,3.58,0,0,1,.62,1.59c0,.05,0,.1.05.15v.88a.83.83,0,0,0,0,.15A3.85,3.85,0,0,1,25,27a6.89,6.89,0,0,1-1.12.33Z"/><path class="cls-2" d="M6,27.36a9,9,0,0,1-.73-.53,16.3,16.3,0,0,1-3.69-4.45,7,7,0,0,1-.9-3.49,5.5,5.5,0,0,1,10.94-.58,6.23,6.23,0,0,1-.68,3.76A15,15,0,0,1,7.63,26.3c-.41.38-.87.71-1.3,1.06Zm.17-1.8a13.32,13.32,0,0,0,3.49-4.51A6.25,6.25,0,0,0,10,19.4a3.92,3.92,0,1,0-7.69.72C2.93,22.39,4.5,24,6.13,25.56Z"/><path class="cls-2" d="M27.36,6.59c-.06.33-.11.66-.19,1a10,10,0,0,1-2,3.75,18,18,0,0,1-2.73,2.79.81.81,0,0,1-1.21,0,16.21,16.21,0,0,1-4-4.7,6.86,6.86,0,0,1-.91-3.37,5.5,5.5,0,0,1,11-.55c0,.06,0,.13.05.2Zm-5.5,6a13.48,13.48,0,0,0,3.4-4.33,6,6,0,0,0,.48-1.72A3.9,3.9,0,0,0,21.1,2.28a4,4,0,0,0-3,5.05,7.53,7.53,0,0,0,1,2.16A16,16,0,0,0,21.86,12.58Z"/><path class="cls-2" d="M8.49,19.14a2.36,2.36,0,1,1-2.27-2.38A2.35,2.35,0,0,1,8.49,19.14Zm-2.36-.81a.78.78,0,1,0,.79.76A.77.77,0,0,0,6.13,18.33Z"/><path class="cls-2" d="M21.82,8.5a2.36,2.36,0,1,1,2.39-2.33A2.36,2.36,0,0,1,21.82,8.5Zm.82-2.37a.79.79,0,1,0-1.57,0,.79.79,0,0,0,1.57,0Z"/></g></g></svg>