<svg xmlns="http://www.w3.org/2000/svg" viewBox="0 0 28 28"><defs><style>.cls-1{fill:none;}.cls-2{fill:#0091ff;}</style></defs><g id="Layer_2" data-name="Layer 2"><g id="Layer_1-2" data-name="Layer 1"><rect class="cls-1" width="28" height="28"/><path class="cls-2" d="M20.15,27.77a.74.74,0,0,1-.38-.73c0-.4,0-.79,0-1.19a1.28,1.28,0,0,1,.21-.63q2.2-2.91,4.44-5.78a1.53,1.53,0,0,0,.33-1.18c-.19-1.86-.36-3.73-.53-5.59-.06-.58-.29-.87-.71-.89a.71.71,0,0,0-.75.66,2.81,2.81,0,0,0,0,.29v4.44a2.5,2.5,0,0,1-.54,1.62c-.64.8-1.25,1.62-1.87,2.43a.62.62,0,0,1-.57.3.54.54,0,0,1-.35-.87c.29-.4.6-.78.9-1.18a.63.63,0,0,0,0-.79.61.61,0,0,0-.75-.2,1,1,0,0,0-.33.27c-.71.92-1.42,1.85-2.12,2.78a3.3,3.3,0,0,0-.67,2.06c0,1.13,0,2.27,0,3.41a.8.8,0,0,1-.37.77h-.32a.66.66,0,0,1-.4-.69c0-1.16,0-2.33,0-3.49a4.38,4.38,0,0,1,1-2.8c.65-.85,1.33-1.67,1.93-2.55a1.78,1.78,0,0,1,3-.07,1.24,1.24,0,0,0,.38-1c0-1.55,0-3.09,0-4.63a1.79,1.79,0,0,1,3.57-.32c.15,1.47.28,2.94.43,4.42,0,.49.08,1,.14,1.47a2.5,2.5,0,0,1-.52,1.91c-1.45,1.86-2.88,3.73-4.31,5.61a.86.86,0,0,0-.15.44,7.69,7.69,0,0,0,0,1,.66.66,0,0,1-.39.7Z"/><path class="cls-2" d="M11.92,27.77a.66.66,0,0,1-.41-.68c0-1.14,0-2.28,0-3.42a3.47,3.47,0,0,0-.77-2.27c-.68-.87-1.34-1.75-2-2.63a.71.71,0,0,0-.66-.34.65.65,0,0,0-.44,1c.27.38.57.73.84,1.11a.88.88,0,0,1,.16.47.47.47,0,0,1-.39.45.53.53,0,0,1-.59-.23L6.42,19.65c-.23-.3-.45-.6-.69-.89a2.33,2.33,0,0,1-.51-1.52c0-1.5,0-3,0-4.49a2,2,0,0,0,0-.35.7.7,0,0,0-.73-.62.68.68,0,0,0-.68.63c-.1.91-.18,1.82-.27,2.73s-.19,2.11-.31,3.16a1.41,1.41,0,0,0,.3,1.08L8,25.19a1,1,0,0,1,.23.67,11.81,11.81,0,0,0,0,1.19.68.68,0,0,1-.39.72H7.5A.66.66,0,0,1,7.13,27a2.61,2.61,0,0,0-.71-2.14c-1.21-1.48-2.31-3-3.51-4.52a3.21,3.21,0,0,1-.74-2.59c.22-1.8.36-3.62.53-5.43a1.8,1.8,0,0,1,3.58,0c0,.42,0,.84,0,1.26v3.63a1.21,1.21,0,0,0,.37.95,1.77,1.77,0,0,1,1.23-.81A1.6,1.6,0,0,1,9.46,18c.83,1.05,1.64,2.11,2.42,3.19a4.18,4.18,0,0,1,.72,2.5q0,1.68,0,3.36a.8.8,0,0,1-.36.77Z"/><path class="cls-2" d="M21.51,5.23c0,1.06.07,2.14,0,3.19A10.8,10.8,0,0,1,17.54,16a10.72,10.72,0,0,1-3.15,1.84.86.86,0,0,1-.65,0,11,11,0,0,1-7-8.67,9.68,9.68,0,0,1-.13-1.79c0-1.61,0-3.23,0-4.84,0-.5.11-.64.59-.74L13.89.24a.93.93,0,0,1,.37,0L21,1.74c.44.1.55.25.55.71,0,.93,0,1.85,0,2.78ZM7.66,5.5h0a30.5,30.5,0,0,0,.17,3.32,9.78,9.78,0,0,0,6.12,7.85.47.47,0,0,0,.33,0,10,10,0,0,0,6.24-8.93c0-1.6,0-3.2,0-4.79,0-.18-.06-.24-.23-.28L14.3,1.35a1,1,0,0,0-.45,0l-6,1.32c-.17,0-.22.1-.21.27Z"/><path class="cls-2" d="M18.47,4.32,14.2,3.38a.86.86,0,0,0-.39,0l-4.44,1a1,1,0,0,1-.49,0,.46.46,0,0,1-.3-.52A.53.53,0,0,1,9,3.36l2.28-.51c.79-.17,1.58-.36,2.37-.52a1.94,1.94,0,0,1,.76,0c1.52.32,3,.67,4.56,1,.43.1.55.25.55.7,0,1.2.05,2.4,0,3.6a9,9,0,0,1-5.13,8,.71.71,0,0,1-.69,0A9,9,0,0,1,8.68,8.8c0-.33-.08-.66-.1-1a.55.55,0,0,1,.51-.64c.32,0,.54.23.57.61a8,8,0,0,0,4.2,6.69.39.39,0,0,0,.44,0,7.93,7.93,0,0,0,4.18-6.94c0-1,0-2,0-3C18.49,4.49,18.48,4.42,18.47,4.32Z"/><path class="cls-2" d="M13,9.08l3.2-2.89a3.45,3.45,0,0,1,.28-.26.54.54,0,1,1,.71.81l-.58.52-3.19,2.89c-.38.34-.65.33-1-.06s-.82-.95-1.22-1.43a.54.54,0,0,1,0-.81A.53.53,0,0,1,12,8Z"/><path class="cls-2" d="M9.65,5.79a.56.56,0,0,1-.53.55.54.54,0,0,1-.54-.55.52.52,0,0,1,.53-.52A.54.54,0,0,1,9.65,5.79Z"/></g></g></svg>