<svg xmlns="http://www.w3.org/2000/svg" viewBox="0 0 28 28"><defs><style>.cls-1{fill:none;}.cls-2{fill:#0091ff;}</style></defs><g id="Layer_2" data-name="Layer 2"><g id="Layer_1-2" data-name="Layer 1"><rect class="cls-1" width="28" height="28"/><path class="cls-2" d="M21.71,10.7v.4q0,7.57,0,15.14a2.12,2.12,0,0,1-.14.79,1.3,1.3,0,0,1-1.89.54c-1-.61-2.07-1.23-3.09-1.87a.75.75,0,0,0-.92,0c-1.12.7-2.26,1.35-3.38,2a1.47,1.47,0,0,1-1.71,0C9.42,27,8.24,26.34,7.09,25.63a.57.57,0,0,0-.69,0c-1.07.65-2.14,1.3-3.23,1.93a1.3,1.3,0,0,1-2-.78,1.6,1.6,0,0,1,0-.44V3.68A3.63,3.63,0,0,1,4.83,0H23.18a3.63,3.63,0,0,1,3.68,3.66c0,1.58,0,3.16,0,4.73a2.23,2.23,0,0,1-2.3,2.31ZM19.84,25.47v-.4q0-10.59,0-21.18a4.38,4.38,0,0,1,.35-2s0,0,0-.06H5A1.78,1.78,0,0,0,3,3.82V25.49c.85-.51,1.66-1,2.46-1.49A2.25,2.25,0,0,1,8,24c1.07.65,2.15,1.29,3.22,1.95a.36.36,0,0,0,.42,0c1.06-.65,2.14-1.28,3.2-1.93a2.29,2.29,0,0,1,2.58,0l2.12,1.28ZM21.71,8.83h2.9A.34.34,0,0,0,25,8.44c0-1.65,0-3.31,0-5a1.74,1.74,0,0,0-1.82-1.61A1.57,1.57,0,0,0,21.7,3.55c0,1.65,0,3.3,0,5Z"/><path class="cls-2" d="M10.75,7.06h3.62a.94.94,0,1,1,0,1.87H7.08a.94.94,0,0,1-1-.83.91.91,0,0,1,.64-1,1.39,1.39,0,0,1,.41,0Z"/><path class="cls-2" d="M10.73,13.93H7.05a.91.91,0,0,1-.94-1.16.88.88,0,0,1,.7-.67,1.8,1.8,0,0,1,.4,0h7.07a1.81,1.81,0,0,1,.52.06.92.92,0,0,1,.6,1,.9.9,0,0,1-.82.78c-.36,0-.72,0-1.08,0Z"/><path class="cls-2" d="M10.73,19.05H7.05a.94.94,0,0,1-.86-1.39A.88.88,0,0,1,7,17.18h7.53a.91.91,0,0,1,.9.93.93.93,0,0,1-.94.94H10.73Z"/></g></g></svg>