<svg xmlns="http://www.w3.org/2000/svg" width="146" height="52"><g fill="#0B4C7A" fill-rule="evenodd"><circle cx="104" cy="20" r="2"/><path d="M12 36.814c0-6.673-.642-12.008 1.692-17.757C16.026 13.308 24.08 13 24.69 13c.61 0 1.661 0 2.184 1.135.523 1.135.412 2.114 0 2.604-.411.49-5.602.736-7.766 3.038-1.442 1.535-2.253 4.12-2.432 7.757h9.238c.867.4 1.3 1.11 1.3 2.13 0 1.021-.433 1.716-1.3 2.087h-9.238v6.143L12 36.814zm19.854-22.093c-.27 10.101-.27 16.182 0 18.242.27 2.06 1.973 4.405 5.107 7.037h8.277c.01-1.596-.455-2.504-1.396-2.722-1.411-.329-7.79-1.386-8.062-5.259-.182-2.581-.182-8.348 0-17.298-.295-.94-.936-1.41-1.924-1.41-.987 0-1.655.47-2.002 1.41zm15.254 14.318c0-1.187.857-1.475 1.64-1.475.919 0 1.58.492 1.983 1.475 1.226 5.137 3.848 7.705 7.864 7.705 4.017 0 6.577-2.357 7.68-7.073.317-1.405.854-2.107 1.612-2.107 1.137 0 2.196.964 2.196 2.107 0 1.143-1.42 8.094-5.882 9.58l-10.689.193c-5.285-1.342-6.404-9.218-6.404-10.405zm45.943 4.46c-.904.318-5.56 3.618-8.24 3.063-2.68-.554-6.13-2.188-6.467-6.102-.337-3.914 2.572-8.136 6.95-8.136 4.377 0 7.757 4.822 7.757 5.557 0 .736-6.464.47-7.341.47-.877 0-1.536.625-1.536 1.74 0 1.117.762 1.742 1.69 1.742.928 0 10.318.454 11.018-.846.7-1.3-.794-13.296-12.516-12.347-6.465.524-10.15 6.733-9.607 11.82.363 3.39 1.558 5.826 3.585 7.305h15.945c1.183-1.458 1.571-2.546 1.165-3.266-.609-1.08-1.498-1.318-2.403-1zm8.83-6.999c0-1.21.598-1.71 2.126-1.71s2.127.5 2.127 1.71v11.265h-4.253V26.5zm29.863-13.24c1.267 0 2.256 1.275 2.256 1.734 0 .46.329 13.785 0 16.977-.22 2.128-1.917 4.55-5.095 7.265l-14.967-1.004c-3.978-5.825-4.094-11.064-.349-15.719 3.746-4.654 9.146-5.11 16.2-1.365v-6.154c0-.567.688-1.734 1.955-1.734zM122 23a7 7 0 1 0 0 14 7 7 0 0 0 0-14z"/></g></svg>