<svg xmlns="http://www.w3.org/2000/svg" width="146" height="52"><g fill="none" fill-rule="evenodd"><text fill="#004E9F" font-family="CerebriSans-Regular, Cerebri Sans" font-size="6">
      <tspan x="41.438" y="42">SITE SERVICES</tspan>
    </text><path fill="#00529B" d="M41 17.966h4.904v11.4c0 1.384 1.794 1.903 2.66 1.903.866 0 2.658-.519 2.658-1.903v-11.4h4.904v11.4c0 3.667-3.678 5.487-7.562 5.487-3.884 0-7.563-1.506-7.563-5.487v-11.4zm16.837 5.579h3.894v1.66c1.158-1.302 2.4-1.952 3.724-1.952 1.987 0 3.488 1.247 3.69 1.952.135.47.183 3.58.143 9.328H65.08v-6.645c-.229-.734-.752-1.102-1.569-1.102s-1.304.478-1.46 1.434v6.313h-4.214V23.545zM71.354 23.505h4.186v11.028h-4.186z"/><path fill="#00529B" d="M76.858 23.505h2.188v-1.98l3.548-3.73v5.71h2.316v3.198h-2.316c-.104 2.88-.061 4.48.13 4.8.19.32.831.32 1.924 0l.262 3.03c-2.627.614-4.26.51-4.902-.311-.64-.82-.962-1.727-.962-2.719v-4.8h-2.188v-3.198zm15.309-.266c4.355 0 6.436 2.307 6.242 6.92h-8.335c.165 1.365 1.194 2.327 2.437 2.207.376-.036.941-.356 1.697-.96l4.201.298c-1.171 2.19-3.252 3.286-6.242 3.286-4.486 0-6.229-3.179-6.229-4.831 0-1.653-.305-6.92 6.229-6.92zm.025 2.62c-1.242 0-1.906.75-1.992 2.252h4.037c-.122-1.502-.804-2.253-2.045-2.253zm20.018-7.682v16.415h-3.748v-1.04c-1.47.77-2.528 1.193-3.174 1.267-3.227.368-5.01-1.768-5.01-5.704 0-4.07 1.754-6.334 5.01-5.876.559.079 1.463.5 2.711 1.261v-6.323h4.21zM106 26c-1.105 0-2 1.343-2 3s.895 3 2 3 2-1.343 2-3-.895-3-2-3zM54 5c10.2 0 18.972 4.52 22.86 11h-7.433c-4.01-3.079-9.685-5-15.977-5-6.072 0-11.569 1.789-15.55 4.681-3.985 2.896-6.45 6.898-6.45 11.319 0 2.882 1.048 5.586 2.881 7.92C30.991 31.777 29 27.81 29 23.5c0-4.204 1.895-8.081 5.088-11.188C38.654 7.869 45.875 5 54 5z"/><path fill="#0BAC54" d="M69.726 17.795h7.619l-3.898 4.382z"/><path fill="#00509D" d="M83.951 36.743h29.259V42H83.951z"/></g></svg>