<svg xmlns="http://www.w3.org/2000/svg" viewBox="0 0 40 40"><defs><style>.cls-1{fill:none;}.cls-2{fill:#0091ff;}</style></defs><g id="Layer_2" data-name="Layer 2"><g id="Layer_1-2" data-name="Layer 1"><rect class="cls-1" width="40" height="40"/><path class="cls-2" d="M22.15,8a1.43,1.43,0,0,0-1.41-1.47q-1.51,0-3,0A1.44,1.44,0,0,0,16.3,8,1.46,1.46,0,0,0,17.77,9.4h2.89A1.46,1.46,0,0,0,22.15,8ZM32,29.46a1.44,1.44,0,0,0-1.59-.78,1.42,1.42,0,0,0-1.17,1.39c0,.92,0,1.83,0,2.74a2.92,2.92,0,0,1-3,3q-7,0-14,0a2.91,2.91,0,0,1-3-3q0-12.78,0-25.57a2.9,2.9,0,0,1,3-3h14a2.92,2.92,0,0,1,3,3.05c0,.68,0,1.36,0,2a1.47,1.47,0,1,0,2.93,0V7.22a5.85,5.85,0,0,0-5.94-5.94c-4.68,0-9.36,0-14,0a6,6,0,0,0-2,.33A5.78,5.78,0,0,0,6.28,7.27V30.79c0,.75,0,1.51,0,2.26a5.67,5.67,0,0,0,3.29,5.07,11.92,11.92,0,0,0,1.89.61H27a1.59,1.59,0,0,1,.2-.07,5.74,5.74,0,0,0,4.91-5A35.47,35.47,0,0,0,32.16,30,1.2,1.2,0,0,0,32,29.46Zm-12.8,1.16a1.46,1.46,0,1,0,1.47,1.46A1.46,1.46,0,0,0,19.22,30.62ZM35.63,19.11a.85.85,0,0,0-.74-.73A1.76,1.76,0,0,1,33.52,16a.85.85,0,0,0-.29-1,6.61,6.61,0,0,0-1.89-1.09.84.84,0,0,0-1,.25,1.77,1.77,0,0,1-2.77,0,.82.82,0,0,0-1-.26,6.84,6.84,0,0,0-1.75,1,.85.85,0,0,0-.31,1A1.75,1.75,0,0,1,23,18.32a.83.83,0,0,0-.77.69,6.13,6.13,0,0,0-.05,2.22.85.85,0,0,0,.83.82,1.68,1.68,0,0,1,1.05.54,1.73,1.73,0,0,1,.32,1.91.82.82,0,0,0,.22,1,6.51,6.51,0,0,0,2,1.13,1.46,1.46,0,0,0,.3.07.88.88,0,0,0,.69-.37,1.76,1.76,0,0,1,2.86,0,.82.82,0,0,0,1,.27,6.81,6.81,0,0,0,1.74-1,.84.84,0,0,0,.28-1,1.75,1.75,0,0,1,1.41-2.41.85.85,0,0,0,.73-.69A6.41,6.41,0,0,0,35.63,19.11Zm-6.69,3.42a2.27,2.27,0,1,1,2.26-2.27A2.27,2.27,0,0,1,28.94,22.53Z"/></g></g></svg>