<?xml version="1.0" encoding="UTF-8"?><svg id="Layer_2" xmlns="http://www.w3.org/2000/svg" viewBox="0 0 48 48"><defs><style>.cls-1{fill:none;}.cls-2{fill:#b3b3b3;}</style></defs><g id="Layer_1-2"><g><rect class="cls-1" width="48" height="48"/><g><rect class="cls-1" x=".92" y=".92" width="46.17" height="46.17"/><path class="cls-2" d="M43.74,24.58c-2.59,0-5.17,0-7.76,0h-.43c-.23-1-.45-1.95-.69-2.97h.46c2.81,0,5.62,0,8.44,0,1.11,0,1.58-.5,1.56-1.61-.09-5.05-1.94-9.35-5.61-12.82-2.97-2.81-6.53-4.38-10.6-4.74-.12-.01-.24-.05-.37-.07h-1.52c-.73,.36-.94,.97-.93,1.76,.03,2.89,.01,5.77,.01,8.66v.51c-.97-.2-1.91-.4-2.88-.6v-3.27c0-.46,0-.93,0-1.39-.01-.84-.54-1.37-1.39-1.36-4.73,.07-8.93,1.6-12.52,4.68-3.61,3.09-5.84,7.01-6.55,11.71-.89,5.84,.55,11.1,4.34,15.64,2.88,3.46,6.58,5.61,10.98,6.53,.74,.15,1.5,.21,2.25,.32,.12,.02,.24,.05,.36,.08h2.53c.93-.14,1.86-.24,2.78-.43,2.82-.58,5.38-1.78,7.67-3.51,.65-.49,.74-1.24,.25-1.9-.82-1.08-1.65-2.14-2.48-3.21-.13-.17-.25-.33-.35-.47,.76-.91,1.51-1.8,2.27-2.72,.74,.96,1.51,1.95,2.27,2.94,.43,.56,.85,1.12,1.29,1.67,.51,.64,1.25,.74,1.89,.23,3.91-3.12,5.97-7.19,6.16-12.2,.04-.95-.48-1.46-1.44-1.46Zm-12.41,15.77c-5.25,3.57-13.15,3.93-19.24-.58-6.03-4.47-8.42-12.48-5.78-19.51,2.71-7.22,9.36-10.73,14.55-10.94,0,.11,.02,.22,.02,.33,0,1.03,0,2.05,0,3.03-6.21,1.05-10.42,4.41-11.82,10.59-1.24,5.49,.52,10.21,5.02,13.6,4.78,3.6,9.92,3.6,15.17,.78,.67,.87,1.38,1.78,2.08,2.69Zm-9.18-3.26c-6,0-10.89-4.89-10.9-10.91-.01-6.02,4.85-10.91,10.87-10.94,6-.03,10.92,4.9,10.92,10.93,0,6.01-4.89,10.92-10.89,10.92Zm11.22-18.31c-1.1-1.69-2.52-3.05-4.22-4.12-.14-.09-.3-.29-.3-.44-.02-3.01-.01-6.03-.01-9.04,0-.05,.02-.11,.03-.16,6.34,.24,13.34,5.83,13.84,14.02-.15,0-.29,.02-.44,.02-2.77,0-5.54,0-8.31,0-.26,0-.44-.04-.59-.29Zm5,16.69c-.15-.19-.28-.35-.41-.52-.99-1.28-1.98-2.56-2.97-3.84-.16-.21-.2-.38-.13-.65,.29-1.09,.53-2.18,.8-3.33h6.9c-.39,3.29-1.78,6.04-4.19,8.34Zm-14.71-11.28l-2.49-.04c-.21,0-.43-.02-.63-.08-.46-.16-.7-.62-.64-1.12,.06-.47,.44-.86,.94-.88,.7-.03,1.41,0,2.11-.02,.6-.02,1.1,.13,1.54,.56,.46,.45,1.17,.41,1.59-.04,.43-.46,.43-1.15-.04-1.6-.32-.3-.67-.59-1.06-.77-.52-.24-1.09-.36-1.68-.54,0-.25,0-.56,0-.87-.02-.66-.53-1.17-1.15-1.16-.62,.01-1.1,.5-1.12,1.15,0,.31,0,.63,0,.93-.05,.03-.07,.05-.09,.05-.12,.02-.25,.03-.37,.05-1.08,.14-1.92,.66-2.48,1.59-1.34,2.25,.25,4.99,2.93,5.05,.75,.02,1.51-.02,2.26,.02,.28,.01,.6,.12,.82,.29,.34,.27,.42,.67,.27,1.1-.15,.44-.5,.7-1.01,.71-.67,.01-1.33,0-2,0-.55,.01-1.06-.06-1.55-.36-.52-.32-1.18-.11-1.49,.39-.32,.52-.2,1.2,.33,1.53,.39,.24,.82,.43,1.26,.58,.35,.11,.73,.12,1.12,.18,0,.32,0,.62,0,.92,.01,.67,.5,1.17,1.13,1.17,.63,0,1.12-.51,1.14-1.17,0-.3,0-.6,0-.94,.19-.02,.34-.05,.49-.06,1.72-.21,2.95-1.63,2.92-3.38-.03-1.69-1.35-3.12-3.04-3.23Z"/></g></g></g></svg>