<?xml version="1.0" encoding="UTF-8"?><svg id="Layer_2" xmlns="http://www.w3.org/2000/svg" viewBox="0 0 36.07 39.62"><defs><style>.cls-1{fill:#0091ff;}</style></defs><g id="Layer_1-2"><path class="cls-1" d="M32.62,7.42c-3.25-1.87-6.5-3.74-9.74-5.62C21.54,1.03,20.23,.2,18.65,0h-1.24c-1.07,.17-2.05,.54-2.99,1.09C10.75,3.22,7.06,5.33,3.38,7.46,1.14,8.76,.01,10.72,0,13.32c0,4.33,0,8.66,0,13,0,2.58,1.13,4.53,3.35,5.83,3.76,2.19,7.53,4.37,11.32,6.52,.62,.35,1.31,.62,2,.79,1.68,.41,3.27,.06,4.75-.8,3.72-2.15,7.45-4.3,11.18-6.45,2.3-1.33,3.46-3.31,3.45-5.97,0-4.28,0-8.56,0-12.84,0-2.66-1.15-4.65-3.45-5.97Zm-1.47,22.06c-3.76,2.16-7.52,4.33-11.28,6.5-1.23,.71-2.43,.71-3.66,0-3.76-2.17-7.52-4.34-11.28-6.5-1.23-.71-1.84-1.75-1.83-3.17,.01-2.17,0-4.33,0-6.5s0-4.33,0-6.5c0-1.42,.6-2.47,1.83-3.17,3.76-2.16,7.52-4.33,11.28-6.5,1.23-.71,2.43-.71,3.66,0,3.76,2.17,7.52,4.34,11.28,6.5,1.23,.71,1.83,1.75,1.83,3.17,0,4.33,0,8.66,0,13,0,1.42-.6,2.47-1.83,3.17ZM13.01,15.62c-.75-.63-1.49-1.28-2.25-1.89-.52-.42-1.11-.46-1.7-.13-.58,.33-.84,.86-.78,1.52,.04,.5,.34,.84,.71,1.15,1.38,1.16,2.75,2.33,4.17,3.53-.37,.32-.71,.6-1.04,.88-1.07,.91-2.15,1.81-3.22,2.72-.76,.66-.85,1.65-.22,2.32,.61,.65,1.48,.66,2.25,.01,1.82-1.54,3.64-3.08,5.46-4.62,.94-.8,.94-1.83,0-2.63-1.13-.96-2.26-1.92-3.39-2.87Zm13.31,7.52c-1.19-.02-2.37,0-3.56,0h0c-1.1,0-2.19,0-3.29,0-.19,0-.39,0-.57,.05-.74,.19-1.23,.89-1.16,1.62,.09,.82,.71,1.41,1.56,1.42,2.31,.01,4.61,0,6.92,0,.2,0,.41-.05,.6-.13,.67-.27,1.06-.97,.94-1.69-.12-.7-.73-1.26-1.45-1.27Z"/></g></svg>