<?xml version="1.0" encoding="UTF-8"?><svg id="Layer_2" xmlns="http://www.w3.org/2000/svg" viewBox="0 0 40 40"><defs><style>.cls-1{fill:#0091ff;}.cls-2{fill:none;}</style></defs><g id="Layer_1-2"><g><rect class="cls-2" width="40" height="40"/><g><path class="cls-1" d="M22.2,27.56c-.22,0-.36,0-.5,0-3.08,0-6.17,.01-9.25,0-2.54-.01-4.5-2.07-4.41-4.59,.08-2.2,1.87-4.04,4.08-4.21,.1,0,.21-.02,.33-.02,.07-.38,.13-.75,.22-1.12,1.26-5.18,7.25-7.47,11.64-4.44,.2,.14,.36,.18,.61,.11,2.85-.83,5.81,1,6.33,3.93,.04,.24,.13,.32,.36,.36,.8,.16,1.51,.52,2.1,1.09,.17,.16,.31,.21,.55,.16,2.4-.45,4.65,1.03,5.17,3.37,.52,2.33-.94,4.65-3.3,5.22-.39,.09-.8,.12-1.21,.13-2.39,.01-4.78,0-7.16,0h-.48c.19,.43,.35,.83,.53,1.22,.1,.2,.07,.32-.08,.48-.97,.96-1.94,1.92-2.89,2.89-.16,.17-.3,.19-.47,.06-.78-.58-1.46-.5-2.32,0-.97,.57-2.1,.86-3.17,1.23-.29,.1-.46,.21-.54,.52-.1,.39-.26,.76-.39,1.14h-4.68c-.14-.43-.26-.86-.44-1.26-.06-.15-.23-.32-.39-.36-1.47-.35-2.84-.92-4.12-1.7-.13-.08-.37-.08-.52-.03-.34,.13-.66,.33-1,.46-.11,.04-.31,.01-.39-.06-.99-.97-1.97-1.96-2.96-2.94-.15-.15-.17-.28-.05-.44,.59-.79,.49-1.49,0-2.36-.57-.98-.85-2.13-1.23-3.21-.08-.23-.15-.38-.41-.45-.42-.11-.82-.27-1.25-.42,0-1.5,0-2.99,0-4.49,0-.09,.12-.22,.21-.26,.35-.14,.73-.23,1.07-.38,.14-.06,.3-.22,.33-.36,.35-1.48,.93-2.86,1.71-4.16,.08-.13,.07-.37,.01-.53-.16-.4-.37-.78-.55-1.13l3.34-3.34c.36,.18,.75,.39,1.16,.56,.14,.06,.37,.06,.49-.02,1.3-.79,2.68-1.36,4.16-1.72,.15-.04,.31-.21,.38-.36,.17-.4,.29-.81,.43-1.24h4.69c.14,.42,.26,.85,.43,1.25,.06,.15,.23,.33,.38,.37,.49,.11,1,.23,1.5,.23,2.2,.02,4.41,0,6.61,.02,.26,0,.43-.07,.57-.3,.28-.47,.6-.92,.92-1.37,.07-.09,.19-.21,.29-.21,1.1-.01,2.2,0,3.31,0v1.26c-.68,0-1.36,.04-2.03-.01-.57-.05-.92,.12-1.19,.63-.24,.45-.49,1-.89,1.21-.39,.21-.97,.06-1.47,.06-2.28,0-4.57,.02-6.85-.04-.65-.02-1.3-.27-1.94-.45-.08-.02-.14-.2-.18-.31-.14-.35-.17-.84-.43-1.02-.26-.18-.73-.06-1.11-.06-.49,0-.97-.02-1.46,0-.11,0-.3,.13-.32,.23-.15,.92-.67,1.29-1.6,1.45-1.48,.26-2.82,.95-4.06,1.82-.21,.14-.36,.18-.6,.05-.33-.19-.71-.49-1.02-.43-.31,.05-.56,.48-.83,.74-.35,.34-.7,.68-1.02,1.04-.08,.09-.11,.28-.07,.39,.15,.38,.49,.74,.47,1.1-.02,.35-.39,.69-.6,1.03-.76,1.27-1.28,2.64-1.54,4.1-.05,.3-.17,.48-.48,.56-.34,.09-.79,.15-.95,.39-.17,.24-.06,.68-.06,1.03,0,.51-.02,1.02,0,1.53,0,.11,.14,.3,.23,.32,.93,.14,1.28,.68,1.45,1.6,.26,1.48,.96,2.82,1.82,4.06,.14,.21,.18,.37,.05,.6-.18,.33-.48,.71-.43,1.02,.05,.31,.48,.56,.74,.83,.34,.35,.68,.7,1.04,1.02,.09,.08,.28,.11,.39,.07,.38-.15,.74-.49,1.1-.47,.35,.02,.69,.39,1.03,.6,1.28,.77,2.66,1.28,4.14,1.54,.27,.05,.43,.15,.51,.44,.09,.35,.16,.81,.4,.99,.25,.17,.71,.06,1.07,.06,.5,0,1,.02,1.5,0,.11,0,.3-.14,.32-.23,.15-.92,.68-1.28,1.6-1.44,1.47-.26,2.8-.94,4.02-1.8,.26-.18,.46-.19,.7-.03,.09,.06,.19,.09,.28,.14q.67,.33,1.22-.21c.44-.44,.88-.86,1.3-1.32,.09-.09,.13-.31,.08-.43-.37-.97-.38-.93-1.39-.98-.61-.03-1.02,.17-1.47,.59-3.29,3.04-7.14,4.02-11.39,2.6-4.29-1.43-6.89-4.51-7.64-8.98-1.08-6.43,3.58-12.39,10.09-13.03,1.61-.16,3.19,0,4.74,.49,.19,.06,.41,.08,.62,.08,4.7,0,9.39,0,14.09,0h.5v1.26h-.42c-4.81,0-9.63,0-14.44,0-.19,0-.39-.02-.58-.09-4.78-1.66-10.1,.46-12.4,4.95-3.1,6.05,.6,13.39,7.31,14.51,2.96,.49,6.18-.41,8.27-2.37Zm6.64-9.43v5.66h1.21v1.23h-3.72v-1.25h1.21v-5.67h-1.21v-1.25h3.5c-.6-1.98-2.93-3.04-4.91-2.23-.41,.17-.65,.11-.99-.15-1.9-1.47-4.02-1.83-6.26-.92-2.23,.9-3.53,2.6-3.89,4.99-.08,.51-.07,1.03-.11,1.57-.28-.03-.55-.04-.81-.08-1.81-.26-3.5,1.16-3.56,2.99-.06,1.84,1.36,3.28,3.26,3.28,7.48,0,14.96,0,22.43,0,.1,0,.21,0,.31,0,1.77-.1,3.14-1.72,2.94-3.47-.21-1.84-1.91-3.11-3.7-2.76-.35,.07-.69,.2-1.06,.31-.78-1.26-1.94-1.75-3.39-1.63l-.04-.62h-1.22Z"/><path class="cls-1" d="M19.56,34.93l.96-.96c.17,.22,.31,.44,.49,.62,.69,.7,1.4,1.38,2.08,2.09,.22,.22,.43,.32,.75,.32,2.33-.01,4.67,0,7,0h.46v1.24c-.12,0-.24,.02-.37,.02-2.57,0-5.14,0-7.71,0-.19,0-.43-.1-.57-.24-1.03-1-2.04-2.03-3.09-3.08Z"/><path class="cls-1" d="M4.25,2.35c0,1.04-.85,1.91-1.89,1.9-1.03,0-1.88-.85-1.88-1.87,0-1.05,.85-1.9,1.89-1.9,1.03,0,1.88,.84,1.88,1.87Zm-1.89-.61c-.34,0-.62,.29-.62,.63,0,.34,.29,.63,.63,.62,.34,0,.62-.29,.62-.63,0-.34-.29-.62-.63-.62Z"/><path class="cls-1" d="M7.4,.48c1.05,0,1.9,.86,1.89,1.9,0,1.03-.85,1.87-1.88,1.87-1.04,0-1.9-.86-1.89-1.9,0-1.03,.85-1.87,1.88-1.87Zm.63,1.89c0-.34-.28-.63-.62-.63-.34,0-.63,.28-.63,.62,0,.34,.28,.63,.62,.63,.34,0,.63-.28,.63-.62Z"/><path class="cls-1" d="M14.33,2.37c0,1.04-.86,1.9-1.91,1.89-1.03,0-1.87-.86-1.87-1.89,0-1.04,.86-1.9,1.91-1.89,1.03,0,1.87,.86,1.87,1.89Zm-1.26,.02c.01-.34-.27-.63-.61-.64-.34-.01-.63,.27-.64,.61-.01,.34,.27,.63,.61,.65,.34,.01,.63-.27,.65-.61Z"/><path class="cls-1" d="M19.37,2.36c0,1.04-.85,1.9-1.9,1.9-1.03,0-1.87-.85-1.88-1.88,0-1.05,.85-1.9,1.9-1.9,1.03,0,1.87,.85,1.88,1.88Zm-1.9-.62c-.34,0-.62,.3-.61,.64,0,.34,.3,.62,.64,.61,.34,0,.62-.3,.61-.64,0-.34-.3-.62-.64-.61Z"/><path class="cls-1" d="M35.12,7.41c-1.04,0-1.9-.85-1.9-1.9,0-1.03,.85-1.87,1.88-1.88,1.05,0,1.9,.85,1.9,1.9,0,1.03-.85,1.87-1.88,1.88Zm.62-1.88c0-.34-.28-.63-.62-.63-.34,0-.63,.28-.63,.62,0,.34,.28,.63,.62,.63,.34,0,.63-.28,.63-.62Z"/><path class="cls-1" d="M39.52,9.92c0,1.04-.86,1.9-1.91,1.89-1.03,0-1.87-.86-1.87-1.89,0-1.04,.86-1.9,1.91-1.89,1.03,0,1.87,.86,1.87,1.89Zm-1.89-.63c-.34,0-.63,.28-.63,.62,0,.34,.28,.63,.62,.63,.34,0,.63-.28,.63-.63,0-.34-.28-.63-.63-.63Z"/><path class="cls-1" d="M37.62,31.33c1.05,0,1.9,.85,1.9,1.89,0,1.03-.85,1.87-1.88,1.88-1.04,0-1.9-.85-1.9-1.9,0-1.03,.85-1.87,1.88-1.88Zm.02,2.51c.34,0,.62-.29,.62-.63,0-.34-.29-.62-.63-.62-.34,0-.62,.29-.62,.63,0,.34,.29,.62,.63,.62Z"/><path class="cls-1" d="M34.47,39.52c-1.04,0-1.89-.87-1.88-1.92,.01-1.03,.87-1.86,1.9-1.86,1.04,0,1.89,.87,1.88,1.91-.01,1.03-.87,1.86-1.9,1.86Zm.63-1.88c0-.34-.28-.63-.62-.64-.34,0-.63,.28-.64,.62,0,.34,.28,.63,.62,.64,.34,0,.63-.28,.64-.62Z"/><path class="cls-1" d="M34.46,32.62v1.21h-7.51v-1.21h7.51Z"/><path class="cls-1" d="M16.21,25.03h-1.22c-.01-.08-.03-.15-.03-.23,0-1.82-.01-3.65,0-5.47,.01-1.25,.93-2.27,2.18-2.46,1.17-.18,2.35,.56,2.73,1.72,.06,.17,.11,.36,.12,.54,0,1.95,0,3.9,0,5.88h-1.24v-2.46h-2.54v2.48Zm2.53-3.79c0-.61,0-1.17,0-1.73,0-.07,0-.13,0-.2-.04-.63-.53-1.14-1.15-1.2-.62-.05-1.25,.36-1.32,.98-.07,.71-.02,1.43-.02,2.14h2.49Z"/><path class="cls-1" d="M22.52,21.89v3.13h-1.23v-8.16c.21,0,.42,0,.64,0,.8,.02,1.61-.04,2.39,.08,1.24,.2,2.07,1.39,1.97,2.65-.1,1.26-1.16,2.26-2.43,2.3-.43,.01-.86,0-1.34,0Zm.02-1.26c.46,0,.88,.01,1.3,0,.65-.03,1.17-.55,1.2-1.18,.03-.62-.4-1.22-1.02-1.3-.48-.06-.98-.01-1.48-.01v2.49Z"/></g></g></g></svg>