<?xml version="1.0" encoding="UTF-8"?><svg id="Layer_2" xmlns="http://www.w3.org/2000/svg" viewBox="0 0 40 40"><defs><style>.cls-1{fill:#0091ff;}.cls-2{fill:none;}</style></defs><g id="Layer_1-2"><g><rect class="cls-2" width="40" height="40"/><g><path class="cls-1" d="M24.07,25.5c.18-.59-.04-.95-.42-1.3-.61-.56-1.18-1.16-1.77-1.75-.63-.63-.67-1.45-.11-2.02,.57-.59,1.4-.55,2.05,.08,.07,.07,.12,.16,.27,.2v-2.08h-.43c-2.52,0-5.04-.04-7.56,0-2.87,.05-3.06-.16-2.97-3,.01-.36,0-.71,0-1.13h-.47c-2.52,0-5.04,0-7.56,0-2.58,0-4.33-1.76-4.34-4.35,0-1.7,0-3.41,0-5.11,0-2.5,1.78-4.28,4.27-4.28,6.31,0,12.62,0,18.94,0,2.5,0,4.27,1.78,4.28,4.27,0,1.73,0,3.46,0,5.2,0,2.49-1.78,4.27-4.28,4.27-2.52,0-5.04,0-7.56,0h-.5v1.37h.46c2.96,0,5.93,0,8.89,0,1.08,0,1.61,.52,1.61,1.6,0,1.07,0,2.14,0,3.29,.16-.14,.26-.22,.35-.32,.61-.58,1.44-.6,1.99-.04,.55,.56,.53,1.39-.06,1.99-.62,.63-1.25,1.26-1.88,1.88q-.46,.46-.36,1.21h.45c2.52,0,5.04,0,7.56,0,2.55,0,4.31,1.77,4.31,4.32,0,1.7,0,3.41,0,5.11,0,2.55-1.77,4.31-4.33,4.31-6.27,0-12.54,0-18.81,0-2.58,0-4.34-1.76-4.34-4.34,0-1.7,0-3.41,0-5.11,0-2.52,1.78-4.29,4.3-4.29,2.52,0,5.04,0,7.56,0h.45ZM14.5,11.76c3.15,0,6.3,0,9.45,0,1,0,1.55-.54,1.55-1.53,0-1.72,0-3.43,0-5.15,0-1.02-.54-1.56-1.57-1.56-6.28,0-12.57,0-18.85,0-1.04,0-1.57,.54-1.57,1.6,0,1.67,0,3.35,0,5.02,0,1.11,.52,1.62,1.63,1.63,3.12,0,6.24,0,9.36,0Zm10.98,16.49c-3.15,0-6.3,0-9.45,0-.99,0-1.53,.55-1.53,1.55,0,1.72,0,3.43,0,5.15,0,.99,.55,1.55,1.54,1.55,6.3,0,12.59,0,18.89,0,1.02,0,1.56-.54,1.56-1.57,0-1.69,0-3.38,0-5.07,0-1.08-.53-1.61-1.6-1.61-3.13,0-6.27,0-9.4,0Z"/><path class="cls-1" d="M13.13,7.61c0-.46-.01-.92,0-1.37,.02-.77,.63-1.36,1.38-1.35,.73,0,1.34,.58,1.36,1.33,.02,.94,.02,1.89,0,2.83-.02,.75-.63,1.33-1.36,1.33-.75,0-1.36-.58-1.38-1.35-.01-.47,0-.94,0-1.42Z"/><path class="cls-1" d="M20,7.64c0,.46,.01,.92,0,1.37-.02,.77-.62,1.36-1.37,1.36-.75,0-1.36-.59-1.37-1.36-.01-.93-.02-1.86,0-2.79,.01-.77,.64-1.35,1.39-1.34,.73,0,1.33,.59,1.35,1.34,.02,.47,0,.94,0,1.42Z"/><path class="cls-1" d="M21.37,7.61c0-.44,0-.89,0-1.33,.02-.8,.61-1.4,1.38-1.4,.75,0,1.35,.59,1.36,1.37,.01,.92,.01,1.83,0,2.75-.01,.78-.61,1.37-1.36,1.38-.76,0-1.37-.59-1.39-1.39,0-.46,0-.92,0-1.37Z"/><path class="cls-1" d="M26.87,32.36c0,.46,0,.92,0,1.37-.02,.78-.61,1.37-1.36,1.38-.76,0-1.37-.6-1.38-1.39-.01-.9-.01-1.8,0-2.7,0-.8,.61-1.4,1.38-1.4,.76,0,1.35,.61,1.36,1.41,0,.44,0,.89,0,1.33Z"/><path class="cls-1" d="M30.99,32.38c0,.46,.01,.92,0,1.37-.02,.77-.62,1.36-1.37,1.36-.75,0-1.36-.59-1.37-1.36-.01-.93-.02-1.86,0-2.79,.01-.75,.61-1.33,1.35-1.34,.75-.01,1.36,.57,1.39,1.34,.02,.47,0,.94,0,1.42Z"/><path class="cls-1" d="M35.11,32.38c0,.46,.01,.92,0,1.37-.02,.77-.62,1.36-1.37,1.36-.75,0-1.36-.59-1.37-1.36-.01-.93-.02-1.86,0-2.79,.01-.75,.61-1.33,1.35-1.34,.75-.01,1.37,.57,1.39,1.34,.02,.47,0,.94,0,1.42Z"/></g></g></g></svg>