<?xml version="1.0" encoding="UTF-8"?><svg id="Layer_2" xmlns="http://www.w3.org/2000/svg" viewBox="0 0 48 48"><defs><style>.cls-1{fill:none;}.cls-2{fill:#b3b3b3;stroke:#b3b3b3;stroke-miterlimit:10;stroke-width:.6px;}</style></defs><g id="Layer_1-2"><g><rect class="cls-1" width="48" height="48"/><g><path class="cls-2" d="M47.41,40.92c-.17,.36-.4,.64-.84,.67-.6,.04-.99-.35-.99-1.04,0-2.27,0-4.54,0-6.81,0-1.2-.43-1.63-1.61-1.63-3.46,0-6.92,0-10.37,0-1.18,0-1.62,.45-1.62,1.64,0,3.15,0,6.31,0,9.46,0,1.12,.46,1.59,1.58,1.59,2.54,0,5.09,0,7.63,0,.76,0,1.14,.33,1.13,.95-.01,.45-.29,.78-.74,.85-.16,.03-.33,.03-.5,.03-2.5,0-5,0-7.5,0-2.17,0-3.43-1.27-3.43-3.44,0-3.17,.03-6.34-.01-9.51-.03-1.99,1.42-3.46,3.43-3.42,3.35,.06,6.7,.06,10.05,0,1.77-.03,3.2,.52,3.79,2.61v8.05Z"/><path class="cls-2" d="M47.41,10.1c-.06,.31-.12,.62-.19,.93-.81,3.94-4.37,6.73-8.51,6.66-3.92-.07-7.39-3.06-8.05-6.94-.66-3.91,1.31-7.66,4.83-9.17,3.62-1.56,7.94-.48,10.21,2.54,.91,1.21,1.4,2.58,1.61,4.07,.02,.15,.06,.29,.09,.44v1.46Zm-8.46-7.44c-3.61,.01-6.58,2.95-6.59,6.52-.01,3.77,2.86,6.66,6.61,6.66,3.76,0,6.61-2.87,6.61-6.65,0-3.58-3-6.53-6.63-6.52Z"/><path class="cls-2" d="M5.4,8.7c-1.06-1.68-1.1-3.46-.45-5.24,.65-1.78,2.51-2.79,4.49-2.58,1.94,.2,3.47,1.6,3.76,3.49,.23,1.5,.22,2.98-.75,4.32,.26,.07,.47,.13,.69,.19,2.37,.73,4,2.84,4.08,5.33,.03,.91,.01,1.83,0,2.74,0,.72-.35,1.07-1.07,1.07-1.37,0-2.74,0-4.11,0-3.38,0-6.76,0-10.15,0-.95,0-1.25-.28-1.24-1.21,.01-1.11-.09-2.24,.09-3.33,.4-2.46,1.89-4.01,4.3-4.68,.11-.03,.23-.06,.35-.1Zm9.99,7.47c0-.69,.03-1.36,0-2.02-.13-2.08-1.8-3.66-3.87-3.68-1.72-.01-3.44,0-5.16,0-.85,0-1.62,.26-2.29,.78-1.63,1.28-1.7,2.73-1.49,4.92h1.78c0-.58,0-1.13,0-1.67,0-.76,.32-1.17,.9-1.18,.59,0,.92,.41,.92,1.16,0,.56,0,1.12,0,1.69h5.56c0-.36,0-.68,0-1,0-.32-.01-.64,0-.96,.04-.71,.75-1.1,1.35-.76,.36,.2,.47,.54,.47,.93,0,.6,0,1.2,0,1.81h1.83Zm-3.89-10.51s-.02,0-.03,0c0-.2,.01-.4,0-.59-.09-1.29-1.02-2.27-2.24-2.37-1.36-.11-2.47,.63-2.73,1.9-.11,.56-.1,1.15-.06,1.73,.1,1.33,1.06,2.23,2.4,2.3,1.25,.07,2.31-.75,2.57-2.01,.06-.31,.07-.63,.1-.95Z"/><path class="cls-2" d="M17.37,36.15c-.19,.41-.37,.87-.6,1.3-.1,.19-.3,.34-.46,.5-.49,.51-.5,.52,0,1,.62,.6,1.1,1.24,.94,2.16-.05,.28-.14,.56-.28,.81-.31,.59-.66,1.17-1,1.74-.54,.92-1.41,1.27-2.46,1.02q-1.13-.27-1.47,.86c-.31,1.03-1.05,1.59-2.12,1.6-.65,0-1.31,0-1.96,0-1.06,0-1.82-.59-2.13-1.6q-.34-1.13-1.46-.86c-1.04,.25-1.92-.12-2.46-1.02-.34-.58-.68-1.15-1-1.74-.51-.91-.38-1.85,.33-2.6q.82-.87,0-1.73c-.71-.76-.84-1.7-.34-2.6,.33-.58,.66-1.16,1-1.74,.55-.92,1.41-1.28,2.45-1.03q1.13,.27,1.47-.85c.31-1.03,1.08-1.6,2.17-1.6,.65,0,1.31,0,1.96,0,1.01,0,1.77,.58,2.07,1.55,.08,.25,.16,.49,.21,.75,.07,.36,.28,.41,.6,.34,2.08-.47,2.48-.29,3.54,1.55,.2,.36,.43,.7,.6,1.07,.15,.32,.24,.68,.39,1.13Zm-12.24,6.49c1.13,0,1.9,.59,2.2,1.51q.38,1.17,1.61,1.17t1.61-1.18c.36-1.12,1.4-1.71,2.55-1.44q1.16,.27,1.76-.76,.63-1.1-.21-2.06c-.76-.86-.75-2,.01-2.86q.83-.93,.21-2.02-.6-1.04-1.79-.78c-1.14,.25-2.16-.33-2.53-1.42-.13-.39-.16-.92-.44-1.11-.3-.2-.82-.09-1.24-.09-1.17,0-1.17,0-1.54,1.14-.36,1.15-1.4,1.74-2.58,1.47-1.15-.26-1.16-.27-1.75,.77-.21,.37-.57,.76-.54,1.12,.03,.33,.48,.62,.75,.93,.76,.86,.75,2.01-.01,2.86-.19,.22-.39,.43-.61,.62-.2,.19-.22,.37-.08,.6,.3,.49,.6,.99,.87,1.5,.16,.3,.35,.36,.67,.27,.41-.12,.83-.19,1.06-.24Z"/><path class="cls-2" d="M25.02,37.43c-.27-.26-.55-.51-.81-.78-.41-.43-.43-.97-.07-1.34,.36-.37,.92-.37,1.34,.04,.81,.79,1.6,1.58,2.39,2.39,.46,.47,.45,.96-.02,1.44-.77,.78-1.54,1.56-2.33,2.33-.44,.44-1,.46-1.38,.09-.38-.38-.35-.93,.08-1.38,.24-.25,.49-.5,.73-.75,0,0,.01-.03,.03-.08-.14-.01-.27-.03-.39-.03-1.31,0-2.62,0-3.93,0-.68,0-1.08-.33-1.08-.9,0-.57,.39-.92,1.06-.92,1.43,0,2.86,0,4.29,0,.03-.04,.05-.07,.08-.11Z"/><path class="cls-2" d="M24.95,10.23c-.16,0-.32,0-.49,0-1.31,0-2.62,0-3.93,0-.59,0-.95-.37-.95-.89,0-.54,.36-.9,.97-.93,.12,0,.24,0,.37,0,1.17,0,2.35,0,3.52,0,.17,0,.33,0,.64,0-.32-.33-.56-.56-.79-.8-.48-.49-.54-1.05-.14-1.44,.4-.39,.92-.35,1.41,.13,.76,.75,1.51,1.5,2.26,2.26,.53,.53,.53,1,0,1.54-.75,.76-1.5,1.51-2.26,2.26-.48,.47-1.01,.51-1.41,.11-.38-.38-.33-.94,.13-1.41,.24-.24,.49-.48,.74-.72-.02-.04-.04-.07-.05-.11Z"/><path class="cls-2" d="M37.81,24.58c0-1.17,0-2.34,0-3.5,0-.39,.1-.72,.45-.94,.62-.38,1.36,.06,1.37,.82,.02,1.2,0,2.4,0,3.73,.32-.31,.57-.55,.82-.79,.48-.46,1.02-.52,1.41-.14,.4,.39,.36,.95-.13,1.44-.74,.75-1.48,1.49-2.23,2.23-.55,.54-1.02,.54-1.58-.01-.75-.74-1.49-1.48-2.23-2.23-.47-.47-.52-1.01-.14-1.41,.39-.41,.95-.36,1.44,.13,.24,.24,.45,.49,.67,.74,.04-.02,.08-.05,.13-.07Z"/><path class="cls-2" d="M10.12,24.63c.26-.28,.51-.57,.78-.83,.4-.38,.95-.38,1.31-.03,.36,.36,.37,.9-.02,1.31-.81,.83-1.63,1.65-2.46,2.46-.42,.41-.92,.41-1.34,0-.83-.81-1.65-1.63-2.46-2.46-.39-.4-.39-.95-.02-1.31,.36-.36,.91-.36,1.31,.03,.28,.27,.52,.59,.78,.88,.05-.03,.1-.06,.16-.09,0-.24,0-.47,0-.71,0-.96,0-1.92,0-2.88,0-.59,.38-1,.89-1,.52,0,.92,.39,.93,.98,.02,1.05,0,2.1,0,3.15,0,.15,.01,.29,.02,.44,.04,.02,.07,.03,.11,.05Z"/><path class="cls-2" d="M38.68,35.14c1,0,2.01,0,3.01,0,.66,0,1.04,.33,1.05,.88,.01,.57-.39,.94-1.05,.94-2.04,0-4.08,.01-6.12,0-.77,0-1.2-.58-.97-1.23,.16-.43,.49-.59,.93-.59,1.05,0,2.1,0,3.15,0Z"/><path class="cls-2" d="M37.15,39.8c.53,0,1.07-.01,1.6,0,.58,.02,.94,.38,.94,.9,0,.52-.35,.9-.93,.91-1.1,.02-2.19,.02-3.29,0-.57-.01-.94-.42-.92-.93,.01-.52,.38-.87,.96-.89,.55-.01,1.1,0,1.64,0Z"/><path class="cls-2" d="M45.83,46.02c-.5,0-.93-.44-.92-.94,.01-.5,.41-.88,.92-.87,.51,0,.89,.4,.89,.9,0,.5-.41,.91-.89,.91Z"/><path class="cls-2" d="M37.93,9.95c1.09-1.1,2.13-2.13,3.15-3.17,.28-.28,.58-.43,.98-.34,.7,.15,.93,.99,.4,1.55-.59,.62-1.2,1.21-1.8,1.81-.66,.66-1.31,1.32-1.97,1.97-.51,.5-.97,.5-1.47,0-.58-.56-1.14-1.14-1.71-1.71-.44-.45-.47-.99-.09-1.37,.38-.38,.93-.36,1.38,.08,.38,.37,.74,.77,1.14,1.18Z"/><path class="cls-2" d="M12.21,38.45c-.02,1.86-1.44,3.28-3.29,3.26-1.85-.01-3.26-1.44-3.25-3.3,0-1.77,1.51-3.25,3.29-3.24,1.79,.01,3.27,1.5,3.25,3.27Zm-1.83,0c0-.82-.64-1.44-1.45-1.43-.81,0-1.44,.65-1.43,1.46,0,.77,.66,1.42,1.43,1.42,.79,0,1.46-.67,1.45-1.45Z"/></g></g></g></svg>