<svg xmlns="http://www.w3.org/2000/svg" viewBox="0 0 40 40"><defs><style>.cls-1{fill:none;}.cls-2{fill:#fff;}</style></defs><g id="Layer_2" data-name="Layer 2"><g id="Layer_1-2" data-name="Layer 1"><rect class="cls-1" width="40" height="40"/><path class="cls-2" d="M38,6.75V28.69a.41.41,0,0,0,0,.09,3.25,3.25,0,0,1-3.5,2.72H24.27l.79,4.72.1,0h1.23a1.08,1.08,0,1,1,0,2.16H12.67a1.09,1.09,0,0,1-1.15-1.08,1.1,1.1,0,0,1,1.15-1.08H14l.8-4.76H4.35a3.26,3.26,0,0,1-3.13-2.23c-.06-.19-.11-.39-.16-.58V6.75a1,1,0,0,0,0-.1A3.27,3.27,0,0,1,4.68,3.94H28.11c2.21,0,4.42,0,6.63,0a3.13,3.13,0,0,1,3,1.93A6.48,6.48,0,0,1,38,6.75ZM20.61,6.1V7.22a1.09,1.09,0,1,1-2.16,0V6.1H4.51c-.88,0-1.29.41-1.29,1.31V28c0,.89.41,1.29,1.31,1.29q15,0,30,0c.9,0,1.31-.4,1.31-1.29V7.41c0-.91-.41-1.31-1.33-1.31H20.61Zm1.46,25.4H17.18c-.09,0-.22.16-.24.27-.18,1-.34,2-.5,2.94l-.24,1.52h6.67Z"/><path class="cls-2" d="M33.31,17.71A6.28,6.28,0,1,1,27,11.44,6.29,6.29,0,0,1,33.31,17.71Zm-9.84,2c.81-.8,1.6-1.59,2.38-2.38a.32.32,0,0,0,.1-.22V13.79A4.06,4.06,0,0,0,23.47,19.74ZM31,18.8H27.64a.36.36,0,0,0-.23.08L25,21.27A4.07,4.07,0,0,0,31,18.8Zm-2.84-2.18H31a3.89,3.89,0,0,0-2.83-2.83Z"/><path class="cls-2" d="M7.91,22.39h2.46V22c0-2.18,0-4.36,0-6.53a1.08,1.08,0,0,1,1.61-1,1.12,1.12,0,0,1,.55,1.06v6.86H15V19a1.09,1.09,0,1,1,2.17,0v4.4A1.09,1.09,0,0,1,16,24.57h-9a1.09,1.09,0,0,1-1.19-1.18V12.06a1.09,1.09,0,1,1,2.16,0V22.39Z"/></g></g></svg>