<svg xmlns="http://www.w3.org/2000/svg" viewBox="0 0 40 40"><defs><style>.cls-1{fill:none;}.cls-2{fill:#fff;}</style></defs><g id="Layer_2" data-name="Layer 2"><g id="Layer_1-2" data-name="Layer 1"><rect class="cls-1" width="40" height="40"/><path class="cls-2" d="M.94,25.36c.07-.56.13-1.13.2-1.69A42.59,42.59,0,0,1,4.06,12.92,23,23,0,0,1,6.64,8,9.2,9.2,0,0,1,7.55,7a2.81,2.81,0,0,1,2.12-.9c1.08,0,2.16-.06,3.23,0a3.57,3.57,0,0,1,3.31,2,.43.43,0,0,0,.33.21h6.88a.4.4,0,0,0,.29-.15A3.87,3.87,0,0,1,27.65,6l2.93.08a2.68,2.68,0,0,1,1.77.85,10.6,10.6,0,0,1,2,2.72A41.6,41.6,0,0,1,38.26,20.5,26.43,26.43,0,0,1,39,27a9.85,9.85,0,0,1-.66,3.56,4.19,4.19,0,0,1-4.48,2.82,5.45,5.45,0,0,1-2.69-1.26A21.59,21.59,0,0,1,27,27.33c-.25-.36-.48-.75-.74-1.11a.49.49,0,0,0-.34-.19Q20,26,14.07,26a.61.61,0,0,0-.41.28A29.88,29.88,0,0,1,10,31,9.34,9.34,0,0,1,7.48,33,4.13,4.13,0,0,1,2,31.31,8.19,8.19,0,0,1,1,28a3.35,3.35,0,0,0-.07-.44Zm10.32-17v0c-.47,0-.94,0-1.41,0a.84.84,0,0,0-.75.33,22.53,22.53,0,0,0-1.38,2,36.2,36.2,0,0,0-3.28,8.45,27.84,27.84,0,0,0-1.11,7.7A6.49,6.49,0,0,0,4,30a1.71,1.71,0,0,0,2.49.75,7.1,7.1,0,0,0,1.35-1A23.49,23.49,0,0,0,12,24.42a1.47,1.47,0,0,1,1.39-.79q6.59,0,13.16,0a1.55,1.55,0,0,1,1.4.79c1,1.42,2,2.82,3,4.19a7.43,7.43,0,0,0,2.28,2,2.81,2.81,0,0,0,1.18.37,1.74,1.74,0,0,0,1.67-1.25,7.26,7.26,0,0,0,.53-2.8,23.54,23.54,0,0,0-.52-5.16,38.87,38.87,0,0,0-3.87-11,16.19,16.19,0,0,0-1.44-2.06.92.92,0,0,0-.64-.28c-.83,0-1.66-.07-2.49-.08-1.37,0-1.71.24-2.1,1.55a7.86,7.86,0,0,1-1.11,2.34,5.39,5.39,0,0,1-5.72,2.24,5.8,5.8,0,0,1-4-3.66c-.21-.5-.35-1-.54-1.54a1.29,1.29,0,0,0-1.24-.9Zm6,2.26a3.06,3.06,0,0,0,5.39,0Z"/><path class="cls-2" d="M10,16.59c0-.51,0-1,0-1.42a1.19,1.19,0,1,1,2.37,0c0,.46,0,.91,0,1.43.51,0,1,0,1.49,0A1.18,1.18,0,0,1,15,18.16a1.2,1.2,0,0,1-1.1.81c-.49,0-1,0-1.53,0,0,.52,0,1,0,1.48a1.19,1.19,0,0,1-2,.89A1.22,1.22,0,0,1,10,20.4c0-.46,0-.93,0-1.43-.51,0-1,0-1.42,0a1.21,1.21,0,0,1-1.28-1.2,1.22,1.22,0,0,1,1.28-1.18Z"/><path class="cls-2" d="M30,15.22a1.2,1.2,0,1,1-2.38,0,1.21,1.21,0,0,1,1.19-1.33A1.2,1.2,0,0,1,30,15.22Z"/><path class="cls-2" d="M26.24,19A1.22,1.22,0,0,1,25,18.13a1.17,1.17,0,0,1,.48-1.33,1.57,1.57,0,0,1,1.68.05,1.2,1.2,0,0,1,.37,1.37A1.22,1.22,0,0,1,26.24,19Z"/><path class="cls-2" d="M31.34,19a1.25,1.25,0,0,1-1.33-.9,1.21,1.21,0,0,1,.7-1.38,1.49,1.49,0,0,1,1.72.39,1.2,1.2,0,0,1-.07,1.48A1.18,1.18,0,0,1,31.34,19Z"/><path class="cls-2" d="M30,20.34a1.2,1.2,0,1,1-2.38,0A1.23,1.23,0,0,1,28.79,19,1.22,1.22,0,0,1,30,20.34Z"/></g></g></svg>