<svg xmlns="http://www.w3.org/2000/svg" viewBox="0 0 40 40"><defs><style>.cls-1{fill:none;}.cls-2{fill:#fff;}</style></defs><g id="Layer_2" data-name="Layer 2"><g id="Layer_1-2" data-name="Layer 1"><rect class="cls-1" width="40" height="40"/><path class="cls-2" d="M16.17,2h.9a5,5,0,0,1,1.85.83c.33.23.68.41,1,.65a.88.88,0,0,0,1.14,0A8.21,8.21,0,0,1,23.89,2h.9a.29.29,0,0,0,.13,0A3.42,3.42,0,0,1,27.44,4c.25.5.52,1,.76,1.49a.79.79,0,0,0,.86.49c.55,0,1.11-.06,1.66-.09a3.4,3.4,0,0,1,3.69,3.69c0,.54,0,1.09-.08,1.63a.8.8,0,0,0,.52.91c.5.23,1,.51,1.48.76A3.46,3.46,0,0,1,38,14.7c.1.26.17.53.25.79v.91a5.34,5.34,0,0,1-.84,1.85c-.23.33-.42.69-.66,1a.83.83,0,0,0,0,1.07,8.58,8.58,0,0,1,1.5,2.87v.91a.67.67,0,0,0-.06.12,3.43,3.43,0,0,1-2,2.54c-.47.23-.92.5-1.39.71a.86.86,0,0,0-.55,1c.05.56.07,1.13.09,1.7a3.4,3.4,0,0,1-3.63,3.58L29,33.65a.76.76,0,0,0-.81.47c-.3.61-.61,1.22-.95,1.81a3.36,3.36,0,0,1-4.59,1.23c-.59-.34-1.15-.71-1.71-1.08a.75.75,0,0,0-.95,0c-.48.33-1,.63-1.46.94a3.4,3.4,0,0,1-5-1.34c-.27-.52-.54-1-.79-1.55a.78.78,0,0,0-.84-.48l-1.7.09a3.4,3.4,0,0,1-3.67-3.67c0-.59,0-1.18.08-1.77a.72.72,0,0,0-.41-.74c-.53-.26-1-.54-1.58-.81a3.4,3.4,0,0,1-1.37-5c.31-.49.61-1,.94-1.46a.75.75,0,0,0,0-1c-.33-.5-.66-1-1-1.52a3.39,3.39,0,0,1,1.33-4.9c.52-.27,1-.56,1.58-.81a.79.79,0,0,0,.49-.86q-.06-.9-.09-1.8a3.39,3.39,0,0,1,3.59-3.56c.58,0,1.16,0,1.73.09a.83.83,0,0,0,.92-.52,12.29,12.29,0,0,1,.59-1.14,8.53,8.53,0,0,1,.72-1.15A3.55,3.55,0,0,1,16.17,2ZM29.82,30.85v.09c.18,0,.35,0,.52,0l.53,0c.54,0,.79-.22.76-.77s-.07-1.23-.08-1.84a3.37,3.37,0,0,1,1.88-3.24c.54-.29,1.1-.56,1.64-.85a.63.63,0,0,0,.28-1c-.32-.51-.66-1-1-1.53a3.36,3.36,0,0,1,0-3.82c.29-.47.6-.94.9-1.41s.29-.88-.31-1.19-1.08-.54-1.61-.83a3.16,3.16,0,0,1-1.75-2.52,20.7,20.7,0,0,1,0-2.49c0-.58-.21-.82-.78-.8s-1.18.07-1.77.08a3.38,3.38,0,0,1-3.31-1.92c-.26-.48-.5-1-.75-1.45-.35-.66-.62-.73-1.23-.34s-.95.62-1.44.92a3.37,3.37,0,0,1-3.74,0c-.52-.32-1-.66-1.55-1a.64.64,0,0,0-1,.29L15.15,6.9a3.17,3.17,0,0,1-2.54,1.78,21.36,21.36,0,0,1-2.53,0c-.53,0-.78.23-.75.76s.07,1.22.08,1.84a3.39,3.39,0,0,1-1.9,3.26c-.54.29-1.09.56-1.63.84a.63.63,0,0,0-.27,1c.31.5.64,1,.95,1.49a3.41,3.41,0,0,1,0,3.92c-.31.48-.62.95-.92,1.43s-.23.81.28,1.08,1.16.58,1.72.9a3.11,3.11,0,0,1,1.71,2.47,21.36,21.36,0,0,1,0,2.53c0,.56.21.8.76.78s1.2-.07,1.81-.08a3.39,3.39,0,0,1,3.29,1.9L16,34.29c.3.6.6.68,1.16.33l1.43-.92a3.39,3.39,0,0,1,3.83,0l1.49.95c.49.31.81.22,1.08-.29s.58-1.14.88-1.69A3.17,3.17,0,0,1,28,31,13.23,13.23,0,0,1,29.82,30.85Z"/><path class="cls-2" d="M26.56,11.53l-.19.37-8.65,16a.51.51,0,0,1-.53.32c-.91,0-1.82,0-2.78,0,.07-.15.12-.26.18-.37l8.65-16a.51.51,0,0,1,.53-.32C24.68,11.54,25.59,11.53,26.56,11.53Z"/><path class="cls-2" d="M18.88,15a4.18,4.18,0,1,1-4.18-4.18A4.2,4.2,0,0,1,18.88,15ZM14.7,16.4A1.41,1.41,0,0,0,16.1,15a1.39,1.39,0,1,0-1.4,1.39Z"/><path class="cls-2" d="M26.19,20.57A4.18,4.18,0,1,1,22,24.74,4.19,4.19,0,0,1,26.19,20.57Zm0,5.56a1.38,1.38,0,0,0,1.38-1.39,1.39,1.39,0,1,0-1.38,1.39Z"/></g></g></svg>