<svg xmlns="http://www.w3.org/2000/svg" viewBox="0 0 39.86 39.86"><defs><style>.cls-1{fill:none;}.cls-2{fill:#fff;}</style></defs><g id="Layer_2" data-name="Layer 2"><g id="Layer_1-2" data-name="Layer 1"><rect class="cls-1" width="39.86" height="39.86"/><path class="cls-2" d="M8.37.55H24.16a.19.19,0,0,0,.1,0,4.81,4.81,0,0,1,4.09,5c-.05,1.41,0,2.83,0,4.24,0,.13,0,.26,0,.42h3.4a4.81,4.81,0,0,1,1,.07A3.56,3.56,0,0,1,35.63,14c0,4.9,0,9.81,0,14.71,0,.69,0,1.37,0,2.05a3.58,3.58,0,0,1-3.7,3.7H28.76l-.41,0c0,.14,0,.23,0,.33a4.76,4.76,0,0,1-3.45,4.32c-.23.07-.48.12-.72.18H8.45L8,39.19a4.79,4.79,0,0,1-3.75-4.78v-20c0-3,0-6,0-9a4.65,4.65,0,0,1,2.5-4.25A11,11,0,0,1,8.37.55Zm3,16.75s0,0,0,.09q0,6.72,0,13.43a1.81,1.81,0,0,0,.37.95,1.29,1.29,0,0,0,1.13.41H32.16a1.21,1.21,0,0,0,1.16-1.07c.06-.89,0-1.8,0-2.75h-.46c-1.59,0-3.18,0-4.76,0a3.53,3.53,0,0,1-3.24-3.81,3.56,3.56,0,0,1,3.58-3.3H33l.41,0c0-.76,0-1.48,0-2.2a1.42,1.42,0,0,0-1.59-1.59c-6.06,0-12.11,0-18.17,0C12.88,17.42,12.15,17.35,11.36,17.3ZM26,34.45H12.94a4.88,4.88,0,0,1-1.08-.1,3.55,3.55,0,0,1-2.77-3.66q0-8.33,0-16.65a4.85,4.85,0,0,1,.18-1.26,3.51,3.51,0,0,1,3.57-2.48H26.06c0-.17,0-.28,0-.39,0-1.45,0-2.9,0-4.35a2.51,2.51,0,0,0-2.7-2.72H9.24A2.54,2.54,0,0,0,6.49,5.58V34.26A2.54,2.54,0,0,0,9.27,37H23.73A2.44,2.44,0,0,0,26,34.45Zm7.34-19.19V14.18c0-1.17-.46-1.63-1.62-1.63H13a4,4,0,0,0-.49,0,1.25,1.25,0,0,0-1.08,1.05,1.31,1.31,0,0,0,1.44,1.52H31C31.79,15.16,32.56,15.22,33.37,15.26Zm0,8.25-.31,0H28.54a1.32,1.32,0,0,0-1.41,1.3,1.3,1.3,0,0,0,1.41,1.29c1.5,0,3,0,4.49,0l.31,0Z"/><path class="cls-2" d="M16.26,7.68c-.4,0-.81,0-1.21,0a1.1,1.1,0,0,1-1.09-1,1,1,0,0,1,.95-1.19,21,21,0,0,1,2.75,0,1.05,1.05,0,0,1,1,1.18,1.1,1.1,0,0,1-1.13,1C17.09,7.69,16.67,7.68,16.26,7.68Z"/></g></g></svg>