<?xml version="1.0" encoding="UTF-8"?>
<svg id="Layer_2" data-name="Layer 2" xmlns="http://www.w3.org/2000/svg" viewBox="0 0 40 40">
  <defs>
    <style>
      .cls-1, .cls-2 {
        fill: #0091ff;
      }

      .cls-2 {
        stroke: #0091ff;
        stroke-miterlimit: 10;
      }

      .cls-3 {
        fill: none;
      }
    </style>
  </defs>
  <g id="Layer_1-2" data-name="Layer 1">
    <g>
      <rect class="cls-3" width="40" height="40"/>
      <g>
        <path class="cls-1" d="m30.74,21.44c-1.47,1.34-2.82,2.57-4.27,3.9,1.79,1.98,3.52,3.89,5.25,5.79,1.71,1.88,3.45,3.75,5.13,5.66.22.25.19.73.27,1.1-.37-.12-.85-.14-1.08-.39-3.37-3.64-6.69-7.33-10.06-10.97-.82-.88-.64-1.66.37-2.84-.76,0-1.24-.15-1.52.03-.6.38-1.66.15-1.69,1.37-.04,1.76-.57,2.18-2.43,2.25-1.74.07-2.32-.36-2.51-2.16-.11-1.12-1.04-.97-1.66-1.24-.33-.14-.94-.02-1.23.22-1.27,1.06-1.93,1.06-3.22-.17-1.39-1.32-1.44-1.99-.47-3.31.24-.33.32-.98.16-1.35-.28-.64-.24-1.59-1.47-1.54-1.51.07-1.98-.58-2.03-2.32-.06-1.85.36-2.56,1.9-2.57,1.31,0,1.18-1.04,1.47-1.72.14-.33-.1-.96-.37-1.29-.71-.9-.86-1.78-.1-2.66.78-.9,1.77-2.29,2.94-1.32,1.42,1.18,2.36.55,3.51-.08.22-2.5.59-2.89,2.82-2.86,1.59.02,2.12.4,2.21,2.02.07,1.29,1.18,1.03,1.82,1.41.24.14.86-.13,1.17-.38,1.13-.92,1.92-.88,3.15.3,1.33,1.28,1.4,1.96.48,3.22-.25.34-.39.97-.25,1.34.28.69.29,1.66,1.57,1.6,1.44-.08,1.92.65,1.96,2.41.04,1.77-.37,2.34-1.85,2.52-.79.1-2.04,1.72-1.7,2.35.19.36.79.52,1.23.71.57.25,1.34.29,1.73.7,2.04,2.13,4.01,4.33,5.95,6.55.3.35.34.93.49,1.4-.46-.24-1.03-.39-1.37-.75-2.11-2.25-4.17-4.54-6.36-6.95Zm-1.64-.06c-1.64-.81-1.62-1.86-.84-3.06.07-.11.14-.24.16-.37.16-1.21.75-1.79,2.06-1.64,1.1.13.99-.74,1-1.47,0-.75-.12-1.44-1.08-1.27-1.31.23-1.89-.38-2.13-1.56-.06-.3-.19-.61-.38-.85-.63-.79-.51-1.45.26-2.06.88-.69.63-1.25-.07-1.96-.78-.79-1.34-.7-1.95.13-.49.68-1.07.86-1.84.37-.41-.26-.88-.48-1.36-.56-1.03-.17-1.48-.69-1.34-1.73.14-1.05-.44-1.28-1.37-1.26-.92.02-1.51.26-1.34,1.31.17,1.02-.21,1.6-1.24,1.81-.39.08-.79.24-1.1.48-.83.62-1.53.57-2.17-.27-.63-.81-1.19-.66-1.85.06-.6.65-.99,1.2-.09,1.85.9.64,1,1.37.38,2.28-.22.32-.35.74-.41,1.12-.17,1.03-.74,1.45-1.76,1.31-.97-.14-1.25.36-1.21,1.25.03.83.05,1.61,1.2,1.41,1.16-.2,1.74.3,1.96,1.41.07.34.2.71.41.98.65.83.56,1.52-.27,2.16-.83.64-.61,1.22.07,1.86.65.62,1.25.93,1.87.06.65-.92,1.35-1,2.25-.36.32.22.74.37,1.13.41,1.11.11,1.42.75,1.29,1.74-.15,1.12.52,1.2,1.4,1.2.95,0,1.43-.26,1.34-1.31-.04-.45,0-1.18.26-1.33.99-.57,2.06-1.1,3.17-1.35.4-.09.98.63,1.56,1.05.6-.54,1.22-1.1,2.03-1.84Z"/>
        <path class="cls-1" d="m26.35,29.38h-3.51v2.07c.83,0,1.59-.04,2.33.02.25.02.47.29.71.44-.23.22-.45.62-.68.63-3.18.04-6.35.04-9.53,0-.22,0-.44-.41-.67-.63.24-.15.46-.41.71-.43.75-.06,1.5-.02,2.33-.02v-2.08c-.57,0-1.05,0-1.53,0-4.12,0-8.23,0-12.35,0-1.71,0-2.27-.56-2.27-2.24,0-6.44,0-12.88,0-19.32,0-1.63.54-2.17,2.17-2.18,2.19-.02,4.38,0,6.57,0,.06.14.11.28.17.42-.51.23-1.02.62-1.54.65-1.61.09-3.22.07-4.83.02-1.01-.03-1.48.27-1.43,1.37.07,1.64.02,3.29.02,4.99.33.05.56.04.75.11.34.13.65.31.98.48-.32.21-.66.41-.97.64-.31.23-.59.5-.88.75l.25.38c.8,0,1.6-.05,2.39.03.32.03.62.36.92.55-.29.2-.57.53-.89.58-.57.1-1.18-.05-1.73.06-.34.07-.62.44-.93.67.8.47,1.31.77,1.82,1.07-.51.25-1.02.5-1.64.82v6.63c.5.02.97.06,1.44.06,3.74,0,7.49,0,11.23,0,.67,0,1.42-.14,1.37,1.09H3.15c-.27,1.33.52,1.25,1.25,1.26,4.21,0,8.41,0,12.62,0,2.58,0,5.16-.04,7.73.03.59.02,1.17.41,1.75.64-.05.16-.1.31-.14.47Zm-6.96,1.96h2.1v-1.89h-2.1v1.89Z"/>
        <path class="cls-1" d="m37.88,18.97c-.43-.03-.72.01-.95-.09-.28-.12-.51-.36-.76-.54.26-.18.51-.37.77-.54.31-.21.62-.41.93-.62-.33-.19-.64-.49-.99-.54-.57-.09-1.17.03-1.74-.06-.26-.04-.46-.4-.69-.62.23-.17.45-.48.69-.49.84-.06,1.69-.02,3-.02-.37-.54-.53-.9-.79-1.13-.35-.29-.78-.47-1.18-.69.42-.15.85-.3,1.28-.46.08-.03.17-.05.43-.13,0-1.8.05-3.67-.05-5.53-.02-.28-.72-.72-1.12-.74-1.7-.08-3.4.01-5.1-.07-.51-.02-1-.4-1.5-.61l.13-.43c2.44,0,4.88-.05,7.31.03.91.03,1.45.7,1.46,1.63.01,6.34,0,12.68,0,19.03-.14.04-.27.09-.41.13-.23-.63-.64-1.25-.67-1.89-.09-1.82-.03-3.65-.03-5.61Z"/>
        <path class="cls-1" d="m35.05,32.28c-.11.06-.32.25-.5.23-.28-.04-.6-.17-.79-.37-1.58-1.7-3.12-3.42-4.68-5.13-.3-.33-.66-.63-.87-1-.11-.2.03-.55.05-.83.24.02.58-.05.71.09,1.97,2.12,3.91,4.27,5.85,6.41.08.09.1.24.24.61Z"/>
        <path class="cls-1" d="m16.75,14.5c0,.77.05,1.54-.03,2.3-.03.32-.35.6-.54.9-.2-.3-.53-.58-.56-.89-.08-.76-.03-1.53-.03-2.29-.18,0-.36-.02-.54-.03-.04.65,0,1.31-.13,1.95-.09.45-.39.85-.6,1.27-.19-.44-.46-.87-.55-1.33-.1-.47-.04-.98-.02-1.47.06-1.31.7-1.82,2.01-1.64.04,0,.08.03.13.04.77.15,2.01.07,2.22.49.44.89.37,2.04.42,3.09.01.26-.33.54-.51.81-.2-.29-.54-.56-.58-.86-.08-.77-.03-1.55-.03-2.32h-.67Z"/>
        <path class="cls-2" d="m23.63,15.47c0-.22-.02-.45,0-.67.08-.68-.35-1.59.95-1.63,1.41-.04,2.35.4,2.51,1.44.17,1.04-.41,1.66-1.31,2.08-.41.19-.74.59-1.16.73-.27.09-.89-.08-.92-.22-.11-.56-.04-1.15-.04-1.73,0,0-.02,0-.03,0Z"/>
        <path class="cls-1" d="m20.46,9.11c1.25.46,2.42.84,3.54,1.34.22.1.24.63.35.96-.32,0-.71.11-.94-.03-2-1.2-3.95-1.17-5.94.04-.23.14-.62,0-.94,0,.13-.33.18-.85.41-.95,1.12-.5,2.28-.89,3.52-1.35Z"/>
        <path class="cls-1" d="m20.97,15.48c.36-.82.54-1.37.84-1.86.12-.2.48-.24.74-.36.1.26.34.58.26.78-.39,1.09-.81,2.18-1.3,3.23-.28.6-.79.65-1.09.03-.5-1.04-.93-2.13-1.33-3.22-.08-.22.12-.54.19-.81.29.13.68.19.83.41.31.46.5,1.02.85,1.8Z"/>
      </g>
    </g>
  </g>
</svg>