<svg xmlns="http://www.w3.org/2000/svg" viewBox="0 0 28 28"><defs><style>.cls-1{fill:none;}.cls-2{fill:#0091ff;}</style></defs><g id="Layer_2" data-name="Layer 2"><g id="Layer_1-2" data-name="Layer 1"><rect class="cls-1" width="28" height="28"/><path class="cls-2" d="M27,12.67a2.09,2.09,0,0,0,0-.25.76.76,0,0,0-.78-.71.77.77,0,0,0-.74.85v11.2a1.55,1.55,0,0,1-1.71,1.71H4.23a1.55,1.55,0,0,1-1.71-1.71V4.26A1.55,1.55,0,0,1,4.24,2.53H15.46a.75.75,0,0,0,.82-.77A.76.76,0,0,0,15.47,1C11.64,1,7.82,1,4,1A2.93,2.93,0,0,0,1.63,2.2,3.67,3.67,0,0,0,1,3.64V24.36a9.86,9.86,0,0,0,.57,1.33,2.84,2.84,0,0,0,2,1.26l.14.05H24.3l.07,0A3.14,3.14,0,0,0,27,23.72C27,20,27,16.35,27,12.67ZM14.76,8a.78.78,0,0,0-.87-.88H8A.77.77,0,0,0,7.11,8V20a.77.77,0,0,0,.86.86q6,0,12,0a.78.78,0,0,0,.87-.86V14.11a.78.78,0,0,0-.88-.87H14.76V8Zm-6.1.67h4.55v4.55H8.66Zm4.56,10.66H8.67V14.78h4.55Zm1.55-4.55h4.55v4.55H14.77ZM20.2,8.65h5.94A.78.78,0,0,0,27,7.78V1.86A.78.78,0,0,0,26.13,1H20.22a.78.78,0,0,0-.87.86q0,3,0,5.94A.77.77,0,0,0,20.2,8.65Zm.69-6.11h4.56V7.09H20.89Z"/></g></g></svg>