<svg xmlns="http://www.w3.org/2000/svg" viewBox="0 0 28 28"><defs><style>.cls-1{fill:none;}.cls-2{fill:#0091ff;}</style></defs><g id="Layer_2" data-name="Layer 2"><g id="Layer_1-2" data-name="Layer 1"><rect class="cls-1" width="28" height="28"/><path class="cls-2" d="M16.85,10.06h.37c1.61,0,3.21,0,4.82,0a5.19,5.19,0,0,1,5.1,5.14c0,1.85,0,3.69,0,5.54a6.53,6.53,0,0,1-6.51,6.44c-6.14,0-12.28,0-18.42,0A1.29,1.29,0,0,1,.84,25.81q0-7.18,0-14.37a1.28,1.28,0,0,1,1.39-1.38H7.58c0-.38.12-.75.17-1.13C8,7,8.3,5.08,8.57,3.16A2.59,2.59,0,0,1,10.9.85a6.26,6.26,0,0,1,3.49.51,5.27,5.27,0,0,1,2.89,5.46c-.14,1-.29,2-.43,3.06A1.05,1.05,0,0,0,16.85,10.06ZM10,24.54H20.5a5.27,5.27,0,0,0,.68,0,4,4,0,0,0,3.35-4c0-1.69,0-3.38,0-5.07a3.17,3.17,0,0,0-.15-1,2.62,2.62,0,0,0-2.62-1.81H15.36A1.3,1.3,0,0,1,14,11.15c.19-1.36.4-2.71.58-4.07a4.92,4.92,0,0,0,0-1.53c-.31-1.49-1.6-2.33-3.44-2l0,.11c-.26,1.86-.53,3.71-.79,5.56a22.55,22.55,0,0,0-.31,2.7C10,16,10,20,10,24.13ZM3.48,12.7V24.52H7.39V12.7Z"/></g></g></svg>