<svg xmlns="http://www.w3.org/2000/svg" viewBox="0 0 28 28"><defs><style>.cls-1{fill:none;}.cls-2{fill:#0091ff;}</style></defs><g id="Layer_2" data-name="Layer 2"><g id="Layer_1-2" data-name="Layer 1"><rect class="cls-1" width="28" height="28"/><path class="cls-2" d="M27.45,18.2a2.44,2.44,0,0,1-.1.24,1,1,0,0,1-2-.4V4.94a2.12,2.12,0,0,0-2.29-2.29H4.93A2.11,2.11,0,0,0,2.65,4.92V23.07a2.11,2.11,0,0,0,2.28,2.28c6,0,12.08,0,18.12,0a2.18,2.18,0,0,0,2.31-2.16,1,1,0,0,1,.86-1,1.06,1.06,0,0,1,1.15.64c0,.06.05.12.08.19v.68c0,.05,0,.1-.05.15a4.19,4.19,0,0,1-3.12,3.45l-.56.13H4.28l-.15-.05A4.16,4.16,0,0,1,.68,24.3c-.05-.19-.09-.39-.13-.58V4.28s0-.1,0-.15A4.16,4.16,0,0,1,3.7.68L4.28.55H23.72l.15,0a4.19,4.19,0,0,1,3.45,3.12c.05.19.09.37.13.56Z"/><path class="cls-2" d="M16.68,9.78,18.46,8,21,5.51A1.06,1.06,0,1,1,22.43,7l-4,4a2,2,0,0,1-.24.16l.05.07.22,0h2.6a1.05,1.05,0,1,1,0,2.1H17.29a2.62,2.62,0,0,1-2.71-2.7c0-1.26,0-2.52,0-3.78a1,1,0,0,1,1-1.14,1.06,1.06,0,0,1,1.06,1.13v2.9Z"/><path class="cls-2" d="M11.37,18.05c-.35.36-.65.67-1,1L7.07,22.37A1,1,0,0,1,6,22.68a1,1,0,0,1-.74-.78,1.08,1.08,0,0,1,.35-1c1.35-1.34,2.69-2.69,4-4,.07-.07.15-.12.28-.23l-.3,0H7a1.05,1.05,0,1,1,0-2.1h3.78a2.62,2.62,0,0,1,2.69,2.69q0,1.9,0,3.81a1.05,1.05,0,1,1-2.1,0Z"/></g></g></svg>