<?xml version="1.0" encoding="UTF-8"?>
<svg id="Layer_2" data-name="Layer 2" xmlns="http://www.w3.org/2000/svg" viewBox="0 0 28 28">
  <defs>
    <style>
      .cls-1 {
        fill: #0091ff;
        stroke: #0091ff;
        stroke-miterlimit: 10;
        stroke-width: .49px;
      }

      .cls-2 {
        fill: none;
      }
    </style>
  </defs>
  <g id="Layer_1-2" data-name="Layer 1">
    <g>
      <rect class="cls-2" width="28" height="28"/>
      <g>
        <path class="cls-1" d="m25.16,23.72q.73.1.73.81c0,.39,0,.77,0,1.16-.02.8-.62,1.41-1.42,1.44-.05,0-.11,0-.16,0-6.87,0-13.75,0-20.62,0-.81,0-1.42-.4-1.53-1.12-.09-.63-.06-1.29-.03-1.93,0-.11.21-.23.35-.3.08-.04.21,0,.37,0,0-.13,0-.25,0-.36,0-4.24,0-8.49,0-12.73,0-.2,0-.4.05-.59.16-.69.76-1.15,1.5-1.16,1.49,0,2.97,0,4.46,0,.11,0,.21,0,.31,0,.08-.53.1-1.05.23-1.54.58-2.19,1.73-4.05,3.37-5.61.29-.27.59-.52.9-.78.18-.15.38-.15.57,0,2.14,1.71,3.62,3.86,4.29,6.52.11.44.13.9.19,1.41.08,0,.18,0,.28,0,1.5,0,2.99,0,4.49,0,1.08,0,1.69.61,1.69,1.69,0,4.25,0,8.51,0,12.76v.36Zm-11.22-4.13c.62,0,1.24,0,1.86,0,.56,0,.55,0,.62-.54.33-2.27.67-4.53,1-6.8.14-.95.3-1.9.4-2.86.15-1.51-.37-2.86-1.08-4.16-.04-.08-.16-.13-.25-.15-1.47-.28-2.95-.27-4.44-.13-.73.07-1.06.4-1.34,1.03-.53,1.22-.85,2.46-.65,3.8.46,3.17.93,6.35,1.39,9.52.03.22.12.31.35.31.71,0,1.42,0,2.13,0Zm4.13,2.73s.09,0,.13,0c.99-.21,1.94.42,2.23,1.29.02.07.17.15.26.15,1.13,0,2.27,0,3.4.01.2,0,.26-.05.26-.26,0-4.31,0-8.61,0-12.92,0-.59-.28-.86-.86-.87-1.55,0-3.1,0-4.65,0-.18,0-.24.05-.27.24-.14,1.02-.29,2.05-.45,3.07-.04.22,0,.33.19.46,1.17.85,1.97,1.97,2.35,3.36.33,1.23.36,2.49.1,3.74-.07.33-.29.51-.6.52-.28,0-.44-.16-.58-.37-.5-.8-1.1-1.51-1.82-2.12-.12-.1-.25-.19-.4-.31-.06.44-.12.82-.18,1.21-.07.49-.42.82-.91.88-.07,0-.14.02-.21.03v.7c.95-.04,1.61.37,2.02,1.2Zm-7.58-4.04c-.14.11-.24.19-.34.27-.73.61-1.34,1.33-1.85,2.13-.23.36-.44.47-.75.4-.33-.08-.46-.33-.48-.64-.05-.72-.13-1.45-.1-2.17.1-2.03,1-3.64,2.64-4.84.12-.09.15-.16.13-.31-.16-1.06-.31-2.11-.45-3.17-.03-.21-.13-.23-.31-.23-1.48,0-2.95,0-4.43,0-.66,0-.91.26-.91.92,0,4.27,0,8.54,0,12.81,0,.1,0,.19.02.31h.27c1.07,0,2.14,0,3.22,0,.18,0,.26-.05.33-.22.28-.7.79-1.13,1.54-1.23.25-.03.5,0,.75,0,.47-.93,1.23-1.31,2.27-1.15v-.75c-.09,0-.17-.01-.24-.02-.68-.01-1.02-.31-1.13-.98-.06-.35-.1-.71-.16-1.12Zm-7.58,6.29c0,.41-.02.8,0,1.18,0,.13.09.27.18.38.17.21.43.2.67.2,6.81,0,13.62,0,20.43,0,.11,0,.22,0,.32-.01.27-.04.51-.24.53-.5.03-.41,0-.82,0-1.24H2.92Zm16.68-.83c-.26-.58-.91-.81-1.5-.55-.43.19-.62.1-.72-.34-.17-.73-.81-1.09-1.53-.86-.41.13-.62-.02-.62-.46,0-.37,0-.73,0-1.12h-2.37c0,.43,0,.85,0,1.27,0,.45-.29.61-.68.41-.15-.08-.31-.15-.48-.16-.63-.07-1.11.3-1.25.93-.09.38-.29.49-.65.34-.05-.02-.1-.04-.15-.06-.56-.19-1.22.1-1.34.6h11.29Zm-11.77-3.85s.05-.02.06-.04c.65-.93,1.43-1.73,2.36-2.38.06-.04.09-.17.08-.24-.09-.7-.2-1.41-.3-2.11-.04-.29-.09-.57-.14-.88-1.78,1.34-2.41,3.54-2.07,5.66Zm12.23-.05c.49-1.76-.68-4.92-2.1-5.58-.15.99-.3,1.97-.43,2.96-.01.09.06.22.13.28.22.19.47.34.67.54.59.59,1.15,1.2,1.72,1.8ZM11.73,4.2c1.49-.22,2.92-.21,4.4,0-.65-.94-1.36-1.72-2.2-2.4-.84.7-1.56,1.47-2.2,2.4Z"/>
        <path class="cls-1" d="m8.37,4.52c0,.88,0,1.71,0,2.54,0,.41-.13.61-.4.62-.27,0-.41-.19-.41-.6,0-.75,0-1.51,0-2.26v-.3c-.1.08-.16.13-.22.17-.19.11-.37.09-.51-.06-.14-.15-.17-.34-.03-.49.3-.32.6-.64.93-.93.18-.16.39-.1.56.06.25.25.5.49.74.74.21.21.23.44.07.62-.17.18-.37.17-.62-.03-.02-.02-.04-.03-.11-.08Z"/>
        <path class="cls-1" d="m19.63,3.2c-.1.08-.15.14-.21.17-.18.11-.37.1-.51-.05-.15-.16-.16-.36-.02-.51.29-.32.6-.62.92-.91.18-.16.39-.11.55.06.26.25.51.5.76.76.2.21.22.42.06.6-.16.18-.39.17-.62-.02-.03-.02-.05-.04-.12-.09,0,.4,0,.77,0,1.13,0,.5,0,1.01,0,1.51,0,.33-.15.53-.41.52-.25,0-.4-.2-.4-.53,0-.86,0-1.72,0-2.63Z"/>
        <path class="cls-1" d="m11.34,9c.01-1.41,1.15-2.53,2.56-2.51,1.41.01,2.54,1.16,2.53,2.56-.01,1.4-1.17,2.53-2.57,2.52-1.4-.01-2.53-1.16-2.52-2.56Zm.8-.01c-.02.96.74,1.75,1.7,1.77.95.02,1.75-.75,1.77-1.7.02-.97-.75-1.76-1.72-1.77-.96-.01-1.74.75-1.76,1.71Z"/>
        <path class="cls-1" d="m14,25.84c-.62,0-1.24,0-1.86,0-.09,0-.18,0-.27-.02-.19-.04-.3-.16-.31-.35-.01-.2.08-.35.28-.4.1-.03.21-.03.32-.03,1.22,0,2.45,0,3.67,0,.09,0,.18,0,.27.01.23.04.35.18.34.41-.01.22-.14.35-.36.37-.16.01-.32,0-.49,0-.53,0-1.06,0-1.59,0Z"/>
      </g>
    </g>
  </g>
</svg>