<?xml version="1.0" encoding="UTF-8"?>
<svg id="Layer_2" data-name="Layer 2" xmlns="http://www.w3.org/2000/svg" viewBox="0 0 28 28">
  <defs>
    <style>
      .cls-1 {
        fill: #0091ff;
      }

      .cls-2 {
        fill: none;
      }
    </style>
  </defs>
  <g id="Layer_1-2" data-name="Layer 1">
    <g>
      <rect class="cls-2" width="28" height="28"/>
      <path class="cls-1" d="m27.1,3.02c-.5-.73-1.26-.98-2.12-.98-3.81,0-7.62,0-11.43,0-3.52,0-7.03,0-10.55,0-.61,0-1.18.11-1.67.49-.67.52-.96,1.22-.96,2.06,0,3.72,0,7.44,0,11.16,0,1,0,2,0,3,0,1.19.69,2.1,1.83,2.39.26.07.54.08.82.08,2.41,0,4.82,0,7.23,0h.35v2.84c-.1,0-.2,0-.29,0-.64,0-1.28,0-1.91,0-.44,0-.77.36-.78.78,0,.41.31.76.73.8.1,0,.19,0,.29,0,3.56,0,7.12,0,10.68,0,.09,0,.18,0,.27,0,.43-.04.77-.4.75-.81-.01-.43-.35-.77-.79-.77-.63,0-1.26,0-1.89,0-.1,0-.19,0-.31,0v-2.82c.11,0,.22-.02.33-.02,2.44,0,4.87,0,7.31,0,.65,0,1.24-.15,1.75-.58.42-.37.69-.82.8-1.37.01-.05.03-.1.05-.15V4.15c-.16-.38-.26-.79-.49-1.12Zm-11.38,21.04h-3.49v-2.81h3.49v2.81Zm10.26-5.11c-.01.37-.33.64-.7.68-.1.01-.19.01-.29.01-7.33,0-14.67,0-22,0-.2,0-.41-.03-.59-.1-.25-.1-.41-.33-.41-.61-.02-.73,0-1.47,0-2.22h24.01c0,.75.02,1.5,0,2.24Zm.02-4.17v.31H1.97v-.31c0-3.38,0-6.75,0-10.12,0-.73.28-1.01,1.01-1.01h22c.73,0,1.01.28,1.01,1.01v10.12Zm-3.34-7.92c-1.41,0-2.82,0-4.22,0-.09,0-.19,0-.3-.01,0-.29.01-.56,0-.82-.02-.36-.28-.68-.64-.7-.5-.03-1.01-.04-1.51,0-.4.03-.66.41-.64.82.02.39.31.7.71.73.15.01.3,0,.49,0v.33c0,1.15,0,2.3,0,3.45,0,.66.3.97.95.97,1.12,0,2.25,0,3.37,0,.43,0,.73-.17.94-.56.53-.96,1.08-1.91,1.62-2.86.43-.75.08-1.35-.78-1.35Zm-2.06,3.1s-.08.07-.13.07c-.77,0-1.53,0-2.32,0v-1.56h3.3c-.29.52-.57,1-.85,1.49Zm-7.91,1.24c-2.5,0-5,0-7.49,0-.06,0-.12,0-.19.02-.36.05-.62.33-.66.69-.05.52.3.88.89.88,1.24,0,2.48,0,3.72,0,1.13,0,2.27,0,3.4,0,.18,0,.36,0,.53-.02.49-.07.78-.56.62-1.03-.12-.35-.39-.54-.82-.54Zm.05-5.08c-1.26,0-2.52,0-3.77,0h0c-.88,0-1.75,0-2.63,0-.42,0-.83,0-1.25,0-.38.01-.67.29-.73.65-.06.38.13.73.47.86.15.06.33.07.49.07,2.42,0,4.84,0,7.26,0,.13,0,.27-.01.39-.04.25-.05.42-.22.52-.45.23-.53-.15-1.1-.75-1.1Zm.26,2.58c-.13-.04-.28-.04-.42-.04-1.21,0-2.43,0-3.64,0-1.25,0-2.5,0-3.75,0-.58,0-.94.45-.82.98.08.38.41.61.88.61,2.47,0,4.94,0,7.41,0,.09,0,.18,0,.26-.03.36-.07.62-.38.64-.75.01-.36-.22-.69-.56-.78Zm7.06,3.26c-.47,0-.85.36-.86.82,0,.45.36.83.81.84.48.01.88-.37.87-.83,0-.45-.37-.82-.83-.83Zm-2.24,0c-.47,0-.85.37-.85.83s.38.84.85.84c.46,0,.85-.39.84-.84,0-.45-.38-.82-.83-.82Zm-3.31,5.53c-.35-.05-.71-.05-1.05,0-.4.06-.63.43-.59.85.04.38.34.68.74.7.13,0,.27,0,.4,0,.12,0,.25,0,.37,0,.41-.02.72-.32.75-.72.03-.41-.21-.78-.61-.83Z"/>
    </g>
  </g>
</svg>