<?xml version="1.0" encoding="UTF-8"?>
<svg id="Layer_2" data-name="Layer 2" xmlns="http://www.w3.org/2000/svg" viewBox="0 0 40 40">
  <defs>
    <style>
      .cls-1 {
        fill: #0091ff;
      }

      .cls-2 {
        fill: none;
      }
    </style>
  </defs>
  <g id="Layer_1-2" data-name="Layer 1">
    <g>
      <rect class="cls-2" width="40" height="40"/>
      <g>
        <path class="cls-1" d="m19.06,32.86c.5.1.61.46.6.95-.02,1.55,0,3.09,0,4.64,0,.63-.2.84-.78.84-2.66,0-5.32,0-7.98,0-.58,0-.78-.21-.78-.84,0-1.55,0-3.09,0-4.64,0-.48.09-.85.6-.94,0-.52.02-1.01,0-1.5-.02-.59-.3-1.05-.71-1.44-1.25-1.18-2.48-2.38-3.74-3.56-.58-.55-.95-1.2-1.15-2.01-.81-3.31-1.64-6.61-2.47-9.92-.31-1.21-.03-2.2.9-2.98.09-.07.16-.23.16-.36.04-1.37.84-2.43,1.98-2.62,1.21-.2,2.31.59,2.72,1.89.84,2.63,1.69,5.26,2.55,7.89.04.13.16.27.27.34,1.67,1.06,3.34,2.11,5.01,3.16,1.89,1.19,2.83,2.96,2.83,5.31,0,1.92,0,3.84,0,5.78Zm-1.21.02c0-.09.02-.14.02-.19,0-2,.03-4-.01-6-.04-1.54-.69-2.79-1.92-3.6-1.78-1.17-3.58-2.29-5.4-3.39-.26-.16-.65-.18-.96-.11-.48.1-.75.5-.81,1.03-.07.58.15,1.01.61,1.3,1.08.68,2.17,1.34,3.26,2.02.39.24.5.59.32.93-.18.34-.52.41-.9.18-1.1-.68-2.2-1.35-3.29-2.04-1.12-.71-1.5-2.05-.98-3.33.05-.13.09-.32.05-.45-.59-2-1.2-4.01-1.81-6-.16-.53-.53-.84-1.04-.9-.84-.11-1.46.72-1.23,1.65.84,3.38,1.69,6.76,2.53,10.15.12.5.35.9.71,1.23,1.24,1.17,2.46,2.37,3.71,3.53.83.77,1.24,1.71,1.2,2.88-.01.37,0,.73,0,1.11h5.95Zm-6.53,5.1h7.11v-3.79h-7.11v3.79Zm-1.67-19.76c-.04-.14-.08-.26-.12-.39-.73-2.27-1.47-4.55-2.2-6.82-.05-.16-.1-.33-.17-.49-.26-.58-.9-.9-1.43-.74-.51.16-.85.66-.81,1.22,1.27.15,2.03.92,2.36,2.23.17.68.4,1.34.6,2.01.32,1.07.65,2.14.98,3.22.28-.09.52-.17.79-.25Z"/>
        <path class="cls-1" d="m29.8,32.86c.5.1.61.46.6.95-.02,1.55,0,3.09,0,4.64,0,.63-.2.84-.78.84-2.66,0-5.32,0-7.98,0-.59,0-.79-.21-.79-.83,0-1.56,0-3.12,0-4.68,0-.59.07-.71.6-.93,0-1.87.02-3.75,0-5.63-.02-1.54.34-2.94,1.31-4.09.44-.52.99-.98,1.55-1.35,1.62-1.07,3.27-2.07,4.9-3.11.16-.1.32-.3.38-.49.86-2.62,1.71-5.25,2.56-7.88.41-1.26,1.52-2.01,2.7-1.81,1.14.2,1.95,1.27,1.97,2.59,0,.13.07.31.17.39.9.76,1.2,1.72.91,2.91-.74,2.98-1.49,5.97-2.23,8.95-.59,2.37-.48,2.15-2.19,3.79-.97.92-1.92,1.85-2.9,2.76-.54.5-.81,1.09-.77,1.86.02.37,0,.75,0,1.13Zm-1.19.01c0-.43,0-.81,0-1.2-.02-1.11.37-2.01,1.15-2.74,1.26-1.18,2.53-2.37,3.75-3.6.3-.3.57-.73.68-1.15.87-3.37,1.71-6.76,2.55-10.14.2-.8-.13-1.49-.79-1.69-.62-.19-1.27.23-1.5.97-.59,1.94-1.17,3.87-1.74,5.82-.05.17-.04.4.03.56.5,1.26.12,2.59-.97,3.3-.47.3-.94.59-1.42.88-.65.4-1.29.81-1.94,1.19-.41.25-.86.04-.92-.41-.05-.36.13-.57.4-.74,1.06-.65,2.11-1.3,3.16-1.95.36-.22.64-.51.69-.98.06-.52-.08-.96-.49-1.25-.43-.32-.89-.3-1.33-.02-1.7,1.07-3.41,2.14-5.11,3.21-1.44.91-2.16,2.27-2.16,4.06,0,1.83,0,3.65,0,5.48,0,.13.01.26.02.4h5.95Zm.58,1.32h-7.11v3.79h7.11v-3.79Zm2.45-15.73c.04-.12.08-.23.11-.34.52-1.73,1.05-3.46,1.57-5.2.17-.58.45-1.09.94-1.4.41-.26.87-.41,1.35-.63,0,.03,0-.04,0-.1-.1-.57-.53-1.01-1.03-1.05-.58-.05-1.08.31-1.28.93-.52,1.61-1.04,3.22-1.56,4.82-.29.9-.58,1.8-.88,2.71.28.09.53.16.79.24Z"/>
        <path class="cls-1" d="m20.29,2.84c.8-.82,1.75-1.39,2.85-1.67,3.85-.99,7.57,2.41,7.28,6.65-.11,1.63-.7,3.01-1.77,4.16-2.61,2.8-5.22,5.6-7.83,8.4-.42.46-.7.46-1.11.02-2.64-2.83-5.29-5.64-7.9-8.5-1.62-1.77-2.13-3.93-1.48-6.31.65-2.38,2.18-3.88,4.43-4.44,1.91-.47,3.64.03,5.16,1.38.1.09.21.19.31.28,0,0,.02,0,.06.01Zm-.06,16.31c.06-.04.1-.06.12-.09,2.55-2.73,5.1-5.46,7.63-8.21.88-.95,1.29-2.16,1.25-3.49-.06-2.21-1.04-3.84-2.95-4.67-1.9-.84-3.66-.43-5.16,1.08-.88.88-.86.89-1.75-.01-1.28-1.31-2.8-1.76-4.5-1.3-3.59.97-4.82,5.68-2.25,8.53,1.45,1.61,2.95,3.17,4.42,4.76,1.05,1.13,2.11,2.26,3.18,3.41Z"/>
        <path class="cls-1" d="m18.47,11.76c-.58,0-1.12,0-1.65,0-.52,0-.73-.23-.74-.77,0-.77,0-1.55,0-2.32,0-.52.22-.75.71-.75.54,0,1.09,0,1.67,0,0-.6,0-1.17,0-1.74,0-.6.2-.82.76-.82.7,0,1.39,0,2.09,0,.51,0,.73.23.73.77,0,.58,0,1.17,0,1.79.57,0,1.1,0,1.63,0,.56,0,.76.22.76.83,0,.75,0,1.49,0,2.24,0,.55-.22.77-.73.77-.53,0-1.07,0-1.65,0,0,.58,0,1.15,0,1.72,0,.63-.2.84-.78.84-.7,0-1.39,0-2.09,0-.49,0-.71-.23-.71-.75,0-.58,0-1.17,0-1.8Zm4.74-1.28v-1.28c-.55,0-1.07,0-1.59,0-.56,0-.76-.22-.76-.82,0-.57,0-1.14,0-1.72h-1.19c0,.58,0,1.14,0,1.7,0,.62-.2.84-.78.84-.53,0-1.06,0-1.57,0v1.28c.55,0,1.07,0,1.59,0,.56,0,.76.22.76.82,0,.57,0,1.14,0,1.71h1.19c0-.61,0-1.19,0-1.78,0-.52.22-.75.71-.76.54,0,1.09,0,1.65,0Z"/>
      </g>
    </g>
  </g>
</svg>