<?xml version="1.0" encoding="UTF-8"?><svg id="Layer_2" xmlns="http://www.w3.org/2000/svg" viewBox="0 0 40 40"><defs><style>.cls-1{fill:#fff;stroke:#fff;stroke-miterlimit:10;stroke-width:.2px;}.cls-2{fill:none;}</style></defs><g id="Layer_1-2"><g><rect class="cls-2" width="40" height="40"/><g><path class="cls-1" d="M10.67,39.27c-.37-.18-.77-.31-1.1-.54-.53-.38-.82-.94-.87-1.6-.01-.16-.02-.33-.02-.49,0-11.1,0-22.2,0-33.31,0-.85,.25-1.58,.94-2.11,.4-.31,.85-.48,1.36-.49,.77-.01,1.53,0,2.3,0,.4,0,.65,.24,.65,.58,0,.32-.25,.54-.64,.55-.74,0-1.48,0-2.22,0-.67,.01-1.2,.47-1.22,1.13-.03,.86,0,1.73,0,2.63H30.17c.01-.08,.04-.17,.04-.27,0-.72,0-1.43,0-2.15-.01-.86-.5-1.35-1.37-1.35-4.18,0-8.36,0-12.53,0-.13,0-.25,0-.38,0-.33-.03-.54-.26-.53-.57,.01-.33,.2-.5,.51-.55,.1-.01,.2,0,.3,0,4.19,0,8.38,0,12.57,0,1.56,0,2.55,.97,2.55,2.53,0,11.15,0,22.31,0,33.46,0,1.35-.54,2.03-1.99,2.55H10.67ZM30.2,6.81H9.8v.46c0,8.49,0,16.98,0,25.48,0,.38,.1,.48,.48,.48,6.49-.01,12.97-.01,19.46,0,.38,0,.48-.09,.48-.48-.01-8.5,0-17.01,0-25.51v-.43Zm0,27.57H9.83c-.01,.07-.03,.11-.03,.14,0,.74,0,1.48,0,2.22,0,.93,.49,1.4,1.43,1.4,2.58,0,5.17,0,7.75,0,3.29,0,6.57,0,9.86,0,.78,0,1.32-.44,1.34-1.17,.03-.85,0-1.7,0-2.59Z"/><path class="cls-1" d="M21.58,3.2c.49,0,.98,0,1.47,0,.39,0,.63,.21,.64,.53,.01,.34-.23,.58-.63,.59-.99,0-1.98,0-2.97,0-.41,0-.65-.24-.64-.58,0-.33,.23-.54,.63-.54,.5,0,1,0,1.5,0Z"/><path class="cls-1" d="M18.36,3.75c0,.42-.31,.74-.72,.75-.42,0-.77-.33-.76-.75,0-.4,.34-.74,.74-.74,.41,0,.73,.33,.74,.74Z"/><path class="cls-1" d="M23.69,25.69c0,.77,.02,1.54,0,2.3-.02,.78-.66,1.44-1.42,1.5-.82,.06-1.56-.44-1.7-1.22-.07-.4-.04-.82-.04-1.24,0-.42,0-.85,0-1.3h-1.02c0,.34,0,.68,0,1.03,0,.4,0,.8,0,1.2-.03,.89-.73,1.54-1.62,1.53-.86-.01-1.53-.69-1.55-1.57-.01-.65,0-1.3,0-1.96,0-.2-.04-.3-.24-.39-.59-.25-.88-.72-.89-1.36,0-1.3,0-2.61,0-3.91,0-.82,.61-1.43,1.43-1.44,2.26,0,4.52,0,6.77,0,.81,0,1.41,.62,1.43,1.44,0,.38,0,.75,0,1.13-.01,.35-.24,.59-.55,.59-.31,0-.55-.23-.57-.58-.01-.34-.01-.68,0-1.02,0-.3-.11-.44-.42-.44-2.18,0-4.36,0-6.55,0-.31,0-.42,.14-.42,.44,0,1.23,0,2.46,0,3.69,0,.35,.16,.46,.48,.46,2.14,0,4.29,0,6.43,0,.3,0,.46-.1,.47-.43,0-.38,.25-.61,.57-.61,.32,0,.54,.26,.55,.64,.02,.7-.33,1.18-1.13,1.51Zm-6.25,.04c0,.75,0,1.47,0,2.2,0,.26,.16,.42,.43,.44,.26,.02,.46-.12,.47-.38,.02-.75,0-1.49,0-2.26h-.91Zm4.21,0c0,.76-.01,1.49,0,2.23,0,.26,.19,.41,.45,.4,.27,0,.44-.15,.45-.41,.02-.73,0-1.47,0-2.22h-.91Z"/><path class="cls-1" d="M22.6,11.88c1.1,.76,1.85,1.73,2.09,3.01,.12,.64,.14,1.32,.11,1.98-.03,.76-.7,1.35-1.5,1.36-2.19,.02-4.39,.02-6.58,0-.9,0-1.5-.68-1.54-1.57-.07-1.43,.2-2.75,1.17-3.85,.3-.34,.67-.64,1.03-.98-.07-.15-.17-.32-.25-.5-.15-.32-.05-.63,.23-.77,.27-.14,.62-.07,.74,.23,.21,.54,.52,.57,1.03,.43,.71-.2,1.44-.12,2.15,.09,.21,.06,.33,.02,.41-.18,.06-.14,.13-.27,.22-.39,.19-.26,.45-.32,.73-.17,.28,.16,.36,.41,.24,.71-.08,.19-.19,.38-.3,.6Zm-2.63,5.23c1.05,0,2.11,0,3.16,0,.42,0,.56-.14,.57-.53,0-.25,.01-.5,0-.75-.1-1.53-.83-2.65-2.23-3.26-1.39-.6-2.71-.38-3.86,.6-1.02,.86-1.35,2.01-1.29,3.3,.03,.52,.12,.64,.64,.64,1,0,2.01,0,3.01,0Z"/><path class="cls-1" d="M28.76,21.53c0,.39,.02,.78,0,1.16-.07,.87-.75,1.48-1.6,1.47-.86-.01-1.55-.68-1.57-1.55-.02-.74-.02-1.48,0-2.22,.03-.86,.72-1.52,1.55-1.53,.85-.02,1.55,.6,1.62,1.46,.03,.4,0,.8,0,1.2h0Zm-1.12,.03c0-.35,0-.7,0-1.05,0-.3-.16-.51-.48-.5-.3,.01-.44,.21-.45,.5,0,.67,0,1.35,0,2.03,0,.29,.14,.49,.45,.5,.33,.01,.47-.19,.48-.5,0-.32,0-.65,0-.97Z"/><path class="cls-1" d="M14.42,21.55c0,.35,.01,.7,0,1.05-.03,.88-.7,1.55-1.55,1.57-.86,.02-1.58-.6-1.62-1.49-.04-.77-.04-1.55,0-2.33,.04-.88,.77-1.51,1.63-1.48,.83,.02,1.51,.69,1.54,1.55,.02,.38,0,.75,0,1.13Zm-1.13-.01c0-.34,0-.68,0-1.01,0-.31-.16-.51-.48-.51-.3,0-.45,.2-.45,.49,0,.67,0,1.35,0,2.02,0,.3,.15,.51,.47,.51,.32,0,.45-.22,.46-.53,0-.32,0-.65,0-.98Z"/><path class="cls-1" d="M29.39,8.67c0,.19,.02,.38,0,.56-.04,.32-.31,.54-.6,.5-.31-.04-.51-.22-.52-.54,0-.36-.01-.73,0-1.09,.01-.3,.2-.49,.5-.52,.32-.03,.53,.14,.6,.45,.04,.21,.03,.42,.04,.63h-.02Z"/><path class="cls-1" d="M26.54,8.82c0-.12-.01-.25,0-.37,.03-.3,.2-.48,.5-.5,.32-.03,.55,.14,.59,.45,.04,.29,.04,.6,0,.89-.04,.31-.28,.48-.59,.46-.31-.03-.5-.22-.51-.54,0-.12,0-.25,0-.37h0Z"/><path class="cls-1" d="M25.94,9.01c0,.29-.05,.59-.36,.67-.18,.05-.43,0-.58-.1-.29-.2-.28-.96,0-1.15,.15-.1,.41-.14,.58-.09,.31,.09,.36,.38,.35,.67Z"/><path class="cls-1" d="M19.98,36.8c-.3,0-.6,0-.9,0-.32,0-.51-.19-.55-.51-.04-.3,.17-.58,.49-.6,.65-.03,1.3-.03,1.95,0,.32,.01,.53,.3,.49,.6-.04,.31-.22,.5-.55,.51-.31,0-.62,0-.94,0Z"/><path class="cls-1" d="M18.95,15.18h0c0-.09,0-.18,0-.26-.03-.36-.24-.58-.56-.58-.34,0-.55,.22-.56,.61,0,.17,0,.35,0,.52,.02,.32,.22,.51,.53,.52,.3,.02,.49-.15,.57-.44,.03-.12,.02-.25,.03-.37Zm3.24,.02c0-.11,0-.23,0-.34-.03-.32-.21-.5-.53-.52-.33-.02-.53,.17-.58,.47-.04,.23-.04,.48,0,.71,.05,.31,.27,.49,.58,.47,.31-.02,.5-.21,.52-.53,0-.09,0-.17,0-.26Z"/><path class="cls-1" d="M18.95,15.18c0,.12,0,.25-.03,.37-.07,.29-.27,.46-.57,.44-.31-.02-.51-.2-.53-.52-.01-.17-.01-.35,0-.52,.01-.38,.23-.61,.56-.61,.32,0,.53,.22,.56,.58,0,.09,0,.17,0,.26h0Z"/><path class="cls-1" d="M22.19,15.2c0,.09,0,.18,0,.26-.03,.32-.22,.51-.52,.53-.31,.02-.53-.16-.58-.47-.04-.23-.04-.48,0-.71,.05-.31,.25-.49,.58-.47,.32,.02,.5,.2,.53,.52,.01,.11,0,.22,0,.34Z"/></g></g></g></svg>