<?xml version="1.0" encoding="UTF-8"?><svg id="Layer_2" xmlns="http://www.w3.org/2000/svg" viewBox="0 0 40 40"><defs><style>.cls-1{fill:none;}.cls-2{fill:#fff;stroke:#fff;stroke-miterlimit:10;stroke-width:.31px;}</style></defs><g id="Layer_1-2"><g><rect class="cls-1" width="40" height="40"/><g><path class="cls-2" d="M.25,5.96c.04-.11,.08-.21,.11-.32,.37-1.27,1.47-2.13,2.79-2.16,1.2-.02,2.39,0,3.59,0,8.32,0,16.63,0,24.95,0,.14,0,.28,0,.42,0,.31,.02,.5,.2,.53,.51,.03,.33-.14,.54-.45,.62-.16,.04-.33,.03-.5,.03-9.41,0-18.82,0-28.23,0-.5,0-.97,.07-1.37,.4-.38,.31-.64,.7-.66,1.18-.03,1.27-.01,2.54-.01,3.83H38.57c0-.11,.02-.22,.02-.33,0-1.05,0-2.11,0-3.16,0-1.15-.75-1.9-1.91-1.91-.59,0-1.18,0-1.77,0-.46,0-.71-.21-.72-.57,0-.38,.24-.58,.74-.58,.66,0,1.31-.01,1.97,0,1.55,.04,2.8,1.3,2.85,2.84,0,.24,0,.49,0,.73,0,7.8,0,15.61,0,23.41,0,1.56-.9,2.74-2.35,3.06-.21,.05-.43,.06-.65,.06-1.63,0-3.26,0-4.9,0-.06,0-.13,0-.19,0-.31-.04-.49-.23-.51-.54-.02-.31,.15-.52,.45-.58,.15-.03,.31-.03,.46-.03,1.52,0,3.03,0,4.55,0,1.26,0,1.98-.73,1.98-1.99,0-6.27,0-12.55,0-18.82v-.38H1.41c0,.34,0,.69,0,1.03,0,1.02,0,2.03,0,3.05,0,.33-.03,.62-.38,.76-.36,.14-.57-.08-.78-.33V5.96Z"/><path class="cls-2" d="M.25,17.91c.06-.06,.11-.15,.19-.18,.2-.06,.43-.16,.6-.1,.15,.05,.27,.28,.35,.45,.05,.1,.01,.25,.01,.38,0,3.98,0,7.97,0,11.95,0,1.27,.72,2,1.97,2,3.23,0,6.45,0,9.68,0,.1,0,.2,0,.36,0-.07-.2-.12-.35-.17-.5-.76-2.03-1.52-4.06-2.27-6.1-.23-.62-.05-1.17,.48-1.35,.22-.08,.52-.08,.74,0,3.36,1.23,6.72,2.48,10.07,3.74,.74,.28,.89,.99,.33,1.56-.61,.62-1.23,1.23-1.92,1.92,.26,.22,.47,.45,.72,.62,.12,.09,.31,.11,.46,.11,2.26,0,4.52,0,6.79,0,.15,0,.31,0,.46,.04,.28,.08,.42,.29,.4,.58-.02,.29-.18,.47-.48,.52-.14,.02-.28,.01-.42,.01-1.94,0-3.88,0-5.87,0,.06,.12,.1,.2,.14,.29,.2,.39,.16,.76-.13,1.07-.42,.45-.85,.89-1.31,1.31-.42,.39-.94,.35-1.38-.08-.57-.56-1.13-1.13-1.69-1.69-.07-.07-.15-.14-.25-.23-.6,.6-1.18,1.19-1.77,1.77-.69,.69-1.36,.55-1.71-.36-.22-.58-.45-1.15-.64-1.73-.09-.29-.24-.36-.53-.36-3.19,0-6.38-.04-9.56,.03-1.84,.04-3.16-.62-3.66-2.51v-13.19Zm11.91,7.77l3.48,9.35c.07-.03,.1-.03,.11-.05,.6-.6,1.2-1.2,1.8-1.79,.46-.46,.69-.46,1.16,0,.69,.69,1.38,1.38,2.02,2.03l.99-.94c-.69-.68-1.38-1.37-2.07-2.06-.44-.44-.44-.7,0-1.13,.62-.63,1.25-1.25,1.91-1.91l-9.4-3.5Z"/><path class="cls-2" d="M11.25,21.58c.45-1.27,.86-2.46,1.28-3.64,.04-.12,.08-.25,.14-.36,.16-.29,.41-.39,.71-.28,.31,.11,.43,.37,.35,.68-.07,.27-.18,.53-.28,.8-.53,1.52-1.07,3.05-1.6,4.58-.11,.31-.24,.58-.62,.58-.39,0-.51-.27-.62-.58-.42-1.24-.84-2.47-1.29-3.8-.16,.42-.28,.76-.41,1.1-.33,.92-.65,1.84-.98,2.76-.11,.3-.26,.53-.62,.52-.34-.01-.48-.24-.58-.53-.6-1.75-1.2-3.49-1.79-5.24-.15-.45-.02-.78,.34-.88,.35-.09,.6,.07,.75,.48,.39,1.13,.78,2.26,1.16,3.38,.04,.11,.08,.22,.15,.43,.08-.19,.12-.29,.16-.4,.41-1.15,.82-2.29,1.23-3.44,.1-.29,.25-.51,.58-.52,.35,0,.51,.22,.61,.53,.39,1.16,.79,2.31,1.18,3.46,.03,.1,.07,.19,.14,.37Z"/><path class="cls-2" d="M18.05,21.61c.44-1.23,.84-2.35,1.24-3.47,.06-.16,.11-.31,.17-.47,.09-.27,.27-.44,.56-.44,.31,0,.49,.17,.59,.46,.39,1.14,.78,2.28,1.17,3.42,.04,.13,.09,.26,.17,.48,.4-1.15,.77-2.19,1.14-3.23,.07-.21,.14-.41,.22-.62,.15-.4,.43-.56,.76-.45,.33,.11,.46,.43,.32,.82-.55,1.57-1.1,3.15-1.65,4.72-.08,.22-.15,.44-.23,.65-.1,.28-.28,.46-.59,.45-.3,0-.46-.18-.55-.45-.4-1.19-.81-2.38-1.22-3.57-.03-.08-.06-.17-.12-.33-.07,.18-.13,.29-.17,.42-.4,1.12-.8,2.25-1.2,3.37-.11,.31-.25,.57-.63,.56-.36-.01-.49-.26-.59-.56-.59-1.74-1.19-3.47-1.79-5.2-.14-.41-.06-.69,.22-.84,.35-.18,.71-.01,.86,.43,.4,1.14,.79,2.28,1.18,3.42,.04,.11,.08,.22,.15,.42Z"/><path class="cls-2" d="M30.53,19.6c-.44,1.24-.86,2.42-1.28,3.6-.12,.34-.19,.76-.69,.75-.48,0-.54-.4-.66-.74-.57-1.65-1.13-3.3-1.7-4.95-.02-.06-.04-.12-.06-.18-.1-.35,.02-.66,.32-.77,.32-.12,.64,.02,.77,.38,.25,.69,.48,1.38,.72,2.07,.2,.58,.4,1.16,.63,1.82,.07-.17,.11-.26,.15-.35,.41-1.13,.82-2.27,1.21-3.41,.11-.32,.24-.61,.64-.6,.4,0,.51,.31,.62,.63,.41,1.22,.83,2.43,1.27,3.72,.08-.19,.13-.31,.18-.44,.39-1.11,.78-2.23,1.17-3.34,.1-.29,.25-.51,.58-.53,.45-.02,.69,.38,.52,.88-.48,1.38-.96,2.76-1.45,4.14-.14,.4-.28,.8-.42,1.2-.1,.28-.27,.47-.58,.46-.32,0-.48-.2-.57-.48-.41-1.2-.82-2.4-1.23-3.6-.02-.07-.06-.13-.12-.26Z"/><path class="cls-2" d="M11.76,8.42c-.58,0-1.08-.49-1.08-1.07,0-.57,.47-1.05,1.04-1.07,.58-.02,1.09,.46,1.1,1.05,.01,.58-.47,1.09-1.06,1.09Z"/><path class="cls-2" d="M9.52,7.33c0,.6-.48,1.09-1.07,1.08-.57,0-1.05-.48-1.06-1.06,0-.59,.48-1.09,1.07-1.08,.58,0,1.05,.48,1.05,1.06Z"/><path class="cls-2" d="M4.1,7.34c0-.6,.49-1.08,1.08-1.07,.58,.01,1.04,.48,1.04,1.07,0,.6-.49,1.09-1.08,1.07-.58-.01-1.04-.49-1.04-1.07Z"/></g></g></g></svg>