<?xml version="1.0" encoding="UTF-8"?><svg id="Layer_2" xmlns="http://www.w3.org/2000/svg" viewBox="0 0 40 40"><defs><style>.cls-1,.cls-2{fill:#fff;}.cls-2{stroke:#fff;stroke-miterlimit:10;stroke-width:.2px;}.cls-3{fill:none;}</style></defs><g id="Layer_1-2"><g><rect class="cls-3" width="40" height="40"/><g><path class="cls-2" d="M10.67,39.27c-.37-.18-.77-.31-1.1-.54-.53-.38-.82-.94-.87-1.6-.01-.16-.02-.33-.02-.49,0-11.1,0-22.2,0-33.31,0-.85,.25-1.58,.94-2.11,.4-.31,.85-.48,1.36-.49,.77-.01,1.53,0,2.3,0,.4,0,.65,.24,.65,.58,0,.32-.25,.54-.64,.55-.74,0-1.48,0-2.22,0-.67,.01-1.2,.47-1.22,1.13-.03,.86,0,1.73,0,2.63H30.17c.01-.08,.04-.17,.04-.27,0-.72,0-1.43,0-2.15-.01-.86-.5-1.35-1.37-1.35-4.18,0-8.36,0-12.53,0-.13,0-.25,0-.38,0-.33-.03-.54-.26-.53-.57,.01-.33,.2-.5,.51-.55,.1-.01,.2,0,.3,0,4.19,0,8.38,0,12.57,0,1.56,0,2.55,.97,2.55,2.53,0,11.15,0,22.31,0,33.46,0,1.35-.54,2.03-1.99,2.55H10.67ZM30.2,6.81H9.8v.46c0,8.49,0,16.98,0,25.48,0,.38,.1,.48,.48,.48,6.49-.01,12.97-.01,19.46,0,.38,0,.48-.09,.48-.48-.01-8.5,0-17.01,0-25.51v-.43Zm0,27.57H9.83c-.01,.07-.03,.11-.03,.14,0,.74,0,1.48,0,2.22,0,.93,.49,1.4,1.43,1.4,2.58,0,5.17,0,7.75,0,3.29,0,6.57,0,9.86,0,.78,0,1.32-.44,1.34-1.17,.03-.85,0-1.7,0-2.59Z"/><path class="cls-2" d="M21.58,3.2c.49,0,.98,0,1.47,0,.39,0,.63,.21,.64,.53,.01,.34-.23,.58-.63,.59-.99,0-1.98,0-2.97,0-.41,0-.65-.24-.64-.58,0-.33,.23-.54,.63-.54,.5,0,1,0,1.5,0Z"/><path class="cls-2" d="M18.36,3.75c0,.42-.31,.74-.72,.75-.42,0-.77-.33-.76-.75,0-.4,.34-.74,.74-.74,.41,0,.73,.33,.74,.74Z"/><path class="cls-2" d="M29.39,8.67c0,.19,.02,.38,0,.56-.04,.32-.31,.54-.6,.5-.31-.04-.51-.22-.52-.54,0-.36-.01-.73,0-1.09,.01-.3,.2-.49,.5-.52,.32-.03,.53,.14,.6,.45,.04,.21,.03,.42,.04,.63h-.02Z"/><path class="cls-2" d="M26.54,8.82c0-.12-.01-.25,0-.37,.03-.3,.2-.48,.5-.5,.32-.03,.55,.14,.59,.45,.04,.29,.04,.6,0,.89-.04,.31-.28,.48-.59,.46-.31-.03-.5-.22-.51-.54,0-.12,0-.25,0-.37h0Z"/><path class="cls-2" d="M25.94,9.01c0,.29-.05,.59-.36,.67-.18,.05-.43,0-.58-.1-.29-.2-.28-.96,0-1.15,.15-.1,.41-.14,.58-.09,.31,.09,.36,.38,.35,.67Z"/><path class="cls-2" d="M19.98,36.8c-.3,0-.6,0-.9,0-.32,0-.51-.19-.55-.51-.04-.3,.17-.58,.49-.6,.65-.03,1.3-.03,1.95,0,.32,.01,.53,.3,.49,.6-.04,.31-.22,.5-.55,.51-.31,0-.62,0-.94,0Z"/><path class="cls-1" d="M24.77,21.26c-.09-.06-.18-.12-.28-.17-1.35-.75-1.48-2.6-.28-3.54,.19-.15,.38-.29,.57-.44-.38-.67-.92-1.14-1.67-1.4-.81-.27-1.61-.25-2.4,.06-.2,.08-.4,.15-.6,.22-.15,.06-.3,.06-.46,.01-.26-.09-.51-.16-.77-.26-.85-.33-1.67-.21-2.45,.2-.97,.51-1.51,1.33-1.73,2.37-.2,.94-.08,1.85,.19,2.76,.29,.99,.7,1.92,1.33,2.75,.19,.24,.41,.47,.64,.68,.28,.26,.62,.4,.99,.48h.42c.5-.07,.96-.28,1.44-.42,.35-.11,.7-.03,1.03,.1,.27,.1,.54,.21,.82,.27,.55,.12,1.04-.05,1.47-.38,.51-.39,.9-.89,1.2-1.44,.25-.45,.45-.91,.66-1.38,.09-.2,.04-.34-.15-.47Z"/><path class="cls-1" d="M21.42,14.69c.52-.56,.73-1.24,.72-1.99-1.22,0-2.58,1.5-2.33,2.69,.65,.02,1.19-.24,1.62-.7Z"/></g></g></g></svg>