<?xml version="1.0" encoding="UTF-8"?><svg id="Layer_2" xmlns="http://www.w3.org/2000/svg" viewBox="0 0 40 40"><defs><style>.cls-1{fill:#fff;}.cls-2{fill:none;}</style></defs><g id="Layer_1-2"><g><rect class="cls-2" width="40" height="40"/><g><path class="cls-1" d="M25.48,.51c.47,.21,.97,.36,1.4,.63,.64,.39,1,1.03,1.25,1.72,.54,1.5,1.09,3,1.63,4.5,.06,.18,.12,.3,.36,.31,1.78,.03,3.22,1.45,3.21,3.48-.02,4.12,0,8.25,0,12.37,0,1.8,0,3.6,0,5.4,0,1.38-.58,2.46-1.85,3.08-.39,.19-.84,.26-1.28,.32-.26,.03-.36,.12-.45,.35-.52,1.47-1.07,2.93-1.59,4.4-.44,1.26-1.25,2.09-2.58,2.37-.03,0-.06,.04-.09,.06h-7.69c-.34-.12-.7-.21-1.03-.37-.81-.4-1.33-1.07-1.63-1.92-.55-1.52-1.11-3.05-1.65-4.57-.07-.21-.17-.29-.4-.3-1.87-.12-3.11-1.44-3.15-3.33-.01-.59,0-1.19,0-1.84-.21,0-.39,0-.58,0-1.17-.03-1.95-.77-2.02-1.94-.02-.46-.02-.91,0-1.37,.07-1.11,.8-1.82,1.9-1.88,.21-.01,.42,0,.66,0v-2.61c-.33,0-.65,0-.98,0-1.5,0-2.25-.76-2.25-2.24,0-.74,0-1.47,0-2.21,.01-1.21,.82-2.02,2.03-2.05,.39,0,.78,0,1.22,0,0-.62,0-1.21,0-1.81,0-1.12,.41-2.05,1.31-2.74,.54-.41,1.16-.62,1.84-.64,.23,0,.32-.09,.4-.3,.53-1.48,1.08-2.95,1.6-4.43,.45-1.27,1.27-2.11,2.62-2.38,.04,0,.07-.04,.1-.05,2.56,0,5.13,0,7.69,0ZM11.23,19.98c0,2.94,0,5.89,0,8.83,0,.25,0,.51,.06,.75,.23,.95,.99,1.48,2.07,1.48,5.47,0,10.94,0,16.4,0,1.48,0,2.25-.77,2.25-2.25,0-5.86,0-11.72,0-17.58,0-1.49-.77-2.26-2.24-2.26-5.44,0-10.88,.02-16.33-.01-1.25,0-2.26,.8-2.23,2.24,.05,2.93,.01,5.86,.01,8.79ZM28.46,7.64c-.03-.12-.05-.21-.09-.31-.5-1.37-.99-2.74-1.49-4.1-.36-.98-1.01-1.42-2.05-1.43-2.13,0-4.26,0-6.39,0-1.06,0-1.72,.46-2.08,1.44-.5,1.36-.98,2.71-1.48,4.07-.04,.1-.06,.21-.09,.32h13.68Zm-13.68,24.72c.04,.14,.08,.26,.12,.38,.48,1.33,.97,2.67,1.45,4,.37,1.01,1.01,1.46,2.11,1.46,2.09,0,4.19,0,6.28,0,1.17,0,1.79-.43,2.18-1.52,.48-1.32,.96-2.64,1.44-3.96,.04-.11,.07-.23,.11-.36H14.78ZM9.9,14.15c-.45,0-.88-.02-1.31,0-.39,.03-.61,.28-.62,.69-.01,.84-.01,1.67,0,2.51,0,.33,.16,.62,.51,.65,.46,.04,.93,.01,1.41,.01v-3.87Zm0,9.11c-.25,0-.45-.01-.65,0-.37,.03-.6,.23-.61,.59-.02,.47-.02,.93,0,1.4,.01,.3,.19,.5,.48,.55,.25,.04,.51,.03,.78,.05v-2.6Z"/><path class="cls-1" d="M17.01,29.08c-1.44-.04-2.59-1.24-2.54-2.63,.05-1.45,1.24-2.6,2.63-2.55,1.44,.05,2.59,1.23,2.56,2.63-.04,1.45-1.23,2.6-2.65,2.56Zm.05-1.3c.72,0,1.31-.58,1.31-1.3,0-.7-.58-1.28-1.28-1.29-.71,0-1.31,.59-1.3,1.31,0,.71,.57,1.28,1.28,1.28Z"/><path class="cls-1" d="M26.17,29.09c-1.43,0-2.59-1.15-2.59-2.58,0-1.43,1.19-2.63,2.61-2.61,1.42,.02,2.58,1.19,2.57,2.61,0,1.43-1.16,2.58-2.59,2.58Zm1.29-2.57c0-.72-.58-1.32-1.29-1.32-.7,0-1.28,.58-1.29,1.28,0,.71,.55,1.29,1.26,1.31,.73,.02,1.32-.55,1.33-1.27Z"/><path class="cls-1" d="M17.05,16.11c-.98,0-1.95,0-2.93,0-.14,0-.28,0-.41-.03-.35-.07-.52-.31-.52-.65,0-.33,.25-.59,.61-.6,.61-.02,1.22-.01,1.83-.01,1.48,0,2.97,0,4.45,0,.15,0,.31,0,.45,.04,.31,.11,.46,.36,.41,.69-.05,.38-.31,.55-.66,.56-.48,.02-.96,0-1.45,0-.6,0-1.19,0-1.79,0Z"/><path class="cls-1" d="M16.12,10.91c.75,0,1.5,0,2.24,0,.33,0,.56,.18,.63,.5,.07,.29-.04,.53-.3,.68-.12,.07-.26,.11-.4,.11-1.47,0-2.94,.01-4.41,0-.43,0-.7-.28-.71-.64,0-.38,.27-.64,.73-.65,.73-.01,1.47,0,2.2,0h0Z"/><path class="cls-1" d="M27.16,12.21c-.67,0-1.34,0-2.01,0-.14,0-.28-.01-.41-.04-.33-.07-.5-.3-.49-.63,0-.33,.18-.55,.52-.61,.14-.02,.28-.03,.42-.03,1.32,0,2.64,0,3.95,0,.13,0,.25,0,.38,.02,.34,.05,.56,.29,.55,.62,0,.35-.19,.57-.54,.63-.12,.02-.25,.03-.38,.03-.66,0-1.32,0-1.98,0Z"/><path class="cls-1" d="M15.76,21.3c-.61,0-1.22,0-1.82,0-.46,0-.74-.25-.75-.63,0-.39,.29-.66,.76-.66,1.22,0,2.43,0,3.65,0,.48,0,.77,.26,.77,.65,0,.39-.29,.64-.78,.64-.61,0-1.22,0-1.82,0Z"/><path class="cls-1" d="M15.77,17.41c.61,0,1.22,0,1.82,0,.48,0,.77,.26,.76,.65,0,.38-.29,.64-.75,.64-1.23,0-2.46,0-3.69,0-.46,0-.74-.26-.75-.64,0-.39,.29-.65,.77-.65,.61,0,1.22,0,1.82,0Z"/></g></g></g></svg>