<svg xmlns="http://www.w3.org/2000/svg" viewBox="0 0 40 40"><defs><style>.cls-1{fill:none;}.cls-2{fill:#fff;}</style></defs><g id="Layer_2" data-name="Layer 2"><g id="Layer_1-2" data-name="Layer 1"><rect class="cls-1" width="40" height="40"/><path class="cls-2" d="M4,27.41H2.81a1.77,1.77,0,0,1-1.9-1.8c0-2.49-.07-5,.06-7.47a5.64,5.64,0,0,1,4.42-5,4.79,4.79,0,0,1,.93-.06H11a5.17,5.17,0,0,1,5.22,3.79c.19.58.28,1.2.42,1.84H20v-.44c0-2.61,0-5.22,0-7.83a2.53,2.53,0,0,1,2.59-2.58c.53,0,1.06,0,1.59,0a1.52,1.52,0,0,1,0,3H22.62V29.57H24a1.53,1.53,0,1,1,0,3.06H22.41A2.41,2.41,0,0,1,20,30.18V21.76H16.52v.75c0,1,0,2,0,2.94a1.77,1.77,0,0,1-2,2H13.49V28q-.11,4.17-.22,8.32a1.86,1.86,0,0,1-2.06,2H6.28a1.87,1.87,0,0,1-2-2C4.2,33.46,4.12,30.6,4,27.75,4,27.65,4,27.56,4,27.41Zm-.54-3.06H4.61a2,2,0,0,1,2.11,2.08L7,35.23c0,.14,0,.28,0,.41h3.66c0-.76,0-1.5,0-2.23,0-2.34.11-4.67.18-7a2,2,0,0,1,2.13-2h.92a1.17,1.17,0,0,0,0-.16c0-1.89,0-3.78,0-5.67a3.22,3.22,0,0,0-1.16-2.35,1.9,1.9,0,0,0-1.33-.52c-1.73,0-3.47,0-5.2,0a2.39,2.39,0,0,0-1.21.4A3.43,3.43,0,0,0,3.5,19c0,1.33,0,2.66,0,4Z"/><path class="cls-2" d="M8.68,11.76a5.46,5.46,0,1,1,5.43-5.45A5.43,5.43,0,0,1,8.68,11.76Zm2.7-5.47A2.7,2.7,0,0,0,8.66,3.58a2.74,2.74,0,1,0,2.72,2.71Z"/><path class="cls-2" d="M33.11,9.61a19.26,19.26,0,0,1,2.52,0A4.07,4.07,0,0,1,39,13.22a14.7,14.7,0,0,1,.06,2,1.3,1.3,0,0,1-1.33,1.35,1.35,1.35,0,0,1-1.26-1.46,9.5,9.5,0,0,0-.16-1.85,1.26,1.26,0,0,0-1.45-1.08H31.36c-.63,0-.92.15-1.07.77A10.12,10.12,0,0,0,30,15a1.52,1.52,0,0,1-.94,1.44,1.49,1.49,0,0,1-1.72-.35,1.24,1.24,0,0,1-.36-.66,6.09,6.09,0,0,1,.4-3.43,4.18,4.18,0,0,1,3.85-2.43h1.87Z"/><path class="cls-2" d="M32.84,32.2c.74,0,1.47-.05,2.2,0a4.36,4.36,0,0,1,4.06,4.15,13.64,13.64,0,0,1,0,1.43,1.31,1.31,0,0,1-1.36,1.36,1.33,1.33,0,0,1-1.23-1.48A6.78,6.78,0,0,0,36.35,36a1.42,1.42,0,0,0-1.57-1.19H31a1.08,1.08,0,0,0-1.25.93,10.87,10.87,0,0,0-.16,2.06,1.3,1.3,0,0,1-1.67,1.31,1.15,1.15,0,0,1-.89-1,7.38,7.38,0,0,1,.26-3.3,3.88,3.88,0,0,1,3.68-2.6h1.91Z"/><path class="cls-2" d="M36.69,27.37a3.93,3.93,0,1,1-3.95-3.93A4,4,0,0,1,36.69,27.37Zm-3.95,1.22A1.22,1.22,0,0,0,34,27.39a1.23,1.23,0,0,0-1.22-1.22,1.21,1.21,0,0,0,0,2.42Z"/><path class="cls-2" d="M37,4.79A3.92,3.92,0,1,1,33,.85,3.93,3.93,0,0,1,37,4.79ZM33,3.58a1.23,1.23,0,0,0-1.21,1.23,1.22,1.22,0,0,0,2.44,0A1.22,1.22,0,0,0,33,3.58Z"/></g></g></svg>