<svg xmlns="http://www.w3.org/2000/svg" viewBox="0 0 40 40"><defs><style>.cls-1{fill:none;}.cls-2{fill:#fff;}</style></defs><g id="Layer_2" data-name="Layer 2"><g id="Layer_1-2" data-name="Layer 1"><rect class="cls-1" width="40" height="40"/><path class="cls-2" d="M39.5,24.19V25a8.47,8.47,0,0,1-.77,1.67q-2.64,3.63-5.38,7.19a8.09,8.09,0,0,1-6.8,3.33c-5.54,0-11.08,0-16.63,0a.4.4,0,0,0-.45.28,4.31,4.31,0,0,1-.56.85A3.65,3.65,0,0,1,6.83,39.5H1.34A1.33,1.33,0,0,1,.5,38.27c0-6.06,0-12.11,0-18.17a1.14,1.14,0,0,1,1.23-1.24c1.52,0,3.05,0,4.57,0A3.34,3.34,0,0,1,9.4,20.73,7.92,7.92,0,0,1,9.83,22c.69-.31,1.41-.62,2.12-.95.08,0,.12-.23.12-.34,0-1.36,0-2.72,0-4.08,0-.09,0-.19,0-.31l-.32.08a3.29,3.29,0,0,1-3.16-.87,3.41,3.41,0,0,1,.35-5.23q5.6-4.49,11.18-8.94a3.43,3.43,0,0,1,4.54,0l1.15.92V1.92c0-1,.41-1.42,1.4-1.42h4.08a1.19,1.19,0,0,1,1.37,1.37c0,1.86,0,3.71,0,5.56a.61.61,0,0,0,.25.55c1,.77,2,1.55,2.94,2.35a3.42,3.42,0,0,1-3,6h-.2v6.84c.3-.33.55-.61.82-.88a3.38,3.38,0,0,1,5.32.26A7.6,7.6,0,0,1,39.5,24.19ZM9.8,34.93h.49c5.41,0,10.82,0,16.22,0a6,6,0,0,0,5.13-2.56q2.59-3.47,5.2-6.94A1.83,1.83,0,0,0,37.1,25a1.11,1.11,0,0,0-.69-1.53,1.21,1.21,0,0,0-1.32.45c-1.57,1.7-3.16,3.39-4.74,5.1a3.56,3.56,0,0,1-2.64,1.24h-9.9a1.13,1.13,0,0,1-1.16-1.12A1.15,1.15,0,0,1,17.82,28h8.94a1.25,1.25,0,0,0,1-.37,1.06,1.06,0,0,0,.22-1.2,1.12,1.12,0,0,0-1.11-.72c-2.13,0-4.26,0-6.4,0a1.82,1.82,0,0,1-1.22-.41c-.47-.38-.91-.78-1.39-1.14a5.62,5.62,0,0,0-4.7-1.07,6.37,6.37,0,0,0-3.07,1.73.76.76,0,0,0-.3.64q0,4.52,0,9Zm20.5-9.16a2.38,2.38,0,0,0,.06-.37c0-3.47,0-6.93,0-10.4a.7.7,0,0,0-.23-.46c-1.63-1.32-3.26-2.62-4.9-3.93L22.37,8.33l-.17.12c-2.55,2-5.1,4.07-7.63,6.12a.61.61,0,0,0-.2.44q0,2.69,0,5.37c0,.1,0,.19,0,.3a8.26,8.26,0,0,1,4.54,1.43v-.44c0-1.27,0-2.54,0-3.81a1.17,1.17,0,0,1,1.29-1.29h4.23a1.18,1.18,0,0,1,1.33,1.34v5.5C28.79,23.61,29.1,23.78,30.3,25.77ZM2.81,37.21H6.23a1.16,1.16,0,0,0,1.28-1.3V22.44a1.17,1.17,0,0,0-1.29-1.3H3.1a2.85,2.85,0,0,0-.29,0ZM11,14.29a6.63,6.63,0,0,0,.83-.47l9.55-7.63a1.28,1.28,0,0,1,2,0l9.53,7.63a2.18,2.18,0,0,0,.31.22,1.13,1.13,0,0,0,1.4-1.75,3.34,3.34,0,0,0-.4-.35L23.29,3.22a1.23,1.23,0,0,0-1.86,0l-8.62,6.89c-.86.69-1.73,1.37-2.58,2.07a1.11,1.11,0,0,0-.35,1.3A1.37,1.37,0,0,0,11,14.29ZM21.24,23.4h2.23V18.88H21.24ZM28.07,2.8c0,.35,0,.66,0,1a.58.58,0,0,0,.27.57c.58.45,1.15.92,1.72,1.38l.27.18V2.8Z"/></g></g></svg>