<svg xmlns="http://www.w3.org/2000/svg" viewBox="0 0 40 40"><defs><style>.cls-1{fill:none;}.cls-2{fill:#fff;}</style></defs><g id="Layer_2" data-name="Layer 2"><g id="Layer_1-2" data-name="Layer 1"><rect class="cls-1" width="40" height="40"/><path class="cls-2" d="M35.16,2.2H4.57A3.51,3.51,0,0,0,.86,5.12a.5.5,0,0,1,0,.13V29.67c.06.21.11.43.18.64a3.5,3.5,0,0,0,3.43,2.41H18.73V35H11.64a1.12,1.12,0,0,0-1.16,1.42,1.1,1.1,0,0,0,1,.8c.41,0,.82,0,1.23,0H27.91a2.58,2.58,0,0,0,.48,0,1.13,1.13,0,0,0,.9-1.16,1.12,1.12,0,0,0-1.11-1H21V32.72H35.16A3.52,3.52,0,0,0,38.92,29v-23A3.52,3.52,0,0,0,35.16,2.2Zm1.51,27.19a1.26,1.26,0,0,1-1.19,1.09h-.4q-15.22,0-30.43,0c-1,0-1.71-.55-1.61-1.63a6,6,0,0,0,0-.6H36.67A10.46,10.46,0,0,1,36.67,29.39Zm0-3.41H3V6c0-1,.47-1.52,1.52-1.52H35.18c1,0,1.51.47,1.51,1.5V26ZM19.84,7.31a8.05,8.05,0,1,0,8.06,8A8,8,0,0,0,19.84,7.31ZM17.21,10.2c-.16,1.26-.32,2.52-.49,3.79,0,.09-.15.24-.23.24-.75,0-1.51,0-2.26,0C14.09,13,15.76,10.79,17.21,10.2Zm-3.06,6.29h2.48c.2,1.35.39,2.69.59,4.05A5.93,5.93,0,0,1,14.15,16.49Zm5.71,4.45a12.42,12.42,0,0,1-.92-4.44h1.83A12.4,12.4,0,0,1,19.86,20.94ZM19,14.21a11.34,11.34,0,0,1,.9-4.27,11.13,11.13,0,0,1,.92,4.27Zm6.56,0H23.08q-.3-2-.6-4A5.52,5.52,0,0,1,25.51,14.21Zm-3,6.33c.2-1.35.4-2.68.59-4h2.48A5.85,5.85,0,0,1,22.49,20.54Z"/></g></g></svg>