<?xml version="1.0" encoding="UTF-8"?><svg id="Layer_2" xmlns="http://www.w3.org/2000/svg" viewBox="0 0 40 40"><defs><style>.cls-1{fill:#0091ff;}.cls-2{fill:none;}</style></defs><g id="Layer_1-2"><g><rect class="cls-2" width="40" height="40"/><path class="cls-1" d="M38,21.1c-1.81,.03-3.63,0-5.44,0-.99,0-1.4,.41-1.4,1.4,0,4.34,0,8.68,0,13.01v.43h-3.93v-.42c0-1.78,0-3.55,0-5.33,0-.93-.42-1.34-1.34-1.34-1.85,0-3.7,0-5.56,0-.98,0-1.39,.42-1.39,1.41,0,1.77,0,3.53,0,5.29v.39h-3.81v-.46c0-3.42,0-6.84,0-10.25,0-.96-.42-1.38-1.39-1.38-1.83,0-3.65,0-5.48,0-1.02,0-1.42,.4-1.42,1.42,0,3.41,0,6.81,0,10.22v.45H3.56v-.47c0-4.31,0-8.63,0-12.94,0-.2-.01-.4-.06-.59-.11-.45-.5-.78-.95-.83-.47-.06-.92,.18-1.15,.6-.05,.1-.1,.2-.15,.29v15.37c.26,.68,.76,.91,1.49,.91,11.75-.01,23.5-.01,35.25,0,.71,0,1.2-.23,1.45-.91v-15.37c-.25-.68-.74-.92-1.45-.91Zm-25.19,14.85h-3.65v-9.77h3.65v9.77Zm12.12,0h-3.66v-4.79h3.66v4.79Zm12.21,0h-3.66v-12.53h3.66v12.53Zm.91-26.92c-2.91-2.2-6.02-4.02-9.46-5.27-5.09-1.85-10.2-2.02-15.37-.37-3.01,.96-5.8,2.37-8.43,4.13-.72,.48-1.41,1.02-2.12,1.52-.7,.48-1.22,1.08-1.4,1.93v.67c.17,.86,.69,1.47,1.39,1.94,1.36,.92,2.68,1.89,4.08,2.74,2.5,1.51,5.17,2.63,8,3.35,4.15,1.05,8.26,.92,12.35-.31,4.04-1.21,7.64-3.24,10.98-5.77,.68-.51,1.21-1.09,1.39-1.94v-.67c-.18-.86-.73-1.43-1.4-1.94Zm-26.49,7.16c-2.82-1.19-5.41-2.77-7.81-4.66-.19-.15-.24-.26-.02-.43,2.78-2.19,5.79-3.96,9.12-5.17,.05-.02,.11-.03,.19-.04-2.35,3.63-2.35,7.23,.03,10.88-.53-.2-1.03-.38-1.51-.58Zm8.81,1.9c-3.71,.02-6.79-3.05-6.79-6.78,0-3.72,3.02-6.75,6.75-6.77,3.73-.02,6.79,3.01,6.81,6.75,.02,3.72-3.03,6.78-6.77,6.8Zm16.58-6.55c-2.75,2.16-5.73,3.92-9.03,5.12-.08,.03-.16,.05-.33,.11,1.22-1.67,1.83-3.47,1.83-5.44,0-1.98-.59-3.78-1.72-5.46,.51,.2,1.02,.38,1.52,.59,2.78,1.18,5.34,2.73,7.71,4.61,.22,.18,.26,.28,.01,.47ZM20.32,6.57c-2.61,.01-4.73,2.15-4.73,4.75,0,2.62,2.15,4.76,4.77,4.75,2.63-.01,4.77-2.16,4.75-4.77-.02-2.63-2.17-4.75-4.79-4.73Z"/></g></g></svg>