<?xml version="1.0" encoding="UTF-8"?><svg id="Layer_2" xmlns="http://www.w3.org/2000/svg" viewBox="0 0 40 40"><defs><style>.cls-1{fill:#0091ff;}.cls-2{fill:none;}</style></defs><g id="Layer_1-2"><g><rect class="cls-2" width="40" height="40"/><g><path class="cls-1" d="M.46,5.79c.18,0,.36,.02,.53,.02,12.67,0,25.33,0,38,0h.55v28.38h-.51c-12.68,0-25.36,0-38.04,0-.18,0-.36,.01-.53,.02V5.79ZM2.76,31.87H37.25V8.13H2.76V31.87Z"/><path class="cls-1" d="M7.87,22.94V12.69h2.28v10.22h2.1v2.28h-2.08v2.11h-2.3v-2.09h-2.1v-2.28h2.1Z"/><path class="cls-1" d="M15.19,12.68h2.29v2.11h2.11v2.28h-2.09v10.24h-2.28v-10.23h-2.11v-2.28h2.09v-2.12Z"/><path class="cls-1" d="M24.83,27.32h-2.3v-2.9h-2.1v-2.28h2.09V12.69h2.3v9.43h2.1v2.28h-2.09v2.92Z"/><path class="cls-1" d="M27.77,19.53v-2.3h2.1v-4.55h2.27v4.52h2.11v2.31h-2.09v7.79h-2.28v-7.78h-2.11Z"/></g></g></g></svg>