<?xml version="1.0" encoding="UTF-8"?><svg id="Layer_2" xmlns="http://www.w3.org/2000/svg" viewBox="0 0 40 40"><defs><style>.cls-1{fill:#fff;}.cls-2{fill:none;}</style></defs><g id="Layer_2-2"><g><rect class="cls-2" width="40" height="40"/><g><path class="cls-1" d="M38.91,25.47c-.15,.25-.25,.54-.45,.75-.42,.43-.96,.55-1.53,.34-.57-.21-.89-.64-.96-1.24-.02-.16-.01-.32-.01-.48,0-5.87,0-11.75,0-17.62,0-1.28-.5-2.29-1.67-2.84-.43-.2-.94-.31-1.42-.31-8.58-.02-17.17-.02-25.75-.01-1.8,0-3.07,1.27-3.07,3.07,0,8.58,0,17.17,0,25.75,0,1.84,1.28,3.09,3.13,3.09,5.89,0,11.77,0,17.66,0,.27,0,.55,.02,.8,.11,.58,.22,.9,.67,.94,1.29,.04,.59-.3,1.14-.84,1.4-.11,.05-.22,.1-.33,.15H6.33c-.05-.02-.11-.06-.16-.07-2.08-.33-3.59-1.45-4.5-3.34-.28-.57-.39-1.23-.58-1.84V6.33c.02-.05,.06-.11,.07-.16,.33-2.08,1.45-3.59,3.34-4.5,.57-.28,1.23-.39,1.84-.58h27.34c.05,.02,.11,.06,.16,.07,2.08,.33,3.59,1.45,4.5,3.34,.28,.57,.39,1.23,.58,1.84V25.47Z"/><path class="cls-1" d="M33.96,38.91c-.76-.17-1.5-.38-2.12-.88-.22-.18-.44-.36-.64-.56-2.59-2.59-5.19-5.19-7.77-7.8-.27-.28-.49-.66-.6-1.03-.54-1.84-1.04-3.69-1.55-5.54-.27-.97,.11-1.78,.98-1.99,.3-.07,.67-.05,.97,.04,1.85,.54,3.7,1.1,5.54,1.68,.31,.1,.63,.3,.86,.53,2.65,2.63,5.28,5.28,7.91,7.92,.71,.71,1.16,1.55,1.3,2.55,0,.05,.04,.09,.06,.13v1.03c-.02,.06-.05,.11-.06,.17-.2,1.24-.82,2.21-1.83,2.94-.61,.44-1.31,.64-2.02,.8h-1.03Zm-9.16-14.21c.28,.99,.52,1.91,.79,2.81,.05,.15,.16,.3,.28,.42,1.65,1.66,3.3,3.31,4.95,4.97,.08,.08,.16,.14,.21,.19l2.12-2.08c-1.78-1.77-3.57-3.55-5.36-5.33-.04-.04-.09-.09-.15-.11-.92-.28-1.85-.57-2.84-.87Zm8.4,10.57c.42,.49,.93,.81,1.63,.63,.61-.15,.98-.56,1.1-1.16,.13-.67-.19-1.16-.65-1.55l-2.08,2.08Z"/><path class="cls-1" d="M19.97,10.91c-3.29,0-6.57,0-9.86,0-.68,0-1.2-.25-1.49-.88-.42-.92,.2-1.97,1.21-2.07,.1,0,.2,0,.3,0,6.59,0,13.17,0,19.76,0,.76,0,1.29,.32,1.54,.93,.37,.92-.25,1.93-1.25,2.02-.15,.01-.3,0-.44,0-3.25,0-6.5,0-9.75,0Z"/><path class="cls-1" d="M20,16.82c-3.3,0-6.6,0-9.9,0-.68,0-1.2-.25-1.49-.88-.42-.92,.2-1.97,1.21-2.07,.11-.01,.22,0,.33,0,6.56,0,13.13,0,19.69,0,.81,0,1.36,.33,1.59,.96,.34,.92-.29,1.9-1.27,1.99-.15,.01-.3,0-.44,0-3.24,0-6.48,0-9.71,0Z"/><path class="cls-1" d="M13.37,19.78c1.11,0,2.22,0,3.32,0,.88,0,1.53,.63,1.53,1.46,0,.83-.64,1.48-1.51,1.49-2.25,0-4.51,0-6.76,0-.75,0-1.32-.51-1.46-1.22-.12-.65,.24-1.34,.86-1.59,.23-.09,.5-.13,.75-.13,1.08-.01,2.17,0,3.25,0Z"/></g></g></g></svg>