<?xml version="1.0" encoding="UTF-8"?><svg id="Layer_2" xmlns="http://www.w3.org/2000/svg" viewBox="0 0 40 40"><defs><style>.cls-1{fill:#0091ff;}.cls-2{fill:none;}</style></defs><g id="Layer_1-2"><g><rect class="cls-2" width="40" height="40"/><g><path class="cls-1" d="M33.4,7.64c-1.6,1.21-3.19,2.41-4.78,3.62-.8,.6-1.6,1.2-2.39,1.81-.38,.3-.78,.44-1.26,.43-1.58-.02-3.17,0-4.75,0-2.43,0-4.08,1.65-4.1,4.09-.01,1.62-.01,3.23,0,4.85,.02,2.46,1.67,4.09,4.14,4.09,1.58,0,3.17,0,4.75,0,.45,0,.83,.13,1.18,.4,2.3,1.74,4.61,3.46,6.9,5.21,.26,.2,.43,.19,.71,.05,1.5-.75,2.95-.61,4.24,.44,1.3,1.05,1.71,2.47,1.29,4.08-.39,1.5-1.69,2.6-3.24,2.8-2.68,.34-4.88-2.04-4.29-4.67,.06-.25,.03-.41-.2-.57-2.2-1.64-4.38-3.29-6.58-4.93-.17-.12-.41-.2-.62-.2-1.51-.02-3.02,0-4.54-.02-3.5-.06-6.31-2.88-6.36-6.39-.03-1.8-.03-3.6,0-5.4,.05-3.56,2.93-6.39,6.48-6.4,1.47,0,2.94,0,4.41,0,.21,0,.45-.08,.62-.2,2.19-1.63,4.36-3.27,6.54-4.9,.25-.18,.28-.35,.23-.64-.31-1.58,.19-2.9,1.46-3.86,1.3-.98,2.75-1.09,4.18-.32,1.4,.76,2.11,2,2.03,3.6-.15,2.97-3.25,4.64-5.84,3.19-.07-.04-.15-.08-.24-.13Zm3.49-3.25c0-.73-.56-1.3-1.3-1.3-.71,0-1.28,.56-1.29,1.27,0,.73,.55,1.32,1.28,1.32,.73,0,1.3-.56,1.31-1.29Zm-1.31,29.92c-.73,0-1.29,.58-1.28,1.31,0,.74,.6,1.3,1.36,1.29,.69-.01,1.23-.59,1.23-1.32,0-.73-.57-1.29-1.31-1.28Z"/><path class="cls-1" d="M21.28,36.97v2.51c-1.34-.09-2.7,.21-4.01-.29-1.5-.57-2.44-2.03-2.47-3.73-.01-.77-.04-.71-.73-1.09-.59-.32-.93-.22-1.4,.25-1.59,1.6-3.93,1.58-5.56,.01-.61-.58-1.2-1.18-1.79-1.79-1.61-1.68-1.55-4.11,.17-5.68,.38-.35,.36-.59,.21-1.05-.23-.72-.59-.93-1.36-.95-2.19-.08-3.7-1.62-3.81-3.79-.05-.95-.05-1.92,.01-2.87,.14-2.14,1.76-3.69,3.91-3.7,.66,0,.94-.19,1.19-.8,.25-.59,.16-.9-.27-1.34-1.63-1.63-1.59-4.04,.05-5.66,.57-.56,1.14-1.12,1.72-1.68,1.75-1.68,4.18-1.6,5.79,.21,.27,.3,.46,.29,.83,.18,.81-.24,1.07-.65,1.09-1.53,.04-2.06,1.61-3.57,3.67-3.69,.91-.05,1.82,0,2.77,0V3.09c-.13,0-.27,0-.41,0-.71,0-1.43,0-2.14,0-.76,.01-1.29,.54-1.3,1.3-.01,.56,0,1.12,0,1.67,0,.77-.32,1.17-1.03,1.45-.89,.34-1.77,.71-2.64,1.1-.68,.3-1.18,.25-1.72-.27-.39-.38-.76-.77-1.15-1.15-.62-.6-1.36-.6-1.97,0-.58,.57-1.16,1.15-1.72,1.73-.56,.58-.57,1.33-.02,1.92,.37,.4,.76,.78,1.13,1.17,.54,.57,.6,1.05,.28,1.75-.39,.87-.75,1.75-1.09,2.64-.25,.66-.66,1-1.37,1.02-.56,.01-1.11,0-1.67,0-.79,.01-1.32,.53-1.33,1.31-.01,.84-.01,1.69,0,2.53,.01,.79,.54,1.31,1.32,1.33,.56,.01,1.11,0,1.67,0,.76,.01,1.15,.33,1.43,1.05,.33,.88,.7,1.75,1.08,2.6,.31,.7,.26,1.2-.28,1.75-.38,.39-.77,.76-1.15,1.15-.56,.59-.57,1.32-.02,1.91,.57,.6,1.15,1.2,1.73,1.78,.6,.61,1.35,.6,1.97,0,.4-.39,.78-.79,1.18-1.18,.5-.49,1-.55,1.64-.27,.9,.39,1.81,.77,2.72,1.13,.66,.26,.98,.67,1,1.39,0,.56,0,1.12,0,1.67,.02,.79,.53,1.3,1.33,1.32,.81,.02,1.63,.01,2.44,.02,.01,0,.02,.01,.09,.04Z"/><path class="cls-1" d="M20.03,21.29v-2.59h.52c3.65,0,7.3,0,10.96,0,.31,0,.47-.08,.6-.38,.76-1.64,2.61-2.55,4.33-2.16,1.8,.41,3.04,1.96,3.04,3.8,0,1.81-1.26,3.41-3,3.79-1.8,.4-3.6-.47-4.37-2.13-.13-.29-.29-.35-.58-.35-3.65,0-7.3,0-10.96,0h-.54Zm16.86-1.29c0-.73-.57-1.3-1.3-1.3-.73,0-1.29,.58-1.29,1.31,0,.71,.57,1.27,1.28,1.28,.73,0,1.31-.56,1.31-1.29Z"/></g></g></g></svg>