<?xml version="1.0" encoding="UTF-8"?><svg id="Layer_2" xmlns="http://www.w3.org/2000/svg" viewBox="0 0 28 28"><defs><style>.cls-1{fill:#0091ff;}.cls-2{fill:none;}</style></defs><g id="Layer_1-2"><g><rect class="cls-2" width="28" height="28"/><path class="cls-1" d="M8.05,21.61v-6.77c-.82,0-1.63,.02-2.44,0-.4-.01-.82-.04-1.2-.15-1.67-.49-2.73-1.61-3.05-3.31-.31-1.68,.29-3.07,1.63-4.12,.15-.12,.23-.24,.26-.43,.46-2.71,2.78-4.99,5.51-5.41,2.29-.36,4.28,.28,5.94,1.89,.12,.11,.22,.14,.37,.1,1.76-.4,3.32,0,4.67,1.2,.08,.07,.22,.13,.32,.12,1.69-.15,3.01,.48,4,1.84,.08,.11,.19,.21,.31,.27,1.75,.9,2.67,2.86,2.22,4.73-.46,1.93-2.14,3.27-4.12,3.28-.83,0-1.66,0-2.51,0v5.06h1.82c.63-1.51,2.07-1.86,3.04-1.6,1.15,.31,1.93,1.32,1.91,2.52-.01,1.15-.84,2.16-1.97,2.42-1.05,.24-2.39-.19-2.98-1.63h-.38c-.72,0-1.43,0-2.15,0-.69,0-1.01-.32-1.01-1,0-1.82,0-3.63,0-5.45v-.31h-3.38v6.9c.69,.27,1.2,.74,1.49,1.44,.52,1.28-.08,2.74-1.35,3.28-1.26,.54-2.73-.02-3.31-1.26-.58-1.25-.05-2.75,1.2-3.34,.21-.1,.27-.2,.27-.43-.01-2.1,0-4.2,0-6.29v-.3h-3.39v.32c0,2.37,0,4.74,0,7.11,0,.7-.31,1.01-1.02,1.02-.84,0-1.68,0-2.52,0-.28,.69-.74,1.21-1.43,1.49-1.28,.53-2.75-.06-3.3-1.32-.55-1.27,0-2.75,1.26-3.32,1.26-.58,2.75-.05,3.35,1.2,.1,.21,.21,.28,.43,.27,.5-.02,1,0,1.52,0Zm5.94-8.46c2.83,0,5.65,0,8.48,0,1.23,0,2.25-.86,2.49-2.08,.23-1.16-.42-2.34-1.55-2.8-.3-.12-.52-.31-.67-.59-.57-1.02-1.7-1.49-2.82-1.2-.41,.11-.74,.01-1.02-.3-1.06-1.19-2.42-1.51-3.91-.98-.18,.07-.43,.12-.59,.05-.24-.1-.46-.29-.63-.48-1.27-1.38-2.84-2-4.69-1.68-2.33,.4-3.9,2.09-4.21,4.44-.06,.43-.24,.7-.61,.91-.79,.46-1.22,1.17-1.26,2.08-.06,1.46,1.09,2.63,2.58,2.63,2.81,0,5.62,0,8.43,0Zm10.19,8.46c.46,0,.85-.38,.85-.84,0-.46-.37-.84-.83-.85-.47,0-.86,.38-.86,.85,0,.46,.38,.84,.84,.84Zm-20.34,0c-.46,0-.85,.37-.86,.83,0,.47,.38,.86,.85,.86,.46,0,.84-.38,.84-.84,0-.46-.38-.84-.84-.85Zm10.16,3.38c.46,0,.85-.37,.85-.83,0-.46-.36-.85-.83-.86-.47-.01-.87,.37-.87,.84,0,.46,.38,.84,.84,.85Z"/></g></g></svg>