<?xml version="1.0" encoding="UTF-8"?><svg id="Layer_2" xmlns="http://www.w3.org/2000/svg" viewBox="0 0 40 40"><defs><style>.cls-1{fill:#0091ff;stroke:#0091ff;stroke-miterlimit:10;stroke-width:.59px;}.cls-2{fill:none;}</style></defs><g id="Layer_1-2"><g><rect class="cls-2" width="40" height="40"/><g><path class="cls-1" d="M.84,3.69c.43-.86,1.23-1.23,2.07-1.53,1.51-.55,3.09-.83,4.67-.95,2.38-.19,4.77-.37,7.16-.37,3.11-.01,6.23,.18,9.28,.9,.91,.21,1.8,.59,2.66,.97,.67,.3,.96,.88,.96,1.66-.02,4.45,0,8.91-.02,13.36,0,.35,.09,.48,.44,.59,3.11,.93,5.05,3,5.82,6.16,.06,.23,.15,.33,.37,.41,3.32,1.13,5.31,4.39,4.84,7.88-.35,2.57-1.59,4.53-3.92,5.75-.87,.45-1.81,.65-2.78,.65-6.47,0-12.94,.01-19.41,0-2.68,0-5.03-2.01-5.59-4.76-.13-.65-.15-1.33-.23-2.04-.63-.11-1.34-.18-2.02-.35-.97-.24-1.92-.52-2.86-.85-.63-.22-1.14-.65-1.44-1.27V3.69ZM22.73,37.88c3.22,0,6.43,0,9.65,0,1.1,0,2.1-.31,2.98-.96,1.81-1.35,2.59-3.2,2.49-5.43-.12-2.75-2.02-5.06-4.46-5.52-.38-.07-.56-.29-.65-.68-.16-.67-.31-1.37-.61-1.99-1.06-2.22-2.76-3.69-5.26-3.91-2.59-.22-4.58,.91-5.96,3.11-.25,.39-.45,.42-.93,.37-.67-.08-1.37-.19-2.03-.08-2.13,.37-3.8,2.16-4.18,4.35-.13,.76-.23,.85-.97,.88-.9,.04-1.71,.34-2.41,.91-1.44,1.18-2.03,2.73-1.86,4.55,.23,2.5,2.21,4.45,4.7,4.4,3.17-.06,6.33-.02,9.5-.02ZM26.36,5.58c-.68,.21-1.31,.46-1.97,.62-2.88,.71-5.83,.88-8.78,.98-2.75,.09-5.49-.06-8.23-.39-1.76-.21-3.51-.48-5.15-1.21-.03-.01-.07,0-.12,.01,0,2.19,0,4.37,.01,6.55,0,.15,.17,.39,.32,.45,.62,.26,1.24,.51,1.89,.67,2.21,.55,4.46,.77,6.73,.88,4.01,.18,8,.12,11.95-.64,1-.19,1.96-.57,2.93-.88,.3-.1,.42-.33,.42-.68-.02-1.62,0-3.25,0-4.87,0-.49,0-.98,0-1.49ZM2.12,13.94v.33c0,1.99,.01,3.98-.01,5.97,0,.38,.13,.62,.46,.73,.8,.27,1.6,.58,2.42,.76,3.32,.71,6.7,.84,10.08,.8,.16,0,.34-.08,.48-.17,1.27-.78,2.63-1.09,4.1-.86,.26,.04,.41-.03,.56-.24,1.08-1.51,2.53-2.5,4.33-2.94,.58-.14,1.19-.2,1.79-.29v-4.15c-.31,.12-.59,.24-.87,.34-1.91,.64-3.89,.88-5.88,1.06-2.83,.26-5.66,.36-8.5,.14-2.03-.16-4.05-.4-6.06-.7-.98-.14-1.92-.5-2.9-.77Zm-.02-9.98v.14c.21,.12,.4,.27,.62,.35,.53,.19,1.07,.39,1.62,.52,2.25,.54,4.54,.77,6.84,.87,3.83,.17,7.65,.1,11.43-.57,.98-.17,1.94-.48,2.89-.75,.3-.09,.56-.29,.84-.45v-.16c-.36-.17-.7-.38-1.07-.51-1.57-.56-3.21-.81-4.86-.98-4.47-.47-8.95-.46-13.41,.14-1.42,.19-2.83,.43-4.16,.99-.26,.11-.49,.28-.74,.42ZM7.37,31.08c.38-.69,.67-1.39,1.1-1.99,.9-1.26,2.16-2,3.68-2.28,.17-.03,.38,.01,.44-.26,.22-.97,.66-1.83,1.24-2.62,.02-.02,0-.07,0-.1-3.96-.17-7.92-.23-11.71-1.63,0,.07-.02,.13-.02,.2,0,2.31,0,4.62,.01,6.92,0,.15,.13,.35,.25,.45,.18,.15,.41,.24,.64,.33,1.43,.55,2.92,.78,4.35,.97Z"/><path class="cls-1" d="M19.52,12.45c-.06,0-.13,0-.19,0-.38,0-.65-.23-.67-.58-.03-.34,.19-.63,.57-.68,.73-.1,1.46-.14,2.18-.25,.94-.15,1.86-.33,2.79-.51,.43-.08,.77,.1,.85,.47,.08,.35-.15,.69-.56,.76-1.65,.3-3.31,.58-4.96,.86l-.02-.09Z"/><path class="cls-1" d="M4.65,11.06c0,.23,.02,.46,0,.68-.03,.34-.28,.55-.61,.56-.33,0-.61-.2-.62-.53-.03-.49-.03-.99,0-1.48,.02-.33,.31-.54,.64-.52,.34,.02,.55,.2,.59,.53,.03,.25,0,.51,0,.76h0Z"/><path class="cls-1" d="M4.65,7.83c0,.35-.26,.64-.61,.65-.36,.01-.65-.28-.65-.65,0-.35,.28-.63,.63-.63,.34,0,.62,.28,.63,.63Z"/><path class="cls-1" d="M4.65,19.37c0,.22,.01,.43,0,.65-.03,.36-.27,.59-.61,.6-.34,0-.62-.21-.63-.57-.02-.47-.02-.94,0-1.4,.02-.35,.3-.57,.64-.56,.32,.01,.56,.23,.6,.57,0,.03,0,.05,0,.08,0,.22,0,.43,0,.65h0Z"/><path class="cls-1" d="M4.65,16.16c0,.35-.28,.63-.63,.63-.36,0-.64-.29-.63-.66,.01-.35,.3-.62,.64-.61,.34,.01,.61,.3,.61,.65Z"/><path class="cls-1" d="M4.65,27.65c0,.24,.02,.48,0,.72-.03,.33-.29,.55-.62,.55-.32,0-.6-.22-.62-.55-.02-.48-.02-.96,0-1.44,.02-.33,.29-.55,.61-.55,.32,0,.57,.22,.62,.55,0,.03,0,.05,0,.08,0,.22,0,.43,0,.65h0Z"/><path class="cls-1" d="M4.65,24.45c0,.36-.26,.63-.61,.64-.37,.01-.65-.27-.65-.64,0-.35,.28-.63,.63-.63,.34,0,.62,.28,.63,.63Z"/></g></g></g></svg>