<?xml version="1.0" encoding="UTF-8"?><svg id="Layer_2" xmlns="http://www.w3.org/2000/svg" viewBox="0 0 40 40"><defs><style>.cls-1{fill:#0091ff;}.cls-2{fill:none;}</style></defs><g id="Layer_1-2"><g><rect class="cls-2" width="40" height="40"/><path class="cls-1" d="M21.14,.5c.73,.1,1.46,.17,2.18,.3,3.37,.58,6.38,1.97,9.03,4.12,.49,.4,.51,.91,.02,1.32-1.98,1.63-3.96,3.25-5.95,4.87-.34,.28-.69,.26-1.05,.04-1.76-1.07-3.68-1.55-5.73-1.5-4.81,.1-9.12,3.86-9.85,8.6-.88,5.68,2.63,10.75,8.24,11.93,4.34,.91,9.08-1.34,11.1-5.28,.02-.04,.04-.09,.09-.21h-.47c-2.68,0-5.36,0-8.03,0-.85,0-1.09-.23-1.09-1.08,0-2.27,0-4.54,0-6.82,0-.8,.25-1.05,1.04-1.05,5.83,0,11.65,0,17.48,0,.73,0,.94,.18,1.05,.91,.11,.74,.2,1.48,.3,2.22v2.36c-.02,.1-.06,.19-.06,.29-.13,1.83-.49,3.62-1.18,5.32-2.76,6.82-7.75,10.96-14.97,12.37-.71,.14-1.43,.2-2.14,.29h-2.36c-.1-.02-.19-.06-.29-.06-2.51-.19-4.9-.81-7.13-1.97-5.81-3-9.34-7.72-10.56-14.15-.13-.69-.2-1.4-.3-2.1,0-.81,0-1.62,0-2.44,.02-.11,.05-.22,.07-.33,.13-.88,.22-1.76,.39-2.63C2.53,8.24,8.97,2.07,16.6,.8c.72-.12,1.45-.2,2.18-.3,.79,0,1.57,0,2.36,0Zm16.58,16.79H21.22v5.84h.48c2.83,0,5.66,0,8.49,0,.86,0,1.18,.47,.87,1.26-.65,1.66-1.64,3.09-2.94,4.3-.37,.34-.76,.66-1.17,1.01l4.74,3.88c4.79-3.94,7.02-10.53,6.03-16.29ZM4.38,11.22l4.75,3.89c.06-.11,.1-.18,.14-.26,3.01-6.11,10.21-8.49,16.27-5.38,.22,.11,.35,.09,.53-.06,1.12-.93,2.25-1.85,3.38-2.78,.41-.34,.82-.67,1.23-1.01C22.5-.7,9.75,1.5,4.38,11.22Zm26.07,23.36c-.1-.09-.19-.17-.28-.25-1.44-1.18-2.89-2.36-4.33-3.55-.22-.18-.38-.2-.64-.07-1.36,.69-2.82,1.11-4.34,1.17-5.1,.21-8.9-1.94-11.42-6.37-.06-.1-.11-.21-.18-.33l-4.74,3.88c5.28,9.22,17.57,11.66,25.93,5.53ZM3.62,12.59c-2.15,5.07-2.1,10.06,.13,15.08,1.63-1.33,3.2-2.62,4.76-3.91,.07-.06,.11-.22,.08-.32-.64-2.18-.66-4.37-.09-6.58,.03-.1-.01-.28-.09-.35-1.57-1.3-3.15-2.6-4.79-3.93Z"/></g></g></svg>